<svg width="103" height="20" viewBox="0 0 103 20" fill="none" xmlns="http://www.w3.org/2000/svg">
<g clip-path="url(#clip0)">
<path fill-rule="evenodd" clip-rule="evenodd" d="M18.0922 2.75063V16.4108H14.1037V2.75063H18.0922ZM25.7565 2.75063L22.2155 8.94985L25.7364 16.4108H21.2517L18.2127 8.86671L21.6547 2.75063H25.7565ZM30.3702 6.41619V16.4108H26.3818V2.75063H31.4932C33.0507 2.75063 34.2592 3.14398 35.1188 3.93067C35.5837 4.34983 35.953 4.86727 36.2007 5.44677C36.4485 6.02627 36.5687 6.65384 36.553 7.28554C36.553 8.66833 35.9626 9.83525 34.7818 10.7863L37.0764 16.4108H32.8915L30.9539 12.0145V8.50497H31.2694C32.1056 8.50497 32.5258 8.13739 32.5258 7.3964C32.5258 6.74439 32.0425 6.41619 31.0715 6.41619H30.3702ZM43.7956 6.67875V16.4064H39.8114V6.67875H36.7451V2.74042H46.8389V6.67875H43.7956ZM51.827 2.74042V16.4006H47.8428V2.75063L51.827 2.74042ZM62.1689 9.74189L66.3509 9.85129C66.0756 12.0568 65.326 13.7585 64.1021 14.9565C62.8783 16.1546 61.283 16.7555 59.3163 16.7594C57.3161 16.7594 55.6429 16.0787 54.2967 14.7173C52.9504 13.3559 52.2745 11.662 52.2687 9.63541C52.2687 7.6011 52.9557 5.89108 54.3296 4.50537C55.7036 3.11967 57.3978 2.42535 59.4124 2.42244C61.3925 2.42244 63.0452 3.10314 64.3703 4.46453C65.2892 5.4039 65.9393 6.7123 66.3208 8.38973L62.0412 8.68146C61.5632 7.19948 60.652 6.45849 59.3077 6.45849C58.9122 6.44707 58.5188 6.52127 58.1536 6.67618C57.7884 6.83108 57.4597 7.06316 57.1894 7.35702C56.6358 7.95798 56.3576 8.71793 56.3576 9.64416C56.3576 10.5339 56.6301 11.272 57.1765 11.8525C57.4413 12.1389 57.7628 12.365 58.1198 12.5158C58.4767 12.6667 58.8611 12.7389 59.2474 12.7277C60.0965 12.7277 60.7725 12.4705 61.2754 11.9561C61.7783 11.4417 62.0761 10.7036 62.1689 9.74189ZM70.8012 2.75501V16.4152H66.8142V2.75063L70.8012 2.75501ZM78.4655 2.75501L74.9245 8.95423L78.4454 16.4152H73.9607L70.9231 8.86671L74.3652 2.75063L78.4655 2.75501ZM90.4753 10.4406H82.8741C82.7744 10.089 82.7204 9.72561 82.7135 9.35973C82.7148 8.901 82.7924 8.4458 82.943 8.0134H85.4901C85.3113 6.97874 84.7534 6.46141 83.8164 6.46141C83.5145 6.45772 83.2165 6.53108 82.9496 6.6748C82.6828 6.81852 82.4557 7.02801 82.289 7.28408C81.8946 7.83107 81.6981 8.5356 81.6981 9.39182C81.6981 10.286 81.886 11.0051 82.2718 11.5608C82.4311 11.8168 82.6519 12.0272 82.9134 12.1721C83.1749 12.3171 83.4684 12.3919 83.7662 12.3893C84.2653 12.3893 84.7501 12.1297 85.2119 11.6119L88.0659 15.1389C86.8147 16.189 85.2421 16.7617 83.6199 16.758C81.6398 16.758 79.9733 16.0724 78.6204 14.7013C77.2722 13.3287 76.5953 11.6381 76.5953 9.6077C76.5953 7.57727 77.2765 5.89108 78.639 4.50246C80.0015 3.11383 81.6895 2.42098 83.6716 2.42098C85.6106 2.42098 87.2398 3.10168 88.5592 4.46307C89.8787 5.82447 90.5389 7.49607 90.5398 9.47788C90.5398 9.6748 90.5169 9.99424 90.4753 10.4362V10.4406ZM97.2834 6.67875V16.4064H93.2963V6.67875H90.2344V2.74042H100.325V6.67875H97.2834ZM1.34956 1.40139H101.65V17.7644H1.34956V1.40139ZM0 0.0288086H103.001V19.137H0V0.0288086ZM12.3842 2.75063V11.609C12.3842 13.1716 11.9266 14.4207 11.0116 15.3562C10.0966 16.2917 8.87901 16.7594 7.35878 16.7594C5.84142 16.7594 4.68212 16.3053 3.88089 15.397C3.07966 14.4888 2.67809 13.1828 2.67618 11.4791V2.75063H6.66464V11.4689C6.66464 12.3047 6.95147 12.7248 7.54379 12.7248C8.11603 12.7248 8.40287 12.3047 8.40287 11.4689V2.75063H12.3842Z" fill="#DF191F"/>
</g>
<defs>
<clipPath id="clip0">
<rect width="103" height="19.1628" fill="white"/>
</clipPath>
</defs>
</svg>
