<svg width="88" height="84" viewBox="0 0 88 84" fill="none" xmlns="http://www.w3.org/2000/svg">
<path d="M45.5954 0.234171C45.5889 0.637628 45.7654 3.2673 45.8831 4.52091C46.5106 11.0771 48.4324 15.724 52.2892 19.9748C53.505 21.3221 54.4137 22.1578 56.6688 24.0094C58.6821 25.6665 59.2313 26.2068 59.9242 27.1938C60.9177 28.6347 61.6433 29.9603 62.82 32.5251C63.8398 34.7514 64.2189 35.3638 65.2975 36.5453C66.5591 37.943 67.8402 38.822 69.4549 39.42C70.1609 39.6794 71.331 39.9748 71.6185 39.9603H71.7689L71.6055 39.8811C69.5071 38.8941 67.8991 37.4531 66.5067 35.2846C65.4739 33.6852 64.879 32.3307 64.0097 29.629C62.5061 24.9315 61.7414 23.8437 58.0089 21.0194C55.9236 19.4416 54.3548 18.0151 53.0148 16.4733C49.3019 12.2082 46.9486 7.18661 45.8177 1.11313C45.6804 0.392672 45.5954 0.0540541 45.5954 0.234171Z" fill="#7FAB0D"/>
<path d="M44.9352 8.13756C44.4123 9.31191 44.092 10.335 43.8436 11.6462C43.6801 12.4891 43.667 12.6837 43.6605 14.3192C43.6605 15.6808 43.6866 16.2932 43.7847 16.9921L43.9024 17.9069L43.7325 18.4689C43.4121 19.5424 43.2945 20.2701 43.2553 21.4949C43.1899 23.5266 43.5037 24.8955 44.6149 27.3666L45.2621 28.8076L45.2882 31.0194C45.3143 33.296 45.3535 33.7716 45.6608 35.3421C46.1641 37.9214 47.3342 40.3853 48.9226 42.2298C51.374 45.0755 55.1195 46.92 59.7411 47.5611C60.6302 47.6837 62.7153 47.8421 62.7677 47.7845C62.8069 47.7485 62.8461 47.7628 61.7022 47.3882C55.3746 45.3206 50.9229 41.6462 49.158 37.0208C48.5696 35.4862 48.2036 33.6419 48.2036 32.1938V31.7399L48.354 31.8551C48.9554 32.3306 50.4196 33.2817 51.1778 33.6923C52.2172 34.2615 53.1781 34.636 54.0999 34.8451C54.7469 34.9963 56.4858 35.1836 56.5446 35.1188C56.5643 35.0972 56.1002 34.809 55.5184 34.4848C52.1387 32.5827 49.7136 30.0108 48.2951 26.8191C47.8114 25.7312 47.4323 24.5424 47.197 23.3897C47.1054 22.943 47.0401 22.5684 47.0467 22.554C47.0597 22.5467 47.3931 22.7701 47.7918 23.0583C49.1057 24.0165 50.6419 24.7585 52.2761 25.234C53.2108 25.5007 54.5444 25.7816 54.5444 25.7096C54.5444 25.6879 54.2632 25.5222 53.9233 25.3493C51.5504 24.139 49.524 22.2226 48.0533 19.8091C47.55 18.9804 46.7851 17.2802 46.4583 16.2571C45.7065 13.9301 45.3339 11.1779 45.4124 8.59145C45.432 7.91421 45.4712 7.30903 45.4909 7.23699C45.517 7.16494 45.504 7.1145 45.4647 7.1145C45.4255 7.1145 45.1901 7.5756 44.9352 8.13756Z" fill="#7FAB0D"/>
<path d="M21.0759 35.1909C18.1278 35.5007 15.317 36.4372 12.1858 38.1591C6.66876 41.1923 2.58325 45.4861 1.39354 49.4992C0.994798 50.8465 0.90982 52.3449 1.17129 53.4041C1.64848 55.3205 3.29576 57.4459 5.44637 58.9156C7.51201 60.3277 9.7999 61.0409 10.6693 60.5438C10.9373 60.3926 11.0746 60.0899 11.0746 59.6504C11.0746 59.3118 11.055 59.2758 10.4797 58.5481C9.08084 56.7974 8.60365 55.5294 8.54482 53.368C8.51868 52.4099 8.53175 52.1432 8.65596 51.4948C9.16583 48.7283 10.7412 45.7239 13.0356 43.1087C15.5065 40.2989 18.337 38.649 20.5203 38.7572C21.2721 38.8003 21.6904 38.9877 22.0891 39.4776C22.6252 40.1332 22.7689 40.8609 22.6447 42.3162C22.4421 44.8378 21.7426 47.7557 19.9843 53.4761C17.1669 62.6404 16.4609 65.2844 15.9837 68.3536C15.6634 70.4141 15.6373 72.2152 15.9052 73.1086C16.3041 74.4126 17.0819 75.7671 18.0362 76.819C19.4875 78.4111 20.298 78.4833 21.9061 77.1721C23.8345 75.6014 30.6916 68.3464 33.8554 64.5352C40.1895 56.8983 44.1705 50.407 45.6739 45.2629C46.21 43.4185 46.4649 41.5092 46.3146 40.4934C46.0532 38.8147 44.6281 37.1216 42.4841 35.9689C41.5558 35.4647 40.7452 35.2052 40.0784 35.1909C39.5882 35.1763 39.5555 35.1836 39.4052 35.3781C39.196 35.6448 39.2025 35.9689 39.4313 36.9344C39.5947 37.6404 39.6077 37.8061 39.6077 39.0668C39.6077 40.5222 39.549 41.1274 39.2417 42.7197C38.0193 49.1821 33.7966 57.2585 27.6519 64.8954C26.7695 65.9833 24.2266 68.8507 23.3377 69.7441L22.7559 70.3349L22.8016 69.6649C22.9455 67.5323 23.5404 65.1188 25.619 58.195C26.9394 53.8003 27.5082 51.7974 27.9723 49.9531C28.8286 46.5092 29.1946 44.139 29.2012 42.0568C29.2012 41.0554 29.1816 40.7744 29.0639 40.2917C28.3645 37.4819 26.1158 35.5871 23.05 35.2196C22.4225 35.1476 21.6054 35.1332 21.0759 35.1909Z" fill="#7FAB0D"/>
<path d="M77.6194 37.8061C76.1289 38.0366 74.2726 39.0381 72.671 40.479C72.0173 41.077 70.7819 42.3954 70.8276 42.4459C70.8538 42.4747 71.1021 42.3306 71.3898 42.1361C72.5337 41.3579 73.7823 40.7672 74.9066 40.4646C77.286 39.845 79.4366 40.4286 81.3584 42.2225C81.7049 42.5467 82.607 43.6995 82.7965 44.0524L82.9076 44.2686L82.4043 44.3118C80.6656 44.4632 78.3841 45.8536 75.8544 48.3104C74.8085 49.3191 72.841 51.5308 71.8277 52.8277C69.7621 55.4646 67.971 56.8694 65.559 57.7557C63.3821 58.5554 61.2185 58.7282 56.1067 58.5265C52.7337 58.3897 50.5962 58.3824 48.9489 58.4833C44.3142 58.7786 41.3073 59.7657 38.3004 61.9703C36.5616 63.2527 35.5615 64.3911 34.1103 66.7686C33.4631 67.8277 32.646 69.319 32.646 69.4415C32.646 69.5783 32.9663 69.247 33.2802 68.7786C33.7443 68.1015 35.836 65.8104 36.6988 65.0395C38.6991 63.2527 41.2747 61.8479 43.5625 61.3074C45.8765 60.7599 49.8314 60.6878 56.5708 61.0769C59.5385 61.2498 61.3296 61.257 62.5193 61.1057C66.7813 60.5654 70.5203 58.7138 74.2987 55.2772C75.4361 54.2398 77.6848 51.7613 79.1751 49.9098C79.8222 49.0957 80.5021 48.296 80.6787 48.1303C81.9206 46.9704 83.241 46.2354 84.7446 45.8608C85.3394 45.7168 85.6074 45.6951 86.7121 45.6951H87.9998L87.8822 45.515C87.6795 45.2052 87.1501 44.6793 86.7316 44.3695C86.3134 44.0597 85.4962 43.6202 85.1824 43.5338C85.0517 43.4905 84.9538 43.3824 84.8296 43.1159C84.0647 41.4444 82.7638 39.7081 81.6787 38.8867C80.489 38.0006 78.979 37.5971 77.6194 37.8061Z" fill="#7FAB0D"/>
<path d="M46.6933 64.1245C45.6082 64.4559 44.3139 66.2067 43.3989 68.5698C42.6666 70.4646 42.2287 72.345 42.0915 74.211C42.0522 74.7297 42.0261 74.7946 41.7646 75.1476C41.3135 75.7672 40.7972 76.1346 40.4049 76.1346C39.7904 76.1346 39.81 75.479 40.4899 73.26C41.0128 71.5525 41.026 71.3795 40.6795 71.0626C40.4899 70.8825 40.1173 70.7312 39.8755 70.7312C39.81 70.7312 39.6336 70.6158 39.4898 70.4718C39.0257 70.0108 38.7315 69.9027 37.8752 69.9027C37.2018 69.9027 37.0843 69.9242 36.7639 70.0899C35.8553 70.5654 34.9859 71.5813 34.4433 72.7845C34.0185 73.7355 33.8615 74.4272 33.855 75.3421C33.855 76.0266 33.8682 76.1346 34.0315 76.4661C34.6786 77.8205 36.2017 77.8205 37.5287 76.4661L37.9863 75.9977L38.0648 76.286C38.1105 76.4516 38.2608 76.7253 38.4047 76.8911C38.7642 77.3162 39.1368 77.4675 39.8428 77.4675C40.3526 77.4675 40.4377 77.4459 40.8953 77.2009C41.2155 77.0208 41.5554 76.7543 41.8562 76.4372L42.3268 75.9473L42.451 76.1707C42.647 76.5236 43.1112 76.9775 43.4707 77.1721C44.5754 77.7772 45.6998 77.5251 46.7653 76.4444L47.2425 75.9545L47.3406 76.1346C47.53 76.4661 48.0203 76.92 48.3798 77.1145C49.6415 77.7701 51.3738 77.554 52.5961 76.5956L52.9098 76.3508L52.9491 76.5525C53.0275 76.884 53.1714 77.0568 53.5244 77.2513C53.91 77.4603 54.6421 77.5683 54.8514 77.4459C54.969 77.3739 54.9886 77.2658 55.0213 76.5165C55.0997 75.0323 55.4789 73.5842 56.0541 72.6044C56.649 71.5885 57.5118 70.9833 57.8387 71.3508C57.989 71.5092 57.9302 71.8479 57.5183 73.2167C57.1523 74.4415 56.9889 75.3349 57.0542 75.7959C57.1457 76.4301 57.5314 76.9344 58.1721 77.2658C58.5119 77.4386 58.6427 77.4675 59.1852 77.4675C59.767 77.4675 59.839 77.453 60.303 77.2081C60.6102 77.0424 60.9567 76.783 61.2182 76.5165L61.6366 76.0842L61.813 76.358C62.0418 76.711 62.519 77.1001 62.9766 77.3018C63.2511 77.417 63.4799 77.4603 63.9244 77.4603C64.4604 77.4675 64.5519 77.4459 64.9376 77.2369C65.1729 77.1072 65.5587 76.8263 65.8005 76.6102L66.2319 76.2138L66.3104 76.4301C66.4215 76.711 66.781 77.0497 67.2256 77.2802C67.5327 77.4386 67.6765 77.4675 68.2061 77.4675C68.8009 77.4675 68.8597 77.453 69.3173 77.2009C69.5853 77.0568 69.9317 76.819 70.0887 76.675C70.3306 76.4444 70.3632 76.4301 70.3632 76.5596C70.3632 76.8407 70.7358 77.2009 71.1934 77.3593C71.6706 77.5251 72.2132 77.5467 72.3111 77.417C72.3439 77.3666 72.4092 76.8983 72.4484 76.3868C72.6054 74.4272 73.0956 72.9575 73.9323 71.9631C74.4356 71.358 75.0305 71.077 75.2527 71.322C75.3965 71.4805 75.3312 71.8911 74.9324 73.2384C74.5991 74.3622 74.5272 74.6937 74.501 75.234C74.4683 75.8032 74.4815 75.9329 74.6122 76.2643C74.854 76.8767 75.3508 77.2729 76.1025 77.4315C76.9653 77.6187 77.7106 77.3739 78.5343 76.6173L78.9656 76.2283L79.1226 76.5165C79.3317 76.884 79.7697 77.2513 80.1814 77.4026C80.796 77.626 81.6589 77.3882 82.3583 76.7974C82.5021 76.6749 82.6983 76.5092 82.7962 76.4228C82.9466 76.2931 82.9662 76.286 82.9401 76.4012C82.7244 77.4963 82.6328 77.8638 82.5806 77.8638C82.4497 77.8638 80.8417 78.6706 80.4037 78.9588C79.1683 79.7657 78.7892 80.6375 79.2403 81.6173C79.5801 82.3593 80.2795 82.7341 81.2208 82.6764C82.5871 82.59 83.548 81.4012 84.3193 78.858L84.607 77.8998L85.1364 77.5611C85.9274 77.0568 86.4895 76.5742 87.1041 75.868C87.8819 74.9747 88.0452 74.5208 87.6531 74.3191C87.4112 74.1965 87.1889 74.3046 86.9471 74.6721C86.6269 75.1548 85.8359 75.9762 85.3522 76.3364C85.1299 76.5021 84.9337 76.6389 84.9207 76.6389C84.9076 76.6389 85.0253 76.1274 85.1821 75.5007C85.5614 74.0164 86.0386 71.8911 86.1169 71.3508C86.1693 70.9762 86.1628 70.8969 86.0451 70.6879C85.9731 70.5583 85.7378 70.3206 85.5155 70.1548C85.1953 69.9171 85.0645 69.8667 84.8095 69.8667C84.6005 69.8667 84.4696 69.9027 84.3978 69.9962C84.3389 70.0683 84.1429 70.6951 83.9663 71.3868C83.5611 72.9575 83.2277 74.002 82.9336 74.6433C82.6785 75.2125 82.1491 75.868 81.7896 76.0697C80.8026 76.6245 80.7567 75.4861 81.6589 72.7484C81.8418 72.2081 82.0184 71.5813 82.0641 71.358C82.1295 70.9833 82.1295 70.9257 82.0053 70.7024C81.7831 70.3133 81.2143 69.9171 80.8026 69.8811C80.5279 69.8594 80.443 69.8811 80.3515 69.9819C80.1292 70.2629 79.4036 72.5756 79.1159 73.9373C78.9983 74.5208 78.9199 74.7297 78.7042 75.0395C78.0636 75.9906 77.2661 76.3868 76.8935 75.9473C76.6255 75.6304 76.6843 75.0828 77.168 73.5194C77.5471 72.3162 77.5799 72.1577 77.5799 71.5813C77.5864 71.005 77.5734 70.9402 77.3903 70.6447C77.2792 70.479 77.0504 70.2269 76.8739 70.0972C76.5862 69.8882 76.5144 69.8667 76.0568 69.8667C75.2984 69.8667 74.5076 70.1765 73.7557 70.7672L73.4551 71.0049L73.2198 70.6591C72.9714 70.2917 72.5399 70.0108 72.2328 70.0108C72.1347 70.0108 71.9909 70.0828 71.9059 70.1765C71.664 70.443 71.0233 72.4243 70.6901 73.9156C70.4874 74.8307 70.4154 74.9819 69.9252 75.5007C69.3303 76.1346 68.8074 76.3004 68.5002 75.9545C68.3629 75.8105 68.3368 75.7095 68.3368 75.3781C68.3368 74.7874 68.5002 74.002 68.8662 72.8205C69.0428 72.2442 69.2192 71.5885 69.2585 71.358C69.3173 70.9833 69.3108 70.9185 69.1866 70.7024C68.9708 70.306 68.4021 69.9171 67.9903 69.8811C67.67 69.8522 67.6243 69.8667 67.5066 70.0395C67.2321 70.4214 66.3954 73.1447 66.1927 74.2902C66.0816 74.9171 66.075 74.9387 65.6894 75.3781C65.4737 75.6231 65.1729 75.8969 65.0226 75.9833C64.297 76.3868 63.6302 75.9473 63.6302 75.0755C63.6302 74.2975 64.0552 72.4026 64.6108 70.7095L64.8199 70.0828H65.4082C65.9835 70.0828 66.0031 70.0755 66.1927 69.8522C66.33 69.6864 66.3757 69.5713 66.3626 69.4055L66.343 69.1821L65.7482 69.1605L65.1468 69.139L65.4017 68.4041C65.7416 67.4315 65.7351 67.2802 65.3625 66.884C65.0487 66.5453 64.5781 66.2644 64.3231 66.2644C63.9767 66.2644 63.6434 66.8479 63.0747 68.4401C62.8328 69.1245 62.8198 69.1461 62.6236 69.1461C62.3622 69.1461 62.1725 69.2975 62.0353 69.6073C61.885 69.9531 61.9503 70.0828 62.2706 70.0828C62.4864 70.0828 62.519 70.1044 62.4929 70.2052C61.983 72.028 61.728 73.1087 61.5646 74.1174C61.447 74.8738 61.3882 74.9891 60.8586 75.5438C60.303 76.1274 59.8258 76.286 59.5056 75.9977C59.3618 75.8752 59.3486 75.8032 59.3553 75.2917C59.3553 74.7946 59.4075 74.5784 59.7735 73.3968C60.3553 71.5453 60.3488 71.0266 59.7278 70.3493C59.3944 69.9747 59.1395 69.8667 58.6034 69.8667C57.8778 69.8667 57.0085 70.2269 56.1718 70.8825C56.0933 70.9473 56.0017 70.8825 55.6815 70.5294C55.2435 70.0468 54.956 69.9242 54.6095 70.0828C54.459 70.1476 54.3807 70.2773 54.2237 70.6808C53.9035 71.5309 53.5309 72.7988 53.2956 73.7932C53.0537 74.8667 52.9557 75.0395 52.3347 75.5583C50.9227 76.7182 49.4127 76.3868 49.1578 74.8594L49.1251 74.6216L49.5958 74.6649C50.9815 74.7946 52.119 73.9733 52.485 72.5756C52.7726 71.4876 52.3543 70.4574 51.4456 70.0035C51.06 69.809 50.282 69.8161 49.7918 70.0179C49.2428 70.2413 48.5956 70.7384 48.1445 71.2787C47.4713 72.0928 46.9613 73.4761 46.9613 74.492C46.9613 74.7657 46.9156 74.8522 46.5953 75.2556C46.1574 75.7959 45.6606 76.1346 45.3076 76.1346C44.5035 76.1346 44.131 75.3853 44.2747 74.0597L44.3466 73.3608L44.8827 72.7412C46.262 71.1707 47.9354 68.3033 48.4322 66.6606C48.7656 65.5727 48.576 64.7801 47.8765 64.3046C47.517 64.067 47.0922 64.0021 46.6933 64.1245ZM47.6673 65.6879C47.7066 66.2355 46.8568 68.3608 45.9743 69.9242C45.5625 70.6591 44.7454 71.8479 44.6996 71.7903C44.6473 71.7326 45.0788 70.2485 45.4383 69.2542C46.0528 67.5323 46.6672 66.286 47.177 65.7024C47.4974 65.3421 47.6412 65.3349 47.6673 65.6879ZM51.3475 71.0266C51.3999 71.1418 51.3999 71.2644 51.341 71.5021C51.1187 72.4819 50.2755 73.4905 49.5303 73.6706C49.2624 73.7355 49.2493 73.7355 49.2493 73.5842C49.2493 73.3464 49.4846 72.6331 49.6806 72.2513C50.2298 71.1994 51.1122 70.5511 51.3475 71.0266ZM38.47 71.113C38.8884 71.4661 38.7838 72.4747 38.1955 73.7787C37.568 75.1692 36.7835 76.0842 36.3325 75.9617C35.9207 75.8465 35.8814 74.9315 36.2474 73.7139C36.7835 71.9344 37.9013 70.6304 38.47 71.113ZM82.1687 79.4919C81.9988 80.0251 81.6065 80.8176 81.3646 81.113C80.9463 81.6173 80.4953 81.7686 80.358 81.4372C80.2077 81.0697 80.7895 80.2629 81.7307 79.5352C81.9988 79.3262 82.2276 79.1678 82.2407 79.1821C82.2537 79.1965 82.2211 79.3406 82.1687 79.4919Z" fill="#7FAB0D"/>
<path d="M69.5665 65.3422C69.22 65.4432 68.8277 65.8466 68.6186 66.3222C68.4749 66.6464 68.4355 66.8336 68.4355 67.2154C68.4355 67.763 68.5597 68.0151 68.9323 68.2241C69.7299 68.678 70.6385 67.8639 70.7954 66.5598C70.8411 66.1492 70.6646 65.6233 70.4163 65.4503C70.207 65.3062 69.854 65.2558 69.5665 65.3422Z" fill="#7FAB0D"/>
<path d="M10.1072 66.3796C9.93066 66.5165 9.56461 67.309 9.17892 68.3681C8.91092 69.1245 8.89131 69.1462 8.69521 69.1462C8.3749 69.1534 8.06767 69.5064 8.06767 69.8811C8.06767 70.0685 8.08728 70.0828 8.32914 70.0828C8.47295 70.0828 8.59062 70.0972 8.59062 70.1189C8.59062 70.1405 8.47295 70.5727 8.33567 71.077C8.02191 72.1938 7.77351 73.3033 7.64931 74.1101C7.57087 74.6217 7.52511 74.7441 7.33554 74.9603C7.0087 75.335 6.57073 75.6159 6.11316 75.7456C5.61636 75.8825 5.49869 75.8176 5.70133 75.5078C5.91705 75.1693 6.21775 74.4703 6.35502 73.9733C6.83875 72.2298 6.36809 70.7239 5.13917 70.0972C4.64891 69.8451 3.64223 69.7874 3.06046 69.9748C1.96882 70.3206 0.981752 71.2211 0.498027 72.3162C0.125429 73.152 0.0077658 73.7067 0.00122897 74.6217C-0.00530785 75.335 0.00776581 75.407 0.20387 75.8536C0.896774 77.4027 2.63557 77.9358 4.17172 77.0785C4.66853 76.8047 4.74043 76.7831 5.25684 76.7831C6.10662 76.7831 6.87797 76.5309 7.48589 76.0554L7.65584 75.9257L7.8781 76.2931C8.31607 77.0281 9.12664 77.4676 10.0352 77.4676C10.5451 77.4676 10.6301 77.4459 11.0811 77.2009C11.6825 76.8624 12.1924 76.3724 12.7023 75.6231C13.1468 74.9819 13.2514 74.6289 13.0683 74.4056C13.003 74.3263 12.8657 74.2615 12.7676 74.2615C12.6173 74.2615 12.5192 74.3552 12.1924 74.8307C11.3949 75.9833 10.6889 76.3796 10.1072 75.9906C9.79339 75.7745 9.67573 75.4214 9.72802 74.8162C9.79339 74.0093 10.0156 73.015 10.4601 71.5022L10.885 70.0828H11.4603C12.1074 70.0828 12.297 69.9892 12.4473 69.5784C12.5781 69.2255 12.4669 69.1462 11.8198 69.1462C11.5191 69.1462 11.2707 69.1174 11.2707 69.0885C11.2707 69.0525 11.3884 68.6779 11.5387 68.2528C11.774 67.554 11.7937 67.446 11.7218 67.2586C11.5714 66.8624 10.787 66.2644 10.4144 66.2644C10.3294 66.2644 10.1856 66.3148 10.1072 66.3796ZM4.32206 70.9834C4.73389 71.3004 4.71427 72.8709 4.26977 74.4416C4.15211 74.8738 4.12596 74.9099 3.94947 74.9099C3.68799 74.9099 3.22388 75.3206 3.10622 75.6519C3.02124 75.9042 3.02124 75.9402 3.15198 76.1347C3.29578 76.3435 3.29578 76.3435 3.17159 76.4228C2.83821 76.6173 2.39371 76.4228 2.21067 76.0122C2.03418 75.6231 2.04725 74.5209 2.23682 73.6563C2.6421 71.8407 3.69454 70.4934 4.32206 70.9834Z" fill="#7FAB0D"/>
</svg>
