<svg width="54" height="54" viewBox="0 0 54 54" fill="none" xmlns="http://www.w3.org/2000/svg">
<path d="M21.9336 21.3078C16.9297 21.3078 12.8648 25.3727 12.8648 30.3766C12.8648 35.3804 16.9297 39.4453 21.9336 39.4453C26.9374 39.4453 31.0023 35.3804 31.0023 30.3766C31.0023 25.3727 26.9374 21.3078 21.9336 21.3078ZM21.9336 38.1902C17.6205 38.1902 14.12 34.6897 14.12 30.3766C14.12 26.0635 17.6205 22.563 21.9336 22.563C26.2467 22.563 29.7472 26.0635 29.7472 30.3766C29.7472 34.6897 26.2467 38.1902 21.9336 38.1902Z" fill="#6651E7" stroke="#6651E7" stroke-width="0.2"/>
<mask id="path-2-outside-1" maskUnits="userSpaceOnUse" x="0.148438" y="0.149048" width="52" height="52" fill="black">
<rect fill="white" x="0.148438" y="0.149048" width="52" height="52"/>
<path d="M51.1623 18.5589C51.1623 16.4065 49.4108 14.6549 47.2583 14.6549H42.5207L42.4468 14.4439C41.7715 12.5552 39.9778 11.2784 37.973 11.2784C35.9682 11.2784 34.1745 12.5552 33.4992 14.4439L33.4253 14.6549H28.6877C28.4239 14.6549 28.1602 14.6866 27.9069 14.7288L27.5271 14.8026V8.42955C27.5271 6.27705 25.7755 4.52551 23.623 4.52551H18.8854L18.8116 4.31448C18.1363 2.42577 16.3425 1.14905 14.3378 1.14905C12.333 1.14905 10.5392 2.42577 9.86394 4.31448L9.79008 4.52551H5.05248C2.89998 4.52551 1.14844 6.27705 1.14844 8.42955V18.5589C1.14844 20.7114 2.89998 22.463 5.05248 22.463H12.4596L12.0797 22.9695C10.4548 25.1325 9.5896 27.6965 9.5896 30.3766C9.5896 32.7612 10.286 35.0825 11.5838 37.0873L11.721 37.2983L10.1172 38.9127L9.27306 38.0686L2.18248 45.1697C1.51774 45.8345 1.14844 46.7102 1.14844 47.6493C1.14844 49.5908 2.7206 51.1629 4.66207 51.1629C5.60115 51.1629 6.47692 50.7936 7.14166 50.1394L14.2322 43.0383L13.3881 42.1942L15.0025 40.5798L15.2135 40.717C17.2183 42.0254 19.5396 42.7112 21.9243 42.7112C27.7698 42.7112 32.8556 38.554 34.0162 32.8351L34.069 32.5818H39.9778V36.412L45.7283 32.5818H47.2583C49.4108 32.5818 51.1623 30.8303 51.1623 28.6778V18.5589ZM37.973 12.3336C40.0094 12.3336 41.666 13.9902 41.666 16.0266C41.666 18.063 40.0094 19.7196 37.973 19.7196C35.9366 19.7196 34.28 18.063 34.28 16.0266C34.28 13.9902 35.9366 12.3336 37.973 12.3336ZM40.02 21.0807C42.9744 21.9776 45.0425 24.7632 45.0425 27.8442V28.1608H40.1466L39.5663 20.9436L40.02 21.0807ZM39.0915 28.1608H36.8546L37.4454 20.7959L37.7303 20.7853C37.762 20.7853 37.7936 20.7853 37.8147 20.7748C37.9203 20.7642 38.0258 20.7642 38.1313 20.7748C38.1629 20.7748 38.1946 20.7748 38.2157 20.7748L38.5006 20.7853L39.0915 28.1608ZM28.6877 15.7101H33.2249V16.0266C33.2249 17.4827 33.8896 18.8438 35.0503 19.7618L35.4829 20.0995L34.9764 20.2999C33.7946 20.7748 32.7289 21.5239 31.8848 22.4735L31.6421 22.7479L31.41 22.463C29.9961 20.7748 28.1496 19.498 26.071 18.7489L25.8494 18.675L25.8599 18.4429C25.9127 16.9129 27.1578 15.7101 28.6877 15.7101ZM19.0859 5.8972V5.58066H23.623C25.1952 5.58066 26.4719 6.85738 26.4719 8.42955V15.3619L26.3453 15.4568C25.5117 16.0899 24.9842 16.9973 24.8365 18.0314L24.7942 18.369L24.4672 18.2952C23.9607 18.1896 23.4015 18.1158 22.7684 18.0736L22.4729 18.0525V17.7148C22.4729 14.3806 20.4576 11.4156 17.3555 10.1705L16.849 9.97006L17.2816 9.63242C18.4212 8.71444 19.0859 7.36385 19.0859 5.8972ZM21.4072 17.7148V18.0314H16.5114L15.931 10.8142L16.3742 10.9513C19.3391 11.8482 21.4072 14.6233 21.4072 17.7148ZM14.3378 2.20419C16.3742 2.20419 18.0308 3.86077 18.0308 5.8972C18.0308 7.93363 16.3742 9.59021 14.3378 9.59021C12.3013 9.59021 10.6447 7.93363 10.6447 5.8972C10.6447 3.86077 12.3013 2.20419 14.3378 2.20419ZM15.4562 18.0314H13.2193L13.8102 10.6665L14.0951 10.6559C14.1267 10.6559 14.1584 10.6559 14.1795 10.6559C14.285 10.6454 14.3905 10.6454 14.496 10.6559C14.5277 10.6559 14.5593 10.6559 14.5804 10.6559L14.8653 10.6665L15.4562 18.0314ZM12.7339 10.8142L12.1536 18.0314H7.26828V17.7148C7.26828 14.6233 9.33637 11.8482 12.2908 10.9513L12.7339 10.8142ZM5.05248 21.4078C3.48031 21.4078 2.20358 20.1311 2.20358 18.5589V8.42955C2.20358 6.85738 3.48031 5.58066 5.05248 5.58066H9.5896V5.8972C9.5896 7.36385 10.2543 8.71444 11.415 9.63242L11.8476 9.97006L11.3411 10.1705C8.22846 11.4156 6.21314 14.3806 6.21314 17.7148V19.0865H16.8279L15.8044 19.6774C15.013 20.1311 14.2639 20.6903 13.5675 21.3234L13.4725 21.4078H5.05248ZM6.40306 49.3903C5.9388 49.8546 5.32681 50.1078 4.66207 50.1078C3.30093 50.1078 2.20358 49.0104 2.20358 47.6493C2.20358 46.9951 2.45682 46.3726 2.92108 45.9083L9.27306 39.5669L12.7445 43.0383L6.40306 49.3903ZM12.6495 41.445L10.8663 39.6619L12.3646 38.1635L12.5862 38.4168C12.9872 38.8811 13.4303 39.3242 13.8946 39.7252L14.1478 39.9467L12.6495 41.445ZM21.9348 41.6666C15.7094 41.6666 10.6447 36.6019 10.6447 30.3766C10.6447 24.1512 15.7094 19.0865 21.9348 19.0865C28.1602 19.0865 33.2249 24.1512 33.2249 30.3766C33.2249 36.6019 28.1602 41.6666 21.9348 41.6666ZM34.0795 28.1608L34.0268 27.9075C33.7419 26.4936 33.1932 25.1325 32.3913 23.8558L32.2752 23.6658L32.4124 23.4865C33.3093 22.3364 34.5332 21.5028 35.926 21.0807L36.3692 20.9436L35.7994 28.1502L34.0795 28.1608ZM50.1072 28.6883C50.1072 30.2605 48.8305 31.5372 47.2583 31.5372H45.4118L41.0329 34.46V31.5372H34.2167L34.2484 31.0308C34.2695 30.8092 34.28 30.5876 34.28 30.3766C34.28 30.1655 34.2695 29.944 34.2484 29.7224L34.2167 29.2159H46.0976V27.8442C46.0976 24.51 44.0823 21.545 40.9802 20.2999L40.4737 20.0995L40.9063 19.7618C42.067 18.8544 42.7317 17.4932 42.7317 16.0266V15.7101H47.2688C48.841 15.7101 50.1177 16.9868 50.1177 18.5589V28.6883H50.1072Z"/>
</mask>
<path d="M51.1623 18.5589C51.1623 16.4065 49.4108 14.6549 47.2583 14.6549H42.5207L42.4468 14.4439C41.7715 12.5552 39.9778 11.2784 37.973 11.2784C35.9682 11.2784 34.1745 12.5552 33.4992 14.4439L33.4253 14.6549H28.6877C28.4239 14.6549 28.1602 14.6866 27.9069 14.7288L27.5271 14.8026V8.42955C27.5271 6.27705 25.7755 4.52551 23.623 4.52551H18.8854L18.8116 4.31448C18.1363 2.42577 16.3425 1.14905 14.3378 1.14905C12.333 1.14905 10.5392 2.42577 9.86394 4.31448L9.79008 4.52551H5.05248C2.89998 4.52551 1.14844 6.27705 1.14844 8.42955V18.5589C1.14844 20.7114 2.89998 22.463 5.05248 22.463H12.4596L12.0797 22.9695C10.4548 25.1325 9.5896 27.6965 9.5896 30.3766C9.5896 32.7612 10.286 35.0825 11.5838 37.0873L11.721 37.2983L10.1172 38.9127L9.27306 38.0686L2.18248 45.1697C1.51774 45.8345 1.14844 46.7102 1.14844 47.6493C1.14844 49.5908 2.7206 51.1629 4.66207 51.1629C5.60115 51.1629 6.47692 50.7936 7.14166 50.1394L14.2322 43.0383L13.3881 42.1942L15.0025 40.5798L15.2135 40.717C17.2183 42.0254 19.5396 42.7112 21.9243 42.7112C27.7698 42.7112 32.8556 38.554 34.0162 32.8351L34.069 32.5818H39.9778V36.412L45.7283 32.5818H47.2583C49.4108 32.5818 51.1623 30.8303 51.1623 28.6778V18.5589ZM37.973 12.3336C40.0094 12.3336 41.666 13.9902 41.666 16.0266C41.666 18.063 40.0094 19.7196 37.973 19.7196C35.9366 19.7196 34.28 18.063 34.28 16.0266C34.28 13.9902 35.9366 12.3336 37.973 12.3336ZM40.02 21.0807C42.9744 21.9776 45.0425 24.7632 45.0425 27.8442V28.1608H40.1466L39.5663 20.9436L40.02 21.0807ZM39.0915 28.1608H36.8546L37.4454 20.7959L37.7303 20.7853C37.762 20.7853 37.7936 20.7853 37.8147 20.7748C37.9203 20.7642 38.0258 20.7642 38.1313 20.7748C38.1629 20.7748 38.1946 20.7748 38.2157 20.7748L38.5006 20.7853L39.0915 28.1608ZM28.6877 15.7101H33.2249V16.0266C33.2249 17.4827 33.8896 18.8438 35.0503 19.7618L35.4829 20.0995L34.9764 20.2999C33.7946 20.7748 32.7289 21.5239 31.8848 22.4735L31.6421 22.7479L31.41 22.463C29.9961 20.7748 28.1496 19.498 26.071 18.7489L25.8494 18.675L25.8599 18.4429C25.9127 16.9129 27.1578 15.7101 28.6877 15.7101ZM19.0859 5.8972V5.58066H23.623C25.1952 5.58066 26.4719 6.85738 26.4719 8.42955V15.3619L26.3453 15.4568C25.5117 16.0899 24.9842 16.9973 24.8365 18.0314L24.7942 18.369L24.4672 18.2952C23.9607 18.1896 23.4015 18.1158 22.7684 18.0736L22.4729 18.0525V17.7148C22.4729 14.3806 20.4576 11.4156 17.3555 10.1705L16.849 9.97006L17.2816 9.63242C18.4212 8.71444 19.0859 7.36385 19.0859 5.8972ZM21.4072 17.7148V18.0314H16.5114L15.931 10.8142L16.3742 10.9513C19.3391 11.8482 21.4072 14.6233 21.4072 17.7148ZM14.3378 2.20419C16.3742 2.20419 18.0308 3.86077 18.0308 5.8972C18.0308 7.93363 16.3742 9.59021 14.3378 9.59021C12.3013 9.59021 10.6447 7.93363 10.6447 5.8972C10.6447 3.86077 12.3013 2.20419 14.3378 2.20419ZM15.4562 18.0314H13.2193L13.8102 10.6665L14.0951 10.6559C14.1267 10.6559 14.1584 10.6559 14.1795 10.6559C14.285 10.6454 14.3905 10.6454 14.496 10.6559C14.5277 10.6559 14.5593 10.6559 14.5804 10.6559L14.8653 10.6665L15.4562 18.0314ZM12.7339 10.8142L12.1536 18.0314H7.26828V17.7148C7.26828 14.6233 9.33637 11.8482 12.2908 10.9513L12.7339 10.8142ZM5.05248 21.4078C3.48031 21.4078 2.20358 20.1311 2.20358 18.5589V8.42955C2.20358 6.85738 3.48031 5.58066 5.05248 5.58066H9.5896V5.8972C9.5896 7.36385 10.2543 8.71444 11.415 9.63242L11.8476 9.97006L11.3411 10.1705C8.22846 11.4156 6.21314 14.3806 6.21314 17.7148V19.0865H16.8279L15.8044 19.6774C15.013 20.1311 14.2639 20.6903 13.5675 21.3234L13.4725 21.4078H5.05248ZM6.40306 49.3903C5.9388 49.8546 5.32681 50.1078 4.66207 50.1078C3.30093 50.1078 2.20358 49.0104 2.20358 47.6493C2.20358 46.9951 2.45682 46.3726 2.92108 45.9083L9.27306 39.5669L12.7445 43.0383L6.40306 49.3903ZM12.6495 41.445L10.8663 39.6619L12.3646 38.1635L12.5862 38.4168C12.9872 38.8811 13.4303 39.3242 13.8946 39.7252L14.1478 39.9467L12.6495 41.445ZM21.9348 41.6666C15.7094 41.6666 10.6447 36.6019 10.6447 30.3766C10.6447 24.1512 15.7094 19.0865 21.9348 19.0865C28.1602 19.0865 33.2249 24.1512 33.2249 30.3766C33.2249 36.6019 28.1602 41.6666 21.9348 41.6666ZM34.0795 28.1608L34.0268 27.9075C33.7419 26.4936 33.1932 25.1325 32.3913 23.8558L32.2752 23.6658L32.4124 23.4865C33.3093 22.3364 34.5332 21.5028 35.926 21.0807L36.3692 20.9436L35.7994 28.1502L34.0795 28.1608ZM50.1072 28.6883C50.1072 30.2605 48.8305 31.5372 47.2583 31.5372H45.4118L41.0329 34.46V31.5372H34.2167L34.2484 31.0308C34.2695 30.8092 34.28 30.5876 34.28 30.3766C34.28 30.1655 34.2695 29.944 34.2484 29.7224L34.2167 29.2159H46.0976V27.8442C46.0976 24.51 44.0823 21.545 40.9802 20.2999L40.4737 20.0995L40.9063 19.7618C42.067 18.8544 42.7317 17.4932 42.7317 16.0266V15.7101H47.2688C48.841 15.7101 50.1177 16.9868 50.1177 18.5589V28.6883H50.1072Z" fill="#6651E7"/>
<path d="M51.1623 18.5589C51.1623 16.4065 49.4108 14.6549 47.2583 14.6549H42.5207L42.4468 14.4439C41.7715 12.5552 39.9778 11.2784 37.973 11.2784C35.9682 11.2784 34.1745 12.5552 33.4992 14.4439L33.4253 14.6549H28.6877C28.4239 14.6549 28.1602 14.6866 27.9069 14.7288L27.5271 14.8026V8.42955C27.5271 6.27705 25.7755 4.52551 23.623 4.52551H18.8854L18.8116 4.31448C18.1363 2.42577 16.3425 1.14905 14.3378 1.14905C12.333 1.14905 10.5392 2.42577 9.86394 4.31448L9.79008 4.52551H5.05248C2.89998 4.52551 1.14844 6.27705 1.14844 8.42955V18.5589C1.14844 20.7114 2.89998 22.463 5.05248 22.463H12.4596L12.0797 22.9695C10.4548 25.1325 9.5896 27.6965 9.5896 30.3766C9.5896 32.7612 10.286 35.0825 11.5838 37.0873L11.721 37.2983L10.1172 38.9127L9.27306 38.0686L2.18248 45.1697C1.51774 45.8345 1.14844 46.7102 1.14844 47.6493C1.14844 49.5908 2.7206 51.1629 4.66207 51.1629C5.60115 51.1629 6.47692 50.7936 7.14166 50.1394L14.2322 43.0383L13.3881 42.1942L15.0025 40.5798L15.2135 40.717C17.2183 42.0254 19.5396 42.7112 21.9243 42.7112C27.7698 42.7112 32.8556 38.554 34.0162 32.8351L34.069 32.5818H39.9778V36.412L45.7283 32.5818H47.2583C49.4108 32.5818 51.1623 30.8303 51.1623 28.6778V18.5589ZM37.973 12.3336C40.0094 12.3336 41.666 13.9902 41.666 16.0266C41.666 18.063 40.0094 19.7196 37.973 19.7196C35.9366 19.7196 34.28 18.063 34.28 16.0266C34.28 13.9902 35.9366 12.3336 37.973 12.3336ZM40.02 21.0807C42.9744 21.9776 45.0425 24.7632 45.0425 27.8442V28.1608H40.1466L39.5663 20.9436L40.02 21.0807ZM39.0915 28.1608H36.8546L37.4454 20.7959L37.7303 20.7853C37.762 20.7853 37.7936 20.7853 37.8147 20.7748C37.9203 20.7642 38.0258 20.7642 38.1313 20.7748C38.1629 20.7748 38.1946 20.7748 38.2157 20.7748L38.5006 20.7853L39.0915 28.1608ZM28.6877 15.7101H33.2249V16.0266C33.2249 17.4827 33.8896 18.8438 35.0503 19.7618L35.4829 20.0995L34.9764 20.2999C33.7946 20.7748 32.7289 21.5239 31.8848 22.4735L31.6421 22.7479L31.41 22.463C29.9961 20.7748 28.1496 19.498 26.071 18.7489L25.8494 18.675L25.8599 18.4429C25.9127 16.9129 27.1578 15.7101 28.6877 15.7101ZM19.0859 5.8972V5.58066H23.623C25.1952 5.58066 26.4719 6.85738 26.4719 8.42955V15.3619L26.3453 15.4568C25.5117 16.0899 24.9842 16.9973 24.8365 18.0314L24.7942 18.369L24.4672 18.2952C23.9607 18.1896 23.4015 18.1158 22.7684 18.0736L22.4729 18.0525V17.7148C22.4729 14.3806 20.4576 11.4156 17.3555 10.1705L16.849 9.97006L17.2816 9.63242C18.4212 8.71444 19.0859 7.36385 19.0859 5.8972ZM21.4072 17.7148V18.0314H16.5114L15.931 10.8142L16.3742 10.9513C19.3391 11.8482 21.4072 14.6233 21.4072 17.7148ZM14.3378 2.20419C16.3742 2.20419 18.0308 3.86077 18.0308 5.8972C18.0308 7.93363 16.3742 9.59021 14.3378 9.59021C12.3013 9.59021 10.6447 7.93363 10.6447 5.8972C10.6447 3.86077 12.3013 2.20419 14.3378 2.20419ZM15.4562 18.0314H13.2193L13.8102 10.6665L14.0951 10.6559C14.1267 10.6559 14.1584 10.6559 14.1795 10.6559C14.285 10.6454 14.3905 10.6454 14.496 10.6559C14.5277 10.6559 14.5593 10.6559 14.5804 10.6559L14.8653 10.6665L15.4562 18.0314ZM12.7339 10.8142L12.1536 18.0314H7.26828V17.7148C7.26828 14.6233 9.33637 11.8482 12.2908 10.9513L12.7339 10.8142ZM5.05248 21.4078C3.48031 21.4078 2.20358 20.1311 2.20358 18.5589V8.42955C2.20358 6.85738 3.48031 5.58066 5.05248 5.58066H9.5896V5.8972C9.5896 7.36385 10.2543 8.71444 11.415 9.63242L11.8476 9.97006L11.3411 10.1705C8.22846 11.4156 6.21314 14.3806 6.21314 17.7148V19.0865H16.8279L15.8044 19.6774C15.013 20.1311 14.2639 20.6903 13.5675 21.3234L13.4725 21.4078H5.05248ZM6.40306 49.3903C5.9388 49.8546 5.32681 50.1078 4.66207 50.1078C3.30093 50.1078 2.20358 49.0104 2.20358 47.6493C2.20358 46.9951 2.45682 46.3726 2.92108 45.9083L9.27306 39.5669L12.7445 43.0383L6.40306 49.3903ZM12.6495 41.445L10.8663 39.6619L12.3646 38.1635L12.5862 38.4168C12.9872 38.8811 13.4303 39.3242 13.8946 39.7252L14.1478 39.9467L12.6495 41.445ZM21.9348 41.6666C15.7094 41.6666 10.6447 36.6019 10.6447 30.3766C10.6447 24.1512 15.7094 19.0865 21.9348 19.0865C28.1602 19.0865 33.2249 24.1512 33.2249 30.3766C33.2249 36.6019 28.1602 41.6666 21.9348 41.6666ZM34.0795 28.1608L34.0268 27.9075C33.7419 26.4936 33.1932 25.1325 32.3913 23.8558L32.2752 23.6658L32.4124 23.4865C33.3093 22.3364 34.5332 21.5028 35.926 21.0807L36.3692 20.9436L35.7994 28.1502L34.0795 28.1608ZM50.1072 28.6883C50.1072 30.2605 48.8305 31.5372 47.2583 31.5372H45.4118L41.0329 34.46V31.5372H34.2167L34.2484 31.0308C34.2695 30.8092 34.28 30.5876 34.28 30.3766C34.28 30.1655 34.2695 29.944 34.2484 29.7224L34.2167 29.2159H46.0976V27.8442C46.0976 24.51 44.0823 21.545 40.9802 20.2999L40.4737 20.0995L40.9063 19.7618C42.067 18.8544 42.7317 17.4932 42.7317 16.0266V15.7101H47.2688C48.841 15.7101 50.1177 16.9868 50.1177 18.5589V28.6883H50.1072Z" stroke="#6651E7" stroke-width="0.4" mask="url(#path-2-outside-1)"/>
<path d="M52.9503 40.5058C52.9503 39.2266 51.9137 38.19 50.6345 38.19H35.4404C34.1612 38.19 33.1246 39.2266 33.1246 40.5058V50.6352C33.1246 51.9144 34.1612 52.951 35.4404 52.951H50.6345C51.9137 52.951 52.9503 51.9144 52.9503 50.6352V40.5058ZM51.6952 50.6352C51.6952 51.2236 51.2229 51.6959 50.6345 51.6959H35.4404C34.852 51.6959 34.3798 51.2236 34.3798 50.6352V40.5058C34.3798 39.9174 34.852 39.4452 35.4404 39.4452H50.6345C51.2229 39.4452 51.6952 39.9174 51.6952 40.5058V50.6352Z" fill="#6651E7" stroke="#6651E7" stroke-width="0.2"/>
<path d="M36.6016 41.6665V49.4746H49.4744V48.4194H47.7861V43.3547H46.731V48.4194H44.4096V45.043H43.3545V48.4194H41.0332V46.7312H39.978V48.4194H37.6567V41.6665H36.6016Z" fill="#6651E7"/>
<path d="M47.7856 18.0312H46.7305V19.0864H47.7856V18.0312Z" fill="#6651E7"/>
<path d="M47.7856 21.4078H46.7305V22.463H47.7856V21.4078Z" fill="#6651E7"/>
<path d="M5.58054 7.90198H4.52539V8.95712H5.58054V7.90198Z" fill="#6651E7"/>
<path d="M5.58054 11.2783H4.52539V12.3335H5.58054V11.2783Z" fill="#6651E7"/>
</svg>
