<svg width="54" height="54" viewBox="0 0 54 54" fill="none" xmlns="http://www.w3.org/2000/svg">
<path d="M52.7239 25.2668C51.9156 24.5211 50.816 24.0605 49.707 24.0028C48.4475 23.9377 47.2676 24.3868 46.3888 25.2659L40.3845 31.2072C40.2659 31.0016 40.1303 30.8076 39.9783 30.6275C39.2396 29.7504 38.1594 29.2676 36.937 29.2676H28.5316C26.9467 29.2676 25.4005 29.062 23.9363 28.657C20.1188 27.6011 16.4719 28.3723 13.389 30.8887C12.1353 31.9121 11.2207 33.0253 10.6423 33.8369L9.13525 32.3744C8.93709 32.182 8.66847 32.0728 8.39203 32.0728C8.38955 32.0728 8.3875 32.0728 8.38502 32.0728C8.09869 32.0749 7.82184 32.1939 7.62326 32.3999L0.296885 40.0056C0.100779 40.2091 -0.0059256 40.4827 0.000254217 40.7653C0.00643403 41.0483 0.124674 41.317 0.329432 41.5118L12.7208 53.3107C12.9264 53.5064 13.19 53.6041 13.4533 53.6041C13.7297 53.6041 14.0062 53.4965 14.2142 53.2831L21.4722 45.8369C21.6704 45.6334 21.7804 45.3553 21.775 45.071C21.7697 44.7908 21.6523 44.5206 21.4512 44.3253L20.8192 43.7123L22.2657 43.5495C23.1408 43.4478 24.0307 43.3963 24.9115 43.3963H37.7C39.7781 43.3963 41.543 42.9418 42.9462 42.0454C42.9578 42.0379 42.9693 42.0301 42.9808 42.0223C43.4835 41.6729 43.9395 41.2589 44.3359 40.7921L52.9538 30.6535C54.4287 28.9186 54.3365 26.7536 52.7239 25.2668ZM13.4257 51.0485L2.56817 40.7101L8.41716 34.6378L19.2112 45.1126L13.4257 51.0485ZM51.3351 29.2775L42.7172 39.4165C42.4436 39.7382 42.1301 40.0241 41.7844 40.2664C40.731 40.9334 39.357 41.2721 37.7 41.2721H24.9111C23.9491 41.2721 22.9764 41.3285 22.0243 41.4393L18.8446 41.7961L12.1868 35.3353C12.6495 34.6494 13.5003 33.5407 14.7325 32.5346C17.2943 30.4434 20.2004 29.8275 23.3698 30.7046C25.0186 31.1607 26.7551 31.3922 28.5316 31.3922H36.937C38.4465 31.3922 38.8494 32.6998 38.8494 33.4723C38.8494 34.0367 38.6682 34.574 38.3522 34.9464C38.0094 35.3497 37.522 35.5541 36.9036 35.5541H29.5867C29.0001 35.5541 28.5246 36.0299 28.5246 36.6166C28.5246 37.2033 29.0001 37.6787 29.5867 37.6787H36.9036C38.1388 37.6787 39.2281 37.1967 39.9713 36.3216C40.5897 35.594 40.9423 34.6374 40.972 33.6149L47.8872 26.7722C48.8756 25.7838 50.4197 26.0318 51.2836 26.8286C51.7302 27.2406 52.3309 28.1062 51.3351 29.2775Z" fill="#F64538"/>
<path d="M26.2743 36.3335C26.1404 35.7621 25.569 35.4082 24.9976 35.5417C24.4266 35.6756 24.0718 36.247 24.2061 36.8185L24.216 36.8617C24.331 37.3512 24.7673 37.6816 25.2493 37.6816C25.3296 37.6816 25.4112 37.6725 25.4928 37.6536C26.0642 37.5197 26.4185 36.9478 26.2846 36.3768L26.2743 36.3335Z" fill="#F64538"/>
<path d="M7.17946 22.834H17.5302C18.0938 22.834 18.6154 22.6511 19.0398 22.3421C19.4641 22.6511 19.9857 22.834 20.5493 22.834H30.9005C31.4641 22.834 31.9856 22.6511 32.41 22.3421C32.8343 22.6511 33.3559 22.834 33.9195 22.834H44.2703C45.6883 22.834 46.8419 21.68 46.8419 20.262V15.4351C46.8419 13.2672 45.6286 11.384 43.8126 10.455C44.6926 9.39373 45.2224 8.03252 45.2224 6.54936C45.2224 3.17066 42.4736 0.421875 39.0949 0.421875C35.7162 0.421875 32.9674 3.17066 32.9674 6.54936C32.9674 8.03252 33.4972 9.39414 34.3772 10.455C33.5924 10.8571 32.9204 11.4376 32.41 12.1417C31.8995 11.4372 31.2276 10.8567 30.4423 10.455C31.3223 9.39414 31.8521 8.03252 31.8521 6.54936C31.8521 3.17066 29.1034 0.421875 25.7247 0.421875C22.346 0.421875 19.5972 3.17066 19.5972 6.54936C19.5972 8.03252 20.1274 9.39414 21.0074 10.4554C20.2222 10.8571 19.5502 11.4376 19.0398 12.1421C18.5293 11.4376 17.8573 10.8571 17.0721 10.455C17.9521 9.39414 18.4819 8.03252 18.4819 6.54978C18.4819 3.17066 15.7331 0.421875 12.3544 0.421875C8.97614 0.421875 6.22736 3.17066 6.22736 6.54978C6.22736 8.03252 6.75717 9.39414 7.63718 10.4554C5.82114 11.3844 4.60742 13.2681 4.60742 15.4355V20.262C4.60742 21.68 5.7614 22.834 7.17946 22.834ZM39.0953 2.54649C41.3023 2.54649 43.0982 4.34194 43.0982 6.54936C43.0982 8.75638 41.3023 10.5522 39.0953 10.5522C36.8879 10.5522 35.0924 8.75679 35.0924 6.54936C35.092 4.34194 36.8879 2.54649 39.0953 2.54649ZM36.3354 12.0177C37.1656 12.4383 38.1028 12.6769 39.0949 12.6769C40.0874 12.6769 41.0246 12.4383 41.8544 12.0177C43.5052 12.3052 44.7177 13.7278 44.7177 15.4351V20.262C44.7177 20.5087 44.5171 20.7094 44.2703 20.7094H33.9195C33.6731 20.7094 33.4725 20.5087 33.4725 20.262V15.4351C33.4721 13.7282 34.685 12.3052 36.3354 12.0177ZM25.7251 2.54649C27.9321 2.54649 29.7279 4.34194 29.7279 6.54936C29.7279 8.75638 27.9321 10.5522 25.7251 10.5522C23.5176 10.5522 21.7222 8.75679 21.7222 6.54936C21.7222 4.34194 23.5176 2.54649 25.7251 2.54649ZM22.9656 12.0177C23.7953 12.4383 24.7326 12.6769 25.7251 12.6769C26.7176 12.6769 27.6544 12.4383 28.4846 12.0177C30.135 12.3052 31.3479 13.7278 31.3479 15.4351V20.262C31.3479 20.5087 31.1472 20.7094 30.9005 20.7094H20.5497C20.3029 20.7094 20.1023 20.5087 20.1023 20.262V15.4351C20.1023 13.7282 21.3152 12.3052 22.9656 12.0177ZM12.3548 2.54649C14.5619 2.54649 16.3577 4.34194 16.3577 6.54936C16.3577 8.75638 14.5619 10.5522 12.3548 10.5522C10.1478 10.5522 8.35198 8.75638 8.35198 6.54936C8.35198 4.34194 10.1478 2.54649 12.3548 2.54649ZM6.73204 15.4351C6.73204 13.7282 7.94493 12.3052 9.59535 12.0177C10.4255 12.4383 11.3624 12.6769 12.3548 12.6769C13.3473 12.6769 14.2842 12.4383 15.1143 12.0177C16.7652 12.3052 17.9776 13.7278 17.9776 15.4351V20.262C17.9776 20.5087 17.777 20.7094 17.5302 20.7094H7.17946C6.93268 20.7094 6.73204 20.5087 6.73204 20.262V15.4351Z" fill="#F64538"/>
</svg>
