<svg width="54" height="54" viewBox="0 0 54 54" fill="none" xmlns="http://www.w3.org/2000/svg">
<path d="M39.2344 9.49194C39.2344 7.74728 37.815 6.32788 36.0703 6.32788C34.3256 6.32788 32.9062 7.74728 32.9062 9.49194C32.9062 11.2366 34.3256 12.656 36.0703 12.656C37.815 12.656 39.2344 11.2366 39.2344 9.49194ZM35.0156 9.49194C35.0156 8.91039 35.4888 8.43726 36.0703 8.43726C36.6519 8.43726 37.125 8.91039 37.125 9.49194C37.125 10.0735 36.6519 10.5466 36.0703 10.5466C35.4888 10.5466 35.0156 10.0735 35.0156 9.49194Z" fill="#9E37A9"/>
<path d="M44.5098 14.7654C42.7651 14.7654 41.3457 16.1848 41.3457 17.9294C41.3457 19.6741 42.7651 21.0935 44.5098 21.0935C46.2544 21.0935 47.6738 19.6741 47.6738 17.9294C47.6738 16.1848 46.2544 14.7654 44.5098 14.7654ZM44.5098 18.9841C43.9282 18.9841 43.4551 18.511 43.4551 17.9294C43.4551 17.3479 43.9282 16.8748 44.5098 16.8748C45.0913 16.8748 45.5645 17.3479 45.5645 17.9294C45.5645 18.511 45.0913 18.9841 44.5098 18.9841Z" fill="#9E37A9"/>
<path d="M44.4713 6.46932C43.9668 6.17812 43.3218 6.35099 43.0306 6.85534L35.7235 19.5116C35.4322 20.016 35.6051 20.661 36.1096 20.9523C36.2757 21.0482 36.457 21.0938 36.6358 21.0938C37.0003 21.0938 37.3549 20.9046 37.5503 20.5663L44.8574 7.91003C45.1486 7.40557 44.9758 6.76063 44.4713 6.46932Z" fill="#9E37A9"/>
<path d="M54.0017 13.7109C54.0017 6.15059 47.8511 0 40.291 0C32.7307 0 26.5801 6.15059 26.5801 13.7109C26.5801 16.0894 27.1946 18.4168 28.361 20.4718C28.3221 20.6165 28.2833 20.7615 28.2444 20.9062C26.7945 21.2589 25.3146 21.5006 23.8368 21.6244C23.2564 21.6731 22.8251 22.183 22.8738 22.7635C22.92 23.314 23.381 23.7302 23.9236 23.7302C23.9531 23.7302 23.9829 23.729 24.0128 23.7264C25.2219 23.6252 26.4319 23.4492 27.6282 23.2044C27.5459 23.5112 27.4637 23.8172 27.3815 24.1243C27.1906 24.8408 27.3919 25.5792 27.9199 26.0996C28.44 26.6119 29.1965 26.8088 29.8958 26.6148C31.1071 26.2904 32.3182 25.9654 33.5292 25.6405C34.909 26.4239 36.412 26.9569 37.9704 27.2235V40.482C34.9259 37.9575 29.5886 35.9661 24.1761 35.4768V33.8555C24.1761 32.804 23.3206 31.9485 22.269 31.9485H10.6509V23.8303H14.4339C15.0164 23.8303 15.4886 23.358 15.4886 22.7756C15.4886 22.1932 15.0164 21.721 14.4339 21.721H6.18038C2.77366 21.721 0.00205859 24.488 0.00195312 27.8894V31.2985C0.00195312 34.6999 2.77366 37.4669 6.18038 37.4669H6.84472C6.94608 38.4236 7.75755 39.1716 8.74073 39.1716H9.13876L10.9166 50.1534C10.9223 50.1888 10.9298 50.2238 10.9391 50.2583C11.5843 52.6613 13.0251 54.0002 14.9316 54C15.0859 54 15.2436 53.9912 15.4039 53.9735C15.6025 53.9516 15.82 53.9319 16.0499 53.911C17.7901 53.7529 20.1736 53.5364 21.2792 51.951C21.8468 51.137 21.9728 50.1211 21.6534 48.9315C21.181 47.1723 20.7879 45.9765 20.441 44.9215C19.9025 43.2833 19.4649 41.9513 18.9318 39.1716H22.2693C23.2086 39.1716 23.9896 38.4883 24.146 37.5932C27.1523 37.8794 30.1824 38.654 32.7799 39.8113C35.2248 40.9006 37.146 42.2877 37.9887 43.5608C38.1539 45.0931 39.4547 46.2903 41.0302 46.2903C42.7173 46.2903 44.0898 44.9177 44.0898 43.2306V26.8858C49.8078 25.2346 54.0017 19.9535 54.0017 13.7109ZM2.11132 31.2985V27.8894C2.11132 25.6511 3.93676 23.8303 6.18038 23.8303H8.5416V31.9591C7.58332 32.0589 6.83376 32.8713 6.83376 33.8555V35.3577H6.18049C3.93676 35.3576 2.11132 33.5367 2.11132 31.2985ZM18.437 45.5803C18.7754 46.6094 19.1588 47.7757 19.616 49.4785C19.8427 50.3231 19.6216 50.6402 19.5489 50.7444C19.0049 51.5245 17.1117 51.6965 15.859 51.8103C15.6146 51.8325 15.3834 51.8535 15.1722 51.8769C14.7872 51.9198 13.6211 52.0482 12.9899 49.7614L11.2755 39.1716H16.7851C17.3794 42.3625 17.8723 43.8621 18.437 45.5803ZM22.0668 37.0622H8.94301V34.0578H22.0668V37.0622ZM41.9804 43.2306C41.9804 43.7546 41.5541 44.1809 41.0301 44.1809C40.5061 44.1809 40.0798 43.7546 40.0798 43.2306V27.4182C40.1502 27.4193 40.2205 27.4216 40.291 27.4216C40.8629 27.4216 41.4266 27.3859 41.9804 27.3175V43.2306ZM40.291 25.3122C38.1472 25.3122 36.0531 24.7229 34.2351 23.6079C34.0676 23.5052 33.8766 23.4522 33.6836 23.4522C33.5922 23.4522 33.5003 23.464 33.4102 23.4883C32.0906 23.8423 30.7709 24.1965 29.4511 24.55C29.8049 23.2295 30.1589 21.9102 30.5129 20.5906C30.588 20.3111 30.5448 20.0128 30.3933 19.7659C29.2786 17.9484 28.6894 15.8545 28.6894 13.7109C28.6894 7.31379 33.8938 2.10936 40.2909 2.10936C46.6878 2.10936 51.8923 7.31379 51.8923 13.7109C51.8924 20.1078 46.6879 25.3122 40.291 25.3122Z" fill="#9E37A9"/>
<path d="M19.178 23.8302C19.7606 23.8302 20.2327 23.3579 20.2327 22.7755C20.2327 22.1931 19.7606 21.7208 19.178 21.7208H19.1773C18.5948 21.7208 18.123 22.1931 18.123 22.7755C18.123 23.3579 18.5955 23.8302 19.178 23.8302Z" fill="#9E37A9"/>
</svg>
