<svg width="54" height="54" viewBox="0 0 54 54" fill="none" xmlns="http://www.w3.org/2000/svg">
<g clip-path="url(#clip0)">
<path d="M41.8007 41.8089C41.8007 44.5015 41.8206 47.0895 41.7957 49.68C41.7708 52.0465 39.9197 53.9278 37.6007 53.9975C35.1449 54.0697 33.1146 52.1361 33.0947 49.6701C33.0748 47.306 33.0922 44.9419 33.0922 42.5804C33.0922 42.3539 33.0922 42.1275 33.0922 41.8139C32.8185 41.8139 32.5797 41.8139 32.3408 41.8139C22.5151 41.8139 12.6895 41.8139 2.86136 41.8139C1.39087 41.8139 0.375709 41.0624 0.0696678 39.7435C0.00995255 39.4847 0.00248814 39.2085 0.00248814 38.9422C0 26.9154 0 14.8911 0 2.86424C0 1.07005 1.0699 0 2.86384 0C17.4991 0 32.1368 0 46.772 0.00248848C48.5709 0.00248848 49.6358 1.06507 49.6408 2.86175C49.6458 5.84793 49.6333 8.8341 49.6557 11.8178C49.6582 12.1164 49.7677 12.4797 49.9593 12.7037C55.3162 18.9871 55.361 27.8809 50.0339 34.2141C49.7428 34.56 49.6284 34.8935 49.6358 35.3314C49.6557 36.5757 49.6508 37.8199 49.6408 39.0641C49.6284 40.6991 48.5361 41.799 46.9088 41.8089C45.2318 41.8164 43.5573 41.8089 41.8007 41.8089ZM25.3591 12.2458C17.4219 12.2458 9.60172 12.2458 1.77155 12.2458C1.7616 12.3951 1.74916 12.4971 1.74916 12.5992C1.74667 21.3885 1.74418 30.1753 1.74667 38.9646C1.74667 39.7833 2.07013 40.0645 2.96337 40.0645C12.7442 40.0645 22.5276 40.0645 32.3084 40.0645C32.5523 40.0645 32.7986 40.0645 33.0201 40.0645C33.1793 39.6315 33.0499 39.4374 32.6667 39.3354C32.2686 39.2309 31.8805 39.0791 31.4923 38.9323C23.2666 35.7968 18.9123 26.5347 21.7662 18.2555C22.5301 16.0308 23.7119 14.0574 25.3591 12.2458ZM1.74418 10.4516C1.96563 10.4516 2.12736 10.4516 2.2866 10.4516C10.4751 10.4516 18.661 10.4541 26.8495 10.4392C27.1505 10.4392 27.4939 10.3023 27.7452 10.1256C33.6918 5.92009 41.1811 5.90267 47.1129 10.0983C47.3443 10.2625 47.5707 10.4292 47.8643 10.6407C47.8792 10.4043 47.8941 10.25 47.8941 10.0933C47.8966 7.70931 47.8966 5.32535 47.8941 2.94138C47.8941 2.03806 47.6055 1.7494 46.7073 1.74691C44.9656 1.74442 43.2239 1.74691 41.4847 1.74691C28.6335 1.74691 15.7822 1.74691 2.93102 1.7494C2.03281 1.7494 1.74916 2.03806 1.74916 2.94387C1.74418 5.24571 1.74667 7.54507 1.74418 9.84691C1.74418 10.0286 1.74418 10.2077 1.74418 10.4516ZM37.4614 38.3226C45.615 38.3151 52.2558 31.6634 52.2509 23.5062C52.2434 15.3514 45.5901 8.70968 37.4365 8.71465C29.2804 8.71963 22.642 15.3713 22.647 23.5311C22.652 31.6808 29.3102 38.3276 37.4614 38.3226ZM34.8712 39.965C34.8762 39.955 34.8488 39.9924 34.8488 40.0297C34.8463 43.2796 34.819 46.5296 34.8563 49.7795C34.8687 50.8098 35.4261 51.5837 36.3815 52.0142C38.1282 52.8006 40.0341 51.5762 40.0515 49.6253C40.0764 46.4997 40.059 43.3742 40.0565 40.2462C40.0565 40.1267 40.0316 40.0048 40.0266 39.965C38.3049 39.965 36.6179 39.965 34.8712 39.965ZM47.8916 36.3467C46.0778 37.8 44.1719 38.7531 42.1017 39.4051C41.94 39.4548 41.8554 39.751 41.6514 40.0595C43.5897 40.0595 45.3214 40.0745 47.0531 40.0496C47.5508 40.0421 47.8668 39.7112 47.8817 39.211C47.9115 38.3077 47.8916 37.3994 47.8916 36.3467Z" fill="#ECAF01"/>
<path d="M3.51367 19.1214C3.51367 17.382 3.51367 15.6923 3.51367 13.9678C8.71636 13.9678 13.8867 13.9678 19.1118 13.9678C19.1118 15.6649 19.1118 17.3695 19.1118 19.1214C13.9365 19.1214 8.7512 19.1214 3.51367 19.1214ZM5.26283 15.7072C5.26283 16.3045 5.26283 16.8345 5.26283 17.372C9.32596 17.372 13.3518 17.372 17.3801 17.372C17.3801 16.7947 17.3801 16.2646 17.3801 15.7072C13.3319 15.7072 9.31849 15.7072 5.26283 15.7072Z" fill="#ECAF01"/>
<path d="M3.52539 31.3823C5.84433 31.3823 8.11351 31.3823 10.42 31.3823C10.42 33.6842 10.42 35.9537 10.42 38.2754C8.14088 38.2754 5.85677 38.2754 3.52539 38.2754C3.52539 36.0009 3.52539 33.7165 3.52539 31.3823ZM8.67334 36.5509C8.67334 35.3788 8.67334 34.269 8.67334 33.1442C7.51387 33.1442 6.38924 33.1442 5.25962 33.1442C5.25962 34.2988 5.25962 35.4087 5.25962 36.5509C6.40416 36.5509 7.51387 36.5509 8.67334 36.5509Z" fill="#ECAF01"/>
<path d="M19.1343 31.3972C19.1343 33.7165 19.1343 35.986 19.1343 38.2928C16.8328 38.2928 14.5636 38.2928 12.2422 38.2928C12.2422 36.0134 12.2422 33.7289 12.2422 31.3972C14.5114 31.3972 16.7955 31.3972 19.1343 31.3972ZM17.3877 36.5608C17.3877 35.3863 17.3877 34.2764 17.3877 33.1416C16.2307 33.1416 15.106 33.1416 13.9889 33.1416C13.9889 34.3087 13.9889 35.4335 13.9889 36.5608C15.1359 36.5608 16.2307 36.5608 17.3877 36.5608Z" fill="#ECAF01"/>
<path d="M19.1313 20.9454C19.1313 21.5203 19.1313 22.0503 19.1313 22.6152C13.9311 22.6152 8.75829 22.6152 3.5332 22.6152C3.5332 22.0827 3.5332 21.5352 3.5332 20.9454C8.70355 20.9454 13.8913 20.9454 19.1313 20.9454Z" fill="#ECAF01"/>
<path d="M3.51758 27.8958C8.72773 27.8958 13.8981 27.8958 19.1132 27.8958C19.1132 28.4507 19.1132 28.9957 19.1132 29.5805C13.923 29.5805 8.73769 29.5805 3.51758 29.5805C3.51758 29.0305 3.51758 28.5005 3.51758 27.8958Z" fill="#ECAF01"/>
<path d="M13.9105 24.4318C13.9105 25.0041 13.9105 25.5342 13.9105 26.099C10.4371 26.099 6.9935 26.099 3.51758 26.099C3.51758 25.5391 3.51758 25.0091 3.51758 24.4318C6.96365 24.4318 10.4072 24.4318 13.9105 24.4318Z" fill="#ECAF01"/>
<path d="M19.1392 24.4318C19.1392 25.0041 19.1392 25.5317 19.1392 26.099C18.0021 26.099 16.8924 26.099 15.7305 26.099C15.7305 25.569 15.7305 25.024 15.7305 24.4318C16.8377 24.4318 17.9598 24.4318 19.1392 24.4318Z" fill="#ECAF01"/>
<path d="M3.48296 6.04959C3.48296 5.80074 3.47798 5.55189 3.48296 5.30553C3.50784 4.23051 4.20949 3.51383 5.27193 3.48894C5.85166 3.4765 6.4314 3.46903 7.01113 3.49392C7.94418 3.53373 8.6533 4.22304 8.70058 5.15373C8.73292 5.77337 8.73043 6.39549 8.70306 7.01512C8.66077 7.97318 7.94418 8.67245 6.97879 8.70977C6.44135 8.73217 5.90142 8.72222 5.36399 8.71475C4.19208 8.69733 3.4954 7.98314 3.48047 6.79613C3.48047 6.54728 3.48296 6.29844 3.48296 6.04959ZM5.257 6.933C5.85664 6.933 6.38412 6.933 6.92654 6.933C6.92654 6.35567 6.92654 5.81567 6.92654 5.27318C6.34431 5.27318 5.80439 5.27318 5.257 5.27318C5.257 5.84802 5.257 6.37309 5.257 6.933Z" fill="#ECAF01"/>
<path d="M13.0673 3.4888C13.3784 3.4888 13.6894 3.47387 13.9979 3.49128C14.9285 3.54354 15.6276 4.23783 15.6699 5.17101C15.6973 5.79064 15.6973 6.41525 15.6699 7.03488C15.6276 7.96557 14.9235 8.66483 13.988 8.70465C13.3684 8.73202 12.7439 8.73202 12.1243 8.70465C11.1938 8.66235 10.4971 7.95313 10.4573 7.01995C10.4324 6.46253 10.4424 5.90262 10.4498 5.34271C10.4623 4.20548 11.1788 3.49377 12.3234 3.48133C12.5722 3.47884 12.821 3.48133 13.0698 3.48133C13.0673 3.48382 13.0673 3.48631 13.0673 3.4888ZM13.8984 6.94032C13.8984 6.34059 13.8984 5.81304 13.8984 5.27055C13.3211 5.27055 12.7812 5.27055 12.2388 5.27055C12.2388 5.85285 12.2388 6.39285 12.2388 6.94032C12.8111 6.94032 13.3385 6.94032 13.8984 6.94032Z" fill="#ECAF01"/>
<path d="M19.9988 8.70729C19.6877 8.70729 19.3767 8.72471 19.0682 8.7048C18.17 8.64259 17.4658 7.95328 17.4235 7.0624C17.3937 6.42286 17.3962 5.77835 17.426 5.13632C17.4708 4.233 18.165 3.5412 19.0657 3.49392C19.6852 3.46157 20.3073 3.46655 20.9293 3.48646C21.8872 3.51881 22.5964 4.233 22.6362 5.19355C22.6586 5.73107 22.6486 6.27107 22.6412 6.80858C22.6287 7.9906 21.9221 8.69484 20.7427 8.70978C20.4939 8.71226 20.2451 8.70978 19.9963 8.70978C19.9988 8.71226 19.9988 8.70978 19.9988 8.70729ZM19.205 5.25079C19.205 5.84305 19.205 6.38802 19.205 6.93549C19.7798 6.93549 20.3098 6.93549 20.8547 6.93549C20.8547 6.35816 20.8547 5.81318 20.8547 5.25079C20.2998 5.25079 19.7848 5.25079 19.205 5.25079Z" fill="#ECAF01"/>
<path d="M37.435 36.5856C30.2418 36.5831 24.3798 30.7078 24.3848 23.5036C24.3897 16.302 30.2518 10.4466 37.4574 10.4515C44.6556 10.4565 50.5201 16.3268 50.5127 23.526C50.5052 30.7227 44.6307 36.588 37.435 36.5856ZM48.766 23.5061C48.766 17.2799 43.6728 12.1935 37.435 12.1985C31.2072 12.2009 26.124 17.2949 26.1289 23.526C26.1314 29.7323 31.1998 34.8187 37.3952 34.8362C43.6653 34.8561 48.7635 29.7746 48.766 23.5061Z" fill="#ECAF01"/>
<path d="M43.5284 19.1739C44.1604 19.1739 44.6754 19.1739 45.2626 19.1739C45.2626 21.1871 45.2626 23.1828 45.2626 25.2308C45.8622 25.2308 46.3922 25.2308 46.9769 25.2308C46.9769 25.8256 46.9769 26.3706 46.9769 26.9628C40.6396 26.9628 34.2899 26.9628 27.9004 26.9628C27.9004 26.4104 27.9004 25.8654 27.9004 25.2657C28.4552 25.2657 28.9877 25.2657 29.5923 25.2657C29.5923 23.7975 29.5923 22.3815 29.5923 20.9357C30.1994 20.9357 30.7294 20.9357 31.334 20.9357C31.334 22.3566 31.334 23.7726 31.334 25.2234C31.9361 25.2234 32.4661 25.2234 33.0682 25.2234C33.0682 22.068 33.0682 18.9101 33.0682 15.7174C33.6704 15.7174 34.2003 15.7174 34.805 15.7174C34.805 18.8603 34.805 22.0182 34.805 25.2184C35.422 25.2184 35.9644 25.2184 36.5616 25.2184C36.5616 21.4732 36.5616 17.7505 36.5616 13.9829C37.1563 13.9829 37.7012 13.9829 38.3008 13.9829C38.3008 17.7156 38.3008 21.4384 38.3008 25.2084C38.8979 25.2084 39.4404 25.2084 40.0375 25.2084C40.0375 22.6428 40.0375 20.0797 40.0375 17.4693C40.6322 17.4693 41.1771 17.4693 41.7742 17.4693C41.7742 20.0299 41.7742 22.593 41.7742 25.206C42.3664 25.206 42.9113 25.206 43.5309 25.206C43.5284 23.2201 43.5284 21.2219 43.5284 19.1739Z" fill="#ECAF01"/>
</g>
<defs>
<clipPath id="clip0">
<rect width="54" height="54" fill="white"/>
</clipPath>
</defs>
</svg>
