<svg width="54" height="54" viewBox="0 0 54 54" fill="none" xmlns="http://www.w3.org/2000/svg">
<path d="M15.6481 4.59811L15.6481 4.59814C15.8479 5.0273 16.3576 5.21382 16.7871 5.01377C19.9959 3.52071 23.4316 2.76376 26.9995 2.76376C40.3634 2.76376 51.2359 13.6362 51.2359 27.0001C51.2359 40.364 40.3634 51.2365 26.9995 51.2365C13.6356 51.2365 2.76315 40.364 2.76315 27.0001C2.76315 18.7657 6.88944 11.1655 13.8014 6.66907L13.7469 6.58524L13.8014 6.66906C14.1983 6.41084 14.3108 5.87974 14.0526 5.48283C13.7943 5.08593 13.2633 4.97357 12.8665 5.23168L12.8664 5.23169C5.46653 10.0456 1.04844 18.1834 1.04844 27.0001C1.04844 33.9317 3.74799 40.449 8.64926 45.3504L8.71997 45.2796L8.64926 45.3504C13.5507 50.2516 20.0679 52.9512 26.9995 52.9512C33.9311 52.9512 40.4483 50.2516 45.3498 45.3504C50.251 40.449 52.9506 33.9317 52.9506 27.0001C52.9506 20.0685 50.251 13.5512 45.3498 8.64987L45.279 8.72058L45.3498 8.64987C40.4483 3.7486 33.9311 1.04905 26.9995 1.04905C23.1803 1.04905 19.5007 1.85993 16.0637 3.4591C15.6345 3.65881 15.4484 4.16877 15.6481 4.59811Z" fill="#E9882F" stroke="#E9882F" stroke-width="0.2"/>
<path d="M40.7183 42.5265L40.7183 42.5265C40.3903 42.1849 40.4013 41.6423 40.7428 41.3143C44.0629 38.1259 46.1575 33.9186 46.7015 29.3847H44.7365C43.4215 29.3847 42.3518 28.3151 42.3518 27C42.3518 25.6849 43.4215 24.6153 44.7365 24.6153H46.7012C45.6149 15.5991 38.3769 8.3708 29.3592 7.29545L29.3586 10.1991C29.3583 11.5137 28.2887 12.5831 26.9739 12.5831C25.6585 12.5831 24.5888 11.5137 24.5885 10.1991L24.5879 7.30172C15.5975 8.39842 8.38221 15.6231 7.29809 24.6153H9.16203C10.4771 24.6153 11.5467 25.6849 11.5467 27C11.5467 28.3151 10.4771 29.3847 9.16203 29.3847H7.29799C8.3822 38.3774 15.5978 45.6022 24.5887 46.6985V44.8114C24.5887 43.4963 25.6583 42.4267 26.9734 42.4267C28.2885 42.4267 29.3581 43.4963 29.3581 44.8114V46.7047C32.4921 46.3321 35.5045 45.2109 38.1217 43.4364C38.5136 43.1706 39.0468 43.2729 39.3125 43.6648C39.5782 44.0567 39.476 44.5898 39.084 44.8556C35.9632 46.9716 32.3253 48.2327 28.5633 48.5024C28.08 48.5475 27.6333 48.1323 27.6435 47.6463V44.8114C27.6435 44.4421 27.3429 44.1414 26.9735 44.1414C26.6041 44.1414 26.3035 44.4421 26.3035 44.8114V47.6427C26.3134 48.1296 25.8663 48.5443 25.3817 48.4986C25.3813 48.4986 25.381 48.4985 25.3806 48.4985L25.3901 48.3989C20.274 48.0193 15.4538 45.8052 11.8172 42.1644L11.7465 42.2351C8.0929 38.5771 5.87417 33.7316 5.49907 28.5908C5.45391 28.1062 5.86861 27.6602 6.35511 27.67H9.16213C9.53152 27.67 9.83211 27.3693 9.83211 27C9.83211 26.6307 9.53152 26.33 9.16213 26.33H6.35511C5.86871 26.3398 5.45389 25.8938 5.49907 25.4092C5.87418 20.2685 8.09281 15.4232 11.7461 11.7654C15.399 8.10784 20.2411 5.88332 25.3806 5.50153C25.8659 5.45601 26.3119 5.87043 26.3024 6.35734L26.3031 10.1987C26.3032 10.5679 26.6038 10.8685 26.9731 10.8685C27.3432 10.8685 27.6437 10.5679 27.6438 10.1987L27.6446 6.35347C27.6353 5.86789 28.0796 5.45253 28.5645 5.49758C33.7156 5.86732 38.5704 8.08686 42.235 11.7473C45.8993 15.4075 48.1244 20.2593 48.5002 25.4093M40.7183 42.5265L48.4005 25.4176M40.7183 42.5265C41.0463 42.8678 41.5889 42.879 41.9305 42.551C45.7797 38.8544 48.1129 33.8965 48.5002 28.5908M40.7183 42.5265L47.6441 27.67M48.5002 25.4093C48.5002 25.4097 48.5002 25.41 48.5002 25.4104L48.4005 25.4176M48.5002 25.4093C48.5001 25.4089 48.5001 25.4086 48.5001 25.4082L48.4005 25.4176M48.5002 25.4093C48.5453 25.8939 48.1306 26.3399 47.6441 26.3301M48.4005 25.4176C48.4408 25.8435 48.0727 26.2393 47.6452 26.2301M47.6441 26.3301H47.6452V26.2301M47.6441 26.3301H44.7365C44.3672 26.3301 44.0665 26.6307 44.0665 27C44.0665 27.3693 44.3671 27.67 44.7365 27.67H47.6441M47.6441 26.3301C47.6438 26.3301 47.6434 26.3301 47.643 26.3301L47.6452 26.2301M47.6452 26.2301L47.6441 27.67M47.6441 27.67C47.6438 27.67 47.6434 27.67 47.643 27.67L47.6452 27.77V27.67H47.6441ZM47.6441 27.67C48.1305 27.6602 48.5453 28.1062 48.5002 28.5908M48.5002 28.5908C48.5002 28.5905 48.5002 28.5901 48.5002 28.5898L48.4005 28.5825L48.5001 28.5919C48.5001 28.5915 48.5001 28.5912 48.5002 28.5908Z" fill="#E9882F" stroke="#E9882F" stroke-width="0.2"/>
<path d="M30.7339 20.9413C30.7339 18.8815 29.0584 17.206 26.9986 17.206C24.9388 17.206 23.2633 18.8815 23.2633 20.9413C23.2633 23.0011 24.9388 24.6766 26.9986 24.6766C29.0584 24.6766 30.7339 23.0011 30.7339 20.9413ZM24.978 20.9413C24.978 19.8273 25.8845 18.9207 26.9986 18.9207C28.1127 18.9207 29.0192 19.8273 29.0192 20.9413C29.0192 22.0554 28.1127 22.9619 26.9986 22.9619C25.8845 22.9619 24.978 22.0554 24.978 20.9413Z" fill="#E9882F" stroke="#E9882F" stroke-width="0.2"/>
<path d="M38.7112 20.2343C38.7112 18.3973 37.2168 16.9029 35.3798 16.9029C33.5428 16.9029 32.0484 18.3973 32.0484 20.2343C32.0484 22.0713 33.5428 23.5657 35.3798 23.5657C37.2168 23.5657 38.7112 22.0713 38.7112 20.2343ZM33.7631 20.2343C33.7631 19.3429 34.4885 18.6176 35.3798 18.6176C36.2712 18.6176 36.9965 19.3429 36.9965 20.2343C36.9965 21.1257 36.2712 21.851 35.3798 21.851C34.4885 21.851 33.7631 21.1257 33.7631 20.2343Z" fill="#E9882F" stroke="#E9882F" stroke-width="0.2"/>
<path d="M18.5165 23.5657C20.3536 23.5657 21.8479 22.0713 21.8479 20.2343C21.8479 18.3973 20.3536 16.9029 18.5165 16.9029C16.6795 16.9029 15.1852 18.3973 15.1852 20.2343C15.1852 22.0713 16.6795 23.5657 18.5165 23.5657ZM18.5165 18.6176C19.4079 18.6176 20.1332 19.3429 20.1332 20.2343C20.1332 21.1257 19.4079 21.851 18.5165 21.851C17.6252 21.851 16.8999 21.1257 16.8999 20.2343C16.8999 19.3429 17.6252 18.6176 18.5165 18.6176Z" fill="#E9882F" stroke="#E9882F" stroke-width="0.2"/>
<path d="M14.7572 28.9029L14.7574 28.903L14.1674 27.9189L14.1973 27.8235C14.1973 27.8235 14.1973 27.8235 14.1973 27.8235C13.746 27.6818 13.2659 27.9325 13.1234 28.3828C12.9498 28.8602 12.8884 29.4485 12.8681 30.0327C12.8554 30.3974 12.8587 30.7686 12.8618 31.113C12.8636 31.3188 12.8654 31.5151 12.8636 31.6947H12.8636V31.6957C12.8636 33.1177 14.0514 34.2697 15.5059 34.2697H20.5434C20.6266 35.7871 21.8864 36.9962 23.4243 36.9962H30.5755C32.1134 36.9962 33.3732 35.7871 33.4564 34.2697H38.393C39.8475 34.2697 41.0353 33.1177 41.0353 31.6957V30.08C41.0353 26.9349 38.489 24.3756 35.3579 24.3756H35.3078C33.5055 24.3756 31.8217 25.2592 30.7731 26.6934C29.717 25.9343 28.4224 25.4864 27.0253 25.4864H26.9747C25.5484 25.4864 24.2297 25.9535 23.1617 26.7416C22.1172 25.2771 20.4212 24.3756 18.5912 24.3756H18.5412C17.553 24.3756 16.5766 24.6402 15.7173 25.1405L15.7173 25.1405C15.3081 25.3788 15.1695 25.9036 15.4077 26.3128L15.4077 26.3129C15.646 26.722 16.171 26.8605 16.58 26.6223C17.1779 26.2742 17.8561 26.0903 18.5411 26.0903H18.5911C19.9488 26.0903 21.2007 26.8094 21.9093 27.9582C21.0516 29.0517 20.5382 30.4282 20.5382 31.9228V32.555H15.506C14.9885 32.555 14.5791 32.1637 14.5784 31.6969C14.583 31.5068 14.5802 31.2858 14.5773 31.0517L14.577 31.0275C14.5739 30.7832 14.5709 30.5244 14.5758 30.2673C14.5856 29.7498 14.6274 29.2528 14.7572 28.9029ZM15.7676 25.2269C15.4061 25.4374 15.2837 25.901 15.4942 26.2625C15.7046 26.6239 16.1684 26.7463 16.5297 26.5359C17.1427 26.1789 17.8382 25.9903 18.5411 25.9903H18.5911C20.008 25.9903 21.3116 26.7533 22.0308 27.9659L15.7676 25.2269ZM35.3078 26.0903H35.3579C37.5423 26.0903 39.3206 27.8795 39.3206 30.08V31.6957C39.3206 32.1631 38.911 32.555 38.3931 32.555H33.4618V31.9228C33.4618 30.3956 32.927 28.9908 32.0352 27.8861C32.7519 26.7808 33.9846 26.0903 35.3078 26.0903ZM27.0253 27.2011C29.6287 27.2011 31.7471 29.3193 31.7471 31.9228V34.1101C31.7471 34.7558 31.2215 35.2815 30.5756 35.2815H23.4244C22.7786 35.2815 22.2529 34.7559 22.2529 34.1101V31.9228C22.2529 29.3193 24.3712 27.2011 26.9748 27.2011H27.0253Z" fill="#E9882F" stroke="#E9882F" stroke-width="0.2"/>
</svg>
