<svg width="60" height="60" viewBox="0 0 60 60" fill="none" xmlns="http://www.w3.org/2000/svg">
<path fill-rule="evenodd" clip-rule="evenodd" d="M23.25 18.9827V25.7382L29.2499 28.7727V21.4103L26.25 20.1965L23.25 18.9827Z" fill="#222222"/>
<path fill-rule="evenodd" clip-rule="evenodd" d="M30.0003 14.9172L24.3296 17.7848L30.0003 20.0796L35.671 17.7848L30.0003 14.9172Z" fill="#222222"/>
<path fill-rule="evenodd" clip-rule="evenodd" d="M30.7505 21.4103V28.7727L36.7504 25.7382V18.9827L33.7505 20.1965L30.7505 21.4103Z" fill="#222222"/>
<path fill-rule="evenodd" clip-rule="evenodd" d="M48 15.5864H46.5V17.1037C46.5 17.5224 46.1648 17.8623 45.75 17.8623C45.3353 17.8623 45 17.5224 45 17.1037V15.5864H43.5001C43.0853 15.5864 42.7501 15.2466 42.7501 14.8278C42.7501 14.4091 43.0853 14.0692 43.5001 14.0692H45V12.552C45 12.1332 45.3353 11.7933 45.75 11.7933C46.1648 11.7933 46.5 12.1332 46.5 12.552V14.0692H48C48.4148 14.0692 48.75 14.4091 48.75 14.8278C48.75 15.2466 48.4148 15.5864 48 15.5864ZM48 30.0002H44.2501C43.8353 30.0002 43.5001 29.6604 43.5001 29.2416C43.5001 28.8229 43.8353 28.483 44.2501 28.483H48C48.4148 28.483 48.75 28.8229 48.75 29.2416C48.75 29.6604 48.4148 30.0002 48 30.0002ZM48 33.0347H46.5C46.0853 33.0347 45.75 32.6949 45.75 32.2761C45.75 31.8573 46.0853 31.5175 46.5 31.5175H48C48.4148 31.5175 48.75 31.8573 48.75 32.2761C48.75 32.6949 48.4148 33.0347 48 33.0347ZM43.5001 33.0347H40.5001C40.0854 33.0347 39.7501 32.6949 39.7501 32.2761C39.7501 31.8573 40.0854 31.5175 40.5001 31.5175H43.5001C43.9148 31.5175 44.2501 31.8573 44.2501 32.2761C44.2501 32.6949 43.9148 33.0347 43.5001 33.0347ZM38.2501 26.2071C38.2501 26.4946 38.0896 26.7571 37.8354 26.8861L30.3355 30.6792C30.325 30.6845 30.3122 30.6822 30.3002 30.6875C30.2042 30.73 30.1037 30.7589 30.0002 30.7589C29.8967 30.7589 29.7962 30.73 29.7002 30.6875C29.6882 30.6822 29.6755 30.6845 29.665 30.6792L22.1651 26.8861C21.9108 26.7571 21.7503 26.4946 21.7503 26.2071V19.6367C21.7503 18.9691 21.5673 18.1809 21.8636 17.5513C22.0773 17.0999 22.6593 16.9338 23.0808 16.7206L26.6838 14.8984L29.665 13.3902C29.8757 13.284 30.1247 13.284 30.3355 13.3902L36.0437 16.2775C36.6519 16.5848 37.3516 16.7752 37.8691 17.2433C38.3439 17.6719 38.2501 18.1802 38.2501 18.7635V22.8753V26.2071ZM19.5003 13.3106H15.7504C15.3356 13.3106 15.0004 12.9707 15.0004 12.552C15.0004 12.1332 15.3356 11.7933 15.7504 11.7933H19.5003C19.9151 11.7933 20.2503 12.1332 20.2503 12.552C20.2503 12.9707 19.9151 13.3106 19.5003 13.3106ZM19.5003 16.3451H18.0004C17.5856 16.3451 17.2504 16.0052 17.2504 15.5864C17.2504 15.1677 17.5856 14.8278 18.0004 14.8278H19.5003C19.9151 14.8278 20.2503 15.1677 20.2503 15.5864C20.2503 16.0052 19.9151 16.3451 19.5003 16.3451ZM18.5306 31.7397C18.8239 32.0364 18.8239 32.5158 18.5306 32.8124C18.3844 32.9604 18.1924 33.0347 18.0004 33.0347C17.8084 33.0347 17.6164 32.9604 17.4701 32.8124L15.7504 31.0729L14.0307 32.8124C13.8844 32.9604 13.6924 33.0347 13.5004 33.0347C13.3084 33.0347 13.1164 32.9604 12.9702 32.8124C12.6769 32.5158 12.6769 32.0364 12.9702 31.7397L14.6899 30.0002L12.9702 28.2607C12.6769 27.9641 12.6769 27.4846 12.9702 27.188C13.2634 26.8914 13.7374 26.8914 14.0307 27.188L15.7504 28.9275L17.4701 27.188C17.7634 26.8914 18.2374 26.8914 18.5306 27.188C18.8239 27.4846 18.8239 27.9641 18.5306 28.2607L16.8109 30.0002L18.5306 31.7397ZM11.2504 15.5864C11.2504 15.1677 11.5857 14.8278 12.0004 14.8278H15.0004C15.4151 14.8278 15.7504 15.1677 15.7504 15.5864C15.7504 16.0052 15.4151 16.3451 15.0004 16.3451H12.0004C11.5857 16.3451 11.2504 16.0052 11.2504 15.5864ZM12.0004 11.7933H12.7504C13.1652 11.7933 13.5004 12.1332 13.5004 12.552C13.5004 12.9707 13.1652 13.3106 12.7504 13.3106H12.0004C11.5857 13.3106 11.2504 12.9707 11.2504 12.552C11.2504 12.1332 11.5857 11.7933 12.0004 11.7933ZM40.5001 28.483H41.2501C41.6648 28.483 42.0001 28.8229 42.0001 29.2416C42.0001 29.6604 41.6648 30.0002 41.2501 30.0002H40.5001C40.0854 30.0002 39.7501 29.6604 39.7501 29.2416C39.7501 28.8229 40.0854 28.483 40.5001 28.483ZM49.1265 8.00024H10.8739C9.01397 8.00024 7.50049 9.53114 7.50049 11.4133V35.3106H52.5V11.4133C52.5 9.53114 50.9865 8.00024 49.1265 8.00024Z" fill="#222222"/>
<path fill-rule="evenodd" clip-rule="evenodd" d="M34.2312 43.6565C34.1314 45.4233 34.8934 47.159 36.2779 48.2067H23.7231C25.1075 47.159 25.8703 45.4226 25.7698 43.655L34.2312 43.6565ZM7.5 40.2427C7.5 42.1241 9.01348 43.655 10.8735 43.655H24.2653C24.3718 44.9841 23.8026 46.2957 22.7481 47.0475L21.3981 48.011C21.3118 48.0709 21.2398 48.1453 21.1806 48.2264C20.2386 48.3266 19.4999 49.1246 19.4999 50.1032C19.4999 51.1486 20.3406 51.9998 21.3748 51.9998H38.6246C39.6589 51.9998 40.4996 51.1486 40.4996 50.1032C40.4996 49.1254 39.7616 48.3273 38.8204 48.2264C38.7626 48.146 38.6906 48.0739 38.6066 48.0133L37.2536 47.049C36.1992 46.2973 35.6284 44.9848 35.7357 43.655H49.126C50.9867 43.655 52.4995 42.1241 52.4995 40.2427V36.8274H7.5V40.2427Z" fill="#222222"/>
</svg>
