<svg width="60" height="60" viewBox="0 0 60 60" fill="none" xmlns="http://www.w3.org/2000/svg">
<path d="M35.6921 37.1162H24.3101V44.4235H35.6921V37.1162Z" fill="#222222"/>
<path d="M52.0915 37.1162H40.7095V44.4235H52.0915V37.1162Z" fill="#222222"/>
<path d="M57 15.385V11.7308C57 10.7765 56.2519 10 55.3327 10H4.66728C3.74805 10 3 10.7765 3 11.7308V15.385H57ZM15.8403 12.4046H16.7306C17.0374 12.4046 17.2864 12.6631 17.2864 12.9815C17.2864 13.3 17.0374 13.5584 16.7306 13.5584H15.8403C15.5335 13.5584 15.2845 13.3 15.2845 12.9815C15.2845 12.6631 15.5335 12.4046 15.8403 12.4046ZM11.5965 12.4046H12.488C12.7947 12.4046 13.0437 12.6631 13.0437 12.9815C13.0437 13.3 12.7947 13.5584 12.488 13.5584H11.5965C11.2897 13.5584 11.0408 13.3 11.0408 12.9815C11.0408 12.6631 11.2897 12.4046 11.5965 12.4046ZM7.35272 12.4046H8.24305C8.54983 12.4046 8.79881 12.6631 8.79881 12.9815C8.79881 13.3 8.54983 13.5584 8.24305 13.5584H7.35272C7.04594 13.5584 6.79696 13.3 6.79696 12.9815C6.79696 12.6631 7.04594 12.4046 7.35272 12.4046Z" fill="#222222"/>
<path d="M19.2917 37.1162H7.90967V44.4235H19.2917V37.1162Z" fill="#222222"/>
<path d="M52.0927 20.6748H7.90967V33.6555H52.0927V20.6748Z" fill="#222222"/>
<path d="M3 16.5386V48.2691C3 49.2233 3.74805 49.9999 4.66728 49.9999H55.3327C56.2519 49.9999 57 49.2233 57 48.2691V16.5386H3ZM20.402 45.0003C20.402 45.3188 20.153 45.5772 19.8462 45.5772H7.35272C7.04594 45.5772 6.79696 45.3188 6.79696 45.0003V36.5392C6.79696 36.2207 7.04594 35.9623 7.35272 35.9623H19.8462C20.153 35.9623 20.402 36.2207 20.402 36.5392V45.0003ZM36.8025 45.0003C36.8025 45.3188 36.5535 45.5772 36.2468 45.5772H23.7532C23.4465 45.5772 23.1975 45.3188 23.1975 45.0003V36.5392C23.1975 36.2207 23.4465 35.9623 23.7532 35.9623H36.2468C36.5535 35.9623 36.8025 36.2207 36.8025 36.5392V45.0003ZM53.203 45.0003C53.203 45.3188 52.9541 45.5772 52.6473 45.5772H40.1538C39.847 45.5772 39.598 45.3188 39.598 45.0003V36.5392C39.598 36.2207 39.847 35.9623 40.1538 35.9623H52.6473C52.9541 35.9623 53.203 36.2207 53.203 36.5392V45.0003ZM53.203 34.2315C53.203 34.55 52.9541 34.8084 52.6473 34.8084H7.35272C7.04594 34.8084 6.79696 34.55 6.79696 34.2315V20.097C6.79696 19.7786 7.04594 19.5201 7.35272 19.5201H52.6473C52.9541 19.5201 53.203 19.7786 53.203 20.097V34.2315Z" fill="#222222"/>
</svg>
