<svg width="60" height="60" viewBox="0 0 60 60" fill="none" xmlns="http://www.w3.org/2000/svg">
<path d="M48.0832 49.4197C47.9285 49.4197 47.7801 49.3586 47.6707 49.2499C47.5613 49.1412 47.4999 48.9938 47.4999 48.84V44.2024H12.5002V48.84C12.5002 48.9938 12.4387 49.1412 12.3293 49.2499C12.2199 49.3586 12.0715 49.4197 11.9168 49.4197C11.7621 49.4197 11.6137 49.3586 11.5043 49.2499C11.395 49.1412 11.3335 48.9938 11.3335 48.84V43.6227C11.3335 43.4689 11.395 43.3215 11.5043 43.2128C11.6137 43.104 11.7621 43.043 11.9168 43.043H48.0832C48.2379 43.043 48.3863 43.104 48.4957 43.2128C48.6051 43.3215 48.6665 43.4689 48.6665 43.6227V48.84C48.6665 48.9938 48.6051 49.1412 48.4957 49.2499C48.3863 49.3586 48.2379 49.4197 48.0832 49.4197Z" fill="#222222"/>
<path d="M7.24996 32.0287C6.21162 32.0287 5.19659 31.7227 4.33324 31.1494C3.46989 30.5761 2.79699 29.7613 2.39963 28.8079C2.00227 27.8546 1.89831 26.8055 2.10088 25.7935C2.30345 24.7814 2.80346 23.8518 3.53768 23.1221C4.2719 22.3925 5.20735 21.8956 6.22575 21.6942C7.24414 21.4929 8.29973 21.5963 9.25904 21.9911C10.2183 22.386 11.0383 23.0547 11.6151 23.9127C12.192 24.7707 12.4999 25.7794 12.4999 26.8113C12.4984 28.1946 11.9448 29.5207 10.9605 30.4988C9.97632 31.477 8.64187 32.0271 7.24996 32.0287ZM7.24996 22.7534C6.44236 22.7534 5.6529 22.9914 4.9814 23.4373C4.30991 23.8832 3.78654 24.5169 3.47748 25.2584C3.16843 25.9999 3.08756 26.8158 3.24512 27.603C3.40267 28.3901 3.79157 29.1132 4.36263 29.6807C4.93369 30.2482 5.66127 30.6347 6.45335 30.7913C7.24543 30.9479 8.06645 30.8675 8.81257 30.5604C9.5587 30.2532 10.1964 29.7331 10.6451 29.0658C11.0938 28.3985 11.3333 27.6139 11.3333 26.8113C11.332 25.7355 10.9014 24.7041 10.1359 23.9433C9.37042 23.1826 8.33254 22.7546 7.24996 22.7534Z" fill="#222222"/>
<path d="M18.9165 38.4058H13.0833C12.9286 38.4057 12.7803 38.3445 12.6709 38.2359C12.5616 38.1272 12.5001 37.9798 12.4999 37.8261V37.2464C12.4987 36.1706 12.0681 35.1391 11.3026 34.3784C10.5371 33.6176 9.49919 33.1897 8.41662 33.1885H6.0833C5.00073 33.1897 3.96285 33.6176 3.19735 34.3784C2.43186 35.1391 2.00125 36.1706 2 37.2464V49.4202C2 49.5739 2.06146 49.7214 2.17085 49.8301C2.28025 49.9388 2.42862 49.9999 2.58333 49.9999H11.9166C12.0713 49.9999 12.2197 49.9388 12.3291 49.8301C12.4385 49.7214 12.4999 49.5739 12.4999 49.4202V44.2028H18.9165C19.6901 44.2028 20.4319 43.8975 20.9789 43.3539C21.5259 42.8103 21.8332 42.0731 21.8332 41.3043C21.8332 40.5356 21.5259 39.7983 20.9789 39.2548C20.4319 38.7112 19.6901 38.4058 18.9165 38.4058Z" fill="#222222"/>
<path d="M53.9164 33.1885H51.5831C50.5005 33.1897 49.4626 33.6176 48.6971 34.3784C47.9316 35.1391 47.501 36.1706 47.4998 37.2464V37.8261C47.4996 37.9798 47.4381 38.1272 47.3288 38.2359C47.2194 38.3445 47.0711 38.4057 46.9164 38.4058H41.0831C40.3096 38.4058 39.5677 38.7112 39.0208 39.2548C38.4738 39.7983 38.1665 40.5356 38.1665 41.3043C38.1665 42.0731 38.4738 42.8103 39.0208 43.3539C39.5677 43.8975 40.3096 44.2028 41.0831 44.2028H47.4998V49.4202C47.4998 49.5739 47.5612 49.7214 47.6706 49.8301C47.78 49.9388 47.9284 49.9999 48.0831 49.9999H57.4164C57.5711 49.9999 57.7194 49.9388 57.8288 49.8301C57.9382 49.7214 57.9997 49.5739 57.9997 49.4202V37.2464C57.9984 36.1706 57.5678 35.1391 56.8023 34.3784C56.0368 33.6176 54.999 33.1897 53.9164 33.1885Z" fill="#222222"/>
<path d="M52.7495 32.0287C51.7111 32.0287 50.6961 31.7227 49.8328 31.1494C48.9694 30.5761 48.2965 29.7613 47.8991 28.8079C47.5018 27.8546 47.3978 26.8055 47.6004 25.7935C47.803 24.7814 48.303 23.8518 49.0372 23.1221C49.7714 22.3925 50.7069 21.8956 51.7253 21.6942C52.7436 21.4929 53.7992 21.5963 54.7585 21.9911C55.7179 22.386 56.5378 23.0547 57.1147 23.9127C57.6915 24.7707 57.9994 25.7794 57.9994 26.8113C57.9979 28.1946 57.4443 29.5207 56.4601 30.4988C55.4758 31.477 54.1414 32.0271 52.7495 32.0287ZM52.7495 22.7534C51.9419 22.7534 51.1524 22.9914 50.4809 23.4373C49.8094 23.8832 49.2861 24.5169 48.977 25.2584C48.6679 25.9999 48.5871 26.8158 48.7446 27.603C48.9022 28.3901 49.2911 29.1132 49.8621 29.6807C50.4332 30.2482 51.1608 30.6347 51.9529 30.7913C52.7449 30.9479 53.566 30.8675 54.3121 30.5604C55.0582 30.2532 55.6959 29.7331 56.1446 29.0658C56.5933 28.3985 56.8328 27.6139 56.8328 26.8113C56.8315 25.7355 56.4009 24.7041 55.6354 23.9433C54.8699 23.1826 53.832 22.7546 52.7495 22.7534Z" fill="#222222"/>
<path d="M27.6672 10H14.834C14.37 10.0005 13.9252 10.1839 13.5971 10.5099C13.269 10.836 13.0845 11.278 13.084 11.7391V18.6956C13.0845 19.1566 13.269 19.5987 13.5971 19.9247C13.9252 20.2508 14.37 20.4342 14.834 20.4347H16.0006V22.7535C16.0006 22.86 16.0301 22.9645 16.0859 23.0554C16.1417 23.1463 16.2217 23.2202 16.3169 23.269C16.4122 23.3177 16.5192 23.3395 16.6261 23.3318C16.733 23.3241 16.8357 23.2873 16.9229 23.2254L20.8539 20.4347H27.6672C28.1312 20.4342 28.576 20.2508 28.9041 19.9247C29.2321 19.5987 29.4167 19.1566 29.4172 18.6956V11.7391C29.4167 11.278 29.2321 10.836 28.9041 10.5099C28.576 10.1839 28.1312 10.0005 27.6672 10ZM17.7506 15.797H16.584C16.4292 15.797 16.2809 15.736 16.1715 15.6272C16.0621 15.5185 16.0006 15.3711 16.0006 15.2173C16.0006 15.0636 16.0621 14.9161 16.1715 14.8074C16.2809 14.6987 16.4292 14.6376 16.584 14.6376H17.7506C17.9053 14.6376 18.0537 14.6987 18.1631 14.8074C18.2725 14.9161 18.3339 15.0636 18.3339 15.2173C18.3339 15.3711 18.2725 15.5185 18.1631 15.6272C18.0537 15.736 17.9053 15.797 17.7506 15.797ZM21.8339 15.797H20.6673C20.5126 15.797 20.3642 15.736 20.2548 15.6272C20.1454 15.5185 20.0839 15.3711 20.0839 15.2173C20.0839 15.0636 20.1454 14.9161 20.2548 14.8074C20.3642 14.6987 20.5126 14.6376 20.6673 14.6376H21.8339C21.9886 14.6376 22.137 14.6987 22.2464 14.8074C22.3558 14.9161 22.4172 15.0636 22.4172 15.2173C22.4172 15.3711 22.3558 15.5185 22.2464 15.6272C22.137 15.736 21.9886 15.797 21.8339 15.797ZM25.9172 15.797H24.7506C24.5959 15.797 24.4475 15.736 24.3381 15.6272C24.2287 15.5185 24.1672 15.3711 24.1672 15.2173C24.1672 15.0636 24.2287 14.9161 24.3381 14.8074C24.4475 14.6987 24.5959 14.6376 24.7506 14.6376H25.9172C26.0719 14.6376 26.2203 14.6987 26.3297 14.8074C26.4391 14.9161 26.5005 15.0636 26.5005 15.2173C26.5005 15.3711 26.4391 15.5185 26.3297 15.6272C26.2203 15.736 26.0719 15.797 25.9172 15.797Z" fill="#222222"/>
</svg>
