<svg width="60" height="60" viewBox="0 0 60 60" fill="none" xmlns="http://www.w3.org/2000/svg">
<path d="M35.9564 48.958L35.0331 50.6167C34.7322 51.1548 34.16 51.4891 33.5393 51.4891H26.4561C25.8108 51.4891 25.2548 51.1318 24.9643 50.6197L24.0392 48.958H3C3 51.9567 5.38988 54.3534 8.28944 54.4903C8.5944 54.5037 51.4171 54.5029 51.7017 54.4903C54.6161 54.3526 57 51.9537 57 48.958H35.9564Z" fill="#222222"/>
<path d="M26.4557 50.6191H33.539C33.8409 50.6191 34.1191 50.4568 34.2652 50.1956L34.9541 48.958H25.041L25.7302 50.196C25.8695 50.4418 26.1405 50.6191 26.4557 50.6191Z" fill="#222222"/>
<path d="M9.92391 19.7383H12.6563V24.2743H10.0336V48.0898H5.53809V24.0873C5.53809 21.6867 7.50732 19.7383 9.92391 19.7383Z" fill="#222222"/>
<path d="M54.4527 24.0873V48.0898H49.9616V24.2743H47.3433V19.7383H50.0712C52.4878 19.7383 54.4527 21.6867 54.4527 24.0873Z" fill="#222222"/>
<path d="M32.6849 42.7818C33.7159 41.8073 34.5791 40.2792 35.1869 38.3811C36.3702 38.66 37.4603 39.0288 38.3932 39.4885C36.8532 41.1087 34.9138 42.2501 32.6849 42.7818ZM21.6057 39.4888C22.5384 39.0293 23.6284 38.6604 24.8121 38.3815C25.42 40.2809 26.2835 41.8097 27.3149 42.7839C27.1041 42.6949 24.2313 42.2927 21.6057 39.4888ZM27.3156 20.6183C26.2838 21.5932 25.4201 23.1229 24.8121 25.0239C23.6265 24.7459 22.5359 24.378 21.6048 23.9196C24.0299 21.3345 26.7024 20.8666 27.3156 20.6183ZM38.3939 23.92C37.4625 24.3786 36.3721 24.7465 35.1869 25.0243C34.5789 23.1245 33.7155 21.5953 32.6841 20.6203C34.8135 21.1264 36.8122 22.243 38.3939 23.92ZM36.1464 31.2659C36.1133 29.302 35.8604 27.4684 35.4323 25.8591C36.7506 25.5467 37.9483 25.1198 38.9704 24.5932C40.5036 26.4939 41.381 28.8339 41.476 31.2659H36.1464ZM30.4347 20.3457C32.0133 20.6408 33.4189 22.5139 34.3033 25.2119C33.0831 25.44 31.778 25.5697 30.4347 25.5929V20.3457ZM29.5575 25.5926C28.2163 25.5686 26.9135 25.4391 25.6956 25.2113C26.5787 22.516 27.9817 20.644 29.5575 20.3463V25.5926ZM29.5575 26.4615V31.2659H24.7301C24.765 29.3842 25.0228 27.6036 25.4465 26.0448C26.7448 26.2937 28.1309 26.4367 29.5575 26.4615ZM29.5575 32.1357V36.9403C28.132 36.9653 26.7457 37.1091 25.4462 37.3596C25.0221 35.8 24.7644 34.0183 24.73 32.1357H29.5575V32.1357ZM29.5575 37.8091V43.0558C27.9816 42.7582 26.5785 40.8871 25.6954 38.193C26.9145 37.9637 28.2175 37.8333 29.5575 37.8091ZM30.4347 37.8089C31.7769 37.8323 33.0822 37.9627 34.3035 38.1926C33.4191 40.8892 32.0134 42.7614 30.4347 43.0564V37.8089ZM30.4347 36.9399V32.1357H35.2693C35.2349 34.0181 34.9771 35.7996 34.5529 37.3591C33.251 37.1082 31.8624 36.9642 30.4347 36.9399ZM30.4347 31.2659V26.4618C31.8635 26.4377 33.252 26.2947 34.5525 26.0454C34.9764 27.6041 35.2343 29.3845 35.2692 31.2659H30.4347ZM21.0287 24.5929C22.0504 25.1195 23.2481 25.5463 24.5667 25.8587C24.1388 27.468 23.8861 29.3017 23.853 31.2659H18.5233C18.618 28.8275 19.4951 26.488 21.0287 24.5929ZM23.8529 32.1357C23.8854 34.1013 24.1382 35.9365 24.5667 37.5468C23.2501 37.8602 22.0524 38.2881 21.0288 38.8158C19.4939 36.9204 18.6162 34.5774 18.5229 32.1357H23.8529ZM35.4324 37.5464C35.8609 35.9361 36.1139 34.1011 36.1464 32.1357H41.4763C41.3829 34.5706 40.5052 36.9137 38.9704 38.8156C37.9464 38.2878 36.7487 37.8598 35.4324 37.5464Z" fill="#222222"/>
<path d="M46.4669 11.4586V31.8122C46.4669 32.0514 46.2695 32.2471 46.0283 32.2471H42.3617C42.3705 32.0688 42.3749 31.8861 42.3749 31.7035C42.3749 24.9625 36.8619 19.4348 30.0025 19.4305H29.9981C23.165 19.4305 17.6257 24.9276 17.6257 31.7035C17.6257 31.8861 17.6301 32.0688 17.6388 32.2471H13.9723C13.7266 32.2471 13.5337 32.0514 13.5337 31.8122V9.64941H29.5069L31.2042 11.3324C31.2875 11.4107 31.3972 11.4586 31.5156 11.4586H46.4669V11.4586Z" fill="#222222"/>
<path d="M42.3169 9.01977C42.7118 9.01977 43.033 8.69954 43.033 8.30582C43.033 7.91424 42.7118 7.5957 42.3169 7.5957C41.922 7.5957 41.6006 7.91424 41.6006 8.30582C41.6006 8.69954 41.922 9.01977 42.3169 9.01977Z" fill="#222222"/>
<path d="M33.3021 9.01977C33.697 9.01977 34.0184 8.69954 34.0184 8.30582C34.0184 7.91424 33.697 7.5957 33.3021 7.5957C32.9072 7.5957 32.5859 7.91424 32.5859 8.30582C32.5859 8.69954 32.9072 9.01977 33.3021 9.01977Z" fill="#222222"/>
<path d="M37.8094 9.01977C38.2043 9.01977 38.5257 8.69954 38.5257 8.30582C38.5257 7.91424 38.2043 7.5957 37.8094 7.5957C37.4145 7.5957 37.0933 7.91424 37.0933 8.30582C37.0933 8.69954 37.4145 9.01977 37.8094 9.01977Z" fill="#222222"/>
<path d="M29.6903 8.77857C29.8066 8.77857 29.9182 8.82444 30.0004 8.90599L31.6969 10.5883H46.4674V5.9349C46.4674 5.69569 46.27 5.5 46.0288 5.5H13.9728C13.7271 5.5 13.5342 5.69569 13.5342 5.9349V8.77857H29.6903ZM42.3178 6.72593C43.1962 6.72593 43.9111 7.43478 43.9111 8.30587C43.9111 9.17908 43.1962 9.88962 42.3178 9.88962C41.4391 9.88962 40.7243 9.17908 40.7243 8.30587C40.7243 7.43478 41.4391 6.72593 42.3178 6.72593ZM37.8101 6.72593C38.6888 6.72593 39.4036 7.43478 39.4036 8.30587C39.4036 9.17908 38.6888 9.88962 37.8101 9.88962C36.9317 9.88962 36.2168 9.17908 36.2168 8.30587C36.2168 7.43478 36.9317 6.72593 37.8101 6.72593ZM33.3026 6.72593C34.1813 6.72593 34.8961 7.43478 34.8961 8.30587C34.8961 9.17908 34.1813 9.88962 33.3026 9.88962C32.4242 9.88962 31.7094 9.17908 31.7094 8.30587C31.7094 7.43478 32.4242 6.72593 33.3026 6.72593Z" fill="#222222"/>
</svg>
