<svg width="60" height="60" viewBox="0 0 60 60" fill="none" xmlns="http://www.w3.org/2000/svg">
<path d="M30.9487 7.87695L30.9414 14.4539L38.0448 14.4512L30.9487 7.87695Z" fill="#222222"/>
<path d="M52.4253 19.5945L51.0761 18.4654C50.2473 17.7722 49.0194 18.153 48.3803 18.9278L48.1899 19.1587L52.2771 22.5784L52.4681 22.3476C53.1045 21.5761 53.2626 20.2951 52.4253 19.5945Z" fill="#222222"/>
<path d="M31.8773 36.9013C31.9036 36.7673 31.9675 36.6512 32.0571 36.5597C34.4076 33.7157 36.7581 30.8637 39.1086 28.0158V15.8219L30.26 15.8239C29.8851 15.8239 29.5795 15.5167 29.5795 15.1392L29.5841 7H7V53H39.1086V40.6781C38.7977 41.0555 38.4868 41.433 38.1752 41.8098C38.1159 41.8894 38.0526 41.9491 37.9663 41.9995C35.9683 42.7638 33.8187 43.6793 31.8167 44.3513C31.3272 44.5098 30.843 44.1078 30.9161 43.6063L31.8773 36.9013ZM28.926 38.4782C29.8252 38.4782 29.8252 39.8554 28.926 39.8554H11.4751C10.5758 39.8554 10.5758 38.4782 11.4751 38.4782H28.926ZM28.7468 33.6367C29.6467 33.6367 29.6467 35.014 28.7468 35.014H11.4751C10.5758 35.014 10.5758 33.6367 11.4751 33.6367H28.7468ZM31.2402 28.7946C32.1395 28.7946 32.1395 30.1731 31.2402 30.1731H11.4751C10.5758 30.1731 10.5758 28.7946 11.4751 28.7946H31.2402ZM31.2402 23.9545C32.1395 23.9545 32.1395 25.3317 31.2402 25.3317H11.4751C10.5758 25.3317 10.5758 23.9545 11.4751 23.9545H31.2402ZM31.2402 19.1123C32.1395 19.1123 32.1395 20.4902 31.2402 20.4902H11.4751C10.5758 20.4902 10.5758 19.1123 11.4751 19.1123H31.2402ZM33.5552 48.1612C34.4551 48.1612 34.4551 49.5391 33.5552 49.5391H25.5425C24.6426 49.5391 24.6426 48.1612 25.5425 48.1612H33.5552Z" fill="#222222"/>
<path d="M37.0588 40.8857L33.1522 37.6172L32.4321 42.6484L37.0588 40.8857Z" fill="#222222"/>
<path d="M33.9053 36.4642L37.9916 39.8853C42.4627 34.4693 46.9351 29.0514 51.4062 23.6334L47.3192 20.2129C42.8468 25.6309 38.3777 31.0462 33.9053 36.4642Z" fill="#222222"/>
</svg>
