<svg width="60" height="60" viewBox="0 0 60 60" fill="none" xmlns="http://www.w3.org/2000/svg">
<path d="M20.2298 51.1423H17.1279V54.2498H20.2298V51.1423Z" fill="#222222"/>
<path d="M20.2298 47.3323H17.1279V50.4397H20.2298V47.3323Z" fill="#222222"/>
<path d="M31.6401 54.9524H28.541V58.0606H31.6401V54.9524Z" fill="#222222"/>
<path d="M24.033 47.3323H20.9312V50.4397H24.033V47.3323Z" fill="#222222"/>
<path d="M16.4266 47.3323H13.3247V50.4397H16.4266V47.3323Z" fill="#222222"/>
<path d="M27.8362 51.1423H24.7344V54.2498H27.8362V51.1423Z" fill="#222222"/>
<path d="M27.8362 47.3323H24.7344V50.4397H27.8362V47.3323Z" fill="#222222"/>
<path d="M27.8363 54.9539H13.3252V58.0571H27.8363V54.9539Z" fill="#222222"/>
<path d="M16.4266 51.1423H13.3247V54.2498H16.4266V51.1423Z" fill="#222222"/>
<path d="M12.6236 47.3323H9.521V50.4397H12.6236V47.3323Z" fill="#222222"/>
<path d="M24.033 51.1423H20.9312V54.2498H24.033V51.1423Z" fill="#222222"/>
<path d="M12.0977 34.6868H34.4025C38.0297 34.6868 40.9802 31.731 40.9802 28.0976V27.0486V20.1138C40.9802 19.689 40.9418 19.2844 40.8659 18.9109L40.8644 18.9025C40.435 16.5741 38.7672 14.6661 36.5816 13.8977C36.2693 13.7879 35.9464 13.7013 35.615 13.6402C35.2354 13.563 34.8299 13.5242 34.4025 13.5242H27.4802H12.0977C8.47046 13.5242 5.52002 16.4803 5.52002 20.1138V28.0976C5.52002 31.731 8.47046 34.6868 12.0977 34.6868ZM17.5054 19.7562C17.5054 19.2645 17.7541 18.8171 18.1706 18.5594C18.5864 18.3021 19.0954 18.2791 19.5324 18.498L28.2235 22.8513C28.6982 23.0915 28.9928 23.5719 28.9928 24.1052C28.9928 24.6391 28.6989 25.1195 28.2248 25.3593L19.5324 29.7131C19.3331 29.8129 19.1187 29.8627 18.9049 29.8627C18.6501 29.8627 18.3966 29.792 18.1706 29.652C17.7541 29.3943 17.5054 28.9468 17.5054 28.4551V19.7562Z" fill="#222222"/>
<path d="M18.5393 29.0542C18.7503 29.1853 18.9975 29.1956 19.2189 29.0845L27.9092 24.7317C28.1483 24.6103 28.2914 24.3762 28.2914 24.1055C28.2914 23.8345 28.1483 23.6004 27.9085 23.4793L19.2189 19.1266C19.1174 19.0758 19.0112 19.0508 18.9051 19.0508C18.779 19.0508 18.6537 19.0864 18.5393 19.1571C18.331 19.2858 18.207 19.5099 18.207 19.7562V28.4551C18.207 28.7015 18.331 28.9255 18.5393 29.0542Z" fill="#222222"/>
<path d="M48.7291 42.8657C47.5605 42.8657 46.6041 43.7902 46.5493 44.9472H50.9082C50.8534 43.7902 49.8971 42.8657 48.7291 42.8657Z" fill="#222222"/>
<path d="M41.068 17.1871C41.103 17.2667 41.1319 17.3493 41.164 17.4303C41.1801 17.4712 41.1966 17.5114 41.2121 17.5526C41.3179 17.8345 41.4057 18.1244 41.4759 18.4214C41.4811 18.4436 41.4905 18.4641 41.4956 18.4864C44.3741 18.3738 46.6402 16.0336 46.6402 13.1729C46.6402 10.2401 44.2584 7.85425 41.3312 7.85425C38.4588 7.85425 36.1126 10.1508 36.0249 13.0071C36.0491 13.0126 36.0713 13.0229 36.0954 13.0286C36.3914 13.0987 36.6804 13.1864 36.9614 13.2923C36.9995 13.3066 37.0367 13.322 37.0745 13.337C37.3605 13.4502 37.6384 13.5793 37.9056 13.7269C37.9321 13.7416 37.9575 13.7576 37.9837 13.7725C38.2575 13.9283 38.5218 14.0989 38.7722 14.288C38.7845 14.2974 38.796 14.3076 38.8083 14.317C39.3244 14.7118 39.786 15.1742 40.181 15.6909C40.1933 15.707 40.2066 15.722 40.2187 15.7382C40.2291 15.752 40.2408 15.7648 40.2511 15.7786C40.3392 15.8977 40.4215 16.0213 40.5024 16.1457C40.52 16.1729 40.5399 16.1985 40.5572 16.2259C40.6167 16.32 40.6701 16.4183 40.7254 16.5153C40.7433 16.5467 40.7622 16.5771 40.7796 16.6087C40.7827 16.6145 40.7863 16.62 40.7895 16.6259C40.8025 16.6495 40.8174 16.6719 40.8301 16.6957C40.8936 16.8153 40.9505 16.9387 41.0075 17.062C41.0269 17.1041 41.0494 17.1446 41.068 17.1871Z" fill="#222222"/>
<path d="M12.6236 51.1423H9.521V54.2498H12.6236V51.1423Z" fill="#222222"/>
<path d="M52.1004 15.2833L52.1545 14.9978H54.4795V11.3476H52.1545L52.1004 11.062C51.825 9.61537 51.2653 8.25862 50.4378 7.02954L50.2755 6.78862L51.9182 5.1505L49.3383 2.56634L47.7024 4.21201L47.4627 4.04974C46.2365 3.22036 44.8822 2.65967 43.4374 2.38344L43.1525 2.32887V0H39.5087V2.32887L39.2237 2.38344C37.779 2.65967 36.4247 3.22036 35.1985 4.04974L34.9587 4.21201L33.3228 2.56634L30.743 5.1505L32.385 6.78761L32.2247 7.02813C31.3924 8.27546 30.8328 9.63256 30.5608 11.062L30.5067 11.3476H28.1816V12.8213H34.4025C34.7262 12.8213 35.0347 12.849 35.3348 12.8891C35.4841 9.70093 38.1122 7.1513 41.3309 7.1513C44.6451 7.1513 47.3414 9.85249 47.3414 13.1727C47.3414 16.3971 44.7966 19.03 41.6142 19.1797C41.6541 19.4795 41.6817 19.7889 41.6817 20.1137V26.3457H43.1525V24.0165L43.4374 23.962C44.8664 23.6885 46.2207 23.1278 47.4633 22.2953L47.7038 22.1344L49.3383 23.7791L51.9182 21.1952L50.2755 19.5567L50.4378 19.3159C51.2653 18.0868 51.825 16.73 52.1004 15.2833Z" fill="#222222"/>
<path d="M8.8191 54.9524H5.71729V58.0606H8.8191V54.9524Z" fill="#222222"/>
<path d="M8.8191 47.3323H5.71729V50.4397H8.8191V47.3323Z" fill="#222222"/>
<path d="M12.6236 54.9524H9.521V58.0606H12.6236V54.9524Z" fill="#222222"/>
<path d="M8.8191 51.1423H5.71729V54.2498H8.8191V51.1423Z" fill="#222222"/>
<path d="M54.0815 51.1448H50.981V54.2509H54.0815V51.1448Z" fill="#222222"/>
<path d="M50.2797 51.1448H47.1792V54.2509H50.2797V51.1448Z" fill="#222222"/>
<path d="M50.2797 54.9539H47.1792V58.0606H50.2797V54.9539Z" fill="#222222"/>
<path d="M46.4779 47.3293H43.3774V50.4423H46.4779V47.3293Z" fill="#222222"/>
<path d="M50.2797 47.3293H47.1792V50.4423H50.2797V47.3293Z" fill="#222222"/>
<path d="M54.0815 47.3293H50.981V50.4423H54.0815V47.3293Z" fill="#222222"/>
<path d="M54.0815 54.9539H50.981V58.0606H54.0815V54.9539Z" fill="#222222"/>
<path d="M45.8915 45.6499H3V59.9999H57V45.6499H51.567H45.8915ZM39.9543 54.9537H39.9467V58.7632H36.1454H35.4433H32.3415H31.64H27.8367V58.7598H13.3248V58.7632H9.52085H8.81935H5.01603V54.9523V54.2496V51.1422V50.4394V46.6292H8.81935H9.52085H12.6234H13.3248H16.4267H17.1282H20.2301H20.9315H24.0333H24.7348H27.8367H28.5382H31.64H32.3415H35.4433V46.6264H39.9467V50.4353H39.9543V54.9537ZM54.7832 50.4422V51.1449V54.251V54.9537V58.7632H50.9813H50.2798H47.1793H46.4779H42.6759V54.9537V54.251V51.1449V50.4422V46.6264H47.1793H50.2798H50.9813H54.7832V50.4422Z" fill="#222222"/>
<path d="M46.4779 51.1448H43.3774V54.2509H46.4779V51.1448Z" fill="#222222"/>
<path d="M35.4431 54.9539H32.3413V58.0606H35.4431V54.9539Z" fill="#222222"/>
<path d="M31.6399 51.1423H28.5381V54.2498H31.6399V51.1423Z" fill="#222222"/>
<path d="M35.4431 47.3323H32.3413V50.4356H35.4431V47.3323Z" fill="#222222"/>
<path d="M39.2449 54.9539H36.145V58.0606H39.2449V54.9539Z" fill="#222222"/>
<path d="M31.6399 47.3323H28.5381V50.4397H31.6399V47.3323Z" fill="#222222"/>
<path d="M39.2449 47.3293H36.145V50.4354H39.2449V47.3293Z" fill="#222222"/>
<path d="M46.4779 54.9539H43.3774V58.0606H46.4779V54.9539Z" fill="#222222"/>
<path d="M35.4433 51.1423H32.3428V54.2498H36.1454V54.2511H39.2452V51.145H35.4433V51.1423Z" fill="#222222"/>
<path d="M47.295 36.3441C48.7179 38.228 48.0413 40.7877 48.0342 40.8131L48.7291 41.0056L49.4233 41.2003C49.4599 41.0684 50.3027 37.9466 48.4538 35.4843C47.0985 33.6794 44.704 32.7504 41.3379 32.7236L41.3267 34.1681C44.2133 34.1914 46.2213 34.9236 47.295 36.3441Z" fill="#222222"/>
</svg>
