<svg width="60" height="60" viewBox="0 0 60 60" fill="none" xmlns="http://www.w3.org/2000/svg">
<path d="M54.5 16.1413V10.5081C54.5 10.2276 54.2746 10 53.9968 10H6.0032C5.72544 10 5.5 10.2276 5.5 10.5081V16.1413H54.5ZM16.0472 12.2266C16.2434 12.0285 16.5624 12.0285 16.7587 12.2266L17.3082 12.7815L17.8577 12.2266C18.0539 12.0285 18.373 12.0285 18.5692 12.2266C18.7655 12.4248 18.7655 12.747 18.5692 12.9451L18.0197 13.5L18.5682 14.0539C18.7645 14.2521 18.7645 14.5742 18.5682 14.7724C18.4696 14.872 18.3408 14.9208 18.2119 14.9208C18.0831 14.9208 17.9543 14.871 17.8557 14.7724L17.3072 14.2185L16.7587 14.7724C16.6601 14.872 16.5312 14.9208 16.4024 14.9208C16.2736 14.9208 16.1448 14.871 16.0462 14.7724C15.8499 14.5742 15.8499 14.2521 16.0462 14.0539L16.5946 13.5L16.0451 12.9451C15.8499 12.746 15.8499 12.4248 16.0472 12.2266ZM12.3265 12.9919H14.4882C14.766 12.9919 14.9914 13.2195 14.9914 13.5C14.9914 13.7805 14.766 14.0082 14.4882 14.0082H12.3265C12.0487 14.0082 11.8233 13.7805 11.8233 13.5C11.8233 13.2195 12.0487 12.9919 12.3265 12.9919ZM9.32133 11.936C10.1758 11.936 10.8702 12.6372 10.8702 13.5C10.8702 14.3628 10.1758 15.0641 9.32133 15.0641C8.4679 15.0641 7.77247 14.3628 7.77247 13.5C7.77247 12.6372 8.46689 11.936 9.32133 11.936Z" fill="#222222"/>
<path d="M5.5 17.1572V49.4918C5.5 49.7723 5.72544 49.9999 6.0032 49.9999H53.9968C54.2746 49.9999 54.5 49.7723 54.5 49.4918V17.1572H5.5ZM24.2091 38.9683C24.4336 39.134 24.4819 39.4521 24.3178 39.6787C24.2192 39.8139 24.0662 39.886 23.9112 39.886C23.8076 39.886 23.7039 39.8545 23.6143 39.7875L15.084 33.4795C15.0569 33.4592 15.0407 33.4307 15.0186 33.4063C15.0055 33.3921 14.9874 33.386 14.9763 33.3707C14.9713 33.3636 14.9713 33.3555 14.9663 33.3484C14.9461 33.3189 14.9351 33.2864 14.923 33.2529C14.9119 33.2244 14.8988 33.1959 14.8928 33.1665C14.8868 33.135 14.8888 33.1025 14.8888 33.0699C14.8888 33.0374 14.8868 33.0059 14.8928 32.9734C14.8988 32.9439 14.9129 32.9155 14.923 32.887C14.9361 32.8535 14.9472 32.822 14.9663 32.7915C14.9713 32.7833 14.9713 32.7752 14.9763 32.7691C14.9924 32.7468 15.0166 32.7346 15.0357 32.7142C15.0538 32.697 15.0649 32.6746 15.085 32.6594L23.6153 26.3504C23.8378 26.1837 24.1538 26.2325 24.3188 26.4601C24.4829 26.6868 24.4346 27.0048 24.2101 27.1705L16.2343 33.0689L24.2091 38.9683ZM32.8371 23.7508L28.1402 42.636C28.0828 42.8667 27.8775 43.0202 27.6531 43.0202C27.6118 43.0202 27.5705 43.0151 27.5303 43.005C27.2606 42.9369 27.0965 42.6604 27.1649 42.3881L31.8619 23.5028C31.9293 23.2304 32.199 23.0638 32.4727 23.1339C32.7415 23.203 32.9045 23.4784 32.8371 23.7508ZM45.1092 33.1675C45.1042 33.1959 45.0901 33.2224 45.08 33.2498C45.0669 33.2844 45.0559 33.3179 45.0347 33.3494C45.0297 33.3565 45.0297 33.3646 45.0247 33.3707C45.0136 33.386 44.9965 33.3921 44.9844 33.4053C44.9623 33.4297 44.9452 33.4592 44.917 33.4795L36.3877 39.7875C36.2971 39.8535 36.1934 39.886 36.0898 39.886C35.9358 39.886 35.7818 39.8139 35.6842 39.6787C35.5201 39.4511 35.5685 39.134 35.7919 38.9683L43.7667 33.0699L35.7919 27.1715C35.5674 27.0059 35.5191 26.6878 35.6842 26.4611C35.8492 26.2345 36.1632 26.1868 36.3877 26.3514L44.917 32.6604C44.9381 32.6766 44.9512 32.7 44.9693 32.7193C44.9884 32.7376 45.0096 32.7488 45.0257 32.7701C45.0307 32.7772 45.0307 32.7854 45.0357 32.7915C45.0569 32.822 45.0679 32.8555 45.081 32.8911C45.0921 32.9185 45.1052 32.9449 45.1102 32.9734C45.1173 33.0059 45.1142 33.0374 45.1142 33.0709C45.1142 33.1045 45.1162 33.135 45.1092 33.1675Z" fill="#222222"/>
<path d="M9.32126 14.0477C9.62085 14.0477 9.86372 13.8024 9.86372 13.4999C9.86372 13.1974 9.62085 12.9521 9.32126 12.9521C9.02167 12.9521 8.77881 13.1974 8.77881 13.4999C8.77881 13.8024 9.02167 14.0477 9.32126 14.0477Z" fill="#222222"/>
</svg>
