<svg width="60" height="60" viewBox="0 0 60 60" fill="none" xmlns="http://www.w3.org/2000/svg">
<path d="M36.3027 14.3359C35.8701 14.7208 35.309 14.9344 34.727 14.9357H25.2724C24.6924 14.9315 24.1331 14.7214 23.6967 14.3437C21.8222 19.6275 21.8528 25.3893 23.7834 30.6533L20.6318 34.9605L21.9003 35.8796L25.0518 31.5724H29.1409V36.2456H30.7167V31.5724H34.8609L37.0118 35.7783L38.4221 35.0773L36.2003 30.739C38.1612 25.4491 38.1974 19.6493 36.3027 14.3359ZM29.9997 23.5578C29.2598 23.5593 28.536 23.3435 27.9203 22.9377C27.3046 22.532 26.8248 21.9545 26.5416 21.2787C26.2585 20.6029 26.1848 19.8591 26.3299 19.1418C26.475 18.4245 26.8324 17.766 27.3568 17.2499C27.8811 16.7337 28.5488 16.3832 29.275 16.2428C30.0012 16.1023 30.7532 16.1783 31.4356 16.4611C32.1181 16.7439 32.7001 17.2207 33.108 17.8311C33.5158 18.4414 33.7311 19.1578 33.7264 19.8893C33.7201 20.863 33.325 21.7949 32.627 22.482C31.929 23.1691 30.9847 23.5558 29.9997 23.5578Z" fill="#222222"/>
<path d="M25.2723 13.3774H34.7269C34.86 13.3785 34.9913 13.3462 35.1084 13.2836C35.2255 13.2209 35.3246 13.1299 35.3966 13.0191C35.473 12.9049 35.5177 12.7727 35.526 12.636C35.5343 12.4992 35.5059 12.3627 35.4438 12.2402C34.2416 9.63214 32.5766 7.25802 30.5275 5.23039C30.4542 5.15739 30.3671 5.09944 30.2711 5.0599C30.1751 5.02036 30.0721 5 29.9681 5C29.8641 5 29.7611 5.02036 29.6651 5.0599C29.5691 5.09944 29.4819 5.15739 29.4087 5.23039C27.3596 7.25802 25.6945 9.63214 24.4923 12.2402C24.4314 12.3634 24.4043 12.5003 24.414 12.637C24.4237 12.7738 24.4697 12.9056 24.5475 13.0191C24.6241 13.1381 24.732 13.2344 24.8597 13.2975C24.9874 13.3606 25.13 13.3882 25.2723 13.3774Z" fill="#222222"/>
<path d="M53.1952 9.20215H35.6097C36.0745 9.98102 37.0279 11.64 37.0279 11.64L37.8158 13.8209C39.7271 19.258 39.7493 25.1701 37.8788 30.6212L40.5103 35.7539L36.303 37.8647L33.8921 33.1291H32.3164V37.8024H27.5891V33.1291H25.8479L22.2 38.0516L18.3867 35.2944L22.0109 30.3953C20.2366 25.0017 20.3031 19.1813 22.2 13.8287L22.9879 11.6478C22.9879 11.6478 23.9333 9.98881 24.4061 9.20215H6.80485C6.06096 9.20215 5.34753 9.49428 4.82152 10.0143C4.29551 10.5343 4 11.2395 4 11.9749V40.6608H56V11.9749C56 11.2395 55.7045 10.5343 55.1785 10.0143C54.6525 9.49428 53.939 9.20215 53.1952 9.20215Z" fill="#222222"/>
<path d="M4 46.3701C4 47.1055 4.29551 47.8108 4.82152 48.3308C5.08198 48.5883 5.39118 48.7925 5.73148 48.9319C6.07178 49.0712 6.43651 49.1429 6.80485 49.1429H19.7576V53.4423H17.6618V55.0001H42.3303V53.4423H40.2424V49.1274H53.1952C53.9357 49.1253 54.6455 48.8347 55.1707 48.3185C55.6958 47.8023 55.9938 47.1022 56 46.3701V42.2188H4V46.3701Z" fill="#222222"/>
</svg>
