<svg version="1.1" id="Capa_1" xmlns="http://www.w3.org/2000/svg" xmlns:xlink="http://www.w3.org/1999/xlink" x="0px" y="0px" viewBox="0 0 60 60" style="enable-background:new 0 0 60 60;" xml:space="preserve"><style type="text/css">.st0{fill:#9FC13D;}</style><g><path class="st0" d="M18.3,22.2c0.2,0.2,0.5,0.3,0.7,0.3s0.5-0.1,0.7-0.3l0.9-0.9c0.4,0.2,0.9,0.3,1.4,0.3s0.9-0.1,1.4-0.3l0.9,0.9c0.2,0.2,0.5,0.3,0.7,0.3s0.5-0.1,0.7-0.3c0.4-0.4,0.4-1,0-1.4l-0.9-0.9c0.4-0.9,0.4-1.9,0-2.7l0.9-0.9c0.4-0.4,0.4-1,0-1.4s-1-0.4-1.4,0l-0.9,0.9c-0.9-0.4-1.9-0.4-2.7,0l-0.9-0.9c-0.4-0.4-1-0.4-1.4,0s-0.4,1,0,1.4l0.9,0.9c-0.4,0.9-0.4,1.9,0,2.7l-0.9,0.9C17.9,21.2,17.9,21.8,18.3,22.2z M22.8,17.7c0.4,0.4,0.4,1.1,0,1.6c-0.4,0.4-1.1,0.4-1.6,0c-0.4-0.4-0.4-1.1,0-1.6c0.2-0.2,0.5-0.3,0.8-0.3S22.6,17.5,22.8,17.7z"/><path class="st0" d="M34.3,22.2c0.2,0.2,0.5,0.3,0.7,0.3s0.5-0.1,0.7-0.3l0.9-0.9c0.4,0.2,0.9,0.3,1.4,0.3s0.9-0.1,1.4-0.3l0.9,0.9c0.2,0.2,0.5,0.3,0.7,0.3s0.5-0.1,0.7-0.3c0.4-0.4,0.4-1,0-1.4l-0.9-0.9c0.4-0.9,0.4-1.9,0-2.7l0.9-0.9c0.4-0.4,0.4-1,0-1.4s-1-0.4-1.4,0l-0.9,0.9c-0.9-0.4-1.9-0.4-2.7,0l-0.9-0.9c-0.4-0.4-1-0.4-1.4,0s-0.4,1,0,1.4l0.9,0.9c-0.4,0.9-0.4,1.9,0,2.7l-0.9,0.9C33.9,21.2,33.9,21.8,34.3,22.2z M38.8,17.7c0.4,0.4,0.4,1.1,0,1.6c-0.4,0.4-1.1,0.4-1.6,0c-0.4-0.4-0.4-1.1,0-1.6c0.2-0.2,0.5-0.3,0.8-0.3S38.6,17.5,38.8,17.7z"/><path class="st0" d="M59.5,24.8c-0.5-0.8-1.5-1.3-2.5-1.3H54c0-12.1-9.9-22-22-22h-4c-11.8,0-21.5,9.3-22,21H3.1c-1,0-2,0.5-2.5,1.4c-0.6,0.9-0.7,1.9-0.3,2.8L7,46.4c0.4,1.5,1.6,2.7,3.1,3l-0.9,9.1h4.5l2-9h28.4l2,9h4.5l-0.9-9.1c1.5-0.3,2.7-1.4,3.1-2.9l6.8-18.9C60.1,26.7,60.1,25.6,59.5,24.8z M28,3.5h4c11,0,20,9,20,20v0c0,0-0.1,0-0.1,0c-0.1,0-0.2,0-0.2,0c-0.1,0-0.2,0-0.3,0.1c-0.1,0-0.2,0.1-0.2,0.1c-0.1,0-0.2,0.1-0.3,0.1c-0.1,0-0.1,0.1-0.2,0.1c-0.1,0.1-0.2,0.1-0.3,0.2c-0.1,0-0.1,0.1-0.2,0.1c-0.1,0.1-0.2,0.1-0.2,0.2c-0.1,0.1-0.1,0.1-0.2,0.2c-0.1,0.1-0.1,0.2-0.2,0.3c0,0.1-0.1,0.1-0.1,0.2c-0.1,0.1-0.1,0.2-0.2,0.3c0,0.1-0.1,0.1-0.1,0.2c-0.1,0.2-0.1,0.4-0.2,0.6l-2,8.4c0,0.1,0,0.1-0.1,0.2c-1.3-2-3.5-3.3-5.9-3.3H19c-2.3,0-4.4,1.2-5.7,3l-2.3-10.4L10.8,24c-0.9-1.2-1.8-1.5-2.5-1.5H8C8.5,11.9,17.3,3.5,28,3.5z M16.3,37.4C16.2,37.4,16.2,37.4,16.3,37.4c-0.7-0.1-1.3-0.5-1.8-0.9c0.8-1.8,2.6-3,4.6-3h22c2.1,0,3.9,1.3,4.6,3.2c-0.7,0.5-1.5,0.8-2.3,0.8H17C16.7,37.5,16.5,37.5,16.3,37.4z M12.2,56.5h-0.7l0.7-7h1.6L12.2,56.5z M47.8,56.5l-1.6-7h1.6l0.7,7H47.8z M57.9,26.9l-6.9,19c-0.2,0.9-1.1,1.6-2.1,1.6h-5.2H16.2H11c-1,0-1.8-0.7-2.1-1.7L2.1,26c-0.1-0.3-0.1-0.7,0.1-1c0.2-0.3,0.5-0.5,0.9-0.5H6h2.3c0.2,0,0.5,0.2,0.7,0.5l2.3,10c0.2,0.7,0.5,1.4,0.8,1.9l0,0l0.3,0.3c0.5,0.7,1.2,1.2,2,1.6c0.1,0.1,0.2,0.1,0.3,0.1c0.1,0.1,0.3,0.1,0.5,0.2c0.2,0.1,0.4,0.1,0.7,0.2c0.1,0,0.2,0,0.3,0c0.3,0,0.6,0.1,0.9,0.1h26.3c0.3,0,0.6,0,0.9-0.1c0.1,0,0.2,0,0.2,0c0.2,0,0.5-0.1,0.7-0.2c0.1,0,0.2-0.1,0.3-0.1c0.1-0.1,0.3-0.1,0.4-0.2c0.2-0.1,0.3-0.2,0.5-0.3c0.1-0.1,0.2-0.1,0.3-0.2c0.1-0.1,0.2-0.2,0.3-0.3c0.1-0.1,0.2-0.2,0.3-0.3c0.1-0.1,0.2-0.2,0.3-0.3l0.3-0.3l0,0c0.5-0.6,0.8-1.3,1-2.1l2-8.4c0.2-0.7,0.8-1.2,1.5-1.2H54h3.1c0.3,0,0.6,0.2,0.8,0.4C58,26.2,58,26.5,57.9,26.9z"/></g></svg>