<svg version="1.1" id="Capa_1" xmlns="http://www.w3.org/2000/svg" xmlns:xlink="http://www.w3.org/1999/xlink" x="0px" y="0px" viewBox="0 0 512 512" style="enable-background:new 0 0 512 512;" xml:space="preserve"><style type="text/css">.st0{fill:#9FC13D;}</style><g><g><path class="st0" d="M350.2,0c-89.2,0-161.8,65.3-161.8,145.5c0,41.7,19.7,81.1,54.2,108.7l-5.5,60.9c-0.5,5.7,5.5,10,10.7,7.6l74.6-33.9c9.1,1.4,18.5,2.1,27.7,2.1c48.4,0,93.8-19.2,124.7-52.8c2.8-3.1,2.6-7.9-0.4-10.7c-3.1-2.8-7.9-2.6-10.7,0.4c-28,30.4-69.3,47.9-113.5,47.9c-9.2,0-18.5-0.8-27.5-2.3c-1.5-0.2-3-0.1-4.4,0.6l-64.8,29.5l4.7-52.1c0.2-2.6-0.9-5.2-3-6.8c-32.8-24.8-51.6-61-51.6-99.2c0-71.9,65.7-130.3,146.5-130.3s146.5,58.5,146.5,130.3c0,18.6-4.3,36.6-12.8,53.4c-1.9,3.7-0.4,8.3,3.4,10.2c3.7,1.9,8.3,0.4,10.2-3.4c9.6-19,14.5-39.2,14.5-60.2C512,65.3,439.4,0,350.2,0z"/></g></g><g><g><path class="st0" d="M414.9,144.6c7.1-8.1,17.8-20.2,17.8-48.9c0-26.5-22.6-46.6-52.6-46.6c-10.7,0-21.3,4.2-29.9,11.7c-8.6-7.5-19.2-11.7-30.1-11.7c-30,0-52.6,20-52.6,46.6c0,28.7,10.7,40.9,17.8,48.9c5.5,6.3,6.7,7.6,3.8,13.9c-13,28.6-5.7,65.9,4.6,81.8c4.2,6.5,9,9.8,14.3,9.8c10.4,0,13.4-11.8,17.2-26.7c5.5-21.5,11.1-39.2,24.7-39.2s19.2,17.8,24.7,39.2c3.8,14.9,6.8,26.7,17.2,26.7c5.3,0,10.2-3.3,14.3-9.8c10.3-15.9,17.6-53.2,4.6-81.8C408.3,152.2,409.4,150.8,414.9,144.6z M403.5,134.5c-6.2,7-13.2,15-6.3,30.2c5.5,12.1,7,28.4,4.2,44.8c-2,11.4-5.5,19.3-8,23.1c-1.3-3.5-2.6-8.8-3.7-13c-5.2-20.2-13-50.7-39.4-50.7c-26.5,0-34.3,30.5-39.4,50.7c-1.1,4.2-2.4,9.5-3.7,13c-2.6-3.8-6.1-11.7-8-23.1c-2.8-16.4-1.3-32.7,4.2-44.8c6.9-15.2-0.1-23.2-6.3-30.2c-6.3-7.1-14-15.9-14-38.9c0-18.2,15.7-31.3,37.3-31.3c7.1,0,14.3,3,20.2,8.1c-3.4,4.7-6,6.7-14.2,6.7c-4.2,0-7.6,3.4-7.6,7.6s3.4,7.6,7.6,7.6c17.5,0,23.4-8.5,28.6-15.9c0.3-0.5,0.7-1,1.1-1.5c0.1-0.1,0.2-0.2,0.3-0.3c6.5-7.8,15.2-12.2,24-12.2c21.6,0,37.3,13.2,37.3,31.3C417.6,118.6,409.8,127.4,403.5,134.5z"/></g></g><g><g><path class="st0" d="M347.5,451.3L267.2,371c-2.5-2.5-6.3-2.9-9.3-1.1l-28.7,17.2c0,0-0.1,0.1-0.1,0.1c-0.1,0.1-0.3,0.2-0.4,0.3c-0.1,0.1-0.2,0.1-0.3,0.2c-0.1,0.1-0.3,0.2-0.4,0.3c-0.1,0.1-0.2,0.1-0.2,0.2c0,0,0,0,0,0c-4.1,4.1-7.5,8.5-10.4,13.2c-25.1-12.5-47.6-29.2-66.9-49.6c-16-17-29.4-36.2-39.9-57.2c4.7-2.9,9.1-6.4,13.2-10.4c0,0,0,0,0-0.1c0.1-0.1,0.1-0.1,0.2-0.2c0.1-0.1,0.2-0.3,0.4-0.4c0.1-0.1,0.1-0.2,0.2-0.2c0.1-0.1,0.2-0.3,0.3-0.4c0,0,0.1-0.1,0.1-0.1l17.2-28.7c1.8-3,1.3-6.8-1.1-9.3l-80.3-80.3c-2.5-2.5-6.3-2.9-9.3-1.1l-28.7,17.2c0,0-0.1,0-0.1,0.1c-0.2,0.1-0.3,0.2-0.5,0.3c-0.1,0.1-0.2,0.1-0.2,0.2c-0.1,0.1-0.3,0.2-0.4,0.3c-0.1,0.1-0.2,0.1-0.2,0.2c0,0,0,0,0,0C7.5,195.4,0,213.6,0,233c0,9.9,2,19.6,5.8,28.4c0.2,1.7,0.5,3.5,0.9,5.2c9.5,38.1,31,94.4,79.6,145.9c54.3,57.5,116.5,82.2,159.1,92.8c1.8,0.4,3.6,0.8,5.4,1c9,3.8,18.6,5.7,28.3,5.7c18.6,0,37.1-7.1,51.3-21.2c0,0,0,0,0-0.1c0.1-0.1,0.1-0.1,0.2-0.2c0.1-0.1,0.2-0.3,0.4-0.4c0.1-0.1,0.1-0.1,0.2-0.2c0.1-0.2,0.2-0.3,0.3-0.5c0,0,0-0.1,0.1-0.1l17.2-28.7C350.5,457.6,350,453.8,347.5,451.3z M54.1,179.5l71.9,71.9l-9.1,15.2l-78-78L54.1,179.5z M27,198.2l80.3,80.3c-22.4,17.2-54.8,15.5-75.3-5c-10.8-10.8-16.8-25.2-16.8-40.5C15.2,220.2,19.3,208.1,27,198.2z M97.4,402c-35.2-37.3-55.5-77.2-67.2-110.2c12.6,9.1,27.4,13.6,42.3,13.6c8.2,0,16.5-1.4,24.3-4.2c11.1,22.4,25.4,42.9,42.5,61.1c20.6,21.8,44.6,39.5,71.4,52.8c-7.8,22-4.7,47.1,9.4,66.6C183,468.7,137.9,444.9,97.4,402z M238.5,480c-20.5-20.5-22.2-52.9-5-75.3l80.3,80.3C291.4,502.2,259,500.5,238.5,480z M323.4,473.1l-78-78l15.2-9.1l71.9,71.9L323.4,473.1z"/></g></g></svg>