<svg version="1.1" id="Слой_2" xmlns="http://www.w3.org/2000/svg" xmlns:xlink="http://www.w3.org/1999/xlink" x="0px" y="0px" viewBox="0 0 420.4 511.6" style="enable-background:new 0 0 420.4 511.6;" xml:space="preserve"><style type="text/css">.st0{fill:#9FC13D;}</style><g><path class="st0" d="M209.9,507.9l-2.7-1c-3.8-1.5-94-36.4-133.1-91c-21.8-30.4-30-81.5-33.1-119.1c-3.4-42.1-1.9-85,1-108.9c5.9-47,71-134.6,174.6-134.6c40.3,0,79.7,16.7,111,47.1c26.2,25.4,44.8,58.9,48.6,87.4c2.1,16.2,6.8,58.9,4.5,105.2c-2.4,48-11.5,83.6-27.1,106l-12.3-8.6c13.8-19.8,22.2-53.7,24.5-98.2c2.3-45.1-2.3-86.7-4.4-102.5c-3.3-25.3-20.2-55.4-44.1-78.6c-28.5-27.7-64.2-42.9-100.6-42.9c-53.7,0-91.7,25-114.2,46c-28.2,26.4-43.2,56.9-45.5,75.4c-5,40.1-7.4,166.2,29.3,217.4c32.9,45.9,108.6,78.5,123.6,84.6l48.2-18.6l5.4,14L209.9,507.9z"/></g><g><path class="st0" d="M125.7,93.6L111,90.3c0.2-0.9,5.1-22.7,19.5-44.7C149.9,15.8,177.4,0,209.9,0c47.1,0,71.3,23.8,83.4,43.8c12.9,21.4,14.8,42.6,14.8,43.4l-15,1.2c0-0.2-1.7-19-13-37.4C265.5,27.1,241.9,15,209.9,15c-27.4,0-49.9,12.9-66.6,38.5C130.3,73.2,125.7,93.4,125.7,93.6z"/></g><g><path class="st0" d="M54.7,351.5c-3.1-0.1-30.7-1.3-43-12.8C-0.4,327.2-0.2,310,0.1,286.2c0-1.9,0-3.9,0.1-5.9c0.1-13.8,8.4-25,23.9-32.2c10.6-5,21.2-6.4,21.6-6.4l1.9,14.9c-0.3,0-32.2,4.5-32.4,23.9c0,2,0,4-0.1,6c-0.3,20.7-0.4,34.4,6.9,41.3c3.3,3.1,15.2,8.2,33.2,8.8L54.7,351.5z"/></g><g><path class="st0" d="M367.1,353.5l-0.5-15c9.1-0.3,25.7-3,31.9-8.8c7.3-6.9,7.2-20.6,6.9-41.3c0-1.9,0-3.9-0.1-6c-0.2-19.4-32.1-23.8-32.4-23.9l1.9-14.9c0.4,0.1,11,1.5,21.6,6.4c15.5,7.2,23.8,18.4,23.9,32.2c0,2,0,4,0.1,5.9c0.3,23.8,0.5,41.1-11.6,52.5C396.5,352.2,370,353.4,367.1,353.5z"/></g><g><path class="st0" d="M48.9,278.2l-3.7-14.5c135.3-34.4,199.2-95.6,199.8-96.2l10.5,10.7c-0.7,0.7-17.1,16.5-50.9,36.9C173.6,233.7,121.5,259.7,48.9,278.2z"/></g><g><path class="st0" d="M373.9,278.4c-2.3,0-27.4-0.2-58.4-9.9c-42.6-13.2-76.1-38-96.9-71.7l12.8-7.9c45.8,74.1,141.6,74.4,142.6,74.4l0.1,15C374,278.4,373.9,278.4,373.9,278.4z"/></g><g><path class="st0" d="M278.9,162.1c-6.1,0-11-5-11-11s5-11,11-11c6.1,0,11,5,11,11S285,162.1,278.9,162.1z M278.9,147.1c-2.2,0-4,1.8-4,4s1.8,4,4,4s4-1.8,4-4S281.1,147.1,278.9,147.1z"/></g><g><path class="st0" d="M134.7,319.6c-26.4,0-35.4-18.1-35.8-18.9l13.5-6.5l-0.1-0.1c0.2,0.4,5.6,10.5,22.3,10.5c16.1,0,20.2-8.7,20.3-8.8l14,5.4C166.3,308.1,156.1,319.6,134.7,319.6z"/></g><g><path class="st0" d="M287.1,319.6c-26.4,0-35.4-18.1-35.8-18.9l13.5-6.5l-0.1-0.1c0.2,0.4,5.6,10.5,22.3,10.5c16.1,0,20.2-8.7,20.3-8.8l14,5.4C318.7,308.1,308.5,319.6,287.1,319.6z"/></g><g><path class="st0" d="M328.7,506.6l-42.3-46.2l-66.2-28.8l0.6-5.5c0.1-1.3,3.6-33.2,23.6-53.5c21.6-22,52.9-25.7,54.2-25.9l5.6-0.6l28.1,66.2l57,57.3l-10.6,10.6l-59-59.4l-24.7-58.2c-8.9,2-26.8,7.3-39.8,20.5c-11.9,12.1-16.8,30.3-18.5,39.2l58.8,25.6l44.4,48.5L328.7,506.6z"/></g><g><rect x="282.7" y="427.8" transform="matrix(0.6807 -0.7325 0.7325 0.6807 -220.4326 364.9139)" class="st0" width="51.4" height="15"/></g><g><path class="st0" d="M408.1,511.6c-6.4,0-11.5-5.2-11.5-11.5s5.2-11.5,11.5-11.5s11.5,5.2,11.5,11.5S414.4,511.6,408.1,511.6z M408.1,496.6c-1.9,0-3.5,1.6-3.5,3.5s1.6,3.5,3.5,3.5s3.5-1.6,3.5-3.5S410,496.6,408.1,496.6z"/></g></svg>