<svg version="1.1" id="Слой_2" xmlns="http://www.w3.org/2000/svg" xmlns:xlink="http://www.w3.org/1999/xlink" x="0px" y="0px" viewBox="0 0 508 458.4" style="enable-background:new 0 0 508 458.4;" xml:space="preserve"><style type="text/css">.st0{fill:#9FC13D;}</style><g><path class="st0" d="M149.5,395.6L0,355.9V214.5h149.5V395.6z M14,345.2l121.5,32.3V228.5H14V345.2z"/></g><g><rect x="99" y="289" class="st0" width="14" height="87.8"/></g><g><path class="st0" d="M106,264.2c-5.8,0-10.5-4.7-10.5-10.5c0-5.8,4.7-10.5,10.5-10.5s10.5,4.7,10.5,10.5C116.5,259.5,111.8,264.2,106,264.2z M106,250.2c-1.9,0-3.5,1.6-3.5,3.5s1.6,3.5,3.5,3.5s3.5-1.6,3.5-3.5S107.9,250.2,106,250.2z"/></g><g><path class="st0" d="M341.8,424.8c-6.7,0-13.6-2.1-20.3-6.4c-9-5.7-51.7-45.3-56.5-49.8l9.5-10.3c18.6,17.3,48.5,44.4,54.5,48.2c8.8,5.6,16.8,5.6,24.5,0.2c1.9-1.4,3.3-3.2,4.3-5.6c2.1-5.4,0.7-11.7-3.6-16.1L305,334.8l-0.5-0.8l-50.1-90c-5.3-9.5-15.3-15.4-26.2-15.4h-85.7v-14h85.7c16,0,30.7,8.7,38.4,22.6l49.6,89.2l47.9,49c8.1,8.3,10.7,20.5,6.6,31c-1.9,4.9-5,8.9-9.2,11.9C355.4,422.6,348.7,424.8,341.8,424.8z"/></g><g><rect x="281.6" y="281" transform="matrix(0.6691 -0.7431 0.7431 0.6691 -135.3895 317.2431)" class="st0" width="14" height="59.4"/></g><g><path class="st0" d="M412.1,458.4c-44.3,0-95-1.1-107-5.9c-14.2-5.6-58.4-30.7-83.6-45.2c-11.5-6.6-21.1-16.2-27.7-27.7l-28.3-49.2c-1.3-2.3-3.8-3.8-6.5-3.8h-16.4v-14h16.4c7.7,0,14.8,4.1,18.6,10.8l28.3,49.2c5.4,9.4,13.2,17.2,22.6,22.6c42.2,24.3,72,40.4,81.7,44.3c11.6,4.6,86,5.5,154.5,4.4c4.4-0.1,8.3-2.1,10.6-5.5c1.5-2.2,2.2-4.8,2.2-7.8c0-4.9-2-10-5.4-13.3c-1.8-1.8-3.7-2.8-5.3-2.8h-104v-14h104c5.3,0,10.7,2.5,15.2,7c6,6,9.5,14.7,9.5,23.2c0,5.8-1.6,11.1-4.6,15.6c-4.8,7.1-13,11.5-21.9,11.6C451.6,458.2,432.5,458.4,412.1,458.4z"/></g><g><path class="st0" d="M484.2,427l-3.7-13.5c10.3-2.9,13.6-14.8,13.6-18.8c0-6.8-1.8-14.6-15.8-14.6H352.3v-14h125.9c18.7,0,29.8,10.7,29.8,28.6C508,403.1,502.2,422,484.2,427z"/></g><g><path class="st0" d="M485.1,374.1l-13.9-1.9c1-7.5-0.8-15-4.8-19.6c-2.9-3.4-6.9-5.1-11.8-5.1H320.5v-14h134.2c9,0,16.7,3.4,22.4,9.9C483.7,351.1,486.7,362.6,485.1,374.1z"/></g><g><path class="st0" d="M420.6,341.3l-13.9-1.4c0.7-7.2-0.1-16.8-4.8-21.9c-2.5-2.8-6.1-4.1-10.9-4.1h-93.5v-14H391c8.8,0,16.1,3,21.3,8.7C421.7,319,421.3,334.9,420.6,341.3z"/></g><g><path class="st0" d="M395.1,269.5c-31.5,0-58.9-13.2-77.4-37.3c-17.9-23.3-24.7-53.8-17.8-79.6c12.1-45.2,86.5-141.4,89.7-145.4l5.6-7.2l24.3,32.3l-11.2,8.4l-13.2-17.6c-17.7,23.5-72.1,97.5-81.6,133.2c-5.7,21.3,0.3,47.8,15.4,67.5c15.7,20.5,39.2,31.8,66.2,31.8c39.5,0,61.4-19.3,72.8-35.5c15.9-22.6,17.9-47.5,13-61.1c-11.5-32.1-29.5-57-29.7-57.2l11.3-8.2c0.8,1.1,19.3,26.7,31.5,60.8c7.5,21,1.6,50.7-14.7,73.9C460.6,254.8,430.7,269.5,395.1,269.5z"/></g><g><path class="st0" d="M438.2,77.9c-6,0-10.8-4.9-10.8-10.8s4.9-10.8,10.8-10.8S449,61.1,449,67S444.1,77.9,438.2,77.9z M438.2,63.9c-1.7,0-3.2,1.4-3.2,3.2s1.4,3.2,3.2,3.2s3.2-1.4,3.2-3.2S439.9,63.9,438.2,63.9z"/></g><g><path class="st0" d="M395.1,228.5c-15.7,0-29.5-6.1-39.8-17.7c-13.7-15.3-18.2-36.5-16.5-50.6c3.6-31.7,49.1-85,51.1-87.2l5.4-6.3l5.3,6.3c1.6,2,40.3,48.3,50.9,85c4.6,15.8,0.8,35-9.7,48.9C434.3,216.8,420.2,228.5,395.1,228.5z M395.1,88.7c-14.6,18.1-40.1,53.2-42.4,73.2c-1.2,10.7,2.3,27.7,13.1,39.7c7.7,8.6,17.6,13,29.4,13c15.3,0,27.5-5.5,35.4-16c9-11.9,10.2-27,7.4-36.6C430.4,135.8,405.9,102.6,395.1,88.7z"/></g></svg>