<svg width="105" height="103" viewBox="0 0 105 103" fill="none" xmlns="http://www.w3.org/2000/svg">
<g clip-path="url(#clip0_24_10309)">
<path d="M99.3812 69.3015C89.0607 93.425 61.8182 103.787 40.4712 102.02C34.6429 101.538 22.9162 100.567 13.7602 91.9082C-3.82355 75.2798 -1.11566 40.52 15.7172 20.0578C17.8848 17.4226 32.8896 -0.233835 56.2714 0.00234777C73.3919 0.175378 85.4062 9.84574 86.8671 11.0504C88.7128 12.5726 92.7837 16.1891 96.4524 21.9265C105.073 35.4072 105.831 54.2266 99.3812 69.3015Z" fill="#F9FFE9"/>
<path d="M99.5571 38.3785C99.5728 38.4038 99.5809 38.4331 99.5804 38.4628C99.58 38.4926 99.571 38.5216 99.5545 38.5464C99.441 38.7161 99.322 38.8863 99.2008 39.0524C99.1889 39.0686 99.1738 39.0823 99.1565 39.0926C99.1393 39.1029 99.1201 39.1097 99.1001 39.1124C99.0802 39.1152 99.0599 39.114 99.0405 39.1088C99.021 39.1036 99.0028 39.0946 98.9869 39.0823C98.82 38.9578 98.9923 38.8289 99.2993 38.3694C99.3106 38.3526 99.3251 38.3384 99.342 38.3273C99.3589 38.3163 99.3778 38.3088 99.3976 38.3052C99.4174 38.3016 99.4378 38.302 99.4575 38.3063C99.4771 38.3107 99.4957 38.319 99.5122 38.3307C99.5303 38.3433 99.5456 38.3596 99.5571 38.3785Z" fill="#91B3FA"/>
<path d="M97.9708 40.5276C97.7003 40.812 97.4149 41.0887 97.1225 41.3504C97.1073 41.3637 97.0896 41.3739 97.0705 41.3803C97.0514 41.3868 97.0312 41.3894 97.011 41.3879C96.9909 41.3865 96.9712 41.3811 96.9532 41.372C96.9352 41.363 96.9191 41.3504 96.906 41.3351C96.7519 41.158 96.9502 41.1485 97.7478 40.3104C97.7619 40.296 97.7788 40.2846 97.7974 40.2768C97.816 40.269 97.836 40.265 97.8562 40.265C97.8764 40.265 97.8963 40.269 97.915 40.2768C97.9336 40.2846 97.9505 40.296 97.9646 40.3104C97.9936 40.3387 98.0105 40.3772 98.0117 40.4177C98.0128 40.4583 97.9982 40.4977 97.9708 40.5276ZM95.6145 42.5353C95.2896 42.7587 94.9497 42.9734 94.6161 43.165C94.4368 43.2687 94.2875 42.9942 94.4602 42.8953C94.7928 42.7036 95.1206 42.4966 95.4385 42.278C95.4724 42.2593 95.512 42.2538 95.5497 42.2627C95.5873 42.2716 95.6203 42.2941 95.6423 42.326C95.6642 42.3579 95.6735 42.3968 95.6684 42.4351C95.6633 42.4735 95.644 42.5085 95.6145 42.5335V42.5353ZM92.8967 44.013C92.5346 44.1631 92.1619 44.3003 91.7884 44.4211C91.5957 44.4832 91.4982 44.1879 91.6895 44.1258C92.0546 44.0076 92.4196 43.8732 92.7755 43.7243C92.9621 43.6484 93.0829 43.9356 92.8967 44.0127V44.013ZM90.045 44.7117C90.0492 44.7314 90.0494 44.7518 90.0456 44.7716C90.0419 44.7914 90.0342 44.8103 90.023 44.8271C90.0119 44.8438 89.9975 44.8582 89.9807 44.8694C89.9639 44.8806 89.9451 44.8883 89.9253 44.8921C89.5387 44.9651 89.1441 45.0198 88.7524 45.0603C88.5509 45.0811 88.5136 44.7727 88.7159 44.7519C89.0995 44.7125 89.4865 44.657 89.865 44.5872C89.9053 44.5805 89.9466 44.5897 89.9802 44.6128C90.0138 44.636 90.037 44.6713 90.045 44.7114V44.7117ZM86.9786 44.9833C86.9787 45.0034 86.9748 45.0234 86.9671 45.042C86.9593 45.0605 86.9479 45.0774 86.9336 45.0914C86.9192 45.1055 86.9021 45.1166 86.8834 45.124C86.8647 45.1314 86.8447 45.1349 86.8246 45.1344C86.43 45.1242 86.0306 45.0979 85.6378 45.0574C85.436 45.0359 85.4611 44.7289 85.6634 44.7493C86.0481 44.7895 86.4395 44.8147 86.826 44.8245C86.8673 44.8256 86.9066 44.8427 86.9353 44.8723C86.9641 44.902 86.9802 44.9417 86.9801 44.983L86.9786 44.9833ZM83.8915 44.5051C83.9124 44.5393 83.9195 44.5802 83.9112 44.6194C83.9072 44.6392 83.8992 44.6579 83.8878 44.6746C83.8763 44.6912 83.8616 44.7054 83.8446 44.7162C83.8275 44.727 83.8085 44.7342 83.7886 44.7375C83.7686 44.7407 83.7482 44.7399 83.7286 44.7351C83.3424 44.6446 82.9551 44.5376 82.5777 44.4175C82.5385 44.4049 82.5057 44.3775 82.4863 44.3412C82.4669 44.3049 82.4624 44.2625 82.4736 44.2229C82.4792 44.2036 82.4887 44.1856 82.5014 44.1701C82.5141 44.1545 82.5298 44.1416 82.5476 44.1322C82.5653 44.1228 82.5848 44.1171 82.6048 44.1153C82.6249 44.1136 82.6451 44.1159 82.6642 44.1222C83.0343 44.2401 83.414 44.3445 83.7925 44.4336C83.8132 44.4381 83.8327 44.4467 83.85 44.4589C83.8672 44.4712 83.8818 44.4867 83.8929 44.5047L83.8915 44.5051ZM80.9583 43.4928C80.9718 43.5145 80.9798 43.5391 80.9815 43.5646C80.9833 43.59 80.9789 43.6155 80.9686 43.6389C80.9605 43.6573 80.9489 43.6739 80.9343 43.6878C80.9197 43.7016 80.9024 43.7124 80.8836 43.7194C80.8648 43.7265 80.8447 43.7296 80.8246 43.7288C80.8046 43.7279 80.7848 43.723 80.7667 43.7144C80.4057 43.5472 80.0465 43.3636 79.6989 43.1669C79.663 43.1469 79.6362 43.1136 79.6245 43.0742C79.6127 43.0347 79.6169 42.9923 79.6361 42.9559C79.6457 42.9382 79.6586 42.9226 79.6743 42.91C79.69 42.8974 79.708 42.888 79.7273 42.8825C79.7467 42.877 79.7669 42.8754 79.7868 42.8779C79.8068 42.8803 79.8261 42.8867 79.8435 42.8967C80.1841 43.088 80.5371 43.268 80.8897 43.4315C80.9186 43.4444 80.943 43.4656 80.9598 43.4925L80.9583 43.4928ZM78.2731 42.0743C78.2613 42.0906 78.2464 42.1044 78.2292 42.1149C78.212 42.1253 78.1929 42.1322 78.173 42.1352C78.1531 42.1381 78.1328 42.1371 78.1133 42.1321C78.0938 42.1271 78.0755 42.1182 78.0595 42.106C77.7386 41.8688 77.4225 41.6151 77.1199 41.3526C76.9644 41.2172 77.1619 40.985 77.317 41.1193C77.6134 41.3749 77.923 41.6246 78.2373 41.8574C78.2705 41.8816 78.293 41.9177 78.2999 41.9581C78.3069 41.9986 78.2978 42.0401 78.2745 42.0739L78.2731 42.0743ZM72.4744 33.3257C72.7697 34.4595 72.942 34.5792 72.7226 34.6522C72.6836 34.6647 72.6412 34.6614 72.6046 34.643C72.568 34.6245 72.5401 34.5925 72.5269 34.5537C72.3966 34.1751 72.2791 33.7871 72.1779 33.399C72.1261 33.2001 72.4222 33.1263 72.4744 33.3257ZM75.9423 39.9921C75.9272 40.0055 75.9096 40.0159 75.8906 40.0225C75.8715 40.0291 75.8513 40.0319 75.8311 40.0307C75.811 40.0295 75.7912 40.0243 75.7731 40.0154C75.755 40.0065 75.7388 39.9941 75.7254 39.9789C75.4582 39.6811 75.1987 39.3689 74.9545 39.051C74.8285 38.8875 75.0695 38.7009 75.195 38.8641C75.4345 39.1755 75.6889 39.4817 75.9507 39.7734C75.9782 39.8037 75.9927 39.8436 75.9911 39.8845C75.9895 39.9255 75.9718 39.9641 75.9419 39.9921H75.9423ZM73.5556 36.2321C74.0718 37.2824 74.2656 37.3674 74.0667 37.485C73.94 37.558 73.8411 37.4171 73.856 37.428C73.652 37.082 73.4589 36.7242 73.2822 36.3654C73.2723 36.3472 73.2661 36.3273 73.2641 36.3067C73.2621 36.2862 73.2644 36.2654 73.2706 36.2457C73.2769 36.226 73.2871 36.2078 73.3006 36.1922C73.3142 36.1766 73.3307 36.1638 73.3493 36.1548C73.3679 36.1458 73.3881 36.1406 73.4088 36.1396C73.4294 36.1386 73.45 36.1419 73.4694 36.1491C73.4888 36.1563 73.5064 36.1674 73.5214 36.1817C73.5363 36.196 73.5482 36.2131 73.5563 36.2321H73.5556Z" fill="#91B3FA"/>
<path d="M72.0409 30.8247C72.0873 31.3449 72.1822 31.5832 71.9756 31.6062C71.9347 31.6105 71.8938 31.5985 71.8617 31.5729C71.8295 31.5473 71.8087 31.5101 71.8037 31.4693C71.7343 30.9335 71.6752 30.6951 71.8745 30.6808C71.934 30.6768 72.0333 30.7396 72.0409 30.8247Z" fill="#91B3FA"/>
<path d="M75.6208 19.4937C75.6379 19.5218 75.6457 19.5546 75.6431 19.5873C75.6405 19.6201 75.6276 19.6512 75.6062 19.6762C75.474 19.8277 75.3437 19.9836 75.2185 20.1398C75.2058 20.1555 75.1901 20.1684 75.1723 20.1779C75.1546 20.1874 75.1351 20.1932 75.115 20.1951C75.095 20.197 75.0748 20.1948 75.0555 20.1888C75.0363 20.1827 75.0185 20.1729 75.0031 20.1599C74.9713 20.1338 74.9509 20.0963 74.9463 20.0554C74.9417 20.0145 74.9533 19.9734 74.9787 19.9409C75.1064 19.7817 75.2397 19.6226 75.3744 19.4663C75.3877 19.4512 75.404 19.4389 75.4222 19.4301C75.4403 19.4214 75.4601 19.4163 75.4802 19.4152C75.5004 19.4142 75.5206 19.4172 75.5396 19.424C75.5585 19.4308 75.576 19.4414 75.5909 19.455C75.6027 19.4663 75.6128 19.4794 75.6208 19.4937Z" fill="#91B3FA"/>
<path d="M100.04 22.2949C100.254 22.6698 100.455 23.0582 100.638 23.4492C100.646 23.4675 100.652 23.4873 100.653 23.5075C100.654 23.5277 100.651 23.5479 100.644 23.567C100.637 23.5861 100.627 23.6036 100.613 23.6186C100.599 23.6336 100.583 23.6457 100.565 23.6544C100.349 23.7533 100.402 23.5448 99.7747 22.4457C99.7541 22.4104 99.7483 22.3684 99.7587 22.3288C99.769 22.2893 99.7946 22.2554 99.8298 22.2347C99.958 22.1621 100.055 22.3044 100.04 22.2949ZM98.8479 20.7512C98.6602 20.8954 98.661 20.6738 97.821 19.7393C97.7932 19.709 97.7785 19.6691 97.7801 19.628C97.7816 19.587 97.7994 19.5482 97.8294 19.5202C97.8444 19.5067 97.862 19.4963 97.881 19.4896C97.9001 19.4829 97.9203 19.4801 97.9405 19.4813C97.9607 19.4825 97.9804 19.4877 97.9986 19.4965C98.0167 19.5054 98.0329 19.5178 98.0462 19.533C98.3335 19.8528 98.6121 20.1901 98.8742 20.534C98.8994 20.5663 98.9108 20.6073 98.9058 20.648C98.9009 20.6887 98.8801 20.7258 98.8479 20.7512ZM101.4 25.4175C101.528 25.8286 101.64 26.2505 101.734 26.6714C101.738 26.691 101.739 26.7113 101.736 26.7312C101.732 26.751 101.725 26.77 101.714 26.787C101.704 26.804 101.69 26.8186 101.673 26.8301C101.656 26.8416 101.638 26.8497 101.618 26.854C101.385 26.9025 101.483 26.7105 101.107 25.5033C101.101 25.4841 101.098 25.4639 101.1 25.4438C101.102 25.4237 101.107 25.4041 101.117 25.3862C101.126 25.3683 101.139 25.3524 101.154 25.3395C101.17 25.3266 101.188 25.3169 101.207 25.3109C101.246 25.2996 101.289 25.3045 101.325 25.3245C101.361 25.3445 101.388 25.3779 101.4 25.4175ZM96.5682 18.1024C96.5851 18.1299 96.593 18.1619 96.5909 18.1941C96.5887 18.2263 96.5766 18.257 96.5561 18.282C96.5432 18.2975 96.5274 18.3102 96.5095 18.3195C96.4917 18.3287 96.4721 18.3343 96.4521 18.3359C96.432 18.3375 96.4118 18.3351 96.3927 18.3288C96.3736 18.3225 96.3559 18.3124 96.3408 18.2992C96.0184 18.0258 95.6815 17.7629 95.3394 17.5183C95.306 17.4946 95.2831 17.4587 95.2758 17.4183C95.2684 17.3779 95.2771 17.3363 95.3 17.3022C95.3114 17.2856 95.3261 17.2714 95.343 17.2606C95.36 17.2497 95.379 17.2423 95.3989 17.2389C95.4188 17.2355 95.4391 17.2361 95.4588 17.2407C95.4784 17.2453 95.4969 17.2538 95.5132 17.2657C95.8626 17.5154 96.2068 17.7837 96.5353 18.063C96.5483 18.0743 96.5594 18.0876 96.5682 18.1024ZM93.788 16.2213C93.8019 16.2439 93.8099 16.2697 93.8111 16.2962C93.8123 16.3227 93.8067 16.3491 93.7949 16.3728C93.7859 16.3908 93.7733 16.4068 93.758 16.4198C93.7427 16.4328 93.7249 16.4426 93.7057 16.4487C93.6865 16.4547 93.6663 16.4568 93.6462 16.4549C93.6262 16.4529 93.6068 16.447 93.5891 16.4374C93.2178 16.2414 92.8334 16.0589 92.4472 15.8946C92.4093 15.8785 92.3793 15.8482 92.3633 15.8103C92.3474 15.7723 92.3468 15.7296 92.3618 15.6913C92.3693 15.6726 92.3804 15.6557 92.3945 15.6414C92.4087 15.6271 92.4255 15.6158 92.4441 15.6082C92.4627 15.6005 92.4826 15.5966 92.5027 15.5968C92.5228 15.597 92.5427 15.6012 92.5611 15.6092C92.9554 15.7771 93.3478 15.9636 93.7267 16.1633C93.7521 16.1767 93.7733 16.1967 93.788 16.2213ZM90.6775 14.9937C90.6884 15.0114 90.6957 15.0311 90.6989 15.0517C90.7021 15.0723 90.7011 15.0932 90.6961 15.1134C90.6914 15.133 90.6828 15.1514 90.6708 15.1676C90.6588 15.1838 90.6437 15.1974 90.6264 15.2076C90.6091 15.2178 90.5899 15.2244 90.5699 15.2271C90.55 15.2297 90.5297 15.2283 90.5103 15.2229C90.1069 15.1134 89.6941 15.0185 89.283 14.9426C89.2427 14.9348 89.2069 14.9116 89.1833 14.878C89.1597 14.8443 89.15 14.8029 89.1563 14.7623C89.1594 14.7424 89.1665 14.7233 89.177 14.7063C89.1876 14.6892 89.2015 14.6744 89.218 14.6628C89.2344 14.6511 89.2529 14.643 89.2726 14.6387C89.2922 14.6344 89.3125 14.6341 89.3323 14.6378C89.7517 14.7152 90.1719 14.8115 90.5848 14.924C90.6235 14.9344 90.6567 14.9594 90.6775 14.9937ZM87.3921 14.4746C87.4079 14.5005 87.4158 14.5304 87.4151 14.5608C87.4147 14.5809 87.4103 14.6007 87.4022 14.6191C87.394 14.6375 87.3822 14.6541 87.3676 14.6679C87.3529 14.6816 87.3356 14.6923 87.3168 14.6993C87.2979 14.7063 87.2779 14.7095 87.2578 14.7086C86.842 14.6893 86.4203 14.6874 86.0049 14.7035C85.9639 14.7046 85.924 14.6897 85.8938 14.6618C85.8636 14.634 85.8455 14.5955 85.8432 14.5546C85.8418 14.5345 85.8445 14.5144 85.851 14.4954C85.8575 14.4764 85.8678 14.4588 85.8812 14.4439C85.8946 14.4289 85.9109 14.4168 85.9291 14.4082C85.9472 14.3996 85.967 14.3948 85.987 14.3939C86.4112 14.3775 86.8412 14.3793 87.2647 14.399C87.2905 14.4002 87.3156 14.4078 87.3378 14.4209C87.36 14.4341 87.3787 14.4525 87.3921 14.4746ZM84.1067 14.7422C84.1527 14.9795 83.9643 14.8721 82.7681 15.1948C82.5731 15.2474 82.4885 14.9481 82.6834 14.8955C83.0915 14.786 83.5098 14.6914 83.9245 14.6166C83.9653 14.6093 84.0074 14.6183 84.0415 14.6418C84.0756 14.6654 84.0991 14.7014 84.1067 14.7422ZM80.9326 15.6548C81.0294 15.8764 80.8231 15.8129 79.7324 16.3958C79.5553 16.4904 79.4068 16.2162 79.5864 16.1213C79.9591 15.9224 80.3446 15.7377 80.7319 15.5716C80.7698 15.5563 80.8122 15.5566 80.8499 15.5724C80.8876 15.5882 80.9176 15.6182 80.9334 15.6559L80.9326 15.6548ZM78.0587 17.2668C78.0791 17.2997 78.0863 17.3391 78.079 17.3771C78.0717 17.4151 78.0504 17.449 78.0192 17.472C77.6834 17.7166 77.3552 17.9772 77.0438 18.2466C77.0284 18.2597 77.0106 18.2696 76.9914 18.2757C76.9721 18.2819 76.9518 18.2841 76.9317 18.2824C76.9116 18.2807 76.892 18.275 76.8741 18.2656C76.8562 18.2563 76.8403 18.2435 76.8274 18.228C76.8004 18.197 76.7867 18.1566 76.7894 18.1155C76.7921 18.0745 76.8108 18.0362 76.8416 18.009C77.1592 17.7337 77.4943 17.468 77.8371 17.2186C77.8535 17.2069 77.8721 17.1986 77.8918 17.1941C77.9115 17.1895 77.9319 17.189 77.9518 17.1924C77.9717 17.1957 77.9908 17.203 78.0078 17.2138C78.0249 17.2246 78.0397 17.2386 78.0514 17.2551C78.054 17.2589 78.0565 17.2628 78.0587 17.2668Z" fill="#91B3FA"/>
<path d="M102.052 28.7623C102.098 29.3011 102.145 29.541 101.946 29.5457C101.738 29.5508 101.793 29.334 101.747 28.782C101.745 28.762 101.747 28.7418 101.753 28.7226C101.759 28.7034 101.769 28.6856 101.782 28.6702C101.795 28.6549 101.811 28.6423 101.829 28.6332C101.847 28.6242 101.866 28.6188 101.887 28.6174C101.928 28.6153 101.968 28.6292 101.999 28.6563C102.03 28.6833 102.049 28.7214 102.052 28.7623Z" fill="#91B3FA"/>
<path d="M98.3339 30.7581L96.425 29.613C96.3816 28.5575 96.1695 27.5157 95.7968 26.5273C97.0409 24.7962 97.2508 24.763 97.1183 24.563L95.6347 22.3267C95.614 22.295 95.5839 22.2705 95.5487 22.2566C95.5134 22.2428 95.4747 22.2402 95.438 22.2493L93.3156 22.787C92.5511 22.06 91.6746 21.4606 90.7198 21.0118L90.4055 18.8048C90.4001 18.7669 90.3832 18.7316 90.3571 18.7037C90.331 18.6757 90.2969 18.6565 90.2595 18.6486L87.6677 18.0955C87.631 18.0874 87.5927 18.0911 87.5583 18.1063C87.524 18.1215 87.4954 18.1472 87.4767 18.1798L86.3816 20.0861C85.3432 20.1073 84.3155 20.3007 83.3404 20.6585L81.5791 19.2921C81.5495 19.2688 81.5134 19.2554 81.4758 19.2538C81.4382 19.2522 81.401 19.2624 81.3696 19.283L79.1862 20.737C79.1549 20.758 79.1311 20.7884 79.118 20.8238C79.1049 20.8591 79.1032 20.8977 79.1132 20.9341L79.6889 23.0904C78.9818 23.853 78.4059 24.7274 77.9845 25.6782C75.8636 25.9899 75.699 25.8629 75.6552 26.0947C75.2146 28.6624 75.039 28.773 75.2478 28.8982L77.1577 30.0434C77.2008 31.0989 77.4129 32.1407 77.7859 33.1291C76.5426 34.859 76.332 34.8934 76.4645 35.0934C77.9765 37.2899 77.9162 37.4662 78.1437 37.4074L80.266 36.8693C81.0307 37.5963 81.9071 38.1958 82.8619 38.6449C83.2094 40.7687 83.0878 40.9582 83.3214 41.0078C85.8965 41.5101 85.9863 41.6824 86.1045 41.4765L87.1997 39.5703C88.2381 39.549 89.2658 39.3556 90.2408 38.9979C91.9489 40.2679 92.0124 40.5063 92.2121 40.3734C94.3458 38.8964 94.5301 38.9556 94.4681 38.7223L93.8927 36.566C94.5997 35.8033 95.1756 34.9289 95.5971 33.9782C97.7107 33.6675 97.8823 33.7957 97.9265 33.5617C98.3671 30.9925 98.5427 30.883 98.3339 30.7581Z" fill="#FA8825"/>
<path d="M88.7143 31.5953C87.7714 32.6474 86.1415 32.7105 85.0811 31.7362C84.0206 30.7619 83.925 29.113 84.8679 28.061C85.8108 27.0089 87.4403 26.9454 88.5012 27.9197C89.5616 28.8944 89.6569 30.5433 88.7143 31.5953ZM85.3866 31.3938C86.2474 32.1845 87.5845 32.1549 88.3705 31.2777C89.1451 30.4137 89.0666 29.0594 88.1953 28.2596C87.3239 27.4597 85.986 27.5112 85.2114 28.3753C84.4368 29.2393 84.5171 30.5966 85.3866 31.3938Z" fill="#FFC089"/>
<path d="M92.3425 26.418C92.5429 26.7474 92.7153 27.0931 92.8579 27.4514C92.8783 27.5018 92.8804 27.5577 92.8636 27.6094C92.8468 27.6611 92.8124 27.7052 92.7663 27.734C92.7546 27.7407 92.7424 27.7466 92.7298 27.7515C92.6722 27.7729 92.6086 27.7709 92.5525 27.7457C92.4965 27.7206 92.4527 27.6744 92.4304 27.6172C92.2659 27.2045 92.0592 26.8099 91.8139 26.4395C89.9591 23.6433 86.2754 22.7975 83.4975 24.4858C83.4266 24.5289 83.3563 24.5736 83.2865 24.6198C80.4698 26.4958 79.7605 30.3386 81.6587 33.2023C83.557 36.0661 87.3757 36.8918 90.1861 35.0221C91.858 33.9083 92.2118 32.5599 92.3914 32.4511C92.5852 32.3332 92.817 32.546 92.7199 32.7526C92.1828 33.9144 91.3121 34.8901 90.2186 35.5554C85.353 38.5123 79.1823 34.0992 80.2559 28.4371C80.5866 26.6947 81.57 25.2006 83.0302 24.2296C83.1058 24.1792 83.1821 24.131 83.2591 24.0835C84.67 23.2261 86.3342 22.9464 87.9758 23.2965C89.7068 23.6659 91.2057 24.6921 92.1964 26.1851C92.2457 26.2625 92.295 26.3399 92.3425 26.418Z" fill="#FFC089"/>
<path d="M70.8599 23.6619C70.7946 23.0765 70.6343 22.5057 70.3854 21.9718L71.0589 20.9274C71.1337 20.8117 71.0063 20.7898 70.1321 19.6359C70.0496 19.5311 69.9952 19.6359 68.8442 20.0097C68.3844 19.6421 67.868 19.3518 67.315 19.15L67.0525 17.9348C67.0233 17.7997 66.9182 17.8745 65.4829 17.6771C65.4618 17.6744 65.4404 17.6785 65.4217 17.6886C65.4031 17.6988 65.3881 17.7145 65.3788 17.7336L64.836 18.8529C64.2507 18.9174 63.6798 19.0771 63.1459 19.3256C62.1343 18.7028 62.0898 18.574 61.9832 18.6576C60.8377 19.5906 60.7325 19.5662 60.7785 19.6928L61.1856 20.8672C60.8179 21.327 60.5276 21.8438 60.3263 22.3971L59.1107 22.6595C58.9756 22.6887 59.0508 22.7942 58.8529 24.2292C58.8369 24.361 58.9457 24.323 60.0287 24.8761C60.0933 25.4614 60.253 26.0323 60.5015 26.5662L59.828 27.6106C59.7531 27.7267 59.8809 27.7482 60.7552 28.9021C60.837 29.0065 60.8862 28.9021 62.0431 28.5283C62.503 28.8955 63.0197 29.1853 63.573 29.3862L63.8351 30.6018C63.8397 30.6226 63.8506 30.6414 63.8663 30.6557C63.8821 30.6701 63.9019 30.6791 63.923 30.6817L65.404 30.8595C65.4251 30.862 65.4465 30.8578 65.4651 30.8476C65.4837 30.8374 65.4987 30.8217 65.508 30.8026L66.0505 29.6837C66.6359 29.6184 67.2068 29.4581 67.7407 29.2091C68.7522 29.8319 68.7971 29.9611 68.9037 29.8772C70.0488 28.9449 70.154 28.969 70.1083 28.8419L69.7028 27.6705C70.0712 27.2106 70.3621 26.6936 70.5639 26.1399C71.7196 25.865 71.8416 25.9249 71.8594 25.7898L72.0372 24.3088C72.0514 24.1763 71.9372 24.2124 70.8599 23.6619Z" fill="#FA8825"/>
<path d="M66.6751 25.2199C66.487 25.4636 66.2307 25.646 65.9389 25.744C65.6471 25.842 65.3327 25.8513 65.0356 25.7707C64.7385 25.6901 64.472 25.5231 64.2697 25.291C64.0675 25.0589 63.9386 24.7721 63.8994 24.4667C63.8602 24.1614 63.9124 23.8512 64.0494 23.5756C64.1865 23.2999 64.4022 23.071 64.6693 22.918C64.9364 22.7649 65.2429 22.6945 65.55 22.7156C65.8572 22.7367 66.1512 22.8484 66.3948 23.0366C66.7212 23.2892 66.934 23.661 66.9865 24.0703C67.0391 24.4796 66.9271 24.8931 66.6751 25.2199ZM66.3083 24.9359C66.4849 24.7063 66.5633 24.416 66.5264 24.1286C66.4894 23.8413 66.3401 23.5803 66.1111 23.4028C65.3446 22.8114 64.2359 23.4436 64.3589 24.4066C64.482 25.3696 65.7129 25.7069 66.3083 24.9363V24.9359Z" fill="#FFC089"/>
<path d="M73.2212 26.7027C73.1588 26.902 73.088 27.102 73.0099 27.2966C73.0023 27.3155 72.9911 27.3326 72.9769 27.3472C72.9627 27.3617 72.9458 27.3733 72.9271 27.3812C72.9084 27.3892 72.8883 27.3934 72.868 27.3936C72.8477 27.3938 72.8276 27.39 72.8087 27.3824C72.6094 27.3028 72.7653 27.1247 72.9263 26.6103C72.9385 26.5712 72.9658 26.5386 73.0021 26.5196C73.0201 26.5102 73.0398 26.5044 73.06 26.5026C73.0802 26.5008 73.1006 26.5029 73.1199 26.509C73.1393 26.5151 73.1573 26.5249 73.1729 26.5379C73.1884 26.5509 73.2013 26.5669 73.2107 26.5849C73.2201 26.6028 73.2259 26.6225 73.2277 26.6427C73.2295 26.6629 73.2273 26.6833 73.2212 26.7027Z" fill="#91B3FA"/>
<path d="M72.0062 29.1019C71.7538 29.4442 71.4754 29.7665 71.1735 30.066C71.0275 30.212 70.811 29.9897 70.9545 29.847C71.7576 29.0523 71.7638 28.7329 71.9719 28.8866C72.0049 28.9106 72.0271 28.9468 72.0336 28.9871C72.04 29.0275 72.0301 29.0688 72.0062 29.1019ZM69.5881 31.1097C69.6086 31.1452 69.6142 31.1874 69.6036 31.2271C69.593 31.2667 69.5671 31.3005 69.5316 31.321C69.1634 31.5339 68.7791 31.7179 68.3824 31.8711C68.1915 31.9442 68.0801 31.6561 68.2729 31.5824C68.6547 31.4351 69.0244 31.2581 69.3786 31.0531C69.5053 30.9797 69.6031 31.1217 69.5881 31.1111V31.1097ZM66.4904 32.1318C66.5024 32.1515 66.5097 32.1738 66.5119 32.1968C66.5165 32.2375 66.5048 32.2783 66.4794 32.3104C66.4539 32.3425 66.4168 32.3632 66.3761 32.368C65.9537 32.4167 65.5281 32.4324 65.1032 32.4151C65.0829 32.4142 65.063 32.4094 65.0446 32.4009C65.0262 32.3924 65.0096 32.3804 64.9958 32.3654C64.9681 32.3353 64.9534 32.2954 64.955 32.2544C64.9558 32.2342 64.9606 32.2142 64.9691 32.1958C64.9776 32.1774 64.9897 32.1608 65.0046 32.1471C65.0195 32.1333 65.037 32.1226 65.0561 32.1156C65.0751 32.1086 65.0953 32.1054 65.1156 32.1062C65.5244 32.1226 65.9339 32.1074 66.3403 32.0606C66.3696 32.0571 66.3992 32.0619 66.4258 32.0746C66.4523 32.0873 66.4747 32.1072 66.4904 32.1322V32.1318ZM63.2415 31.8398C63.2578 31.8666 63.2656 31.8977 63.2638 31.929C63.262 31.9603 63.2508 31.9904 63.2315 32.0152C63.2123 32.0399 63.186 32.0583 63.1561 32.0678C63.1262 32.0773 63.0941 32.0774 63.0641 32.0683C62.6573 31.9442 62.2608 31.7883 61.8784 31.6021C61.8416 31.5842 61.8134 31.5523 61.8 31.5135C61.7867 31.4748 61.7893 31.4323 61.8072 31.3955C61.8252 31.3587 61.8571 31.3305 61.8958 31.3171C61.9345 31.3038 61.977 31.3064 62.0139 31.3243C62.3817 31.5032 62.763 31.653 63.1542 31.7722C63.1912 31.7829 63.2229 31.8068 63.2433 31.8394L63.2415 31.8398ZM60.3682 30.4526C60.355 30.4681 60.3389 30.4809 60.3207 30.4902C60.3025 30.4996 60.2827 30.5052 60.2624 30.5068C60.242 30.5084 60.2215 30.506 60.2021 30.4997C60.1827 30.4934 60.1647 30.4834 60.1492 30.4701C59.8255 30.1943 59.5238 29.8937 59.2468 29.571C59.1132 29.4166 59.3479 29.214 59.4815 29.3695C59.748 29.68 60.0384 29.9692 60.35 30.2343C60.3815 30.2606 60.4012 30.2983 60.405 30.3391C60.4088 30.38 60.3962 30.4206 60.3701 30.4522L60.3682 30.4526Z" fill="#91B3FA"/>
<path d="M58.145 27.1452C58.3523 27.6735 58.5045 27.8158 58.3166 27.9071C58.2982 27.9161 58.2783 27.9213 58.2579 27.9225C58.2375 27.9237 58.2171 27.9208 58.1979 27.914C58.1786 27.9072 58.161 27.8966 58.1459 27.8829C58.1307 27.8692 58.1185 27.8526 58.1099 27.8341C58.019 27.6468 57.934 27.4526 57.857 27.2569C57.8432 27.219 57.8448 27.1772 57.8614 27.1404C57.878 27.1036 57.9083 27.0748 57.9458 27.06C57.9834 27.0453 58.0252 27.0458 58.0624 27.0614C58.0996 27.0771 58.1293 27.1066 58.145 27.1438V27.1452Z" fill="#91B3FA"/>
<path d="M58.4317 20.7513C58.1761 21.2602 58.1721 21.4671 57.979 21.3879C57.9602 21.3802 57.9431 21.3689 57.9286 21.3546C57.9142 21.3403 57.9027 21.3233 57.8949 21.3045C57.887 21.2858 57.8829 21.2657 57.8828 21.2453C57.8827 21.225 57.8866 21.2049 57.8943 21.186C57.9732 20.9933 58.0612 20.8002 58.1553 20.6126C58.1638 20.5934 58.1761 20.5762 58.1915 20.5619C58.2068 20.5477 58.2249 20.5367 58.2446 20.5296C58.2643 20.5225 58.2853 20.5195 58.3062 20.5208C58.3271 20.5221 58.3476 20.5276 58.3663 20.537C58.385 20.5464 58.4016 20.5595 58.4151 20.5755C58.4286 20.5915 58.4388 20.6101 58.4449 20.6301C58.451 20.6502 58.453 20.6712 58.4507 20.6921C58.4484 20.7129 58.442 20.733 58.4317 20.7513Z" fill="#91B3FA"/>
<path d="M71.8684 19.5039C71.6654 19.6609 71.6541 19.3502 70.843 18.5822C70.6944 18.442 70.9069 18.2171 71.0558 18.3577C71.3591 18.6454 71.6397 18.956 71.8954 19.2867C71.9079 19.3027 71.9172 19.321 71.9226 19.3406C71.928 19.3602 71.9295 19.3807 71.927 19.4009C71.9245 19.4211 71.9181 19.4406 71.908 19.4582C71.8979 19.4759 71.8845 19.4914 71.8684 19.5039ZM69.4785 17.3629C69.4685 17.3807 69.4552 17.3963 69.4393 17.4088C69.4233 17.4214 69.405 17.4307 69.3854 17.4362C69.3659 17.4417 69.3454 17.4433 69.3252 17.4409C69.305 17.4384 69.2855 17.432 69.2678 17.422C68.2851 16.8712 67.9938 16.9588 68.0836 16.7172C68.0907 16.6981 68.1014 16.6806 68.1152 16.6658C68.129 16.6509 68.1456 16.6389 68.164 16.6304C68.1825 16.622 68.2024 16.6173 68.2227 16.6165C68.243 16.6158 68.2632 16.6191 68.2822 16.6263C68.6743 16.7719 69.0545 16.9478 69.4193 17.1523C69.4551 17.1724 69.4814 17.2059 69.4925 17.2454C69.5036 17.2849 69.4985 17.3271 69.4785 17.3629ZM66.4413 16.332C66.4143 16.5876 66.1858 16.3817 65.0665 16.4357C64.8625 16.4456 64.8475 16.1367 65.0516 16.1269C65.4693 16.1071 65.8879 16.1193 66.3037 16.1634C66.3442 16.1676 66.3815 16.1877 66.4073 16.2193C66.433 16.2509 66.4453 16.2914 66.4413 16.332ZM63.2428 16.5788C63.3184 16.8256 63.026 16.7248 62.0181 17.2121C61.8355 17.3012 61.699 17.0231 61.8834 16.9336C62.2604 16.7514 62.6509 16.5984 63.0515 16.4762C63.0905 16.4648 63.1324 16.4692 63.1681 16.4884C63.2039 16.5076 63.2307 16.54 63.2428 16.5788ZM60.379 18.2784C59.5201 19.0063 59.4989 19.3111 59.3036 19.1418C59.2882 19.1284 59.2755 19.1122 59.2664 19.0939C59.2572 19.0757 59.2518 19.0558 59.2504 19.0354C59.249 19.0151 59.2516 18.9947 59.2581 18.9753C59.2646 18.956 59.2748 18.9381 59.2883 18.9227C59.5622 18.6068 59.86 18.3123 60.179 18.0419C60.1943 18.0277 60.2123 18.0167 60.232 18.0096C60.2517 18.0025 60.2726 17.9995 60.2935 18.0007C60.3144 18.002 60.3348 18.0074 60.3535 18.0168C60.3722 18.0261 60.3889 18.0392 60.4024 18.0551C60.4159 18.0711 60.4261 18.0896 60.4323 18.1096C60.4384 18.1296 60.4405 18.1506 60.4383 18.1714C60.4361 18.1922 60.4297 18.2124 60.4195 18.2306C60.4094 18.2489 60.3956 18.2649 60.379 18.2777V18.2784Z" fill="#91B3FA"/>
<path d="M72.9293 21.0462C73.0118 21.2386 73.0881 21.4364 73.1557 21.6343C73.1688 21.6732 73.166 21.7157 73.1479 21.7525C73.1297 21.7893 73.0978 21.8174 73.0589 21.8307C72.8552 21.8997 72.8582 21.6642 72.6453 21.1681C72.6292 21.1305 72.6286 21.0879 72.6438 21.0499C72.659 21.0118 72.6887 20.9813 72.7264 20.9652C72.764 20.949 72.8066 20.9485 72.8447 20.9637C72.8827 20.9789 72.9132 21.0085 72.9293 21.0462Z" fill="#91B3FA"/>
<path d="M68.8546 22.5834C68.8826 22.6382 68.8878 22.7018 68.8689 22.7604C68.85 22.8189 68.8086 22.8675 68.7539 22.8955C68.6991 22.9236 68.6355 22.9287 68.5769 22.9098C68.5184 22.8909 68.4698 22.8495 68.4417 22.7948C68.3365 22.5794 68.2088 22.3758 68.0606 22.1874C67.7877 21.8394 67.4487 21.5487 67.0633 21.332C66.6778 21.1152 66.2533 20.9767 65.8142 20.9243C62.8493 20.5684 60.9175 23.9973 62.7646 26.3478C63.2736 26.9941 64.0014 27.4321 64.8109 27.5792C65.6204 27.7263 66.4558 27.5724 67.1597 27.1465C68.6045 26.2682 68.3877 25.1588 68.8572 25.3384C68.8856 25.3493 68.9117 25.3656 68.9338 25.3865C68.9559 25.4075 68.9737 25.4325 68.9862 25.4603C68.9986 25.4881 69.0055 25.5181 69.0063 25.5485C69.0072 25.579 69.002 25.6093 68.9911 25.6378C68.6888 26.4283 68.1332 27.0965 67.4112 27.5382C66.6892 27.9799 65.8413 28.1702 64.9998 28.0793C64.1583 27.9885 63.3705 27.6217 62.7593 27.0361C62.1482 26.4506 61.748 25.6792 61.6213 24.8423C61.4946 24.0055 61.6485 23.1502 62.0589 22.41C62.4693 21.6697 63.1132 21.0861 63.8901 20.7503C64.667 20.4144 65.5332 20.3451 66.3536 20.5532C67.174 20.7614 67.9025 21.2352 68.4253 21.9008C68.592 22.1127 68.7358 22.3415 68.8546 22.5834Z" fill="#FFC089"/>
<path d="M1.29771 13.404C1.18564 12.9269 1.85695 12.6097 2.26763 12.943C6.4408 16.3269 16.4678 26.4605 13.9687 44.1695C10.8337 66.3883 16.1937 74.4959 22.8656 79.4411C22.8656 79.4411 13.703 77.1154 7.93785 68.8888C-6.21562 48.6902 3.29048 21.8869 1.29771 13.404Z" fill="#CEE58B"/>
<path opacity="0.5" d="M4.4741 20.3437C4.99611 22.8172 5.46154 25.2981 5.82111 27.7906C6.19564 30.2807 6.4822 32.7779 6.68079 35.2824C6.86586 37.7858 6.99691 40.2919 7.00421 42.7986C7.02466 45.3057 6.92062 47.8107 6.80563 50.3251C6.70743 52.8388 6.59135 55.3707 6.77533 57.9205C6.95931 60.4704 7.49191 63.0311 8.55492 65.4382C8.82067 66.038 9.09993 66.6356 9.41752 67.2134C9.72269 67.7975 10.0578 68.3677 10.4031 68.9339C11.1104 70.0765 11.9017 71.1649 12.7704 72.1901C14.5336 74.258 16.6603 76.0924 19.0032 77.6449C19.25 77.8085 19.6033 77.7683 19.7924 77.5555C19.9815 77.3427 19.9384 77.0484 19.7019 76.8827H19.7001C19.1426 76.4914 18.5911 76.0946 18.0617 75.6781C17.7934 75.4733 17.5357 75.259 17.274 75.0487C17.0214 74.8297 16.7589 74.6202 16.5147 74.3949C15.5291 73.5206 14.609 72.575 13.7619 71.5659C12.0801 69.5775 10.732 67.3616 9.71357 65.0644C9.22039 63.9198 8.82557 62.7352 8.53338 61.5235C8.24985 60.3168 8.05959 59.09 7.96428 57.8541C7.7635 55.3791 7.85477 52.8723 7.93179 50.3583C8.00881 47.8442 8.05992 45.3156 7.99348 42.7902C7.96428 41.5276 7.90879 40.2658 7.82702 39.0047C7.79052 38.3743 7.73978 37.7446 7.69013 37.1149C7.63391 36.4855 7.57307 35.8566 7.50761 35.228C7.23626 32.7131 6.87548 30.2089 6.42526 27.7154C5.96092 25.2258 5.41993 22.7475 4.76942 20.2911C4.7568 20.2549 4.73104 20.2247 4.69723 20.2066C4.66343 20.1885 4.62405 20.1837 4.5869 20.1933C4.56957 20.1957 4.55289 20.2014 4.53781 20.2103C4.52274 20.2192 4.50958 20.2309 4.49909 20.2449C4.48859 20.2589 4.48098 20.2749 4.47669 20.2918C4.4724 20.3088 4.47152 20.3264 4.4741 20.3437Z" fill="white"/>
<path d="M11.3544 67.7624C10.8434 68.3052 9.94279 68.1494 9.63506 67.4704C7.93687 63.721 4.09333 52.6861 10.4407 39.9717C15.801 29.2354 17.6872 22.9044 18.3443 19.9709C18.4833 19.3504 19.3335 19.2686 19.5898 19.8501C22.4189 26.2657 29.8935 48.0906 11.3544 67.7624Z" fill="#B2D550"/>
<g style="mix-blend-mode:soft-light">
<path d="M10.4209 67.367C10.4024 67.3704 10.3836 67.372 10.3647 67.3717C10.2876 67.3703 10.2141 67.3384 10.1604 67.283C10.1068 67.2276 10.0772 67.1532 10.0781 67.076C10.0807 66.8935 10.4359 48.668 17.2144 33.4037C17.2279 33.3658 17.2491 33.3312 17.2766 33.3019C17.3042 33.2726 17.3375 33.2494 17.3744 33.2335C17.4114 33.2177 17.4512 33.2097 17.4914 33.21C17.5316 33.2102 17.5713 33.2188 17.608 33.2351C17.6447 33.2515 17.6777 33.2752 17.7048 33.3048C17.7319 33.3345 17.7527 33.3694 17.7657 33.4074C17.7787 33.4455 17.7837 33.4858 17.7804 33.5258C17.7772 33.5659 17.7656 33.6048 17.7466 33.6402C11.0174 48.7936 10.6648 66.9037 10.6604 67.0848C10.6592 67.1522 10.6347 67.2172 10.5911 67.2687C10.5474 67.3201 10.4873 67.3548 10.4209 67.367Z" fill="white"/>
</g>
<path d="M8.82815 87.2822C8.8296 87.7111 9.00073 88.1219 9.30415 88.425C9.60757 88.7281 10.0186 88.8988 10.4475 88.8997H98.0013C98.4303 88.8989 98.8416 88.7284 99.1451 88.4253C99.4487 88.1222 99.6199 87.7112 99.6214 87.2822L100.351 36.9672C100.351 36.0776 99.3034 34.3411 97.3826 34.4714L11.8164 32.2574C11.2636 32.2423 10.7135 32.3397 10.1995 32.5437C9.68554 32.7477 9.2184 33.0541 8.82648 33.4442C8.43456 33.8344 8.12605 34.3001 7.9197 34.8132C7.71334 35.3262 7.61344 35.8759 7.62606 36.4287L8.82815 87.2822Z" fill="url(#paint0_linear_24_10309)"/>
<path d="M10.4274 85.7285C10.4283 86.1349 10.5901 86.5244 10.8775 86.8117C11.1648 87.0991 11.5543 87.2609 11.9606 87.2617H95.8907C96.2971 87.261 96.6866 87.0992 96.9739 86.8118C97.2613 86.5245 97.4231 86.1349 97.4239 85.7285L98.1116 40.0521C98.0306 37.3037 95.6205 36.3155 94.16 36.3739L12.1497 34.1738C11.7613 34.1637 11.3748 34.2326 11.0138 34.3764C10.6528 34.5201 10.3248 34.7358 10.0496 35.0102C9.7745 35.2846 9.55802 35.612 9.41331 35.9727C9.2686 36.3333 9.19869 36.7196 9.20782 37.108L10.4274 85.7285Z" fill="url(#paint1_linear_24_10309)"/>
<path d="M96.6489 54.9521H96.6456C96.6161 54.9516 96.587 54.9454 96.5599 54.9337C96.5329 54.9221 96.5084 54.9052 96.4878 54.884C96.4673 54.8629 96.4511 54.8379 96.4402 54.8105C96.4293 54.7831 96.424 54.7538 96.4244 54.7243L96.6328 40.5369C96.6288 39.694 96.3729 39.0212 95.8725 38.5416C94.9376 37.6461 93.454 37.6917 93.3902 37.6946L67.18 36.9916C67.1505 36.9909 67.1215 36.9844 67.0945 36.9725C67.0675 36.9606 67.0431 36.9434 67.0228 36.9221C67.0024 36.9007 66.9865 36.8755 66.9759 36.848C66.9653 36.8205 66.9602 36.7911 66.961 36.7616C66.9603 36.7317 66.9659 36.7019 66.9774 36.6743C66.9889 36.6466 67.006 36.6217 67.0277 36.6011C67.0494 36.5805 67.0752 36.5646 67.1033 36.5545C67.1315 36.5444 67.1615 36.5404 67.1914 36.5426L93.3876 37.2453C93.5504 37.2358 95.1303 37.2088 96.1824 38.2163C96.7745 38.7836 97.0767 39.5648 97.0811 40.5383L96.8727 54.7301C96.8721 54.7891 96.8483 54.8455 96.8064 54.8871C96.7645 54.9286 96.7079 54.952 96.6489 54.9521Z" fill="#91B3FA"/>
<path d="M1.92896 93.0747L104.739 93.0747C104.853 93.0747 104.945 92.9824 104.945 92.8685V88.8603C104.945 88.7464 104.853 88.654 104.739 88.654L1.92896 88.654C1.81505 88.654 1.72272 88.7464 1.72272 88.8603V92.8685C1.72272 92.9824 1.81505 93.0747 1.92896 93.0747Z" fill="url(#paint2_linear_24_10309)"/>
<path d="M67.2305 82.2888L86.5048 45.3651H82.555C81.8267 45.3651 81.4263 44.5182 81.8884 43.9553L102.43 18.9191C103.32 17.8342 105.079 18.5223 104.997 19.9234L103.553 44.4057C103.533 44.7378 103.446 45.0624 103.297 45.3597C103.148 45.657 102.939 45.9207 102.685 46.1347C102.43 46.3488 102.135 46.5086 101.816 46.6045C101.498 46.7004 101.163 46.7303 100.832 46.6924L98.0792 46.3773L78.9557 87.793C78.7118 88.3209 78.3219 88.768 77.832 89.0814C77.3421 89.3947 76.7727 89.5612 76.1912 89.5612H69.5635L67.2305 82.2888Z" fill="url(#paint3_linear_24_10309)"/>
<g opacity="0.49">
<path d="M85.53 42.7539C85.4945 42.754 85.4596 42.7441 85.4295 42.7254C85.3993 42.7067 85.375 42.6799 85.3593 42.6481C85.3436 42.6162 85.3372 42.5806 85.3408 42.5453C85.3444 42.51 85.3578 42.4764 85.3796 42.4483L102.342 20.4081C102.437 20.2851 102.569 20.1964 102.719 20.1557C102.869 20.115 103.028 20.1245 103.171 20.1827C103.315 20.2409 103.436 20.3446 103.516 20.478C103.595 20.6114 103.628 20.7671 103.611 20.9213L103.312 23.5632C103.306 23.6132 103.281 23.659 103.241 23.6904C103.202 23.7218 103.152 23.7362 103.102 23.7305C103.051 23.7249 103.006 23.6996 102.974 23.6602C102.943 23.6208 102.928 23.5705 102.934 23.5205L103.233 20.8786C103.242 20.8069 103.226 20.7345 103.189 20.6724C103.152 20.6104 103.096 20.5622 103.029 20.5351C102.962 20.5081 102.888 20.5037 102.818 20.5226C102.748 20.5415 102.687 20.5827 102.643 20.6399L85.6807 42.6801C85.6629 42.7032 85.6401 42.7218 85.6139 42.7346C85.5878 42.7473 85.5591 42.754 85.53 42.7539Z" fill="white"/>
</g>
<path d="M100.215 57.4263C95.1681 59.6643 81.7608 67.4076 75.9727 88.2805C75.9727 88.2805 83.7809 88.4111 89.6395 75.8887C94.6494 65.1794 97.5307 60.8529 100.599 58.0056C100.889 57.7347 100.578 57.2656 100.215 57.4263Z" fill="#91B3FA"/>
<path opacity="0.51" d="M76.8977 87.0954L76.9244 87.0078C76.9419 86.9494 76.9689 86.8636 77.0054 86.7523C77.0784 86.5293 77.1879 86.2047 77.3369 85.7941C77.4858 85.3834 77.6764 84.8895 77.9009 84.324C78.1254 83.7586 78.3991 83.13 78.704 82.4463C79.0142 81.7655 79.361 81.0313 79.7425 80.2637C80.1346 79.5011 80.5456 78.694 81.0056 77.8788L81.352 77.2615L81.7152 76.641C81.9561 76.2237 82.2138 75.8094 82.4719 75.3907C82.73 74.972 83.002 74.5573 83.2706 74.1386C83.5481 73.725 83.8182 73.3048 84.1029 72.8938C84.3877 72.4828 84.6662 72.0681 84.9648 71.6691L85.4047 71.0675C85.5507 70.8678 85.704 70.6732 85.8522 70.4768L86.299 69.8928L86.7532 69.3237C87.0492 68.9429 87.3613 68.5819 87.6658 68.2249C87.9702 67.8679 88.2765 67.5229 88.5784 67.1867C88.8803 66.8505 89.1796 66.5267 89.4782 66.2175C89.6279 66.0631 89.7702 65.908 89.9199 65.7601L90.358 65.3275C90.5018 65.1854 90.6433 65.0461 90.7825 64.9096C90.922 64.773 91.0654 64.6456 91.2019 64.5175C91.4812 64.2667 91.7408 64.0185 92.0014 63.7973C92.262 63.5761 92.5081 63.3658 92.7399 63.1683C92.8541 63.0679 92.9698 62.9763 93.0826 62.8898L93.4068 62.6368L93.9774 62.1922L95.0966 61.3993C95.1153 61.3876 95.1377 61.3833 95.1595 61.3871C95.1813 61.3909 95.2008 61.4027 95.2144 61.4201C95.228 61.4375 95.2347 61.4594 95.2332 61.4814C95.2316 61.5034 95.222 61.5241 95.2061 61.5395L95.2028 61.5424L94.1734 62.4338L93.6463 62.9197L93.3473 63.195L93.1892 63.341L93.0308 63.4965L92.3445 64.166C92.1029 64.4011 91.8634 64.6639 91.6053 64.9289C91.4776 65.0625 91.3432 65.195 91.2129 65.3367C91.0826 65.4783 90.9508 65.6236 90.8165 65.7711L90.4065 66.2197C90.2693 66.373 90.1349 66.5333 89.9958 66.6943C89.7206 67.0162 89.4297 67.3397 89.15 67.6861C88.8704 68.0325 88.574 68.3764 88.2922 68.7447L87.8603 69.2923C87.7143 69.4748 87.5756 69.6675 87.4303 69.8559L86.9959 70.4265L86.5692 71.0105C86.4272 71.2073 86.2819 71.4026 86.1413 71.6026C86.0008 71.8027 85.8617 72.0042 85.7215 72.2061C85.439 72.6076 85.1659 73.0183 84.8878 73.4253C84.6096 73.8323 84.3464 74.2496 84.0759 74.6599C83.8138 75.0753 83.551 75.4882 83.2969 75.901C82.791 76.73 82.2945 77.547 81.8305 78.3468C81.3666 79.1466 80.9158 79.9209 80.5044 80.6637C80.0929 81.4066 79.6987 82.1068 79.3541 82.7638C78.9967 83.4144 78.6835 84.0181 78.4017 84.5526C78.1199 85.087 77.8819 85.5557 77.6811 85.9397L77.0638 87.1564C77.0535 87.1761 77.0362 87.1912 77.0153 87.1989C76.9944 87.2066 76.9714 87.2062 76.9508 87.1979C76.9301 87.1896 76.9133 87.1739 76.9036 87.1539C76.8938 87.1339 76.8919 87.111 76.8981 87.0896L76.8977 87.0954Z" fill="white"/>
<path d="M76.1211 88.7315C76.1211 88.7315 78.35 79.9927 90.5403 78.8176C98.6757 78.0331 101.261 76.0433 102.021 75.1672C102.04 75.145 102.066 75.1296 102.094 75.1233C102.123 75.117 102.153 75.1201 102.179 75.1323C102.206 75.1444 102.227 75.1649 102.241 75.1905C102.255 75.2162 102.26 75.2457 102.256 75.2745C102.003 76.9245 100.63 82.0223 93.2427 85C84.3397 88.5902 79.8792 85.768 76.1211 88.7315Z" fill="#BDD0FB"/>
<path opacity="0.51" d="M76.751 87.0284C76.751 87.0284 76.8178 86.9554 76.9496 86.8236C77.0814 86.6918 77.2781 86.502 77.5362 86.2735C77.7943 86.045 78.1177 85.773 78.4992 85.4762C78.8807 85.1795 79.3249 84.8626 79.821 84.5319C80.3171 84.2011 80.8742 83.8711 81.4787 83.5481C82.1146 83.2091 82.7682 82.9044 83.4368 82.6355C84.1555 82.3475 84.8927 82.1081 85.6435 81.9189C86.422 81.7222 87.2142 81.5839 88.0133 81.5049C88.2152 81.4903 88.4149 81.4662 88.6182 81.4593L89.2234 81.4374L89.8276 81.4462C90.028 81.4513 90.2291 81.4703 90.427 81.4827L91.5623 81.5557C91.9459 81.5922 92.2949 81.5699 92.6512 81.5776H92.9155H93.0473L93.1783 81.5688L93.6982 81.5323L93.9537 81.5144L94.0807 81.5057C94.1227 81.5013 94.1639 81.4936 94.2056 81.4878L94.6962 81.4148C95.3028 81.326 95.8998 81.1807 96.4794 80.9807C96.5465 80.9598 96.6122 80.9348 96.6762 80.9059L96.8671 80.8285C96.9919 80.7752 97.1197 80.7325 97.2351 80.6741L97.5716 80.5014C97.626 80.4726 97.6811 80.4467 97.733 80.4171L97.8819 80.3237L98.1674 80.1455C98.2557 80.0835 98.3382 80.0199 98.4193 79.9604C98.5861 79.8465 98.716 79.7159 98.8445 79.6078C98.9628 79.4914 99.0712 79.3888 99.1574 79.2899C99.2435 79.1909 99.3158 79.1073 99.3665 79.0343C99.4173 78.9613 99.4596 78.9066 99.4848 78.8682C99.51 78.8299 99.5213 78.8109 99.5213 78.8109C99.5283 78.7949 99.5413 78.7824 99.5576 78.776C99.5738 78.7697 99.5919 78.77 99.6078 78.777C99.6238 78.7839 99.6364 78.797 99.6427 78.8132C99.6491 78.8294 99.6488 78.8475 99.6418 78.8635C99.6418 78.8635 99.6327 78.8898 99.6119 78.9339C99.5827 78.9999 99.5501 79.0644 99.5144 79.127C99.3806 79.3651 99.2246 79.59 99.0486 79.7987C98.9285 79.9265 98.8055 80.0816 98.647 80.2214C98.5689 80.2945 98.489 80.3715 98.4032 80.4485L98.121 80.6675L97.9717 80.7825C97.9199 80.819 97.8648 80.8522 97.81 80.888L97.4687 81.107C97.3515 81.1801 97.2223 81.2395 97.0945 81.3093C96.9668 81.379 96.8353 81.452 96.693 81.5071C96.0929 81.7669 95.4695 81.9692 94.8312 82.1113L94.3143 82.2179C94.2705 82.2266 94.2271 82.2365 94.1829 82.2442L94.0497 82.2609L93.781 82.2945L93.2335 82.3628L93.0947 82.3792L92.9538 82.3865L92.6698 82.4008C92.292 82.4168 91.8937 82.4475 91.5225 82.4259L90.9523 82.4106L90.3682 82.3905C89.6152 82.3512 88.8603 82.3745 88.1112 82.4603C87.3593 82.5443 86.614 82.6785 85.88 82.8618C85.165 83.0387 84.46 83.2535 83.7679 83.5054C82.5325 83.9591 81.3294 84.4965 80.1671 85.1138C79.6509 85.381 79.1924 85.6529 78.7799 85.8891C78.3674 86.1253 78.0214 86.3498 77.7319 86.5316C77.4424 86.7134 77.2208 86.8641 77.0686 86.9667L76.8368 87.1255C76.8296 87.1304 76.8216 87.1339 76.8131 87.1357C76.8046 87.1375 76.7958 87.1376 76.7872 87.136C76.7787 87.1344 76.7705 87.1312 76.7633 87.1264C76.756 87.1217 76.7497 87.1155 76.7448 87.1084C76.737 87.0962 76.7335 87.0818 76.7346 87.0674C76.7357 87.0529 76.7415 87.0393 76.751 87.0284Z" fill="white"/>
<path d="M51.2969 56.3926L64.9035 86.6182C65.2981 87.4947 65.9374 88.2386 66.7446 88.7604C67.5518 89.2822 68.4926 89.5598 69.4538 89.5597H76.4684C76.9254 89.5597 77.3741 89.4374 77.7679 89.2056C78.1616 88.9737 78.4862 88.6408 78.708 88.2412L78.9573 87.7915C78.5876 87.7911 78.2252 87.6886 77.9101 87.4954C77.5949 87.3021 77.3392 87.0256 77.1712 86.6963L59.0416 51.1758L51.2969 56.3926Z" fill="url(#paint4_linear_24_10309)"/>
<path d="M60.8735 54.7634C60.5508 54.5086 60.1789 54.3235 59.7811 54.2196C59.3833 54.1157 58.9683 54.0954 58.5623 54.1599C58.1563 54.2245 57.7681 54.3724 57.4221 54.5944C57.0761 54.8165 56.7799 55.1078 56.5521 55.45L36.5477 85.507C35.7587 86.693 34.6888 87.6657 33.4332 88.3384C32.1775 89.011 30.775 89.3629 29.3505 89.3625H26.5371L24.2461 82.7629C24.2461 82.7629 42.8443 54.2454 47.6392 49.9302C47.6392 49.9302 52.4128 45.6278 57.1197 48.8807C58.3634 49.74 59.3074 50.9665 59.8842 52.3639L60.8735 54.7634Z" fill="url(#paint5_linear_24_10309)"/>
<path d="M3.70846 63.8044C5.21535 62.5144 8.1065 60.5983 12.3235 60.1748C12.3235 60.1748 15.4055 61.225 21.5459 72.2274C27.6863 83.2298 31.762 88.2474 36.5445 85.507L36.1488 86.1641C35.5071 87.2291 34.6009 88.1101 33.5183 88.7217C32.4358 89.3333 31.2134 89.6547 29.97 89.6546H27.3257C25.8904 89.655 24.4757 89.3139 23.1982 88.6596C21.9208 88.0054 20.8173 87.0566 19.9788 85.8917C15.7443 80.0043 7.58266 68.964 3.73693 65.8092C3.58847 65.6887 3.46828 65.5371 3.38485 65.365C3.30141 65.193 3.25675 65.0047 3.25404 64.8135C3.25132 64.6223 3.29061 64.4328 3.36913 64.2585C3.44765 64.0841 3.56348 63.9291 3.70846 63.8044Z" fill="url(#paint6_linear_24_10309)"/>
<g opacity="0.49">
<path d="M102.678 27.6638H102.657C102.632 27.661 102.608 27.6534 102.586 27.6413C102.564 27.6292 102.545 27.6129 102.53 27.5934C102.514 27.5738 102.502 27.5514 102.496 27.5275C102.489 27.5035 102.487 27.4784 102.49 27.4536L102.625 26.2584C102.631 26.2084 102.656 26.1626 102.695 26.1312C102.715 26.1157 102.737 26.1041 102.761 26.0972C102.785 26.0903 102.81 26.0882 102.835 26.091C102.86 26.0939 102.884 26.1015 102.906 26.1136C102.927 26.1257 102.947 26.1419 102.962 26.1614C102.978 26.1809 102.989 26.2033 102.996 26.2273C103.003 26.2513 103.005 26.2763 103.002 26.3011L102.868 27.4952C102.863 27.5418 102.841 27.5848 102.806 27.6159C102.77 27.6471 102.725 27.6641 102.678 27.6638Z" fill="white"/>
</g>
<g opacity="0.49">
<path d="M47.0492 65.8594C47.0148 65.8594 46.981 65.85 46.9514 65.8323C46.9219 65.8145 46.8977 65.7891 46.8816 65.7586C46.8654 65.7282 46.8578 65.694 46.8596 65.6596C46.8615 65.6251 46.8726 65.5919 46.8919 65.5633L55.6642 52.5597C55.8169 52.3337 56.0266 52.152 56.2721 52.0332C56.5177 51.9144 56.7903 51.8627 57.0623 51.8833C57.3343 51.904 57.596 51.9963 57.8208 52.1508C58.0456 52.3053 58.2255 52.5165 58.3422 52.7631C58.3529 52.7856 58.359 52.8101 58.3602 52.835C58.3614 52.8599 58.3577 52.8848 58.3493 52.9083C58.3409 52.9318 58.328 52.9534 58.3112 52.9719C58.2945 52.9904 58.2742 53.0054 58.2517 53.0161C58.2291 53.0267 58.2047 53.0328 58.1798 53.0341C58.1548 53.0353 58.1299 53.0316 58.1064 53.0232C58.0829 53.0148 58.0613 53.0018 58.0429 52.9851C58.0244 52.9683 58.0094 52.9481 57.9987 52.9255C57.9107 52.7395 57.7751 52.5802 57.6056 52.4636C57.4361 52.347 57.2387 52.2774 57.0336 52.2618C56.8284 52.2463 56.6228 52.2853 56.4376 52.3749C56.2524 52.4646 56.0943 52.6016 55.9793 52.7722L47.2066 65.7758C47.1892 65.8015 47.1658 65.8226 47.1383 65.8372C47.1109 65.8518 47.0803 65.8594 47.0492 65.8594Z" fill="white"/>
</g>
<g opacity="0.49">
<path d="M44.7715 69.2389C44.7371 69.2388 44.7033 69.2294 44.6738 69.2116C44.6444 69.1938 44.6203 69.1684 44.6041 69.138C44.588 69.1076 44.5805 69.0733 44.5823 69.039C44.5841 69.0046 44.5953 68.9713 44.6145 68.9428L45.1771 68.1091C45.1906 68.0876 45.2084 68.069 45.2292 68.0545C45.2501 68.04 45.2736 68.0298 45.2985 68.0246C45.3234 68.0193 45.3491 68.0192 45.374 68.024C45.3989 68.0289 45.4226 68.0387 45.4437 68.0529C45.4648 68.0671 45.4828 68.0854 45.4967 68.1067C45.5105 68.128 45.52 68.1519 45.5245 68.1769C45.529 68.2019 45.5284 68.2275 45.5227 68.2523C45.5171 68.2771 45.5066 68.3005 45.4917 68.3211L44.9292 69.1549C44.9118 69.1808 44.8884 69.202 44.8609 69.2166C44.8333 69.2312 44.8027 69.2389 44.7715 69.2389Z" fill="white"/>
</g>
<path d="M62.5427 45.3677C62.5427 45.3677 61.3954 45.9258 61.1844 46.5668C61.015 47.0812 59.7465 47.1476 59.6213 48.1592C59.5563 48.6815 59.1697 49.0999 58.6496 49.1813C57.354 49.3799 55.3569 50.053 55.0375 52.3028C54.7936 54.0185 55.669 54.6708 56.5878 54.8946C57.2624 55.0599 57.711 55.7163 57.5734 56.3975C57.4424 57.0509 57.6377 57.8062 58.7697 58.4052C61.3063 59.7434 63.8397 55.2341 63.8397 55.2341L64.3588 47.3601L62.5427 45.3677Z" fill="url(#paint7_linear_24_10309)"/>
<path d="M76.3456 43.501C76.3456 43.501 71.2807 51.5122 65.2578 53.0596C65.2578 53.0596 66.4314 56.402 67.3386 56.7831C67.3386 56.7831 74.7489 50.6007 76.6523 44.6381L76.3456 43.501Z" fill="url(#paint8_linear_24_10309)"/>
<path d="M52.1142 94.7404L51.9499 96.0911C51.9352 96.2155 51.8789 96.3313 51.7902 96.4198C51.7015 96.5083 51.5856 96.5643 51.4611 96.5788C51.0286 96.6281 50.3342 96.6788 49.6549 96.6069C49.5846 96.599 49.5169 96.5756 49.4568 96.5384C49.3966 96.5012 49.3455 96.4511 49.3071 96.3917C49.2686 96.3324 49.2439 96.2652 49.2346 96.1951C49.2253 96.125 49.2317 96.0536 49.2534 95.9863C49.4191 95.4654 49.7221 94.6835 50.1587 94.2231H51.6553C51.7207 94.223 51.7854 94.2368 51.845 94.2636C51.9047 94.2903 51.958 94.3295 52.0014 94.3784C52.0447 94.4273 52.0772 94.4848 52.0967 94.5473C52.1161 94.6097 52.1221 94.6755 52.1142 94.7404Z" fill="url(#paint9_linear_24_10309)"/>
<path d="M63.8378 78.9326L64.0904 80.4187C64.0904 80.4187 63.2442 88.9892 63.0938 92.4177C63.0705 92.9549 63.209 93.4867 63.4914 93.9443L64.9625 96.3335L61.2234 94.1268L61.1503 93.6705L61.7625 92.8291L60.9594 83.2284C60.9123 82.6643 61.0288 82.0986 61.2949 81.5989L62.0681 80.146L63.8378 78.9326Z" fill="url(#paint10_linear_24_10309)"/>
<path d="M65.2097 96.6793H64.0164C63.9063 96.6796 63.7976 96.6545 63.6987 96.606C63.5999 96.5575 63.5135 96.4869 63.4462 96.3997C63.0742 95.9164 62.3033 94.9735 61.9349 94.9487C61.4388 94.9154 61.5024 96.6793 61.5024 96.6793H61.2242L60.8719 94.4891C60.8287 94.2202 60.8712 93.9446 60.9934 93.7012C61.1156 93.4579 61.3113 93.2592 61.5527 93.1333C61.5527 93.1333 61.6659 93.9729 62.2828 94.3427C62.8997 94.7125 64.7852 96.0423 64.7852 96.0423C64.9466 96.0236 65.1098 96.0279 65.27 96.0551C65.6449 96.1219 65.5923 96.6793 65.2097 96.6793Z" fill="url(#paint11_linear_24_10309)"/>
<path d="M58.7195 79.6383C58.7195 79.6383 53.7626 89.0407 52.9748 91.1879C52.187 93.3351 51.9111 95.1253 51.9001 95.2947C51.8837 95.5597 51.554 95.8141 50.6455 95.8141C50.1767 95.8141 49.9471 95.6261 49.8343 95.444C49.7878 95.3672 49.7617 95.2798 49.7582 95.1901C49.7548 95.1004 49.7742 95.0112 49.8146 94.9311C50.1012 94.3507 51.0112 92.4962 51.3478 91.6552C51.7493 90.651 52.6156 86.1003 53.0902 84.5179C53.5647 82.9354 54.1013 81.2193 56.1686 79.6383C56.1689 79.6383 57.5879 78.2482 58.7195 79.6383Z" fill="url(#paint12_linear_24_10309)"/>
<path d="M61.8474 64.2312C63.125 58.8132 59.8867 55.7487 59.8867 55.7487C61.931 53.7869 65.6544 52.894 65.6544 52.894C65.6544 52.894 69.2077 55.4921 68.7865 57.5253C68.5393 58.7172 66.2885 64.6641 66.2885 64.6641C66.2885 64.6641 64.2074 65.649 61.8474 64.2312Z" fill="#91B3FA"/>
<path d="M59.0121 66.9128C59.5323 65.3453 61.8471 64.2305 61.8471 64.2305C64.2071 65.6483 66.2882 64.6634 66.2882 64.6634C66.2882 64.6634 66.7551 66.4474 66.4342 68.105C66.1133 69.7627 64.0899 80.4194 64.0899 80.4194C60.9052 81.0648 56.0078 79.7704 56.0078 79.7704C58.036 76.1685 58.4916 68.4825 59.0121 66.9128Z" fill="url(#paint13_linear_24_10309)"/>
<path d="M63.3332 49.314L62.2936 53.9836C62.1939 54.3947 62.5688 54.3275 62.9846 54.249C63.6658 54.1209 64.5433 53.8562 64.8368 53.3266C64.8653 53.2717 64.8833 53.2121 64.8901 53.1506L65.3366 49.9127C65.3539 49.7876 65.33 49.6603 65.2686 49.55C65.2071 49.4397 65.1115 49.3524 64.996 49.3012L64.1345 48.919C64.0566 48.8845 63.9721 48.8675 63.8869 48.8693C63.8017 48.871 63.7179 48.8914 63.6415 48.9291C63.565 48.9668 63.4978 49.0208 63.4446 49.0873C63.3913 49.1538 63.3533 49.2312 63.3332 49.314Z" fill="url(#paint14_linear_24_10309)"/>
<path d="M59.8894 55.749C59.8894 55.749 52.6338 60.9403 58.9614 66.3948C58.9614 66.3948 59.2027 66.6678 59.6773 66.8098C59.9171 66.8828 60.6264 67.4176 60.9852 67.6973C61.0125 67.7184 61.0439 67.7336 61.0774 67.7418C61.1109 67.7501 61.1458 67.7512 61.1798 67.7451C61.2137 67.739 61.246 67.7258 61.2746 67.7065C61.3032 67.6871 61.3273 67.662 61.3455 67.6326C61.3754 67.5847 61.3928 67.5301 61.3961 67.4737C61.3994 67.4173 61.3886 67.361 61.3645 67.3099L60.4662 65.4117C60.3454 65.2992 60.1884 65.2334 60.0234 65.2263C59.8585 65.2191 59.6964 65.271 59.5663 65.3727C59.5263 65.4042 59.4798 65.4265 59.4301 65.4378C59.3804 65.449 59.3289 65.4491 59.2792 65.4378C59.2295 65.4266 59.1829 65.4044 59.1429 65.3728C59.1029 65.3413 59.0705 65.3012 59.048 65.2555C58.5588 64.2593 57.6352 61.3291 61.4156 58.0181C61.4843 57.9573 61.5306 57.8752 61.5471 57.7849C61.5636 57.6946 61.5493 57.6014 61.5065 57.5202C61.2408 57.0088 60.6348 55.9958 59.8894 55.749Z" fill="url(#paint15_linear_24_10309)"/>
<path d="M65.3248 45.0569C65.3248 45.0569 66.4317 45.8063 66.9073 47.714C67.383 49.6218 66.6098 50.3058 65.8177 50.2642C65.0255 50.2226 63.8767 49.9773 62.8816 48.6088C61.8865 47.2402 63.8745 44.1417 65.3248 45.0569Z" fill="url(#paint16_linear_24_10309)"/>
<path d="M63.8832 47.8397C63.8832 47.8397 63.478 45.1059 65.7474 45.5239L66.2067 46.0017C66.2067 46.0017 67.3175 44.7507 66.088 43.8049C64.8585 42.859 63.1523 43.1014 62.2087 44.823C61.2651 46.5445 60.9223 47.7546 61.7133 48.8246C62.5044 49.8945 63.1005 48.9768 63.1005 48.9768C63.1005 48.9768 62.7377 48.0511 63.0388 47.6535C63.34 47.256 63.7284 47.8846 63.7284 47.8846L63.8832 47.8397Z" fill="url(#paint17_linear_24_10309)"/>
<path d="M63.5738 48.0734C63.5738 48.0734 63.3734 46.6669 62.655 47.0688C61.9366 47.4707 62.9142 48.383 63.3059 48.6933L63.5738 48.0734Z" fill="url(#paint18_linear_24_10309)"/>
<path d="M76.3103 45.1502C76.3257 45.3156 75.7113 45.4298 75.5156 44.7253C75.5693 44.4194 75.6649 43.0801 75.8993 42.872C77.1485 41.7637 79.3756 40.5171 79.3756 40.5171C79.6249 40.8971 79.2982 41.1479 79.2982 41.1479L78.1863 41.898C78.3024 42.2821 78.4714 42.6219 78.4907 43.0603C78.5019 43.3944 78.3842 43.7199 78.1622 43.9697C77.9406 44.2223 77.6427 44.5486 77.3744 44.7965C76.8663 45.2656 76.3103 45.1502 76.3103 45.1502Z" fill="url(#paint19_linear_24_10309)"/>
<path d="M76.9153 44.604L76.7452 44.5343C76.7678 44.4792 77.3015 43.1836 77.5592 42.9131C77.6574 42.8109 77.7052 42.7233 77.7005 42.6525C77.6958 42.6087 77.6754 42.5682 77.6432 42.5382L76.7437 43.019L76.3465 43.6396L76.1914 43.5403L76.6145 42.8777L77.6684 42.3145L77.7158 42.3531C77.8224 42.4404 77.8775 42.5357 77.8838 42.6393C77.8918 42.7653 77.829 42.8949 77.6925 43.0383C77.4964 43.2435 77.0639 44.2379 76.9153 44.604Z" fill="url(#paint20_linear_24_10309)"/>
</g>
<defs>
<linearGradient id="paint0_linear_24_10309" x1="62.2216" y1="85.0303" x2="41.543" y2="22.9951" gradientUnits="userSpaceOnUse">
<stop stop-color="#09005D"/>
<stop offset="1" stop-color="#1A0F91"/>
</linearGradient>
<linearGradient id="paint1_linear_24_10309" x1="23.2646" y1="84.3757" x2="135.175" y2="-2.46851" gradientUnits="userSpaceOnUse">
<stop stop-color="#4F52FF"/>
<stop offset="1" stop-color="#4042E2"/>
</linearGradient>
<linearGradient id="paint2_linear_24_10309" x1="49.8953" y1="38.5939" x2="53.7151" y2="96.6576" gradientUnits="userSpaceOnUse">
<stop stop-color="#09005D"/>
<stop offset="1" stop-color="#1A0F91"/>
</linearGradient>
<linearGradient id="paint3_linear_24_10309" x1="109.491" y1="18.8104" x2="64.5945" y2="91.5186" gradientUnits="userSpaceOnUse">
<stop stop-color="#FF928E"/>
<stop offset="1" stop-color="#FE7062"/>
</linearGradient>
<linearGradient id="paint4_linear_24_10309" x1="71.2848" y1="85.9272" x2="52.6862" y2="48.9764" gradientUnits="userSpaceOnUse">
<stop stop-color="#FF928E"/>
<stop offset="1" stop-color="#FE7062"/>
</linearGradient>
<linearGradient id="paint5_linear_24_10309" x1="61.6674" y1="68.1232" x2="20.2146" y2="68.9179" gradientUnits="userSpaceOnUse">
<stop stop-color="#FF928E"/>
<stop offset="1" stop-color="#FE7062"/>
</linearGradient>
<linearGradient id="paint6_linear_24_10309" x1="33.6599" y1="91.7018" x2="-7.60022" y2="46.1473" gradientUnits="userSpaceOnUse">
<stop stop-color="#FF928E"/>
<stop offset="1" stop-color="#FE7062"/>
</linearGradient>
<linearGradient id="paint7_linear_24_10309" x1="64.5607" y1="40.7751" x2="61.1574" y2="49.3127" gradientUnits="userSpaceOnUse">
<stop stop-color="#09005D"/>
<stop offset="1" stop-color="#1A0F91"/>
</linearGradient>
<linearGradient id="paint8_linear_24_10309" x1="66.185" y1="55.6493" x2="78.6337" y2="40.213" gradientUnits="userSpaceOnUse">
<stop stop-color="#FEBBBA"/>
<stop offset="1" stop-color="#FF928E"/>
</linearGradient>
<linearGradient id="paint9_linear_24_10309" x1="52.411" y1="120.293" x2="51.1658" y2="102.45" gradientUnits="userSpaceOnUse">
<stop stop-color="#09005D"/>
<stop offset="1" stop-color="#1A0F91"/>
</linearGradient>
<linearGradient id="paint10_linear_24_10309" x1="64.3109" y1="106.813" x2="60.1578" y2="58.2737" gradientUnits="userSpaceOnUse">
<stop stop-color="#FEBBBA"/>
<stop offset="1" stop-color="#FF928E"/>
</linearGradient>
<linearGradient id="paint11_linear_24_10309" x1="64.8706" y1="119.424" x2="63.6258" y2="101.581" gradientUnits="userSpaceOnUse">
<stop stop-color="#09005D"/>
<stop offset="1" stop-color="#1A0F91"/>
</linearGradient>
<linearGradient id="paint12_linear_24_10309" x1="55.9601" y1="107.535" x2="51.8059" y2="58.9831" gradientUnits="userSpaceOnUse">
<stop stop-color="#FEBBBA"/>
<stop offset="1" stop-color="#FF928E"/>
</linearGradient>
<linearGradient id="paint13_linear_24_10309" x1="73.0013" y1="60.584" x2="26.3141" y2="113.247" gradientUnits="userSpaceOnUse">
<stop stop-color="#09005D"/>
<stop offset="1" stop-color="#1A0F91"/>
</linearGradient>
<linearGradient id="paint14_linear_24_10309" x1="63.8078" y1="67.8911" x2="63.8078" y2="47.9732" gradientUnits="userSpaceOnUse">
<stop stop-color="#FEBBBA"/>
<stop offset="1" stop-color="#FF928E"/>
</linearGradient>
<linearGradient id="paint15_linear_24_10309" x1="62.5239" y1="61.3083" x2="87.9178" y2="55.7067" gradientUnits="userSpaceOnUse">
<stop stop-color="#FEBBBA"/>
<stop offset="1" stop-color="#FF928E"/>
</linearGradient>
<linearGradient id="paint16_linear_24_10309" x1="65.3292" y1="50.1952" x2="63.5033" y2="42.56" gradientUnits="userSpaceOnUse">
<stop stop-color="#FEBBBA"/>
<stop offset="1" stop-color="#FF928E"/>
</linearGradient>
<linearGradient id="paint17_linear_24_10309" x1="66.7341" y1="40.8357" x2="61.7764" y2="48.5559" gradientUnits="userSpaceOnUse">
<stop stop-color="#09005D"/>
<stop offset="1" stop-color="#1A0F91"/>
</linearGradient>
<linearGradient id="paint18_linear_24_10309" x1="63.6592" y1="50.5944" x2="61.8337" y2="42.9591" gradientUnits="userSpaceOnUse">
<stop stop-color="#FEBBBA"/>
<stop offset="1" stop-color="#FF928E"/>
</linearGradient>
<linearGradient id="paint19_linear_24_10309" x1="66.7805" y1="56.1296" x2="79.2292" y2="40.6934" gradientUnits="userSpaceOnUse">
<stop stop-color="#FEBBBA"/>
<stop offset="1" stop-color="#FF928E"/>
</linearGradient>
<linearGradient id="paint20_linear_24_10309" x1="78.3353" y1="34.8982" x2="73.7708" y2="63.779" gradientUnits="userSpaceOnUse">
<stop stop-color="#FEBBBA"/>
<stop offset="1" stop-color="#FF928E"/>
</linearGradient>
<clipPath id="clip0_24_10309">
<rect width="105" height="102.212" fill="white"/>
</clipPath>
</defs>
</svg>
