<svg width="106" height="105" viewBox="0 0 106 105" fill="none" xmlns="http://www.w3.org/2000/svg">
<g clip-path="url(#clip0_24_3502)">
<path d="M91.9875 89.8312C89.85 92.0812 87.8295 93.531 86.2324 94.677C67.4573 108.148 45.2415 104.221 40.5199 103.263C33.5475 101.846 20.0708 99.1091 10.3272 87.651C-4.41372 70.3155 -2.11834 43.0038 9.31616 24.9753C11.4075 21.6776 22.4554 3.37535 44.9104 0.439097C58.5 -1.33728 74.3412 2.24547 85.8128 11.8563C109.893 32.0306 108.179 72.7879 91.9875 89.8312Z" fill="#F9FFE9"/>
<path d="M73.7522 79.8575C89.4848 64.1249 89.4848 38.6173 73.7522 22.8847C58.0196 7.15207 32.512 7.15207 16.7794 22.8847C1.04677 38.6173 1.04677 64.1249 16.7794 79.8575C32.512 95.5901 58.0196 95.5901 73.7522 79.8575Z" fill="#CCEB76"/>
<path d="M45.2651 85.7533C64.2539 85.7533 79.6473 70.3598 79.6473 51.371C79.6473 32.3822 64.2539 16.9888 45.2651 16.9888C26.2763 16.9888 10.8828 32.3822 10.8828 51.371C10.8828 70.3598 26.2763 85.7533 45.2651 85.7533Z" fill="#B2D550"/>
<path d="M45.2648 87.476C25.3568 87.476 9.16016 71.2797 9.16016 51.3713C9.16016 31.463 25.3568 15.2671 45.2648 15.2671C65.1728 15.2671 81.369 31.4633 81.369 51.3713C81.369 71.2793 65.1743 87.476 45.2648 87.476ZM45.2648 16.9891C26.3063 16.9891 10.8825 32.4128 10.8825 51.3713C10.8825 70.3298 26.3063 85.754 45.2648 85.754C64.2233 85.754 79.647 70.3302 79.647 51.3713C79.647 32.4125 64.2233 16.988 45.2648 16.988V16.9891Z" fill="white"/>
<path d="M60.0861 66.1928C68.2719 58.007 68.2719 44.7352 60.0861 36.5494C51.9003 28.3636 38.6285 28.3637 30.4428 36.5494C22.257 44.7352 22.257 58.007 30.4428 66.1928C38.6285 74.3785 51.9003 74.3785 60.0861 66.1928Z" fill="#B2D550"/>
<path d="M45.2654 74.0543C32.7577 74.0543 22.582 63.8786 22.582 51.3709C22.582 38.8631 32.7577 28.6875 45.2654 28.6875C57.7732 28.6875 67.9499 38.8635 67.9499 51.3709C67.9499 63.8783 57.7728 74.0543 45.2654 74.0543ZM45.2654 32.1319C34.657 32.1319 26.0279 40.7625 26.0279 51.3694C26.0279 61.9762 34.6585 70.6088 45.2654 70.6088C55.8723 70.6088 64.5029 61.9781 64.5029 51.3713C64.5029 40.7644 55.8749 32.1319 45.2654 32.1319Z" fill="white"/>
<path d="M51.0085 57.1135C54.1799 53.9421 54.1799 48.8001 51.0085 45.6287C47.837 42.4572 42.6951 42.4572 39.5237 45.6287C36.3522 48.8001 36.3522 53.9421 39.5237 57.1135C42.6951 60.285 47.837 60.285 51.0085 57.1135Z" fill="url(#paint0_linear_24_3502)"/>
<path d="M45.2649 61.2147C39.8375 61.2147 35.4219 56.7991 35.4219 51.3713C35.4219 45.9436 39.8375 41.5283 45.2649 41.5283C50.6922 41.5283 55.1079 45.9439 55.1079 51.3713C55.1079 56.7987 50.6922 61.2147 45.2649 61.2147ZM45.2649 44.9723C41.7365 44.9723 38.8659 47.8429 38.8659 51.3713C38.8659 54.8997 41.7365 57.7703 45.2649 57.7703C48.7932 57.7703 51.6639 54.9001 51.6639 51.3713C51.6639 47.8426 48.7932 44.9723 45.2649 44.9723Z" fill="white"/>
<path d="M51.3165 45.4253L52.1719 46.2808L84.5623 13.8903L83.7069 13.0349L51.3165 45.4253Z" fill="url(#paint1_linear_24_3502)"/>
<path d="M51.92 43.3618C52.4105 42.8713 54.7242 45.1847 54.2333 45.6752L45.653 52.4207C45.3357 52.67 44.9251 52.2594 45.1745 51.9422L51.92 43.3618Z" fill="url(#paint2_linear_24_3502)"/>
<path d="M84.5436 13.9092L88.9011 14.3419L82.9191 20.3251C81.951 21.2928 80.7802 22.0336 79.4912 22.494C78.2021 22.9545 76.8269 23.123 75.4648 22.9876L84.5436 13.9092Z" fill="#FA8825"/>
<path d="M83.6856 13.0542L83.2525 8.69629L77.2705 14.6787C76.3027 15.6466 75.5618 16.8173 75.1014 18.1063C74.6409 19.3953 74.4724 20.7705 74.6079 22.1325L83.6856 13.0542Z" fill="#FA8825"/>
<g opacity="0.3">
<path d="M23.8872 7.022C23.8583 7.05097 23.8239 7.07395 23.7861 7.08963C23.7483 7.10531 23.7078 7.11338 23.6669 7.11338C23.626 7.11338 23.5854 7.10531 23.5476 7.08963C23.5098 7.07395 23.4755 7.05097 23.4466 7.022C23.21 6.78537 22.9591 6.5555 22.7026 6.33875C22.6402 6.28616 22.601 6.21123 22.5933 6.13004C22.5856 6.04886 22.61 5.96788 22.6613 5.9045L22.6651 5.89962C22.7184 5.83639 22.7946 5.79692 22.8771 5.78989C22.9595 5.78286 23.0413 5.80884 23.1046 5.86212C23.375 6.09012 23.6386 6.33237 23.8876 6.58137C23.9419 6.63586 23.9741 6.7085 23.9782 6.78533C23.9822 6.86216 23.9577 6.93776 23.9093 6.99762C23.9018 7.00587 23.8943 7.01262 23.8872 7.022ZM21.3781 5.37012C21.0942 5.1905 20.7995 5.02137 20.5028 4.86725C20.4664 4.84841 20.4341 4.82258 20.4076 4.79125C20.3812 4.75991 20.3612 4.72367 20.3487 4.6846C20.3363 4.64553 20.3317 4.60439 20.3352 4.56354C20.3386 4.52268 20.3501 4.48291 20.369 4.4465C20.3878 4.41008 20.4136 4.37773 20.445 4.35129C20.4763 4.32485 20.5125 4.30485 20.5516 4.29242C20.5907 4.27999 20.6318 4.27537 20.6727 4.27884C20.7135 4.28231 20.7533 4.29378 20.7897 4.31262C21.1021 4.47462 21.4122 4.65237 21.7111 4.84137C21.781 4.88557 21.8304 4.95569 21.8486 5.03634C21.8669 5.11698 21.8523 5.20156 21.8082 5.2715C21.8016 5.28195 21.7943 5.29197 21.7865 5.3015C21.7386 5.36096 21.6706 5.4008 21.5953 5.41345C21.52 5.4261 21.4427 5.41068 21.3781 5.37012ZM18.9983 4.2155C18.6822 4.103 18.3575 4.00475 18.0331 3.92075C17.9931 3.91085 17.9554 3.89313 17.9223 3.8686C17.8892 3.84407 17.8613 3.81322 17.8402 3.77783C17.8191 3.74244 17.8053 3.70322 17.7994 3.66244C17.7936 3.62166 17.7959 3.58012 17.8062 3.54023C17.8165 3.50034 17.8346 3.4629 17.8595 3.43006C17.8844 3.39722 17.9155 3.36964 17.9511 3.34891C17.9867 3.32819 18.0261 3.31473 18.0669 3.30931C18.1078 3.3039 18.1493 3.30664 18.1891 3.31737C18.5307 3.4055 18.8731 3.51012 19.2057 3.6275C19.2443 3.64108 19.2799 3.66214 19.3103 3.68948C19.3408 3.71681 19.3655 3.74989 19.3832 3.78681C19.4009 3.82373 19.4111 3.86378 19.4132 3.90465C19.4154 3.94552 19.4095 3.98641 19.3958 4.025C19.3843 4.05875 19.3668 4.09014 19.3441 4.11762C19.3036 4.16768 19.2487 4.20396 19.1868 4.22149C19.1248 4.23902 19.059 4.23693 18.9983 4.2155ZM16.4198 3.62187C16.0865 3.58437 15.7478 3.56 15.4126 3.55062C15.3717 3.54946 15.3314 3.54026 15.294 3.52353C15.2566 3.5068 15.2229 3.48287 15.1948 3.45312C15.1667 3.42336 15.1447 3.38836 15.1301 3.35011C15.1155 3.31186 15.1086 3.27111 15.1098 3.23018C15.1109 3.18926 15.1201 3.14897 15.1369 3.1116C15.1536 3.07424 15.1775 3.04053 15.2073 3.01241C15.237 2.98429 15.272 2.96231 15.3103 2.94772C15.3485 2.93313 15.3893 2.92621 15.4302 2.92737C15.7831 2.93712 16.1397 2.96262 16.4907 3.00237C16.5314 3.00702 16.5707 3.01964 16.6065 3.03951C16.6423 3.05938 16.6739 3.0861 16.6993 3.11815C16.7248 3.15021 16.7437 3.18696 16.755 3.22632C16.7663 3.26569 16.7697 3.30688 16.765 3.34756C16.7604 3.38824 16.7477 3.4276 16.7279 3.4634C16.708 3.4992 16.6813 3.53073 16.6492 3.55621C16.6172 3.58168 16.5804 3.60059 16.5411 3.61185C16.5017 3.62312 16.4605 3.62652 16.4198 3.62187ZM13.7738 3.61775C13.4412 3.65525 13.1052 3.70625 12.7756 3.7715C12.7354 3.77942 12.6941 3.77937 12.654 3.77132C12.6138 3.76328 12.5757 3.74741 12.5417 3.72462C12.5076 3.70183 12.4785 3.67256 12.4558 3.63849C12.4331 3.60442 12.4173 3.56622 12.4094 3.52606C12.4015 3.4859 12.4015 3.44457 12.4096 3.40443C12.4176 3.3643 12.4335 3.32614 12.4563 3.29213C12.4791 3.25813 12.5083 3.22895 12.5424 3.20625C12.5765 3.18356 12.6147 3.1678 12.6548 3.15987C13.0017 3.09125 13.355 3.03687 13.7048 2.99825C13.7455 2.99374 13.7867 2.99729 13.826 3.00869C13.8653 3.0201 13.902 3.03913 13.9339 3.06471C13.9659 3.09028 13.9924 3.1219 14.0122 3.15776C14.0319 3.19362 14.0444 3.23301 14.0489 3.27368C14.0534 3.31436 14.0498 3.35553 14.0384 3.39483C14.027 3.43414 14.008 3.47081 13.9824 3.50276C13.9569 3.53471 13.9252 3.56131 13.8894 3.58104C13.8535 3.60077 13.8141 3.61324 13.7735 3.61775H13.7738ZM11.1927 4.20012C10.8758 4.30962 10.5597 4.4345 10.2533 4.57062C10.1783 4.6011 10.0943 4.60119 10.0192 4.57087C9.94406 4.54055 9.88368 4.48221 9.8508 4.40817C9.81792 4.33414 9.81513 4.25021 9.84301 4.17416C9.87089 4.0981 9.92726 4.03587 10.0002 4.00062C10.3227 3.85737 10.6553 3.72612 10.9887 3.611C11.0274 3.5976 11.0683 3.59196 11.1092 3.59438C11.1501 3.59681 11.19 3.60727 11.2269 3.62515C11.2637 3.64303 11.2966 3.66799 11.3238 3.6986C11.351 3.72921 11.3719 3.76488 11.3853 3.80356C11.3987 3.84224 11.4043 3.88318 11.4019 3.92405C11.3994 3.96491 11.389 4.0049 11.3711 4.04172C11.3532 4.07854 11.3283 4.11149 11.2977 4.13866C11.267 4.16584 11.2314 4.18673 11.1927 4.20012ZM3.2427 12.6125C3.20293 12.6024 3.16555 12.5845 3.13271 12.5598C3.09986 12.5352 3.0722 12.5044 3.0513 12.4691C3.0304 12.4337 3.01667 12.3946 3.01091 12.354C3.00514 12.3134 3.00745 12.272 3.0177 12.2322C3.10658 11.891 3.21158 11.549 3.33008 11.2156C3.34327 11.1764 3.36413 11.1402 3.39145 11.1092C3.41876 11.0781 3.45198 11.0528 3.48918 11.0348C3.52637 11.0167 3.56679 11.0062 3.60809 11.0039C3.64938 11.0016 3.69071 11.0075 3.72969 11.0214C3.76866 11.0352 3.80449 11.0567 3.83508 11.0845C3.86568 11.1123 3.89043 11.1459 3.9079 11.1834C3.92536 11.2209 3.93519 11.2615 3.93681 11.3028C3.93843 11.3441 3.9318 11.3854 3.91733 11.4241C3.80483 11.7406 3.70545 12.0654 3.62108 12.3894C3.61082 12.429 3.59284 12.4663 3.56816 12.499C3.54348 12.5316 3.51259 12.5591 3.47727 12.5799C3.44194 12.6006 3.40287 12.6141 3.3623 12.6197C3.32173 12.6253 3.28045 12.6229 3.24083 12.6125H3.2427ZM8.80695 5.3375C8.5227 5.5145 8.24258 5.7065 7.97445 5.9075C7.90831 5.95722 7.82513 5.97864 7.7432 5.96704C7.66127 5.95543 7.5873 5.91176 7.53758 5.84562C7.48785 5.77948 7.46643 5.6963 7.47803 5.61437C7.48964 5.53244 7.53331 5.45847 7.59945 5.40875C7.88183 5.19687 8.17658 4.99625 8.4762 4.80875C8.5388 4.77003 8.61308 4.75469 8.68589 4.76544C8.75871 4.77619 8.82538 4.81234 8.87412 4.8675C8.92286 4.92265 8.95053 4.99327 8.95224 5.06685C8.95394 5.14044 8.92958 5.21226 8.88345 5.26962C8.86148 5.29646 8.83526 5.31952 8.80583 5.33787L8.80695 5.3375ZM4.15283 10.0524C4.0795 10.0141 4.02436 9.9483 3.99954 9.8694C3.97472 9.7905 3.98224 9.70498 4.02045 9.63162C4.18358 9.31925 4.36208 9.0095 4.55145 8.711C4.5722 8.67406 4.60026 8.64173 4.63392 8.61601C4.66758 8.59028 4.70613 8.57168 4.74722 8.56136C4.78831 8.55104 4.83108 8.5492 4.8729 8.55596C4.91473 8.56273 4.95473 8.57795 4.99047 8.60069C5.02622 8.62344 5.05694 8.65324 5.08078 8.68826C5.10462 8.72329 5.12106 8.76281 5.12911 8.8044C5.13716 8.846 5.13664 8.8888 5.12758 8.93019C5.11853 8.97158 5.10113 9.01068 5.07645 9.04512C4.89645 9.32862 4.72658 9.623 4.5717 9.92C4.5621 9.93867 4.55054 9.95627 4.5372 9.9725C4.49205 10.0279 4.42919 10.0661 4.3592 10.0807C4.2892 10.0952 4.21632 10.0852 4.15283 10.0524ZM6.73395 6.98075C6.49658 7.217 6.26633 7.46825 6.04958 7.72287C5.99659 7.78564 5.92097 7.82495 5.83916 7.83226C5.75734 7.83956 5.67595 7.81427 5.61269 7.76188C5.54942 7.70949 5.5094 7.63424 5.50133 7.55249C5.49326 7.47075 5.51778 7.38912 5.56958 7.32537C5.57074 7.32346 5.57213 7.3217 5.5737 7.32012C5.8017 7.0505 6.04433 6.78762 6.29408 6.539C6.35055 6.48259 6.4265 6.45001 6.50629 6.44796C6.58607 6.44591 6.66361 6.47455 6.7229 6.52797C6.78219 6.5814 6.81873 6.65554 6.82497 6.7351C6.83121 6.81467 6.80669 6.8936 6.75645 6.95562C6.7497 6.96425 6.74183 6.9725 6.73395 6.98075Z" fill="#FFB16D"/>
<path d="M3.20633 14.6654C3.24633 14.6162 3.27028 14.5558 3.27495 14.4926C3.28658 14.3321 3.30195 14.1693 3.32033 14.0088C3.32569 13.9678 3.32285 13.9262 3.31195 13.8863C3.30106 13.8464 3.28234 13.8091 3.25688 13.7765C3.23142 13.7439 3.19973 13.7167 3.16366 13.6965C3.12759 13.6763 3.08786 13.6635 3.04678 13.6588C3.0057 13.6541 2.9641 13.6576 2.92439 13.6691C2.88469 13.6806 2.84767 13.7 2.81551 13.726C2.78335 13.7519 2.75668 13.7841 2.73705 13.8205C2.71743 13.8568 2.70524 13.8968 2.7012 13.9379C2.6817 14.1067 2.6637 14.2777 2.6532 14.4464C2.64828 14.5127 2.66464 14.5787 2.69991 14.635C2.73517 14.6913 2.7875 14.7348 2.84925 14.7593C2.911 14.7837 2.97895 14.7878 3.04318 14.7709C3.10742 14.754 3.16458 14.7171 3.20633 14.6654Z" fill="#FFB16D"/>
</g>
<g opacity="0.3">
<path d="M6.26197 23.6627C6.30853 23.6051 6.33307 23.5329 6.33122 23.4589C6.32936 23.3849 6.30123 23.314 6.25184 23.2588C6.14459 23.1392 6.03809 23.0151 5.93497 22.8906C5.90889 22.859 5.87686 22.8329 5.84068 22.8137C5.80451 22.7945 5.76492 22.7826 5.72416 22.7787C5.6834 22.7749 5.64228 22.779 5.60313 22.7911C5.56399 22.8031 5.5276 22.8227 5.49603 22.8487C5.46446 22.8748 5.43834 22.9069 5.41916 22.943C5.39997 22.9792 5.3881 23.0188 5.38422 23.0596C5.38033 23.1003 5.38452 23.1414 5.39653 23.1806C5.40854 23.2197 5.42814 23.2561 5.45422 23.2877C5.56222 23.4189 5.67434 23.5502 5.78759 23.6758C5.81775 23.7094 5.85486 23.736 5.89634 23.7539C5.93782 23.7717 5.98269 23.7803 6.02782 23.779C6.07295 23.7778 6.11727 23.7667 6.1577 23.7466C6.19813 23.7265 6.23371 23.6979 6.26197 23.6627Z" fill="#FFB16D"/>
<path d="M24.3334 23.6918C24.3061 23.7223 24.2731 23.7471 24.2362 23.7648C24.1993 23.7825 24.1593 23.7928 24.1184 23.795C24.0775 23.7973 24.0366 23.7915 23.998 23.7779C23.9594 23.7643 23.9238 23.7433 23.8934 23.716C23.8629 23.6887 23.8381 23.6556 23.8203 23.6188C23.8026 23.5819 23.7924 23.5418 23.7901 23.501C23.7879 23.4601 23.7937 23.4192 23.8073 23.3806C23.8208 23.342 23.8419 23.3064 23.8692 23.2759C24.0878 23.0318 24.2993 22.7746 24.5007 22.5083C24.5516 22.4458 24.6248 22.4055 24.7048 22.3959C24.7848 22.3862 24.8655 22.4079 24.9298 22.4564C24.9942 22.505 25.0372 22.5765 25.0499 22.6561C25.0626 22.7357 25.044 22.8172 24.9979 22.8833C24.9104 22.9988 24.8217 23.1122 24.7317 23.2234C24.6027 23.3836 24.4688 23.5407 24.3334 23.6918ZM25.5042 21.5824C25.4324 21.5416 25.3798 21.474 25.3577 21.3945C25.3357 21.3149 25.346 21.2299 25.3864 21.1579C25.5484 20.8699 25.6999 20.5718 25.8364 20.2722C25.8528 20.234 25.8766 20.1995 25.9065 20.1707C25.9364 20.1419 25.9717 20.1194 26.0104 20.1044C26.0491 20.0894 26.0904 20.0823 26.1319 20.0835C26.1734 20.0848 26.2142 20.0943 26.252 20.1115C26.2898 20.1287 26.3237 20.1533 26.3519 20.1838C26.38 20.2143 26.4018 20.2501 26.4159 20.2892C26.43 20.3282 26.4362 20.3697 26.434 20.4111C26.4319 20.4526 26.4215 20.4932 26.4034 20.5306C26.2594 20.8463 26.1 21.1602 25.9298 21.4632C25.921 21.4787 25.9109 21.4935 25.8998 21.5074C25.8533 21.5647 25.7881 21.6036 25.7157 21.6173C25.6433 21.631 25.5683 21.6187 25.5042 21.5824ZM23.1165 24.8768C22.8518 25.1018 22.5743 25.3171 22.2915 25.5188C22.2585 25.5455 22.2204 25.5651 22.1795 25.5765C22.1386 25.588 22.0959 25.5909 22.0538 25.5852C22.0117 25.5795 21.9713 25.5652 21.9349 25.5433C21.8986 25.5214 21.8671 25.4923 21.8424 25.4578C21.8176 25.4233 21.8002 25.3841 21.7912 25.3426C21.7822 25.3012 21.7817 25.2583 21.7899 25.2166C21.798 25.175 21.8146 25.1354 21.8386 25.1004C21.8625 25.0654 21.8934 25.0356 21.9293 25.0129C22.1982 24.8213 22.4622 24.6162 22.713 24.4032C22.7722 24.353 22.848 24.3266 22.9256 24.3293C23.0031 24.332 23.0769 24.3635 23.1324 24.4178C23.188 24.472 23.2213 24.545 23.2258 24.6225C23.2304 24.6999 23.2058 24.7763 23.157 24.8367C23.1447 24.8512 23.1312 24.8646 23.1165 24.8768ZM26.6119 19.1494C26.5327 19.1257 26.4662 19.0714 26.427 18.9987C26.3877 18.9259 26.379 18.8405 26.4027 18.7613C26.4972 18.4452 26.5793 18.1212 26.6468 17.7987C26.6552 17.7586 26.6713 17.7206 26.6944 17.6868C26.7175 17.653 26.747 17.6241 26.7812 17.6016C26.8155 17.5792 26.8538 17.5638 26.894 17.5562C26.9342 17.5486 26.9755 17.549 27.0156 17.5574C27.0557 17.5657 27.0937 17.5819 27.1275 17.605C27.1613 17.6281 27.1902 17.6576 27.2126 17.6918C27.235 17.726 27.2505 17.7644 27.2581 17.8046C27.2657 17.8448 27.2653 17.8861 27.2569 17.9262C27.186 18.2659 27.0994 18.6072 27 18.9387C26.9884 18.9779 26.969 19.0145 26.9432 19.0463C26.9173 19.0781 26.8855 19.1044 26.8494 19.1239C26.8134 19.1433 26.7738 19.1555 26.7331 19.1596C26.6923 19.1637 26.6511 19.1598 26.6119 19.1479V19.1494ZM20.844 26.4061C20.5365 26.5666 20.2185 26.7162 19.8975 26.8508C19.8213 26.8828 19.7355 26.8832 19.659 26.8519C19.5825 26.8206 19.5215 26.7602 19.4895 26.6839C19.4576 26.6077 19.4572 26.5219 19.4885 26.4454C19.5198 26.3689 19.5802 26.3079 19.6564 26.2759C19.9609 26.1481 20.2635 26.0059 20.5564 25.8537C20.6198 25.8214 20.6924 25.8119 20.762 25.8266C20.8316 25.8412 20.894 25.8793 20.939 25.9344C20.984 25.9895 21.0088 26.0583 21.0093 26.1295C21.0097 26.2006 20.9858 26.2698 20.9415 26.3254C20.915 26.3588 20.8818 26.3862 20.844 26.4061ZM18.291 27.3998C17.9535 27.4898 17.6119 27.5663 17.2707 27.6278C17.1893 27.6424 17.1055 27.6241 17.0376 27.5769C16.9697 27.5298 16.9234 27.4575 16.9088 27.3762C16.8942 27.2948 16.9125 27.211 16.9597 27.1431C17.0068 27.0753 17.0791 27.0289 17.1604 27.0143C17.4848 26.9558 17.811 26.8831 18.1298 26.7979C18.1934 26.781 18.2607 26.7846 18.3221 26.8082C18.3835 26.8318 18.4358 26.8743 18.4716 26.9294C18.5074 26.9846 18.5248 27.0498 18.5213 27.1155C18.5179 27.1812 18.4937 27.2441 18.4523 27.2952C18.4111 27.3464 18.3546 27.383 18.291 27.3998ZM15.582 27.8123C15.2348 27.8269 14.8827 27.8269 14.5362 27.8123C14.4953 27.8106 14.4551 27.8008 14.418 27.7836C14.3809 27.7663 14.3475 27.7419 14.3198 27.7118C14.2921 27.6817 14.2706 27.6464 14.2565 27.6079C14.2425 27.5695 14.2361 27.5286 14.2378 27.4877C14.2396 27.4468 14.2493 27.4067 14.2666 27.3696C14.2838 27.3324 14.3082 27.2991 14.3383 27.2714C14.3685 27.2437 14.4038 27.2222 14.4422 27.2081C14.4807 27.1941 14.5215 27.1877 14.5624 27.1894C14.8917 27.2029 15.2258 27.2029 15.5562 27.1894C15.6388 27.186 15.7193 27.2155 15.7802 27.2715C15.841 27.3275 15.8771 27.4053 15.8805 27.4879C15.884 27.5705 15.8544 27.6511 15.7985 27.7119C15.7425 27.7728 15.6646 27.8089 15.582 27.8123ZM12.8472 27.6248C12.5052 27.5633 12.1617 27.4861 11.8264 27.3957C11.7466 27.3742 11.6786 27.3218 11.6374 27.2501C11.5962 27.1785 11.5851 27.0934 11.6067 27.0136C11.6282 26.9337 11.6806 26.8658 11.7522 26.8245C11.8239 26.7833 11.909 26.7723 11.9888 26.7938C12.3072 26.8797 12.633 26.9528 12.9582 27.0113C12.9985 27.0186 13.0369 27.0337 13.0713 27.0559C13.1058 27.078 13.1355 27.1067 13.1588 27.1404C13.1822 27.174 13.1987 27.2119 13.2073 27.2519C13.216 27.2919 13.2167 27.3333 13.2094 27.3736C13.2003 27.4252 13.1781 27.4736 13.1449 27.5142C13.1101 27.5581 13.064 27.5918 13.0116 27.6116C12.9592 27.6315 12.9024 27.6368 12.8472 27.6271V27.6248ZM10.2192 26.8414C9.89966 26.7061 9.58166 26.5553 9.27454 26.3914C9.20415 26.3513 9.1521 26.2855 9.12942 26.2077C9.10673 26.1299 9.11518 26.0464 9.15298 25.9747C9.19078 25.9031 9.25496 25.849 9.33195 25.8238C9.40894 25.7986 9.49271 25.8043 9.56554 25.8398C9.85729 25.9939 10.1592 26.1368 10.4625 26.2654C10.5002 26.2814 10.5344 26.3046 10.5632 26.3338C10.5919 26.363 10.6146 26.3976 10.6299 26.4355C10.6453 26.4735 10.653 26.5141 10.6527 26.5551C10.6523 26.596 10.6439 26.6365 10.6279 26.6742C10.6164 26.7011 10.6013 26.7264 10.5829 26.7492C10.5408 26.8023 10.4825 26.8403 10.4169 26.8573C10.3512 26.8744 10.2818 26.8696 10.2192 26.8437V26.8414ZM7.82966 25.5012C7.62154 25.3512 7.41716 25.1959 7.21766 25.0351C7.14566 24.9769 7.07516 24.9181 7.00466 24.8588C6.97344 24.8323 6.94774 24.8 6.92902 24.7636C6.91031 24.7272 6.89894 24.6874 6.89558 24.6466C6.89222 24.6059 6.89693 24.5648 6.90944 24.5258C6.92194 24.4868 6.942 24.4507 6.96847 24.4195C6.99494 24.3883 7.0273 24.3626 7.06371 24.3439C7.10011 24.3251 7.13984 24.3138 7.18064 24.3104C7.22143 24.3071 7.26249 24.3118 7.30146 24.3243C7.34044 24.3368 7.37657 24.3568 7.40779 24.3833C7.47454 24.4396 7.54204 24.4958 7.61029 24.5509C7.79779 24.7036 7.99429 24.8509 8.19191 24.9942C8.25919 25.0422 8.30465 25.1149 8.31829 25.1964C8.33193 25.2779 8.31264 25.3615 8.26466 25.4288C8.26054 25.4341 8.25679 25.4393 8.25266 25.4442C8.20302 25.5062 8.13156 25.5468 8.05293 25.5578C7.97429 25.5688 7.89442 25.5494 7.82966 25.5034V25.5012Z" fill="#FFB16D"/>
<path d="M27.4211 16.4095C27.4615 16.3597 27.4854 16.2987 27.4897 16.2347C27.5013 16.0663 27.5096 15.8946 27.5141 15.724C27.5145 15.6425 27.483 15.5641 27.4263 15.5055C27.3697 15.447 27.2923 15.413 27.2109 15.4108C27.1294 15.4086 27.0503 15.4383 26.9906 15.4937C26.9308 15.5491 26.8951 15.6257 26.8912 15.7071C26.8867 15.8691 26.8788 16.0322 26.8679 16.192C26.8634 16.2581 26.88 16.3239 26.9154 16.3799C26.9508 16.4359 27.0031 16.4792 27.0648 16.5034C27.1264 16.5277 27.1942 16.5316 27.2583 16.5147C27.3224 16.4978 27.3794 16.461 27.4211 16.4095Z" fill="#FFB16D"/>
</g>
<path d="M23.9163 12.3752C23.9102 12.3455 23.8949 12.3184 23.8726 12.2979C23.8504 12.2773 23.8222 12.2642 23.7921 12.2604L22.0334 12.0354C21.6794 11.2745 21.2038 10.5764 20.6253 9.96843L21.061 8.25018C21.0684 8.22083 21.0665 8.1899 21.0556 8.16168C21.0446 8.13346 21.0252 8.10934 20.9999 8.09268L19.2209 6.92642C19.1956 6.90975 19.1657 6.90143 19.1354 6.90264C19.1052 6.90385 19.076 6.91453 19.0521 6.93318L17.6504 8.01768C16.8615 7.72975 16.031 7.57231 15.1915 7.55155L14.2844 6.0283C14.2689 6.00223 14.2456 5.98165 14.2179 5.96942C14.1901 5.95719 14.1592 5.95391 14.1295 5.96005L12.0471 6.39317C12.0175 6.39939 11.9905 6.41468 11.97 6.43692C11.9494 6.45916 11.9363 6.48726 11.9324 6.5173L11.7074 8.27643C10.9455 8.62992 10.2464 9.10542 9.63777 9.68417L7.91989 9.24842C7.89051 9.24105 7.85955 9.24301 7.83132 9.25403C7.8031 9.26505 7.77901 9.28459 7.76239 9.30992L6.59614 11.0886C6.57949 11.1139 6.57119 11.1439 6.5724 11.1742C6.57361 11.2045 6.58427 11.2337 6.60289 11.2577L7.68777 12.6594C7.39988 13.4482 7.24244 14.2785 7.22164 15.1179L5.70027 16.0254C5.67412 16.0409 5.65347 16.0641 5.64123 16.0919C5.62899 16.1197 5.62576 16.1506 5.63202 16.1803L6.06364 18.2627C6.06979 18.2924 6.08505 18.3195 6.1073 18.3401C6.12955 18.3607 6.15768 18.3739 6.18777 18.3778L7.94689 18.6028C8.30041 19.3645 8.77592 20.0633 9.35464 20.6717L8.91889 22.3877C8.91149 22.4171 8.91343 22.4481 8.92445 22.4764C8.93547 22.5047 8.95502 22.5289 8.98039 22.5456L10.759 23.7118C10.7844 23.7283 10.8144 23.7365 10.8447 23.7353C10.8749 23.7341 10.9041 23.7235 10.9281 23.7051L12.3299 22.6209C13.1187 22.9087 13.949 23.066 14.7884 23.0867L15.6959 24.6103C15.7114 24.6363 15.7346 24.6568 15.7623 24.669C15.79 24.6812 15.8208 24.6844 15.8504 24.6782L17.9328 24.2451C17.9625 24.239 17.9897 24.2238 18.0103 24.2015C18.031 24.1792 18.0441 24.1511 18.0479 24.1209L18.2729 22.3622C19.0346 22.0085 19.7335 21.533 20.3421 20.9544L22.0596 21.3898C22.089 21.3972 22.12 21.3954 22.1483 21.3844C22.1766 21.3735 22.2008 21.354 22.2175 21.3287L23.3838 19.5497C23.4002 19.5243 23.4084 19.4944 23.4072 19.4642C23.406 19.434 23.3955 19.4049 23.377 19.3809L22.2929 17.9792C22.5807 17.1903 22.738 16.3598 22.7586 15.5203L24.2815 14.6139C24.3075 14.5984 24.328 14.5751 24.3402 14.5473C24.3524 14.5196 24.3556 14.4887 24.3494 14.4591L23.9163 12.3752Z" fill="#FA8825"/>
<path d="M16.4378 16.8939C16.0301 17.2679 15.4932 17.4692 14.9401 17.4555C14.3869 17.4418 13.8607 17.2142 13.4719 16.8204C13.0832 16.4267 12.8623 15.8976 12.8556 15.3443C12.849 14.7911 13.0571 14.2568 13.4363 13.8538C13.8155 13.4509 14.3361 13.2107 14.8887 13.1837C15.4414 13.1567 15.9829 13.3451 16.3996 13.7092C16.8162 14.0733 17.0754 14.5847 17.1227 15.136C17.1699 15.6873 17.0016 16.2354 16.6531 16.6651C16.5869 16.7465 16.515 16.8229 16.4378 16.8939ZM13.3538 15.2503C13.3379 15.629 13.4538 16.0016 13.6818 16.3045C13.9098 16.6075 14.2358 16.8219 14.6042 16.9115C14.9726 17.001 15.3606 16.96 15.7022 16.7955C16.0438 16.631 16.3177 16.3532 16.4774 16.0093C16.6371 15.6654 16.6726 15.2769 16.5779 14.9098C16.4832 14.5426 16.2642 14.2197 15.9581 13.996C15.652 13.7723 15.2778 13.6616 14.8993 13.6829C14.5208 13.7041 14.1613 13.856 13.8822 14.1125C13.8224 14.1675 13.7667 14.2267 13.7157 14.2899C13.4946 14.5625 13.3676 14.8995 13.3538 15.2503Z" fill="#FFB16D"/>
<path d="M19.0243 18.6439C19.1368 18.5047 19.2429 18.3593 19.3427 18.2078C19.3742 18.1602 19.4045 18.1118 19.4345 18.063C19.5809 17.8235 19.7081 17.5727 19.8148 17.313C19.8148 17.3093 19.8174 17.3059 19.8189 17.3025L19.8313 17.2722C19.8392 17.2527 19.8467 17.2347 19.8542 17.2133C19.8636 17.1887 19.8651 17.1618 19.8584 17.1363C19.8517 17.1109 19.8371 17.0882 19.8167 17.0715C19.8063 17.0634 19.7948 17.0568 19.7825 17.052C19.7673 17.0462 19.751 17.0434 19.7346 17.0438C19.7183 17.0442 19.7022 17.0479 19.6873 17.0545C19.6723 17.0612 19.6588 17.0707 19.6476 17.0826C19.6363 17.0944 19.6275 17.1084 19.6217 17.1237C19.2529 18.0794 18.6002 18.8992 17.7515 19.4728C16.9028 20.0464 15.8988 20.3463 14.8745 20.3322C13.9234 20.3206 12.9956 20.0368 12.2008 19.5143C12.057 19.4201 11.9182 19.3186 11.7849 19.2102C10.8242 18.4278 10.1876 17.3171 9.99813 16.0927C9.80864 14.8683 10.0797 13.6171 10.7589 12.5809C12.2735 10.2709 15.383 9.62517 17.6923 11.139C18.4501 11.6352 19.0592 12.3275 19.4548 13.1423C19.4619 13.1571 19.4719 13.1703 19.4841 13.1812C19.4964 13.1921 19.5107 13.2005 19.5262 13.2059C19.5417 13.2113 19.5581 13.2136 19.5745 13.2127C19.5908 13.2117 19.6069 13.2076 19.6217 13.2004C19.6364 13.1933 19.6496 13.1833 19.6606 13.1711C19.6715 13.1588 19.6799 13.1445 19.6853 13.129C19.6907 13.1135 19.693 13.0971 19.692 13.0807C19.6911 13.0644 19.6869 13.0483 19.6798 13.0335C19.2649 12.1781 18.6259 11.4512 17.8307 10.9302C15.4067 9.34092 12.1412 10.0208 10.5523 12.444C9.83934 13.5315 9.55459 14.8445 9.753 16.1296C9.95142 17.4147 10.6189 18.5808 11.6267 19.4025C11.7668 19.5162 11.9126 19.6227 12.0635 19.7217C13.1515 20.4347 14.4651 20.7192 15.7506 20.5202C17.0361 20.3211 18.2022 19.6526 19.0235 18.6439H19.0243Z" fill="#FFB16D"/>
<g opacity="0.3">
<path d="M36.9919 3.9083C37.0181 3.87596 37.0331 3.83601 37.0347 3.79443C37.0362 3.75285 37.0242 3.71188 37.0005 3.67768C36.9079 3.54305 36.8097 3.40955 36.7088 3.28093C36.677 3.24185 36.6311 3.2168 36.5811 3.21117C36.531 3.20554 36.4807 3.21977 36.441 3.25081C36.4014 3.28185 36.3754 3.32722 36.3688 3.37717C36.3622 3.42711 36.3755 3.47765 36.4058 3.51793C36.5018 3.64093 36.5933 3.76805 36.684 3.89668C36.7131 3.93864 36.7576 3.96738 36.8078 3.97659C36.858 3.9858 36.9097 3.97472 36.9518 3.9458C36.9668 3.93519 36.9803 3.92257 36.9919 3.9083Z" fill="#FFB16D"/>
<path d="M36.0273 2.78646C36.0095 2.80435 35.9883 2.81854 35.9649 2.82823C35.9415 2.83791 35.9165 2.8429 35.8912 2.8429C35.8659 2.8429 35.8409 2.83791 35.8175 2.82823C35.7942 2.81854 35.773 2.80435 35.7551 2.78646C35.5646 2.59896 35.3625 2.41558 35.1551 2.24646C35.1108 2.20896 35.0666 2.17558 35.0216 2.14071C35.0016 2.12522 34.9849 2.10596 34.9724 2.08401C34.9598 2.06206 34.9518 2.03785 34.9486 2.01278C34.9454 1.9877 34.9472 1.96225 34.9539 1.93787C34.9606 1.9135 34.972 1.89067 34.9875 1.87071C35.0198 1.83172 35.0657 1.80649 35.1159 1.80015C35.1661 1.79381 35.2169 1.80684 35.2578 1.83658C35.3047 1.87408 35.3516 1.91158 35.3973 1.94721C35.6164 2.12505 35.8264 2.31379 36.0266 2.51271C36.0603 2.54634 36.0804 2.59128 36.083 2.63886C36.0856 2.68643 36.0704 2.73327 36.0405 2.77033L36.0273 2.78646ZM34.2135 1.58983C33.9335 1.42216 33.6434 1.27188 33.345 1.13983C33.2983 1.11924 33.2617 1.08095 33.2432 1.03338C33.2248 0.9858 33.2259 0.932839 33.2465 0.886145C33.2671 0.83945 33.3054 0.802846 33.353 0.784386C33.4006 0.765925 33.4535 0.76712 33.5002 0.787707C33.813 0.925763 34.1171 1.08281 34.4107 1.25796C34.4541 1.28421 34.4853 1.32644 34.4978 1.37554C34.5103 1.42465 34.503 1.47669 34.4775 1.52046C34.4725 1.52826 34.4671 1.53577 34.4613 1.54296C34.4326 1.57932 34.3917 1.60408 34.3462 1.6127C34.3006 1.62131 34.2535 1.61319 34.2135 1.58983ZM32.4273 0.802332C32.1149 0.708818 31.7969 0.6348 31.4752 0.580707C31.428 0.569079 31.387 0.540064 31.3603 0.499471C31.3336 0.458878 31.3232 0.4097 31.3312 0.36178C31.3393 0.31386 31.3651 0.270732 31.4035 0.241029C31.442 0.211325 31.4902 0.197236 31.5386 0.201582C31.876 0.258546 32.2097 0.336192 32.5376 0.434082C32.562 0.44129 32.5847 0.453269 32.6045 0.469327C32.6242 0.485385 32.6406 0.505202 32.6526 0.527629C32.6647 0.550056 32.6721 0.574649 32.6746 0.599981C32.6771 0.625314 32.6745 0.650883 32.667 0.675207C32.6597 0.699244 32.6479 0.721653 32.6321 0.741207C32.6079 0.770626 32.5756 0.792209 32.5391 0.803224C32.5027 0.814239 32.4638 0.814189 32.4273 0.803082V0.802332ZM30.5028 0.478332C30.177 0.464253 29.8507 0.470265 29.5256 0.496332C29.4747 0.50046 29.4243 0.484209 29.3854 0.451156C29.3465 0.418103 29.3223 0.370954 29.3182 0.320082C29.3141 0.26921 29.3303 0.218782 29.3634 0.179892C29.3965 0.141002 29.4436 0.116835 29.4945 0.112707C29.8354 0.0853316 30.1777 0.0789446 30.5193 0.0935821C30.5704 0.0957702 30.6184 0.118137 30.653 0.155761C30.6875 0.193386 30.7057 0.243186 30.7035 0.294207C30.7013 0.345228 30.6789 0.39329 30.6413 0.42782C30.6037 0.462351 30.5539 0.48052 30.5028 0.478332ZM28.5573 0.634707C28.238 0.700436 27.9229 0.785594 27.6138 0.889707C27.5898 0.898286 27.5643 0.901989 27.5388 0.900599C27.5133 0.89921 27.4883 0.892757 27.4653 0.881616C27.4423 0.870475 27.4218 0.854869 27.4049 0.835709C27.388 0.816549 27.3751 0.794218 27.367 0.770018C27.3588 0.745819 27.3555 0.720236 27.3573 0.694761C27.3592 0.669287 27.3661 0.64443 27.3776 0.621642C27.3891 0.598854 27.4051 0.578591 27.4245 0.562034C27.444 0.545477 27.4665 0.532958 27.4908 0.525207C27.8147 0.416052 28.145 0.326761 28.4797 0.257832C28.5049 0.251517 28.5312 0.25037 28.5569 0.25446C28.5825 0.25855 28.6071 0.267793 28.6291 0.281631C28.6511 0.29547 28.6701 0.313619 28.6849 0.334986C28.6998 0.356353 28.7101 0.380496 28.7153 0.405963C28.7206 0.43143 28.7206 0.457693 28.7154 0.483173C28.7103 0.508653 28.7 0.532823 28.6852 0.554228C28.6705 0.575633 28.6515 0.59383 28.6295 0.607725C28.6076 0.621621 28.583 0.630926 28.5573 0.635082V0.634707ZM26.7086 1.25796C26.415 1.39921 26.1305 1.55852 25.8566 1.73496C25.8353 1.74865 25.8116 1.75802 25.7867 1.76253C25.7619 1.76705 25.7363 1.76662 25.7116 1.76128C25.6869 1.75593 25.6635 1.74577 25.6427 1.73138C25.622 1.71699 25.6042 1.69864 25.5905 1.67739C25.5768 1.65614 25.5675 1.63241 25.563 1.60754C25.5584 1.58266 25.5589 1.55715 25.5642 1.53244C25.575 1.48255 25.6052 1.43898 25.6481 1.41133C25.9352 1.22606 26.2337 1.05898 26.5417 0.911082C26.5812 0.891263 26.6263 0.885633 26.6694 0.895138C26.7126 0.904642 26.7511 0.928702 26.7786 0.963275C26.8061 0.997849 26.8209 1.04083 26.8204 1.085C26.8199 1.12917 26.8043 1.17184 26.7761 1.20583C26.7578 1.2281 26.7348 1.24593 26.7086 1.25796ZM25.0691 2.31396C24.819 2.52331 24.5821 2.74786 24.3596 2.98633C24.3241 3.0207 24.2768 3.04012 24.2274 3.04059C24.1779 3.04106 24.1302 3.02253 24.0941 2.98884C24.058 2.95516 24.0361 2.90888 24.0331 2.85956C24.0301 2.81024 24.0462 2.76166 24.078 2.72383C24.3115 2.47378 24.5601 2.23821 24.8223 2.01846C24.859 1.987 24.9061 1.97046 24.9543 1.97212C25.0026 1.97378 25.0484 1.99352 25.0828 2.02742C25.1172 2.06131 25.1375 2.10689 25.1399 2.15511C25.1422 2.20333 25.1263 2.25066 25.0953 2.28771C25.0875 2.29727 25.0787 2.30606 25.0691 2.31396ZM22.9511 4.64083C22.9289 4.62859 22.9093 4.61206 22.8935 4.59222C22.8777 4.57237 22.8659 4.54959 22.859 4.52519C22.852 4.50079 22.8499 4.47526 22.8529 4.45005C22.8558 4.42485 22.8637 4.40047 22.8761 4.37833C23.0201 4.11868 23.1776 3.86683 23.3482 3.62383C23.3741 3.58633 23.4003 3.54883 23.4266 3.51358C23.4414 3.49295 23.4601 3.47546 23.4817 3.46215C23.5033 3.44884 23.5273 3.43997 23.5524 3.43606C23.5775 3.43215 23.6031 3.43328 23.6277 3.43938C23.6523 3.44548 23.6755 3.45642 23.6958 3.47158C23.7164 3.48645 23.7338 3.50523 23.7471 3.52685C23.7603 3.54846 23.7692 3.57247 23.7732 3.59752C23.7772 3.62257 23.7761 3.64815 23.7702 3.67281C23.7643 3.69747 23.7535 3.72071 23.7386 3.74121C23.7135 3.77533 23.6891 3.80983 23.6636 3.84508C23.5009 4.07718 23.3507 4.31777 23.2136 4.56583C23.2081 4.57568 23.2018 4.58509 23.1948 4.59396C23.1662 4.62917 23.1261 4.65317 23.0815 4.66174C23.0369 4.67031 22.9908 4.66291 22.9511 4.64083Z" fill="#FFB16D"/>
</g>
<g opacity="0.3">
<path d="M36.5395 13.7284C36.3244 13.9868 36.0938 14.232 35.8491 14.4626C35.8312 14.4819 35.8094 14.4972 35.7853 14.5077C35.7611 14.5182 35.735 14.5237 35.7087 14.5237C35.6824 14.5237 35.6563 14.5183 35.6321 14.5079C35.6079 14.4974 35.5862 14.4821 35.5682 14.4629C35.5501 14.4436 35.5363 14.4209 35.5274 14.3961C35.5185 14.3713 35.5148 14.3449 35.5166 14.3187C35.5183 14.2924 35.5254 14.2667 35.5375 14.2433C35.5495 14.2199 35.5663 14.1992 35.5866 14.1825C35.82 13.9625 36.0399 13.7285 36.2451 13.482C36.2776 13.4426 36.3243 13.4176 36.3751 13.4127C36.4259 13.4077 36.4766 13.4231 36.5161 13.4555C36.5555 13.488 36.5804 13.5347 36.5854 13.5855C36.5904 13.6364 36.5749 13.6871 36.5425 13.7265L36.5395 13.7284ZM36.8706 12.975C36.8278 12.9472 36.7978 12.9036 36.7871 12.8536C36.7764 12.8037 36.7859 12.7516 36.8136 12.7087C36.9879 12.4393 37.1459 12.1597 37.2869 11.8714C37.3093 11.8255 37.349 11.7903 37.3972 11.7737C37.4455 11.7571 37.4984 11.7603 37.5443 11.7827C37.5902 11.8051 37.6253 11.8447 37.642 11.893C37.6586 11.9413 37.6554 11.9942 37.633 12.0401C37.4854 12.3424 37.3197 12.6356 37.1369 12.918C37.1233 12.9394 37.1056 12.9579 37.0848 12.9724C37.064 12.987 37.0405 12.9972 37.0157 13.0025C36.9909 13.0078 36.9653 13.0081 36.9404 13.0034C36.9155 12.9986 36.8918 12.989 36.8706 12.975ZM35.074 15.1099C34.8026 15.3087 34.5195 15.4909 34.2261 15.6555C34.204 15.669 34.1794 15.6779 34.1538 15.6817C34.1282 15.6855 34.1021 15.6841 34.077 15.6775C34.0519 15.6709 34.0285 15.6594 34.008 15.6435C33.9875 15.6277 33.9704 15.6078 33.9578 15.5852C33.9452 15.5626 33.9372 15.5377 33.9345 15.5119C33.9317 15.4862 33.9342 15.4601 33.9417 15.4353C33.9493 15.4105 33.9617 15.3875 33.9784 15.3677C33.995 15.3479 34.0155 15.3316 34.0386 15.3199C34.3182 15.1622 34.5879 14.9878 34.8464 14.7975C34.8876 14.7673 34.939 14.7547 34.9895 14.7625C35.04 14.7703 35.0853 14.7977 35.1154 14.8389C35.1456 14.8801 35.1582 14.9316 35.1504 14.982C35.1427 15.0325 35.1152 15.0778 35.074 15.108V15.1099ZM37.774 11.2275C37.7501 11.2193 37.728 11.2065 37.7091 11.1898C37.6901 11.173 37.6746 11.1527 37.6635 11.13C37.6524 11.1073 37.6459 11.0826 37.6443 11.0574C37.6427 11.0322 37.6462 11.0069 37.6544 10.983C37.7588 10.6795 37.8447 10.3699 37.9116 10.056C37.9255 10.0097 37.9563 9.97034 37.9979 9.94574C38.0395 9.92114 38.0889 9.91309 38.1361 9.92321C38.1834 9.93332 38.2251 9.96085 38.253 10.0003C38.2809 10.0398 38.2929 10.0883 38.2866 10.1362C38.2166 10.4654 38.1266 10.79 38.017 11.1082C38.0097 11.1294 37.9988 11.1492 37.9848 11.1667C37.9598 11.1967 37.9263 11.2183 37.8887 11.2289C37.8512 11.2394 37.8113 11.2382 37.7744 11.2256L37.774 11.2275ZM33.319 16.092C33.0074 16.2196 32.6885 16.3284 32.3639 16.4179C32.3151 16.4299 32.2635 16.4224 32.2202 16.397C32.1769 16.3715 32.1452 16.3302 32.1319 16.2817C32.1186 16.2333 32.1247 16.1815 32.149 16.1376C32.1733 16.0936 32.2138 16.0608 32.2619 16.0462C32.5712 15.9614 32.875 15.8577 33.1716 15.7357C33.2189 15.7163 33.2719 15.7165 33.319 15.7362C33.3661 15.7559 33.4035 15.7935 33.4229 15.8407C33.4423 15.888 33.4421 15.941 33.4224 15.9881C33.4027 16.0352 33.3651 16.0726 33.3179 16.092H33.319ZM31.3791 16.6264C31.047 16.6758 30.7121 16.7053 30.3764 16.7145C30.3254 16.7158 30.2759 16.6968 30.2389 16.6617C30.2018 16.6266 30.1803 16.5782 30.1789 16.5272C30.1776 16.4762 30.1966 16.4267 30.2317 16.3897C30.2668 16.3526 30.3152 16.3311 30.3663 16.3297C30.687 16.3208 31.007 16.2928 31.3244 16.2457C31.3494 16.242 31.3749 16.2433 31.3994 16.2494C31.4239 16.2555 31.4469 16.2664 31.4672 16.2815C31.4875 16.2965 31.5047 16.3154 31.5177 16.3371C31.5307 16.3587 31.5393 16.3827 31.543 16.4077C31.5467 16.4327 31.5455 16.4582 31.5394 16.4827C31.5332 16.5072 31.5223 16.5303 31.5073 16.5506C31.4922 16.5709 31.4733 16.588 31.4517 16.601C31.43 16.614 31.406 16.6226 31.381 16.6264H31.3791ZM29.3669 16.6811C29.0318 16.6494 28.6989 16.5975 28.3701 16.5255C28.3441 16.5215 28.3192 16.5122 28.297 16.4982C28.2747 16.4842 28.2556 16.4658 28.2407 16.4441C28.2258 16.4224 28.2156 16.3979 28.2106 16.3721C28.2055 16.3463 28.2059 16.3197 28.2115 16.294C28.2172 16.2683 28.228 16.2441 28.2434 16.2228C28.2588 16.2014 28.2784 16.1835 28.301 16.1701C28.3236 16.1566 28.3487 16.1479 28.3748 16.1446C28.4009 16.1412 28.4274 16.1432 28.4526 16.1505C28.766 16.2197 29.0834 16.2698 29.4029 16.3005C29.4532 16.3062 29.4992 16.3314 29.531 16.3708C29.5628 16.4101 29.5779 16.4604 29.573 16.5108C29.5681 16.5611 29.5435 16.6075 29.5047 16.64C29.4658 16.6724 29.4158 16.6883 29.3654 16.6841L29.3669 16.6811Z" fill="#FFB16D"/>
<path d="M38.3971 9.2322C38.4213 9.20234 38.4359 9.16588 38.4391 9.12757C38.4533 8.9637 38.4627 8.79832 38.4672 8.63632C38.4688 8.6105 38.4652 8.58461 38.4566 8.56022C38.448 8.53582 38.4345 8.5134 38.4171 8.49431C38.3996 8.47521 38.3785 8.45983 38.3549 8.44908C38.3314 8.43832 38.3059 8.43242 38.2801 8.43171C38.2542 8.43101 38.2285 8.43552 38.2044 8.44497C38.1803 8.45443 38.1584 8.46864 38.1399 8.48675C38.1214 8.50487 38.1068 8.52651 38.0968 8.55041C38.0869 8.5743 38.0819 8.59995 38.0821 8.62582C38.078 8.78032 38.069 8.93782 38.0555 9.09457C38.0518 9.13571 38.0614 9.17695 38.083 9.21219C38.1045 9.24742 38.1369 9.27478 38.1752 9.29021C38.2135 9.30565 38.2558 9.30834 38.2957 9.29789C38.3357 9.28744 38.3712 9.26441 38.3971 9.2322Z" fill="#FFB16D"/>
</g>
<path d="M36.0715 6.39694C36.0675 6.37706 36.0573 6.35894 36.0425 6.34514C36.0276 6.33135 36.0088 6.32257 35.9886 6.32007L34.8115 6.17007C34.5748 5.66045 34.2567 5.19281 33.8695 4.78557L34.1616 3.63769C34.1666 3.61806 34.1653 3.59738 34.158 3.57851C34.1506 3.55964 34.1376 3.5435 34.1208 3.53232L32.9298 2.75007C32.9129 2.73909 32.893 2.73363 32.8728 2.73444C32.8527 2.73524 32.8333 2.74227 32.8173 2.75457L31.8798 3.47982C31.3519 3.28733 30.7963 3.18208 30.2346 3.16819L29.6264 2.14894C29.6161 2.13139 29.6005 2.11752 29.5818 2.10931C29.5632 2.1011 29.5424 2.09896 29.5225 2.10319L28.1294 2.39307C28.1099 2.39742 28.0921 2.40773 28.0787 2.42258C28.0653 2.43742 28.0568 2.45607 28.0544 2.47594L27.9044 3.65307C27.3948 3.88975 26.9271 4.20792 26.5199 4.59507L25.3705 4.30369C25.3509 4.29871 25.3302 4.29998 25.3113 4.3073C25.2924 4.31463 25.2763 4.32765 25.2651 4.34457L24.4848 5.53482C24.4738 5.55173 24.4684 5.57159 24.4691 5.59172C24.4699 5.61184 24.4768 5.63125 24.4889 5.64732L25.2145 6.58482C25.0205 7.11273 24.9139 7.66881 24.8991 8.23107L23.8795 8.83819C23.8621 8.84862 23.8483 8.86423 23.8402 8.88286C23.832 8.90148 23.8299 8.92218 23.8341 8.94207L24.124 10.3352C24.1284 10.3547 24.1387 10.3724 24.1535 10.3859C24.1684 10.3993 24.187 10.4078 24.2069 10.4102L25.384 10.5602C25.6207 11.0698 25.9389 11.5374 26.326 11.9447L26.0346 13.0941C26.0295 13.1137 26.0307 13.1345 26.038 13.1534C26.0454 13.1723 26.0585 13.1884 26.0755 13.1994L27.2658 13.9798C27.2827 13.9907 27.3025 13.9962 27.3227 13.9955C27.3428 13.9947 27.3622 13.9878 27.3783 13.9757L28.3158 13.2501C28.8435 13.4427 29.3992 13.548 29.9609 13.5617L30.568 14.5813C30.5782 14.5996 30.5941 14.6141 30.6132 14.6227C30.6323 14.6313 30.6537 14.6335 30.6741 14.6289L32.0676 14.3391C32.0875 14.3351 32.1056 14.3249 32.1194 14.31C32.1332 14.2951 32.142 14.2763 32.1445 14.2562L32.2945 13.0791C32.8041 12.8424 33.2718 12.5242 33.679 12.1371L34.8284 12.4284C34.848 12.4335 34.8688 12.4323 34.8877 12.425C34.9066 12.4177 34.9227 12.4046 34.9338 12.3876L35.7141 11.1973C35.7251 11.1804 35.7306 11.1605 35.7298 11.1404C35.729 11.1202 35.7219 11.1008 35.7096 11.0848L34.9844 10.1473C35.1769 9.61949 35.2821 9.06385 35.296 8.50219L36.3156 7.89507C36.333 7.88466 36.3467 7.86911 36.3549 7.85056C36.363 7.83201 36.3651 7.81139 36.361 7.79157L36.0715 6.39694Z" fill="#FA8825"/>
<path d="M31.0873 9.43808C30.8105 9.69172 30.4461 9.82818 30.0708 9.81878C29.6954 9.80937 29.3384 9.65483 29.0746 9.38763C28.8108 9.12044 28.6609 8.7614 28.6564 8.38597C28.6518 8.01055 28.793 7.64797 29.0502 7.37445C29.3074 7.10093 29.6606 6.93776 30.0356 6.91925C30.4106 6.90073 30.7781 7.0283 31.061 7.27515C31.3439 7.522 31.5201 7.86891 31.5526 8.24296C31.585 8.61701 31.4712 8.98907 31.235 9.28095C31.1896 9.33681 31.1403 9.38932 31.0873 9.43808ZM29.3128 9.09083C29.5052 9.30014 29.7728 9.42448 30.0568 9.43651C30.3409 9.44854 30.618 9.34726 30.8274 9.15495C31.0367 8.9627 31.161 8.6952 31.173 8.41129C31.185 8.12739 31.0838 7.85033 30.8915 7.64108C30.6993 7.43182 30.4318 7.30751 30.1479 7.29548C29.864 7.28345 29.5869 7.3847 29.3777 7.57695C29.3391 7.61259 29.3031 7.65094 29.27 7.6917C29.1086 7.89144 29.0241 8.14247 29.0319 8.39919C29.0398 8.65592 29.1394 8.90132 29.3128 9.09083Z" fill="#FFB16D"/>
<path d="M32.8847 10.6561C32.9612 10.5616 33.0337 10.4624 33.1022 10.3584C33.2375 10.1518 33.3516 9.93202 33.4427 9.70248L33.4547 9.67173C33.4693 9.63376 33.4715 9.59214 33.4611 9.55281C33.4507 9.51348 33.4281 9.47846 33.3966 9.45273C33.3808 9.44014 33.3632 9.43003 33.3444 9.42273C33.2968 9.40449 33.2438 9.40584 33.1972 9.4265C33.1505 9.44716 33.114 9.48544 33.0954 9.53298C33.0125 9.74828 32.9068 9.95408 32.7801 10.1469C32.7733 10.1577 32.7662 10.1682 32.7591 10.1787C32.4606 10.6258 32.0547 10.9909 31.5786 11.2404C31.3196 11.3756 31.0436 11.4755 30.7581 11.5374H30.7509L30.7292 11.5419C30.3125 11.6297 29.8825 11.6341 29.4641 11.5546C29.0457 11.4752 28.6472 11.3136 28.2917 11.0791C28.1987 11.0182 28.1088 10.9526 28.0224 10.8826C27.3767 10.3584 26.9572 9.60601 26.8506 8.78114C26.744 7.95626 26.9586 7.12198 27.4499 6.45085C27.9411 5.77972 28.6716 5.32309 29.4901 5.1754C30.3086 5.0277 31.1526 5.20025 31.8474 5.65736C31.9394 5.7176 32.0281 5.78235 32.1133 5.8516C32.4821 6.15048 32.7805 6.52689 32.9874 6.95411C33.0097 7.00005 33.0493 7.03527 33.0976 7.05201C33.1458 7.06875 33.1987 7.06563 33.2447 7.04336C33.2906 7.02108 33.3258 6.98146 33.3426 6.93321C33.3593 6.88497 33.3562 6.83205 33.3339 6.78611C33.0966 6.2982 32.7528 5.86976 32.328 5.53234C31.9031 5.19492 31.4079 4.95711 30.879 4.83645C30.35 4.71578 29.8007 4.71532 29.2715 4.83511C28.7424 4.9549 28.2468 5.19188 27.8214 5.5286C27.3959 5.86531 27.0515 6.29318 26.8133 6.78069C26.5752 7.2682 26.4495 7.80292 26.4454 8.34546C26.4414 8.888 26.5591 9.42455 26.7899 9.91556C27.0207 10.4066 27.3587 10.8396 27.7791 11.1826C27.8753 11.261 27.9754 11.3344 28.0791 11.4027C28.8306 11.8944 29.7378 12.0903 30.6253 11.9524C31.5128 11.8145 32.3177 11.3527 32.8847 10.6561Z" fill="#FFB16D"/>
<path d="M13.5 101.596C13.5 101.596 13.2832 102.759 13.1715 103.91C13.1614 104.017 13.1731 104.125 13.2057 104.227C13.2383 104.329 13.2912 104.423 13.3613 104.504C13.4314 104.585 13.5171 104.651 13.6134 104.698C13.7097 104.745 13.8145 104.773 13.9215 104.778C15.456 104.856 18.738 105.012 19.917 104.971C19.9581 104.969 19.9982 104.958 20.034 104.938C20.0698 104.917 20.1003 104.889 20.1228 104.854C20.1454 104.82 20.1594 104.781 20.1637 104.74C20.168 104.699 20.1625 104.657 20.1476 104.619C20.0939 104.481 19.989 104.368 19.8547 104.304L14.4547 101.76L13.5 101.596Z" fill="url(#paint3_linear_24_3502)"/>
<path d="M13.3359 100.911L13.4878 102.305C13.4878 102.305 14.4336 102.755 15.0872 102.265L14.7088 100.709L13.3359 100.911Z" fill="url(#paint4_linear_24_3502)"/>
<path d="M13.7128 74.7273C13.6378 75.0903 13.1567 92.8739 14.9818 100.865C14.9966 100.928 14.9884 100.994 14.9588 101.051C14.9291 101.109 14.88 101.154 14.8202 101.178C14.3236 101.365 13.7991 101.466 13.2688 101.478C13.1657 101.48 13.0647 101.449 12.9817 101.388C12.8986 101.326 12.8381 101.24 12.8098 101.14C12.2848 99.2857 9.76815 89.9954 9.51278 81.1409C9.2274 71.2465 9.51578 80.8034 9.51578 80.8034L9.79703 74.6909L13.7128 74.7273Z" fill="url(#paint5_linear_24_3502)"/>
<path d="M7.25407 102.144C7.25407 102.144 6.9207 102.729 6.5892 104.288C6.57476 104.354 6.57444 104.423 6.58825 104.489C6.60207 104.556 6.62972 104.619 6.66939 104.674C6.70907 104.729 6.7599 104.775 6.81857 104.809C6.87724 104.843 6.94245 104.865 7.00995 104.872C7.5162 104.927 8.29582 104.999 8.92245 105C8.99047 105 9.05782 104.987 9.12009 104.959C9.18235 104.932 9.23813 104.892 9.28376 104.841C9.3294 104.791 9.36386 104.731 9.38489 104.666C9.40593 104.602 9.41306 104.533 9.40582 104.466C9.34207 103.895 9.13507 102.957 8.47582 102.222L7.25407 102.144Z" fill="url(#paint6_linear_24_3502)"/>
<path d="M6.98438 100.35L7.35038 102.46C7.35038 102.46 7.7295 102.748 8.48662 102.549L8.32575 100.281L6.98438 100.35Z" fill="url(#paint7_linear_24_3502)"/>
<path d="M6.17966 75.2011C4.53529 84.5705 6.29592 98.3986 6.90829 101.108C6.92643 101.189 6.96814 101.263 7.02819 101.32C7.08824 101.378 7.16394 101.416 7.24579 101.431C7.53042 101.481 7.99879 101.524 8.46266 101.393C8.5406 101.372 8.60968 101.326 8.66009 101.262C8.71051 101.199 8.7397 101.121 8.74354 101.041C8.85004 98.8561 8.82416 85.4405 10.3234 80.153C10.3993 79.8852 10.5658 79.6519 10.7944 79.493L13.6257 77.5205L13.872 74.291L6.17966 75.2011Z" fill="url(#paint8_linear_24_3502)"/>
<path d="M16.2587 57.5143C11.5993 57.3928 6.4453 58.6441 6.4453 58.6441C4.97868 66.7359 6.03768 76.0951 6.03768 76.0951C9.63768 77.0757 13.7203 75.59 13.7203 75.59C14.3503 72.2083 17.2389 62.7001 17.2389 62.7001C19.5186 62.4376 21.4014 61.8001 22.9532 60.9466C21.7881 59.5696 21.2492 57.8266 21.0178 56.7969C19.3656 57.2941 17.6957 57.5518 16.2587 57.5143Z" fill="url(#paint9_linear_24_3502)"/>
<path d="M30.0904 50.7816C29.6378 50.2244 29.0562 50.4816 29.0562 50.4816C28.3437 53.3718 24.7245 55.6863 21.0195 56.7989C21.2509 57.8286 21.7898 59.5716 22.9549 60.9486C29.1184 57.559 30.0904 50.7816 30.0904 50.7816Z" fill="url(#paint10_linear_24_3502)"/>
<path d="M29.9776 50.921C30.0241 51.074 29.4672 51.3005 29.1466 50.6746C29.138 50.3746 28.9689 49.0955 29.1492 48.854C30.1115 47.5682 31.9689 45.9624 31.9689 45.9624C32.2771 46.2725 32.0176 46.5718 32.0176 46.5718L31.1154 47.4939C31.2991 47.8314 31.5245 48.1205 31.6272 48.53C31.7026 48.8425 31.6548 49.1721 31.4937 49.4503C31.334 49.7312 31.1187 50.0964 30.9117 50.3818C30.5236 50.9222 29.9776 50.921 29.9776 50.921Z" fill="url(#paint11_linear_24_3502)"/>
<path d="M30.7162 48.0938L29.8953 48.7762L29.6328 49.461L30.3509 50.2732C30.3509 50.2732 30.6082 48.912 30.7923 48.6188C30.9764 48.3255 30.8842 48.1815 30.7162 48.0938Z" fill="url(#paint12_linear_24_3502)"/>
<path d="M8.18925 63.1733L6.44513 58.644C6.44513 58.644 2.0625 61.56 1.3125 65.3029C2.1345 65.3712 3.62887 65.5995 5.08687 66.3529C5.4255 64.5855 8.18925 63.1733 8.18925 63.1733Z" fill="url(#paint13_linear_24_3502)"/>
<path d="M11.9519 67.4557C11.9519 67.4557 7.03937 70.1711 5.41187 67.797C5.07437 67.3038 4.99712 66.8167 5.08599 66.3532C3.62799 65.5998 2.13362 65.3715 1.31162 65.3032C1.08662 66.4316 1.18787 67.635 1.84037 68.8563C4.67837 74.1675 12.5871 68.667 12.5871 68.667L11.9519 67.4557Z" fill="url(#paint14_linear_24_3502)"/>
<path d="M11.5761 53.686L10.0524 57.961C10.0398 57.9954 10.0398 58.033 10.0524 58.0674C10.0649 58.1017 10.0893 58.1305 10.1211 58.1485C10.5231 58.3758 11.9732 59.0358 13.7383 57.9397C13.8295 57.8839 13.9073 57.8088 13.9661 57.7195C14.0249 57.6302 14.0632 57.5291 14.0784 57.4233L14.5941 53.7168L11.5761 53.686Z" fill="url(#paint15_linear_24_3502)"/>
<path d="M14.8388 49.7461C14.8388 49.7461 16.4378 52.8263 16.2173 54.0623C15.9968 55.2983 13.9797 55.1903 12.2273 54.1681L11.0273 50.8467L14.8388 49.7461Z" fill="url(#paint16_linear_24_3502)"/>
<path d="M12.3211 52.5435C12.338 52.5363 12.3531 52.5254 12.3654 52.5118C12.3777 52.4981 12.3868 52.482 12.3922 52.4644C12.3977 52.4469 12.3992 52.4284 12.3968 52.4102C12.3943 52.392 12.388 52.3745 12.3781 52.359C12.2495 52.1584 12.0087 51.7496 11.9341 51.393C11.9341 51.393 11.6431 51.2029 12.6841 50.9644C13.7251 50.7259 15.2754 50.355 15.6091 49.4749C15.9346 48.6169 15.1216 46.443 13.7761 48.156C13.7643 48.1713 13.7492 48.1837 13.7319 48.1923C13.7145 48.2008 13.6955 48.2053 13.6762 48.2053C13.6568 48.2053 13.6378 48.2008 13.6205 48.1923C13.6031 48.1837 13.588 48.1713 13.5762 48.156C13.361 47.8703 12.7936 47.2759 11.9949 47.6254C11.2471 47.9524 11.1582 48.4969 11.1657 48.7718C11.1664 48.7907 11.1628 48.8095 11.1551 48.8268C11.1474 48.8441 11.136 48.8594 11.1215 48.8717C11.1071 48.8839 11.0901 48.8927 11.0718 48.8974C11.0534 48.9021 11.0343 48.9026 11.0157 48.8989C10.6407 48.8239 9.73773 48.7534 9.30723 49.6759C8.95286 50.4356 9.17411 50.8699 9.37773 51.0829C9.3928 51.0985 9.40357 51.1178 9.409 51.1388C9.41442 51.1599 9.41432 51.1819 9.4087 51.2029C9.40307 51.2239 9.39212 51.2431 9.37691 51.2586C9.36169 51.2741 9.34273 51.2854 9.32186 51.2914C9.07361 51.3664 8.75261 51.5715 8.77886 52.1513C8.81636 52.953 9.71186 52.8908 9.96723 52.8566C9.98789 52.8537 10.0089 52.856 10.0286 52.8631C10.0482 52.8702 10.0657 52.882 10.0797 52.8975C10.2961 53.1416 11.2715 54.1785 12.3365 54.3124C12.3577 54.3148 12.3793 54.3119 12.3991 54.3038C12.4189 54.2957 12.4364 54.2827 12.4498 54.266C12.4633 54.2494 12.4723 54.2296 12.4761 54.2086C12.4799 54.1875 12.4783 54.1658 12.4715 54.1455L12.0215 52.7996C12.0115 52.7695 12.0132 52.7367 12.0262 52.7077C12.0392 52.6787 12.0625 52.6556 12.0916 52.6429L12.3211 52.5435Z" fill="url(#paint17_linear_24_3502)"/>
<path d="M12.5057 52.7358C12.5057 52.7358 11.3537 51.9295 11.263 52.5985C11.1722 53.2675 12.2976 53.5784 12.859 53.3343L12.5057 52.7358Z" fill="url(#paint18_linear_24_3502)"/>
<path d="M10.9521 71.7465L13.627 62.4C13.6417 62.3482 13.6715 62.3019 13.7126 62.267C13.7536 62.2321 13.8041 62.2101 13.8576 62.2039C14.3425 62.1473 15.7476 61.9883 17.3699 61.851C19.3244 61.686 21.5935 61.551 22.9499 61.6658C22.9945 61.6691 23.0376 61.6834 23.0754 61.7073C23.1133 61.7312 23.1447 61.7641 23.1669 61.8029C23.1891 61.8418 23.2014 61.8855 23.2028 61.9302C23.2042 61.975 23.1946 62.0194 23.1749 62.0595C22.4035 63.6195 19.2314 69.966 17.6429 72.045C17.6171 72.079 17.5837 72.1065 17.5455 72.1253C17.5072 72.1441 17.465 72.1538 17.4224 72.1534L11.2124 72.0956C11.1702 72.0953 11.1287 72.0851 11.0911 72.0661C11.0535 72.047 11.0208 72.0195 10.9956 71.9857C10.9704 71.9518 10.9534 71.9127 10.9458 71.8712C10.9383 71.8297 10.9404 71.787 10.9521 71.7465Z" fill="url(#paint19_linear_24_3502)"/>
<path d="M11.5941 69.4877C11.5941 69.4877 11.2213 67.9547 11.3717 67.4109C11.5221 66.8672 11.8134 66.1674 12.7847 66.3234C13.7559 66.4794 14.9016 66.8859 14.9016 66.8859C14.9016 66.8859 14.8438 67.5943 14.1058 67.3659L14.5633 67.7199C14.5633 67.7199 14.4981 68.2873 13.8744 67.9824L14.3004 68.4523C14.3004 68.4523 14.0323 68.9181 13.5737 68.6192C13.1151 68.3203 12.8949 69.6729 11.5941 69.4877Z" fill="url(#paint20_linear_24_3502)"/>
<path d="M17.1914 64.641C17.1914 64.7969 17.2376 64.9492 17.3243 65.0787C17.4109 65.2083 17.534 65.3092 17.678 65.3688C17.822 65.4283 17.9804 65.4438 18.1332 65.4132C18.286 65.3827 18.4264 65.3075 18.5364 65.1972C18.6465 65.0869 18.7213 64.9464 18.7515 64.7935C18.7817 64.6406 18.7658 64.4822 18.7059 64.3384C18.646 64.1945 18.5448 64.0716 18.4151 63.9853C18.2853 63.899 18.1329 63.8531 17.977 63.8535C17.7685 63.854 17.5687 63.9372 17.4214 64.0848C17.2741 64.2325 17.1914 64.4325 17.1914 64.641Z" fill="#91B3FA"/>
<path d="M13.9272 65.1594L14.4721 63.311C14.5037 63.2006 14.5647 63.1009 14.6486 63.0225C14.7325 62.9441 14.8361 62.89 14.9483 62.8659C16.6561 62.5096 21.3312 62.4342 21.3781 62.4335L21.3751 62.2246C21.1819 62.2276 16.6332 62.2996 14.9056 62.6615C14.7563 62.6933 14.6186 62.765 14.5069 62.8689C14.3952 62.9729 14.3138 63.1052 14.2714 63.2517L13.7266 65.1005L13.9272 65.1594Z" fill="#BDD0FB"/>
<path d="M83.4881 51.2585C83.5046 51.2272 83.5302 51.2015 83.5614 51.1849C83.5927 51.1682 83.6282 51.1613 83.6634 51.1651C83.6986 51.1688 83.7319 51.1831 83.7589 51.2059C83.786 51.2288 83.8055 51.2592 83.8151 51.2933C83.9737 51.8648 84.3581 52.8616 85.1651 53.2156C85.2056 53.2336 85.2438 53.2531 85.281 53.2696C85.3026 53.2082 85.3093 53.1426 85.3006 53.0781C85.2919 53.0136 85.2679 52.9521 85.2307 52.8987C84.9802 52.5159 85.4325 51.9927 85.4325 51.9927C85.4325 51.9927 85.4625 52.4536 85.8127 52.7427C86.1127 52.9928 86.259 53.5486 86.0531 54.005C85.6166 55.6996 84.9633 57.9406 87.5081 59.5782C90.0528 61.2159 93.6367 56.4886 93.6367 56.4886L91.8581 62.1275C91.8581 62.1275 89.1123 64.1525 85.9192 61.3047C82.7261 58.457 84.8422 54.3102 84.8422 54.3102C84.8422 54.3102 82.4058 53.3277 83.4881 51.2585Z" fill="url(#paint21_linear_24_3502)"/>
<path d="M94.0827 48.2038C94.0827 48.2038 93.3454 44.8967 97.1337 45.772C97.1337 45.772 98.9712 45.472 99.066 47.2071C99.066 47.2071 100.251 47.9882 99.3837 49.4905C99.3837 49.4905 102.906 48.1296 104.441 51.2155C105.976 54.3013 104.565 56.002 103.086 56.4445C103.086 56.4445 104.286 57.0445 103.717 58.4046C103.148 59.7647 100.278 60.7206 98.5797 59.0687C98.5797 59.0687 93.7515 59.7062 93.8483 56.2963C93.8483 56.2963 91.6028 54.8462 93.9608 52.0281C96.3188 49.21 94.0827 48.2038 94.0827 48.2038Z" fill="url(#paint22_linear_24_3502)"/>
<path d="M93.8758 55.8693C94.637 55.6413 96.8533 55.2198 98.9615 57.1653C99.137 57.3272 99.2648 57.5341 99.3309 57.7635C99.397 57.9929 99.399 58.2361 99.3365 58.4665C98.7703 60.5512 97.2763 66.7102 98.5865 69.3753C98.5865 69.3753 96.278 71.92 93.7595 69.8688C93.7595 69.8688 92.6297 64.9439 91.1496 62.7813C90.1277 61.2884 92.7789 57.1762 93.4498 56.1813C93.5517 56.0314 93.7021 55.9212 93.8758 55.8693Z" fill="url(#paint23_linear_24_3502)"/>
<path d="M95.9748 51.7275C95.9748 51.7275 97.0997 54.912 97.1852 56.3168C97.1852 56.3168 95.941 56.8827 94.7688 55.9275C94.7688 55.9275 94.6458 52.7468 94.4688 52.1775L95.9748 51.7275Z" fill="url(#paint24_linear_24_3502)"/>
<path d="M94.4132 47.3857C94.4132 47.3857 91.4687 51.5062 93.229 52.7032C94.9892 53.9002 97.0855 50.9719 97.0855 50.9719C97.0855 50.9719 97.7687 48.7162 97.054 47.9512C96.3392 47.1862 94.4132 47.3857 94.4132 47.3857Z" fill="url(#paint25_linear_24_3502)"/>
<path d="M95.7771 46.4007C95.7771 46.4007 94.4244 46.7213 94.2347 47.3333C94.0449 47.9453 96.1532 48.5131 96.7438 48.5408L97.2197 51.0106C97.2197 51.0106 98.6263 48.6856 98.0691 47.3453C97.5118 46.0051 95.7771 46.4007 95.7771 46.4007Z" fill="url(#paint26_linear_24_3502)"/>
<path d="M96.5156 50.6689C96.5156 50.6689 97.662 49.3418 98.1176 50.2069C98.5732 51.072 97.086 51.7219 96.5711 51.297L96.5156 50.6689Z" fill="url(#paint27_linear_24_3502)"/>
<path d="M90.8194 80.209C90.828 80.434 90.4354 82.2059 90.222 83.152C90.1359 83.5323 90.1957 83.9312 90.3897 84.2695L97.788 96.7217C97.8775 96.8722 97.943 97.0357 97.9823 97.2062C98.118 97.7905 98.3993 99.2226 98.2523 100.525L97.8698 101.32L99.525 100.945L99.885 96.5001L99.4167 96.2144C99.0121 95.9676 98.6968 95.5982 98.5167 95.1599C97.8477 93.535 96.1864 89.3984 95.7582 87.3824C95.2707 85.0911 92.7274 83.2304 92.7274 83.2304L93.174 82.1736L90.8194 80.209Z" fill="url(#paint28_linear_24_3502)"/>
<path d="M101.364 99.4149C101.364 99.4149 100.47 97.9978 100.365 97.4458C100.259 96.8938 99.9667 95.9203 99.4159 96.2136C99.4159 96.2136 99.156 98.8933 99.2456 99.9403C99.3352 100.987 98.0617 100.953 98.0617 100.953C97.8336 100.994 97.6224 101.1 97.4539 101.259C97.2765 101.437 97.4032 101.744 97.6537 101.761C98.2467 101.801 98.8424 101.767 99.4271 101.66C99.5452 101.637 99.6523 101.575 99.7316 101.485C99.8108 101.394 99.8576 101.28 99.8647 101.16L100.048 98.0754L101.176 99.5004L101.364 99.4149Z" fill="url(#paint29_linear_24_3502)"/>
<path d="M95.2386 82.1924C95.2386 82.1924 95.5011 93.3299 95.5349 94.9128C95.5686 96.4957 95.2851 100 93.6992 101.049L94.3892 101.559C94.3892 101.559 95.2517 100.826 96.0943 99.4158C97.0408 97.8311 97.327 97.5408 97.327 97.5408L97.0123 96.9003C96.875 96.6189 96.8347 96.2999 96.898 95.9932C97.24 94.3346 98.3833 88.8176 98.6953 87.6307C99.0632 86.2282 99.0895 84.3554 97.8088 82.7879C96.5282 81.2204 95.2386 82.1924 95.2386 82.1924Z" fill="url(#paint30_linear_24_3502)"/>
<path d="M96.7054 102.061C96.7292 102.062 96.7522 102.053 96.7703 102.038C96.7884 102.023 96.8002 102.001 96.8037 101.978C96.8562 101.607 97.0759 100.118 97.2559 99.7323C97.4618 99.2909 98.1346 97.4328 97.2559 97.2749C97.2559 97.2749 95.0704 100.468 94.6512 100.898C94.2319 101.329 93.7021 101.048 93.7021 101.048C93.4191 101.148 93.1705 101.327 92.9854 101.563C92.9527 101.605 92.9325 101.656 92.9272 101.71C92.9219 101.763 92.9316 101.817 92.9552 101.866C92.9789 101.914 93.0155 101.955 93.0611 101.983C93.1066 102.012 93.1593 102.027 93.2131 102.028L94.6853 102.042C94.894 102.043 95.0984 101.982 95.2716 101.866C95.4448 101.749 95.5787 101.583 95.6558 101.389C95.9149 100.742 96.3601 99.7926 96.8787 99.3719L96.6094 101.953C96.608 101.966 96.6095 101.98 96.6136 101.993C96.6178 102.006 96.6247 102.018 96.6337 102.028C96.6428 102.038 96.6539 102.046 96.6663 102.052C96.6787 102.058 96.6922 102.061 96.7058 102.061L96.7054 102.061Z" fill="url(#paint31_linear_24_3502)"/>
<path d="M93.4144 68.6679C93.4144 68.6679 93.7463 69.725 93.2367 71.4661L90.0758 82.5046C90.0518 82.5881 90.0605 82.6776 90.1002 82.7549C90.14 82.8322 90.2077 82.8914 90.2895 82.9205C91.2349 83.2599 94.3433 84.2191 98.586 83.9266C98.6899 83.92 98.7889 83.8798 98.8681 83.8122C98.9472 83.7446 99.0024 83.6532 99.0252 83.5516L100.455 77.1174C101.205 73.7559 102.039 70.1307 98.3633 67.9385C96.6672 68.6626 95.0869 69.092 93.4144 68.6679Z" fill="url(#paint32_linear_24_3502)"/>
<path d="M99.2635 57.5815C99.2635 57.5815 102.86 60.5702 103.753 64.6544C104.645 68.7385 98.4974 69.1727 98.4974 69.1727C98.4974 69.1727 97.6626 68.2409 96.6719 68.5727C95.6811 68.9046 96.5969 66.9464 97.7545 66.9512C98.9121 66.9561 98.3766 67.8734 100.017 67.1305C101.614 66.4067 102.602 64.168 98.5255 60.7761C98.2878 60.5804 98.1028 60.3284 97.9874 60.043C97.1946 58.0502 97.8227 56.7434 99.2635 57.5815Z" fill="url(#paint33_linear_24_3502)"/>
<path d="M76.7555 88.0967H75.4727V101.97H76.7555V88.0967Z" fill="#7D97F4"/>
<path d="M81.7322 102.237H70.4961V101.495C70.4961 101.471 70.5058 101.447 70.5232 101.43C70.5406 101.412 70.5641 101.402 70.5887 101.402H81.6392C81.6639 101.402 81.6875 101.412 81.705 101.43C81.7224 101.447 81.7322 101.471 81.7322 101.495V102.237Z" fill="#7D97F4"/>
<path d="M82.3914 84.7935H70.31C69.5002 84.7935 68.8438 85.4499 68.8438 86.2597V87.5853C68.8438 88.3951 69.5002 89.0516 70.31 89.0516H82.3914C83.2012 89.0516 83.8576 88.3951 83.8576 87.5853V86.2597C83.8576 85.4499 83.2012 84.7935 82.3914 84.7935Z" fill="#7D97F4"/>
<path d="M64.7438 97.7572C64.7438 97.7572 60.5963 99.5433 60.8341 101.413C60.8341 101.413 65.1211 100.591 65.8883 99.3652C66.6556 98.1397 66.2329 97.4302 66.2329 97.4302L64.7438 97.7572Z" fill="url(#paint34_linear_24_3502)"/>
<path d="M65.7604 95.7153L65.9708 97.5356C65.9881 97.6692 65.9599 97.8047 65.8908 97.9204C65.8217 98.036 65.7157 98.125 65.5898 98.1731C65.4206 98.2294 65.2431 98.2566 65.0648 98.2533C64.9109 98.2547 64.7609 98.2054 64.6378 98.113C64.5147 98.0207 64.4255 97.8903 64.3838 97.7422L63.9766 96.2718L65.7604 95.7153Z" fill="url(#paint35_linear_24_3502)"/>
<path d="M74.8203 81.7575C74.8203 81.7575 67.1921 81.4042 63.3963 83.6179C59.6006 85.8315 63.5887 96.4556 63.5887 96.4556C63.5887 96.4556 64.5802 96.6686 66.0082 95.9055C66.0082 95.9055 63.9705 88.1284 67.5082 86.7754C71.487 85.2544 75.6026 85.6241 75.6026 85.6241L74.8402 81.9975L74.8203 81.7575Z" fill="url(#paint36_linear_24_3502)"/>
<path d="M61.6688 100.592C62.5358 100.402 65.1083 99.3365 65.4987 99.3507C65.8891 99.365 66.4429 99.9507 66.4429 99.9507C66.4429 99.9507 66.5382 100.271 66.2588 100.73C65.5962 101.247 64.1686 102.196 62.5088 102.3C61.2878 102.375 60.5532 101.89 60.1328 101.419C60.5007 101.063 61.0894 100.719 61.6688 100.592Z" fill="url(#paint37_linear_24_3502)"/>
<path d="M62.5088 102.3C64.1685 102.196 65.5961 101.248 66.2588 100.73C66.0713 101.041 65.7105 101.415 65.034 101.797C63.3566 102.745 60.5843 102.607 60.0349 102.393C59.5943 102.223 59.7304 101.811 60.1328 101.418C60.5531 101.89 61.2878 102.375 62.5088 102.3Z" fill="url(#paint38_linear_24_3502)"/>
<path d="M67.3521 98.9982C67.2951 99.2127 66.6876 99.8581 66.3366 100.218C66.2547 100.302 66.1527 100.364 66.0402 100.398C65.9278 100.431 65.8086 100.436 65.6938 100.411C65.5337 100.379 65.3789 100.324 65.2337 100.25C65.1301 100.191 65.0536 100.095 65.0211 99.9803C64.9886 99.866 65.0026 99.7434 65.0601 99.6394L65.9484 98.0239L67.3521 98.9982Z" fill="url(#paint39_linear_24_3502)"/>
<path d="M82.3802 81.1177C82.3802 81.1177 83.0462 85.8427 81.1209 86.8068C79.1957 87.7709 74.9728 88.4043 73.5186 90.8542C72.0643 93.3041 69.4517 98.1131 67.0749 99.4946C67.0749 99.4946 65.7174 99.0532 65.3203 98.3853C65.3203 98.3853 68.1422 90.9678 69.3193 89.1652C70.3386 87.6037 71.8292 85.3544 73.9468 84.3817C74.5532 84.1031 74.6008 83.4599 74.4939 82.8014L74.2997 81.6014L82.3802 81.1177Z" fill="url(#paint40_linear_24_3502)"/>
<path d="M64.5369 75.7627C67.2369 76.5333 68.444 68.9377 68.4331 68.7524L72.5716 73.5899C72.5716 73.5899 70.1056 77.9287 66.3841 78.3899C65.4421 78.5069 64.6411 78.3438 63.9688 78.0359C64.3887 77.3552 64.5872 76.561 64.5369 75.7627Z" fill="url(#paint41_linear_24_3502)"/>
<path d="M59.5358 73.2752C60.7122 72.7918 61.7108 73.7567 61.7108 73.7567C62.8767 74.9496 63.8011 75.5522 64.535 75.7614C64.585 76.5604 64.3859 77.3552 63.965 78.0362C62.5107 77.3702 61.6632 76.0232 61.3137 75.3512C61.2538 75.2345 61.1508 75.1457 61.0265 75.1037C60.9023 75.0617 60.7665 75.0698 60.6481 75.1262C60.3987 75.2466 60.1415 75.4307 60.1253 75.6804C60.0938 76.1732 59.5073 76.2021 59.504 76.0202C59.5006 75.8383 59.9581 74.8652 59.9581 74.8652C59.9581 74.8652 58.6081 75.7322 58.0805 76.0652C57.5528 76.3982 57.1055 75.8496 57.1055 75.8496C57.1055 75.8496 58.3595 73.7597 59.5358 73.2752Z" fill="url(#paint42_linear_24_3502)"/>
<path d="M81.3387 65.6255C81.3387 65.6255 77.7117 63.1505 68.9517 67.6261C68.9517 67.6261 68.0494 68.7698 68.4721 70.0587C68.8947 71.3476 74.0971 78.3252 74.2981 81.6008C74.2981 81.6008 77.8534 83.6937 82.4689 81.6188C82.4701 81.6203 84.0181 72.9713 81.3387 65.6255Z" fill="url(#paint43_linear_24_3502)"/>
<path d="M73.7864 62.4629L75.2197 65.2716C75.2902 65.4082 75.3199 65.5621 75.3052 65.7151C75.2905 65.8681 75.2321 66.0135 75.1368 66.1341C74.7423 66.6284 73.9181 67.2933 72.5118 66.8646C72.3061 66.802 72.1204 66.6866 71.9731 66.5299C71.8259 66.3732 71.7223 66.1806 71.6726 65.9714L70.9297 62.8364L73.7864 62.4629Z" fill="url(#paint44_linear_24_3502)"/>
<path d="M84.0238 75.4342C84.2694 73.7269 79.7578 70.4175 79.7578 70.4175L81.3366 65.625C81.3366 65.625 89.9458 71.7686 88.1353 76.7861C87.8758 77.5054 87.4888 78.0292 87.0167 78.4009C86.1062 76.5326 84.8698 75.7552 84.0238 75.4342Z" fill="url(#paint45_linear_24_3502)"/>
<path d="M77.7324 75.9082C77.7324 75.9082 82.8361 77.3332 83.8947 75.7803C83.9648 75.6768 84.01 75.5585 84.0267 75.4346C84.8727 75.7556 86.1091 76.5329 87.0207 78.4027C84.5975 80.3088 79.9254 78.1721 78.656 77.5312C78.4476 77.426 78.2066 77.4058 77.9836 77.4749C77.5336 77.6159 76.7499 77.8349 76.3141 77.8124C75.6766 77.7772 74.9919 80.0819 73.9063 79.4999C73.9062 79.4969 74.3998 75.5594 77.7324 75.9082Z" fill="url(#paint46_linear_24_3502)"/>
<path d="M71.9508 57.8729C71.9055 57.9104 70.0147 61.2145 69.0525 62.8979C68.9831 63.0191 68.9403 63.1536 68.9266 63.2925C68.913 63.4315 68.9289 63.5717 68.9733 63.7041C69.0177 63.8364 69.0896 63.9579 69.1843 64.0605C69.279 64.1631 69.3943 64.2444 69.5227 64.2993L69.9397 64.4778C70.5093 64.7219 71.7345 64.9278 72.2167 64.537L75.2542 61.3289C75.2542 61.3289 72.9735 56.9879 71.9508 57.8729Z" fill="url(#paint47_linear_24_3502)"/>
<path d="M76.1107 60.4534C76.4835 60.2442 76.9316 59.82 76.5825 59.07C76.2281 58.3077 75.5269 58.2413 75.0754 58.29C74.9873 58.2989 74.8989 58.2764 74.8257 58.2267C74.7524 58.1769 74.6991 58.1029 74.6749 58.0178C74.6445 57.9177 74.5706 57.8303 74.4124 57.804C74.3614 57.795 74.3128 57.7754 74.2698 57.7465C74.2268 57.7176 74.1903 57.6801 74.1627 57.6363C74.135 57.5924 74.1169 57.5433 74.1093 57.4921C74.1017 57.4409 74.1049 57.3886 74.1187 57.3387C74.2271 56.9333 74.2087 56.3828 73.5562 55.9887C72.3994 55.2882 71.3182 56.3055 71.0171 57.1887C70.716 58.0718 72.0131 58.7614 72.8415 58.9017C73.4715 59.0085 73.779 59.7349 73.8915 60.0769C73.9087 60.1305 73.9135 60.1872 73.9058 60.2429C73.8981 60.2986 73.8779 60.3518 73.8469 60.3987L72.9229 61.8027C73.1771 62.1225 73.4025 62.4604 73.6245 62.802C73.7074 62.7128 73.7801 62.6382 73.8371 62.586C74.2384 62.2182 74.952 62.4079 75.246 62.511C75.2935 62.5274 75.3439 62.534 75.3941 62.5303C75.4442 62.5266 75.4931 62.5128 75.5377 62.4897C75.8576 62.3243 76.5041 61.8597 75.9742 60.9807C75.9476 60.9373 75.93 60.8891 75.9225 60.8388C75.9149 60.7885 75.9176 60.7372 75.9303 60.688C75.9431 60.6388 75.9656 60.5926 75.9966 60.5523C76.0276 60.512 76.0664 60.4784 76.1107 60.4534Z" fill="url(#paint48_linear_24_3502)"/>
<path d="M73.2852 63.4032C73.2852 63.4032 73.8762 61.8848 74.5478 61.9692C75.2194 62.0536 75.7215 62.7477 74.8549 63.4692C73.7768 64.3628 73.2852 63.4032 73.2852 63.4032Z" fill="url(#paint49_linear_24_3502)"/>
<path d="M71.2144 79.158H71.187L59.262 79.1453C59.1229 79.1416 58.9907 79.0837 58.8936 78.984C58.7965 78.8843 58.7422 78.7506 58.7422 78.6114C58.7422 78.4723 58.7965 78.3386 58.8936 78.2389C58.9907 78.1392 59.1229 78.0813 59.262 78.0776L71.1852 78.0908C71.3258 78.0887 71.4615 78.1422 71.5629 78.2396C71.6642 78.3371 71.723 78.4706 71.7265 78.6112C71.7299 78.7518 71.6778 78.888 71.5813 78.9903C71.4849 79.0927 71.3519 79.1528 71.2114 79.1576L71.2144 79.158Z" fill="url(#paint50_linear_24_3502)"/>
<path d="M48.547 68.3325H58.4766C58.8355 68.3325 59.1869 68.4346 59.49 68.6267C59.7931 68.8189 60.0354 69.0932 60.1885 69.4178L64.7789 79.1516H52.4387C52.2081 79.1516 51.9828 79.0822 51.792 78.9525C51.6013 78.8228 51.454 78.6387 51.3692 78.4241L47.8094 69.417C47.7619 69.2967 47.7445 69.1667 47.7587 69.0381C47.773 68.9096 47.8185 68.7865 47.8912 68.6796C47.9639 68.5727 48.0617 68.4851 48.176 68.4246C48.2903 68.3642 48.4177 68.3325 48.547 68.3325Z" fill="url(#paint51_linear_24_3502)"/>
<path d="M55.5425 73.3232C55.7578 73.9915 55.5988 74.641 55.1874 74.7733C54.776 74.9057 54.2683 74.4711 54.053 73.8025C53.8378 73.1339 53.9968 72.4847 54.4081 72.3524C54.8195 72.22 55.3273 72.6546 55.5425 73.3232Z" fill="#91B3FA"/>
<path d="M50.1564 104.731C50.0885 104.731 50.0213 104.717 49.9588 104.691C49.899 104.667 49.8446 104.632 49.7988 104.586C49.7531 104.541 49.7169 104.487 49.6924 104.428C49.6679 104.368 49.6556 104.304 49.6563 104.24C49.6569 104.176 49.6705 104.112 49.6963 104.053L60.2045 80.404C60.2598 80.2845 60.3594 80.1912 60.4822 80.1438C60.605 80.0965 60.7414 80.0987 60.8626 80.1501C60.9225 80.1738 60.9769 80.2093 61.0228 80.2545C61.0686 80.2996 61.1048 80.3536 61.1293 80.4131C61.1538 80.4726 61.1661 80.5364 61.1654 80.6008C61.1646 80.6651 61.151 80.7287 61.1251 80.7876L50.6169 104.438C50.5765 104.526 50.5116 104.6 50.4299 104.652C50.3482 104.704 50.2532 104.731 50.1564 104.731Z" fill="#91B3FA"/>
<path d="M61.993 104.731C61.8961 104.731 61.801 104.704 61.7193 104.652C61.6376 104.6 61.5727 104.525 61.5325 104.437L51.0246 80.7875C50.9988 80.7286 50.9851 80.665 50.9844 80.6007C50.9837 80.5363 50.9959 80.4725 51.0204 80.413C51.0449 80.3535 51.0812 80.2995 51.127 80.2544C51.1728 80.2092 51.2273 80.1737 51.2871 80.15C51.4084 80.0987 51.5448 80.0965 51.6677 80.1439C51.7906 80.1912 51.8902 80.2845 51.9456 80.4039L62.4535 104.053C62.4793 104.112 62.4929 104.176 62.4936 104.24C62.4943 104.304 62.482 104.368 62.4575 104.428C62.433 104.487 62.3968 104.541 62.351 104.586C62.3052 104.632 62.2508 104.667 62.191 104.691C62.1283 104.717 62.061 104.731 61.993 104.731Z" fill="#91B3FA"/>
<path d="M82.684 104.731C82.6161 104.731 82.5489 104.717 82.4864 104.691C82.4265 104.667 82.372 104.632 82.3262 104.586C82.2804 104.541 82.2442 104.487 82.2197 104.428C82.1952 104.368 82.1829 104.304 82.1836 104.24C82.1843 104.176 82.198 104.112 82.2239 104.053L92.7317 80.4039C92.7871 80.2845 92.8867 80.1912 93.0095 80.1439C93.1322 80.0965 93.2686 80.0987 93.3899 80.15C93.4496 80.1738 93.504 80.2093 93.5498 80.2545C93.5955 80.2997 93.6317 80.3536 93.6562 80.4131C93.6807 80.4726 93.693 80.5364 93.6923 80.6007C93.6917 80.665 93.6781 80.7285 93.6524 80.7875L83.1445 104.438C83.1041 104.526 83.0392 104.6 82.9575 104.652C82.8758 104.704 82.7808 104.731 82.684 104.731Z" fill="#91B3FA"/>
<path d="M94.5211 104.731C94.4242 104.731 94.3292 104.704 94.2475 104.652C94.1658 104.6 94.1009 104.525 94.0606 104.437L83.552 80.7875C83.5262 80.7286 83.5125 80.665 83.5117 80.6007C83.511 80.5363 83.5233 80.4725 83.5478 80.413C83.5723 80.3535 83.6085 80.2995 83.6544 80.2544C83.7002 80.2092 83.7546 80.1737 83.8145 80.15C83.9357 80.0987 84.0722 80.0965 84.195 80.1439C84.3179 80.1912 84.4176 80.2845 84.473 80.4039L94.9809 104.053C95.0066 104.112 95.0203 104.176 95.021 104.24C95.0216 104.304 95.0094 104.368 94.9849 104.428C94.9604 104.487 94.9242 104.541 94.8784 104.586C94.8326 104.632 94.7782 104.667 94.7184 104.691C94.6559 104.717 94.5888 104.73 94.5211 104.731Z" fill="#91B3FA"/>
<path d="M95.7508 79.6744C95.7643 79.5986 95.7624 79.5208 95.7454 79.4457C95.7283 79.3706 95.6963 79.2997 95.6514 79.2372C95.61 79.1786 95.5554 79.1306 95.492 79.0971C95.4286 79.0636 95.3582 79.0456 95.2865 79.0444H47.4826C47.3882 79.0465 47.296 79.0736 47.2154 79.123C47.1349 79.1724 47.069 79.2424 47.0244 79.3257C46.9746 79.4138 46.9454 79.5121 46.9389 79.6131C46.9324 79.7142 46.9488 79.8154 46.9869 79.9092L47.5051 81.1643C47.6236 81.4519 47.8801 81.6361 48.1636 81.6361H94.9588C95.2213 81.6361 95.4463 81.4272 95.4976 81.1377L95.7508 79.6744Z" fill="#91B3FA"/>
</g>
<defs>
<linearGradient id="paint0_linear_24_3502" x1="52.2867" y1="-3.96586" x2="47.9772" y2="30.0024" gradientUnits="userSpaceOnUse">
<stop stop-color="#FF928E"/>
<stop offset="1" stop-color="#FE7062"/>
</linearGradient>
<linearGradient id="paint1_linear_24_3502" x1="36.1185" y1="48.904" x2="70.7613" y2="27.9475" gradientUnits="userSpaceOnUse">
<stop stop-color="#09005D"/>
<stop offset="1" stop-color="#1A0F91"/>
</linearGradient>
<linearGradient id="paint2_linear_24_3502" x1="47.7961" y1="48.8981" x2="72.3178" y2="28.558" gradientUnits="userSpaceOnUse">
<stop stop-color="#09005D"/>
<stop offset="1" stop-color="#1A0F91"/>
</linearGradient>
<linearGradient id="paint3_linear_24_3502" x1="19.7753" y1="100.002" x2="-0.287368" y2="121.416" gradientUnits="userSpaceOnUse">
<stop stop-color="#09005D"/>
<stop offset="1" stop-color="#1A0F91"/>
</linearGradient>
<linearGradient id="paint4_linear_24_3502" x1="13.3133" y1="101.546" x2="15.0773" y2="101.562" gradientUnits="userSpaceOnUse">
<stop stop-color="#FEBBBA"/>
<stop offset="1" stop-color="#FF928E"/>
</linearGradient>
<linearGradient id="paint5_linear_24_3502" x1="21.5725" y1="75.5867" x2="4.4572" y2="98.3325" gradientUnits="userSpaceOnUse">
<stop stop-color="#09005D"/>
<stop offset="1" stop-color="#1A0F91"/>
</linearGradient>
<linearGradient id="paint6_linear_24_3502" x1="15.3585" y1="95.8636" x2="-4.70457" y2="117.278" gradientUnits="userSpaceOnUse">
<stop stop-color="#09005D"/>
<stop offset="1" stop-color="#1A0F91"/>
</linearGradient>
<linearGradient id="paint7_linear_24_3502" x1="6.95842" y1="101.395" x2="8.48123" y2="101.409" gradientUnits="userSpaceOnUse">
<stop stop-color="#FEBBBA"/>
<stop offset="1" stop-color="#FF928E"/>
</linearGradient>
<linearGradient id="paint8_linear_24_3502" x1="18.5788" y1="73.336" x2="1.46392" y2="96.0815" gradientUnits="userSpaceOnUse">
<stop stop-color="#09005D"/>
<stop offset="1" stop-color="#1A0F91"/>
</linearGradient>
<linearGradient id="paint9_linear_24_3502" x1="-518.981" y1="-327.31" x2="-500.983" y2="-314.001" gradientUnits="userSpaceOnUse">
<stop stop-color="#FF928E"/>
<stop offset="1" stop-color="#FE7062"/>
</linearGradient>
<linearGradient id="paint10_linear_24_3502" x1="21.0107" y1="55.5926" x2="30.0231" y2="55.6776" gradientUnits="userSpaceOnUse">
<stop stop-color="#FEBBBA"/>
<stop offset="1" stop-color="#FF928E"/>
</linearGradient>
<linearGradient id="paint11_linear_24_3502" x1="28.024" y1="54.2846" x2="21.8388" y2="67.9839" gradientUnits="userSpaceOnUse">
<stop stop-color="#FEBBBA"/>
<stop offset="1" stop-color="#FF928E"/>
</linearGradient>
<linearGradient id="paint12_linear_24_3502" x1="30.0343" y1="49.5842" x2="32.5945" y2="45.7284" gradientUnits="userSpaceOnUse">
<stop stop-color="#FEBBBA"/>
<stop offset="1" stop-color="#FF928E"/>
</linearGradient>
<linearGradient id="paint13_linear_24_3502" x1="-520.254" y1="-325.59" x2="-502.256" y2="-312.281" gradientUnits="userSpaceOnUse">
<stop stop-color="#FF928E"/>
<stop offset="1" stop-color="#FE7062"/>
</linearGradient>
<linearGradient id="paint14_linear_24_3502" x1="1.1669" y1="68.1716" x2="12.5716" y2="68.2791" gradientUnits="userSpaceOnUse">
<stop stop-color="#FEBBBA"/>
<stop offset="1" stop-color="#FF928E"/>
</linearGradient>
<linearGradient id="paint15_linear_24_3502" x1="9.57243" y1="61.9154" x2="13.8819" y2="53.5503" gradientUnits="userSpaceOnUse">
<stop stop-color="#FEBBBA"/>
<stop offset="1" stop-color="#FF928E"/>
</linearGradient>
<linearGradient id="paint16_linear_24_3502" x1="15.5986" y1="52.3937" x2="10.6665" y2="49.337" gradientUnits="userSpaceOnUse">
<stop stop-color="#FEBBBA"/>
<stop offset="1" stop-color="#FF928E"/>
</linearGradient>
<linearGradient id="paint17_linear_24_3502" x1="8.06733" y1="46.134" x2="14.4309" y2="51.2336" gradientUnits="userSpaceOnUse">
<stop stop-color="#09005D"/>
<stop offset="1" stop-color="#1A0F91"/>
</linearGradient>
<linearGradient id="paint18_linear_24_3502" x1="14.291" y1="53.5112" x2="9.85348" y2="50.7614" gradientUnits="userSpaceOnUse">
<stop stop-color="#FEBBBA"/>
<stop offset="1" stop-color="#FF928E"/>
</linearGradient>
<linearGradient id="paint19_linear_24_3502" x1="15.6516" y1="60.9664" x2="21.9449" y2="87.1894" gradientUnits="userSpaceOnUse">
<stop stop-color="#09005D"/>
<stop offset="1" stop-color="#1A0F91"/>
</linearGradient>
<linearGradient id="paint20_linear_24_3502" x1="11.3361" y1="67.9037" x2="14.9016" y2="67.9037" gradientUnits="userSpaceOnUse">
<stop stop-color="#FEBBBA"/>
<stop offset="1" stop-color="#FF928E"/>
</linearGradient>
<linearGradient id="paint21_linear_24_3502" x1="83.0312" y1="48.0663" x2="92.6393" y2="63.3148" gradientUnits="userSpaceOnUse">
<stop stop-color="#FEBBBA"/>
<stop offset="1" stop-color="#FF928E"/>
</linearGradient>
<linearGradient id="paint22_linear_24_3502" x1="108.967" y1="45.8923" x2="99.3046" y2="52.3361" gradientUnits="userSpaceOnUse">
<stop stop-color="#09005D"/>
<stop offset="1" stop-color="#1A0F91"/>
</linearGradient>
<linearGradient id="paint23_linear_24_3502" x1="106.253" y1="46.9593" x2="99.2818" y2="57.7327" gradientUnits="userSpaceOnUse">
<stop stop-color="#FF928E"/>
<stop offset="1" stop-color="#FE7062"/>
</linearGradient>
<linearGradient id="paint24_linear_24_3502" x1="94.1913" y1="57.9108" x2="95.9848" y2="53.9272" gradientUnits="userSpaceOnUse">
<stop stop-color="#FEBBBA"/>
<stop offset="1" stop-color="#FF928E"/>
</linearGradient>
<linearGradient id="paint25_linear_24_3502" x1="94.1005" y1="48.2302" x2="97.7411" y2="56.1109" gradientUnits="userSpaceOnUse">
<stop stop-color="#FEBBBA"/>
<stop offset="1" stop-color="#FF928E"/>
</linearGradient>
<linearGradient id="paint26_linear_24_3502" x1="106.372" y1="41.9975" x2="96.7088" y2="48.4412" gradientUnits="userSpaceOnUse">
<stop stop-color="#09005D"/>
<stop offset="1" stop-color="#1A0F91"/>
</linearGradient>
<linearGradient id="paint27_linear_24_3502" x1="95.8144" y1="47.4396" x2="99.4551" y2="55.32" gradientUnits="userSpaceOnUse">
<stop stop-color="#FEBBBA"/>
<stop offset="1" stop-color="#FF928E"/>
</linearGradient>
<linearGradient id="paint28_linear_24_3502" x1="104.198" y1="107.423" x2="90.846" y2="83.2944" gradientUnits="userSpaceOnUse">
<stop stop-color="#FEBBBA"/>
<stop offset="1" stop-color="#FF928E"/>
</linearGradient>
<linearGradient id="paint29_linear_24_3502" x1="101.319" y1="98.9103" x2="97.346" y2="98.8706" gradientUnits="userSpaceOnUse">
<stop stop-color="#09005D"/>
<stop offset="1" stop-color="#1A0F91"/>
</linearGradient>
<linearGradient id="paint30_linear_24_3502" x1="88.9718" y1="89.5197" x2="109.234" y2="96.2229" gradientUnits="userSpaceOnUse">
<stop stop-color="#FEBBBA"/>
<stop offset="1" stop-color="#FF928E"/>
</linearGradient>
<linearGradient id="paint31_linear_24_3502" x1="97.631" y1="99.5913" x2="92.8948" y2="99.5439" gradientUnits="userSpaceOnUse">
<stop stop-color="#09005D"/>
<stop offset="1" stop-color="#1A0F91"/>
</linearGradient>
<linearGradient id="paint32_linear_24_3502" x1="111.795" y1="64.2376" x2="100.388" y2="72.9834" gradientUnits="userSpaceOnUse">
<stop stop-color="#09005D"/>
<stop offset="1" stop-color="#1A0F91"/>
</linearGradient>
<linearGradient id="paint33_linear_24_3502" x1="103.642" y1="70.9122" x2="84.4152" y2="42.6742" gradientUnits="userSpaceOnUse">
<stop stop-color="#FEBBBA"/>
<stop offset="1" stop-color="#FF928E"/>
</linearGradient>
<linearGradient id="paint34_linear_24_3502" x1="61.8853" y1="94.7834" x2="63.1249" y2="99.6457" gradientUnits="userSpaceOnUse">
<stop stop-color="#09005D"/>
<stop offset="1" stop-color="#1A0F91"/>
</linearGradient>
<linearGradient id="paint35_linear_24_3502" x1="65.7162" y1="97.4672" x2="63.5057" y2="96.971" gradientUnits="userSpaceOnUse">
<stop stop-color="#FEBBBA"/>
<stop offset="1" stop-color="#FF928E"/>
</linearGradient>
<linearGradient id="paint36_linear_24_3502" x1="70.0891" y1="92.3046" x2="63.6503" y2="77.0281" gradientUnits="userSpaceOnUse">
<stop stop-color="#09005D"/>
<stop offset="1" stop-color="#1A0F91"/>
</linearGradient>
<linearGradient id="paint37_linear_24_3502" x1="62.1835" y1="99.4848" x2="67.6189" y2="111.273" gradientUnits="userSpaceOnUse">
<stop stop-color="#09005D"/>
<stop offset="1" stop-color="#1A0F91"/>
</linearGradient>
<linearGradient id="paint38_linear_24_3502" x1="65.5447" y1="102.528" x2="59.6" y2="101.194" gradientUnits="userSpaceOnUse">
<stop stop-color="#4F52FF"/>
<stop offset="1" stop-color="#4042E2"/>
</linearGradient>
<linearGradient id="paint39_linear_24_3502" x1="66.8554" y1="99.8665" x2="64.7805" y2="99.4007" gradientUnits="userSpaceOnUse">
<stop stop-color="#FEBBBA"/>
<stop offset="1" stop-color="#FF928E"/>
</linearGradient>
<linearGradient id="paint40_linear_24_3502" x1="72.0024" y1="99.6264" x2="75.4369" y2="81.9044" gradientUnits="userSpaceOnUse">
<stop stop-color="#09005D"/>
<stop offset="1" stop-color="#1A0F91"/>
</linearGradient>
<linearGradient id="paint41_linear_24_3502" x1="78.938" y1="65.1674" x2="58.5958" y2="80.9467" gradientUnits="userSpaceOnUse">
<stop stop-color="#FF928E"/>
<stop offset="1" stop-color="#FE7062"/>
</linearGradient>
<linearGradient id="paint42_linear_24_3502" x1="64.2897" y1="76.3505" x2="57.0518" y2="74.7257" gradientUnits="userSpaceOnUse">
<stop stop-color="#FEBBBA"/>
<stop offset="1" stop-color="#FF928E"/>
</linearGradient>
<linearGradient id="paint43_linear_24_3502" x1="55.5511" y1="87.0762" x2="74.9423" y2="75.0991" gradientUnits="userSpaceOnUse">
<stop stop-color="#FF928E"/>
<stop offset="1" stop-color="#FE7062"/>
</linearGradient>
<linearGradient id="paint44_linear_24_3502" x1="75.1922" y1="65.3852" x2="70.3901" y2="64.3071" gradientUnits="userSpaceOnUse">
<stop stop-color="#FEBBBA"/>
<stop offset="1" stop-color="#FF928E"/>
</linearGradient>
<linearGradient id="paint45_linear_24_3502" x1="56.7208" y1="88.9729" x2="76.1121" y2="76.9961" gradientUnits="userSpaceOnUse">
<stop stop-color="#FF928E"/>
<stop offset="1" stop-color="#FE7062"/>
</linearGradient>
<linearGradient id="paint46_linear_24_3502" x1="79.3465" y1="77.5384" x2="98.4884" y2="104.246" gradientUnits="userSpaceOnUse">
<stop stop-color="#FEBBBA"/>
<stop offset="1" stop-color="#FF928E"/>
</linearGradient>
<linearGradient id="paint47_linear_24_3502" x1="72.8973" y1="59.0943" x2="70.4266" y2="70.3559" gradientUnits="userSpaceOnUse">
<stop stop-color="#FEBBBA"/>
<stop offset="1" stop-color="#FF928E"/>
</linearGradient>
<linearGradient id="paint48_linear_24_3502" x1="76.2015" y1="62.1244" x2="71.4452" y2="56.5632" gradientUnits="userSpaceOnUse">
<stop stop-color="#09005D"/>
<stop offset="1" stop-color="#1A0F91"/>
</linearGradient>
<linearGradient id="paint49_linear_24_3502" x1="73.7776" y1="69.8481" x2="74.415" y2="62.837" gradientUnits="userSpaceOnUse">
<stop stop-color="#FEBBBA"/>
<stop offset="1" stop-color="#FF928E"/>
</linearGradient>
<linearGradient id="paint50_linear_24_3502" x1="73.2266" y1="76.0004" x2="63.7619" y2="79.1043" gradientUnits="userSpaceOnUse">
<stop stop-color="#09005D"/>
<stop offset="1" stop-color="#1A0F91"/>
</linearGradient>
<linearGradient id="paint51_linear_24_3502" x1="60.2369" y1="69.7841" x2="53.4205" y2="76.9883" gradientUnits="userSpaceOnUse">
<stop stop-color="#09005D"/>
<stop offset="1" stop-color="#1A0F91"/>
</linearGradient>
<clipPath id="clip0_24_3502">
<rect width="105.105" height="105" fill="white"/>
</clipPath>
</defs>
</svg>
