<svg width="105" height="106" viewBox="0 0 105 106" fill="none" xmlns="http://www.w3.org/2000/svg">
<path d="M89.4285 64.9248H15.5781V75.6541H89.4285V64.9248Z" fill="#222222"/>
<path d="M91.9164 14H13.1032C10.6019 14 8.57422 16.0058 8.57422 18.4801V67.7827C8.57422 70.257 10.6019 72.2629 13.1032 72.2629H91.9164C94.4177 72.2629 96.4454 70.257 96.4454 67.7827V18.4801C96.4454 16.0058 94.4177 14 91.9164 14Z" fill="#222222"/>
<path d="M92.3895 17.8516H12.6133V67.7927H92.3895V17.8516Z" fill="#FEFEFE"/>
<path d="M0 87.8179V89.409C0 90.2882 0.973525 91 2.16927 91H102.834C104.03 91 104.95 90.2882 104.95 89.409V87.8179H0Z" fill="#222222"/>
<path d="M52.4936 75.5288H9.40455C9.25641 75.6754 2.48406 81.6838 0.41002 86.1325C-0.46827 88.0377 0.103148 89.0425 1.75391 89.0425H103.244C104.895 89.0425 105.466 87.9958 104.588 86.1325C102.471 81.6838 95.7414 75.6649 95.5933 75.5288H52.4936Z" fill="#222222"/>
<path d="M99.5397 86.771H7.71094L14.0811 77.4443H93.1801L99.5397 86.771Z" fill="#9C9EB9"/>
<path d="M98.432 85.1275L98.231 84.8344H92.1041L90.9613 82.5734H96.686L96.485 82.2803H90.8343L89.6915 80.0193H94.9824L94.7919 79.7367H89.5645L88.411 77.4443H87.882L89.0248 79.7367H82.4641L81.5435 77.4443H81.0144L81.9138 79.7367H75.3531L74.6653 77.4443H74.1362L74.8029 79.7367H68.2422L67.7977 77.4443H67.2686L67.7025 79.7367H61.0994L60.8772 77.4443H60.3481L60.5492 79.7367H54.3271V77.4443H53.7345V79.7367H47.2902L47.4489 77.4443H46.9198L46.7082 79.7367H40.1475L40.5813 77.4443H40.0417L39.5866 79.7367H33.0259L33.6926 77.4443H33.1635L32.4757 79.7367H25.9679L26.8673 77.4443H26.3382L25.4176 79.7367H18.8781L20.0103 77.4443H19.4812L18.3278 79.7367H12.529L12.3385 80.0193H18.1691L17.0263 82.2803H10.783L10.5819 82.5734H16.8675L15.7035 84.8344H9.03699L8.83594 85.1275H15.5871L14.7617 86.7605H15.3649L16.1797 85.1275H23.2483L22.5923 86.7605H23.1954L23.8409 85.1275H30.9096L30.4228 86.7605H31.026L31.5021 85.1275H38.5708L38.2428 86.7605H38.8459L39.1634 85.1275H46.232L46.0733 86.7605H46.6764L46.8246 85.1275H53.7345V86.7605H54.3271V85.1275H61.0148L61.1523 86.7605H61.7555L61.6074 85.1275H68.676L68.9829 86.7605H69.586L69.2686 85.1275H76.3372L76.8134 86.7605H77.4166L76.9298 85.1275H83.9984L84.6439 86.7605H85.2471L84.591 85.1275H91.6597L92.4745 86.7605H93.0776L92.2523 85.1275H98.432ZM25.8515 80.0193H32.4333L31.7561 82.2803H24.952L25.8515 80.0193ZM18.7088 80.0193H25.3012L24.3912 82.2803H17.5871L18.7088 80.0193ZM23.3647 84.8344H16.3173L17.4389 82.5734H24.2748L23.3647 84.8344ZM30.9942 84.8344H23.9467L24.8462 82.5734H31.6715L30.9942 84.8344ZM38.6237 84.8344H31.5762L32.2323 82.5734H39.0576L38.6237 84.8344ZM39.1316 82.2803H32.3275L32.9836 80.0193H39.5761L39.1316 82.2803ZM46.2638 84.8344H39.2163L39.6396 82.5734H46.4754L46.2638 84.8344ZM46.4966 82.2803H39.6925L40.1263 80.0193H46.7082L46.4966 82.2803ZM53.7345 84.8344H46.8458L47.0362 82.5734H53.7345V84.8344ZM53.7345 82.2803H47.068L47.2584 80.0193H53.7345V82.2803ZM54.3271 80.0193H60.5703L60.7714 82.2803H54.3271V80.0193ZM54.3271 84.8344V82.5734H60.7926L60.983 84.8344H54.3271ZM89.12 80.0193L90.2417 82.2803H83.427L82.517 80.0193H89.12ZM81.9879 80.0193L82.8768 82.2803H76.0727L75.3954 80.0193H81.9879ZM61.1206 80.0193H67.7131L68.1363 82.2803H61.3322L61.1206 80.0193ZM61.5756 84.8344L61.364 82.5734H68.1892L68.6125 84.8344H61.5756ZM68.2633 80.0193H74.8452L75.5118 82.2803H68.7077L68.2633 80.0193ZM69.2051 84.8344L68.7607 82.5734H75.5965L76.2526 84.8344H69.2051ZM76.8346 84.8344L76.1573 82.5734H82.9932L83.882 84.8344H76.8346ZM84.4746 84.8344L83.5646 82.5734H90.3899L91.5115 84.8344H84.4746Z" fill="#D0D1DE"/>
<path d="M52.4982 89.0425H48.0432C48.0378 89.2652 48.1171 89.4819 48.2654 89.6496C48.3572 89.7339 48.4789 89.779 48.6041 89.7752H56.4028C56.528 89.779 56.6497 89.7339 56.7415 89.6496C56.8898 89.4819 56.9691 89.2652 56.9637 89.0425H52.4982Z" fill="#222222"/>
<path d="M83.9645 63.2498H20.9922V25.2627H83.9222L83.9645 63.2498ZM22.2091 62.0879H82.7899V26.4246H22.2091V62.0879Z" fill="#D0D1DE"/>
<path d="M74.8165 34.8198H68.9648V59.5968H74.8165V34.8198Z" fill="#B2D550"/>
<path d="M63.9651 48.2085H58.1133V59.6077H63.9651V48.2085Z" fill="#D0D1DE"/>
<path d="M53.1213 45.4551H47.2695V59.6074H53.1213V45.4551Z" fill="#FA8825"/>
<path d="M42.2853 37.437H36.4336V59.597H42.2853V37.437Z" fill="#D0D1DE"/>
<path d="M31.4415 42.3042H25.5898V59.6073H31.4415V42.3042Z" fill="#D0D1DE"/>
<path d="M61.1768 43.7911L50.0553 41.6034L39.3465 31.4811L28.7118 40.7764L28.3203 40.3472L39.3677 30.6961L50.341 41.0695L60.9122 43.1421L71.6527 28.1943L72.1289 28.5293L61.1768 43.7911Z" fill="#222222"/>
<path d="M29.8291 40.5351C29.8291 40.7939 29.7515 41.0468 29.6062 41.262C29.4608 41.4772 29.2543 41.6449 29.0126 41.7439C28.7709 41.843 28.5049 41.8689 28.2483 41.8184C27.9917 41.7679 27.7561 41.6433 27.5711 41.4603C27.3861 41.2773 27.2601 41.0441 27.2091 40.7903C27.158 40.5365 27.1842 40.2734 27.2843 40.0343C27.3844 39.7952 27.554 39.5909 27.7715 39.4471C27.989 39.3033 28.2448 39.2266 28.5064 39.2266C28.8572 39.2266 29.1936 39.3645 29.4417 39.6098C29.6897 39.8552 29.8291 40.188 29.8291 40.5351Z" fill="#B2D550"/>
<path d="M39.2798 32.3918C40.0103 32.3918 40.6025 31.806 40.6025 31.0833C40.6025 30.3607 40.0103 29.7749 39.2798 29.7749C38.5492 29.7749 37.957 30.3607 37.957 31.0833C37.957 31.806 38.5492 32.3918 39.2798 32.3918Z" fill="#B2D550"/>
<path d="M51.5205 41.3206C51.5205 41.5794 51.4429 41.8324 51.2976 42.0476C51.1522 42.2627 50.9457 42.4304 50.704 42.5295C50.4623 42.6285 50.1963 42.6544 49.9397 42.6039C49.6831 42.5534 49.4475 42.4288 49.2625 42.2458C49.0775 42.0628 48.9515 41.8297 48.9005 41.5759C48.8494 41.3221 48.8756 41.059 48.9757 40.8199C49.0759 40.5808 49.2454 40.3765 49.4629 40.2327C49.6804 40.0889 49.9362 40.0122 50.1978 40.0122C50.5486 40.0122 50.885 40.15 51.1331 40.3954C51.3811 40.6408 51.5205 40.9736 51.5205 41.3206Z" fill="#B2D550"/>
<path d="M62.3681 43.1732C62.3681 43.432 62.2905 43.685 62.1452 43.9001C61.9998 44.1153 61.7933 44.283 61.5516 44.3821C61.3099 44.4811 61.0439 44.507 60.7873 44.4565C60.5308 44.406 60.2951 44.2814 60.1101 44.0984C59.9251 43.9154 59.7991 43.6823 59.7481 43.4285C59.697 43.1747 59.7232 42.9116 59.8233 42.6725C59.9235 42.4334 60.093 42.229 60.3105 42.0853C60.528 41.9415 60.7838 41.8647 61.0454 41.8647C61.3962 41.8647 61.7326 42.0026 61.9807 42.248C62.2288 42.4934 62.3681 42.8262 62.3681 43.1732Z" fill="#B2D550"/>
<path d="M73.2041 28.6127C73.2041 28.8714 73.1265 29.1244 72.9812 29.3396C72.8358 29.5548 72.6292 29.7225 72.3876 29.8215C72.1459 29.9205 71.8799 29.9465 71.6233 29.896C71.3667 29.8455 71.131 29.7209 70.9461 29.5379C70.7611 29.3549 70.6351 29.1217 70.5841 28.8679C70.533 28.6141 70.5592 28.351 70.6593 28.1119C70.7594 27.8728 70.929 27.6685 71.1465 27.5247C71.364 27.3809 71.6198 27.3042 71.8814 27.3042C72.2322 27.3042 72.5686 27.4421 72.8167 27.6874C73.0647 27.9328 73.2041 28.2656 73.2041 28.6127Z" fill="#B2D550"/>
<path d="M39.0994 38.3162C39.5228 38.224 39.9137 38.0217 40.2316 37.73C40.3552 37.5745 40.5101 37.4461 40.6866 37.3532C40.8871 37.2444 41.0752 37.1146 41.2475 36.9658C41.406 36.8047 41.608 36.6921 41.8295 36.6413C42.1152 36.6413 41.967 36.9344 41.8295 37.1438C41.6919 37.3531 40.9194 37.6672 40.9512 37.9393C40.9829 38.2115 41.9035 37.7928 42.0834 37.6986C42.5173 37.4997 42.5384 37.1438 42.7924 36.7984C43.0464 36.4529 43.0675 36.5471 43.1628 36.7984C43.1751 36.9014 43.1654 37.0059 43.1344 37.1051C43.1035 37.2042 43.0518 37.2959 42.9829 37.3741C42.7725 37.7378 42.4697 38.0409 42.1046 38.2534C42.453 38.0697 42.7621 37.8209 43.0146 37.5206C43.1522 37.3427 43.6389 36.4739 43.9247 36.7146C44.5172 37.1124 42.8665 38.5883 42.5173 38.693C42.8774 38.526 43.2037 38.2955 43.4802 38.0126C43.6601 37.8556 44.0516 37.4683 44.1257 37.887C44.2209 38.4941 43.0675 38.9338 42.5279 39.2164C42.9008 39.1181 43.2573 38.9664 43.586 38.7663C44.0305 38.5465 44.0411 38.9442 43.586 39.2583C43.3742 39.3921 43.1552 39.5144 42.93 39.6246C42.1763 40.0046 41.3153 40.1226 40.4856 39.9596C40.1364 39.9596 39.4274 40.2213 39.2581 39.9596C38.8771 39.6037 39.0888 38.8082 39.0994 38.3162Z" fill="#FBBFAF"/>
<path d="M39.3527 38.191L40.0405 40.5357C40.0405 40.5357 31.7338 42.6293 29.7232 42.9642C27.7127 43.2992 23.2577 38.2538 23.2577 38.2538C23.2577 38.2538 21.7551 34.6215 22.8768 34.6739C23.7551 34.6739 30.1148 39.5099 30.464 39.6879C30.8132 39.8658 39.3527 38.191 39.3527 38.191Z" fill="#B2D550"/>
<path d="M17.6074 79.653C17.5682 80.4261 17.6359 81.2009 17.8085 81.9559C18.0836 82.6991 19.9989 83.8296 19.9989 83.8296C19.9989 83.8296 18.2635 84.1541 17.5968 83.6516C16.651 82.6382 15.93 81.4401 15.4805 80.1345C15.5757 79.7786 16.0625 78.7109 16.0625 78.7109L17.6074 79.653Z" fill="#FBBFAF"/>
<path d="M27.9367 78.6901C27.8973 79.4637 27.9685 80.239 28.1483 80.993C28.4129 81.7362 30.3282 82.8667 30.3282 82.8667C30.3282 82.8667 28.5927 83.1912 27.9367 82.6887C26.9921 81.6744 26.2713 80.4766 25.8203 79.1716C25.9261 78.8157 26.4023 77.748 26.4023 77.748L27.9367 78.6901Z" fill="#FBBFAF"/>
<path d="M15.8518 79.6528C15.8518 79.6528 14.4021 80.1343 14.7937 81.3905C15.0212 82.3329 15.1243 83.3004 15.1005 84.2691H15.5238C15.5238 84.2691 15.6085 82.4686 15.8836 82.5314C16.1587 82.5942 16.7619 84.2691 17.365 84.2691H20.7935C20.7935 84.2691 21.1639 83.9132 20.7935 83.6933C20.4232 83.4735 18.1058 83.5782 17.8412 83.0653C17.5767 82.5524 15.8518 79.6528 15.8518 79.6528Z" fill="#222222"/>
<path d="M26.2854 78.6479C26.2854 78.6479 24.8357 79.1295 25.2273 80.3856C25.4547 81.328 25.5579 82.2956 25.5341 83.2642H25.9574C25.9574 83.2642 26.0421 81.4637 26.3172 81.5266C26.5923 81.5894 27.1955 83.2642 27.8092 83.2642H31.2271C31.2271 83.2642 31.5975 82.9083 31.2271 82.6989C30.8568 82.4896 28.5394 82.5733 28.2854 82.0709C28.0314 81.5684 26.2854 78.6479 26.2854 78.6479Z" fill="#222222"/>
<path d="M25.2979 47.3496C25.2979 47.3496 21.2239 48.7627 18.2716 47.3496C17.0254 48.5464 16.2714 50.1573 16.1552 51.8716C16.0785 53.0066 16.1175 54.1464 16.2716 55.2736C16.7228 58.196 16.8858 61.1548 16.7584 64.1083C16.3034 68.107 15.0547 79.6946 15.0547 79.6946L17.8589 80.1343C17.8589 80.1343 20.4409 66.139 20.7477 64.4328C21.0546 62.7266 22.0387 55.6923 22.0387 55.6923C22.0387 55.6923 23.7847 61.1146 24.2397 63.7419C24.3032 64.1502 25.5519 79.0038 25.5519 79.0038H28.282C28.282 79.0038 28.0704 62.5172 28.0704 63.3337C28.0704 63.6896 27.3402 52.2066 25.2979 47.3496Z" fill="#FA8825"/>
<path d="M23.8839 57.8486C23.4437 56.2484 22.6806 54.7529 21.6406 53.4521C21.7781 54.2058 21.8945 54.949 21.9792 55.7132C21.9792 55.7132 23.4712 60.3609 24.0955 63.1348C24.0003 60.0992 24.3389 59.1989 23.8839 57.8486Z" fill="#E98025"/>
<path d="M22.4257 30.8732C22.14 30.8104 20.7856 27.9946 20.2141 27.4502C19.9284 29.3763 18.7539 33.9402 18.7539 33.9402C20.1824 35.4475 22.9866 34.5264 22.9866 34.5264C22.5606 33.3565 22.3701 32.1154 22.4257 30.8732Z" fill="#F39F90"/>
<path d="M21.8521 24.1637C21.8521 24.1637 24.6245 24.7813 25.1536 25.5768C25.6827 26.3724 25.6827 28.4554 25.979 28.9998C26.1589 29.3347 26.3176 29.6069 26.4022 29.8058C26.4869 30.0046 26.2858 30.0779 26.0425 30.1617C25.9813 30.1806 25.9259 30.2145 25.8815 30.2603C25.8372 30.306 25.8051 30.3621 25.7885 30.4234C25.6192 30.9258 25.1642 32.2133 24.7303 32.3913C23.864 32.5568 22.9664 32.4172 22.1932 31.9965C21.4201 31.5759 20.8202 30.9008 20.4976 30.0884C19.6087 27.6599 20.0743 23.6403 21.8521 24.1637Z" fill="#FBBFAF"/>
<path d="M19.1758 32.9883C20.418 33.5322 21.6898 34.0075 22.9853 34.4119C22.9853 34.4119 25.218 38.7769 25.3768 40.0016C25.5355 41.2263 26.6783 49.5272 26.6783 49.5272C26.6783 49.5272 22.2445 52.3116 15.832 50.1029C15.832 50.1029 17.3663 43.5606 17.0171 40.9751C16.6679 38.3896 16.9642 34.9039 19.1758 32.9883Z" fill="#B2D550"/>
<path d="M18.4011 50.752C18.3271 47.9781 18.9726 45.4449 19.0255 42.6605C19.032 41.7515 18.8558 40.8503 18.507 40.0093C18.1582 39.1682 17.6438 38.4042 16.9938 37.7617C16.8609 38.8288 16.8609 39.9081 16.9938 40.9752C17.343 43.5608 15.8086 50.103 15.8086 50.103C16.652 50.3937 17.5195 50.6109 18.4011 50.752Z" fill="#95B639"/>
<path d="M15.8315 40.6822C17.387 39.3947 16.7521 38.1071 18.3182 36.8929L18.6674 36.6312C18.7415 35.9613 17.1119 36.3067 17.6092 35.5844C18.2441 34.6424 20.8896 33.2083 20.7838 32.2871C20.7255 31.9972 20.7475 31.697 20.8472 31.4183C20.9848 30.7065 21.2811 30.5704 20.7203 30.0575C20.3287 29.6912 19.9901 29.2934 20.3076 28.7386C20.625 28.1838 20.9742 28.1629 21.3658 28.5816C21.461 28.6967 21.9266 29.6284 22.043 29.0945C22.043 28.9584 21.8843 28.6758 21.8631 28.5083C21.8528 28.4109 21.8645 28.3125 21.8975 28.2201C21.9304 28.1278 21.9837 28.0439 22.0536 27.9745C22.3287 27.6814 22.7414 27.5244 23.0377 27.2208C23.334 26.9172 23.4398 26.3729 23.9583 26.174C24.2305 26.0903 24.522 26.0903 24.7943 26.174C24.9212 26.174 25.4503 26.5509 25.535 26.5195C26.4239 26.174 26.0217 24.8028 25.408 24.4259C24.2979 23.629 22.9697 23.1838 21.5986 23.1489C20.7856 23.2555 20.0048 23.5318 19.3079 23.9595C18.611 24.3872 18.014 24.9565 17.5563 25.6297C16.8791 26.4985 16.9214 27.4301 16.4241 28.3618C15.9267 29.2934 15.0061 29.6493 14.4241 30.4553C14.1835 30.8253 14.0292 31.2437 13.9724 31.6801C13.9157 32.1164 13.9579 32.5598 14.0961 32.978C14.3079 33.6044 14.3907 34.2664 14.3394 34.925C14.2019 35.7729 13.5141 36.4009 13.2813 37.2174C13.0208 37.9742 13.0208 38.7949 13.2813 39.5517C13.5881 40.9334 14.5193 41.3521 15.8315 40.6822Z" fill="#222222"/>
<path d="M13.4184 54.52C13.4108 54.9278 13.517 55.3298 13.7253 55.6819C13.8449 55.8297 13.9315 56.001 13.9793 56.1843C14.042 56.3901 14.1235 56.5898 14.2227 56.781C14.3423 56.965 14.4049 57.1797 14.4025 57.3986C14.4025 57.6603 14.0957 57.3986 13.9264 57.2834C13.7571 57.1683 13.6407 56.3309 13.3655 56.2995C13.0904 56.2681 13.302 57.2102 13.3655 57.3462C13.4714 57.7754 13.7888 57.8801 14.0639 58.1941C14.3391 58.5081 14.2332 58.4977 13.9581 58.5291C13.683 58.5605 13.5877 58.3616 13.4502 58.236C13.1488 57.9486 12.9298 57.5875 12.8153 57.1892C12.8997 57.5706 13.0697 57.9283 13.3126 58.236C13.4396 58.4035 14.1168 59.0315 13.8629 59.2828C13.3655 59.7329 12.3285 57.9429 12.3074 57.5661C12.3917 57.9365 12.5384 58.2904 12.7412 58.6128C12.847 58.8117 13.1222 59.2618 12.7412 59.2304C12.1592 59.2304 12.0005 57.9952 11.8312 57.4718C11.8529 57.8278 11.9204 58.1796 12.0322 58.5186C12.1486 58.9792 11.7677 58.8954 11.5666 58.4453C11.488 58.2221 11.4209 57.995 11.3656 57.7649C11.1742 56.992 11.2487 56.178 11.5772 55.4516C11.6936 55.1376 11.5772 54.4048 11.81 54.3106C12.2544 54.028 12.9634 54.3944 13.4184 54.52Z" fill="#FBBFAF"/>
<path d="M13.7561 54.5414L11.1953 54.6774C11.1953 54.6774 11.1953 47.214 11.8408 44.6704C12.4863 42.1267 17.3645 35.2495 18.465 34.7784C19.7877 34.1609 23.7559 35.8252 20.8459 38.0443C17.9359 40.2635 15.2164 45.5392 15.1106 45.7695C15.0048 45.9998 13.7561 54.5414 13.7561 54.5414Z" fill="#B2D550"/>
</svg>
