<svg width="105" height="105" viewBox="0 0 105 105" fill="none" xmlns="http://www.w3.org/2000/svg">
<g clip-path="url(#clip0_24_3715)">
<path d="M17.4804 24.9146C9.85529 31.2169 20.0487 39.3063 14.7677 42.8372C9.48672 46.3681 -12.3831 53.2561 9.64196 66.9188C31.667 80.5816 32.2699 89.6361 47.9922 80.9844C63.7146 72.3326 62.585 70.7783 75.5248 76.627C88.4646 82.4757 101.985 73.3763 97.3887 62.5771C92.7927 51.7779 89.8617 51.9126 95.1119 45.0178C100.362 38.1229 92.1517 19.0352 74.0788 33.7836C56.006 48.5321 44.6942 37.5215 42.7098 32.0057C40.7254 26.49 29.5308 14.9556 17.4804 24.9146Z" fill="url(#paint0_linear_24_3715)"/>
<path d="M82.0586 84.1979C82.0586 84.1979 85.7564 68.312 95.1902 57.0432C96.9227 54.9729 100.283 56.1792 100.296 58.8787C100.333 66.7284 97.8312 79.5691 82.0586 84.1979Z" fill="#B2D550"/>
<path d="M97.9201 58.7161C97.6399 59.9102 97.2757 61.074 96.8842 62.2309C96.4927 63.3879 96.0544 64.5282 95.5769 65.654C94.63 67.9102 93.532 70.1 92.2906 72.2086C91.6638 73.2596 91.0121 74.2969 90.3072 75.2991C89.9625 75.8049 89.5901 76.2921 89.2288 76.7861C88.8515 77.2689 88.4809 77.7566 88.0816 78.2218C86.5263 80.1139 84.7711 81.8324 82.8465 83.3475C82.8199 83.3686 82.7862 83.3787 82.7523 83.3755C82.7185 83.3723 82.6872 83.3562 82.6649 83.3305C82.6427 83.3048 82.6313 83.2715 82.633 83.2376C82.6347 83.2036 82.6495 83.1716 82.6742 83.1483C84.4361 81.4933 86.0651 79.7022 87.5461 77.7917C87.9225 77.3206 88.2701 76.8266 88.6337 76.3462C88.9794 75.8517 89.3357 75.3655 89.6652 74.8598C89.8298 74.6074 90.007 74.3614 90.1661 74.1065L90.6543 73.346C90.8154 73.0912 90.9701 72.8319 91.1283 72.5752C91.2864 72.3184 91.4407 72.0587 91.5915 71.7975C91.9015 71.2801 92.1969 70.7533 92.4937 70.2281C92.7817 69.6974 93.0697 69.1668 93.3455 68.6293C93.9079 67.5602 94.4297 66.4702 94.9408 65.3742C95.452 64.2783 95.9279 63.1658 96.3814 62.0435C96.8349 60.9212 97.2699 59.7882 97.6624 58.6458V58.6424C97.6736 58.6108 97.6965 58.5846 97.7263 58.5693C97.7562 58.5539 97.7908 58.5505 97.823 58.5598C97.8553 58.5691 97.8828 58.5903 97.8999 58.6192C97.9171 58.6481 97.9225 58.6824 97.9152 58.7152L97.9201 58.7161Z" fill="#DCE5FE"/>
<path d="M85.4336 83.0347C85.4336 83.0347 93.1764 71.909 101.829 69.0732C103.975 68.3702 105.818 70.73 104.625 72.6466C102.203 76.5397 96.8435 81.8997 85.4336 83.0347Z" fill="#CEE58B"/>
<path d="M103.801 70.7791C103.137 71.3835 102.457 71.9615 101.768 72.5326C101.42 72.8143 101.073 73.096 100.722 73.3732C100.372 73.6505 100.019 73.9263 99.6628 74.1968C98.241 75.2821 96.7823 76.3172 95.2869 77.302C94.5454 77.8024 93.7809 78.2671 93.0248 78.7455L91.8712 79.4333C91.6789 79.5476 91.4875 79.6632 91.2932 79.775L90.7074 80.1006C89.1551 80.9911 87.5436 81.7736 85.9234 82.5298C85.9101 82.5362 85.8956 82.5399 85.8808 82.5407C85.8659 82.5415 85.8511 82.5394 85.8371 82.5345C85.8232 82.5295 85.8103 82.5219 85.7992 82.512C85.7882 82.5021 85.7792 82.4902 85.7728 82.4768C85.7664 82.4634 85.7627 82.4489 85.7619 82.4341C85.7611 82.4193 85.7632 82.4045 85.7681 82.3905C85.773 82.3765 85.7807 82.3637 85.7905 82.3526C85.8004 82.3416 85.8124 82.3326 85.8258 82.3262H85.8287L87.0272 81.734L87.6242 81.4348C87.8224 81.3333 88.0147 81.2254 88.2144 81.1214L89.3948 80.4951C89.7853 80.2793 90.17 80.0557 90.5581 79.837L91.139 79.507L91.7126 79.1653L92.8583 78.4785C93.6096 77.9991 94.3716 77.5339 95.1073 77.033C95.8527 76.5448 96.5845 76.0367 97.3167 75.5285L98.4029 74.7474L99.4768 73.9522C99.8347 73.6866 100.186 73.4152 100.541 73.1433C100.896 72.8714 101.243 72.5936 101.592 72.3168C102.288 71.7613 102.979 71.1941 103.648 70.6117C103.67 70.5917 103.699 70.5815 103.729 70.5832C103.759 70.5849 103.787 70.5984 103.807 70.6207C103.827 70.643 103.837 70.6724 103.836 70.7023C103.834 70.7322 103.82 70.7602 103.798 70.7801L103.801 70.7791Z" fill="#DCE5FE"/>
<path d="M27.4756 77.6972C23.9443 78.4036 19.4351 74.5535 17.9823 70.3479C16.4875 66.0198 19.2286 64.2068 19.2071 58.2009C19.1832 51.3783 15.6342 50.3502 13.2866 41.1537C12.757 39.079 9.69226 27.072 13.4912 24.8216C17.006 22.7405 26.8693 28.7128 28.5984 36.356C29.8315 41.8063 26.0199 44.0949 27.4756 50.443C28.7541 56.0129 32.1098 56.0935 33.3961 61.4692C34.9617 68.0106 32.1118 76.7702 27.4756 77.6972Z" fill="#CEE58B"/>
<path d="M27.2176 79.3501C28.1695 71.9993 26.312 60.6592 24.5874 52.438C22.7191 43.5398 20.599 36.2798 20.5781 36.209L20.2852 36.2954C20.3061 36.3676 22.4233 43.6179 24.2881 52.5025C26.0084 60.6973 27.8605 72.0003 26.914 79.3081L27.2176 79.3501Z" fill="#DCE5FE"/>
<path d="M24.0525 80.3735C28.6842 77.96 30.2698 69.6724 27.6366 66.9792C25.8577 65.1593 23.3066 67.0734 20.8452 65.1866C17.7029 62.778 20.0154 58.242 17.5438 52.3586C15.4413 47.3515 10.3985 42.6139 7.45096 43.5863C4.36576 44.6036 2.74114 52.1536 5.37577 56.6974C7.08923 59.6523 9.71166 59.7973 10.2809 62.5457C10.9409 65.7348 7.75119 67.1891 7.7341 70.2806C7.70286 75.834 17.9246 83.5661 24.0525 80.3735Z" fill="#B2D550"/>
<path d="M21.5516 82.4963C21.5836 82.4962 21.615 82.488 21.6429 82.4724C21.6709 82.4569 21.6944 82.4345 21.7113 82.4074C21.7282 82.3803 21.738 82.3493 21.7397 82.3174C21.7414 82.2854 21.735 82.2536 21.721 82.2249C15.5804 69.5716 13.7795 54.8925 13.7639 54.7455C13.7618 54.7202 13.7546 54.6956 13.7428 54.6732C13.731 54.6507 13.7147 54.6308 13.6951 54.6148C13.6754 54.5988 13.6527 54.5868 13.6283 54.5798C13.6039 54.5727 13.5784 54.5706 13.5532 54.5736C13.528 54.5766 13.5036 54.5847 13.4816 54.5973C13.4596 54.61 13.4403 54.6269 13.425 54.6472C13.4097 54.6674 13.3986 54.6905 13.3924 54.7151C13.3862 54.7397 13.3851 54.7654 13.389 54.7904C13.4066 54.9369 15.2147 69.6795 21.3832 82.3899C21.3985 82.4216 21.4224 82.4484 21.4521 82.4672C21.4819 82.486 21.5164 82.4961 21.5516 82.4963Z" fill="#DCE5FE"/>
<path d="M8.95201 58.547C8.97197 58.5472 8.99141 58.5407 9.00718 58.5284C9.02607 58.5137 9.03837 58.4921 9.04138 58.4683C9.0444 58.4445 9.0379 58.4205 9.02329 58.4015C7.08478 55.9119 4.93637 52.1759 5.71011 48.4976C6.17045 46.3067 7.4675 45.1644 7.47971 45.1532C7.48948 45.1457 7.49762 45.1363 7.50362 45.1255C7.50962 45.1148 7.51335 45.1029 7.51459 45.0906C7.51583 45.0784 7.51456 45.066 7.51084 45.0543C7.50712 45.0425 7.50104 45.0317 7.49296 45.0223C7.48489 45.013 7.475 45.0055 7.46391 45.0001C7.45281 44.9948 7.44073 44.9918 7.42843 44.9913C7.41612 44.9908 7.40384 44.9928 7.39234 44.9972C7.38085 45.0016 7.37037 45.0084 7.36157 45.017C7.3069 45.0658 6.00642 46.211 5.53339 48.4605C5.09892 50.5279 5.3269 53.9514 8.8827 58.5123C8.89095 58.5229 8.90146 58.5315 8.91345 58.5375C8.92544 58.5435 8.93861 58.5467 8.95201 58.547Z" fill="#DCE5FE"/>
<path d="M24.4684 79.2683C24.4831 79.2684 24.4976 79.2648 24.5106 79.258C24.5236 79.2512 24.5347 79.2414 24.5431 79.2293C27.5209 74.8846 28.5378 71.5231 27.5619 69.2453C26.6949 67.2204 24.505 66.8436 24.4831 66.8387C24.4712 66.8363 24.4589 66.8363 24.447 66.8388C24.4351 66.8413 24.4238 66.8461 24.4138 66.853C24.4039 66.8599 24.3954 66.8688 24.3889 66.8791C24.3824 66.8893 24.3781 66.9008 24.3762 66.9128C24.3742 66.9248 24.3747 66.9371 24.3776 66.9489C24.3805 66.9606 24.3858 66.9717 24.3931 66.9814C24.4004 66.9912 24.4096 66.9993 24.4201 67.0054C24.4306 67.0115 24.4422 67.0154 24.4543 67.0169C24.4753 67.0203 26.5705 67.3835 27.3974 69.3171C28.3449 71.5343 27.3349 74.8334 24.3942 79.1258C24.3807 79.1455 24.3756 79.1699 24.38 79.1934C24.3844 79.2169 24.3979 79.2377 24.4177 79.2513C24.4324 79.262 24.4501 79.268 24.4684 79.2683Z" fill="#F0F0F0"/>
<path d="M88.0311 81.6605C88.0299 81.9729 87.9052 82.2722 87.6841 82.493C87.4631 82.7138 87.1636 82.8381 86.8512 82.8389H23.0616C22.7492 82.8381 22.4498 82.7138 22.2288 82.493C22.0078 82.2722 21.8832 81.9729 21.8822 81.6605L21.3516 45.0022C21.3516 44.3539 22.1151 43.0886 23.5146 43.1838L85.8568 41.5728C86.2594 41.5622 86.6599 41.6335 87.0342 41.7824C87.4084 41.9313 87.7484 42.1547 88.0337 42.439C88.3189 42.7233 88.5434 43.0627 88.6935 43.4364C88.8436 43.8101 88.9162 44.2105 88.9068 44.6131L88.0311 81.6605Z" fill="url(#paint1_linear_24_3715)"/>
<path d="M86.8677 80.5299C86.8668 80.8256 86.7489 81.1089 86.5398 81.318C86.3307 81.5271 86.0474 81.645 85.7517 81.6459H24.6017C24.3059 81.6451 24.0224 81.5273 23.8133 81.3182C23.6041 81.1091 23.4861 80.8257 23.4852 80.5299L22.9844 47.2512C23.0434 45.2497 24.7994 44.5287 25.8646 44.5712L85.616 42.9685C85.899 42.961 86.1807 43.0111 86.4437 43.1158C86.7068 43.2205 86.9458 43.3776 87.1463 43.5776C87.3468 43.7775 87.5045 44.0161 87.6099 44.2789C87.7154 44.5417 87.7663 44.8231 87.7595 45.1062L86.8677 80.5299Z" fill="#4042E2"/>
<path d="M24.143 64.6463C24.1194 64.6463 24.0967 64.637 24.0799 64.6203C24.0631 64.6037 24.0535 64.5811 24.0532 64.5574L24.0156 61.8594C24.0154 61.8354 24.0246 61.8124 24.0412 61.7952C24.0578 61.778 24.0806 61.7681 24.1045 61.7676C24.1281 61.7683 24.1506 61.7778 24.1676 61.7942C24.1846 61.8106 24.1948 61.8328 24.1963 61.8564L24.2358 64.5555C24.236 64.5673 24.2338 64.5791 24.2295 64.5901C24.2251 64.6011 24.2186 64.6111 24.2104 64.6196C24.2021 64.6281 24.1922 64.6349 24.1814 64.6395C24.1705 64.6442 24.1588 64.6467 24.1469 64.6468L24.143 64.6463Z" fill="#BDD0FB"/>
<path d="M24.0463 58.0331C24.0227 58.0331 24 58.0237 23.9832 58.0071C23.9663 57.9905 23.9568 57.9679 23.9565 57.9442L23.8047 47.6073C23.8076 46.9171 24.0205 46.3659 24.4369 45.9666C25.194 45.2412 26.3793 45.2773 26.4296 45.2793L45.51 44.7677C45.5219 44.7671 45.5337 44.769 45.5448 44.7731C45.556 44.7773 45.5662 44.7836 45.5748 44.7918C45.5835 44.7999 45.5904 44.8097 45.5952 44.8206C45.6 44.8314 45.6026 44.8432 45.6027 44.855C45.6033 44.879 45.5943 44.9021 45.5779 44.9195C45.5614 44.9369 45.5388 44.947 45.5149 44.9478L26.4276 45.4599C26.3744 45.4599 25.2628 45.4233 24.5599 46.0969C24.1801 46.4606 23.9863 46.9688 23.9834 47.6068L24.1352 57.9413C24.1354 57.9652 24.1263 57.9883 24.1096 58.0055C24.093 58.0226 24.0702 58.0326 24.0463 58.0331Z" fill="#BDD0FB"/>
<path d="M92.8387 81.4888H18.3666C18.1641 81.4888 18 81.6529 18 81.8554V84.3431C18 84.5455 18.1641 84.7097 18.3666 84.7097H92.8387C93.0412 84.7097 93.2053 84.5455 93.2053 84.3431V81.8554C93.2053 81.6529 93.0412 81.4888 92.8387 81.4888Z" fill="url(#paint2_linear_24_3715)"/>
<path d="M69.3784 29.6352L34.2164 29.42C33.9426 29.4182 33.6714 29.4724 33.4193 29.5791C33.1672 29.6858 32.9395 29.8428 32.7502 30.0405C32.5609 30.2383 32.4139 30.4725 32.3182 30.729C32.2226 30.9855 32.1803 31.2588 32.1939 31.5323L34.6132 81.4887H73.7417L75.9145 36.8552L69.3784 29.6352Z" fill="#FAB06F"/>
<path d="M70.8401 36.6414C70.5687 36.6318 70.3022 36.5673 70.0564 36.452C69.8106 36.3367 69.5907 36.1728 69.4099 35.9703C69.2291 35.7678 69.0911 35.5308 69.0042 35.2735C68.9174 35.0163 68.8835 34.7442 68.9045 34.4735L69.2814 29.7031L75.9204 36.8303L70.8401 36.6414Z" fill="url(#paint3_linear_24_3715)"/>
<path opacity="0.84" d="M67.3415 35.9866H48.4085C48.2764 35.9836 48.1451 36.0071 48.0222 36.0556C47.8993 36.1042 47.7873 36.1767 47.6929 36.2691C47.5984 36.3615 47.5234 36.4718 47.4722 36.5936C47.4209 36.7154 47.3945 36.8462 47.3945 36.9783C47.3945 37.1104 47.4209 37.2412 47.4722 37.363C47.5234 37.4847 47.5984 37.5951 47.6929 37.6874C47.7873 37.7798 47.8993 37.8524 48.0222 37.9009C48.1451 37.9494 48.2764 37.9729 48.4085 37.97H67.3415C67.4736 37.9729 67.6049 37.9494 67.7278 37.9009C67.8507 37.8524 67.9626 37.7798 68.0571 37.6874C68.1515 37.5951 68.2266 37.4847 68.2778 37.363C68.3291 37.2412 68.3555 37.1104 68.3555 36.9783C68.3555 36.8462 68.3291 36.7154 68.2778 36.5936C68.2266 36.4718 68.1515 36.3615 68.0571 36.2691C67.9626 36.1767 67.8507 36.1042 67.7278 36.0556C67.6049 36.0071 67.4736 35.9836 67.3415 35.9866Z" fill="white"/>
<path opacity="0.84" d="M67.9404 40.4966H48.4358C47.8715 40.4966 47.4141 40.9403 47.4141 41.488C47.4141 42.0358 47.8715 42.4795 48.4358 42.4795H67.9404C68.5048 42.4795 68.9622 42.0353 68.9622 41.4876C68.9622 40.9398 68.5048 40.4966 67.9404 40.4966Z" fill="white"/>
<path opacity="0.84" d="M67.9404 44.373H48.4358C47.8715 44.373 47.4141 44.8173 47.4141 45.365C47.4141 45.9127 47.8715 46.3565 48.4358 46.3565H67.9404C68.5048 46.3565 68.9622 45.9127 68.9622 45.365C68.9622 44.8173 68.5048 44.373 67.9404 44.373Z" fill="white"/>
<path opacity="0.84" d="M67.9404 48.25H48.4358C47.8715 48.25 47.4141 48.6937 47.4141 49.2415C47.4141 49.7892 47.8715 50.2334 48.4358 50.2334H67.9404C68.5048 50.2334 68.9622 49.7892 68.9622 49.2415C68.9622 48.6937 68.5048 48.25 67.9404 48.25Z" fill="white"/>
<path opacity="0.84" d="M67.4768 54.293H39.0773C38.2557 54.293 37.5898 54.7323 37.5898 55.282C37.5898 55.8317 38.2562 56.2739 39.0778 56.2739H67.4773C68.2989 56.2739 68.9652 55.8297 68.9652 55.282C68.9652 54.7343 68.2984 54.293 67.4768 54.293Z" fill="white"/>
<path opacity="0.84" d="M67.4773 58.167H39.0778C38.2562 58.167 37.5898 58.6112 37.5898 59.1589C37.5898 59.7067 38.2562 60.1509 39.0778 60.1509H67.4773C68.2989 60.1509 68.9652 59.7067 68.9652 59.1589C68.9652 58.6112 68.2989 58.167 67.4773 58.167Z" fill="white"/>
<path opacity="0.84" d="M67.4773 62.0439H39.0778C38.2562 62.0439 37.5898 62.4882 37.5898 63.0359C37.5898 63.5836 38.2562 64.0274 39.0778 64.0274H67.4773C68.2989 64.0274 68.9652 63.5836 68.9652 63.0359C68.9652 62.4882 68.2989 62.0439 67.4773 62.0439Z" fill="white"/>
<path opacity="0.84" d="M67.4773 68.0845H39.0778C38.2562 68.0845 37.5898 68.5287 37.5898 69.0764C37.5898 69.6241 38.2562 70.0679 39.0778 70.0679H67.4773C68.2989 70.0679 68.9652 69.6241 68.9652 69.0764C68.9652 68.5287 68.2989 68.0845 67.4773 68.0845Z" fill="white"/>
<path opacity="0.84" d="M67.4773 71.9614H39.0778C38.2562 71.9614 37.5898 72.4052 37.5898 72.9529C37.5898 73.5006 38.2562 73.9448 39.0778 73.9448H67.4773C68.2989 73.9448 68.9652 73.5006 68.9652 72.9529C68.9652 72.4052 68.2989 71.9614 67.4773 71.9614Z" fill="white"/>
<path opacity="0.84" d="M67.4773 75.8379H39.0778C38.2562 75.8379 37.5898 76.2821 37.5898 76.8298C37.5898 77.3776 38.2562 77.8223 39.0778 77.8223H67.4773C68.2989 77.8223 68.9652 77.3785 68.9652 76.8308C68.9652 76.2831 68.2989 75.8379 67.4773 75.8379Z" fill="white"/>
<path d="M43.3776 34.0049H29.6363C28.601 34.0049 27.7617 34.8441 27.7617 35.8794V48.3589C27.7617 49.3942 28.601 50.2335 29.6363 50.2335H43.3776C44.4129 50.2335 45.2522 49.3942 45.2522 48.3589V35.8794C45.2522 34.8441 44.4129 34.0049 43.3776 34.0049Z" fill="#FA8825"/>
<path d="M41.6457 48.3755H40.1758C40.0183 48.3757 39.8648 48.3257 39.7375 48.2329C39.6102 48.14 39.5158 48.0091 39.468 47.859L38.8646 45.9737C38.8299 45.8645 38.7613 45.7692 38.6688 45.7016C38.5763 45.6341 38.4646 45.5977 38.3501 45.5978H34.6996C34.5848 45.5979 34.473 45.6345 34.3804 45.7024C34.2879 45.7702 34.2193 45.8657 34.1846 45.9751L33.589 47.857C33.5414 48.0074 33.4471 48.1388 33.3198 48.232C33.1926 48.3252 33.0389 48.3754 32.8811 48.3755H31.4376C31.3183 48.3754 31.2007 48.3466 31.0949 48.2915C30.989 48.2364 30.898 48.1566 30.8296 48.0588C30.7611 47.9611 30.7173 47.8482 30.7017 47.7299C30.6861 47.6116 30.6993 47.4913 30.7401 47.3791L34.4711 37.1276C34.6036 36.7645 34.8445 36.4509 35.1612 36.2294C35.478 36.0079 35.8552 35.8891 36.2417 35.8892H36.9276C37.3166 35.8891 37.696 36.0095 38.0139 36.2338C38.3317 36.4581 38.5723 36.7753 38.7025 37.1418L42.3452 47.3835C42.3852 47.4956 42.3976 47.6156 42.3815 47.7335C42.3654 47.8514 42.3212 47.9636 42.2527 48.0609C42.1841 48.1581 42.0932 48.2374 41.9875 48.2922C41.8819 48.3469 41.7646 48.3755 41.6457 48.3755ZM37.9093 42.8104L36.7377 38.9617C36.722 38.9105 36.6903 38.8658 36.6472 38.8342C36.6041 38.8026 36.5519 38.7857 36.4985 38.7862C36.445 38.7866 36.3931 38.8043 36.3505 38.8367C36.308 38.869 36.277 38.9142 36.2622 38.9656C35.9542 40.043 35.3962 41.855 35.1008 42.8089C35.0787 42.8817 35.0739 42.9586 35.0868 43.0336C35.0996 43.1086 35.1298 43.1795 35.175 43.2407C35.2201 43.3019 35.279 43.3517 35.3468 43.3862C35.4146 43.4206 35.4895 43.4388 35.5656 43.4391H37.4421C37.5182 43.4391 37.5933 43.4213 37.6614 43.387C37.7294 43.3528 37.7885 43.3031 37.8339 43.242C37.8793 43.1808 37.9097 43.1099 37.9228 43.0349C37.9359 42.9598 37.9313 42.8828 37.9093 42.8099V42.8104Z" fill="white"/>
<path d="M28.9341 44.6887H28.8438V37.1329C28.8443 36.6619 29.0316 36.2105 29.3647 35.8775C29.6977 35.5445 30.1492 35.3573 30.6202 35.3569H33.8479V35.4497H30.6202C30.1732 35.4501 29.7446 35.6278 29.4285 35.9438C29.1124 36.2598 28.9346 36.6883 28.9341 37.1353V44.6887Z" fill="#BDD0FB"/>
<path d="M27.7126 84.9843C27.6506 84.9868 27.5896 84.9676 27.5401 84.9301C27.4906 84.8927 27.4557 84.8391 27.4412 84.7787L23.1483 62.0546C23.1234 61.9204 23.2245 61.7935 23.3748 61.771C23.5252 61.7486 23.6677 61.8384 23.6926 61.9726L27.985 84.6953C28.0104 84.8295 27.9094 84.9569 27.759 84.9794C27.7437 84.9822 27.7282 84.9839 27.7126 84.9843Z" fill="url(#paint4_linear_24_3715)"/>
<path d="M13.233 84.9844C13.2145 84.9844 13.196 84.9828 13.1778 84.9795C13.0284 84.9526 12.9337 84.8228 12.962 84.689L18.0219 62.2622C18.0409 62.1943 18.0852 62.1363 18.1456 62.1C18.2061 62.0637 18.2781 62.0519 18.347 62.0669C18.4964 62.0938 18.5911 62.2236 18.5632 62.3598L13.5029 84.7867C13.4867 84.8452 13.4512 84.8965 13.4023 84.9324C13.3533 84.9682 13.2936 84.9866 13.233 84.9844Z" fill="url(#paint5_linear_24_3715)"/>
<path d="M24.4396 67.6722H17.1039C16.9516 67.6722 16.8281 67.5619 16.8281 67.4257C16.8281 67.2895 16.9516 67.1816 17.1039 67.1816H24.4396C24.5919 67.1816 24.7154 67.292 24.7154 67.4257C24.7154 67.5595 24.5919 67.6722 24.4396 67.6722Z" fill="url(#paint6_linear_24_3715)"/>
<path d="M24.3043 67.6722H17.2352C17.2015 67.6744 17.1678 67.6696 17.136 67.6581C17.1043 67.6467 17.0752 67.6289 17.0506 67.6058C17.026 67.5827 17.0064 67.5548 16.993 67.5238C16.9796 67.4929 16.9727 67.4595 16.9727 67.4257C16.9727 67.392 16.9796 67.3586 16.993 67.3276C17.0064 67.2967 17.026 67.2688 17.0506 67.2457C17.0752 67.2226 17.1043 67.2047 17.136 67.1933C17.1678 67.1819 17.2015 67.1771 17.2352 67.1792H24.3043C24.338 67.1771 24.3717 67.1819 24.4035 67.1933C24.4353 67.2047 24.4643 67.2226 24.4889 67.2457C24.5135 67.2688 24.5331 67.2967 24.5465 67.3276C24.5599 67.3586 24.5668 67.392 24.5668 67.4257C24.5668 67.4595 24.5599 67.4929 24.5465 67.5238C24.5331 67.5548 24.5135 67.5827 24.4889 67.6058C24.4643 67.6289 24.4353 67.6467 24.4035 67.6581C24.3717 67.6696 24.338 67.6744 24.3043 67.6722Z" fill="url(#paint7_linear_24_3715)"/>
<path d="M24.4396 71.7806H17.1039C16.9516 71.7806 16.8281 71.6703 16.8281 71.5366C16.8281 71.4028 16.9516 71.2925 17.1039 71.2925H24.4396C24.5919 71.2925 24.7154 71.4028 24.7154 71.5366C24.7154 71.6703 24.5919 71.7806 24.4396 71.7806Z" fill="url(#paint8_linear_24_3715)"/>
<path d="M25.1062 71.7806H16.2133C16.061 71.7806 15.9375 71.6703 15.9375 71.5366C15.9375 71.4028 16.061 71.2925 16.2133 71.2925H25.1062C25.2585 71.2925 25.3825 71.4028 25.3825 71.5366C25.3825 71.6703 25.2585 71.7806 25.1062 71.7806Z" fill="url(#paint9_linear_24_3715)"/>
<path d="M24.4396 75.889H17.1039C16.9516 75.889 16.8281 75.7787 16.8281 75.6425C16.8281 75.5063 16.9516 75.3984 17.1039 75.3984H24.4396C24.5919 75.3984 24.7154 75.5088 24.7154 75.6425C24.7154 75.7763 24.5919 75.889 24.4396 75.889Z" fill="url(#paint10_linear_24_3715)"/>
<path d="M25.9559 75.889H15.311C15.1587 75.889 15.0352 75.7787 15.0352 75.6425C15.0352 75.5063 15.1587 75.3984 15.311 75.3984H25.9559C26.1087 75.3984 26.2322 75.5088 26.2322 75.6425C26.2322 75.7763 26.1087 75.889 25.9559 75.889Z" fill="url(#paint11_linear_24_3715)"/>
<path d="M24.4409 79.9974H14.4555C14.3032 79.9974 14.1797 79.8871 14.1797 79.7534C14.1797 79.6196 14.3032 79.5093 14.4555 79.5093H24.4409C24.5932 79.5093 24.7167 79.6196 24.7167 79.7534C24.7167 79.8871 24.5932 79.9974 24.4409 79.9974Z" fill="url(#paint12_linear_24_3715)"/>
<path d="M26.6435 79.9974H14.4555C14.3032 79.9974 14.1797 79.8871 14.1797 79.7534C14.1797 79.6196 14.3032 79.5093 14.4555 79.5093H26.6435C26.7958 79.5093 26.9193 79.6196 26.9193 79.7534C26.9193 79.8871 26.7958 79.9974 26.6435 79.9974Z" fill="url(#paint13_linear_24_3715)"/>
<path d="M17.8415 66.2041C17.8415 66.2041 17.6628 66.4862 17.6174 67.278C17.6164 67.2955 17.619 67.313 17.6249 67.3294C17.6309 67.3458 17.6402 67.3609 17.6521 67.3736C17.6641 67.3863 17.6785 67.3965 17.6945 67.4035C17.7105 67.4105 17.7278 67.4141 17.7453 67.4142H19.1454C19.1584 67.4143 19.1713 67.4112 19.183 67.4053C19.1946 67.3994 19.2047 67.3908 19.2124 67.3802C19.2201 67.3696 19.2251 67.3573 19.2271 67.3444C19.2291 67.3315 19.228 67.3183 19.2239 67.3059C19.1419 67.0618 18.8939 66.4711 18.3404 66.1343L17.8415 66.2041Z" fill="url(#paint14_linear_24_3715)"/>
<path d="M17.7773 65.667L17.8564 66.3309C17.8595 66.3588 17.872 66.3848 17.8917 66.4048C17.9115 66.4247 17.9374 66.4374 17.9653 66.4407C18.0637 66.4531 18.1634 66.4521 18.2616 66.4378C18.3092 66.4294 18.3523 66.4043 18.3832 66.3672C18.4142 66.33 18.4309 66.2831 18.4305 66.2347V65.5952L17.7773 65.667Z" fill="url(#paint15_linear_24_3715)"/>
<path d="M21.3032 66.1313C21.1292 66.4315 21.0381 66.7725 21.0391 67.1194C21.04 67.1847 21.0666 67.247 21.1133 67.2927C21.1599 67.3384 21.2227 67.3639 21.288 67.3635H23.4623C23.4845 67.3636 23.5062 67.3567 23.5242 67.3436C23.5422 67.3306 23.5555 67.3121 23.5622 67.2909C23.5689 67.2697 23.5687 67.247 23.5615 67.2259C23.5543 67.2049 23.5406 67.1867 23.5224 67.1741C23.1108 66.8851 22.302 66.3442 21.7162 66.1333L21.3032 66.1313Z" fill="url(#paint16_linear_24_3715)"/>
<path d="M21.082 65.4145L21.2509 66.2346C21.2552 66.2565 21.2638 66.2774 21.2762 66.296C21.2886 66.3146 21.3046 66.3306 21.3232 66.3429C21.3418 66.3553 21.3627 66.3638 21.3847 66.368C21.4066 66.3722 21.4292 66.372 21.4511 66.3674C21.5188 66.3519 21.5834 66.3248 21.642 66.2873C21.6743 66.2666 21.6998 66.2367 21.7152 66.2016C21.7307 66.1664 21.7354 66.1275 21.7289 66.0896L21.5541 65.0957L21.082 65.4145Z" fill="url(#paint17_linear_24_3715)"/>
<path d="M18.0874 54.0127C18.0874 54.0127 17.5016 54.5301 17.3898 55.153C17.278 55.7759 17.7028 65.901 17.7028 65.901C17.7028 65.901 18.2886 65.9986 18.5932 65.8156C18.5932 65.8156 18.952 59.2444 19.2249 57.7262C19.2249 57.7262 20.6562 64.5327 21.053 65.7624C21.053 65.7624 21.6188 65.8312 21.8009 65.7238C21.8009 65.7238 21.426 56.9002 20.9549 55.3317L18.0874 54.0127Z" fill="url(#paint18_linear_24_3715)"/>
<path d="M19.2099 57.515C19.1952 57.5152 19.1808 57.5105 19.169 57.5017C19.1572 57.4929 19.1486 57.4804 19.1445 57.4662L18.9004 56.5348L18.3835 56.2033C18.3752 56.1989 18.368 56.1928 18.3622 56.1855C18.3564 56.1781 18.3522 56.1696 18.3498 56.1606C18.3475 56.1515 18.347 56.142 18.3485 56.1328C18.35 56.1235 18.3534 56.1147 18.3585 56.1068C18.3635 56.0989 18.3702 56.0922 18.378 56.087C18.3858 56.0818 18.3946 56.0783 18.4038 56.0767C18.413 56.0751 18.4225 56.0754 18.4316 56.0776C18.4407 56.0798 18.4492 56.0839 18.4567 56.0896L18.9937 56.4357C19.008 56.4447 19.0183 56.4589 19.0225 56.4753L19.2719 57.4321C19.2764 57.4495 19.2737 57.4679 19.2646 57.4834C19.2554 57.4989 19.2405 57.5101 19.2231 57.5146C19.2187 57.5151 19.2143 57.5153 19.2099 57.515Z" fill="url(#paint19_linear_24_3715)"/>
<path d="M23.8845 48.162C21.412 47.957 20.7656 48.4686 20.7656 48.4686L21.9538 50.3441C21.9538 50.3441 24.3834 50.2953 26.1237 48.9543C25.8414 48.6438 25.6065 48.2933 25.4266 47.9141C24.9402 48.1201 24.411 48.2051 23.8845 48.162Z" fill="url(#paint20_linear_24_3715)"/>
<path d="M27.7573 44.5329C27.7578 44.515 27.7519 44.4975 27.7407 44.4835C27.7296 44.4695 27.7138 44.46 27.6962 44.4565C27.6787 44.453 27.6604 44.4559 27.6448 44.4646C27.6292 44.4734 27.6171 44.4873 27.6108 44.5041L27.2955 45.1773C27.2344 45.3072 27.2148 45.4527 27.2393 45.5942L27.3501 45.9847C27.3662 46.0789 27.3622 46.1754 27.3384 46.2679C27.3146 46.3605 27.2715 46.4469 27.212 46.5217C26.922 46.8839 26.305 47.5468 25.4258 47.911C25.6057 48.2902 25.8406 48.6407 26.1229 48.9513C26.7619 48.4592 27.3077 47.7929 27.6069 46.8907C27.6767 46.8693 27.7374 46.8254 27.7797 46.7659C27.822 46.7064 27.8434 46.6346 27.8407 46.5617L27.7573 44.5329Z" fill="url(#paint21_linear_24_3715)"/>
<path d="M24.7023 49.2497C23.8319 48.3115 22.1741 47.8882 21.2144 47.714C21.0108 47.6762 20.8005 47.7115 20.6204 47.8137C20.4404 47.9159 20.3022 48.0783 20.2302 48.2724C19.7982 49.4333 18.6232 52.454 18.3957 52.9735C18.2087 53.3991 18.014 53.8155 17.89 54.0752C17.8543 54.1499 17.8496 54.2357 17.8771 54.3137C17.9045 54.3918 17.9618 54.4558 18.0364 54.4916C18.8443 54.8822 20.2971 55.3215 20.8863 55.4929C20.9165 55.5016 20.9484 55.5032 20.9793 55.4974C21.0102 55.4917 21.0394 55.4789 21.0645 55.4599C21.0896 55.441 21.11 55.4164 21.1239 55.3883C21.1379 55.3601 21.1452 55.3291 21.1451 55.2976C21.1451 55.1831 21.1762 55.0708 21.2349 54.9725L23.4663 51.2546C24.8566 52.7963 26.0746 52.9373 27.0099 52.6C26.8552 52.1253 26.7515 51.6355 26.7004 51.1389C25.3155 50.9031 24.7023 49.2497 24.7023 49.2497Z" fill="url(#paint22_linear_24_3715)"/>
<path d="M28.9794 50.8813L28.7305 50.5483C27.9226 51.1029 27.2479 51.2347 26.6953 51.14C26.7464 51.6366 26.8502 52.1264 27.0048 52.6011C28.2374 52.1564 28.9794 50.8813 28.9794 50.8813Z" fill="url(#paint23_linear_24_3715)"/>
<path d="M28.8043 50.887L30.2097 50.9417L31.5033 50.2192C31.3174 50.103 30.2658 50.3388 30.2658 50.3388C30.2658 50.3388 29.168 50.1729 28.8712 50.1724C28.6241 50.1724 28.6593 50.5268 28.6759 50.6473C28.6798 50.6718 28.6832 50.6864 28.6832 50.6864L28.8043 50.887Z" fill="url(#paint24_linear_24_3715)"/>
<path d="M22.5306 45.9941L21.7891 47.8004C21.7891 47.8004 22.6409 48.3901 23.3263 48.3339L23.6963 46.7069L22.5306 45.9941Z" fill="url(#paint25_linear_24_3715)"/>
<path d="M23.7814 44.7581C23.7985 44.782 24.3184 46.6585 24.3184 46.6585L23.241 46.9324L22.4844 45.2272C22.4844 45.2272 23.4973 44.3554 23.7814 44.7581Z" fill="url(#paint26_linear_24_3715)"/>
<path d="M22.8925 45.4859L23.2205 46.4134C23.2246 46.4252 23.2304 46.4364 23.2376 46.4466C23.282 46.51 23.4514 46.716 23.6516 46.5305C23.8337 46.3616 24.0021 46.2108 24.1578 46.183C24.1914 46.1771 24.2259 46.1837 24.2549 46.2018C24.2838 46.2198 24.305 46.2479 24.3145 46.2806C24.3983 46.5771 24.4588 46.8797 24.4956 47.1857C24.4986 47.2196 24.4888 47.2535 24.4681 47.2806C24.4474 47.3076 24.4174 47.326 24.3838 47.3321C24.1734 47.3721 23.7272 47.4439 23.3548 47.4175C23.3301 47.4159 23.3063 47.4076 23.2858 47.3936C23.2654 47.3796 23.2491 47.3604 23.2386 47.338C23.1361 47.1134 22.8217 46.4329 22.7045 46.2567C22.5947 46.0912 22.3257 46.0961 22.2125 46.1058C22.1943 46.1075 22.1759 46.1055 22.1586 46.0999C22.1412 46.0943 22.1251 46.0852 22.1114 46.0731C22.0138 45.9862 21.8244 45.7651 22.089 45.5005C22.1021 45.4874 22.1124 45.4719 22.1193 45.4547C22.1263 45.4376 22.1297 45.4192 22.1294 45.4007C22.1291 45.3822 22.125 45.3639 22.1175 45.347C22.1099 45.3301 22.0991 45.3149 22.0855 45.3023C21.9723 45.1954 21.8507 45.006 22.0401 44.7712C22.2296 44.5364 22.4863 44.5706 22.6416 44.6247C22.672 44.6357 22.7053 44.6356 22.7356 44.6244C22.766 44.6133 22.7914 44.5918 22.8075 44.5637C22.8187 44.5446 22.8354 44.5292 22.8554 44.5198C22.8755 44.5104 22.898 44.5073 22.9198 44.511C22.9388 44.5126 22.9579 44.5102 22.9758 44.5039C22.9938 44.4976 23.0102 44.4875 23.0241 44.4745C23.0379 44.4614 23.0488 44.4455 23.0561 44.4279C23.0633 44.4103 23.0668 44.3914 23.0663 44.3724C23.0633 44.2191 23.118 44.0263 23.3836 43.9438C23.8542 43.7973 24.1476 44.2518 24.1768 44.5911C24.2061 44.9303 23.6887 45.0602 23.3811 45.0372C23.1488 45.0202 22.9764 45.2501 22.9071 45.3614C22.895 45.3795 22.8873 45.4002 22.8848 45.4219C22.8822 45.4435 22.8849 45.4655 22.8925 45.4859Z" fill="url(#paint27_linear_24_3715)"/>
<path d="M22.8281 46.5979C22.8281 46.5979 22.75 46.0091 22.5059 45.9799C22.2619 45.9506 22.0222 46.1527 22.2658 46.4832C22.5699 46.8947 22.8281 46.5979 22.8281 46.5979Z" fill="url(#paint28_linear_24_3715)"/>
<path d="M84.766 40.7065C84.766 40.7065 84.2368 40.7344 84.1719 41.823C84.1719 41.823 85.3991 42.9228 87.0564 43.1845C87.1809 43.204 86.8822 42.3351 86.8373 42.2174C86.6239 41.6575 85.9517 41.2967 84.766 40.7065Z" fill="url(#paint29_linear_24_3715)"/>
<path d="M78.8083 39.4263H79.9248C79.9248 39.4263 83.3517 35.6415 85.5992 35.2593C85.5992 35.2593 87.1613 37.2568 85.5162 40.9884C85.3834 41.2886 85.0124 41.4219 84.7352 41.2452C84.6546 41.1952 84.5922 41.1208 84.557 41.0328L84.6893 37.8466C84.6893 37.8466 81.7661 40.4031 81.258 40.8966C80.7498 41.3901 78.1684 41.0894 78.8083 39.4263Z" fill="url(#paint30_linear_24_3715)"/>
<path d="M89.6029 47.3723C89.1352 46.9623 88.3898 46.5024 87.3134 46.3706L86.9492 46.5932C87.1387 46.8535 87.359 47.0899 87.6053 47.2971C87.9958 47.5237 88.5968 47.8297 89.0957 47.8966C89.5795 47.961 89.6522 47.6681 89.6029 47.3723Z" fill="url(#paint31_linear_24_3715)"/>
<path d="M86.8373 42.2172C86.5492 42.3104 86.4223 42.719 85.691 42.4485C85.1569 42.2517 84.651 41.9853 84.1865 41.6562C84.1807 41.709 84.1758 41.7641 84.1719 41.8227C84.1719 41.8227 85.4655 43.0529 87.1228 43.315C87.1514 43.3193 87.1805 43.316 87.2074 43.3054C87.2342 43.2949 87.2579 43.2775 87.2759 43.2549C87.2939 43.2324 87.3057 43.2055 87.3101 43.177C87.3145 43.1485 87.3114 43.1194 87.301 43.0924C87.182 42.7832 87.0263 42.4893 86.8373 42.2172Z" fill="#7D97F4"/>
<path d="M89.9555 47.7221C89.8455 47.5981 89.7278 47.4812 89.603 47.3721C89.6519 47.6679 89.5811 47.9608 89.0958 47.8963C88.5969 47.8295 87.9955 47.5234 87.6055 47.2969C88.0936 47.7133 88.8371 48.1556 89.7749 48.1297C89.822 48.1296 89.8682 48.1158 89.9077 48.09C89.9472 48.0643 89.9783 48.0276 89.9975 47.9845C90.0166 47.9414 90.0228 47.8936 90.0153 47.8471C90.0079 47.8005 89.9871 47.7571 89.9555 47.7221Z" fill="#7D97F4"/>
<path d="M78.8471 40.2339L84.0759 40.29C84.0759 40.29 87.062 42.7606 87.6034 46.5278C87.6034 46.5278 87.6932 46.8046 87.1537 46.8519C87.1537 46.8519 85.3475 45.673 84.1711 43.5886C82.728 41.0325 80.4058 41.9449 80.4058 41.9449C77.5891 42.9051 76.625 41.4792 76.6016 41.1419L78.8471 40.2339Z" fill="url(#paint32_linear_24_3715)"/>
<path d="M78.9706 36.022C78.9706 36.022 79.5335 38.8431 82.2902 39.959L83.2714 39.8433L83.5028 40.2124L81.2016 40.2856C81.2016 40.2856 79.2342 39.5045 78.1925 37.384C78.1593 37.3137 77.5857 36.1289 78.9706 36.022Z" fill="url(#paint33_linear_24_3715)"/>
<path d="M79.2746 40.1879C79.2746 40.1879 78.6346 38.4481 78.4969 36.7576C78.4969 36.7576 78.9655 36.3548 79.258 36.1815C79.3036 36.1545 79.3375 36.1113 79.3528 36.0605C79.3681 36.0097 79.3637 35.9549 79.3405 35.9072C79.1257 35.461 77.8242 33.7105 77.7266 33.6865C77.1969 33.5542 75.0241 32.5213 73.4932 34.614C72.8366 35.5123 73.6235 38.2777 76.6038 41.1418L76.7014 41.1608C77.0355 41.2247 77.3815 41.174 77.6831 41.0168L79.2746 40.1879Z" fill="url(#paint34_linear_24_3715)"/>
<path d="M76.8054 37.1387C76.8054 37.1387 78.5838 39.2441 80.8572 39.5522C80.8572 39.5522 81.443 39.0152 81.8824 39.2075C82.3217 39.3999 82.9182 40.2429 82.9182 40.2429H79.999C79.999 40.2429 77.2389 40.1453 75.8594 38.4719C75.9697 37.8861 76.3021 37.5365 76.8054 37.1387Z" fill="url(#paint35_linear_24_3715)"/>
<path d="M75.7679 32.21L75.3774 33.5075C75.3685 33.5365 75.369 33.5675 75.379 33.5961C75.3889 33.6247 75.4076 33.6494 75.4326 33.6666C75.62 33.7945 76.1096 34.0499 76.7814 33.8019C76.8189 33.7876 76.8516 33.7629 76.8758 33.7308C76.8999 33.6987 76.9144 33.6603 76.9176 33.6203L77.0098 32.4897L75.7679 32.21Z" fill="url(#paint36_linear_24_3715)"/>
<path d="M78.0482 31.159C78.0482 31.159 77.8569 32.5039 77.3404 32.9164C76.8239 33.3289 75.8163 33.0184 75.4766 32.0045L76.1541 30.272L78.0482 31.159Z" fill="url(#paint37_linear_24_3715)"/>
<path d="M76.076 31.3936C76.0852 31.3966 76.0949 31.3975 76.1045 31.3963C76.1141 31.3951 76.1233 31.3919 76.1315 31.3869C76.1397 31.3818 76.1467 31.3751 76.152 31.367C76.1574 31.359 76.1609 31.3499 76.1624 31.3404C76.181 31.2159 76.2279 30.9704 76.3221 30.8034C76.3221 30.8034 76.2733 30.6272 76.7678 30.8938C77.2623 31.1603 78.0072 31.5518 78.4456 31.3185C78.8722 31.0915 79.3052 29.9467 78.1766 30.1591C78.1666 30.1609 78.1563 30.1605 78.1465 30.1578C78.1366 30.1551 78.1275 30.1502 78.1199 30.1435C78.1122 30.1367 78.1062 30.1284 78.1022 30.119C78.0983 30.1096 78.0965 30.0994 78.097 30.0893C78.1112 29.9013 78.0922 29.4683 77.6543 29.3297C77.2442 29.1993 77.0197 29.3848 76.9269 29.4966C76.9207 29.5044 76.9129 29.5108 76.9039 29.5151C76.895 29.5195 76.8851 29.5217 76.8752 29.5217C76.8652 29.5217 76.8554 29.5195 76.8464 29.5151C76.8374 29.5108 76.8296 29.5044 76.8234 29.4966C76.7004 29.3365 76.367 28.9948 75.8759 29.2115C75.4717 29.3897 75.4087 29.6387 75.4151 29.7939C75.4156 29.8053 75.4132 29.8167 75.4081 29.8269C75.403 29.8371 75.3953 29.8458 75.3858 29.8522C75.3764 29.8586 75.3654 29.8624 75.354 29.8633C75.3426 29.8642 75.3312 29.8622 75.3208 29.8574C75.1968 29.8003 74.9977 29.7705 74.8068 30.0097C74.5427 30.3407 74.9201 30.6272 75.0328 30.7024C75.042 30.7084 75.0496 30.7165 75.0549 30.7262C75.0602 30.7358 75.063 30.7466 75.0631 30.7576C75.0631 30.9294 75.0909 31.6792 75.4668 32.1024C75.4744 32.1108 75.4841 32.1171 75.4948 32.1207C75.5055 32.1243 75.5169 32.1252 75.528 32.1233C75.5392 32.1213 75.5496 32.1166 75.5585 32.1096C75.5673 32.1025 75.5742 32.0934 75.5786 32.0829L75.8681 31.3936C75.8744 31.3781 75.8864 31.3655 75.9016 31.3585C75.9168 31.3514 75.9341 31.3504 75.9501 31.3556L76.076 31.3936Z" fill="url(#paint38_linear_24_3715)"/>
<path d="M76.0819 31.5337C76.0819 31.5337 75.9052 30.8136 75.6367 31.0455C75.3682 31.2774 75.7065 31.7939 76.014 31.8915L76.0819 31.5337Z" fill="url(#paint39_linear_24_3715)"/>
<path d="M82.7734 40.4067L84.0842 36.0356C84.1104 35.9486 84.1625 35.8716 84.2335 35.8149C84.3046 35.7582 84.3913 35.7245 84.482 35.7183L86.2516 35.5973C86.2931 35.5944 86.3346 35.6019 86.3724 35.6191C86.4102 35.6363 86.4432 35.6626 86.4683 35.6956C86.4935 35.7287 86.5101 35.7674 86.5166 35.8085C86.523 35.8495 86.5192 35.8915 86.5055 35.9307L85.041 40.1055C85.0178 40.1714 84.9764 40.2294 84.9215 40.2726C84.8666 40.3159 84.8005 40.3425 84.731 40.3496L82.9882 40.5448L82.7734 40.4067Z" fill="url(#paint40_linear_24_3715)"/>
<path d="M82.9862 40.5425H82.9779L79.2644 40.355C79.2209 40.352 79.1803 40.332 79.1513 40.2994C79.1223 40.2667 79.1074 40.224 79.1096 40.1804C79.1118 40.1368 79.1311 40.0958 79.1633 40.0663C79.1954 40.0368 79.2379 40.0211 79.2815 40.0226L82.9945 40.21C83.0387 40.2111 83.0806 40.2297 83.111 40.2617C83.1414 40.2937 83.1579 40.3365 83.1568 40.3806C83.1557 40.4248 83.1371 40.4667 83.1051 40.4971C83.0731 40.5276 83.0304 40.544 82.9862 40.5429V40.5425Z" fill="url(#paint41_linear_24_3715)"/>
<path d="M78.4983 36.7905C78.4939 36.7905 78.4895 36.7897 78.4855 36.788C78.4814 36.7863 78.4777 36.7838 78.4747 36.7806C78.4716 36.7775 78.4691 36.7738 78.4675 36.7697C78.4659 36.7656 78.465 36.7612 78.4651 36.7568C78.4651 35.9816 78.1683 34.9506 78.1654 34.9423C78.1629 34.9339 78.1639 34.9248 78.1681 34.917C78.1723 34.9092 78.1794 34.9034 78.1878 34.9008C78.192 34.8996 78.1964 34.8991 78.2008 34.8996C78.2052 34.9 78.2094 34.9013 78.2133 34.9034C78.2171 34.9055 78.2205 34.9083 78.2233 34.9117C78.226 34.9152 78.2281 34.9191 78.2293 34.9233C78.2322 34.934 78.5344 35.9724 78.5315 36.7573C78.5316 36.7617 78.5307 36.7661 78.5291 36.7701C78.5275 36.7742 78.525 36.7779 78.5219 36.781C78.5188 36.7841 78.5151 36.7865 78.5111 36.7881C78.507 36.7898 78.5027 36.7906 78.4983 36.7905Z" fill="url(#paint42_linear_24_3715)"/>
<path d="M76.8083 37.1718C76.8033 37.1718 76.7983 37.1706 76.7937 37.1684C76.7892 37.1662 76.7852 37.1631 76.782 37.1591C76.7742 37.1489 75.9614 36.1159 75.6821 35.4076C75.6805 35.4036 75.6796 35.3992 75.6797 35.3949C75.6797 35.3905 75.6806 35.3862 75.6824 35.3822C75.6841 35.3782 75.6866 35.3746 75.6898 35.3716C75.6929 35.3685 75.6966 35.3662 75.7007 35.3646C75.7089 35.3614 75.7181 35.3615 75.7262 35.365C75.7343 35.3685 75.7408 35.375 75.7441 35.3832C76.0199 36.0822 76.8264 37.1074 76.8342 37.1176C76.8373 37.1211 76.8397 37.1251 76.8411 37.1295C76.8426 37.134 76.8431 37.1386 76.8426 37.1433C76.842 37.1479 76.8406 37.1523 76.8382 37.1563C76.8358 37.1603 76.8326 37.1638 76.8288 37.1664C76.8228 37.1705 76.8156 37.1724 76.8083 37.1718Z" fill="url(#paint43_linear_24_3715)"/>
<path d="M75.6652 38.7512L75.6403 38.741C74.4638 38.2372 73.7365 36.8332 73.7306 36.8191C73.7285 36.8152 73.7272 36.8109 73.7267 36.8065C73.7263 36.8021 73.7267 36.7976 73.728 36.7934C73.7293 36.7892 73.7315 36.7853 73.7343 36.7819C73.7372 36.7785 73.7407 36.7757 73.7446 36.7737C73.7486 36.7717 73.7529 36.7704 73.7573 36.7701C73.7617 36.7698 73.7661 36.7703 73.7703 36.7717C73.7745 36.7732 73.7784 36.7754 73.7817 36.7783C73.785 36.7812 73.7877 36.7848 73.7897 36.7888C73.7965 36.8025 74.5024 38.1659 75.6418 38.6687L75.7609 38.5003C75.7634 38.4964 75.7667 38.493 75.7706 38.4905C75.7745 38.4879 75.7789 38.4862 75.7835 38.4855C75.7881 38.4848 75.7929 38.485 75.7974 38.4862C75.8019 38.4874 75.8061 38.4896 75.8097 38.4925C75.8169 38.4976 75.8217 38.5053 75.8233 38.514C75.8248 38.5227 75.8229 38.5316 75.818 38.5389L75.6652 38.7512Z" fill="url(#paint44_linear_24_3715)"/>
<path d="M64.8907 67.1076C64.8907 67.1076 64.7872 54.6496 74.0784 53.7153C83.3697 52.7809 89.1408 56.8137 86.2552 60.4324C83.3697 64.0512 79.0304 67.2668 75.1597 64.6663C71.2891 62.0659 67.2383 62.0502 64.8907 67.1076Z" fill="#91B3FA"/>
<path d="M82.5197 59.1411C82.5025 59.1413 82.4855 59.1365 82.4709 59.1275C82.0486 58.8609 81.6132 58.6125 81.1777 58.3879C81.1565 58.377 81.1405 58.358 81.1332 58.3353C81.1259 58.3125 81.128 58.2878 81.1389 58.2666C81.1498 58.2454 81.1688 58.2293 81.1915 58.2221C81.2143 58.2148 81.239 58.2168 81.2602 58.2278C81.6996 58.4543 82.1389 58.7057 82.567 58.9747C82.5835 58.9852 82.5962 59.0008 82.603 59.0191C82.6099 59.0374 82.6107 59.0575 82.6052 59.0762C82.5996 59.095 82.5882 59.1115 82.5725 59.1232C82.5568 59.1349 82.5378 59.1412 82.5182 59.1411H82.5197Z" fill="url(#paint45_linear_24_3715)"/>
<path d="M80.3234 57.9701C80.311 57.9701 80.2986 57.9675 80.2873 57.9623C78.9267 57.359 77.4871 56.9523 76.012 56.7546C75.9883 56.7514 75.9668 56.739 75.9523 56.72C75.9377 56.7011 75.9313 56.6772 75.9343 56.6535C75.9377 56.6298 75.9503 56.6085 75.9693 56.594C75.9882 56.5794 76.0122 56.573 76.0359 56.5759C77.5278 56.7757 78.9838 57.1866 80.36 57.7963C80.3789 57.8047 80.3944 57.8193 80.4038 57.8378C80.4132 57.8562 80.4159 57.8773 80.4116 57.8975C80.4074 57.9177 80.3963 57.9359 80.3802 57.9489C80.3642 57.962 80.3441 57.9691 80.3234 57.9691V57.9701Z" fill="url(#paint46_linear_24_3715)"/>
<path d="M71.1285 56.9529C71.1067 56.9527 71.0856 56.9445 71.0693 56.93C71.0529 56.9154 71.0424 56.8954 71.0397 56.8736C71.0371 56.8519 71.0424 56.83 71.0546 56.8119C71.0669 56.7937 71.0854 56.7807 71.1066 56.7752C72.3327 56.5118 73.5868 56.4018 74.8401 56.4476C74.8639 56.4485 74.8865 56.4588 74.9028 56.4763C74.9191 56.4938 74.9278 56.517 74.927 56.5409C74.9269 56.5528 74.9244 56.5646 74.9196 56.5756C74.9149 56.5865 74.9079 56.5964 74.8992 56.6045C74.8904 56.6126 74.8801 56.6189 74.8688 56.6229C74.8576 56.6269 74.8456 56.6286 74.8337 56.6278C73.5972 56.583 72.3599 56.6913 71.15 56.9504C71.143 56.9519 71.1358 56.9528 71.1285 56.9529Z" fill="url(#paint47_linear_24_3715)"/>
<path d="M80.6436 60.1532C80.6263 60.1533 80.6093 60.1484 80.5948 60.139C79.9961 59.7631 79.3534 59.4623 78.6812 59.2432C78.6692 59.2402 78.6579 59.2346 78.6481 59.227C78.6383 59.2194 78.6302 59.2098 78.6243 59.1989C78.6184 59.1881 78.6147 59.1761 78.6136 59.1637C78.6125 59.1513 78.614 59.1389 78.6179 59.1271C78.6219 59.1153 78.6282 59.1045 78.6365 59.0953C78.6448 59.0861 78.6549 59.0787 78.6662 59.0735C78.6775 59.0684 78.6897 59.0656 78.7021 59.0654C78.7146 59.0652 78.7269 59.0676 78.7383 59.0724C79.4242 59.2961 80.08 59.6034 80.691 59.9872C80.7073 59.9978 80.7197 60.0134 80.7264 60.0316C80.7331 60.0498 80.7338 60.0697 80.7283 60.0883C80.7228 60.107 80.7115 60.1234 80.696 60.135C80.6805 60.1467 80.6616 60.1531 80.6422 60.1532H80.6436Z" fill="url(#paint48_linear_24_3715)"/>
<path d="M77.3149 58.8759C77.3088 58.8766 77.3025 58.8766 77.2964 58.8759C74.3078 58.2589 71.3017 58.6934 71.2714 58.6982C71.2478 58.7015 71.2238 58.6953 71.2047 58.6811C71.1855 58.6668 71.1727 58.6457 71.1689 58.6221C71.1654 58.5984 71.1715 58.5743 71.1858 58.5551C71.2001 58.5358 71.2214 58.5231 71.2451 58.5196C71.2754 58.5152 74.3132 58.0758 77.333 58.6997C77.3552 58.7037 77.3751 58.716 77.3887 58.7341C77.4023 58.7521 77.4086 58.7746 77.4063 58.7971C77.4041 58.8196 77.3934 58.8404 77.3764 58.8554C77.3595 58.8704 77.3375 58.8784 77.3149 58.8779V58.8759Z" fill="url(#paint49_linear_24_3715)"/>
<path d="M81.2949 62.48C81.2754 62.4801 81.2563 62.4737 81.2407 62.4619C80.7931 62.1307 80.3093 61.8515 79.7987 61.6296C79.7874 61.6251 79.7772 61.6183 79.7687 61.6098C79.7601 61.6012 79.7533 61.591 79.7488 61.5798C79.7442 61.5685 79.742 61.5565 79.7422 61.5444C79.7424 61.5323 79.745 61.5203 79.75 61.5092C79.7549 61.4982 79.762 61.4882 79.7708 61.4799C79.7797 61.4716 79.7901 61.4652 79.8015 61.4611C79.8128 61.4569 79.8249 61.4551 79.837 61.4557C79.8491 61.4563 79.861 61.4593 79.8719 61.4646C80.395 61.6923 80.8906 61.9785 81.3491 62.3179C81.3644 62.3292 81.3757 62.345 81.3814 62.3631C81.3871 62.3812 81.3869 62.4007 81.3809 62.4187C81.3749 62.4367 81.3633 62.4523 81.3479 62.4633C81.3324 62.4743 81.3139 62.4802 81.2949 62.48Z" fill="url(#paint50_linear_24_3715)"/>
<path d="M78.8299 61.2552C78.8207 61.2551 78.8115 61.2538 78.8026 61.2513C77.5861 60.8607 76.1499 60.6191 74.5341 60.539C74.5111 60.5366 74.4899 60.5255 74.4749 60.508C74.4599 60.4905 74.4521 60.4679 74.4532 60.4448C74.4544 60.4217 74.4643 60.4 74.4809 60.384C74.4976 60.368 74.5198 60.359 74.5429 60.3589C76.1748 60.4399 77.6266 60.6825 78.8578 61.0794C78.8785 61.0857 78.8963 61.0993 78.9078 61.1177C78.9193 61.1361 78.9237 61.158 78.9203 61.1794C78.9169 61.2008 78.9059 61.2203 78.8893 61.2342C78.8727 61.2481 78.8516 61.2556 78.8299 61.2552Z" fill="url(#paint51_linear_24_3715)"/>
<path d="M71.3915 60.5936C71.3683 60.5937 71.346 60.5849 71.3291 60.569C71.3123 60.5531 71.3022 60.5313 71.3009 60.5082C71.2997 60.4851 71.3073 60.4623 71.3224 60.4447C71.3374 60.4271 71.3587 60.4159 71.3817 60.4135C72.0958 60.3497 72.8127 60.3218 73.5296 60.33C73.5524 60.3317 73.5737 60.3419 73.5892 60.3586C73.6047 60.3753 73.6133 60.3973 73.6133 60.4201C73.6133 60.4429 73.6047 60.4648 73.5892 60.4815C73.5737 60.4983 73.5524 60.5085 73.5296 60.5101C72.8199 60.5022 72.1102 60.5299 71.4032 60.5931L71.3915 60.5936Z" fill="url(#paint52_linear_24_3715)"/>
<path d="M90.3423 77.1774C90.336 77.0958 90.2525 77.0246 90.1109 76.9679C90.2647 76.8835 90.3496 76.7922 90.3423 76.7034C90.3208 76.4334 89.4666 76.2826 88.4346 76.3656C87.4026 76.4485 86.5839 76.7346 86.6059 77.0046C86.6123 77.0866 86.6957 77.1574 86.8373 77.214C86.6835 77.2989 86.5986 77.3897 86.6059 77.4786C86.6132 77.5674 86.6957 77.6314 86.8373 77.688C86.6835 77.7729 86.5986 77.8637 86.6059 77.9531C86.6123 78.0346 86.6957 78.1054 86.8373 78.1625C86.6835 78.2469 86.5986 78.3382 86.6059 78.4271C86.6152 78.5462 86.788 78.6424 87.0667 78.7053C87.0628 78.803 87.0651 78.9008 87.0736 78.9982C87.1141 79.4952 87.673 79.8847 88.4126 79.8847C89.1522 79.8847 89.7917 79.3536 89.799 78.8552C89.8013 78.7465 89.7964 78.6377 89.7844 78.5296C90.1383 78.4114 90.354 78.2674 90.3423 78.1273C90.336 78.0453 90.2525 77.9745 90.1109 77.9179C90.2647 77.833 90.3496 77.7422 90.3423 77.6533C90.335 77.5645 90.2525 77.5005 90.1109 77.4439C90.2647 77.3575 90.3496 77.2667 90.3423 77.1774Z" fill="url(#paint53_linear_24_3715)"/>
<path d="M87.9584 78.8124C87.6841 78.8154 87.41 78.793 87.1398 78.7455C87.1337 78.7439 87.1284 78.7401 87.125 78.7347C87.1216 78.7294 87.1204 78.723 87.1215 78.7168C87.1227 78.7105 87.1262 78.705 87.1313 78.7013C87.1364 78.6976 87.1428 78.6959 87.1491 78.6967C87.5118 78.766 87.996 78.7816 88.513 78.7397C88.8996 78.7126 89.2826 78.6472 89.6563 78.5444C89.6595 78.5435 89.6628 78.5432 89.6661 78.5436C89.6694 78.544 89.6726 78.5451 89.6755 78.5467C89.6784 78.5483 89.681 78.5505 89.683 78.5531C89.6851 78.5558 89.6866 78.5588 89.6875 78.562C89.6884 78.5652 89.6887 78.5685 89.6883 78.5718C89.6879 78.5751 89.6868 78.5783 89.6852 78.5812C89.6836 78.5841 89.6814 78.5867 89.6788 78.5887C89.6761 78.5908 89.6731 78.5923 89.6699 78.5932C89.2931 78.6974 88.9069 78.7641 88.5169 78.7924C88.325 78.8046 88.1371 78.8124 87.9584 78.8124Z" fill="url(#paint54_linear_24_3715)"/>
<path d="M87.965 78.3382C87.5667 78.3382 87.2108 78.3006 86.9599 78.2293C86.9567 78.2284 86.9537 78.2269 86.9511 78.2248C86.9485 78.2228 86.9463 78.2202 86.9447 78.2173C86.943 78.2144 86.942 78.2112 86.9416 78.2079C86.9412 78.2046 86.9414 78.2013 86.9423 78.198C86.9432 78.1948 86.9448 78.1918 86.9468 78.1892C86.9489 78.1866 86.9514 78.1844 86.9543 78.1828C86.9572 78.1812 86.9604 78.1801 86.9637 78.1797C86.967 78.1793 86.9704 78.1796 86.9736 78.1805C87.3309 78.282 87.907 78.3137 88.5142 78.2649C89.1215 78.2161 89.6746 78.0946 90.0119 77.9388C90.0179 77.936 90.0248 77.9358 90.0311 77.9381C90.0373 77.9403 90.0423 77.945 90.0451 77.951C90.0479 77.9571 90.0482 77.9639 90.0459 77.9702C90.0436 77.9764 90.0389 77.9815 90.0329 77.9842C89.6912 78.1419 89.124 78.2654 88.5196 78.3142C88.3287 78.3303 88.1427 78.3382 87.965 78.3382Z" fill="url(#paint55_linear_24_3715)"/>
<path d="M87.9599 77.864C87.5304 77.864 87.154 77.8201 86.9006 77.7366C86.8942 77.7346 86.8888 77.73 86.8857 77.724C86.8825 77.7179 86.882 77.7109 86.884 77.7044C86.8861 77.6979 86.8907 77.6926 86.8967 77.6894C86.9027 77.6863 86.9098 77.6857 86.9162 77.6878C87.2687 77.804 87.8662 77.8426 88.5145 77.7903C89.1145 77.7415 89.6749 77.62 90.0122 77.4642C90.0151 77.4629 90.0183 77.4621 90.0216 77.4619C90.0248 77.4618 90.0281 77.4623 90.0311 77.4635C90.0342 77.4646 90.037 77.4663 90.0393 77.4686C90.0417 77.4708 90.0436 77.4735 90.0449 77.4764C90.0463 77.4794 90.0471 77.4825 90.0473 77.4857C90.0474 77.489 90.047 77.4922 90.0459 77.4952C90.0448 77.4983 90.0431 77.5011 90.0409 77.5035C90.0387 77.5059 90.0361 77.5078 90.0332 77.5091C89.6915 77.6673 89.1242 77.7908 88.5199 77.8396C88.3261 77.8562 88.1386 77.864 87.9599 77.864Z" fill="url(#paint56_linear_24_3715)"/>
<path d="M87.9623 77.3894C87.6629 77.3938 87.3637 77.3666 87.07 77.3084C87.0636 77.3069 87.058 77.3029 87.0545 77.2973C87.0511 77.2918 87.0499 77.285 87.0514 77.2786C87.0521 77.2755 87.0534 77.2725 87.0553 77.2699C87.0571 77.2672 87.0595 77.265 87.0622 77.2632C87.0649 77.2615 87.0679 77.2604 87.0711 77.2598C87.0743 77.2593 87.0776 77.2594 87.0807 77.2601C87.4434 77.3406 87.9657 77.3616 88.5135 77.3172C89.108 77.2684 89.6655 77.1488 90.0033 76.995C90.0063 76.9931 90.0097 76.9919 90.0132 76.9914C90.0167 76.991 90.0203 76.9912 90.0237 76.9923C90.0271 76.9933 90.0302 76.995 90.0329 76.9973C90.0356 76.9997 90.0377 77.0025 90.0392 77.0058C90.0407 77.009 90.0414 77.0125 90.0414 77.016C90.0414 77.0196 90.0407 77.0231 90.0393 77.0263C90.0378 77.0295 90.0357 77.0324 90.033 77.0348C90.0304 77.0371 90.0272 77.0389 90.0238 77.0399C89.6821 77.1961 89.1178 77.3182 88.5174 77.3665C88.3275 77.3831 88.1405 77.3894 87.9623 77.3894Z" fill="url(#paint57_linear_24_3715)"/>
<path d="M85.9159 74.7837C85.7902 74.3397 85.5779 73.9249 85.2911 73.5633C84.6765 72.7891 83.6743 71.2148 83.5513 69.0658C83.3716 65.9416 86.1439 64.3751 88.6736 64.5874C91.2033 64.7998 93.7017 66.6836 93.4259 69.5916C93.2579 71.3807 92.2543 72.7378 91.5108 73.5174C91.039 74.0131 90.6975 74.6181 90.5169 75.2782C90.2928 76.0862 89.7602 77.0932 88.4949 77.1547C86.8552 77.2338 86.1747 75.7073 85.9159 74.7837Z" fill="url(#paint58_linear_24_3715)"/>
<path d="M88.912 76.5315L89.7971 70.7745C89.8151 70.6554 89.8737 70.5758 89.9279 70.5959C89.9821 70.6159 90.0104 70.7296 89.9923 70.8482C89.9923 70.8517 89.9923 70.8556 89.9923 70.8585L88.9843 76.5622C88.9765 76.6047 88.955 76.632 88.9355 76.6223C88.9159 76.6125 88.9057 76.573 88.912 76.5315Z" fill="url(#paint59_linear_24_3715)"/>
<path d="M87.9924 76.5765L87.1069 70.8196C87.0888 70.7009 87.0302 70.6209 86.9765 70.6414C86.9228 70.6619 86.8935 70.7747 86.9116 70.8938C86.9116 70.8967 86.9116 70.9006 86.9116 70.904L87.9197 76.6073C87.9275 76.6502 87.9489 76.6771 87.9685 76.6678C87.988 76.6585 87.9987 76.6185 87.9924 76.5765Z" fill="url(#paint60_linear_24_3715)"/>
<path opacity="0.77" d="M89.789 70.2797C89.7763 70.2618 89.7577 70.2489 89.7364 70.2434C89.7151 70.2378 89.6926 70.24 89.6728 70.2494L89.1797 70.4798L89.0089 69.9917C89.0036 69.978 88.9956 69.9655 88.9852 69.9551C88.9749 69.9447 88.9625 69.9365 88.9488 69.9311C88.922 69.9197 88.8919 69.9184 88.8641 69.9274C88.8363 69.9363 88.8127 69.955 88.7975 69.9799L88.3923 70.719L88.014 69.67C88.0035 69.6423 87.9831 69.6196 87.9569 69.606C87.9266 69.5891 87.8912 69.5835 87.8572 69.5902C87.8231 69.5969 87.7925 69.6155 87.7709 69.6426L87.2041 70.4237C87.1987 70.4313 87.1949 70.4399 87.1929 70.4491C87.1909 70.4582 87.1909 70.4677 87.1928 70.4769C87.1947 70.486 87.1984 70.4947 87.2038 70.5024C87.2092 70.51 87.2161 70.5165 87.2241 70.5213C87.2427 70.5331 87.2648 70.5383 87.2866 70.536C87.3085 70.5337 87.329 70.524 87.3447 70.5086L87.8436 69.9521L88.2927 70.9529C88.3008 70.9702 88.3148 70.9841 88.3323 70.9919C88.3524 71.0015 88.3752 71.0037 88.3967 70.998C88.4183 70.9924 88.4371 70.9794 88.4499 70.9612L88.8834 70.2655L89.0465 70.6175V70.6209C89.0476 70.6234 89.0489 70.6259 89.0504 70.6282C89.0631 70.6461 89.0817 70.659 89.1029 70.6645C89.1242 70.6701 89.1467 70.6679 89.1666 70.6585L89.7524 70.3851C89.7627 70.3818 89.7721 70.3762 89.7798 70.3686C89.7876 70.361 89.7934 70.3518 89.797 70.3415C89.8006 70.3313 89.8017 70.3204 89.8003 70.3097C89.7989 70.2989 89.795 70.2887 89.789 70.2797Z" fill="white"/>
<path opacity="0.84" d="M91.53 72.7979C91.5049 72.7981 91.4803 72.7912 91.4588 72.7781C91.4374 72.7649 91.4201 72.7461 91.4089 72.7237C91.3976 72.7012 91.3928 72.6761 91.3951 72.6511C91.3973 72.6261 91.4065 72.6022 91.4216 72.5822C91.5697 72.3829 91.7062 72.1755 91.8307 71.9607C91.8486 71.9297 91.8782 71.907 91.9128 71.8977C91.9475 71.8884 91.9844 71.8932 92.0155 71.9112C92.0466 71.9291 92.0692 71.9586 92.0785 71.9933C92.0878 72.0279 92.083 72.0649 92.065 72.0959C91.9355 72.3199 91.7932 72.5361 91.6389 72.7437C91.6262 72.7607 91.6098 72.7744 91.5909 72.7838C91.572 72.7932 91.5511 72.7981 91.53 72.7979Z" fill="white"/>
<path opacity="0.84" d="M92.2562 71.548C92.2377 71.5481 92.2194 71.5443 92.2025 71.5368C92.1696 71.5225 92.1438 71.4958 92.1306 71.4625C92.1174 71.4292 92.118 71.392 92.1322 71.3591C93.0636 69.2146 92.2611 67.4157 92.2528 67.3976C92.2421 67.366 92.2435 67.3316 92.2567 67.301C92.2699 67.2704 92.2939 67.2457 92.3242 67.2317C92.3545 67.2177 92.3888 67.2154 92.4207 67.2252C92.4526 67.235 92.4797 67.2563 92.4969 67.2849C92.5325 67.363 93.3575 69.2126 92.3782 71.467C92.3679 71.4908 92.3508 71.5112 92.3292 71.5255C92.3075 71.5399 92.2822 71.5477 92.2562 71.548Z" fill="white"/>
</g>
<defs>
<linearGradient id="paint0_linear_24_3715" x1="-0.000283348" y1="52.6888" x2="98.3045" y2="52.6888" gradientUnits="userSpaceOnUse">
<stop stop-color="#F9FFE9"/>
<stop offset="1" stop-color="#F7FDEA"/>
</linearGradient>
<linearGradient id="paint1_linear_24_3715" x1="49.1301" y1="80.0207" x2="64.1959" y2="34.8234" gradientUnits="userSpaceOnUse">
<stop stop-color="#09005D"/>
<stop offset="1" stop-color="#1A0F91"/>
</linearGradient>
<linearGradient id="paint2_linear_24_3715" x1="84.162" y1="76.1526" x2="17.1291" y2="92.4579" gradientUnits="userSpaceOnUse">
<stop stop-color="#09005D"/>
<stop offset="1" stop-color="#1A0F91"/>
</linearGradient>
<linearGradient id="paint3_linear_24_3715" x1="74.7688" y1="30.4036" x2="70.1801" y2="36.4569" gradientUnits="userSpaceOnUse">
<stop stop-color="#FE7062"/>
<stop offset="1" stop-color="#FF928E"/>
</linearGradient>
<linearGradient id="paint4_linear_24_3715" x1="23.1444" y1="73.3767" x2="27.9889" y2="73.3767" gradientUnits="userSpaceOnUse">
<stop stop-color="#FE7062"/>
<stop offset="1" stop-color="#FF928E"/>
</linearGradient>
<linearGradient id="paint5_linear_24_3715" x1="12.9562" y1="73.5247" x2="18.5686" y2="73.5247" gradientUnits="userSpaceOnUse">
<stop stop-color="#FE7062"/>
<stop offset="1" stop-color="#FF928E"/>
</linearGradient>
<linearGradient id="paint6_linear_24_3715" x1="16.8281" y1="67.4257" x2="24.7154" y2="67.4257" gradientUnits="userSpaceOnUse">
<stop stop-color="#FE7062"/>
<stop offset="1" stop-color="#FF928E"/>
</linearGradient>
<linearGradient id="paint7_linear_24_3715" x1="16.9691" y1="67.4257" x2="24.5704" y2="67.4257" gradientUnits="userSpaceOnUse">
<stop stop-color="#FE7062"/>
<stop offset="1" stop-color="#FF928E"/>
</linearGradient>
<linearGradient id="paint8_linear_24_3715" x1="16.8281" y1="71.5341" x2="24.7154" y2="71.5341" gradientUnits="userSpaceOnUse">
<stop stop-color="#FE7062"/>
<stop offset="1" stop-color="#FF928E"/>
</linearGradient>
<linearGradient id="paint9_linear_24_3715" x1="15.937" y1="71.5341" x2="25.382" y2="71.5341" gradientUnits="userSpaceOnUse">
<stop stop-color="#FE7062"/>
<stop offset="1" stop-color="#FF928E"/>
</linearGradient>
<linearGradient id="paint10_linear_24_3715" x1="16.8281" y1="75.6425" x2="24.7154" y2="75.6425" gradientUnits="userSpaceOnUse">
<stop stop-color="#FE7062"/>
<stop offset="1" stop-color="#FF928E"/>
</linearGradient>
<linearGradient id="paint11_linear_24_3715" x1="15.0347" y1="75.6425" x2="26.2317" y2="75.6425" gradientUnits="userSpaceOnUse">
<stop stop-color="#FE7062"/>
<stop offset="1" stop-color="#FF928E"/>
</linearGradient>
<linearGradient id="paint12_linear_24_3715" x1="14.1792" y1="79.7509" x2="24.7167" y2="79.7509" gradientUnits="userSpaceOnUse">
<stop stop-color="#FE7062"/>
<stop offset="1" stop-color="#FF928E"/>
</linearGradient>
<linearGradient id="paint13_linear_24_3715" x1="14.1792" y1="79.7509" x2="26.9193" y2="79.7509" gradientUnits="userSpaceOnUse">
<stop stop-color="#FE7062"/>
<stop offset="1" stop-color="#FF928E"/>
</linearGradient>
<linearGradient id="paint14_linear_24_3715" x1="17.6174" y1="66.7723" x2="19.2283" y2="66.7723" gradientUnits="userSpaceOnUse">
<stop stop-color="#09005D"/>
<stop offset="1" stop-color="#1A0F91"/>
</linearGradient>
<linearGradient id="paint15_linear_24_3715" x1="17.7769" y1="66.0233" x2="18.4305" y2="66.0233" gradientUnits="userSpaceOnUse">
<stop stop-color="#FF928E"/>
<stop offset="1" stop-color="#FEB3B1"/>
</linearGradient>
<linearGradient id="paint16_linear_24_3715" x1="21.041" y1="66.7464" x2="23.5687" y2="66.7464" gradientUnits="userSpaceOnUse">
<stop stop-color="#09005D"/>
<stop offset="1" stop-color="#1A0F91"/>
</linearGradient>
<linearGradient id="paint17_linear_24_3715" x1="21.0815" y1="65.7337" x2="21.7313" y2="65.7337" gradientUnits="userSpaceOnUse">
<stop stop-color="#FF928E"/>
<stop offset="1" stop-color="#FEB3B1"/>
</linearGradient>
<linearGradient id="paint18_linear_24_3715" x1="19.424" y1="74.5313" x2="19.6193" y2="57.836" gradientUnits="userSpaceOnUse">
<stop stop-color="#09005D"/>
<stop offset="1" stop-color="#1A0F91"/>
</linearGradient>
<linearGradient id="paint19_linear_24_3715" x1="18.3542" y1="56.7974" x2="19.2778" y2="56.7974" gradientUnits="userSpaceOnUse">
<stop stop-color="#4042E2"/>
<stop offset="1" stop-color="#4F52FF"/>
</linearGradient>
<linearGradient id="paint20_linear_24_3715" x1="23.8757" y1="46.8748" x2="24.9819" y2="42.1557" gradientUnits="userSpaceOnUse">
<stop stop-color="#FE7062"/>
<stop offset="1" stop-color="#FF928E"/>
</linearGradient>
<linearGradient id="paint21_linear_24_3715" x1="29.6635" y1="40.6422" x2="25.7734" y2="49.1714" gradientUnits="userSpaceOnUse">
<stop stop-color="#FF928E"/>
<stop offset="1" stop-color="#FEB3B1"/>
</linearGradient>
<linearGradient id="paint22_linear_24_3715" x1="35.9555" y1="38.5521" x2="19.6015" y2="54.2246" gradientUnits="userSpaceOnUse">
<stop stop-color="#E1473D"/>
<stop offset="1" stop-color="#E9605A"/>
</linearGradient>
<linearGradient id="paint23_linear_24_3715" x1="31.6077" y1="47.24" x2="24.7734" y2="54.2208" gradientUnits="userSpaceOnUse">
<stop stop-color="#FF928E"/>
<stop offset="1" stop-color="#FEB3B1"/>
</linearGradient>
<linearGradient id="paint24_linear_24_3715" x1="32.3401" y1="47.9566" x2="25.5058" y2="54.9374" gradientUnits="userSpaceOnUse">
<stop stop-color="#FF928E"/>
<stop offset="1" stop-color="#FEB3B1"/>
</linearGradient>
<linearGradient id="paint25_linear_24_3715" x1="25.0246" y1="43.3107" x2="19.9711" y2="52.5961" gradientUnits="userSpaceOnUse">
<stop stop-color="#FF928E"/>
<stop offset="1" stop-color="#FEB3B1"/>
</linearGradient>
<linearGradient id="paint26_linear_24_3715" x1="23.4335" y1="45.0124" x2="23.3128" y2="48.714" gradientUnits="userSpaceOnUse">
<stop stop-color="#FF928E"/>
<stop offset="1" stop-color="#FEB3B1"/>
</linearGradient>
<linearGradient id="paint27_linear_24_3715" x1="23.3206" y1="42.3426" x2="23.0711" y2="51.5674" gradientUnits="userSpaceOnUse">
<stop stop-color="#E1473D"/>
<stop offset="1" stop-color="#E9605A"/>
</linearGradient>
<linearGradient id="paint28_linear_24_3715" x1="22.114" y1="48.8103" x2="22.5176" y2="46.2756" gradientUnits="userSpaceOnUse">
<stop stop-color="#FF928E"/>
<stop offset="1" stop-color="#FEB3B1"/>
</linearGradient>
<linearGradient id="paint29_linear_24_3715" x1="85.3005" y1="41.741" x2="87.219" y2="43.7444" gradientUnits="userSpaceOnUse">
<stop stop-color="#09005D"/>
<stop offset="1" stop-color="#1A0F91"/>
</linearGradient>
<linearGradient id="paint30_linear_24_3715" x1="82.3412" y1="39.7533" x2="84.3383" y2="32.2307" gradientUnits="userSpaceOnUse">
<stop stop-color="#4042E2"/>
<stop offset="1" stop-color="#4F52FF"/>
</linearGradient>
<linearGradient id="paint31_linear_24_3715" x1="87.8465" y1="46.7694" x2="91.4745" y2="49.4319" gradientUnits="userSpaceOnUse">
<stop stop-color="#09005D"/>
<stop offset="1" stop-color="#1A0F91"/>
</linearGradient>
<linearGradient id="paint32_linear_24_3715" x1="82.006" y1="45.0394" x2="80.9248" y2="57.9089" gradientUnits="userSpaceOnUse">
<stop stop-color="#4042E2"/>
<stop offset="1" stop-color="#4F52FF"/>
</linearGradient>
<linearGradient id="paint33_linear_24_3715" x1="80.5499" y1="39.3576" x2="79.3602" y2="44.1514" gradientUnits="userSpaceOnUse">
<stop stop-color="#FF928E"/>
<stop offset="1" stop-color="#FEB3B1"/>
</linearGradient>
<linearGradient id="paint34_linear_24_3715" x1="79.1623" y1="33.7676" x2="66.6696" y2="50.104" gradientUnits="userSpaceOnUse">
<stop stop-color="#09005D"/>
<stop offset="1" stop-color="#1A0F91"/>
</linearGradient>
<linearGradient id="paint35_linear_24_3715" x1="79.1101" y1="39.5927" x2="84.0332" y2="32.8575" gradientUnits="userSpaceOnUse">
<stop stop-color="#FF928E"/>
<stop offset="1" stop-color="#FEB3B1"/>
</linearGradient>
<linearGradient id="paint36_linear_24_3715" x1="76.5441" y1="32.4653" x2="74.4538" y2="37.2952" gradientUnits="userSpaceOnUse">
<stop stop-color="#FF928E"/>
<stop offset="1" stop-color="#FEB3B1"/>
</linearGradient>
<linearGradient id="paint37_linear_24_3715" x1="76.7624" y1="29.0891" x2="76.7624" y2="33.4504" gradientUnits="userSpaceOnUse">
<stop stop-color="#FF928E"/>
<stop offset="1" stop-color="#FEB3B1"/>
</linearGradient>
<linearGradient id="paint38_linear_24_3715" x1="76.344" y1="27.7466" x2="77.087" y2="31.9853" gradientUnits="userSpaceOnUse">
<stop stop-color="#09005D"/>
<stop offset="1" stop-color="#1A0F91"/>
</linearGradient>
<linearGradient id="paint39_linear_24_3715" x1="75.8104" y1="29.089" x2="75.8104" y2="33.4502" gradientUnits="userSpaceOnUse">
<stop stop-color="#FF928E"/>
<stop offset="1" stop-color="#FEB3B1"/>
</linearGradient>
<linearGradient id="paint40_linear_24_3715" x1="82.7734" y1="38.0693" x2="86.5201" y2="38.0693" gradientUnits="userSpaceOnUse">
<stop stop-color="#09005D"/>
<stop offset="1" stop-color="#1A0F91"/>
</linearGradient>
<linearGradient id="paint41_linear_24_3715" x1="83.2254" y1="39.7067" x2="80.2295" y2="40.5278" gradientUnits="userSpaceOnUse">
<stop stop-color="#09005D"/>
<stop offset="1" stop-color="#1A0F91"/>
</linearGradient>
<linearGradient id="paint42_linear_24_3715" x1="80.8376" y1="31.6062" x2="76.3772" y2="39.1952" gradientUnits="userSpaceOnUse">
<stop stop-color="#4042E2"/>
<stop offset="1" stop-color="#4F52FF"/>
</linearGradient>
<linearGradient id="paint43_linear_24_3715" x1="79.4718" y1="30.8037" x2="75.0114" y2="38.3927" gradientUnits="userSpaceOnUse">
<stop stop-color="#4042E2"/>
<stop offset="1" stop-color="#4F52FF"/>
</linearGradient>
<linearGradient id="paint44_linear_24_3715" x1="78.9754" y1="30.5129" x2="74.5151" y2="38.1025" gradientUnits="userSpaceOnUse">
<stop stop-color="#4042E2"/>
<stop offset="1" stop-color="#4F52FF"/>
</linearGradient>
<linearGradient id="paint45_linear_24_3715" x1="81.1299" y1="58.6793" x2="82.61" y2="58.6793" gradientUnits="userSpaceOnUse">
<stop stop-color="#DAE3FE"/>
<stop offset="1" stop-color="#E9EFFD"/>
</linearGradient>
<linearGradient id="paint46_linear_24_3715" x1="75.9338" y1="57.2725" x2="80.4137" y2="57.2725" gradientUnits="userSpaceOnUse">
<stop stop-color="#DAE3FE"/>
<stop offset="1" stop-color="#E9EFFD"/>
</linearGradient>
<linearGradient id="paint47_linear_24_3715" x1="71.0382" y1="56.6956" x2="74.927" y2="56.6956" gradientUnits="userSpaceOnUse">
<stop stop-color="#DAE3FE"/>
<stop offset="1" stop-color="#E9EFFD"/>
</linearGradient>
<linearGradient id="paint48_linear_24_3715" x1="78.6197" y1="59.6103" x2="80.7335" y2="59.6103" gradientUnits="userSpaceOnUse">
<stop stop-color="#DAE3FE"/>
<stop offset="1" stop-color="#E9EFFD"/>
</linearGradient>
<linearGradient id="paint49_linear_24_3715" x1="71.168" y1="58.6196" x2="77.4048" y2="58.6196" gradientUnits="userSpaceOnUse">
<stop stop-color="#DAE3FE"/>
<stop offset="1" stop-color="#E9EFFD"/>
</linearGradient>
<linearGradient id="paint50_linear_24_3715" x1="79.745" y1="61.9684" x2="81.3852" y2="61.9684" gradientUnits="userSpaceOnUse">
<stop stop-color="#DAE3FE"/>
<stop offset="1" stop-color="#E9EFFD"/>
</linearGradient>
<linearGradient id="paint51_linear_24_3715" x1="74.4486" y1="60.807" x2="78.9202" y2="60.807" gradientUnits="userSpaceOnUse">
<stop stop-color="#DAE3FE"/>
<stop offset="1" stop-color="#E9EFFD"/>
</linearGradient>
<linearGradient id="paint52_linear_24_3715" x1="71.3012" y1="60.4613" x2="73.618" y2="60.4613" gradientUnits="userSpaceOnUse">
<stop stop-color="#DAE3FE"/>
<stop offset="1" stop-color="#E9EFFD"/>
</linearGradient>
<linearGradient id="paint53_linear_24_3715" x1="88.5908" y1="76.7937" x2="87.8317" y2="81.8037" gradientUnits="userSpaceOnUse">
<stop stop-color="#020039"/>
<stop offset="1" stop-color="#090056"/>
</linearGradient>
<linearGradient id="paint54_linear_24_3715" x1="88.2923" y1="79.0492" x2="86.6736" y2="84.9476" gradientUnits="userSpaceOnUse">
<stop stop-color="#4042E2"/>
<stop offset="1" stop-color="#4F52FF"/>
</linearGradient>
<linearGradient id="paint55_linear_24_3715" x1="88.234" y1="79.0333" x2="86.6148" y2="84.9319" gradientUnits="userSpaceOnUse">
<stop stop-color="#4042E2"/>
<stop offset="1" stop-color="#4F52FF"/>
</linearGradient>
<linearGradient id="paint56_linear_24_3715" x1="88.0835" y1="78.9917" x2="86.4647" y2="84.8902" gradientUnits="userSpaceOnUse">
<stop stop-color="#4042E2"/>
<stop offset="1" stop-color="#4F52FF"/>
</linearGradient>
<linearGradient id="paint57_linear_24_3715" x1="88.0424" y1="78.9804" x2="86.4231" y2="84.8789" gradientUnits="userSpaceOnUse">
<stop stop-color="#4042E2"/>
<stop offset="1" stop-color="#4F52FF"/>
</linearGradient>
<linearGradient id="paint58_linear_24_3715" x1="86.2591" y1="65.2718" x2="97.2848" y2="85.5824" gradientUnits="userSpaceOnUse">
<stop stop-color="#FE7062"/>
<stop offset="1" stop-color="#FF928E"/>
</linearGradient>
<linearGradient id="paint59_linear_24_3715" x1="89.4148" y1="72.425" x2="89.778" y2="83.974" gradientUnits="userSpaceOnUse">
<stop stop-color="#E1473D"/>
<stop offset="1" stop-color="#E9605A"/>
</linearGradient>
<linearGradient id="paint60_linear_24_3715" x1="87.4115" y1="72.4876" x2="87.7752" y2="84.0366" gradientUnits="userSpaceOnUse">
<stop stop-color="#E1473D"/>
<stop offset="1" stop-color="#E9605A"/>
</linearGradient>
<clipPath id="clip0_24_3715">
<rect width="105" height="63.9843" fill="white" transform="translate(0 21)"/>
</clipPath>
</defs>
</svg>
