<?xml version="1.0" encoding="utf-8"?>
<!-- Generator: Adobe Illustrator 23.0.1, SVG Export Plug-In . SVG Version: 6.00 Build 0)  -->
<svg version="1.1" id="Слой_1" xmlns="http://www.w3.org/2000/svg" xmlns:xlink="http://www.w3.org/1999/xlink" x="0px" y="0px"
	 viewBox="0 0 62 50" style="enable-background:new 0 0 62 50;" xml:space="preserve">
<path d="M12,6H1C0.4,6,0,5.6,0,5s0.4-1,1-1h11c0.6,0,1,0.4,1,1S12.6,6,12,6z"/>
<path d="M61,6H21c-0.6,0-1-0.4-1-1s0.4-1,1-1h40c0.6,0,1,0.4,1,1S61.6,6,61,6z"/>
<path d="M16.1,10c-2.8,0-5-2.2-5-5s2.2-5,5-5s5,2.2,5,5S18.9,10,16.1,10z M16.1,2c-1.7,0-3,1.3-3,3s1.3,3,3,3s3-1.3,3-3
	S17.8,2,16.1,2z"/>
<path d="M42,26H1c-0.6,0-1-0.4-1-1s0.4-1,1-1h41c0.6,0,1,0.4,1,1S42.6,26,42,26z"/>
<path d="M61,26H51c-0.6,0-1-0.4-1-1s0.4-1,1-1h10c0.6,0,1,0.4,1,1S61.6,26,61,26z"/>
<path d="M46.1,30c-2.8,0-5-2.2-5-5s2.2-5,5-5c2.8,0,5,2.2,5,5S48.9,30,46.1,30z M46.1,22c-1.7,0-3,1.3-3,3s1.3,3,3,3s3-1.3,3-3
	S47.8,22,46.1,22z"/>
<path d="M22,46H1c-0.6,0-1-0.4-1-1s0.4-1,1-1h21c0.6,0,1,0.4,1,1S22.6,46,22,46z"/>
<path d="M61,46H31c-0.6,0-1-0.4-1-1s0.4-1,1-1h30c0.6,0,1,0.4,1,1S61.6,46,61,46z"/>
<path d="M26.1,50c-2.8,0-5-2.2-5-5s2.2-5,5-5s5,2.2,5,5S28.9,50,26.1,50z M26.1,42c-1.7,0-3,1.3-3,3s1.3,3,3,3s3-1.3,3-3
	S27.8,42,26.1,42z"/>
</svg>
