<?xml version="1.0" encoding="utf-8"?>
<!-- Generator: Adobe Illustrator 22.1.0, SVG Export Plug-In . SVG Version: 6.00 Build 0)  -->
<svg version="1.1" id="Слой_1" xmlns="http://www.w3.org/2000/svg" xmlns:xlink="http://www.w3.org/1999/xlink" x="0px" y="0px"
	 viewBox="0 0 44.6 44.1" style="enable-background:new 0 0 44.6 44.1;" xml:space="preserve">
<style type="text/css">
	.st0{fill:#222222;}
</style>
<path class="st0" d="M22.6,0.9c-11.9,0-21.5,9.6-21.5,21.5s9.6,21.5,21.5,21.5c11.9,0,21.5-9.6,21.5-21.5S34.5,0.9,22.6,0.9z
	 M22.6,42.9c-11.3,0-20.5-9.2-20.5-20.5c0-11.3,9.2-20.5,20.5-20.5s20.5,9.2,20.5,20.5C43.1,33.7,33.9,42.9,22.6,42.9z"/>
<polygon points="29.7,22.3 29.7,22.3 29.1,21.7 28.8,21.4 28.8,21.4 25.2,17.8 24,18.9 26.8,21.7 15.3,21.7 15.3,23.3 27,23.3 
	24.3,26 25.4,27.1 29.9,22.5 "/>
</svg>
