<?xml version="1.0" standalone="no"?>
<!DOCTYPE svg PUBLIC "-//W3C//DTD SVG 1.1//EN" "http://www.w3.org/Graphics/SVG/1.1/DTD/svg11.dtd" >
<svg xmlns="http://www.w3.org/2000/svg" xmlns:xlink="http://www.w3.org/1999/xlink" version="1.1">
<metadata>
Created by FontForge 20170731 at Thu Jan 21 16:56:05 2010
 By Aleksey,,,
Copyright (c) 2009, ParaType, Inc. All rights reserved.
</metadata>
<defs>
<font id="Magistral-ExtraBold" horiz-adv-x="757" >
  <font-face 
    font-family="Magistral Extra Bold"
    font-weight="800"
    font-stretch="normal"
    units-per-em="1000"
    panose-1="2 11 9 4 3 2 4 8 3 4"
    ascent="800"
    descent="-200"
    x-height="530"
    cap-height="700"
    bbox="-495 -371 1244 1057"
    underline-thickness="50"
    underline-position="-200"
    unicode-range="U+0020-FB02"
  />
<missing-glyph horiz-adv-x="233" 
 />
    <glyph glyph-name="afii10017.var.accented" unicode="&#x410;`" horiz-adv-x="798" 
d="M-20 0l259 623q19 44 52 64.5t108 20.5q61 0 99.5 -16t60.5 -69l259 -623h-238l-55 144h-252l-55 -144h-238zM388 491l-68 -193h158l-68 193q-6 15 -11 15t-11 -15zM451 1007l87 -109l-192 -158l-87 108z" />
    <glyph glyph-name="afii10022.var.accented" unicode="&#x415;`" horiz-adv-x="710" 
d="M666 700v-170h-346q-44 0 -44 -44v-52h382v-154h-382v-66q0 -44 44 -44h350v-170h-510q-52 0 -81 29t-29 81v480q0 52 29 81t81 29h506zM442 1007l87 -109l-192 -158l-87 108z" />
    <glyph glyph-name="afii10026.var.accented" unicode="&#x418;`" horiz-adv-x="862" 
d="M812 0h-230l10 411q0 26 -10 26q-6 0 -26 -34l-199 -340q-41 -71 -151 -71q-49 0 -82 13.5t-48 39.5t-20.5 52.5t-5.5 62.5v540h230l-10 -401q0 -35 12 -35q6 0 20 25l193 337q47 82 151 82q46 0 78.5 -13t49 -30.5t26 -44.5t11 -44.5t1.5 -40.5v-535zM513 1007l87 -109
l-192 -158l-87 108z" />
    <glyph glyph-name="afii10032.var.accented" unicode="&#x41e;`" horiz-adv-x="830" 
d="M415 708q115 0 183.5 -13.5t116.5 -53t66.5 -108.5t18.5 -183t-18.5 -183t-66.5 -108.5t-116.5 -53t-183.5 -13.5t-183.5 13.5t-116.5 53t-66.5 108.5t-18.5 183t18.5 183t66.5 108.5t116.5 53t183.5 13.5zM262 350q0 -100 32.5 -142t120.5 -42t120.5 42t32.5 142
t-32.5 142t-120.5 42t-120.5 -42t-32.5 -142zM467 1007l87 -109l-192 -158l-87 108z" />
    <glyph glyph-name="afii10037.var.accented" unicode="&#x423;`" horiz-adv-x="751" 
d="M394 0h-246l112 199l-280 501h252l146 -298l147 298h246zM448 1007l87 -109l-192 -158l-87 108z" />
    <glyph glyph-name="afii10045.var.accented" unicode="&#x42b;`" horiz-adv-x="1087" 
d="M1037 0h-226v700h226v-700zM50 700h226v-242h271q115 0 157.5 -55t42.5 -175q0 -119 -42.5 -173.5t-157.5 -54.5h-387q-52 0 -81 29t-29 81v590zM425 284h-149v-66q0 -44 44 -44h105q50 0 70 9.5t20 44.5t-20 45.5t-70 10.5zM596 1007l87 -109l-192 -158l-87 108z" />
    <glyph glyph-name="afii10047.var.accented" unicode="&#x42d;`" horiz-adv-x="672" 
d="M336 0h-306v174h190q98 0 140.5 21t45.5 83h-356v158h353q-5 53 -48 71.5t-135 18.5h-180v174h296q169 0 237.5 -82.5t68.5 -267.5t-68.5 -267.5t-237.5 -82.5zM388 1007l87 -109l-192 -158l-87 108z" />
    <glyph glyph-name="afii10048.var.accented" unicode="&#x42e;`" horiz-adv-x="1158" 
d="M748 708q115 0 183 -13.5t115 -53.5t64.5 -108.5t17.5 -182.5t-17.5 -182.5t-64.5 -108.5t-115 -53.5t-183 -13.5q-105 0 -170 11.5t-112 43.5t-68 87.5t-27 146.5h-95v-281h-226v700h226v-264h96q7 85 29 137.5t69 82.5t111 41t167 11zM600 350q0 -102 30.5 -143
t117.5 -41t117.5 41t30.5 143t-30.5 143t-117.5 41t-117.5 -41t-30.5 -143zM651 1007l87 -109l-192 -158l-87 108z" />
    <glyph glyph-name="afii10049.var.accented" unicode="&#x42f;`" horiz-adv-x="790" 
d="M740 590v-590h-226v482q0 44 -45 44h-129q-46 0 -63 -16t-17 -60q0 -45 17.5 -64t62.5 -19h34q101 0 101 -79v-15q0 -11 -2.5 -21.5t-8.5 -21t-10 -16.5t-14 -18.5t-13 -17.5l-135 -178h-272l194 205v4h-24q-156 0 -156 249q0 122 43.5 182t156.5 60h396q52 0 81 -29
t29 -81zM477 1007l87 -109l-192 -158l-87 108z" />
    <glyph glyph-name="afii10023.var.accented" unicode="&#x401;`" horiz-adv-x="700" 
d="M666 700v-170h-346q-44 0 -44 -44v-52h382v-154h-382v-66q0 -44 44 -44h350v-170h-510q-52 0 -81 29t-29 81v480q0 52 29 81t81 29h506zM645 756h-142v129h142v-129zM218 756h-143v129h143v-129zM391 996l102 -73l-145 -202l-102 72z" />
    <glyph glyph-name="afii10065.var.accented" unicode="&#x430;`" horiz-adv-x="630" 
d="M60 530h352q82 0 131 -49t49 -131v-240q0 -52 -29 -81t-81 -29h-328q-72 0 -101 41t-29 127q0 80 29.5 122t100.5 42h242v10q0 52 -60 52h-276v136zM396 208h-139q-15 0 -26 -11t-11 -29q0 -15 9.5 -26.5t25.5 -11.5h101q22 0 31 9t9 31v38zM386 837l87 -109l-192 -158
l-87 108z" />
    <glyph glyph-name="afii10070.var.accented" unicode="&#x435;`" horiz-adv-x="617" 
d="M574 0h-345q-88 0 -130 22t-58.5 77t-16.5 169q0 63 4 103.5t17 72.5t31 48.5t53 27t75 13.5t105 3q56 0 91 -2t71 -9.5t55.5 -21.5t36.5 -38t23.5 -59.5t6.5 -85.5q0 -118 -84 -118h-289q0 -37 22 -51.5t75 -14.5h257v-136zM220 326h145q32 0 32 33q0 41 -88 41
q-44 0 -66.5 -14.5t-22.5 -59.5zM391 837l87 -109l-192 -158l-87 108z" />
    <glyph glyph-name="afii10074.var.accented" unicode="&#x438;`" horiz-adv-x="687" 
d="M649 0h-196l10 275q0 16 -8 16q-4 0 -18 -16l-188 -235q-23 -29 -43.5 -37.5t-55.5 -8.5q-112 0 -112 100v436h196l-10 -275q0 -15 9 -15q6 0 18 15l192 241q13 15 18.5 20t25.5 12.5t48 7.5q39 0 64.5 -12t35 -32t12 -33t2.5 -29v-430zM416 837l87 -109l-192 -158
l-87 108z" />
    <glyph glyph-name="afii10080.var.accented" unicode="&#x43e;`" horiz-adv-x="660" 
d="M330 536q86 0 141 -11.5t94 -41.5t55 -82.5t16 -135.5t-16 -135.5t-55 -82.5t-94 -41.5t-141 -11.5t-141 11.5t-94 41.5t-55 82.5t-16 135.5t16 135.5t55 82.5t94 41.5t141 11.5zM224 265q0 -67 21.5 -99t84.5 -32t84.5 32t21.5 99t-21.5 99t-84.5 32t-84.5 -32
t-21.5 -99zM382 837l87 -109l-192 -158l-87 108z" />
    <glyph glyph-name="afii10085.var.accented" unicode="&#x443;`" horiz-adv-x="641" 
d="M661 530l-316 -701h-196l83 171l-252 530h200l139 -336l146 336h196zM393 837l87 -109l-192 -158l-87 108z" />
    <glyph glyph-name="afii10093.var.accented" unicode="&#x44b;`" horiz-adv-x="890" 
d="M656 0v530h196v-530h-196zM466 0h-323q-47 0 -76 28t-29 77v425h196v-168h232q84 0 113 -44.5t29 -136.5t-29 -136.5t-113 -44.5zM234 222v-42q0 -22 9 -31t31 -9h82q30 0 41 9t11 32t-11 32t-41 9h-122zM527 837l87 -109l-192 -158l-87 108z" />
    <glyph glyph-name="afii10095.var.accented" unicode="&#x44d;`" horiz-adv-x="563" 
d="M319 0h-295v136h215q96 0 96 66h-301v130h298q-1 30 -26 46t-67 16h-204v136h284q126 0 173 -67t47 -199q0 -64 -9.5 -109.5t-33 -82t-67.5 -54.5t-110 -18zM334 837l87 -109l-192 -158l-87 108z" />
    <glyph glyph-name="afii10096.var.accented" unicode="&#x44e;`" horiz-adv-x="905" 
d="M585 536q86 0 139.5 -11.5t90.5 -42t51.5 -82.5t14.5 -135t-14.5 -135t-51.5 -82.5t-90.5 -42t-139.5 -11.5q-155 0 -219.5 44.5t-74.5 172.5h-63v-211h-190v530h190v-195h64q13 118 77.5 159.5t215.5 41.5zM485 265q0 -69 19 -100t81 -31t81 31t19 100t-19 100t-81 31
t-81 -31t-19 -100zM521 837l87 -109l-192 -158l-87 108z" />
    <glyph glyph-name="afii10097.var.accented" unicode="&#x44f;`" horiz-adv-x="633" 
d="M14 0l143 181q5 5 5 11t-13 6h-13q-56 0 -83.5 49t-27.5 123q0 71 32.5 115.5t97.5 44.5h330q53 0 81.5 -29t28.5 -81v-420h-196v352q0 44 -44 44h-90q-23 0 -33.5 -9t-10.5 -31t10 -29.5t34 -7.5h44q64 0 64 -55q0 -37 -27 -79l-122 -185h-210zM397 837l87 -109
l-192 -158l-87 108z" />
    <glyph glyph-name="afii10071.var.accented" unicode="&#x451;`" horiz-adv-x="617" 
d="M574 0h-345q-88 0 -130 22t-58.5 77t-16.5 169q0 63 4 103.5t17 72.5t31 48.5t53 27t75 13.5t105 3q56 0 91 -2t71 -9.5t55.5 -21.5t36.5 -38t23.5 -59.5t6.5 -85.5q0 -118 -84 -118h-289q0 -37 22 -51.5t75 -14.5h257v-136zM220 326h145q32 0 32 33q0 41 -88 41
q-44 0 -66.5 -14.5t-22.5 -59.5zM443 600v128h133v-128h-133zM175 600h-133v128h133v-128zM343 846l103 -72l-145 -203l-102 72z" />
    <glyph glyph-name="fi" unicode="fi" horiz-adv-x="687" 
d="M461 0v530h196v-530h-196zM657 583h-196v117h196v-117zM279 0h-196v390h-79v140h79q2 29 10 53t18.5 41.5t30 31t36 22t44.5 14.5t46.5 9t52 5t52 2h54.5v-122q-43 0 -62.5 -1t-43.5 -6t-33 -17t-9 -32h148v-140h-148v-390z" />
    <glyph glyph-name="fl" unicode="fl" horiz-adv-x="687" 
d="M461 0v700h196v-700h-196zM279 0h-196v390h-79v140h79q2 29 10 53t18.5 41.5t30 31t36 22t44.5 14.5t46.5 9t52 5t52 2h54.5v-122q-43 0 -62.5 -1t-43.5 -6t-33 -17t-9 -32h148v-140h-148v-390z" />
    <glyph glyph-name=".notdef" horiz-adv-x="233" 
 />
    <glyph glyph-name=".null" horiz-adv-x="0" 
 />
    <glyph glyph-name="nonmarkingreturn" horiz-adv-x="333" 
 />
    <glyph glyph-name="space" unicode=" " horiz-adv-x="233" 
 />
    <glyph glyph-name="exclam" unicode="!" horiz-adv-x="328" 
d="M66 0v182h196v-182h-196zM258 241h-188l-20 459h228z" />
    <glyph glyph-name="quotedbl" unicode="&#x22;" horiz-adv-x="523" 
d="M62 375l-12 325h186l-12 -325h-162zM299 375l-12 325h186l-12 -325h-162z" />
    <glyph glyph-name="numbersign" unicode="#" horiz-adv-x="903" 
d="M81 0l68 166h-126l50 130h127l49 117h-127l51 130h126l65 157h150l-64 -157h153l64 157h150l-63 -157h126l-50 -130h-127l-48 -117h126l-51 -130h-126l-68 -166h-151l68 166h-153l-69 -166h-150zM504 296l49 117h-154l-49 -117h154z" />
    <glyph glyph-name="dollar" unicode="$" horiz-adv-x="772" 
d="M69 0v174h364q61 0 61 26q0 28 -44 39l-255 60q-72 17 -108.5 72.5t-36.5 139.5q0 93 42.5 141t137.5 48h110v72h96v-72h248v-174h-346q-60 0 -60 -27t54 -39l234 -53q91 -20 123.5 -66.5t32.5 -152.5q0 -94 -37.5 -141t-127.5 -47h-121v-72h-96v72h-271z" />
    <glyph glyph-name="percent" unicode="%" horiz-adv-x="828" 
d="M155 0l406 700h114l-406 -700h-114zM201 706q96 0 133 -38t37 -132t-37 -131.5t-133 -37.5q-97 0 -134 37.5t-37 131.5t37.5 132t133.5 38zM140 536q0 -41 14 -58t47 -17t46.5 17t13.5 58t-13.5 58.5t-46.5 17.5t-47 -17.5t-14 -58.5zM628 333q96 0 133 -38t37 -132
t-37 -131.5t-133 -37.5q-97 0 -134 37.5t-37 131.5t37.5 132t133.5 38zM567 163q0 -41 14 -58t47 -17t46.5 17t13.5 58t-13.5 58.5t-46.5 17.5t-47 -17.5t-14 -58.5z" />
    <glyph glyph-name="ampersand" unicode="&#x26;" horiz-adv-x="834" 
d="M733 276v-66q0 -120 -45 -165t-165 -45h-270q-101 0 -152 44.5t-51 146.5q0 70 24 112t87 48v4q-109 20 -109 155q0 105 44.5 147.5t156.5 42.5h457v-174h-358q-20 0 -30 -1t-23 -5t-19 -14.5t-6 -27.5t6 -27.5t19 -14.5t23 -5t30 -1h472v-154h-91zM352 174h110
q27 0 36 8.5t9 35.5v58h-155q-16 0 -24 -0.5t-21 -3t-19 -7.5t-11 -15t-5 -24q0 -19 6 -30t20 -15.5t24 -5.5t30 -1z" />
    <glyph glyph-name="quotesingle" unicode="'" horiz-adv-x="288" 
d="M63 375l-13 325h188l-13 -325h-162z" />
    <glyph glyph-name="parenleft" unicode="(" horiz-adv-x="411" 
d="M190 386v-228q0 -98 47 -145t144 -47v-130q-166 0 -248.5 79t-82.5 243v228q0 164 82.5 243t248.5 79v-130q-97 0 -144 -47t-47 -145z" />
    <glyph glyph-name="parenright" unicode=")" horiz-adv-x="411" 
d="M221 158v228q0 98 -47 145t-144 47v130q166 0 248.5 -79t82.5 -243v-228q0 -164 -82.5 -243t-248.5 -79v130q97 0 144 47t47 145z" />
    <glyph glyph-name="asterisk" unicode="*" horiz-adv-x="492" 
d="M31 423l120 70l-121 69l47 81l120 -70v140h97v-138l118 69l49 -83l-120 -70l121 -69l-47 -82l-121 70v-139h-97v138l-120 -69z" />
    <glyph glyph-name="plus" unicode="+" horiz-adv-x="707" 
d="M422 12h-136v235h-236v130h236v235h136v-235h235v-130h-235v-235z" />
    <glyph glyph-name="comma" unicode="," horiz-adv-x="357" 
d="M138 -153l-138 82l153 256l154 -92z" />
    <glyph glyph-name="hyphen" unicode="-" horiz-adv-x="487" 
d="M30 189v158h427v-158h-427z" />
    <glyph glyph-name="period" unicode="." horiz-adv-x="298" 
d="M248 0h-198v180h198v-180z" />
    <glyph glyph-name="slash" unicode="/" horiz-adv-x="518" 
d="M110 -170h-120l418 910h120z" />
    <glyph glyph-name="zero" unicode="0" horiz-adv-x="684" 
d="M342 708q60 0 100 -3.5t78 -14t61 -30t40.5 -51t25 -76.5t7.5 -108v-144q0 -65 -7.5 -111.5t-25 -79t-40 -51.5t-61 -29.5t-78.5 -14t-100 -3.5t-100 3.5t-78.5 14t-61 29.5t-40 51.5t-25 79t-7.5 111.5v144q0 63 7.5 108t25 76.5t40.5 51t61 30t78 14t100 3.5zM342 172
q51 0 68.5 23.5t17.5 85.5v144q0 55 -18 79t-68 24t-68 -24t-18 -79v-144q0 -62 17.5 -85.5t68.5 -23.5z" />
    <glyph glyph-name="one" unicode="1" horiz-adv-x="403" 
d="M127 0v468q0 19 -2 29.5t-11.5 19.5t-28.5 9h-85v174h241q52 0 82 -30.5t30 -83.5v-586h-226z" />
    <glyph glyph-name="two" unicode="2" horiz-adv-x="677" 
d="M129 0q-52 0 -75.5 37t-23.5 92q0 103 61 136l295 156q35 18 35 60q0 28 -14.5 36.5t-47.5 8.5h-288v174h406q93 0 131.5 -47.5t38.5 -142.5q0 -97 -25.5 -142t-80.5 -72l-212 -105q-10 -5 -10 -10q0 -4 7 -4h308v-177h-505z" />
    <glyph glyph-name="three" unicode="3" horiz-adv-x="689" 
d="M30 0v166h320q77 0 77 55q0 54 -77 54h-303v154h293q71 0 71 56q0 49 -71 49h-302v166h436q165 0 165 -180q0 -72 -24.5 -110.5t-88.5 -48.5v-4q72 -6 102.5 -41.5t30.5 -116.5q0 -96 -42.5 -147.5t-142.5 -51.5h-444z" />
    <glyph glyph-name="four" unicode="4" horiz-adv-x="769" 
d="M419 0v95h-314q-95 0 -95 141q0 56 14 86.5t40 53.5l319 287q51 45 137 45q26 0 46 -3.5t39.5 -14t30.5 -32t11 -53.5v-326h102v-184h-104v-95h-226zM419 279v175q0 4 -4 4q-1 0 -13 -10l-169 -150q-7 -7 -7 -10q0 -9 13 -9h180z" />
    <glyph glyph-name="five" unicode="5" horiz-adv-x="682" 
d="M40 0v166h315q65 0 65 55q0 54 -65 54h-201q-67 0 -95.5 33t-28.5 108v172q0 112 124 112h470v-166h-317q-51 0 -51 -52q0 -53 51 -53h163q102 0 142 -50t40 -166q0 -115 -39.5 -164t-142.5 -49h-430z" />
    <glyph glyph-name="six" unicode="6" horiz-adv-x="682" 
d="M256 429h216q96 0 138 -48t42 -150q0 -42 -4.5 -74t-16.5 -62.5t-32 -50.5t-53.5 -32t-78.5 -12h-263q-174 0 -174 188v327q0 185 174 185h412v-166h-293q-34 0 -50.5 -9t-16.5 -37v-59zM256 275v-53q0 -31 11.5 -43.5t40.5 -12.5h52q60 0 60 55q0 54 -60 54h-104z" />
    <glyph glyph-name="seven" unicode="7" horiz-adv-x="583" 
d="M8 0l325 497q10 14 10 21q0 8 -25 8h-328v174h511q39 0 61 -17t26.5 -35.5t4.5 -44.5q0 -57 -29 -104l-306 -499h-250z" />
    <glyph glyph-name="eight" unicode="8" horiz-adv-x="688" 
d="M293 700h102q69 0 111 -6.5t75.5 -27t47 -59.5t13.5 -102q0 -125 -104 -145v-4q66 -9 93 -49t27 -117q0 -114 -55 -152t-185 -38h-148q-57 0 -97 7.5t-74.5 27t-51.5 58.5t-17 97q0 79 25 116.5t95 49.5v4q-52 8 -78 46t-26 99q0 63 13.5 102t47 59.5t75.5 27t111 6.5z
M328 430h32q50 0 50 52t-50 52h-32q-50 0 -50 -52t50 -52zM324 166h39q63 0 63 56t-62 56h-40q-62 0 -62 -56t62 -56z" />
    <glyph glyph-name="nine" unicode="9" horiz-adv-x="682" 
d="M426 271h-216q-96 0 -138 48t-42 150q0 42 4.5 74t16.5 62.5t32 50.5t53.5 32t78.5 12h263q174 0 174 -188v-327q0 -185 -174 -185h-412v166h293q34 0 50.5 9t16.5 37v59zM426 425v53q0 31 -11.5 43.5t-40.5 12.5h-52q-60 0 -60 -55q0 -54 60 -54h104z" />
    <glyph glyph-name="colon" unicode=":" horiz-adv-x="298" 
d="M248 350h-198v180h198v-180zM248 0h-198v180h198v-180z" />
    <glyph glyph-name="semicolon" unicode=";" horiz-adv-x="359" 
d="M138 -153l-138 82l153 256l154 -92zM309 356h-196v174h196v-174z" />
    <glyph glyph-name="less" unicode="&#x3c;" horiz-adv-x="709" 
d="M50 317l609 310v-142l-363 -168l363 -168v-142z" />
    <glyph glyph-name="equal" unicode="=" horiz-adv-x="708" 
d="M658 151h-608v130h608v-130zM658 355h-608v130h608v-130z" />
    <glyph glyph-name="greater" unicode="&#x3e;" horiz-adv-x="709" 
d="M659 317l-609 -310v142l363 168l-363 168v142z" />
    <glyph glyph-name="question" unicode="?" horiz-adv-x="510" 
d="M104 0v182h196v-182h-196zM300 241h-196v35q0 42 17.5 66t57.5 51l31 21q29 20 37.5 33.5t8.5 37.5q0 19 -9.5 28.5t-21 11t-36.5 1.5h-179v174h313q83 0 120 -38.5t37 -127.5q0 -67 -21 -107t-66 -69l-50 -34q-43 -27 -43 -66v-17z" />
    <glyph glyph-name="at" unicode="@" horiz-adv-x="984" 
d="M682 -189h-282q-108 0 -177 26.5t-107 85.5t-52 136.5t-14 197.5q0 95 8.5 162t31.5 123.5t62.5 90t101 51.5t147.5 18h176q107 0 178 -26t109.5 -80t54 -123t15.5 -170q0 -40 -1 -65.5t-5.5 -65.5t-16 -66t-29.5 -52.5t-48.5 -39.5t-71.5 -13q-50 0 -89.5 22t-50.5 66
q-49 -88 -163 -88q-116 0 -162 66.5t-46 189.5q0 125 48.5 195t167.5 70h138q51 0 75.5 -18t24.5 -74v-237q0 -84 56 -84q13 0 22.5 6.5t15 22.5t9 30t4.5 41t1.5 44t0.5 50q0 62 -3.5 101t-17 78t-38 59.5t-67 33.5t-104.5 13h-184q-45 0 -79 -6.5t-58.5 -18.5t-41 -33.5
t-27 -45t-16 -61.5t-7 -75t-1.5 -91q0 -64 2.5 -105t10.5 -82.5t23.5 -65.5t40.5 -43.5t63 -27.5t90 -8h282v-114zM573 372q0 32 -41 32h-39q-63 0 -84.5 -36t-21.5 -111q0 -25 1 -41.5t5 -36.5t11.5 -32t22 -20t34.5 -8q51 0 81.5 39.5t30.5 98.5v115z" />
    <glyph glyph-name="A" unicode="A" horiz-adv-x="798" 
d="M-20 0l259 623q19 44 52 64.5t108 20.5q61 0 99.5 -16t60.5 -69l259 -623h-238l-55 144h-252l-55 -144h-238zM390 481l-63 -177h144l-63 177q-1 1 -2.5 4t-2 5.5t-2 4t-2.5 1.5z" />
    <glyph glyph-name="B" unicode="B" horiz-adv-x="775" 
d="M276 277v-57q0 -30 10 -40t40 -10h127q66 0 66 54q0 53 -66 53h-177zM276 490v-59h168q32 0 46.5 10.5t14.5 39.5q0 28 -15 38.5t-47 10.5h-127q-22 0 -31 -9t-9 -31zM624 356q71 -13 96 -50.5t25 -109.5q0 -103 -41 -149.5t-149 -46.5h-395q-52 0 -81 29t-29 81v480
q0 52 29 81t81 29h375q105 0 149.5 -45.5t44.5 -150.5q0 -124 -105 -144v-4z" />
    <glyph glyph-name="C" unicode="C" horiz-adv-x="658" 
d="M642 0h-306q-169 0 -237.5 82.5t-68.5 267.5t68.5 267.5t237.5 82.5h296v-174h-180q-115 0 -152.5 -33t-37.5 -143t37.5 -143t152.5 -33h190v-174z" />
    <glyph glyph-name="D" unicode="D" horiz-adv-x="778" 
d="M452 0h-292q-52 0 -81 29t-29 81v480q0 52 29 81t81 29h292q167 0 231.5 -81.5t64.5 -268.5t-64.5 -268.5t-231.5 -81.5zM276 476v-252q0 -27 11.5 -38.5t38.5 -11.5h10q108 0 144 33t36 143q0 107 -38.5 141.5t-141.5 34.5h-10q-27 0 -38.5 -11.5t-11.5 -38.5z" />
    <glyph glyph-name="E" unicode="E" horiz-adv-x="700" 
d="M666 700v-170h-346q-44 0 -44 -44v-52h382v-154h-382v-66q0 -44 44 -44h350v-170h-510q-52 0 -81 29t-29 81v480q0 52 29 81t81 29h506z" />
    <glyph glyph-name="F" unicode="F" horiz-adv-x="676" 
d="M276 0h-226v590q0 52 29 81t81 29h506v-170h-346q-44 0 -44 -44v-52h305v-170h-305v-264z" />
    <glyph glyph-name="G" unicode="G" horiz-adv-x="760" 
d="M714 526h-302q-84 0 -117 -36.5t-33 -139.5t33 -139.5t117 -36.5h48q44 0 44 44v152h226v-260q0 -52 -29 -81t-81 -29h-284q-169 0 -237.5 82.5t-68.5 267.5t68.5 267.5t237.5 82.5h378v-174z" />
    <glyph glyph-name="H" unicode="H" horiz-adv-x="806" 
d="M756 700v-700h-226v278h-254v-278h-226v700h226v-248h254v248h226z" />
    <glyph glyph-name="I" unicode="I" horiz-adv-x="326" 
d="M276 0h-226v700h226v-700z" />
    <glyph glyph-name="J" unicode="J" horiz-adv-x="532" 
d="M0 0v174h96q90 0 125 35t35 125v366h226v-450q0 -112 -69 -181t-181 -69h-232z" />
    <glyph glyph-name="K" unicode="K" horiz-adv-x="803" 
d="M823 0h-272l-212 271q-31 38 -31 88q0 48 22 77l188 264h268l-243 -289q-21 -23 -21 -50q0 -22 29 -55zM50 0v700h226v-700h-226z" />
    <glyph glyph-name="L" unicode="L" horiz-adv-x="666" 
d="M666 0h-506q-52 0 -81 29t-29 81v590h226v-482q0 -44 44 -44h346v-174z" />
    <glyph glyph-name="M" unicode="M" horiz-adv-x="1072" 
d="M779 424l-108 -338q-10 -31 -20.5 -48.5t-39 -31.5t-75.5 -14q-67 0 -93.5 23.5t-41.5 70.5l-108 338q-8 25 -13 25q-9 0 -9 -23l7 -426h-228v585q0 123 172 123q28 0 49.5 -3.5t48.5 -14t48 -35.5t34 -63l113 -340q9 -32 21 -32t21 32l113 340q13 38 34 63t48 35.5
t49 14t49 3.5q172 0 172 -123v-585h-228l8 426q0 23 -9 23q-6 0 -14 -25z" />
    <glyph glyph-name="N" unicode="N" horiz-adv-x="864" 
d="M814 700v-583q0 -12 -1.5 -23t-10 -31t-23.5 -34.5t-45 -25.5t-72 -11q-49 0 -86 13.5t-66 55.5l-253 357q-12 17 -19 17q-14 0 -14 -20v-415h-174v584q0 64 44.5 94t112.5 30q102 0 148 -65l255 -360q12 -17 19 -17q11 0 11 17v417h174z" />
    <glyph glyph-name="O" unicode="O" horiz-adv-x="830" 
d="M415 708q115 0 183.5 -13.5t116.5 -53t66.5 -108.5t18.5 -183t-18.5 -183t-66.5 -108.5t-116.5 -53t-183.5 -13.5t-183.5 13.5t-116.5 53t-66.5 108.5t-18.5 183t18.5 183t66.5 108.5t116.5 53t183.5 13.5zM262 350q0 -100 32.5 -142t120.5 -42t120.5 42t32.5 142
t-32.5 142t-120.5 42t-120.5 -42t-32.5 -142z" />
    <glyph glyph-name="P" unicode="P" horiz-adv-x="787" 
d="M276 0h-226v590q0 52 29 81t81 29h397q114 0 157 -60t43 -188t-43 -189t-157 -61h-281v-202zM276 376h159q47 0 68.5 16.5t21.5 59.5t-21 58.5t-69 15.5h-115q-44 0 -44 -44v-106z" />
    <glyph glyph-name="Q" unicode="Q" horiz-adv-x="844" 
d="M415 708q115 0 183.5 -13.5t116.5 -53t66.5 -108.5t18.5 -183q0 -107 -35 -180v-4l79 8v-174h-429q-77 0 -129.5 5t-98.5 19t-73.5 38t-47.5 64t-28 94t-8 130q0 114 18.5 183t66.5 108.5t116.5 53t183.5 13.5zM262 350q0 -99 32 -137.5t121 -38.5t121 38.5t32 137.5
q0 100 -32.5 142t-120.5 42t-120.5 -42t-32.5 -142z" />
    <glyph glyph-name="R" unicode="R" horiz-adv-x="789" 
d="M50 0v590q0 52 29 81t81 29h395q114 0 157 -58.5t43 -179.5q0 -249 -156 -249h-30v-4l200 -209h-272l-135 182q-3 5 -13 17.5t-14 18.5t-10 16.5t-8.5 21t-2.5 21.5v15q0 79 101 79h34q45 0 62.5 17t17.5 62q0 44 -17 60t-63 16h-129q-44 0 -44 -44v-482h-226z" />
    <glyph glyph-name="S" unicode="S" horiz-adv-x="702" 
d="M27 0v174h388q39 0 39 22q0 14 -11 21t-34 14l-271 76q-118 32 -118 209q0 184 164 184h462v-174h-356q-48 0 -48 -22q0 -16 15 -24t44 -15l236 -63q79 -21 112 -69.5t33 -139.5q0 -96 -38.5 -144.5t-131.5 -48.5h-485z" />
    <glyph glyph-name="T" unicode="T" horiz-adv-x="726" 
d="M476 0h-226v526h-250v174h726v-174h-250v-526z" />
    <glyph glyph-name="U" unicode="U" horiz-adv-x="794" 
d="M397 174q62 0 91.5 29t29.5 95v402h226v-420q0 -158 -86.5 -223t-260.5 -65t-260.5 65t-86.5 223v420h226v-402q0 -66 29.5 -95t91.5 -29z" />
    <glyph glyph-name="V" unicode="V" horiz-adv-x="798" 
d="M222 700l164 -475q5 -15 13 -15t13 15l164 475h242l-243 -595q-22 -54 -61 -83.5t-115 -29.5t-115 30t-61 83l-243 595h242z" />
    <glyph glyph-name="W" unicode="W" horiz-adv-x="1168" 
d="M350 274l105 358q22 76 129 76t129 -76l105 -358q1 -4 4.5 -10.5t6.5 -6.5q7 0 13 21l116 422h230l-171 -563q-26 -86 -63.5 -115.5t-108.5 -29.5q-75 0 -109.5 29.5t-52.5 91.5l-89 304q-1 2 -2.5 6.5t-3.5 8t-4 3.5t-4 -3.5t-3.5 -8t-2.5 -6.5l-89 -304
q-18 -62 -52.5 -91.5t-109.5 -29.5q-70 0 -108 30t-64 115l-171 563h230l116 -422q6 -21 13 -21q3 0 6.5 6.5t4.5 10.5z" />
    <glyph glyph-name="X" unicode="X" horiz-adv-x="746" 
d="M770 0h-270l-127 197l-127 -197h-270l265 355l-257 345h270l119 -187l119 187h270l-257 -345z" />
    <glyph glyph-name="Y" unicode="Y" horiz-adv-x="792" 
d="M396 398l174 302h242l-303 -506v-194h-226v194l-303 506h242z" />
    <glyph glyph-name="Z" unicode="Z" horiz-adv-x="679" 
d="M668 0h-538q-23 0 -38 2t-38.5 9.5t-36.5 28t-13 52.5q0 77 68 143l278 265q11 9 11 18q0 8 -18 8h-308v174h543q97 0 97 -93q0 -32 -9.5 -57t-20 -38t-29.5 -31l-297 -283q-10 -10 -10 -14q0 -10 12 -10h347v-174z" />
    <glyph glyph-name="bracketleft" unicode="[" horiz-adv-x="411" 
d="M190 578v-612h191v-130h-331v872h331v-130h-191z" />
    <glyph glyph-name="backslash" unicode="\" horiz-adv-x="518" 
d="M408 -170l-418 910h120l418 -910h-120z" />
    <glyph glyph-name="bracketright" unicode="]" horiz-adv-x="411" 
d="M221 -34v612h-191v130h331v-872h-331v130h191z" />
    <glyph glyph-name="asciicircum" unicode="^" horiz-adv-x="612" 
d="M494 505l-150 117q-19 15 -36 15t-36 -15l-151 -117l-71 82l193 147q28 21 63 21t63 -21l193 -147z" />
    <glyph glyph-name="underscore" unicode="_" horiz-adv-x="552" 
d="M30 0v158h492v-158h-492z" />
    <glyph glyph-name="grave" unicode="`" horiz-adv-x="339" 
d="M117 837l192 -159l-87 -108l-192 158z" />
    <glyph glyph-name="a" unicode="a" horiz-adv-x="630" 
d="M60 530h352q82 0 131 -49t49 -131v-240q0 -52 -29 -81t-81 -29h-328q-72 0 -101 41t-29 127q0 80 29.5 122t100.5 42h242v10q0 52 -60 52h-276v136zM396 208h-139q-15 0 -26 -11t-11 -29q0 -15 9.5 -26.5t25.5 -11.5h101q22 0 31 9t9 31v38z" />
    <glyph glyph-name="b" unicode="b" horiz-adv-x="626" 
d="M382 0h-234q-52 0 -81 29t-29 81v590h196v-170h148q121 0 170.5 -68t49.5 -197t-49.5 -197t-170.5 -68zM234 390v-200q0 -30 10 -40t40 -10h36q50 0 66 33t16 92q0 125 -78 125h-90z" />
    <glyph glyph-name="c" unicode="c" horiz-adv-x="551" 
d="M539 0h-295q-66 0 -110 18t-67.5 54.5t-33 82t-9.5 109.5q0 132 47 199t173 67h284v-140h-194q-110 0 -110 -126q0 -62 26 -93t84 -31h205v-140z" />
    <glyph glyph-name="d" unicode="d" horiz-adv-x="626" 
d="M478 0h-234q-121 0 -170.5 68t-49.5 197t49.5 197t170.5 68h148v170h196v-590q0 -52 -29 -81t-81 -29zM392 190v200h-90q-78 0 -78 -125q0 -59 16 -92t66 -33h36q30 0 40 10t10 40z" />
    <glyph glyph-name="e" unicode="e" horiz-adv-x="617" 
d="M574 0h-345q-88 0 -130 22t-58.5 77t-16.5 169q0 63 4 103.5t17 72.5t31 48.5t53 27t75 13.5t105 3q56 0 91 -2t71 -9.5t55.5 -21.5t36.5 -38t23.5 -59.5t6.5 -85.5q0 -118 -84 -118h-289q0 -37 22 -51.5t75 -14.5h257v-136zM220 326h145q32 0 32 33q0 41 -88 41
q-44 0 -66.5 -14.5t-22.5 -59.5z" />
    <glyph glyph-name="f" unicode="f" horiz-adv-x="431" 
d="M279 0h-196v390h-79v140h79q2 29 10 53t18.5 41.5t30 31t36 22t44.5 14.5t46.5 9t52 5t52 2h54.5v-122q-43 0 -62.5 -1t-43.5 -6t-33 -17t-9 -32h148v-140h-148v-390z" />
    <glyph glyph-name="g" unicode="g" horiz-adv-x="626" 
d="M244 530h234q52 0 81 -29t29 -81v-370q0 -120 -55 -175t-175 -55h-297v128h241q38 0 59.5 10t30.5 42h-148q-121 0 -170.5 67.5t-49.5 196.5t49.5 197.5t170.5 68.5zM392 140v200q0 30 -10 40t-40 10h-36q-50 0 -66 -33.5t-16 -92.5q0 -124 78 -124h90z" />
    <glyph glyph-name="h" unicode="h" horiz-adv-x="642" 
d="M38 0v700h196v-170h150q100 0 160 -52.5t60 -147.5v-330h-196v282q0 60 -25 85t-85 25h-64v-392h-196z" />
    <glyph glyph-name="i" unicode="i" horiz-adv-x="272" 
d="M38 0v530h196v-530h-196zM234 573h-196v127h196v-127z" />
    <glyph glyph-name="j" unicode="j" horiz-adv-x="344" 
d="M-40 -170v126q78 0 114 29t36 101v444h196v-490q0 -42 -8.5 -74.5t-21 -54.5t-38 -37.5t-49.5 -24t-65 -13t-75 -5.5t-89 -1zM306 583h-196v117h196v-117z" />
    <glyph glyph-name="k" unicode="k" horiz-adv-x="643" 
d="M657 0h-220l-144 190q-31 42 -31 85q0 39 32 83l121 172h212l-161 -211q-14 -17 -14 -38q0 -23 20 -48zM234 0h-196v700h196v-700z" />
    <glyph glyph-name="l" unicode="l" horiz-adv-x="272" 
d="M38 0v700h196v-700h-196z" />
    <glyph glyph-name="m" unicode="m" horiz-adv-x="876" 
d="M38 0v420q0 58 28 84t82 26h480q99 0 154.5 -52t55.5 -148v-330h-196v280q0 61 -23.5 85.5t-82.5 24.5v-390h-196v390h-66q-22 0 -31 -9t-9 -31v-350h-196z" />
    <glyph glyph-name="n" unicode="n" horiz-adv-x="642" 
d="M38 0v420q0 58 28 84t82 26h246q99 0 154.5 -52t55.5 -148v-330h-196v280q0 60 -25 85t-85 25h-24q-22 0 -31 -9t-9 -31v-350h-196z" />
    <glyph glyph-name="o" unicode="o" horiz-adv-x="660" 
d="M330 536q86 0 141 -11.5t94 -41.5t55 -82.5t16 -135.5t-16 -135.5t-55 -82.5t-94 -41.5t-141 -11.5t-141 11.5t-94 41.5t-55 82.5t-16 135.5t16 135.5t55 82.5t94 41.5t141 11.5zM224 265q0 -67 21.5 -99t84.5 -32t84.5 32t21.5 99t-21.5 99t-84.5 32t-84.5 -32
t-21.5 -99z" />
    <glyph glyph-name="p" unicode="p" horiz-adv-x="626" 
d="M148 530h234q121 0 170.5 -68t49.5 -197t-49.5 -197t-170.5 -68h-148v-170h-196v590q0 52 29 81t81 29zM234 340v-200h90q78 0 78 125q0 59 -16 92t-66 33h-36q-30 0 -40 -10t-10 -40z" />
    <glyph glyph-name="q" unicode="q" horiz-adv-x="626" 
d="M244 530h234q52 0 81 -29t29 -81v-590h-196v170h-148q-121 0 -170.5 68t-49.5 197t49.5 197t170.5 68zM392 140v200q0 30 -10 40t-40 10h-36q-50 0 -66 -33t-16 -92q0 -125 78 -125h90z" />
    <glyph glyph-name="r" unicode="r" horiz-adv-x="431" 
d="M38 0v310q0 123 63 171.5t197 48.5h129v-138h-73q-65 0 -92.5 -35t-27.5 -105v-252h-196z" />
    <glyph glyph-name="s" unicode="s" horiz-adv-x="552" 
d="M24 0v142h289q17 0 17 14q0 7 -13 13.5t-33.5 12.5t-22.5 7l-114 37q-67 22 -98 55.5t-31 103.5q0 145 140 145h362v-136h-288q-32 0 -32 -10q0 -4 2.5 -7.5t8.5 -6.5t11 -4.5t14.5 -4t14.5 -4.5l134 -45q77 -26 113 -61t36 -111q0 -73 -35.5 -106.5t-104.5 -33.5h-370z
" />
    <glyph glyph-name="t" unicode="t" horiz-adv-x="430" 
d="M426 0h-147q-89 0 -144.5 44t-55.5 136v210h-75v140h75v170h196v-170h151v-140h-151v-120q0 -64 27.5 -97t92.5 -33h31v-140z" />
    <glyph glyph-name="u" unicode="u" horiz-adv-x="650" 
d="M612 530v-420q0 -58 -28 -84t-82 -26h-254q-99 0 -154.5 52t-55.5 148v330h196v-282q0 -60 25 -85t85 -25h32q22 0 31 9t9 31v352h196z" />
    <glyph glyph-name="v" unicode="v" horiz-adv-x="648" 
d="M190 530l121 -306q8 -18 13 -18t13 18l121 306h204l-224 -488q-22 -48 -114 -48t-114 48l-224 488h204z" />
    <glyph glyph-name="w" unicode="w" horiz-adv-x="922" 
d="M172 530l80 -305q4 -16 10 -16q4 0 9 15l78 256q17 56 112 56t112 -56l78 -256q5 -15 9 -15q6 0 10 16l80 305h186l-121 -430q-14 -52 -43.5 -79t-96.5 -27q-114 0 -136 77l-70 231q-7 16 -8 16t-8 -16l-70 -231q-22 -77 -136 -77q-67 0 -96.5 27t-43.5 79l-121 430h186z
" />
    <glyph glyph-name="x" unicode="x" horiz-adv-x="612" 
d="M632 0h-228l-98 150l-98 -150h-228l211 272l-194 258h223l86 -136l86 136h223l-194 -258z" />
    <glyph glyph-name="y" unicode="y" horiz-adv-x="641" 
d="M661 530l-316 -701h-196l83 171l-252 530h200l139 -336l146 336h196z" />
    <glyph glyph-name="z" unicode="z" horiz-adv-x="556" 
d="M97 0q-38 0 -62.5 28t-24.5 74q0 65 49 103l229 175q8 6 8 9q0 5 -10 5h-257v136h419q45 0 71.5 -25.5t26.5 -71.5q0 -68 -48 -106l-222 -170q-8 -6 -8 -11q0 -4 9 -4h260v-142h-440z" />
    <glyph glyph-name="braceleft" unicode="{" horiz-adv-x="329" 
d="M151 288v-8q51 -17 51 -94v-110q0 -82 97 -82v-130q-67 1 -109 10.5t-72.5 34t-43 67t-12.5 110.5v79q0 27 -13.5 45.5t-38.5 20.5v106q25 2 38.5 20.5t13.5 45.5v79q0 131 52.5 176.5t184.5 45.5v-130q-97 0 -97 -82v-110q0 -77 -51 -94z" />
    <glyph glyph-name="bar" unicode="|" horiz-adv-x="200" 
d="M40 -170v910h120v-910h-120z" />
    <glyph glyph-name="braceright" unicode="}" horiz-adv-x="329" 
d="M178 280v8q-51 17 -51 94v110q0 82 -97 82v130q132 0 184.5 -45.5t52.5 -176.5v-79q0 -27 13.5 -45.5t38.5 -20.5v-106q-25 -2 -38.5 -20.5t-13.5 -45.5v-79q0 -68 -12.5 -110.5t-43 -67t-72.5 -34t-109 -10.5v130q97 0 97 82v110q0 77 51 94z" />
    <glyph glyph-name="asciitilde" unicode="~" horiz-adv-x="644" 
d="M130 330l-80 69q74 103 168 103q36 0 74 -16l55 -23q34 -14 63 -14q59 0 104 66l80 -66q-77 -114 -184 -114q-35 0 -78 18l-47 21q-22 11 -61 11q-48 0 -94 -55z" />
    <glyph glyph-name="uni00A0" unicode="&#xa0;" horiz-adv-x="233" 
 />
    <glyph glyph-name="exclamdown" unicode="&#xa1;" horiz-adv-x="328" 
d="M66 700h196v-182h-196v182zM258 459l20 -459h-228l20 459h188z" />
    <glyph glyph-name="cent" unicode="&#xa2;" horiz-adv-x="555" 
d="M367 -70h-95v70h-22q-66 0 -110 18t-67.5 54.5t-33 82t-9.5 109.5q0 132 47 199t173 67h22v70h95v-70h167v-140h-194q-110 0 -110 -126q0 -62 26 -93t84 -31h205v-140h-178v-70z" />
    <glyph glyph-name="sterling" unicode="&#xa3;" horiz-adv-x="723" 
d="M723 0h-510q-53 0 -81.5 29t-28.5 81v239h-73v92h73q0 146 50 202.5t190 56.5h185v-174h-119q-52 0 -66 -16t-14 -69h199v-92h-199v-132q0 -43 44 -43h350v-174z" />
    <glyph glyph-name="currency" unicode="&#xa4;" horiz-adv-x="706" 
d="M84 304q0 81 42 145l-76 76l86 87l76 -76q64 41 142 41t141 -40l75 75l86 -87l-74 -75q42 -62 42 -143q0 -79 -42 -141l74 -75l-86 -86l-74 74q-62 -42 -142 -42q-79 0 -142 43l-76 -75l-86 86l74 75q-40 56 -40 138zM255 307q0 -40 29 -69.5t70 -29.5q40 0 69.5 29.5
t29.5 69.5q0 41 -29.5 70t-69.5 29q-42 0 -70.5 -28.5t-28.5 -70.5z" />
    <glyph glyph-name="yen" unicode="&#xa5;" horiz-adv-x="712" 
d="M672 303h-160l-43 -75v-14h203v-108h-203v-106h-226v106h-203v108h203v14l-43 75h-160v108h97l-167 289h242l144 -272l144 272h242l-167 -289h97v-108z" />
    <glyph glyph-name="brokenbar" unicode="&#xa6;" horiz-adv-x="200" 
d="M40 -63v300h120v-300h-120zM40 440v300h120v-300h-120z" />
    <glyph glyph-name="section" unicode="&#xa7;" horiz-adv-x="526" 
d="M79 -170v140h147q14 0 21.5 0.5t17.5 2t14 5.5t4 10q0 2 -0.5 3.5t-1.5 3t-3 3.5t-3.5 4t-5 4.5t-6 5t-7 6.5t-8.5 7l-168 141q-50 43 -50 110q0 62 35.5 102t96.5 48l-67 56q-46 40 -46 100q0 118 146 118h251v-140h-170q-24 0 -29.5 -2.5t-5.5 -10.5q0 -7 30 -32
l170 -143q55 -47 55 -119q0 -62 -37.5 -99.5t-101.5 -39.5l59 -51q60 -53 60 -116q0 -117 -152 -117h-245zM250 208q84 0 84 43q0 31 -28 53l-38 28q-76 0 -76 -46q0 -33 31 -57z" />
    <glyph glyph-name="dieresis" unicode="&#xa8;" horiz-adv-x="534" 
d="M311 590v128h173v-128h-173zM223 590h-173v128h173v-128z" />
    <glyph glyph-name="copyright" unicode="&#xa9;" horiz-adv-x="808" 
d="M404 708q187 0 270.5 -84.5t83.5 -272.5t-83.5 -273.5t-270.5 -85.5t-270.5 85.5t-83.5 273.5t83.5 272.5t270.5 84.5zM165 351q0 -138 53 -197t186 -59t186 59t53 197q0 137 -53 195.5t-186 58.5t-186 -58.5t-53 -195.5zM551 177h-168q-82 0 -113 46.5t-31 130.5
q0 85 32 132.5t115 47.5h152v-100h-86q-44 0 -58.5 -17t-14.5 -63q0 -45 13 -61t52 -16h107v-100z" />
    <glyph glyph-name="ordfeminine" unicode="&#xaa;" horiz-adv-x="440" 
d="M71 704h211q108 0 108 -117v-133q0 -35 -13.5 -51.5t-55.5 -16.5h-187q-45 0 -64.5 23.5t-19.5 76.5t19.5 76.5t64.5 23.5h139v5q0 34 -42 34h-160v79zM273 511h-85q-21 0 -21 -20t21 -20h61q24 0 24 20v20zM54 230v80h332v-80h-332z" />
    <glyph glyph-name="guillemotleft" unicode="&#xab;" horiz-adv-x="636" 
d="M345 452l-97 -139q-11 -14 -11 -32t11 -32l97 -139l-124 -96l-145 189q-26 31 -26 78t26 78l145 189zM586 382l-54 -77q-11 -15 -11 -24t11 -24l54 -77l-128 -96l-102 133q-30 40 -30 64t30 64l102 133z" />
    <glyph glyph-name="logicalnot" unicode="&#xac;" horiz-adv-x="708" 
d="M658 389v-288h-140v158h-468v130h608z" />
    <glyph glyph-name="uni00AD" unicode="&#xad;" horiz-adv-x="487" 
d="M30 189v158h427v-158h-427z" />
    <glyph glyph-name="registered" unicode="&#xae;" horiz-adv-x="534" 
d="M267 275q-114 0 -165.5 49.5t-51.5 167.5t51 166t166 48t166 -48t51 -166t-51.5 -167.5t-165.5 -49.5zM267 337q89 0 119.5 32t30.5 119q0 94 -30 125t-120 31t-120 -30t-30 -120q0 -91 30.5 -124t119.5 -33zM225 389h-70v187q0 20 8 24.5t39 4.5h98q45 0 60.5 -14
t15.5 -62q0 -74 -47 -74h-11l62 -66h-86l-38 52q-14 19 -14 34q0 32 26 32h12q24 0 24 17v11q0 12 -7 15t-21 3h-31q-13 0 -16.5 -4t-3.5 -18v-142z" />
    <glyph glyph-name="macron" unicode="&#xaf;" horiz-adv-x="349" 
d="M319 596h-289v110h289v-110z" />
    <glyph glyph-name="degree" unicode="&#xb0;" horiz-adv-x="298" 
d="M30 649q0 49 35 84t84 35t84 -35t35 -84t-35 -84t-84 -35t-84 35t-35 84zM90 649q0 -25 17 -42t42 -17t42 17t17 42t-17 42t-42 17t-42 -17t-17 -42z" />
    <glyph glyph-name="plusminus" unicode="&#xb1;" horiz-adv-x="708" 
d="M422 215h-136v235h-236v130h236v235h136v-235h236v-130h-236v-235zM658 23h-608v130h608v-130z" />
    <glyph glyph-name="twosuperior" unicode="&#xb2;" horiz-adv-x="457" 
d="M108 295q-30 0 -44 21.5t-14 54.5q0 58 37 78l169 91q21 12 21 35q0 28 -42 28h-161v97h243q90 0 90 -109q0 -43 -11 -70t-21 -35t-30 -18l-122 -63q-6 -3 -6 -6q0 -2 4 -2h178v-102h-291z" />
    <glyph glyph-name="threesuperior" unicode="&#xb3;" horiz-adv-x="461" 
d="M50 295v100h183q17 0 24.5 1t14 8.5t6.5 23.5q0 20 -10 24.5t-34 4.5h-175v89h168q14 0 21 1t13.5 8.5t6.5 21.5q0 13 -7 19t-13.5 7t-19.5 1h-174v96h247q52 0 75.5 -24.5t23.5 -77.5q0 -39 -14.5 -61t-50.5 -29v-4q76 -4 76 -92q0 -117 -106 -117h-255z" />
    <glyph glyph-name="acute" unicode="&#xb4;" horiz-adv-x="339" 
d="M222 837l87 -109l-192 -158l-87 108z" />
    <glyph glyph-name="mu" unicode="&#xb5;" horiz-adv-x="670" 
d="M50 -177v707h197v-300q0 -42 22.5 -69t64.5 -27q38 0 63.5 26.5t25.5 66.5v303h197v-530h-187v73q-12 -37 -39 -58t-61 -21q-35 0 -60.5 19.5t-35.5 52.5v-243h-187z" />
    <glyph glyph-name="paragraph" unicode="&#xb6;" horiz-adv-x="742" 
d="M647 -170h-136v740h-62v-740h-136v459h-65q-107 0 -152.5 53t-45.5 153q0 205 198 205h464v-130h-65v-740zM313 419v151h-49q-74 0 -74 -75q0 -76 74 -76h49z" />
    <glyph glyph-name="periodcentered" unicode="&#xb7;" horiz-adv-x="298" 
d="M248 250h-198v180h198v-180z" />
    <glyph glyph-name="cedilla" unicode="&#xb8;" horiz-adv-x="244" 
d="M30 -200v70h69q21 0 21 14q0 15 -24 15h-30q-35 0 -35 29q0 8 5 21l24 51h76l-11 -23q-3 -6 -3 -7q0 -5 8 -5h9q38 0 56.5 -19t18.5 -63q0 -83 -100 -83h-84z" />
    <glyph glyph-name="onesuperior" unicode="&#xb9;" horiz-adv-x="261" 
d="M83 295v276q0 30 -30 30h-43v99h131q37 0 53.5 -16t16.5 -54v-335h-128z" />
    <glyph glyph-name="ordmasculine" unicode="&#xba;" horiz-adv-x="441" 
d="M221 708q91 0 130.5 -39t39.5 -131t-39.5 -130.5t-130.5 -38.5t-131 38.5t-40 130.5t40 131t131 39zM138 538q0 -49 18 -68.5t65 -19.5t64.5 19.5t17.5 68.5t-17.5 69t-64.5 20t-65 -20t-18 -69zM54 230v80h333v-80h-333z" />
    <glyph glyph-name="guillemotright" unicode="&#xbb;" horiz-adv-x="636" 
d="M291 452l124 96l145 -189q26 -31 26 -78t-26 -78l-145 -189l-124 96l97 139q11 14 11 32t-11 32zM50 382l128 96l102 -133q30 -40 30 -64t-30 -64l-102 -133l-128 96l54 77q11 15 11 24t-11 24z" />
    <glyph glyph-name="onequarter" unicode="&#xbc;" horiz-adv-x="874" 
d="M133 0l406 700h104l-406 -700h-104zM638 0v57h-178q-59 0 -59 81q0 53 31 81l184 165q31 26 79 26q22 0 35.5 -3.5t24.5 -18.5t11 -43v-183h58v-105h-58v-57h-128zM638 162v101q0 3 -2 3q-3 0 -9 -6l-96 -86q-5 -5 -5 -7q0 -5 7 -5h105zM123 295v276q0 30 -30 30h-43v99
h131q37 0 53.5 -16t16.5 -54v-335h-128z" />
    <glyph glyph-name="onehalf" unicode="&#xbd;" horiz-adv-x="910" 
d="M133 0l406 700h104l-406 -700h-104zM123 295v276q0 30 -30 30h-43v99h131q37 0 53.5 -16t16.5 -54v-335h-128zM561 0q-30 0 -44 21.5t-14 54.5q0 58 37 78l169 91q21 12 21 35q0 28 -42 28h-161v97h243q90 0 90 -109q0 -43 -11 -70t-21 -35t-30 -18l-122 -63q-6 -3 -6 -6
q0 -2 4 -2h178v-102h-291z" />
    <glyph glyph-name="threequarters" unicode="&#xbe;" horiz-adv-x="1002" 
d="M261 0l406 700h104l-406 -700h-104zM50 295v100h183q17 0 24.5 1t14 8.5t6.5 23.5q0 20 -10 24.5t-34 4.5h-175v89h168q14 0 21 1t13.5 8.5t6.5 21.5q0 13 -7 19t-13.5 7t-19.5 1h-174v96h247q52 0 75.5 -24.5t23.5 -77.5q0 -39 -14.5 -61t-50.5 -29v-4q76 -4 76 -92
q0 -117 -106 -117h-255zM766 0v57h-178q-59 0 -59 81q0 53 31 81l184 165q31 26 79 26q22 0 35.5 -3.5t24.5 -18.5t11 -43v-183h58v-105h-58v-57h-128zM766 162v101q0 3 -2 3q-3 0 -9 -6l-96 -86q-5 -5 -5 -7q0 -5 7 -5h105z" />
    <glyph glyph-name="questiondown" unicode="&#xbf;" horiz-adv-x="510" 
d="M406 700v-182h-196v182h196zM210 459h196v-35q0 -42 -17.5 -66t-57.5 -51l-31 -21q-29 -20 -37.5 -33.5t-8.5 -37.5q0 -19 9.5 -28.5t21 -11t36.5 -1.5h179v-174h-313q-83 0 -120 38.5t-37 127.5q0 67 21 107t66 69l50 34q43 27 43 66v17z" />
    <glyph glyph-name="Agrave" unicode="&#xc0;" horiz-adv-x="798" 
d="M-20 0l259 623q19 44 52 64.5t108 20.5q61 0 99.5 -16t60.5 -69l259 -623h-238l-55 144h-252l-55 -144h-238zM390 481l-63 -177h144l-63 177q-1 1 -2.5 4t-2 5.5t-2 4t-2.5 1.5zM346 1007l192 -159l-87 -108l-192 158z" />
    <glyph glyph-name="Aacute" unicode="&#xc1;" horiz-adv-x="798" 
d="M-20 0l259 623q19 44 52 64.5t108 20.5q61 0 99.5 -16t60.5 -69l259 -623h-238l-55 144h-252l-55 -144h-238zM390 481l-63 -177h144l-63 177q-1 1 -2.5 4t-2 5.5t-2 4t-2.5 1.5zM451 1007l87 -109l-192 -158l-87 108z" />
    <glyph glyph-name="Acircumflex" unicode="&#xc2;" horiz-adv-x="798" 
d="M-20 0l259 623q19 44 52 64.5t108 20.5q61 0 99.5 -16t60.5 -69l259 -623h-238l-55 144h-252l-55 -144h-238zM390 481l-63 -177h144l-63 177q-1 1 -2.5 4t-2 5.5t-2 4t-2.5 1.5zM548 740l-119 95q-14 12 -29 12q-12 0 -29 -12l-119 -95l-62 89l159 120q20 17 50 17
t50 -17l159 -120z" />
    <glyph glyph-name="Atilde" unicode="&#xc3;" horiz-adv-x="798" 
d="M-20 0l259 623q19 44 52 64.5t108 20.5q61 0 99.5 -16t60.5 -69l259 -623h-238l-55 144h-252l-55 -144h-238zM390 481l-63 -177h144l-63 177q-1 1 -2.5 4t-2 5.5t-2 4t-2.5 1.5zM237 744l-68 66q66 95 153 95q27 0 52 -11l44 -21q39 -20 65 -20q40 0 77 59l68 -62
q-34 -48 -70 -76t-85 -28q-36 0 -66 14l-42 21q-26 14 -51 14q-22 0 -39 -13t-38 -38z" />
    <glyph glyph-name="Adieresis" unicode="&#xc4;" horiz-adv-x="798" 
d="M-20 0l259 623q19 44 52 64.5t108 20.5q61 0 99.5 -16t60.5 -69l259 -623h-238l-55 144h-252l-55 -144h-238zM390 481l-63 -177h144l-63 177q-1 1 -2.5 4t-2 5.5t-2 4t-2.5 1.5zM624 766h-182v129h182v-129zM357 766h-183v129h183v-129z" />
    <glyph glyph-name="Aring" unicode="&#xc5;" horiz-adv-x="798" 
d="M-20 0l259 623q19 44 52 64.5t108 20.5q61 0 99.5 -16t60.5 -69l259 -623h-238l-55 144h-252l-55 -144h-238zM390 481l-63 -177h144l-63 177q-1 1 -2.5 4t-2 5.5t-2 4t-2.5 1.5zM399 978q66 0 92.5 -28.5t26.5 -90.5t-26.5 -90t-92.5 -28t-93 28t-27 90t27 90.5t93 28.5z
M351 859q0 -25 10 -38.5t38 -13.5t37.5 13t9.5 39t-9.5 39.5t-37.5 13.5t-38 -13.5t-10 -39.5z" />
    <glyph glyph-name="AE" unicode="&#xc6;" horiz-adv-x="1174" 
d="M1139 700v-170h-346q-44 0 -44 -44v-52h382v-154h-382v-66q0 -44 44 -44h351v-170h-511q-53 0 -81.5 29t-28.5 81v31h-217l-80 -141h-256l393 632q26 42 62.5 55t94.5 13h619zM511 502l-113 -199h125v198q0 14 -3 14t-9 -13z" />
    <glyph glyph-name="Ccedilla" unicode="&#xc7;" horiz-adv-x="652" 
d="M340 -200v70h69q21 0 21 14q0 15 -24 15h-30q-35 0 -35 29q0 8 5 21l24 51h-34q-169 0 -237.5 82.5t-68.5 267.5t68.5 267.5t237.5 82.5h296v-174h-180q-115 0 -152.5 -33t-37.5 -143t37.5 -143t152.5 -33h190v-174h-196l-11 -23q-3 -6 -3 -7q0 -5 8 -5h9q38 0 56.5 -19
t18.5 -63q0 -83 -100 -83h-84z" />
    <glyph glyph-name="Egrave" unicode="&#xc8;" horiz-adv-x="700" 
d="M666 700v-170h-346q-44 0 -44 -44v-52h382v-154h-382v-66q0 -44 44 -44h350v-170h-510q-52 0 -81 29t-29 81v480q0 52 29 81t81 29h506zM297 1007l192 -159l-87 -108l-192 158z" />
    <glyph glyph-name="Eacute" unicode="&#xc9;" horiz-adv-x="700" 
d="M666 700v-170h-346q-44 0 -44 -44v-52h382v-154h-382v-66q0 -44 44 -44h350v-170h-510q-52 0 -81 29t-29 81v480q0 52 29 81t81 29h506zM462 1007l87 -109l-192 -158l-87 108z" />
    <glyph glyph-name="Ecircumflex" unicode="&#xca;" horiz-adv-x="700" 
d="M666 700v-170h-346q-44 0 -44 -44v-52h382v-154h-382v-66q0 -44 44 -44h350v-170h-510q-52 0 -81 29t-29 81v480q0 52 29 81t81 29h506zM519 740l-119 95q-14 12 -29 12q-13 0 -29 -12l-119 -95l-62 89l159 120q20 17 50 17t50 -17l159 -120z" />
    <glyph glyph-name="Edieresis" unicode="&#xcb;" horiz-adv-x="700" 
d="M666 700v-170h-346q-44 0 -44 -44v-52h382v-154h-382v-66q0 -44 44 -44h350v-170h-510q-52 0 -81 29t-29 81v480q0 52 29 81t81 29h506zM585 766h-182v129h182v-129zM318 766h-183v129h183v-129z" />
    <glyph glyph-name="Igrave" unicode="&#xcc;" horiz-adv-x="326" 
d="M276 0h-226v700h226v-700zM110 1007l192 -159l-87 -108l-192 158z" />
    <glyph glyph-name="Iacute" unicode="&#xcd;" horiz-adv-x="326" 
d="M276 0h-226v700h226v-700zM215 1007l87 -109l-192 -158l-87 108z" />
    <glyph glyph-name="Icircumflex" unicode="&#xce;" horiz-adv-x="326" 
d="M276 0h-226v700h226v-700zM312 740l-119 95q-14 12 -29 12q-12 0 -29 -12l-119 -95l-62 89l159 120q20 17 50 17t50 -17l159 -120z" />
    <glyph glyph-name="Idieresis" unicode="&#xcf;" horiz-adv-x="354" 
d="M291 0h-226v700h226v-700zM364 746h-157v129h157v-129zM148 746h-158v129h158v-129z" />
    <glyph glyph-name="Eth" unicode="&#xd0;" horiz-adv-x="816" 
d="M470 0h-292q-52 0 -81 29t-29 81v161h-78v148h78v171q0 52 29 81t81 29h292q167 0 231.5 -81.5t64.5 -268.5t-64.5 -268.5t-231.5 -81.5zM294 476v-57h127v-148h-127v-47q0 -27 11.5 -38.5t38.5 -11.5h10q108 0 144 33t36 143q0 107 -38.5 141.5t-141.5 34.5h-10
q-27 0 -38.5 -11.5t-11.5 -38.5z" />
    <glyph glyph-name="Ntilde" unicode="&#xd1;" horiz-adv-x="864" 
d="M814 700v-583q0 -12 -1.5 -23t-10 -31t-23.5 -34.5t-45 -25.5t-72 -11q-49 0 -86 13.5t-66 55.5l-253 357q-12 17 -19 17q-14 0 -14 -20v-415h-174v584q0 64 44.5 94t112.5 30q102 0 148 -65l255 -360q12 -17 19 -17q11 0 11 17v417h174zM270 744l-68 66q66 95 153 95
q27 0 52 -11l44 -21q39 -20 65 -20q40 0 77 59l68 -62q-34 -48 -70 -76t-85 -28q-36 0 -66 14l-42 21q-26 14 -51 14q-22 0 -39 -13t-38 -38z" />
    <glyph glyph-name="Ograve" unicode="&#xd2;" horiz-adv-x="830" 
d="M415 708q115 0 183.5 -13.5t116.5 -53t66.5 -108.5t18.5 -183t-18.5 -183t-66.5 -108.5t-116.5 -53t-183.5 -13.5t-183.5 13.5t-116.5 53t-66.5 108.5t-18.5 183t18.5 183t66.5 108.5t116.5 53t183.5 13.5zM262 350q0 -100 32.5 -142t120.5 -42t120.5 42t32.5 142
t-32.5 142t-120.5 42t-120.5 -42t-32.5 -142zM362 1007l192 -159l-87 -108l-192 158z" />
    <glyph glyph-name="Oacute" unicode="&#xd3;" horiz-adv-x="830" 
d="M415 708q115 0 183.5 -13.5t116.5 -53t66.5 -108.5t18.5 -183t-18.5 -183t-66.5 -108.5t-116.5 -53t-183.5 -13.5t-183.5 13.5t-116.5 53t-66.5 108.5t-18.5 183t18.5 183t66.5 108.5t116.5 53t183.5 13.5zM262 350q0 -100 32.5 -142t120.5 -42t120.5 42t32.5 142
t-32.5 142t-120.5 42t-120.5 -42t-32.5 -142zM467 1007l87 -109l-192 -158l-87 108z" />
    <glyph glyph-name="Ocircumflex" unicode="&#xd4;" horiz-adv-x="830" 
d="M415 708q115 0 183.5 -13.5t116.5 -53t66.5 -108.5t18.5 -183t-18.5 -183t-66.5 -108.5t-116.5 -53t-183.5 -13.5t-183.5 13.5t-116.5 53t-66.5 108.5t-18.5 183t18.5 183t66.5 108.5t116.5 53t183.5 13.5zM262 350q0 -100 32.5 -142t120.5 -42t120.5 42t32.5 142
t-32.5 142t-120.5 42t-120.5 -42t-32.5 -142zM564 740l-119 95q-14 12 -29 12q-13 0 -29 -12l-119 -95l-62 89l159 120q20 17 50 17t50 -17l159 -120z" />
    <glyph glyph-name="Otilde" unicode="&#xd5;" horiz-adv-x="830" 
d="M415 708q115 0 183.5 -13.5t116.5 -53t66.5 -108.5t18.5 -183t-18.5 -183t-66.5 -108.5t-116.5 -53t-183.5 -13.5t-183.5 13.5t-116.5 53t-66.5 108.5t-18.5 183t18.5 183t66.5 108.5t116.5 53t183.5 13.5zM262 350q0 -100 32.5 -142t120.5 -42t120.5 42t32.5 142
t-32.5 142t-120.5 42t-120.5 -42t-32.5 -142zM253 744l-68 66q66 95 153 95q27 0 52 -11l44 -21q39 -20 65 -20q40 0 77 59l68 -62q-34 -48 -70 -76t-85 -28q-36 0 -66 14l-42 21q-26 14 -51 14q-22 0 -39 -13t-38 -38z" />
    <glyph glyph-name="Odieresis" unicode="&#xd6;" horiz-adv-x="830" 
d="M415 708q115 0 183.5 -13.5t116.5 -53t66.5 -108.5t18.5 -183t-18.5 -183t-66.5 -108.5t-116.5 -53t-183.5 -13.5t-183.5 13.5t-116.5 53t-66.5 108.5t-18.5 183t18.5 183t66.5 108.5t116.5 53t183.5 13.5zM262 350q0 -100 32.5 -142t120.5 -42t120.5 42t32.5 142
t-32.5 142t-120.5 42t-120.5 -42t-32.5 -142zM640 766h-182v129h182v-129zM373 766h-183v129h183v-129z" />
    <glyph glyph-name="multiply" unicode="&#xd7;" horiz-adv-x="672" 
d="M602 139l-96 -96l-170 170l-170 -170l-96 96l170 170l-170 170l96 96l170 -170l170 170l96 -96l-170 -170z" />
    <glyph glyph-name="Oslash" unicode="&#xd8;" horiz-adv-x="833" 
d="M417 708q206 0 284 -54l69 63l48 -54l-67 -60q51 -78 51 -253q0 -114 -18.5 -183t-66.5 -108.5t-116.5 -53t-183.5 -13.5q-208 0 -285 54l-69 -62l-48 54l67 60q-50 77 -50 252q0 114 18.5 183t66.5 108.5t116.5 53t183.5 13.5zM570 350q0 51 -7 83l-260 -233
q35 -34 114 -34q88 0 120.5 42t32.5 142zM264 350q0 -48 6 -82l259 232q-34 34 -112 34q-88 0 -120.5 -42t-32.5 -142z" />
    <glyph glyph-name="Ugrave" unicode="&#xd9;" horiz-adv-x="794" 
d="M397 174q62 0 91.5 29t29.5 95v402h226v-420q0 -158 -86.5 -223t-260.5 -65t-260.5 65t-86.5 223v420h226v-402q0 -66 29.5 -95t91.5 -29zM314 1007l192 -159l-87 -108l-192 158z" />
    <glyph glyph-name="Uacute" unicode="&#xda;" horiz-adv-x="794" 
d="M397 174q62 0 91.5 29t29.5 95v402h226v-420q0 -158 -86.5 -223t-260.5 -65t-260.5 65t-86.5 223v420h226v-402q0 -66 29.5 -95t91.5 -29zM479 1007l87 -109l-192 -158l-87 108z" />
    <glyph glyph-name="Ucircumflex" unicode="&#xdb;" horiz-adv-x="794" 
d="M397 174q62 0 91.5 29t29.5 95v402h226v-420q0 -158 -86.5 -223t-260.5 -65t-260.5 65t-86.5 223v420h226v-402q0 -66 29.5 -95t91.5 -29zM546 740l-119 95q-14 12 -29 12q-12 0 -29 -12l-119 -95l-62 89l159 120q20 17 50 17t50 -17l159 -120z" />
    <glyph glyph-name="Udieresis" unicode="&#xdc;" horiz-adv-x="794" 
d="M397 174q62 0 91.5 29t29.5 95v402h226v-420q0 -158 -86.5 -223t-260.5 -65t-260.5 65t-86.5 223v420h226v-402q0 -66 29.5 -95t91.5 -29zM622 766h-182v129h182v-129zM355 766h-183v129h183v-129z" />
    <glyph glyph-name="Yacute" unicode="&#xdd;" horiz-adv-x="792" 
d="M396 398l174 302h242l-303 -506v-194h-226v194l-303 506h242zM488 1007l87 -109l-192 -158l-87 108z" />
    <glyph glyph-name="Thorn" unicode="&#xde;" horiz-adv-x="828" 
d="M70 0v700h226v-100h304q105 0 141.5 -54.5t36.5 -170.5t-36.5 -171t-141.5 -55h-304v-149h-226zM296 323h169q27 0 40.5 1.5t27 14t13.5 36.5t-13.5 36t-26.5 13.5t-40 1.5h-170v-103z" />
    <glyph glyph-name="germandbls" unicode="&#xdf;" horiz-adv-x="649" 
d="M50 0v419q0 287 302 287q115 0 176 -43.5t61 -156.5q0 -122 -99 -134v-4q76 -7 102.5 -45.5t26.5 -118.5q0 -103 -40 -153.5t-140 -50.5h-120v140h24q43 0 59.5 18.5t16.5 58.5t-16.5 59t-59.5 19h-24v134h20q52 0 52 66q0 77 -63 77q-45 0 -63.5 -25.5t-18.5 -86.5v-460
h-196z" />
    <glyph glyph-name="agrave" unicode="&#xe0;" horiz-adv-x="630" 
d="M60 530h352q82 0 131 -49t49 -131v-240q0 -52 -29 -81t-81 -29h-328q-72 0 -101 41t-29 127q0 80 29.5 122t100.5 42h242v10q0 52 -60 52h-276v136zM396 208h-139q-15 0 -26 -11t-11 -29q0 -15 9.5 -26.5t25.5 -11.5h101q22 0 31 9t9 31v38zM231 837l192 -159l-87 -108
l-192 158z" />
    <glyph glyph-name="aacute" unicode="&#xe1;" horiz-adv-x="630" 
d="M60 530h352q82 0 131 -49t49 -131v-240q0 -52 -29 -81t-81 -29h-328q-72 0 -101 41t-29 127q0 80 29.5 122t100.5 42h242v10q0 52 -60 52h-276v136zM396 208h-139q-15 0 -26 -11t-11 -29q0 -15 9.5 -26.5t25.5 -11.5h101q22 0 31 9t9 31v38zM376 837l87 -109l-192 -158
l-87 108z" />
    <glyph glyph-name="acircumflex" unicode="&#xe2;" horiz-adv-x="630" 
d="M60 530h352q82 0 131 -49t49 -131v-240q0 -52 -29 -81t-81 -29h-328q-72 0 -101 41t-29 127q0 80 29.5 122t100.5 42h242v10q0 52 -60 52h-276v136zM396 208h-139q-15 0 -26 -11t-11 -29q0 -15 9.5 -26.5t25.5 -11.5h101q22 0 31 9t9 31v38zM463 570l-119 95
q-14 12 -29 12q-13 0 -29 -12l-119 -95l-62 89l159 120q23 17 50 17t50 -17l159 -120z" />
    <glyph glyph-name="atilde" unicode="&#xe3;" horiz-adv-x="630" 
d="M60 530h352q82 0 131 -49t49 -131v-240q0 -52 -29 -81t-81 -29h-328q-72 0 -101 41t-29 127q0 80 29.5 122t100.5 42h242v10q0 52 -60 52h-276v136zM396 208h-139q-15 0 -26 -11t-11 -29q0 -15 9.5 -26.5t25.5 -11.5h101q22 0 31 9t9 31v38zM152 574l-68 66q66 95 153 95
q30 0 52 -11l44 -21q42 -20 65 -20q40 0 77 59l68 -62q-34 -48 -70 -76t-85 -28q-40 0 -66 14l-42 21q-26 14 -51 14q-22 0 -39 -13t-38 -38z" />
    <glyph glyph-name="adieresis" unicode="&#xe4;" horiz-adv-x="630" 
d="M60 530h352q82 0 131 -49t49 -131v-240q0 -52 -29 -81t-81 -29h-328q-72 0 -101 41t-29 127q0 80 29.5 122t100.5 42h242v10q0 52 -60 52h-276v136zM396 208h-139q-15 0 -26 -11t-11 -29q0 -15 9.5 -26.5t25.5 -11.5h101q22 0 31 9t9 31v38zM358 590v128h173v-128h-173z
M270 590h-173v128h173v-128z" />
    <glyph glyph-name="aring" unicode="&#xe5;" horiz-adv-x="630" 
d="M60 530h352q82 0 131 -49t49 -131v-240q0 -52 -29 -81t-81 -29h-328q-72 0 -101 41t-29 127q0 80 29.5 122t100.5 42h242v10q0 52 -60 52h-276v136zM396 208h-139q-15 0 -26 -11t-11 -29q0 -15 9.5 -26.5t25.5 -11.5h101q22 0 31 9t9 31v38zM314 807q66 0 92.5 -28.5
t26.5 -90.5t-26.5 -90t-92.5 -28t-93 28t-27 90t27 90.5t93 28.5zM266 688q0 -25 10 -38.5t38 -13.5t37.5 13t9.5 39t-9.5 39.5t-37.5 13.5t-38 -13.5t-10 -39.5z" />
    <glyph glyph-name="ae" unicode="&#xe6;" horiz-adv-x="977" 
d="M940 0h-345q-67 0 -103 24q-20 -24 -56 -24h-288q-72 0 -101 41t-29 127q0 80 29.5 122t100.5 42h242v10q0 52 -60 52h-276v136h332q61 0 106 -32q52 38 183 38q56 0 91 -2t71 -9.5t55.5 -21.5t36.5 -38t23.5 -59.5t6.5 -85.5q0 -52 -18 -82t-66 -30h-289q0 -38 22.5 -55
t74.5 -17h257v-136zM390 208h-139q-16 0 -26.5 -10t-10.5 -27q0 -15 9.5 -28t25.5 -13h101q40 0 40 46v32zM586 332h145q15 0 22.5 6t8.5 11t1 13q0 38 -88 38q-23 0 -35.5 -1.5t-27 -7.5t-20.5 -20.5t-6 -38.5z" />
    <glyph glyph-name="ccedilla" unicode="&#xe7;" horiz-adv-x="543" 
d="M254 -200v70h69q21 0 21 14q0 15 -24 15h-30q-35 0 -35 29q0 8 5 21l24 51h-46q-66 0 -110 18t-67.5 54.5t-33 82t-9.5 109.5q0 132 47 199t173 67h284v-140h-194q-110 0 -110 -126q0 -62 26 -93t84 -31h205v-140h-173l-11 -23q-3 -6 -3 -7q0 -5 8 -5h9q38 0 56.5 -19
t18.5 -63q0 -83 -100 -83h-84z" />
    <glyph glyph-name="egrave" unicode="&#xe8;" horiz-adv-x="617" 
d="M574 0h-345q-88 0 -130 22t-58.5 77t-16.5 169q0 63 4 103.5t17 72.5t31 48.5t53 27t75 13.5t105 3q56 0 91 -2t71 -9.5t55.5 -21.5t36.5 -38t23.5 -59.5t6.5 -85.5q0 -118 -84 -118h-289q0 -37 22 -51.5t75 -14.5h257v-136zM220 326h145q32 0 32 33q0 41 -88 41
q-44 0 -66.5 -14.5t-22.5 -59.5zM236 837l192 -159l-87 -108l-192 158z" />
    <glyph glyph-name="eacute" unicode="&#xe9;" horiz-adv-x="617" 
d="M574 0h-345q-88 0 -130 22t-58.5 77t-16.5 169q0 63 4 103.5t17 72.5t31 48.5t53 27t75 13.5t105 3q56 0 91 -2t71 -9.5t55.5 -21.5t36.5 -38t23.5 -59.5t6.5 -85.5q0 -118 -84 -118h-289q0 -37 22 -51.5t75 -14.5h257v-136zM220 326h145q32 0 32 33q0 41 -88 41
q-44 0 -66.5 -14.5t-22.5 -59.5zM411 837l87 -109l-192 -158l-87 108z" />
    <glyph glyph-name="ecircumflex" unicode="&#xea;" horiz-adv-x="617" 
d="M574 0h-345q-88 0 -130 22t-58.5 77t-16.5 169q0 63 4 103.5t17 72.5t31 48.5t53 27t75 13.5t105 3q56 0 91 -2t71 -9.5t55.5 -21.5t36.5 -38t23.5 -59.5t6.5 -85.5q0 -118 -84 -118h-289q0 -37 22 -51.5t75 -14.5h257v-136zM220 326h145q32 0 32 33q0 41 -88 41
q-44 0 -66.5 -14.5t-22.5 -59.5zM457 570l-119 95q-14 12 -29 12q-13 0 -29 -12l-119 -95l-62 89l159 120q23 17 50 17t50 -17l159 -120z" />
    <glyph glyph-name="edieresis" unicode="&#xeb;" horiz-adv-x="617" 
d="M574 0h-345q-88 0 -130 22t-58.5 77t-16.5 169q0 63 4 103.5t17 72.5t31 48.5t53 27t75 13.5t105 3q56 0 91 -2t71 -9.5t55.5 -21.5t36.5 -38t23.5 -59.5t6.5 -85.5q0 -118 -84 -118h-289q0 -37 22 -51.5t75 -14.5h257v-136zM220 326h145q32 0 32 33q0 41 -88 41
q-44 0 -66.5 -14.5t-22.5 -59.5zM352 590v128h173v-128h-173zM264 590h-173v128h173v-128z" />
    <glyph glyph-name="igrave" unicode="&#xec;" horiz-adv-x="256" 
d="M30 0v530h196v-530h-196zM75 837l192 -159l-87 -108l-192 158z" />
    <glyph glyph-name="iacute" unicode="&#xed;" horiz-adv-x="256" 
d="M30 0v530h196v-530h-196zM180 837l87 -109l-192 -158l-87 108z" />
    <glyph glyph-name="icircumflex" unicode="&#xee;" horiz-adv-x="256" 
d="M30 0v530h196v-530h-196zM277 570l-119 95q-14 12 -29 12q-13 0 -29 -12l-119 -95l-62 89l159 120q23 17 50 17t50 -17l159 -120z" />
    <glyph glyph-name="idieresis" unicode="&#xef;" horiz-adv-x="364" 
d="M84 0v530h196v-530h-196zM208 572v128h156v-128h-156zM156 572h-156v128h156v-128z" />
    <glyph glyph-name="eth" unicode="&#xf0;" horiz-adv-x="612" 
d="M472 0h-234q-121 0 -170.5 68t-49.5 197t49.5 197t170.5 68h148q0 48 -37 90l-112 -39l-24 67l83 29q-43 40 -104 70l84 51q75 -32 136 -82l110 38l26 -66l-70 -24q104 -93 104 -237v-317q0 -52 -29 -81t-81 -29zM386 190v200h-90q-78 0 -78 -125q0 -59 16 -92t66 -33h36
q30 0 40 10t10 40z" />
    <glyph glyph-name="ntilde" unicode="&#xf1;" horiz-adv-x="642" 
d="M38 0v420q0 58 28 84t82 26h246q99 0 154.5 -52t55.5 -148v-330h-196v280q0 60 -25 85t-85 25h-24q-22 0 -31 -9t-9 -31v-350h-196zM159 574l-68 66q66 95 153 95q30 0 52 -11l44 -21q42 -20 65 -20q40 0 77 59l68 -62q-34 -48 -70 -76t-85 -28q-40 0 -66 14l-42 21
q-26 14 -51 14q-22 0 -39 -13t-38 -38z" />
    <glyph glyph-name="ograve" unicode="&#xf2;" horiz-adv-x="660" 
d="M330 536q86 0 141 -11.5t94 -41.5t55 -82.5t16 -135.5t-16 -135.5t-55 -82.5t-94 -41.5t-141 -11.5t-141 11.5t-94 41.5t-55 82.5t-16 135.5t16 135.5t55 82.5t94 41.5t141 11.5zM224 265q0 -67 21.5 -99t84.5 -32t84.5 32t21.5 99t-21.5 99t-84.5 32t-84.5 -32
t-21.5 -99zM277 837l192 -159l-87 -108l-192 158z" />
    <glyph glyph-name="oacute" unicode="&#xf3;" horiz-adv-x="660" 
d="M330 536q86 0 141 -11.5t94 -41.5t55 -82.5t16 -135.5t-16 -135.5t-55 -82.5t-94 -41.5t-141 -11.5t-141 11.5t-94 41.5t-55 82.5t-16 135.5t16 135.5t55 82.5t94 41.5t141 11.5zM224 265q0 -67 21.5 -99t84.5 -32t84.5 32t21.5 99t-21.5 99t-84.5 32t-84.5 -32
t-21.5 -99zM382 837l87 -109l-192 -158l-87 108z" />
    <glyph glyph-name="ocircumflex" unicode="&#xf4;" horiz-adv-x="660" 
d="M330 536q86 0 141 -11.5t94 -41.5t55 -82.5t16 -135.5t-16 -135.5t-55 -82.5t-94 -41.5t-141 -11.5t-141 11.5t-94 41.5t-55 82.5t-16 135.5t16 135.5t55 82.5t94 41.5t141 11.5zM224 265q0 -67 21.5 -99t84.5 -32t84.5 32t21.5 99t-21.5 99t-84.5 32t-84.5 -32
t-21.5 -99zM479 570l-119 95q-14 12 -29 12q-13 0 -29 -12l-119 -95l-62 89l159 120q23 17 50 17t50 -17l159 -120z" />
    <glyph glyph-name="otilde" unicode="&#xf5;" horiz-adv-x="660" 
d="M330 536q86 0 141 -11.5t94 -41.5t55 -82.5t16 -135.5t-16 -135.5t-55 -82.5t-94 -41.5t-141 -11.5t-141 11.5t-94 41.5t-55 82.5t-16 135.5t16 135.5t55 82.5t94 41.5t141 11.5zM224 265q0 -67 21.5 -99t84.5 -32t84.5 32t21.5 99t-21.5 99t-84.5 32t-84.5 -32
t-21.5 -99zM168 574l-68 66q66 95 153 95q30 0 52 -11l44 -21q42 -20 65 -20q40 0 77 59l68 -62q-34 -48 -70 -76t-85 -28q-40 0 -66 14l-42 21q-26 14 -51 14q-22 0 -39 -13t-38 -38z" />
    <glyph glyph-name="odieresis" unicode="&#xf6;" horiz-adv-x="660" 
d="M330 536q86 0 141 -11.5t94 -41.5t55 -82.5t16 -135.5t-16 -135.5t-55 -82.5t-94 -41.5t-141 -11.5t-141 11.5t-94 41.5t-55 82.5t-16 135.5t16 135.5t55 82.5t94 41.5t141 11.5zM224 265q0 -67 21.5 -99t84.5 -32t84.5 32t21.5 99t-21.5 99t-84.5 32t-84.5 -32
t-21.5 -99zM374 590v128h173v-128h-173zM286 590h-173v128h173v-128z" />
    <glyph glyph-name="divide" unicode="&#xf7;" horiz-adv-x="708" 
d="M658 259h-608v130h608v-130zM444 495h-180v180h180v-180zM444 -27h-180v180h180v-180z" />
    <glyph glyph-name="oslash" unicode="&#xf8;" horiz-adv-x="652" 
d="M326 536q144 0 214 -40l68 59l44 -51l-62 -53q42 -59 42 -186q0 -83 -16 -135.5t-55 -82.5t-94 -41.5t-141 -11.5q-153 0 -218 40l-64 -56l-44 51l59 52q-39 59 -39 184q0 83 16 135.5t55 82.5t94 41.5t141 11.5zM432 265q0 27 -3 48l-180 -156q25 -23 77 -23
q63 0 84.5 32t21.5 99zM220 265q0 -16 2 -42l176 153q-25 20 -72 20q-63 0 -84.5 -32t-21.5 -99z" />
    <glyph glyph-name="ugrave" unicode="&#xf9;" horiz-adv-x="650" 
d="M612 530v-420q0 -58 -28 -84t-82 -26h-254q-99 0 -154.5 52t-55.5 148v330h196v-282q0 -60 25 -85t85 -25h32q22 0 31 9t9 31v352h196zM242 837l192 -159l-87 -108l-192 158z" />
    <glyph glyph-name="uacute" unicode="&#xfa;" horiz-adv-x="650" 
d="M612 530v-420q0 -58 -28 -84t-82 -26h-254q-99 0 -154.5 52t-55.5 148v330h196v-282q0 -60 25 -85t85 -25h32q22 0 31 9t9 31v352h196zM407 837l87 -109l-192 -158l-87 108z" />
    <glyph glyph-name="ucircumflex" unicode="&#xfb;" horiz-adv-x="650" 
d="M612 530v-420q0 -58 -28 -84t-82 -26h-254q-99 0 -154.5 52t-55.5 148v330h196v-282q0 -60 25 -85t85 -25h32q22 0 31 9t9 31v352h196zM474 570l-119 95q-14 12 -29 12q-12 0 -29 -12l-119 -95l-62 89l159 120q23 17 50 17t50 -17l159 -120z" />
    <glyph glyph-name="udieresis" unicode="&#xfc;" horiz-adv-x="650" 
d="M612 530v-420q0 -58 -28 -84t-82 -26h-254q-99 0 -154.5 52t-55.5 148v330h196v-282q0 -60 25 -85t85 -25h32q22 0 31 9t9 31v352h196zM369 590v128h173v-128h-173zM281 590h-173v128h173v-128z" />
    <glyph glyph-name="yacute" unicode="&#xfd;" horiz-adv-x="641" 
d="M661 530l-316 -701h-196l83 171l-252 530h200l139 -336l146 336h196zM403 837l87 -109l-192 -158l-87 108z" />
    <glyph glyph-name="thorn" unicode="&#xfe;" horiz-adv-x="644" 
d="M50 -170v870h196v-170h148q121 0 170.5 -68t49.5 -197t-49.5 -197t-170.5 -68h-148v-170h-196zM246 390v-250h90q78 0 78 125q0 59 -16 92t-66 33h-86z" />
    <glyph glyph-name="ydieresis" unicode="&#xff;" horiz-adv-x="641" 
d="M661 530l-316 -701h-196l83 171l-252 530h200l139 -336l146 336h196zM364 590v128h173v-128h-173zM276 590h-173v128h173v-128z" />
    <glyph glyph-name="Amacron" unicode="&#x100;" horiz-adv-x="798" 
d="M-20 0l259 623q19 44 52 64.5t108 20.5q61 0 99.5 -16t60.5 -69l259 -623h-238l-55 144h-252l-55 -144h-238zM390 481l-63 -177h144l-63 177q-1 1 -2.5 4t-2 5.5t-2 4t-2.5 1.5zM543 770h-289v110h289v-110z" />
    <glyph glyph-name="amacron" unicode="&#x101;" horiz-adv-x="630" 
d="M60 530h352q82 0 131 -49t49 -131v-240q0 -52 -29 -81t-81 -29h-328q-72 0 -101 41t-29 127q0 80 29.5 122t100.5 42h242v10q0 52 -60 52h-276v136zM396 208h-139q-15 0 -26 -11t-11 -29q0 -15 9.5 -26.5t25.5 -11.5h101q22 0 31 9t9 31v38zM458 596h-289v110h289v-110z
" />
    <glyph glyph-name="Abreve" unicode="&#x102;" horiz-adv-x="798" 
d="M-20 0l259 623q19 44 52 64.5t108 20.5q61 0 99.5 -16t60.5 -69l259 -623h-238l-55 144h-252l-55 -144h-238zM390 481l-63 -177h144l-63 177q-1 1 -2.5 4t-2 5.5t-2 4t-2.5 1.5zM399 843q75 0 97 71h129q-27 -94 -78 -134t-148 -40q-98 0 -152.5 41t-73.5 133h129
q22 -71 97 -71z" />
    <glyph glyph-name="abreve" unicode="&#x103;" horiz-adv-x="630" 
d="M60 530h352q82 0 131 -49t49 -131v-240q0 -52 -29 -81t-81 -29h-328q-72 0 -101 41t-29 127q0 80 29.5 122t100.5 42h242v10q0 52 -60 52h-276v136zM396 208h-139q-15 0 -26 -11t-11 -29q0 -15 9.5 -26.5t25.5 -11.5h101q22 0 31 9t9 31v38zM314 663q75 0 97 71h129
q-27 -94 -78 -134t-148 -40q-98 0 -152.5 41t-73.5 133h129q22 -71 97 -71z" />
    <glyph glyph-name="Aogonek" unicode="&#x104;" horiz-adv-x="780" 
d="M-30 0l259 623q19 44 52 64.5t108 20.5q61 0 99.5 -16t60.5 -69l259 -623l-55 -91q-9 -15 -9 -22q0 -17 27 -17h39v-79h-85q-83 0 -83 69q0 24 11 43l58 97h-141l-55 144h-252l-55 -144h-238zM380 481l-63 -177h144l-63 177q-1 1 -2.5 4t-2 5.5t-2 4t-2.5 1.5z" />
    <glyph glyph-name="aogonek" unicode="&#x105;" horiz-adv-x="616" 
d="M478 -209h-85q-83 0 -83 69q0 24 11 43l58 97h-231q-72 0 -101 41t-29 127q0 80 29.5 122t100.5 42h242q0 62 -60 62h-276v136h352q82 0 131 -49t49 -131v-240q0 -52 -29 -81t-81 -29l-55 -91q-9 -15 -9 -22q0 -17 27 -17h39v-79zM390 208h-139q-15 0 -26 -11t-11 -29
q0 -15 9.5 -26.5t25.5 -11.5h101q22 0 31 9t9 31v38z" />
    <glyph glyph-name="Cacute" unicode="&#x106;" horiz-adv-x="658" 
d="M642 0h-306q-169 0 -237.5 82.5t-68.5 267.5t68.5 267.5t237.5 82.5h296v-174h-180q-115 0 -152.5 -33t-37.5 -143t37.5 -143t152.5 -33h190v-174zM438 1007l87 -109l-192 -158l-87 108z" />
    <glyph glyph-name="cacute" unicode="&#x107;" horiz-adv-x="551" 
d="M539 0h-295q-66 0 -110 18t-67.5 54.5t-33 82t-9.5 109.5q0 132 47 199t173 67h284v-140h-194q-110 0 -110 -126q0 -62 26 -93t84 -31h205v-140zM380 837l87 -109l-192 -158l-87 108z" />
    <glyph glyph-name="Ccircumflex" unicode="&#x108;" horiz-adv-x="658" 
d="M642 0h-306q-169 0 -237.5 82.5t-68.5 267.5t68.5 267.5t237.5 82.5h296v-174h-180q-115 0 -152.5 -33t-37.5 -143t37.5 -143t152.5 -33h190v-174zM495 740l-119 95q-14 12 -29 12q-13 0 -29 -12l-119 -95l-62 89l159 120q20 17 50 17t50 -17l159 -120z" />
    <glyph glyph-name="ccircumflex" unicode="&#x109;" horiz-adv-x="551" 
d="M539 0h-295q-66 0 -110 18t-67.5 54.5t-33 82t-9.5 109.5q0 132 47 199t173 67h284v-140h-194q-110 0 -110 -126q0 -62 26 -93t84 -31h205v-140zM436 570l-119 95q-14 12 -29 12q-12 0 -29 -12l-119 -95l-62 89l159 120q23 17 50 17t50 -17l159 -120z" />
    <glyph glyph-name="Cdotaccent" unicode="&#x10a;" horiz-adv-x="658" 
d="M642 0h-306q-169 0 -237.5 82.5t-68.5 267.5t68.5 267.5t237.5 82.5h296v-174h-180q-115 0 -152.5 -33t-37.5 -143t37.5 -143t152.5 -33h190v-174zM447 766h-183v129h183v-129z" />
    <glyph glyph-name="cdotaccent" unicode="&#x10b;" horiz-adv-x="551" 
d="M539 0h-295q-66 0 -110 18t-67.5 54.5t-33 82t-9.5 109.5q0 132 47 199t173 67h284v-140h-194q-110 0 -110 -126q0 -62 26 -93t84 -31h205v-140zM394 590h-173v128h173v-128z" />
    <glyph glyph-name="Ccaron" unicode="&#x10c;" horiz-adv-x="658" 
d="M642 0h-306q-169 0 -237.5 82.5t-68.5 267.5t68.5 267.5t237.5 82.5h296v-174h-180q-115 0 -152.5 -33t-37.5 -143t37.5 -143t152.5 -33h190v-174zM495 966l60 -89l-159 -120q-20 -17 -50 -17t-50 17l-159 120l62 89l119 -95q16 -12 29 -12q15 0 29 12z" />
    <glyph glyph-name="ccaron" unicode="&#x10d;" horiz-adv-x="551" 
d="M539 0h-295q-66 0 -110 18t-67.5 54.5t-33 82t-9.5 109.5q0 132 47 199t173 67h284v-140h-194q-110 0 -110 -126q0 -62 26 -93t84 -31h205v-140zM436 796l60 -89l-159 -120q-20 -17 -50 -17t-50 17l-159 120l62 89l119 -95q17 -12 29 -12q15 0 29 12z" />
    <glyph glyph-name="Dcaron" unicode="&#x10e;" horiz-adv-x="778" 
d="M452 0h-292q-52 0 -81 29t-29 81v480q0 52 29 81t81 29h292q167 0 231.5 -81.5t64.5 -268.5t-64.5 -268.5t-231.5 -81.5zM276 476v-252q0 -27 11.5 -38.5t38.5 -11.5h10q108 0 144 33t36 143q0 107 -38.5 141.5t-141.5 34.5h-10q-27 0 -38.5 -11.5t-11.5 -38.5zM538 966
l60 -89l-159 -120q-20 -17 -50 -17t-50 17l-159 120l62 89l119 -95q16 -12 29 -12q15 0 29 12z" />
    <glyph glyph-name="dcaron" unicode="&#x10f;" horiz-adv-x="868" 
d="M478 0h-234q-121 0 -170.5 68t-49.5 197t49.5 197t170.5 68h148v170h196v-590q0 -52 -29 -81t-81 -29zM392 190v200h-90q-78 0 -78 -125q0 -59 16 -92t66 -33h36q30 0 40 10t10 40zM768 394l-149 45l86 286l167 -51z" />
    <glyph glyph-name="Dcroat" unicode="&#x110;" horiz-adv-x="816" 
d="M470 0h-292q-52 0 -81 29t-29 81v161h-78v148h78v171q0 52 29 81t81 29h292q167 0 231.5 -81.5t64.5 -268.5t-64.5 -268.5t-231.5 -81.5zM294 476v-57h127v-148h-127v-47q0 -27 11.5 -38.5t38.5 -11.5h10q108 0 144 33t36 143q0 107 -38.5 141.5t-141.5 34.5h-10
q-27 0 -38.5 -11.5t-11.5 -38.5z" />
    <glyph glyph-name="dcroat" unicode="&#x111;" horiz-adv-x="614" 
d="M472 0h-234q-121 0 -170.5 68t-49.5 197t49.5 197t170.5 68h148v44h-143v86h143v40h196v-40h72v-86h-72v-464q0 -52 -29 -81t-81 -29zM386 190v200h-90q-78 0 -78 -125q0 -59 16 -92t66 -33h36q30 0 40 10t10 40z" />
    <glyph glyph-name="Emacron" unicode="&#x112;" horiz-adv-x="700" 
d="M666 700v-170h-346q-44 0 -44 -44v-52h382v-154h-382v-66q0 -44 44 -44h350v-170h-510q-52 0 -81 29t-29 81v480q0 52 29 81t81 29h506zM454 770h-289v110h289v-110z" />
    <glyph glyph-name="emacron" unicode="&#x113;" horiz-adv-x="617" 
d="M574 0h-345q-88 0 -130 22t-58.5 77t-16.5 169q0 63 4 103.5t17 72.5t31 48.5t53 27t75 13.5t105 3q56 0 91 -2t71 -9.5t55.5 -21.5t36.5 -38t23.5 -59.5t6.5 -85.5q0 -118 -84 -118h-289q0 -37 22 -51.5t75 -14.5h257v-136zM220 326h145q32 0 32 33q0 41 -88 41
q-44 0 -66.5 -14.5t-22.5 -59.5zM403 596h-289v110h289v-110z" />
    <glyph glyph-name="Edotaccent" unicode="&#x116;" horiz-adv-x="700" 
d="M666 700v-170h-346q-44 0 -44 -44v-52h382v-154h-382v-66q0 -44 44 -44h350v-170h-510q-52 0 -81 29t-29 81v480q0 52 29 81t81 29h506zM461 766h-183v129h183v-129z" />
    <glyph glyph-name="edotaccent" unicode="&#x117;" horiz-adv-x="617" 
d="M574 0h-345q-88 0 -130 22t-58.5 77t-16.5 169q0 63 4 103.5t17 72.5t31 48.5t53 27t75 13.5t105 3q56 0 91 -2t71 -9.5t55.5 -21.5t36.5 -38t23.5 -59.5t6.5 -85.5q0 -118 -84 -118h-289q0 -37 22 -51.5t75 -14.5h257v-136zM220 326h145q32 0 32 33q0 41 -88 41
q-44 0 -66.5 -14.5t-22.5 -59.5zM395 590h-173v128h173v-128z" />
    <glyph glyph-name="Eogonek" unicode="&#x118;" horiz-adv-x="702" 
d="M672 -209h-85q-83 0 -83 69q0 24 11 43l59 97h-414q-52 0 -81 29t-29 81v480q0 52 29 81t81 29h506v-170h-346q-44 0 -44 -44v-52h382v-154h-382v-66q0 -44 44 -44h352v-170l-57 -91q-9 -15 -9 -22q0 -17 27 -17h39v-79z" />
    <glyph glyph-name="eogonek" unicode="&#x119;" horiz-adv-x="605" 
d="M568 -209h-85q-83 0 -83 69q0 24 11 43l60 97h-248q-88 0 -130 22t-58.5 77t-16.5 169q0 63 4 103.5t17 72.5t31 48.5t53 27t75 13.5t105 3q56 0 91 -2t71 -9.5t55.5 -21.5t36.5 -38t23.5 -59.5t6.5 -85.5q0 -118 -84 -118h-289q0 -37 22 -51.5t75 -14.5h257v-136
l-57 -91q-9 -15 -9 -22q0 -17 27 -17h39v-79zM214 326h145q32 0 32 33q0 41 -88 41q-44 0 -66.5 -14.5t-22.5 -59.5z" />
    <glyph glyph-name="Ecaron" unicode="&#x11a;" horiz-adv-x="700" 
d="M666 700v-170h-346q-44 0 -44 -44v-52h382v-154h-382v-66q0 -44 44 -44h350v-170h-510q-52 0 -81 29t-29 81v480q0 52 29 81t81 29h506zM519 966l60 -89l-159 -120q-20 -17 -50 -17t-50 17l-159 120l62 89l119 -95q16 -12 29 -12q15 0 29 12z" />
    <glyph glyph-name="ecaron" unicode="&#x11b;" horiz-adv-x="617" 
d="M574 0h-345q-88 0 -130 22t-58.5 77t-16.5 169q0 63 4 103.5t17 72.5t31 48.5t53 27t75 13.5t105 3q56 0 91 -2t71 -9.5t55.5 -21.5t36.5 -38t23.5 -59.5t6.5 -85.5q0 -118 -84 -118h-289q0 -37 22 -51.5t75 -14.5h257v-136zM220 326h145q32 0 32 33q0 41 -88 41
q-44 0 -66.5 -14.5t-22.5 -59.5zM467 796l60 -89l-159 -120q-20 -17 -50 -17t-50 17l-159 120l62 89l119 -95q16 -12 29 -12q15 0 29 12z" />
    <glyph glyph-name="Gcircumflex" unicode="&#x11c;" horiz-adv-x="760" 
d="M714 526h-302q-84 0 -117 -36.5t-33 -139.5t33 -139.5t117 -36.5h48q44 0 44 44v152h226v-260q0 -52 -29 -81t-81 -29h-284q-169 0 -237.5 82.5t-68.5 267.5t68.5 267.5t237.5 82.5h378v-174zM539 740l-119 95q-14 12 -29 12q-13 0 -29 -12l-119 -95l-62 89l159 120
q20 17 50 17t50 -17l159 -120z" />
    <glyph glyph-name="gcircumflex" unicode="&#x11d;" horiz-adv-x="626" 
d="M244 530h234q52 0 81 -29t29 -81v-370q0 -120 -55 -175t-175 -55h-297v128h241q38 0 59.5 10t30.5 42h-148q-121 0 -170.5 67.5t-49.5 196.5t49.5 197.5t170.5 68.5zM392 140v200q0 30 -10 40t-40 10h-36q-50 0 -66 -33.5t-16 -92.5q0 -124 78 -124h90zM461 570l-119 95
q-14 12 -29 12q-13 0 -29 -12l-119 -95l-62 89l159 120q23 17 50 17t50 -17l159 -120z" />
    <glyph glyph-name="Gbreve" unicode="&#x11e;" horiz-adv-x="760" 
d="M714 526h-302q-84 0 -117 -36.5t-33 -139.5t33 -139.5t117 -36.5h48q44 0 44 44v152h226v-260q0 -52 -29 -81t-81 -29h-284q-169 0 -237.5 82.5t-68.5 267.5t68.5 267.5t237.5 82.5h378v-174zM400 843q75 0 97 71h129q-27 -94 -78 -134t-148 -40q-98 0 -152.5 41
t-73.5 133h129q22 -71 97 -71z" />
    <glyph glyph-name="gbreve" unicode="&#x11f;" horiz-adv-x="626" 
d="M244 530h234q52 0 81 -29t29 -81v-370q0 -120 -55 -175t-175 -55h-297v128h241q38 0 59.5 10t30.5 42h-148q-121 0 -170.5 67.5t-49.5 196.5t49.5 197.5t170.5 68.5zM392 140v200q0 30 -10 40t-40 10h-36q-50 0 -66 -33.5t-16 -92.5q0 -124 78 -124h90zM312 663
q75 0 97 71h129q-27 -94 -78 -134t-148 -40q-98 0 -152.5 41t-73.5 133h129q22 -71 97 -71z" />
    <glyph glyph-name="Gdotaccent" unicode="&#x120;" horiz-adv-x="760" 
d="M714 526h-302q-84 0 -117 -36.5t-33 -139.5t33 -139.5t117 -36.5h48q44 0 44 44v152h226v-260q0 -52 -29 -81t-81 -29h-284q-169 0 -237.5 82.5t-68.5 267.5t68.5 267.5t237.5 82.5h378v-174zM503 766h-183v129h183v-129z" />
    <glyph glyph-name="gdotaccent" unicode="&#x121;" horiz-adv-x="626" 
d="M244 530h234q52 0 81 -29t29 -81v-370q0 -120 -55 -175t-175 -55h-297v128h241q38 0 59.5 10t30.5 42h-148q-121 0 -170.5 67.5t-49.5 196.5t49.5 197.5t170.5 68.5zM392 140v200q0 30 -10 40t-40 10h-36q-50 0 -66 -33.5t-16 -92.5q0 -124 78 -124h90zM403 590h-173v128
h173v-128z" />
    <glyph glyph-name="Gcommaaccent" unicode="&#x122;" horiz-adv-x="760" 
d="M714 526h-302q-84 0 -117 -36.5t-33 -139.5t33 -139.5t117 -36.5h48q44 0 44 44v152h226v-260q0 -52 -29 -81t-81 -29h-284q-169 0 -237.5 82.5t-68.5 267.5t68.5 267.5t237.5 82.5h378v-174zM442 -371l-149 45l86 286l167 -51z" />
    <glyph glyph-name="gcommaaccent" unicode="&#x123;" horiz-adv-x="626" 
d="M244 530h234q52 0 81 -29t29 -81v-370q0 -120 -55 -175t-175 -55h-297v128h241q38 0 59.5 10t30.5 42h-148q-121 0 -170.5 67.5t-49.5 196.5t49.5 197.5t170.5 68.5zM392 140v200q0 30 -10 40t-40 10h-36q-50 0 -66 -33.5t-16 -92.5q0 -124 78 -124h90zM310 901l149 -45
l-86 -286l-167 51z" />
    <glyph glyph-name="Hcircumflex" unicode="&#x124;" horiz-adv-x="806" 
d="M756 700v-700h-226v278h-254v-278h-226v700h226v-248h254v248h226zM552 740l-119 95q-14 12 -29 12q-12 0 -29 -12l-119 -95l-62 89l159 120q20 17 50 17t50 -17l159 -120z" />
    <glyph glyph-name="hcircumflex" unicode="&#x125;" horiz-adv-x="642" 
d="M38 0v700h196v-170h150q100 0 160 -52.5t60 -147.5v-330h-196v282q0 60 -25 85t-85 25h-64v-392h-196zM290 730l-119 95q-14 12 -29 12q-12 0 -29 -12l-119 -95l-62 89l159 120q23 17 50 17t50 -17l159 -120z" />
    <glyph glyph-name="Hbar" unicode="&#x126;" horiz-adv-x="846" 
d="M-20 518v118h90v64h226v-64h254v64h226v-64h90v-118h-90v-518h-226v278h-254v-278h-226v518h-90zM296 452h254v66h-254v-66z" />
    <glyph glyph-name="hbar" unicode="&#x127;" horiz-adv-x="642" 
d="M38 0v577h-74v88h74v35h196v-35h157v-88h-157v-47h150q100 0 160 -52.5t60 -147.5v-330h-196v282q0 60 -25 85t-85 25h-64v-392h-196z" />
    <glyph glyph-name="Imacron" unicode="&#x12a;" horiz-adv-x="326" 
d="M276 0h-226v700h226v-700zM307 770h-289v110h289v-110z" />
    <glyph glyph-name="imacron" unicode="&#x12b;" horiz-adv-x="256" 
d="M30 0v530h196v-530h-196zM272 596h-289v110h289v-110z" />
    <glyph glyph-name="Iogonek" unicode="&#x12e;" horiz-adv-x="328" 
d="M276 700v-700l-55 -91q-9 -15 -9 -22q0 -17 27 -17h39v-79h-85q-83 0 -83 69q0 24 11 43l58 97h-129v700h226z" />
    <glyph glyph-name="iogonek" unicode="&#x12f;" horiz-adv-x="258" 
d="M226 530v-530l-55 -91q-9 -15 -9 -22q0 -17 27 -17h39v-79h-85q-83 0 -83 69q0 24 11 43l58 97h-99v530h196zM226 583h-196v117h196v-117z" />
    <glyph glyph-name="Idotaccent" unicode="&#x130;" horiz-adv-x="326" 
d="M276 0h-226v700h226v-700zM254 766h-183v129h183v-129z" />
    <glyph glyph-name="dotlessi" unicode="&#x131;" horiz-adv-x="256" 
d="M30 0v530h196v-530h-196z" />
    <glyph glyph-name="Jcircumflex" unicode="&#x134;" horiz-adv-x="532" 
d="M0 0v174h96q90 0 125 35t35 125v366h226v-450q0 -112 -69 -181t-181 -69h-232zM511 740l-119 95q-14 12 -29 12q-13 0 -29 -12l-119 -95l-62 89l159 120q20 17 50 17t50 -17l159 -120z" />
    <glyph glyph-name="jcircumflex" unicode="&#x135;" horiz-adv-x="344" 
d="M-40 -170v126q78 0 114 29t36 101v444h196v-490q0 -42 -8.5 -74.5t-21 -54.5t-38 -37.5t-49.5 -24t-65 -13t-75 -5.5t-89 -1zM351 570l-119 95q-14 12 -29 12q-12 0 -29 -12l-119 -95l-62 89l159 120q23 17 50 17t50 -17l159 -120z" />
    <glyph glyph-name="Kcommaaccent" unicode="&#x136;" horiz-adv-x="803" 
d="M823 0h-272l-212 271q-31 38 -31 88q0 48 22 77l188 264h268l-243 -289q-21 -23 -21 -50q0 -22 29 -55zM50 0v700h226v-700h-226zM409 -371l-149 45l86 286l167 -51z" />
    <glyph glyph-name="kcommaaccent" unicode="&#x137;" horiz-adv-x="643" 
d="M657 0h-220l-144 190q-31 42 -31 85q0 39 32 83l121 172h212l-161 -211q-14 -17 -14 -38q0 -23 20 -48zM234 0h-196v700h196v-700zM343 -371l-149 45l86 286l167 -51z" />
    <glyph glyph-name="Lacute" unicode="&#x139;" horiz-adv-x="666" 
d="M666 0h-506q-52 0 -81 29t-29 81v590h226v-482q0 -44 44 -44h346v-174zM385 1007l87 -109l-192 -158l-87 108z" />
    <glyph glyph-name="lacute" unicode="&#x13a;" horiz-adv-x="272" 
d="M38 0v700h196v-700h-196zM188 997l87 -109l-192 -158l-87 108z" />
    <glyph glyph-name="Lcommaaccent" unicode="&#x13b;" horiz-adv-x="666" 
d="M666 0h-506q-52 0 -81 29t-29 81v590h226v-482q0 -44 44 -44h346v-174zM395 -371l-149 45l86 286l167 -51z" />
    <glyph glyph-name="lcommaaccent" unicode="&#x13c;" horiz-adv-x="272" 
d="M38 0v700h196v-700h-196zM153 -371l-149 45l86 286l167 -51z" />
    <glyph glyph-name="Lcaron" unicode="&#x13d;" horiz-adv-x="666" 
d="M666 0h-506q-52 0 -81 29t-29 81v590h226v-482q0 -44 44 -44h346v-174zM565 396l-149 45l86 286l167 -51z" />
    <glyph glyph-name="lcaron" unicode="&#x13e;" horiz-adv-x="514" 
d="M38 0v700h196v-700h-196zM414 394l-149 45l86 286l167 -51z" />
    <glyph glyph-name="Ldot" unicode="&#x13f;" horiz-adv-x="666" 
d="M666 0h-506q-52 0 -81 29t-29 81v590h226v-482q0 -44 44 -44h346v-174zM583 356h-183v129h183v-129z" />
    <glyph glyph-name="ldot" unicode="&#x140;" horiz-adv-x="445" 
d="M38 0v700h196v-700h-196zM445 290h-173v128h173v-128z" />
    <glyph glyph-name="Lslash" unicode="&#x141;" horiz-adv-x="722" 
d="M722 0h-506q-52 0 -81 29t-29 81v76l-66 -48l-50 67l116 87v408h226v-246l177 134l50 -67l-227 -172v-131q0 -44 44 -44h346v-174z" />
    <glyph glyph-name="lslash" unicode="&#x142;" horiz-adv-x="409" 
d="M107 0v201l-64 -49l-53 67l117 92v389h196v-236l73 57l53 -68l-126 -99v-354h-196z" />
    <glyph glyph-name="Nacute" unicode="&#x143;" horiz-adv-x="864" 
d="M814 700v-583q0 -12 -1.5 -23t-10 -31t-23.5 -34.5t-45 -25.5t-72 -11q-49 0 -86 13.5t-66 55.5l-253 357q-12 17 -19 17q-14 0 -14 -20v-415h-174v584q0 64 44.5 94t112.5 30q102 0 148 -65l255 -360q12 -17 19 -17q11 0 11 17v417h174zM504 1007l87 -109l-192 -158
l-87 108z" />
    <glyph glyph-name="nacute" unicode="&#x144;" horiz-adv-x="642" 
d="M38 0v420q0 58 28 84t82 26h246q99 0 154.5 -52t55.5 -148v-330h-196v280q0 60 -25 85t-85 25h-24q-22 0 -31 -9t-9 -31v-350h-196zM393 837l87 -109l-192 -158l-87 108z" />
    <glyph glyph-name="Ncommaaccent" unicode="&#x145;" horiz-adv-x="864" 
d="M814 700v-583q0 -12 -1.5 -23t-10 -31t-23.5 -34.5t-45 -25.5t-72 -11q-49 0 -86 13.5t-66 55.5l-253 357q-12 17 -19 17q-14 0 -14 -20v-415h-174v584q0 64 44.5 94t112.5 30q102 0 148 -65l255 -360q12 -17 19 -17q11 0 11 17v417h174zM464 -371l-149 45l86 286
l167 -51z" />
    <glyph glyph-name="ncommaaccent" unicode="&#x146;" horiz-adv-x="642" 
d="M38 0v420q0 58 28 84t82 26h246q99 0 154.5 -52t55.5 -148v-330h-196v280q0 60 -25 85t-85 25h-24q-22 0 -31 -9t-9 -31v-350h-196zM348 -371l-149 45l86 286l167 -51z" />
    <glyph glyph-name="Ncaron" unicode="&#x147;" horiz-adv-x="864" 
d="M814 700v-583q0 -12 -1.5 -23t-10 -31t-23.5 -34.5t-45 -25.5t-72 -11q-49 0 -86 13.5t-66 55.5l-253 357q-12 17 -19 17q-14 0 -14 -20v-415h-174v584q0 64 44.5 94t112.5 30q102 0 148 -65l255 -360q12 -17 19 -17q11 0 11 17v417h174zM581 966l60 -89l-159 -120
q-20 -17 -50 -17t-50 17l-159 120l62 89l119 -95q16 -12 29 -12q15 0 29 12z" />
    <glyph glyph-name="ncaron" unicode="&#x148;" horiz-adv-x="642" 
d="M38 0v420q0 58 28 84t82 26h246q99 0 154.5 -52t55.5 -148v-330h-196v280q0 60 -25 85t-85 25h-24q-22 0 -31 -9t-9 -31v-350h-196zM470 796l60 -89l-159 -120q-20 -17 -50 -17t-50 17l-159 120l62 89l119 -95q17 -12 29 -12q15 0 29 12z" />
    <glyph glyph-name="Omacron" unicode="&#x14c;" horiz-adv-x="830" 
d="M415 708q115 0 183.5 -13.5t116.5 -53t66.5 -108.5t18.5 -183t-18.5 -183t-66.5 -108.5t-116.5 -53t-183.5 -13.5t-183.5 13.5t-116.5 53t-66.5 108.5t-18.5 183t18.5 183t66.5 108.5t116.5 53t183.5 13.5zM262 350q0 -100 32.5 -142t120.5 -42t120.5 42t32.5 142
t-32.5 142t-120.5 42t-120.5 -42t-32.5 -142zM559 770h-289v110h289v-110z" />
    <glyph glyph-name="omacron" unicode="&#x14d;" horiz-adv-x="660" 
d="M330 536q86 0 141 -11.5t94 -41.5t55 -82.5t16 -135.5t-16 -135.5t-55 -82.5t-94 -41.5t-141 -11.5t-141 11.5t-94 41.5t-55 82.5t-16 135.5t16 135.5t55 82.5t94 41.5t141 11.5zM224 265q0 -67 21.5 -99t84.5 -32t84.5 32t21.5 99t-21.5 99t-84.5 32t-84.5 -32
t-21.5 -99zM474 596h-289v110h289v-110z" />
    <glyph glyph-name="Obreve" unicode="&#x14e;" horiz-adv-x="830" 
d="M415 708q115 0 183.5 -13.5t116.5 -53t66.5 -108.5t18.5 -183t-18.5 -183t-66.5 -108.5t-116.5 -53t-183.5 -13.5t-183.5 13.5t-116.5 53t-66.5 108.5t-18.5 183t18.5 183t66.5 108.5t116.5 53t183.5 13.5zM262 350q0 -100 32.5 -142t120.5 -42t120.5 42t32.5 142
t-32.5 142t-120.5 42t-120.5 -42t-32.5 -142zM415 843q75 0 97 71h129q-27 -94 -78 -134t-148 -40q-98 0 -152.5 41t-73.5 133h129q22 -71 97 -71z" />
    <glyph glyph-name="obreve" unicode="&#x14f;" horiz-adv-x="660" 
d="M330 536q86 0 141 -11.5t94 -41.5t55 -82.5t16 -135.5t-16 -135.5t-55 -82.5t-94 -41.5t-141 -11.5t-141 11.5t-94 41.5t-55 82.5t-16 135.5t16 135.5t55 82.5t94 41.5t141 11.5zM224 265q0 -67 21.5 -99t84.5 -32t84.5 32t21.5 99t-21.5 99t-84.5 32t-84.5 -32
t-21.5 -99zM330 663q75 0 97 71h129q-27 -94 -78 -134t-148 -40q-98 0 -152.5 41t-73.5 133h129q22 -71 97 -71z" />
    <glyph glyph-name="Ohungarumlaut" unicode="&#x150;" horiz-adv-x="830" 
d="M415 708q115 0 183.5 -13.5t116.5 -53t66.5 -108.5t18.5 -183t-18.5 -183t-66.5 -108.5t-116.5 -53t-183.5 -13.5t-183.5 13.5t-116.5 53t-66.5 108.5t-18.5 183t18.5 183t66.5 108.5t116.5 53t183.5 13.5zM262 350q0 -100 32.5 -142t120.5 -42t120.5 42t32.5 142
t-32.5 142t-120.5 42t-120.5 -42t-32.5 -142zM332 1057l97 -85l-162 -189l-96 84zM591 1057l97 -85l-162 -189l-96 84z" />
    <glyph glyph-name="ohungarumlaut" unicode="&#x151;" horiz-adv-x="660" 
d="M330 536q86 0 141 -11.5t94 -41.5t55 -82.5t16 -135.5t-16 -135.5t-55 -82.5t-94 -41.5t-141 -11.5t-141 11.5t-94 41.5t-55 82.5t-16 135.5t16 135.5t55 82.5t94 41.5t141 11.5zM224 265q0 -67 21.5 -99t84.5 -32t84.5 32t21.5 99t-21.5 99t-84.5 32t-84.5 -32
t-21.5 -99zM247 891l97 -85l-162 -189l-96 84zM506 891l97 -85l-162 -189l-96 84z" />
    <glyph glyph-name="OE" unicode="&#x152;" horiz-adv-x="1221" 
d="M1187 700v-170h-346q-44 0 -44 -44v-52h382v-154h-382v-66q0 -44 44 -44h350v-170h-480q-36 0 -62 24q-73 -32 -234 -32q-115 0 -183.5 13.5t-116.5 53t-66.5 108.5t-18.5 183t18.5 183t66.5 108.5t116.5 53t183.5 13.5q161 0 234 -33q27 25 62 25h476zM262 350
q0 -100 32.5 -142t120.5 -42t120.5 42t32.5 142t-32.5 142t-120.5 42t-120.5 -42t-32.5 -142z" />
    <glyph glyph-name="oe" unicode="&#x153;" horiz-adv-x="1018" 
d="M981 0h-345q-81 0 -119 31q-58 -37 -193 -37q-86 0 -141 11.5t-94 41.5t-55 82.5t-16 135.5t16 135.5t55 82.5t94 41.5t141 11.5q136 0 195 -39q49 39 197 39q56 0 91 -2t71 -9.5t55.5 -21.5t36.5 -38t23.5 -59.5t6.5 -85.5q0 -118 -84 -118h-289q0 -37 22 -51.5
t75 -14.5h257v-136zM218 265q0 -67 21.5 -99t84.5 -32t84.5 32t21.5 99t-21.5 99t-84.5 32t-84.5 -32t-21.5 -99zM627 332h145q15 0 22.5 6t8.5 11t1 13q0 38 -88 38q-23 0 -35.5 -1.5t-27 -7.5t-20.5 -20.5t-6 -38.5z" />
    <glyph glyph-name="Racute" unicode="&#x154;" horiz-adv-x="789" 
d="M50 0v590q0 52 29 81t81 29h395q114 0 157 -58.5t43 -179.5q0 -249 -156 -249h-30v-4l200 -209h-272l-135 182q-3 5 -13 17.5t-14 18.5t-10 16.5t-8.5 21t-2.5 21.5v15q0 79 101 79h34q45 0 62.5 17t17.5 62q0 44 -17 60t-63 16h-129q-44 0 -44 -44v-482h-226zM477 1007
l87 -109l-192 -158l-87 108z" />
    <glyph glyph-name="racute" unicode="&#x155;" horiz-adv-x="431" 
d="M38 0v310q0 123 63 171.5t197 48.5h129v-138h-73q-65 0 -92.5 -35t-27.5 -105v-252h-196zM280 837l87 -109l-192 -158l-87 108z" />
    <glyph glyph-name="Rcommaaccent" unicode="&#x156;" horiz-adv-x="789" 
d="M50 0v590q0 52 29 81t81 29h395q114 0 157 -58.5t43 -179.5q0 -249 -156 -249h-30v-4l200 -209h-272l-135 182q-3 5 -13 17.5t-14 18.5t-10 16.5t-8.5 21t-2.5 21.5v15q0 79 101 79h34q45 0 62.5 17t17.5 62q0 44 -17 60t-63 16h-129q-44 0 -44 -44v-482h-226zM417 -371
l-149 45l86 286l167 -51z" />
    <glyph glyph-name="rcommaaccent" unicode="&#x157;" horiz-adv-x="431" 
d="M38 0v310q0 123 63 171.5t197 48.5h129v-138h-73q-65 0 -92.5 -35t-27.5 -105v-252h-196zM255 -371l-149 45l86 286l167 -51z" />
    <glyph glyph-name="Rcaron" unicode="&#x158;" horiz-adv-x="789" 
d="M50 0v590q0 52 29 81t81 29h395q114 0 157 -58.5t43 -179.5q0 -249 -156 -249h-30v-4l200 -209h-272l-135 182q-3 5 -13 17.5t-14 18.5t-10 16.5t-8.5 21t-2.5 21.5v15q0 79 101 79h34q45 0 62.5 17t17.5 62q0 44 -17 60t-63 16h-129q-44 0 -44 -44v-482h-226zM543 966
l60 -89l-159 -120q-20 -17 -50 -17t-50 17l-159 120l62 89l119 -95q17 -12 29 -12q15 0 29 12z" />
    <glyph glyph-name="rcaron" unicode="&#x159;" horiz-adv-x="431" 
d="M38 0v310q0 123 63 171.5t197 48.5h129v-138h-73q-65 0 -92.5 -35t-27.5 -105v-252h-196zM370 796l60 -89l-159 -120q-20 -17 -50 -17t-50 17l-159 120l62 89l119 -95q17 -12 29 -12q15 0 29 12z" />
    <glyph glyph-name="Sacute" unicode="&#x15a;" horiz-adv-x="702" 
d="M27 0v174h388q39 0 39 22q0 14 -11 21t-34 14l-271 76q-118 32 -118 209q0 184 164 184h462v-174h-356q-48 0 -48 -22q0 -16 15 -24t44 -15l236 -63q79 -21 112 -69.5t33 -139.5q0 -96 -38.5 -144.5t-131.5 -48.5h-485zM433 1007l87 -109l-192 -158l-87 108z" />
    <glyph glyph-name="sacute" unicode="&#x15b;" horiz-adv-x="552" 
d="M24 0v142h289q17 0 17 14q0 7 -13 13.5t-33.5 12.5t-22.5 7l-114 37q-67 22 -98 55.5t-31 103.5q0 145 140 145h362v-136h-288q-32 0 -32 -10q0 -4 2.5 -7.5t8.5 -6.5t11 -4.5t14.5 -4t14.5 -4.5l134 -45q77 -26 113 -61t36 -111q0 -73 -35.5 -106.5t-104.5 -33.5h-370z
M358 837l87 -109l-192 -158l-87 108z" />
    <glyph glyph-name="Scircumflex" unicode="&#x15c;" horiz-adv-x="702" 
d="M27 0v174h388q39 0 39 22q0 14 -11 21t-34 14l-271 76q-118 32 -118 209q0 184 164 184h462v-174h-356q-48 0 -48 -22q0 -16 15 -24t44 -15l236 -63q79 -21 112 -69.5t33 -139.5q0 -96 -38.5 -144.5t-131.5 -48.5h-485zM500 740l-119 95q-14 12 -29 12q-12 0 -29 -12
l-119 -95l-62 89l159 120q20 17 50 17t50 -17l159 -120z" />
    <glyph glyph-name="scircumflex" unicode="&#x15d;" horiz-adv-x="552" 
d="M24 0v142h289q17 0 17 14q0 7 -13 13.5t-33.5 12.5t-22.5 7l-114 37q-67 22 -98 55.5t-31 103.5q0 145 140 145h362v-136h-288q-32 0 -32 -10q0 -4 2.5 -7.5t8.5 -6.5t11 -4.5t14.5 -4t14.5 -4.5l134 -45q77 -26 113 -61t36 -111q0 -73 -35.5 -106.5t-104.5 -33.5h-370z
M425 570l-119 95q-14 12 -29 12q-13 0 -29 -12l-119 -95l-62 89l159 120q23 17 50 17t50 -17l159 -120z" />
    <glyph glyph-name="Scedilla" unicode="&#x15e;" horiz-adv-x="702" 
d="M27 0v174h388q39 0 39 22q0 14 -11 21t-34 14l-271 76q-118 32 -118 209q0 184 164 184h462v-174h-356q-48 0 -48 -22q0 -16 15 -24t44 -15l236 -63q79 -21 112 -69.5t33 -139.5q0 -96 -38.5 -144.5t-131.5 -48.5h-112l-11 -23q-3 -6 -3 -7q0 -5 8 -5h9q38 0 56.5 -19
t18.5 -63q0 -83 -100 -83h-84v70h69q21 0 21 14q0 15 -24 15h-30q-35 0 -35 29q0 8 5 21l24 51h-297z" />
    <glyph glyph-name="scedilla" unicode="&#x15f;" horiz-adv-x="552" 
d="M24 0v142h289q17 0 17 14q0 7 -13 13.5t-33.5 12.5t-22.5 7l-114 37q-67 22 -98 55.5t-31 103.5q0 145 140 145h362v-136h-288q-32 0 -32 -10q0 -4 2.5 -7.5t8.5 -6.5t11 -4.5t14.5 -4t14.5 -4.5l134 -45q77 -26 113 -61t36 -111q0 -73 -35.5 -106.5t-104.5 -33.5h-68
l-11 -23q-3 -6 -3 -7q0 -5 8 -5h9q38 0 56.5 -19t18.5 -63q0 -83 -100 -83h-84v70h69q21 0 21 14q0 15 -24 15h-30q-35 0 -35 29q0 8 5 21l24 51h-226z" />
    <glyph glyph-name="Scaron" unicode="&#x160;" horiz-adv-x="702" 
d="M27 0v174h388q39 0 39 22q0 14 -11 21t-34 14l-271 76q-118 32 -118 209q0 184 164 184h462v-174h-356q-48 0 -48 -22q0 -16 15 -24t44 -15l236 -63q79 -21 112 -69.5t33 -139.5q0 -96 -38.5 -144.5t-131.5 -48.5h-485zM500 966l60 -89l-159 -120q-20 -17 -50 -17t-50 17
l-159 120l62 89l119 -95q17 -12 29 -12q15 0 29 12z" />
    <glyph glyph-name="scaron" unicode="&#x161;" horiz-adv-x="552" 
d="M24 0v142h289q17 0 17 14q0 7 -13 13.5t-33.5 12.5t-22.5 7l-114 37q-67 22 -98 55.5t-31 103.5q0 145 140 145h362v-136h-288q-32 0 -32 -10q0 -4 2.5 -7.5t8.5 -6.5t11 -4.5t14.5 -4t14.5 -4.5l134 -45q77 -26 113 -61t36 -111q0 -73 -35.5 -106.5t-104.5 -33.5h-370z
M425 796l60 -89l-159 -120q-20 -17 -50 -17t-50 17l-159 120l62 89l119 -95q16 -12 29 -12q15 0 29 12z" />
    <glyph glyph-name="Tcommaaccent" unicode="&#x162;" horiz-adv-x="726" 
d="M476 0h-226v526h-250v174h726v-174h-250v-526zM385 -371l-149 45l86 286l167 -51z" />
    <glyph glyph-name="tcommaaccent" unicode="&#x163;" horiz-adv-x="430" 
d="M426 0h-147q-89 0 -144.5 44t-55.5 136v210h-75v140h75v170h196v-170h151v-140h-151v-120q0 -64 27.5 -97t92.5 -33h31v-140zM232 -371l-149 45l86 286l167 -51z" />
    <glyph glyph-name="Tcaron" unicode="&#x164;" horiz-adv-x="726" 
d="M476 0h-226v526h-250v174h726v-174h-250v-526zM512 966l60 -89l-159 -120q-20 -17 -50 -17t-50 17l-159 120l62 89l119 -95q17 -12 29 -12q15 0 29 12z" />
    <glyph glyph-name="tcaron" unicode="&#x165;" horiz-adv-x="430" 
d="M426 0h-147q-89 0 -144.5 44t-55.5 136v210h-75v140h75v170h196v-170h151v-140h-151v-120q0 -64 27.5 -97t92.5 -33h31v-140zM462 572l-149 45l86 286l167 -51z" />
    <glyph glyph-name="Umacron" unicode="&#x16a;" horiz-adv-x="794" 
d="M397 174q62 0 91.5 29t29.5 95v402h226v-420q0 -158 -86.5 -223t-260.5 -65t-260.5 65t-86.5 223v420h226v-402q0 -66 29.5 -95t91.5 -29zM541 770h-289v110h289v-110z" />
    <glyph glyph-name="umacron" unicode="&#x16b;" horiz-adv-x="650" 
d="M612 530v-420q0 -58 -28 -84t-82 -26h-254q-99 0 -154.5 52t-55.5 148v330h196v-282q0 -60 25 -85t85 -25h32q22 0 31 9t9 31v352h196zM471 596h-289v110h289v-110z" />
    <glyph glyph-name="Ubreve" unicode="&#x16c;" horiz-adv-x="794" 
d="M397 174q62 0 91.5 29t29.5 95v402h226v-420q0 -158 -86.5 -223t-260.5 -65t-260.5 65t-86.5 223v420h226v-402q0 -66 29.5 -95t91.5 -29zM397 843q75 0 97 71h129q-27 -94 -78 -134t-148 -40q-98 0 -152.5 41t-73.5 133h129q22 -71 97 -71z" />
    <glyph glyph-name="ubreve" unicode="&#x16d;" horiz-adv-x="650" 
d="M612 530v-420q0 -58 -28 -84t-82 -26h-254q-99 0 -154.5 52t-55.5 148v330h196v-282q0 -60 25 -85t85 -25h32q22 0 31 9t9 31v352h196zM325 663q75 0 97 71h129q-27 -94 -78 -134t-148 -40q-98 0 -152.5 41t-73.5 133h129q22 -71 97 -71z" />
    <glyph glyph-name="Uring" unicode="&#x16e;" horiz-adv-x="794" 
d="M397 174q62 0 91.5 29t29.5 95v402h226v-420q0 -158 -86.5 -223t-260.5 -65t-260.5 65t-86.5 223v420h226v-402q0 -66 29.5 -95t91.5 -29zM397 978q66 0 92.5 -28.5t26.5 -90.5t-26.5 -90t-92.5 -28t-93 28t-27 90t27 90.5t93 28.5zM349 859q0 -25 10 -38.5t38 -13.5
t37.5 13t9.5 39t-9.5 39.5t-37.5 13.5t-38 -13.5t-10 -39.5z" />
    <glyph glyph-name="uring" unicode="&#x16f;" horiz-adv-x="650" 
d="M612 530v-420q0 -58 -28 -84t-82 -26h-254q-99 0 -154.5 52t-55.5 148v330h196v-282q0 -60 25 -85t85 -25h32q22 0 31 9t9 31v352h196zM325 807q66 0 92.5 -28.5t26.5 -90.5t-26.5 -90t-92.5 -28t-93 28t-27 90t27 90.5t93 28.5zM277 688q0 -25 10 -38.5t38 -13.5
t37.5 13t9.5 39t-9.5 39.5t-37.5 13.5t-38 -13.5t-10 -39.5z" />
    <glyph glyph-name="Uhungarumlaut" unicode="&#x170;" horiz-adv-x="794" 
d="M397 174q62 0 91.5 29t29.5 95v402h226v-420q0 -158 -86.5 -223t-260.5 -65t-260.5 65t-86.5 223v420h226v-402q0 -66 29.5 -95t91.5 -29zM314 1057l97 -85l-162 -189l-96 84zM573 1057l97 -85l-162 -189l-96 84z" />
    <glyph glyph-name="uhungarumlaut" unicode="&#x171;" horiz-adv-x="650" 
d="M612 530v-420q0 -58 -28 -84t-82 -26h-254q-99 0 -154.5 52t-55.5 148v330h196v-282q0 -60 25 -85t85 -25h32q22 0 31 9t9 31v352h196zM242 851l97 -85l-162 -189l-96 84zM501 851l97 -85l-162 -189l-96 84z" />
    <glyph glyph-name="Uogonek" unicode="&#x172;" horiz-adv-x="794" 
d="M516 -209h-85q-83 0 -83 69q0 24 11 43l53 89h-15q-174 0 -260.5 65t-86.5 223v420h226v-402q0 -66 29.5 -95t91.5 -29t91.5 29t29.5 95v402h226v-420q0 -129 -58 -195.5t-172 -84.5l-55 -91q-9 -15 -9 -22q0 -17 27 -17h39v-79z" />
    <glyph glyph-name="uogonek" unicode="&#x173;" horiz-adv-x="634" 
d="M498 -209h-85q-83 0 -83 69q0 24 11 43l58 97h-159q-99 0 -154.5 52t-55.5 148v330h196v-282q0 -60 25 -85t85 -25h32q22 0 31 9t9 31v352h196v-420q0 -110 -108 -110l-55 -91q-9 -15 -9 -22q0 -17 27 -17h39v-79z" />
    <glyph glyph-name="Ydieresis" unicode="&#x178;" horiz-adv-x="792" 
d="M396 398l174 302h242l-303 -506v-194h-226v194l-303 506h242zM621 766h-182v129h182v-129zM354 766h-183v129h183v-129z" />
    <glyph glyph-name="Zacute" unicode="&#x179;" horiz-adv-x="679" 
d="M668 0h-538q-23 0 -38 2t-38.5 9.5t-36.5 28t-13 52.5q0 77 68 143l278 265q11 9 11 18q0 8 -18 8h-308v174h543q97 0 97 -93q0 -32 -9.5 -57t-20 -38t-29.5 -31l-297 -283q-10 -10 -10 -14q0 -10 12 -10h347v-174zM412 1007l87 -109l-192 -158l-87 108z" />
    <glyph glyph-name="zacute" unicode="&#x17a;" horiz-adv-x="556" 
d="M97 0q-38 0 -62.5 28t-24.5 74q0 65 49 103l229 175q8 6 8 9q0 5 -10 5h-257v136h419q45 0 71.5 -25.5t26.5 -71.5q0 -68 -48 -106l-222 -170q-8 -6 -8 -11q0 -4 9 -4h260v-142h-440zM350 837l87 -109l-192 -158l-87 108z" />
    <glyph glyph-name="Zdotaccent" unicode="&#x17b;" horiz-adv-x="679" 
d="M668 0h-538q-23 0 -38 2t-38.5 9.5t-36.5 28t-13 52.5q0 77 68 143l278 265q11 9 11 18q0 8 -18 8h-308v174h543q97 0 97 -93q0 -32 -9.5 -57t-20 -38t-29.5 -31l-297 -283q-10 -10 -10 -14q0 -10 12 -10h347v-174zM431 766h-183v129h183v-129z" />
    <glyph glyph-name="zdotaccent" unicode="&#x17c;" horiz-adv-x="556" 
d="M97 0q-38 0 -62.5 28t-24.5 74q0 65 49 103l229 175q8 6 8 9q0 5 -10 5h-257v136h419q45 0 71.5 -25.5t26.5 -71.5q0 -68 -48 -106l-222 -170q-8 -6 -8 -11q0 -4 9 -4h260v-142h-440zM364 590h-173v128h173v-128z" />
    <glyph glyph-name="Zcaron" unicode="&#x17d;" horiz-adv-x="679" 
d="M668 0h-538q-23 0 -38 2t-38.5 9.5t-36.5 28t-13 52.5q0 77 68 143l278 265q11 9 11 18q0 8 -18 8h-308v174h543q97 0 97 -93q0 -32 -9.5 -57t-20 -38t-29.5 -31l-297 -283q-10 -10 -10 -14q0 -10 12 -10h347v-174zM488 966l60 -89l-159 -120q-20 -17 -50 -17t-50 17
l-159 120l62 89l119 -95q17 -12 29 -12q15 0 29 12z" />
    <glyph glyph-name="zcaron" unicode="&#x17e;" horiz-adv-x="556" 
d="M97 0q-38 0 -62.5 28t-24.5 74q0 65 49 103l229 175q8 6 8 9q0 5 -10 5h-257v136h419q45 0 71.5 -25.5t26.5 -71.5q0 -68 -48 -106l-222 -170q-8 -6 -8 -11q0 -4 9 -4h260v-142h-440zM427 796l60 -89l-159 -120q-20 -17 -50 -17t-50 17l-159 120l62 89l119 -95
q16 -12 29 -12q15 0 29 12z" />
    <glyph glyph-name="uni018F" unicode="&#x18f;" horiz-adv-x="758" 
d="M422 0h-86q-166 0 -236 45.5t-70 174.5q0 67 17.5 109.5t57.5 66t93.5 32t137.5 8.5h153q-5 53 -48 71.5t-135 18.5h-240v174h356q169 0 237.5 -82.5t68.5 -267.5t-68.5 -267.5t-237.5 -82.5zM262 226q0 -52 82 -52h40q55 0 80 22t28 82h-148q-46 0 -64 -11t-18 -41z" />
    <glyph glyph-name="florin" unicode="&#x192;" horiz-adv-x="421" 
d="M219 -170h-196l99 560h-79l24 140h79q7 33 20 59t33.5 44t39.5 31.5t50 21.5t53 12.5t60 6.5t59 2.5t61 0.5l-22 -122q-46 0 -66 -1t-43.5 -6t-33.5 -16.5t-15 -32.5h148l-24 -140h-148z" />
    <glyph glyph-name="uni01CF" unicode="&#x1cf;" horiz-adv-x="326" 
d="M276 0h-226v700h226v-700zM312 966l60 -89l-159 -120q-20 -17 -50 -17t-50 17l-159 120l62 89l119 -95q17 -12 29 -12q15 0 29 12z" />
    <glyph glyph-name="uni01D0" unicode="&#x1d0;" horiz-adv-x="256" 
d="M30 0v530h196v-530h-196zM277 796l60 -89l-159 -120q-20 -17 -50 -17t-50 17l-159 120l62 89l119 -95q17 -12 29 -12q15 0 29 12z" />
    <glyph glyph-name="uni01DD" unicode="&#x1dd;" horiz-adv-x="617" 
d="M43 530h345q88 0 130 -22t58.5 -77t16.5 -169q0 -63 -4 -103.5t-17 -72.5t-31 -48.5t-53 -27t-75 -13.5t-105 -3q-56 0 -91 2t-71 9.5t-55.5 21.5t-36.5 38t-23.5 59.5t-6.5 85.5q0 118 84 118h289q0 37 -22 51.5t-75 14.5h-257v136zM397 204h-145q-32 0 -32 -33
q0 -41 88 -41q44 0 66.5 14.5t22.5 59.5z" />
    <glyph glyph-name="Gcaron" unicode="&#x1e6;" horiz-adv-x="760" 
d="M714 526h-302q-84 0 -117 -36.5t-33 -139.5t33 -139.5t117 -36.5h48q44 0 44 44v152h226v-260q0 -52 -29 -81t-81 -29h-284q-169 0 -237.5 82.5t-68.5 267.5t68.5 267.5t237.5 82.5h378v-174zM539 966l60 -89l-159 -120q-20 -17 -50 -17t-50 17l-159 120l62 89l119 -95
q16 -12 29 -12q15 0 29 12z" />
    <glyph glyph-name="gcaron" unicode="&#x1e7;" horiz-adv-x="626" 
d="M244 530h234q52 0 81 -29t29 -81v-370q0 -120 -55 -175t-175 -55h-297v128h241q38 0 59.5 10t30.5 42h-148q-121 0 -170.5 67.5t-49.5 196.5t49.5 197.5t170.5 68.5zM392 140v200q0 30 -10 40t-40 10h-36q-50 0 -66 -33.5t-16 -92.5q0 -124 78 -124h90zM461 796l60 -89
l-159 -120q-20 -17 -50 -17t-50 17l-159 120l62 89l119 -95q16 -12 29 -12q15 0 29 12z" />
    <glyph glyph-name="AEacute" unicode="&#x1fc;" horiz-adv-x="1174" 
d="M1139 700v-170h-346q-44 0 -44 -44v-52h382v-154h-382v-66q0 -44 44 -44h351v-170h-511q-53 0 -81.5 29t-28.5 81v31h-217l-80 -141h-256l393 632q26 42 62.5 55t94.5 13h619zM511 502l-113 -199h125v198q0 14 -3 14t-9 -13zM739 1007l87 -109l-192 -158l-87 108z" />
    <glyph glyph-name="aeacute" unicode="&#x1fd;" horiz-adv-x="977" 
d="M940 0h-345q-67 0 -103 24q-20 -24 -56 -24h-288q-72 0 -101 41t-29 127q0 80 29.5 122t100.5 42h242v10q0 52 -60 52h-276v136h332q61 0 106 -32q52 38 183 38q56 0 91 -2t71 -9.5t55.5 -21.5t36.5 -38t23.5 -59.5t6.5 -85.5q0 -52 -18 -82t-66 -30h-289q0 -38 22.5 -55
t74.5 -17h257v-136zM390 208h-139q-16 0 -26.5 -10t-10.5 -27q0 -15 9.5 -28t25.5 -13h101q40 0 40 46v32zM586 332h145q15 0 22.5 6t8.5 11t1 13q0 38 -88 38q-23 0 -35.5 -1.5t-27 -7.5t-20.5 -20.5t-6 -38.5zM591 837l87 -109l-192 -158l-87 108z" />
    <glyph glyph-name="Scommaaccent" unicode="&#x218;" horiz-adv-x="702" 
d="M27 0v174h388q39 0 39 22q0 14 -11 21t-34 14l-271 76q-118 32 -118 209q0 184 164 184h462v-174h-356q-48 0 -48 -22q0 -16 15 -24t44 -15l236 -63q79 -21 112 -69.5t33 -139.5q0 -96 -38.5 -144.5t-131.5 -48.5h-485zM373 -371l-149 45l86 286l167 -51z" />
    <glyph glyph-name="scommaaccent" unicode="&#x219;" horiz-adv-x="552" 
d="M24 0v142h289q17 0 17 14q0 7 -13 13.5t-33.5 12.5t-22.5 7l-114 37q-67 22 -98 55.5t-31 103.5q0 145 140 145h362v-136h-288q-32 0 -32 -10q0 -4 2.5 -7.5t8.5 -6.5t11 -4.5t14.5 -4t14.5 -4.5l134 -45q77 -26 113 -61t36 -111q0 -73 -35.5 -106.5t-104.5 -33.5h-370z
M313 -371l-149 45l86 286l167 -51z" />
    <glyph glyph-name="uni021A" unicode="&#x21a;" horiz-adv-x="726" 
d="M476 0h-226v526h-250v174h726v-174h-250v-526zM385 -371l-149 45l86 286l167 -51z" />
    <glyph glyph-name="uni021B" unicode="&#x21b;" horiz-adv-x="430" 
d="M426 0h-147q-89 0 -144.5 44t-55.5 136v210h-75v140h75v170h196v-170h151v-140h-151v-120q0 -64 27.5 -97t92.5 -33h31v-140zM232 -371l-149 45l86 286l167 -51z" />
    <glyph glyph-name="uni0228" unicode="&#x228;" horiz-adv-x="700" 
d="M318 -200v70h69q21 0 21 14q0 15 -24 15h-30q-35 0 -35 29q0 8 5 21l24 51h-188q-52 0 -81 29t-29 81v480q0 52 29 81t81 29h506v-170h-346q-44 0 -44 -44v-52h382v-154h-382v-66q0 -44 44 -44h350v-170h-246l-11 -23q-3 -6 -3 -7q0 -5 8 -5h9q38 0 56.5 -19t18.5 -63
q0 -83 -100 -83h-84z" />
    <glyph glyph-name="uni0229" unicode="&#x229;" horiz-adv-x="617" 
d="M246 -200v70h69q21 0 21 14q0 15 -24 15h-30q-35 0 -35 29q0 8 5 21l24 51h-47q-88 0 -130 22t-58.5 77t-16.5 169q0 63 4 103.5t17 72.5t31 48.5t53 27t75 13.5t105 3q56 0 91 -2t71 -9.5t55.5 -21.5t36.5 -38t23.5 -59.5t6.5 -85.5q0 -118 -84 -118h-289
q0 -37 22 -51.5t75 -14.5h257v-136h-222l-11 -23q-3 -6 -3 -7q0 -5 8 -5h9q38 0 56.5 -19t18.5 -63q0 -83 -100 -83h-84zM220 326h145q32 0 32 33q0 41 -88 41q-44 0 -66.5 -14.5t-22.5 -59.5z" />
    <glyph glyph-name="uni0237" unicode="&#x237;" horiz-adv-x="344" 
d="M-40 -170v126q78 0 114 29t36 101v444h196v-490q0 -42 -8.5 -74.5t-21 -54.5t-38 -37.5t-49.5 -24t-65 -13t-75 -5.5t-89 -1z" />
    <glyph glyph-name="uni0259" unicode="&#x259;" horiz-adv-x="617" 
d="M43 530h345q88 0 130 -22t58.5 -77t16.5 -169q0 -63 -4 -103.5t-17 -72.5t-31 -48.5t-53 -27t-75 -13.5t-105 -3q-56 0 -91 2t-71 9.5t-55.5 21.5t-36.5 38t-23.5 59.5t-6.5 85.5q0 118 84 118h289q0 37 -22 51.5t-75 14.5h-257v136zM397 204h-145q-32 0 -32 -33
q0 -41 88 -41q44 0 66.5 14.5t22.5 59.5z" />
    <glyph glyph-name="afii57929" unicode="&#x2bc;" horiz-adv-x="263" 
d="M129 394l-149 45l86 286l167 -51z" />
    <glyph glyph-name="circumflex" unicode="&#x2c6;" horiz-adv-x="478" 
d="M388 570l-119 95q-14 12 -29 12q-12 0 -29 -12l-119 -95l-62 89l159 120q23 17 50 17t50 -17l159 -120z" />
    <glyph glyph-name="caron" unicode="&#x2c7;" horiz-adv-x="478" 
d="M388 796l60 -89l-159 -120q-20 -17 -50 -17t-50 17l-159 120l62 89l119 -95q17 -12 29 -12q15 0 29 12z" />
    <glyph glyph-name="uni02C9" unicode="&#x2c9;" horiz-adv-x="349" 
d="M319 596h-289v110h289v-110z" />
    <glyph glyph-name="breve" unicode="&#x2d8;" horiz-adv-x="512" 
d="M256 663q75 0 97 71h129q-27 -94 -78 -134t-148 -40q-98 0 -152.5 41t-73.5 133h129q22 -71 97 -71z" />
    <glyph glyph-name="dotaccent" unicode="&#x2d9;" horiz-adv-x="273" 
d="M223 590h-173v128h173v-128z" />
    <glyph glyph-name="ring" unicode="&#x2da;" horiz-adv-x="299" 
d="M150 807q66 0 92.5 -28.5t26.5 -90.5t-26.5 -90t-92.5 -28t-93 28t-27 90t27 90.5t93 28.5zM102 688q0 -25 10 -38.5t38 -13.5t37.5 13t9.5 39t-9.5 39.5t-37.5 13.5t-38 -13.5t-10 -39.5z" />
    <glyph glyph-name="ogonek" unicode="&#x2db;" horiz-adv-x="228" 
d="M198 -209h-85q-83 0 -83 69q0 24 11 43l58 97h97l-55 -91q-9 -15 -9 -22q0 -17 27 -17h39v-79z" />
    <glyph glyph-name="tilde" unicode="&#x2dc;" horiz-adv-x="519" 
d="M98 574l-68 66q66 95 153 95q30 0 52 -11l44 -21q42 -20 65 -20q40 0 77 59l68 -62q-34 -48 -70 -76t-85 -28q-40 0 -66 14l-42 21q-26 14 -51 14q-22 0 -39 -13t-38 -38z" />
    <glyph glyph-name="hungarumlaut" unicode="&#x2dd;" horiz-adv-x="577" 
d="M191 851l97 -85l-162 -189l-96 84zM450 851l97 -85l-162 -189l-96 84z" />
    <glyph glyph-name="acutecomb" unicode="&#x301;" horiz-adv-x="2" 
d="M-224 837l87 -109l-192 -158l-87 108z" />
    <glyph glyph-name="uni037E" unicode="&#x37e;" horiz-adv-x="359" 
d="M138 -153l-138 82l153 256l154 -92zM309 356h-196v174h196v-174z" />
    <glyph glyph-name="uni0394" unicode="&#x394;" horiz-adv-x="714" 
d="M19 203l177 426q9 22 21.5 36.5t48.5 28.5t91 14q79 0 113 -22.5t48 -56.5l177 -426q2 -5 9.5 -22t10.5 -25t6 -25t3 -36q0 -95 -92 -95h-550q-92 0 -92 95q0 19 3 36t6 25t10.5 25t9.5 22zM346 478l-100 -272q-5 -15 -5 -17q0 -15 24 -15h184q24 0 24 15q0 2 -5 17
l-100 272q-1 1 -2.5 7t-3.5 8.5t-5 2.5t-5 -2.5t-3.5 -8.5t-2.5 -7z" />
    <glyph glyph-name="uni03A9" unicode="&#x3a9;" horiz-adv-x="860" 
d="M234 142v7q-94 21 -144 82t-50 180q0 161 90.5 229t299.5 68t299.5 -68t90.5 -229q0 -119 -50 -180t-144 -82v-7h170v-142h-194q-112 0 -112 114v60q0 36 7.5 51.5t34.5 36.5q27 20 41.5 50t14.5 88q0 72 -38.5 103t-119.5 31t-119.5 -31t-38.5 -103q0 -58 14.5 -88
t41.5 -50q27 -21 34.5 -36.5t7.5 -51.5v-60q0 -114 -112 -114h-194v142h170z" />
    <glyph glyph-name="uni03BC" unicode="&#x3bc;" horiz-adv-x="670" 
d="M50 -177v707h197v-300q0 -42 22.5 -69t64.5 -27q38 0 63.5 26.5t25.5 66.5v303h197v-530h-187v73q-12 -37 -39 -58t-61 -21q-35 0 -60.5 19.5t-35.5 52.5v-243h-187z" />
    <glyph glyph-name="pi" unicode="&#x3c0;" horiz-adv-x="744" 
d="M94 0v396q-52 0 -84 -21v134q39 21 104 21h620v-134h-70v-238q0 -33 10 -44.5t32 -11.5h10v-102q-42 -5 -91 -5q-83 0 -120 29.5t-37 114.5v257h-178v-396h-196z" />
    <glyph glyph-name="afii10023" unicode="&#x401;" horiz-adv-x="710" 
d="M666 700v-170h-346q-44 0 -44 -44v-52h382v-154h-382v-66q0 -44 44 -44h350v-170h-510q-52 0 -81 29t-29 81v480q0 52 29 81t81 29h506zM585 766h-182v129h182v-129zM318 766h-183v129h183v-129z" />
    <glyph glyph-name="afii10051" unicode="&#x402;" horiz-adv-x="915" 
d="M161 0v526h-161v174h678v-174h-291v-90h281q116 0 158 -50.5t42 -168.5q0 -117 -42 -167t-158 -50h-160v174h38q51 0 70.5 9t19.5 44t-20 45t-70 10h-159v-282h-226z" />
    <glyph glyph-name="afii10052" unicode="&#x403;" horiz-adv-x="666" 
d="M276 0h-226v590q0 52 29 81t81 29h506v-174h-346q-44 0 -44 -44v-482zM445 1007l87 -109l-192 -158l-87 108z" />
    <glyph glyph-name="afii10053" unicode="&#x404;" horiz-adv-x="672" 
d="M642 0h-306q-169 0 -237.5 82.5t-68.5 267.5t68.5 267.5t237.5 82.5h296v-174h-180q-92 0 -135 -18.5t-48 -71.5h353v-158h-356q3 -62 45.5 -83t140.5 -21h190v-174z" />
    <glyph glyph-name="afii10054" unicode="&#x405;" horiz-adv-x="702" 
d="M27 0v174h388q39 0 39 22q0 14 -11 21t-34 14l-271 76q-118 32 -118 209q0 184 164 184h462v-174h-356q-48 0 -48 -22q0 -16 15 -24t44 -15l236 -63q79 -21 112 -69.5t33 -139.5q0 -96 -38.5 -144.5t-131.5 -48.5h-485z" />
    <glyph glyph-name="afii10055" unicode="&#x406;" horiz-adv-x="326" 
d="M276 0h-226v700h226v-700z" />
    <glyph glyph-name="afii10056" unicode="&#x407;" horiz-adv-x="354" 
d="M291 0h-226v700h226v-700zM364 746h-157v129h157v-129zM148 746h-158v129h158v-129z" />
    <glyph glyph-name="afii10057" unicode="&#x408;" horiz-adv-x="532" 
d="M0 0v174h96q90 0 125 35t35 125v366h226v-450q0 -112 -69 -181t-181 -69h-232z" />
    <glyph glyph-name="afii10058" unicode="&#x409;" horiz-adv-x="1274" 
d="M537 510q0 19 -11 19q-8 0 -13 -11l-276 -518h-257l402 649q21 33 57.5 46t119.5 13q118 0 161 -24t43 -91v-135h281q115 0 157.5 -55t42.5 -175q0 -119 -42.5 -173.5t-157.5 -54.5h-397q-53 0 -81.5 29t-28.5 81v400zM922 284h-159v-66q0 -44 44 -44h115q50 0 70 9.5
t20 44.5t-20 45.5t-70 10.5z" />
    <glyph glyph-name="afii10059" unicode="&#x40a;" horiz-adv-x="1258" 
d="M530 700h226v-242h271q115 0 158 -55.5t43 -174.5t-43 -173.5t-158 -54.5h-387q-52 0 -81 29t-29 81v174h-254v-284h-226v700h226v-242h254v242zM905 284h-149v-66q0 -44 44 -44h105q50 0 70 9.5t20 44.5t-20 45.5t-70 10.5z" />
    <glyph glyph-name="afii10060" unicode="&#x40b;" horiz-adv-x="905" 
d="M161 0v526h-161v174h678v-174h-291v-103h298q180 0 180 -180v-243h-226v179q0 45 -12.5 57.5t-57.5 12.5h-182v-249h-226z" />
    <glyph glyph-name="afii10061" unicode="&#x40c;" horiz-adv-x="803" 
d="M823 0h-272l-219 271q-24 29 -24 88q0 45 22 77l188 264h268l-243 -289q-21 -25 -21 -52q0 -21 29 -53zM50 0v700h226v-700h-226zM479 1007l87 -109l-192 -158l-87 108z" />
    <glyph glyph-name="afii10062" unicode="&#x40e;" horiz-adv-x="751" 
d="M394 0h-246l112 199l-280 501h252l146 -298l147 298h246zM375 849q68 0 87 61h160q-27 -93 -84.5 -133.5t-162.5 -40.5q-107 0 -167.5 41.5t-79.5 132.5h160q19 -61 87 -61z" />
    <glyph glyph-name="afii10145" unicode="&#x40f;" horiz-adv-x="806" 
d="M530 700h226v-590q0 -52 -29 -81t-81 -29h-130v-170h-226v170h-130q-52 0 -81 29t-29 81v590h226v-482q0 -44 44 -44h166q44 0 44 44v482z" />
    <glyph glyph-name="afii10017" unicode="&#x410;" horiz-adv-x="798" 
d="M-20 0l259 623q19 44 52 64.5t108 20.5q61 0 99.5 -16t60.5 -69l259 -623h-238l-55 144h-252l-55 -144h-238zM388 491l-68 -193h158l-68 193q-6 15 -11 15t-11 -15z" />
    <glyph glyph-name="afii10018" unicode="&#x411;" horiz-adv-x="787" 
d="M50 588q0 37 12.5 62t33.5 34.5t34.5 12.5t28.5 3h554v-174h-394q-29 0 -36 -9.5t-7 -32.5v-48h281q116 0 158 -50.5t42 -168.5q0 -117 -42 -167t-158 -50h-397q-52 0 -81 29t-29 81v478zM435 282h-159v-66q0 -42 44 -42h115q51 0 70.5 9t19.5 44t-20 45t-70 10z" />
    <glyph glyph-name="afii10019" unicode="&#x412;" horiz-adv-x="775" 
d="M276 277v-57q0 -30 10 -40t40 -10h127q66 0 66 54q0 53 -66 53h-177zM276 490v-59h168q32 0 46.5 10.5t14.5 39.5q0 28 -15 38.5t-47 10.5h-127q-22 0 -31 -9t-9 -31zM624 356q71 -13 96 -50.5t25 -109.5q0 -103 -41 -149.5t-149 -46.5h-395q-52 0 -81 29t-29 81v480
q0 52 29 81t81 29h375q105 0 149.5 -45.5t44.5 -150.5q0 -124 -105 -144v-4z" />
    <glyph glyph-name="afii10020" unicode="&#x413;" horiz-adv-x="666" 
d="M276 0h-226v590q0 52 29 81t81 29h506v-174h-346q-44 0 -44 -44v-482z" />
    <glyph glyph-name="afii10021" unicode="&#x414;" horiz-adv-x="931" 
d="M202 -135h-216v199q0 52 29 81t81 29h10l199 455q10 22 22 37t48 28.5t91 13.5t91 -13.5t48 -28.5t22 -37l198 -455h10q53 0 81.5 -29t28.5 -81v-199h-216v91q0 41 -38 44h-452q-37 -3 -37 -44v-91zM453 488l-130 -314h286l-130 314q-8 18 -13 18t-13 -18z" />
    <glyph glyph-name="afii10022" unicode="&#x415;" horiz-adv-x="710" 
d="M666 700v-170h-346q-44 0 -44 -44v-52h382v-154h-382v-66q0 -44 44 -44h350v-170h-510q-52 0 -81 29t-29 81v480q0 52 29 81t81 29h506z" />
    <glyph glyph-name="afii10024" unicode="&#x416;" horiz-adv-x="1200" 
d="M-20 0l229 296q34 45 34 64q0 14 -27 52l-200 288h260l157 -260q32 -53 32 -79q0 -46 -32 -95l-179 -266h-274zM1220 0h-274l-179 266q-32 49 -32 95q0 27 32 79l161 260h260l-204 -288q-27 -38 -27 -52q0 -19 34 -64zM487 0v700h226v-700h-226z" />
    <glyph glyph-name="afii10025" unicode="&#x417;" horiz-adv-x="698" 
d="M547 356q71 -13 96 -50.5t25 -109.5q0 -103 -41 -149.5t-149 -46.5h-448v174h341q69 0 69 53q0 52 -69 52h-327v152h320q32 0 46.5 10t14.5 38t-14.5 37.5t-47.5 9.5h-329v174h421q105 0 149.5 -45.5t44.5 -150.5q0 -125 -102 -144v-4z" />
    <glyph glyph-name="afii10026" unicode="&#x418;" horiz-adv-x="862" 
d="M812 0h-230l10 411q0 26 -10 26q-6 0 -26 -34l-199 -340q-41 -71 -151 -71q-49 0 -82 13.5t-48 39.5t-20.5 52.5t-5.5 62.5v540h230l-10 -401q0 -35 12 -35q6 0 20 25l193 337q47 82 151 82q46 0 78.5 -13t49 -30.5t26 -44.5t11 -44.5t1.5 -40.5v-535z" />
    <glyph glyph-name="afii10027" unicode="&#x419;" horiz-adv-x="862" 
d="M812 0h-230l10 411q0 26 -10 26q-6 0 -26 -34l-199 -340q-41 -71 -151 -71q-49 0 -82 13.5t-48 39.5t-20.5 52.5t-5.5 62.5v540h230l-10 -401q0 -35 12 -35q6 0 20 25l193 337q47 82 151 82q46 0 78.5 -13t49 -30.5t26 -44.5t11 -44.5t1.5 -40.5v-535zM426 849
q68 0 87 61h160q-27 -93 -84.5 -133.5t-162.5 -40.5q-107 0 -167.5 41.5t-79.5 132.5h160q19 -61 87 -61z" />
    <glyph glyph-name="afii10028" unicode="&#x41a;" horiz-adv-x="803" 
d="M823 0h-272l-219 271q-24 29 -24 88q0 45 22 77l188 264h268l-243 -289q-21 -25 -21 -52q0 -21 29 -53zM50 0v700h226v-700h-226z" />
    <glyph glyph-name="afii10029" unicode="&#x41b;" horiz-adv-x="800" 
d="M-20 0l269 636q31 72 151 72t151 -72l269 -636h-240l-169 463q-1 1 -2.5 4t-2.5 6t-2.5 5t-3.5 2t-4 -3.5t-4 -8t-3 -5.5l-169 -463h-240z" />
    <glyph glyph-name="afii10030" unicode="&#x41c;" horiz-adv-x="1072" 
d="M779 424l-108 -338q-10 -31 -20.5 -48.5t-39 -31.5t-75.5 -14q-67 0 -93.5 23.5t-41.5 70.5l-108 338q-8 25 -14 25q-8 0 -8 -23l7 -426h-228v585q0 123 172 123q28 0 49.5 -3.5t48.5 -14t48 -35.5t34 -63l113 -340q9 -32 21 -32t21 32l113 340q13 38 34 63t48 35.5
t49 14t49 3.5q172 0 172 -123v-585h-228l8 426q0 23 -8 23q-6 0 -15 -25z" />
    <glyph glyph-name="afii10031" unicode="&#x41d;" horiz-adv-x="806" 
d="M756 700v-700h-226v278h-254v-278h-226v700h226v-248h254v248h226z" />
    <glyph glyph-name="afii10032" unicode="&#x41e;" horiz-adv-x="830" 
d="M415 708q115 0 183.5 -13.5t116.5 -53t66.5 -108.5t18.5 -183t-18.5 -183t-66.5 -108.5t-116.5 -53t-183.5 -13.5t-183.5 13.5t-116.5 53t-66.5 108.5t-18.5 183t18.5 183t66.5 108.5t116.5 53t183.5 13.5zM262 350q0 -100 32.5 -142t120.5 -42t120.5 42t32.5 142
t-32.5 142t-120.5 42t-120.5 -42t-32.5 -142z" />
    <glyph glyph-name="afii10033" unicode="&#x41f;" horiz-adv-x="800" 
d="M276 0h-226v590q0 52 29 81t81 29h480q52 0 81 -29t29 -81v-590h-226v482q0 44 -44 44h-160q-44 0 -44 -44v-482z" />
    <glyph glyph-name="afii10034" unicode="&#x420;" horiz-adv-x="787" 
d="M276 0h-226v590q0 52 29 81t81 29h397q114 0 157 -60t43 -188t-43 -189t-157 -61h-281v-202zM276 376h159q47 0 68.5 16.5t21.5 59.5t-21 58.5t-69 15.5h-115q-44 0 -44 -44v-106z" />
    <glyph glyph-name="afii10035" unicode="&#x421;" horiz-adv-x="658" 
d="M642 0h-306q-169 0 -237.5 82.5t-68.5 267.5t68.5 267.5t237.5 82.5h296v-174h-180q-115 0 -152.5 -33t-37.5 -143t37.5 -143t152.5 -33h190v-174z" />
    <glyph glyph-name="afii10036" unicode="&#x422;" horiz-adv-x="726" 
d="M476 0h-226v526h-250v174h726v-174h-250v-526z" />
    <glyph glyph-name="afii10037" unicode="&#x423;" horiz-adv-x="751" 
d="M394 0h-246l112 199l-280 501h252l146 -298l147 298h246z" />
    <glyph glyph-name="afii10038" unicode="&#x424;" horiz-adv-x="996" 
d="M385 700h226v-63h120q131 0 183 -67t52 -215t-52 -215t-183 -67h-120v-73h-226v73h-120q-131 0 -183 67t-52 215t52 215t183 67h120v63zM385 247v216h-30q-56 0 -74.5 -25.5t-18.5 -83.5q0 -57 18.5 -82t74.5 -25h30zM611 247h30q56 0 74.5 25t18.5 82q0 58 -18.5 83.5
t-74.5 25.5h-30v-216z" />
    <glyph glyph-name="afii10039" unicode="&#x425;" horiz-adv-x="746" 
d="M770 0h-270l-127 197l-127 -197h-270l265 355l-257 345h270l119 -187l119 187h270l-257 -345z" />
    <glyph glyph-name="afii10040" unicode="&#x426;" horiz-adv-x="864" 
d="M276 218q0 -44 44 -44h212v526h226v-526h10q52 0 81 -29t29 -81v-199h-216v91q0 41 -38 44h-464q-52 0 -81 29t-29 81v590h226v-482z" />
    <glyph glyph-name="afii10041" unicode="&#x427;" horiz-adv-x="794" 
d="M744 0h-226v277h-298q-180 0 -180 180v243h226v-179q0 -45 12.5 -57.5t57.5 -12.5h182v249h226v-700z" />
    <glyph glyph-name="afii10042" unicode="&#x428;" horiz-adv-x="1132" 
d="M856 700h226v-590q0 -52 -29 -81t-81 -29h-812q-52 0 -81 29t-29 81v590h226v-482q0 -44 44 -44h133v526h226v-526h133q44 0 44 44v482z" />
    <glyph glyph-name="afii10043" unicode="&#x429;" horiz-adv-x="1188" 
d="M276 218q0 -44 44 -44h133v526h226v-526h177v526h226v-526h10q52 0 81 -29t29 -81v-199h-216v91q0 41 -36 44h-790q-52 0 -81 29t-29 81v590h226v-482z" />
    <glyph glyph-name="afii10044" unicode="&#x42a;" horiz-adv-x="898" 
d="M271 0q-53 0 -81.5 29t-28.5 81v372q0 44 -44 44h-117v174h277q53 0 81.5 -29t28.5 -81v-132h281q115 0 157.5 -55t42.5 -175q0 -119 -42.5 -173.5t-157.5 -54.5h-397zM546 284h-159v-66q0 -44 44 -44h115q50 0 70 9.5t20 44.5t-20 45.5t-70 10.5z" />
    <glyph glyph-name="afii10045" unicode="&#x42b;" horiz-adv-x="1087" 
d="M1037 0h-226v700h226v-700zM50 700h226v-242h271q115 0 157.5 -55t42.5 -175q0 -119 -42.5 -173.5t-157.5 -54.5h-387q-52 0 -81 29t-29 81v590zM425 284h-149v-66q0 -44 44 -44h105q50 0 70 9.5t20 44.5t-20 45.5t-70 10.5z" />
    <glyph glyph-name="afii10046" unicode="&#x42c;" horiz-adv-x="787" 
d="M50 700h226v-242h281q115 0 157.5 -55t42.5 -175q0 -119 -42.5 -173.5t-157.5 -54.5h-397q-52 0 -81 29t-29 81v590zM435 284h-159v-66q0 -44 44 -44h115q50 0 70 9.5t20 44.5t-20 45.5t-70 10.5z" />
    <glyph glyph-name="afii10047" unicode="&#x42d;" horiz-adv-x="672" 
d="M336 0h-306v174h190q98 0 140.5 21t45.5 83h-356v158h353q-5 53 -48 71.5t-135 18.5h-180v174h296q169 0 237.5 -82.5t68.5 -267.5t-68.5 -267.5t-237.5 -82.5z" />
    <glyph glyph-name="afii10048" unicode="&#x42e;" horiz-adv-x="1158" 
d="M748 708q115 0 183 -13.5t115 -53.5t64.5 -108.5t17.5 -182.5t-17.5 -182.5t-64.5 -108.5t-115 -53.5t-183 -13.5q-105 0 -170 11.5t-112 43.5t-68 87.5t-27 146.5h-95v-281h-226v700h226v-264h96q7 85 29 137.5t69 82.5t111 41t167 11zM600 350q0 -102 30.5 -143
t117.5 -41t117.5 41t30.5 143t-30.5 143t-117.5 41t-117.5 -41t-30.5 -143z" />
    <glyph glyph-name="afii10049" unicode="&#x42f;" horiz-adv-x="790" 
d="M740 590v-590h-226v482q0 44 -45 44h-129q-46 0 -63 -16t-17 -60q0 -45 17.5 -64t62.5 -19h34q101 0 101 -79v-15q0 -11 -2.5 -21.5t-8.5 -21t-10 -16.5t-14 -18.5t-13 -17.5l-135 -178h-272l194 205v4h-24q-156 0 -156 249q0 122 43.5 182t156.5 60h396q52 0 81 -29
t29 -81z" />
    <glyph glyph-name="afii10065" unicode="&#x430;" horiz-adv-x="630" 
d="M60 530h352q82 0 131 -49t49 -131v-240q0 -52 -29 -81t-81 -29h-328q-72 0 -101 41t-29 127q0 80 29.5 122t100.5 42h242v10q0 52 -60 52h-276v136zM396 208h-139q-15 0 -26 -11t-11 -29q0 -15 9.5 -26.5t25.5 -11.5h101q22 0 31 9t9 31v38z" />
    <glyph glyph-name="afii10066" unicode="&#x431;" horiz-adv-x="641" 
d="M589 564h-245q-54 0 -82 -15t-28 -63h163q125 0 172.5 -55.5t47.5 -192.5q0 -79 -15 -127t-53 -74t-88.5 -34.5t-135.5 -8.5q-84 0 -134.5 8t-87 32.5t-51 67.5t-14.5 114v275q0 58 19 101t50.5 65.5t64.5 32.5t68 10h349v-136zM234 350v-136q0 -44 22 -62t69 -18
q51 0 71.5 25t20.5 79q0 59 -15.5 85.5t-64.5 26.5h-103z" />
    <glyph glyph-name="afii10067" unicode="&#x432;" horiz-adv-x="637" 
d="M497 274v-4q110 -11 110 -122q0 -89 -45.5 -118.5t-133.5 -29.5h-280q-52 0 -81 29t-29 81v310q0 52 29 81t81 29h276q36 0 58 -1.5t47.5 -9t40 -22t24 -40.5t9.5 -64q0 -59 -24.5 -85t-81.5 -34zM234 328h119q28 0 42 6t14 28t-14 28t-42 6h-79q-22 0 -31 -10.5
t-9 -33.5v-24zM234 208v-28q0 -23 9 -33.5t31 -10.5h78q18 0 28.5 1.5t19.5 10t9 24.5q0 23 -14.5 29.5t-42.5 6.5h-118z" />
    <glyph glyph-name="afii10068" unicode="&#x433;" horiz-adv-x="539" 
d="M38 0v420q0 58 28 84t82 26h391v-140h-265q-22 0 -31 -9t-9 -31v-350h-196z" />
    <glyph glyph-name="afii10069" unicode="&#x434;" horiz-adv-x="778" 
d="M-14 -130v160q0 58 28 84t82 26h10l139 327q29 69 144 69t144 -69l139 -327h10q54 0 82 -26t28 -84v-160h-186v90q0 22 -9 31t-31 9h-361q-18 0 -25.5 -9.5t-7.5 -30.5v-90h-186zM369 353l-79 -223h198l-79 223q-2 9 -8.5 15t-11.5 6t-11.5 -6t-8.5 -15z" />
    <glyph glyph-name="afii10070" unicode="&#x435;" horiz-adv-x="617" 
d="M574 0h-345q-88 0 -130 22t-58.5 77t-16.5 169q0 63 4 103.5t17 72.5t31 48.5t53 27t75 13.5t105 3q56 0 91 -2t71 -9.5t55.5 -21.5t36.5 -38t23.5 -59.5t6.5 -85.5q0 -118 -84 -118h-289q0 -37 22 -51.5t75 -14.5h257v-136zM220 326h145q32 0 32 33q0 41 -88 41
q-44 0 -66.5 -14.5t-22.5 -59.5z" />
    <glyph glyph-name="afii10072" unicode="&#x436;" horiz-adv-x="950" 
d="M568 0h-186v530h186v-530zM964 0h-217l-132 211q-25 42 -25 58q0 19 30 72l105 189h215l-127 -207q-4 -6 -10 -16t-8.5 -14t-4.5 -9.5t-2 -9.5q0 -15 25 -51zM-14 0l151 223q25 36 25 51q0 4 -2 9.5t-4.5 9.5t-8.5 14t-10 16l-127 207h215l105 -189q30 -53 30 -72
q0 -16 -25 -58l-132 -211h-217z" />
    <glyph glyph-name="afii10073" unicode="&#x437;" horiz-adv-x="579" 
d="M445 274v-4q110 -11 110 -122q0 -89 -45.5 -118.5t-133.5 -29.5h-352v142h276q20 0 29.5 1t18.5 9t9 24q0 23 -14 28.5t-43 5.5h-262v122h263q20 0 29 1t18 8.5t9 22.5t-9 22.5t-18 8.5t-29 1h-269v134h340q36 0 58 -1.5t47.5 -9t40 -22t24 -40.5t9.5 -64
q0 -59 -24.5 -85t-81.5 -34z" />
    <glyph glyph-name="afii10074" unicode="&#x438;" horiz-adv-x="687" 
d="M649 0h-196l10 275q0 16 -8 16q-4 0 -18 -16l-188 -235q-23 -29 -43.5 -37.5t-55.5 -8.5q-112 0 -112 100v436h196l-10 -275q0 -15 9 -15q6 0 18 15l192 241q13 15 18.5 20t25.5 12.5t48 7.5q39 0 64.5 -12t35 -32t12 -33t2.5 -29v-430z" />
    <glyph glyph-name="afii10075" unicode="&#x439;" horiz-adv-x="687" 
d="M649 0h-196l10 275q0 16 -8 16q-4 0 -18 -16l-188 -235q-23 -29 -43.5 -37.5t-55.5 -8.5q-112 0 -112 100v436h196l-10 -275q0 -15 9 -15q6 0 18 15l192 241q13 15 18.5 20t25.5 12.5t48 7.5q39 0 64.5 -12t35 -32t12 -33t2.5 -29v-430zM346 663q65 0 87 71h139
q-27 -94 -78 -134t-148 -40q-98 0 -152.5 41t-73.5 133h139q22 -71 87 -71z" />
    <glyph glyph-name="afii10076" unicode="&#x43a;" horiz-adv-x="641" 
d="M655 0h-220l-155 213q-26 37 -26 59q0 24 32 70l130 188h216l-157 -202q-29 -38 -29 -55q0 -19 23 -46zM234 0h-196v530h196v-530z" />
    <glyph glyph-name="afii10077" unicode="&#x43b;" horiz-adv-x="668" 
d="M478 0l-131 316q-8 18 -13 18t-13 -18l-131 -316h-204l234 488q23 48 114 48t114 -48l234 -488h-204z" />
    <glyph glyph-name="afii10078" unicode="&#x43c;" horiz-adv-x="836" 
d="M594 284l-84 -238q-11 -31 -33.5 -41.5t-58.5 -10.5t-58.5 10.5t-33.5 41.5l-84 237q-5 14 -11 14q-7 0 -7 -12l10 -285h-196v435q0 49 41.5 75t99.5 26q56 0 89 -19t48 -63l83 -230q8 -23 19 -23t19 23l83 230q15 44 48 63t89 19q58 0 99.5 -26t41.5 -75v-435h-196
l10 286q0 12 -7 12q-6 0 -11 -14z" />
    <glyph glyph-name="afii10079" unicode="&#x43d;" horiz-adv-x="642" 
d="M604 0h-196v204h-174v-204h-196v530h196v-186h174v186h196v-530z" />
    <glyph glyph-name="afii10080" unicode="&#x43e;" horiz-adv-x="660" 
d="M330 536q86 0 141 -11.5t94 -41.5t55 -82.5t16 -135.5t-16 -135.5t-55 -82.5t-94 -41.5t-141 -11.5t-141 11.5t-94 41.5t-55 82.5t-16 135.5t16 135.5t55 82.5t94 41.5t141 11.5zM224 265q0 -67 21.5 -99t84.5 -32t84.5 32t21.5 99t-21.5 99t-84.5 32t-84.5 -32
t-21.5 -99z" />
    <glyph glyph-name="afii10081" unicode="&#x43f;" horiz-adv-x="646" 
d="M38 0v420q0 58 28 84t82 26h350q54 0 82 -26t28 -84v-420h-196v350q0 22 -9 31t-31 9h-98q-22 0 -31 -9t-9 -31v-350h-196z" />
    <glyph glyph-name="afii10082" unicode="&#x440;" horiz-adv-x="626" 
d="M148 530h234q121 0 170.5 -68t49.5 -197t-49.5 -197t-170.5 -68h-148v-170h-196v590q0 52 29 81t81 29zM234 340v-200h90q78 0 78 125q0 59 -16 92t-66 33h-36q-30 0 -40 -10t-10 -40z" />
    <glyph glyph-name="afii10083" unicode="&#x441;" horiz-adv-x="551" 
d="M539 0h-295q-66 0 -110 18t-67.5 54.5t-33 82t-9.5 109.5q0 132 47 199t173 67h284v-140h-194q-110 0 -110 -126q0 -62 26 -93t84 -31h205v-140z" />
    <glyph glyph-name="afii10084" unicode="&#x442;" horiz-adv-x="600" 
d="M398 0h-196v390h-198v140h592v-140h-198v-390z" />
    <glyph glyph-name="afii10085" unicode="&#x443;" horiz-adv-x="641" 
d="M661 530l-316 -701h-196l83 171l-252 530h200l139 -336l146 336h196z" />
    <glyph glyph-name="afii10086" unicode="&#x444;" horiz-adv-x="920" 
d="M363 700h194v-170h130q62 0 104 -19.5t64.5 -57t31.5 -82.5t9 -105q0 -126 -45.5 -196t-163.5 -70h-130v-170h-194v170h-130q-118 0 -163.5 70t-45.5 196q0 60 9 105t31.5 82.5t64.5 57t104 19.5h130v170zM363 138v254h-20q-73 0 -98 -28t-25 -98t25.5 -99t97.5 -29h20z
M557 138h20q72 0 97.5 29t25.5 99t-25 98t-98 28h-20v-254z" />
    <glyph glyph-name="afii10087" unicode="&#x445;" horiz-adv-x="612" 
d="M632 0h-228l-98 150l-98 -150h-228l211 272l-194 258h223l86 -136l86 136h223l-194 -258z" />
    <glyph glyph-name="afii10088" unicode="&#x446;" horiz-adv-x="711" 
d="M605 140h10q54 0 82 -26t28 -84v-160h-186v90q0 22 -8.5 31t-31.5 9h-351q-54 0 -82 26t-28 84v420h196v-350q0 -22 9 -31t31 -9h135v390h196v-390z" />
    <glyph glyph-name="afii10089" unicode="&#x447;" horiz-adv-x="624" 
d="M586 0h-191v189h-229q-66 0 -103 40.5t-37 109.5v191h191v-110q0 -47 13.5 -63.5t56.5 -16.5h108v190h191v-530z" />
    <glyph glyph-name="afii10090" unicode="&#x448;" horiz-adv-x="880" 
d="M842 530v-420q0 -58 -28 -84t-82 -26h-584q-54 0 -82 26t-28 84v420h192v-350q0 -22 9 -31t31 -9h74v390h192v-390h74q22 0 31 9t9 31v350h192z" />
    <glyph glyph-name="afii10091" unicode="&#x449;" horiz-adv-x="947" 
d="M841 140h10q54 0 82 -26t28 -84v-160h-186v90q0 21 -7.5 30.5t-26.5 9.5h-593q-54 0 -82 26t-28 84v420h192v-350q0 -22 9 -31t31 -9h73v390h192v-390h114v390h192v-390z" />
    <glyph glyph-name="afii10092" unicode="&#x44a;" horiz-adv-x="756" 
d="M4 390v140h244q54 0 82 -26t28 -84v-58h232q84 0 113 -44.5t29 -136.5t-29 -136.5t-113 -44.5h-323q-47 0 -76 28t-29 77v245q0 22 -9 31t-31 9h-118zM358 222v-49q0 -18 9.5 -25.5t30.5 -7.5h82q30 0 41 9t11 32t-11 32t-41 9h-122z" />
    <glyph glyph-name="afii10093" unicode="&#x44b;" horiz-adv-x="890" 
d="M656 0v530h196v-530h-196zM466 0h-323q-47 0 -76 28t-29 77v425h196v-168h232q84 0 113 -44.5t29 -136.5t-29 -136.5t-113 -44.5zM234 222v-42q0 -22 9 -31t31 -9h82q30 0 41 9t11 32t-11 32t-41 9h-122z" />
    <glyph glyph-name="afii10094" unicode="&#x44c;" horiz-adv-x="632" 
d="M466 0h-323q-47 0 -76 28t-29 77v425h196v-168h232q84 0 113 -44.5t29 -136.5t-29 -136.5t-113 -44.5zM234 222v-42q0 -22 9 -31t31 -9h82q30 0 41 9t11 32t-11 32t-41 9h-122z" />
    <glyph glyph-name="afii10095" unicode="&#x44d;" horiz-adv-x="563" 
d="M319 0h-295v136h215q96 0 96 66h-301v130h298q-1 30 -26 46t-67 16h-204v136h284q126 0 173 -67t47 -199q0 -64 -9.5 -109.5t-33 -82t-67.5 -54.5t-110 -18z" />
    <glyph glyph-name="afii10096" unicode="&#x44e;" horiz-adv-x="905" 
d="M585 536q86 0 139.5 -11.5t90.5 -42t51.5 -82.5t14.5 -135t-14.5 -135t-51.5 -82.5t-90.5 -42t-139.5 -11.5q-155 0 -219.5 44.5t-74.5 172.5h-63v-211h-190v530h190v-195h64q13 118 77.5 159.5t215.5 41.5zM485 265q0 -69 19 -100t81 -31t81 31t19 100t-19 100t-81 31
t-81 -31t-19 -100z" />
    <glyph glyph-name="afii10097" unicode="&#x44f;" horiz-adv-x="633" 
d="M14 0l143 181q5 5 5 11t-13 6h-13q-56 0 -83.5 49t-27.5 123q0 71 32.5 115.5t97.5 44.5h330q53 0 81.5 -29t28.5 -81v-420h-196v352q0 44 -44 44h-90q-23 0 -33.5 -9t-10.5 -31t10 -29.5t34 -7.5h44q64 0 64 -55q0 -37 -27 -79l-122 -185h-210z" />
    <glyph glyph-name="afii10071" unicode="&#x451;" horiz-adv-x="617" 
d="M574 0h-345q-88 0 -130 22t-58.5 77t-16.5 169q0 63 4 103.5t17 72.5t31 48.5t53 27t75 13.5t105 3q56 0 91 -2t71 -9.5t55.5 -21.5t36.5 -38t23.5 -59.5t6.5 -85.5q0 -118 -84 -118h-289q0 -37 22 -51.5t75 -14.5h257v-136zM220 326h145q32 0 32 33q0 41 -88 41
q-44 0 -66.5 -14.5t-22.5 -59.5zM353 590v128h173v-128h-173zM265 590h-173v128h173v-128z" />
    <glyph glyph-name="afii10099" unicode="&#x452;" horiz-adv-x="640" 
d="M44 0v547h-74v98h74v55h196v-55h157v-98h-157v-57h150q100 0 160 -52.5t60 -147.5v-140q0 -171 -97 -320h-204q52 77 78.5 151.5t26.5 168.5v92q0 60 -25 85t-85 25h-64v-352h-196z" />
    <glyph glyph-name="afii10100" unicode="&#x453;" horiz-adv-x="539" 
d="M38 0v420q0 58 28 84t82 26h391v-140h-265q-22 0 -31 -9t-9 -31v-350h-196zM386 837l87 -109l-192 -158l-87 108z" />
    <glyph glyph-name="afii10101" unicode="&#x454;" horiz-adv-x="563" 
d="M539 0h-295q-66 0 -110 18t-67.5 54.5t-33 82t-9.5 109.5q0 132 47 199t173 67h284v-136h-204q-42 0 -67 -16t-26 -46h298v-130h-301q0 -66 96 -66h215v-136z" />
    <glyph glyph-name="afii10102" unicode="&#x455;" horiz-adv-x="564" 
d="M30 0v142h289q17 0 17 14q0 7 -13 13.5t-33.5 12.5t-22.5 7l-114 37q-67 22 -98 55.5t-31 103.5q0 145 140 145h362v-136h-288q-32 0 -32 -10q0 -4 2.5 -7.5t8.5 -6.5t11 -4.5t14.5 -4t14.5 -4.5l134 -45q77 -26 113 -61t36 -111q0 -73 -35.5 -106.5t-104.5 -33.5h-370z
" />
    <glyph glyph-name="afii10103" unicode="&#x456;" horiz-adv-x="256" 
d="M30 0v530h196v-530h-196zM226 583h-196v117h196v-117z" />
    <glyph glyph-name="afii10104" unicode="&#x457;" horiz-adv-x="364" 
d="M84 0v530h196v-530h-196zM208 572v128h156v-128h-156zM156 572h-156v128h156v-128z" />
    <glyph glyph-name="afii10105" unicode="&#x458;" horiz-adv-x="336" 
d="M-40 -170v126q78 0 114 29t36 101v444h196v-490q0 -42 -8.5 -74.5t-21 -54.5t-38 -37.5t-49.5 -24t-65 -13t-75 -5.5t-89 -1zM306 583h-196v117h196v-117z" />
    <glyph glyph-name="afii10106" unicode="&#x459;" horiz-adv-x="999" 
d="M833 0h-323q-47 0 -76 28t-29 77v259q0 31 -10 31q-8 0 -13 -12l-183 -383h-219l282 483q17 29 52.5 41t104.5 12q102 0 142 -18t40 -83v-73h232q84 0 113 -44.5t29 -136.5t-29 -136.5t-113 -44.5zM601 222v-42q0 -22 8.5 -31t31.5 -9h82q30 0 41 9t11 32t-11 32t-41 9
h-122z" />
    <glyph glyph-name="afii10107" unicode="&#x45a;" horiz-adv-x="1002" 
d="M836 0h-323q-47 0 -76 28t-29 77v107h-174v-212h-196v530h196v-178h174v178h196v-178h232q84 0 113 -42.5t29 -133.5t-29 -133.5t-113 -42.5zM604 212v-32q0 -22 9 -31t31 -9h82q31 0 41.5 7t10.5 29t-10.5 29t-41.5 7h-122z" />
    <glyph glyph-name="afii10108" unicode="&#x45b;" horiz-adv-x="648" 
d="M44 0v547h-74v98h74v55h196v-55h157v-98h-157v-57h150q100 0 160 -52.5t60 -147.5v-290h-196v242q0 60 -25 85t-85 25h-64v-352h-196z" />
    <glyph glyph-name="afii10109" unicode="&#x45c;" horiz-adv-x="641" 
d="M655 0h-220l-155 213q-26 37 -26 59q0 24 32 70l130 188h216l-157 -202q-29 -38 -29 -55q0 -19 23 -46zM234 0h-196v530h196v-530zM389 837l87 -109l-192 -158l-87 108z" />
    <glyph glyph-name="afii10110" unicode="&#x45e;" horiz-adv-x="641" 
d="M661 530l-316 -701h-196l83 171l-252 530h200l139 -336l146 336h196zM320 663q65 0 87 71h139q-27 -94 -78 -134t-148 -40q-98 0 -152.5 41t-73.5 133h139q22 -71 87 -71z" />
    <glyph glyph-name="afii10193" unicode="&#x45f;" horiz-adv-x="642" 
d="M604 530v-420q0 -58 -28 -84t-82 -26h-75v-176h-196v176h-75q-54 0 -82 26t-28 84v420h196v-350q0 -22 9 -31t31 -9h94q22 0 31 9t9 31v350h196z" />
    <glyph glyph-name="afii10146" unicode="&#x462;" horiz-adv-x="867" 
d="M0 515v128h130v57h226v-57h166v-128h-166v-57h281q115 0 157.5 -55t42.5 -175q0 -119 -42.5 -173.5t-157.5 -54.5h-397q-52 0 -81 29t-29 81v405h-130zM515 284h-159v-66q0 -44 44 -44h115q50 0 70 9.5t20 44.5t-20 45.5t-70 10.5z" />
    <glyph glyph-name="afii10194" unicode="&#x463;" horiz-adv-x="762" 
d="M596 0h-323q-47 0 -76 28t-29 77v315h-168v110h168v170h196v-170h198v-110h-198v-58h232q84 0 113 -44.5t29 -136.5t-29 -136.5t-113 -44.5zM364 222v-42q0 -22 9 -31t31 -9h82q30 0 41 9t11 32t-11 32t-41 9h-122z" />
    <glyph glyph-name="afii10147" unicode="&#x472;" horiz-adv-x="830" 
d="M415 708q115 0 183.5 -13.5t116.5 -53t66.5 -108.5t18.5 -183t-18.5 -183t-66.5 -108.5t-116.5 -53t-183.5 -13.5t-183.5 13.5t-116.5 53t-66.5 108.5t-18.5 183t18.5 183t66.5 108.5t116.5 53t183.5 13.5zM415 166q77 0 111 32t40 107q-35 -19 -77 -19q-32 0 -77 14.5
t-72 14.5q-42 0 -75 -28q8 -65 42.5 -93t107.5 -28zM415 534q-74 0 -108 -29.5t-42 -95.5q35 16 73 16q28 0 74.5 -16t76.5 -16q41 0 73 32q-10 58 -44 83.5t-103 25.5z" />
    <glyph glyph-name="afii10195" unicode="&#x473;" horiz-adv-x="660" 
d="M330 536q86 0 141 -11.5t94 -41.5t55 -82.5t16 -135.5t-16 -135.5t-55 -82.5t-94 -41.5t-141 -11.5t-141 11.5t-94 41.5t-55 82.5t-16 135.5t16 135.5t55 82.5t94 41.5t141 11.5zM330 396q-51 0 -74 -21t-29 -62q26 12 46 12q24 0 56 -16t55 -16q25 0 48 25
q-6 39 -29.5 58.5t-72.5 19.5zM330 134q51 0 74 21.5t29 64.5q-26 -14 -49 -14q-27 0 -57 14.5t-52 14.5t-48 -21q6 -40 30 -60t73 -20z" />
    <glyph glyph-name="afii10148" unicode="&#x474;" horiz-adv-x="814" 
d="M716 449l-141 -344q-22 -54 -61 -83.5t-115 -29.5t-115 30t-61 83l-243 595h242l164 -475q5 -15 13 -15t13 15l78 226q16 47 25 71t23.5 57t26.5 48.5t30.5 34.5t40 27t50 13.5t64.5 5.5h84v-174h-18q-43 0 -60.5 -16.5t-39.5 -68.5z" />
    <glyph glyph-name="afii10196" unicode="&#x475;" horiz-adv-x="668" 
d="M575 340l-137 -298q-22 -48 -114 -48t-114 48l-224 488h204l121 -306q8 -18 13 -18t13 18l54 136q13 33 25 58t27.5 43.5t27 31t32 21t34.5 13t42 6.5t46.5 2.5t56.5 0.5v-132q-49 0 -69.5 -14t-37.5 -50z" />
    <glyph glyph-name="afii10050" unicode="&#x490;" horiz-adv-x="666" 
d="M440 825h216v-189q0 -52 -29 -81t-81 -29h-226q-44 0 -44 -44v-482h-226v590q0 52 29 81t81 29h236q44 0 44 44v81z" />
    <glyph glyph-name="afii10098" unicode="&#x491;" horiz-adv-x="529" 
d="M529 660v-160q0 -58 -28 -84t-82 -26h-145q-22 0 -31 -9t-9 -31v-350h-196v420q0 58 28 84t82 26h155q23 0 31.5 9t8.5 31v90h186z" />
    <glyph glyph-name="uni04D0" unicode="&#x4d0;" horiz-adv-x="798" 
d="M-20 0l259 623q19 44 52 64.5t108 20.5q61 0 99.5 -16t60.5 -69l259 -623h-238l-55 144h-252l-55 -144h-238zM388 491l-68 -193h158l-68 193q-6 15 -11 15t-11 -15zM399 849q68 0 87 61h160q-27 -93 -84.5 -133.5t-162.5 -40.5q-107 0 -167.5 41.5t-79.5 132.5h160
q19 -61 87 -61z" />
    <glyph glyph-name="uni04D1" unicode="&#x4d1;" horiz-adv-x="630" 
d="M60 530h352q82 0 131 -49t49 -131v-240q0 -52 -29 -81t-81 -29h-328q-72 0 -101 41t-29 127q0 80 29.5 122t100.5 42h242v10q0 52 -60 52h-276v136zM396 208h-139q-15 0 -26 -11t-11 -29q0 -15 9.5 -26.5t25.5 -11.5h101q22 0 31 9t9 31v38zM314 663q65 0 87 71h139
q-27 -94 -78 -134t-148 -40q-98 0 -152.5 41t-73.5 133h139q22 -71 87 -71z" />
    <glyph glyph-name="uni04D2" unicode="&#x4d2;" horiz-adv-x="798" 
d="M-20 0l259 623q19 44 52 64.5t108 20.5q61 0 99.5 -16t60.5 -69l259 -623h-238l-55 144h-252l-55 -144h-238zM388 491l-68 -193h158l-68 193q-6 15 -11 15t-11 -15zM624 766h-182v129h182v-129zM357 766h-183v129h183v-129z" />
    <glyph glyph-name="uni04D3" unicode="&#x4d3;" horiz-adv-x="630" 
d="M60 530h352q82 0 131 -49t49 -131v-240q0 -52 -29 -81t-81 -29h-328q-72 0 -101 41t-29 127q0 80 29.5 122t100.5 42h242v10q0 52 -60 52h-276v136zM396 208h-139q-15 0 -26 -11t-11 -29q0 -15 9.5 -26.5t25.5 -11.5h101q22 0 31 9t9 31v38zM358 590v128h173v-128h-173z
M270 590h-173v128h173v-128z" />
    <glyph glyph-name="uni04D4" unicode="&#x4d4;" horiz-adv-x="1174" 
d="M1139 700v-170h-346q-44 0 -44 -44v-52h382v-154h-382v-66q0 -44 44 -44h351v-170h-511q-53 0 -81.5 29t-28.5 81v31h-217l-80 -141h-256l393 632q26 42 62.5 55t94.5 13h619zM511 502l-113 -199h125v198q0 14 -3 14t-9 -13z" />
    <glyph glyph-name="uni04D5" unicode="&#x4d5;" horiz-adv-x="977" 
d="M940 0h-345q-67 0 -103 24q-20 -24 -56 -24h-288q-72 0 -101 41t-29 127q0 80 29.5 122t100.5 42h242v10q0 52 -60 52h-276v136h332q61 0 106 -32q52 38 183 38q56 0 91 -2t71 -9.5t55.5 -21.5t36.5 -38t23.5 -59.5t6.5 -85.5q0 -52 -18 -82t-66 -30h-289q0 -38 22.5 -55
t74.5 -17h257v-136zM390 208h-139q-16 0 -26.5 -10t-10.5 -27q0 -15 9.5 -28t25.5 -13h101q40 0 40 46v32zM586 332h145q15 0 22.5 6t8.5 11t1 13q0 38 -88 38q-23 0 -35.5 -1.5t-27 -7.5t-20.5 -20.5t-6 -38.5z" />
    <glyph glyph-name="uni04D6" unicode="&#x4d6;" horiz-adv-x="710" 
d="M666 700v-170h-346q-44 0 -44 -44v-52h382v-154h-382v-66q0 -44 44 -44h350v-170h-510q-52 0 -81 29t-29 81v480q0 52 29 81t81 29h506zM370 849q68 0 87 61h160q-27 -93 -84.5 -133.5t-162.5 -40.5q-107 0 -167.5 41.5t-79.5 132.5h160q19 -61 87 -61z" />
    <glyph glyph-name="uni04D7" unicode="&#x4d7;" horiz-adv-x="617" 
d="M574 0h-345q-88 0 -130 22t-58.5 77t-16.5 169q0 63 4 103.5t17 72.5t31 48.5t53 27t75 13.5t105 3q56 0 91 -2t71 -9.5t55.5 -21.5t36.5 -38t23.5 -59.5t6.5 -85.5q0 -118 -84 -118h-289q0 -37 22 -51.5t75 -14.5h257v-136zM220 326h145q32 0 32 33q0 41 -88 41
q-44 0 -66.5 -14.5t-22.5 -59.5zM308 663q65 0 87 71h139q-27 -94 -78 -134t-148 -40q-98 0 -152.5 41t-73.5 133h139q22 -71 87 -71z" />
    <glyph glyph-name="uni04D8" unicode="&#x4d8;" horiz-adv-x="758" 
d="M422 0h-86q-166 0 -236 45.5t-70 174.5q0 67 17.5 109.5t57.5 66t93.5 32t137.5 8.5h153q-5 53 -48 71.5t-135 18.5h-240v174h356q169 0 237.5 -82.5t68.5 -267.5t-68.5 -267.5t-237.5 -82.5zM262 226q0 -52 82 -52h40q55 0 80 22t28 82h-148q-46 0 -64 -11t-18 -41z" />
    <glyph glyph-name="uni04D9" unicode="&#x4d9;" horiz-adv-x="617" 
d="M43 530h345q88 0 130 -22t58.5 -77t16.5 -169q0 -63 -4 -103.5t-17 -72.5t-31 -48.5t-53 -27t-75 -13.5t-105 -3q-56 0 -91 2t-71 9.5t-55.5 21.5t-36.5 38t-23.5 59.5t-6.5 85.5q0 118 84 118h289q0 37 -22 51.5t-75 14.5h-257v136zM397 204h-145q-32 0 -32 -33
q0 -41 88 -41q44 0 66.5 14.5t22.5 59.5z" />
    <glyph glyph-name="uni04DA" unicode="&#x4da;" horiz-adv-x="758" 
d="M422 0h-86q-166 0 -236 45.5t-70 174.5q0 67 17.5 109.5t57.5 66t93.5 32t137.5 8.5h153q-5 53 -48 71.5t-135 18.5h-240v174h356q169 0 237.5 -82.5t68.5 -267.5t-68.5 -267.5t-237.5 -82.5zM262 226q0 -52 82 -52h40q55 0 80 22t28 82h-148q-46 0 -64 -11t-18 -41z
M600 766h-182v129h182v-129zM333 766h-183v129h183v-129z" />
    <glyph glyph-name="uni04DB" unicode="&#x4db;" horiz-adv-x="617" 
d="M43 530h345q88 0 130 -22t58.5 -77t16.5 -169q0 -63 -4 -103.5t-17 -72.5t-31 -48.5t-53 -27t-75 -13.5t-105 -3q-56 0 -91 2t-71 9.5t-55.5 21.5t-36.5 38t-23.5 59.5t-6.5 85.5q0 118 84 118h289q0 37 -22 51.5t-75 14.5h-257v136zM397 204h-145q-32 0 -32 -33
q0 -41 88 -41q44 0 66.5 14.5t22.5 59.5zM351 590v128h173v-128h-173zM263 590h-173v128h173v-128z" />
    <glyph glyph-name="uni04DC" unicode="&#x4dc;" horiz-adv-x="1200" 
d="M-20 0l229 296q34 45 34 64q0 14 -27 52l-200 288h260l157 -260q32 -53 32 -79q0 -46 -32 -95l-179 -266h-274zM1220 0h-274l-179 266q-32 49 -32 95q0 27 32 79l161 260h260l-204 -288q-27 -38 -27 -52q0 -19 34 -64zM487 0v700h226v-700h-226zM825 766h-182v129h182
v-129zM558 766h-183v129h183v-129z" />
    <glyph glyph-name="uni04DD" unicode="&#x4dd;" horiz-adv-x="950" 
d="M568 0h-186v530h186v-530zM964 0h-217l-132 211q-25 42 -25 58q0 19 30 72l105 189h215l-127 -207q-4 -6 -10 -16t-8.5 -14t-4.5 -9.5t-2 -9.5q0 -15 25 -51zM-14 0l151 223q25 36 25 51q0 4 -2 9.5t-4.5 9.5t-8.5 14t-10 16l-127 207h215l105 -189q30 -53 30 -72
q0 -16 -25 -58l-132 -211h-217zM519 590v128h173v-128h-173zM431 590h-173v128h173v-128z" />
    <glyph glyph-name="uni04DE" unicode="&#x4de;" horiz-adv-x="698" 
d="M547 356q71 -13 96 -50.5t25 -109.5q0 -103 -41 -149.5t-149 -46.5h-448v174h341q69 0 69 53q0 52 -69 52h-327v152h320q32 0 46.5 10t14.5 38t-14.5 37.5t-47.5 9.5h-329v174h421q105 0 149.5 -45.5t44.5 -150.5q0 -125 -102 -144v-4zM564 766h-182v129h182v-129z
M297 766h-183v129h183v-129z" />
    <glyph glyph-name="uni04DF" unicode="&#x4df;" horiz-adv-x="579" 
d="M445 274v-4q110 -11 110 -122q0 -89 -45.5 -118.5t-133.5 -29.5h-352v142h276q20 0 29.5 1t18.5 9t9 24q0 23 -14 28.5t-43 5.5h-262v122h263q20 0 29 1t18 8.5t9 22.5t-9 22.5t-18 8.5t-29 1h-269v134h340q36 0 58 -1.5t47.5 -9t40 -22t24 -40.5t9.5 -64
q0 -59 -24.5 -85t-81.5 -34zM333 590v128h173v-128h-173zM245 590h-173v128h173v-128z" />
    <glyph glyph-name="uni04E2" unicode="&#x4e2;" horiz-adv-x="862" 
d="M812 0h-230l10 411q0 26 -10 26q-6 0 -26 -34l-199 -340q-41 -71 -151 -71q-49 0 -82 13.5t-48 39.5t-20.5 52.5t-5.5 62.5v540h230l-10 -401q0 -35 12 -35q6 0 20 25l193 337q47 82 151 82q46 0 78.5 -13t49 -30.5t26 -44.5t11 -44.5t1.5 -40.5v-535zM571 770h-289v110
h289v-110z" />
    <glyph glyph-name="uni04E3" unicode="&#x4e3;" horiz-adv-x="687" 
d="M649 0h-196l10 275q0 16 -8 16q-4 0 -18 -16l-188 -235q-23 -29 -43.5 -37.5t-55.5 -8.5q-112 0 -112 100v436h196l-10 -275q0 -15 9 -15q6 0 18 15l192 241q13 15 18.5 20t25.5 12.5t48 7.5q39 0 64.5 -12t35 -32t12 -33t2.5 -29v-430zM498 596h-289v110h289v-110z" />
    <glyph glyph-name="uni04E4" unicode="&#x4e4;" horiz-adv-x="862" 
d="M812 0h-230l10 411q0 26 -10 26q-6 0 -26 -34l-199 -340q-41 -71 -151 -71q-49 0 -82 13.5t-48 39.5t-20.5 52.5t-5.5 62.5v540h230l-10 -401q0 -35 12 -35q6 0 20 25l193 337q47 82 151 82q46 0 78.5 -13t49 -30.5t26 -44.5t11 -44.5t1.5 -40.5v-535zM656 766h-182v129
h182v-129zM389 766h-183v129h183v-129z" />
    <glyph glyph-name="uni04E5" unicode="&#x4e5;" horiz-adv-x="687" 
d="M649 0h-196l10 275q0 16 -8 16q-4 0 -18 -16l-188 -235q-23 -29 -43.5 -37.5t-55.5 -8.5q-112 0 -112 100v436h196l-10 -275q0 -15 9 -15q6 0 18 15l192 241q13 15 18.5 20t25.5 12.5t48 7.5q39 0 64.5 -12t35 -32t12 -33t2.5 -29v-430zM387 590v128h173v-128h-173z
M299 590h-173v128h173v-128z" />
    <glyph glyph-name="uni04E6" unicode="&#x4e6;" horiz-adv-x="830" 
d="M415 708q115 0 183.5 -13.5t116.5 -53t66.5 -108.5t18.5 -183t-18.5 -183t-66.5 -108.5t-116.5 -53t-183.5 -13.5t-183.5 13.5t-116.5 53t-66.5 108.5t-18.5 183t18.5 183t66.5 108.5t116.5 53t183.5 13.5zM262 350q0 -100 32.5 -142t120.5 -42t120.5 42t32.5 142
t-32.5 142t-120.5 42t-120.5 -42t-32.5 -142zM640 766h-182v129h182v-129zM373 766h-183v129h183v-129z" />
    <glyph glyph-name="uni04E7" unicode="&#x4e7;" horiz-adv-x="660" 
d="M330 536q86 0 141 -11.5t94 -41.5t55 -82.5t16 -135.5t-16 -135.5t-55 -82.5t-94 -41.5t-141 -11.5t-141 11.5t-94 41.5t-55 82.5t-16 135.5t16 135.5t55 82.5t94 41.5t141 11.5zM224 265q0 -67 21.5 -99t84.5 -32t84.5 32t21.5 99t-21.5 99t-84.5 32t-84.5 -32
t-21.5 -99zM374 590v128h173v-128h-173zM286 590h-173v128h173v-128z" />
    <glyph glyph-name="uni04EE" unicode="&#x4ee;" horiz-adv-x="751" 
d="M394 0h-246l112 199l-280 501h252l146 -298l147 298h246zM520 770h-289v110h289v-110z" />
    <glyph glyph-name="uni04EF" unicode="&#x4ef;" horiz-adv-x="641" 
d="M661 530l-316 -701h-196l83 171l-252 530h200l139 -336l146 336h196zM465 596h-289v110h289v-110z" />
    <glyph glyph-name="uni04F0" unicode="&#x4f0;" horiz-adv-x="751" 
d="M394 0h-246l112 199l-280 501h252l146 -298l147 298h246zM600 766h-182v129h182v-129zM333 766h-183v129h183v-129z" />
    <glyph glyph-name="uni04F1" unicode="&#x4f1;" horiz-adv-x="641" 
d="M661 530l-316 -701h-196l83 171l-252 530h200l139 -336l146 336h196zM364 590v128h173v-128h-173zM276 590h-173v128h173v-128z" />
    <glyph glyph-name="uni04F2" unicode="&#x4f2;" horiz-adv-x="751" 
d="M394 0h-246l112 199l-280 501h252l146 -298l147 298h246zM293 1057l97 -85l-162 -189l-96 84zM552 1057l97 -85l-162 -189l-96 84z" />
    <glyph glyph-name="uni04F3" unicode="&#x4f3;" horiz-adv-x="641" 
d="M661 530l-316 -701h-196l83 171l-252 530h200l139 -336l146 336h196zM238 851l97 -85l-162 -189l-96 84zM497 851l97 -85l-162 -189l-96 84z" />
    <glyph glyph-name="uni04F4" unicode="&#x4f4;" horiz-adv-x="794" 
d="M744 0h-226v277h-298q-180 0 -180 180v243h226v-179q0 -45 12.5 -57.5t57.5 -12.5h182v249h226v-700zM622 766h-182v129h182v-129zM355 766h-183v129h183v-129z" />
    <glyph glyph-name="uni04F5" unicode="&#x4f5;" horiz-adv-x="624" 
d="M586 0h-191v189h-229q-66 0 -103 40.5t-37 109.5v191h191v-110q0 -47 13.5 -63.5t56.5 -16.5h108v190h191v-530zM352 590v128h173v-128h-173zM264 590h-173v128h173v-128z" />
    <glyph glyph-name="uni04F8" unicode="&#x4f8;" horiz-adv-x="1087" 
d="M1037 0h-226v700h226v-700zM50 700h226v-242h271q115 0 157.5 -55t42.5 -175q0 -119 -42.5 -173.5t-157.5 -54.5h-387q-52 0 -81 29t-29 81v590zM425 284h-149v-66q0 -44 44 -44h105q50 0 70 9.5t20 44.5t-20 45.5t-70 10.5zM768 766h-182v129h182v-129zM501 766h-183
v129h183v-129z" />
    <glyph glyph-name="uni04F9" unicode="&#x4f9;" horiz-adv-x="890" 
d="M656 0v530h196v-530h-196zM466 0h-323q-47 0 -76 28t-29 77v425h196v-168h232q84 0 113 -44.5t29 -136.5t-29 -136.5t-113 -44.5zM234 222v-42q0 -22 9 -31t31 -9h82q30 0 41 9t11 32t-11 32t-41 9h-122zM487 590v128h173v-128h-173zM399 590h-173v128h173v-128z" />
    <glyph glyph-name="uni2010" unicode="&#x2010;" horiz-adv-x="487" 
d="M30 189v158h427v-158h-427z" />
    <glyph glyph-name="uni2011" unicode="&#x2011;" horiz-adv-x="487" 
d="M30 189v158h427v-158h-427z" />
    <glyph glyph-name="figuredash" unicode="&#x2012;" horiz-adv-x="552" 
d="M30 275v158h492v-158h-492z" />
    <glyph glyph-name="endash" unicode="&#x2013;" horiz-adv-x="552" 
d="M30 189v158h492v-158h-492z" />
    <glyph glyph-name="emdash" unicode="&#x2014;" horiz-adv-x="987" 
d="M30 189v158h927v-158h-927z" />
    <glyph glyph-name="afii00208" unicode="&#x2015;" horiz-adv-x="987" 
d="M30 189v158h927v-158h-927z" />
    <glyph glyph-name="quoteleft" unicode="&#x2018;" horiz-adv-x="359" 
d="M160 781l169 -246l-146 -87l-153 256z" />
    <glyph glyph-name="quoteright" unicode="&#x2019;" horiz-adv-x="359" 
d="M329 694l-169 -246l-130 77l153 256z" />
    <glyph glyph-name="quotesinglbase" unicode="&#x201a;" horiz-adv-x="349" 
d="M140 -148l-130 77l153 256l146 -87z" />
    <glyph glyph-name="quotedblleft" unicode="&#x201c;" horiz-adv-x="628" 
d="M30 702l130 77l169 -246l-146 -87zM299 702l130 77l169 -246l-146 -87z" />
    <glyph glyph-name="quotedblright" unicode="&#x201d;" horiz-adv-x="628" 
d="M30 523l153 256l146 -87l-169 -246zM299 523l153 256l146 -87l-169 -246z" />
    <glyph glyph-name="quotedblbase" unicode="&#x201e;" horiz-adv-x="618" 
d="M10 -71l153 256l146 -87l-169 -246zM279 -71l153 256l146 -87l-169 -246z" />
    <glyph glyph-name="dagger" unicode="&#x2020;" horiz-adv-x="507" 
d="M352 -170h-196v544h-126v140h126v186h196v-186h125v-140h-125v-544z" />
    <glyph glyph-name="daggerdbl" unicode="&#x2021;" horiz-adv-x="507" 
d="M156 -170v190h-126v140h126v214h-126v140h126v186h197v-186h124v-140h-124v-214h124v-140h-124v-190h-197z" />
    <glyph glyph-name="bullet" unicode="&#x2022;" horiz-adv-x="440" 
d="M50 350q0 70 50 120t120 50t120 -50t50 -120t-50 -120t-120 -50t-120 50t-50 120z" />
    <glyph glyph-name="ellipsis" unicode="&#x2026;" horiz-adv-x="894" 
d="M248 0h-198v180h198v-180zM546 0h-198v180h198v-180zM844 0h-198v180h198v-180z" />
    <glyph glyph-name="perthousand" unicode="&#x2030;" horiz-adv-x="1212" 
d="M155 0l406 700h114l-406 -700h-114zM201 706q96 0 133 -38t37 -132t-37 -131.5t-133 -37.5q-97 0 -134 37.5t-37 131.5t37.5 132t133.5 38zM140 536q0 -41 14 -58t47 -17t46.5 17t13.5 58t-13.5 58.5t-46.5 17.5t-47 -17.5t-14 -58.5zM628 333q96 0 133 -38t37 -132
t-37 -131.5t-133 -37.5q-97 0 -134 37.5t-37 131.5t37.5 132t133.5 38zM567 163q0 -41 14 -58t47 -17t46.5 17t13.5 58t-13.5 58.5t-46.5 17.5t-47 -17.5t-14 -58.5zM1012 333q96 0 133 -38t37 -132t-37 -131.5t-133 -37.5q-97 0 -134 37.5t-37 131.5t37.5 132t133.5 38z
M951 163q0 -41 14 -58t47 -17t46.5 17t13.5 58t-13.5 58.5t-46.5 17.5t-47 -17.5t-14 -58.5z" />
    <glyph glyph-name="guilsinglleft" unicode="&#x2039;" horiz-adv-x="395" 
d="M345 452l-97 -139q-11 -14 -11 -32t11 -32l97 -139l-124 -96l-145 189q-26 31 -26 78t26 78l145 189z" />
    <glyph glyph-name="guilsinglright" unicode="&#x203a;" horiz-adv-x="395" 
d="M50 452l124 96l145 -189q26 -31 26 -78t-26 -78l-145 -189l-124 96l97 139q11 14 11 32t-11 32z" />
    <glyph glyph-name="fraction" unicode="&#x2044;" horiz-adv-x="518" 
d="M90 -170h-100l438 910h100z" />
    <glyph glyph-name="Euro" unicode="&#x20ac;" horiz-adv-x="732" 
d="M712 0h-306q-141 0 -210 53t-88 174h-78v98h70q-1 7 -1 25q0 20 1 27h-70v98h78q20 120 89 172.5t209 52.5h296v-164h-180q-81 0 -119.5 -12.5t-54.5 -48.5h297v-98h-313q-1 -7 -1 -27q0 -18 1 -25h259v-98h-244q16 -38 54.5 -50.5t120.5 -12.5h190v-164z" />
    <glyph glyph-name="uni20B4" unicode="&#x20b4;" horiz-adv-x="670" 
d="M10 483h321q33 31 33 45q0 12 -9 15t-29 3h-252v154h368q76 0 115 -19t39 -75t-47 -123h111v-108h-650v108zM10 326h650v-108h-345q-27 -32 -27 -46q0 -10 6 -14t27 -4h275v-154h-372q-79 0 -114.5 24t-35.5 89q0 46 36 105h-100v108z" />
    <glyph glyph-name="uni20B6" unicode="&#x20b6;" 
d="M-20 87v124h80v71h-80v144h80v164q0 52 29 81t81 29h357q114 0 157 -53t43 -165q0 -104 -43 -152t-157 -48h-241v-71h209v-124h-209v-87h-226v87h-80zM286 426h119q90 0 90 56q0 29 -22 41.5t-68 12.5h-75q-44 0 -44 -44v-66z" />
    <glyph glyph-name="uni20B7" unicode="&#x20b7;" 
d="M-20 87v124h80v71h-80v144h80v164q0 52 29 81t81 29h357q114 0 157 -53t43 -165q0 -104 -43 -152t-157 -48h-241v-71h209v-124h-209v-87h-226v87h-80zM286 426h119q90 0 90 56q0 29 -22 41.5t-68 12.5h-75q-44 0 -44 -44v-66z" />
    <glyph glyph-name="uni20B8" unicode="&#x20b8;" 
d="M-20 87v124h80v71h-80v144h80v164q0 52 29 81t81 29h357q114 0 157 -53t43 -165q0 -104 -43 -152t-157 -48h-241v-71h209v-124h-209v-87h-226v87h-80zM286 426h119q90 0 90 56q0 29 -22 41.5t-68 12.5h-75q-44 0 -44 -44v-66z" />
    <glyph glyph-name="uni20B9" unicode="&#x20b9;" 
d="M-20 87v124h80v71h-80v144h80v164q0 52 29 81t81 29h357q114 0 157 -53t43 -165q0 -104 -43 -152t-157 -48h-241v-71h209v-124h-209v-87h-226v87h-80zM286 426h119q90 0 90 56q0 29 -22 41.5t-68 12.5h-75q-44 0 -44 -44v-66z" />
    <glyph glyph-name="uni20BA" unicode="&#x20ba;" 
d="M-20 87v124h80v71h-80v144h80v164q0 52 29 81t81 29h357q114 0 157 -53t43 -165q0 -104 -43 -152t-157 -48h-241v-71h209v-124h-209v-87h-226v87h-80zM286 426h119q90 0 90 56q0 29 -22 41.5t-68 12.5h-75q-44 0 -44 -44v-66z" />
    <glyph glyph-name="uni20BB" unicode="&#x20bb;" 
d="M-20 87v124h80v71h-80v144h80v164q0 52 29 81t81 29h357q114 0 157 -53t43 -165q0 -104 -43 -152t-157 -48h-241v-71h209v-124h-209v-87h-226v87h-80zM286 426h119q90 0 90 56q0 29 -22 41.5t-68 12.5h-75q-44 0 -44 -44v-66z" />
    <glyph glyph-name="uni20BC" unicode="&#x20bc;" 
d="M-20 87v124h80v71h-80v144h80v164q0 52 29 81t81 29h357q114 0 157 -53t43 -165q0 -104 -43 -152t-157 -48h-241v-71h209v-124h-209v-87h-226v87h-80zM286 426h119q90 0 90 56q0 29 -22 41.5t-68 12.5h-75q-44 0 -44 -44v-66z" />
    <glyph glyph-name="uni20BD" unicode="&#x20bd;" 
d="M-20 87v124h80v71h-80v144h80v164q0 52 29 81t81 29h357q114 0 157 -53t43 -165q0 -104 -43 -152t-157 -48h-241v-71h209v-124h-209v-87h-226v87h-80zM286 426h119q90 0 90 56q0 29 -22 41.5t-68 12.5h-75q-44 0 -44 -44v-66z" />
    <glyph glyph-name="uni20BE" unicode="&#x20be;" 
d="M-20 87v124h80v71h-80v144h80v164q0 52 29 81t81 29h357q114 0 157 -53t43 -165q0 -104 -43 -152t-157 -48h-241v-71h209v-124h-209v-87h-226v87h-80zM286 426h119q90 0 90 56q0 29 -22 41.5t-68 12.5h-75q-44 0 -44 -44v-66z" />
    <glyph glyph-name="uni20BF" unicode="&#x20bf;" 
d="M-20 87v124h80v71h-80v144h80v164q0 52 29 81t81 29h357q114 0 157 -53t43 -165q0 -104 -43 -152t-157 -48h-241v-71h209v-124h-209v-87h-226v87h-80zM286 426h119q90 0 90 56q0 29 -22 41.5t-68 12.5h-75q-44 0 -44 -44v-66z" />
    <glyph glyph-name="uni20C0" unicode="&#x20c0;" 
d="M-20 87v124h80v71h-80v144h80v164q0 52 29 81t81 29h357q114 0 157 -53t43 -165q0 -104 -43 -152t-157 -48h-241v-71h209v-124h-209v-87h-226v87h-80zM286 426h119q90 0 90 56q0 29 -22 41.5t-68 12.5h-75q-44 0 -44 -44v-66z" />
    <glyph glyph-name="uni20C1" unicode="&#x20c1;" 
d="M-20 87v124h80v71h-80v144h80v164q0 52 29 81t81 29h357q114 0 157 -53t43 -165q0 -104 -43 -152t-157 -48h-241v-71h209v-124h-209v-87h-226v87h-80zM286 426h119q90 0 90 56q0 29 -22 41.5t-68 12.5h-75q-44 0 -44 -44v-66z" />
    <glyph glyph-name="uni20C2" unicode="&#x20c2;" 
d="M-20 87v124h80v71h-80v144h80v164q0 52 29 81t81 29h357q114 0 157 -53t43 -165q0 -104 -43 -152t-157 -48h-241v-71h209v-124h-209v-87h-226v87h-80zM286 426h119q90 0 90 56q0 29 -22 41.5t-68 12.5h-75q-44 0 -44 -44v-66z" />
    <glyph glyph-name="uni20C3" unicode="&#x20c3;" 
d="M-20 87v124h80v71h-80v144h80v164q0 52 29 81t81 29h357q114 0 157 -53t43 -165q0 -104 -43 -152t-157 -48h-241v-71h209v-124h-209v-87h-226v87h-80zM286 426h119q90 0 90 56q0 29 -22 41.5t-68 12.5h-75q-44 0 -44 -44v-66z" />
    <glyph glyph-name="uni20C4" unicode="&#x20c4;" 
d="M-20 87v124h80v71h-80v144h80v164q0 52 29 81t81 29h357q114 0 157 -53t43 -165q0 -104 -43 -152t-157 -48h-241v-71h209v-124h-209v-87h-226v87h-80zM286 426h119q90 0 90 56q0 29 -22 41.5t-68 12.5h-75q-44 0 -44 -44v-66z" />
    <glyph glyph-name="uni20C5" unicode="&#x20c5;" 
d="M-20 87v124h80v71h-80v144h80v164q0 52 29 81t81 29h357q114 0 157 -53t43 -165q0 -104 -43 -152t-157 -48h-241v-71h209v-124h-209v-87h-226v87h-80zM286 426h119q90 0 90 56q0 29 -22 41.5t-68 12.5h-75q-44 0 -44 -44v-66z" />
    <glyph glyph-name="uni20C6" unicode="&#x20c6;" 
d="M-20 87v124h80v71h-80v144h80v164q0 52 29 81t81 29h357q114 0 157 -53t43 -165q0 -104 -43 -152t-157 -48h-241v-71h209v-124h-209v-87h-226v87h-80zM286 426h119q90 0 90 56q0 29 -22 41.5t-68 12.5h-75q-44 0 -44 -44v-66z" />
    <glyph glyph-name="uni20C7" unicode="&#x20c7;" 
d="M-20 87v124h80v71h-80v144h80v164q0 52 29 81t81 29h357q114 0 157 -53t43 -165q0 -104 -43 -152t-157 -48h-241v-71h209v-124h-209v-87h-226v87h-80zM286 426h119q90 0 90 56q0 29 -22 41.5t-68 12.5h-75q-44 0 -44 -44v-66z" />
    <glyph glyph-name="uni20C8" unicode="&#x20c8;" 
d="M-20 87v124h80v71h-80v144h80v164q0 52 29 81t81 29h357q114 0 157 -53t43 -165q0 -104 -43 -152t-157 -48h-241v-71h209v-124h-209v-87h-226v87h-80zM286 426h119q90 0 90 56q0 29 -22 41.5t-68 12.5h-75q-44 0 -44 -44v-66z" />
    <glyph glyph-name="uni20C9" unicode="&#x20c9;" 
d="M-20 87v124h80v71h-80v144h80v164q0 52 29 81t81 29h357q114 0 157 -53t43 -165q0 -104 -43 -152t-157 -48h-241v-71h209v-124h-209v-87h-226v87h-80zM286 426h119q90 0 90 56q0 29 -22 41.5t-68 12.5h-75q-44 0 -44 -44v-66z" />
    <glyph glyph-name="uni20CA" unicode="&#x20ca;" 
d="M-20 87v124h80v71h-80v144h80v164q0 52 29 81t81 29h357q114 0 157 -53t43 -165q0 -104 -43 -152t-157 -48h-241v-71h209v-124h-209v-87h-226v87h-80zM286 426h119q90 0 90 56q0 29 -22 41.5t-68 12.5h-75q-44 0 -44 -44v-66z" />
    <glyph glyph-name="uni20CB" unicode="&#x20cb;" 
d="M-20 87v124h80v71h-80v144h80v164q0 52 29 81t81 29h357q114 0 157 -53t43 -165q0 -104 -43 -152t-157 -48h-241v-71h209v-124h-209v-87h-226v87h-80zM286 426h119q90 0 90 56q0 29 -22 41.5t-68 12.5h-75q-44 0 -44 -44v-66z" />
    <glyph glyph-name="uni20CC" unicode="&#x20cc;" 
d="M-20 87v124h80v71h-80v144h80v164q0 52 29 81t81 29h357q114 0 157 -53t43 -165q0 -104 -43 -152t-157 -48h-241v-71h209v-124h-209v-87h-226v87h-80zM286 426h119q90 0 90 56q0 29 -22 41.5t-68 12.5h-75q-44 0 -44 -44v-66z" />
    <glyph glyph-name="uni20CD" unicode="&#x20cd;" 
d="M-20 87v124h80v71h-80v144h80v164q0 52 29 81t81 29h357q114 0 157 -53t43 -165q0 -104 -43 -152t-157 -48h-241v-71h209v-124h-209v-87h-226v87h-80zM286 426h119q90 0 90 56q0 29 -22 41.5t-68 12.5h-75q-44 0 -44 -44v-66z" />
    <glyph glyph-name="uni20CE" unicode="&#x20ce;" 
d="M-20 87v124h80v71h-80v144h80v164q0 52 29 81t81 29h357q114 0 157 -53t43 -165q0 -104 -43 -152t-157 -48h-241v-71h209v-124h-209v-87h-226v87h-80zM286 426h119q90 0 90 56q0 29 -22 41.5t-68 12.5h-75q-44 0 -44 -44v-66z" />
    <glyph glyph-name="uni20CF" unicode="&#x20cf;" 
d="M-20 87v124h80v71h-80v144h80v164q0 52 29 81t81 29h357q114 0 157 -53t43 -165q0 -104 -43 -152t-157 -48h-241v-71h209v-124h-209v-87h-226v87h-80zM286 426h119q90 0 90 56q0 29 -22 41.5t-68 12.5h-75q-44 0 -44 -44v-66z" />
    <glyph glyph-name="afii61352" unicode="&#x2116;" horiz-adv-x="1250" 
d="M776 700v-583q0 -63 -40 -94t-104 -31q-46 0 -82 13.5t-63 55.5l-231 357q-10 17 -18 17q-14 0 -14 -20v-415h-174v584q0 64 42.5 94t106.5 30q98 0 141 -65l233 -360q12 -17 18 -17q11 0 11 17v417h174zM1020 708q99 0 139.5 -38.5t40.5 -137.5t-40.5 -137t-139.5 -38
t-140 38t-41 137t41 137.5t140 38.5zM959 532q0 -41 14 -58t47 -17t46.5 17t13.5 58t-13.5 58.5t-46.5 17.5t-47 -17.5t-14 -58.5zM867 200v100h305v-100h-305z" />
    <glyph glyph-name="trademark" unicode="&#x2122;" horiz-adv-x="1098" 
d="M309 296h-139v298h-140v107h419v-107h-140v-298zM900 554l-57 -215q-22 -47 -80 -47q-57 0 -79 47l-56 215l-2 4q-1 3 -3.5 5.5t-5.5 2.5q-8 0 -8 -11v-259h-129v349q0 26 28.5 43.5t82.5 17.5q51 0 78 -12t34 -42l50 -213q5 -13 10 -13t10 13l50 213q13 54 113 54
q112 0 112 -61v-349h-129v259q0 11 -8 11q-3 0 -5.5 -2.5t-3.5 -5.5z" />
    <glyph glyph-name="Omega" unicode="&#x2126;" horiz-adv-x="860" 
d="M234 142v7q-94 21 -144 82t-50 180q0 161 90.5 229t299.5 68t299.5 -68t90.5 -229q0 -119 -50 -180t-144 -82v-7h170v-142h-194q-112 0 -112 114v60q0 36 7.5 51.5t34.5 36.5q27 20 41.5 50t14.5 88q0 72 -38.5 103t-119.5 31t-119.5 -31t-38.5 -103q0 -58 14.5 -88
t41.5 -50q27 -21 34.5 -36.5t7.5 -51.5v-60q0 -114 -112 -114h-194v142h170z" />
    <glyph glyph-name="partialdiff" unicode="&#x2202;" horiz-adv-x="612" 
d="M218 528h168q-6 31 -27.5 42.5t-62.5 11.5h-241v128h297q120 0 175 -55t55 -175v-370q0 -52 -29 -81t-81 -29h-254q-53 0 -90 13.5t-58 35t-33 57.5t-15.5 71t-3.5 86q0 64 6.5 106t26 81.5t61 58.5t106.5 19zM386 386h-56q-63 0 -87.5 -26t-24.5 -92q0 -62 20 -95
t80 -33h22q20 0 33 10.5t13 31.5v204z" />
    <glyph glyph-name="Delta" unicode="&#x2206;" horiz-adv-x="714" 
d="M19 203l177 426q9 22 21.5 36.5t48.5 28.5t91 14q79 0 113 -22.5t48 -56.5l177 -426q2 -5 9.5 -22t10.5 -25t6 -25t3 -36q0 -95 -92 -95h-550q-92 0 -92 95q0 19 3 36t6 25t10.5 25t9.5 22zM346 478l-100 -272q-5 -15 -5 -17q0 -15 24 -15h184q24 0 24 15q0 2 -5 17
l-100 272q-1 1 -2.5 7t-3.5 8.5t-5 2.5t-5 -2.5t-3.5 -8.5t-2.5 -7z" />
    <glyph glyph-name="product" unicode="&#x220f;" horiz-adv-x="800" 
d="M276 0h-226v590q0 52 29 81t81 29h480q52 0 81 -29t29 -81v-590h-226v482q0 44 -44 44h-160q-44 0 -44 -44v-482z" />
    <glyph glyph-name="summation" unicode="&#x2211;" horiz-adv-x="721" 
d="M284 518l143 -65q22 -10 34.5 -18.5t22.5 -28.5t10 -50q0 -28 -11 -47.5t-21.5 -27t-34.5 -20.5l-143 -76q-2 -1 -5.5 -3t-4.5 -3t-3 -2t-3 -2t-1.5 -2.5t-0.5 -2.5q0 -6 16 -6h389v-164h-533q-88 0 -88 128q0 51 14 77.5t68 56.5l145 79q1 0 7 3t10 6t4 6q0 6 -21 15
l-145 67q-44 20 -63 47.5t-19 88.5q0 74 24 100t64 26h530v-164h-386q-15 0 -15 -7q0 -3 2 -5t8 -4t7 -2z" />
    <glyph glyph-name="minus" unicode="&#x2212;" horiz-adv-x="708" 
d="M658 259h-608v130h608v-130z" />
    <glyph glyph-name="uni2215" unicode="&#x2215;" horiz-adv-x="518" 
d="M90 -170h-100l438 910h100z" />
    <glyph glyph-name="uni2219" unicode="&#x2219;" horiz-adv-x="298" 
d="M248 250h-198v180h198v-180z" />
    <glyph glyph-name="radical" unicode="&#x221a;" horiz-adv-x="728" 
d="M411 827h317v-140h-188l-166 -687h-220l-53 244h-101v140h224l21 -91q10 -43 10 -71l5 -61v-12h11q14 155 49 297z" />
    <glyph glyph-name="infinity" unicode="&#x221e;" horiz-adv-x="896" 
d="M452 243q-41 -54 -98 -81t-112 -27q-93 0 -152.5 59.5t-59.5 153.5q0 93 59 153t150 60q121 0 207 -108q85 108 207 108q95 0 154 -59.5t59 -152.5t-59.5 -153.5t-151.5 -60.5q-53 0 -108.5 26t-94.5 82zM627 417q-34 0 -61 -24t-39 -45q19 -28 46.5 -49t53.5 -21
q30 0 51.5 20.5t21.5 50.5q0 28 -19.5 48t-53.5 20zM269 278q26 0 53.5 20.5t46.5 49.5q-10 21 -37.5 45t-62.5 24q-38 0 -55.5 -21.5t-17.5 -47.5q0 -31 24.5 -50.5t48.5 -19.5z" />
    <glyph glyph-name="integral" unicode="&#x222b;" horiz-adv-x="500" 
d="M348 569v-561q0 -26 -5 -48t-16.5 -39t-24 -30t-33 -22.5t-37 -16.5t-43 -11t-44.5 -6.5t-48 -3.5t-46.5 -1h-46.5v122q31 0 45 0.5t35.5 2t30.5 4.5t19.5 9.5t14 16t3.5 23.5v561q0 26 5 48t16.5 39t24 30t33 22.5t37 16.5t43 11t44.5 6.5t48 3.5t46.5 1h46.5v-122
q-43 0 -62.5 -1t-43.5 -6t-33 -17t-9 -32z" />
    <glyph glyph-name="approxequal" unicode="&#x2248;" horiz-adv-x="539" 
d="M108 342l-68 66q66 95 153 95q27 0 52 -11l44 -21q39 -20 65 -20q40 0 77 59l68 -62q-34 -48 -70 -76t-85 -28q-36 0 -66 14l-42 21q-26 14 -51 14q-22 0 -39 -13t-38 -38zM108 137l-68 66q66 95 153 95q27 0 52 -11l44 -21q39 -20 65 -20q40 0 77 59l68 -62
q-34 -48 -70 -76t-85 -28q-36 0 -66 14l-42 21q-26 14 -51 14q-22 0 -39 -13t-38 -38z" />
    <glyph glyph-name="notequal" unicode="&#x2260;" horiz-adv-x="708" 
d="M658 151h-355l-91 -161h-100l91 161h-153v130h227l42 74h-269v130h343l88 155h100l-88 -155h165v-130h-239l-42 -74h281v-130z" />
    <glyph glyph-name="lessequal" unicode="&#x2264;" horiz-adv-x="709" 
d="M658 23h-608v130h608v-130zM50 515l609 310v-142l-363 -168l363 -168v-142z" />
    <glyph glyph-name="greaterequal" unicode="&#x2265;" horiz-adv-x="709" 
d="M51 23v130h608v-130h-608zM659 515l-609 -310v142l363 168l-363 168v142z" />
    <glyph glyph-name="dotmath" unicode="&#x22c5;" horiz-adv-x="298" 
d="M248 250h-198v180h198v-180z" />
    <glyph glyph-name="lozenge" unicode="&#x25ca;" horiz-adv-x="440" 
d="M400 350l-180 -350l-180 350l180 350zM300 350l-80 156l-80 -156l80 -156z" />
    <glyph glyph-name="uniF400" unicode="&#xf400;" horiz-adv-x="2" 
d="M-224 837l87 -109l-192 -158l-87 108z" />
    <glyph glyph-name="uniF401" unicode="&#xf401;" horiz-adv-x="2" 
d="M-303 1007l87 -109l-192 -158l-87 108z" />
    <glyph glyph-name="uniF406" unicode="&#xf406;" horiz-adv-x="512" 
d="M256 843q75 0 97 71h129q-27 -94 -78 -134t-148 -40q-98 0 -152.5 41t-73.5 133h129q22 -71 97 -71z" />
    <glyph glyph-name="uniF407" unicode="&#xf407;" horiz-adv-x="244" 
d="M30 -200v70h69q21 0 21 14q0 15 -24 15h-30q-35 0 -35 29q0 8 5 21l24 51h76l-11 -23q-3 -6 -3 -7q0 -5 8 -5h9q38 0 56.5 -19t18.5 -63q0 -83 -100 -83h-84z" />
    <glyph glyph-name="uniF408" unicode="&#xf408;" horiz-adv-x="478" 
d="M388 740l-119 95q-14 12 -29 12q-12 0 -29 -12l-119 -95l-62 89l159 120q20 17 50 17t50 -17l159 -120z" />
    <glyph glyph-name="uniF409" unicode="&#xf409;" horiz-adv-x="273" 
d="M139 -371l-149 45l86 286l167 -51z" />
    <glyph glyph-name="uniF40A" unicode="&#xf40a;" horiz-adv-x="273" 
d="M139 396l-149 45l86 286l167 -51z" />
    <glyph glyph-name="uniF40B" unicode="&#xf40b;" horiz-adv-x="283" 
d="M233 766h-183v129h183v-129z" />
    <glyph glyph-name="uniF40C" unicode="&#xf40c;" horiz-adv-x="299" 
d="M150 978q66 0 92.5 -28.5t26.5 -90.5t-26.5 -90t-92.5 -28t-93 28t-27 90t27 90.5t93 28.5zM102 859q0 -25 10 -38.5t38 -13.5t37.5 13t9.5 39t-9.5 39.5t-37.5 13.5t-38 -13.5t-10 -39.5z" />
    <glyph glyph-name="uniF40D" unicode="&#xf40d;" horiz-adv-x="519" 
d="M98 744l-68 66q66 95 153 95q27 0 52 -11l44 -21q39 -20 65 -20q40 0 77 59l68 -62q-34 -48 -70 -76t-85 -28q-36 0 -66 14l-42 21q-26 14 -51 14q-22 0 -39 -13t-38 -38z" />
    <glyph glyph-name="uniF40E" unicode="&#xf40e;" horiz-adv-x="228" 
d="M198 -209h-85q-83 0 -83 69q0 24 11 43l58 97h97l-55 -91q-9 -15 -9 -22q0 -17 27 -17h39v-79z" />
    <glyph glyph-name="uniF43E" unicode="&#xf43e;" horiz-adv-x="726" 
d="M288 -200v70h69q21 0 21 14q0 15 -24 15h-30q-35 0 -35 29q0 8 5 21l24 51h-68v526h-250v174h726v-174h-250v-526h-82l-11 -23q-3 -6 -3 -7q0 -5 8 -5h9q38 0 56.5 -19t18.5 -63q0 -83 -100 -83h-84z" />
    <glyph glyph-name="uniF43F" unicode="&#xf43f;" horiz-adv-x="422" 
d="M160 -200v70h69q21 0 21 14q0 15 -24 15h-30q-35 0 -35 35q0 20 9 29l36 44q-131 32 -131 173v210h-75v140h75v170h196v-170h151v-140h-151v-120q0 -64 27.5 -97t92.5 -33h31v-140h-146l-21 -23q-3 -6 -3 -7q0 -5 8 -5h9q38 0 56.5 -19t18.5 -63q0 -83 -100 -83h-84z" />
    <glyph glyph-name="uniF47E" unicode="&#xf47e;" horiz-adv-x="794" 
d="M397 174q62 0 91.5 29t29.5 95v402h226v-420q0 -158 -86.5 -223t-260.5 -65t-260.5 65t-86.5 223v420h226v-402q0 -66 29.5 -95t91.5 -29zM488 766h-183v129h183v-129z" />
    <glyph glyph-name="uniF47F" unicode="&#xf47f;" horiz-adv-x="650" 
d="M612 530v-420q0 -58 -28 -84t-82 -26h-254q-99 0 -154.5 52t-55.5 148v330h196v-282q0 -60 25 -85t85 -25h32q22 0 31 9t9 31v352h196zM411 590h-173v128h173v-128z" />
    <glyph glyph-name="uniF483" unicode="&#xf483;" horiz-adv-x="679" 
d="M668 0h-538q-23 0 -38 2t-38.5 9.5t-36.5 28t-13 52.5q0 77 68 143l278 265q11 9 11 18q0 8 -18 8h-308v174h543q97 0 97 -93q0 -32 -9.5 -57t-20 -38t-29.5 -31l-297 -283q-10 -10 -10 -14q0 -10 12 -10h347v-174zM340 978q66 0 92.5 -28.5t26.5 -90.5t-26.5 -90
t-92.5 -28t-93 28t-27 90t27 90.5t93 28.5zM292 859q0 -25 10 -38.5t38 -13.5t37.5 13t9.5 39t-9.5 39.5t-37.5 13.5t-38 -13.5t-10 -39.5z" />
    <glyph glyph-name="uniF484" unicode="&#xf484;" horiz-adv-x="556" 
d="M97 0q-38 0 -62.5 28t-24.5 74q0 65 49 103l229 175q8 6 8 9q0 5 -10 5h-257v136h419q45 0 71.5 -25.5t26.5 -71.5q0 -68 -48 -106l-222 -170q-8 -6 -8 -11q0 -4 9 -4h260v-142h-440zM278 807q66 0 92.5 -28.5t26.5 -90.5t-26.5 -90t-92.5 -28t-93 28t-27 90t27 90.5
t93 28.5zM230 688q0 -25 10 -38.5t38 -13.5t37.5 13t9.5 39t-9.5 39.5t-37.5 13.5t-38 -13.5t-10 -39.5z" />
    <glyph glyph-name="uniF4C4" unicode="&#xf4c4;" horiz-adv-x="726" 
d="M288 -200v70h69q21 0 21 14q0 15 -24 15h-30q-35 0 -35 29q0 8 5 21l24 51h-68v526h-250v174h726v-174h-250v-526h-82l-11 -23q-3 -6 -3 -7q0 -5 8 -5h9q38 0 56.5 -19t18.5 -63q0 -83 -100 -83h-84z" />
    <glyph glyph-name="uniF4C5" unicode="&#xf4c5;" horiz-adv-x="592" 
d="M210 -200v70h69q21 0 21 14q0 15 -24 15h-30q-35 0 -35 29q0 8 5 21l24 51h-42v390h-198v140h592v-140h-198v-390h-78l-11 -23q-3 -6 -3 -7q0 -5 8 -5h9q38 0 56.5 -19t18.5 -63q0 -83 -100 -83h-84z" />
    <glyph glyph-name="uniF4C8" unicode="&#xf4c8;" horiz-adv-x="652" 
d="M340 -200v70h69q21 0 21 14q0 15 -24 15h-30q-35 0 -35 29q0 8 5 21l24 51h-34q-169 0 -237.5 82.5t-68.5 267.5t68.5 267.5t237.5 82.5h296v-174h-180q-115 0 -152.5 -33t-37.5 -143t37.5 -143t152.5 -33h190v-174h-196l-11 -23q-3 -6 -3 -7q0 -5 8 -5h9q38 0 56.5 -19
t18.5 -63q0 -83 -100 -83h-84z" />
    <glyph glyph-name="uniF4C9" unicode="&#xf4c9;" horiz-adv-x="543" 
d="M254 -200v70h69q21 0 21 14q0 15 -24 15h-30q-35 0 -35 29q0 8 5 21l24 51h-46q-66 0 -110 18t-67.5 54.5t-33 82t-9.5 109.5q0 132 47 199t173 67h284v-140h-194q-110 0 -110 -126q0 -62 26 -93t84 -31h205v-140h-173l-11 -23q-3 -6 -3 -7q0 -5 8 -5h9q38 0 56.5 -19
t18.5 -63q0 -83 -100 -83h-84z" />
    <glyph glyph-name="uniF4CC" unicode="&#xf4cc;" horiz-adv-x="751" 
d="M394 0h-246l112 199l-280 501h252l146 -298l147 298h246zM458 1007l87 -109l-192 -158l-87 108z" />
    <glyph glyph-name="uniF4CD" unicode="&#xf4cd;" horiz-adv-x="641" 
d="M661 530l-316 -701h-196l83 171l-252 530h200l139 -336l146 336h196zM403 837l87 -109l-192 -158l-87 108z" />
    <glyph glyph-name="uniF6BA" unicode="&#xf6ba;" horiz-adv-x="487" 
d="M30 275v158h427v-158h-427z" />
    <glyph glyph-name="uniF6BB" unicode="&#xf6bb;" horiz-adv-x="552" 
d="M30 275v158h492v-158h-492z" />
    <glyph glyph-name="uniF6BC" unicode="&#xf6bc;" horiz-adv-x="987" 
d="M30 275v158h927v-158h-927z" />
    <glyph glyph-name="uniF6C3" unicode="&#xf6c3;" horiz-adv-x="263" 
d="M129 -371l-149 45l86 286l167 -51z" />
    <glyph glyph-name="uniF6C9" unicode="&#xf6c9;" horiz-adv-x="339" 
d="M222 1007l87 -109l-192 -158l-87 108z" />
    <glyph glyph-name="uniF6CA" unicode="&#xf6ca;" horiz-adv-x="478" 
d="M388 966l60 -89l-159 -120q-20 -17 -50 -17t-50 17l-159 120l62 89l119 -95q17 -12 29 -12q15 0 29 12z" />
    <glyph glyph-name="uniF6CB" unicode="&#xf6cb;" horiz-adv-x="550" 
d="M500 766h-182v129h182v-129zM233 766h-183v129h183v-129z" />
    <glyph glyph-name="uniF6CE" unicode="&#xf6ce;" horiz-adv-x="339" 
d="M117 1007l192 -159l-87 -108l-192 158z" />
    <glyph glyph-name="uniF6CF" unicode="&#xf6cf;" horiz-adv-x="577" 
d="M191 1057l97 -85l-162 -189l-96 84zM450 1057l97 -85l-162 -189l-96 84z" />
    <glyph glyph-name="uniF6D0" unicode="&#xf6d0;" horiz-adv-x="349" 
d="M319 770h-289v110h289v-110z" />
    <glyph glyph-name="uniF6D1" unicode="&#xf6d1;" horiz-adv-x="552" 
d="M276 849q68 0 87 61h160q-27 -93 -84.5 -133.5t-162.5 -40.5q-107 0 -167.5 41.5t-79.5 132.5h160q19 -61 87 -61z" />
    <glyph glyph-name="uniF6D4" unicode="&#xf6d4;" horiz-adv-x="512" 
d="M256 663q65 0 87 71h139q-27 -94 -78 -134t-148 -40q-98 0 -152.5 41t-73.5 133h139q22 -71 87 -71z" />
    <glyph glyph-name="uniF6DE" unicode="&#xf6de;" horiz-adv-x="770" 
d="M37 189v158h696v-158h-696z" />
    <glyph glyph-name="mu1" horiz-adv-x="670" 
d="M50 -177v707h197v-300q0 -47 22 -71q20 -25 65 -25q37 0 61 23q28 28 28 70v303h197v-530h-187v73q-12 -37 -39 -58t-61 -21q-35 0 -60.5 19.5t-35.5 52.5v-243h-187z" />
    <glyph glyph-name="afii10043.alt.1" horiz-adv-x="1192" 
d="M276 218q0 -44 44 -44h133v526h226v-526h177v526h226v-526h110v-174h-1032q-52 0 -81 29t-29 81v590h226v-482z" />
    <glyph glyph-name="afii10088.alt.1" horiz-adv-x="695" 
d="M605 140h90v-140h-547q-54 0 -82 26t-28 84v420h196v-350q0 -22 9 -31t31 -9h135v390h196v-390z" />
    <glyph glyph-name="dotlessi1" horiz-adv-x="256" 
d="M30 0v530h196v-530h-196z" />
    <glyph glyph-name="afii10040.alt.1" horiz-adv-x="868" 
d="M276 218q0 -44 44 -44h212v526h226v-526h110v-174h-708q-52 0 -81 29t-29 81v590h226v-482z" />
    <glyph glyph-name="hyphenminus" horiz-adv-x="487" 
d="M30 189v158h427v-158h-427z" />
    <glyph glyph-name="afii10069.alt.1" horiz-adv-x="686" 
d="M0 0v140h60l139 327q29 69 144 69t144 -69l139 -327h60v-140h-686zM323 353l-79 -223h198l-79 223q-2 9 -8.5 15t-11.5 6t-11.5 -6t-8.5 -15z" />
    <glyph glyph-name="afii10091.alt.1" horiz-adv-x="931" 
d="M841 140h90v-140h-783q-54 0 -82 26t-28 84v420h192v-350q0 -22 9 -31t31 -9h73v390h192v-390h114v390h192v-390z" />
    <glyph glyph-name="afii10021.alt.1" horiz-adv-x="859" 
d="M0 0v174h70l199 455q10 22 22 37t48 28.5t91 13.5t91 -13.5t48 -28.5t22 -37l198 -455h70v-174h-859zM417 488l-130 -314h286l-130 314q-8 18 -13 18t-13 -18z" />
    </font>
</defs>
</svg>
