<svg width="36" height="36" viewBox="0 0 36 36" fill="none" xmlns="http://www.w3.org/2000/svg">
<path d="M25.7654 3H10.2355C9.18832 3 8.33789 3.85043 8.33789 4.89761V31.1024C8.33789 32.1496 9.18832 33 10.2355 33H25.7654C26.8126 33 27.663 32.1496 27.663 31.1024V4.89761C27.6694 3.85043 26.8126 3 25.7654 3ZM9.28987 7.77258H26.7174V27.6182H9.28987V7.77258ZM10.2355 3.95198H25.7654C26.2859 3.95198 26.7111 4.37719 26.7111 4.89761V7.13793H9.28987V4.89761C9.28987 4.37719 9.71509 3.95198 10.2355 3.95198ZM25.7654 32.0544H10.2355C9.71509 32.0544 9.28987 31.6292 9.28987 31.1087V28.2528H26.7174V31.1087C26.7174 31.6292 26.2922 32.0544 25.7654 32.0544Z" fill="#555555"/>
<path d="M18.0036 28.6777C17.1468 28.6777 16.4424 29.3759 16.4424 30.239C16.4424 31.1021 17.1405 31.8002 18.0036 31.8002C18.8604 31.8002 19.5649 31.1021 19.5649 30.239C19.5649 29.3759 18.8604 28.6777 18.0036 28.6777ZM18.0036 31.1592C17.4959 31.1592 17.077 30.7467 17.077 30.2326C17.077 29.7249 17.4896 29.306 18.0036 29.306C18.5113 29.306 18.9302 29.7186 18.9302 30.2326C18.9239 30.7404 18.5113 31.1592 18.0036 31.1592Z" fill="#555555"/>
<path d="M15.8456 6.02137H20.1613C20.339 6.02137 20.4786 5.88175 20.4786 5.70404C20.4786 5.52634 20.339 5.38672 20.1613 5.38672H15.8456C15.6679 5.38672 15.5283 5.52634 15.5283 5.70404C15.5283 5.88175 15.6679 6.02137 15.8456 6.02137Z" fill="#555555"/>
<path d="M14.7031 6.02137C14.7856 6.02137 14.8681 5.98964 14.9252 5.92617C14.9823 5.86905 15.0204 5.78655 15.0204 5.70404C15.0204 5.62154 14.9887 5.53904 14.9252 5.48192C14.8681 5.4248 14.7856 5.38672 14.7031 5.38672C14.6206 5.38672 14.5381 5.41845 14.4809 5.48192C14.4238 5.53904 14.3857 5.62154 14.3857 5.70404C14.3857 5.78655 14.4175 5.86905 14.4809 5.92617C14.5381 5.98964 14.6206 6.02137 14.7031 6.02137Z" fill="#555555"/>
</svg>
