<svg width="64" height="64" viewBox="0 0 64 64" fill="none" xmlns="http://www.w3.org/2000/svg">
<path d="M18.171 39.9949L18.1803 39.9811L18.1896 39.968C18.2732 39.8543 19.053 38.8455 20.8044 38.1688L21.0717 38.0531H17.0031C16.1346 36.2358 15.5895 34.2408 15.4375 32.1335H21.3597C21.4348 34.1503 21.7038 35.9697 22.1074 37.6034L24.3093 36.648C24.0037 35.2888 23.7985 33.7827 23.7275 32.1314H25.8741C25.7453 31.8219 25.6288 31.5091 25.5351 31.1933C25.2881 31.0131 24.944 30.6299 24.8152 29.8509C24.8088 29.8286 24.8004 29.7941 24.7915 29.7625H23.7351C23.7972 28.3048 23.9652 26.9697 24.2135 25.7469C24.1869 25.2644 24.1903 24.7221 24.2578 24.1133C24.2857 23.9549 24.71 21.7495 26.2507 20.0451C26.6894 19.2362 27.1509 18.5107 27.6133 17.8834C28.5874 16.5638 29.5576 15.6312 30.272 15.0371C30.4798 14.8669 30.6563 14.7301 30.8121 14.6135V17.9621C31.4534 17.8909 32.2979 17.8497 33.1871 17.9575V14.6202C34.1873 15.3659 36.2444 17.1566 37.8949 20.3234C38.5156 21.0669 38.747 21.7785 38.8086 22.0034C39.2828 22.8265 39.4741 23.7242 39.5218 24.5549C39.9195 26.0897 40.1838 27.8269 40.267 29.7634H38.9843C38.8597 30.2295 38.5844 31.0872 38.128 31.5954C38.0613 31.7752 37.9832 31.9541 37.9046 32.1318H40.2636C40.1863 33.9432 39.9448 35.5651 39.5889 37.0164C40.3932 37.3701 41.2318 37.6749 41.8254 37.8779C42.265 36.1781 42.5559 34.2632 42.6391 32.1322H48.5583C48.4058 34.2413 47.8637 36.2358 46.9956 38.0509H42.3456C42.5229 38.1086 42.6302 38.1411 42.6357 38.1427L42.6648 38.1516L42.6931 38.1621C44.4584 38.8392 45.2425 39.8556 45.3261 39.9693L45.3354 39.9823L45.3443 39.9958C45.441 40.1381 45.5271 40.2796 45.6166 40.4215H45.6208C45.62 40.4223 45.6196 40.4236 45.6187 40.4244C46.1262 41.2278 46.5341 42.0215 46.852 42.7566C49.4454 39.5179 50.9987 35.4143 51 30.9461C50.9979 20.4855 42.4947 12.0017 31.9985 12C21.5091 12.0017 13.0017 20.4855 13 30.9457C13.0008 35.2349 14.4313 39.1886 16.8397 42.3638C17.1927 41.6004 17.6259 40.7992 18.171 39.9949ZM48.5604 29.7634H42.6395C42.5576 27.5613 42.2531 25.5848 41.7819 23.8421H46.996C47.8641 25.6585 48.4101 27.6539 48.5604 29.7634ZM45.6229 21.4754H41.0063C39.96 18.7739 38.587 16.7221 37.3051 15.2531C40.7057 16.3962 43.6115 18.5979 45.6229 21.4754ZM26.6937 15.2531C25.413 16.7255 24.04 18.7756 22.9933 21.4754H18.3771C20.3923 18.5979 23.2943 16.3962 26.6937 15.2531ZM17.0036 23.8421H22.2138C21.7469 25.5848 21.4424 27.5629 21.3605 29.7634H15.4379C15.5904 27.6539 16.1355 25.6585 17.0036 23.8421Z" fill="white"/>
<path d="M28.3769 42.8511C28.3685 42.8638 28.3604 42.8768 28.3524 42.889C28.3524 42.889 27.3137 38.236 27.0731 35.9126C27.041 35.9593 27.0097 36.0065 26.973 36.0532C26.7796 36.2991 26.5259 36.5383 26.1898 36.7505L21.126 38.9475C19.5418 39.5551 18.8709 40.4659 18.8709 40.4659C16.525 43.929 16.251 47.3905 16.251 47.3905C16.281 49.1526 17.0427 49.3349 17.0427 49.3349C20.8022 51.0078 26.4549 51.7206 29.5351 51.9998C29.6098 48.1989 30.6764 42.8393 30.8106 42.18C30.4745 41.652 30.2524 40.9547 30.1363 40.5248C29.6516 41.0322 29.063 41.7715 28.3769 42.8511Z" fill="white"/>
<path d="M42.3907 38.9479C42.3907 38.9479 39.2641 38.001 37.5997 36.9336C37.4684 36.849 37.3451 36.7639 37.2345 36.6789C37.1859 36.6241 37.0331 36.5172 36.9841 36.4599C36.8182 36.3424 36.7354 36.2313 36.5771 36.0254C36.3313 38.3875 35.3801 42.9096 35.3801 42.9096C34.7231 41.8296 34.137 41.0852 33.6363 40.5681C33.4087 41.3656 33.1613 41.8961 32.9248 42.2477C33.7042 45.0018 34.064 51.3391 34.099 51.9896C37.2041 51.7037 42.7623 50.9871 46.4728 49.3353C46.4728 49.3353 47.2349 49.1525 47.2645 47.3909C47.2653 47.3909 46.9913 43.9302 44.6454 40.4671C44.6458 40.4667 43.9758 39.5555 42.3907 38.9479Z" fill="white"/>
<path d="M35.6414 34.7694C35.6254 34.6326 35.6157 34.4924 35.614 34.3509L35.6115 34.1934L35.7132 34.073C35.8006 33.9703 35.8855 33.8646 35.9682 33.7572L36.0214 33.6873C36.5898 32.9366 37.0542 32.0852 37.3654 31.2263L37.3975 31.1379L37.4638 31.0713C37.8704 30.6667 38.1588 29.6381 38.236 29.2756L38.2517 29.2212C38.6186 28.1956 38.4699 27.7922 38.3889 27.6667L38.2791 27.4966L38.3441 27.305C38.383 27.1897 39.2853 24.4579 38.0515 22.3796L38.0025 22.2562C37.9852 22.1808 37.5381 20.3581 35.313 19.521L35.2412 19.4861C33.1258 18.1956 29.8768 18.9678 29.8447 18.9749C25.9898 19.6242 25.1027 24.1909 25.0938 24.2368C24.8637 26.3151 25.4193 27.6284 25.4426 27.6831L25.5122 27.8444L25.4468 28.0073C25.3514 28.244 25.4675 29.0473 25.6355 29.649L25.6461 29.6966C25.7516 30.3665 26.0476 30.5273 26.081 30.5433L26.2528 30.6267L26.3035 30.8107C26.6071 31.9071 27.1526 32.985 27.8809 33.9282L27.9607 34.0318L27.9679 34.1623C27.9801 34.3859 27.9696 34.612 27.9354 34.8364C28.3107 36.0217 29.2316 38.0229 31.301 38.8267C31.4572 38.8878 31.6062 38.9379 31.754 38.9791C31.9381 38.9227 32.1167 38.857 32.2881 38.7825C34.2755 37.9214 35.234 35.9383 35.6414 34.7694Z" fill="white"/>
</svg>
