<svg width="64" height="64" viewBox="0 0 64 64" fill="none" xmlns="http://www.w3.org/2000/svg">
<path d="M51.9576 29.4904C51.8644 27.8173 51.3985 26.1442 50.5599 24.75L50.4667 24.5641C50.3735 24.4712 50.3735 24.2853 50.2803 24.2853C49.9076 23.5417 49.4417 22.7981 48.9758 22.1474L48.6031 21.4968C47.7645 20.1955 47.5781 18.9872 47.8577 17.6859C47.9509 17.4071 48.044 17.1282 48.1372 16.7564L49.1622 14.4327H47.2986H47.1122C46.9259 14.4327 46.7395 14.5256 46.5532 14.5256C44.0373 14.9904 42.3601 16.3846 41.6147 18.7083C41.3351 19.5449 41.2419 20.4744 41.2419 21.5897C41.2419 21.9615 41.2419 22.4263 41.3351 22.891C41.4283 23.7276 41.2419 24.2853 40.776 24.8429C40.6829 25.0288 40.4965 25.1218 40.4033 25.2147C40.3101 25.3077 40.1238 25.4006 40.0306 25.4936C39.6579 25.6795 39.192 25.7724 38.8193 25.7724C38.5397 25.6795 38.2602 25.5865 37.9807 25.4936C37.3284 24.9359 37.2352 24.0064 37.142 22.6122C37.142 22.1474 37.1421 21.7756 37.0489 21.4038C36.8625 20.0096 36.3966 18.6154 35.7444 17.4071C35.2785 16.5705 34.7194 16.0128 34.1603 15.3622C33.7876 14.9904 33.5081 14.6186 33.2285 14.2468C32.8558 13.7821 32.5763 13.2244 32.3899 12.7596C32.0172 11.4583 31.8308 10.3429 32.0172 8.94872C32.0172 8.39103 32.2035 7.83333 32.3899 7.18269C32.6694 6.34615 32.8558 5.50962 32.8558 4.67308V3L31.2717 3.55769C30.4331 3.83654 29.6877 4.39423 29.0354 4.95192V5.04487C26.7991 6.71795 25.3083 8.48397 24.3765 10.4359C22.7924 13.875 22.9788 17.2212 24.9356 20.2885C25.1219 20.4744 25.2151 20.7532 25.4014 20.9391C25.4014 21.0321 25.4946 21.0321 25.4946 21.125L25.5878 21.2179C25.7742 21.4038 25.8673 21.5897 26.0537 21.7756C26.2401 21.9615 26.4264 22.1474 26.5196 22.3333C26.706 22.6122 26.8923 22.891 26.8923 23.1699C26.8923 23.3558 26.8923 23.4487 26.8923 23.5417C26.7991 24.75 25.4014 25.1218 24.5628 25.1218C23.9106 25.1218 23.2583 24.9359 22.8856 24.5641C22.6992 24.4712 22.6061 24.2853 22.5129 24.1923C22.047 23.6346 21.8606 23.0769 21.9538 22.2404V22.1474C22.1402 20.4744 21.9538 19.266 21.6743 18.0577C20.9288 15.734 19.2516 14.3397 16.7358 13.875C16.5494 13.875 16.363 13.7821 16.2699 13.7821C16.1767 13.7821 16.0835 13.7821 15.9903 13.7821H14.0336L15.1517 16.1058C15.4313 16.8494 15.6176 17.5 15.6176 18.1506C15.6176 18.9872 15.3381 19.9167 14.779 20.8462C14.5926 21.125 14.4063 21.4038 14.2199 21.6827C13.5677 22.7051 12.7291 23.9135 12.3563 25.2147C11.7041 27.1667 12.0768 28.9327 12.4495 30.6987V31.0705C12.6359 32.1859 13.1018 33.3013 13.5677 34.2308C14.0336 35.2532 14.4063 36.1827 14.5926 37.1122C14.6858 37.7628 14.4995 38.5064 14.3131 39.25C14.1267 40.0865 13.8472 40.8301 13.9404 41.6667C13.8472 42.7821 13.9404 43.7115 13.9404 44.5481C14.779 53.0994 21.5811 59.8846 30.0604 60.9071C30.7127 61 31.3649 61 32.1104 61C37.5148 61 42.6396 58.6763 46.1805 54.4936C48.1372 52.1699 49.4417 49.4744 50.094 46.5929C50.2803 45.8494 50.3735 45.0128 50.4667 43.9904V43.8974V43.9904V43.8974C50.5599 43.1538 50.5599 42.3173 50.4667 41.3878V41.2019C50.4667 39.9936 50.4667 38.9712 50.6531 37.8558C50.7462 36.9263 51.0258 35.9038 51.3053 34.9744C51.678 33.2083 52.1439 31.4423 51.9576 29.4904ZM18.413 43.4327C17.6676 43.4327 17.1085 42.875 17.1085 42.1314C17.1085 41.3878 17.6676 40.8301 18.413 40.8301H20.6493C21.3947 40.8301 21.9538 41.3878 21.9538 42.1314C21.9538 42.875 21.3947 43.4327 20.6493 43.4327H18.413ZM24.8424 51.0545L23.2583 52.6346C22.9788 52.9135 22.6992 53.0064 22.3265 53.0064C21.9538 53.0064 21.6743 52.9135 21.3947 52.6346C20.9288 52.1699 20.9288 51.3333 21.3947 50.7756L22.9788 49.1955C23.4447 48.7308 24.2833 48.7308 24.8424 49.1955C25.3083 49.7532 25.3083 50.5897 24.8424 51.0545ZM25.0287 35.1603C24.7492 35.4391 24.4697 35.5321 24.0969 35.5321C23.7242 35.5321 23.4447 35.4391 23.1651 35.1603L21.5811 33.5801C21.1152 33.1154 21.1152 32.2788 21.5811 31.7212C22.047 31.2564 22.8856 31.2564 23.4447 31.7212L25.0287 33.3013C25.4946 33.766 25.4946 34.6026 25.0287 35.1603ZM30.899 28.7468C30.899 28.0032 31.4581 27.4455 32.2035 27.4455C32.949 27.4455 33.5081 28.0032 33.5081 28.7468V30.9776C33.5081 31.7212 32.949 32.2788 32.2035 32.2788C31.4581 32.2788 30.899 31.7212 30.899 30.9776V28.7468ZM33.1353 55.8878C33.1353 56.6314 32.5763 57.1891 31.8308 57.1891C31.0854 57.1891 30.5263 56.6314 30.5263 55.8878V53.6571C30.5263 52.9135 31.0854 52.3558 31.8308 52.3558C32.5763 52.3558 33.1353 52.9135 33.1353 53.6571V55.8878ZM34.3467 44.8269C32.949 46.1282 30.7127 46.0353 29.4082 44.5481C28.1037 43.1538 28.1968 40.9231 29.6877 39.6218C29.6877 39.6218 29.7809 39.6218 29.7809 39.5288L27.8241 35.1603C27.5446 34.5096 27.8241 33.766 28.4764 33.4872C29.1286 33.2083 29.8741 33.4872 30.1536 34.1378L32.2035 38.6923C33.0422 38.7853 33.974 39.1571 34.533 39.8077C35.8375 41.2949 35.7444 43.5256 34.3467 44.8269ZM39.192 33.4872L40.776 31.9071C41.2419 31.4423 42.0806 31.4423 42.6396 31.9071C43.1055 32.3718 43.1055 33.2083 42.6396 33.766L41.0556 35.3462C40.776 35.625 40.4965 35.7179 40.1238 35.7179C39.7511 35.7179 39.4715 35.625 39.192 35.3462C38.7261 34.7885 38.7261 34.0449 39.192 33.4872ZM42.4533 52.9135C42.1737 53.1923 41.8942 53.2853 41.5215 53.2853C41.1488 53.2853 40.8692 53.1923 40.5897 52.9135L39.0056 51.3333C38.5397 50.8686 38.5397 50.0321 39.0056 49.4744C39.4715 49.0096 40.3101 49.0096 40.8692 49.4744L42.4533 51.0545C42.9192 51.6122 42.9192 52.3558 42.4533 52.9135ZM45.6214 43.7115H43.3851C42.6396 43.7115 42.0806 43.1538 42.0806 42.4103C42.0806 41.6667 42.6396 41.109 43.3851 41.109H45.6214C46.3668 41.109 46.9259 41.6667 46.9259 42.4103C46.9259 43.1538 46.3668 43.7115 45.6214 43.7115Z" fill="white"/>
</svg>
