<svg width="64" height="64" viewBox="0 0 64 64" fill="none" xmlns="http://www.w3.org/2000/svg">
<path d="M39.1308 44.7083L38.6096 45.4896L37.9321 45.9062L31.0525 50.4375L32.4075 42.3646L32.5639 41.5833L33.0851 40.8021L41.0071 28.7188L41.5283 27.9375L42.0495 27.1042V16.1667C42.0495 16.0625 42.0495 16.0104 42.0495 15.9583C42.0495 15.9062 42.0495 15.8542 42.0495 15.8021C41.9973 15.6458 41.9452 15.4375 41.8931 15.2813C41.841 15.2292 41.841 15.1771 41.7889 15.125C41.7367 15.0208 41.6325 14.9167 41.5804 14.8646C41.2156 14.5 40.7465 14.2396 40.1732 14.2396H36.4207V16.1667C36.8897 16.5833 37.1503 17.2083 37.1503 17.8854C37.1503 19.1354 36.108 20.1771 34.8571 20.1771C33.6063 20.1771 32.5639 19.1354 32.5639 17.8854C32.5639 17.2083 32.8245 16.6354 33.2936 16.1667V14.2396H29.8537V16.1667C30.3228 16.5833 30.5834 17.2083 30.5834 17.8854C30.5834 19.1354 29.541 20.1771 28.2902 20.1771C27.0394 20.1771 25.997 19.1354 25.997 17.8854C25.997 17.2083 26.2576 16.6354 26.7266 16.1667V14.2396H23.2347V16.1667C23.7038 16.5833 23.9644 17.2083 23.9644 17.8854C23.9644 19.1354 22.922 20.1771 21.6712 20.1771C20.4203 20.1771 19.3779 19.1354 19.3779 17.8854C19.3779 17.2083 19.6385 16.5833 20.1076 16.1667V14.2396H16.9284C15.886 14.2396 15 15.125 15 16.1667V50.0729C15 51.1146 15.886 52 16.9284 52H40.1732C41.2156 52 42.1016 51.1146 42.1016 50.0729V40.2292L41.0592 41.7917L39.1308 44.7083ZM20.0034 23.4063H36.4207V24.4479H20.0034V23.4063ZM20.0034 27.9896H36.4207V29.0313H20.0034V27.9896ZM20.0034 32.5729H36.4207V33.6146H20.0034V32.5729ZM22.8178 47.4688V48.4062C22.8178 48.5104 22.7656 48.5625 22.6614 48.5625H21.9839C21.8796 48.5625 21.8275 48.5104 21.8275 48.4062V47.4167C20.6288 47.2604 19.9512 46.5312 19.8991 46.4792C19.8991 46.4271 19.8991 46.375 19.9512 46.2708L20.4724 45.5417C20.4724 45.4896 20.5246 45.4896 20.5767 45.4896C20.6288 45.4896 20.6809 45.4896 20.6809 45.5417C20.6809 45.5417 21.4106 46.2708 22.3487 46.2708C22.8699 46.2708 23.3911 46.0104 23.3911 45.3854C23.3911 44.8646 22.7656 44.6563 22.0881 44.3438C21.15 43.9792 19.9512 43.5104 19.9512 42.2083C19.9512 41.2708 20.733 40.4375 21.7754 40.2292V39.2917C21.7754 39.1875 21.8796 39.1354 21.9317 39.1354H22.6093C22.7135 39.1354 22.7656 39.1875 22.7656 39.2917V40.2292C23.808 40.3333 24.3813 40.9063 24.4334 40.9583C24.4856 41.0104 24.4856 41.1146 24.4856 41.1667L24.0686 41.9479C24.0165 42 24.0165 42.0521 23.9644 42.0521C23.9122 42.0521 23.8601 42.0521 23.808 42C23.808 42 23.1826 41.4271 22.4008 41.4271C21.7233 41.4271 21.2542 41.7396 21.2542 42.2083C21.2542 42.7813 21.8796 42.9896 22.6614 43.3021C23.5995 43.6667 24.694 44.0833 24.694 45.3854C24.694 46.4271 23.9122 47.3125 22.8178 47.4688ZM46.9486 30.9063L47.0007 30.9583L46.7401 31.375L42.1016 38.4063L41.0592 39.9688L38.2969 44.1875L34.0232 41.375L41.0071 30.75L41.0592 30.6458L42.0495 29.1354L42.1016 29.0313L42.4143 28.5104L42.6749 28.0938L46.9486 30.9063ZM48.7727 28.0938L47.4698 30.0208L43.1961 27.2083L43.1439 27.1563L44.4469 25.2292C44.7075 24.9167 45.0202 24.7083 45.385 24.6563C45.6456 24.6563 45.9583 24.7083 46.2189 24.8646L48.3558 26.2708C48.46 26.3229 48.5643 26.375 48.6164 26.4792C48.6685 26.4792 48.7206 26.5313 48.7206 26.5833C48.7727 26.6875 48.8248 26.7396 48.877 26.8438C48.9291 26.8958 48.9291 26.9479 48.9291 27C48.9812 27.0521 48.9812 27.1042 48.9812 27.1563V27.2083C49.0333 27.5208 48.9812 27.8333 48.7727 28.0938ZM32.4597 48.3021L33.3978 42.9896L33.502 42.3125L37.5673 44.9688L36.994 45.3333L32.4597 48.3021ZM20.8894 18.875C20.5767 18.6146 20.3682 18.25 20.3682 17.8333C20.3682 17.3125 20.6809 16.8958 21.0979 16.6875V12H21.15H22.1402H22.1923V15.5938V16.1146V16.6875C22.2966 16.7396 22.4008 16.7917 22.5051 16.8958C22.5572 16.9479 22.5572 17 22.6093 17C22.8178 17.2083 22.922 17.5208 22.922 17.8333C22.922 18.25 22.7135 18.6146 22.4008 18.875C22.1923 19.0313 21.9317 19.0833 21.6712 19.0833C21.6712 19.0833 21.6712 19.0833 21.619 19.0833C21.3584 19.0833 21.0979 19.0313 20.8894 18.875ZM34.0753 18.875C33.7626 18.6146 33.5542 18.25 33.5542 17.8333C33.5542 17.5729 33.6063 17.3646 33.7626 17.1563C33.919 16.9479 34.0753 16.7917 34.2838 16.6875V16.1146V15.5938V12H35.3262V15.5938V16.1146V16.6875C35.7431 16.8958 36.0558 17.3125 36.0558 17.8333C36.0558 17.9375 36.0558 18.0417 36.0037 18.1458C35.9516 18.3542 35.8474 18.5104 35.7431 18.6667C35.691 18.7188 35.5868 18.8229 35.5347 18.875C35.3262 18.9792 35.0656 19.0833 34.805 19.0833C34.5444 19.0833 34.2838 19.0313 34.0753 18.875ZM26.9872 17.8333C26.9872 17.5729 27.0394 17.3646 27.1957 17.1563C27.3521 16.9479 27.5084 16.7917 27.7169 16.6875V16.1146V15.5938V12H28.7593V15.5938V16.1146V16.6875C29.072 16.8438 29.3326 17.1042 29.4368 17.4688C29.4889 17.5729 29.4889 17.7292 29.4889 17.8333C29.4889 18.25 29.2804 18.6146 28.9677 18.875C28.7593 19.0313 28.4987 19.0833 28.2381 19.0833C27.9775 19.0833 27.7169 19.0313 27.5084 18.875C27.1957 18.6146 26.9872 18.25 26.9872 17.8333Z" fill="white"/>
</svg>
