<svg width="64" height="64" viewBox="0 0 64 64" fill="none" xmlns="http://www.w3.org/2000/svg">
<path d="M14.8571 32.946H12.9524C12.4254 32.946 12.0063 32.5206 12 32C12 35.5873 12.9524 38.9587 14.6159 41.8794C14.4381 41.4413 14.6095 40.9333 15.0222 40.6921L15.8794 40.1968L16.673 39.7397C17.1302 39.4794 17.7143 39.6317 17.9746 40.0889C18.2413 40.546 18.0825 41.1302 17.6254 41.3905L16.8317 41.8476L15.9746 42.3429C15.8286 42.4317 15.6635 42.4698 15.4984 42.4698C15.2127 42.4698 14.9333 42.3365 14.7492 42.1016C16.4762 45.0476 18.9397 47.5175 21.8857 49.2444C21.5111 48.9587 21.4032 48.4318 21.6444 48.0191L22.1397 47.1619L22.5968 46.3683C22.8635 45.9111 23.4476 45.7587 23.8984 46.0191C24.3556 46.2794 24.5143 46.8635 24.2476 47.3206L23.7905 48.1143L23.2952 48.9714C23.1175 49.2762 22.8 49.4476 22.4698 49.4476C22.3302 49.4476 22.1841 49.4159 22.0508 49.346C24.9841 51.0349 28.381 52 31.9937 52C31.4667 52 31.0413 51.5746 31.0413 51.0476V49.1429C31.0413 48.6159 31.4667 48.1905 31.9937 48.1905C32.5206 48.1905 32.946 48.6159 32.946 49.1429V51.0476C32.946 51.5746 32.527 51.9937 32 52C35.619 52 39.0159 51.0349 41.9492 49.346C41.8159 49.4159 41.6698 49.4476 41.5238 49.4476C41.1937 49.4476 40.8698 49.2825 40.6921 48.9714L40.1968 48.1206L39.7397 47.327C39.4794 46.8698 39.6381 46.2857 40.0889 46.0254C40.546 45.7587 41.1302 45.9175 41.3905 46.3746L41.8476 47.1683L42.3429 48.0191C42.5841 48.4381 42.4762 48.9651 42.1016 49.2508C45.0476 47.5238 47.5175 45.0603 49.2444 42.1143C49.0603 42.3492 48.781 42.4825 48.4952 42.4825C48.3302 42.4825 48.1651 42.4381 48.0191 42.3492L47.1619 41.854L46.3683 41.3968C45.9111 41.1365 45.7587 40.5524 46.0191 40.0952C46.2857 39.6444 46.8635 39.4857 47.3206 39.7524L48.1143 40.2095L48.9714 40.7048C49.3905 40.946 49.5556 41.454 49.3778 41.8921C51.0476 38.9714 52 35.5937 52 32C52 32.527 51.5746 32.9524 51.0476 32.9524H49.1429C48.6159 32.9524 48.1905 32.527 48.1905 32C48.1905 31.4794 48.6159 31.0476 49.1429 31.0476H51.0476C51.5746 31.0476 52 31.4794 52 32C52 28.4063 51.0476 25.0349 49.3778 22.1143C49.5619 22.5524 49.3905 23.0603 48.9714 23.3016L48.1143 23.7968L47.3206 24.254C47.1746 24.3429 47.0095 24.381 46.8508 24.381C46.5206 24.381 46.1968 24.2095 46.0191 23.9048C45.7587 23.4476 45.9175 22.8698 46.3683 22.6032L47.1619 22.146L48.0191 21.6508C48.4381 21.4095 48.9651 21.5238 49.2508 21.8921C47.5175 18.946 45.054 16.4825 42.1079 14.7492C42.4825 15.0413 42.5905 15.5619 42.3492 15.981L41.854 16.8381L41.3968 17.6317C41.2191 17.9365 40.9016 18.1079 40.5714 18.1079C40.4127 18.1079 40.2476 18.0635 40.0952 17.981C39.6381 17.7143 39.4857 17.1365 39.746 16.6794L40.2032 15.8857L40.6984 15.0286C40.946 14.6095 41.4476 14.4444 41.8857 14.6222C38.9651 12.9524 35.5937 12 32 12C32.527 12 32.9524 12.4254 32.9524 12.9524V14.8571C32.9524 15.3841 32.527 15.8095 32 15.8095C31.473 15.8095 31.0476 15.3841 31.0476 14.8571V12.9524C31.0476 12.4254 31.473 12 32 12C28.4127 12 25.0413 12.9524 22.1206 14.6159C22.5587 14.4381 23.0667 14.6032 23.3079 15.0222L23.8032 15.8794L24.2603 16.673C24.527 17.1302 24.3683 17.7143 23.9111 17.9746C23.7651 18.0635 23.6 18.1016 23.4349 18.1016C23.1111 18.1016 22.7873 17.9302 22.6095 17.6254L22.1524 16.8317L21.6571 15.9746C21.4159 15.5556 21.5302 15.0349 21.8984 14.7492C18.9524 16.4762 16.4825 18.9397 14.7556 21.8857C15.0413 21.5111 15.5683 21.4032 15.9873 21.6444L16.8444 22.1397L17.6317 22.5968C18.0889 22.8571 18.2476 23.4413 17.981 23.8984C17.8095 24.2032 17.4857 24.3746 17.1556 24.3746C16.9968 24.3746 16.8317 24.3302 16.6794 24.2476L15.8857 23.7905L15.0349 23.2952C14.5968 23.0413 14.4317 22.4889 14.654 22.0508C12.9651 24.9841 12 28.381 12 31.9937C12 31.4667 12.4254 31.0413 12.9524 31.0413H14.8571C15.3841 31.0413 15.8095 31.4667 15.8095 31.9937C15.8095 32.5206 15.3841 32.946 14.8571 32.946ZM31.0794 31.7587C31.0857 31.7143 31.0984 31.6698 31.1175 31.6317C31.1619 31.5238 31.2317 31.4159 31.3206 31.327C31.4032 31.2381 31.5111 31.1683 31.6254 31.1238C31.8603 31.0222 32.127 31.0222 32.3619 31.1238C32.4762 31.1683 32.5841 31.2381 32.6667 31.327L38.0571 36.7111C38.4254 37.0857 38.4254 37.6889 38.0571 38.0635C37.8667 38.2476 37.6254 38.3429 37.3841 38.3429C37.1365 38.3429 36.8952 38.2476 36.7048 38.0635L32.946 34.2984L31.3206 32.673C31.1365 32.4825 31.0413 32.2413 31.0413 32C31.0413 31.9175 31.0476 31.8349 31.0794 31.7587ZM31.0413 33.7397L32.946 35.6444V44.6984C32.946 45.2254 32.5206 45.6508 31.9937 45.6508C31.4667 45.6508 31.0413 45.2254 31.0413 44.6984V33.7397Z" fill="white"/>
</svg>
