<svg width="64" height="64" viewBox="0 0 64 64" fill="none" xmlns="http://www.w3.org/2000/svg">
<path fill-rule="evenodd" clip-rule="evenodd" d="M31.706 22.0071L25.8108 27.7677L25.8281 50.9828C25.8286 51.5446 25.3775 52 24.8209 52H21.4611C20.9043 52 20.4531 51.5446 20.4531 50.9833V38.8251H19.772V50.9833C19.772 51.5448 19.3207 52 18.7634 52H15.3506C14.7935 52 14.3412 51.5448 14.3403 50.9829L14.3199 38.3199H12.5081C11.9513 38.3199 11.5 37.8648 11.5 37.3031V25.5608C11.5 23.876 12.854 22.5102 14.5243 22.5102C14.5243 22.5102 24.772 22.5104 24.7837 22.5108L28.505 18.9996L31.706 22.0071ZM35.4377 18.3598C35.812 17.967 35.802 17.354 35.4096 16.9733L33.7909 15.4025C33.3895 15.013 32.7346 15.0087 32.3279 15.3924L32.3036 15.4153L35.4377 18.3598ZM19.495 21.8543C22.1934 21.8543 24.3808 19.6483 24.3808 16.9271C24.3808 14.206 22.1934 12 19.495 12C16.7967 12 14.6093 14.206 14.6093 16.9271C14.6093 19.6483 16.7967 21.8543 19.495 21.8543ZM49.4757 22.5102C51.146 22.5102 52.5 23.876 52.5 25.5608V37.3031C52.5 37.8648 52.0487 38.3199 51.4919 38.3199H49.6801L49.6597 50.9829C49.6588 51.5448 49.2065 52 48.6494 52H45.2366C44.6793 52 44.228 51.5448 44.228 50.9833V38.8251H43.547V50.9833C43.547 51.5446 43.0957 52 42.5389 52H39.1791C38.6225 52 38.1714 51.5446 38.1719 50.9828V27.635L28.5882 18.386C28.1877 17.9947 28.1891 17.3626 28.5904 16.9733L30.2091 15.4025C30.6105 15.013 31.2654 15.0087 31.6721 15.3924L39.2162 22.5108C39.228 22.5104 49.4757 22.5102 49.4757 22.5102ZM44.505 21.8543C41.8066 21.8543 39.6192 19.6483 39.6192 16.9271C39.6192 14.206 41.8066 12 44.505 12C47.2033 12 49.3907 14.206 49.3907 16.9271C49.3907 19.6483 47.2033 21.8543 44.505 21.8543Z" fill="white"/>
</svg>
