<svg width="64" height="64" viewBox="0 0 64 64" fill="none" xmlns="http://www.w3.org/2000/svg">
<path d="M41.2272 47.0181C41.2172 47.0181 41.2097 47.0132 41.2006 47.0132H22.8002C22.7902 47.0132 22.7827 47.0181 22.7727 47.0181C22.5101 47.0329 22.2998 47.2429 22.2998 47.507C22.2998 47.7785 22.5234 47.9999 22.8002 47.9999H41.2006C41.4757 47.9999 41.7001 47.7785 41.7001 47.507C41.6993 47.2429 41.4898 47.0321 41.2272 47.0181Z" fill="white"/>
<path d="M36.2384 28.6216C36.2118 29.8774 34.3243 30.8912 32.0003 30.8912C29.6764 30.8912 27.7905 29.8774 27.7622 28.6216C25.2662 28.8463 23.155 30.3695 22.1152 32.4981H41.8862C40.8464 30.3695 38.7353 28.8463 36.2384 28.6216Z" fill="white"/>
<path d="M26.5257 22.393C26.5298 22.443 26.534 22.4922 26.5381 22.5414C26.8756 26.3039 29.1064 29.2108 31.8069 29.2108C34.5439 29.2108 36.7981 26.2276 37.0898 22.3938C37.1297 22.119 37.1505 21.836 37.1505 21.5498C37.1505 21.2627 37.1297 20.9805 37.0898 20.7057C36.6983 18.0408 34.4816 16 31.8069 16C29.1322 16 26.9163 18.0424 26.5257 20.7082C26.4858 20.9822 26.4658 21.2643 26.4658 21.5498C26.4658 21.6671 26.4691 21.7819 26.4758 21.8959C26.4858 22.0641 26.5016 22.2289 26.5257 22.393ZM28.5122 19.3999C28.5122 19.3999 32.205 21.1725 34.6877 19.3999C34.6877 19.3999 36.1614 21.7015 35.7475 22.6054L36.498 21.7548C36.4939 21.9804 36.4772 22.2027 36.4457 22.42C36.1888 25.7855 34.2115 28.4045 31.8069 28.4045C29.4439 28.4045 27.4906 25.87 27.1839 22.5833C27.3917 22.635 27.6477 22.7342 27.9254 22.9253C27.9262 22.9253 27.3976 19.8338 28.5122 19.3999Z" fill="white"/>
<path d="M43.3021 32.8105H20.6985C20.0677 32.8105 19.5557 33.3158 19.5557 33.9384L20.6985 45.3923C20.6985 46.0148 21.2105 46.5193 21.8414 46.5193H42.1593C42.791 46.5193 43.3021 46.0148 43.3021 45.3923L44.445 33.9384C44.445 33.315 43.933 32.8105 43.3021 32.8105ZM31.9933 40.593C31.4414 40.593 30.9934 40.1501 30.9934 39.6054C30.9934 39.0616 31.4414 38.6195 31.9933 38.6195C32.5452 38.6195 32.9932 39.0616 32.9932 39.6054C32.9932 40.1501 32.5452 40.593 31.9933 40.593Z" fill="white"/>
<path d="M61.7017 42.7269C61.6942 42.7269 61.6892 42.7236 61.6834 42.7236H48.5393C48.5319 42.7236 48.526 42.7269 48.5202 42.7269C48.3324 42.7376 48.1836 42.8877 48.1836 43.0763C48.1836 43.2699 48.3423 43.4282 48.5402 43.4282H61.6834C61.8796 43.4282 62.04 43.2707 62.04 43.0763C62.0392 42.8877 61.8887 42.7376 61.7017 42.7269Z" fill="white"/>
<path d="M58.1366 29.5874C58.1175 30.4847 56.7693 31.209 55.1095 31.209C53.4488 31.209 52.1023 30.4847 52.0823 29.5874C50.2987 29.7482 48.7909 30.8358 48.0479 32.3565H62.1694C61.4288 30.8358 59.9194 29.7482 58.1366 29.5874Z" fill="white"/>
<path d="M51.1985 25.1377C51.201 25.173 51.2043 25.2083 51.2085 25.2436C51.4487 27.9315 53.042 30.0084 54.9712 30.0084C56.9269 30.0084 58.536 27.8774 58.7447 25.1394C58.7729 24.9425 58.7879 24.7416 58.7879 24.5365C58.7879 24.3314 58.7729 24.1297 58.7447 23.9336C58.4646 22.0298 56.882 20.5723 54.9712 20.5723C53.0603 20.5723 51.4778 22.0315 51.1985 23.9353C51.1702 24.1313 51.1553 24.3323 51.1553 24.5365C51.1553 24.6202 51.1578 24.7022 51.1627 24.7842C51.1702 24.9032 51.1819 25.0213 51.1985 25.1377ZM52.6173 23.0002C52.6173 23.0002 55.2554 24.2658 57.0291 23.0002C57.0291 23.0002 58.0822 24.6431 57.7863 25.2903L58.3224 24.6825C58.3191 24.8441 58.3075 25.0024 58.285 25.1582C58.1013 27.5624 56.6884 29.4325 54.972 29.4325C53.2839 29.4325 51.8892 27.6223 51.6698 25.2747C51.8185 25.3116 51.9997 25.383 52.1992 25.5192C52.1984 25.5183 51.821 23.3102 52.6173 23.0002Z" fill="white"/>
<path d="M63.1853 32.5791H47.0398C46.5885 32.5791 46.2236 32.9392 46.2236 33.3846L47.0398 41.5657C47.0398 42.0111 47.4047 42.3712 47.8552 42.3712H62.3682C62.8196 42.3712 63.1845 42.0111 63.1845 41.5657L63.9998 33.3846C64.0007 32.9392 63.6358 32.5791 63.1853 32.5791ZM55.1072 38.1379C54.7124 38.1379 54.3932 37.8213 54.3932 37.4333C54.3932 37.0437 54.7132 36.7287 55.1072 36.7287C55.5011 36.7287 55.8203 37.0445 55.8203 37.4333C55.8211 37.8221 55.5011 38.1379 55.1072 38.1379Z" fill="white"/>
<path d="M15.4791 42.7269C15.4724 42.7269 15.4666 42.7236 15.4599 42.7236H2.31751C2.31086 42.7236 2.30504 42.7269 2.29839 42.7269C2.11055 42.7376 1.96094 42.8877 1.96094 43.0763C1.96094 43.2699 2.12052 43.4282 2.31751 43.4282H15.4608C15.6569 43.4282 15.8173 43.2707 15.8173 43.0763C15.8173 42.8877 15.6669 42.7376 15.4791 42.7269Z" fill="white"/>
<path d="M11.9178 29.5874C11.8987 30.4847 10.5506 31.209 8.89071 31.209C7.23003 31.209 5.88271 30.4847 5.86359 29.5874C4.08074 29.7482 2.573 30.8358 1.8291 32.3565H15.9515C15.2093 30.8358 13.7007 29.7482 11.9178 29.5874Z" fill="white"/>
<path d="M4.97891 25.1377C4.98141 25.173 4.98473 25.2083 4.98806 25.2436C5.22909 27.9315 6.82244 30.0084 8.75159 30.0084C10.7073 30.0084 12.3173 27.8774 12.5251 25.1394C12.5534 24.9425 12.5683 24.7416 12.5683 24.5365C12.5683 24.3314 12.5525 24.1297 12.5251 23.9336C12.245 22.0298 10.6624 20.5723 8.75159 20.5723C6.84156 20.5723 5.25819 22.0315 4.97891 23.9353C4.95065 24.1313 4.93652 24.3323 4.93652 24.5365C4.93652 24.6202 4.93819 24.7022 4.94317 24.7842C4.95065 24.9032 4.96146 25.0213 4.97891 25.1377ZM6.39772 23.0002C6.39772 23.0002 9.03501 24.2658 10.8087 23.0002C10.8087 23.0002 11.8618 24.6431 11.5659 25.2903L12.102 24.6825C12.0995 24.8441 12.0871 25.0024 12.0646 25.1582C11.8809 27.5624 10.4688 29.4325 8.75159 29.4325C7.06348 29.4325 5.66878 27.6223 5.44935 25.2747C5.59813 25.3116 5.77933 25.383 5.97881 25.5192C5.97881 25.5183 5.60146 23.3102 6.39772 23.0002Z" fill="white"/>
<path d="M16.9625 32.5791H0.816208C0.365714 32.5791 0 32.9392 0 33.3846L0.816208 41.5657C0.816208 42.0111 1.18109 42.3712 1.63242 42.3712H16.1446C16.5959 42.3712 16.9608 42.0111 16.9608 41.5657L17.7762 33.3846C17.7779 32.9392 17.413 32.5791 16.9625 32.5791ZM8.88353 38.1379C8.48955 38.1379 8.16955 37.8213 8.16955 37.4333C8.16955 37.0437 8.48955 36.7287 8.88353 36.7287C9.27833 36.7287 9.5975 37.0445 9.5975 37.4333C9.59833 37.8221 9.27833 38.1379 8.88353 38.1379Z" fill="white"/>
</svg>
