<svg class="search" version="1.1" id="Capa_1" xmlns="http://www.w3.org/2000/svg" xmlns:xlink="http://www.w3.org/1999/xlink" x="0px" y="0px" viewBox="0 0 512 512" style="enable-background:new 0 0 512 512;" xml:space="preserve"><style type="text/css">.st0{fill:#FFFFFF;}</style><g><g><path class="st0" d="M198,47.9c-82.7,0-150,67.3-150,150s67.3,150,150,150s150-67.3,150-150S280.7,47.9,198,47.9z M198,328c-71.7,0-130-58.3-130-130s58.3-130,130-130s130,58.3,130,130S269.7,328,198,328z"/></g></g><g><g><path class="st0" d="M73,324.7l-0.8-0.8c-3.9-3.9-10.2-3.9-14.1,0c-3.9,3.9-3.9,10.2,0,14.1l0.9,0.9c1.9,1.9,4.5,2.9,7,2.9c2.6,0,5.2-1,7.1-3C76.9,334.9,76.9,328.5,73,324.7z"/></g></g><g><g><path class="st0" d="M500.1,442.4L363.8,306.2c50.1-76.8,41.5-180.9-25.8-248.2c-77.2-77.2-202.8-77.2-280,0c-32,32-52.3,74.5-56.9,119.4c-4.6,44.3,6,89.3,29.8,126.7c3,4.7,9.1,6,13.8,3.1s6-9.1,3.1-13.8C3.3,223.7,13.6,130.6,72.1,72.1c69.4-69.4,182.3-69.4,251.7,0s69.4,182.3,0,251.7c-59.9,59.9-154.3,69.2-224.6,22.3c-4.6-3.1-10.8-1.8-13.9,2.8s-1.8,10.8,2.8,13.9c33.3,22.3,71.6,33.2,109.6,33.2c38,0,75.8-10.9,108.5-32.1l33,33c0,0,0,0,0,0c0,0,0,0,0,0L442.5,500c7.7,7.7,17.9,11.9,28.8,11.9s21.1-4.2,28.8-11.9C516,484.1,516,458.3,500.1,442.4z M322.6,351.9c5.3-4.3,10.5-9,15.4-13.9c5-5,9.6-10.1,13.9-15.4l23.7,23.7c-0.1,0.1-0.1,0.1-0.2,0.2l-29.2,29.2L322.6,351.9z M485.9,485.9c-3.9,3.9-9.1,6.1-14.7,6.1s-10.8-2.2-14.7-6.1l-96.2-96.2l29.2-29.2c0.1-0.1,0.1-0.1,0.2-0.2l96.2,96.2C494,464.6,494,477.8,485.9,485.9z"/></g></g><g><g><path class="st0" d="M236.6,104.6c-5.1-2.1-11,0.3-13.1,5.4c-2.1,5.1,0.3,11,5.4,13.1c30.4,12.6,50.1,42,50.1,74.9c0,5.5,4.5,10,10,10s10-4.5,10-10C299,156.9,274.5,120.3,236.6,104.6z"/></g></g><g><g><path class="st0" d="M199.4,97c-0.5,0-0.9,0-1.4,0c-5.5,0-10,4.5-10,10c0,5.5,4.5,10,10,10c0.4,0,0.7,0,1.1,0c0,0,0.1,0,0.1,0c5.5,0,9.9-4.4,10-9.9C209.3,101.6,204.9,97,199.4,97z"/></g></g></svg>