<svg class="quality" version="1.1" id="Слой_1" xmlns="http://www.w3.org/2000/svg" xmlns:xlink="http://www.w3.org/1999/xlink" x="0px" y="0px" viewBox="0 0 511 512" style="enable-background:new 0 0 511 512;" xml:space="preserve"><style type="text/css">.st0{fill:#FFFFFF;}</style><path class="st0" d="M175.5,109.9c5.5,0,10-4.5,10-10c0-5.5-4.5-10-10-10c-5.5,0-10,4.5-10,10C165.5,105.4,170,109.9,175.5,109.9z"/><path class="st0" d="M441.5,181.4c7.3-12.8,4.5-29.1-6.8-38.6l-33.9-28.8c-1.9-1.6-3.1-3.8-3.6-6.3l-7.7-43.5C387,49.6,374.5,39,359.7,39h-44.2c-2.4,0-4.7-0.9-6.5-2.4L275.1,7.3c0,0-0.1,0-0.1-0.1c-11.3-9.6-27.8-9.6-39.1,0c0,0-0.1,0.1-0.1,0.1l-33.8,29.3c-1.9,1.6-4.2,2.4-6.6,2.4h-44.2c-14.7,0-27.3,10.6-29.9,25.3l-7.7,43.5c-0.4,2.5-1.7,4.7-3.6,6.3l-33.9,28.8c-11.2,9.6-14.1,25.8-6.7,38.6l22.1,38.8c1.2,2.2,1.7,4.7,1.3,7.2l-7.7,44.1c-2.5,14.6,5.6,28.9,19.5,34l41.5,15.3c0.8,0.3,1.6,0.7,2.3,1.2L71.5,457c-4.4,7.7,2.7,16.9,11.3,14.6l45-12.1l12.1,45c2.3,8.6,13.9,10.2,18.3,2.4l79.5-139.4l14.3-5.3c2.3-0.8,4.7-0.8,7,0l15.4,5.7l85.3,139.2c4.6,7.5,15.9,5.9,18.2-2.6l12.1-45l45,12.1c8.7,2.3,15.8-7.2,11.1-14.9l-82.9-135.2c0.5-0.3,1-0.6,1.6-0.8l41.5-15.3c13.8-5.1,22-19.4,19.5-34l-7.7-44.1c-0.4-2.5,0-5,1.3-7.2L441.5,181.4z M152.9,475.9l-8.3-31.1c-1.4-5.3-6.9-8.5-12.2-7.1l-31.5,8.4l59.9-105l13.1,23c7,12.3,21.4,18.1,34.8,14.1L152.9,475.9z M415.9,445.9l-30.4-8.2c-5.3-1.4-10.8,1.7-12.2,7.1l-8.6,32.2l-60.1-98.2c2.2,0.5,4.4,0.7,6.5,0.7c10.6,0,20.7-5.6,26.3-15.4L351,340L415.9,445.9z M402,210.3c-3.5,6.2-4.8,13.5-3.6,20.5l7.7,44.1c0.9,5.1-1.9,10.1-6.7,11.8L357.9,302c-6.2,2.3-11.5,6.6-15.1,12.2c-0.4,0.5-0.8,1.1-1,1.7l-21.9,38.3c-2.5,4.4-7.7,6.3-12.4,4.6c-1.3-0.5-40.5-14.9-41.6-15.3c-6.7-2.5-14.1-2.5-20.8,0c-0.8,0.3-18.5,6.8-41.5,15.3c-4.7,1.7-9.9-0.2-12.4-4.6l-20.6-36.1c-0.5-1.9-1.5-3.6-3-5c-3.6-5.1-8.6-9-14.4-11.2l-41.5-15.3c-4.8-1.7-7.6-6.7-6.7-11.8l7.7-44.1c1.2-7,0-14.3-3.6-20.5l-22.1-38.8c-2.6-4.5-1.6-10.1,2.3-13.5l33.9-28.8c5.4-4.6,9.1-11,10.3-18.1l7.7-43.5c0.9-5.1,5.2-8.7,10.2-8.7h44.2c7.1,0,14.1-2.6,19.6-7.3l33.8-29.3c3.8-3.2,9.3-3.2,13.1,0L296,51.8c5.5,4.6,12.4,7.2,19.5,7.2h44.2c5,0,9.3,3.7,10.2,8.7l7.7,43.5c1.2,7.1,4.9,13.5,10.3,18.1l33.9,28.8c3.9,3.3,4.9,9,2.3,13.5L402,210.3z"/><path class="st0" d="M255.5,59.7c-17.2,0-33.9,3.3-49.7,9.9c-5.1,2.1-7.5,8-5.4,13.1c2.1,5.1,8,7.5,13.1,5.4c13.3-5.5,27.5-8.3,42.1-8.3c60.7,0,110,49.3,110,110s-49.3,110-110,110s-110-49.3-110-110c0-18.8,4.8-37.4,14-53.7c2.7-4.8,1-10.9-3.8-13.6c-4.8-2.7-10.9-1-13.6,3.8c-10.8,19.3-16.5,41.2-16.5,63.5c0,71.7,58.3,130,130,130s130-58.3,130-130C385.5,118.1,327.2,59.7,255.5,59.7z"/><path class="st0" d="M216.2,202.6l-5.9,34.1c-0.6,3.8,0.9,7.5,4,9.8c3,2.2,7.1,2.6,10.5,0.8l30.6-16.1l30.6,16.1c3.4,1.8,7.4,1.5,10.5-0.8c3.1-2.2,4.6-6,4-9.8l-5.9-34.1l24.8-24.1c2.7-2.7,3.7-6.6,2.5-10.2c-1.2-3.6-4.3-6.3-8.1-6.8l-34.2-5l-15.3-31c-1.7-3.4-5.2-5.6-9-5.6c-3.8,0-7.3,2.2-9,5.6l-15.3,31l-34.2,5c-3.8,0.6-6.9,3.2-8.1,6.8s-0.2,7.6,2.5,10.2L216.2,202.6z M239.3,175.5c3.3-0.5,6.1-2.5,7.5-5.5l8.7-17.6l8.7,17.6c1.5,2.9,4.3,5,7.5,5.5l19.4,2.8l-14,13.7c-2.4,2.3-3.4,5.6-2.9,8.9l3.3,19.3l-17.3-9.1c-1.5-0.8-3.1-1.1-4.7-1.1s-3.2,0.4-4.7,1.1l-17.3,9.1l3.3-19.3c0.6-3.2-0.5-6.6-2.9-8.9l-14-13.7L239.3,175.5z"/></svg>