<svg class="ukraine" version="1.1" id="Слой_1" xmlns="http://www.w3.org/2000/svg" xmlns:xlink="http://www.w3.org/1999/xlink" x="0px" y="0px" viewBox="0 0 96.3 65.3" style="enable-background:new 0 0 96.3 65.3;" xml:space="preserve"><style type="text/css">.st0{fill:#FFFFFF;}</style><path class="st0" d="M96.1,26.3l-0.8-1.7c-0.1-0.2-0.3-0.4-0.5-0.5l-9.1-5.1c-0.5-0.3-1-0.2-1.4,0.1l-0.7,0.6l-2.4-2.8c-0.3-0.4-0.8-0.5-1.3-0.4l-3.5,1L73.9,16c-0.5-0.3-1-0.3-1.5,0.1l-0.7,0.5l-1.3-6.2c-0.1-0.6-0.6-1-1.2-1h-4.1l-0.4-1.6l0.4-0.2c0.6-0.3,0.9-0.9,0.7-1.5l-0.5-1.3l-2.1-3.7c-0.2-0.3-0.5-0.6-0.9-0.6L58.9,0c-0.3,0-0.7,0-0.9,0.3l-1.2,0.9l-1.5-1c-0.4-0.2-0.9-0.3-1.3,0c-0.4,0.2-0.6,0.6-0.6,1.1v1.6l-0.1,0.1l-1.1-0.5c-0.2-0.1-0.4-0.1-0.5-0.1h-3.8c-0.4,0-0.8,0.2-1,0.5l-3.1,4.3c-0.2,0.2-0.2,0.5-0.2,0.8c0,0,0,0-0.1,0L41,7.2c-0.3-0.1-0.7,0-0.9,0.1l-0.6,0.4l-0.6-1.2c-0.2-0.4-0.5-0.6-0.9-0.7c-0.4-0.1-0.8,0-1.1,0.3l-1.3,1.2l-1.7-1.3c-0.4-0.3-1.1-0.3-1.5,0l-1.8,1.4l-1.3-0.7l-0.3-0.8c-0.1-0.4-0.5-0.7-0.9-0.8l-6.9-1.8c-0.1,0-0.3,0-0.4,0l-7.4,0.7c-0.3,0-0.6,0.2-0.8,0.4l-1.6,1.9H9.5c-0.4,0-0.7,0.2-1,0.5C8.3,7.3,8.2,7.7,8.3,8.1l2.1,8.1l-1.3,0.5c-0.2,0.1-0.4,0.2-0.6,0.4l-5.2,7.3C3,24.8,3,25.2,3.1,25.6l0.7,1.6H3.6c-0.5,0-0.9,0.3-1.1,0.7l-2.3,5.2c-0.2,0.5-0.1,1.2,0.4,1.5L5,37.7c0.5,0.3,1.2,0.3,1.6-0.2l0.7-0.7l4.2,1.6c0.3,0.1,0.6,0.1,0.9,0l1.1-0.4l2.1,1.7c0.5,0.4,1.3,0.3,1.7-0.2l1-1.1l4.5-0.7c0.4-0.1,0.7-0.3,0.9-0.6l0.5-0.8l1.9-0.6c0.4-0.1,0.7-0.5,0.8-0.9h2.8l5.4,1.6l2.1,2.1l2.4,6.2c0.1,0.3,0.3,0.5,0.5,0.6l1.1,0.7V47h-3.9c-0.6,0-1.1,0.4-1.2,1l-0.6,3l-3.7,4.2c-0.3,0.3-0.4,0.7-0.3,1c0.1,0.4,0.3,0.7,0.6,0.9l3,1.7c0.4,0.2,1,0.2,1.3-0.1l2.2-1.6l1,1.4c0.3,0.4,0.9,0.6,1.4,0.4c0.5-0.2,0.9-0.6,0.9-1.2v-3l3.5-2.9c0.1-0.1,0.2-0.2,0.3-0.4l1.6-3.1h3.3l1.4,3.6c0.2,0.6,0.9,0.9,1.5,0.8l4.5-1.1l0.5,1l-3,1.1c-0.3,0.1-0.5,0.3-0.7,0.6l-0.9,1.6c-0.2,0.3-0.2,0.7-0.1,1c0.1,0.3,0.4,0.6,0.8,0.7l3.6,1.2c0.1,0,0.3,0.1,0.4,0.1h0.4l-0.5,3.4c-0.1,0.6,0.2,1.1,0.7,1.3l3.3,1.4c0.2,0.1,0.3,0.1,0.5,0.1c0.4,0,0.8-0.2,1-0.5l2.1-3.1h2.2c0.4,0,0.8-0.2,1-0.5l0.9-1.2l1.3,0.4c0.2,0.1,0.4,0.1,0.6,0l2.9-0.6c0.3-0.1,0.6-0.3,0.8-0.6l1.2-2c0.3-0.6,0.2-1.3-0.4-1.7L75,54.3c-0.3-0.2-0.6-0.2-0.9-0.2L69.5,55l-0.4-1.3c-0.1-0.3-0.3-0.5-0.5-0.7l-1.9-1.3l4.8-2.8l14-4.4c0.5-0.2,0.9-0.6,0.9-1.2v-2l1.1-1.3l4.9-0.8c0.4-0.1,0.7-0.3,0.9-0.6l1.5-2.5c0.1-0.2,0.2-0.4,0.2-0.6v-4.9c0-0.2,0-0.3-0.1-0.5l-0.5-1.1l1.5-1.1C96.2,27.5,96.4,26.8,96.1,26.3z M91.6,29l0.8,1.8v4.3l-1,1.7l-4.7,0.8c-0.3,0-0.6,0.2-0.7,0.4l-1.7,2c-0.2,0.2-0.3,0.5-0.3,0.8v1.6l-13.5,4.3l-4.8,2.8l-2-0.6c-0.5-0.1-1,0-1.4,0.5c-0.3,0.4-0.3,1,0,1.4l1,1.4c0.1,0.1,0.2,0.2,0.3,0.3l3.4,2.3l0.6,1.9c0.2,0.6,0.8,1,1.4,0.9l0.3-0.1c0,0-0.1,0.1-0.1,0.1L68,59.1h-2.3c-0.4,0-0.8,0.2-1,0.5l-1.9,2.8l-1.5-0.6l0.6-3.9c0.1-0.4-0.1-0.7-0.3-1c-0.2-0.3-0.6-0.4-0.9-0.4H59l-1.8-0.6l3.6-1.3c0.3-0.1,0.6-0.4,0.7-0.7c0.1-0.3,0.1-0.7,0-1l-1.6-3.1c-0.3-0.5-0.9-0.8-1.4-0.7l-4.4,1.1l-1.3-3.4c-0.2-0.5-0.6-0.8-1.2-0.8h-4.9c-0.5,0-0.9,0.3-1.1,0.7l-1.9,3.5l-3.8,3.1c-0.3,0.2-0.5,0.6-0.5,1v0.1c-0.4-0.2-0.9-0.1-1.3,0.1l-2.6,1.9l-1-0.5l2.9-3.3c0.2-0.2,0.3-0.4,0.3-0.6l0.4-2.3h4.1c0.7,0,1.2-0.6,1.2-1.2v-2.9c0-0.4-0.2-0.8-0.6-1.1l-1.3-0.8l-2.4-6c-0.1-0.2-0.2-0.3-0.3-0.4l-2.5-2.5c-0.1-0.1-0.3-0.3-0.5-0.3l-5.9-1.8c-0.1,0-0.2-0.1-0.4-0.1h-4.2c-0.7,0-1.2,0.6-1.2,1.2v0.1l-1.5,0.5c-0.3,0.1-0.5,0.3-0.7,0.5l-0.4,0.7l-4.4,0.7c-0.3,0-0.6,0.2-0.8,0.4l-0.5,0.6l-1.7-1.4c-0.3-0.3-0.8-0.3-1.2-0.2L11.9,36l-4.5-1.7c-0.5-0.2-1-0.1-1.4,0.3l-0.5,0.5l-2.7-1.9l1.6-3.5h1.3c0.4,0,0.8-0.2,1-0.6C6.9,28.8,7,28.4,6.8,28l-1.1-2.7l4.6-6.4l2-0.7c0.6-0.2,0.9-0.9,0.8-1.5l-1.9-7.7h0.3c0.4,0,0.7-0.2,1-0.5l1.6-2L20.7,6l6.1,1.5L27,8.2c0.1,0.3,0.3,0.6,0.6,0.7l2.5,1.2c0.4,0.2,0.9,0.2,1.3-0.1l1.7-1.3l1.8,1.3c0.5,0.4,1.2,0.3,1.6-0.1l0.8-0.8l0.4,0.9c0.2,0.3,0.4,0.5,0.8,0.6c0.3,0.1,0.7,0.1,1-0.1l1.3-0.8l1.6,0.4l1.4,1.4c0.2,0.2,0.5,0.4,0.9,0.4c0.3,0,0.7-0.1,0.9-0.4l1.2-1.2c0.4-0.4,0.5-1.1,0.1-1.6l-0.7-1l2.2-3.1h2.9l1.5,0.7c0.4,0.2,0.8,0.2,1.2-0.1l1.3-0.8c0.4-0.2,0.6-0.6,0.6-1l0.4,0.2c0.4,0.3,1,0.3,1.4-0.1l1.4-1.1l2.2,0.3l1.7,3L62.7,6c-0.6,0.3-0.8,0.9-0.7,1.5l1,3.6c0.1,0.5,0.6,0.9,1.2,0.9h4.1l1.5,7.2c0.1,0.4,0.4,0.8,0.8,0.9c0.4,0.1,0.9,0.1,1.2-0.2l1.5-1.3l2.1,1.3c0.3,0.2,0.7,0.2,1,0.1l3.3-1l2.7,3.2c0.4,0.5,1.2,0.6,1.8,0.1l1-0.9l8,4.5l0.2,0.4l-1.4,1C91.5,27.8,91.3,28.4,91.6,29z M70.6,57.4l3.5-0.7l0.4,0.2l-0.3,0.5l-2,0.4L70.6,57.4z"/></svg>