<svg class="breakfast" version="1.1" id="Capa_1" xmlns="http://www.w3.org/2000/svg" xmlns:xlink="http://www.w3.org/1999/xlink" x="0px" y="0px" viewBox="0 0 473.7 473.7" style="enable-background:new 0 0 473.7 473.7;" xml:space="preserve"><style type="text/css">.st0{fill:#FFFFFF;}</style><g><g><path class="st0" d="M433.3,344.2c23.2-3.7,40.3-23.8,40.4-47.3v-48c0-4.4-3.6-8-8-8H241.5c-4.4,0-8,3.6-8,8v72h-15.9v-192c0-1.1-0.2-2.2-0.6-3.1l-23.4-54.5V32.8c0-4.4-3.6-8-8-8h-144c-4.4,0-8,3.6-8,8v38.4l-23.4,54.5c-0.4,1-0.6,2-0.6,3.1v274.8c-11,8.6-12.9,24.5-4.3,35.5c4.8,6.1,12.1,9.7,19.9,9.7h392.3c3,0,5.8-1.7,7.2-4.4l13.7-27.6h35.1v-16h-72.3C419.6,387.3,431.2,366.7,433.3,344.2z M433.7,256.8h24v40c-0.1,14.5-9.9,27.2-24,30.9V256.8z M197.5,120.8h-23.7l11.9-27.7L197.5,120.8z M201.7,136.8v184h-32v-184L201.7,136.8L201.7,136.8z M49.7,40.8h128v24h-128V40.8z M46.9,80.8h126.6l-17.1,40H29.8L46.9,80.8z M25.7,136.8h128v184h-17c-7.3,0-14.3,3.2-19.1,8.7c-2,2.4-3.6,5.1-4.7,8.1L74,348.7c-9.9,2.9-17.1,11.5-18.1,21.8l-30.2,21.6V136.8z M25.3,432.8c-4,0-7.6-2.6-8.9-6.4c-1.3-3.9,0.1-8.2,3.4-10.6l38.3-27.4l8.9,44.3H25.3z M83.4,432.8l-11.6-57.9c-0.9-4.8,1.9-9.5,6.6-10.8l33.8-9.7l10.6,78.4H83.4z M139,432.8l-11.6-85.4c-0.7-5.1,2.9-9.8,8-10.5c0.4-0.1,0.8-0.1,1.2-0.1h96.9c0.1,25.2,12,49,32.3,64h-64.2v16h35.1l8,16H139z M420.7,416.8l-8,16H262.6l-8-16H420.7z M353.5,400.8h-39.9c-35.4,0-64.1-28.7-64.1-64.1v-79.9h168.1v79.9C417.6,372.1,388.9,400.8,353.5,400.8z"/></g></g><g><g><path class="st0" d="M321.5,368.8c-22.1,0-40-17.9-40-40v-8h-16v8c0,30.9,25.1,56,56,56h8v-16H321.5z"/></g></g><g><g><rect x="265.5" y="288.8" class="st0" width="16" height="16"/></g></g><g><g><path class="st0" d="M421.7,144.8h-96c-6.6,0-12-5.4-12-12s5.4-12,12-12h36c22.1,0,40-17.9,40-40h-16c0,13.3-10.7,24-24,24h-36c-15.5,0-28,12.5-28,28s12.5,28,28,28h96c6.6,0,12,5.4,12,12s-5.4,12-12,12h-116c-22.1,0-40,17.9-40,40h16c0-13.3,10.7-24,24-24h116c15.5,0,28-12.5,28-28S437.1,144.8,421.7,144.8z"/></g></g><g><g><path class="st0" d="M89.7,176.8c-17.7,0-32,14.3-32,32s14.3,32,32,32s32-14.3,32-32S107.3,176.8,89.7,176.8z M89.7,224.8c-8.8,0-16-7.2-16-16s7.2-16,16-16s16,7.2,16,16S98.5,224.8,89.7,224.8z"/></g></g><g><g><rect x="57.7" y="256.8" class="st0" width="64" height="16"/></g></g><g><g><rect x="57.7" y="288.8" class="st0" width="64" height="16"/></g></g></svg>