<?xml version="1.0" encoding="utf-8"?>
<!-- Generator: Adobe Illustrator 22.1.0, SVG Export Plug-In . SVG Version: 6.00 Build 0)  -->
<svg version="1.1" id="Слой_2" xmlns="http://www.w3.org/2000/svg" xmlns:xlink="http://www.w3.org/1999/xlink" x="0px" y="0px"
	 viewBox="0 0 72 75.2" style="enable-background:new 0 0 72 75.2;" xml:space="preserve">
<style type="text/css">
	.st0{fill:none;stroke:#EFBC5C;stroke-miterlimit:10;}
</style>
<line class="st0" x1="5.6" y1="24.6" x2="5.6" y2="46.6"/>
<path class="st0" d="M11.6,49.5c0,0-3.5-5.7-2-10.9c1.5-5.2,5-11.7,9.7-17s5.7-4.5,6.4-6c0.6-1.4,0.4-2.2,1.1-5.1
	c0.7-2.9,3.1-5.3,5.8-5.1c2.7,0.2,5.9,2.1,5.5,6.2s-1.4,4.9-3.3,6.6c-1.9,1.7-5.2,0.6-5.2,0.6l-0.2,3.4l-2.1-0.8
	c0,0,2.7-0.3,4.8,5.2c2,5.5,2.1,7.8,4.8,8.3c2.8,0.4,7.9,4.1,9.7,7.1c1.8,3,0.2,2.6-0.7,2.3c-0.9-0.3-1.3-1.6-2.1-2.4
	c-0.8-0.8-3.1-1.4-6.2-2.4c-3.1-1.1-5.1-1.8-5.5-2.7c-0.4-0.9-4.1-2.8-4.9-5.5c-0.8-2.6-0.4-3-0.4-3"/>
<path class="st0" d="M27.8,32.5c0,0-3.4,6.6-3.4,7.5c0,0.9,0.3,0.5,0.3,0.5s7.7-2.6,9.1-2.5"/>
<polygon class="st0" points="5.2,49.5 5,53.9 32.7,53.9 32.1,69.8 58.7,69.7 58.5,65.9 35.7,65.5 36,49.7 "/>
<polyline class="st0" points="9.3,53.9 9.3,58.9 14.7,58.9 14.7,53.9 "/>
<path class="st0" d="M26.7,49.6c0,0,9.6-2.6,11.2-4.3c0,0,0.6,8.4,1.4,10.4c0.7,1.8,2,7.8,1.9,8.7c-0.1,0.9-0.2,1.2-0.2,1.2"/>
<path class="st0" d="M52,65.6c0,0,1.1-0.8-0.7-1.5c-1.8-0.7-5-1.1-5.4-1.5s-1.2-0.7-0.8-2.1c0.3-1.4,0.7-7.1-0.1-10.1
	c-0.7-3-2-8.7-2.9-9.6"/>
<line class="st0" x1="20.5" y1="18" x2="20.5" y2="5.2"/>
<line class="st0" x1="12.8" y1="21.6" x2="12.8" y2="27.8"/>
<path class="st0" d="M14.8,21.8c0,0,4.6-2.8,4.1-7.1c-0.5-4.3-1.6-6-4.5-6.5s-6.9,0.3-7.4,3.8c-0.5,3.5,1.2,5.1,2.6,5.3
	c1.3,0.2,4.1,0.7,4.7-1.8c0.6-2.5-0.3-3.7-1.4-3.9c-1-0.2-3.6-0.4-3,2.9"/>
<path class="st0" d="M4.3,13.1c0,0-1.1,4.5,3.8,6.9"/>
<path class="st0" d="M51.1,59.2c3.6,1.5,9,3.4,12,0.5c2.9-2.9,4.5-5,4.3-8c-0.2-3-2.3-6.5-5.7-6.9c-3.4-0.4-7,0.5-7.4,5
	c-0.4,4.5,3.3,6.4,5.1,5.7c1.7-0.7,4.9-3,2.9-5.4c-2-2.4-4.1-1.5-4.7-0.8"/>
<path class="st0" d="M61.3,42.1c0,0,5.2-0.2,7.7,5.2"/>
<line class="st0" x1="51.1" y1="35.9" x2="51.1" y2="50.2"/>
<line class="st0" x1="58.9" y1="34.5" x2="58.9" y2="39.7"/>
<line class="st0" x1="67" y1="16.9" x2="67" y2="35"/>
<path class="st0" d="M37.7,28.8c1.1-5.7,4.6-11.9,8.7-12.9s8.5-1.6,11.5,1.5c3.1,3.1,5,5.9,3.9,10.4c-1.1,4.5-5.5,7.5-8.6,6.7
	c-3.1-0.8-6.1-1.3-6.3-5.4c-0.3-4.1,1.7-5.9,4.9-6.5c3.4-0.7,4.6,0.4,5.6,3c0.5,1.5-0.7,5.6-3.2,5.1"/>
<line class="st0" x1="43.6" y1="36.2" x2="43.5" y2="29.1"/>
<line class="st0" x1="43.5" y1="5.2" x2="43.6" y2="13.4"/>
<line class="st0" x1="51" y1="5.2" x2="51.3" y2="10"/>
<line class="st0" x1="58.7" y1="4.9" x2="58.5" y2="11.6"/>
<line class="st0" x1="67" y1="5.2" x2="67.1" y2="11.7"/>
<path class="st0" d="M47.8,12.4c0,0,7.3-2.1,13.3,3.2"/>
</svg>
