<?xml version="1.0" encoding="utf-8"?>
<!-- Generator: Adobe Illustrator 22.1.0, SVG Export Plug-In . SVG Version: 6.00 Build 0)  -->
<svg version="1.1" id="Слой_2" xmlns="http://www.w3.org/2000/svg" xmlns:xlink="http://www.w3.org/1999/xlink" x="0px" y="0px"
	 viewBox="0 0 42 43.8" style="enable-background:new 0 0 42 43.8;" xml:space="preserve">
<style type="text/css">
	.st0{fill:none;stroke:#FABF50;stroke-width:0.75;stroke-linecap:round;stroke-linejoin:round;stroke-miterlimit:10;}
	
		.st1{fill:none;stroke:#FABF50;stroke-width:0.75;stroke-linecap:round;stroke-linejoin:round;stroke-miterlimit:10;stroke-dasharray:2;}
</style>
<path class="st0" d="M3.2,39c0,0,0-17.9,0-20s5-5,9.2-0.9c0,0,0.5-7.7,4.1-12c2.8-3.3,4.9-3.9,4.9-3.9"/>
<path class="st0" d="M5.7,39.2c0,0,0-16.7,0-19.1s3-2.1,4.6-0.8s3.3,1.4,4,0.2s0.9-4.6,1.7-7.4C17,8,20.6,4.9,21.3,4.5"/>
<path class="st0" d="M3,15.4c2-1.5,4.3-2.1,7.3-1.2c0,0,0.7-6.5,6.7-12"/>
<line class="st1" x1="7.8" y1="39.2" x2="8.1" y2="20.6"/>
<path class="st0" d="M19.9,16.5c0,0-2.8-2.9-2.7-1.1s2.7,5.4,2.7,5.4s-2.7-1.9-3.2-1.2s-0.3,1.3,1,2.2"/>
<path class="st0" d="M18.5,23.2c0,0-2.7-0.2-2.5,1.7c0.2,1.9,3.6,4.3,3.6,4.3"/>
<path class="st0" d="M12,28.2c0,0,2.2-1.8,1.8-3.3c-0.3-1.5-1.3-2.6-2.4-2.3c-1.1,0.3-1.9,0.7-1.3,2.2c0.5,1.1,1.4,1.1,1.4,1.1"/>
<path class="st0" d="M39.5,39c0,0,0-17.9,0-20s-5-5-9.2-0.9c0,0-0.5-7.7-4.1-12c-2.8-3.3-4.9-3.9-4.9-3.9"/>
<path class="st0" d="M37,39.2c0,0,0-16.7,0-19.1s-3-2.1-4.6-0.8s-3.3,1.4-4,0.2s-0.9-4.6-1.7-7.4C25.7,8,22,4.9,21.3,4.5"/>
<path class="st0" d="M39.7,15.4c-2-1.5-4.3-2.1-7.3-1.2c0,0-0.7-6.5-6.7-12"/>
<line class="st1" x1="34.8" y1="39.2" x2="34.6" y2="20.6"/>
<path class="st0" d="M22.8,16.5c0,0,2.8-2.9,2.7-1.1s-2.7,5.4-2.7,5.4s2.7-1.9,3.2-1.2s0.3,1.3-1,2.2"/>
<path class="st0" d="M24.2,23.2c0,0,2.7-0.2,2.5,1.7s-3.6,4.3-3.6,4.3"/>
<path class="st0" d="M30.6,28.2c0,0-2.2-1.8-1.8-3.3s1.3-2.6,2.4-2.3c1.1,0.3,1.9,0.7,1.3,2.2c-0.5,1.1-1.4,1.1-1.4,1.1"/>
<path class="st0" d="M21.3,22c0,0-1.8,3-1,4.5c0.8,1.5,2.2,0.5,2.3,0C22.6,26,23.3,26,21.3,22z"/>
<path class="st0" d="M21.4,15.3c0,0-1.2-1.4-1.1-3s0.9-1.7,1.3-1.6c0.4,0,1.4,0.1,1.3,1.4C22.8,13.5,22.5,14.4,21.4,15.3z"/>
<polyline class="st0" points="12.1,33.7 11.1,33.7 11.1,30.5 31.9,30.4 31.9,33.7 30.6,33.7 "/>
<path class="st0" d="M21.3,39c0,0-5.2-0.5-6.4-1.4c-1-0.8-2.4-1.9-2-3.9s4.2-0.1,5.1,0.3c0.9,0.3,2-1.4,3.4-1.2
	c1.4,0.2,3.1,1.3,3.6,1.3c0.5,0,2.1-1.5,3.7-1.3c1.6,0.2,1.9,0.9,1.3,2.2c-0.6,1.3-1.6,4-8.4,4.1H21.3z"/>
<path class="st0" d="M18.2,34c0,0-0.8,3.3,3.4,5"/>
<path class="st0" d="M25,34.1c0,0-0.3,3.5-3.7,4.9"/>
<circle class="st0" cx="21.5" cy="18.5" r="0.5"/>
</svg>
