<?xml version="1.0" encoding="utf-8"?>
<!-- Generator: Adobe Illustrator 22.1.0, SVG Export Plug-In . SVG Version: 6.00 Build 0)  -->
<svg version="1.1" id="Capa_1" xmlns="http://www.w3.org/2000/svg" xmlns:xlink="http://www.w3.org/1999/xlink" x="0px" y="0px"
	 viewBox="0 0 470 470" style="enable-background:new 0 0 470 470;" xml:space="preserve">
<style type="text/css">
	.st0{fill:#FABF50;}
</style>
<path class="st0" d="M469.8,201.8c-0.4-1.9-1.6-3.7-3.2-4.7l-113.1-73.8V24.7c0-4.1-3.4-7.5-7.5-7.5h-30c-4.1,0-7.5,3.4-7.5,7.5
	v69.1l-69.4-45.3c-2.5-1.6-5.7-1.6-8.2,0L3.4,197c-1.7,1.1-2.8,2.8-3.2,4.7c-0.4,1.9,0,4,1.1,5.6L16,230c2.3,3.5,6.9,4.4,10.4,2.2
	l14.3-9.3c0.1,9.8,4.6,18.5,11.6,24.3c-7.1,5.9-11.6,14.8-11.6,24.8s4.5,18.8,11.6,24.8c-7.1,5.9-11.6,14.8-11.6,24.8
	s4.5,18.8,11.6,24.8c-7.1,5.9-11.6,14.8-11.6,24.8s4.5,18.8,11.6,24.8c-7.1,5.9-11.6,14.8-11.6,24.8c0,17.8,14.5,32.3,32.3,32.3
	h324.1c17.8,0,32.3-14.5,32.3-32.3c0-9.9-4.5-18.8-11.6-24.8c7.1-5.9,11.6-14.8,11.6-24.8s-4.5-18.8-11.6-24.8
	c7.1-5.9,11.6-14.8,11.6-24.8c0-9.9-4.5-18.8-11.6-24.8c7.1-5.9,11.6-14.8,11.6-24.8s-4.5-18.8-11.6-24.8c7-5.8,11.5-14.6,11.6-24.3
	l14.3,9.3c1.3,0.8,2.7,1.2,4.1,1.2c2.4,0,4.8-1.2,6.3-3.4l14.8-22.6C469.9,205.8,470.2,203.7,469.8,201.8z M323.5,32.2h15v81.2
	l-15-9.8V32.2z M227.5,100.8v89.3h-66V144L227.5,100.8z M308.5,144v46.2h-66v-89.3L308.5,144z M379.2,190.2h-55.7v-36.4L379.2,190.2
	z M343.8,353.7h26c-3.2,5-5,10.9-5,17.3s1.9,12.3,5,17.3h-68.5v-34.5h12.5c4.1,0,7.5-3.4,7.5-7.5s-3.4-7.5-7.5-7.5h-12.5v-34.5h68.5
	c-3.2,5-5,10.9-5,17.3c0,6.3,1.9,12.3,5,17.3h-26c-4.1,0-7.5,3.4-7.5,7.5S339.7,353.7,343.8,353.7z M126.2,388.3h-26
	c3.2-5,5-10.9,5-17.3s-1.8-12.3-5-17.3h68.5v34.5h-12.5c-4.1,0-7.5,3.4-7.5,7.5s3.4,7.5,7.5,7.5h12.5v34.5h-68.5
	c3.2-5,5-10.9,5-17.3c0-6.3-1.8-12.3-5-17.3h26c4.1,0,7.5-3.4,7.5-7.5S130.3,388.3,126.2,388.3z M168.7,289.2h-68.5
	c3.2-5,5-10.9,5-17.3s-1.8-12.3-5-17.3h68.5V289.2z M168.7,304.2v34.5h-68.5c3.2-5,5-10.9,5-17.3s-1.8-12.3-5-17.3H168.7z
	 M183.7,296.7c0,0,0-42,0-42h102.6v42c0,0,0,49.5,0,49.5c0,0,0,49.5,0,49.5c0,0,0,42,0,42H183.7V296.7z M301.3,403.3h68.5
	c-3.2,5-5,10.9-5,17.3c0,6.3,1.9,12.3,5,17.3h-68.5V403.3z M301.3,289.2v-34.5h68.5c-3.2,5-5,10.9-5,17.3s1.9,12.3,5,17.3
	L301.3,289.2L301.3,289.2z M100.2,239.7c3.2-5,5-10.9,5-17.3s-1.8-12.3-5-17.3h269.7c-3.2,5-5,10.9-5,17.3s1.9,12.3,5,17.3H100.2z
	 M146.5,190.2H90.8l55.7-36.4V190.2z M55.7,222.4c0-9.5,7.7-17.3,17.3-17.3s17.3,7.7,17.3,17.3c0,9.5-7.7,17.3-17.3,17.3
	S55.7,231.9,55.7,222.4z M55.7,271.9c0-9.5,7.7-17.3,17.3-17.3s17.3,7.7,17.3,17.3s-7.7,17.3-17.3,17.3S55.7,281.5,55.7,271.9z
	 M55.7,321.5c0-9.5,7.7-17.3,17.3-17.3s17.3,7.7,17.3,17.3c0,9.5-7.7,17.3-17.3,17.3S55.7,331,55.7,321.5z M55.7,371
	c0-9.5,7.7-17.3,17.3-17.3s17.3,7.7,17.3,17.3s-7.7,17.3-17.3,17.3S55.7,380.5,55.7,371z M55.7,420.5c0-9.5,7.7-17.3,17.3-17.3
	s17.3,7.7,17.3,17.3c0,9.5-7.7,17.3-17.3,17.3S55.7,430,55.7,420.5z M414.3,420.5c0,9.5-7.7,17.3-17.3,17.3s-17.3-7.7-17.3-17.3
	s7.7-17.3,17.3-17.3S414.3,411,414.3,420.5z M414.3,371c0,9.5-7.7,17.3-17.3,17.3s-17.3-7.7-17.3-17.3s7.7-17.3,17.3-17.3
	S414.3,361.5,414.3,371z M414.3,321.5c0,9.5-7.7,17.3-17.3,17.3s-17.3-7.7-17.3-17.3s7.7-17.3,17.3-17.3S414.3,311.9,414.3,321.5z
	 M414.3,271.9c0,9.5-7.7,17.3-17.3,17.3s-17.3-7.7-17.3-17.3s7.7-17.3,17.3-17.3S414.3,262.4,414.3,271.9z M379.8,222.4
	c0-9.5,7.7-17.3,17.3-17.3s17.3,7.7,17.3,17.3c0,9.5-7.7,17.3-17.3,17.3S379.8,231.9,379.8,222.4z M445.6,215.5l-125.3-81.9
	c0,0-81-52.9-81-52.9c0,0-0.1-0.1-0.1-0.1c0,0-0.1,0-0.1,0c-0.3-0.2-0.5-0.3-0.8-0.4c-0.1,0-0.1-0.1-0.2-0.1
	c-0.3-0.1-0.6-0.3-0.9-0.3c0,0-0.1,0-0.1,0c-0.3-0.1-0.6-0.1-0.8-0.2c-0.1,0-0.2,0-0.2,0c-0.3,0-0.6-0.1-1-0.1s-0.6,0-1,0.1
	c-0.1,0-0.2,0-0.2,0c-0.3,0-0.6,0.1-0.8,0.2c0,0-0.1,0-0.1,0c-0.3,0.1-0.6,0.2-0.9,0.3c-0.1,0-0.1,0.1-0.2,0.1
	c-0.3,0.1-0.5,0.3-0.8,0.4c0,0-0.1,0-0.1,0l-0.1,0.1c0,0-81,52.9-81,52.9c0,0-125.3,81.9-125.3,81.9l-6.6-10.1L235,63.7l217.1,141.8
	L445.6,215.5z"/>
</svg>
