<?xml version="1.0" encoding="utf-8"?>
<!-- Generator: Adobe Illustrator 22.1.0, SVG Export Plug-In . SVG Version: 6.00 Build 0)  -->
<svg version="1.1" id="Слой_1" xmlns="http://www.w3.org/2000/svg" xmlns:xlink="http://www.w3.org/1999/xlink" x="0px" y="0px"
	 viewBox="0 0 285 271.5" style="enable-background:new 0 0 285 271.5;" xml:space="preserve">
<style type="text/css">
	.st0{fill:#EFBC5C;}
	.st1{display:none;fill:#FFFFFF;}
</style>
<g>
	<path class="st0" d="M278.9,212.6c-0.9,3.7-1.5,7.6-2.7,11.2c-7.4,21.2-25.8,34.3-48.6,34.3c-66.5,0.1-132.9,0.1-199.4,0
		c-11.3,0-17.9-6.7-17.9-18c0-51.4,0-102.8,0-154.3c0-11.5,6.7-18.1,18.1-18.1c48.9,0,97.8,0,146.7,0c0.9,0,1.9,0,2.9,0
		c0.3-4.3,0.3-8.4,0.8-12.4c2.9-23.4,22.9-42,46.5-43.4c26.7-1.5,49.4,16.9,53.2,43.3c0.1,0.7,0.3,1.3,0.5,2
		C278.9,109.1,278.9,160.9,278.9,212.6z M178.2,79c-1.1,0-1.9,0-2.6,0c-49,0-97.9,0-146.9,0c-5.6,0-7.2,1.6-7.2,7.5
		c0,51.1,0,102.1,0,153.2c0,5.8,1.5,7.2,7.4,7.2c45.8,0,91.6,0,137.5,0c21.2,0,42.3,0.3,63.5-0.1c23.6-0.5,40.8-21.3,37.6-44.7
		c-2.1-15.3-13.7-28.2-28.9-32.2c-15-4-31.4,1.7-40.7,13.9c-5.4,7.1-7.9,15-8.3,23.8c-0.2,3.7-2.6,5.8-5.9,5.6
		c-3.1-0.2-5.2-2.6-5.2-6.1c0-2.9,0-5.8,0-8.7c0-29.6,0-59.3,0-88.9C178.2,99.5,178.2,89.4,178.2,79z M267.7,176c0-1.7,0-2.7,0-3.6
		c0-35.1,0-70.1,0-105.2c0-2.7-0.1-5.4-0.3-8.1c-1.3-19-17.2-34.7-35.6-36c-22-1.5-38.9,14-41.7,31.6c-1.1,7.1-0.9,14.5-0.9,21.7
		c-0.1,32.1,0,64.2,0,96.3c0,0.8,0,1.7,0,3.3c10.7-12,23.4-18.5,39-18.6C244,157.4,256.9,163.7,267.7,176z"/>
	<path class="st1" d="M178.2,79c0,10.5,0,20.5,0,30.6c0,29.6,0,59.3,0,88.9c0,2.9,0,5.8,0,8.7c0,3.5,2.1,5.9,5.2,6.1
		c3.3,0.2,5.7-1.9,5.9-5.6c0.4-8.8,2.9-16.8,8.3-23.8c9.4-12.2,25.7-17.9,40.7-13.9c15.3,4,26.8,16.9,28.9,32.2
		c3.2,23.4-13.9,44.2-37.6,44.7c-21.2,0.5-42.3,0.1-63.5,0.1c-45.8,0-91.6,0-137.5,0c-5.8,0-7.4-1.5-7.4-7.2c0-51.1,0-102.1,0-153.2
		c0-5.8,1.6-7.5,7.2-7.5c49,0,97.9,0,146.9,0C176.3,79,177,79,178.2,79z M144.6,159.6c2.3,2.3,4,4.2,5.8,5.9
		c0.8,0.8,1.6,1.6,2.6,2.2c3.5,2.1,8.3-0.3,8.2-4.4c0-1.7-1.1-3.8-2.3-5c-18-18.2-36.2-36.3-54.3-54.4c-3.3-3.3-6.3-3.3-9.5-0.1
		c-18.1,18.1-36.2,36.2-54.3,54.4c-0.8,0.8-1.6,1.9-2.1,3c-0.9,2.2,0,4.9,2,6.3c2.2,1.6,4.8,1.6,7-0.5c2.3-2.2,4.3-4.7,6.4-7.1
		c0.3,0.2,0.6,0.4,1,0.6c0,0.9,0,1.8,0,2.8c0,14.3,0.1,28.7,0,43c0,8.4,4.1,17.8,16.3,18.2c5.7,0.2,11.4,0.2,17,0
		c3.8-0.1,5.8-2.4,5.8-6.3c0.1-6.1,0-12.2,0-18.4c0-2.9,0-5.7,0-8.7c3.8,0,7.4,0,11.2,0c0,1.1,0,2,0,3c0,7.8,0,15.6,0,23.3
		c0,4.9,2.1,7,7,7.1c4.9,0,9.8,0.1,14.7,0c4.6-0.1,8.8-1.3,12.3-4.4c4-3.6,5.2-8.3,5.2-13.5C144.6,191.3,144.6,175.9,144.6,159.6z"
		/>
	<path class="st1" d="M267.7,176c-10.9-12.3-23.8-18.6-39.5-18.6c-15.6,0-28.3,6.5-39,18.6c0-1.6,0-2.4,0-3.3c0-32.1,0-64.2,0-96.3
		c0-7.2-0.2-14.6,0.9-21.7c2.8-17.7,19.7-33.2,41.7-31.6c18.4,1.3,34.2,17,35.6,36c0.2,2.7,0.3,5.4,0.3,8.1c0,35.1,0,70.1,0,105.2
		C267.7,173.4,267.7,174.3,267.7,176z"/>
	<path class="st0" d="M144.6,159.6c0,16.3,0,31.7,0,47c0,5.2-1.2,9.9-5.2,13.5c-3.5,3.1-7.7,4.4-12.3,4.4c-4.9,0.1-9.8,0.1-14.7,0
		c-4.9,0-7-2.2-7-7.1c0-7.8,0-15.6,0-23.3c0-0.9,0-1.9,0-3c-3.8,0-7.3,0-11.2,0c0,2.9,0,5.8,0,8.7c0,6.1,0,12.2,0,18.4
		c0,3.9-2,6.2-5.8,6.3c-5.7,0.2-11.4,0.2-17,0c-12.3-0.5-16.4-9.9-16.3-18.2c0.1-14.3,0-28.7,0-43c0-0.9,0-1.8,0-2.8
		c-0.3-0.2-0.6-0.4-1-0.6c-2.1,2.4-4.1,4.9-6.4,7.1c-2.2,2.1-4.7,2-7,0.5c-1.9-1.4-2.9-4-2-6.3c0.4-1.1,1.2-2.1,2.1-3
		c18.1-18.1,36.2-36.3,54.3-54.4c3.3-3.3,6.2-3.3,9.5,0.1c18.1,18.1,36.3,36.2,54.3,54.4c1.2,1.2,2.3,3.3,2.3,5
		c0.1,4.1-4.7,6.5-8.2,4.4c-1-0.6-1.8-1.4-2.6-2.2C148.6,163.8,146.9,161.9,144.6,159.6z M99.8,114.9
		c-10.7,10.7-21.2,21.3-31.8,31.7c-1.3,1.3-1.8,2.5-1.8,4.4c0.1,18.3,0,36.6,0,54.8c0,1.1,0,2.3,0.2,3.4c0.4,2.2,1.7,3.8,4,3.9
		c4.1,0.2,8.2,0,12.6,0c0-1.1,0-2,0-2.9c0-7.8,0-15.6,0-23.4c0-5.1,2-7.1,7.2-7.1c6.4,0,12.8,0,19.2,0c5.2,0,7.2,2.1,7.3,7.4
		c0,7.7,0,15.4,0,23.1c0,0.9,0,1.9,0,3.1c3.3,0,6.2,0,9.2,0c6.2,0,7.6-1.4,7.6-7.5c0-17.3-0.1-34.6,0.1-52c0-3.8-1.1-6.5-3.8-9.1
		C119.7,135,109.9,125,99.8,114.9z"/>
	<path class="st1" d="M99.8,114.9c10.1,10.1,19.9,20.1,29.9,29.8c2.7,2.6,3.8,5.3,3.8,9.1c-0.2,17.3-0.1,34.6-0.1,52
		c0,6.1-1.4,7.5-7.6,7.5c-3,0-5.9,0-9.2,0c0-1.2,0-2.2,0-3.1c0-7.7,0-15.4,0-23.1c0-5.2-2.1-7.4-7.3-7.4c-6.4,0-12.8,0-19.2,0
		c-5.1,0-7.2,2-7.2,7.1c0,7.8,0,15.6,0,23.4c0,0.9,0,1.9,0,2.9c-4.4,0-8.5,0.1-12.6,0c-2.3-0.1-3.5-1.8-4-3.9
		c-0.2-1.1-0.2-2.3-0.2-3.4c0-18.3,0-36.6,0-54.8c0-1.8,0.5-3.1,1.8-4.4C78.6,136.1,89.1,125.6,99.8,114.9z M99.8,162.8
		c2,0,4,0.1,6,0c2.9-0.2,5.1-2.5,5.2-5.3c0.1-2.6-1.8-5.3-4.6-5.5c-4.3-0.3-8.7-0.3-13.1,0c-2.8,0.2-4.7,2.8-4.6,5.5
		c0.1,2.9,2.1,5.1,5.1,5.3C95.7,163,97.7,162.8,99.8,162.8z"/>
	<path class="st0" d="M99.8,162.8c-2,0-4,0.1-6,0c-3-0.2-5-2.5-5.1-5.3c-0.1-2.7,1.8-5.3,4.6-5.5c4.3-0.3,8.7-0.3,13.1,0
		c2.8,0.2,4.7,2.9,4.6,5.5c-0.1,2.8-2.2,5.1-5.2,5.3C103.8,163,101.8,162.8,99.8,162.8z"/>
</g>
</svg>
