<?xml version="1.0" encoding="utf-8"?>
<!-- Generator: Adobe Illustrator 22.1.0, SVG Export Plug-In . SVG Version: 6.00 Build 0)  -->
<svg version="1.1" id="Capa_1" xmlns="http://www.w3.org/2000/svg" xmlns:xlink="http://www.w3.org/1999/xlink" x="0px" y="0px"
	 viewBox="0 0 349.2 349.2" style="enable-background:new 0 0 349.2 349.2;" xml:space="preserve">
<style type="text/css">
	.st0{fill:#FABF50;}
</style>
<g>
	<g>
		<path class="st0" d="M341.7,6.2H83.5c-4.1,0-7.5,3.4-7.5,7.5v149.1H7.5c-4.1,0-7.5,3.4-7.5,7.5v127.1c0,25.1,20.4,45.5,45.5,45.5
			c0.6,0,258.2,0,258.2,0c25.1,0,45.5-20.4,45.5-45.5V13.7C349.2,9.6,345.8,6.2,341.7,6.2z M15,297.5V177.8h61v119.6
			c0,16.8-13.7,30.5-30.5,30.5C28.7,327.9,15,314.3,15,297.5z M334.2,297.5c0,16.8-13.7,30.5-30.5,30.5H79.2
			c7.3-8.1,11.8-18.8,11.8-30.5V21.2h243.2L334.2,297.5L334.2,297.5z"/>
		<path class="st0" d="M202,92.9h96.1c4.1,0,7.5-3.4,7.5-7.5s-3.4-7.5-7.5-7.5H202c-4.1,0-7.5,3.4-7.5,7.5S197.9,92.9,202,92.9z"/>
		<path class="st0" d="M202,175.2h96.1c4.1,0,7.5-3.4,7.5-7.5s-3.4-7.5-7.5-7.5H202c-4.1,0-7.5,3.4-7.5,7.5S197.9,175.2,202,175.2z"
			/>
		<path class="st0" d="M202,257.6h96.1c4.1,0,7.5-3.4,7.5-7.5s-3.4-7.5-7.5-7.5H202c-4.1,0-7.5,3.4-7.5,7.5
			C194.5,254.3,197.9,257.6,202,257.6z"/>
		<path class="st0" d="M132.8,101.3c1.4,1.5,3.4,2.3,5.5,2.3c0,0,0,0,0.1,0c2.1,0,4.1-0.9,5.5-2.4L185,56.1
			c2.8-3.1,2.6-7.8-0.5-10.6c-3.1-2.8-7.8-2.6-10.6,0.5l-35.8,39.2L127,73.3c-2.8-3-7.6-3.1-10.6-0.3c-3,2.8-3.1,7.6-0.3,10.6
			L132.8,101.3z"/>
		<path class="st0" d="M173.9,131.9l-35.8,39.2L127,159.3c-2.8-3-7.6-3.1-10.6-0.3c-3,2.8-3.1,7.6-0.3,10.6l16.7,17.7
			c1.4,1.5,3.4,2.4,5.5,2.4c0,0,0,0,0.1,0c2.1,0,4.1-0.9,5.5-2.4l41.2-45.1c2.8-3.1,2.6-7.8-0.5-10.6S176.7,128.9,173.9,131.9z"/>
		<path class="st0" d="M173.9,217.9l-35.8,39.2L127,245.3c-2.8-3-7.6-3.1-10.6-0.3c-3,2.8-3.1,7.6-0.3,10.6l16.7,17.7
			c1.4,1.5,3.4,2.4,5.5,2.4c0,0,0,0,0.1,0c2.1,0,4.1-0.9,5.5-2.4L185,228c2.8-3.1,2.6-7.8-0.5-10.6
			C181.5,214.6,176.7,214.9,173.9,217.9z"/>
	</g>
</g>
</svg>
