<?xml version="1.0" encoding="utf-8"?>
<!-- Generator: Adobe Illustrator 22.1.0, SVG Export Plug-In . SVG Version: 6.00 Build 0)  -->
<svg version="1.1" id="Слой_1" xmlns="http://www.w3.org/2000/svg" xmlns:xlink="http://www.w3.org/1999/xlink" x="0px" y="0px"
	 viewBox="0 0 83.3 82.2" style="enable-background:new 0 0 83.3 82.2;" xml:space="preserve">
<style type="text/css">
	.st0{fill:#FABF50;}
</style>
<title>135all</title>
<g>
	<path class="st0" d="M71.1,2.7H25.3c-5.2,0-9.4,4.2-9.5,9.4L15.4,59h-4.6C5.9,59,2,63,2,67.8c0,6.8,5.2,12.4,12,12.8
		c0.1,0,0.3,0,0.4,0h52.8h0.1h0.5c7.1,0,12.8-5.7,12.9-12.8l0,0V12.2C80.6,6.9,76.4,2.7,71.1,2.7z M14.8,77.7
		c-5.4,0-9.8-4.4-9.8-9.8c0-3.2,2.6-5.8,5.8-5.8H55v5.8c0,3.8,1.7,7.4,4.6,9.8H14.8z M67.8,77.7c-5.4,0-9.8-4.4-9.8-9.8v-7.3
		c0-0.8-0.7-1.5-1.5-1.5H18.4l0.4-46.9c0-3.6,3-6.4,6.5-6.4h45.8c3.6,0,6.5,2.9,6.5,6.5V68C77.6,73.3,73.2,77.7,67.8,77.7z"/>
	<path class="st0" d="M29.7,21.4h17.5c0.8,0,1.5-0.7,1.5-1.5s-0.7-1.5-1.5-1.5H29.7c-0.8,0-1.5,0.7-1.5,1.5S28.8,21.4,29.7,21.4z"/>
	<path class="st0" d="M65.2,31.4H29.7c-0.8,0-1.5,0.7-1.5,1.5s0.7,1.5,1.5,1.5h35.5c0.8,0,1.5-0.7,1.5-1.5S66,31.4,65.2,31.4z"/>
	<path class="st0" d="M65.2,44.4H29.7c-0.8,0-1.5,0.7-1.5,1.5s0.7,1.5,1.5,1.5h35.5c0.8,0,1.5-0.7,1.5-1.5S66,44.4,65.2,44.4z"/>
</g>
</svg>
