<?xml version="1.0" encoding="utf-8"?>
<!-- Generator: Adobe Illustrator 22.1.0, SVG Export Plug-In . SVG Version: 6.00 Build 0)  -->
<svg version="1.1" id="Capa_1" xmlns="http://www.w3.org/2000/svg" xmlns:xlink="http://www.w3.org/1999/xlink" x="0px" y="0px"
	 viewBox="0 0 512 512" style="enable-background:new 0 0 512 512;" xml:space="preserve">
<style type="text/css">
	.st0{fill:#FABF50;}
</style>
<g>
	<g>
		<path class="st0" d="M356.4,148.1L262.5,37.2c-2.1-2.5-5.4-3.5-8.5-2.8c-3.1,0.8-5.6,3.2-6.3,6.3l-34.1,145.1
			c-0.8,3.5,0.6,7.1,3.6,9.1c1.4,1,3.1,1.4,4.8,1.4c1.7,0,3.5-0.5,5-1.6l57-40.8l64.9,8.2c3.5,0.4,6.9-1.3,8.6-4.4
			C359,154.6,358.6,150.8,356.4,148.1z M282.7,136.5c-2.1-0.3-4.3,0.3-6,1.5l-41.2,29.5l25.1-106.5l68.8,81.3L282.7,136.5z"/>
	</g>
</g>
<g>
	<g>
		<path class="st0" d="M42.7,0H8.5C3.8,0,0,3.8,0,8.5v34.1c0,4.7,3.8,8.5,8.5,8.5h34.1c4.7,0,8.5-3.8,8.5-8.5V8.5
			C51.2,3.8,47.4,0,42.7,0z M34.1,34.1H17.1V17.1h17.1L34.1,34.1L34.1,34.1z"/>
	</g>
</g>
<g>
	<g>
		<path class="st0" d="M503.5,0h-34.1c-4.7,0-8.5,3.8-8.5,8.5v34.1c0,4.7,3.8,8.5,8.5,8.5h34.1c4.7,0,8.5-3.8,8.5-8.5V8.5
			C512,3.8,508.2,0,503.5,0z M494.9,34.1h-17.1V17.1h17.1V34.1z"/>
	</g>
</g>
<g>
	<g>
		<path class="st0" d="M273.1,0h-34.1c-4.7,0-8.5,3.8-8.5,8.5v34.1c0,4.7,3.8,8.5,8.5,8.5h34.1c4.7,0,8.5-3.8,8.5-8.5V8.5
			C281.6,3.8,277.8,0,273.1,0z M264.5,34.1h-17.1V17.1h17.1V34.1z"/>
	</g>
</g>
<g>
	<g>
		<path class="st0" d="M273.1,460.8h-34.1c-4.7,0-8.5,3.8-8.5,8.5v34.1c0,4.7,3.8,8.5,8.5,8.5h34.1c4.7,0,8.5-3.8,8.5-8.5v-34.1
			C281.6,464.6,277.8,460.8,273.1,460.8z M264.5,494.9h-17.1v-17.1h17.1V494.9z"/>
	</g>
</g>
<g>
	<g>
		<path class="st0" d="M42.7,460.8H8.5c-4.7,0-8.5,3.8-8.5,8.5v34.1c0,4.7,3.8,8.5,8.5,8.5h34.1c4.7,0,8.5-3.8,8.5-8.5v-34.1
			C51.2,464.6,47.4,460.8,42.7,460.8z M34.1,494.9H17.1v-17.1h17.1L34.1,494.9L34.1,494.9z"/>
	</g>
</g>
<g>
	<g>
		<path class="st0" d="M42.7,230.4H8.5c-4.7,0-8.5,3.8-8.5,8.5v34.1c0,4.7,3.8,8.5,8.5,8.5h34.1c4.7,0,8.5-3.8,8.5-8.5v-34.1
			C51.2,234.2,47.4,230.4,42.7,230.4z M34.1,264.5H17.1v-17.1h17.1L34.1,264.5L34.1,264.5z"/>
	</g>
</g>
<g>
	<g>
		<path class="st0" d="M503.5,230.4h-34.1c-4.7,0-8.5,3.8-8.5,8.5v34.1c0,4.7,3.8,8.5,8.5,8.5h34.1c4.7,0,8.5-3.8,8.5-8.5v-34.1
			C512,234.2,508.2,230.4,503.5,230.4z M494.9,264.5h-17.1v-17.1h17.1V264.5z"/>
	</g>
</g>
<g>
	<g>
		<path class="st0" d="M503.5,460.8h-34.1c-4.7,0-8.5,3.8-8.5,8.5v34.1c0,4.7,3.8,8.5,8.5,8.5h34.1c4.7,0,8.5-3.8,8.5-8.5v-34.1
			C512,464.6,508.2,460.8,503.5,460.8z M494.9,494.9h-17.1v-17.1h17.1V494.9z"/>
	</g>
</g>
<g>
	<g>
		<path class="st0" d="M486.4,247.5c4.7,0,8.5-3.8,8.5-8.5V42.7c0-4.7-3.8-8.5-8.5-8.5h-8.5v-8.5c0-4.7-3.8-8.5-8.5-8.5H273.1
			c-4.7,0-8.5,3.8-8.5,8.5v8.5h-17.1v-8.5c0-4.7-3.8-8.5-8.5-8.5H42.7c-4.7,0-8.5,3.8-8.5,8.5v8.5h-8.5c-4.7,0-8.5,3.8-8.5,8.5
			v196.3c0,4.7,3.8,8.5,8.5,8.5h8.5v17.1h-8.5c-4.7,0-8.5,3.8-8.5,8.5v196.3c0,4.7,3.8,8.5,8.5,8.5h8.5v8.5c0,4.7,3.8,8.5,8.5,8.5
			h196.3c4.7,0,8.5-3.8,8.5-8.5v-8.5h17.1v8.5c0,4.7,3.8,8.5,8.5,8.5h196.3c4.7,0,8.5-3.8,8.5-8.5v-8.5h8.5c4.7,0,8.5-3.8,8.5-8.5
			V273.1c0-4.7-3.8-8.5-8.5-8.5h-8.5v-17.1H486.4z M469.3,281.6h8.5v179.2h-8.5c-4.7,0-8.5,3.8-8.5,8.5v8.5H281.6v-8.5
			c0-4.7-3.8-8.5-8.5-8.5h-34.1c-4.7,0-8.5,3.8-8.5,8.5v8.5H51.2v-8.5c0-4.7-3.8-8.5-8.5-8.5h-8.5V281.6h8.5c4.7,0,8.5-3.8,8.5-8.5
			v-34.1c0-4.7-3.8-8.5-8.5-8.5h-8.5V51.2h8.5c4.7,0,8.5-3.8,8.5-8.5v-8.5h179.2v8.5c0,4.7,3.8,8.5,8.5,8.5h34.1
			c4.7,0,8.5-3.8,8.5-8.5v-8.5h179.2v8.5c0,4.7,3.8,8.5,8.5,8.5h8.5v179.2h-8.5c-4.7,0-8.5,3.8-8.5,8.5v34.1
			C460.8,277.8,464.6,281.6,469.3,281.6z"/>
	</g>
</g>
</svg>
