<?xml version="1.0" encoding="utf-8"?>
<!-- Generator: Adobe Illustrator 22.1.0, SVG Export Plug-In . SVG Version: 6.00 Build 0)  -->
<svg version="1.1" id="Слой_2" xmlns="http://www.w3.org/2000/svg" xmlns:xlink="http://www.w3.org/1999/xlink" x="0px" y="0px"
	 viewBox="0 0 512 512" style="enable-background:new 0 0 512 512;" xml:space="preserve">
<style type="text/css">
	.st0{fill:none;stroke:#FABF50;stroke-width:8;stroke-miterlimit:10;}
</style>
<path class="st0" d="M471,378.7"/>
<path class="st0" d="M473.7,134"/>
<g>
	<path class="st0" d="M256,5.3"/>
	<circle class="st0" cx="256.1" cy="256.3" r="26.2"/>
	<line class="st0" x1="256" y1="5.3" x2="256" y2="230.2"/>
	<line class="st0" x1="256" y1="505.7" x2="256" y2="282.5"/>
	<path class="st0" d="M278.3,270.2"/>
	<line class="st0" x1="39.7" y1="378.7" x2="232.9" y2="268.4"/>
	<line class="st0" x1="42" y1="134" x2="233.9" y2="242.6"/>
	<path class="st0" d="M279.8,245.1"/>
	<path class="st0" d="M315.2,291"/>
	<polyline class="st0" points="256.1,327 188.2,374.8 196.6,289.1 120.2,254.5 196.6,221.5 188.2,137.3 256.1,186.7 	"/>
	<polyline class="st0" points="38,340.5 77,357.3 150.5,315.4 72,282.5 	"/>
	<line class="st0" x1="141.2" y1="402.5" x2="150.5" y2="315.4"/>
	<polyline class="st0" points="70.8,230.2 150.5,195.4 141.2,110.5 	"/>
	<polyline class="st0" points="72.8,110.5 77.7,154.2 38,170.3 	"/>
	<line class="st0" x1="256" y1="135.5" x2="188.2" y2="85.5"/>
	<line class="st0" x1="256.1" y1="46.8" x2="222.1" y2="24.5"/>
	<line class="st0" x1="255.4" y1="384.7" x2="185" y2="436"/>
	<line class="st0" x1="255.4" y1="462.7" x2="222.1" y2="488"/>
</g>
<g>
	<path class="st0" d="M256.2,5.3"/>
	<circle class="st0" cx="256.1" cy="256.3" r="26.2"/>
	<line class="st0" x1="256.2" y1="5.3" x2="256.2" y2="230.2"/>
	<line class="st0" x1="256.2" y1="505.7" x2="256.2" y2="282.5"/>
	<path class="st0" d="M233.9,270.2"/>
	<line class="st0" x1="472.6" y1="378.7" x2="279.3" y2="268.4"/>
	<line class="st0" x1="470.2" y1="134" x2="278.4" y2="242.6"/>
	<path class="st0" d="M232.5,245.1"/>
	<path class="st0" d="M197,291"/>
	<polyline class="st0" points="256.1,327 324,374.8 315.6,289.1 392,254.5 315.6,221.5 324.1,137.3 256.1,186.7 	"/>
	<polyline class="st0" points="474.2,340.5 435.2,357.3 361.8,315.4 440.2,282.5 	"/>
	<line class="st0" x1="371" y1="402.5" x2="361.8" y2="315.4"/>
	<polyline class="st0" points="441.5,230.2 361.8,195.4 371,110.5 	"/>
	<polyline class="st0" points="439.5,110.5 434.5,154.2 474.2,170.3 	"/>
	<line class="st0" x1="256.2" y1="135.5" x2="324.1" y2="85.5"/>
	<line class="st0" x1="256.1" y1="46.8" x2="290.1" y2="24.5"/>
	<line class="st0" x1="256.8" y1="384.7" x2="327.2" y2="436"/>
	<line class="st0" x1="256.8" y1="462.7" x2="290.1" y2="488"/>
</g>
</svg>
