<?xml version="1.0" encoding="utf-8"?>
<!-- Generator: Adobe Illustrator 22.1.0, SVG Export Plug-In . SVG Version: 6.00 Build 0)  -->
<svg version="1.1" id="Слой_2" xmlns="http://www.w3.org/2000/svg" xmlns:xlink="http://www.w3.org/1999/xlink" x="0px" y="0px"
	 viewBox="0 0 79.5 76" style="enable-background:new 0 0 79.5 76;" xml:space="preserve">
<style type="text/css">
	.st0{fill:none;stroke:#FABF50;stroke-miterlimit:10;}
</style>
<path class="st0" d="M22.7,66.4c0,0-4.7-2.6-8.9-1.9c-4.2,0.7-7.4,2.6-7.6,4.2h49.4h15.3c0,0-1.3-4.5-8.2-4.4s-7.9,2.2-7.9,2.2"/>
<path class="st0" d="M38.5,66.2c0,0,5-3.3,10.4-1.9c5.4,1.3,7.2,4.4,7.2,4.4"/>
<path class="st0" d="M21.3,68.7c0,0,1.5-4.1,9.4-4.4s10,4.4,10,4.4"/>
<path class="st0" d="M16.6,64.4c0,0-0.7-3.1,1.5-4.3c2.2-1.3,6-2.3,9.2-1.3s4.2,1.9,4.2,1.9"/>
<path class="st0" d="M30.7,64.3c0,0-0.7-3.7,2.3-4.8s4.4-1.2,5.5-1.2c1.1,0,3.6,0.3,5.6,1.3c2,1,2.2,2.7,2,4.3"/>
<path class="st0" d="M60.3,64.3c0,0,1-1.7-0.1-3c-1.1-1.3-3.5-2.8-6.5-2.8c-3.1,0-6.4,0.6-8.1,2.2"/>
<path class="st0" d="M43,57.8V29.3c0,0-4.1-3-12-0.5l-0.4,30.1"/>
<line class="st0" x1="40.7" y1="29.8" x2="40.7" y2="56.5"/>
<path class="st0" d="M23.4,52.2c0,0,3.1-5.4,1.4-9c-1.7-3.6-4.7-8.6-11.2-7.7S6,42.2,6.2,44.2c0.2,1.9,1.6,6.8,7,6.4
	c5.4-0.3,5.8-5.6,4.5-7.8c-1.3-2.2-5.4-2.4-6.3-0.4c-0.9,2-0.6,3,0.2,4.8"/>
<path class="st0" d="M64.6,46.6c0,0,2.2-0.9,1.6-2.8c-0.6-1.9-2.2-3.6-5.1-2.6c-2.8,1-3.1,5.5-1.1,7.7c2,2.2,8,2.2,9.3-0.9
	c1.3-3.2,2.2-7.2-0.9-9.7c-3.2-2.5-6.2-3.8-10.8-1.7c-4.7,2.1-7.7,6.8-4.5,15.6"/>
<path class="st0" d="M6.2,37.2c0,0,1.9-4.4,6-4.9s7.7,0.9,8.4,1.6"/>
<path class="st0" d="M56.2,33.4c0,0,3.8-2.9,9-0.8c5.2,2.1,5.7,5.1,5.7,5.1"/>
<path class="st0" d="M43,37.7c0,0,7.7-3.2,8.8-9.3c1.1-6,0.7-6.9,0.7-6.9l18.4-10.8V3.4L47.3,17.3c0,0-5.1-0.8-8.2,0.7
	c-3.1,1.4-8.4,3.7-10.6,8.1s-2.2,6.9,2,10.2"/>
<path class="st0" d="M43,32.6c0,0,6.4-4.4,7.3-7.8c0.9-3.4,0.4-4.8,0-5.2L70.9,7.3"/>
<path class="st0" d="M31,28.8c0,0-1.1-2.4,2.4-4.8s7.2-5.2,10.5-4c3.4,1.2,3.2,2.3,2.7,4.9C46,27.5,43,29.3,43,29.3"/>
</svg>
