<?xml version="1.0" encoding="utf-8"?>
<!-- Generator: Adobe Illustrator 22.1.0, SVG Export Plug-In . SVG Version: 6.00 Build 0)  -->
<svg version="1.1" id="Слой_2" xmlns="http://www.w3.org/2000/svg" xmlns:xlink="http://www.w3.org/1999/xlink" x="0px" y="0px"
	 viewBox="0 0 480 480" style="enable-background:new 0 0 480 480;" xml:space="preserve">
<style type="text/css">
	.st0{fill:none;stroke:#FABF50;stroke-width:8;stroke-miterlimit:10;}
</style>
<rect x="230.5" y="387.5" class="st0" width="243" height="33.5"/>
<polyline class="st0" points="4,419.7 26.7,419.7 203,419.7 "/>
<polyline class="st0" points="344,421 344,452.3 168,452.3 40.3,452.3 23.7,419.7 "/>
<line class="st0" x1="183.8" y1="419.7" x2="168" y2="452.3"/>
<line class="st0" x1="247.8" y1="421" x2="247.8" y2="452.3"/>
<line class="st0" x1="295.5" y1="421" x2="279.5" y2="452.3"/>
<polyline class="st0" points="457.5,421 457.5,452.3 424.5,452.3 410,421 "/>
<path class="st0" d="M122,419.7c0,0,41.3-17,52.3-42s11-56.7,4.3-68.3c0,0-37.3-6.3-67.7,22.3c-23.2,21.9-24.3,37.7-24,57.3
	c0.3,21.7,7,30.7,7,30.7"/>
<path class="st0" d="M145.5,312.1c0,0-2.1-50.1-41.5-67.3c0,0-39.6,17.2-41,66.5"/>
<path class="st0" d="M104.2,338.6c0,0-23.2-33.8-72.2-29.8c0,0-17,36.4,0,66.8s49.5,44.2,49.5,44.2"/>
<path class="st0" d="M432,387.5c0,0,41.5-3.7,41.5-47.5c0-27.9-20.8-47.3-44.5-47.3c-18,0-141.5,0-141.5,0s-55.2-5.7-55.2,47.3
	s57.3,47.5,57.3,47.5"/>
<path class="st0" d="M429,292.7c23.5-8.7,47.6-22.6,43.5-52.7s-27.2-44-45.5-44s-101,0-115.8,0S264,213.2,264,241.2
	s25.5,51.2,44.8,51.2"/>
<path class="st0" d="M404.5,196c0,0,28.5,10.8,28.5,33.3s-17.3,32-24.8,32h-81.1c-6.7,0-13.2-2.5-17.9-7.2c-3-3-5.3-6.9-5.3-11.9
	c0-13.3,10.7-15.5,15.5-15.5c4.8,0,54,0,54,0"/>
<path class="st0" d="M392.7,292.7c0,0,25.7,7.7,25.3,35s-27.7,30-40,30s-74.2,0-74.2,0s-17.5-1.2-17.5-17.7s11.7-17.7,17.5-17.7
	c5.8,0,53.5-0.3,53.5-0.3"/>
<polyline class="st0" points="344.8,196 344.8,132 135.6,166.8 135.1,275 "/>
<line class="st0" x1="168" y1="191.2" x2="168" y2="278.5"/>
<line class="st0" x1="240" y1="104" x2="240" y2="149.4"/>
<path class="st0" d="M239.7,27.8c0,0-28.7,34.2-31.2,56.2c-2.2,19.6,7.7,42.7,31.2,42.7S275.5,106.2,272,83S239.7,27.8,239.7,27.8z"
	/>
</svg>
