<?xml version="1.0" encoding="utf-8"?>
<!-- Generator: Adobe Illustrator 22.1.0, SVG Export Plug-In . SVG Version: 6.00 Build 0)  -->
<svg version="1.1" id="Capa_1" xmlns="http://www.w3.org/2000/svg" xmlns:xlink="http://www.w3.org/1999/xlink" x="0px" y="0px"
	 viewBox="0 0 512 279" style="enable-background:new 0 0 512 279;" xml:space="preserve">
<style type="text/css">
	.st0{fill:#FABF50;}
</style>
<g>
	<g>
		<path class="st0" d="M53.2,165c-13.5,0-24,15.1-24,34.3s10.5,34.3,24,34.3s24-15.1,24-34.3S66.7,165,53.2,165z M53.2,219.1
			c-3.8,0-9.4-7.7-9.4-19.7c0-12,5.6-19.7,9.4-19.7c3.8,0,9.4,7.7,9.4,19.7C62.7,211.4,57.1,219.1,53.2,219.1z"/>
	</g>
</g>
<g>
	<g>
		<path class="st0" d="M458.8,131.7h-13c12.3-12.4,20.3-31.6,20.3-53c0-37.3-23.9-67.6-53.2-67.6H99.1c-29.3,0-53.2,30.3-53.2,67.6
			c0,21.5,7.9,40.6,20.3,53h-13c0,0,0,0,0,0C23.9,131.7,0,162,0,199.3s23.9,67.6,53.2,67.6c0,0,0,0,0,0h91.8c0,0,0,0,0,0s0,0,0,0
			h290.7h23c29.3,0,53.2-30.3,53.2-67.6S488.1,131.7,458.8,131.7z M412.9,25.6c21.3,0,38.6,23.8,38.6,53s-17.3,53-38.6,53H132.1
			c12.3-12.4,20.3-31.6,20.3-53s-7.9-40.6-20.3-53H412.9z M60.5,78.7c0-29.2,17.3-53,38.6-53s38.6,23.8,38.6,53s-17.3,53-38.6,53
			C77.8,131.7,60.5,107.9,60.5,78.7z M112.1,146.3c-5.2,5.2-9.6,11.7-13,19c-3.4-7.3-7.8-13.7-13-19H112.1z M53.2,252.4L53.2,252.4
			C53.2,252.4,53.2,252.4,53.2,252.4c-21.3,0-38.7-23.8-38.7-53s17.3-53,38.6-53c0,0,0,0,0,0h0c21.3,0,38.6,23.8,38.6,53
			C91.9,228.6,74.5,252.4,53.2,252.4z M86.2,252.4c5.2-5.2,9.6-11.7,13-19c3.4,7.3,7.8,13.7,13,19H86.2z M145.1,252.4L145.1,252.4
			L145.1,252.4c-21.3,0-38.7-23.8-38.7-53c0-29.2,17.3-53,38.6-53h0h0c21.3,0,38.6,23.8,38.6,53
			C183.7,228.6,166.4,252.4,145.1,252.4z M458.8,252.4h-23H178c12.3-12.4,20.3-31.6,20.3-53s-7.9-40.6-20.3-53h257.8h23
			c21.3,0,38.6,23.8,38.6,53S480.1,252.4,458.8,252.4z"/>
	</g>
</g>
<g>
	<g>
		<path class="st0" d="M145.1,165c-13.5,0-24,15.1-24,34.3c0,19.2,10.5,34.3,24,34.3s24-15.1,24-34.3S158.5,165,145.1,165z
			 M145.1,219.1c-3.8,0-9.4-7.7-9.4-19.7c0-12,5.6-19.7,9.4-19.7s9.4,7.7,9.4,19.7S148.9,219.1,145.1,219.1z"/>
	</g>
</g>
<g>
	<g>
		<path class="st0" d="M99.1,44.4c-13.5,0-24,15.1-24,34.3s10.5,34.3,24,34.3c13.5,0,24-15.1,24-34.3S112.6,44.4,99.1,44.4z
			 M99.1,98.4c-3.8,0-9.4-7.7-9.4-19.7s5.6-19.7,9.4-19.7s9.4,7.7,9.4,19.7S103,98.4,99.1,98.4z"/>
	</g>
</g>
<g>
	<g>
		<path class="st0" d="M411.1,41.8h-57.4c-8.6,0-16,4.4-22.5,8.3c-5.4,3.2-10.4,6.3-15,6.3c-5.3,0-12.1-3.3-18.7-6.6
			c-8.1-4-16.5-8-25.1-8h-98.1c-4,0-7.3,3.3-7.3,7.3s3.3,7.3,7.3,7.3h98.1c5.3,0,12.1,3.3,18.7,6.6c8.1,4,16.5,8,25.1,8
			c8.6,0,16-4.4,22.5-8.3c5.4-3.2,10.4-6.3,15-6.3h57.4c4,0,7.3-3.3,7.3-7.3S415.1,41.8,411.1,41.8z"/>
	</g>
</g>
<g>
	<g>
		<path class="st0" d="M263.6,71.4h-64.3c-14.2,0-25.7,11.5-25.7,25.7c0,14.2,11.5,25.7,25.7,25.7c4,0,7.3-3.3,7.3-7.3
			c0-4-3.3-7.3-7.3-7.3c-6.1,0-11.1-5-11.1-11.1s5-11.1,11.1-11.1h64.3c4,0,7.3-3.3,7.3-7.3C270.9,74.6,267.7,71.4,263.6,71.4z"/>
	</g>
</g>
<g>
	<g>
		<path class="st0" d="M404.8,104H296c-4,0-7.3,3.3-7.3,7.3c0,4,3.3,7.3,7.3,7.3h108.8c4,0,7.3-3.3,7.3-7.3
			C412.1,107.3,408.9,104,404.8,104z"/>
	</g>
</g>
<g>
	<g>
		<path class="st0" d="M418.7,71.4h-34.1c-4,0-7.3,3.3-7.3,7.3c0,4,3.3,7.3,7.3,7.3h34.1c4,0,7.3-3.3,7.3-7.3S422.8,71.4,418.7,71.4
			z"/>
	</g>
</g>
<g>
	<g>
		<path class="st0" d="M458.8,159.8h-98.1c-8.6,0-17,4.1-25.1,8c-6.6,3.2-13.4,6.6-18.7,6.6c-4.6,0-9.7-3-15-6.3
			c-6.5-3.9-13.9-8.3-22.5-8.3h-57.4c-4,0-7.3,3.3-7.3,7.3s3.3,7.3,7.3,7.3h57.4c4.6,0,9.7,3,15,6.3c6.5,3.9,13.9,8.3,22.5,8.3
			c8.6,0,17-4.1,25.1-8c6.6-3.2,13.4-6.6,18.7-6.6h98.1c4,0,7.3-3.3,7.3-7.3S462.8,159.8,458.8,159.8z"/>
	</g>
</g>
<g>
	<g>
		<path class="st0" d="M433.7,189.4h-64.3c-4,0-7.3,3.3-7.3,7.3s3.3,7.3,7.3,7.3h64.3c6.1,0,11.1,5,11.1,11.1s-5,11.1-11.1,11.1
			c-4,0-7.3,3.3-7.3,7.3s3.3,7.3,7.3,7.3c14.2,0,25.7-11.5,25.7-25.7C459.5,201,447.9,189.4,433.7,189.4z"/>
	</g>
</g>
<g>
	<g>
		<path class="st0" d="M337,222.1H228.2c-4,0-7.3,3.3-7.3,7.3s3.3,7.3,7.3,7.3H337c4,0,7.3-3.3,7.3-7.3
			C344.3,225.3,341.1,222.1,337,222.1z"/>
	</g>
</g>
<g>
	<g>
		<path class="st0" d="M248.4,189.4h-34.1c-4,0-7.3,3.3-7.3,7.3s3.3,7.3,7.3,7.3h34.1c4,0,7.3-3.3,7.3-7.3
			C255.7,192.7,252.4,189.4,248.4,189.4z"/>
	</g>
</g>
</svg>
