<svg width="105" height="105" viewBox="0 0 105 105" fill="none" xmlns="http://www.w3.org/2000/svg">
<g clip-path="url(#clip0_61_6001)">
<path d="M103.456 44.5951C100.611 25.9673 88.9414 3.08354 65.8889 0.688973C65.8889 0.688973 48.3864 -1.43974 31.1338 1.78633C20.8926 3.70101 11.9137 9.40106 6.23205 17.593C0.55041 25.7849 -1.34732 35.7745 0.955763 45.2972C2.45187 51.4827 3.46283 57.8845 3.18539 64.239C2.7006 75.3012 2.98029 85.6267 13.7167 92.2239C23.3035 98.1153 35.3682 103.31 46.8784 104.219C54.7005 104.838 63.4728 103.837 71.0116 101.801C109.432 91.4275 106.302 63.2203 103.456 44.5951Z" fill="#F9FFE9"/>
<path d="M15.1019 7.06327L16.1721 5.07178L16.8049 7.24225L18.266 5.51698L18.4338 7.77135L20.2215 6.38726L19.9165 8.62746L21.953 7.64532L21.1892 9.77329L23.3853 9.23598L22.1957 11.1585L24.4556 11.0895L22.8923 12.7227L25.1171 13.125L23.2481 14.3972L25.3408 15.2533L23.2481 16.1095L25.1171 17.3821L22.8923 17.7844L24.4556 19.4176L22.1957 19.3486L23.3853 21.2711L21.1892 20.7338L21.953 22.8617L19.9165 21.8796L20.2215 24.1194L18.4338 22.7357L18.266 24.9901L16.8049 23.2648L16.1721 25.4349L15.1019 23.4438L14.0316 25.4349L13.3992 23.2648L11.9381 24.9901L11.7703 22.7357L9.98258 24.1194L10.2876 21.8796L8.25079 22.8617L9.01488 20.7338L6.81882 21.2711L8.0084 19.3486L5.74857 19.4176L7.3118 17.7844L5.08703 17.3821L6.95605 16.1095L4.86328 15.2533L6.95605 14.3972L5.08703 13.125L7.3118 12.7227L5.74857 11.0895L8.0084 11.1585L6.81882 9.23598L9.01488 9.77329L8.25079 7.64532L10.2876 8.62746L9.98258 6.38726L11.7703 7.77135L11.9381 5.51698L13.3992 7.24225L14.0316 5.07178L15.1019 7.06327Z" fill="url(#paint0_linear_61_6001)"/>
<path d="M22.5169 16.8108L24.5232 16.2209L22.6784 15.2354L24.5187 14.241L22.5091 13.6604L24.1021 12.3054L22.0161 12.1555L23.2926 10.4985L21.2207 10.7856L22.125 8.89964L20.1579 9.61108L20.6501 7.57857L18.8743 8.68301L18.9329 6.5927L17.4256 8.04242L17.0486 5.9853L15.8754 7.7169L15.0789 5.7832L14.2913 7.72063L13.1099 5.99462L12.7426 8.0536L11.2282 6.61097L11.2972 8.70128L9.5158 7.60504L10.0177 9.63532L8.04766 8.93358L8.96054 10.8151L6.88754 10.538L8.17184 12.1884L6.08653 12.3487L7.68631 13.6959L5.67969 14.2861L7.52447 15.2716L5.68416 16.2661L7.69377 16.8462L6.1007 18.2016L8.18675 18.3515L6.91029 20.0082L8.98217 19.7214L8.07787 21.6074L10.045 20.896L9.55272 22.9285L11.3285 21.8237L11.2696 23.9143L12.7773 22.4646L13.1543 24.5218L14.3274 22.7901L15.124 24.7238L15.9116 22.7864L17.0929 24.5121L17.4603 22.4534L18.9743 23.8961L18.9057 21.8058L20.687 22.902L20.1851 20.8717L22.1552 21.5735L21.2419 19.692L23.3153 19.969L22.0306 18.3183L24.1163 18.1584L22.5169 16.8108Z" fill="url(#paint1_linear_61_6001)"/>
<path d="M23.2672 15.2531C23.2672 19.4292 20.1299 22.8741 16.0831 23.3581C15.7583 23.3972 15.4314 23.4165 15.1042 23.4159C10.5939 23.4159 6.9375 19.7618 6.9375 15.2531C6.9375 14.1808 7.14876 13.1191 7.5592 12.1285C7.96965 11.138 8.57125 10.2379 9.32963 9.47988C10.088 8.72182 10.9883 8.12057 11.9791 7.71048C12.97 7.3004 14.0319 7.0895 15.1042 7.08984C19.6119 7.08984 23.2672 10.7447 23.2672 15.2531Z" fill="url(#paint2_linear_61_6001)"/>
<path style="mix-blend-mode:multiply" opacity="0.2" d="M18.8493 20.0674C18.4362 21.2184 17.4655 22.3497 16.0831 23.3583C15.7583 23.3973 15.4314 23.4166 15.1042 23.4161C10.5939 23.4161 6.93751 19.762 6.93751 15.2533C6.93435 13.2806 7.64873 11.3741 8.94749 9.88916C9.012 10.4835 9.31667 11.1454 10.0547 11.8258C10.8098 12.5205 12.0184 13.2345 13.8885 13.9139C18.3534 15.5318 19.6496 17.8354 18.8493 20.0674Z" fill="url(#paint3_linear_61_6001)"/>
<g style="mix-blend-mode:soft-light" opacity="0.3">
<path d="M19.4136 19.5666C21.796 17.1845 21.796 13.3223 19.4136 10.9402C17.0312 8.55812 13.1687 8.55812 10.7863 10.9402C8.40394 13.3223 8.40394 17.1845 10.7863 19.5666C13.1687 21.9487 17.0312 21.9487 19.4136 19.5666Z" fill="white"/>
</g>
<path d="M104.183 90.5426L2.08984 89.6455V92.3003C2.08984 93.0207 2.5351 93.6337 3.13846 93.743L32.0072 98.9706C32.3489 99.0324 32.6972 99.049 33.0432 99.0198L103.075 93.0591C103.701 93.0058 104.185 92.3913 104.185 91.6512L104.183 90.5426Z" fill="url(#paint4_linear_61_6001)"/>
<path d="M67.131 86.2394L3.14239 91.096C1.99756 91.1829 1.06641 90.2593 1.06641 89.0329V39.904C1.06641 38.6777 1.99868 37.6836 3.14239 37.6836H67.131C68.0741 37.6836 68.8367 38.5822 68.8367 39.6907V84.1025C68.8374 85.211 68.0741 86.1678 67.131 86.2394Z" fill="url(#paint5_linear_61_6001)"/>
<path d="M68.1544 86.2394L4.16583 91.096C3.02212 91.1829 2.08984 90.2593 2.08984 89.0329V39.904C2.08984 38.6777 3.02212 37.6836 4.16583 37.6836H68.1544C69.0975 37.6836 69.8605 38.5822 69.8605 39.6907V84.1025C69.8605 85.211 69.0975 86.1678 68.1544 86.2394Z" fill="url(#paint6_linear_61_6001)"/>
<path d="M66.1587 83.1081L6.56037 87.326C5.6281 87.392 4.87109 86.634 4.87109 85.6332V42.6212C4.87109 41.6201 5.62847 40.805 6.56037 40.8009L66.1587 40.5361C66.937 40.5328 67.5664 41.2688 67.5664 42.1809V81.3575C67.5664 82.2695 66.9366 83.0533 66.1587 83.1081Z" fill="white"/>
<path d="M38.419 39.0275C38.419 39.4838 38.0894 39.8548 37.6829 39.8563C37.2765 39.8578 36.9453 39.4879 36.9453 39.0304C36.9453 38.5729 37.2757 38.2015 37.6829 38.2012C38.0901 38.2008 38.419 38.5707 38.419 39.0275Z" fill="white"/>
<g style="mix-blend-mode:multiply" opacity="0.2">
<path d="M52.7372 72.7649C47.8044 69.9143 43.9258 73.5263 40.1825 69.9624C37.913 67.8016 39.0265 66.1905 36.2345 62.9618C33.142 59.3856 31.1283 60.5877 28.0201 57.3687C24.0896 53.2992 26.0552 50.1328 22.6699 47.211C18.5631 43.6665 14.1341 46.947 10.2245 43.5476C8.53819 42.0815 7.61412 39.9502 7.12934 37.6831H3.30478C2.63355 37.6831 2.08984 38.2666 2.08984 38.9863V89.9135C2.08984 90.6332 2.63429 91.1753 3.30478 91.1242L68.5191 86.1524C68.8391 86.1282 69.1229 85.9287 69.3052 85.6363C64.532 85.4499 61.5983 83.7306 59.7237 81.9539C56.0561 78.478 56.6923 75.0502 52.7372 72.7649Z" fill="#B7C0CE"/>
</g>
<path d="M70.7051 86.0208L2.08984 91.131L32.0072 96.5488C32.3489 96.6107 32.6972 96.6271 33.0432 96.5976L104.183 90.5426L71.7962 86.0536C71.4347 86.004 71.069 85.993 70.7051 86.0208Z" fill="url(#paint7_linear_61_6001)"/>
<path style="mix-blend-mode:multiply" opacity="0.3" d="M12.1016 91.2598L69.2253 86.9404L86.9045 89.3712L30.2727 93.9884L12.1016 91.2598Z" fill="url(#paint8_linear_61_6001)"/>
<path d="M17.0316 44.178L10.4688 44.2011V42.0776H17.0316V44.178Z" fill="#D8DEE8"/>
<path d="M51.4168 44.0579L21.1992 44.1635V42.0776H51.4168V44.0579Z" fill="#D8DEE8"/>
<path d="M27.5338 47.6677L21.1992 47.7274V45.6412L27.5338 45.6035V47.6677Z" fill="#D8DEE8"/>
<path d="M60.763 47.3531L31.5586 47.6294V45.5794L60.763 45.4053V47.3531Z" fill="#D8DEE8"/>
<path d="M27.5338 51.1932L21.1992 51.2909V49.2047L27.5338 49.1294V51.1932Z" fill="#D8DEE8"/>
<path d="M60.763 50.6808L31.5586 51.1312V49.0812L60.763 48.7329V50.6808Z" fill="#D8DEE8"/>
<path d="M17.0316 54.9435L10.4688 55.0837V52.9602L17.0316 52.8428V54.9435Z" fill="#D8DEE8"/>
<path d="M51.4168 54.2082L21.1992 54.8544V52.7682L51.4168 52.2275V54.2082Z" fill="#D8DEE8"/>
<path d="M27.5338 58.2445L21.1992 58.4179V56.3317L27.5338 56.1807V58.2445Z" fill="#D8DEE8"/>
<path d="M60.763 57.3356L31.5586 58.1343V56.0842L60.763 55.3877V57.3356Z" fill="#D8DEE8"/>
<path d="M27.5338 61.7703L21.1992 61.9809V59.8951L27.5338 59.7061V61.7703Z" fill="#D8DEE8"/>
<path d="M60.763 60.6632L31.5586 61.636V59.586L60.763 58.7153V60.6632Z" fill="#D8DEE8"/>
<path d="M27.5338 65.2958L21.1992 65.5445V63.4583L27.5338 63.2319V65.2958Z" fill="#D8DEE8"/>
<path d="M60.763 63.9908L31.5586 65.1378V63.0877L60.763 62.043V63.9908Z" fill="#D8DEE8"/>
<path d="M37.772 68.3585L31.6562 68.6352V66.5855L37.772 66.3301V68.3585Z" fill="#D8DEE8"/>
<path d="M65.2243 67.1167L41.6602 68.1823V66.1677L65.2243 65.1841V67.1167Z" fill="#D8DEE8"/>
<path d="M17.0316 72.8844L10.4688 73.2204V71.0969L17.0316 70.7837V72.8844Z" fill="#D8DEE8"/>
<path d="M51.4168 71.1242L21.1992 72.6713V70.5851L51.4168 69.1436V71.1242Z" fill="#D8DEE8"/>
<path d="M27.5338 75.8728L21.1992 76.2349V74.1487L27.5338 73.8086V75.8728Z" fill="#D8DEE8"/>
<path d="M60.763 73.9736L31.5586 75.643V73.5929L60.763 72.0254V73.9736Z" fill="#D8DEE8"/>
<path d="M27.5338 79.3983L21.1992 79.798V77.7122L27.5338 77.3345V79.3983Z" fill="#D8DEE8"/>
<path d="M60.763 77.3008L31.5586 79.1442V77.0942L60.763 75.3525V77.3008Z" fill="#D8DEE8"/>
<path d="M17.0316 83.6496L10.4688 84.103V81.9791L17.0316 81.5488V83.6496Z" fill="#D8DEE8"/>
<path d="M51.4168 81.2741L21.1992 83.3615V81.2756L51.4168 79.2935V81.2741Z" fill="#D8DEE8"/>
<path d="M76.1289 16.6513L23.3291 14.9148C21.5585 14.8567 20.1172 16.2531 20.1172 18.0343V69.4902C20.1172 71.2714 21.5585 72.6537 23.3291 72.578L76.1289 70.3236C77.6578 70.2587 78.8884 68.8728 78.8884 67.2288V19.7196C78.8895 18.0749 77.6563 16.7013 76.1289 16.6513Z" fill="url(#paint9_linear_61_6001)"/>
<g style="mix-blend-mode:soft-light" opacity="0.74">
<path d="M23.328 71.5538C22.1235 71.6037 21.1446 70.6626 21.1446 69.4519V18.0653C21.1423 17.7807 21.1976 17.4986 21.3072 17.236C21.4169 16.9733 21.5786 16.7356 21.7826 16.5372C21.9867 16.3388 22.2288 16.1837 22.4944 16.0814C22.76 15.979 23.0435 15.9316 23.328 15.9418L76.1278 17.6059C77.1682 17.6387 78.0091 18.5754 78.0091 19.694V67.2635C78.0091 68.3844 77.1682 69.3277 76.1278 69.371L23.328 71.5538Z" fill="white"/>
</g>
<path d="M76.1289 16.6513L23.3291 14.9148C21.5585 14.8567 20.1172 16.2531 20.1172 18.0343V20.3479L78.8895 21.8543V19.7196C78.8895 18.0749 77.6563 16.7013 76.1289 16.6513Z" fill="url(#paint10_linear_61_6001)"/>
<path d="M25.8279 17.8891C25.8291 18.0252 25.8029 18.1601 25.7507 18.2858C25.6985 18.4114 25.6214 18.5253 25.5242 18.6204C25.4269 18.7156 25.3114 18.7901 25.1846 18.8396C25.0579 18.889 24.9224 18.9124 24.7864 18.9082C24.5063 18.898 24.241 18.7796 24.0463 18.578C23.8516 18.3764 23.7426 18.1071 23.7422 17.8269C23.741 17.6906 23.7673 17.5555 23.8197 17.4297C23.8721 17.3038 23.9494 17.1899 24.0469 17.0947C24.1445 16.9996 24.2603 16.9251 24.3873 16.8759C24.5144 16.8266 24.6502 16.8036 24.7864 16.8082C25.066 16.8191 25.3305 16.9377 25.5246 17.1391C25.7188 17.3406 25.8274 17.6094 25.8279 17.8891Z" fill="white"/>
<path d="M29.4605 17.9951C29.4621 18.1302 29.4363 18.2642 29.3848 18.389C29.3333 18.5139 29.2571 18.6271 29.1608 18.7218C29.0644 18.8164 28.95 18.8907 28.8242 18.9401C28.6985 18.9894 28.5641 19.0128 28.429 19.009C28.1513 18.9983 27.8884 18.8805 27.6956 18.6803C27.5027 18.4801 27.3949 18.2131 27.3946 17.9351C27.393 17.7998 27.4189 17.6655 27.4705 17.5404C27.5222 17.4153 27.5987 17.302 27.6953 17.2073C27.792 17.1125 27.9068 17.0383 28.0329 16.9891C28.159 16.9399 28.2938 16.9167 28.429 16.9209C28.7064 16.9323 28.9685 17.0505 29.1607 17.2507C29.353 17.4509 29.4604 17.7176 29.4605 17.9951Z" fill="white"/>
<path d="M33.0619 18.0993C33.0638 18.2334 33.0386 18.3666 32.9877 18.4907C32.9369 18.6148 32.8615 18.7274 32.7661 18.8217C32.6706 18.916 32.5571 18.99 32.4324 19.0393C32.3076 19.0886 32.1742 19.1122 32.0401 19.1087C31.4748 19.093 31.0157 18.6146 31.0157 18.04C31.0139 17.9057 31.0392 17.7724 31.0902 17.6481C31.1412 17.5238 31.2168 17.4111 31.3125 17.3168C31.4082 17.2225 31.522 17.1486 31.6471 17.0994C31.7721 17.0502 31.9058 17.0268 32.0401 17.0307C32.6051 17.0478 33.0619 17.5247 33.0619 18.0993Z" fill="white"/>
<path d="M51.7477 26.7876L23.8594 26.2861V27.926L51.7477 28.3671V26.7876Z" fill="white"/>
<path d="M72.7148 27.1641V28.6988L75.6657 28.7454V27.217L72.7148 27.1641Z" fill="white"/>
<g style="mix-blend-mode:soft-light">
<path d="M29.7551 31.9367L23.8594 31.8737V30.1831L29.7551 30.2588V31.9367Z" fill="white"/>
<path d="M61.2535 32.2718L33.5195 31.9765V30.3071L61.2535 30.664V32.2718Z" fill="white"/>
<path d="M39.2676 34.8677L33.5195 34.8285V33.1592L39.2676 33.2114V34.8677Z" fill="white"/>
<path d="M69.9943 35.0783L42.9375 34.8926V33.2441L69.9943 33.4899V35.0783Z" fill="white"/>
<path d="M39.2676 37.6971L33.5195 37.6796V36.0103L39.2676 36.0408V37.6971Z" fill="white"/>
<path d="M69.9943 37.7917L42.9375 37.7085V36.0601L69.9943 36.2032V37.7917Z" fill="white"/>
<path d="M29.7551 40.5341L23.8594 40.5382V38.8477L29.7551 38.8562V40.5341Z" fill="white"/>
<path d="M61.2535 40.511L33.5195 40.5312V38.8618L61.2535 38.9032V40.511Z" fill="white"/>
<path d="M39.2676 43.3569L33.5195 43.3826V41.7132L39.2676 41.7002V43.3569Z" fill="white"/>
<path d="M69.9943 43.2188L42.9375 43.3403V41.6919L69.9943 41.6304V43.2188Z" fill="white"/>
<path d="M39.2676 46.1864L33.5195 46.2338V44.5645L39.2676 44.5298V46.1864Z" fill="white"/>
<path d="M69.9943 45.9322L42.9375 46.1563V44.5078L69.9943 44.3438V45.9322Z" fill="white"/>
<path d="M39.2676 49.0165L33.5195 49.0859V47.4165L39.2676 47.3599V49.0165Z" fill="white"/>
<path d="M69.9943 48.6456L42.9375 48.9722V47.3237L69.9943 47.0571V48.6456Z" fill="white"/>
<path d="M48.6318 51.6973L43.0273 51.7864V50.138L48.6318 50.0615V51.6973Z" fill="white"/>
<path d="M74.1947 51.292L52.2109 51.6406V50.0127L74.1947 49.7129V51.292Z" fill="white"/>
<path d="M29.7551 54.8626L23.8594 54.9786V53.2876L29.7551 53.1851V54.8626Z" fill="white"/>
<path d="M61.2535 54.2436L33.5195 54.7887V53.1194L61.2535 52.6357V54.2436Z" fill="white"/>
<path d="M39.2676 57.5053L33.5195 57.6399V55.9706L39.2676 55.8486V57.5053Z" fill="white"/>
<path d="M69.9943 56.7857L42.9375 57.4196V55.7711L69.9943 55.1973V56.7857Z" fill="white"/>
<path d="M39.2676 60.3354L33.5195 60.492V58.8226L39.2676 58.6787V60.3354Z" fill="white"/>
<path d="M69.9943 59.4991L42.9375 60.2355V58.587L69.9943 57.9106V59.4991Z" fill="white"/>
<path d="M29.7551 63.4598L23.8594 63.6425V61.9519L29.7551 61.7822V63.4598Z" fill="white"/>
<path d="M61.2535 62.4833L33.5195 63.3431V61.6738L61.2535 60.8755V62.4833Z" fill="white"/>
<path d="M39.2676 65.9946L33.5195 66.1948V64.5254L39.2676 64.3379V65.9946Z" fill="white"/>
<path d="M69.9943 64.9253L42.9375 65.8668V64.2184L69.9943 63.3369V64.9253Z" fill="white"/>
</g>
<g style="mix-blend-mode:soft-light" opacity="0.5">
<path d="M55.6051 36.4324C49.4383 27.4597 38.7641 30.3143 32.0115 20.4009C30.9048 18.7662 30.0266 16.9881 29.4011 15.1158L23.3291 14.9148C21.5585 14.8567 20.1172 16.2531 20.1172 18.0343V69.4902C20.1172 71.2714 21.5585 72.6537 23.3291 72.578L74.1939 70.4064C73.0285 68.7258 62.8794 62.5015 60.2575 52.9453C57.8615 44.2071 59.326 41.8457 55.6051 36.4324Z" fill="white"/>
</g>
<path d="M35.8286 55.6592C36.8996 54.5156 33.9343 50.2198 32.3472 48.3372C30.9607 46.6928 29.5358 45.0026 27.7857 45.2166C26.2494 45.4031 24.7544 47.0247 24.6645 48.5773C24.4236 52.7546 34.3057 57.2846 35.8286 55.6592Z" fill="url(#paint11_linear_61_6001)"/>
<path d="M22.967 99.8033C22.7657 99.9674 22.7284 100.376 22.706 100.644C22.6952 100.763 22.69 100.823 22.703 100.866C22.8007 101.173 23.3978 101.206 24.3341 101.302C25.8138 101.453 26.2542 101.569 26.3702 101.349C26.4787 101.143 26.2162 100.804 26.1864 100.767C26.0275 100.567 25.8321 100.494 25.4551 100.37C24.757 100.14 24.2853 100.014 24.1425 99.9763C23.2486 99.7384 23.0994 99.6959 22.967 99.8033Z" fill="url(#paint12_linear_61_6001)"/>
<path d="M23.8454 98.4517L23.9946 100.138C23.9528 100.219 23.4516 100.463 23.0534 100.254L22.6719 98.5967L23.8454 98.4517Z" fill="#D8DEE8"/>
<path d="M34.7019 99.5866C34.4602 99.8536 34.4036 100.345 34.6154 100.587C34.8272 100.829 35.1326 100.646 36.0134 100.673C36.9569 100.701 37.2034 100.924 37.8444 100.747C38.1036 100.676 38.5611 100.502 38.5529 100.317C38.5469 100.187 38.3139 100.12 37.536 99.8596C36.4318 99.4897 36.4367 99.4695 36.2021 99.4304C35.6125 99.3323 35.0211 99.2343 34.7019 99.5866Z" fill="url(#paint13_linear_61_6001)"/>
<path d="M35.3078 98.0479L35.781 99.6221C35.7437 99.7064 35.2642 99.9879 34.8514 99.8085L34.1484 98.2798L35.3078 98.0479Z" fill="#D8DEE8"/>
<path d="M31.1023 63.5742C31.2539 75.3628 32.8189 87.0906 35.7637 98.5065L33.9525 98.9938C32.4205 97.5657 30.4878 95.3173 29.5555 92.1401C28.9767 90.1676 29.1692 89.1531 28.8022 86.7294C28.2175 82.8676 27.0339 80.844 25.81 77.7298C24.7103 74.9314 23.4107 70.8247 22.7148 65.3349L31.1023 63.5742Z" fill="url(#paint14_linear_61_6001)"/>
<path d="M25.6528 63.0691C25.2831 69.7972 24.9819 76.6491 24.7492 83.625C24.5752 88.8586 24.4471 94.0255 24.3648 99.1256L22.5144 99.3538C21.6677 97.7799 21.02 96.107 20.5861 94.3734C19.9275 91.7327 20.08 90.1648 19.7914 87.4279C19.4674 84.3592 18.9949 83.6906 18.1622 79.8188C16.4699 71.9606 15.6234 68.0316 17.5115 65.5875C18.1249 64.794 20.0446 62.8036 25.6528 63.0691Z" fill="url(#paint15_linear_61_6001)"/>
<path d="M16.661 46.1612C18.6686 45.5964 20.7318 45.2519 22.814 45.1336C26.5114 44.9244 28.3603 44.82 29.6707 45.7003C32.6964 47.734 30.3538 52.4276 31.5923 64.0623C31.7694 65.7238 31.8089 67.3969 31.9372 69.0628C32.149 71.8221 32.1982 71.9712 32.0054 72.2505C30.8017 74.003 26.3111 71.3597 19.7289 72.4049C16.0457 72.9895 14.3754 74.3367 13.3663 73.365C12.1898 72.2318 13.1993 69.184 14.0681 66.5605C15.0653 63.5488 15.6813 63.5101 16.2474 61.2419C16.8392 58.8712 16.4812 57.6508 16.3891 53.9124C16.3283 51.3256 16.419 48.7374 16.661 46.1612Z" fill="url(#paint16_linear_61_6001)"/>
<g style="mix-blend-mode:multiply" opacity="0.3">
<path d="M25.6147 68.0019C23.8945 67.8673 22.7784 68.8402 21.2931 68.0821C19.257 67.0429 18.6025 63.809 18.7323 61.5196C18.9296 58.0426 20.9153 57.1257 20.573 54.8781C20.3865 53.6625 19.5199 52.0487 16.4035 50.3999C16.3621 51.7877 16.3699 52.9705 16.393 53.9101C16.4851 57.6485 16.8431 58.8693 16.2513 61.2396C15.6853 63.5077 15.0692 63.5465 14.072 66.5582C13.2032 69.1817 12.1937 72.2295 13.3702 73.3627C14.3793 74.3344 16.0496 72.9872 19.7328 72.4025C25.4044 71.5021 29.5209 73.3377 31.3221 72.7422C29.1454 69.147 27.1716 68.1231 25.6147 68.0019Z" fill="url(#paint17_linear_61_6001)"/>
</g>
<path d="M19.0074 46.3984C17.7786 45.3891 15.3081 46.5316 14.6477 46.8373C10.9648 48.5406 7.65824 53.1306 8.47752 57.9813C8.60021 58.7087 9.17001 62.1115 12.0519 63.7607C14.6518 65.2485 18.1627 64.8655 20.9759 62.7588L22.1293 61.7353L23.2637 60.5089C22.3714 59.7662 21.3453 59.2009 20.2406 58.8437C18.3701 58.24 17.0082 59.3228 16.1386 58.4996C15.5397 57.9317 15.5382 56.9279 15.6862 56.3198C15.9846 55.0941 17.066 54.7492 17.9669 53.8793C20.088 51.8349 20.4785 47.6073 19.0074 46.3984Z" fill="url(#paint18_linear_61_6001)"/>
<path d="M36.668 62.2339L20.1992 61.9878L24.5787 64.1012L36.7101 63.3074L36.668 62.2339Z" fill="url(#paint19_linear_61_6001)"/>
<path d="M19.6133 62.4255C19.6134 62.5762 19.66 62.7232 19.7468 62.8465C19.8335 62.9697 19.9562 63.0632 20.0981 63.1142L25.3594 65.1772L25.3833 63.7469L20.1958 61.9877C20.1279 61.9681 20.0563 61.9645 19.9868 61.9772C19.9173 61.9899 19.8517 62.0187 19.7952 62.0611C19.7387 62.1036 19.6928 62.1586 19.6613 62.2219C19.6297 62.2851 19.6133 62.3548 19.6133 62.4255Z" fill="url(#paint20_linear_61_6001)"/>
<path d="M22.152 61.4512C22.0509 61.4284 22.6442 60.2461 23.1104 60.3825C23.5765 60.519 25.8546 61.8393 26.0619 62.3834L26.2689 62.927C26.2689 62.927 25.2751 63.0046 24.6587 62.7976C24.0423 62.5907 22.9754 61.635 22.152 61.4512Z" fill="url(#paint21_linear_61_6001)"/>
<path d="M25.8233 53.7132L24.6624 64.2825C24.6221 64.6472 25.1326 65.1905 25.4992 65.173L42.5292 64.1289C42.665 64.1224 42.7944 64.0697 42.8961 63.9796C42.9978 63.8895 43.0657 63.7673 43.0886 63.6334L45.2261 53.4261C45.2899 53.0532 44.622 52.671 44.2453 52.6803L26.399 53.1822C26.2552 53.1864 26.1176 53.2424 26.0118 53.34C25.906 53.4376 25.839 53.5701 25.8233 53.7132Z" fill="url(#paint22_linear_61_6001)"/>
<path d="M26.2114 54.0211L25.0506 64.5897C25.041 64.6756 25.0501 64.7625 25.0774 64.8445C25.1047 64.9264 25.1495 65.0015 25.2086 65.0645C25.2678 65.1275 25.3399 65.1768 25.42 65.2092C25.5001 65.2416 25.5863 65.2562 25.6726 65.2519L42.9178 64.4357C43.0534 64.4292 43.1828 64.3766 43.2845 64.2865C43.3863 64.1965 43.4542 64.0744 43.4771 63.9406L45.2391 53.6867C45.2541 53.5996 45.2496 53.5102 45.2259 53.4251C45.2021 53.34 45.1598 53.2612 45.1018 53.1944C45.0439 53.1277 44.9719 53.0746 44.891 53.0391C44.8101 53.0036 44.7222 52.9865 44.6339 52.989L26.7876 53.4905C26.6437 53.4946 26.5061 53.5505 26.4002 53.6481C26.2944 53.7456 26.2273 53.8781 26.2114 54.0211Z" fill="url(#paint23_linear_61_6001)"/>
<path style="mix-blend-mode:multiply" opacity="0.3" d="M36.3382 61.9583C34.8324 61.3203 35.3638 60.1033 33.5854 58.5868C31.2398 56.5867 28.8494 57.454 28.0119 55.9022C27.7509 55.4174 27.6267 54.6676 28.0805 53.4517L26.7884 53.4889C26.6442 53.4929 26.5063 53.5489 26.4002 53.6467C26.2942 53.7444 26.2271 53.8773 26.2115 54.0207L25.0506 64.5893C25.041 64.6752 25.0501 64.7621 25.0773 64.8441C25.1046 64.9261 25.1493 65.0013 25.2085 65.0643C25.2677 65.1273 25.3398 65.1767 25.4199 65.2091C25.5001 65.2415 25.5863 65.2561 25.6726 65.2519L42.9178 64.4356C43.0535 64.4291 43.1829 64.3765 43.2846 64.2864C43.3863 64.1964 43.4542 64.0743 43.4772 63.9405L43.7203 62.5236C43.1344 62.1934 42.5009 61.9559 41.8423 61.8196C39.3129 61.3076 38.0715 62.6932 36.3382 61.9583Z" fill="url(#paint24_linear_61_6001)"/>
<path d="M44.0024 62.9571C44.009 62.9374 44.011 62.9164 44.0082 62.8958C44.0054 62.8752 43.9978 62.8555 43.9861 62.8383C43.9744 62.8211 43.9589 62.8069 43.9407 62.7967C43.9226 62.7865 43.9023 62.7807 43.8815 62.7796C43.5168 62.761 42.6718 62.7535 42.2034 63.0406C41.5971 63.4135 40.8132 64.0895 41.4737 64.4314L42.0901 64.7506C42.1175 64.7656 42.1495 64.77 42.1799 64.7629C42.3992 64.7148 43.3211 64.5105 43.4217 64.4598C43.5153 64.4121 43.867 63.3691 44.0024 62.9571Z" fill="url(#paint25_linear_61_6001)"/>
<path d="M23.0936 41.0923C23.1036 41.9514 23.0268 42.8094 22.8646 43.6531C22.7322 44.3351 22.6368 44.5107 22.5148 44.6543C22.3314 44.8698 22.0535 45.0503 20.4825 45.4396C19.6278 45.6517 19.5178 45.6458 19.4987 45.7308C19.4066 46.1443 21.7362 47.5549 24.1459 47.2148C25.6197 47.0067 26.9606 46.1659 26.8782 45.7233C26.7958 45.2807 25.3232 45.5175 24.8847 44.7136C24.5793 44.1543 24.922 43.3604 25.3258 42.7031C24.9343 41.9704 23.4851 41.8265 23.0936 41.0923Z" fill="url(#paint26_linear_61_6001)"/>
<path d="M25.8275 41.5259C26.1754 41.064 26.197 40.2582 25.7961 39.7474C25.4512 39.3089 24.9086 39.2462 24.5834 39.2086C23.6418 39.1001 22.4541 39.4931 22.0406 40.3592C21.7959 40.873 22.3255 41.9398 22.4086 42.1319C22.5022 42.3485 22.6727 42.4231 22.8304 42.5871C23.0485 42.8146 23.3898 43.1759 23.9491 43.7803C24.0018 43.5616 24.0733 43.3479 24.1628 43.1416C24.2794 42.8734 24.4298 42.6211 24.6103 42.391C25.0999 41.7929 25.4978 41.9637 25.8275 41.5259Z" fill="url(#paint27_linear_61_6001)"/>
<path d="M23.1544 43.272C23.1544 43.272 23.7731 44.2877 25.0055 44.2075C26.109 44.1356 26.2708 41.6612 25.5649 41.1362C25.3296 40.9609 24.8586 40.8882 24.476 40.9956C24.2496 41.059 24.1732 41.153 23.8014 41.2492C23.4587 41.3383 23.3621 41.3003 23.2584 41.3871C23.129 41.496 23.0347 41.763 23.2506 42.4864C23.0399 42.2734 22.7875 42.1914 22.6081 42.2761C22.5468 42.3093 22.496 42.3589 22.4612 42.4192C22.3083 42.7019 22.5663 43.0628 23.1544 43.272Z" fill="url(#paint28_linear_61_6001)"/>
<path d="M23.209 41.2393C23.2619 41.2792 23.0993 41.4775 23.0874 41.7587C23.0635 42.3038 23.6158 42.9586 24.1789 43.0141C24.5119 43.0469 24.6033 42.8463 25.1541 42.7882C25.4224 42.7605 25.6935 42.7762 25.9569 42.8344C26.13 43.431 25.967 44.0276 25.5673 44.3057C25.1369 44.604 24.5869 44.4228 24.3572 44.3471C24.2032 44.2968 23.7105 44.1357 23.4529 43.6838C23.1844 43.2129 23.4476 42.9291 23.14 42.6107C22.9845 42.45 22.7805 42.3802 22.5806 42.0693C22.5379 42.0024 22.5005 41.9324 22.4688 41.8597C22.7548 41.5581 23.1318 41.1818 23.209 41.2393Z" fill="url(#paint29_linear_61_6001)"/>
<path d="M25.5544 43.056C25.5544 43.056 25.3161 43.1806 24.904 43.1575C24.8842 43.1575 24.8619 43.1619 24.8596 43.1724C24.8499 43.2115 25.1143 43.3868 25.3578 43.3182C25.5305 43.2697 25.6651 43.106 25.6416 43.0642C25.6319 43.0467 25.5928 43.049 25.5544 43.056Z" fill="url(#paint30_linear_61_6001)"/>
<path d="M74.7177 56.1974C74.7177 56.1974 74.2855 55.7731 74.3295 55.3704C74.3735 54.9677 75.1201 56.1098 75.3763 56.3365C75.6325 56.5632 75.6985 56.5636 75.6034 57.149C75.5083 57.7344 75.6474 58.3567 75.6474 58.3567C75.8596 58.3642 74.8419 58.4522 74.8419 58.4522C74.8419 58.4522 74.8128 57.9764 74.7028 57.8373C74.5928 57.6982 74.1834 57.5957 74.1248 57.0099C74.0663 56.4241 74.7177 56.1974 74.7177 56.1974Z" fill="url(#paint31_linear_61_6001)"/>
<path d="M83.7915 55.7979C83.7915 55.7979 81.1954 56.6883 79.6437 60.2014C78.092 63.7146 75.8076 58.0015 75.8076 58.0015L74.5195 58.1831C74.5195 58.1831 75.0368 63.9704 78.9199 64.0875C82.3249 64.1904 84.1708 61.2574 85.03 57.0123L83.7915 55.7979Z" fill="url(#paint32_linear_61_6001)"/>
<path d="M93.8281 77.1133C93.8281 77.1133 94.041 76.6558 94.2879 76.6759C94.5348 76.6961 94.7947 76.7184 95.372 77.098C95.9492 77.4776 96.2259 77.5365 96.1983 77.78C96.1707 78.0235 94.3495 77.975 93.8281 77.1133Z" fill="url(#paint33_linear_61_6001)"/>
<path d="M93.1445 77.4097C93.1904 77.3948 93.6815 77.1028 93.9605 76.9358C94.0158 76.9027 94.0804 76.8885 94.1445 76.8952C94.2087 76.9019 94.2689 76.9292 94.3162 76.973C94.3848 77.0365 94.4264 77.1239 94.4324 77.2172C94.4384 77.3105 94.4083 77.4025 94.3483 77.4742C94.1387 77.7251 93.8225 78.0909 93.5954 78.2945L93.1445 77.4097Z" fill="url(#paint34_linear_61_6001)"/>
<path d="M89.1527 89.4514C89.1528 89.473 89.1543 89.4945 89.1572 89.5159C89.171 89.6587 89.1945 89.9872 88.9297 90.2397C88.6064 90.5484 87.7897 90.6196 86.8082 90.6688C85.8267 90.7181 86.6061 90.0849 86.7456 90.013C86.8851 89.941 88.8033 89.0957 88.8033 89.0957L89.1527 89.4514Z" fill="url(#paint35_linear_61_6001)"/>
<path d="M88.4141 88.564L88.5748 89.7008C88.5748 89.7008 88.8064 89.8377 88.9775 89.5178L89.4086 88.7154L88.4141 88.564Z" fill="url(#paint36_linear_61_6001)"/>
<path d="M84.5547 66.4149C83.2122 66.3318 82.6529 67.8378 81.8944 69.1566C80.3998 71.7533 78.1918 77.3117 80.3047 80.1387C82.0835 82.5184 87.2717 81.3692 88.7943 80.8748C91.9883 79.8352 91.8581 79.5112 94.0896 78.0883C93.6981 77.7777 93.5765 77.3941 93.2506 77.0562C92.4522 76.9791 90.9512 76.9544 90.2617 76.941C89.2418 76.9213 87.4235 77.0033 86.8705 77.0462C85.9953 77.1148 84.3246 77.5514 84.0334 77.1625C83.3901 76.3049 85.2286 71.9315 85.2577 70.5045C85.2692 69.9065 85.7808 66.491 84.5547 66.4149Z" fill="url(#paint37_linear_61_6001)"/>
<path style="mix-blend-mode:multiply" opacity="0.3" d="M81.9197 69.0927C81.5688 69.636 81.2198 70.5469 80.9375 71.1696C81.2179 71.359 81.6087 71.5798 81.7105 71.8971C82.1718 73.3513 81.1791 74.6608 81.278 76.486C81.303 76.9524 81.4939 78.6318 82.3881 79.0442C83.4573 79.5364 85.5232 78.8101 86.9339 78.9883C87.6659 79.0804 88.3636 79.5991 89.1132 79.5148C90.2968 79.3821 91.0523 78.5207 92.2523 78.3492C92.5693 78.3037 93.126 78.4186 93.4587 78.552C93.663 78.4085 93.8424 78.2586 94.0333 78.1046C93.7682 77.7545 93.5418 77.4032 93.2528 77.0539C92.4511 76.9793 90.9516 76.9532 90.2621 76.9394C89.2422 76.9185 87.4228 77.0035 86.8712 77.0442C85.9971 77.1087 84.322 77.5569 84.0341 77.1609C83.3972 76.2854 85.217 71.9582 85.2647 70.4914C85.2838 69.8765 85.7424 66.5863 84.5685 66.3864C83.2812 66.1694 82.5142 68.1717 81.9197 69.0927Z" fill="url(#paint38_linear_61_6001)"/>
<path d="M83.8455 70.0519C83.7038 72.4479 85.1846 75.7568 85.0015 78.5216C84.9806 78.8367 85.0955 80.1622 85.2208 80.5351C85.6269 81.7439 88.0348 88.8941 88.0963 88.9619C88.5438 88.8695 89.0096 88.8128 89.4649 88.7143C90.0615 87.6289 90.5418 86.1177 90.8163 84.9651C91.1859 83.4136 90.4356 81.5948 90.2607 80.5616C90.0593 79.3721 90.0742 77.4295 89.9549 77.0249C89.0558 74.0095 90.1745 72.864 89.7479 70.3971C89.5272 69.1186 88.7116 68.4955 87.7819 67.7285C86.4618 69.0615 84.9698 68.579 83.8455 70.0519Z" fill="url(#paint39_linear_61_6001)"/>
<path d="M81.8333 69.032C82.1037 70.1774 83.4834 70.7326 84.9042 71.3039C85.854 71.6857 88.7903 72.8673 90.4978 71.5395C91.2168 70.9802 91.2955 70.3049 91.8086 67.8235C92.1797 66.0259 92.4866 64.6966 92.7219 63.6846C93.3133 61.1432 93.4599 60.5898 93.0676 59.6125C92.2207 57.5021 90.0925 56.5043 89.372 56.2094C89.2948 56.1777 89.2318 56.1542 89.1882 56.1348C87.3565 55.4394 83.9585 55.0822 82.5918 56.5077C81.108 58.0584 83.5558 60.1077 82.4878 64.7481C82.1656 66.1501 81.8094 67.0118 81.7419 67.8802C81.7113 68.2665 81.7421 68.6553 81.8333 69.032Z" fill="url(#paint40_linear_61_6001)"/>
<path d="M84.2483 51.8401C84.17 51.4299 83.8686 51.4195 83.8041 51.0403C83.7228 50.5645 84.0969 49.9963 84.5596 49.7513C85.0124 49.5127 85.2167 49.761 86.2042 49.7513C87.2647 49.7408 87.4295 49.45 88.2925 49.5734C88.6822 49.6201 89.0594 49.7409 89.4037 49.9291C89.7748 50.1357 90.5102 50.5455 90.6038 51.3088C90.7063 52.141 89.9642 52.7629 89.8926 52.82C90.1734 53.7857 90.0537 54.1951 89.8482 54.3752C89.8482 54.3752 89.6301 54.5669 88.5147 54.5531C88.5147 54.5531 88.2 54.9442 88.0169 55.0751C87.8084 55.2243 87.4031 55.2966 86.5294 54.8816C86.508 54.6225 86.4694 54.3652 86.4137 54.1112C86.2843 53.5188 86.2195 53.2227 86.0554 53.1668C85.6414 53.0255 85.0888 54.4718 84.5294 54.3655C84.1696 54.2973 83.8895 53.6023 83.9365 53.0419C83.9835 52.4814 84.3374 52.3054 84.2483 51.8401Z" fill="url(#paint41_linear_61_6001)"/>
<path d="M85.7261 55.1874C85.8077 55.5912 85.5538 55.938 85.1787 55.9529C84.7405 55.9701 84.2289 56.007 84.0137 56.0883C83.6318 56.2329 85.2443 56.3206 86.9298 56.6476C87.8212 56.8228 88.7242 56.9334 89.6316 56.9783C89.79 56.9854 89.8359 56.8068 89.6935 56.7359C89.1807 56.4798 88.373 56.1021 87.7047 55.8974C86.916 55.6569 86.2407 53.8384 86.2407 53.8384L85.5583 54.3563L85.7261 55.1874Z" fill="url(#paint42_linear_61_6001)"/>
<path d="M87.2451 54.6746C87.2451 54.6746 86.3527 55.6885 84.9897 55.3559C83.7699 55.0576 84.0765 52.2588 84.9685 51.8103C85.2668 51.6611 85.8071 51.6723 86.214 51.8677C86.4545 51.9833 86.5216 52.1033 86.9184 52.2846C87.2842 52.4512 87.3998 52.4277 87.4983 52.5456C87.6217 52.6947 87.675 53.0102 87.2909 53.776C87.5684 53.5792 87.8671 53.5374 88.0509 53.6672C88.1129 53.7164 88.16 53.7818 88.187 53.8562C88.3038 54.2033 87.9439 54.5561 87.2451 54.6746Z" fill="url(#paint43_linear_61_6001)"/>
<path style="mix-blend-mode:multiply" opacity="0.3" d="M81.8333 69.0316C82.1037 70.177 83.4835 70.7322 84.9042 71.3035C85.854 71.6853 88.7903 72.8669 90.4979 71.5391C91.2168 70.9798 91.2955 70.3046 91.8087 67.8231C92.1797 66.0255 92.4866 64.6962 92.7219 63.6843L90.7425 59.7363C90.7626 59.8396 91.4432 63.3293 89.8595 63.8412C88.2526 64.3599 87.0802 64.4032 86.8471 66.3719C86.6211 68.2762 87.1327 71.1864 81.7416 67.8839C81.7115 68.2689 81.7425 68.6562 81.8333 69.0316Z" fill="url(#paint44_linear_61_6001)"/>
<path d="M89.4088 70.7286C89.2812 71.0165 89.0795 71.2654 88.8245 71.4501C88.1402 71.9322 87.105 71.8655 86.9786 71.5471C86.8645 71.2588 87.4902 70.7562 87.7688 70.5672C88.3763 70.1544 89.0113 70.0925 89.3525 70.0869L89.4088 70.7286Z" fill="url(#paint45_linear_61_6001)"/>
<path d="M91.6499 57.624C91.6499 57.624 100.494 66.3891 95.5353 69.1218C90.5767 71.8546 89.2108 71.1909 89.2108 71.1909L88.9766 70.0868C88.9766 70.0868 94.7809 67.5602 93.1476 65.7645C91.5142 63.9688 86.5538 61.1167 91.6499 57.624Z" fill="url(#paint46_linear_61_6001)"/>
<path d="M63.8086 85.7728L55.1407 83.605L54.707 85.7106L62.6425 89.3725L68.9257 87.821L71.1363 83.605L63.8086 85.7728Z" fill="url(#paint47_linear_61_6001)"/>
<path d="M53.8835 83.8713C53.8507 84.3437 55.0294 84.7993 55.3248 84.9119C57.0775 85.5831 57.9538 84.9805 59.8873 85.3146C61.5501 85.5999 61.2716 86.11 62.9299 86.396C63.9934 86.5787 65.1066 86.4112 67.3328 86.0775C68.1663 85.9519 68.9225 85.8105 69.5091 85.6834C69.5098 85.6831 69.5105 85.683 69.5112 85.683C69.5119 85.683 69.5126 85.6831 69.5132 85.6834C70.2643 85.5163 70.7338 85.3665 70.7237 85.2852C70.7237 85.2736 70.7121 85.2725 70.7091 85.2568C70.6622 85.0469 72.0039 84.7721 72.011 84.4347C72.0104 84.4004 71.9983 84.3673 71.9767 84.3407C71.8055 84.1308 71.0347 83.9753 69.8787 83.5457C68.7599 83.1319 68.2006 82.9249 67.6923 82.517C66.7332 81.7433 66.4095 80.6746 66.1954 79.9725C65.9572 79.182 65.5003 77.8349 66.0985 76.3594C66.1112 76.3281 66.1239 76.2953 66.1384 76.264C66.819 74.6979 68.1931 73.8776 68.6913 73.6054C68.0835 73.0603 66.468 71.7631 63.8719 71.3052C63.0727 71.1654 61.536 70.8741 59.7218 71.3936C57.2233 72.1098 55.2293 74.045 55.5206 74.7512C55.7943 75.4176 58.019 74.7885 58.8428 76.1924C58.8904 76.2667 58.9292 76.3463 58.9584 76.4295C59.6378 78.3174 58.9584 80.0512 58.7984 80.3864C58.4978 80.9978 58.0796 81.5441 57.5678 81.9939C56.8011 82.6717 55.9837 83.0804 55.3143 83.209C54.5014 83.3362 53.9062 83.5517 53.8835 83.8713Z" fill="url(#paint48_linear_61_6001)"/>
<path style="mix-blend-mode:multiply" opacity="0.5" d="M53.8835 83.8714C53.8507 84.3438 55.0294 84.7994 55.3248 84.9121C57.0775 85.5832 57.9538 84.9807 59.8873 85.3148C61.5501 85.6 61.2716 86.1101 62.9299 86.3961C63.9934 86.5788 65.1066 86.4114 67.3328 86.0776C68.1663 85.952 68.9225 85.8107 69.5091 85.6835L69.5132 85.6805L71.9767 84.3382C71.8055 84.1283 71.0347 83.9728 69.8787 83.5432C68.7599 83.1294 68.2006 82.9224 67.6923 82.5145C66.7332 81.7408 66.4095 80.6722 66.1954 79.97C65.9572 79.1796 65.5003 77.8324 66.0985 76.3569C65.7573 76.3812 64.7254 76.5911 64.8451 78.2906C64.988 80.3254 66.4252 81.6811 63.7078 82.0566C60.9904 82.4321 64.7784 84.729 62.947 84.836C61.1157 84.943 60.2472 83.0798 55.3136 83.2084C54.5014 83.3363 53.9062 83.5518 53.8835 83.8714Z" fill="url(#paint49_linear_61_6001)"/>
<path d="M58.5026 69.7341C58.2349 69.6289 57.4686 69.0629 57.4018 68.2967C57.3567 67.7747 57.6867 67.5703 57.5957 67.0289C57.4928 66.4129 57.0188 66.3872 56.7265 65.747C56.3856 65.0013 56.5314 63.9431 57.0655 63.3513C57.4962 62.8744 57.8288 63.0881 58.5735 62.4803C59.2321 61.943 59.1377 61.641 59.5721 61.3885C60.4183 60.8982 61.1648 61.8162 62.4808 61.8121C64.3081 61.8061 64.6732 60.0287 66.0671 60.2274C67.3492 60.4101 68.591 62.1335 68.5242 63.5034C68.4974 64.0523 68.2848 64.2995 68.4336 64.8193C68.6622 65.618 69.3953 65.5863 69.7928 66.4193C70.0934 67.0494 70.1162 67.9947 69.6545 68.4511C69.1134 68.9857 68.3251 68.4369 67.7832 68.9596C67.2 69.5227 67.8257 70.4377 67.253 71.041C66.7119 71.6104 65.5786 71.4362 64.9409 71.2584C64.1712 71.044 63.4664 70.648 62.7255 70.3493C61.3483 69.7938 59.8556 70.2654 58.5026 69.7341Z" fill="url(#paint50_linear_61_6001)"/>
<path d="M64.0287 77.7701C63.61 78.5759 65.0755 80.9119 67.1164 81.1114C68.2225 81.2192 69.314 80.6819 69.9681 79.8701C70.9775 78.6173 70.665 77.0576 70.5558 76.5113C69.911 73.2893 66.1223 71.9485 65.7751 71.8311C64.8532 73.2595 64.8682 74.1604 65.0628 74.7242C65.2232 75.1891 65.6431 75.6858 66.4829 76.6795C67.2309 77.5643 67.6016 77.8794 67.4897 78.149C67.3577 78.4689 66.6417 78.4931 66.1879 78.4006C65.3474 78.2299 64.8868 77.5539 64.7667 77.3641C64.5355 77.401 64.1712 77.4931 64.0287 77.7701Z" fill="url(#paint51_linear_61_6001)"/>
<path d="M60.5421 78.2012C60.9613 79.0073 59.4954 81.3429 57.4544 81.5424C56.3484 81.6506 55.2569 81.1133 54.6032 80.3015C53.5937 79.0483 53.9058 77.4886 54.0151 76.9427C54.6602 73.7208 58.1917 71.9485 58.5396 71.8311C59.4614 73.2595 59.7031 74.5903 59.5092 75.1552C59.3488 75.6202 58.7152 75.6 57.8754 76.5933C57.1274 77.4782 56.97 78.3104 57.0811 78.58C57.2132 78.9003 57.9291 78.9241 58.3826 78.832C59.2231 78.6609 59.6837 77.9849 59.8041 77.7951C60.0338 77.832 60.3982 77.9241 60.5421 78.2012Z" fill="url(#paint52_linear_61_6001)"/>
<path d="M62.8106 69.3042C62.8106 69.3042 62.9761 70.6271 63.4643 70.9303C63.9524 71.2334 64.7419 71.629 64.8287 71.7364C64.9156 71.8438 61.8041 72.1783 60.2617 71.4008C60.77 71.2946 60.9083 71.2558 60.9083 71.2558C61.1358 71.1968 61.3551 71.11 61.5613 70.9974C61.8471 70.8322 62.0925 70.6053 62.2795 70.3333L62.2739 69.601L62.8106 69.3042Z" fill="url(#paint53_linear_61_6001)"/>
<path d="M63.1951 69.7821C63.1951 69.7821 62.4567 70.9753 61.1284 70.6024C59.9392 70.2668 60.4035 67.2268 61.2955 66.8163C61.5938 66.6795 62.1592 66.6869 62.553 66.8931C62.8296 67.0378 63.6019 67.8626 63.2719 68.8745C63.5579 68.7675 63.8212 68.825 63.8965 68.9652C63.9924 69.1423 63.7634 69.4126 63.7101 69.4723C63.575 69.6268 63.3949 69.7351 63.1951 69.7821Z" fill="url(#paint54_linear_61_6001)"/>
<path d="M62.3338 88.6878C60.9654 87.9587 59.6725 87.0962 58.4738 86.1128C56.7744 84.7138 55.9951 83.6586 54.2748 83.2417C53.9672 83.1671 52.2156 82.7424 51.6503 83.5202C51.0246 84.3812 52.2414 86.1821 52.389 86.4006C54.587 89.6536 60.1828 89.5018 61.9392 89.3963L62.3338 88.6878Z" fill="url(#paint55_linear_61_6001)"/>
<path style="mix-blend-mode:multiply" opacity="0.3" d="M51.6503 83.52C51.8155 83.2926 52.0833 83.1699 52.3853 83.1099C52.285 83.4578 52.2757 83.7844 52.4013 84.07C52.7448 84.85 53.7617 84.6099 54.4762 85.5242C55.1776 86.4232 54.6921 87.2897 55.3123 87.6604C56.023 88.0854 56.9042 87.0925 57.6657 87.5675C58.1833 87.8904 58.0222 88.5034 58.6256 88.8371C59.0425 89.0676 59.4512 88.9587 59.9259 88.899C60.4703 88.8308 61.2162 88.8159 62.1525 89.0109L61.9392 89.3946C60.184 89.5001 54.587 89.6519 52.389 86.3989C52.2414 86.1819 51.0246 84.3802 51.6503 83.52Z" fill="url(#paint56_linear_61_6001)"/>
<path d="M61.1726 89.8589C61.1726 89.8589 60.8571 89.6326 60.3992 89.7866C59.9413 89.9406 59.2137 90.0655 59.2148 90.2892C59.216 90.5129 59.9435 90.6535 60.4454 90.5614C60.9276 90.4734 61.3046 90.0554 61.1726 89.8589Z" fill="url(#paint57_linear_61_6001)"/>
<path d="M61.638 89.4761L60.7948 89.7475C60.7948 89.7475 60.658 89.9753 60.8429 90.1204C61.0279 90.2654 61.6697 89.9593 61.6697 89.9593L61.638 89.4761Z" fill="url(#paint58_linear_61_6001)"/>
<path d="M64.9936 78.2008C64.9936 78.2008 64.7084 76.6788 63.5904 76.9286C62.4724 77.1784 61.8896 77.7862 62.5436 77.9514C63.1977 78.1165 63.9827 78.1654 64.1374 78.4506C64.2922 78.7359 65.1268 78.8988 64.9936 78.2008Z" fill="url(#paint59_linear_61_6001)"/>
<path d="M54.7003 83.9604L67.9344 84.3389L65.0515 85.6033L54.6562 84.8158L54.7003 83.9604Z" fill="url(#paint60_linear_61_6001)"/>
<path d="M68.2972 84.6227C68.2995 84.7138 68.2725 84.8032 68.2201 84.8778C68.1677 84.9524 68.0928 85.0082 68.0063 85.037L64.501 86.3133L64.4727 85.3587L67.9351 84.3389C67.9781 84.3295 68.0225 84.3297 68.0654 84.3395C68.1082 84.3493 68.1484 84.3684 68.183 84.3955C68.2176 84.4227 68.2458 84.4571 68.2655 84.4963C68.2853 84.5356 68.2961 84.5788 68.2972 84.6227Z" fill="url(#paint61_linear_61_6001)"/>
<path d="M64.3134 78.738L65.0808 85.7225C65.1073 85.9634 64.7698 86.3229 64.5278 86.3113L53.2704 85.6219C53.1807 85.6176 53.0951 85.5828 53.0277 85.5233C52.9604 85.4637 52.9154 85.383 52.9001 85.2945L51.4872 78.5456C51.445 78.2998 51.8866 78.0463 52.1357 78.0534L63.9323 78.3848C64.0278 78.3875 64.1191 78.4248 64.1893 78.4897C64.2594 78.5547 64.3035 78.6429 64.3134 78.738Z" fill="url(#paint62_linear_61_6001)"/>
<path d="M64.0558 78.9415L64.8229 85.9276C64.8291 85.9843 64.823 86.0416 64.805 86.0956C64.787 86.1497 64.7575 86.1992 64.7185 86.2408C64.6795 86.2823 64.632 86.315 64.5792 86.3364C64.5264 86.3579 64.4696 86.3676 64.4127 86.365L53.0132 85.8255C52.9234 85.8212 52.8378 85.7864 52.7705 85.7269C52.7032 85.6673 52.6582 85.5866 52.6429 85.4981L51.4783 78.7197C51.4685 78.6621 51.4715 78.6031 51.4872 78.5468C51.503 78.4906 51.531 78.4385 51.5693 78.3944C51.6075 78.3503 51.6551 78.3152 51.7086 78.2917C51.762 78.2682 51.82 78.2568 51.8784 78.2585L63.675 78.5903C63.7702 78.5931 63.8611 78.6302 63.9311 78.6948C64.001 78.7593 64.0453 78.8469 64.0558 78.9415Z" fill="url(#paint63_linear_61_6001)"/>
<path style="mix-blend-mode:multiply" opacity="0.3" d="M57.3643 84.1884C58.3596 83.7663 58.0083 82.962 59.1837 81.9598C60.7342 80.6372 62.3161 81.2107 62.868 80.186C63.0403 79.8665 63.1224 79.3698 62.8225 78.5659L63.6765 78.5902C63.7718 78.5928 63.8629 78.6298 63.933 78.6944C64.0031 78.7589 64.0475 78.8467 64.058 78.9414L64.8251 85.9275C64.8313 85.9841 64.8252 86.0414 64.8072 86.0955C64.7892 86.1495 64.7597 86.1991 64.7207 86.2406C64.6817 86.2822 64.6342 86.3148 64.5814 86.3363C64.5286 86.3577 64.4718 86.3675 64.4149 86.3648L53.0154 85.8253C52.9256 85.821 52.84 85.7862 52.7727 85.7267C52.7054 85.6672 52.6604 85.5865 52.6451 85.4979L52.4844 84.5624C52.8717 84.3443 53.2905 84.1874 53.7258 84.0974C55.3975 83.7581 56.2183 84.6739 57.3643 84.1884Z" fill="url(#paint64_linear_61_6001)"/>
<path d="M72.0882 83.6053C72.6352 84.9703 69.9578 87.1457 69.3328 87.6464C68.0589 88.6673 65.4661 89.8184 61.3987 90.2867L61.0352 89.3668C61.7352 88.9459 62.4078 88.4808 63.0489 87.9745C64.4309 86.8835 64.9015 86.2153 66.7671 84.4599C68.8323 82.5176 69.4838 82.1854 70.2285 82.2119C70.8665 82.2339 71.8339 82.971 72.0882 83.6053Z" fill="url(#paint65_linear_61_6001)"/>
<path d="M78.5163 42.5941C78.5298 37.6797 73.5939 33.9205 68.0156 34.1856C64.9812 34.3302 62.422 35.6491 60.8651 37.5309C60.8554 37.5425 60.8464 37.5548 60.8367 37.5682C60.8103 37.6007 60.7845 37.6339 60.7584 37.667C60.7107 37.7272 60.6639 37.7877 60.6182 37.8486C60.5914 37.8859 60.5649 37.9213 60.5384 37.9579C60.4946 38.0188 60.4519 38.0809 60.4101 38.1443C60.3863 38.1797 60.362 38.2152 60.3385 38.251C60.2919 38.3225 60.2472 38.3949 60.2032 38.468C60.1871 38.4944 60.1703 38.5202 60.1551 38.5466C60.0969 38.6461 60.0413 38.7455 59.9884 38.8449C59.9742 38.8718 59.9611 38.899 59.9473 38.9262C59.9101 39.0008 59.8728 39.078 59.8355 39.1548C59.8179 39.1921 59.8015 39.2294 59.7844 39.2689C59.7542 39.3368 59.7247 39.4054 59.6967 39.474C59.6803 39.5142 59.6643 39.5541 59.6486 39.5944C59.6213 39.6653 59.5952 39.7365 59.5703 39.8081C59.5573 39.8453 59.5439 39.8826 59.533 39.9199C59.5035 40.0102 59.4756 40.1009 59.4495 40.1921C59.4443 40.2111 59.4379 40.2294 59.4327 40.2492C59.4021 40.361 59.3746 40.4707 59.3496 40.5825C59.3421 40.6153 59.3361 40.6489 59.3294 40.6821C59.3125 40.7621 59.297 40.8427 59.2828 40.9237C59.2761 40.9651 59.2698 41.0068 59.2634 41.0482C59.2517 41.1228 59.2415 41.1982 59.2328 41.2746C59.2276 41.3171 59.2228 41.3596 59.2187 41.4021C59.2108 41.4819 59.2045 41.5624 59.1993 41.6429C59.197 41.6802 59.1941 41.7175 59.1922 41.7548C59.1866 41.8726 59.1832 41.9908 59.1836 42.1102C59.1929 44.9488 60.9501 47.5481 63.6406 49.0705C63.892 49.2129 64.1515 49.3459 64.4193 49.4695C64.5538 49.5314 64.6905 49.5908 64.8295 49.6477C65.8514 50.0654 66.929 50.3311 68.0279 50.4363C68.1868 50.4517 68.345 50.4642 68.5026 50.4736C68.5559 50.4766 68.6089 50.4773 68.6619 50.4796C68.7666 50.4841 68.8714 50.4885 68.9755 50.4904C69.0392 50.4904 69.1023 50.4904 69.166 50.4904C69.2593 50.4904 69.3525 50.4904 69.4453 50.4878C69.5136 50.4878 69.5811 50.4826 69.6486 50.4796C69.7366 50.4759 69.8246 50.4717 69.9122 50.4658C69.9823 50.4613 70.0517 50.4553 70.121 50.4494C70.2061 50.4423 70.2907 50.4345 70.375 50.4251C70.4458 50.4172 70.5163 50.4089 70.5864 50.4002C70.6692 50.3895 70.7516 50.3779 70.8337 50.3655C70.9045 50.355 70.9746 50.3439 71.0447 50.3319C71.1265 50.3178 71.2076 50.3028 71.2879 50.2872C71.3576 50.2734 71.4273 50.26 71.4963 50.245C71.5217 50.2398 71.5478 50.2354 71.5732 50.2298C75.5219 49.3457 78.5059 46.3728 78.5163 42.5941Z" fill="url(#paint66_linear_61_6001)"/>
<path d="M77.3975 42.5139C77.386 47.3716 72.5396 50.8288 67.0791 50.299C62.1079 49.8143 58.3818 46.1415 58.3672 42.044C58.3527 37.9361 62.0717 34.4189 67.0661 34.1787C72.5546 33.9147 77.4091 37.6416 77.3975 42.5139Z" fill="url(#paint67_linear_61_6001)"/>
<path d="M63.8082 40.6054C63.4726 40.6022 63.214 40.7389 63.0325 41.0156C62.851 41.2922 62.7611 41.6767 62.7625 42.1689C62.7648 43.1972 63.1131 43.7248 63.8141 43.7524C64.111 43.7644 64.4731 43.6961 64.9004 43.5477V44.3837C64.529 44.5313 64.1295 44.5949 63.7306 44.5701C63.1218 44.5418 62.659 44.3181 62.3423 43.899C62.0255 43.4799 61.8672 42.893 61.8672 42.1383C61.8672 41.6625 61.9434 41.2465 62.0958 40.8903C62.2482 40.5341 62.4713 40.26 62.7652 40.0681C63.059 39.8764 63.4062 39.781 63.8067 39.7817C64.2184 39.7817 64.6354 39.8936 65.0578 40.1173L64.7643 40.9264C64.607 40.843 64.4451 40.7683 64.2795 40.7027C64.1296 40.6419 63.9699 40.6089 63.8082 40.6054Z" fill="white"/>
<path d="M68.789 43.3861C68.789 43.8256 68.6398 44.1654 68.3415 44.4055C68.0431 44.6456 67.6338 44.7525 67.1135 44.7262C66.6376 44.7038 66.2196 44.5891 65.8594 44.382V43.4476C66.102 43.5781 66.3548 43.6888 66.6153 43.7783C66.8001 43.8415 66.9927 43.8791 67.1877 43.8902C67.3965 43.8984 67.5572 43.8622 67.6695 43.7806C67.7817 43.6989 67.8384 43.5736 67.8384 43.404C67.8395 43.3134 67.8136 43.2246 67.7638 43.1489C67.7044 43.0635 67.6305 42.9891 67.5453 42.9293C67.4498 42.8582 67.2557 42.744 66.9628 42.5867C66.6893 42.4417 66.4856 42.305 66.3516 42.1765C66.2173 42.0484 66.1077 41.8968 66.0283 41.7291C65.9447 41.5446 65.9035 41.3438 65.9075 41.1414C65.9075 40.7208 66.0391 40.3909 66.3024 40.1518C66.5657 39.9127 66.9356 39.7927 67.4122 39.792C67.6403 39.7917 67.8673 39.8224 68.0871 39.8834C68.3202 39.9503 68.5475 40.0358 68.7669 40.1391L68.4522 40.9393C68.2565 40.8484 68.0545 40.7718 67.8477 40.71C67.696 40.6676 67.5395 40.6449 67.382 40.6425C67.2015 40.6405 67.0634 40.684 66.9677 40.773C66.9201 40.8175 66.8826 40.8716 66.8578 40.9319C66.8331 40.9921 66.8216 41.057 66.8241 41.122C66.8224 41.2043 66.8425 41.2856 66.8823 41.3577C66.9308 41.435 66.9942 41.5019 67.0687 41.5545C67.1537 41.6182 67.3556 41.7346 67.6743 41.9039C68.0989 42.1296 68.3913 42.3534 68.5514 42.5751C68.7115 42.7968 68.7907 43.0672 68.789 43.3861Z" fill="white"/>
<path d="M72.8125 43.5241C72.8125 43.9795 72.6519 44.3313 72.3307 44.5794C72.0095 44.8274 71.5707 44.9373 71.0143 44.909C70.5047 44.8841 70.0572 44.7648 69.6719 44.551V43.5842C69.932 43.7198 70.2025 43.8346 70.4807 43.9276C70.6791 43.9928 70.8852 44.0316 71.0938 44.0432C71.3175 44.0517 71.4902 44.0145 71.6106 43.9313C71.7311 43.8482 71.7919 43.7173 71.7922 43.5417C71.7935 43.4474 71.7656 43.3551 71.7124 43.2773C71.6484 43.1883 71.5692 43.1112 71.4786 43.0495C71.3762 42.9749 71.1682 42.8566 70.8547 42.6945C70.5631 42.5454 70.345 42.4032 70.2003 42.2679C70.0575 42.1364 69.9405 41.9795 69.855 41.8052C69.7658 41.6151 69.7218 41.407 69.7263 41.1971C69.7263 40.762 69.8677 40.4208 70.1503 40.1732C70.433 39.9256 70.8295 39.8013 71.3399 39.8003C71.5842 39.7999 71.8274 39.8318 72.0633 39.895C72.3129 39.9643 72.5566 40.0529 72.7924 40.1601L72.4538 40.9886C72.2436 40.8942 72.027 40.8147 71.8057 40.7507C71.6428 40.7067 71.475 40.6831 71.3063 40.6806C71.1127 40.6787 70.9646 40.7236 70.8622 40.8156C70.8115 40.8608 70.7714 40.9166 70.7447 40.979C70.7181 41.0415 70.7056 41.1091 70.7082 41.1769C70.7062 41.2623 70.7276 41.3467 70.7701 41.4208C70.8218 41.5014 70.8893 41.5706 70.9685 41.6244C71.059 41.6907 71.2751 41.8116 71.617 41.9868C72.0724 42.221 72.3857 42.4534 72.5567 42.6841C72.7277 42.9147 72.813 43.1948 72.8125 43.5241Z" fill="white"/>
<g style="mix-blend-mode:multiply" opacity="0.2">
<path d="M69.4135 48.4388C68.2389 45.9484 69.4262 43.7477 67.8417 42.1403C66.2755 40.5511 64.3073 41.9505 62.2623 40.6861C61.4915 40.2099 60.6464 39.3162 60.0248 37.498C58.9728 38.7792 58.3613 40.3483 58.3672 42.0437C58.3818 46.1412 62.1079 49.8158 67.0791 50.2987C68.246 50.4144 69.4239 50.3434 70.5684 50.0884C70.0952 49.6058 69.705 49.0485 69.4135 48.4388Z" fill="url(#paint68_linear_61_6001)"/>
</g>
<path d="M97.6715 29.8779C97.6715 24.8815 92.669 20.7426 86.7285 20.6382C83.3541 20.5793 80.423 21.8426 78.5954 23.8247C78.5842 23.8371 78.5738 23.8497 78.5622 23.862C78.5309 23.8967 78.5003 23.9321 78.4693 23.9672C78.413 24.0313 78.3575 24.0958 78.303 24.1614C78.2713 24.1987 78.2396 24.239 78.2083 24.2782C78.1566 24.3438 78.1058 24.4099 78.0558 24.4765C78.0271 24.5138 77.9984 24.553 77.9704 24.5914C77.9148 24.6686 77.8615 24.7472 77.8089 24.8259C77.7899 24.8546 77.7698 24.8826 77.7511 24.9113C77.6821 25.0187 77.6154 25.1272 77.552 25.2372C77.5348 25.2663 77.5195 25.2961 77.5031 25.3255C77.4569 25.4083 77.4114 25.4915 77.3685 25.5754C77.3473 25.6168 77.3271 25.6585 77.307 25.7003C77.2697 25.7749 77.235 25.8494 77.2015 25.924C77.1817 25.968 77.1623 26.012 77.1437 26.0564C77.1105 26.1343 77.0791 26.2126 77.0489 26.2916C77.0333 26.333 77.0169 26.3741 77.002 26.4154C76.9647 26.515 76.9322 26.6153 76.9005 26.7167C76.8942 26.7376 76.8864 26.7585 76.88 26.7797C76.8427 26.9017 76.8099 27.0251 76.7793 27.1496C76.7704 27.1869 76.7629 27.2242 76.7547 27.2615C76.7342 27.351 76.7148 27.4405 76.698 27.5307C76.6895 27.5769 76.6816 27.6232 76.6738 27.6694C76.6601 27.7534 76.6477 27.8377 76.6365 27.9222C76.6305 27.9696 76.6246 28.0169 76.619 28.0646C76.6093 28.1541 76.6018 28.244 76.5951 28.3342C76.5921 28.3764 76.588 28.4181 76.5858 28.4603C76.5787 28.5923 76.5742 28.725 76.5742 28.8589C76.5742 32.0473 78.6625 34.9672 81.7949 36.6365C82.0836 36.7892 82.3808 36.9314 82.6866 37.0631C82.8397 37.129 82.995 37.1922 83.1523 37.2529C84.2996 37.6914 85.504 37.9626 86.7285 38.0583C86.9031 38.0721 87.0768 38.0818 87.2506 38.0885C87.3092 38.0907 87.3666 38.0907 87.4251 38.0922C87.5392 38.0952 87.6537 38.0982 87.7675 38.0978C87.8368 38.0978 87.9054 38.0956 87.9748 38.0945C88.0762 38.0945 88.1777 38.0907 88.2783 38.0866C88.3529 38.0836 88.4253 38.0788 88.4987 38.0743C88.5938 38.0687 88.6889 38.0628 88.7836 38.0549C88.8582 38.049 88.9328 38.0411 89.0074 38.0337C89.0987 38.0244 89.1901 38.0147 89.2807 38.0035C89.3553 37.9942 89.4321 37.9837 89.5075 37.9729C89.5962 37.9602 89.6846 37.9468 89.7726 37.9319C89.8472 37.9195 89.9218 37.9064 89.9963 37.8927C90.0832 37.8767 90.1694 37.8592 90.2574 37.8413C90.332 37.8256 90.4065 37.8103 90.4789 37.7936C90.5061 37.7872 90.5337 37.782 90.5605 37.7757C94.6763 36.8021 97.6715 33.7304 97.6715 29.8779Z" fill="url(#paint69_linear_61_6001)"/>
<path d="M96.1952 29.8333C96.1952 34.8055 91.2426 38.4432 85.36 37.9764C79.7142 37.5289 75.3008 33.4367 75.3008 28.8209C75.3008 24.2052 79.7142 20.5406 85.36 20.6402C91.2426 20.7438 96.1952 24.8614 96.1952 29.8333Z" fill="url(#paint70_linear_61_6001)"/>
<path d="M81.0141 30.9926L80.2605 30.9512V29.3195L78.8591 29.2501V30.8733L78.1133 30.8319V27.0815L78.8591 27.1125V28.5864L80.2605 28.6524V27.1707L81.0141 27.202V30.9926Z" fill="white"/>
<path d="M83.5708 31.1344L82.8007 31.0916V27.9498L81.8203 27.9065V27.2354L84.5631 27.3494V28.027L83.5708 27.9833V31.1344Z" fill="white"/>
<path d="M86.957 31.321L86.0621 28.2434H86.0393C86.0714 28.8608 86.0874 29.2726 86.0874 29.4787V31.2741L85.3867 31.2368V27.3843L86.4558 27.4286L87.3382 30.4306H87.3538L88.2962 27.5047L89.3873 27.5498V31.4564L88.6389 31.415V29.5712C88.6389 29.4842 88.6401 29.3839 88.6426 29.2703C88.6451 29.1567 88.6568 28.8552 88.6776 28.366H88.6541L87.6846 31.3632L86.957 31.321Z" fill="white"/>
<path d="M90.6172 31.5241V27.6016L91.4313 27.6355V30.8795L93.0016 30.9626V31.6565L90.6172 31.5241Z" fill="white"/>
<g style="mix-blend-mode:multiply" opacity="0.3">
<path d="M87.9163 35.9511C86.6402 33.2884 87.9301 30.9546 86.2076 29.2021C84.4792 27.4429 82.263 28.8971 79.9196 27.4429C79.0246 26.8877 78.0346 25.8612 77.3037 23.8101C76.044 25.1826 75.3008 26.9142 75.3008 28.8211C75.3008 33.4368 79.7142 37.5287 85.36 37.9765C86.6322 38.0813 87.913 37.9862 89.1558 37.6946C88.6481 37.1868 88.2291 36.5974 87.9163 35.9511Z" fill="url(#paint71_linear_61_6001)"/>
</g>
<path d="M75.4063 14.2575C75.4063 9.65852 71.1637 6.06853 66.1108 6.23297C63.2335 6.32656 60.7297 7.62377 59.1665 9.53846C59.1568 9.55039 59.1479 9.56269 59.1382 9.57574C59.1113 9.6093 59.0852 9.64361 59.0587 9.67754C59.009 9.73894 58.9615 9.80108 58.9163 9.86397C58.8891 9.90126 58.8622 9.93854 58.8354 9.97583C58.7906 10.0388 58.7474 10.1022 58.7045 10.1664C58.6802 10.2037 58.6556 10.2409 58.6299 10.2764C58.5822 10.3509 58.5363 10.4255 58.4915 10.5001C58.4751 10.5273 58.458 10.5542 58.4419 10.5817C58.3828 10.6839 58.326 10.7873 58.2715 10.892C58.257 10.9199 58.2436 10.9483 58.2298 10.9762C58.1899 11.0549 58.1511 11.1336 58.1142 11.2134C58.0963 11.2525 58.0791 11.2921 58.0616 11.3316C58.0306 11.4024 58 11.4733 57.9713 11.5449C57.9542 11.5866 57.9378 11.6284 57.9217 11.6702C57.8934 11.7447 57.8664 11.8193 57.8408 11.8939C57.8274 11.9312 57.8132 11.9714 57.8002 12.0106C57.7696 12.104 57.7407 12.1984 57.7136 12.2936C57.7081 12.3137 57.7017 12.3331 57.6961 12.3529C57.6646 12.4677 57.6357 12.5834 57.6096 12.7C57.6022 12.7343 57.5958 12.769 57.5887 12.8033C57.5711 12.8868 57.5548 12.9708 57.5399 13.0554C57.5328 13.0982 57.5261 13.1415 57.5194 13.1847C57.5074 13.2627 57.4966 13.3414 57.4873 13.42C57.4821 13.4644 57.4769 13.5084 57.4724 13.5531C57.4638 13.6363 57.4571 13.7198 57.4515 13.8037C57.4489 13.841 57.4459 13.8813 57.4437 13.9204C57.4373 14.0431 57.4336 14.1661 57.4336 14.2899C57.4336 17.2412 59.2209 19.8457 61.9007 21.238C62.1473 21.366 62.4012 21.4838 62.6625 21.5915C62.7935 21.6452 62.926 21.6961 63.06 21.7443C64.0401 22.0944 65.0694 22.2872 66.1097 22.3156C66.2589 22.3198 66.4069 22.3208 66.5538 22.3186C66.6038 22.3186 66.6527 22.3148 66.703 22.3133C66.8003 22.3107 66.898 22.3077 66.9946 22.3021C67.0539 22.2988 67.1124 22.2932 67.1714 22.2891C67.2575 22.2824 67.344 22.2757 67.4298 22.2671C67.4924 22.2608 67.5547 22.2529 67.6163 22.2451C67.6972 22.2354 67.7781 22.2253 67.8586 22.2138C67.9228 22.2041 67.9866 22.1936 68.0503 22.1832C68.1283 22.1702 68.2058 22.1567 68.283 22.1418C68.3477 22.1294 68.4119 22.117 68.4758 22.1045C68.5504 22.0885 68.625 22.0717 68.7014 22.0538C68.7656 22.0389 68.8294 22.0232 68.8931 22.0068C68.9677 21.9879 69.0411 21.9679 69.1135 21.9468C69.1765 21.9289 69.2395 21.9095 69.2999 21.892C69.3231 21.8849 69.3465 21.8789 69.3697 21.8719C72.8672 20.7708 75.4063 17.8027 75.4063 14.2575Z" fill="url(#paint72_linear_61_6001)"/>
<path d="M74.7145 14.2587C74.7145 18.845 70.4936 22.4405 65.4664 22.2936C60.6256 22.1523 56.832 18.5687 56.832 14.2881C56.832 10.0076 60.6256 6.41312 65.466 6.25391C70.4936 6.09059 74.7145 9.67163 74.7145 14.2587Z" fill="url(#paint73_linear_61_6001)"/>
<path d="M63.1986 16.4809L59.6094 14.6538V14.0658L63.1986 11.9878V12.9889L60.7158 14.3149L63.1986 15.4834V16.4809Z" fill="white"/>
<path d="M67.016 11.1768L64.9747 17.3455L63.9492 17.3351L65.9745 11.1909L67.016 11.1768Z" fill="white"/>
<path d="M67.7742 15.4969L70.3972 14.3L67.7742 12.9576V11.939L71.5987 14.0352V14.6512L67.7734 16.5118L67.7742 15.4969Z" fill="white"/>
<g style="mix-blend-mode:multiply" opacity="0.3">
<path d="M67.652 20.2976C66.5612 17.896 67.6643 15.6767 66.1913 14.1364C64.7116 12.5889 62.8139 14.0353 60.802 12.7974C60.0327 12.3238 59.1828 11.4178 58.5549 9.54932C57.4712 10.8793 56.832 12.5192 56.832 14.2881C56.832 18.5701 60.6253 22.1523 65.4656 22.2936C66.5643 22.3274 67.6608 22.1773 68.7099 21.8495C68.2713 21.3964 67.9135 20.8715 67.652 20.2976Z" fill="url(#paint74_linear_61_6001)"/>
</g>
<path d="M22.2953 9.38722C22.2953 9.38722 24.62 4.88445 28.6053 6.63022C32.5906 8.376 32.2225 7.45986 34.9891 7.80737C37.7558 8.15489 41.1817 10.0752 38.9524 10.4618C36.7232 10.8485 19.2695 11.2911 19.2695 11.2911C19.2695 11.2911 19.528 9.62325 22.2953 9.38722Z" fill="#B2D550"/>
</g>
<defs>
<linearGradient id="paint0_linear_61_6001" x1="13.6572" y1="40.6383" x2="15.5307" y2="7.71465" gradientUnits="userSpaceOnUse">
<stop stop-color="#FFC444"/>
<stop offset="1" stop-color="#F36F56"/>
</linearGradient>
<linearGradient id="paint1_linear_61_6001" x1="13.4646" y1="38.7687" x2="15.5002" y2="8.3595" gradientUnits="userSpaceOnUse">
<stop stop-color="#FFC444"/>
<stop offset="1" stop-color="#F36F56"/>
</linearGradient>
<linearGradient id="paint2_linear_61_6001" x1="20.5565" y1="1.86781" x2="8.77884" y2="30.7799" gradientUnits="userSpaceOnUse">
<stop stop-color="#FCB148"/>
<stop offset="0.05" stop-color="#FDBA46"/>
<stop offset="0.14" stop-color="#FFC244"/>
<stop offset="0.32" stop-color="#FFC444"/>
<stop offset="0.48" stop-color="#FDB946"/>
<stop offset="0.78" stop-color="#F99C4D"/>
<stop offset="0.87" stop-color="#F8924F"/>
<stop offset="1" stop-color="#F8924F"/>
</linearGradient>
<linearGradient id="paint3_linear_61_6001" x1="6.93863" y1="16.653" x2="19.0716" y2="16.653" gradientUnits="userSpaceOnUse">
<stop stop-color="#FCB148"/>
<stop offset="0.05" stop-color="#FDBA46"/>
<stop offset="0.14" stop-color="#FFC244"/>
<stop offset="0.32" stop-color="#FFC444"/>
<stop offset="0.48" stop-color="#FDB946"/>
<stop offset="0.78" stop-color="#F99C4D"/>
<stop offset="0.87" stop-color="#F8924F"/>
<stop offset="1" stop-color="#F8924F"/>
</linearGradient>
<linearGradient id="paint4_linear_61_6001" x1="45.2116" y1="94.4745" x2="38.0393" y2="97.4875" gradientUnits="userSpaceOnUse">
<stop stop-color="#40447E"/>
<stop offset="1" stop-color="#3C3B6B"/>
</linearGradient>
<linearGradient id="paint5_linear_61_6001" x1="33.5386" y1="62.5924" x2="26.1019" y2="65.7157" gradientUnits="userSpaceOnUse">
<stop stop-color="#40447E"/>
<stop offset="1" stop-color="#3C3B6B"/>
</linearGradient>
<linearGradient id="paint6_linear_61_6001" x1="2.08984" y1="64.3926" x2="69.8605" y2="64.3926" gradientUnits="userSpaceOnUse">
<stop stop-color="#40447E"/>
<stop offset="1" stop-color="#3C3B6B"/>
</linearGradient>
<linearGradient id="paint7_linear_61_6001" x1="2.08984" y1="91.3085" x2="104.183" y2="91.3085" gradientUnits="userSpaceOnUse">
<stop stop-color="#40447E"/>
<stop offset="1" stop-color="#3C3B6B"/>
</linearGradient>
<linearGradient id="paint8_linear_61_6001" x1="12.1016" y1="90.4644" x2="86.9045" y2="90.4644" gradientUnits="userSpaceOnUse">
<stop stop-color="#40447E"/>
<stop offset="1" stop-color="#3C3B6B"/>
</linearGradient>
<linearGradient id="paint9_linear_61_6001" x1="69.2081" y1="3.23471" x2="11.9957" y2="117.671" gradientUnits="userSpaceOnUse">
<stop stop-color="#E38DDD"/>
<stop offset="1" stop-color="#9571F6"/>
</linearGradient>
<linearGradient id="paint10_linear_61_6001" x1="44.4596" y1="-0.339243" x2="54.4001" y2="39.4274" gradientUnits="userSpaceOnUse">
<stop stop-color="#E38DDD"/>
<stop offset="1" stop-color="#9571F6"/>
</linearGradient>
<linearGradient id="paint11_linear_61_6001" x1="33.0803" y1="38.738" x2="20.7712" y2="97.7604" gradientUnits="userSpaceOnUse">
<stop stop-color="#FF9085"/>
<stop offset="1" stop-color="#FB6FBB"/>
</linearGradient>
<linearGradient id="paint12_linear_61_6001" x1="26.4247" y1="100.754" x2="22.7373" y2="100.865" gradientUnits="userSpaceOnUse">
<stop stop-color="#444B8C"/>
<stop offset="1" stop-color="#26264F"/>
</linearGradient>
<linearGradient id="paint13_linear_61_6001" x1="39.3331" y1="100.022" x2="35.5725" y2="101.079" gradientUnits="userSpaceOnUse">
<stop stop-color="#444B8C"/>
<stop offset="1" stop-color="#26264F"/>
</linearGradient>
<linearGradient id="paint14_linear_61_6001" x1="37.0573" y1="93.1674" x2="26.611" y2="69.6161" gradientUnits="userSpaceOnUse">
<stop stop-color="#AA80F9"/>
<stop offset="1" stop-color="#6165D7"/>
</linearGradient>
<linearGradient id="paint15_linear_61_6001" x1="31.9774" y1="93.8286" x2="18.8095" y2="71.7668" gradientUnits="userSpaceOnUse">
<stop stop-color="#AA80F9"/>
<stop offset="1" stop-color="#6165D7"/>
</linearGradient>
<linearGradient id="paint16_linear_61_6001" x1="28.8145" y1="37.8492" x2="16.5054" y2="96.8716" gradientUnits="userSpaceOnUse">
<stop stop-color="#FF9085"/>
<stop offset="1" stop-color="#FB6FBB"/>
</linearGradient>
<linearGradient id="paint17_linear_61_6001" x1="18.2296" y1="88.3267" x2="22.9012" y2="66.1344" gradientUnits="userSpaceOnUse">
<stop stop-color="#FF9085"/>
<stop offset="1" stop-color="#FB6FBB"/>
</linearGradient>
<linearGradient id="paint18_linear_61_6001" x1="20.3804" y1="36.0905" x2="8.07133" y2="95.1125" gradientUnits="userSpaceOnUse">
<stop stop-color="#FF9085"/>
<stop offset="1" stop-color="#FB6FBB"/>
</linearGradient>
<linearGradient id="paint19_linear_61_6001" x1="30.8801" y1="69.0417" x2="28.888" y2="63.3975" gradientUnits="userSpaceOnUse">
<stop stop-color="#311944"/>
<stop offset="1" stop-color="#893976"/>
</linearGradient>
<linearGradient id="paint20_linear_61_6001" x1="22.1733" y1="60.8643" x2="22.9037" y2="65.9107" gradientUnits="userSpaceOnUse">
<stop stop-color="#311944"/>
<stop offset="1" stop-color="#893976"/>
</linearGradient>
<linearGradient id="paint21_linear_61_6001" x1="22.1419" y1="61.6563" x2="26.2704" y2="61.6563" gradientUnits="userSpaceOnUse">
<stop stop-color="#FFC444"/>
<stop offset="1" stop-color="#F36F56"/>
</linearGradient>
<linearGradient id="paint22_linear_61_6001" x1="36.6507" y1="61.3063" x2="32.767" y2="55.7912" gradientUnits="userSpaceOnUse">
<stop stop-color="#444B8C"/>
<stop offset="1" stop-color="#26264F"/>
</linearGradient>
<linearGradient id="paint23_linear_61_6001" x1="29.1992" y1="70.4333" x2="37.6982" y2="53.1684" gradientUnits="userSpaceOnUse">
<stop stop-color="#311944"/>
<stop offset="1" stop-color="#893976"/>
</linearGradient>
<linearGradient id="paint24_linear_61_6001" x1="25.0469" y1="59.3527" x2="43.7211" y2="59.3527" gradientUnits="userSpaceOnUse">
<stop stop-color="#311944"/>
<stop offset="1" stop-color="#893976"/>
</linearGradient>
<linearGradient id="paint25_linear_61_6001" x1="41.2246" y1="63.7685" x2="44.0098" y2="63.7685" gradientUnits="userSpaceOnUse">
<stop stop-color="#FFC444"/>
<stop offset="1" stop-color="#F36F56"/>
</linearGradient>
<linearGradient id="paint26_linear_61_6001" x1="24.297" y1="38.7179" x2="21.2726" y2="57.9599" gradientUnits="userSpaceOnUse">
<stop stop-color="#FFC444"/>
<stop offset="1" stop-color="#F36F56"/>
</linearGradient>
<linearGradient id="paint27_linear_61_6001" x1="21.9764" y1="41.486" x2="26.0926" y2="41.486" gradientUnits="userSpaceOnUse">
<stop stop-color="#40447E"/>
<stop offset="1" stop-color="#3C3B6B"/>
</linearGradient>
<linearGradient id="paint28_linear_61_6001" x1="24.1903" y1="41.3189" x2="24.2545" y2="46.5316" gradientUnits="userSpaceOnUse">
<stop stop-color="#FFC444"/>
<stop offset="1" stop-color="#F36F56"/>
</linearGradient>
<linearGradient id="paint29_linear_61_6001" x1="22.4702" y1="42.8523" x2="26.0256" y2="42.8523" gradientUnits="userSpaceOnUse">
<stop stop-color="#40447E"/>
<stop offset="1" stop-color="#3C3B6B"/>
</linearGradient>
<linearGradient id="paint30_linear_61_6001" x1="24.8593" y1="43.1925" x2="25.6442" y2="43.1925" gradientUnits="userSpaceOnUse">
<stop stop-color="#FFC444"/>
<stop offset="1" stop-color="#F36F56"/>
</linearGradient>
<linearGradient id="paint31_linear_61_6001" x1="74.7662" y1="54.8208" x2="74.9989" y2="58.872" gradientUnits="userSpaceOnUse">
<stop stop-color="#311944"/>
<stop offset="1" stop-color="#A03976"/>
</linearGradient>
<linearGradient id="paint32_linear_61_6001" x1="79.6209" y1="54.9235" x2="80.2066" y2="65.1121" gradientUnits="userSpaceOnUse">
<stop stop-color="#AA80F9"/>
<stop offset="1" stop-color="#6165D7"/>
</linearGradient>
<linearGradient id="paint33_linear_61_6001" x1="92.3939" y1="76.0708" x2="99.5874" y2="79.7281" gradientUnits="userSpaceOnUse">
<stop stop-color="#E38DDD"/>
<stop offset="1" stop-color="#9571F6"/>
</linearGradient>
<linearGradient id="paint34_linear_61_6001" x1="92.5232" y1="77.2763" x2="94.5917" y2="77.7748" gradientUnits="userSpaceOnUse">
<stop stop-color="#311944"/>
<stop offset="1" stop-color="#A03976"/>
</linearGradient>
<linearGradient id="paint35_linear_61_6001" x1="90.8375" y1="86.1441" x2="83.8259" y2="95.3021" gradientUnits="userSpaceOnUse">
<stop stop-color="#E38DDD"/>
<stop offset="1" stop-color="#9571F6"/>
</linearGradient>
<linearGradient id="paint36_linear_61_6001" x1="93.8883" y1="87.9888" x2="89.9822" y2="88.834" gradientUnits="userSpaceOnUse">
<stop stop-color="#311944"/>
<stop offset="1" stop-color="#A03976"/>
</linearGradient>
<linearGradient id="paint37_linear_61_6001" x1="84.3981" y1="65.7024" x2="87.5713" y2="82.1132" gradientUnits="userSpaceOnUse">
<stop stop-color="#FFC444"/>
<stop offset="1" stop-color="#F36F56"/>
</linearGradient>
<linearGradient id="paint38_linear_61_6001" x1="78.0233" y1="63.4762" x2="85.1581" y2="74.1756" gradientUnits="userSpaceOnUse">
<stop stop-color="#FFC444"/>
<stop offset="1" stop-color="#F36F56"/>
</linearGradient>
<linearGradient id="paint39_linear_61_6001" x1="90.6985" y1="66.7016" x2="84.2163" y2="87.6461" gradientUnits="userSpaceOnUse">
<stop stop-color="#FFC444"/>
<stop offset="1" stop-color="#F36F56"/>
</linearGradient>
<linearGradient id="paint40_linear_61_6001" x1="88.5878" y1="51.6973" x2="85.7189" y2="75.9402" gradientUnits="userSpaceOnUse">
<stop stop-color="#AA80F9"/>
<stop offset="1" stop-color="#6165D7"/>
</linearGradient>
<linearGradient id="paint41_linear_61_6001" x1="88.74" y1="59.5951" x2="86.8022" y2="49.8792" gradientUnits="userSpaceOnUse">
<stop stop-color="#311944"/>
<stop offset="1" stop-color="#6B3976"/>
</linearGradient>
<linearGradient id="paint42_linear_61_6001" x1="88.164" y1="50.923" x2="86.6397" y2="57.5162" gradientUnits="userSpaceOnUse">
<stop stop-color="#311944"/>
<stop offset="1" stop-color="#A03976"/>
</linearGradient>
<linearGradient id="paint43_linear_61_6001" x1="91.083" y1="50.4754" x2="87.6868" y2="52.3966" gradientUnits="userSpaceOnUse">
<stop stop-color="#311944"/>
<stop offset="1" stop-color="#A03976"/>
</linearGradient>
<linearGradient id="paint44_linear_61_6001" x1="99.1844" y1="-35.1888" x2="86.4981" y2="72.0063" gradientUnits="userSpaceOnUse">
<stop stop-color="#AA80F9"/>
<stop offset="1" stop-color="#6165D7"/>
</linearGradient>
<linearGradient id="paint45_linear_61_6001" x1="103.875" y1="76.2421" x2="87.6145" y2="70.0946" gradientUnits="userSpaceOnUse">
<stop stop-color="#311944"/>
<stop offset="1" stop-color="#A03976"/>
</linearGradient>
<linearGradient id="paint46_linear_61_6001" x1="94.568" y1="52.405" x2="91.699" y2="76.6475" gradientUnits="userSpaceOnUse">
<stop stop-color="#AA80F9"/>
<stop offset="1" stop-color="#6165D7"/>
</linearGradient>
<linearGradient id="paint47_linear_61_6001" x1="62.8376" y1="82.9961" x2="63.0232" y2="86.6651" gradientUnits="userSpaceOnUse">
<stop stop-color="#AA80F9"/>
<stop offset="1" stop-color="#6165D7"/>
</linearGradient>
<linearGradient id="paint48_linear_61_6001" x1="63.4206" y1="80.452" x2="62.4755" y2="87.8386" gradientUnits="userSpaceOnUse">
<stop stop-color="#FFC444"/>
<stop offset="1" stop-color="#F36F56"/>
</linearGradient>
<linearGradient id="paint49_linear_61_6001" x1="71.9767" y1="81.4127" x2="53.8827" y2="81.4127" gradientUnits="userSpaceOnUse">
<stop stop-color="#FFC444"/>
<stop offset="0.1" stop-color="#FEBC46"/>
<stop offset="1" stop-color="#F36F56"/>
</linearGradient>
<linearGradient id="paint50_linear_61_6001" x1="57.6985" y1="59.5825" x2="66.5768" y2="68.9064" gradientUnits="userSpaceOnUse">
<stop stop-color="#444B8C"/>
<stop offset="1" stop-color="#26264F"/>
</linearGradient>
<linearGradient id="paint51_linear_61_6001" x1="67.6061" y1="80.0017" x2="68.5818" y2="87.627" gradientUnits="userSpaceOnUse">
<stop stop-color="#FFC444"/>
<stop offset="0.1" stop-color="#FEBC46"/>
<stop offset="1" stop-color="#F36F56"/>
</linearGradient>
<linearGradient id="paint52_linear_61_6001" x1="56.9696" y1="80.3865" x2="55.9533" y2="88.3309" gradientUnits="userSpaceOnUse">
<stop stop-color="#FFC444"/>
<stop offset="0.1" stop-color="#FEBC46"/>
<stop offset="1" stop-color="#F36F56"/>
</linearGradient>
<linearGradient id="paint53_linear_61_6001" x1="62.6338" y1="67.4029" x2="62.5357" y2="72.0687" gradientUnits="userSpaceOnUse">
<stop stop-color="#311944"/>
<stop offset="1" stop-color="#A03976"/>
</linearGradient>
<linearGradient id="paint54_linear_61_6001" x1="68.5218" y1="65.518" x2="60.9637" y2="69.0626" gradientUnits="userSpaceOnUse">
<stop stop-color="#311944"/>
<stop offset="1" stop-color="#A03976"/>
</linearGradient>
<linearGradient id="paint55_linear_61_6001" x1="62.3338" y1="86.2485" x2="51.4735" y2="86.2485" gradientUnits="userSpaceOnUse">
<stop stop-color="#AA80F9"/>
<stop offset="1" stop-color="#6165D7"/>
</linearGradient>
<linearGradient id="paint56_linear_61_6001" x1="62.3327" y1="86.2733" x2="51.4728" y2="86.2733" gradientUnits="userSpaceOnUse">
<stop stop-color="#AA80F9"/>
<stop offset="1" stop-color="#6165D7"/>
</linearGradient>
<linearGradient id="paint57_linear_61_6001" x1="59.3998" y1="91.1584" x2="61.4897" y2="88.5574" gradientUnits="userSpaceOnUse">
<stop stop-color="#311944"/>
<stop offset="1" stop-color="#6B3976"/>
</linearGradient>
<linearGradient id="paint58_linear_61_6001" x1="60.6856" y1="90.5406" x2="63.5652" y2="86.9175" gradientUnits="userSpaceOnUse">
<stop stop-color="#311944"/>
<stop offset="1" stop-color="#A03976"/>
</linearGradient>
<linearGradient id="paint59_linear_61_6001" x1="64.1162" y1="80.4392" x2="63.2139" y2="75.8357" gradientUnits="userSpaceOnUse">
<stop stop-color="#311944"/>
<stop offset="1" stop-color="#A03976"/>
</linearGradient>
<linearGradient id="paint60_linear_61_6001" x1="59.5365" y1="89.1944" x2="60.9757" y2="85.1166" gradientUnits="userSpaceOnUse">
<stop stop-color="#311944"/>
<stop offset="1" stop-color="#893976"/>
</linearGradient>
<linearGradient id="paint61_linear_61_6001" x1="66.5852" y1="83.6242" x2="66.1277" y2="86.7857" gradientUnits="userSpaceOnUse">
<stop stop-color="#311944"/>
<stop offset="1" stop-color="#893976"/>
</linearGradient>
<linearGradient id="paint62_linear_61_6001" x1="57.1561" y1="83.7571" x2="59.7236" y2="80.1117" gradientUnits="userSpaceOnUse">
<stop stop-color="#444B8C"/>
<stop offset="1" stop-color="#26264F"/>
</linearGradient>
<linearGradient id="paint63_linear_61_6001" x1="62.0805" y1="89.7905" x2="56.4628" y2="78.378" gradientUnits="userSpaceOnUse">
<stop stop-color="#311944"/>
<stop offset="1" stop-color="#893976"/>
</linearGradient>
<linearGradient id="paint64_linear_61_6001" x1="64.8277" y1="82.4658" x2="52.4836" y2="82.4658" gradientUnits="userSpaceOnUse">
<stop stop-color="#311944"/>
<stop offset="1" stop-color="#893976"/>
</linearGradient>
<linearGradient id="paint65_linear_61_6001" x1="65.6098" y1="86.0598" x2="69.3716" y2="90.9151" gradientUnits="userSpaceOnUse">
<stop stop-color="#AA80F9"/>
<stop offset="1" stop-color="#6165D7"/>
</linearGradient>
<linearGradient id="paint66_linear_61_6001" x1="59.9447" y1="24.4421" x2="73.7792" y2="52.2075" gradientUnits="userSpaceOnUse">
<stop stop-color="#311944"/>
<stop offset="1" stop-color="#A03976"/>
</linearGradient>
<linearGradient id="paint67_linear_61_6001" x1="64.2823" y1="35.552" x2="77.6545" y2="60.3561" gradientUnits="userSpaceOnUse">
<stop stop-color="#FF9085"/>
<stop offset="1" stop-color="#FB6FBB"/>
</linearGradient>
<linearGradient id="paint68_linear_61_6001" x1="60.3798" y1="37.2713" x2="73.24" y2="63.0813" gradientUnits="userSpaceOnUse">
<stop stop-color="#FF9085"/>
<stop offset="1" stop-color="#FB6FBB"/>
</linearGradient>
<linearGradient id="paint69_linear_61_6001" x1="77.2331" y1="9.51514" x2="92.2972" y2="39.7483" gradientUnits="userSpaceOnUse">
<stop stop-color="#311944"/>
<stop offset="1" stop-color="#A03976"/>
</linearGradient>
<linearGradient id="paint70_linear_61_6001" x1="81.798" y1="21.9881" x2="96.4304" y2="49.1291" gradientUnits="userSpaceOnUse">
<stop stop-color="#FFC444"/>
<stop offset="1" stop-color="#F36F56"/>
</linearGradient>
<linearGradient id="paint71_linear_61_6001" x1="77.6904" y1="23.5621" x2="91.9532" y2="52.1874" gradientUnits="userSpaceOnUse">
<stop stop-color="#FFC444"/>
<stop offset="1" stop-color="#F36F56"/>
</linearGradient>
<linearGradient id="paint72_linear_61_6001" x1="54.494" y1="-9.6673" x2="67.7542" y2="16.9455" gradientUnits="userSpaceOnUse">
<stop stop-color="#444B8C"/>
<stop offset="1" stop-color="#26264F"/>
</linearGradient>
<linearGradient id="paint73_linear_61_6001" x1="56.0955" y1="-3.68604" x2="68.9752" y2="20.2048" gradientUnits="userSpaceOnUse">
<stop stop-color="#AA80F9"/>
<stop offset="1" stop-color="#6165D7"/>
</linearGradient>
<linearGradient id="paint74_linear_61_6001" x1="58.7577" y1="9.3998" x2="71.2701" y2="34.5117" gradientUnits="userSpaceOnUse">
<stop stop-color="#AA80F9"/>
<stop offset="1" stop-color="#6165D7"/>
</linearGradient>
<clipPath id="clip0_61_6001">
<rect width="105" height="104.403" fill="white"/>
</clipPath>
</defs>
</svg>
