<svg width="105" height="106" viewBox="0 0 105 106" fill="none" xmlns="http://www.w3.org/2000/svg">
<g clip-path="url(#clip0_59_37361)">
<path d="M98.3817 81.427C98.3817 81.427 110.819 68.0735 100.485 53.6167C91.3163 40.7893 80.6263 41.666 72.7848 46.8714C69.4457 49.0887 59.8135 47.1449 51.6164 34.0927C40.4365 16.2929 -0.522721 25.4107 6.69396 54.5925C9.97941 67.8778 -1.65375 68.2078 5.39137 81.4551L98.3817 81.427Z" fill="#F9FFE9"/>
<path d="M0.120056 81.5615L104.88 81.5615C104.946 81.5615 105 81.5078 105 81.4415V81.3981C105 81.3318 104.946 81.2781 104.88 81.2781L0.120056 81.2781C0.0537491 81.2781 0 81.3318 0 81.3981V81.4415C0 81.5078 0.0537491 81.5615 0.120056 81.5615Z" fill="#2E3552"/>
<path d="M43.2003 72.2628C43.2003 72.2628 41.7392 70.5577 43.1104 69.4754C43.1104 69.4754 44.1118 68.8694 44.9281 68.9184C44.9281 68.9184 43.7711 70.8586 44.1466 71.0515C44.522 71.2444 45.2801 68.7969 45.2801 68.7969C45.2801 68.7969 47.5588 68.576 48.292 68.9283C48.292 68.9283 46.3436 70.5226 46.7539 70.6174C47.1642 70.7123 49.2685 69.1475 49.2685 69.1475C49.2685 69.1475 51.3895 69.5084 51.2762 70.8021C51.1629 72.0959 50.4326 72.4958 50.1111 72.4614C49.7896 72.4269 47.9112 71.7097 47.8704 71.9729C47.8295 72.2362 48.9602 73.0962 49.753 73.1363C49.753 73.1363 48.2575 74.7852 47.264 74.3085C46.2704 73.8318 46.1852 73.078 45.5657 72.7949C44.9462 72.5118 44.4176 72.5129 44.6734 72.8013C44.9291 73.0898 46.0502 73.3697 46.4044 73.997C46.7585 74.6243 47.0764 75.0463 46.0491 74.8918C45.0218 74.7373 43.3494 73.9846 43.2763 73.1232L43.2003 72.2628Z" fill="#82B378"/>
<path d="M50.2334 70.8376C50.2334 70.8376 44.4727 70.6156 43.2 72.2631C43.2 72.2631 42.9186 73.1057 42.053 73.873L41.918 74.2407C41.918 74.2407 42.9161 73.1881 43.2735 73.1246C43.2738 73.1246 42.7151 71.0835 50.2334 70.8376Z" fill="#82B378"/>
<path d="M42.0526 73.8727C42.0526 73.8727 40.8161 74.787 40.7305 76.421L40.9546 76.4409C40.9546 76.4409 41.3496 74.7515 42.0633 74.0908C42.7769 73.4301 42.0526 73.8727 42.0526 73.8727Z" fill="#82B378"/>
<path d="M38.0926 70.1193C38.0926 70.1193 40.4168 68.8177 39.332 67.0516C39.332 67.0516 38.4645 65.9671 37.5349 65.6879C37.5349 65.6879 38.0322 68.3222 37.5349 68.384C37.0376 68.4458 37.1939 65.409 37.1939 65.409C37.1939 65.409 34.7461 64.2315 33.7838 64.3245C33.7838 64.3245 35.3024 66.8967 34.8065 66.8345C34.3106 66.7724 32.6062 64.1704 32.6062 64.1704C32.6062 64.1704 30.0962 63.7054 29.6934 65.193C29.2906 66.6807 29.9421 67.4242 30.3133 67.5169C30.6845 67.6096 33.0712 67.5791 33.009 67.8888C32.9469 68.1986 31.336 68.6945 30.4372 68.4156C30.4372 68.4156 31.4287 70.8638 32.7302 70.7398C34.0317 70.6159 34.4353 69.8102 35.2402 69.7481C36.0451 69.6859 36.6348 69.9033 36.232 70.12C35.8292 70.3367 34.4655 70.191 33.8165 70.7445C33.1675 71.2979 32.6393 71.6385 33.8477 71.8865C35.0562 72.1344 37.2252 71.9792 37.6593 71.0496L38.0926 70.1193Z" fill="#A8D29F"/>
<path d="M30.8398 65.6567C30.8398 65.6567 37.3471 67.7639 38.091 70.119C38.091 70.119 38.0601 71.1726 38.7108 72.3811V72.8461C38.7108 72.8461 38.0292 71.2657 37.6573 71.0486C37.6573 71.0486 39.1137 69.0036 30.8398 65.6567Z" fill="#82B378"/>
<path d="M38.7133 72.3811C38.7133 72.3811 39.7168 73.9053 39.1445 75.7603L38.8863 75.6893C38.8863 75.6893 39.1371 73.646 38.612 72.6184C38.087 71.5907 38.7133 72.3811 38.7133 72.3811Z" fill="#82B378"/>
<path d="M41.7875 68.3244C41.7875 68.3244 38.724 66.6087 40.1535 64.2806C40.1535 64.2806 41.2973 62.8508 42.5228 62.4832C42.5228 62.4832 41.8692 65.9554 42.5228 66.0354C43.1764 66.1153 42.9721 62.1137 42.9721 62.1137C42.9721 62.1137 46.199 60.5614 47.4653 60.684C47.4653 60.684 45.4637 64.0746 46.1155 63.9928C46.7673 63.9111 49.0159 60.4797 49.0159 60.4797C49.0159 60.4797 52.3244 59.8673 52.8555 61.8278C53.3865 63.7882 52.5287 64.769 52.0385 64.8916C51.5483 65.0141 48.4031 64.9733 48.4863 65.3818C48.5694 65.7903 50.6922 66.4435 51.8765 66.0762C51.8765 66.0762 50.5696 69.3031 48.8539 69.1397C47.1382 68.9763 46.6071 67.9141 45.545 67.8324C44.4829 67.7507 43.7071 68.0367 44.2382 68.3226C44.7692 68.6086 46.5663 68.4164 47.4241 69.1457C48.282 69.875 48.9765 70.3243 47.3833 70.6511C45.7901 70.9779 42.9309 70.7737 42.359 69.5499L41.7875 68.3244Z" fill="#A8D29F"/>
<path d="M51.348 62.4424C51.348 62.4424 42.7701 65.2202 41.7897 68.3245C41.7897 68.3245 41.8305 69.7134 40.9727 71.3066V71.9193C40.9727 71.9193 41.8714 69.836 42.3616 69.55C42.3616 69.55 40.4416 66.8539 51.348 62.4424Z" fill="#82B378"/>
<path d="M40.9728 71.3067C40.9728 71.3067 39.6499 73.3154 40.4044 75.7608L40.7447 75.6695C40.7447 75.6695 40.4144 72.9758 41.1067 71.62C41.799 70.2641 40.9728 71.3067 40.9728 71.3067Z" fill="#82B378"/>
<path d="M41.6847 81.0631C42.4728 81.0632 43.2532 80.908 43.9813 80.6064C44.7094 80.3048 45.371 79.8628 45.9282 79.3055C46.4855 78.7483 46.9275 78.0867 47.2291 77.3586C47.5307 76.6305 47.6859 75.8501 47.6858 75.062H35.6836C35.6836 76.6536 36.3159 78.18 37.4413 79.3054C38.5667 80.4309 40.0931 81.0631 41.6847 81.0631Z" fill="#F99746"/>
<path d="M39.9141 81.0188C40.7584 81.1237 41.6154 81.048 42.4283 80.7968C43.2411 80.5455 43.9913 80.1244 44.6292 79.5613C45.2671 78.9983 45.778 78.3061 46.1282 77.5307C46.4784 76.7553 46.6598 75.9143 46.6604 75.0635H45.1685C45.1682 76.5258 44.6343 77.9377 43.6668 79.0342C42.6993 80.1307 41.3649 80.8364 39.9141 81.0188Z" fill="#FFAC6E"/>
<path d="M47.7697 81.3687H35.6016C35.6016 81.1724 35.6796 80.9841 35.8184 80.8452C35.9572 80.7064 36.1455 80.6284 36.3418 80.6284H47.0308C47.2272 80.6284 47.4155 80.7064 47.5544 80.8452C47.6933 80.984 47.7714 81.1723 47.7715 81.3687H47.7697Z" fill="#ED7D2B"/>
<path d="M47.8244 75.062H35.4883V75.246H47.8244V75.062Z" fill="#ED7D2B"/>
<path d="M68.3758 54.1893L68.3711 27.3687L30.5123 27.3753L30.517 54.1959L68.3758 54.1893Z" fill="#8EB2DD"/>
<path d="M31.0108 53.6998L67.875 53.6934L67.8705 27.8673L31.0063 27.8738L31.0108 53.6998Z" fill="#D7E6FA"/>
<path d="M53.4348 48.7193H40.5048C40.3823 48.7193 40.2648 48.6706 40.1782 48.584C40.0916 48.4974 40.043 48.38 40.043 48.2575C40.0427 48.1967 40.0545 48.1365 40.0776 48.0802C40.1007 48.024 40.1347 47.9729 40.1776 47.9298C40.2205 47.8868 40.2715 47.8526 40.3276 47.8293C40.3838 47.8059 40.444 47.7939 40.5048 47.7939H53.4348C53.5575 47.7939 53.6752 47.8425 53.7621 47.9291C53.8491 48.0156 53.8982 48.1331 53.8988 48.2557C53.8988 48.3166 53.8868 48.3769 53.8634 48.4332C53.8401 48.4895 53.8059 48.5406 53.7629 48.5836C53.7198 48.6267 53.6686 48.6608 53.6123 48.6841C53.5561 48.7074 53.4957 48.7193 53.4348 48.7193Z" fill="#8EB2DD"/>
<path d="M53.4331 51.4444H40.503C40.3803 51.4444 40.2626 51.3958 40.1757 51.3093C40.0888 51.2227 40.0396 51.1053 40.0391 50.9826C40.0391 50.86 40.0877 50.7423 40.1742 50.6554C40.2608 50.5686 40.3782 50.5195 40.5009 50.519H53.4309C53.5536 50.519 53.6713 50.5676 53.7582 50.6542C53.8452 50.7407 53.8943 50.8582 53.8948 50.9808C53.8948 51.1035 53.8462 51.2211 53.7597 51.308C53.6731 51.3949 53.5557 51.4439 53.4331 51.4444Z" fill="#8EB2DD"/>
<path d="M63.6554 45.9478H33.7266V46.1872H63.6554V45.9478Z" fill="#8EB2DD"/>
<path d="M63.3203 46.5549V45.5767L64.662 46.0654L63.3203 46.5549Z" fill="#8EB2DD"/>
<path d="M35.1183 31.764L35.1211 47.6758L35.3715 47.6757L35.3687 31.7639L35.1183 31.764Z" fill="#8EB2DD"/>
<path d="M34.7344 32.2185H35.7578L35.2459 31.0005L34.7344 32.2185Z" fill="#8EB2DD"/>
<path d="M38.2854 49.2104H38.208C37.985 49.2104 37.7711 49.1218 37.6135 48.9642C37.4558 48.8065 37.3672 48.5926 37.3672 48.3696C37.3672 48.1466 37.4558 47.9328 37.6135 47.7751C37.7711 47.6174 37.985 47.5288 38.208 47.5288H38.2851C38.3955 47.5288 38.5048 47.5505 38.6068 47.5927C38.7088 47.6349 38.8015 47.6968 38.8796 47.7748C38.9577 47.8529 39.0196 47.9456 39.0619 48.0476C39.1041 48.1495 39.1259 48.2589 39.1259 48.3693C39.126 48.4797 39.1043 48.5891 39.0621 48.6911C39.0199 48.7932 38.958 48.8859 38.88 48.964C38.8019 49.0421 38.7092 49.1041 38.6072 49.1464C38.5052 49.1887 38.3959 49.2104 38.2854 49.2104Z" fill="#2A4E96"/>
<path d="M38.2854 49.9434H38.208C37.7436 49.9434 37.3672 50.3198 37.3672 50.7842C37.3672 51.2485 37.7436 51.625 38.208 51.625H38.2854C38.7498 51.625 39.1262 51.2485 39.1262 50.7842C39.1262 50.3198 38.7498 49.9434 38.2854 49.9434Z" fill="#F99746"/>
<path d="M62.0636 32.4907L60.3447 32.6342L60.5709 33.08L55.1755 35.6202L50.1356 44.0916L44.1874 38.9923L39.3891 41.319L39.3756 41.3258L36.3164 44.175L36.456 44.3121L39.4932 41.4832L44.1558 39.2222L50.1868 44.3924L55.3194 35.7659L60.658 33.2523L60.8811 33.6921L62.0636 32.4907Z" fill="#699FF0"/>
<path d="M39.4214 42.0902H39.3642C39.1992 42.0902 39.041 42.0246 38.9244 41.908C38.8077 41.7914 38.7422 41.6331 38.7422 41.4682C38.7421 41.3865 38.7582 41.3056 38.7894 41.2302C38.8206 41.1547 38.8664 41.0862 38.9241 41.0284C38.9819 40.9706 39.0504 40.9248 39.1259 40.8935C39.2013 40.8623 39.2822 40.8462 39.3638 40.8462H39.421C39.5859 40.8462 39.7441 40.9117 39.8608 41.0282C39.9775 41.1448 40.0432 41.3029 40.0434 41.4678C40.0434 41.5495 40.0274 41.6305 39.9961 41.706C39.9649 41.7815 39.9191 41.8501 39.8613 41.9079C39.8035 41.9657 39.735 42.0115 39.6595 42.0428C39.584 42.0741 39.5031 42.0902 39.4214 42.0902Z" fill="#2A4E96"/>
<path d="M55.2456 36.4422H55.1884C55.0234 36.4422 54.8652 36.3767 54.7486 36.2601C54.6319 36.1434 54.5664 35.9852 54.5664 35.8202C54.5664 35.7385 54.5824 35.6576 54.6137 35.5822C54.6449 35.5067 54.6907 35.4381 54.7485 35.3803C54.8062 35.3225 54.8748 35.2767 54.9503 35.2455C55.0258 35.2143 55.1067 35.1982 55.1884 35.1982H55.2452C55.3269 35.1981 55.4078 35.2142 55.4833 35.2454C55.5588 35.2766 55.6275 35.3223 55.6853 35.3801C55.7431 35.4378 55.7889 35.5064 55.8202 35.5818C55.8515 35.6573 55.8676 35.7382 55.8676 35.8199C55.8676 35.9016 55.8516 35.9825 55.8203 36.058C55.7891 36.1335 55.7433 36.2021 55.6855 36.2599C55.6278 36.3177 55.5592 36.3636 55.4837 36.3948C55.4082 36.4261 55.3273 36.4422 55.2456 36.4422Z" fill="#2A4E96"/>
<path d="M44.1714 39.8875H44.1142C44.0325 39.8876 43.9516 39.8715 43.8762 39.8403C43.8007 39.8091 43.7321 39.7633 43.6744 39.7056C43.6166 39.6479 43.5708 39.5793 43.5395 39.5039C43.5083 39.4284 43.4922 39.3476 43.4922 39.2659C43.4921 39.1842 43.5082 39.1033 43.5394 39.0279C43.5706 38.9524 43.6164 38.8838 43.6741 38.826C43.7318 38.7682 43.8004 38.7223 43.8758 38.691C43.9513 38.6597 44.0321 38.6436 44.1138 38.6436H44.171C44.2528 38.6433 44.3339 38.6592 44.4096 38.6904C44.4853 38.7215 44.554 38.7673 44.612 38.8251C44.6699 38.8829 44.7159 38.9515 44.7473 39.0271C44.7786 39.1027 44.7948 39.1837 44.7948 39.2656C44.7948 39.3474 44.7787 39.4284 44.7474 39.504C44.7161 39.5795 44.6701 39.6482 44.6122 39.706C44.5543 39.7638 44.4855 39.8095 44.4099 39.8407C44.3342 39.8719 44.2532 39.8878 44.1714 39.8875Z" fill="#2A4E96"/>
<path d="M50.1597 44.6878H50.1025C50.0208 44.6879 49.9399 44.6718 49.8645 44.6406C49.789 44.6094 49.7204 44.5636 49.6627 44.5059C49.6049 44.4482 49.5591 44.3796 49.5278 44.3042C49.4966 44.2287 49.4805 44.1479 49.4805 44.0662C49.4804 43.9845 49.4965 43.9036 49.5277 43.8281C49.559 43.7526 49.6048 43.6839 49.6625 43.6262C49.7203 43.5684 49.7889 43.5225 49.8644 43.4912C49.9398 43.4599 50.0208 43.4438 50.1025 43.4438H50.1597C50.3246 43.4438 50.4828 43.5094 50.5995 43.626C50.7161 43.7427 50.7816 43.9009 50.7816 44.0658C50.7816 44.2308 50.7161 44.389 50.5995 44.5057C50.4828 44.6223 50.3246 44.6878 50.1597 44.6878Z" fill="#F99746"/>
<path d="M16.793 39.6933C16.793 39.6933 18.1332 41.2836 19.8404 40.6169C19.8404 40.6169 20.2077 39.7288 20.2127 39.0742C20.2127 38.9935 20.2145 38.9154 20.2155 38.8411C20.2248 38.1037 20.2511 37.6902 20.2511 37.6902H20.2464C20.169 37.6579 17.637 36.6182 17.6391 36.7048C17.6839 38.6998 16.793 39.6933 16.793 39.6933Z" fill="#FFB27D"/>
<path d="M17.8962 37.1812C18.1402 37.6338 18.9778 38.519 20.2168 38.8426C20.2261 38.1052 20.2524 37.6917 20.2524 37.6917H20.2478C20.1792 37.6725 17.8234 37.048 17.8962 37.1812Z" fill="#ED975D"/>
<path d="M20.7813 37.6152C20.7813 37.6152 17.9346 38.2855 17.5449 36.5051C17.1552 34.7247 16.5258 33.6132 18.3264 33.1106C20.127 32.6079 20.6311 33.2097 20.9053 33.772C21.1795 34.3343 21.5127 37.3953 20.7813 37.6152Z" fill="#FFB27D"/>
<path d="M17.64 36.99C17.601 37.0149 16.9886 37.2032 15.8284 34.8917C15.6465 34.5287 15.5222 33.744 15.9467 33.0503C16.3712 32.3565 17.877 31.8116 19.1277 31.5743C20.3784 31.337 20.6786 32.0407 20.9749 32.7465C21.2843 33.489 22.1769 34.1003 22.1769 34.1003C21.0985 34.7042 19.7994 33.8413 19.3494 33.9827C18.8993 34.1241 18.7405 34.8352 18.7068 35.0612C18.673 35.2871 18.6208 35.4775 18.0549 35.2743C17.4891 35.0711 17.7992 36.076 17.8898 36.2689C17.8876 36.27 17.9644 36.7819 17.64 36.99Z" fill="#A9453D"/>
<path d="M10.3081 81.369H8.58426C8.22264 81.369 7.82124 81.007 7.72071 80.3445C7.62018 79.682 6.87706 79.3201 6.71615 78.7776C6.55523 78.2352 7.37934 77.4718 7.37934 77.4718L7.51682 77.2942L7.6589 77.1099L9.02438 77.4296C9.02438 77.4296 9.05812 77.7546 9.07944 78.1688C9.09703 78.4845 9.09881 78.8009 9.08476 79.1169C9.04462 79.8401 9.2876 80.6187 9.92984 80.7594C10.5721 80.9001 10.3081 81.369 10.3081 81.369Z" fill="#2C3A64"/>
<path d="M22.308 81.369H17.7391C17.7058 81.3635 17.6732 81.3541 17.6422 81.3409C17.337 81.1878 17.4326 80.0198 17.4692 79.6589C17.4763 79.5921 17.4812 79.5524 17.4812 79.5524C17.4812 79.5524 19.0883 78.2672 19.3096 79.2515C19.3163 79.282 19.3245 79.3122 19.333 79.3417C19.6119 80.2624 20.8605 80.6805 21.5794 80.7981C22.1304 80.888 22.2725 81.2084 22.308 81.369Z" fill="#2C3A64"/>
<path d="M21.3891 55.0141C21.3891 55.0141 21.1451 58.059 20.8584 61.7196C20.4677 66.6927 19.9995 72.799 19.9533 73.9563C19.8731 75.965 19.5512 79.178 19.5512 79.178C19.5512 79.178 18.7886 79.9418 17.2615 79.6199C17.2615 79.6199 15.9006 75.0322 15.512 70.1781L15.4939 69.9384C15.1323 64.9969 14.5703 54.5928 14.5703 54.5928L21.3891 55.0141Z" fill="#2B478B"/>
<path d="M21.3891 55.0143C21.3891 55.0143 21.1451 58.0593 20.8584 61.7199L15.512 70.1791L15.4939 69.9393C15.1323 64.9978 14.5703 54.5938 14.5703 54.5938L21.3891 55.0143Z" fill="#233862"/>
<path d="M20.2749 55.3757C20.2749 55.3757 15.8758 66.4036 12.9832 71.5859C10.0907 76.7683 9.18663 78.2147 9.18663 78.2147C9.18663 78.2147 7.52952 77.5519 7.37891 77.1C7.37891 77.1 8.48507 67.0949 10.4221 64.6563C11.5165 63.278 12.8021 59.1422 12.8628 57.696C12.9236 56.2499 13.2536 53.3872 13.2536 53.3872L20.2749 55.3757Z" fill="#2B478B"/>
<path d="M10.2433 53.3722L10.1968 54.0827C10.1968 54.0827 10.6646 55.343 9.35383 55.9892C9.35383 55.9892 8.79293 56.2154 8.7702 55.7785C8.74747 55.3416 8.81922 55.5061 8.77375 54.8905C8.72828 54.2749 8.96984 53.6944 9.37763 53.4987L9.71154 53.1133L10.2433 53.3722Z" fill="#FFB27D"/>
<path d="M9.73101 53.8888C10.218 54.0451 10.2958 54.0096 10.2958 54.0096C10.2958 54.0096 12.6659 49.6951 12.906 49.3001C13.1461 48.905 17.9377 44.4616 17.9377 44.4616L16.7061 39.8696C16.7061 39.8696 11.256 46.9272 10.6674 47.9399C9.69478 49.6134 9.125 53.4998 9.125 53.4998C9.29037 53.6792 9.49903 53.8132 9.73101 53.8888Z" fill="#ED7D2B"/>
<path d="M13.3959 55.2781C14.6001 55.9885 15.7368 56.5175 17.0565 56.796C18.6194 57.1363 20.5316 56.991 21.1721 57.0716C21.2382 57.0789 21.3047 57.0618 21.3593 57.0237C21.4061 56.9942 21.658 55.0646 21.8981 52.6228C21.9045 52.5667 21.9109 52.5074 21.9155 52.4484C21.9187 52.409 21.9212 52.3692 21.9223 52.3312L21.9262 52.2957C21.9525 52.042 21.9777 51.7834 22.0011 51.522C22.0601 50.8702 22.1113 50.2016 22.1585 49.5345C22.1631 49.4709 22.1677 49.407 22.172 49.3431C22.2462 48.2664 22.301 47.2064 22.318 46.2633C22.318 46.2409 22.318 46.2182 22.318 46.1958C22.3311 45.4061 22.318 44.6999 22.2676 44.1394C22.2573 44.0211 22.2455 43.9103 22.232 43.8059C22.0452 42.3903 21.36 41.3946 20.7167 40.6469L20.0876 39.9329C19.4837 39.9858 18.9612 40.0075 18.3715 39.6292C17.7321 39.2196 17.3204 38.8338 17.1911 38.9063C16.2025 39.4846 15.1308 40.9072 14.5955 42.8382C14.3067 43.8776 14.0918 45.0481 13.9561 46.28C13.9049 46.7536 13.8656 47.234 13.8381 47.7211C13.6982 50.3359 13.289 52.5702 13.0513 53.8689C12.9831 54.2426 12.9295 54.5392 12.9 54.7453C12.8716 54.9328 13.236 55.1833 13.3959 55.2781Z" fill="#F99746"/>
<path d="M17.9375 43.0562C17.9375 43.0562 18.4753 49.0033 21.916 52.4482C21.9192 52.4088 21.9217 52.369 21.9227 52.331L21.9266 52.2955C21.9529 52.0418 21.9781 51.7832 22.0016 51.5218C22.0606 50.87 22.1117 50.2014 22.159 49.5343C22.1636 49.4707 22.1682 49.4068 22.1725 49.3429C22.2467 48.2662 22.3014 47.2062 22.3185 46.2631C22.3185 46.2407 22.3185 46.218 22.3185 46.1956C22.3117 45.6319 22.295 45.1179 22.268 44.6664C21.1665 43.7879 19.7367 43.1737 17.9375 43.0562Z" fill="#ED7D2B"/>
<path d="M29.4055 54.9423L35.8063 36.128C35.8358 36.0424 35.8752 35.9603 35.7899 35.9294L35.7122 35.901C35.6248 35.8694 35.5992 35.9255 35.5676 36.0129L28.7445 54.5555C28.7132 54.6408 28.7156 54.7348 28.7511 54.8184C28.7866 54.902 28.8525 54.9691 28.9356 55.0059L29.0937 55.0769C29.1228 55.09 29.1544 55.0969 29.1863 55.0972C29.2183 55.0974 29.2499 55.091 29.2793 55.0783C29.3086 55.0657 29.335 55.047 29.3567 55.0236C29.3785 55.0002 29.3951 54.9725 29.4055 54.9423Z" fill="#2A4E96"/>
<path d="M31.1259 46.857C31.1291 46.5817 31.8555 45.9448 31.9038 46.0215C31.9394 46.0769 31.8633 46.3661 31.8228 46.4879C32.1244 46.2858 32.1933 45.5722 32.7027 45.2535C32.8448 45.1654 33.3471 46.5451 32.87 47.0456C32.393 47.5461 32.1646 47.4904 31.371 47.9536L30.7959 47.9923L30.5117 47.0986C30.5117 47.0986 30.8183 46.9881 31.1259 46.857Z" fill="#FFB27D"/>
<path d="M31.4209 47.5803C31.4585 47.0379 30.7435 46.7238 30.7435 46.7238C30.7435 46.7238 25.2929 47.2922 24.824 47.1444C24.3552 46.9966 20.8527 41.9706 20.8527 41.9706C20.8527 41.9706 19.316 40.2375 18.0578 40.6208C16.9644 40.9536 16.5371 41.8065 16.3914 42.6189C16.3084 43.0927 16.37 43.5805 16.5682 44.0187C16.7665 44.4569 17.0922 44.8252 17.5029 45.0756C19.3856 46.2301 22.6771 49.4114 23.5644 49.6718C25.5395 50.2508 31.1804 48.3575 31.1804 48.3575C31.3143 48.1182 31.3962 47.8534 31.4209 47.5803Z" fill="#F99746"/>
<path d="M92.2081 64.3734C92.3069 61.9387 92.5204 59.8209 92.7765 58.3439C93.1836 55.9895 93.5501 54.635 93.5544 54.6204C93.608 54.4137 94.3828 53.5757 96.1056 53.6017C97.8284 53.6276 97.665 54.7263 97.665 54.7263C97.6653 54.7593 97.6611 54.7921 97.6526 54.824C97.6359 54.8805 96.0541 60.6141 96.123 68.0169C96.123 68.121 96.1358 68.3011 96.1283 68.4201C96.1283 68.4201 92.1364 68.5231 92.1353 68.4201C91.9953 67.7732 92.0632 65.9804 92.2081 64.3734Z" fill="#B7D3F3"/>
<path d="M91.7073 67.9817C91.7073 68.0847 91.7627 68.1671 91.8292 68.1671C91.8956 68.1671 91.9485 68.0829 91.9492 67.9817H95.3704C95.3704 68.0847 95.4261 68.1671 95.4922 68.1671C95.5597 68.1671 95.6133 68.0804 95.6126 67.976C95.5968 66.024 95.6917 64.0727 95.8968 62.1315C96.3515 57.7761 97.1923 54.8651 97.2044 54.825C97.2127 54.7931 97.2168 54.7602 97.2165 54.7273C97.2165 54.7273 97.3799 53.6286 95.6574 53.6026C93.9349 53.5767 93.1598 54.4147 93.1062 54.6218C93.103 54.6324 92.8955 55.3997 92.6195 56.7783C92.5282 57.2351 92.4295 57.7591 92.3282 58.3445C92.0728 59.8215 91.8593 61.9397 91.7599 64.374C91.6189 65.98 91.5681 67.3334 91.7073 67.9817Z" fill="#D2E3FC"/>
<path d="M95.8699 68.1664H82.457C82.457 68.1664 82.7693 66.9021 90.5373 67.0904C96.0343 67.2236 95.8699 68.1664 95.8699 68.1664Z" fill="#C5DCF8"/>
<path d="M96.9612 81.3689C95.406 73.4962 95.806 68.6651 95.8078 68.604C95.8117 68.4829 95.5882 68.3728 95.4682 68.3689C95.3481 68.365 94.8099 68.3334 94.7478 68.4371C94.6664 68.5728 94.3531 74.5252 96.6709 81.3672L96.9612 81.3689Z" fill="#B7D3F3"/>
<path d="M84.4375 81.3689C85.9927 73.4962 85.5927 68.6651 85.5909 68.604C85.587 68.4829 85.8104 68.3728 85.9305 68.3689C86.0506 68.365 86.5891 68.3334 86.6509 68.4371C86.7322 68.5728 87.0455 74.5252 84.7277 81.3672L84.4375 81.3689Z" fill="#B7D3F3"/>
<path d="M81.9531 81.3689C83.5083 73.4962 83.1083 68.6651 83.1065 68.604C83.1026 68.4829 83.3261 68.3728 83.4461 68.3689C83.5662 68.365 84.1047 68.3334 84.1669 68.4371C84.2482 68.5728 84.5612 74.5252 82.2433 81.3672L81.9531 81.3689Z" fill="#B7D3F3"/>
<path d="M94.4612 81.3689C92.906 73.4962 93.306 68.6651 93.3081 68.604C93.312 68.4829 93.0886 68.3728 92.9682 68.3689C92.8477 68.365 92.3099 68.3334 92.2478 68.4371C92.1664 68.5728 91.8531 74.5252 94.1709 81.3672L94.4612 81.3689Z" fill="#B7D3F3"/>
<path d="M95.8618 68.5688H82.449C82.376 68.5688 82.3061 68.5399 82.2545 68.4883C82.203 68.4368 82.174 68.3668 82.174 68.2939V68.1135C82.174 68.0406 82.2029 67.9708 82.2544 67.9193C82.3059 67.8678 82.3758 67.8389 82.4486 67.8389H95.8618C95.9347 67.8389 96.0046 67.8678 96.0562 67.9194C96.1077 67.971 96.1367 68.0409 96.1367 68.1138V68.2943C96.1366 68.3671 96.1076 68.437 96.0561 68.4884C96.0045 68.5399 95.9346 68.5688 95.8618 68.5688Z" fill="#B7D3F3"/>
<path d="M82.9166 56.4562L78.4578 55.4907L78.1953 56.1301C78.1953 56.1301 83.1148 59.0575 83.5759 58.9144C84.0369 58.7712 82.9166 56.4562 82.9166 56.4562Z" fill="#FFB27D"/>
<path d="M86.9702 76.6207C87.0817 76.7486 87.0959 76.8917 87.0412 77.0445C87.0414 77.0452 87.0414 77.0459 87.0412 77.0466C86.9389 77.3308 86.6011 77.6441 86.2089 77.9592C86.159 77.9997 86.1145 78.0367 86.0754 78.0704L86.0456 78.0974L86.0225 78.1183C85.6566 78.4554 85.7944 78.5325 85.1372 79.2167C84.3881 79.9982 83.8723 80.0102 83.7256 79.9392C83.6013 79.8788 83.8535 79.4653 84.133 79.0007L84.1739 78.9329C84.2112 78.871 84.2481 78.8085 84.2851 78.7464C84.6126 78.1869 84.5284 77.9247 84.4506 77.0924C84.3877 76.4175 83.3984 73.3136 83.3984 73.3136L84.8342 73.0649C84.8342 73.0649 85.2665 75.5352 85.7429 75.9156C85.998 76.1184 86.2828 76.1209 86.5279 76.2708C86.545 76.2815 86.5635 76.2921 86.5787 76.3031C86.7166 76.3973 86.8583 76.4925 86.9702 76.6207Z" fill="#FFB27D"/>
<path d="M86.9725 76.6211C87.084 76.7489 87.0982 76.8921 87.0435 77.0448C87.0437 77.0455 87.0437 77.0463 87.0435 77.047C86.9181 77.329 86.5892 77.6427 86.2098 77.9567C86.1604 77.9979 86.1167 78.0356 86.0777 78.0707L86.0478 78.0977L86.0247 78.1187C85.6589 78.4558 85.7967 78.5329 85.1395 79.217C84.3904 79.9985 83.8746 80.0106 83.7279 79.9395C83.6036 79.8792 83.8558 79.4657 84.1353 79.001C84.6594 78.7964 85.1202 78.457 85.471 78.0171C85.9221 77.4413 86.223 76.7028 86.5302 76.2729C86.5473 76.2836 86.5658 76.2943 86.581 76.3053C86.7189 76.3976 86.8606 76.4928 86.9725 76.6211Z" fill="#1C468A"/>
<path d="M75.3951 75.7258C75.3067 76.1691 74.6748 76.0952 73.9689 75.9226C73.2631 75.75 73.4311 75.9553 72.4266 75.8441C71.422 75.7329 71.1179 75.3585 71.087 75.209C71.0597 75.0765 71.5559 75.0296 72.0884 74.9685C72.1555 74.961 72.2227 74.9525 72.2898 74.9443C72.8908 74.869 73.331 74.4825 73.8769 74.1628C74.3941 73.8613 75.166 72.6318 75.166 72.6318L76.5436 72.7409C76.5436 72.7409 75.8207 73.8389 75.5411 74.3163C75.3767 74.5969 75.3856 74.9685 75.4058 75.2551C75.4165 75.409 75.4268 75.5681 75.3951 75.7258Z" fill="#FFB27D"/>
<path d="M73.9689 75.9209C73.2631 75.7486 73.4311 75.9536 72.4266 75.8424C71.422 75.7312 71.1179 75.3568 71.087 75.2073C71.0597 75.0748 71.5559 75.0279 72.0884 74.9668L72.0934 74.9771C72.5238 75.2532 73.0209 75.4076 73.532 75.424C74.2133 75.4407 74.9351 75.2464 75.4058 75.2531C75.4165 75.409 75.4268 75.5682 75.3951 75.7241C75.3078 76.1674 74.6748 76.0936 73.9689 75.9209Z" fill="#1C468A"/>
<path d="M78.4601 55.4906C78.4601 55.4906 78.1319 54.6864 77.771 54.6537C77.4101 54.6211 76.2613 54.4406 76.1792 54.6044C76.0972 54.7681 76.1792 55.3592 76.4254 55.5727C76.6715 55.7862 78.1976 56.1304 78.1976 56.1304L78.4601 55.4906Z" fill="#FFB27D"/>
<path d="M80.6719 66.9162L83.6408 74.9062C83.6408 74.9062 84.0969 74.9502 84.5342 74.8241C84.9367 74.7083 85.3977 74.4039 85.3977 74.4039C85.3977 74.4039 84.6614 66.7311 83.3112 65.1361C81.961 63.5412 80.6719 66.9162 80.6719 66.9162Z" fill="#163560"/>
<path d="M92.416 63.6839C92.416 63.6839 83.885 60.7995 81.9824 61.4133C80.0799 62.0272 74.3672 73.3925 74.3672 73.3925C74.3672 73.3925 74.4961 73.5641 74.8482 73.6959C75.1753 73.8188 75.9678 73.8109 75.9678 73.8109C75.9678 73.8109 81.1231 69.392 81.737 68.1029C82.3508 66.8138 82.5963 65.5865 83.2101 65.7094C83.8239 65.8323 91.1273 68.7167 92.7844 66.9981C94.4415 65.2796 94.0081 63.047 94.0081 63.047L92.416 63.6839Z" fill="#1C468A"/>
<path d="M87.2025 50.2638C87.0665 49.9824 86.9141 49.4823 86.8395 48.5921C86.8509 48.6805 87.0043 49.8037 87.4363 50.4392C89.2106 51.604 92.6111 55.4937 92.544 56.2294C92.544 56.2294 93.7418 54.1978 93.7624 54.1858C93.7624 54.1858 95.9719 51.376 93.3532 49.7664C92.0222 48.9494 92.0289 47.8987 92.0847 46.9868C92.1405 46.075 91.7217 42.1491 89.0554 43.1764C89.0554 43.1764 88.6291 42.9863 88.4359 43.0147C88.4359 43.0147 88.5925 43.0446 88.6721 43.127C88.363 43.1085 87.9211 43.1313 87.5521 43.3401C86.5749 43.8978 85.7003 48.8809 87.2025 50.2638Z" fill="#2C3A64"/>
<path d="M87.543 50.4976C87.5342 50.5019 88.3995 50.9512 89.0506 50.7729C89.663 50.6059 90.0633 49.8138 90.0548 49.8103C89.7955 49.7587 89.7205 49.4025 89.7262 47.8711L89.609 47.8942L87.6375 48.2849C87.6375 48.2849 87.6823 48.9055 87.6837 49.4898C87.6851 49.98 87.6553 50.4454 87.543 50.4976Z" fill="#FFB27D"/>
<path d="M87.6367 48.2841C87.6367 48.2841 87.6815 48.9046 87.6829 49.489C88.7862 49.4581 89.3691 48.4517 89.6082 47.894L87.6367 48.2841Z" fill="#ED975D"/>
<path d="M89.8108 47.6792C89.8108 47.6792 90.3888 46.7659 90.5277 45.9848C90.6268 45.4274 90.3426 43.3604 88.2656 43.6581C87.8473 43.716 87.4473 43.8672 87.0952 44.1003C86.6444 44.4051 85.994 45.0626 86.7211 46.8661L86.9101 47.4756L89.8108 47.6792Z" fill="#2C3A64"/>
<path d="M87.2681 48.8377C87.2681 48.8377 89.8779 48.8811 89.8797 47.2552C89.8814 45.6294 90.2196 44.5399 88.5533 44.444C86.8869 44.3481 86.564 44.9676 86.4301 45.5096C86.2962 46.0517 86.5892 48.7848 87.2681 48.8377Z" fill="#FFB27D"/>
<path d="M87.3633 44.4035C87.3633 44.4035 88.078 46.311 89.1749 46.5931C90.2718 46.8751 90.7471 46.581 90.7471 46.581C90.4795 45.8877 90.2865 45.1679 90.1713 44.4337C90.1713 44.4337 87.9022 43.4959 87.3633 44.4035Z" fill="#2C3A64"/>
<path d="M87.5404 44.5586C87.5404 44.5586 87.0076 44.9849 86.8765 45.3987C86.7454 45.8126 86.6879 46.6647 86.4396 46.636C86.4396 46.636 85.901 45.3394 86.506 44.6062C87.1475 43.8269 87.5404 44.5586 87.5404 44.5586Z" fill="#2C3A64"/>
<path d="M93.3531 57.5193C93.6103 56.4398 92.7347 54.3454 91.8207 52.6112C90.9913 51.0393 90.1302 49.7645 90.0531 49.8103C87.8657 51.109 87.6678 50.0291 87.6678 50.0291C87.6678 50.0291 85.6807 50.2927 85.118 51.261C84.4204 52.4627 83.6662 55.8206 82.9174 56.4561C83.0325 56.8081 82.9831 56.9957 82.8609 57.4316C82.8351 57.5263 82.8062 57.6152 82.7743 57.6983C82.6709 57.9657 82.5451 58.2239 82.3984 58.4702C82.7792 58.7015 83.5142 59.1416 84.0559 58.8255C84.8818 58.3424 85.5258 56.8717 85.8885 56.2853L85.8924 56.2789C86.6806 60.7397 85.6082 61.7557 86.1514 62.226C86.7243 62.7233 87.5428 61.9898 89.343 62.7698C90.5241 63.2821 92.1628 64.0227 93.2657 64.1516C93.8444 64.2195 94.2763 64.119 94.417 63.7282C94.8262 62.5926 92.8622 59.5771 93.3531 57.5193Z" fill="#A8D29F"/>
<path d="M87.8479 47.8522C87.8479 47.8522 87.7992 48.0586 87.2856 48.027C87.2856 48.027 86.8543 48.0003 86.8675 47.7734C86.8675 47.7734 87.2856 47.6117 87.8479 47.8522Z" fill="white"/>
<path d="M94.4188 63.7284C94.2767 64.1191 93.8462 64.2196 93.2675 64.1518C92.5041 63.8193 89.2056 62.5412 89.2425 61.6755C89.2976 60.3935 89.8769 60.3527 89.4677 58.7702C89.1391 57.4999 92.1866 55.1373 92.6729 54.624C93.5869 56.3579 93.6121 56.4399 93.3549 57.5194C92.864 59.5772 94.828 62.5927 94.4188 63.7284Z" fill="#82B378"/>
<path d="M94.7912 59.1048C94.2065 58.2832 93.597 57.8491 93.1963 57.6306C93.2883 57.3926 90.7357 54.2631 90.7357 53.7782C90.7357 53.2873 90.0547 49.8101 90.0547 49.8101C90.0547 49.8101 92.1818 49.9415 92.9181 50.9684C93.8392 52.2529 95.7517 57.1962 94.7912 59.1048Z" fill="#A8D29F"/>
<path d="M93.1959 57.6304L88.9453 58.7394L89.3442 59.4566C89.3442 59.4566 94.517 59.421 94.7908 59.1056C95.0647 58.7902 93.1959 57.6304 93.1959 57.6304Z" fill="#FFB27D"/>
<path d="M85.8885 56.2852C85.5258 56.8709 84.8818 58.3422 84.0559 58.8253C83.5142 59.1419 82.7792 58.7017 82.3984 58.4701C82.5451 58.2238 82.6709 57.9656 82.7743 57.6982C83.0783 57.7693 83.4492 57.8567 83.6882 57.9288C84.1532 58.0712 85.8885 56.2852 85.8885 56.2852Z" fill="#82B378"/>
<path d="M88.9449 58.7394C88.9449 58.7394 87.6099 58.3618 87.292 58.4498C86.9741 58.5379 85.885 59.2594 86.0381 59.4555C86.1912 59.6516 87.151 59.3383 87.5926 59.3972C88.0341 59.4562 88.374 59.6747 88.6937 59.6274C88.9153 59.5901 89.133 59.5325 89.3441 59.4555L88.9449 58.7394Z" fill="#FFB27D"/>
<path d="M88.9452 58.7396C88.9452 58.7396 88.2923 58.4039 88.1065 58.2131C88.101 58.2076 88.0942 58.2033 88.0868 58.2007C88.0794 58.1981 88.0714 58.1972 88.0636 58.1981C88.0558 58.199 88.0483 58.2016 88.0416 58.2058C88.0349 58.21 88.0293 58.2157 88.0252 58.2224C87.9754 58.3009 87.9289 58.4526 88.158 58.6032C88.4877 58.8202 88.9452 58.7396 88.9452 58.7396Z" fill="#FFB27D"/>
<path d="M82.7773 60.6174H89.0047C89.0047 60.4855 88.9523 60.359 88.8591 60.2658C88.7658 60.1725 88.6393 60.1201 88.5074 60.1201H82.7773V60.6174Z" fill="#ED7D2B"/>
<path d="M82.7959 53.835H73.168L75.4773 60.6169H85.1677L82.7959 53.835Z" fill="#ED7D2B"/>
<path d="M73.0234 53.835L75.3331 60.6169H85.0232L82.6514 53.835H73.0234Z" fill="#F99746"/>
<path d="M78.2155 57.1636C78.2751 57.4225 78.5352 57.6325 78.7931 57.6325C79.0509 57.6325 79.2136 57.4225 79.154 57.1636C79.0943 56.9046 78.8343 56.6943 78.5764 56.6943C78.3185 56.6943 78.1558 56.9043 78.2155 57.1636Z" fill="#F9DDBF"/>
<path d="M73.0234 53.835L75.3324 60.6169H81.7495C77.4985 59.1658 76.3671 54.7418 76.1771 53.835H73.0234Z" fill="#ED893E"/>
<path d="M100.977 81.3689C100.919 81.3694 100.862 81.3494 100.817 81.3124C100.772 81.2754 100.742 81.2237 100.731 81.1664L99.523 74.3106L97.7825 64.4529L97.2969 61.6981L98.5359 61.6626L98.7508 63.2629L100.26 74.5078L101.155 81.1735C101.158 81.1984 101.155 81.2236 101.148 81.2474C101.14 81.2712 101.127 81.2932 101.111 81.3117C101.094 81.3302 101.073 81.3449 101.05 81.3548C101.027 81.3647 101.002 81.3695 100.977 81.3689Z" fill="#95C0F4"/>
<path d="M98.7497 63.2632C97.9469 63.6185 97.7821 64.4546 97.7821 64.4546L97.2969 61.6981L98.5359 61.6626L98.7497 63.2632Z" fill="#78ACEA"/>
<path d="M70.1606 81.3687C70.2189 81.3692 70.2756 81.3492 70.3206 81.3122C70.3657 81.2752 70.3963 81.2235 70.4072 81.1662L71.6167 74.3104L73.3573 64.4527L73.8436 61.6962L72.6049 61.6606L72.39 63.2609L70.8807 74.5058L69.9859 81.1716C69.9826 81.1963 69.9847 81.2215 69.992 81.2454C69.9993 81.2693 70.0117 81.2913 70.0283 81.31C70.0448 81.3287 70.0652 81.3436 70.0881 81.3537C70.1109 81.3639 70.1357 81.369 70.1606 81.3687Z" fill="#95C0F4"/>
<path d="M72.3906 63.2632C73.1931 63.6185 73.3579 64.4546 73.3579 64.4546L73.8442 61.6981L72.6055 61.6626L72.3906 63.2632Z" fill="#78ACEA"/>
<path d="M101.801 60.6162H70.0759C69.6586 60.6162 69.3203 60.9545 69.3203 61.3718V62.025C69.3203 62.4423 69.6586 62.7806 70.0759 62.7806H101.801C102.219 62.7806 102.557 62.4423 102.557 62.025V61.3718C102.557 60.9545 102.219 60.6162 101.801 60.6162Z" fill="#78ACEA"/>
</g>
<defs>
<clipPath id="clip0_59_37361">
<rect width="105" height="56.5613" fill="white" transform="translate(0 25)"/>
</clipPath>
</defs>
</svg>
