<svg width="105" height="105" viewBox="0 0 105 105" fill="none" xmlns="http://www.w3.org/2000/svg">
<g clip-path="url(#clip0_59_30583)">
<path d="M98.9637 69.7213C89.2095 92.6856 63.2265 105.553 40.6955 102.082C37.0292 101.518 26.9772 99.8354 18.078 91.8988C0.943694 76.6204 -2.72004 46.3675 11.0999 25.0472C21.1571 9.52982 39.1897 0.73339 56.3225 1.17348C60.0118 1.26834 74.1559 1.85111 86.5856 12.1014C88.4111 13.6073 92.4377 17.1837 96.0668 22.8592C104.588 36.1853 105.321 54.7513 98.9637 69.7213Z" fill="#F9FFE9"/>
<path d="M22.5075 0.186206C19.593 4.37812 3.62943 29.4652 24.4798 48.6746C24.4798 48.6746 39.2413 34.8641 23.2541 0.250581C23.2221 0.181607 23.1724 0.122305 23.1102 0.0786707C23.0479 0.0350364 22.9752 0.00861739 22.8995 0.002085C22.8237 -0.00444738 22.7476 0.00913853 22.6787 0.041469C22.6099 0.0737994 22.5509 0.123728 22.5075 0.186206Z" fill="#B2D550"/>
<path opacity="0.48" d="M22.8269 5.34606C22.502 6.94113 22.2099 8.54599 21.9313 10.1505C21.6527 11.755 21.3949 13.3647 21.1547 14.9771C20.6743 18.2 20.2658 21.4342 19.9575 24.677C19.6492 27.9199 19.4399 31.1722 19.4064 34.4274C19.3845 36.0545 19.4222 37.6796 19.5193 39.3026C19.6206 40.9214 19.7862 42.5402 20.0787 44.1334C20.0887 44.1883 20.0765 44.2449 20.0447 44.2908C20.029 44.3136 20.0089 44.333 19.9857 44.3479C19.9625 44.3629 19.9365 44.3732 19.9093 44.3781C19.8544 44.3881 19.7978 44.3759 19.7519 44.3441C19.706 44.3123 19.6746 44.2636 19.6646 44.2087C19.3778 42.5899 19.2215 40.9583 19.1293 39.3252C19.0371 37.6921 19.0126 36.0564 19.0446 34.4229C19.0981 31.1556 19.3307 27.8962 19.6571 24.6492C19.9835 21.4022 20.4153 18.1665 20.916 14.9429C21.167 13.3308 21.4361 11.7221 21.7235 10.1166C22.0156 8.50835 22.3176 6.90725 22.6534 5.30841C22.6588 5.28609 22.6728 5.26676 22.6922 5.25447C22.7116 5.24219 22.735 5.23791 22.7576 5.24254C22.7801 5.24717 22.7999 5.26035 22.8129 5.2793C22.8259 5.29825 22.8311 5.32151 22.8273 5.34418L22.8269 5.34606Z" fill="white"/>
<path d="M3.38926 4.10984C1.56718 10.3124 -7.5628 46.8414 25.1763 61.5656C25.1763 61.5656 37.3774 39.0648 4.31197 3.88773C4.24585 3.81772 4.16242 3.76641 4.07011 3.73897C3.97781 3.71154 3.87989 3.70896 3.78627 3.7315C3.69265 3.75404 3.60663 3.80089 3.53692 3.86732C3.46721 3.93375 3.41627 4.01741 3.38926 4.10984Z" fill="#CEE68B"/>
<path opacity="0.48" d="M5.81568 10.1889C5.96626 12.3535 6.20419 14.5155 6.48578 16.6693C6.76738 18.823 7.10544 20.9692 7.49282 23.1076C8.2721 27.3812 9.25391 31.6198 10.5102 35.7767C11.7664 39.9336 13.2994 44.0091 15.2536 47.8799C15.7392 48.8489 16.2618 49.7999 16.8076 50.7339C17.3535 51.6679 17.9329 52.5846 18.5473 53.4753C19.7643 55.2635 21.145 56.9347 22.6714 58.4672C22.7107 58.5065 22.7328 58.5598 22.7328 58.6153C22.7328 58.6709 22.7107 58.7242 22.6714 58.7635C22.6321 58.8028 22.5788 58.8248 22.5233 58.8248C22.4677 58.8248 22.4144 58.8028 22.3751 58.7635C20.8378 57.2059 19.4486 55.5088 18.2254 53.694C17.6095 52.792 17.029 51.8678 16.4839 50.9214C15.9384 49.9765 15.4166 49.0176 14.9325 48.0403C12.9824 44.1364 11.4668 40.0333 10.2222 35.8614C8.97759 31.6894 8.01987 27.4342 7.26017 23.1493C6.88069 21.0065 6.55443 18.8554 6.28136 16.696C6.00918 14.5366 5.77954 12.3735 5.64138 10.199C5.6398 10.187 5.64071 10.1747 5.64405 10.1631C5.64739 10.1514 5.65309 10.1405 5.6608 10.1311C5.66851 10.1217 5.67806 10.114 5.68886 10.1085C5.69967 10.1029 5.7115 10.0996 5.72362 10.0988C5.73575 10.098 5.7479 10.0997 5.75934 10.1038C5.77079 10.1079 5.78127 10.1143 5.79014 10.1226C5.79902 10.1309 5.8061 10.1409 5.81094 10.152C5.81579 10.1632 5.8183 10.1752 5.81832 10.1873L5.81568 10.1889Z" fill="white"/>
<path d="M104.043 25.7593H8.57025C8.04173 25.7593 7.61328 26.1877 7.61328 26.7162V93.3359C7.61328 93.8644 8.04173 94.2928 8.57025 94.2928H104.043C104.572 94.2928 105 93.8644 105 93.3359V26.7162C105 26.1877 104.572 25.7593 104.043 25.7593Z" fill="#FAB06F"/>
<path d="M99.9343 90.861H12.4033C11.8262 90.8604 11.273 90.6309 10.8649 90.2229C10.4568 89.8149 10.2273 89.2617 10.2266 88.6847V31.3701C10.2273 30.793 10.4568 30.2397 10.8649 29.8317C11.2729 29.4236 11.8262 29.1941 12.4033 29.1934H99.9343C100.511 29.194 101.065 29.4235 101.473 29.8316C101.881 30.2396 102.11 30.793 102.111 31.3701V88.6847C102.11 89.2617 101.881 89.815 101.473 90.223C101.065 90.631 100.511 90.8605 99.9343 90.861ZM12.4033 29.4471C11.8935 29.4477 11.4047 29.6505 11.0442 30.011C10.6837 30.3715 10.4809 30.8602 10.4803 31.3701V88.6847C10.481 89.1944 10.6838 89.6831 11.0443 90.0435C11.4048 90.4039 11.8935 90.6067 12.4033 90.6073H99.9343C100.444 90.6068 100.933 90.404 101.293 90.0436C101.654 89.6832 101.857 89.1944 101.857 88.6847V31.3701C101.857 30.8602 101.654 30.3714 101.293 30.0109C100.933 29.6504 100.444 29.4476 99.9343 29.4471H12.4033Z" fill="white"/>
<path d="M10.1374 39.7677L10.1367 40.0215L96.0915 40.2615L96.0922 40.0078L10.1374 39.7677Z" fill="white"/>
<path d="M29.1287 29.407L28.875 29.4077L29.0567 90.6429L29.3104 90.6421L29.1287 29.407Z" fill="white"/>
<path d="M83.5428 29.2092L83.2891 29.21L83.4708 90.4451L83.7245 90.4444L83.5428 29.2092Z" fill="white"/>
<path d="M65.8162 29.2107L65.5625 29.2114L65.7442 90.4466L65.9979 90.4458L65.8162 29.2107Z" fill="white"/>
<path d="M47.4178 29.2116L47.1641 29.2124L47.3458 90.4476L47.5995 90.4468L47.4178 29.2116Z" fill="white"/>
<g opacity="0.56">
<path d="M27.8417 43.0542H12.5193C12.4525 43.0542 12.3984 43.1083 12.3984 43.175V44.9373C12.3984 45.004 12.4525 45.0581 12.5193 45.0581H27.8417C27.9084 45.0581 27.9625 45.004 27.9625 44.9373V43.175C27.9625 43.1083 27.9084 43.0542 27.8417 43.0542Z" fill="white"/>
<path d="M27.8417 48.9438H12.5193C12.4525 48.9438 12.3984 48.998 12.3984 49.0647V50.8269C12.3984 50.8937 12.4525 50.9478 12.5193 50.9478H27.8417C27.9084 50.9478 27.9625 50.8937 27.9625 50.8269V49.0647C27.9625 48.998 27.9084 48.9438 27.8417 48.9438Z" fill="white"/>
<path d="M27.8417 55.1836H12.5193C12.4525 55.1836 12.3984 55.2377 12.3984 55.3044V57.0667C12.3984 57.1334 12.4525 57.1875 12.5193 57.1875H27.8417C27.9084 57.1875 27.9625 57.1334 27.9625 57.0667V55.3044C27.9625 55.2377 27.9084 55.1836 27.8417 55.1836Z" fill="white"/>
<path d="M27.8417 74.4839H12.5193C12.4525 74.4839 12.3984 74.538 12.3984 74.6047V76.367C12.3984 76.4337 12.4525 76.4878 12.5193 76.4878H27.8417C27.9084 76.4878 27.9625 76.4337 27.9625 76.367V74.6047C27.9625 74.538 27.9084 74.4839 27.8417 74.4839Z" fill="white"/>
<path d="M28.4784 63.7495H13.156C13.0893 63.7495 13.0352 63.8036 13.0352 63.8704V65.6326C13.0352 65.6993 13.0893 65.7534 13.156 65.7534H28.4784C28.5452 65.7534 28.5993 65.6993 28.5993 65.6326V63.8704C28.5993 63.8036 28.5452 63.7495 28.4784 63.7495Z" fill="#FA8825"/>
</g>
<g opacity="0.56">
<path d="M45.8925 43.2529H30.5701C30.5033 43.2529 30.4492 43.307 30.4492 43.3738V45.136C30.4492 45.2027 30.5033 45.2568 30.5701 45.2568H45.8925C45.9592 45.2568 46.0133 45.2027 46.0133 45.136V43.3738C46.0133 43.307 45.9592 43.2529 45.8925 43.2529Z" fill="white"/>
<path d="M45.8925 49.1426H30.5701C30.5033 49.1426 30.4492 49.1967 30.4492 49.2634V51.0256C30.4492 51.0924 30.5033 51.1465 30.5701 51.1465H45.8925C45.9592 51.1465 46.0133 51.0924 46.0133 51.0256V49.2634C46.0133 49.1967 45.9592 49.1426 45.8925 49.1426Z" fill="white"/>
<path d="M45.8925 62.5532H30.5701C30.5033 62.5532 30.4492 62.6073 30.4492 62.6741V64.4363C30.4492 64.503 30.5033 64.5571 30.5701 64.5571H45.8925C45.9592 64.5571 46.0133 64.503 46.0133 64.4363V62.6741C46.0133 62.6073 45.9592 62.5532 45.8925 62.5532Z" fill="white"/>
<path d="M45.8925 68.4434H30.5701C30.5033 68.4434 30.4492 68.4975 30.4492 68.5642V70.3264C30.4492 70.3932 30.5033 70.4473 30.5701 70.4473H45.8925C45.9592 70.4473 46.0133 70.3932 46.0133 70.3264V68.5642C46.0133 68.4975 45.9592 68.4434 45.8925 68.4434Z" fill="#FA8825"/>
<path d="M45.8925 74.6826H30.5701C30.5033 74.6826 30.4492 74.7367 30.4492 74.8035V76.5657C30.4492 76.6324 30.5033 76.6865 30.5701 76.6865H45.8925C45.9592 76.6865 46.0133 76.6324 46.0133 76.5657V74.8035C46.0133 74.7367 45.9592 74.6826 45.8925 74.6826Z" fill="white"/>
</g>
<g opacity="0.56">
<path d="M64.3925 43.2529H49.0701C49.0033 43.2529 48.9492 43.307 48.9492 43.3738V45.136C48.9492 45.2027 49.0033 45.2568 49.0701 45.2568H64.3925C64.4592 45.2568 64.5133 45.2027 64.5133 45.136V43.3738C64.5133 43.307 64.4592 43.2529 64.3925 43.2529Z" fill="white"/>
<path d="M64.3925 49.1426H49.0701C49.0033 49.1426 48.9492 49.1967 48.9492 49.2634V51.0256C48.9492 51.0924 49.0033 51.1465 49.0701 51.1465H64.3925C64.4592 51.1465 64.5133 51.0924 64.5133 51.0256V49.2634C64.5133 49.1967 64.4592 49.1426 64.3925 49.1426Z" fill="#FA8825"/>
<path d="M64.3925 55.3823H49.0701C49.0033 55.3823 48.9492 55.4364 48.9492 55.5032V57.2654C48.9492 57.3321 49.0033 57.3862 49.0701 57.3862H64.3925C64.4592 57.3862 64.5133 57.3321 64.5133 57.2654V55.5032C64.5133 55.4364 64.4592 55.3823 64.3925 55.3823Z" fill="white"/>
<path d="M64.3925 68.4434H49.0701C49.0033 68.4434 48.9492 68.4975 48.9492 68.5642V70.3264C48.9492 70.3932 49.0033 70.4473 49.0701 70.4473H64.3925C64.4592 70.4473 64.5133 70.3932 64.5133 70.3264V68.5642C64.5133 68.4975 64.4592 68.4434 64.3925 68.4434Z" fill="white"/>
<path d="M64.3925 74.6826H49.0701C49.0033 74.6826 48.9492 74.7367 48.9492 74.8035V76.5657C48.9492 76.6324 49.0033 76.6865 49.0701 76.6865H64.3925C64.4592 76.6865 64.5133 76.6324 64.5133 76.5657V74.8035C64.5133 74.7367 64.4592 74.6826 64.3925 74.6826Z" fill="white"/>
</g>
<g opacity="0.56">
<path d="M82.1894 43.6309H66.8669C66.8002 43.6309 66.7461 43.685 66.7461 43.7517V45.5139C66.7461 45.5807 66.8002 45.6348 66.8669 45.6348H82.1894C82.2561 45.6348 82.3102 45.5807 82.3102 45.5139V43.7517C82.3102 43.685 82.2561 43.6309 82.1894 43.6309Z" fill="white"/>
<path d="M82.1894 55.7603H66.8669C66.8002 55.7603 66.7461 55.8144 66.7461 55.8811V57.6433C66.7461 57.7101 66.8002 57.7642 66.8669 57.7642H82.1894C82.2561 57.7642 82.3102 57.7101 82.3102 57.6433V55.8811C82.3102 55.8144 82.2561 55.7603 82.1894 55.7603Z" fill="#FA8825"/>
<path d="M82.1894 62.9312H66.8669C66.8002 62.9312 66.7461 62.9853 66.7461 63.052V64.8142C66.7461 64.881 66.8002 64.9351 66.8669 64.9351H82.1894C82.2561 64.9351 82.3102 64.881 82.3102 64.8142V63.052C82.3102 62.9853 82.2561 62.9312 82.1894 62.9312Z" fill="white"/>
<path d="M82.1894 68.8213H66.8669C66.8002 68.8213 66.7461 68.8754 66.7461 68.9421V70.7044C66.7461 70.7711 66.8002 70.8252 66.8669 70.8252H82.1894C82.2561 70.8252 82.3102 70.7711 82.3102 70.7044V68.9421C82.3102 68.8754 82.2561 68.8213 82.1894 68.8213Z" fill="white"/>
<path d="M82.1894 75.0605H66.8669C66.8002 75.0605 66.7461 75.1147 66.7461 75.1814V76.9436C66.7461 77.0104 66.8002 77.0645 66.8669 77.0645H82.1894C82.2561 77.0645 82.3102 77.0104 82.3102 76.9436V75.1814C82.3102 75.1147 82.2561 75.0605 82.1894 75.0605Z" fill="white"/>
</g>
<g opacity="0.56">
<path d="M100.228 43.6309H84.906C84.8393 43.6309 84.7852 43.685 84.7852 43.7517V45.5139C84.7852 45.5807 84.8393 45.6348 84.906 45.6348H100.228C100.295 45.6348 100.349 45.5807 100.349 45.5139V43.7517C100.349 43.685 100.295 43.6309 100.228 43.6309Z" fill="#FA8825"/>
<path d="M100.228 49.5205H84.906C84.8393 49.5205 84.7852 49.5746 84.7852 49.6414V51.4036C84.7852 51.4703 84.8393 51.5244 84.906 51.5244H100.228C100.295 51.5244 100.349 51.4703 100.349 51.4036V49.6414C100.349 49.5746 100.295 49.5205 100.228 49.5205Z" fill="white"/>
<path d="M100.228 62.9312H84.906C84.8393 62.9312 84.7852 62.9853 84.7852 63.052V64.8142C84.7852 64.881 84.8393 64.9351 84.906 64.9351H100.228C100.295 64.9351 100.349 64.881 100.349 64.8142V63.052C100.349 62.9853 100.295 62.9312 100.228 62.9312Z" fill="white"/>
<path d="M100.228 75.0605H84.906C84.8393 75.0605 84.7852 75.1147 84.7852 75.1814V76.9436C84.7852 77.0104 84.8393 77.0645 84.906 77.0645H100.228C100.295 77.0645 100.349 77.0104 100.349 76.9436V75.1814C100.349 75.1147 100.295 75.0605 100.228 75.0605Z" fill="white"/>
</g>
<path d="M15.2121 32.145H24.1644C24.1837 32.145 24.2022 32.1527 24.2158 32.1663C24.2294 32.1799 24.2371 32.1984 24.2371 32.2177V36.4653C24.2371 36.5091 24.2285 36.5524 24.2117 36.5928C24.195 36.6332 24.1704 36.67 24.1395 36.7009C24.1086 36.7318 24.0718 36.7564 24.0314 36.7731C23.991 36.7899 23.9477 36.7985 23.9039 36.7985H15.3175C15.2292 36.7985 15.1444 36.7634 15.082 36.7009C15.0195 36.6384 14.9844 36.5537 14.9844 36.4653V32.3724C14.9842 32.3425 14.9899 32.3128 15.0013 32.2851C15.0127 32.2574 15.0295 32.2322 15.0507 32.211C15.0719 32.1899 15.097 32.1732 15.1248 32.1618C15.1525 32.1505 15.1822 32.1448 15.2121 32.145Z" fill="#FA8825"/>
<path d="M33.677 32.145H42.6293C42.6388 32.145 42.6483 32.1469 42.6571 32.1506C42.6659 32.1542 42.6739 32.1596 42.6806 32.1663C42.6874 32.173 42.6927 32.1811 42.6964 32.1899C42.7 32.1987 42.7019 32.2081 42.7019 32.2177V36.4653C42.7019 36.5537 42.6668 36.6384 42.6043 36.7009C42.5419 36.7634 42.4571 36.7985 42.3688 36.7985H33.7824C33.694 36.7985 33.6093 36.7634 33.5468 36.7009C33.4843 36.6384 33.4492 36.5537 33.4492 36.4653V32.3724C33.4492 32.3125 33.473 32.255 33.5154 32.2127C33.5577 32.1703 33.6152 32.1465 33.6751 32.1465L33.677 32.145Z" fill="#FA8825"/>
<path d="M51.9582 32.145H60.9105C60.9298 32.145 60.9483 32.1527 60.9619 32.1663C60.9755 32.1799 60.9832 32.1984 60.9832 32.2177V36.4653C60.9832 36.5537 60.9481 36.6384 60.8856 36.7009C60.8231 36.7634 60.7384 36.7985 60.65 36.7985H52.0636C51.9753 36.7985 51.8905 36.7634 51.8281 36.7009C51.7656 36.6384 51.7305 36.5537 51.7305 36.4653V32.3724C51.7305 32.3125 51.7543 32.255 51.7966 32.2127C51.839 32.1703 51.8964 32.1465 51.9563 32.1465L51.9582 32.145Z" fill="#FA8825"/>
<path d="M70.4504 32.145H79.4027C79.422 32.145 79.4404 32.1527 79.4541 32.1663C79.4677 32.1799 79.4754 32.1984 79.4754 32.2177V36.4653C79.4754 36.5537 79.4403 36.6384 79.3778 36.7009C79.3153 36.7634 79.2305 36.7985 79.1422 36.7985H70.5558C70.4675 36.7985 70.3827 36.7634 70.3202 36.7009C70.2578 36.6384 70.2227 36.5537 70.2227 36.4653V32.3724C70.2227 32.3125 70.2465 32.255 70.2888 32.2127C70.3312 32.1703 70.3886 32.1465 70.4485 32.1465L70.4504 32.145Z" fill="#FA8825"/>
<path d="M87.6262 32.145H96.5785C96.5978 32.145 96.6162 32.1527 96.6299 32.1663C96.6435 32.1799 96.6511 32.1984 96.6511 32.2177V36.4653C96.6511 36.5537 96.616 36.6384 96.5536 36.7009C96.4911 36.7634 96.4063 36.7985 96.318 36.7985H87.7316C87.6432 36.7985 87.5585 36.7634 87.496 36.7009C87.4335 36.6384 87.3984 36.5537 87.3984 36.4653V32.3724C87.3982 32.3425 87.404 32.3128 87.4154 32.2851C87.4268 32.2574 87.4435 32.2322 87.4647 32.211C87.4859 32.1899 87.5111 32.1732 87.5388 32.1618C87.5666 32.1505 87.5963 32.1448 87.6262 32.145Z" fill="#FA8825"/>
<path d="M57.5477 56.1013C57.51 56.2256 57.9618 56.4145 58.2276 55.9067C58.237 55.6631 58.3849 54.6196 58.2396 54.4212C57.4645 53.3644 55.9616 52.04 55.9616 52.04C55.7079 52.2908 55.9168 52.5366 55.9168 52.5366L56.646 53.2963C56.4936 53.5715 56.3072 53.8041 56.2203 54.1377C56.1562 54.3925 56.1927 54.6621 56.3223 54.8906C56.4503 55.121 56.6234 55.4207 56.7898 55.6552C57.1019 56.0979 57.5477 56.1013 57.5477 56.1013Z" fill="url(#paint0_linear_59_30583)"/>
<path d="M56.9633 53.7891L57.6274 54.3538L57.836 54.9147L57.2438 55.5716C57.2438 55.5716 57.0446 54.4592 56.8967 54.2182C56.7487 53.9773 56.8255 53.8595 56.9633 53.7891Z" fill="url(#paint1_linear_59_30583)"/>
<path d="M70.5932 97.5732C70.5932 97.5732 70.7611 98.5234 70.8432 99.4638C70.8506 99.551 70.8402 99.6388 70.8128 99.7219C70.7853 99.805 70.7413 99.8817 70.6834 99.9473C70.6255 100.013 70.5549 100.066 70.4758 100.104C70.3968 100.141 70.311 100.162 70.2235 100.166C68.971 100.218 66.2921 100.32 65.3295 100.277C65.296 100.275 65.2633 100.265 65.2342 100.248C65.2051 100.232 65.1805 100.208 65.1624 100.18C65.1442 100.152 65.1331 100.119 65.1299 100.086C65.1267 100.052 65.1315 100.019 65.1439 99.9875C65.1888 99.8748 65.2753 99.7838 65.3856 99.7334L69.8105 97.7005L70.5932 97.5732Z" fill="url(#paint2_linear_59_30583)"/>
<path d="M70.7322 97.0148L70.5974 98.1513C70.5974 98.1513 69.8223 98.512 69.293 98.1058L69.6137 96.8394L70.7322 97.0148Z" fill="url(#paint3_linear_59_30583)"/>
<path d="M70.6319 75.6503C70.6902 75.9473 70.9443 90.4599 69.3933 96.9633C69.3805 97.0146 69.3865 97.0687 69.4103 97.1158C69.4341 97.163 69.474 97.2 69.5228 97.2201C69.9264 97.3761 70.3534 97.4629 70.7859 97.4768C70.87 97.4795 70.9526 97.4542 71.0208 97.4048C71.0889 97.3554 71.1387 97.2847 71.1623 97.2039C71.6058 95.695 73.7305 88.1349 74.008 80.9129C74.3178 72.843 74.008 80.638 74.008 80.638L73.8262 75.6499L70.6319 75.6503Z" fill="url(#paint4_linear_59_30583)"/>
<path d="M75.6841 98.0688C75.6841 98.0688 75.951 98.5485 76.2111 99.8232C76.2223 99.8774 76.222 99.9334 76.2101 99.9875C76.1983 100.042 76.1753 100.093 76.1425 100.137C76.1097 100.182 76.0679 100.219 76.0198 100.246C75.9717 100.274 75.9183 100.291 75.8632 100.296C75.4491 100.337 74.8133 100.389 74.3032 100.386C74.2477 100.386 74.1928 100.374 74.1422 100.351C74.0916 100.328 74.0464 100.295 74.0096 100.254C73.9727 100.212 73.945 100.163 73.9284 100.11C73.9117 100.057 73.9064 100.001 73.9128 99.9463C73.9693 99.481 74.1455 98.7179 74.6891 98.1231L75.6841 98.0688Z" fill="url(#paint5_linear_59_30583)"/>
<path d="M75.9185 96.6075L75.6034 98.3261C75.6034 98.3261 75.2921 98.5576 74.6758 98.3897L74.8264 96.5405L75.9185 96.6075Z" fill="url(#paint6_linear_59_30583)"/>
<path d="M76.7696 76.0957C78.0383 83.7529 76.4944 95.0208 75.9734 97.2261C75.9581 97.2922 75.9235 97.3522 75.8742 97.3986C75.8248 97.445 75.7628 97.4758 75.6959 97.487C75.4633 97.5247 75.0808 97.557 74.7036 97.4475C74.6403 97.4289 74.5844 97.3908 74.5439 97.3388C74.5034 97.2867 74.4802 97.2232 74.4777 97.1572C74.4077 95.3743 74.5334 84.4287 73.3513 80.1035C73.2914 79.8844 73.1575 79.6928 72.9722 79.5614L70.6758 77.9302L70.5 75.2949L76.7696 76.0957Z" fill="url(#paint7_linear_59_30583)"/>
<path d="M68.688 61.5869C72.4903 61.5244 76.6856 62.5852 76.6856 62.5852C77.8188 69.1986 76.8836 76.8261 76.8836 76.8261C73.9401 77.5982 70.6197 76.3544 70.6197 76.3544C70.1303 73.59 67.8478 65.8112 67.8478 65.8112C65.9899 65.5804 64.4596 65.0443 63.1992 64.3358C64.1607 63.2215 64.614 61.8037 64.8105 60.9653C66.1548 61.3832 67.5154 61.6064 68.688 61.5869Z" fill="url(#paint8_linear_59_30583)"/>
<path d="M57.457 55.9865C57.8305 55.5348 58.3033 55.749 58.3033 55.749C58.8627 58.1124 61.7965 60.0286 64.8105 60.9653C64.614 61.8036 64.1607 63.2214 63.1992 64.3357C58.1972 61.5232 57.457 55.9865 57.457 55.9865Z" fill="url(#paint9_linear_59_30583)"/>
<path d="M75.2266 66.2673L76.685 62.5854C76.685 62.5854 80.2362 64.9986 80.8204 68.0581C80.1492 68.1074 78.9283 68.284 77.7334 68.8863C77.4703 67.4411 75.2266 66.2673 75.2266 66.2673Z" fill="url(#paint10_linear_59_30583)"/>
<path d="M72.5367 58.5001L73.7466 61.999C73.7561 62.0269 73.7555 62.0572 73.745 62.0847C73.7345 62.1122 73.7147 62.1352 73.689 62.1496C73.3592 62.3318 72.1711 62.8588 70.7394 61.9512C70.6655 61.9049 70.6028 61.843 70.5555 61.7697C70.5083 61.6964 70.4778 61.6137 70.4661 61.5273L70.0742 58.499L72.5367 58.5001Z" fill="url(#paint11_linear_59_30583)"/>
<path d="M69.9039 55.2603C69.9039 55.2603 68.5754 57.7611 68.7455 58.7711C68.9157 59.7812 70.5623 59.7089 72 58.8882L73.0048 56.1882L69.9039 55.2603Z" fill="url(#paint12_linear_59_30583)"/>
<path d="M71.9393 57.5613C71.9257 57.5552 71.9135 57.5463 71.9036 57.5351C71.8937 57.5239 71.8864 57.5106 71.8821 57.4963C71.8779 57.482 71.8768 57.4669 71.8789 57.4521C71.8811 57.4373 71.8864 57.4232 71.8945 57.4107C72.0011 57.248 72.2006 56.9164 72.2642 56.6261C72.2642 56.6261 72.5029 56.4729 71.6562 56.2704C70.8096 56.0678 69.548 55.7531 69.2815 55.0325C69.0229 54.3301 69.7028 52.563 70.7874 53.9709C70.797 53.9834 70.8094 53.9935 70.8235 54.0005C70.8377 54.0075 70.8533 54.0111 70.869 54.0111C70.8848 54.0111 70.9004 54.0075 70.9146 54.0005C70.9287 53.9935 70.9411 53.9834 70.9507 53.9709C71.1284 53.7394 71.596 53.259 72.245 53.5504C72.8522 53.8226 72.9226 54.268 72.9121 54.4916C72.9115 54.507 72.9144 54.5224 72.9205 54.5365C72.9267 54.5507 72.9359 54.5633 72.9476 54.5734C72.9593 54.5835 72.9731 54.5908 72.988 54.5948C73.0029 54.5988 73.0185 54.5994 73.0337 54.5966C73.3409 54.5383 74.0776 54.4878 74.4217 55.2437C74.7048 55.8664 74.5207 56.2188 74.3532 56.3912C74.3407 56.4038 74.3316 56.4194 74.3269 56.4365C74.3223 56.4536 74.3221 56.4717 74.3265 56.4889C74.3309 56.5061 74.3397 56.5219 74.3521 56.5346C74.3644 56.5474 74.3798 56.5567 74.3969 56.5617C74.5987 56.6235 74.8595 56.7948 74.8332 57.2676C74.7956 57.9211 74.0663 57.8635 73.8585 57.8323C73.8418 57.8297 73.8247 57.8314 73.8087 57.837C73.7928 57.8427 73.7785 57.8522 73.7671 57.8647C73.5886 58.0619 72.7845 58.9003 71.9149 59.0016C71.8974 59.0035 71.8798 59.0009 71.8637 58.9941C71.8476 58.9874 71.8334 58.9766 71.8225 58.9629C71.8116 58.9492 71.8043 58.933 71.8014 58.9157C71.7985 58.8984 71.7999 58.8807 71.8057 58.8642L72.1821 57.7698C72.1906 57.7453 72.1895 57.7185 72.1791 57.6947C72.1687 57.6709 72.1498 57.6519 72.1261 57.6414L71.9393 57.5613Z" fill="url(#paint13_linear_59_30583)"/>
<path d="M71.7875 57.718C71.7875 57.718 72.7335 57.069 72.8039 57.6152C72.8743 58.1615 71.9524 58.4058 71.4961 58.2032L71.7875 57.718Z" fill="url(#paint14_linear_59_30583)"/>
<path d="M77.7344 68.8854C77.7344 68.8854 78.9767 74.4853 77.8511 77.6337C79.2297 78.2736 78.9752 78.1524 78.9752 78.1524C78.9752 78.1524 81.7019 70.1846 80.8217 68.058C79.0859 67.8739 78.2249 68.3403 77.7344 68.8854Z" fill="url(#paint15_linear_59_30583)"/>
<path d="M77.8482 77.6337C77.8482 77.6337 77.1378 78.553 77.1946 78.9193C77.2515 79.2856 77.265 79.4347 77.265 79.4347C77.265 79.4347 77.6219 79.1908 77.5997 78.8787C77.55 79.8688 77.2187 80.9944 77.5199 80.9402C77.8211 80.886 79.3808 79.4483 79.0284 77.9157C78.228 77.3596 78.0022 77.4203 77.8482 77.6337Z" fill="url(#paint16_linear_59_30583)"/>
<path d="M78.2669 35.3577C78.282 35.3517 86.4042 21.1274 87.5016 19.7895C87.5923 19.6788 87.7095 19.5927 87.8423 19.5394C87.9751 19.486 88.1192 19.467 88.2613 19.4842L90.5283 19.7545L93.1914 25.5143L88.7544 22.9303C89.1934 25.9668 83.4937 30.4791 81.5388 32.1258C81.4918 32.1653 81.4535 32.214 81.4261 32.2689C81.3987 32.3239 81.3829 32.3838 81.3796 32.4451C81.3763 32.5064 81.3855 32.5677 81.4068 32.6252C81.4281 32.6828 81.461 32.7353 81.5034 32.7797L82.2838 33.5966C81.0038 34.8954 79.524 35.7293 77.8555 36.1152L78.2669 35.3577Z" fill="url(#paint17_linear_59_30583)"/>
<path d="M81.8335 33.1572C81.8335 33.1572 82.3315 33.3184 82.5002 33.7618C82.5807 33.9742 82.4938 34.2136 82.3093 34.3468C81.489 34.9341 78.7837 36.8315 77.5354 37.2027C77.5119 37.2094 77.487 37.2099 77.4632 37.2041C77.4395 37.1983 77.4176 37.1865 77.3998 37.1697C77.382 37.1529 77.3689 37.1318 77.3617 37.1084C77.3545 37.085 77.3535 37.0602 77.3588 37.0363C77.4228 36.7464 77.6299 36.1674 78.2977 35.3196L78.2379 35.4405C78.2211 35.4736 78.2154 35.5113 78.2217 35.548C78.228 35.5846 78.2459 35.6182 78.2728 35.6439C78.2997 35.6696 78.3342 35.6859 78.371 35.6905C78.4079 35.6951 78.4453 35.6877 78.4777 35.6694C79.3127 35.1995 81.0135 34.1665 81.8335 33.1572Z" fill="url(#paint18_linear_59_30583)"/>
<path d="M81.4278 38.8485C81.4413 38.8399 82.6599 35.9038 82.6735 35.8952C83.792 29.0925 86.5179 23.2656 87.3221 21.7334C87.3887 21.6069 87.4861 21.4992 87.6053 21.4202C87.7245 21.3412 87.8617 21.2936 88.0042 21.2817L90.2788 21.0874L94.0532 26.1907L89.1852 24.5584C90.2295 27.4428 85.5606 33.0156 83.9794 35.0241C83.9415 35.0723 83.9138 35.1278 83.8981 35.1871C83.8824 35.2464 83.8791 35.3083 83.8883 35.369C83.8974 35.4297 83.9189 35.4878 83.9515 35.5399C83.984 35.5919 84.0268 35.6367 84.0773 35.6716L85.0068 36.3138C84.0148 37.8449 82.736 38.9607 81.1797 39.676L81.4278 38.8485Z" fill="url(#paint19_linear_59_30583)"/>
<path d="M84.4799 35.9722C84.4799 35.9722 85.0002 36.0286 85.2551 36.4292C85.377 36.6204 85.3405 36.8738 85.1866 37.0406C84.5021 37.7818 82.237 40.187 81.0895 40.8052C81.0678 40.8166 81.0436 40.8221 81.0191 40.8212C80.9946 40.8204 80.9708 40.8132 80.95 40.8004C80.9291 40.7875 80.912 40.7695 80.9002 40.748C80.8884 40.7266 80.8824 40.7024 80.8828 40.678C80.8866 40.3809 80.9724 39.7718 81.4547 38.8066L81.4208 38.9372C81.4113 38.973 81.4135 39.011 81.4271 39.0455C81.4408 39.08 81.4651 39.1092 81.4965 39.1288C81.528 39.1485 81.5649 39.1576 81.6019 39.1547C81.6389 39.1519 81.674 39.1372 81.702 39.113C82.4229 38.4809 83.8799 37.126 84.4799 35.9722Z" fill="url(#paint20_linear_59_30583)"/>
<path d="M100.931 20.0119C100.931 20.0119 102.989 23.0725 103.158 24.4688C103.326 25.8651 102.589 26.3477 100.435 26.5258C94.0253 27.0559 90.8656 25.1329 90.8656 25.1329C90.4271 22.3373 90.115 21.6261 86.4531 20.106C86.4531 20.106 91.0836 20.4738 92.0169 20.112C92.9501 19.7502 100.931 20.0119 100.931 20.0119Z" fill="url(#paint21_linear_59_30583)"/>
<path d="M92.7227 2.86357C92.7227 2.86357 94.1559 1.16949 95.6798 3.24831C95.9557 3.62478 97.0155 3.3142 97.4044 4.10289C97.4986 4.30122 97.6553 4.46311 97.8506 4.56365C98.0458 4.66418 98.2686 4.69779 98.4848 4.6593C99.5965 4.45413 101.414 4.43681 102.311 6.17908C102.996 7.50912 102.467 8.28727 101.784 8.7315C101.282 9.05714 101.102 9.71896 101.408 10.2355C101.699 10.7305 101.754 11.4025 101.001 12.2085C99.3134 14.0155 95.9723 11.0607 95.9723 11.0607L93.3197 4.79257L92.7227 2.86357Z" fill="url(#paint22_linear_59_30583)"/>
<path d="M95.3625 19.6069C95.3625 19.6069 92.9659 17.3248 91.7861 15.8137C91.4722 15.4107 91.2592 14.9385 91.1647 14.4366C91.0702 13.9346 91.097 13.4173 91.2429 12.9277C91.7816 11.1132 92.7386 9.23388 92.8259 8.94137C92.9599 8.49338 95.6467 8.51183 95.6467 8.51183C95.6467 8.51183 100.934 11.9433 103.011 17.7562L100.677 18.4828C100.677 18.4828 99.2969 16.1664 97.9326 14.6941C97.9326 14.6941 100.293 17.812 100.376 19.0885L95.3625 19.6069Z" fill="url(#paint23_linear_59_30583)"/>
<path d="M90.7969 20.5073L92.5975 18.5497L94.6771 19.1095C94.6771 19.1095 97.1015 19.4859 98.4891 19.1095L99.8768 18.733L103.012 17.7568L103.505 19.1497C103.565 19.3217 103.568 19.5088 103.513 19.6826C103.458 19.8564 103.348 20.0074 103.199 20.1127C102.927 20.3055 102.61 20.5171 102.408 20.6059C101.994 20.7866 92.896 20.6631 92.896 20.6631L90.7969 20.5073Z" fill="url(#paint24_linear_59_30583)"/>
<path d="M93.8021 5.28134L95.6091 8.63939C95.4897 9.37236 93.6436 9.39232 93.3582 8.95524C93.3305 8.90978 93.3112 8.85965 93.3014 8.80729L92.2213 6.56358C92.175 6.34447 92.7747 5.60736 92.972 5.50233L93.6887 5.12022C93.9662 4.97302 92.812 4.96135 93.8021 5.28134Z" fill="url(#paint25_linear_59_30583)"/>
<path d="M90.145 4.49285C90.145 4.49285 89.9414 5.62751 90.8328 7.07012C91.7243 8.51272 92.6127 8.4476 93.0637 7.93297C93.5148 7.41835 94.0553 6.56152 93.8095 5.12305C93.5637 3.68459 90.453 3.04611 90.145 4.49285Z" fill="url(#paint26_linear_59_30583)"/>
<path d="M92.7292 5.27941C92.7292 5.27941 91.2854 3.38279 90.1767 5.03622L90.1956 5.60731C90.1956 5.60731 88.7537 5.53993 88.9103 4.21139C89.0669 2.88285 90.2434 1.97482 91.875 2.42884C93.5066 2.88285 94.4601 3.39973 94.6442 4.53251C94.8283 5.66529 93.9037 5.48044 93.9037 5.48044C93.9037 5.48044 93.5502 4.69853 93.1237 4.64507C92.6972 4.59161 92.8511 5.20977 92.8511 5.20977L92.7292 5.27941Z" fill="url(#paint27_linear_59_30583)"/>
<path d="M93.0604 5.22891C93.0604 5.22891 92.3124 4.25802 92.993 4.05661C93.6737 3.8552 93.6484 5.00793 93.6044 5.43672L93.0604 5.22891Z" fill="url(#paint28_linear_59_30583)"/>
<path d="M96.758 21.2825H96.7388L88.4567 21.2735C88.3604 21.2704 88.2691 21.23 88.2021 21.1608C88.1351 21.0917 88.0977 20.9992 88.0977 20.9029C88.0977 20.8066 88.1351 20.714 88.2021 20.6449C88.2691 20.5757 88.3604 20.5353 88.4567 20.5322L96.7388 20.5413C96.8348 20.5425 96.9265 20.5808 96.9947 20.6482C97.063 20.7157 97.1025 20.8069 97.1048 20.9028C97.1072 20.9987 97.0724 21.0918 97.0075 21.1626C96.9427 21.2333 96.853 21.2762 96.7573 21.2821L96.758 21.2825Z" fill="url(#paint29_linear_59_30583)"/>
<path d="M81.0104 13.7632H87.9079C88.1571 13.7631 88.4011 13.8338 88.6116 13.9671C88.8221 14.1004 88.9904 14.2908 89.0968 14.5161L92.2854 21.2774H83.7141C83.5542 21.2773 83.3979 21.2291 83.2656 21.1392C83.1333 21.0492 83.0311 20.9216 82.9721 20.7729L80.4995 14.5165C80.4665 14.4331 80.4544 14.3428 80.4642 14.2537C80.4741 14.1645 80.5055 14.0791 80.5559 14.0048C80.6062 13.9306 80.674 13.8697 80.7532 13.8276C80.8324 13.7855 80.9207 13.7634 81.0104 13.7632Z" fill="url(#paint30_linear_59_30583)"/>
<path d="M85.8698 17.2293C86.0203 17.6938 85.9074 18.1448 85.6232 18.2367C85.3389 18.3285 84.9832 18.027 84.8352 17.5624C84.6873 17.0979 84.7976 16.6469 85.0818 16.555C85.366 16.4632 85.7192 16.7651 85.8698 17.2293Z" fill="#7D97F4"/>
<path d="M1.625 102.213H54.8708V91.5562H1.625C2.76455 91.5562 2.76455 102.213 1.625 102.213Z" fill="#91B3FA"/>
<path d="M54.8695 99.5455V94.6684C54.8695 92.9491 53.8154 91.5555 52.5192 91.5555H1.84806C1.35792 91.5555 0.887861 91.3608 0.541283 91.0142C0.194706 90.6676 3.32448e-07 90.1975 3.32448e-07 89.7074C0.000199846 89.5586 0.059465 89.4159 0.164779 89.3107C0.270094 89.2056 0.412846 89.1465 0.561683 89.1465H55.9424C57.2126 89.1465 59.2289 91.1417 59.2289 93.6064V100.418C59.2289 102.74 57.2713 104.623 56.0738 104.623H0.852689C0.740649 104.623 0.629707 104.601 0.526205 104.558C0.422703 104.515 0.32867 104.452 0.249481 104.373C0.170291 104.294 0.107498 104.2 0.0646911 104.096C0.0218838 103.992 -9.85991e-05 103.881 3.32448e-07 103.769C-4.9113e-05 103.565 0.040179 103.363 0.118387 103.174C0.196595 102.985 0.311251 102.813 0.455806 102.668C0.600362 102.524 0.771985 102.409 0.960874 102.331C1.14976 102.253 1.35222 102.212 1.55667 102.212H52.8554C53.9678 102.212 54.8695 101.019 54.8695 99.5455Z" fill="url(#paint31_linear_59_30583)"/>
<path d="M53.3917 93.869H3.46671C3.45005 93.869 3.43355 93.8657 3.41816 93.8593C3.40277 93.8529 3.38878 93.8436 3.377 93.8318C3.36522 93.82 3.35588 93.806 3.3495 93.7907C3.34313 93.7753 3.33984 93.7588 3.33984 93.7421C3.33984 93.7254 3.34313 93.7089 3.3495 93.6936C3.35588 93.6782 3.36522 93.6642 3.377 93.6524C3.38878 93.6406 3.40277 93.6313 3.41816 93.6249C3.43355 93.6185 3.45005 93.6152 3.46671 93.6152H53.3917C53.4254 93.6152 53.4576 93.6286 53.4814 93.6524C53.5052 93.6762 53.5186 93.7085 53.5186 93.7421C53.5186 93.7758 53.5052 93.808 53.4814 93.8318C53.4576 93.8556 53.4254 93.869 53.3917 93.869Z" fill="url(#paint32_linear_59_30583)"/>
<path d="M53.3917 95.451H3.46671C3.45005 95.451 3.43355 95.4477 3.41816 95.4413C3.40277 95.435 3.38878 95.4256 3.377 95.4138C3.36522 95.4021 3.35588 95.3881 3.3495 95.3727C3.34313 95.3573 3.33984 95.3408 3.33984 95.3241C3.33984 95.3075 3.34313 95.291 3.3495 95.2756C3.35588 95.2602 3.36522 95.2462 3.377 95.2344C3.38878 95.2226 3.40277 95.2133 3.41816 95.2069C3.43355 95.2005 3.45005 95.1973 3.46671 95.1973H53.3917C53.4254 95.1973 53.4576 95.2106 53.4814 95.2344C53.5052 95.2582 53.5186 95.2905 53.5186 95.3241C53.5186 95.3578 53.5052 95.39 53.4814 95.4138C53.4576 95.4376 53.4254 95.451 53.3917 95.451Z" fill="url(#paint33_linear_59_30583)"/>
<path d="M53.3917 97.0325H3.46671C3.45005 97.0325 3.43355 97.0293 3.41816 97.0229C3.40277 97.0165 3.38878 97.0072 3.377 96.9954C3.36522 96.9836 3.35588 96.9696 3.3495 96.9542C3.34313 96.9388 3.33984 96.9223 3.33984 96.9057C3.33984 96.889 3.34313 96.8725 3.3495 96.8571C3.35588 96.8417 3.36522 96.8277 3.377 96.816C3.38878 96.8042 3.40277 96.7948 3.41816 96.7885C3.43355 96.7821 3.45005 96.7788 3.46671 96.7788H53.3917C53.4254 96.7788 53.4576 96.7922 53.4814 96.816C53.5052 96.8398 53.5186 96.872 53.5186 96.9057C53.5186 96.9393 53.5052 96.9716 53.4814 96.9954C53.4576 97.0192 53.4254 97.0325 53.3917 97.0325Z" fill="url(#paint34_linear_59_30583)"/>
<path d="M53.3917 98.6146H3.46671C3.43306 98.6146 3.40079 98.6012 3.377 98.5774C3.35321 98.5536 3.33984 98.5214 3.33984 98.4877C3.33984 98.4541 3.35321 98.4218 3.377 98.398C3.40079 98.3742 3.43306 98.3608 3.46671 98.3608H53.3917C53.4084 98.3608 53.4249 98.3641 53.4403 98.3705C53.4557 98.3769 53.4696 98.3862 53.4814 98.398C53.4932 98.4098 53.5025 98.4238 53.5089 98.4392C53.5153 98.4545 53.5186 98.471 53.5186 98.4877C53.5186 98.5044 53.5153 98.5209 53.5089 98.5363C53.5025 98.5517 53.4932 98.5656 53.4814 98.5774C53.4696 98.5892 53.4557 98.5985 53.4403 98.6049C53.4249 98.6113 53.4084 98.6146 53.3917 98.6146Z" fill="url(#paint35_linear_59_30583)"/>
<path d="M53.393 100.196H3.46798C3.43548 100.195 3.40489 100.181 3.38251 100.157C3.36013 100.133 3.34766 100.102 3.34766 100.069C3.34766 100.037 3.36013 100.006 3.38251 99.9819C3.40489 99.9583 3.43548 99.9442 3.46798 99.9424H53.393C53.4255 99.9442 53.4561 99.9583 53.4784 99.9819C53.5008 100.006 53.5133 100.037 53.5133 100.069C53.5133 100.102 53.5008 100.133 53.4784 100.157C53.4561 100.181 53.4255 100.195 53.393 100.196Z" fill="url(#paint36_linear_59_30583)"/>
<path d="M12.2783 90.0513H54.5393C54.8347 90.0513 55.0742 89.8118 55.0742 89.5163V80.127C55.0742 79.8315 54.8347 79.592 54.5393 79.592H12.2783C11.9829 79.592 11.7434 79.8315 11.7434 80.127V89.5163C11.7434 89.8118 11.9829 90.0513 12.2783 90.0513Z" fill="url(#paint37_linear_59_30583)"/>
<path d="M45.3578 88.8491H49.9032C50.0538 88.8491 50.1758 88.7271 50.1758 88.5766V81.0665C50.1758 80.916 50.0538 80.7939 49.9032 80.7939H45.3578C45.2073 80.7939 45.0853 80.916 45.0853 81.0665V88.5766C45.0853 88.7271 45.2073 88.8491 45.3578 88.8491Z" fill="url(#paint38_linear_59_30583)"/>
<path d="M42.5682 88.8491H44.2017C44.278 88.8491 44.3398 88.7873 44.3398 88.711V80.9321C44.3398 80.8558 44.278 80.7939 44.2017 80.7939H42.5682C42.4919 80.7939 42.43 80.8558 42.43 80.9321V88.711C42.43 88.7873 42.4919 88.8491 42.5682 88.8491Z" fill="url(#paint39_linear_59_30583)"/>
<path d="M27.963 52.1952C27.9385 52.2415 26.3984 53.3746 26.3984 53.3746C26.3984 53.3746 26.7373 55.8073 28.1196 56.7677C29.6375 57.824 31.7815 55.898 31.7815 55.898C31.7815 55.898 33.488 56.3035 34.3953 52.7516C34.6034 51.9369 33.4018 51.868 31.9516 52.0178C30.0814 52.2117 27.963 52.1952 27.963 52.1952Z" fill="url(#paint40_linear_59_30583)"/>
<path d="M25.086 60.4945C25.6879 60.0796 26.3554 59.769 27.0605 59.576C27.3259 59.5037 28.758 59.92 29.6431 59.8997C30.8583 59.8719 32.095 59.3188 33.0967 59.5684C34.0917 59.8165 34.906 60.1403 35.3762 60.4746C36.7834 61.4756 37.6098 63.3421 38.1131 65.1909C37.1599 66.1697 35.9597 66.6045 35.9597 66.6045L35.738 75.5911L30.4242 78.3099L24.359 75.2647L24.5762 66.4837C24.5762 66.4837 22.6503 65.5866 22.5091 65.2606C22.3679 64.9345 23.387 61.665 25.086 60.4945Z" fill="url(#paint41_linear_59_30583)"/>
<path d="M22.5985 65.2202C22.5985 65.2202 20.0179 72.3756 25.9031 75.3166C27.1251 75.1543 26.656 73.1248 26.656 73.1248C26.656 73.1248 24.0987 72.5601 24.8667 66.5898C24.159 66.0082 22.5985 65.2202 22.5985 65.2202Z" fill="url(#paint42_linear_59_30583)"/>
<path d="M37.9897 65.2202C37.9897 65.2202 39.7655 72.6896 34.6851 75.3166C33.4632 75.1543 33.9322 73.1248 33.9322 73.1248C33.9322 73.1248 35.9934 72.1084 35.7216 66.5898C36.4293 66.0082 37.9897 65.2202 37.9897 65.2202Z" fill="url(#paint43_linear_59_30583)"/>
<path d="M35.6281 67.9497H24.6027C24.4295 67.9497 24.2891 68.0901 24.2891 68.2633V75.5057C24.2891 75.6789 24.4295 75.8193 24.6027 75.8193H35.6281C35.8013 75.8193 35.9417 75.6789 35.9417 75.5057V68.2633C35.9417 68.0901 35.8013 67.9497 35.6281 67.9497Z" fill="url(#paint44_linear_59_30583)"/>
<path d="M41.0534 78.154C39.72 77.8479 36.6375 78.0124 36.6375 78.0124L36.5121 78.3512L36.3047 80.0363C36.3047 80.0363 39.2411 80.5656 40.6867 80.5633C40.8243 80.5638 40.9611 80.5434 41.0925 80.5027C41.1373 80.4633 41.18 80.4216 41.2205 80.3777C41.8346 79.7091 41.6572 78.7243 41.0534 78.154Z" fill="url(#paint45_linear_59_30583)"/>
<path d="M41.1868 78.1854C41.145 78.1737 41.101 78.1624 41.0547 78.1519C41.657 78.7241 41.8359 79.7089 41.2218 80.3794C41.1813 80.4232 41.1386 80.4649 41.0938 80.5044C42.1792 80.1667 42.3079 78.5008 41.1868 78.1854Z" fill="url(#paint46_linear_59_30583)"/>
<path d="M35.7499 77.9155L36.2717 77.9377C36.4137 77.9455 36.5525 77.9833 36.6789 78.0487C36.8052 78.114 36.9163 78.2054 37.0047 78.3168C37.196 78.5558 37.2917 78.8572 37.2735 79.1628C37.2631 79.4051 37.1624 79.6347 36.9911 79.8065C36.9118 79.8865 36.8162 79.9486 36.7109 79.9887C36.6056 80.0287 36.493 80.0458 36.3805 80.0388L35.582 79.9819L35.7499 77.9155Z" fill="url(#paint47_linear_59_30583)"/>
<path d="M18.2019 77.9898C19.5425 77.7263 22.6193 77.9838 22.6193 77.9838L22.736 78.3271L22.9017 80.0212C22.9017 80.0212 19.9543 80.4602 18.508 80.4146C18.3703 80.4105 18.234 80.3858 18.1036 80.3412C18.0607 80.3005 18.0186 80.258 17.979 80.2124C17.382 79.522 17.5837 78.5432 18.2019 77.9898Z" fill="url(#paint48_linear_59_30583)"/>
<path d="M18.0685 78.0191C18.1103 78.0086 18.1548 77.9988 18.2014 77.9897C17.5833 78.5431 17.3815 79.5219 17.9786 80.2109C18.0181 80.2564 18.0603 80.299 18.1032 80.3396C17.0261 79.9692 16.9392 78.3 18.0685 78.0191Z" fill="url(#paint49_linear_59_30583)"/>
<path d="M23.5086 77.916L22.9865 77.922C22.8445 77.9253 22.7049 77.9587 22.5768 78.0202C22.4488 78.0817 22.3354 78.1698 22.2441 78.2786C22.0468 78.5121 21.9433 78.8106 21.9539 79.1162C21.9588 79.3592 22.0538 79.5917 22.2204 79.7686C22.2976 79.8508 22.3915 79.9157 22.4957 79.9589C22.6 80.0021 22.7122 80.0225 22.825 80.0189L23.6246 79.9866L23.5086 77.916Z" fill="url(#paint50_linear_59_30583)"/>
<path d="M41.4277 72.8619C40.8227 71.469 39.3436 71.2431 38.0847 71.8947C38.0629 71.9237 30.0898 76.0099 23.0586 77.8007C23.2568 78.4521 23.3668 79.127 23.3857 79.8076C23.3899 79.9582 23.3876 80.1062 23.3786 80.2526C28.7707 79.9759 34.6224 78.1775 39.6508 76.5971C41.2101 76.0942 42.0978 74.4046 41.4277 72.8619Z" fill="url(#paint51_linear_59_30583)"/>
<path d="M35.7893 79.9136C35.7619 79.1635 35.9169 78.418 36.241 77.741C36.2504 77.7101 36.2613 77.6808 36.2711 77.6503C35.8694 77.5261 35.3511 77.3578 34.6697 77.1266C29.6766 75.4179 25.8676 73.6925 22.2325 71.7056C20.8203 70.9342 19.2144 71.4511 18.7622 73.1222C18.3587 74.6141 19.2448 75.8877 20.5899 76.3349C24.614 77.674 22.5189 77.3021 23.8332 77.7252C27.3625 78.8169 31.7547 79.8108 35.7957 80.0822C35.7945 80.0265 35.7911 79.97 35.7893 79.9136Z" fill="url(#paint52_linear_59_30583)"/>
<path d="M27.0586 59.5756C27.0586 59.5756 27.5958 61.9026 30.2028 61.8544C32.858 61.8062 33.0948 59.5681 33.0948 59.5681L31.3601 59.1969L31.2151 57.2642L28.6062 57.4577L28.5577 59.2929L27.0586 59.5756Z" fill="url(#paint53_linear_59_30583)"/>
<path d="M28.9751 51.7886C28.9751 51.7886 25.9848 57.5805 29.5319 58.9854C32.0335 59.9766 33.6022 55.1391 33.1342 53.8279C32.4111 51.8021 31.9345 52.0423 31.9345 52.0423L28.9751 51.7886Z" fill="url(#paint54_linear_59_30583)"/>
<path d="M33.8525 51.2617C35.3297 51.6675 34.0674 54.8712 31.8433 54.1134C29.6191 53.3556 28.7457 53.3669 28.399 53.9779C28.0523 54.5889 27.9781 56.7569 27.226 55.6851C26.4019 54.5098 25.9422 52.1513 26.953 51.3908C27.8565 50.7132 28.067 49.6591 29.1504 49.6941C30.5885 49.7427 31.7006 49.1053 32.3504 49.565C33.0954 50.0928 32.7656 50.9628 33.8525 51.2617Z" fill="url(#paint55_linear_59_30583)"/>
<path d="M28.2625 54.4743C28.2625 54.4743 27.6248 53.788 27.5227 54.615C27.4207 55.4421 27.7486 56.5068 28.1322 55.9233C28.5159 55.3397 28.2625 54.4743 28.2625 54.4743Z" fill="url(#paint56_linear_59_30583)"/>
<path d="M30.8026 70.0805C30.8643 70.498 30.6407 70.8771 30.2232 70.9389C30.0227 70.9685 29.8186 70.9173 29.6558 70.7965C29.493 70.6757 29.3849 70.4952 29.3551 70.2947C29.2934 69.8772 29.4846 69.4624 29.9021 69.4006C30.3196 69.3389 30.7409 69.663 30.8026 70.0805Z" fill="#7D97F4"/>
</g>
<defs>
<linearGradient id="paint0_linear_59_30583" x1="54.6327" y1="50.2733" x2="66.7601" y2="70.3764" gradientUnits="userSpaceOnUse">
<stop stop-color="#A22B25"/>
<stop offset="1" stop-color="#C0423C"/>
</linearGradient>
<linearGradient id="paint1_linear_59_30583" x1="63.4276" y1="62.762" x2="56.7002" y2="54.0036" gradientUnits="userSpaceOnUse">
<stop stop-color="#A22B25"/>
<stop offset="1" stop-color="#C0423C"/>
</linearGradient>
<linearGradient id="paint2_linear_59_30583" x1="65.4707" y1="96.2601" x2="81.6755" y2="113.887" gradientUnits="userSpaceOnUse">
<stop stop-color="#09005D"/>
<stop offset="1" stop-color="#1A0F91"/>
</linearGradient>
<linearGradient id="paint3_linear_59_30583" x1="70.7322" y1="97.5693" x2="69.2926" y2="97.5693" gradientUnits="userSpaceOnUse">
<stop stop-color="#A22B25"/>
<stop offset="1" stop-color="#C0423C"/>
</linearGradient>
<linearGradient id="paint4_linear_59_30583" x1="64.197" y1="76.3268" x2="77.9861" y2="95.0159" gradientUnits="userSpaceOnUse">
<stop stop-color="#09005D"/>
<stop offset="1" stop-color="#1A0F91"/>
</linearGradient>
<linearGradient id="paint5_linear_59_30583" x1="69.1061" y1="92.9181" x2="85.311" y2="110.544" gradientUnits="userSpaceOnUse">
<stop stop-color="#09005D"/>
<stop offset="1" stop-color="#1A0F91"/>
</linearGradient>
<linearGradient id="paint6_linear_59_30583" x1="75.9185" y1="97.4956" x2="74.6754" y2="97.4956" gradientUnits="userSpaceOnUse">
<stop stop-color="#A22B25"/>
<stop offset="1" stop-color="#C0423C"/>
</linearGradient>
<linearGradient id="paint7_linear_59_30583" x1="66.6522" y1="74.5138" x2="80.4413" y2="93.2029" gradientUnits="userSpaceOnUse">
<stop stop-color="#09005D"/>
<stop offset="1" stop-color="#1A0F91"/>
</linearGradient>
<linearGradient id="paint8_linear_59_30583" x1="71.3154" y1="15.4378" x2="70.9344" y2="33.5897" gradientUnits="userSpaceOnUse">
<stop stop-color="#FF928E"/>
<stop offset="1" stop-color="#FE7062"/>
</linearGradient>
<linearGradient id="paint9_linear_59_30583" x1="55.4147" y1="49.8013" x2="67.5425" y2="69.9044" gradientUnits="userSpaceOnUse">
<stop stop-color="#A22B25"/>
<stop offset="1" stop-color="#C0423C"/>
</linearGradient>
<linearGradient id="paint10_linear_59_30583" x1="79.1053" y1="15.6018" x2="78.7243" y2="33.7537" gradientUnits="userSpaceOnUse">
<stop stop-color="#FF928E"/>
<stop offset="1" stop-color="#FE7062"/>
</linearGradient>
<linearGradient id="paint11_linear_59_30583" x1="71.914" y1="57.4814" x2="71.914" y2="64.2725" gradientUnits="userSpaceOnUse">
<stop stop-color="#A22B25"/>
<stop offset="1" stop-color="#C0423C"/>
</linearGradient>
<linearGradient id="paint12_linear_59_30583" x1="214.482" y1="-243.607" x2="210.72" y2="-235.756" gradientUnits="userSpaceOnUse">
<stop stop-color="#A22B25"/>
<stop offset="1" stop-color="#C0423C"/>
</linearGradient>
<linearGradient id="paint13_linear_59_30583" x1="74.6342" y1="53.593" x2="69.3765" y2="57.7423" gradientUnits="userSpaceOnUse">
<stop stop-color="#09005D"/>
<stop offset="1" stop-color="#1A0F91"/>
</linearGradient>
<linearGradient id="paint14_linear_59_30583" x1="215.824" y1="-242.965" x2="212.062" y2="-235.113" gradientUnits="userSpaceOnUse">
<stop stop-color="#A22B25"/>
<stop offset="1" stop-color="#C0423C"/>
</linearGradient>
<linearGradient id="paint15_linear_59_30583" x1="77.7619" y1="68.786" x2="86.8301" y2="92.1666" gradientUnits="userSpaceOnUse">
<stop stop-color="#A22B25"/>
<stop offset="1" stop-color="#C0423C"/>
</linearGradient>
<linearGradient id="paint16_linear_59_30583" x1="74.5854" y1="70.0167" x2="83.6536" y2="93.3977" gradientUnits="userSpaceOnUse">
<stop stop-color="#A22B25"/>
<stop offset="1" stop-color="#C0423C"/>
</linearGradient>
<linearGradient id="paint17_linear_59_30583" x1="76.3199" y1="23.4423" x2="89.1249" y2="30.7513" gradientUnits="userSpaceOnUse">
<stop stop-color="#FEBBBA"/>
<stop offset="1" stop-color="#FF928E"/>
</linearGradient>
<linearGradient id="paint18_linear_59_30583" x1="217.738" y1="282.278" x2="208.258" y2="265.298" gradientUnits="userSpaceOnUse">
<stop stop-color="#09005D"/>
<stop offset="1" stop-color="#1A0F91"/>
</linearGradient>
<linearGradient id="paint19_linear_59_30583" x1="77.557" y1="25.265" x2="33.7442" y2="-2.16259" gradientUnits="userSpaceOnUse">
<stop stop-color="#FEBBBA"/>
<stop offset="1" stop-color="#FF928E"/>
</linearGradient>
<linearGradient id="paint20_linear_59_30583" x1="342.968" y1="340.724" x2="330.319" y2="326.001" gradientUnits="userSpaceOnUse">
<stop stop-color="#09005D"/>
<stop offset="1" stop-color="#1A0F91"/>
</linearGradient>
<linearGradient id="paint21_linear_59_30583" x1="88.3155" y1="14.2652" x2="98.847" y2="25.8068" gradientUnits="userSpaceOnUse">
<stop stop-color="#09005D"/>
<stop offset="1" stop-color="#1A0F91"/>
</linearGradient>
<linearGradient id="paint22_linear_59_30583" x1="90.5364" y1="-1.38442" x2="96.1043" y2="5.04256" gradientUnits="userSpaceOnUse">
<stop stop-color="#09005D"/>
<stop offset="1" stop-color="#1A0F91"/>
</linearGradient>
<linearGradient id="paint23_linear_59_30583" x1="118.215" y1="31.496" x2="104.506" y2="20.9599" gradientUnits="userSpaceOnUse">
<stop stop-color="#FF928E"/>
<stop offset="1" stop-color="#FE7062"/>
</linearGradient>
<linearGradient id="paint24_linear_59_30583" x1="98.7474" y1="19.2292" x2="111.503" y2="19.2292" gradientUnits="userSpaceOnUse">
<stop stop-color="#FEBBBA"/>
<stop offset="1" stop-color="#FF928E"/>
</linearGradient>
<linearGradient id="paint25_linear_59_30583" x1="93.553" y1="13.129" x2="93.8479" y2="8.53441" gradientUnits="userSpaceOnUse">
<stop stop-color="#FEBBBA"/>
<stop offset="1" stop-color="#FF928E"/>
</linearGradient>
<linearGradient id="paint26_linear_59_30583" x1="93.9877" y1="9.24766" x2="88.4373" y2="-1.37497" gradientUnits="userSpaceOnUse">
<stop stop-color="#FEBBBA"/>
<stop offset="1" stop-color="#FF928E"/>
</linearGradient>
<linearGradient id="paint27_linear_59_30583" x1="87.052" y1="3.22342" x2="94.8244" y2="4.78274" gradientUnits="userSpaceOnUse">
<stop stop-color="#09005D"/>
<stop offset="1" stop-color="#1A0F91"/>
</linearGradient>
<linearGradient id="paint28_linear_59_30583" x1="95.2579" y1="8.58369" x2="89.7072" y2="-2.03864" gradientUnits="userSpaceOnUse">
<stop stop-color="#FEBBBA"/>
<stop offset="1" stop-color="#FF928E"/>
</linearGradient>
<linearGradient id="paint29_linear_59_30583" x1="98.1635" y1="19.0801" x2="91.5892" y2="21.2366" gradientUnits="userSpaceOnUse">
<stop stop-color="#4F52FF"/>
<stop offset="1" stop-color="#4042E2"/>
</linearGradient>
<linearGradient id="paint30_linear_59_30583" x1="80.8432" y1="18.0082" x2="140.859" y2="12.9587" gradientUnits="userSpaceOnUse">
<stop stop-color="#09005D"/>
<stop offset="1" stop-color="#1A0F91"/>
</linearGradient>
<linearGradient id="paint31_linear_59_30583" x1="49.8738" y1="76.6822" x2="74.8803" y2="52.9447" gradientUnits="userSpaceOnUse">
<stop stop-color="#4F52FF"/>
<stop offset="1" stop-color="#4042E2"/>
</linearGradient>
<linearGradient id="paint32_linear_59_30583" x1="3.33984" y1="93.7421" x2="53.5186" y2="93.7421" gradientUnits="userSpaceOnUse">
<stop stop-color="#DAE3FE"/>
<stop offset="1" stop-color="#E9EFFD"/>
</linearGradient>
<linearGradient id="paint33_linear_59_30583" x1="3.33984" y1="95.3241" x2="53.5186" y2="95.3241" gradientUnits="userSpaceOnUse">
<stop stop-color="#DAE3FE"/>
<stop offset="1" stop-color="#E9EFFD"/>
</linearGradient>
<linearGradient id="paint34_linear_59_30583" x1="3.33984" y1="96.9057" x2="53.5186" y2="96.9057" gradientUnits="userSpaceOnUse">
<stop stop-color="#DAE3FE"/>
<stop offset="1" stop-color="#E9EFFD"/>
</linearGradient>
<linearGradient id="paint35_linear_59_30583" x1="3.33984" y1="98.4877" x2="53.5186" y2="98.4877" gradientUnits="userSpaceOnUse">
<stop stop-color="#DAE3FE"/>
<stop offset="1" stop-color="#E9EFFD"/>
</linearGradient>
<linearGradient id="paint36_linear_59_30583" x1="3.34111" y1="100.07" x2="53.5198" y2="100.07" gradientUnits="userSpaceOnUse">
<stop stop-color="#DAE3FE"/>
<stop offset="1" stop-color="#E9EFFD"/>
</linearGradient>
<linearGradient id="paint37_linear_59_30583" x1="30.4227" y1="217.426" x2="32.3362" y2="132.457" gradientUnits="userSpaceOnUse">
<stop stop-color="#09005D"/>
<stop offset="1" stop-color="#1A0F91"/>
</linearGradient>
<linearGradient id="paint38_linear_59_30583" x1="57.7871" y1="67.1012" x2="32.651" y2="110.956" gradientUnits="userSpaceOnUse">
<stop stop-color="#4F52FF"/>
<stop offset="1" stop-color="#4042E2"/>
</linearGradient>
<linearGradient id="paint39_linear_59_30583" x1="54.4147" y1="65.578" x2="29.8" y2="108.523" gradientUnits="userSpaceOnUse">
<stop stop-color="#4F52FF"/>
<stop offset="1" stop-color="#4042E2"/>
</linearGradient>
<linearGradient id="paint40_linear_59_30583" x1="37.1615" y1="43.8877" x2="30.8491" y2="52.859" gradientUnits="userSpaceOnUse">
<stop stop-color="#09005D"/>
<stop offset="1" stop-color="#1A0F91"/>
</linearGradient>
<linearGradient id="paint41_linear_59_30583" x1="31.3658" y1="14.6003" x2="30.9848" y2="32.7522" gradientUnits="userSpaceOnUse">
<stop stop-color="#FF928E"/>
<stop offset="1" stop-color="#FE7062"/>
</linearGradient>
<linearGradient id="paint42_linear_59_30583" x1="26.2446" y1="75.2887" x2="36.3424" y2="99.6809" gradientUnits="userSpaceOnUse">
<stop stop-color="#FEBBBA"/>
<stop offset="1" stop-color="#FF928E"/>
</linearGradient>
<linearGradient id="paint43_linear_59_30583" x1="39.1816" y1="63.2442" x2="29.0838" y2="87.6363" gradientUnits="userSpaceOnUse">
<stop stop-color="#FEBBBA"/>
<stop offset="1" stop-color="#FF928E"/>
</linearGradient>
<linearGradient id="paint44_linear_59_30583" x1="30.2496" y1="66.4484" x2="29.7248" y2="87.7099" gradientUnits="userSpaceOnUse">
<stop stop-color="#09005D"/>
<stop offset="1" stop-color="#1A0F91"/>
</linearGradient>
<linearGradient id="paint45_linear_59_30583" x1="36.3111" y1="79.2375" x2="41.8292" y2="79.2799" gradientUnits="userSpaceOnUse">
<stop stop-color="#4F52FF"/>
<stop offset="1" stop-color="#4042E2"/>
</linearGradient>
<linearGradient id="paint46_linear_59_30583" x1="42.6328" y1="48.4648" x2="42.125" y2="62.1736" gradientUnits="userSpaceOnUse">
<stop stop-color="#4F52FF"/>
<stop offset="1" stop-color="#4042E2"/>
</linearGradient>
<linearGradient id="paint47_linear_59_30583" x1="39.9509" y1="69.2907" x2="34.1262" y2="85.068" gradientUnits="userSpaceOnUse">
<stop stop-color="#FEBBBA"/>
<stop offset="1" stop-color="#FF928E"/>
</linearGradient>
<linearGradient id="paint48_linear_59_30583" x1="22.9658" y1="79.2285" x2="17.4454" y2="79.1181" gradientUnits="userSpaceOnUse">
<stop stop-color="#4F52FF"/>
<stop offset="1" stop-color="#4042E2"/>
</linearGradient>
<linearGradient id="paint49_linear_59_30583" x1="18.8753" y1="47.5846" x2="18.3674" y2="61.294" gradientUnits="userSpaceOnUse">
<stop stop-color="#4F52FF"/>
<stop offset="1" stop-color="#4042E2"/>
</linearGradient>
<linearGradient id="paint50_linear_59_30583" x1="28.2837" y1="64.5365" x2="22.4557" y2="80.322" gradientUnits="userSpaceOnUse">
<stop stop-color="#FEBBBA"/>
<stop offset="1" stop-color="#FF928E"/>
</linearGradient>
<linearGradient id="paint51_linear_59_30583" x1="38.0749" y1="47.6547" x2="35.1551" y2="62.1255" gradientUnits="userSpaceOnUse">
<stop stop-color="#4F52FF"/>
<stop offset="1" stop-color="#4042E2"/>
</linearGradient>
<linearGradient id="paint52_linear_59_30583" x1="28.7276" y1="79.1885" x2="24.7589" y2="69.0688" gradientUnits="userSpaceOnUse">
<stop stop-color="#4F52FF"/>
<stop offset="1" stop-color="#4042E2"/>
</linearGradient>
<linearGradient id="paint53_linear_59_30583" x1="30.1426" y1="65.3103" x2="30.0082" y2="53.6204" gradientUnits="userSpaceOnUse">
<stop stop-color="#FEBBBA"/>
<stop offset="1" stop-color="#FF928E"/>
</linearGradient>
<linearGradient id="paint54_linear_59_30583" x1="29.7576" y1="58.8192" x2="31.8059" y2="48.8463" gradientUnits="userSpaceOnUse">
<stop stop-color="#FEBBBA"/>
<stop offset="1" stop-color="#FF928E"/>
</linearGradient>
<linearGradient id="paint55_linear_59_30583" x1="37.4202" y1="42.522" x2="30.3176" y2="52.6169" gradientUnits="userSpaceOnUse">
<stop stop-color="#09005D"/>
<stop offset="1" stop-color="#1A0F91"/>
</linearGradient>
<linearGradient id="paint56_linear_59_30583" x1="28.4007" y1="60.1467" x2="26.9317" y2="44.26" gradientUnits="userSpaceOnUse">
<stop stop-color="#FEBBBA"/>
<stop offset="1" stop-color="#FF928E"/>
</linearGradient>
<clipPath id="clip0_59_30583">
<rect width="105" height="104.622" fill="white"/>
</clipPath>
</defs>
</svg>
