<svg width="106" height="105" viewBox="0 0 106 105" fill="none" xmlns="http://www.w3.org/2000/svg">
<path d="M104.036 44.8499C101.175 26.1157 89.4401 3.10116 66.2584 0.69291C66.2584 0.69291 48.6577 -1.44797 31.3084 1.79653C21.0097 3.72216 11.9805 9.45478 6.267 17.6935C0.553496 25.9323 -1.35488 35.9789 0.961122 45.556C2.46562 51.7769 3.48225 58.2153 3.20325 64.606C2.71575 75.7315 2.997 86.116 13.7936 92.7509C23.4341 98.6759 35.5665 103.9 47.1412 104.815C55.0072 105.437 63.8287 104.431 71.4097 102.383C110.046 91.9499 106.898 63.5815 104.036 44.8499Z" fill="#F9FFE9"/>
<path d="M48.877 71.1218C54.1371 74.0157 61.3836 73.0343 65.4895 67.2034C67.7909 63.9375 69.2526 59.3303 70.0866 55.4625C75.2759 31.3943 61.5171 45.4579 61.9461 30.7058C62.3751 15.9537 61.8816 6.17816 42.9674 1.04329C42.9674 1.04329 26.011 -4.09122 31.5122 16.7374C32.5206 20.5527 34.0274 24.3447 36.4866 27.471C39.0704 30.756 42.5009 33.2198 45.7011 35.8545C49.5314 39.0083 46.8636 44.2414 45.4259 47.943C43.6371 52.5439 41.8791 57.2055 42.7049 62.2305C43.3892 66.3945 45.7915 69.4245 48.877 71.1218Z" fill="#86D1CD"/>
<g style="mix-blend-mode:soft-light" opacity="0.8">
<path d="M54.0109 70.5169C54.0448 70.5173 54.0779 70.5065 54.105 70.4861C54.1321 70.4658 54.1518 70.4371 54.1609 70.4044C54.1868 70.3111 56.7432 60.9361 57.2779 50.1833C57.5922 43.8623 57.1572 38.3074 55.9846 33.6724C54.5146 27.8622 51.8749 23.4874 48.1392 20.6693C48.1065 20.6444 48.0653 20.6336 48.0246 20.6391C47.9839 20.6446 47.9471 20.6661 47.9222 20.6987C47.8974 20.7314 47.8865 20.7726 47.892 20.8133C47.8976 20.854 47.919 20.8908 47.9517 20.9157C56.2932 27.2082 57.4591 40.2964 56.9682 50.1679C56.4353 60.8873 53.8876 70.2304 53.8621 70.3227C53.8512 70.3621 53.8565 70.4042 53.8767 70.4398C53.8968 70.4754 53.9303 70.5015 53.9697 70.5124C53.9832 70.5157 53.997 70.5173 54.0109 70.5169Z" fill="white"/>
</g>
<path d="M61.2683 84.6262C61.9868 84.5253 62.6472 84.0284 63.2003 82.9826C65.4957 78.6404 61.2061 72.0648 61.1138 67.5041C61.0216 62.9186 62.027 58.4467 63.1388 54.0359C64.2863 49.4868 64.8762 44.6523 61.7547 40.7268C59.0641 37.3424 54.4463 34.7624 50.2478 37.2723C42.4715 41.9189 42.6766 34.1474 41.3322 28.9064C39.785 22.8749 33.0275 15.8654 26.3202 17.1543C20.3056 18.3104 17.8261 26.8327 17.8242 32.1168C17.8242 34.8761 18.839 39.0896 20.9566 41.0718C25.8316 45.6344 36.8712 45.6029 32.6067 54.4462C31.169 57.4278 29.8175 60.6187 32.5452 63.3386C35.3405 66.1252 39.9605 66.3693 43.454 67.7658C47.429 69.3543 50.117 72.6146 52.5256 76.0106C53.6963 77.6624 58.0628 85.0769 61.2683 84.6262Z" fill="#599DAD"/>
<g style="mix-blend-mode:soft-light" opacity="0.8">
<path d="M61.6851 83.2463C61.6999 83.2455 61.7144 83.2425 61.7283 83.2373C61.7473 83.2305 61.7649 83.2199 61.7798 83.2062C61.7948 83.1926 61.807 83.1761 61.8156 83.1577C61.8242 83.1394 61.8291 83.1195 61.83 83.0993C61.8309 83.079 61.8278 83.0588 61.8209 83.0397C61.786 82.9441 58.2959 73.352 52.9945 62.4147C49.882 55.9887 46.7624 50.3611 43.7245 45.6897C39.9228 39.8397 36.2354 35.4788 32.7659 32.723C32.75 32.7104 32.7318 32.701 32.7124 32.6954C32.6929 32.6898 32.6725 32.6882 32.6524 32.6904C32.6323 32.6927 32.6128 32.699 32.5951 32.7088C32.5774 32.7186 32.5617 32.7319 32.5491 32.7477C32.5365 32.7636 32.5272 32.7818 32.5216 32.8012C32.516 32.8207 32.5143 32.8411 32.5166 32.8612C32.5189 32.8813 32.5252 32.9008 32.535 32.9185C32.5448 32.9362 32.558 32.9519 32.5739 32.9645C40.3795 39.1643 47.8364 52.4757 52.717 62.552C58.0094 73.4765 61.4961 83.0536 61.5295 83.1492C61.5417 83.1799 61.5634 83.2058 61.5914 83.2233C61.6194 83.2408 61.6522 83.2488 61.6851 83.2463Z" fill="white"/>
</g>
<path d="M50.2142 8.20382L39.838 94.4384C39.6823 95.7314 40.5737 96.8906 41.8221 97.0143L85.0348 101.758C87.682 101.923 89.1317 100.57 89.2948 99.1957L100.187 7.51419C100.35 6.14694 99.0512 4.90869 96.3925 4.90869L52.7863 5.82707C51.5241 5.84994 50.3676 6.91757 50.2142 8.20382Z" fill="#AABBCC"/>
<path d="M48.2659 8.05516L37.8342 94.721C37.6778 96.0208 38.5718 97.1855 39.8247 97.3085L84.6244 101.769C86.0292 101.909 87.3162 100.893 87.4804 99.5105L98.4342 7.35504C98.5977 5.98104 97.566 4.87629 96.1467 4.90029L50.8497 5.66641C49.5825 5.68779 48.4215 6.76254 48.2659 8.05516Z" fill="#BFC8D6"/>
<path d="M49.1152 12.8359L39.4462 93.1924C39.3003 94.4062 40.1377 95.493 41.3103 95.607L83.4431 99.7024C84.7488 99.8295 85.9451 98.8807 86.0981 97.5945L96.2208 12.4642C96.3731 11.1847 95.4153 10.149 94.0964 10.1632L51.5313 10.6166C50.3463 10.629 49.2607 11.6276 49.1152 12.8359Z" fill="#EAEDF3"/>
<path d="M71.7091 7.99603C71.654 8.45728 71.9851 8.82665 72.449 8.82103C72.9129 8.8154 73.3359 8.43553 73.391 7.97353C73.4461 7.51153 73.1139 7.14178 72.6492 7.14853C72.1846 7.15528 71.7642 7.5344 71.7091 7.99603Z" fill="white"/>
<g style="mix-blend-mode:soft-light">
<path d="M56.4014 66.776C65.0264 50.8287 77.9122 46.0553 81.7916 29.6198C83.8889 20.7372 82.4606 12.2326 80.0542 5.17472L96.1477 4.90322C97.5678 4.87922 98.5994 5.98397 98.4352 7.35797L87.4814 99.5135C87.3172 100.896 86.0302 101.912 84.6254 101.772L49.4084 98.2655C49.1489 83.975 52.5573 73.8845 56.4014 66.776Z" fill="white"/>
</g>
<path d="M63.124 47.6503L60.877 48.6778C60.5193 48.8413 60.352 49.2575 60.5069 49.6082L61.0668 50.8884C60.5196 51.2558 60.0052 51.6699 59.5293 52.1259L58.411 51.3129C58.1028 51.0879 57.6652 51.1629 57.4327 51.4794L55.9792 53.4538C55.7467 53.7695 55.8052 54.2101 56.1104 54.4385L57.2133 55.2635C56.9155 55.8552 56.6688 56.4714 56.476 57.1052L55.1054 56.9522C54.7248 56.9098 54.376 57.1918 54.3258 57.5829L54.01 60.041C53.9594 60.4359 54.2279 60.7948 54.61 60.842L55.9777 61.0108C56.0081 61.6856 56.097 62.3564 56.2432 63.0159L54.9588 63.5754C54.5995 63.7318 54.4285 64.1611 54.5774 64.535L55.5149 66.893C55.6649 67.2733 56.0849 67.4555 56.4494 67.2999L57.7522 66.7423C58.1144 67.3312 58.5272 67.8874 58.9859 68.4047L58.1257 69.572C58.01 69.7346 57.9603 69.935 57.9867 70.1327C58.0131 70.3305 58.1136 70.5109 58.2678 70.6374L60.2928 72.2769C60.3675 72.3402 60.4545 72.3873 60.5483 72.4154C60.6421 72.4436 60.7407 72.452 60.838 72.4404C60.9352 72.4287 61.029 72.3971 61.1134 72.3475C61.1979 72.298 61.2713 72.2316 61.3289 72.1524L62.2057 70.9577C62.8227 71.2945 63.4681 71.5768 64.1343 71.8014L63.9693 73.3273C63.9228 73.7537 64.2217 74.1523 64.6375 74.2187L67.2603 74.6334C67.3598 74.6496 67.4617 74.645 67.5594 74.6199C67.6571 74.5948 67.7485 74.5498 67.828 74.4877C67.9074 74.4255 67.9732 74.3477 68.0211 74.2589C68.0689 74.1701 68.098 74.0724 68.1063 73.9719L68.2634 72.419C68.9715 72.3977 69.6762 72.3117 70.3687 72.1622L71.0152 73.6404C71.1944 74.0499 71.6602 74.2535 72.0554 74.0934L74.5398 73.0873C74.9392 72.9257 75.1128 72.461 74.9275 72.0504L74.2525 70.5575C74.8486 70.1749 75.4078 69.7377 75.9232 69.2518L77.248 70.2425C77.6125 70.5148 78.1147 70.4552 78.3685 70.1079L79.9559 67.9393C80.2098 67.5924 80.1164 67.094 79.7489 66.8267L78.3989 65.8445C78.703 65.2079 78.9486 64.5449 79.1328 63.8638L80.7734 64.0663C81.2185 64.121 81.6078 63.8169 81.6419 63.3868L81.8542 60.7134C81.8879 60.2885 81.5542 59.9042 81.1135 59.8547L79.4815 59.6724C79.4114 58.9745 79.2789 58.2842 79.0859 57.6099L80.5593 56.9795C80.6524 56.9414 80.7365 56.8845 80.8065 56.8123C80.8766 56.7401 80.9309 56.6542 80.9661 56.5599C81.0013 56.4657 81.0167 56.3653 81.0112 56.2649C81.0057 56.1644 80.9795 56.0662 80.9343 55.9764L79.7587 53.5974C79.6645 53.414 79.5042 53.2732 79.3101 53.2036C79.1161 53.1339 78.9028 53.1407 78.7135 53.2224L77.2627 53.8543C76.8574 53.2928 76.4041 52.7677 75.9078 52.2849L76.8123 51.0527C76.8699 50.9739 76.9108 50.8842 76.9325 50.789C76.9541 50.6939 76.9561 50.5953 76.9382 50.4993C76.9203 50.4034 76.883 50.3121 76.8285 50.2312C76.774 50.1502 76.7035 50.0812 76.6214 50.0285L74.4629 48.5833C74.2976 48.4732 74.0965 48.4304 73.9007 48.4636C73.7049 48.4969 73.5292 48.6037 73.4095 48.7621L72.5182 49.9756C71.9001 49.6951 71.2595 49.4673 70.603 49.2947L70.7508 47.8344C70.7905 47.441 70.4928 47.0964 70.0867 47.0642L67.567 46.8646C67.1673 46.8331 66.8099 47.1226 66.7679 47.5115L66.613 48.9395C65.9493 48.9957 65.2917 49.1086 64.6473 49.277L64.0642 47.9855C63.9063 47.6357 63.4848 47.4853 63.124 47.6503ZM70.534 67.4623C66.6423 69.0864 62.1858 67.1859 60.5692 63.3234C58.9908 59.5528 60.6918 55.2448 64.3773 53.6019C68.1104 51.9373 72.5868 53.5756 74.3707 57.3635C76.2007 61.244 74.4787 65.8142 70.534 67.4623Z" fill="white"/>
<path d="M58.8248 25.2293L57.3814 26.2452C57.1511 26.4072 57.0814 26.7083 57.2288 26.9179L57.7613 27.6829C57.423 28.008 57.1117 28.36 56.8305 28.7356L55.9605 28.3654C55.7201 28.2631 55.4231 28.3793 55.2964 28.6242L54.5033 30.1594C54.3765 30.4054 54.4658 30.6893 54.7065 30.7943L55.569 31.1723C55.4287 31.6085 55.3261 32.0559 55.2623 32.5096L54.2873 32.6221C54.1555 32.6379 54.0342 32.7018 53.9466 32.8015C53.859 32.9012 53.8113 33.0297 53.8125 33.1624L53.8695 34.8469C53.8712 34.9104 53.8861 34.9728 53.9134 35.0301C53.9406 35.0875 53.9796 35.1384 54.0279 35.1797C54.0761 35.221 54.1324 35.2517 54.1933 35.2698C54.2541 35.2879 54.3181 35.2931 54.381 35.2849L55.356 35.1811C55.4533 35.6223 55.5914 36.0535 55.7685 36.4692L54.9349 37.0448C54.7013 37.2061 54.6304 37.5184 54.7766 37.7427L55.6984 39.1561C55.8484 39.3833 56.1589 39.4369 56.3951 39.2749L57.2385 38.6963C57.5572 39.0282 57.9062 39.3295 58.281 39.5963L57.8164 40.5076C57.7846 40.5663 57.7651 40.6308 57.7589 40.6972C57.7527 40.7637 57.76 40.8307 57.7803 40.8943C57.8007 40.9579 57.8336 41.0167 57.8773 41.0672C57.9209 41.1177 57.9743 41.1588 58.0343 41.1882L59.6183 41.9408C59.7448 41.9978 59.8885 42.0035 60.0192 41.9568C60.1499 41.9101 60.2574 41.8146 60.3191 41.6903L60.7875 40.7622C61.2525 40.8847 61.7273 40.9662 62.2065 41.0056L62.262 42.0346C62.2659 42.1029 62.2835 42.1698 62.3139 42.2312C62.3443 42.2925 62.3868 42.3471 62.4388 42.3917C62.4908 42.4362 62.5513 42.4697 62.6166 42.4903C62.682 42.5108 62.7508 42.5179 62.8189 42.5112L64.6564 42.3571C64.7978 42.346 64.9295 42.2804 65.0234 42.1741C65.1174 42.0678 65.1664 41.9292 65.16 41.7874L65.0963 40.7461C65.5774 40.6177 66.0467 40.4486 66.4991 40.2406L67.0991 41.1031C67.183 41.2187 67.3088 41.2968 67.4496 41.3209C67.5904 41.3449 67.735 41.3129 67.8525 41.2317L69.4196 40.1791C69.4789 40.1415 69.53 40.0923 69.5698 40.0345C69.6096 39.9767 69.6373 39.9115 69.6513 39.8427C69.6653 39.774 69.6653 39.7031 69.6513 39.6343C69.6372 39.5656 69.6095 39.5003 69.5696 39.4426L68.9535 38.5771C69.3129 38.2343 69.6421 37.8613 69.9375 37.4622L70.9346 37.8987C71.0678 37.9561 71.2178 37.961 71.3544 37.9123C71.4909 37.8636 71.604 37.7649 71.6708 37.6362L72.4988 35.9806C72.5303 35.9188 72.5486 35.8512 72.5525 35.7819C72.5565 35.7127 72.546 35.6434 72.5217 35.5785C72.4973 35.5135 72.4598 35.4544 72.4114 35.4047C72.3629 35.3551 72.3047 35.3161 72.2404 35.2902L71.2301 34.8604C71.3644 34.4027 71.4574 33.9338 71.508 33.4594L72.627 33.3402C72.9304 33.3079 73.1573 33.0511 73.134 32.7668L72.9881 30.9987C72.9649 30.7174 72.7016 30.5176 72.4009 30.5517L71.2875 30.6796C71.1661 30.237 71.0029 29.8069 70.8 29.3952L71.7195 28.7648C71.967 28.5953 72.0308 28.2773 71.8624 28.0561L70.8173 26.6798C70.6511 26.4612 70.3189 26.4214 70.0748 26.5898L69.1665 27.2172C68.8308 26.9095 68.4676 26.6333 68.0813 26.3922L68.5579 25.4524C68.589 25.3953 68.6075 25.3322 68.612 25.2674C68.6166 25.2025 68.6072 25.1374 68.5844 25.0765C68.5616 25.0156 68.526 24.9604 68.4799 24.9144C68.4339 24.8685 68.3785 24.8331 68.3175 24.8104L66.6986 24.1782C66.5695 24.1317 66.4278 24.1336 66.2999 24.1835C66.172 24.2334 66.0665 24.328 66.003 24.4497L65.5298 25.3774C65.0752 25.2836 64.6136 25.2282 64.1498 25.2117L64.0898 24.2288C64.0736 23.9641 63.8321 23.7788 63.5509 23.8189L61.8 24.0552C61.5221 24.0927 61.3084 24.3368 61.3226 24.5997L61.3748 25.5657C60.9228 25.7016 60.4825 25.8738 60.0581 26.0806L59.5125 25.3122C59.3625 25.1037 59.0561 25.0666 58.8248 25.2293ZM66.0975 37.1401C63.6244 38.8201 60.3548 38.2808 58.8075 35.9884C57.291 33.7418 57.9889 30.6259 60.354 28.9759C62.7353 27.3169 65.9704 27.7261 67.5945 29.9401C69.252 32.2013 68.5875 35.4481 66.0975 37.1401Z" fill="white"/>
<path d="M90.7152 17.3772L83.4241 91.7434C83.2853 93.1591 82.0159 94.2087 80.5977 94.0831L36.0124 90.1429C34.7374 90.0304 33.8247 88.8518 33.9777 87.5161L42.0162 17.2377C42.1621 15.9627 43.3002 14.9292 44.5583 14.9292L88.4247 14.9371C89.8182 14.9371 90.8472 16.0309 90.7152 17.3772Z" fill="url(#paint0_linear_61_5936)"/>
<path d="M90.0682 17.3756L82.7662 91.6875C82.7143 92.1957 82.4647 92.6631 82.0713 92.9889C81.6779 93.3148 81.1722 93.473 80.6632 93.4294L36.084 89.5226C35.1319 89.439 34.4535 88.563 34.5671 87.5666L42.5977 17.2395C42.7061 16.2893 43.5536 15.5194 44.4919 15.5205L88.3642 15.558C89.4015 15.5591 90.1669 16.3729 90.0682 17.3756Z" fill="url(#paint1_linear_61_5936)"/>
<path d="M90.0655 17.3756L89.5821 22.296L42.0625 21.9019L42.595 17.2395C42.7034 16.2893 43.5509 15.5194 44.4891 15.5205L88.3615 15.558C89.3988 15.5591 90.1641 16.3729 90.0655 17.3756Z" fill="#FA8825"/>
<path d="M46.8749 18.4363C46.7999 19.085 46.2228 19.6082 45.5827 19.6044C44.9425 19.6007 44.485 19.0734 44.5585 18.4265C44.632 17.7797 45.2088 17.2573 45.8478 17.2588C46.4868 17.2603 46.9499 17.7879 46.8749 18.4363Z" fill="white"/>
<path d="M51.246 18.4546C51.1732 19.1067 50.5893 19.6325 49.9428 19.6291C49.2963 19.6257 48.8332 19.0951 48.906 18.4449C48.9787 17.7946 49.5603 17.2696 50.2061 17.2715C50.8518 17.2734 51.3183 17.8029 51.246 18.4546Z" fill="white"/>
<path d="M55.6588 18.4733C55.5868 19.1288 54.9981 19.6572 54.3463 19.6534C53.6946 19.6497 53.2243 19.1168 53.2963 18.4632C53.3683 17.8096 53.9548 17.2823 54.607 17.2842C55.2591 17.2861 55.7308 17.8182 55.6588 18.4733Z" fill="white"/>
<path d="M70.2646 33.4596L43.4858 32.8971C43.1727 32.8904 42.8896 33.1439 42.8536 33.4634L40.676 52.6499C40.6385 52.9731 40.8635 53.2472 41.1785 53.2611L68.0723 54.4675C68.2361 54.4728 68.3959 54.4162 68.5198 54.3091C68.6438 54.2019 68.7229 54.052 68.7413 53.8892L70.8057 34.0686C70.8148 33.9922 70.8075 33.9147 70.7845 33.8412C70.7614 33.7678 70.7231 33.7001 70.6719 33.6426C70.6208 33.585 70.5581 33.539 70.4879 33.5074C70.4176 33.4759 70.3416 33.4596 70.2646 33.4596Z" fill="white"/>
<path d="M70.0994 27.6577L43.3203 27.2688L43.6717 24.1743L70.4332 24.4668L70.0994 27.6577Z" fill="white"/>
<path d="M53.6881 30.0793L43.0234 29.8922L43.1858 28.4604L53.8474 28.6303L53.6881 30.0793Z" fill="white"/>
<path d="M85.0633 35.2818L73.5977 35.0212L73.751 33.5332L85.2129 33.7743L85.0633 35.2818Z" fill="white"/>
<path d="M84.7622 38.3009L73.2891 38.0013L73.4428 36.5103L84.9126 36.7904L84.7622 38.3009Z" fill="white"/>
<path d="M84.4615 41.3255L72.9805 40.9877L73.135 39.4937L84.6118 39.8124L84.4615 41.3255Z" fill="white"/>
<path d="M83.8859 47.1414L72.3906 46.7281L72.5455 45.2285L84.037 45.6223L83.8859 47.1414Z" fill="white"/>
<path d="M83.5809 50.1839L72.0781 49.7316L72.233 48.229L83.7324 48.6618L83.5809 50.1839Z" fill="white"/>
<path d="M83.2802 53.2331L71.7695 52.7415L71.9248 51.2358L83.4317 51.708L83.2802 53.2331Z" fill="white"/>
<path d="M82.8364 57.6909C82.8242 57.7943 82.7735 57.8892 82.6943 57.9568C82.6151 58.0243 82.5132 58.0594 82.4092 58.055L40.4092 56.0337C40.3629 56.0312 40.3177 56.0191 40.2764 55.9981C40.235 55.9771 40.1985 55.9477 40.1692 55.9118C40.1398 55.8759 40.1183 55.8343 40.1059 55.7897C40.0935 55.745 40.0906 55.6982 40.0972 55.6524C40.1078 55.5557 40.1541 55.4664 40.2271 55.4021C40.3001 55.3378 40.3945 55.3031 40.4917 55.3047L82.4842 57.29C82.5342 57.2914 82.5834 57.3032 82.6286 57.3245C82.6739 57.3458 82.7143 57.3762 82.7472 57.4138C82.7802 57.4515 82.805 57.4955 82.8201 57.5432C82.8353 57.5908 82.8404 57.6411 82.8352 57.6909H82.8364Z" fill="white"/>
<path d="M79.8789 87.4454C79.8681 87.5494 79.8171 87.6451 79.7367 87.712C79.6564 87.7789 79.553 87.8117 79.4488 87.8035L37.1953 84.3607C37.1481 84.3559 37.1023 84.3417 37.0607 84.3188C37.0192 84.2959 36.9827 84.2648 36.9534 84.2274C36.9242 84.19 36.9029 84.1471 36.8907 84.1012C36.8785 84.0554 36.8757 84.0075 36.8826 83.9605C36.8921 83.8634 36.9386 83.7736 37.0126 83.7098C37.0865 83.6461 37.1822 83.6133 37.2797 83.6182L79.5264 87.0235C79.5775 87.0274 79.6273 87.0415 79.6729 87.065C79.7185 87.0884 79.7589 87.1207 79.7917 87.1601C79.8246 87.1994 79.8492 87.2449 79.8642 87.2939C79.8792 87.3429 79.8842 87.3944 79.8789 87.4454Z" fill="white"/>
<path d="M85.9605 26.2607L77.0352 26.1474L77.1998 24.5405L86.1218 24.6377L85.9605 26.2607Z" fill="white"/>
<path d="M85.4802 25.8796L78.7148 25.7963L78.803 24.9297L85.5672 25.0062L85.4802 25.8796Z" fill="url(#paint2_linear_61_5936)"/>
<path d="M57.1337 83.0485L37.4023 81.5073L40.0731 57.9727L59.7096 58.9623L57.1337 83.0485Z" fill="white"/>
<path d="M80.1388 84.8457L59.3672 83.2231L61.9322 59.0742L82.5954 60.116L80.1388 84.8457Z" fill="white"/>
<g style="mix-blend-mode:soft-light" opacity="0.5">
<path d="M83.5658 90.2956L83.4241 91.7434C83.2853 93.1591 82.0159 94.2087 80.5977 94.0831L36.0124 90.1429C34.7374 90.0304 33.8247 88.8518 33.9777 87.5161L42.0162 17.2377C42.1621 15.9627 43.3002 14.9292 44.5583 14.9292H49.9208C49.8833 15.1276 49.8503 15.3248 49.8166 15.5236C49.7063 16.1716 49.6083 16.8216 49.5226 17.4736C49.4374 18.1212 49.3636 18.7707 49.3062 19.4202C49.2312 20.2669 49.1768 21.1144 49.1536 21.9593C49.0991 23.6175 49.1708 25.2774 49.3681 26.9247C50.5647 36.6548 63.7681 38.2654 62.9251 49.7344C62.4889 55.6677 59.4297 61.3658 59.4964 67.3819C59.6288 79.3279 71.8501 80.3944 79.6579 86.3453C80.8833 87.2808 81.9967 88.3545 82.9759 89.5452C83.1799 89.7909 83.3765 90.0411 83.5658 90.2956Z" fill="white"/>
</g>
<path d="M43.7936 51.7775C43.7936 52.808 43.0342 53.7275 42.1837 53.7275H12.6712C11.8207 53.7275 11.1094 52.8091 11.1094 51.7775V33.7348C11.1094 32.7039 11.8219 31.937 12.6712 31.937H42.1837C43.0342 31.937 43.7936 32.7039 43.7936 33.7348V51.7775Z" fill="url(#paint3_linear_61_5936)"/>
<path d="M44.6136 33.7351V51.7778C44.6136 52.4693 44.3087 53.1124 43.8478 53.4462C43.6228 53.6104 43.3648 53.7263 43.0851 53.7263H13.5726C12.7221 53.7263 11.9297 52.8079 11.9297 51.7763V33.7351C11.9297 32.7034 12.7221 31.9351 13.5726 31.9351H43.0851C43.9356 31.9369 44.6136 32.7034 44.6136 33.7351Z" fill="url(#paint4_linear_61_5936)"/>
<path d="M39.9589 50.3446L34.2357 42.2866C34.2054 42.2462 34.1662 42.2135 34.1211 42.1909C34.076 42.1683 34.0262 42.1566 33.9758 42.1566C33.9253 42.1566 33.8756 42.1683 33.8305 42.1909C33.7854 42.2135 33.7462 42.2462 33.7159 42.2866L30.4257 46.9186L25.0362 39.329C25.0059 39.2887 24.9666 39.256 24.9215 39.2335C24.8764 39.2109 24.8267 39.1992 24.7763 39.1992C24.7259 39.1992 24.6762 39.2109 24.6311 39.2335C24.5859 39.256 24.5467 39.2887 24.5164 39.329L16.692 50.3446C16.661 50.3941 16.6434 50.4508 16.6409 50.5092C16.6384 50.5676 16.6511 50.6256 16.6778 50.6776C16.7322 50.7713 16.8375 50.8651 16.9519 50.8651H39.6987C39.8134 50.8651 39.9188 50.7698 39.9728 50.6776C39.9995 50.6256 40.0123 50.5676 40.0098 50.5093C40.0074 50.4509 39.9898 50.3942 39.9589 50.3446Z" fill="white"/>
<path d="M33.2863 39.6957C34.6482 39.6957 35.7523 38.5916 35.7523 37.2297C35.7523 35.8677 34.6482 34.7637 33.2863 34.7637C31.9244 34.7637 30.8203 35.8677 30.8203 37.2297C30.8203 38.5916 31.9244 39.6957 33.2863 39.6957Z" fill="white"/>
<g style="mix-blend-mode:multiply" opacity="0.3">
<path d="M43.8534 53.4462C43.6284 53.6104 43.3659 53.7263 43.0851 53.7263H13.5726C12.7221 53.7263 11.9297 52.8079 11.9297 51.7763V33.7351C11.9297 32.7034 12.7221 31.9351 13.5726 31.9351H13.8703C14.4197 32.8883 15.0996 34.1757 15.9441 35.3164C23.6852 45.7714 35.9226 42.7553 42.9928 52.2184C43.3138 52.6497 43.5969 53.0509 43.8534 53.4462Z" fill="url(#paint5_linear_61_5936)"/>
</g>
<path d="M11.9242 50.0888V48.2967C11.9242 48.2967 12.1818 47.9142 12.3172 46.967C12.4525 46.0197 12.2065 46.3951 12.0858 46.7892C12.0493 46.8977 11.9845 46.9945 11.8983 47.0697C11.6898 47.264 11.3467 47.1368 11.3065 46.8545L11.1367 45.668C11.1367 45.668 10.4485 46.3715 10.9465 48.1317C11.1025 48.6826 10.9465 50.012 10.9465 50.012L11.9242 50.0888Z" fill="url(#paint6_linear_61_5936)"/>
<path d="M43.3125 51.5154L43.7625 49.7706C43.7625 49.7706 43.3283 49.1008 43.5375 48.4172C43.7467 47.7336 43.6207 47.9773 43.7884 48.4172C43.956 48.8571 44.2882 48.1123 44.5477 47.4332C44.8072 46.7541 44.9396 47.7981 44.8762 48.4172C44.8129 49.0363 44.79 49.4049 44.4199 49.8568C44.0498 50.3087 44.1244 51.9159 44.1244 51.9159L43.3125 51.5154Z" fill="url(#paint7_linear_61_5936)"/>
<path d="M17.6896 99.5546C17.675 99.1699 16.7488 99.2475 16.1416 99.3056C15.5345 99.3638 15.2668 99.6056 15.1719 99.8351C15.077 100.065 15.1483 100.625 15.7093 100.389C16.1698 100.196 17.7024 99.8944 17.6896 99.5546Z" fill="#26264F"/>
<path d="M16.5722 98.065L16.1405 99.5545C16.1405 99.5545 15.7082 99.8512 15.5664 99.7045L15.7273 97.9878L16.5722 98.065Z" fill="url(#paint8_linear_61_5936)"/>
<path d="M19.6256 97.1836L18.1953 97.8076L18.4353 98.5313L19.8674 98.1586L19.6256 97.1836Z" fill="url(#paint9_linear_61_5936)"/>
<path d="M19.7057 99.9921C19.7057 99.9921 18.7525 100.238 18.331 99.6756C18.0602 99.3133 17.8345 98.6983 17.7081 98.3053C17.6749 98.2027 17.682 98.0914 17.728 97.9939C17.774 97.8963 17.8554 97.82 17.9556 97.7803C18.2579 97.6596 18.6681 97.5294 18.8444 97.6281C19.1376 97.7931 18.8627 98.8896 18.991 99.1753C19.1192 99.4611 19.7421 99.6437 19.7057 99.9921Z" fill="#26264F"/>
<path d="M21.9259 74.8892C21.6777 78.873 21.13 82.8326 20.2875 86.7343C19.4127 90.785 18.223 94.7612 16.7292 98.6267C16.5173 98.7283 16.2852 98.7811 16.0502 98.7811C15.8152 98.7811 15.5832 98.7283 15.3713 98.6267C15.1373 96.8454 15.0169 95.342 14.9502 94.2257C14.7732 91.277 14.6929 89.7665 15.0945 88.0123C15.4695 86.3657 15.774 86.4943 16.1674 84.6748C16.5169 83.0563 16.5244 81.8117 16.5252 79.9892C16.5246 78.3354 16.4244 76.6831 16.2252 75.0414L21.9259 74.8892Z" fill="url(#paint10_linear_61_5936)"/>
<path style="mix-blend-mode:multiply" opacity="0.3" d="M16.5432 97.4095C16.9219 96.19 16.1753 95.6327 16.2623 94.0851C16.3688 92.1944 17.5332 92.1377 17.9011 90.0119C18.1969 88.3034 17.4769 88.156 17.6671 86.0792C17.8692 83.872 18.7384 83.4242 18.5566 82.0994C18.4553 81.3629 18.0259 80.3579 16.5196 79.2636C16.4948 77.8521 16.3976 76.4427 16.2282 75.0411L21.9282 74.8911C21.68 78.875 21.1323 82.8345 20.2898 86.7362C19.415 90.7869 18.2252 94.7631 16.7314 98.6286C16.5332 98.7234 16.3173 98.7758 16.0977 98.7824C15.9623 98.786 15.827 98.7716 15.6953 98.7396C16.0538 98.3894 16.3744 97.9536 16.5432 97.4095Z" fill="url(#paint11_linear_61_5936)"/>
<path d="M26.5628 74.2808C26.6636 75.491 26.8292 76.695 27.0589 77.8875C27.7163 81.3 28.4708 82.395 28.6696 84.6274C28.9017 87.2303 28.1911 89.2793 27.9196 90.0585C26.0738 95.3783 21.0064 97.8544 19.6654 98.4611L19.2109 96.9878C19.7125 96.3174 20.1505 95.6018 20.5193 94.8503C21.3237 93.2074 21.3777 92.2399 21.9263 90.6221C22.9163 87.7039 23.6689 88.1171 23.8497 86.6314C24.1358 84.2764 22.2372 83.3258 20.5219 78.8235C20.1434 77.8307 19.8303 76.8141 19.5844 75.7804L26.5628 74.2808Z" fill="url(#paint12_linear_61_5936)"/>
<path d="M12.2356 49.3722L10.7844 49.1382C10.1769 49.9924 8.42674 52.6932 8.77099 56.3007C8.85274 57.1561 9.20562 59.9933 11.6041 62.2508C13.3216 63.8674 15.2311 64.3752 16.106 64.5503C16.106 68.7529 16.028 71.4031 15.8836 72.9878C15.8664 73.1791 15.7171 74.7841 15.9342 76.8537C16.0006 77.4841 16.0355 77.8032 16.1217 77.9787C17.3187 80.3948 24.1842 78.4801 26.0367 77.6787C26.5186 77.4702 27.0084 77.1803 27.218 76.6662C27.4869 76.0069 27.2289 75.4096 27.1242 74.8872C26.867 73.6039 27.6297 72.6372 29.1594 70.1464C29.8059 69.0938 30.7452 67.5139 31.8421 65.4623C33.1115 65.8328 36.1036 66.4966 39.0331 65.0993C43.337 63.0458 45.7932 57.3593 44.5411 51.1966L43.2286 50.8216C42.8506 52.4101 42.1763 53.9132 41.2411 55.2518C40.5481 56.2373 39.971 57.0578 38.9697 57.5168C37.3974 58.2372 36.0012 57.5056 33.9601 57.0016C30.7437 56.2077 28.0542 56.5039 24.7876 56.8639C21.2184 57.2573 20.2404 57.9889 17.6307 57.4973C16.4701 57.2783 15.017 56.9847 13.8275 55.8312C11.4871 53.5639 12.1385 49.8784 12.2356 49.3722Z" fill="url(#paint13_linear_61_5936)"/>
<path d="M25.572 54.0684C25.572 54.0684 25.7861 54.9252 25.4846 55.3092C25.1831 55.6932 24.1762 57.1644 23.8485 57.2364C23.661 57.2772 23.1941 57.3489 22.8262 57.4014C22.6324 57.4295 22.5915 57.6961 22.7707 57.7741C23.1367 57.9331 23.7832 58.0929 24.8906 58.0809C26.493 58.0636 27.7815 57.4539 28.3432 57.1381C28.3602 57.1286 28.3734 57.1135 28.3806 57.0954C28.3878 57.0774 28.3886 57.0574 28.3828 57.0388C28.3771 57.0202 28.3652 57.0041 28.349 56.9933C28.3329 56.9824 28.3135 56.9774 28.2941 56.9791L27.573 57.0331C27.4281 57.044 27.2826 57.0229 27.1468 56.9712C27.0111 56.9194 26.8884 56.8384 26.7875 56.7338C26.6866 56.6293 26.61 56.5038 26.5632 56.3662C26.5164 56.2287 26.5005 56.0825 26.5166 55.9381L26.5616 55.5372L25.572 54.0684Z" fill="url(#paint14_linear_61_5936)"/>
<path d="M26.2306 55.7933C26.3296 55.739 27.1351 55.6411 27.2461 55.208C27.3961 54.62 26.8685 53.9045 26.8029 53.7893C26.5273 53.3075 26.4579 53.2422 26.3296 53.1605L26.1519 53.0562L26.1309 53.0487C26.0184 53.0112 25.6333 53.0082 25.556 53.0266C25.3085 53.0851 25.0685 54.1032 25.175 55.532C25.1656 55.5867 25.157 55.6418 25.1488 55.6973C25.127 55.8421 26.2378 55.8443 26.2306 55.7933Z" fill="url(#paint15_linear_61_5936)"/>
<path d="M26.9883 52.9653C27.0232 53.1397 26.5608 53.4877 26.3632 53.6377C26.3018 53.6885 26.249 53.7489 26.2068 53.8165C26.1965 53.833 26.1884 53.8508 26.1828 53.8694C26.0921 54.151 26.5436 54.4694 26.4603 54.5965C26.4003 54.6888 26.0958 54.5744 26.0617 54.6535C26.0276 54.7327 26.2837 54.8748 26.2492 54.964C26.2218 55.0315 26.0662 54.9738 25.9709 55.0765C25.9237 55.1283 25.9391 55.1684 25.8911 55.3252C25.8664 55.4078 25.8343 55.488 25.7951 55.5648C25.6477 55.8273 25.2161 55.9334 25.1302 55.831C25.1066 55.8025 25.1257 55.7778 25.0998 55.681C25.079 55.613 25.049 55.5482 25.0106 55.4883C24.9176 55.3413 24.6986 55.2397 24.4766 55.087C24.0641 54.8047 23.9497 54.559 23.9141 54.4758L23.9039 54.4499C23.898 54.4361 23.8929 54.4219 23.8886 54.4075C23.8016 54.124 24.1616 53.6313 24.1616 53.6313C24.4174 53.2973 24.7394 53.0196 25.1073 52.8157C25.5247 52.7315 25.9526 52.7118 26.3759 52.7572C26.6197 52.7864 26.9613 52.8269 26.9883 52.9653Z" fill="#26264F"/>
<path d="M27.155 54.4361C27.155 54.4361 26.8137 54.8456 26.363 54.354L26.1406 54.4196C26.1406 54.4196 26.6847 55.6163 26.801 55.6163C26.9172 55.6163 27.257 55.5386 27.257 55.5386C27.3187 55.5129 27.3695 55.4664 27.4005 55.4071C27.4315 55.3479 27.4407 55.2796 27.4265 55.2143C27.374 54.9683 27.2334 54.6094 27.155 54.4361Z" fill="#26264F"/>
<path d="M26.2576 54.4961C26.1451 54.3495 25.9576 54.4938 25.961 54.687C25.9644 54.8801 26.156 55.0766 26.336 55.0346C26.516 54.9926 26.4084 54.6937 26.2576 54.4961Z" fill="url(#paint16_linear_61_5936)"/>
<path style="mix-blend-mode:multiply" opacity="0.3" d="M17.948 77.2771C20.273 78.0965 22.9832 76.8983 23.66 75.2641C24.1603 74.0555 23.0915 72.9016 23.8475 71.6588C24.5758 70.4588 25.8902 70.9977 26.7973 69.7861C27.7858 68.4657 26.6225 67.2961 27.4997 65.5253C28.1597 64.1933 29.7395 62.9945 31.292 62.9971C33.1374 63.0005 33.8267 64.6992 35.4122 64.355C36.2405 64.1753 36.221 63.6751 37.3787 62.855C39.3872 61.4348 40.7342 62.03 42.3883 61.0291C42.8758 60.7347 43.4169 60.284 43.9213 59.5591C42.9332 62.069 41.2235 64.055 39.0339 65.0997C36.1044 66.497 33.1123 65.8332 31.8429 65.4627C30.746 67.5143 29.8067 69.0942 29.1602 70.1468C27.6305 72.6361 26.8678 73.6043 27.125 74.8876C27.2297 75.41 27.4877 76.0073 27.2188 76.6666C27.0092 77.1796 26.5194 77.4695 26.0375 77.6791C24.1835 78.4801 17.3195 80.3948 16.1225 77.9791C16.0363 77.8051 16.0014 77.486 15.935 76.8541C15.8938 76.4611 15.866 76.0853 15.8477 75.7325C16.3262 76.3475 17.0015 76.9437 17.948 77.2771Z" fill="url(#paint17_linear_61_5936)"/>
<path d="M75.4816 95.1566C75.7231 95.7186 76.0117 96.2593 76.3441 96.7728C76.2969 96.8197 76.2496 96.8673 76.2046 96.9191C75.3162 97.9316 75.2604 99.4642 76.1011 100.332C76.9501 101.207 78.3672 101.05 79.2444 99.9914C79.2901 99.9367 79.3317 99.8789 79.3722 99.8227C79.8839 100.158 80.4246 100.446 80.9877 100.685C80.9667 100.753 80.9469 100.822 80.9307 100.893C80.6172 102.261 81.3316 103.575 82.5316 103.802C83.7316 104.029 84.9264 103.077 85.1967 101.702C85.2102 101.632 85.2196 101.563 85.2282 101.494C85.847 101.479 86.4632 101.408 87.0695 101.284C87.0834 101.351 87.0984 101.418 87.1175 101.484C87.4925 102.779 88.73 103.437 89.8689 102.94C90.9939 102.447 91.5669 101.017 91.1645 99.7616C91.1439 99.6971 91.1195 99.6352 91.0947 99.5741C91.6098 99.2242 92.0957 98.8332 92.5475 98.4048C92.5891 98.4506 91.91 98.6643 91.9539 98.7071C92.8479 99.5437 94.8856 99.2272 95.5914 98.2229C96.2855 97.2352 96.1201 95.7986 95.24 95.0058C95.1942 94.9646 95.1466 94.927 95.099 94.8911C95.3613 94.3448 95.5826 93.7799 95.7612 93.2009C95.816 93.2167 95.8711 93.2317 95.9281 93.2426C97.0156 93.4499 97.9989 92.6658 98.1252 91.5104C98.2497 90.3757 97.4971 89.3073 96.4464 89.1059C96.3924 89.0954 96.3391 89.0894 96.2859 89.0838C96.2579 88.5139 96.188 87.9469 96.0766 87.3873C96.1272 87.3731 96.1782 87.3581 96.2266 87.3393C97.1892 86.9759 97.6347 85.8644 97.2342 84.8673C96.8397 83.8848 95.7657 83.3707 94.8222 83.7082C94.7735 83.7258 94.7262 83.7457 94.6797 83.7678C94.4045 83.3107 94.0951 82.8751 93.7542 82.4647C93.7891 82.4291 93.824 82.3927 93.8562 82.3522C94.4847 81.5936 94.3546 80.4622 93.5795 79.8198C92.8111 79.1823 91.6805 79.2539 91.0407 79.9841C91.007 80.0216 90.9766 80.0624 90.947 80.1029C90.5017 79.8479 90.0379 79.6266 89.5595 79.4411C89.5734 79.3931 89.5861 79.3451 89.597 79.2952C89.7822 78.3528 89.2044 77.4269 87.0432 77.227C86.0487 77.1348 86.2512 77.6707 86.0367 78.6078C86.0255 78.6562 86.018 78.7046 86.0112 78.7529C85.4921 78.7461 84.9731 78.7783 84.4587 78.8493C84.4482 78.8013 84.4366 78.7537 84.4212 78.7061C84.1295 77.7952 83.4305 76.9379 81.1734 77.6036C80.1841 77.8953 80.5794 78.9112 80.8497 79.8449C80.864 79.8937 80.8812 79.9406 80.8992 79.9871C80.415 80.2385 79.9497 80.5248 79.5069 80.8436C79.4727 80.8061 79.4382 80.7708 79.4004 80.7367C78.6654 80.0744 77.459 80.1505 76.6899 80.9118C75.9091 81.685 75.8649 82.8776 76.6092 83.5702C76.6467 83.6077 76.6895 83.6396 76.7311 83.6718C76.3999 84.1469 76.103 84.645 75.8427 85.1624C75.7902 85.1474 75.737 85.1332 75.6815 85.1227C74.6236 84.9198 73.4859 85.6289 73.1349 86.7247C72.7775 87.8407 73.3696 88.9301 74.4635 89.1389C74.5194 89.1498 74.576 89.1562 74.6319 89.1622C74.5599 89.7618 74.5338 90.3661 74.5539 90.9697C74.4954 90.9858 74.4365 91.0023 74.3776 91.0237C73.2346 91.4324 72.4906 92.7011 72.7276 93.8703C72.9702 95.0591 74.1297 95.6756 75.3027 95.2331C75.365 95.2124 75.4235 95.1839 75.4816 95.1566ZM78.5454 91.7339C77.5516 87.7383 79.8871 83.6264 83.5996 82.3859C87.1936 81.1859 91.0317 83.0399 92.3371 86.6666C93.716 90.4987 91.8312 95.0081 87.9316 96.5876C83.8891 98.2248 79.5995 95.9703 78.5454 91.7339Z" fill="url(#paint18_linear_61_5936)"/>
<path d="M74.4643 89.1394C73.3704 88.9306 72.7768 87.8412 73.1356 86.7252C73.4866 85.6294 74.6244 84.9203 75.6823 85.1232C75.7378 85.1337 75.791 85.1479 75.8435 85.1629C76.1039 84.6457 76.4008 84.1477 76.7319 83.6727C76.6903 83.6404 76.649 83.6074 76.61 83.5711C75.8664 82.8784 75.158 81.3409 76.0168 80.6363C77.6128 79.3268 78.6661 80.0738 79.4011 80.7376C79.4386 80.7717 79.4735 80.8077 79.5073 80.8444C79.9503 80.5257 80.4157 80.2395 80.9 79.9879C80.882 79.9414 80.8648 79.8946 80.8505 79.8458C80.7028 79.3362 80.813 78.8078 81.0984 78.3833C81.6079 79.8158 82.1148 81.2859 82.619 82.7937C79.4945 84.3649 77.6424 88.0996 78.5461 91.7333C79.3505 94.9669 82.0625 97.0583 85.1435 97.1112C85.2106 97.4933 85.2755 97.8799 85.3535 98.2636C85.568 99.3136 85.8436 100.367 86.1241 101.431C85.8241 101.465 85.5259 101.485 85.2294 101.493C85.2208 101.562 85.2114 101.631 85.1979 101.701C84.9275 103.077 83.9405 104.202 81.7479 103.879C80.5325 103.7 80.6199 102.261 80.9334 100.893C80.9495 100.822 80.9709 100.753 80.9904 100.685C80.4272 100.446 79.8866 100.158 79.3749 99.8224C79.3344 99.8794 79.2928 99.9349 79.247 99.9912C78.3699 101.05 76.0704 101.335 75.2236 100.458C74.3851 99.5884 75.3189 97.9332 76.2073 96.9196C76.2523 96.8678 76.2995 96.8202 76.3468 96.7733C76.0143 96.2598 75.7258 95.7191 75.4843 95.1571C75.4261 95.1844 75.3676 95.2111 75.3073 95.2321C74.1343 95.6749 72.9748 95.0584 72.7321 93.8697C72.4933 92.7004 73.2373 91.4322 74.3821 91.0231C74.441 91.0017 74.4999 90.9856 74.5584 90.9691C74.5384 90.3654 74.5644 89.7612 74.6364 89.1615C74.5764 89.1567 74.5201 89.1503 74.4643 89.1394Z" fill="url(#paint19_linear_61_5936)"/>
<path d="M95.4324 89.1181C95.3784 89.1076 95.3251 89.1016 95.2715 89.096C95.248 88.5255 95.1825 87.9574 95.0754 87.3965C95.1264 87.3823 95.1774 87.3673 95.2276 87.3481C96.1966 86.9844 96.6526 85.871 96.2585 84.8731C95.8708 83.8888 94.796 83.3731 93.8476 83.7106C93.7985 83.7283 93.7509 83.7481 93.704 83.7703C93.4316 83.3124 93.1246 82.876 92.7856 82.4649C92.8213 82.4293 92.8565 82.3929 92.8891 82.3524C93.5266 81.5923 93.4044 80.4594 92.6323 79.8155C91.8658 79.178 90.731 79.2489 90.0823 79.9801C90.0481 80.0176 90.017 80.0589 89.987 80.0994C89.5419 79.8437 89.0781 79.622 88.5995 79.4364C88.6138 79.3884 88.6273 79.34 88.637 79.2901C88.8301 78.3463 88.1986 77.4406 87.2285 77.2531C86.2584 77.0656 85.2931 77.663 85.07 78.6031C85.0584 78.6515 85.0505 78.6999 85.0434 78.7483C84.5222 78.7417 84.0013 78.7741 83.4849 78.845C83.4744 78.797 83.4631 78.749 83.4474 78.7014C83.162 77.789 82.148 77.3023 81.1708 77.6045C80.1853 77.9098 79.5905 78.9073 79.8545 79.8421C79.868 79.8913 79.8853 79.9381 79.9029 79.9846C79.4147 80.2365 78.9454 80.5232 78.4985 80.8426C78.4648 80.8051 78.4303 80.7676 78.3928 80.7354C77.6604 80.0724 76.4491 80.1485 75.671 80.9109C74.8813 81.6853 74.8276 82.88 75.5683 83.5734C75.6058 83.6109 75.6481 83.6428 75.6898 83.675C75.3536 84.1508 75.0516 84.6498 74.786 85.1683C74.7331 85.1529 74.6799 85.1386 74.6244 85.1281C73.5646 84.9249 72.4168 85.6355 72.0553 86.7335C71.6874 87.8514 72.2724 88.943 73.3678 89.1523C73.424 89.1631 73.4803 89.1695 73.5365 89.1751C73.4595 89.7758 73.4284 90.3814 73.4435 90.9868C73.3846 91.0025 73.3254 91.0194 73.2661 91.0404C72.1153 91.4503 71.3581 92.7215 71.588 93.893C71.8216 95.0844 72.9804 95.702 74.1613 95.2584C74.2224 95.2355 74.2813 95.2089 74.3398 95.1834C74.5773 95.7467 74.8626 96.2887 75.1925 96.8034C75.1441 96.8503 75.0965 96.8979 75.0508 96.9496C74.1508 97.9659 74.0821 99.4996 74.9188 100.369C75.764 101.246 77.1875 101.089 78.077 100.028C78.1228 99.9733 78.1651 99.9155 78.2064 99.8589C78.7175 100.195 79.2578 100.485 79.8208 100.724C79.7994 100.793 79.7788 100.862 79.7619 100.933C79.4356 102.304 80.1421 103.621 81.3448 103.849C82.5474 104.076 83.7545 103.121 84.0373 101.743C84.0515 101.672 84.0613 101.603 84.0706 101.534C84.6922 101.518 85.3111 101.447 85.9201 101.323C85.9336 101.39 85.9483 101.457 85.967 101.524C86.333 102.821 87.5713 103.481 88.7165 102.982C89.8501 102.489 90.4363 101.056 90.0429 99.797C90.0226 99.7321 89.999 99.6703 89.9743 99.6095C90.4942 99.2588 90.985 98.8668 91.442 98.4373C91.4833 98.4834 91.5253 98.5288 91.571 98.5715C92.4628 99.407 93.7835 99.2619 94.4983 98.255C95.2029 97.2654 95.0484 95.8258 94.1716 95.03C94.1259 94.9888 94.0786 94.9513 94.031 94.9153C94.2984 94.3682 94.525 93.8022 94.709 93.2218C94.7638 93.2375 94.8193 93.2521 94.8763 93.263C95.9638 93.4711 96.9586 92.6851 97.0951 91.5275C97.232 90.3901 96.4861 89.3199 95.4324 89.1181ZM86.8265 96.6159C82.7559 98.2569 78.4689 95.9979 77.4463 91.7525C76.4814 87.7501 78.8611 83.6293 82.595 82.3876C86.2111 81.1846 90.0474 83.0428 91.328 86.6761C92.681 90.5143 90.7531 95.0326 86.8265 96.6159Z" fill="url(#paint20_linear_61_5936)"/>
<defs>
<linearGradient id="paint0_linear_61_5936" x1="55.2657" y1="-3.68542" x2="59.1627" y2="27.2393" gradientUnits="userSpaceOnUse">
<stop stop-color="#E38DDD"/>
<stop offset="0.36" stop-color="#C783E6"/>
<stop offset="1" stop-color="#9571F6"/>
</linearGradient>
<linearGradient id="paint1_linear_61_5936" x1="68.5714" y1="14.2234" x2="45.4504" y2="172.215" gradientUnits="userSpaceOnUse">
<stop stop-color="#FAB06F"/>
<stop offset="0.36" stop-color="#E6AD83"/>
<stop offset="1" stop-color="#EF5829"/>
</linearGradient>
<linearGradient id="paint2_linear_61_5936" x1="80.1451" y1="32.7252" x2="75.4355" y2="49.994" gradientUnits="userSpaceOnUse">
<stop stop-color="#E38DDD"/>
<stop offset="0.36" stop-color="#C783E6"/>
<stop offset="1" stop-color="#9571F6"/>
</linearGradient>
<linearGradient id="paint3_linear_61_5936" x1="32.4686" y1="38.7369" x2="13.3331" y2="54.212" gradientUnits="userSpaceOnUse">
<stop stop-color="#AB316D"/>
<stop offset="1" stop-color="#792D3D"/>
</linearGradient>
<linearGradient id="paint4_linear_61_5936" x1="25.6236" y1="44.8606" x2="66.9774" y2="13.2031" gradientUnits="userSpaceOnUse">
<stop stop-color="#FFC444"/>
<stop offset="1" stop-color="#F36F56"/>
</linearGradient>
<linearGradient id="paint5_linear_61_5936" x1="11.9293" y1="42.8314" x2="43.8534" y2="42.8314" gradientUnits="userSpaceOnUse">
<stop stop-color="#FFC444"/>
<stop offset="1" stop-color="#F36F56"/>
</linearGradient>
<linearGradient id="paint6_linear_61_5936" x1="11.2312" y1="49.2297" x2="9.92015" y2="58.547" gradientUnits="userSpaceOnUse">
<stop stop-color="#FFC444"/>
<stop offset="1" stop-color="#F36F56"/>
</linearGradient>
<linearGradient id="paint7_linear_61_5936" x1="43.4535" y1="53.7636" x2="42.1429" y2="63.0804" gradientUnits="userSpaceOnUse">
<stop stop-color="#FFC444"/>
<stop offset="1" stop-color="#F36F56"/>
</linearGradient>
<linearGradient id="paint8_linear_61_5936" x1="17.0882" y1="95.3339" x2="15.1074" y2="101.23" gradientUnits="userSpaceOnUse">
<stop stop-color="#FFC444"/>
<stop offset="1" stop-color="#F36F56"/>
</linearGradient>
<linearGradient id="paint9_linear_61_5936" x1="19.6278" y1="96.2082" x2="17.6613" y2="102.061" gradientUnits="userSpaceOnUse">
<stop stop-color="#FFC444"/>
<stop offset="1" stop-color="#F36F56"/>
</linearGradient>
<linearGradient id="paint10_linear_61_5936" x1="11.6202" y1="92.3105" x2="20.9217" y2="81.8229" gradientUnits="userSpaceOnUse">
<stop stop-color="#444B8C"/>
<stop offset="1" stop-color="#3E4177"/>
</linearGradient>
<linearGradient id="paint11_linear_61_5936" x1="11.6217" y1="92.3106" x2="20.9232" y2="81.823" gradientUnits="userSpaceOnUse">
<stop stop-color="#444B8C"/>
<stop offset="1" stop-color="#3E4177"/>
</linearGradient>
<linearGradient id="paint12_linear_61_5936" x1="23.3187" y1="86.3329" x2="37.0523" y2="83.7735" gradientUnits="userSpaceOnUse">
<stop stop-color="#444B8C"/>
<stop offset="1" stop-color="#3E4177"/>
</linearGradient>
<linearGradient id="paint13_linear_61_5936" x1="29.8936" y1="43.8383" x2="21.3414" y2="75.2386" gradientUnits="userSpaceOnUse">
<stop stop-color="#FF9085"/>
<stop offset="1" stop-color="#FB6FBB"/>
</linearGradient>
<linearGradient id="paint14_linear_61_5936" x1="25.986" y1="55.952" x2="24.441" y2="60.509" gradientUnits="userSpaceOnUse">
<stop stop-color="#FFC444"/>
<stop offset="1" stop-color="#F36F56"/>
</linearGradient>
<linearGradient id="paint15_linear_61_5936" x1="6.51651" y1="112.603" x2="4.97151" y2="117.161" gradientUnits="userSpaceOnUse">
<stop stop-color="#FFC444"/>
<stop offset="1" stop-color="#F36F56"/>
</linearGradient>
<linearGradient id="paint16_linear_61_5936" x1="-26.7992" y1="140.191" x2="-30.7791" y2="146.606" gradientUnits="userSpaceOnUse">
<stop stop-color="#FFC444"/>
<stop offset="1" stop-color="#F36F56"/>
</linearGradient>
<linearGradient id="paint17_linear_61_5936" x1="35.9218" y1="45.4805" x2="27.3692" y2="76.8807" gradientUnits="userSpaceOnUse">
<stop stop-color="#FF9085"/>
<stop offset="1" stop-color="#FB6FBB"/>
</linearGradient>
<linearGradient id="paint18_linear_61_5936" x1="68.5767" y1="98.3081" x2="85.0217" y2="90.5583" gradientUnits="userSpaceOnUse">
<stop stop-color="#311944"/>
<stop offset="1" stop-color="#893976"/>
</linearGradient>
<linearGradient id="paint19_linear_61_5936" x1="90.2807" y1="88.4406" x2="86.2184" y2="89.8461" gradientUnits="userSpaceOnUse">
<stop stop-color="#311944"/>
<stop offset="1" stop-color="#893976"/>
</linearGradient>
<linearGradient id="paint20_linear_61_5936" x1="94.1769" y1="103.241" x2="57.3924" y2="56.6469" gradientUnits="userSpaceOnUse">
<stop stop-color="#FF9085"/>
<stop offset="1" stop-color="#FB6FBB"/>
</linearGradient>
</defs>
</svg>
