<svg width="105" height="75" viewBox="0 0 105 75" fill="none" xmlns="http://www.w3.org/2000/svg">
<g clip-path="url(#clip0_61_6475)">
<path d="M7.46994 74.2547C7.46994 74.2547 -5.51439 60.5453 2.75435 44.4264C11.0231 28.3075 22.1194 36.4188 21.5905 17.6546C21.0616 -1.10966 47.1201 -2.71335 55.4137 2.7304C63.7073 8.17415 64.4394 11.6802 81.5646 9.51841C98.6899 7.3566 106.655 23.3273 101.027 34.4092C94.4526 47.3534 114.255 48.6074 99.2079 74.2848L7.46994 74.2547Z" fill="#F9FFE9"/>
<g opacity="0.4">
<path d="M97.196 26.0718C97.1965 26.8874 97.1235 27.7014 96.978 28.5039C96.6398 30.3615 95.9135 32.1268 94.8467 33.6847C92.415 37.2414 88.3265 39.5754 83.6924 39.5754C78.1802 39.5754 73.4398 36.2734 71.3412 31.5386C71.0619 30.9101 70.832 30.2608 70.6536 29.5966C70.0917 27.5064 70.037 25.3122 70.494 23.1966C70.494 23.1862 70.4988 23.1757 70.501 23.1652C71.2167 19.9329 73.0919 17.0749 75.7721 15.1315C76.0494 14.9301 76.3358 14.7391 76.6288 14.559C78.7526 13.2517 81.1985 12.5615 83.6924 12.5659C84.036 12.5659 84.3762 12.5787 84.7131 12.6043C87.1156 12.7814 89.426 13.6026 91.4013 14.9815C92.8818 16.0113 94.1418 17.3264 95.1075 18.8495C95.3142 19.1762 95.5072 19.5118 95.6865 19.8562C96.1213 20.6928 96.4663 21.5729 96.716 22.482C97.0362 23.6516 97.1976 24.8591 97.196 26.0718Z" fill="#D7E5FF"/>
<path d="M79.1028 20.0268C78.5638 20.8801 79.3278 22.3621 77.711 21.958C76.0942 21.5538 75.1062 21.3741 75.0168 22.2719C74.9274 23.1697 76.2294 23.1705 76.2294 24.1123C76.2294 25.0542 75.6451 25.3672 74.7469 24.9194C73.8487 24.4716 73.5901 23.8198 72.5463 24.224C71.5025 24.6282 70.8959 24.3587 70.6601 23.5503C70.6241 23.4239 70.5674 23.3044 70.4922 23.1967C70.4922 23.1862 70.497 23.1758 70.4992 23.1653C71.2149 19.933 73.0901 17.075 75.7702 15.1316C76.0476 14.9301 76.334 14.7392 76.627 14.5591C77.0478 14.5748 77.551 14.7335 77.9787 15.265C78.9218 16.4331 79.5484 15.8493 79.326 17.1961C79.1036 18.543 79.4607 18.7222 80.2238 18.6786C80.9868 18.635 81.8859 18.635 81.9753 19.2176C82.0647 19.8001 79.6417 19.1735 79.1028 20.0268Z" fill="#AEC3FF"/>
<path d="M84.6972 28.1099C84.6972 28.1099 83.5073 28.4918 83.1929 27.6608C82.8785 26.8297 83.2365 26.6505 82.1822 26.4037C81.1279 26.1569 81.0372 25.4379 80.3635 25.5277C79.6899 25.6176 80.0269 25.887 79.2408 26.4709C78.4546 27.0547 77.7365 26.7852 77.7583 27.8631C77.7801 28.9409 78.9482 29.1092 79.1837 29.8165C79.4191 30.5237 79.0153 30.8267 79.5207 31.3656C80.026 31.9046 80.9687 31.6709 80.531 32.4099C80.0932 33.149 79.4195 33.7232 79.7566 34.8687C80.0936 36.0141 79.8573 36.0812 80.4302 36.8892C81.0032 37.6971 82.1142 37.967 82.2825 37.4281C82.4508 36.8892 81.5077 36.182 81.8111 35.643C82.1146 35.1041 82.6191 35.4747 82.8214 34.6663C83.0237 33.858 83.843 33.858 83.9115 33.2968C83.9799 32.7356 82.9234 31.8823 83.3267 31.5248C83.7301 31.1673 84.5389 32.1758 85.1676 31.2776C85.7964 30.3794 85.3699 29.6612 86.0209 28.8079C86.6719 27.9546 85.1463 27.6158 84.6972 28.1099Z" fill="#AEC3FF"/>
<path d="M97.1973 26.0716C97.1978 26.8873 97.1248 27.7012 96.9793 28.5038C96.6411 30.3614 95.9149 32.1267 94.8481 33.6846C94.4965 33.8056 94.1131 33.7954 93.7685 33.6558C92.0841 32.9822 93.3303 31.1635 94.0039 30.2548C94.6776 29.3462 92.9601 29.7495 91.7139 28.9075C90.4678 28.0656 91.8487 25.8092 90.5685 26.1793C89.2883 26.5495 87.7396 27.0217 86.9983 25.7751C86.2571 24.5286 87.672 24.3271 87.0323 23.2828C86.3927 22.2386 87.4025 21.6325 88.6827 21.5318C89.9629 21.431 89.7941 20.5211 91.3769 20.3863C92.9596 20.2516 92.9261 22.2726 94.6776 22.1378C96.4291 22.0031 96.3502 22.4073 96.3502 22.4073C96.4764 22.4043 96.6016 22.4306 96.716 22.484C97.0364 23.6529 97.1983 24.8596 97.1973 26.0716Z" fill="#AEC3FF"/>
<path d="M95.6859 19.8578C94.2295 20.5663 93.6448 18.6391 92.4004 19.2185C91.1451 19.8024 91.3649 18.6796 90.3773 17.9611C89.3897 17.2425 87.4123 18.5449 87.503 17.4221C87.5937 16.2994 89.0727 16.6137 89.3893 15.716C89.7058 14.8182 91.1408 15.0432 91.1408 15.0432C91.2247 15.0113 91.3128 14.9913 91.4024 14.9839C92.8829 16.0137 94.1429 17.3287 95.1086 18.8518C95.3141 19.178 95.5065 19.5133 95.6859 19.8578Z" fill="#AEC3FF"/>
<path d="M83.4162 15.9848C83.4162 15.9848 84.1793 14.8834 82.9671 14.5586C81.755 14.2338 81.7768 14.6589 80.8341 14.5586C79.8914 14.4583 79.5204 15.1878 80.2276 15.9848C80.9348 16.7819 81.5073 18.3119 82.1461 17.4965C82.7849 16.6812 82.6641 16.0637 83.4162 15.9848Z" fill="#AEC3FF"/>
</g>
<path d="M88.5332 24.0249V66.0575C88.5332 66.7931 88.0021 67.3896 87.3476 67.3896H26.7012C26.0471 67.3896 25.5156 66.7931 25.5156 66.0575V24.0249C25.5156 23.2889 26.0467 22.6929 26.7012 22.6929H87.3476C88.0021 22.6907 88.5332 23.2867 88.5332 24.0249Z" fill="#AEC3FF"/>
<path d="M88.5332 23.876V27.0498H25.5156V23.876C25.5156 23.7203 25.5463 23.5661 25.6059 23.4223C25.6655 23.2784 25.7528 23.1478 25.8629 23.0377C25.973 22.9276 26.1036 22.8403 26.2475 22.7807C26.3913 22.7211 26.5455 22.6904 26.7012 22.6904H87.3476C87.662 22.6904 87.9636 22.8153 88.1859 23.0377C88.4083 23.26 88.5332 23.5615 88.5332 23.876Z" fill="#739AF0"/>
<path d="M27.4453 24.8704C27.4453 24.7612 27.4777 24.6545 27.5383 24.5637C27.599 24.4729 27.6852 24.4022 27.7861 24.3604C27.8869 24.3186 27.9979 24.3077 28.105 24.329C28.2121 24.3503 28.3104 24.4028 28.3876 24.48C28.4648 24.5572 28.5174 24.6556 28.5387 24.7627C28.56 24.8698 28.5491 24.9807 28.5073 25.0816C28.4655 25.1825 28.3948 25.2687 28.304 25.3293C28.2132 25.39 28.1065 25.4224 27.9973 25.4224C27.9248 25.4224 27.853 25.4082 27.786 25.3805C27.719 25.3527 27.6581 25.3121 27.6069 25.2608C27.5556 25.2095 27.5149 25.1487 27.4872 25.0817C27.4595 25.0147 27.4453 24.9429 27.4453 24.8704Z" fill="#DFEBFD"/>
<path d="M29.6211 24.8704C29.6211 24.7612 29.6534 24.6545 29.7141 24.5638C29.7747 24.473 29.8608 24.4023 29.9617 24.3605C30.0625 24.3187 30.1734 24.3077 30.2805 24.3289C30.3875 24.3501 30.4859 24.4026 30.5631 24.4797C30.6404 24.5568 30.693 24.6551 30.7144 24.7621C30.7358 24.8692 30.725 24.9801 30.6833 25.081C30.6417 25.1819 30.5711 25.2682 30.4804 25.3289C30.3897 25.3897 30.2831 25.4222 30.174 25.4224C30.1014 25.4225 30.0295 25.4084 29.9624 25.3807C29.8953 25.353 29.8343 25.3124 29.783 25.2611C29.7316 25.2098 29.6909 25.1489 29.6631 25.0819C29.6353 25.0148 29.621 24.9429 29.6211 24.8704Z" fill="#DFEBFD"/>
<path d="M31.8477 24.8704C31.8477 24.7612 31.88 24.6545 31.9407 24.5637C32.0013 24.4729 32.0876 24.4022 32.1884 24.3604C32.2893 24.3186 32.4003 24.3077 32.5074 24.329C32.6144 24.3503 32.7128 24.4028 32.79 24.48C32.8672 24.5572 32.9198 24.6556 32.9411 24.7627C32.9624 24.8698 32.9514 24.9807 32.9096 25.0816C32.8679 25.1825 32.7971 25.2687 32.7063 25.3293C32.6156 25.39 32.5088 25.4224 32.3997 25.4224C32.3272 25.4224 32.2553 25.4082 32.1883 25.3805C32.1214 25.3527 32.0605 25.3121 32.0092 25.2608C31.9579 25.2095 31.9173 25.1487 31.8896 25.0817C31.8618 25.0147 31.8476 24.9429 31.8477 24.8704Z" fill="#DFEBFD"/>
<path opacity="0.5" d="M66.0721 54.3027H59.4258V60.949H66.0721V54.3027Z" fill="#EBF3FA"/>
<path d="M59.9258 60.1901L61.8888 56.6509L63.3324 58.6195L64.0532 57.8316L65.5806 60.1901H59.9258Z" fill="#739AF0"/>
<path d="M62.8242 56.1427C62.8242 56.0423 62.854 55.9441 62.9098 55.8605C62.9656 55.777 63.045 55.7119 63.1378 55.6734C63.2306 55.635 63.3328 55.6249 63.4313 55.6445C63.5298 55.6641 63.6203 55.7125 63.6914 55.7835C63.7624 55.8546 63.8108 55.9451 63.8304 56.0436C63.85 56.1422 63.8399 56.2443 63.8015 56.3371C63.763 56.4299 63.6979 56.5093 63.6144 56.5651C63.5309 56.6209 63.4327 56.6507 63.3322 56.6507C63.2655 56.6507 63.1994 56.6376 63.1378 56.612C63.0762 56.5865 63.0202 56.5491 62.973 56.5019C62.9258 56.4548 62.8884 56.3988 62.8629 56.3371C62.8374 56.2755 62.8242 56.2094 62.8242 56.1427Z" fill="#739AF0"/>
<path opacity="0.5" d="M75.9973 42.1362H59.4258V51.7414H75.9973V42.1362Z" fill="#EBF3FA"/>
<path d="M65.8398 44.4785V49.3999L69.5796 46.9394L65.8398 44.4785Z" fill="#739AF0"/>
<path d="M83.5778 34.9853C83.5793 36.0254 83.1733 37.0246 82.4468 37.7689C82.0942 38.134 81.672 38.4245 81.2051 38.6234C80.7382 38.8223 80.2361 38.9253 79.7286 38.9265H34.8841C32.5954 38.9265 30.7227 37.1528 30.7227 34.9853C30.7227 33.9014 31.1905 32.9159 31.9435 32.2022C32.7394 31.4542 33.7919 31.04 34.8841 31.045H79.7286C81.8459 31.045 83.5778 32.8174 83.5778 34.9853Z" fill="#EBF3FA"/>
<path d="M83.5773 34.9853C83.5788 36.0253 83.1728 37.0246 82.4463 37.7688C82.0938 38.1339 81.6715 38.4245 81.2046 38.6234C80.7377 38.8222 80.2356 38.9253 79.7281 38.9265H71.6133V31.0449H79.7281C81.8454 31.0449 83.5773 32.8174 83.5773 34.9853Z" fill="#F99746"/>
<path d="M78.442 36.4179C78.0191 36.4186 77.6067 36.2857 77.2637 36.0384C76.9206 35.791 76.6644 35.4416 76.5315 35.0401C76.3986 34.6386 76.3957 34.2054 76.5234 33.8022C76.6511 33.399 76.9027 33.0464 77.2425 32.7946C77.4977 32.6056 77.7942 32.4799 78.1074 32.4277C78.4207 32.3755 78.7418 32.3983 79.0445 32.4943C79.3473 32.5902 79.6229 32.7566 79.8489 32.9797C80.0749 33.2029 80.2447 33.4764 80.3445 33.7778C80.4443 34.0793 80.4712 34.4002 80.423 34.7141C80.3748 35.0279 80.2529 35.3259 80.0672 35.5836C79.8816 35.8412 79.6375 36.0512 79.3549 36.1962C79.0724 36.3412 78.7596 36.4172 78.442 36.4179ZM77.4391 33.0605C77.1725 33.2581 76.9704 33.5303 76.8585 33.8427C76.7466 34.1551 76.7298 34.4937 76.8103 34.8157C76.8909 35.1376 77.065 35.4285 77.3108 35.6514C77.5567 35.8743 77.8631 36.0194 78.1913 36.0682C78.5196 36.117 78.8549 36.0673 79.155 35.9255C79.455 35.7837 79.7063 35.5561 79.8769 35.2715C80.0476 34.9869 80.1301 34.6581 80.1138 34.3266C80.0976 33.9951 79.9835 33.6759 79.7858 33.4093C79.5205 33.0524 79.1245 32.8153 78.6846 32.7499C78.2447 32.6845 77.7968 32.7962 77.4391 33.0605Z" fill="white"/>
<path d="M77.0602 35.6381L76.8633 35.3721L74.66 37.003L74.8569 37.269L77.0602 35.6381Z" fill="white"/>
<path d="M73.9879 37.7034C73.9648 37.6722 73.948 37.6368 73.9385 37.5992C73.9291 37.5615 73.9272 37.5224 73.9329 37.484C73.9386 37.4456 73.9518 37.4087 73.9718 37.3754C73.9918 37.3421 74.0182 37.3131 74.0494 37.29L75.347 36.3308C75.3782 36.3077 75.4136 36.2911 75.4512 36.2817C75.4888 36.2723 75.5279 36.2705 75.5663 36.2762C75.6046 36.282 75.6414 36.2952 75.6747 36.3152C75.7079 36.3352 75.7369 36.3615 75.7599 36.3927C75.783 36.4238 75.7998 36.4592 75.8092 36.4968C75.8186 36.5345 75.8206 36.5736 75.8148 36.6119C75.8091 36.6503 75.7959 36.6871 75.7759 36.7204C75.756 36.7536 75.7296 36.7826 75.6984 36.8056L74.4008 37.7649C74.3697 37.7879 74.3343 37.8047 74.2967 37.8141C74.2591 37.8235 74.22 37.8254 74.1816 37.8197C74.1433 37.8139 74.1064 37.8007 74.0732 37.7808C74.04 37.7608 74.011 37.7345 73.9879 37.7034Z" fill="white"/>
<path d="M43.9883 29.5535C43.9495 29.5963 43.9238 29.6493 43.9143 29.7063C43.9048 29.7633 43.9118 29.8218 43.9347 29.8749C44.0123 30.0889 44.2678 30.3283 44.5652 30.5668C44.6031 30.5978 44.6367 30.6257 44.6664 30.6514L44.689 30.6719L44.7065 30.6876C44.9833 30.9431 44.8809 31.0015 45.3771 31.5204C45.9439 32.1112 46.3363 32.1221 46.4466 32.0681C46.5408 32.0244 46.3498 31.7088 46.1379 31.3569C46.1279 31.3399 46.1179 31.3225 46.107 31.3054C46.0791 31.2584 46.0512 31.2108 46.0228 31.1637C45.7747 30.7399 45.8388 30.5411 45.8977 29.9106C45.9456 29.3978 46.696 27.0472 46.696 27.0472L45.609 26.8589C45.609 26.8589 45.2807 28.7312 44.9197 29.0189C44.7265 29.1729 44.5103 29.1746 44.3249 29.2884L44.2861 29.3128C44.1766 29.3794 44.0764 29.4604 43.9883 29.5535Z" fill="#FFB27D"/>
<path d="M43.9883 29.5538C43.9495 29.5965 43.9238 29.6496 43.9143 29.7066C43.9048 29.7635 43.9118 29.8221 43.9347 29.8751C44.0293 30.0892 44.2787 30.3268 44.5661 30.5649C44.6036 30.5963 44.6367 30.6247 44.6664 30.6521L44.689 30.6726L44.7065 30.6883C44.9833 30.9438 44.8809 31.0022 45.3771 31.5211C45.9439 32.1119 46.3363 32.1228 46.4466 32.0688C46.5408 32.0252 46.3498 31.7095 46.1379 31.3576C45.7408 31.2023 45.3919 30.9448 45.1264 30.6111C44.7967 30.1908 44.5735 29.6549 44.3494 29.3257L44.2853 29.314C44.1761 29.3804 44.0762 29.461 43.9883 29.5538Z" fill="#233862"/>
<path d="M52.7601 28.8773C52.8272 29.2131 53.306 29.1572 53.841 29.0269C54.376 28.8965 54.2486 29.0517 55.0099 28.9676C55.7712 28.8834 56.0019 28.6 56.025 28.4879C56.0459 28.3877 55.6696 28.3519 55.2663 28.3053L55.1137 28.2869C54.6581 28.2298 54.3245 27.9355 53.9112 27.694C53.5187 27.4655 52.9345 26.5337 52.9345 26.5337L51.8906 26.6161C51.8906 26.6161 52.4383 27.448 52.6497 27.8099C52.7744 28.0227 52.7679 28.3044 52.7522 28.5215C52.739 28.6399 52.7417 28.7596 52.7601 28.8773Z" fill="#FFB27D"/>
<path d="M53.8432 29.0268C54.3777 28.896 54.2509 29.0516 55.0122 28.9675C55.7734 28.8833 56.0041 28.5999 56.0272 28.4879C56.0481 28.3876 55.6719 28.3518 55.2685 28.3052L55.2646 28.313C54.9385 28.5222 54.5618 28.6391 54.1745 28.6514C53.6579 28.664 53.1111 28.5158 52.7544 28.5206C52.7411 28.6394 52.7438 28.7595 52.7623 28.8777C52.8294 29.2134 53.3082 29.1572 53.8432 29.0268Z" fill="#233862"/>
<path d="M48.7625 22.2005L47.788 24.8262L46.5104 28.2542C46.283 28.271 46.0543 28.2501 45.8337 28.1923C45.5285 28.1051 45.1797 27.8731 45.1797 27.8731C45.1797 27.8731 45.5346 24.1918 46.1952 22.0788C46.3644 21.5364 46.5545 21.0978 46.762 20.8505C47.788 19.6423 48.7625 22.2005 48.7625 22.2005Z" fill="#F4904D"/>
<path d="M47.7714 18.03C47.2159 17.8504 45.7657 18.0265 44.196 18.3104C43.9837 18.3486 43.7648 18.3215 43.5683 18.2327C43.3717 18.1438 43.2067 17.9975 43.0951 17.8129L39.1386 17.5024C39.1386 17.5024 37.8305 20.3972 38.546 22.2424C38.6511 22.5137 38.8813 22.6828 39.2376 22.6889C39.2376 22.6889 41.6283 22.6929 42.3931 22.6933C44.3604 22.6933 46.5575 21.3416 46.8405 21.2854C47.3057 21.1925 47.491 22.1225 47.9558 23.0997C48.4206 24.0768 52.3261 27.4259 52.3261 27.4259C52.3261 27.4259 52.9265 27.432 53.1746 27.3387C53.4414 27.2384 53.5391 27.1085 53.5391 27.1085C53.5391 27.1085 49.2129 18.4957 47.7714 18.03Z" fill="#FFA561"/>
<path d="M42.6786 6.19406C42.4504 6.0583 42.1884 5.9901 41.923 5.99742C41.8009 6.00048 41.6788 5.99304 41.558 5.97518C40.0481 5.75324 39.1381 7.946 39.0845 8.60876C38.9864 9.8257 38.3432 10.011 37.4363 10.7727C35.619 12.2988 36.1509 14.0756 37.1442 14.7358C37.7402 15.1317 38.7906 14.7358 38.7906 14.7358C38.8054 14.7462 41.6644 13.139 43.0737 12.3638C45.1858 12.0647 43.5271 6.69985 42.6786 6.19406Z" fill="#233862"/>
<path d="M41.8922 11.7032C41.8983 11.7071 41.1989 11.946 40.731 11.7385C40.2915 11.544 39.9584 10.8198 39.9649 10.8198C40.1651 10.8106 40.3848 10.6354 40.5544 9.4873L40.6395 9.51826L42.0722 10.0341C42.0722 10.0341 41.9685 10.4941 41.9009 10.9318C41.8442 11.299 41.815 11.6513 41.8922 11.7032Z" fill="#FFB27D"/>
<path d="M42.0734 10.0344C42.0734 10.0344 42.0163 10.2825 41.9326 10.746C41.1098 10.5977 40.7553 9.9633 40.6406 9.51855L42.0734 10.0344Z" fill="#ED975D"/>
<path d="M42.2856 10.4907C42.2856 10.4907 40.3235 10.2291 40.5084 9.00821C40.6933 7.78734 40.5616 6.93536 41.8212 7.05221C43.0809 7.16906 43.254 7.67093 43.2911 8.09256C43.3281 8.5142 42.8006 10.5277 42.2856 10.4907Z" fill="#FFB27D"/>
<path d="M43.2199 7.42442C43.2199 7.42442 41.9646 8.50532 41.1109 8.59253C40.2571 8.67973 39.9336 8.40504 39.9336 8.40504C40.2742 8.1008 40.5486 7.72976 40.7398 7.31498C40.7833 7.21725 40.8521 7.13291 40.9391 7.07067C41.0261 7.00843 41.1281 6.97055 41.2347 6.96093C41.8447 6.9073 43.0006 6.88375 43.2199 7.42442Z" fill="#233862"/>
<path d="M42.4336 7.32757C42.4336 7.32757 42.853 7.73351 42.9852 8.0348C43.1129 8.32563 43.1509 9.02022 43.0493 9.29622C43.0493 9.29622 43.7033 8.02478 43.3335 7.40649C42.9411 6.75115 42.4336 7.32757 42.4336 7.32757Z" fill="#233862"/>
<path d="M43.5414 14.5917C43.4808 18.5595 43.5239 17.7311 43.0896 18.1074C42.985 18.1981 42.6911 18.2521 42.3048 18.2774C41.0879 18.3577 38.9474 18.1567 38.8676 17.9317C38.5873 17.1534 38.7852 16.9118 38.5515 15.7202C38.5271 15.5937 38.497 15.4564 38.4617 15.3072C38.2668 14.4888 38.0767 14.2102 38.77 12.896C39.3987 11.7057 40.0514 10.7395 40.1103 10.7744C41.7672 11.7589 41.901 10.9318 41.901 10.9318C41.901 10.9318 43.571 12.6562 43.5414 14.5917Z" fill="#AFCDFB"/>
<path d="M47.788 24.8265L46.5104 28.2545C46.283 28.2713 46.0543 28.2504 45.8337 28.1926C45.5285 28.1054 45.1797 27.8734 45.1797 27.8734C45.1797 27.8734 45.5346 24.1921 46.1952 22.0791L47.788 24.8265Z" fill="#FFA561"/>
<path d="M41.9023 10.9321C41.9023 10.9321 43.6076 11.2216 43.8078 11.9559C44.0079 12.6902 44.6654 17.1472 44.6654 17.1472C44.6654 17.1472 44.1858 17.6168 43.7842 17.2161C43.3826 16.8154 42.525 13.046 42.525 13.046L41.9023 10.9321Z" fill="#AFCDFB"/>
<path d="M42.3041 18.2777C41.0871 18.3579 38.9467 18.1569 38.8669 17.9319C38.5865 17.1536 38.7845 16.912 38.5508 15.7204L39.1385 14.0679C39.1385 14.0679 39.0409 15.9083 39.5833 16.3927C40.1257 16.8772 41.807 17.328 42.0686 17.7326C42.1959 17.9267 42.2796 18.1216 42.3041 18.2777Z" fill="#95B3EF"/>
<path d="M40.9102 17.5034C40.9102 17.5034 42.111 17.2365 42.3054 17.3429C42.4999 17.4493 42.9721 17.8378 43.0314 17.973C43.0907 18.1081 42.6002 17.8701 42.4406 17.8273C42.3373 17.7994 42.0656 17.8941 41.9309 17.939C41.3641 18.1273 41.0152 18.0301 41.0152 18.0301L40.9102 17.5034Z" fill="#FFB27D"/>
<path d="M40.1097 10.7739C40.1097 10.7739 38.4964 10.8725 37.9396 11.6508C37.1548 12.7461 35.5938 17.415 36.4864 18.0381C37.4923 18.7396 41.0646 18.2229 41.0646 18.2229C41.0646 18.2229 41.1836 17.6674 41.0184 17.3989C40.8531 17.1303 38.1659 16.6947 38.0421 16.5704C37.9183 16.4461 39.5935 14.1522 39.5935 13.7799C39.5935 13.4075 40.1097 10.7739 40.1097 10.7739Z" fill="#AFCDFB"/>
<path d="M42.3633 17.6768C42.3633 17.6768 42.6144 18.0016 42.6973 18.0404C42.7387 18.063 42.7858 18.073 42.8329 18.0692L42.6633 17.764L42.3633 17.6768Z" fill="#FFB27D"/>
<path d="M42.3047 17.3428L43.0355 17.6981C43.0211 17.7158 43.0023 17.7294 42.9811 17.7376C42.9598 17.7457 42.9368 17.7482 42.9142 17.7448C42.824 17.7409 42.5968 17.6576 42.5968 17.6576L42.3047 17.3428Z" fill="#FFB27D"/>
<path d="M48.5497 18.1799L40.9102 18.1772V18.3456L48.4821 18.3482L48.5497 18.1799Z" fill="#233862"/>
<path d="M42.6953 18.3466L48.4809 18.3484L50.2224 14.0217L44.4464 14.0195L42.6953 18.3466Z" fill="#233862"/>
<path d="M47.0233 16.1843C47.0669 16.0321 46.9797 15.9087 46.8271 15.9087C46.747 15.9132 46.6702 15.9419 46.6068 15.991C46.5434 16.0401 46.4964 16.1074 46.4722 16.1838C46.4286 16.336 46.5158 16.4594 46.6688 16.4594C46.7488 16.4549 46.8256 16.4262 46.8889 16.377C46.9522 16.3279 46.9991 16.2607 47.0233 16.1843Z" fill="white"/>
<path d="M43.0696 43.0342H32.6242C32.4067 43.0342 32.2305 43.2105 32.2305 43.4279V43.5936C32.2305 43.811 32.4067 43.9873 32.6242 43.9873H43.0696C43.287 43.9873 43.4633 43.811 43.4633 43.5936V43.4279C43.4633 43.2105 43.287 43.0342 43.0696 43.0342Z" fill="#F99746"/>
<path d="M37.7095 47.2648H32.5557C32.4695 47.2648 32.3867 47.2305 32.3257 47.1695C32.2647 47.1085 32.2305 47.0258 32.2305 46.9395C32.2305 46.8533 32.2647 46.7705 32.3257 46.7095C32.3867 46.6485 32.4695 46.6143 32.5557 46.6143H37.7095C37.7523 46.6143 37.7945 46.6227 37.834 46.639C37.8735 46.6554 37.9093 46.6793 37.9395 46.7095C37.9697 46.7397 37.9937 46.7756 38.01 46.8151C38.0264 46.8545 38.0348 46.8968 38.0348 46.9395C38.0348 46.9823 38.0264 47.0245 38.01 47.064C37.9937 47.1035 37.9697 47.1393 37.9395 47.1695C37.9093 47.1997 37.8735 47.2237 37.834 47.24C37.7945 47.2564 37.7523 47.2648 37.7095 47.2648Z" fill="#739AF0"/>
<path d="M41.656 45.25H32.5331C32.3659 45.25 32.2305 45.3855 32.2305 45.5526V45.5979C32.2305 45.7651 32.3659 45.9005 32.5331 45.9005H41.656C41.8231 45.9005 41.9586 45.7651 41.9586 45.5979V45.5526C41.9586 45.3855 41.8231 45.25 41.656 45.25Z" fill="#739AF0"/>
<path d="M51.6353 45.25H43.1363C42.9747 45.25 42.8438 45.381 42.8438 45.5426V45.608C42.8438 45.7696 42.9747 45.9005 43.1363 45.9005H51.6353C51.7969 45.9005 51.9279 45.7696 51.9279 45.608V45.5426C51.9279 45.381 51.7969 45.25 51.6353 45.25Z" fill="#739AF0"/>
<path d="M44.1392 47.2648H38.9854C38.8992 47.2648 38.8164 47.2305 38.7554 47.1695C38.6944 47.1085 38.6602 47.0258 38.6602 46.9395C38.6602 46.8533 38.6944 46.7705 38.7554 46.7095C38.8164 46.6485 38.8992 46.6143 38.9854 46.6143H44.1392C44.2255 46.6143 44.3082 46.6485 44.3692 46.7095C44.4302 46.7705 44.4645 46.8533 44.4645 46.9395C44.4645 46.9823 44.4561 47.0245 44.4397 47.064C44.4234 47.1035 44.3994 47.1393 44.3692 47.1695C44.339 47.1997 44.3032 47.2237 44.2637 47.24C44.2242 47.2564 44.1819 47.2648 44.1392 47.2648Z" fill="#739AF0"/>
<path d="M55.7883 43.0342H45.3429C45.1255 43.0342 44.9492 43.2105 44.9492 43.4279V43.5936C44.9492 43.811 45.1255 43.9873 45.3429 43.9873H55.7883C56.0058 43.9873 56.182 43.811 56.182 43.5936V43.4279C56.182 43.2105 56.0058 43.0342 55.7883 43.0342Z" fill="#F99746"/>
<path d="M43.0696 60.0977H32.6242C32.4067 60.0977 32.2305 60.2739 32.2305 60.4914V60.6571C32.2305 60.8745 32.4067 61.0508 32.6242 61.0508H43.0696C43.287 61.0508 43.4633 60.8745 43.4633 60.6571V60.4914C43.4633 60.2739 43.287 60.0977 43.0696 60.0977Z" fill="#F99746"/>
<path d="M37.7095 64.3278H32.5557C32.4695 64.3278 32.3867 64.2935 32.3257 64.2325C32.2647 64.1715 32.2305 64.0888 32.2305 64.0025C32.2305 63.9598 32.2389 63.9175 32.2552 63.878C32.2716 63.8386 32.2955 63.8027 32.3257 63.7725C32.3559 63.7423 32.3918 63.7184 32.4313 63.702C32.4707 63.6857 32.513 63.6772 32.5557 63.6772H37.7095C37.7523 63.6772 37.7945 63.6857 37.834 63.702C37.8735 63.7184 37.9093 63.7423 37.9395 63.7725C37.9697 63.8027 37.9937 63.8386 38.01 63.878C38.0264 63.9175 38.0348 63.9598 38.0348 64.0025C38.0348 64.0452 38.0264 64.0875 38.01 64.127C37.9937 64.1665 37.9697 64.2023 37.9395 64.2325C37.9093 64.2627 37.8735 64.2867 37.834 64.303C37.7945 64.3194 37.7523 64.3278 37.7095 64.3278Z" fill="#739AF0"/>
<path d="M41.656 62.3135H32.5331C32.3659 62.3135 32.2305 62.449 32.2305 62.6161V62.6614C32.2305 62.8285 32.3659 62.964 32.5331 62.964H41.656C41.8231 62.964 41.9586 62.8285 41.9586 62.6614V62.6161C41.9586 62.449 41.8231 62.3135 41.656 62.3135Z" fill="#739AF0"/>
<path d="M51.6353 62.3135H43.1363C42.9747 62.3135 42.8438 62.4445 42.8438 62.606V62.6714C42.8438 62.833 42.9747 62.964 43.1363 62.964H51.6353C51.7969 62.964 51.9279 62.833 51.9279 62.6714V62.606C51.9279 62.4445 51.7969 62.3135 51.6353 62.3135Z" fill="#739AF0"/>
<path d="M44.1392 64.3278H38.9854C38.8992 64.3278 38.8164 64.2935 38.7554 64.2325C38.6944 64.1715 38.6602 64.0888 38.6602 64.0025C38.6602 63.9598 38.6686 63.9175 38.6849 63.878C38.7013 63.8386 38.7252 63.8027 38.7554 63.7725C38.7856 63.7423 38.8215 63.7184 38.861 63.702C38.9004 63.6857 38.9427 63.6772 38.9854 63.6772H44.1392C44.1819 63.6772 44.2242 63.6857 44.2637 63.702C44.3032 63.7184 44.339 63.7423 44.3692 63.7725C44.3994 63.8027 44.4234 63.8386 44.4397 63.878C44.4561 63.9175 44.4645 63.9598 44.4645 64.0025C44.4645 64.0452 44.4561 64.0875 44.4397 64.127C44.4234 64.1665 44.3994 64.2023 44.3692 64.2325C44.339 64.2627 44.3032 64.2867 44.2637 64.303C44.2242 64.3194 44.1819 64.3278 44.1392 64.3278Z" fill="#739AF0"/>
<path d="M55.7883 60.0977H45.3429C45.1255 60.0977 44.9492 60.2739 44.9492 60.4914V60.6571C44.9492 60.8745 45.1255 61.0508 45.3429 61.0508H55.7883C56.0058 61.0508 56.182 60.8745 56.182 60.6571V60.4914C56.182 60.2739 56.0058 60.0977 55.7883 60.0977Z" fill="#F99746"/>
<path d="M43.0696 51.5659H32.6242C32.4067 51.5659 32.2305 51.7422 32.2305 51.9596V52.1253C32.2305 52.3428 32.4067 52.5191 32.6242 52.5191H43.0696C43.287 52.5191 43.4633 52.3428 43.4633 52.1253V51.9596C43.4633 51.7422 43.287 51.5659 43.0696 51.5659Z" fill="#F99746"/>
<path d="M37.7095 55.7961H32.5557C32.4695 55.7961 32.3867 55.7618 32.3257 55.7008C32.2647 55.6398 32.2305 55.557 32.2305 55.4708C32.2305 55.3845 32.2647 55.3018 32.3257 55.2408C32.3867 55.1798 32.4695 55.1455 32.5557 55.1455H37.7095C37.7523 55.1455 37.7945 55.1539 37.834 55.1703C37.8735 55.1866 37.9093 55.2106 37.9395 55.2408C37.9697 55.271 37.9937 55.3068 38.01 55.3463C38.0264 55.3858 38.0348 55.4281 38.0348 55.4708C38.0348 55.5135 38.0264 55.5558 38.01 55.5953C37.9937 55.6347 37.9697 55.6706 37.9395 55.7008C37.9093 55.731 37.8735 55.7549 37.834 55.7713C37.7945 55.7876 37.7523 55.7961 37.7095 55.7961Z" fill="#739AF0"/>
<path d="M41.656 53.7817H32.5331C32.3659 53.7817 32.2305 53.9172 32.2305 54.0843V54.1297C32.2305 54.2968 32.3659 54.4323 32.5331 54.4323H41.656C41.8231 54.4323 41.9586 54.2968 41.9586 54.1297V54.0843C41.9586 53.9172 41.8231 53.7817 41.656 53.7817Z" fill="#739AF0"/>
<path d="M51.6353 53.7817H43.1363C42.9747 53.7817 42.8438 53.9127 42.8438 54.0743V54.1397C42.8438 54.3013 42.9747 54.4323 43.1363 54.4323H51.6353C51.7969 54.4323 51.9279 54.3013 51.9279 54.1397V54.0743C51.9279 53.9127 51.7969 53.7817 51.6353 53.7817Z" fill="#739AF0"/>
<path d="M44.1392 55.7961H38.9854C38.8992 55.7961 38.8164 55.7618 38.7554 55.7008C38.6944 55.6398 38.6602 55.557 38.6602 55.4708C38.6602 55.3845 38.6944 55.3018 38.7554 55.2408C38.8164 55.1798 38.8992 55.1455 38.9854 55.1455H44.1392C44.2255 55.1455 44.3082 55.1798 44.3692 55.2408C44.4302 55.3018 44.4645 55.3845 44.4645 55.4708C44.4645 55.5135 44.4561 55.5558 44.4397 55.5953C44.4234 55.6347 44.3994 55.6706 44.3692 55.7008C44.339 55.731 44.3032 55.7549 44.2637 55.7713C44.2242 55.7876 44.1819 55.7961 44.1392 55.7961Z" fill="#739AF0"/>
<path d="M55.7883 51.5659H45.3429C45.1255 51.5659 44.9492 51.7422 44.9492 51.9596V52.1253C44.9492 52.3428 45.1255 52.5191 45.3429 52.5191H55.7883C56.0058 52.5191 56.182 52.3428 56.182 52.1253V51.9596C56.182 51.7422 56.0058 51.5659 55.7883 51.5659Z" fill="#F99746"/>
<path d="M26.4531 47.9297C26.4531 47.9297 26.5709 47.6646 26.6472 47.5373C26.7235 47.41 27.0492 47.0442 27.105 47.1274C27.1608 47.2107 27.3823 47.7706 27.2641 47.9275C27.146 48.0845 27.272 48.3575 26.6855 48.5223L26.4531 47.9297Z" fill="#FFB27D"/>
<path d="M19.9375 46.2573C19.9375 46.2573 22.9386 48.7623 24.1089 48.5307C25.0246 48.3494 26.4286 47.8676 26.4286 47.8676L26.7094 48.5861C26.7094 48.5861 25.4501 50.2945 24.1368 50.3058C22.084 50.3232 20.5676 49.4172 20.5676 49.4172L19.9375 46.2573Z" fill="#95B3EF"/>
<path d="M14.6719 72.685C14.6719 72.685 14.7591 74.0903 15.0307 74.1103C15.0669 74.1134 16.4099 74.1134 16.4099 74.1134L18.1243 74.1033C18.1243 74.1033 18.113 73.6878 17.6137 73.6006C17.1145 73.5134 16.2738 73.1611 15.9704 72.4988C15.6516 71.802 14.6719 72.685 14.6719 72.685Z" fill="#1C4B8E"/>
<path d="M14.5742 72.7805C14.5742 72.7805 15.0953 72.9549 15.5025 72.9549C15.7954 72.9511 16.0866 72.9096 16.3689 72.8315C16.3689 72.8315 16.467 71.8827 17.0068 69.792C17.2898 68.6962 17.694 67.287 18.2691 65.5364C19.8593 60.6965 20.3433 57.8672 20.3873 57.6008C20.3895 57.5868 20.3904 57.5798 20.3904 57.5798L20.3851 57.5772L15.4964 55.4307C15.4964 55.4307 16.1008 62.1018 15.3299 64.6591C15.2127 65.0621 15.1193 65.4717 15.0499 65.8856C14.5629 68.6635 14.5742 72.7805 14.5742 72.7805Z" fill="#FFA561"/>
<path d="M17.0059 69.7915C17.2889 68.6957 17.6931 67.2865 18.2682 65.5359C19.8583 60.696 20.3423 57.8667 20.3864 57.6003C20.3861 57.5924 20.3853 57.5845 20.3842 57.5767L15.4955 55.4302C15.4955 55.4302 16.0998 62.1013 15.3289 64.6586C15.2208 65.0148 17.0059 69.7915 17.0059 69.7915Z" fill="#F4904D"/>
<path d="M18.4922 72.685C18.4922 72.685 18.5794 74.0903 18.8515 74.1103C18.8877 74.1134 20.2306 74.1134 20.2306 74.1134L21.9451 74.1033C21.9451 74.1033 21.9324 73.6878 21.4327 73.6006C20.933 73.5134 20.0928 73.1611 19.7889 72.4988C19.4698 71.802 18.4922 72.685 18.4922 72.685Z" fill="#1C4B8E"/>
<path d="M21.2642 55.5859C21.2642 55.5859 21.3279 59.9074 20.5801 65.2133C19.8323 70.5193 20.0861 72.7722 20.0861 72.7722C20.0861 72.7722 19.5725 72.9388 19.3649 72.9553C18.8369 72.999 18.2954 72.832 18.2954 72.832C18.2954 72.832 17.2236 67.5229 17.5319 64.8671C17.8401 62.2113 16.0664 55.7542 16.0664 55.7542L21.2642 55.5859Z" fill="#FFA561"/>
<path d="M17.7969 45.4731L18.7513 46.0988L19.6203 45.8529C19.7795 45.6261 19.8213 45.1892 19.8235 44.8108C19.8247 44.5789 19.8134 44.3472 19.7895 44.1166L18.5019 43.5498L18.0223 43.3379C18.0223 43.3453 18.0598 43.7325 18.0659 43.7892C18.154 44.7912 17.7969 45.4731 17.7969 45.4731Z" fill="#FFB27D"/>
<path d="M21.287 56.7873C20.0988 57.9341 15.6034 57.7414 15.3266 56.4778C15.0497 55.2142 15.6287 45.7211 17.6575 45.125C18.0787 45.0012 20.3299 45.7285 20.3299 45.7285C20.5781 46.4128 20.7736 47.1151 20.9146 47.8292C20.9582 48.0582 21.089 50.4838 21.1889 52.7533C21.2347 53.815 21.2735 54.8422 21.2935 55.5948C21.3114 56.2994 21.3123 56.762 21.287 56.7873Z" fill="#AFCDFB"/>
<path d="M18.1617 43.8056C18.4233 44.2473 19.3389 44.6341 19.8247 44.8111C19.8259 44.5792 19.8145 44.3475 19.7906 44.1169L18.5031 43.5501C18.2188 43.5449 18.0452 43.6085 18.1617 43.8056Z" fill="#FCA56B"/>
<path d="M20.276 44.0384C20.276 44.0384 18.2014 44.6855 17.8182 43.3874C17.4349 42.0894 16.9095 41.2989 18.218 40.8306C19.5265 40.3623 19.9307 40.7818 20.164 41.1838C20.3972 41.5858 20.8062 43.8365 20.276 44.0384Z" fill="#FFB27D"/>
<path d="M20.0825 41.0587C20.0825 41.0587 19.9517 42.5695 19.6378 42.5037C19.3239 42.4378 18.9816 42.2979 19.0274 42.7535C19.0732 43.2092 18.7222 43.9892 18.2735 43.9875C17.3073 43.9835 16.2573 41.5021 16.522 41.0343C17.2846 39.6783 21.1853 39.404 20.0825 41.0587Z" fill="#163560"/>
<path d="M19.7771 45.1576C19.75 45.1463 18.2327 44.4656 18.0552 44.5241C17.8777 44.5825 17.6562 45.1249 17.6562 45.1249L20.3286 45.7288C20.3286 45.7288 20.118 45.3028 19.7771 45.1576Z" fill="#95B3EF"/>
<path d="M29.2247 52.5094L20.7179 60.52C20.5509 60.677 20.3408 60.7272 20.2505 60.6312L19.9632 60.326C19.8729 60.2301 19.9357 60.0208 20.1023 59.866L28.6095 51.8567C28.7761 51.6997 28.9867 51.6496 29.0769 51.7455L29.3638 52.0507C29.4541 52.1453 29.3917 52.3525 29.2247 52.5094Z" fill="#1F4D84"/>
<path d="M24.4507 57.0038L20.7179 60.5199C20.5509 60.6769 20.3408 60.727 20.2505 60.6311L19.9632 60.3259C19.8729 60.2299 19.9357 60.0206 20.1023 59.8659L23.8355 56.3511L24.4507 57.0038Z" fill="#739AF0"/>
<path d="M27.2704 49.4851C27.5667 50.4564 28.081 51.3472 28.774 52.0895C29.467 52.8318 30.3203 53.4061 31.269 53.7684C32.2177 54.1307 33.2366 54.2715 34.248 54.1801C35.2594 54.0887 36.2365 53.7675 37.1049 53.241C37.9732 52.7145 38.7098 51.9966 39.2585 51.1421C39.8072 50.2876 40.1535 49.319 40.2709 48.3103C40.3883 47.3016 40.2737 46.2794 39.9359 45.3217C39.5981 44.364 39.0461 43.4962 38.3218 42.7843C38.2878 42.7503 38.253 42.7167 38.2172 42.6836C37.1465 41.6765 35.773 41.0514 34.3104 40.9055C32.8477 40.7596 31.3778 41.1011 30.1293 41.8769C28.8808 42.6527 27.9236 43.8193 27.4066 45.1953C26.8895 46.5713 26.8417 48.0795 27.2704 49.4856V49.4851ZM29.1763 43.3311C30.0087 42.4464 31.0847 41.8284 32.2684 41.5552C33.452 41.2821 34.6901 41.3661 35.826 41.7966C36.9619 42.2271 37.9446 42.9848 38.6499 43.9738C39.3552 44.9628 39.7514 46.1388 39.7884 47.353C39.8253 48.5671 39.5014 49.765 38.8575 50.7951C38.2137 51.8252 37.2788 52.6412 36.1712 53.14C35.0636 53.6388 33.8329 53.7979 32.6349 53.5972C31.4368 53.3966 30.3252 52.8452 29.4405 52.0127C28.8522 51.4606 28.3786 50.7978 28.0468 50.0623C27.7151 49.3269 27.5317 48.5332 27.5071 47.7267C27.4826 46.9203 27.6174 46.1169 27.9038 45.3626C28.1902 44.6084 28.6226 43.918 29.1763 43.3311Z" fill="#1F4D84"/>
<g opacity="0.5">
<path d="M38.1221 51.7476C37.2898 52.6323 36.2138 53.2503 35.0303 53.5234C33.8468 53.7966 32.6088 53.7126 31.473 53.2822C30.3371 52.8518 29.3544 52.0942 28.6492 51.1053C27.9439 50.1164 27.5477 48.9406 27.5107 47.7265C27.4737 46.5124 27.7975 45.3146 28.4412 44.2846C29.085 43.2545 30.0197 42.4385 31.1272 41.9397C32.2347 41.4409 33.4652 41.2817 34.6632 41.4822C35.8612 41.6828 36.9728 42.2341 37.8574 43.0664C38.4479 43.6172 38.9234 44.2795 39.2565 45.015C39.5897 45.7506 39.7738 46.5448 39.7985 47.3519C39.8231 48.159 39.6876 48.9629 39.3999 49.7174C39.1122 50.4718 38.6779 51.1619 38.1221 51.7476Z" fill="#B3CFF9"/>
</g>
<path d="M21.2941 55.5928C16.6064 52.2524 16.9962 47.7954 16.9962 47.7954C18.7098 48.7616 20.4094 50.8981 21.1894 52.7512C21.2361 53.8147 21.274 54.842 21.2941 55.5928Z" fill="#95B3EF"/>
<path d="M25.9197 54.0734C26.2502 53.9971 26.4721 53.7472 26.5183 53.7036C26.5183 53.7036 26.6592 53.7132 26.4952 54.0141C26.4817 54.0389 26.4516 54.1013 26.4281 54.1492C26.4256 54.1536 26.4243 54.1585 26.4243 54.1636C26.4243 54.1686 26.4255 54.1735 26.428 54.1779C26.4304 54.1823 26.434 54.186 26.4383 54.1886C26.4426 54.1912 26.4475 54.1927 26.4525 54.1928C26.6435 54.2072 26.8353 54.1318 27.2024 54.2081C27.2535 54.219 27.2678 54.3389 27.2661 54.3921C27.2626 54.4793 27.2692 54.5778 27.1671 54.7121C27.1083 54.7902 26.943 54.8743 26.575 55.0226C26.435 55.0788 26.0343 55.0361 25.6594 54.9075L25.3594 54.7684L25.4522 54.2107L25.5277 54.2264C25.6467 54.2504 25.795 54.1039 25.9197 54.0734Z" fill="#FFB27D"/>
<path d="M18.451 45.729C18.451 45.729 14.239 46.5309 19.6902 52.6299C20.5622 53.6058 25.2713 54.8759 25.2713 54.8759C25.2713 54.8759 25.7509 54.4691 25.508 54.1403C25.508 54.1403 22.2653 51.7858 21.5515 51.4108C21.2306 51.2425 20.3058 47.6519 19.7826 46.789C19.2594 45.9261 18.451 45.729 18.451 45.729Z" fill="#AFCDFB"/>
<path d="M26.5664 48.0062C26.5664 48.0062 26.7042 47.7446 26.7308 47.6037C26.7574 47.4629 26.9314 47.06 27.0029 46.9885C27.0316 46.9602 27.1258 46.9972 27.1367 47.1193C27.1415 47.173 27.1154 47.2697 27.0691 47.3857C26.9937 47.5741 27.0064 47.83 26.9819 47.9151C26.9148 48.1257 26.5664 48.0062 26.5664 48.0062Z" fill="#FFB27D"/>
<path d="M82.882 39.9647L80.4974 40.5198L79.3184 42.6654L78.418 37.7759L82.882 39.9647Z" fill="#233862"/>
<path d="M80.3671 40.0497L80.0195 40.313L81.5425 42.3231L81.8901 42.0598L80.3671 40.0497Z" fill="#233862"/>
<path d="M75.0165 62.5635C75.0165 62.5635 76.0023 61.4059 75.0719 60.6755C75.0719 60.6755 74.3921 60.267 73.8392 60.3023C73.8392 60.3023 74.6271 61.6139 74.3738 61.7451C74.1205 61.8763 73.6016 60.219 73.6016 60.219C73.6016 60.219 72.0576 60.0743 71.5619 60.3145C71.5619 60.3145 72.8848 61.3902 72.6083 61.4556C72.3319 61.521 70.9022 60.4654 70.9022 60.4654C70.9022 60.4654 69.4668 60.7143 69.5461 61.5903C69.6255 62.4663 70.1213 62.7353 70.3388 62.7113C70.5564 62.6873 71.827 62.1977 71.8553 62.3756C71.8837 62.5535 71.1197 63.1386 70.5834 63.1678C70.5834 63.1678 71.5994 64.2814 72.2717 63.957C72.9441 63.6326 72.9994 63.1212 73.4185 62.9285C73.8375 62.7357 74.1955 62.7349 74.0228 62.9285C73.8501 63.1221 73.0914 63.317 72.8529 63.7421C72.6144 64.1672 72.3999 64.4541 73.0962 64.3473C73.7926 64.2405 74.9223 63.7273 74.9711 63.1434L75.0165 62.5635Z" fill="#82B378"/>
<path d="M70.2539 61.6133C70.2539 61.6133 74.1546 61.4507 75.0196 62.5638C75.0196 62.5638 75.2124 63.1337 75.8001 63.6539L75.8926 63.9024C75.8926 63.9024 75.2141 63.1917 74.9721 63.1494C74.9721 63.1472 75.3462 61.7637 70.2539 61.6133Z" fill="#82B378"/>
<path d="M75.7983 63.6516C75.7983 63.6516 76.6376 64.2682 76.6995 65.3744L76.5474 65.3888C76.5474 65.3888 76.2762 64.2451 75.7917 63.7995C75.3073 63.3538 75.7983 63.6516 75.7983 63.6516Z" fill="#82B378"/>
<path d="M80.2505 59.5103C80.2505 59.5103 78.6734 58.6339 79.4042 57.4353C79.4042 57.4353 79.9893 56.6989 80.6185 56.5079C80.6185 56.5079 80.2885 58.293 80.6242 58.334C80.9599 58.3749 80.8487 56.3187 80.8487 56.3187C80.8487 56.3187 82.5056 55.5159 83.1549 55.5774C83.1549 55.5774 82.1324 57.3215 82.4677 57.2779C82.803 57.2343 83.9524 55.4684 83.9524 55.4684C83.9524 55.4684 85.6529 55.1479 85.9271 56.1547C86.2014 57.1615 85.764 57.6664 85.5125 57.7301C85.2609 57.7937 83.6445 57.778 83.6873 57.9878C83.73 58.1975 84.8209 58.5297 85.4314 58.3366C85.4314 58.3366 84.7651 59.997 83.883 59.9158C83.001 59.8347 82.7271 59.2897 82.1825 59.2496C81.638 59.2095 81.2386 59.3573 81.5115 59.5034C81.7845 59.6494 82.7079 59.547 83.1501 59.9211C83.5922 60.2952 83.9493 60.5241 83.1313 60.6946C82.3134 60.8651 80.8439 60.7648 80.5483 60.136L80.2505 59.5103Z" fill="#A8D29F"/>
<path d="M85.1524 56.4727C85.1524 56.4727 80.7485 57.9115 80.251 59.5104C80.251 59.5104 80.2741 60.2242 79.8359 61.0439V61.3587C79.8359 61.3587 80.2942 60.287 80.5458 60.1379C80.5467 60.1392 79.556 58.757 85.1524 56.4727Z" fill="#82B378"/>
<path d="M79.8366 61.0434C79.8366 61.0434 79.1603 62.0776 79.5514 63.3329L79.7259 63.2854C79.7259 63.2854 79.5514 61.9019 79.9051 61.2047C80.2587 60.5075 79.8366 61.0434 79.8366 61.0434Z" fill="#82B378"/>
<path d="M77.7434 58.3025C77.7434 58.3025 79.8145 57.134 78.8413 55.5604C78.8413 55.5604 78.0635 54.5946 77.2328 54.3482C77.2328 54.3482 77.6828 56.6984 77.2402 56.7551C76.7977 56.8118 76.9276 54.1001 76.9276 54.1001C76.9276 54.1001 74.7388 53.0537 73.8816 53.1409C73.8816 53.1409 75.2441 55.4326 74.8016 55.3786C74.359 55.3245 72.8299 53.0057 72.8299 53.0057C72.8299 53.0057 70.5874 52.598 70.232 53.927C69.8767 55.256 70.4596 55.9179 70.7919 55.9999C71.1241 56.0819 73.2541 56.0474 73.2001 56.3243C73.146 56.6012 71.7084 57.0485 70.9053 56.8039C70.9053 56.8039 71.7974 58.9866 72.9589 58.8724C74.1205 58.7582 74.478 58.0379 75.197 57.9799C75.916 57.9219 76.4423 58.1146 76.0835 58.3091C75.7246 58.5035 74.5068 58.3775 73.9273 58.8733C73.3479 59.369 72.8809 59.6751 73.9583 59.8927C75.0357 60.1103 76.9738 59.9664 77.3593 59.1353L77.7434 58.3025Z" fill="#A8D29F"/>
<path d="M71.2539 54.3394C71.2539 54.3394 77.0691 56.2034 77.7415 58.3024C77.7415 58.3024 77.7166 59.2433 78.3009 60.3203V60.7354C78.3009 60.7354 77.6879 59.3261 77.3552 59.1339C77.3552 59.1339 78.6497 57.3039 71.2539 54.3394Z" fill="#82B378"/>
<path d="M78.2998 60.3202C78.2998 60.3202 79.2001 61.6779 78.6922 63.3357L78.4615 63.2742C78.4615 63.2742 78.6795 61.4495 78.2078 60.5338C77.736 59.6182 78.2998 60.3202 78.2998 60.3202Z" fill="#82B378"/>
<path d="M94.3569 74.2164H73.0903C70.1253 70.825 70.9102 66.2433 74.8435 62.3797C75.3384 61.894 76.2877 61.5491 77.311 61.3062C79.1972 60.858 81.3368 60.7551 81.3534 60.7459C81.3595 60.7459 82.484 59.8303 83.1602 59.0132C85.2619 56.469 87.0496 56.6874 87.0496 56.6874C89.1918 56.2706 91.0174 56.1481 92.3734 56.9019C93.6283 57.5996 94.4781 59.0542 94.796 61.723C94.8561 62.228 94.8975 62.776 94.9189 63.3712C94.9965 65.5374 95.4234 67.4642 95.6767 69.0958C96.0452 71.4608 96.3046 73.258 94.3569 74.2164Z" fill="#FFA561"/>
<path d="M91.3098 59.6236C90.01 60.3313 89.8661 62.664 87.8321 63.2661C85.798 63.8683 82.3439 63.8138 80.3853 65.9385C78.4955 67.9878 76.4113 62.773 77.3087 61.3062C79.1949 60.858 81.3345 60.7551 81.351 60.7459C81.3572 60.7459 82.4817 59.8303 83.1579 59.0132C85.2596 56.469 87.0473 56.6874 87.0473 56.6874C89.1894 56.2706 91.0151 56.1481 92.3711 56.9019C93.8636 58.4446 92.6105 58.9155 91.3098 59.6236Z" fill="#F4904D"/>
<path d="M77.2402 69.7079C77.2402 69.7079 77.6148 70.7007 77.5372 71.0696C77.4596 71.4384 77.5891 72.1531 77.4391 72.4731C77.2891 72.7932 77.0209 73.258 77.2804 73.3757C77.3785 73.4193 78.5178 72.5302 78.5823 72.2686C78.6468 72.007 78.6957 71.2357 78.9128 70.8162C79.13 70.3968 78.946 70.0597 78.6294 69.9067C78.3129 69.7536 77.8699 68.9121 77.8699 68.9121L77.2402 69.7079Z" fill="#F9DDBF"/>
<path d="M83.3328 60.2944C83.3328 60.2944 77.1112 59.9102 76.3094 60.7356C75.4648 61.605 76.8409 70.1572 76.8409 70.1572C76.8409 70.1572 78.5278 70.2056 78.6608 69.7587C78.6608 69.7587 78.3443 65.6164 78.6076 64.9018C78.871 64.1872 78.704 63.1943 78.704 63.1943C78.704 63.1943 82.0051 63.6875 83.052 63.4363C84.0989 63.1852 83.3328 60.2944 83.3328 60.2944Z" fill="#233862"/>
<path d="M84.8392 55.7275C84.8392 55.7328 83.9235 57.8675 83.4748 58.0951C83.0262 58.3228 81.4085 60.1846 81.061 60.1523C80.7135 60.12 81.4194 60.5325 81.4194 60.5325C81.4194 60.5325 84.2972 59.1281 84.4629 59.0465C84.6286 58.965 85.4936 57.5379 85.6127 56.8137C85.7317 56.0894 84.8392 55.7275 84.8392 55.7275Z" fill="#FFB27D"/>
<path d="M76.0921 71.3464C76.0921 71.3464 75.7376 72.3466 75.4381 72.5782C75.1385 72.8097 74.7783 73.4398 74.4574 73.5876C74.1365 73.7354 73.629 73.9181 73.7537 74.1745C73.8003 74.2717 75.2449 74.3271 75.4629 74.1688C75.6809 74.0105 76.2159 73.4528 76.6524 73.2723C77.0888 73.0918 77.1656 72.716 77.0226 72.3946C76.8795 72.0733 77.084 71.1445 77.084 71.1445L76.0921 71.3464Z" fill="#F9DDBF"/>
<path d="M86.7143 54.7795C86.5835 54.626 89.9509 55.0045 90.3992 56.7259C90.3992 56.7259 92.9869 54.6862 90.6132 52.967C89.7913 52.3722 89.7085 51.7365 89.5895 51.1553C89.4704 50.5741 88.6498 48.9037 87.2271 49.733C87.2271 49.733 86.5774 49.7365 86.1658 50.0927C85.231 50.9037 84.2102 56.0553 86.7143 54.7795Z" fill="#163560"/>
<path d="M86.0557 60.5957C86.0557 60.5957 79.2913 61.2859 78.6974 61.9766C78.1036 62.6673 75.7695 71.6463 75.7695 71.6463C75.7695 71.6463 76.4602 72.0308 77.0872 71.6711C77.0872 71.6711 78.8749 68.6246 79.6671 67.6684C80.4594 66.7122 80.7541 63.7595 80.885 63.7294C81.0158 63.6993 85.2548 64.3193 86.7141 63.1983C88.1735 62.0773 86.0557 60.5957 86.0557 60.5957Z" fill="#2A4E96"/>
<path d="M89.8197 54.4565C89.8197 54.4565 88.2064 53.7362 86.1601 54.0641C85.742 54.1317 85.3657 54.2694 85.0666 54.7617C84.6445 55.4593 84.447 55.8308 84.447 55.8308C84.447 55.8308 84.4875 56.1535 85.0648 56.4099C84.9074 56.9867 85.2087 57.9939 84.934 58.3851C84.6593 58.7762 82.9383 59.7459 82.8533 60.2852C82.6977 61.2759 85.7917 63.0706 86.7147 62.8783C89.3684 62.3284 91.1713 55.2147 89.8197 54.4565Z" fill="#F9DDBF"/>
<path d="M88.9067 52.4161C88.9067 52.4161 89.2246 51.79 89.2665 51.2764C89.2965 50.9101 88.9865 49.5907 87.6619 49.9103C87.3949 49.9734 87.1455 50.0956 86.932 50.2679C86.659 50.4924 86.278 50.9572 86.8592 52.0791L87.0188 52.4615L88.9067 52.4161Z" fill="#163560"/>
<path d="M87.0913 54.5278C86.9574 54.6691 87.0102 55.1383 87.6372 55.1034C88.0488 55.0803 88.9309 54.571 88.8485 54.2196C88.8092 54.0521 88.4927 53.6213 88.4177 52.6294L88.3431 52.6503L87.0865 53.0039C87.0865 53.0039 87.1475 53.4033 87.1781 53.7814C87.2034 54.0992 87.1467 54.4694 87.0913 54.5278Z" fill="#FFB27D"/>
<path d="M87.0859 53.004C87.0859 53.004 87.147 53.4034 87.1775 53.7814C87.8904 53.7051 88.2161 53.0236 88.3426 52.6504L87.0859 53.004Z" fill="#F4A269"/>
<path d="M87.0619 53.5844C87.0619 53.5844 88.7061 53.1702 88.4323 52.1504C88.1585 51.1305 88.1864 50.3901 87.1242 50.6116C86.0621 50.8331 85.9644 51.2766 85.9731 51.6393C85.9819 52.0021 86.6272 53.666 87.0619 53.5844Z" fill="#FFB27D"/>
<path d="M86.3711 50.7876C86.3711 50.7876 86.9235 51.8393 87.9652 51.9522C88.5756 52.0185 88.7418 52.4201 88.7418 52.4201C88.7418 52.4201 88.5586 51.272 88.2521 50.57C88.2521 50.57 86.556 50.1274 86.3711 50.7876Z" fill="#163560"/>
<path d="M86.5601 50.9274C86.5601 50.9274 86.2004 51.295 86.0892 51.5545C85.9248 51.9382 86.2462 52.7461 86.3787 52.9201C86.3787 52.9201 85.6131 51.6225 85.8686 51.06C86.1394 50.4631 86.5601 50.9274 86.5601 50.9274Z" fill="#163560"/>
<path d="M81.5498 60.3966C81.5498 60.3966 81.2224 60.7433 81.1827 60.762C80.9647 60.8636 80.6926 60.8056 80.5605 60.8379C80.4284 60.8701 80.4511 60.7886 80.5483 60.7219C80.6455 60.6552 80.8858 60.6813 80.7877 60.6569C80.6896 60.6325 80.1602 60.534 79.9592 60.5876C79.644 60.6722 79.395 60.5728 79.3754 60.5405C79.3558 60.5082 80.0953 60.1481 80.3067 60.1585C80.5182 60.169 81.126 60.1411 81.126 60.1411L81.5498 60.3966Z" fill="#FFB27D"/>
<path d="M90.3779 55.0957C90.3779 55.0957 92.4185 59.701 91.8517 60.3772C91.2849 61.0535 87.3633 60.2329 87.3633 60.2329L87.4841 59.8052C87.4841 59.8052 90.3714 59.6308 90.5772 59.5706C90.8728 59.4869 89.1144 56.2568 89.1144 56.2568L90.3779 55.0957Z" fill="#FFB27D"/>
<path d="M89.6181 54.3809C89.6674 54.3809 90.2769 54.582 90.7147 55.4483C91.1451 56.2995 91.302 56.7128 91.302 56.7128C91.302 56.7128 89.3949 58.1918 88.6362 57.6476C87.8775 57.1035 88.9183 54.3631 89.6181 54.3809Z" fill="#F9DDBF"/>
<path d="M87.8213 59.7843C87.8213 59.7843 87.4934 59.5716 87.3609 59.4556C87.2283 59.3396 86.4605 59.2445 86.4609 59.3222C86.4614 59.3998 86.9083 59.5057 86.9571 59.5838C87.006 59.6618 87.2789 59.9814 87.5122 59.9805C87.5773 59.9817 87.6413 59.9638 87.6962 59.9289C87.7512 59.894 87.7947 59.8437 87.8213 59.7843Z" fill="#FFB27D"/>
<path d="M86.9251 60.4763L86.0452 60.3511C85.9144 60.3324 85.7801 60.2203 85.7474 60.1056L85.2612 58.3877C85.2285 58.2713 85.3083 58.1915 85.4396 58.2103L86.3195 58.3354C86.3863 58.3465 86.4491 58.375 86.5013 58.4181C86.5536 58.4612 86.5936 58.5174 86.6173 58.5809L87.103 60.2984C87.1361 60.4157 87.0563 60.4954 86.9251 60.4763Z" fill="#1F4A91"/>
<path d="M86.7415 60.4509L85.8616 60.3257C85.7308 60.307 85.5965 60.1949 85.5638 60.0807L85.0776 58.3628C85.0449 58.2459 85.1247 58.1661 85.256 58.1849L86.1359 58.31C86.2027 58.3211 86.2655 58.3496 86.3178 58.3927C86.3701 58.4358 86.4101 58.4919 86.4337 58.5555L86.9194 60.2734C86.9525 60.3894 86.8727 60.4696 86.7415 60.4509Z" fill="#233862"/>
<path d="M85.2298 58.4039C85.2158 58.3555 85.2489 58.3224 85.3039 58.3303C85.3316 58.3348 85.3577 58.3466 85.3794 58.3646C85.4011 58.3825 85.4176 58.4059 85.4273 58.4323C85.4412 58.4807 85.4081 58.5138 85.3531 58.506C85.3254 58.5013 85.2994 58.4895 85.2777 58.4716C85.2561 58.4536 85.2395 58.4303 85.2298 58.4039Z" fill="#1F4A91"/>
<path d="M87.3623 60.2333C87.3623 60.2333 86.7671 60.2416 86.618 60.2062C86.4689 60.1709 86.0869 59.6978 86.189 59.5792C86.2526 59.5047 86.6084 59.6385 86.778 59.6381C86.9476 59.6377 87.3885 59.3926 87.6889 59.894C87.7229 59.9503 87.3623 60.2333 87.3623 60.2333Z" fill="#FFB27D"/>
<path d="M89.9192 61.3657C89.9192 61.3657 89.2782 61.9661 86.5967 62.052C83.9152 62.1379 80.4196 65.102 80.3869 65.9383C80.3542 66.7746 85.7861 68.046 85.8703 67.9266C85.9544 67.8071 89.3149 64.918 89.3149 64.918L89.9192 61.3657Z" fill="#FFA561"/>
<path d="M95.6761 69.0963C92.6932 65.3727 86.5632 70.448 84.9787 70.3059C83.5206 70.1751 87.822 65.0845 93.1563 64.3271C95.3124 64.0219 94.7962 61.7925 94.7953 61.7236C94.8555 62.2285 94.8969 62.7766 94.9182 63.3718C94.9959 65.538 95.4227 67.4647 95.6761 69.0963Z" fill="#F4904D"/>
<path d="M103.467 74.4419L1.75664 74.4065C1.72384 74.4064 1.69241 74.3933 1.66921 74.3701C1.64601 74.3469 1.63293 74.3155 1.63281 74.2827V74.219C1.63293 74.1862 1.64607 74.1547 1.66936 74.1315C1.69266 74.1083 1.7242 74.0952 1.75708 74.0952L103.467 74.1301C103.5 74.1302 103.532 74.1433 103.555 74.1666C103.578 74.1899 103.591 74.2214 103.592 74.2544V74.318C103.591 74.3509 103.578 74.3823 103.555 74.4055C103.532 74.4287 103.5 74.4417 103.467 74.4419Z" fill="#2E3552"/>
<path d="M61.457 17.8241L67.2666 19.0262L63.5421 16.1323L63.2909 16.9695L61.8495 17.1391L61.457 17.8241Z" fill="#95B3EF"/>
<path d="M67.2643 19.0262L62.5431 16.2069L57.7773 15.668L67.2643 19.0262Z" fill="#F9DDBF"/>
<path d="M63.5391 16.1324L67.2636 19.0263L64.5105 14.6948L63.5391 16.1324Z" fill="#F9DDBF"/>
<path d="M24.9502 34.1741L19.1406 35.3758L22.8651 32.4819L23.1163 33.3195L24.5578 33.4887L24.9502 34.1741Z" fill="#95B3EF"/>
<path d="M19.1406 35.3759L23.8619 32.5566L28.6276 32.0181L19.1406 35.3759Z" fill="#F9DDBF"/>
<path d="M22.8651 32.482L19.1406 35.3759L21.8937 31.0444L22.8651 32.482Z" fill="#F9DDBF"/>
<path d="M34.4688 35.8529L34.6388 35.6506C34.7923 35.784 34.9462 35.8594 35.1459 35.8594C35.3203 35.8594 35.4306 35.7792 35.4306 35.6527C35.4306 35.5381 35.3665 35.4783 35.0678 35.4051C34.726 35.3244 34.5328 35.2237 34.5328 34.9228C34.5328 34.6473 34.7626 34.4567 35.0818 34.4567C35.2941 34.4524 35.501 34.524 35.6652 34.6586L35.5135 34.8723C35.3687 34.7641 35.2244 34.707 35.0774 34.707C34.9122 34.707 34.8158 34.7942 34.8158 34.9019C34.8158 35.0262 34.8895 35.0811 35.1969 35.1548C35.537 35.2372 35.7136 35.3589 35.7136 35.6301C35.7136 35.9309 35.4773 36.1097 35.1398 36.1097C34.8919 36.111 34.6525 36.0194 34.4688 35.8529Z" fill="#739AF0"/>
<path d="M35.9453 35.4805C35.9453 35.1317 36.1912 34.8491 36.5379 34.8491C36.9237 34.8491 37.1191 35.1543 37.1191 35.5032C37.1191 35.5215 37.1165 35.5673 37.1143 35.5812H36.2235C36.2312 35.6674 36.2717 35.7473 36.3366 35.8046C36.4015 35.8618 36.4858 35.8921 36.5723 35.889C36.6341 35.8893 36.6953 35.8766 36.7519 35.8516C36.8085 35.8267 36.8592 35.7901 36.9006 35.7443L37.0637 35.889C37.0041 35.9625 36.9284 36.0212 36.8424 36.0606C36.7564 36.1 36.6625 36.1191 36.568 36.1162C36.2165 36.1145 35.9453 35.8594 35.9453 35.4805ZM36.8435 35.3959C36.8248 35.2167 36.7193 35.0767 36.5357 35.0767C36.3656 35.0767 36.2462 35.2075 36.2209 35.3959H36.8435Z" fill="#739AF0"/>
<path d="M38.1405 36.0869V35.9373C38.0926 35.9943 38.0324 36.0396 37.9644 36.0699C37.8964 36.1001 37.8224 36.1144 37.7481 36.1117C37.5187 36.1117 37.3164 35.9809 37.3164 35.7328C37.3164 35.4643 37.5257 35.3356 37.8078 35.3356C37.9216 35.3337 38.0349 35.3506 38.1431 35.3858V35.3631C38.1431 35.1952 38.0376 35.1037 37.8449 35.1037C37.7246 35.1038 37.6056 35.1295 37.496 35.1791L37.4206 34.9567C37.5646 34.888 37.7224 34.8534 37.8819 34.8556C38.2403 34.8556 38.4147 35.0439 38.4147 35.3675V36.0865L38.1405 36.0869ZM38.1475 35.5794C38.0585 35.5469 37.9644 35.5305 37.8697 35.531C37.6953 35.531 37.5915 35.602 37.5915 35.7241C37.5915 35.8388 37.6949 35.9029 37.8257 35.9029C38.0097 35.9029 38.1475 35.7996 38.1475 35.6483V35.5794Z" fill="#739AF0"/>
<path d="M38.7474 34.8746H39.0238V35.148C39.0997 34.9666 39.2419 34.8428 39.4533 34.8515V35.1458H39.4372C39.1939 35.1458 39.0238 35.3041 39.0238 35.6254V36.0872H38.7461L38.7474 34.8746Z" fill="#739AF0"/>
<path d="M39.5881 35.4832C39.587 35.4001 39.6024 35.3175 39.6335 35.2404C39.6647 35.1632 39.7109 35.0931 39.7695 35.0341C39.8281 34.975 39.8979 34.9283 39.9748 34.8965C40.0517 34.8648 40.1341 34.8487 40.2173 34.8493C40.3084 34.8451 40.3993 34.8616 40.4832 34.8974C40.5671 34.9333 40.6418 34.9876 40.7017 35.0564L40.5273 35.2426C40.4423 35.1554 40.3529 35.0908 40.2125 35.0908C40.0106 35.0908 39.8637 35.2652 39.8637 35.4832C39.8637 35.7013 40.0128 35.8757 40.2265 35.8757C40.3573 35.8757 40.4536 35.8137 40.5408 35.7239L40.7087 35.8896C40.6251 35.9893 40.5129 36.0609 40.3873 36.0948C40.2617 36.1287 40.1287 36.1233 40.0063 36.0792C39.8839 36.0351 39.778 35.9546 39.7028 35.8484C39.6276 35.7422 39.5868 35.6155 39.5859 35.4854L39.5881 35.4832Z" fill="#739AF0"/>
<path d="M40.967 34.4106H41.2452V35.0647C41.3233 34.95 41.4357 34.851 41.6241 34.851C41.8971 34.851 42.0558 35.0346 42.0558 35.3171V36.0889H41.7776V35.4C41.7776 35.2116 41.6838 35.1035 41.516 35.1035C41.3481 35.1035 41.243 35.216 41.243 35.4043V36.0889H40.9648L40.967 34.4106Z" fill="#739AF0"/>
<path d="M42.3711 35.7725H42.6763V36.0873H42.3711V35.7725Z" fill="#739AF0"/>
<path d="M42.9883 35.7725H43.2935V36.0873H42.9883V35.7725Z" fill="#739AF0"/>
<path d="M43.6055 35.7725H43.9107V36.0873H43.6055V35.7725Z" fill="#739AF0"/>
<path d="M44.2227 35.7725H44.5279V36.0873H44.2227V35.7725Z" fill="#739AF0"/>
<path d="M60.2852 50.875C60.2852 50.8162 60.3026 50.7587 60.3353 50.7098C60.3679 50.6609 60.4144 50.6228 60.4687 50.6003C60.5231 50.5778 60.5829 50.5719 60.6405 50.5834C60.6982 50.5948 60.7512 50.6231 60.7928 50.6647C60.8344 50.7063 60.8627 50.7593 60.8742 50.817C60.8856 50.8747 60.8798 50.9345 60.8573 50.9888C60.8347 51.0431 60.7966 51.0896 60.7477 51.1223C60.6988 51.1549 60.6413 51.1724 60.5825 51.1724C60.5037 51.1724 60.428 51.141 60.3723 51.0853C60.3165 51.0295 60.2852 50.9539 60.2852 50.875Z" fill="#D7E5FF"/>
<path d="M74.1175 50.9554H60.6662C60.6449 50.9554 60.6245 50.947 60.6094 50.9319C60.5944 50.9169 60.5859 50.8965 60.5859 50.8752C60.5859 50.8647 60.588 50.8543 60.5921 50.8446C60.5961 50.8349 60.602 50.826 60.6095 50.8186C60.6169 50.8112 60.6258 50.8053 60.6355 50.8014C60.6452 50.7974 60.6557 50.7954 60.6662 50.7954H74.1175C74.128 50.7954 74.1384 50.7974 74.1481 50.8014C74.1579 50.8053 74.1667 50.8112 74.1742 50.8186C74.1816 50.826 74.1876 50.8349 74.1916 50.8446C74.1956 50.8543 74.1977 50.8647 74.1977 50.8752C74.1977 50.8965 74.1893 50.9169 74.1742 50.9319C74.1592 50.947 74.1388 50.9554 74.1175 50.9554Z" fill="#D7E5FF"/>
</g>
<defs>
<clipPath id="clip0_61_6475">
<rect width="105" height="74.4418" fill="white"/>
</clipPath>
</defs>
</svg>
