<svg width="46" height="46" viewBox="0 0 46 46" fill="none" xmlns="http://www.w3.org/2000/svg">
<path d="M35.4681 5.80273L38.9001 3.92215C39.3703 3.68708 39.9345 3.82812 40.2165 4.29827C40.4516 4.76841 40.3106 5.33258 39.8404 5.61467L36.4084 7.49524C35.9382 7.73031 35.3741 7.58927 35.092 7.11913C34.8569 6.60197 34.9979 6.0378 35.4681 5.80273ZM35.7032 0.34906L33.1644 3.40499C32.8353 3.78111 32.8823 4.34528 33.2584 4.7214C33.6815 5.09751 34.2927 5.0505 34.6688 4.62737L37.2076 1.57143C37.5367 1.19532 37.4897 0.631146 37.1136 0.255032C36.6905 -0.121083 36.0793 -0.0740689 35.7032 0.34906ZM37.1606 10.6922L41.1098 10.1751C41.674 10.128 42.0501 9.61089 41.9091 9.04672C41.815 8.57657 41.3449 8.20046 40.8747 8.29449L36.9255 8.81164C36.3614 8.85866 35.9853 9.37582 36.1263 9.93999C36.2203 10.4101 36.6905 10.7392 37.1606 10.6922ZM23.1033 18.6847L23.5735 19.4839L21.5518 20.6122L23.9026 23.151C24.8899 22.4458 26.5824 21.4115 27.7577 21.6936C29.2152 22.0227 29.0741 23.6212 29.0741 23.6212C29.0741 23.6212 31.0958 24.0913 30.4846 26.254C30.4846 26.254 32.1771 27.2413 31.2368 29.2159C31.2368 29.2159 33.0704 30.8144 30.5316 33.024C29.8264 33.6822 28.745 34.2464 27.7107 34.7166C26.1592 35.6098 24.5137 36.3621 23.5264 36.7852L17.8847 39.8881H23.9966C24.0436 39.8881 24.0436 39.8881 24.0906 39.8881V38.9478V38.8538L24.4197 38.6658C25.219 38.3367 26.3003 37.8195 27.4286 37.2553V40.7344V40.9224V41.5336C27.4286 43.9784 25.501 46 23.1033 46H8.38782C6.0371 46 4.0625 43.9784 4.0625 41.5336V40.7344V31.3315V10.2691V8.95269C4.0625 6.50794 5.99009 4.48632 8.38782 4.48632H22.2571C21.2698 5.94377 20.0474 7.21316 19.0131 8.20046C18.825 8.15344 18.637 8.10643 18.4489 8.10643C18.1198 8.10643 17.7907 8.20046 17.4616 8.3415L13.4654 10.5512H7.44753C7.40052 10.5512 7.40052 10.5512 7.35351 10.5512V30.5323V36.4561L16.2862 31.6136C16.8034 31.3315 17.2265 30.8614 17.3676 30.2972C17.4146 30.0621 17.4616 29.8741 17.4616 29.733C17.4616 29.639 17.4146 29.545 17.4146 29.4509C17.3676 29.0278 17.3676 28.5107 17.5086 27.9935C17.5086 27.9935 18.4959 25.0786 20.4705 24.2794L18.5899 22.2107L18.0728 22.4928C16.9914 23.104 15.628 22.6809 15.0168 21.5995L14.5937 20.8473L13.9825 21.1764C13.6064 21.3645 13.1833 21.2234 12.9482 20.8943L11.5848 18.4026C11.3967 18.0265 11.5378 17.6033 11.8669 17.3683L12.4781 17.0392L12.0079 16.1459C11.3967 15.0646 11.8199 13.7011 12.9012 13.09L18.3549 10.081L18.825 10.8803C21.0347 9.28179 24.4197 6.08481 25.7831 1.94755C25.5481 1.43039 25.7831 0.819204 26.3003 0.631146C26.7704 0.443089 27.3346 0.678161 27.5697 1.10129L30.3435 6.13183C31.6599 5.94377 33.0704 6.55496 33.7286 7.82434C34.4338 9.09373 34.1987 10.5982 33.3524 11.5855L36.1263 16.663C36.3614 17.1332 36.2673 17.6974 35.8442 17.9794C35.3741 18.3085 34.7159 18.1675 34.4338 17.6974C30.2025 16.616 25.6891 17.7914 23.1033 18.6847ZM20.3295 18.5906L17.4616 13.372L14.1706 15.1586L17.0385 20.3772L20.3295 18.5906ZM17.1325 42.0038H13.8885C13.4184 42.0038 12.9952 42.4269 12.9952 42.8971C12.9952 43.4142 13.3713 43.7903 13.8885 43.7903H17.1325C17.6026 43.7903 18.0258 43.3672 18.0258 42.8971C17.9788 42.4269 17.6026 42.0038 17.1325 42.0038Z" fill="#A0BE4A"/>
</svg>
