<svg width="46" height="46" viewBox="0 0 46 46" fill="none" xmlns="http://www.w3.org/2000/svg">
<path d="M28.1373 24.5844C27.7131 26.1641 27.2889 26.2599 27.0533 26.1162C26.959 26.6907 26.8176 27.2651 26.5348 27.8396C26.5348 28.5098 26.5348 29.1321 26.5348 29.5151C25.4508 30.1374 24.2254 30.4725 22.9529 30.4725C21.7275 30.4725 20.5492 30.1853 19.4652 29.5629V28.0789C19.041 27.3609 18.8525 26.595 18.7582 25.9248C18.5225 25.9248 18.1926 25.5418 17.8627 24.345C17.3914 22.6696 17.9098 22.4302 18.2869 22.4781C18.0041 21.6164 17.957 20.7547 18.1926 19.9409C18.4283 19.0314 18.8996 18.2655 19.4652 17.691C19.7951 17.308 20.2193 16.9729 20.6434 16.6857C20.9734 16.4464 21.3504 16.2549 21.7746 16.1113C22.1045 16.0155 22.4344 15.9198 22.8115 15.9198C23.9426 15.824 24.791 16.1113 25.4037 16.4942C26.2992 17.0208 26.6762 17.691 26.6762 17.691C26.6762 17.691 28.9857 17.8346 27.9959 22.7653C28.2787 22.861 28.5143 23.2919 28.1373 24.5844ZM22.9529 36.5521C19.6537 36.5521 16.543 35.3553 14.0922 33.1054C13.7623 33.3447 13.4795 33.5841 13.1496 33.8713C12.6783 34.3021 12.3955 34.8766 12.3955 35.5468V38.6105L14.4693 39.4243C19.9836 41.6264 26.0635 41.6264 31.5779 39.4243L33.0389 38.8499L29.2213 34.9723C27.2889 36.0255 25.168 36.5521 22.9529 36.5521ZM46 35.4989V32.866C46 32.2916 45.7643 31.765 45.3402 31.4299C42.9836 29.4672 40.4857 28.1747 39.9672 27.9353C39.9201 27.8875 39.873 27.8396 39.873 27.7917C39.873 27.5524 39.873 26.8822 39.873 26.212C40.1086 25.7333 40.25 25.2067 40.3443 24.728C40.5328 24.8716 40.9098 24.7759 41.2869 23.4355C41.6168 22.3345 41.4283 21.9515 41.1455 21.8558C42.041 17.5953 40.0143 17.4517 40.0143 17.4517C40.0143 17.4517 39.7316 16.8772 38.9303 16.3985C38.4119 16.0634 37.6578 15.824 36.668 15.9198C36.3381 15.9198 36.0553 16.0155 35.7725 16.1113C35.3955 16.2549 35.0656 16.3985 34.7828 16.6378C35.6783 18.3133 36.1967 20.1803 36.3381 22.0951C36.5266 24.6323 35.9611 27.1694 34.8299 29.3715L42.2295 36.8872C42.8893 36.6957 43.5492 36.5042 44.209 36.217L46 35.4989ZM32.9447 13.9571C32.9447 13.9092 32.9447 13.8613 32.9447 13.8135C33.1803 13.3348 33.3217 12.8082 33.416 12.3295C33.6045 12.4731 33.9816 12.3774 34.3586 11.037C34.6885 9.93595 34.5 9.55298 34.2172 9.45724C35.1127 5.19675 33.0861 5.05314 33.0861 5.05314C33.0861 5.05314 32.8033 4.47869 32.002 3.99998C31.4836 3.66489 30.7295 3.42553 29.7398 3.52127C29.4098 3.52127 29.127 3.61701 28.8443 3.71276C28.4672 3.85637 28.1373 3.99998 27.8545 4.23933C27.4775 4.47869 27.1475 4.76591 26.8176 5.10101C26.3463 5.57971 25.9221 6.2499 25.7336 7.06371C25.5451 7.7339 25.5451 8.49983 25.8279 9.26576C25.5922 9.26576 25.3566 9.31363 25.3094 9.64872C27.9959 10.1274 30.4467 11.4199 32.4262 13.4305C32.6148 13.5741 32.8033 13.7656 32.9447 13.9571ZM19.2766 5.05314C19.2766 5.05314 18.9939 4.47869 18.1926 3.99998C17.6742 3.66489 16.9201 3.42553 15.9303 3.52127C15.6004 3.52127 15.3176 3.61701 15.0348 3.71276C14.6578 3.85637 14.3279 3.99998 14.0451 4.23933C13.668 4.47869 13.3381 4.76591 13.0082 5.10101C12.5369 5.57971 12.1127 6.2499 11.9242 7.06371C11.7357 7.7339 11.7357 8.49983 12.0184 9.26576C11.6414 9.21789 11.2172 9.45724 11.6414 10.8934C11.9242 11.9465 12.207 12.2337 12.3955 12.2337C12.4898 12.8082 12.6311 13.4305 12.9611 14.005C13.1025 13.8135 13.291 13.622 13.4795 13.4784C15.459 11.3721 17.9098 10.0796 20.5963 9.60085C20.5492 9.50511 20.4549 9.45724 20.4078 9.45724C21.2561 5.19675 19.2766 5.05314 19.2766 5.05314ZM10.7459 37.6052V35.5468C10.7459 34.3979 11.2172 33.3447 12.1127 32.6267C12.3955 32.3873 12.6783 32.1958 12.9139 31.9565C10.7459 29.4672 9.56762 26.3077 9.56762 22.9568C9.56762 20.6111 10.1332 18.3612 11.2643 16.3506C10.7459 16.0155 9.9918 15.7762 9.04918 15.8719C8.71926 15.8719 8.43647 15.9677 8.15369 16.0634C7.77664 16.207 7.44672 16.3506 7.16393 16.59C6.78688 16.8293 6.45697 17.1166 6.12705 17.4517C5.65574 17.9304 5.23156 18.6005 5.04303 19.4143C4.85451 20.0845 4.85451 20.8505 5.1373 21.6164C4.76025 21.5685 4.33607 21.8079 4.76025 23.244C5.04303 24.2972 5.32582 24.5844 5.51434 24.5844C5.60861 25.2067 5.79713 25.829 6.12705 26.4513V27.7917C6.12705 27.8396 6.07992 27.9353 6.03279 27.9353C5.51434 28.1747 2.96926 29.4672 0.659836 31.4299C0.235656 31.765 0 32.2916 0 32.866V35.4989L1.79098 36.217C4.66598 37.3659 7.72951 37.8446 10.7459 37.6052ZM41.5225 38.4669C42.418 39.3764 42.418 40.8604 41.5225 41.8178C40.627 42.7274 39.166 42.7274 38.2234 41.8178L30.2111 33.6798L30.6352 33.249L29.9754 32.5788C25.3566 36.0734 18.8053 35.6904 14.6578 31.4299C10.0861 26.7864 10.0861 19.2229 14.6578 14.5315C19.2295 9.88808 26.6762 9.88808 31.2951 14.5315C35.4898 18.792 35.8668 25.4461 32.4262 30.0895L33.0861 30.7597L33.5102 30.3289L41.5225 38.4669ZM29.2684 16.5421C25.7807 12.9997 20.0779 12.9997 16.5902 16.5421C13.1025 20.0845 13.1025 25.8769 16.5902 29.4193C20.0779 32.9618 25.7807 32.9618 29.2684 29.4193C32.8033 25.829 32.8033 20.0845 29.2684 16.5421Z" fill="#A0BE4A"/>
</svg>
