<svg width="46" height="46" viewBox="0 0 46 46" fill="none" xmlns="http://www.w3.org/2000/svg">
<path d="M22.9177 11.3849L27.7358 6.39673L24.1411 7.41101C22.4518 7.89976 21.0172 9.02567 20.1386 10.5522L8.13869 31.3752C7.63799 32.2445 7.5023 33.2775 7.76147 34.247C8.02064 35.2165 8.65345 36.0431 9.52068 36.545L20.9693 43.1757C20.7196 42.5524 20.5914 41.8869 20.5917 41.2152V17.1678C20.5905 15.0109 21.4244 12.9378 22.9177 11.3849Z" fill="#A0BE4A"/>
<path d="M3.10581 29.5964L6.12656 32.6241C6.22307 31.9148 6.46199 31.2325 6.82889 30.6183C8.58848 27.5906 16.3669 14.0643 20.5884 6.79785C20.1202 7.19145 21.0415 6.32099 3.14357 24.2071C2.78489 24.5567 2.4991 24.9742 2.3028 25.4355C2.1065 25.8967 2.00361 26.3924 2.00009 26.8938C1.99658 27.3953 2.09252 27.8924 2.28234 28.3564C2.47215 28.8203 2.75206 29.2418 3.10581 29.5964Z" fill="#A0BE4A"/>
<path d="M30.1047 25.3577C30.3556 25.3577 30.6009 25.2831 30.8095 25.1434C31.0182 25.0037 31.1808 24.8051 31.2768 24.5727C31.3728 24.3404 31.3979 24.0847 31.349 23.838C31.3 23.5913 31.1792 23.3647 31.0018 23.1869C30.8243 23.0091 30.5983 22.888 30.3522 22.8389C30.1061 22.7898 29.851 22.815 29.6191 22.9113C29.3873 23.0075 29.1892 23.1705 29.0498 23.3796C28.9103 23.5887 28.8359 23.8346 28.8359 24.0861C28.8379 24.4227 28.9722 24.745 29.2097 24.9831C29.4472 25.2211 29.7688 25.3557 30.1047 25.3577Z" fill="#A0BE4A"/>
<path d="M33.9922 31.5873C33.9922 31.8388 34.0666 32.0847 34.206 32.2938C34.3454 32.5029 34.5436 32.6659 34.7754 32.7621C35.0072 32.8584 35.2623 32.8836 35.5084 32.8345C35.7545 32.7854 35.9806 32.6643 36.158 32.4865C36.3355 32.3086 36.4563 32.0821 36.5052 31.8354C36.5542 31.5887 36.5291 31.333 36.433 31.1007C36.337 30.8683 36.1744 30.6697 35.9658 30.53C35.7571 30.3903 35.5118 30.3157 35.2609 30.3157C34.9244 30.3157 34.6017 30.4496 34.3638 30.6881C34.1259 30.9266 33.9922 31.25 33.9922 31.5873Z" fill="#A0BE4A"/>
<path d="M25.8775 45H40.2261C41.2275 45 42.188 44.6013 42.8961 43.8915C43.6042 43.1818 44.002 42.2191 44.002 41.2154V17.1679C43.999 15.4087 43.317 13.7189 42.099 12.4523L37.8624 8.04696C36.9156 9.07986 35.7595 9.89796 34.4716 10.4464C34.3788 10.7079 34.2161 10.9389 34.0012 11.114C33.7863 11.289 33.5275 11.4015 33.2531 11.4392C32.9788 11.4768 32.6994 11.4381 32.4455 11.3272C32.1915 11.2164 31.9729 11.0378 31.8135 10.8108C31.6541 10.5839 31.5599 10.3174 31.5414 10.0404C31.5229 9.76347 31.5808 9.48675 31.7086 9.24052C31.8364 8.99429 32.0293 8.78803 32.2662 8.64427C32.5031 8.50052 32.7749 8.42481 33.0518 8.42543C33.2613 8.42698 33.4682 8.47219 33.6593 8.5582C33.8504 8.6442 34.0216 8.76911 34.1619 8.925C34.626 8.71634 35.0686 8.46283 35.4835 8.16807C35.959 7.80996 36.4036 7.41244 36.8126 6.9797C38.2244 5.33854 39.1458 3.33156 39.4709 1.18923L37.9605 1C37.6567 2.78185 36.891 4.45239 35.7403 5.84431C35.3884 5.48153 34.9675 5.19315 34.5025 4.99623C34.0374 4.79931 33.5377 4.69785 33.0329 4.69785C32.5281 4.69785 32.0284 4.79931 31.5634 4.99623C31.0984 5.19315 30.6775 5.48153 30.3256 5.84431L24.0046 12.4523C22.7866 13.7189 22.1046 15.4087 22.1016 17.1679V41.2154C22.1016 42.2191 22.4994 43.1818 23.2075 43.8915C23.9156 44.6013 24.8761 45 25.8775 45ZM38.0436 31.5873C38.0436 32.1382 37.8806 32.6768 37.5752 33.1348C37.2699 33.5929 36.8358 33.9499 36.328 34.1608C35.8202 34.3716 35.2614 34.4267 34.7223 34.3193C34.1832 34.2118 33.688 33.9465 33.2994 33.5569C32.9107 33.1674 32.646 32.6711 32.5388 32.1307C32.4316 31.5904 32.4866 31.0303 32.697 30.5213C32.9073 30.0124 33.2635 29.5773 33.7205 29.2713C34.1775 28.9652 34.7148 28.8018 35.2645 28.8018C36.0016 28.8018 36.7084 29.0953 37.2296 29.6177C37.7508 30.1401 38.0436 30.8485 38.0436 31.5873ZM35.9819 21.7473L37.2053 22.6556L29.1626 33.9338L27.9316 33.0482L35.9819 21.7473ZM30.1066 21.278C30.6562 21.278 31.1935 21.4414 31.6505 21.7474C32.1076 22.0535 32.4638 22.4885 32.6741 22.9975C32.8845 23.5065 32.9395 24.0666 32.8323 24.6069C32.725 25.1472 32.4603 25.6436 32.0717 26.0331C31.683 26.4227 31.1878 26.688 30.6487 26.7954C30.1096 26.9029 29.5509 26.8478 29.0431 26.6369C28.5352 26.4261 28.1012 26.0691 27.7958 25.611C27.4905 25.1529 27.3275 24.6144 27.3275 24.0635C27.3334 23.3287 27.6289 22.626 28.1494 22.1085C28.6699 21.591 29.3734 21.3007 30.1066 21.3007V21.278Z" fill="#A0BE4A"/>
</svg>
