<svg width="46" height="46" viewBox="0 0 46 46" fill="none" xmlns="http://www.w3.org/2000/svg">
<path d="M36.9917 30.6594C36.1941 30.6594 35.4073 30.3153 34.855 29.6569C34.3644 29.0758 34.1312 28.3356 34.1969 27.5749C34.2612 26.8137 34.6178 26.1262 35.1995 25.6386L35.9141 25.0381C35.6998 24.8941 35.4962 24.7296 35.3214 24.5224V24.5218C34.8321 23.9393 34.5989 23.199 34.6647 22.4378C34.7304 21.6772 35.0869 20.9897 35.6673 20.5028L37.1738 19.2385C36.5307 19.1371 35.9204 18.822 35.4675 18.284V18.2834C34.9782 17.7016 34.745 16.962 34.8093 16.2007C34.8751 15.4401 35.2315 14.7526 35.8119 14.265L36.8735 13.3737L36.7744 3.89843C36.7637 2.84047 35.938 2.02773 34.8562 2L21.4562 2.14359C20.4106 2.15446 19.5676 3.02471 19.5782 4.08268L19.912 35.9098C19.916 36.4225 20.1184 36.902 20.4816 37.261C20.8449 37.6193 21.3395 37.8163 21.8301 37.8089L35.2301 37.6653C35.7368 37.6599 36.2113 37.4553 36.5652 37.089C36.9204 36.7232 37.1135 36.239 37.1067 35.727L37.0566 30.6497C37.0349 30.6501 37.0136 30.6594 36.9917 30.6594ZM24.8717 5.24695H24.4133C24.1104 5.24695 23.8637 4.99836 23.8637 4.69226C23.8637 4.38616 24.1104 4.13757 24.4133 4.13757H24.8717C25.1746 4.13757 25.4212 4.38616 25.4212 4.69226C25.4212 4.99836 25.1746 5.24695 24.8717 5.24695ZM30.8633 35.5331C30.8633 36.123 30.3874 36.6025 29.803 36.6025H27.1959C26.6115 36.6025 26.1357 36.123 26.1357 35.5331V33.9577C26.1357 33.3678 26.6115 32.8876 27.1959 32.8876H29.803C30.3874 32.8876 30.8633 33.3678 30.8633 33.9577V35.5331ZM31.4061 5.24695H26.6852C26.3823 5.24695 26.1357 4.99836 26.1357 4.69226C26.1357 4.38616 26.3823 4.13757 26.6852 4.13757H31.4061C31.709 4.13757 31.9557 4.38616 31.9557 4.69226C31.9557 4.99836 31.7091 5.24695 31.4061 5.24695Z" fill="#A0BE4A"/>
<path d="M18.8129 35.9212L18.5806 13.7696C18.5782 13.7758 18.5768 13.7813 18.5743 13.7875C18.0315 14.9464 16.6281 18.1215 16.4927 19.2634C16.4713 19.4422 16.6186 19.9921 16.7607 20.5231C17.309 22.5733 18.3304 26.3897 16.3908 30.6919C16.2649 30.971 15.9378 31.0936 15.6629 30.9662C15.3868 30.8395 15.2649 30.5104 15.3908 30.2314C17.1669 26.2936 16.2486 22.8625 15.7005 20.813C15.4927 20.0375 15.356 19.5248 15.4016 19.1326C15.5866 17.5763 17.4886 13.5159 17.569 13.3438C19.3356 8.86694 17.3665 6.94415 16.4376 6.32717C16.3223 6.24924 16.1897 6.22152 16.073 6.24587C15.4135 6.39555 15.2567 7.25101 15.2393 7.9418C15.2152 9.04987 14.9176 10.1477 14.3788 11.1163L9.71946 19.499C9.30932 20.3375 9.05999 21.2641 8.99159 22.2265L8.82002 24.616C8.68062 26.5638 8.06805 28.4697 7.04664 30.127L2 38.3242L12.7622 43.9999C13.0169 43.5136 13.4136 43.0002 13.9645 42.4461C15.573 40.8267 17.7124 39.6658 20.1532 39.0882C20.4642 39.0148 20.7607 38.9054 21.0637 38.8121C20.5608 38.6817 20.0947 38.4309 19.7136 38.054C19.1413 37.4878 18.821 36.7299 18.8129 35.9212Z" fill="#A0BE4A"/>
<path d="M27.2342 35.533L29.7636 35.4938V33.9578L27.1953 33.997L27.2342 35.533Z" fill="#A0BE4A"/>
<path d="M38.6654 25.2107C38.2778 25.3995 37.8711 25.5237 37.4581 25.5237C37.3393 25.5237 37.2224 25.5008 37.1048 25.4856C37.0798 25.5045 37.0539 25.5216 37.0292 25.542L35.8992 26.4922C35.544 26.7895 35.3282 27.2081 35.2879 27.6708C35.2477 28.134 35.3898 28.5844 35.6887 28.9386C36.2571 29.6159 37.2302 29.7473 37.9567 29.2455L39.1738 28.4036C39.5772 28.1239 39.844 27.7019 39.923 27.2136C40.0021 26.7259 39.8842 26.2396 39.5907 25.8448C39.3573 25.529 39.0347 25.3195 38.6654 25.2107Z" fill="#A0BE4A"/>
<path d="M39.6881 20.2064C39.4911 19.9409 39.2029 19.7729 38.8758 19.7343C38.5528 19.6978 38.2324 19.7912 37.9804 20.0032L36.368 21.3564C36.0128 21.6537 35.7969 22.0717 35.7567 22.5349C35.7165 22.9982 35.8586 23.4493 36.1562 23.8042C36.7258 24.4788 37.6977 24.6102 38.4255 24.1103L40.1493 22.9156C40.4201 22.7294 40.597 22.4469 40.6507 22.1218C40.7042 21.796 40.6252 21.4709 40.4295 21.2067L39.6881 20.2064Z" fill="#A0BE4A"/>
<path d="M43.7897 5.89503C43.5671 5.47175 43.1945 5.16218 42.7402 5.02271C42.2898 4.88455 41.81 4.93194 41.3891 5.16021L37.9062 7.05677L37.9502 11.2548L43.1034 8.28587C43.9397 7.80433 44.2413 6.75385 43.7897 5.89503Z" fill="#A0BE4A"/>
<path d="M39.8352 13.9683C39.6381 13.7028 39.3512 13.5356 39.0255 13.4962C38.6932 13.4576 38.3808 13.5524 38.1275 13.7644L36.515 15.1182C36.1611 15.4149 35.944 15.8335 35.9051 16.2968C35.8649 16.76 36.007 17.2104 36.3046 17.5653C36.873 18.2412 37.8447 18.3726 38.5726 17.8714L40.2991 16.6773C40.5671 16.4911 40.7454 16.21 40.7977 15.8849C40.8513 15.5585 40.7736 15.2334 40.5766 14.9686L39.8352 13.9683Z" fill="#A0BE4A"/>
</svg>
