<svg width="46" height="46" viewBox="0 0 46 46" fill="none" xmlns="http://www.w3.org/2000/svg">
<path d="M11 43.0998C11 44.7012 12.3215 46 13.9509 46H32.0491C33.6785 46 35 44.7007 35 43.0998V6.80918H11V43.0998ZM22.9998 44.2526C21.8351 44.2526 20.8874 43.3212 20.8874 42.1771C20.8874 41.0329 21.8351 40.1015 22.9998 40.1015C24.1644 40.1015 25.1121 41.0329 25.1121 42.1771C25.1121 43.3212 24.1644 44.2526 22.9998 44.2526ZM18.7682 23.2315C19.0564 22.9483 19.5231 22.9483 19.8113 23.2315L22.2606 25.6387V18.6096C22.2606 18.2094 22.5911 17.8845 22.9983 17.8845C23.4055 17.8845 23.736 18.2094 23.736 18.6096V25.6411L26.1862 23.233C26.4744 22.9497 26.9411 22.9497 27.2293 23.233C27.5176 23.5162 27.5176 23.975 27.2293 24.2582L23.5206 27.9033C23.5191 27.9047 23.5171 27.9052 23.5157 27.9066C23.4483 27.9719 23.3686 28.0241 23.2801 28.0599C23.2747 28.0623 23.2698 28.0628 23.2653 28.0647C23.1827 28.0961 23.0932 28.115 22.9998 28.1155C22.9993 28.1155 22.9993 28.1155 22.9988 28.1155C22.9988 28.1155 22.9988 28.1155 22.9983 28.1155H22.9978C22.9024 28.1155 22.8114 28.0961 22.7273 28.0637C22.7243 28.0628 22.7219 28.0623 22.7189 28.0613C22.6255 28.0236 22.5414 27.968 22.4715 27.8979L18.7672 24.2572C18.4805 23.974 18.4805 23.5148 18.7682 23.2315ZM32.0486 0H13.9509C12.3215 0 11 1.29832 11 2.9002V5.83858H35V2.9002C34.9995 1.29832 33.6785 0 32.0486 0ZM17.8278 3.60301C17.4585 3.60301 17.158 3.30767 17.158 2.94418C17.158 2.58069 17.4585 2.28535 17.8278 2.28535C18.1972 2.28535 18.4977 2.58069 18.4977 2.94418C18.4977 3.30767 18.1972 3.60301 17.8278 3.60301ZM25.9816 3.42755H20.0184C19.7464 3.42755 19.5266 3.21148 19.5266 2.94418C19.5266 2.67688 19.7464 2.46082 20.0184 2.46082H25.9816C26.2536 2.46082 26.4734 2.67688 26.4734 2.94418C26.4734 3.21148 26.2531 3.42755 25.9816 3.42755Z" fill="#A0BE4A"/>
</svg>
