<svg width="46" height="46" viewBox="0 0 46 46" fill="none" xmlns="http://www.w3.org/2000/svg">
<path d="M35.4891 8.27389H34.2523H31.5474H29.9943V6.84834C29.9674 3.06753 26.8403 0 23 0C19.1592 0 16.0326 3.06803 16.0057 6.84884V8.27439H14.4526H10.5109L8.5 34.1997C8.5 36.5425 10.4262 38.4419 12.8021 38.4419H13.4165V22.7178C13.4165 20.1486 15.5363 18.0583 18.1418 18.0583H27.8577C30.4632 18.0583 32.583 20.1486 32.5835 22.7178V25.1166V37.4832V38.4414H33.1979C35.5738 38.4414 37.5 36.542 37.5 34.1992L35.4891 8.27389ZM17.051 13.2768C16.4736 13.2768 16.0052 12.815 16.0052 12.2456C16.0052 11.6763 16.4736 11.2145 17.051 11.2145C17.6283 11.2145 18.0967 11.6763 18.0967 12.2456C18.0967 12.8155 17.6288 13.2768 17.051 13.2768ZM18.0967 8.27389V6.84834H18.0992C18.0992 4.17968 20.2936 2.01586 23 2.01586C25.7069 2.01586 27.9007 4.17918 27.9007 6.84834H27.9033V8.27389H23H18.0967ZM28.9014 13.2768C28.324 13.2768 27.8556 12.815 27.8556 12.2456C27.8556 11.6763 28.324 11.2145 28.9014 11.2145C29.4787 11.2145 29.9471 11.6763 29.9471 12.2456C29.9471 12.8155 29.4792 13.2768 28.9014 13.2768ZM30.7039 37.4832V25.1166V22.7178C30.7039 21.1743 29.423 19.9112 27.8577 19.9112H18.1418C16.5765 19.9112 15.2956 21.1743 15.2956 22.7178V43.1934C15.2956 44.7369 16.5765 46 18.1418 46H27.8577C29.423 46 30.7039 44.7369 30.7039 43.1934V37.4832ZM24.2227 44.8199H21.4823C21.0758 44.8199 20.7463 44.495 20.7463 44.0941C20.7463 43.6932 21.0758 43.3683 21.4823 43.3683H24.2227C24.6292 43.3683 24.9587 43.6932 24.9587 44.0941C24.9587 44.4945 24.6292 44.8199 24.2227 44.8199ZM29.1939 24.5773V25.1166V37.4622V38.8937V41.4594C29.1939 41.8558 28.8649 42.1797 28.4629 42.1797H17.5366C17.1346 42.1797 16.8061 41.8553 16.8061 41.4594V24.4518C16.8061 24.0554 17.1351 23.7315 17.5366 23.7315H28.4629C28.8649 23.7315 29.1939 24.0559 29.1939 24.4518V24.5773ZM24.9374 35.5788C24.6429 35.9317 24.2602 36.1686 23.8126 36.2896C23.6174 36.342 23.5302 36.443 23.5393 36.6429C23.548 36.8389 23.5383 37.0358 23.5378 37.2323C23.5373 37.4077 23.4471 37.5012 23.2717 37.5057C23.0573 37.5112 22.8429 37.5107 22.6284 37.5072C22.4404 37.5037 22.3522 37.3987 22.3496 37.2178C22.3481 37.0743 22.3471 36.9309 22.3456 36.7869C22.3425 36.4705 22.3324 36.457 22.0232 36.409C21.6278 36.347 21.24 36.2586 20.8781 36.0856C20.5937 35.9497 20.5648 35.8797 20.6464 35.5858C20.7073 35.3674 20.7681 35.1484 20.837 34.932C20.9171 34.6806 20.9856 34.6491 21.2203 34.7695C21.6202 34.975 22.0455 35.0899 22.4906 35.1449C22.778 35.1804 23.0578 35.1514 23.3239 35.037C23.8197 34.8235 23.8972 34.2562 23.4785 33.9163C23.3356 33.8003 23.1739 33.7154 23.0046 33.6419C22.5701 33.4535 22.116 33.3095 21.7054 33.0671C21.0393 32.6737 20.6165 32.1339 20.6662 31.3341C20.722 30.4299 21.2405 29.8661 22.081 29.5647C22.4277 29.4402 22.4292 29.4452 22.4313 29.0878C22.4318 28.9669 22.4297 28.8459 22.4328 28.7249C22.4399 28.4555 22.4865 28.4095 22.7577 28.4015C22.8418 28.399 22.9265 28.401 23.0106 28.401C23.59 28.4 23.59 28.4 23.5926 28.9724C23.5941 29.3762 23.5941 29.3782 24.0027 29.4412C24.3154 29.4892 24.614 29.5802 24.9029 29.7061C25.0626 29.7756 25.1224 29.8851 25.0737 30.051C25.0007 30.2975 24.9333 30.5459 24.8532 30.7903C24.7777 31.0217 24.7027 31.0552 24.4776 30.9477C24.0255 30.7318 23.5505 30.6418 23.0507 30.6688C22.9194 30.6758 22.7917 30.6933 22.67 30.7453C22.2381 30.9318 22.1682 31.4016 22.5357 31.6915C22.7217 31.8385 22.9341 31.9444 23.1551 32.0349C23.5373 32.1908 23.9226 32.3408 24.2855 32.5387C25.4402 33.1705 25.752 34.6031 24.9374 35.5788Z" fill="#A0BE4A"/>
</svg>
