<svg width="100" height="100" viewBox="0 0 100 100" fill="none" xmlns="http://www.w3.org/2000/svg">
<g clip-path="url(#clip0)">
<path d="M49.8622 100C22.995 100 0.210651 77.3063 0.00127554 50.2656C-0.04565 43.7434 1.20261 37.2767 3.67369 31.2405C6.14477 25.2042 9.78951 19.7186 14.3966 15.1016C19.034 10.3521 24.5689 6.57135 30.6797 3.97889C36.7905 1.38644 43.3555 0.0339679 49.9935 1.89863e-05C56.5114 -0.00569495 62.9661 1.27836 68.9856 3.7782C75.0051 6.27804 80.4705 9.94426 85.0669 14.5656C89.7381 19.1223 93.4621 24.5577 96.0249 30.559C98.5876 36.5603 99.9385 43.0091 99.9997 49.5344C100.125 77.1875 77.9028 99.7188 50.2685 100H49.8622ZM50.0185 2.61721C43.7281 2.65389 37.5078 3.93964 31.7184 6.39981C25.929 8.85997 20.6859 12.4456 16.2935 16.9485C11.9242 21.317 8.46547 26.5093 6.11778 32.2244C3.77009 37.9395 2.58014 44.0638 2.6169 50.2422C2.81378 75.8672 24.4075 97.3563 49.8482 97.3563H50.1888C76.3919 97.1188 97.4825 75.7547 97.381 49.5485C97.2622 37.061 92.1653 25.1391 83.22 16.4235C78.8749 12.0394 73.7027 8.5615 68.0034 6.19128C62.3041 3.82106 56.191 2.6057 50.0185 2.61564V2.61721ZM11.2185 64.625V35.4141H18.3247V38.0313H14.5544V62.0594H18.3232V64.6766L11.2185 64.625ZM35.3357 49.7313C35.3357 55.0438 32.1013 58.0938 27.7185 58.0938C23.3357 58.0938 20.4153 54.6781 20.4153 50.0063C20.4153 45.125 23.4778 41.6828 27.9528 41.6828C32.4278 41.6828 35.3341 45.2688 35.3341 49.7297L35.3357 49.7313ZM23.4794 49.9656C23.4794 53.2 25.1044 55.7469 27.8903 55.7469C30.6763 55.7469 32.2747 53.1297 32.2747 49.8313C32.2747 46.8344 30.7966 44.0078 27.8903 44.0078C24.9841 44.0078 23.4372 46.761 23.4372 50.0313L23.4794 49.9656ZM37.8122 42.2344C39.2039 41.9941 40.614 41.876 42.0263 41.8813C43.6122 41.725 45.2075 42.0797 46.581 42.8891C47.6278 43.5063 48.2607 44.6438 48.2294 45.8578C48.2111 46.6341 47.9483 47.3847 47.4783 48.0028C47.0084 48.6209 46.3553 49.0749 45.6122 49.3C47.4794 49.6797 48.82 51.3219 48.8185 53.2266C48.8282 53.8524 48.6953 54.4722 48.43 55.0391C48.1648 55.6059 47.7739 56.105 47.2872 56.4985C46.1622 57.4938 44.2903 57.9766 41.3966 57.9766C40.2069 57.9824 39.018 57.9125 37.8372 57.7672L37.8122 42.2344ZM40.6919 48.5031H42.17C44.17 48.5031 45.2982 47.561 45.2982 46.2125C45.2982 44.8641 44.1732 44.025 42.3294 44.025C41.7773 44.0062 41.2248 44.0454 40.681 44.1422L40.6919 48.5031ZM40.6919 55.8063C41.2013 55.8594 41.7122 55.8813 42.2232 55.8719C44.0982 55.8719 45.731 55.1656 45.731 53.2547C45.731 51.3438 44.1341 50.6375 42.1325 50.6375H40.695L40.6919 55.8063ZM54.52 42.025H57.4107V52.3375C57.4107 56.7219 55.2903 58.1875 52.1763 58.1875C51.3434 58.1806 50.5172 58.0392 49.7294 57.7688L50.0825 55.425C50.6631 55.6063 51.2666 55.7031 51.8747 55.7125C53.5232 55.7125 54.4919 54.9531 54.4919 52.2047L54.52 42.025ZM65.645 50.6235V52.6266H59.6247V50.625L65.645 50.6235ZM79.6872 57.4266C78.3857 57.9453 76.9903 58.186 75.5903 58.1328C70.5513 58.1328 67.4888 54.9766 67.4888 50.1641C67.4294 49.039 67.6088 47.9141 68.0152 46.8633C68.4216 45.8125 69.0457 44.8596 69.8467 44.0673C70.6476 43.2749 71.6071 42.661 72.6622 42.2659C73.7173 41.8709 74.8441 41.7036 75.9685 41.775C77.3132 41.72 78.6537 41.9611 79.895 42.4813L79.27 44.7844C78.2857 44.3661 77.2254 44.1565 76.156 44.1688C72.9216 44.1688 70.5935 46.1969 70.5935 50.0188C70.5935 53.5 72.6482 55.7531 76.1294 55.7531C77.2103 55.77 78.2836 55.5696 79.2857 55.1641L79.6872 57.4266ZM88.7685 35.336V64.625H81.6622V62.0078H85.431V37.9688H81.6622V35.3516L88.7685 35.336Z" fill="#999999"/>
</g>
<defs>
<clipPath id="clip0">
<rect width="100" height="100" fill="white"/>
</clipPath>
</defs>
</svg>
