<svg width="170" height="38" viewBox="0 0 170 38" fill="none" xmlns="http://www.w3.org/2000/svg">
<path d="M47.1133 1.55054H54.9539V17.2092L69.4133 1.55054H78.8831L64.3729 16.7485L79.545 37.3711H70.126L59.078 22.122L54.9539 26.4201V37.3708H47.1133V1.55054Z" fill="#646464"/>
<path d="M75.375 23.81V23.7082C75.375 15.8275 81.6884 9.43091 90.1908 9.43091C98.6424 9.43091 104.905 15.7253 104.905 23.6057V23.7082C104.905 31.5887 98.5915 37.9848 90.0891 37.9848C81.6375 37.9848 75.375 31.6907 75.375 23.81V23.81ZM97.2678 23.81V23.7082C97.2678 19.6652 94.3657 16.1346 90.0891 16.1346C85.6595 16.1346 83.0121 19.5627 83.0121 23.6057V23.7082C83.0121 27.7507 85.9142 31.2814 90.1908 31.2814C94.6204 31.2814 97.2678 27.853 97.2678 23.81V23.81Z" fill="#646464"/>
<path d="M107.044 29.5927V16.595H103.785V9.94293H107.044V2.93196H114.783V9.94267H121.198V16.595H114.783V28.3136C114.783 30.1043 115.546 30.9746 117.277 30.9746C118.612 30.981 119.926 30.6463 121.096 30.0018V36.245C119.466 37.2173 117.583 37.8314 114.986 37.8314C110.251 37.8314 107.044 35.9379 107.044 29.5927V29.5927ZM123.419 0.0151367H131.158V37.3707H123.419V0.0151367ZM133.955 0.0151367H142.101V6.92333H133.955V0.0151367ZM134.159 9.94267H141.898V37.3707H134.159L134.159 9.94267ZM144.842 9.94267H152.581V13.8315C154.363 11.5288 156.654 9.43084 160.574 9.43084C166.429 9.43084 169.84 13.3199 169.84 19.6143V37.3707H162.101V22.0704C162.101 18.3861 160.37 16.4927 157.417 16.4927C154.464 16.4927 152.581 18.3861 152.581 22.0704V37.3707H144.842L144.842 9.94267Z" fill="#646464"/>
<path d="M17.8903 1.53247L0 20.4419V37.3462L17.8644 19.3595L35.6328 1.53247H17.8903Z" fill="url(#paint0_linear)"/>
<path d="M0 37.346L17.8644 19.3594L35.6328 37.346H0Z" fill="url(#paint1_linear)"/>
<path d="M0 1.53247H17.8903L0 20.4419V1.53247Z" fill="url(#paint2_linear)"/>
<defs>
<linearGradient id="paint0_linear" x1="-5.99911" y1="34.4595" x2="27.3269" y2="1.30159" gradientUnits="userSpaceOnUse">
<stop offset="0.173" stop-color="#CECECE"/>
<stop offset="0.536458" stop-color="#999999"/>
</linearGradient>
<linearGradient id="paint1_linear" x1="11.3721" y1="43.8074" x2="27.6158" y2="27.6456" gradientUnits="userSpaceOnUse">
<stop offset="0.296" stop-color="#CECECE"/>
<stop offset="1" stop-color="#999999"/>
</linearGradient>
<linearGradient id="paint2_linear" x1="-30.3956" y1="853.289" x2="819.564" y2="49.1379" gradientUnits="userSpaceOnUse">
<stop offset="0.296" stop-color="#CECECE"/>
<stop offset="1" stop-color="#808080"/>
<stop offset="1" stop-color="#808080"/>
</linearGradient>
</defs>
</svg>
