<svg width="100" height="100" viewBox="0 0 100 100" fill="none" xmlns="http://www.w3.org/2000/svg">
<g clip-path="url(#clip0)">
<path d="M84.5312 78.5937L100 37.6563L53.2812 27.0312L47.1875 44.5312L84.5312 78.5937Z" fill="#808080"/>
<path d="M100 80.1562L76.4063 100L29.375 87.8125L42.0313 65L100 80.1562Z" fill="url(#paint0_linear)"/>
<path d="M13.75 49.6875L1.875 15.4687L54.8438 0L50.625 44.375L13.75 49.6875Z" fill="url(#paint1_linear)"/>
<path d="M87.1875 57.8125L72.3437 32.5L72.6562 32.3438L54.8437 0L0 59.2188V100L99.6875 80.1562L87.1875 57.8125Z" fill="url(#paint2_linear)"/>
<path d="M81.25 18.75H18.75V81.25H81.25V18.75Z" fill="#999999"/>
<path d="M47.9688 69.5312H24.5312V73.4375H47.9688V69.5312Z" fill="white"/>
<path d="M34.8437 26.875H40L50.9375 52.6562H45L42.6562 46.875H31.875L29.5312 52.6562H23.75L34.8437 26.875ZM40.7812 42.0312L37.3437 33.75L33.9063 42.0312H40.7812Z" fill="white"/>
<path d="M49.5311 40.0001C49.4883 38.2033 49.8107 36.4164 50.4787 34.7478C51.1467 33.0792 52.1464 31.5635 53.4173 30.2926C54.6883 29.0217 56.2039 28.0219 57.8725 27.3539C59.5412 26.6859 61.328 26.3636 63.1249 26.4064C67.9686 26.4064 70.9374 27.9689 73.4374 30.4689L69.8436 34.6876C67.8124 32.8126 65.7811 31.7189 63.1249 31.7189C58.7499 31.7189 55.6249 35.3126 55.6249 39.8439C55.6249 44.3751 58.7499 47.9689 63.1249 47.9689C66.0936 47.9689 67.9686 46.7189 69.9999 44.8439L73.5936 48.5939C70.9374 51.4064 67.9686 53.2814 62.9686 53.2814C61.2051 53.3257 59.4508 53.0136 57.8107 52.3638C56.1706 51.7141 54.6786 50.74 53.4239 49.4999C52.1693 48.2598 51.1778 46.7793 50.5089 45.1469C49.84 43.5146 49.5074 41.764 49.5311 40.0001" fill="white"/>
</g>
<defs>
<linearGradient id="paint0_linear" x1="29.4531" y1="82.5" x2="100" y2="82.5" gradientUnits="userSpaceOnUse">
<stop offset="0.19" stop-color="#CECECE"/>
<stop offset="0.9" stop-color="#808080"/>
</linearGradient>
<linearGradient id="paint1_linear" x1="125.292" y1="-33820.3" x2="3721.87" y2="-33820.3" gradientUnits="userSpaceOnUse">
<stop offset="0.19" stop-color="#CECECE"/>
<stop offset="0.9" stop-color="#808080"/>
</linearGradient>
<linearGradient id="paint2_linear" x1="65.5234" y1="103.172" x2="15.9766" y2="34.0313" gradientUnits="userSpaceOnUse">
<stop offset="0.09" stop-color="#CECECE"/>
<stop offset="0.9" stop-color="#808080"/>
</linearGradient>
<clipPath id="clip0">
<rect width="100" height="100" fill="white"/>
</clipPath>
</defs>
</svg>
