<svg width="89" height="100" viewBox="0 0 89 100" fill="none" xmlns="http://www.w3.org/2000/svg">
<g clip-path="url(#clip0)">
<path d="M87.8677 74.9999C88.5661 73.7922 89 72.4313 89 71.2093V28.7906C89 27.5686 88.5666 26.208 87.868 25.0002L44.5 50.0001L87.8677 74.9999Z" fill="#AFAFAF"/>
<path d="M48.3543 99.0832L85.1468 77.874C86.2066 77.263 87.1699 76.2079 87.8682 74.9999L44.5005 50L1.13281 75.0002C1.83114 76.2079 2.79473 77.2633 3.85429 77.874L40.6468 99.0832C42.7662 100.305 46.2349 100.305 48.3543 99.0832Z" fill="#999999"/>
<path d="M87.868 24.9999C87.1694 23.7918 86.2058 22.7367 85.1462 22.1257L48.3538 0.916509C46.2343 -0.305503 42.7657 -0.305503 40.6462 0.916509L3.85376 22.1257C1.73405 23.3475 0 26.3467 0 28.7905V71.2092C0 72.4312 0.433657 73.7921 1.13228 74.9998L44.5 50L87.868 24.9999Z" fill="#C0C0C0"/>
<path d="M44.4987 79.6209C28.1404 79.6209 14.832 66.333 14.832 49.9999C14.832 33.6668 28.1404 20.3789 44.4987 20.3789C55.0542 20.3789 64.8986 26.0505 70.1898 35.1801L57.3508 42.5982C54.7026 38.0284 49.7776 35.1894 44.4987 35.1894C36.3194 35.1894 29.6654 41.8332 29.6654 49.9999C29.6654 58.1663 36.3194 64.8104 44.4987 64.8104C49.7782 64.8104 54.7032 61.9715 57.3516 57.4008L70.1906 64.8186C64.8995 73.9491 55.0548 79.6209 44.4987 79.6209Z" fill="white"/>
<path d="M74.1662 48.3544H70.8697V45.0632H67.5738V48.3544H64.2773V51.6455H67.5738V54.9369H70.8697V51.6455H74.1662V48.3544Z" fill="white"/>
<path d="M86.5295 48.3544H83.233V45.0632H79.9371V48.3544H76.6406V51.6455H79.9371V54.9369H83.233V51.6455H86.5295V48.3544Z" fill="white"/>
</g>
<defs>
<clipPath id="clip0">
<rect width="89" height="100" fill="white"/>
</clipPath>
</defs>
</svg>
