<svg width="176" height="47" viewBox="0 0 176 47" fill="none" xmlns="http://www.w3.org/2000/svg">
<g clip-path="url(#clip0)">
<path d="M46.6206 13.0182C46.6179 12.5455 46.6127 12.073 46.5997 11.5998C46.5724 10.5704 46.5121 9.53162 46.3306 8.5132C46.1464 7.47895 45.8453 6.51728 45.3709 5.57776C44.9051 4.6551 44.2962 3.81078 43.5699 3.0786C42.8438 2.34642 42.0062 1.73271 41.0906 1.26295C40.1594 0.785201 39.2052 0.481788 38.1802 0.296132C37.1694 0.112612 36.139 0.0521515 35.117 0.0242952C34.6478 0.0114749 34.1791 0.00609358 33.71 0.00316549C33.1533 -3.68512e-10 32.5961 0 32.0396 0H14.5844C14.0273 0 13.4708 0 12.9142 0.00324463C12.445 0.00617271 11.9757 0.0115541 11.5072 0.0243743C11.2517 0.0313384 10.9957 0.0403601 10.7396 0.0527846C9.97117 0.0901374 9.20161 0.158591 8.44389 0.296211C7.67511 0.435493 6.94614 0.640933 6.23694 0.936511C6.00057 1.03496 5.76631 1.14353 5.53347 1.26295C4.84673 1.61527 4.20379 2.04855 3.61902 2.55202C3.4241 2.71987 3.23561 2.89548 3.05411 3.07852C2.32764 3.8107 1.71878 4.65502 1.25302 5.57768C0.778545 6.5172 0.477878 7.47888 0.293553 8.51312C0.112211 9.53154 0.0519204 10.5703 0.0244444 11.5997C0.0115699 12.073 0.00615316 12.5454 0.00309154 13.0181C-0.0004411 13.5795 2.99184e-05 14.141 2.99184e-05 14.7022V32.2976C2.99184e-05 32.8594 -0.000519603 33.4203 0.00309154 33.9821C0.00615316 34.4548 0.0115699 34.9273 0.0244444 35.3997C0.0519204 36.4297 0.112132 37.4687 0.293553 38.4866C0.477878 39.5206 0.778545 40.4831 1.25302 41.4224C1.71878 42.3453 2.32764 43.1894 3.05411 43.9212C3.78003 44.6537 4.61781 45.2674 5.53355 45.7374C6.46483 46.2153 7.41888 46.5183 8.44413 46.7039C9.45431 46.8872 10.4855 46.9482 11.5072 46.9757C11.9757 46.9883 12.445 46.9939 12.9143 46.9966C13.4708 47.0006 14.0273 47.0001 14.5845 47.0001H32.0396C32.5962 47.0001 33.1534 47.0006 33.71 46.9966C34.1791 46.9939 34.6478 46.9883 35.117 46.9757C36.139 46.9482 37.1694 46.8871 38.1802 46.7039C39.2052 46.5183 40.1594 46.2152 41.0906 45.7374C42.0062 45.2674 42.8438 44.6537 43.5699 43.9212C44.2962 43.1893 44.9052 42.3453 45.3709 41.4224C45.8453 40.4831 46.1464 39.5206 46.3306 38.4866C46.5121 37.4687 46.5724 36.4297 46.5997 35.3997C46.6126 34.9273 46.6178 34.4549 46.6206 33.9821C46.6242 33.4203 46.6239 32.8594 46.6239 32.2976V14.7022C46.624 14.141 46.6242 13.5795 46.6207 13.0182H46.6206Z" fill="#999999"/>
<path d="M36.9445 29.0126C36.9434 29.0112 36.9424 29.0102 36.9412 29.0088C36.9928 28.8319 37.046 28.656 37.0912 28.4747C39.0263 20.7027 34.3034 11.5139 26.3111 6.67627C29.8134 11.4624 31.3619 17.2593 29.9861 22.3296C29.8634 22.7818 29.7159 23.2158 29.5528 23.6376C29.3759 23.5204 29.1529 23.3874 28.8535 23.221C28.8535 23.221 20.9035 18.2727 12.287 9.5207C12.0609 9.29097 16.8817 16.4666 22.3527 22.2935C19.7751 20.8352 12.5916 15.5665 8.04394 11.3709C8.60264 12.3102 9.26717 13.2147 9.99764 14.0854C13.7952 18.9404 18.7476 24.9304 24.6809 29.5307C20.512 32.1025 14.6215 32.3025 8.75651 29.5334C7.30585 28.848 5.94209 28.0211 4.67969 27.0816C7.16235 31.0848 10.986 34.5386 15.6395 36.5551C21.1893 38.9594 26.7084 38.7964 30.8188 36.5945L30.8156 36.5993C30.8344 36.5873 30.8583 36.5743 30.8777 36.5622C31.0465 36.4707 31.214 36.3776 31.3779 36.2792C33.3528 35.2458 37.2536 34.1974 39.3475 38.3041C39.8603 39.3092 40.9499 33.9829 36.944 29.0142L36.9445 29.0126Z" fill="white"/>
<path d="M67.5056 32.3109C67.9664 36.4357 71.869 39.1401 77.2888 39.1401C82.4383 39.1401 86.151 36.4357 86.151 32.6937C86.151 29.4699 83.9018 27.502 78.7251 26.1912L73.7116 24.9073C66.5029 23.104 63.2505 19.8253 63.2505 14.4167C63.2505 7.75089 69.023 3.1333 77.2351 3.1333C85.2022 3.1333 90.8661 7.77762 91.0568 14.4718H85.7724C85.3654 10.3738 82.0592 7.85961 77.1001 7.85961C72.1943 7.85961 68.7798 10.4006 68.7798 14.1158C68.7798 17.0116 70.8941 18.7333 76.0974 20.0721L80.2708 21.1646C88.3469 23.1594 91.6535 26.3283 91.6535 32.0386C91.6535 39.3056 85.9349 43.8686 76.8288 43.8686C68.3736 43.8686 62.601 39.3328 62.168 32.3119H67.5069L67.5056 32.3109Z" fill="#646464"/>
<path d="M125.222 43.2118H119.91L113.704 21.4108H113.596L107.417 43.2118H102.106L94.2461 14.6624H99.395L104.869 37.5836H104.978L111.157 14.6624H116.143L122.376 37.5836H122.485L127.96 14.6624H133.054L125.222 43.2118Z" fill="#646464"/>
<path d="M136.484 6.98488C136.484 5.26449 137.894 3.87085 139.601 3.87085C141.336 3.87085 142.745 5.26449 142.745 6.98488C142.745 8.70648 141.336 10.127 139.601 10.127C137.894 10.127 136.484 8.70658 136.484 6.98488ZM137.027 14.6617H142.203V43.2111H137.027V14.6617Z" fill="#646464"/>
<path d="M176.007 18.8701V14.6622H170.533V7.83299H165.383V14.6622H155.489V12.1493C155.515 9.60825 156.491 8.54257 158.822 8.54257C159.58 8.54257 160.339 8.62547 160.963 8.73399V4.63597C160.041 4.49942 159.201 4.41772 158.226 4.41772C152.697 4.41772 150.366 6.74049 150.366 12.0676V14.6622H146.41V18.8701H150.366V43.2119H155.515V18.8701H165.383V35.7267C165.383 41.2452 167.47 43.3753 172.89 43.3753C174.056 43.3753 175.384 43.2936 175.98 43.1571V38.8957C175.627 38.9505 174.597 39.0322 174.028 39.0322C171.617 39.0322 170.533 37.8848 170.533 35.317V18.8699L176.007 18.8701Z" fill="#646464"/>
</g>
<defs>
<clipPath id="clip0">
<rect width="176" height="47" fill="white"/>
</clipPath>
</defs>
</svg>
