<svg width="100" height="100" viewBox="0 0 100 100" fill="none" xmlns="http://www.w3.org/2000/svg">
<g clip-path="url(#clip0)">
<path d="M73.6556 41.9501L74.1744 40.222C75.9025 34.0032 77.6588 27.7845 80.0494 21.7641C81.115 19.0579 82.9291 17.5454 85.7525 17.2141C87.6244 17.011 89.6119 16.8391 90.8775 18.6251C91.7119 19.7501 92.6635 20.411 94.0025 20.6563C94.6353 20.7423 95.2525 20.9157 95.8744 21.1454C96.7088 21.4626 97.026 21.1173 97.2572 20.3391L99.476 12.7954C100.31 9.94539 100.31 9.97352 97.5463 8.99383C96.3947 8.59071 95.3588 8.41571 94.1478 8.93602C92.19 9.74227 90.4041 9.42508 88.8353 7.84227C87.1635 6.17039 85.265 4.87664 82.9916 4.07039C76.4557 1.79539 69.7463 0.789142 62.8635 1.88289C59.551 2.40164 56.3275 3.29383 53.5353 5.28133C53.1322 5.56883 52.8166 5.91414 52.4416 6.26102C56.2431 5.94383 59.8994 5.88602 63.5572 6.37664C66.0338 6.69383 68.251 7.52821 69.8916 9.62977C71.6197 11.8485 72.0228 14.4673 72.2353 17.1173C72.5525 20.8313 71.8603 24.4032 70.8244 27.9454L67.6275 39.2329C67.4838 39.722 67.3681 40.1704 68.0306 40.3266L73.6463 41.9673L73.6556 41.9501ZM55.9447 98.5626C57.7572 98.7063 59.226 97.872 60.1635 96.2595C60.7179 95.2952 61.1344 94.2581 61.401 93.1782L69.6353 58.8548L72.976 44.6016C73.2057 43.6641 72.976 43.3048 72.0853 43.1048L68.4572 42.097C66.2385 41.4345 66.6713 41.5188 66.0103 43.347L49.64 89.9095C49.4103 90.5423 49.2088 91.2345 49.1791 91.897C49.0228 95.8126 51.7728 98.5485 55.9447 98.5782V98.5626ZM0.0822133 29.4813L0.425963 32.0157L2.93065 48.6016L5.37753 65.3204L7.9119 82.1376L9.49628 92.7938C9.6119 93.5438 9.87128 93.8876 10.7463 93.7438L26.4682 91.2391L48.8994 87.7548C49.1869 87.697 49.4182 87.3516 49.6775 87.122C49.3603 86.9657 48.9869 86.6329 48.6978 86.661L36.4603 88.5048L11.6947 92.3923C10.8307 92.536 10.5432 92.3345 10.4447 91.5016L8.90565 80.7454L5.30565 56.9329L1.40565 30.9501C1.2619 30.0001 1.5619 29.5673 2.53065 29.4532L7.5119 28.6751L27.8994 25.3626L62.2806 19.7188L70.026 18.3938C70.3432 18.336 70.5728 17.8751 70.8322 17.6157L69.7963 17.2126C69.7103 17.1845 69.5931 17.2407 69.4791 17.2704L59.8322 18.8829L0.916588 28.5595C0.197838 28.6751 -0.177162 28.8766 0.0822133 29.497V29.4813ZM82.1494 19.922C81.9931 19.922 81.8056 19.922 81.6306 19.8938C81.5447 20.6126 81.2869 21.3626 81.3713 22.0813L82.5228 29.0782L85.6478 47.8532L90.8041 78.6063C90.9197 79.211 90.8041 79.6423 90.0541 79.7579L73.4369 82.3501L65.5775 83.647C65.3478 83.6751 65.1463 84.0501 64.9447 84.2798C65.2322 84.4235 65.4916 84.6829 65.751 84.6829C66.5853 84.6251 67.3916 84.4798 68.1978 84.3657L92.2135 80.5063L82.1353 19.9204L82.1494 19.922ZM60.2931 56.2032C60.9556 55.5407 60.84 55.0516 60.3791 54.5048L54.9947 48.0251L39.8478 29.7407C39.4447 29.2516 39.0978 28.5891 38.9838 27.9548C38.7807 26.7173 39.6166 25.611 40.8275 25.1048C42.1244 24.6157 43.2463 24.961 44.34 26.2563L59.2275 44.0688L62.8556 48.3595C63.4885 47.697 63.4025 47.2079 62.9416 46.661L56.9806 39.5313L44.9728 25.2501C43.3603 23.3782 40.9103 23.2626 39.1291 24.8188C37.3728 26.3454 37.2853 28.5063 38.926 30.4626L57.5853 52.9813L60.2916 56.2063L60.2931 56.2032ZM40.4244 44.0626C40.2213 43.9188 39.9932 43.7188 39.7338 43.6016L33.7728 41.4141C33.14 41.1845 32.8353 41.4141 32.6213 41.961L21.7369 68.711C21.4494 69.3735 21.651 69.6907 22.2557 69.9204L27.8416 72.2235C28.8494 72.6845 29.2525 72.4532 29.6275 71.4454L40.4088 44.061L40.4244 44.0626ZM59.401 56.4329L55.5416 51.511C54.5619 50.0001 53.4682 49.2188 51.6557 50.0001C51.2244 50.1563 50.7181 50.1563 50.2728 50.2298L38.7103 52.2173C38.1057 52.3329 37.5853 52.4766 37.3275 53.197L34.9947 59.561C34.9088 59.7907 34.9088 60.0798 34.851 60.4985L59.3853 56.4673L59.401 56.4329ZM27.0338 53.8704L13.1838 56.1157L14.0744 62.3938C14.19 63.2845 14.5635 63.4016 15.3713 63.2845L22.5119 62.3048C23.2307 62.2188 23.6932 61.9298 23.9807 61.2688L26.6588 55.0501C26.8025 54.7063 26.8619 54.4173 27.0338 53.8688V53.8704Z" fill="#999999"/>
<path d="M77.6554 71.839L68.9882 66.5687C69.1038 67.1155 69.046 67.7499 69.3319 68.0655C69.8811 68.6752 70.5346 69.1821 71.2616 69.5624C72.2413 70.1093 73.2929 70.4999 74.285 70.9734C75.7538 71.6921 76.8194 72.7296 76.8194 74.5155C76.8194 74.803 76.9632 75.0937 77.0788 75.4062L77.3663 75.2624C77.446 75.1861 77.5144 75.0988 77.5694 75.003C79.2975 72.4405 79.4132 69.6187 78.6632 66.7218C77.8288 63.4968 76.3304 60.703 73.1913 59.0905C72.3272 58.6593 71.7804 59.0327 71.1475 59.4655C70.485 59.9265 70.1116 60.4734 70.2835 61.453C70.7444 61.1655 71.1475 60.964 71.435 60.6749C72.1538 59.9249 72.8179 60.0968 73.6225 60.6171C76.7897 62.8359 78.7788 68.4202 77.6538 71.8202L77.6554 71.839ZM19.7491 83.9062C19.8647 83.964 19.9788 84.0218 20.0929 84.0499L28.7335 73.2687L27.7538 72.7499L22.2538 70.5312C21.3897 70.1562 21.1288 70.4155 21.0725 71.3093L20.3116 78.5937L19.7647 83.9062H19.7491ZM38.321 34.2609C36.6491 34.4171 35.5554 35.1249 34.9225 36.5937L33.5975 39.7609C33.31 40.3655 33.3944 40.7405 34.0866 40.9702L39.846 43.1015C40.5366 43.3609 40.8257 43.1296 41.0835 42.5234L42.4663 39.2421C43.071 37.7734 42.81 36.5359 41.4866 35.6718C40.5366 35.0671 39.385 34.7218 38.3194 34.2609H38.321ZM72.0991 54.1296L79.2866 53.1218C79.4897 53.0937 79.7475 52.5749 79.7179 52.3437L78.6819 46.6405C78.6241 46.353 78.135 45.9499 77.8475 45.9499C76.6382 46.0359 75.4288 46.2093 74.2194 46.4109C73.6147 46.4968 73.1835 46.7859 73.5288 47.6484L76.8694 47.2452C77.1288 47.2171 77.6194 47.4484 77.6475 47.6202L78.4819 52.0843L73.1257 52.803C72.4929 52.889 71.9163 53.0327 72.1179 54.128L72.0991 54.1296ZM73.6554 41.9499L68.0694 40.3374C67.4069 40.1343 67.5225 39.7327 67.6663 39.2437L70.8632 27.9562C71.8991 24.414 72.5913 20.8155 72.2741 17.128C72.0444 14.4796 71.6694 11.8874 69.9304 9.64053C68.2897 7.53897 66.071 6.70303 63.596 6.38741C59.9397 5.89835 56.31 5.95616 52.4804 6.27178C52.8554 5.9546 53.171 5.58116 53.5741 5.2921C56.3679 3.3046 59.5929 2.41241 62.9022 1.89366C69.8132 0.799908 76.496 1.83585 83.0304 4.08116C85.3054 4.85928 87.2054 6.18272 88.8741 7.85303C90.4585 9.43741 92.2429 9.75303 94.1866 8.94678C95.396 8.42803 96.4319 8.60303 97.585 9.0046C100.351 9.98428 100.351 9.9546 99.5147 12.8062L97.296 20.3499C97.0663 21.128 96.7491 21.4437 95.9132 21.1562C95.3085 20.9265 94.6757 20.753 94.0413 20.6671C92.6882 20.464 91.7085 19.803 90.9163 18.6358C89.6194 16.8796 87.6632 17.0233 85.7913 17.2249C82.9694 17.5421 81.1554 19.0687 80.0882 21.7749C77.6975 27.7937 75.9413 34.0124 74.2132 40.2327L73.6663 41.9312L73.6554 41.9499ZM55.9444 98.5624C51.7694 98.5343 49.0335 95.828 49.1788 91.8812C49.2069 91.2187 49.4085 90.528 49.6397 89.8937L66.0225 43.3905C66.6554 41.5468 66.2522 41.4905 68.4694 42.1405L72.0975 43.1484C72.9882 43.3515 73.2225 43.7265 72.9882 44.6452L69.6475 58.8984L61.4132 93.2218C61.1466 94.3016 60.7301 95.3388 60.1757 96.303C59.2257 97.8874 57.7569 98.7218 55.9569 98.578L55.9444 98.5624ZM0.0819206 29.4812C-0.177454 28.8765 0.197546 28.6749 0.945983 28.5437L59.86 18.8968L69.5069 17.2843C69.6225 17.2562 69.7366 17.1983 69.8241 17.2265L70.86 17.6296C70.6007 17.889 70.371 18.3483 70.0538 18.4077L62.3085 19.7327L45.7491 22.4202L27.9241 25.3577L7.53661 28.6702L2.55536 29.4483C1.60536 29.564 1.30536 29.9952 1.43036 30.9452L8.90536 80.7374L10.46 91.478C10.5757 92.3124 10.835 92.514 11.71 92.3687L36.4757 88.4812L48.7132 86.6374C49.0007 86.6093 49.3757 86.9249 49.6929 87.0984C49.4335 87.328 49.2038 87.6765 48.9147 87.7312L26.5147 91.2187L10.7929 93.7234C9.90223 93.8671 9.6413 93.5202 9.54286 92.7734L7.95848 82.1171L5.42411 65.2999L2.97723 48.5812L0.0803581 29.4968L0.0819206 29.4812ZM82.1491 19.9218L92.285 80.5655L86.6413 81.503L68.2694 84.4405L65.8225 84.7577C65.5632 84.7859 65.2757 84.4984 65.0163 84.3546C65.2194 84.1249 65.4194 83.7765 65.6491 83.7218L73.5085 82.4249L90.0944 79.8312C90.8444 79.7155 90.9288 79.2843 90.8444 78.6796L88.8132 66.6999L82.5632 29.1499L81.4116 22.153C81.3257 21.4624 81.5679 20.7155 81.671 19.9655C81.8147 19.9374 81.9585 19.9374 82.1319 19.9374L82.1491 19.9218Z" fill="#999999"/>
<path d="M60.293 56.2031L57.5867 52.9781L38.9273 30.4594C37.2867 28.5016 37.3727 26.3703 39.1305 24.8156C40.943 23.2312 43.393 23.3469 44.9742 25.2469L62.943 46.6422C63.4039 47.1891 63.5211 47.6781 62.857 48.3406L59.2289 44.05L44.3414 26.2375C43.2477 24.9406 42.1227 24.5656 40.8289 25.0859C39.5914 25.575 38.7852 26.6984 38.9852 27.9359C39.0711 28.5687 39.4164 29.2328 39.8492 29.7219L60.3805 54.4875C60.8414 55.0344 60.9852 55.5234 60.2945 56.1859L60.293 56.2031ZM40.4242 44.0625L40.0805 45.0422L29.6117 71.5047C29.2086 72.5125 28.8336 72.7422 27.8258 72.2828L22.2398 69.9797C21.607 69.7203 21.4336 69.4328 21.7211 68.7703L32.6055 42.0203C32.8352 41.4422 33.1242 41.2141 33.757 41.4734L39.718 43.6609C39.9773 43.7187 40.1789 43.9203 40.4086 44.0641L40.4242 44.0625ZM33.6273 42.625L32.2445 46.0516L23.318 67.9078C22.9742 68.7719 23.1617 69.1172 23.9508 69.4047L27.3492 70.7875C28.2133 71.2187 28.5586 71.0469 28.9039 70.1547L39.0133 44.5844L33.6289 42.6266L33.6273 42.625ZM59.4008 56.4328L34.8961 60.4641C34.9539 60.0609 34.9539 59.8016 35.0398 59.5266L37.3727 53.1625C37.632 52.4437 38.1508 52.2719 38.7555 52.1828L50.318 50.1953C50.7789 50.1094 51.268 50.1375 51.7008 49.9656C53.5133 49.2469 54.5805 50.0234 55.5883 51.4922C56.6539 53.1328 57.9789 54.6172 59.4164 56.4141L59.4008 56.4328ZM36.4789 59.0531L57.2977 55.6156L53.8711 51.325C53.668 51.0953 53.2086 50.9812 52.8633 51.0078L49.8977 51.4687L39.6477 53.2547C39.2164 53.3406 38.582 53.5984 38.4383 53.9453C37.7195 55.5578 37.1414 57.2266 36.4805 59.0703L36.4789 59.0531ZM27.0336 53.8703L26.6586 54.9953L23.9805 61.2141C23.693 61.9047 23.2617 62.1641 22.5117 62.25L15.3711 63.2297C14.5648 63.3453 14.1898 63.2297 14.0742 62.3391L13.1836 56.0609L27.0336 53.8734V53.8703ZM25.2477 55.3391L15.4586 56.9219C15.1414 56.9797 14.6242 57.5 14.6242 57.7562C14.7102 58.9937 14.9414 60.2328 15.2023 61.4703C15.2799 61.6136 15.3914 61.7358 15.527 61.8262C15.6626 61.9167 15.8183 61.9726 15.9805 61.9891L21.8242 61.1828C22.1992 61.125 22.7617 60.9234 22.8898 60.6359L25.2336 55.3234L25.2477 55.3391ZM77.6539 71.8391C78.7789 68.4406 76.7898 62.8547 73.6227 60.6953C72.8445 60.1484 72.1852 60.0047 71.4352 60.7531C71.1477 61.0406 70.7445 61.2141 70.2836 61.5312C70.1273 60.5234 70.4867 60.0047 71.1477 59.5437C71.7805 59.0828 72.3289 58.7375 73.1914 59.1687C76.3164 60.7812 77.8273 63.575 78.6633 66.8C79.4133 69.6797 79.2961 72.5031 77.5695 75.0812C77.5117 75.1672 77.4539 75.2375 77.3664 75.3406C77.3086 75.3984 77.2508 75.3984 77.0789 75.4844C76.993 75.1672 76.8195 74.8797 76.8195 74.5937C76.8195 72.8078 75.7539 71.7719 74.2852 71.0516L71.2617 69.6406C70.543 69.2375 69.8508 68.75 69.332 68.1437C69.0445 67.8266 69.1023 67.1937 68.9883 66.6469L77.6555 71.8437L77.6539 71.8391ZM19.7492 83.9062L20.268 78.5937L21.0461 71.3078C21.132 70.4172 21.3633 70.1562 22.2273 70.5297L27.7273 72.7484C28.0148 72.8641 28.2742 73.0359 28.707 73.2672L20.0664 84.0484C19.9805 84.0203 19.8633 83.9625 19.7492 83.9047V83.9062ZM21.218 80.5656C21.3039 80.5937 21.3742 80.5937 21.4477 80.6234L26.9195 73.6547L22.1695 71.7828L21.2195 80.5641L21.218 80.5656ZM38.3211 34.2609C39.3867 34.7219 40.5398 35.0672 41.4883 35.6984C42.8133 36.5625 43.0727 37.8 42.468 39.2687L41.0852 42.55C40.8555 43.1547 40.5383 43.3844 39.8477 43.1281L34.0883 40.9969C33.3977 40.7672 33.3383 40.3922 33.5992 39.7875L34.9242 36.6203C35.557 35.1234 36.6227 34.4328 38.3227 34.2766L38.3211 34.2609ZM34.8086 39.9906L39.618 41.7469C39.7742 41.8047 40.1961 41.5437 40.3086 41.3156L41.4336 38.7531C41.8086 37.9469 41.6367 37.1687 40.9445 36.7656C40.1383 36.2766 39.2461 35.9312 38.3242 35.7C37.3164 35.4703 36.4805 35.9297 36.0789 36.9094L34.8289 39.9906H34.8086ZM72.0992 54.1312C71.8695 53.0375 72.4742 52.8937 73.107 52.8062L78.4633 52.0875L77.6289 47.6234C77.6008 47.4672 77.1102 47.2203 76.8508 47.2484L73.5102 47.6516C73.193 46.7609 73.6258 46.5 74.2008 46.4141L77.8289 45.9531C78.1164 45.925 78.607 46.3562 78.6633 46.6437L79.6992 52.3469C79.7273 52.5766 79.4398 53.0969 79.268 53.125L72.0805 54.1328L72.0992 54.1312Z" fill="#999999"/>
<path d="M33.6292 42.6564L39.0136 44.6142L28.9042 70.1845C28.5605 71.0751 28.1855 71.2501 27.3495 70.8173C26.2558 70.2704 25.1042 69.8376 23.9511 69.4345C23.1449 69.147 22.9714 68.8017 23.3183 67.9376L32.2449 46.0814L33.6277 42.6548L33.6292 42.6564ZM36.4808 59.0548L38.4105 53.9579C38.5542 53.6142 39.1886 53.3532 39.6199 53.2673L49.8699 51.4814L52.8355 51.0204C53.1527 50.9923 53.6417 51.1064 53.8433 51.3376L57.2699 55.6282L36.4792 59.0548H36.4808ZM25.2511 55.3392L22.9074 60.6095C22.7636 60.897 22.2167 61.0985 21.8417 61.1564L15.998 61.9626C15.7386 61.9907 15.248 61.6751 15.2199 61.4439C14.9605 60.2345 14.7308 58.997 14.6417 57.7298C14.6136 57.4704 15.1308 56.9517 15.4761 56.8954L25.2667 55.3407L25.2511 55.3392ZM21.2199 80.5626L22.1995 71.7813L26.9495 73.6532L21.4777 80.622C21.3887 80.6168 21.3011 80.5973 21.2183 80.5642L21.2199 80.5626ZM34.8105 39.9907L36.0605 36.9392C36.4917 35.9595 37.298 35.5017 38.3058 35.7298C39.2317 35.9389 40.117 36.2989 40.9261 36.7954C41.6167 37.2267 41.7902 37.9767 41.4152 38.7829L40.2902 41.3454C40.1745 41.5485 39.7714 41.8345 39.5995 41.7767L34.7902 39.9907H34.8105Z" fill="#999999"/>
</g>
<defs>
<clipPath id="clip0">
<rect width="100" height="100" fill="white"/>
</clipPath>
</defs>
</svg>
