<svg width="157" height="85" viewBox="0 0 157 85" fill="none" xmlns="http://www.w3.org/2000/svg">
<g clip-path="url(#clip0)">
<path fill-rule="evenodd" clip-rule="evenodd" d="M102.342 62.6381C102.342 63.213 100.957 63.9998 100.506 64.3024C99.5294 65.1203 98.3101 65.5881 97.0401 65.6319C95.7702 65.6758 94.5219 65.2932 93.4923 64.5445C93.072 64.0727 92.7546 63.5177 92.5605 62.9153C92.3663 62.3129 92.2998 61.6764 92.365 61.0466C92.4302 60.4168 92.6257 59.8075 92.9391 59.2582C93.2525 58.7089 93.6767 58.2316 94.1845 57.857C95.34 57.2469 96.6135 56.896 97.917 56.8283C99.3768 56.678 100.844 56.6172 102.311 56.6465V62.6985L102.342 62.6381ZM88.3152 44.4822L89.1278 47.6897C90.5123 47.3568 91.3251 46.8726 93.3719 46.449C95.0437 46.0949 96.7612 46.0133 98.4588 46.207C99.1507 46.221 99.8249 46.4297 100.405 46.8095C100.985 47.1892 101.447 47.7247 101.74 48.3553C102.036 49.0685 102.219 49.8241 102.281 50.5945V53.197C102.281 53.197 97.1343 53.56 96.2614 53.6508C91.2046 54.3165 86.1178 57.0702 86.9004 63.455C86.9709 65.162 87.7034 66.7735 88.9411 67.9443C90.1788 69.115 91.8233 69.7519 93.5224 69.7188C95.3632 69.9863 97.2417 69.724 98.9403 68.9623C99.677 68.6382 100.391 68.2641 101.077 67.8427C101.701 67.4106 102.295 66.9355 102.853 66.4206L103.395 69.1439H107.489C107.489 68.3268 107.489 58.1293 107.489 57.0399V50.9879C107.635 49.2616 107.257 47.5314 106.405 46.0255C103.636 41.5773 97.616 41.7891 92.6194 42.9995C91.0656 43.316 89.5651 43.8561 88.1646 44.6031L88.3152 44.4822Z" fill="#999999"/>
<path fill-rule="evenodd" clip-rule="evenodd" d="M151.703 62.9707C151.342 63.1825 150.951 63.5457 150.56 63.818C149.36 64.7635 147.941 65.388 146.436 65.6335C145.63 65.7529 144.807 65.6348 144.066 65.2937C143.326 64.9526 142.7 64.403 142.263 63.7115C141.827 63.0199 141.599 62.216 141.608 61.3971C141.617 60.5782 141.861 59.7795 142.312 59.0975C143.878 56.5254 148.784 56.6463 151.703 56.6463V62.9707V62.9707ZM137.707 44.4213C137.888 45.5146 138.17 46.5884 138.55 47.6289C139.302 47.6289 140.988 46.7514 142.794 46.3883C145.473 45.8739 149.837 45.42 151.101 48.2947C151.687 49.8258 151.874 51.4819 151.643 53.1059C150.648 53.2652 149.641 53.3361 148.633 53.3177C145.898 53.3056 143.194 53.9051 140.717 55.0729C139.172 55.7738 137.904 56.9728 137.113 58.4801C136.323 59.9874 136.055 61.7168 136.353 63.3943C136.423 65.096 137.151 66.7028 138.383 67.8727C139.614 69.0427 141.25 69.6833 142.944 69.6582C145.607 69.9948 148.299 69.3263 150.499 67.7821C151.143 67.3522 151.747 66.866 152.305 66.3295L152.817 69.0832H156.941V50.9273C157.086 49.1817 156.709 47.4322 155.857 45.904C153.178 41.4861 146.978 41.7887 142.102 42.8781C140.543 43.1761 139.04 43.7173 137.647 44.4819L137.707 44.4213Z" fill="#999999"/>
<path fill-rule="evenodd" clip-rule="evenodd" d="M119.164 69.144H125.725C125.936 69.144 126.388 68.0245 126.538 67.7824C126.689 67.5404 126.96 66.7839 127.2 66.2694C127.441 65.755 128.043 64.242 128.434 63.2435C130.008 58.8535 131.334 54.3779 132.408 49.8382C132.678 48.7488 133.943 43.4534 133.943 42.6969H129.006C127.953 42.6969 128.374 42.5457 128.103 44.7244C127.792 46.9877 127.35 49.2307 126.779 51.442C126.388 53.0155 123.588 63.0013 123.047 63.546L121.632 58.1899C121.12 56.4349 120.609 54.7101 120.067 52.955L117.659 45.2085C117.358 44.331 117.117 43.4232 116.786 42.6062H110.977C110.977 43.1206 114.799 55.0128 115.04 55.86C115.732 58.1295 116.425 60.2174 117.117 62.4264C117.809 64.6354 118.562 66.9049 119.164 69.0836V69.144Z" fill="#999999"/>
<path fill-rule="evenodd" clip-rule="evenodd" d="M77.4164 42.0915V65.0285C77.4164 69.2951 76.032 74.1066 71.7578 75.5288C72.0287 76.0735 73.8647 77.9496 74.3463 78.5548C75.9583 78.1214 77.4509 77.3245 78.7108 76.2247C79.9704 75.1453 80.995 73.8166 81.7208 72.3212C83.1592 68.4609 83.6748 64.3148 83.2258 60.2173C83.2258 51.1393 83.2258 42.0614 83.2258 32.9834C82.5636 32.9834 78.6807 32.9834 77.567 32.9834V41.8798L77.4164 42.0915Z" fill="#999999"/>
<path fill-rule="evenodd" clip-rule="evenodd" d="M30.9733 46.0557L29.1674 43.4534C28.5955 42.5759 28.0237 41.6379 27.4819 40.6696C26.2831 38.7917 25.3511 36.7547 24.7127 34.6176C23.7194 30.593 26.1875 28.0815 28.3848 25.5396C28.7159 25.1462 29.1072 24.7529 29.4684 24.3897C31.7559 21.9387 34.9164 19.0337 37.3545 16.6432C39.906 14.2961 41.4406 11.037 41.6288 7.56525C41.6288 5.50758 41.388 1.05946 39.9432 0.272705C40.5439 3.05621 40.2921 5.95735 39.2208 8.59417C37.8341 11.8052 35.5689 14.5545 32.689 16.5222C30.4316 18.2773 26.6692 21.4243 24.8632 23.2701C23.1204 24.7776 21.6798 26.6057 20.619 28.6563C20.1503 29.8707 20.0317 31.1934 20.2766 32.4726C20.5215 33.7518 21.1201 34.9357 22.0037 35.8885C22.6372 36.8614 23.3203 37.8007 24.0505 38.7026C24.8631 39.7617 25.5855 40.4879 26.2477 41.3352C26.9099 42.1825 27.7828 43.0298 28.5353 43.8771C29.2944 44.7463 30.1088 45.565 30.9733 46.3281V46.0557Z" fill="#999999"/>
<path fill-rule="evenodd" clip-rule="evenodd" d="M57.4597 72.6239C58.3626 74.0461 57.4596 74.6512 56.2857 75.1959C50.9581 77.7075 32.9886 78.2219 27.36 78.2219C21.6589 78.3827 15.9552 78.0079 10.3234 77.1023C9.45054 77.1023 5.50756 76.3156 5.32697 75.2565C5.14637 74.1974 5.89885 74.1066 6.26005 73.8948C7.88983 73.0541 9.65117 72.5015 11.4672 72.2608C12.1158 72.1774 12.7591 72.0561 13.3937 71.8977C10.7148 71.5043 2.22662 72.9567 0.360443 75.5893C-0.813445 77.2839 1.14307 78.0404 2.46746 78.6153C9.1836 80.0518 16.0395 80.7219 22.9051 80.6125C30.9417 80.6125 50.2657 80.6126 57.3391 75.7408C57.7605 75.4684 58.5732 74.8631 58.6635 74.2882C58.7538 73.7132 57.9112 72.8963 57.4597 72.7148V72.6239Z" fill="#616161"/>
<path fill-rule="evenodd" clip-rule="evenodd" d="M34.3139 49.3538C35.7772 48.516 37.1319 47.4997 38.3472 46.3278C39.6974 45.1251 40.5911 43.489 40.8756 41.6981C40.8114 39.773 40.2061 37.9054 39.1298 36.3118C36.7519 32.6503 34.8256 30.5927 38.0764 26.5379C39.1665 25.2458 40.3758 24.0602 41.6882 22.9974C43.3437 21.6357 46.0226 19.7899 47.949 18.5492L50.1462 17.1572C48.2885 17.6404 46.4678 18.2574 44.6982 19.0032C42.9948 19.6613 41.3446 20.4503 39.762 21.3634C34.8858 24.2078 30.0699 28.656 32.0564 34.7988C33.3808 38.9444 37.2336 41.4256 36.9627 44.5424C36.4661 46.298 35.6042 47.9277 34.4342 49.3235L34.3139 49.3538Z" fill="#999999"/>
<path fill-rule="evenodd" clip-rule="evenodd" d="M44.4886 69.5976C43.1087 69.0378 41.7793 68.3596 40.5154 67.5702C39.7328 67.0861 40.0336 67.1163 39.0403 67.3887C34.0733 68.2562 29.024 68.5505 23.9905 68.2662C22.8768 68.2662 19.8067 68.2661 19.1746 67.086C18.5425 65.9058 19.3251 65.9664 19.5358 65.6033C16.7365 66.1479 13.9071 68.6294 17.79 70.445C22.1544 72.6237 31.365 72.6537 36.1208 71.7762C38.9135 71.2725 41.6613 70.544 44.3379 69.5976H44.4886Z" fill="#616161"/>
<path fill-rule="evenodd" clip-rule="evenodd" d="M45.7815 60.5197C44.6682 60.2106 43.6392 59.652 42.7715 58.8858C42.1394 58.3411 42.35 58.4621 41.0257 58.7042C36.2398 59.491 22.0027 60.8829 17.9392 59.2186C17.3974 58.9765 16.7954 58.6436 16.7653 58.0384C16.7352 57.4332 17.3371 56.8885 17.608 56.4951C14.3271 56.8885 11.1968 60.0658 15.5612 61.5788C22.4133 63.1239 29.4761 63.4923 36.4504 62.6682C39.5809 62.2446 42.6647 61.5252 45.6609 60.5197H45.7815Z" fill="#616161"/>
<path fill-rule="evenodd" clip-rule="evenodd" d="M49.0925 49.6867C48.384 49.7532 47.6802 49.8646 46.9855 50.0197L44.8486 50.3222C40.454 50.9274 35.6079 51.4419 31.2133 51.684C27.7819 51.8958 14.8692 52.3194 12.9428 50.5038C12.9428 49.717 13.7254 49.2027 14.2973 48.8698C16.4705 47.9063 18.7275 47.1466 21.0396 46.6003C16.4007 46.8359 11.8651 48.0635 7.73558 50.2013C4.72561 52.0774 9.69212 52.8035 11.5583 53.0758C22.0781 54.3183 32.7206 54.0433 43.163 52.2589C44.3274 52.2584 45.4704 51.9449 46.4739 51.351C47.2866 50.8063 48.34 50.2617 49.0925 49.6867V49.6867Z" fill="#616161"/>
<path fill-rule="evenodd" clip-rule="evenodd" d="M11.7109 82.4277C15.9422 83.7024 20.3052 84.4843 24.714 84.7577C29.6639 85.121 34.6334 85.121 39.5833 84.7577C46.1144 84.6653 52.5689 83.3306 58.6061 80.824C59.9004 80.1583 62.2483 78.5545 62.459 77.0415C62.0789 77.2765 61.7168 77.5393 61.3754 77.8281C51.7435 84.4853 29.7405 83.8802 18.3629 83.0329L11.7109 82.4882V82.4277Z" fill="#616161"/>
<path fill-rule="evenodd" clip-rule="evenodd" d="M51.172 47.0842C52.2661 46.7137 53.4341 46.6192 54.5731 46.8092C55.712 46.9991 56.787 47.4676 57.7036 48.1735C58.4658 49.027 58.9263 50.1097 59.0134 51.2534C59.1005 52.3971 58.8094 53.5377 58.1853 54.4979C56.2442 57.4127 53.6584 59.8361 50.6302 61.5786C50.1838 61.8262 49.7517 62.0991 49.3359 62.3957C51.9568 61.7558 54.4713 60.7365 56.8006 59.3697C59.0462 58.1375 60.8554 56.2341 61.9778 53.9229C62.4989 52.6192 62.5161 51.1665 62.026 49.8507C61.5358 48.5348 60.5738 47.4508 59.3291 46.8118C58.0379 46.0489 56.5496 45.6907 55.0548 45.783C53.6453 45.7561 52.2713 46.2273 51.172 47.1145V47.0842Z" fill="#616161"/>
</g>
<defs>
<clipPath id="clip0">
<rect width="157" height="85" fill="white"/>
</clipPath>
</defs>
</svg>
