<svg width="1920" height="348" viewBox="0 0 1920 348" fill="none" xmlns="http://www.w3.org/2000/svg">
<path d="M1423.39 218.772L1418.75 197.805L1418.99 197.863L1441.46 203.746L1423.39 218.772ZM1419.16 198.226L1423.58 218.215L1440.8 203.895L1419.16 198.226Z" fill="#CCCCCC"/>
<path d="M1418.59 198.473L1418.82 197.955L1448.84 129.883L1459.21 169.122L1459.12 169.187L1418.59 198.473ZM1448.77 130.803L1419.33 197.54L1458.85 168.979L1448.77 130.803Z" fill="#CCCCCC"/>
<path d="M1451.47 132.225C1448.92 135.756 1443.61 131.94 1446.15 128.402C1448.7 124.865 1454.01 128.7 1451.47 132.225Z" fill="#CCCCCC"/>
<path d="M1420.46 199.093C1419.02 201.095 1416.02 198.937 1417.46 196.935C1418.9 194.933 1421.9 197.09 1420.46 199.093Z" fill="#CCCCCC"/>
<path d="M1460.8 170.332C1459.1 172.691 1455.56 170.151 1457.26 167.786C1458.96 165.421 1462.5 167.974 1460.8 170.332Z" fill="#CCCCCC"/>
<path d="M1425.15 219.697C1423.55 221.913 1420.23 219.522 1421.82 217.306C1423.42 215.09 1426.74 217.474 1425.15 219.697Z" fill="#CCCCCC"/>
<path d="M1443.91 205.815C1441.24 209.534 1435.67 205.53 1438.34 201.81C1441.01 198.091 1446.58 202.102 1443.91 205.815Z" fill="#CCCCCC"/>
<path d="M1292.84 193.408L1247.39 160.765L1286.14 159.812V159.936L1292.84 193.408ZM1248.31 161.011L1292.38 192.689L1285.9 160.085L1248.31 161.011Z" fill="#CCCCCC"/>
<path d="M1249.52 162.061C1247.92 164.283 1244.59 161.886 1246.19 159.663C1247.79 157.441 1251.12 159.858 1249.52 162.061Z" fill="#CCCCCC"/>
<path d="M1307.62 126.838C1305.81 129.372 1302.02 126.644 1303.84 124.117C1305.66 121.59 1309.44 124.312 1307.62 126.838Z" fill="#CCCCCC"/>
<path opacity="0.64" d="M1214.94 130.138C1214.94 132.729 1211.05 132.729 1211.05 130.138C1211.05 127.546 1214.94 127.539 1214.94 130.138Z" fill="#C8C8C8"/>
<path opacity="0.64" d="M1215.67 109.578C1215.68 109.802 1215.65 110.026 1215.57 110.236C1215.5 110.447 1215.38 110.64 1215.22 110.803C1215.07 110.967 1214.89 111.097 1214.68 111.186C1214.48 111.275 1214.25 111.32 1214.03 111.32C1213.81 111.32 1213.58 111.275 1213.38 111.186C1213.17 111.097 1212.99 110.967 1212.83 110.803C1212.68 110.64 1212.56 110.447 1212.49 110.236C1212.41 110.026 1212.38 109.802 1212.39 109.578C1212.38 109.355 1212.41 109.131 1212.49 108.92C1212.56 108.709 1212.68 108.516 1212.83 108.353C1212.99 108.19 1213.17 108.06 1213.38 107.971C1213.58 107.882 1213.81 107.836 1214.03 107.836C1214.25 107.836 1214.48 107.882 1214.68 107.971C1214.89 108.06 1215.07 108.19 1215.22 108.353C1215.38 108.516 1215.5 108.709 1215.57 108.92C1215.65 109.131 1215.68 109.355 1215.67 109.578V109.578Z" fill="#C8C8C8"/>
<path opacity="0.64" d="M1218.19 76.6447C1218.19 77.0674 1218.02 77.4728 1217.72 77.7718C1217.43 78.0707 1217.02 78.2386 1216.6 78.2386C1216.18 78.2386 1215.77 78.0707 1215.47 77.7718C1215.17 77.4728 1215 77.0674 1215 76.6447C1215 76.2219 1215.17 75.8165 1215.47 75.5176C1215.77 75.2187 1216.18 75.0508 1216.6 75.0508C1217.02 75.0508 1217.43 75.2187 1217.72 75.5176C1218.02 75.8165 1218.19 76.2219 1218.19 76.6447Z" fill="#C8C8C8"/>
<path opacity="0.64" d="M1220.59 95.6807C1220.59 96.057 1220.44 96.418 1220.17 96.6841C1219.91 96.9502 1219.55 97.0997 1219.17 97.0997C1218.79 97.0997 1218.43 96.9502 1218.17 96.6841C1217.9 96.418 1217.75 96.057 1217.75 95.6807C1217.75 95.4944 1217.79 95.3098 1217.86 95.1377C1217.93 94.9655 1218.03 94.8091 1218.17 94.6774C1218.3 94.5456 1218.45 94.4411 1218.63 94.3698C1218.8 94.2985 1218.98 94.2617 1219.17 94.2617C1219.36 94.2617 1219.54 94.2985 1219.71 94.3698C1219.88 94.4411 1220.04 94.5456 1220.17 94.6774C1220.3 94.8091 1220.41 94.9655 1220.48 95.1377C1220.55 95.3098 1220.59 95.4944 1220.59 95.6807V95.6807Z" fill="#C8C8C8"/>
<path opacity="0.64" d="M1227.71 157.916C1227.69 158.255 1227.54 158.572 1227.29 158.804C1227.04 159.035 1226.71 159.164 1226.37 159.164C1226.03 159.164 1225.71 159.035 1225.46 158.804C1225.21 158.572 1225.06 158.255 1225.04 157.916C1225.06 157.577 1225.21 157.26 1225.46 157.028C1225.71 156.797 1226.03 156.668 1226.37 156.668C1226.71 156.668 1227.04 156.797 1227.29 157.028C1227.54 157.26 1227.69 157.577 1227.71 157.916Z" fill="#C8C8C8"/>
<path opacity="0.64" d="M1236.45 141.975C1236.45 142.329 1236.31 142.669 1236.06 142.919C1235.81 143.17 1235.47 143.31 1235.12 143.31C1234.77 143.31 1234.43 143.17 1234.18 142.919C1233.93 142.669 1233.79 142.329 1233.79 141.975C1233.79 141.621 1233.93 141.282 1234.18 141.032C1234.43 140.781 1234.77 140.641 1235.12 140.641C1235.47 140.641 1235.81 140.781 1236.06 141.032C1236.31 141.282 1236.45 141.621 1236.45 141.975Z" fill="#C8C8C8"/>
<path opacity="0.64" d="M1237.42 126.539C1237.42 128.93 1233.83 128.93 1233.83 126.539C1233.83 124.148 1237.42 124.148 1237.42 126.539Z" fill="#C8C8C8"/>
<path opacity="0.64" d="M1243.82 68.4147C1243.84 68.6209 1243.81 68.8276 1243.74 69.0221C1243.67 69.2166 1243.56 69.3948 1243.42 69.5456C1243.28 69.6964 1243.11 69.8166 1242.92 69.8987C1242.73 69.9809 1242.52 70.0233 1242.32 70.0233C1242.11 70.0233 1241.91 69.9809 1241.72 69.8987C1241.53 69.8166 1241.36 69.6964 1241.22 69.5456C1241.08 69.3948 1240.97 69.2166 1240.9 69.0221C1240.83 68.8276 1240.8 68.6209 1240.81 68.4147C1240.84 68.0323 1241.01 67.6737 1241.29 67.4117C1241.57 67.1497 1241.93 67.0039 1242.32 67.0039C1242.7 67.0039 1243.07 67.1497 1243.35 67.4117C1243.63 67.6737 1243.8 68.0323 1243.82 68.4147V68.4147Z" fill="#C8C8C8"/>
<path opacity="0.64" d="M1246.89 156.374C1246.89 156.632 1246.79 156.879 1246.6 157.061C1246.42 157.244 1246.17 157.346 1245.92 157.346C1245.66 157.346 1245.41 157.244 1245.23 157.061C1245.05 156.879 1244.95 156.632 1244.95 156.374C1244.95 156.116 1245.05 155.869 1245.23 155.687C1245.41 155.505 1245.66 155.402 1245.92 155.402C1246.17 155.402 1246.42 155.505 1246.6 155.687C1246.79 155.869 1246.89 156.116 1246.89 156.374V156.374Z" fill="#C8C8C8"/>
<path opacity="0.64" d="M1260.12 88.4769C1260.12 91.6388 1255.38 91.6388 1255.38 88.4769C1255.38 85.315 1260.12 85.315 1260.12 88.4769Z" fill="#C8C8C8"/>
<path opacity="0.64" d="M1265.9 102.88C1265.9 105.517 1261.94 105.517 1261.94 102.88C1261.94 100.243 1265.9 100.243 1265.9 102.88Z" fill="#C8C8C8"/>
<path opacity="0.64" d="M1266.24 81.792C1266.24 82.1357 1266.1 82.4653 1265.86 82.7083C1265.62 82.9513 1265.29 83.0878 1264.94 83.0878C1264.6 83.0878 1264.27 82.9513 1264.03 82.7083C1263.78 82.4653 1263.65 82.1357 1263.65 81.792C1263.65 81.4483 1263.78 81.1187 1264.03 80.8757C1264.27 80.6326 1264.6 80.4961 1264.94 80.4961C1265.29 80.4961 1265.62 80.6326 1265.86 80.8757C1266.1 81.1187 1266.24 81.4483 1266.24 81.792Z" fill="#C8C8C8"/>
<path opacity="0.64" d="M1269.26 150.201C1269.26 150.526 1269.13 150.837 1268.9 151.067C1268.67 151.297 1268.36 151.426 1268.03 151.426C1267.71 151.426 1267.4 151.297 1267.17 151.067C1266.94 150.837 1266.81 150.526 1266.81 150.201C1266.81 150.04 1266.84 149.881 1266.9 149.733C1266.96 149.584 1267.05 149.449 1267.17 149.335C1267.28 149.222 1267.42 149.131 1267.56 149.07C1267.71 149.008 1267.87 148.977 1268.03 148.977C1268.19 148.977 1268.35 149.008 1268.5 149.07C1268.65 149.131 1268.79 149.222 1268.9 149.335C1269.01 149.449 1269.1 149.584 1269.16 149.733C1269.23 149.881 1269.26 150.04 1269.26 150.201V150.201Z" fill="#C8C8C8"/>
<path opacity="0.64" d="M1279.03 188.264C1279.03 188.588 1278.9 188.9 1278.67 189.13C1278.44 189.359 1278.13 189.488 1277.81 189.488C1277.48 189.488 1277.17 189.359 1276.94 189.13C1276.71 188.9 1276.58 188.588 1276.58 188.264C1276.58 187.939 1276.71 187.627 1276.94 187.398C1277.17 187.168 1277.48 187.039 1277.81 187.039C1278.13 187.039 1278.44 187.168 1278.67 187.398C1278.9 187.627 1279.03 187.939 1279.03 188.264V188.264Z" fill="#C8C8C8"/>
<path opacity="0.64" d="M1281.33 94.1401C1281.33 94.5285 1281.17 94.901 1280.9 95.1756C1280.62 95.4502 1280.25 95.6045 1279.86 95.6045C1279.47 95.6045 1279.1 95.4502 1278.83 95.1756C1278.55 94.901 1278.4 94.5285 1278.4 94.1401C1278.4 93.9478 1278.44 93.7574 1278.51 93.5797C1278.58 93.4021 1278.69 93.2407 1278.83 93.1047C1278.96 92.9687 1279.12 92.8609 1279.3 92.7873C1279.48 92.7137 1279.67 92.6758 1279.86 92.6758C1280.06 92.6758 1280.25 92.7137 1280.42 92.7873C1280.6 92.8609 1280.76 92.9687 1280.9 93.1047C1281.03 93.2407 1281.14 93.4021 1281.22 93.5797C1281.29 93.7574 1281.33 93.9478 1281.33 94.1401V94.1401Z" fill="#C8C8C8"/>
<path opacity="0.64" d="M1291.3 122.94C1291.3 123.38 1291.12 123.802 1290.81 124.113C1290.5 124.424 1290.08 124.599 1289.64 124.599C1289.2 124.599 1288.78 124.424 1288.47 124.113C1288.16 123.802 1287.98 123.38 1287.98 122.94C1287.98 122.5 1288.16 122.078 1288.47 121.767C1288.78 121.456 1289.2 121.281 1289.64 121.281C1290.08 121.281 1290.5 121.456 1290.81 121.767C1291.12 122.078 1291.3 122.5 1291.3 122.94Z" fill="#C8C8C8"/>
<path opacity="0.64" d="M1306.56 130.139C1306.56 130.534 1306.4 130.913 1306.12 131.192C1305.84 131.472 1305.46 131.629 1305.07 131.629C1304.67 131.629 1304.29 131.472 1304.01 131.192C1303.74 130.913 1303.58 130.534 1303.58 130.139C1303.58 129.743 1303.74 129.364 1304.01 129.085C1304.29 128.805 1304.67 128.648 1305.07 128.648C1305.46 128.648 1305.84 128.805 1306.12 129.085C1306.4 129.364 1306.56 129.743 1306.56 130.139V130.139Z" fill="#C8C8C8"/>
<path opacity="0.64" d="M1216.63 76.7301L1216.54 76.5681L1239.81 58.9961L1242.4 68.4754L1216.63 76.7301ZM1239.69 59.3136L1217.13 76.3802L1242.23 68.3523L1239.69 59.3136Z" fill="#C8C8C8"/>
<path opacity="0.64" d="M1219.28 95.7812H1219.16L1190.07 93.7013L1216.68 76.4922L1219.28 95.7812ZM1190.65 93.5458L1219.08 95.5739L1216.55 76.7838L1190.65 93.5458Z" fill="#C8C8C8"/>
<path opacity="0.64" d="M1214.08 109.698L1207.69 106.504L1219.08 95.6055L1219.23 95.7091L1214.08 109.698ZM1208.02 106.458L1213.97 109.439L1218.94 96.0331L1208.02 106.458Z" fill="#C8C8C8"/>
<path opacity="0.64" d="M1235.21 142.125L1212.7 130.093L1235.73 126.426V126.542L1235.21 142.125ZM1213.29 130.19L1235.03 141.814L1235.53 126.653L1213.29 130.19Z" fill="#C8C8C8"/>
<path opacity="0.64" d="M1212.89 130.253V130.136L1213.93 109.402L1214.07 109.519L1235.85 126.624L1212.89 130.253ZM1214.11 109.759L1213.1 130.026L1235.4 126.475L1214.11 109.759Z" fill="#C8C8C8"/>
<path opacity="0.64" d="M1226.21 158.023L1235.11 141.824L1235.2 141.941L1246.11 156.487H1245.93L1226.21 158.023ZM1235.14 142.148L1226.54 157.802L1245.74 156.293L1235.14 142.148Z" fill="#C8C8C8"/>
<path opacity="0.64" d="M1235.63 126.738L1219.02 95.6369L1257.96 88.3477L1235.63 126.738ZM1219.31 95.7536L1235.63 126.349L1257.56 88.6133L1219.31 95.7536Z" fill="#C8C8C8"/>
<path opacity="0.64" d="M1263.79 103.047L1264.83 81.5938L1280 94.1507L1263.79 103.047ZM1265 81.9825L1263.99 102.716L1279.67 94.1183L1265 81.9825Z" fill="#C8C8C8"/>
<path opacity="0.64" d="M1235.7 126.61L1235.55 126.494L1257.77 88.2656L1257.84 88.4406L1264.04 102.909L1263.99 102.948L1235.7 126.61ZM1257.73 88.6868L1235.97 126.118L1263.79 102.851L1257.73 88.6868Z" fill="#C8C8C8"/>
<path opacity="0.64" d="M1245.88 156.482L1234.86 141.812L1268.4 150.197L1268.05 150.294L1245.88 156.482ZM1235.36 142.13L1245.96 156.261L1267.68 150.203L1235.36 142.13Z" fill="#C8C8C8"/>
<path opacity="0.64" d="M1267.96 150.451V150.211L1263.79 102.672L1263.95 102.801L1289.77 122.926L1289.71 122.998L1267.96 150.451ZM1264.03 103.099L1268.11 149.958L1289.49 122.965L1264.03 103.099Z" fill="#C8C8C8"/>
<path opacity="0.64" d="M1214.94 130.138C1214.94 132.729 1211.05 132.729 1211.05 130.138C1211.05 127.546 1214.94 127.539 1214.94 130.138Z" fill="#C8C8C8"/>
<path opacity="0.64" d="M1227.71 157.916C1227.69 158.255 1227.54 158.572 1227.29 158.804C1227.04 159.035 1226.71 159.164 1226.37 159.164C1226.03 159.164 1225.71 159.035 1225.46 158.804C1225.21 158.572 1225.06 158.255 1225.04 157.916C1225.06 157.577 1225.21 157.26 1225.46 157.028C1225.71 156.797 1226.03 156.668 1226.37 156.668C1226.71 156.668 1227.04 156.797 1227.29 157.028C1227.54 157.26 1227.69 157.577 1227.71 157.916Z" fill="#C8C8C8"/>
<path opacity="0.64" d="M1237.42 126.539C1237.42 128.93 1233.83 128.93 1233.83 126.539C1233.83 124.148 1237.42 124.148 1237.42 126.539Z" fill="#C8C8C8"/>
<path opacity="0.64" d="M1243.82 68.4147C1243.84 68.6209 1243.81 68.8276 1243.74 69.0221C1243.67 69.2166 1243.56 69.3948 1243.42 69.5456C1243.28 69.6964 1243.11 69.8166 1242.92 69.8987C1242.73 69.9809 1242.52 70.0233 1242.32 70.0233C1242.11 70.0233 1241.91 69.9809 1241.72 69.8987C1241.53 69.8166 1241.36 69.6964 1241.22 69.5456C1241.08 69.3948 1240.97 69.2166 1240.9 69.0221C1240.83 68.8276 1240.8 68.6209 1240.81 68.4147C1240.84 68.0323 1241.01 67.6737 1241.29 67.4117C1241.57 67.1497 1241.93 67.0039 1242.32 67.0039C1242.7 67.0039 1243.07 67.1497 1243.35 67.4117C1243.63 67.6737 1243.8 68.0323 1243.82 68.4147V68.4147Z" fill="#C8C8C8"/>
<path opacity="0.64" d="M1260.12 88.4769C1260.12 91.6388 1255.38 91.6388 1255.38 88.4769C1255.38 85.315 1260.12 85.315 1260.12 88.4769Z" fill="#C8C8C8"/>
<path opacity="0.64" d="M1265.9 102.88C1265.9 105.517 1261.94 105.517 1261.94 102.88C1261.94 100.243 1265.9 100.243 1265.9 102.88Z" fill="#C8C8C8"/>
<path opacity="0.64" d="M1269.26 150.201C1269.26 150.526 1269.13 150.837 1268.9 151.067C1268.67 151.297 1268.36 151.426 1268.03 151.426C1267.71 151.426 1267.4 151.297 1267.17 151.067C1266.94 150.837 1266.81 150.526 1266.81 150.201C1266.81 150.04 1266.84 149.881 1266.9 149.733C1266.96 149.584 1267.05 149.449 1267.17 149.335C1267.28 149.222 1267.42 149.131 1267.56 149.07C1267.71 149.008 1267.87 148.977 1268.03 148.977C1268.19 148.977 1268.35 149.008 1268.5 149.07C1268.65 149.131 1268.79 149.222 1268.9 149.335C1269.01 149.449 1269.1 149.584 1269.16 149.733C1269.23 149.881 1269.26 150.04 1269.26 150.201V150.201Z" fill="#C8C8C8"/>
<path opacity="0.64" d="M1281.33 94.1401C1281.33 94.5285 1281.17 94.901 1280.9 95.1756C1280.62 95.4502 1280.25 95.6045 1279.86 95.6045C1279.47 95.6045 1279.1 95.4502 1278.83 95.1756C1278.55 94.901 1278.4 94.5285 1278.4 94.1401C1278.4 93.9478 1278.44 93.7574 1278.51 93.5797C1278.58 93.4021 1278.69 93.2407 1278.83 93.1047C1278.96 92.9687 1279.12 92.8609 1279.3 92.7873C1279.48 92.7137 1279.67 92.6758 1279.86 92.6758C1280.06 92.6758 1280.25 92.7137 1280.42 92.7873C1280.6 92.8609 1280.76 92.9687 1280.9 93.1047C1281.03 93.2407 1281.14 93.4021 1281.22 93.5797C1281.29 93.7574 1281.33 93.9478 1281.33 94.1401V94.1401Z" fill="#C8C8C8"/>
<path d="M1293.83 298.042L1293.89 297.777L1305.49 241.996L1350.56 277.458L1350.3 277.555L1293.83 298.042ZM1305.68 242.54L1294.25 297.563L1349.93 277.354L1305.68 242.54Z" fill="#CCCCCC"/>
<path d="M1356.02 310.069L1350.06 277.277H1350.23L1367.88 275.586L1367.8 275.806L1356.32 310.147L1356.02 310.069ZM1350.43 277.53L1356.22 309.408L1367.44 275.897L1350.43 277.53Z" fill="#CCCCCC"/>
<path d="M1293.45 297.846L1293.97 297.658L1350.34 277.203V277.385L1356.31 310.235L1356.09 310.189L1293.45 297.846ZM1350.11 277.611L1294.59 297.762L1355.97 309.846L1350.11 277.611Z" fill="#CCCCCC"/>
<path d="M1295.6 298.913C1294.1 300.999 1290.97 298.751 1292.47 296.664C1293.98 294.578 1297.09 296.846 1295.6 298.913Z" fill="#CCCCCC"/>
<path d="M1352.04 278.698C1350.33 281.089 1346.74 278.516 1348.46 276.106C1350.18 273.696 1353.76 276.313 1352.04 278.698Z" fill="#CCCCCC"/>
<path d="M1368.95 276.674C1368.7 277.018 1368.33 277.249 1367.91 277.317C1367.49 277.385 1367.06 277.285 1366.72 277.037C1366.37 276.79 1366.14 276.416 1366.08 275.998C1366.01 275.58 1366.11 275.152 1366.36 274.808C1366.48 274.638 1366.63 274.494 1366.81 274.383C1366.99 274.273 1367.19 274.199 1367.39 274.165C1367.6 274.132 1367.81 274.139 1368.02 274.187C1368.22 274.235 1368.41 274.323 1368.58 274.445C1368.75 274.568 1368.9 274.723 1369.01 274.901C1369.12 275.079 1369.19 275.278 1369.23 275.485C1369.26 275.692 1369.25 275.903 1369.21 276.107C1369.16 276.312 1369.07 276.504 1368.95 276.674Z" fill="#CCCCCC"/>
<path d="M1358.18 311.491C1356.24 314.167 1352.24 311.283 1354.16 308.601C1356.09 305.918 1360.11 308.808 1358.18 311.491Z" fill="#CCCCCC"/>
<path opacity="0.82" d="M1360.07 281.31C1363 282.865 1360.67 287.258 1357.74 285.703C1354.81 284.148 1357.14 279.762 1360.07 281.31Z" fill="#333333"/>
<path opacity="0.6" d="M1339.86 309.631L1339.72 309.702L1307.7 326.775L1328.29 289.668L1339.86 309.631ZM1308.44 326.017L1339.45 309.514L1328.3 290.251L1308.44 326.017Z" fill="#333333"/>
<path opacity="0.86" d="M1387.2 293.769L1387.1 293.924L1363.02 332.444L1358.74 283.285L1387.2 293.769ZM1363.22 331.53L1386.73 293.95L1359.06 283.752L1363.22 331.53Z" fill="#333333"/>
<path opacity="0.94" d="M1359.26 283.277L1339.64 309.843L1328.06 289.841L1328.26 289.796L1359.26 283.277ZM1339.67 309.279L1358.55 283.711L1328.52 290.035L1339.67 309.279Z" fill="#333333"/>
<path opacity="0.91" d="M1340.75 307.523C1343.48 308.968 1341.31 313.063 1338.58 311.618C1335.85 310.173 1338 306.078 1340.75 307.523Z" fill="#333333"/>
<path d="M1682.71 173.872L1664.8 119.102L1692.56 123.786L1683.01 173.852L1682.71 173.872ZM1665.22 119.497L1682.79 173.211L1692.19 124.052L1665.22 119.497Z" fill="#CCCCCC"/>
<path d="M1582.6 315.859L1603.9 284.758L1603.96 285.153L1608.49 319.999L1608.29 319.96L1582.6 315.859ZM1603.71 285.62L1583.13 315.632L1608.12 319.656L1603.71 285.62Z" fill="#CCCCCC"/>
<path d="M1738.54 150.133L1738.4 149.867L1775.55 119.473V119.764L1776.75 137.965L1776.63 138.004L1738.54 150.133ZM1775.29 120.082L1739.22 149.595L1776.43 137.744L1775.29 120.082Z" fill="#CCCCCC"/>
<path d="M1780.77 67.0927V66.9956L1781.85 23.2081L1782.15 23.1562L1806.63 78.4834L1780.77 67.0927ZM1782.15 23.856L1781.08 66.8724L1806.03 77.842L1782.15 23.856Z" fill="#CCCCCC"/>
<path d="M1806.23 78.2348L1781.86 23.1604L1781.96 23.0891L1810.59 1.74609V2.07006L1806.54 78.196L1806.23 78.2348ZM1782.26 23.2511L1806.23 77.5286L1810.24 2.36811L1782.26 23.2511Z" fill="#CCCCCC"/>
<path fill-rule="evenodd" clip-rule="evenodd" d="M1608.21 319.641L1595.69 347.996H1596.02L1608.37 320.042L1654.46 341.126L1641.09 347.996H1641.72L1654.87 341.23L1655.16 341.087L1608.35 319.705L1608.21 319.641Z" fill="#CCCCCC"/>
<path d="M1672.82 263.114L1708.46 259.699L1708.29 259.971L1696.87 277.271L1672.82 263.114ZM1707.81 260.069L1673.77 263.308L1696.72 276.863L1707.81 260.069Z" fill="#CCCCCC"/>
<path d="M1804.24 113.655L1806.19 78.0572H1806.29L1854.54 63.0898L1854.69 63.3425L1804.24 113.655ZM1806.48 78.2839L1804.59 112.871L1854.05 63.5304L1806.48 78.2839Z" fill="#CCCCCC"/>
<path d="M1747.79 198.561L1747.42 198.127L1718.14 163.858L1718.28 163.767L1738.6 149.727L1738.65 149.96L1747.79 198.561ZM1718.59 163.923L1747.26 197.505L1738.37 150.258L1718.59 163.923Z" fill="#CCCCCC"/>
<path d="M1708.09 260.028L1708.13 259.73L1756.45 258.914L1760.82 274.51L1760.56 274.439L1708.09 260.028ZM1756.23 259.225L1709.2 260.016L1760.39 274.076L1756.23 259.225Z" fill="#CCCCCC"/>
<path d="M1708.06 260.097L1702.4 247.696H1702.61L1744.13 242.078L1744.22 242.37L1708.06 260.097ZM1702.88 247.942L1708.21 259.708L1743.24 242.506L1702.88 247.942Z" fill="#CCCCCC"/>
<path d="M1771.62 209.53V209.368L1775.18 173.414L1775.47 173.375L1790.95 209.977H1790.71L1771.62 209.53ZM1775.44 174.042L1771.96 209.232L1790.5 209.666L1775.44 174.042Z" fill="#CCCCCC"/>
<path d="M1790.21 171.238L1790.13 171.05L1776.31 137.559L1811.95 153.9L1811.76 154.055L1790.21 171.238ZM1776.89 138.161L1790.34 170.746L1811.37 153.971L1776.89 138.161Z" fill="#CCCCCC"/>
<path d="M1790.59 209.883L1775.12 173.314L1790.41 170.812V170.994L1790.87 209.825L1790.59 209.883ZM1775.56 173.534L1790.57 209.034L1790.12 171.156L1775.56 173.534Z" fill="#CCCCCC"/>
<path d="M1760.61 274.896L1756.18 259.06L1756.22 259.002L1769 239.816L1769.27 239.94L1760.61 274.896ZM1756.51 259.099L1760.6 273.697L1768.76 240.704L1756.51 259.099Z" fill="#CCCCCC"/>
<path d="M1681.47 315.217L1681.62 314.841L1696.72 276.918H1696.82L1760.63 274.145L1760.7 274.43L1681.47 315.217ZM1696.9 277.203L1682.06 314.563L1759.92 274.462L1696.9 277.203Z" fill="#CCCCCC"/>
<path d="M1666.86 120.633C1665.1 123.089 1661.41 120.439 1663.18 117.983C1664.95 115.528 1668.63 118.171 1666.86 120.633Z" fill="#CCCCCC"/>
<path d="M1693.57 124.787C1693.45 124.944 1693.31 125.078 1693.15 125.179C1692.98 125.281 1692.8 125.35 1692.61 125.381C1692.42 125.412 1692.22 125.406 1692.03 125.362C1691.85 125.318 1691.67 125.237 1691.51 125.124C1691.35 125.011 1691.22 124.869 1691.12 124.705C1691.02 124.54 1690.95 124.358 1690.92 124.167C1690.89 123.976 1690.89 123.781 1690.94 123.593C1690.98 123.405 1691.06 123.227 1691.17 123.07C1691.29 122.913 1691.43 122.78 1691.59 122.678C1691.76 122.576 1691.94 122.508 1692.13 122.476C1692.32 122.445 1692.52 122.452 1692.71 122.496C1692.89 122.54 1693.07 122.621 1693.23 122.733C1693.39 122.846 1693.52 122.989 1693.62 123.153C1693.72 123.317 1693.79 123.5 1693.82 123.691C1693.85 123.881 1693.85 124.076 1693.8 124.264C1693.76 124.453 1693.68 124.63 1693.57 124.787V124.787Z" fill="#CCCCCC"/>
<path d="M1685.06 175.405C1682.95 178.34 1678.58 175.178 1680.67 172.25C1682.75 169.321 1687.16 172.476 1685.06 175.405Z" fill="#CCCCCC"/>
<path d="M1812.06 3.22795C1810.49 5.41149 1807.21 3.053 1808.78 0.869458C1810.35 -1.31408 1813.6 1.04441 1812.06 3.22795Z" fill="#CCCCCC"/>
<path d="M1610.49 321.422C1608.38 324.357 1604.01 321.195 1606.09 318.26C1608.17 315.325 1612.6 318.487 1610.49 321.422Z" fill="#CCCCCC"/>
<path d="M1740.56 151.501C1738.57 154.268 1734.43 151.287 1736.41 148.521C1738.4 145.754 1742.55 148.715 1740.56 151.501Z" fill="#CCCCCC"/>
<path d="M1776.8 120.775C1776.67 120.969 1776.51 121.135 1776.32 121.263C1776.12 121.392 1775.91 121.48 1775.68 121.522C1775.45 121.564 1775.22 121.56 1774.99 121.51C1774.77 121.459 1774.55 121.363 1774.36 121.228C1774.18 121.093 1774.02 120.921 1773.9 120.723C1773.78 120.525 1773.7 120.304 1773.67 120.075C1773.63 119.845 1773.65 119.612 1773.71 119.388C1773.77 119.164 1773.87 118.955 1774.02 118.773C1775.35 116.92 1778.14 118.922 1776.8 120.775Z" fill="#CCCCCC"/>
<path d="M1807.76 79.1902C1807.49 79.5674 1807.08 79.8212 1806.62 79.896C1806.16 79.9707 1805.69 79.8601 1805.31 79.5886C1804.94 79.3171 1804.68 78.9069 1804.61 78.4482C1804.53 77.9895 1804.64 77.5199 1804.92 77.1427C1805.19 76.7655 1805.6 76.5116 1806.06 76.4369C1806.52 76.3621 1806.98 76.4727 1807.36 76.7442C1807.74 77.0157 1807.99 77.4259 1808.07 77.8846C1808.14 78.3433 1808.03 78.813 1807.76 79.1902V79.1902Z" fill="#CCCCCC"/>
<path d="M1778.72 139.378C1776.68 142.21 1772.45 139.158 1774.48 136.333C1776.51 133.508 1780.75 136.553 1778.72 139.378Z" fill="#CCCCCC"/>
<path d="M1704.4 249.099C1702.69 251.483 1699.12 248.917 1700.84 246.507C1702.56 244.096 1706.12 246.747 1704.4 249.099Z" fill="#CCCCCC"/>
<path d="M1806.39 114.677C1804.5 117.307 1800.56 114.476 1802.45 111.845C1804.34 109.215 1808.28 112.052 1806.39 114.677Z" fill="#CCCCCC"/>
<path d="M1709.46 260.839C1709.33 261.014 1709.17 261.162 1708.99 261.275C1708.8 261.387 1708.6 261.463 1708.38 261.496C1708.17 261.529 1707.95 261.52 1707.74 261.469C1707.53 261.418 1707.33 261.326 1707.16 261.199C1706.98 261.071 1706.83 260.91 1706.72 260.725C1706.61 260.541 1706.53 260.335 1706.5 260.122C1706.47 259.908 1706.48 259.689 1706.53 259.479C1706.58 259.268 1706.67 259.07 1706.8 258.895C1706.93 258.72 1707.09 258.572 1707.27 258.46C1707.46 258.347 1707.66 258.272 1707.87 258.238C1708.09 258.205 1708.31 258.214 1708.52 258.265C1708.73 258.316 1708.93 258.408 1709.1 258.536C1709.28 258.663 1709.42 258.824 1709.54 259.009C1709.65 259.194 1709.72 259.399 1709.76 259.613C1709.79 259.827 1709.78 260.045 1709.73 260.256C1709.68 260.466 1709.59 260.664 1709.46 260.839V260.839Z" fill="#CCCCCC"/>
<path d="M1698.23 278.094C1696.86 279.993 1694 277.945 1695.38 276.04C1696.75 274.136 1699.59 276.189 1698.23 278.094Z" fill="#CCCCCC"/>
<path d="M1855.75 64.029C1855.65 64.1908 1855.51 64.3294 1855.35 64.4363C1855.18 64.5433 1855 64.6164 1854.81 64.6513C1854.62 64.6863 1854.42 64.6824 1854.23 64.6399C1854.04 64.5973 1853.87 64.5169 1853.71 64.4036C1853.55 64.2903 1853.42 64.1463 1853.32 63.9803C1853.21 63.8143 1853.15 63.6297 1853.12 63.4375C1853.09 63.2452 1853.1 63.0494 1853.15 62.8616C1853.2 62.6737 1853.29 62.4978 1853.41 62.3444C1853.64 62.0489 1853.97 61.8538 1854.34 61.8001C1854.71 61.7464 1855.09 61.8384 1855.39 62.0565C1855.7 62.2747 1855.9 62.6021 1855.97 62.9699C1856.04 63.3378 1855.96 63.7174 1855.75 64.029V64.029Z" fill="#CCCCCC"/>
<path d="M1777.4 174.91C1775.45 177.651 1771.32 174.697 1773.29 171.956C1775.26 169.215 1779.37 172.17 1777.4 174.91Z" fill="#CCCCCC"/>
<path d="M1793.05 172.985C1790.39 176.698 1784.82 172.7 1787.49 168.987C1790.16 165.275 1795.72 169.279 1793.05 172.985Z" fill="#CCCCCC"/>
<path d="M1745.81 243.395C1744.23 245.604 1740.9 243.22 1742.5 241.004C1744.09 238.788 1747.41 241.179 1745.81 243.395Z" fill="#CCCCCC"/>
<path d="M1773.18 210.386C1773.05 210.568 1772.88 210.723 1772.69 210.841C1772.5 210.96 1772.28 211.039 1772.06 211.075C1771.84 211.111 1771.61 211.103 1771.39 211.052C1771.18 211 1770.97 210.906 1770.79 210.775C1770.6 210.643 1770.45 210.477 1770.33 210.286C1770.21 210.094 1770.13 209.882 1770.1 209.66C1770.06 209.438 1770.07 209.211 1770.12 208.992C1770.17 208.773 1770.27 208.566 1770.4 208.384C1770.66 208.015 1771.06 207.767 1771.51 207.694C1771.96 207.621 1772.42 207.729 1772.79 207.995C1773.16 208.26 1773.4 208.661 1773.48 209.11C1773.55 209.558 1773.44 210.017 1773.18 210.386V210.386Z" fill="#CCCCCC"/>
<path d="M1813.06 154.949C1811.71 156.828 1808.89 154.8 1810.24 152.921C1810.37 152.731 1810.54 152.569 1810.74 152.445C1810.93 152.321 1811.15 152.237 1811.38 152.197C1811.6 152.158 1811.84 152.164 1812.06 152.216C1812.29 152.268 1812.5 152.364 1812.69 152.499C1812.87 152.634 1813.03 152.804 1813.15 153.001C1813.27 153.198 1813.35 153.417 1813.39 153.645C1813.42 153.873 1813.41 154.106 1813.36 154.33C1813.3 154.554 1813.2 154.764 1813.06 154.949V154.949Z" fill="#CCCCCC"/>
<path d="M1771.46 241.565C1769.22 244.675 1764.55 241.319 1766.79 238.209C1769.02 235.099 1773.69 238.449 1771.46 241.565Z" fill="#CCCCCC"/>
<path d="M1792.66 211.215C1790.81 213.807 1786.94 211.014 1788.78 208.435C1790.62 205.857 1794.52 208.63 1792.66 211.215Z" fill="#CCCCCC"/>
<path d="M1758.61 260.701C1756.43 263.733 1751.89 260.467 1754.07 257.461C1756.26 254.454 1760.79 257.668 1758.61 260.701Z" fill="#CCCCCC"/>
<path d="M1762.78 275.852C1760.7 278.754 1756.35 275.625 1758.43 272.728C1760.51 269.832 1764.87 272.955 1762.78 275.852Z" fill="#CCCCCC"/>
<path opacity="0.64" d="M1610.69 200.524C1610.67 200.954 1610.48 201.357 1610.16 201.652C1609.85 201.946 1609.43 202.11 1609 202.11C1608.57 202.11 1608.16 201.946 1607.85 201.652C1607.53 201.357 1607.34 200.954 1607.32 200.524C1607.34 200.094 1607.53 199.691 1607.85 199.396C1608.16 199.102 1608.57 198.938 1609 198.938C1609.43 198.938 1609.85 199.102 1610.16 199.396C1610.48 199.691 1610.67 200.094 1610.69 200.524V200.524Z" fill="#999999"/>
<path opacity="0.64" d="M1614.19 147.411C1614.17 147.705 1614.04 147.979 1613.82 148.179C1613.61 148.38 1613.32 148.491 1613.03 148.491C1612.74 148.491 1612.45 148.38 1612.24 148.179C1612.02 147.979 1611.89 147.705 1611.87 147.411C1611.89 147.118 1612.02 146.844 1612.24 146.643C1612.45 146.443 1612.74 146.332 1613.03 146.332C1613.32 146.332 1613.61 146.443 1613.82 146.643C1614.04 146.844 1614.17 147.118 1614.19 147.411Z" fill="#999999"/>
<path opacity="0.64" d="M1622.13 212.866C1622.13 213.21 1622 213.539 1621.76 213.782C1621.51 214.026 1621.18 214.162 1620.84 214.162C1620.5 214.162 1620.17 214.026 1619.92 213.782C1619.68 213.539 1619.54 213.21 1619.54 212.866C1619.54 212.522 1619.68 212.193 1619.92 211.95C1620.17 211.707 1620.5 211.57 1620.84 211.57C1621.18 211.57 1621.51 211.707 1621.76 211.95C1622 212.193 1622.13 212.522 1622.13 212.866Z" fill="#999999"/>
<path opacity="0.64" d="M1631.28 145.183C1631.3 145.312 1631.28 145.442 1631.24 145.564C1631.2 145.686 1631.13 145.798 1631.04 145.893C1630.95 145.988 1630.85 146.064 1630.73 146.116C1630.61 146.167 1630.48 146.194 1630.35 146.194C1630.23 146.194 1630.1 146.167 1629.98 146.116C1629.86 146.064 1629.76 145.988 1629.67 145.893C1629.58 145.798 1629.51 145.686 1629.47 145.564C1629.43 145.442 1629.41 145.312 1629.43 145.183C1629.44 144.95 1629.55 144.733 1629.72 144.575C1629.9 144.416 1630.12 144.328 1630.35 144.328C1630.59 144.328 1630.81 144.416 1630.99 144.575C1631.16 144.733 1631.27 144.95 1631.28 145.183V145.183Z" fill="#999999"/>
<path opacity="0.64" d="M1651.51 166.068C1651.51 166.429 1651.37 166.775 1651.11 167.03C1650.86 167.285 1650.51 167.428 1650.15 167.428C1649.79 167.428 1649.44 167.285 1649.19 167.03C1648.93 166.775 1648.79 166.429 1648.79 166.068C1648.79 165.707 1648.93 165.361 1649.19 165.106C1649.44 164.85 1649.79 164.707 1650.15 164.707C1650.51 164.707 1650.86 164.85 1651.11 165.106C1651.37 165.361 1651.51 165.707 1651.51 166.068Z" fill="#999999"/>
<path opacity="0.64" d="M1651.44 204.128C1651.44 204.472 1651.3 204.801 1651.06 205.044C1650.81 205.287 1650.48 205.424 1650.14 205.424C1649.8 205.424 1649.47 205.287 1649.22 205.044C1648.98 204.801 1648.84 204.472 1648.84 204.128C1648.84 203.784 1648.98 203.455 1649.22 203.212C1649.47 202.969 1649.8 202.832 1650.14 202.832C1650.48 202.832 1650.81 202.969 1651.06 203.212C1651.3 203.455 1651.44 203.784 1651.44 204.128Z" fill="#999999"/>
<path opacity="0.64" d="M1653.43 140.348C1653.4 140.787 1653.21 141.2 1652.89 141.502C1652.57 141.804 1652.14 141.972 1651.7 141.972C1651.26 141.972 1650.84 141.804 1650.52 141.502C1650.2 141.2 1650 140.787 1649.98 140.348C1649.96 140.112 1650 139.876 1650.08 139.654C1650.16 139.432 1650.28 139.228 1650.44 139.056C1650.6 138.884 1650.8 138.747 1651.02 138.654C1651.23 138.56 1651.47 138.512 1651.7 138.512C1651.94 138.512 1652.17 138.56 1652.39 138.654C1652.61 138.747 1652.8 138.884 1652.96 139.056C1653.12 139.228 1653.25 139.432 1653.33 139.654C1653.41 139.876 1653.44 140.112 1653.43 140.348V140.348Z" fill="#999999"/>
<path opacity="0.64" d="M1654.79 167.088C1654.79 167.498 1654.63 167.891 1654.34 168.181C1654.05 168.471 1653.65 168.634 1653.24 168.634C1652.83 168.634 1652.44 168.471 1652.15 168.181C1651.86 167.891 1651.7 167.498 1651.7 167.088C1651.7 166.678 1651.86 166.285 1652.15 165.996C1652.44 165.706 1652.83 165.543 1653.24 165.543C1653.65 165.543 1654.05 165.706 1654.34 165.996C1654.63 166.285 1654.79 166.678 1654.79 167.088Z" fill="#999999"/>
<path opacity="0.64" d="M1666.39 146.01C1666.39 148.453 1662.72 148.453 1662.72 146.01C1662.72 143.568 1666.39 143.561 1666.39 146.01Z" fill="#999999"/>
<path opacity="0.64" d="M1669.85 183.038C1669.86 183.269 1669.83 183.501 1669.75 183.719C1669.67 183.937 1669.55 184.137 1669.39 184.306C1669.23 184.474 1669.04 184.609 1668.83 184.701C1668.62 184.793 1668.39 184.84 1668.15 184.84C1667.92 184.84 1667.69 184.793 1667.48 184.701C1667.27 184.609 1667.08 184.474 1666.92 184.306C1666.76 184.137 1666.64 183.937 1666.56 183.719C1666.48 183.501 1666.45 183.269 1666.46 183.038C1666.49 182.607 1666.68 182.202 1666.99 181.906C1667.31 181.61 1667.72 181.445 1668.15 181.445C1668.59 181.445 1669 181.61 1669.32 181.906C1669.63 182.202 1669.82 182.607 1669.85 183.038Z" fill="#999999"/>
<path opacity="0.64" d="M1621.12 213.057L1602.66 208.838L1602.75 208.722L1608.99 200.402L1621.12 213.057ZM1602.98 208.715L1620.52 212.726L1609 200.694L1602.98 208.715Z" fill="#999999"/>
<path opacity="0.64" d="M1650.04 166.404L1651.61 140.215L1664.71 145.975L1664.64 146.072L1650.04 166.404ZM1651.79 140.487L1650.27 165.756L1664.41 146.059L1651.79 140.487Z" fill="#999999"/>
<path opacity="0.64" d="M1653.67 190.374L1653.14 166.828L1653.31 167.01L1668.32 183.052L1668.2 183.111L1653.67 190.374ZM1653.34 167.327L1653.85 190.07L1668 182.994L1653.34 167.327Z" fill="#999999"/>
<path opacity="0.64" d="M1676.53 222.339L1676.32 222.21L1650 204.145L1650.08 204.067L1668.22 182.828L1668.26 183.016L1676.53 222.339ZM1650.29 204.106L1676.21 221.918L1668.1 183.249L1650.29 204.106Z" fill="#999999"/>
<path opacity="0.64" d="M1676.38 222.224L1620.82 212.965V212.777L1650.19 204.023H1650.22L1676.46 222.023L1676.38 222.224ZM1621.26 212.842L1676 221.965L1650.15 204.231L1621.26 212.842Z" fill="#999999"/>
<path opacity="0.64" d="M1622.13 212.866C1622.13 213.21 1622 213.539 1621.76 213.782C1621.51 214.026 1621.18 214.162 1620.84 214.162C1620.5 214.162 1620.17 214.026 1619.92 213.782C1619.68 213.539 1619.54 213.21 1619.54 212.866C1619.54 212.522 1619.68 212.193 1619.92 211.95C1620.17 211.707 1620.5 211.57 1620.84 211.57C1621.18 211.57 1621.51 211.707 1621.76 211.95C1622 212.193 1622.13 212.522 1622.13 212.866Z" fill="#999999"/>
<path opacity="0.64" d="M1669.85 183.038C1669.86 183.269 1669.83 183.501 1669.75 183.719C1669.67 183.937 1669.55 184.137 1669.39 184.306C1669.23 184.474 1669.04 184.609 1668.83 184.701C1668.62 184.793 1668.39 184.84 1668.15 184.84C1667.92 184.84 1667.69 184.793 1667.48 184.701C1667.27 184.609 1667.08 184.474 1666.92 184.306C1666.76 184.137 1666.64 183.937 1666.56 183.719C1666.48 183.501 1666.45 183.269 1666.46 183.038C1666.49 182.607 1666.68 182.202 1666.99 181.906C1667.31 181.61 1667.72 181.445 1668.15 181.445C1668.59 181.445 1669 181.61 1669.32 181.906C1669.63 182.202 1669.82 182.607 1669.85 183.038Z" fill="#999999"/>
<path opacity="0.64" d="M1126.27 255.186C1126.71 255.36 1127.07 255.704 1127.27 256.143C1127.46 256.582 1127.47 257.08 1127.29 257.527C1127.12 257.973 1126.78 258.332 1126.34 258.525C1125.9 258.718 1125.4 258.729 1124.95 258.555C1124.51 258.381 1124.15 258.036 1123.96 257.597C1123.76 257.158 1123.75 256.661 1123.93 256.214C1124.1 255.767 1124.44 255.408 1124.88 255.215C1125.32 255.023 1125.82 255.012 1126.27 255.186Z" fill="#C8C8C8"/>
<path opacity="0.64" d="M1157.3 267.09C1157.7 267.247 1158.02 267.557 1158.2 267.952C1158.37 268.347 1158.38 268.795 1158.22 269.197C1158.07 269.599 1157.76 269.922 1157.36 270.095C1156.97 270.269 1156.52 270.278 1156.12 270.122C1155.72 269.965 1155.39 269.655 1155.22 269.26C1155.05 268.865 1155.04 268.417 1155.19 268.015C1155.35 267.613 1155.66 267.29 1156.05 267.117C1156.45 266.943 1156.9 266.933 1157.3 267.09V267.09Z" fill="#C8C8C8"/>
<path opacity="0.64" d="M1083 236.602C1085.81 237.697 1084.17 241.908 1081.36 240.813C1078.55 239.719 1080.19 235.508 1083 236.602Z" fill="#C8C8C8"/>
<path opacity="0.64" d="M1174.1 265.808C1177.31 267.06 1175.44 271.878 1172.22 270.626C1169.01 269.374 1170.89 264.559 1174.1 265.808Z" fill="#C8C8C8"/>
<path opacity="0.64" d="M1157.12 253.444C1157.57 253.616 1157.92 253.957 1158.11 254.391C1158.3 254.826 1158.31 255.319 1158.14 255.761C1157.97 256.203 1157.63 256.559 1157.19 256.75C1156.76 256.94 1156.27 256.951 1155.82 256.779C1155.38 256.606 1155.03 256.265 1154.83 255.831C1154.64 255.396 1154.63 254.904 1154.81 254.461C1154.98 254.019 1155.32 253.664 1155.75 253.473C1156.19 253.282 1156.68 253.271 1157.12 253.444V253.444Z" fill="#C8C8C8"/>
<path opacity="0.64" d="M1169.02 256.743C1169.26 256.821 1169.49 256.948 1169.68 257.116C1169.87 257.284 1170.03 257.49 1170.14 257.721C1170.25 257.952 1170.31 258.203 1170.32 258.458C1170.33 258.714 1170.28 258.969 1170.19 259.207C1170.1 259.445 1169.96 259.662 1169.78 259.844C1169.6 260.026 1169.38 260.169 1169.15 260.264C1168.91 260.36 1168.65 260.406 1168.4 260.399C1168.14 260.393 1167.89 260.334 1167.66 260.226C1167.42 260.149 1167.19 260.022 1167 259.854C1166.81 259.685 1166.65 259.48 1166.54 259.249C1166.43 259.018 1166.37 258.767 1166.36 258.511C1166.35 258.256 1166.39 258.001 1166.48 257.763C1166.58 257.525 1166.72 257.308 1166.9 257.126C1167.08 256.944 1167.29 256.801 1167.53 256.706C1167.77 256.61 1168.02 256.564 1168.28 256.571C1168.53 256.577 1168.78 256.636 1169.02 256.743V256.743Z" fill="#C8C8C8"/>
<path opacity="0.64" d="M1093.45 220.829C1093.76 220.947 1094 221.18 1094.13 221.478C1094.26 221.776 1094.27 222.113 1094.15 222.416C1094.03 222.719 1093.8 222.962 1093.5 223.093C1093.2 223.224 1092.87 223.231 1092.56 223.113C1092.26 222.995 1092.02 222.761 1091.89 222.464C1091.76 222.166 1091.75 221.829 1091.87 221.526C1091.98 221.223 1092.22 220.98 1092.52 220.849C1092.81 220.718 1093.15 220.711 1093.45 220.829Z" fill="#C8C8C8"/>
<path opacity="0.64" d="M1161.11 243.207C1161.48 243.351 1161.78 243.637 1161.94 244C1162.1 244.363 1162.11 244.775 1161.97 245.145C1161.82 245.515 1161.54 245.813 1161.17 245.972C1160.81 246.132 1160.4 246.141 1160.03 245.996C1159.66 245.852 1159.36 245.567 1159.2 245.204C1159.04 244.84 1159.03 244.428 1159.18 244.059C1159.32 243.689 1159.61 243.391 1159.97 243.232C1160.33 243.072 1160.74 243.063 1161.11 243.207V243.207Z" fill="#C8C8C8"/>
<path opacity="0.64" d="M1144.76 231.435C1145.24 231.621 1145.62 231.989 1145.83 232.458C1146.04 232.926 1146.05 233.458 1145.86 233.935C1145.68 234.412 1145.31 234.796 1144.84 235.002C1144.37 235.207 1143.84 235.219 1143.36 235.033C1142.88 234.847 1142.5 234.479 1142.29 234.01C1142.09 233.542 1142.08 233.01 1142.26 232.533C1142.45 232.056 1142.82 231.672 1143.29 231.467C1143.75 231.261 1144.29 231.249 1144.76 231.435V231.435Z" fill="#C8C8C8"/>
<path opacity="0.64" d="M1183.66 224.878C1184.03 225.024 1184.33 225.311 1184.49 225.677C1184.65 226.043 1184.66 226.458 1184.51 226.83C1184.37 227.203 1184.08 227.503 1183.71 227.663C1183.35 227.824 1182.93 227.833 1182.56 227.688C1182.19 227.543 1181.89 227.256 1181.73 226.889C1181.57 226.523 1181.56 226.108 1181.7 225.736C1181.85 225.363 1182.14 225.064 1182.5 224.903C1182.87 224.742 1183.28 224.733 1183.66 224.878V224.878Z" fill="#C8C8C8"/>
<path opacity="0.64" d="M1106.56 188.78C1106.82 188.965 1107.02 189.235 1107.11 189.546C1107.21 189.856 1107.2 190.19 1107.08 190.493C1106.96 190.796 1106.74 191.05 1106.46 191.215C1106.18 191.379 1105.86 191.445 1105.53 191.401C1105.35 191.343 1105.18 191.249 1105.03 191.122C1104.88 190.996 1104.77 190.841 1104.68 190.666C1104.6 190.492 1104.55 190.302 1104.54 190.109C1104.53 189.915 1104.57 189.722 1104.64 189.542C1104.71 189.361 1104.81 189.197 1104.95 189.06C1105.09 188.922 1105.25 188.815 1105.43 188.743C1105.61 188.672 1105.8 188.638 1106 188.644C1106.19 188.651 1106.38 188.697 1106.56 188.78V188.78Z" fill="#C8C8C8"/>
<path opacity="0.64" d="M1155.47 197.63C1155.73 197.757 1155.94 197.979 1156.05 198.252C1156.15 198.524 1156.16 198.827 1156.05 199.1C1155.94 199.373 1155.74 199.596 1155.47 199.724C1155.21 199.853 1154.91 199.877 1154.63 199.792C1154.47 199.746 1154.33 199.668 1154.21 199.564C1154.09 199.46 1153.99 199.332 1153.92 199.188C1153.85 199.043 1153.81 198.886 1153.8 198.725C1153.79 198.565 1153.82 198.405 1153.88 198.255C1153.94 198.105 1154.03 197.97 1154.14 197.856C1154.25 197.742 1154.39 197.653 1154.54 197.594C1154.69 197.536 1154.85 197.508 1155.01 197.514C1155.17 197.521 1155.33 197.56 1155.47 197.63V197.63Z" fill="#C8C8C8"/>
<path opacity="0.64" d="M1170.26 196.007C1170.49 196.079 1170.7 196.196 1170.88 196.352C1171.06 196.508 1171.2 196.699 1171.3 196.913C1171.41 197.127 1171.46 197.36 1171.47 197.597C1171.48 197.834 1171.44 198.07 1171.36 198.291C1171.27 198.513 1171.14 198.714 1170.97 198.882C1170.81 199.051 1170.61 199.184 1170.39 199.272C1170.17 199.36 1169.93 199.403 1169.69 199.396C1169.45 199.39 1169.22 199.335 1169.01 199.234C1168.61 199.048 1168.29 198.717 1168.13 198.308C1167.96 197.899 1167.96 197.442 1168.12 197.032C1168.28 196.621 1168.59 196.286 1168.99 196.096C1169.39 195.906 1169.84 195.874 1170.26 196.007V196.007Z" fill="#C8C8C8"/>
<path opacity="0.64" d="M1087.94 246.456L1082.82 249.637L1082.05 238.333L1087.94 246.456ZM1083.01 249.276L1087.63 246.42L1082.3 239.076L1083.01 249.276Z" fill="#C8C8C8"/>
<path opacity="0.64" d="M1168.57 258.407L1156.6 268.843L1156.37 254.966L1168.57 258.407ZM1156.8 268.379L1168.14 258.509L1156.59 255.251L1156.8 268.379Z" fill="#C8C8C8"/>
<path opacity="0.64" d="M1112.17 239.642L1099.74 258.64L1099.65 258.551L1087.58 246.375L1087.76 246.327L1112.17 239.642ZM1099.72 258.314L1111.69 240L1088 246.492L1099.72 258.314Z" fill="#C8C8C8"/>
<path opacity="0.64" d="M1173.33 268.321L1156.41 268.715L1168.39 258.272L1173.33 268.321ZM1156.97 268.488L1172.96 268.108L1168.29 258.613L1156.97 268.488Z" fill="#C8C8C8"/>
<path opacity="0.64" d="M1144.32 233.078L1125.61 257.025L1111.72 239.749L1111.9 239.717L1144.32 233.078ZM1125.61 256.684L1143.79 233.4L1112.11 239.886L1125.61 256.684Z" fill="#C8C8C8"/>
<path opacity="0.64" d="M1144.32 233.462L1118.24 223.301L1125.23 205.359L1125.34 205.527L1144.32 233.462ZM1118.5 223.169L1143.76 233.01L1125.26 205.807L1118.5 223.169Z" fill="#C8C8C8"/>
<path opacity="0.64" d="M1160.71 244.566L1156.51 255.345L1156.4 255.147L1143.97 233.286L1144.12 233.142L1160.71 244.566ZM1156.47 254.862L1160.45 244.649L1144.38 233.595L1156.47 254.862Z" fill="#C8C8C8"/>
<path opacity="0.64" d="M1156.66 255.21L1125.38 256.992L1144.07 233.054L1144.15 233.193L1156.66 255.21ZM1125.85 256.738L1156.3 255.015L1144.05 233.432L1125.85 256.738Z" fill="#C8C8C8"/>
<path opacity="0.64" d="M1183.99 204.371L1161.38 208.84L1169.6 197.498L1169.68 197.529L1183.99 204.371ZM1161.88 208.514L1183.32 204.273L1169.67 197.751L1161.88 208.514Z" fill="#C8C8C8"/>
<path opacity="0.64" d="M1169.86 197.5L1161.67 208.866L1154.89 198.62L1169.86 197.5ZM1161.64 208.482L1169.42 197.746L1155.24 198.802L1161.64 208.482Z" fill="#C8C8C8"/>
<path opacity="0.64" d="M1160.67 244.793L1160.51 244.678L1143.9 233.256L1143.94 233.155L1161.74 208.273L1160.67 244.793ZM1144.23 233.213L1160.47 244.396L1161.51 209.008L1144.23 233.213Z" fill="#C8C8C8"/>
<path opacity="0.64" d="M1183.21 226.504L1183.04 226.36L1161.39 208.614L1183.77 204.185L1183.77 204.318L1183.21 226.504ZM1161.87 208.731L1183.01 226.061L1183.56 204.454L1161.87 208.731Z" fill="#C8C8C8"/>
<path opacity="0.64" d="M1155.13 198.806L1155.07 198.819L1125.28 205.692L1125.19 205.509L1158.32 179.352L1155.13 198.806ZM1125.7 205.381L1154.95 198.625L1158.02 179.857L1125.7 205.381Z" fill="#C8C8C8"/>
<path opacity="0.64" d="M1158.25 179.697L1125.26 205.73L1125.18 205.701L1105.79 190.058L1106.01 190.014L1158.15 179.527L1158.25 179.697ZM1125.26 205.46L1157.76 179.803L1106.28 190.158L1125.26 205.46Z" fill="#C8C8C8"/>
<path opacity="0.64" d="M1169.02 256.743C1169.26 256.821 1169.49 256.948 1169.68 257.116C1169.87 257.284 1170.03 257.49 1170.14 257.721C1170.25 257.952 1170.31 258.203 1170.32 258.458C1170.33 258.714 1170.28 258.969 1170.19 259.207C1170.1 259.445 1169.96 259.662 1169.78 259.844C1169.6 260.026 1169.38 260.169 1169.15 260.264C1168.91 260.36 1168.65 260.406 1168.4 260.399C1168.14 260.393 1167.89 260.334 1167.66 260.226C1167.42 260.149 1167.19 260.022 1167 259.854C1166.81 259.685 1166.65 259.48 1166.54 259.249C1166.43 259.018 1166.37 258.767 1166.36 258.511C1166.35 258.256 1166.39 258.001 1166.48 257.763C1166.58 257.525 1166.72 257.308 1166.9 257.126C1167.08 256.944 1167.29 256.801 1167.53 256.706C1167.77 256.61 1168.02 256.564 1168.28 256.571C1168.53 256.577 1168.78 256.636 1169.02 256.743V256.743Z" fill="#C8C8C8"/>
<path opacity="0.64" d="M1161.11 243.207C1161.48 243.351 1161.78 243.637 1161.94 244C1162.1 244.363 1162.11 244.775 1161.97 245.145C1161.82 245.515 1161.54 245.813 1161.17 245.972C1160.81 246.132 1160.4 246.141 1160.03 245.996C1159.66 245.852 1159.36 245.567 1159.2 245.204C1159.04 244.84 1159.03 244.428 1159.18 244.059C1159.32 243.689 1159.61 243.391 1159.97 243.232C1160.33 243.072 1160.74 243.063 1161.11 243.207V243.207Z" fill="#C8C8C8"/>
<path opacity="0.64" d="M1144.76 231.435C1145.24 231.621 1145.62 231.989 1145.83 232.458C1146.04 232.926 1146.05 233.458 1145.86 233.935C1145.68 234.412 1145.31 234.796 1144.84 235.002C1144.37 235.207 1143.84 235.219 1143.36 235.033C1142.88 234.847 1142.5 234.479 1142.29 234.01C1142.09 233.542 1142.08 233.01 1142.26 232.533C1142.45 232.056 1142.82 231.672 1143.29 231.467C1143.75 231.261 1144.29 231.249 1144.76 231.435V231.435Z" fill="#C8C8C8"/>
<path opacity="0.64" d="M1125.99 203.712C1128.49 204.685 1127.02 208.438 1124.52 207.464C1124.26 207.38 1124.02 207.243 1123.81 207.062C1123.61 206.88 1123.44 206.659 1123.32 206.41C1123.2 206.162 1123.14 205.892 1123.13 205.617C1123.12 205.342 1123.16 205.068 1123.26 204.812C1123.36 204.555 1123.51 204.322 1123.71 204.127C1123.9 203.931 1124.13 203.777 1124.39 203.674C1124.64 203.571 1124.92 203.521 1125.19 203.527C1125.47 203.534 1125.74 203.597 1125.99 203.712Z" fill="#C8C8C8"/>
<path opacity="0.64" d="M1184.18 202.991C1184.39 203.025 1184.59 203.106 1184.77 203.229C1184.95 203.352 1185.1 203.513 1185.2 203.7C1185.31 203.887 1185.37 204.096 1185.39 204.311C1185.41 204.526 1185.37 204.742 1185.3 204.943C1185.22 205.145 1185.1 205.326 1184.94 205.473C1184.78 205.621 1184.59 205.731 1184.39 205.797C1184.18 205.862 1183.96 205.881 1183.75 205.851C1183.54 205.821 1183.33 205.744 1183.15 205.625C1182.94 205.591 1182.74 205.509 1182.56 205.387C1182.38 205.264 1182.23 205.103 1182.13 204.916C1182.02 204.729 1181.95 204.52 1181.94 204.304C1181.92 204.089 1181.95 203.873 1182.03 203.672C1182.11 203.471 1182.23 203.29 1182.39 203.142C1182.55 202.995 1182.74 202.884 1182.94 202.819C1183.15 202.754 1183.37 202.735 1183.58 202.765C1183.79 202.794 1184 202.872 1184.18 202.991Z" fill="#C8C8C8"/>
<path opacity="0.64" d="M1158.62 178.459C1158.92 178.577 1159.16 178.81 1159.29 179.107C1159.43 179.403 1159.43 179.74 1159.31 180.042C1159.2 180.344 1158.96 180.586 1158.67 180.717C1158.37 180.847 1158.03 180.854 1157.73 180.737C1157.43 180.619 1157.19 180.386 1157.06 180.089C1156.93 179.793 1156.92 179.456 1157.04 179.154C1157.16 178.852 1157.39 178.61 1157.68 178.479C1157.98 178.349 1158.32 178.342 1158.62 178.459Z" fill="#C8C8C8"/>
<path d="M475.58 197.485L439.24 204.189L458.357 151.055L475.58 197.485ZM439.697 203.818L475.171 197.249L458.354 151.972L439.697 203.818Z" fill="#CCCCCC"/>
<path d="M465.041 224.878L442.816 238.318L439.278 203.666L465.041 224.878ZM443.069 237.811L464.513 224.839L439.658 204.37L443.069 237.811Z" fill="#CCCCCC"/>
<path d="M490.998 272.934L474.169 257.818L497.432 242.731L490.998 272.934ZM474.668 257.859L490.807 272.352L496.965 243.377L474.668 257.859Z" fill="#CCCCCC"/>
<path d="M497.492 243.047L474.337 258.086L464.524 224.55L497.492 243.047ZM474.511 257.605L496.902 243.061L465.023 225.197L474.511 257.605Z" fill="#CCCCCC"/>
<path d="M464.842 225.125L464.678 224.991L439.111 203.939L475.617 197.182L464.842 225.125ZM439.812 204.122L464.711 224.622L475.133 197.585L439.812 204.122Z" fill="#CCCCCC"/>
<path d="M441.501 202.697C443.265 205.414 439.197 208.057 437.432 205.339C435.668 202.622 439.74 199.987 441.501 202.697Z" fill="#CCCCCC"/>
<path d="M493.703 270.824C496.131 274.552 490.533 278.191 488.114 274.46C485.694 270.729 491.281 267.099 493.703 270.824Z" fill="#CCCCCC"/>
<path d="M467.631 223.006C470.114 226.824 464.39 230.539 461.913 226.723C459.436 222.907 465.154 219.19 467.631 223.006Z" fill="#CCCCCC"/>
<path d="M499.351 241.643C501.22 244.52 496.907 247.325 495.038 244.448C493.169 241.571 497.493 238.771 499.351 241.643Z" fill="#CCCCCC"/>
<path d="M477.34 196.101C479.034 198.715 475.116 201.257 473.423 198.643C471.729 196.029 475.641 193.485 477.34 196.101Z" fill="#CCCCCC"/>
<path d="M461.285 149.64C463.82 153.541 457.975 157.334 455.446 153.436C452.918 149.537 458.739 145.735 461.285 149.64Z" fill="#CCCCCC"/>
<path d="M696.822 182.792L653.19 163.235L674.945 149.111L696.822 182.792ZM653.826 163.191L696.004 182.091L674.863 149.517L653.826 163.191Z" fill="#CCCCCC"/>
<path d="M674.832 149.457L643.146 135.561L646.33 126.371L646.5 126.507L674.984 149.21L674.832 149.457ZM643.53 135.398L673.887 148.706L646.491 126.851L643.53 135.398Z" fill="#CCCCCC"/>
<path d="M688.478 100.463L646.163 126.966L646.311 126.586L665.155 66.0305L665.331 66.2937L688.478 100.463ZM646.674 126.226L688.054 100.339L665.218 66.6737L646.674 126.226Z" fill="#CCCCCC"/>
<path d="M767.068 182.242L737.013 168.531L756.064 162.205L756.126 162.313L767.068 182.242ZM737.85 168.579L766.358 181.583L755.92 162.573L737.85 168.579Z" fill="#CCCCCC"/>
<path d="M756.351 162.42L737.261 168.758L737.947 151.168L756.351 162.42ZM737.597 168.326L755.633 162.335L738.222 151.693L737.597 168.326Z" fill="#CCCCCC"/>
<path d="M737.576 168.661L737.48 168.693L696.463 182.581L696.319 182.309L738.254 151.124L737.576 168.661ZM697.275 181.979L737.275 168.433L737.919 151.752L697.275 181.979Z" fill="#CCCCCC"/>
<path d="M697.843 134.597L674.651 149.643L674.76 149.255L688.273 99.8136L697.843 134.597ZM675.147 148.974L697.492 134.461L688.287 100.973L675.147 148.974Z" fill="#CCCCCC"/>
<path d="M706.08 209.799L705.983 209.532L696.215 182.341L696.359 182.293L737.855 168.245L706.08 209.799ZM696.605 182.535L706.155 209.161L736.98 168.849L696.605 182.535Z" fill="#CCCCCC"/>
<path d="M756.128 162.613L755.913 162.487L737.846 151.443L757.901 131.4L756.128 162.613ZM738.341 151.386L755.853 162.088L757.563 132.159L738.341 151.386Z" fill="#CCCCCC"/>
<path d="M655.264 162.072C656.78 164.408 653.28 166.681 651.761 164.351C650.242 162.021 653.747 159.735 655.264 162.072Z" fill="#CCCCCC"/>
<path d="M645.149 134.301C646.707 136.709 643.098 139.065 641.536 136.648C639.974 134.232 643.582 131.896 645.149 134.301Z" fill="#CCCCCC"/>
<path d="M647.882 125.653C649.16 127.618 646.215 129.537 644.936 127.572C643.658 125.607 646.609 123.69 647.882 125.653Z" fill="#CCCCCC"/>
<path d="M698.722 180.933C700.73 184.024 696.096 187.031 694.075 183.935C692.055 180.839 696.714 177.842 698.722 180.933Z" fill="#CCCCCC"/>
<path d="M676.77 148.098C678.398 150.596 674.647 153.029 673.038 150.538C671.428 148.048 675.151 145.597 676.77 148.098Z" fill="#CCCCCC"/>
<path d="M700.084 132.951C702.178 136.18 697.338 139.322 695.242 136.099C693.146 132.876 697.988 129.729 700.084 132.951Z" fill="#CCCCCC"/>
<path d="M739.743 167.052C741.741 170.132 737.124 173.131 735.101 170.042C733.078 166.952 737.738 163.969 739.743 167.052Z" fill="#CCCCCC"/>
<path d="M739.471 150.564C739.599 150.747 739.688 150.954 739.735 151.173C739.781 151.392 739.783 151.617 739.74 151.837C739.697 152.056 739.611 152.264 739.485 152.45C739.36 152.635 739.199 152.793 739.012 152.915C738.824 153.036 738.614 153.119 738.394 153.158C738.174 153.196 737.949 153.191 737.731 153.14C737.513 153.09 737.308 152.996 737.127 152.865C736.946 152.734 736.794 152.568 736.678 152.376C736.456 152.006 736.386 151.564 736.483 151.143C736.58 150.723 736.837 150.356 737.199 150.121C737.561 149.886 738 149.801 738.424 149.883C738.848 149.966 739.223 150.21 739.471 150.564V150.564Z" fill="#CCCCCC"/>
<path d="M758.061 161.022C759.867 163.812 755.702 166.507 753.9 163.726C752.097 160.945 756.263 158.25 758.061 161.022Z" fill="#CCCCCC"/>
<g opacity="0.64">
<path opacity="0.64" d="M135.551 260.433C135.551 262.792 132.007 262.792 132.007 260.433C131.993 260.192 132.028 259.949 132.11 259.722C132.192 259.494 132.321 259.286 132.487 259.109C132.653 258.933 132.853 258.792 133.075 258.696C133.297 258.6 133.537 258.551 133.779 258.551C134.021 258.551 134.261 258.6 134.483 258.696C134.706 258.792 134.906 258.933 135.072 259.109C135.238 259.286 135.366 259.494 135.449 259.722C135.531 259.949 135.566 260.192 135.551 260.433V260.433Z" fill="#999999"/>
<path opacity="0.64" d="M139.295 225.97C139.295 226.341 139.148 226.697 138.885 226.959C138.623 227.222 138.267 227.369 137.896 227.369C137.524 227.369 137.168 227.222 136.906 226.959C136.644 226.697 136.496 226.341 136.496 225.97C136.496 225.599 136.644 225.243 136.906 224.98C137.168 224.718 137.524 224.57 137.896 224.57C138.267 224.57 138.623 224.718 138.885 224.98C139.148 225.243 139.295 225.599 139.295 225.97V225.97Z" fill="#999999"/>
<path opacity="0.64" d="M167.145 237.283C167.145 237.673 166.99 238.048 166.714 238.323C166.438 238.599 166.064 238.754 165.674 238.754C165.284 238.754 164.91 238.599 164.634 238.323C164.358 238.048 164.203 237.673 164.203 237.283C164.203 236.893 164.358 236.519 164.634 236.243C164.91 235.967 165.284 235.812 165.674 235.812C166.064 235.812 166.438 235.967 166.714 236.243C166.99 236.519 167.145 236.893 167.145 237.283V237.283Z" fill="#999999"/>
<path opacity="0.64" d="M171.096 267.632C171.096 270.068 167.441 270.068 167.441 267.632C167.441 265.196 171.096 265.196 171.096 267.632Z" fill="#999999"/>
<path opacity="0.64" d="M181.689 255.296C181.689 255.725 181.518 256.137 181.214 256.441C180.911 256.745 180.499 256.915 180.069 256.915C179.639 256.915 179.227 256.745 178.924 256.441C178.62 256.137 178.449 255.725 178.449 255.296C178.449 254.866 178.62 254.454 178.924 254.15C179.227 253.846 179.639 253.676 180.069 253.676C180.499 253.676 180.911 253.846 181.214 254.15C181.518 254.454 181.689 254.866 181.689 255.296V255.296Z" fill="#999999"/>
<path opacity="0.64" d="M188.132 225.453C188.132 228.692 183.324 228.692 183.324 225.453C183.324 222.213 188.132 222.246 188.132 225.453Z" fill="#999999"/>
<path opacity="0.64" d="M197.22 273.293C197.22 276.267 192.762 276.267 192.762 273.293C192.762 270.319 197.22 270.319 197.22 273.293Z" fill="#999999"/>
<path opacity="0.64" d="M198.969 246.029C198.982 246.221 198.955 246.414 198.891 246.595C198.826 246.777 198.725 246.943 198.594 247.084C198.462 247.225 198.303 247.337 198.126 247.414C197.949 247.491 197.759 247.53 197.566 247.53C197.374 247.53 197.183 247.491 197.006 247.414C196.829 247.337 196.67 247.225 196.539 247.084C196.407 246.943 196.306 246.777 196.241 246.595C196.177 246.414 196.15 246.221 196.163 246.029C196.15 245.837 196.177 245.644 196.241 245.462C196.306 245.281 196.407 245.114 196.539 244.973C196.67 244.833 196.829 244.72 197.006 244.644C197.183 244.567 197.374 244.527 197.566 244.527C197.759 244.527 197.949 244.567 198.126 244.644C198.303 244.72 198.462 244.833 198.594 244.973C198.725 245.114 198.826 245.281 198.891 245.462C198.955 245.644 198.982 245.837 198.969 246.029V246.029Z" fill="#999999"/>
<path opacity="0.64" d="M201.057 203.854C201.07 204.05 201.043 204.247 200.977 204.433C200.911 204.619 200.807 204.789 200.673 204.933C200.538 205.076 200.375 205.191 200.195 205.27C200.014 205.348 199.819 205.389 199.622 205.389C199.425 205.389 199.23 205.348 199.049 205.27C198.869 205.191 198.706 205.076 198.571 204.933C198.437 204.789 198.333 204.619 198.267 204.433C198.201 204.247 198.174 204.05 198.187 203.854C198.211 203.49 198.373 203.149 198.64 202.899C198.906 202.65 199.257 202.512 199.622 202.512C199.987 202.512 200.338 202.65 200.604 202.899C200.871 203.149 201.033 203.49 201.057 203.854V203.854Z" fill="#999999"/>
<path opacity="0.64" d="M206.22 217.223C206.22 217.61 206.067 217.981 205.793 218.254C205.52 218.528 205.149 218.681 204.763 218.681C204.376 218.681 204.005 218.528 203.732 218.254C203.458 217.981 203.305 217.61 203.305 217.223C203.305 216.837 203.458 216.466 203.732 216.193C204.005 215.919 204.376 215.766 204.763 215.766C205.149 215.766 205.52 215.919 205.793 216.193C206.067 216.466 206.22 216.837 206.22 217.223V217.223Z" fill="#999999"/>
<path opacity="0.64" d="M223.072 192.542C223.072 192.76 222.985 192.969 222.831 193.123C222.676 193.278 222.467 193.365 222.249 193.365C222.03 193.365 221.821 193.278 221.667 193.123C221.512 192.969 221.426 192.76 221.426 192.542C221.426 192.323 221.512 192.114 221.667 191.96C221.821 191.805 222.03 191.719 222.249 191.719C222.467 191.719 222.676 191.805 222.831 191.96C222.985 192.114 223.072 192.323 223.072 192.542V192.542Z" fill="#999999"/>
<path opacity="0.64" d="M272.066 204.366C272.041 204.737 271.877 205.085 271.605 205.338C271.334 205.592 270.976 205.733 270.605 205.733C270.233 205.733 269.876 205.592 269.605 205.338C269.333 205.085 269.169 204.737 269.144 204.366C269.131 204.166 269.158 203.966 269.226 203.777C269.293 203.588 269.399 203.415 269.536 203.269C269.673 203.122 269.838 203.005 270.022 202.926C270.206 202.846 270.404 202.805 270.605 202.805C270.805 202.805 271.004 202.846 271.188 202.926C271.372 203.005 271.537 203.122 271.674 203.269C271.811 203.415 271.917 203.588 271.984 203.777C272.051 203.966 272.079 204.166 272.066 204.366Z" fill="#999999"/>
<path opacity="0.64" d="M291.146 184.311C291.146 184.711 290.987 185.094 290.705 185.376C290.422 185.659 290.039 185.818 289.639 185.818C289.24 185.818 288.857 185.659 288.574 185.376C288.292 185.094 288.133 184.711 288.133 184.311C288.133 183.912 288.292 183.528 288.574 183.246C288.857 182.963 289.24 182.805 289.639 182.805C290.039 182.805 290.422 182.963 290.705 183.246C290.987 183.528 291.146 183.912 291.146 184.311Z" fill="#999999"/>
<path opacity="0.64" d="M290.976 212.087C290.953 212.425 290.801 212.743 290.553 212.974C290.305 213.206 289.978 213.335 289.638 213.335C289.299 213.335 288.972 213.206 288.723 212.974C288.475 212.743 288.324 212.425 288.3 212.087C288.287 211.903 288.312 211.719 288.374 211.546C288.435 211.372 288.532 211.213 288.657 211.079C288.783 210.944 288.935 210.837 289.103 210.764C289.272 210.69 289.454 210.652 289.638 210.652C289.822 210.652 290.004 210.69 290.173 210.764C290.342 210.837 290.493 210.944 290.619 211.079C290.744 211.213 290.841 211.372 290.902 211.546C290.964 211.719 290.989 211.903 290.976 212.087V212.087Z" fill="#999999"/>
<path opacity="0.64" d="M314.547 192.536C314.547 194.888 311.016 194.888 311.016 192.536C311.016 190.184 314.547 190.197 314.547 192.536Z" fill="#999999"/>
<path opacity="0.64" d="M321.385 204.882C321.385 205.251 321.239 205.604 320.978 205.865C320.717 206.125 320.364 206.272 319.995 206.272C319.627 206.272 319.273 206.125 319.013 205.865C318.752 205.604 318.605 205.251 318.605 204.882C318.605 204.513 318.752 204.16 319.013 203.899C319.273 203.639 319.627 203.492 319.995 203.492C320.364 203.492 320.717 203.639 320.978 203.899C321.239 204.16 321.385 204.513 321.385 204.882Z" fill="#999999"/>
<path opacity="0.64" d="M327.77 175.944C327.745 176.341 327.569 176.714 327.278 176.987C326.987 177.259 326.604 177.411 326.205 177.411C325.807 177.411 325.423 177.259 325.133 176.987C324.842 176.714 324.666 176.341 324.641 175.944C324.666 175.546 324.842 175.173 325.133 174.901C325.423 174.628 325.807 174.477 326.205 174.477C326.604 174.477 326.987 174.628 327.278 174.901C327.569 175.173 327.745 175.546 327.77 175.944V175.944Z" fill="#999999"/>
<path opacity="0.64" d="M333.508 213.111C333.52 213.273 333.498 213.436 333.444 213.589C333.391 213.742 333.306 213.882 333.196 214.001C333.085 214.12 332.952 214.215 332.803 214.28C332.654 214.345 332.494 214.378 332.332 214.378C332.169 214.378 332.009 214.345 331.86 214.28C331.711 214.215 331.578 214.12 331.467 214.001C331.357 213.882 331.272 213.742 331.219 213.589C331.165 213.436 331.144 213.273 331.156 213.111C331.178 212.815 331.311 212.537 331.529 212.335C331.747 212.132 332.034 212.02 332.332 212.02C332.629 212.02 332.916 212.132 333.134 212.335C333.352 212.537 333.486 212.815 333.508 213.111Z" fill="#999999"/>
<path opacity="0.64" d="M347.204 179.187C347.204 181.779 343.316 181.779 343.316 179.187C343.316 176.596 347.204 176.55 347.204 179.187Z" fill="#999999"/>
<path opacity="0.64" d="M133.66 260.633L137.814 225.832L137.93 225.877L165.865 237.262L133.66 260.633ZM137.976 226.104L133.9 260.224L165.476 237.307L137.976 226.104Z" fill="#999999"/>
<path opacity="0.64" d="M165.677 237.394H165.632L137.859 226.075L137.892 225.893L186.088 225.375L165.677 237.394ZM138.371 226.062L165.664 237.18L185.375 225.556L138.371 226.062Z" fill="#999999"/>
<path opacity="0.64" d="M137.892 226.067L137.859 225.879L199.851 203.668L185.784 225.549L137.892 226.067ZM199.385 204.037L138.475 225.866L185.693 225.361L199.385 204.037Z" fill="#999999"/>
<path opacity="0.64" d="M195.242 273.445L169.09 267.691L180.073 255.141L180.144 255.225L195.242 273.445ZM169.472 267.575L194.743 273.134L180.073 255.432L169.472 267.575Z" fill="#999999"/>
<path opacity="0.64" d="M179.949 255.469L185.677 225.191L197.684 246.074L197.6 246.12L179.949 255.469ZM185.781 225.729L180.208 255.113L197.432 245.997L185.781 225.729Z" fill="#999999"/>
<path opacity="0.64" d="M185.48 225.667L199.645 203.637L204.887 217.243L185.48 225.667ZM199.6 204.064L185.992 225.245L204.648 217.172L199.6 204.064Z" fill="#999999"/>
<path opacity="0.64" d="M249.631 195.731H249.508L222.027 192.621L246.002 172.309L249.631 195.731ZM222.487 192.492L249.404 195.537L245.847 172.684L222.487 192.492Z" fill="#999999"/>
<path opacity="0.64" d="M215.257 282.748L194.891 273.347L197.483 245.68L215.257 282.748ZM195.098 273.23L214.835 282.353L197.606 246.379L195.098 273.23Z" fill="#999999"/>
<path opacity="0.64" d="M204.743 217.412L199.508 203.805L222.219 192.453L222.336 192.589L204.743 217.412ZM199.748 203.889L204.795 217.01L221.967 192.79L199.748 203.889Z" fill="#999999"/>
<path opacity="0.64" d="M204.547 217.375L204.689 217.174L222.288 192.332L222.347 192.507L229.092 212.152L204.547 217.375ZM222.23 192.753L204.987 217.083L228.82 212.016L222.23 192.753Z" fill="#999999"/>
<path opacity="0.64" d="M283.468 223.063L270.34 204.156L289.779 212.035L283.468 223.063ZM270.865 204.577L283.455 222.72L289.501 212.145L270.865 204.577Z" fill="#999999"/>
<path opacity="0.64" d="M320.03 205.14L312.676 192.531L312.715 192.479L326.133 175.898L326.302 175.976L320.03 205.14ZM312.903 192.544L319.946 204.621L326.023 176.333L312.903 192.544Z" fill="#999999"/>
<path opacity="0.64" d="M289.662 212.179L289.578 212.01L312.815 192.391L312.866 192.488L320.137 204.948H320.014L289.662 212.179ZM312.763 192.682L289.999 211.9L319.806 204.818L312.763 192.682Z" fill="#999999"/>
<path opacity="0.64" d="M332.385 213.259L319.84 204.901L319.924 204.817L345.195 179.094L345.357 179.197L332.385 213.259ZM320.138 204.869L332.287 212.968L345.001 179.554L320.138 204.869Z" fill="#999999"/>
<path opacity="0.64" d="M312.822 192.645H312.758L289.301 184.306L326.456 175.824L312.822 192.645ZM290.001 184.325L312.777 192.424L325.976 176.109L290.001 184.325Z" fill="#999999"/>
<path opacity="0.64" d="M319.805 205.186L319.876 204.862L326.109 175.848L345.426 179.087L345.303 179.223L319.805 205.186ZM326.284 176.068L320.155 204.577L345.076 179.223L326.284 176.068Z" fill="#999999"/>
<path opacity="0.64" d="M171.096 267.632C171.096 270.068 167.441 270.068 167.441 267.632C167.441 265.196 171.096 265.196 171.096 267.632Z" fill="#999999"/>
<path opacity="0.64" d="M188.132 225.453C188.132 228.692 183.324 228.692 183.324 225.453C183.324 222.213 188.132 222.246 188.132 225.453Z" fill="#999999"/>
<path opacity="0.64" d="M198.969 246.029C198.982 246.221 198.955 246.414 198.891 246.595C198.826 246.777 198.725 246.943 198.594 247.084C198.462 247.225 198.303 247.337 198.126 247.414C197.949 247.491 197.759 247.53 197.566 247.53C197.374 247.53 197.183 247.491 197.006 247.414C196.829 247.337 196.67 247.225 196.539 247.084C196.407 246.943 196.306 246.777 196.241 246.595C196.177 246.414 196.15 246.221 196.163 246.029C196.15 245.837 196.177 245.644 196.241 245.462C196.306 245.281 196.407 245.114 196.539 244.973C196.67 244.833 196.829 244.72 197.006 244.644C197.183 244.567 197.374 244.527 197.566 244.527C197.759 244.527 197.949 244.567 198.126 244.644C198.303 244.72 198.462 244.833 198.594 244.973C198.725 245.114 198.826 245.281 198.891 245.462C198.955 245.644 198.982 245.837 198.969 246.029V246.029Z" fill="#999999"/>
<path opacity="0.64" d="M206.22 217.223C206.22 217.61 206.067 217.981 205.793 218.254C205.52 218.528 205.149 218.681 204.763 218.681C204.376 218.681 204.005 218.528 203.732 218.254C203.458 217.981 203.305 217.61 203.305 217.223C203.305 216.837 203.458 216.466 203.732 216.193C204.005 215.919 204.376 215.766 204.763 215.766C205.149 215.766 205.52 215.919 205.793 216.193C206.067 216.466 206.22 216.837 206.22 217.223V217.223Z" fill="#999999"/>
<path opacity="0.64" d="M247.405 172.48C247.405 172.873 247.249 173.251 246.97 173.529C246.692 173.807 246.315 173.964 245.921 173.964C245.528 173.964 245.15 173.807 244.872 173.529C244.594 173.251 244.438 172.873 244.438 172.48C244.438 172.086 244.594 171.709 244.872 171.431C245.15 171.152 245.528 170.996 245.921 170.996C246.315 170.996 246.692 171.152 246.97 171.431C247.249 171.709 247.405 172.086 247.405 172.48V172.48Z" fill="#999999"/>
<path opacity="0.64" d="M290.976 212.087C290.953 212.425 290.801 212.743 290.553 212.974C290.305 213.206 289.978 213.335 289.638 213.335C289.299 213.335 288.972 213.206 288.723 212.974C288.475 212.743 288.324 212.425 288.3 212.087C288.287 211.903 288.312 211.719 288.374 211.546C288.435 211.372 288.532 211.213 288.657 211.079C288.783 210.944 288.935 210.837 289.103 210.764C289.272 210.69 289.454 210.652 289.638 210.652C289.822 210.652 290.004 210.69 290.173 210.764C290.342 210.837 290.493 210.944 290.619 211.079C290.744 211.213 290.841 211.372 290.902 211.546C290.964 211.719 290.989 211.903 290.976 212.087V212.087Z" fill="#999999"/>
<path opacity="0.64" d="M314.547 192.536C314.547 194.888 311.016 194.888 311.016 192.536C311.016 190.184 314.547 190.197 314.547 192.536Z" fill="#999999"/>
<path opacity="0.64" d="M321.385 204.882C321.385 205.251 321.239 205.604 320.978 205.865C320.717 206.125 320.364 206.272 319.995 206.272C319.627 206.272 319.273 206.125 319.013 205.865C318.752 205.604 318.605 205.251 318.605 204.882C318.605 204.513 318.752 204.16 319.013 203.899C319.273 203.639 319.627 203.492 319.995 203.492C320.364 203.492 320.717 203.639 320.978 203.899C321.239 204.16 321.385 204.513 321.385 204.882Z" fill="#999999"/>
<path opacity="0.64" d="M347.204 179.187C347.204 181.779 343.316 181.779 343.316 179.187C343.316 176.596 347.204 176.55 347.204 179.187Z" fill="#999999"/>
</g>
<path d="M879.762 162.024L896.414 157.015L896.471 157.061L919.765 179.195L919.594 179.446L879.762 162.024ZM896.33 157.361L880.646 162.083L918.923 178.834L896.33 157.361Z" fill="#CCCCCC"/>
<path d="M884.824 218.836L920.231 239.462L892.126 251.156L892.109 250.975L884.824 218.836ZM919.543 239.417L885.274 219.45L892.346 250.731L919.543 239.417Z" fill="#CCCCCC"/>
<path d="M884.786 219.185L919.801 178.91L919.8 179.314L920.02 239.704L884.786 219.185ZM919.471 179.742L885.235 219.109L919.709 239.174L919.471 179.742Z" fill="#CCCCCC"/>
<path d="M919.414 239.397L951.691 230.883L941.112 249.109L919.414 239.397ZM951.054 231.367L920.326 239.472L940.956 248.701L951.054 231.367Z" fill="#CCCCCC"/>
<path d="M919.506 178.775L951.615 231.222L919.718 239.628L919.7 239.434L919.506 178.775ZM951.141 231.026L919.813 179.865L920.025 239.234L951.141 231.026Z" fill="#CCCCCC"/>
<path d="M895.488 158.71C893.461 157.524 895.232 154.484 897.259 155.663C897.463 155.777 897.643 155.93 897.787 156.115C897.931 156.299 898.037 156.51 898.099 156.735C898.161 156.961 898.177 157.197 898.147 157.429C898.117 157.661 898.04 157.884 897.923 158.086C897.805 158.289 897.649 158.466 897.462 158.607C897.276 158.748 897.063 158.85 896.836 158.908C896.61 158.966 896.374 158.979 896.142 158.944C895.911 158.91 895.688 158.831 895.488 158.71V158.71Z" fill="#CCCCCC"/>
<path d="M879.24 163.719C877.013 162.423 878.958 159.085 881.185 160.382C883.412 161.678 881.46 165.009 879.24 163.719Z" fill="#CCCCCC"/>
<path d="M950.178 233.193C947.421 231.596 949.831 227.479 952.574 229.058C955.316 230.636 952.922 234.791 950.178 233.193Z" fill="#CCCCCC"/>
<path d="M939.311 251.848C935.375 249.558 938.812 243.662 942.742 245.954C946.672 248.245 943.239 254.114 939.311 251.848Z" fill="#CCCCCC"/>
<path d="M918.488 241.8C915.337 239.967 918.092 235.237 921.242 237.07C924.393 238.902 921.639 243.639 918.488 241.8Z" fill="#CCCCCC"/>
<path d="M883.283 222.156C879.257 219.815 882.771 213.776 886.798 216.123C890.825 218.47 887.329 224.501 883.283 222.156Z" fill="#CCCCCC"/>
<path opacity="0.81" d="M901.865 274.245L901.789 273.927L893.165 239.774L918.785 250.333L918.676 250.487L901.865 274.245ZM893.597 240.273L901.999 273.542L918.332 250.494L893.597 240.273Z" fill="#333333"/>
<path opacity="0.96" d="M920.481 251.222C919.427 253.803 915.537 252.204 916.606 249.641C917.675 247.078 921.535 248.641 920.481 251.222Z" fill="#333333"/>
<path opacity="0.96" d="M903.997 275.285C902.943 277.866 899.053 276.267 900.122 273.704C901.19 271.141 905.051 272.703 903.997 275.285Z" fill="#333333"/>
<path opacity="0.96" d="M895.676 240.921C894.622 243.502 890.732 241.904 891.801 239.341C892.87 236.777 896.73 238.34 895.676 240.921Z" fill="#333333"/>
<path d="M66.5586 116.101L66.5975 115.803L113.252 114.695L107.815 129.468L66.5586 116.101ZM112.772 115.006L67.5046 116.088L107.601 129.086L112.772 115.006Z" fill="#CCCCCC"/>
<path d="M82.5503 72.8258L82.4531 72.5407L137 47.6211L135.879 59.3682H135.775L82.5503 72.8258ZM136.643 48.1265L84.1055 72.1001L135.594 59.1414L136.643 48.1265Z" fill="#CCCCCC"/>
<path d="M101.786 89.7697L101.683 89.6854L82.1914 72.5994L135.695 59.1094L135.837 59.3685L101.786 89.7697ZM82.8329 72.7549L101.78 89.3615L135.17 59.5565L82.8329 72.7549Z" fill="#CCCCCC"/>
<path d="M66.1289 116.12L66.5112 115.835L101.845 89.3281L101.923 89.5031L113.224 115.006H112.997L66.1289 116.12ZM101.722 89.8011L67.0749 115.79L112.764 114.701L101.722 89.8011Z" fill="#CCCCCC"/>
<path d="M83.9743 73.7289C82.5747 75.6727 79.6461 73.5798 81.0521 71.6295C82.4581 69.6793 85.3803 71.7786 83.9743 73.7289Z" fill="#CCCCCC"/>
<path d="M68.6733 117.442C66.6841 120.208 62.5373 117.228 64.5265 114.468C66.5157 111.707 70.656 114.682 68.6733 117.442Z" fill="#CCCCCC"/>
<path d="M103.787 91.0328C101.844 93.7088 97.8523 90.8255 99.7767 88.1495C101.701 85.4735 105.712 88.3309 103.787 91.0328Z" fill="#CCCCCC"/>
<path d="M139.135 49.5631C136.913 52.6538 132.28 49.3234 134.502 46.2327C136.725 43.1421 141.357 46.4466 139.135 49.5631Z" fill="#CCCCCC"/>
<path d="M137.232 60.3281C135.793 62.3237 132.806 60.1726 134.238 58.1834C135.67 56.1943 138.664 58.3389 137.232 60.3281Z" fill="#CCCCCC"/>
<path d="M114.878 116.204C113.07 118.711 109.312 116.009 111.113 113.495C112.914 110.981 116.679 113.709 114.878 116.204Z" fill="#CCCCCC"/>
<path d="M109.663 130.684C107.784 133.276 103.87 130.477 105.775 127.865C107.68 125.254 111.529 128.066 109.663 130.684Z" fill="#CCCCCC"/>
<path d="M221.203 38.3698L221.333 38.0977L322.599 67.1187L283.895 82.4035L221.203 38.3698ZM321.64 67.164L222.123 38.6549L283.927 82.0665L321.64 67.164Z" fill="#CCCCCC"/>
<path d="M283.375 82.2713L322.331 66.8828L316.415 89.4893L283.375 82.2713ZM321.884 67.3688L284.425 82.187L316.176 89.1329L321.884 67.3688Z" fill="#CCCCCC"/>
<path d="M316.113 89.5493L322.023 66.9688L362.126 73.4481V73.7397L316.113 89.5493ZM322.224 67.3381L316.528 89.1022L361.472 73.623L322.224 67.3381Z" fill="#CCCCCC"/>
<path d="M223.104 39.5493C221.361 41.9725 217.726 39.3614 219.469 36.9575C221.212 34.5537 224.847 37.126 223.104 39.5493Z" fill="#CCCCCC"/>
<path d="M287.028 84.4827C284.035 88.6489 277.782 84.1588 280.776 79.9861C283.769 75.8133 290.028 80.2971 287.028 84.4827Z" fill="#CCCCCC"/>
<path d="M323.969 68.4775C322.18 70.9655 318.455 68.2831 320.243 65.8015C322.031 63.3199 325.757 65.9959 323.969 68.4775Z" fill="#CCCCCC"/>
<path d="M318.205 90.6644C316.391 93.1913 312.607 90.47 314.421 87.943C316.236 85.4161 320.007 88.1504 318.205 90.6644Z" fill="#CCCCCC"/>
<path d="M363.135 74.338C362.933 74.6207 362.626 74.8112 362.283 74.8677C361.939 74.9243 361.588 74.8421 361.305 74.6393C361.022 74.4365 360.832 74.1298 360.775 73.7865C360.719 73.4432 360.801 73.0916 361.004 72.8089C361.206 72.5262 361.513 72.3356 361.856 72.2791C362.2 72.2226 362.551 72.3048 362.834 72.5076C363.117 72.7104 363.307 73.0171 363.364 73.3604C363.42 73.7037 363.338 74.0553 363.135 74.338V74.338Z" fill="#CCCCCC"/>
<path opacity="0.95" d="M371.957 100.32C374.86 101.862 372.553 106.216 369.65 104.674C366.748 103.132 369.054 98.7839 371.957 100.32Z" fill="#333333"/>
<path opacity="0.74" d="M368.036 85.4812C371.969 87.5675 368.846 93.4638 364.913 91.3774C360.98 89.2911 364.11 83.3884 368.036 85.4812Z" fill="#333333"/>
<path opacity="0.88" d="M404.972 80.8022C407.706 82.2536 405.535 86.355 402.801 84.9037C400.067 83.4523 402.231 79.3509 404.972 80.8022Z" fill="#333333"/>
<path opacity="0.92" d="M403.951 82.9793L370.71 102.722L366.277 88.2923H366.446L403.853 82.7266L403.951 82.9793ZM370.904 102.268L403.173 83.1088L366.647 88.5385L370.904 102.268Z" fill="#333333"/>
<path opacity="0.65" d="M403.91 83.0017L366.431 88.5739L366.38 88.5286L346.707 69.7773L347.232 69.9004L403.917 82.7101L403.91 83.0017ZM366.529 88.2629L403.081 82.8203L347.692 70.3087L366.529 88.2629Z" fill="#333333"/>
<path opacity="0.76" d="M347.989 68.5494C348.385 68.7599 348.681 69.1191 348.812 69.5481C348.944 69.977 348.899 70.4405 348.689 70.8366C348.478 71.2327 348.119 71.5289 347.69 71.6602C347.261 71.7914 346.798 71.7469 346.401 71.5364C346.005 71.3259 345.709 70.9666 345.578 70.5377C345.447 70.1087 345.491 69.6452 345.702 69.2491C345.912 68.853 346.271 68.5568 346.7 68.4256C347.129 68.2943 347.593 68.3389 347.989 68.5494V68.5494Z" fill="#333333"/>
</svg>
