<svg width="116" height="117" viewBox="0 0 116 117" fill="none" xmlns="http://www.w3.org/2000/svg">
<path d="M61.8279 17.1014C66.5966 12.9393 73.4505 14.1544 77.1623 19.8269L100.067 54.9267C101.865 57.6638 102.652 60.9424 102.293 64.1975C101.934 67.4526 100.451 70.4806 98.0989 72.7598L68.5167 98.5538C63.7407 102.734 56.8684 101.512 53.1824 95.8283L30.3287 60.813C28.5339 58.0747 27.7469 54.7976 28.1026 51.5429C28.4583 48.2883 29.9345 45.2585 32.2784 42.9725L61.8279 17.1014Z" fill="#1958C4"/>
<path d="M64.9792 15.2034C65.1774 15.1345 65.3572 15.0581 65.548 15.0075C65.9469 14.8869 66.3539 14.7952 66.7659 14.7331C67.0079 14.6766 67.2528 14.6334 67.4995 14.6037L52.6207 15.8093L52.243 15.8483C52.1332 15.8039 52.0008 15.9208 51.8872 15.9387C51.4794 16.0026 51.0753 16.088 50.6766 16.1947C50.6766 16.1947 50.4676 16.238 50.3648 16.2816L50.1004 16.409C49.7162 16.5522 49.3421 16.7211 48.9806 16.9146C48.8102 16.9921 48.6457 17.0822 48.4885 17.1841C47.9493 17.4905 47.4411 17.8484 46.971 18.2529L17.3814 44.0651C16.9939 44.4117 16.6301 44.784 16.2925 45.1793L16.0422 45.4827C15.7409 45.8493 15.4641 46.2353 15.2134 46.6381L15.1691 46.7479C14.8367 47.319 14.5408 47.9105 14.2832 48.5189L14.1723 48.7935C13.9844 49.2656 13.8248 49.7486 13.6944 50.2397L13.6574 50.3312L13.5613 50.5691L13.3411 51.6937L13.2524 51.9133L13.1784 52.0963C13.1199 52.5192 13.0829 52.9448 13.0677 53.3715L13.0085 53.5179C12.9912 54.0367 13.009 54.556 13.0618 55.0723L13.0026 55.2187L13.0276 55.4204C13.0917 56.0405 13.1911 56.6564 13.3254 57.2652L13.4918 57.9072L13.6293 58.4099L13.8798 59.1072L14.0688 59.588L14.3999 60.2966L14.5927 60.7151L15.2194 61.7986L38.1093 96.935C39.0958 98.5959 40.5182 99.9549 42.2222 100.865C43.9262 101.775 45.8467 102.201 47.7756 102.097L62.647 100.909C60.7179 101.008 58.7984 100.578 57.0961 99.6647C55.3938 98.7518 53.9733 97.391 52.9881 95.7295L30.3283 60.8138L29.7016 59.7303L29.5306 59.3632L29.1777 58.6032L28.9997 58.148L28.7383 57.425L28.6008 56.9224L28.4235 56.2546C28.2892 55.6459 28.1897 55.0299 28.1256 54.4099L28.0975 54.0579C28.0512 53.535 28.0359 53.0099 28.0517 52.4852L28.1256 52.3022C28.1408 51.8755 28.1778 51.4499 28.2363 51.027L28.3075 50.5874L28.5277 49.4628L28.6534 49.1517C28.787 48.6546 28.949 48.1657 29.1387 47.6872L29.2496 47.4127C29.508 46.8046 29.8038 46.2131 30.1355 45.6416L30.1798 45.5318C30.4324 45.1303 30.7092 44.7444 31.0086 44.3764L31.2589 44.073C31.5965 43.6777 31.9602 43.3054 32.3477 42.9588L61.9374 17.1466C62.4063 16.7467 62.9078 16.3867 63.4367 16.0704L63.9471 15.8083C64.2775 15.5843 64.6223 15.3822 64.9792 15.2034Z" fill="url(#paint0_linear)"/>
<path d="M69.8732 38.13L66.5641 41.0509C63.9612 43.2778 64.3434 45.0716 65.6268 47.0591L68.5 51.4347L74.7095 46.1303L78.3854 53.683L72.9701 58.2864L84.47 75.8768L77.9775 81.4074L66.4959 63.8244L60.9747 68.3212L56.4863 61.4621L61.9164 56.8221L58.6093 51.7815C56.8093 49.37 56.0292 46.3477 56.4373 43.3663C56.8454 40.3849 58.4089 37.6833 60.7907 35.8442C62.385 34.4573 64.0589 33.1645 65.8038 31.9725L69.8732 38.13Z" fill="white"/>
<defs>
<linearGradient id="paint0_linear" x1="46946.2" y1="15220.3" x2="46802.3" y2="11568.6" gradientUnits="userSpaceOnUse">
<stop stop-color="#142F8D"/>
<stop offset="0.1" stop-color="#163391"/>
<stop offset="0.19" stop-color="#1A3D9D"/>
<stop offset="0.28" stop-color="#224FB1"/>
<stop offset="0.38" stop-color="#2E68CD"/>
<stop offset="0.47" stop-color="#3C87F1"/>
<stop offset="0.51" stop-color="#4294FF"/>
<stop offset="0.61" stop-color="#3272D8"/>
<stop offset="0.72" stop-color="#2555B8"/>
<stop offset="0.82" stop-color="#1C40A0"/>
<stop offset="0.92" stop-color="#163392"/>
<stop offset="1" stop-color="#142F8D"/>
</linearGradient>
</defs>
</svg>
