<svg width="107" height="107" viewBox="0 0 107 107" fill="none" xmlns="http://www.w3.org/2000/svg">
<path d="M78.0798 35.3699C82.7252 35.9051 85.3598 40.3276 83.9905 45.103L75.6684 74.7796C75.0364 77.1161 73.6066 79.163 71.6279 80.564C69.6493 81.965 67.2471 82.6313 64.8398 82.4469L36.3856 78.8182C31.73 78.2728 29.0954 73.8708 30.4647 69.0954L38.7765 39.429C39.4112 37.0955 40.8399 35.0509 42.8153 33.649C44.7908 32.247 47.1889 31.5759 49.5949 31.7516L78.0798 35.3699Z" fill="url(#paint0_linear)"/>
<path d="M80.73 36.1858L81.1192 36.4103C81.3739 36.5663 81.6168 36.7404 81.8463 36.9314C81.9853 37.0511 82.1152 37.1811 82.235 37.3201L74.3571 29.7305L74.1627 29.5361L73.9683 29.3418C73.7389 29.1508 73.4959 28.9767 73.2413 28.8208C73.18 28.7594 73.1288 28.7082 73.0777 28.6571L72.8829 28.5653C72.6158 28.4256 72.3382 28.3065 72.0528 28.2089L71.6735 28.0562C71.2375 27.9114 70.7872 27.8131 70.3299 27.763L41.706 24.1835C41.3284 24.1369 40.9474 24.121 40.5669 24.1359L40.2692 24.1472C39.9179 24.152 39.5675 24.1875 39.2219 24.2533C38.755 24.336 38.2948 24.4542 37.8454 24.6068L37.763 24.6892C37.4034 24.8238 37.0539 24.9687 36.7044 25.134C36.7044 25.134 36.622 25.2164 36.5705 25.2679L35.8404 25.6911L35.7168 25.8147C35.7168 25.8147 35.655 25.8765 35.6138 25.9177C35.3976 26.134 35.1097 26.2786 34.8627 26.4847C34.8627 26.4847 34.8112 26.5362 34.7803 26.5671C34.4942 26.8228 34.2225 27.0944 33.9668 27.3806C33.9668 27.3806 33.905 27.4424 33.8844 27.463C33.8638 27.4836 33.8123 27.5351 33.7814 27.566C33.4636 27.9036 33.1676 28.2611 32.8952 28.6363C32.7819 28.7496 32.6686 28.8629 32.627 29.0478L32.4103 29.3872C32.297 29.5005 32.2451 29.6957 32.1522 29.8499C32.0593 30.0042 32.0386 30.0658 31.9766 30.1892C31.9146 30.3126 31.8214 30.549 31.749 30.7237L31.6146 31.0218C31.4994 31.31 31.4024 31.6052 31.3243 31.9054L22.9941 61.6568C22.5568 63.0114 22.4972 64.4574 22.8219 65.8384C23.1466 67.2193 23.8431 68.4828 24.8362 69.4922L32.7141 77.0817C31.725 76.0677 31.0321 74.8019 30.7094 73.4199C30.3868 72.0379 30.4465 70.5917 30.8823 69.2361L38.7816 39.4245C38.8647 39.1163 38.9683 38.8286 39.0719 38.5409C39.1036 38.4526 39.1416 38.3668 39.1857 38.2839C39.2685 38.0784 39.3512 37.8934 39.4442 37.698C39.4966 37.5885 39.5552 37.4821 39.6198 37.3793C39.7433 37.2557 39.7851 37.0503 39.878 36.896L40.0946 36.5566C40.2079 36.4433 40.3212 36.33 40.3731 36.1349C40.6924 35.8156 40.94 35.4248 41.2491 35.0748L41.4344 34.8894C41.6899 34.603 41.9615 34.3314 42.248 34.0759C42.248 34.0759 42.32 34.0038 42.3612 33.9626C42.6021 33.7599 42.8565 33.5739 43.1226 33.4059C43.1947 33.3338 43.2668 33.2617 43.3491 33.1793L44.0793 32.7561L44.3157 32.6424C44.6514 32.4708 44.9983 32.3222 45.3538 32.1976L45.5491 32.1251C46.0018 31.9691 46.4654 31.8475 46.9359 31.7613C47.2826 31.7046 47.6324 31.6692 47.9832 31.6552L48.2705 31.6542C48.6511 31.6393 49.0321 31.6552 49.4096 31.7018L78.1873 35.3731C78.6415 35.4267 79.0884 35.5284 79.5205 35.6766C79.6536 35.715 79.7838 35.7626 79.9101 35.819C80.1925 35.9202 80.4665 36.0428 80.73 36.1858Z" fill="url(#paint1_linear)"/>
<path d="M60.0371 50.8638C57.8348 50.659 55.6178 51.2261 53.7645 52.4683C51.9113 53.7106 50.5367 55.5509 49.8754 57.6751C49.5755 58.6439 49.4942 59.6639 49.6373 60.6611C49.7804 61.6584 50.1443 62.6077 50.7027 63.4403C51.261 64.2729 51.9998 64.9677 52.8652 65.4743C53.7307 65.981 54.7012 66.2867 55.7062 66.3693C57.9079 66.5931 60.1308 66.0403 61.9913 64.8062C63.8519 63.5722 65.2337 61.7342 65.8983 59.6092C66.2077 58.6349 66.2954 57.6069 66.155 56.6011C66.0146 55.5953 65.6496 54.6374 65.0871 53.7981C64.5245 52.9587 63.7787 52.2593 62.9047 51.7514C62.0307 51.2436 61.0507 50.9402 60.0371 50.8638ZM56.4481 63.6253C55.7911 63.5804 55.1551 63.3872 54.5878 63.0601C54.0205 62.7331 53.5366 62.2806 53.1724 61.7368C52.8082 61.1929 52.5732 60.5717 52.4849 59.9198C52.3967 59.2679 52.4574 58.6022 52.6627 57.9725C53.0908 56.5921 53.9865 55.3977 55.1943 54.5966C56.4022 53.7956 57.8458 53.4385 59.2747 53.5873C59.9296 53.6341 60.5632 53.8283 61.1282 54.1553C61.6933 54.4824 62.1752 54.934 62.5381 55.4764C62.901 56.0188 63.1355 56.6381 63.2241 57.288C63.3127 57.9379 63.2531 58.6017 63.0498 59.2299C62.6215 60.6088 61.7277 61.8024 60.5225 62.6049C59.3172 63.4073 57.8762 63.7682 56.4481 63.6253ZM70.3134 51.8029C70.1617 52.2987 69.8411 52.7281 69.4079 53.0157C68.9746 53.3033 68.4563 53.4307 67.9439 53.3757C67.7081 53.3594 67.48 53.29 67.2763 53.1727C67.0727 53.0555 66.8989 52.8934 66.7678 52.6985C66.6368 52.5036 66.5518 52.281 66.5193 52.0472C66.4869 51.8134 66.5077 51.5744 66.5803 51.3481C66.7353 50.8515 67.0577 50.4218 67.4921 50.1328C67.9264 49.8439 68.4456 49.7138 68.9602 49.7649C69.1951 49.785 69.4217 49.8572 69.6236 49.9765C69.8255 50.0957 69.9975 50.2589 70.1271 50.4541C70.2568 50.6494 70.3408 50.8717 70.373 51.1051C70.4052 51.3384 70.3849 51.5768 70.3134 51.8029ZM75.1015 54.2671C75.4539 53.0328 75.5756 51.7474 75.4604 50.4761C75.364 49.4388 75.0071 48.4467 74.4226 47.5916C73.849 46.7202 73.0657 46.0083 72.1432 45.5196C71.0298 44.924 69.8165 44.5326 68.5596 44.3637C66.9147 44.0883 66.3904 43.9997 62.1532 43.4974C57.916 42.9951 57.4122 42.9064 55.6939 42.8065C54.3797 42.6706 53.0491 42.74 51.7497 43.0122C50.5878 43.2724 49.4832 43.7528 48.4961 44.4272C47.5085 45.0901 46.6588 45.9399 45.9958 46.9275C45.2226 48.0122 44.6292 49.2129 44.2388 50.4823C43.7427 52.0612 43.5532 52.5979 42.3891 56.6834C41.2249 60.7689 41.1076 61.2948 40.7347 62.9138C40.4111 64.1355 40.3071 65.4017 40.4277 66.6529C40.538 67.6901 40.9015 68.6805 41.4861 69.5373C42.0577 70.403 42.8327 71.114 43.745 71.6094C44.8659 72.2044 46.0859 72.5956 47.3491 72.7651C48.9838 73.0304 49.5081 73.1189 53.7452 73.6418C57.9822 74.1647 58.4759 74.2226 60.1942 74.3225C61.5083 74.4635 62.8396 74.394 64.1384 74.1168C66.478 73.606 68.5598 72.2517 69.9841 70.314C70.753 69.2193 71.3461 68.0126 71.7413 66.7386C72.2476 65.17 72.4371 64.6333 73.591 60.5376C74.7449 56.4419 74.7286 55.8861 75.1015 54.2671ZM68.8424 66.2259C68.5326 67.2148 68.0665 68.1499 67.462 68.9954C67.0409 69.6412 66.4893 70.1927 65.8436 70.6139C65.2053 71.0585 64.4847 71.3689 63.7262 71.5259C62.7275 71.7511 61.7011 71.8113 60.6881 71.704C59.0215 71.5728 58.4862 71.577 54.3626 71.0223C50.239 70.4677 49.6728 70.4824 48.0796 70.1757C47.1165 70.0584 46.1867 69.7619 45.3379 69.3014C44.7383 68.9879 44.2288 68.5283 43.8557 67.9644C43.4831 67.4034 43.2517 66.7593 43.1806 66.0859C43.0941 65.1296 43.1819 64.1629 43.4396 63.2325C43.8642 61.5821 43.9293 61.1493 45.062 57.1361C46.1947 53.1229 46.3426 52.6277 46.8695 51.0589C47.1612 50.0871 47.6062 49.1661 48.1878 48.331C48.6238 47.691 49.1766 47.1382 49.8166 46.7022C50.4504 46.2585 51.1682 45.9513 51.9236 45.8005C52.9225 45.5764 53.9487 45.5162 54.9617 45.6225C56.6283 45.7536 57.1739 45.7597 61.2976 46.2937C65.4213 46.8278 65.9875 46.8337 67.5703 47.1508C68.5323 47.28 69.4629 47.5721 70.3223 48.0146C70.9091 48.3429 71.4094 48.8043 71.7838 49.3623C72.1582 49.9203 72.3964 50.5598 72.4796 51.2302C72.5603 52.1894 72.4761 53.1579 72.2309 54.0938C71.8581 55.6923 71.7309 56.1668 70.5981 60.2006C69.4652 64.2343 69.4101 64.698 68.8424 66.2259Z" fill="white"/>
<defs>
<linearGradient id="paint0_linear" x1="84.5107" y1="34.4306" x2="27.1376" y2="81.9594" gradientUnits="userSpaceOnUse">
<stop stop-color="#FFBE1E"/>
<stop offset="0.52" stop-color="#FF47C3"/>
<stop offset="0.57" stop-color="#EE42BD"/>
<stop offset="0.67" stop-color="#C235AE"/>
<stop offset="0.81" stop-color="#7B1F95"/>
<stop offset="0.99" stop-color="#1B0274"/>
<stop offset="1" stop-color="#130071"/>
</linearGradient>
<linearGradient id="paint1_linear" x1="23.5101" y1="73.8184" x2="69.6071" y2="18.0046" gradientUnits="userSpaceOnUse">
<stop stop-color="#3D003B"/>
<stop offset="0.55" stop-color="#FF47C3"/>
<stop offset="0.63" stop-color="#EE43B3"/>
<stop offset="0.79" stop-color="#C23889"/>
<stop offset="1" stop-color="#7F2849"/>
</linearGradient>
</defs>
</svg>
