<svg width="105" height="50" viewBox="0 0 105 50" fill="none" xmlns="http://www.w3.org/2000/svg">
<g clip-path="url(#clip0_61_3273)">
<path d="M16.332 49.088C16.332 49.088 4.88907 51.1895 1.24653 43.239C-3.47914 32.9244 6.22968 25.1037 13.6763 26.5608C29.9023 29.7358 25.995 -5.2923 52.0363 1.85649C59.3599 3.86668 79.1422 -8.07457 84.6599 11.0725C85.9705 15.6252 90.6206 16.1267 97.3688 19.0157C110.576 24.6697 104.535 49.1851 95.1 49.2796C85.6648 49.374 16.332 49.088 16.332 49.088Z" fill="#F9FFE9"/>
<path d="M65.2221 19.2449L67.598 47.4993C67.598 47.4993 67.847 49.2119 66.5731 49.215C64.4785 49.22 56.1477 49.215 56.1477 49.215C56.1477 49.215 57.7242 48.8584 57.705 48.0563C57.6826 47.1107 54.9297 18.9785 54.9297 18.9785L65.2221 19.2449Z" fill="#D86713"/>
<path d="M55.4709 48.7015C55.8826 48.7015 63.8395 48.7277 65.8782 48.7015C66.7674 48.6907 66.9231 47.9113 66.9305 47.4067C66.9333 47.266 66.9243 47.1253 66.9035 46.9862L66.8418 46.2538L66.6842 44.382L66.545 42.7283L66.3662 40.6037L66.2158 38.8101L64.5287 18.7337L54.2344 18.4639C54.2344 18.4639 55.3946 30.237 56.2152 38.807C56.307 39.7618 56.3941 40.6773 56.4746 41.5319C56.5003 41.8048 56.526 42.0713 56.5517 42.3313C56.6288 43.1408 56.6974 43.887 56.7579 44.5443C56.7899 44.8912 56.8196 45.2127 56.8462 45.5079C56.9507 46.6643 57.012 47.4017 57.0131 47.542C57.0138 47.6187 57.0071 47.6952 56.9931 47.7706C56.8223 48.6722 55.6255 48.7015 55.4709 48.7015Z" fill="#EE9849"/>
<path d="M40.7991 3.87012H90.2213L84.4333 27.1193L83.6408 30.3036L80.9453 41.1324H30.8633L40.7991 3.87012Z" fill="#F1A34F"/>
<path d="M90.2216 3.87012L91.0238 4.13763L82.0119 41.9411L80.9453 41.1324L90.2216 3.87012Z" fill="#EE9849"/>
<path d="M82.0115 41.941H32.2378L30.8633 41.1323H80.9449L82.0115 41.941Z" fill="#D86713"/>
<path d="M64.5347 48.7129H53.7578V49.2252H64.5347V48.7129Z" fill="#F1A34F"/>
<path d="M56.4961 41.9409L56.5516 42.3322L66.6867 44.3797L66.5476 42.7261L66.4813 41.9409H56.4961Z" fill="#D86713"/>
<path opacity="0.4" d="M55.4727 48.7012C55.8843 48.7012 63.8412 48.7274 65.8799 48.7012C66.7692 48.6904 66.9249 47.911 66.9322 47.4064L56.8453 45.5088C56.9497 46.6652 57.011 47.4026 57.0122 47.5429C57.0129 47.6195 57.0061 47.6961 56.9921 47.7715C56.8241 48.6719 55.6272 48.7012 55.4727 48.7012Z" fill="#D86713"/>
<path opacity="0.4" d="M59.5977 33.8123L80.9468 41.1327L82.77 33.8081L59.5977 33.8123Z" fill="#D86713"/>
<path d="M40.7999 3.87012H90.222L82.7735 33.8078L32.7812 33.8171L40.7999 3.87012Z" fill="#F1A34F"/>
<path d="M54.5759 37.6029C54.7185 36.8705 55.4297 36.2734 56.1644 36.2734C56.899 36.2734 57.3782 36.8686 57.2355 37.6029C57.0929 38.3372 56.3817 38.9327 55.6471 38.9327C54.9124 38.9327 54.4333 38.3376 54.5759 37.6029Z" fill="#D86713"/>
<path d="M35.1133 32.5198H81.3874L86.6277 11.6432L87.0293 10.042L87.3724 8.67665L88.176 5.47461H42.5687L41.686 8.67665L41.3098 10.042L40.8685 11.6432L35.1133 32.5198Z" fill="#E9F3FE"/>
<path d="M42.5663 5.47461H88.1736L87.3699 8.67665H41.6836L42.5663 5.47461Z" fill="#AFCDFB"/>
<path d="M85.9862 6.521C86.2074 6.521 86.3419 6.70024 86.2868 6.92149C86.2317 7.14275 86.0077 7.3216 85.7857 7.3216C85.5637 7.3216 85.4299 7.14236 85.4851 6.92149C85.5402 6.70062 85.7653 6.521 85.9862 6.521Z" fill="#E9F3FE"/>
<path d="M84.6577 6.521C84.8789 6.521 85.0135 6.70024 84.9583 6.92149C84.9032 7.14275 84.6793 7.3216 84.4572 7.3216C84.2352 7.3216 84.1018 7.14236 84.157 6.92149C84.2121 6.70062 84.4368 6.521 84.6577 6.521Z" fill="#E9F3FE"/>
<path d="M82.7273 6.92149C82.7824 6.70024 83.0063 6.521 83.2284 6.521C83.4504 6.521 83.5838 6.70024 83.5286 6.92149C83.4735 7.14275 83.2496 7.3216 83.0275 7.3216C82.8055 7.3216 82.6721 7.14236 82.7273 6.92149Z" fill="#E9F3FE"/>
<path d="M7.62133 33.2964H17.2773V23.6402H7.62133L7.62133 33.2964Z" fill="#4A75CB"/>
<path d="M4.64477 33.2964H14.3008L14.3008 23.6402H4.64477L4.64477 33.2964Z" fill="#699DEE"/>
<path d="M78.6721 49.208H88.3281V39.5518H78.6721V49.208Z" fill="#82B479"/>
<path d="M75.6955 49.208H85.3516V39.5518H75.6955V49.208Z" fill="#A8D29F"/>
<path d="M22.0355 33.2964H6.04688V49.2854H22.0355V33.2964Z" fill="#82B479"/>
<path d="M26.9652 33.2964H10.9766V49.2854H26.9652V33.2964Z" fill="#A8D29F"/>
<path d="M10.9768 33.2964L6.04688 35.6974V33.2964H10.9768Z" fill="#609154"/>
<path d="M25.1094 39.8705C25.0725 39.911 25.0481 39.9613 25.039 40.0154C25.03 40.0695 25.0368 40.1251 25.0586 40.1754C25.1322 40.3789 25.3754 40.6059 25.6576 40.833C25.6938 40.8619 25.7258 40.8885 25.7539 40.9132L25.7755 40.9324L25.7921 40.9475C26.0553 41.1903 25.9563 41.2458 26.4296 41.7384C26.9693 42.3001 27.3404 42.3101 27.4461 42.2588C27.5355 42.2153 27.3539 41.9177 27.1527 41.5827C27.1431 41.5669 27.1335 41.5503 27.1234 41.5341C27.0965 41.4894 27.0699 41.4443 27.0433 41.3996C26.8074 40.9968 26.8679 40.8079 26.9238 40.2085C26.9693 39.7213 27.6816 37.4876 27.6816 37.4876L26.6478 37.3091C26.6478 37.3091 26.3363 39.0884 25.9925 39.3621C25.809 39.5081 25.6036 39.5101 25.4274 39.6184C25.4151 39.6257 25.4028 39.6334 25.3889 39.6415C25.2859 39.705 25.1919 39.782 25.1094 39.8705Z" fill="#E49963"/>
<path d="M25.1094 39.8703C25.0725 39.9108 25.0481 39.9611 25.039 40.0152C25.03 40.0693 25.0368 40.1248 25.0586 40.1752C25.1488 40.3783 25.3858 40.6046 25.6587 40.8304C25.6942 40.8601 25.7258 40.8875 25.7539 40.9129L25.7755 40.9322L25.7921 40.9472C26.0553 41.1901 25.9563 41.2456 26.4296 41.7382C26.9693 42.2998 27.3404 42.3098 27.4461 42.2586C27.5355 42.215 27.3539 41.9174 27.1527 41.5825C26.7746 41.4354 26.4422 41.191 26.1891 40.874C25.8642 40.4592 25.6495 39.9265 25.4263 39.6182C25.4139 39.6255 25.4016 39.6332 25.3877 39.6413C25.2851 39.7048 25.1915 39.7818 25.1094 39.8703Z" fill="#4A75CB"/>
<path d="M33.4487 39.2248C33.5126 39.5436 33.9675 39.4904 34.4759 39.3663C34.9843 39.2422 34.8633 39.3898 35.5868 39.3096C36.3103 39.2295 36.5292 38.96 36.5504 38.8525C36.5701 38.7569 36.2128 38.7234 35.8296 38.679L35.6843 38.6617C35.2514 38.6073 34.9346 38.3283 34.5414 38.0989C34.1691 37.8815 33.6133 36.9961 33.6133 36.9961L32.6211 37.0732C32.6211 37.0732 33.1418 37.8638 33.343 38.2076C33.4614 38.41 33.4552 38.6771 33.4406 38.8837C33.4281 38.9973 33.4308 39.112 33.4487 39.2248Z" fill="#E49963"/>
<path d="M34.4764 39.3665C34.9849 39.2424 34.8638 39.39 35.5873 39.3098C36.3108 39.2296 36.5298 38.9602 36.551 38.8527C36.5706 38.7571 36.2133 38.7235 35.8302 38.6792L35.8263 38.6865C35.5165 38.8855 35.1586 38.9968 34.7906 39.0088C34.2995 39.0207 33.7799 38.88 33.4415 38.8854C33.4289 38.9984 33.4314 39.1126 33.4488 39.225C33.5132 39.5438 33.968 39.4906 34.4764 39.3665Z" fill="#4A75CB"/>
<path d="M31.2422 24.6535C31.2422 24.6535 31.4785 24.0753 31.7383 24.0507C31.9981 24.026 32.8257 23.8965 32.8846 24.0152C32.9436 24.1339 32.8846 24.5591 32.7077 24.7125C32.5308 24.8659 31.4311 25.1145 31.4311 25.1145L31.2422 24.6535Z" fill="#E49963"/>
<path d="M29.6454 32.88L27.5072 38.635C27.291 38.6512 27.0736 38.6313 26.8639 38.576C26.5744 38.4927 26.2422 38.2734 26.2422 38.2734C26.2422 38.2734 26.7726 32.7482 27.7455 31.5991C28.7183 30.45 29.6454 32.88 29.6454 32.88Z" fill="#4A75CB"/>
<path d="M21.191 30.5528C21.191 30.5528 27.3344 28.4756 28.7047 28.9177C30.075 29.3598 34.1885 37.544 34.1885 37.544C34.1885 37.544 34.096 37.6673 33.8416 37.7625C33.6069 37.8523 33.0349 37.8458 33.0349 37.8458C33.0349 37.8458 29.3222 34.6634 28.8805 33.7352C28.4387 32.807 28.2614 31.9235 27.8197 32.0114C27.378 32.0993 22.118 34.1773 20.9247 32.9396C19.7313 31.7019 20.0451 30.0941 20.0451 30.0941L21.191 30.5528Z" fill="#699DEE"/>
<path d="M24.9452 20.8893C25.0431 20.6866 25.1529 20.3269 25.2065 19.6855C25.1984 19.7491 25.0878 20.5582 24.7767 21.0161C23.4993 21.8549 21.0502 24.6561 21.0987 25.1868C21.0987 25.1868 20.2361 23.7221 20.221 23.7148C20.221 23.7148 18.6299 21.6915 20.5159 20.5324C21.4745 19.9434 21.4695 19.1871 21.4294 18.5307C21.3893 17.8742 21.6908 15.0465 23.6107 15.7866C23.6107 15.7866 23.9191 15.6493 24.0571 15.6709C23.9945 15.683 23.936 15.7107 23.8871 15.7515C24.1095 15.7384 24.4267 15.755 24.6935 15.9057C25.3973 16.3054 26.0271 19.8937 24.9452 20.8893Z" fill="#1C468A"/>
<path d="M24.6996 21.0574C24.7062 21.0605 24.0829 21.3839 23.6138 21.2559C23.1729 21.1356 22.8849 20.5621 22.8907 20.5621C23.0777 20.5235 23.1316 20.2683 23.1274 19.1655L23.2118 19.1821L24.6303 19.4635C24.6303 19.4635 24.5979 19.9102 24.5971 20.3312C24.5975 20.6846 24.6187 21.0196 24.6996 21.0574Z" fill="#E49963"/>
<path d="M24.6318 19.4636C24.6318 19.4636 24.5994 19.9104 24.5986 20.3313C23.8042 20.3089 23.3844 19.5843 23.2109 19.1826L24.6318 19.4636Z" fill="#D68D5D"/>
<path d="M23.0638 19.0283C23.0638 19.0283 22.6476 18.3703 22.5473 17.8087C22.476 17.407 22.6803 15.9199 24.1763 16.1331C24.4774 16.1749 24.7654 16.2837 25.0189 16.4515C25.3438 16.6712 25.8125 17.1453 25.2887 18.4436L25.1526 18.8822L23.0638 19.0283Z" fill="#1C468A"/>
<path d="M24.8982 19.8624C24.8982 19.8624 23.0183 19.8933 23.0172 18.7226C23.016 17.552 22.7724 16.7679 23.9723 16.6982C25.1722 16.6284 25.4062 17.0752 25.5014 17.466C25.5966 17.8569 25.3869 19.8243 24.8982 19.8624Z" fill="#E49963"/>
<path d="M23.1222 16.9159C23.1222 16.9159 24.4062 16.0382 24.812 16.6461C24.9354 16.5404 25.1547 16.4641 25.4446 16.8157C25.8805 17.3438 25.4928 18.2773 25.4928 18.2773C25.3139 18.2982 25.2715 17.6845 25.1778 17.3865C25.1073 17.1614 24.8695 16.9321 24.7596 16.8326C24.5958 17.2023 24.1429 18.0869 23.5231 18.2469C22.7333 18.4496 22.3906 18.238 22.3906 18.238C22.7805 17.8956 23.0392 17.4282 23.1222 16.9159Z" fill="#1C468A"/>
<path d="M19.7477 30.5852C19.8491 30.867 20.1601 30.9395 20.5768 30.8905C21.3712 30.7976 22.5511 30.2641 23.4018 29.8953C24.6981 29.3333 25.2874 29.8613 25.7002 29.5036C26.1131 29.1459 25.2284 28.3507 25.9947 24.6576C26.2545 23.4052 24.609 20.7182 24.609 20.7182C24.609 20.7182 24.4934 21.4459 22.8903 20.564C22.8822 20.5594 22.2146 21.4505 21.6183 22.5811C20.9599 23.8296 20.3293 25.3383 20.5147 26.1154C20.8674 27.596 19.4532 29.7677 19.7477 30.5852Z" fill="#C65447"/>
<path d="M24.6094 20.7183L25.5796 24.7039C25.5796 24.7039 25.7006 24.919 25.8879 25.2255C26.3327 25.9444 27.1557 27.1659 27.6826 27.29C27.9424 27.3513 28.4951 27.1358 29.1088 26.8275C30.2651 26.2431 31.6331 25.3272 31.6331 25.3272C31.7225 24.7953 31.26 24.3613 31.26 24.3613C31.26 24.3613 28.4901 25.402 28.2149 25.4221C27.6151 25.4648 27.005 22.5696 26.4445 21.606C26.0394 20.9102 24.6094 20.7183 24.6094 20.7183Z" fill="#C65447"/>
<path d="M24.4805 19.1524C24.4805 19.1524 24.5152 19.3012 24.8852 19.2781C24.8852 19.2781 25.1959 19.2588 25.1866 19.0954C25.1866 19.0954 24.8852 18.9789 24.4805 19.1524Z" fill="white"/>
<path d="M19.7477 30.5856C19.8491 30.8674 20.1601 30.9399 20.5768 30.8909C21.1264 30.6512 23.502 29.7311 23.4754 29.1074C23.4369 28.1823 23.0186 28.1549 23.3131 27.0151C23.5506 26.1004 21.3535 24.4001 21.0066 24.0293C20.3482 25.2782 20.3301 25.3372 20.5155 26.1143C20.8674 27.5964 19.4532 29.7681 19.7477 30.5856Z" fill="#AA413E"/>
<path d="M25.8906 25.2257C26.3354 25.9446 27.1584 27.1661 27.6853 27.2902C27.9451 27.3515 28.4978 27.136 29.1115 26.8277C28.6651 26.9433 28.2315 26.9394 27.8102 26.899C27.3534 26.8546 27.2208 26.2946 26.4996 25.455C26.0286 24.9088 25.9138 25.0457 25.8906 25.2257Z" fill="#AA413E"/>
<path d="M23.6895 26.9928C23.6895 26.9928 24.0873 26.6844 24.4631 26.7572C24.839 26.8301 25.0228 27.0887 25.0082 27.2063C24.9935 27.3239 24.7946 27.6557 24.5071 27.6854C24.2195 27.7151 23.4023 27.5085 23.4023 27.5085L23.6895 26.9928Z" fill="#E49963"/>
<path d="M22.8927 20.5625C22.8927 20.5625 21.3609 20.6569 20.8305 21.3966C20.0843 22.4374 18.2927 27.0691 19.1411 27.6608C20.097 28.3273 23.802 27.6411 23.802 27.6411C23.802 27.6411 23.9149 27.1131 23.7577 26.8579C23.6004 26.6027 21.0476 26.1899 20.9288 26.0719C20.8101 25.954 22.4024 23.7734 22.4024 23.4199C22.4024 23.0665 22.8927 20.5625 22.8927 20.5625Z" fill="#C65447"/>
<path d="M24.0898 29.0738H29.7321L30.7493 25.5264H25.1155L24.0898 29.0738Z" fill="#1C468A"/>
<path d="M22.3345 29.0742H29.7109V28.9358H22.3345V29.0742Z" fill="#163560"/>
<path d="M27.9414 27.2426C27.9769 27.1181 27.9029 27.0171 27.7803 27.0171C27.7147 27.0207 27.6517 27.0442 27.5998 27.0845C27.5479 27.1248 27.5095 27.1799 27.4897 27.2426C27.4538 27.3675 27.5259 27.4685 27.6508 27.4685C27.7164 27.4648 27.7794 27.4412 27.8313 27.4008C27.8832 27.3605 27.9217 27.3053 27.9414 27.2426Z" fill="#163560"/>
<path d="M1.82105 49.3156H103.18C103.204 49.3154 103.227 49.3059 103.243 49.2889C103.26 49.2719 103.27 49.2489 103.27 49.225C103.27 49.201 103.26 49.1781 103.243 49.1612C103.227 49.1443 103.204 49.1348 103.18 49.1348H1.82105C1.79709 49.1348 1.77411 49.1443 1.75714 49.1612C1.74016 49.1781 1.73057 49.201 1.73047 49.225C1.73057 49.249 1.74015 49.2719 1.75711 49.2889C1.77408 49.3059 1.79706 49.3154 1.82105 49.3156Z" fill="#283250"/>
<path d="M15.1078 49.1346H8.11719L8.78287 40.5581H13.9757L15.1078 49.1346Z" fill="#D86713"/>
<path d="M13.8422 49.1346H6.85156L7.51724 40.5581H13.1765L13.8422 49.1346Z" fill="#F1A34F"/>
<path d="M10.3858 42.543C10.0349 42.5426 9.6986 42.4031 9.45053 42.155C9.20245 41.9069 9.06291 41.5706 9.0625 41.2197C9.0625 41.1979 9.06681 41.1762 9.07518 41.156C9.08354 41.1358 9.09581 41.1175 9.11127 41.102C9.12673 41.0865 9.14509 41.0743 9.16529 41.0659C9.1855 41.0575 9.20715 41.0532 9.22902 41.0532C9.25088 41.0532 9.27254 41.0575 9.29274 41.0659C9.31294 41.0743 9.3313 41.0865 9.34676 41.102C9.36222 41.1175 9.37449 41.1358 9.38286 41.156C9.39123 41.1762 9.39553 41.1979 9.39553 41.2197C9.39553 41.4824 9.49986 41.7342 9.68556 41.92C9.87127 42.1057 10.1231 42.21 10.3858 42.21C10.6484 42.21 10.9003 42.1057 11.086 41.92C11.2717 41.7342 11.376 41.4824 11.376 41.2197C11.376 41.1756 11.3935 41.1332 11.4248 41.102C11.456 41.0708 11.4983 41.0532 11.5425 41.0532C11.5867 41.0532 11.629 41.0708 11.6603 41.102C11.6915 41.1332 11.709 41.1756 11.709 41.2197C11.7086 41.5706 11.5691 41.9069 11.321 42.155C11.0729 42.4031 10.7366 42.5426 10.3858 42.543Z" fill="#D86713"/>
<path d="M79.5922 49.1346H72.6016L73.2672 40.5581H78.4605L79.5922 49.1346Z" fill="#4A75CB"/>
<path d="M78.3265 49.1346H71.3359L72.002 40.5581H77.6609L78.3265 49.1346Z" fill="#699DEE"/>
<path d="M74.874 42.5432C74.5232 42.5428 74.1869 42.4033 73.9388 42.1552C73.6907 41.9071 73.5512 41.5708 73.5508 41.2199C73.5508 41.1758 73.5683 41.1334 73.5996 41.1022C73.6308 41.071 73.6731 41.0534 73.7173 41.0534C73.7615 41.0534 73.8038 41.071 73.835 41.1022C73.8663 41.1334 73.8838 41.1758 73.8838 41.2199C73.8889 41.4792 73.9955 41.7262 74.1807 41.9078C74.3659 42.0893 74.6149 42.191 74.8742 42.191C75.1336 42.191 75.3826 42.0893 75.5678 41.9078C75.753 41.7262 75.8595 41.4792 75.8647 41.2199C75.8636 41.1974 75.8671 41.1749 75.8749 41.1538C75.8828 41.1327 75.8949 41.1134 75.9104 41.0971C75.926 41.0807 75.9447 41.0677 75.9654 41.0589C75.9861 41.05 76.0084 41.0454 76.031 41.0454C76.0535 41.0454 76.0758 41.05 76.0966 41.0589C76.1173 41.0677 76.136 41.0807 76.1515 41.0971C76.1671 41.1134 76.1792 41.1327 76.187 41.1538C76.1949 41.1749 76.1984 41.1974 76.1973 41.2199C76.1969 41.5708 76.0574 41.9071 75.8093 42.1552C75.5612 42.4033 75.2249 42.5428 74.874 42.5432Z" fill="#1C468A"/>
<path d="M76.8164 39.5518H85.8538L84.993 28.4644H78.2796L76.8164 39.5518Z" fill="#AA413E"/>
<path d="M78.4531 39.5518H87.4905L86.0786 28.4644H79.3138L78.4531 39.5518Z" fill="#C65447"/>
<path d="M82.9199 30.9823C82.4793 30.9818 82.0568 30.8067 81.7452 30.4951C81.4336 30.1836 81.2583 29.7612 81.2578 29.3205C81.2578 29.2987 81.2621 29.277 81.2705 29.2568C81.2789 29.2366 81.2911 29.2182 81.3066 29.2028C81.322 29.1873 81.3404 29.175 81.3606 29.1667C81.3808 29.1583 81.4025 29.154 81.4243 29.154C81.4462 29.154 81.4678 29.1583 81.488 29.1667C81.5083 29.175 81.5266 29.1873 81.5421 29.2028C81.5575 29.2182 81.5698 29.2366 81.5782 29.2568C81.5865 29.277 81.5908 29.2987 81.5908 29.3205C81.5908 29.6732 81.731 30.0115 81.9803 30.2609C82.2297 30.5103 82.568 30.6504 82.9207 30.6504C83.2733 30.6504 83.6116 30.5103 83.861 30.2609C84.1104 30.0115 84.2505 29.6732 84.2505 29.3205C84.2494 29.298 84.2529 29.2755 84.2608 29.2544C84.2686 29.2333 84.2807 29.214 84.2963 29.1976C84.3118 29.1813 84.3305 29.1683 84.3512 29.1595C84.372 29.1506 84.3943 29.146 84.4168 29.146C84.4393 29.146 84.4616 29.1506 84.4824 29.1595C84.5031 29.1683 84.5218 29.1813 84.5373 29.1976C84.5529 29.214 84.565 29.2333 84.5728 29.2544C84.5807 29.2755 84.5842 29.298 84.5831 29.3205C84.5826 29.7614 84.4072 30.184 84.0953 30.4955C83.7835 30.8071 83.3607 30.9822 82.9199 30.9823Z" fill="#A52020"/>
<path d="M50.5552 31.1164H37.75L43.5087 10.3203H56.3489L50.5552 31.1164Z" fill="white"/>
<path d="M47.205 14.7319C47.205 14.7319 47.1114 15.2076 47.4482 15.5414C47.7851 15.8752 46.199 17.2243 45.5927 19.4777C44.991 21.7134 43.6438 26.5703 42.4258 28.1772C42.5071 28.0793 42.7989 27.8003 43.4018 27.946C44.1268 28.119 45.4096 28.3615 45.9866 27.9055C46.3902 27.5863 47.1137 27.9259 47.5115 28.1587C47.2031 26.5294 48.5433 21.7073 49.1816 19.4793C49.8273 17.2259 48.9889 15.8767 49.5127 15.5429C49.8209 15.3499 50.063 15.0676 50.2066 14.7335C50.5639 14.6244 51.1243 14.3607 51.1243 14.3607C51.2816 13.9109 51.0738 13.2745 51.0738 13.2745C51.0738 13.2745 50.7597 13.7116 50.0986 13.737C49.4376 13.7625 48.8679 14.1468 48.8679 14.1468C48.8679 14.1468 48.5133 13.7613 47.8657 13.7355C47.2181 13.7097 47.1472 13.2729 47.1472 13.2729C47.1472 13.2729 46.586 13.9093 46.4919 14.3592C46.4939 14.3592 46.9086 14.6228 47.205 14.7319Z" fill="#C65447"/>
<path d="M58.5141 26.4777H54.7891L56.4646 20.4282H60.1997L58.5141 26.4777Z" fill="white"/>
<path d="M57.5384 21.7115C57.5316 21.7536 57.5344 21.7966 57.5467 21.8374C57.559 21.8782 57.5804 21.9157 57.6093 21.947C57.7072 22.0442 57.2458 22.4366 57.0697 23.0922C56.8935 23.7479 56.5031 25.1548 56.1484 25.6228C56.1723 25.5943 56.2571 25.5133 56.4325 25.5549C56.6434 25.6054 57.0165 25.676 57.1845 25.5434C57.3002 25.4505 57.5122 25.5492 57.6282 25.617C57.538 25.1429 57.9281 23.7402 58.1139 23.0922C58.3016 22.4369 58.0584 22.0442 58.2102 21.947C58.2998 21.8908 58.3701 21.8087 58.4118 21.7115C58.5027 21.6802 58.5919 21.644 58.6789 21.6032C58.7248 21.4721 58.6643 21.2871 58.6643 21.2871C58.6295 21.3286 58.5861 21.3622 58.5372 21.3854C58.4882 21.4086 58.4348 21.421 58.3806 21.4216C58.2532 21.4314 58.1301 21.4726 58.0225 21.5415C57.9437 21.4667 57.8398 21.4239 57.7311 21.4216C57.543 21.4143 57.5222 21.2871 57.5222 21.2871C57.5222 21.2871 57.3592 21.4721 57.3322 21.6032C57.3978 21.6449 57.4668 21.6811 57.5384 21.7115Z" fill="#F1A34F"/>
<path d="M64.0844 26.4796H60.3594L62.0346 20.4302H65.7696L64.0844 26.4796Z" fill="white"/>
<path d="M63.1087 21.7135C63.1019 21.7555 63.1047 21.7986 63.117 21.8394C63.1293 21.8802 63.1507 21.9177 63.1796 21.949C63.2775 22.0461 62.8161 22.4385 62.64 23.0942C62.4638 23.7499 62.073 25.1568 61.7188 25.6247C61.7423 25.5962 61.8271 25.5153 62.0024 25.5569C62.2133 25.6074 62.5868 25.6779 62.7545 25.5453C62.8701 25.4524 63.0825 25.5511 63.1981 25.619C63.1083 25.1448 63.498 23.7421 63.6838 23.0942C63.8715 22.4389 63.6283 22.0461 63.7802 21.949C63.8699 21.8929 63.9402 21.8107 63.9817 21.7135C64.0727 21.6823 64.1619 21.6462 64.2489 21.6051C64.2947 21.4741 64.2342 21.2891 64.2342 21.2891C64.1994 21.3306 64.156 21.3641 64.1071 21.3873C64.0581 21.4106 64.0047 21.4229 63.9505 21.4236C63.8231 21.4335 63.7002 21.4747 63.5924 21.5435C63.5136 21.4688 63.4099 21.4261 63.3014 21.4236C63.1129 21.4163 63.0925 21.2891 63.0925 21.2891C63.0925 21.2891 62.9291 21.4741 62.9021 21.6051C62.9678 21.647 63.0369 21.6832 63.1087 21.7135Z" fill="#A8D29F"/>
<path d="M69.7875 26.6354H66.0625L67.7381 20.5859H71.4731L69.7875 26.6354Z" fill="white"/>
<path d="M68.8118 21.8687C68.805 21.9108 68.8079 21.9539 68.8201 21.9947C68.8324 22.0355 68.8538 22.0729 68.8827 22.1042C68.9807 22.2014 68.5193 22.5938 68.3431 23.2495C68.167 23.9051 67.7765 25.3121 67.4219 25.78C67.4458 25.7515 67.5306 25.6705 67.706 25.7122C67.9168 25.7627 68.2899 25.8332 68.458 25.7006C68.5736 25.6077 68.7856 25.7064 68.9016 25.7742C68.8114 25.3001 69.2015 23.8974 69.3873 23.2495C69.575 22.5942 69.3318 22.2014 69.4837 22.1042C69.5732 22.048 69.6436 21.9659 69.6853 21.8687C69.7762 21.8376 69.8654 21.8014 69.9524 21.7604C69.9979 21.6294 69.9377 21.4443 69.9377 21.4443C69.9029 21.4859 69.8596 21.5194 69.8106 21.5426C69.7616 21.5658 69.7082 21.5782 69.654 21.5789C69.5266 21.5888 69.4037 21.63 69.296 21.6987C69.217 21.624 69.1132 21.5813 69.0046 21.5789C68.8165 21.5715 68.7956 21.4443 68.7956 21.4443C68.7956 21.4443 68.6326 21.6294 68.6056 21.7604C68.6712 21.8023 68.7401 21.8385 68.8118 21.8687Z" fill="#F1A34F"/>
<path d="M67.4049 18.1972H58.581C58.4277 18.1971 58.2764 18.1615 58.1391 18.0931C58.0018 18.0247 57.8823 17.9254 57.7899 17.803C57.6975 17.6805 57.6348 17.5383 57.6067 17.3876C57.5785 17.2368 57.5858 17.0815 57.6278 16.934C57.6869 16.7267 57.8119 16.5444 57.9839 16.4145C58.1559 16.2847 58.3655 16.2144 58.581 16.2144H67.4049C67.5582 16.2144 67.7095 16.25 67.8468 16.3184C67.9841 16.3868 68.1036 16.4861 68.196 16.6086C68.2884 16.731 68.3511 16.8732 68.3792 17.024C68.4074 17.1748 68.4001 17.33 68.3581 17.4775C68.2991 17.6848 68.1741 17.8672 68.0021 17.9971C67.83 18.127 67.6204 18.1972 67.4049 18.1972Z" fill="#C65447"/>
<path d="M81.4188 11.6869H58.7422L59.0737 10.5884H81.7503L81.4188 11.6869Z" fill="#AFCDFB"/>
<path d="M80.8255 13.5512H58.1484L58.4803 12.4526H81.157L80.8255 13.5512Z" fill="#AFCDFB"/>
</g>
<defs>
<clipPath id="clip0_61_3273">
<rect width="105" height="49.3392" fill="white"/>
</clipPath>
</defs>
</svg>
