<svg width="105" height="70" viewBox="0 0 105 70" fill="none" xmlns="http://www.w3.org/2000/svg">
<path d="M93.1616 30.7425C88.8495 27.0645 83.651 4.88177 65.8424 16.4351C56.6415 22.4044 41.1273 11.311 28.286 15.1423C16.4933 18.6612 15.3565 30.2551 16.4977 34.0331C18.8027 41.664 11.6296 42.8017 4.97563 46.0782C-5.46338 51.2213 2.27324 69.4877 12.1337 69.5758C21.9942 69.664 81.654 69.5758 81.654 69.5758C81.654 69.5758 95.9957 69.248 101.953 61.3422C108.363 52.8318 104.298 40.2434 93.1616 30.7425Z" fill="#F9FFE9"/>
<path d="M34.5273 67.5275C34.5273 67.5275 34.652 69.5416 35.0416 69.5707C35.0936 69.5747 37.0182 69.5747 37.0182 69.5747L39.4752 69.5602C39.4752 69.5602 39.4593 68.9684 38.7411 68.8432C38.0229 68.7181 36.8208 68.2131 36.3855 67.264C35.9281 66.2651 34.5273 67.5275 34.5273 67.5275Z" fill="#163560"/>
<path d="M33.6432 44.019C33.6432 44.019 34.7135 44.294 35.3938 44.0887C36.0741 43.8833 37.2444 44.2209 37.4339 44.4685C37.6234 44.7161 37.5533 44.8153 37.2167 44.9012C36.88 44.9871 35.6881 45.4952 34.9042 45.2008C34.1204 44.9065 33.0977 44.8959 33.0977 44.8959L33.6432 44.019Z" fill="#E49963"/>
<path d="M24.3906 34.7217C24.3906 34.7217 25.5931 43.27 27.5843 44.0331C28.5665 44.4112 32.9085 45.2669 34.1938 45.355C34.1938 45.355 34.5084 45.0995 34.4318 44.0609C34.4318 44.0609 29.8827 42.3905 29.2367 41.4823C28.2748 40.1309 29.8338 35.9603 28.6269 34.6908C27.42 33.4214 25.3865 32.8737 24.3906 34.7217Z" fill="#4A75CB"/>
<path d="M24.5467 67.6511V65.7864H21.6129C21.5748 65.7863 21.5383 65.7711 21.5113 65.7442C21.4844 65.7173 21.4691 65.6808 21.4688 65.6427V65.3457C21.469 65.3076 21.4842 65.271 21.5112 65.244C21.5382 65.217 21.5748 65.2018 21.6129 65.2017H24.5467V54.5943C24.547 54.4509 24.6041 54.3135 24.7055 54.2121C24.8069 54.1107 24.9444 54.0536 25.0878 54.0532H25.6681C25.8115 54.0536 25.9489 54.1107 26.0503 54.2121C26.1517 54.3135 26.2088 54.4509 26.2092 54.5943V65.2012H29.1429C29.1811 65.2013 29.2177 65.2166 29.2447 65.2435C29.2717 65.2705 29.2869 65.3071 29.287 65.3453V65.6441C29.2868 65.6822 29.2715 65.7186 29.2445 65.7455C29.2175 65.7724 29.181 65.7876 29.1429 65.7877H26.2092V67.6511C28.3317 67.8115 30.0325 68.5765 30.5097 69.563H20.2461C20.7233 68.5756 22.4241 67.8133 24.5467 67.6511Z" fill="#A6C7F9"/>
<path d="M24.7973 52.7271C25.1498 53.3135 25.5421 53.875 25.9715 54.4077C27.2639 56.038 28.6709 57.3846 28.9159 58.6563C28.9718 58.9327 29.0478 59.2047 29.1432 59.4701C29.2454 59.7614 29.3719 60.0676 29.5182 60.384C30.0663 61.5737 30.8868 62.9101 31.7055 64.1236C33.1212 66.221 34.452 67.9712 34.452 67.9712L36.8931 67.8672C36.7952 67.6227 35.7307 64.7264 34.3065 61.1873C33.728 59.7499 33.1133 58.2222 32.5185 56.7483C32.4396 56.5514 32.3603 56.3557 32.2823 56.1614C32.1007 55.7102 31.9223 55.266 31.7478 54.8338L29.3459 48.8663C29.3459 48.8663 24.0006 46.8394 23.4458 48.1538C22.9889 49.2333 23.3617 50.2931 24.7973 52.7271Z" fill="#E58638"/>
<path d="M28.8763 61.7725C28.8763 61.7725 27.1785 62.8635 27.3433 63.2177C27.3653 63.2649 28.3034 64.9455 28.3034 64.9455L29.5139 67.0838C29.5139 67.0838 30.0228 66.7811 29.7822 66.0933C29.5416 65.4055 29.3958 64.1105 30.0126 63.2666C30.6613 62.3801 28.8763 61.7725 28.8763 61.7725Z" fill="#163560"/>
<path d="M31.1733 47.9028C31.1733 47.9028 37.8823 52.0827 38.6314 54.8904C39.3805 57.6981 29.7064 63.6902 29.7064 63.6902C29.7064 63.6902 28.6458 62.7543 28.4585 62.0678C28.4585 62.0678 32.8309 56.8292 33.7796 55.6549C34.3621 54.9336 25.1661 53.1583 24.0416 51.4107C22.9171 49.6632 23.3203 48.1941 23.3203 48.1941L31.1733 47.9028Z" fill="#EE9849"/>
<path d="M32.2424 53.2695H18.511C18.2352 53.2695 18.0117 53.493 18.0117 53.7688V56.5152C18.0117 56.7909 18.2352 57.0145 18.511 57.0145H32.2424C32.5181 57.0145 32.7416 56.7909 32.7416 56.5152V53.7688C32.7416 53.493 32.5181 53.2695 32.2424 53.2695Z" fill="#1C468A"/>
<path d="M28.0722 33.2568C28.4667 33.5 28.8132 33.8137 29.0944 34.1822C27.487 34.5977 24.8203 33.1083 24.8203 33.1083C24.8203 33.1083 25.8549 32.4135 26.2383 30.8858C26.2577 30.8088 26.2751 30.7298 26.2907 30.6487C26.3444 30.3728 26.3739 30.0926 26.3788 29.8115L27.1169 30.4725L28.3449 31.5741C28.3449 31.5741 28.3172 32.0305 28.1634 32.8153C28.1378 32.9532 28.1074 33.1004 28.0722 33.2568Z" fill="#E49963"/>
<path d="M23.129 40.8389C23.359 43.9356 22.9717 48.6429 23.233 49.4585C23.4586 50.1635 26.1112 49.7458 27.1361 49.511C27.5155 49.4228 27.9733 49.2999 28.4501 49.1532C29.772 48.7429 31.2164 48.1578 31.3715 47.7229C31.3773 47.7066 31.382 47.69 31.3856 47.6731C31.3986 47.6129 31.3977 47.5505 31.3829 47.4907C31.3314 47.2704 31.1322 47.0298 31.1088 46.4812C31.0828 45.8687 31.0868 45.1474 31.0648 44.3723C31.0648 44.2842 31.0621 44.1895 31.0529 44.1027V44.0709V44.0211C31.0304 43.1566 30.9855 42.2471 30.933 41.3456C30.8995 40.779 30.8612 40.2185 30.8167 39.6809C30.7013 38.2938 30.5457 37.0605 30.3395 36.2805C30.0033 35.0093 29.2608 34.1801 28.5853 33.5724L28.0967 33.1534C27.5516 33.2723 26.907 33.1935 26.324 32.9172C25.693 32.6176 25.4749 32.403 25.3652 32.4841C23.9049 33.6081 22.8571 37.0534 23.129 40.8389Z" fill="#739AF0"/>
<path d="M28.4392 49.1597C29.7611 48.7495 31.2059 48.1644 31.3606 47.7294C31.3668 47.7133 31.3716 47.6966 31.3751 47.6797L31.3725 47.4972C31.3205 47.2769 31.1217 47.0363 31.0984 46.4878C31.0724 45.8753 31.0764 45.1544 31.0543 44.3789C31.0543 44.2908 31.0543 44.196 31.0424 44.1092V44.0775C31.0424 44.0607 31.0424 44.0444 31.0424 44.0277L26.0404 41.7598C26.0404 41.7598 25.7504 45.7902 28.4392 49.1597Z" fill="#4A75CB"/>
<path d="M28.3439 31.5749C28.3439 31.5749 28.3161 32.0314 28.1623 32.8162C26.9656 32.4306 26.4196 31.3462 26.2381 30.8884C26.1865 30.7589 26.1641 30.6787 26.1641 30.6787L26.2905 30.6514L27.1158 30.4751L28.3439 31.5749Z" fill="#D68D5D"/>
<path d="M28.8286 31.5626C28.8286 31.5626 26.195 31.86 26.035 30.2169C25.8751 28.5738 25.4278 27.5053 27.1027 27.2462C28.7775 26.9871 29.1657 27.5824 29.3526 28.1177C29.5394 28.6531 29.5099 31.4432 28.8286 31.5626Z" fill="#E49963"/>
<path d="M26.05 30.3299C26.05 30.3299 26.217 28.1488 28.6145 27.9228C30.2567 27.7681 29.3411 26.3546 29.1661 26.1294C29.1661 26.1294 27.9081 26.3017 26.6184 26.5149C23.9112 26.9622 25.7843 29.9902 26.05 30.3299Z" fill="#2B478B"/>
<path d="M38.7969 46.1619L39.0273 46.2368L40.9889 40.1998L40.7584 40.1249L38.7969 46.1619Z" fill="#4A75CB"/>
<path d="M32.3639 46.0965L39.0234 46.2383L39.0319 45.84L32.3724 45.6982L32.3639 46.0965Z" fill="#4A75CB"/>
<path d="M33.0934 45.334C33.0934 45.334 34.1266 45.7253 34.8255 45.5984C35.5243 45.4715 36.6515 45.9337 36.8114 46.2012C36.9714 46.4686 36.8921 46.5585 36.547 46.6065C36.202 46.6546 34.9608 47.0287 34.2157 46.6506C33.4705 46.2725 32.4531 46.1483 32.4531 46.1483L33.0934 45.334Z" fill="#E49963"/>
<path d="M24.9219 35.0743C24.9219 35.0743 25.1748 43.7014 27.0695 44.6801C28.0045 45.1648 32.2249 46.4937 33.4926 46.7207C33.4926 46.7207 33.8332 46.5003 33.8716 45.4604C33.8716 45.4604 29.5344 43.2991 28.9924 42.3254C28.1852 40.8757 30.1945 36.9025 29.1352 35.5079C28.0759 34.1133 26.1151 33.3457 24.9219 35.0743Z" fill="#739AF0"/>
<path d="M49.0626 55.6768L83.4306 55.6768C85.8291 55.6768 87.7734 53.7324 87.7734 51.3339V4.34311C87.7734 1.94461 85.8291 0.000236511 83.4306 0.000236511L49.0626 0.000236511C46.6641 0.000236511 44.7197 1.94461 44.7197 4.34311L44.7197 51.3339C44.7197 53.7324 46.6641 55.6768 49.0626 55.6768Z" fill="#FAB06F"/>
<path d="M48.954 50.041L83.6172 50.041V5.83547L48.954 5.83547L48.954 50.041Z" fill="#F3F9FF"/>
<path d="M78.7002 48.1001C78.2151 48.1001 77.7498 47.9074 77.4068 47.5643C77.0638 47.2213 76.8711 46.7561 76.8711 46.271V20.9849C76.8712 20.4999 77.064 20.0347 77.407 19.6918C77.75 19.3489 78.2151 19.1562 78.7002 19.1563C79.1852 19.1562 79.6503 19.3489 79.9933 19.6918C80.3363 20.0347 80.5291 20.4999 80.5292 20.9849V46.271C80.5292 46.7561 80.3365 47.2213 79.9935 47.5643C79.6505 47.9074 79.1853 48.1001 78.7002 48.1001Z" fill="#EE9849"/>
<path d="M72.7075 48.1005C72.4674 48.1005 72.2295 48.0531 72.0076 47.9612C71.7858 47.8693 71.5841 47.7346 71.4143 47.5647C71.2445 47.3949 71.1098 47.1932 71.018 46.9713C70.9261 46.7494 70.8788 46.5116 70.8789 46.2714V12.9155C70.8789 12.4306 71.0716 11.9654 71.4145 11.6225C71.7574 11.2796 72.2225 11.0869 72.7075 11.0869C72.9477 11.0869 73.1855 11.1341 73.4074 11.226C73.6294 11.3179 73.831 11.4525 74.0008 11.6223C74.1707 11.7922 74.3054 11.9938 74.3974 12.2157C74.4893 12.4375 74.5366 12.6754 74.5366 12.9155V46.2714C74.5366 46.5116 74.4894 46.7495 74.3975 46.9714C74.3056 47.1933 74.1709 47.395 74.001 47.5649C73.8311 47.7347 73.6295 47.8694 73.4075 47.9613C73.1856 48.0532 72.9477 48.1005 72.7075 48.1005Z" fill="#EE9849"/>
<path d="M66.1689 48.1002C65.6838 48.1002 65.2186 47.9075 64.8756 47.5645C64.5325 47.2214 64.3398 46.7562 64.3398 46.2711V27.9849C64.34 27.4999 64.5327 27.0347 64.8757 26.6918C65.2187 26.3489 65.6839 26.1562 66.1689 26.1562C66.6539 26.1562 67.119 26.3489 67.4619 26.6918C67.8049 27.0348 67.9975 27.4999 67.9975 27.9849V46.2711C67.9976 46.5113 67.9503 46.7491 67.8585 46.971C67.7666 47.1929 67.6319 47.3946 67.4621 47.5644C67.2923 47.7343 67.0907 47.869 66.8688 47.9609C66.6469 48.0529 66.4091 48.1002 66.1689 48.1002Z" fill="#EE9849"/>
<path d="M59.8056 48.1003C59.3205 48.1003 58.8553 47.9076 58.5123 47.5646C58.1693 47.2216 57.9766 46.7563 57.9766 46.2712V17.8588C57.9766 17.3738 58.1693 16.9085 58.5123 16.5655C58.8553 16.2225 59.3205 16.0298 59.8056 16.0298C60.2907 16.0298 60.756 16.2225 61.099 16.5655C61.442 16.9085 61.6347 17.3738 61.6347 17.8588V46.2712C61.6347 46.7563 61.442 47.2216 61.099 47.5646C60.756 47.9076 60.2907 48.1003 59.8056 48.1003Z" fill="#EE9849"/>
<path d="M55.2397 32.2797V46.2711C55.2398 46.5114 55.1925 46.7492 55.1006 46.9712C55.0087 47.1931 54.874 47.3948 54.7041 47.5646C54.5343 47.7345 54.3326 47.8692 54.1107 47.9611C53.8887 48.053 53.6509 48.1003 53.4107 48.1002C53.1705 48.1002 52.9327 48.0529 52.7108 47.961C52.4889 47.869 52.2873 47.7343 52.1175 47.5645C51.9477 47.3946 51.813 47.193 51.7211 46.9711C51.6292 46.7491 51.582 46.5113 51.582 46.2711V32.2797C51.582 31.7947 51.7747 31.3296 52.1176 30.9866C52.4605 30.6436 52.9256 30.4508 53.4107 30.4507C53.8958 30.4507 54.361 30.6434 54.704 30.9864C55.047 31.3294 55.2397 31.7947 55.2397 32.2797Z" fill="#EE9849"/>
<path d="M58.1487 13.7644H61.2464C61.2895 13.7628 61.3325 13.7699 61.3727 13.7853C61.413 13.8007 61.4498 13.824 61.4808 13.8539C61.5119 13.8839 61.5366 13.9198 61.5535 13.9594C61.5703 13.9991 61.579 14.0418 61.579 14.0849C61.579 14.1281 61.5703 14.1707 61.5535 14.2104C61.5366 14.2501 61.5119 14.286 61.4808 14.3159C61.4498 14.3459 61.413 14.3692 61.3727 14.3846C61.3325 14.4 61.2895 14.4071 61.2464 14.4055H58.1487C58.0658 14.4024 57.9872 14.3673 57.9296 14.3075C57.872 14.2477 57.8398 14.168 57.8398 14.0849C57.8398 14.0019 57.872 13.9221 57.9296 13.8624C57.9872 13.8026 58.0658 13.7675 58.1487 13.7644Z" fill="#A6C7F9"/>
<path d="M60.543 14.9307H61.248C61.3329 14.9307 61.4144 14.9644 61.4745 15.0245C61.5346 15.0846 61.5683 15.166 61.5683 15.251C61.5683 15.336 61.5346 15.4174 61.4745 15.4775C61.4144 15.5376 61.3329 15.5713 61.248 15.5713H60.543C60.458 15.5713 60.3766 15.5376 60.3165 15.4775C60.2564 15.4174 60.2227 15.336 60.2227 15.251C60.2227 15.166 60.2564 15.0846 60.3165 15.0245C60.3766 14.9644 60.458 14.9307 60.543 14.9307Z" fill="#A6C7F9"/>
<path d="M70.9144 8.84619H74.012C74.095 8.84927 74.1735 8.88439 74.2311 8.94417C74.2887 9.00395 74.3209 9.08373 74.3209 9.16675C74.3209 9.24977 74.2887 9.32955 74.2311 9.38933C74.1735 9.44912 74.095 9.48424 74.012 9.48731H70.9144C70.8314 9.48424 70.7529 9.44912 70.6953 9.38933C70.6377 9.32955 70.6055 9.24977 70.6055 9.16675C70.6055 9.08373 70.6377 9.00395 70.6953 8.94417C70.7529 8.88439 70.8314 8.84927 70.9144 8.84619Z" fill="#A6C7F9"/>
<path d="M73.3086 10.0127H74.0136C74.0985 10.0129 74.1798 10.0468 74.2399 10.1068C74.2999 10.1668 74.3337 10.2481 74.3339 10.333C74.3337 10.4179 74.2999 10.4993 74.2399 10.5593C74.1798 10.6193 74.0985 10.6531 74.0136 10.6534H73.3086C73.2237 10.6531 73.1424 10.6193 73.0824 10.5593C73.0223 10.4993 72.9885 10.4179 72.9883 10.333C72.9885 10.2481 73.0223 10.1668 73.0824 10.1068C73.1424 10.0468 73.2237 10.0129 73.3086 10.0127Z" fill="#A6C7F9"/>
<path d="M77.1094 16.9087H80.207C80.292 16.9087 80.3735 16.9424 80.4336 17.0025C80.4936 17.0626 80.5274 17.1441 80.5274 17.229C80.5274 17.314 80.4936 17.3955 80.4336 17.4555C80.3735 17.5156 80.292 17.5494 80.207 17.5494H77.1094C77.0244 17.5494 76.943 17.5156 76.8829 17.4555C76.8228 17.3955 76.7891 17.314 76.7891 17.229C76.7891 17.1441 76.8228 17.0626 76.8829 17.0025C76.943 16.9424 77.0244 16.9087 77.1094 16.9087Z" fill="#A6C7F9"/>
<path d="M79.5039 18.0747H80.2089C80.2938 18.0749 80.3752 18.1087 80.4353 18.1688C80.4954 18.2288 80.5293 18.3101 80.5297 18.395C80.5293 18.48 80.4954 18.5614 80.4354 18.6215C80.3753 18.6816 80.2939 18.7155 80.2089 18.7158H79.5039C79.419 18.7155 79.3377 18.6815 79.2776 18.6214C79.2176 18.5614 79.1838 18.48 79.1836 18.395C79.1838 18.3102 79.2176 18.2288 79.2777 18.1688C79.3377 18.1088 79.419 18.0749 79.5039 18.0747Z" fill="#A6C7F9"/>
<path d="M64.6214 23.9111H67.719C67.802 23.9142 67.8805 23.9493 67.9381 24.0091C67.9957 24.0689 68.0279 24.1487 68.0279 24.2317C68.0279 24.3147 67.9957 24.3945 67.9381 24.4543C67.8805 24.5141 67.802 24.5492 67.719 24.5523H64.6214C64.5384 24.5492 64.4599 24.5141 64.4023 24.4543C64.3447 24.3945 64.3125 24.3147 64.3125 24.2317C64.3125 24.1487 64.3447 24.0689 64.4023 24.0091C64.4599 23.9493 64.5384 23.9142 64.6214 23.9111Z" fill="#A6C7F9"/>
<path d="M67.0117 25.0776H67.7167C67.8016 25.0779 67.883 25.1117 67.943 25.1717C68.003 25.2317 68.0368 25.3131 68.0371 25.398C68.0368 25.4829 68.003 25.5642 67.943 25.6242C67.883 25.6842 67.8016 25.7181 67.7167 25.7183H67.0117C66.9269 25.7181 66.8455 25.6842 66.7855 25.6242C66.7255 25.5642 66.6916 25.4829 66.6914 25.398C66.6916 25.3131 66.7255 25.2317 66.7855 25.1717C66.8455 25.1117 66.9269 25.0779 67.0117 25.0776Z" fill="#A6C7F9"/>
<path d="M51.8636 28.1936H54.9612C55.0043 28.192 55.0473 28.1991 55.0876 28.2145C55.1279 28.2299 55.1646 28.2532 55.1957 28.2831C55.2268 28.3131 55.2515 28.349 55.2683 28.3886C55.2852 28.4283 55.2939 28.471 55.2939 28.5141C55.2939 28.5573 55.2852 28.5999 55.2683 28.6396C55.2515 28.6793 55.2268 28.7152 55.1957 28.7451C55.1646 28.7751 55.1279 28.7984 55.0876 28.8138C55.0473 28.8292 55.0043 28.8363 54.9612 28.8347H51.8636C51.7806 28.8316 51.7021 28.7965 51.6445 28.7367C51.5869 28.6769 51.5547 28.5972 51.5547 28.5141C51.5547 28.4311 51.5869 28.3513 51.6445 28.2916C51.7021 28.2318 51.7806 28.1967 51.8636 28.1936Z" fill="#A6C7F9"/>
<path d="M54.2539 29.3599H54.9589C55.0439 29.3599 55.1254 29.3936 55.1854 29.4537C55.2455 29.5138 55.2793 29.5952 55.2793 29.6802C55.2793 29.7652 55.2455 29.8466 55.1854 29.9067C55.1254 29.9668 55.0439 30.0005 54.9589 30.0005H54.2539C54.169 30.0005 54.0875 29.9668 54.0274 29.9067C53.9673 29.8466 53.9336 29.7652 53.9336 29.6802C53.9336 29.5952 53.9673 29.5138 54.0274 29.4537C54.0875 29.3936 54.169 29.3599 54.2539 29.3599Z" fill="#A6C7F9"/>
<path d="M53.4094 27.2817C53.1844 27.2812 52.9645 27.2141 52.7777 27.0888C52.5908 26.9635 52.4453 26.7856 52.3594 26.5775C52.2736 26.3695 52.2514 26.1408 52.2956 25.9201C52.3397 25.6995 52.4483 25.4969 52.6076 25.338C52.7668 25.179 52.9696 25.0708 53.1904 25.0271C53.4111 24.9833 53.6398 25.006 53.8477 25.0922C54.0555 25.1784 54.2331 25.3243 54.3581 25.5114C54.483 25.6985 54.5497 25.9185 54.5497 26.1435C54.5494 26.4457 54.4291 26.7353 54.2152 26.9487C54.0014 27.1621 53.7115 27.2819 53.4094 27.2817ZM53.4094 25.446C53.2715 25.4464 53.1369 25.4877 53.0225 25.5646C52.9081 25.6415 52.819 25.7506 52.7665 25.8781C52.7141 26.0056 52.7006 26.1458 52.7277 26.2809C52.7549 26.4161 52.8215 26.5402 52.9191 26.6375C53.0168 26.7348 53.1411 26.8011 53.2763 26.8278C53.4116 26.8545 53.5517 26.8406 53.679 26.7877C53.8064 26.7349 53.9152 26.6455 53.9917 26.5308C54.0683 26.4162 54.1091 26.2814 54.1091 26.1435C54.109 26.0518 54.0908 25.9609 54.0556 25.8762C54.0203 25.7915 53.9688 25.7146 53.9038 25.6498C53.8388 25.585 53.7617 25.5337 53.6769 25.4987C53.592 25.4637 53.5011 25.4458 53.4094 25.446Z" fill="#2B478B"/>
<path d="M52.9274 25.4461C52.8691 25.4459 52.8131 25.4226 52.7719 25.3813L49.353 21.9607H21.5602C21.5017 21.9607 21.4457 21.9374 21.4044 21.8961C21.3631 21.8548 21.3398 21.7988 21.3398 21.7403C21.3398 21.6819 21.3631 21.6259 21.4044 21.5845C21.4457 21.5432 21.5017 21.52 21.5602 21.52H49.5337L53.0834 25.072C53.1143 25.1028 53.1354 25.1421 53.1439 25.1848C53.1524 25.2276 53.1481 25.272 53.1314 25.3123C53.1147 25.3526 53.0864 25.387 53.0501 25.4113C53.0138 25.4355 52.9711 25.4483 52.9274 25.4483V25.4461Z" fill="#2B478B"/>
<path d="M59.955 51.2845C59.7298 51.2845 59.5096 51.2177 59.3224 51.0926C59.1351 50.9675 58.9892 50.7896 58.903 50.5815C58.8169 50.3735 58.7943 50.1445 58.8383 49.9236C58.8823 49.7028 58.9908 49.4999 59.15 49.3407C59.3093 49.1814 59.5122 49.073 59.7331 49.0291C59.954 48.9853 60.183 49.0079 60.391 49.0941C60.5991 49.1804 60.7769 49.3264 60.9019 49.5137C61.027 49.701 61.0937 49.9211 61.0936 50.1464C61.0932 50.4482 60.9732 50.7375 60.7597 50.9509C60.5462 51.1643 60.2568 51.2843 59.955 51.2845ZM59.955 49.4484C59.817 49.4484 59.682 49.4893 59.5672 49.566C59.4525 49.6427 59.363 49.7517 59.3102 49.8793C59.2573 50.0068 59.2435 50.1471 59.2705 50.2825C59.2974 50.4179 59.3639 50.5423 59.4615 50.6399C59.5591 50.7375 59.6834 50.804 59.8188 50.8309C59.9542 50.8578 60.0946 50.844 60.2221 50.7912C60.3496 50.7384 60.4586 50.6489 60.5353 50.5341C60.612 50.4193 60.653 50.2844 60.653 50.1464C60.6528 49.9613 60.5793 49.7838 60.4484 49.653C60.3175 49.5221 60.1401 49.4485 59.955 49.4484Z" fill="#2B478B"/>
<path d="M91.3695 54.7704H63.8371L60.2873 51.2207C60.2668 51.2002 60.2506 51.1759 60.2395 51.1492C60.2284 51.1224 60.2227 51.0938 60.2227 51.0648C60.2226 51.0359 60.2283 51.0072 60.2394 50.9805C60.2504 50.9537 60.2667 50.9294 60.2871 50.9089C60.3076 50.8884 60.3319 50.8722 60.3586 50.8611C60.3853 50.85 60.414 50.8443 60.4429 50.8442C60.4719 50.8442 60.5006 50.8499 60.5273 50.861C60.5541 50.872 60.5784 50.8882 60.5989 50.9087L64.0195 54.3298H91.3695C91.428 54.3298 91.484 54.353 91.5253 54.3943C91.5666 54.4356 91.5898 54.4916 91.5898 54.5501C91.5898 54.6085 91.5666 54.6645 91.5253 54.7059C91.484 54.7472 91.428 54.7704 91.3695 54.7704Z" fill="#2B478B"/>
<path d="M72.5483 7.96478C72.3232 7.96478 72.1032 7.89803 71.916 7.77297C71.7288 7.64791 71.5829 7.47015 71.4968 7.26218C71.4106 7.05421 71.3881 6.82537 71.432 6.60459C71.4759 6.38381 71.5843 6.18101 71.7435 6.02183C71.9027 5.86266 72.1055 5.75426 72.3263 5.71035C72.547 5.66643 72.7759 5.68897 72.9839 5.77511C73.1918 5.86126 73.3696 6.00714 73.4946 6.19431C73.6197 6.38147 73.6865 6.60152 73.6865 6.82663C73.6861 7.12838 73.5661 7.41767 73.3527 7.63104C73.1393 7.84441 72.8501 7.96443 72.5483 7.96478ZM72.5483 6.12911C72.4104 6.12911 72.2755 6.17002 72.1608 6.24666C72.0461 6.32331 71.9567 6.43224 71.9039 6.5597C71.8511 6.68716 71.8373 6.8274 71.8642 6.96271C71.8911 7.09802 71.9575 7.2223 72.0551 7.31985C72.1526 7.4174 72.2769 7.48383 72.4122 7.51075C72.5475 7.53766 72.6878 7.52385 72.8152 7.47105C72.9427 7.41826 73.0516 7.32886 73.1283 7.21415C73.2049 7.09944 73.2458 6.96459 73.2458 6.82663C73.2456 6.64171 73.172 6.46443 73.0413 6.33367C72.9105 6.20291 72.7332 6.12934 72.5483 6.12911Z" fill="#2B478B"/>
<path d="M72.0642 6.12916C72.0058 6.12903 71.9498 6.10573 71.9086 6.06438L68.4875 2.64376H40.6969C40.6384 2.64376 40.5824 2.62055 40.5411 2.57923C40.4998 2.53791 40.4766 2.48187 40.4766 2.42344C40.4766 2.36501 40.4998 2.30897 40.5411 2.26765C40.5824 2.22634 40.6384 2.20313 40.6969 2.20312H68.67L72.221 5.75286C72.2519 5.78367 72.273 5.82296 72.2815 5.86575C72.29 5.90854 72.2857 5.9529 72.269 5.99321C72.2523 6.03351 72.224 6.06795 72.1876 6.09215C72.1513 6.11636 72.1087 6.12924 72.065 6.12916H72.0642Z" fill="#2B478B"/>
<path d="M40.1318 21.0102H21.8747C21.7266 21.0102 21.5846 20.9513 21.4799 20.8466C21.3752 20.742 21.3164 20.5999 21.3164 20.4519C21.3164 20.3786 21.3308 20.306 21.3589 20.2383C21.387 20.1706 21.4281 20.1091 21.4799 20.0573C21.5318 20.0055 21.5933 19.9644 21.6611 19.9364C21.7288 19.9084 21.8014 19.894 21.8747 19.894H40.1318C40.2051 19.894 40.2777 19.9084 40.3455 19.9364C40.4132 19.9644 40.4747 20.0055 40.5266 20.0573C40.5784 20.1091 40.6196 20.1706 40.6476 20.2383C40.6757 20.306 40.6901 20.3786 40.6901 20.4519C40.6901 20.5999 40.6313 20.742 40.5266 20.8466C40.4219 20.9513 40.2799 21.0102 40.1318 21.0102Z" fill="#739AF0"/>
<path d="M40.1325 19.2475H28.9255C28.7774 19.2475 28.6354 19.1887 28.5307 19.084C28.426 18.9793 28.3672 18.8373 28.3672 18.6892C28.3672 18.6159 28.3816 18.5433 28.4097 18.4756C28.4378 18.4079 28.4789 18.3464 28.5307 18.2946C28.5826 18.2428 28.6441 18.2017 28.7119 18.1737C28.7796 18.1457 28.8522 18.1313 28.9255 18.1313H40.1325C40.2058 18.1313 40.2784 18.1457 40.3461 18.1737C40.4138 18.2017 40.4754 18.2428 40.5272 18.2946C40.5791 18.3464 40.6202 18.4079 40.6483 18.4756C40.6763 18.5433 40.6908 18.6159 40.6908 18.6892C40.6908 18.8373 40.632 18.9793 40.5273 19.084C40.4226 19.1887 40.2806 19.2475 40.1325 19.2475Z" fill="#739AF0"/>
<path d="M40.1325 17.4853H28.9255C28.7774 17.4853 28.6354 17.4264 28.5307 17.3217C28.426 17.217 28.3672 17.075 28.3672 16.927C28.3672 16.8537 28.3816 16.7811 28.4097 16.7134C28.4378 16.6457 28.4789 16.5842 28.5307 16.5324C28.5826 16.4806 28.6441 16.4395 28.7119 16.4115C28.7796 16.3835 28.8522 16.3691 28.9255 16.3691H40.1325C40.2058 16.3691 40.2784 16.3835 40.3461 16.4115C40.4138 16.4395 40.4754 16.4806 40.5272 16.5324C40.5791 16.5842 40.6202 16.6457 40.6483 16.7134C40.6763 16.7811 40.6908 16.8537 40.6908 16.927C40.6908 17.075 40.632 17.217 40.5273 17.3217C40.4226 17.4264 40.2806 17.4853 40.1325 17.4853Z" fill="#739AF0"/>
<path d="M59.1436 1.57901H40.886C40.738 1.57901 40.5961 1.52024 40.4915 1.41562C40.3869 1.31101 40.3281 1.16912 40.3281 1.02117C40.3281 0.947878 40.3425 0.875291 40.3705 0.80756C40.3985 0.739829 40.4395 0.678281 40.4914 0.626434C40.5432 0.574587 40.6047 0.533457 40.6724 0.505396C40.7401 0.477334 40.8127 0.462891 40.886 0.462891H59.1436C59.2169 0.462891 59.2894 0.477334 59.3571 0.505396C59.4248 0.533457 59.4864 0.574587 59.5382 0.626434C59.59 0.678281 59.6311 0.739829 59.6591 0.80756C59.6871 0.875291 59.7015 0.947878 59.7014 1.02117C59.7014 1.09443 59.687 1.16697 59.6589 1.23465C59.6309 1.30233 59.5898 1.36382 59.538 1.41562C59.4862 1.46742 59.4247 1.50851 59.357 1.53655C59.2894 1.56458 59.2168 1.57901 59.1436 1.57901Z" fill="#739AF0"/>
<path d="M75.4635 63.0941C77.0152 61.5425 77.0152 59.0268 75.4635 57.4752C73.9119 55.9236 71.3962 55.9236 69.8446 57.4752C68.293 59.0268 68.293 61.5425 69.8446 63.0941C71.3962 64.6458 73.9119 64.6458 75.4635 63.0941Z" fill="#82B378"/>
<path d="M72.6553 56.9263C73.3173 56.9261 73.9646 57.1217 74.5158 57.4883C75.067 57.8549 75.4975 58.3763 75.7533 58.9869C76.0091 59.5975 76.0787 60.2701 75.9533 60.9201C75.828 61.5702 75.5133 62.1687 75.0488 62.6404L72.6553 60.2848L69.5167 61.4824C69.3231 60.9738 69.2559 60.4257 69.321 59.8854C69.386 59.3451 69.5813 58.8286 69.89 58.3804C70.1987 57.9323 70.6117 57.5658 71.0934 57.3125C71.5751 57.0592 72.1111 56.9266 72.6553 56.9263Z" fill="white"/>
<path d="M73.1452 58.5796H74.5746C74.6016 58.5797 74.6276 58.5905 74.6467 58.6097C74.6659 58.6288 74.6767 58.6547 74.6768 58.6818C74.6768 58.7089 74.666 58.7349 74.6468 58.7541C74.6277 58.7733 74.6017 58.784 74.5746 58.784H73.1452C73.1181 58.784 73.0921 58.7733 73.0729 58.7541C73.0537 58.7349 73.043 58.7089 73.043 58.6818C73.0431 58.6547 73.0539 58.6288 73.073 58.6097C73.0922 58.5905 73.1181 58.5797 73.1452 58.5796Z" fill="#82B378"/>
<path d="M73.1452 58.9028H74.5746C74.6017 58.9028 74.6277 58.9136 74.6468 58.9328C74.666 58.9519 74.6768 58.9779 74.6768 59.0051C74.6768 59.0322 74.666 59.0582 74.6468 59.0773C74.6277 59.0965 74.6017 59.1073 74.5746 59.1073H73.1452C73.1181 59.1073 73.0921 59.0965 73.0729 59.0773C73.0537 59.0582 73.043 59.0322 73.043 59.0051C73.043 58.9779 73.0537 58.9519 73.0729 58.9328C73.0921 58.9136 73.1181 58.9028 73.1452 58.9028Z" fill="#82B378"/>
<path d="M73.985 59.2261H74.5755C74.6026 59.2261 74.6286 59.2368 74.6478 59.256C74.6669 59.2752 74.6777 59.3012 74.6777 59.3283C74.6777 59.3554 74.6669 59.3814 74.6478 59.4006C74.6286 59.4198 74.6026 59.4305 74.5755 59.4305H73.985C73.9579 59.4305 73.9319 59.4198 73.9128 59.4006C73.8936 59.3814 73.8828 59.3554 73.8828 59.3283C73.8828 59.3012 73.8936 59.2752 73.9128 59.256C73.9319 59.2368 73.9579 59.2261 73.985 59.2261Z" fill="#82B378"/>
<path d="M69.1758 58.4198L70.7475 56.8481H69.1758V58.4198Z" fill="#82B378"/>
<path d="M90.0488 60.4883C90.1583 58.2967 88.4704 56.4313 86.2788 56.3218C84.0872 56.2123 82.2218 57.9002 82.1123 60.0918C82.0028 62.2834 83.6907 64.1488 85.8823 64.2583C88.0739 64.3678 89.9393 62.6799 90.0488 60.4883Z" fill="#82B378"/>
<path d="M82.7148 60.2846C82.7148 59.5269 82.9709 58.7914 83.4417 58.1976C83.9125 57.6039 84.5703 57.1868 85.3081 57.0141C86.0459 56.8415 86.8204 56.9234 87.5057 57.2466C88.1911 57.5697 88.747 58.1152 89.0832 58.7943C89.4194 59.4733 89.516 60.2461 89.3575 60.9871C89.1989 61.7281 88.7944 62.3936 88.2098 62.8756C87.6251 63.3577 86.8947 63.6278 86.1371 63.6422C85.3795 63.6566 84.6393 63.4143 84.0367 62.9548L86.0733 60.2846L82.9352 61.4822C82.7892 61.0998 82.7146 60.6939 82.7148 60.2846Z" fill="white"/>
<path d="M86.5905 58.5796H88.0199C88.047 58.5797 88.0729 58.5905 88.092 58.6097C88.1112 58.6288 88.122 58.6547 88.1221 58.6818C88.1221 58.7089 88.1113 58.7349 88.0922 58.7541C88.073 58.7733 88.047 58.784 88.0199 58.784H86.5905C86.5634 58.784 86.5374 58.7733 86.5182 58.7541C86.4991 58.7349 86.4883 58.7089 86.4883 58.6818C86.4884 58.6547 86.4992 58.6288 86.5184 58.6097C86.5375 58.5905 86.5634 58.5797 86.5905 58.5796Z" fill="#82B378"/>
<path d="M86.5905 58.9028H88.0199C88.047 58.9028 88.073 58.9136 88.0922 58.9328C88.1113 58.9519 88.1221 58.9779 88.1221 59.0051C88.1221 59.0322 88.1113 59.0582 88.0922 59.0773C88.073 59.0965 88.047 59.1073 88.0199 59.1073H86.5905C86.5634 59.1073 86.5374 59.0965 86.5182 59.0773C86.4991 59.0582 86.4883 59.0322 86.4883 59.0051C86.4883 58.9779 86.4991 58.9519 86.5182 58.9328C86.5374 58.9136 86.5634 58.9028 86.5905 58.9028Z" fill="#82B378"/>
<path d="M87.4303 59.2261H88.0208C88.0479 59.2261 88.0739 59.2368 88.0931 59.256C88.1122 59.2752 88.123 59.3012 88.123 59.3283C88.123 59.3554 88.1122 59.3814 88.0931 59.4006C88.0739 59.4198 88.0479 59.4305 88.0208 59.4305H87.4303C87.4032 59.4305 87.3772 59.4198 87.3581 59.4006C87.3389 59.3814 87.3281 59.3554 87.3281 59.3283C87.3281 59.3012 87.3389 59.2752 87.3581 59.256C87.3772 59.2368 87.4032 59.2261 87.4303 59.2261Z" fill="#82B378"/>
<path d="M82.6172 58.4198L84.1889 56.8481H82.6172V58.4198Z" fill="#82B378"/>
<path d="M100.616 69.7082H8.7611C8.72604 69.7082 8.69241 69.6943 8.66762 69.6695C8.64283 69.6447 8.62891 69.6111 8.62891 69.576C8.62891 69.541 8.64283 69.5074 8.66762 69.4826C8.69241 69.4578 8.72604 69.4438 8.7611 69.4438H100.616C100.651 69.4438 100.685 69.4578 100.71 69.4826C100.734 69.5074 100.748 69.541 100.748 69.576C100.748 69.6111 100.734 69.6447 100.71 69.6695C100.685 69.6943 100.651 69.7082 100.616 69.7082Z" fill="#202F4E"/>
</svg>
