<svg width="105" height="106" viewBox="0 0 105 106" fill="none" xmlns="http://www.w3.org/2000/svg">
<path d="M89.4285 65.6123H15.5781V76.3416H89.4285V65.6123Z" fill="#222222"/>
<path d="M91.9164 14.6875H13.1032C10.6019 14.6875 8.57422 16.6933 8.57422 19.1676V68.4702C8.57422 70.9445 10.6019 72.9504 13.1032 72.9504H91.9164C94.4177 72.9504 96.4454 70.9445 96.4454 68.4702V19.1676C96.4454 16.6933 94.4177 14.6875 91.9164 14.6875Z" fill="#222222"/>
<path d="M92.3895 18.5391H12.6133V68.4802H92.3895V18.5391Z" fill="#FEFEFE"/>
<path d="M0 88.5054V90.0965C0 90.9757 0.973525 91.6875 2.16927 91.6875H102.834C104.03 91.6875 104.95 90.9757 104.95 90.0965V88.5054H0Z" fill="#222222"/>
<path d="M52.4936 76.2163H9.40455C9.25641 76.3629 2.48406 82.3713 0.41002 86.82C-0.46827 88.7252 0.103148 89.73 1.75391 89.73H103.244C104.895 89.73 105.466 88.6833 104.588 86.82C102.471 82.3713 95.7414 76.3524 95.5933 76.2163H52.4936Z" fill="#222222"/>
<path d="M99.5397 87.4585H7.71094L14.0811 78.1318H93.1801L99.5397 87.4585Z" fill="#9C9EB9"/>
<path d="M98.432 85.815L98.231 85.5219H92.1041L90.9613 83.2609H96.686L96.485 82.9678H90.8343L89.6915 80.7068H94.9824L94.7919 80.4242H89.5645L88.411 78.1318H87.882L89.0248 80.4242H82.4641L81.5435 78.1318H81.0144L81.9138 80.4242H75.3531L74.6653 78.1318H74.1362L74.8029 80.4242H68.2422L67.7977 78.1318H67.2686L67.7025 80.4242H61.0994L60.8772 78.1318H60.3481L60.5492 80.4242H54.3271V78.1318H53.7345V80.4242H47.2902L47.4489 78.1318H46.9198L46.7082 80.4242H40.1475L40.5813 78.1318H40.0417L39.5866 80.4242H33.0259L33.6926 78.1318H33.1635L32.4757 80.4242H25.9679L26.8673 78.1318H26.3382L25.4176 80.4242H18.8781L20.0103 78.1318H19.4812L18.3278 80.4242H12.529L12.3385 80.7068H18.1691L17.0263 82.9678H10.783L10.5819 83.2609H16.8675L15.7035 85.5219H9.03699L8.83594 85.815H15.5871L14.7617 87.448H15.3649L16.1797 85.815H23.2483L22.5923 87.448H23.1954L23.8409 85.815H30.9096L30.4228 87.448H31.026L31.5021 85.815H38.5708L38.2428 87.448H38.8459L39.1634 85.815H46.232L46.0733 87.448H46.6764L46.8246 85.815H53.7345V87.448H54.3271V85.815H61.0148L61.1523 87.448H61.7555L61.6074 85.815H68.676L68.9829 87.448H69.586L69.2686 85.815H76.3372L76.8134 87.448H77.4166L76.9298 85.815H83.9984L84.6439 87.448H85.2471L84.591 85.815H91.6597L92.4745 87.448H93.0776L92.2523 85.815H98.432ZM25.8515 80.7068H32.4333L31.7561 82.9678H24.952L25.8515 80.7068ZM18.7088 80.7068H25.3012L24.3912 82.9678H17.5871L18.7088 80.7068ZM23.3647 85.5219H16.3173L17.4389 83.2609H24.2748L23.3647 85.5219ZM30.9942 85.5219H23.9467L24.8462 83.2609H31.6715L30.9942 85.5219ZM38.6237 85.5219H31.5762L32.2323 83.2609H39.0576L38.6237 85.5219ZM39.1316 82.9678H32.3275L32.9836 80.7068H39.5761L39.1316 82.9678ZM46.2638 85.5219H39.2163L39.6396 83.2609H46.4754L46.2638 85.5219ZM46.4966 82.9678H39.6925L40.1263 80.7068H46.7082L46.4966 82.9678ZM53.7345 85.5219H46.8458L47.0362 83.2609H53.7345V85.5219ZM53.7345 82.9678H47.068L47.2584 80.7068H53.7345V82.9678ZM54.3271 80.7068H60.5703L60.7714 82.9678H54.3271V80.7068ZM54.3271 85.5219V83.2609H60.7926L60.983 85.5219H54.3271ZM89.12 80.7068L90.2417 82.9678H83.427L82.517 80.7068H89.12ZM81.9879 80.7068L82.8768 82.9678H76.0727L75.3954 80.7068H81.9879ZM61.1206 80.7068H67.7131L68.1363 82.9678H61.3322L61.1206 80.7068ZM61.5756 85.5219L61.364 83.2609H68.1892L68.6125 85.5219H61.5756ZM68.2633 80.7068H74.8452L75.5118 82.9678H68.7077L68.2633 80.7068ZM69.2051 85.5219L68.7607 83.2609H75.5965L76.2526 85.5219H69.2051ZM76.8346 85.5219L76.1573 83.2609H82.9932L83.882 85.5219H76.8346ZM84.4746 85.5219L83.5646 83.2609H90.3899L91.5115 85.5219H84.4746Z" fill="#D0D1DE"/>
<path d="M52.4982 89.73H48.0432C48.0378 89.9527 48.1171 90.1694 48.2654 90.3371C48.3572 90.4214 48.4789 90.4665 48.6041 90.4627H56.4028C56.528 90.4665 56.6497 90.4214 56.7415 90.3371C56.8898 90.1694 56.9691 89.9527 56.9637 89.73H52.4982Z" fill="#222222"/>
<path d="M83.9645 63.9373H20.9922V25.9502H83.9222L83.9645 63.9373ZM22.2091 62.7754H82.7899V27.1121H22.2091V62.7754Z" fill="#D0D1DE"/>
<path d="M74.8165 35.5073H68.9648V60.2843H74.8165V35.5073Z" fill="#B2D550"/>
<path d="M63.9651 48.896H58.1133V60.2952H63.9651V48.896Z" fill="#D0D1DE"/>
<path d="M53.1213 46.1426H47.2695V60.2949H53.1213V46.1426Z" fill="#FA8825"/>
<path d="M42.2853 38.1245H36.4336V60.2845H42.2853V38.1245Z" fill="#D0D1DE"/>
<path d="M31.4415 42.9917H25.5898V60.2948H31.4415V42.9917Z" fill="#D0D1DE"/>
<path d="M61.1768 44.4786L50.0553 42.2909L39.3465 32.1686L28.7118 41.4639L28.3203 41.0347L39.3677 31.3836L50.341 41.757L60.9122 43.8296L71.6527 28.8818L72.1289 29.2168L61.1768 44.4786Z" fill="#222222"/>
<path d="M29.8291 41.2226C29.8291 41.4814 29.7515 41.7343 29.6062 41.9495C29.4608 42.1647 29.2543 42.3324 29.0126 42.4314C28.7709 42.5305 28.5049 42.5564 28.2483 42.5059C27.9917 42.4554 27.7561 42.3308 27.5711 42.1478C27.3861 41.9648 27.2601 41.7316 27.2091 41.4778C27.158 41.224 27.1842 40.9609 27.2843 40.7218C27.3844 40.4827 27.554 40.2784 27.7715 40.1346C27.989 39.9908 28.2448 39.9141 28.5064 39.9141C28.8572 39.9141 29.1936 40.052 29.4417 40.2973C29.6897 40.5427 29.8291 40.8755 29.8291 41.2226Z" fill="#B2D550"/>
<path d="M39.2798 33.0793C40.0103 33.0793 40.6025 32.4935 40.6025 31.7708C40.6025 31.0482 40.0103 30.4624 39.2798 30.4624C38.5492 30.4624 37.957 31.0482 37.957 31.7708C37.957 32.4935 38.5492 33.0793 39.2798 33.0793Z" fill="#B2D550"/>
<path d="M51.5205 42.0081C51.5205 42.2669 51.4429 42.5199 51.2976 42.7351C51.1522 42.9502 50.9457 43.1179 50.704 43.217C50.4623 43.316 50.1963 43.3419 49.9397 43.2914C49.6831 43.2409 49.4475 43.1163 49.2625 42.9333C49.0775 42.7503 48.9515 42.5172 48.9005 42.2634C48.8494 42.0096 48.8756 41.7465 48.9757 41.5074C49.0759 41.2683 49.2454 41.064 49.4629 40.9202C49.6804 40.7764 49.9362 40.6997 50.1978 40.6997C50.5486 40.6997 50.885 40.8375 51.1331 41.0829C51.3811 41.3283 51.5205 41.6611 51.5205 42.0081Z" fill="#B2D550"/>
<path d="M62.3681 43.8607C62.3681 44.1195 62.2905 44.3725 62.1452 44.5876C61.9998 44.8028 61.7933 44.9705 61.5516 45.0696C61.3099 45.1686 61.0439 45.1945 60.7873 45.144C60.5308 45.0935 60.2951 44.9689 60.1101 44.7859C59.9251 44.6029 59.7991 44.3698 59.7481 44.116C59.697 43.8622 59.7232 43.5991 59.8233 43.36C59.9235 43.1209 60.093 42.9165 60.3105 42.7728C60.528 42.629 60.7838 42.5522 61.0454 42.5522C61.3962 42.5522 61.7326 42.6901 61.9807 42.9355C62.2288 43.1809 62.3681 43.5137 62.3681 43.8607Z" fill="#B2D550"/>
<path d="M73.2041 29.3002C73.2041 29.5589 73.1265 29.8119 72.9812 30.0271C72.8358 30.2423 72.6292 30.41 72.3876 30.509C72.1459 30.608 71.8799 30.634 71.6233 30.5835C71.3667 30.533 71.131 30.4084 70.9461 30.2254C70.7611 30.0424 70.6351 29.8092 70.5841 29.5554C70.533 29.3016 70.5592 29.0385 70.6593 28.7994C70.7594 28.5603 70.929 28.356 71.1465 28.2122C71.364 28.0684 71.6198 27.9917 71.8814 27.9917C72.2322 27.9917 72.5686 28.1296 72.8167 28.3749C73.0647 28.6203 73.2041 28.9531 73.2041 29.3002Z" fill="#B2D550"/>
<path d="M39.0994 39.0037C39.5228 38.9115 39.9137 38.7092 40.2316 38.4175C40.3552 38.262 40.5101 38.1336 40.6866 38.0407C40.8871 37.9319 41.0752 37.8021 41.2475 37.6533C41.406 37.4922 41.608 37.3796 41.8295 37.3288C42.1152 37.3288 41.967 37.6219 41.8295 37.8313C41.6919 38.0406 40.9194 38.3547 40.9512 38.6268C40.9829 38.899 41.9035 38.4803 42.0834 38.3861C42.5173 38.1872 42.5384 37.8313 42.7924 37.4859C43.0464 37.1404 43.0675 37.2346 43.1628 37.4859C43.1751 37.5889 43.1654 37.6934 43.1344 37.7926C43.1035 37.8917 43.0518 37.9834 42.9829 38.0616C42.7725 38.4253 42.4697 38.7284 42.1046 38.9409C42.453 38.7572 42.7621 38.5084 43.0146 38.2081C43.1522 38.0302 43.6389 37.1614 43.9247 37.4021C44.5172 37.7999 42.8665 39.2758 42.5173 39.3805C42.8774 39.2135 43.2037 38.983 43.4802 38.7001C43.6601 38.5431 44.0516 38.1558 44.1257 38.5745C44.2209 39.1816 43.0675 39.6213 42.5279 39.9039C42.9008 39.8056 43.2573 39.6539 43.586 39.4538C44.0305 39.234 44.0411 39.6317 43.586 39.9458C43.3742 40.0796 43.1552 40.2019 42.93 40.3121C42.1763 40.6921 41.3153 40.8101 40.4856 40.6471C40.1364 40.6471 39.4274 40.9088 39.2581 40.6471C38.8771 40.2912 39.0888 39.4957 39.0994 39.0037Z" fill="#FBBFAF"/>
<path d="M39.3527 38.8785L40.0405 41.2232C40.0405 41.2232 31.7338 43.3168 29.7232 43.6517C27.7127 43.9867 23.2577 38.9413 23.2577 38.9413C23.2577 38.9413 21.7551 35.309 22.8768 35.3614C23.7551 35.3614 30.1148 40.1974 30.464 40.3754C30.8132 40.5533 39.3527 38.8785 39.3527 38.8785Z" fill="#B2D550"/>
<path d="M17.6074 80.3405C17.5682 81.1136 17.6359 81.8884 17.8085 82.6434C18.0836 83.3866 19.9989 84.5171 19.9989 84.5171C19.9989 84.5171 18.2635 84.8416 17.5968 84.3391C16.651 83.3257 15.93 82.1276 15.4805 80.822C15.5757 80.4661 16.0625 79.3984 16.0625 79.3984L17.6074 80.3405Z" fill="#FBBFAF"/>
<path d="M27.9367 79.3776C27.8973 80.1512 27.9685 80.9265 28.1483 81.6805C28.4129 82.4237 30.3282 83.5542 30.3282 83.5542C30.3282 83.5542 28.5927 83.8787 27.9367 83.3762C26.9921 82.3619 26.2713 81.1641 25.8203 79.8591C25.9261 79.5032 26.4023 78.4355 26.4023 78.4355L27.9367 79.3776Z" fill="#FBBFAF"/>
<path d="M15.8518 80.3403C15.8518 80.3403 14.4021 80.8218 14.7937 82.078C15.0212 83.0204 15.1243 83.9879 15.1005 84.9566H15.5238C15.5238 84.9566 15.6085 83.1561 15.8836 83.2189C16.1587 83.2817 16.7619 84.9566 17.365 84.9566H20.7935C20.7935 84.9566 21.1639 84.6007 20.7935 84.3808C20.4232 84.161 18.1058 84.2657 17.8412 83.7528C17.5767 83.2399 15.8518 80.3403 15.8518 80.3403Z" fill="#222222"/>
<path d="M26.2854 79.3354C26.2854 79.3354 24.8357 79.817 25.2273 81.0731C25.4547 82.0155 25.5579 82.9831 25.5341 83.9517H25.9574C25.9574 83.9517 26.0421 82.1512 26.3172 82.2141C26.5923 82.2769 27.1955 83.9517 27.8092 83.9517H31.2271C31.2271 83.9517 31.5975 83.5958 31.2271 83.3864C30.8568 83.1771 28.5394 83.2608 28.2854 82.7584C28.0314 82.2559 26.2854 79.3354 26.2854 79.3354Z" fill="#222222"/>
<path d="M25.2979 48.0371C25.2979 48.0371 21.2239 49.4502 18.2716 48.0371C17.0254 49.2339 16.2714 50.8448 16.1552 52.5591C16.0785 53.6941 16.1175 54.8339 16.2716 55.9611C16.7228 58.8835 16.8858 61.8423 16.7584 64.7958C16.3034 68.7945 15.0547 80.3821 15.0547 80.3821L17.8589 80.8218C17.8589 80.8218 20.4409 66.8265 20.7477 65.1203C21.0546 63.4141 22.0387 56.3798 22.0387 56.3798C22.0387 56.3798 23.7847 61.8021 24.2397 64.4294C24.3032 64.8377 25.5519 79.6913 25.5519 79.6913H28.282C28.282 79.6913 28.0704 63.2047 28.0704 64.0212C28.0704 64.3771 27.3402 52.8941 25.2979 48.0371Z" fill="#FA8825"/>
<path d="M23.8839 58.5361C23.4437 56.9359 22.6806 55.4404 21.6406 54.1396C21.7781 54.8933 21.8945 55.6365 21.9792 56.4007C21.9792 56.4007 23.4712 61.0484 24.0955 63.8223C24.0003 60.7867 24.3389 59.8864 23.8839 58.5361Z" fill="#E98025"/>
<path d="M22.4257 31.5607C22.14 31.4979 20.7856 28.6821 20.2141 28.1377C19.9284 30.0638 18.7539 34.6277 18.7539 34.6277C20.1824 36.135 22.9866 35.2139 22.9866 35.2139C22.5606 34.044 22.3701 32.8029 22.4257 31.5607Z" fill="#F39F90"/>
<path d="M21.8521 24.8512C21.8521 24.8512 24.6245 25.4688 25.1536 26.2643C25.6827 27.0599 25.6827 29.1429 25.979 29.6873C26.1589 30.0222 26.3176 30.2944 26.4022 30.4933C26.4869 30.6921 26.2858 30.7654 26.0425 30.8492C25.9813 30.8681 25.9259 30.902 25.8815 30.9478C25.8372 30.9935 25.8051 31.0496 25.7885 31.1109C25.6192 31.6133 25.1642 32.9008 24.7303 33.0788C23.864 33.2443 22.9664 33.1047 22.1932 32.684C21.4201 32.2634 20.8202 31.5883 20.4976 30.7759C19.6087 28.3474 20.0743 24.3278 21.8521 24.8512Z" fill="#FBBFAF"/>
<path d="M19.1758 33.6758C20.418 34.2197 21.6898 34.695 22.9853 35.0994C22.9853 35.0994 25.218 39.4644 25.3768 40.6891C25.5355 41.9138 26.6783 50.2147 26.6783 50.2147C26.6783 50.2147 22.2445 52.9991 15.832 50.7904C15.832 50.7904 17.3663 44.2481 17.0171 41.6626C16.6679 39.0771 16.9642 35.5914 19.1758 33.6758Z" fill="#B2D550"/>
<path d="M18.4011 51.4395C18.3271 48.6656 18.9726 46.1324 19.0255 43.348C19.032 42.439 18.8558 41.5378 18.507 40.6968C18.1582 39.8557 17.6438 39.0917 16.9938 38.4492C16.8609 39.5163 16.8609 40.5956 16.9938 41.6627C17.343 44.2483 15.8086 50.7905 15.8086 50.7905C16.652 51.0812 17.5195 51.2984 18.4011 51.4395Z" fill="#95B639"/>
<path d="M15.8315 41.3697C17.387 40.0822 16.7521 38.7946 18.3182 37.5804L18.6674 37.3187C18.7415 36.6488 17.1119 36.9942 17.6092 36.2719C18.2441 35.3299 20.8896 33.8958 20.7838 32.9746C20.7255 32.6847 20.7475 32.3845 20.8472 32.1058C20.9848 31.394 21.2811 31.2579 20.7203 30.745C20.3287 30.3787 19.9901 29.9809 20.3076 29.4261C20.625 28.8713 20.9742 28.8504 21.3658 29.2691C21.461 29.3842 21.9266 30.3159 22.043 29.782C22.043 29.6459 21.8843 29.3633 21.8631 29.1958C21.8528 29.0984 21.8645 29 21.8975 28.9076C21.9304 28.8153 21.9837 28.7314 22.0536 28.662C22.3287 28.3689 22.7414 28.2119 23.0377 27.9083C23.334 27.6047 23.4398 27.0604 23.9583 26.8615C24.2305 26.7778 24.522 26.7778 24.7943 26.8615C24.9212 26.8615 25.4503 27.2384 25.535 27.207C26.4239 26.8615 26.0217 25.4903 25.408 25.1134C24.2979 24.3165 22.9697 23.8713 21.5986 23.8364C20.7856 23.943 20.0048 24.2193 19.3079 24.647C18.611 25.0747 18.014 25.644 17.5563 26.3172C16.8791 27.186 16.9214 28.1176 16.4241 29.0493C15.9267 29.9809 15.0061 30.3368 14.4241 31.1428C14.1835 31.5128 14.0292 31.9312 13.9724 32.3676C13.9157 32.8039 13.9579 33.2473 14.0961 33.6655C14.3079 34.2919 14.3907 34.9539 14.3394 35.6125C14.2019 36.4604 13.5141 37.0884 13.2813 37.9049C13.0208 38.6617 13.0208 39.4824 13.2813 40.2392C13.5881 41.6209 14.5193 42.0396 15.8315 41.3697Z" fill="#222222"/>
<path d="M13.4184 55.2075C13.4108 55.6153 13.517 56.0173 13.7253 56.3694C13.8449 56.5172 13.9315 56.6885 13.9793 56.8718C14.042 57.0776 14.1235 57.2773 14.2227 57.4685C14.3423 57.6525 14.4049 57.8672 14.4025 58.0861C14.4025 58.3478 14.0957 58.0861 13.9264 57.9709C13.7571 57.8558 13.6407 57.0184 13.3655 56.987C13.0904 56.9556 13.302 57.8977 13.3655 58.0337C13.4714 58.4629 13.7888 58.5676 14.0639 58.8816C14.3391 59.1956 14.2332 59.1852 13.9581 59.2166C13.683 59.248 13.5877 59.0491 13.4502 58.9235C13.1488 58.6361 12.9298 58.275 12.8153 57.8767C12.8997 58.2581 13.0697 58.6158 13.3126 58.9235C13.4396 59.091 14.1168 59.719 13.8629 59.9703C13.3655 60.4204 12.3285 58.6304 12.3074 58.2536C12.3917 58.624 12.5384 58.9779 12.7412 59.3003C12.847 59.4992 13.1222 59.9493 12.7412 59.9179C12.1592 59.9179 12.0005 58.6827 11.8312 58.1593C11.8529 58.5153 11.9204 58.8671 12.0322 59.2061C12.1486 59.6667 11.7677 59.5829 11.5666 59.1328C11.488 58.9096 11.4209 58.6825 11.3656 58.4524C11.1742 57.6795 11.2487 56.8655 11.5772 56.1391C11.6936 55.8251 11.5772 55.0923 11.81 54.9981C12.2544 54.7155 12.9634 55.0819 13.4184 55.2075Z" fill="#FBBFAF"/>
<path d="M13.7561 55.2289L11.1953 55.3649C11.1953 55.3649 11.1953 47.9015 11.8408 45.3579C12.4863 42.8142 17.3645 35.937 18.465 35.4659C19.7877 34.8484 23.7559 36.5127 20.8459 38.7318C17.9359 40.951 15.2164 46.2267 15.1106 46.457C15.0048 46.6873 13.7561 55.2289 13.7561 55.2289Z" fill="#B2D550"/>
</svg>
