<svg width="105" height="70" viewBox="0 0 105 70" fill="none" xmlns="http://www.w3.org/2000/svg">
<g clip-path="url(#clip0_61_2891)">
<path d="M10.48 69.158C10.48 69.158 -1.33986 55.6205 3.59574 39.7072C8.02619 25.4253 28.0558 16.1818 38.6993 23.2552C43.8477 26.6771 48.0073 12.9236 65.0953 7.88848C77.7318 4.16546 96.4172 12.5154 91.6714 38.0865C88.0638 57.5283 105.961 47.8355 102.053 69.3132L10.48 69.158Z" fill="#F9FFE9"/>
<path d="M73.1086 20.4978C73.1086 20.4978 70.5397 17.7203 72.7811 15.8106C72.7811 15.8106 74.4295 14.7267 75.8079 14.7575C75.8079 14.7575 73.9837 18.0976 74.6245 18.3987C75.2653 18.6999 76.3907 14.5308 76.3907 14.5308C76.3907 14.5308 80.2149 14.0164 81.4718 14.5616C81.4718 14.5616 78.2911 17.3672 78.9885 17.5028C79.6859 17.6384 83.1294 14.8698 83.1294 14.8698C83.1294 14.8698 86.7245 15.3434 86.616 17.529C86.5075 19.7146 85.3016 20.4337 84.7586 20.3963C84.2155 20.3589 81.0054 19.2699 80.953 19.7155C80.9007 20.1611 82.86 21.5391 84.1964 21.5555C84.1964 21.5555 81.7823 24.427 80.0802 23.6882C78.3781 22.9494 78.1859 21.685 77.1246 21.2478C76.0633 20.8106 75.1722 20.8452 75.6213 21.3147C76.0703 21.7842 77.9768 22.1858 78.6148 23.2188C79.2528 24.2517 79.8132 24.9428 78.0718 24.7473C76.3304 24.5519 73.4673 23.3913 73.2896 21.945L73.1086 20.4978Z" fill="#599DAD"/>
<path d="M84.8637 17.6528C84.8637 17.6528 75.1468 17.6435 73.1084 20.4977C73.1084 20.4977 72.6875 21.9346 71.2782 23.2813L71.0742 23.9088C71.0742 23.9088 72.6889 22.0735 73.2866 21.9449C73.2866 21.944 72.2164 18.5427 84.8637 17.6528Z" fill="#599DAD"/>
<path d="M71.2769 23.2814C71.2769 23.2814 69.2521 24.8993 69.2109 27.6558L69.5903 27.6754C69.5903 27.6754 70.1483 24.8058 71.3088 23.648C72.4692 22.4902 71.2769 23.2814 71.2769 23.2814Z" fill="#599DAD"/>
<path d="M67.3011 17.1875C67.3011 17.1875 61.5278 15.8857 62.721 11.4389C62.721 11.4389 63.8829 8.58137 65.6869 7.39975C65.6869 7.39975 66.295 13.3214 67.3914 13.14C68.4878 12.9586 66.2365 6.59034 66.2365 6.59034C66.2365 6.59034 70.7058 2.53532 72.8111 2.12617C72.8111 2.12617 71.203 8.56267 72.2199 8.11705C73.2368 7.67142 75.2209 1.05162 75.2209 1.05162C75.2209 1.05162 80.2725 -1.52485 82.0719 1.38783C83.8713 4.3005 82.9546 6.29762 82.2216 6.72828C81.4887 7.15894 76.3865 8.60382 76.7144 9.22432C77.0423 9.84483 80.788 9.88177 82.5256 8.71978C82.5256 8.71978 81.9615 14.5596 79.1111 15.1184C76.2607 15.6772 74.893 14.2164 73.1381 14.5938C71.3831 14.9711 70.2661 15.8053 71.261 16.0125C72.2559 16.2196 75.068 15.0469 76.8042 15.8137C78.5405 16.5806 79.8778 16.9729 77.4591 18.2649C75.0404 19.5569 70.3246 20.5982 68.8129 18.891L67.3011 17.1875Z" fill="#86D1CD"/>
<path d="M79.9233 3.10205C79.9233 3.10205 67.3953 11.7031 67.3008 17.1875C67.3008 17.1875 68.0328 19.4114 67.4112 22.3961L67.7049 23.386C67.7049 23.386 68.1577 19.5901 68.8125 18.8929C68.8125 18.891 64.4172 15.4588 79.9233 3.10205Z" fill="#6BB7BF"/>
<path d="M67.4133 22.3982C67.4133 22.3982 66.2393 26.2792 68.6294 29.8657L69.136 29.5552C69.136 29.5552 67.3118 25.3627 67.7796 22.8429C68.2473 20.323 67.4133 22.3982 67.4133 22.3982Z" fill="#6BB7BF"/>
<path d="M35.2325 50.3042C35.2325 50.3042 41.0054 49.0043 39.8122 44.5555C39.8122 44.5555 38.6503 41.6976 36.8467 40.516C36.8467 40.516 36.2386 46.4381 35.1418 46.2562C34.0449 46.0743 36.2985 39.7065 36.2985 39.7065C36.2985 39.7065 31.8292 35.6515 29.7244 35.2424C29.7244 35.2424 31.332 41.6789 30.3151 41.2333C29.2983 40.7876 27.3141 34.1678 27.3141 34.1678C27.3141 34.1678 22.2625 31.5914 20.4631 34.504C18.6637 37.4167 19.5805 39.4138 20.3134 39.8445C21.0464 40.2751 26.1485 41.72 25.8211 42.3405C25.4937 42.961 21.7475 42.9984 20.0099 41.8365C20.0099 41.8365 20.574 47.6758 23.4244 48.2346C26.2748 48.7934 27.6425 47.3326 29.3974 47.71C31.1524 48.0873 32.2698 48.9215 31.2745 49.1287C30.2791 49.3358 27.4652 48.1626 25.7275 48.9299C23.9899 49.6973 22.654 50.0896 25.0727 51.3811C27.4914 52.6726 32.2081 53.7144 33.7198 52.0091L35.2325 50.3042Z" fill="#86D1CD"/>
<path d="M22.6094 36.2188C22.6094 36.2188 35.1374 44.8193 35.2323 50.3042C35.2323 50.3042 34.4998 52.5277 35.1215 55.5124L34.8277 56.5023C34.8277 56.5023 34.3749 52.7063 33.7201 52.0091C33.7201 52.0091 38.1155 48.5751 22.6094 36.2188Z" fill="#6BB7BF"/>
<path d="M35.1216 55.5124C35.1216 55.5124 36.2956 59.3935 33.9055 62.9804L33.3984 62.6695C33.3984 62.6695 35.2226 58.477 34.7549 55.9571C34.2871 53.4372 35.1216 55.5124 35.1216 55.5124Z" fill="#6BB7BF"/>
<path d="M73.5085 10.3276H31.4922V69.3125H73.5085V10.3276Z" fill="#739AF0"/>
<path d="M72.0322 11.9614H32.9688V68.2206H72.0322V11.9614Z" fill="#DDEBFD"/>
<path d="M68.8828 18.8643H36.9922V20.6874H68.8828V18.8643Z" fill="#A8C3F7"/>
<path d="M68.8828 29.9927H36.9922V30.8292H68.8828V29.9927Z" fill="#A8C3F7"/>
<path d="M68.8828 31.9609H36.9922V32.7975H68.8828V31.9609Z" fill="#A8C3F7"/>
<path d="M68.8828 33.9292H36.9922V34.7657H68.8828V33.9292Z" fill="#A8C3F7"/>
<path d="M68.8828 35.8965H36.9922V36.733H68.8828V35.8965Z" fill="#A8C3F7"/>
<path d="M68.8828 37.8647H36.9922V38.7013H68.8828V37.8647Z" fill="#A8C3F7"/>
<path d="M68.8828 39.833H36.9922V40.6695H68.8828V39.833Z" fill="#A8C3F7"/>
<path d="M46.3317 51.2623C46.3317 51.7488 46.1874 52.2245 45.917 52.629C45.6466 53.0336 45.2623 53.3489 44.8126 53.5351C44.363 53.7213 43.8682 53.77 43.3909 53.6751C42.9135 53.5801 42.4751 53.3458 42.1309 53.0018C41.7868 52.6577 41.5524 52.2194 41.4574 51.7422C41.3625 51.265 41.4112 50.7704 41.5975 50.3209C41.7837 49.8714 42.0991 49.4871 42.5038 49.2168C42.9085 48.9465 43.3842 48.8022 43.8709 48.8022C44.5236 48.8022 45.1495 49.0614 45.611 49.5228C46.0725 49.9841 46.3317 50.6098 46.3317 51.2623Z" fill="#A8C3F7"/>
<path d="M56.6305 53.6271C56.6237 53.6278 56.6168 53.6278 56.6099 53.6271C56.5781 53.6217 56.5496 53.604 56.5307 53.5777C56.5119 53.5514 56.5042 53.5188 56.5094 53.4869C56.5323 53.3517 57.0922 50.1669 58.8579 49.0858C58.9833 49.0091 59.0623 49.0489 59.0983 49.0797C59.2536 49.2125 59.1353 49.5501 58.6039 50.8248C58.392 51.3326 58.1409 51.9344 58.0375 52.3006C58.2246 52.0541 58.5052 51.6324 58.7307 51.2966C59.429 50.2487 59.5651 50.0776 59.7012 50.0776C59.7256 50.0773 59.7497 50.0831 59.7713 50.0943C59.7929 50.1056 59.8114 50.122 59.8252 50.1421C59.8996 50.2487 59.8434 50.4264 59.6503 50.9487C59.5768 51.1489 59.4632 51.4556 59.4304 51.6207C59.5519 51.4962 59.6643 51.3633 59.7667 51.2227C60.0085 50.9076 60.1316 50.7575 60.2761 50.7799C60.3087 50.7854 60.3392 50.7999 60.364 50.8218C60.3888 50.8437 60.407 50.8721 60.4164 50.9038C60.4303 50.9477 60.44 50.9928 60.4454 51.0385C60.4641 51.1648 60.4856 51.3074 60.6372 51.3929C60.944 51.566 61.8271 51.5557 64.2949 50.5274C64.31 50.5199 64.3266 50.5155 64.3434 50.5146C64.3603 50.5137 64.3772 50.5163 64.393 50.5222C64.4089 50.5282 64.4233 50.5373 64.4355 50.549C64.4476 50.5608 64.4572 50.5749 64.4637 50.5905C64.4701 50.6062 64.4733 50.6229 64.4729 50.6398C64.4726 50.6567 64.4688 50.6734 64.4617 50.6887C64.4547 50.7041 64.4445 50.7178 64.4319 50.7291C64.4193 50.7404 64.4045 50.7489 64.3885 50.7542C62.3052 51.6225 61.038 51.9017 60.5156 51.6071C60.2616 51.464 60.2232 51.2241 60.2013 51.0787C60.1316 51.1526 60.0338 51.2793 59.9627 51.3724C59.6956 51.7203 59.5198 51.9293 59.3411 51.9143C59.3146 51.9123 59.289 51.9042 59.2664 51.8904C59.2437 51.8767 59.2246 51.8578 59.2106 51.8353C59.125 51.7006 59.2106 51.436 59.4201 50.8636C59.4538 50.7701 59.4926 50.6668 59.5268 50.569C59.356 50.8028 59.1236 51.1507 58.9355 51.4332C58.1535 52.6068 58.0122 52.7775 57.8541 52.734C57.8218 52.7245 57.7934 52.7046 57.7736 52.6774C57.7537 52.6502 57.7434 52.6172 57.7442 52.5835C57.7288 52.309 57.9846 51.6712 58.3771 50.7299C58.5768 50.2515 58.8378 49.6254 58.9023 49.35C57.2966 50.4283 56.7577 53.4967 56.7507 53.528C56.7452 53.5559 56.7302 53.5809 56.7083 53.599C56.6864 53.6171 56.6589 53.627 56.6305 53.6271Z" fill="#A8C3F7"/>
<path d="M61.7034 9.37189H56.749C56.9018 8.96847 56.9543 8.53402 56.902 8.10585C56.8498 7.67767 56.6944 7.26857 56.4492 6.91366C56.2039 6.55876 55.8762 6.26865 55.4941 6.06826C55.112 5.86787 54.687 5.76318 54.2555 5.76318C53.824 5.76318 53.399 5.86787 53.0169 6.06826C52.6348 6.26865 52.3071 6.55876 52.0619 6.91366C51.8166 7.26857 51.6612 7.67767 51.609 8.10585C51.5568 8.53402 51.6093 8.96847 51.762 9.37189H46.8077C46.6162 9.37189 46.4327 9.44791 46.2973 9.58322C46.162 9.71853 46.0859 9.90205 46.0859 10.0934V12.0943C46.0859 12.2856 46.162 12.4691 46.2973 12.6044C46.4327 12.7397 46.6162 12.8158 46.8077 12.8158H61.7034C61.8948 12.8158 62.0783 12.7397 62.2137 12.6044C62.349 12.4691 62.4251 12.2856 62.4251 12.0943V10.0934C62.4251 9.90205 62.349 9.71853 62.2137 9.58322C62.0783 9.44791 61.8948 9.37189 61.7034 9.37189ZM54.2555 9.41258C54.0612 9.41258 53.8713 9.35499 53.7098 9.24709C53.5483 9.13919 53.4224 8.98583 53.348 8.8064C53.2737 8.62697 53.2542 8.42953 53.2921 8.23905C53.33 8.04857 53.4236 7.8736 53.5609 7.73627C53.6983 7.59894 53.8733 7.50542 54.0639 7.46753C54.2544 7.42964 54.4519 7.44908 54.6314 7.52341C54.8109 7.59773 54.9643 7.72359 55.0722 7.88507C55.1802 8.04655 55.2378 8.23641 55.2378 8.43062C55.2378 8.69105 55.1343 8.94081 54.9501 9.12497C54.7659 9.30912 54.516 9.41258 54.2555 9.41258Z" fill="#F99746"/>
<path d="M46.8086 12.8161H61.7043C61.8957 12.8161 62.0793 12.7401 62.2146 12.6048C62.35 12.4695 62.426 12.286 62.426 12.0946V10.0938L46.8086 12.8161Z" fill="#ED7D2B"/>
<path d="M7.01831 69.081C8.01132 68.0672 9.76067 67.3691 11.7813 67.2868V64.2974H8.29337C8.21619 64.2974 8.14697 64.2301 8.10347 64.1263C8.0708 64.0429 8.05491 63.954 8.05669 63.8644V63.7134C8.05669 63.4754 8.16427 63.2804 8.29571 63.2804H11.7818V54.9305C11.782 54.8242 11.8244 54.7223 11.8996 54.6471C11.9748 54.5719 12.0767 54.5295 12.1831 54.5293C12.2894 54.5297 12.3912 54.5721 12.4663 54.6472C12.5414 54.7224 12.5837 54.8242 12.584 54.9305V63.2804H16.07C16.2015 63.2804 16.3091 63.4754 16.3091 63.7134V63.8644C16.3101 63.9567 16.2925 64.0481 16.2571 64.1333C16.2132 64.2334 16.1453 64.2974 16.07 64.2974H12.5816V67.2877C14.6023 67.37 16.3516 68.0682 17.3446 69.0819C17.4167 69.1558 17.485 69.2306 17.5486 69.3078H6.8125C6.87798 69.2297 6.9444 69.1549 7.01831 69.081Z" fill="#D39E7A"/>
<path d="M11.7773 67.3016C13.1871 67.4321 14.3967 68.1124 15.0983 69.0785C15.1521 69.1524 15.2021 69.2272 15.2494 69.3043H16.2447C16.198 69.2272 16.147 69.1524 16.0937 69.0785C15.3111 67.9979 13.8953 67.2764 12.2741 67.2764C12.1062 67.2787 11.9401 67.2876 11.7773 67.3016Z" fill="#E0B594"/>
<path d="M22.7656 67.316C22.7656 67.316 22.8872 69.2743 23.2661 69.3028C23.3166 69.3066 25.1885 69.3066 25.1885 69.3066L27.5777 69.2926C27.5777 69.2926 27.5623 68.7169 26.864 68.5954C26.1656 68.4738 24.9963 67.9828 24.572 67.0598C24.1282 66.089 22.7656 67.316 22.7656 67.316Z" fill="#163560"/>
<path d="M13.302 52.9271C13.645 53.4971 14.0267 54.043 14.4442 54.5609C15.701 56.147 17.0692 57.4549 17.3077 58.6912C17.3618 58.96 17.4356 59.2244 17.5285 59.4824C17.6281 59.7657 17.7512 60.0636 17.8934 60.3708C18.4266 61.5291 19.2241 62.8266 20.0206 64.0064C21.3972 66.0456 22.524 67.4138 22.524 67.4138C22.524 67.4138 22.8846 67.6944 23.9174 67.6944C24.2046 67.6944 25.1719 67.5372 25.1719 67.5372C25.0783 67.2992 23.9352 64.5914 22.5525 61.1512L20.8135 56.8367L20.5833 56.2658C20.407 55.8272 20.2335 55.3956 20.0641 54.9752L17.7254 49.1714C17.7254 49.1714 12.5274 47.2028 11.9877 48.4784C11.5433 49.53 11.9058 50.5606 13.302 52.9271Z" fill="#233862"/>
<path d="M30.021 47.5259H22.1484V69.3066H30.021V47.5259Z" fill="#D39E7A"/>
<path d="M29.6965 69.3066H35.3281V47.5259H29.6965L29.6965 69.3066Z" fill="#F2C7AA"/>
<path d="M29.7512 47.0869H21.6172V47.526H29.7512V47.0869Z" fill="#AF7D5B"/>
<path d="M35.9097 47.0869H29.75V47.526H35.9097V47.0869Z" fill="#E2B291"/>
<path d="M21.4927 44.1553C21.4927 44.1553 22.6209 44.7959 22.9366 44.7959C23.2523 44.7959 24.4923 44.5565 24.8375 44.7332C25.1827 44.91 25.8085 45.6217 25.9259 45.8517C26.1369 46.2688 25.0765 46.0855 24.5751 45.7292C24.5393 45.7037 24.4985 45.6859 24.4554 45.677C24.4123 45.6682 24.3679 45.6684 24.3249 45.6778C24.0653 45.7344 23.526 45.8321 23.2654 45.7358C22.9151 45.6062 21.0703 45.4622 21.0703 45.4622L21.4927 44.1553Z" fill="#ED975D"/>
<path d="M12.9102 35.4221C12.9102 35.4221 14.0795 43.7309 16.016 44.4749C16.9716 44.8424 21.1943 45.6747 22.4432 45.7584C22.4432 45.7584 22.7491 45.5101 22.6747 44.5001C22.6747 44.5001 18.2508 42.8761 17.6231 41.9933C16.6876 40.6794 18.2036 36.6243 17.03 35.3903C15.8565 34.1563 13.8774 33.6256 12.9102 35.4221Z" fill="#82B378"/>
<path d="M17.2712 61.7231C17.2712 61.7231 15.6201 62.7837 15.7805 63.1259C15.8016 63.1727 16.716 64.8056 16.716 64.8056L17.8928 66.8845C17.8928 66.8845 18.3882 66.5904 18.1538 65.9213C17.9195 65.2521 17.7796 63.9924 18.3783 63.1732C19.0075 62.3123 17.2712 61.7231 17.2712 61.7231Z" fill="#163560"/>
<path d="M18.2094 63.7552C18.2094 63.7552 17.047 62.676 16.8651 62.0082C16.8651 62.0082 21.1173 56.9151 22.0397 55.7733C22.0823 55.7214 22.0715 55.6634 22.0154 55.6007C21.3194 54.8156 13.582 53.2197 12.5712 51.6472C12.2689 51.1859 12.0475 50.6766 11.9164 50.141C11.6872 49.1815 11.8696 48.5189 11.8696 48.5189L19.5967 48.2954C19.5967 48.2954 26.03 52.2999 26.7587 55.0288C27.4875 57.7577 18.2094 63.7552 18.2094 63.7552Z" fill="#2B478B"/>
<path d="M22.0131 55.6006C21.3171 54.8155 13.5797 53.2196 12.5689 51.6471C12.2666 51.1859 12.0452 50.6765 11.9141 50.141V49.1637L15.2009 48.647C15.2009 48.647 16.1322 51.512 18.8904 52.5865C21.4724 53.5928 21.9616 55.3781 22.0131 55.6006Z" fill="#233862"/>
<path d="M17.4826 34.8981C15.9194 35.3035 13.3281 33.854 13.3281 33.854C13.3281 33.854 14.3347 33.1778 14.7075 31.6927C14.7262 31.6179 14.743 31.5417 14.7585 31.4627L15.5616 31.2925L16.7553 32.3619C16.7205 32.7675 16.6616 33.1706 16.5789 33.5692C16.5527 33.7025 16.5233 33.8451 16.4887 33.9975C16.8724 34.2343 17.2093 34.5396 17.4826 34.8981Z" fill="#FFB27D"/>
<path d="M11.6707 41.3754C11.8943 44.3858 11.6001 48.9646 11.8541 49.7576C12.0735 50.4417 14.5707 50.0349 15.568 49.8044C15.937 49.7202 16.3837 49.5991 16.8454 49.4565C18.1331 49.0581 19.5363 48.489 19.6864 48.0663C19.6924 48.0511 19.6971 48.0355 19.7005 48.0195C19.7133 47.9611 19.7124 47.9004 19.6976 47.8423C19.6476 47.6272 19.4544 47.3939 19.4315 46.8604C19.4062 46.2651 19.41 45.5637 19.3875 44.8099C19.3875 44.7248 19.3852 44.6323 19.3758 44.5481V44.5172C19.3758 44.5009 19.3758 44.485 19.3758 44.4705C19.3543 43.6288 19.3104 42.746 19.2594 41.8692C19.2266 41.3184 19.1892 40.7732 19.1462 40.2509C19.0339 38.9023 18.8824 37.7029 18.6822 36.9449C18.3548 35.7091 17.633 34.9029 16.9763 34.3123L16.5011 33.9046C15.9707 34.0206 15.3439 33.9439 14.777 33.675C14.1633 33.3837 13.9514 33.1751 13.8443 33.2542C12.4257 34.3455 11.4065 37.695 11.6707 41.3754Z" fill="#A8D29F"/>
<path d="M16.8475 49.4583C18.1352 49.0599 19.5384 48.4908 19.6885 48.0681C19.6946 48.0529 19.6993 48.0373 19.7026 48.0213C19.7026 47.9624 19.7026 47.9035 19.6998 47.8441C19.6497 47.629 19.4565 47.3957 19.4336 46.8621C19.4084 46.2669 19.4121 45.5655 19.3897 44.8117C19.3897 44.7266 19.3873 44.634 19.378 44.5499V44.519C19.378 44.5026 19.378 44.4867 19.378 44.4722L14.1711 37.8394C14.1711 37.8394 10.6719 45.1231 16.8475 49.4583Z" fill="#82B378"/>
<path d="M16.7543 32.3619C16.7195 32.7675 16.6607 33.1706 16.578 33.5692C15.4119 33.1923 14.8829 32.1393 14.707 31.6927C14.7257 31.6179 14.7426 31.5417 14.758 31.4627L15.5611 31.2925L16.7543 32.3619Z" fill="#ED975D"/>
<path d="M16.9093 33.0351C16.9093 33.0351 14.3667 32.611 14.6557 31.0319C14.9448 29.4528 14.8105 28.3353 16.4458 28.5391C18.081 28.743 18.2859 29.4033 18.3167 29.9536C18.3476 30.504 17.5782 33.1062 16.9093 33.0351Z" fill="#FFB27D"/>
<path d="M22.4794 46.6991L28.8294 46.6981L30.5545 41.1211L30.7799 41.1908L28.9557 47.0867H22.4766L22.4794 46.6991Z" fill="#1C468A"/>
<path d="M20.7969 46.8606C20.7969 46.8606 22.8779 47.4091 23.6585 47.3516C24.4392 47.294 25.0879 46.9232 25.1862 46.7292C25.2844 46.5351 25.4907 46.1919 24.9593 46.2555C24.428 46.3191 23.7025 46.4318 23.68 46.3299C23.6576 46.2279 24.1132 46.2363 24.1132 46.2363C24.1132 46.2363 24.2535 46.0362 24.0776 46.0292C23.9017 46.0222 23.3985 45.8847 23.2104 45.9782C23.0224 46.0717 22.8493 46.4192 22.7118 46.4047C22.5743 46.3902 20.9704 45.6846 20.9704 45.6846L20.7969 46.8606Z" fill="#FFB27D"/>
<path d="M13.4258 35.8355C13.4258 35.8355 13.6718 44.2228 15.5142 45.1758C16.4231 45.6462 20.5284 46.9386 21.7605 47.1598C21.7605 47.1598 22.0921 46.9466 22.1295 45.9347C22.1295 45.9347 17.9114 43.8333 17.3843 42.8864C16.5994 41.4771 18.5536 37.6142 17.5246 36.2582C16.4956 34.9022 14.5872 34.1568 13.4258 35.8355Z" fill="#A8D29F"/>
<path d="M14.7079 31.693C14.7079 31.693 14.6784 31.1515 15.0129 30.8411C15.0129 30.8411 14.8964 30.2982 15.1116 30.2084C15.3267 30.1186 15.3712 30.5755 15.4699 30.5039C15.5686 30.4324 16.0068 30.092 16.1953 29.5907C16.3838 29.0894 18.1042 29.6968 18.3048 29.7871C18.5055 29.8773 19.1505 29.5463 19.2759 29.2774C19.2759 29.2774 18.9176 28.9912 18.7562 28.7761C18.5948 28.561 17.4667 27.111 15.8908 27.523C14.315 27.9349 14.0994 28.6868 14.1892 29.3312C14.279 29.9755 14.0624 31.477 14.7079 31.693Z" fill="#233862"/>
<path d="M17.6326 51.8448C15.2427 51.8447 12.8776 51.361 10.6796 50.4228L9.25301 49.8149C8.95445 49.6879 8.62908 49.6369 8.30597 49.6663C7.98285 49.6957 7.67205 49.8046 7.40133 49.9834C7.1306 50.1622 6.90838 50.4052 6.75451 50.6907C6.60064 50.9763 6.51991 51.2955 6.51953 51.6198V54.3413C6.51978 54.4689 6.57062 54.5913 6.66091 54.6816C6.75121 54.7718 6.87361 54.8227 7.00131 54.8229H17.6326C17.7602 54.8225 17.8825 54.7716 17.9727 54.6814C18.0629 54.5911 18.1137 54.4688 18.1139 54.3413V52.3245C18.1132 52.1973 18.0622 52.0754 17.972 51.9856C17.8819 51.8957 17.7599 51.8451 17.6326 51.8448Z" fill="#912F2F"/>
<path d="M59.1896 53.94C56.95 54.3244 54.7769 54.4076 53.1234 54.2781C51.4531 54.1472 50.4774 53.6319 50.3764 53.0436C50.2828 52.511 50.9035 51.8999 52.165 51.2775C50.9559 51.8742 50.3698 52.5461 50.4531 53.0305C50.5467 53.5683 51.52 53.9494 53.1267 54.0751C54.7741 54.2047 56.9112 54.0649 59.1451 53.6814C61.3791 53.298 63.4404 52.7177 64.9508 52.0448C66.4232 51.3902 67.2151 50.7066 67.1225 50.1688C67.0247 49.5993 65.9737 49.0513 64.3787 48.738C62.5657 48.3821 60.4263 48.5042 58.3182 48.8633C54.3611 49.5427 52.8115 50.2839 51.4976 51.105C52.8175 50.2801 54.3129 49.3454 58.284 48.6641C60.4001 48.3012 62.569 48.298 64.3909 48.6557C66.0191 48.975 67.0953 49.5497 67.1973 50.1557C67.2983 50.7435 66.5111 51.4421 64.9802 52.1225C63.4666 52.7977 61.4291 53.5556 59.1896 53.94Z" fill="#C65447"/>
<path d="M85.2705 46.6043C85.2705 46.6043 85.1409 47.8668 84.9982 48.1044C84.8556 48.3419 84.2498 49.1055 83.9912 49.2551C83.7325 49.4047 84.1488 48.2502 84.0964 48.0258C84.044 47.8014 83.8836 48.4354 83.769 48.4504C83.6544 48.4653 83.6843 47.8944 83.6806 47.6863C83.6769 47.4782 84.2344 46.9658 84.429 46.5229C84.6236 46.0801 85.2705 46.6043 85.2705 46.6043Z" fill="#FFB27D"/>
<path d="M69.7701 34.9693L69.4801 34.4227C69.4801 34.4227 69.6242 33.4477 68.4043 32.8328C68.4043 32.8328 67.9576 32.6514 67.7055 33.0152C67.4717 33.3505 68.148 33.2902 68.112 33.8639C68.076 34.4376 68.3482 34.7738 68.7276 34.9609L69.0405 35.3237L69.7701 34.9693Z" fill="#FFB27D"/>
<path d="M81.3135 33.6621C81.3135 33.6621 80.2634 38.8109 74.4906 40.4942C72.6884 41.0193 68.5938 35.0874 68.5938 35.0874C68.5938 35.0874 68.7378 34.5407 69.6396 34.6665C69.6396 34.6665 73.6262 37.3047 74.1299 37.5914C74.5757 37.8457 77.5042 34.3219 78.8396 33.7538C80.175 33.1856 81.3135 33.6621 81.3135 33.6621Z" fill="#4A75CB"/>
<path d="M65.9489 32.6481L65.7852 33.7139L71.1467 34.5369L71.3104 33.4711L65.9489 32.6481Z" fill="#C65447"/>
<path d="M64.625 32.9908L65.7897 33.7146L65.9534 32.6494L64.625 32.9908Z" fill="#FFB27D"/>
<path d="M71.8809 33.922L71.829 34.2587C71.8215 34.308 71.8044 34.3553 71.7786 34.3979C71.7528 34.4406 71.7188 34.4777 71.6786 34.5072C71.6384 34.5367 71.5928 34.558 71.5444 34.5698C71.4959 34.5817 71.4456 34.5838 71.3963 34.5762L71.1484 34.5383L71.3121 33.4727L71.5816 33.5143C71.628 33.5213 71.6726 33.5375 71.7128 33.5618C71.753 33.5862 71.788 33.6182 71.8158 33.6561C71.8437 33.6939 71.8637 33.7369 71.8749 33.7826C71.886 33.8282 71.8881 33.8756 71.8809 33.922Z" fill="#FFB27D"/>
<path d="M88.2084 66.0249C88.2084 66.0249 88.9246 66.6795 88.7847 67.1429C88.6448 67.6063 87.9984 67.9163 87.9114 68.484C87.8244 69.0516 87.4746 69.3612 87.1602 69.3612H85.6607C85.6607 69.3612 85.4296 68.9619 85.9881 68.8412C86.5466 68.7206 86.758 68.0543 86.7229 67.4352C86.6878 66.8161 86.7753 65.9907 86.7753 65.9907L87.9633 65.7153L88.2084 66.0249Z" fill="#233862"/>
<path d="M79.4245 67.7139C79.4245 67.7139 79.5531 69.2008 79.2374 69.3556L75.2148 69.3472C75.2148 69.3472 75.2148 68.8829 75.8613 68.78C76.5077 68.6771 77.6429 68.2984 77.8351 67.4558C78.0274 66.6131 79.4245 67.7139 79.4245 67.7139Z" fill="#233862"/>
<path d="M76.0234 46.7066C76.0234 46.7066 76.2358 49.3134 76.4851 52.4468C76.8242 56.702 77.2335 61.9321 77.2723 62.921C77.342 64.6409 77.6222 67.3922 77.6222 67.3922C77.6222 67.3922 78.2854 68.0469 79.6134 67.7705C79.6134 67.7705 80.7967 63.8427 81.1349 59.6876C81.1401 59.6193 81.1452 59.5506 81.1508 59.4823C81.4651 55.2519 81.9539 46.3428 81.9539 46.3428L76.0234 46.7066Z" fill="#2B478B"/>
<path d="M76.0234 46.7066C76.0234 46.7066 76.2358 49.3135 76.4851 52.4469L81.1349 59.689C81.1401 59.6208 81.1452 59.552 81.1508 59.4838C81.4651 55.2534 81.9539 46.3442 81.9539 46.3442L76.0234 46.7066Z" fill="#233862"/>
<path d="M76.9922 47.016C76.9922 47.016 80.8178 56.4568 83.3334 60.8934C85.8489 65.33 86.6351 66.5682 86.6351 66.5682C86.6351 66.5682 88.0763 66.0005 88.2077 65.6138C88.2077 65.6138 87.2455 57.0488 85.5607 54.9605C84.6089 53.7808 83.4905 50.2378 83.4381 49.0019C83.3857 47.766 83.0976 45.3135 83.0976 45.3135L76.9922 47.016Z" fill="#2B478B"/>
<path d="M82.0264 32.4673C82.0264 32.4673 79.4379 33.7158 77.9453 33.2524C78.2293 32.9231 78.5719 32.6491 78.9556 32.4444C78.9042 32.1452 78.8621 31.8833 78.841 31.6649C78.8053 31.4013 78.7842 31.136 78.7779 30.87L79.7765 30.0849L80.7237 29.3335C80.6489 31.4447 82.0264 32.4673 82.0264 32.4673Z" fill="#FFB27D"/>
<path d="M83.391 45.7969C83.3966 45.9554 83.058 46.1359 82.9088 46.2037C81.8011 46.6895 80.7679 47.0285 79.5971 47.1417C78.2136 47.282 76.5779 46.972 76.0152 46.9837C75.9577 46.9827 75.9026 46.9605 75.8604 46.9215C75.8201 46.8929 75.7916 45.2264 75.8201 43.1302C75.8201 43.0455 75.8201 42.9609 75.8257 42.8758V42.8477C75.8374 42.0285 75.866 41.1695 75.9062 40.311C75.9867 38.4238 76.1359 36.6044 76.3884 35.599C76.6925 34.4123 77.3815 33.6272 78.0068 33.0562L78.5213 32.6045C79.0359 32.706 79.5831 32.6779 80.1285 32.4123C80.7253 32.1243 81.368 31.8133 81.4714 31.8924C82.2521 32.4633 82.7811 33.7455 83.0617 35.3839C83.2288 36.4112 83.3071 37.4509 83.2956 38.4916C83.2956 38.8984 83.2844 39.3164 83.2614 39.7289C83.1235 41.9663 83.2614 43.9097 83.3419 45.0342C83.3681 45.362 83.3849 45.6164 83.391 45.7969Z" fill="#699DEE"/>
<path d="M83.3453 45.6944C74.2804 45.6766 81.6731 35.8612 81.6731 35.8612L83.1418 35.3843C83.2628 36.4867 83.3196 37.5952 83.3121 38.7042C83.3121 39.1391 83.3036 39.5857 83.2868 40.0266C83.1876 42.417 83.2868 44.4931 83.3453 45.6944Z" fill="#4A75CB"/>
<path d="M80.74 30.1392C80.74 30.1392 80.0852 31.3316 78.8405 31.665C78.8048 31.4014 78.7837 31.136 78.7773 30.8701L79.776 30.085L80.74 30.1392Z" fill="#ED985F"/>
<path d="M78.3205 30.8336C78.3205 30.8336 80.7902 31.2376 81.0217 29.7202C81.2532 28.2029 81.7285 27.2321 80.1615 26.9104C78.5946 26.5887 78.197 27.1218 77.9968 27.6118C77.7966 28.1019 77.6844 30.6895 78.3205 30.8336Z" fill="#FFB27D"/>
<path d="M81.9201 26.7286C81.9425 26.7028 81.9945 26.6818 82.1072 26.6757C82.0413 26.6387 81.9675 26.618 81.892 26.6154C81.8682 26.4555 81.783 26.1721 81.5075 26.101C81.5524 26.1274 81.5907 26.1634 81.6197 26.2066C81.6487 26.2497 81.6676 26.2988 81.675 26.3503C81.356 26.023 80.6726 25.7845 78.7797 25.9336C76.2857 26.1305 77.1075 27.7269 77.4307 27.9172C77.7539 28.1075 78.5664 27.5857 79.1679 27.6334C79.7694 27.6811 79.884 28.5503 80.0879 28.6696C80.2919 28.7888 80.2119 28.576 80.4879 28.4531C80.7638 28.3301 80.7905 28.786 80.7105 29.0834C80.6305 29.3808 81.0103 29.7731 81.0103 29.7731L81.3939 29.3602C81.777 28.9473 82.1385 27.199 81.9641 26.8263C81.951 26.7936 81.936 26.7622 81.9201 26.7286Z" fill="#2C3A64"/>
<path d="M81.471 31.8799C81.471 31.8799 83.0332 32.6196 83.7825 33.7568C84.9444 35.5206 86.2915 41.9487 86.3163 42.5439C86.3411 43.1392 85.334 47.342 85.334 47.342C85.334 47.342 84.312 47.2746 84.0482 46.7589C84.0482 46.7589 84.2521 42.4406 84.123 42.1633C83.9939 41.886 79.861 36.3712 80.3255 35.1961C80.7899 34.021 81.471 31.8799 81.471 31.8799Z" fill="#699DEE"/>
<path d="M69.4733 34.3963C69.4733 34.3963 69.5584 34.0611 69.3255 33.91C69.0925 33.759 68.8783 33.3489 68.7801 33.4046C68.5771 33.5196 68.8914 33.8778 68.8339 34.3239C68.8138 34.4805 69.1791 34.8901 69.4733 34.3963Z" fill="#FFB27D"/>
<path d="M0.0941935 69.5479H104.907C104.935 69.5439 104.961 69.5291 104.978 69.5067C104.995 69.4843 105.004 69.456 105.001 69.4278C105.004 69.3995 104.996 69.3711 104.978 69.3486C104.961 69.3261 104.935 69.3112 104.907 69.3071H0.0941935C0.0660037 69.3112 0.0404964 69.3261 0.0230459 69.3486C0.00559543 69.3711 -0.00243552 69.3995 0.000645169 69.4278C-0.00230694 69.456 0.00578357 69.4843 0.0232219 69.5067C0.0406602 69.5291 0.0660933 69.5439 0.0941935 69.5479Z" fill="#283250"/>
</g>
<defs>
<clipPath id="clip0_61_2891">
<rect width="105" height="69.5479" fill="white"/>
</clipPath>
</defs>
</svg>
