<svg width="105" height="57" viewBox="0 0 105 57" fill="none" xmlns="http://www.w3.org/2000/svg">
<path d="M102.646 55.3364H8.03516L17.2114 12.4716C18.0028 8.77597 21.5744 6.2592 25.4733 6.64975L86.5542 12.7672C89.755 13.0877 92.4015 15.3072 93.1724 18.3147L102.646 55.3364Z" fill="#F9FFE9"/>
<path d="M77.1934 48.9445C76.983 48.4464 76.7205 47.9718 76.4104 47.5289L77.8854 46.0536L75.599 43.7676L74.0418 45.3246C73.3192 44.8926 72.5305 44.5822 71.7073 44.4057V42.1553H68.4737V44.4057C67.6506 44.5823 66.8619 44.8928 66.1392 45.3246L64.582 43.7676L62.2956 46.0536L63.7706 47.5289C63.2572 48.2628 62.8756 49.0806 62.6428 49.9455H60.6836V53.1789H62.479C62.5938 53.8948 62.8104 54.5905 63.1222 55.2451H65.7151C62.9716 51.7974 65.675 46.3504 70.0905 46.4662C74.5052 46.3504 77.2102 51.7982 74.466 55.2451H77.0588C77.3706 54.5905 77.5872 53.8948 77.702 53.1789H79.4974V49.9455H77.5382C77.4464 49.6043 77.3312 49.2698 77.1934 48.9445Z" fill="#A4C4FF"/>
<path d="M80.2701 39.9654H81.0735V38.5185H80.1968C80.0928 38.1314 79.922 37.7654 79.6922 37.437L80.3522 36.7769L79.3294 35.7542L78.6325 36.452C78.3092 36.2587 77.9563 36.1199 77.588 36.041V35.0332H76.1414V36.0402C75.7731 36.1194 75.4202 36.2585 75.0969 36.452L74.4004 35.7554L73.3775 36.7781L74.0372 37.4382C73.8075 37.7666 73.6368 38.1326 73.5329 38.5198H72.6562V39.9666H73.4596C73.5288 40.3963 73.6792 40.8089 73.9026 41.1823L73.3775 41.7079L74.4004 42.7305L74.8886 42.2422C75.2657 42.5058 75.6916 42.6913 76.1414 42.7878V43.452H77.588V42.7878C78.0378 42.6914 78.4638 42.5059 78.8408 42.2422L79.3294 42.7305L80.3522 41.7079L79.8272 41.1823C80.0506 40.8084 80.2009 40.3955 80.2701 39.9654ZM76.8659 41.8649C73.6255 41.7672 73.6263 37.0581 76.8659 36.9619C80.1051 37.0597 80.1043 41.768 76.8647 41.8649H76.8659Z" fill="#A4C4FF"/>
<path d="M44.4408 33.5194H42.4122C43.009 25.4279 31.274 25.4315 31.8727 33.5194H29.2679L26.2461 55.3588H48.2996L44.4408 33.5194ZM32.8219 32.6594C33.1631 26.3945 42.1655 27.2918 41.4647 33.5194H32.8219V32.6594Z" fill="#A4C4FF"/>
<mask id="mask0_61_3027" style="mask-type:luminance" maskUnits="userSpaceOnUse" x="26" y="27" width="23" height="29">
<path d="M44.4408 33.5194H42.4122C43.009 25.4279 31.274 25.4315 31.8727 33.5194H29.2679L26.2461 55.3588H48.2996L44.4408 33.5194ZM32.8219 32.6594C33.1631 26.3945 42.1655 27.2918 41.4647 33.5194H32.8219V32.6594Z" fill="white"/>
</mask>
<g mask="url(#mask0_61_3027)">
<path d="M24.1641 53.2758C34.2967 46.8427 36.803 44.8955 38.5784 32.6445H45.4458L46.8051 56.4655L24.8117 56.3942L24.1641 53.2758Z" fill="#739BFD"/>
</g>
<g opacity="0.22">
<path d="M65.096 42.7186L67.7421 40.3809C67.7421 40.3809 68.2735 43.0767 67.837 45.0831L72.6658 44.0817C72.6658 44.0817 73.0999 48.4078 70.9256 50.0298L74.5758 52.4284C74.5758 52.4284 72.8536 54.1937 71.4179 54.5013L72.4023 55.3361H63.7539L65.096 42.7186Z" fill="#A4C4FF"/>
</g>
<path d="M82.911 22.2759L80.9102 26.2071L83.8951 26.5155L82.911 22.2759Z" fill="#DF4930"/>
<path d="M79.4746 17.7988L82.1591 24.0709L80.0365 24.4743L78.668 19.2813L79.4746 17.7988Z" fill="#FFB6A6"/>
<mask id="mask1_61_3027" style="mask-type:luminance" maskUnits="userSpaceOnUse" x="78" y="17" width="5" height="8">
<path d="M79.4746 17.7988L82.1591 24.0709L80.0365 24.4743L78.668 19.2813L79.4746 17.7988Z" fill="white"/>
</mask>
<g mask="url(#mask1_61_3027)">
<path d="M78.9258 21.0156C78.9258 21.0156 80.2074 22.9039 81.8735 22.8274L82.6064 24.3956L79.4909 24.0415L78.9258 21.0156Z" fill="#FF8370"/>
</g>
<path d="M78.3689 17.0942L77.618 19.0274C77.6055 19.0596 77.6 19.0941 77.6019 19.1287C77.6039 19.1632 77.6131 19.1969 77.6291 19.2275C77.6451 19.2582 77.6675 19.285 77.6947 19.3063C77.7219 19.3276 77.7534 19.3429 77.787 19.351L78.5756 19.5429C78.6329 19.5568 78.6933 19.5494 78.7455 19.522C78.7977 19.4947 78.8383 19.4493 78.8595 19.3943L79.7338 17.1231L78.3689 17.0942Z" fill="#38385C"/>
<path d="M74.9414 12.2852L80.099 15.833C80.2182 15.9139 80.3098 16.0293 80.3617 16.1638C80.4135 16.2982 80.423 16.4453 80.389 16.5853C80.3527 16.7341 80.2691 16.8671 80.1507 16.9644C80.0324 17.0616 79.8856 17.1178 79.7326 17.1244L73.5781 17.394L74.9414 12.2852Z" fill="#FF8370"/>
<path d="M74.281 14.8177C74.3895 14.2934 75.1372 14.1692 75.4148 14.6175C75.8954 11.4001 73.5368 11.4321 72.8291 14.4656C72.0646 17.4847 74.1452 18.5967 75.1957 15.5179C74.7435 15.7867 74.1368 15.3329 74.281 14.8177Z" fill="#38385C"/>
<path d="M75.4133 14.6166C75.1357 14.1696 74.388 14.2934 74.2795 14.8169C74.1353 15.3321 74.742 15.7859 75.1942 15.5163C75.2919 15.223 75.3652 14.9221 75.4133 14.6166Z" fill="#F85C3D"/>
<path d="M77.2687 13.8848C77.2687 13.8848 77.7421 15.312 76.4453 17.2688L77.1117 17.2395C77.1117 17.2395 78.1318 16.2417 77.9428 14.3486L77.2687 13.8848Z" fill="#38385C"/>
<path d="M79.971 18.9607C79.971 18.9607 79.7895 17.6208 79.5745 17.491C78.9064 17.088 78.4046 17.217 78.4899 17.4181C78.53 17.5094 79.0606 17.8759 79.0606 17.8759C79.0606 17.8759 79.0342 18.9387 79.0062 19.014C78.9389 19.1934 79.971 18.9607 79.971 18.9607Z" fill="#FFB6A6"/>
<path d="M78.1995 17.4844C78.1995 17.4844 78.8595 17.6766 78.8595 17.7744C78.8595 17.8721 78.459 18.6809 78.344 18.7073C78.2291 18.7337 77.7833 18.6765 77.7585 18.6212C77.5923 18.3716 77.9876 17.5985 78.1995 17.4844Z" fill="#FFB6A6"/>
<path d="M95.3662 51.2139C95.3662 51.2139 94.6261 52.2237 93.411 51.443L91.505 54.0603C91.3753 54.2483 91.3067 54.4717 91.3086 54.7001C91.3106 54.9285 91.3829 55.1508 91.5159 55.3365L95.951 52.6928C96.0338 52.6378 96.1023 52.5639 96.1511 52.4773C96.1998 52.3907 96.2273 52.2938 96.2313 52.1945C96.271 51.9673 95.48 51.3729 95.3662 51.2139Z" fill="#38385C"/>
<path d="M93.0156 50.2396L93.5875 51.5467C93.5875 51.5467 94.6392 52.1247 95.3633 51.2134L94.6136 49.3159L93.0156 50.2396Z" fill="#FFB6A6"/>
<mask id="mask2_61_3027" style="mask-type:luminance" maskUnits="userSpaceOnUse" x="93" y="49" width="3" height="3">
<path d="M93.0156 50.2396L93.5875 51.5467C93.5875 51.5467 94.6392 52.1247 95.3633 51.2134L94.6136 49.3159L93.0156 50.2396Z" fill="white"/>
</mask>
<g mask="url(#mask2_61_3027)">
<path d="M93.4095 51.4424L95.1861 50.3613L94.828 49.3999L92.8672 50.5215L93.4095 51.4424Z" fill="#FF8370"/>
</g>
<path d="M91.2845 38.4585C92.9005 30.8625 89.932 29.7085 89.932 29.7085H84.6426L81.2344 51.4473L84.0599 51.6753C84.2073 51.3857 87.0528 39.6302 87.507 39.9022L92.8052 50.7856L95.4405 49.9392L91.2845 38.4585Z" fill="#38385C"/>
<path d="M87.5045 39.902L85.4219 34.8252C85.4219 34.8252 85.4239 39.2975 86.9962 40.6919L87.5045 39.902Z" fill="#1A1A35"/>
<path d="M84.5287 14.3647C86.4755 12.4211 89.3199 18.9444 89.4737 19.1342C96.2237 22.4269 89.3603 25.5197 84.5307 23.7039C83.9071 23.5454 83.3487 23.1956 82.9339 22.7036C82.5191 22.2116 82.2687 21.602 82.2178 20.9604C82.0284 18.5378 82.1429 14.8329 84.5287 14.3647Z" fill="#38385C"/>
<path d="M83.3008 17.2739C83.8006 12.5725 88.3955 15.6116 86.3874 18.9207L86.868 21.284L85.0846 21.5969L84.8495 19.6653C83.9756 19.5079 83.3008 18.4989 83.3008 17.2739Z" fill="#FFB6A6"/>
<mask id="mask3_61_3027" style="mask-type:luminance" maskUnits="userSpaceOnUse" x="83" y="14" width="4" height="8">
<path d="M83.3008 17.2739C83.8006 12.5725 88.3955 15.6116 86.3874 18.9207L86.868 21.284L85.0846 21.5969L84.8495 19.6653C83.9756 19.5079 83.3008 18.4989 83.3008 17.2739Z" fill="white"/>
</mask>
<g mask="url(#mask3_61_3027)">
<path d="M87.1375 17.4576C87.1375 17.4576 85.8159 17.1171 85.3777 16.745L85.8183 17.1816C85.8183 17.1816 84.4606 16.8611 84.1606 16.0291C84.1606 16.0291 83.6236 16.7017 83.5735 17.2601C83.4862 16.5791 83.171 15.1171 84.4754 14.9336L87.0166 16.9725L87.1375 17.4576Z" fill="#FF8370"/>
<path d="M86.3892 18.9206C86.0601 19.3153 85.5952 19.5726 85.0859 19.6416C85.0859 19.6416 86.0592 19.9172 86.6835 19.598L86.3892 18.917" fill="#FF8370"/>
<path d="M84.4297 18.7685C84.4297 18.7685 85.0252 18.7333 85.2367 18.416C85.2367 18.416 85.1438 18.9848 84.7961 19.0385C84.4605 19.0898 84.4297 18.7685 84.4297 18.7685Z" fill="white"/>
</g>
<path d="M84.77 14.6584C84.77 14.6584 84.6811 17.0806 86.8698 17.1447C86.8698 17.1447 86.9536 14.3307 84.77 14.6584Z" fill="#38385C"/>
<path d="M84.8422 14.8839C84.8422 14.8839 84.7849 16.4 85.4233 16.9728C85.4233 16.9728 84.2647 16.3624 84.4497 15.0193C84.4497 15.0193 84.5066 14.8799 84.8422 14.8839Z" fill="#38385C"/>
<path d="M84.6319 14.855C84.6319 14.855 83.6756 16.1396 83.6179 16.9728C83.6179 16.9728 83.5834 15.6369 83.998 14.8838L84.6319 14.855Z" fill="#38385C"/>
<path d="M84.4269 30.4002C84.4269 30.4002 82.6423 24.4994 82.7047 23.0297C82.7672 21.56 84.8674 20.3988 84.8674 20.3988L86.6508 20.0859C86.6508 20.0859 89.7503 20.2321 90.4155 22.3043C91.0808 24.3764 90.9955 30.4014 90.9955 30.4014L84.4269 30.4002Z" fill="#F85C3D"/>
<mask id="mask4_61_3027" style="mask-type:luminance" maskUnits="userSpaceOnUse" x="82" y="20" width="9" height="11">
<path d="M84.4269 30.4002C84.4269 30.4002 82.6423 24.4994 82.7047 23.0297C82.7672 21.56 84.8674 20.3988 84.8674 20.3988L86.6508 20.0859C86.6508 20.0859 89.7503 20.2321 90.4155 22.3043C91.0808 24.3764 90.9955 30.4014 90.9955 30.4014L84.4269 30.4002Z" fill="white"/>
</mask>
<g mask="url(#mask4_61_3027)">
<path d="M82.8945 26.9619C82.8945 26.9619 88.8115 29.2247 91.8845 29.1835V30.8234H83.8954L82.8945 26.9619Z" fill="#DF4930"/>
<path d="M87.5041 23.5283L86.5938 22.6187L86.8541 23.5283H87.5041Z" fill="#DF4930"/>
</g>
<path d="M93.4979 23.5286H80.1934V20.9794C80.1933 20.8812 80.1671 20.7849 80.1173 20.7003C80.0675 20.6158 79.996 20.546 79.9102 20.4984C79.8244 20.4508 79.7275 20.4269 79.6294 20.4294C79.5313 20.4318 79.4356 20.4604 79.3523 20.5123L71.1381 25.6324C71.0588 25.6818 70.9934 25.7506 70.948 25.8323C70.9027 25.9141 70.8789 26.006 70.8789 26.0994C70.8789 26.1929 70.9027 26.2848 70.948 26.3665C70.9934 26.4482 71.0588 26.5171 71.1381 26.5665L79.3515 31.6854C79.4349 31.7371 79.5305 31.7656 79.6286 31.768C79.7267 31.7703 79.8236 31.7465 79.9094 31.6988C79.9951 31.6511 80.0666 31.5814 80.1164 31.4969C80.1662 31.4123 80.1925 31.316 80.1926 31.2179V28.6703H93.4971L93.4979 23.5286Z" fill="#FA8825"/>
<path d="M85.4995 27.9919C85.4995 27.9919 84.7582 27.8625 84.787 27.7139C84.8239 27.5256 86.208 27.6102 86.208 27.6102C86.7687 27.2977 92.0585 24.1445 92.5018 24.0415C93.2704 24.7473 94.1286 25.5236 93.1722 26.525C93.0373 26.6452 92.8776 26.7344 92.7045 26.7862L86.7591 28.5719C86.7591 28.5719 85.7931 29.2865 85.6581 29.2994C84.8527 29.3795 84.3841 28.7734 84.2936 28.6713C84.2031 28.5691 85.4995 27.9919 85.4995 27.9919Z" fill="#FFB6A6"/>
<mask id="mask5_61_3027" style="mask-type:luminance" maskUnits="userSpaceOnUse" x="84" y="24" width="10" height="6">
<path d="M85.4995 27.9919C85.4995 27.9919 84.7582 27.8625 84.787 27.7139C84.8239 27.5256 86.208 27.6102 86.208 27.6102C86.7687 27.2977 92.0585 24.1445 92.5018 24.0415C93.2704 24.7473 94.1286 25.5236 93.1722 26.525C93.0373 26.6452 92.8776 26.7344 92.7045 26.7862L86.7591 28.5719C86.7591 28.5719 85.7931 29.2865 85.6581 29.2994C84.8527 29.3795 84.3841 28.7734 84.2936 28.6713C84.2031 28.5691 85.4995 27.9919 85.4995 27.9919Z" fill="white"/>
</mask>
<g mask="url(#mask5_61_3027)">
<path d="M93.6547 24.5127C93.6547 24.5127 93.1549 25.1632 90.168 24.9865L92.782 23.3687L93.6547 24.5127Z" fill="#FF8370"/>
</g>
<path d="M89.4607 21.0156L92.7135 23.9398L89.6333 25.5841C87.0589 22.9255 86.1081 23.6678 89.4607 21.0156Z" fill="#F85C3D"/>
<mask id="mask6_61_3027" style="mask-type:luminance" maskUnits="userSpaceOnUse" x="87" y="21" width="6" height="5">
<path d="M89.4607 21.0156L92.7135 23.9398L89.6333 25.5841C87.0589 22.9255 86.1081 23.6678 89.4607 21.0156Z" fill="white"/>
</mask>
<g mask="url(#mask6_61_3027)">
<path d="M87.5 23.5283C87.5 23.5283 89.4588 24.9215 90.8326 24.9431L89.609 25.8003C89.609 25.8003 87.7143 24.0835 87.5 23.5283Z" fill="#DF4930"/>
</g>
<path d="M83.2844 53.6934C83.2844 53.6934 82.1382 54.1969 81.477 52.9131L78.5169 54.2257C78.3105 54.3235 78.1393 54.4826 78.0268 54.6814C77.9142 54.8801 77.8658 55.1088 77.8881 55.3361L83.0501 55.2664C83.1493 55.2601 83.2455 55.2305 83.331 55.1799C83.4165 55.1292 83.4888 55.0591 83.542 54.9752C83.6909 54.7978 83.3049 53.8877 83.2844 53.6934Z" fill="#38385C"/>
<path d="M81.6802 51.4834L81.5781 53.0929C81.5781 53.0929 82.1997 54.1199 83.2826 53.6937L83.6479 51.6424L81.6802 51.4834Z" fill="#FFB6A6"/>
<mask id="mask7_61_3027" style="mask-type:luminance" maskUnits="userSpaceOnUse" x="81" y="51" width="3" height="3">
<path d="M81.6802 51.4834L81.5781 53.0929C81.5781 53.0929 82.1997 54.1199 83.2826 53.6937L83.6479 51.6424L81.6802 51.4834Z" fill="white"/>
</mask>
<g mask="url(#mask7_61_3027)">
<path d="M81.3594 51.9534L83.6795 52.616C83.6795 52.616 83.987 51.2813 83.8689 51.214C83.7508 51.1467 81.5776 51.214 81.5776 51.214L81.3594 51.9534Z" fill="#FF8370"/>
</g>
<path d="M84.8359 30.3999C84.8359 30.3999 88.9967 32.0518 91.3641 31.6252C91.2464 31.1746 91.0295 30.7559 90.7293 30.3999H84.8359Z" fill="#1A1A35"/>
<path d="M74.5755 52.4288C72.587 50.6815 70.3746 50.466 68.9256 50.5753C72.1937 49.2763 72.6771 43.9752 72.6771 43.9752C68.572 44.7142 67.1146 45.8422 66.6596 46.3245C68.1158 44.312 67.7409 40.3809 67.7409 40.3809C64.2967 42.9121 63.3867 45.2277 63.3867 45.2277L63.7528 55.3381H71.5797C71.5797 55.3381 70.8656 54.9303 69.8456 54.4064C72.7027 53.5564 74.5755 52.4288 74.5755 52.4288Z" fill="#A7BD37"/>
<mask id="mask8_61_3027" style="mask-type:luminance" maskUnits="userSpaceOnUse" x="63" y="40" width="12" height="16">
<path d="M74.5755 52.4288C72.587 50.6815 70.3746 50.466 68.9256 50.5753C72.1937 49.2763 72.6771 43.9752 72.6771 43.9752C68.572 44.7142 67.1146 45.8422 66.6596 46.3245C68.1158 44.312 67.7409 40.3809 67.7409 40.3809C64.2967 42.9121 63.3867 45.2277 63.3867 45.2277L63.7528 55.3381H71.5797C71.5797 55.3381 70.8656 54.9303 69.8456 54.4064C72.7027 53.5564 74.5755 52.4288 74.5755 52.4288Z" fill="white"/>
</mask>
<g mask="url(#mask8_61_3027)">
<path d="M66.2208 41.6226L66.1779 54.0186C66.0706 56.0739 64.0601 55.7855 62.5898 55.731L62.8538 41.8765L66.2208 41.6226Z" fill="#3E5409"/>
<path d="M64 46.8226C66.0225 45.3806 67.6998 40.6727 67.6846 40.3647C67.7034 40.2926 67.8212 40.3218 67.7983 40.3967C67.6401 41.5323 65.3589 46.5579 64 46.8226Z" fill="#3E5409"/>
<path d="M64.1328 50.5812C64.1189 50.581 64.1055 50.576 64.095 50.567C64.0844 50.5579 64.0774 50.5455 64.0751 50.5319C64.0727 50.5182 64.0753 50.5041 64.0822 50.4921C64.0892 50.4801 64.1001 50.471 64.1131 50.4662C67.1854 49.4207 72.5184 43.8933 72.7179 43.9333C72.7547 44.13 67.1537 49.4704 64.1328 50.5812Z" fill="#3E5409"/>
<path d="M64.1353 52.9724C64.1218 52.9718 64.1088 52.9667 64.0986 52.9578C64.0884 52.9489 64.0815 52.9368 64.0791 52.9234C64.0767 52.9101 64.0788 52.8964 64.0853 52.8844C64.0917 52.8725 64.102 52.8631 64.1145 52.8578C67.4066 51.6962 74.5402 52.2526 74.636 52.4344C74.5034 52.5891 67.4086 51.703 64.1353 52.9724Z" fill="#3E5409"/>
</g>
<path d="M42.8505 55.3362H31.7307C31.7307 55.3362 33.9915 54.2803 35.3684 54.052C35.3684 54.052 31.548 53.24 29.9961 50.7329C29.9961 50.7329 35.0708 49.4435 36.366 49.1807C36.366 49.1807 33.3899 48.0154 32.9346 45.6252H38.0209C38.0209 45.6252 35.863 42.9679 35.8442 41.1821C35.8442 41.1821 38.8079 41.3532 41.3154 43.6901L42.8505 55.3362Z" fill="#3875FF"/>
<path d="M41.8115 44.2086C41.8115 44.2086 39.998 41.9414 35.9742 41.2612C35.9742 41.2612 36.8826 44.9116 39.1662 45.6274C39.1662 45.6274 36.3591 44.7233 32.9337 45.6274C32.9337 45.6274 34.5513 48.9578 39.0709 49.386C39.0709 49.386 33.0762 49.0054 30.2695 50.6229C30.2695 50.6229 34.5989 54.1579 39.2611 54.1271C39.2611 54.1271 35.1224 54.345 33.1735 55.3384H42.4623L41.8115 44.2086Z" fill="#A7BD37"/>
<mask id="mask9_61_3027" style="mask-type:luminance" maskUnits="userSpaceOnUse" x="30" y="41" width="13" height="15">
<path d="M41.8115 44.2086C41.8115 44.2086 39.998 41.9414 35.9742 41.2612C35.9742 41.2612 36.8826 44.9116 39.1662 45.6274C39.1662 45.6274 36.3591 44.7233 32.9337 45.6274C32.9337 45.6274 34.5513 48.9578 39.0709 49.386C39.0709 49.386 33.0762 49.0054 30.2695 50.6229C30.2695 50.6229 34.5989 54.1579 39.2611 54.1271C39.2611 54.1271 35.1224 54.345 33.1735 55.3384H42.4623L41.8115 44.2086Z" fill="white"/>
</mask>
<g mask="url(#mask9_61_3027)">
<path d="M40.2793 42.4429L40.168 54.0041C40.2369 55.6805 41.6682 55.8371 43.0175 55.7429L42.6362 43.1927L40.2793 42.4429Z" fill="#3E5409"/>
<path d="M41.4699 45.5074C38.8001 44.4086 35.8721 41.3975 35.9346 41.2177C36.126 41.1776 38.7609 44.3541 41.4919 45.3932C41.5042 45.3987 41.5143 45.4082 41.5205 45.4201C41.5268 45.4321 41.5288 45.4458 41.5262 45.459C41.5237 45.4723 41.5167 45.4842 41.5065 45.493C41.4962 45.5018 41.4833 45.5068 41.4699 45.5074Z" fill="#3E5409"/>
<path d="M41.3871 48.3583C40.9353 48.5141 33.3879 46.0598 32.8789 45.6044C33.0267 45.479 39.4187 48.1336 41.3915 48.2401C41.4632 48.2437 41.4624 48.3603 41.3871 48.3583Z" fill="#3E5409"/>
<path d="M40.9503 52.6543C37.4079 51.3152 30.315 50.7925 30.2113 50.6154C30.1488 50.5217 37.9786 51.2051 40.9503 52.6543Z" fill="#3E5409"/>
</g>
<path d="M94.0426 8.68488L93.2416 0.604618C93.224 0.427692 93.1369 0.265004 92.9994 0.152329C92.8618 0.0396532 92.6852 -0.013785 92.5083 0.00376488L84.4282 0.804902C84.2513 0.822514 84.0887 0.909673 83.976 1.04721C83.8634 1.18475 83.8099 1.36141 83.8275 1.53834L84.6285 9.61861C84.6461 9.79554 84.7332 9.95822 84.8708 10.0709C85.0083 10.1836 85.1849 10.237 85.3618 10.2195L87.1725 10.04L87.3579 11.3479C87.3694 11.4289 87.4039 11.5048 87.4573 11.5668C87.5107 11.6288 87.5807 11.6741 87.6591 11.6974C87.7375 11.7207 87.821 11.7211 87.8995 11.6984C87.9781 11.6757 88.0485 11.6309 88.1024 11.5694L89.6576 9.79406L93.4423 9.41873C93.5299 9.41006 93.615 9.38419 93.6926 9.3426C93.7702 9.30101 93.8389 9.24452 93.8946 9.17635C93.9504 9.10819 93.9922 9.02969 94.0176 8.94536C94.043 8.86103 94.0515 8.77251 94.0426 8.68488Z" fill="#FFD8B6"/>
<path d="M88.2298 4.9214C87.7932 5.49021 86.6514 5.67166 86.1472 5.14051C85.6145 4.64981 85.6782 3.40605 86.1672 2.88451C86.6038 2.3157 87.7456 2.13384 88.2498 2.6654C88.7829 3.15609 88.7192 4.39986 88.2298 4.9214ZM87.4336 4.45714C87.5069 4.20999 87.6563 3.11243 87.2133 3.14207C86.7728 3.22219 86.8805 4.20078 86.9654 4.50401C87.0571 4.74034 87.3603 4.68306 87.434 4.45714H87.4336ZM90.3396 2.0305L91.137 1.94678L87.8737 8.0915L87.0916 8.17161L90.3396 2.0305ZM92.3325 6.71274C92.101 7.50146 91.1863 7.94008 90.4209 7.71216C89.6003 7.47783 89.4597 6.41832 89.704 5.70932C89.9603 4.76598 91.3697 4.29171 92.067 4.97187C92.4647 5.32477 92.5279 6.17438 92.3329 6.71274H92.3325ZM91.2511 6.77563C91.2984 6.65866 91.3234 6.45838 91.326 6.17478C91.3016 5.80706 91.3661 5.47699 91.0309 5.45375C90.5903 5.53587 90.6993 6.51806 90.7826 6.81569C90.8731 7.05362 91.1747 6.99754 91.2495 6.77563H91.2511Z" fill="#739BFD"/>
<path d="M36.5312 52.9152L35.8103 51.335L33.8398 51.7291L34.8655 53.742C35.6 54.0324 36.6938 54.2643 36.5312 52.9152Z" fill="#FFB6A6"/>
<mask id="mask10_61_3027" style="mask-type:luminance" maskUnits="userSpaceOnUse" x="33" y="51" width="4" height="3">
<path d="M36.5312 52.9152L35.8103 51.335L33.8398 51.7291L34.8655 53.742C35.6 54.0324 36.6938 54.2643 36.5312 52.9152Z" fill="white"/>
</mask>
<g mask="url(#mask10_61_3027)">
<path d="M36.7278 51.7275L33.8394 52.9132L33.0977 51.3326L35.8479 50.9805L36.7278 51.7275Z" fill="#FF8370"/>
</g>
<path d="M34.724 53.6933C34.724 53.6933 35.8698 54.1969 36.531 52.915L39.4899 54.2257C39.6963 54.3235 39.8675 54.4826 39.98 54.6813C40.0926 54.8801 40.141 55.1088 40.1187 55.3361L34.9467 55.2664C34.8476 55.2584 34.7518 55.227 34.6671 55.1749C34.5825 55.1227 34.5114 55.0513 34.4597 54.9663C34.3211 54.7941 34.7072 53.8812 34.724 53.6933Z" fill="#38385C"/>
<path d="M18.6474 26.7051L18.4011 28.744L15.3789 33.0974L17.2597 33.3489L20.1937 30.027L20.6158 26.7051H18.6474Z" fill="#FFB6A6"/>
<mask id="mask11_61_3027" style="mask-type:luminance" maskUnits="userSpaceOnUse" x="15" y="26" width="6" height="8">
<path d="M18.6474 26.7051L18.4011 28.744L15.3789 33.0974L17.2597 33.3489L20.1937 30.027L20.6158 26.7051H18.6474Z" fill="white"/>
</mask>
<g mask="url(#mask11_61_3027)">
<path d="M18.332 26.9833L19.9464 27.7728L19.9004 26.4181L18.4802 26.3872L18.332 26.9833Z" fill="#FF8370"/>
<path d="M19.6739 29.438C19.5938 29.5385 15.9961 33.1529 15.9961 33.1529C15.9961 33.1529 19.4824 31.8154 19.6739 31.1624C19.8653 30.5095 19.6739 29.438 19.6739 29.438Z" fill="#FF8370"/>
</g>
<path d="M19.9561 26.7053H18.332L18.8967 23.2235L20.2652 22.2998L19.9561 26.7053Z" fill="#F85C3D"/>
<path d="M20.9039 15.8628L19.8867 18.9808C19.8436 19.1129 19.83 19.2528 19.8469 19.3907C19.8638 19.5286 19.9107 19.6611 19.9844 19.7789C20.058 19.8967 20.1567 19.9968 20.2733 20.0723C20.3899 20.1478 20.5216 20.1968 20.6592 20.2158L22.2736 20.4385L22.8039 23.0646H25.3671L23.4796 15.8628H20.9039Z" fill="#FFB6A6"/>
<mask id="mask12_61_3027" style="mask-type:luminance" maskUnits="userSpaceOnUse" x="19" y="15" width="7" height="9">
<path d="M20.9039 15.8628L19.8867 18.9808C19.8436 19.1129 19.83 19.2528 19.8469 19.3907C19.8638 19.5286 19.9107 19.6611 19.9844 19.7789C20.058 19.8967 20.1567 19.9968 20.2733 20.0723C20.3899 20.1478 20.5216 20.1968 20.6592 20.2158L22.2736 20.4385L22.8039 23.0646H25.3671L23.4796 15.8628H20.9039Z" fill="white"/>
</mask>
<g mask="url(#mask12_61_3027)">
<path d="M19.8398 19.7485C19.8398 19.7485 21.101 20.0754 22.5284 19.6104C22.5284 19.6104 22.2164 20.1527 22.3041 20.5877C22.3041 20.5877 20.0381 20.5321 19.8398 19.7485Z" fill="#FF8370"/>
<path d="M20.2734 16.4268C20.2734 16.4268 20.5958 17.6906 23.0589 17.5937L21.0268 15.5708L20.2734 16.4268Z" fill="#FF8370"/>
</g>
<path d="M21.0118 15.8625C21.0118 15.8625 22.1445 17.4451 23.0568 17.5929L23.2358 17.0241C23.2358 17.0241 23.9395 17.6037 23.356 18.2346C23.356 18.2346 23.5911 19.1231 24.4061 19.4163C24.4934 18.8419 25.7149 14.827 24.2815 14.0235L24.3784 14.6588C24.1121 14.0896 22.8445 13.7947 21.5645 13.7827L22.072 14.134C21.0883 13.8732 19.3982 14.3984 19.5308 15.8645L20.18 15.2111C20.18 15.2111 19.7519 15.9153 20.1111 16.827C20.1123 16.8238 20.9045 16.2955 21.0118 15.8625Z" fill="#38385C"/>
<path d="M19.5529 33.543L16.7302 41.2775C16.0494 41.6044 20.0544 51.1516 20.1144 51.7272H22.7826L21.5651 41.8307L23.2568 38.5917L29.0668 44.9239L33.5424 52.04L36.432 51.4392L33.2568 42.9303L27.4868 33.5474L19.5529 33.543Z" fill="#38385C"/>
<path d="M23.2952 33.545C23.2952 33.545 21.3119 36.5364 18.2305 37.1657C18.2305 37.1657 23.1426 37.2318 24.5367 33.543L23.2952 33.545Z" fill="#1A1A35"/>
<path d="M18.8984 33.5503H27.822L26.7947 23.0847C26.4903 20.7389 24.328 20.8058 22.4857 20.8815C21.8847 20.8818 21.3049 21.1036 20.8571 21.5046C20.4094 21.9056 20.1251 22.4576 20.0587 23.055L18.8984 33.5503Z" fill="#F85C3D"/>
<path d="M21.4827 35.3779C25.3995 32.211 25.9314 25.9589 22.6041 22.1759L17.7192 16.3833L14.0658 19.4641C16.4204 22.7207 23.1171 27.5556 18.402 31.7267C13.5011 35.6711 9.85138 28.2421 7.04788 25.3801L3.39453 28.4604L8.28062 34.2555C11.4478 38.1742 17.7012 38.7038 21.4827 35.3779Z" fill="#38385C"/>
<mask id="mask13_61_3027" style="mask-type:luminance" maskUnits="userSpaceOnUse" x="3" y="16" width="22" height="22">
<path d="M21.4827 35.3779C25.3995 32.211 25.9314 25.9589 22.6041 22.1759L17.7192 16.3833L14.0658 19.4641C16.4204 22.7207 23.1171 27.5556 18.402 31.7267C13.5011 35.6711 9.85138 28.2421 7.04788 25.3801L3.39453 28.4604L8.28062 34.2555C11.4478 38.1742 17.7012 38.7038 21.4827 35.3779Z" fill="white"/>
</mask>
<g mask="url(#mask13_61_3027)">
<path d="M15.1085 18.583L20.4159 25.0522C20.4159 25.0522 23.1116 28.6144 19.3566 32.6101C19.3566 32.6101 17.2299 34.9691 13.5305 33.6215C11.7223 33.235 7.39046 27.4059 6.06641 26.2074C6.06641 26.2074 13.7003 19.1418 15.1085 18.583Z" fill="#1A1A35"/>
</g>
<path d="M14.0653 19.4607L17.7188 16.3804L15.7523 14.0472L12.0989 17.1275L14.0653 19.4607Z" fill="#F85C3D"/>
<mask id="mask14_61_3027" style="mask-type:luminance" maskUnits="userSpaceOnUse" x="12" y="14" width="6" height="6">
<path d="M14.0692 19.4607L17.7227 16.3804L15.7562 14.0472L12.1028 17.1275L14.0692 19.4607Z" fill="white"/>
</mask>
<g mask="url(#mask14_61_3027)">
<path d="M15.1109 18.5835L13.1437 16.251L12.1016 17.1298L14.0684 19.4623L15.1109 18.5835Z" fill="#DF4930"/>
</g>
<path d="M3.39733 28.4592L7.05078 25.3789L5.08434 23.0458L1.43088 26.1261L3.39733 28.4592Z" fill="#F85C3D"/>
<mask id="mask15_61_3027" style="mask-type:luminance" maskUnits="userSpaceOnUse" x="1" y="23" width="7" height="6">
<path d="M3.39733 28.4587L7.05078 25.3784L5.08434 23.0453L1.43088 26.1256L3.39733 28.4587Z" fill="white"/>
</mask>
<g mask="url(#mask15_61_3027)">
<path d="M6.0686 26.2074L4.07812 23.895L5.08338 23.0474L7.05023 25.3799L6.0686 26.2074Z" fill="#DF4930"/>
</g>
<path d="M26.2461 21.771L30.1289 27.2159L26.7403 29.4383L26.2461 21.771Z" fill="#F85C3D"/>
<path d="M20.3285 33.058C20.2977 32.9298 21.9706 32.3094 21.9706 32.3094L29.0646 27.9155C29.5096 28.695 30.3887 29.7093 29.8592 30.5513C29.6631 30.9442 29.3273 31.2498 28.9176 31.4081L22.8853 33.7017C21.9153 34.7588 21.8564 35.2527 20.3301 34.5557C20.2953 34.5033 20.7843 33.8415 21.2373 33.2499C20.7763 33.3084 20.3542 33.1674 20.3285 33.058Z" fill="#FFB6A6"/>
<mask id="mask16_61_3027" style="mask-type:luminance" maskUnits="userSpaceOnUse" x="20" y="27" width="11" height="8">
<path d="M20.3285 33.058C20.2977 32.9298 21.9706 32.3094 21.9706 32.3094L29.0646 27.9155C29.5096 28.695 30.3887 29.7093 29.8592 30.5513C29.6631 30.9442 29.3273 31.2498 28.9176 31.4081L22.8853 33.7017C21.9153 34.7588 21.8564 35.2527 20.3301 34.5557C20.2953 34.5033 20.7843 33.8415 21.2373 33.2499C20.7763 33.3084 20.3542 33.1674 20.3285 33.058Z" fill="white"/>
</mask>
<g mask="url(#mask16_61_3027)">
<path d="M26.5 29.4383C26.5 29.4383 29.3544 29.1903 29.5862 28.5278L28.8742 27.4863L26.5 29.4399" fill="#FF8370"/>
</g>
<path d="M26.5618 29.4629L24.1641 24.7822C24.1641 24.7822 25.3656 27.44 24.4604 30.7643L26.5618 29.4629Z" fill="#DF4930"/>
<path d="M22.4944 53.6934L22.1079 51.7271H20.2969L20.7963 53.3005C20.7963 53.3005 21.6273 54.237 22.4944 53.6934Z" fill="#FFB6A6"/>
<mask id="mask17_61_3027" style="mask-type:luminance" maskUnits="userSpaceOnUse" x="20" y="51" width="3" height="3">
<path d="M22.4944 53.6934L22.1079 51.7271H20.2969L20.7963 53.3005C20.7963 53.3005 21.6273 54.237 22.4944 53.6934Z" fill="white"/>
</mask>
<g mask="url(#mask17_61_3027)">
<path d="M22.4936 52.6013L20.2657 52.1146L20.1211 51.5823L22.273 51.5142L22.4936 52.6013Z" fill="#FF8370"/>
</g>
<path d="M22.4957 53.6933C22.4957 53.6933 21.3483 54.1969 20.6883 52.915L17.7282 54.2277C17.5218 54.3255 17.3506 54.4846 17.238 54.6834C17.1254 54.8821 17.0768 55.1107 17.099 55.3381L22.2614 55.2684C22.3605 55.2621 22.4568 55.2324 22.5423 55.1818C22.6277 55.1312 22.7 55.0611 22.7532 54.9772C22.9018 54.7977 22.5141 53.8876 22.4957 53.6933Z" fill="#38385C"/>
<path d="M9.67578 9.0369C9.73025 12.2274 14.4762 12.227 14.5302 9.0369C14.4758 5.84838 9.72985 5.84838 9.67578 9.0369Z" fill="#F9FFE9"/>
<mask id="mask18_61_3027" style="mask-type:luminance" maskUnits="userSpaceOnUse" x="9" y="6" width="6" height="6">
<path d="M9.67578 9.0369C9.73025 12.2274 14.4762 12.227 14.5302 9.0369C14.4758 5.84838 9.72985 5.84838 9.67578 9.0369Z" fill="white"/>
</mask>
<g mask="url(#mask18_61_3027)">
<path d="M11.3006 9.17812C10.6305 8.52199 11.1504 7.27101 12.1036 7.30386C13.0567 7.27101 13.577 8.52239 12.907 9.17812C15.1065 10.0001 14.4905 13.4366 12.1036 13.4033C9.71698 13.4366 9.10061 9.99968 11.3006 9.17812Z" fill="#739BFD"/>
</g>
<path d="M9.50964 17.0357C10.416 19.7484 14.469 18.4666 13.656 15.7275C12.7493 13.0188 8.69583 14.2967 9.50964 17.0357Z" fill="#F9FFE9"/>
<mask id="mask19_61_3027" style="mask-type:luminance" maskUnits="userSpaceOnUse" x="9" y="14" width="5" height="5">
<path d="M9.50964 17.0357C10.416 19.7484 14.469 18.4666 13.656 15.7275C12.7493 13.0188 8.69583 14.2967 9.50964 17.0357Z" fill="white"/>
</mask>
<g mask="url(#mask19_61_3027)">
<path d="M10.9352 16.7193C10.1863 16.3396 10.2944 15.1307 11.1163 14.9019C11.9213 14.6167 12.703 15.5452 12.3073 16.2863C14.4076 16.3952 14.8077 19.4964 12.7599 20.1113C10.7306 20.7827 9.27797 18.0135 10.9352 16.7193Z" fill="#739BFD"/>
</g>
<path d="M0.671875 23.7139C0.709121 25.9054 3.96918 25.905 4.00643 23.7139C3.96918 21.5216 0.708721 21.522 0.671875 23.7139Z" fill="#F9FFE9"/>
<mask id="mask20_61_3027" style="mask-type:luminance" maskUnits="userSpaceOnUse" x="0" y="22" width="5" height="4">
<path d="M0.671875 23.7139C0.709121 25.9054 3.96918 25.905 4.00643 23.7139C3.96918 21.5216 0.708721 21.522 0.671875 23.7139Z" fill="white"/>
</mask>
<g mask="url(#mask20_61_3027)">
<path d="M1.78902 23.8107C1.32885 23.3597 1.68609 22.5001 2.34091 22.5229C2.99572 22.5001 3.35297 23.3601 2.8928 23.8107C4.40388 24.3751 3.98055 26.7349 2.34091 26.7129C0.701266 26.7357 0.277939 24.3747 1.78902 23.8107Z" fill="#739BFD"/>
</g>
<path d="M0.114453 17.3091C1.29753 21.5507 7.63182 19.8964 6.59332 15.6195C5.41025 11.3803 -0.92364 13.0326 0.114453 17.3091Z" fill="#F9FFE9"/>
<mask id="mask21_61_3027" style="mask-type:luminance" maskUnits="userSpaceOnUse" x="0" y="13" width="7" height="7">
<path d="M0.114453 17.3091C1.29753 21.5507 7.63182 19.8964 6.59332 15.6195C5.41025 11.3803 -0.92364 13.0326 0.114453 17.3091Z" fill="white"/>
</mask>
<g mask="url(#mask21_61_3027)">
<path d="M2.3313 16.9327C1.2099 16.2918 1.46702 14.4392 2.75102 14.1516C4.01179 13.7759 5.1416 15.2648 4.47557 16.3736C7.69759 16.7052 8.07125 21.506 4.87367 22.2924C1.69971 23.1672 -0.320403 18.795 2.3313 16.9327Z" fill="#739BFD"/>
</g>
<path d="M105 55.1514H5.90234V55.5211H105V55.1514Z" fill="#38385C"/>
<path d="M62.8963 2.23877H54.9617C54.683 2.23877 54.457 2.46474 54.457 2.74349V10.1872C54.457 10.466 54.683 10.692 54.9617 10.692H62.8963C63.175 10.692 63.401 10.466 63.401 10.1872V2.74349C63.401 2.46474 63.175 2.23877 62.8963 2.23877Z" fill="#FFD8B6"/>
<path d="M56.9267 4.68701C56.9267 4.68701 57.3672 6.87131 60.2909 6.50319L61.8644 7.68887C62.0427 7.81585 62.0995 8.03657 62.0827 8.24566H59.0425C58.9097 8.24567 58.7782 8.21869 58.656 8.16636C58.5339 8.11403 58.4237 8.03744 58.332 7.94123L56.9303 6.46634V8.24566H56.3624C56.3624 8.24566 56.4825 6.84688 56.0552 6.33135C56.0552 6.32934 55.8469 5.54503 56.9267 4.68701Z" fill="#739BFD"/>
<path d="M73.764 33.496C73.7452 34.5992 72.1048 34.5988 72.0859 33.496C72.1048 32.3933 73.7456 32.3933 73.764 33.496Z" fill="#D1DAF7"/>
<path d="M69.9308 19.6116C69.928 20.2305 68.9868 20.2305 68.9844 19.6116C68.982 18.9927 69.9284 18.9927 69.9308 19.6116Z" fill="#D1DAF7"/>
<path d="M96.9108 39.9415C96.884 41.5221 94.5326 41.5221 94.5078 39.9415C94.5326 38.3604 96.884 38.3608 96.9108 39.9415Z" fill="#D1DAF7"/>
<path d="M37.1423 22.8572C37.1391 23.5866 36.0305 23.5862 36.0273 22.8572C36.0305 22.1281 37.1391 22.1285 37.1423 22.8572Z" fill="#D1DAF7"/>
<path d="M27.6046 11.8332C27.5894 12.7261 26.2613 12.7261 26.2461 11.8332C26.2613 10.9404 27.5894 10.9404 27.6046 11.8332Z" fill="#D1DAF7"/>
<path d="M15.0249 47.8973C14.9965 49.5621 12.5202 49.5617 12.4922 47.8973C12.5206 46.2326 14.9965 46.233 15.0249 47.8973Z" fill="#D1DAF7"/>
<path d="M63.7556 12.1528H42.4599C41.6256 12.1528 40.9492 12.8293 40.9492 13.6638V53.8252C40.9492 54.6596 41.6256 55.3361 42.4599 55.3361H63.7556C64.59 55.3361 65.2663 54.6596 65.2663 53.8252V13.6638C65.2663 12.8293 64.59 12.1528 63.7556 12.1528Z" fill="#38385C"/>
<path d="M63.3648 15.3281H42.8477V52.1604H63.3648V15.3281Z" fill="#B9D4FD"/>
<mask id="mask22_61_3027" style="mask-type:luminance" maskUnits="userSpaceOnUse" x="42" y="15" width="22" height="38">
<path d="M63.3648 15.3281H42.8477V52.1604H63.3648V15.3281Z" fill="white"/>
</mask>
<g mask="url(#mask22_61_3027)">
<path d="M48.6225 23.2998H44.879C44.5446 23.2998 44.2734 23.571 44.2734 23.9055V27.6488C44.2734 27.9833 44.5446 28.2544 44.879 28.2544H48.6225C48.9569 28.2544 49.228 27.9833 49.228 27.6488V23.9055C49.228 23.571 48.9569 23.2998 48.6225 23.2998Z" fill="#F9FFE9"/>
<path d="M54.9779 23.2998H51.2345C50.9 23.2998 50.6289 23.571 50.6289 23.9055V27.6488C50.6289 27.9833 50.9 28.2544 51.2345 28.2544H54.9779C55.3124 28.2544 55.5835 27.9833 55.5835 27.6488V23.9055C55.5835 23.571 55.3124 23.2998 54.9779 23.2998Z" fill="#F9FFE9"/>
<path d="M61.3334 23.2998H57.5899C57.2555 23.2998 56.9844 23.571 56.9844 23.9055V27.6488C56.9844 27.9833 57.2555 28.2544 57.5899 28.2544H61.3334C61.6678 28.2544 61.9389 27.9833 61.9389 27.6488V23.9055C61.9389 23.571 61.6678 23.2998 61.3334 23.2998Z" fill="#F9FFE9"/>
<path d="M48.6225 30.3174H44.879C44.5446 30.3174 44.2734 30.5885 44.2734 30.923V34.6664C44.2734 35.0009 44.5446 35.272 44.879 35.272H48.6225C48.9569 35.272 49.228 35.0009 49.228 34.6664V30.923C49.228 30.5885 48.9569 30.3174 48.6225 30.3174Z" fill="#F9FFE9"/>
<path d="M54.9779 30.3174H51.2345C50.9 30.3174 50.6289 30.5885 50.6289 30.923V34.6664C50.6289 35.0009 50.9 35.272 51.2345 35.272H54.9779C55.3124 35.272 55.5835 35.0009 55.5835 34.6664V30.923C55.5835 30.5885 55.3124 30.3174 54.9779 30.3174Z" fill="#F9FFE9"/>
<path d="M61.3334 30.3174H57.5899C57.2555 30.3174 56.9844 30.5885 56.9844 30.923V34.6664C56.9844 35.0009 57.2555 35.272 57.5899 35.272H61.3334C61.6678 35.272 61.9389 35.0009 61.9389 34.6664V30.923C61.9389 30.5885 61.6678 30.3174 61.3334 30.3174Z" fill="#F9FFE9"/>
<path d="M48.6225 37.335H44.879C44.5446 37.335 44.2734 37.6061 44.2734 37.9406V41.6839C44.2734 42.0184 44.5446 42.2896 44.879 42.2896H48.6225C48.9569 42.2896 49.228 42.0184 49.228 41.6839V37.9406C49.228 37.6061 48.9569 37.335 48.6225 37.335Z" fill="#F9FFE9"/>
<path d="M54.9779 37.335H51.2345C50.9 37.335 50.6289 37.6061 50.6289 37.9406V41.6839C50.6289 42.0184 50.9 42.2896 51.2345 42.2896H54.9779C55.3124 42.2896 55.5835 42.0184 55.5835 41.6839V37.9406C55.5835 37.6061 55.3124 37.335 54.9779 37.335Z" fill="#F9FFE9"/>
<path d="M61.3334 37.335H57.5899C57.2555 37.335 56.9844 37.6061 56.9844 37.9406V41.6839C56.9844 42.0184 57.2555 42.2896 57.5899 42.2896H61.3334C61.6678 42.2896 61.9389 42.0184 61.9389 41.6839V37.9406C61.9389 37.6061 61.6678 37.335 61.3334 37.335Z" fill="#F9FFE9"/>
<g opacity="0.2">
<path d="M64.1433 23.6191L42.2656 45.3131V52.1604H63.3663L64.1433 23.6191Z" fill="white"/>
</g>
<path d="M63.986 15.328L43.879 16.2505L43.2181 52.6477H42.4059L42.0234 14.7007L63.986 15.328Z" fill="#739BFD"/>
<path d="M42.311 19.5194C42.311 19.5194 44.7873 20.4171 46.2708 18.965C46.9636 20.113 49.1255 19.7806 49.6938 18.81C50.3699 19.9236 52.4236 19.938 53.1057 18.828C53.7841 19.9676 55.8927 19.8022 56.5403 18.792C57.4166 19.9468 59.1993 19.7794 59.9638 18.6478C61.1221 20.0898 63.143 19.4028 63.7285 17.9267V16.397H42.1016L42.311 19.5194Z" fill="#739BFD"/>
</g>
<path d="M54.9146 14.0762H51.0329C50.9434 14.0762 50.8575 14.0407 50.7942 13.9773C50.7309 13.914 50.6953 13.8281 50.6953 13.7386C50.6953 13.649 50.7309 13.5631 50.7942 13.4998C50.8575 13.4365 50.9434 13.4009 51.0329 13.4009H54.9146C55.0041 13.4009 55.09 13.4365 55.1533 13.4998C55.2166 13.5631 55.2522 13.649 55.2522 13.7386C55.2522 13.8281 55.2166 13.914 55.1533 13.9773C55.09 14.0407 55.0041 14.0762 54.9146 14.0762Z" fill="white"/>
<path d="M44.559 18.9656C42.5164 18.8907 42.8485 16.7541 42.8477 15.3272C42.8364 14.9864 43.1837 14.7088 43.4584 14.7264H46.2707C46.2006 16.1877 46.803 18.9203 44.559 18.9656Z" fill="#F85C3D"/>
<path d="M47.9855 18.9656C45.7427 18.9219 46.3435 16.184 46.2742 14.7275H49.6972C49.6272 16.1876 50.2299 18.9203 47.9855 18.9656Z" fill="white"/>
<path d="M51.4075 18.9656C49.1647 18.9219 49.7655 16.184 49.6958 14.7275H53.1193C53.0492 16.1876 53.6519 18.9203 51.4075 18.9656Z" fill="#F85C3D"/>
<path d="M54.8294 18.9656C52.5866 18.9219 53.1873 16.184 53.1177 14.7275H56.5407C56.471 16.1876 57.0734 18.9203 54.8294 18.9656Z" fill="white"/>
<path d="M58.2552 18.9656C56.0124 18.9219 56.6131 16.184 56.5434 14.7275H59.9669C59.8968 16.1876 60.4996 18.9203 58.2552 18.9656Z" fill="#F85C3D"/>
<path d="M61.6771 18.9656C59.4343 18.9219 60.035 16.184 59.9653 14.7275H62.7784C62.9403 14.7276 63.0955 14.792 63.2099 14.9065C63.3243 15.0209 63.3887 15.1761 63.3888 15.338C63.3892 16.7612 63.7152 18.8922 61.6771 18.9656Z" fill="white"/>
<path d="M61.4985 44.563H54.034C53.8319 44.563 53.668 44.7269 53.668 44.9291V49.5753C53.668 49.7775 53.8319 49.9414 54.034 49.9414H61.4985C61.7007 49.9414 61.8646 49.7775 61.8646 49.5753V44.9291C61.8646 44.7269 61.7007 44.563 61.4985 44.563Z" fill="#F9FFE9"/>
<path d="M57.752 46.5078H57.0391V47.0237H57.752V46.5078Z" fill="#A4C4FF"/>
<path d="M58.5784 47.8506H57.918V48.3974H58.5784V47.8506Z" fill="#A4C4FF"/>
<path d="M57.752 47.1899H57.0391V47.6842H57.752V47.1899Z" fill="#A4C4FF"/>
<path d="M58.5784 47.1899H57.918V47.6842H58.5784V47.1899Z" fill="#A4C4FF"/>
<path d="M58.7461 47.0237H59.5251L59.6376 46.5078H58.7461V47.0237Z" fill="#A4C4FF"/>
<path d="M56.8736 47.1899H56.0742L56.2016 47.6842H56.8736V47.1899Z" fill="#A4C4FF"/>
<path d="M56.8714 48.3974V47.8506H56.2422L56.3836 48.3974H56.8714Z" fill="#A4C4FF"/>
<path d="M57.752 47.8506H57.0391V48.3974H57.752V47.8506Z" fill="#A4C4FF"/>
<path d="M56.8746 48.5635H56.4297L56.5458 49.0137H56.8746V48.5635Z" fill="#A4C4FF"/>
<path d="M56.8741 47.0237V46.5078H55.8984L56.0318 47.0237H56.8741Z" fill="#A4C4FF"/>
<path d="M58.7461 48.5635V49.0137H59.0917L59.1898 48.5635H58.7461Z" fill="#A4C4FF"/>
<path d="M58.7461 47.1899V47.6842H59.3813L59.489 47.1899H58.7461Z" fill="#A4C4FF"/>
<path d="M57.752 48.5635H57.0391V49.0137H57.752V48.5635Z" fill="#A4C4FF"/>
<path d="M58.5784 48.5635H57.918V49.0137H58.5784V48.5635Z" fill="#A4C4FF"/>
<path d="M59.3452 47.8506H58.7461V48.3974H59.2259L59.3452 47.8506Z" fill="#A4C4FF"/>
<path d="M58.5784 46.5078H57.918V47.0237H58.5784V46.5078Z" fill="#A4C4FF"/>
<path d="M58.9284 46.3034H58.7706C58.8615 45.0981 58.3921 45.3132 57.4517 45.2963C56.8862 45.3124 56.9423 45.8972 56.9523 46.3034H56.7949C56.706 45.0175 57.2278 45.1301 58.2711 45.1389C58.9544 45.1746 58.9544 45.7766 58.9284 46.3034Z" fill="#A4C4FF"/>
<path d="M52.0727 44.563H44.6082C44.4061 44.563 44.2422 44.7269 44.2422 44.9291V49.5753C44.2422 49.7775 44.4061 49.9414 44.6082 49.9414H52.0727C52.2749 49.9414 52.4388 49.7775 52.4388 49.5753V44.9291C52.4388 44.7269 52.2749 44.563 52.0727 44.563Z" fill="#F9FFE9"/>
<path d="M45.7344 49.081V45.5724C46.4252 45.6169 47.4749 45.3053 47.4165 46.3736C47.4293 46.686 47.394 47.0465 47.056 47.1295C47.6456 47.256 47.5298 48.6428 47.1597 48.9396C46.9283 49.1784 46.0476 49.051 45.7344 49.081ZM46.42 46.8939C46.6355 46.9143 46.7244 46.8715 46.7172 46.6368V46.2839C46.73 46.0904 46.5498 46.112 46.42 46.1144V46.8939ZM46.4897 48.4633C46.8754 48.4966 46.74 47.9899 46.7629 47.7652C46.7709 47.5064 46.6663 47.4127 46.42 47.4423V48.4593C46.4493 48.4617 46.4725 48.4633 46.4897 48.4633Z" fill="#A4C4FF"/>
<path d="M48.4976 49.1129C47.8792 49.1129 47.6473 48.7452 47.6445 48.1419V45.5723H48.3254C48.3995 45.7581 48.1416 48.5649 48.4968 48.4668C48.8504 48.5926 48.5957 45.7345 48.6682 45.5723H49.3491V48.1419C49.3479 48.7452 49.1164 49.1125 48.4976 49.1129Z" fill="#A4C4FF"/>
<path d="M50.0451 49.0808V47.9268L49.4844 45.5723H50.1828L50.3783 46.7604L50.5737 45.5723H51.2642L50.7059 47.9268V49.0808H50.0451Z" fill="#A4C4FF"/>
<path d="M47.5856 3.90283H36.3364C35.9413 3.90283 35.6211 4.22313 35.6211 4.61825V15.172C35.6211 15.5671 35.9413 15.8874 36.3364 15.8874H47.5856C47.9806 15.8874 48.3009 15.5671 48.3009 15.172V4.61825C48.3009 4.22313 47.9806 3.90283 47.5856 3.90283Z" fill="#FFD8B6"/>
<path d="M46.5939 7.25051L44.6679 6.13893V6.12451H43.5594C43.5497 8.24392 40.3281 8.24272 40.3189 6.12451H39.2103V6.16136L39.1887 6.12451L37.2383 7.25051L38.493 9.42399L39.2103 9.01021V13.4012H44.6679V9.03504L45.3388 9.42239L46.5939 7.25051Z" fill="#739BFD"/>
</svg>
