<svg version="1.1" id="Слой_1" xmlns="http://www.w3.org/2000/svg" xmlns:xlink="http://www.w3.org/1999/xlink" x="0px" y="0px" viewBox="0 0 39.9 40.2" style="enable-background:new 0 0 39.9 40.2;" xml:space="preserve">
<style type="text/css">.st6-1{fill:#F177BC;}</style><g id="Эллипс_733">
<path class="st6-1" d="M20.2,38.9c-10.4,0-18.8-8.4-18.8-18.8C1.4,9.8,9.8,1.4,20.2,1.4S39,9.8,39,20.2C39,30.5,30.6,38.9,20.2,38.9z M20.2,3.4c-9.3,0-16.8,7.5-16.8,16.8c0,9.3,7.5,16.8,16.8,16.8S37,29.4,37,20.2C37,10.9,29.4,3.4,20.2,3.4z"/></g><g>
<path class="st6-1" d="M28.7,27.9c0.6,3-2.6,3.6-4,3.2c-1.4-0.4-4.3-0.5-4.3-0.5s-2.9,0.1-4.3,0.5c-1.4,0.4-4.7-0.3-4-3.2s3.5-2.8,4.3-6.8c0.8-4,4.1-3.7,4.1-3.7s3.3-0.3,4.1,3.7C25.2,25.1,28,24.9,28.7,27.9z M23.3,17c1.7,0.5,3.7-0.9,4.3-3.1c0.6-2.2-0.3-4.4-2-4.9c-1.7-0.5-3.7,0.9-4.3,3.1C20.7,14.3,21.6,16.5,23.3,17z M30.6,16.2c-1.7-0.7-3.8,0.5-4.6,2.6c-0.9,2.1-0.2,4.4,1.5,5.1c1.7,0.7,3.8-0.5,4.6-2.6S32.3,16.9,30.6,16.2z M17.3,17c1.7-0.5,2.6-2.7,2-4.9S16.8,8.5,15,9c-1.7,0.5-2.6,2.7-2,4.9C13.7,16.2,15.6,17.5,17.3,17z M13.2,23.9c1.7-0.7,2.3-3,1.5-5.1c-0.9-2.1-2.9-3.3-4.6-2.6c-1.7,0.7-2.3,3-1.5,5.1C9.5,23.5,11.6,24.6,13.2,23.9z"/></g></svg>
