<svg version="1.1" id="Слой_1" xmlns="http://www.w3.org/2000/svg" xmlns:xlink="http://www.w3.org/1999/xlink" x="0px" y="0px" viewBox="0 0 39.9 40.2" style="enable-background:new 0 0 39.9 40.2;" xml:space="preserve">
<style type="text/css">.st5-1{fill:#6BDF96;}</style>
<g id="Эллипс_733"><path class="st5-1" d="M20.2,38.9c-10.4,0-18.8-8.4-18.8-18.8C1.4,9.8,9.8,1.4,20.2,1.4S39,9.8,39,20.2C39,30.5,30.6,38.9,20.2,38.9z M20.2,3.4c-9.3,0-16.8,7.5-16.8,16.8c0,9.3,7.5,16.8,16.8,16.8S37,29.4,37,20.2C37,10.9,29.4,3.4,20.2,3.4z"/></g><g><g>
<path class="st5-1" d="M26.6,16.1c-0.2-0.7-0.8-1.2-1.6-1.4c-0.6-1.7-2.2-3-4.1-3c-2,0-3.6,1.3-4.2,3.1c-0.3-0.1-0.7-0.1-1.1-0.1c-2,0-3.6,1.3-4.2,3.1h17.3c-0.2-0.9-1-1.7-2.1-1.7C26.6,16.1,26.6,16.1,26.6,16.1z"/>
<path class="st5-1" d="M29.9,19.3c-0.1-0.4-0.5-0.6-0.9-0.6h-0.3H11.2h-0.3c-0.4,0-0.8,0.3-0.9,0.6l-2.4,7c-0.2,0.6,0.2,1.3,0.9,1.3h23c0.7,0,1.1-0.6,0.9-1.3L29.9,19.3z M25.7,24.3c0,0.8-0.7,1.5-1.5,1.5c-0.7,0-1.2-0.4-1.4-1h-5.7c-0.2,0.6-0.8,1-1.4,1c-0.8,0-1.5-0.7-1.5-1.5c0-0.4,0.2-0.8,0.4-1c0,0,0,0,0.1-0.1c-0.3-0.3-0.5-0.7-0.5-1.1c0-0.8,0.7-1.5,1.5-1.5c0.7,0,1.2,0.4,1.4,1h5.7c0.2-0.6,0.8-1,1.4-1c0.8,0,1.5,0.7,1.5,1.5c0,0.4-0.2,0.8-0.5,1.1C25.5,23.5,25.7,23.9,25.7,24.3z"/></g></g></svg>
