<svg version="1.1" id="Слой_1" xmlns="http://www.w3.org/2000/svg" xmlns:xlink="http://www.w3.org/1999/xlink"  width="36" height="36" x="0px" y="0px" viewBox="0 0 39.9 40.2" style="enable-background:new 0 0 39.9 40.2;" xml:space="preserve">
<style type="text/css">.st4-1{fill:#BF7EFC;}</style><g id="Эллипс_733">
<path class="st4-1" d="M20.2,38.9c-10.4,0-18.8-8.4-18.8-18.8C1.4,9.8,9.8,1.4,20.2,1.4S39,9.8,39,20.2C39,30.5,30.6,38.9,20.2,38.9z M20.2,3.4c-9.3,0-16.8,7.5-16.8,16.8c0,9.3,7.5,16.8,16.8,16.8S37,29.4,37,20.2C37,10.9,29.4,3.4,20.2,3.4z"/></g><g><g>
<path class="st4-1" d="M30.7,14.1c0.4,0,0.7-0.3,0.7-0.7c0-0.4-0.3-0.7-0.7-0.7h-4.1v-0.9h4.1c0.4,0,0.7-0.3,0.7-0.7c0-0.4-0.3-0.7-0.7-0.7h-6.4c-0.5,0-0.9,0.4-0.9,0.9v17.8c0,0.5,0.4,0.9,0.9,0.9h6.4c0.4,0,0.7-0.3,0.7-0.7c0-0.4-0.3-0.7-0.7-0.7h-4.1v-0.9h4.1c0.4,0,0.7-0.3,0.7-0.7c0-0.4-0.3-0.7-0.7-0.7h-4.1v-0.9h4.1c0.4,0,0.7-0.3,0.7-0.7c0-0.4-0.3-0.7-0.7-0.7h-4.1v-0.9h4.1c0.4,0,0.7-0.3,0.7-0.7c0-0.4-0.3-0.7-0.7-0.7h-4.1V21h4.1c0.4,0,0.7-0.3,0.7-0.7s-0.3-0.7-0.7-0.7h-4.1v-0.9h4.1c0.4,0,0.7-0.3,0.7-0.7c0-0.4-0.3-0.7-0.7-0.7h-4.1v-0.9h4.1c0.4,0,0.7-0.3,0.7-0.7c0-0.4-0.3-0.7-0.7-0.7h-4.1v-0.9L30.7,14.1C30.7,14.1,30.7,14.1,30.7,14.1z"/>
<path class="st4-1" d="M21.8,24.9c-0.5-0.5-1.3-0.8-2-0.8c-0.1,0-0.2,0-0.3,0l-2-3.3l4.6-7.8c0.2-0.4,0.3-0.8,0.2-1.2c-0.1-0.4-0.3-0.7-0.6-0.9l-0.4-0.2c-0.2-0.1-0.5,0-0.7,0.2l-4.5,7.6l-4.5-7.6c-0.2-0.3-0.5-0.4-0.7-0.2l-0.4,0.2c-0.3,0.2-0.5,0.5-0.6,0.9c-0.1,0.4,0,0.8,0.2,1.2l4.6,7.8l-2,3.3c-0.1,0-0.2,0-0.3,0c-0.7,0-1.5,0.2-2,0.8c-0.5,0.5-0.9,1.2-0.9,1.9c0,1.4,0.9,2.5,2.2,2.8c0.2,0,0.3,0.1,0.5,0.1c0.7,0,1.5-0.2,2-0.8c0.5-0.5,0.9-1.2,0.9-1.9c0-0.6-0.1-1.1-0.4-1.6l1.4-2.3l1.4,2.3c-0.3,0.5-0.5,1-0.4,1.6c0,0.7,0.3,1.4,0.9,1.9c0.5,0.5,1.3,0.8,2,0.8c0.2,0,0.3,0,0.5-0.1c1.3-0.3,2.2-1.5,2.2-2.8C22.7,26.1,22.4,25.4,21.8,24.9z M13.9,27c0,0.4-0.2,0.7-0.4,1c-0.3,0.3-0.6,0.4-1,0.4c-0.1,0-0.2,0-0.3,0c-0.7-0.1-1.1-0.7-1.1-1.4c0-0.4,0.2-0.7,0.5-1c0.3-0.3,0.6-0.4,1-0.4c0.1,0,0.2,0,0.3,0C13.5,25.7,14,26.3,13.9,27z M16.2,21.5c-0.4,0-0.8-0.3-0.8-0.8s0.3-0.8,0.8-0.8c0.4,0,0.8,0.3,0.8,0.8C16.9,21.1,16.6,21.5,16.2,21.5z M20.2,28.3c-0.1,0-0.2,0-0.3,0c-0.4,0-0.7-0.1-1-0.4c-0.3-0.3-0.4-0.6-0.5-1c0-0.7,0.4-1.3,1.1-1.4c0.1,0,0.2,0,0.3,0c0.4,0,0.7,0.1,1,0.4c0.3,0.3,0.4,0.6,0.4,1C21.4,27.5,20.9,28.2,20.2,28.3z"/></g></g></svg>
