<svg version="1.1" id="Слой_1" xmlns="http://www.w3.org/2000/svg" xmlns:xlink="http://www.w3.org/1999/xlink" x="0px" y="0px" viewBox="0 0 39.9 40.2" width="36" height="36"
style="enable-background:new 0 0 39.9 40.2;" xml:space="preserve"><style type="text/css">.st1-1{fill:#ADCE78;}</style><g id="Эллипс_733">
<path class="st1-1" d="M20.2,38.9c-10.4,0-18.8-8.4-18.8-18.8C1.4,9.8,9.8,1.4,20.2,1.4S39,9.8,39,20.2C39,30.5,30.6,38.9,20.2,38.9z M20.2,3.4c-9.3,0-16.8,7.5-16.8,16.8c0,9.3,7.5,16.8,16.8,16.8S37,29.4,37,20.2C37,10.9,29.4,3.4,20.2,3.4z"/></g>
<g><g><path class="st1-1" d="M14.6,24.6L11.3,26l-1.4-0.4c-0.3-0.1-0.6,0.1-0.7,0.4c-0.1,0.3,0.1,0.6,0.4,0.7l1.5,0.4l0.9,1.9c0.1,0.2,0.2,0.4,0.5,0.4l0.7,0.1L12.3,30c-0.3,0.1-0.4,0.5-0.3,0.8c0.1,0.2,0.3,0.3,0.5,0.3c0.1,0,0.2,0,0.3-0.1l2.4-1.2c0.2-0.1,0.4-0.4,0.3-0.6c0-0.3-0.2-0.5-0.5-0.5l-0.5-0.1l2.3-0.9l0,2.6c0,0.3,0.3,0.6,0.6,0.6c0,0,0,0,0,0c0.3,0,0.6-0.3,0.6-0.6l0-3.3c0,0,0,0,0-0.1l0-2L14.6,24.6z"/>
<path class="st1-1" d="M18.6,21.5c-0.5-0.2-0.8-0.6-1.4-0.7c-0.1,0-0.2,0-0.3-0.1c-0.1,0-0.1,0-0.1-0.1c-0.1-0.2-0.1-0.4-0.2-0.5c-0.1-0.3-0.3-0.6-0.6-0.6c-0.1,0-0.7-0.1-0.6,0.8c0,0.2,0,0.4,0,0.6c-0.1,0.7-0.2,1.4-0.4,2.1c-0.1,0.3-0.1,0.6-0.2,1l3.3,0.4c0,0,0.3-0.8,0.4-0.8c0.1,0,0.2,0,0.4,0c0.3,0,0.7-0.1,1-0.2c0.5-0.3,1-0.8,0.7-1.4C20.4,21.4,18.8,21.5,18.6,21.5z"/>
<path class="st1-1" d="M25.1,13.4c1.4-0.3,2.3-1.7,2-3c-0.3-1.4-1.7-2.3-3-2c-1.4,0.3-2.3,1.7-2,3C22.4,12.8,23.8,13.7,25.1,13.4z"/><path class="st1-1" d="M29.6,20.3l-1.2-5.5c-0.2-1-1.3-1.5-2.1-1.5l0,0c0,0-0.3,0-0.6,0.1c-0.3,0.1-0.5,0.2-0.5,0.2c-0.3,0.2-0.7,0.4-0.9,0.8c0,0-0.7,0.9-1.5,0.9c-0.8,0-1.7-0.7-1.9-0.9c-0.3-0.3-0.7-0.4-1-0.3l-2.9-5.4c-0.1-0.1-0.2-0.2-0.3-0.1c-0.1,0.1-0.2,0.2-0.1,0.3l2.9,5.4c-0.4,0.4-0.4,1,0,1.4c0.1,0.1,0.6,0.6,1.3,1l0.4,0.7c0,0.1,0.1,0.1,0.2,0.1c0,0,0.1,0,0.1,0c0.1-0.1,0.2-0.2,0.1-0.3l-0.1-0.2c0.4,0.1,0.8,0.2,1.3,0.2c0,0,0.1,0,0.1,0c0.4,0,0.8-0.1,1.3-0.3l0.9,4.4c0.1,0.7,0.6,1.1,1.2,1.3l0,8c0,0.7,0.6,1.4,1.4,1.4c0,0,0,0,0,0c0.7,0,1.4-0.6,1.4-1.4l0-8.5C29.4,21.7,29.8,21.1,29.6,20.3z"/></g></g></svg>
