<svg version="1.1" id="Слой_1" xmlns="http://www.w3.org/2000/svg" xmlns:xlink="http://www.w3.org/1999/xlink" x="0px" y="0px" viewBox="0 0 39.9 40.2" style="enable-background:new 0 0 39.9 40.2;" xml:space="preserve">
<style type="text/css">.st3-1{fill:#84D7DA;}</style><g id="Эллипс_733"><path class="st3-1" d="M20.2,38.9c-10.4,0-18.8-8.4-18.8-18.8C1.4,9.8,9.8,1.4,20.2,1.4S39,9.8,39,20.2C39,30.5,30.6,38.9,20.2,38.9z M20.2,3.4c-9.3,0-16.8,7.5-16.8,16.8c0,9.3,7.5,16.8,16.8,16.8S37,29.4,37,20.2C37,10.9,29.4,3.4,20.2,3.4z"/></g>
<path class="st3-1" d="M31.4,22v-4.6L20.9,8.8l-10.5,8.6V22l3-2.5v7.7h-2.2v2.8h19.3v-2.8h-2.1v-7.6L31.4,22z M18.1,24.1c0-1.5,1.3-2.8,2.8-2.8s2.8,1.3,2.8,2.8v3.1h-5.6V24.1z"/></svg>
