<svg version="1.1" id="Слой_1" xmlns="http://www.w3.org/2000/svg" xmlns:xlink="http://www.w3.org/1999/xlink" width="36" height="36" x="0px" y="0px" viewBox="0 0 39.9 40.2"
style="enable-background:new 0 0 39.9 40.2;" xml:space="preserve"><style type="text/css">.st0-1{fill:#F7BA40;}</style><g id="Эллипс_733">
<path class="st0-1" d="M20.2,38.9c-10.4,0-18.8-8.4-18.8-18.8C1.4,9.8,9.8,1.4,20.2,1.4S39,9.8,39,20.2C39,30.5,30.6,38.9,20.2,38.9z M20.2,3.4c-9.3,0-16.8,7.5-16.8,16.8c0,9.3,7.5,16.8,16.8,16.8S37,29.4,37,20.2C37,10.9,29.4,3.4,20.2,3.4z"/></g>
<g><path class="st0-1" d="M29.8,26.1c-0.6,0-1.2,0-1.8,0c0,0,2.1-1.7,2.1-1.8c1.6-1.5-0.2-6.3-0.6-8.4c-0.5-2.4-4-2.3-5.1-0.2c-1.1,2.1-2.4,3.3-4.4,4.2c-1.4,0.6-0.4,2.7,1,2.1c1.5-0.7,2.7-1.5,3.7-2.7c0.2,1,0.7,3.9,1.1,4.6l-3.1,2.6c-1.1,1-0.5,2.8,1,2.8c2,0,4.1,0,6.1,0C31.8,29.3,31.9,26.1,29.8,26.1z"/>
<circle class="st0-1" cx="25.1" cy="11.3" r="2.9"/><path class="st0-1" d="M11,23.4l-1-0.8c-0.6-0.5-1.3,0.4-0.7,0.8l1.1,0.9v2.3l-0.9,1.8c-0.3,0.6,0.6,1.1,1,0.5l1-1.8l1,1.8c0.4,0.6,1.3,0.1,1-0.5l-0.9-1.6h3.4v1.8c0,0.7,1.1,0.7,1.1,0c0-1.3,0-2.5,0-3.8l-2.5-1.4H11z"/>
<path class="st0-1" d="M18.3,22.3c-0.3-0.3-0.4-0.7-0.8-1c-0.4-0.3-0.2-0.1-0.2-0.7c0-0.7-0.8-1.2-1-0.2c-0.2,0.8-1.1,1.9-1.6,2.7l2.4,1.4c0,0,0.5-0.5,0.5-0.5c0.7,0.3,2.1,0.5,2.2-0.6C19.7,22.9,18.4,22.4,18.3,22.3z"/></g></svg>
