<svg class="tablet" version="1.1" id="Слой_1" xmlns="http://www.w3.org/2000/svg" xmlns:xlink="http://www.w3.org/1999/xlink" x="0px" y="0px" viewBox="0 0 444 444"
                             style="enable-background:new 0 0 444 444;" xml:space="preserve"><style type="text/css">.st0{fill:#f2cc66;}</style><g>
                                        <path class="st0" d="M372.7,0H71.3C56.8,0,45,11.8,45,26.3v391.5c0,14.5,11.8,26.3,26.3,26.3h301.5c14.5,0,26.3-11.8,26.3-26.3V26.3C399,11.8,387.2,0,372.7,0z M384,417.7c0,6.2-5.1,11.3-11.3,11.3H71.3c-6.2,0-11.3-5.1-11.3-11.3V26.3C60,20.1,65.1,15,71.3,15h301.5c6.2,0,11.3,5.1,11.3,11.3V417.7z"/><path class="st0" d="M369,47.9H75c-2.8,0-5,2.2-5,5v338.2c0,2.8,2.2,5,5,5h294c2.8,0,5-2.2,5-5V52.9C374,50.1,371.7,47.9,369,47.9L369,47.9z M364,386.1H80V57.9h284V386.1z"/><path class="st0" d="M222,406.5c-2,0-3.9,0.8-5.3,2.2c-1.4,1.4-2.2,3.3-2.2,5.3s0.8,3.9,2.2,5.3c1.4,1.4,3.3,2.2,5.3,2.2c2,0,3.9-0.8,5.3-2.2c1.4-1.4,2.2-3.3,2.2-5.3s-0.8-3.9-2.2-5.3C225.9,407.3,224,406.5,222,406.5z"/><path class="st0" d="M222,37.2c1.3,0,2.6-0.5,3.5-1.5s1.5-2.2,1.5-3.5s-0.5-2.6-1.5-3.5c-0.9-0.9-2.2-1.5-3.5-1.5c-1.3,0-2.6,0.5-3.5,1.5c-0.9,0.9-1.5,2.2-1.5,3.5c0,1.3,0.5,2.6,1.5,3.5C219.4,36.7,220.7,37.2,222,37.2z"/></g></svg>
                    