<svg version="1.1" id="Слой_1" xmlns="http://www.w3.org/2000/svg" xmlns:xlink="http://www.w3.org/1999/xlink" width="36" height="36" x="0px" y="0px" viewBox="0 0 39.9 40.2"
style="enable-background:new 0 0 39.9 40.2;" xml:space="preserve"><style type="text/css">.st2-1{fill:#DE4C68;}</style><g id="Эллипс_733">
<path class="st2-1" d="M20.2,38.9c-10.4,0-18.8-8.4-18.8-18.8C1.4,9.8,9.8,1.4,20.2,1.4S39,9.8,39,20.2C39,30.5,30.6,38.9,20.2,38.9z M20.2,3.4c-9.3,0-16.8,7.5-16.8,16.8c0,9.3,7.5,16.8,16.8,16.8S37,29.4,37,20.2C37,10.9,29.4,3.4,20.2,3.4z"/></g>
<g><g><path class="st2-1" d="M24.7,27.7h-2.4l-5.7-8.3l-5.5-1.1l-1.9,9.5c-0.1,0.6,0.3,1.2,0.9,1.3c0.1,0,0.2,0,0.2,0c0.5,0,1-0.4,1.1-0.9l1.1-5.2l1.9,3.8l-1,0c0,0,0,0,0,0c-0.6,0-1.1,0.5-1.1,1.1c0,0.6,0.5,1.1,1.1,1.1l11.2,0c0.4,0,0.7-0.3,0.7-0.7C25.4,28.1,25.1,27.7,24.7,27.7z"/>
<path class="st2-1" d="M11.1,16.1c0.1,0,0.1,1.3,0.1,1.3l5.1,1l0.8-4.8c0.1-0.3,0.2-0.6,0.4-0.9c0.7-1.3-0.2-1.6-0.4-1.6c-0.5-0.1-1,0.2-1.3,0.6c-0.2,0.2-0.4,0.5-0.5,0.7c-0.1,0.1-0.1,0.1-0.2,0.1c-0.1,0-0.3-0.1-0.5-0.1c-0.9-0.1-1.5,0.3-2.4,0.3c-0.3,0-2.7-1.1-3.3-0.3c-0.7,0.9-0.3,1.9,0.3,2.6c0.4,0.4,0.8,0.7,1.3,0.9C10.7,16,10.9,16,11.1,16.1z"/>
<path class="st2-1" d="M30.1,17.9h-2.5c-0.2-1-1-1.7-2.1-1.7h-2.2c-1,0-1.9,0.8-2.1,1.7h-2.5c-0.8,0-1.4,0.5-1.7,1.1l5.5,8h2.1c0.7,0,1.3,0.6,1.3,1.3c0,0.3-0.1,0.6-0.3,0.8h4.3c1,0,1.8-0.8,1.8-1.8v-7.7C31.9,18.7,31.1,17.9,30.1,17.9z M23.4,17.1h2.2c0.5,0,1,0.4,1.2,0.8h-4.5C22.4,17.4,22.8,17.1,23.4,17.1z M27.7,24.6h-2.1v2.1h-2.1v-2.1h-2.1v-2.1h2.1v-2.1h2.1v2.1h2.1L27.7,24.6L27.7,24.6z"/></g></g></svg>
