<svg width="52" height="50" viewBox="0 0 52 50" fill="none" xmlns="http://www.w3.org/2000/svg">
<path d="M32.3027 9.33606C31.8701 9.72095 31.309 9.93449 30.727 9.93579H21.2724C20.6924 9.93165 20.1331 9.72157 19.6967 9.34385C17.8222 14.6276 17.8528 20.3895 19.7834 25.6535L16.6318 29.9606L17.9003 30.8797L21.0518 26.5725H25.1409V31.2458H26.7167V26.5725H30.8609L33.0118 30.7784L34.4221 30.0775L32.2003 25.7391C34.1612 20.4493 34.1974 14.6495 32.3027 9.33606ZM25.9997 18.5579C25.2598 18.5594 24.536 18.3436 23.9203 17.9379C23.3046 17.5321 22.8248 16.9547 22.5416 16.2788C22.2585 15.603 22.1848 14.8593 22.3299 14.142C22.475 13.4247 22.8324 12.7662 23.3568 12.25C23.8811 11.7338 24.5488 11.3833 25.275 11.2429C26.0012 11.1024 26.7532 11.1784 27.4356 11.4612C28.1181 11.744 28.7001 12.2208 29.108 12.8312C29.5158 13.4416 29.7311 14.1579 29.7264 14.8894C29.7201 15.8632 29.325 16.795 28.627 17.4821C27.929 18.1692 26.9847 18.5559 25.9997 18.5579Z" fill="#222222"/>
<path d="M21.2723 8.3774H30.7269C30.86 8.3785 30.9913 8.34621 31.1084 8.28356C31.2255 8.2209 31.3246 8.12992 31.3966 8.01912C31.473 7.90487 31.5177 7.77271 31.526 7.63596C31.5343 7.49921 31.5059 7.36272 31.4438 7.24025C30.2416 4.63214 28.5766 2.25802 26.5275 0.230389C26.4542 0.157387 26.3671 0.0994431 26.2711 0.0599007C26.1751 0.0203584 26.0721 0 25.9681 0C25.8641 0 25.7611 0.0203584 25.6651 0.0599007C25.5691 0.0994431 25.4819 0.157387 25.4087 0.230389C23.3596 2.25802 21.6945 4.63214 20.4923 7.24025C20.4314 7.36339 20.4043 7.50025 20.414 7.63701C20.4237 7.77377 20.4697 7.90558 20.5475 8.01912C20.6241 8.13815 20.732 8.23435 20.8597 8.29746C20.9874 8.36056 21.13 8.38819 21.2723 8.3774Z" fill="#222222"/>
<path d="M49.1952 4.20227H31.6097C32.0745 4.98114 33.0279 6.64014 33.0279 6.64014L33.8158 8.82099C35.7271 14.2582 35.7493 20.1702 33.8788 25.6213L36.5103 30.7541L32.303 32.8648L29.8921 28.1293H28.3164V32.8025H23.5891V28.1293H21.8479L18.2 33.0517L14.3867 30.2945L18.0109 25.3954C16.2366 20.0018 16.3031 14.1814 18.2 8.82878L18.9879 6.64793C18.9879 6.64793 19.9333 4.98893 20.4061 4.20227H2.80485C2.06096 4.20227 1.34753 4.4944 0.821521 5.0144C0.29551 5.5344 0 6.23967 0 6.97506V35.661H52V6.97506C52 6.23967 51.7045 5.5344 51.1785 5.0144C50.6525 4.4944 49.939 4.20227 49.1952 4.20227Z" fill="#222222"/>
<path d="M0 41.3701C0 42.1055 0.29551 42.8108 0.821521 43.3308C1.08198 43.5883 1.39118 43.7925 1.73148 43.9319C2.07178 44.0712 2.43651 44.1429 2.80485 44.1429H15.7576V48.4423H13.6618V50.0001H38.3303V48.4423H36.2424V44.1274H49.1952C49.9357 44.1253 50.6455 43.8347 51.1707 43.3185C51.6958 42.8023 51.9938 42.1022 52 41.3701V37.2188H0V41.3701Z" fill="#222222"/>
</svg>
