<svg width="44" height="43" viewBox="0 0 44 43" fill="none" xmlns="http://www.w3.org/2000/svg">
<path d="M12.3743 5.23594C13.1824 5.23594 13.8375 4.58085 13.8375 3.77275C13.8375 2.96466 13.1824 2.30957 12.3743 2.30957C11.5662 2.30957 10.9111 2.96466 10.9111 3.77275C10.9111 4.58085 11.5662 5.23594 12.3743 5.23594Z" fill="#222222"/>
<path d="M4.5042 5.23594C5.31229 5.23594 5.96738 4.58085 5.96738 3.77275C5.96738 2.96466 5.31229 2.30957 4.5042 2.30957C3.69611 2.30957 3.04102 2.96466 3.04102 3.77275C3.04102 4.58085 3.69611 5.23594 4.5042 5.23594Z" fill="#222222"/>
<path d="M24.6442 32.953C24.6442 32.6603 24.6546 32.3573 24.686 32.0646C25.0936 27.3929 28.6052 23.5782 33.2352 22.7943V1.46318C33.2352 0.658432 32.5767 0 31.772 0H28.7411V1.13919C30.2043 1.48409 31.1031 2.94727 30.7582 4.41045C30.4133 5.87364 28.9501 6.77245 27.4869 6.42756C26.0238 6.08266 25.125 4.61948 25.4698 3.1563C25.7102 2.15297 26.4836 1.37957 27.4869 1.13919V0H20.8713V1.13919C22.3345 1.48409 23.2333 2.94727 22.8884 4.41045C22.5435 5.87364 21.0803 6.77245 19.6171 6.42756C18.1539 6.08266 17.2551 4.61948 17.6 3.1563C17.8404 2.15297 18.6138 1.37957 19.6171 1.13919V0H13.0014V1.13919C14.4646 1.48409 15.3634 2.94727 15.0185 4.41045C14.6736 5.87364 13.2105 6.77245 11.7473 6.42756C10.2841 6.08266 9.38528 4.61948 9.73017 3.1563C9.97055 2.15297 10.7439 1.37957 11.7473 1.13919V0H5.13159V1.13919C6.59478 1.48409 7.49359 2.94727 7.1487 4.41045C6.8038 5.87364 5.34062 6.77245 3.87744 6.42756C2.41425 6.08266 1.51544 4.61948 1.86033 3.1563C2.10071 2.15297 2.87411 1.37957 3.87744 1.13919V0H1.46318C0.658433 0 0 0.658432 0 1.46318V36.9976C0 37.8024 0.658433 38.4608 1.46318 38.4608H26.2432C25.1981 36.8095 24.6442 34.8969 24.6442 32.953ZM5.12114 13.9107H28.114C28.4589 13.9107 28.7411 14.1929 28.7411 14.5378C28.7411 14.8827 28.4589 15.1649 28.114 15.1649H5.12114C4.77625 15.1649 4.49406 14.8827 4.49406 14.5378C4.49406 14.1824 4.77625 13.9107 5.12114 13.9107ZM5.12114 19.6485H28.114C28.4589 19.6485 28.7411 19.9306 28.7411 20.2755C28.7411 20.6204 28.4589 20.9026 28.114 20.9026H5.12114C4.77625 20.9026 4.49406 20.6204 4.49406 20.2755C4.49406 19.9306 4.77625 19.6485 5.12114 19.6485ZM5.12114 25.3967H25.5012C25.8461 25.3967 26.1283 25.6789 26.1283 26.0238C26.1283 26.3687 25.8461 26.6508 25.5012 26.6508H5.12114C4.77625 26.6508 4.49406 26.3687 4.49406 26.0238C4.49406 25.6789 4.77625 25.3967 5.12114 25.3967ZM23.1392 32.3991H5.12114C4.77625 32.3991 4.49406 32.1169 4.49406 31.772C4.49406 31.4271 4.77625 31.1449 5.12114 31.1449H23.1392C23.4841 31.1449 23.7663 31.4271 23.7663 31.772C23.7663 32.1169 23.4841 32.3991 23.1392 32.3991Z" fill="#222222"/>
<path d="M28.1146 5.23594C28.9226 5.23594 29.5777 4.58085 29.5777 3.77275C29.5777 2.96466 28.9226 2.30957 28.1146 2.30957C27.3065 2.30957 26.6514 2.96466 26.6514 3.77275C26.6514 4.58085 27.3065 5.23594 28.1146 5.23594Z" fill="#222222"/>
<path d="M38.0847 24.4559C33.392 22.721 28.1873 25.1248 26.4524 29.8174C26.1702 30.5699 25.9925 31.3642 25.9298 32.169C25.9089 32.4302 25.8984 32.6915 25.8984 32.9528C25.8984 37.9485 29.9535 42.0036 34.9493 42.0036C39.945 42.0036 44.0001 37.9485 44.0001 32.9528C44.0001 29.159 41.6381 25.7728 38.0847 24.4559ZM39.5897 30.7162L39.5792 30.7267L34.249 36.0568C34.0087 36.2972 33.6115 36.2972 33.3607 36.0568L30.3298 33.026C30.0894 32.7856 30.0894 32.3884 30.3298 32.1376C30.5702 31.8972 30.9673 31.8972 31.2182 32.1376L33.8101 34.7295L38.7013 29.8383C38.9417 29.5875 39.3388 29.5875 39.5897 29.8279C39.8196 30.0682 39.83 30.4654 39.5897 30.7162Z" fill="#222222"/>
<path d="M20.2444 5.23594C21.0525 5.23594 21.7076 4.58085 21.7076 3.77275C21.7076 2.96466 21.0525 2.30957 20.2444 2.30957C19.4363 2.30957 18.7812 2.96466 18.7812 3.77275C18.7812 4.58085 19.4363 5.23594 20.2444 5.23594Z" fill="#222222"/>
</svg>
