<svg width="45" height="44" viewBox="0 0 45 44" fill="none" xmlns="http://www.w3.org/2000/svg">
<path d="M22.0027 23.0503C19.7001 23.0503 17.794 24.7826 17.5205 27.0126H26.4854C26.2113 24.7826 24.3052 23.0503 22.0027 23.0503Z" fill="#222222"/>
<path d="M22.0047 11.1626C16.0267 11.1626 11.1631 16.0251 11.1631 22.0015C11.1631 27.9773 16.0267 32.8393 22.0047 32.8393C27.9795 32.8393 32.8398 27.9779 32.8398 22.0015C32.8398 16.0251 27.9795 11.1626 22.0047 11.1626ZM22.002 14.212C23.8444 14.212 25.3437 15.7112 25.3437 17.5542C25.3437 19.3967 23.8444 20.8959 22.002 20.8959C20.159 20.8959 18.6597 19.3967 18.6597 17.5542C18.6597 15.7112 20.159 14.212 22.002 14.212ZM27.0715 28.1196H16.9324C16.6268 28.1196 16.3788 27.8721 16.3788 27.566C16.3788 24.4651 18.9017 21.9428 22.002 21.9428C25.1023 21.9428 27.6252 24.4657 27.6252 27.566C27.6252 27.8721 27.3777 28.1196 27.0715 28.1196Z" fill="#222222"/>
<path d="M22.0026 19.7883C23.2349 19.7883 24.237 18.7857 24.237 17.5538C24.237 16.322 23.2344 15.3188 22.0026 15.3188C20.7707 15.3188 19.7676 16.3215 19.7676 17.5538C19.7676 18.7862 20.7702 19.7883 22.0026 19.7883Z" fill="#222222"/>
<path d="M39.9807 18.9063C39.8002 17.8246 39.5101 16.7406 39.1198 15.6842C39.0318 15.4462 39.1165 15.1782 39.3263 15.0354L42.2356 13.0479L39.8711 8.95324L36.6888 10.4796C36.4596 10.5887 36.1856 10.5294 36.0239 10.3345C35.3164 9.48362 34.5236 8.69027 33.6688 7.97665C33.4739 7.81444 33.4147 7.54039 33.5243 7.3123L35.0506 4.13282L30.9527 1.76662L28.9657 4.67482C28.8218 4.88464 28.556 4.97101 28.3158 4.88188C27.2943 4.5032 26.2103 4.21365 25.0942 4.02043C24.8445 3.97725 24.6557 3.7702 24.6364 3.51719L24.3656 0H19.6388L19.3681 3.51719C19.3487 3.7702 19.1599 3.97725 18.9102 4.02043C17.7913 4.21365 16.7073 4.5032 15.6892 4.88188C15.4512 4.9699 15.1826 4.8852 15.0393 4.67537L13.049 1.76662L8.9538 4.13282L10.4796 7.31285C10.5892 7.5415 10.53 7.81499 10.3351 7.9772C9.4814 8.68972 8.68806 9.48362 7.97665 10.3356C7.81443 10.5305 7.53984 10.5898 7.31229 10.4801L4.13227 8.95435L1.76662 13.0479L4.67482 15.0354C4.88409 15.1782 4.9699 15.4456 4.88243 15.6831C4.50043 16.7228 4.21033 17.8079 4.02043 18.9097C3.97725 19.1599 3.76964 19.3487 3.51663 19.3675L0 19.6327V24.3645L3.51663 24.6319C3.76964 24.6513 3.97725 24.8401 4.02043 25.0898C4.21088 26.1943 4.50098 27.2788 4.88243 28.313C4.9699 28.5511 4.88464 28.8179 4.67537 28.9613L1.76662 30.951L4.13282 35.0462L7.31285 33.5226C7.5415 33.4152 7.81443 33.4728 7.97665 33.6666C8.70024 34.5308 9.49358 35.323 10.3351 36.0228C10.5305 36.185 10.5903 36.4591 10.4807 36.6877L8.95435 39.8705L13.049 42.2361L15.0393 39.3246C15.1826 39.1154 15.45 39.0301 15.6876 39.1176C16.7339 39.5029 17.8179 39.7941 18.9102 39.9829C19.1599 40.0261 19.3487 40.2331 19.3681 40.4856L19.6388 44H24.3656L24.6364 40.4856C24.6557 40.2331 24.8445 40.0261 25.0937 39.9829C26.197 39.7919 27.281 39.5012 28.3163 39.1181C28.5538 39.0307 28.8223 39.1154 28.9657 39.3252L30.9527 42.2361L35.0506 39.8705L33.5243 36.6877C33.4147 36.4591 33.4739 36.185 33.6693 36.0228C34.512 35.3219 35.3042 34.5297 36.0245 33.6677C36.1867 33.4722 36.4613 33.4147 36.6883 33.5226L39.8711 35.0462L42.2356 30.9516L39.3263 28.9619C39.1165 28.8185 39.0312 28.5511 39.1198 28.3124C39.5095 27.2611 39.7996 26.1782 39.9807 25.0931C40.0227 24.8423 40.2304 24.6519 40.4845 24.6325L44.0017 24.3651V19.6332L40.485 19.3681C40.2309 19.3481 40.0227 19.1577 39.9807 18.9063ZM22.005 33.9467C15.4163 33.9467 10.0561 28.5882 10.0561 22.0017C10.0561 15.4146 15.4163 10.0555 22.005 10.0555C28.5898 10.0555 33.9473 15.4146 33.9473 22.0017C33.9473 28.5882 28.5898 33.9467 22.005 33.9467Z" fill="#222222"/>
</svg>
