<svg width="40" height="53" viewBox="0 0 40 53" fill="none" xmlns="http://www.w3.org/2000/svg">
<path d="M18.1918 10.1924H7.7793V18.7386H18.1918V10.1924ZM11.2793 16.9664V11.9662L15.6368 14.4663L11.2793 16.9664Z" fill="#222222"/>
<path d="M3.97417 53H36.0258C38.2208 53 40 51.232 40 49.0507V3.94933C40 1.76805 38.2208 0 36.0258 0H3.97417C1.77917 0 0 1.76805 0 3.94933V49.0507C0 51.232 1.77917 53 3.97417 53ZM10.3275 31.7271V28.1869C12.295 28.1869 13.89 29.7719 13.89 31.7271H10.3275ZM33.97 45.2471H16.5633V43.5908H33.97V45.2471ZM33.97 42.342H16.5633V40.6858H33.97V42.342ZM33.97 34.7225H16.5633V33.0662H33.97V34.7225ZM33.97 31.8174H16.5633V30.1611H33.97V31.8174ZM32.4892 16.3058H34.1558V21.1404H32.4892V16.3058ZM30.1367 12.007H31.8033V21.1412H30.1367V12.007ZM27.785 7.79183H29.4517V21.1412H27.785V7.79183ZM25.4325 12.2885H27.0992V21.1404H25.4325V12.2885ZM23.0792 18.4771H24.7458V21.1412H23.0792V18.4771ZM6.11167 9.90272C6.11167 9.15161 6.73 8.53714 7.48583 8.53714H18.4825C19.2383 8.53714 19.8567 9.15161 19.8567 9.90272V19.0303C19.8567 19.7814 19.2383 20.3959 18.4825 20.3959H7.48583C6.73 20.3959 6.11167 19.7814 6.11167 19.0303V9.90272ZM9.59333 28.9173V32.4575H13.1558C13.1558 34.4127 11.5608 35.9978 9.59333 35.9978C7.62583 35.9978 6.03083 34.4127 6.03083 32.4575C6.03 30.5023 7.625 28.9173 9.59333 28.9173ZM13.89 42.5905H10.3275V39.0502C12.295 39.0502 13.89 40.6353 13.89 42.5905ZM9.59333 39.7798V43.32H13.1558C13.1558 45.2752 11.5608 46.8603 9.59333 46.8603C7.62583 46.8603 6.03083 45.2752 6.03083 43.32C6.03 41.3648 7.625 39.7798 9.59333 39.7798Z" fill="#222222"/>
</svg>
