<svg width="46" height="46" viewBox="0 0 46 46" fill="none" xmlns="http://www.w3.org/2000/svg">
<path d="M23.9487 0.876953L23.9414 7.4539L31.0448 7.45125L23.9487 0.876953Z" fill="#222222"/>
<path d="M45.4248 12.5945L44.0756 11.4654C43.2468 10.7722 42.0189 11.153 41.3798 11.9278L41.1895 12.1587L45.2766 15.5784L45.4676 15.3476C46.104 14.5761 46.2621 13.2951 45.4248 12.5945Z" fill="#222222"/>
<path d="M24.8773 29.9013C24.9036 29.7673 24.9675 29.6512 25.0571 29.5597C27.4076 26.7157 29.7581 23.8637 32.1086 21.0158V8.82186L23.26 8.82385C22.8851 8.82385 22.5795 8.5167 22.5795 8.13923L22.5841 0H0V46H32.1086V33.6781C31.7977 34.0555 31.4868 34.433 31.1752 34.8098C31.1159 34.8894 31.0526 34.9491 30.9663 34.9995C28.9683 35.7638 26.8187 36.6793 24.8167 37.3513C24.3272 37.5098 23.843 37.1078 23.9161 36.6063L24.8773 29.9013ZM21.926 31.4782C22.8252 31.4782 22.8252 32.8554 21.926 32.8554H4.47505C3.57582 32.8554 3.57582 31.4782 4.47505 31.4782H21.926ZM21.7468 26.6367C22.6467 26.6367 22.6467 28.014 21.7468 28.014H4.47505C3.57582 28.014 3.57582 26.6367 4.47505 26.6367H21.7468ZM24.2402 21.7946C25.1395 21.7946 25.1395 23.1731 24.2402 23.1731H4.47505C3.57582 23.1731 3.57582 21.7946 4.47505 21.7946H24.2402ZM24.2402 16.9545C25.1395 16.9545 25.1395 18.3317 24.2402 18.3317H4.47505C3.57582 18.3317 3.57582 16.9545 4.47505 16.9545H24.2402ZM24.2402 12.1123C25.1395 12.1123 25.1395 13.4902 24.2402 13.4902H4.47505C3.57582 13.4902 3.57582 12.1123 4.47505 12.1123H24.2402ZM26.5552 41.1612C27.4551 41.1612 27.4551 42.5391 26.5552 42.5391H18.5425C17.6426 42.5391 17.6426 41.1612 18.5425 41.1612H26.5552Z" fill="#222222"/>
<path d="M30.0583 33.8857L26.1517 30.6172L25.4316 35.6484L30.0583 33.8857Z" fill="#222222"/>
<path d="M26.9053 29.4642L30.9916 32.8853C35.4627 27.4693 39.9351 22.0514 44.4062 16.6334L40.3192 13.2129C35.8468 18.6309 31.3777 24.0462 26.9053 29.4642Z" fill="#222222"/>
</svg>
