<svg width="44" height="42" viewBox="0 0 44 42" fill="none" xmlns="http://www.w3.org/2000/svg">
<path d="M11.9494 13.0985L6.34381 14.6679C5.53673 14.8949 5.05688 15.7615 5.27549 16.6065L7.62524 25.7753C7.84247 26.6203 8.67293 27.1218 9.48001 26.8948L10.7353 26.5427L15.8514 40.8218C16.169 41.6266 16.9403 42.141 17.5659 41.9657C18.1901 41.7904 19.2131 41.5044 19.8387 41.3291C20.4629 41.1537 20.885 40.3059 20.7764 39.4422L18.3455 24.1671L32.7011 26.8071L29.5992 14.7067L26.4974 2.60767L13.6584 13.8573C13.3298 13.2408 12.6327 12.9074 11.9494 13.0985Z" fill="#222222"/>
<path d="M1.3017 19.7898C0.285635 20.1879 -0.24921 21.5589 0.11377 22.9672C0.474 24.3742 1.59181 25.2853 2.66288 25.097C2.94061 25.8371 3.70507 26.2611 4.45715 26.0513L6.45216 25.4922L4.39528 17.4689L2.39889 18.0265C1.64681 18.2377 1.18758 19.0037 1.3017 19.7898Z" fill="#222222"/>
<path d="M32.8101 9.14087L30.767 1.17355C30.5525 0.329964 29.7221 -0.171586 28.9136 0.0540396L28.6249 0.135955C27.8178 0.36158 27.338 1.22959 27.5552 2.07317L33.8743 26.7181C34.0902 27.5617 34.9207 28.0633 35.7277 27.8362L36.0165 27.7557C36.8235 27.5301 37.3048 26.6621 37.0862 25.8185L35.0444 17.8512C35.9903 17.1973 36.3162 15.1667 35.7566 12.9837C35.197 10.8007 33.9417 9.21416 32.8101 9.14087Z" fill="#222222"/>
<path d="M37.9949 5.93888C38.3057 5.66871 38.6755 5.46033 38.9409 5.18584C39.2007 4.90129 39.3891 4.58225 39.5225 4.28046C39.8016 3.68981 39.8346 3.14084 39.8346 3.14084L39.726 3.03162C39.726 3.03162 39.2035 3.08623 38.6494 3.40239C38.3675 3.55185 38.0678 3.76023 37.8066 4.0419C37.5536 4.3322 37.3694 4.7274 37.1232 5.06081C36.1471 6.4045 35.2822 7.85886 35.2822 7.85886L35.3922 7.96808C35.3908 7.96951 36.7493 7.00953 37.9949 5.93888Z" fill="#222222"/>
<path d="M42.2467 18.0727C41.8837 17.9735 41.463 17.9864 41.067 17.916C39.4749 17.6401 37.8401 17.5179 37.8401 17.5179L37.7988 17.6703C37.7988 17.6703 39.2439 18.4779 40.7315 19.1318C41.1041 19.2913 41.452 19.5385 41.8109 19.6564C42.1711 19.7641 42.5299 19.7871 42.8475 19.7699C43.4786 19.7541 43.9571 19.5285 43.9571 19.5285L43.9997 19.3776C43.9997 19.3776 43.7082 18.9191 43.183 18.5541C42.9218 18.363 42.6069 18.1833 42.2467 18.0727Z" fill="#222222"/>
<path d="M41.9813 10.5851C41.6747 10.5578 41.331 10.5707 40.9818 10.667C40.6367 10.7748 40.2984 11.0076 39.9382 11.157C38.5028 11.7621 37.1045 12.5237 37.1045 12.5237L37.143 12.6761C37.143 12.6761 38.7173 12.6056 40.2503 12.3786C40.6339 12.3197 41.0381 12.3455 41.3888 12.2579C41.738 12.1601 42.0418 11.9891 42.2921 11.8066C42.8008 11.4588 43.0827 11.0119 43.0827 11.0119L43.0483 10.8596C43.0483 10.8596 42.5891 10.621 41.9813 10.5851Z" fill="#222222"/>
</svg>
