<svg width="56" height="40" viewBox="0 0 56 40" fill="none" xmlns="http://www.w3.org/2000/svg">
<path d="M46.0827 39.4197C45.928 39.4197 45.7797 39.3586 45.6703 39.2499C45.5609 39.1412 45.4994 38.9938 45.4994 38.84V34.2024H10.4997V38.84C10.4997 38.9938 10.4382 39.1412 10.3288 39.2499C10.2194 39.3586 10.071 39.4197 9.91634 39.4197C9.76163 39.4197 9.61326 39.3586 9.50386 39.2499C9.39447 39.1412 9.33301 38.9938 9.33301 38.84V33.6227C9.33301 33.4689 9.39447 33.3215 9.50386 33.2128C9.61326 33.104 9.76163 33.043 9.91634 33.043H46.0827C46.2374 33.043 46.3858 33.104 46.4952 33.2128C46.6046 33.3215 46.6661 33.4689 46.6661 33.6227V38.84C46.6661 38.9938 46.6046 39.1412 46.4952 39.2499C46.3858 39.3586 46.2374 39.4197 46.0827 39.4197Z" fill="#222222"/>
<path d="M5.24996 22.0288C4.21162 22.0288 3.19659 21.7228 2.33324 21.1495C1.46989 20.5762 0.796989 19.7614 0.399632 18.808C0.0022747 17.8547 -0.101692 16.8057 0.100879 15.7936C0.30345 14.7815 0.803461 13.8519 1.53768 13.1222C2.2719 12.3926 3.20735 11.8957 4.22575 11.6944C5.24414 11.4931 6.29973 11.5964 7.25904 11.9913C8.21834 12.3862 9.03827 13.0549 9.61515 13.9129C10.192 14.7708 10.4999 15.7796 10.4999 16.8115C10.4984 18.1947 9.94476 19.5209 8.96054 20.499C7.97632 21.4771 6.64187 22.0272 5.24996 22.0288ZM5.24996 12.7535C4.44236 12.7535 3.6529 12.9915 2.9814 13.4374C2.30991 13.8833 1.78654 14.5171 1.47748 15.2585C1.16843 16 1.08756 16.816 1.24512 17.6031C1.40267 18.3903 1.79157 19.1133 2.36263 19.6808C2.93369 20.2483 3.66127 20.6348 4.45335 20.7914C5.24543 20.948 6.06645 20.8676 6.81257 20.5605C7.5587 20.2533 8.19643 19.7332 8.64511 19.0659C9.09378 18.3986 9.33327 17.614 9.33327 16.8115C9.33202 15.7356 8.90141 14.7042 8.13591 13.9434C7.37042 13.1827 6.33254 12.7548 5.24996 12.7535Z" fill="#222222"/>
<path d="M16.9165 28.4058H11.0833C10.9286 28.4057 10.7803 28.3445 10.6709 28.2359C10.5616 28.1272 10.5001 27.9798 10.4999 27.8261V27.2464C10.4987 26.1706 10.0681 25.1391 9.30257 24.3784C8.53707 23.6176 7.49919 23.1897 6.41662 23.1885H4.0833C3.00073 23.1897 1.96285 23.6176 1.19735 24.3784C0.431856 25.1391 0.00125053 26.1706 0 27.2464V39.4202C0 39.5739 0.0614573 39.7214 0.170853 39.8301C0.280248 39.9388 0.42862 39.9999 0.583329 39.9999H9.91659C10.0713 39.9999 10.2197 39.9388 10.3291 39.8301C10.4385 39.7214 10.4999 39.5739 10.4999 39.4202V34.2028H16.9165C17.6901 34.2028 18.4319 33.8975 18.9789 33.3539C19.5259 32.8103 19.8332 32.0731 19.8332 31.3043C19.8332 30.5356 19.5259 29.7983 18.9789 29.2548C18.4319 28.7112 17.6901 28.4058 16.9165 28.4058Z" fill="#222222"/>
<path d="M51.9169 23.1885H49.5836C48.501 23.1897 47.4631 23.6176 46.6976 24.3784C45.9321 25.1391 45.5015 26.1706 45.5003 27.2464V27.8261C45.5001 27.9798 45.4386 28.1272 45.3292 28.2359C45.2199 28.3445 45.0716 28.4057 44.9169 28.4058H39.0836C38.3101 28.4058 37.5682 28.7112 37.0213 29.2548C36.4743 29.7983 36.167 30.5356 36.167 31.3043C36.167 32.0731 36.4743 32.8103 37.0213 33.3539C37.5682 33.8975 38.3101 34.2028 39.0836 34.2028H45.5003V39.4202C45.5003 39.5739 45.5617 39.7214 45.6711 39.8301C45.7805 39.9388 45.9289 39.9999 46.0836 39.9999H55.4168C55.5716 39.9999 55.7199 39.9388 55.8293 39.8301C55.9387 39.7214 56.0002 39.5739 56.0002 39.4202V27.2464C55.9989 26.1706 55.5683 25.1391 54.8028 24.3784C54.0373 23.6176 52.9994 23.1897 51.9169 23.1885Z" fill="#222222"/>
<path d="M50.749 22.0288C49.7106 22.0288 48.6956 21.7228 47.8323 21.1495C46.9689 20.5762 46.296 19.7614 45.8987 18.808C45.5013 17.8547 45.3973 16.8057 45.5999 15.7936C45.8025 14.7815 46.3025 13.8519 47.0367 13.1222C47.7709 12.3926 48.7064 11.8957 49.7248 11.6944C50.7432 11.4931 51.7988 11.5964 52.7581 11.9913C53.7174 12.3862 54.5373 13.0549 55.1142 13.9129C55.691 14.7708 55.9989 15.7796 55.9989 16.8115C55.9974 18.1947 55.4438 19.5209 54.4596 20.499C53.4753 21.4771 52.1409 22.0272 50.749 22.0288ZM50.749 12.7535C49.9414 12.7535 49.1519 12.9915 48.4804 13.4374C47.8089 13.8833 47.2856 14.5171 46.9765 15.2585C46.6675 16 46.5866 16.816 46.7441 17.6031C46.9017 18.3903 47.2906 19.1133 47.8617 19.6808C48.4327 20.2483 49.1603 20.6348 49.9524 20.7914C50.7445 20.948 51.5655 20.8676 52.3116 20.5605C53.0577 20.2533 53.6954 19.7332 54.1441 19.0659C54.5928 18.3986 54.8323 17.614 54.8323 16.8115C54.831 15.7356 54.4004 14.7042 53.6349 13.9434C52.8694 13.1827 51.8316 12.7548 50.749 12.7535Z" fill="#222222"/>
<path d="M25.6672 0H12.834C12.37 0.000506359 11.9252 0.183896 11.5971 0.509933C11.269 0.83597 11.0845 1.27803 11.084 1.73911V8.69555C11.0845 9.15664 11.269 9.5987 11.5971 9.92473C11.9252 10.2508 12.37 10.4342 12.834 10.4347H14.0006V12.7535C14.0006 12.86 14.0301 12.9645 14.0859 13.0554C14.1417 13.1463 14.2217 13.2202 14.3169 13.269C14.4122 13.3177 14.5192 13.3395 14.6261 13.3318C14.733 13.3241 14.8357 13.2873 14.9229 13.2254L18.8539 10.4347H25.6672C26.1312 10.4342 26.576 10.2508 26.9041 9.92473C27.2321 9.5987 27.4167 9.15664 27.4172 8.69555V1.73911C27.4167 1.27803 27.2321 0.83597 26.9041 0.509933C26.576 0.183896 26.1312 0.000506359 25.6672 0ZM15.7506 5.79704H14.584C14.4292 5.79704 14.2809 5.73596 14.1715 5.62725C14.0621 5.51853 14.0006 5.37108 14.0006 5.21733C14.0006 5.06359 14.0621 4.91614 14.1715 4.80742C14.2809 4.6987 14.4292 4.63763 14.584 4.63763H15.7506C15.9053 4.63763 16.0537 4.6987 16.1631 4.80742C16.2725 4.91614 16.3339 5.06359 16.3339 5.21733C16.3339 5.37108 16.2725 5.51853 16.1631 5.62725C16.0537 5.73596 15.9053 5.79704 15.7506 5.79704ZM19.8339 5.79704H18.6673C18.5126 5.79704 18.3642 5.73596 18.2548 5.62725C18.1454 5.51853 18.0839 5.37108 18.0839 5.21733C18.0839 5.06359 18.1454 4.91614 18.2548 4.80742C18.3642 4.6987 18.5126 4.63763 18.6673 4.63763H19.8339C19.9886 4.63763 20.137 4.6987 20.2464 4.80742C20.3558 4.91614 20.4172 5.06359 20.4172 5.21733C20.4172 5.37108 20.3558 5.51853 20.2464 5.62725C20.137 5.73596 19.9886 5.79704 19.8339 5.79704ZM23.9172 5.79704H22.7506C22.5959 5.79704 22.4475 5.73596 22.3381 5.62725C22.2287 5.51853 22.1672 5.37108 22.1672 5.21733C22.1672 5.06359 22.2287 4.91614 22.3381 4.80742C22.4475 4.6987 22.5959 4.63763 22.7506 4.63763H23.9172C24.0719 4.63763 24.2203 4.6987 24.3297 4.80742C24.4391 4.91614 24.5005 5.06359 24.5005 5.21733C24.5005 5.37108 24.4391 5.51853 24.3297 5.62725C24.2203 5.73596 24.0719 5.79704 23.9172 5.79704Z" fill="#222222"/>
</svg>
