<svg width="47" height="50" viewBox="0 0 47 50" fill="none" xmlns="http://www.w3.org/2000/svg">
<path d="M30.4788 4.28812H29.196C29.0421 4.28812 28.9395 4.18528 28.9395 4.03102C28.9395 3.87676 29.0421 3.77393 29.196 3.77393H30.4788C30.6327 3.77393 30.7354 3.87676 30.7354 4.03102C30.7354 4.18528 30.5814 4.28812 30.4788 4.28812Z" fill="#222222"/>
<path d="M28.6836 2.89969C28.6323 2.89969 28.5296 2.84827 28.4783 2.79685C28.3757 2.69401 28.3757 2.48833 28.4783 2.38549L29.4019 1.45994C29.4533 1.3571 29.6585 1.3571 29.7611 1.45994C29.8637 1.56278 29.8637 1.76846 29.7611 1.8713L28.8375 2.79685C28.8375 2.84827 28.7862 2.89969 28.6836 2.89969Z" fill="#222222"/>
<path d="M29.5554 6.70474C29.5041 6.70474 29.4015 6.65332 29.3502 6.6019L28.4266 5.67635C28.324 5.57351 28.324 5.36783 28.4266 5.265C28.5292 5.16216 28.7344 5.16216 28.8371 5.265L29.7607 6.19055C29.8633 6.29338 29.8633 6.49906 29.7607 6.6019C29.7607 6.70474 29.6581 6.70474 29.5554 6.70474Z" fill="#222222"/>
<path d="M27.2467 2.95108V0.277269C27.2467 0.17443 27.1953 0.0715916 27.0414 0.0201721C26.9388 -0.0312474 26.7848 0.0201721 26.7335 0.123011C26.7335 0.123011 24.9889 2.17979 21.6024 2.17979H18.3698C17.9593 2.17979 17.6001 2.38547 17.3948 2.69398C17.3948 2.69398 17.3948 2.69398 17.3435 2.69398H16.7791C16.5739 2.69398 16.4199 2.84824 16.4199 3.05392V5.1107C16.4199 5.31638 16.5739 5.47063 16.7791 5.47063H17.3435C17.4975 5.67631 17.754 5.83057 18.0106 5.93341L19.7039 10.4069C19.7552 10.5612 19.9091 10.7154 20.1144 10.7154H21.7563C21.9103 10.7154 22.0642 10.6126 22.1668 10.4583C22.2181 10.3041 22.2181 10.0984 22.1155 9.99555L21.2432 9.01858L20.1144 6.03625H21.6024C24.9889 6.03625 26.7335 8.09303 26.7335 8.09303C26.7848 8.14445 26.8875 8.19586 26.9388 8.19586C26.9901 8.19586 26.9901 8.19586 27.0414 8.19586C27.144 8.14445 27.2467 8.04161 27.2467 7.93877V5.26496C27.7598 5.16212 28.1189 4.69934 28.1189 4.13373C28.1189 3.56811 27.7598 3.05392 27.2467 2.95108Z" fill="#222222"/>
<path d="M3.38656 33.9571C2.56558 31.6432 2.05246 29.1751 2.05246 26.6041C2.05246 18.0171 7.1323 10.6641 14.4185 7.27039V5.00793C6.00345 8.45304 0 16.8344 0 26.5527C0 29.7407 0.615738 32.7744 1.7959 35.4997L3.38656 33.9571Z" fill="#222222"/>
<path d="M44.4874 26.5527C44.4874 28.918 44.0769 31.1804 43.4099 33.2886L45.0518 34.934C46.0781 32.3117 46.5912 29.4836 46.5912 26.5527C46.5912 16.6801 40.4851 8.24735 31.8135 4.80225V7.0647C39.305 10.407 44.4874 17.9142 44.4874 26.5527Z" fill="#222222"/>
<path d="M31.6082 46.1949C29.0426 47.2748 26.2718 47.8918 23.2957 47.8918C20.5762 47.8918 17.9593 47.3776 15.5477 46.452L13.957 48.046C16.8305 49.2801 19.9605 50 23.2444 50C26.7849 50 30.1202 49.2287 33.0962 47.789L31.6082 46.1949Z" fill="#222222"/>
<path d="M45.5128 39.5618C44.6918 36.4767 41.5618 34.6256 38.4318 35.4483C35.3531 36.271 33.5059 39.4076 34.3269 42.5441C34.7374 44.0353 35.6097 45.218 36.7898 45.9378L35.2505 48.2517L41.3566 46.6577C44.4866 45.835 46.3851 42.647 45.5128 39.5618ZM40.3303 43.2126H37.2516V42.287H40.3303V43.2126ZM42.9472 41.3615H37.2516V40.4359H42.9985V41.3615H42.9472ZM42.9472 39.6132H37.2516V38.6877H42.9985V39.6132H42.9472Z" fill="#222222"/>
<path d="M3.59152 39.7675H1.53906V45.3722H3.59152V39.7675Z" fill="#222222"/>
<path d="M4.61719 39.7159L7.64457 36.2708L8.92735 36.5278L8.00375 39.4588H12.5192L11.2877 45.372H4.61719" fill="#222222"/>
<path d="M33.4553 25.1643H31.762C31.5567 24.1359 31.1463 23.2104 30.5818 22.3362L31.9672 20.9479C32.0699 20.8451 32.1212 20.6908 32.1212 20.588C32.1212 20.4337 32.0699 20.3309 31.9672 20.228L30.12 18.3255C29.9148 18.1198 29.5556 18.1198 29.3503 18.3255L27.9136 19.7653C27.144 19.3025 26.2717 18.9426 25.3481 18.6855V16.8858C25.3481 16.5773 25.0915 16.3716 24.8349 16.3716H22.1667C21.8589 16.3716 21.6536 16.6287 21.6536 16.8858V18.634C20.6787 18.8397 19.8064 19.1997 19.0367 19.7138L17.4974 18.1713C17.2921 17.9656 16.933 17.9656 16.7277 18.1713L14.8805 20.0224C14.7779 20.1252 14.7266 20.2795 14.7266 20.3823C14.7266 20.4851 14.7779 20.6394 14.8805 20.7422L16.3685 22.2334C15.8041 23.1075 15.3936 24.0331 15.1371 25.0615H13.4438C13.1359 25.0615 12.9307 25.3186 12.9307 25.5757V28.2495C12.9307 28.558 13.1872 28.7637 13.4438 28.7637H15.1371C15.3423 29.6892 15.7015 30.5633 16.1633 31.3346L14.8292 32.6715C14.7266 32.7744 14.6753 32.9286 14.6753 33.0315C14.6753 33.1343 14.7266 33.2886 14.8292 33.3914L16.6764 35.2425C16.779 35.3454 16.933 35.3968 17.0356 35.3968C17.1895 35.3968 17.2921 35.3454 17.3948 35.2425L18.6776 33.957C19.5498 34.5226 20.5248 34.934 21.551 35.1911V36.7337C21.551 37.0422 21.8076 37.2479 22.0641 37.2479H24.7323C25.0402 37.2479 25.2454 36.9908 25.2454 36.7337V35.1911C26.2717 34.934 27.1953 34.5741 28.0163 34.0085L29.1451 35.1397C29.2477 35.2425 29.4017 35.2939 29.5043 35.2939C29.6069 35.2939 29.7608 35.2425 29.8635 35.1397L31.7107 33.2886C31.8133 33.1857 31.8646 33.0315 31.8646 32.9286C31.8646 32.7744 31.8133 32.6715 31.7107 32.5687L30.5305 31.3861C30.9923 30.6148 31.4028 29.7406 31.6081 28.7637H33.3013C33.6092 28.7637 33.8145 28.5066 33.8145 28.2495V25.6271C33.9684 25.37 33.7631 25.1643 33.4553 25.1643ZM23.4495 32.2088C20.5761 32.2088 18.2157 29.8435 18.2157 26.964C18.2157 24.0845 20.5761 21.7192 23.4495 21.7192C26.323 21.7192 28.6833 24.0845 28.6833 26.964C28.6833 29.8435 26.3743 32.2088 23.4495 32.2088Z" fill="#222222"/>
</svg>
