<svg width="46" height="46" viewBox="0 0 46 46" fill="none" xmlns="http://www.w3.org/2000/svg">
<path d="M27.3125 4.3125H5.75C5.55938 4.3125 5.37656 4.38823 5.24177 4.52302C5.10698 4.65781 5.03125 4.84063 5.03125 5.03125V16.5313C5.03125 16.7219 5.10698 16.9047 5.24177 17.0395C5.37656 17.1743 5.55938 17.25 5.75 17.25H19.6147C19.6722 17.0598 19.7394 16.8727 19.8159 16.6894C20.2086 15.7897 20.8548 15.0238 21.6755 14.4852C22.4961 13.9466 23.4559 13.6586 24.4375 13.6563H28.0313V5.03125C28.0313 4.84063 27.9555 4.65781 27.8207 4.52302C27.6859 4.38823 27.5031 4.3125 27.3125 4.3125ZM20.1897 12.0103L15.1153 15.0578C14.8916 15.1922 14.636 15.2641 14.375 15.2663C13.9936 15.2627 13.629 15.1091 13.36 14.8387C13.091 14.5684 12.9392 14.203 12.9375 13.8216V7.74094C12.9368 7.48614 13.0038 7.23573 13.1317 7.01535C13.2596 6.79498 13.4438 6.61256 13.6654 6.48677C13.8869 6.36098 14.138 6.29636 14.3928 6.29951C14.6475 6.30265 14.8969 6.37347 15.1153 6.50469L20.1897 9.55219C20.4023 9.67923 20.5783 9.85926 20.7006 10.0747C20.8228 10.2901 20.8871 10.5336 20.8871 10.7813C20.8871 11.0289 20.8228 11.2724 20.7006 11.4878C20.5783 11.7032 20.4023 11.8833 20.1897 12.0103Z" fill="#222222"/>
<path d="M19.4494 10.7813L14.375 13.8216V7.74097L19.4494 10.7813Z" fill="#222222"/>
<path d="M29.4688 0H3.59375C2.64063 0 1.72654 0.378626 1.05259 1.05259C0.378626 1.72654 0 2.64063 0 3.59375L0 20.8438C0 21.7969 0.378626 22.711 1.05259 23.3849C1.72654 24.0589 2.64063 24.4375 3.59375 24.4375H19.4063V21.5697C19.4048 21.7115 19.3615 21.8498 19.2816 21.967C19.2018 22.0843 19.0891 22.1753 18.9576 22.2286C18.8262 22.2819 18.6819 22.2951 18.5429 22.2666C18.404 22.238 18.2766 22.169 18.1768 22.0682C18.077 21.9674 18.0092 21.8393 17.9821 21.7001C17.9549 21.5609 17.9696 21.4167 18.0242 21.2858C18.0788 21.1549 18.1709 21.0431 18.2889 20.9644C18.407 20.8857 18.5457 20.8438 18.6875 20.8438C18.7825 20.8438 18.8766 20.8626 18.9642 20.8991C19.0519 20.9357 19.1315 20.9893 19.1983 21.0568C19.2651 21.1243 19.3179 21.2044 19.3536 21.2924C19.3893 21.3805 19.4072 21.4747 19.4063 21.5697V18.6875H5.75C5.17865 18.6858 4.63119 18.4581 4.22719 18.0541C3.82318 17.6501 3.59546 17.1026 3.59375 16.5313V5.03125C3.59546 4.4599 3.82318 3.91244 4.22719 3.50844C4.63119 3.10443 5.17865 2.87671 5.75 2.875H27.3125C27.8839 2.87671 28.4313 3.10443 28.8353 3.50844C29.2393 3.91244 29.4671 4.4599 29.4688 5.03125V13.6563H33.0625V3.59375C33.0625 2.64063 32.6839 1.72654 32.0099 1.05259C31.336 0.378626 30.4219 0 29.4688 0V0ZM5.03125 20.8438H13.6563C13.8469 20.8438 14.0297 20.9195 14.1645 21.0543C14.2993 21.1891 14.375 21.3719 14.375 21.5625C14.375 21.7531 14.2993 21.9359 14.1645 22.0707C14.0297 22.2055 13.8469 22.2813 13.6563 22.2813H5.03125C4.84063 22.2813 4.65781 22.2055 4.52302 22.0707C4.38823 21.9359 4.3125 21.7531 4.3125 21.5625C4.3125 21.3719 4.38823 21.1891 4.52302 21.0543C4.65781 20.9195 4.84063 20.8438 5.03125 20.8438Z" fill="#222222"/>
<path d="M28.75 22.6406H27.3125C27.1219 22.6406 26.9391 22.7163 26.8043 22.8511C26.6695 22.9859 26.5938 23.1688 26.5938 23.3594V24.0781C26.5938 24.2687 26.6695 24.4516 26.8043 24.5864C26.9391 24.7212 27.1219 24.7969 27.3125 24.7969H28.75V22.6406Z" fill="#222222"/>
<path d="M28.3057 26.2344L28.586 28.4812C28.6096 28.6551 28.6954 28.8145 28.8276 28.93C28.9597 29.0455 29.1292 29.1092 29.3047 29.1094H29.4686V26.2753L29.3464 26.2344H28.3057Z" fill="#222222"/>
<path d="M36.4263 20.3624L30.1875 22.4395V24.9983L36.4263 27.0755C36.5334 27.1144 36.6486 27.1262 36.7614 27.1099C36.8743 27.0936 36.9813 27.0497 37.0731 26.982C37.1668 26.9166 37.2431 26.8295 37.2957 26.7281C37.3483 26.6267 37.3755 26.5141 37.375 26.3999V21.038C37.3755 20.9238 37.3483 20.8111 37.2957 20.7097C37.2431 20.6083 37.1668 20.5212 37.0731 20.4558C36.9813 20.3881 36.8743 20.3442 36.7614 20.3279C36.6486 20.3116 36.5334 20.3234 36.4263 20.3624Z" fill="#222222"/>
<path d="M42.4063 15.0938H24.4375C23.7379 15.0954 23.0538 15.2999 22.4682 15.6827C21.8826 16.0654 21.4207 16.6099 21.1384 17.25C20.9444 17.7044 20.8442 18.1934 20.8438 18.6875V26.5938H23C23.8314 26.595 24.6497 26.8016 25.382 27.1954C26.1143 27.5891 26.738 28.1577 27.1975 28.8506C27.1814 28.7892 27.1694 28.7268 27.1616 28.6638L26.8525 26.1841C26.3726 26.0779 25.9431 25.8115 25.6348 25.4288C25.3265 25.046 25.1577 24.5696 25.1563 24.0781V23.3594C25.158 22.788 25.3857 22.2406 25.7897 21.8366C26.1937 21.4326 26.7412 21.2048 27.3125 21.2031H29.3466L35.9734 18.9966C36.2973 18.8885 36.6422 18.8588 36.9797 18.91C37.3172 18.9612 37.6378 19.0918 37.915 19.2911C38.1922 19.4904 38.4181 19.7527 38.5741 20.0564C38.7302 20.36 38.8119 20.6964 38.8125 21.0378V26.3997C38.8147 26.7417 38.7341 27.0791 38.5776 27.3832C38.4212 27.6874 38.1935 27.9491 37.9141 28.1463C37.5503 28.4102 37.1129 28.5535 36.6634 28.5559C36.4286 28.5563 36.1954 28.5175 35.9734 28.4409L30.9063 26.7519V29.8281C30.9063 30.0188 30.8305 30.2016 30.6957 30.3364C30.5609 30.4712 30.3781 30.5469 30.1875 30.5469H29.3034C29.0004 30.5465 28.7007 30.4831 28.4235 30.3606C28.1463 30.2381 27.8977 30.0592 27.6934 29.8353C27.9198 30.4047 28.0345 31.0123 28.0313 31.625V33.7813H42.4063C43.3594 33.7813 44.2735 33.4026 44.9474 32.7287C45.6214 32.0547 46 31.1406 46 30.1875V18.6875C46 17.7344 45.6214 16.8203 44.9474 16.1463C44.2735 15.4724 43.3594 15.0938 42.4063 15.0938ZM41.6875 25.1563C41.6875 25.3469 41.6118 25.5297 41.477 25.6645C41.3422 25.7993 41.1594 25.875 40.9688 25.875C40.7781 25.875 40.5953 25.7993 40.4605 25.6645C40.3257 25.5297 40.25 25.3469 40.25 25.1563V22.2813C40.25 22.0906 40.3257 21.9078 40.4605 21.773C40.5953 21.6382 40.7781 21.5625 40.9688 21.5625C41.1594 21.5625 41.3422 21.6382 41.477 21.773C41.6118 21.9078 41.6875 22.0906 41.6875 22.2813V25.1563Z" fill="#222222"/>
<path d="M17.9688 33.7813C18.3657 33.7813 18.6875 33.4595 18.6875 33.0625C18.6875 32.6655 18.3657 32.3438 17.9688 32.3438C17.5718 32.3438 17.25 32.6655 17.25 33.0625C17.25 33.4595 17.5718 33.7813 17.9688 33.7813Z" fill="#222222"/>
<path d="M23 28.0312H3.59375C2.64063 28.0312 1.72654 28.4099 1.05259 29.0838C0.378626 29.7578 0 30.6719 0 31.625L0 42.4063C0.000352777 43.1094 0.207844 43.7969 0.596563 44.3828L9.53063 35.4272C9.66688 35.2936 9.8501 35.2187 10.0409 35.2187C10.2318 35.2187 10.415 35.2936 10.5513 35.4272L16.8906 41.7594L21.7709 36.8647C21.9072 36.7311 22.0904 36.6562 22.2813 36.6562C22.4721 36.6562 22.6553 36.7311 22.7916 36.8647L26.5938 40.6741V31.625C26.5938 30.6719 26.2151 29.7578 25.5412 29.0838C24.8672 28.4099 23.9531 28.0312 23 28.0312ZM17.9688 35.2188C17.5423 35.2188 17.1254 35.0923 16.7708 34.8554C16.4162 34.6184 16.1398 34.2817 15.9766 33.8877C15.8134 33.4937 15.7707 33.0601 15.8539 32.6418C15.9371 32.2236 16.1425 31.8394 16.4441 31.5378C16.7456 31.2362 17.1298 31.0309 17.5481 30.9477C17.9664 30.8645 18.3999 30.9072 18.7939 31.0704C19.1879 31.2336 19.5247 31.51 19.7616 31.8646C19.9985 32.2191 20.125 32.636 20.125 33.0625C20.1233 33.6338 19.8956 34.1813 19.4916 34.5853C19.0876 34.9893 18.5401 35.217 17.9688 35.2188Z" fill="#222222"/>
<path d="M17.9072 42.7729L21.1416 46.0001H23.0003C23.9043 45.9979 24.7741 45.6543 25.4355 45.038C26.0969 44.4216 26.5009 43.5782 26.5667 42.6766L22.2815 38.3921L17.9072 42.7729Z" fill="#222222"/>
<path d="M16.3752 43.2889C16.3637 43.2767 16.3594 43.2609 16.3486 43.2487L10.0415 36.9546L1.61133 45.4028C2.1992 45.792 2.88859 45.9997 3.59364 46.0001H19.1057L16.4154 43.3148C16.4032 43.304 16.3874 43.3004 16.3752 43.2889Z" fill="#222222"/>
</svg>
