<svg width="46" height="35" viewBox="0 0 46 35" fill="none" xmlns="http://www.w3.org/2000/svg">
<path fill-rule="evenodd" clip-rule="evenodd" d="M2.91094 0C2.57213 0 2.3 0.359375 2.3 0.805122V31.1111H0.79362C0.35424 31.1111 0 31.4465 0 31.8631V31.9147C0 32.3312 0.35424 32.6667 0.79362 32.6667H2.3V34.1949C2.3 34.6406 2.57213 35 2.91094 35H3.2224C3.5612 35 3.83333 34.6406 3.83333 34.1949V32.6667H45.2064C45.6458 32.6667 46 32.3312 46 31.9147V31.8631C46 31.4465 45.6458 31.1111 45.2064 31.1111H44.4667H3.83333V0.805122C3.83333 0.359375 3.5612 0 3.2224 0H2.91094ZM9.96667 8.55556L8.32402 14.1109L10.7603 17.4058L13.2834 14.2765L9.96667 8.55556ZM17.6333 10.1111L10.7333 18.6667L6.13333 12.4444L4.6 16.3333V26.7027V30.3333H43.7H44.4667V21L38.3333 12.4444L32.9667 20.2222L27.6 14.7778L23 18.6667L17.6333 10.1111ZM32.9667 12.4444L29.894 16.0067L32.8633 19.0176L35.3296 15.4416L32.9667 12.4444ZM23 14L21.9428 15.5328L23.1782 17.503L24.9646 15.9931L23 14Z" fill="#222222"/>
</svg>
