<svg width="43" height="44" viewBox="0 0 43 44" fill="none" xmlns="http://www.w3.org/2000/svg">
<path d="M7.67594 11.5088C7.1035 11.5078 6.54365 11.6778 6.06736 11.9975C5.59107 12.3171 5.21979 12.7718 5.00059 13.304C4.78139 13.8363 4.72414 14.422 4.8361 14.9871C4.94805 15.5521 5.22417 16.0709 5.62946 16.4778L11.1478 22.064L16.6741 16.5019C17.2134 15.9554 17.516 15.2164 17.516 14.4461C17.516 13.6759 17.2134 12.9369 16.6741 12.3904C16.1216 11.8598 15.3873 11.5637 14.6236 11.5637C13.86 11.5637 13.1256 11.8598 12.5732 12.3904L11.1478 13.833L9.71446 12.3904C9.44911 12.1156 9.13242 11.8962 8.78259 11.7449C8.43275 11.5936 8.05667 11.5134 7.67594 11.5088Z" fill="#222222"/>
<path d="M43 2.40437V0H0V30.4553H23.6978L22.8059 28.9807C21.7867 27.3778 20.7356 25.6466 19.342 23.5388C19.1437 23.2392 19.0088 22.9017 18.9458 22.5473C18.8828 22.1929 18.893 21.8293 18.9757 21.479C19.1081 20.9223 19.4228 20.4266 19.8692 20.0719C20.3155 19.7171 20.8675 19.524 21.4363 19.5235C21.8011 19.526 22.1615 19.6034 22.4956 19.7508C22.8296 19.8982 23.1303 20.1127 23.3793 20.381L29.2639 26.6725L35.8811 25.0696C36.1077 25.0126 36.3403 24.983 36.5739 24.9814C37.2035 24.9824 37.8167 25.1837 38.3258 25.5565C38.8349 25.9293 39.2139 26.4546 39.4087 27.0572L40.5076 30.4473H43V4.00728L11.1481 3.96721V2.3643L43 2.40437ZM23.8889 7.64589L26.3574 10.1224C27.1231 9.8853 27.939 9.86613 28.7148 10.067C29.4906 10.2679 30.196 10.6809 30.753 11.2605L31.0556 11.565L31.3581 11.2605C32.2029 10.4102 33.3487 9.93257 34.5433 9.93257C35.738 9.93257 36.8838 10.4102 37.7285 11.2605C38.5733 12.1107 39.0479 13.2639 39.0479 14.4663C39.0479 15.6687 38.5733 16.8219 37.7285 17.6721L35.7856 19.6277L38.5646 22.4328L37.4259 23.5308L34.6389 20.7337L31.0556 24.3322L24.4065 17.6401C23.9866 17.22 23.6534 16.7205 23.426 16.1703C23.1986 15.6201 23.0815 15.0301 23.0815 14.4342C23.0815 13.8384 23.1986 13.2484 23.426 12.6982C23.6534 12.148 23.9866 11.6485 24.4065 11.2284C24.5498 11.0922 24.7091 10.98 24.8604 10.8597L22.7661 8.7519L23.8889 7.64589ZM7.23037 2.83716C7.26685 2.73806 7.32385 2.64791 7.39759 2.57267C7.50957 2.46147 7.65177 2.38613 7.80624 2.35618C7.96071 2.32623 8.12054 2.34299 8.26556 2.40437C8.36205 2.44496 8.45093 2.50188 8.52833 2.57267C8.60207 2.64791 8.65907 2.73806 8.69556 2.83716C8.73636 2.93351 8.758 3.03698 8.75926 3.14171C8.75926 3.35427 8.67536 3.55812 8.52603 3.70842C8.37669 3.85873 8.17415 3.94317 7.96296 3.94317C7.75177 3.94317 7.54923 3.85873 7.3999 3.70842C7.25056 3.55812 7.16667 3.35427 7.16667 3.14171C7.17091 3.0451 7.1925 2.95007 7.23037 2.8612V2.83716ZM4.84148 2.83716C4.87796 2.73806 4.93496 2.64791 5.0087 2.57267C5.12068 2.46147 5.26288 2.38613 5.41735 2.35618C5.57183 2.32623 5.73165 2.34299 5.87667 2.40437C5.97317 2.44496 6.06204 2.50188 6.13944 2.57267C6.21318 2.64791 6.27018 2.73806 6.30667 2.83716C6.34747 2.93351 6.36911 3.03698 6.37037 3.14171C6.36744 3.35391 6.28495 3.55716 6.13944 3.71074C6.06204 3.78154 5.97317 3.83846 5.87667 3.87905C5.78093 3.92012 5.67813 3.9419 5.57407 3.94317C5.36288 3.94317 5.16034 3.85873 5.01101 3.70842C4.86167 3.55812 4.77778 3.35427 4.77778 3.14171C4.78202 3.0451 4.80361 2.95007 4.84148 2.8612V2.83716ZM2.38889 3.16575C2.39015 3.06102 2.41179 2.95755 2.45259 2.8612C2.48907 2.7621 2.54608 2.67195 2.61981 2.59672C2.71333 2.50305 2.82851 2.43424 2.95499 2.39647C3.08148 2.3587 3.2153 2.35315 3.34444 2.38033C3.39433 2.3891 3.44264 2.40531 3.48778 2.42841L3.63111 2.50054L3.75056 2.59672C3.82429 2.67195 3.8813 2.7621 3.91778 2.8612C3.95858 2.95755 3.98022 3.06102 3.98148 3.16575C3.97855 3.37795 3.89607 3.5812 3.75056 3.73479L3.63111 3.83096C3.58672 3.86129 3.53852 3.88555 3.48778 3.90309L3.34444 3.95118H3.18519C2.97399 3.95118 2.77145 3.86674 2.62212 3.71644C2.47278 3.56614 2.38889 3.36228 2.38889 3.14972V3.16575ZM11.4507 11.2605C12.2955 10.4102 13.4412 9.93257 14.6359 9.93257C15.8306 9.93257 16.9763 10.4102 17.8211 11.2605C18.6659 12.1107 19.1405 13.2639 19.1405 14.4663C19.1405 15.6687 18.6659 16.8219 17.8211 17.6721L11.1481 24.3322L4.49907 17.6401C4.07919 17.22 3.74597 16.7205 3.51858 16.1703C3.2912 15.6201 3.17414 15.0301 3.17414 14.4342C3.17414 13.8384 3.2912 13.2484 3.51858 12.6982C3.74597 12.148 4.07919 11.6485 4.49907 11.2284C4.91592 10.8048 5.41203 10.4686 5.95874 10.2391C6.50545 10.0097 7.09192 9.89152 7.68426 9.89152C8.2766 9.89152 8.86307 10.0097 9.40978 10.2391C9.95649 10.4686 10.4526 10.8048 10.8694 11.2284L11.172 11.533L11.4507 11.2605Z" fill="#222222"/>
<path d="M25.5386 12.3904C25.2677 12.6578 25.0527 12.9771 24.9064 13.3295C24.7601 13.6819 24.6853 14.0602 24.6865 14.4421C24.686 14.8251 24.7611 15.2044 24.9074 15.5579C25.0536 15.9115 25.2682 16.2324 25.5386 16.5018L31.0569 22.0639L33.5175 19.5954L25.9845 12.0137C25.8235 12.1236 25.6741 12.2498 25.5386 12.3904Z" fill="#222222"/>
<path d="M36.5816 16.5018C37.1209 15.9553 37.4235 15.2163 37.4235 14.4461C37.4235 13.6759 37.1209 12.9369 36.5816 12.3904C36.0291 11.8598 35.2948 11.5637 34.5311 11.5637C33.7675 11.5637 33.0332 11.8598 32.4807 12.3904L31.0553 13.833L29.622 12.3904C29.1262 11.8915 28.4663 11.5922 27.7666 11.5488L34.6307 18.4574L36.5816 16.5018Z" fill="#222222"/>
<path d="M21.9057 34.3346L26.6278 34.551C26.7958 34.5531 26.9607 34.5057 27.1022 34.4145C27.2438 34.3233 27.3556 34.1925 27.4241 34.038C27.4719 33.9071 27.4896 33.7669 27.4759 33.6281C27.4621 33.4893 27.4171 33.3554 27.3444 33.2366C24.7246 29.2293 23.363 26.8249 20.6476 22.6894C20.569 22.5763 20.5149 22.4479 20.4887 22.3125C20.4625 22.177 20.4649 22.0375 20.4957 21.9031C20.5265 21.7686 20.585 21.6421 20.6674 21.5318C20.7498 21.4215 20.8543 21.3299 20.9741 21.2628C21.176 21.1603 21.4061 21.1282 21.6281 21.1718C21.8501 21.2153 22.0515 21.3319 22.2004 21.5033L28.7141 28.4759L36.2311 26.6326C36.571 26.5411 36.9327 26.584 37.2421 26.7524C37.5516 26.9208 37.7853 27.2019 37.8954 27.5382L40.4196 35.2963L42.2591 37.2919L33.8024 44.0001L31.7002 40.5298L21.4996 36.787C21.2684 36.7012 21.0662 36.5508 20.9167 36.3535C20.7672 36.1562 20.6766 35.9202 20.6556 35.673C20.6422 35.5006 20.6648 35.3273 20.7219 35.1642C20.7789 35.0011 20.8692 34.8518 20.9868 34.7258C21.1045 34.5998 21.247 34.4999 21.4053 34.4326C21.5635 34.3652 21.734 34.3318 21.9057 34.3346Z" fill="#222222"/>
</svg>
