<svg width="44" height="44" viewBox="0 0 44 44" fill="none" xmlns="http://www.w3.org/2000/svg">
<path d="M41.6328 31.895C43.14 28.9175 44 25.5592 44 22C44 9.86909 34.1309 0 22 0C9.86909 0 0 9.86909 0 22C0 34.1309 9.86909 44 22 44C26.2223 44 30.1657 42.7973 33.5189 40.7265C34.6012 41.7779 36.0747 42.4288 37.6993 42.4288C41.0113 42.4288 43.7054 39.7346 43.7054 36.4232C43.7054 34.6161 42.8997 32.997 41.6328 31.895ZM1.22222 22C1.22222 10.5432 10.5432 1.22222 22 1.22222C33.4571 1.22222 42.7778 10.5432 42.7778 22C42.7778 25.2965 41.9947 28.4094 40.6222 31.1809C40.2879 30.9937 39.9341 30.8384 39.5645 30.7173C40.8716 28.0898 41.6168 25.1338 41.6168 22C41.6168 11.1659 32.8341 2.38318 22 2.38318C11.1659 2.38318 2.38318 11.1659 2.38318 22C2.38318 32.8341 11.1659 41.6168 22 41.6168C25.726 41.6168 29.2003 40.5647 32.1669 38.7605C32.3195 39.1201 32.5061 39.4618 32.7227 39.7817C29.5897 41.6787 25.9224 42.7778 22 42.7778C10.5432 42.7778 1.22222 33.4571 1.22222 22ZM29.5416 28.5878C29.3891 28.6982 29.177 28.6982 29.0245 28.5879C16.1326 19.2605 24.3068 11.2947 29.2776 17.5632H29.2885C34.2593 11.2947 42.4335 19.26 29.5416 28.5878ZM18.7796 23.2345C19.3549 23.2345 19.8228 23.7023 19.8228 24.2776C19.8228 24.8529 19.3549 25.3208 18.7796 25.3208L16.7655 25.3196L16.0914 27.8916C15.9717 28.3502 15.5569 28.6706 15.0829 28.6706C14.994 28.6706 14.9051 28.6588 14.8187 28.6366C14.5483 28.5657 14.3224 28.394 14.1817 28.1533C14.0422 27.9132 14.0039 27.6324 14.0743 27.3633L14.61 25.3196H12.2102L11.5362 27.8916C11.3942 28.436 10.8091 28.7761 10.2634 28.6366C9.99307 28.5657 9.76715 28.394 9.62643 28.1533C9.48693 27.9132 9.44865 27.6324 9.51901 27.3633L10.0548 25.3196L8.58933 25.3208C8.01406 25.3208 7.54621 24.8529 7.54621 24.2776C7.54621 23.7023 8.01406 23.2345 8.58933 23.2345L10.6004 23.2333L11.2473 20.7643L9.78187 20.7655C9.20659 20.7655 8.73871 20.2976 8.73871 19.7224C8.73871 19.1471 9.20659 18.6792 9.78187 18.6792L11.793 18.678L12.4657 16.1091C12.6114 15.5529 13.1879 15.2208 13.7385 15.364C14.0089 15.435 14.2348 15.6066 14.3755 15.8474C14.515 16.0875 14.5532 16.3683 14.4829 16.6374L13.9484 18.678H16.3494L17.0222 16.1091C17.1667 15.5542 17.7333 15.2165 18.295 15.364C18.5653 15.435 18.7912 15.6066 18.932 15.8474C19.0715 16.0875 19.1098 16.3683 19.0394 16.6374L18.5049 18.678L19.9721 18.6792C20.5474 18.6792 21.0153 19.1471 21.0153 19.7224C21.0153 20.2976 20.5474 20.7655 19.9721 20.7655L17.9592 20.7643L17.3123 23.2333L18.7796 23.2345ZM37.6993 41.451C34.9269 41.451 32.6711 39.1956 32.6711 36.4232C32.6711 33.6507 34.9269 31.3949 37.6993 31.3949C40.4718 31.3949 42.7276 33.6507 42.7276 36.4232C42.7276 39.1956 40.4718 41.451 37.6993 41.451Z" fill="#222222"/>
<path d="M12.7568 23.2336H15.1554L15.8023 20.7646H13.4025L12.7568 23.2336Z" fill="#222222"/>
<path d="M40.567 35.9343H38.188V33.5553C38.188 33.2851 37.9693 33.0664 37.6991 33.0664C37.4289 33.0664 37.2102 33.2851 37.2102 33.5553V35.9343H34.8317C34.5614 35.9343 34.3428 36.153 34.3428 36.4232C34.3428 36.6934 34.5614 36.9121 34.8317 36.9121H37.2102V39.2907C37.2102 39.5609 37.4289 39.7796 37.6991 39.7796C37.9693 39.7796 38.188 39.5609 38.188 39.2907V36.9121H40.567C40.8373 36.9121 41.0559 36.6934 41.0559 36.4232C41.0559 36.153 40.8373 35.9343 40.567 35.9343Z" fill="#222222"/>
</svg>
