<svg xmlns="http://www.w3.org/2000/svg">
<defs>
<font id="Bellico" horiz-adv-x="336" >
  <font-face 
    font-family="Bellico"
    font-weight="400"
    font-stretch="normal"
    units-per-em="1000"
    panose-1="2 0 0 0 0 0 0 0 0 0"
    ascent="750"
    descent="-250"
    x-height="328"
    cap-height="700"
    bbox="-207 -386.267 1264 862.98"
    underline-thickness="50"
    underline-position="-50"
    unicode-range="U+0020-U+007A"
  />
<missing-glyph horiz-adv-x="1308" 
d="M298 843q-37 -94 -48 -168q-5 -38 5 -48q1 -2 -1 -3.5t-4 -1.5q-13 -1 -19 11.5t-7 26.5q0 16 3 30q5 30 7 41h-33q0 -2 -2 -4q-52 -84 -88 -99q-19 -10 -42.5 -1.5t-28.5 31.5q-6 29 16 53.5t52 28.5q35 5 42 -21q6 -24 -15 -36q-9 -5 -20 -4q-14 3 -14 21q0 3 2 5l1 -1
q8 -10 22 -1q14 10 4 21q-15 15 -41 -3q-3 -2 -6 -5q-15 -13 -19.5 -30t8.5 -33q36 -38 110 78h-15q-5 0 -2 5l1 2q2 6 8 6h16q5 7 14.5 23t14.5 23q54 85 74 71q10 -6 5 -18zM265 829q-12 -12 -30 -41q-5 -7 -13 -22t-13 -22h29q13 53 27 85zM375 681q0 -5 -5 -10
q-12 -13 -22 -13q-11 0 -21 13l-4 -5q-26 -29 -41 -29q-6 0 -8 3q-7 11 -7 48q0 26 3 35q7 17 22 17q6 0 6 -6v-2q-1 -2 -1 -3q-8 -24 -8 -43q0 -15 4 -27q0 -3 2 -3q1 0 5 4l10 10.5t10 13.5q-7 18 -7 32q0 17 8 26.5t18 9.5q14 0 17 -16v-2q0 -5 -1 -7q-1 -18 -18 -44v-1
q5 -9 12 -9q8 0 17 9q3 3 6 3t3 -4zM336 723q0 5 -1 6q0 4 -5 4h-2q-5 -3 -5 -11q0 -15 5 -25v-1q8 13 8 27zM487 681q0 -5 -5 -10q-29 -34 -49 -34q-15 0 -18 13q-13 -13 -27 -13q-11 0 -20 9t-9 22q0 11 5 23q7 24 25.5 38t35.5 14q15 0 21 -10q10 8 16 8q7 0 7 -6
q0 -2 -8 -20q-14 -28 -20 -51q-2 -4 -2 -6q0 -5 4 -5q10 0 34 28q2 3 6 3t4 -3zM434 712l1 2q-1 13 -12 13q-12 0 -25.5 -17.5t-13.5 -37.5t12 -20q11 0 20 17q7 21 18 43zM486 637q-19 0 -19 19q0 7 3 13q3 13 19 55q2 5 3 7q6 12 22 12h2q4 -1 4 -3v-2q-1 -2 -1 -3
l-10 -26q-6 -15 -15 -45q-2 -4 -2 -6q0 -5 4 -5q10 0 34 28q3 3 7 3q3 0 3 -4t-5 -9q-27 -34 -49 -34zM499 767q0 7 6.5 13.5t14.5 6.5q14 0 14 -13q0 -7 -6.5 -13t-14.5 -6q-14 0 -14 12zM625 844q0 -1 -1 -2q-40 -37 -67 -132q-6 -20 -8 -30q-7 -23 5 -23q8 0 29 24

<glyph glyph-name=".notdef" unicode="And" horiz-adv-x="1308" 
d="M298 843q-37 -94 -48 -168q-5 -38 5 -48q1 -2 -1 -3.5t-4 -1.5q-13 -1 -19 11.5t-7 26.5q0 16 3 30q5 30 7 41h-33q0 -2 -2 -4q-52 -84 -88 -99q-19 -10 -42.5 -1.5t-28.5 31.5q-6 29 16 53.5t52 28.5q35 5 42 -21q6 -24 -15 -36q-9 -5 -20 -4q-14 3 -14 21q0 3 2 5l1 -1
q8 -10 22 -1q14 10 4 21q-15 15 -41 -3q-3 -2 -6 -5q-15 -13 -19.5 -30t8.5 -33q36 -38 110 78h-15q-5 0 -2 5l1 2q2 6 8 6h16q5 7 14.5 23t14.5 23q54 85 74 71q10 -6 5 -18zM265 829q-12 -12 -30 -41q-5 -7 -13 -22t-13 -22h29q13 53 27 85zM375 681q0 -5 -5 -10
q-12 -13 -22 -13q-11 0 -21 13l-4 -5q-26 -29 -41 -29q-6 0 -8 3q-7 11 -7 48q0 26 3 35q7 17 22 17q6 0 6 -6v-2q-1 -2 -1 -3q-8 -24 -8 -43q0 -15 4 -27q0 -3 2 -3q1 0 5 4l10 10.5t10 13.5q-7 18 -7 32q0 17 8 26.5t18 9.5q14 0 17 -16v-2q0 -5 -1 -7q-1 -18 -18 -44v-1
q5 -9 12 -9q8 0 17 9q3 3 6 3t3 -4zM336 723q0 5 -1 6q0 4 -5 4h-2q-5 -3 -5 -11q0 -15 5 -25v-1q8 13 8 27zM487 681q0 -5 -5 -10q-29 -34 -49 -34q-15 0 -18 13q-13 -13 -27 -13q-11 0 -20 9t-9 22q0 11 5 23q7 24 25.5 38t35.5 14q15 0 21 -10q10 8 16 8q7 0 7 -6
q0 -2 -8 -20q-14 -28 -20 -51q-2 -4 -2 -6q0 -5 4 -5q10 0 34 28q2 3 6 3t4 -3zM434 712l1 2q-1 13 -12 13q-12 0 -25.5 -17.5t-13.5 -37.5t12 -20q11 0 20 17q7 21 18 43zM486 637q-19 0 -19 19q0 7 3 13q3 13 19 55q2 5 3 7q6 12 22 12h2q4 -1 4 -3v-2q-1 -2 -1 -3
l-10 -26q-6 -15 -15 -45q-2 -4 -2 -6q0 -5 4 -5q10 0 34 28q3 3 7 3q3 0 3 -4t-5 -9q-27 -34 -49 -34zM499 767q0 7 6.5 13.5t14.5 6.5q14 0 14 -13q0 -7 -6.5 -13t-14.5 -6q-14 0 -14 12zM625 844q0 -1 -1 -2q-40 -37 -67 -132q-6 -20 -8 -30q-7 -23 5 -23q8 0 29 24
q3 3 6 3q4 0 4 -4q0 -2 -5 -9q-26 -30 -35 -33q-3 -1 -6 -1q-12 0 -18 9.5t-5 22.5q2 36 32 112t51 76q4 0 13 -7q5 -3 5 -6zM705 681q0 -5 -5 -10q-29 -34 -49 -34q-15 0 -18 13q-13 -13 -27 -13q-11 0 -20 9t-9 22q0 9 4 23q8 24 26.5 38t35.5 14q15 0 21 -10q10 8 15 8
q7 0 7 -6q0 -4 -7 -20q-14 -28 -20 -51q-2 -4 -2 -6q0 -5 4 -5q9 0 34 28q2 3 6 3t4 -3zM652 712l1 2q-1 13 -12 13q-12 0 -25.5 -17.5t-13.5 -37.5t12 -20q11 0 20 17q4 16 18 43zM815 674q-9 -12 -24 -17t-27 0q-18 -20 -42 -20q-35 0 -34 44q1 52 30 115t46 63q4 0 14 -7
q7 -5 4 -9q-21 -19 -42 -63.5t-29 -78.5q-5 -14 0 -32t23 -17q10 2 19 10q-21 7 -29.5 25t-2 34.5t25.5 21.5q3 1 7 1q13 0 23 -10.5t10 -25.5q0 -23 -11 -38q18 -6 32 12q2 3 6 3t4 -4.5t-3 -6.5zM742 692q3 -9 20 -17q12 32 -6 42q-12 7 -16 -5q-3 -8 2 -20zM902 844
q0 -1 -1 -2q-40 -37 -67 -132q-6 -20 -8 -30q-7 -23 5 -23q7 0 29 24q2 3 6 3t4 -4q0 -3 -6 -9q-25 -30 -34 -33q-3 -1 -6 -1q-25 0 -23 32q1 35 31.5 111.5t50.5 76.5q3 0 14 -7q5 -3 5 -6zM961 680q0 -3 -4 -8q-28 -35 -65 -35q-17 0 -28 10.5t-11 27.5q0 26 19 47t45 21
q16 0 23 -12q3 -3 3 -11q0 -9 -3 -15q-15 -38 -55 -42q6 -9 18 -9q25 0 48 27q3 3 6 3q4 0 4 -4zM878 681q0 -4 1 -6h1q27 6 34 20q4 8 4 19q0 16 -9 16q-2 0 -6 -2q-10 -4 -17.5 -19t-7.5 -28zM1163 682q0 -3 -5 -10q-14 -18 -29 -18q-5 0 -11 2q-19 -19 -42 -19
q-15 0 -23.5 10t-8.5 26q0 26 19 48.5t43 22.5h3q18 -4 18 -11q0 -8 -11 -8h-2l-2 1h-2q-11 0 -21 -7q-19 -13 -21 -35v-4q0 -12 6 -19.5t14 -7.5q10 0 18 9q-13 12 -13 25t10.5 23.5t21.5 10.5q14 0 14 -18q0 -19 -10 -33q12 -3 24 12q3 3 6 3q4 0 4 -3zM1119 694q0 8 -4 8
q-6 0 -6 -10q0 -7 6 -16q4 11 4 18zM1264 680q0 -4 -5 -9q-28 -34 -45 -34q-18 0 -18 19q0 3 2 13q3 11 8 21.5l8 16.5t3 8t-2 2q-12 0 -37 -33l-4 -9q0 -1 -2 -5l-5 -15q-7 -18 -22 -18q-6 0 -6 6l1 2v3l27 76q1 2 3 7q8 12 22 12h2q5 -1 5 -3q0 -1 -2 -5l-8 -22
q27 27 48 27q10 0 10 -9t-5 -16q-17 -39 -20 -51q-3 -9 3 -9q7 0 29 26q3 3 6 3q4 0 4 -4zM255 456q-3 -11 -13 -17q-12 -5 -51 3q-23 -49 -29 -68h39q5 0 5 -2v-2q-2 -9 -10 -9h-38q-13 -41 -18 -79q-2 -28 6 -36q3 -3 -5 -6q-11 -1 -16.5 12.5t-5.5 25.5q-1 24 13 83h-9
h-6q-5 0 0 8q3 5 11 5h7q10 34 28 72l1 2l-16 4q-60 11 -81 -16q-15 -18 -6 -39t33 -15q13 3 17 16.5t-2 19.5q-1 2 2 2q13 4 22 -7q7 -8 0 -22q-13 -24 -45 -22q-42 4 -44 36q-2 33 32 55q27 18 63 15q10 -1 35 -5t34.5 -4t26.5 6q8 6 4 12h1q18 -9 15 -28zM286 294
q0 -2 -3 -7l-1 -1l-1 -1q-28 -34 -50 -34q-18 0 -18 19v7q-21 -26 -37 -26q-1 0 -3 0.5t-3 0.5q-12 3 -12 18q0 7 3 13q5 20 19 55q2 6 3 8q6 11 22 11h2q4 0 4 -3l-1 -2v-2v-1l-10 -26q-12 -34 -15 -44q-2 -6 -2 -7q0 -5 3 -5q5 0 17 13t21 29q8 23 11 29q2 6 3 8
q6 11 21 11h2q5 0 5 -3q0 -1 -2 -5l-10 -26q-12 -34 -15 -44q0 -2 -0.5 -4t-0.5 -3q0 -5 3 -5q11 0 35 28q3 3 6 3q4 0 4 -4zM371 457q0 -1 -0.5 -1t-0.5 -1q-39 -35 -67 -131q-6 -20 -9 -31q-7 -23 6 -23q7 0 28 24q3 3 6 3q4 0 4 -4q0 -2 -5 -9q-29 -34 -40 -34
q-13 0 -19 9.5t-5 22.5q2 36 32.5 112t50.5 76q4 0 14 -7q5 -3 5 -6zM423 457q0 -1 -1 -2q-39 -37 -67 -131q-6 -20 -8 -31q-7 -23 5 -23q8 0 29 24q3 3 6 3q4 0 4 -4q0 -3 -6 -9q-2 -3 -6 -7.5t-6 -6.5t-5 -5.5t-5 -5.5t-4.5 -4t-4.5 -3t-4.5 -1.5t-4.5 -0.5q-25 0 -23 32
q2 36 32 112t50 76q5 0 14 -7q5 -3 5 -6zM705 469q7 -8 -2 -14q-25 -16 -51 -58.5t-38 -69.5t-34 -81q-3 -7 -12 -8.5t-16.5 3t-5.5 12.5q35 158 3 197q-6 6 -9 7q-23 7 -38 -14t-12 -46q1 -16 10 -24t18.5 -4.5t12.5 17.5q1 6 8 -6q14 -25 -8 -34q-18 -7 -37 3.5t-21 40.5
t15.5 57t45.5 30q19 2 31.5 -9t16.5 -27.5t5.5 -35.5t-0.5 -33q-3 -44 -12 -99q42 133 91 190q16 19 28 14q6 -3 11 -8zM726 294q0 -4 -4 -9q-28 -35 -65 -35q-17 0 -28 11t-11 27q0 26 19 47t45 21q17 0 23 -11q3 -4 3 -12q0 -7 -3 -15q-15 -38 -55 -41q5 -9 18 -9
q26 0 48 26q3 3 6 3q4 0 4 -3zM643 294q0 -4 1 -6l1 1q27 4 34 19q4 8 4 20q0 15 -9 15q-4 0 -6 -1q-9 -5 -17 -20t-8 -28zM728 324q-13 16 -3 29t29 11q8 -1 10.5 -7t-4.5 -19q6 -1 19 3.5t16 4.5q6 -1 6 -7.5t-4 -10.5q-10 -11 -22 -31t-8 -27q2 -4 13 3.5t19 17.5
q4 6 8 6t4 -2q6 -4 -1 -7q-16 -20 -17 -20q-15 -18 -28 -18q-37 0 -14 42q9 18 21 28q-14 -4 -23 -4l-10 -10q-3 -4 -10 -12l-7 -9q-5 -6 -10 -3q-4 2 1 8l21 29q-2 1 -6 5zM741 356q-4 -1 -2 -7t8 -10q4 7 3 11t-3.5 5.5t-5.5 0.5zM871 281q-2 -33 -47 -30q-23 1 -18 19
q4 17 20 21q4 1 7 1q11 0 8 -16q-2 -5 -4 -5q-5 2 -13 -1q-9 -6 -3 -10q4 -3 12 0q26 9 2 52l-1 2q-4 -4 -12.5 -15.5t-10.5 -13.5q-5 -5 -8.5 -1.5t0.5 8.5l25 32q-11 14 1 29t28 14q15 -2 12 -15.5t-15 -22.5q18 -31 17 -48zM857 354q1 8 -6 3q-11 -6 -2 -16q6 4 8 13z
M897 250q-19 0 -19 19q0 5 2 13q6 20 20 55q2 6 3 8q6 11 22 11h2q4 0 4 -3q0 -1 -2 -5l-10 -26q-7 -20 -14 -44q-2 -6 -2 -7q0 -5 4 -5q10 0 34 28q3 3 6 3q4 0 4 -4q0 -3 -5 -9q-28 -34 -49 -34zM910 381q0 7 6.5 13t14.5 6q14 0 14 -13q0 -7 -6.5 -13t-14.5 -6
q-14 0 -14 13zM1055 295q0 -5 -5 -10q-14 -18 -29 -18q-5 0 -11 2q-21 -19 -42 -19q-15 0 -23.5 10.5t-8.5 26.5q0 25 19 47.5t43 22.5h3q18 0 18 -10q0 -9 -11 -9h-2h-2q-1 1 -2 1q-11 0 -21 -7q-19 -13 -21 -34v-5q0 -11 6 -19t14 -8q11 0 18 9q-12 11 -12 25t10.5 24.5
t20.5 10.5q14 0 14 -18q0 -19 -10 -34q11 -3 24 13q3 3 6 3q4 0 4 -4zM1011 307q0 8 -4 8q-6 0 -6 -10q0 -5 6 -16q4 11 4 18zM1156 293q0 -4 -5 -9q-29 -34 -45 -34q-18 0 -18 19q0 5 2 13q3 11 8 21.5l8 16.5t3 8t-2 2q-5 0 -16.5 -10t-20.5 -22l-4 -9q0 -3 -2 -5l-5 -16
q-7 -18 -22 -18q-6 0 -6 6l1 2v3l27 76l4 8q6 11 21 11h2q5 0 5 -3q0 -1 -2 -5l-8 -22q27 27 48 27q10 0 10 -9q0 -7 -5 -16q-15 -32 -20 -50q-3 -10 3 -10q7 0 29 26q3 3 6 3q4 0 4 -4zM336 181q-6 -3 -4 -11t6 -13t10 -13.5t9 -13.5q8 -13 -0.5 -24.5t-24.5 -12.5
q-15 -2 -24 6q-6 6 -6 14q0 13 7 21q7 7 13 7q9 1 13 -8t-2 -14q-3 -3 -6 -3q-4 -1 -7.5 1t-2.5 6q0 2 2 0q10 -5 12 4q1 3 -1.5 5t-7.5 1q-7 -1 -10.5 -10.5t1.5 -17.5t17 -8q24 0 19 22q-1 7 -20 31q-14 16 -6 28q5 9 18 9q13 1 19.5 -6.5t4.5 -15.5q-1 -9 -10.5 -11.5
t-13.5 4.5v3q2 -1 3 -2q4 -1 9 0q7 4 4 12.5t-11 10.5q-6 2 -10 -1zM406 118q0 -2 -2 -3q-10 -13 -24 -13q-15 0 -15 14q0 10 7 18t17 8q7 0 9 -5q1 -1 1 -4q0 -4 -1 -6q-5 -14 -21 -15q3 -4 7 -4q9 0 18 10q1 1 3 1q1 0 1 -1zM375 118v-2q10 2 13 7q2 6 2 8q0 6 -4 6
q-1 0 -2 -1q-9 -4 -9 -18zM442 118q0 -2 -2 -4q-5 -5 -9 -5q-3 0 -8 5l-1 -1q-10 -11 -16 -11q-2 0 -3 1q-2 3 -2 18q0 10 1 13q2 6 8 6q2 0 2 -2v-2q-3 -9 -3 -16q0 -1 0.5 -5t0.5 -5l1 -1q2 0 10 10q-3 8 -3 13q0 13 10 13q6 0 6 -6v-1v-2q0 -8 -7 -17q4 -4 5 -4q3 0 6 3
l2 2q2 0 2 -2zM427 134v2q-2 2 -3 2q-2 -1 -2 -4q0 -2 1 -6l1 -4q3 5 3 10zM476 118q0 -2 -2 -4q-11 -13 -24 -13q-15 0 -15 15q0 9 7 17t17 8q8 0 9 -4q1 -1 1 -4q0 -4 -1 -6q-5 -15 -21 -16q3 -3 7 -3q9 0 18 10q1 1 3 1q1 0 1 -1zM445 118v-2h1q10 3 12 7t2 8q0 6 -4 6
q-1 -1 -2 -1q-9 -4 -9 -18zM514 117q0 -2 -1 -3q-13 -13 -17 -13q-7 0 -7 7q0 4 1 5q1 4 2.5 8.5t2.5 6.5t1 3q-6 0 -14 -12l-2 -3v-2l-2 -6q-4 -7 -9 -7q-2 0 -2 2t1 2q5 16 10 29q0 2 1 3q3 4 8 4h1q2 0 2 -1q-1 -1 -1 -2l-3 -8q10 10 18 10q4 0 4 -3q0 -2 -2 -6
q-7 -16 -7 -19q-2 -4 0 -4t12 10q1 1 2 1q3 0 1 -2zM530 156h8q10 0 7 -8q-1 -2 -3 0q-2 3 -14 1q-7 -16 -8 -20q-1 -3 -3 -11v-5q0 -5 3 -5t12 10l2 1q2 0 2 -1l-2 -4q-11 -13 -17 -13q-9 0 -9 13q0 4 1 6q3 14 9 29q-11 -2 -14 3q-1 2 -1 5t2 4q1 0 1 -1q1 -3 5 -4
q2 -1 9 -1q11 30 19 30q1 0 6 -3q1 0 1 -2v-1q-6 -5 -16 -23zM577 117q0 -1 -2 -3q-10 -13 -19 -13q-7 0 -7 7q0 4 1 5q4 12 6 16v2q0 1 -1 1q-2 -1 -3 -2q-9 -7 -13 -15l-2 -7q-2 -7 -7 -7q-3 0 -3 3q0 1 1 1q0 3 1 5q22 74 33 74q1 0 5 -2q2 -2 2 -3q-17 -17 -26 -52
q11 14 21 14q4 0 4 -3q0 -2 -2 -6q-1 -2 -2.5 -6t-2.5 -8t-2 -7q0 -1 -0.5 -1t-0.5 -1q0 -2 2 -2q5 0 13 11q1 1 2 1q2 0 2 -2zM654 170q-4 -10 -10 -31t-9 -30q-5 -16 -24 -20h-5v1q15 3 21 25q2 8 7.5 26t7.5 24q-24 -16 -26 -20q-2 -6 1 -9t9 3q2 2 2 0q0 -12 -8 -13
t-11 4.5t0 12.5q2 7 8.5 12t15.5 10t12 7q6 14 11 14q8 0 4 -9q-2 -5 -6 -7zM708 117l-2 -4q-10 -12 -18 -12q-6 0 -6 7v5q1 4 3 8l3 6t1 3v1q-2 0 -8.5 -6.5t-7.5 -11.5l-2 -6q-1 -6 -8 -6q-3 0 -3 2q1 1 1 2l8 24l1 1l-1 1q-2 0 -8 -6.5t-8 -11.5l-2 -6q-1 -6 -8 -6
q-2 0 -2 2v2q1 5 5 14.5t5 14.5l2 2q2 5 8 5h1l1 -1v-2l-4 -9q11 11 17 11q4 0 4 -5q0 -3 -1 -5l-1 -3q11 13 19 13q4 0 4 -4l-2 -6q0 -1 -3.5 -8t-4.5 -11v-3q0 -1 1 -1q3 0 12 10l2 1q2 0 2 -1zM717 134q6 6 12 6q10 0 10 -12q0 -8 -5 -16q7 0 9 6q1 0 1 0.5t1 0.5
q3 0 1 -5q-6 -8 -16 -6q-4 -7 -14 -7q-8 0 -8 5q1 9 13 9q2 0 5 -1q3 3 3.5 10.5t-4.5 8.5q-6 0 -13 -11q-14 -37 -9 -59v-1q-1 -1 -3 -1q-5 0 -6 1q-7 5 1 33q14 42 15 44l10 2q-1 -3 -3 -7zM722 108q-7 1 -7 -3q4 -2 7 3zM781 117q0 -2 -1 -3q-11 -13 -25 -13t-14 14
q0 10 7 18t17 8q6 0 9 -5v-2l1 -2q0 -2 -2 -6q-5 -13 -21 -16q3 -3 8 -3q9 0 18 10q0 1 2 1q1 0 1 -1zM750 117v-2h1q10 2 12 7q2 3 2 8q0 6 -3 6h-1q-1 -1 -2 -1q-9 -5 -9 -18zM782 128q-5 6 -1 11.5t11 4.5q9 -2 2 -10q2 -1 7 0.5t6 1.5q7 0 1 -6q-13 -18 -11 -22
q0 -1 2.5 0t5 3.5l4.5 4.5t3 2t2 -1q2 -2 -1 -2q-4 -6 -6 -8q-7 -7 -11 -7q-17 0 -3 20q3 4 6 7q-6 -2 -9 -2l-4 -4q-5 -5 -6 -7q-2 -2 -4 -1.5t0 3.5l9 10q-1 0 -1 1zM787 140q-2 -1 2 -6q3 6 -2 6zM814 100q-7 0 -7 8q0 3 1 4q1 4 2 7.5t2.5 7.5t2.5 6q0 2 1 3q3 4 8 4h1
q2 0 2 -1q-1 -1 -1 -2l-4 -10q-4 -9 -5 -16q-1 -1 -1 -3l1 -2q3 0 14 11q0 1 2 1q1 0 1 -1q0 -2 -2 -4q-11 -13 -18 -13zM819 150q0 7 8 7q5 0 5 -5q0 -7 -8 -7q-5 0 -5 5zM877 117q0 -2 -1 -3h-1v-1q-11 -12 -19 -12q-7 0 -7 7v2q-7 -9 -14 -9h-2q-5 2 -4 7v5q1 2 2 5
t2 5.5t2 5.5t2 4q0 2 1 3q3 5 8 5h1l2 -1l-1 -1v-1l-4 -10q-3 -8 -5 -17q-1 -1 -1 -3q0 -1 1 -1q6 0 14 16q2 4 4 10q1 2 2 3q2 5 8 5h1q1 -1 1 -2v-1l-4 -10q-1 -2 -3 -8l-3 -9v-3q0 -1 1 -1q4 0 13 10l2 1q2 0 2 -1zM935 116q0 -1 -2 -3q-10 -13 -18 -13q-6 0 -6 7v1v4
q1 4 3 8.5t3 6.5t1 3q-2 0 -8.5 -6t-7.5 -11l-2 -6q-2 -7 -8 -7q-3 0 -3 2l1 1v1l8 25q1 0 1 1h-1q-2 0 -8 -6t-8 -11l-2 -6q-2 -7 -8 -7q-2 0 -2 2v2q2 5 5 14.5t5 14.5q0 1 1 1l1 2q1 4 8 4h1q1 0 1 -1v-2l-4 -9q9 11 17 11q4 0 4 -4q0 -3 -1 -5l-1 -3q10 12 19 12
q4 0 4 -3q0 -1 -2 -7q0 -1 -3.5 -8t-4.5 -11v-2q0 -1 1 -1q5 0 12 10l2 1q2 0 2 -2z" />
    <glyph glyph-name=".null" horiz-adv-x="0" 
 />
    <glyph glyph-name="nonmarkingreturn" horiz-adv-x="333" 
 />
    <glyph glyph-name="space" unicode=" " horiz-adv-x="304" 
 />
    <glyph glyph-name="A" unicode="A" horiz-adv-x="705" 
d="M811 695q19 -13 21.5 -23t-6.5 -32q-118 -307 -148 -522q-8 -30 -7.5 -79t21.5 -70q5 -6 -1.5 -11t-13.5 -5q-39 -2 -58 35t-22 82q-1 40 8 95q9 61 24 125h-102q-1 -2 -3.5 -6t-3.5 -6q-64 -104 -138.5 -192.5t-134.5 -113.5q-31 -13 -66 -14.5t-67 9t-56 36.5t-31 63
q-18 90 49 165t162 88q88 13 120 -44q25 -45 -1 -93q-28 -53 -93 -51h-6q-42 11 -42 63q0 13 4 16q1 0 4 -3q11 -13 29 -15t40 11q35 24 19.5 54.5t-60.5 30.5q-47 0 -94 -42q-29 -26 -47 -58.5t-16.5 -70.5t29.5 -67q25 -26 57 -28t65 19t64.5 49t63 68.5l53 70.5t40.5 61
h-47q-16 0 -7 16l4 8q7 16 24 16h51q69 114 88 143q171 262 231 222zM639 330q39 159 85 266q-44 -45 -93 -127q-17 -27 -47 -79.5l-34 -59.5h89z" />
    <glyph glyph-name="B" unicode="B" horiz-adv-x="497" 
d="M472 662q42 -36 50.5 -89t-11 -104.5t-51 -97t-67.5 -75.5q70 -22 88.5 -78t-19.5 -116q-29 -49 -85.5 -86t-114.5 -51q-32 -9 -80 -9t-78 13q-45 19 -63 51t-2 68q28 61 108 77q32 212 104 386q1 4 3 9.5t3 7t2.5 4t4 3.5t5.5 2.5t10 4.5q30 13 52 13q12 1 14.5 -2.5
t-0.5 -14.5q-3 -10 -9 -23q-44 -113 -82 -237q27 7 73 -2q59 47 87.5 105.5t25.5 107.5t-29 86.5t-69 46.5q-49 11 -108 -18t-86 -77q-24 -43 -8 -70q14 -25 46 1q5 4 10 9q10 10 9 9q2 1 3 -4v-2q4 -57 -39 -74q-59 -24 -89 19t1 102q77 145 275 143q71 0 116 -38zM196 -1
q95 7 159 76q57 60 45 118q-9 44 -59 66q-63 -41 -113 -28q-14 -51 -17 -64l2 -1q33 -7 55.5 -25t24.5 -41q1 -28 -20 -42t-49 -11q-7 1 -12.5 5t-6 8.5t5.5 8.5q13 6 18 20q6 17 -1.5 30t-23.5 19q-2 -10 -4 -17q-5 -23 -9 -26q-28 -12 -39 -12q-6 0 -10 4q-6 6 -2 31
q0 1 0.5 5t0.5 6q-5 -4 -13 -12q-22 -24 -26 -52.5t19.5 -49t74.5 -16.5z" />
    <glyph glyph-name="C" unicode="C" horiz-adv-x="425" 
d="M451 121q7 7 15 7h10q8 0 10 -2q3 -3 -4.5 -16.5t-20.5 -27.5q-72 -79 -143 -110t-151 -11q-61 16 -98.5 78t-37.5 132q-1 138 70 281.5t193 213.5q58 34 103 34q99 0 119 -94q19 -87 -31 -196q-48 -102 -117 -136q-23 -12 -45 -13q-59 -4 -97 49q-17 25 -11 28q1 0 3 -1
q30 -19 69.5 -11.5t65.5 33.5q83 82 101 185q15 81 -22 110q-14 10 -32 10q-83 -1 -167 -122q-82 -121 -109 -267q-28 -160 38 -223q36 -35 98 -32q48 2 86 18.5t56 32.5t49 50z" />
    <glyph glyph-name="D" unicode="D" horiz-adv-x="527" 
d="M382 699q147 -6 195 -133q43 -115 -8 -273q-51 -156 -161 -250q-96 -83 -206 -84q-68 -1 -107 17.5t-43 48t10.5 61.5t50 60t78.5 41q33 199 101 367q1 4 3 9.5t3 7t2.5 4t4 3.5t5.5 2.5t10 4.5q32 13 53 13q11 1 14 -2.5t0 -14.5q-1 -3 -3 -8.5t-4 -9t-2 -5.5
q-77 -198 -119 -362q8 0 20 -2q39 -5 60 -22.5t23 -41.5q4 -36 -23.5 -49.5t-59.5 -1.5q-6 2 -8 5t3 5q14 5 19.5 21t-5.5 31.5t-38 18.5q-1 -4 -3.5 -17t-4.5 -19q-5 -23 -10 -26q-28 -12 -38 -12q-6 0 -10 4q-6 6 -3 31q1 5 2.5 14.5t2.5 14.5q-46 -16 -64 -48
q-24 -42 7.5 -72t82.5 -28q114 6 201 139q79 121 93 269q15 149 -51 213q-61 59 -173 19q-63 -22 -115.5 -70.5t-65.5 -104.5q-13 -59 12 -82.5t75 24.5q2 1 5 5q5 7 7 1v-3q3 -40 -13 -70.5t-53 -38.5q-31 -6 -59 10t-36 46q-11 45 9 106t67 112q47 52 121 88.5t146 33.5z
" />
    <glyph glyph-name="E" unicode="E" horiz-adv-x="436" 
d="M411 699q48 -5 74.5 -36.5t28 -76.5t-10.5 -96q-30 -109 -82 -143q-55 -36 -136 6q-18 10 -4 10h4q30 -3 62.5 22t56 65t39 82.5t13.5 78t-24 46.5q-27 15 -97.5 -32.5t-124.5 -112.5q-23 -28 -38.5 -65t-17 -72t19.5 -56q14 -14 24 -11q86 29 129 1q38 -24 16 -51
q-22 -29 -77 -26q-31 2 -62 17q-60 -39 -83.5 -94.5t5 -100.5t106.5 -51q73 -5 102 48.5t4 93.5q-15 23 -42 25.5t-47.5 -13.5t-19.5 -41q2 -13 12 -20q12 -7 -5 -17q-6 -4 -13 -5q-29 -3 -46.5 11t-8.5 43q8 23 35 41.5t62 25.5q69 13 122 -28.5t21 -108.5q-12 -27 -37 -50
t-56 -35q-38 -12 -76.5 -12.5t-71 8t-59 25.5t-44 40t-22.5 52t3 59.5t34.5 65t70.5 66.5l-8 6q-8 6 -21.5 19t-21.5 29q-27 50 -3 120q32 97 131.5 177t183.5 71z" />
    <glyph glyph-name="F" unicode="F" horiz-adv-x="371" 
d="M648 724q23 -12 36 -37t8 -49q-10 -38 -40 -52q-35 -16 -158 9l-25 -55l-23.5 -51.5t-20 -47t-21.5 -58.5q24 0 59.5 -0.5t63.5 -0.5h5h5t3.5 -1t1.5 -3t0 -6q-2 -11 -11 -20.5t-20 -9.5q-28 0 -62 0.5t-58 0.5q-43 -143 -54 -245q-11 -82 18 -113q5 -5 -1 -10t-14 -6
q-33 -3 -50.5 37t-18.5 80q-3 82 40 257h-27h-18q-5 0 -7.5 1t-1.5 6.5t8 17.5q9 15 34 15h23q28 100 87 223l3 8q-34 9 -50 11q-38 8 -68 10.5t-66 0.5t-66.5 -17t-51.5 -43q-22 -28 -26 -61.5t7 -60t38.5 -40.5t64.5 -5q27 7 42 30t14 44.5t-9 35.5q-4 6 7 8q29 6 56 -12
q36 -25 10 -79q-18 -37 -56.5 -53.5t-82.5 -13.5q-106 8 -132 81q-22 65 27 137q58 83 165 106q48 10 99 5q28 -3 78.5 -11.5l85 -14t72.5 -3.5t60 17q28 19 13 37q-2 2 1 2q2 0 4 -1z" />
    <glyph glyph-name="G" unicode="G" horiz-adv-x="454" 
d="M347 359q83 82 101 185q15 81 -22 110q-14 10 -32 10q-42 0 -88 -36.5t-82.5 -92t-63 -123.5t-35.5 -132t6 -118t56 -79q19 -12 38.5 -12t37 10t33 25t29.5 36t24.5 38.5t19.5 37.5l8 26q6 18 9 21t19 10q33 12 53 13q11 1 14 -2.5t0 -14.5q-12 -41 -36 -115l-33 -103
q-15 -49 -26.5 -80t-29 -66.5t-37 -58.5t-48 -44t-65.5 -35q-96 -34 -173 -4q-45 18 -62 49t-7 62.5t41.5 61t76.5 44.5q66 22 122.5 -2.5t45.5 -69.5q-15 -59 -88 -45q-37 7 -49 20q-4 4 4 4h3q3 0 9 0.5t8 0.5q21 1 30 22q10 25 -16 33q-12 4 -31 1q-59 -7 -85 -58
q-23 -44 0 -76q33 -44 125 -10q18 7 34 15.5t29.5 22.5l23.5 24t20 30.5t15.5 30t14.5 36t11.5 34.5t11.5 39t11 37q-78 -85 -161 -63q-57 15 -90.5 76.5t-33.5 129.5q0 136 63.5 258.5t187.5 193.5q60 34 103 34q99 0 119 -94q19 -87 -32 -197q-48 -102 -118 -136
q-21 -11 -43 -12q-58 -4 -97 49q-17 25 -11 27q1 1 3 -1q29 -20 69 -11.5t66 34.5z" />
    <glyph glyph-name="H" unicode="H" horiz-adv-x="658" 
d="M810 674q5 0 6 -1t0 -6l-4 -10q-87 -197 -128 -323h14q15 0 8 -16l-4 -8q-9 -16 -25 -16h-6q-38 -124 -47 -209t19 -112q5 -6 -1.5 -10.5t-14.5 -5.5q-33 -4 -50.5 36.5t-18.5 80.5q-3 87 31 220h-160q-6 -20 -8 -29q-5 -15 -14 -53t-16 -58q-64 -198 -225 -193
q-46 2 -71 13q-45 18 -63 50t-1 68q20 45 72 66.5t102 12.5q33 -7 55.5 -25.5t23.5 -41.5q2 -28 -19 -41.5t-49 -10.5q-17 1 -19 11q-2 6 5 10q13 6 18 20q8 24 -8 40t-44 13.5t-49 -25.5q-22 -23 -26 -51.5t19.5 -49.5t74.5 -17q97 7 123 105l43 186h-30q-15 0 -8 16l4 8
q9 16 25 16h19q27 109 66 199q-93 -20 -112 -28q-27 -11 -40.5 -35t0.5 -43q9 -13 24 -18t29 3q8 4 13 12q2 4 4 -2q1 -4 0 -10q-6 -31 -33 -45.5t-57 -7.5t-44 31q-10 22 -8 46.5t13 44.5q9 18 25.5 32t29.5 21t40 14t36.5 8.5l40.5 6.5q34 5 56 10l11 24q2 9 13.5 32.5
t16.5 31.5q23 39 58 39q21 0 32.5 -17.5t8 -44.5t-23.5 -49q-13 -14 -39 -28q-42 -103 -82 -227h158q34 117 80 223l12.5 29.5t17.5 38.5t15 26q4 6 13 9q49 15 73 14z" />
    <glyph glyph-name="I" unicode="I" horiz-adv-x="295" 
d="M414 700q30 0 38.5 -25.5t-6.5 -58.5t-45 -51q-34 -81 -84 -256.5t-76 -246.5q-24 -66 -76.5 -106t-120.5 -52q-29 -5 -34 0l-1 8q36 7 64.5 27.5t48.5 52t32 59t23 62.5q24 72 65.5 221t58.5 192q-19 -13 -75 -47.5t-89.5 -62t-46.5 -55.5q-23 -51 5.5 -73.5t77.5 25.5
l9 9q2 0 2 -6q3 -41 -13 -71.5t-53 -37.5q-61 -13 -84.5 34t-4.5 105q18 52 70 95.5t124.5 84t97.5 61.5q2 4 8 18.5t9.5 22l10 20.5t13 20.5t14.5 15.5t17.5 12t20.5 4z" />
    <glyph glyph-name="J" unicode="J" 
d="M453 701q30 0 39 -25.5t-6 -58.5t-45 -51q-18 -42 -44.5 -132t-49.5 -176t-60 -182.5t-76.5 -167t-98 -114t-125.5 -37.5q-38 4 -58 24q-30 34 -25 76t33 81.5t66 62.5q32 16 64.5 17.5t51 -21t3.5 -59.5q-9 -22 -32 -35t-38 -12t-19 2q0 1 3 3.5t7 7t6 9.5q15 34 -13 35
q-30 2 -64 -31q-8 -9 -15 -19q-30 -44 -11 -74q21 -34 79 -9q23 10 49 29q57 43 108.5 176t96 299.5t61.5 207.5q-19 -13 -75 -47.5t-89.5 -62t-46.5 -55.5q-22 -51 6.5 -73.5t76.5 25.5q9 9 10 9q2 0 2 -6q2 -41 -14 -71.5t-53 -37.5q-61 -13 -84.5 34t-4.5 105
q18 53 70 95.5t125 84t98 61.5l7 18l10 22.5t9.5 20t13 21t14 15t18 13t20.5 3.5z" />
    <glyph glyph-name="K" unicode="K" horiz-adv-x="631" 
d="M650 -23q7 -2 -7 -7q-41 -16 -81 -3q-41 14 -47 61q-3 22 6 67.5t19 84.5t11.5 79.5t-16.5 52.5q-20 16 -45 9q-39 -73 -76 -72q-22 -86 -25 -96q-64 -197 -225 -193q-43 2 -71 13q-45 18 -63 50.5t-1 68.5q20 44 72.5 66t101.5 12q32 -7 55 -25t24 -41q1 -28 -20 -42
t-49 -11q-7 1 -12.5 5t-6 8t5.5 8q13 6 18 20q8 24 -8 40t-44 13.5t-49 -24.5q-22 -24 -26 -52.5t19.5 -49t74.5 -16.5q97 7 123 105q11 43 26.5 111.5l25 107.5t27 95.5t40.5 109.5q-93 -20 -112 -28q-27 -11 -40.5 -35t0.5 -43q9 -12 24 -17t29 2q10 8 12 12q4 5 5 -3
q1 -4 0 -9q-6 -31 -33 -45.5t-57 -7.5t-44 31q-10 22 -8 46.5t13 44.5q24 48 113 73q18 5 38.5 9l44 8.5l34.5 6.5q3 7 11 28t14 34t16.5 28.5t24.5 23.5t31 9q34 1 34 -42q-1 -46 -34 -81q-10 -11 -22 -17q-38 -94 -73 -200q9 6 22 10q37 70 96.5 141.5t116.5 102.5
q31 18 59.5 5.5t38.5 -52.5q1 -4 -0.5 -5t-5.5 0q-53 6 -133.5 -63t-129.5 -139q40 9 71.5 -9t39.5 -57q8 -36 0.5 -75t-16 -79t-13.5 -72.5t8 -57.5t48 -33z" />
    <glyph glyph-name="L" unicode="L" horiz-adv-x="316" 
d="M564 -40q20 -16 28 -42t-2 -51q-15 -35 -48 -43q-19 -5 -60.5 6t-76.5 25.5l-82.5 35.5t-58.5 25q-47 20 -92 30q-104 -70 -161 -48q-34 13 -29 47q6 38 53.5 57t117.5 4q21 36 46 106q24 72 65 221.5t58 192.5q-19 -13 -75 -47.5t-89.5 -62t-46.5 -55.5q-23 -50 6 -73.5
t77 24.5q9 11 10.5 10t1.5 -6q2 -41 -14 -71.5t-53 -38.5q-61 -12 -84.5 35t-4.5 104q18 53 70 96t125 84.5t98 61.5l7 18l10 22.5t9.5 20t13 21t14 15t18 13t20.5 3.5q30 0 39 -25.5t-6 -58.5t-45 -51q-35 -82 -85 -257.5t-75 -245.5q-13 -35 -35 -63l22 -6q24 -7 61 -20.5
l63 -23.5t61.5 -20.5t56.5 -10t47 7.5q30 13 20 34q-2 3 3 1q1 0 2 -1zM34 -64q2 -5 13 -6t28 4.5t34 16.5h-1q-80 6 -74 -15z" />
    <glyph glyph-name="M" unicode="M" horiz-adv-x="819" 
d="M35 46q-29 87 28 170t149 108q87 24 126 -29q30 -41 11 -92q-22 -55 -84 -62q-4 -1 -9 -1q-44 5 -50 57q-2 12 2 16q2 1 5 -2q12 -11 31.5 -11t36.5 15q32 29 12 58t-65 21.5t-85 -53.5q-26 -29 -39.5 -63.5t-8 -72t37.5 -63.5q24 -19 50.5 -20t52.5 15t50 39t48 57.5
t42.5 64.5t36.5 65q35 66 104 218q12 24 18 35q-3 55 3 93q7 37 36.5 73t56.5 13q15 -9 12.5 -51.5t-27.5 -93.5q0 -1 -9 -20l-15 -366q58 135 283 483q18 30 29 29q47 -2 56 -20q5 -8 -3 -23q-57 -110 -111.5 -273t-67.5 -276q-9 -84 19 -113q2 -2 2 -4.5t-1.5 -4.5
t-4.5 -3l-6 -2t-5 -1q-23 -3 -39.5 19.5t-22.5 47.5t-8 50q-3 52 16 147.5t46 182.5q-143 -251 -187 -348q-1 -23 -2 -34t-5 -29.5t-15.5 -27t-29.5 -8.5q-32 1 -33.5 39.5t14.5 56.5l12 329q-24 -44 -34 -69q-51 -110 -112 -204.5t-116 -126.5q-40 -23 -86.5 -26t-87.5 20
t-57 71z" />
    <glyph glyph-name="N" unicode="N" horiz-adv-x="730" 
d="M497 313q-49 -108 -111 -203t-117 -127q-39 -23 -85.5 -26t-88 20t-57.5 71q-29 86 28 169t150 109q87 24 125 -30q30 -41 11 -91q-21 -54 -82 -62q-6 -1 -11 -1q-43 5 -49 56q-2 13 2 17l4 -2q13 -11 31 -11t38 15q32 29 12 58q-21 29 -66 21q-45 -7 -85 -53
q-26 -30 -39.5 -64.5t-7.5 -71.5t38 -63q24 -19 50.5 -20.5t52.5 14.5t50 39t48 57.5t42.5 64.5t36.5 65q32 62 104 219l15 30q-13 133 67 180q6 4 17 7q8 2 14 -3q16 -9 13 -52t-27 -94l-12 -24q20 -169 60 -306q52 191 142 386q2 5 7.5 17t8 17t8 13t9.5 11.5t10.5 6
t13.5 1.5q30 -3 49.5 -15t4.5 -34q-58 -84 -130 -240t-96 -283l3 -7q3 -8 6.5 -20t6 -25.5t2 -29t-4.5 -27.5q-14 -36 -46.5 -36t-40.5 36q-6 34 13 99q-52 185 -82 330q-41 -77 -55 -108z" />
    <glyph glyph-name="O" unicode="O" horiz-adv-x="723" 
d="M715 675q9 -5 16 -13q54 -52 59 -158.5t-36 -216.5q-20 -57 -50.5 -111.5t-73.5 -106.5t-100.5 -82.5t-119.5 -29.5q-96 2 -142.5 67.5t-43 160t44.5 198.5q-133 -40 -172 -126q-25 -55 -5 -83.5t79 9.5l11 7q2 -1 1 -7q-6 -41 -27.5 -67.5t-59.5 -26.5q-32 0 -56 21
t-25 53q-3 54 20 99t66 76t87.5 51.5t99.5 36.5q58 118 147.5 195.5t192.5 78.5q32 0 57 -9q18 -6 30 -16zM520 618q-81 -47 -141 -170q346 77 284 153l-5 5q-14 14 -37 22q-55 17 -101 -10zM678 297q36 119 26 206q-42 -35 -114 -55q-31 -9 -67.5 -16t-89.5 -15.5
t-73 -12.5q-58 -146 -45 -268q12 -115 85 -126q40 -7 95 22q61 32 110 111t73 154z" />
    <glyph glyph-name="P" unicode="P" horiz-adv-x="580" 
d="M707 585q34 -61 21.5 -127.5t-49 -122t-97.5 -91.5t-125 -36q-34 0 -68 12q-17 -68 -22 -81q-64 -197 -225 -192q-41 0 -71 12q-45 19 -63 51t-1 68q20 45 72.5 66.5t101.5 11.5q32 -6 55 -24.5t24 -41.5q1 -28 -19.5 -41.5t-48.5 -11.5q-17 2 -20 13q-1 5 6 9
q13 6 18 20q8 24 -8 40t-44 13.5t-49 -25.5q-22 -23 -26 -51.5t19.5 -49.5t74.5 -17q97 7 123 105l46 198q26 120 79 250q1 3 3 8t2.5 6l2 4t2.5 3.5t4 2.5t5.5 3t8.5 3q28 12 52 14q12 0 14.5 -3t-0.5 -14q-1 -3 -9 -24q-62 -158 -99 -294q-1 -1 -1 -2.5t-1 -2.5
q96 -12 168 49q44 38 65 94t16 109t-39.5 97.5t-92.5 61.5q-113 31 -205 -25.5t-117 -132.5q-22 -67 6.5 -115.5t96.5 -38.5q18 2 23 8v-14q-6 -35 -41 -48q-45 -15 -82 -0.5t-57 48.5q-22 41 -12 103q16 85 79.5 148.5t148.5 91t170 15.5q136 -18 185 -112z" />
    <glyph glyph-name="Q" unicode="Q" horiz-adv-x="539" 
d="M348 -6q24 -7 59.5 -21l61 -24.5t59.5 -21t54.5 -10.5t46.5 7q27 12 23 37q-1 1 1 1q4 1 8 -1q12 -9 19 -22q23 -37 8 -71t-49 -43q-19 -5 -60 6t-76 25t-83 35.5t-58 25.5q-62 23 -92 30q-104 -70 -161 -48q-34 13 -29 47q6 38 53 57q48 19 117 4l28 -3q150 87 214 293
q38 108 25.5 208t-82.5 123q-52 19 -100 -9q-58 -34 -112.5 -122.5t-82.5 -191.5q-9 -33 -15.5 -72.5t-2.5 -92t29 -67.5q43 -26 95 29q47 51 55 115q9 73 -51 87q-8 2 -17 3q3 40 40 46q41 7 72 -26q48 -50 10 -134q-20 -42 -61 -87t-88.5 -64.5t-87.5 -11t-63.5 56.5
t-17.5 129q5 71 40 155t88.5 157t128 122t149.5 50q60 1 99.5 -35t53 -95.5t6.5 -133t-33 -149.5q-40 -111 -107 -191q-36 -41 -69 -69q-9 -8 -17.5 -14l-13.5 -9.5t-8.5 -5.5t-5 -3t-0.5 -1zM206 -48q-5 1 -13.5 1h-26t-27.5 -4t-7 -12q2 -6 13 -6.5t27.5 5t33.5 16.5z" />
    <glyph glyph-name="R" unicode="R" horiz-adv-x="534" 
d="M619 585q33 -67 20.5 -136t-59 -128.5t-110.5 -89.5q30 -36 40 -105q3 -18 6 -49.5t5 -49.5t8 -41.5t15 -35.5t25.5 -19.5t39.5 -5.5q9 1 -8 -12q-43 -31 -85 -24q-34 5 -51 40q-20 41 -26 161q-6 77 -46 117q-49 -23 -84 -17q-25 -84 -46 -141q-24 -66 -76.5 -106.5
t-120.5 -51.5q-30 -5 -34 -1l-1 8q36 7 64.5 28t48.5 52.5t31.5 58t23.5 62.5q15 46 59.5 203t78.5 240q1 3 3 8t2.5 6l2 4t2.5 3.5t4 2.5t5.5 3t8.5 3q28 12 52 14q12 0 14.5 -3t-0.5 -14q-1 -3 -9 -24q-45 -118 -89 -270q2 1 5 1q54 2 86 -11q32 12 52 30q59 51 76.5 128
t-16.5 144.5t-111 89.5q-113 31 -205 -25.5t-117 -132.5q-23 -67 6 -115.5t96 -38.5q18 2 23 8l1 -10q-3 -37 -41 -52q-46 -15 -83 -0.5t-56 48.5q-24 43 -12 103q15 85 79 148.5t149 91t169 15.5q135 -17 185 -112z" />
    <glyph glyph-name="S" unicode="S" horiz-adv-x="517" 
d="M377 662q-56 11 -84 -15q-32 -30 -33.5 -68.5t24 -82t56.5 -83.5l71 -91.5t60 -87.5q40 -79 22 -145.5t-81 -111.5t-145 -52q-129 -12 -199 55q-49 46 -52 114q-5 97 58 171q45 53 108 56q37 2 66.5 -18t41.5 -49.5t8 -62t-27 -52.5q-21 -18 -52 -25q-33 -8 -59.5 7.5
t-19.5 49.5q2 11 11 5q3 -2 5 -3q25 -16 60.5 -6t41.5 42q5 24 -15 38.5t-61 6.5q-36 -8 -61.5 -41.5t-29.5 -76.5t7 -84.5t50.5 -68.5t99.5 -25q89 3 130.5 49.5t26.5 134.5q-4 25 -15 51t-31.5 54.5l-34.5 46.5t-43.5 52.5l-40.5 47.5q-116 138 -53 233q46 68 150 73
q100 3 154.5 -55t43.5 -129q-7 -49 -46 -76t-83 -21t-67 42q-11 17 -4 21q1 1 4.5 -0.5t10.5 -5.5t13 -6q36 -16 69 2q38 21 41.5 63.5t-24.5 80t-72 46.5z" />
    <glyph glyph-name="T" unicode="T" horiz-adv-x="365" 
d="M708 711q23 -12 36 -36.5t7 -49.5q-8 -37 -40 -51q-18 -9 -77 -4q-49 5 -153 29q-34 -81 -89.5 -273.5t-80.5 -262.5q-25 -66 -77.5 -106t-119.5 -52q-31 -5 -34 0l-1 8q35 7 64 27.5t48.5 52t31.5 58t24 62.5q23 72 64 221t59 192l21 62q5 12 15 30q-95 23 -145 25
q-121 7 -167 -64q-34 -50 -10.5 -103t84.5 -55h13q29 2 44 28t11 55.5t-24 41.5q-9 5 5 10q18 7 42 -4q35 -15 37 -62.5t-29 -74.5q-31 -28 -77 -34t-89 17q-41 23 -57 60t-8.5 76.5t34.5 77.5q75 109 278 82q18 -2 78 -13t103 -17.5t91 -5.5t70 16q27 19 13 36q-1 2 0 2
q1 1 5 -1z" />
    <glyph glyph-name="U" unicode="U" horiz-adv-x="631" 
d="M334 291q-19 -46 -29 -78q-45 -148 6 -193q39 -34 108 9q63 40 113 127q23 189 118 401q34 79 45 94q5 8 13 9q46 15 72 14q5 0 6 -1t0 -6l-4 -10q-165 -376 -188 -572q-9 -85 19 -112q5 -6 -1.5 -10.5t-14.5 -5.5q-32 -4 -50 36.5t-19 80.5v9q-76 -121 -169 -136
q-34 -5 -61 3q-34 9 -59 39q-71 90 0 286q7 20 34.5 74.5t49.5 104t38.5 101t6 83.5t-51.5 34q-64 3 -119 -41.5t-80 -107t-13 -114.5q8 -34 32 -52t48 -8.5t32 46.5q2 10 14 -8q24 -35 10 -69q-4 -10 -12 -18q-27 -27 -66 -27q-76 -3 -107.5 60t-2.5 152q19 57 56 107
t85 80q36 22 82 30.5t91 -2t69 -41.5q15 -20 16.5 -49.5t-6 -60t-22.5 -68.5t-30.5 -68l-33 -66t-25.5 -56z" />
    <glyph glyph-name="V" unicode="V" horiz-adv-x="453" 
d="M706 704q14 -6 34 -26q13 -17 11 -25t-17 -18q-35 -22 -70.5 -61t-62.5 -74.5t-61.5 -100l-52.5 -99.5t-51.5 -113l-43 -101l-40.5 -101q-9 -22 -37.5 -26t-51.5 10.5t-17 39.5q15 65 26.5 129.5t24 168t3 187.5t-42.5 124q-18 20 -29 23q-47 15 -86 -12.5t-57.5 -76.5
t-12.5 -98q7 -64 50 -85q36 -18 61 12q12 15 17 39q2 12 17 -8q29 -37 21 -74q-5 -29 -38 -42q-19 -8 -41 -9t-45.5 7t-43 24.5t-33 46t-16.5 68.5q-6 94 48 177.5t140 91.5q49 5 84 -16t50.5 -57t24.5 -81.5t7 -89.5t-2 -81q-9 -141 -37 -307q138 418 284 590q50 58 86 44z
" />
    <glyph glyph-name="W" unicode="W" horiz-adv-x="708" 
d="M1005 668q16 -12 9 -26q-6 -9 -17 -15q-36 -24 -67 -57q-50 -51 -97 -120.5t-89 -155t-68.5 -147l-63.5 -153.5q-11 -28 -40 -33t-53.5 13.5t-24.5 50.5q0 68 28 285l-142 -305q-19 -40 -52.5 -45.5t-56.5 15.5t-18 48q50 261 52 388q2 148 -44 203q-17 20 -29 24
q-70 22 -117.5 -43.5t-38.5 -143.5q5 -49 33 -74.5t57 -15t38 54.5q2 12 19 -9q28 -38 19 -75q-7 -27 -38 -40q-23 -12 -52.5 -8t-56.5 16.5t-47 46.5t-23 82q-6 94 48 177.5t140 92.5q49 5 84 -16t50.5 -57.5t24.5 -82t7 -89.5t-2 -81q-9 -156 -38 -311q-3 -18 1 -18
q2 -1 6 8l189 411q0 3 -1 4q-3 36 -3 41q-1 39 25 59t51 15q21 -4 29 -24.5t6 -42t-9 -39.5q-10 -31 -12 -39q-35 -169 -46 -378q0 -14 1 -16q0 -2 2 2q1 3 5 14q3 10 5 16q130 361 278 559q2 3 8 11t9.5 13.5t10 13t11.5 12.5t12 10.5t13.5 7.5t13.5 1.5t14 -3.5
q11 -5 47 -32z" />
    <glyph glyph-name="X" unicode="X" horiz-adv-x="597" 
d="M730 690q0 -11 -12 -24l-289 -336q26 -172 40 -233q10 -47 20 -64.5t27 -15.5q16 1 45 33l54.5 62.5t33.5 29.5q23 -2 5 -29q-1 -1 -10 -13.5t-14.5 -19.5l-17 -21.5l-20 -24.5t-21 -23t-23 -21.5l-21.5 -17t-21.5 -12t-19.5 -3.5q-37 1 -63 26q-22 19 -36 56t-20 69.5
t-21 124.5l-218 -253q-20 -23 -60 -23q-20 0 -20 11q0 8 10 21l274 336q-28 214 -48 268q-19 39 -47 48q-69 22 -116.5 -43.5t-39.5 -143.5q6 -49 33.5 -74.5t56.5 -15t38 54.5q2 12 19 -9q28 -37 20 -74q-7 -28 -39 -41q-22 -12 -51.5 -8t-56.5 16.5t-47 46.5t-23 82
q-6 94 47.5 177.5t139.5 92.5q20 2 36 0q57 -3 94.5 -49.5t46.5 -104.5l20 -123l179 219q20 25 56 42t60 17q20 0 20 -13z" />
    <glyph glyph-name="Y" unicode="Y" horiz-adv-x="609" 
d="M548 25q-34 -105 -75 -163.5t-121 -87.5q-93 -35 -173 -4q-45 18 -62 49t-7 62.5t41.5 61t76.5 44.5q65 22 122 -3t46 -69q-15 -59 -88 -46q-37 7 -49 21q-4 4 4 4h3h17q21 1 30 22q10 24 -14 33q-13 4 -33 2q-60 -8 -85 -59q-23 -46 2 -77q33 -42 123 -9q29 11 53 30.5
t38.5 37.5t29.5 52.5t21 53t19 62.5t18 59l15 45q-32 -37 -68 -59.5t-81 -28.5t-88 21q-103 60 23 312q18 36 30 63t25.5 62t17.5 59.5t3 47.5t-14.5 35.5t-39.5 13.5q-64 3 -118.5 -41.5t-80 -107t-13.5 -114.5q8 -34 32 -52t48.5 -8.5t31.5 46.5q2 10 14 -8q24 -34 10 -69
q-4 -10 -12 -18q-25 -27 -65 -27q-77 -3 -108.5 60t-1.5 152q19 57 55.5 107.5t84.5 79.5q36 22 82 30.5t91 -2t69 -41.5q14 -19 17 -46t-6 -60.5t-20.5 -64t-29.5 -68.5q-38 -80 -65 -157.5t-20 -102.5q15 -52 74 -39q66 15 131 97q15 20 29 43q1 4 5 10l28.5 86.5
l39 115.5t39 101t38.5 77q5 8 13 9q49 15 72 14q5 0 6.5 -1t-0.5 -6l-4 -10l-37 -86.5t-36.5 -94.5l-31 -84.5t-33 -95l-28.5 -85.5l-31.5 -96.5t-28.5 -89.5z" />
    <glyph glyph-name="Z" unicode="Z" horiz-adv-x="428" 
d="M292 703q83 0 139.5 -36t78 -93t16.5 -126t-38 -135q-65 -128 -197 -205q84 -46 84 -147q0 -78 -50.5 -141t-125.5 -63q-38 0 -63.5 22.5t-34 54.5t-5 65t18.5 54q27 37 51.5 42.5t42.5 -9.5t45 -51q3 -5 -2 -12.5t-12 -7.5q-49 -1 -69.5 -22.5t-20.5 -47.5
q0 -21 14 -35.5t35 -14.5q52 0 78 60.5t15.5 130.5t-50.5 96q-51 -24 -76 -16q-7 2 -12.5 7t-7.5 8.5t-5 13t-5 12.5q-2 16 16 22.5t38.5 5t35.5 -5.5q108 64 161 202q47 126 21 226q-23 92 -101 101q-8 1 -16 1q-62 0 -109.5 -40.5t-69.5 -97.5t-22 -117q0 -61 24.5 -100.5
t71.5 -39.5q25 0 45.5 15t28 38t4.5 49t-25 51t-60 40q14 41 63 51t67 -20q25 -41 30 -87.5t-9.5 -85t-52 -64t-90.5 -25.5q-81 0 -124.5 56t-43.5 138q0 51 17.5 100t50.5 90.5t86.5 67t118.5 25.5z" />
    <glyph glyph-name="a" unicode="a" horiz-adv-x="345" 
d="M406 145q11 0 11 -10q0 -13 -16 -29q-42 -51 -82.5 -78.5t-69.5 -27.5q-47 0 -55 41q-36 -41 -83 -41q-37 0 -63.5 28t-26.5 69q0 29 13 70q24 74 81 117.5t111 43.5q46 0 64 -31q30 24 48 24q22 0 22 -17q0 -10 -24 -62q-42 -91 -62 -158q-5 -18 -5 -21q0 -14 11 -14
q31 0 106 88q8 8 20 8zM252 231l3 6q-4 43 -35 43q-38 0 -80.5 -55.5t-42.5 -117.5q0 -25 9.5 -42.5t29.5 -17.5q13 0 30.5 14t31.5 38q7 25 17 49.5t23.5 53t13.5 29.5z" />
    <glyph glyph-name="b" unicode="b" horiz-adv-x="351" 
d="M410 148q12 0 12 -13t-7 -20q-29 -36 -75 -51.5t-83 -3.5q-62 -60 -132 -60q-47 0 -77.5 34t-28.5 101q4 108 49.5 242t100 222t86.5 88q14 0 43 -21q23 -17 13 -26q-65 -60 -131.5 -200t-87.5 -242q-4 -32 -5.5 -66.5t18.5 -60.5t58 -24q32 2 59 30q-64 22 -91 77
t-6.5 107t79.5 67q10 3 20 3q40 0 72 -32t32 -79q0 -67 -35 -118q24 -10 52 2t47 35q7 9 18 9zM248 117q32 79 -2 120q-21 25 -47 15q-29 -13 -19 -60q2 -10 7 -22q11 -27 61 -53z" />
    <glyph glyph-name="c" unicode="c" horiz-adv-x="282" 
d="M340 145q12 0 12 -11q0 -13 -12 -27q-40 -49 -93 -78t-106 -29t-87 32.5t-34 83.5q0 81 57.5 146.5t139.5 65.5q35 0 58.5 -19t23.5 -49q0 -43 -28 -64.5t-60 -21.5q-28 0 -28 12q0 4 3 8q9 11 17 33.5t8 39.5q0 22 -13 22q-39 0 -70 -52t-31 -106q0 -37 21.5 -57.5
t56.5 -20.5q79 0 147 83q8 9 18 9z" />
    <glyph glyph-name="d" unicode="d" horiz-adv-x="343" 
d="M459 685q15 -30 8 -83t-22.5 -104t-41 -113.5t-49 -113.5l-46 -104t-31.5 -83q-4 -14 -4 -21q0 -6 1 -8q1 -1 3 -1q14 0 42.5 21t63.5 63q8 8 18 8q17 0 17 -8q0 -9 -13 -26q-97 -112 -152 -112q-35 0 -49 23q-8 11 -9 25q-38 -43 -85 -43q-37 0 -64 28t-27 69
q0 29 13 70q17 53 54 92.5t75.5 55.5t74.5 12.5t53 -28.5q103 205 85 347q-2 16 19 27.5t41 11.5t25 -5zM240 198q3 7 16 33q-2 57 -39 55q-38 -3 -79 -56q-43 -57 -43 -118q0 -25 10 -42.5t30 -17.5q17 0 40 22.5t37 56.5l1 4q5 14 27 63z" />
    <glyph glyph-name="e" unicode="e" horiz-adv-x="284" 
d="M341 145q11 0 11 -11q0 -12 -13 -27q-40 -49 -93 -78t-106 -29t-87 32.5t-34 83.5q0 81 57.5 146.5t139.5 65.5q52 0 73 -36q9 -13 9 -35q0 -23 -10 -48q-22 -54 -66 -87.5t-106 -40.5q18 -28 58 -28q80 0 149 83q6 9 18 9zM173 283q-29 -15 -53.5 -61.5t-24.5 -86.5
q0 -6 2 -18q1 0 2.5 0.5t2.5 0.5l31 7.5t26.5 9.5t27.5 17.5t19 25.5q14 27 14 61q0 49 -29 49q-6 0 -18 -5z" />
    <glyph glyph-name="f" unicode="f" horiz-adv-x="286" 
d="M168 301q26 -5 71.5 62t77.5 149t24 117q-83 -71 -149.5 -234.5t-99.5 -328t-37 -296.5q-3 -86 17 -102q12 -10 24.5 9.5t17.5 35.5q17 60 17.5 154.5t-16.5 187.5q-1 9 7.5 29t16.5 15q44 -28 96.5 -15.5t87.5 53.5q2 3 11 3q12 0 12 -11q0 -15 -8 -26
q-27 -36 -74.5 -53.5t-75.5 -18.5q8 -36 11.5 -85t-1.5 -106t-19 -105.5t-45 -82.5t-75 -38q-21 -2 -38 11t-29.5 48t-15 90.5t8.5 146t37 205.5q31 140 67.5 247.5t71.5 169t61 94t50 49.5q25 17 64.5 -2.5t55.5 -53.5q20 -43 -23 -156t-96 -193q-45 -69 -85 -26
q-22 23 -24 49q1 8 4 8z" />
    <glyph glyph-name="g" unicode="g" 
d="M393 145q13 0 13 -11q0 -7 -13 -26q-24 -26 -50 -48.5t-40 -32.5l-54 -38q-32 -123 -47 -201q-14 -76 -55.5 -121t-86.5 -45q-39 0 -60 31.5t-21 74.5q0 127 195 256l14 57q-36 -36 -78 -36q-37 0 -63.5 27.5t-26.5 68.5q0 33 12 69q24 74 81.5 117.5t111.5 43.5
q51 0 67 -37q26 24 48 24t22 -16q0 -11 -24 -61q-10 -23 -40 -102.5t-32 -91.5q-2 -14 93 74l16 16q8 8 18 8zM124 -256l17.5 88l17.5 88q-43 -39 -60 -62q-47 -64 -47 -130q0 -30 10 -45.5t23 -15.5q22 0 39 77zM197 103q12 21 33 70.5t24 55.5q-1 54 -36 54
q-31 0 -68.5 -41t-49.5 -93q-5 -18 -5 -37q0 -53 45 -53q16 0 32 15q14 11 25 29z" />
    <glyph glyph-name="h" unicode="h" 
d="M392 144q13 0 13 -11q0 -9 -16 -29q-41 -50 -83 -77t-71 -27q-57 0 -57 59q0 19 6 39q8 26 17.5 51.5l19 49.5t12.5 31q3 8 3 13q0 6 -6 6q-7 0 -26 -13q-25 -17 -62.5 -63.5t-42.5 -62.5l-16 -56q-6 -23 -26.5 -38.5t-37.5 -15.5q-19 0 -19 19q0 6 2 14q2 5 5 17.5
t5 18.5q168 613 272 613q13 0 43 -22q16 -12 16 -20q0 -2 -3 -5q-65 -60 -123 -180t-92 -247q40 50 91.5 85t85.5 35q30 0 30 -29q0 -21 -14 -49q-30 -63 -58 -166q-5 -13 -5 -21q0 -14 11 -14q13 0 42.5 22.5t65.5 64.5q8 8 18 8z" />
    <glyph glyph-name="i" unicode="i" horiz-adv-x="168" 
d="M222 104q-41 -50 -82.5 -77t-70.5 -27q-58 0 -58 59q0 16 7 39q6 20 60 170q9 22 10 24q9 17 29.5 26.5t38.5 9.5h6q13 -3 13 -9q0 -1 -5 -16l-31 -81q-23 -61 -46 -138q-4 -16 -4 -21q0 -14 10 -14q13 0 42.5 22.5t65.5 64.5q8 8 19 8q12 0 12 -11q0 -9 -16 -29z
M153 365q-18 0 -30.5 11.5t-12.5 27.5q0 23 20.5 42t44.5 19q19 0 31 -10.5t12 -29.5q0 -22 -20 -41t-45 -19z" />
    <glyph glyph-name="j" unicode="j" horiz-adv-x="157" 
d="M215 147q13 0 13 -12q0 -10 -16 -29q-45 -54 -146 -116q-31 -116 -48 -204q-14 -76 -55.5 -121t-86.5 -45q-38 0 -60.5 30.5t-22.5 73.5q0 121 178 249l19 14q36 150 86 283q4 15 9 25q10 17 33.5 27.5t41.5 8.5q13 -2 13 -9.5t-5 -15.5q-42 -111 -88 -264q74 43 117 96
q9 9 18 9zM-61 -256q10 58 35 172q-16 -13 -26 -24q-33 -34 -57 -82t-24 -87q0 -27 10 -43t22 -16q24 0 40 80zM146 368q-18 0 -31 11.5t-13 28.5q0 23 20.5 42t46.5 19q18 0 30 -10.5t12 -29.5q0 -22 -19.5 -41.5t-45.5 -19.5z" />
    <glyph glyph-name="k" unicode="k" horiz-adv-x="318" 
d="M372 144q15 0 15 -12q0 -9 -16 -28q-42 -48 -85 -76t-72 -28q-39 0 -58 36t-19 64q0 13 5.5 20.5t21.5 19.5q31 24 49.5 55.5t18.5 53.5v4l-2 4q-2 2 -3 2q-15 0 -70.5 -73.5t-62.5 -89.5l-12 -42q-6 -23 -26 -38.5t-39 -15.5t-19 19q0 6 2 14q2 5 5 17.5t5 18.5
q168 613 272 613q13 0 43 -22q16 -12 16 -20q0 -2 -3 -5q-72 -66 -128 -189.5t-91 -253.5q65 79 95.5 107.5t55.5 28.5q21 0 36.5 -11t15.5 -23q0 -26 -12 -53t-29 -48t-34.5 -38l-29.5 -28t-12 -12q0 -20 11.5 -41.5t30.5 -21.5q36 0 107 84q8 8 18 8z" />
    <glyph glyph-name="l" unicode="l" horiz-adv-x="163" 
d="M318 660q15 -10 15 -19q0 -3 -3 -6q-123 -114 -208 -408q-18 -62 -26 -94q-7 -17 -5 -45t22 -27q13 0 31 14.5t57 60.5q10 8 19 8q12 0 12 -12q0 -11 -16 -28q-30 -36 -39 -46t-28 -29t-31.5 -24t-26.5 -5q-38 0 -56.5 29t-16.5 70q3 66 47 204.5t106 258.5t104 120
q13 0 43 -22z" />
    <glyph glyph-name="m" unicode="m" horiz-adv-x="475" 
d="M534 144q13 0 13 -12q0 -11 -16 -28q-87 -104 -144 -104q-56 0 -56 58v5q0 11 6 35q10 34 24.5 67.5t24 52t9.5 24.5q0 5 -5 5q-17 0 -66.5 -52.5t-63.5 -93.5l-16 -47q-8 -23 -29 -38.5t-39 -15.5t-18 17q0 5 3 16l69 200q2 6 2 9q0 5 -5 5q-17 0 -66 -52.5t-62 -91.5
l-17 -49q-9 -23 -29.5 -38.5t-38.5 -15.5t-18 17q0 5 3 16q42 124 84 235q9 22 10 24q9 17 29.5 26.5t38.5 9.5h6q13 -3 13 -9q0 -1 -5 -16l-28 -72q34 38 73.5 62.5t65.5 24.5q30 0 30 -34q0 -19 -8 -43l-9 -25q38 44 84.5 73t76.5 29q29 0 29 -27q0 -20 -15 -50
q-45 -94 -62 -157q-4 -11 -4 -21t11 -10q26 0 97 83q10 8 18 8z" />
    <glyph glyph-name="n" unicode="n" horiz-adv-x="314" 
d="M371 144q13 0 13 -12q0 -11 -16 -28q-87 -104 -139 -104q-56 0 -56 58q0 19 6 40q9 34 23.5 67t24 51.5t9.5 24.5t-5 6q-14 0 -51 -32t-64 -69l-11 -28l-6 -15l-17 -49q-9 -23 -29.5 -38.5t-38.5 -15.5t-18 17q0 5 3 16q42 124 84 235q9 22 10 24q9 17 29.5 26.5
t38.5 9.5h6q13 -3 13 -9q0 -1 -5 -16l-26 -68q38 36 80.5 59.5t70.5 23.5q31 0 31 -28q0 -19 -15 -49q-44 -92 -63 -157q-7 -30 8 -30q22 0 92 82q8 8 18 8z" />
    <glyph glyph-name="o" unicode="o" horiz-adv-x="322" 
d="M380 149q12 0 12 -11q0 -10 -15 -31q-10 -15 -38 -35t-52 -20q-14 0 -36 6q-59 -58 -129 -58q-47 0 -74 32t-27 80q0 78 59.5 148t134.5 70h8q56 -3 57 -32q0 -25 -34 -25h-5q-2 0 -6.5 0.5t-6.5 0.5q-38 0 -67 -20q-26 -18 -43.5 -48.5t-20.5 -59.5q-1 -5 -1 -14
q0 -36 18.5 -60t44.5 -24q30 0 56 28q-39 35 -39 78q0 42 33 74.5t66 32.5q43 0 43 -56t-32 -104q15 -1 22.5 -2.5t18.5 6.5t17 14.5l18 20.5q6 9 18 9zM243 120q13 36 13 56q0 25 -13 25q-7 0 -13 -8.5t-6 -22.5q0 -23 19 -50z" />
    <glyph glyph-name="p" unicode="p" horiz-adv-x="322" 
d="M167 329l-10 -26t-12 -33q51 53 100 53q39 0 61 -30t22 -67q0 -70 -40 -129q16 -2 40.5 11.5t33.5 30.5q8 8 16 8q34 0 6 -35q-19 -25 -55 -41t-73 -13q-40 -54 -121 -54q-54 0 -60 33q-5 30 31 55q47 32 113 16q9 12 17.5 37.5t12 52.5t-6 47.5t-33.5 20.5
q-23 0 -50.5 -27t-51.5 -68q-52 -141 -74 -258.5t-1 -225.5q0 -5 -1 -5q-4 -7 -24 -7q-37 0 -44 5q-23 15 -23.5 73.5t9 107.5t20.5 88q30 108 68 225.5t53 137.5q11 15 51 24q29 6 27 -5q-1 -1 -1 -2zM127 37q17 -5 34.5 1.5t27.5 22.5q-45 10 -67 -8q-12 -10 3 -15
q1 -1 2 -1z" />
    <glyph glyph-name="q" unicode="q" horiz-adv-x="347" 
d="M401 149q11 0 13 -11.5t-4 -19.5q0 -1 -2.5 -5t-4.5 -6q-12 -17 -18 -23q-19 -24 -56 -47q15 -45 15 -95q0 -75 -34 -152t-79.5 -123t-79.5 -46q-54 0 -54 85q0 92 71 319q-29 -23 -63 -23q-37 0 -63.5 28.5t-26.5 70.5q0 33 12 69q14 44 41.5 79t59 53.5t63 26.5t57.5 1
t38 -28q27 23 48 23t21 -16q0 -12 -23 -62q-49 -108 -105.5 -283t-56.5 -251q0 -36 19 -36q26 0 57.5 76.5t31.5 172.5q0 32 -4 55t-8 34.5t-4 13.5q0 15 18 24q3 1 15 7.5t17.5 10l17 11t19 15t17.5 19t19 25.5q6 8 16 8zM130 50q13 0 30.5 13.5t31.5 35.5l1 5
q11 35 54 131l3 6q-6 53 -48 42q-41 -11 -78 -67q-34 -53 -34 -106q0 -25 10 -42.5t30 -17.5z" />
    <glyph glyph-name="r" unicode="r" horiz-adv-x="266" 
d="M95 212q-13 6 -21 16q-41 48 -9.5 89.5t90.5 35.5q26 -3 34 -22t-14 -58q16 -4 56.5 9.5t50.5 12.5q18 -1 19 -20.5t-11 -32.5q-32 -36 -69.5 -98.5t-25.5 -83.5q8 -13 42 10.5t59 56.5q12 16 25 16q7 0 13 -4q10 -9 -4 -23q-32 -40 -52 -63q-21 -25 -45.5 -40t-42.5 -15
q-87 0 -64 84q17 61 69 119q8 9 15 15q-34 -14 -71 -13q-15 -15 -29 -32l-54 -64q-12 -14 -28 -9q-18 5 -1 26zM133 274q13 23 10.5 35.5t-11 16.5t-17.5 1q-12 -4 -6 -22.5t24 -30.5z" />
    <glyph glyph-name="s" unicode="s" horiz-adv-x="254" 
d="M191 243q55 -99 52 -149q-2 -31 -18.5 -52t-41.5 -29t-45.5 -10.5t-40.5 -1.5q-57 3 -60 43q-2 36 34 65q25 21 53 20q19 -1 23.5 -16.5t1.5 -33.5q-2 -9 -4.5 -13t-6.5 -2q-4 3 -17.5 2t-23.5 -6q-22 -13 -14 -27q8 -15 41 -4q81 27 8 161l-5 6q-9 -10 -35 -44t-36 -45
q-14 -14 -25.5 -4.5t1.5 25.5l76 100q-32 43 5 89t85 44q32 -1 36.5 -24t-9.5 -49.5t-34 -44.5zM173 281q22 16 26 40q2 12 -2 15t-15 -4q-33 -18 -9 -51z" />
    <glyph glyph-name="t" unicode="t" horiz-adv-x="175" 
d="M328 641q-69 -65 -129 -193q38 3 62 2q36 -1 53.5 -17.5t2.5 -51.5q-8 -17 -19 0q-14 20 -122 14v-1q-28 -68 -58 -164q-18 -62 -26 -95q-5 -17 -5 -37q0 -41 31 -41q26 0 95 81q10 8 21 8q12 0 12 -12q0 -11 -16 -28q-89 -105 -143 -105q-38 0 -55.5 29t-17.5 71
q0 25 7 51q53 179 73 237q-88 -3 -112 24q-13 16 -8 42t18 33q7 3 9 -4q6 -15 13 -22t23 -12q22 -8 77 -6q93 245 159 245q13 0 43 -23q15 -10 15 -19q0 -3 -3 -6z" />
    <glyph glyph-name="u" unicode="u" horiz-adv-x="348" 
d="M406 147q13 0 13 -11q0 -9 -10 -23l-1 -1l-2 -2l-1 -1l-2 -2q-41 -50 -83 -77t-71 -27q-57 0 -57 59q0 12 1 19q-67 -78 -117 -78q-5 0 -17 2q-37 10 -37 57q0 16 7 39q6 20 60 170q8 20 10 24q9 17 29.5 26.5t38.5 9.5h6q13 -3 13 -9q0 -3 -4 -13v-1l-1 -2l-31 -81
q-30 -85 -46 -138q-4 -16 -4 -21q0 -15 9 -15q16 0 52 41.5t64 89.5q4 11 34 89l3.5 10.5t5.5 13.5q10 17 30 26.5t38 9.5h6q13 -3 13 -10q0 -3 -4 -15l-31 -81q-28 -73 -47 -138q-4 -16 -4 -21q0 -14 11 -14q13 0 42.5 22.5t65.5 64.5q8 8 18 8z" />
    <glyph glyph-name="v" unicode="v" horiz-adv-x="291" 
d="M350 148q12 0 12 -11q0 -13 -18 -33q-34 -40 -66 -40q-33 0 -67 40l-11 -14q-79 -90 -129 -90q-18 0 -23 10q-24 35 -24 149q0 74 11 106q8 23 29 38.5t38 15.5q19 0 19 -18q0 -7 -3 -16q-23 -69 -23 -135q0 -51 10 -83q2 -8 6 -8q6 0 32.5 28t47.5 58q-23 56 -23 101
q0 51 25.5 81t56.5 30q20 0 33.5 -12.5t17.5 -36.5v-8q0 -14 -1 -21q-4 -29 -21.5 -69.5t-36.5 -67.5q0 -1 1 -2q15 -30 38 -30t51 29q9 9 18 9zM216 183q24 43 24 84q0 11 -3 19q-4 11 -17 11q-3 0 -5 -1q-17 -6 -17 -33q0 -37 18 -79v-1z" />
    <glyph glyph-name="w" unicode="w" horiz-adv-x="445" 
d="M502 148q11 0 11 -11q0 -12 -17 -33q-36 -40 -67 -40q-33 0 -67 40l-11 -14q-77 -90 -129 -90q-17 0 -22 10q-18 26 -23 101q-22 -57 -46.5 -84t-59.5 -27q-17 0 -22 10q-25 37 -25 149q0 75 12 106q8 23 29 38.5t38 15.5q19 0 19 -18q0 -7 -3 -16q-24 -72 -24 -135
q0 -45 10 -83q3 -8 6 -8t10 10l1 2q0 1 0.5 1t0.5 1q31 47 54 141q3 32 10 51q9 23 29 38.5t38 15.5q19 0 19 -18q0 -7 -3 -16q-24 -72 -24 -135q0 -45 10 -83q2 -8 6 -8q6 0 32 27.5t49 58.5q-23 53 -23 102q0 51 25 80.5t56 29.5q20 0 34 -12.5t17 -36.5q0 -2 0.5 -6
t0.5 -6q0 -5 -2 -17q-4 -29 -21.5 -70t-36.5 -67l3 -6l8 -11.5t12 -10t17 -4.5q22 0 51 29q8 9 18 9zM367 183q24 42 24 86q0 9 -2 17q-5 11 -18 11q-3 0 -5 -1q-17 -6 -17 -33q0 -37 18 -79v-1z" />
    <glyph glyph-name="x" unicode="x" horiz-adv-x="342" 
d="M401 148q12 0 12 -11q0 -13 -16 -30q-43 -50 -85.5 -79t-71.5 -29q-28 0 -42 21q-18 28 -38 83l-98 -91q-12 -13 -35 -13t-23 13q0 5 7 13l133 128q-4 11 -14 47q-4 13 -12 43q-4 16 -12 26t-14 12.5t-13 4.5t-8 2q-3 1 -3 4t1 6l1 2q7 15 20 23t23 9h10q28 0 46 -24
q8 -10 14 -23.5t8.5 -21.5t7.5 -26t7 -24l96 93q13 14 38 14q30 0 30 -15q0 -5 -6 -12l-142 -132q15 -47 33 -90q8 -20 21 -20q8 0 15 5q39 20 91 83q8 9 19 9z" />
    <glyph glyph-name="y" unicode="y" horiz-adv-x="309" 
d="M362 146q12 0 15.5 -10t-3.5 -18q-59 -69 -151 -131l-16 -63.5l-21 -81t-26 -79.5t-34.5 -75t-44.5 -50t-57 -21q-38 0 -60.5 31t-22.5 74q0 113 186 248l20 14q14 57 14 59q-57 -46 -95 -46q-58 0 -58 60q0 19 6 40q13 43 62 171q4 15 9 24q11 18 34.5 28t40.5 8
q5 -1 7.5 -2.5t4 -2.5t1 -4t-0.5 -4.5t-2 -6t-2 -5.5l-31 -82q-26 -69 -47 -139q-4 -16 -4 -20q0 -15 11 -15q25 0 81 57q21 73 54 164q9 22 10 24q10 18 33.5 28.5t40.5 7.5q13 -2 13.5 -9t-4.5 -16q-49 -130 -86 -257q66 45 105 91q7 9 18 9zM47 -338q28 0 84 251
q-15 -11 -26 -23q-36 -37 -63 -84t-27 -85q0 -27 10 -43t22 -16z" />
    <glyph glyph-name="z" unicode="z" horiz-adv-x="309" 
d="M367 145q12 0 12 -11t-15 -29l-18.5 -23t-22 -26.5l-21 -23.5t-27.5 -27t-30 -23q0 -83 -24.5 -150.5t-62.5 -106.5t-78 -59.5t-77 -20.5q-32 0 -51 15.5t-19 43.5q0 95 196 244l43 30v8q0 28 -24 28q-15 0 -26 -7q-8 -4 -22 -4q-11 0 -17 3q-7 3 -7 7q0 8 11 16
q3 2 29.5 24t42.5 38t38.5 42t34 54t11.5 57q0 23 -13 34.5t-32 11.5h-2q-40 -3 -68.5 -44t-28.5 -80q0 -6 2 -16q2 -7 6 -8q1 -1 6 -1q3 0 7 0.5t7 1.5l3 1q2 0 2 -3q0 -14 -16.5 -36.5t-39.5 -22.5q-5 0 -8 1q-18 4 -31 26t-13 52q0 61 49 110q55 57 131 57h6
q51 -2 76 -25.5t25 -60.5q0 -47 -35 -100.5t-87 -86.5h4q17 0 30.5 -11.5t16.5 -11.5q5 -1 47 39.5t62 65.5q6 8 18 8zM167 -77q-80 -59 -117 -111.5t-37 -87.5q0 -33 26 -33q33 0 71.5 59t56.5 173z" />
    </font>
</defs>
</svg>
