<?xml version="1.0" standalone="no"?>
<!DOCTYPE svg PUBLIC "-//W3C//DTD SVG 1.1//EN" "http://www.w3.org/Graphics/SVG/1.1/DTD/svg11.dtd" >
<svg>
<metadata>
Created by FontForge 20090622 at Wed Jan 31 08:52:19 2018
 By deploy user
Copyright (c) Primedia (latin code page) A.Gophmann cyr.code page, 2006. All rights reserved.
</metadata>
<defs>
<font id="CoquetteC" horiz-adv-x="683" >
  <font-face 
    font-family="CoquetteC"
    font-weight="400"
    font-stretch="normal"
    units-per-em="1000"
    panose-1="2 0 4 0 0 0 0 0 0 0"
    ascent="800"
    descent="-200"
    x-height="385"
    cap-height="704"
    bbox="-231 -421 1201 910.95"
    underline-thickness="50"
    underline-position="-75"
    unicode-range="U+0020-U+2116"
  />
<missing-glyph horiz-adv-x="500" 
d="M63 0v710h375v-710h-375zM125 63h250v585h-250v-585z" />
    <glyph glyph-name=".notdef" horiz-adv-x="500" 
d="M63 0v710h375v-710h-375zM125 63h250v585h-250v-585z" />
    <glyph glyph-name="space" unicode=" " horiz-adv-x="436" 
 />
    <glyph glyph-name="exclam" unicode="!" horiz-adv-x="367" 
d="M106 -19q0 25 18 42.5t43 17.5q26 0 43.5 -17.5t17.5 -43.5t-17.5 -43.5t-43.5 -17.5t-43.5 18t-17.5 44zM139 144v25q0 215 5 483q5 21 25 21q26 0 26 -29v-10l-6 -479q0 -32 -26 -32q-19 0 -24 21z" />
    <glyph glyph-name="quotedbl" unicode="&#x22;" horiz-adv-x="247" 
d="M58 563v5q-2 1 0 3q-1 26 -1 51q0 22 3 30q5 15 22 16q15 0 16 -26v-31v-4q1 -23 1 -80q0 -31 1 -25q-2 -12 -17 -13q-22 0 -25 20v13q-1 30 0 41zM173 563v5q-2 1 0 3q-1 26 -1 51q0 22 3 30q5 15 22 16q15 0 16 -26v-31v-4q1 -23 1 -80q0 -31 1 -25q-2 -12 -17 -13
q-22 0 -25 20v13q-1 30 0 41z" />
    <glyph glyph-name="numbersign" unicode="#" horiz-adv-x="579" 
d="M284 122v6l32 102l-103 -7l-38 -104q-6 -17 -24 -17q-25 0 -25 26v4l31 87q-12 0 -35.5 -2t-35.5 -2h-9q-19 5 -19 26q0 22 21 24l97 7l36 99h-3q-15 0 -45 -2t-45 -2q-28 0 -28 25t24 26l116 5l37 102q6 17 24 17q25 0 25 -26v-5l-30 -85q11 0 33 1.5t34 1.5h1q1 0 19 1
q2 0 4 1l32 102q4 14 23 14q25 0 25 -25v-6l-25 -79v-2q-1 -1 -1 -2v0v-1q12 2 41 2h22q20 -5 20 -25q0 -19 -20 -23q-1 -1 -35 -3q-28 -2 -36 -2q-2 0 -8 -1l-1 -2l-28 -92l98 7h15q20 0 20 -25q0 -18 -20 -25q-2 0 -16.5 -1t-17.5 -1h-2l-89 -7q-2 0 -5 -1l-38 -122
q-5 -15 -23 -15q-25 0 -25 26zM232 276l100 7l29 95q-11 0 -30 -1q-23 -2 -31 -2l-32 -1l-1 -1z" />
    <glyph glyph-name="dollar" unicode="$" horiz-adv-x="492" 
d="M229 10q-120 -4 -160 82q-11 23 -11 53q0 63 45 96q16 12 30 12q25 0 25 -25q0 -13 -9.5 -19l-18.5 -12q-21 -19 -21 -53q0 -72 84 -81q2 -1 9 -1h24v22l-7 197l-3 1q-22 9 -64 30q-80 50 -80 136q0 106 133 168l1 1v4q0 15 -1 45.5t-1 46.5v12q5 20 25 20q23 0 24 -20
l5 -91q32 7 52 7q60 0 106 -37q49 -40 49 -99q0 -38 -27 -63t-65 -25q-35 0 -68 23q-36 24 -36 58q0 26 21.5 44t48.5 18q42 0 42 -30q0 -25 -25 -25q-4 0 -9.5 2t-8.5 2q-9 0 -18 -9v-2q0 -3 1 -4q22 -25 52 -25q42 0 42 37q0 18 -11 34q-27 49 -95 49q-31 0 -49 -7v-16
q0 9 9 -246q0 -3 4 -4q66 -25 95 -48q46 -36 46 -90q0 -57 -38 -100.5t-95 -59.5v-9q0 -8 1 -25v-25v-7q-1 -6 -1 -7q-3 -19 -25 -19q-25 0 -25 41q0 3 -1 21.5t-1 21.5zM278 73l1 -1q5 0 12.5 3.5t10.5 6.5q60 32 60 96q0 43 -60 71q-24 11 -30 13h-1v-17q1 -10 3 -74
q1 -54 4 -98zM123 453q0 -70 65 -103q7 -4 27 -12h2q0 12 -2 48q-2 30 -1 48l-6 126q-31 -13 -57 -43q-28 -33 -28 -64z" />
    <glyph glyph-name="percent" unicode="%" horiz-adv-x="531" 
d="M122 56q0 6 1 9l261 466h-4q-47 -5 -57 -5q-7 0 -21.5 1.5t-22.5 1.5q-2 0 -3 -2q-3 -9 -10 -28q-30 -59 -96 -59q-47 0 -79.5 32t-32.5 78q0 45 32.5 77t76.5 32q78 0 107 -76q1 -2 8 -2q11 -2 24 -3h18q47 0 84 12q7 0 23 8q2 1 5 1h1q26 0 26 -26q0 -4 -2 -10
l-292 -519q-7 -13 -23 -13q-24 0 -24 25zM296 138q0 43 27 75t69 32q41 0 68.5 -32t27.5 -74t-27.5 -74t-68.5 -32t-68.5 32t-27.5 73zM347 138q0 -21 12.5 -37.5t32.5 -16.5t32.5 17t12.5 38t-12 37.5t-33 16.5q-20 0 -32.5 -17t-12.5 -38zM109 550q0 -24 17.5 -41.5
t41.5 -17.5t41.5 17t17.5 42q0 24 -17 41.5t-41 17.5q-25 0 -42.5 -17t-17.5 -42z" />
    <glyph glyph-name="ampersand" unicode="&#x26;" horiz-adv-x="507" 
d="M251 -90l6 136q-81 4 -130 47q-53 46 -53 124q0 71 58 121q48 41 125 61l1 1q-9 5 -27 17q-48 37 -48 84q0 26 19 62q38 72 120 77l1 1l5 109q1 21 26 21t25 -25q0 -18 -2.5 -54t-2.5 -54v-4q8 -3 23 -10q59 -33 59 -87q0 -35 -21.5 -58.5t-56.5 -23.5q-27 0 -46 15
t-19 41q0 36 28 36q25 0 25 -25q0 -2 -1 -6t-1 -5q0 -5 14 -5q26 0 26 30q0 25 -26 40q-22 13 -49 13q-55 0 -82 -49q-13 -24 -13 -39q0 -41 72 -65q21 -7 25 -9q-4 0 36 -8q31 -6 31 -26q0 -23 -20 -25q-30 -3 -48 -6q-25 -4 -47 -9q-157 -35 -157 -136q0 -59 40 -91
q37 -28 99 -28q105 0 137 58q11 20 11 41q0 22 -15.5 37.5t-37.5 15.5q-15 0 -32 -10q-20 -12 -20 -27q0 -4 11 -15q6 -3 13 -3q8 0 18.5 8t19.5 8q24 0 24 -25q0 -19 -20.5 -30.5t-41.5 -11.5q-29 0 -51.5 20t-22.5 49q0 37 33 64q31 24 69 24q44 0 74 -30.5t30 -74.5
q0 -45 -28 -80.5t-72 -51.5q-2 -1 -10.5 -4t-9.5 -3t-16 -3t-16.5 -3.5t-3.5 -1.5v-17q-1 -14 -1 -17v-4l-5 -108q2 -34 -26 -34q-25 0 -25 20v21z" />
    <glyph glyph-name="quotesingle" unicode="'" horiz-adv-x="119" 
d="M56 563v5q-2 1 0 3q-1 26 -1 51q0 22 3 30q5 15 22 16q15 0 16 -26v-31v-4q1 -23 1 -80q0 -31 1 -25q-2 -12 -17 -13q-22 0 -25 20v13q-1 30 0 41z" />
    <glyph glyph-name="parenleft" unicode="(" horiz-adv-x="306" 
d="M91 273v1v7q-1 4 -1 7v56q0 3 1 8v7v1l6 56q2 19 15 69q18 69 47 133q15 34 33 62l25 40q6 10 21 10q25 0 25 -25q0 -7 -4 -13q-30 -44 -58 -106q-61 -135 -61 -270q0 -182 114 -338q3 -4 3 -13q0 -25 -25 -25q-13 0 -19 9l-40 60q-10 14 -30 58q-52 111 -52 206z" />
    <glyph glyph-name="parenright" unicode=")" horiz-adv-x="285" 
d="M58 -21q0 9 5 15q23 29 31 41q78 111 94 234v1q4 42 4 60q0 50 -10 100q-7 36 -16 60l-24 65q-4 11 -30 60q-14 26 -30 47q-7 14 -16 23q-3 6 -3 12q0 25 26 25q12 0 21 -12q50 -65 83 -146q49 -120 49 -235q0 -112 -45 -215q-17 -38 -27 -54l-40 -62l-29 -37
q-5 -7 -18 -7q-25 0 -25 25z" />
    <glyph glyph-name="asterisk" unicode="*" horiz-adv-x="420" 
d="M189 484l-75 -58q-6 -5 -15 -5q-25 0 -25 25q0 12 7 19l87 68l-78 64q-12 10 -12 23q0 25 25 25q8 0 14 -4l68 -56v9v29q-1 19 -1 28v17q3 19 24 19q25 0 26 -20l3 -80l63 49q6 5 15 5q25 0 25 -26q0 -12 -9 -19l-82 -65l104 -87q8 -7 8 -19q0 -25 -25 -25q-10 0 -16 5
l-80 66q0 -14 1 -42.5t1 -42.5v-17q-5 -20 -24 -20q-25 0 -26 21z" />
    <glyph glyph-name="plus" unicode="+" horiz-adv-x="412" 
d="M66 301q-24 0 -24 26q0 8 6.5 17t15.5 9h101v98q0 20 25 20q18 0 25 -20q1 -28 2 -87q0 -5 1 -11h145q8 0 15 -9t7 -17q0 -26 -24 -26h-143v-1q0 -25 1 -74v-74v-15q-4 -22 -24 -22q-26 0 -26 31v28q-1 25 -1 27v13q-1 24 -2 87h-100z" />
    <glyph glyph-name="comma" unicode="," horiz-adv-x="273" 
d="M84 -59q0 13 11 19l22 12q45 26 45 61v0q-19 -8 -35 -8q-28 0 -48.5 19.5t-20.5 46.5q0 28 20.5 47.5t48.5 19.5q40 0 65 -39q22 -35 22 -77q0 -74 -72 -114q-23 -13 -33 -13q-25 0 -25 26z" />
    <glyph glyph-name="hyphen" unicode="-" horiz-adv-x="407" 
d="M290 301l-135 5q-2 -2 -3 0q-26 0 -51 1q-45 2 -45 27t25 25h1l161 -6h4q26 0 80 -2q37 -1 37 -27q0 -23 -20 -24h-13q-14 0 -41 1z" />
    <glyph glyph-name="hyphen" unicode="&#x2010;" horiz-adv-x="407" 
d="M290 301l-135 5q-2 -2 -3 0q-26 0 -51 1q-45 2 -45 27t25 25h1l161 -6h4q26 0 80 -2q37 -1 37 -27q0 -23 -20 -24h-13q-14 0 -41 1z" />
    <glyph glyph-name="period" unicode="." horiz-adv-x="392" 
d="M90 72q0 25 20 41t46 16q25 0 45 -16t20 -41t-20 -41t-45 -16q-26 0 -46 16t-20 41z" />
    <glyph glyph-name="slash" unicode="/" horiz-adv-x="405" 
d="M58 -10q0 6 1 8l272 613q5 11 21 11q26 0 26 -24q0 -7 -2 -10l-271 -610q-6 -13 -22 -13q-25 0 -25 25z" />
    <glyph glyph-name="zero" unicode="0" horiz-adv-x="557" 
d="M74 326q0 79 22 152q24 79 70 131q56 64 129 64q74 0 132 -68q47 -57 69 -138l11 -48l7 -64l1 -12v-15q0 -50 -16 -114q-21 -86 -69 -144q-59 -72 -136 -72q-76 0 -134 70q-47 57 -69 140q-17 64 -17 118zM126 326q0 -51 16 -110q17 -63 52 -109q45 -58 100 -58
q64 0 111 73q34 54 51 130q7 34 7 72v23q0 7 -1 15v1q-6 55 -14 86q-18 66 -52 112q-45 61 -102 61q-54 0 -97 -55q-33 -42 -52 -104q-15 -47 -19 -106v-31z" />
    <glyph glyph-name="one" unicode="1" horiz-adv-x="287" 
d="M155 302l-4 258q-1 3 -1 20l-2 -1q-1 -1 -9 -7.5t-10 -8t-16 -10.5q-30 -19 -45 -19q-26 0 -26 25q0 14 13 21t26 13q24 14 51 42q2 2 10 14l14 17.5t18 8.5q21 0 25 -23l8 -379q5 -188 5 -246v-11q-5 -21 -25 -21q-25 0 -26 32q-3 125 -4 196q0 3 -1 37t-1 38v4z" />
    <glyph glyph-name="two" unicode="2" horiz-adv-x="562" 
d="M353 -15l-148 4q-37 1 -36 1q-42 0 -75 3q-20 5 -20 24q0 10 4 15l222 265l55 76q7 11 18 30q17 31 17 61q0 56 -36 100q-39 46 -93 46q-68 0 -109 -70q-16 -27 -16 -56q0 -21 12.5 -35.5t32.5 -14.5q33 0 55 32q8 12 8 14q0 16 -19 16q-8 0 -17.5 -13.5t-21.5 -13.5
q-25 0 -25 26q0 10 11 25q19 27 52 27q27 0 49 -19.5t22 -46.5q0 -37 -38 -68t-76 -31q-41 0 -68.5 30t-27.5 71q0 69 53 123.5t122 54.5q77 0 129 -59.5t52 -137.5q0 -48 -24 -86l-41 -65l-220 -271q4 -1 22 -1h6l213 -7q2 0 116 -3q22 -5 22 -26q0 -25 -26 -25
q-36 0 -126 4q-12 0 -26 1h-4z" />
    <glyph glyph-name="three" unicode="3" horiz-adv-x="532" 
d="M82 137q0 26 26 26q17 0 29 -33q15 -41 63 -63q39 -18 89 -18q51 0 95.5 24t67.5 67q5 10 5 17q0 -3 -9.5 30.5t-29.5 46.5q-8 5 -63.5 24t-128.5 19h-20q-13 -1 -20 -1q-25 0 -25 25q0 18 15.5 22t30.5 7q47 11 87.5 32t71.5 61q35 45 35 88q0 51 -40.5 85.5t-91.5 34.5
q-30 0 -57 -10q-39 -14 -69 -44q-34 -34 -34 -71q0 -27 16.5 -47t43.5 -20q18 0 31 10.5t13 27.5q0 22 -13 22q-3 0 -11.5 -5.5t-15.5 -5.5q-25 0 -25 26q0 16 19 26q16 9 33 9q28 0 46 -22t18 -51q0 -37 -28.5 -63t-65.5 -26q-46 0 -79 35.5t-33 81.5q0 74 70 128
q66 50 142 50q71 0 126.5 -50t55.5 -121q0 -57 -39 -111q-35 -47 -89 -80q1 -1 3 -1q30 -9 62 -20q50 -18 68 -36t38 -67q8 -63 1 -83q-19 -57 -83 -88q-56 -27 -125 -27q-59 0 -109 23q-55 26 -82 74q-15 27 -15 42z" />
    <glyph glyph-name="four" unicode="4" horiz-adv-x="538" 
d="M375 20l-6 228h-21q-46 0 -139.5 -1t-140.5 -1q-26 0 -26 25q0 10 5 16l314 373q10 12 22 12q25 0 26 -40l7 -226q3 -84 2 -105q2 -2 3 -2h86q20 0 20 -25q0 -20 -19 -25q-29 0 -88 -1v-3q0 -35 3 -110t3 -110q0 -29 -25 -29q-23 0 -26 24zM123 297q163 0 244 2v25
l-7 254h-1z" />
    <glyph glyph-name="five" unicode="5" horiz-adv-x="568" 
d="M58 148q0 66 47 116t113 50q51 0 86 -25q40 -28 40 -76q0 -43 -30 -75t-73 -32q-28 0 -46 16.5t-18 43.5q0 43 28 43q25 0 25 -25q0 -3 -1 -9t-1 -8q0 -11 13 -11q22 0 37 17.5t15 39.5q0 49 -75 49q-45 0 -77 -34.5t-32 -80.5q0 -56 52 -85q41 -24 102 -24q77 0 139 38
q72 44 72 116q0 36 -19 77q-49 107 -164 107q-35 0 -71 -9l-23 -7.5t-23 -7t-6 -0.5q-26 0 -26 30q0 209 -2 251v9q0 27 26 30q14 -2 46 -2h1q2 0 22 -1t22 -1h3l159 -6h5q10 -2 35 -2q21 -3 21 -26q0 -20 -20 -24h-12q-42 0 -127.5 4.5t-128.5 4.5v-65q0 -115 1 -128l1 -13
h1q48 14 96 14q148 0 211 -138q23 -50 23 -98q0 -95 -87 -153q-77 -51 -177 -51q-36 0 -66 6q-59 12 -98 54t-39 101z" />
    <glyph glyph-name="six" unicode="6" horiz-adv-x="499" 
d="M58 196q0 84 13 139l11 43l38 102l66 131q9 18 29 51q8 14 23 14q25 0 25 -26q0 -7 -2 -11l-58 -104l-41 -87l-30 -82l-13 -50q-10 -42 -10 -120q0 -2 1 -11v-10q8 31 15 62q12 43 23 58q55 76 141 76q46 0 89 -21t66 -59q12 -20 12 -95q0 -58 -38 -108.5t-93 -76.5
q-32 -15 -76 -15q-47 0 -95 25q-96 50 -96 175zM186 62q30 -15 68 -15q55 0 103.5 48t48.5 103q0 64 -11 76q-44 46 -106 46q-66 0 -111 -71q-21 -33 -21 -111q0 -34 29 -76z" />
    <glyph glyph-name="seven" unicode="7" horiz-adv-x="428" 
d="M161 -9q0 2 0.5 4.5t2.5 24.5l24 100l149 479l-233 -10q-9 1 -26 -0.5t-24 -1.5h-7q-21 7 -21 26q0 24 25 25q18 1 43 2q-6 0 44 2l242 9q8 0 14.5 -8t6.5 -16q0 -5 -1 -7l-180 -578q0 7 -6 -34q-4 -26 -5 -29q-5 -13 -23 -13q-25 0 -25 25z" />
    <glyph glyph-name="eight" unicode="8" horiz-adv-x="548" 
d="M42 188q0 69 39.5 123t106.5 80l1 1q-53 39 -53 111t48.5 122t119.5 50q67 0 113 -54t46 -123q0 -76 -60 -114q118 -65 118 -187q0 -41 -33 -94q-64 -103 -219 -103q-99 0 -160 45q-67 50 -67 143zM94 189q0 -138 178 -138q198 0 198 147q0 39 -14 69q-43 92 -169 92
q-81 0 -135 -44q-58 -48 -58 -126zM187 504q0 -41 27 -66t69 -28h19q110 0 110 89q0 47 -31 86t-77 39q-48 0 -82.5 -35.5t-34.5 -84.5z" />
    <glyph glyph-name="nine" unicode="9" horiz-adv-x="473" 
d="M157 1q0 12 10 19l67 58l65 68q15 29 39 70q58 79 58 159q0 22 -8 64q0 1 -1 3q-25 -44 -73 -69.5t-100 -25.5q-109 0 -147 101q-9 24 -9 53q0 68 52 113q49 42 118 42q67 0 123 -50q50 -44 74 -112q21 -58 21 -121q0 -130 -101 -251q-28 -34 -39 -44l-79 -74
q-7 -6 -29 -23q-5 -5 -15 -5q-26 0 -26 25zM109 501q0 -45 30.5 -74t75.5 -29q49 0 92 31q47 33 47 81q0 16 -7.5 25.5l-13.5 16.5q-49 54 -104 54q-49 0 -83 -28q-37 -29 -37 -77z" />
    <glyph glyph-name="colon" unicode=":" horiz-adv-x="218" 
d="M58 139q0 26 17.5 43t43.5 17q25 0 43.5 -17.5t18.5 -41.5q0 -25 -18.5 -42t-43.5 -17q-24 0 -42.5 17t-18.5 41zM58 369q0 26 18.5 44t44.5 18q25 0 43.5 -18t18.5 -43q0 -26 -18.5 -44t-44.5 -18t-44 18t-18 43z" />
    <glyph glyph-name="semicolon" unicode=";" horiz-adv-x="228" 
d="M111 -100q0 11 7 17t15 11q17 15 17 39v10q-1 5 -3 16l-1 2h-1q-18 -6 -26 -6q-23 0 -39.5 16t-16.5 39q0 24 16 41t40 17q36 0 62 -54q20 -42 20 -82q0 -52 -41 -81q-14 -10 -24 -10q-25 0 -25 25zM52 222q0 26 16 47t42 21t43 -20t17 -46q0 -27 -16.5 -47t-42.5 -20
t-42.5 19t-16.5 46z" />
    <glyph glyph-name="less" unicode="&#x3c;" horiz-adv-x="480" 
d="M382 107q-10 0 -16 5l-41 32l-120 75l-143 75q-13 7 -13 21q-1 16 10 22l127 70l81 53q12 9 32 26q3 2 6 5l15 16l13.5 17.5t17.5 8.5q25 1 25 -24q1 -21 -32 -51q-10 -9 -21 -20l-62 -45l-130 -76l170 -95l71 -50q3 -1 22 -17q12 -11 13 -22q0 -25 -25 -26z" />
    <glyph glyph-name="equal" unicode="=" horiz-adv-x="439" 
d="M58 242q0 22 21 25q11 0 156 2q16 0 60 1q37 1 59 1q30 0 30 -25q0 -21 -23 -25q-168 -4 -253 -4h-31q-19 5 -19 25zM322 349l-135 5q-2 -2 -3 0q-26 0 -51 1q-45 2 -45 27t25 25h1l161 -6h4q26 0 80 -2q37 -1 37 -27q0 -23 -20 -24h-13q-14 0 -41 1z" />
    <glyph glyph-name="greater" unicode="&#x3e;" horiz-adv-x="512" 
d="M111 91q10 0 16 5l41 32l120 75l144 75q12 7 13 21q0 16 -11 22l-126 70l-81 53q-13 9 -33 26l-5 5l-16 16q-6 9 -13 17.5t-17 8.5q-25 1 -26 -24q-1 -21 32 -51l22 -20l61 -45l131 -76l-171 -95l-71 -50q-3 -1 -21 -17q-13 -11 -13 -22q-1 -25 24 -26z" />
    <glyph glyph-name="question" unicode="?" horiz-adv-x="583" 
d="M208 -9q0 23 20.5 38.5t44.5 15.5q25 0 45 -15.5t20 -39.5t-20 -39t-45 -15t-45 15t-20 40zM218 222q0 42 58 82l107 74q5 2 23 19q51 47 51 100q0 131 -155 131q-37 0 -62 -7q-57 -16 -100 -61q-47 -49 -47 -105q0 -40 21 -68q23 -32 61 -32q56 0 101 49q12 13 12 25
q0 16 -11 29t-26 13q-10 0 -20.5 -12.5t-22.5 -12.5q-25 0 -25 26q0 18 18 32.5t38 17.5h12q36 0 62.5 -28t26.5 -65q0 -36 -36 -71q-30 -29 -69 -43q-31 -11 -60 -11q-60 0 -98 47q-35 43 -35 105q0 75 60 138q54 58 130 78q26 7 72 7q91 0 146 -46q58 -49 58 -137
q0 -71 -57 -126l-28 -26l-128 -89l-12 -10q-14 -14 -14 -23q0 -22 25 -22q15 0 43 8h3q25 0 25 -25q0 -22 -45 -32q-16 -2 -26 -2q-35 0 -55.5 19.5t-20.5 53.5z" />
    <glyph glyph-name="at" unicode="@" horiz-adv-x="661" 
d="M74 205q0 115 78 190.5t194 75.5q89 0 157.5 -48.5t90.5 -133.5q8 -31 8 -62q0 -33 -5 -49q-15 -48 -53 -80t-86 -32q-30 0 -45 17q-11 12 -21 44q-56 -46 -121 -46q-46 0 -73.5 26.5t-27.5 71.5q0 92 108 144q44 21 80 21q50 0 62 -50q3 -8 6 -24l7 -65q0 -2 1 -4v-5v0
l5 -43q1 -1 5 -20q3 -13 8 -16h5q17 0 32 7q63 30 63 103q0 27 -11 63q-18 60 -76 96q-54 34 -120 34q-94 0 -157 -61t-63 -155q0 -81 45.5 -130t124.5 -49q30 0 62 8q6 0 36 10q9 3 17 3q25 0 25 -25q0 -16 -16 -23q-70 -24 -126 -24q-100 0 -159.5 65t-59.5 166zM220 179
q0 -48 52 -48q65 0 109 56q0 1 1 3v9l-8 69l-2 12q-1 5 -7 12h-8q-44 0 -89 -34q-48 -36 -48 -79z" />
    <glyph glyph-name="A" unicode="A" horiz-adv-x="908" 
d="M26 145q0 50 22 95q26 51 68 71q17 8 49 8q45 0 78 -25.5t33 -69.5q0 -33 -24.5 -59t-57.5 -26q-52 0 -52 61q0 46 31 46q25 0 25 -26q0 -3 -3 -10t-3 -11q0 -9 3 -9q6 0 11 5q19 11 19 31q0 21 -21 32q-17 10 -39 10q-20 0 -29 -4q-26 -12 -44 -52q-15 -35 -15 -67
q0 -70 70 -103q19 -9 40 -9q58 0 129 68l42 44l73 90q0 1 1 3v1q-15 1 -47 2q-20 5 -20 24q0 21 19 26h20h31q20 -1 30 -1h3l2 2l153 262l57 115q5 12 21 12q23 0 26 -24l45 -374h10l108 -3q23 -4 23 -26q0 -25 -26 -25q-18 0 -54 1t-55 1v-3l22 -205q0 -26 -26 -26
q-23 0 -25 23l-23 213h-2l-229 5l-82 -108q-10 -13 -32 -36q-108 -112 -194 -112q-35 0 -70 17q-91 44 -91 146zM529 289q160 -5 191 -5q0 7 -2.5 22t-2.5 21v1l-29 237z" />
    <glyph glyph-name="B" unicode="B" 
d="M239 31l-20 396v2q0 15 -2.5 54.5t-2.5 54.5v9q5 19 25 19q28 0 26 -30l9 -182l69 14q6 0 27 6.5t50 18.5q6 2 12 5q88 37 88 92q0 64 -89 105q-71 32 -139 32q-54 0 -114 -16q-43 -11 -72 -49t-29 -84q0 -51 29 -62q1 -1 6 -1q24 0 24 14q0 9 -9 24t-9 23q0 25 25 25
q16 0 29.5 -23.5t13.5 -48.5q0 -28 -22.5 -46.5t-51.5 -18.5q-41 0 -65 38q-21 33 -21 76q0 98 91 153q75 46 177 46q93 0 176 -43q101 -54 101 -143q0 -53 -46 -94q-9 -8 -15 -12l-5.5 -4t-6.5 -5l-2 -2q66 -7 111 -49q49 -45 49 -112q0 -53 -42 -102q-38 -45 -89 -64
q-46 -17 -52 -17l-98 -21l-42 -6l-64 -5h-4q-12 0 -20 10t-6 23zM286 101q0 -13 3 -47v-3l96 11l70 16q16 5 38 11q33 14 43 19q27 13 48 44.5t21 61.5q0 40 -29 70.5t-67 35.5q-9 2 -32 4h-56l-70 -7l-73 -16v-4q0 -1 1 -25z" />
    <glyph glyph-name="C" unicode="C" horiz-adv-x="640" 
d="M42 341q0 60 17 111q30 89 90 154q72 78 155 78q77 0 127 -71q45 -63 45 -143q0 -42 -11 -65q-21 -43 -59 -71q-41 -28 -88 -28q-54 0 -83.5 34.5t-29.5 89.5q0 48 24 80q26 36 72 36q34 0 58.5 -16t24.5 -48q0 -23 -14 -47q-17 -26 -39 -26q-25 0 -25 25q0 11 14 23
t14 24q0 14 -35 14q-43 0 -43 -66q0 -73 62 -73q35 0 66 26t38 60q3 13 3 29q0 58 -31 107q-36 55 -91 55q-40 0 -80 -29q-58 -42 -94 -115.5t-36 -146.5q0 -90 14 -128q27 -72 102 -126q56 -40 122 -40q81 0 163 62q25 19 34 28l46 46q4 4 15 4q24 0 24 -24q0 -13 -14 -28
q-132 -139 -271 -139q-83 0 -156.5 54t-107.5 134q-22 52 -22 156z" />
    <glyph glyph-name="D" unicode="D" horiz-adv-x="790" 
d="M213 12q0 17 14 23q6 3 28 5h1q5 0 16 1l2 1v32q2 124 5 351q3 169 3 197h-2q-43 -7 -84 -24q-135 -55 -135 -138q0 -22 13 -45q19 -35 58 -35q22 0 45.5 13.5t26.5 33.5v11q0 51 -39 51q-10 0 -16 -25t-26 -25q-25 0 -25 25q0 12 5 28q15 48 62 48q40 0 65 -30t25 -72
q0 -46 -38 -78t-86 -32q-50 0 -85.5 40t-35.5 91q0 78 79 137q61 46 149 69q57 15 123 15q152 0 262 -79q124 -88 124 -233q0 -75 -26 -142q-30 -75 -83 -115q-21 -15 -28 -19q-11 -9 -21 -13l-56 -26l-77 -27l-110 -25l-77 -11q-9 -3 -29 -3h-1q-26 0 -26 25zM357 629h-10
q-8 -1 -9 -1l-5 -1l-2 -95q-5 -293 -5 -483h3l43 9l93 24q16 4 53 20q71 31 109 65q34 31 53 92q16 52 16 108q0 125 -111 198q-96 64 -228 64z" />
    <glyph glyph-name="E" unicode="E" horiz-adv-x="548" 
d="M58 179q0 95 70 142q1 1 16 10q10 4 25 11q3 1 8 2q1 1 2 1l-24 23q-40 44 -40 105q0 77 46 141q50 69 124 77h18q69 0 117 -33q53 -37 53 -102q0 -47 -35 -83t-82 -36q-37 0 -66.5 25t-29.5 61q0 29 22.5 50.5t51.5 21.5q18 0 34 -9t16 -25q0 -25 -25 -25q-6 0 -13.5 4
t-12.5 4q-23 0 -23 -22q0 -14 16 -24t31 -10q25 0 45 21t20 47q0 44 -40 66q-32 18 -80 18q-58 0 -98 -55q-37 -51 -37 -111q0 -71 85 -111q5 -1 13 -5q2 -1 26 -8l29 -8q16 -7 16 -22q0 -26 -26 -26h-2q-35 8 -65 8q-89 0 -123 -71q-11 -23 -11 -54q0 -43 26.5 -77
t67.5 -48.5t90 -14.5q103 0 141 67q11 20 15 37q2 8 3.5 18l3 20t9 15.5t14.5 5.5q26 0 26 -26q0 -27 -12 -62q-22 -63 -79 -96q-52 -30 -123 -30q-96 0 -161 48q-72 53 -72 145z" />
    <glyph glyph-name="F" unicode="F" horiz-adv-x="732" 
d="M350 15v66q0 66 1 217.5t1 216.5v74q-1 1 -3 1l-100 43q-33 14 -70 14q-79 0 -108 -76q-9 -24 -9 -46q0 -29 27.5 -50t57.5 -21q34 0 51 32q7 14 7 21q0 20 -24 20q-4 0 -11 -3t-11 -3q-26 0 -26 25q0 32 48 32q31 0 53 -20.5t22 -51.5q0 -27 -20 -55q-34 -47 -89 -47
q-51 0 -94 35.5t-43 85.5q0 3 1 8v7q11 72 55 115t115 43q24 0 43 -4q12 -4 27 -8l128 -52q49 -20 114 -20q19 0 34 1q64 4 107 24q14 7 24 14t19.5 15t18.5 8q25 0 25 -26q0 -13 -15 -26q-70 -61 -215 -61q-42 0 -84 9h-3v-8q-1 -8 -1 -9q-1 -33 -1 -190q28 0 83 1h82h46
q20 -7 20 -25q0 -22 -20 -25l-211 -3v-12q-1 -10 -1 -11q0 -98 -1 -274q-7 -20 -26 -20q-21 0 -24 19z" />
    <glyph glyph-name="G" unicode="G" horiz-adv-x="736" 
d="M74 261v21q0 26 3 35v1q0 7 7 47q6 36 12 47l21 59l18 35q40 75 96 124q70 62 141 62q27 0 60 -12q58 -21 92 -67t34 -107q0 -58 -30 -104q-31 -49 -85 -65q-25 -8 -59 -8q-55 0 -90.5 30t-35.5 84q0 24 3 35q11 39 49 63.5t80 24.5q35 0 63.5 -23t28.5 -57
q0 -50 -66 -70q-19 -6 -32 -6q-25 0 -25 24q0 17 14 24q3 1 28 7q30 7 30 21q0 29 -43 29q-31 0 -55.5 -20t-24.5 -50q0 -65 75 -65q35 0 57 10q67 31 67 115q0 55 -40 95t-94 40q-37 0 -77 -25q-43 -26 -85 -83q-86 -115 -86 -274q0 -13 1 -29q9 -148 102 -188
q23 -10 63 -10q158 0 248 198v10q0 3 -1 11l-1 3l-158 -21q-27 0 -27 25q0 22 21 25l311 42q25 0 25 -26q0 -22 -18 -24l-102 -14l19 -250q0 -26 -26 -26q-23 0 -25 23q-1 16 -4 48v2l-7 86q-107 -163 -257 -163q-55 0 -91 18q-124 62 -124 263z" />
    <glyph glyph-name="H" unicode="H" horiz-adv-x="903" 
d="M707 116l-8 163l-55 -6l-127 -10l-100 -4h-1.5h-8.5q-8 -1 -10 -1v-53v-10l-10 -170q-2 -26 -26 -26q-25 0 -25 26v6l10 180v47l-78 5l-32 5t-41 11q-28 10 -28 29q0 25 25 25q6 0 15.5 -4t12.5 -5q29 -7 45 -9q26 -2 60 -5q2 0 10 1h9v8l-8 134q0 6 -10 55
q-19 93 -63 118q-14 8 -45 8q-45 0 -76.5 -35t-31.5 -81q0 -17 4 -29q6 -18 22 -32t34 -14q24 0 47 22t23 46q0 12 -10 12q-6 0 -13.5 -16t-23.5 -16q-25 0 -25 25q0 23 19.5 40.5t43.5 17.5q26 0 43 -18.5t17 -44.5q0 -46 -37.5 -82.5t-83.5 -36.5q-43 0 -80 41
q-32 36 -32 85q0 68 47.5 117.5t114.5 49.5q93 0 132 -92q6 -10 12 -31q10 -35 13 -47l11 -71l8 -134h38l196 13l67 7l-13 322q0 25 26 25q22 0 25 -21q2 -32 4 -77v0l9 -244l133 15q27 0 27 -25q0 -23 -19 -25l-138 -16v-1v0v-1l8 -181q3 -68 3 -78v-23q-5 -20 -25 -20
q-24 0 -25 36q0 11 -3 49q-2 30 -2 48v3z" />
    <glyph glyph-name="I" unicode="I" horiz-adv-x="711" 
d="M215 13q0 25 21 26l136 5q3 0 19.5 1t18.5 1v15q0 179 -5 571l-105 5h-4q-3 1 -34 1q-35 0 -60 -1q-21 -1 -44.5 -9.5t-42.5 -27.5q-22 -22 -22 -45q0 -24 17.5 -45.5t41.5 -27.5q11 -3 26 -3q18 0 28 3q66 19 66 50q0 18 -15 18q-6 0 -9 -2q2 -33 -25 -33q-26 0 -26 33
q0 24 18 38.5t42 14.5q28 0 47 -20.5t19 -48.5q0 -47 -51 -78q-44 -27 -94 -27q-53 0 -93 36q-43 38 -43 90q0 44 34 81q32 34 76 46q33 9 104 9h21l256 -11h22h26q22 0 56 3q4 0 19 3q12 2 19 2q25 0 25 -26q0 -19 -19 -24q-53 -9 -121 -9q-17 0 -51 1t-51 1q0 -261 4 -581
h5q16 0 46.5 1t45.5 1q18 0 31.5 -1t13.5 -25q0 -26 -25 -26h-1q-1 0 -8 1h-7q-208 -6 -323 -11q-25 2 -25 25z" />
    <glyph glyph-name="J" unicode="J" horiz-adv-x="652" 
d="M42 151q0 34 10.5 63t40.5 62q41 45 97 75q61 33 117 33q52 0 92 -36t40 -88q0 -64 -54 -115q-3 -3 -8 -7q-40 -24 -102 -24q-67 0 -67 60q0 32 24 56t55 24q44 0 44 -30q0 -24 -26 -24q-3 0 -8.5 1.5t-7.5 1.5q-29 0 -29 -30q0 -20 24 -20q13 0 37 12q67 33 67 95
q0 31 -24.5 52t-56.5 21q-55 0 -123 -45.5t-85 -96.5q-6 -16 -6 -39q0 -68 48 -92q34 -17 116 -17q112 0 173 66q8 8 19 26q5 17 11 34l7 25l11 126q1 11 1 32v99l-8 166v2q0 13 -2 17q-3 0 -21 1h-22h-25l-19 -1q-29 0 -95 -6q-17 -2 -51 -8q-98 -18 -98 -82
q0 -24 14 -42.5t37 -18.5q19 0 42.5 15.5t23.5 33.5q0 9 -8 18.5t-17 9.5q-7 0 -16 -18.5t-25 -18.5q-25 0 -25 25q0 10 9 26q20 37 56 37q30 0 53 -24.5t23 -54.5q0 -40 -38.5 -70.5t-79.5 -30.5q-43 0 -72 36q-28 33 -28 77q0 96 115 126q39 10 46 10l99 10q-1 0 25.5 1
t36.5 1h31l303 -20q42 -3 42 -27q0 -17 -16 -25q-1 0 -3 -1h-13l-76 9l-116 9q-7 -1 -19 0q-16 1 -20 1v-9l5 -88v-2q0 -3 1.5 -35t1.5 -36v-130l-5 -83l-11 -85q0 -25 -9 -45q-6 -12 -38 -48q-74 -81 -212 -81q-213 0 -213 159z" />
    <glyph glyph-name="K" unicode="K" horiz-adv-x="923" 
d="M439 350q-1 0 -8 1h-9q-51 0 -120 -31l-12 -6q-4 -2 -5 -3q-1 -70 -2 -161q0 -10 -1 -23v-2l-6 -107q-2 -27 -25 -27q-26 0 -26 28v6l8 143v190l-9 124q-1 4 -9 50q-2 5 -6 21q-16 60 -43 71q-8 3 -28 3q-35 0 -56 -23t-21 -59t29 -36q13 0 23.5 10t12.5 23q0 1 1 8v8
q2 20 25 20q26 0 26 -32q0 -34 -27 -61.5t-61 -27.5q-38 0 -59 26t-21 65q0 56 36.5 93t91.5 37q53 0 84 -35q20 -22 32 -64q11 -38 11 -40l13 -82l5 -82l360 291q5 5 14 5q26 0 26 -26q0 -12 -9 -19l-277 -225q5 0 14 1h13q91 0 122 -119l19 -79q8 -24 8 -25l24 -129
q24 -127 135 -127q113 0 113 133q0 107 -72 107q-29 0 -51 -16t-22 -44q0 -9 1 -13q13 -25 36 -25q14 0 30 20t29 20q25 0 25 -26q0 -12 -14 -27q-38 -39 -70 -39q-16 0 -45 15q-43 23 -43 74q0 48 36.5 80t85.5 32q34 0 64 -17q61 -34 61 -142q0 -82 -40 -131
q-44 -52 -123 -52q-155 0 -187 176l-20 109q-34 187 -87 193z" />
    <glyph glyph-name="L" unicode="L" horiz-adv-x="764" 
d="M182 15q0 4 1 11.5t1 10.5l14 256l-6 199q0 8 -7 50q-2 11 -7 27q-13 56 -58 56q-24 0 -41.5 -20.5t-17.5 -45.5q0 -20 26 -33t26 -29q0 -26 -24 -26q-8 0 -27 10q-52 28 -52 78q0 47 32 81.5t79 34.5q87 0 110 -105l9 -50l7 -88q-1 -13 0 -69q1 -69 1 -70v-33
q0 -3 -1.5 -37.5t-1.5 -38.5v-4l-8 -123h1q50 16 95 16q22 0 32 -2l112 -23q24 -5 52 -5q70 0 119 53q22 24 22 51q0 29 -23.5 53t-53.5 24q-20 0 -38 -12.5t-18 -30.5q0 -14 10.5 -25t24.5 -11q12 0 25.5 15t24.5 15q25 0 25 -25q0 -11 -14 -27q-26 -29 -62 -29
q-34 0 -59.5 26.5t-25.5 60.5q0 40 33 67t74 27q50 0 89 -39t39 -90q0 -58 -67 -114q-47 -40 -126 -40q-1 0 -19 1q-21 0 -49 6l-102 22q-9 2 -26 2q-39 0 -76 -14q-9 -4 -20 -8q-24 -12 -29 -12q-25 0 -25 26z" />
    <glyph glyph-name="M" unicode="M" horiz-adv-x="1212" 
d="M872 87v28q2 10 2 45v2l9 298v15v15q0 3 -1.5 25t-1.5 26q-8 67 -55 67q-36 0 -72 -35q-22 -21 -24 -25q-24 -24 -31 -38l-40 -61l-2 -2.5t-3 -3.5v-1q0 -11 1 -94t1 -95q0 -37 -1 -58q0 -2 -1 -21t-1 -21v-1l-12 -131q-2 -21 -26 -21q-25 0 -25 26v0l14 161l1 21v28
q1 1 1 17q0 134 -1 134q0 7 -1.5 34.5t-1.5 30.5q-2 17 -6 40q-21 129 -94 129q-33 0 -81 -48q-9 -9 -29 -37q-15 -21 -26 -43l-35 -70l-10 -24v-4q0 -18 1.5 -114.5t1.5 -115.5q0 -69 -5 -154q-3 -21 -25 -21q-25 0 -25 29q0 14 2 63q1 25 1 80v51q0 26 -1 29v1l-7 215
q-1 24 -10 63q-5 22 -11 44q-23 87 -79 87q-38 0 -63 -46q-22 -38 -22 -79q0 -36 19 -45q7 -3 13 -3q12 0 23 13l15 29.5t23 15.5q25 0 25 -25q0 -9 -6 -22q-29 -62 -79 -62q-40 0 -62.5 28t-22.5 69q0 64 36 117q40 60 101 60q84 0 122 -104l9 -28l15 -70h1q11 21 29 50
q78 122 161 122q107 0 142 -150l1 -1v1q16 22 38 49q71 89 145 89q22 0 39.5 -7.5t23.5 -13.5q45 -40 45 -165v-27q-5 -85 -5 -226v-3l-6 -134q0 -7 1 -26.5t1 -29.5q0 -2 5 -37q10 -69 46 -83q18 -7 49 -7q58 0 93 46q32 42 32 102q0 29 -15 54q-18 28 -45 28
q-25 0 -49 -19.5t-24 -43.5q0 -15 10 -29t25 -14t34 21q16 18 26 18q25 0 25 -26q0 -11 -15 -28q-32 -36 -70 -36q-36 0 -61 29t-25 65q0 45 39 79t85 34q49 0 80 -40.5t31 -91.5q0 -81 -47 -139q-50 -61 -128 -61q-50 0 -81 17q-73 40 -73 221z" />
    <glyph glyph-name="N" unicode="N" horiz-adv-x="829" 
d="M338 24l-15 378q0 58 -8 174l-5 5q-59 49 -104 49q-59 0 -101 -35q-44 -38 -44 -96q0 -77 74 -77q67 0 103 52q17 25 17 46q0 24 -11 24q-15 0 -32 -15q-12 -8 -18.5 -13t-13.5 -5q-25 0 -25 25q0 16 26 34q36 25 62 25q30 0 47 -22t17 -52q0 -31 -18 -62
q-50 -88 -153 -88q-58 0 -92 34.5t-34 93.5q0 79 59 131q56 51 136 51q53 0 114 -43q19 -13 27 -20q3 -3 7 -6l14 -14l347 -505l5 554q6 22 26 22q21 0 25 -23v-9q0 -135 -4 -425q0 -77 -1 -170q-1 -28 -2 -33q-5 -18 -24 -18q-14 0 -20 9l-349 509l5 -119v-3l10 -273
q3 -66 3 -95v-11q-5 -20 -25 -20q-27 0 -25 36z" />
    <glyph glyph-name="O" unicode="O" horiz-adv-x="690" 
d="M74 335q0 130 84 233q89 109 212 109q122 0 210 -110q83 -104 83 -232q0 -129 -84 -234q-88 -110 -210 -110q-123 0 -211 110q-84 104 -84 234zM125 336q0 -108 67 -197q71 -95 172 -97q103 -2 178 93q70 89 70 198q0 110 -68 199q-73 95 -177 95q-100 0 -173 -95
q-69 -89 -69 -196z" />
    <glyph glyph-name="P" unicode="P" horiz-adv-x="654" 
d="M284 16q-3 39 -3 105v4l-9 194l-16 184q-3 16 -7 43q-1 6 -4 14q-7 21 -7 24q0 26 25 26q26 0 33 -42l10 -59l13 -129l7 -104h25q11 0 58 5q16 2 59 11q61 13 102 41q54 36 54 88q0 62 -86 122q-117 82 -258 82q-48 0 -77 -11q-45 -17 -77.5 -58t-32.5 -88q0 -65 47 -65
q18 0 37.5 13t19.5 30q0 9 -9 9t-22 -10.5t-22 -10.5q-26 0 -26 26q0 14 24 30t47 16q24 0 42 -17.5t18 -41.5q0 -38 -35 -66.5t-74 -28.5q-47 0 -74 36q-24 32 -24 81q0 98 90 163q62 45 150 45q71 0 149 -25l54 -21l45 -23l20 -12q125 -81 125 -175q0 -78 -77 -129
q-59 -40 -149 -56q-44 -8 -57 -8h-1l-63 -5l7 -203q0 -26 -26 -26q-21 0 -25 22z" />
    <glyph glyph-name="Q" unicode="Q" horiz-adv-x="855" 
d="M521 29h-3q-56 -26 -124 -26q-137 0 -228.5 97t-91.5 234q0 141 91.5 242.5t229.5 101.5q88 0 164 -49q73 -47 113.5 -126.5t40.5 -169.5q0 -126 -87 -223q-20 -22 -36 -36q-8 -4 -17 -13l-2 -2l1 -1q31 -16 77 -16q79 0 118 41q7 8 9 18q1 1 1 6q0 15 -12 28t-27 13
q-10 0 -16 -7l-1 -2l2 -1q16 -12 16 -24q0 -25 -25 -25q-18 0 -31 16t-13 34q0 25 20.5 42.5t46.5 17.5q35 0 63 -28t28 -63q0 -28 -17 -52q-45 -65 -161 -65h-9l-36 3t-84 35zM125 335q0 -115 75 -197q78 -85 193 -85q32 0 58 7q7 1 22 6l1 1l-32 32l-53 61l-57 78
q-4 7 -4 14q0 25 25 25q14 0 21 -10l26 -37l58 -72l50 -52l16 -15h1q3 0 6 3q9 7 19 14q112 87 112 227q0 116 -75 202q-78 90 -192 90q-116 0 -195 -89q-75 -85 -75 -203z" />
    <glyph glyph-name="R" unicode="R" horiz-adv-x="973" 
d="M375 233l-83 -31v-7q0 -5 -1 -8v-27q-1 -25 -1 -28v-1l-6 -76q0 -3 -1 -19.5t-1 -18.5q-6 -21 -26 -21q-25 0 -25 25v1l10 186v123l-8 134q-3 20 -8 50q0 6 -7 32q-5 20 -10 29q-9 18 -22 21h-9q-38 0 -76.5 -44t-39.5 -84q-1 -24 14.5 -41.5t38.5 -17.5q16 0 29 11
t13 26q0 7 -6 14.5t-13 7.5h-2q-14 -12 -23 -12q-25 0 -25 25q0 17 16 27.5t34 10.5q28 0 48.5 -22.5t20.5 -50.5q0 -36 -27.5 -62t-63.5 -26q-44 0 -74.5 30.5t-30.5 73.5q0 64 52.5 125t115.5 61q36 0 59 -24h2q117 56 210 56q124 0 185 -103q23 -39 23 -83
q0 -87 -108 -168q-29 -22 -39 -26l-70 -39v-1q89 -54 147 -134q14 -19 22 -34l47 -85q34 -61 102 -61q62 0 105 32q48 36 48 96q0 44 -27 78q-30 35 -73 35q-54 0 -54 -34q0 -16 10 -30t26 -14q12 0 22 10t20 10q25 0 25 -26q0 -24 -30 -38q-15 -7 -36 -7q-38 0 -63 28.5
t-25 67.5t34 64q31 21 72 21q65 0 107.5 -50t42.5 -116q0 -81 -63 -131q-59 -47 -143 -47q-97 0 -147 91l-47 85q-8 14 -18 28q-61 83 -144 124q-14 7 -21 9h-4zM289 407q0 -22 2 -58q1 -30 2 -92h1l61 23l86 40q8 2 44 25l34 23q87 64 87 128q0 27 -17 57q-46 82 -145 77
q-91 -4 -181 -51q-1 0 -1 -2h1q1 -3 4.5 -15t3.5 -14l9 -48z" />
    <glyph glyph-name="S" unicode="S" horiz-adv-x="553" 
d="M58 167q0 71 41 124q44 57 113 57q56 0 89 -35.5t33 -92.5q0 -46 -23 -82q-27 -40 -70 -40q-33 0 -61 22t-28 55q0 25 16.5 44.5t41.5 19.5q37 0 37 -27q0 -25 -24 -25q-3 0 -7 1t-5 1h-1q-6 -6 -6 -13q0 -12 12 -19.5t24 -7.5q22 0 34 26q9 20 9 45q0 77 -71 77
q-48 0 -76 -43q-26 -38 -26 -88v-16q7 -45 34 -67q17 -13 72 -34q34 -13 88 -13q171 0 171 100q0 42 -47 99q-6 8 -15 17l-131 128q-9 9 -30 34q-50 60 -50 122q0 60 41.5 101.5t101.5 41.5q53 0 96 -28q48 -33 48 -83q0 -47 -38.5 -91.5t-85.5 -44.5q-37 0 -63.5 23
t-26.5 59q0 28 19 49t45 21q51 0 51 -31q0 -25 -25 -25q-4 0 -12 3t-13 3q-14 0 -14 -21q0 -29 39 -29q25 0 49 28.5t24 54.5q0 29 -34 47q-28 15 -59 15q-39 0 -65.5 -27.5t-26.5 -65.5q0 -47 53 -107q1 -2 8 -9l143 -141l20 -23q49 -59 49 -120q0 -70 -68 -111
q-52 -33 -131 -40h-24q-104 0 -169 40q-76 47 -76 142z" />
    <glyph glyph-name="T" unicode="T" horiz-adv-x="697" 
d="M408 23q-1 158 -4 475l-1 72h-3l-77 11q-19 5 -49 12q-41 11 -79 30q-23 7 -40 7q-35 0 -62 -26.5t-31 -61.5v-7q-1 -6 -1 -7q0 -2 1 -15q1 -24 16 -48q17 -28 40 -30h11q53 0 78 37q11 13 11 24q0 9 -10.5 18t-20.5 9q-6 0 -14.5 -9t-19.5 -9q-24 0 -24 25q0 15 19 31
q15 13 38 13q31 0 57 -23t26 -54q0 -49 -48 -83q-43 -31 -93 -31q-54 0 -88 47q-30 42 -30 98q0 60 42 106.5t102 46.5q26 0 52 -8q78 -34 150.5 -45t140.5 -11q1 0 13 1l125 7l58 7q25 0 25 -25q0 -23 -18 -25l-127 -13q-8 -2 -41 -2h-77q0 -88 2 -266t2 -267v-12
q-5 -22 -25 -22q-23 0 -26 23z" />
    <glyph glyph-name="U" unicode="U" horiz-adv-x="739" 
d="M267 117q-8 45 -9 96q0 3 -2 63q-2 56 -2 63v2v24q-1 21 -1 23v2l-5 103q-2 15 -5.5 37.5t-5.5 30.5q-14 51 -37 62q-9 3 -28 3q-56 0 -93 -53q-34 -48 -34 -106q0 -18 2 -24q10 -28 44 -28q14 0 32 10q35 20 35 62q0 20 -11 20q-5 0 -14.5 -3.5t-13.5 -3.5q-26 0 -26 25
q0 34 55 34q29 0 45.5 -21t16.5 -51q0 -48 -35.5 -85t-82.5 -37q-49 0 -82 40q-16 19 -16 63q0 80 49 142q52 67 130 67q58 0 88 -42q22 -32 33 -99q6 -38 6 -57v-1l8 -263q0 -1 1 -12.5t1 -13.5v-1q1 -3 3 -23.5t2 -24.5l5 -25q12 -59 40 -72q6 -3 27 -3q59 0 117 66
q23 26 30 37l36 56l40 80v46q-1 30 -1 45v45l18 233q2 30 27 30t25 -25v-4l-15 -148q-4 -60 -4 -96v-18q-1 -18 -1 -24t1 -23v-18q0 -6 2 -44t2 -45v-1l12 -88q0 -13 13 -55q5 -14 11 -35q5 -12 11 -25q1 -2 1 -9q0 -25 -24 -25q-14 0 -22 11q-4 7 -8 17q-7 20 -15.5 47.5
t-17.5 66.5q-6 32 -6 40l-1 2l-39 -61q-2 -4 -27 -35q-77 -95 -165 -95q-97 0 -120 129z" />
    <glyph glyph-name="V" unicode="V" horiz-adv-x="832" 
d="M394 373l-58 122q-5 11 -29 50q-50 82 -119 82q-44 0 -77.5 -32.5t-33.5 -76.5q0 -30 25 -47q21 -15 52 -15q45 0 67 39q9 16 9 27v3q-10 6 -17 6q-5 0 -13.5 -13t-21.5 -13q-25 0 -25 24q0 11 10 26q18 27 49 27q21 0 37 -9q32 -18 32 -49q0 -48 -39 -84t-87 -36
q-53 0 -91 31.5t-38 83.5q0 64 48 111.5t112 47.5q80 0 129 -58l22 -28l33 -54l75 -156l101 -292l150 365l71 112q2 5 36 47l15 18q15 15 27 15q24 0 24 -25q0 -12 -4 -16l-30 -33l-64 -92l-207 -475q-6 -13 -22 -13q-18 0 -23 15z" />
    <glyph glyph-name="W" unicode="W" horiz-adv-x="1200" 
d="M759 463l-28 57l-2 -2l-123 -216l-121 -294q-4 -10 -21 -10q-20 0 -24 19l-63 278l-47 131l-37 78q-5 10 -24 43q-1 2 -22 31q-35 49 -78 49q-46 0 -76.5 -39t-30.5 -86q0 -20 3 -29q7 -22 29 -36t46 -14q26 0 49 15q27 16 27 40q0 54 -39 63q2 0 -9 1q-26 0 -26 -15
q0 -13 15.5 -25.5t15.5 -24.5q0 -25 -24 -25q-12 0 -26 11q-32 25 -32 65q0 31 23 48t54 17q44 0 71.5 -35t27.5 -80q0 -23 -6 -36q-14 -32 -50 -51t-72 -19q-38 0 -75 24q-54 35 -54 106q0 68 46.5 122t112.5 54q73 0 130 -84q24 -36 28 -44l44 -91l72 -202l30 -157
l172 383l38 58q3 8 15 20q17 21 36 21q17 0 33 -22l14 -25l160 -443l150 451q5 16 24 52q17 32 34 32q24 0 24 -26q0 -8 -2 -11l-18 -33l-187 -552q-5 -15 -24 -15q-18 0 -23 14z" />
    <glyph glyph-name="X" unicode="X" horiz-adv-x="1050" 
d="M541 286h-1l-1 -1l-209 -262q-9 -11 -21 -11q-25 0 -25 25q0 9 3 14l225 282q1 1 2 3v0v1l-85 147l-39 56l-24 28q-52 57 -113 57q-60 0 -108 -40q-51 -42 -51 -101q0 -38 30 -63t69 -25q28 0 55 13q33 16 33 41q0 17 -16 30t-34 13q-23 0 -23 -25v-4q4 -2 8 -2
q6 0 15 5.5t15 5.5q25 0 25 -26q0 -16 -17.5 -26t-35.5 -10q-26 0 -44 15.5t-18 40.5q0 32 22 54t53 22q39 0 70 -27t31 -65q0 -49 -47 -79q-41 -27 -92 -27q-60 0 -105.5 40t-45.5 99t41 111q40 49 98 69q35 12 75 12q79 0 143 -68q20 -21 29 -34l47 -67l74 -127l239 300
q10 12 22 12q25 0 25 -26q0 -9 -4 -14l-253 -318l-2 -4v0l95 -169l41 -59q9 -11 25 -29q45 -51 114 -51q70 0 116 49q21 22 21 56q0 45 -56 70q-22 10 -40 10q-22 0 -39 -16t-17 -38q0 -31 30 -31q12 0 27 11.5t25 11.5q25 0 25 -25q0 -20 -27.5 -35t-49.5 -15
q-33 0 -57 24.5t-24 57.5q0 45 31.5 75.5t76.5 30.5q35 0 75 -22q71 -39 71 -109q0 -69 -61 -115q-57 -42 -128 -42q-97 0 -168 88q-25 31 -32 43z" />
    <glyph glyph-name="Y" unicode="Y" 
d="M227 -164q0 74 41 131q45 64 115 64q46 0 76.5 -27.5t30.5 -72.5q0 -41 -25 -68t-65 -27q-27 0 -49 17t-22 44q0 16 12.5 33t28.5 17q25 0 25 -25q0 -10 -14 -24v-3l5 -5t14 -3q39 0 39 44q0 49 -54 49q-49 0 -81 -49q-27 -42 -27 -95q0 -98 106 -98q92 0 162 75
q20 21 26 44q2 6 6 24l12 164v57v70v0q-74 -66 -163 -66q-96 0 -138 59q-16 22 -23 63q-4 22 -4 29l-3 280q0 16 -3 28q-9 38 -40 47q-17 5 -38 5q-67 0 -95 -65q-5 -11 -5 -23q0 -17 9.5 -33t26.5 -16q25 0 31 20v7q0 12 -10.5 21.5t-10.5 19.5q0 26 25 26q21 0 35 -24
q12 -20 12 -43q0 -33 -24.5 -55.5t-58.5 -22.5q-37 0 -61.5 31t-24.5 69q0 22 13 51q18 41 56 64.5t83 23.5q22 0 51 -8q51 -14 69 -62q12 -31 13 -98v-178q3 -61 9 -88q13 -51 46 -66q28 -13 60 -12q100 3 151 83q11 17 11 21v82l-6 163v3l-6 135v6q0 28 25 28q22 0 26 -26
q2 -38 5 -115q1 -9 1 -19v-1l4 -134q0 -6 1.5 -80.5t1.5 -80.5v-154l-7 -149q-1 -24 -6 -43q-5 -33 -13 -50q-31 -62 -95.5 -100t-136.5 -38q-73 0 -114 39t-41 110z" />
    <glyph glyph-name="Z" unicode="Z" horiz-adv-x="838" 
d="M494 -13l-180 12q-15 1 -31 1h-3l-161 -7q-3 -1 -7 -1q-27 0 -27 25q0 11 7 18l557 579h-1q-39 -3 -75 -3h-9q-43 0 -49 3l-117 17q-1 0 -19.5 1t-24.5 1q-16 1 -17 1q-185 0 -234 -102q-10 -21 -10 -44q0 -36 27.5 -68t62.5 -32q13 0 20 3q62 26 62 69q0 18 -9 38
q-12 23 -28 23q-25 0 -25 -21q0 -5 6 -14.5t6 -15.5q0 -26 -25 -26q-17 0 -28 19t-11 37q0 30 23.5 51t53.5 21q39 0 65 -37q22 -33 22 -75q0 -72 -79 -111q-26 -13 -52 -13q-56 0 -99 47.5t-43 104.5q0 36 14 66q60 130 279 130h32q2 0 13.5 -1t12.5 -1h2l126 -18
q8 0 26 -1t27 -1q4 0 23 1q15 1 23 0l100 13q25 0 25 -25q0 -11 -3 -15l-567 -588h5q17 0 50 1.5t49 1.5h23q55 -5 76 -5h2q1 0 12.5 -1t13.5 -1h1l142 -10q57 -4 55 -4q140 0 140 104q0 95 -74 95q-82 0 -107 -55q-3 -9 -3 -20q0 -22 19 -37t41 -15q28 0 48 21q4 4 4 10
q0 7 -6 13q-5 -8 -10 -15t-17 -7q-24 0 -24 27q0 20 14.5 33t33.5 13q26 0 43 -19t17 -45q0 -37 -32.5 -60t-70.5 -23q-44 0 -77.5 30.5t-33.5 73.5q0 59 53 95q47 31 110 31q60 0 93 -45q30 -40 30 -102q0 -78 -57 -118q-51 -36 -133 -36h-19q-10 0 -31 3q-11 1 -12 2
q-6 0 -48 3h-1z" />
    <glyph glyph-name="bracketleft" unicode="[" horiz-adv-x="293" 
d="M83 -53q-2 6 -2 8l1 741q0 20 15 18q10 -2 17 0q8 2 5 2q2 -1 4 -6h21q36 2 80 4q18 0 23 -2q9 -4 10 -20q1 -22 -18 -25q-1 0 -13 -1q-30 -2 -41 -2h-6q-1 -2 -3 0q-22 -2 -50 -4v-679h41h4q26 1 80 2q17 1 24 -2.5t8 -19.5q1 -22 -18 -25h-13q-30 -2 -41 -1h-6
q-1 -3 -3 0q-40 -1 -86 -1q-5 -2 -10 -2q-16 0 -23 15z" />
    <glyph glyph-name="backslash" unicode="\" horiz-adv-x="462" 
d="M42 661q0 25 26 25q15 0 22 -13l343 -636q2 -4 2 -10q0 -26 -25 -26q-15 0 -24 16l-341 633q-3 3 -3 11z" />
    <glyph glyph-name="bracketright" unicode="]" horiz-adv-x="309" 
d="M233 -53q3 6 2 8l-1 741q0 20 -15 18q-10 -2 -16 0q-8 2 -6 2q-1 -1 -4 -6h-21q-36 2 -80 4q-17 0 -24 -3t-9 -19q-1 -22 19 -25l13 -1q30 -2 41 -2h5q2 -2 3 0q23 -2 50 -4l1 -679h-42h-4q-26 1 -80 2q-17 1 -22 -2q-9 -4 -10 -20q-1 -22 19 -25h13q30 -2 41 -1h5
q2 -3 3 0q41 -1 86 -1q5 -2 11 -2q15 0 22 15z" />
    <glyph glyph-name="asciicircum" unicode="^" horiz-adv-x="512" 
d="M58 361q0 10 5 16l34 40l79 117l80 141q7 12 21 12q16 0 22 -11l65 -129l51 -83q8 -13 24 -33q5 -5 5 -6l16 -16q8 -6 16.5 -13.5t8.5 -17.5q0 -25 -25 -25q-22 0 -50 34l-19 22l-43 63l-72 133l-101 -167l-52 -69q-2 -3 -18 -21q-11 -12 -22 -12q-25 0 -25 25z" />
    <glyph glyph-name="underscore" unicode="_" horiz-adv-x="407" 
d="M10 -62q0 21 21 25q11 0 156 2l219 2q30 0 30 -25q0 -21 -23 -25q-168 -4 -353 -4h-31q-19 5 -19 25z" />
    <glyph glyph-name="grave" unicode="`" horiz-adv-x="263" 
d="M137 563l-3 4q-1 0 -2 2q-18 19 -34 38q-20 23 -20 34q0 21 20 21q14 0 26 -12l20 -24l3 -3q18 -19 53 -60q14 -15 14 -22q0 -8 -10 -17q-16 -15 -31 -2l-9 10z" />
    <glyph glyph-name="a" unicode="a" horiz-adv-x="534" 
d="M58 118q0 74 79 165q8 12 20 21q92 90 162 90q39 0 62 -37q20 -32 20 -75q0 -50 -24 -107v-4q5 -51 7 -60q15 -63 48 -63q29 0 38 33q5 21 7 23q6 12 21 12q25 0 25 -26q0 -13 -7 -31q-25 -62 -84 -62q-55 0 -82 60q-5 27 -11 55v2h-1q-24 -29 -33 -39q-67 -76 -134 -76
q-47 0 -80 36t-33 83zM109 118q0 -26 18 -47t44 -21q33 0 73 37q12 11 26 26.5t31 37.5l26 38q22 38 22 92q0 62 -31 62q-19 0 -48 -16q-69 -38 -122 -112q-39 -54 -39 -97z" />
    <glyph glyph-name="b" unicode="b" horiz-adv-x="418" 
d="M111 675q16 0 24 -17l1 -3v-293h2q68 37 121 37q61 0 100 -71q33 -61 33 -135q0 -104 -80 -154q-66 -42 -176 -42h-26q-24 3 -24 20l1 641q6 17 24 17zM137 300v-253q1 0 7 1h6q24 0 28 2q128 9 156 82q2 5 2 25l2 40q1 21 1 36q0 12 -3 29q-15 88 -82 86q-40 -1 -92 -31
q-20 -11 -23 -15z" />
    <glyph glyph-name="c" unicode="c" horiz-adv-x="423" 
d="M58 155q0 61 32.5 125t81.5 93q35 21 72 21q47 0 81 -24q37 -28 37 -73q0 -30 -19.5 -52t-48.5 -22t-49 20t-20 49q0 43 28 43q25 0 25 -25v-8q-1 -6 -1 -9v-7q1 -12 17 -12h5q12 3 12 23q0 23 -24 36q-19 10 -45 10q-20 0 -45 -14q-77 -43 -87 -127q-1 -3 -1 -47
q0 -48 24.5 -80t70.5 -32q81 0 138 68q19 23 29 23q25 0 25 -26q0 -15 -22 -37q-78 -79 -169 -79q-67 0 -108 48q-39 45 -39 115z" />
    <glyph glyph-name="d" unicode="d" horiz-adv-x="418" 
d="M339 675q-16 0 -24 -17l-1 -3v-293h-2q-68 37 -121 37q-61 0 -99 -71q-34 -61 -34 -135q0 -104 80 -154q67 -42 176 -42h26q24 3 24 20l-1 641q-6 17 -24 17zM313 300v-253q-1 0 -6 1h-7q-24 0 -28 2q-128 9 -156 82q-2 5 -2 25l-2 40q-1 21 -1 36q0 12 3 29q16 88 82 86
q40 -1 92 -31q20 -11 23 -15z" />
    <glyph glyph-name="e" unicode="e" horiz-adv-x="461" 
d="M74 158q0 56 17 114q19 69 53 99t77 30q38 0 67.5 -27.5t29.5 -65.5q0 -35 -23.5 -82.5t-49.5 -66.5t-40 -26l-62 -32q0 -3 5 -8q46 -49 113 -49q74 0 114 58q10 14 15.5 26.5t12.5 26.5t22 14q25 0 25 -25q0 -6 -3 -13q-56 -138 -187 -138q-73 0 -128 45q-58 48 -58 120
zM125 150l1 -1l2 1q37 18 54 28q30 18 50 36q10 9 23 43.5t13 50.5q0 17 -15.5 29.5t-32.5 12.5q-55 0 -84 -80q-11 -30 -11 -112v-8z" />
    <glyph glyph-name="f" unicode="f" horiz-adv-x="471" 
d="M26 -134q0 58 25 95q29 41 85 41q41 0 70.5 -27t29.5 -68q0 -30 -21 -52t-50 -22q-32 0 -49 32q-9 17 -9 25q0 10 7.5 18t17.5 8q15 0 23.5 -16t9.5 -16q7 0 13.5 5.5t6.5 18.5q0 42 -50 42q-35 0 -47 -26t-11 -61q1 -49 23 -85q26 -43 71 -43q60 0 76 66q3 13 6 31
q1 3 3 22t2 23v45q0 52 -1 78q-3 12 -3 41v2l-15 150h-4q-12 0 -36.5 -1t-36.5 -1h-13q-20 3 -20 25q0 24 20 25l85 4v6q0 21 -4 37v1l-9 106q0 3 -1 26t-1 25v15q-1 14 -1 19q0 3 1 17v17q0 12 1 14v2q4 49 15 75q14 34 47 58q27 19 60 19q47 0 82.5 -34t35.5 -81
q0 -53 -49 -79q-17 -9 -24 -9q-26 0 -26 25q0 14 24.5 28.5t24.5 35.5q0 24 -21 43.5t-46 19.5q-17 0 -34 -12q-32 -22 -38 -86q0 -2 -1 -15.5t-1 -16.5v-43q0 -3 1.5 -28.5t1.5 -28.5v-2l14 -152q1 0 3 -1q18 0 55.5 2t56.5 2h2q26 0 26 -25q0 -21 -21 -26q-39 0 -116 -4
v-8l13 -139q4 -52 4 -83v-77l-5 -62q-2 -11 -6 -29q-24 -113 -128 -113q-67 0 -108 59q-36 52 -36 123z" />
    <glyph glyph-name="g" unicode="g" horiz-adv-x="472" 
d="M80 -264q0 94 69 144q32 23 64 23q51 0 83 -55q12 -21 12 -44q0 -36 -28 -58t-65 -22q-55 0 -55 33q0 25 25 25q-1 0 20 -6q1 0 3 -1h9q40 0 40 29q0 15 -13.5 31.5t-28.5 16.5q-21 0 -44 -20q-40 -35 -40 -95q0 -26 8 -49q20 -58 79 -58q77 0 114 90q13 32 15 40l14 58
l12 78q0 7 2.5 42.5t2.5 41.5q1 1 1 30q0 24 -1 26l-7 98l-2 50l-1 2q-37 -81 -67 -120q-52 -67 -110 -67q-54 0 -91.5 32t-37.5 85q0 72 21 122q67 158 184 158q92 0 126 -97l13 -41l13 -68l10 -142v-79l-9 -109q-2 -25 -13 -70q-4 -23 -11 -45q-51 -166 -180 -166
q-64 0 -101 47q-35 44 -35 110zM113 115q0 -31 22 -47.5t55 -16.5q60 0 124 141q13 28 18.5 44.5t12.5 39.5v3q0 3 -2 7q-3 11 -9 20q-19 39 -68 39q-58 0 -108 -88q-45 -78 -45 -142z" />
    <glyph glyph-name="h" unicode="h" horiz-adv-x="591" 
d="M382 -61v11l5 146q1 29 1 32v18l-1 13q0 24 -4 55q-13 101 -77 129q-20 9 -36 9q-72 0 -137 -119v-10q0 -32 2 -96.5t2 -97.5q0 -27 -26 -27q-21 0 -25 22q-2 116 -7 347q-5 242 -5 266v16q5 20 25 20q16 0 23 -13q3 -6 3 -23l6 -314l32 32q49 47 108 47q30 0 57 -12
q85 -38 105 -163q6 -38 6 -98q0 -31 -3 -94.5t-3 -94.5v-28q1 -14 3 -34q9 -73 68 -73q33 0 55 34q18 29 18 64q0 36 -25 54q-7 5 -13 5q-15 0 -15 -20q0 -12 5 -12h19q8 0 14 -8.5t6 -16.5q0 -27 -35 -27q-26 0 -43.5 18.5t-17.5 44.5q0 28 19 50t47 22q39 0 66 -36
q24 -33 24 -74q0 -56 -33 -101q-37 -48 -91 -48q-23 0 -50 9q-72 24 -72 176z" />
    <glyph glyph-name="i" unicode="i" horiz-adv-x="184" 
d="M72 15l-3 81v2l-9 181q0 29 25 29q11 0 18.5 -9t6.5 -19l9 -173q3 -58 3 -81v-13q-3 -19 -24 -19q-23 0 -26 21zM8 403q0 26 22 43t49 17t48.5 -17t21.5 -43q0 -27 -21.5 -44t-48.5 -17q-28 0 -49.5 17t-21.5 44z" />
    <glyph glyph-name="k" unicode="k" horiz-adv-x="613" 
d="M153 183h-10l-1 -1q-1 -23 -1 -31q0 -20 1 -62v-62v-12q-3 -19 -24 -19q-25 0 -26 33q-2 95 -2 377v254q1 21 25 21q22 0 25 -20q0 -151 2 -420l50 30l63 44q12 9 44 38q73 67 110 155q6 13 22 13q25 0 25 -27q0 -7 -8 -24q-40 -83 -108 -148q-36 -34 -50 -44l-75 -54
q71 -32 98 -100l7 -19l44 -222q0 -3 12 -38q28 -81 91 -81q45 0 72.5 25.5t27.5 69.5q0 66 -42 105q-11 10 -25 10q-16 0 -26.5 -13t-10.5 -29q0 -14 8.5 -27t20.5 -13q8 0 19.5 8t18.5 8q25 0 25 -26q0 -18 -24 -31q-20 -10 -40 -10q-34 0 -56 28.5t-22 63.5q0 36 25.5 64
t61.5 28q54 0 88 -57q30 -49 30 -106q0 -68 -42 -108.5t-110 -40.5q-99 0 -138 115q-12 36 -12 37l-38 198q-10 52 -41 84q-33 36 -84 36z" />
    <glyph glyph-name="l" unicode="l" horiz-adv-x="235" 
d="M124 10v20q0 41 1 103t1 102q0 81 -1 83q0 62 -4 158v2q0 35 -4 55v2l-8 66q-1 8 -2.5 13t-2.5 8q-14 -9 -24.5 -41.5t-28.5 -32.5q-25 0 -25 25v5q25 95 80 95q38 0 49 -45q3 -14 7 -31l8 -83q0 -33 2 -86q3 -66 4 -86v-124q0 -125 -3 -207q-5 -20 -24 -20q-22 0 -25 19
z" />
    <glyph glyph-name="m" unicode="m" horiz-adv-x="770" 
d="M149 16v7l9 160v8v8q0 42 -4 70v1q0 3 -3 27q-1 1 -5 20q-7 28 -22 28q-23 0 -44 -43q-13 -27 -29 -27q-25 0 -25 25q0 11 14 35q34 60 84 60q34 0 52 -24q13 -16 24 -55q53 72 121 72q77 0 111 -101l1 -1q73 108 147 108q92 0 126 -126q9 -34 9 -40l10 -83q2 -6 2 -42
v-33q0 -35 -3 -55.5t-25 -20.5q-25 0 -25 25q0 11 1 34.5t1 35.5v3l-4 78q0 2 -1 12t-2 11v1q-3 21 -8 45q-22 104 -81 104q-60 0 -117 -107q-4 -7 -14 -27v-2l9 -90v-5v-74q0 -40 -25 -40q-26 0 -26 25q0 8 1 25v24q0 11 -1 28q-2 13 -1 27q0 5 -2.5 33.5t-3.5 33.5
q0 2 -4 23.5t-5.5 29t-5.5 19.5q-21 71 -64 71q-48 0 -93 -70q-5 -9 -13 -22q-4 -7 -6 -13v-81l-9 -135q-2 -26 -26 -26q-25 0 -25 26z" />
    <glyph glyph-name="n" unicode="n" horiz-adv-x="620" 
d="M521 13v3q0 7 2.5 17t2.5 17l1 15v20t-1 33q0 24 -6 81q-1 10 -8 47q-19 102 -85 102q-51 0 -103 -64q-26 -32 -45 -65l-5 -7v-5q0 -12 1 -36v-36v-28l-8 -86q-2 -25 -26 -25q-25 0 -25 26v4l8 115q0 10 -4 90q0 8 -6 47q-2 10 -6 26q-9 30 -28 30q-21 0 -48 -29l-16 -18
l-18 -27q-18 -27 -30 -27q-26 0 -26 25q0 10 14 32q61 95 124 95q62 0 84 -94l3 3q77 106 160 106q110 0 141 -176q4 -33 8 -79q1 -14 1 -19v-30q0 -36 -3 -51q-2 -31 -3 -36q-5 -21 -25 -21q-25 0 -25 25z" />
    <glyph glyph-name="p" unicode="p" horiz-adv-x="559" 
d="M10 -178q0 47 32 87t78 40q27 0 46 -18.5t19 -45.5q0 -31 -20.5 -54.5t-50.5 -23.5q-36 0 -36 26t25 26q2 0 5 -1h5q20 0 20 26v6q-2 5 -8 7h-6q-24 0 -41 -25t-17 -50q0 -31 22 -52t53 -21q56 0 73 104q9 55 9 122q0 9 -1 36q-2 22 -1 35l-19 219q-4 46 -28 67
q-2 1 -2 0q-5 0 -12 -7l-19 -23.5t-23 -12.5q-25 0 -25 25q0 9 10 23q33 46 69 46q37 0 66 -54v0v0q3 1 3 2q83 67 141 67q65 0 111 -48.5t44 -112.5q-5 -162 -124 -217q-44 -20 -96 -20q-7 0 -20.5 1t-19.5 1h-2l-3 -97q0 -14 -5 -48q-21 -159 -127 -159q-53 0 -89 36
t-36 88zM268 55q6 -1 8 -1q15 -3 24 -3h11q69 0 117 46q55 53 53 143q-1 41 -31.5 74t-71.5 33q-48 0 -105 -52q-20 -18 -24 -24v-6z" />
    <glyph glyph-name="q" unicode="q" horiz-adv-x="508" 
d="M350 -112l-6 90q1 12 0 33q-1 13 -1 20.5v11.5v27v7.5t1 13.5v21h-1l-1 -1q-70 -115 -156 -115q-30 0 -55 12q-73 34 -73 111t58 153q53 69 127 104q51 24 92 24q38 0 67 -29q6 -6 6 -18q0 -11 -1.5 -26.5l-3.5 -35.5t-3 -35.5t-1 -26.5v-1q0 -5 -0.5 -21t-1.5 -45
t-1.5 -45t-0.5 -20v-109l3 -54v-1q0 -44 12 -96q16 -76 60 -76q13 0 26 6t23.5 15.5t16.5 22.5t6 27q0 16 -9 29.5t-24 13.5q-23 0 -23 -27q0 -6 1.5 -16t1.5 -15q0 -26 -26 -26q-28 0 -28 57q0 78 74 78q38 0 61 -28t23 -67q0 -48 -37 -84q-37 -37 -85 -37q-82 0 -107 100
q-4 17 -9 44q-2 19 -3.5 27t-1.5 6v1zM109 121q0 -45 31 -61q22 -12 46 -12q73 0 132 126q3 11 6 23.5t7 26.5q1 2 2.5 8t5.5 17t5.5 17t2.5 8q6 24 6 28q0 9 3 33v10q-1 4 -20 4q-29 0 -63 -15q-103 -45 -143 -121q-21 -41 -21 -92z" />
    <glyph glyph-name="r" unicode="r" horiz-adv-x="438" 
d="M140 7q0 -5 3 44q5 81 5 120v27q0 40 -4 72q-1 16 -4 32q-6 34 -25 34q-17 0 -32.5 -15.5t-15.5 -31.5q0 -3 1 -8.5t1 -7.5q0 -25 -25 -25q-29 0 -29 41q0 38 31.5 68t68.5 30q52 0 69 -52h1l1 1q61 94 136 94q47 0 75 -35.5t28 -83.5q0 -26 -6 -43q-10 -29 -35.5 -50.5
t-54.5 -21.5q-28 0 -47 21t-19 49q0 25 14 45t38 20q26 0 26 -25q0 -16 -16 -24q-1 0 -3 -1q-7 -2 -7 -15q0 -18 14 -18q30 0 43 40q2 6 2 24q0 26 -13.5 46.5t-38.5 20.5q-33 0 -68 -38q-30 -32 -42 -67q-2 -16 -13 -46q1 -35 -2 -84q-3 -53 -3 -84v-1q0 -8 -1.5 -29.5
l-1.5 -21.5q-4 -27 -26 -27q-25 0 -25 26z" />
    <glyph glyph-name="s" unicode="s" horiz-adv-x="372" 
d="M58 109q0 34 16 58q18 28 51 28q29 0 46.5 -18.5t17.5 -47.5q0 -50 -30 -50q-24 0 -24 25q0 4 1.5 12t1.5 12v4q-1 2 -1 4q-1 8 -12 8q-16 0 -16 -36q0 -34 34 -54q28 -16 64 -16q58 0 80 47q7 15 7 29q0 31 -29 52l-100 73q-42 31 -42 79q0 39 36 67q33 27 73 27
q33 0 63 -18.5t41 -48.5q6 -16 6 -25q0 -25 -25 -25q-16 0 -21 11t-9 23q-14 32 -54 32q-27 0 -52 -26q-8 -8 -8 -18q0 -20 23 -37l93 -68q56 -41 56 -98q0 -25 -12 -50q-37 -77 -125 -77q-59 0 -102 31q-48 34 -48 91z" />
    <glyph glyph-name="t" unicode="t" horiz-adv-x="464" 
d="M164 168q-2 12 -8 71v63q-1 59 -1 62h-2q-34 0 -102 -2v0q-25 0 -25 25q0 23 22 26q36 1 107 2q4 40 4 65v1l13 117q3 27 26 27q25 0 25 -26q0 -6 -1 -6l-15 -177q23 0 68.5 1t67.5 1h21q20 -1 20 -25q0 -22 -20 -25l-158 -3v-4l5 -160q0 -13 5 -38q21 -118 87 -118
q37 0 60 28.5t23 66.5q0 37 -17 37q-4 0 -14.5 -15t-24.5 -15q-24 0 -24 25q0 11 11 26q22 30 52 30q24 0 41.5 -17.5t23.5 -41.5q3 -12 3 -31q0 -59 -37 -101q-40 -44 -98 -44q-108 0 -138 175z" />
    <glyph glyph-name="u" unicode="u" horiz-adv-x="439" 
d="M344 57v6q-1 8 -1 29l-1 3q-51 -108 -125 -108q-112 0 -112 132v11l12 153q1 8 1 11q0 34 -16 34q-14 0 -23.5 -25t-27.5 -25q-25 0 -25 26q0 10 7 26q22 49 69 49q67 0 67 -82v-6l-13 -169q0 -85 60 -85q46 0 75 70q6 14 12 30l15 86q6 31 14 82q5 35 5 60q3 20 25 20
q24 0 25 -20q2 -51 5 -155v0l4 -210q0 -25 -25 -25t-26 22.5t-1 59.5z" />
    <glyph glyph-name="v" unicode="v" horiz-adv-x="454" 
d="M42 368q-2 25 23 26q18 2 26 -16l141 -296l143 302q6 12 22 13q24 2 26 -24q0 -6 -2 -9l-166 -357q-6 -13 -21 -14q-18 -1 -25 14l-165 354q-2 2 -2 7z" />
    <glyph glyph-name="w" unicode="w" horiz-adv-x="778" 
d="M404 304l-166 -289q-6 -11 -22 -11q-18 0 -23 12l-149 354q-2 5 -2 10q0 25 25 25q10 0 14.5 -3t6.5 -8l131 -311l168 289q5 9 20 9q16 0 22 -12l136 -287h1l3 3l140 306q6 14 22 14q26 0 26 -25q0 -6 -2 -10l-169 -358q-5 -11 -21 -11q-15 0 -22 14z" />
    <glyph glyph-name="x" unicode="x" horiz-adv-x="447" 
d="M220 138l-2 -2l-99 -124q-9 -11 -21 -11q-25 0 -25 25q0 10 3 15l109 136l-137 152q-6 7 -6 17q0 25 26 25q10 0 15 -5l135 -148l140 175q9 11 21 11q25 0 25 -26q0 -9 -4 -13l-147 -186q1 0 1 -2l142 -158q4 -4 4 -14q0 -26 -25 -26q-11 0 -14 5z" />
    <glyph glyph-name="y" unicode="y" horiz-adv-x="527" 
d="M130 -220q0 95 71 138q23 14 52 14q42 0 70 -39q24 -35 24 -80q0 -29 -21.5 -50.5t-50.5 -21.5q-44 0 -62 40q-5 15 -5 19q0 25 25 25q17 0 24 -16.5t16 -16.5q22 0 22 23t-10 42q-13 24 -33 24q-14 0 -30 -10q-42 -26 -42 -95q0 -77 60 -124q26 -20 53 -20q30 0 56 27
q23 24 33 56q7 23 11 51q8 59 8 61v1l10 135q0 4 2 44t2 44q1 22 1 41v3q-53 -97 -134 -97q-28 0 -55 10q-81 30 -81 121q0 13 2 32l13 123l1 10q0 34 -28 34q-21 0 -36 -24q-6 -10 -12.5 -18.5t-18.5 -8.5q-25 0 -25 24q0 9 15 34q32 44 78 44q64 0 76 -62q1 -5 1 -25v-13
l-14 -135l-1 -12q0 -61 47 -76q22 -7 39 -7q70 0 106 119q9 29 23 140q5 39 5 67q3 22 26 22q20 0 25 -22v-216q0 -65 -4 -165v-1q-3 -18 -3 -55v-1l-6 -76l-13 -113q-3 -16 -9 -41q-13 -50 -50 -87q-41 -39 -90 -39q-41 0 -80 27q-83 57 -83 172z" />
    <glyph glyph-name="z" unicode="z" horiz-adv-x="517" 
d="M58 13q0 10 6 17l253 313q-58 3 -117 3h-6q-4 0 -41 1t-41 1q-40 0 -40 26q0 18 20 25h17q1 0 274 -6q22 -5 22 -25q0 -11 -6 -18l-250 -310h11q50 0 149.5 4.5t148.5 4.5h11q21 -3 21 -25q0 -25 -29 -26l-218 -6q-156 -5 -157 -5q-28 0 -28 26z" />
    <glyph glyph-name="braceleft" unicode="{" horiz-adv-x="471" 
d="M108 113q0 70 18 137v1q0 1 -1 2l-56 37q-11 7 -11 21q0 13 8 19l98 74v1q0 1 -1 3q-11 18 -22.5 41l-26.5 54q-22 56 -22 102q0 108 98 137q17 5 38 5q59 0 102 -56q16 -21 16 -33q0 -25 -26 -25q-12 0 -20.5 12l-16.5 23q-23 28 -56 28q-40 0 -61.5 -25.5t-21.5 -66.5
q0 -58 54 -155l23 -37q3 -7 3 -14q0 -12 -10 -20l-86 -65l1 -1l42 -28q11 -7 11 -21v-1l-16 -68l-7 -50q-1 10 -1 -32q0 -43 9 -78q10 -40 33 -70q27 -37 61 -42q1 0 6 -1h6q59 0 130 80q8 6 16 6q25 0 25 -26q0 -11 -11 -22q-87 -89 -160 -89q-64 0 -110 59q-40 50 -51 119
q-4 28 -4 65z" />
    <glyph glyph-name="bar" unicode="|" horiz-adv-x="261" 
d="M131 -23q-2 6 -2 8l1 711q0 12 15 18q13 5 25.5 -2.5t9.5 -19.5l-1 -707q0 -23 -25 -23q-16 0 -23 15z" />
    <glyph glyph-name="braceright" unicode="}" horiz-adv-x="367" 
d="M58 -41q0 25 25 25q3 0 37 -12q31 -11 57 -11q42 0 69 28.5t27 70.5q0 51 -39 118q-13 23 -24 37l-37 46q-5 6 -5 15q0 13 12 21l66 44l-72 49q-8 5 -8 19q0 7 2 10l36 77q8 17 20.5 55.5t12.5 74.5v14q-2 18 -22 38q-7 6 -17 6t-23.5 -12t-23.5 -12q-25 0 -25 26
q0 12 20.5 30.5t51.5 18.5q32 0 57.5 -24t31.5 -56q2 -13 2 -29q0 -31 -16 -91q-19 -52 -28 -72q-3 -12 -20 -45v-1l81 -54q12 -8 12 -22t-11 -21l-73 -48l-1 -2q91 -117 91 -209q0 -55 -32 -96.5t-85 -52.5q-10 -2 -30 -2q-37 0 -82 16q-37 13 -37 33z" />
    <glyph glyph-name="asciitilde" unicode="~" horiz-adv-x="748" 
d="M328 485v1q-5 10 -16 29q-34 56 -77 52q-28 -3 -58 -34q-26 -28 -39 -60l-4 -54l3 -23q-6 -45 -5 -46q-7 -12 -23 -12q-15 0 -25 12q-6 15 -5 61q0 44 6 59q9 58 48.5 100.5t96.5 48.5q53 5 94 -37q26 -26 58 -89q24 -54 28 -54v-2l14 -25q40 -61 110 -54q31 3 60 35
q27 28 37 61q22 75 19 103q-8 68 -59 89q-17 10 -35 8q-37 -4 -33 -46q4 -30 31 -49q1 -1 4 -1l2 1q8 10 7 19q0 2 -3 7.5t-3 9.5q-3 25 22 28q30 3 35 -39q2 -27 -13 -49q-16 -25 -42 -27q-33 -4 -62 30q-26 30 -29 65q-4 38 18 67t60 33q58 7 103 -38q42 -42 48 -101
q2 -21 -1 -53q-4 -15 -12 -53l-1 -2q-47 -138 -153 -149q-85 -9 -144 65l-36 60l-26 54v-1z" />
    <glyph glyph-name="endash" unicode="&#x2013;" horiz-adv-x="407" 
d="M290 301l-135 5q-2 -2 -3 0q-26 0 -51 1q-45 2 -45 27t25 25h1l161 -6h4q26 0 80 -2q37 -1 37 -27q0 -23 -20 -24h-13q-14 0 -41 1z" />
    <glyph glyph-name="emdash" unicode="&#x2014;" horiz-adv-x="534" 
d="M390 301l-235 5q-2 -2 -3 0q-26 0 -51 1q-45 2 -45 27t25 25h1l261 -6h4q26 0 80 -2q37 -1 37 -27q0 -23 -20 -24h-13q6 0 -41 1z" />
    <glyph glyph-name="afii00208" unicode="&#x2015;" horiz-adv-x="665" 
d="M510 301l-355 5q-2 -2 -3 0q-26 0 -51 1q-45 2 -45 27t25 25h1l381 -6h4q26 0 80 -2q37 -1 37 -27q0 -23 -20 -24h-13h-21q-15 1 -20 1z" />
    <glyph glyph-name="quoteleft" unicode="&#x2018;" horiz-adv-x="228" 
d="M193 538q-7 5 -15 4q-9 -2 -18 -3q-22 -2 -40 15l-7 7q-3 4 -9 13l-1 2l1 1q8 4 22 14q16 17 16 39q0 24 -17 40.5t-41 16.5q-23 0 -39 -16.5t-16 -37.5q0 -14 12 -45q16 -44 45 -72t68 -28q31 0 42 12q19 20 -3 38z" />
    <glyph glyph-name="quoteright" unicode="&#x2019;" horiz-adv-x="228" 
d="M35 538q7 5 15 4q9 -2 18 -3q22 -2 40 15l7 7q3 4 9 13l1 2l-1 1q-8 4 -22 14q-16 17 -16 39q0 24 17 40.5t41 16.5q23 0 39 -16.5t16 -37.5q0 -14 -12 -45q-16 -44 -45 -72t-68 -28q-31 0 -42 12q-19 20 3 38z" />
    <glyph glyph-name="quotedblleft" unicode="&#x201c;" horiz-adv-x="369" 
d="M337 538q-7 5 -15 4q-9 -2 -18 -3q-22 -2 -40 15l-7 7q-3 4 -9 13l-1 2l1 1q8 4 22 14q16 17 16 39q0 24 -17 40.5t-41 16.5q-23 0 -39 -16.5t-16 -37.5q0 -14 12 -45q16 -44 45 -72t68 -28q31 0 42 12q19 20 -3 38zM187 518q-7 5 -15 4q-9 -2 -18 -3q-22 -2 -40 15l-7 7
q-3 4 -9 13l-1 2l1 1q8 4 22 14q16 17 16 39q0 24 -17 40.5t-41 16.5q-23 0 -39 -16.5t-16 -37.5q0 -14 12 -45q16 -44 45 -72t68 -28q31 0 42 12q19 20 -3 38z" />
    <glyph glyph-name="quotedblright" unicode="&#x201d;" horiz-adv-x="369" 
d="M35 538q7 5 15 4q9 -2 18 -3q22 -2 40 15l7 7q3 4 9 13l1 2l-1 1q-8 4 -22 14q-16 17 -16 39q0 24 17 40.5t41 16.5q23 0 39 -16.5t16 -37.5q0 -14 -12 -45q-16 -44 -45 -72t-68 -28q-31 0 -42 12q-19 20 3 38zM185 518q7 5 15 4q9 -2 18 -3q22 -2 40 15l7 7q3 4 9 13
l1 2l-1 1q-8 4 -22 14q-16 17 -16 39q0 24 17 40.5t41 16.5q23 0 39 -16.5t16 -37.5q0 -14 -12 -45q-16 -44 -45 -72t-68 -28q-31 0 -42 12q-19 20 3 38z" />
    <glyph glyph-name="minus" unicode="&#xad;" horiz-adv-x="329" 
d="M142 267h-3l-107 6q-22 3 -22 25q0 25 26 25h2l257 -12q23 -1 23 -26t-26 -25h-6z" />
    <glyph glyph-name="minus" unicode="&#x2212;" horiz-adv-x="329" 
d="M142 267h-3l-107 6q-22 3 -22 25q0 25 26 25h2l257 -12q23 -1 23 -26t-26 -25h-6z" />
    <glyph glyph-name="afii10017" unicode="&#x410;" horiz-adv-x="908" 
d="M26 145q0 50 22 95q26 51 68 71q17 8 49 8q45 0 78 -25.5t33 -69.5q0 -33 -24.5 -59t-57.5 -26q-52 0 -52 61q0 46 31 46q25 0 25 -26q0 -3 -3 -10t-3 -11q0 -9 3 -9q6 0 11 5q19 11 19 31q0 21 -21 32q-17 10 -39 10q-20 0 -29 -4q-26 -12 -44 -52q-15 -35 -15 -67
q0 -70 70 -103q19 -9 40 -9q58 0 129 68l42 44l73 90q0 1 1 3v1q-15 1 -47 2q-20 5 -20 24q0 21 19 26h20h31q20 -1 30 -1h3l2 2l153 262l57 115q5 12 21 12q23 0 26 -24l45 -374h10l108 -3q23 -4 23 -26q0 -25 -26 -25q-18 0 -54 1t-55 1v-3l22 -205q0 -26 -26 -26
q-23 0 -25 23l-23 213h-2l-229 5l-82 -108q-10 -13 -32 -36q-108 -112 -194 -112q-35 0 -70 17q-91 44 -91 146zM529 289q160 -5 191 -5q0 7 -2.5 22t-2.5 21v1l-29 237z" />
    <glyph glyph-name="afii10019" unicode="&#x412;" 
d="M239 31l-20 396v2q0 15 -2.5 54.5t-2.5 54.5v9q5 19 25 19q28 0 26 -30l9 -182l69 14q6 0 27 6.5t50 18.5q6 2 12 5q88 37 88 92q0 64 -89 105q-71 32 -139 32q-54 0 -114 -16q-43 -11 -72 -49t-29 -84q0 -51 29 -62q1 -1 6 -1q24 0 24 14q0 9 -9 24t-9 23q0 25 25 25
q16 0 29.5 -23.5t13.5 -48.5q0 -28 -22.5 -46.5t-51.5 -18.5q-41 0 -65 38q-21 33 -21 76q0 98 91 153q75 46 177 46q93 0 176 -43q101 -54 101 -143q0 -53 -46 -94q-9 -8 -15 -12q-11 -8 -12 -9l-2 -2q66 -7 111 -49q49 -45 49 -112q0 -53 -42 -102q-38 -45 -89 -64
q-46 -17 -52 -17l-98 -21l-42 -6l-64 -5h-4q-12 0 -20 10t-6 23zM286 101q0 -13 3 -47v-3l96 11l70 16q16 5 38 11q33 14 43 19q27 13 48 44.5t21 61.5q0 40 -29 70.5t-67 35.5q-9 2 -32 4h-56l-70 -7l-73 -16v-4q0 -1 1 -25z" />
    <glyph glyph-name="afii10021" unicode="&#x414;" horiz-adv-x="790" 
d="M213 12q0 17 14 23q6 3 28 5h1q5 0 16 1l2 1v32q2 124 5 351q3 169 3 197h-2q-43 -7 -84 -24q-135 -55 -135 -138q0 -22 13 -45q19 -35 58 -35q22 0 45.5 13.5t26.5 33.5v11q0 51 -39 51q-10 0 -16 -25t-26 -25q-25 0 -25 25q0 12 5 28q15 48 62 48q40 0 65 -30t25 -72
q0 -46 -38 -78t-86 -32q-50 0 -85.5 40t-35.5 91q0 78 79 137q61 46 149 69q57 15 123 15q152 0 262 -79q124 -88 124 -233q0 -75 -26 -142q-30 -75 -83 -115q-21 -15 -28 -19q-11 -9 -21 -13l-56 -26l-77 -27l-110 -25l-77 -11q-9 -3 -29 -3h-1q-26 0 -26 25zM357 629h-10
q-8 -1 -9 -1l-5 -1l-2 -95q-5 -293 -5 -483h3l43 9l93 24q16 4 53 20q71 31 109 65q34 31 53 92q16 52 16 108q0 125 -111 198q-96 64 -228 64z" />
    <glyph glyph-name="afii10022" unicode="&#x415;" horiz-adv-x="548" 
d="M58 179q0 95 70 142q1 1 16 10q10 4 25 11q3 1 8 2q1 1 2 1l-24 23q-40 44 -40 105q0 77 46 141q50 69 124 77h18q69 0 117 -33q53 -37 53 -102q0 -47 -35 -83t-82 -36q-37 0 -66.5 25t-29.5 61q0 29 22.5 50.5t51.5 21.5q18 0 34 -9t16 -25q0 -25 -25 -25q-6 0 -13.5 4
t-12.5 4q-23 0 -23 -22q0 -14 16 -24t31 -10q25 0 45 21t20 47q0 44 -40 66q-32 18 -80 18q-58 0 -98 -55q-37 -51 -37 -111q0 -71 85 -111q5 -1 13 -5q2 -1 26 -8l29 -8q16 -7 16 -22q0 -26 -26 -26h-2q-35 8 -65 8q-89 0 -123 -71q-11 -23 -11 -54q0 -43 26.5 -77
t67.5 -48.5t90 -14.5q103 0 141 67q11 20 15 37q2 8 3.5 18l3 20t9 15.5t14.5 5.5q26 0 26 -26q0 -27 -12 -62q-22 -63 -79 -96q-52 -30 -123 -30q-96 0 -161 48q-72 53 -72 145z" />
    <glyph glyph-name="afii10018" unicode="&#x411;" horiz-adv-x="771" 
d="M374 401q50 9 95.5 14.5t86.5 1.5t78 -20.5t70 -51.5q11 -12 19 -32t13 -41.5t6.5 -43.5t0.5 -39q-5 -54 -50 -98q-40 -42 -94 -57q-47 -14 -53 -12l-93 -13l-43 -3h-64q-1 1 -4 1q-12 1 -19 11.5t-4 23.5l3 410q-1 42 -1 87t-1 93l-67 5h-4q-2 1 -34 1h-32t-28 -1
q-21 -1 -44.5 -9.5t-42.5 -27.5q-22 -22 -22 -45q0 -24 17.5 -45.5t41.5 -27.5q10 -3 26 -3q17 0 28 3q66 19 66 50q0 18 -15 18q-5 0 -9 -2q1 -33 -25 -33t-26 33q0 24 18 38.5t42 14.5q28 0 47 -20.5t19 -48.5q0 -47 -51 -78q-44 -27 -94 -27q-53 0 -93 36q-43 37 -43 90
q0 44 34 81q31 33 76 46q33 9 104 9h21l288 -11h22h26q21 0 56 3q4 0 19 3q6 1 10.5 1.5t8.5 0.5q25 0 25 -26q0 -20 -19 -24q-53 -9 -121 -9h-29.5t-56.5 1t-56.5 1h-29.5v-56t0.5 -54.5t0.5 -56v-61.5zM371 108q-1 -13 0 -47l-1 -3q25 -2 58 -0.5t67 6.5t65.5 12.5
t54.5 17.5q40 16 57 49t17 69.5t-15 71t-38 54.5q-41 34 -107 33t-155 -19l-1 -4v-7t-1 -18z" />
    <glyph glyph-name="afii10020" unicode="&#x413;" horiz-adv-x="732" 
d="M393 164q-1 -37 -14 -67t-33 -51.5t-45.5 -34t-52 -13t-52 11.5t-45.5 39q-23 34 -13 67q11 34 39 51t61 7q21 -6 37 -22q19 -22 13 -41q-6 -23 -32 -17q-5 1 -8.5 5.5t-7 10t-7.5 9.5t-10 6l-7 3q-22 0 -28 -24q-5 -16 7.5 -33t29.5 -22q25 -6 45.5 1t35 23.5t24 40
t13.5 51.5q2 22 4.5 56l5.5 74l6 82.5l6 82t5 72.5t4 54q-2 1 -5 1.5t-5 2.5l-100 43q-34 14 -70 14q-80 0 -108 -76q-9 -24 -9 -46q0 -29 27 -50q28 -21 58 -21q34 0 51 32q7 13 7 21q0 20 -24 20q-4 0 -11 -3t-11 -3q-26 0 -26 25q0 32 48 32q31 0 53 -20.5t22 -51.5
q0 -26 -20 -55q-35 -47 -89 -47q-50 0 -94 35q-43 36 -43 86q0 5 1 8v7q11 72 54.5 115t115.5 43q26 0 43 -4l12.5 -4t14.5 -4l128 -52q12 -5 22.5 -8.5t21 -6t23 -4t28.5 -1.5h18t16 1q63 4 107 24q10 4 18.5 10t15.5 12t14 10t14 5q25 0 25 -26q0 -13 -15 -26
q-70 -61 -215 -61q-12 0 -28 1.5t-35 6.5q-2 -27 -6 -76t-8 -106l-8.5 -116.5z" />
    <glyph glyph-name="afii10024" unicode="&#x416;" horiz-adv-x="952" 
d="M209 681q16 -3 40.5 -13t48.5 -35t41.5 -70t18.5 -119q-2 -22 -3.5 -42t-3.5 -40q4 0 7 -0.5t8 -0.5l98 -8l29 302q2 27 29 22q12 -2 17 -11.5t5 -24t-2.5 -31.5t-3.5 -35l-23 -223l126 -2q6 32 14.5 68t22.5 76l30 68q4 5 9.5 15.5t15.5 26.5q36 59 83.5 81.5t104.5 5.5
q30 -9 52.5 -29t35 -47t14 -58.5t-10.5 -63.5q-9 -23 -26.5 -41.5t-38.5 -30t-43 -15.5t-40 2q-21 6 -38 21.5t-27.5 36t-13 43.5t6.5 45q8 25 31 37t46 4q22 -7 34 -27t7 -41q-5 -13 -12.5 -17.5t-20.5 -2.5q-7 2 -11 8.5t-6 13t-4 12t-5 6.5q-9 1 -13 -10
q-3 -11 -0.5 -23.5t9 -24t16 -20.5t20.5 -12q12 -4 24.5 -0.5t23.5 11t19.5 18t12.5 22.5q17 46 -1.5 83.5t-59.5 49.5q-27 8 -50.5 4t-45 -24t-42 -56.5t-41.5 -92.5q-12 -33 -20.5 -63.5t-14.5 -59.5h38q27 -3 24 -29q-4 -22 -23 -22h-47q-8 -69 0.5 -122t25.5 -86
t38.5 -44t40.5 4q8 5 11 13.5t0 15.5q-3 6 -9 5l-12.5 -2t-13.5 0t-11 10q-12 22 18 39q23 12 43 3t31 -30q6 -12 6 -26.5t-5 -28t-14.5 -25.5t-21.5 -19q-26 -13 -57 -6.5t-57 28.5q-11 9 -24 29.5t-22.5 54.5t-14 81t1.5 107l-123 1l-16 -200q-2 -34 -4 -53.5t-2 -24.5
l-3 -23q-8 -20 -28 -18q-10 2 -15 9t-6 23t1.5 41.5t7.5 63.5l12 184l-115 8q-14 -75 -37 -128.5t-48 -89.5t-49 -55.5t-39 -25.5q-32 -13 -64 -10.5t-52 22.5q-10 10 -14.5 24t-4.5 28t5 27.5t15 23.5q17 17 40 19t40 -15q22 -24 4 -42q-8 -7 -14.5 -6t-13 4t-12 5t-9.5 -2
q-5 -5 -5.5 -14t5.5 -16q13 -21 41 -14.5t58.5 39.5t58.5 91t42 140q-10 1 -26 4t-31.5 7.5t-27 12.5t-11.5 20q0 25 25 25q6 0 15.5 -4t12.5 -5q14 -5 26.5 -6.5t23.5 -3.5q2 17 3 34.5t1 36.5q6 60 -9.5 102t-41 66t-57 30.5t-58.5 -4.5t-44.5 -39t-15.5 -73
q1 -13 11 -24.5t23.5 -20t28 -13t23.5 -3.5q14 2 25 7t9 14q0 3 -4 10t-9.5 14l-10 13t-5.5 9q-2 17 10.5 26t28.5 11q40 4 47 -61q2 -17 -5 -33t-19.5 -28.5t-29.5 -21.5t-35 -12q-24 -3 -48.5 4.5t-45 21.5t-34.5 34.5t-17 44.5q-4 31 6 66.5t36 64.5q13 14 30.5 23.5
t37.5 14.5t41 5.5t40 -3.5z" />
    <glyph glyph-name="afii10025" unicode="&#x417;" horiz-adv-x="522" 
d="M303 400q67 -19 117 -61t69.5 -97t2 -117.5t-84.5 -122.5q-45 -41 -99.5 -53.5t-106 -3.5t-94.5 36t-66.5 66t-20.5 87t43 99q18 23 43.5 35.5t54 14.5t57 -7t51.5 -28q20 -17 30.5 -38.5t12.5 -43.5t-5 -42.5t-22 -34.5q-12 -12 -29 -19.5t-34.5 -9.5t-35 2t-30.5 15
q-10 8 -16 19t-7 23t2.5 23.5t13.5 20.5q27 27 49 8q20 -18 2 -35q-2 -2 -6 -4t-5 -3l-1 -1q0 -7 7 -13q9 -8 24 -4.5t24 12.5q15 14 13 40.5t-26 47.5q-32 26 -66 19.5t-60 -32.5q-29 -29 -31.5 -61t14 -61t48 -51.5t71 -32t82 -1.5t81.5 40q31 25 47.5 53.5t22.5 56.5
t3.5 53t-10.5 44q-18 42 -49 68.5t-66.5 40t-70 15t-58.5 -6.5q-13 -5 -20 3.5t-7 21.5q0 9 6 13.5t14.5 6t18.5 2t18 2.5q37 7 67 31t43.5 55t5.5 63t-47 55q-15 9 -33 13.5t-35 3.5t-31.5 -7.5t-22.5 -17.5q-3 -5 -6 -11.5t-4 -14.5q-1 -11 3.5 -26t12.5 -15q5 1 14 3.5
t13 1.5q28 0 27 -25q-1 -16 -15.5 -25t-42.5 -4q-21 4 -34.5 15t-21 24.5t-9.5 29t-2 29.5q6 29 19 47q14 20 37.5 31t50.5 13.5t56.5 -4t55.5 -22.5q37 -22 55 -56t16 -70.5t-23.5 -69t-63.5 -51.5z" />
    <glyph glyph-name="afii10026" unicode="&#x418;" horiz-adv-x="754" 
d="M703 283l3 -182q1 -34 1.5 -53.5t-0.5 -24.5v-23q-5 -18 -26 -18q-10 0 -15.5 6t-8.5 21t-3 40t1 64v3l1 162l-7 286l-46 -102l-27 -58l-57 -115l-54 -97q-1 -2 -6 -10.5t-10 -18.5l-14 -25l-45 -65q-4 -4 -10.5 -12t-15 -17t-17.5 -17.5t-18 -14.5q-6 -12 -23 -12
q-24 0 -25 25q1 3 4.5 49t11.5 137l1 47l-5 195q1 5 -8 55q-12 66 -35 95.5t-70 29.5q-23 0 -42.5 -9.5t-34.5 -25.5t-24 -37t-10 -44q0 -14 3.5 -27t11 -23.5t18.5 -17t25 -6.5q12 0 24.5 6t23 15.5t17.5 22t7 24.5t-9 12q-4 0 -7 -5.5t-7.5 -11.5t-10 -11t-13.5 -5
q-25 1 -25 26q1 23 20.5 40t43.5 18q26 -1 43 -19.5t16 -44.5q-1 -23 -12 -44t-28 -37.5t-39 -26.5t-45 -10q-19 0 -38.5 9.5t-35.5 26.5t-25.5 40t-9.5 50q1 33 15 63.5t36.5 53t52.5 36t63 13.5t57.5 -11t42.5 -32.5t30.5 -53.5t21.5 -73l9 -71l4 -185l-2 -63l-10 -108
q12 14 20 27t22 32q3 3 4 9l5 8l47 77l90 177l29 62l78 169q8 11 16 14q6 14 25 14q13 0 18.5 -8.5t7 -22t1 -31t0.5 -35.5z" />
    <glyph glyph-name="afii10027" unicode="&#x419;" horiz-adv-x="754" 
d="M703 283l3 -182q0 -24 1 -40.5t0 -26.5v-34q-5 -18 -26 -18q-16 0 -21.5 16.5t-5.5 62.5q0 11 0.5 24t0.5 28l1 165l-7 286l-46 -102l-84 -173l-54 -97q-1 -2 -6 -10.5t-10 -18.5l-14 -25l-45 -65q-4 -4 -10.5 -12t-15 -17t-17.5 -17.5t-18 -14.5q-6 -12 -23 -12
q-24 0 -25 25q1 3 4.5 49t11.5 137l1 47l-5 195v2q0 5 -2 18t-6 35q-12 67 -35.5 96t-71.5 29q-22 0 -42 -10t-35 -26.5t-23.5 -37.5t-8.5 -44q0 -28 15.5 -50t43.5 -22q12 0 24.5 6t23 16t17 22t6.5 24t-9 12q-4 0 -7 -5.5t-7.5 -11.5t-10 -11t-13.5 -5q-25 0 -25 26
q0 11 5.5 21.5t14.5 18.5t20.5 13t23.5 5q27 0 43 -19t16 -45q0 -23 -11 -44t-29 -37.5t-40.5 -26.5t-44.5 -10q-20 0 -39 10t-34.5 27t-25 40t-9.5 49q1 34 15 64.5t37 53t53 35.5t64 13q33 0 57 -11t41.5 -33t30 -53.5t21.5 -72.5l9 -71v-248l-9 -109q13 14 21 27t22 33
q3 3 4 9l52 85l90 177l107 231q6 11 16 14q5 14 26 14q12 0 17.5 -8.5t7 -22.5t1 -31t0.5 -35zM551 821q-3 5 -5 5.5t-7 1.5h-2v-2q-2 -14 -12 -14.5t-18.5 8t-10.5 22.5t13 29q9 9 20 10.5t22.5 -2t22 -11.5t17.5 -19q9 -15 10.5 -33t-4 -35.5t-16.5 -33t-26 -24.5
q-42 -24 -90.5 -24.5t-90.5 24.5q-15 9 -26.5 24.5t-16.5 33t-4 35.5t10 33q7 11 17.5 19t22 11.5t22.5 2t20 -10.5q15 -15 13 -29t-10.5 -22.5t-19 -8t-11.5 14.5v2h-2q-5 -1 -7 -1.5t-5 -5.5q-4 -6 -4 -15t3.5 -17.5t9 -16t11.5 -11.5q13 -8 31 -12.5t36 -4.5t35.5 4.5
t31.5 12.5q6 4 11.5 11.5t9 16t3.5 17.5t-4 15z" />
    <glyph glyph-name="afii10028" unicode="&#x41a;" horiz-adv-x="923" 
d="M439 350q-1 0 -8 1h-9q-51 0 -120 -31l-12 -6q-4 -2 -5 -3q-1 -70 -2 -161q0 -10 -1 -23v-2l-6 -107q-2 -27 -25 -27q-26 0 -26 28v6l8 143v190l-9 124q-1 4 -9 50q-2 5 -6 21q-16 60 -43 71q-8 3 -28 3q-35 0 -56 -23t-21 -59t29 -36q13 0 23.5 10t12.5 23q0 1 1 8v8
q2 20 25 20q26 0 26 -32q0 -34 -27 -61.5t-61 -27.5q-38 0 -59 26t-21 65q0 56 36.5 93t91.5 37q53 0 84 -35q20 -22 32 -64q11 -38 11 -40l13 -82l5 -82l360 291q5 5 14 5q26 0 26 -26q0 -12 -9 -19l-277 -225q5 0 14 1h13q91 0 122 -119l19 -79q8 -24 8 -25l24 -129
q24 -127 135 -127q113 0 113 133q0 107 -72 107q-29 0 -51 -16t-22 -44q0 -9 1 -13q13 -25 36 -25q14 0 30 20t29 20q25 0 25 -26q0 -12 -14 -27q-38 -39 -70 -39q-16 0 -45 15q-43 23 -43 74q0 48 36.5 80t85.5 32q34 0 64 -17q61 -34 61 -142q0 -82 -40 -131
q-44 -52 -123 -52q-155 0 -187 176l-20 109q-34 187 -87 193z" />
    <glyph glyph-name="afii10031" unicode="&#x41d;" horiz-adv-x="903" 
d="M707 116l-8 163l-55 -6l-127 -10l-100 -4h-1.5h-8.5q-8 -1 -10 -1v-53v-10l-10 -170q-2 -26 -26 -26q-25 0 -25 26q0 6 10 186v47l-78 5l-32 5t-41 11q-28 10 -28 29q0 25 25 25q6 0 15.5 -4t12.5 -5q29 -7 45 -9q26 -2 60 -5q2 0 10 1h9v8l-8 134q0 6 -10 55
q-19 93 -63 118q-14 8 -45 8q-45 0 -76.5 -35t-31.5 -81q0 -17 4 -29q6 -18 22 -32t34 -14q24 0 47 22t23 46q0 12 -10 12q-6 0 -13.5 -16t-23.5 -16q-25 0 -25 25q0 23 19.5 40.5t43.5 17.5q26 0 43 -18.5t17 -44.5q0 -46 -37.5 -82.5t-83.5 -36.5q-43 0 -80 41
q-32 36 -32 85q0 68 47.5 117.5t114.5 49.5q93 0 132 -92q6 -10 12 -31q10 -35 13 -47l11 -71l8 -134h38l196 13l67 7l-13 322q0 25 26 25q22 0 25 -21q2 -32 4 -77l9 -244l133 15q27 0 27 -25q0 -23 -19 -25l-138 -16v-1v-1l8 -181q3 -68 3 -78v-23q-5 -20 -25 -20
q-24 0 -25 36q0 11 -3 49q-2 30 -2 48v3z" />
    <glyph glyph-name="afii10032" unicode="&#x41e;" horiz-adv-x="641" 
d="M22 335q0 130 84 233q89 109 212 109q122 0 210 -110q83 -104 83 -232q0 -129 -84 -234q-88 -110 -210 -110q-123 0 -211 110q-84 104 -84 234zM73 336q0 -108 67 -197q71 -95 172 -97q103 -2 178 93q70 89 70 198q0 110 -68 199q-73 95 -177 95q-100 0 -173 -95
q-69 -89 -69 -196z" />
    <glyph glyph-name="afii10034" unicode="&#x420;" horiz-adv-x="654" 
d="M284 16q-3 39 -3 105v4l-9 194l-16 184q-3 16 -7 43q-1 6 -4 14q-7 21 -7 24q0 26 25 26q26 0 33 -42l10 -59l13 -129l7 -104h25q11 0 58 5q16 2 59 11q61 13 102 41q54 36 54 88q0 62 -86 122q-117 82 -258 82q-48 0 -77 -11q-45 -17 -77.5 -58t-32.5 -88q0 -65 47 -65
q18 0 37.5 13t19.5 30q0 9 -9 9t-22 -10.5t-22 -10.5q-26 0 -26 26q0 14 24 30t47 16q24 0 42 -17.5t18 -41.5q0 -38 -35 -66.5t-74 -28.5q-47 0 -74 36q-24 32 -24 81q0 98 90 163q62 45 150 45q71 0 149 -25l54 -21l45 -23l20 -12q125 -81 125 -175q0 -78 -77 -129
q-59 -40 -149 -56q-44 -8 -57 -8h-1l-63 -5l7 -203q0 -26 -26 -26q-21 0 -25 22z" />
    <glyph glyph-name="afii10035" unicode="&#x421;" horiz-adv-x="640" 
d="M42 341q0 60 17 111q30 89 90 154q72 78 155 78q77 0 127 -71q45 -63 45 -143q0 -42 -11 -65q-21 -43 -59 -71q-41 -28 -88 -28q-54 0 -83.5 34.5t-29.5 89.5q0 48 24 80q26 36 72 36q34 0 58.5 -16t24.5 -48q0 -23 -14 -47q-17 -26 -39 -26q-25 0 -25 25q0 11 14 23
t14 24q0 14 -35 14q-43 0 -43 -66q0 -73 62 -73q35 0 66 26t38 60q3 13 3 29q0 58 -31 107q-36 55 -91 55q-40 0 -80 -29q-58 -42 -94 -115.5t-36 -146.5q0 -90 14 -128q27 -72 102 -126q56 -40 122 -40q81 0 163 62q25 19 34 28l46 46q4 4 15 4q24 0 24 -24q0 -13 -14 -28
q-132 -139 -271 -139q-83 0 -156.5 54t-107.5 134q-22 52 -22 156z" />
    <glyph glyph-name="afii10036" unicode="&#x422;" horiz-adv-x="697" 
d="M408 23q-1 158 -4 475l-1 72h-3l-77 11q-19 5 -49 12q-41 11 -79 30q-23 7 -40 7q-35 0 -62 -26.5t-31 -61.5v-7q-1 -6 -1 -7q0 -2 1 -15q1 -24 16 -48q17 -28 40 -30h11q53 0 78 37q11 13 11 24q0 9 -10.5 18t-20.5 9q-6 0 -14.5 -9t-19.5 -9q-24 0 -24 25q0 15 19 31
q15 13 38 13q31 0 57 -23t26 -54q0 -49 -48 -83q-43 -31 -93 -31q-54 0 -88 47q-30 42 -30 98q0 60 42 106.5t102 46.5q26 0 52 -8q78 -34 150.5 -45t140.5 -11q1 0 13 1l125 7l58 7q25 0 25 -25q0 -23 -18 -25l-127 -13q-8 -2 -41 -2h-77q0 -88 2 -266t2 -267v-12
q-5 -22 -25 -22q-23 0 -26 23z" />
    <glyph glyph-name="afii10037" unicode="&#x423;" 
d="M227 -164q0 74 41 131q45 64 115 64q46 0 76.5 -27.5t30.5 -72.5q0 -41 -25 -68t-65 -27q-27 0 -49 17t-22 44q0 16 12.5 33t28.5 17q25 0 25 -25q0 -10 -14 -24v-3l5 -5t14 -3q39 0 39 44q0 49 -54 49q-49 0 -81 -49q-27 -42 -27 -95q0 -98 106 -98q92 0 162 75
q20 21 26 44q2 6 6 24l12 164v57v70q-74 -66 -163 -66q-96 0 -138 59q-16 22 -23 63q-4 22 -4 29l-3 280q0 16 -3 28q-9 38 -40 47q-17 5 -38 5q-67 0 -95 -65q-5 -11 -5 -23q0 -17 9.5 -33t26.5 -16q25 0 31 20v7q0 12 -10.5 21.5t-10.5 19.5q0 26 25 26q21 0 35 -24
q12 -20 12 -43q0 -33 -24.5 -55.5t-58.5 -22.5q-37 0 -61.5 31t-24.5 69q0 22 13 51q18 41 56 64.5t83 23.5q22 0 51 -8q51 -14 69 -62q12 -31 13 -98v-178q3 -61 9 -88q13 -51 46 -66q28 -13 60 -12q100 3 151 83q11 17 11 21v82l-6 163v3l-6 135v6q0 28 25 28q22 0 26 -26
q2 -38 5 -115q1 -9 1 -19v-1l4 -134q0 -6 1.5 -80.5t1.5 -80.5v-154l-7 -149q-1 -24 -6 -43q-5 -33 -13 -50q-31 -62 -95.5 -100t-136.5 -38q-73 0 -114 39t-41 110z" />
    <glyph glyph-name="afii10039" unicode="&#x425;" horiz-adv-x="1050" 
d="M541 286h-1l-1 -1l-209 -262q-9 -11 -21 -11q-25 0 -25 25q0 9 3 14l225 282q1 1 2 3v1l-85 147l-39 56l-24 28q-52 57 -113 57q-60 0 -108 -40q-51 -42 -51 -101q0 -38 30 -63t69 -25q28 0 55 13q33 16 33 41q0 17 -16 30t-34 13q-23 0 -23 -25v-4q4 -2 8 -2q6 0 15 5.5
t15 5.5q25 0 25 -26q0 -16 -17.5 -26t-35.5 -10q-26 0 -44 15.5t-18 40.5q0 32 22 54t53 22q39 0 70 -27t31 -65q0 -49 -47 -79q-41 -27 -92 -27q-60 0 -105.5 40t-45.5 99t41 111q40 49 98 69q35 12 75 12q79 0 143 -68q20 -21 29 -34l47 -67l74 -127l239 300q10 12 22 12
q25 0 25 -26q0 -9 -4 -14l-253 -318q-2 -4 93 -173l41 -59q9 -11 25 -29q45 -51 114 -51q70 0 116 49q21 22 21 56q0 45 -56 70q-22 10 -40 10q-22 0 -39 -16t-17 -38q0 -31 30 -31q12 0 27 11.5t25 11.5q25 0 25 -25q0 -20 -27.5 -35t-49.5 -15q-33 0 -57 24.5t-24 57.5
q0 45 31.5 75.5t76.5 30.5q35 0 75 -22q71 -39 71 -109q0 -69 -61 -115q-57 -42 -128 -42q-97 0 -168 88q-25 31 -32 43z" />
    <glyph glyph-name="afii10040" unicode="&#x426;" horiz-adv-x="876" 
d="M676 51q-5 16 -11 40t-11 46q-4 16 -5 26t-1 14l-1 2l-39 -61q-2 -4 -27 -35q-77 -95 -165 -95q-98 0 -120 129q-4 22 -6.5 37t-4 36t-2 55t-0.5 94v26q0 11 -1 16.5t0 6.5l-5 105q-6 40 -11.5 66t-13.5 41t-20 20.5t-31 5.5q-27 0 -50 -13.5t-40 -36t-27 -51t-10 -58.5
q0 -29 11.5 -40.5t34.5 -11.5q27 0 47 21.5t20 50.5q0 20 -11 20q-5 0 -14.5 -3.5t-13.5 -3.5q-26 0 -26 25q0 34 55 34q29 0 45.5 -21t16.5 -51q0 -23 -9.5 -45t-26 -39t-37.5 -27.5t-45 -10.5q-17 0 -34.5 5t-31.5 17t-23 32t-9 49q0 41 14 79t38.5 67t57 46t69.5 17
q52 0 80.5 -32t40.5 -109q3 -19 4 -33t2 -24l8 -264q1 -1 1 -12.5t1 -13.5v-1l1 -7.5t1.5 -16t1.5 -16t1 -8.5q8 -55 23.5 -77.5t48.5 -22.5q36 0 74 27t73 76l36 56l40 80v46q0 15 -1 26t0 19v45l18 233q1 30 27 30q25 0 25 -25l-15 -152q-3 -30 -3.5 -54t-0.5 -42v-18
q-1 -9 -1 -15v-9v-9t1 -14v-21q0 1 0.5 -12t1.5 -29t1.5 -30t0.5 -15l12 -89q0 -6 5 -27t13 -45q14 -35 34 -36q10 0 14 2q11 5 16 20q1 8 1.5 16.5t2 16.5t5 14t10.5 9q24 9 33 -14q2 -5 2 -10.5v-12.5q-3 -44 -23 -67q18 -87 14 -153t-33 -92q-18 -15 -40.5 -24t-45.5 -10
t-44.5 7.5t-37.5 28.5q-12 14 -18.5 36t-7 45.5t6 44.5t21.5 33q23 19 50.5 14.5t46.5 -27.5q15 -18 17.5 -40t-16.5 -38q-17 -16 -34 4q-4 4 -3.5 9.5l1 10.5t0.5 10.5t-4 10.5q-8 10 -14 10.5t-12 -4.5q-5 -6 -7.5 -16.5t-2.5 -22.5t3 -24.5t11 -21.5q9 -11 21 -14.5
t25.5 -2.5t26.5 7t24 15q9 8 13.5 30t4.5 49t-4 54.5t-11 46.5q-30 -4 -55 14t-38 51z" />
    <glyph glyph-name="afii10041" unicode="&#x427;" horiz-adv-x="888" 
d="M627 648q2 15 7.5 22.5t19.5 7.5q25 0 25 -25l-15 -152q-3 -30 -3.5 -54t-0.5 -42v-18q-1 -9 -1 -15v-9v-9t1 -14v-21q0 -30 -1 -62.5t-1 -64t1.5 -59t6.5 -46.5q22 -87 79 -87q17 0 32.5 11t27 29t18.5 40t7 45q0 48 -32 48q-12 0 -18.5 -9t-12 -20t-12 -20t-18.5 -9
q-25 0 -25 25q0 8 6 22q29 62 79 62q40 0 62.5 -27.5t22.5 -69.5q0 -34 -11 -66t-29.5 -56.5t-43.5 -39.5t-53 -15q-95 0 -131 132q-2 17 -3 47t-1 65v71.5t1 66.5t1.5 49.5t0.5 20.5l-36 -61q-1 -3 -27 -35q-77 -95 -165 -95q-42 0 -65 11.5t-34 43t-14 86t-7 141.5
q-6 40 -11.5 66t-13.5 41t-20 20.5t-31 5.5q-27 0 -50 -13.5t-40 -36t-27 -51t-10 -58.5q0 -29 11.5 -40.5t34.5 -11.5q27 0 47 21.5t20 50.5q0 20 -11 20q-5 0 -14.5 -3.5t-13.5 -3.5q-26 0 -26 25q0 34 55 34q29 0 45.5 -21t16.5 -51q0 -23 -9.5 -45t-26 -39t-37.5 -27.5
t-45 -10.5q-17 0 -34.5 5t-31.5 17t-23 32t-9 49q0 41 14 79t38.5 67t57 46t69.5 17q52 0 80.5 -32t40.5 -109q6 -38 6 -57v-1q0 -69 4.5 -111.5t12.5 -65.5t21 -30.5t30 -7.5q36 0 74 22t73 71q30 41 46 70t25 59t13.5 67.5t10.5 95.5z" />
    <glyph glyph-name="afii10042" unicode="&#x428;" horiz-adv-x="1200" 
d="M339 463v-28q0 -3 -0.5 3.5l-1 13t-0.5 10t0 -5.5v-2l-9 -258v-15v-15v-8t1 -17t1.5 -17.5t0.5 -8.5q7 -67 55 -67q35 0 72 35q23 21 24 25q12 12 24 21.5t16 16.5l40 66q2 2 3 3.5t2 2.5v1v32.5t-1 69.5q0 21 -0.5 40.5t-0.5 36v27.5v14v33t1 25v6t1 15t1 15v6v1l12 131
q1 21 26 21t25 -26l-14 -161l-1 -21v-28q-1 -1 -1 -17v-62v-50t0.5 -33l0.5 -12v-12.5t1 -22.5l1.5 -21t0.5 -9q2 -18 6 -40q21 -129 94 -129q33 0 81 48q5 5 7.5 14t12.5 23q8 11 14.5 21.5t11.5 21.5l35 70l10 24v4q0 9 -0.5 37.5t-1.5 76.5q-1 49 -1 89v50q0 35 1.5 73
t3.5 81q3 21 25 21q25 0 25 -29q0 -7 -0.5 -22.5t-1.5 -40.5q-1 -13 -1 -32.5v-47.5v-51q0 -27 1 -29v-1l7 -238q1 -12 3 -27.5t7 -35.5q2 -11 5 -22l6 -22q22 -87 79 -87q38 0 63 46q22 37 22 79q0 36 -19 45q-8 3 -13 3q-13 0 -23 -13l-15 -29.5t-23 -15.5q-25 0 -25 25
q0 8 6 22q29 62 79 62q40 0 62.5 -27.5t22.5 -69.5q0 -65 -36 -117q-41 -60 -101 -60q-84 0 -122 104q-5 13 -9 28l-15 70h-1q-10 -20 -29 -50q-39 -61 -74.5 -91.5t-77.5 -30.5q-54 0 -89.5 33.5t-52.5 108.5l-1 1v-1q-8 -11 -17.5 -25.5t-20.5 -28.5q-35 -45 -76 -67
t-78 -22q-22 0 -39.5 7.5t-23.5 13.5q-45 40 -45 165v27q1 21 2 39.5t1.5 39.5t1 46.5t0.5 60.5v3l6 68q0 7 -1 26.5t-1 29.5q0 1 -1.5 10.5t-3.5 26.5q-11 70 -46 83q-17 7 -49 7q-59 0 -93 -46q-32 -43 -32 -102q0 -29 15 -54q18 -28 45 -28q26 0 49 19q24 19 24 44
q0 15 -10 29t-25 14t-34 -21q-17 -18 -26 -18q-25 0 -25 26q0 11 15 28q31 36 70 36q18 0 33.5 -8t27.5 -21t18.5 -30t6.5 -35q0 -45 -39 -79q-38 -34 -85 -34q-49 0 -80 40t-31 92q0 80 47 139q49 61 128 61q49 0 81 -17q73 -40 73 -221z" />
    <glyph glyph-name="afii10033" unicode="&#x41f;" horiz-adv-x="799" 
d="M643 94q-1 -23 -2 -42t-2 -35q-3 -21 -25 -21q-26 0 -26 25l13 333l6 192v3q0 9 0.5 21t1.5 27q1 9 1.5 17t0.5 14l-48 4l-67 7l-132 9q2 -6 2 -11l1 -178v-10l-3 -83l-14 -133q-8 -44 -19 -86.5t-31 -75.5t-51.5 -52.5t-79.5 -17.5q-67 3 -112 55q-44 52 -41 120
q3 48 36 83q41 40 82 37q47 -3 81 -41q37 -38 34 -84q-2 -26 -19.5 -44t-43.5 -16q-12 1 -23 6t-19.5 13.5t-13.5 19t-4 22.5q1 25 26 24q16 -1 22 -17q8 -17 14 -17q10 0 10 12q1 23 -20 47q-23 23 -46 24q-18 1 -34.5 -12t-23.5 -31q-3 -6 -4 -13.5l-2 -15.5
q-3 -46 27 -82q31 -38 75 -39q31 -2 45 6q20 12 35.5 34.5t27.5 58t20 87t14 122.5l4 86q-1 85 -1 140.5v65.5h-37h-16h-30.5h-30h-13.5q-33 -4 -52 -10.5t-28.5 -14.5t-12.5 -18t-4 -20q-2 -11 6 -20.5t20 -13t25.5 2t22.5 24.5q7 15 24 15q25 -1 23 -27q-1 -15 -13 -28
t-30 -21.5t-38.5 -11t-39.5 5t-33 26t-18 51.5q2 26 12.5 44.5t30.5 31t51 21t75 15.5l190 -5l111 -10l107 -9v-2l199 -16q19 -1 19 -25q0 -25 -27 -25l-146 12q-2 -20 -3 -63l-7 -212z" />
    <glyph glyph-name="afii10029" unicode="&#x41b;" horiz-adv-x="898" 
d="M511 568q-10 -27 -20 -68.5l-21.5 -90.5t-26 -102.5t-32 -105t-39.5 -97.5t-49.5 -81t-61.5 -55t-76 -19q-54 1 -87.5 18t-53 44t-26.5 60.5t-7 66.5q0 29 13 53t34 41t46.5 26.5t50.5 9.5q23 0 46 -7.5t41 -21t29.5 -33.5t11.5 -44q0 -22 -7 -42.5t-20 -36.5t-31.5 -26
t-40.5 -10q-31 0 -54 17t-23 48q0 12 4.5 25.5t12.5 24.5t18.5 18.5t22.5 7.5q24 0 24 -25q0 -6 -5 -12l-10.5 -12t-10.5 -12.5t-5 -13.5q0 -15 26 -15q2 0 3.5 0.5t3.5 0.5h2q39 9 39 63q0 11 -7 21t-17.5 17.5t-24.5 12t-27 4.5q-17 0 -34 -6t-30 -16.5t-21 -25t-8 -31.5
q0 -23 5.5 -47t19.5 -44t37.5 -33t59.5 -14q38 -1 69.5 26.5t58 76t49.5 113t44 137l41.5 149t42.5 149.5q3 10 8 14.5t16 4.5q21 0 26 -15l98 -450q1 -18 7 -47t14 -60q22 -87 79 -87q17 0 32.5 11t27 29t18.5 40t7 45q0 48 -32 48q-12 0 -18.5 -9t-12 -20t-12 -20
t-18.5 -9q-25 0 -25 25q0 8 6 22q29 62 79 62q40 0 62.5 -27.5t22.5 -69.5q0 -34 -11 -66t-29.5 -56.5t-43.5 -39.5t-53 -15q-95 0 -131 132l-16 70l-80 403v2z" />
    <glyph glyph-name="afii10030" unicode="&#x41c;" horiz-adv-x="1158" 
d="M786 574l-112 -428q-14 -24 -23.5 -35.5t-23.5 -11.5q-7 0 -15 4t-15.5 10.5t-13 13.5t-7.5 13l-86 428q-29 -120 -60.5 -213t-59.5 -159t-48.5 -103.5t-26.5 -46.5q-57 -84 -130 -84q-33 0 -62 15t-50.5 39.5t-34 56.5t-12.5 65q0 29 10.5 53t28.5 41t41.5 26.5
t48.5 9.5q23 0 46 -7.5t41 -21t29.5 -33.5t11.5 -44q0 -22 -7 -42.5t-20 -36.5t-31.5 -26t-40.5 -10q-31 0 -54 17t-23 48q0 12 4.5 25.5t12.5 24.5t18.5 18.5t22.5 7.5q24 0 24 -25q0 -6 -5 -12l-10.5 -12t-10.5 -12.5t-5 -13.5q0 -15 26 -15q2 0 3.5 0.5t3.5 0.5h2
q39 9 39 63q0 11 -7 21t-17.5 17.5t-24.5 12t-27 4.5q-35 0 -56.5 -22t-21.5 -57q0 -23 8 -45.5t22 -40t34 -28.5t43 -11q42 0 78 49l24.5 32.5t22.5 34t26 54.5t35 93t49.5 149.5l69.5 225.5q3 10 8 14.5t16 4.5q17 0 21 -10l107 -497l2 -2l138 503q2 7 10.5 10.5t17.5 3.5
q19 0 24 -15l100 -450q1 -18 7 -47t14 -60q22 -87 79 -87q17 0 32.5 11t27 29t18.5 40t7 45q0 48 -32 48q-12 0 -18.5 -9t-12 -20t-12 -20t-18.5 -9q-25 0 -25 25q0 8 6 22q29 62 79 62q40 0 62.5 -27.5t22.5 -69.5q0 -34 -11 -66t-29.5 -56.5t-43.5 -39.5t-53 -15
q-95 0 -131 132l-16 70z" />
    <glyph glyph-name="afii10038" unicode="&#x424;" horiz-adv-x="787" 
d="M416 -18q-2 2 -5 2h-4q-6 -8 -19 -8q-8 0 -15 5h-13q-13 0 -71 -9q-15 -2 -43 -9q-85 -21 -84 -85q1 -23 13.5 -41t32.5 -18q9 0 19 5t18.5 12t14 16t5.5 18t-7.5 17.5t-14.5 9.5q-8 0 -15 -18q-7 -19 -20 -20q-22 0 -22 23q-1 9 7 26q17 38 47 38q26 1 48 -22
q21 -24 21 -52q1 -39 -32 -71q-30 -30 -69 -32q-37 -1 -63 32q-24 30 -26 75q-5 96 96 128q33 12 40 12l86 13q-1 -1 21 1q0 6 -0.5 13.5t-1.5 17.5q-1 11 -1.5 24.5t-0.5 24.5q-12 1 -24 1.5t-21 1.5q-92 7 -163 43q-89 44 -109 122q-23 95 82 186q3 3 17 14l22 15t18 12
l26 14.5t23 11.5q27 12 54 20.5t55 13.5l-2 67q-14 -1 -26 -1.5t-14 -0.5l-136 -11q-21 -2 -24 23q-3 23 21 28l138 12t184 17h7q7 3 8 2h1q25 4 28 -22q1 -12 -1.5 -18t-8.5 -8.5t-14 -3t-17 -1.5q-8 -1 -19 -2t-27 -3q-10 -1 -23.5 -2t-25.5 -3q1 -24 3 -51v-17
q41 0 87 -12.5t78 -26.5q11 -5 23 -11.5l26 -14.5q8 -5 18 -12l22 -15q13 -11 17 -14q105 -91 82 -186q-20 -78 -109 -122q-71 -36 -163 -43q-23 -2 -38 -2.5t-22 0.5h-1v-2q1 -24 1.5 -44t1.5 -32h8l154 -11q36 -2 36 -24q2 -17 -13 -25q-1 0 -2 -1l-12 -2l-66 7zM402 290
l5 -129h15t20 1q8 1 23.5 2.5t38.5 3.5q65 8 112 31q62 31 76 84q15 61 -56 129q-97 92 -238 106q-2 0 -3 -0.5t-3 -0.5zM350 287l-9 222q-55 -12 -105 -36t-88 -61q-71 -68 -56 -129q14 -53 76 -84q47 -23 112 -31q23 -2 38.5 -3.5t23.5 -2.5q6 0 8 -0.5t6 -0.5z" />
    <glyph glyph-name="afii10043" unicode="&#x429;" horiz-adv-x="1108" 
d="M902 169h-1q-10 -20 -29 -50q-39 -61 -74.5 -91.5t-77.5 -30.5q-54 0 -89.5 33.5t-52.5 108.5l-1 1v-1q-8 -11 -17.5 -25.5t-20.5 -28.5q-35 -45 -76 -67t-78 -22q-22 0 -39.5 7.5t-23.5 13.5q-45 40 -45 165v27q1 21 2 39.5t1.5 39.5t1 46.5t0.5 60.5v3l6 68
q0 7 -1 26.5t-1 29.5q0 1 -1.5 10.5t-3.5 26.5q-11 70 -46 83q-17 7 -49 7q-59 0 -93 -46q-32 -43 -32 -102q0 -29 15 -54q18 -28 45 -28q26 0 49 19q24 19 24 44q0 15 -10 29t-25 14t-34 -21q-17 -18 -26 -18q-25 0 -25 26q0 11 15 28q31 36 70 36q18 0 33.5 -8t27.5 -21
t18.5 -30t6.5 -35q0 -45 -39 -79q-38 -34 -85 -34q-49 0 -80 40t-31 92q0 80 47 139q49 61 128 61q49 0 81 -17q73 -40 73 -221v-28q0 -3 -0.5 3.5l-1 13t-0.5 10t0 -5.5v-2l-9 -258v-30v-8t1 -17t1.5 -17.5t0.5 -8.5q7 -67 55 -67q35 0 72 35q23 21 24 25q12 12 24 21.5
t16 16.5l40 66q2 2 3 3.5t2 2.5v1v32.5t-1 69.5q0 21 -0.5 40.5t-0.5 36v27.5v14v33t1 25v6t1 15t1 15v6v1l12 131q1 21 26 21t25 -26l-14 -161l-1 -21v-28q-1 -1 -1 -17v-62v-50t0.5 -33l0.5 -12v-12.5t1 -22.5l1.5 -21t0.5 -9q2 -18 6 -40q21 -129 94 -129q33 0 81 48
q5 5 7.5 14t12.5 23q8 11 14.5 21.5t11.5 21.5l35 70l10 24v4q0 9 -0.5 37.5t-1.5 76.5q-1 49 -1 89v50q0 35 1.5 73t3.5 81q3 21 25 21q25 0 25 -29q0 -7 -0.5 -22.5t-1.5 -40.5q-1 -13 -1 -32.5v-47.5v-51q0 -27 1 -29v-1l7 -238q1 -12 3 -27.5t7 -35.5q1 -3 6 -23.5
t13 -44.5q14 -35 34 -36q10 0 14 2q11 5 16 20q1 8 1.5 16.5t2 16.5t5 14t10.5 9q24 9 33 -14q2 -5 2 -10.5v-12.5q-3 -44 -23 -67q18 -87 14 -153t-33 -92q-18 -15 -40.5 -24t-45.5 -10t-44.5 7.5t-37.5 28.5q-12 14 -18.5 36t-7 45.5t6 44.5t21.5 33q23 19 50.5 14.5
t46.5 -27.5q15 -18 17.5 -40t-16.5 -38q-17 -16 -34 4q-4 4 -3.5 9.5l1 10.5t0.5 10.5t-4 10.5q-8 10 -14 10.5t-12 -4.5q-5 -6 -7.5 -16.5t-2.5 -22.5t3 -24.5t11 -21.5q9 -11 21 -14.5t25.5 -2.5t26.5 7t24 15q9 8 13.5 30t4.5 49t-4 54.5t-11 46.5q-30 -4 -55 14t-38 51
q-5 16 -11 40t-11 46z" />
    <glyph glyph-name="afii10046" unicode="&#x42c;" horiz-adv-x="674" 
d="M247 5l-134 -10q-21 -2 -24 23q-3 23 21 28q25 2 30.5 2.5t7.5 1t10 1.5t39 4l3 397q-1 42 -1 86t-1 92q-8 -1 -13 -1h-6l-136 -11q-21 -2 -24 23q-3 23 21 28q29 2 60 5t67 7t78 8l94 9h7q7 3 8 2h1q25 4 28 -22q1 -12 -1.5 -18t-8.5 -8.5t-14 -3t-17 -1.5q-4 0 -5 -0.5
t-2.5 -1.5t-4.5 -1.5t-11 -1.5q-7 0 -17 -1t-19.5 -2.5t-18 -2.5t-13.5 -2v-5v-68.5t-0.5 -81.5t-0.5 -82.5v-73.5v-215q-1 -13 0 -47l-1 -3q25 -2 60 0.5t71.5 8.5t71 14.5t58.5 19.5q43 17 61.5 55.5t18.5 82t-15.5 83.5t-40.5 61q-12 10 -30.5 18.5t-40 13t-46.5 2.5
t-50 -13q-13 -5 -19 -20.5t-9 -31.5q-6 -33 11 -53q11 -12 29.5 -17t30.5 6q13 10 13 41q2 13 3.5 21t6.5 12q21 18 39 -4q7 -11 7 -33q-1 -52 -33 -79q-15 -12 -33 -16.5t-37 -1.5t-36 12t-30 23q-32 39 -25 94q10 55 49 85q81 34 151 16.5t121 -71.5q12 -13 20.5 -36.5
t14 -50t7 -53t0.5 -44.5q-6 -59 -54 -105q-22 -23 -47.5 -38.5t-54.5 -23.5q-49 -15 -57 -13l-100 -14l-46 -3h-42v-1z" />
    <glyph glyph-name="afii10044" unicode="&#x42a;" horiz-adv-x="740" 
d="M318 5l-134 -10q-21 -2 -24 23q-3 23 21 28q25 2 30.5 2.5t7.5 1t10 1.5t39 4l3 397q-1 41 -1 83.5t-1 89.5q-26 -3 -48.5 -6t-24.5 -3q-14 0 -45 -6q-87 -14 -90 -78q-1 -23 11 -42t32 -21q9 0 19 4t19 11t15 15.5t7 17.5q0 9 -6.5 17.5t-13.5 10.5q-9 0 -17 -17
q-7 -17 -21 -19q-21 3 -20 25q-1 9 9 26t22 26.5t28 7.5q25 0 45 -26q11 -12 15 -26t3 -28q-1 -37 -37 -68q-33 -27 -72 -27q-19 2 -36 11t-28 26q-23 34 -21 78q2 48 30 78.5t80 42.5q34 9 41 9q21 1 50 5l61.5 8.5l67.5 9t69 6.5h7q7 3 8 2h1q25 3 27 -23q1 -12 -2 -18
t-9 -8t-14 -2.5t-17 -1.5q-4 0 -5 -0.5t-2.5 -1l-4.5 -1.5t-11 -1q-15 0 -37.5 -2t-31.5 -4v-3v-68.5t-0.5 -81.5t-0.5 -82.5v-73.5v-215q-1 -13 0 -47l-1 -3q25 -2 60 0.5t71.5 8.5t71 14.5t58.5 19.5q43 17 61.5 55.5t18.5 82t-15.5 83.5t-40.5 61q-12 10 -30.5 18.5
t-40 13t-46.5 2.5t-50 -13q-13 -5 -19 -20.5t-9 -31.5q-6 -33 11 -53q11 -12 29.5 -17t30.5 6q13 10 13 41q2 13 3.5 21t6.5 12q21 18 39 -4q7 -11 7 -33q-1 -52 -33 -79q-15 -12 -33 -16.5t-37 -1.5t-36 12t-30 23q-32 39 -25 94q10 55 49 85q81 34 151 16.5t121 -71.5
q12 -13 20.5 -36.5t14 -50t7 -53t0.5 -44.5q-6 -59 -54 -105q-22 -23 -47.5 -38.5t-54.5 -23.5q-49 -15 -57 -13l-100 -14l-46 -3h-42v-1z" />
    <glyph glyph-name="afii10045" unicode="&#x42b;" horiz-adv-x="1011" 
d="M233 5l-153 -10q-21 -2 -24 23q-3 23 21 28q25 2 33 2.5t13.5 1l16.5 1.5l43 4l3 397q-1 42 -1 86t-1 92q-8 -1 -13 -1h-6l-114 -11q-21 -2 -24 23q-3 23 21 28q29 2 56.5 5t59 7t70.5 8l91 9h7q7 3 8 2h1q25 4 28 -22q1 -12 -1.5 -18t-8.5 -8.5t-14 -3t-17 -1.5
q-4 0 -5 -0.5t-2.5 -1.5t-4.5 -1.5t-11 -1.5q-7 0 -17 -1t-19.5 -2.5t-18 -2.5t-13.5 -2v-5v-68.5t-0.5 -81.5t-0.5 -82.5v-73.5v-215q-1 -13 0 -47l-1 -3q25 -2 60 0.5t71.5 8.5t71 14.5t58.5 19.5q43 17 61.5 55.5t18.5 82t-15.5 83.5t-40.5 61q-12 10 -30.5 18.5t-40 13
t-46.5 2.5t-50 -13q-13 -5 -19 -20.5t-9 -31.5q-6 -33 11 -53q11 -12 29.5 -17t30.5 6q13 10 13 41q2 13 3.5 21t6.5 12q21 18 39 -4q7 -11 7 -33q-1 -52 -33 -79q-15 -12 -33 -16.5t-37 -1.5t-36 12t-30 23q-32 39 -25 94q10 55 49 85q81 34 151 16.5t121 -71.5
q12 -13 20.5 -36.5t14 -50t7 -53t0.5 -44.5q-6 -59 -54 -105q-22 -23 -47.5 -38.5t-54.5 -23.5q-49 -15 -57 -13l-100 -14l-46 -3h-42v-1zM780 640q5 -392 5 -571v-15q-2 0 -18.5 -1t-19.5 -1l-88 -5q-21 -1 -21 -26q0 -23 25 -25q67 5 275 11h7q7 -1 8 -1h1q25 0 25 26
q0 24 -13.5 25t-31.5 1q-15 0 -45.5 -1t-46.5 -1h-5q-4 320 -4 581l3 1q16 0 46.5 -1t45.5 -1q18 0 31.5 1t13.5 25q0 26 -25 26h-1q-1 0 -8 -1h-7q-208 6 -275 11q-25 -2 -25 -25q0 -25 21 -26l88 -5q3 0 19.5 -1t18.5 -1h1z" />
    <glyph glyph-name="afii10047" unicode="&#x42d;" horiz-adv-x="498" 
d="M153 637q-21 -10 -34.5 -29.5t-15.5 -41.5q-2 -26 16 -48.5t43 -24.5q15 -1 32 8t18 23q1 21 -22 23q-5 1 -12.5 -2.5t-13.5 -3.5q-25 1 -23 27q1 16 18 24t34 6q15 -1 28 -8t22.5 -17.5t14.5 -23.5t4 -28q-2 -18 -11 -33t-23.5 -25.5t-32.5 -16t-36 -3.5q-48 3 -79 42
q-32 40 -28 85q3 44 21.5 71t49 40t70.5 14.5t86 -5.5q52 -20 90 -61t62 -95t34 -116.5t6 -124t-22 -118t-50 -99t-77.5 -67t-104.5 -21.5q-35 2 -65 12t-55 27q-55 38 -71 102q-9 34 -7 63q2 26 28 24q10 0 14.5 -7t6.5 -16.5t2.5 -20t1.5 -17.5q3 -17 12 -38
q33 -71 135 -78q48 0 83.5 22.5t59.5 60t37 86t15 101.5l-225 3q-20 3 -20 25q0 18 20 25h128q43 -1 97 -1q-2 43 -11 84.5t-24 77t-37 63t-49 42.5q-16 9 -34.5 13t-37.5 5t-37 -1.5t-31 -7.5z" />
    <glyph glyph-name="afii10048" unicode="&#x42e;" horiz-adv-x="1050" 
d="M427 357q0 130 84 233q89 109 212 109q122 0 210 -110q83 -104 83 -232q0 -129 -84 -234q-88 -110 -210 -110q-123 0 -211 110q-52 64 -72 138l-66 -2h-10q-8 -1 -10 -1v-63l-10 -170q-2 -26 -26 -26q-25 0 -25 26q0 6 10 186v47l-78 5l-32 5t-41 11q-28 10 -28 29
q0 25 25 25q6 0 15.5 -4t12.5 -5q29 -7 45 -9q26 -2 60 -5q2 0 10 1h9v8l-8 134q0 6 -10 55q-19 93 -63 118q-14 8 -45 8q-45 0 -76.5 -35t-31.5 -81q0 -17 4 -29q6 -18 22 -32t34 -14q24 0 47 22t23 46q0 12 -10 12q-6 0 -13.5 -16t-23.5 -16q-25 0 -25 25q0 23 19.5 40.5
t43.5 17.5q26 0 43 -18.5t17 -44.5q0 -46 -37.5 -82.5t-83.5 -36.5q-43 0 -80 41q-32 36 -32 85q0 68 47.5 117.5t114.5 49.5q93 0 132 -92q6 -10 12 -31q10 -35 13 -47l11 -71l8 -134h38l39 3q-2 22 -2 44zM478 358q0 -21 2 -41l138 13q27 0 27 -25q0 -23 -19 -25l-135 -16
q17 -54 54 -103q71 -95 172 -97q103 -2 178 93q70 89 70 198q0 110 -68 199q-73 95 -177 95q-100 0 -173 -95q-69 -89 -69 -196z" />
    <glyph glyph-name="afii10049" unicode="&#x42f;" horiz-adv-x="930" 
d="M634 222q2 19 3 36.5t3 35.5q-5 0 -10.5 -0.5t-10.5 -0.5q-35 -11 -65.5 -43t-59.5 -74l-58.5 -87.5t-62 -83.5t-71 -63t-85.5 -25q-43 0 -80.5 13t-65.5 37t-44 56.5t-16 71.5q0 33 11.5 63t31.5 53t47.5 36.5t59.5 13.5q22 0 41 -6.5t33.5 -17.5t23 -27t8.5 -34
q0 -20 -6.5 -37t-18.5 -30.5t-28 -21t-35 -7.5q-32 0 -49 14t-17 31q0 26 25 26q10 0 20 -10t22 -10q16 0 26 14t10 30q0 34 -54 34q-22 0 -40 -9.5t-31.5 -25t-21 -36t-7.5 -42.5q0 -29 11.5 -52.5t32 -40t48.5 -26t61 -9.5q32 0 59.5 19t51.5 48.5t46.5 66.5l46.5 73
t49.5 68t55.5 51q-11 1 -21.5 1.5t-18.5 2.5q-37 5 -74.5 20t-66 43.5t-43 72.5t-5.5 106q4 27 18.5 52t37 45.5t51 34t61.5 18.5q45 6 52 5l96 -1l43 -3l43 -6q2 5 2.5 8.5t1.5 5.5q8 22 28 16q26 -2 21 -31q-1 -8 -3 -12t-5 -13t-7 -28.5t-10 -56.5l-7 -51q-6 -25 -4 -29
l-28 -238q-2 -18 0 -47.5t5 -61.5q8 -89 66 -97q16 -3 33 5.5t31 24.5t24.5 37t13.5 43q6 47 -25 53q-12 1 -20 -7t-15 -17.5t-14.5 -18t-19.5 -6.5q-24 4 -21 29q1 8 9 20q38 59 88 51q39 -6 57 -37t13 -72q-5 -34 -20.5 -64t-38 -51.5t-49.5 -32.5t-55 -7q-93 14 -109 151
zM491 346q28 -5 71 -5.5t83 1.5q11 97 22.5 172t19.5 122q-8 1 -17 1.5t-14 1.5q-26 4 -55 5.5t-57.5 0.5t-55 -4t-46.5 -8q-42 -11 -63.5 -40t-26.5 -66q-11 -75 25 -122.5t114 -58.5z" />
    <glyph glyph-name="afii10065" unicode="&#x430;" horiz-adv-x="500" 
d="M13 118q0 74 79 165q8 12 20 21q92 90 162 90q39 0 62 -37q20 -32 20 -75q0 -50 -24 -107v-4q5 -51 7 -60q15 -63 48 -63q29 0 38 33q5 21 7 23q6 12 21 12q25 0 25 -26q0 -13 -7 -31q-25 -62 -84 -62q-55 0 -82 60q-5 27 -11 55v2h-1q-24 -29 -33 -39q-67 -76 -134 -76
q-47 0 -80 36t-33 83zM64 118q0 -26 18 -47t44 -21q33 0 73 37q12 11 26 26.5t31 37.5l26 38q22 38 22 92q0 62 -31 62q-19 0 -48 -16q-69 -38 -122 -112q-39 -54 -39 -97z" />
    <glyph glyph-name="afii10070" unicode="&#x435;" horiz-adv-x="412" 
d="M21 158q0 56 17 114q19 69 53 99t77 30q38 0 67.5 -27.5t29.5 -65.5q0 -35 -23.5 -82.5t-49.5 -66.5t-40 -26l-62 -32q0 -3 5 -8q46 -49 113 -49q74 0 114 58q10 14 15.5 26.5t12.5 26.5t22 14q25 0 25 -25q0 -6 -3 -13q-56 -138 -187 -138q-73 0 -128 45q-58 48 -58 120
zM72 150l1 -1l2 1q37 18 54 28q30 18 50 36q10 9 23 43.5t13 50.5q0 17 -15.5 29.5t-32.5 12.5q-55 0 -84 -80q-11 -30 -11 -112v-8z" />
    <glyph glyph-name="afii10076" unicode="&#x43a;" horiz-adv-x="365" 
d="M98 183l-11 -1q-1 -11 -1 -19v-12q-1 -10 0 -25.5t1 -36.5v-74q-3 -19 -24 -19q-26 0 -26 33q0 16 -0.5 20t-0.5 5t-0.5 3t-0.5 13.5v36.5v72v210q1 21 25 21q22 0 25 -20v-25v-10t0.5 -6.5t0.5 -15t0.5 -36t0.5 -68.5q33 0 64.5 18t58.5 45t47.5 58.5t31.5 58.5
q6 13 22 13q25 0 25 -27q0 -6 -8 -24q-14 -28 -27.5 -49t-29 -38t-33.5 -33l-41 -35q43 -9 67.5 -39.5t37.5 -69.5t17.5 -79t6.5 -68q3 -41 5.5 -65t4.5 -38.5t4 -21.5t4 -13q28 -81 91 -81q22 0 40.5 2t32 9t20.5 20t7 35q0 17 -4.5 35.5t-13 33.5t-21 25t-28.5 10
t-30.5 -7.5t-14.5 -23.5q0 -14 8.5 -27t20.5 -13q8 0 11 8t10 8q25 0 25 -26q0 -32 -47 -32q-34 0 -56 25t-22 60q0 18 8 32.5t21.5 25t30.5 16t35 5.5q25 0 46.5 -12.5t37.5 -33.5t25 -48.5t9 -57.5q0 -34 -11 -57t-31 -37t-48 -20t-62 -6q-50 0 -84 33t-54 91l-4 12.5
t-3.5 18t-3.5 30.5t-4 50q-1 16 -4.5 42.5t-9.5 56t-15 58t-22 48.5q-17 25 -41.5 39t-55.5 14h-35z" />
    <glyph glyph-name="afii10080" unicode="&#x43e;" horiz-adv-x="474" 
d="M25 204q0 89 58 142.5t154 53.5q95 0 153 -54t58 -144t-63 -148t-160 -58q-93 0 -146.5 58t-53.5 150zM76 203q0 -70 39 -113t111 -43q74 0 122.5 43.5t48.5 111.5q0 60 -47.5 103.5t-108.5 43.5q-76 0 -120.5 -38t-44.5 -108z" />
    <glyph glyph-name="afii10081" unicode="&#x43f;" horiz-adv-x="539" 
d="M449 13v3q0 7 2.5 17t2.5 17l1 15v20v10.5t-1 22.5q0 24 -6 81q-1 5 -2.5 16.5t-5.5 30.5q-20 102 -85 102q-51 0 -103 -64q-24 -30 -45 -65l-5 -7v-5v-15t1 -21v-36v-28l-8 -86q-1 -25 -26 -25t-25 26v4l8 115q0 5 -1 27.5t-3 62.5q0 8 -6 47q-1 8 -6 26q-9 30 -28 30
q-21 0 -48 -29q-2 -2 -1.5 -1t1.5 2.5t1 2.5t-2 -2l-18 -27q-18 -27 -30 -27q-26 0 -26 25q0 9 14 32q15 24 28 38.5t26 22.5t26 11t29 3q62 0 84 -94l3 3q76 106 160 106q109 0 141 -176q2 -17 4 -36.5t4 -42.5q1 -7 1 -12v-7v-30q0 -36 -3 -51q-2 -32 -3 -36
q-5 -21 -25 -21q-25 0 -25 25z" />
    <glyph glyph-name="afii10082" unicode="&#x440;" horiz-adv-x="474" 
d="M52 -351q34 2 51.5 33.5t24 78.5t6.5 104v110q0 2 -0.5 9.5t-1 16.5t-1 19t-0.5 17q0 2 0.5 4.5t0.5 4.5l-19 219q-1 8 -3.5 20t-6.5 22.5t-9 18t-11 7.5q-5 0 -11 -7l-13 -15t-14.5 -15t-15.5 -7q-25 0 -25 25q0 10 10 23q33 46 69 46q37 0 66 -54q3 1 3 2q82 67 141 67
q32 0 60.5 -13t49.5 -35t33 -51.5t12 -61.5q-2 -53 -17 -96.5t-43 -75t-68.5 -48.5t-91.5 -17q-7 0 -20.5 1t-19.5 1h-2l-3 -193q0 -51 -10 -90.5t-28 -66.5t-42 -40.5t-52 -13.5q-11 -1 -18.5 6t-9 16.5t5 18t23.5 10.5zM184 55q10 -2 18.5 -3t13.5 -1h11q38 0 69 14
t53.5 38.5t35 59.5t12.5 77q-1 19 -9.5 38.5t-22.5 34.5t-32 24.5t-39 9.5q-13 0 -29.5 -5t-34 -14.5t-35 -24t-30.5 -32.5v-6z" />
    <glyph glyph-name="afii10083" unicode="&#x441;" horiz-adv-x="385" 
d="M20 155q0 61 32.5 125t81.5 93q35 21 72 21q47 0 81 -24q37 -28 37 -73q0 -30 -19.5 -52t-48.5 -22t-49 20t-20 49q0 43 28 43q25 0 25 -25v-8q-1 -6 -1 -9v-7q1 -12 17 -12h5q12 3 12 23q0 23 -24 36q-19 10 -45 10q-20 0 -45 -14q-77 -43 -87 -127q-1 -3 -1 -47
q0 -48 24.5 -80t70.5 -32q81 0 138 68q19 23 29 23q25 0 25 -26q0 -15 -22 -37q-78 -79 -169 -79q-67 0 -108 48q-39 45 -39 115z" />
    <glyph glyph-name="afii10084" unicode="&#x442;" horiz-adv-x="724" 
d="M113 16v7l9 160v8v8q0 42 -4 70v1q0 3 -3 27q-1 1 -5 20q-7 28 -22 28q-23 0 -34 -28q-13 -27 -29 -27q-25 0 -25 25q0 11 14 35q24 45 74 45q34 0 52 -24q13 -16 24 -55q53 72 121 72q77 0 111 -101l1 -1q73 108 147 108q92 0 126 -126q9 -34 9 -40l10 -83q2 -6 2 -42
v-33q0 -35 -3 -55.5t-25 -20.5q-25 0 -25 25q0 11 1 34.5t1 35.5v3l-4 78q0 2 -1 12t-2 11v1q-3 21 -8 45q-22 104 -81 104q-60 0 -117 -107q-4 -7 -14 -27v-2l9 -90v-5v-74q0 -40 -25 -40q-26 0 -26 25q0 8 1 25v24q0 11 -1 28q-2 13 -1 27q0 5 -2.5 33.5t-3.5 33.5
q0 2 -4 23.5t-5.5 29t-5.5 19.5q-21 71 -64 71q-48 0 -93 -70q-5 -9 -13 -22q-4 -7 -6 -13v-81l-9 -135q-2 -26 -26 -26q-25 0 -25 26z" />
    <glyph glyph-name="afii10085" unicode="&#x443;" horiz-adv-x="472" 
d="M97 -220q0 95 71 138q23 14 52 14q42 0 70 -39q24 -35 24 -80q0 -29 -21.5 -50.5t-50.5 -21.5q-44 0 -62 40q-5 15 -5 19q0 25 25 25q17 0 24 -16.5t16 -16.5q22 0 22 23t-10 42q-13 24 -33 24q-14 0 -30 -10q-42 -26 -42 -95q0 -77 60 -124q26 -20 53 -20q30 0 56 27
q23 24 33 56q7 23 11 51q8 59 8 61v1l10 135q0 4 2 44t2 44q1 22 1 41v3q-53 -97 -134 -97q-28 0 -55 10q-81 30 -81 121q0 13 2 32l13 123q1 10 1 27t-28 17q-21 0 -36 -24q-6 -10 -12.5 -18.5t-18.5 -8.5q-25 0 -25 24q0 9 15 34q32 44 78 44q64 0 76 -62q1 -5 1 -25v-13
l-14 -135q-1 -12 -1 -42.5t47 -45.5q22 -7 39 -7q70 0 106 119q9 29 23 140q5 39 5 67q3 22 26 22q20 0 25 -22v-216q0 -65 -4 -165q0 -1 -1.5 -10t-1.5 -46v-1l-6 -76l-13 -113q-3 -16 -9 -41q-13 -50 -50 -87q-41 -39 -90 -39q-41 0 -80 27q-83 57 -83 172z" />
    <glyph glyph-name="afii10087" unicode="&#x445;" horiz-adv-x="401" 
d="M188 138l-2 -2l-99 -124q-9 -11 -21 -11q-25 0 -25 25q0 10 3 15l109 136l-137 152q-6 7 -6 17q0 25 26 25q10 0 15 -5l135 -148l140 175q9 11 21 11q25 0 25 -26q0 -9 -4 -13l-147 -186q1 0 1 -2l142 -158q4 -4 4 -14q0 -26 -25 -26q-11 0 -14 5z" />
    <glyph glyph-name="afii10086" unicode="&#x444;" horiz-adv-x="639" 
d="M270 455v77l5 62q10 71 42.5 106.5t91.5 35.5q30 0 56.5 -14t46 -36.5t30.5 -51t11 -58.5q0 -61 -28 -98.5t-82 -37.5q-42 0 -71 26.5t-29 68.5q0 30 21 52t50 22q10 0 20.5 -5t18.5 -13.5t13.5 -18.5t5.5 -20t-7.5 -18t-17.5 -8q-8 0 -13.5 5t-10 11t-7 11l-2.5 5
q-7 0 -13.5 -5.5t-6.5 -18.5q0 -42 50 -42q18 0 29.5 7t17.5 19t8.5 27.5t2.5 33.5q0 19 -8 38t-21 34t-30 24.5t-35 9.5q-42 0 -64.5 -35.5t-22.5 -106.5v-45q0 -46 2 -79.5t2 -71.5l5 -60q16 32 37 50t44.5 26t47 8.5t44.5 -2.5q25 -3 43.5 -17t31 -35t20 -46t11 -51
t3.5 -50t-2 -42q-5 -45 -33.5 -78t-66.5 -48.5t-80.5 -12t-76.5 30.5l5 -49q0 -15 1 -26q0 -10 0.5 -18t0.5 -7v-83q1 -7 1 -12v-7v-6t-1 -11v-17q0 -13 -1 -14v-2q-7 -72 -36.5 -112t-85.5 -40q-23 0 -44.5 9t-38 25t-26 36.5t-9.5 44.5q0 13 5.5 28.5t15 28.5t23 22
t29.5 9q26 0 26 -25q0 -7 -7.5 -14t-17 -14.5t-17 -16t-7.5 -19.5q0 -12 6 -23.5t15.5 -20t21.5 -14t24 -5.5q32 0 53 33t21 97v43v13.5t-0.5 29l-1 32.5t-0.5 22q-1 13 -1 19.5v8.5v2l-10 102q-13 -27 -30 -43.5t-36.5 -26t-40 -12.5t-39.5 -3q-38 0 -64 25t-41.5 61
t-22 75t-6.5 66q0 47 26 84t65 57.5t83.5 20.5t81.5 -27q-1 13 -1.5 29l-1 31.5t-0.5 28v20.5zM345 115q0 -22 4 -37v-3q35 -29 67 -36t58.5 2t46 31.5t28.5 52.5q7 24 6.5 57t-9 63t-25 51.5t-39.5 24.5q-26 3 -49 -6.5t-41.5 -28t-32.5 -43.5t-21 -53zM77 221
q-5 -25 0 -57.5t17 -61t30.5 -48.5t42.5 -20q26 0 47 13t36 34.5t24.5 49t12.5 56.5l-10 111q-39 25 -73 28t-60 -10t-43.5 -38.5t-23.5 -56.5z" />
    <glyph glyph-name="afii10067" unicode="&#x432;" horiz-adv-x="442" 
d="M37 228q-27 0 -43.5 21.5t-16.5 50.5q0 28 14 52.5t39 42.5t59 28t73 10q37 0 73 -10t65 -26.5t47 -39.5t18 -48q0 -23 -14 -39.5t-37 -31.5q54 -6 81.5 -35t27.5 -71q0 -15 -9 -31t-23 -30.5t-32.5 -26t-36.5 -17.5q-29 -11 -36 -11l-67 -13q-33 -3 -53.5 -3t-32 2
t-16 5t-4.5 7v3l-13 252q0 3 -1 12.5t-1.5 19.5t-1 19t-0.5 12v6q2 6 11.5 9t16.5 3q11 0 14.5 -4.5t3.5 -14.5l7 -104q21 4 46.5 9.5t48 14.5t37.5 22.5t15 34.5q0 18 -11 31t-29.5 22t-43 13t-51.5 4q-24 0 -49 -3.5t-45 -13t-33 -27t-13 -45.5q0 -17 7.5 -19.5t19.5 -2.5
q7 1 11 -4.5t3.5 -12.5t-6.5 -14t-19 -8zM157 75q0 -4 0.5 -11t1.5 -18v-2l66 7l49 10q47 11 69 30.5t20 42.5q-1 18 -9.5 34t-32 24.5t-64 7t-106.5 -19.5v-2v-4.5t1 -11.5z" />
    <glyph glyph-name="afii10069" unicode="&#x434;" horiz-adv-x="414" 
d="M383 392q8 -60 2 -128.5t-32 -127.5t-73.5 -98t-121.5 -39q-38 0 -65 26.5t-44 64t-24.5 78t-7.5 67.5q0 33 16 61.5t42.5 50t59.5 34.5t67.5 15.5t67.5 -7t58 -32.5q0 26 -1.5 48.5t-3.5 41.5q-5 54 -17.5 106.5t-32 94t-46.5 67.5t-61 26q-38 0 -67 -25t-42.5 -59
t-9.5 -69t32 -56q12 -9 26 -18.5t25 -9.5q7 0 15.5 6t15 14.5t11 18t4.5 17.5q0 14 -12 21.5t-32 7.5h-9q-1 -1 -3 -1q-21 -6 -20 -6q-25 0 -25 25q0 33 55 33q37 0 65 -22t28 -58q0 -23 -12 -44q-31 -55 -80 -55q-16 0 -33.5 6t-33.5 17q-27 19 -41.5 48.5t-17.5 62.5
t5.5 66.5t28.5 61t51.5 44.5t74.5 18q47 1 84.5 -29t65 -83t45 -125t23.5 -156zM77 245q-5 -25 1 -60.5t19.5 -67t33.5 -52t43 -16.5q45 8 74.5 34.5t46.5 63t24.5 80t8.5 86.5q-41 31 -83.5 36t-77.5 -7.5t-59.5 -38.5t-30.5 -58z" />
    <glyph glyph-name="afii10066" unicode="&#x431;" horiz-adv-x="418" 
d="M152 56q28 -11 56.5 -8t53.5 15t43.5 30.5t26.5 39.5q7 20 8.5 39.5t0 37t-4 31t-4.5 21.5q-9 42 -36.5 62t-60.5 23t-64.5 -7t-49.5 -27q-24 -23 -29.5 -60t1 -75.5t23 -72.5t36.5 -49zM103 459q32 42 61.5 61t56.5 32t51.5 29t48.5 53q16 26 18 44.5t-4.5 30
t-20.5 16.5t-29 5q-13 0 -24 -4t-17.5 -11.5t-6 -17t10.5 -20.5q2 -2 7.5 -3l11.5 -2t11 -2t6 -3q5 -8 5 -17t-1 -11q-5 -6 -14.5 -8t-19.5 -0.5t-19.5 5.5t-15.5 10q-22 21 -22.5 45.5t12 44.5t35.5 32.5t49 8.5q25 -4 46.5 -14t33.5 -28t13 -45t-14 -66q-16 -39 -38 -61.5
t-47 -38t-51 -27.5t-50.5 -30t-46 -46t-35.5 -75q18 18 39.5 27.5t42.5 14t40.5 5.5t32.5 1q31 0 57 -15.5t46 -50.5q17 -31 23.5 -64.5t6.5 -70.5q0 -104 -80 -154q-17 -11 -34 -20t-36 -14.5t-40.5 -6.5t-46.5 4q-19 -1 -41 17t-40.5 49.5t-30.5 75t-11.5 94.5t16.5 107.5
t55 113.5z" />
    <glyph glyph-name="afii10068" unicode="&#x433;" horiz-adv-x="355" 
d="M270 99q-6 21 -1.5 32t12.5 14.5t16.5 2t11.5 -4.5q4 -7 7 -11.5t4.5 -9t2 -10.5t-0.5 -15q-3 -57 -53 -88q-30 -18 -72 -20.5t-79.5 10t-63 39t-23.5 66.5q2 29 16.5 58t43.5 49l136 67q24 14 26 37q-2 11 -8 16q-24 29 -50 29q-11 1 -25.5 -1t-29.5 -6t-27 -10t-16 -14
q-3 -6 -5 -12.5t-5 -11t-8 -7.5t-13 -2q-25 0 -25 27q1 4 2.5 9.5t5.5 13.5q6 15 23 27.5t39 21.5t45.5 13t40.5 3q41 -3 71 -30q19 -15 27 -32t8 -37q-2 -50 -46 -76l-145 -72q-14 -10 -21 -28t-8 -33q-3 -13 6 -31q10 -26 38.5 -35.5t59 -4.5t55 22.5t28.5 44.5z" />
    <glyph glyph-name="afii10072" unicode="&#x436;" horiz-adv-x="750" 
d="M364 -104l-13 231l-3 58l-59 -3h-2q-5 -36 -16.5 -68.5t-30.5 -57t-45 -38.5t-58 -14q-25 0 -46.5 7t-37.5 20t-25 31t-9 39q0 30 17 52.5t46 22.5q23 0 33.5 -12.5t10.5 -26.5q0 -10 -5 -17.5t-15 -7.5q-4 0 -6 2t-4 4.5t-5 4.5t-9 2v-1q-12 -3 -12 -26t20 -36.5
t49 -13.5q26 0 44 11.5t29 30t17 41.5t8 47q-10 -1 -17 -1.5t-12 -0.5h-13q-20 0 -20 17q0 22 20 27l44 2v4q0 24 -5 47.5t-15.5 41.5t-26.5 29.5t-39 11.5q-46 -5 -52 -54q1 -5 1 -8.5v-7.5q0 -18 -8 -24.5t-17 -6.5q-15 0 -20 9t-5 21q0 44 27 77t73 39q33 0 58.5 -14
t43 -38t27 -55.5t9.5 -67.5v-1l57 4l-11 262q3 29 26 29q12 -1 18.5 -10t5.5 -19l11 -259l62 3q6 34 18 63.5t31 51.5t43.5 35t55.5 13q25 0 46.5 -7t37.5 -20t25 -31t9 -39q0 -30 -17 -52.5t-46 -22.5t-47.5 16t-18.5 45q0 12 3.5 19t8 10.5t10 4t9.5 0.5q19 0 19 -23v-9
q-1 0 -1 3v-3q1 -12 17 -12v1q12 3 12 26t-20 36.5t-49 13.5q-24 0 -41 -10t-28.5 -26t-17.5 -37t-9 -43l23 2q14 0 22 -2.5t8 -15.5q0 -12 -8.5 -19t-18.5 -7l-30 -2v-18q0 -25 6.5 -48.5t19.5 -41.5t31.5 -29t41.5 -11q13 0 27.5 15.5t17.5 38.5q-1 5 -1.5 8.5t-0.5 6.5
q0 19 8.5 25t17.5 6q16 0 21 -8.5t5 -21.5q0 -21 -6.5 -41t-19 -35.5t-30.5 -25.5t-40 -13q-33 0 -60 14t-47 38t-31 55.5t-11 67.5v15l-55 -3l3 -54q7 -103 10 -160t3 -68l-1 -13q-3 -19 -24 -19q-23 2 -26 22z" />
    <glyph glyph-name="afii10073" unicode="&#x437;" horiz-adv-x="360" 
d="M208 237q18 2 29.5 13t18.5 24.5t10 25.5t3 17q-1 23 -16 34.5t-34 13.5q-11 1 -24.5 -1t-26 -6.5t-21.5 -11.5t-10 -17q-4 -12 -9 -23t-21 -11q-25 0 -25 25q0 8 6 25q11 30 41 48.5t63 18.5q10 0 23 -1t26 -3.5t25 -6.5t20 -11q18 -14 25.5 -33t7.5 -39
q0 -12 -1.5 -27.5t-7 -30t-17 -26t-32.5 -16.5q26 -9 40 -21t20.5 -25.5t7.5 -28.5t1 -29q0 -25 -12 -50q-19 -38 -52.5 -62t-78.5 -24q-29 0 -63.5 7.5t-56.5 23.5q-48 34 -48 91q0 35 16 58q18 28 51 28q29 0 46.5 -18.5t17.5 -47.5q0 -25 -7.5 -34t-22.5 -9q-24 0 -24 25
q0 4 1.5 8.5t1.5 8.5v4q-1 1 -1 4q-2 8 -12 8q-16 0 -16 -36q0 -35 34 -54q14 -8 39 -12t43 -4q29 0 52 16.5t34 39.5q7 14 7 29q0 26 -14 50.5t-52 32.5q-10 2 -30.5 2.5t-34.5 -1.5q-13 -5 -17 1.5t-4 19.5q0 9 9.5 12.5t22.5 4t27 0t22 1.5z" />
    <glyph glyph-name="afii10074" unicode="&#x438;" horiz-adv-x="430" 
d="M346 25l-3 81v2l-7 180q-38 -50 -77.5 -96l-72.5 -83l-55.5 -61t-24.5 -28q-5 -11 -14 -16t-18.5 -4.5t-17.5 6.5t-9 17l-3 81v2l-9 248q0 29 25 29q14 0 21.5 -9t6.5 -19l9 -240q0 -7 0.5 -13.5t0.5 -11.5q27 28 59 65l64 75.5l61.5 76l52.5 68.5q4 18 24 18
q14 0 21.5 -9t6.5 -19l9 -248q3 -59 3 -81v-13q-3 -19 -24 -19q-26 0 -29 21z" />
    <glyph glyph-name="afii10075" unicode="&#x439;" horiz-adv-x="430" 
d="M346 25l-3 81v2l-7 180q-38 -50 -77.5 -96l-72.5 -83l-55.5 -61t-24.5 -28q-5 -11 -14 -16t-18.5 -4.5t-17.5 6.5t-9 17l-3 81v2l-9 248q0 29 25 29q14 0 21.5 -9t6.5 -19l9 -240q0 -7 0.5 -13.5t0.5 -11.5q27 28 59 65l64 75.5l61.5 76l52.5 68.5q4 18 24 18
q14 0 21.5 -9t6.5 -19l9 -248q3 -59 3 -81v-13q-3 -19 -24 -19q-26 0 -29 21zM294 565q-3 5 -5.5 5.5t-7.5 0.5h-2l1 -1q-2 -14 -12 -15t-18.5 7t-11 22.5t12.5 29.5q8 9 19.5 11t23.5 -1.5t23 -11t19 -18.5q9 -15 10 -33t-4 -36t-16 -33.5t-26 -24.5q-82 -51 -168 -4
q-16 9 -28 24t-18 33t-5.5 36t9.5 33q7 11 18 19.5t22.5 12t23 2t20.5 -10.5q15 -14 13.5 -28t-9.5 -22.5t-18.5 -8.5t-11.5 14l-1 1l-2 1q-5 -2 -7 -2.5t-5 -5.5q-4 -6 -3.5 -14.5t4 -17t9 -16t11.5 -11.5q28 -16 61 -15.5t59 18.5q14 8 21 27.5t-1 32.5z" />
    <glyph glyph-name="afii10077" unicode="&#x43b;" horiz-adv-x="434" 
d="M405 22q2 -25 -23 -26q-18 -2 -26 16l-141 296l-143 -302q-6 -12 -22 -13q-24 -2 -26 24q0 6 2 9l166 357q6 13 21 14q18 1 25 -14l165 -354q2 -2 2 -7z" />
    <glyph glyph-name="afii10078" unicode="&#x43c;" horiz-adv-x="595" 
d="M307 175l98 216q6 11 22 11q18 0 23 -12l116 -367q2 -5 2 -10q0 -25 -25 -25q-10 0 -14.5 3t-6.5 8l-99 313l-93 -223q-5 -9 -24 -15q-22 5 -28 17l-81 208h-1l-3 -3l-124 -295q-6 -14 -22 -14q-26 0 -26 25q0 6 2 10l154 351q5 11 30 11q15 0 22 -14z" />
    <glyph glyph-name="afii10079" unicode="&#x43d;" horiz-adv-x="430" 
d="M98 20q-5 -11 -12.5 -16t-16 -4.5t-15 6.5t-7.5 17l-3 81v2l-9 248q0 29 25 29q14 0 21.5 -9t6.5 -19l5 -131q63 1 124 3t122 7l-4 141q1 12 10.5 15.5t20 1t17.5 -9.5t4 -17l9 -248q3 -59 3 -81v-13q-3 -19 -24 -19q-26 0 -29 21l-3 81v2l-3 76q-82 -5 -146 -6.5
t-99 -2.5l2 -60v-17.5t0.5 -31t0.5 -30v-16.5z" />
    <glyph glyph-name="afii10089" unicode="&#x447;" horiz-adv-x="486" 
d="M396 41q18 -5 25 3t10.5 19.5t5.5 22t9 10.5q25 -1 25 -26q1 -5 -1.5 -10t-4.5 -12q-5 -27 -24 -44.5t-44 -16.5q-39 1 -53 27.5t-13 68.5l1 125q-9 -18 -25 -34.5t-35 -28t-39.5 -17t-38.5 -2.5q-56 8 -82.5 52t-16.5 110q1 4 1 11.5v9.5q0 34 -16 34q-8 0 -11.5 -8
t-7 -17t-8.5 -17t-14 -8q-25 0 -25 26q0 35 21 55t45 20q17 0 31 -5.5t23.5 -18.5t12.5 -34.5t-1 -52.5q-7 -42 9 -72.5t45 -35.5q12 -2 27 2t31 14t31.5 27t27.5 43q12 28 12.5 49.5t0 36.5t2.5 24t20 14q11 3 17.5 -3.5t7.5 -16.5q1 -26 3 -64.5t1 -90.5l2 -122
q0 -19 2 -30.5t11 -16.5z" />
    <glyph glyph-name="afii10088" unicode="&#x446;" horiz-adv-x="484" 
d="M373 88q0 -38 16 -47q10 -3 16 -2q6 4 10 5q6 6 8.5 14.5t4 17t4 14.5t7.5 6q25 -1 25 -26q1 -5 -1.5 -10t-4.5 -12q-2 -8 -5 -16t-7 -14q18 -87 10 -145.5t-38 -84.5q-18 -15 -40.5 -21.5t-44.5 -5.5t-41.5 8t-31.5 19q-14 13 -20.5 32t-6.5 39.5t7 39.5t22 31
q23 19 50.5 14.5t46.5 -27.5q15 -18 10.5 -32.5t-9.5 -23.5q-5 -10 -15.5 -8t-18.5 12q-4 4 -3.5 6t1 3t0.5 3t-4 7q-8 10 -14 10.5t-12 -4.5q-10 -11 -10.5 -30.5t14.5 -37.5q9 -11 20.5 -14.5t24 -1.5t25 8t23.5 15q9 8 14.5 27.5t7 43t-1.5 47.5t-9 41q-3 0 -6 -0.5
t-6 -0.5q-20 0 -33 9.5t-20.5 24.5t-10.5 34t-3 40q-51 -108 -125 -108q-112 0 -112 132v11l12 153q1 4 1 6.5v4.5q0 34 -16 34q-14 0 -24 -25q-9 -25 -27 -25q-25 0 -25 26q0 11 7 26q22 49 69 49q67 0 67 -82v-6l-13 -169q0 -85 60 -85q12 0 24.5 7t25 18.5t23 27
t17.5 33.5q13 29 19 59t8.5 55.5t2 43.5t0.5 24q2 17 1.5 32t-0.5 28q3 20 25 20q23 0 25 -20q0 -13 0.5 -48t1.5 -77.5t1.5 -84t1.5 -67.5z" />
    <glyph glyph-name="afii10090" unicode="&#x448;" horiz-adv-x="725" 
d="M375 122q0 -85 61 -85q12 0 24.5 7t25 18.5t23 27t17.5 33.5q13 29 19 59t8.5 55.5t2 43.5t0.5 24q2 17 1.5 32t-0.5 28q3 20 25 20q23 0 25 -20q0 -13 0.5 -48t1.5 -77.5t1.5 -84t1.5 -67.5q0 -38 16 -47q18 -5 25 3t10.5 19.5t5.5 22t9 10.5q25 -1 25 -23
q1 -5 -1.5 -11.5t-4.5 -13.5q-5 -27 -24 -44.5t-44 -16.5q-20 0 -33 9.5t-20.5 24.5t-10.5 34t-3 40q-51 -108 -125 -108q-57 0 -83.5 28.5t-28.5 79.5q-51 -108 -127 -108q-112 0 -112 132v11l12 153q1 4 1 6.5v4.5q0 34 -16 34q-14 0 -24 -25q-9 -25 -27 -25q-25 0 -25 26
q0 11 7 26q22 49 69 49q67 0 67 -82v-6l-13 -169q0 -85 60 -85q12 0 25 7t25.5 18.5t23.5 27t18 33.5q13 29 19 59t8.5 55.5t2 43.5t0.5 24q2 17 1.5 32t-0.5 28q3 20 25 20q23 0 25 -20q0 -13 0.5 -42.5t1.5 -65.5t1.5 -72.5t1.5 -62.5z" />
    <glyph glyph-name="afii10091" unicode="&#x449;" horiz-adv-x="725" 
d="M375 122q0 -85 61 -85q12 0 24.5 7t25 18.5t23 27t17.5 33.5q13 29 19 59t8.5 55.5t2 43.5t0.5 24q2 17 1.5 32t-0.5 28q3 20 25 20q23 0 25 -20q0 -13 0.5 -48t1.5 -77.5t1.5 -84t1.5 -67.5q0 -38 16 -47q18 -5 25 3t10.5 19.5t5.5 22t9 10.5q25 -1 25 -23
q1 -5 -1.5 -11.5t-4.5 -13.5q-2 -9 -5 -16.5t-8 -14.5q20 -88 11.5 -147.5t-38.5 -85.5q-18 -15 -40.5 -21.5t-44.5 -5.5t-41.5 8t-31.5 19q-14 13 -20.5 32t-6.5 39.5t7 39.5t22 31q23 19 50.5 14.5t46.5 -27.5q15 -18 10.5 -32.5t-9.5 -23.5q-5 -10 -15.5 -8t-18.5 12
q-4 4 -3.5 6t1 3t0.5 3t-4 7q-8 10 -14 10.5t-12 -4.5q-10 -11 -10.5 -30.5t14.5 -37.5q9 -11 20.5 -14.5t24 -1.5t25 8t23.5 15q9 8 14.5 28t6.5 44.5t-2 49t-10 41.5q-3 -1 -10 -1q-20 0 -33 9.5t-20.5 24.5t-10.5 34t-3 40q-51 -108 -125 -108q-57 0 -83.5 28.5
t-28.5 79.5q-51 -108 -127 -108q-112 0 -112 132v11l12 153q1 4 1 6.5v4.5q0 34 -16 34q-14 0 -24 -25q-9 -25 -27 -25q-25 0 -25 26q0 11 7 26q22 49 69 49q67 0 67 -82v-6l-13 -169q0 -85 60 -85q12 0 25 7t25.5 18.5t23.5 27t18 33.5q13 29 19 59t8.5 55.5t2 43.5t0.5 24
q2 17 1.5 32t-0.5 28q3 20 25 20q23 0 25 -20q0 -13 0.5 -42.5t1.5 -65.5t1.5 -72.5t1.5 -62.5z" />
    <glyph glyph-name="afii10096" unicode="&#x44e;" horiz-adv-x="635" 
d="M98 20q-5 -11 -12.5 -16t-16 -4.5t-15 6.5t-7.5 17l-3 81v2l-9 248q0 29 25 29q14 0 21.5 -9t6.5 -19l5 -131q17 0 26.5 -0.5t17.5 -0.5h18t27 2q5 75 57 122q58 54 154 54q95 0 153 -54t58 -144t-63 -148t-160 -58q-93 0 -147 58q-44 48 -52 120q-33 -2 -53.5 -3
t-33.5 -1l2 -56v-17.5t0.5 -31t0.5 -30v-16.5zM232 204q0 -70 39 -113t111 -43q74 0 122.5 43.5t48.5 111.5q0 60 -47.5 103.5t-108.5 43.5q-76 0 -120.5 -38t-44.5 -108z" />
    <glyph glyph-name="afii10095" unicode="&#x44d;" horiz-adv-x="328" 
d="M169 401q33 0 58.5 -14t43 -38t27 -55.5t9.5 -67.5q0 -43 -10 -84.5t-29.5 -74.5t-48 -53.5t-65.5 -20.5q-25 0 -49 5.5t-43.5 17t-31 30t-11.5 44.5q1 30 16.5 52.5t44.5 22.5q23 0 34.5 -12.5t11.5 -26.5q0 -10 -5 -17.5t-15 -7.5q-4 0 -6 2t-4 4.5t-5 4.5t-9 2v-1
q-12 -3 -12 -26q0 -12 8 -21t20.5 -15.5t28 -10t29.5 -3.5q20 0 37.5 13.5t30.5 35t20.5 48t9.5 52.5l-17 -2q-29 -3 -49.5 -3h-31.5h-13q-9 1 -14.5 4.5t-4.5 13.5q0 23 20 26l112 3q0 24 -5 47t-15.5 41t-27 29t-38.5 11q-38 -2 -55.5 -16.5t-20.5 -37.5q1 -5 1 -8.5v-7.5
q0 -18 -8 -24.5t-17 -6.5q-15 0 -20 9t-5 21q0 22 7 41.5t22 35.5t38.5 26t56.5 13z" />
    <glyph glyph-name="afii10097" unicode="&#x44f;" horiz-adv-x="468" 
d="M160 50q-21 -35 -50.5 -49t-63.5 6q-28 16 -32 46t9 59q4 9 10.5 13.5t13 5t12.5 -2.5t9 -7q6 -4 2.5 -14t-7 -21.5t-1.5 -22t20 -15.5q19 0 39 34l64 108q-35 8 -56 20.5t-32.5 26t-15 27t-3.5 24.5q0 25 15.5 51t42 47t60.5 34t71 13q39 0 73.5 -8t60 -23.5t40.5 -38
t15 -50.5q0 -29 -16.5 -50.5t-43.5 -21.5q-14 1 -20 8.5t-6.5 15t3.5 13.5t11 5q12 0 19.5 3t7.5 20q0 21 -13.5 36t-34.5 24t-46 13.5t-49 4.5q-27 0 -51 -7.5t-42 -19.5t-28 -28.5t-10 -34.5q0 -21 16.5 -35.5t41 -23.5t52.5 -12.5t51 -1.5l8 116q0 10 3.5 14.5t14.5 4.5
q7 0 16.5 -3t11.5 -9v-6q0 -3 -0.5 -13l-1 -21t-1.5 -21.5t-1 -13.5l-14 -253q0 -10 -3.5 -14.5t-14.5 -4.5q-7 0 -16.5 3t-11.5 9v6l8 147q1 8 1 11.5v4.5q-19 0 -35 1t-30 3l-72 -132v0z" />
    <glyph glyph-name="afii10094" unicode="&#x44c;" horiz-adv-x="361" 
d="M190 175q10 11 14.5 6.5l9.5 -9.5q4 -4 2 -10.5t-8 -12.5t-14 -10.5t-16 -4.5q-12 -4 -26 -0.5t-25.5 13.5t-17 25.5t-1.5 35.5q6 30 27 44.5t47.5 17.5t52.5 -3t43 -16q25 -16 37 -39t15 -47.5t0 -47.5t-7 -39q-3 -15 -14 -29.5t-26 -26.5t-34 -20t-38 -10
q-17 -2 -26 -2h-11q-50 -2 -80 16.5t-45.5 50t-18.5 73.5t1.5 88t14.5 93t20 88l2 6q2 5 15 6t20 -1q20 -5 15 -23q-16 -42 -25.5 -98.5t-10.5 -110.5q0 -26 2.5 -50t12.5 -44t28.5 -34.5t48.5 -19.5q48 0 70.5 22t30.5 56q3 13 5 28t-1 29.5t-11.5 28t-25.5 23.5
q-16 9 -31 11t-27.5 -1t-21 -9.5t-11.5 -15.5q-6 -19 5.5 -28.5t33.5 1.5z" />
    <glyph glyph-name="afii10093" unicode="&#x44b;" horiz-adv-x="488" 
d="M405 17l-3 81v2l-18 253q0 26 25 26q11 0 18.5 -7.5t6.5 -17.5l18 -245q3 -58 3 -81v-13q-3 -19 -24 -19q-23 0 -26 21zM193 175q10 11 14.5 6.5l9.5 -9.5q4 -4 2 -10.5t-8 -12.5t-14 -10.5t-16 -4.5q-12 -4 -26 -0.5t-25.5 13.5t-17 25.5t-1.5 35.5q6 30 27 44.5
t47.5 17.5t52.5 -3t43 -16q25 -16 37 -39t15 -47.5t0 -47.5t-7 -39q-3 -15 -14 -29.5t-26 -26.5t-34 -20t-38 -10q-17 -2 -26 -2h-11q-50 -2 -80 16.5t-45.5 50t-18.5 73.5t1.5 88t14.5 93t20 88l2 6q2 5 15 6t20 -1q20 -5 15 -23q-16 -42 -25.5 -98.5t-10.5 -110.5
q0 -26 2.5 -50t12.5 -44t28.5 -34.5t48.5 -19.5q48 0 70.5 22t30.5 56q3 13 5 28t-1 29.5t-11.5 28t-25.5 23.5q-16 9 -31 11t-27.5 -1t-21 -9.5t-11.5 -15.5q-6 -19 5.5 -28.5t33.5 1.5z" />
    <glyph glyph-name="afii10092" unicode="&#x44a;" horiz-adv-x="508" 
d="M181 401q13 1 34.5 2.5t53.5 1.5q35 0 35 -27q0 -10 -4.5 -12.5t-13.5 -3.5q-8 -1 -15.5 -1.5t-16 -0.5t-20 -0.5t-27.5 -1.5l9 -288q0 -4 0.5 -11t0.5 -18v-2l66 5l50 8q47 10 65 31.5t20 57.5q0 14 -3 31t-12 32t-26 25t-44 10q-26 0 -42 -13.5t-16 -28.5t9 -24t9 -14
t-7 -8t-12 -3q-14 0 -27.5 13t-13.5 42q0 22 9 36.5t23.5 23.5t33 12.5t36.5 3.5q43 0 70.5 -15t43 -37.5t21 -48t5.5 -45.5q0 -35 -25 -66.5t-70 -46.5q-17 -6 -26 -8t-11 -2l-67 -11q-20 -2 -35 -3t-26 -1q-19 0 -28.5 2t-13.5 5t-4.5 6t-0.5 5l-4 256q0 2 -0.5 11.5
t-1 22t-1.5 27t-2 26.5q-16 -2 -31 -1.5t-27 -1t-20.5 -6t-9.5 -14.5q-5 -12 -7 -28t-4.5 -29.5t-8 -23t-18.5 -9.5t-17 7t-4 16v5v1q5 22 7 44t5.5 39.5t12 29t25.5 12.5z" />
    <glyph glyph-name="afii10062" unicode="&#x40e;" 
d="M227 -164q0 74 41 131q45 64 115 64q46 0 76.5 -27.5t30.5 -72.5q0 -41 -25 -68t-65 -27q-27 0 -49 17t-22 44q0 16 12.5 33t28.5 17q25 0 25 -25q0 -10 -14 -24v-3l5 -5t14 -3q39 0 39 44q0 49 -54 49q-49 0 -81 -49q-27 -42 -27 -95q0 -98 106 -98q92 0 162 75
q20 21 26 44q2 6 6 24l12 164v57v70q-74 -66 -163 -66q-96 0 -138 59q-16 22 -23 63q-4 22 -4 29l-3 280q0 16 -3 28q-9 38 -40 47q-17 5 -38 5q-67 0 -95 -65q-5 -11 -5 -23q0 -17 9.5 -33t26.5 -16q25 0 31 20v7q0 12 -10.5 21.5t-10.5 19.5q0 26 25 26q21 0 35 -24
q12 -20 12 -43q0 -33 -24.5 -55.5t-58.5 -22.5q-37 0 -61.5 31t-24.5 69q0 22 13 51q18 41 56 64.5t83 23.5q22 0 51 -8q51 -14 69 -62q12 -31 13 -98v-178q3 -61 9 -88q13 -51 46 -66q28 -13 60 -12q100 3 151 83q11 17 11 21v82l-6 163v3l-6 135v6q0 28 25 28q22 0 26 -26
q2 -38 5 -115q1 -9 1 -19v-1l4 -134q0 -6 1.5 -80.5t1.5 -80.5v-154l-7 -149q-1 -24 -6 -43q-5 -33 -13 -50q-31 -62 -95.5 -100t-136.5 -38q-73 0 -114 39t-41 110zM508 821q-3 5 -5 5.5t-7 1.5h-2v-2q-2 -14 -12 -14.5t-18.5 8t-10.5 22.5t13 29q9 9 20 10.5t22.5 -2
t22 -11.5t17.5 -19q9 -15 10.5 -33t-4 -35.5t-16.5 -33t-26 -24.5q-42 -24 -90.5 -24.5t-90.5 24.5q-15 9 -26.5 24.5t-16.5 33t-4 35.5t10 33q7 11 17.5 19t22 11.5t22.5 2t20 -10.5q15 -15 13 -29t-10.5 -22.5t-19 -8t-11.5 14.5v2h-2q-5 -1 -7 -1.5t-5 -5.5q-4 -6 -4 -15
t3.5 -17.5t9 -16t11.5 -11.5q13 -8 31 -12.5t36 -4.5t35.5 4.5t31.5 12.5q6 4 11.5 11.5t9 16t3.5 17.5t-4 15z" />
    <glyph glyph-name="afii10110" unicode="&#x45e;" horiz-adv-x="472" 
d="M97 -220q0 95 71 138q23 14 52 14q42 0 70 -39q24 -35 24 -80q0 -29 -21.5 -50.5t-50.5 -21.5q-44 0 -62 40q-5 15 -5 19q0 25 25 25q17 0 24 -16.5t16 -16.5q22 0 22 23t-10 42q-13 24 -33 24q-14 0 -30 -10q-42 -26 -42 -95q0 -77 60 -124q26 -20 53 -20q30 0 56 27
q23 24 33 56q7 23 11 51q8 59 8 61v1l10 135q0 4 2 44t2 44q1 22 1 41v3q-53 -97 -134 -97q-28 0 -55 10q-81 30 -81 121q0 13 2 32l13 123q1 10 1 27t-28 17q-21 0 -36 -24q-6 -10 -12.5 -18.5t-18.5 -8.5q-25 0 -25 24q0 9 15 34q32 44 78 44q64 0 76 -62q1 -5 1 -25v-13
l-14 -135q-1 -12 -1 -42.5t47 -45.5q22 -7 39 -7q70 0 106 119q9 29 23 140q5 39 5 67q3 22 26 22q20 0 25 -22v-216q0 -65 -4 -165q0 -1 -1.5 -10t-1.5 -46v-1l-6 -76l-13 -113q-3 -16 -9 -41q-13 -50 -50 -87q-41 -39 -90 -39q-41 0 -80 27q-83 57 -83 172zM338 565
q-3 5 -5.5 5.5t-7.5 0.5h-2l1 -1q-2 -14 -12 -15t-18.5 7t-11 22.5t12.5 29.5q8 9 19.5 11t23.5 -1.5t23 -11t19 -18.5q9 -15 10 -33t-4 -36t-16 -33.5t-26 -24.5q-82 -51 -168 -4q-16 9 -28 24t-18 33t-5.5 36t9.5 33q7 11 18 19.5t22.5 12t23 2t20.5 -10.5
q15 -14 13.5 -28t-9.5 -22.5t-18.5 -8.5t-11.5 14l-1 1l-2 1q-5 -2 -7 -2.5t-5 -5.5q-4 -6 -3.5 -14.5t4 -17t9 -16t11.5 -11.5q28 -16 61 -15.5t59 18.5q14 8 21 27.5t-1 32.5z" />
    <glyph glyph-name="afii10057" unicode="&#x408;" horiz-adv-x="696" 
d="M14 151q0 34 10.5 63t40.5 62q41 45 97 75q61 33 117 33q52 0 92 -36t40 -88q0 -64 -54 -115q-3 -3 -8 -7q-40 -24 -102 -24q-67 0 -67 60q0 32 24 56t55 24q44 0 44 -30q0 -24 -26 -24q-3 0 -8.5 1.5t-7.5 1.5q-29 0 -29 -30q0 -20 24 -20q13 0 37 12q67 33 67 95
q0 31 -24.5 52t-56.5 21q-55 0 -123 -45.5t-85 -96.5q-6 -16 -6 -39q0 -68 48 -92q34 -17 116 -17q112 0 173 66q8 8 19 26q5 17 11 34l7 25l11 126q1 11 1 32v99l-8 166v2q0 13 -2 17q-3 0 -21 1h-22h-25q-19 -1 -33.5 -1t-80.5 -6q-17 -2 -51 -8q-98 -18 -98 -82
q0 -24 14 -42.5t37 -18.5q19 0 42.5 15.5t23.5 33.5q0 9 -8 18.5t-17 9.5q-7 0 -16 -18.5t-25 -18.5q-25 0 -25 25q0 10 9 26q20 37 56 37q30 0 53 -24.5t23 -54.5q0 -40 -38.5 -70.5t-79.5 -30.5q-43 0 -72 36q-28 33 -28 77q0 96 115 126q39 10 46 10l99 10q-1 0 25.5 1
t36.5 1h31l303 -20q42 -3 42 -27q0 -17 -16 -25q-1 0 -3 -1h-13l-76 9l-116 9q-7 -1 -19 0q-16 1 -20 1v-9l5 -88v-2q0 -3 1.5 -35t1.5 -36v-130l-5 -83l-11 -85q0 -25 -9 -45q-6 -12 -38 -48q-74 -81 -212 -81q-213 0 -213 159z" />
    <glyph glyph-name="afii10105" unicode="&#x458;" horiz-adv-x="198" 
d="M-231 -220q0 59 38 102t97 43q42 0 71.5 -25t29.5 -67q0 -37 -20.5 -63t-57.5 -26q-31 0 -54.5 19t-23.5 49t25 30q22 0 24 -20q1 -1 1 -12q2 -16 28 -16q27 0 27 39q0 41 -50 41q-37 0 -60.5 -28t-23.5 -66q0 -45 29 -78t74 -33q24 0 51 11q17 6 47 24q39 35 56 118
q6 28 8 52q4 40 4 61v95l-20 214l-1 1q0 25 27 25q22 0 24 -21l20 -189q0 -1 1 -20t1 -25v-67q-2 -34 -6 -80q-17 -152 -84 -205q-57 -45 -129 -45q-65 0 -109 48.5t-44 113.5zM41 411q0 27 18 46.5t45 19.5t45 -19.5t18 -46.5t-18 -46.5t-45 -19.5t-45 19.5t-18 46.5z" />
    <glyph glyph-name="afii10023" unicode="&#x401;" horiz-adv-x="548" 
d="M58 179q0 95 70 142q1 1 16 10q10 4 25 11q3 1 8 2q1 1 2 1l-24 23q-40 44 -40 105q0 77 46 141q50 69 124 77h18q69 0 117 -33q53 -37 53 -102q0 -47 -35 -83t-82 -36q-37 0 -66.5 25t-29.5 61q0 29 22.5 50.5t51.5 21.5q18 0 34 -9t16 -25q0 -25 -25 -25q-6 0 -13.5 4
t-12.5 4q-23 0 -23 -22q0 -14 16 -24t31 -10q25 0 45 21t20 47q0 44 -40 66q-32 18 -80 18q-58 0 -98 -55q-37 -51 -37 -111q0 -71 85 -111q5 -1 13 -5q2 -1 26 -8l29 -8q16 -7 16 -22q0 -26 -26 -26h-2q-35 8 -65 8q-89 0 -123 -71q-11 -23 -11 -54q0 -43 26.5 -77
t67.5 -48.5t90 -14.5q103 0 141 67q11 20 15 37q2 8 3.5 18l3 20t9 15.5t14.5 5.5q26 0 26 -26q0 -27 -12 -62q-22 -63 -79 -96q-52 -30 -123 -30q-96 0 -161 48q-72 53 -72 145zM154 773q0 24 17.5 38.5t39.5 14.5t39 -14.5t17 -38.5q0 -23 -17 -37.5t-39 -14.5t-39.5 14.5
t-17.5 37.5zM333 773q0 24 17.5 38.5t39.5 14.5t39 -14.5t17 -38.5q0 -23 -17 -37.5t-39 -14.5t-39.5 14.5t-17.5 37.5z" />
    <glyph glyph-name="afii10071" unicode="&#x451;" horiz-adv-x="412" 
d="M21 158q0 56 17 114q19 69 53 99t77 30q38 0 67.5 -27.5t29.5 -65.5q0 -35 -23.5 -82.5t-49.5 -66.5t-40 -26l-62 -32q0 -3 5 -8q46 -49 113 -49q74 0 114 58q10 14 15.5 26.5t12.5 26.5t22 14q25 0 25 -25q0 -6 -3 -13q-56 -138 -187 -138q-73 0 -128 45q-58 48 -58 120
zM72 150l1 -1l2 1q37 18 54 28q30 18 50 36q10 9 23 43.5t13 50.5q0 17 -15.5 29.5t-32.5 12.5q-55 0 -84 -80q-11 -30 -11 -112v-8zM29 496q0 24 17.5 38.5t39.5 14.5t39 -14.5t17 -38.5q0 -23 -17 -37.5t-39 -14.5t-39.5 14.5t-17.5 37.5zM208 496q0 24 17.5 38.5
t39.5 14.5t39 -14.5t17 -38.5q0 -23 -17 -37.5t-39 -14.5t-39.5 14.5t-17.5 37.5z" />
    <glyph glyph-name="afii61352" unicode="&#x2116;" horiz-adv-x="1156" 
d="M338 24l-15 378q0 58 -8 174l-5 5q-59 49 -104 49q-59 0 -101 -35q-44 -38 -44 -96q0 -77 74 -77q67 0 103 52q17 25 17 46q0 24 -11 24q-15 0 -32 -15q-12 -8 -18.5 -13t-13.5 -5q-25 0 -25 25q0 16 26 34q36 25 62 25q30 0 47 -22t17 -52q0 -31 -18 -62
q-50 -88 -153 -88q-58 0 -92 34.5t-34 93.5q0 79 59 131q56 51 136 51q53 0 114 -43q19 -13 27 -20q3 -3 7 -6l14 -14l347 -505l5 554q6 22 26 22q21 0 25 -23v-9q0 -135 -4 -425q0 -77 -1 -170q-1 -28 -2 -33q-5 -18 -24 -18q-14 0 -20 9l-349 509l5 -119v-3l10 -273
q3 -66 3 -95v-11q-5 -20 -25 -20q-27 0 -25 36zM1052 326l-135 5q-2 -2 -3 0q-26 0 -51 1q-45 2 -45 27t25 25h1l161 -6h4q26 0 80 -2q37 -1 37 -27q0 -23 -20 -24h-13q-14 0 -41 1zM882 539q0 43 27 75t69 32q41 0 68.5 -32t27.5 -74t-27.5 -74t-68.5 -32t-68.5 32
t-27.5 73zM933 539q0 -21 12.5 -37.5t32.5 -16.5t32.5 17t12.5 38t-12 37.5t-33 16.5q-20 0 -32.5 -17t-12.5 -38z" />
    <glyph glyph-name="uni0406" unicode="&#x406;" horiz-adv-x="694" 
d="M191 13q0 25 21 26l136 5q3 0 19.5 1t18.5 1v15q0 179 -5 571l-105 5h-4q-3 1 -34 1q-35 0 -60 -1q-21 -1 -44.5 -9.5t-42.5 -27.5q-22 -22 -22 -45q0 -24 17.5 -45.5t41.5 -27.5q11 -3 26 -3q18 0 28 3q66 19 66 50q0 18 -15 18q-6 0 -9 -2q2 -33 -25 -33q-26 0 -26 33
q0 24 18 38.5t42 14.5q28 0 47 -20.5t19 -48.5q0 -47 -51 -78q-44 -27 -94 -27q-53 0 -93 36q-43 38 -43 90q0 44 34 81q32 34 76 46q33 9 104 9h21l256 -11h22h26q22 0 56 3q4 0 19 3q12 2 19 2q25 0 25 -26q0 -19 -19 -24q-53 -9 -121 -9q-17 0 -51 1t-51 1q0 -261 4 -581
h5q16 0 46.5 1t45.5 1q18 0 31.5 -1t13.5 -25q0 -26 -25 -26h-1q-1 0 -8 1h-7q-208 -6 -323 -11q-25 2 -25 25z" />
    <glyph glyph-name="afii10103" unicode="&#x456;" horiz-adv-x="184" 
d="M72 15l-3 81v2l-9 281q0 29 25 29q11 0 18.5 -9t6.5 -19l9 -273q3 -58 3 -81v-13q-3 -19 -24 -19q-23 0 -26 21zM8 503q0 26 22 43t49 17t48.5 -17t21.5 -43q0 -27 -21.5 -44t-48.5 -17q-28 0 -49.5 17t-21.5 44z" />
    <glyph glyph-name="afii10056" unicode="&#x407;" horiz-adv-x="694" 
d="M191 13q0 25 21 26l136 5q3 0 19.5 1t18.5 1v15q0 179 -5 571l-105 5h-4q-3 1 -34 1q-35 0 -60 -1q-21 -1 -44.5 -9.5t-42.5 -27.5q-22 -22 -22 -45q0 -24 17.5 -45.5t41.5 -27.5q11 -3 26 -3q18 0 28 3q66 19 66 50q0 18 -15 18q-6 0 -9 -2q2 -33 -25 -33q-26 0 -26 33
q0 24 18 38.5t42 14.5q28 0 47 -20.5t19 -48.5q0 -47 -51 -78q-44 -27 -94 -27q-53 0 -93 36q-43 38 -43 90q0 44 34 81q32 34 76 46q33 9 104 9h21l256 -11h22h26q22 0 56 3q4 0 19 3q12 2 19 2q25 0 25 -26q0 -19 -19 -24q-53 -9 -121 -9q-17 0 -51 1t-51 1q0 -261 4 -581
h5q16 0 46.5 1t45.5 1q18 0 31.5 -1t13.5 -25q0 -26 -25 -26h-1q-1 0 -8 1h-7q-208 -6 -323 -11q-25 2 -25 25zM260 773q0 24 17.5 38.5t39.5 14.5t39 -14.5t17 -38.5q0 -23 -17 -37.5t-39 -14.5t-39.5 14.5t-17.5 37.5zM439 773q0 24 17.5 38.5t39.5 14.5t39 -14.5
t17 -38.5q0 -23 -17 -37.5t-39 -14.5t-39.5 14.5t-17.5 37.5z" />
    <glyph glyph-name="afii10104" unicode="&#x457;" horiz-adv-x="184" 
d="M72 15l-3 81v2l-12 237q0 29 25 29q11 0 18.5 -9t6.5 -19l12 -229q3 -58 3 -81v-13q-3 -19 -24 -19q-23 0 -26 21zM-55 487q0 21 18 35.5t40 14.5t39.5 -14.5t17.5 -35.5q0 -23 -17.5 -37t-39.5 -14q-23 0 -40.5 14t-17.5 37zM99 496q0 21 18 35.5t40 14.5t39.5 -14.5
t17.5 -35.5q0 -23 -17.5 -37t-39.5 -14q-23 0 -40.5 14t-17.5 37z" />
    <glyph glyph-name="afii10053" unicode="&#x404;" horiz-adv-x="498" 
d="M406 117q6 15 6 29.5t-11 15.5q-5 1 -12.5 -2.5t-13.5 -3.5q-25 1 -23 27q1 16 18 24t34 6q15 -1 26.5 -9t19.5 -19.5t11.5 -26t2.5 -29.5q-16 -64 -71 -102q-25 -17 -55 -27t-65 -12q-59 -3 -104.5 21.5t-77.5 67t-50 99t-22 118t6 124t34 116.5t62 95t90 61
q46 7 86 5.5t70.5 -14.5t49 -40t21.5 -71q4 -45 -28 -85q-31 -39 -79 -42q-18 -2 -36 3.5t-32.5 16t-24 25.5t-10.5 33q-1 15 4 28t14.5 23.5t22.5 17.5t28 8q17 2 34 -6t18 -24q2 -26 -23 -27q-6 0 -13.5 3.5t-12.5 2.5q-23 -2 -22 -23q1 -14 18 -23t32 -8q25 2 43 24.5
t16 48.5q-2 22 -15.5 41.5t-34.5 29.5q-14 5 -31.5 7.5t-36.5 1.5t-37.5 -5t-34.5 -13q-28 -15 -49.5 -42.5t-37 -63t-24.5 -77t-11 -84.5q54 0 98 1h128q20 -7 20 -25q0 -22 -20 -25l-226 -3q3 -53 16 -101.5t37 -86t59.5 -60t83.5 -22.5q102 7 135 78z" />
    <glyph glyph-name="afii10101" unicode="&#x454;" horiz-adv-x="328" 
d="M161 -7q-33 0 -58.5 14t-43 38t-27 55.5t-9.5 67.5q0 43 11 84.5t32 74.5t50.5 53.5t66.5 20.5q25 0 46.5 -5.5t37 -17t24.5 -30t9 -44.5q-1 -30 -16.5 -52.5t-44.5 -22.5q-23 0 -34.5 12.5t-11.5 26.5q0 10 5 17.5t15 7.5q4 0 6 -2t4 -4.5t5 -4.5t9 -2v1q12 3 12 26
t-19.5 36.5t-48.5 13.5q-27 0 -46 -13.5t-31.5 -35t-19 -47.5t-8.5 -51l18 2q29 3 49.5 4t31.5 1h13q9 -1 14.5 -4.5t4.5 -13.5q0 -23 -20 -26l-113 -4v-1q0 -24 5 -47.5t15.5 -41.5t26.5 -29.5t39 -11.5q38 2 55.5 16.5t20.5 37.5q-1 5 -1 8.5v7.5q0 18 8 24.5t17 6.5
q15 0 20 -9t5 -21q0 -22 -7 -41.5t-22 -35.5t-38.5 -26t-56.5 -13z" />
    <glyph glyph-name="afii10050" unicode="&#x490;" horiz-adv-x="561" 
d="M424 571q-2 -17 -3.5 -41t-4 -54t-4.5 -64t-5 -69t-4 -74t-5 -77.5t-12.5 -72t-25.5 -57.5q-19 -27 -46 -43.5t-55.5 -19.5t-57 9t-50.5 41q-23 34 -13 67q11 34 39 51t61 7q21 -6 37 -22q19 -22 13 -41q-6 -23 -32 -17q-5 1 -8.5 5.5t-7 10t-7.5 9.5t-10 6l-7 3
q-22 0 -28 -24q-5 -16 7.5 -33t29.5 -22q50 -11 78 22q19 22 29 51.5t14.5 64t5.5 72.5t4 77q3 36 5.5 73t4.5 70.5t4 61t4 45.5q-2 1 -5 1.5t-5 2.5l-100 43q-34 14 -70 14q-80 0 -108 -76q-9 -24 -9 -46q0 -29 27 -50q28 -21 58 -21q34 0 51 32q7 13 7 21q0 20 -24 20
q-4 0 -11 -3t-11 -3q-26 0 -26 25q0 32 48 32q31 0 53 -20.5t22 -51.5q0 -26 -20 -55q-35 -47 -89 -47q-50 0 -94 35q-43 36 -43 86q0 5 1 8v7q11 72 54.5 115t115.5 43q26 0 43 -4l12.5 -4t14.5 -4l128 -52q74 -29 158 -8q9 3 19.5 7.5t17.5 11t8 15t-8 19.5q-5 6 -13.5 8
t-18.5 2t-19.5 -1t-16.5 -2q-13 -2 -19 5t-6 20q0 33 55 33q37 0 65 -22t28 -58q4 -32 -17 -53.5t-55 -32.5t-74 -13t-74 6z" />
    <glyph glyph-name="afii10098" unicode="&#x491;" horiz-adv-x="344" 
d="M301 365l-53 -4h-1l-145 -6l4 -248q2 -59 2 -82v-12q-4 -19 -25 -19q-23 0 -25 21l-2 81v2l-4 262q-5 7 -5 22q0 11 6 18.5t12 6.5h5q3 1 8 1q3 0 5 -1l158 8q14 1 25 2v58q2 21 25 21q21 0 25 -19v-12q0 -23 -2 -82h-1q-2 -17 -12 -18z" />
    <glyph glyph-name="afii10146" unicode="&#x462;" horiz-adv-x="674" 
d="M247 5l-134 -10q-21 -2 -24 23q-3 23 21 28q25 2 30.5 2.5t7.5 1t10 1.5t39 4l3 397q-1 15 -1 35v43l-153 -9q-21 -2 -24 23q-3 23 21 28q31 2 70 5t86 7q0 28 -0.5 54t-0.5 46q-1 12 7.5 21.5t19 11t19 -6.5t7.5 -29v-92q30 2 62.5 5.5t66.5 6.5h7q7 3 8 2h1
q25 4 28 -22q1 -12 -1.5 -18t-8.5 -8.5t-14 -3t-17 -1.5q-4 0 -5 -0.5t-2.5 -1.5t-4.5 -1.5t-11 -1.5q-8 0 -18 -1t-20.5 -2.5t-19 -2.5t-12.5 -2q-5 -2 -16.5 -2.5t-22.5 -1.5q-1 -58 -1 -115.5v-94.5v-215q-1 -13 0 -47l-1 -3q25 -2 60 0.5t71.5 8.5t71 14.5t58.5 19.5
q43 17 61.5 55.5t18.5 82t-15.5 83.5t-40.5 61q-12 10 -30.5 18.5t-40 13t-46.5 2.5t-50 -13q-13 -5 -19 -20.5t-9 -31.5q-6 -33 11 -53q11 -12 29.5 -17t30.5 6q13 10 13 41q2 13 3.5 21t6.5 12q21 18 39 -4q7 -11 7 -33q-1 -52 -33 -79q-15 -12 -33 -16.5t-37 -1.5t-36 12
t-30 23q-32 39 -25 94q10 55 49 85q81 34 151 16.5t121 -71.5q12 -13 20.5 -36.5t14 -50t7 -53t0.5 -44.5q-6 -59 -54 -105q-22 -23 -47.5 -38.5t-54.5 -23.5q-49 -15 -57 -13l-100 -14l-46 -3h-42v-1z" />
    <glyph glyph-name="afii10194" unicode="&#x463;" horiz-adv-x="426" 
d="M260 175q6 7 11 7t10.5 -7t5.5 -10q0 -8 -6 -14t-14 -10.5t-17.5 -6.5t-15.5 -2q-20 0 -39 16t-19 45q0 22 8.5 37t22 24t30 13t32.5 4q39 0 64.5 -12.5t40.5 -31.5t21 -42t6 -45q0 -29 -7.5 -56t-25 -48t-46.5 -33.5t-71 -12.5h-7q-5 -1 -8.5 -1h-8.5q-36 0 -60.5 15.5
t-39 41.5t-20.5 61.5t-6 75.5q0 38 4.5 78.5t11.5 80.5l-42.5 -2t-44.5 -2q-25 1 -25 25q0 13 5 16.5t16 4.5l99 5l13.5 59l12.5 52l2 6q2 3 8 4.5t14 1.5q29 0 29 -18q0 -2 -0.5 -3t-0.5 -3q-6 -15 -12 -40.5t-12 -56.5q16 1 32.5 1.5t30.5 1t24 1t13 0.5h18
q12 0 19.5 -4.5t7.5 -21.5q0 -13 -6 -17t-19 -4h-1q-3 0 -8 1h-7q-35 -2 -62.5 -2.5t-49.5 -1.5q-4 -26 -7.5 -51.5t-6 -48.5t-4 -42t-1.5 -32q0 -25 3.5 -48t13.5 -42t28 -32.5t47 -18.5q29 0 49.5 9.5t33 25.5t18 37.5t5.5 44.5q0 12 -4.5 26.5t-14.5 27t-25 20.5t-37 8
q-24 0 -37 -11.5t-13 -26.5q0 -21 21 -21q10 0 20 5z" />
    <glyph glyph-name="afii10147" unicode="&#x472;" horiz-adv-x="641" 
d="M22 335q0 130 84 233q89 109 212 109q122 0 210 -110q83 -104 83 -232q0 -129 -84 -234q-88 -110 -210 -110q-123 0 -211 110q-84 104 -84 234zM140 139q71 -95 172 -97q103 -2 178 93q66 85 70 187q-28 -20 -67 -19.5t-83.5 9.5t-91.5 21.5t-91.5 16t-84 -7.5t-67.5 -48
q11 -84 65 -155zM492 532q-73 95 -177 95q-100 0 -173 -95q-67 -86 -69 -190q29 33 68 44.5t82.5 10t89.5 -11.5l90.5 -19.5t84.5 -14t71 5.5q-7 96 -67 175z" />
    <glyph glyph-name="afii10195" unicode="&#x473;" horiz-adv-x="474" 
d="M25 204q0 89 58 142.5t154 53.5q95 0 153 -54t58 -144t-63 -148t-160 -58q-93 0 -146.5 58t-53.5 150zM115 90q39 -43 111 -43q74 0 122 43q41 37 48 91q-20 -12 -46 -9.5t-55 10.5t-59 18.5t-59 13.5t-54.5 -5t-44.5 -36q6 -50 37 -83zM349 305q-47 44 -108 44
q-76 0 -121 -38q-40 -35 -44 -95q20 26 45.5 34.5t54 7t58.5 -9.5t58.5 -16.5t55 -13.5t48.5 1q-6 49 -47 86z" />
    <glyph glyph-name="afii10148" unicode="&#x474;" horiz-adv-x="882" 
d="M370 8q-5 -15 -23 -15q-16 0 -22 13l-207 475l-64 92l-30 33q-4 4 -4 16q0 25 24 25q12 0 27 -15l15 -18q34 -42 36 -47l71 -112l150 -365l101 292l75 156l33 54l22 28q49 58 129 58q64 0 112 -47.5t48 -111.5q0 -52 -38 -83.5t-91 -31.5q-48 0 -87 36t-39 84q0 31 32 49
q16 9 37 9q31 0 49 -27q10 -15 10 -26q0 -24 -25 -24q-13 0 -21.5 13t-13.5 13q-7 0 -17 -6v-3q0 -11 9 -27q22 -39 67 -39q31 0 52 15q25 17 25 47q0 44 -33.5 76.5t-77.5 32.5q-69 0 -119 -82q-24 -39 -29 -50l-58 -122z" />
    <glyph glyph-name="afii10196" unicode="&#x475;" horiz-adv-x="444" 
d="M256 283q27 60 50.5 87t48.5 30q15 2 28.5 -2.5t24 -13t16 -21t5.5 -27.5q-1 -23 -13.5 -33.5t-26.5 -10.5q-10 0 -17.5 5.5t-6.5 15.5q0 4 2 6t4.5 3.5t4.5 4.5t2 9h-1q-3 13 -26 13q-13 -5 -28.5 -31.5t-34.5 -70.5t-43 -105l-54 -135q-6 -13 -21 -14q-18 -1 -25 14
l-139 354q-2 2 -2 7q-2 25 23 26q18 2 26 -16l115 -296z" />
    <glyph glyph-name="uni0492" unicode="&#x492;" horiz-adv-x="656" 
d="M518 315l-113 3q-3 -42 -6.5 -81t-5.5 -73q-1 -37 -14 -67t-33 -51.5t-45.5 -34t-52 -13t-52 11.5t-45.5 39q-23 34 -13 67q11 34 39 51t61 7q21 -6 37 -22q19 -22 13 -41q-6 -23 -32 -17q-5 1 -8.5 5.5t-7 10t-7.5 9.5t-10 6l-7 3q-22 0 -28 -24q-5 -16 7.5 -33
t29.5 -22q25 -6 45.5 1t35 23.5t24 40t13.5 51.5q2 25 5 66t7 88l-31 1q-2 -2 -3 0h-25.5t-25.5 1q-23 1 -32 6t-9 18t4 16.5t17 3.5h1l107 -5q2 34 4.5 67.5t4.5 63t4 54t3 41.5q-2 1 -5 1.5t-5 2.5l-100 43q-34 14 -70 14q-80 0 -108 -76q-9 -24 -9 -46q0 -29 27 -50
q28 -21 58 -21q34 0 51 32q7 13 7 21q0 20 -24 20q-4 0 -11 -3t-11 -3q-26 0 -26 25q0 32 48 32q31 0 53 -20.5t22 -51.5q0 -26 -20 -55q-35 -47 -89 -47q-50 0 -94 35q-43 36 -43 86q0 5 1 8v7q11 72 54.5 115t115.5 43q26 0 43 -4l12.5 -4t14.5 -4l128 -52
q12 -5 22.5 -8.5t21 -6t23 -4t28.5 -1.5h18t16 1q63 4 107 24q10 4 18.5 10t15.5 12t14 10t14 5q25 0 25 -26q0 -13 -15 -26q-70 -61 -215 -61q-12 0 -28 1.5t-35 6.5q-2 -31 -6.5 -88.5l-9.5 -123.5q17 0 52.5 -0.5t94.5 -1.5q19 -1 27.5 -5t8.5 -17q0 -20 -19 -21h-13h-17
t-24 1z" />
    <glyph glyph-name="uni0493" unicode="&#x493;" horiz-adv-x="410" 
d="M158 361l2 -118l19 -1h4h8t8.5 -0.5t21.5 -1t48 -0.5q19 -1 27.5 -5.5t8.5 -16.5q0 -21 -19 -21h-13h-17t-24 1l-72 3l2 -94q0 -29 1 -50t1 -32v-12q-4 -19 -25 -19q-25 0 -25 21l-2 83l-2 105h-2q-1 -1 -2 -1q-45 0 -69 3t-24 23q0 12 4 16.5t17 3.5l76 -3l-2 115
q-5 8 -5 22q0 11 6 18t12 7h5q2 1 8 1q4 0 5 -1h158l58 2q20 -1 22 -24q1 -20 -18 -24h-12q-11 0 -32 -0.5t-50 -0.5z" />
    <glyph glyph-name="uni049A" unicode="&#x49a;" horiz-adv-x="744" 
d="M579 146q1 -3 6 -23.5t13 -44.5q14 -35 34 -36q10 0 14 2q11 5 16 20q1 8 1.5 16.5t2 16.5t5 14t10.5 9q24 9 33 -14q2 -5 2 -10.5v-12.5q-3 -44 -23 -67q18 -87 14 -153t-33 -92q-18 -15 -40.5 -24t-45.5 -10t-44.5 7.5t-37.5 28.5q-12 14 -18.5 36t-7 45.5t6 44.5
t21.5 33q23 19 50.5 14.5t46.5 -27.5q15 -18 17.5 -40t-16.5 -38q-17 -16 -34 4q-4 4 -3.5 9.5l1 10.5t0.5 10.5t-4 10.5q-8 10 -14 10.5t-12 -4.5q-5 -6 -7.5 -16.5t-2.5 -22.5t3 -24.5t11 -21.5q9 -11 21 -14.5t25.5 -2.5t26.5 7t24 15q9 8 13.5 30t4.5 49t-4 54.5
t-11 46.5q-30 -4 -55 14t-38 51q-5 16 -11 40t-11 46q-37 201 -90 207q-1 0 -8 1h-9q-51 0 -120 -31l-12 -6q-4 -2 -5 -3q-1 -70 -2 -161q0 -10 -1 -23v-2l-6 -107q-2 -27 -25 -27q-26 0 -26 28v6l8 143v190l-9 124q-1 4 -9 50q-2 5 -6 21q-16 60 -43 71q-8 3 -28 3
q-35 0 -56 -23t-21 -59t29 -36q13 0 23.5 10t12.5 23q0 1 1 8v8q2 20 25 20q26 0 26 -32q0 -34 -27 -61.5t-61 -27.5q-38 0 -59 26t-21 65q0 56 36.5 93t91.5 37q53 0 84 -35q20 -22 32 -64q11 -38 11 -40l13 -82l5 -82l360 291q5 5 14 5q26 0 26 -26q0 -12 -9 -19
l-277 -225q5 0 14 1h13q91 0 122 -119l19 -79q8 -24 14 -58z" />
    <glyph glyph-name="uni049B" unicode="&#x49b;" horiz-adv-x="416" 
d="M299 105q1 -9 3 -20.5t4.5 -22t5.5 -18.5t8 -11q10 -3 16 -2q6 4 10 5q6 6 8.5 14.5t4 17t4 14.5t7.5 6q25 -1 25 -26q1 -5 -1.5 -10t-4.5 -12q-2 -8 -5 -16t-7 -14q18 -87 10 -145.5t-38 -84.5q-18 -15 -40.5 -21.5t-44.5 -5.5t-41.5 8t-31.5 19q-14 13 -20.5 32
t-6.5 39.5t7 39.5t22 31q23 19 50.5 14.5t46.5 -27.5q15 -18 10.5 -32.5t-9.5 -23.5q-5 -10 -15.5 -8t-18.5 12q-4 4 -3.5 6t1 3t0.5 3t-4 7q-8 10 -14 10.5t-12 -4.5q-10 -11 -10.5 -30.5t14.5 -37.5q9 -11 20.5 -14.5t24 -1.5t25 8t23.5 15q9 8 14.5 27.5t7 43t-1.5 47.5
t-9 41q-3 0 -6 -0.5t-6 -0.5q-20 0 -32.5 9.5t-21 25.5t-13 37.5t-8.5 46.5q-4 9 -7.5 18t-8.5 16q-17 25 -41.5 47.5t-55.5 22.5l-46 -1q-1 -11 -1 -19v-12q-1 -10 0 -35t1 -46v-74q-3 -19 -24 -19q-26 0 -26 33q0 16 -0.5 20t-0.5 5t-0.5 3t-0.5 13.5v36.5v72v210
q1 21 25 21q22 0 25 -20v-23.5v-6.5t0.5 -2t0.5 -10.5t0.5 -32.5t0.5 -67q33 0 63 15t54.5 38.5t43.5 52t30 55.5q6 13 22 13q25 0 25 -27q0 -6 -8 -24q-14 -28 -26 -47.5t-25.5 -34t-30 -27t-38.5 -27.5q23 -5 39.5 -18t28.5 -30.5t20 -39t14 -42.5z" />
    <glyph glyph-name="uni049C" unicode="&#x49c;" horiz-adv-x="923" 
d="M327 297v34q-12 -5 -25 -11l-12 -6q-4 -2 -5 -3q-1 -70 -2 -161q0 -10 -1 -23v-2l-6 -107q-2 -27 -25 -27q-26 0 -26 28v6l8 143v190l-9 124q-1 4 -9 50q-2 5 -6 21q-16 60 -43 71q-8 3 -28 3q-35 0 -56 -23t-21 -59t29 -36q13 0 23.5 10t12.5 23q0 1 1 8v8q2 20 25 20
q26 0 26 -32q0 -34 -27 -61.5t-61 -27.5q-38 0 -59 26t-21 65q0 56 36.5 93t91.5 37q53 0 84 -35q20 -22 32 -64q11 -38 11 -40l13 -82l5 -82l46 37l1 34q-1 2 -1 3v50.5t2 41.5t7 28t14 10q11 0 15 -5t3 -20l-3 -111l276 223q5 5 14 5q26 0 26 -26q0 -12 -9 -19l-277 -225
q5 0 14 1h13q91 0 122 -119l19 -79q8 -24 8 -25l24 -129q24 -127 135 -127q113 0 113 133q0 107 -72 107q-29 0 -51 -16t-22 -44q0 -9 1 -13q13 -25 36 -25q14 0 30 20t29 20q25 0 25 -26q0 -12 -14 -27q-38 -39 -70 -39q-16 0 -45 15q-43 23 -43 74q0 48 36.5 80t85.5 32
q34 0 64 -17q61 -34 61 -142q0 -82 -40 -131q-44 -52 -123 -52q-155 0 -187 176l-20 109q-34 187 -87 193q-1 0 -8 1h-9q-26 0 -56 -8v-11v-17v-29.5v-47.5q-1 -23 -5 -33t-15 -10q-19 0 -19 23v16q0 8 -0.5 27t0.5 36z" />
    <glyph glyph-name="uni049D" unicode="&#x49d;" horiz-adv-x="365" 
d="M129 169v14h-31l-11 -1q-1 -11 -1 -19v-12q-1 -10 0 -25.5t1 -36.5v-74q-3 -19 -24 -19q-26 0 -26 33q0 16 -0.5 20t-0.5 5t-0.5 3t-0.5 13.5v36.5v72v210q1 21 25 21q22 0 25 -20v-25v-10t0.5 -6.5t0.5 -15t0.5 -36t0.5 -68.5q10 0 20 2t20 5q0 42 4.5 68.5t19.5 26.5
q11 0 15 -5t3 -20l-1 -49q42 28 73.5 71.5t47.5 80.5q6 13 22 13q25 0 25 -27q0 -6 -8 -24q-14 -28 -27.5 -49t-29 -38t-33.5 -33l-41 -35q43 -9 67.5 -39.5t37.5 -69.5t17.5 -79t6.5 -68q3 -41 5.5 -65t4.5 -38.5t4 -21.5t4 -13q28 -81 91 -81q22 0 40.5 2t32 9t20.5 20
t7 35q0 17 -4.5 35.5t-13 33.5t-21 25t-28.5 10t-30.5 -7.5t-14.5 -23.5q0 -14 8.5 -27t20.5 -13q8 0 11 8t10 8q25 0 25 -26q0 -32 -47 -32q-34 0 -56 25t-22 60q0 18 8 32.5t21.5 25t30.5 16t35 5.5q25 0 46.5 -12.5t37.5 -33.5t25 -48.5t9 -57.5q0 -34 -11 -57t-31 -37
t-48 -20t-62 -6q-50 0 -84 33t-54 91l-4 12.5t-3.5 18t-3.5 30.5t-4 50q-1 16 -4.5 42.5t-9.5 56t-15 58t-22 48.5q-25 36 -63 48q0 -8 0.5 -17.5t0.5 -22.5q-1 -23 -5 -33t-15 -10q-19 0 -19 23v16q0 8 -0.5 13t0.5 22z" />
    <glyph glyph-name="uni04A0" unicode="&#x4a0;" horiz-adv-x="1023" 
d="M369 686l55 2q21 0 29.5 -8.5t7 -18t-11.5 -17t-27 -7.5l-32 -3l-1 -254l360 291q5 5 14 5q26 0 26 -26q0 -12 -9 -19l-277 -225h5.5t8.5 1h13q90 0 122 -119q5 -19 9.5 -39t9.5 -40q8 -26 8 -25l24 -129q24 -127 135 -127q113 0 113 133q0 107 -72 107q-29 0 -51 -16
t-22 -44q0 -10 1 -13q13 -25 36 -25q13 0 30 20t29 20q25 0 25 -26q0 -11 -14 -27q-38 -39 -70 -39q-17 0 -45 15q-43 22 -43 74q0 48 36 80q38 32 86 32q33 0 64 -17q61 -34 61 -142q0 -82 -40 -131q-43 -52 -123 -52q-155 0 -187 176l-20 109q-34 187 -87 193q-3 0 -8 1
h-9q-52 0 -120 -31l-12 -6q-3 -1 -5 -3q-1 -35 -1 -75t-1 -86v-10.5t-1 -12.5v-2l-6 -107q-2 -27 -25 -27q-26 0 -26 28v6l8 143v314l-1 152h-3q-29 -3 -54.5 -1t-50 3.5t-49 0t-51.5 -9.5q-33 -12 -50.5 -42t-9.5 -65l2 -6q1 -4 1.5 -5t0.5 -2l5 -14q5 -11 12.5 -21
t18.5 -20q25 -21 48 -15l10 3q51 18 62 60q6 16 3 27q-3 8 -16 13t-22 3q-5 -3 -10.5 -14t-16.5 -15q-22 -7 -31 17q-4 13 9 35q9 16 32 25q14 5 30 3.5t30.5 -8t26 -17.5t16.5 -25q15 -47 -19 -94q-30 -43 -79 -59q-49 -18 -98 16q-43 30 -59 84q-20 57 5 113
q14 29 33.5 46t48.5 27q13 4 25.5 5.5t26.5 2.5q42 0 67.5 0.5t33.5 -2.5z" />
    <glyph glyph-name="uni04A1" unicode="&#x4a1;" horiz-adv-x="520" 
d="M227 229q33 0 64.5 18t58.5 45t47.5 58.5t31.5 58.5q6 13 22 13q25 0 25 -27q0 -6 -8 -24q-14 -28 -27.5 -49t-29 -38t-33.5 -33l-41 -35q43 -9 67.5 -39.5t37.5 -69.5t17.5 -79t6.5 -68q3 -41 5.5 -65t4.5 -38.5t4 -21.5t4 -13q28 -81 91 -81q22 0 40.5 2t32 9t20.5 20
t7 35q0 17 -4.5 35.5t-13 33.5t-21 25t-28.5 10t-30.5 -7.5t-14.5 -23.5q0 -14 8.5 -27t20.5 -13q8 0 11 8t10 8q25 0 25 -26q0 -32 -47 -32q-34 0 -56 25t-22 60q0 18 8 32.5t21.5 25t30.5 16t35 5.5q25 0 46.5 -12.5t37.5 -33.5t25 -48.5t9 -57.5q0 -34 -11 -57t-31 -37
t-48 -20t-62 -6q-50 0 -84 33t-54 91l-4 12.5t-3.5 18t-3.5 30.5t-4 50q-1 16 -4.5 42.5t-9.5 56t-15 58t-22 48.5q-17 25 -41.5 39t-55.5 14h-35l-11 -1q-1 -11 -1 -19v-12q-1 -10 0 -25.5t1 -36.5v-74q-3 -19 -24 -19q-26 0 -26 33q0 16 -0.5 20t-0.5 5t-0.5 3t-0.5 13.5
v36.5v72v171q-17 3 -43 3h-6q-4 0 -41 1t-41 1q-40 0 -40 26q0 18 20 25h17q1 0 148 -2q46 9 37 -54z" />
    <glyph glyph-name="uni04A2" unicode="&#x4a2;" horiz-adv-x="882" 
d="M714 161q0 -3 1 -24t3 -47q5 -36 25 -42q10 -3 14 -1q5 0 8 3q3 5 10 10q1 1 1 1.5t1 1.5l11 31.5t20 18.5q25 3 29 -21q2 -5 0 -10.5t-3 -12.5q-6 -35 -3 -70.5t4 -70t-4.5 -68t-27.5 -65.5q-19 -15 -41.5 -23.5t-45 -8.5t-44 9t-37.5 29q-12 15 -18 37t-5.5 45
t7.5 43.5t22 32.5q23 19 50.5 13.5t46.5 -28.5q14 -18 16 -40t-17 -38q-8 -7 -17.5 -6.5t-17.5 11.5q-3 4 -3 9.5t1 10.5t1 10.5t-4 10.5q-8 11 -13.5 11.5t-12.5 -4.5q-5 -5 -8 -15.5t-3 -23t3 -25t11 -21.5q8 -11 20 -15t25.5 -3.5t26.5 6t24 14.5q9 7 14 26.5t6.5 43.5
t-0.5 49t-7 45q-5 -2 -9 -2.5t-9 -1.5q-39 -5 -65.5 19t-32.5 65q-1 17 -2 41.5t-1 47.5l-6 110l-55 -6l-127 -10l-100 -4h-10q-8 -1 -10 -1v-63l-10 -170q-2 -26 -26 -26q-25 0 -25 26q0 6 10 186v47l-78 5l-32 5t-41 11q-28 10 -28 29q0 25 25 25q6 0 15.5 -4t12.5 -5
q29 -7 45 -9q26 -2 60 -5q2 0 10 1h9v8l-8 134q0 6 -10 55q-19 93 -63 118q-14 8 -45 8q-45 0 -76.5 -35t-31.5 -81q0 -17 4 -29q6 -18 22 -32t34 -14q24 0 47 22t23 46q0 12 -10 12q-6 0 -13.5 -16t-23.5 -16q-25 0 -25 25q0 23 19.5 40.5t43.5 17.5q26 0 43 -18.5
t17 -44.5q0 -46 -37.5 -82.5t-83.5 -36.5q-43 0 -80 41q-32 36 -32 85q0 68 47.5 117.5t114.5 49.5q93 0 132 -92q6 -10 12 -31q10 -35 13 -47l11 -71l8 -134h38l196 13l67 7l-13 322q0 25 26 25q22 0 25 -21q2 -32 4 -77l9 -244l133 15q27 0 27 -25q0 -23 -19 -25l-138 -16
v-2z" />
    <glyph glyph-name="uni04A3" unicode="&#x4a3;" horiz-adv-x="506" 
d="M393 98q0 -38 16 -47q18 -5 25 3t10.5 19.5t5.5 22t9 10.5q25 -1 25 -23q1 -5 -1.5 -11.5t-4.5 -13.5q-2 -9 -5 -16.5t-8 -14.5q20 -88 11.5 -147.5t-38.5 -85.5q-18 -15 -40.5 -21.5t-44.5 -5.5t-41.5 8t-31.5 19q-14 13 -20.5 31t-6.5 36.5t7 36.5t22 30
q23 19 50.5 14.5t46.5 -27.5q15 -18 10.5 -32.5t-9.5 -23.5q-5 -10 -15.5 -8t-18.5 12q-4 4 -3.5 6t1 3t0.5 3t-4 7q-8 10 -18 11.5t-16 -3.5q-10 -11 -10 -28t15 -35q9 -11 21.5 -14t26.5 -1.5t27.5 8t24.5 15.5q9 8 14.5 28t6.5 44.5t-2 49t-10 41.5q-3 -1 -10 -1
q-20 0 -33 9.5t-20.5 24.5t-10.5 34t-3 40l-3 79q-82 -5 -146 -6.5t-99 -2.5l2 -60v-17.5t0.5 -31t0.5 -30v-16.5q-5 -11 -12.5 -16t-16 -4.5t-15 6.5t-7.5 17l-3 81v2l-9 248q0 29 25 29q14 0 21.5 -9t6.5 -19l5 -131q63 1 124 3t122 7l-4 141q1 12 10.5 15.5t20 1
t17.5 -9.5t4 -17z" />
    <glyph glyph-name="uni04A4" unicode="&#x4a4;" horiz-adv-x="924" 
d="M483 646q-17 0 -27 7.5t-11.5 17t7 18t29.5 8.5l55 -2l122 2q8 3 33.5 2.5t67.5 -0.5q14 -1 26.5 -2.5t25.5 -5.5q29 -10 48.5 -27t33.5 -46q25 -56 5 -113q-16 -54 -59 -84q-49 -34 -98 -16q-49 16 -79 59q-34 47 -19 94q5 14 16.5 25t26 17.5t30.5 8t30 -3.5
q23 -9 32 -25q13 -22 9 -35q-9 -24 -31 -17q-11 4 -16.5 15t-10.5 14q-9 2 -22 -3t-16 -13q-3 -11 3 -27q11 -42 62 -60l10 -3q22 -6 48 15q11 10 18.5 20t12.5 21l5 14q0 1 0.5 2t1.5 5l2 6q8 35 -9.5 65t-50.5 42q-27 8 -54 9.5t-54.5 0t-55.5 -3.5t-57 1h-3l-1 -195
l1 -134v-8h9q8 -1 10 -1q34 3 60 5q16 2 45 9q3 1 12.5 5t15.5 4q25 0 25 -25q0 -19 -28 -29q-22 -8 -41 -11l-32 -5l-78 -5v-47q10 -180 10 -186q0 -26 -25 -26q-24 0 -26 26l-10 170v10v53q-2 0 -10 1h-8.5h-1.5l-100 4l-127 10l-55 6l-8 -163v-3q0 -18 -2 -48
q-3 -38 -3 -49q-1 -36 -25 -36q-20 0 -25 20v23q0 10 3 78l8 181v1v1l-138 16q-19 2 -19 25q0 25 27 25l133 -15l9 244q2 45 4 77q3 21 25 21q26 0 26 -25l-13 -322l67 -7l196 -13h38l-3 333z" />
    <glyph glyph-name="uni04A5" unicode="&#x4a5;" horiz-adv-x="599" 
d="M98 20q-5 -11 -12.5 -16t-16 -4.5t-15 6.5t-7.5 17l-3 81v2l-9 248q0 29 25 29q14 0 21.5 -9t6.5 -19l5 -131q63 1 124 3t121 7l-5 120q-2 4 -2.5 9t-0.5 13q0 11 6 18t12 7h5q2 1 8 1q4 0 5 -1h129l58 2q20 -1 22 -24q1 -20 -18 -24h-12q-11 0 -32 -0.5t-50 -0.5l-78 1
l11 -238q3 -59 3 -81v-13q-3 -19 -24 -19q-26 0 -29 21l-3 81v2l-3 76q-82 -5 -146 -6.5t-99 -2.5l2 -60v-17.5t0.5 -31t0.5 -30v-16.5z" />
    <glyph glyph-name="uni04AA" unicode="&#x4aa;" horiz-adv-x="640" 
d="M42 341q0 60 17 111q30 89 90 154q72 78 155 78q77 0 127 -71q45 -63 45 -143q0 -42 -11 -65q-21 -43 -59 -71q-41 -28 -88 -28q-54 0 -83.5 34.5t-29.5 89.5q0 48 24 80q26 36 72 36q34 0 58.5 -16t24.5 -48q0 -23 -14 -47q-17 -26 -39 -26q-25 0 -25 25q0 11 14 23
t14 24q0 14 -35 14q-43 0 -43 -66q0 -73 62 -73q35 0 66 26t38 60q3 13 3 29q0 58 -31 107q-36 55 -91 55q-40 0 -80 -29q-58 -42 -94 -115.5t-36 -146.5q0 -90 14 -128q27 -72 102 -126q56 -40 122 -40q81 0 163 62q25 19 34 28l46 46q4 4 15 4q24 0 24 -24q0 -13 -14 -28
q-123 -130 -252 -138q-10 -13 -23 -32t-22 -36q-8 -17 -8 -32t7 -23q6 -8 11 -9q10 -6 25 1l27 20t27 4q23 -11 12 -34q-2 -5 -6 -8.5t-9 -8.5q-56 -43 -98 -20q-35 17 -43 52t10 73l16 25.5l19 29.5q-63 9 -121 51q-73 54 -107 134q-22 52 -22 156z" />
    <glyph glyph-name="uni04AB" unicode="&#x4ab;" horiz-adv-x="385" 
d="M20 155q0 61 32.5 125t81.5 93q35 21 72 21q47 0 81 -24q37 -28 37 -73q0 -30 -19.5 -52t-48.5 -22t-49 20t-20 49q0 43 28 43q25 0 25 -25v-8q-1 -6 -1 -9v-7q1 -12 17 -12h5q12 3 12 23q0 23 -24 36q-19 10 -45 10q-20 0 -45 -14q-77 -43 -87 -127q-1 -3 -1 -47
q0 -48 24.5 -80t70.5 -32q81 0 138 68q19 23 29 23q25 0 25 -26q0 -15 -22 -37q-64 -65 -137 -76q-10 -13 -22 -31.5t-20 -33.5q-8 -17 -8 -32t7 -23q6 -8 11 -9q10 -6 25 1l27 20t27 4q23 -11 12 -34q-2 -5 -6 -8.5t-9 -8.5q-56 -43 -98 -20q-35 17 -43 52t10 73l14 22
l17 27q-51 6 -84 46q-39 45 -39 115z" />
    <glyph glyph-name="uni04AE" unicode="&#x4ae;" horiz-adv-x="678" 
d="M585 588q-3 -12 -3 -28l-3 -143q0 -9 -4 -29q-8 -42 -23 -63q-33 -46 -97 -56l6 -221q0 -4 5.5 -4.5t14 0.5t17.5 3t17 2q16 1 27 1h19q9 0 17 0.5t14.5 -1.5t10 -7.5t3.5 -17.5q0 -26 -25 -26h-1q-3 0 -8 1h-7q-105 -3 -185 -6l-138 -5q-25 1 -25 25t21 26l136 5h6.5
t12.5 1t13 1h6l-8 220q-89 3 -128 59q-15 21 -23 63q-4 20 -4 29l-3 143q0 16 -3 28q-9 38 -40 47q-18 5 -38 5q-66 0 -95 -65q-5 -12 -5 -23q0 -17 9.5 -33t26.5 -16q25 0 31 20v7q0 12 -10.5 21.5t-10.5 19.5q0 26 25 26q21 0 35 -24q12 -20 12 -43q0 -33 -24.5 -55.5
t-58.5 -22.5q-37 0 -62 31q-24 31 -24 69q0 24 13 51q18 42 56 65t83 23q21 0 51 -8q51 -13 69 -62q11 -30 13 -98v-41q3 -61 9 -88q14 -51 46 -66q28 -14 60 -12q31 -2 60 12q32 15 46 66q6 27 9 88v41q2 68 13 98q5 42 32.5 65t62.5 21q25 -1 42.5 -20t28.5 -51
q4 -12 4 -22q-3 -26 -28 -22q-12 1 -17 11t-9.5 21t-10 21t-17.5 12q-8 1 -15.5 -5.5t-13.5 -16.5t-10.5 -22.5t-5.5 -24.5z" />
    <glyph glyph-name="uni04AF" unicode="&#x4af;" horiz-adv-x="488" 
d="M391 95q-52 -97 -134 -97q-29 0 -55 10q-81 30 -81 121q0 7 0.5 14.5t1.5 17.5l13 123q1 5 1 12v15q0 17 -28 17q-21 0 -36 -24q-6 -10 -12.5 -18.5t-18.5 -8.5q-25 0 -25 24q0 8 15 34q32 44 78 44q64 0 76 -62q1 -3 1 -25v-13l-14 -135q-1 -6 -1 -16.5v-26.5
q0 -30 47 -45q21 -7 39 -7q70 0 106 119q10 31 23 140q2 20 3.5 36.5t1.5 30.5q3 22 26 22q21 0 25 -22v-216q0 -23 -0.5 -51t-3 -71.5t-7.5 -106.5t-13 -155v-15t1 -13q1 -12 4.5 -25t8.5 -23.5t12 -17.5t15 -7q12 1 18 10.5t11.5 20.5t11.5 20t18 10q25 3 26 -24
q-1 -4 -2 -9.5t-4 -12.5q-13 -32 -32 -49.5t-44 -15.5q-35 1 -54.5 20t-29 47t-11 61.5t0.5 63.5q7 68 11.5 115.5t6.5 80t3 51.5t1 29v3z" />
    <glyph glyph-name="uni04B0" unicode="&#x4b0;" horiz-adv-x="678" 
d="M535 160l-77 2l3 -114q0 -8 5.5 -4t20.5 5q16 1 27 1h19q9 0 17 0.5t14.5 -1.5t10 -7.5t3.5 -17.5q0 -26 -25 -26h-1q-3 0 -8 1h-7q-52 -2 -85 -3t-57 -2.5t-45 -3t-50 -2.5q-25 1 -25 25t21 26l78 5h6.5t12.5 1t13 1h6l-5 117l-66 2q-2 -2 -3 0h-25.5t-25.5 1
q-23 1 -32 6t-9 18t4 16.5t17 3.5h1l138 -6l-2 62q-89 3 -128 59q-15 21 -23 63q-4 20 -4 29l-3 143q0 16 -3 28q-9 38 -40 47q-18 5 -38 5q-66 0 -95 -65q-5 -12 -5 -23q0 -17 9.5 -33t26.5 -16q25 0 31 20v7q0 12 -10.5 21.5t-10.5 19.5q0 26 25 26q21 0 35 -24
q12 -20 12 -43q0 -33 -24.5 -55.5t-58.5 -22.5q-37 0 -62 31q-24 31 -24 69q0 24 13 51q18 42 56 65t83 23q21 0 51 -8q51 -13 69 -62q11 -30 13 -98v-41q3 -61 9 -88q14 -51 46 -66q28 -14 60 -12q31 -2 60 12q32 15 46 66q6 27 9 88v41q2 68 13 98q5 42 32.5 65t62.5 21
q25 -1 42.5 -20t28.5 -51q4 -12 4 -22q-3 -26 -28 -22q-12 1 -17 11t-9.5 21t-10 21t-17.5 12q-8 1 -15.5 -5.5t-13.5 -16.5t-10.5 -22.5t-5.5 -24.5q-3 -12 -3 -28l-3 -143q0 -9 -4 -29q-8 -42 -23 -63q-33 -46 -97 -56l2 -65q20 -1 48.5 -1.5t66.5 -0.5q19 -1 27.5 -5
t8.5 -17q0 -20 -19 -21h-13h-17t-24 1z" />
    <glyph glyph-name="uni04B1" unicode="&#x4b1;" horiz-adv-x="498" 
d="M467 -111l-38 2q-2 -26 -4.5 -54.5l-5.5 -61.5v-15t1 -13q1 -12 4.5 -25t8.5 -23.5t12 -17.5t15 -7q12 1 18 10.5t11.5 20.5t11.5 20t18 10q25 3 26 -24q-1 -4 -2 -9.5t-4 -12.5q-13 -32 -32 -49.5t-44 -15.5q-35 1 -54.5 20t-29 47t-11 61.5t0.5 63.5q2 22 4 40.5
l4 36.5l-34 1q-1 -1 -2 -1q-45 0 -69 3t-24 23q0 12 4 16.5t17 3.5l112 -4q6 70 8 106t2 51v3q-52 -97 -134 -97q-29 0 -55 10q-81 30 -81 121q0 7 0.5 14.5t1.5 17.5l13 123q1 5 1 12v15q0 17 -28 17q-21 0 -36 -24q-6 -10 -12.5 -18.5t-18.5 -8.5q-25 0 -25 24q0 8 15 34
q32 44 78 44q64 0 76 -62q1 -3 1 -25v-13l-14 -135q-1 -6 -1 -16.5v-26.5q0 -30 47 -45q21 -7 39 -7q70 0 106 119q10 31 23 140q2 20 3.5 36.5t1.5 30.5q3 22 26 22q21 0 25 -22v-216q0 -17 -0.5 -37t-1.5 -46.5t-3.5 -61t-5.5 -81.5q5 -1 19.5 -1t52.5 -1q19 -1 27.5 -5.5
t8.5 -16.5q0 -21 -19 -21h-13h-17t-24 1z" />
    <glyph glyph-name="uni04B2" unicode="&#x4b2;" horiz-adv-x="1050" 
d="M541 286h-1l-1 -1l-209 -262q-9 -11 -21 -11q-25 0 -25 25q0 9 3 14l225 282q1 1 2 3v1l-85 147l-39 56l-24 28q-52 57 -113 57q-60 0 -108 -40q-51 -42 -51 -101q0 -38 30 -63t69 -25q28 0 55 13q33 16 33 41q0 17 -16 30t-34 13q-23 0 -23 -25v-4q4 -2 8 -2q6 0 15 5.5
t15 5.5q25 0 25 -26q0 -16 -17.5 -26t-35.5 -10q-26 0 -44 15.5t-18 40.5q0 32 22 54t53 22q39 0 70 -27t31 -65q0 -49 -47 -79q-41 -27 -92 -27q-60 0 -105.5 40t-45.5 99t41 111q40 49 98 69q35 12 75 12q79 0 143 -68q20 -21 29 -34l47 -67l74 -127l239 300q10 12 22 12
q25 0 25 -26q0 -9 -4 -14l-253 -318q-2 -4 93 -173l41 -59q9 -11 25 -29q45 -51 114 -51q70 0 116 49q21 22 21 56q0 45 -56 70q-22 10 -40 10q-22 0 -39 -16t-17 -38q0 -31 30 -31q12 0 27 11.5t25 11.5q25 0 25 -25q0 -20 -27.5 -35t-49.5 -15q-33 0 -57 24.5t-24 57.5
q0 45 31.5 75.5t76.5 30.5q35 0 75 -22q71 -39 71 -109q0 -69 -61 -115q-21 -15 -45 -25q19 -87 14.5 -152.5t-33.5 -91.5q-18 -15 -40.5 -24t-45.5 -10t-44.5 7.5t-37.5 28.5q-12 14 -18.5 36t-7 45.5t6 44.5t21.5 33q23 19 50.5 14.5t46.5 -27.5q15 -18 17.5 -40
t-16.5 -38q-17 -16 -34 4q-4 4 -3.5 9.5l1 10.5t0.5 10.5t-4 10.5q-8 10 -14 10.5t-12 -4.5q-5 -6 -7.5 -16.5t-2.5 -22.5t3 -24.5t11 -21.5q9 -11 21 -14.5t25.5 -2.5t26.5 7t24 15q10 9 14.5 33t4 53t-5.5 57t-14 45q-15 -2 -30 -2q-97 0 -168 88q-25 31 -32 43z" />
    <glyph glyph-name="uni04B3" unicode="&#x4b3;" horiz-adv-x="454" 
d="M220 138l-2 -2l-99 -124q-9 -11 -21 -11q-25 0 -25 25q0 10 3 15l109 136l-137 152q-6 7 -6 17q0 25 26 25q10 0 15 -5l135 -148l140 175q9 11 21 11q25 0 25 -26q0 -9 -4 -13l-147 -186q1 0 1 -2l125 -111q36 -33 51 -76t15.5 -82.5t-10 -70t-25.5 -38.5
q-18 -15 -41.5 -27t-47.5 -16t-47 1.5t-39 25.5q-12 14 -18.5 36t-7 45.5t6 44.5t21.5 33q23 19 50.5 14.5t46.5 -27.5q15 -18 17.5 -40t-16.5 -38q-17 -16 -34 4q-4 4 -3.5 9.5l1 10.5t0.5 10.5t-4 10.5q-8 10 -14 10.5t-12 -4.5q-5 -6 -7.5 -16.5t-2.5 -22.5t3 -24.5
t11 -21.5q9 -11 22 -13t28 1.5t29 11t25 16.5q8 7 14.5 27t4.5 48t-15 61t-44 67z" />
    <glyph glyph-name="uni04B6" unicode="&#x4b6;" horiz-adv-x="888" 
d="M608 434l19 214q2 15 7.5 22.5t19.5 7.5q25 0 25 -25l-15 -152q-3 -30 -3.5 -54t-0.5 -42v-18q-1 -9 -1 -15v-9v-9t1 -14v-21q0 -30 -1 -62.5t-1 -64t1.5 -59t6.5 -46.5q22 -87 79 -87q17 0 32.5 11t27 29t18.5 40t7 45q0 48 -32 48q-12 0 -18.5 -9t-12 -20t-12 -20
t-18.5 -9q-25 0 -25 25q0 8 6 22q29 62 79 62q40 0 62.5 -27.5t22.5 -69.5t-15.5 -79t-41.5 -62q11 -46 15.5 -87.5t3 -76t-10 -60t-23.5 -38.5q-18 -15 -40.5 -24t-45.5 -10t-44.5 7.5t-37.5 28.5q-12 14 -18.5 36t-7 45.5t6 44.5t21.5 33q23 19 50.5 14.5t46.5 -27.5
q15 -18 17.5 -40t-16.5 -38q-17 -16 -34 4q-4 4 -3.5 9.5l1 10.5t0.5 10.5t-4 10.5q-8 10 -14 10.5t-12 -4.5q-5 -6 -7.5 -16.5t-2.5 -22.5t3 -24.5t11 -21.5q9 -11 21 -14.5t25.5 -2.5t26.5 7t24 15q10 9 14.5 34t4 54t-6 57.5t-14.5 44.5q-17 -5 -30 -5q-95 0 -131 132
q-2 17 -3 42.5t-1 54v57t1 51.5t1.5 38t0.5 16l-36 -61q-1 -3 -27 -35q-77 -95 -165 -95q-42 0 -67.5 21t-39.5 64t-20 107t-10 151q-6 40 -11.5 66t-13.5 41t-20 20.5t-31 5.5q-27 0 -50 -13.5t-40 -36t-27 -51t-10 -58.5q0 -29 11.5 -40.5t34.5 -11.5q27 0 47 21.5
t20 50.5q0 20 -11 20q-5 0 -14.5 -3.5t-13.5 -3.5q-26 0 -26 25q0 34 55 34q29 0 45.5 -21t16.5 -51q0 -23 -9.5 -45t-26 -39t-37.5 -27.5t-45 -10.5q-17 0 -34.5 5t-31.5 17t-23 32t-9 49q0 41 14 79t38.5 67t57 46t69.5 17q52 0 80.5 -32t40.5 -109q6 -38 6 -57v-1
q1 -140 25.5 -208t59.5 -68q36 0 74 27t73 76l36 56z" />
    <glyph glyph-name="uni04B7" unicode="&#x4b7;" horiz-adv-x="502" 
d="M396 41q14 -4 22 1q4 4 6 5q4 6 6.5 14.5t4 16t4 13t7.5 5.5q25 -1 25 -26q1 -4 -1 -8.5t-4 -9.5v-4q11 -47 14.5 -89t0.5 -76.5t-13 -60t-26 -38.5q-18 -15 -40.5 -21.5t-44.5 -5.5t-41.5 8t-31.5 19q-14 13 -20.5 32t-6.5 39.5t7 39.5t22 31q23 19 49.5 15t45.5 -27
q15 -18 10.5 -32.5t-9.5 -23.5q-5 -10 -15.5 -8t-18.5 12q-4 4 -3.5 6t1 3t0.5 3t-4 7q-8 10 -13 10t-11 -5q-10 -11 -10.5 -30.5t14.5 -37.5q9 -11 20.5 -14.5t24 -1.5t25 8t23.5 15q9 8 14.5 28.5t7.5 45.5t0.5 51t-7.5 46q-15 -9 -33 -9q-39 1 -53 27.5t-13 68.5l1 125
q-9 -18 -25 -34.5t-35 -28t-39.5 -17t-38.5 -2.5q-56 8 -82.5 52t-16.5 110q1 4 1 11.5v9.5q0 34 -16 34q-8 0 -11.5 -8t-7 -17t-8.5 -17t-14 -8q-25 0 -25 26q0 35 21 55t45 20q17 0 31 -5.5t23.5 -18.5t12.5 -34.5t-1 -52.5q-7 -42 9 -72.5t45 -35.5q12 -2 27 2t31 14
t31.5 27t27.5 43q12 28 12.5 49.5t0 36.5t2.5 24t20 14q11 3 17.5 -3.5t7.5 -16.5q1 -26 3 -64.5t1 -90.5l2 -122q0 -19 2 -30.5t11 -16.5z" />
    <glyph glyph-name="uni04B9" unicode="&#x4b9;" horiz-adv-x="486" 
d="M207 117v8q-9 0 -13 1q-56 8 -82.5 52t-16.5 110q1 4 1 11.5v9.5q0 34 -16 34q-8 0 -11.5 -8t-7 -17t-8.5 -17t-14 -8q-25 0 -25 26q0 35 21 55t45 20q17 0 31 -5.5t23.5 -18.5t12.5 -34.5t-1 -52.5q-7 -42 9 -72.5t45 -35.5q1 0 2 -0.5t3 -0.5q0 45 4 75t20 30
q11 0 15 -5t3 -20l-1 -70q19 9 38 27.5t33 49.5q12 28 12.5 49.5t0 36.5t2.5 24t20 14q11 3 17.5 -3.5t7.5 -16.5q1 -26 3 -64.5t1 -90.5l2 -122q0 -19 2 -30.5t11 -16.5q18 -5 25 3t10.5 19.5t5.5 22t9 10.5q25 -1 25 -26q1 -5 -1.5 -10t-4.5 -12q-5 -27 -24 -44.5
t-44 -16.5q-39 1 -53 27.5t-13 68.5l1 125q-13 -25 -36.5 -45t-50.5 -30q0 -9 0.5 -20t0.5 -27q-1 -23 -5 -33t-15 -10q-19 0 -19 23v16q0 8 -0.5 13t0.5 22z" />
    <glyph glyph-name="uni04B8" unicode="&#x4b8;" horiz-adv-x="888" 
d="M415 214q-15 -3 -30 -3q-42 0 -65 11.5t-34 43t-14 86t-7 141.5q-6 40 -11.5 66t-13.5 41t-20 20.5t-31 5.5q-27 0 -50 -13.5t-40 -36t-27 -51t-10 -58.5q0 -29 11.5 -40.5t34.5 -11.5q27 0 47 21.5t20 50.5q0 20 -11 20q-5 0 -14.5 -3.5t-13.5 -3.5q-26 0 -26 25
q0 34 55 34q29 0 45.5 -21t16.5 -51q0 -23 -9.5 -45t-26 -39t-37.5 -27.5t-45 -10.5q-17 0 -34.5 5t-31.5 17t-23 32t-9 49q0 41 14 79t38.5 67t57 46t69.5 17q52 0 80.5 -32t40.5 -109q6 -38 6 -57v-1q0 -69 4.5 -111.5t12.5 -65.5t21 -30.5t30 -7.5q18 0 33 4v3q-1 2 -1 3
v50.5t2 41.5t7 28t14 10q11 0 15 -5t3 -20l-4 -96q20 11 39.5 29.5t38.5 44.5q30 41 46 70t25 59t13.5 67.5t10.5 95.5q2 15 7.5 22.5t19.5 7.5q25 0 25 -25l-15 -152q-3 -30 -3.5 -54t-0.5 -42v-18q-1 -9 -1 -15v-9v-9t1 -14v-21q0 -30 -1 -62.5t-1 -64t1.5 -59t6.5 -46.5
q22 -87 79 -87q17 0 32.5 11t27 29t18.5 40t7 45q0 48 -32 48q-12 0 -18.5 -9t-12 -20t-12 -20t-18.5 -9q-25 0 -25 25q0 8 6 22q29 62 79 62q40 0 62.5 -27.5t22.5 -69.5q0 -34 -11 -66t-29.5 -56.5t-43.5 -39.5t-53 -15q-95 0 -131 132q-2 17 -3 47t-1 65v71.5t1 66.5
t1.5 49.5t0.5 20.5l-36 -61q-1 -3 -27 -35q-47 -58 -97 -80v-28t1 -44q-1 -23 -5 -33t-15 -10q-19 0 -19 23v16q0 8 -0.5 27t0.5 36v1z" />
    <glyph glyph-name="uni04BA" unicode="&#x4ba;" horiz-adv-x="914" 
d="M273 511q-6 40 -11.5 66t-13.5 41t-20 20.5t-31 5.5q-27 0 -50 -13.5t-40 -36t-27 -51t-10 -58.5q0 -29 11.5 -40.5t34.5 -11.5q27 0 47 21.5t20 50.5q0 20 -11 20q-5 0 -14.5 -3.5t-13.5 -3.5q-26 0 -26 25q0 34 55 34q29 0 45.5 -21t16.5 -51q0 -23 -9.5 -45t-26 -39
t-37.5 -27.5t-45 -10.5q-17 0 -34.5 5t-31.5 17t-23 32t-9 49q0 41 14 79t38.5 67t57 46t69.5 17q52 0 80.5 -32t40.5 -109q3 -19 4.5 -36t1.5 -27l-2 3q3 -26 3.5 -63.5t0 -73t-1.5 -61.5t-1 -28l36 61q1 3 27 35q38 47 75 61.5t81 14.5q42 0 65 -14t34 -48.5t14 -91.5
t7 -144q-5 -91 50 -106q16 -5 34 1t34.5 19.5t29.5 33t19 41.5q14 46 -16 55q-12 3 -21 -3.5t-17.5 -15.5t-17 -15.5t-19.5 -3.5q-24 7 -17 31q3 8 12 19q45 51 94 37q38 -11 51.5 -44.5t1.5 -73.5q-10 -33 -30 -60t-45 -45t-53 -25t-55 1q-90 27 -87 169q0 69 -4.5 114
t-12.5 71t-21 36t-30 10q-18 0 -35 -2.5t-34 -10t-34 -22.5t-35 -39q-30 -41 -46 -70t-25 -59t-13.5 -67.5t-10.5 -95.5q-2 -15 -7.5 -22.5t-19.5 -7.5q-25 0 -25 25l15 152q3 30 3.5 54t0.5 42v18q1 9 1 15v9v9t-1 14v21q0 24 0.5 38.5t0.5 29t-1 35t-4 57.5z" />
    <glyph glyph-name="uni04BB" unicode="&#x4bb;" horiz-adv-x="448" 
d="M340 -108v11l5 193q1 29 1 32v18q-1 13 -1 25t-4 43q-13 101 -77 129q-20 9 -36 9q-72 0 -137 -119v-10q0 -32 2 -96.5t2 -97.5q0 -27 -26 -27q-21 0 -25 22q-2 116 -7 347q-5 242 -5 266v16q5 20 25 20q16 0 23 -13q3 -6 3 -23l6 -314l32 32q49 47 108 47q30 0 57 -12
q85 -38 105 -163q6 -38 6 -98q0 -31 -3 -118t-3 -118v-28q1 -14 3 -34q9 -73 68 -73q33 0 55 34q18 29 18 64q0 36 -25 54q-7 5 -13 5q-15 0 -15 -20q0 -12 5 -12h19q8 0 14 -8.5t6 -16.5q0 -27 -35 -27q-26 0 -43.5 18.5t-17.5 44.5q0 28 19 50t47 22q39 0 66 -36
q24 -33 24 -74q0 -56 -33 -101q-37 -48 -91 -48q-23 0 -50 9q-72 24 -72 176z" />
    <glyph glyph-name="uni04C1" unicode="&#x4c1;" horiz-adv-x="952" 
d="M209 681q16 -3 40.5 -13t48.5 -35t41.5 -70t18.5 -119q-2 -22 -3.5 -42t-3.5 -40q4 0 7 -0.5t8 -0.5l98 -8l29 302q2 27 29 22q12 -2 17 -11.5t5 -24t-2.5 -31.5t-3.5 -35l-23 -223l126 -2q6 32 14.5 68t22.5 76l30 68q4 5 9.5 15.5t15.5 26.5q36 59 83.5 81.5t104.5 5.5
q30 -9 52.5 -29t35 -47t14 -58.5t-10.5 -63.5q-9 -23 -26.5 -41.5t-38.5 -30t-43 -15.5t-40 2q-21 6 -38 21.5t-27.5 36t-13 43.5t6.5 45q8 25 31 37t46 4q22 -7 34 -27t7 -41q-5 -13 -12.5 -17.5t-20.5 -2.5q-7 2 -11 8.5t-6 13t-4 12t-5 6.5q-9 1 -13 -10
q-3 -11 -0.5 -23.5t9 -24t16 -20.5t20.5 -12q12 -4 24.5 -0.5t23.5 11t19.5 18t12.5 22.5q17 46 -1.5 83.5t-59.5 49.5q-27 8 -50.5 4t-45 -24t-42 -56.5t-41.5 -92.5q-12 -33 -20.5 -63.5t-14.5 -59.5h38q27 -3 24 -29q-4 -22 -23 -22h-47q-8 -69 0.5 -122t25.5 -86
t38.5 -44t40.5 4q8 5 11 13.5t0 15.5q-3 6 -9 5l-12.5 -2t-13.5 0t-11 10q-12 22 18 39q23 12 43 3t31 -30q6 -12 6 -26.5t-5 -28t-14.5 -25.5t-21.5 -19q-26 -13 -57 -6.5t-57 28.5q-11 9 -24 29.5t-22.5 54.5t-14 81t1.5 107l-123 1l-16 -200q-2 -34 -4 -53.5t-2 -24.5
l-3 -23q-8 -20 -28 -18q-10 2 -15 9t-6 23t1.5 41.5t7.5 63.5l12 184l-115 8q-14 -75 -37 -128.5t-48 -89.5t-49 -55.5t-39 -25.5q-32 -13 -64 -10.5t-52 22.5q-10 10 -14.5 24t-4.5 28t5 27.5t15 23.5q17 17 40 19t40 -15q22 -24 4 -42q-8 -7 -14.5 -6t-13 4t-12 5t-9.5 -2
q-5 -5 -5.5 -14t5.5 -16q13 -21 41 -14.5t58.5 39.5t58.5 91t42 140q-10 1 -26 4t-31.5 7.5t-27 12.5t-11.5 20q0 25 25 25q6 0 15.5 -4t12.5 -5q14 -5 26.5 -6.5t23.5 -3.5q2 17 3 34.5t1 36.5q6 60 -9.5 102t-41 66t-57 30.5t-58.5 -4.5t-44.5 -39t-15.5 -73
q1 -13 11 -24.5t23.5 -20t28 -13t23.5 -3.5q14 2 25 7t9 14q0 3 -4 10t-9.5 14l-10 13t-5.5 9q-2 17 10.5 26t28.5 11q40 4 47 -61q2 -17 -5 -33t-19.5 -28.5t-29.5 -21.5t-35 -12q-24 -3 -48.5 4.5t-45 21.5t-34.5 34.5t-17 44.5q-4 31 6 66.5t36 64.5q13 14 30.5 23.5
t37.5 14.5t41 5.5t40 -3.5zM623 840q-3 5 -5 5.5t-7 1.5h-2v-2q-2 -14 -12 -14.5t-18.5 8t-10.5 22.5t13 29q9 9 20 10.5t22.5 -2t22 -11.5t17.5 -19q9 -15 10.5 -33t-4 -35.5t-16.5 -33t-26 -24.5q-42 -24 -90.5 -24.5t-90.5 24.5q-15 9 -26.5 24.5t-16.5 33t-4 35.5t10 33
q7 11 17.5 19t22 11.5t22.5 2t20 -10.5q15 -15 13 -29t-10.5 -22.5t-19 -8t-11.5 14.5v2h-2q-5 -1 -7 -1.5t-5 -5.5q-4 -6 -4 -15t3.5 -17.5t9 -16t11.5 -11.5q13 -8 31 -12.5t36 -4.5t35.5 4.5t31.5 12.5q6 4 11.5 11.5t9 16t3.5 17.5t-4 15z" />
    <glyph glyph-name="uni04C0" unicode="&#x4c0;" horiz-adv-x="220" 
d="M74 311l35 385q2 27 29 22q12 -2 17 -11.5t5 -24t-2.5 -31.5t-3.5 -35l-27 -307l-16 -200q-2 -34 -4 -53.5t-2 -24.5l-3 -23q-8 -20 -28 -18q-10 2 -15 9t-6 23t1.5 41.5t7.5 63.5z" />
    <glyph glyph-name="uni04C2" unicode="&#x4c2;" horiz-adv-x="750" 
d="M364 -26l-13 153l-3 58l-59 -3h-2q-5 -36 -16.5 -68.5t-30.5 -57t-45 -38.5t-58 -14q-25 0 -46.5 7t-37.5 20t-25 31t-9 39q0 30 17 52.5t46 22.5q23 0 33.5 -12.5t10.5 -26.5q0 -10 -5 -17.5t-15 -7.5q-4 0 -6 2t-4 4.5t-5 4.5t-9 2v-1q-12 -3 -12 -26t20 -36.5
t49 -13.5q26 0 44 11.5t29 30t17 41.5t8 47q-10 -1 -17 -1.5t-12 -0.5h-13q-20 0 -20 17q0 22 20 27l44 2v4q0 24 -5 47.5t-15.5 41.5t-26.5 29.5t-39 11.5q-46 -5 -52 -54q1 -5 1 -8.5v-7.5q0 -18 -8 -24.5t-17 -6.5q-15 0 -20 9t-5 21q0 44 27 77t73 39q33 0 58.5 -14
t43 -38t27 -55.5t9.5 -67.5v-1l56 4l-7 168q3 29 26 29q12 -1 18.5 -10t5.5 -19l8 -165l62 3q6 34 18 63.5t31 51.5t43.5 35t55.5 13q25 0 46.5 -7t37.5 -20t25 -31t9 -39q0 -30 -17 -52.5t-46 -22.5t-47.5 16t-18.5 45q0 12 3.5 19t8 10.5t10 4t9.5 0.5q19 0 19 -23v-9
q-1 0 -1 3v-3q1 -12 17 -12v1q12 3 12 26t-20 36.5t-49 13.5q-24 0 -41 -10t-28.5 -26t-17.5 -37t-9 -43l23 2q14 0 22 -2.5t8 -15.5q0 -12 -8.5 -19t-18.5 -7l-30 -2v-18q0 -25 6.5 -48.5t19.5 -41.5t31.5 -29t41.5 -11q13 0 27.5 15.5t17.5 38.5q-1 5 -1.5 8.5t-0.5 6.5
q0 19 8.5 25t17.5 6q16 0 21 -8.5t5 -21.5q0 -21 -6.5 -41t-19 -35.5t-30.5 -25.5t-40 -13q-33 0 -60 14t-47 38t-31 55.5t-11 67.5v15l-55 -3l3 -54q3 -51 5.5 -79t4 -42t2.5 -18.5t1 -10.5l-1 -13q-3 -19 -24 -19q-23 2 -26 22zM427 586q-3 5 -5.5 5.5t-7.5 0.5h-2l1 -1
q-2 -14 -12 -15t-18.5 7t-11 22.5t12.5 29.5q8 9 19.5 11t23.5 -1.5t23 -11t19 -18.5q9 -15 10 -33t-4 -36t-16 -33.5t-26 -24.5q-82 -51 -168 -4q-16 9 -28 24t-18 33t-5.5 36t9.5 33q7 11 18 19.5t22.5 12t23 2t20.5 -10.5q15 -14 13.5 -28t-9.5 -22.5t-18.5 -8.5
t-11.5 14l-1 1l-2 1q-5 -2 -7 -2.5t-5 -5.5q-4 -6 -3.5 -14.5t4 -17t9 -16t11.5 -11.5q28 -16 61 -15.5t59 18.5q14 8 21 27.5t-1 32.5z" />
    <glyph glyph-name="uni04CF" unicode="&#x4cf;" horiz-adv-x="220" 
d="M74 311l35 385q2 27 29 22q12 -2 17 -11.5t5 -24t-2.5 -31.5t-3.5 -35l-27 -307l-16 -200q-2 -34 -4 -53.5t-2 -24.5l-3 -23q-8 -20 -28 -18q-10 2 -15 9t-6 23t1.5 41.5t7.5 63.5z" />
    <glyph glyph-name="uni04D0" unicode="&#x4d0;" horiz-adv-x="908" 
d="M26 145q0 50 22 95q26 51 68 71q17 8 49 8q45 0 78 -25.5t33 -69.5q0 -33 -24.5 -59t-57.5 -26q-52 0 -52 61q0 46 31 46q25 0 25 -26q0 -3 -3 -10t-3 -11q0 -9 3 -9q6 0 11 5q19 11 19 31q0 21 -21 32q-17 10 -39 10q-20 0 -29 -4q-26 -12 -44 -52q-15 -35 -15 -67
q0 -70 70 -103q19 -9 40 -9q58 0 129 68l42 44l73 90q0 1 1 3v1q-15 1 -47 2q-20 5 -20 24q0 21 19 26h20h31q20 -1 30 -1h3l2 2l153 262l57 115q5 12 21 12q23 0 26 -24l45 -374h10l108 -3q23 -4 23 -26q0 -25 -26 -25q-18 0 -54 1t-55 1v-3l22 -205q0 -26 -26 -26
q-23 0 -25 23l-23 213h-2l-229 5l-82 -108q-10 -13 -32 -36q-108 -112 -194 -112q-35 0 -70 17q-91 44 -91 146zM529 289q160 -5 191 -5q0 7 -2.5 22t-2.5 21v1l-29 237zM773 834q-3 5 -5 5.5t-7 1.5h-2v-2q-2 -14 -12 -14.5t-18.5 8t-10.5 22.5t13 29q9 9 20 10.5t22.5 -2
t22 -11.5t17.5 -19q9 -15 10.5 -33t-4 -35.5t-16.5 -33t-26 -24.5q-42 -24 -90.5 -24.5t-90.5 24.5q-15 9 -26.5 24.5t-16.5 33t-4 35.5t10 33q7 11 17.5 19t22 11.5t22.5 2t20 -10.5q15 -15 13 -29t-10.5 -22.5t-19 -8t-11.5 14.5v2h-2q-5 -1 -7 -1.5t-5 -5.5q-4 -6 -4 -15
t3.5 -17.5t9 -16t11.5 -11.5q13 -8 31 -12.5t36 -4.5t35.5 4.5t31.5 12.5q6 4 11.5 11.5t9 16t3.5 17.5t-4 15z" />
    <glyph glyph-name="uni04D1" unicode="&#x4d1;" horiz-adv-x="500" 
d="M13 118q0 74 79 165q8 12 20 21q92 90 162 90q39 0 62 -37q20 -32 20 -75q0 -50 -24 -107v-4q5 -51 7 -60q15 -63 48 -63q29 0 38 33q5 21 7 23q6 12 21 12q25 0 25 -26q0 -13 -7 -31q-25 -62 -84 -62q-55 0 -82 60q-5 27 -11 55v2h-1q-24 -29 -33 -39q-67 -76 -134 -76
q-47 0 -80 36t-33 83zM64 118q0 -26 18 -47t44 -21q33 0 73 37q12 11 26 26.5t31 37.5l26 38q22 38 22 92q0 62 -31 62q-19 0 -48 -16q-69 -38 -122 -112q-39 -54 -39 -97zM351 572q-3 5 -5.5 5.5t-7.5 0.5h-2l1 -1q-2 -14 -12 -15t-18.5 7t-11 22.5t12.5 29.5q8 9 19.5 11
t23.5 -1.5t23 -11t19 -18.5q9 -15 10 -33t-4 -36t-16 -33.5t-26 -24.5q-82 -51 -168 -4q-16 9 -28 24t-18 33t-5.5 36t9.5 33q7 11 18 19.5t22.5 12t23 2t20.5 -10.5q15 -14 13.5 -28t-9.5 -22.5t-18.5 -8.5t-11.5 14l-1 1l-2 1q-5 -2 -7 -2.5t-5 -5.5q-4 -6 -3.5 -14.5
t4 -17t9 -16t11.5 -11.5q28 -16 61 -15.5t59 18.5q14 8 21 27.5t-1 32.5z" />
    <glyph glyph-name="uni04D2" unicode="&#x4d2;" horiz-adv-x="908" 
d="M26 145q0 50 22 95q26 51 68 71q17 8 49 8q45 0 78 -25.5t33 -69.5q0 -33 -24.5 -59t-57.5 -26q-52 0 -52 61q0 46 31 46q25 0 25 -26q0 -3 -3 -10t-3 -11q0 -9 3 -9q6 0 11 5q19 11 19 31q0 21 -21 32q-17 10 -39 10q-20 0 -29 -4q-26 -12 -44 -52q-15 -35 -15 -67
q0 -70 70 -103q19 -9 40 -9q58 0 129 68l42 44l73 90q0 1 1 3v1q-15 1 -47 2q-20 5 -20 24q0 21 19 26h20h31q20 -1 30 -1h3l2 2l153 262l57 115q5 12 21 12q23 0 26 -24l45 -374h10l108 -3q23 -4 23 -26q0 -25 -26 -25q-18 0 -54 1t-55 1v-3l22 -205q0 -26 -26 -26
q-23 0 -25 23l-23 213h-2l-229 5l-82 -108q-10 -13 -32 -36q-108 -112 -194 -112q-35 0 -70 17q-91 44 -91 146zM529 289q160 -5 191 -5q0 7 -2.5 22t-2.5 21v1l-29 237zM553 782q0 24 17.5 38.5t39.5 14.5t39 -14.5t17 -38.5q0 -23 -17 -37.5t-39 -14.5t-39.5 14.5
t-17.5 37.5zM732 782q0 24 17.5 38.5t39.5 14.5t39 -14.5t17 -38.5q0 -23 -17 -37.5t-39 -14.5t-39.5 14.5t-17.5 37.5z" />
    <glyph glyph-name="uni04D3" unicode="&#x4d3;" horiz-adv-x="500" 
d="M13 118q0 74 79 165q8 12 20 21q92 90 162 90q39 0 62 -37q20 -32 20 -75q0 -50 -24 -107v-4q5 -51 7 -60q15 -63 48 -63q29 0 38 33q5 21 7 23q6 12 21 12q25 0 25 -26q0 -13 -7 -31q-25 -62 -84 -62q-55 0 -82 60q-5 27 -11 55v2h-1q-24 -29 -33 -39q-67 -76 -134 -76
q-47 0 -80 36t-33 83zM64 118q0 -26 18 -47t44 -21q33 0 73 37q12 11 26 26.5t31 37.5l26 38q22 38 22 92q0 62 -31 62q-19 0 -48 -16q-69 -38 -122 -112q-39 -54 -39 -97zM113 507q0 24 17.5 38.5t39.5 14.5t39 -14.5t17 -38.5q0 -23 -17 -37.5t-39 -14.5t-39.5 14.5
t-17.5 37.5zM292 507q0 24 17.5 38.5t39.5 14.5t39 -14.5t17 -38.5q0 -23 -17 -37.5t-39 -14.5t-39.5 14.5t-17.5 37.5z" />
    <glyph glyph-name="uni04D4" unicode="&#x4d4;" horiz-adv-x="1061" 
d="M742 388q8 0 10 -1l161 -1q11 -4 16.5 -8t3.5 -15q-1 -13 -5 -21t-17 -6q-13 -2 -38 -2.5t-51.5 0t-49 1.5t-30.5 1l-1 -3l-1 -283h54h26h48t49 0.5t31 0.5q16 1 27 1h19q9 0 17 0.5t14.5 -1.5t10 -7.5t3.5 -17.5q0 -26 -25 -26h-1q-3 0 -8 1h-270q-8 -9 -24 -8
q-24 3 -22 26l1 214h-2l-193 5l-82 -108q-5 -7 -13 -16t-19 -20q-108 -112 -194 -112q-34 0 -70 17q-91 43 -91 146q0 51 22 95q26 51 68 71q18 8 49 8q22 0 42.5 -6.5t35.5 -19t24 -30t9 -39.5q0 -17 -6.5 -32t-18 -27t-26.5 -19t-31 -7q-52 0 -52 61q0 46 31 46
q25 0 25 -26q0 -3 -3 -10t-3 -11q0 -9 3 -9q6 0 11 5q19 10 19 31t-21 32q-16 10 -39 10q-21 0 -29 -4q-26 -12 -44 -52q-15 -35 -15 -67q0 -70 70 -103q19 -9 40 -9q58 0 129 68l20.5 22l21.5 22l73 90q0 2 1 3v1q-8 1 -19.5 1t-27.5 1q-20 5 -20 24q0 22 19 26h51
q10 -1 17.5 -1h12.5h3l2 2l153 262l66 115q4 12 21 12q2 0 4 -0.5t4 -0.5h190q21 0 56 3q4 0 19 3q6 1 10.5 1.5t8.5 0.5q25 0 25 -26q0 -20 -19 -24q-53 -9 -121 -9q-55 0 -91.5 -0.5t-55.5 0.5zM529 289q66 -1 105.5 -2t55.5 -3q1 7 0 22.5t0 21.5v1l-4 236z" />
    <glyph glyph-name="uni04D5" unicode="&#x4d5;" horiz-adv-x="654" 
d="M605 172q25 0 25 -25q0 -6 -3 -13q-56 -138 -187 -138q-51 0 -89 30.5t-57 81.5q-1 2 -0.5 3t-0.5 3q-24 -29 -33 -39q-67 -76 -134 -76q-47 0 -80 36t-33 83q0 74 79 165q7 11 20 21q91 90 162 90q40 0 62 -37q0 -1 2 -3q8 12 18 20q34 30 77 30q39 0 67 -28
q30 -27 30 -65q0 -35 -24 -83q-12 -24 -24.5 -40t-24.5 -26.5t-22.5 -16.5t-17.5 -9l-62 -32q21 -30 54 -42t64.5 -9.5t55 16.5t26.5 36q8 8 12.5 19l9 21t10.5 17.5t18 9.5zM64 118q0 -26 18 -47t44 -21q33 0 73 37q12 11 26 26.5t31 37.5q5 8 11.5 17.5l14.5 20.5q2 2 3 5
t3 5q5 39 15 76q0 2 1 3v3q0 62 -31 62q-20 0 -48 -16q-69 -37 -122 -112q-39 -54 -39 -97zM337 153l1 -1l2 1q19 9 32.5 16t21.5 12q31 19 50 36q9 8 23 43q13 33 13 51q0 17 -15.5 29.5t-32.5 12.5q-48 0 -76 -61v-10q0 -42 -19 -94v-27v-8z" />
    <glyph glyph-name="uni04D6" unicode="&#x4d6;" horiz-adv-x="548" 
d="M58 179q0 95 70 142q1 1 16 10q10 4 25 11q3 1 8 2q1 1 2 1l-24 23q-40 44 -40 105q0 77 46 141q50 69 124 77h18q69 0 117 -33q53 -37 53 -102q0 -47 -35 -83t-82 -36q-37 0 -66.5 25t-29.5 61q0 29 22.5 50.5t51.5 21.5q18 0 34 -9t16 -25q0 -25 -25 -25q-6 0 -13.5 4
t-12.5 4q-23 0 -23 -22q0 -14 16 -24t31 -10q25 0 45 21t20 47q0 44 -40 66q-32 18 -80 18q-58 0 -98 -55q-37 -51 -37 -111q0 -71 85 -111q5 -1 13 -5q2 -1 26 -8l29 -8q16 -7 16 -22q0 -26 -26 -26h-2q-35 8 -65 8q-89 0 -123 -71q-11 -23 -11 -54q0 -43 26.5 -77
t67.5 -48.5t90 -14.5q103 0 141 67q11 20 15 37q2 8 3.5 18l3 20t9 15.5t14.5 5.5q26 0 26 -26q0 -27 -12 -62q-22 -63 -79 -96q-52 -30 -123 -30q-96 0 -161 48q-72 53 -72 145zM408 850q-3 5 -5 5.5t-7 1.5h-2v-2q-2 -14 -12 -14.5t-18.5 8t-10.5 22.5t13 29q9 9 20 10.5
t22.5 -2t22 -11.5t17.5 -19q9 -15 10.5 -33t-4 -35.5t-16.5 -33t-26 -24.5q-42 -24 -90.5 -24.5t-90.5 24.5q-15 9 -26.5 24.5t-16.5 33t-4 35.5t10 33q7 11 17.5 19t22 11.5t22.5 2t20 -10.5q15 -15 13 -29t-10.5 -22.5t-19 -8t-11.5 14.5v2h-2q-5 -1 -7 -1.5t-5 -5.5
q-4 -6 -4 -15t3.5 -17.5t9 -16t11.5 -11.5q13 -8 31 -12.5t36 -4.5t35.5 4.5t31.5 12.5q6 4 11.5 11.5t9 16t3.5 17.5t-4 15z" />
    <glyph glyph-name="uni04D7" unicode="&#x4d7;" horiz-adv-x="412" 
d="M21 158q0 56 17 114q19 69 53 99t77 30q38 0 67.5 -27.5t29.5 -65.5q0 -35 -23.5 -82.5t-49.5 -66.5t-40 -26l-62 -32q0 -3 5 -8q46 -49 113 -49q74 0 114 58q10 14 15.5 26.5t12.5 26.5t22 14q25 0 25 -25q0 -6 -3 -13q-56 -138 -187 -138q-73 0 -128 45q-58 48 -58 120
zM72 150l1 -1l2 1q37 18 54 28q30 18 50 36q10 9 23 43.5t13 50.5q0 17 -15.5 29.5t-32.5 12.5q-55 0 -84 -80q-11 -30 -11 -112v-8zM258 580q-3 5 -5.5 5.5t-7.5 0.5h-2l1 -1q-2 -14 -12 -15t-18.5 7t-11 22.5t12.5 29.5q8 9 19.5 11t23.5 -1.5t23 -11t19 -18.5
q9 -15 10 -33t-4 -36t-16 -33.5t-26 -24.5q-82 -51 -168 -4q-16 9 -28 24t-18 33t-5.5 36t9.5 33q7 11 18 19.5t22.5 12t23 2t20.5 -10.5q15 -14 13.5 -28t-9.5 -22.5t-18.5 -8.5t-11.5 14l-1 1l-2 1q-5 -2 -7 -2.5t-5 -5.5q-4 -6 -3.5 -14.5t4 -17t9 -16t11.5 -11.5
q28 -16 61 -15.5t59 18.5q14 8 21 27.5t-1 32.5z" />
    <glyph glyph-name="uni04D8" unicode="&#x4d8;" horiz-adv-x="498" 
d="M414 361q-2 43 -11 84.5t-24 77t-37 63t-49 42.5q-16 9 -34.5 13t-37.5 5t-37 -1.5t-31 -7.5q-21 -10 -34.5 -29.5t-15.5 -41.5q-2 -26 16 -48.5t43 -24.5q15 -1 32 8t18 23q1 21 -22 23q-5 1 -12.5 -2.5t-13.5 -3.5q-25 1 -23 27q1 16 18 24t34 6q15 -1 28 -8
t22.5 -17.5t14.5 -23.5t4 -28q-2 -18 -11 -33t-23.5 -25.5t-32.5 -16t-36 -3.5q-48 3 -79 42q-32 40 -28 85q3 44 21.5 71t49 40t70.5 14.5t86 -5.5q48 -18 84 -54.5t60 -84.5t36.5 -104.5t12.5 -113.5q0 -67 -14 -130.5t-43.5 -112.5t-76 -77t-110.5 -25q-63 -3 -105 26
t-67 81t-34.5 121t-6.5 144zM230 39q48 0 82 22.5t56.5 60t33.5 86t13 101.5h-346q0 -40 6 -87.5t23.5 -88t49 -67.5t82.5 -27z" />
    <glyph glyph-name="afii10846" unicode="&#x4d9;" horiz-adv-x="338" 
d="M143 -7q-33 6 -56 27.5t-37 49t-19.5 57t-3.5 51.5q0 16 11 23q5 3 14 5h14h193q0 25 -3 51t-12.5 47t-26 35.5t-43.5 17.5q-14 1 -28.5 0t-26.5 -4.5t-20 -11t-9 -18.5t0 -18t7 -9v-1q6 -1 9 0.5t5.5 4l4.5 4.5t6 2q10 -2 14 -9.5t3 -17.5q-1 -14 -13.5 -25.5
t-35.5 -9.5q-29 2 -41 26t-10 54q2 26 14.5 42.5t31.5 24.5t42.5 10t48.5 0q37 -3 63.5 -26t43 -57.5t23 -77t2.5 -84.5q-3 -36 -17 -66.5t-36 -53t-50.5 -34.5t-61.5 -9zM151 38q23 -2 41.5 7.5t32.5 27t22 40t10 46.5v5h-177q0 -4 -2 -12q0 -12 4.5 -30t13.5 -36t23 -31.5
t32 -16.5z" />
    <glyph glyph-name="uni04DA" unicode="&#x4da;" horiz-adv-x="498" 
d="M15 360q-3 -75 6.5 -144t34.5 -121t67 -81t105 -26q64 -3 110.5 25t76 77t43.5 112.5t14 130.5q0 57 -12.5 113.5t-36.5 104.5t-60 84.5t-84 54.5q-46 7 -86 5.5t-70.5 -14.5t-49 -40t-21.5 -71q-4 -45 28 -85q31 -39 79 -42q18 -2 36 3.5t32.5 16t23.5 25.5t11 33
q1 15 -4 28t-14.5 23.5t-22.5 17.5t-28 8q-17 2 -34 -6t-18 -24q-2 -26 23 -27q6 0 13.5 3.5t12.5 2.5q23 -2 22 -23q-1 -14 -18 -23t-32 -8q-25 2 -43 24.5t-16 48.5q2 22 15.5 41.5t34.5 29.5q13 5 31 7.5t37 1.5t37.5 -5t34.5 -13q27 -15 49 -42.5t37 -63t24 -77
t11 -84.5zM230 39q-51 0 -82.5 27t-49 67.5t-23.5 88t-6 87.5h346q-2 -53 -13 -101.5t-33.5 -86t-56.5 -60t-82 -22.5zM75 783q0 24 17.5 38.5t39.5 14.5t39 -14.5t17 -38.5q0 -23 -17 -37.5t-39 -14.5t-39.5 14.5t-17.5 37.5zM254 783q0 24 17.5 38.5t39.5 14.5t39 -14.5
t17 -38.5q0 -23 -17 -37.5t-39 -14.5t-39.5 14.5t-17.5 37.5z" />
    <glyph glyph-name="uni04DB" unicode="&#x4db;" horiz-adv-x="338" 
d="M143 -7q33 -3 61.5 9t50.5 34.5t36 53t17 66.5q4 42 -2.5 84.5t-23 77t-43 57.5t-63.5 26q-25 2 -48.5 0t-42.5 -10t-31.5 -24.5t-14.5 -42.5q-2 -30 10 -54t41 -26q23 -2 35.5 9.5t13.5 25.5q1 10 -3 17.5t-14 9.5q-4 0 -6 -2l-4.5 -4.5t-5.5 -4t-9 -0.5v1q-6 2 -7 9
t0 18t9 18.5t20 11t26.5 4.5t28.5 0q27 -3 43.5 -17.5t26 -35.5t12.5 -47t3 -51h-193h-14q-9 -2 -14 -5q-11 -7 -11 -23q-2 -22 3.5 -51.5t19.5 -57t37 -49t56 -27.5zM151 38q-18 3 -32 16.5t-23 31.5t-13.5 36t-4.5 30q2 8 2 12h177v-5q-2 -24 -10 -46.5t-22 -40t-32.5 -27
t-41.5 -7.5zM29 496q0 24 17.5 38.5t39.5 14.5t39 -14.5t17 -38.5q0 -23 -17 -37.5t-39 -14.5t-39.5 14.5t-17.5 37.5zM208 496q0 24 17.5 38.5t39.5 14.5t39 -14.5t17 -38.5q0 -23 -17 -37.5t-39 -14.5t-39.5 14.5t-17.5 37.5z" />
    <glyph glyph-name="uni04DC" unicode="&#x4dc;" horiz-adv-x="952" 
d="M209 681q16 -3 40.5 -13t48.5 -35t41.5 -70t18.5 -119q-2 -44 -7 -83h15l98 -8l29 302q2 27 29 22q12 -2 17 -11.5t5 -24t-2.5 -31.5t-3.5 -35l-23 -223l125 -2q11 65 38 144l30 68q4 5 9.5 15.5t15.5 26.5q36 59 83.5 81.5t104.5 5.5q30 -9 52.5 -29t35 -47t14 -58.5
t-10.5 -63.5q-9 -23 -26.5 -41.5t-38.5 -30t-43 -15.5t-40 2q-21 6 -38 21.5t-27.5 36t-13 43.5t6.5 45q8 25 31 37t46 4q22 -7 34 -27t7 -41q-5 -13 -12.5 -17.5t-20.5 -2.5q-7 2 -11 8.5t-6 13t-4 12t-5 6.5q-9 1 -13 -10q-3 -11 -0.5 -23.5t9 -24t16 -20.5t20.5 -12
q12 -4 24.5 -0.5t23.5 11t19.5 18t12.5 22.5q17 46 -1.5 83.5t-59.5 49.5q-27 8 -50.5 4t-45 -24t-42 -56.5t-41.5 -92.5q-24 -66 -36 -123h39q27 -3 24 -29q-4 -22 -23 -22h-47l-2 -23q-4 -86 12 -142.5t43.5 -79t51.5 -3.5q8 5 11 13.5t0 15.5q-3 6 -9 5l-12.5 -2t-13.5 0
t-11 10q-12 22 18 39q23 12 43 3t31 -30q6 -12 6 -26.5t-5 -28t-14.5 -25.5t-21.5 -19q-26 -13 -57 -6.5t-57 28.5q-15 12 -32.5 46t-25.5 91q-8 56 -1 135l-123 1l-16 -200q-2 -34 -4 -53.5t-2 -24.5l-3 -23q-8 -20 -28 -18q-10 2 -15 9t-6 23t1.5 41.5t7.5 63.5l12 184
l-115 8q-6 -30 -13 -56q-23 -79 -52.5 -130.5t-59.5 -78.5t-48 -34q-32 -13 -64 -10.5t-52 22.5q-10 10 -14.5 24t-4.5 28t5 27.5t15 23.5q17 17 40 19t40 -15q22 -24 4 -42q-8 -7 -14.5 -6t-13 4t-12 5t-9.5 -2q-5 -5 -5.5 -14t5.5 -16q16 -24 50.5 -11t70 61.5t62.5 130.5
q11 34 18 74q-8 1 -21 3q-16 3 -33 8t-30 13t-13 21q0 25 25 25q6 0 15.5 -4t12.5 -5q18 -5 32 -7q9 -2 18 -3q3 34 4 71q6 60 -9.5 102t-41 66t-57 30.5t-58.5 -4.5t-44.5 -39t-15.5 -73q1 -13 11 -24.5t23.5 -20t28 -13t23.5 -3.5q14 2 25 7t9 14q0 3 -4 10t-9.5 14
l-10 13t-5.5 9q-2 17 10.5 26t28.5 11q40 4 47 -61q2 -17 -5 -33t-19.5 -28.5t-29.5 -21.5t-35 -12q-24 -3 -48.5 4.5t-45 21.5t-34.5 34.5t-17 44.5q-4 31 6 66.5t36 64.5q13 14 30.5 23.5t37.5 14.5t41 5.5t40 -3.5zM555 792q0 24 17.5 38.5t39.5 14.5t39 -14.5t17 -38.5
q0 -23 -17 -37.5t-39 -14.5t-39.5 14.5t-17.5 37.5zM376 792q0 24 17.5 38.5t39.5 14.5t39 -14.5t17 -38.5q0 -23 -17 -37.5t-39 -14.5t-39.5 14.5t-17.5 37.5z" />
    <glyph glyph-name="uni04DE" unicode="&#x4de;" horiz-adv-x="522" 
d="M303 400q67 -19 117 -61t69.5 -97t2 -117.5t-84.5 -122.5q-45 -41 -99.5 -53.5t-106 -3.5t-94.5 36t-66.5 66t-20.5 87t43 99q18 23 43.5 35.5t54 14.5t57 -7t51.5 -28q20 -17 30.5 -38.5t12.5 -43.5t-5 -42.5t-22 -34.5q-12 -12 -29 -19.5t-34.5 -9.5t-35 2t-30.5 15
q-10 8 -16 19t-7 23t2.5 23.5t13.5 20.5q27 27 49 8q20 -18 2 -35q-2 -2 -6 -4t-5 -3l-1 -1q0 -7 7 -13q9 -8 24 -4.5t24 12.5q15 14 13 40.5t-26 47.5q-32 26 -66 19.5t-60 -32.5q-29 -29 -31.5 -61t14 -61t48 -51.5t71 -32t82 -1.5t81.5 40q31 25 47.5 53.5t22.5 56.5
t3.5 53t-10.5 44q-18 42 -49 68.5t-66.5 40t-70 15t-58.5 -6.5q-13 -5 -20 3.5t-7 21.5q0 9 6 13.5t14.5 6t18.5 2t18 2.5q37 7 67 31t43.5 55t5.5 63t-47 55q-15 9 -33 13.5t-35 3.5t-31.5 -7.5t-22.5 -17.5q-3 -5 -6 -11.5t-4 -14.5q-1 -11 3.5 -26t12.5 -15q5 1 14 3.5
t13 1.5q28 0 27 -25q-1 -16 -15.5 -25t-42.5 -4q-21 4 -34.5 15t-21 24.5t-9.5 29t-2 29.5q6 29 19 47q14 20 37.5 31t50.5 13.5t56.5 -4t55.5 -22.5q37 -22 55 -56t16 -70.5t-23.5 -69t-63.5 -51.5zM76 783q0 24 17.5 38.5t39.5 14.5t39 -14.5t17 -38.5q0 -23 -17 -37.5
t-39 -14.5t-39.5 14.5t-17.5 37.5zM255 783q0 24 17.5 38.5t39.5 14.5t39 -14.5t17 -38.5q0 -23 -17 -37.5t-39 -14.5t-39.5 14.5t-17.5 37.5z" />
    <glyph glyph-name="uni04DD" unicode="&#x4dd;" horiz-adv-x="750" 
d="M364 -104l-13 231l-3 58l-59 -3h-2q-5 -36 -16.5 -68.5t-30.5 -57t-45 -38.5t-58 -14q-25 0 -46.5 7t-37.5 20t-25 31t-9 39q0 30 17 52.5t46 22.5q23 0 33.5 -12.5t10.5 -26.5q0 -10 -5 -17.5t-15 -7.5q-4 0 -6 2t-4 4.5t-5 4.5t-9 2v-1q-12 -3 -12 -26t20 -36.5
t49 -13.5q26 0 44 11.5t29 30t17 41.5t8 47q-10 -1 -17 -1.5t-12 -0.5h-13q-20 0 -20 17q0 22 20 27l44 2v4q0 24 -5 47.5t-15.5 41.5t-26.5 29.5t-39 11.5q-46 -5 -52 -54q1 -5 1 -8.5v-7.5q0 -18 -8 -24.5t-17 -6.5q-15 0 -20 9t-5 21q0 44 27 77t73 39q33 0 58.5 -14
t43 -38t27 -55.5t9.5 -67.5v-1l57 4l-11 262q3 29 26 29q12 -1 18.5 -10t5.5 -19l11 -259l62 3q6 34 18 63.5t31 51.5t43.5 35t55.5 13q25 0 46.5 -7t37.5 -20t25 -31t9 -39q0 -30 -17 -52.5t-46 -22.5t-47.5 16t-18.5 45q0 12 3.5 19t8 10.5t10 4t9.5 0.5q19 0 19 -23v-9
q-1 0 -1 3v-3q1 -12 17 -12v1q12 3 12 26t-20 36.5t-49 13.5q-24 0 -41 -10t-28.5 -26t-17.5 -37t-9 -43l23 2q14 0 22 -2.5t8 -15.5q0 -12 -8.5 -19t-18.5 -7l-30 -2v-18q0 -25 6.5 -48.5t19.5 -41.5t31.5 -29t41.5 -11q13 0 27.5 15.5t17.5 38.5q-1 5 -1.5 8.5t-0.5 6.5
q0 19 8.5 25t17.5 6q16 0 21 -8.5t5 -21.5q0 -21 -6.5 -41t-19 -35.5t-30.5 -25.5t-40 -13q-33 0 -60 14t-47 38t-31 55.5t-11 67.5v15l-55 -3l3 -54q7 -103 10 -160t3 -68l-1 -13q-3 -19 -24 -19q-23 2 -26 22zM206 611q0 24 17.5 38.5t39.5 14.5t39 -14.5t17 -38.5
q0 -23 -17 -37.5t-39 -14.5t-39.5 14.5t-17.5 37.5zM385 611q0 24 17.5 38.5t39.5 14.5t39 -14.5t17 -38.5q0 -23 -17 -37.5t-39 -14.5t-39.5 14.5t-17.5 37.5z" />
    <glyph glyph-name="uni04DF" unicode="&#x4df;" horiz-adv-x="360" 
d="M208 237q18 2 29.5 13t18.5 24.5t10 25.5t3 17q-1 23 -16 34.5t-34 13.5q-11 1 -24.5 -1t-26 -6.5t-21.5 -11.5t-10 -17q-4 -12 -9 -23t-21 -11q-25 0 -25 25q0 8 6 25q11 30 41 48.5t63 18.5q10 0 23 -1t26 -3.5t25 -6.5t20 -11q18 -14 25.5 -33t7.5 -39
q0 -12 -1.5 -27.5t-7 -30t-17 -26t-32.5 -16.5q26 -9 40 -21t20.5 -25.5t7.5 -28.5t1 -29q0 -25 -12 -50q-19 -38 -52.5 -62t-78.5 -24q-29 0 -63.5 7.5t-56.5 23.5q-48 34 -48 91q0 35 16 58q18 28 51 28q29 0 46.5 -18.5t17.5 -47.5q0 -25 -7.5 -34t-22.5 -9q-24 0 -24 25
q0 4 1.5 8.5t1.5 8.5v4q-1 1 -1 4q-2 8 -12 8q-16 0 -16 -36q0 -35 34 -54q14 -8 39 -12t43 -4q29 0 52 16.5t34 39.5q7 14 7 29q0 26 -14 50.5t-52 32.5q-10 2 -30.5 2.5t-34.5 -1.5q-13 -5 -17 1.5t-4 19.5q0 9 9.5 12.5t22.5 4t27 0t22 1.5zM69 502q0 24 17.5 38.5
t39.5 14.5t39 -14.5t17 -38.5q0 -23 -17 -37.5t-39 -14.5t-39.5 14.5t-17.5 37.5zM248 502q0 24 17.5 38.5t39.5 14.5t39 -14.5t17 -38.5q0 -23 -17 -37.5t-39 -14.5t-39.5 14.5t-17.5 37.5z" />
    <glyph glyph-name="uni04E2" unicode="&#x4e2;" horiz-adv-x="754" 
d="M703 283l3 -182q1 -34 1.5 -53.5t-0.5 -24.5v-23q-5 -18 -26 -18q-10 0 -15.5 6t-8.5 21t-3 40t1 64v3l1 162l-7 286l-46 -102l-27 -58l-57 -115l-54 -97q-1 -2 -6 -10.5t-10 -18.5l-14 -25l-45 -65q-4 -4 -10.5 -12t-15 -17t-17.5 -17.5t-18 -14.5q-6 -12 -23 -12
q-24 0 -25 25q1 3 4.5 49t11.5 137l1 47l-5 195q1 5 -8 55q-12 66 -35 95.5t-70 29.5q-23 0 -42.5 -9.5t-34.5 -25.5t-24 -37t-10 -44q0 -14 3.5 -27t11 -23.5t18.5 -17t25 -6.5q12 0 24.5 6t23 15.5t17.5 22t7 24.5t-9 12q-4 0 -7 -5.5t-7.5 -11.5t-10 -11t-13.5 -5
q-25 1 -25 26q1 23 20.5 40t43.5 18q26 -1 43 -19.5t16 -44.5q-1 -23 -12 -44t-28 -37.5t-39 -26.5t-45 -10q-19 0 -38.5 9.5t-35.5 26.5t-25.5 40t-9.5 50q1 33 15 63.5t36.5 53t52.5 36t63 13.5t57.5 -11t42.5 -32.5t30.5 -53.5t21.5 -73l9 -71l4 -185l-2 -63l-10 -108
q12 14 20 27t22 32q3 3 4 9l5 8l47 77l90 177l29 62l78 169q8 11 16 14q6 14 25 14q13 0 18.5 -8.5t7 -22t1 -31t0.5 -35.5zM558 728l-194 5q-2 -2 -3 0h-25.5t-25.5 1q-11 0 -17 4t-9 9t-3.5 12t-0.5 13q0 13 4 16.5t17 3.5h1l144 -6h4q13 0 51.5 -0.5t104.5 -1.5
q19 -1 22 -12t3 -24q0 -20 -19 -21h-13h-17t-24 1z" />
    <glyph glyph-name="uni04E3" unicode="&#x4e3;" horiz-adv-x="430" 
d="M346 25l-3 81v2l-7 180q-38 -50 -77.5 -96l-72.5 -83l-55.5 -61t-24.5 -28q-5 -11 -14 -16t-18.5 -4.5t-17.5 6.5t-9 17l-3 81v2l-9 248q0 29 25 29q14 0 21.5 -9t6.5 -19l9 -240q0 -7 0.5 -13.5t0.5 -11.5q27 28 59 65l64 75.5l61.5 76l52.5 68.5q4 18 24 18
q14 0 21.5 -9t6.5 -19l9 -248q3 -59 3 -81v-13q-3 -19 -24 -19q-26 0 -29 21zM284 479l-138 5q-2 -2 -3 0h-25.5t-25.5 1q-11 0 -17 4t-9 9t-3.5 12t-0.5 13q0 13 4 16.5t17 3.5h1l144 -6h4h10.5t13.5 -0.5t26 -1t50 -0.5q19 -1 22 -12t3 -24q0 -20 -19 -21h-13h-17t-24 1z
" />
    <glyph glyph-name="uni04E4" unicode="&#x4e4;" horiz-adv-x="754" 
d="M703 283l3 -182q1 -34 1.5 -53.5t-0.5 -24.5v-23q-5 -18 -26 -18q-10 0 -15.5 6t-8.5 21t-3 40t1 64v3l1 162l-7 286l-46 -102l-27 -58l-57 -115l-54 -97q-1 -2 -6 -10.5t-10 -18.5l-14 -25l-45 -65q-4 -4 -10.5 -12t-15 -17t-17.5 -17.5t-18 -14.5q-6 -12 -23 -12
q-24 0 -25 25q1 3 4.5 49t11.5 137l1 47l-5 195q1 5 -8 55q-12 66 -35 95.5t-70 29.5q-23 0 -42.5 -9.5t-34.5 -25.5t-24 -37t-10 -44q0 -14 3.5 -27t11 -23.5t18.5 -17t25 -6.5q12 0 24.5 6t23 15.5t17.5 22t7 24.5t-9 12q-4 0 -7 -5.5t-7.5 -11.5t-10 -11t-13.5 -5
q-25 1 -25 26q1 23 20.5 40t43.5 18q26 -1 43 -19.5t16 -44.5q-1 -23 -12 -44t-28 -37.5t-39 -26.5t-45 -10q-19 0 -38.5 9.5t-35.5 26.5t-25.5 40t-9.5 50q1 33 15 63.5t36.5 53t52.5 36t63 13.5t57.5 -11t42.5 -32.5t30.5 -53.5t21.5 -73l9 -71l4 -185l-2 -63l-10 -108
q12 14 20 27t22 32q3 3 4 9l5 8l47 77l90 177l29 62l78 169q8 11 16 14q6 14 25 14q13 0 18.5 -8.5t7 -22t1 -31t0.5 -35.5zM324 782q0 24 17.5 38.5t39.5 14.5t39 -14.5t17 -38.5q0 -23 -17 -37.5t-39 -14.5t-39.5 14.5t-17.5 37.5zM503 782q0 24 17.5 38.5t39.5 14.5
t39 -14.5t17 -38.5q0 -23 -17 -37.5t-39 -14.5t-39.5 14.5t-17.5 37.5z" />
    <glyph glyph-name="uni04E5" unicode="&#x4e5;" horiz-adv-x="430" 
d="M346 25l-3 81v2l-7 180q-38 -50 -77.5 -96l-72.5 -83l-55.5 -61t-24.5 -28q-5 -11 -14 -16t-18.5 -4.5t-17.5 6.5t-9 17l-3 81v2l-9 248q0 29 25 29q14 0 21.5 -9t6.5 -19l9 -240q0 -7 0.5 -13.5t0.5 -11.5q27 28 59 65l64 75.5l61.5 76l52.5 68.5q4 18 24 18
q14 0 21.5 -9t6.5 -19l9 -248q3 -59 3 -81v-13q-3 -19 -24 -19q-26 0 -29 21zM70 502q0 24 17.5 38.5t39.5 14.5t39 -14.5t17 -38.5q0 -23 -17 -37.5t-39 -14.5t-39.5 14.5t-17.5 37.5zM249 502q0 24 17.5 38.5t39.5 14.5t39 -14.5t17 -38.5q0 -23 -17 -37.5t-39 -14.5
t-39.5 14.5t-17.5 37.5z" />
    <glyph glyph-name="uni04E6" unicode="&#x4e6;" horiz-adv-x="641" 
d="M22 335q0 130 84 233q89 109 212 109q122 0 210 -110q83 -104 83 -232q0 -129 -84 -234q-88 -110 -210 -110q-123 0 -211 110q-84 104 -84 234zM73 336q0 -108 67 -197q71 -95 172 -97q103 -2 178 93q70 89 70 198q0 110 -68 199q-73 95 -177 95q-100 0 -173 -95
q-69 -89 -69 -196zM163 780q0 24 17.5 38.5t39.5 14.5t39 -14.5t17 -38.5q0 -23 -17 -37.5t-39 -14.5t-39.5 14.5t-17.5 37.5zM342 780q0 24 17.5 38.5t39.5 14.5t39 -14.5t17 -38.5q0 -23 -17 -37.5t-39 -14.5t-39.5 14.5t-17.5 37.5z" />
    <glyph glyph-name="uni04E8" unicode="&#x4e8;" horiz-adv-x="641" 
d="M22 335q0 130 84 233q89 109 212 109q122 0 210 -110q83 -104 83 -232q0 -129 -84 -234q-88 -110 -210 -110q-123 0 -211 110q-84 104 -84 234zM140 139q71 -95 172 -97q103 -2 178 93q66 83 70 185h-487q5 -99 67 -181zM492 532q-73 95 -177 95q-100 0 -173 -95
q-59 -76 -68 -164h484q-9 89 -66 164z" />
    <glyph glyph-name="uni04E7" unicode="&#x4e7;" horiz-adv-x="474" 
d="M25 204q0 89 58 142.5t154 53.5q95 0 153 -54t58 -144t-63 -148t-160 -58q-93 0 -146.5 58t-53.5 150zM76 203q0 -70 39 -113t111 -43q74 0 122.5 43.5t48.5 111.5q0 60 -47.5 103.5t-108.5 43.5q-76 0 -120.5 -38t-44.5 -108zM91 502q0 24 17.5 38.5t39.5 14.5t39 -14.5
t17 -38.5q0 -23 -17 -37.5t-39 -14.5t-39.5 14.5t-17.5 37.5zM270 502q0 24 17.5 38.5t39.5 14.5t39 -14.5t17 -38.5q0 -23 -17 -37.5t-39 -14.5t-39.5 14.5t-17.5 37.5z" />
    <glyph glyph-name="uni04E9" unicode="&#x4e9;" horiz-adv-x="474" 
d="M25 204q0 89 58 142.5t154 53.5q95 0 153 -54t58 -144t-63 -148t-160 -58q-93 0 -146.5 58t-53.5 150zM115 90q39 -43 111 -43q74 0 122 43q43 39 48 96h-320q5 -59 39 -96zM349 305q-47 44 -108 44q-76 0 -121 -38q-34 -29 -42 -77h315q-9 40 -44 71z" />
    <glyph glyph-name="uni04EA" unicode="&#x4ea;" horiz-adv-x="641" 
d="M22 335q0 130 84 233q89 109 212 109q122 0 210 -110q83 -104 83 -232q0 -129 -84 -234q-88 -110 -210 -110q-123 0 -211 110q-84 104 -84 234zM140 139q71 -95 172 -97q103 -2 178 93q66 83 70 185h-487q5 -99 67 -181zM492 532q-73 95 -177 95q-100 0 -173 -95
q-59 -76 -68 -164h484q-9 89 -66 164zM164 780q0 24 17.5 38.5t39.5 14.5t39 -14.5t17 -38.5q0 -23 -17 -37.5t-39 -14.5t-39.5 14.5t-17.5 37.5zM343 780q0 24 17.5 38.5t39.5 14.5t39 -14.5t17 -38.5q0 -23 -17 -37.5t-39 -14.5t-39.5 14.5t-17.5 37.5z" />
    <glyph glyph-name="uni04EB" unicode="&#x4eb;" horiz-adv-x="474" 
d="M25 204q0 89 58 142.5t154 53.5q95 0 153 -54t58 -144t-63 -148t-160 -58q-93 0 -146.5 58t-53.5 150zM115 90q39 -43 111 -43q74 0 122 43q43 39 48 96h-320q5 -59 39 -96zM349 305q-47 44 -108 44q-76 0 -121 -38q-34 -29 -42 -77h315q-9 40 -44 71zM91 502
q0 24 17.5 38.5t39.5 14.5t39 -14.5t17 -38.5q0 -23 -17 -37.5t-39 -14.5t-39.5 14.5t-17.5 37.5zM270 502q0 24 17.5 38.5t39.5 14.5t39 -14.5t17 -38.5q0 -23 -17 -37.5t-39 -14.5t-39.5 14.5t-17.5 37.5z" />
    <glyph glyph-name="uni04EC" unicode="&#x4ec;" horiz-adv-x="498" 
d="M153 637q13 5 31 7.5t37 1.5t37.5 -5t34.5 -13q27 -15 49 -42.5t37 -63t24 -77t11 -84.5q-54 0 -97 1h-128q-20 -7 -20 -25q0 -22 20 -25l225 -3q-2 -53 -15 -101.5t-37 -86t-59.5 -60t-83.5 -22.5q-102 7 -135 78q-9 21 -12 38q-1 7 -1.5 17.5t-2.5 20t-6.5 16.5
t-14.5 7q-26 2 -28 -24q-2 -29 7 -63q16 -64 71 -102q25 -17 55 -27t65 -12q59 -3 104.5 21.5t77.5 67t50 99t22 118t-6 124t-34 116.5t-62 95t-90 61q-46 7 -86 5.5t-70.5 -14.5t-49 -40t-21.5 -71q-4 -45 28 -85q31 -39 79 -42q18 -2 36 3.5t32.5 16t23.5 25.5t11 33
q1 15 -4 28t-14.5 23.5t-22.5 17.5t-28 8q-17 2 -34 -6t-18 -24q-2 -26 23 -27q6 0 13.5 3.5t12.5 2.5q23 -2 22 -23q-1 -14 -18 -23t-32 -8q-25 2 -43 24.5t-16 48.5q2 22 15.5 41.5t34.5 29.5zM76 780q0 24 17.5 38.5t39.5 14.5t39 -14.5t17 -38.5q0 -23 -17 -37.5
t-39 -14.5t-39.5 14.5t-17.5 37.5zM255 780q0 24 17.5 38.5t39.5 14.5t39 -14.5t17 -38.5q0 -23 -17 -37.5t-39 -14.5t-39.5 14.5t-17.5 37.5z" />
    <glyph glyph-name="uni04ED" unicode="&#x4ed;" horiz-adv-x="328" 
d="M169 401q33 0 58.5 -14t43 -38t27 -55.5t9.5 -67.5q0 -43 -10 -84.5t-29.5 -74.5t-48 -53.5t-65.5 -20.5q-25 0 -49 5.5t-43.5 17t-31 30t-11.5 44.5q1 30 16.5 52.5t44.5 22.5q23 0 34.5 -12.5t11.5 -26.5q0 -10 -5 -17.5t-15 -7.5q-4 0 -6 2t-4 4.5t-5 4.5t-9 2v-1
q-12 -3 -12 -26q0 -12 8 -21t20.5 -15.5t28 -10t29.5 -3.5q20 0 37.5 13.5t30.5 35t20.5 48t9.5 52.5l-17 -2q-29 -3 -49.5 -3h-31.5h-13q-9 1 -14.5 4.5t-4.5 13.5q0 23 20 26l112 3q0 24 -5 47t-15.5 41t-27 29t-38.5 11q-38 -2 -55.5 -16.5t-20.5 -37.5q1 -5 1 -8.5v-7.5
q0 -18 -8 -24.5t-17 -6.5q-15 0 -20 9t-5 21q0 22 7 41.5t22 35.5t38.5 26t56.5 13zM221 502q0 24 17.5 38.5t39.5 14.5t39 -14.5t17 -38.5q0 -23 -17 -37.5t-39 -14.5t-39.5 14.5t-17.5 37.5zM42 502q0 24 17.5 38.5t39.5 14.5t39 -14.5t17 -38.5q0 -23 -17 -37.5
t-39 -14.5t-39.5 14.5t-17.5 37.5z" />
    <glyph glyph-name="uni04EF" unicode="&#x4ef;" horiz-adv-x="527" 
d="M130 -220q0 95 71 138q23 14 52 14q42 0 70 -39q24 -35 24 -80q0 -29 -21.5 -50.5t-50.5 -21.5q-44 0 -62 40q-5 15 -5 19q0 25 25 25q17 0 24 -16.5t16 -16.5q22 0 22 23t-10 42q-13 24 -33 24q-14 0 -30 -10q-42 -26 -42 -95q0 -77 60 -124q26 -20 53 -20q30 0 56 27
q23 24 33 56q7 23 11 51q8 59 8 61v1l10 135q0 4 2 44t2 44q1 22 1 41v3q-53 -97 -134 -97q-28 0 -55 10q-81 30 -81 121q0 13 2 32l13 123q1 10 1 27t-28 17q-21 0 -36 -24q-6 -10 -12.5 -18.5t-18.5 -8.5q-25 0 -25 24q0 9 15 34q32 44 78 44q64 0 76 -62q1 -5 1 -25v-13
l-14 -135q-1 -12 -1 -42.5t47 -45.5q22 -7 39 -7q70 0 106 119q9 29 23 140q5 39 5 67q3 22 26 22q20 0 25 -22v-216q0 -65 -4 -165q0 -1 -1.5 -10t-1.5 -46v-1l-6 -76l-13 -113q-3 -16 -9 -41q-13 -50 -50 -87q-41 -39 -90 -39q-41 0 -80 27q-83 57 -83 172zM381 479
l-138 5q-2 -2 -3 0h-25.5t-25.5 1q-11 0 -17 4t-9 9t-3.5 12t-0.5 13q0 13 4 16.5t17 3.5h1l144 -6h4h10.5t13.5 -0.5t26 -1t50 -0.5q19 -1 22 -12t3 -24q0 -20 -19 -21h-13h-17t-24 1z" />
    <glyph glyph-name="uni04F1" unicode="&#x4f1;" horiz-adv-x="527" 
d="M130 -220q0 95 71 138q23 14 52 14q42 0 70 -39q24 -35 24 -80q0 -29 -21.5 -50.5t-50.5 -21.5q-44 0 -62 40q-5 15 -5 19q0 25 25 25q17 0 24 -16.5t16 -16.5q22 0 22 23t-10 42q-13 24 -33 24q-14 0 -30 -10q-42 -26 -42 -95q0 -77 60 -124q26 -20 53 -20q30 0 56 27
q23 24 33 56q7 23 11 51q8 59 8 61v1l10 135q0 4 2 44t2 44q1 22 1 41v3q-53 -97 -134 -97q-28 0 -55 10q-81 30 -81 121q0 13 2 32l13 123q1 10 1 27t-28 17q-21 0 -36 -24q-6 -10 -12.5 -18.5t-18.5 -8.5q-25 0 -25 24q0 9 15 34q32 44 78 44q64 0 76 -62q1 -5 1 -25v-13
l-14 -135q-1 -12 -1 -42.5t47 -45.5q22 -7 39 -7q70 0 106 119q9 29 23 140q5 39 5 67q3 22 26 22q20 0 25 -22v-216q0 -65 -4 -165q0 -1 -1.5 -10t-1.5 -46v-1l-6 -76l-13 -113q-3 -16 -9 -41q-13 -50 -50 -87q-41 -39 -90 -39q-41 0 -80 27q-83 57 -83 172zM155 502
q0 24 17.5 38.5t39.5 14.5t39 -14.5t17 -38.5q0 -23 -17 -37.5t-39 -14.5t-39.5 14.5t-17.5 37.5zM334 502q0 24 17.5 38.5t39.5 14.5t39 -14.5t17 -38.5q0 -23 -17 -37.5t-39 -14.5t-39.5 14.5t-17.5 37.5z" />
    <glyph glyph-name="uni04F3" unicode="&#x4f3;" horiz-adv-x="527" 
d="M130 -220q0 95 71 138q23 14 52 14q42 0 70 -39q24 -35 24 -80q0 -29 -21.5 -50.5t-50.5 -21.5q-44 0 -62 40q-5 15 -5 19q0 25 25 25q17 0 24 -16.5t16 -16.5q22 0 22 23t-10 42q-13 24 -33 24q-14 0 -30 -10q-42 -26 -42 -95q0 -77 60 -124q26 -20 53 -20q30 0 56 27
q23 24 33 56q7 23 11 51q8 59 8 61v1l10 135q0 4 2 44t2 44q1 22 1 41v3q-53 -97 -134 -97q-28 0 -55 10q-81 30 -81 121q0 13 2 32l13 123q1 10 1 27t-28 17q-21 0 -36 -24q-6 -10 -12.5 -18.5t-18.5 -8.5q-25 0 -25 24q0 9 15 34q32 44 78 44q64 0 76 -62q1 -5 1 -25v-13
l-14 -135q-1 -12 -1 -42.5t47 -45.5q22 -7 39 -7q70 0 106 119q9 29 23 140q5 39 5 67q3 22 26 22q20 0 25 -22v-216q0 -65 -4 -165q0 -1 -1.5 -10t-1.5 -46v-1l-6 -76l-13 -113q-3 -16 -9 -41q-13 -50 -50 -87q-41 -39 -90 -39q-41 0 -80 27q-83 57 -83 172zM276 529
l-43 -55v-2l-12 -16t-13 -16q-11 -14 -24.5 -7t-26.5 16q-7 5 -9 8.5t-1 6.5t3.5 6.5l5.5 7.5l1 1l46 58l2 2q3 4 5 7t6.5 8.5t12 16.5l22.5 32q9 11 16 5t21 -16q11 -9 14 -15t-1 -14l-5 -8q-4 -5 -8.5 -11.5t-11.5 -14.5zM450 531l-43 -55v-2l-12 -16t-13 -16
q-11 -14 -24.5 -7t-26.5 16q-7 5 -9 8.5t-1 6.5t3.5 6.5l5.5 7.5l1 1l46 58l2 2q3 4 5 7t6.5 8.5t12 16.5l22.5 32q9 11 16 5t21 -16q11 -9 14 -15t-1 -14l-5 -8q-4 -5 -8.5 -11.5t-11.5 -14.5z" />
    <glyph glyph-name="uni04EE" unicode="&#x4ee;" 
d="M227 -164q0 74 41 131q45 64 115 64q46 0 76.5 -27.5t30.5 -72.5q0 -41 -25 -68t-65 -27q-27 0 -49 17t-22 44q0 16 12.5 33t28.5 17q25 0 25 -25q0 -10 -14 -24v-3l5 -5t14 -3q39 0 39 44q0 49 -54 49q-49 0 -81 -49q-27 -42 -27 -95q0 -98 106 -98q92 0 162 75
q20 21 26 44q2 6 6 24l12 164v57v70q-74 -66 -163 -66q-96 0 -138 59q-16 22 -23 63q-4 22 -4 29l-3 280q0 16 -3 28q-9 38 -40 47q-17 5 -38 5q-67 0 -95 -65q-5 -11 -5 -23q0 -17 9.5 -33t26.5 -16q25 0 31 20v7q0 12 -10.5 21.5t-10.5 19.5q0 26 25 26q21 0 35 -24
q12 -20 12 -43q0 -33 -24.5 -55.5t-58.5 -22.5q-37 0 -61.5 31t-24.5 69q0 22 13 51q18 41 56 64.5t83 23.5q22 0 51 -8q51 -14 69 -62q12 -31 13 -98v-178q3 -61 9 -88q13 -51 46 -66q28 -13 60 -12q100 3 151 83q11 17 11 21v82l-6 163v3l-6 135v6q0 28 25 28q22 0 26 -26
q2 -38 5 -115q1 -9 1 -19v-1l4 -134q0 -6 1.5 -80.5t1.5 -80.5v-154l-7 -149q-1 -24 -6 -43q-5 -33 -13 -50q-31 -62 -95.5 -100t-136.5 -38q-73 0 -114 39t-41 110zM523 740l-194 5q-2 -2 -3 0h-25.5t-25.5 1q-11 0 -17 4t-9 9t-3.5 12t-0.5 13q0 13 4 16.5t17 3.5h1
l144 -6h4q13 0 51.5 -0.5t104.5 -1.5q19 -1 22 -12t3 -24q0 -20 -19 -21h-13h-17t-24 1z" />
    <glyph glyph-name="uni04F0" unicode="&#x4f0;" 
d="M227 -164q0 74 41 131q45 64 115 64q46 0 76.5 -27.5t30.5 -72.5q0 -41 -25 -68t-65 -27q-27 0 -49 17t-22 44q0 16 12.5 33t28.5 17q25 0 25 -25q0 -10 -14 -24v-3l5 -5t14 -3q39 0 39 44q0 49 -54 49q-49 0 -81 -49q-27 -42 -27 -95q0 -98 106 -98q92 0 162 75
q20 21 26 44q2 6 6 24l12 164v57v70q-74 -66 -163 -66q-96 0 -138 59q-16 22 -23 63q-4 22 -4 29l-3 280q0 16 -3 28q-9 38 -40 47q-17 5 -38 5q-67 0 -95 -65q-5 -11 -5 -23q0 -17 9.5 -33t26.5 -16q25 0 31 20v7q0 12 -10.5 21.5t-10.5 19.5q0 26 25 26q21 0 35 -24
q12 -20 12 -43q0 -33 -24.5 -55.5t-58.5 -22.5q-37 0 -61.5 31t-24.5 69q0 22 13 51q18 41 56 64.5t83 23.5q22 0 51 -8q51 -14 69 -62q12 -31 13 -98v-178q3 -61 9 -88q13 -51 46 -66q28 -13 60 -12q100 3 151 83q11 17 11 21v82l-6 163v3l-6 135v6q0 28 25 28q22 0 26 -26
q2 -38 5 -115q1 -9 1 -19v-1l4 -134q0 -6 1.5 -80.5t1.5 -80.5v-154l-7 -149q-1 -24 -6 -43q-5 -33 -13 -50q-31 -62 -95.5 -100t-136.5 -38q-73 0 -114 39t-41 110zM273 778q0 24 17.5 38.5t39.5 14.5t39 -14.5t17 -38.5q0 -23 -17 -37.5t-39 -14.5t-39.5 14.5t-17.5 37.5z
M452 778q0 24 17.5 38.5t39.5 14.5t39 -14.5t17 -38.5q0 -23 -17 -37.5t-39 -14.5t-39.5 14.5t-17.5 37.5z" />
    <glyph glyph-name="uni04F2" unicode="&#x4f2;" 
d="M227 -164q0 74 41 131q45 64 115 64q46 0 76.5 -27.5t30.5 -72.5q0 -41 -25 -68t-65 -27q-27 0 -49 17t-22 44q0 16 12.5 33t28.5 17q25 0 25 -25q0 -10 -14 -24v-3l5 -5t14 -3q39 0 39 44q0 49 -54 49q-49 0 -81 -49q-27 -42 -27 -95q0 -98 106 -98q92 0 162 75
q20 21 26 44q2 6 6 24l12 164v57v70q-74 -66 -163 -66q-96 0 -138 59q-16 22 -23 63q-4 22 -4 29l-3 280q0 16 -3 28q-9 38 -40 47q-17 5 -38 5q-67 0 -95 -65q-5 -11 -5 -23q0 -17 9.5 -33t26.5 -16q25 0 31 20v7q0 12 -10.5 21.5t-10.5 19.5q0 26 25 26q21 0 35 -24
q12 -20 12 -43q0 -33 -24.5 -55.5t-58.5 -22.5q-37 0 -61.5 31t-24.5 69q0 22 13 51q18 41 56 64.5t83 23.5q22 0 51 -8q51 -14 69 -62q12 -31 13 -98v-178q3 -61 9 -88q13 -51 46 -66q28 -13 60 -12q100 3 151 83q11 17 11 21v82l-6 163v3l-6 135v6q0 28 25 28q22 0 26 -26
q2 -38 5 -115q1 -9 1 -19v-1l4 -134q0 -6 1.5 -80.5t1.5 -80.5v-154l-7 -149q-1 -24 -6 -43q-5 -33 -13 -50q-31 -62 -95.5 -100t-136.5 -38q-73 0 -114 39t-41 110zM410 803l-58 -55q0 -2 -1 -2l-16 -16t-17 -16q-14 -14 -26 -7t-23 16q-11 10 -11.5 15.5t7.5 13.5l1 1
l62 58l2 2l7 7l8.5 8.5l16.5 16.5l31 32q12 11 23 5t22 -16q9 -9 10 -15t-4 -14l-8 -8l-11 -11.5t-15 -14.5zM596 806l-57 -55q0 -2 -2 -2l-16 -16t-17 -16q-14 -14 -26 -7t-23 16q-11 10 -11 15.5t8 13.5v1l62 58l3 2q4 4 6.5 7t8 8.5l16.5 16.5l31 32q13 11 24 5t22 -16
q8 -9 9 -15t-4 -14l-8 -8l-11 -11.5t-15 -14.5z" />
    <glyph glyph-name="uni04F8" unicode="&#x4f8;" horiz-adv-x="1011" 
d="M233 5l-153 -10q-21 -2 -24 23q-3 23 21 28q25 2 33 2.5t13.5 1l16.5 1.5l43 4l3 397q-1 42 -1 86t-1 92q-8 -1 -13 -1h-6l-114 -11q-21 -2 -24 23q-3 23 21 28q29 2 56.5 5t59 7t70.5 8l91 9h7q7 3 8 2h1q25 4 28 -22q1 -12 -1.5 -18t-8.5 -8.5t-14 -3t-17 -1.5
q-4 0 -5 -0.5t-2.5 -1.5t-4.5 -1.5t-11 -1.5q-7 0 -17 -1t-19.5 -2.5t-18 -2.5t-13.5 -2v-5v-68.5t-0.5 -81.5t-0.5 -82.5v-73.5v-215q-1 -13 0 -47l-1 -3q25 -2 60 0.5t71.5 8.5t71 14.5t58.5 19.5q43 17 61.5 55.5t18.5 82t-15.5 83.5t-40.5 61q-12 10 -30.5 18.5t-40 13
t-46.5 2.5t-50 -13q-13 -5 -19 -20.5t-9 -31.5q-6 -33 11 -53q11 -12 29.5 -17t30.5 6q13 10 13 41q2 13 3.5 21t6.5 12q21 18 39 -4q7 -11 7 -33q-1 -52 -33 -79q-15 -12 -33 -16.5t-37 -1.5t-36 12t-30 23q-32 39 -25 94q10 55 49 85q81 34 151 16.5t121 -71.5
q12 -13 20.5 -36.5t14 -50t7 -53t0.5 -44.5q-6 -59 -54 -105q-22 -23 -47.5 -38.5t-54.5 -23.5q-49 -15 -57 -13l-100 -14l-46 -3h-42v-1zM780 640q5 -392 5 -571v-15q-2 0 -18.5 -1t-19.5 -1l-88 -5q-21 -1 -21 -26q0 -23 25 -25q67 5 275 11h7q7 -1 8 -1h1q25 0 25 26
q0 24 -13.5 25t-31.5 1q-15 0 -45.5 -1t-46.5 -1h-5q-4 320 -4 581l3 1q16 0 46.5 -1t45.5 -1q18 0 31.5 1t13.5 25q0 26 -25 26h-1q-1 0 -8 -1h-7q-208 6 -275 11q-25 -2 -25 -25q0 -25 21 -26l88 -5q3 0 19.5 -1t18.5 -1h1zM352 792q0 24 17.5 38.5t39.5 14.5t39 -14.5
t17 -38.5q0 -23 -17 -37.5t-39 -14.5t-39.5 14.5t-17.5 37.5zM531 792q0 24 17.5 38.5t39.5 14.5t39 -14.5t17 -38.5q0 -23 -17 -37.5t-39 -14.5t-39.5 14.5t-17.5 37.5z" />
    <glyph glyph-name="uni04F9" unicode="&#x4f9;" horiz-adv-x="488" 
d="M405 17l-3 81v2l-18 253q0 26 25 26q11 0 18.5 -7.5t6.5 -17.5l18 -245q3 -58 3 -81v-13q-3 -19 -24 -19q-23 0 -26 21zM193 175q10 11 14.5 6.5l9.5 -9.5q4 -4 2 -10.5t-8 -12.5t-14 -10.5t-16 -4.5q-12 -4 -26 -0.5t-25.5 13.5t-17 25.5t-1.5 35.5q6 30 27 44.5
t47.5 17.5t52.5 -3t43 -16q25 -16 37 -39t15 -47.5t0 -47.5t-7 -39q-3 -15 -14 -29.5t-26 -26.5t-34 -20t-38 -10q-17 -2 -26 -2h-11q-50 -2 -80 16.5t-45.5 50t-18.5 73.5t1.5 88t14.5 93t20 88l2 6q2 5 15 6t20 -1q20 -5 15 -23q-16 -42 -25.5 -98.5t-10.5 -110.5
q0 -26 2.5 -50t12.5 -44t28.5 -34.5t48.5 -19.5q48 0 70.5 22t30.5 56q3 13 5 28t-1 29.5t-11.5 28t-25.5 23.5q-16 9 -31 11t-27.5 -1t-21 -9.5t-11.5 -15.5q-6 -19 5.5 -28.5t33.5 1.5zM103 508q0 24 17.5 38.5t39.5 14.5t39 -14.5t17 -38.5q0 -23 -17 -37.5t-39 -14.5
t-39.5 14.5t-17.5 37.5zM282 508q0 24 17.5 38.5t39.5 14.5t39 -14.5t17 -38.5q0 -23 -17 -37.5t-39 -14.5t-39.5 14.5t-17.5 37.5z" />
    <glyph glyph-name="j" unicode="j" horiz-adv-x="198" 
d="M-231 -220q0 59 38 102t97 43q42 0 71.5 -25t29.5 -67q0 -37 -20.5 -63t-57.5 -26q-31 0 -54.5 19t-23.5 49t25 30q22 0 24 -20q1 -1 1 -12q2 -16 28 -16q27 0 27 39q0 41 -50 41q-37 0 -60.5 -28t-23.5 -66q0 -45 29 -78t74 -33q24 0 51 11q17 6 47 24q39 35 56 118
q6 28 8 52q4 40 4 61v95l-20 214l-1 1q0 25 27 25q22 0 24 -21l20 -189q0 -1 1 -20t1 -25v-67q-2 -34 -6 -80q-17 -152 -84 -205q-57 -45 -129 -45q-65 0 -109 48.5t-44 113.5zM41 411q0 27 18 46.5t45 19.5t45 -19.5t18 -46.5t-18 -46.5t-45 -19.5t-45 19.5t-18 46.5z" />
    <glyph glyph-name="o" unicode="o" horiz-adv-x="474" 
d="M25 204q0 89 58 142.5t154 53.5q95 0 153 -54t58 -144t-63 -148t-160 -58q-93 0 -146.5 58t-53.5 150zM76 203q0 -70 39 -113t111 -43q74 0 122.5 43.5t48.5 111.5q0 60 -47.5 103.5t-108.5 43.5q-76 0 -120.5 -38t-44.5 -108z" />
    <glyph glyph-name="uni0499" unicode="&#x499;" horiz-adv-x="360" 
d="M208 237q18 2 29.5 13t18.5 24.5t10 25.5t3 17q-1 23 -16 34.5t-34 13.5q-11 1 -24.5 -1t-26 -6.5t-21.5 -11.5t-10 -17q-4 -12 -9 -23t-21 -11q-25 0 -25 25q0 8 6 25q11 30 41 48.5t63 18.5q10 0 23 -1t26 -3.5t25 -6.5t20 -11q18 -14 25.5 -33t7.5 -39
q0 -12 -1.5 -27.5t-7 -30t-17 -26t-32.5 -16.5q26 -9 40 -21t20.5 -25.5t7.5 -28.5t1 -29q0 -25 -12 -50q-17 -35 -47.5 -58t-69.5 -27l-18.5 -27t-15.5 -26q-8 -17 -8 -32t7 -23q6 -8 11 -9q10 -6 25 1l27 20t27 4q23 -11 12 -34q-2 -5 -6 -8.5t-9 -8.5q-56 -43 -98 -20
q-35 17 -43 52t10 73l11 18.5t14 21.5q-23 4 -44 10.5t-36 17.5q-48 34 -48 91q0 35 16 58q18 28 51 28q29 0 46.5 -18.5t17.5 -47.5q0 -25 -7.5 -34t-22.5 -9q-24 0 -24 25q0 4 1.5 8.5t1.5 8.5v4q-1 1 -1 4q-2 8 -12 8q-16 0 -16 -36q0 -35 34 -54q14 -8 39 -12t43 -4
q29 0 52 16.5t34 39.5q7 14 7 29q0 26 -14 50.5t-52 32.5q-10 2 -30.5 2.5t-34.5 -1.5q-13 -5 -17 1.5t-4 19.5q0 9 9.5 12.5t22.5 4t27 0t22 1.5z" />
    <glyph glyph-name="uni0498" unicode="&#x498;" horiz-adv-x="522" 
d="M303 400q67 -19 117 -61t69.5 -97t2 -117.5t-84.5 -122.5q-26 -23 -55.5 -37t-60.5 -19q-10 -13 -22 -31t-20 -33q-8 -17 -8 -32t7 -23q6 -8 11 -9q10 -6 25 1l27 20t27 4q23 -11 12 -34q-2 -5 -6 -8.5t-9 -8.5q-56 -43 -98 -20q-35 17 -43 52t10 73l12.5 20l15.5 25
q-57 3 -106.5 28t-78 65.5t-28 91.5t43.5 106q18 23 43.5 35.5t54 14.5t57 -7t51.5 -28q20 -17 30.5 -38.5t12.5 -43.5t-5 -42.5t-22 -34.5q-12 -12 -29 -19.5t-34.5 -9.5t-35 2t-30.5 15q-10 8 -16 19t-7 23t2.5 23.5t13.5 20.5q27 27 49 8q20 -18 2 -35q-2 -2 -6 -4t-5 -3
l-1 -1q0 -7 7 -13q9 -8 24 -4.5t24 12.5q15 14 13 40.5t-26 47.5q-32 26 -66 19.5t-60 -32.5q-29 -29 -31.5 -61t14 -61t48 -51.5t71 -32t82 -1.5t81.5 40q31 25 47.5 53.5t22.5 56.5t3.5 53t-10.5 44q-18 42 -49 68.5t-66.5 40t-70 15t-58.5 -6.5q-13 -5 -20 3.5t-7 21.5
q0 9 6 13.5t14.5 6t18.5 2t18 2.5q37 7 67 31t43.5 55t5.5 63t-47 55q-15 9 -33 13.5t-35 3.5t-31.5 -7.5t-22.5 -17.5q-3 -5 -6 -11.5t-4 -14.5q-1 -11 3.5 -26t12.5 -15q5 1 14 3.5t13 1.5q28 0 27 -25q-1 -16 -15.5 -25t-42.5 -4q-21 4 -34.5 15t-21 24.5t-9.5 29
t-2 29.5q6 29 19 47q14 20 37.5 31t50.5 13.5t56.5 -4t55.5 -22.5q37 -22 55 -56t16 -70.5t-23.5 -69t-63.5 -51.5z" />
    <glyph glyph-name="uni0497" unicode="&#x497;" horiz-adv-x="750" 
d="M364 -104l-13 231l-3 58l-59 -3h-2q-5 -36 -16.5 -68.5t-30.5 -57t-45 -38.5t-58 -14q-25 0 -46.5 7t-37.5 20t-25 31t-9 39q0 30 17 52.5t46 22.5q23 0 33.5 -12.5t10.5 -26.5q0 -10 -5 -17.5t-15 -7.5q-4 0 -6 2t-4 4.5t-5 4.5t-9 2v-1q-12 -3 -12 -26t20 -36.5
t49 -13.5q26 0 44 11.5t29 30t17 41.5t8 47q-10 -1 -17 -1.5t-12 -0.5h-13q-20 0 -20 17q0 22 20 27l44 2v4q0 24 -5 47.5t-15.5 41.5t-26.5 29.5t-39 11.5q-46 -5 -52 -54q1 -5 1 -8.5v-7.5q0 -18 -8 -24.5t-17 -6.5q-15 0 -20 9t-5 21q0 44 27 77t73 39q33 0 58.5 -14
t43 -38t27 -55.5t9.5 -67.5v-1l57 4l-11 262q3 29 26 29q12 -1 18.5 -10t5.5 -19l11 -259l62 3q6 34 18 63.5t31 51.5t43.5 35t55.5 13q25 0 46.5 -7t37.5 -20t25 -31t9 -39q0 -30 -17 -52.5t-46 -22.5t-47.5 16t-18.5 45q0 12 3.5 19t8 10.5t10 4t9.5 0.5q19 0 19 -23v-9
q-1 0 -1 3v-3q1 -12 17 -12v1q12 3 12 26t-20 36.5t-49 13.5q-24 0 -41 -10t-28.5 -26t-17.5 -37t-9 -43l23 2q14 0 22 -2.5t8 -15.5q0 -12 -8.5 -19t-18.5 -7l-30 -2v-18q0 -25 6.5 -48.5t19.5 -41.5t31.5 -29t41.5 -11q13 0 27.5 15.5t17.5 38.5q-1 5 -1.5 8.5t-0.5 6.5
q0 19 8.5 25t17.5 6q16 0 21 -8.5t5 -21.5q0 -41 -23 -72q21 -91 13.5 -150t-38.5 -86q-18 -15 -40 -21.5t-43 -5.5t-39.5 8t-30.5 19q-14 13 -20.5 30.5t-6.5 36t7 36t22 29.5q23 19 50.5 14.5t46.5 -27.5q15 -18 10.5 -29.5t-9.5 -20.5q-5 -10 -15.5 -8t-18.5 12
q-4 4 -3.5 6t1 3t0.5 3t-4 7q-8 10 -14 10.5t-12 -4.5q-10 -11 -14.5 -30.5t10.5 -37.5q9 -11 21.5 -14.5t27 -1.5t28 8t24.5 15q10 9 15 30t6 45.5t-2.5 49.5t-10.5 41q-8 -4 -16.5 -6.5t-17.5 -3.5q-33 0 -60 14t-47 38t-31 55.5t-11 67.5v15l-55 -3l3 -54q7 -103 10 -160
t3 -68l-1 -13q-3 -19 -24 -19q-23 2 -26 22z" />
    <glyph glyph-name="uni0496" unicode="&#x496;" horiz-adv-x="932" 
d="M209 681q16 -3 40.5 -13t48.5 -35t41.5 -70t18.5 -119q-2 -22 -3.5 -42t-3.5 -40q4 0 7 -0.5t8 -0.5l98 -8l29 302q2 27 29 22q12 -2 17 -11.5t5 -24t-2.5 -31.5t-3.5 -35l-23 -223l126 -2q6 32 14.5 68t22.5 76l30 68q4 5 9.5 15.5t15.5 26.5q36 59 83.5 81.5t104.5 5.5
q30 -9 52.5 -29t35 -47t14 -58.5t-10.5 -63.5q-9 -23 -26.5 -41.5t-38.5 -30t-43 -15.5t-40 2q-21 6 -38 21.5t-27.5 36t-13 43.5t6.5 45q8 25 31 37t46 4q22 -7 34 -27t7 -41q-5 -13 -12.5 -17.5t-20.5 -2.5q-7 2 -11 8.5t-6 13t-4 12t-5 6.5q-9 1 -13 -10
q-3 -11 -0.5 -23.5t9 -24t16 -20.5t20.5 -12q12 -4 24.5 -0.5t23.5 11t19.5 18t12.5 22.5q17 46 -1.5 83.5t-59.5 49.5q-27 8 -50.5 4t-45 -24t-42 -56.5t-41.5 -92.5q-12 -33 -20.5 -63.5t-14.5 -59.5h38q27 -3 24 -29q-4 -22 -23 -22h-47q-8 -69 0.5 -122t25.5 -86
t38.5 -44t40.5 4q8 5 11 13.5t0 15.5q-3 6 -9 5l-12.5 -2t-13.5 0t-11 10q-12 22 18 39q23 12 43 3t31 -30t3.5 -47.5t-27.5 -43.5q10 -44 15 -83.5t3.5 -71.5t-9 -56t-22.5 -37q-18 -15 -39.5 -24t-43.5 -10t-42.5 7.5t-36.5 28.5q-12 14 -19 35t-7.5 43t5.5 42t21 32
q23 19 50.5 14.5t46.5 -27.5q15 -18 15.5 -36.5t-18.5 -34.5q-15 -14 -30 4q-4 4 -3.5 9.5l1 10.5t0.5 10.5t-4 10.5q-8 10 -14 10.5t-12 -4.5q-5 -6 -7.5 -16.5t-2.5 -22.5t3 -24.5t11 -21.5q9 -11 21 -14.5t25.5 -2.5t26.5 7t24 15q10 9 14.5 34t4 54.5t-6 58t-14.5 44.5
q-43 -3 -81 30q-11 9 -24 29.5t-22.5 54.5t-14 81t1.5 107l-123 1l-16 -200q-2 -34 -4 -53.5t-2 -24.5l-3 -23q-8 -20 -28 -18q-10 2 -15 9t-6 23t1.5 41.5t7.5 63.5l12 184l-115 8q-14 -75 -37 -128.5t-48 -89.5t-49 -55.5t-39 -25.5q-32 -13 -64 -10.5t-52 22.5
q-10 10 -14.5 24t-4.5 28t5 27.5t15 23.5q17 17 40 19t40 -15q22 -24 4 -42q-8 -7 -14.5 -6t-13 4t-12 5t-9.5 -2q-5 -5 -5.5 -14t5.5 -16q13 -21 41 -14.5t58.5 39.5t58.5 91t42 140q-10 1 -26 4t-31.5 7.5t-27 12.5t-11.5 20q0 25 25 25q6 0 15.5 -4t12.5 -5
q14 -5 26.5 -6.5t23.5 -3.5q2 17 3 34.5t1 36.5q6 60 -9.5 102t-41 66t-57 30.5t-58.5 -4.5t-44.5 -39t-15.5 -73q1 -13 11 -24.5t23.5 -20t28 -13t23.5 -3.5q14 2 25 7t9 14q0 3 -4 10t-9.5 14l-10 13t-5.5 9q-2 17 10.5 26t28.5 11q40 4 47 -61q2 -17 -5 -33t-19.5 -28.5
t-29.5 -21.5t-35 -12q-24 -3 -48.5 4.5t-45 21.5t-34.5 34.5t-17 44.5q-4 31 6 66.5t36 64.5q13 14 30.5 23.5t37.5 14.5t41 5.5t40 -3.5z" />
  </font>
</defs>
</svg>
