<svg width="113" height="70" viewBox="0 0 113 70" fill="none" xmlns="http://www.w3.org/2000/svg">
<path fill-rule="evenodd" clip-rule="evenodd" d="M22.9487 60.8107C21.7691 60.8107 20.8116 61.7673 20.8116 62.9459C20.8116 64.1271 21.7691 65.0828 22.9487 65.0828C24.1291 65.0828 25.0854 64.1271 25.0854 62.9459C25.0854 61.7673 24.1291 60.8107 22.9487 60.8107ZM109.902 59.2428C111.303 59.2428 112.328 60.027 113 60.8107V57.0244C111.899 56.2782 110.573 55.9795 109.42 55.9795C105.878 55.9795 102.8 58.5156 102.8 62.8786C102.8 67.0563 105.597 69.7795 109.475 69.7795C110.594 69.7795 111.824 69.6101 113 68.8095V65.0961C112.328 65.7876 111.267 66.5157 109.902 66.5157C107.815 66.5157 106.565 64.9685 106.565 62.9907C106.565 60.846 107.889 59.2428 109.902 59.2428ZM103.2 56.3532H98.911L94.9752 61.8345V56.3532H91.321L91.3223 69.4062H94.9752V63.7921L98.7597 69.4062H103.331L98.2393 62.6739L103.2 56.3532ZM80.528 64.1853V56.3532H77.0035V69.4062H80.5841L85.6382 61.5737V69.4062H89.1627V56.3532H85.5813L80.528 64.1853ZM69.9369 62.226H68.8944V59.2252H69.9369C71.5036 59.2252 71.7265 60.0632 71.7265 60.7163C71.7265 61.2754 71.5592 62.226 69.9369 62.226ZM70.7379 56.3532H65.2375V69.4062H68.8944V65.0961H70.7379C74.4314 65.0961 75.4946 62.526 75.4946 60.7163C75.4946 58.9255 74.4499 56.3532 70.7379 56.3532ZM54.348 59.4847H57.218V69.4062H60.8745V59.4847H63.7454V56.3532H54.348V59.4847ZM44.2203 64.1853V56.3532H40.6967V69.4062H44.2781L49.3296 61.5737V69.4062H52.855V56.3532H49.2753L44.2203 64.1853ZM33.3303 66.7938H31.7645V64.0538H33.3303C34.4871 64.0538 35.1588 64.39 35.1588 65.4164C35.1588 66.4597 34.469 66.7938 33.3303 66.7938ZM33.6856 61.4431H31.7645V59.4847H37.7503V56.3532H28.1098L28.1093 69.4062L33.6856 69.4062C34.6354 69.4062 38.8135 69.4424 38.8135 65.36C38.8135 61.4246 34.6737 61.4431 33.6856 61.4431ZM7.65258 62.8786C7.65258 67.0563 10.4498 69.7795 14.3282 69.7795C15.4483 69.7795 16.6788 69.6101 17.854 68.8095V65.0961C17.1806 65.7876 16.1179 66.5157 14.7572 66.5157C12.6679 66.5157 11.4194 64.9685 11.4194 62.9907C11.4194 60.846 12.743 59.2428 14.7572 59.2428C16.1554 59.2428 17.1806 60.027 17.854 60.8107V57.0244C16.7512 56.2782 15.4285 55.9795 14.2722 55.9795C10.7287 55.9795 7.65258 58.5156 7.65258 62.8786ZM0 59.3549H1.99657V69.4062H5.37233V56.3532H0V59.3549Z" fill="#32373C"/>
<path fill-rule="evenodd" clip-rule="evenodd" d="M55.5952 -0.000488281C54.0239 -0.000488281 52.4956 0.176259 51.0232 0.503148V21.1041C51.0232 23.6286 53.0817 25.6875 55.6072 25.6875C58.1315 25.6875 60.1894 23.6286 60.1894 21.1053C60.1894 18.6803 58.2943 16.6898 55.912 16.5314V12.8628C60.3142 13.0225 63.8567 16.6638 63.8567 21.1053C63.8567 25.6476 60.1508 29.3548 55.6072 29.3548C51.0618 29.3548 47.3565 25.6476 47.3565 21.1041V1.6688C46.8357 1.88989 46.327 2.13505 45.8283 2.39859V21.1041C45.8289 26.4882 50.2223 30.879 55.6072 30.879C60.9928 30.879 65.3843 26.4882 65.3843 21.1053C65.3843 15.8225 61.1582 11.4963 55.912 11.3335V7.66618C63.1768 7.83026 69.0496 13.8042 69.0496 21.1053C69.0496 28.5097 63.0108 34.5464 55.6072 34.5464C48.2018 34.5464 42.1611 28.5097 42.1611 21.1041V4.83125C37.4851 8.69753 34.5034 14.5441 34.5034 21.0882C34.5034 32.7352 43.9465 42.1795 55.5958 42.1795C67.247 42.1795 76.6876 32.7352 76.6876 21.0882C76.6876 9.44126 67.247 -0.000488281 55.5952 -0.000488281Z" fill="#32373C"/>
</svg>
