<svg width="22" height="22" viewBox="0 0 22 22" fill="none" xmlns="http://www.w3.org/2000/svg">
<path fill-rule="evenodd" clip-rule="evenodd" d="M2.56076 3.4403C1.97495 2.85454 1.02516 2.85454 0.439356 3.4403C-0.146452 4.02606 -0.146452 4.97578 0.439356 5.56154L5.87863 11.0004L0.440825 16.4378C-0.144983 17.0236 -0.144983 17.9733 0.440825 18.5591C1.02663 19.1448 1.97642 19.1448 2.56222 18.5591L8.00003 13.1217L13.4375 18.5588C14.0234 19.1445 14.9731 19.1445 15.5589 18.5588C16.1448 17.973 16.1448 17.0233 15.5589 16.4375L10.1214 11.0004L15.5604 5.56183C16.1462 4.97607 16.1462 4.02636 15.5604 3.44059C14.9746 2.85483 14.0248 2.85483 13.439 3.44059L8.00003 8.87917L2.56076 3.4403Z" fill="#FA5456"/>
</svg>
