<svg width="12" height="16" viewBox="0 0 12 16" fill="none" xmlns="http://www.w3.org/2000/svg">
<path d="M10.7379 2.73943C9.76682 1.06368 8.04207 0.0399023 6.12411 0.000777344C6.04223 -0.000910156 5.95983 -0.000910156 5.87792 0.000777344C3.95998 0.0399023 2.23523 1.06368 1.26417 2.73943C0.271607 4.45231 0.24445 6.50981 1.19151 8.24328L5.15911 15.5054C5.16089 15.5086 5.16267 15.5118 5.16451 15.515C5.33907 15.8184 5.65179 15.9995 6.00108 15.9995C6.35033 15.9995 6.66304 15.8184 6.83757 15.515C6.83942 15.5118 6.8412 15.5086 6.84298 15.5054L10.8106 8.24328C11.7576 6.50981 11.7304 4.45231 10.7379 2.73943ZM6.00101 7.24953C4.76036 7.24953 3.75101 6.24018 3.75101 4.99953C3.75101 3.75887 4.76036 2.74953 6.00101 2.74953C7.24167 2.74953 8.25101 3.75887 8.25101 4.99953C8.25101 6.24018 7.2417 7.24953 6.00101 7.24953Z" fill="white"/>
<path d="M10.7379 2.73943C9.76682 1.06368 8.04207 0.0399023 6.12411 0.000777344C6.04223 -0.000910156 5.95983 -0.000910156 5.87792 0.000777344C3.95998 0.0399023 2.23523 1.06368 1.26417 2.73943C0.271607 4.45231 0.24445 6.50981 1.19151 8.24328L5.15911 15.5054C5.16089 15.5086 5.16267 15.5118 5.16451 15.515C5.33907 15.8184 5.65179 15.9995 6.00108 15.9995C6.35033 15.9995 6.66304 15.8184 6.83757 15.515C6.83942 15.5118 6.8412 15.5086 6.84298 15.5054L10.8106 8.24328C11.7576 6.50981 11.7304 4.45231 10.7379 2.73943ZM6.00101 7.24953C4.76036 7.24953 3.75101 6.24018 3.75101 4.99953C3.75101 3.75887 4.76036 2.74953 6.00101 2.74953C7.24167 2.74953 8.25101 3.75887 8.25101 4.99953C8.25101 6.24018 7.2417 7.24953 6.00101 7.24953Z" fill="#8E41EE"/>
</svg>
