<svg width="41" height="41" viewBox="0 0 41 41" fill="none" xmlns="http://www.w3.org/2000/svg">
<path d="M24.8377 20.4817C24.014 20.4817 23.227 20.4817 22.385 20.4817C22.385 23.2821 22.385 26.046 22.385 28.8464C21.1221 28.8464 19.914 28.8464 18.6511 28.8464C18.6511 26.0643 18.6511 23.3004 18.6511 20.5C18.0105 20.5 17.4247 20.5 16.7841 20.5C16.7841 19.6031 16.7658 18.7612 16.8024 17.9192C16.8024 17.846 17.0221 17.6995 17.1502 17.6995C17.6261 17.6812 18.1203 17.6812 18.6877 17.6812C18.6877 16.8942 18.6694 16.1437 18.6877 15.4116C18.7609 13.4348 19.8957 12.2634 21.8725 12.1719C22.9524 12.117 24.0323 12.1719 25.1489 12.1719C25.1489 13.0504 25.1489 13.9473 25.1489 14.9357C24.856 14.9357 24.5631 14.9357 24.252 14.9357C23.9591 14.9357 23.6663 14.9357 23.3917 14.954C22.6413 15.0089 22.4399 15.192 22.4033 15.9241C22.3667 16.4915 22.4033 17.0772 22.4033 17.7178C23.3368 17.7178 24.252 17.7178 25.2038 17.7178C25.0573 18.6513 24.9475 19.5665 24.8377 20.4817Z" fill="white"/>
<circle cx="20.5" cy="20.5" r="20" stroke="white" stroke-opacity="0.4"/>
</svg>
