<svg width="51" height="50" viewBox="0 0 51 50" fill="none" xmlns="http://www.w3.org/2000/svg">
<g clip-path="url(#clip0)">
<path fill-rule="evenodd" clip-rule="evenodd" d="M2.13475 36.4409V46.7487H5.86491V48.527H0.148438V36.4409H2.13475ZM12.8761 41.5689V40.4811H14.7586V48.5275H12.8765V47.4393C12.6229 47.8423 12.2636 48.1589 11.797 48.3888C11.3309 48.6192 10.8616 48.7341 10.3896 48.7341C9.77894 48.7341 9.22062 48.6223 8.7142 48.3978C8.22061 48.1826 7.77668 47.868 7.41012 47.4737C7.04692 47.0815 6.76017 46.6249 6.56459 46.1274C6.36077 45.6106 6.25796 45.0594 6.26173 44.5038C6.26173 43.9403 6.36238 43.4018 6.56415 42.8892C6.75848 42.3883 7.04548 41.9286 7.41012 41.534C7.7768 41.1399 8.2207 40.8255 8.7142 40.6104C9.22062 40.3858 9.77894 40.274 10.3896 40.274C10.8616 40.274 11.3309 40.389 11.797 40.6193C12.2632 40.8496 12.6229 41.1659 12.8765 41.5689H12.8761ZM12.7034 45.4883C12.8193 45.1732 12.878 44.84 12.8765 44.5043C12.8765 44.1585 12.8184 43.8307 12.7034 43.5203C12.5955 43.2214 12.4315 42.9459 12.2202 42.7085C12.0093 42.4757 11.7537 42.2877 11.4686 42.1557C11.1752 42.0179 10.8499 41.9486 10.4934 41.9486C10.1359 41.9486 9.81338 42.0179 9.52573 42.1557C9.24419 42.2893 8.99182 42.4771 8.7831 42.7085C8.57252 42.9447 8.41129 43.2205 8.30888 43.5198C8.19822 43.836 8.14254 44.1688 8.14425 44.5038C8.14425 44.8491 8.19883 45.1774 8.30844 45.4878C8.41759 45.7991 8.57596 46.0693 8.78354 46.2996C8.99218 46.5311 9.24457 46.719 9.52617 46.8524C9.81338 46.9907 10.1359 47.0595 10.4929 47.0595C10.8499 47.0595 11.1752 46.9907 11.4686 46.8524C11.7538 46.7206 12.0094 46.5326 12.2202 46.2996C12.4315 46.0624 12.5955 45.787 12.7034 45.4883ZM16.2439 48.527V40.4811H21.3559V42.3332H18.1259V48.5279H16.2439V48.527ZM28.1774 41.5689V40.4811H30.0599V48.5275H28.1774V47.4393C27.9242 47.8423 27.5645 48.1589 27.0979 48.3888C26.6318 48.6192 26.1629 48.7341 25.6905 48.7341C25.0803 48.7341 24.522 48.6223 24.0155 48.3978C23.522 48.1826 23.078 47.868 22.7115 47.4737C22.3481 47.0815 22.0612 46.6249 21.8655 46.1274C21.6618 45.6105 21.5592 45.0594 21.5631 44.5038C21.5631 43.9403 21.6637 43.4018 21.8655 42.8892C22.0597 42.3884 22.3465 41.9286 22.711 41.534C23.0778 41.1398 23.5219 40.8254 24.0155 40.6104C24.522 40.3858 25.0803 40.274 25.6905 40.274C26.1625 40.274 26.6318 40.389 27.0979 40.6193C27.5645 40.8496 27.9242 41.1659 28.1774 41.5689ZM28.0047 45.4883C28.1205 45.1732 28.179 44.84 28.1774 44.5043C28.1774 44.1585 28.1192 43.8307 28.0047 43.5203C27.8968 43.2214 27.7328 42.9459 27.5216 42.7085C27.3107 42.4757 27.0551 42.2877 26.77 42.1557C26.4765 42.0179 26.1508 41.9486 25.7943 41.9486C25.4373 41.9486 25.1147 42.0179 24.8271 42.1557C24.5455 42.2893 24.2932 42.4771 24.0844 42.7085C23.8737 42.9446 23.7123 43.2205 23.6098 43.5198C23.4993 43.8361 23.4437 44.1689 23.4456 44.5038C23.4456 44.8491 23.4997 45.1774 23.6098 45.4878C23.7189 45.7991 23.8773 46.0693 24.0844 46.2996C24.2931 46.5311 24.5455 46.719 24.8271 46.8524C25.1147 46.9907 25.4373 47.0595 25.7943 47.0595C26.1508 47.0595 26.4765 46.9907 26.77 46.8524C27.0551 46.7206 27.3108 46.5326 27.5216 46.2996C27.7328 46.0624 27.8968 45.787 28.0047 45.4883ZM37.6066 40.4811H39.5133L36.4242 48.5275H34.0576L30.9681 40.4811H32.8748L35.2409 46.6427L37.6066 40.4811ZM43.6192 40.274C46.1822 40.274 47.9301 42.5452 47.6017 45.2034H41.3569C41.3569 45.8975 42.0579 47.2393 43.7226 47.2393C45.1541 47.2393 46.1138 45.9803 46.1142 45.9794L47.3861 46.9634C46.2489 48.1768 45.3179 48.7346 43.8599 48.7346C41.2549 48.7346 39.4891 47.0868 39.4891 44.5043C39.4891 42.1682 41.3139 40.274 43.6188 40.274H43.6192ZM41.3618 43.8048H45.8731C45.8592 43.65 45.6145 41.7688 43.604 41.7688C41.5931 41.7688 41.3761 43.65 41.3618 43.8048ZM48.8275 48.527V36.4409H50.71V48.527H48.8275Z" fill="#EF3B2D"/>
</g>
<path fill-rule="evenodd" clip-rule="evenodd" d="M42.2356 7.49886C42.248 7.54305 42.2544 7.58861 42.2545 7.63439V14.7494C42.2545 14.8407 42.2294 14.9305 42.1818 15.0095C42.1341 15.0885 42.0656 15.154 41.9832 15.1995L35.7675 18.6377V25.4525C35.7675 25.6379 35.6649 25.8091 35.4975 25.9025L22.5228 33.0785C22.4931 33.0947 22.4607 33.1051 22.4283 33.1161C22.4162 33.12 22.4047 33.1271 22.3919 33.1304C22.3012 33.1533 22.2059 33.1533 22.1152 33.1304C22.1003 33.1265 22.0868 33.1187 22.0726 33.1135C22.0429 33.1032 22.0119 33.0941 21.9836 33.0785L9.01157 25.9025C8.92916 25.857 8.86069 25.7915 8.81305 25.7125C8.76542 25.6335 8.7403 25.5438 8.74023 25.4525V4.10734C8.74023 4.06065 8.74698 4.01526 8.75913 3.97116C8.76318 3.95625 8.77263 3.94263 8.77803 3.92772C8.78816 3.90048 8.79761 3.8726 8.81245 3.84731C8.82258 3.83045 8.83743 3.81683 8.84958 3.80126C8.8651 3.78051 8.87928 3.75911 8.8975 3.74096C8.91302 3.72604 8.93327 3.71502 8.95082 3.70205C8.97039 3.68648 8.98794 3.66962 9.01022 3.6573L15.4972 0.0693031C15.5794 0.0238974 15.6724 0 15.7672 0C15.862 0 15.9551 0.0238974 16.0372 0.0693031L22.5235 3.6573H22.5249C22.5465 3.67027 22.5647 3.68648 22.5843 3.7014C22.6018 3.71437 22.6214 3.72604 22.6369 3.74031C22.6558 3.75911 22.6693 3.78051 22.6855 3.80126C22.697 3.81683 22.7125 3.83045 22.722 3.84731C22.7375 3.87324 22.7463 3.90048 22.7571 3.92772C22.7625 3.94263 22.7719 3.95625 22.776 3.97181C22.7884 4.016 22.7947 4.06157 22.7949 4.10734V17.4393L28.1999 14.4492V7.63374C28.1999 7.58834 28.2066 7.5423 28.2188 7.49886C28.2235 7.48329 28.2323 7.46967 28.2377 7.45476C28.2485 7.42752 28.2579 7.39964 28.2728 7.37435C28.2829 7.35749 28.2978 7.34387 28.3092 7.32831C28.3254 7.30756 28.3389 7.28616 28.3578 7.268C28.3734 7.25308 28.3929 7.24206 28.4105 7.22909C28.4307 7.21353 28.4483 7.19667 28.4699 7.18435L34.9576 3.59635C35.0397 3.55088 35.1328 3.52694 35.2275 3.52694C35.3223 3.52694 35.4154 3.55088 35.4975 3.59635L41.9839 7.18435C42.0068 7.19732 42.0244 7.21353 42.0446 7.22844C42.0615 7.24141 42.0811 7.25308 42.0966 7.26735C42.1155 7.28616 42.129 7.30756 42.1452 7.32831C42.1573 7.34387 42.1722 7.35749 42.1816 7.37435C42.1971 7.39964 42.2059 7.42752 42.2167 7.45476C42.2228 7.46967 42.2316 7.48329 42.2356 7.49886ZM41.1732 14.4492V8.53252L38.9034 9.78796L35.7675 11.5226V17.4393L41.1732 14.4492ZM34.6869 25.1522V19.2317L31.6024 20.9242L22.7942 25.754V31.7303L34.6869 25.1522ZM9.82151 5.00548V25.1522L21.7129 31.7297V25.7547L15.5006 22.3768L15.4986 22.3755L15.4959 22.3742C15.4749 22.3625 15.4574 22.3456 15.4378 22.3314C15.421 22.3184 15.4014 22.308 15.3865 22.2938L15.3852 22.2918C15.3676 22.2756 15.3555 22.2555 15.3406 22.2373C15.3271 22.2198 15.3109 22.2049 15.3001 22.1868L15.2995 22.1848C15.2873 22.1654 15.2799 22.142 15.2711 22.12C15.2623 22.1005 15.2509 22.0824 15.2455 22.0616C15.2387 22.037 15.2374 22.0104 15.2347 21.9851C15.232 21.9656 15.2266 21.9462 15.2266 21.9267V21.9254V7.99558L12.0914 6.26027L9.82151 5.00548ZM15.7679 1.11853L10.3635 4.10734L15.7665 7.09615L21.1702 4.10669L15.7665 1.11853H15.7679ZM18.5784 19.7712L21.7136 18.0372V5.00548L19.4437 6.26092L16.3078 7.99558V21.0273L18.5784 19.7712ZM35.2275 4.64558L29.8238 7.63439L35.2275 10.6232L40.6306 7.63374L35.2275 4.64558ZM34.6869 11.5226L31.5511 9.78796L29.2812 8.53252V14.4492L32.4164 16.1832L34.6869 17.4393V11.5226ZM22.2529 24.8559L30.1789 20.5085L34.1409 18.3361L28.7412 15.3493L22.5242 18.7881L16.8579 21.9222L22.2529 24.8559Z" fill="#EF3B2D"/>
<defs>
<clipPath id="clip0">
<rect width="51" height="12.9708" fill="white" transform="translate(0 36.0312)"/>
</clipPath>
</defs>
</svg>
