<svg width="41" height="41" viewBox="0 0 41 41" fill="none" xmlns="http://www.w3.org/2000/svg">
<path d="M29.8167 20.4809C29.8167 22.2746 29.8167 24.0867 29.8167 25.8805C29.7984 27.784 28.7551 29.23 27.0163 29.6876C26.6319 29.7791 26.2292 29.8157 25.8448 29.8157C22.2756 29.8157 18.7064 29.8157 15.1372 29.8157C13.2153 29.8157 11.7877 28.7724 11.3118 27.0336C11.202 26.6492 11.1836 26.2465 11.1836 25.8621C11.1653 22.2929 11.1653 18.7238 11.1836 15.1546C11.1836 12.7751 12.7761 11.1827 15.1372 11.1827C18.7247 11.1644 22.3122 11.1644 25.8814 11.1827C28.2243 11.201 29.7984 12.7751 29.8167 15.1179C29.835 16.9117 29.8167 18.6871 29.8167 20.4809ZM25.9913 19.584C26.2475 21.2863 25.8997 22.7871 24.8381 24.0867C23.7765 25.3863 22.3854 26.0818 20.7198 26.155C19.2921 26.2099 18.0109 25.7889 16.9127 24.8555C15.302 23.4827 14.7162 21.6889 14.9725 19.6023C14.3136 19.6023 13.6912 19.6023 13.0689 19.6023C13.0689 19.7488 13.0506 19.8586 13.0506 19.9684C13.0506 21.9269 13.0506 23.8671 13.0506 25.8255C13.0506 27.2349 13.7462 27.9305 15.1555 27.9305C18.7064 27.9305 22.2573 27.9305 25.8082 27.9305C27.2176 27.9305 27.9314 27.2349 27.9314 25.8255C27.9314 23.9037 27.9314 21.9818 27.9314 20.0599C27.9314 19.8952 27.9131 19.7488 27.8948 19.584C27.2542 19.584 26.6685 19.584 25.9913 19.584ZM20.7015 16.8019C18.7247 16.6554 16.9127 18.2113 16.8029 20.3162C16.693 22.3113 18.2671 24.0867 20.2805 24.1965C22.2756 24.3063 24.0877 22.7688 24.1975 20.7005C24.3073 18.7054 22.7515 16.8751 20.7015 16.8019ZM26.9979 14.0014C26.0462 14.0014 25.1676 14.0014 24.2707 14.0014C24.2707 14.9349 24.2707 15.8318 24.2707 16.7287C25.2042 16.7287 26.1011 16.7287 26.9979 16.7287C26.9979 15.8135 26.9979 14.9349 26.9979 14.0014Z" fill="white"/>
<circle cx="20.5" cy="20.5" r="20" stroke="white" stroke-opacity="0.4"/>
</svg>
