<svg width="154" height="43" viewBox="0 0 154 43" fill="none" xmlns="http://www.w3.org/2000/svg">
<g clip-path="url(#clip0)">
<path d="M42.8829 5.92693C42.8829 2.82577 40.3528 0.311768 37.2319 0.311768C34.3821 0.311768 32.0263 2.4081 31.6382 5.13327L31.581 5.10327C26.9595 3.0321 23.0667 6.7006 23.0667 6.7006L12.7695 16.9826L16.8382 20.8759L25.1262 12.7849C28.9965 8.9391 31.1038 11.5421 31.1038 11.5421C34.0173 13.9878 31.2041 16.8828 31.2041 16.8828L35.3734 20.8759C38.778 17.2221 38.9754 14.0333 37.9405 11.4966C40.7269 11.1499 42.8829 8.78943 42.8829 5.92693Z" fill="#8D8D8D"/>
<path d="M37.9956 31.7513C38.0148 31.7154 38.0257 31.6946 38.0257 31.6946C40.1103 27.1023 36.4182 23.2341 36.4182 23.2341L26.0704 13.002L22.1523 17.0451L30.295 25.2804C34.1652 29.1263 31.5456 31.2204 31.5456 31.2204C29.0845 34.1154 26.171 31.3201 26.171 31.3201L22.1523 35.4628C25.8293 38.8458 29.0387 39.0419 31.5914 38.0136C31.9403 40.7823 34.316 42.9248 37.1968 42.9248C40.3178 42.9248 42.8477 40.4108 42.8477 37.3096C42.8477 34.4779 40.7381 32.1371 37.9956 31.7513Z" fill="#F5F5F5"/>
<path d="M26.1584 22.1733L17.8703 30.2642C13.9999 34.1102 11.8925 31.5073 11.8925 31.5073C8.97903 29.0615 11.792 26.1667 11.792 26.1667L7.6231 22.1733C4.21849 25.827 4.02091 29.0158 5.05564 31.5525C2.26929 31.8993 0.113281 34.2597 0.113281 37.1223C0.113281 40.2235 2.64333 42.7373 5.76447 42.7373C8.61422 42.7375 10.97 40.6413 11.3581 37.9162C11.3944 37.9353 11.4153 37.946 11.4153 37.946C16.037 40.0177 19.9297 36.3487 19.9297 36.3487L30.227 26.0665L26.1584 22.1733Z" fill="#CCCCCC"/>
<path d="M12.7012 17.7689C8.83086 13.923 11.4501 11.8289 11.4501 11.8289C13.9118 8.93385 16.8251 11.7292 16.8251 11.7292L20.8437 7.58669C17.1667 4.20368 13.9576 4.00752 11.4047 5.03568C11.0558 2.26685 8.6804 0.124512 5.79912 0.124512C2.67866 0.124512 0.148773 2.63851 0.148438 5.73968C0.148438 8.57152 2.25799 10.9124 5.00072 11.298C4.98143 11.334 4.9707 11.355 4.9707 11.355C2.88581 15.947 6.57806 19.815 6.57806 19.815L16.9261 30.0472L20.8441 26.0044L12.7014 17.7689" fill="white"/>
</g>
<path d="M62.5983 14.033V25.0872C62.5983 26.0761 62.6688 26.9943 61.787 27.6654C60.9757 28.3364 59.6001 28.5483 58.1187 28.5483C55.8612 28.5483 53.4627 28.0185 53.4627 28.0185L52.9336 29.4312C52.9336 29.4312 56.2845 30.1376 58.7183 30.1729C60.7641 30.2082 62.563 29.7491 63.5506 28.6189C64.3619 27.7007 64.6088 26.6412 64.5735 24.84V14.033H62.5983Z" fill="white"/>
<path d="M79.0406 20.1309C77.5592 19.3186 75.7603 18.8948 73.7145 18.8948C71.7039 18.8948 69.905 19.3186 68.3883 20.1309C66.4836 21.1551 65.5312 22.6737 65.5312 24.5808C65.5312 26.488 66.4836 28.0066 68.3883 29.0308C69.905 29.8431 71.6687 30.2669 73.7145 30.2669C75.725 30.2669 77.5239 29.8431 79.0053 29.0308C80.9101 28.0066 81.8624 26.488 81.8624 24.5808C81.8624 22.6384 80.9101 21.1551 79.0406 20.1309ZM77.8766 27.9006C76.7126 28.5717 75.337 28.8895 73.7145 28.8895C72.0567 28.8895 70.6458 28.5717 69.517 27.936C68.1414 27.159 67.4712 26.0641 67.4712 24.5808C67.4712 23.1328 68.1767 22.0027 69.517 21.2257C70.6458 20.59 72.0567 20.2721 73.7145 20.2721C75.337 20.2721 76.7479 20.59 77.9119 21.2257C79.2522 22.0027 79.9577 23.1328 79.9577 24.5808C79.9224 25.9935 79.2522 27.1237 77.8766 27.9006Z" fill="white"/>
<path d="M96.3648 20.1309C94.8834 19.3186 93.0845 18.8948 91.0387 18.8948C89.0282 18.8948 87.2293 19.3186 85.7125 20.1309C83.8078 21.1551 82.8555 22.6737 82.8555 24.5808C82.8555 26.488 83.8078 28.0066 85.7125 29.0308C87.2293 29.8431 88.9929 30.2669 91.0387 30.2669C93.0492 30.2669 94.8481 29.8431 96.3296 29.0308C98.2343 28.0066 99.1866 26.488 99.1866 24.5808C99.1866 22.6384 98.2343 21.1551 96.3648 20.1309ZM95.2008 27.9006C94.0369 28.5717 92.6612 28.8895 91.0387 28.8895C89.3809 28.8895 87.97 28.5717 86.8413 27.936C85.4656 27.159 84.7955 26.0641 84.7955 24.5808C84.7955 23.1328 85.5009 22.0027 86.8413 21.2257C87.97 20.59 89.3809 20.2721 91.0387 20.2721C92.6612 20.2721 94.0721 20.59 95.2361 21.2257C96.5765 22.0027 97.2819 23.1328 97.2819 24.5808C97.2466 25.9935 96.5765 27.1237 95.2008 27.9006Z" fill="white"/>
<path d="M120.214 19.8483C119.156 19.2126 117.781 18.8948 116.158 18.8948C114.077 18.8948 112.419 19.5305 111.149 20.8019C109.95 19.5305 108.257 18.8948 106.176 18.8948C104.483 18.8948 103.107 19.2479 102.049 19.919C102.049 19.6718 102.049 19.036 102.049 19.036H100.18V30.0197H102.049V22.5324C102.19 22.0027 102.543 21.5082 103.107 21.0844C103.883 20.5547 104.871 20.2721 106.105 20.2721C107.199 20.2721 108.116 20.484 108.892 20.9432C109.809 21.4729 110.232 22.1793 110.232 23.1681V30.0903H112.067V23.1328C112.067 22.144 112.49 21.4376 113.407 20.9079C114.183 20.484 115.135 20.2368 116.229 20.2368C117.322 20.2368 118.274 20.4487 119.05 20.9079C119.968 21.4376 120.391 22.144 120.391 23.1328V30.055H122.26V23.3801C122.225 21.8261 121.52 20.6253 120.214 19.8483Z" fill="white"/>
<path d="M123.801 14.033V30.0669H125.67V14.033H123.801Z" fill="white"/>
<path d="M146.375 14.033V26.4293H148.244V14.033H146.375Z" fill="white"/>
<path d="M141.938 19.0386C141.938 19.0386 141.938 20.5573 141.938 20.9105C140.351 19.5684 138.235 18.8621 135.625 18.8621C133.543 18.8621 131.745 19.2505 130.263 20.0628C128.429 21.087 127.477 22.5704 127.477 24.5481C127.477 26.4906 128.429 28.0092 130.334 28.9981C131.815 29.8104 133.614 30.1988 135.695 30.1988C136.718 30.1988 137.741 30.0929 138.658 29.8457C139.963 29.4925 141.056 28.9981 141.903 28.327C141.903 28.7155 141.903 30.0223 141.903 30.0223H143.772V19.0386H141.938ZM129.452 24.5834C129.452 23.1354 130.157 22.0053 131.498 21.2283C132.626 20.5926 134.073 20.2747 135.73 20.2747C137.776 20.2747 139.363 20.7692 140.492 21.7581C141.48 22.641 141.974 23.7711 141.974 25.1485C141.974 25.1485 141.974 26.3493 141.974 26.4552C141.198 27.3382 140.034 28.0092 138.552 28.4683C137.67 28.7508 136.718 28.8921 135.73 28.8921C134.037 28.8921 132.626 28.5743 131.498 27.9739C130.122 27.1616 129.452 26.0667 129.452 24.5834Z" fill="white"/>
<path d="M147.333 27.9946C146.028 27.9946 145.852 28.6657 145.852 29.0895C145.852 29.5133 146.063 30.1843 147.333 30.1843C148.638 30.1843 148.814 29.4779 148.814 29.0895C148.814 28.701 148.603 27.9946 147.333 27.9946Z" fill="white"/>
<path d="M153.997 16.0131C153.997 17.1079 153.292 18.0261 152.022 18.0261C150.752 18.0261 150.047 17.1079 150.047 16.0131C150.047 14.9182 150.752 14 152.022 14C153.292 14 153.997 14.9182 153.997 16.0131ZM150.47 16.0131C150.47 16.9313 151.035 17.6377 152.022 17.6377C153.01 17.6377 153.574 16.9313 153.574 16.0131C153.574 15.0948 153.01 14.3885 152.022 14.3885C151.035 14.3885 150.47 15.0948 150.47 16.0131ZM152.41 16.2603C153.186 16.119 153.116 14.9536 152.234 14.9536H151.281V17.002H151.669V16.2956H152.022L152.586 17.002H153.01V16.9313L152.41 16.2603ZM152.234 15.3067C152.692 15.3067 152.692 15.9778 152.234 15.9778H151.669V15.3067H152.234Z" fill="white"/>
<defs>
<clipPath id="clip0">
<rect width="42.9457" height="43" fill="white"/>
</clipPath>
</defs>
</svg>
