<svg width="117" height="43" viewBox="0 0 117 43" fill="none" xmlns="http://www.w3.org/2000/svg">
<g clip-path="url(#clip0)">
<path fill-rule="evenodd" clip-rule="evenodd" d="M55.6595 13.9751V27.3466H60.3164V29.6535H53.1797V13.9751H55.6595ZM69.0694 20.6272V19.2161H71.4197V29.6541H69.07V28.2425C68.7533 28.7652 68.3048 29.176 67.7223 29.4742C67.1403 29.7731 66.5544 29.9222 65.9652 29.9222C65.2028 29.9222 64.5058 29.7771 63.8736 29.4859C63.2574 29.2067 62.7031 28.7987 62.2455 28.2871C61.7921 27.7783 61.4341 27.186 61.1899 26.5407C60.9354 25.8702 60.8071 25.1553 60.8118 24.4345C60.8118 23.7035 60.9375 23.0049 61.1893 22.34C61.432 21.6903 61.7903 21.0938 62.2455 20.5819C62.7033 20.0707 63.2575 19.6629 63.8736 19.3838C64.5058 19.0925 65.2028 18.9475 65.9652 18.9475C66.5544 18.9475 67.1403 19.0966 67.7223 19.3954C68.3043 19.6942 68.7533 20.1044 69.07 20.6272H69.0694ZM68.8538 25.7116C68.9986 25.3029 69.0718 24.8706 69.07 24.4351C69.07 23.9866 68.9974 23.5613 68.8538 23.1587C68.7191 22.7709 68.5144 22.4135 68.2506 22.1056C67.9874 21.8035 67.6683 21.5597 67.3123 21.3884C66.946 21.2097 66.5399 21.1198 66.0948 21.1198C65.6485 21.1198 65.2458 21.2097 64.8867 21.3884C64.5352 21.5617 64.2202 21.8055 63.9596 22.1056C63.6967 22.4119 63.4954 22.7698 63.3676 23.1581C63.2294 23.5683 63.1599 24 63.162 24.4345C63.162 24.8825 63.2302 25.3083 63.367 25.711C63.5033 26.1148 63.701 26.4653 63.9601 26.7641C64.2206 27.0643 64.5357 27.3081 64.8873 27.4812C65.2458 27.6605 65.6485 27.7499 66.0942 27.7499C66.5399 27.7499 66.946 27.6605 67.3123 27.4812C67.6683 27.3102 67.9875 27.0662 68.2506 26.7641C68.5144 26.4564 68.7191 26.0991 68.8538 25.7116ZM73.2739 29.6535V19.2161H79.6561V21.6188H75.6236V29.6547H73.2739V29.6535ZM88.1723 20.6272V19.2161H90.5225V29.6541H88.1723V28.2425C87.8562 28.7652 87.4071 29.176 86.8246 29.4742C86.2426 29.7731 85.6573 29.9222 85.0675 29.9222C84.3057 29.9222 83.6087 29.7771 82.9764 29.4859C82.3602 29.2067 81.806 28.7987 81.3484 28.2871C80.8947 27.7784 80.5365 27.1861 80.2922 26.5407C80.0379 25.8702 79.9098 25.1552 79.9147 24.4345C79.9147 23.7035 80.0403 23.0049 80.2922 22.34C80.5347 21.6903 80.8928 21.0939 81.3478 20.5819C81.8057 20.0706 82.3601 19.6628 82.9764 19.3838C83.6087 19.0925 84.3057 18.9475 85.0675 18.9475C85.6567 18.9475 86.2426 19.0966 86.8246 19.3954C87.4071 19.6942 87.8562 20.1044 88.1723 20.6272ZM87.9567 25.7116C88.1013 25.3029 88.1743 24.8706 88.1723 24.4351C88.1723 23.9866 88.0997 23.5613 87.9567 23.1587C87.822 22.7709 87.6173 22.4135 87.3535 22.1056C87.0902 21.8035 86.7711 21.5597 86.4152 21.3884C86.0488 21.2097 85.6422 21.1198 85.1971 21.1198C84.7514 21.1198 84.3487 21.2097 83.9896 21.3884C83.6381 21.5617 83.323 21.8055 83.0625 22.1056C82.7994 22.4119 82.5979 22.7697 82.4699 23.1581C82.3319 23.5683 82.2626 24 82.2649 24.4345C82.2649 24.8825 82.3325 25.3083 82.4699 25.711C82.6061 26.1148 82.8039 26.4653 83.0625 26.7641C83.3229 27.0643 83.638 27.3081 83.9896 27.4812C84.3487 27.6605 84.7514 27.7499 85.1971 27.7499C85.6422 27.7499 86.0488 27.6605 86.4152 27.4812C86.7712 27.3102 87.0904 27.0662 87.3535 26.7641C87.6173 26.4564 87.822 26.0991 87.9567 25.7116ZM99.9441 19.2161H102.324L98.468 29.6541H95.5134L91.6563 19.2161H94.0367L96.9907 27.2091L99.9441 19.2161ZM107.451 18.9475C110.65 18.9475 112.832 21.8938 112.422 25.342H104.626C104.626 26.2425 105.501 27.9831 107.58 27.9831C109.367 27.9831 110.565 26.3498 110.565 26.3487L112.153 27.6251C110.733 29.1992 109.571 29.9227 107.751 29.9227C104.499 29.9227 102.294 27.7853 102.294 24.4351C102.294 21.4047 104.573 18.9475 107.45 18.9475H107.451ZM104.632 23.5277H110.264C110.247 23.3269 109.942 20.8866 107.432 20.8866C104.921 20.8866 104.65 23.3269 104.632 23.5277ZM113.953 29.6535V13.9751H116.303V29.6535H113.953Z" fill="white"/>
</g>
<path fill-rule="evenodd" clip-rule="evenodd" d="M41.8171 9.72773C41.8326 9.78505 41.8406 9.84416 41.8407 9.90354V19.1334C41.8407 19.2518 41.8094 19.3682 41.7499 19.4707C41.6904 19.5732 41.6049 19.6582 41.502 19.7172L33.7421 24.1773V33.0177C33.7421 33.2583 33.614 33.4803 33.405 33.6015L17.2068 42.9104C17.1697 42.9314 17.1293 42.9449 17.0889 42.9592C17.0737 42.9642 17.0594 42.9735 17.0433 42.9777C16.9301 43.0074 16.8111 43.0074 16.6979 42.9777C16.6793 42.9726 16.6625 42.9625 16.6448 42.9558C16.6077 42.9423 16.5689 42.9306 16.5335 42.9104L0.338744 33.6015C0.235863 33.5425 0.150379 33.4574 0.0909084 33.3549C0.0314378 33.2524 8.1517e-05 33.1361 0 33.0177L0 5.32816C0 5.26759 0.00842646 5.20871 0.0235941 5.15151C0.0286499 5.13216 0.040447 5.11449 0.0471882 5.09514C0.0598278 5.05981 0.0716249 5.02364 0.0901631 4.99083C0.102803 4.96896 0.121341 4.9513 0.136509 4.93111C0.155889 4.90419 0.173585 4.87643 0.196336 4.85287C0.215717 4.83353 0.240997 4.81922 0.262905 4.8024C0.287342 4.78221 0.309251 4.76034 0.337058 4.74436L8.43572 0.0899019C8.53826 0.0310003 8.65448 0 8.77278 0C8.89108 0 9.00731 0.0310003 9.10984 0.0899019L17.2077 4.74436H17.2093C17.2363 4.76118 17.2591 4.78221 17.2835 4.80156C17.3054 4.81838 17.3298 4.83353 17.3492 4.85203C17.3728 4.87643 17.3897 4.90419 17.4099 4.93111C17.4242 4.9513 17.4436 4.96896 17.4554 4.99083C17.4748 5.02448 17.4857 5.05981 17.4992 5.09514C17.506 5.11449 17.5178 5.13216 17.5228 5.15235C17.5383 5.20967 17.5463 5.26878 17.5464 5.32816V22.6227L24.2943 18.7439V9.9027C24.2943 9.84381 24.3027 9.78409 24.3179 9.72773C24.3238 9.70754 24.3348 9.68987 24.3415 9.67052C24.355 9.63519 24.3668 9.59902 24.3853 9.56621C24.398 9.54434 24.4165 9.52668 24.4308 9.50649C24.451 9.47957 24.4679 9.45181 24.4915 9.42825C24.5109 9.40891 24.5353 9.3946 24.5572 9.37778C24.5825 9.35759 24.6044 9.33572 24.6314 9.31974L32.7309 4.66528C32.8334 4.6063 32.9496 4.57525 33.0679 4.57525C33.1863 4.57525 33.3025 4.6063 33.405 4.66528L41.5028 9.31974C41.5315 9.33656 41.5534 9.35759 41.5787 9.37694C41.5997 9.39376 41.6242 9.40891 41.6435 9.42741C41.6671 9.45181 41.684 9.47957 41.7042 9.50649C41.7194 9.52668 41.7379 9.54434 41.7497 9.56621C41.7691 9.59902 41.78 9.63519 41.7935 9.67052C41.8011 9.68987 41.8121 9.70754 41.8171 9.72773ZM40.4908 18.7439V11.0686L37.657 12.6972L33.7421 14.9475V22.6227L40.4908 18.7439ZM32.393 32.6282V24.9479L28.5421 27.1434L17.5456 33.4088V41.1615L32.393 32.6282ZM1.34992 6.49325V32.6282L16.1956 41.1606V33.4097L8.43994 29.0278L8.43741 29.0261L8.43404 29.0244C8.40792 29.0093 8.38601 28.9874 8.36157 28.9689C8.34051 28.9521 8.31607 28.9386 8.29753 28.9201L8.29585 28.9176C8.27394 28.8965 8.25877 28.8705 8.24023 28.8469C8.22338 28.8242 8.20315 28.8048 8.18967 28.7813L8.18883 28.7788C8.17366 28.7535 8.16439 28.7232 8.15344 28.6946C8.14248 28.6694 8.12816 28.6459 8.12142 28.6189C8.11299 28.587 8.11131 28.5525 8.10793 28.5197C8.10456 28.4944 8.09782 28.4692 8.09782 28.444V28.4423V10.3721L4.18374 8.121L1.34992 6.49325ZM8.77362 1.45099L2.02656 5.32816L8.77194 9.20533L15.5182 5.32732L8.77194 1.45099H8.77362ZM12.2824 25.6478L16.1965 23.3983V6.49325L13.3627 8.12184L9.44774 10.3721V27.2772L12.2824 25.6478ZM33.0679 6.02637L26.3217 9.90354L33.0679 13.7807L39.8133 9.9027L33.0679 6.02637ZM32.393 14.9475L28.478 12.6972L25.6442 11.0686V18.7439L29.5583 20.9933L32.393 22.6227V14.9475ZM16.8698 32.2437L26.7649 26.6042L31.7113 23.7861L24.9701 19.9115L17.2085 24.3725L10.1345 28.4381L16.8698 32.2437Z" fill="white"/>
<defs>
<clipPath id="clip0">
<rect width="63.6707" height="16.8261" fill="white" transform="translate(53.3281 13.6211)"/>
</clipPath>
</defs>
</svg>
