<svg width="158" height="53" viewBox="0 0 158 53" fill="none" xmlns="http://www.w3.org/2000/svg">
<path d="M0.042705 19.7684C0.042705 17.7067 0.042705 15.6052 0.042705 13.5435C0.042705 13.038 0.042705 13.038 0.467243 13.292C2.80095 14.5121 5.13465 15.6898 7.51106 16.9099C7.63917 16.9522 7.72207 17.0369 7.76478 17.1614C9.1238 19.3476 10.4803 21.5363 11.8393 23.7648C11.9675 23.9341 12.0102 23.9739 12.1785 23.8071C13.0275 23.0925 13.8339 22.3779 14.683 21.6608C14.8111 21.5338 14.9367 21.5338 15.1075 21.5761C15.7431 21.7853 16.3384 22.0392 16.9313 22.3331C18.5867 23.1323 20.1995 24.0163 21.7268 25.067C22.5332 25.6148 22.5332 25.6148 22.5332 26.6233C22.5332 34.9099 22.5332 43.1965 22.5332 51.4806C22.5332 51.5652 22.5332 51.6499 22.5332 51.7744C22.4905 51.7744 22.4478 51.7744 22.4051 51.7744C21.8524 51.6474 21.345 51.3959 20.835 51.1021C19.6041 50.4721 18.4159 49.7974 17.2277 49.1251C16.5067 48.7043 15.8285 48.2835 15.1477 47.7382C14.894 47.529 14.7659 47.275 14.7232 46.8965C14.6805 44.1626 14.6805 41.4709 14.6805 38.7369C14.6805 38.2315 14.6378 37.7285 14.6378 37.2654C14.6378 37.0562 14.5951 37.0139 14.4268 37.1384C13.4496 37.726 12.4749 38.3161 11.5404 38.8639C11.1159 39.1154 11.1159 39.1154 10.8621 38.6946C9.88495 37.0114 8.86757 35.3307 7.89289 33.6898C7.85019 33.6051 7.80748 33.5205 7.76478 33.4383C7.76478 33.523 7.76478 33.6076 7.76478 33.6898C7.76478 36.8869 7.76478 40.0417 7.76478 43.2388C7.76478 43.7019 7.67937 43.7443 7.25483 43.5749C6.83029 43.4056 6.44846 43.1541 6.06662 42.945C5.17484 42.3972 4.24287 41.8942 3.26568 41.4311C2.20559 40.9256 1.18569 40.338 0.296423 39.6234C0.168308 39.5387 0.08541 39.4142 0 39.2449C0 37.858 0 36.4686 0 35.0817C0.042705 34.997 0.042705 34.9124 0.042705 34.8302C0.042705 33.8218 0.042705 32.7685 0.042705 31.7601C0.042705 31.0878 0.042705 30.413 0.042705 29.7407C0.042705 29.1107 0.042705 28.436 0.042705 27.806C0.042705 27.0914 0.042705 26.4191 0.042705 25.702C0.042705 25.072 0.042705 24.4396 0.042705 23.8096C0.042705 23.222 0.042705 22.5895 0.042705 22.0019C0.042705 21.2823 0.042705 20.5253 0.042705 19.7684Z" fill="white"/>
<path d="M56.5921 24.73C56.5921 22.9223 56.5921 21.1121 56.5921 19.3044C56.5921 17.6212 57.1849 16.1496 58.2048 14.8449C59.5212 13.1617 61.2595 12.1532 63.3395 11.8594C65.4622 11.5656 67.4568 12.0287 69.1951 13.331C69.3232 13.458 69.4061 13.458 69.5769 13.331C70.9762 12.2802 72.5462 11.7324 74.2871 11.7747C77.0453 11.8171 79.2082 12.9525 80.8636 15.0964C80.949 15.2233 80.9917 15.3055 80.8636 15.4748C79.6327 16.8617 78.8263 18.4603 78.4445 20.2705C78.1908 21.4483 78.1908 22.5837 78.3164 23.7614C78.5274 25.6961 79.2509 27.3794 80.4391 28.9356C80.9063 29.5655 81.4565 30.1133 82.0518 30.5765C82.18 30.6611 82.18 30.7458 82.18 30.9126C81.9689 31.9211 80.9063 32.805 79.8462 33.0166C78.3189 33.2681 76.877 32.3444 76.4952 30.8305C76.4525 30.579 76.4097 30.3673 76.4097 30.1158C76.4097 26.6249 76.4097 23.134 76.4097 19.643C76.4097 18.7168 75.9425 18.0021 75.1361 17.7083C74.2871 17.4145 73.3124 17.6237 72.717 18.296C72.3779 18.6744 72.2925 19.0952 72.2925 19.5584C72.2925 21.1993 72.2925 22.8402 72.2925 24.5209C72.2925 26.4133 72.2925 28.2633 72.2925 30.1582C72.2925 31.8414 70.9334 33.1436 69.2378 33.0615C68.0069 33.0191 66.8187 32.0929 66.565 30.9574C66.5223 30.706 66.4796 30.452 66.4796 30.2005C66.4796 26.6672 66.4796 23.134 66.4796 19.6007C66.4796 18.5923 65.8867 17.8353 64.9095 17.5813C63.764 17.2875 62.5331 18.1291 62.405 19.3069C62.405 19.4762 62.3623 19.6854 62.3623 19.8547C62.3623 23.3033 62.3623 26.7519 62.3623 30.2005C62.3623 31.926 60.7923 33.2706 59.0941 33.0191C57.8632 32.8498 56.8885 31.9684 56.5896 30.8329C56.5469 30.6636 56.5469 30.5391 56.5469 30.3698C56.5921 28.4725 56.5921 26.6224 56.5921 24.73Z" fill="white"/>
<path d="M89.8971 11.7755C84.0414 11.8601 79.1177 16.3595 79.1604 22.4176C79.1604 28.391 83.8279 33.0174 89.8544 33.0174C95.7955 33.0174 100.591 28.264 100.591 22.4176C100.631 16.611 95.7528 11.6908 89.8971 11.7755ZM89.8544 27.4224C87.2242 27.4224 84.9332 25.1093 84.9332 22.4599C84.9332 19.7683 87.1388 17.5796 89.8544 17.5796C92.5699 17.5796 94.861 19.8504 94.8183 22.5844C94.8183 24.9399 92.781 27.3801 89.8544 27.4224Z" fill="white"/>
<path d="M119.177 20.2741C118.753 17.9609 117.607 16.0262 115.784 14.47C112.558 11.736 107.72 10.9791 103.859 12.8714C103.688 12.9561 103.648 12.9138 103.648 12.7445C103.648 11.9028 103.648 11.0612 103.648 10.2196C103.648 9.37802 103.69 8.53641 103.648 7.6948C103.52 5.54845 101.018 4.28853 99.234 5.46628C98.4276 5.97175 97.8749 6.68637 97.8749 7.6948C97.8322 9.84116 97.8749 11.9427 97.8749 14.089C97.8749 14.216 97.9176 14.2584 98.003 14.3405C98.724 14.9282 99.3194 15.6453 99.8695 16.4022C101.44 18.6731 102.035 21.1979 101.651 23.9319C101.44 25.4881 100.844 26.9174 99.9524 28.2221C99.8243 28.3914 99.867 28.4736 99.9524 28.6429C100.588 29.4422 101.269 30.1991 102.075 30.7892C104.452 32.597 107.124 33.3962 110.096 33.0178C112.302 32.724 114.213 31.7977 115.824 30.2838C118.753 27.5498 119.858 24.1859 119.177 20.2741ZM108.697 27.3406C105.981 27.383 103.69 25.1121 103.69 22.4628C103.69 19.7288 106.238 17.5003 108.654 17.5426C111.327 17.585 113.618 19.8135 113.618 22.4628C113.618 25.279 111.159 27.3406 108.697 27.3406Z" fill="white"/>
<path d="M123.599 16.9918C123.599 16.2772 123.641 15.5625 123.556 14.8878C123.471 14.1308 123.132 13.4585 122.579 12.9531C121.943 12.3654 121.137 12.1538 120.288 12.3231C119.014 12.5323 117.954 13.5432 117.826 14.8878C117.826 15.0571 117.741 15.2239 117.911 15.3932C118.464 15.941 118.929 16.6133 119.311 17.2856C120.074 18.5903 120.499 20.0196 120.584 21.4911C120.67 22.5842 120.627 23.7197 120.373 24.8128C120.162 25.5697 119.906 26.3267 119.567 27.0413C119.142 27.8406 118.675 28.5975 118.082 29.3121C117.997 29.3968 117.829 29.4814 117.829 29.6483C117.829 30.1537 117.786 30.6567 117.871 31.1198C118.042 31.9615 118.424 32.6337 119.145 33.1392C119.655 33.4754 120.248 33.6023 120.886 33.56C121.564 33.5177 122.202 33.2662 122.709 32.8031C123.388 32.2154 123.601 31.456 123.601 30.6169C123.601 28.0522 123.601 25.5274 123.601 22.9627C123.599 20.9458 123.641 18.9688 123.599 16.9918Z" fill="white"/>
<path d="M124.002 16.9904C124.002 16.8186 124.005 16.6493 124.008 16.46C124.018 15.9894 124.028 15.4018 123.96 14.864C123.867 14.0498 123.503 13.3326 122.912 12.7898C122.237 12.1649 121.355 11.9183 120.425 12.1026C118.999 12.3367 117.911 13.4721 117.778 14.8665V14.8889C117.778 14.9163 117.773 14.9461 117.77 14.981L117.768 14.9935C117.753 15.1279 117.727 15.352 117.931 15.5537C118.406 16.0243 118.865 16.6468 119.295 17.4012C120.036 18.6662 120.453 20.0481 120.538 21.5122C120.629 22.6924 120.558 23.7855 120.332 24.7616C120.091 25.6206 119.835 26.3352 119.544 26.9453C119.069 27.8392 118.609 28.5438 118.097 29.1614L118.092 29.1663C118.079 29.1763 118.067 29.1887 118.049 29.2012C117.956 29.2759 117.783 29.4128 117.783 29.6494C117.783 29.7789 117.78 29.9108 117.778 30.0254V30.0577C117.77 30.4238 117.763 30.8047 117.83 31.1658C118.024 32.1194 118.456 32.8042 119.187 33.3196L119.2 33.3296C119.669 33.6408 120.217 33.7977 120.83 33.7977C120.91 33.7977 120.996 33.7952 121.081 33.7902C121.832 33.7404 122.51 33.459 123.04 32.976C123.701 32.4033 124.008 31.6563 124.008 30.623V22.9638C124.005 22.2417 124.01 21.5172 124.015 20.8748C124.023 19.5601 124.03 18.2727 124.002 16.9904ZM120.757 24.8836L120.759 24.8761L120.762 24.8637C121.001 23.8328 121.073 22.6924 120.978 21.4798C120.89 19.946 120.45 18.4993 119.677 17.1772C119.227 16.3878 118.745 15.7355 118.24 15.235C118.195 15.1902 118.192 15.1702 118.207 15.0457C118.217 14.991 118.22 14.9461 118.22 14.8988C118.338 13.7161 119.267 12.75 120.483 12.5458H120.491L120.501 12.5433C121.292 12.3865 122.015 12.5857 122.593 13.1185C123.106 13.5891 123.42 14.2091 123.498 14.9163C123.56 15.4018 123.553 15.9073 123.545 16.4426V16.4501C123.543 16.6343 123.54 16.8136 123.54 16.9904V16.9954C123.565 18.2105 123.558 19.453 123.553 20.6556L123.55 20.8723C123.55 21.0939 123.548 21.318 123.548 21.5446C123.545 22.0077 123.543 22.4883 123.543 22.9613V30.6155C123.543 31.5094 123.284 32.1493 122.729 32.6324L122.724 32.6374C122.272 33.0532 121.689 33.2947 121.041 33.3345C120.43 33.3744 119.893 33.2474 119.443 32.9536C118.813 32.5079 118.436 31.9128 118.26 31.0786C118.202 30.7574 118.21 30.4088 118.217 30.0403V30.0328C118.22 29.9208 118.222 29.7839 118.222 29.6469C118.222 29.6245 118.285 29.5747 118.32 29.5448C118.35 29.5224 118.381 29.4975 118.408 29.4676L118.423 29.4477C118.958 28.8053 119.438 28.0708 119.933 27.1395L119.936 27.132C120.245 26.4971 120.513 25.7576 120.757 24.8836Z" fill="white"/>
<path d="M120.629 11.2728C122.41 11.3997 123.598 9.88584 123.598 8.41178C123.598 6.85555 122.324 5.50848 120.754 5.55081C119.141 5.50848 117.868 6.81322 117.825 8.28479C117.785 10.1373 119.099 11.1458 120.629 11.2728Z" fill="white"/>
<path d="M122.864 6.16028C122.286 5.60252 121.535 5.30622 120.754 5.32614C119.927 5.30622 119.143 5.61248 118.543 6.18767C117.965 6.74293 117.621 7.50486 117.598 8.27924C117.581 9.208 117.885 10.0073 118.48 10.585C119.013 11.1029 119.769 11.4241 120.61 11.4938H120.618C120.696 11.4988 120.769 11.5013 120.841 11.5013C121.582 11.5013 122.258 11.2373 122.801 10.7344C123.441 10.1442 123.823 9.27523 123.823 8.40872C123.823 7.5696 123.474 6.7504 122.864 6.16028ZM123.374 8.41121C123.374 9.15571 123.044 9.90021 122.497 10.4082C122.175 10.7045 121.972 11.1427 120.648 11.0481C119.425 10.946 118.013 10.1642 118.056 8.2892C118.096 6.88735 119.332 5.73449 120.754 5.77433H120.761H120.766C120.786 5.77433 120.806 5.77433 120.829 5.77433C121.467 5.77433 122.077 6.02582 122.552 6.48397C123.072 6.98695 123.374 7.68912 123.374 8.41121Z" fill="white"/>
<path d="M143.762 20.7763C143.591 19.8924 143.337 19.0109 142.956 18.2116C142.574 17.4124 142.107 16.6131 141.514 15.9408C140.835 15.1415 140.114 14.4269 139.223 13.8368C138.205 13.1645 137.143 12.6167 135.954 12.3229C135.191 12.1137 134.427 11.9867 133.621 11.9444C132.857 11.9021 132.093 11.9867 131.373 12.1536C130.523 12.3229 129.674 12.5744 128.868 12.9105C127.469 13.5405 126.238 14.3821 125.218 15.4752C125.133 15.6022 125.09 15.6843 125.09 15.8113C125.09 18.0822 125.09 20.353 125.09 22.6263C125.09 24.8549 125.09 27.0859 125.09 29.3144C125.09 29.6082 125.175 29.7775 125.386 29.9867C125.768 30.3652 126.15 30.7013 126.574 31.0374C127.338 31.6251 128.187 32.0882 129.079 32.4667C129.8 32.7605 130.564 32.9722 131.37 33.0967C132.006 33.2236 132.686 33.266 133.322 33.266C133.832 33.266 134.339 33.2236 134.849 33.139C135.952 32.9697 136.972 32.6758 137.947 32.2127C138.753 31.8342 139.517 31.3288 140.238 30.7411C140.873 30.1933 141.468 29.5634 141.936 28.8911C142.403 28.2188 142.827 27.5042 143.167 26.7447C143.634 25.694 143.888 24.5984 143.973 23.463C143.933 22.5417 143.89 21.6602 143.762 20.7763ZM133.154 27.5465C130.438 27.5465 128.19 25.2333 128.19 22.584C128.19 19.85 130.395 17.746 133.028 17.746C135.914 17.746 138.077 19.9745 138.077 22.7932C138.034 25.2333 135.912 27.5067 133.154 27.5465Z" fill="white"/>
<path d="M133.025 17.5244C131.681 17.5244 130.413 18.0423 129.461 18.9835C128.493 19.9372 127.961 21.217 127.961 22.5865C127.961 23.9137 128.519 25.2383 129.488 26.2194C130.483 27.2203 131.784 27.7731 133.151 27.7731C134.52 27.7532 135.811 27.2054 136.791 26.2293C137.728 25.2956 138.275 24.0456 138.301 22.7957C138.301 21.3664 137.765 20.0393 136.796 19.0582C135.814 18.0697 134.477 17.5244 133.025 17.5244ZM133.025 17.9726C135.731 17.9726 137.848 20.0891 137.848 22.7907C137.806 25.2109 135.655 27.2876 133.151 27.3249C130.584 27.3249 128.413 25.1562 128.413 22.5865C128.413 20.0418 130.483 17.9726 133.025 17.9726Z" fill="white"/>
<path d="M144.194 23.4533C144.151 22.4524 144.108 21.6182 143.983 20.7517V20.7442L143.98 20.7343C143.787 19.7358 143.51 18.8568 143.156 18.1148C142.699 17.1612 142.217 16.4017 141.682 15.7942C140.878 14.8505 140.157 14.1882 139.343 13.6503C138.155 12.866 137.095 12.373 136.007 12.1065C135.218 11.8899 134.439 11.7629 133.628 11.7206C132.884 11.6808 132.108 11.753 131.319 11.9347C130.427 12.114 129.571 12.373 128.775 12.7041L128.757 12.7116L128.754 12.7141C127.297 13.3714 126.051 14.2504 125.049 15.3236L125.037 15.336L125.027 15.3535C124.934 15.4954 124.863 15.6199 124.863 15.8141V29.3172C124.863 29.6558 124.966 29.8874 125.228 30.1464C125.604 30.5198 125.989 30.8585 126.438 31.2145C127.169 31.7773 128.006 32.2554 128.996 32.6737C129.732 32.975 130.518 33.1916 131.332 33.3161C131.905 33.4306 132.575 33.4904 133.324 33.4904C133.854 33.4904 134.379 33.4456 134.881 33.3584C136.044 33.1791 137.079 32.8704 138.042 32.4147C138.818 32.0512 139.604 31.5457 140.378 30.9133L140.385 30.9058C141.069 30.3182 141.666 29.6658 142.119 29.0159C142.641 28.2639 143.051 27.5493 143.372 26.8322C143.834 25.7939 144.106 24.6958 144.196 23.4782V23.4757L144.194 23.4533ZM143.744 23.4608C143.654 24.6236 143.395 25.6694 142.955 26.6579C142.649 27.3451 142.254 28.0374 141.747 28.7669C141.315 29.3869 140.742 30.0119 140.089 30.5721C139.34 31.1822 138.587 31.6677 137.848 32.0113C136.929 32.4496 135.934 32.7459 134.811 32.9202C134.311 33.0023 133.809 33.0422 133.321 33.0422C132.61 33.0422 131.97 32.9874 131.415 32.8778L131.405 32.8754H131.397C130.618 32.7533 129.87 32.5467 129.169 32.2603C128.209 31.852 127.408 31.3938 126.717 30.861C126.29 30.5248 125.918 30.1962 125.549 29.8276C125.371 29.6484 125.32 29.5338 125.32 29.3122V15.8141C125.32 15.7568 125.333 15.7195 125.401 15.6174C126.368 14.5866 127.566 13.7474 128.963 13.1224C129.742 12.7988 130.566 12.5498 131.412 12.3804H131.42L131.432 12.3779C132.183 12.2037 132.919 12.1339 133.618 12.1738C134.394 12.2136 135.143 12.3356 135.901 12.5448L135.914 12.5473H135.919C136.951 12.8037 137.964 13.2743 139.104 14.0263C139.88 14.5392 140.574 15.1767 141.35 16.0905C141.86 16.6682 142.32 17.3952 142.757 18.3091C143.096 19.0187 143.362 19.8628 143.545 20.814C143.659 21.6605 143.701 22.4797 143.744 23.4608Z" fill="white"/>
<path d="M157.513 27.2951C157.428 27.5889 157.385 27.8827 157.302 28.179C157.048 29.1476 156.581 30.0291 155.903 30.786C155.31 31.4583 154.587 31.9638 153.823 32.3846C153.102 32.7631 152.338 32.9722 151.532 33.0569C151.235 33.0992 150.896 33.0992 150.597 33.0992C147.796 33.0992 144.953 33.0992 142.152 33.0992C141.559 33.0992 141.049 32.8477 140.582 32.5116C140.328 32.3024 140.115 32.0908 139.946 31.8393C139.861 31.7546 139.861 31.67 139.989 31.5878C140.71 31.167 141.348 30.6192 141.941 30.0739C142.576 29.4439 143.129 28.7692 143.554 27.9699C143.596 27.9275 143.639 27.8852 143.639 27.8006C143.767 27.3374 144.106 27.3374 144.488 27.3374C146.483 27.3374 148.52 27.3374 150.515 27.3374C150.896 27.3374 151.278 27.2528 151.492 26.8743C151.703 26.4535 151.663 26.0327 151.492 25.6542C151.321 25.3181 150.982 25.1487 150.6 25.1487C149.115 25.1487 147.588 25.1487 146.101 25.1487C145.676 25.1487 145.252 25.0641 144.784 25.1064C145.124 23.971 145.124 22.7932 145.081 21.6578C144.995 20.4377 144.656 19.26 144.104 18.1245C143.594 17.1161 143.001 16.1475 142.195 15.3059C141.813 14.8851 141.388 14.549 140.964 14.1705C140.878 14.0858 140.878 14.0435 140.921 13.9613C141.642 13.1197 142.534 12.5321 143.594 12.1113C144.443 11.7751 145.335 11.6481 146.267 11.6905C148.814 11.6905 151.359 11.6905 153.906 11.6905C154.755 11.6905 155.39 12.1113 155.9 12.7412C156.24 13.162 156.493 13.6252 156.536 14.1705C156.621 14.7581 156.536 15.3482 156.197 15.896C155.815 16.526 155.305 16.9891 154.627 17.2431C154.416 17.3278 154.16 17.3701 153.906 17.3701C151.359 17.3701 148.814 17.3701 146.267 17.3701C145.799 17.3701 145.332 17.4971 144.993 17.8756C144.654 18.2964 144.782 19.1803 145.204 19.4741C145.5 19.6833 145.797 19.7679 146.138 19.7679C147.623 19.7679 149.108 19.7679 150.595 19.7679C151.359 19.7679 152.165 19.8103 152.886 20.0617C153.521 20.2709 154.117 20.6095 154.667 20.988C155.644 21.745 156.408 22.6712 156.958 23.7643C157.212 24.2698 157.382 24.8151 157.425 25.4052C157.425 25.4475 157.425 25.4475 157.468 25.4899C157.513 26.1597 157.513 26.7075 157.513 27.2951Z" fill="white"/>
<path d="M157.945 25.4759L157.94 25.3912L157.9 25.3514C157.854 24.7886 157.691 24.2209 157.412 23.6657C156.847 22.5452 156.058 21.589 155.064 20.8172L155.056 20.8097L155.049 20.8047C154.39 20.3515 153.79 20.0403 153.215 19.851C152.441 19.5796 151.584 19.5448 150.848 19.5448H146.392C146.085 19.5448 145.837 19.4676 145.588 19.2908C145.447 19.1937 145.332 18.9621 145.294 18.7032C145.256 18.4268 145.304 18.1703 145.422 18.0184C145.678 17.7371 146.048 17.5926 146.523 17.5926H154.162C154.451 17.5926 154.737 17.5428 154.963 17.4507C155.656 17.1918 156.222 16.7087 156.644 16.0115C156.988 15.4538 157.113 14.8238 157.015 14.144C156.973 13.6162 156.754 13.1256 156.33 12.5978C155.712 11.8334 155.001 11.4624 154.159 11.4624H146.525C145.52 11.42 144.616 11.562 143.762 11.9006C142.621 12.3538 141.717 12.9787 141.001 13.8104L140.986 13.8253L140.968 13.8527C140.875 14.0295 140.9 14.1739 141.051 14.3233L141.059 14.3308C141.172 14.4329 141.282 14.53 141.39 14.6221C141.672 14.8636 141.988 15.14 142.275 15.4538L142.28 15.4587C142.958 16.1659 143.553 17.0424 144.149 18.2176C144.699 19.3531 145.02 20.5134 145.103 21.6662C145.143 22.6996 145.156 23.8997 144.817 25.0376L144.721 25.3564L145.053 25.324C145.322 25.2991 145.591 25.3215 145.827 25.3389C145.982 25.3539 146.166 25.3663 146.352 25.3663H150.851C151.165 25.3663 151.416 25.5033 151.539 25.7448C151.7 26.1034 151.702 26.4445 151.544 26.7632C151.406 27.0047 151.172 27.1068 150.765 27.1068H144.739C144.362 27.1068 143.847 27.1068 143.674 27.7318L143.664 27.7592V27.7866C143.659 27.794 143.649 27.8015 143.646 27.804L143.624 27.8264L143.606 27.8588C143.232 28.5659 142.732 29.2158 142.038 29.9055C141.466 30.4309 140.84 30.9712 140.132 31.3871L140.119 31.3945C139.968 31.4916 139.926 31.6062 139.916 31.6859C139.906 31.7904 139.941 31.89 140.021 31.9747C140.179 32.2112 140.385 32.4279 140.689 32.6794L140.705 32.6893C141.3 33.1201 141.84 33.3193 142.405 33.3193H150.851C151.157 33.3193 151.501 33.3193 151.818 33.272C152.685 33.1823 153.453 32.9582 154.164 32.5872H154.167L154.189 32.5748C155.104 32.0693 155.782 31.5464 156.327 30.9289C157.023 30.152 157.51 29.2457 157.777 28.2323C157.819 28.0729 157.854 27.921 157.882 27.794C157.91 27.6596 157.945 27.5052 157.988 27.3533L157.998 27.3234V27.2911C157.99 26.7059 157.99 26.1532 157.945 25.4759ZM144.734 27.5699H150.76C151.331 27.5699 151.715 27.3807 151.936 26.9923L151.941 26.9823C152.162 26.5391 152.162 26.0511 151.946 25.5705L151.941 25.5605C151.738 25.1597 151.338 24.9306 150.846 24.9306H146.347C146.196 24.9306 146.045 24.9206 145.887 24.9082L145.859 24.9057C145.696 24.8932 145.515 24.8783 145.327 24.8758C145.603 23.7703 145.588 22.6373 145.55 21.6563V21.6463C145.5 20.9292 145.362 20.2071 145.136 19.4925C145.191 19.5572 145.251 19.6145 145.317 19.6618C145.641 19.8909 145.977 19.9955 146.382 19.9955H150.838C151.539 19.9955 152.348 20.0278 153.056 20.2768C153.599 20.4561 154.162 20.7499 154.775 21.1707C155.717 21.9003 156.463 22.8066 156.998 23.8674C157.252 24.3728 157.402 24.8932 157.443 25.4186C157.443 25.4883 157.458 25.5356 157.49 25.5829C157.53 26.2005 157.53 26.7209 157.53 27.2687C157.493 27.4031 157.463 27.5376 157.432 27.6695L157.415 27.7517C157.387 27.8737 157.36 28.0007 157.324 28.1277C157.078 29.0739 156.624 29.9205 155.975 30.6451C155.463 31.2252 154.822 31.7182 153.958 32.1938C153.293 32.5424 152.572 32.7541 151.758 32.8387H151.745C151.464 32.8785 151.132 32.8785 150.843 32.8785H142.398C141.935 32.8785 141.481 32.7067 140.968 32.3357C140.72 32.1316 140.544 31.9498 140.408 31.7581C141.149 31.3173 141.777 30.772 142.345 30.2467L142.35 30.2417C143.068 29.5295 143.588 28.8523 143.985 28.1152C144.038 28.0605 144.101 27.9758 144.111 27.8488C144.189 27.5924 144.329 27.5699 144.734 27.5699ZM145.073 17.7271L145.063 17.7396C144.89 17.9562 144.802 18.2824 144.824 18.631C144.741 18.4293 144.651 18.2301 144.553 18.0284C143.943 16.8183 143.325 15.9045 142.609 15.1575C142.327 14.8462 142.031 14.5897 141.717 14.3183L141.689 14.2934C141.659 14.2661 141.629 14.2412 141.596 14.2138C141.531 14.159 141.466 14.1017 141.4 14.042C142.056 13.2999 142.883 12.7372 143.925 12.3239C144.721 12.0101 145.563 11.8782 146.502 11.9205H146.507H154.152C154.848 11.9205 155.443 12.2367 155.97 12.8866C156.335 13.3398 156.523 13.7531 156.556 14.1914V14.2088C156.641 14.7889 156.536 15.3193 156.247 15.7874C155.875 16.3975 155.405 16.8058 154.807 17.0349L154.787 17.0424C154.609 17.1121 154.383 17.1519 154.152 17.1519H146.512C145.905 17.1494 145.42 17.3437 145.073 17.7271Z" fill="white"/>
<path d="M45.8728 13.4178C45.8728 13.1663 45.8301 13.124 45.5763 13.2086C44.9835 13.4601 44.4308 13.7141 43.8782 14.0079C42.5192 14.7225 41.1627 15.4795 39.8463 16.2364C38.7435 16.8664 37.598 17.4988 36.4952 18.1288C35.4779 18.7164 34.4153 19.3066 33.3552 19.8544C32.7196 20.1905 32.1243 20.4843 31.4887 20.823C30.0041 21.6222 28.4767 22.4215 27.0323 23.2631C25.9295 23.8931 24.784 24.5255 23.7641 25.2825C23.4677 25.4916 23.2969 25.7456 23.2969 26.1664C23.2969 34.7045 23.2969 43.2426 23.2969 51.7807C23.3823 51.7807 23.425 51.7807 23.5079 51.7807C23.7189 51.6114 24.0178 51.5292 24.2288 51.4022C24.9498 51.0238 25.7135 50.6453 26.4344 50.2668C27.5372 49.6792 28.5998 49.0891 29.7026 48.4591C30.4236 48.0383 31.1446 47.6598 31.9082 47.239C33.0537 46.609 34.1992 45.9343 35.3447 45.3043C36.3219 44.7565 37.3393 44.2535 38.3567 43.7481C39.6303 43.0758 40.9039 42.401 42.175 41.6864C43.3205 41.0564 44.466 40.3816 45.5261 39.6247C45.7371 39.4554 45.9506 39.2885 45.9506 38.9524C45.8728 30.4093 45.8728 21.9136 45.8728 13.4178ZM38.3617 34.3634C38.3617 34.5725 38.1909 34.6995 38.0226 34.8265C37.4297 35.2897 36.8344 35.6681 36.1988 36.0466C35.0106 36.7612 33.7797 37.3937 32.5061 37.9813C32.0816 38.1905 31.6143 38.4021 31.1471 38.5689C31.1044 38.6113 31.0189 38.6113 30.9762 38.6113C30.9762 36.6342 30.9762 34.6572 30.9762 32.6802C30.9762 31.7962 30.9762 30.9546 30.9762 30.0732C30.9762 29.9462 31.0189 29.8217 31.1471 29.7794C31.4435 29.6524 31.7399 29.4855 31.9961 29.3162C33.2271 28.6863 34.458 28.0115 35.6889 27.3815C36.4952 26.9607 37.2589 26.5399 38.0653 26.1191C38.1507 26.0768 38.1934 26.0768 38.2763 26.0345C38.2763 26.0768 38.2763 26.1191 38.2763 26.1191C38.2763 27.6753 38.319 29.2316 38.3617 30.7878C38.3617 31.6294 38.4044 32.471 38.4044 33.2703C38.4044 33.6488 38.3617 33.9849 38.3617 34.3634Z" fill="white"/>
<path d="M38.5876 30.7889V30.7839C38.5499 29.4194 38.5022 27.7237 38.5022 26.1202V25.667L38.1706 25.8388C38.148 25.8512 38.1329 25.8562 38.1078 25.8637L38.1003 25.8662C38.0676 25.8761 38.0299 25.8886 37.9872 25.9085H37.9822L37.9596 25.921C37.623 26.0978 37.2864 26.277 36.9623 26.4513L36.7714 26.5534C36.3946 26.7551 35.9927 26.9717 35.5882 27.1834C34.9828 27.4921 34.3674 27.8183 33.7368 28.152L33.6565 28.1943C33.0787 28.5006 32.4808 28.8168 31.893 29.1181L31.8704 29.1305C31.5991 29.3098 31.3202 29.4617 31.064 29.5713C30.863 29.6435 30.75 29.8277 30.75 30.0742V38.8364H30.9761C31.0364 38.8364 31.1544 38.8364 31.2549 38.7667C31.6769 38.6123 32.1191 38.4206 32.5989 38.184C33.9755 37.5491 35.1888 36.9142 36.3092 36.2394C36.8543 35.9157 37.4974 35.5198 38.148 35.0118L38.1581 35.0044C38.3364 34.8724 38.5826 34.6881 38.5826 34.3669C38.5826 34.1777 38.5927 33.9934 38.6027 33.8341C38.6127 33.6847 38.6253 33.4855 38.6253 33.2738C38.6253 32.863 38.6153 32.4173 38.6052 32.0587C38.6002 31.7076 38.5876 31.2495 38.5876 30.7889ZM38.1756 33.2713C38.1756 33.4606 38.1656 33.6448 38.1556 33.8042C38.1455 33.9536 38.1329 34.1528 38.1329 34.3644C38.1329 34.4466 38.0701 34.5113 37.8893 34.6458L37.8792 34.6558C37.2562 35.1413 36.6232 35.5372 36.0831 35.8584C34.9828 36.5208 33.7821 37.1482 32.413 37.7807L32.3979 37.7881L32.3954 37.7906C31.9608 38.0048 31.5714 38.1766 31.2072 38.3135V30.0767C31.2072 30.0219 31.2198 29.997 31.2223 29.9946L31.2449 29.9846C31.5338 29.8601 31.8352 29.6958 32.1166 29.509C32.7119 29.2052 33.3123 28.8865 33.8926 28.5778L34.2468 28.391C34.7542 28.1221 35.2818 27.8457 35.7967 27.5818C36.1333 27.405 36.4725 27.2232 36.799 27.0489L36.9874 26.9493C37.3291 26.7651 37.6883 26.5733 38.0526 26.3816C38.0576 27.8109 38.0953 29.26 38.1329 30.6644L38.1355 30.7913C38.1355 31.1574 38.1455 31.5259 38.153 31.8844L38.1581 32.1359C38.1656 32.5293 38.1756 32.9003 38.1756 33.2713Z" fill="white"/>
<path d="M46.106 13.4193C46.106 13.2948 46.106 13.1105 45.9578 13.006C45.807 12.8989 45.6262 12.9586 45.5131 12.996L45.4981 12.9985L45.4905 13.001C44.8123 13.2898 44.2671 13.5463 43.7748 13.8077C42.5539 14.4476 41.2326 15.1797 39.7354 16.0412C39.3184 16.2803 38.8888 16.5218 38.4718 16.7558C38.3336 16.833 38.198 16.9102 38.0623 16.9874C37.482 17.3086 36.9193 17.6273 36.3818 17.9336C35.2589 18.5835 34.2038 19.1612 33.2492 19.6542C32.9603 19.8085 32.674 19.9555 32.3951 20.0974L32.3424 20.1248C32.0309 20.2841 31.7118 20.451 31.3827 20.6253C31.0763 20.7921 30.7598 20.9614 30.4558 21.1233L30.4357 21.1332C29.2676 21.7582 28.0593 22.4031 26.9213 23.0679C26.866 23.1003 26.8108 23.1302 26.7555 23.1625C26.7003 23.1949 26.645 23.2248 26.5897 23.2572L26.5671 23.2696C25.5774 23.8348 24.5549 24.4175 23.633 25.0997C23.2512 25.3686 23.0703 25.7073 23.0703 26.1629V52.0013H23.5928L23.6531 51.9441C23.7561 51.8619 23.8993 51.7997 24.0375 51.7374L24.0576 51.7274C24.153 51.6851 24.251 51.6403 24.3389 51.588C24.6554 51.4212 25.0147 51.2369 25.4317 51.0253C25.7683 50.856 26.1426 50.6642 26.5395 50.4576C27.5594 49.9148 28.632 49.3221 29.8152 48.6449C30.285 48.371 30.7472 48.1195 31.237 47.8531L31.3124 47.8132C31.4154 47.756 31.5184 47.7012 31.6239 47.6439C31.752 47.5742 31.8826 47.5045 32.0133 47.4323C32.6111 47.1036 33.2166 46.76 33.734 46.4637L33.9074 46.3641C34.4148 46.0777 34.9373 45.7814 35.4498 45.4976C36.3868 44.9747 37.3791 44.4816 38.3387 44.0036L38.4668 43.9413L38.4693 43.9388C39.8107 43.2317 41.0241 42.5893 42.2776 41.8821C43.6567 41.1227 44.7294 40.4653 45.6488 39.808L45.6613 39.798L45.6714 39.7905C45.8925 39.6113 46.1688 39.3897 46.1688 38.9514C46.106 30.4108 46.106 21.7731 46.106 13.4193ZM45.7267 38.9539C45.7267 39.178 45.5885 39.2901 45.3951 39.4444L45.3875 39.4519C44.4857 40.0943 43.4306 40.7442 42.0666 41.4937C40.8432 42.1834 39.6173 42.8333 38.2558 43.5504L38.0849 43.6351C37.1404 44.1057 36.1632 44.5937 35.2388 45.1091C34.6409 45.4378 34.0355 45.7814 33.5155 46.0777C32.9553 46.3964 32.3775 46.7276 31.7998 47.0438C31.6214 47.1434 31.443 47.2405 31.2672 47.3351C31.2119 47.365 31.1541 47.3974 31.0989 47.4273C30.5613 47.7186 30.079 47.98 29.5891 48.2664C28.4813 48.9013 27.4137 49.4915 26.3285 50.0691C26.0346 50.2235 25.7281 50.3804 25.4291 50.5348L25.2031 50.6518C24.8489 50.8311 24.4821 51.0178 24.1304 51.2021L24.1204 51.2046L24.1103 51.2095C24.05 51.2469 23.9772 51.2793 23.8993 51.3141L23.8541 51.334C23.7536 51.3789 23.633 51.4311 23.5175 51.4984V26.1654C23.5175 25.8492 23.623 25.6525 23.8892 25.4658L23.8968 25.4608L23.8993 25.4583C24.8137 24.781 25.8261 24.2033 26.8058 23.6456C26.8359 23.6282 26.8635 23.6132 26.8937 23.5958C26.9741 23.551 27.0595 23.5037 27.1399 23.4564C28.2703 22.7965 29.4685 22.1566 30.6291 21.5366L30.6568 21.5216C30.9632 21.3573 31.2798 21.188 31.5887 21.0212C31.85 20.8817 32.1112 20.7473 32.365 20.6178C32.4328 20.5829 32.5031 20.5481 32.571 20.5132L32.7116 20.441C32.9553 20.3165 33.204 20.187 33.4552 20.0551C34.4223 19.5546 35.4523 18.9893 36.6028 18.3245C37.0198 18.0855 37.4494 17.844 37.8664 17.6099C38.0046 17.5327 38.1402 17.4555 38.2759 17.3783C38.9014 17.0297 39.449 16.7185 39.9514 16.4322C41.4009 15.6005 42.7172 14.8709 43.9783 14.2086C44.4681 13.9497 44.9956 13.7007 45.6387 13.4268C45.6488 21.7756 45.6488 30.4133 45.7267 38.9539Z" fill="white"/>
<path d="M33.992 6.43656C33.9066 6.39423 33.781 6.39423 33.6529 6.3519C33.0601 6.3519 32.5074 6.30958 31.912 6.30958C31.7412 6.30958 31.701 6.26725 31.701 6.10042C31.701 5.84893 31.6583 5.59495 31.6583 5.34347C31.6583 5.17415 31.6156 5.04965 31.4473 4.96499C29.0282 3.57808 26.6091 2.18868 24.2327 0.844099C23.7654 0.547793 23.2555 0.293816 22.7882 0H22.7455C22.4491 0.169318 22.1527 0.293816 21.8537 0.463134C16.8899 3.07013 11.9688 5.80411 7.04511 8.5381C4.96512 9.71585 2.88764 10.8513 0.850359 12.1137C0.722244 12.1983 0.596641 12.2407 0.51123 12.3652C0.722244 12.4922 0.978475 12.5743 1.14678 12.659C2.88764 13.5006 4.54058 14.4244 6.23874 15.3506C10.778 17.8331 15.2771 20.3978 19.8592 22.838C20.7936 23.3434 21.7683 23.8464 22.7455 24.2672C22.9163 24.3519 23.0846 24.3519 23.2555 24.2672C30.342 20.3978 37.4285 16.5707 44.4724 12.7013C44.5151 12.659 44.6005 12.659 44.6432 12.5743C41.1213 10.5151 37.5566 8.45344 33.992 6.43656ZM19.3944 11.9867C19.2663 12.029 19.1834 12.0714 19.0553 12.029C17.6134 11.2297 16.1689 10.4305 14.6843 9.63119C15.1515 9.3797 15.5334 9.16806 15.9579 8.9589C16.9753 8.41111 17.9525 7.90813 18.9699 7.36034C19.0553 7.31801 19.1407 7.27568 19.2663 7.31801C20.6655 8.11729 22.0673 8.91657 23.4665 9.71585L23.5092 9.75818C23.0419 10.0097 22.6174 10.2213 22.1929 10.4728C21.2609 10.9783 20.3264 11.4837 19.3944 11.9867ZM32.5074 14.2999C30.8092 15.2685 29.1136 16.1923 27.3727 17.1609C27.2873 17.2032 27.2019 17.2878 27.0336 17.2032C25.2526 16.1947 23.4263 15.2261 21.5598 14.2177C22.0698 13.9239 22.5772 13.6699 23.0445 13.4184C24.3181 12.7461 25.5917 12.0714 26.8628 11.3991C26.9909 11.3567 27.0738 11.3144 27.2019 11.3991C28.9428 12.283 30.7238 13.2068 32.4647 14.0907C32.5074 14.1331 32.5501 14.133 32.6355 14.1754C32.633 14.2177 32.5476 14.2575 32.5074 14.2999Z" fill="white"/>
<path d="M112.447 48.3484C112.006 48.3484 111.591 48.266 111.203 48.1014C110.818 47.9324 110.48 47.7049 110.187 47.4189C109.899 47.1329 109.669 46.7992 109.499 46.4179C109.333 46.0322 109.25 45.6206 109.25 45.1829C109.25 44.7452 109.333 44.3336 109.499 43.9479C109.669 43.5622 109.899 43.2264 110.187 42.9404C110.48 42.6501 110.818 42.4226 111.203 42.2579C111.591 42.0889 112.006 42.0044 112.447 42.0044C112.884 42.0044 113.295 42.0867 113.679 42.2514C114.064 42.4161 114.4 42.6392 114.688 42.9209C114.977 43.2026 115.206 43.5341 115.376 43.9154C115.547 44.2967 115.636 44.7019 115.645 45.1309V47.4644C115.645 47.59 115.621 47.707 115.573 47.8154C115.529 47.9194 115.466 48.0125 115.383 48.0949C115.304 48.1729 115.21 48.2335 115.101 48.2769C114.992 48.3245 114.876 48.3484 114.754 48.3484C114.588 48.3484 114.442 48.3115 114.315 48.2379C114.193 48.1642 114.094 48.0645 114.02 47.9389C113.784 48.0689 113.535 48.1707 113.273 48.2444C113.011 48.3137 112.736 48.3484 112.447 48.3484ZM112.447 46.6129C112.648 46.6129 112.836 46.5761 113.011 46.5024C113.19 46.4287 113.345 46.3269 113.476 46.1969C113.607 46.0669 113.71 45.9152 113.784 45.7419C113.863 45.5686 113.902 45.3822 113.902 45.1829C113.902 44.9836 113.863 44.7972 113.784 44.6239C113.71 44.4506 113.607 44.2989 113.476 44.1689C113.345 44.0389 113.19 43.9371 113.011 43.8634C112.836 43.7897 112.648 43.7529 112.447 43.7529C112.251 43.7529 112.065 43.7897 111.891 43.8634C111.716 43.9371 111.561 44.0389 111.425 44.1689C111.294 44.2989 111.189 44.4506 111.111 44.6239C111.037 44.7972 110.999 44.9836 110.999 45.1829C110.999 45.3822 111.037 45.5686 111.111 45.7419C111.189 45.9152 111.294 46.0669 111.425 46.1969C111.561 46.3269 111.716 46.4287 111.891 46.5024C112.065 46.5761 112.251 46.6129 112.447 46.6129Z" fill="white"/>
<path d="M117.529 45.1829C117.529 44.7452 117.612 44.3336 117.778 43.9479C117.949 43.5622 118.178 43.2264 118.466 42.9404C118.759 42.6501 119.097 42.4226 119.482 42.2579C119.871 42.0889 120.286 42.0044 120.727 42.0044C121.168 42.0044 121.583 42.0889 121.972 42.2579C122.36 42.4226 122.699 42.6501 122.987 42.9404C123.276 43.2264 123.503 43.5622 123.669 43.9479C123.839 44.3336 123.924 44.7452 123.924 45.1829C123.924 45.4992 123.881 45.8004 123.793 46.0864C123.706 46.3724 123.581 46.6389 123.42 46.8859C123.559 47.0332 123.682 47.2326 123.787 47.4839C123.896 47.7352 123.95 48.058 123.95 48.4524C123.95 48.8857 123.878 49.2519 123.734 49.5509C123.594 49.8499 123.407 50.0925 123.171 50.2789C122.935 50.4652 122.664 50.5995 122.358 50.6819C122.052 50.7685 121.736 50.8119 121.408 50.8119C121.33 50.8119 121.253 50.8097 121.179 50.8054C121.109 50.801 121.037 50.7989 120.963 50.7989C120.814 50.7989 120.677 50.8184 120.55 50.8574C120.423 50.9007 120.281 50.9874 120.124 51.1174C119.962 51.2517 119.79 51.3189 119.606 51.3189C119.488 51.3189 119.373 51.295 119.259 51.2474C119.15 51.1997 119.052 51.1347 118.964 51.0524C118.877 50.9744 118.807 50.8812 118.755 50.7729C118.702 50.6689 118.676 50.5584 118.676 50.4414C118.676 50.294 118.731 50.1402 118.84 49.9799C118.949 49.8195 119.102 49.6722 119.298 49.5379C119.499 49.4079 119.737 49.2995 120.013 49.2129C120.288 49.1262 120.591 49.0829 120.923 49.0829C121.185 49.0829 121.399 49.0742 121.565 49.0569C121.736 49.0395 121.869 49.007 121.965 48.9594C122.066 48.916 122.133 48.8554 122.168 48.7774C122.208 48.6994 122.227 48.5975 122.227 48.4719C122.227 48.3505 122.21 48.2574 122.175 48.1924C122.144 48.1274 122.116 48.0797 122.09 48.0494C121.67 48.2487 121.216 48.3484 120.727 48.3484C120.286 48.3484 119.871 48.266 119.482 48.1014C119.097 47.9324 118.759 47.7049 118.466 47.4189C118.178 47.1329 117.949 46.7992 117.778 46.4179C117.612 46.0322 117.529 45.6206 117.529 45.1829ZM119.279 45.1829C119.279 45.3822 119.316 45.5686 119.39 45.7419C119.469 45.9152 119.574 46.0669 119.705 46.1969C119.84 46.3269 119.995 46.4287 120.17 46.5024C120.345 46.5761 120.53 46.6129 120.727 46.6129C120.928 46.6129 121.116 46.5761 121.29 46.5024C121.469 46.4287 121.624 46.3269 121.755 46.1969C121.887 46.0669 121.989 45.9152 122.063 45.7419C122.142 45.5686 122.181 45.3822 122.181 45.1829C122.181 44.9836 122.142 44.7972 122.063 44.6239C121.989 44.4506 121.887 44.2989 121.755 44.1689C121.624 44.0389 121.469 43.9371 121.29 43.8634C121.116 43.7897 120.928 43.7529 120.727 43.7529C120.53 43.7529 120.345 43.7897 120.17 43.8634C119.995 43.9371 119.84 44.0389 119.705 44.1689C119.574 44.2989 119.469 44.4506 119.39 44.6239C119.316 44.7972 119.279 44.9836 119.279 45.1829Z" fill="white"/>
<path d="M127.479 45.9564C127.619 46.1817 127.8 46.3594 128.023 46.4894C128.246 46.6194 128.491 46.6844 128.757 46.6844C128.927 46.6844 129.063 46.6714 129.163 46.6454C129.268 46.6151 129.362 46.5761 129.445 46.5284C129.532 46.4721 129.618 46.4331 129.701 46.4114C129.788 46.3854 129.871 46.3724 129.95 46.3724C130.072 46.3724 130.183 46.3962 130.284 46.4439C130.389 46.4916 130.478 46.5566 130.552 46.6389C130.631 46.7212 130.692 46.8166 130.736 46.9249C130.78 47.0332 130.801 47.1459 130.801 47.2629C130.801 47.4102 130.76 47.551 130.677 47.6854C130.594 47.8154 130.467 47.9302 130.297 48.0299C130.127 48.1252 129.912 48.2032 129.655 48.2639C129.401 48.3202 129.102 48.3484 128.757 48.3484C128.316 48.3484 127.899 48.266 127.506 48.1014C127.117 47.9324 126.776 47.7049 126.484 47.4189C126.191 47.1329 125.959 46.7992 125.789 46.4179C125.619 46.0322 125.533 45.6206 125.533 45.1829C125.533 44.7409 125.619 44.3271 125.789 43.9414C125.959 43.5557 126.191 43.2199 126.484 42.9339C126.776 42.6436 127.117 42.4161 127.506 42.2514C127.899 42.0867 128.316 42.0044 128.757 42.0044C129.194 42.0044 129.605 42.0867 129.989 42.2514C130.378 42.4117 130.716 42.6349 131.005 42.9209C131.297 43.2026 131.529 43.5341 131.699 43.9154C131.874 44.2967 131.965 44.7041 131.974 45.1374C131.974 45.3844 131.893 45.5837 131.732 45.7354C131.575 45.8827 131.369 45.9564 131.116 45.9564H127.479ZM130.185 44.5134C130.063 44.2534 129.88 44.0454 129.635 43.8894C129.39 43.7334 129.109 43.6554 128.79 43.6554C128.462 43.6554 128.183 43.7377 127.951 43.9024C127.72 44.0627 127.545 44.2664 127.427 44.5134H130.185Z" fill="white"/>
<path d="M133.656 45.0919C133.656 44.6672 133.736 44.2686 133.898 43.8959C134.064 43.5189 134.287 43.1917 134.566 42.9144C134.85 42.6327 135.18 42.4117 135.556 42.2514C135.931 42.0867 136.333 42.0044 136.761 42.0044C137.194 42.0044 137.602 42.0867 137.986 42.2514C138.371 42.4117 138.709 42.6327 139.002 42.9144C139.295 43.1917 139.526 43.5189 139.697 43.8959C139.867 44.2686 139.952 44.6672 139.952 45.0919V47.4319C139.952 47.5532 139.93 47.6659 139.887 47.7699C139.843 47.8695 139.782 47.9584 139.703 48.0364C139.629 48.11 139.539 48.1685 139.435 48.2119C139.33 48.2552 139.218 48.2769 139.1 48.2769C138.978 48.2769 138.862 48.2552 138.753 48.2119C138.648 48.1685 138.554 48.11 138.471 48.0364C138.393 47.9584 138.329 47.8695 138.281 47.7699C138.238 47.6659 138.216 47.5532 138.216 47.4319V45.0984C138.211 44.9121 138.168 44.7366 138.085 44.5719C138.006 44.4072 137.899 44.2642 137.764 44.1429C137.628 44.0172 137.473 43.9197 137.299 43.8504C137.128 43.7767 136.949 43.7399 136.761 43.7399C136.573 43.7399 136.397 43.7746 136.231 43.8439C136.069 43.9089 135.927 44.0021 135.805 44.1234C135.687 44.2404 135.591 44.3791 135.516 44.5394C135.446 44.6997 135.409 44.8731 135.405 45.0594V47.4319C135.405 47.5532 135.383 47.6659 135.339 47.7699C135.296 47.8695 135.235 47.9584 135.156 48.0364C135.077 48.11 134.986 48.1685 134.881 48.2119C134.78 48.2552 134.671 48.2769 134.553 48.2769C134.435 48.2769 134.322 48.2552 134.212 48.2119C134.103 48.1685 134.007 48.11 133.924 48.0364C133.841 47.9584 133.776 47.8695 133.728 47.7699C133.68 47.6659 133.656 47.5532 133.656 47.4319V45.0919Z" fill="white"/>
<path d="M145.106 48.3484C144.652 48.3484 144.226 48.2682 143.828 48.1079C143.431 47.9475 143.084 47.7265 142.787 47.4449C142.494 47.1632 142.26 46.8317 142.086 46.4504C141.915 46.0647 141.83 45.6487 141.83 45.2024C141.83 44.7561 141.915 44.3379 142.086 43.9479C142.26 43.5579 142.496 43.2199 142.793 42.9339C143.09 42.6436 143.437 42.4161 143.835 42.2514C144.232 42.0867 144.656 42.0044 145.106 42.0044C145.539 42.0044 145.945 42.0759 146.325 42.2189C146.705 42.3619 147.035 42.5764 147.314 42.8624C147.419 42.9707 147.498 43.0877 147.55 43.2134C147.602 43.3391 147.629 43.4626 147.629 43.5839C147.629 43.7182 147.598 43.8374 147.537 43.9414C147.476 44.0454 147.399 44.1342 147.308 44.2079C147.22 44.2816 147.126 44.3379 147.026 44.3769C146.925 44.4159 146.836 44.4354 146.757 44.4354C146.6 44.4354 146.458 44.3986 146.331 44.3249C146.205 44.2469 146.082 44.1624 145.964 44.0714C145.807 43.9544 145.654 43.8742 145.506 43.8309C145.362 43.7876 145.213 43.7659 145.06 43.7659C144.855 43.7659 144.663 43.8049 144.484 43.8829C144.309 43.9609 144.156 44.0649 144.025 44.1949C143.898 44.3249 143.798 44.4766 143.724 44.6499C143.654 44.8189 143.619 44.9966 143.619 45.1829C143.619 45.3476 143.652 45.5122 143.717 45.6769C143.783 45.8416 143.874 45.9911 143.992 46.1254C144.11 46.2597 144.25 46.3702 144.412 46.4569C144.573 46.5436 144.75 46.5891 144.942 46.5934C144.964 46.5934 144.984 46.5956 145.001 46.5999C145.023 46.5999 145.045 46.5999 145.067 46.5999C145.22 46.5999 145.368 46.5782 145.512 46.5349C145.661 46.4916 145.812 46.4092 145.964 46.2879C146.078 46.1969 146.198 46.1146 146.325 46.0409C146.451 45.9672 146.591 45.9304 146.744 45.9304C146.827 45.9304 146.919 45.9499 147.019 45.9889C147.12 46.0236 147.214 46.0777 147.301 46.1514C147.393 46.2251 147.469 46.3161 147.53 46.4244C147.592 46.5284 147.622 46.6476 147.622 46.7819C147.622 46.9032 147.596 47.0267 147.543 47.1524C147.495 47.2737 147.419 47.3864 147.314 47.4904C147.035 47.7764 146.703 47.9909 146.318 48.1339C145.934 48.2769 145.53 48.3484 145.106 48.3484Z" fill="white"/>
<path d="M149.395 42.8624C149.395 42.7454 149.417 42.6349 149.461 42.5309C149.509 42.4269 149.57 42.3359 149.644 42.2579C149.723 42.1799 149.814 42.1192 149.919 42.0759C150.029 42.0282 150.142 42.0044 150.26 42.0044C150.382 42.0044 150.496 42.0282 150.601 42.0759C150.706 42.1192 150.797 42.1799 150.876 42.2579C150.959 42.3359 151.022 42.4269 151.066 42.5309C151.114 42.6349 151.138 42.7454 151.138 42.8624V45.2869C151.138 45.4776 151.173 45.6552 151.243 45.8199C151.313 45.9802 151.409 46.1211 151.531 46.2424C151.653 46.3594 151.798 46.4526 151.964 46.5219C152.13 46.5869 152.311 46.6194 152.507 46.6194C152.7 46.6194 152.879 46.5826 153.045 46.5089C153.211 46.4352 153.353 46.3356 153.471 46.2099C153.593 46.0842 153.689 45.9391 153.759 45.7744C153.829 45.6054 153.864 45.4256 153.864 45.2349V42.8624C153.864 42.7454 153.888 42.6349 153.936 42.5309C153.988 42.4269 154.054 42.3359 154.132 42.2579C154.211 42.1799 154.305 42.1192 154.414 42.0759C154.523 42.0282 154.637 42.0044 154.755 42.0044C154.877 42.0044 154.989 42.0282 155.089 42.0759C155.194 42.1192 155.286 42.1799 155.364 42.2579C155.443 42.3359 155.502 42.4269 155.541 42.5309C155.585 42.6349 155.607 42.7454 155.607 42.8624V45.2674C155.607 45.6227 155.55 45.9607 155.436 46.2814C155.327 46.5977 155.172 46.8859 154.971 47.1459C154.77 47.4015 154.532 47.6247 154.257 47.8154C153.982 48.0017 153.682 48.1425 153.359 48.2379V49.6549C153.359 49.7805 153.337 49.8954 153.294 49.9994C153.25 50.1077 153.189 50.2009 153.11 50.2789C153.032 50.3569 152.94 50.4175 152.835 50.4609C152.73 50.5042 152.617 50.5259 152.494 50.5259C152.372 50.5259 152.256 50.5042 152.147 50.4609C152.038 50.4175 151.942 50.3569 151.859 50.2789C151.78 50.2009 151.719 50.1077 151.675 49.9994C151.632 49.8954 151.61 49.7805 151.61 49.6549V48.2249C151.287 48.1252 150.989 47.98 150.719 47.7894C150.448 47.5987 150.214 47.3755 150.018 47.1199C149.821 46.8599 149.668 46.5739 149.559 46.2619C149.45 45.9456 149.395 45.6141 149.395 45.2674V42.8624Z" fill="white"/>
<path d="M58.6133 45.1818C58.6133 44.7442 58.6963 44.3325 58.8623 43.9469C59.0326 43.5612 59.2619 43.2254 59.5502 42.9394C59.8429 42.649 60.1814 42.4215 60.5658 42.2569C60.9546 42.0879 61.3696 42.0034 61.8107 42.0034C62.1864 42.0034 62.4878 42.051 62.7149 42.1464C62.9421 42.2374 63.1255 42.3739 63.2653 42.5559V40.5929C63.2653 40.4672 63.2872 40.3502 63.3308 40.2419C63.3745 40.1292 63.4335 40.0339 63.5078 39.9559C63.5864 39.8735 63.6781 39.8107 63.7829 39.7674C63.8878 39.7197 64.0035 39.6959 64.1302 39.6959C64.2525 39.6959 64.3661 39.7197 64.4709 39.7674C64.5801 39.8107 64.674 39.8735 64.7527 39.9559C64.8313 40.0339 64.8924 40.1292 64.9361 40.2419C64.9842 40.3502 65.0082 40.4672 65.0082 40.5929V45.1818C65.0082 45.6195 64.923 46.0312 64.7527 46.4168C64.5867 46.7982 64.3595 47.1318 64.0712 47.4178C63.7829 47.7038 63.4444 47.9313 63.0557 48.1003C62.6669 48.265 62.2519 48.3473 61.8107 48.3473C61.3696 48.3473 60.9546 48.265 60.5658 48.1003C60.1814 47.9313 59.8429 47.7038 59.5502 47.4178C59.2619 47.1318 59.0326 46.7982 58.8623 46.4168C58.6963 46.0312 58.6133 45.6195 58.6133 45.1818ZM60.3627 45.1818C60.3627 45.3812 60.3998 45.5675 60.4741 45.7408C60.5527 45.9142 60.6576 46.0658 60.7886 46.1958C60.924 46.3258 61.0791 46.4277 61.2538 46.5013C61.4285 46.575 61.6142 46.6118 61.8107 46.6118C62.0117 46.6118 62.1995 46.575 62.3742 46.5013C62.5533 46.4277 62.7084 46.3258 62.8394 46.1958C62.9705 46.0658 63.0731 45.9142 63.1474 45.7408C63.226 45.5675 63.2653 45.3812 63.2653 45.1818C63.2653 44.9825 63.226 44.7962 63.1474 44.6228C63.0731 44.4495 62.9705 44.2979 62.8394 44.1679C62.7084 44.0379 62.5533 43.936 62.3742 43.8624C62.1995 43.7887 62.0117 43.7519 61.8107 43.7519C61.6142 43.7519 61.4285 43.7887 61.2538 43.8624C61.0791 43.936 60.924 44.0379 60.7886 44.1679C60.6576 44.2979 60.5527 44.4495 60.4741 44.6228C60.3998 44.7962 60.3627 44.9825 60.3627 45.1818Z" fill="white"/>
<path d="M67.2202 40.5539C67.2202 40.4239 67.2442 40.3047 67.2923 40.1964C67.3447 40.0837 67.4124 39.9862 67.4954 39.9039C67.5828 39.8172 67.6832 39.75 67.7968 39.7024C67.9104 39.6547 68.0305 39.6309 68.1572 39.6309C68.2838 39.6309 68.404 39.6547 68.5175 39.7024C68.6311 39.75 68.7294 39.8172 68.8124 39.9039C68.8997 39.9862 68.9675 40.0837 69.0155 40.1964C69.0679 40.3047 69.0941 40.4239 69.0941 40.5539C69.0941 40.6795 69.0679 40.7987 69.0155 40.9114C68.9675 41.024 68.8997 41.1237 68.8124 41.2104C68.7294 41.2927 68.6311 41.3577 68.5175 41.4054C68.404 41.453 68.2838 41.4769 68.1572 41.4769C68.0305 41.4769 67.9104 41.453 67.7968 41.4054C67.6832 41.3577 67.5828 41.2927 67.4954 41.2104C67.4124 41.1237 67.3447 41.024 67.2923 40.9114C67.2442 40.7987 67.2202 40.6795 67.2202 40.5539ZM67.2726 42.8614C67.2726 42.7444 67.2967 42.6339 67.3447 42.5299C67.3928 42.4259 67.4561 42.3349 67.5347 42.2569C67.6177 42.1789 67.7138 42.1182 67.823 42.0749C67.9322 42.0272 68.048 42.0034 68.1703 42.0034C68.2882 42.0034 68.3996 42.0272 68.5044 42.0749C68.6093 42.1182 68.6988 42.1789 68.7731 42.2569C68.8517 42.3349 68.9129 42.4259 68.9565 42.5299C69.0002 42.6339 69.0221 42.7444 69.0221 42.8614V47.4893C69.0221 47.6063 68.998 47.7168 68.95 47.8208C68.9063 47.9248 68.8451 48.0158 68.7665 48.0938C68.6879 48.1718 68.5962 48.2325 68.4913 48.2758C68.3865 48.3235 68.2751 48.3473 68.1572 48.3473C68.0392 48.3473 67.9257 48.3235 67.8165 48.2758C67.7116 48.2325 67.6177 48.1718 67.5347 48.0938C67.4561 48.0158 67.3928 47.9248 67.3447 47.8208C67.2967 47.7168 67.2726 47.6063 67.2726 47.4893V42.8614Z" fill="white"/>
<path d="M71.0047 45.1818C71.0047 44.7442 71.0877 44.3325 71.2537 43.9469C71.4241 43.5612 71.6534 43.2254 71.9417 42.9394C72.2344 42.649 72.5729 42.4215 72.9573 42.2569C73.3461 42.0879 73.761 42.0034 74.2022 42.0034C74.6434 42.0034 75.0584 42.0879 75.4471 42.2569C75.8359 42.4215 76.1744 42.649 76.4627 42.9394C76.751 43.2254 76.9781 43.5612 77.1441 43.9469C77.3145 44.3325 77.3997 44.7442 77.3997 45.1818C77.3997 45.4982 77.356 45.7993 77.2686 46.0853C77.1813 46.3713 77.0568 46.6378 76.8951 46.8848C77.0349 47.0322 77.1572 47.2315 77.2621 47.4828C77.3713 47.7342 77.4259 48.057 77.4259 48.4513C77.4259 48.8847 77.3538 49.2508 77.2096 49.5498C77.0699 49.8488 76.882 50.0915 76.6462 50.2778C76.4103 50.4642 76.1395 50.5985 75.8337 50.6808C75.5279 50.7675 75.2112 50.8108 74.8836 50.8108C74.805 50.8108 74.7286 50.8087 74.6543 50.8043C74.5844 50.8 74.5123 50.7978 74.4381 50.7978C74.2896 50.7978 74.152 50.8173 74.0253 50.8563C73.8986 50.8997 73.7567 50.9863 73.5994 51.1163C73.4378 51.2507 73.2652 51.3178 73.0818 51.3178C72.9638 51.3178 72.8481 51.294 72.7345 51.2463C72.6253 51.1987 72.527 51.1337 72.4397 51.0513C72.3523 50.9733 72.2824 50.8802 72.23 50.7718C72.1776 50.6678 72.1514 50.5573 72.1514 50.4403C72.1514 50.293 72.206 50.1392 72.3152 49.9788C72.4244 49.8185 72.5773 49.6712 72.7738 49.5368C72.9748 49.4068 73.2128 49.2985 73.488 49.2118C73.7632 49.1252 74.0668 49.0818 74.3988 49.0818C74.6609 49.0818 74.8749 49.0732 75.0409 49.0558C75.2112 49.0385 75.3445 49.006 75.4406 48.9583C75.541 48.915 75.6087 48.8543 75.6437 48.7763C75.683 48.6983 75.7026 48.5965 75.7026 48.4708C75.7026 48.3495 75.6852 48.2563 75.6502 48.1913C75.6197 48.1263 75.5913 48.0787 75.5651 48.0483C75.1457 48.2477 74.6914 48.3473 74.2022 48.3473C73.761 48.3473 73.3461 48.265 72.9573 48.1003C72.5729 47.9313 72.2344 47.7038 71.9417 47.4178C71.6534 47.1318 71.4241 46.7982 71.2537 46.4168C71.0877 46.0312 71.0047 45.6195 71.0047 45.1818ZM72.7542 45.1818C72.7542 45.3812 72.7913 45.5675 72.8656 45.7408C72.9442 45.9142 73.049 46.0658 73.1801 46.1958C73.3155 46.3258 73.4705 46.4277 73.6453 46.5013C73.82 46.575 74.0056 46.6118 74.2022 46.6118C74.4031 46.6118 74.591 46.575 74.7657 46.5013C74.9448 46.4277 75.0998 46.3258 75.2309 46.1958C75.3619 46.0658 75.4646 45.9142 75.5388 45.7408C75.6175 45.5675 75.6568 45.3812 75.6568 45.1818C75.6568 44.9825 75.6175 44.7962 75.5388 44.6228C75.4646 44.4495 75.3619 44.2979 75.2309 44.1679C75.0998 44.0379 74.9448 43.936 74.7657 43.8624C74.591 43.7887 74.4031 43.7519 74.2022 43.7519C74.0056 43.7519 73.82 43.7887 73.6453 43.8624C73.4705 43.936 73.3155 44.0379 73.1801 44.1679C73.049 44.2979 72.9442 44.4495 72.8656 44.6228C72.7913 44.7962 72.7542 44.9825 72.7542 45.1818Z" fill="white"/>
<path d="M79.3365 40.5539C79.3365 40.4239 79.3605 40.3047 79.4086 40.1964C79.461 40.0837 79.5287 39.9862 79.6117 39.9039C79.699 39.8172 79.7995 39.75 79.9131 39.7024C80.0266 39.6547 80.1468 39.6309 80.2734 39.6309C80.4001 39.6309 80.5202 39.6547 80.6338 39.7024C80.7474 39.75 80.8457 39.8172 80.9287 39.9039C81.016 39.9862 81.0837 40.0837 81.1318 40.1964C81.1842 40.3047 81.2104 40.4239 81.2104 40.5539C81.2104 40.6795 81.1842 40.7987 81.1318 40.9114C81.0837 41.024 81.016 41.1237 80.9287 41.2104C80.8457 41.2927 80.7474 41.3577 80.6338 41.4054C80.5202 41.453 80.4001 41.4769 80.2734 41.4769C80.1468 41.4769 80.0266 41.453 79.9131 41.4054C79.7995 41.3577 79.699 41.2927 79.6117 41.2104C79.5287 41.1237 79.461 41.024 79.4086 40.9114C79.3605 40.7987 79.3365 40.6795 79.3365 40.5539ZM79.3889 42.8614C79.3889 42.7444 79.4129 42.6339 79.461 42.5299C79.509 42.4259 79.5724 42.3349 79.651 42.2569C79.734 42.1789 79.8301 42.1182 79.9393 42.0749C80.0485 42.0272 80.1642 42.0034 80.2865 42.0034C80.4045 42.0034 80.5159 42.0272 80.6207 42.0749C80.7255 42.1182 80.8151 42.1789 80.8893 42.2569C80.968 42.3349 81.0291 42.4259 81.0728 42.5299C81.1165 42.6339 81.1383 42.7444 81.1383 42.8614V47.4893C81.1383 47.6063 81.1143 47.7168 81.0663 47.8208C81.0226 47.9248 80.9614 48.0158 80.8828 48.0938C80.8042 48.1718 80.7124 48.2325 80.6076 48.2758C80.5028 48.3235 80.3914 48.3473 80.2734 48.3473C80.1555 48.3473 80.0419 48.3235 79.9327 48.2758C79.8279 48.2325 79.734 48.1718 79.651 48.0938C79.5724 48.0158 79.509 47.9248 79.461 47.8208C79.4129 47.7168 79.3889 47.6063 79.3889 47.4893V42.8614Z" fill="white"/>
<path d="M83.4159 40.9764C83.4159 40.855 83.4399 40.7424 83.4879 40.6384C83.536 40.53 83.5993 40.4369 83.6779 40.3589C83.7566 40.2765 83.8483 40.2137 83.9531 40.1704C84.0623 40.1227 84.1759 40.0989 84.2939 40.0989C84.4118 40.0989 84.5254 40.1227 84.6346 40.1704C84.7481 40.2137 84.8464 40.2744 84.9294 40.3524C85.0124 40.4304 85.0779 40.5235 85.126 40.6319C85.1784 40.7402 85.2046 40.855 85.2046 40.9764V41.8084H87.2161C87.3341 41.8084 87.4454 41.8322 87.5503 41.8799C87.6595 41.9232 87.7534 41.986 87.832 42.0684C87.915 42.1464 87.9784 42.2395 88.022 42.3479C88.0701 42.4519 88.0941 42.5624 88.0941 42.6794C88.0941 42.7964 88.0701 42.9047 88.022 43.0044C87.9784 43.104 87.915 43.1929 87.832 43.2709C87.7534 43.3445 87.6595 43.403 87.5503 43.4464C87.4454 43.4897 87.3341 43.5114 87.2161 43.5114H85.2046V45.1948C85.2046 45.3942 85.2395 45.5805 85.3094 45.7538C85.3837 45.9272 85.4842 46.0788 85.6108 46.2088C85.7375 46.3388 85.886 46.4407 86.0564 46.5143C86.2267 46.588 86.4124 46.6248 86.6133 46.6248C86.7924 46.6248 86.9584 46.601 87.1113 46.5533C87.2642 46.5057 87.3996 46.4277 87.5175 46.3193C87.6136 46.2327 87.7141 46.1633 87.8189 46.1113C87.9281 46.055 88.0482 46.0268 88.1793 46.0268C88.2754 46.0268 88.3715 46.0485 88.4676 46.0918C88.5637 46.1308 88.6467 46.1872 88.7166 46.2608C88.7908 46.3345 88.8498 46.4212 88.8935 46.5208C88.9415 46.6162 88.9655 46.7202 88.9655 46.8328C88.9655 46.9672 88.9372 47.0993 88.8804 47.2293C88.828 47.3593 88.7515 47.4742 88.651 47.5738C88.3802 47.8338 88.0723 48.0288 87.7272 48.1588C87.3821 48.2888 87.0108 48.3538 86.6133 48.3538C86.1721 48.3538 85.7572 48.2715 85.3684 48.1068C84.9796 47.9378 84.6411 47.7103 84.3528 47.4243C84.0645 47.1383 83.8352 46.8025 83.6648 46.4168C83.4989 46.0312 83.4159 45.6195 83.4159 45.1818V40.9764Z" fill="white"/>
<path d="M93.6019 48.3473C93.1607 48.3473 92.7457 48.265 92.3569 48.1003C91.9726 47.9313 91.634 47.7038 91.3414 47.4178C91.0531 47.1318 90.8237 46.7982 90.6534 46.4168C90.4874 46.0312 90.4044 45.6195 90.4044 45.1818C90.4044 44.7442 90.4874 44.3325 90.6534 43.9469C90.8237 43.5612 91.0531 43.2254 91.3414 42.9394C91.634 42.649 91.9726 42.4215 92.3569 42.2569C92.7457 42.0879 93.1607 42.0034 93.6019 42.0034C94.0387 42.0034 94.4493 42.0857 94.8337 42.2504C95.2181 42.415 95.5544 42.6382 95.8427 42.9199C96.131 43.2015 96.3603 43.533 96.5307 43.9144C96.701 44.2957 96.7906 44.7008 96.7993 45.1298V47.4633C96.7993 47.589 96.7753 47.706 96.7272 47.8143C96.6836 47.9183 96.6202 48.0115 96.5372 48.0938C96.4586 48.1718 96.3647 48.2325 96.2555 48.2758C96.1463 48.3235 96.0305 48.3473 95.9082 48.3473C95.7422 48.3473 95.5959 48.3105 95.4692 48.2368C95.3469 48.1632 95.2486 48.0635 95.1744 47.9378C94.9385 48.0678 94.6895 48.1697 94.4274 48.2433C94.1653 48.3127 93.8902 48.3473 93.6019 48.3473ZM93.6019 46.6118C93.8028 46.6118 93.9906 46.575 94.1653 46.5013C94.3444 46.4277 94.4995 46.3258 94.6306 46.1958C94.7616 46.0658 94.8642 45.9142 94.9385 45.7408C95.0171 45.5675 95.0564 45.3812 95.0564 45.1818C95.0564 44.9825 95.0171 44.7962 94.9385 44.6228C94.8642 44.4495 94.7616 44.2979 94.6306 44.1679C94.4995 44.0379 94.3444 43.936 94.1653 43.8624C93.9906 43.7887 93.8028 43.7519 93.6019 43.7519C93.4053 43.7519 93.2197 43.7887 93.0449 43.8624C92.8702 43.936 92.7151 44.0379 92.5797 44.1679C92.4487 44.2979 92.3438 44.4495 92.2652 44.6228C92.191 44.7962 92.1538 44.9825 92.1538 45.1818C92.1538 45.3812 92.191 45.5675 92.2652 45.7408C92.3438 45.9142 92.4487 46.0658 92.5797 46.1958C92.7151 46.3258 92.8702 46.4277 93.0449 46.5013C93.2197 46.575 93.4053 46.6118 93.6019 46.6118Z" fill="white"/>
<path d="M101.521 46.5793C101.643 46.5793 101.757 46.601 101.862 46.6443C101.971 46.6877 102.062 46.7483 102.137 46.8263C102.211 46.9043 102.27 46.9953 102.314 47.0993C102.357 47.2033 102.379 47.3138 102.379 47.4308C102.379 47.5522 102.357 47.6648 102.314 47.7688C102.27 47.8728 102.211 47.9617 102.137 48.0353C102.062 48.109 101.971 48.1675 101.862 48.2108C101.757 48.2542 101.643 48.2758 101.521 48.2758C101.215 48.2758 100.925 48.226 100.649 48.1263C100.379 48.0223 100.14 47.8772 99.9352 47.6908C99.7299 47.5045 99.5661 47.2835 99.4438 47.0278C99.3258 46.7678 99.2669 46.4818 99.2669 46.1698V40.6189C99.2669 40.4975 99.2887 40.3849 99.3324 40.2809C99.3761 40.1769 99.435 40.0859 99.5093 40.0079C99.5879 39.9299 99.6775 39.8692 99.7779 39.8259C99.8784 39.7782 99.9876 39.7544 100.106 39.7544C100.228 39.7544 100.344 39.7782 100.453 39.8259C100.562 39.8692 100.658 39.9299 100.741 40.0079C100.824 40.0859 100.89 40.1769 100.938 40.2809C100.986 40.3849 101.01 40.4975 101.01 40.6189V46.2088C101.018 46.3345 101.067 46.4277 101.154 46.4883C101.246 46.549 101.368 46.5793 101.521 46.5793Z" fill="white"/>
</svg>
