<svg width="20" height="20" viewBox="0 0 20 20" fill="none" xmlns="http://www.w3.org/2000/svg">
<g clip-path="url(#clip0)">
<path d="M0.176115 3.97363L6.2417 10.0002L0.176115 16.0267C0.0664663 15.7975 -5.76973e-05 15.5441 -5.76973e-05 15.2736V4.72672C-5.76973e-05 4.45613 0.0664663 4.20281 0.176115 3.97363Z" fill="#8E41EE"/>
<path d="M1.75765 2.96875H18.242C18.5126 2.96875 18.7659 3.03527 18.9951 3.14492L11.2427 10.8583C10.5572 11.5438 9.4425 11.5438 8.75703 10.8583L1.00457 3.14492C1.23375 3.03527 1.48707 2.96875 1.75765 2.96875Z" fill="#8E41EE"/>
<path d="M19.8238 3.97363C19.9335 4.20281 20 4.45613 20 4.72672V15.2736C20 15.5442 19.9335 15.7975 19.8238 16.0267L13.7582 10.0002L19.8238 3.97363Z" fill="#8E41EE"/>
<path d="M7.07016 10.8286L7.92848 11.6869C9.07062 12.8291 10.9291 12.8291 12.0712 11.6869L12.9295 10.8286L18.9951 16.8551C18.7659 16.9648 18.5126 17.0313 18.242 17.0313H1.75765C1.48707 17.0313 1.23375 16.9648 1.00457 16.8551L7.07016 10.8286Z" fill="#8E41EE"/>
</g>
<defs>
<clipPath id="clip0">
<rect width="20" height="20" fill="white" transform="matrix(-1 0 0 1 20 0)"/>
</clipPath>
</defs>
</svg>
