<svg width="30" height="30" viewBox="0 0 30 30" fill="none" xmlns="http://www.w3.org/2000/svg">
<mask id="path-1-outside-1" maskUnits="userSpaceOnUse" x="1.44336" y="1.09961" width="27" height="27" fill="black">
<rect fill="white" x="1.44336" y="1.09961" width="27" height="27"/>
<path d="M5.30388 24.2269C5.52095 23.3917 5.09272 22.5764 4.50841 21.7147C2.82761 19.2375 2.22363 16.4524 2.51283 13.4698C2.78302 10.6814 3.92082 8.287 5.75638 6.20857C5.87639 6.07213 5.92295 5.86813 5.99837 5.69327C6.03313 5.61313 6.04296 5.52106 6.08493 5.44622C6.43775 4.8245 6.79319 4.20389 7.15125 3.58438C7.26732 3.38236 7.39258 3.38037 7.51718 3.57643C7.58801 3.6877 7.65621 3.80096 7.72048 3.91621C7.93754 4.30368 7.93623 4.30368 8.29823 4.06987C9.45441 3.3094 10.7342 2.76055 12.0789 2.44846C15.3519 1.70862 18.4807 2.12855 21.3669 3.87117C24.5271 5.77938 26.5516 8.58108 27.2801 12.2359C28.0395 16.043 27.2369 19.5309 24.8537 22.6062C24.4314 23.1506 23.9356 23.6421 23.4562 24.1355C23.2595 24.3342 23.1362 24.5283 23.1605 24.8237C23.1847 25.1304 23.1513 25.4423 23.1696 25.751C23.1873 26.0484 23.0837 26.1689 22.7762 26.1603C22.1536 26.144 21.5308 26.144 20.9078 26.1603C20.6915 26.1625 20.4778 26.2087 20.2796 26.2961C18.4132 27.1856 16.4432 27.5545 14.3932 27.4684C12.8416 27.4022 11.3542 27.0253 9.9246 26.4014C9.59552 26.2612 9.24348 26.1842 8.88648 26.1742C7.81622 26.1431 6.74466 26.1517 5.67309 26.1636C5.38127 26.1669 5.28683 26.0576 5.29667 25.7755C5.31503 25.331 5.30388 24.8893 5.30388 24.2269ZM14.622 21.0788H20.0651C21.256 21.0788 22.4469 21.0788 23.6379 21.0788C23.9953 21.0788 24.3428 21.0271 24.5776 20.7105C24.7875 20.4271 24.8563 20.1144 24.7088 19.778C24.5252 19.3627 24.1841 19.213 23.7572 19.2084C23.27 19.2031 23.2693 19.1978 23.2693 18.7162C23.2693 16.0569 23.2752 13.3976 23.2693 10.7383C23.2693 9.81436 23.4457 9.95014 22.4443 9.93093C22.1991 9.9263 22.1164 10.027 22.1243 10.2654C22.1348 10.7615 22.1171 11.2589 22.1302 11.755C22.1381 12.0299 22.0305 12.1173 21.763 12.1173C18.0813 12.1107 14.3993 12.1107 10.7168 12.1173C10.4184 12.1173 10.3391 11.9988 10.3469 11.7239C10.36 11.2271 10.3469 10.7304 10.3515 10.2343C10.3515 10.0256 10.2794 9.93093 10.0649 9.93756C9.75933 9.94683 9.45308 9.93756 9.14682 9.93756C8.70154 9.93424 8.69761 9.94286 8.69826 10.4012C8.7022 12.2664 8.70329 14.1313 8.70154 15.996C8.70154 16.4928 8.49366 16.6921 7.99657 16.6954C7.5926 16.6954 7.18863 16.6921 6.78401 16.6908C6.18133 16.6908 6.00296 16.5139 6.00165 15.9033C6.00165 14.5461 6.00165 13.1877 6.00165 11.8319C6.00165 11.302 6.00951 10.7721 5.99181 10.2422C5.98787 10.1402 5.89803 9.9773 5.81606 9.95213C5.357 9.81966 5.20224 9.94617 5.20224 10.4224C5.20224 13.799 5.20224 17.177 5.20224 20.5562C5.20224 21.0861 5.20223 21.0861 5.71375 21.0861L14.622 21.0788ZM23.167 23.9123C23.3336 23.7726 23.4208 23.7096 23.4949 23.6348C25.6944 21.4491 26.9536 18.7891 27.1673 15.6907C27.4067 12.2789 26.404 9.2315 24.1507 6.65963C21.6587 3.82149 18.4991 2.43124 14.7519 2.46237C12.4717 2.48091 10.3699 3.16776 8.4366 4.39243C8.18281 4.55338 8.12773 4.68982 8.30151 4.93688C8.54874 5.29057 8.72581 5.65221 8.70745 6.12379C8.66744 7.1597 8.69433 8.19825 8.68449 9.2368C8.68449 9.48319 8.75007 9.60241 9.02223 9.58453C9.3498 9.56519 9.67816 9.56342 10.0059 9.57923C10.24 9.58983 10.3594 9.51896 10.3391 9.26528C10.3233 9.06327 10.4138 8.93411 10.6263 8.97253C11.0362 9.05134 11.0853 8.8023 11.1194 8.4857C11.4644 5.48198 14.3282 3.39892 17.2649 4.01026C19.446 4.46397 21.1341 6.29799 21.376 8.52545C21.4141 8.87715 21.5013 9.01492 21.8567 8.98908C21.9374 8.98312 22.1072 9.14805 22.1053 9.23084C22.0968 9.54545 22.2476 9.60837 22.5106 9.58387C22.6633 9.57058 22.8169 9.57058 22.9696 9.58387C23.2031 9.60374 23.2746 9.49909 23.27 9.27455C23.2588 8.75594 23.2654 8.23666 23.27 7.71805C23.27 7.35774 23.3546 7.2862 23.6982 7.3372C24.5743 7.46967 25.1331 8.11413 25.1337 9.02485C25.1385 12.6783 25.1409 16.332 25.1409 19.9859C25.1409 20.8973 24.6163 21.4431 23.6982 21.4431C17.5775 21.4431 11.4567 21.4431 5.33602 21.4431C4.88417 21.4431 4.8527 21.41 4.8527 20.953C4.8527 17.443 4.8527 13.9326 4.8527 10.4217C4.8527 9.50571 4.73728 9.56068 5.65998 9.58784C5.92229 9.59446 6.00361 9.49379 6.00099 9.24409C5.99246 8.48239 6.00099 7.7207 5.99705 6.95967C5.99705 6.85502 5.97607 6.75037 5.9564 6.5722C5.81802 6.70467 5.72556 6.77753 5.65145 6.86694C3.89524 8.99902 2.92926 11.4563 2.79482 14.2189C2.66366 16.9491 3.40077 19.4514 4.90516 21.7259C5.11173 22.0372 5.29864 22.1697 5.69933 22.1564C7.02075 22.1121 8.34348 22.1399 9.66621 22.1392C14.0382 22.1392 18.4101 22.137 22.7821 22.1326C23.0811 22.1326 23.1939 22.2227 23.1755 22.53C23.1513 22.9539 23.167 23.3811 23.167 23.9123ZM12.6842 22.536C12.687 22.6345 12.6797 22.733 12.6625 22.83C12.6422 22.9049 12.5917 23.0162 12.5353 23.0287C12.2907 23.0877 12.3051 22.8963 12.3064 22.7426C12.3064 22.3677 12.029 22.4843 11.8349 22.4671C11.6408 22.4499 11.4572 22.477 11.4782 22.7585C11.4969 22.9453 11.4969 23.1334 11.4782 23.3202C11.4664 23.4076 11.3759 23.4851 11.3208 23.5672C11.2618 23.4897 11.164 23.4175 11.1516 23.3334C11.1285 23.147 11.1261 22.9587 11.1444 22.7718C11.166 22.5068 11.0171 22.4406 10.8027 22.4677C10.606 22.4929 10.3095 22.3386 10.303 22.7472C10.303 22.8453 10.1915 22.9413 10.1312 23.0387C10.0741 22.9373 9.96919 22.84 9.96919 22.736C9.96919 22.375 9.71278 22.4803 9.52784 22.4671C9.32324 22.4532 9.11994 22.4545 9.1383 22.7612C9.15352 22.9482 9.15067 23.1363 9.12978 23.3228C9.11797 23.4076 9.02354 23.4811 8.96714 23.5593C8.91861 23.4844 8.83598 23.4129 8.82811 23.3334C8.80647 23.1347 8.82811 22.936 8.81041 22.7373C8.80188 22.6512 8.74483 22.5055 8.69499 22.4995C8.49169 22.4678 8.28449 22.4716 8.08247 22.5108C8.01689 22.5254 8.00968 22.7333 7.95132 22.842C7.90308 22.9141 7.84601 22.9797 7.78147 23.0374C7.72507 22.9804 7.61293 22.9155 7.61948 22.8671C7.68178 22.4081 7.36766 22.4816 7.1001 22.4697C6.86532 22.4565 6.78663 22.5565 6.81024 22.7843C6.83417 22.9482 6.83417 23.1146 6.81024 23.2784C6.78991 23.3844 6.6876 23.4771 6.62202 23.5699C6.56956 23.4765 6.48693 23.3884 6.47054 23.289C6.44877 23.1353 6.44877 22.9792 6.47054 22.8254C6.51316 22.4744 6.30003 22.4611 6.04493 22.4611C5.78982 22.4611 5.6344 22.4803 5.64293 22.8102C5.66391 23.648 5.65014 24.4872 5.64949 25.3271C5.64949 25.802 5.64948 25.802 6.13543 25.802H18.8886C20.0907 25.802 21.2928 25.7967 22.4955 25.8066C22.7388 25.8066 22.8175 25.7304 22.8135 25.484C22.8004 24.5793 22.8096 23.6745 22.7998 22.7684C22.7998 22.677 22.7381 22.5161 22.685 22.5035C22.4941 22.4659 22.2976 22.4675 22.1072 22.5081C22.0449 22.5234 22.0417 22.7347 21.9899 22.8479C21.9494 22.916 21.9002 22.9783 21.8436 23.0334C21.7857 22.981 21.7336 22.9223 21.6882 22.8585C21.6639 22.8161 21.681 22.7506 21.6757 22.6956C21.6429 22.3525 21.3767 22.4836 21.195 22.4658C21.0134 22.4479 20.8278 22.4426 20.8304 22.7128C20.8392 22.9116 20.8348 23.1107 20.8173 23.3089C20.8062 23.397 20.7183 23.4758 20.6652 23.5586C20.6107 23.4791 20.5196 23.4036 20.5091 23.3182C20.4848 23.1195 20.5091 22.9208 20.492 22.7221C20.4835 22.638 20.4199 22.4989 20.3668 22.4916C20.1744 22.4585 19.9776 22.4616 19.7864 22.5009C19.7208 22.5168 19.7208 22.7227 19.6651 22.832C19.6163 22.9051 19.5588 22.9718 19.4939 23.0307C19.4408 22.9724 19.3365 22.9089 19.3424 22.8572C19.3962 22.375 19.0663 22.4631 18.7896 22.4598C18.5876 22.4558 18.4847 22.526 18.5004 22.7506C18.5182 22.9373 18.516 23.1253 18.4938 23.3116C18.4814 23.3997 18.3863 23.4752 18.3292 23.556C18.2715 23.4785 18.1764 23.4063 18.164 23.3215C18.1407 23.1354 18.1367 22.9474 18.1522 22.7605C18.1725 22.4446 17.9594 22.4644 17.7587 22.4724C17.558 22.4803 17.32 22.3962 17.3213 22.7499C17.3213 22.8466 17.2111 22.944 17.1514 23.0413C17.0924 22.9413 16.9822 22.8426 16.9829 22.7419C16.9862 22.3558 16.7101 22.4803 16.5186 22.4624C16.3048 22.4432 16.1192 22.4717 16.1435 22.7698C16.1609 22.9461 16.1591 23.1237 16.1382 23.2996C16.1264 23.3904 16.0451 23.4712 15.9953 23.5566C15.9395 23.4771 15.851 23.403 15.8353 23.3162C15.8171 23.1623 15.8138 23.0071 15.8254 22.8526C15.8293 22.6406 15.8254 22.4346 15.529 22.4624C15.2955 22.4836 14.9644 22.3359 14.9722 22.7936C14.9722 22.8718 14.868 22.9512 14.8122 23.0307C14.7598 22.9486 14.7034 22.8678 14.6548 22.783C14.5958 22.681 14.5656 22.5101 14.4843 22.4816C14.0115 22.3161 13.7984 22.4816 13.7971 22.9817C13.8037 23.0256 13.8037 23.0703 13.7971 23.1142C13.7479 23.2632 13.6915 23.4089 13.637 23.556C13.5859 23.4056 13.4934 23.2566 13.4895 23.1049C13.4711 22.4128 13.4462 22.3843 12.7497 22.4969C12.7268 22.508 12.7049 22.521 12.6842 22.536V22.536ZM16.2655 9.32887C14.5289 9.32887 12.7898 9.33549 11.0552 9.3229C10.766 9.3229 10.6683 9.41431 10.6748 9.69713C10.6866 10.182 10.6748 10.6675 10.6748 11.1543C10.6748 11.7954 10.6748 11.7881 11.309 11.7616C11.5057 11.753 11.5851 11.6775 11.5818 11.4848C11.5818 11.2536 11.5719 11.0211 11.591 10.7907C11.5975 10.7112 11.6762 10.6383 11.7221 10.5621C11.7811 10.637 11.8828 10.7079 11.8907 10.7887C11.9089 11.0311 11.9133 11.2743 11.9038 11.5172C11.9005 11.7338 12.0303 11.7822 12.2028 11.7557C12.3753 11.7292 12.6389 11.8882 12.6901 11.5358C12.7137 11.3742 12.5858 11.1185 12.8698 11.0947C12.913 11.0907 13.0081 11.3689 13.0291 11.5232C13.079 11.8974 13.357 11.7166 13.5393 11.7517C13.7216 11.7868 13.8305 11.7153 13.8226 11.5027C13.8103 11.2491 13.8127 10.995 13.8298 10.7416C13.8357 10.6701 13.9341 10.6052 13.9905 10.5376C14.0502 10.6039 14.1512 10.6622 14.1623 10.7363C14.1793 10.9125 14.1817 11.0897 14.1695 11.2662C14.1564 11.7848 14.1551 11.7669 14.6607 11.7683C15.0076 11.7683 14.923 11.5371 14.9526 11.3417C14.967 11.2516 15.0483 11.1728 15.0995 11.0887C15.1676 11.1691 15.2301 11.2544 15.2864 11.3437C15.3016 11.3969 15.3034 11.4532 15.2916 11.5073C15.2706 11.8497 15.5244 11.7491 15.7008 11.7603C15.8877 11.7722 16.0858 11.7961 16.0641 11.4954C16.0466 11.2642 16.0488 11.032 16.0707 10.8013C16.0792 10.7171 16.1782 10.643 16.2366 10.5641C16.295 10.641 16.3907 10.7112 16.4038 10.7946C16.4198 10.9708 16.4229 11.1479 16.413 11.3245C16.413 11.7703 16.4169 11.7431 16.8399 11.7742C17.2164 11.8021 17.2039 11.5788 17.2177 11.3232C17.2216 11.2457 17.3049 11.1722 17.3488 11.0973C17.4127 11.1678 17.4706 11.2436 17.5219 11.3238C17.5385 11.3766 17.5406 11.4329 17.5279 11.4868C17.499 11.7789 17.6911 11.7722 17.8879 11.7616C18.0846 11.751 18.3286 11.8352 18.3174 11.4861C18.3088 11.2545 18.3156 11.0226 18.3378 10.792C18.3456 10.7132 18.4296 10.643 18.4788 10.5681C18.5391 10.643 18.6434 10.7125 18.6519 10.7926C18.6719 11.0349 18.6779 11.2782 18.6696 11.5212C18.6696 11.8272 18.8867 11.7643 19.0631 11.7656C19.2395 11.7669 19.4474 11.8206 19.4565 11.5179C19.4624 11.3649 19.3503 11.1251 19.6198 11.102C19.6579 11.102 19.751 11.3788 19.7654 11.5325C19.7976 11.8636 20.0356 11.753 20.21 11.7643C20.3845 11.7756 20.5799 11.812 20.574 11.5272C20.5637 11.2843 20.5672 11.0411 20.5845 10.7986C20.5924 10.7165 20.6914 10.6436 20.7484 10.5668C20.8081 10.643 20.9104 10.7151 20.9196 10.7973C20.9407 11.0175 20.9426 11.2391 20.9255 11.4596C20.9117 11.6802 20.9754 11.7987 21.2147 11.7689C21.2909 11.7593 21.368 11.7593 21.4442 11.7689C21.7177 11.8047 21.8102 11.6842 21.8036 11.4126C21.7896 10.8386 21.7896 10.2645 21.8036 9.6905C21.8102 9.41762 21.7157 9.33085 21.4436 9.33284C19.7175 9.33417 17.9915 9.32887 16.2655 9.32887V9.32887ZM12.252 8.9606C12.3719 8.95232 12.4922 8.95232 12.612 8.9606C12.9714 9.01094 13.1032 8.87251 13.1819 8.49696C13.4232 7.34383 14.1177 6.53908 15.2247 6.1483C15.6547 5.9959 16.1126 5.94118 16.566 5.98804C17.0193 6.03489 17.4568 6.18217 17.8473 6.41938C18.2377 6.65658 18.5716 6.97787 18.8251 7.36034C19.0785 7.74281 19.2453 8.17704 19.3136 8.63208C19.3516 8.8798 19.4447 8.9765 19.6939 8.96325C20.01 8.94669 20.3274 8.95663 20.6442 8.95133C21.0416 8.94537 21.0606 8.92219 21.0095 8.53472C20.6599 5.86217 18.3555 4.03079 15.6975 4.30964C13.6646 4.52424 11.9412 6.08207 11.5542 8.08499C11.3483 9.15202 11.3418 8.93543 12.252 8.9606V8.9606ZM24.7698 19.0812V11.2285C24.7698 10.4568 24.7789 9.68454 24.7652 8.91027C24.754 8.2625 24.2287 7.71805 23.6464 7.75316C23.6411 7.87834 23.63 8.00683 23.63 8.13599C23.63 10.7059 23.63 13.2755 23.63 15.845C23.63 16.7272 23.6254 17.6095 23.6359 18.4944C23.6359 18.6063 23.6897 18.7917 23.7618 18.8176C24.0746 18.9275 24.4038 18.9904 24.7698 19.0812V19.0812ZM13.4901 8.94736C13.6147 8.95862 13.7092 8.97451 13.8036 8.97451C15.4195 8.97451 17.0347 8.96921 18.6499 8.98114C18.9739 8.98114 19.0067 8.85728 18.9496 8.57976C18.5443 6.61459 16.2386 5.69128 14.6306 6.86694C13.9466 7.3637 13.5524 8.04657 13.4928 8.94471L13.4901 8.94736ZM8.37102 10.0793H8.36578C8.36578 8.91027 8.37037 7.7419 8.36578 6.57352C8.36184 5.84495 8.35397 5.85952 7.63654 5.84495C7.30208 5.83766 7.21486 5.95092 7.21617 6.28143C7.22995 8.70693 7.22011 11.1324 7.22535 13.5573C7.22535 14.3607 7.09813 14.2627 7.94279 14.2686C8.37037 14.2719 8.37233 14.2686 8.37233 13.8182C8.3719 12.569 8.37146 11.3227 8.37102 10.0793ZM19.5064 26.1901H10.5535C11.8756 27.3664 17.602 27.381 19.5064 26.1868V26.1901ZM6.32036 10.0727H6.32429C6.32429 11.351 6.3302 12.63 6.3197 13.9083C6.3197 14.1825 6.4043 14.2978 6.67908 14.2607C6.93484 14.2269 6.86926 14.0295 6.86991 13.8785C6.87385 12.0606 6.87385 10.2422 6.86991 8.42344C6.86991 7.67434 6.86532 6.92457 6.87319 6.17546C6.87319 5.9602 6.81942 5.84429 6.58202 5.84826C6.32364 5.85157 6.3197 6.01583 6.3197 6.2046C6.32102 7.4944 6.32123 8.78376 6.32036 10.0727ZM7.36504 14.6269C7.11387 14.6269 6.8627 14.6342 6.61219 14.6269C6.41545 14.619 6.33544 14.7084 6.33741 14.9005C6.34135 15.2528 6.33741 15.6052 6.33741 15.9602C6.33741 16.2205 6.46398 16.3364 6.72498 16.3298C7.11846 16.3205 7.51193 16.3179 7.90541 16.3298C8.20773 16.3384 8.352 16.2093 8.34938 15.9026C8.34938 15.5834 8.34348 15.2634 8.35594 14.9442C8.36512 14.6938 8.2497 14.613 8.01821 14.6289C7.8018 14.6362 7.58276 14.6263 7.36504 14.6269ZM7.34077 3.99105L6.48037 5.46874H8.19068L7.34077 3.99105Z"/>
</mask>
<path d="M5.30388 24.2269C5.52095 23.3917 5.09272 22.5764 4.50841 21.7147C2.82761 19.2375 2.22363 16.4524 2.51283 13.4698C2.78302 10.6814 3.92082 8.287 5.75638 6.20857C5.87639 6.07213 5.92295 5.86813 5.99837 5.69327C6.03313 5.61313 6.04296 5.52106 6.08493 5.44622C6.43775 4.8245 6.79319 4.20389 7.15125 3.58438C7.26732 3.38236 7.39258 3.38037 7.51718 3.57643C7.58801 3.6877 7.65621 3.80096 7.72048 3.91621C7.93754 4.30368 7.93623 4.30368 8.29823 4.06987C9.45441 3.3094 10.7342 2.76055 12.0789 2.44846C15.3519 1.70862 18.4807 2.12855 21.3669 3.87117C24.5271 5.77938 26.5516 8.58108 27.2801 12.2359C28.0395 16.043 27.2369 19.5309 24.8537 22.6062C24.4314 23.1506 23.9356 23.6421 23.4562 24.1355C23.2595 24.3342 23.1362 24.5283 23.1605 24.8237C23.1847 25.1304 23.1513 25.4423 23.1696 25.751C23.1873 26.0484 23.0837 26.1689 22.7762 26.1603C22.1536 26.144 21.5308 26.144 20.9078 26.1603C20.6915 26.1625 20.4778 26.2087 20.2796 26.2961C18.4132 27.1856 16.4432 27.5545 14.3932 27.4684C12.8416 27.4022 11.3542 27.0253 9.9246 26.4014C9.59552 26.2612 9.24348 26.1842 8.88648 26.1742C7.81622 26.1431 6.74466 26.1517 5.67309 26.1636C5.38127 26.1669 5.28683 26.0576 5.29667 25.7755C5.31503 25.331 5.30388 24.8893 5.30388 24.2269ZM14.622 21.0788H20.0651C21.256 21.0788 22.4469 21.0788 23.6379 21.0788C23.9953 21.0788 24.3428 21.0271 24.5776 20.7105C24.7875 20.4271 24.8563 20.1144 24.7088 19.778C24.5252 19.3627 24.1841 19.213 23.7572 19.2084C23.27 19.2031 23.2693 19.1978 23.2693 18.7162C23.2693 16.0569 23.2752 13.3976 23.2693 10.7383C23.2693 9.81436 23.4457 9.95014 22.4443 9.93093C22.1991 9.9263 22.1164 10.027 22.1243 10.2654C22.1348 10.7615 22.1171 11.2589 22.1302 11.755C22.1381 12.0299 22.0305 12.1173 21.763 12.1173C18.0813 12.1107 14.3993 12.1107 10.7168 12.1173C10.4184 12.1173 10.3391 11.9988 10.3469 11.7239C10.36 11.2271 10.3469 10.7304 10.3515 10.2343C10.3515 10.0256 10.2794 9.93093 10.0649 9.93756C9.75933 9.94683 9.45308 9.93756 9.14682 9.93756C8.70154 9.93424 8.69761 9.94286 8.69826 10.4012C8.7022 12.2664 8.70329 14.1313 8.70154 15.996C8.70154 16.4928 8.49366 16.6921 7.99657 16.6954C7.5926 16.6954 7.18863 16.6921 6.78401 16.6908C6.18133 16.6908 6.00296 16.5139 6.00165 15.9033C6.00165 14.5461 6.00165 13.1877 6.00165 11.8319C6.00165 11.302 6.00951 10.7721 5.99181 10.2422C5.98787 10.1402 5.89803 9.9773 5.81606 9.95213C5.357 9.81966 5.20224 9.94617 5.20224 10.4224C5.20224 13.799 5.20224 17.177 5.20224 20.5562C5.20224 21.0861 5.20223 21.0861 5.71375 21.0861L14.622 21.0788ZM23.167 23.9123C23.3336 23.7726 23.4208 23.7096 23.4949 23.6348C25.6944 21.4491 26.9536 18.7891 27.1673 15.6907C27.4067 12.2789 26.404 9.2315 24.1507 6.65963C21.6587 3.82149 18.4991 2.43124 14.7519 2.46237C12.4717 2.48091 10.3699 3.16776 8.4366 4.39243C8.18281 4.55338 8.12773 4.68982 8.30151 4.93688C8.54874 5.29057 8.72581 5.65221 8.70745 6.12379C8.66744 7.1597 8.69433 8.19825 8.68449 9.2368C8.68449 9.48319 8.75007 9.60241 9.02223 9.58453C9.3498 9.56519 9.67816 9.56342 10.0059 9.57923C10.24 9.58983 10.3594 9.51896 10.3391 9.26528C10.3233 9.06327 10.4138 8.93411 10.6263 8.97253C11.0362 9.05134 11.0853 8.8023 11.1194 8.4857C11.4644 5.48198 14.3282 3.39892 17.2649 4.01026C19.446 4.46397 21.1341 6.29799 21.376 8.52545C21.4141 8.87715 21.5013 9.01492 21.8567 8.98908C21.9374 8.98312 22.1072 9.14805 22.1053 9.23084C22.0968 9.54545 22.2476 9.60837 22.5106 9.58387C22.6633 9.57058 22.8169 9.57058 22.9696 9.58387C23.2031 9.60374 23.2746 9.49909 23.27 9.27455C23.2588 8.75594 23.2654 8.23666 23.27 7.71805C23.27 7.35774 23.3546 7.2862 23.6982 7.3372C24.5743 7.46967 25.1331 8.11413 25.1337 9.02485C25.1385 12.6783 25.1409 16.332 25.1409 19.9859C25.1409 20.8973 24.6163 21.4431 23.6982 21.4431C17.5775 21.4431 11.4567 21.4431 5.33602 21.4431C4.88417 21.4431 4.8527 21.41 4.8527 20.953C4.8527 17.443 4.8527 13.9326 4.8527 10.4217C4.8527 9.50571 4.73728 9.56068 5.65998 9.58784C5.92229 9.59446 6.00361 9.49379 6.00099 9.24409C5.99246 8.48239 6.00099 7.7207 5.99705 6.95967C5.99705 6.85502 5.97607 6.75037 5.9564 6.5722C5.81802 6.70467 5.72556 6.77753 5.65145 6.86694C3.89524 8.99902 2.92926 11.4563 2.79482 14.2189C2.66366 16.9491 3.40077 19.4514 4.90516 21.7259C5.11173 22.0372 5.29864 22.1697 5.69933 22.1564C7.02075 22.1121 8.34348 22.1399 9.66621 22.1392C14.0382 22.1392 18.4101 22.137 22.7821 22.1326C23.0811 22.1326 23.1939 22.2227 23.1755 22.53C23.1513 22.9539 23.167 23.3811 23.167 23.9123ZM12.6842 22.536C12.687 22.6345 12.6797 22.733 12.6625 22.83C12.6422 22.9049 12.5917 23.0162 12.5353 23.0287C12.2907 23.0877 12.3051 22.8963 12.3064 22.7426C12.3064 22.3677 12.029 22.4843 11.8349 22.4671C11.6408 22.4499 11.4572 22.477 11.4782 22.7585C11.4969 22.9453 11.4969 23.1334 11.4782 23.3202C11.4664 23.4076 11.3759 23.4851 11.3208 23.5672C11.2618 23.4897 11.164 23.4175 11.1516 23.3334C11.1285 23.147 11.1261 22.9587 11.1444 22.7718C11.166 22.5068 11.0171 22.4406 10.8027 22.4677C10.606 22.4929 10.3095 22.3386 10.303 22.7472C10.303 22.8453 10.1915 22.9413 10.1312 23.0387C10.0741 22.9373 9.96919 22.84 9.96919 22.736C9.96919 22.375 9.71278 22.4803 9.52784 22.4671C9.32324 22.4532 9.11994 22.4545 9.1383 22.7612C9.15352 22.9482 9.15067 23.1363 9.12978 23.3228C9.11797 23.4076 9.02354 23.4811 8.96714 23.5593C8.91861 23.4844 8.83598 23.4129 8.82811 23.3334C8.80647 23.1347 8.82811 22.936 8.81041 22.7373C8.80188 22.6512 8.74483 22.5055 8.69499 22.4995C8.49169 22.4678 8.28449 22.4716 8.08247 22.5108C8.01689 22.5254 8.00968 22.7333 7.95132 22.842C7.90308 22.9141 7.84601 22.9797 7.78147 23.0374C7.72507 22.9804 7.61293 22.9155 7.61948 22.8671C7.68178 22.4081 7.36766 22.4816 7.1001 22.4697C6.86532 22.4565 6.78663 22.5565 6.81024 22.7843C6.83417 22.9482 6.83417 23.1146 6.81024 23.2784C6.78991 23.3844 6.6876 23.4771 6.62202 23.5699C6.56956 23.4765 6.48693 23.3884 6.47054 23.289C6.44877 23.1353 6.44877 22.9792 6.47054 22.8254C6.51316 22.4744 6.30003 22.4611 6.04493 22.4611C5.78982 22.4611 5.6344 22.4803 5.64293 22.8102C5.66391 23.648 5.65014 24.4872 5.64949 25.3271C5.64949 25.802 5.64948 25.802 6.13543 25.802H18.8886C20.0907 25.802 21.2928 25.7967 22.4955 25.8066C22.7388 25.8066 22.8175 25.7304 22.8135 25.484C22.8004 24.5793 22.8096 23.6745 22.7998 22.7684C22.7998 22.677 22.7381 22.5161 22.685 22.5035C22.4941 22.4659 22.2976 22.4675 22.1072 22.5081C22.0449 22.5234 22.0417 22.7347 21.9899 22.8479C21.9494 22.916 21.9002 22.9783 21.8436 23.0334C21.7857 22.981 21.7336 22.9223 21.6882 22.8585C21.6639 22.8161 21.681 22.7506 21.6757 22.6956C21.6429 22.3525 21.3767 22.4836 21.195 22.4658C21.0134 22.4479 20.8278 22.4426 20.8304 22.7128C20.8392 22.9116 20.8348 23.1107 20.8173 23.3089C20.8062 23.397 20.7183 23.4758 20.6652 23.5586C20.6107 23.4791 20.5196 23.4036 20.5091 23.3182C20.4848 23.1195 20.5091 22.9208 20.492 22.7221C20.4835 22.638 20.4199 22.4989 20.3668 22.4916C20.1744 22.4585 19.9776 22.4616 19.7864 22.5009C19.7208 22.5168 19.7208 22.7227 19.6651 22.832C19.6163 22.9051 19.5588 22.9718 19.4939 23.0307C19.4408 22.9724 19.3365 22.9089 19.3424 22.8572C19.3962 22.375 19.0663 22.4631 18.7896 22.4598C18.5876 22.4558 18.4847 22.526 18.5004 22.7506C18.5182 22.9373 18.516 23.1253 18.4938 23.3116C18.4814 23.3997 18.3863 23.4752 18.3292 23.556C18.2715 23.4785 18.1764 23.4063 18.164 23.3215C18.1407 23.1354 18.1367 22.9474 18.1522 22.7605C18.1725 22.4446 17.9594 22.4644 17.7587 22.4724C17.558 22.4803 17.32 22.3962 17.3213 22.7499C17.3213 22.8466 17.2111 22.944 17.1514 23.0413C17.0924 22.9413 16.9822 22.8426 16.9829 22.7419C16.9862 22.3558 16.7101 22.4803 16.5186 22.4624C16.3048 22.4432 16.1192 22.4717 16.1435 22.7698C16.1609 22.9461 16.1591 23.1237 16.1382 23.2996C16.1264 23.3904 16.0451 23.4712 15.9953 23.5566C15.9395 23.4771 15.851 23.403 15.8353 23.3162C15.8171 23.1623 15.8138 23.0071 15.8254 22.8526C15.8293 22.6406 15.8254 22.4346 15.529 22.4624C15.2955 22.4836 14.9644 22.3359 14.9722 22.7936C14.9722 22.8718 14.868 22.9512 14.8122 23.0307C14.7598 22.9486 14.7034 22.8678 14.6548 22.783C14.5958 22.681 14.5656 22.5101 14.4843 22.4816C14.0115 22.3161 13.7984 22.4816 13.7971 22.9817C13.8037 23.0256 13.8037 23.0703 13.7971 23.1142C13.7479 23.2632 13.6915 23.4089 13.637 23.556C13.5859 23.4056 13.4934 23.2566 13.4895 23.1049C13.4711 22.4128 13.4462 22.3843 12.7497 22.4969C12.7268 22.508 12.7049 22.521 12.6842 22.536V22.536ZM16.2655 9.32887C14.5289 9.32887 12.7898 9.33549 11.0552 9.3229C10.766 9.3229 10.6683 9.41431 10.6748 9.69713C10.6866 10.182 10.6748 10.6675 10.6748 11.1543C10.6748 11.7954 10.6748 11.7881 11.309 11.7616C11.5057 11.753 11.5851 11.6775 11.5818 11.4848C11.5818 11.2536 11.5719 11.0211 11.591 10.7907C11.5975 10.7112 11.6762 10.6383 11.7221 10.5621C11.7811 10.637 11.8828 10.7079 11.8907 10.7887C11.9089 11.0311 11.9133 11.2743 11.9038 11.5172C11.9005 11.7338 12.0303 11.7822 12.2028 11.7557C12.3753 11.7292 12.6389 11.8882 12.6901 11.5358C12.7137 11.3742 12.5858 11.1185 12.8698 11.0947C12.913 11.0907 13.0081 11.3689 13.0291 11.5232C13.079 11.8974 13.357 11.7166 13.5393 11.7517C13.7216 11.7868 13.8305 11.7153 13.8226 11.5027C13.8103 11.2491 13.8127 10.995 13.8298 10.7416C13.8357 10.6701 13.9341 10.6052 13.9905 10.5376C14.0502 10.6039 14.1512 10.6622 14.1623 10.7363C14.1793 10.9125 14.1817 11.0897 14.1695 11.2662C14.1564 11.7848 14.1551 11.7669 14.6607 11.7683C15.0076 11.7683 14.923 11.5371 14.9526 11.3417C14.967 11.2516 15.0483 11.1728 15.0995 11.0887C15.1676 11.1691 15.2301 11.2544 15.2864 11.3437C15.3016 11.3969 15.3034 11.4532 15.2916 11.5073C15.2706 11.8497 15.5244 11.7491 15.7008 11.7603C15.8877 11.7722 16.0858 11.7961 16.0641 11.4954C16.0466 11.2642 16.0488 11.032 16.0707 10.8013C16.0792 10.7171 16.1782 10.643 16.2366 10.5641C16.295 10.641 16.3907 10.7112 16.4038 10.7946C16.4198 10.9708 16.4229 11.1479 16.413 11.3245C16.413 11.7703 16.4169 11.7431 16.8399 11.7742C17.2164 11.8021 17.2039 11.5788 17.2177 11.3232C17.2216 11.2457 17.3049 11.1722 17.3488 11.0973C17.4127 11.1678 17.4706 11.2436 17.5219 11.3238C17.5385 11.3766 17.5406 11.4329 17.5279 11.4868C17.499 11.7789 17.6911 11.7722 17.8879 11.7616C18.0846 11.751 18.3286 11.8352 18.3174 11.4861C18.3088 11.2545 18.3156 11.0226 18.3378 10.792C18.3456 10.7132 18.4296 10.643 18.4788 10.5681C18.5391 10.643 18.6434 10.7125 18.6519 10.7926C18.6719 11.0349 18.6779 11.2782 18.6696 11.5212C18.6696 11.8272 18.8867 11.7643 19.0631 11.7656C19.2395 11.7669 19.4474 11.8206 19.4565 11.5179C19.4624 11.3649 19.3503 11.1251 19.6198 11.102C19.6579 11.102 19.751 11.3788 19.7654 11.5325C19.7976 11.8636 20.0356 11.753 20.21 11.7643C20.3845 11.7756 20.5799 11.812 20.574 11.5272C20.5637 11.2843 20.5672 11.0411 20.5845 10.7986C20.5924 10.7165 20.6914 10.6436 20.7484 10.5668C20.8081 10.643 20.9104 10.7151 20.9196 10.7973C20.9407 11.0175 20.9426 11.2391 20.9255 11.4596C20.9117 11.6802 20.9754 11.7987 21.2147 11.7689C21.2909 11.7593 21.368 11.7593 21.4442 11.7689C21.7177 11.8047 21.8102 11.6842 21.8036 11.4126C21.7896 10.8386 21.7896 10.2645 21.8036 9.6905C21.8102 9.41762 21.7157 9.33085 21.4436 9.33284C19.7175 9.33417 17.9915 9.32887 16.2655 9.32887V9.32887ZM12.252 8.9606C12.3719 8.95232 12.4922 8.95232 12.612 8.9606C12.9714 9.01094 13.1032 8.87251 13.1819 8.49696C13.4232 7.34383 14.1177 6.53908 15.2247 6.1483C15.6547 5.9959 16.1126 5.94118 16.566 5.98804C17.0193 6.03489 17.4568 6.18217 17.8473 6.41938C18.2377 6.65658 18.5716 6.97787 18.8251 7.36034C19.0785 7.74281 19.2453 8.17704 19.3136 8.63208C19.3516 8.8798 19.4447 8.9765 19.6939 8.96325C20.01 8.94669 20.3274 8.95663 20.6442 8.95133C21.0416 8.94537 21.0606 8.92219 21.0095 8.53472C20.6599 5.86217 18.3555 4.03079 15.6975 4.30964C13.6646 4.52424 11.9412 6.08207 11.5542 8.08499C11.3483 9.15202 11.3418 8.93543 12.252 8.9606V8.9606ZM24.7698 19.0812V11.2285C24.7698 10.4568 24.7789 9.68454 24.7652 8.91027C24.754 8.2625 24.2287 7.71805 23.6464 7.75316C23.6411 7.87834 23.63 8.00683 23.63 8.13599C23.63 10.7059 23.63 13.2755 23.63 15.845C23.63 16.7272 23.6254 17.6095 23.6359 18.4944C23.6359 18.6063 23.6897 18.7917 23.7618 18.8176C24.0746 18.9275 24.4038 18.9904 24.7698 19.0812V19.0812ZM13.4901 8.94736C13.6147 8.95862 13.7092 8.97451 13.8036 8.97451C15.4195 8.97451 17.0347 8.96921 18.6499 8.98114C18.9739 8.98114 19.0067 8.85728 18.9496 8.57976C18.5443 6.61459 16.2386 5.69128 14.6306 6.86694C13.9466 7.3637 13.5524 8.04657 13.4928 8.94471L13.4901 8.94736ZM8.37102 10.0793H8.36578C8.36578 8.91027 8.37037 7.7419 8.36578 6.57352C8.36184 5.84495 8.35397 5.85952 7.63654 5.84495C7.30208 5.83766 7.21486 5.95092 7.21617 6.28143C7.22995 8.70693 7.22011 11.1324 7.22535 13.5573C7.22535 14.3607 7.09813 14.2627 7.94279 14.2686C8.37037 14.2719 8.37233 14.2686 8.37233 13.8182C8.3719 12.569 8.37146 11.3227 8.37102 10.0793ZM19.5064 26.1901H10.5535C11.8756 27.3664 17.602 27.381 19.5064 26.1868V26.1901ZM6.32036 10.0727H6.32429C6.32429 11.351 6.3302 12.63 6.3197 13.9083C6.3197 14.1825 6.4043 14.2978 6.67908 14.2607C6.93484 14.2269 6.86926 14.0295 6.86991 13.8785C6.87385 12.0606 6.87385 10.2422 6.86991 8.42344C6.86991 7.67434 6.86532 6.92457 6.87319 6.17546C6.87319 5.9602 6.81942 5.84429 6.58202 5.84826C6.32364 5.85157 6.3197 6.01583 6.3197 6.2046C6.32102 7.4944 6.32123 8.78376 6.32036 10.0727ZM7.36504 14.6269C7.11387 14.6269 6.8627 14.6342 6.61219 14.6269C6.41545 14.619 6.33544 14.7084 6.33741 14.9005C6.34135 15.2528 6.33741 15.6052 6.33741 15.9602C6.33741 16.2205 6.46398 16.3364 6.72498 16.3298C7.11846 16.3205 7.51193 16.3179 7.90541 16.3298C8.20773 16.3384 8.352 16.2093 8.34938 15.9026C8.34938 15.5834 8.34348 15.2634 8.35594 14.9442C8.36512 14.6938 8.2497 14.613 8.01821 14.6289C7.8018 14.6362 7.58276 14.6263 7.36504 14.6269ZM7.34077 3.99105L6.48037 5.46874H8.19068L7.34077 3.99105Z" fill="#6651E6"/>
<path d="M5.30388 24.2269C5.52095 23.3917 5.09272 22.5764 4.50841 21.7147C2.82761 19.2375 2.22363 16.4524 2.51283 13.4698C2.78302 10.6814 3.92082 8.287 5.75638 6.20857C5.87639 6.07213 5.92295 5.86813 5.99837 5.69327C6.03313 5.61313 6.04296 5.52106 6.08493 5.44622C6.43775 4.8245 6.79319 4.20389 7.15125 3.58438C7.26732 3.38236 7.39258 3.38037 7.51718 3.57643C7.58801 3.6877 7.65621 3.80096 7.72048 3.91621C7.93754 4.30368 7.93623 4.30368 8.29823 4.06987C9.45441 3.3094 10.7342 2.76055 12.0789 2.44846C15.3519 1.70862 18.4807 2.12855 21.3669 3.87117C24.5271 5.77938 26.5516 8.58108 27.2801 12.2359C28.0395 16.043 27.2369 19.5309 24.8537 22.6062C24.4314 23.1506 23.9356 23.6421 23.4562 24.1355C23.2595 24.3342 23.1362 24.5283 23.1605 24.8237C23.1847 25.1304 23.1513 25.4423 23.1696 25.751C23.1873 26.0484 23.0837 26.1689 22.7762 26.1603C22.1536 26.144 21.5308 26.144 20.9078 26.1603C20.6915 26.1625 20.4778 26.2087 20.2796 26.2961C18.4132 27.1856 16.4432 27.5545 14.3932 27.4684C12.8416 27.4022 11.3542 27.0253 9.9246 26.4014C9.59552 26.2612 9.24348 26.1842 8.88648 26.1742C7.81622 26.1431 6.74466 26.1517 5.67309 26.1636C5.38127 26.1669 5.28683 26.0576 5.29667 25.7755C5.31503 25.331 5.30388 24.8893 5.30388 24.2269ZM14.622 21.0788H20.0651C21.256 21.0788 22.4469 21.0788 23.6379 21.0788C23.9953 21.0788 24.3428 21.0271 24.5776 20.7105C24.7875 20.4271 24.8563 20.1144 24.7088 19.778C24.5252 19.3627 24.1841 19.213 23.7572 19.2084C23.27 19.2031 23.2693 19.1978 23.2693 18.7162C23.2693 16.0569 23.2752 13.3976 23.2693 10.7383C23.2693 9.81436 23.4457 9.95014 22.4443 9.93093C22.1991 9.9263 22.1164 10.027 22.1243 10.2654C22.1348 10.7615 22.1171 11.2589 22.1302 11.755C22.1381 12.0299 22.0305 12.1173 21.763 12.1173C18.0813 12.1107 14.3993 12.1107 10.7168 12.1173C10.4184 12.1173 10.3391 11.9988 10.3469 11.7239C10.36 11.2271 10.3469 10.7304 10.3515 10.2343C10.3515 10.0256 10.2794 9.93093 10.0649 9.93756C9.75933 9.94683 9.45308 9.93756 9.14682 9.93756C8.70154 9.93424 8.69761 9.94286 8.69826 10.4012C8.7022 12.2664 8.70329 14.1313 8.70154 15.996C8.70154 16.4928 8.49366 16.6921 7.99657 16.6954C7.5926 16.6954 7.18863 16.6921 6.78401 16.6908C6.18133 16.6908 6.00296 16.5139 6.00165 15.9033C6.00165 14.5461 6.00165 13.1877 6.00165 11.8319C6.00165 11.302 6.00951 10.7721 5.99181 10.2422C5.98787 10.1402 5.89803 9.9773 5.81606 9.95213C5.357 9.81966 5.20224 9.94617 5.20224 10.4224C5.20224 13.799 5.20224 17.177 5.20224 20.5562C5.20224 21.0861 5.20223 21.0861 5.71375 21.0861L14.622 21.0788ZM23.167 23.9123C23.3336 23.7726 23.4208 23.7096 23.4949 23.6348C25.6944 21.4491 26.9536 18.7891 27.1673 15.6907C27.4067 12.2789 26.404 9.2315 24.1507 6.65963C21.6587 3.82149 18.4991 2.43124 14.7519 2.46237C12.4717 2.48091 10.3699 3.16776 8.4366 4.39243C8.18281 4.55338 8.12773 4.68982 8.30151 4.93688C8.54874 5.29057 8.72581 5.65221 8.70745 6.12379C8.66744 7.1597 8.69433 8.19825 8.68449 9.2368C8.68449 9.48319 8.75007 9.60241 9.02223 9.58453C9.3498 9.56519 9.67816 9.56342 10.0059 9.57923C10.24 9.58983 10.3594 9.51896 10.3391 9.26528C10.3233 9.06327 10.4138 8.93411 10.6263 8.97253C11.0362 9.05134 11.0853 8.8023 11.1194 8.4857C11.4644 5.48198 14.3282 3.39892 17.2649 4.01026C19.446 4.46397 21.1341 6.29799 21.376 8.52545C21.4141 8.87715 21.5013 9.01492 21.8567 8.98908C21.9374 8.98312 22.1072 9.14805 22.1053 9.23084C22.0968 9.54545 22.2476 9.60837 22.5106 9.58387C22.6633 9.57058 22.8169 9.57058 22.9696 9.58387C23.2031 9.60374 23.2746 9.49909 23.27 9.27455C23.2588 8.75594 23.2654 8.23666 23.27 7.71805C23.27 7.35774 23.3546 7.2862 23.6982 7.3372C24.5743 7.46967 25.1331 8.11413 25.1337 9.02485C25.1385 12.6783 25.1409 16.332 25.1409 19.9859C25.1409 20.8973 24.6163 21.4431 23.6982 21.4431C17.5775 21.4431 11.4567 21.4431 5.33602 21.4431C4.88417 21.4431 4.8527 21.41 4.8527 20.953C4.8527 17.443 4.8527 13.9326 4.8527 10.4217C4.8527 9.50571 4.73728 9.56068 5.65998 9.58784C5.92229 9.59446 6.00361 9.49379 6.00099 9.24409C5.99246 8.48239 6.00099 7.7207 5.99705 6.95967C5.99705 6.85502 5.97607 6.75037 5.9564 6.5722C5.81802 6.70467 5.72556 6.77753 5.65145 6.86694C3.89524 8.99902 2.92926 11.4563 2.79482 14.2189C2.66366 16.9491 3.40077 19.4514 4.90516 21.7259C5.11173 22.0372 5.29864 22.1697 5.69933 22.1564C7.02075 22.1121 8.34348 22.1399 9.66621 22.1392C14.0382 22.1392 18.4101 22.137 22.7821 22.1326C23.0811 22.1326 23.1939 22.2227 23.1755 22.53C23.1513 22.9539 23.167 23.3811 23.167 23.9123ZM12.6842 22.536C12.687 22.6345 12.6797 22.733 12.6625 22.83C12.6422 22.9049 12.5917 23.0162 12.5353 23.0287C12.2907 23.0877 12.3051 22.8963 12.3064 22.7426C12.3064 22.3677 12.029 22.4843 11.8349 22.4671C11.6408 22.4499 11.4572 22.477 11.4782 22.7585C11.4969 22.9453 11.4969 23.1334 11.4782 23.3202C11.4664 23.4076 11.3759 23.4851 11.3208 23.5672C11.2618 23.4897 11.164 23.4175 11.1516 23.3334C11.1285 23.147 11.1261 22.9587 11.1444 22.7718C11.166 22.5068 11.0171 22.4406 10.8027 22.4677C10.606 22.4929 10.3095 22.3386 10.303 22.7472C10.303 22.8453 10.1915 22.9413 10.1312 23.0387C10.0741 22.9373 9.96919 22.84 9.96919 22.736C9.96919 22.375 9.71278 22.4803 9.52784 22.4671C9.32324 22.4532 9.11994 22.4545 9.1383 22.7612C9.15352 22.9482 9.15067 23.1363 9.12978 23.3228C9.11797 23.4076 9.02354 23.4811 8.96714 23.5593C8.91861 23.4844 8.83598 23.4129 8.82811 23.3334C8.80647 23.1347 8.82811 22.936 8.81041 22.7373C8.80188 22.6512 8.74483 22.5055 8.69499 22.4995C8.49169 22.4678 8.28449 22.4716 8.08247 22.5108C8.01689 22.5254 8.00968 22.7333 7.95132 22.842C7.90308 22.9141 7.84601 22.9797 7.78147 23.0374C7.72507 22.9804 7.61293 22.9155 7.61948 22.8671C7.68178 22.4081 7.36766 22.4816 7.1001 22.4697C6.86532 22.4565 6.78663 22.5565 6.81024 22.7843C6.83417 22.9482 6.83417 23.1146 6.81024 23.2784C6.78991 23.3844 6.6876 23.4771 6.62202 23.5699C6.56956 23.4765 6.48693 23.3884 6.47054 23.289C6.44877 23.1353 6.44877 22.9792 6.47054 22.8254C6.51316 22.4744 6.30003 22.4611 6.04493 22.4611C5.78982 22.4611 5.6344 22.4803 5.64293 22.8102C5.66391 23.648 5.65014 24.4872 5.64949 25.3271C5.64949 25.802 5.64948 25.802 6.13543 25.802H18.8886C20.0907 25.802 21.2928 25.7967 22.4955 25.8066C22.7388 25.8066 22.8175 25.7304 22.8135 25.484C22.8004 24.5793 22.8096 23.6745 22.7998 22.7684C22.7998 22.677 22.7381 22.5161 22.685 22.5035C22.4941 22.4659 22.2976 22.4675 22.1072 22.5081C22.0449 22.5234 22.0417 22.7347 21.9899 22.8479C21.9494 22.916 21.9002 22.9783 21.8436 23.0334C21.7857 22.981 21.7336 22.9223 21.6882 22.8585C21.6639 22.8161 21.681 22.7506 21.6757 22.6956C21.6429 22.3525 21.3767 22.4836 21.195 22.4658C21.0134 22.4479 20.8278 22.4426 20.8304 22.7128C20.8392 22.9116 20.8348 23.1107 20.8173 23.3089C20.8062 23.397 20.7183 23.4758 20.6652 23.5586C20.6107 23.4791 20.5196 23.4036 20.5091 23.3182C20.4848 23.1195 20.5091 22.9208 20.492 22.7221C20.4835 22.638 20.4199 22.4989 20.3668 22.4916C20.1744 22.4585 19.9776 22.4616 19.7864 22.5009C19.7208 22.5168 19.7208 22.7227 19.6651 22.832C19.6163 22.9051 19.5588 22.9718 19.4939 23.0307C19.4408 22.9724 19.3365 22.9089 19.3424 22.8572C19.3962 22.375 19.0663 22.4631 18.7896 22.4598C18.5876 22.4558 18.4847 22.526 18.5004 22.7506C18.5182 22.9373 18.516 23.1253 18.4938 23.3116C18.4814 23.3997 18.3863 23.4752 18.3292 23.556C18.2715 23.4785 18.1764 23.4063 18.164 23.3215C18.1407 23.1354 18.1367 22.9474 18.1522 22.7605C18.1725 22.4446 17.9594 22.4644 17.7587 22.4724C17.558 22.4803 17.32 22.3962 17.3213 22.7499C17.3213 22.8466 17.2111 22.944 17.1514 23.0413C17.0924 22.9413 16.9822 22.8426 16.9829 22.7419C16.9862 22.3558 16.7101 22.4803 16.5186 22.4624C16.3048 22.4432 16.1192 22.4717 16.1435 22.7698C16.1609 22.9461 16.1591 23.1237 16.1382 23.2996C16.1264 23.3904 16.0451 23.4712 15.9953 23.5566C15.9395 23.4771 15.851 23.403 15.8353 23.3162C15.8171 23.1623 15.8138 23.0071 15.8254 22.8526C15.8293 22.6406 15.8254 22.4346 15.529 22.4624C15.2955 22.4836 14.9644 22.3359 14.9722 22.7936C14.9722 22.8718 14.868 22.9512 14.8122 23.0307C14.7598 22.9486 14.7034 22.8678 14.6548 22.783C14.5958 22.681 14.5656 22.5101 14.4843 22.4816C14.0115 22.3161 13.7984 22.4816 13.7971 22.9817C13.8037 23.0256 13.8037 23.0703 13.7971 23.1142C13.7479 23.2632 13.6915 23.4089 13.637 23.556C13.5859 23.4056 13.4934 23.2566 13.4895 23.1049C13.4711 22.4128 13.4462 22.3843 12.7497 22.4969C12.7268 22.508 12.7049 22.521 12.6842 22.536V22.536ZM16.2655 9.32887C14.5289 9.32887 12.7898 9.33549 11.0552 9.3229C10.766 9.3229 10.6683 9.41431 10.6748 9.69713C10.6866 10.182 10.6748 10.6675 10.6748 11.1543C10.6748 11.7954 10.6748 11.7881 11.309 11.7616C11.5057 11.753 11.5851 11.6775 11.5818 11.4848C11.5818 11.2536 11.5719 11.0211 11.591 10.7907C11.5975 10.7112 11.6762 10.6383 11.7221 10.5621C11.7811 10.637 11.8828 10.7079 11.8907 10.7887C11.9089 11.0311 11.9133 11.2743 11.9038 11.5172C11.9005 11.7338 12.0303 11.7822 12.2028 11.7557C12.3753 11.7292 12.6389 11.8882 12.6901 11.5358C12.7137 11.3742 12.5858 11.1185 12.8698 11.0947C12.913 11.0907 13.0081 11.3689 13.0291 11.5232C13.079 11.8974 13.357 11.7166 13.5393 11.7517C13.7216 11.7868 13.8305 11.7153 13.8226 11.5027C13.8103 11.2491 13.8127 10.995 13.8298 10.7416C13.8357 10.6701 13.9341 10.6052 13.9905 10.5376C14.0502 10.6039 14.1512 10.6622 14.1623 10.7363C14.1793 10.9125 14.1817 11.0897 14.1695 11.2662C14.1564 11.7848 14.1551 11.7669 14.6607 11.7683C15.0076 11.7683 14.923 11.5371 14.9526 11.3417C14.967 11.2516 15.0483 11.1728 15.0995 11.0887C15.1676 11.1691 15.2301 11.2544 15.2864 11.3437C15.3016 11.3969 15.3034 11.4532 15.2916 11.5073C15.2706 11.8497 15.5244 11.7491 15.7008 11.7603C15.8877 11.7722 16.0858 11.7961 16.0641 11.4954C16.0466 11.2642 16.0488 11.032 16.0707 10.8013C16.0792 10.7171 16.1782 10.643 16.2366 10.5641C16.295 10.641 16.3907 10.7112 16.4038 10.7946C16.4198 10.9708 16.4229 11.1479 16.413 11.3245C16.413 11.7703 16.4169 11.7431 16.8399 11.7742C17.2164 11.8021 17.2039 11.5788 17.2177 11.3232C17.2216 11.2457 17.3049 11.1722 17.3488 11.0973C17.4127 11.1678 17.4706 11.2436 17.5219 11.3238C17.5385 11.3766 17.5406 11.4329 17.5279 11.4868C17.499 11.7789 17.6911 11.7722 17.8879 11.7616C18.0846 11.751 18.3286 11.8352 18.3174 11.4861C18.3088 11.2545 18.3156 11.0226 18.3378 10.792C18.3456 10.7132 18.4296 10.643 18.4788 10.5681C18.5391 10.643 18.6434 10.7125 18.6519 10.7926C18.6719 11.0349 18.6779 11.2782 18.6696 11.5212C18.6696 11.8272 18.8867 11.7643 19.0631 11.7656C19.2395 11.7669 19.4474 11.8206 19.4565 11.5179C19.4624 11.3649 19.3503 11.1251 19.6198 11.102C19.6579 11.102 19.751 11.3788 19.7654 11.5325C19.7976 11.8636 20.0356 11.753 20.21 11.7643C20.3845 11.7756 20.5799 11.812 20.574 11.5272C20.5637 11.2843 20.5672 11.0411 20.5845 10.7986C20.5924 10.7165 20.6914 10.6436 20.7484 10.5668C20.8081 10.643 20.9104 10.7151 20.9196 10.7973C20.9407 11.0175 20.9426 11.2391 20.9255 11.4596C20.9117 11.6802 20.9754 11.7987 21.2147 11.7689C21.2909 11.7593 21.368 11.7593 21.4442 11.7689C21.7177 11.8047 21.8102 11.6842 21.8036 11.4126C21.7896 10.8386 21.7896 10.2645 21.8036 9.6905C21.8102 9.41762 21.7157 9.33085 21.4436 9.33284C19.7175 9.33417 17.9915 9.32887 16.2655 9.32887V9.32887ZM12.252 8.9606C12.3719 8.95232 12.4922 8.95232 12.612 8.9606C12.9714 9.01094 13.1032 8.87251 13.1819 8.49696C13.4232 7.34383 14.1177 6.53908 15.2247 6.1483C15.6547 5.9959 16.1126 5.94118 16.566 5.98804C17.0193 6.03489 17.4568 6.18217 17.8473 6.41938C18.2377 6.65658 18.5716 6.97787 18.8251 7.36034C19.0785 7.74281 19.2453 8.17704 19.3136 8.63208C19.3516 8.8798 19.4447 8.9765 19.6939 8.96325C20.01 8.94669 20.3274 8.95663 20.6442 8.95133C21.0416 8.94537 21.0606 8.92219 21.0095 8.53472C20.6599 5.86217 18.3555 4.03079 15.6975 4.30964C13.6646 4.52424 11.9412 6.08207 11.5542 8.08499C11.3483 9.15202 11.3418 8.93543 12.252 8.9606V8.9606ZM24.7698 19.0812V11.2285C24.7698 10.4568 24.7789 9.68454 24.7652 8.91027C24.754 8.2625 24.2287 7.71805 23.6464 7.75316C23.6411 7.87834 23.63 8.00683 23.63 8.13599C23.63 10.7059 23.63 13.2755 23.63 15.845C23.63 16.7272 23.6254 17.6095 23.6359 18.4944C23.6359 18.6063 23.6897 18.7917 23.7618 18.8176C24.0746 18.9275 24.4038 18.9904 24.7698 19.0812V19.0812ZM13.4901 8.94736C13.6147 8.95862 13.7092 8.97451 13.8036 8.97451C15.4195 8.97451 17.0347 8.96921 18.6499 8.98114C18.9739 8.98114 19.0067 8.85728 18.9496 8.57976C18.5443 6.61459 16.2386 5.69128 14.6306 6.86694C13.9466 7.3637 13.5524 8.04657 13.4928 8.94471L13.4901 8.94736ZM8.37102 10.0793H8.36578C8.36578 8.91027 8.37037 7.7419 8.36578 6.57352C8.36184 5.84495 8.35397 5.85952 7.63654 5.84495C7.30208 5.83766 7.21486 5.95092 7.21617 6.28143C7.22995 8.70693 7.22011 11.1324 7.22535 13.5573C7.22535 14.3607 7.09813 14.2627 7.94279 14.2686C8.37037 14.2719 8.37233 14.2686 8.37233 13.8182C8.3719 12.569 8.37146 11.3227 8.37102 10.0793ZM19.5064 26.1901H10.5535C11.8756 27.3664 17.602 27.381 19.5064 26.1868V26.1901ZM6.32036 10.0727H6.32429C6.32429 11.351 6.3302 12.63 6.3197 13.9083C6.3197 14.1825 6.4043 14.2978 6.67908 14.2607C6.93484 14.2269 6.86926 14.0295 6.86991 13.8785C6.87385 12.0606 6.87385 10.2422 6.86991 8.42344C6.86991 7.67434 6.86532 6.92457 6.87319 6.17546C6.87319 5.9602 6.81942 5.84429 6.58202 5.84826C6.32364 5.85157 6.3197 6.01583 6.3197 6.2046C6.32102 7.4944 6.32123 8.78376 6.32036 10.0727ZM7.36504 14.6269C7.11387 14.6269 6.8627 14.6342 6.61219 14.6269C6.41545 14.619 6.33544 14.7084 6.33741 14.9005C6.34135 15.2528 6.33741 15.6052 6.33741 15.9602C6.33741 16.2205 6.46398 16.3364 6.72498 16.3298C7.11846 16.3205 7.51193 16.3179 7.90541 16.3298C8.20773 16.3384 8.352 16.2093 8.34938 15.9026C8.34938 15.5834 8.34348 15.2634 8.35594 14.9442C8.36512 14.6938 8.2497 14.613 8.01821 14.6289C7.8018 14.6362 7.58276 14.6263 7.36504 14.6269ZM7.34077 3.99105L6.48037 5.46874H8.19068L7.34077 3.99105Z" stroke="#6651E6" stroke-width="0.4" mask="url(#path-1-outside-1)"/>
<path d="M18.2782 0.903991L18.2325 0.889029L18.1923 0.915356C18.1793 0.923888 18.1624 0.933044 18.1405 0.94443C18.1373 0.94612 18.1339 0.947868 18.1304 0.949668C18.1122 0.959108 18.0913 0.969952 18.0718 0.981173C18.0489 0.994443 18.0225 1.01135 17.9999 1.03247C17.9776 1.05325 17.9511 1.08536 17.9424 1.13014C17.9285 1.20099 17.9607 1.27057 17.99 1.31643C18.0224 1.36704 18.0684 1.41566 18.1186 1.4499C18.172 1.48633 18.2321 1.50498 18.2843 1.51756C18.3092 1.52357 18.3344 1.52866 18.3574 1.53331C18.3588 1.53359 18.3602 1.53387 18.3615 1.53414C18.3864 1.53916 18.4088 1.54375 18.43 1.54906L18.43 1.54908C19.8949 1.9155 21.2432 2.54942 22.4992 3.38964C23.9913 4.39475 25.273 5.68658 26.2713 7.19156L26.2713 7.19157L26.2724 7.19321C26.3212 7.26368 26.3969 7.30559 26.4588 7.33515C26.4873 7.34875 26.5123 7.35966 26.5354 7.36971C26.5707 7.38514 26.6015 7.39854 26.633 7.41652L26.8018 7.51296L26.782 7.31951C26.7795 7.29433 26.7789 7.26636 26.7788 7.23441C26.7788 7.22674 26.7788 7.2187 26.7789 7.21042C26.7789 7.18599 26.779 7.15946 26.7782 7.13419C26.7762 7.06872 26.7685 6.98397 26.7222 6.91378C25.0463 4.36414 22.7868 2.55052 19.9606 1.45945C19.5917 1.31696 19.2112 1.19814 18.8245 1.07737C18.6436 1.02088 18.4613 0.963958 18.2782 0.903991Z" fill="#6651E6" stroke="#6651E6" stroke-width="0.2"/>
<path d="M4.23522 5.98913L4.24361 6.04111C4.24655 6.05928 4.25144 6.07936 4.25773 6.10313C4.25908 6.10824 4.26053 6.11362 4.26203 6.11921C4.26705 6.13789 4.27266 6.15875 4.27727 6.17879C4.28871 6.22853 4.30102 6.29944 4.27634 6.36785L4.27558 6.36994L4.27556 6.36994C4.24557 6.4476 4.20234 6.51579 4.1585 6.57686C4.13655 6.60743 4.11373 6.63718 4.09199 6.66549L4.09061 6.66729C4.06905 6.69536 4.0486 6.72199 4.02921 6.74883L4.02909 6.74899C2.59324 8.7273 1.73832 10.9351 1.51704 13.3737L1.51704 13.3737C1.46428 13.9545 1.47117 14.5375 1.47814 15.1265L4.23522 5.98913ZM4.23522 5.98913L4.1876 5.96663M4.23522 5.98913L4.1876 5.96663M4.1876 5.96663L4.01513 5.88517L3.92015 5.8403L3.88001 5.93737C3.84324 6.02629 3.8015 6.11303 3.755 6.19715C3.61254 6.42608 3.46191 6.65439 3.31035 6.88411C3.01925 7.32532 2.72473 7.77173 2.47802 8.23772L2.47799 8.23778C1.22318 10.6116 0.75859 13.159 0.936604 15.8305C0.943098 15.9583 0.963351 16.0851 0.99701 16.2086L0.996995 16.2086L0.997497 16.2103C1.0123 16.261 1.05137 16.3083 1.08182 16.3378C1.09852 16.3539 1.11831 16.3701 1.1393 16.3824C1.14973 16.3885 1.16327 16.3952 1.17895 16.3997C1.1935 16.4038 1.21902 16.4086 1.24799 16.4L1.24802 16.4L1.25177 16.3988C1.29794 16.383 1.34048 16.3581 1.37695 16.3256C1.41341 16.2932 1.44308 16.2538 1.46427 16.2098L1.46439 16.2098M4.1876 5.96663L1.46439 16.2098M1.46439 16.2098L1.46637 16.2051M1.46439 16.2098L1.46637 16.2051M1.46637 16.2051C1.48891 16.1514 1.48997 16.0955 1.48836 16.0529C1.48768 16.0348 1.48633 16.0163 1.48513 15.9999C1.48489 15.9966 1.48465 15.9934 1.48443 15.9902C1.48304 15.9707 1.48206 15.9542 1.48204 15.939L1.46637 16.2051Z" fill="#6651E6" stroke="#6651E6" stroke-width="0.2"/>
<path d="M14.978 28.9992L14.9802 29.0991C16.6889 29.0608 18.3784 28.7279 19.9761 28.1149C19.9761 28.1149 19.9762 28.1149 19.9762 28.1149L19.9404 28.0215C20.0167 27.9925 20.0737 27.9122 20.1306 27.832C20.1338 27.8275 20.137 27.823 20.1402 27.8185C20.1609 27.8216 20.1823 27.8242 20.2037 27.8258L20.2112 27.7261L20.1361 27.6601C20.122 27.6761 20.1085 27.693 20.0957 27.7098C20.0947 27.7097 20.0937 27.7095 20.0926 27.7093C20.0049 27.6941 19.9169 27.6788 19.844 27.7056C17.5756 28.5395 15.2528 28.8058 12.8611 28.4295C12.791 28.4191 12.7141 28.4575 12.6376 28.4957C12.6361 28.4965 12.6346 28.4972 12.6331 28.498L14.978 28.9992ZM14.978 28.9992L14.967 29.0986C14.7744 29.0773 14.581 29.0567 14.3871 29.0359C13.8566 28.9792 13.3226 28.9221 12.7924 28.8526C12.7086 28.8418 12.6427 28.7861 12.5978 28.7439C12.5801 28.7272 12.562 28.7089 12.5455 28.6922C12.5399 28.6865 12.5345 28.6811 12.5293 28.6759C12.5076 28.6542 12.4886 28.636 12.4705 28.6214L12.3334 28.511L12.4984 28.4497C12.5205 28.4415 12.5443 28.4304 12.5717 28.4168C12.578 28.4137 12.5847 28.4104 12.5916 28.4069C12.6127 28.3964 12.6357 28.3849 12.6581 28.3746C12.7154 28.3486 12.7936 28.3184 12.8758 28.3306L12.8766 28.3308C15.2504 28.7042 17.556 28.4401 19.8095 27.6117L14.978 28.9992Z" fill="#6651E6" stroke="#6651E6" stroke-width="0.2"/>
<path d="M29.0545 14.085C29.0636 14.0111 29.0671 13.9365 29.065 13.8621L29.1047 13.8561L29.0895 13.757C29.0573 13.5477 29.0274 13.3371 28.9974 13.126C28.9266 12.6274 28.8553 12.1261 28.7535 11.6325L28.7535 11.6324C28.6579 11.17 28.5099 10.7175 28.3642 10.2724C28.3388 10.1946 28.3134 10.117 28.2884 10.0396L28.1932 10.0703L28.2884 10.0397C28.2751 9.99844 28.2493 9.96767 28.2249 9.94544C28.2004 9.92326 28.1725 9.90526 28.1475 9.89062C28.1292 9.87995 28.1092 9.86923 28.0913 9.85961C28.085 9.85626 28.079 9.85304 28.0735 9.85001C28.05 9.83728 28.0312 9.82641 28.0161 9.81578L27.9103 9.74107L27.8648 9.86232C27.8281 9.96023 27.7984 10.0607 27.7761 10.163L27.7759 10.1629L27.775 10.1693C27.7664 10.2256 27.789 10.276 27.8002 10.3009C27.8048 10.3111 27.8087 10.3194 27.8119 10.3263C27.8198 10.3433 27.824 10.3522 27.8263 10.3621L27.8263 10.3621L27.8265 10.3627C27.8801 10.5856 27.9348 10.8078 27.9894 11.0298C28.1394 11.6397 28.2889 12.2473 28.416 12.8605L28.416 12.8606C28.4569 13.0574 28.4769 13.2601 28.4936 13.4685C28.4968 13.5078 28.4999 13.5474 28.5029 13.5873C28.516 13.7564 28.5293 13.9292 28.5525 14.0996L28.5525 14.0998C28.563 14.1753 28.6139 14.233 28.6503 14.2701C28.6667 14.2868 28.6844 14.3034 28.7003 14.3183C28.7036 14.3213 28.7067 14.3243 28.7098 14.3271C28.7289 14.345 28.7448 14.3605 28.758 14.3752L28.842 14.4694L28.9145 14.3661C28.9706 14.2861 29.0159 14.1989 29.0492 14.107L29.0531 14.0963L29.0545 14.085Z" fill="#6651E6" stroke="#6651E6" stroke-width="0.2"/>
<path d="M4.44542 24.5643V24.6643C4.44542 24.7517 4.44622 24.84 4.44703 24.9286C4.44924 25.1712 4.45147 25.4172 4.43738 25.6597C4.4331 25.7356 4.38841 25.7977 4.35588 25.8384C4.34256 25.8551 4.32786 25.8722 4.31467 25.8875C4.31065 25.8922 4.30678 25.8967 4.30312 25.901C4.28635 25.9206 4.27264 25.9374 4.26182 25.9531L4.18443 26.0652L4.10064 25.9578C4.08792 25.9414 4.07148 25.9238 4.05126 25.9031C4.04673 25.8985 4.04191 25.8936 4.03693 25.8885C4.02119 25.8726 4.00376 25.8549 3.988 25.8376C3.95082 25.7968 3.89392 25.7293 3.89197 25.6449L4.44542 24.5643ZM4.44542 24.5643H4.43926M4.44542 24.5643H4.43926M4.43926 24.5643C4.43968 24.5079 4.44038 24.4511 4.44107 24.3941C4.44399 24.1552 4.44696 23.9118 4.4301 23.6685L4.43009 23.6684C4.42435 23.5873 4.38041 23.5181 4.34395 23.4676C4.32963 23.4478 4.31392 23.4276 4.29953 23.4091C4.29494 23.4031 4.29049 23.3974 4.28626 23.3919C4.26777 23.3679 4.25206 23.3467 4.2394 23.3264L4.15254 23.1874L4.06866 23.3282C4.05756 23.3469 4.04318 23.3668 4.02564 23.39C4.0214 23.3956 4.01686 23.4015 4.01216 23.4077C3.99871 23.4253 3.98389 23.4446 3.97057 23.4634C3.93653 23.5114 3.89242 23.5812 3.89195 23.6629M4.43926 24.5643L3.89197 23.6619C3.89196 23.6622 3.89196 23.6625 3.89195 23.6629M3.89195 23.6629C3.87663 24.3242 3.87664 24.9849 3.89197 25.6449L3.89195 23.6629ZM4.33034 23.6755C4.32538 23.6054 4.27342 23.5385 4.22139 23.4715C4.22006 23.4698 4.21874 23.4681 4.21741 23.4664C4.2254 23.4548 4.23322 23.4428 4.24051 23.4306L4.15458 23.3794L4.06977 23.4324L4.33034 23.6755ZM4.33034 23.6755C4.3469 23.9144 4.344 24.1516 4.3411 24.389C4.34039 24.4474 4.33968 24.5059 4.33925 24.5643L4.33034 23.6755Z" fill="#6651E6" stroke="#6651E6" stroke-width="0.2"/>
<path d="M11.0586 28.4807L11.1053 28.4973L11.1468 28.4703C11.1628 28.4599 11.1812 28.4505 11.2039 28.4388C11.2192 28.431 11.2364 28.4222 11.2561 28.4114C11.2764 28.4003 11.3005 28.3864 11.3204 28.3705C11.3303 28.3625 11.3429 28.3512 11.3537 28.3365C11.3642 28.3221 11.3784 28.2969 11.3784 28.2633H11.3791L11.3778 28.2518C11.3714 28.1974 11.3501 28.136 11.3214 28.0843C11.2949 28.0366 11.2498 27.9752 11.1834 27.9495C10.8053 27.8029 10.4204 27.6731 10.0342 27.5542C9.9649 27.5312 9.89647 27.5571 9.85885 27.5728C9.84177 27.5799 9.82398 27.5882 9.8086 27.5954C9.80448 27.5973 9.80054 27.5992 9.79683 27.6009C9.77759 27.6098 9.76246 27.6164 9.74934 27.6208L9.6451 27.6559L9.68993 27.7563C9.69644 27.7709 9.70283 27.7895 9.71032 27.8133C9.71203 27.8187 9.71383 27.8245 9.71571 27.8305C9.72137 27.8487 9.72772 27.8692 9.73427 27.8879C9.74304 27.9128 9.75458 27.942 9.77065 27.968C9.78625 27.9934 9.81266 28.0265 9.85582 28.0436L9.89274 27.9507L9.85547 28.0435C10.1448 28.1597 10.4397 28.2631 10.7457 28.3704C10.8487 28.4065 10.9529 28.4431 11.0586 28.4807Z" fill="#6651E6" stroke="#6651E6" stroke-width="0.2"/>
<path d="M12.9156 14.1395C11.624 14.1644 10.6596 15.0412 10.4034 16.4068C10.1962 17.5106 10.9387 18.7608 12.0487 19.2084L12.0497 19.2088C12.6008 19.4239 13.2084 19.4415 13.7709 19.2586C14.3334 19.0757 14.8164 18.7034 15.1394 18.2043L15.1397 18.2039C15.208 18.0974 15.2531 18.0663 15.2864 18.058C15.3208 18.0495 15.3736 18.057 15.4795 18.1121L15.4797 18.1122C16.1576 18.4637 16.8401 18.8064 17.522 19.1488C17.7491 19.2628 17.9761 19.3768 18.2029 19.4911L18.2029 19.4911C18.2929 19.5364 18.3733 19.5706 18.4433 19.5869C18.5127 19.603 18.5889 19.6053 18.655 19.5635C18.7206 19.522 18.7519 19.4522 18.7683 19.3823C18.785 19.3114 18.7905 19.2228 18.7905 19.1196V19.115V19.1104V19.1058V19.1012V19.0967V19.0921V19.0875V19.0829V19.0783V19.0737V19.0691V19.0645V19.0599V19.0553V19.0507V19.0461V19.0416V19.037V19.0324V19.0278V19.0232V19.0186V19.014V19.0094V19.0048V19.0002V18.9956V18.9911V18.9865V18.9819V18.9773V18.9727V18.9681V18.9635V18.9589V18.9543V18.9497V18.9451V18.9406V18.936V18.9314V18.9268V18.9222V18.9176V18.913V18.9084V18.9038V18.8992V18.8946V18.89V18.8855V18.8809V18.8763V18.8717V18.8671V18.8625V18.8579V18.8533V18.8487V18.8441V18.8395V18.835V18.8304V18.8258V18.8212V18.8166V18.812V18.8074V18.8028V18.7982V18.7936V18.789V18.7845V18.7799V18.7753V18.7707V18.7661V18.7615V18.7569V18.7523V18.7477V18.7431V18.7385V18.734V18.7294V18.7248V18.7202V18.7156V18.711V18.7064V18.7018V18.6972V18.6926V18.688V18.6834V18.6789V18.6743V18.6697V18.6651V18.6605V18.6559V18.6513V18.6467V18.6421V18.6375V18.6329V18.6284V18.6238V18.6192V18.6146V18.61V18.6054V18.6008V18.5962V18.5916V18.587V18.5824V18.5779V18.5733V18.5687V18.5641V18.5595V18.5549V18.5503V18.5457V18.5411V18.5365V18.5319V18.5274V18.5228V18.5182V18.5136V18.509V18.5044V18.4998V18.4952V18.4906V18.486V18.4814V18.4768V18.4723V18.4677V18.4631V18.4585V18.4539V18.4493V18.4447V18.4401V18.4355V18.4309V18.4263V18.4218V18.4172V18.4126V18.408V18.4034V18.3988V18.3942V18.3896V18.385V18.3804V18.3758V18.3713V18.3667V18.3621V18.3575V18.3529V18.3483V18.3437V18.3391V18.3345V18.3299V18.3253V18.3208V18.3162V18.3116V18.307V18.3024V18.2978V18.2932V18.2886V18.284V18.2794V18.2748V18.2702V18.2657V18.2611V18.2565V18.2519V18.2473V18.2427V18.2381V18.2335V18.2289V18.2243V18.2197V18.2152V18.2106V18.206V18.2014V18.1968V18.1922V18.1876V18.183V18.1784V18.1738V18.1692V18.1647V18.1601V18.1555V18.1509V18.1463V18.1417V18.1371V18.1325V18.1279V18.1233V18.1187V18.1142V18.1096V18.105V18.1004V18.0958V18.0912V18.0866V18.082V18.0774V18.0728V18.0682V18.0636V18.0591V18.0545V18.0499V18.0453V18.0407V18.0361V18.0315V18.0269V18.0223V18.0177V18.0131V18.0086V18.004V17.9994V17.9948V17.9902V17.9856V17.981V17.9764V17.9718V17.9672V17.9626V17.9581V17.9535V17.9489V17.9443V17.9397V17.9351V17.9305V17.9259V17.9213V17.9167V17.9121V17.9076V17.903V17.8984V17.8938V17.8892V17.8846V17.88V17.8754V17.8708V17.8662V17.8616V17.857V17.8525V17.8479V17.8433V17.8387V17.8341V17.8295V17.8249V17.8203V17.8157V17.8111V17.8065V17.802V17.7974V17.7928V17.7882V17.7836V17.779V17.7744V17.7698V17.7652V17.7606V17.756V17.7515V17.7469V17.7423V17.7377V17.7331V17.7285V17.7239V17.7193V17.7147V17.7101V17.7055V17.701V17.6964V17.6918V17.6872V17.6826V17.678V17.6734V17.6688V17.6642V17.6596V17.655V17.6504V17.6459V17.6413V17.6367V17.6321V17.6275V17.6229V17.6183V17.6137V17.6091V17.6045V17.5999V17.5954V17.5908V17.5862V17.5816V17.577V17.5724V17.5678V17.5632V17.5586V17.554V17.5494V17.5449V17.5403V17.5357V17.5311V17.5265V17.5219V17.5173V17.5127V17.5081V17.5035V17.4989V17.4944V17.4898V17.4852V17.4806V17.476V17.4714V17.4668V17.4622V17.4576V17.453V17.4484V17.4438V17.4393V17.4347V17.4301V17.4255V17.4209V17.4163V17.4117V17.4071V17.4025V17.3979V17.3933V17.3888V17.3842V17.3796V17.375V17.3704V17.3658V17.3612V17.3566V17.352V17.3474V17.3428V17.3383V17.3337V17.3291V17.3245V17.3199V17.3153V17.3107V17.3061V17.3015V17.2969V17.2923V17.2878V17.2832V17.2786V17.274V17.2694V17.2648V17.2602V17.2556V17.251V17.2464V17.2418V17.2372V17.2327V17.2281V17.2235V17.2189V17.2143V17.2097V17.2051V17.2005V17.1959V17.1913V17.1867V17.1822V17.1776V17.173V17.1684V17.1638V17.1592V17.1546V17.15V17.1454V17.1408V17.1362V17.1317V17.1271V17.1225V17.1179V17.1133V17.1087V17.1041V17.0995V17.0949V17.0903V17.0857V17.0812V17.0766V17.072V17.0674V17.0628V17.0582V17.0536V17.049V17.0444V17.0398V17.0352V17.0306V17.0261V17.0215V17.0169V17.0123V17.0077V17.0031V16.9985V16.9939V16.9893V16.9847V16.9801V16.9756V16.971V16.9664V16.9618V16.9572V16.9526V16.948V16.9434V16.9388V16.9342V16.9296V16.9251V16.9205V16.9159V16.9113V16.9067V16.9021V16.8975V16.8929V16.8883V16.8837V16.8791V16.8746V16.87V16.8654V16.8608V16.8562V16.8516V16.847V16.8424V16.8378V16.8332V16.8286V16.824V16.8195V16.8149V16.8103V16.8057V16.8011V16.7965V16.7919V16.7873V16.7827V16.7781V16.7735V16.7691C18.7914 15.9857 18.7916 15.2032 18.7912 14.4216L18.7912 14.4213C18.7909 14.3044 18.7853 14.2056 18.7682 14.1282C18.7513 14.0523 18.7186 13.9759 18.646 13.9332C18.5741 13.8909 18.4913 13.8984 18.4163 13.9188C18.3394 13.9398 18.2487 13.9805 18.1441 14.0338L18.1441 14.0338C17.7332 14.2434 17.3205 14.4519 16.9076 14.6604C16.4118 14.9109 15.9157 15.1615 15.4224 15.4142L15.4223 15.4142C15.3432 15.4548 15.3073 15.4568 15.2873 15.4516C15.2675 15.4464 15.235 15.4266 15.1834 15.3469C14.6532 14.5272 13.8909 14.1189 12.9156 14.1395ZM12.9156 14.1395C12.9156 14.1395 12.9155 14.1395 12.9155 14.1395L12.9176 14.2395L12.9157 14.1395C12.9156 14.1395 12.9156 14.1395 12.9156 14.1395ZM10.993 16.2485L10.9929 16.2488C10.7683 17.2973 11.2346 18.2385 12.1822 18.6655C13.0549 19.0583 14.0748 18.7695 14.6531 17.9695L14.6532 17.9693C14.6885 17.9208 14.7124 17.8814 14.7265 17.8488C14.7404 17.8164 14.742 17.7967 14.7403 17.7847C14.7379 17.7668 14.7208 17.7252 14.5962 17.668C14.1855 17.4819 13.7846 17.2748 13.3882 17.0646L13.435 16.9763L13.3889 17.065C13.3364 17.0377 13.2787 16.9958 13.2324 16.9489C13.1905 16.9064 13.1385 16.8404 13.1339 16.7637C13.1312 16.72 13.1453 16.6806 13.1611 16.6504C13.1773 16.6194 13.1991 16.5907 13.2219 16.5659C13.2671 16.5165 13.3248 16.4721 13.377 16.4439L13.3771 16.4438C13.7815 16.2257 14.1909 16.0105 14.6103 15.8171L10.993 16.2485ZM10.993 16.2485C11.184 15.3452 12.0423 14.6662 12.9979 14.666M10.993 16.2485L12.9979 14.666M12.9979 14.666C13.7075 14.6718 14.2461 14.9943 14.6665 15.5695L14.6665 15.5695L14.667 15.5702C14.7343 15.6605 14.741 15.7017 14.7377 15.719C14.7354 15.7311 14.7199 15.7665 14.6103 15.8171L12.9979 14.666ZM18.2167 14.614V18.8863L13.9836 16.7517C15.3793 16.0478 16.7743 15.3433 18.2167 14.614Z" fill="#6651E6" stroke="#6651E6" stroke-width="0.2"/>
</svg>
