<svg width="30" height="30" viewBox="0 0 30 30" fill="none" xmlns="http://www.w3.org/2000/svg">
<mask id="path-1-outside-1" maskUnits="userSpaceOnUse" x="0" y="0.774902" width="28" height="29" fill="black">
<rect fill="white" y="0.774902" width="28" height="29"/>
<path d="M20.049 27.151L18.25 27.8753C18.3346 28.1226 18.4292 28.3431 18.4872 28.5803C18.5491 28.8315 18.4665 28.9812 18.1673 28.9812C15.5907 28.9758 13.0147 28.9812 10.438 28.9772C10.1155 28.9772 10.0349 28.8789 10.1142 28.5662C10.1715 28.3431 10.2641 28.1286 10.3561 27.868C10.2561 27.8272 10.1515 27.7778 10.0423 27.741C8.58526 27.2549 7.22904 26.5061 6.04036 25.5314C5.80248 25.3369 5.56327 25.2915 5.27609 25.2968C4.38123 25.3142 3.77355 24.9681 3.53767 24.2418C3.42773 23.903 3.47104 23.5188 3.40907 23.16C3.36909 22.9175 3.32578 22.6502 3.19518 22.4524C1.95716 20.5755 1.1889 18.5148 1.03831 16.2818C0.714483 11.4863 2.44424 7.54937 6.1976 4.54257C7.94677 3.12739 10.0496 2.2205 12.2771 1.92064C16.5089 1.34468 20.2629 2.46922 23.4126 5.41254C25.6781 7.53 27.0213 10.1566 27.4724 13.2229C27.8936 16.084 27.3938 18.8028 26.0372 21.3593C25.9714 21.5006 25.8953 21.6368 25.8093 21.7669C25.3396 22.3996 25.0944 23.0745 25.1397 23.8943C25.175 24.5371 24.5686 25.1305 23.9057 25.2354C23.5725 25.2881 23.4692 25.4251 23.4872 25.7532C23.5152 26.253 23.5032 26.7555 23.4985 27.2559C23.4912 28.1793 22.8409 28.9224 21.9867 28.9932C21.0405 29.072 20.2749 28.478 20.105 27.5326C20.0883 27.4223 20.0743 27.3134 20.049 27.151ZM14.2574 8.68995C12.8803 8.68995 11.5033 8.68995 10.1262 8.68995C8.44976 8.68995 6.77264 8.68995 5.09619 8.70131C4.28928 8.70666 3.77954 9.20979 3.77888 9.97887C3.77621 14.0547 3.77266 18.1306 3.76822 22.2065C3.76822 22.5159 3.8595 22.6074 4.16401 22.6074C5.44134 22.5927 6.718 22.5987 7.99533 22.5987C11.9044 22.5987 15.8135 22.6016 19.7225 22.6074C20.0257 22.6074 20.0943 22.4992 20.0917 22.2172C20.0783 21.0813 20.0803 19.9454 20.0917 18.8095C20.0915 18.6223 20.1344 18.4376 20.2169 18.2696C20.6434 17.4638 21.0871 16.666 21.5342 15.8722C21.5942 15.7653 21.7088 15.6891 21.8007 15.5982C21.8894 15.6878 22.0006 15.7633 22.0633 15.8688C22.4891 16.6246 22.9128 17.3816 23.3153 18.1493C23.4228 18.3524 23.4834 18.5771 23.4925 18.8068C23.5119 19.9541 23.5105 21.1007 23.5039 22.2479C23.5039 22.5038 23.5845 22.6188 23.8477 22.6021C24.0472 22.5853 24.2478 22.5853 24.4474 22.6021C24.7445 22.6328 24.8212 22.5139 24.8205 22.2232C24.8103 18.1251 24.807 14.0269 24.8105 9.92875C24.8105 9.34543 24.468 8.88439 23.9163 8.75009C23.6991 8.70393 23.4772 8.68375 23.2553 8.68995C20.2547 8.68728 17.2554 8.68728 14.2574 8.68995ZM25.1723 21.9199L25.2789 21.9406C25.9779 20.9129 26.435 19.7697 26.7748 18.577C27.5264 15.937 27.4251 13.3084 26.499 10.7393C24.578 5.41187 19.4866 1.80371 13.5604 2.1378C7.82542 2.46521 3.13788 6.42082 1.74861 11.8985C0.848415 15.4492 1.39146 18.8102 3.35376 21.9165C3.4014 21.7885 3.42161 21.6519 3.41307 21.5156C3.41307 17.719 3.41462 13.9222 3.41773 10.1252C3.41773 8.99999 4.04141 8.36589 5.16748 8.36321C8.92018 8.35386 12.6738 8.35074 16.4282 8.35386C18.7603 8.35386 21.0925 8.35386 23.4246 8.36923C23.7264 8.36923 24.0569 8.416 24.3221 8.54696C24.9218 8.84363 25.1843 9.37483 25.183 10.0477C25.1776 13.8109 25.1754 17.5749 25.1763 21.3399L25.1723 21.9199ZM11.9592 22.9696H7.82808C6.5954 22.9696 5.36271 22.9696 4.13136 22.9756C4.01942 22.9756 3.83684 23.0317 3.80753 23.1092C3.51568 23.8602 4.05406 24.763 4.84965 24.8799C5.01465 24.9016 5.18098 24.9117 5.34739 24.91C8.4662 24.9149 11.5852 24.9184 14.7045 24.9206H19.502C20.071 24.9206 20.071 24.9206 20.0717 24.3347C20.0717 24.034 20.0717 23.7333 20.0717 23.4326C20.0717 22.9716 20.0717 22.9709 19.6192 22.9702L11.9592 22.9696ZM23.1474 22.4598V19.5532C23.1474 18.7266 23.1474 18.7373 22.3125 18.744C22.05 18.744 21.9647 18.8309 21.9687 19.0901C21.98 19.8358 21.9733 20.5822 21.9687 21.3285C21.9687 21.4688 22.0353 21.6913 21.7908 21.6693C21.7241 21.6626 21.6248 21.4368 21.6208 21.3091C21.6029 20.7078 21.6142 20.1064 21.6109 19.5051C21.6069 18.746 21.6049 18.7634 20.8619 18.74C20.5248 18.7293 20.4288 18.8295 20.4315 19.169C20.4475 21.3847 20.4492 23.6006 20.4368 25.8167C20.4368 26.1214 20.5441 26.2009 20.8226 26.1955C21.4669 26.1828 22.1113 26.1815 22.7549 26.1955C23.0501 26.2022 23.162 26.116 23.1547 25.7986C23.1361 24.6868 23.1474 23.5729 23.1474 22.4598ZM6.35619 25.3175C6.4302 25.396 6.51018 25.4686 6.5954 25.5347C7.44628 26.0332 8.27452 26.5797 9.16005 27.0047C9.81704 27.3214 10.4927 27.7397 11.3043 27.4524C11.4875 27.3856 11.6108 27.3334 11.6847 27.1437C11.8846 26.6258 12.1092 26.116 12.3197 25.6022C12.3523 25.508 12.3797 25.4121 12.4017 25.3149L6.35619 25.3175ZM16.5628 27.3889C16.5688 27.3321 16.5848 27.2947 16.5735 27.268C16.327 26.6612 16.0851 26.0519 15.8192 25.4532C15.7846 25.3737 15.63 25.3049 15.5294 25.3035C14.7198 25.2942 13.9102 25.2928 13.1007 25.3149C13.0308 25.325 12.964 25.3505 12.9052 25.3895C12.8463 25.4286 12.7968 25.4802 12.7602 25.5407C12.6002 25.8441 12.485 26.1715 12.3544 26.4902C12.2384 26.7722 12.1265 27.0561 11.9932 27.3889H16.5628ZM16.1464 25.2928C16.4476 26.0158 16.7134 26.6586 16.9866 27.2974C17.0023 27.3256 17.0237 27.3503 17.0494 27.3698C17.0751 27.3894 17.1045 27.4034 17.1359 27.4109C17.5643 27.4891 17.9848 27.6415 18.4279 27.4203C18.7963 27.2414 19.1779 27.091 19.5693 26.9706C19.9844 26.837 20.1556 26.5938 20.0836 26.1581C20.0613 25.9704 20.0613 25.7806 20.0836 25.5928C20.1016 25.3583 20.0057 25.2855 19.7771 25.2881C18.9469 25.2975 18.1167 25.2915 17.2858 25.2915L16.1464 25.2928ZM18.096 28.5976C18.0194 28.0905 17.6296 27.7804 17.0886 27.7771C15.8785 27.7711 14.6692 27.7771 13.4598 27.7771C12.7715 27.7771 12.0832 27.7684 11.3942 27.7851C10.8938 27.7972 10.5047 28.1747 10.528 28.5996L18.096 28.5976ZM21.7994 26.569H21.233C20.3995 26.569 20.3002 26.7027 20.4874 27.5419C20.4985 27.5965 20.5125 27.6505 20.5294 27.7036C20.6108 27.9599 20.7686 28.1851 20.9815 28.3487C21.1944 28.5124 21.4522 28.6067 21.7201 28.619C22.2938 28.6391 22.8302 28.3364 23.0068 27.7998C23.1141 27.4717 23.1054 27.1022 23.1167 26.7508C23.1167 26.6913 22.9581 26.5791 22.8682 26.5737C22.5104 26.553 22.1546 26.5657 21.7994 26.5657V26.569ZM21.7994 16.1542C21.371 16.9353 20.9998 17.6101 20.6 18.3465H22.9928L21.7994 16.1542ZM23.5165 23.9311C23.5165 24.1195 23.5165 24.3079 23.5165 24.4964C23.5165 24.9253 23.6018 24.9808 24.0083 24.8304C24.6333 24.5979 25.0497 23.6665 24.7799 23.0852C24.7588 23.0562 24.732 23.0319 24.7012 23.0137C24.6703 22.9956 24.6361 22.9839 24.6006 22.9796C23.6011 22.8266 23.5158 22.8974 23.5158 23.8977C23.5145 23.9057 23.5145 23.9204 23.5152 23.9277L23.5165 23.9311Z"/>
</mask>
<path d="M20.049 27.151L18.25 27.8753C18.3346 28.1226 18.4292 28.3431 18.4872 28.5803C18.5491 28.8315 18.4665 28.9812 18.1673 28.9812C15.5907 28.9758 13.0147 28.9812 10.438 28.9772C10.1155 28.9772 10.0349 28.8789 10.1142 28.5662C10.1715 28.3431 10.2641 28.1286 10.3561 27.868C10.2561 27.8272 10.1515 27.7778 10.0423 27.741C8.58526 27.2549 7.22904 26.5061 6.04036 25.5314C5.80248 25.3369 5.56327 25.2915 5.27609 25.2968C4.38123 25.3142 3.77355 24.9681 3.53767 24.2418C3.42773 23.903 3.47104 23.5188 3.40907 23.16C3.36909 22.9175 3.32578 22.6502 3.19518 22.4524C1.95716 20.5755 1.1889 18.5148 1.03831 16.2818C0.714483 11.4863 2.44424 7.54937 6.1976 4.54257C7.94677 3.12739 10.0496 2.2205 12.2771 1.92064C16.5089 1.34468 20.2629 2.46922 23.4126 5.41254C25.6781 7.53 27.0213 10.1566 27.4724 13.2229C27.8936 16.084 27.3938 18.8028 26.0372 21.3593C25.9714 21.5006 25.8953 21.6368 25.8093 21.7669C25.3396 22.3996 25.0944 23.0745 25.1397 23.8943C25.175 24.5371 24.5686 25.1305 23.9057 25.2354C23.5725 25.2881 23.4692 25.4251 23.4872 25.7532C23.5152 26.253 23.5032 26.7555 23.4985 27.2559C23.4912 28.1793 22.8409 28.9224 21.9867 28.9932C21.0405 29.072 20.2749 28.478 20.105 27.5326C20.0883 27.4223 20.0743 27.3134 20.049 27.151ZM14.2574 8.68995C12.8803 8.68995 11.5033 8.68995 10.1262 8.68995C8.44976 8.68995 6.77264 8.68995 5.09619 8.70131C4.28928 8.70666 3.77954 9.20979 3.77888 9.97887C3.77621 14.0547 3.77266 18.1306 3.76822 22.2065C3.76822 22.5159 3.8595 22.6074 4.16401 22.6074C5.44134 22.5927 6.718 22.5987 7.99533 22.5987C11.9044 22.5987 15.8135 22.6016 19.7225 22.6074C20.0257 22.6074 20.0943 22.4992 20.0917 22.2172C20.0783 21.0813 20.0803 19.9454 20.0917 18.8095C20.0915 18.6223 20.1344 18.4376 20.2169 18.2696C20.6434 17.4638 21.0871 16.666 21.5342 15.8722C21.5942 15.7653 21.7088 15.6891 21.8007 15.5982C21.8894 15.6878 22.0006 15.7633 22.0633 15.8688C22.4891 16.6246 22.9128 17.3816 23.3153 18.1493C23.4228 18.3524 23.4834 18.5771 23.4925 18.8068C23.5119 19.9541 23.5105 21.1007 23.5039 22.2479C23.5039 22.5038 23.5845 22.6188 23.8477 22.6021C24.0472 22.5853 24.2478 22.5853 24.4474 22.6021C24.7445 22.6328 24.8212 22.5139 24.8205 22.2232C24.8103 18.1251 24.807 14.0269 24.8105 9.92875C24.8105 9.34543 24.468 8.88439 23.9163 8.75009C23.6991 8.70393 23.4772 8.68375 23.2553 8.68995C20.2547 8.68728 17.2554 8.68728 14.2574 8.68995ZM25.1723 21.9199L25.2789 21.9406C25.9779 20.9129 26.435 19.7697 26.7748 18.577C27.5264 15.937 27.4251 13.3084 26.499 10.7393C24.578 5.41187 19.4866 1.80371 13.5604 2.1378C7.82542 2.46521 3.13788 6.42082 1.74861 11.8985C0.848415 15.4492 1.39146 18.8102 3.35376 21.9165C3.4014 21.7885 3.42161 21.6519 3.41307 21.5156C3.41307 17.719 3.41462 13.9222 3.41773 10.1252C3.41773 8.99999 4.04141 8.36589 5.16748 8.36321C8.92018 8.35386 12.6738 8.35074 16.4282 8.35386C18.7603 8.35386 21.0925 8.35386 23.4246 8.36923C23.7264 8.36923 24.0569 8.416 24.3221 8.54696C24.9218 8.84363 25.1843 9.37483 25.183 10.0477C25.1776 13.8109 25.1754 17.5749 25.1763 21.3399L25.1723 21.9199ZM11.9592 22.9696H7.82808C6.5954 22.9696 5.36271 22.9696 4.13136 22.9756C4.01942 22.9756 3.83684 23.0317 3.80753 23.1092C3.51568 23.8602 4.05406 24.763 4.84965 24.8799C5.01465 24.9016 5.18098 24.9117 5.34739 24.91C8.4662 24.9149 11.5852 24.9184 14.7045 24.9206H19.502C20.071 24.9206 20.071 24.9206 20.0717 24.3347C20.0717 24.034 20.0717 23.7333 20.0717 23.4326C20.0717 22.9716 20.0717 22.9709 19.6192 22.9702L11.9592 22.9696ZM23.1474 22.4598V19.5532C23.1474 18.7266 23.1474 18.7373 22.3125 18.744C22.05 18.744 21.9647 18.8309 21.9687 19.0901C21.98 19.8358 21.9733 20.5822 21.9687 21.3285C21.9687 21.4688 22.0353 21.6913 21.7908 21.6693C21.7241 21.6626 21.6248 21.4368 21.6208 21.3091C21.6029 20.7078 21.6142 20.1064 21.6109 19.5051C21.6069 18.746 21.6049 18.7634 20.8619 18.74C20.5248 18.7293 20.4288 18.8295 20.4315 19.169C20.4475 21.3847 20.4492 23.6006 20.4368 25.8167C20.4368 26.1214 20.5441 26.2009 20.8226 26.1955C21.4669 26.1828 22.1113 26.1815 22.7549 26.1955C23.0501 26.2022 23.162 26.116 23.1547 25.7986C23.1361 24.6868 23.1474 23.5729 23.1474 22.4598ZM6.35619 25.3175C6.4302 25.396 6.51018 25.4686 6.5954 25.5347C7.44628 26.0332 8.27452 26.5797 9.16005 27.0047C9.81704 27.3214 10.4927 27.7397 11.3043 27.4524C11.4875 27.3856 11.6108 27.3334 11.6847 27.1437C11.8846 26.6258 12.1092 26.116 12.3197 25.6022C12.3523 25.508 12.3797 25.4121 12.4017 25.3149L6.35619 25.3175ZM16.5628 27.3889C16.5688 27.3321 16.5848 27.2947 16.5735 27.268C16.327 26.6612 16.0851 26.0519 15.8192 25.4532C15.7846 25.3737 15.63 25.3049 15.5294 25.3035C14.7198 25.2942 13.9102 25.2928 13.1007 25.3149C13.0308 25.325 12.964 25.3505 12.9052 25.3895C12.8463 25.4286 12.7968 25.4802 12.7602 25.5407C12.6002 25.8441 12.485 26.1715 12.3544 26.4902C12.2384 26.7722 12.1265 27.0561 11.9932 27.3889H16.5628ZM16.1464 25.2928C16.4476 26.0158 16.7134 26.6586 16.9866 27.2974C17.0023 27.3256 17.0237 27.3503 17.0494 27.3698C17.0751 27.3894 17.1045 27.4034 17.1359 27.4109C17.5643 27.4891 17.9848 27.6415 18.4279 27.4203C18.7963 27.2414 19.1779 27.091 19.5693 26.9706C19.9844 26.837 20.1556 26.5938 20.0836 26.1581C20.0613 25.9704 20.0613 25.7806 20.0836 25.5928C20.1016 25.3583 20.0057 25.2855 19.7771 25.2881C18.9469 25.2975 18.1167 25.2915 17.2858 25.2915L16.1464 25.2928ZM18.096 28.5976C18.0194 28.0905 17.6296 27.7804 17.0886 27.7771C15.8785 27.7711 14.6692 27.7771 13.4598 27.7771C12.7715 27.7771 12.0832 27.7684 11.3942 27.7851C10.8938 27.7972 10.5047 28.1747 10.528 28.5996L18.096 28.5976ZM21.7994 26.569H21.233C20.3995 26.569 20.3002 26.7027 20.4874 27.5419C20.4985 27.5965 20.5125 27.6505 20.5294 27.7036C20.6108 27.9599 20.7686 28.1851 20.9815 28.3487C21.1944 28.5124 21.4522 28.6067 21.7201 28.619C22.2938 28.6391 22.8302 28.3364 23.0068 27.7998C23.1141 27.4717 23.1054 27.1022 23.1167 26.7508C23.1167 26.6913 22.9581 26.5791 22.8682 26.5737C22.5104 26.553 22.1546 26.5657 21.7994 26.5657V26.569ZM21.7994 16.1542C21.371 16.9353 20.9998 17.6101 20.6 18.3465H22.9928L21.7994 16.1542ZM23.5165 23.9311C23.5165 24.1195 23.5165 24.3079 23.5165 24.4964C23.5165 24.9253 23.6018 24.9808 24.0083 24.8304C24.6333 24.5979 25.0497 23.6665 24.7799 23.0852C24.7588 23.0562 24.732 23.0319 24.7012 23.0137C24.6703 22.9956 24.6361 22.9839 24.6006 22.9796C23.6011 22.8266 23.5158 22.8974 23.5158 23.8977C23.5145 23.9057 23.5145 23.9204 23.5152 23.9277L23.5165 23.9311Z" fill="#6651E6"/>
<path d="M20.049 27.151L18.25 27.8753C18.3346 28.1226 18.4292 28.3431 18.4872 28.5803C18.5491 28.8315 18.4665 28.9812 18.1673 28.9812C15.5907 28.9758 13.0147 28.9812 10.438 28.9772C10.1155 28.9772 10.0349 28.8789 10.1142 28.5662C10.1715 28.3431 10.2641 28.1286 10.3561 27.868C10.2561 27.8272 10.1515 27.7778 10.0423 27.741C8.58526 27.2549 7.22904 26.5061 6.04036 25.5314C5.80248 25.3369 5.56327 25.2915 5.27609 25.2968C4.38123 25.3142 3.77355 24.9681 3.53767 24.2418C3.42773 23.903 3.47104 23.5188 3.40907 23.16C3.36909 22.9175 3.32578 22.6502 3.19518 22.4524C1.95716 20.5755 1.1889 18.5148 1.03831 16.2818C0.714483 11.4863 2.44424 7.54937 6.1976 4.54257C7.94677 3.12739 10.0496 2.2205 12.2771 1.92064C16.5089 1.34468 20.2629 2.46922 23.4126 5.41254C25.6781 7.53 27.0213 10.1566 27.4724 13.2229C27.8936 16.084 27.3938 18.8028 26.0372 21.3593C25.9714 21.5006 25.8953 21.6368 25.8093 21.7669C25.3396 22.3996 25.0944 23.0745 25.1397 23.8943C25.175 24.5371 24.5686 25.1305 23.9057 25.2354C23.5725 25.2881 23.4692 25.4251 23.4872 25.7532C23.5152 26.253 23.5032 26.7555 23.4985 27.2559C23.4912 28.1793 22.8409 28.9224 21.9867 28.9932C21.0405 29.072 20.2749 28.478 20.105 27.5326C20.0883 27.4223 20.0743 27.3134 20.049 27.151ZM14.2574 8.68995C12.8803 8.68995 11.5033 8.68995 10.1262 8.68995C8.44976 8.68995 6.77264 8.68995 5.09619 8.70131C4.28928 8.70666 3.77954 9.20979 3.77888 9.97887C3.77621 14.0547 3.77266 18.1306 3.76822 22.2065C3.76822 22.5159 3.8595 22.6074 4.16401 22.6074C5.44134 22.5927 6.718 22.5987 7.99533 22.5987C11.9044 22.5987 15.8135 22.6016 19.7225 22.6074C20.0257 22.6074 20.0943 22.4992 20.0917 22.2172C20.0783 21.0813 20.0803 19.9454 20.0917 18.8095C20.0915 18.6223 20.1344 18.4376 20.2169 18.2696C20.6434 17.4638 21.0871 16.666 21.5342 15.8722C21.5942 15.7653 21.7088 15.6891 21.8007 15.5982C21.8894 15.6878 22.0006 15.7633 22.0633 15.8688C22.4891 16.6246 22.9128 17.3816 23.3153 18.1493C23.4228 18.3524 23.4834 18.5771 23.4925 18.8068C23.5119 19.9541 23.5105 21.1007 23.5039 22.2479C23.5039 22.5038 23.5845 22.6188 23.8477 22.6021C24.0472 22.5853 24.2478 22.5853 24.4474 22.6021C24.7445 22.6328 24.8212 22.5139 24.8205 22.2232C24.8103 18.1251 24.807 14.0269 24.8105 9.92875C24.8105 9.34543 24.468 8.88439 23.9163 8.75009C23.6991 8.70393 23.4772 8.68375 23.2553 8.68995C20.2547 8.68728 17.2554 8.68728 14.2574 8.68995ZM25.1723 21.9199L25.2789 21.9406C25.9779 20.9129 26.435 19.7697 26.7748 18.577C27.5264 15.937 27.4251 13.3084 26.499 10.7393C24.578 5.41187 19.4866 1.80371 13.5604 2.1378C7.82542 2.46521 3.13788 6.42082 1.74861 11.8985C0.848415 15.4492 1.39146 18.8102 3.35376 21.9165C3.4014 21.7885 3.42161 21.6519 3.41307 21.5156C3.41307 17.719 3.41462 13.9222 3.41773 10.1252C3.41773 8.99999 4.04141 8.36589 5.16748 8.36321C8.92018 8.35386 12.6738 8.35074 16.4282 8.35386C18.7603 8.35386 21.0925 8.35386 23.4246 8.36923C23.7264 8.36923 24.0569 8.416 24.3221 8.54696C24.9218 8.84363 25.1843 9.37483 25.183 10.0477C25.1776 13.8109 25.1754 17.5749 25.1763 21.3399L25.1723 21.9199ZM11.9592 22.9696H7.82808C6.5954 22.9696 5.36271 22.9696 4.13136 22.9756C4.01942 22.9756 3.83684 23.0317 3.80753 23.1092C3.51568 23.8602 4.05406 24.763 4.84965 24.8799C5.01465 24.9016 5.18098 24.9117 5.34739 24.91C8.4662 24.9149 11.5852 24.9184 14.7045 24.9206H19.502C20.071 24.9206 20.071 24.9206 20.0717 24.3347C20.0717 24.034 20.0717 23.7333 20.0717 23.4326C20.0717 22.9716 20.0717 22.9709 19.6192 22.9702L11.9592 22.9696ZM23.1474 22.4598V19.5532C23.1474 18.7266 23.1474 18.7373 22.3125 18.744C22.05 18.744 21.9647 18.8309 21.9687 19.0901C21.98 19.8358 21.9733 20.5822 21.9687 21.3285C21.9687 21.4688 22.0353 21.6913 21.7908 21.6693C21.7241 21.6626 21.6248 21.4368 21.6208 21.3091C21.6029 20.7078 21.6142 20.1064 21.6109 19.5051C21.6069 18.746 21.6049 18.7634 20.8619 18.74C20.5248 18.7293 20.4288 18.8295 20.4315 19.169C20.4475 21.3847 20.4492 23.6006 20.4368 25.8167C20.4368 26.1214 20.5441 26.2009 20.8226 26.1955C21.4669 26.1828 22.1113 26.1815 22.7549 26.1955C23.0501 26.2022 23.162 26.116 23.1547 25.7986C23.1361 24.6868 23.1474 23.5729 23.1474 22.4598ZM6.35619 25.3175C6.4302 25.396 6.51018 25.4686 6.5954 25.5347C7.44628 26.0332 8.27452 26.5797 9.16005 27.0047C9.81704 27.3214 10.4927 27.7397 11.3043 27.4524C11.4875 27.3856 11.6108 27.3334 11.6847 27.1437C11.8846 26.6258 12.1092 26.116 12.3197 25.6022C12.3523 25.508 12.3797 25.4121 12.4017 25.3149L6.35619 25.3175ZM16.5628 27.3889C16.5688 27.3321 16.5848 27.2947 16.5735 27.268C16.327 26.6612 16.0851 26.0519 15.8192 25.4532C15.7846 25.3737 15.63 25.3049 15.5294 25.3035C14.7198 25.2942 13.9102 25.2928 13.1007 25.3149C13.0308 25.325 12.964 25.3505 12.9052 25.3895C12.8463 25.4286 12.7968 25.4802 12.7602 25.5407C12.6002 25.8441 12.485 26.1715 12.3544 26.4902C12.2384 26.7722 12.1265 27.0561 11.9932 27.3889H16.5628ZM16.1464 25.2928C16.4476 26.0158 16.7134 26.6586 16.9866 27.2974C17.0023 27.3256 17.0237 27.3503 17.0494 27.3698C17.0751 27.3894 17.1045 27.4034 17.1359 27.4109C17.5643 27.4891 17.9848 27.6415 18.4279 27.4203C18.7963 27.2414 19.1779 27.091 19.5693 26.9706C19.9844 26.837 20.1556 26.5938 20.0836 26.1581C20.0613 25.9704 20.0613 25.7806 20.0836 25.5928C20.1016 25.3583 20.0057 25.2855 19.7771 25.2881C18.9469 25.2975 18.1167 25.2915 17.2858 25.2915L16.1464 25.2928ZM18.096 28.5976C18.0194 28.0905 17.6296 27.7804 17.0886 27.7771C15.8785 27.7711 14.6692 27.7771 13.4598 27.7771C12.7715 27.7771 12.0832 27.7684 11.3942 27.7851C10.8938 27.7972 10.5047 28.1747 10.528 28.5996L18.096 28.5976ZM21.7994 26.569H21.233C20.3995 26.569 20.3002 26.7027 20.4874 27.5419C20.4985 27.5965 20.5125 27.6505 20.5294 27.7036C20.6108 27.9599 20.7686 28.1851 20.9815 28.3487C21.1944 28.5124 21.4522 28.6067 21.7201 28.619C22.2938 28.6391 22.8302 28.3364 23.0068 27.7998C23.1141 27.4717 23.1054 27.1022 23.1167 26.7508C23.1167 26.6913 22.9581 26.5791 22.8682 26.5737C22.5104 26.553 22.1546 26.5657 21.7994 26.5657V26.569ZM21.7994 16.1542C21.371 16.9353 20.9998 17.6101 20.6 18.3465H22.9928L21.7994 16.1542ZM23.5165 23.9311C23.5165 24.1195 23.5165 24.3079 23.5165 24.4964C23.5165 24.9253 23.6018 24.9808 24.0083 24.8304C24.6333 24.5979 25.0497 23.6665 24.7799 23.0852C24.7588 23.0562 24.732 23.0319 24.7012 23.0137C24.6703 22.9956 24.6361 22.9839 24.6006 22.9796C23.6011 22.8266 23.5158 22.8974 23.5158 23.8977C23.5145 23.9057 23.5145 23.9204 23.5152 23.9277L23.5165 23.9311Z" stroke="#6651E6" stroke-width="0.4" mask="url(#path-1-outside-1)"/>
<path d="M28.9287 11.4705L29.0236 11.4392C28.9536 11.227 28.8869 11.0116 28.8199 10.7951C28.666 10.2983 28.5104 9.7961 28.31 9.3159L28.31 9.31589C26.6362 5.30677 23.7501 2.52534 19.7346 0.92003L19.7346 0.920019L19.7332 0.919469C19.657 0.890345 19.5748 0.899669 19.5121 0.910499C19.4879 0.914669 19.4628 0.919872 19.4396 0.92466C19.4317 0.926286 19.4241 0.927865 19.4168 0.929339C19.3865 0.935473 19.3599 0.940316 19.3356 0.942798L19.1737 0.959302L19.2615 1.09625C19.327 1.19846 19.3994 1.29609 19.4782 1.38846L19.478 1.38856L19.4818 1.39253C19.5199 1.43253 19.5687 1.45273 19.6044 1.46519C19.6209 1.47095 19.6379 1.47609 19.6525 1.48051C19.6544 1.48106 19.6561 1.48161 19.6579 1.48214C19.6746 1.4872 19.6881 1.49143 19.7001 1.49596C20.7637 1.89948 21.7694 2.44211 22.6913 3.10977L22.6916 3.11004C25.6266 5.21483 27.5809 8.00342 28.4596 11.5284C28.4797 11.6466 28.5181 11.761 28.5734 11.8674L28.5768 11.8739L28.581 11.8798C28.6137 11.9252 28.6565 11.9623 28.7061 11.9882C28.7556 12.014 28.8105 12.028 28.8664 12.0289L28.8761 12.029L28.8857 12.0273C28.9257 12.0202 28.9557 11.9985 28.9754 11.9804C28.9956 11.9619 29.0121 11.9405 29.0249 11.9224C29.0377 11.9043 29.0497 11.885 29.0586 11.8711C29.0688 11.855 29.0744 11.847 29.0777 11.8431L29.11 11.8049L29.0988 11.7562C29.0895 11.716 29.0816 11.6784 29.0741 11.6429C29.058 11.5665 29.044 11.4999 29.0235 11.4388L28.9287 11.4705ZM28.9287 11.4705C28.9473 11.5261 28.9594 11.5837 28.9747 11.6562C28.9824 11.6927 28.9908 11.7329 29.0013 11.7786L28.6621 11.8213C28.6111 11.723 28.5758 11.6173 28.5575 11.5079C27.6733 7.95725 25.7044 5.14757 22.7499 3.02877C21.8209 2.35593 20.8073 1.80909 19.7355 1.40243C19.7183 1.39595 19.6999 1.39038 19.6815 1.38479C19.6334 1.37023 19.5846 1.35546 19.5543 1.32359C19.5025 1.26287 19.4536 1.1998 19.4077 1.13457C19.3907 1.13746 19.3733 1.13999 19.3558 1.14177L19.3457 1.04228L19.4299 0.988315C19.4376 1.00027 19.4453 1.01215 19.4532 1.02397C19.4559 1.02342 19.4586 1.02286 19.4613 1.0223C19.5459 1.00482 19.6306 0.987305 19.6975 1.01288C23.6888 2.60849 26.5546 5.37074 28.2177 9.35441C28.4162 9.83009 28.5695 10.3248 28.7227 10.8195C28.7901 11.037 28.8574 11.2546 28.9287 11.4705Z" fill="#6651E6" stroke="#6651E6" stroke-width="0.2"/>
<path d="M0.989031 7.85302L1.01428 7.8031C1.02834 7.77531 1.04201 7.74743 1.05555 7.71979C1.08439 7.66096 1.1127 7.6032 1.14319 7.54958L1.14341 7.54919C2.09813 5.88783 3.35531 4.42089 4.84969 3.22457L4.84985 3.22443C4.85317 3.22179 4.85717 3.21821 4.86362 3.21225C4.86432 3.2116 4.86507 3.21091 4.86585 3.21018C4.87132 3.20512 4.87868 3.19829 4.88617 3.19192C4.90171 3.17873 4.93212 3.15451 4.97404 3.14682M0.989031 7.85302L4.99214 3.24517M0.989031 7.85302L1.01836 7.90066C1.02413 7.91004 1.03004 7.9214 1.03743 7.93625C1.03866 7.93872 1.03996 7.94134 1.04131 7.94407C1.04736 7.95631 1.05452 7.9708 1.06191 7.98432C1.07838 8.01445 1.10824 8.06437 1.16198 8.09132L1.16187 8.09152L1.16814 8.09415C1.21138 8.11227 1.25821 8.12017 1.30499 8.11724C1.35178 8.11431 1.39725 8.10062 1.43789 8.07725L1.44983 8.07038L1.45947 8.06055C1.526 7.99263 1.58291 7.9159 1.62862 7.83249C1.77357 7.62175 1.91072 7.40868 2.04681 7.19726C2.34217 6.73841 2.63255 6.28728 2.98692 5.88444C3.45548 5.35288 3.9656 4.86283 4.47916 4.36947C4.7475 4.11168 5.01678 3.85299 5.28157 3.587M0.989031 7.85302L2.9119 5.81832C3.38301 5.28387 3.89859 4.78852 4.41415 4.29318C4.68174 4.03609 4.94933 3.779 5.21069 3.51645M4.97404 3.14682C4.97409 3.14681 4.97415 3.1468 4.97421 3.14679L4.99214 3.24517M4.97404 3.14682C4.97398 3.14683 4.97392 3.14684 4.97387 3.14685L4.99214 3.24517M4.97404 3.14682C5.06588 3.12975 5.15892 3.11724 5.24912 3.10511C5.27823 3.1012 5.30704 3.09732 5.33542 3.09335L5.50786 3.0692L5.44182 3.23031C5.42907 3.26142 5.42032 3.29053 5.41028 3.32395C5.40362 3.34614 5.39638 3.37023 5.38702 3.39806C5.36673 3.4584 5.33737 3.53101 5.28157 3.587M4.99214 3.24517C5.07361 3.23002 5.1554 3.21866 5.23728 3.20762C5.2435 3.18906 5.25001 3.17093 5.25676 3.15446L5.34929 3.19238L5.36316 3.29142C5.34649 3.29375 5.32995 3.29602 5.31352 3.29825C5.31314 3.29949 5.31277 3.30074 5.31239 3.30198C5.28795 3.38265 5.26344 3.46355 5.21069 3.51645M5.28157 3.587L5.21069 3.51645M5.28157 3.587C5.28154 3.58702 5.28152 3.58704 5.2815 3.58706L5.21069 3.51645" fill="#6651E6" stroke="#6651E6" stroke-width="0.2"/>
<path d="M1.67412 23.3309L1.59019 23.3852C2.42402 24.6729 3.44781 25.8263 4.62662 26.8061L4.62732 26.8067L4.62902 26.8081C4.66199 26.835 4.70372 26.869 4.74661 26.8973C4.78804 26.9246 4.84324 26.9554 4.90226 26.9622C4.97022 26.97 5.03147 26.9407 5.07018 26.92C5.08677 26.9111 5.10381 26.9011 5.11875 26.8923C5.12261 26.8901 5.12634 26.8879 5.12989 26.8858C5.14846 26.875 5.1637 26.8665 5.17749 26.8601L5.20842 26.8459L5.22422 26.8157L5.30684 26.658L5.35329 26.5694L5.26461 26.523C5.22801 26.5039 5.18628 26.4851 5.14813 26.4679C5.12811 26.4589 5.10907 26.4503 5.09229 26.4424C5.03849 26.4169 4.99418 26.3922 4.95882 26.3619L4.95864 26.3618C3.83578 25.4046 2.84354 24.3342 2.05042 23.0835L2.05042 23.0835L2.05026 23.0833C2.00255 23.0085 1.92098 22.9686 1.85832 22.9423C1.83402 22.9321 1.80806 22.9223 1.78415 22.9132C1.77586 22.9101 1.76782 22.907 1.76017 22.9041C1.72879 22.892 1.70173 22.881 1.67847 22.869L1.51691 22.7861L1.53322 22.967C1.53557 22.9931 1.53585 23.0221 1.53552 23.0552C1.53545 23.063 1.53533 23.0712 1.53521 23.0796C1.53486 23.105 1.53447 23.1325 1.535 23.1587C1.53636 23.2263 1.54339 23.3135 1.59039 23.3855L1.67412 23.3309ZM1.67412 23.3309C1.63259 23.2672 1.63389 23.1748 1.63519 23.0824C1.63525 23.0781 1.63531 23.0738 1.63536 23.0694L5.17193 26.7002C5.1719 26.7002 5.17188 26.7002 5.17185 26.7002L5.13564 26.7693C5.11312 26.7797 5.09016 26.7932 5.06716 26.8067C5.01465 26.8375 4.96195 26.8684 4.91376 26.8628C4.84449 26.8548 4.75857 26.7847 4.69061 26.7293L4.69054 26.7292C3.51951 25.7559 2.50247 24.6101 1.67412 23.3309Z" fill="#6651E6" stroke="#6651E6" stroke-width="0.2"/>
<path d="M7.8199 28.4905L7.70437 28.5264C7.6712 28.5367 7.6414 28.5498 7.60799 28.5646C7.58863 28.5732 7.56807 28.5822 7.54492 28.5916C7.51748 28.6027 7.4854 28.6144 7.45334 28.62C7.42222 28.6255 7.37697 28.6279 7.33352 28.6041L7.33346 28.6041C6.89327 28.3629 6.46298 28.1025 6.04038 27.8374L6.03292 27.8327L6.02639 27.8268C5.98689 27.791 5.95718 27.7457 5.94006 27.6953C5.92294 27.6448 5.91896 27.5908 5.92851 27.5383L5.93023 27.5289L5.93373 27.5199C5.94831 27.4825 5.97726 27.4566 5.99661 27.4418C6.01882 27.4248 6.04443 27.4103 6.06937 27.3992C6.09416 27.3881 6.12214 27.3787 6.1498 27.3739C6.17191 27.3702 6.21583 27.3653 6.25656 27.3875M7.8199 28.4905L6.20879 27.4754M7.8199 28.4905L7.76289 28.3838C7.74289 28.3463 7.72986 28.3181 7.71805 28.2925C7.71279 28.2811 7.70778 28.2702 7.7025 28.2593C7.68911 28.2316 7.66633 28.1846 7.61822 28.1575M7.8199 28.4905L7.56875 28.2445M6.25656 27.3875C6.25677 27.3877 6.25699 27.3878 6.2572 27.3879L6.20879 27.4754M6.25656 27.3875C6.25646 27.3875 6.25636 27.3874 6.25626 27.3874L6.20879 27.4754M6.25656 27.3875C6.71613 27.6354 7.16805 27.8958 7.61822 28.1575M6.20879 27.4754C6.66722 27.7226 7.11832 27.9825 7.56875 28.2445M7.61822 28.1575C7.61777 28.1573 7.61731 28.157 7.61685 28.1568L7.56875 28.2445M7.61822 28.1575C7.61849 28.1577 7.61875 28.1579 7.61901 28.158L7.56875 28.2445M7.67469 28.4309C7.64342 28.4406 7.61166 28.4538 7.58081 28.4673C7.58266 28.4708 7.58455 28.4744 7.58649 28.478L7.67469 28.4309ZM7.67469 28.4309L7.64501 28.3354C7.64006 28.3369 7.63503 28.3386 7.62996 28.3403C7.64145 28.3651 7.65556 28.3951 7.67469 28.4309Z" fill="#6651E6" stroke="#6651E6" stroke-width="0.2"/>
<path d="M23.1526 13.6945C22.5433 13.6823 21.9336 13.6837 21.3253 13.685C21.1343 13.6854 20.9434 13.6859 20.7527 13.6859C20.5709 13.6859 20.389 13.6856 20.207 13.6853C19.5795 13.6842 18.9514 13.6832 18.3255 13.6946L18.3254 13.6946C18.2408 13.6962 18.1686 13.7394 18.1162 13.7755C18.0959 13.7894 18.0752 13.8049 18.0563 13.8189C18.05 13.8236 18.0439 13.8281 18.0381 13.8324C18.0134 13.8506 17.9917 13.8659 17.9711 13.8779L17.8195 13.9663L17.9729 14.0516C17.9937 14.0632 18.0158 14.0782 18.0411 14.096C18.0474 14.1005 18.054 14.1052 18.0608 14.1101C18.0799 14.1237 18.1007 14.1386 18.1208 14.152C18.1736 14.187 18.2471 14.23 18.3313 14.23V14.13C19.9394 14.1398 21.5474 14.1398 23.1555 14.13L23.1526 13.6945Z" fill="#6651E6" stroke="#6651E6" stroke-width="0.2"/>
<path d="M23.1518 10.6498C23.226 10.6494 23.2999 10.5916 23.3738 10.5337C23.3781 10.5303 23.3824 10.527 23.3867 10.5236C23.4016 10.5323 23.4171 10.5407 23.4328 10.5485L23.477 10.4587L23.4246 10.3736C23.4096 10.3828 23.395 10.3927 23.3808 10.4028C23.3792 10.4018 23.3777 10.4008 23.3761 10.3999C23.304 10.3545 23.2319 10.3091 23.1591 10.3091C22.5744 10.2989 21.9896 10.3 21.4048 10.301C21.2233 10.3014 21.0418 10.3017 20.8603 10.3017C20.6712 10.3017 20.4821 10.3014 20.293 10.301C19.7047 10.2999 19.1167 10.2988 18.5282 10.3084C18.4536 10.3098 18.3796 10.3537 18.3058 10.3976C18.3046 10.3983 18.3035 10.399 18.3023 10.3997C18.2884 10.3892 18.2741 10.3789 18.2594 10.3694L18.2051 10.4534L18.2479 10.5438C18.2633 10.5365 18.2785 10.5285 18.2932 10.5205C18.2974 10.5239 18.3016 10.5274 18.3058 10.5309C18.3773 10.5904 18.4488 10.6498 18.5209 10.6498M23.1518 10.6498C21.6077 10.6623 20.0641 10.6623 18.5209 10.6498M23.1518 10.6498L23.1524 10.7498C23.1525 10.7498 23.1525 10.7498 23.1525 10.7498C23.1526 10.7498 23.1526 10.7498 23.1526 10.7498L23.1518 10.6498ZM18.5209 10.6498V10.7498C18.4308 10.7498 18.3541 10.6969 18.3016 10.6563C18.2811 10.6405 18.2599 10.6229 18.2405 10.6067C18.2336 10.6009 18.2268 10.5953 18.2204 10.5901C18.1946 10.5688 18.172 10.5511 18.1507 10.5373L18.0001 10.4398L18.1623 10.363C18.1848 10.3524 18.2084 10.339 18.2348 10.3234C18.2408 10.3199 18.2471 10.3161 18.2536 10.3123C18.274 10.3001 18.2962 10.287 18.3179 10.275C18.3741 10.2441 18.4462 10.2099 18.5264 10.2084L18.5266 10.2084C19.116 10.1988 19.7054 10.1999 20.2938 10.201C20.4828 10.2014 20.6716 10.2017 20.8603 10.2017C21.0414 10.2017 21.2227 10.2014 21.404 10.201C21.9887 10.2 22.5745 10.1989 23.1601 10.2091M18.5209 10.6498L23.1601 10.2091M23.1601 10.2091C23.1604 10.2091 23.1606 10.2091 23.1609 10.2091L23.1591 10.3091V10.2091C23.1595 10.2091 23.1598 10.2091 23.1601 10.2091Z" fill="#6651E6" stroke="#6651E6" stroke-width="0.2"/>
<path d="M17.685 15.4185H17.8402C18.0133 15.4185 18.1867 15.418 18.3602 15.4176C18.8962 15.4161 19.4342 15.4146 19.9738 15.4272C19.9741 15.4272 19.9744 15.4272 19.9748 15.4272L19.9724 15.5272C20.047 15.5272 20.1207 15.5833 20.1943 15.6392C20.1979 15.642 20.2016 15.6448 20.2053 15.6476L17.685 15.4185ZM17.685 15.4185L17.6883 15.4258M17.685 15.4185L17.6883 15.4258M17.6883 15.4258C17.5603 15.4256 17.4322 15.4252 17.3041 15.4249C16.7631 15.4234 16.2207 15.4219 15.6791 15.4339L15.6789 15.4339C15.5925 15.436 15.5169 15.4806 15.4611 15.5182C15.4398 15.5325 15.4179 15.5483 15.3978 15.5629C15.3906 15.5681 15.3837 15.5731 15.3771 15.5778C15.3503 15.597 15.3266 15.6132 15.3041 15.626L15.1486 15.7144L15.3053 15.8006C15.3263 15.8121 15.3486 15.8269 15.3738 15.8444C15.3799 15.8487 15.3863 15.8531 15.3929 15.8578C15.4122 15.8713 15.4332 15.886 15.4536 15.8993C15.5064 15.9336 15.5794 15.9753 15.6627 15.9753V15.8753M17.6883 15.4258L20.2001 15.7679C20.1958 15.7706 20.1915 15.7733 20.1871 15.7761C20.1094 15.8253 20.0317 15.8744 19.9538 15.8753C18.5234 15.8856 17.093 15.8856 15.6627 15.8753M15.6627 15.8753C15.5922 15.8753 15.5219 15.8261 15.4516 15.7768C15.4499 15.7756 15.4481 15.7743 15.4464 15.7731M15.6627 15.8753L15.4464 15.7731M15.4464 15.7731C15.4323 15.7824 15.4178 15.7915 15.4029 15.7999L15.3535 15.713L15.4017 15.6253C15.4167 15.6336 15.4314 15.6426 15.4456 15.6517M15.4464 15.7731L15.4456 15.6517M15.4456 15.6517C15.4497 15.6488 15.4537 15.6459 15.4577 15.643C15.5318 15.5893 15.606 15.5357 15.6813 15.5339L15.4456 15.6517Z" fill="#6651E6" stroke="#6651E6" stroke-width="0.2"/>
<path d="M20.9602 12.0124L20.9602 12.0124C20.9884 12.0309 21.0022 12.057 21.0087 12.072C21.0161 12.0888 21.0204 12.1063 21.0232 12.1214C21.0287 12.1519 21.0301 12.186 21.0287 12.2177C21.0273 12.2494 21.0229 12.2836 21.0144 12.3143C21.0102 12.3296 21.0042 12.3467 20.9955 12.363C20.9874 12.378 20.9727 12.4004 20.9473 12.4167M20.9602 12.0124L20.8933 12.3325M20.9602 12.0124L20.9593 12.0118C20.9038 11.9762 20.8394 11.9618 20.7832 11.9552C20.7273 11.9485 20.6694 11.9485 20.6219 11.9485L20.6195 11.9485H20.6147H20.61H20.6052H20.6005H20.5957H20.591H20.5862H20.5815H20.5767H20.572H20.5672H20.5625H20.5577H20.553H20.5483H20.5435H20.5388H20.534H20.5293H20.5245H20.5198H20.515H20.5103H20.5055H20.5008H20.496H20.4913H20.4865H20.4818H20.477H20.4723H20.4675H20.4628H20.4581H20.4533H20.4486H20.4438H20.4391H20.4343H20.4296H20.4248H20.4201H20.4153H20.4106H20.4058H20.4011H20.3963H20.3916H20.3869H20.3821H20.3774H20.3726H20.3679H20.3631H20.3584H20.3536H20.3489H20.3441H20.3394H20.3346H20.3299H20.3251H20.3204H20.3156H20.3109H20.3062H20.3014H20.2967H20.2919H20.2872H20.2824H20.2777H20.2729H20.2682H20.2634H20.2587H20.2539H20.2492H20.2445H20.2397H20.235H20.2302H20.2255H20.2207H20.216H20.2112H20.2065H20.2017H20.197H20.1922H20.1875H20.1827H20.178H20.1733H20.1685H20.1638H20.159H20.1543H20.1495H20.1448H20.14H20.1353H20.1305H20.1258H20.121H20.1163H20.1116H20.1068H20.1021H20.0973H20.0926H20.0878H20.0831H20.0783H20.0736H20.0688H20.0641H20.0593H20.0546H20.0499H20.0451H20.0404H20.0356H20.0309H20.0261H20.0214H20.0166H20.0119H20.0071H20.0024H19.9976H19.9929H19.9882H19.9834H19.9787H19.9739H19.9692H19.9644H19.9597H19.9549H19.9502H19.9454H19.9407H19.9359H19.9312H19.9265H19.9217H19.917H19.9122H19.9075H19.9027H19.898H19.8932H19.8885H19.8837H19.879H19.8743H19.8695H19.8648H19.86H19.8553H19.8505H19.8458H19.841H19.8363H19.8315H19.8268H19.822H19.8173H19.8126H19.8078H19.8031H19.7983H19.7936H19.7888H19.7841H19.7793H19.7746H19.7698H19.7651H19.7604H19.7556H19.7509H19.7461H19.7414H19.7366H19.7319H19.7271H19.7224H19.7176H19.7129H19.7082H19.7034H19.6987H19.6939H19.6892H19.6844H19.6797H19.6749H19.6702H19.6654H19.6607H19.6559H19.6512H19.6465H19.6417H19.637H19.6322H19.6275H19.6227H19.618H19.6132H19.6085H19.6037H19.599H19.5943H19.5895H19.5848H19.58H19.5753H19.5705H19.5658H19.561H19.5563H19.5515H19.5468H19.5421H19.5373H19.5326H19.5278H19.5231H19.5183H19.5136H19.5088H19.5041H19.4993H19.4946H19.4899H19.4851H19.4804H19.4756H19.4709H19.4661H19.4614H19.4566H19.4519H19.4471H19.4424H19.4377H19.4329H19.4282H19.4234H19.4187H19.4139H19.4092H19.4044H19.3997H19.3949H19.3902H19.3855H19.3807H19.376H19.3712H19.3665H19.3617H19.357H19.3522H19.3475H19.3427H19.338H19.3333H19.3285H19.3238H19.319H19.3143H19.3095H19.3048H19.3H19.2953H19.2905H19.2858H19.281H19.2763H19.2716H19.2668H19.2621H19.2573H19.2526H19.2478H19.2431H19.2383H19.2336H19.2288H19.2241H19.2194H19.2146H19.2099H19.2051H19.2004H19.1956H19.1909H19.1861H19.1814H19.1766H19.1719H19.1672H19.1624H19.1577H19.1529H19.1482H19.1434H19.1387H19.1339H19.1292H19.1244H19.1197H19.115H19.1102H19.1055H19.1007H19.096H19.0912H19.0865H19.0817H19.077H19.0722H19.0675H19.0628H19.058H19.0533H19.0485H19.0438H19.039H19.0343H19.0295H19.0248H19.02H19.0153H19.0105H19.0058H19.0011H18.9963H18.9916H18.9868H18.9821H18.9773H18.9726H18.9678H18.9631H18.9583H18.9536H18.9489H18.9441H18.9394H18.9346H18.9299H18.9251H18.9204H18.9156H18.9109H18.9061H18.9014H18.8966H18.8919H18.8872H18.8824H18.8777H18.8729H18.8682H18.8634H18.8587H18.8539H18.8492H18.8444H18.8397H18.835H18.8302H18.8255H18.8207H18.816H18.8112H18.8065H18.8017H18.797H18.7922H18.7875H18.7827H18.778H18.7733H18.7685H18.7638H18.759H18.7543H18.7495H18.7448H18.74H18.7353H18.7305H18.7258H18.721H18.7163H18.7116H18.7068H18.7021H18.6973H18.6926H18.6878H18.6831H18.6783H18.6736H18.6688H18.6641H18.6593H18.6546H18.6499H18.6451H18.6404H18.6356H18.6309H18.6261H18.6214H18.6166H18.6119H18.6071H18.6024H18.5976H18.5929H18.5881H18.5834H18.5787H18.5739H18.5692H18.5644H18.5597H18.5549H18.5502H18.5454H18.5407H18.5359H18.5312H18.5264H18.5217H18.517H18.5122H18.5075H18.5027H18.498H18.4932H18.4885H18.4837H18.479H18.4742H18.4695H18.4647H18.46H18.4552H18.4505H18.4458H18.441H18.4363H18.4315H18.4268H18.422H18.4173H18.4125H18.4078H18.403H18.3983H18.3935H18.3888H18.384H18.3793H18.3745H18.3698H18.3651H18.3603H18.3556H18.3508H18.3461H18.3413H18.3366H18.3318H18.3271H18.3223H18.3176H18.3128H18.3081H18.3033H18.2986H18.2938H18.2891H18.2844H18.2796H18.2749H18.2701H18.2654H18.2606H18.2559H18.2511H18.2464H18.2416H18.2369H18.2321H18.2274H18.2226H18.2179H18.2131H18.2084H18.2036H18.1989H18.1942H18.1894C17.9764 11.9485 17.7633 11.9482 17.55 11.9479C16.9092 11.9471 16.2671 11.9462 15.6237 11.9532L15.6237 11.9532L15.6226 11.9532C15.5423 11.955 15.4744 12.0002 15.4284 12.0341C15.4106 12.0473 15.3921 12.062 15.3754 12.0753C15.3693 12.0801 15.3635 12.0847 15.358 12.089C15.3358 12.1065 15.3166 12.1209 15.2987 12.132L15.1596 12.2186L15.3002 12.3027C15.3196 12.3143 15.3396 12.3267 15.3603 12.3394C15.4253 12.3794 15.4962 12.4231 15.5694 12.4577L15.5784 12.4619L15.5881 12.4643C15.642 12.4777 15.698 12.4805 15.7529 12.4726M20.9602 12.0124L15.7454 12.3726M20.9473 12.4167C20.9472 12.4168 20.9471 12.4168 20.947 12.4169L20.8933 12.3325M20.9473 12.4167C20.9474 12.4167 20.9474 12.4166 20.9475 12.4166L20.8933 12.3325M20.9473 12.4167C20.8892 12.454 20.8219 12.4658 20.7656 12.4703C20.7226 12.4737 20.6762 12.4732 20.637 12.4728C20.6253 12.4727 20.6143 12.4726 20.6041 12.4726H20.5946H20.5852H20.5757H20.5662H20.5567H20.5472H20.5377H20.5282H20.5187H20.5092H20.4997H20.4903H20.4808H20.4713H20.4618H20.4523H20.4428H20.4333H20.4238H20.4143H20.4049H20.3954H20.3859H20.3764H20.3669H20.3574H20.3479H20.3384H20.3289H20.3194H20.31H20.3005H20.291H20.2815H20.272H20.2625H20.253H20.2435H20.234H20.2245H20.2151H20.2056H20.1961H20.1866H20.1771H20.1676H20.1581H20.1486H20.1391H20.1296H20.1202H20.1107H20.1012H20.0917H20.0822H20.0727H20.0632H20.0537H20.0442H20.0347H20.0253H20.0158H20.0063H19.9968H19.9873H19.9778H19.9683H19.9588H19.9493H19.9399H19.9304H19.9209H19.9114H19.9019H19.8924H19.8829H19.8734H19.8639H19.8544H19.845H19.8355H19.826H19.8165H19.807H19.7975H19.788H19.7785H19.769H19.7595H19.7501H19.7406H19.7311H19.7216H19.7121H19.7026H19.6931H19.6836H19.6741H19.6646H19.6552H19.6457H19.6362H19.6267H19.6172H19.6077H19.5982H19.5887H19.5792H19.5697H19.5603H19.5508H19.5413H19.5318H19.5223H19.5128H19.5033H19.4938H19.4843H19.4749H19.4654H19.4559H19.4464H19.4369H19.4274H19.4179H19.4084H19.3989H19.3894H19.38H19.3705H19.361H19.3515H19.342H19.3325H19.323H19.3135H19.304H19.2945H19.2851H19.2756H19.2661H19.2566H19.2471H19.2376H19.2281H19.2186H19.2091H19.1996H19.1902H19.1807H19.1712H19.1617H19.1522H19.1427H19.1332H19.1237H19.1142H19.1047H19.0953H19.0858H19.0763H19.0668H19.0573H19.0478H19.0383H19.0288H19.0193H19.0099H19.0004H18.9909H18.9814H18.9719H18.9624H18.9529H18.9434H18.9339H18.9244H18.915H18.9055H18.896H18.8865H18.877H18.8675H18.858H18.8485H18.839H18.8295H18.8201H18.8106H18.8011H18.7916H18.7821H18.7726H18.7631H18.7536H18.7441H18.7346H18.7252H18.7157H18.7062H18.6967H18.6872H18.6777H18.6682H18.6587H18.6492H18.6397H18.6303H18.6208H18.6113H18.6018H18.5923H18.5828H18.5733H18.5638H18.5543H18.5448H18.5354H18.5259H18.5164H18.5069H18.4974H18.4879H18.4784H18.4689H18.4594H18.45H18.4405H18.431H18.4215H18.412H18.4025H18.393H18.3835H18.374H18.3645H18.3551H18.3456H18.3361H18.3266H18.3171H18.3076H18.2981H18.2886H18.2791H18.2696H18.2602H18.2507H18.2412H18.2317H18.2222H18.2127H18.2032H18.1937H18.1842H18.1747H18.1653H18.1558H18.1463H18.1368H18.1273H18.1178H18.1083H18.0988H18.0893H18.0798H18.0704H18.0609H18.0514H18.0419H18.0324H18.0229H18.0134H18.0039H17.9944H17.985H17.9755H17.966H17.9565H17.947H17.9375H17.928H17.9185H17.909H17.8995H17.8901H17.8806H17.8711H17.8616H17.8521H17.8426H17.8331H17.8236H17.8141H17.8046H17.7952H17.7857H17.7762H17.7667H17.7572H17.7477H17.7382H17.7287H17.7192H17.7097H17.7003H17.6908H17.6813H17.6718H17.6623H17.6528H17.6433H17.6338H17.6243H17.6148H17.6054H17.5959H17.5864H17.5769H17.5674H17.5579H17.5484H17.5389H17.5294H17.52H17.5105H17.501H17.4915H17.482H17.4725H17.463H17.4535H17.444H17.4345H17.4251H17.4156H17.4061H17.3966H17.3871H17.3776H17.3681H17.3586H17.3491H17.3396H17.3302H17.3207H17.3112H17.3017H17.2922H17.2827H17.2732H17.2637H17.2542H17.2447H17.2353H17.2258H17.2163H17.2068H17.1973H17.1878H17.1783H17.1688H17.1593H17.1498H17.1404H17.1309H17.1214H17.1119H17.1024H17.0929H17.0834H17.0739H17.0644H17.055H17.0455H17.036H17.0265H17.017H17.0075H16.998H16.9885H16.979H16.9695H16.9601H16.9506H16.9411H16.9316H16.9221H16.9126H16.9031H16.8936H16.8841H16.8746H16.8652H16.8557H16.8462H16.8367H16.8272H16.8177H16.8082H16.7987H16.7892H16.7797H16.7703H16.7608H16.7513H16.7418H16.7323H16.7228H16.7133H16.7038H16.6943H16.6848H16.6754H16.6659H16.6564H16.6469H16.6374H16.6279H16.6184H16.6089H16.5994H16.59H16.5805H16.571H16.5615H16.552H16.5425H16.533H16.5235H16.514H16.5045H16.4951H16.4856H16.4761H16.4666H16.4571H16.4476H16.4381H16.4286H16.4191H16.4096H16.4002H16.3907H16.3812H16.3717H16.3622H16.3527H16.3432H16.3337H16.3242H16.3147H16.3053H16.2958H16.2863H16.2768H16.2673H16.2578H16.2483H16.2388H16.2293H16.2198H16.2104H16.2009H16.1914H16.1819H16.1724H16.1629H16.1534H16.1439H16.1344H16.125H16.1155H16.106H16.0965H16.087H16.0775H16.068H16.0585H16.049H16.0395H16.0301H16.0206H16.0111H16.0016H15.9921H15.9826H15.9731H15.9636H15.9541H15.9446H15.9352H15.9257H15.9162H15.9067H15.8972H15.8877H15.8782H15.8687H15.8592H15.8497H15.8403H15.8308H15.8213H15.8118H15.8023H15.7928H15.7833H15.7738H15.7643H15.7548H15.7529M20.8933 12.3325C20.8279 12.3747 20.7307 12.3737 20.6413 12.3728C20.6287 12.3727 20.6163 12.3726 20.6041 12.3726H15.7454M15.7529 12.4726C15.7558 12.4722 15.7586 12.4718 15.7615 12.4713L15.7454 12.3726M15.7529 12.4726H15.7454V12.3726M15.3516 12.2169L15.4029 12.1311C15.4151 12.1384 15.427 12.1456 15.4387 12.1528C15.4097 12.1758 15.3807 12.1988 15.3516 12.2169ZM15.3516 12.2169L15.4044 12.3018C15.4184 12.2931 15.432 12.2837 15.4451 12.2741C15.4356 12.2683 15.426 12.2624 15.4165 12.2565C15.3949 12.2432 15.3733 12.2299 15.3516 12.2169Z" fill="#6651E6" stroke="#6651E6" stroke-width="0.2"/>
<path d="M15.6354 17.7128V17.7128C15.5577 17.7102 15.4898 17.6724 15.4398 17.6406C15.42 17.6281 15.3999 17.6142 15.3815 17.6016C15.3759 17.5978 15.3704 17.5941 15.3652 17.5905C15.3417 17.5745 15.321 17.5609 15.3014 17.5502L15.1603 17.4725L15.2925 17.3805C15.3121 17.3668 15.3329 17.3497 15.3568 17.3294C15.3613 17.3256 15.3659 17.3216 15.3707 17.3175C15.3899 17.301 15.411 17.283 15.4318 17.2666C15.4803 17.2284 15.5521 17.178 15.6374 17.1768L15.6354 17.7128ZM15.6354 17.7128L15.6357 17.7128M15.6354 17.7128L15.6357 17.7128M15.6357 17.7128C16.0068 17.7244 16.3816 17.7228 16.7539 17.7213C16.881 17.7208 17.0077 17.7202 17.134 17.7202C17.2728 17.7202 17.4121 17.721 17.5516 17.7217C17.922 17.7235 18.2943 17.7254 18.6656 17.7142L18.6658 17.7142C18.748 17.7115 18.819 17.6695 18.8708 17.6345C18.8908 17.621 18.9112 17.6061 18.93 17.5925C18.9364 17.5879 18.9426 17.5833 18.9485 17.5791C18.9732 17.5614 18.9949 17.5464 19.0155 17.5346L19.1664 17.448L19.0156 17.3612C18.9951 17.3494 18.9734 17.3341 18.9488 17.3158C18.942 17.3107 18.9347 17.3052 18.9271 17.2995C18.9092 17.286 18.8898 17.2713 18.8712 17.2583C18.8203 17.2224 18.7476 17.1768 18.6625 17.1768V17.2768L15.6357 17.7128ZM18.6625 17.6142C18.2932 17.6254 17.9235 17.6235 17.5538 17.6217C17.4139 17.621 17.2739 17.6202 17.134 17.6202C17.0068 17.6202 16.8795 17.6208 16.7521 17.6213C16.3802 17.6228 16.008 17.6243 15.6388 17.6129C15.5715 17.6106 15.5055 17.5654 15.4396 17.5202C15.4289 17.5286 15.4179 17.5368 15.4068 17.5446L18.6625 17.6142ZM18.6625 17.6142C18.7331 17.612 18.8015 17.5623 18.87 17.5125C18.8717 17.5113 18.8733 17.5101 18.875 17.5089L18.6625 17.6142Z" fill="#6651E6" stroke="#6651E6" stroke-width="0.2"/>
<path d="M17.2526 19.4668H17.1526C17.024 19.4668 16.8949 19.4676 16.7654 19.4683C16.4074 19.4704 16.0466 19.4725 15.6875 19.4587L15.6873 19.4587C15.6034 19.4553 15.5285 19.4172 15.4699 19.3826C15.4431 19.3668 15.4203 19.3523 15.3993 19.3389C15.3673 19.3186 15.3392 19.3008 15.3067 19.2845L15.1339 19.1978L15.3045 19.1069C15.3262 19.0953 15.3492 19.0806 15.375 19.0634C15.3811 19.0593 15.3874 19.0551 15.3939 19.0507C15.4138 19.0373 15.4354 19.0227 15.4566 19.0095C15.511 18.9756 15.5842 18.9358 15.6668 18.9347L15.6672 18.9347C16.6861 18.9258 17.705 18.9289 18.7239 18.9441L18.7225 19.0441M17.2526 19.4668L18.7138 19.3521M17.2526 19.4668V19.4595M17.2526 19.4668V19.4595M18.7225 19.0441V18.9441C18.8019 18.9441 18.8671 18.9923 18.9071 19.0245C18.9231 19.0375 18.9398 19.052 18.9548 19.065C18.9601 19.0696 18.9652 19.074 18.97 19.0782C18.9898 19.0951 19.0063 19.1086 19.0216 19.1189L19.1489 19.2047L19.0189 19.2864C19.0026 19.2967 18.9852 19.3098 18.9647 19.3259C18.96 19.3295 18.9552 19.3334 18.9501 19.3374C18.9342 19.35 18.9166 19.364 18.8995 19.3766C18.8568 19.4079 18.7927 19.4502 18.7164 19.4521M18.7225 19.0441C17.7043 19.0289 16.6862 19.0258 15.6681 19.0347L18.7225 19.0441ZM18.7164 19.4521C18.7163 19.4521 18.7162 19.4521 18.7161 19.4521L18.7138 19.3521M18.7164 19.4521C18.7165 19.4521 18.7166 19.4521 18.7166 19.4521L18.7138 19.3521M18.7164 19.4521C18.3249 19.4631 17.9322 19.4618 17.5414 19.4604C17.445 19.46 17.3487 19.4597 17.2526 19.4595M18.7138 19.3521C18.324 19.3631 17.9334 19.3618 17.543 19.3604C17.4462 19.36 17.3494 19.3597 17.2526 19.3595V19.3668V19.4595M18.9657 19.2018L18.9098 19.2847C18.9001 19.2782 18.8906 19.2712 18.8815 19.2642C18.8832 19.2628 18.885 19.2614 18.8868 19.26C18.913 19.2392 18.9393 19.2184 18.9657 19.2018ZM18.9657 19.2018L18.9124 19.1171C18.9028 19.1232 18.8934 19.1296 18.8842 19.1361C18.8854 19.1372 18.8867 19.1382 18.8879 19.1393C18.9138 19.1618 18.9396 19.1842 18.9657 19.2018ZM15.3516 19.1951L15.3964 19.1057C15.4132 19.1141 15.4308 19.124 15.4486 19.1345C15.4162 19.1562 15.3839 19.1779 15.3516 19.1951ZM15.3516 19.1951L15.3986 19.2833C15.4164 19.2739 15.4338 19.2635 15.4505 19.2529C15.4176 19.2321 15.3846 19.2117 15.3516 19.1951ZM17.1526 19.3595V19.3668V19.3595Z" fill="#6651E6" stroke="#6651E6" stroke-width="0.2"/>
<path d="M18.6852 20.782V20.682C18.7661 20.682 18.8355 20.7249 18.8834 20.7581C18.9019 20.771 18.9211 20.7854 18.9385 20.7984C18.9447 20.803 18.9506 20.8074 18.9561 20.8115C18.9791 20.8285 18.9989 20.8425 19.0174 20.8533L19.1639 20.9387L19.0182 21.0256C19 21.0364 18.9807 21.0502 18.9585 21.0669C18.953 21.0711 18.9471 21.0755 18.941 21.0801C18.9242 21.0929 18.9058 21.1068 18.888 21.1194C18.8413 21.1524 18.7746 21.1945 18.6961 21.1973L18.6956 21.1973C18.3143 21.2093 17.932 21.2071 17.5518 21.205C17.4222 21.2043 17.2928 21.2035 17.1638 21.2034L17.1639 21.1034V21.2034C17.0347 21.2034 16.9051 21.2039 16.7753 21.2044C16.3957 21.2059 16.0142 21.2075 15.6337 21.196C15.5543 21.1954 15.4859 21.1553 15.4376 21.1233C15.4189 21.1108 15.3996 21.097 15.3821 21.0844C15.376 21.0801 15.3701 21.0758 15.3645 21.0719C15.3415 21.0555 15.3215 21.0421 15.3028 21.0317L15.1542 20.9487L15.299 20.8593C15.3172 20.848 15.3367 20.8336 15.3592 20.8161C15.3644 20.8121 15.3698 20.8079 15.3755 20.8035C15.3928 20.7899 15.412 20.7749 15.4306 20.7614C15.4775 20.7274 15.546 20.6831 15.6266 20.682L15.6269 20.682L15.6269 20.682C16.6467 20.6699 17.6665 20.6699 18.6863 20.682L18.6852 20.782ZM18.6852 20.782C18.7496 20.782 18.8134 20.8297 18.8773 20.8775C18.8776 20.8777 18.8779 20.8779 18.8781 20.8781C18.8903 20.8697 18.9029 20.8615 18.9158 20.8538L18.967 20.9397L18.9166 21.026C18.9036 21.0185 18.8909 21.0103 18.8786 21.0019C18.817 21.0487 18.7557 21.0951 18.6925 21.0973C18.3132 21.1093 17.9336 21.1071 17.5538 21.105C17.4239 21.1043 17.2939 21.1035 17.1639 21.1034C17.0338 21.1034 16.9036 21.1039 16.7735 21.1044C16.3939 21.1059 16.0145 21.1075 15.6354 21.096L18.6852 20.782Z" fill="#6651E6" stroke="#6651E6" stroke-width="0.2"/>
<path d="M15.5848 10.6474C16.1049 10.6643 16.6253 10.6643 17.146 10.6474C17.1984 10.6456 17.2492 10.591 17.3002 10.5352C17.3059 10.5392 17.3117 10.543 17.3176 10.5468L17.3712 10.4623L17.3048 10.3875C17.2996 10.3922 17.2944 10.3969 17.2894 10.4018C17.2343 10.3583 17.1793 10.3158 17.1213 10.3113C16.9394 10.2964 16.7561 10.2991 16.573 10.3018C16.5012 10.3029 16.4294 10.304 16.3577 10.304C16.2845 10.304 16.2112 10.3028 16.1378 10.3016C15.9562 10.2988 15.7745 10.2959 15.5941 10.3106C15.5377 10.3155 15.4845 10.3594 15.4314 10.4043C15.4259 10.3994 15.4203 10.3947 15.4146 10.3901L15.3516 10.4677L15.4078 10.5504C15.4136 10.5464 15.4193 10.5424 15.4249 10.5382C15.4777 10.5928 15.5306 10.6474 15.5848 10.6474ZM15.5848 10.6474L15.5815 10.7473C15.582 10.7474 15.5824 10.7474 15.5828 10.7474M15.5848 10.6474V10.7474C15.5841 10.7474 15.5835 10.7474 15.5828 10.7474M15.5828 10.7474C16.1047 10.7643 16.6269 10.7643 17.1492 10.7473L17.1494 10.7473C17.1933 10.7458 17.23 10.7285 17.2575 10.7106C17.285 10.6926 17.3095 10.67 17.33 10.6494C17.3462 10.633 17.3627 10.615 17.3775 10.5989C17.3813 10.5947 17.385 10.5906 17.3886 10.5868C17.4071 10.5667 17.4228 10.5502 17.4376 10.5371L17.5369 10.449L17.4247 10.3779C17.4083 10.3675 17.391 10.3545 17.3708 10.3387C17.3662 10.3351 17.3614 10.3312 17.3563 10.3272C17.3408 10.315 17.3235 10.3013 17.3067 10.289C17.264 10.2576 17.2028 10.2175 17.1295 10.2116C16.9424 10.1963 16.7516 10.1992 16.5667 10.2019C16.496 10.2029 16.4262 10.204 16.3577 10.204C16.2879 10.204 16.2167 10.2028 16.1445 10.2017C15.961 10.1988 15.7715 10.1958 15.5859 10.211L15.5859 10.211L15.5854 10.211C15.5114 10.2175 15.4506 10.2604 15.4095 10.2928C15.3931 10.3057 15.3763 10.32 15.3611 10.3327C15.3563 10.3368 15.3517 10.3408 15.3473 10.3445C15.3278 10.3608 15.3111 10.3743 15.2954 10.385L15.1842 10.4605L15.2885 10.5453C15.303 10.557 15.3188 10.5725 15.3378 10.592C15.3421 10.5964 15.3466 10.6011 15.3513 10.6059C15.3659 10.6211 15.3823 10.638 15.3983 10.6533C15.4195 10.6737 15.445 10.696 15.4736 10.7135C15.5018 10.7307 15.539 10.7469 15.5828 10.7474Z" fill="#6651E6" stroke="#6651E6" stroke-width="0.2"/>
<path d="M15.5695 14.1338L15.5618 14.2335C15.4896 14.2279 15.4313 14.1847 15.3939 14.1542C15.3787 14.1418 15.3631 14.1281 15.3492 14.1159C15.3448 14.1121 15.3407 14.1084 15.3367 14.105C15.3189 14.0894 15.304 14.077 15.2902 14.0674L15.189 13.9963L15.2796 13.9122C15.2931 13.8997 15.3079 13.8833 15.3255 13.8628C15.3294 13.8582 15.3336 13.8532 15.338 13.8481C15.3515 13.8322 15.3665 13.8146 15.3812 13.7986C15.4007 13.7773 15.4243 13.7537 15.4511 13.7348C15.4777 13.7161 15.5147 13.6968 15.5599 13.6951L15.5603 13.6951L15.5603 13.6951C16.0697 13.6786 16.5792 13.6786 17.0887 13.6951L17.0854 13.7951M15.5695 14.1338L16.3972 14.2412V14.2343C16.4362 14.2347 16.4755 14.2352 16.5151 14.2357C16.7071 14.2382 16.9042 14.2407 17.0978 14.2269L17.0978 14.2269L17.0986 14.2268C17.1714 14.2211 17.2295 14.176 17.2659 14.1451C17.2808 14.1326 17.296 14.1187 17.3096 14.1063C17.314 14.1023 17.3182 14.0984 17.3222 14.0948C17.3398 14.0789 17.3545 14.0663 17.3681 14.0564L17.4714 13.9813L17.3737 13.899C17.36 13.8874 17.3449 13.8721 17.3268 13.8526C17.3225 13.848 17.3179 13.8431 17.3132 13.8379C17.2994 13.8229 17.2839 13.8062 17.269 13.7912C17.2486 13.7707 17.224 13.7481 17.1961 13.7302C17.1682 13.7123 17.1305 13.6951 17.0854 13.6951V13.7951M15.5695 14.1338C15.5197 14.13 15.4723 14.0908 15.4253 14.0496C15.4221 14.0527 15.4189 14.0558 15.4157 14.0588L15.3477 13.9855L15.4051 13.9037C15.4086 13.9061 15.4121 13.9087 15.4156 13.9112C15.4643 13.854 15.513 13.7969 15.5635 13.7951C16.0708 13.7786 16.5781 13.7786 17.0854 13.7951M15.5695 14.1338C15.7434 14.1483 15.9186 14.1457 16.0937 14.1432C16.1615 14.1422 16.2294 14.1412 16.2972 14.1412L17.238 13.904C17.1878 13.8494 17.1375 13.7951 17.0854 13.7951M17.2325 14.0412C17.1862 14.0833 17.1397 14.1233 17.0907 14.1272L17.2325 14.0412Z" fill="#6651E6" stroke="#6651E6" stroke-width="0.2"/>
<path d="M22.6387 11.9437L22.5612 11.9468L22.56 11.9525C22.5245 11.9522 22.4887 11.9517 22.4526 11.9512C22.2837 11.9489 22.1094 11.9465 21.9387 11.9599L21.9387 11.9599L21.9378 11.96C21.8661 11.9663 21.8118 12.0136 21.7804 12.0427C21.7685 12.0538 21.7558 12.0664 21.7445 12.0776C21.7396 12.0824 21.7351 12.0869 21.7309 12.091C21.7156 12.106 21.7029 12.1176 21.6913 12.1264L21.5954 12.1995L21.685 12.2802C21.695 12.2892 21.7063 12.3016 21.7208 12.3181C21.7239 12.3217 21.7273 12.3257 21.7309 12.3298C21.742 12.3427 21.7548 12.3575 21.7672 12.3708C21.7837 12.3884 21.8045 12.4089 21.8287 12.4254C21.8524 12.4414 21.8861 12.4581 21.9275 12.4589C22.3795 12.481 22.8336 12.4924 23.2868 12.485L23.2872 12.485C23.3322 12.4841 23.3685 12.4644 23.3934 12.4466C23.4186 12.4285 23.4409 12.4059 23.4591 12.3859C23.4726 12.371 23.4866 12.3545 23.4991 12.3397C23.5033 12.3347 23.5074 12.3299 23.5112 12.3254C23.5276 12.3062 23.5411 12.2911 23.5532 12.2798L23.6401 12.1988L23.5455 12.127C23.5322 12.1168 23.5178 12.1039 23.5007 12.0878C23.4968 12.0841 23.4927 12.0802 23.4884 12.0761C23.4751 12.0635 23.4602 12.0494 23.4458 12.0366C23.41 12.0049 23.3533 11.9591 23.281 11.9515L23.281 11.9514L23.2769 11.9511C23.0645 11.9374 22.8514 11.9349 22.6387 11.9437Z" fill="#6651E6" stroke="#6651E6" stroke-width="0.2"/>
<path d="M9.12996 6.71927C9.04197 6.72119 8.96196 6.75839 8.89768 6.79339C8.86847 6.8093 8.84344 6.82403 8.82014 6.83774C8.78484 6.85852 8.75352 6.87695 8.7177 6.89356L8.51621 6.98698L8.71972 7.07592C8.75249 7.09023 8.78569 7.105 8.81922 7.11991C8.90486 7.158 8.99272 7.19708 9.08137 7.23225L9.09088 7.23602L9.10095 7.23779C9.14194 7.24499 9.1838 7.24549 9.22492 7.2393H14.3109C14.3233 7.2393 14.3374 7.24018 14.3547 7.24153C14.3576 7.24175 14.3605 7.24198 14.3636 7.24223C14.378 7.24337 14.3946 7.24469 14.4107 7.24539C14.4483 7.24701 14.502 7.24668 14.5525 7.2235L14.5526 7.22384L14.5602 7.21954C14.6515 7.16758 14.7379 7.10718 14.818 7.03913L14.911 6.96021L14.8154 6.8845C14.7392 6.8242 14.6572 6.77176 14.5705 6.72798L14.5594 6.72239L14.5473 6.71967C14.4723 6.70281 14.3949 6.69928 14.3187 6.70922L11.7935 6.70922L11.7933 6.70922L11.1977 6.71056C11.1977 6.71056 11.1977 6.71056 11.1977 6.71056C11.0125 6.71074 10.8273 6.71024 10.642 6.70974C10.1381 6.70839 9.63377 6.70703 9.12996 6.71927ZM9.12996 6.71927C9.12991 6.71927 9.12986 6.71927 9.12981 6.71927L9.13224 6.81924L9.13011 6.71927C9.13006 6.71927 9.13001 6.71927 9.12996 6.71927ZM8.75977 6.98428L8.79981 6.89265C8.82377 6.90312 8.84743 6.91358 8.87087 6.92399C8.83385 6.94566 8.79684 6.96709 8.75977 6.98428ZM8.75977 6.98428L8.80183 7.07501C8.82577 7.06391 8.85137 7.05023 8.87668 7.03602C8.87171 7.03381 8.86673 7.03159 8.86176 7.02938C8.8278 7.01428 8.79384 6.99917 8.75977 6.98428ZM14.7533 6.9629C14.7271 6.98512 14.7002 7.00648 14.6727 7.02693C14.6789 7.03166 14.6851 7.03645 14.6912 7.0413L14.7533 6.9629ZM14.7533 6.9629L14.6886 6.88667C14.6825 6.89186 14.6763 6.897 14.6701 6.90208C14.6986 6.92127 14.7263 6.94156 14.7533 6.9629Z" fill="#6651E6" stroke="#6651E6" stroke-width="0.2"/>
<path d="M18.0377 6.71415C17.5811 6.70209 17.1242 6.70747 16.6678 6.72423L16.6678 6.72422L16.6672 6.72425C16.6265 6.72601 16.5933 6.74268 16.5696 6.7586C16.5458 6.77461 16.5251 6.79438 16.5082 6.81175C16.4954 6.82505 16.4822 6.83981 16.4706 6.85272C16.4672 6.85651 16.464 6.86014 16.4609 6.86353C16.4461 6.87987 16.4343 6.89239 16.4237 6.90185L16.337 6.97911L16.4263 7.05337C16.4375 7.06269 16.4498 7.07484 16.465 7.09053C16.4682 7.09393 16.4717 7.09758 16.4754 7.10139C16.4872 7.11373 16.5007 7.12779 16.5138 7.14048C16.5443 7.16999 16.5986 7.21928 16.6705 7.22577L16.6705 7.22577L16.671 7.22582C16.8353 7.23972 17.0027 7.23717 17.1644 7.23471C17.194 7.23426 17.2235 7.23381 17.2527 7.23347L17.2533 7.24221H17.3465C17.4057 7.24221 17.4664 7.24324 17.528 7.24428L18.0377 6.71415Z" fill="#6651E6" stroke="#6651E6" stroke-width="0.2"/>
<path d="M14.8033 23.9377L14.8019 23.9485C14.7843 24.0826 14.7399 24.2053 14.6519 24.2937C14.5615 24.3846 14.4377 24.4269 14.2883 24.423C14.1407 24.4191 14.0156 24.3725 13.9301 24.2757C13.8455 24.18 13.8133 24.0505 13.8185 23.9084L13.8185 23.9082C13.8239 23.7703 13.8678 23.6499 13.9558 23.5641C14.044 23.478 14.1646 23.4382 14.3005 23.4386L14.8033 23.9377ZM14.8033 23.9377L14.8023 23.9269M14.8033 23.9377L14.8023 23.9269M14.8023 23.9269C14.7904 23.788 14.7462 23.6641 14.6581 23.5743M14.8023 23.9269L14.6581 23.5743M14.6581 23.5743C14.5686 23.4831 14.4454 23.439 14.3005 23.4386L14.6581 23.5743Z" fill="#6651E6" stroke="#6651E6" stroke-width="0.2"/>
<path d="M21.7438 24.0189C21.7435 24.0185 21.7432 24.0182 21.7429 24.0179C21.6901 23.9632 21.6371 23.9084 21.6171 23.8436C21.5934 23.7662 21.5989 23.6796 21.6044 23.5933C21.6067 23.556 21.6091 23.5186 21.6091 23.4821L21.7438 24.0189ZM21.9609 23.0852C21.9832 23.3379 21.9852 23.5919 21.9669 23.8449L21.9609 23.0852ZM21.5251 23.0622L21.5251 23.0622L21.525 23.0629C21.5075 23.1391 21.5057 23.2143 21.5075 23.2835C21.5083 23.3157 21.5097 23.3439 21.511 23.3709C21.5115 23.3818 21.512 23.3925 21.5125 23.4032L21.5091 23.4041V23.4821C21.5091 23.517 21.5071 23.5477 21.5049 23.5814C21.5033 23.606 21.5016 23.6323 21.5004 23.663C21.4981 23.7275 21.4995 23.8011 21.5215 23.8729L21.5216 23.8731C21.5431 23.9427 21.5883 23.9984 21.6271 24.0411C21.6454 24.0611 21.6613 24.0775 21.6759 24.0925C21.6975 24.1148 21.7162 24.134 21.7351 24.1575L21.8215 24.265L21.8968 24.1494C21.9074 24.1331 21.9208 24.1157 21.9369 24.0956C21.9404 24.0912 21.9441 24.0866 21.9479 24.0819C21.9607 24.0661 21.9748 24.0486 21.9877 24.0313C22.0198 23.9885 22.0609 23.9268 22.0666 23.8526L22.0666 23.8526L22.0667 23.8522C22.0854 23.5938 22.0833 23.3344 22.0605 23.0764L22.0605 23.0764L22.0605 23.0759C22.0535 23.0009 22.0012 22.9447 21.969 22.9125C21.9553 22.8989 21.9402 22.8848 21.9268 22.8724C21.9226 22.8685 21.9185 22.8647 21.9147 22.8612C21.8976 22.8452 21.8841 22.8319 21.8736 22.8197L21.7998 22.7336L21.7236 22.8176C21.7122 22.8302 21.698 22.8434 21.6806 22.859C21.6765 22.8627 21.6721 22.8666 21.6675 22.8707C21.654 22.8826 21.639 22.8959 21.6252 22.9089C21.5902 22.9422 21.5414 22.9931 21.5251 23.0622Z" fill="#6651E6" stroke="#6651E6" stroke-width="0.2"/>
<rect x="5.74609" y="10.4902" width="8.54175" height="4.27088" fill="#6651E6" fill-opacity="0.2"/>
<rect x="7.16992" y="16.1841" width="5.6945" height="4.74542" fill="#6651E6" fill-opacity="0.2"/>
</svg>
