<svg width="106" height="53" viewBox="0 0 106 53" fill="none" xmlns="http://www.w3.org/2000/svg">
<path d="M46.4084 23.4224L45.7565 25.7314L46.4084 23.4215V23.4224ZM49.7615 28.438L49.0434 28.4336L49.7615 28.438ZM49.5848 31.8883L45.2812 31.9042L49.5848 31.8883ZM50.4858 28.4433L49.7668 28.4389L50.4858 28.4433ZM49.9629 31.5968L50.7137 28.7374L49.9629 31.5968ZM65.8099 18.4351L64.4142 25.0009L65.8099 18.4351ZM62.2201 18.4263L61.16 23.3314L62.2201 18.4263Z" fill="#131B28"/>
<path d="M65.5611 18.132H62.5754C62.4094 18.132 62.2451 18.2645 62.2097 18.427L60.0897 28.2382C60.0544 28.3998 59.8901 28.5323 59.7249 28.5323H57.6111C55.5194 28.5323 55.7614 27.0863 56.1978 25.105L56.211 25.0449L56.4645 23.6934L56.5741 23.1369L57.5387 18.427C57.5722 18.2645 57.4636 18.1311 57.2975 18.1311H54.2323C54.1479 18.134 54.0666 18.1643 54.0009 18.2176C53.9353 18.2708 53.8887 18.344 53.8684 18.4261L52.4701 24.9751C51.7104 28.4413 51.9118 31.7468 56.0388 31.8501H62.6346C62.8007 31.8501 62.9641 31.7176 62.9994 31.5551L65.7925 18.4235C65.8279 18.2609 65.7192 18.1284 65.554 18.1284L65.5611 18.132ZM77.4684 28.5668C77.6345 28.5668 77.7334 28.6993 77.7096 28.8618L77.4198 30.2796L77.4684 28.5668ZM77.1372 31.6973L77.4269 30.2787L77.1372 31.6973ZM76.7838 31.9959L71.2807 32.0224L76.7838 31.9959Z" fill="#131B28"/>
<path d="M69.4893 26.7409C69.4866 26.5855 69.6633 26.3187 69.8294 26.3187L69.4566 26.3125C69.2799 28.0032 69.4893 26.7409 69.4893 26.7409ZM71.543 32.0206H71.4856H71.543ZM77.4684 28.5756C77.6345 28.5756 77.7334 28.7081 77.7096 28.8706L77.3801 30.5101L77.4684 28.5756ZM72.9564 32.0179H72.944H72.9564ZM72.2232 32.0206H72.1808H72.2232ZM72.0006 32.0206H71.9299H72.0006ZM71.7727 32.0206H71.7109H71.7727ZM72.1808 32.0206H71.9997H72.1808Z" fill="#131B28"/>
<path d="M72.9457 32.0179L72.2249 32.0206L72.9457 32.0179ZM76.7767 31.9941L72.9563 32.0171L76.7767 31.9941ZM77.1301 31.6982L77.373 30.511L77.1301 31.6991V31.6982ZM71.9219 32.0206H71.7647H71.9219ZM71.4759 32.0224H71.2639H71.4759ZM71.7002 32.0206H71.5236H71.7002ZM28.0123 26.7762L28.4761 24.7198L27.9461 27.0695L27.8842 27.3645L28.0132 26.7745L28.0123 26.7762ZM33.5667 18.0975H30.2869C30.2022 18.1008 30.1207 18.1312 30.0544 18.1841C29.9882 18.237 29.9405 18.3097 29.9186 18.3916L29.2967 21.13C29.2862 21.1654 29.2845 21.2029 29.2916 21.2391C29.2987 21.2754 29.3145 21.3094 29.3375 21.3383C29.3606 21.3671 29.3903 21.39 29.4241 21.405C29.4579 21.4199 29.4948 21.4265 29.5317 21.4241H32.8371C33.0032 21.4241 33.1675 21.2916 33.2028 21.13L33.8035 18.3855C33.8388 18.2238 33.7328 18.0913 33.565 18.0913L33.5667 18.0975ZM32.8601 22.6643L31.8884 27.1146L32.8601 22.6643ZM23.3324 37.4089L26.0372 37.4301C25.2387 37.4301 23.9198 37.4151 23.3315 37.408L23.3324 37.4089Z" fill="#131B28"/>
<path d="M28.9494 22.6635L28.4848 24.7199L28.9494 22.6635ZM32.6241 22.3685H29.3266C29.2418 22.3718 29.1604 22.4021 29.0941 22.4551C29.0278 22.508 28.9802 22.5807 28.9582 22.6626L28.0307 26.7754L27.9018 27.3655L27.0184 31.564C26.9747 31.7598 26.9216 31.9535 26.8594 32.1443C26.8594 32.1443 26.2411 33.9817 25.2041 33.9613L24.175 33.9419C24.0906 33.9443 24.0091 33.9735 23.9424 34.0252C23.8757 34.077 23.8272 34.1487 23.804 34.2299L23.1185 37.1113C23.1077 37.1465 23.1055 37.1839 23.1122 37.2201C23.1188 37.2564 23.1341 37.2905 23.1567 37.3196C23.1793 37.3487 23.2086 37.3719 23.2421 37.3873C23.2755 37.4027 23.3122 37.4099 23.3491 37.4081L26.0547 37.4302C28.6482 37.4302 30.0147 35.993 30.8918 31.859L32.8793 22.6723C32.9147 22.5107 32.8069 22.3782 32.6408 22.3782L32.6241 22.3685ZM79.5821 31.8528C79.416 31.8528 79.3171 31.7203 79.3436 31.5578L81.8319 19.9102L79.5821 31.8528ZM83.0385 31.5578L84.0455 26.5864L83.0385 31.5578Z" fill="#131B28"/>
<path d="M79.3807 31.7061C79.3604 31.6248 79.3719 31.4261 79.4072 31.2644L80.5874 25.7348L79.3436 31.5586C79.3083 31.7211 79.4161 31.8536 79.5821 31.8536H79.8842C79.7182 31.8536 79.4002 31.7874 79.3807 31.7061ZM82.8434 31.7874C82.7533 31.8227 82.5431 31.8536 82.377 31.8536H82.6791C82.7634 31.8503 82.8443 31.8196 82.9097 31.7662C82.975 31.7128 83.0212 31.6396 83.0413 31.5577L83.1013 31.2626C83.0686 31.4252 82.9247 31.7511 82.8363 31.7874H82.8434ZM83.543 29.072L83.9873 26.8778L83.543 29.072ZM93.3551 20.6909L93.492 21.2563C93.53 21.4179 93.4248 21.5495 93.2597 21.5504" fill="#131B28"/>
<path d="M83.0997 31.2626L83.5414 29.072L83.0997 31.2626ZM93.2183 20.1106L93.3534 20.69L93.2183 20.1106ZM83.9874 26.8795L84.1093 26.293L84.5837 24.0714L84.0466 26.5872L83.9874 26.8787V26.8795ZM81.8719 19.7192L81.7685 20.2051L80.5884 25.7347L81.8321 19.9109L81.8719 19.7201V19.7192Z" fill="#131B28"/>
<path d="M93.4919 21.2563L93.355 20.691L93.1518 19.8077C92.8833 18.7653 92.0953 18.162 90.3834 18.162L82.5041 18.1567C82.4196 18.1596 82.3384 18.19 82.2727 18.2432C82.207 18.2965 82.1605 18.3697 82.1402 18.4517L82.0183 19.0286L81.8416 19.9004L79.4177 31.2539C79.3824 31.4164 79.3709 31.6072 79.3912 31.6956C79.4115 31.7839 79.7295 31.8431 79.8947 31.8431H82.3857C82.5518 31.8431 82.7611 31.813 82.8521 31.7768C82.9431 31.7406 83.0765 31.4235 83.1171 31.2521L84.0623 26.5758L85.0737 21.8376C85.109 21.6759 85.2725 21.5443 85.4376 21.5434L93.2755 21.5399C93.4406 21.5399 93.5458 21.4074 93.5078 21.2457L93.4919 21.2563ZM103.581 16.1383L102.978 16.1409H100.469C100.377 16.1464 100.288 16.1715 100.207 16.2144C100.125 16.2574 100.054 16.3173 99.9976 16.39L94.4503 24.5167C94.3567 24.6536 94.2498 24.6333 94.2118 24.4725L93.8037 22.682C93.7817 22.6001 93.7341 22.5274 93.6678 22.4745C93.6016 22.4215 93.5201 22.3912 93.4353 22.3879H89.8693C89.7033 22.3879 89.6043 22.5177 89.6503 22.6776L91.2403 28.2762C91.2862 28.4352 91.2888 28.6975 91.2491 28.8592L90.5424 31.5684C90.5304 31.6031 90.5272 31.6403 90.5332 31.6766C90.5392 31.7129 90.5541 31.7471 90.5767 31.7761C90.5992 31.8051 90.6286 31.8281 90.6623 31.8429C90.696 31.8577 90.7328 31.8638 90.7694 31.8607H94.3028C94.4688 31.8607 94.6384 31.7282 94.6791 31.5692L95.3857 28.8601C95.4411 28.6693 95.5277 28.489 95.6419 28.3265L104.648 16.3733C104.748 16.2408 104.694 16.133 104.528 16.1348L103.583 16.1409L103.581 16.1383ZM75.2475 23.1502C75.2263 23.3269 75.0602 23.4594 74.8942 23.4594H70.3715C70.2152 23.4594 70.1357 23.3534 70.1595 23.2209L70.163 23.197L70.1834 23.1202C70.625 21.9718 71.4951 21.2183 73.1478 21.2183C75.009 21.2183 75.3721 22.1282 75.2457 23.1502H75.2475ZM73.9225 17.9315C68.119 17.9315 66.7437 21.4542 65.9725 25.0096C65.2005 28.6339 65.2676 32.0233 71.2725 32.0233H72.2247L72.9579 32.0206L76.7792 31.9977C76.8631 31.9938 76.9434 31.9628 77.0082 31.9095C77.073 31.8562 77.1188 31.7833 77.1387 31.7017L77.7191 28.8645C77.7526 28.7019 77.644 28.5694 77.4779 28.5694H72.0799C69.9334 28.5694 69.2947 27.9988 69.5297 26.3214H78.1599C78.3012 26.3187 78.4293 26.233 78.4796 26.0988C78.4885 26.0749 78.4973 26.0493 78.5008 26.0237C79.7817 21.1918 79.4142 17.935 73.9252 17.935L73.9225 17.9315ZM46.4897 23.1316L46.4085 23.4205C46.4085 23.4214 45.7566 25.7313 45.7566 25.7313L45.1047 28.0403C45.0776 28.1217 45.0264 28.193 44.958 28.2447C44.8895 28.2965 44.807 28.3262 44.7213 28.3301H41.2719C38.6554 28.3301 38.0186 26.2834 38.6554 23.265C39.2914 20.1778 40.5414 18.2583 43.1163 18.064C46.6355 17.799 47.3386 20.2741 46.4906 23.1308L46.4897 23.1316ZM48.8553 28.1534C48.8553 28.1534 50.4806 24.2049 50.8516 21.9232C51.3551 18.8696 49.827 14.4414 43.9219 14.4414C38.0504 14.4414 35.5011 18.669 34.5285 23.2747C33.5568 27.9034 34.8306 31.9632 40.6677 31.9314L49.577 31.8987C49.6624 31.8946 49.7445 31.8643 49.812 31.8118C49.8795 31.7593 49.9291 31.6872 49.9542 31.6055L50.705 28.7452C50.7171 28.7106 50.7205 28.6735 50.7146 28.6372C50.7088 28.601 50.6941 28.5667 50.6717 28.5376C50.6494 28.5085 50.6201 28.4854 50.5866 28.4705C50.5531 28.4555 50.5163 28.4492 50.4797 28.452H49.0426C48.9012 28.4511 48.8217 28.3601 48.8376 28.24C48.8403 28.2179 48.8465 28.1958 48.8553 28.1728V28.1534Z" fill="#131B28"/>
<path d="M77.9187 25.5104C77.9187 25.6199 77.8303 25.7082 77.7208 25.7082C77.6113 25.7082 77.5229 25.6199 77.5229 25.5104C77.5229 25.4008 77.6113 25.3125 77.7208 25.3125C77.8303 25.3125 77.9187 25.4008 77.9187 25.5104Z" fill="#131B28"/>
<path d="M4.02512 20.3759C2.4042 22.7061 2.6056 25.7377 3.84403 28.2128L3.93502 28.3895L3.99332 28.5008L4.02865 28.5653L4.09313 28.6801L4.2115 28.8833L4.27863 28.9946L4.41555 29.2092L4.47385 29.2993L4.6726 29.5864L4.71147 29.6394L4.89255 29.8805L4.96057 29.9671L5.13723 30.1729L5.20083 30.2498L5.43403 30.5165L5.44817 30.5316L5.6849 30.7815L5.76087 30.8584L5.9499 31.0351L6.02763 31.1084L6.28645 31.3442L6.33592 31.3857L6.57177 31.5845L6.6601 31.6622L6.8562 31.8159L6.9622 31.9043L7.18303 32.0633L7.2855 32.1357L7.49927 32.277L7.59202 32.3389L7.92768 32.5438L8.02043 32.5968L8.27218 32.7381L8.41175 32.8088L8.59195 32.9024L8.63347 32.9227L8.70678 32.9581L8.9921 33.0906L9.05217 33.1171L9.38518 33.2549L9.46645 33.2867L9.78003 33.4033L9.81978 33.4174L10.1696 33.5322L10.2544 33.557L10.6077 33.6594C18.4473 35.0904 20.7245 28.9477 20.7245 28.9477C18.8121 31.4387 15.4245 32.0968 12.2004 31.3654C12.0785 31.3389 11.9601 31.3001 11.8417 31.2647L11.7534 31.2382C11.638 31.2027 11.5231 31.1653 11.4089 31.126L11.3612 31.1084C11.2587 31.073 11.158 31.0342 11.0564 30.9953L10.9708 30.9617C10.8601 30.9181 10.7503 30.8725 10.6413 30.8248L10.5759 30.7957L10.2985 30.6667L10.2102 30.6278C10.1378 30.5925 10.0671 30.5554 9.99557 30.5183L9.85247 30.4432C9.76594 30.3968 9.68024 30.3488 9.59542 30.2992L9.50885 30.2507C9.39594 30.184 9.28404 30.1157 9.17318 30.0457C9.14227 30.0263 9.11312 30.0051 9.08308 29.9857L8.84458 29.8267C8.81808 29.809 8.79335 29.7913 8.76773 29.7737L8.54248 29.6102L8.44267 29.5352L8.2395 29.3762L8.14852 29.3037L7.895 29.09C7.88617 29.0811 7.87733 29.0749 7.8685 29.067C7.7784 28.9787 7.69007 28.9062 7.60173 28.825L7.52665 28.7525L7.33497 28.5653L7.25988 28.4902C7.18016 28.4088 7.10183 28.326 7.02492 28.242C6.94001 28.1492 6.85667 28.0549 6.77493 27.9593L6.7131 27.8851L6.54173 27.6731L6.4799 27.5848L6.28203 27.3215C4.50477 24.8906 3.86258 21.5304 5.29977 18.7709L4.02512 20.3759ZM9.06541 18.4131C7.89323 20.0914 7.95683 22.359 8.87108 24.1424C9.0242 24.4423 9.19743 24.7316 9.3896 25.0081C9.56627 25.2598 9.7606 25.5593 9.99292 25.7616L10.2561 26.0266L10.325 26.0946L10.5936 26.3446L10.6068 26.356L10.9204 26.6157L10.9911 26.6714L11.3197 26.9099L11.5493 27.0627L11.7923 27.2129L11.8276 27.2332L12.0431 27.3533L12.12 27.3931L12.2701 27.4708L12.2931 27.4814L12.6067 27.628L12.6756 27.6563L12.9406 27.7605L13.051 27.8012L13.2869 27.8833L13.3929 27.9187C13.5059 27.954 13.6172 28.007 13.7347 28.0176C19.7882 29.0202 21.1856 24.3606 21.1856 24.3606C19.926 26.175 17.4862 27.0406 14.883 26.3658L14.5403 26.2668L14.437 26.2333L14.1985 26.1502L14.0898 26.1096L13.8319 26.0054L13.7612 25.9762L13.4459 25.8296L13.2869 25.7412L13.1959 25.6944L12.9485 25.5531L12.7056 25.4047L12.476 25.2519L12.1491 25.0134L12.0758 24.9551C10.9275 24.0558 10.0327 22.8351 9.60248 21.4323C9.16082 19.9863 9.24915 18.3636 10.0291 17.0466L9.06541 18.4131ZM13.2886 16.9468C12.5979 17.9626 12.529 19.2258 13.0095 20.3503C13.5148 21.5428 14.5518 22.4703 15.7611 22.9119L15.9112 22.9649L15.9775 22.9861L16.193 23.048C19.5356 23.6928 20.433 21.3325 20.683 20.9854C19.888 22.1284 18.563 22.4031 16.9165 22.0056C16.7824 21.9702 16.6498 21.9296 16.519 21.8837C16.3587 21.827 16.2016 21.7618 16.0482 21.6885C15.7571 21.5485 15.4808 21.3798 15.2231 21.185C13.7568 20.072 12.8381 17.952 13.8036 16.2251" fill="#0868AC"/>
</svg>
