<svg width="30" height="30" viewBox="0 0 30 30" fill="none" xmlns="http://www.w3.org/2000/svg">
<path d="M0.921945 9.77037C0.890309 9.84596 0.899244 9.92734 0.909571 9.98817C0.913484 10.0112 0.918441 10.0354 0.922972 10.0575C0.924604 10.0655 0.926181 10.0732 0.927634 10.0804C0.933473 10.1097 0.937948 10.135 0.940044 10.1581L0.954773 10.32L1.09266 10.2338C1.19444 10.1701 1.28941 10.0964 1.37608 10.0136L1.38364 10.0064L1.38954 9.99779C1.4483 9.91197 1.49434 9.81825 1.52625 9.71948C2.20349 8.17462 3.15422 6.76154 4.33377 5.54669L4.3344 5.54604C5.28112 4.55323 6.36563 3.69822 7.5555 3.0066L7.55558 3.00674L7.56027 3.00364C7.67517 2.92792 7.7848 2.84465 7.88842 2.7544L7.93529 2.71357L7.91942 2.65347C7.91449 2.63476 7.90966 2.61687 7.90489 2.5992C7.89779 2.57289 7.89083 2.54706 7.88382 2.51974L7.86312 2.43902L7.77999 2.44483C7.75575 2.44652 7.72838 2.44608 7.69664 2.44488C7.68893 2.44459 7.6808 2.44424 7.67241 2.44388C7.64827 2.44285 7.62195 2.44172 7.59701 2.44153C7.53326 2.44105 7.44538 2.44512 7.37518 2.49407L7.37503 2.49417C7.14795 2.65313 6.91729 2.80991 6.6859 2.96717C6.02363 3.41729 5.35546 3.87142 4.74861 4.39215L4.74857 4.39218C3.03156 5.86709 1.78086 7.69135 0.921945 9.77037ZM0.921945 9.77037C0.921981 9.77028 0.922018 9.77019 0.922055 9.7701L1.01426 9.80881M0.921945 9.77037C0.921908 9.77046 0.921872 9.77054 0.921835 9.77063L1.01426 9.80881M1.01426 9.80881C1.86784 7.7426 3.10983 5.93169 4.81373 4.46804M1.01426 9.80881C0.987263 9.87312 1.00392 9.95438 1.02061 10.0358C1.021 10.0377 1.02139 10.0396 1.02179 10.0416C1.01017 10.0493 0.99844 10.0568 0.986609 10.0642L1.03963 10.149L1.13922 10.1399C1.13759 10.122 1.13509 10.1041 1.1322 10.0867C1.19373 10.0423 1.25214 9.99368 1.30703 9.94129C1.3613 9.86203 1.4036 9.77537 1.43259 9.68406C2.11478 8.12637 3.07298 6.70165 4.26203 5.47703L4.81373 4.46804M4.81373 4.46804C5.41595 3.95129 6.07729 3.50179 6.7382 3.05258C6.97051 2.89469 7.20276 2.73683 7.43238 2.5761C7.48964 2.53617 7.57809 2.53995 7.66653 2.54372C7.70773 2.54548 7.74892 2.54724 7.78695 2.54458L4.81373 4.46804Z" fill="#6651E6" stroke="#6651E6" stroke-width="0.2"/>
<path d="M27.9164 24.6457L27.8434 24.7565C27.812 24.8042 27.7849 24.8473 27.7602 24.8867C27.7172 24.955 27.6816 25.0118 27.6433 25.0604L27.6421 25.062L27.6421 25.062C26.533 26.4137 25.1958 27.5656 23.6898 28.4669L23.6892 28.4673L23.6892 28.4673C23.6837 28.4705 23.6773 28.4749 23.6681 28.4813C23.6668 28.4822 23.6655 28.4832 23.6641 28.4841C23.6564 28.4896 23.6466 28.4965 23.6368 28.5028C23.6154 28.5167 23.5775 28.5391 23.5301 28.5415L23.5249 28.5417L23.5249 28.5416C23.4317 28.5413 23.3386 28.5357 23.2461 28.5248L23.1228 28.5103L23.1633 28.3929C23.1692 28.3757 23.1744 28.3552 23.1801 28.3301C23.1813 28.3248 23.1826 28.3191 23.1839 28.3132C23.1883 28.2935 23.1933 28.2714 23.1987 28.2508C23.2115 28.2026 23.2353 28.1256 23.2991 28.0799L27.9164 24.6457ZM27.9164 24.6457L27.7898 24.606M27.9164 24.6457L27.7898 24.606M27.7898 24.606C27.7529 24.5944 27.7219 24.5814 27.6893 24.5676C27.6716 24.5602 27.6535 24.5525 27.6336 24.5448C27.6086 24.535 27.5796 24.5248 27.5504 24.5197C27.5215 24.5147 27.4821 24.5127 27.4426 24.5304C27.3801 24.5582 27.3285 24.603 27.2866 24.6467C27.2496 24.6854 27.2155 24.7283 27.1866 24.7647C27.183 24.7693 27.1795 24.7737 27.176 24.7781C26.326 25.8108 25.3315 26.7188 24.2225 27.4746M27.7898 24.606L24.2225 27.4746M24.2225 27.4746C24.1027 27.5553 23.9767 27.6353 23.8493 27.7162C23.6637 27.8341 23.4752 27.9537 23.2991 28.0799L24.2225 27.4746Z" fill="#6651E6" stroke="#6651E6" stroke-width="0.2"/>
<path d="M21.107 0.971324L21.0555 0.952835L21.0122 0.986151C21.0055 0.991319 20.9957 0.997552 20.9806 1.00669C20.9784 1.00802 20.976 1.00943 20.9736 1.01089C20.9611 1.0184 20.9458 1.02759 20.9316 1.03711C20.9145 1.04853 20.894 1.06356 20.876 1.08249C20.858 1.10145 20.838 1.12905 20.8298 1.16594C20.8157 1.22941 20.8417 1.28988 20.8611 1.32617C20.8831 1.36734 20.9124 1.40564 20.9368 1.43408L20.9427 1.44097L20.9497 1.44668C20.9997 1.48717 21.057 1.51783 21.1184 1.53711C22.2673 2.07664 23.3553 2.70721 24.335 3.50753C24.3903 3.56426 24.4588 3.60656 24.5344 3.63075L24.5441 3.63383L24.5541 3.63491C24.6497 3.64528 24.7457 3.61814 24.8215 3.55907L24.8217 3.55926L24.8268 3.55465C24.8581 3.52664 24.8684 3.48982 24.8724 3.46857C24.8771 3.44422 24.8774 3.41913 24.8758 3.39682C24.8728 3.35403 24.8612 3.30257 24.8388 3.26271L24.839 3.26258L24.8349 3.25638C24.787 3.18427 24.7259 3.12178 24.6548 3.07212C23.6488 2.26203 22.5397 1.58603 21.3557 1.06146L21.3557 1.06145L21.3546 1.06099C21.3061 1.04018 21.2534 1.02209 21.1958 1.00231C21.1674 0.992566 21.1378 0.982412 21.107 0.971324Z" fill="#6651E6" stroke="#6651E6" stroke-width="0.2"/>
<path d="M7.59611 27.9608C6.91689 27.9493 6.23767 27.9493 5.55845 27.9608L7.74779 28.027C7.74166 28.0314 7.73563 28.036 7.72975 28.0406C7.68551 27.9993 7.64107 27.9608 7.59611 27.9608ZM7.59611 27.9608V27.8608C7.67268 27.8608 7.7334 27.9103 7.76726 27.9397C7.78189 27.9524 7.79698 27.9666 7.81028 27.9791C7.81444 27.983 7.81842 27.9867 7.82215 27.9902C7.83926 28.0061 7.85316 28.0184 7.86569 28.0277L7.97589 28.1091L7.86471 28.1892C7.85209 28.1983 7.83825 28.2102 7.82137 28.2255C7.81757 28.2289 7.8135 28.2326 7.80925 28.2365C7.79621 28.2484 7.78142 28.2619 7.76711 28.274C7.73247 28.3034 7.67438 28.3488 7.60121 28.352L7.60031 28.3521L7.60031 28.3521C7.33769 28.3614 7.07372 28.3603 6.81217 28.3593C6.7286 28.3589 6.64527 28.3586 6.56232 28.3586C6.47284 28.3586 6.38264 28.3593 6.29198 28.36C6.04838 28.3619 5.80151 28.3639 5.55689 28.3521C5.48216 28.351 5.42262 28.3052 5.38779 28.2762C5.3732 28.2641 5.35807 28.2505 5.34478 28.2385C5.34037 28.2346 5.33616 28.2308 5.33225 28.2273C5.315 28.2119 5.30104 28.2002 5.28845 28.1914L5.17398 28.1114L5.2865 28.0288C5.29948 28.0193 5.31375 28.0067 5.33108 27.9908C5.33495 27.9872 5.33906 27.9834 5.34335 27.9794C5.35677 27.967 5.37191 27.9529 5.38658 27.9403C5.42101 27.9106 5.48119 27.8622 5.55665 27.8608L5.55674 27.8608C6.2371 27.8492 6.91746 27.8492 7.59782 27.8608L7.59611 27.9608ZM7.72882 28.1745C7.68552 28.2137 7.64204 28.2501 7.59676 28.2521C7.33631 28.2614 7.07512 28.2603 6.81403 28.2593C6.73011 28.2589 6.64619 28.2586 6.56232 28.2586C6.4711 28.2586 6.37984 28.2593 6.28859 28.26C6.04527 28.2619 5.80199 28.2638 5.55975 28.2521C5.51337 28.2521 5.46854 28.215 5.42397 28.1752C5.41775 28.1803 5.41138 28.1852 5.4049 28.19L7.72882 28.1745Z" fill="#6651E6" stroke="#6651E6" stroke-width="0.2"/>
<path d="M10.0372 1.84258C10.1039 1.81399 10.1387 1.75003 10.157 1.71389C10.1644 1.69927 10.1719 1.68299 10.1784 1.66889C10.1809 1.66354 10.1832 1.6585 10.1853 1.65398C10.194 1.6355 10.2009 1.62191 10.2075 1.61156L10.2732 1.50854L10.1592 1.46453C10.1444 1.45881 10.1271 1.45022 10.1056 1.43874C10.1004 1.43602 10.0949 1.43304 10.0892 1.42993C10.0728 1.4211 10.0543 1.41115 10.0369 1.40259C10.0131 1.39085 9.98446 1.3782 9.95433 1.37076C9.92431 1.36334 9.88457 1.359 9.84328 1.37328L9.84327 1.37326L9.84135 1.37397C9.38443 1.54261 8.93308 1.72727 8.48807 1.92077L8.48806 1.92076L8.4873 1.92111C8.45084 1.93732 8.42614 1.96521 8.41027 1.98837C8.39371 2.01254 8.38128 2.03959 8.37204 2.06527C8.35385 2.1158 8.34346 2.17386 8.34336 2.22269C8.34289 2.27257 8.3728 2.3063 8.38566 2.31948C8.40183 2.33605 8.42084 2.34959 8.43551 2.35932C8.44864 2.36802 8.46265 2.37646 8.47379 2.38318C8.47554 2.38423 8.47722 2.38525 8.47882 2.38621C8.49266 2.39458 8.49918 2.3988 8.50202 2.40099L8.53097 2.42331L8.56749 2.4217C8.6041 2.42008 8.6405 2.4152 8.67623 2.40711L8.68436 2.40527L8.69207 2.40211C8.76572 2.37193 8.83948 2.34179 8.91331 2.31162C9.28863 2.15822 9.66546 2.00421 10.0372 1.84258ZM10.0372 1.84258C10.0371 1.84264 10.0369 1.84271 10.0368 1.84277L9.99763 1.75074M10.0372 1.84258C10.0373 1.84253 10.0374 1.84249 10.0375 1.84245L9.99763 1.75074M9.99763 1.75074C9.6269 1.91194 9.25116 2.0655 8.87574 2.21894C8.80185 2.24914 8.72798 2.27933 8.65415 2.30958M9.99763 1.75074C10.0336 1.73546 10.0567 1.69295 10.0781 1.64747C10.0811 1.64871 10.0841 1.64993 10.0872 1.6511L10.1232 1.55782L10.0389 1.50407C10.0369 1.50714 10.035 1.51024 10.0331 1.51335C9.97551 1.48234 9.91851 1.45307 9.87597 1.46779C9.42121 1.63563 8.97164 1.81955 8.52794 2.01247C8.47589 2.03563 8.44336 2.15009 8.44336 2.2234L8.65415 2.30958M8.65415 2.30958C8.62423 2.31635 8.59375 2.32044 8.56307 2.3218L8.65415 2.30958Z" fill="#6651E6" stroke="#6651E6" stroke-width="0.2"/>
<path d="M4.51983 28.0904C4.50253 28.0064 4.467 27.9393 4.40929 27.894C4.35252 27.8495 4.28702 27.8362 4.22978 27.834C4.17358 27.8318 4.11565 27.84 4.06835 27.8471C4.06552 27.8475 4.06274 27.8479 4.05999 27.8483C4.01265 27.8553 3.97632 27.8607 3.945 27.8607L3.94457 27.8607C3.85201 27.8611 3.76419 27.8884 3.68712 27.9176C3.65271 27.9306 3.62231 27.9431 3.59343 27.955C3.55117 27.9724 3.51219 27.9884 3.46871 28.0027L3.25102 28.0745L3.45166 28.1852L3.89537 28.4303L3.94009 28.455L3.9863 28.4332C4.0476 28.4043 4.11753 28.3752 4.18675 28.3464C4.22448 28.3307 4.262 28.3151 4.29779 28.2997C4.34617 28.2788 4.39249 28.2577 4.42696 28.2383C4.44355 28.2289 4.46262 28.2171 4.4784 28.2029C4.48619 28.196 4.49741 28.1847 4.50649 28.1691C4.5157 28.1533 4.52699 28.1251 4.51983 28.0904ZM4.51983 28.0904L4.42189 28.1106M4.51983 28.0904C4.51981 28.0903 4.5198 28.0902 4.51978 28.0901L4.42189 28.1106M4.42189 28.1106C4.42758 28.1378 4.29661 28.1923 4.15165 28.2527C4.08092 28.2821 4.00686 28.313 3.94371 28.3427L3.62257 28.0512C3.62736 28.0492 3.63214 28.0472 3.63693 28.0453C3.73962 28.0032 3.84231 27.9612 3.945 27.9607C3.98407 27.9607 4.02754 27.9542 4.07199 27.9476C4.22001 27.9255 4.37886 27.9019 4.42189 28.1106Z" fill="#6651E6" stroke="#6651E6" stroke-width="0.2"/>
<path d="M7.64256 4.19482C9.82007 2.76967 12.433 1.93945 15.2425 1.93945C18.0441 1.93945 20.6502 2.76497 22.824 4.18271M5.57576 5.85148C3.04978 8.31051 1.48438 11.7262 1.48438 15.5024C1.48438 18.873 2.73165 21.9565 4.79604 24.3288M26.253 7.36848C27.9784 9.63461 29.0007 12.4508 29.0007 15.5024C29.0007 19.7754 26.8846 23.6902 23.7519 26.1762M7.51713 26.7268C9.71942 28.2028 12.3788 29.0653 15.2425 29.0653C18.0441 29.0653 20.6502 28.2398 22.824 26.822M25.3911 6.42193C24.882 5.92848 24.2559 5.37777 23.7041 4.91047" stroke="#6651E6" stroke-width="0.8"/>
<g clip-path="url(#clip0)">
<path d="M5.27148 5.3695V10.1847H6.06218V5.3695C6.06218 5.16277 6.14549 4.96451 6.29377 4.81833C6.44206 4.67215 6.64318 4.59002 6.85288 4.59002H22.6669C22.8766 4.59002 23.0777 4.67215 23.226 4.81833C23.3743 4.96451 23.4576 5.57289 23.4576 6.14898H24.2483C24.2483 5.21361 24.0816 4.55952 23.7851 4.26715C23.4885 3.97479 23.0863 3.81055 22.6669 3.81055H6.85288C6.43347 3.81055 6.03123 3.97479 5.73466 4.26715C5.4381 4.55952 5.27148 4.95604 5.27148 5.3695Z" fill="#6651E6"/>
<path d="M4.47983 27.195H22.6659C23.0853 27.195 23.4876 27.0307 23.7841 26.7384C24.0807 26.446 24.2473 26.0495 24.2473 25.636V23.2949H23.4566V25.636C23.4566 25.8427 23.3733 26.041 23.225 26.1872C23.0767 26.3334 22.8756 26.4155 22.6659 26.4155C22.4562 26.4155 22.2551 26.3334 22.1068 26.1872C21.9585 26.041 21.8752 25.8427 21.8752 25.636V24.4667C21.8752 24.3633 21.8336 24.2642 21.7594 24.1912C21.6853 24.1181 21.5848 24.077 21.48 24.077H6.06123V15.2998H5.27053V24.077H3.29366C3.18884 24.077 3.08831 24.1181 3.0142 24.1912C2.94008 24.2642 2.89844 24.3633 2.89844 24.4667V25.636C2.89844 26.0495 3.06505 26.446 3.36162 26.7384C3.65819 27.0307 4.06042 27.195 4.47983 27.195ZM3.68914 24.8565H21.0845V25.636C21.084 25.9098 21.1573 26.1788 21.2968 26.4155H4.47983C4.27013 26.4155 4.06901 26.3334 3.92073 26.1872C3.77244 26.041 3.68914 25.8427 3.68914 25.636V24.8565Z" fill="#6651E6"/>
<path d="M3.29366 15.5027H11.2006C11.2526 15.5028 11.304 15.4927 11.352 15.4731C11.4 15.4536 11.4436 15.4248 11.4804 15.3886C11.5171 15.3524 11.5462 15.3094 11.5661 15.2621C11.586 15.2148 11.5962 15.1641 11.5961 15.1129V10.436C11.5961 10.3848 11.5859 10.3341 11.566 10.2868C11.5461 10.2396 11.517 10.1966 11.4803 10.1604C11.4436 10.1242 11.4 10.0955 11.352 10.076C11.304 10.0564 11.2526 10.0464 11.2006 10.0464H3.29366C3.18884 10.0464 3.08831 10.0874 3.0142 10.1605C2.94008 10.2336 2.89844 10.3327 2.89844 10.436V15.1129C2.8984 15.1641 2.9086 15.2148 2.92845 15.2621C2.9483 15.3094 2.9774 15.3523 3.01411 15.3885C3.05081 15.4247 3.09439 15.4535 3.14236 15.4731C3.19032 15.4927 3.24174 15.5027 3.29366 15.5027ZM3.68914 10.8259H10.8054V14.7233H3.68914V10.8259Z" fill="#6651E6"/>
<path d="M5.38497 11.7192L4.59427 12.4987C4.52015 12.5718 4.47852 12.6709 4.47852 12.7742C4.47852 12.8775 4.52015 12.9766 4.59427 13.0497L5.38497 13.8292L5.94389 13.2782L5.43279 12.7743L5.94389 12.2702L5.38497 11.7192Z" fill="#6651E6"/>
<path d="M9.10776 11.7192L8.54883 12.2702L9.05994 12.7743L8.54883 13.2782L9.10776 13.8292L9.89847 13.0497C9.97259 12.9766 10.0142 12.8775 10.0142 12.7742C10.0142 12.6709 9.97259 12.5718 9.89847 12.4987L9.10776 11.7192Z" fill="#6651E6"/>
<path d="M6.47656 13.8206L7.26777 11.4819L8.01824 11.7286L7.22652 14.0671L6.47656 13.8206Z" fill="#6651E6"/>
<path d="M26.2241 6.14893H12.7819C12.73 6.14893 12.6786 6.15901 12.6306 6.17861C12.5827 6.1982 12.5391 6.22692 12.5024 6.26313C12.4657 6.29933 12.4366 6.34231 12.4167 6.38961C12.3969 6.43691 12.3867 6.4876 12.3867 6.53879V14.3336C12.3867 14.4369 12.4284 14.536 12.5025 14.6091C12.5766 14.6821 12.6771 14.7232 12.7819 14.7232H26.2241C26.3289 14.7232 26.4294 14.6821 26.5035 14.6091C26.5777 14.536 26.6193 14.4369 26.6193 14.3336V6.53879C26.6193 6.4876 26.6091 6.43691 26.5893 6.38961C26.5694 6.34231 26.5403 6.29933 26.5036 6.26313C26.4669 6.22692 26.4233 6.1982 26.3754 6.17861C26.3274 6.15901 26.276 6.14893 26.2241 6.14893ZM25.8286 13.9437H13.1774V12.9959L16.7276 10.8944L20.189 13.1011C20.2473 13.1383 20.3146 13.1596 20.384 13.1629C20.4534 13.1661 20.5225 13.1513 20.5842 13.1198L23.4464 11.6591L25.8286 13.0006V13.9437ZM25.8286 12.1029L23.6541 10.8772C23.5968 10.8449 23.5321 10.8272 23.4661 10.8259C23.4001 10.8245 23.3347 10.8395 23.2761 10.8694L20.4271 12.3244L16.9518 10.1087C16.8897 10.0691 16.8175 10.0476 16.7436 10.0464C16.6697 10.0452 16.5969 10.0644 16.5335 10.1019L13.1774 12.0862V6.9284H25.8286V12.1029Z" fill="#6651E6"/>
<path d="M21.6767 10.4363C21.9504 10.4363 22.218 10.3563 22.4456 10.2064C22.6731 10.0565 22.8505 9.84341 22.9552 9.59413C23.0599 9.34485 23.0873 9.07056 23.0339 8.80593C22.9805 8.54131 22.8487 8.29824 22.6551 8.10747C22.4616 7.9167 22.215 7.7868 21.9465 7.73419C21.6781 7.68158 21.3999 7.70863 21.147 7.81192C20.8942 7.91521 20.6781 8.09009 20.5261 8.31446C20.374 8.53882 20.2929 8.80259 20.293 9.0724C20.293 9.43415 20.4389 9.78107 20.6984 10.0368C20.9579 10.2926 21.3098 10.4363 21.6767 10.4363ZM21.6767 8.48773C21.794 8.48773 21.9087 8.52202 22.0062 8.58627C22.1038 8.65051 22.1798 8.74183 22.2247 8.84866C22.2696 8.95549 22.2813 9.07305 22.2584 9.18647C22.2355 9.29988 22.1791 9.40406 22.0961 9.48583C22.0132 9.56759 21.9075 9.62328 21.7924 9.64584C21.6774 9.6684 21.5582 9.65682 21.4498 9.61257C21.3414 9.56831 21.2488 9.49338 21.1836 9.39723C21.1184 9.30108 21.0837 9.18804 21.0837 9.0724C21.0836 8.99561 21.0989 8.91957 21.1287 8.84862C21.1585 8.77767 21.2022 8.7132 21.2573 8.65891C21.3124 8.60461 21.3778 8.56154 21.4497 8.53217C21.5217 8.5028 21.5988 8.4877 21.6767 8.48773Z" fill="#6651E6"/>
<path d="M6.85156 16.6718V21.3487C6.85153 21.3999 6.86174 21.4507 6.8816 21.498C6.90146 21.5453 6.93059 21.5883 6.96732 21.6245C7.00405 21.6607 7.04766 21.6894 7.09566 21.709C7.14365 21.7286 7.19509 21.7386 7.24704 21.7386H17.1306C17.1826 21.7386 17.234 21.7285 17.2819 21.7089C17.3299 21.6893 17.3735 21.6606 17.4102 21.6244C17.4469 21.5882 17.476 21.5452 17.4959 21.4979C17.5157 21.4506 17.5259 21.3999 17.5259 21.3487V16.6718C17.5259 16.5685 17.4842 16.4694 17.4101 16.3963C17.336 16.3233 17.2355 16.2822 17.1306 16.2822H7.24704C7.19512 16.2822 7.1437 16.2922 7.09572 16.3118C7.04774 16.3314 7.00414 16.3601 6.96741 16.3963C6.93068 16.4324 6.90155 16.4754 6.88167 16.5227C6.86179 16.57 6.85156 16.6207 6.85156 16.6718ZM7.64226 17.0617H16.7354V20.9591H7.64226V17.0617Z" fill="#6651E6"/>
<path d="M8.43359 17.8413H10.015V18.6208H8.43359V17.8413Z" fill="#6651E6"/>
<path d="M10.8047 17.8413H14.3627V18.6208H10.8047V17.8413Z" fill="#6651E6"/>
<path d="M15.1543 17.8413H15.9447V18.6208H15.1543V17.8413Z" fill="#6651E6"/>
<path d="M8.43359 19.3999H13.1778V20.1794H8.43359V19.3999Z" fill="#6651E6"/>
<path d="M13.9688 19.3999H15.9454V20.1794H13.9688V19.3999Z" fill="#6651E6"/>
<path d="M6.85156 5.36963H7.64226V6.14911H6.85156V5.36963Z" fill="#6651E6"/>
<path d="M8.43359 5.36963H9.22428V6.14911H8.43359V5.36963Z" fill="#6651E6"/>
<path d="M10.0156 5.36963H10.8063V6.14911H10.0156V5.36963Z" fill="#6651E6"/>
<path d="M6.85156 6.92822H11.5958V7.70771H6.85156V6.92822Z" fill="#6651E6"/>
<path d="M26.2233 17.8413H18.7116C18.6068 17.8413 18.5063 17.8824 18.4322 17.9554C18.358 18.0285 18.3164 18.1276 18.3164 18.2309V22.9078C18.3164 22.959 18.3266 23.0097 18.3464 23.057C18.3663 23.1043 18.3954 23.1472 18.4321 23.1834C18.4688 23.2197 18.5124 23.2484 18.5603 23.268C18.6083 23.2876 18.6597 23.2977 18.7116 23.2977H26.2233C26.2753 23.2977 26.3267 23.2876 26.3746 23.268C26.4226 23.2484 26.4662 23.2197 26.5029 23.1834C26.5396 23.1472 26.5687 23.1043 26.5885 23.057C26.6084 23.0097 26.6186 22.959 26.6186 22.9078V18.2309C26.6186 18.1276 26.5769 18.0285 26.5028 17.9554C26.4287 17.8824 26.3282 17.8413 26.2233 17.8413ZM25.8279 22.5182H19.1068V18.6208H25.8279V22.5182Z" fill="#6651E6"/>
<path d="M19.8984 19.3999H20.6889V20.1794H19.8984V19.3999Z" fill="#6651E6"/>
<path d="M19.8984 20.959H20.6889V21.7385H19.8984V20.959Z" fill="#6651E6"/>
<path d="M21.4785 19.3999H25.0365V20.1794H21.4785V19.3999Z" fill="#6651E6"/>
<path d="M21.4785 20.959H25.0365V21.7385H21.4785V20.959Z" fill="#6651E6"/>
<path d="M23.4561 14.6958H24.2468L24.2458 17.8951H23.4551L23.4561 14.6958Z" fill="#6651E6"/>
</g>
<defs>
<clipPath id="clip0">
<rect width="23.721" height="23.3843" fill="white" transform="translate(2.89844 3.81055)"/>
</clipPath>
</defs>
</svg>
