<svg width="30" height="30" viewBox="0 0 30 30" fill="none" xmlns="http://www.w3.org/2000/svg">
<mask id="path-1-outside-1" maskUnits="userSpaceOnUse" x="0.0878906" y="0.35498" width="29" height="29" fill="black">
<rect fill="white" x="0.0878906" y="0.35498" width="29" height="29"/>
<path d="M28.4758 13.8089C28.4758 16.3635 28.4493 18.9168 28.4877 21.4727C28.5056 22.6336 27.6984 23.2903 26.7226 23.2187C26.2733 23.1855 25.7672 23.0926 25.3828 23.2552C25.0143 23.4104 24.7722 23.8635 24.4712 24.1839C22.2701 26.5202 19.5754 27.9305 16.4084 28.363C13.5457 28.7551 10.8146 28.2443 8.25228 26.8745C8.03107 26.7573 7.78588 26.6928 7.53578 26.6861C5.98104 26.6684 4.4263 26.6664 2.87156 26.6801C2.55003 26.6801 2.44881 26.5706 2.45013 26.2582C2.46028 24.5887 2.46028 22.9188 2.45013 21.2485C2.44958 20.9962 2.39804 20.7466 2.29863 20.5148C1.39838 18.5342 0.989785 16.3644 1.10777 14.191C1.28746 10.8954 2.6581 7.77825 4.96341 5.42232C7.26873 3.0664 10.3509 1.63299 13.6337 1.39009C16.1239 1.21762 18.4884 1.67865 20.7047 2.81565C21.4656 3.20571 22.153 3.73972 22.888 4.18749C23.0767 4.30802 23.2926 4.37897 23.5158 4.39379C24.6068 4.41436 25.6991 4.40175 26.7907 4.40374C27.8823 4.40573 28.4758 5.01271 28.4758 6.11389C28.4727 8.67889 28.4727 11.2439 28.4758 13.8089ZM19.2995 8.03764V8.04759C16.4992 8.04759 13.6985 8.04759 10.8973 8.04759C10.4666 8.04759 10.4607 8.05754 10.4607 8.49071C10.4607 11.9402 10.4607 15.3897 10.4514 18.8392C10.4514 19.0382 10.6082 19.405 10.2867 19.4116C9.94066 19.4189 10.1153 19.0461 10.114 18.8557C10.0981 17.0089 10.1034 15.1621 10.1054 13.3153C10.1054 13.121 10.1259 12.9319 9.83679 12.9332C8.53544 12.9419 7.23409 12.9279 5.93341 12.9538C5.37833 12.9644 5.00321 13.3823 5.01115 13.8858C5.01975 14.4006 5.42464 14.7807 5.99361 14.796C6.34624 14.8053 6.69953 14.796 7.05215 14.8006C7.77395 14.8112 8.32042 15.326 8.33498 16.0033C8.3502 16.6978 7.78057 17.2776 7.05348 17.2942C6.59037 17.3041 6.12725 17.2942 5.66414 17.2942C4.89537 17.2988 4.43358 17.7638 4.4263 18.5393C4.4263 18.7164 4.4263 18.8929 4.43093 19.07C4.4349 19.5098 4.43424 19.5164 4.87023 19.5178C6.95424 19.5209 9.03803 19.5222 11.1216 19.5218C14.3197 19.5218 17.5174 19.5202 20.7147 19.5171C21.0137 19.5171 21.1255 19.6067 21.1196 19.9151C21.103 20.7669 21.1242 21.6186 21.1083 22.4697C21.103 22.7583 21.1877 22.8498 21.4821 22.8472C23.2247 22.8346 24.9667 22.8419 26.7087 22.8406C27.7328 22.8406 28.1324 22.4425 28.1337 21.4176C28.139 17.1279 28.1423 12.8382 28.1437 8.54843C28.1437 8.03631 28.1437 8.03499 27.6356 8.03432L19.2995 8.03764ZM2.3542 19.6591C2.54738 19.6087 2.7022 19.5423 2.86164 19.5317C3.16928 19.5111 3.47891 19.5164 3.78787 19.5224C3.99958 19.5264 4.08558 19.4355 4.0783 19.2239C4.07037 18.9705 4.075 18.7158 4.0836 18.4617C4.11469 17.5708 4.74519 16.9545 5.63172 16.9439C6.08359 16.9386 6.53612 16.9439 6.98798 16.9373C7.57481 16.9307 7.96978 16.5671 7.96912 16.0411C7.96846 15.5151 7.56158 15.1336 6.99724 15.123C6.61153 15.1157 6.22517 15.1316 5.83946 15.115C5.51591 15.1048 5.2096 14.9664 4.98763 14.7302C4.76566 14.4939 4.64612 14.1791 4.65521 13.8547C4.66183 13.1303 5.20433 12.6042 5.99096 12.5982C7.20366 12.589 8.41636 12.5982 9.62971 12.6029C10.1087 12.6029 10.11 12.6029 10.11 12.1339C10.11 10.1332 10.11 8.13228 10.11 6.13114C10.11 4.97357 10.6869 4.4064 11.846 4.4064C15.2422 4.4064 18.6384 4.4064 22.0345 4.4064H22.4725C19.4954 1.83123 13.0594 0.137664 7.37501 3.89163C1.71775 7.62436 0.243726 14.5784 2.3542 19.6591ZM11.8355 19.8767C8.94695 19.8767 6.058 19.8749 3.16862 19.8713C2.90398 19.8713 2.79879 19.9456 2.80011 20.2243C2.81136 22.0817 2.80805 23.9391 2.81334 25.7965C2.81334 26.3272 2.82062 26.3365 3.36181 26.3371C4.9827 26.3371 6.6036 26.3298 8.22383 26.3305C12.2701 26.3305 16.3162 26.3358 20.362 26.3464C20.6961 26.3464 20.7987 26.239 20.7967 25.9079C20.7841 24.0505 20.7914 22.1931 20.7901 20.3357C20.7901 19.8747 20.7901 19.8747 20.3349 19.8747L11.8355 19.8767ZM19.285 7.68871V7.67611C20.1556 7.67611 21.0261 7.67611 21.8963 7.67611C23.8691 7.67876 25.842 7.68274 27.8149 7.68805C28.0239 7.68805 28.1119 7.60115 28.1073 7.38821C28.096 6.85752 28.1073 6.32683 28.0874 5.79614C28.0789 5.573 27.9984 5.35866 27.8579 5.18533C27.7175 5.01201 27.5248 4.88905 27.3087 4.83493C27.1267 4.79198 26.94 4.77215 26.753 4.77589C22.7173 4.77279 18.6816 4.77279 14.6459 4.77589C13.6535 4.77589 12.6611 4.76859 11.6687 4.77921C10.9714 4.7865 10.5024 5.21039 10.4779 5.85584C10.4587 6.3527 10.4779 6.85088 10.4713 7.3484C10.4713 7.57129 10.5579 7.66284 10.7862 7.66218C11.2711 7.66218 11.7561 7.68805 12.2417 7.68871C14.5894 7.69092 16.9372 7.69092 19.285 7.68871ZM20.4209 26.7033H8.85433C10.763 28.495 18.155 28.5083 20.4209 26.7033ZM21.1143 26.3968C22.5837 25.5457 23.7739 24.5335 24.7477 23.2578C23.586 23.2134 22.452 23.2081 21.3187 23.2266C21.2525 23.2266 21.1321 23.419 21.1301 23.5245C21.1116 24.2867 21.1162 25.0502 21.1143 25.8124V26.3968Z"/>
</mask>
<path d="M28.4758 13.8089C28.4758 16.3635 28.4493 18.9168 28.4877 21.4727C28.5056 22.6336 27.6984 23.2903 26.7226 23.2187C26.2733 23.1855 25.7672 23.0926 25.3828 23.2552C25.0143 23.4104 24.7722 23.8635 24.4712 24.1839C22.2701 26.5202 19.5754 27.9305 16.4084 28.363C13.5457 28.7551 10.8146 28.2443 8.25228 26.8745C8.03107 26.7573 7.78588 26.6928 7.53578 26.6861C5.98104 26.6684 4.4263 26.6664 2.87156 26.6801C2.55003 26.6801 2.44881 26.5706 2.45013 26.2582C2.46028 24.5887 2.46028 22.9188 2.45013 21.2485C2.44958 20.9962 2.39804 20.7466 2.29863 20.5148C1.39838 18.5342 0.989785 16.3644 1.10777 14.191C1.28746 10.8954 2.6581 7.77825 4.96341 5.42232C7.26873 3.0664 10.3509 1.63299 13.6337 1.39009C16.1239 1.21762 18.4884 1.67865 20.7047 2.81565C21.4656 3.20571 22.153 3.73972 22.888 4.18749C23.0767 4.30802 23.2926 4.37897 23.5158 4.39379C24.6068 4.41436 25.6991 4.40175 26.7907 4.40374C27.8823 4.40573 28.4758 5.01271 28.4758 6.11389C28.4727 8.67889 28.4727 11.2439 28.4758 13.8089ZM19.2995 8.03764V8.04759C16.4992 8.04759 13.6985 8.04759 10.8973 8.04759C10.4666 8.04759 10.4607 8.05754 10.4607 8.49071C10.4607 11.9402 10.4607 15.3897 10.4514 18.8392C10.4514 19.0382 10.6082 19.405 10.2867 19.4116C9.94066 19.4189 10.1153 19.0461 10.114 18.8557C10.0981 17.0089 10.1034 15.1621 10.1054 13.3153C10.1054 13.121 10.1259 12.9319 9.83679 12.9332C8.53544 12.9419 7.23409 12.9279 5.93341 12.9538C5.37833 12.9644 5.00321 13.3823 5.01115 13.8858C5.01975 14.4006 5.42464 14.7807 5.99361 14.796C6.34624 14.8053 6.69953 14.796 7.05215 14.8006C7.77395 14.8112 8.32042 15.326 8.33498 16.0033C8.3502 16.6978 7.78057 17.2776 7.05348 17.2942C6.59037 17.3041 6.12725 17.2942 5.66414 17.2942C4.89537 17.2988 4.43358 17.7638 4.4263 18.5393C4.4263 18.7164 4.4263 18.8929 4.43093 19.07C4.4349 19.5098 4.43424 19.5164 4.87023 19.5178C6.95424 19.5209 9.03803 19.5222 11.1216 19.5218C14.3197 19.5218 17.5174 19.5202 20.7147 19.5171C21.0137 19.5171 21.1255 19.6067 21.1196 19.9151C21.103 20.7669 21.1242 21.6186 21.1083 22.4697C21.103 22.7583 21.1877 22.8498 21.4821 22.8472C23.2247 22.8346 24.9667 22.8419 26.7087 22.8406C27.7328 22.8406 28.1324 22.4425 28.1337 21.4176C28.139 17.1279 28.1423 12.8382 28.1437 8.54843C28.1437 8.03631 28.1437 8.03499 27.6356 8.03432L19.2995 8.03764ZM2.3542 19.6591C2.54738 19.6087 2.7022 19.5423 2.86164 19.5317C3.16928 19.5111 3.47891 19.5164 3.78787 19.5224C3.99958 19.5264 4.08558 19.4355 4.0783 19.2239C4.07037 18.9705 4.075 18.7158 4.0836 18.4617C4.11469 17.5708 4.74519 16.9545 5.63172 16.9439C6.08359 16.9386 6.53612 16.9439 6.98798 16.9373C7.57481 16.9307 7.96978 16.5671 7.96912 16.0411C7.96846 15.5151 7.56158 15.1336 6.99724 15.123C6.61153 15.1157 6.22517 15.1316 5.83946 15.115C5.51591 15.1048 5.2096 14.9664 4.98763 14.7302C4.76566 14.4939 4.64612 14.1791 4.65521 13.8547C4.66183 13.1303 5.20433 12.6042 5.99096 12.5982C7.20366 12.589 8.41636 12.5982 9.62971 12.6029C10.1087 12.6029 10.11 12.6029 10.11 12.1339C10.11 10.1332 10.11 8.13228 10.11 6.13114C10.11 4.97357 10.6869 4.4064 11.846 4.4064C15.2422 4.4064 18.6384 4.4064 22.0345 4.4064H22.4725C19.4954 1.83123 13.0594 0.137664 7.37501 3.89163C1.71775 7.62436 0.243726 14.5784 2.3542 19.6591ZM11.8355 19.8767C8.94695 19.8767 6.058 19.8749 3.16862 19.8713C2.90398 19.8713 2.79879 19.9456 2.80011 20.2243C2.81136 22.0817 2.80805 23.9391 2.81334 25.7965C2.81334 26.3272 2.82062 26.3365 3.36181 26.3371C4.9827 26.3371 6.6036 26.3298 8.22383 26.3305C12.2701 26.3305 16.3162 26.3358 20.362 26.3464C20.6961 26.3464 20.7987 26.239 20.7967 25.9079C20.7841 24.0505 20.7914 22.1931 20.7901 20.3357C20.7901 19.8747 20.7901 19.8747 20.3349 19.8747L11.8355 19.8767ZM19.285 7.68871V7.67611C20.1556 7.67611 21.0261 7.67611 21.8963 7.67611C23.8691 7.67876 25.842 7.68274 27.8149 7.68805C28.0239 7.68805 28.1119 7.60115 28.1073 7.38821C28.096 6.85752 28.1073 6.32683 28.0874 5.79614C28.0789 5.573 27.9984 5.35866 27.8579 5.18533C27.7175 5.01201 27.5248 4.88905 27.3087 4.83493C27.1267 4.79198 26.94 4.77215 26.753 4.77589C22.7173 4.77279 18.6816 4.77279 14.6459 4.77589C13.6535 4.77589 12.6611 4.76859 11.6687 4.77921C10.9714 4.7865 10.5024 5.21039 10.4779 5.85584C10.4587 6.3527 10.4779 6.85088 10.4713 7.3484C10.4713 7.57129 10.5579 7.66284 10.7862 7.66218C11.2711 7.66218 11.7561 7.68805 12.2417 7.68871C14.5894 7.69092 16.9372 7.69092 19.285 7.68871ZM20.4209 26.7033H8.85433C10.763 28.495 18.155 28.5083 20.4209 26.7033ZM21.1143 26.3968C22.5837 25.5457 23.7739 24.5335 24.7477 23.2578C23.586 23.2134 22.452 23.2081 21.3187 23.2266C21.2525 23.2266 21.1321 23.419 21.1301 23.5245C21.1116 24.2867 21.1162 25.0502 21.1143 25.8124V26.3968Z" fill="#6651E6"/>
<path d="M28.4758 13.8089C28.4758 16.3635 28.4493 18.9168 28.4877 21.4727C28.5056 22.6336 27.6984 23.2903 26.7226 23.2187C26.2733 23.1855 25.7672 23.0926 25.3828 23.2552C25.0143 23.4104 24.7722 23.8635 24.4712 24.1839C22.2701 26.5202 19.5754 27.9305 16.4084 28.363C13.5457 28.7551 10.8146 28.2443 8.25228 26.8745C8.03107 26.7573 7.78588 26.6928 7.53578 26.6861C5.98104 26.6684 4.4263 26.6664 2.87156 26.6801C2.55003 26.6801 2.44881 26.5706 2.45013 26.2582C2.46028 24.5887 2.46028 22.9188 2.45013 21.2485C2.44958 20.9962 2.39804 20.7466 2.29863 20.5148C1.39838 18.5342 0.989785 16.3644 1.10777 14.191C1.28746 10.8954 2.6581 7.77825 4.96341 5.42232C7.26873 3.0664 10.3509 1.63299 13.6337 1.39009C16.1239 1.21762 18.4884 1.67865 20.7047 2.81565C21.4656 3.20571 22.153 3.73972 22.888 4.18749C23.0767 4.30802 23.2926 4.37897 23.5158 4.39379C24.6068 4.41436 25.6991 4.40175 26.7907 4.40374C27.8823 4.40573 28.4758 5.01271 28.4758 6.11389C28.4727 8.67889 28.4727 11.2439 28.4758 13.8089ZM19.2995 8.03764V8.04759C16.4992 8.04759 13.6985 8.04759 10.8973 8.04759C10.4666 8.04759 10.4607 8.05754 10.4607 8.49071C10.4607 11.9402 10.4607 15.3897 10.4514 18.8392C10.4514 19.0382 10.6082 19.405 10.2867 19.4116C9.94066 19.4189 10.1153 19.0461 10.114 18.8557C10.0981 17.0089 10.1034 15.1621 10.1054 13.3153C10.1054 13.121 10.1259 12.9319 9.83679 12.9332C8.53544 12.9419 7.23409 12.9279 5.93341 12.9538C5.37833 12.9644 5.00321 13.3823 5.01115 13.8858C5.01975 14.4006 5.42464 14.7807 5.99361 14.796C6.34624 14.8053 6.69953 14.796 7.05215 14.8006C7.77395 14.8112 8.32042 15.326 8.33498 16.0033C8.3502 16.6978 7.78057 17.2776 7.05348 17.2942C6.59037 17.3041 6.12725 17.2942 5.66414 17.2942C4.89537 17.2988 4.43358 17.7638 4.4263 18.5393C4.4263 18.7164 4.4263 18.8929 4.43093 19.07C4.4349 19.5098 4.43424 19.5164 4.87023 19.5178C6.95424 19.5209 9.03803 19.5222 11.1216 19.5218C14.3197 19.5218 17.5174 19.5202 20.7147 19.5171C21.0137 19.5171 21.1255 19.6067 21.1196 19.9151C21.103 20.7669 21.1242 21.6186 21.1083 22.4697C21.103 22.7583 21.1877 22.8498 21.4821 22.8472C23.2247 22.8346 24.9667 22.8419 26.7087 22.8406C27.7328 22.8406 28.1324 22.4425 28.1337 21.4176C28.139 17.1279 28.1423 12.8382 28.1437 8.54843C28.1437 8.03631 28.1437 8.03499 27.6356 8.03432L19.2995 8.03764ZM2.3542 19.6591C2.54738 19.6087 2.7022 19.5423 2.86164 19.5317C3.16928 19.5111 3.47891 19.5164 3.78787 19.5224C3.99958 19.5264 4.08558 19.4355 4.0783 19.2239C4.07037 18.9705 4.075 18.7158 4.0836 18.4617C4.11469 17.5708 4.74519 16.9545 5.63172 16.9439C6.08359 16.9386 6.53612 16.9439 6.98798 16.9373C7.57481 16.9307 7.96978 16.5671 7.96912 16.0411C7.96846 15.5151 7.56158 15.1336 6.99724 15.123C6.61153 15.1157 6.22517 15.1316 5.83946 15.115C5.51591 15.1048 5.2096 14.9664 4.98763 14.7302C4.76566 14.4939 4.64612 14.1791 4.65521 13.8547C4.66183 13.1303 5.20433 12.6042 5.99096 12.5982C7.20366 12.589 8.41636 12.5982 9.62971 12.6029C10.1087 12.6029 10.11 12.6029 10.11 12.1339C10.11 10.1332 10.11 8.13228 10.11 6.13114C10.11 4.97357 10.6869 4.4064 11.846 4.4064C15.2422 4.4064 18.6384 4.4064 22.0345 4.4064H22.4725C19.4954 1.83123 13.0594 0.137664 7.37501 3.89163C1.71775 7.62436 0.243726 14.5784 2.3542 19.6591ZM11.8355 19.8767C8.94695 19.8767 6.058 19.8749 3.16862 19.8713C2.90398 19.8713 2.79879 19.9456 2.80011 20.2243C2.81136 22.0817 2.80805 23.9391 2.81334 25.7965C2.81334 26.3272 2.82062 26.3365 3.36181 26.3371C4.9827 26.3371 6.6036 26.3298 8.22383 26.3305C12.2701 26.3305 16.3162 26.3358 20.362 26.3464C20.6961 26.3464 20.7987 26.239 20.7967 25.9079C20.7841 24.0505 20.7914 22.1931 20.7901 20.3357C20.7901 19.8747 20.7901 19.8747 20.3349 19.8747L11.8355 19.8767ZM19.285 7.68871V7.67611C20.1556 7.67611 21.0261 7.67611 21.8963 7.67611C23.8691 7.67876 25.842 7.68274 27.8149 7.68805C28.0239 7.68805 28.1119 7.60115 28.1073 7.38821C28.096 6.85752 28.1073 6.32683 28.0874 5.79614C28.0789 5.573 27.9984 5.35866 27.8579 5.18533C27.7175 5.01201 27.5248 4.88905 27.3087 4.83493C27.1267 4.79198 26.94 4.77215 26.753 4.77589C22.7173 4.77279 18.6816 4.77279 14.6459 4.77589C13.6535 4.77589 12.6611 4.76859 11.6687 4.77921C10.9714 4.7865 10.5024 5.21039 10.4779 5.85584C10.4587 6.3527 10.4779 6.85088 10.4713 7.3484C10.4713 7.57129 10.5579 7.66284 10.7862 7.66218C11.2711 7.66218 11.7561 7.68805 12.2417 7.68871C14.5894 7.69092 16.9372 7.69092 19.285 7.68871ZM20.4209 26.7033H8.85433C10.763 28.495 18.155 28.5083 20.4209 26.7033ZM21.1143 26.3968C22.5837 25.5457 23.7739 24.5335 24.7477 23.2578C23.586 23.2134 22.452 23.2081 21.3187 23.2266C21.2525 23.2266 21.1321 23.419 21.1301 23.5245C21.1116 24.2867 21.1162 25.0502 21.1143 25.8124V26.3968Z" stroke="#6651E6" stroke-width="0.4" mask="url(#path-1-outside-1)"/>
<path d="M0.412227 9.06157C0.380553 9.13834 0.38942 9.22115 0.399905 9.2838C0.40387 9.30749 0.408886 9.33232 0.41349 9.35511C0.415153 9.36334 0.416763 9.3713 0.418249 9.37885C0.424193 9.40903 0.428783 9.43536 0.430937 9.45939L0.445585 9.62278L0.584107 9.5349C0.687529 9.46929 0.783998 9.39328 0.872019 9.30803L0.879504 9.30078L0.885334 9.29215C0.944956 9.20382 0.991635 9.1074 1.02396 9.00583C1.71284 7.41175 2.67989 5.95371 3.87963 4.70028L3.88025 4.69963C4.84314 3.67534 5.94613 2.79325 7.15622 2.07975L7.1563 2.07989L7.161 2.07674C7.27778 1.99868 7.3892 1.91283 7.4945 1.81979L7.54053 1.77912L7.52506 1.71967C7.52006 1.70043 7.51515 1.68201 7.51031 1.6638C7.50308 1.63661 7.49598 1.60991 7.48884 1.58169L7.46833 1.50054L7.38483 1.50646C7.36016 1.5082 7.33232 1.50775 7.30005 1.50651C7.2922 1.50621 7.28394 1.50585 7.2754 1.50548C7.25086 1.50441 7.2241 1.50325 7.19874 1.50306C7.13383 1.50256 7.04464 1.50681 6.97358 1.55707L6.97343 1.55718C6.74247 1.72118 6.50788 1.88292 6.27256 2.04515C5.59913 2.50945 4.91979 2.97782 4.30277 3.51489L4.30273 3.51493C2.55698 5.0361 1.28544 6.91751 0.412227 9.06157ZM0.412227 9.06157C0.412263 9.06148 0.412299 9.06139 0.412335 9.06131L0.504735 9.09955M0.412227 9.06157C0.412192 9.06165 0.412156 9.06174 0.41212 9.06183L0.504735 9.09955M0.504735 9.09955C1.37274 6.96816 2.63572 5.10013 4.36843 3.59032C4.98082 3.05728 5.65334 2.5936 6.32542 2.13022C6.56165 1.96735 6.79783 1.80451 7.03133 1.63871C7.08955 1.59753 7.1795 1.60142 7.26944 1.60532C7.31133 1.60713 7.35322 1.60895 7.3919 1.60621L3.80739 4.63114C2.59825 5.89439 1.62386 7.36404 0.930137 8.97085C0.900655 9.06505 0.857641 9.15444 0.802451 9.2362C0.746176 9.2907 0.686247 9.3412 0.623102 9.38736C0.626 9.40507 0.628502 9.42328 0.630138 9.44153L0.530538 9.45046L0.476968 9.36602C0.489076 9.35834 0.501076 9.3505 0.512966 9.3425C0.512376 9.33957 0.511783 9.33663 0.51119 9.3337C0.49422 9.24971 0.477283 9.16588 0.504735 9.09955Z" fill="#6651E6" stroke="#6651E6" stroke-width="0.2"/>
<path d="M26.8234 24.172L26.7519 24.282C26.7198 24.3314 26.6922 24.3761 26.6671 24.4167C26.6235 24.487 26.5874 24.5453 26.5485 24.5954L26.5473 24.5969L26.5473 24.5969C25.4197 25.991 24.0602 27.1792 22.5288 28.1088L22.5282 28.1091L22.5282 28.1091C22.5226 28.1125 22.516 28.117 22.5066 28.1237C22.5054 28.1246 22.504 28.1256 22.5026 28.1266C22.4947 28.1322 22.4848 28.1394 22.4749 28.1458C22.4532 28.1601 22.4148 28.1831 22.3668 28.1855L22.3615 28.1858L22.3615 28.1857C22.2667 28.1854 22.1721 28.1796 22.078 28.1684L21.9555 28.1537L21.9952 28.0369C22.0013 28.0189 22.0066 27.9976 22.0124 27.9717C22.0136 27.9661 22.0149 27.9603 22.0163 27.9542C22.0208 27.9339 22.0258 27.9112 22.0313 27.89C22.0443 27.8405 22.0681 27.7622 22.1323 27.7156L26.8234 24.172ZM26.8234 24.172L26.6984 24.1323C26.6608 24.1203 26.6292 24.1068 26.596 24.0926C26.578 24.0849 26.5596 24.077 26.5394 24.0691C26.514 24.059 26.4846 24.0485 26.455 24.0433C26.4255 24.0381 26.3856 24.0361 26.3456 24.0542M26.8234 24.172L26.0752 24.3091C26.0787 24.3047 26.0823 24.3001 26.086 24.2954C26.1154 24.2578 26.1499 24.2136 26.1875 24.1738C26.2299 24.1289 26.2822 24.0828 26.3456 24.0542M26.3456 24.0542C26.3456 24.0542 26.3455 24.0543 26.3455 24.0543L26.3869 24.1453L26.3457 24.0542C26.3457 24.0542 26.3457 24.0542 26.3456 24.0542Z" fill="#6651E6" stroke="#6651E6" stroke-width="0.2"/>
<path d="M20.6587 0.765425L20.6067 0.746444L20.563 0.780519C20.5561 0.785919 20.5461 0.792392 20.5307 0.801817C20.5284 0.803191 20.526 0.80464 20.5236 0.806154C20.5108 0.8139 20.4953 0.823353 20.4809 0.83315C20.4523 0.852518 20.3939 0.894187 20.3786 0.964029C20.3646 1.02782 20.3904 1.08895 20.4101 1.12633C20.4323 1.16849 20.4618 1.2078 20.4866 1.23706L20.4925 1.244L20.4995 1.24976C20.5502 1.29138 20.6083 1.32295 20.6707 1.34281C21.8391 1.89941 22.9456 2.54996 23.9421 3.37569C23.998 3.43396 24.0675 3.47754 24.1444 3.50247L24.1541 3.50563L24.1643 3.50675C24.2615 3.51744 24.359 3.48941 24.4357 3.42875L24.4359 3.42894L24.441 3.42428C24.4721 3.39598 24.4823 3.3589 24.4864 3.33746C24.491 3.31284 24.4914 3.28737 24.4898 3.26462C24.4867 3.22095 24.475 3.16852 24.4526 3.12803L24.4528 3.1279L24.4488 3.12172C24.4003 3.04767 24.3383 2.98341 24.2662 2.93229C23.2433 2.09674 22.1155 1.39947 20.9116 0.858382L20.9116 0.858375L20.9105 0.857898C20.8612 0.836449 20.8076 0.8178 20.7491 0.797408C20.7202 0.787352 20.6901 0.776873 20.6587 0.765425Z" fill="#6651E6" stroke="#6651E6" stroke-width="0.2"/>
<path d="M7.33351 28.043C7.28884 28.0842 7.24401 28.1228 7.1973 28.1249C6.93246 28.1344 6.66685 28.1333 6.40135 28.1322C6.316 28.1319 6.23067 28.1315 6.14538 28.1315C6.05262 28.1315 5.95982 28.1323 5.86702 28.133C5.6196 28.135 5.37221 28.137 5.12586 28.1249C5.07804 28.1249 5.03183 28.0855 4.98587 28.0438C4.98002 28.0486 4.97403 28.0533 4.96795 28.0578L7.33351 28.043ZM5.12296 28.2249C5.37172 28.237 5.62274 28.235 5.87047 28.233C5.96266 28.2323 6.05439 28.2315 6.14538 28.2315C6.22974 28.2315 6.31447 28.2319 6.39946 28.2322C6.66543 28.2333 6.93386 28.2344 7.2009 28.2248L7.20182 28.2248C7.27606 28.2214 7.3349 28.1747 7.36998 28.1446C7.38449 28.1321 7.39949 28.1183 7.41275 28.106C7.41708 28.102 7.42122 28.0981 7.4251 28.0946C7.44228 28.0788 7.45642 28.0665 7.46935 28.057L7.57841 27.9773L7.47032 27.8963C7.45749 27.8867 7.44329 27.8739 7.42588 27.8575C7.42206 27.8539 7.41801 27.85 7.41377 27.846C7.40026 27.8331 7.38495 27.8185 7.37011 27.8054C7.33584 27.7752 7.27434 27.7244 7.19665 27.7244V27.8244L7.19837 27.7244C6.50652 27.7124 5.81467 27.7124 5.12282 27.7244L5.12272 27.7244C5.04616 27.7258 4.9852 27.7756 4.95033 27.806C4.93546 27.819 4.9201 27.8335 4.90646 27.8464C4.90209 27.8505 4.8979 27.8544 4.89396 27.8581C4.87632 27.8746 4.86174 27.8875 4.84845 27.8974L4.73809 27.9797L4.8504 28.0592C4.8633 28.0684 4.87756 28.0806 4.89511 28.0964C4.89911 28.1 4.9034 28.1039 4.90789 28.108C4.9214 28.1204 4.93674 28.1343 4.95154 28.1468C4.9868 28.1766 5.04712 28.2237 5.12296 28.2249Z" fill="#6651E6" stroke="#6651E6" stroke-width="0.2"/>
<path d="M8.18228 1.3762L8.18676 1.4761C8.22398 1.47443 8.26097 1.4694 8.29728 1.46106L8.3055 1.45917L8.31328 1.45594C8.38818 1.42481 8.46319 1.39371 8.53826 1.36259C8.91992 1.20436 9.30312 1.04549 9.68114 0.878762L8.18228 1.3762ZM8.18228 1.3762L8.12068 1.45497C8.1177 1.45264 8.11099 1.44823 8.09694 1.43962C8.09531 1.43862 8.0936 1.43757 8.09182 1.43648C8.08049 1.42956 8.06627 1.42087 8.05295 1.41191C8.03805 1.40188 8.01886 1.38801 8.00258 1.3711C7.98945 1.35745 7.96009 1.32359 7.96055 1.274C7.96055 1.27423 7.96055 1.27447 7.96055 1.2747L8.18228 1.3762Z" fill="#6651E6" stroke="#6651E6" stroke-width="0.2"/>
<path d="M4.06867 27.958C4.05124 27.8723 4.01551 27.8038 3.95736 27.7575C3.89998 27.7118 3.83357 27.6981 3.77531 27.6958C3.71818 27.6935 3.6593 27.7021 3.6112 27.7093C3.60832 27.7097 3.60549 27.7102 3.60269 27.7106C3.55456 27.7178 3.51759 27.7234 3.48573 27.7234L3.48529 27.7234C3.39121 27.7238 3.30196 27.752 3.22364 27.782C3.1887 27.7954 3.15779 27.8083 3.12843 27.8206C3.08543 27.8385 3.04574 27.8551 3.0015 27.8699L2.78716 27.9415L2.98433 28.0519L3.43554 28.3047L3.48075 28.33L3.52751 28.3077C3.58986 28.2779 3.66101 28.2479 3.73141 28.2181C3.76977 28.2019 3.80791 28.1858 3.84429 28.1699C3.89349 28.1484 3.94055 28.1267 3.97553 28.1067C3.9924 28.097 4.01166 28.0849 4.02754 28.0704C4.0354 28.0633 4.04656 28.0519 4.05555 28.0362C4.06467 28.0203 4.07565 27.9923 4.06867 27.958ZM4.06867 27.958L3.97068 27.978L4.06862 27.9578C4.06864 27.9579 4.06866 27.958 4.06867 27.958Z" fill="#6651E6" stroke="#6651E6" stroke-width="0.2"/>
<path d="M14.9645 14.2915L14.9645 14.2915C14.9699 11.9681 16.9395 9.99584 19.2519 10.0006L19.2519 10.0006C21.6872 10.006 23.5997 11.9225 23.5938 14.3533L14.9645 14.2915ZM14.9645 14.2915C14.9597 16.684 16.9054 18.659 19.2772 18.6591M14.9645 14.2915L23.5938 14.3537C23.5941 14.9209 23.4826 15.4827 23.2655 16.0066C23.0485 16.5306 22.7302 17.0064 22.329 17.4066C21.9277 17.8069 21.4515 18.1236 20.9277 18.3385C20.404 18.5534 19.8431 18.6624 19.2772 18.6591M19.2772 18.6591C19.2773 18.6591 19.2774 18.6591 19.2775 18.6591V18.5591L19.2769 18.6591C19.277 18.6591 19.2771 18.6591 19.2772 18.6591ZM19.3436 10.5535L19.3444 10.5535C21.3798 10.5658 23.0857 12.3038 23.0703 14.3546C23.0515 16.4267 21.3164 18.121 19.2254 18.1029C17.1951 18.0855 15.5083 16.3625 15.5257 14.3204L15.5257 14.3199C15.5271 13.8204 15.6273 13.3261 15.8204 12.8657C16.0136 12.4053 16.2959 11.9879 16.6509 11.6377C17.006 11.2874 17.4268 11.0113 17.889 10.8252C18.3512 10.6391 18.8456 10.5467 19.3436 10.5535Z" fill="#6651E6" stroke="#6651E6" stroke-width="0.2"/>
<path d="M8.9563 10.7394C8.97094 10.4888 8.96854 10.2356 8.96616 9.98614C8.96528 9.89371 8.96441 9.80178 8.96441 9.71069C8.96441 9.61688 8.96528 9.52218 8.96616 9.42691C8.96853 9.16972 8.97094 8.90843 8.95631 8.64963L8.95631 8.64963C8.95191 8.57188 8.90986 8.50605 8.87643 8.45962C8.86335 8.44146 8.84894 8.42284 8.83586 8.40595C8.83153 8.40036 8.82736 8.39496 8.82342 8.38983C8.80655 8.36784 8.79256 8.3488 8.78151 8.33085L8.70385 8.20478L8.61591 8.32391C8.60404 8.33999 8.58854 8.35741 8.56928 8.378C8.56478 8.38281 8.55997 8.3879 8.55497 8.39319C8.54012 8.40892 8.52363 8.42638 8.50881 8.44332C8.47307 8.48415 8.4184 8.55192 8.4184 8.63604H8.5184L8.41842 8.63404C8.40428 9.33898 8.40428 10.0441 8.41842 10.7495L8.41842 10.7498C8.42031 10.8319 8.47246 10.8986 8.50797 10.9403C8.52255 10.9574 8.53873 10.975 8.55334 10.9909C8.55819 10.9962 8.56287 11.0012 8.56725 11.0061C8.58614 11.0268 8.60151 11.0445 8.61341 11.0609L8.69982 11.1802L8.77879 11.0559C8.79015 11.038 8.80443 11.0191 8.82156 10.9973C8.82544 10.9924 8.82954 10.9872 8.83378 10.9818C8.84715 10.965 8.8619 10.9464 8.87528 10.9282C8.90898 10.8825 8.9518 10.8171 8.9563 10.7394ZM8.9563 10.7394L8.85647 10.7336M8.9563 10.7394C8.9563 10.7394 8.9563 10.7394 8.9563 10.7393L8.85647 10.7336M8.85647 10.7336C8.85283 10.7969 8.8046 10.8577 8.75631 10.9186C8.75628 10.9186 8.75625 10.9187 8.75622 10.9187M8.85647 10.7336C8.8709 10.4866 8.86854 10.2386 8.86618 9.99025C8.8653 9.89709 8.86441 9.80389 8.86441 9.71069C8.86441 9.61485 8.86529 9.51891 8.86618 9.42294C8.86854 9.16685 8.8709 8.91054 8.85647 8.65528C8.85284 8.59126 8.80521 8.52973 8.75769 8.46834C8.75752 8.46812 8.75735 8.4679 8.75718 8.46768L8.75622 10.9187M8.75622 10.9187C8.76279 10.9268 8.76923 10.9351 8.77536 10.9436L8.69438 11.0023L8.60998 10.9486C8.61545 10.94 8.62117 10.9315 8.62701 10.9233L8.75622 10.9187Z" fill="#6651E6" stroke="#6651E6" stroke-width="0.2"/>
<path d="M8.42402 6.39275L8.42374 6.3927L8.42294 6.40027C8.4063 6.55703 8.40338 6.71494 8.41422 6.87219C8.40376 7.03999 8.40664 7.20836 8.42284 7.3757L8.42259 7.37573L8.42378 7.38276C8.43627 7.4565 8.49192 7.50854 8.52605 7.5383C8.54059 7.55097 8.55661 7.5639 8.57078 7.57534C8.57521 7.57892 8.57946 7.58235 8.58343 7.58558C8.60152 7.60032 8.61587 7.61257 8.62718 7.62403L8.70052 7.69836L8.77161 7.62187C8.78061 7.61219 8.79302 7.60115 8.80982 7.58709C8.81376 7.58379 8.8181 7.5802 8.82268 7.57641C8.83555 7.56576 8.85029 7.55357 8.86334 7.54193C8.88128 7.52593 8.9023 7.50559 8.91922 7.4818C8.93568 7.45866 8.95364 7.42472 8.95446 7.38235C8.97041 7.052 8.97038 6.71772 8.95438 6.38349L8.95438 6.38349L8.95435 6.38297C8.95214 6.34131 8.9342 6.30778 8.91746 6.28426C8.90059 6.26058 8.87989 6.24007 8.86181 6.22355C8.84829 6.2112 8.83323 6.19845 8.82 6.18725C8.81575 6.18365 8.81168 6.1802 8.80792 6.17698C8.79092 6.16246 8.77797 6.1508 8.76825 6.14036L8.69229 6.05876L8.6194 6.1431C8.60317 6.16187 8.5868 6.17647 8.5665 6.19457C8.55365 6.20604 8.53921 6.21892 8.52224 6.23515C8.48795 6.26793 8.43729 6.32053 8.42402 6.39275Z" fill="#6651E6" stroke="#6651E6" stroke-width="0.2"/>
<path d="M14.7092 24.7077L14.7106 24.6077C13.9559 24.5974 13.201 24.5983 12.4474 24.5993C12.2322 24.5995 12.0171 24.5998 11.8022 24.5998H11.6023L11.6043 24.6024C11.4533 24.6023 11.3023 24.6021 11.1514 24.6019C10.3888 24.601 9.62566 24.6001 8.86271 24.6104L8.86229 24.6104C8.77601 24.6119 8.69961 24.6545 8.6423 24.6912C8.62027 24.7053 8.59771 24.7208 8.57689 24.7351C8.56981 24.74 8.56292 24.7447 8.55633 24.7492C8.52898 24.7679 8.50467 24.7838 8.48157 24.7963L8.31744 24.8855L8.48263 24.9726C8.50602 24.985 8.53069 25.0008 8.55847 25.0194C8.56542 25.024 8.5727 25.029 8.58021 25.0341C8.60112 25.0482 8.62378 25.0636 8.64581 25.0774C8.70397 25.1141 8.78177 25.1567 8.86935 25.1567V25.0567M14.7092 24.7077V24.6077C14.7949 24.6077 14.8706 24.649 14.9271 24.6843C14.9482 24.6975 14.9699 24.7121 14.9901 24.7256C14.9977 24.7307 15.005 24.7356 15.012 24.7403C15.0391 24.7583 15.0632 24.7735 15.0863 24.7856L15.2424 24.8671L15.0924 24.9594C15.0696 24.9734 15.0458 24.9907 15.019 25.0107C15.0141 25.0144 15.0091 25.0182 15.0039 25.0221C14.9822 25.0384 14.9585 25.0562 14.9351 25.0724C14.8798 25.1105 14.8039 25.1561 14.7171 25.1567L14.7171 25.1567C12.7676 25.1682 10.8182 25.1682 8.86876 25.1567L8.86935 25.0567M14.7092 24.7077C14.7841 24.7077 14.8581 24.7575 14.9329 24.8077C14.9373 24.8106 14.9416 24.8136 14.946 24.8165C14.9596 24.807 14.9735 24.7978 14.9876 24.7891L15.04 24.8742L14.9937 24.9629C14.9786 24.955 14.9639 24.9465 14.9496 24.9378C14.9474 24.9394 14.9452 24.941 14.9431 24.9427C14.8676 24.9994 14.792 25.0562 14.7165 25.0567C12.7674 25.0682 10.8184 25.0682 8.86935 25.0567M14.7092 24.7077C13.9553 24.6974 13.2015 24.6983 12.4479 24.6993C12.2743 24.6995 12.1007 24.6997 11.9271 24.6998L11.8842 24.6425L11.8822 24.6398L8.625 24.9436C8.62921 24.9465 8.63342 24.9493 8.63763 24.9522C8.7147 25.0044 8.79187 25.0567 8.86935 25.0567" fill="#6651E6" stroke="#6651E6" stroke-width="0.2"/>
<path d="M7.31935 22.7653L7.31935 22.7653L8.64867 22.3361L8.65197 22.2362C8.65154 22.2362 8.6511 22.2362 8.65067 22.2362C8.20697 22.2215 7.76392 22.2215 7.32218 22.2362L7.32218 22.2362L7.32171 22.2362C7.27962 22.2378 7.24469 22.2545 7.21891 22.2713C7.19308 22.2882 7.17038 22.3092 7.15172 22.3281C7.13727 22.3426 7.12256 22.3588 7.1096 22.373C7.10596 22.3769 7.10246 22.3808 7.09913 22.3844C7.08271 22.4022 7.06937 22.4161 7.05731 22.4266L6.96871 22.5039L7.05922 22.579C7.07199 22.5895 7.08578 22.6031 7.10235 22.6202C7.10607 22.624 7.11003 22.6281 7.11416 22.6324C7.12695 22.6457 7.14135 22.6607 7.15537 22.6742C7.18901 22.7067 7.24542 22.7572 7.31935 22.7653ZM7.80272 22.6755C7.64498 22.6785 7.48705 22.6815 7.33013 22.6658L8.7854 22.4279C8.78737 22.4261 8.78935 22.4244 8.79134 22.4226L8.85708 22.498L8.79361 22.5753C8.79126 22.5734 8.78893 22.5714 8.78661 22.5694C8.74337 22.6154 8.69925 22.6594 8.65264 22.6645C8.49415 22.6808 8.33427 22.678 8.17451 22.6753C8.11353 22.6742 8.05257 22.6731 7.99172 22.6731C7.9288 22.6731 7.86577 22.6743 7.80272 22.6755Z" fill="#6651E6" stroke="#6651E6" stroke-width="0.2"/>
<path d="M11.7905 22.7777L11.8187 22.7766L11.8188 22.7766C11.8668 22.7768 11.9159 22.7777 11.9657 22.7786C12.1261 22.7814 12.2936 22.7844 12.4562 22.768L12.4562 22.768L12.4571 22.7679C12.496 22.7636 12.5282 22.7467 12.552 22.7305C12.5761 22.7141 12.5978 22.6941 12.616 22.676C12.6298 22.6622 12.644 22.647 12.6566 22.6335C12.6605 22.6293 12.6642 22.6253 12.6678 22.6216C12.6841 22.6043 12.6978 22.5903 12.7103 22.5794L12.7962 22.5044L12.7108 22.429C12.6989 22.4186 12.6857 22.4046 12.6695 22.3864C12.6657 22.3822 12.6616 22.3776 12.6574 22.3729C12.645 22.3589 12.6311 22.3432 12.6177 22.3291C12.5995 22.3101 12.5771 22.2885 12.5517 22.2713C12.5266 22.2543 12.4904 22.2362 12.4461 22.2362V22.3362L12.4497 22.2362C12.0085 22.2202 11.5672 22.2202 11.1259 22.2362L11.1258 22.2362C11.0838 22.2378 11.0488 22.2542 11.0226 22.2711C10.9965 22.2879 10.9736 22.309 10.9548 22.3279C10.94 22.3427 10.9251 22.3591 10.9119 22.3735C10.9085 22.3773 10.9051 22.3809 10.9019 22.3844C10.8855 22.4023 10.8721 22.4161 10.86 22.4266L10.7738 22.5019L10.8599 22.5773C10.8725 22.5882 10.886 22.6022 10.9022 22.6199C10.9057 22.6236 10.9093 22.6276 10.9131 22.6318C10.9258 22.6457 10.9402 22.6614 10.9542 22.6756C10.9868 22.7087 11.0433 22.7618 11.1189 22.7693L11.1189 22.7694L11.1225 22.7696C11.3449 22.7838 11.5678 22.7865 11.7905 22.7777Z" fill="#6651E6" stroke="#6651E6" stroke-width="0.2"/>
<path d="M14.9172 22.7646L14.9173 22.7645C14.8771 22.76 14.8442 22.7419 14.8204 22.7248C14.7962 22.7075 14.7747 22.6864 14.7566 22.6671C14.7411 22.6506 14.7257 22.6327 14.7121 22.6169C14.7099 22.6143 14.7077 22.6117 14.7056 22.6093C14.6896 22.5907 14.6764 22.5758 14.6643 22.564L14.5876 22.4887L14.6683 22.4176C14.6784 22.4086 14.69 22.3964 14.7045 22.38C14.708 22.3761 14.7117 22.3718 14.7157 22.3673C14.7267 22.3548 14.7392 22.3405 14.7512 22.3279C14.7677 22.3104 14.7884 22.2901 14.8123 22.2738C14.8359 22.2577 14.8698 22.2405 14.9115 22.2394M14.9172 22.7646L14.9122 22.2394C14.9119 22.2394 14.9117 22.2394 14.9115 22.2394M14.9172 22.7646L14.9219 22.7649C15.1096 22.7768 15.2978 22.7806 15.4858 22.7762L14.9172 22.7646ZM14.9115 22.2394C15.362 22.2248 15.8143 22.2227 16.2656 22.2394M14.9115 22.2394C14.9114 22.2394 14.9112 22.2394 14.9111 22.2394L16.2656 22.2394M16.2656 22.2394C16.2661 22.2394 16.2665 22.2394 16.267 22.2394L16.2633 22.3393L16.2656 22.2394ZM16.3833 22.5814C16.3381 22.6246 16.2927 22.6659 16.2435 22.671C16.0881 22.6862 15.9306 22.6834 15.7731 22.6806C15.7107 22.6794 15.6483 22.6783 15.5861 22.6783L16.3833 22.5814Z" fill="#6651E6" stroke="#6651E6" stroke-width="0.2"/>
<path d="M6.19557 21.5765L6.19558 21.5763C6.122 21.5669 6.06763 21.5161 6.03527 21.4832C6.02181 21.4695 6.00803 21.4544 5.99586 21.4411C5.99202 21.4369 5.98835 21.4329 5.98489 21.4291C5.96921 21.4121 5.95618 21.3986 5.94403 21.388L5.85104 21.3069L5.94966 21.2327C5.96686 21.2198 5.98039 21.2063 5.99781 21.1889C6.00866 21.178 6.02102 21.1657 6.03673 21.151C6.06656 21.1232 6.12123 21.0746 6.19358 21.0702L6.19395 21.0702L6.19395 21.0702C6.57875 21.0482 6.96656 21.0355 7.3539 21.0468C7.35429 21.0468 7.35468 21.0468 7.35507 21.0468L7.35213 21.1468L6.19557 21.5765ZM6.19557 21.5765L6.20041 21.5768C6.36031 21.5894 6.52075 21.5933 6.68103 21.5886L6.19557 21.5765Z" fill="#6651E6" stroke="#6651E6" stroke-width="0.2"/>
<path d="M13.3566 21.3323L13.4368 21.2557C13.4465 21.2463 13.4575 21.2337 13.4714 21.217C13.4745 21.2134 13.4777 21.2094 13.4812 21.2052C13.4919 21.1922 13.5042 21.1773 13.516 21.1639C13.5318 21.1462 13.5517 21.1255 13.5748 21.1087C13.5976 21.0922 13.6313 21.0736 13.6738 21.0721L13.674 21.0721C14.0828 21.0588 14.4915 21.0588 14.8999 21.0721C14.9003 21.0721 14.9007 21.0721 14.9011 21.0721L14.8978 21.1721C14.9342 21.1721 14.969 21.2117 15.0036 21.2552L13.3566 21.3323ZM13.3566 21.3323L13.4411 21.4041C13.4518 21.4133 13.4636 21.4251 13.4782 21.4406C13.4814 21.444 13.4847 21.4476 13.4883 21.4514C13.4996 21.4636 13.5127 21.4776 13.5254 21.4902C13.5552 21.5197 13.6082 21.5689 13.6798 21.576C13.8304 21.5911 13.9836 21.5886 14.1298 21.5862C14.1827 21.5854 14.2346 21.5845 14.2852 21.5845C14.3351 21.5845 14.3866 21.5854 14.439 21.5863C14.5853 21.5888 14.7391 21.5915 14.8881 21.5753L13.3566 21.3323Z" fill="#6651E6" stroke="#6651E6" stroke-width="0.2"/>
<path d="M16.2514 21.5785C16.4371 21.5939 16.6236 21.5968 16.8096 21.5873L16.8113 21.5874C17.0009 21.5963 17.1909 21.5941 17.3802 21.5806L17.3802 21.5807L17.3849 21.5802C17.4549 21.5718 17.5108 21.5304 17.5482 21.4995C17.5634 21.4871 17.5788 21.4734 17.5925 21.4612C17.5966 21.4575 17.6005 21.454 17.6043 21.4508C17.6218 21.4353 17.6366 21.4228 17.6505 21.4128L17.7568 21.3363L17.655 21.2539C17.6429 21.2441 17.6294 21.2308 17.6127 21.2135C17.6088 21.2096 17.6047 21.2052 17.6004 21.2007C17.5876 21.1873 17.5731 21.1721 17.5591 21.1586C17.5401 21.1402 17.5168 21.1195 17.4902 21.1031C17.4636 21.0867 17.4277 21.0711 17.385 21.0711V21.1711L17.3893 21.0712C17.0043 21.0547 16.6193 21.0534 16.2342 21.0672L16.2342 21.0672L16.2334 21.0672C16.159 21.0705 16.0997 21.1172 16.0642 21.1474C16.0497 21.1596 16.0347 21.1733 16.0214 21.1855C16.0168 21.1897 16.0123 21.1938 16.0082 21.1975C15.9908 21.2133 15.9764 21.2256 15.9632 21.2351L15.8505 21.3159L15.9628 21.3973C15.9785 21.4087 15.9949 21.4226 16.014 21.4393C16.0179 21.4427 16.0219 21.4463 16.0261 21.45C16.0412 21.4634 16.0581 21.4782 16.0747 21.4919C16.1155 21.5253 16.1738 21.5678 16.2458 21.5779L16.2458 21.5781L16.2514 21.5785Z" fill="#6651E6" stroke="#6651E6" stroke-width="0.2"/>
<path d="M8.69751 21.5771L8.6975 21.5772L8.70113 21.5774C8.89001 21.5894 9.07939 21.5917 9.2685 21.5843C9.32067 21.5843 9.37435 21.5852 9.42897 21.5861C9.5721 21.5886 9.7217 21.5912 9.86753 21.578C9.93762 21.5726 9.99096 21.5277 10.0216 21.5003C10.0374 21.486 10.0499 21.4741 10.0607 21.4637C10.0779 21.4472 10.0913 21.4344 10.1084 21.422L10.2072 21.3507L10.1179 21.2677C10.1069 21.2575 10.0945 21.2436 10.0791 21.2251C10.0755 21.2209 10.0716 21.2162 10.0676 21.2113C10.0558 21.1972 10.0425 21.1811 10.0297 21.1668C10.0123 21.1474 9.99051 21.125 9.96528 21.1072C9.94068 21.0898 9.90521 21.0712 9.86129 21.0705C9.47483 21.0541 9.08858 21.0541 8.70256 21.0706L8.70256 21.0706L8.70181 21.0706C8.65858 21.0728 8.62391 21.0916 8.59954 21.1093C8.57509 21.1271 8.5539 21.149 8.5368 21.168C8.52566 21.1804 8.51348 21.1949 8.5026 21.2078C8.49742 21.2139 8.49254 21.2197 8.4882 21.2248C8.47293 21.2426 8.46039 21.2562 8.44904 21.2664L8.35803 21.3476L8.45552 21.4209C8.46717 21.4296 8.47988 21.4409 8.49539 21.4551C8.49863 21.4581 8.50206 21.4613 8.50564 21.4646C8.51785 21.4759 8.53174 21.4888 8.54528 21.5005C8.57725 21.528 8.63036 21.5704 8.69751 21.5771Z" fill="#6651E6" stroke="#6651E6" stroke-width="0.2"/>
<path d="M11.222 21.5766C11.3829 21.589 11.5444 21.5929 11.7056 21.5881L12.3948 21.1698L12.3984 21.0699C12.3979 21.0698 12.3975 21.0698 12.397 21.0698C12.0013 21.0556 11.6058 21.0556 11.2105 21.0699C11.1705 21.0712 11.1376 21.0868 11.1137 21.102C11.0897 21.1174 11.0688 21.1364 11.0518 21.1532C11.0392 21.1656 11.0261 21.1795 11.0147 21.1917C11.011 21.1956 11.0075 21.1994 11.0042 21.2028C10.9894 21.2184 10.9775 21.2303 10.967 21.2391L10.8764 21.3151L10.9664 21.3918C10.9785 21.4022 10.9916 21.4154 11.0074 21.4321C11.0109 21.4359 11.0147 21.4399 11.0186 21.4441C11.0308 21.4571 11.0446 21.4719 11.0581 21.4852C11.0903 21.5172 11.1449 21.5674 11.2177 21.5762L11.2177 21.5763L11.222 21.5766Z" fill="#6651E6" stroke="#6651E6" stroke-width="0.2"/>
<path d="M5.9777 23.9479L5.9778 23.9475C5.91367 23.934 5.86442 23.8892 5.83369 23.8591C5.82093 23.8465 5.80788 23.8329 5.79629 23.8207C5.79273 23.817 5.78932 23.8134 5.78608 23.81C5.77123 23.7946 5.75878 23.7821 5.74719 23.7721L5.66718 23.7031L5.74048 23.627C5.75013 23.617 5.76096 23.6035 5.77451 23.5856C5.77763 23.5815 5.78098 23.577 5.78449 23.5723C5.79481 23.5586 5.80655 23.5429 5.81787 23.5289C5.83318 23.51 5.85254 23.4879 5.87531 23.4698C5.8977 23.4519 5.93169 23.4312 5.97555 23.4287L5.9777 23.9479ZM5.9777 23.9479L5.9874 23.949M5.9777 23.9479L5.9874 23.949M5.9874 23.949C6.12118 23.9638 6.25601 23.9665 6.39026 23.9571C6.53506 23.9667 6.6804 23.9643 6.8248 23.9498L6.82483 23.95L6.83207 23.9488C6.89893 23.9371 6.94916 23.892 6.98016 23.8616C6.99297 23.8491 7.00604 23.8354 7.01754 23.8233C7.02102 23.8196 7.02435 23.8161 7.02749 23.8128C7.04216 23.7975 7.05428 23.7854 7.06556 23.7758L7.14697 23.7065M5.9874 23.949L7.14697 23.7065M7.14697 23.7065L7.07233 23.6299M7.14697 23.7065L7.07233 23.6299M7.07233 23.6299C7.06244 23.6197 7.05145 23.6063 7.03781 23.5886C7.03472 23.5845 7.0314 23.5802 7.02792 23.5756C7.01748 23.562 7.0056 23.5464 6.99412 23.5325C6.97867 23.5137 6.95922 23.4919 6.93639 23.474C6.91383 23.4563 6.88033 23.4363 6.83743 23.4334L7.07233 23.6299Z" fill="#6651E6" stroke="#6651E6" stroke-width="0.2"/>
<path d="M8.1861 23.952L8.1861 23.952C8.12173 23.9337 8.06937 23.8949 8.02915 23.8614C8.00901 23.8446 7.99313 23.8304 7.97869 23.8176C7.95897 23.7999 7.94193 23.7847 7.92037 23.7685L7.8112 23.6864L7.92243 23.6072C7.93801 23.5961 7.95455 23.5821 7.9739 23.5651C7.97823 23.5613 7.9828 23.5572 7.98754 23.553C8.00255 23.5397 8.01925 23.5249 8.03558 23.5114C8.0764 23.4777 8.1369 23.4329 8.21175 23.4253M8.1861 23.952L8.22195 23.5247M8.1861 23.952L8.18645 23.9521C8.25368 23.9708 8.3212 23.9721 8.38032 23.97C8.40841 23.969 8.43223 23.9675 8.45447 23.9661C8.48376 23.9642 8.51033 23.9625 8.54036 23.9624M8.1861 23.952L8.21335 23.8558M8.21175 23.4253C8.2118 23.4253 8.21185 23.4253 8.21189 23.4253L8.22195 23.5247M8.21175 23.4253C8.2117 23.4253 8.21165 23.4253 8.2116 23.4253L8.22195 23.5247M8.21175 23.4253C8.4482 23.4007 8.68655 23.4007 8.92299 23.4253L8.92372 23.4254L8.92372 23.4254C9.00319 23.4342 9.06176 23.493 9.09563 23.5295C9.11002 23.5449 9.12474 23.562 9.13793 23.5773C9.14222 23.5823 9.14635 23.5871 9.15025 23.5916C9.16741 23.6113 9.18186 23.6271 9.19534 23.6395L9.28979 23.7263L9.18255 23.7967C9.1617 23.8104 9.14527 23.8234 9.12598 23.8386C9.11204 23.8496 9.09662 23.8618 9.07697 23.8763C9.03776 23.9051 8.98594 23.939 8.92346 23.9523L8.91507 23.954L8.91502 23.9537C8.79073 23.9691 8.66522 23.972 8.54036 23.9624M8.22195 23.5247C8.45157 23.5009 8.68303 23.5009 8.91265 23.5247C8.96486 23.5306 9.01195 23.5844 9.05899 23.6389C9.06369 23.6356 9.0683 23.6325 9.07278 23.6295L9.12767 23.7131L9.06 23.7868C9.05541 23.7825 9.05089 23.7782 9.04645 23.7738C9.00044 23.8097 8.95409 23.8435 8.90273 23.8544C8.78377 23.8692 8.66363 23.8718 8.54414 23.8624M8.54036 23.9624C8.54161 23.9624 8.54288 23.9624 8.54414 23.9624V23.8624M8.54036 23.9624C8.53899 23.9623 8.53763 23.9622 8.53626 23.9621L8.54414 23.8624M8.54414 23.8624C8.51089 23.8624 8.47704 23.8645 8.44309 23.8665C8.3649 23.8713 8.28623 23.8761 8.21335 23.8558M7.98047 23.6886L8.04057 23.6087C8.04656 23.6132 8.05277 23.6181 8.05911 23.6232C8.05774 23.6244 8.05637 23.6256 8.055 23.6268C8.03027 23.6488 8.00557 23.6707 7.98047 23.6886ZM7.98047 23.6886L8.0385 23.77C8.04539 23.7651 8.05216 23.76 8.05878 23.7549C8.05586 23.7523 8.05294 23.7497 8.05002 23.7471C8.02705 23.7267 8.0041 23.7064 7.98047 23.6886ZM8.21335 23.8558L8.21335 23.8558L8.21335 23.8558Z" fill="#6651E6" stroke="#6651E6" stroke-width="0.2"/>
<path d="M10.3195 23.858L10.2933 23.9545C10.3639 23.9737 10.4356 23.9753 10.4995 23.9734C10.5301 23.9725 10.5563 23.971 10.5811 23.9696C10.6144 23.9677 10.6451 23.966 10.68 23.966H10.7362C10.8541 23.9721 10.9724 23.9681 11.0896 23.954L11.0897 23.9543L11.0973 23.9527C11.1637 23.9394 11.2163 23.8993 11.2534 23.8676C11.2681 23.8551 11.2829 23.8415 11.2963 23.8293C11.3003 23.8257 11.3042 23.8221 11.3079 23.8187C11.3249 23.8033 11.3395 23.7905 11.3534 23.78L11.4468 23.7098L11.363 23.6284C11.3511 23.6168 11.338 23.6018 11.3223 23.5828C11.3189 23.5787 11.3153 23.5744 11.3115 23.5699C11.2993 23.5551 11.2856 23.5384 11.2722 23.5234C11.2546 23.5036 11.2332 23.4815 11.2089 23.4633C11.1849 23.4455 11.1507 23.4261 11.1081 23.4227L11.1081 23.4227L11.1077 23.4226C10.8386 23.4022 10.5683 23.4022 10.2992 23.4226M10.3195 23.858L10.2946 23.9548C10.2268 23.9374 10.1768 23.8887 10.144 23.8529C10.1285 23.8359 10.1134 23.8179 10.1002 23.8021C10.0985 23.8 10.0968 23.798 10.0952 23.796C10.08 23.7779 10.0674 23.763 10.0554 23.7507L9.98364 23.6772L10.0591 23.6075C10.0694 23.5979 10.0809 23.5852 10.0953 23.5684C10.0986 23.5646 10.1021 23.5605 10.1057 23.5562C10.1168 23.5431 10.1294 23.5283 10.1416 23.5149C10.158 23.497 10.1785 23.4764 10.2021 23.4596C10.2255 23.4429 10.2584 23.4254 10.2992 23.4226M10.3195 23.858C10.2655 23.8441 10.2206 23.7902 10.1771 23.7381C10.1666 23.7255 10.1562 23.713 10.1458 23.7012M10.3195 23.858C10.3984 23.8794 10.4845 23.8747 10.5706 23.87C10.6073 23.868 10.6439 23.866 10.68 23.866L10.1458 23.7012M10.2992 23.4226C10.2994 23.4226 10.2997 23.4226 10.2999 23.4225L10.3062 23.5223M10.2992 23.4226C10.299 23.4226 10.2988 23.4226 10.2987 23.4226L10.3062 23.5223M10.3062 23.5223C10.2633 23.5251 10.2232 23.5724 10.183 23.6196C10.1685 23.6367 10.154 23.6538 10.1394 23.6687M10.3062 23.5223C10.5705 23.5023 10.8359 23.5023 11.1002 23.5223L10.1394 23.6687M10.1394 23.6687L10.127 23.6809L10.1458 23.7012M10.1394 23.6687L10.1458 23.7012" fill="#6651E6" stroke="#6651E6" stroke-width="0.2"/>
<path d="M14.9865 23.9614C14.8605 23.9691 14.7341 23.9661 14.6087 23.9523L14.6007 23.9515L14.6008 23.9512C14.5358 23.9388 14.4864 23.8967 14.4545 23.8668C14.4415 23.8546 14.4283 23.8413 14.4166 23.8296C14.4132 23.8261 14.4099 23.8228 14.4068 23.8196C14.392 23.8049 14.3797 23.7931 14.3682 23.7836L14.2879 23.7177L14.3568 23.64C14.3659 23.6298 14.3761 23.6159 14.3889 23.5976C14.3918 23.5935 14.3949 23.589 14.3981 23.5843C14.4079 23.5702 14.419 23.5541 14.4298 23.5397C14.4442 23.5204 14.4625 23.4977 14.4843 23.4789L14.9865 23.9614ZM14.9865 23.9614L15.0035 23.9626C15.1507 23.9731 15.2986 23.9703 15.4454 23.9543L15.4454 23.9546L15.4525 23.9533C15.5142 23.9421 15.572 23.8997 15.61 23.862C15.6307 23.8415 15.6504 23.8176 15.6655 23.792C15.6796 23.7682 15.6954 23.7335 15.6954 23.6937V23.6818L15.6926 23.6703C15.6792 23.6147 15.6516 23.5635 15.6125 23.5218C15.5734 23.4801 15.5241 23.4493 15.4694 23.4324L15.4577 23.4287L15.4454 23.4281C15.1585 23.4121 14.8708 23.4144 14.584 23.4348C14.5841 23.4348 14.5841 23.4348 14.5841 23.4348L14.9865 23.9614Z" fill="#6651E6" stroke="#6651E6" stroke-width="0.2"/>
<path d="M12.8356 23.9556C12.7051 23.963 12.5742 23.9606 12.444 23.9483L12.437 23.9477L12.4371 23.9474C12.405 23.9421 12.3754 23.9281 12.3528 23.9149C12.3288 23.901 12.3057 23.8839 12.2856 23.8662C12.266 23.8488 12.2462 23.8283 12.2311 23.8065C12.2236 23.7957 12.2152 23.7818 12.2092 23.7657C12.2038 23.7509 12.1967 23.7246 12.2037 23.6938M12.8356 23.9556L12.4421 23.5337C12.7264 23.5168 13.0114 23.5168 13.2956 23.5337M12.8356 23.9556L12.8388 23.9558C12.9865 23.9661 13.1348 23.9636 13.2821 23.9482L13.2944 23.947L13.3061 23.9427C13.3577 23.9239 13.4042 23.8933 13.4419 23.8533C13.4797 23.8134 13.5076 23.7652 13.5236 23.7127L13.5238 23.7121C13.5321 23.6842 13.5285 23.659 13.5249 23.6436C13.5211 23.627 13.5148 23.612 13.5086 23.5996C13.4962 23.5747 13.479 23.5503 13.461 23.5293C13.4429 23.5083 13.421 23.4871 13.3971 23.4702C13.3774 23.4562 13.3424 23.435 13.2995 23.4337M12.8356 23.9556L13.2956 23.5337M12.2037 23.6938C12.2038 23.6935 12.2039 23.6932 12.204 23.6928L12.3012 23.7161L12.2036 23.6943C12.2037 23.6941 12.2037 23.694 12.2037 23.6938ZM12.2037 23.6938C12.2154 23.6421 12.2441 23.5851 12.2765 23.5406C12.2931 23.5178 12.3134 23.4946 12.3367 23.4758C12.3582 23.4584 12.3925 23.4365 12.436 23.4339L12.4362 23.4339L12.4362 23.4339C12.7237 23.4167 13.012 23.4167 13.2995 23.4337M13.2995 23.4337C13.2982 23.4337 13.2969 23.4337 13.2956 23.4337V23.5337M13.2995 23.4337C13.3002 23.4338 13.3009 23.4338 13.3015 23.4339L13.2956 23.5337" fill="#6651E6" stroke="#6651E6" stroke-width="0.2"/>
<path d="M16.7613 23.9489L16.7612 23.9492L16.7697 23.9502C16.9036 23.9653 17.0385 23.9681 17.1729 23.9584C17.3073 23.9691 17.4425 23.967 17.5766 23.9522L17.5766 23.9526L17.5851 23.9509C17.6515 23.9377 17.7 23.8915 17.7296 23.8608C17.742 23.8478 17.7546 23.8336 17.7656 23.8213C17.7687 23.8178 17.7717 23.8145 17.7745 23.8114C17.7883 23.7959 17.7997 23.7838 17.8103 23.7741L17.884 23.7069L17.817 23.633C17.8077 23.6228 17.7974 23.6092 17.7844 23.5911C17.7816 23.5872 17.7786 23.583 17.7755 23.5786C17.7654 23.5645 17.754 23.5485 17.7429 23.534C17.7282 23.515 17.7095 23.4927 17.6874 23.4743C17.6656 23.4562 17.6317 23.4345 17.5872 23.4319L17.5815 23.5317L17.5882 23.432C17.311 23.4134 17.0329 23.4134 16.7558 23.432L16.7557 23.432C16.7123 23.4349 16.6788 23.4556 16.6566 23.4734C16.6342 23.4916 16.615 23.5135 16.5999 23.5324C16.5884 23.5467 16.5766 23.5626 16.5662 23.5766C16.5629 23.5809 16.5598 23.5851 16.5569 23.589C16.5435 23.6069 16.5326 23.6207 16.5229 23.631L16.4513 23.7071L16.5304 23.7753C16.5421 23.7854 16.5545 23.7978 16.5693 23.8132C16.5724 23.8163 16.5756 23.8197 16.5789 23.8231C16.5906 23.8354 16.6039 23.8492 16.6169 23.8618C16.6477 23.8918 16.6969 23.936 16.7613 23.9489Z" fill="#6651E6" stroke="#6651E6" stroke-width="0.2"/>
<path d="M4.52741 22.8577L4.57821 22.8867L4.62837 22.8567L5.10538 22.5708L5.29179 22.459L5.08567 22.3901C5.03944 22.3747 4.9976 22.358 4.953 22.3403C4.92073 22.3274 4.88701 22.314 4.84915 22.3C4.76607 22.2694 4.67423 22.2411 4.57775 22.2352C4.55254 22.2337 4.52597 22.2299 4.49401 22.2252C4.48028 22.2233 4.46555 22.2211 4.44951 22.219C4.40092 22.2124 4.34264 22.2062 4.28625 22.2116C4.22893 22.2171 4.16411 22.2355 4.11187 22.2864C4.05925 22.3377 4.03254 22.4091 4.02545 22.4939L4.1251 22.5022L4.02546 22.4937C4.02177 22.5369 4.04055 22.5704 4.05573 22.5902C4.07116 22.6103 4.09048 22.6266 4.10777 22.6392C4.14259 22.6648 4.18831 22.6893 4.2339 22.7121C4.26807 22.7292 4.30304 22.7457 4.33796 22.7623C4.40316 22.7932 4.46818 22.824 4.52741 22.8577Z" fill="#6651E6" stroke="#6651E6" stroke-width="0.2"/>
<path d="M18.9862 22.8529L19.0342 22.8779L19.0814 22.8514L19.5498 22.5888L19.7388 22.4828L19.5355 22.4077C19.4891 22.3906 19.4473 22.3718 19.4025 22.3515C19.3717 22.3376 19.3393 22.3231 19.303 22.3079C19.2214 22.2739 19.1292 22.2419 19.0313 22.2378L19.0272 22.3377L19.0315 22.2378C19.0033 22.2366 18.972 22.2317 18.9328 22.2256C18.9228 22.224 18.9123 22.2224 18.9012 22.2207C18.8513 22.2132 18.7909 22.2052 18.7325 22.2091C18.6731 22.2131 18.6054 22.23 18.55 22.2811C18.4942 22.3327 18.4648 22.4062 18.4554 22.495L18.5548 22.5055L18.4554 22.4945C18.4498 22.5448 18.477 22.5807 18.4912 22.5965C18.5074 22.6146 18.5274 22.6293 18.545 22.6408C18.581 22.6643 18.6287 22.6879 18.6771 22.7104C18.7134 22.7273 18.7509 22.7439 18.7884 22.7605C18.8571 22.7909 18.9256 22.8212 18.9862 22.8529Z" fill="#6651E6" stroke="#6651E6" stroke-width="0.2"/>
<path d="M19.5758 21.3299C19.5857 21.2727 19.5499 21.2337 19.5386 21.2222C19.5225 21.2059 19.503 21.1925 19.486 21.1821C19.451 21.1606 19.404 21.138 19.3553 21.1159C19.3203 21.1 19.2836 21.084 19.2464 21.0677C19.1743 21.0362 19.1004 21.0039 19.0331 20.9702L18.9858 20.9464L18.4435 21.3277L18.5431 21.3183L18.4435 21.3277C18.4515 21.4118 18.4792 21.4824 18.5332 21.5323C18.5865 21.5814 18.6516 21.5978 18.7082 21.6022C18.764 21.6065 18.8219 21.5999 18.8697 21.5937C18.8791 21.5925 18.8881 21.5913 18.8966 21.5901C18.9358 21.5849 18.967 21.5807 18.995 21.5801L18.993 21.4802L18.9949 21.5801C19.0275 21.5795 19.0653 21.5845 19.1141 21.5909C19.117 21.5912 19.1199 21.5916 19.1229 21.592C19.1717 21.5984 19.2313 21.6058 19.2888 21.6024C19.3474 21.5988 19.4141 21.5834 19.4705 21.5355C19.5276 21.4871 19.5611 21.4169 19.5758 21.3299ZM19.5758 21.3299C19.5758 21.33 19.5758 21.3301 19.5757 21.3302L19.4772 21.313L19.5758 21.3296C19.5758 21.3297 19.5758 21.3298 19.5758 21.3299Z" fill="#6651E6" stroke="#6651E6" stroke-width="0.2"/>
<path d="M5.79375 24.5996L5.79142 24.5952L5.74133 24.5008L5.65044 24.5571C5.62477 24.573 5.59224 24.5896 5.55457 24.6081C5.54595 24.6123 5.537 24.6167 5.52787 24.6211C5.49888 24.6352 5.46804 24.6502 5.43982 24.6651C5.40314 24.6845 5.36387 24.7072 5.33248 24.7332C5.30484 24.7562 5.26104 24.7997 5.25786 24.864L5.25786 24.864L5.25782 24.8649C5.25475 24.94 5.26934 25.0081 5.31169 25.0612C5.35409 25.1143 5.41189 25.1367 5.4621 25.1467C5.51111 25.1565 5.56332 25.1563 5.60559 25.1556C5.61343 25.1555 5.62094 25.1553 5.62817 25.1552C5.66112 25.1545 5.68808 25.154 5.71249 25.1558C5.75743 25.1652 5.80393 25.1646 5.84866 25.154L5.85958 25.1514L5.86965 25.1464C5.94853 25.1076 6.02797 25.065 6.10571 25.0232C6.1385 25.0057 6.17098 24.9882 6.20299 24.9713L6.36502 24.8857L6.20535 24.7958C6.18016 24.7816 6.15471 24.7671 6.12905 24.7525C6.04782 24.7062 5.96435 24.6587 5.87955 24.6154L5.87966 24.6152L5.87328 24.6125C5.84375 24.5999 5.814 24.5988 5.79375 24.5996Z" fill="#6651E6" stroke="#6651E6" stroke-width="0.2"/>
<path d="M4.49717 21.6595L4.54276 21.687L4.59097 21.6645C4.65347 21.6353 4.72245 21.6078 4.79104 21.5805C4.82981 21.5651 4.86845 21.5497 4.90573 21.5341C4.9543 21.5137 5.00184 21.4924 5.0378 21.471C5.05535 21.4606 5.07557 21.447 5.09224 21.43C5.10625 21.4157 5.13671 21.3796 5.1311 21.3271L5.1311 21.3271L5.13104 21.3265C5.12108 21.2378 5.09157 21.1645 5.03607 21.1131C4.98082 21.0619 4.91354 21.0453 4.85464 21.0412C4.79694 21.0373 4.73702 21.0449 4.68816 21.0517C4.68214 21.0525 4.6763 21.0533 4.67062 21.0541C4.62587 21.0604 4.59124 21.0652 4.56127 21.0652L4.5604 21.0652C4.46606 21.066 4.37672 21.0945 4.29824 21.1249C4.26343 21.1384 4.23257 21.1514 4.20323 21.1637C4.15996 21.1819 4.11998 21.1987 4.07547 21.2137L3.87063 21.2828L4.05589 21.3942L4.49717 21.6595Z" fill="#6651E6" stroke="#6651E6" stroke-width="0.2"/>
<path d="M19.0938 23.4283C19.0052 23.4279 18.9257 23.4696 18.8646 23.5073C18.8379 23.5238 18.8111 23.5419 18.7864 23.5587C18.7817 23.5618 18.7772 23.5649 18.7727 23.5679C18.7433 23.5877 18.7168 23.6052 18.6912 23.6196L18.5423 23.7035L18.6883 23.7922L19.078 24.029L19.1327 24.0623L19.1859 24.0265L19.5583 23.7751L19.7096 23.673L19.5421 23.6004C19.512 23.5874 19.481 23.5714 19.4473 23.5534C19.4404 23.5498 19.4334 23.546 19.4262 23.5421C19.3994 23.5278 19.3708 23.5124 19.3425 23.4984C19.2716 23.4635 19.1862 23.4284 19.0938 23.4283ZM19.0938 23.4283C19.0937 23.4283 19.0936 23.4283 19.0935 23.4283V23.5283L19.0941 23.4283C19.094 23.4283 19.0939 23.4283 19.0938 23.4283ZM18.7402 23.7068L18.7922 23.6213L18.8344 23.6469C18.803 23.6682 18.7716 23.6891 18.7402 23.7068ZM18.7402 23.7068L18.7893 23.7939C18.8054 23.7849 18.8212 23.7752 18.8366 23.7653L18.7402 23.7068Z" fill="#6651E6" stroke="#6651E6" stroke-width="0.2"/>
<path d="M4.32792 25.2008L4.40615 25.2686L4.47121 25.1881L4.49196 25.1624C4.50267 25.1635 4.51511 25.1648 4.52686 25.1656C4.55678 25.1676 4.61195 25.1696 4.66106 25.1397L4.66113 25.1398L4.66549 25.1368C4.75058 25.0787 4.83052 25.0134 4.90442 24.9415L4.98392 24.8642L4.89883 24.7931C4.82121 24.7282 4.73877 24.6694 4.65222 24.6171L4.64534 24.6129L4.63789 24.6099C4.56211 24.5794 4.47746 24.5794 4.40168 24.6099L4.43907 24.7027L4.40239 24.6096C4.31374 24.6446 4.22607 24.6892 4.14378 24.7311C4.11222 24.7472 4.08145 24.7628 4.05173 24.7774L3.91605 24.8438L4.03021 24.9428L4.32792 25.2008Z" fill="#6651E6" stroke="#6651E6" stroke-width="0.2"/>
<path d="M16.2637 25.1929L16.2944 25.202L16.6104 24.7607L16.6139 24.6607C16.6137 24.6607 16.6135 24.6607 16.6133 24.6607C16.4002 24.6532 16.1869 24.6582 15.9743 24.6756L15.9743 24.6754L15.9683 24.6763C15.9336 24.6813 15.9135 24.7021 15.9075 24.7087C15.8996 24.7174 15.8949 24.7257 15.8926 24.7298C15.8879 24.7385 15.885 24.7466 15.8835 24.751C15.8802 24.7609 15.8775 24.7718 15.8754 24.7815C15.8711 24.8017 15.867 24.827 15.8643 24.8526C15.8617 24.8776 15.8599 24.9067 15.8616 24.9333C15.8624 24.9462 15.8643 24.9627 15.8693 24.9793C15.8732 24.9925 15.8845 25.025 15.9172 25.0472L15.917 25.0475L15.9253 25.0521C16.0329 25.1108 16.1463 25.158 16.2637 25.1929Z" fill="#6651E6" stroke="#6651E6" stroke-width="0.2"/>
<path d="M19.1325 25.0613C19.223 25.0258 19.3105 24.9826 19.3978 24.9396C19.4008 24.9381 19.4038 24.9366 19.4068 24.9352L18.9724 25.0573C18.9975 25.0685 19.0246 25.0746 19.052 25.0753C19.0795 25.076 19.1069 25.0712 19.1325 25.0613ZM19.1325 25.0613L19.1325 25.0613L19.1325 25.0613ZM19.2499 24.5645L19.1687 24.5027L19.1086 24.5851L19.0978 24.5999C19.0513 24.5976 19.0046 24.6017 18.959 24.6123L18.9441 24.6158L18.931 24.6235C18.8434 24.675 18.7598 24.7332 18.681 24.7974L18.5927 24.8693L18.6754 24.9475C18.7504 25.0184 18.831 25.0829 18.9167 25.1404L18.9238 25.1452L18.9317 25.1487C18.9689 25.1652 19.0089 25.1742 19.0496 25.1753C19.0902 25.1763 19.1307 25.1692 19.1686 25.1546L19.1686 25.1546L19.1691 25.1544C19.2636 25.1172 19.3573 25.0711 19.4461 25.0273C19.4818 25.0098 19.5166 24.9926 19.5505 24.9765L19.6989 24.9061L19.5682 24.8066L19.2499 24.5645Z" fill="#6651E6" stroke="#6651E6" stroke-width="0.2"/>
<path d="M7.01951 25.1642L7.01948 25.1648L7.03082 25.1641C7.04106 25.1635 7.0536 25.1638 7.07121 25.1647C7.07442 25.1648 7.07786 25.165 7.08149 25.1652C7.09587 25.166 7.11312 25.1669 7.12992 25.1671C7.1722 25.1675 7.22983 25.1642 7.28531 25.1347C7.33833 25.1065 7.37592 25.0624 7.40289 25.027C7.41376 25.0127 7.42454 24.9975 7.43419 24.984C7.43671 24.9804 7.43915 24.977 7.4415 24.9737C7.45351 24.9569 7.46401 24.9427 7.47447 24.9302L7.56432 24.823L7.43381 24.7727C7.39356 24.7571 7.35783 24.7406 7.31917 24.7226C7.29235 24.7102 7.26412 24.6971 7.23199 24.6833C7.16072 24.6525 7.07958 24.6229 6.99254 24.6163L6.99254 24.6163L6.99007 24.6162C6.91057 24.6121 6.83671 24.643 6.78001 24.6708C6.75739 24.6819 6.7343 24.6942 6.71305 24.7056C6.70692 24.7089 6.70094 24.712 6.69517 24.7151C6.66816 24.7294 6.6441 24.7417 6.62129 24.7513L6.51684 24.7953L6.57359 24.8935C6.62217 24.9775 6.68236 25.0542 6.7524 25.1213L6.75171 25.122L6.76324 25.1303C6.81489 25.1674 6.87763 25.1678 6.91284 25.1671C6.93277 25.1668 6.94837 25.1659 6.96223 25.1651C6.98233 25.164 6.99878 25.1631 7.01951 25.1642Z" fill="#6651E6" stroke="#6651E6" stroke-width="0.2"/>
<path d="M4.39953 24.0371L4.45616 24.0809L4.51588 24.0414L4.89497 23.7906L5.02901 23.702L4.89026 23.6209C4.86779 23.6077 4.84417 23.5913 4.81758 23.572C4.8118 23.5679 4.80582 23.5635 4.79967 23.559C4.77888 23.5439 4.75627 23.5274 4.73411 23.5124C4.67927 23.4755 4.60359 23.4308 4.51761 23.4308V23.4308L4.51616 23.4308C4.42581 23.4321 4.34187 23.464 4.27061 23.4967C4.24195 23.5098 4.21304 23.5242 4.18583 23.5377C4.17897 23.5411 4.17221 23.5445 4.16559 23.5478C4.13175 23.5645 4.10036 23.5796 4.06973 23.592L3.90887 23.6575L4.04623 23.7638L4.39953 24.0371Z" fill="#6651E6" stroke="#6651E6" stroke-width="0.2"/>
<path d="M21.432 5.93812L21.4321 5.93812C21.6134 5.93812 21.795 5.93763 21.9767 5.93713C22.5225 5.93564 23.0698 5.93414 23.6166 5.94609C23.6169 5.94609 23.6173 5.9461 23.6176 5.94611L23.6154 6.04608C23.6932 6.04608 23.7701 6.09758 23.8469 6.14902C23.8506 6.15148 23.8542 6.15394 23.8579 6.1564L21.432 5.93812ZM21.432 5.93812C21.2426 5.9383 21.053 5.93787 20.8631 5.93744C20.3365 5.93624 19.8087 5.93505 19.2824 5.94677M21.432 5.93812L19.2824 5.94677M19.2824 5.94677C19.2824 5.94677 19.2824 5.94677 19.2824 5.94677L19.2846 6.04675L19.2824 5.94677Z" fill="#6651E6" stroke="#6651E6" stroke-width="0.2"/>
<path d="M12.7241 6.21157L12.7242 6.21157L12.7241 6.20824C12.7217 6.12647 12.7033 6.04597 12.6698 5.97136C12.6363 5.89675 12.5884 5.8295 12.5289 5.77349C12.4694 5.71747 12.3994 5.6738 12.3229 5.645C12.2477 5.61667 12.1678 5.60327 12.0875 5.60555C12.0032 5.60223 11.9191 5.61644 11.8406 5.6473C11.7608 5.67865 11.6885 5.72648 11.6283 5.78767C11.5682 5.84885 11.5216 5.92202 11.4916 6.00241C11.4619 6.08165 11.449 6.16616 11.4536 6.25062C11.4531 6.33203 11.4689 6.41275 11.5002 6.48792C11.532 6.56422 11.5791 6.63319 11.6385 6.69056C11.698 6.74793 11.7685 6.79248 11.8459 6.82144C11.9226 6.85018 12.0044 6.86296 12.0862 6.859C12.2556 6.85606 12.4172 6.78686 12.5363 6.6662C12.6559 6.54511 12.7233 6.38187 12.7241 6.21157Z" fill="#6651E6" stroke="#6651E6" stroke-width="0.2"/>
<path d="M13.8117 6.80719C13.8884 6.83666 13.9702 6.85056 14.0522 6.84809C14.1343 6.85056 14.216 6.83666 14.2927 6.80719C14.3705 6.7773 14.4415 6.73201 14.5014 6.67404C14.5613 6.61607 14.609 6.5466 14.6415 6.46979C14.674 6.39298 14.6908 6.3104 14.6908 6.22697C14.6908 6.14354 14.674 6.06095 14.6415 5.98415C14.609 5.90734 14.5613 5.83787 14.5014 5.7799C14.4415 5.72192 14.3705 5.67664 14.2927 5.64675C14.216 5.61728 14.1343 5.60338 14.0522 5.60584C13.9702 5.60338 13.8884 5.61728 13.8117 5.64675C13.734 5.67664 13.663 5.72192 13.6031 5.7799C13.5431 5.83787 13.4955 5.90734 13.463 5.98415C13.4304 6.06095 13.4137 6.14354 13.4137 6.22697C13.4137 6.3104 13.4304 6.39298 13.463 6.46979C13.4955 6.5466 13.5431 6.61607 13.6031 6.67404C13.663 6.73201 13.7339 6.7773 13.8117 6.80719Z" fill="#6651E6" stroke="#6651E6" stroke-width="0.2"/>
<path d="M15.8106 6.81233C15.8873 6.84054 15.9688 6.85292 16.0504 6.84873C16.1319 6.84769 16.2124 6.83025 16.2871 6.79745C16.3625 6.76434 16.4305 6.71626 16.4868 6.65613C16.5431 6.59601 16.5867 6.52508 16.615 6.44762C16.6431 6.37054 16.6554 6.28857 16.6512 6.20662C16.646 6.0427 16.5762 5.88744 16.457 5.77489C16.3375 5.66206 16.1782 5.6014 16.014 5.60633C15.8499 5.61127 15.6945 5.68139 15.5819 5.80118C15.4698 5.92058 15.4094 6.07957 15.4139 6.24338C15.414 6.32537 15.4307 6.40652 15.4629 6.4819C15.4954 6.55777 15.543 6.62621 15.6027 6.68303C15.6625 6.73985 15.7333 6.78385 15.8106 6.81233Z" fill="#6651E6" stroke="#6651E6" stroke-width="0.2"/>
<path d="M25.9811 6.50913L25.9539 6.51111C25.7949 6.52265 25.6351 6.51965 25.4766 6.50214L25.469 6.50131L25.4691 6.50102C25.3968 6.48744 25.3442 6.43522 25.3119 6.40036C25.2987 6.38604 25.2851 6.3703 25.2731 6.35629C25.2692 6.3518 25.2655 6.3475 25.262 6.34347C25.2465 6.32551 25.2333 6.31102 25.2209 6.29943L25.1416 6.22549L25.2217 6.15242C25.2332 6.14193 25.2458 6.12791 25.2611 6.10973C25.2654 6.10474 25.27 6.09913 25.275 6.0932C25.286 6.07984 25.2985 6.06489 25.31 6.05186C25.3273 6.03246 25.3486 6.01026 25.3732 5.99219C25.3978 5.97416 25.4325 5.95521 25.4757 5.95266L25.4762 5.95263L25.4762 5.95264C25.7971 5.93519 26.1188 5.93519 26.4397 5.95264M25.9811 6.50913C26.1364 6.51745 26.2922 6.51335 26.4469 6.49688L26.4469 6.49717L26.4545 6.49577C26.5244 6.48283 26.5799 6.4303 26.6144 6.3879C26.6518 6.34205 26.6838 6.28458 26.6987 6.23026L26.6987 6.23026L26.699 6.22921C26.7078 6.19572 26.6994 6.16687 26.6941 6.15265C26.688 6.13618 26.6795 6.12161 26.6717 6.10996C26.6559 6.08638 26.6349 6.06314 26.6133 6.04303C26.5915 6.02271 26.566 6.00263 26.5394 5.98673C26.5153 5.97235 26.4796 5.95479 26.4397 5.95264M25.9811 6.50913L26.0938 6.50095L26.0558 6.41213M25.9811 6.50913L26.0558 6.41213M26.4397 5.95264L26.4343 6.05249L26.4396 5.95263C26.4396 5.95263 26.4397 5.95263 26.4397 5.95264ZM26.0558 6.41213C26.1828 6.4158 26.3099 6.4109 26.4363 6.39744C26.5044 6.38483 26.5812 6.28069 26.6023 6.20374L26.0558 6.41213Z" fill="#6651E6" stroke="#6651E6" stroke-width="0.2"/>
<path d="M18.7101 15.5326L18.725 15.4857C18.7518 15.4016 18.7765 15.3229 18.8001 15.2477C18.8466 15.0995 18.8887 14.9654 18.9332 14.8328L18.7101 15.5326ZM18.7101 15.5326L18.7382 15.5731M18.7101 15.5326L18.7382 15.5731M18.7382 15.5731L18.8692 15.7615L18.9324 15.8524L19.0164 15.7803C19.0328 15.7662 19.0526 15.7519 19.0763 15.7357C19.0819 15.7318 19.0879 15.7277 19.0941 15.7235C19.1123 15.7111 19.1323 15.6975 19.1508 15.6839C19.1978 15.6495 19.2612 15.5976 19.2874 15.5212L19.2875 15.5209C19.6282 14.5173 19.9568 13.5098 20.2733 12.4986M18.7382 15.5731L19.7739 12.3551M19.7739 12.3551L19.774 12.3548C19.8006 12.2798 19.856 12.2226 19.9029 12.1798C19.921 12.1632 19.9403 12.1466 19.9582 12.1313C19.964 12.1264 19.9695 12.1216 19.9749 12.117C19.9979 12.0971 20.018 12.0792 20.0352 12.0614L20.1628 11.9293L20.2045 12.1081C20.2099 12.1311 20.218 12.1562 20.2281 12.1852C20.2304 12.1919 20.2329 12.199 20.2355 12.2063C20.2434 12.2286 20.252 12.2531 20.2593 12.2766C20.2778 12.3358 20.2986 12.4186 20.2733 12.4986M19.7739 12.3551C19.5348 13.0356 19.306 13.7193 19.0774 14.4023M19.7739 12.3551L19.0774 14.4023M20.2733 12.4986C20.2733 12.4985 20.2733 12.4984 20.2733 12.4984L20.1779 12.4685L20.2732 12.4989C20.2732 12.4988 20.2732 12.4987 20.2733 12.4986ZM19.0774 14.4023C19.0294 14.5458 18.9814 14.6893 18.9333 14.8327L19.0774 14.4023Z" fill="#6651E6" stroke="#6651E6" stroke-width="0.2"/>
<path d="M21.0579 13.394L20.9882 13.4657C21.158 13.6307 21.3421 13.7837 21.5394 13.9477C21.5894 13.9893 21.6404 14.0317 21.6921 14.0751C21.6375 14.1223 21.584 14.1682 21.5315 14.2133C21.3292 14.3869 21.1417 14.5478 20.9656 14.7201C20.9656 14.7201 20.9655 14.7202 20.9655 14.7202L21.0579 13.394ZM21.0579 13.394L20.9884 13.4659C20.9303 13.4098 20.9047 13.3331 20.8885 13.2731C20.8822 13.2501 20.8765 13.2256 20.8713 13.2033C20.8695 13.1958 20.8678 13.1885 20.8662 13.1816C20.8592 13.1525 20.8527 13.1273 20.845 13.105L20.7907 12.9483L20.9546 12.9734C20.9788 12.9771 21.006 12.9792 21.0371 12.9809C21.0443 12.9813 21.0518 12.9817 21.0596 12.9821C21.0835 12.9834 21.1095 12.9848 21.1343 12.9869C21.1967 12.9923 21.2796 13.0039 21.3444 13.0528L21.3455 13.0537L21.3455 13.0537C21.6614 13.2993 21.9631 13.5627 22.2492 13.8426L22.2492 13.8426C22.2826 13.8753 22.2991 13.9199 22.308 13.9538C22.3178 13.9909 22.3227 14.0319 22.3235 14.071C22.3243 14.1099 22.3212 14.1509 22.3128 14.188C22.3054 14.2202 22.2902 14.2672 22.254 14.3004L21.0579 13.394ZM21.0579 13.394C21.0072 13.345 20.9881 13.2634 20.969 13.1819C20.9686 13.1801 20.9681 13.1782 20.9677 13.1764C20.9533 13.175 20.9387 13.1733 20.9243 13.1711L20.9395 13.0723L21.0339 13.0395C21.0388 13.0535 21.0431 13.0676 21.047 13.0816C21.0499 13.0818 21.0528 13.0819 21.0557 13.0821C21.1425 13.0866 21.2292 13.0912 21.2841 13.1326C21.5971 13.3759 21.8959 13.6368 22.1793 13.9141L21.0579 13.394Z" fill="#6651E6" stroke="#6651E6" stroke-width="0.2"/>
<path d="M17.1931 14.0788C17.2453 14.1235 17.2966 14.1669 17.3469 14.2095C17.5367 14.3702 17.7125 14.5191 17.8738 14.6798C17.9309 14.7366 17.9558 14.8129 17.9714 14.8731C17.9776 14.8966 17.9831 14.9215 17.9882 14.9442C17.9898 14.9513 17.9913 14.9582 17.9928 14.9649C17.9995 14.9941 18.0058 15.0196 18.0133 15.0423L18.0663 15.2029L17.9001 15.172C17.8784 15.168 17.8541 15.1655 17.8258 15.1631C17.8194 15.1625 17.8127 15.162 17.8057 15.1614C17.7837 15.1596 17.7595 15.1577 17.7365 15.155C17.6778 15.1482 17.6008 15.1346 17.5388 15.0863M17.1931 14.0788L17.5386 15.0862C17.5386 15.0863 17.5387 15.0863 17.5388 15.0863M17.1931 14.0788C17.2407 14.0375 17.2877 13.997 17.3341 13.957C17.5357 13.7831 17.7261 13.619 17.9026 13.444M17.1931 14.0788L17.9026 13.444M17.5388 15.0863C17.343 14.9349 17.1536 14.7709 16.9668 14.609C16.8703 14.5255 16.7746 14.4425 16.679 14.3622M17.5388 15.0863L16.679 14.3622M16.679 14.3622C16.5814 14.2803 16.5106 14.1829 16.5134 14.0667C16.516 13.952 16.5897 13.8569 16.6854 13.7775L16.7493 13.8544L16.6852 13.7776C16.7904 13.69 16.8958 13.5983 17.002 13.5058C17.1793 13.3516 17.3589 13.1954 17.5435 13.0523L17.6047 13.1314L17.5431 13.0526C17.6047 13.0044 17.682 12.9917 17.7399 12.9855C17.7623 12.9831 17.7859 12.9814 17.8074 12.9799C17.8147 12.9793 17.8217 12.9788 17.8284 12.9783C17.8565 12.9762 17.8805 12.9738 17.9019 12.97L18.0561 12.9421L18.0164 13.0937C18.011 13.1142 18.0069 13.1378 18.0026 13.1657C18.0016 13.172 18.0006 13.1787 17.9996 13.1857C17.9964 13.2073 17.9928 13.2311 17.9887 13.2536C17.9782 13.3096 17.9593 13.3881 17.9026 13.444M16.679 14.3622L17.9024 13.4442C17.9024 13.4441 17.9025 13.4441 17.9026 13.444" fill="#6651E6" stroke="#6651E6" stroke-width="0.2"/>
</svg>
