<svg width="30" height="29" viewBox="0 0 30 29" fill="none" xmlns="http://www.w3.org/2000/svg">
<mask id="path-1-outside-1" maskUnits="userSpaceOnUse" x="0" y="0" width="29" height="27" fill="black">
<rect fill="white" width="29" height="27"/>
<path d="M8.38964 24.1778C8.32518 24.2831 8.28328 24.3453 8.24461 24.4082C7.89653 24.9751 7.38538 25.253 6.72661 25.1554C6.08848 25.0611 5.66627 24.665 5.47934 24.0468C4.94305 22.2777 4.40869 20.5079 3.88851 18.7343C3.80923 18.4654 3.69514 18.3588 3.4025 18.3569C2.80368 18.353 2.29188 17.8433 2.25578 17.2258C2.2416 16.978 2.16876 16.8111 1.93027 16.7424C1.16901 16.5235 0.907959 16.0312 1.02785 15.259C1.09231 14.8302 1.02785 14.3827 1.04912 13.9456C1.05745 13.8771 1.07969 13.8109 1.11449 13.7512C1.14928 13.6915 1.19591 13.6395 1.25152 13.5983C1.49131 13.4398 1.77428 13.3448 2.01342 13.1856C2.13517 13.0984 2.21833 12.9678 2.24547 12.821C2.32024 12.1457 2.63931 11.7727 3.29034 11.6045C3.35419 11.5826 3.41242 11.547 3.46088 11.5002C3.50934 11.4534 3.54685 11.3965 3.57073 11.3336C4.39515 8.23187 6.19225 5.84264 8.89757 4.12743C10.4066 3.16914 12.1224 2.58108 13.904 2.41158C15.0869 2.29283 16.2626 2.31144 17.4286 2.55152C17.7019 2.60801 17.7883 2.5374 17.7941 2.25688C17.7907 1.99319 17.8395 1.73142 17.9378 1.48657C18.0842 1.16561 18.3891 1.00193 18.75 1.00193C21.768 0.999358 24.7857 0.999358 27.8032 1.00193C28.0211 0.999845 28.2327 1.07483 28.4003 1.21353C28.5679 1.35224 28.6807 1.54566 28.7185 1.75939C28.7508 1.91632 28.7668 2.07614 28.7662 2.23634C28.7696 3.937 28.7696 5.63744 28.7662 7.33767C28.7662 8.20683 28.402 8.56823 27.5331 8.57208C26.9768 8.57529 26.4212 8.57208 25.7715 8.57208C27.3965 11.7175 27.6698 14.9059 26.5791 18.2323C26.7429 18.2503 26.8647 18.2741 26.9865 18.2753C27.4377 18.2805 27.8889 18.2753 28.3401 18.2753C28.7346 18.2753 28.7662 18.3068 28.7668 18.6939C28.7668 19.6354 28.7668 20.5768 28.7668 21.5183C28.7668 22.5242 28.7591 23.5295 28.7668 24.5353C28.7701 24.8274 28.6669 24.9243 28.3711 24.9237C25.944 24.9139 23.5161 24.9139 21.0873 24.9237C20.8757 24.927 20.6674 24.9763 20.4769 25.0681C18.4671 26.0432 16.3515 26.404 14.1284 26.2236C12.1708 26.0644 10.3846 25.4289 8.73384 24.3871C8.63458 24.3197 8.52436 24.2574 8.38964 24.1778ZM3.87756 11.5763C4.0503 11.5878 4.17471 11.6026 4.29976 11.6026C4.99784 11.6026 5.69721 11.5827 6.39465 11.6084C7.93714 11.6649 9.42871 11.3792 10.9029 10.9761C12.9133 10.4266 14.7961 9.57669 16.6061 8.55732C16.7351 8.48478 16.8968 8.4713 17.0438 8.42894C17.0702 8.57016 17.1179 8.71138 17.1186 8.8526C17.1276 9.97596 17.1379 11.0993 17.1244 12.2227C17.1205 12.527 17.2004 12.6675 17.5182 12.7465C18.6069 13.0155 19.3115 13.9366 19.2979 15.0125C19.2943 15.5361 19.1114 16.0429 18.7793 16.449C18.4473 16.855 17.986 17.1361 17.4718 17.2457C17.2088 17.3054 17.1231 17.4075 17.125 17.67C17.1341 18.8678 17.125 20.0663 17.1205 21.2648C17.1205 21.5947 17.0187 21.6499 16.7338 21.501C15.8069 21.0298 14.8909 20.5381 13.9466 20.1022C12.1111 19.2598 10.1568 18.7024 8.15179 18.4493C7.75666 18.3986 7.35702 18.3851 6.87873 18.3504C7.0199 18.8126 7.12368 19.1798 7.24486 19.5412C7.40987 20.0336 7.28353 20.0445 7.9178 20.0599C8.04027 20.0631 8.23623 20.1491 8.2691 20.2422C8.46634 20.8064 8.63136 21.3829 8.79637 21.958C8.85503 22.1628 8.78219 22.2918 8.53854 22.2867C8.41349 22.2867 8.28779 22.3002 8.11956 22.3111C8.15179 22.4465 8.1737 22.546 8.19884 22.6449C8.26974 22.9248 8.37352 23.2002 8.40317 23.4839C8.42638 23.7028 8.50244 23.8491 8.68744 23.9441C9.52539 24.3742 10.3324 24.8865 11.209 25.2145C13.9524 26.2416 16.7112 26.2031 19.4455 25.131C19.5218 25.0942 19.5948 25.0513 19.664 25.0027L19.6383 24.9192C19.394 24.9192 19.1484 24.9019 18.906 24.9237C18.5753 24.9526 18.4819 24.8165 18.4838 24.4988C18.4954 22.5833 18.489 20.6684 18.4896 18.7536C18.4896 18.2792 18.4896 18.2779 18.9827 18.2779C21.26 18.2779 23.538 18.2715 25.8153 18.2779C26.0834 18.2779 26.2104 18.1913 26.2962 17.9313C26.8056 16.4053 26.9852 14.7894 26.8234 13.1894C26.6807 11.6958 26.2468 10.2443 25.5459 8.91615C25.417 8.66773 25.2635 8.55604 24.9722 8.56438C24.2528 8.58364 23.5322 8.55283 22.8135 8.58107C22.573 8.59272 22.3407 8.67098 22.1425 8.80703C21.2736 9.43483 20.4272 10.0909 19.5641 10.7328C19.4797 10.797 19.3289 10.856 19.2541 10.8214C19.1793 10.7867 19.1464 10.6288 19.1445 10.5242C19.1355 9.97853 19.1316 9.4329 19.1484 8.88727C19.1561 8.64591 19.0639 8.5785 18.8358 8.56631C18.1209 8.51881 17.7799 8.14713 17.778 7.42626C17.7741 6.05704 17.7715 4.68783 17.778 3.31797C17.778 3.0612 17.7135 2.91677 17.4331 2.89045C17.0599 2.85515 16.6893 2.78775 16.3161 2.74859C13.7951 2.48604 11.4417 3.01691 9.27143 4.29947C6.63315 5.85869 4.90373 8.14071 3.99487 11.0486C3.95426 11.2059 3.9259 11.3715 3.87756 11.5763ZM16.757 8.89946C16.5945 8.97649 16.4888 9.02271 16.387 9.07471C15.8243 9.36357 15.2719 9.67426 14.6975 9.93937C12.6123 10.9023 10.4433 11.5891 8.15436 11.8773C7.93456 11.9049 7.8585 11.9948 7.85914 12.2021C7.86172 14.0629 7.86172 15.9244 7.85914 17.7868C7.85914 17.9736 7.91587 18.0661 8.12858 18.0982C8.78606 18.197 9.44417 18.301 10.0913 18.4499C12.2829 18.9539 14.3456 19.7813 16.3077 20.8674C16.4411 20.9412 16.5836 20.9958 16.7589 21.078L16.757 8.89946ZM19.4965 10.3265C19.6995 10.1878 19.8187 10.1108 19.9373 10.0247C20.598 9.52919 21.2645 9.04197 21.9124 8.531C22.1604 8.32806 22.4746 8.22278 22.7954 8.23508C24.374 8.24856 25.9539 8.24342 27.5318 8.23957C28.1835 8.23957 28.4272 7.98986 28.4278 7.34088C28.4278 5.61925 28.4278 3.89741 28.4278 2.17536C28.4278 1.58543 28.1996 1.35498 27.6118 1.35113C26.4734 1.34471 25.3351 1.34664 24.1955 1.34599C22.4237 1.34599 20.6515 1.34599 18.8789 1.34599C18.4206 1.34599 18.1441 1.56874 18.1422 1.97187C18.134 3.8437 18.134 5.71554 18.1422 7.58738C18.1422 7.90385 18.3446 8.12723 18.6578 8.19656C18.7842 8.22151 18.9126 8.23462 19.0414 8.23572C19.4958 8.24792 19.4965 8.24535 19.4965 8.71074C19.4971 9.21593 19.4965 9.71919 19.4965 10.3265V10.3265ZM7.53234 14.9919H7.52654C7.52654 14.0932 7.52138 13.1945 7.52976 12.2959C7.52976 12.0391 7.44403 11.9428 7.1746 11.9454C6.0253 11.9563 4.87601 11.9454 3.72737 11.9454C2.90423 11.9454 2.57227 12.2663 2.57356 13.0886C2.57356 14.4148 2.5871 15.7404 2.59612 17.0685C2.59999 17.6636 2.95709 18.0186 3.563 18.0205C4.76579 18.0244 5.96858 18.0134 7.17266 18.0282C7.46466 18.0314 7.53943 17.9274 7.53557 17.6552C7.52654 16.7675 7.53234 15.8816 7.53234 14.9919ZM19.2953 18.6509C19.3185 18.6978 19.3466 18.7421 19.3791 18.7831C20.7328 19.8994 22.0864 21.017 23.4535 22.1211C23.5251 22.1789 23.7294 22.1737 23.8036 22.114C25.1366 21.0382 26.4592 19.9495 27.7826 18.8614C27.8458 18.7963 27.9031 18.7259 27.954 18.6509H19.2953ZM4.16568 18.3781C4.20049 18.5379 4.21596 18.6425 4.24625 18.7427C4.77095 20.4816 5.29241 22.2219 5.82677 23.9576C6.02853 24.6137 6.65635 24.9667 7.24486 24.7851C7.92231 24.5771 8.24074 23.9647 8.02867 23.2631C7.89331 22.8137 7.74376 22.3644 7.60647 21.915C7.27773 20.8424 6.95673 19.7672 6.61897 18.6971C6.58029 18.5751 6.45524 18.3928 6.365 18.3896C5.6508 18.3646 4.93338 18.3761 4.16568 18.3761V18.3781ZM19.2741 24.4763L19.3031 24.5655H27.9985C27.9758 24.5131 27.9466 24.4637 27.9115 24.4185C26.9092 23.5962 25.9075 22.772 24.8948 21.9619C24.8304 21.9099 24.6525 21.9259 24.5725 21.9786C24.344 22.138 24.1267 22.3128 23.9222 22.5017C23.721 22.6815 23.5483 22.7072 23.3382 22.5062C23.1448 22.322 22.9127 22.1801 22.7142 22.001C22.5647 21.8656 22.4564 21.8682 22.303 22.001C21.8621 22.3753 21.4064 22.7322 20.9577 23.0981C20.3961 23.5556 19.8349 24.0147 19.2741 24.4756V24.4763ZM18.9402 18.8986L18.8493 18.923V24.3717L22.2385 21.5966L18.9402 18.8986ZM28.4052 18.8909C28.338 18.9156 28.2732 18.9465 28.2119 18.9834C27.2067 19.8029 26.2027 20.6233 25.1997 21.4445C25.0418 21.5729 25.0869 21.6628 25.221 21.7725C26.1937 22.5634 27.1625 23.3593 28.1339 24.1508C28.2212 24.21 28.3126 24.2632 28.4072 24.31L28.4052 18.8909ZM18.9299 14.9463C18.9415 14.0977 18.2717 13.269 17.4396 13.0803C17.2262 13.0315 17.1366 13.0848 17.1373 13.3043C17.1373 14.4046 17.1373 15.505 17.1373 16.6057C17.1373 16.8721 17.2436 16.9369 17.4982 16.8663C18.3265 16.6397 18.9195 15.8547 18.9312 14.9483L18.9299 14.9463ZM2.18939 16.4651V13.5303C2.0276 13.6009 1.92382 13.6542 1.81424 13.692C1.48551 13.8057 1.36304 14.0201 1.38882 14.3731C1.4204 14.8411 1.38882 15.3122 1.40171 15.7853C1.40171 15.8913 1.43458 16.0421 1.50807 16.0935C1.70338 16.2295 1.92834 16.3258 2.18939 16.4651ZM7.53363 20.445C7.68833 20.9188 7.83143 21.3816 7.99967 21.8354C8.019 21.8887 8.17821 21.8913 8.27297 21.917C8.29488 21.838 8.35032 21.7501 8.33227 21.6814C8.24203 21.3322 8.12794 20.9894 8.0319 20.6421C7.96808 20.4072 7.83658 20.3288 7.53363 20.4437V20.445Z"/>
</mask>
<path d="M8.38964 24.1778C8.32518 24.2831 8.28328 24.3453 8.24461 24.4082C7.89653 24.9751 7.38538 25.253 6.72661 25.1554C6.08848 25.0611 5.66627 24.665 5.47934 24.0468C4.94305 22.2777 4.40869 20.5079 3.88851 18.7343C3.80923 18.4654 3.69514 18.3588 3.4025 18.3569C2.80368 18.353 2.29188 17.8433 2.25578 17.2258C2.2416 16.978 2.16876 16.8111 1.93027 16.7424C1.16901 16.5235 0.907959 16.0312 1.02785 15.259C1.09231 14.8302 1.02785 14.3827 1.04912 13.9456C1.05745 13.8771 1.07969 13.8109 1.11449 13.7512C1.14928 13.6915 1.19591 13.6395 1.25152 13.5983C1.49131 13.4398 1.77428 13.3448 2.01342 13.1856C2.13517 13.0984 2.21833 12.9678 2.24547 12.821C2.32024 12.1457 2.63931 11.7727 3.29034 11.6045C3.35419 11.5826 3.41242 11.547 3.46088 11.5002C3.50934 11.4534 3.54685 11.3965 3.57073 11.3336C4.39515 8.23187 6.19225 5.84264 8.89757 4.12743C10.4066 3.16914 12.1224 2.58108 13.904 2.41158C15.0869 2.29283 16.2626 2.31144 17.4286 2.55152C17.7019 2.60801 17.7883 2.5374 17.7941 2.25688C17.7907 1.99319 17.8395 1.73142 17.9378 1.48657C18.0842 1.16561 18.3891 1.00193 18.75 1.00193C21.768 0.999358 24.7857 0.999358 27.8032 1.00193C28.0211 0.999845 28.2327 1.07483 28.4003 1.21353C28.5679 1.35224 28.6807 1.54566 28.7185 1.75939C28.7508 1.91632 28.7668 2.07614 28.7662 2.23634C28.7696 3.937 28.7696 5.63744 28.7662 7.33767C28.7662 8.20683 28.402 8.56823 27.5331 8.57208C26.9768 8.57529 26.4212 8.57208 25.7715 8.57208C27.3965 11.7175 27.6698 14.9059 26.5791 18.2323C26.7429 18.2503 26.8647 18.2741 26.9865 18.2753C27.4377 18.2805 27.8889 18.2753 28.3401 18.2753C28.7346 18.2753 28.7662 18.3068 28.7668 18.6939C28.7668 19.6354 28.7668 20.5768 28.7668 21.5183C28.7668 22.5242 28.7591 23.5295 28.7668 24.5353C28.7701 24.8274 28.6669 24.9243 28.3711 24.9237C25.944 24.9139 23.5161 24.9139 21.0873 24.9237C20.8757 24.927 20.6674 24.9763 20.4769 25.0681C18.4671 26.0432 16.3515 26.404 14.1284 26.2236C12.1708 26.0644 10.3846 25.4289 8.73384 24.3871C8.63458 24.3197 8.52436 24.2574 8.38964 24.1778ZM3.87756 11.5763C4.0503 11.5878 4.17471 11.6026 4.29976 11.6026C4.99784 11.6026 5.69721 11.5827 6.39465 11.6084C7.93714 11.6649 9.42871 11.3792 10.9029 10.9761C12.9133 10.4266 14.7961 9.57669 16.6061 8.55732C16.7351 8.48478 16.8968 8.4713 17.0438 8.42894C17.0702 8.57016 17.1179 8.71138 17.1186 8.8526C17.1276 9.97596 17.1379 11.0993 17.1244 12.2227C17.1205 12.527 17.2004 12.6675 17.5182 12.7465C18.6069 13.0155 19.3115 13.9366 19.2979 15.0125C19.2943 15.5361 19.1114 16.0429 18.7793 16.449C18.4473 16.855 17.986 17.1361 17.4718 17.2457C17.2088 17.3054 17.1231 17.4075 17.125 17.67C17.1341 18.8678 17.125 20.0663 17.1205 21.2648C17.1205 21.5947 17.0187 21.6499 16.7338 21.501C15.8069 21.0298 14.8909 20.5381 13.9466 20.1022C12.1111 19.2598 10.1568 18.7024 8.15179 18.4493C7.75666 18.3986 7.35702 18.3851 6.87873 18.3504C7.0199 18.8126 7.12368 19.1798 7.24486 19.5412C7.40987 20.0336 7.28353 20.0445 7.9178 20.0599C8.04027 20.0631 8.23623 20.1491 8.2691 20.2422C8.46634 20.8064 8.63136 21.3829 8.79637 21.958C8.85503 22.1628 8.78219 22.2918 8.53854 22.2867C8.41349 22.2867 8.28779 22.3002 8.11956 22.3111C8.15179 22.4465 8.1737 22.546 8.19884 22.6449C8.26974 22.9248 8.37352 23.2002 8.40317 23.4839C8.42638 23.7028 8.50244 23.8491 8.68744 23.9441C9.52539 24.3742 10.3324 24.8865 11.209 25.2145C13.9524 26.2416 16.7112 26.2031 19.4455 25.131C19.5218 25.0942 19.5948 25.0513 19.664 25.0027L19.6383 24.9192C19.394 24.9192 19.1484 24.9019 18.906 24.9237C18.5753 24.9526 18.4819 24.8165 18.4838 24.4988C18.4954 22.5833 18.489 20.6684 18.4896 18.7536C18.4896 18.2792 18.4896 18.2779 18.9827 18.2779C21.26 18.2779 23.538 18.2715 25.8153 18.2779C26.0834 18.2779 26.2104 18.1913 26.2962 17.9313C26.8056 16.4053 26.9852 14.7894 26.8234 13.1894C26.6807 11.6958 26.2468 10.2443 25.5459 8.91615C25.417 8.66773 25.2635 8.55604 24.9722 8.56438C24.2528 8.58364 23.5322 8.55283 22.8135 8.58107C22.573 8.59272 22.3407 8.67098 22.1425 8.80703C21.2736 9.43483 20.4272 10.0909 19.5641 10.7328C19.4797 10.797 19.3289 10.856 19.2541 10.8214C19.1793 10.7867 19.1464 10.6288 19.1445 10.5242C19.1355 9.97853 19.1316 9.4329 19.1484 8.88727C19.1561 8.64591 19.0639 8.5785 18.8358 8.56631C18.1209 8.51881 17.7799 8.14713 17.778 7.42626C17.7741 6.05704 17.7715 4.68783 17.778 3.31797C17.778 3.0612 17.7135 2.91677 17.4331 2.89045C17.0599 2.85515 16.6893 2.78775 16.3161 2.74859C13.7951 2.48604 11.4417 3.01691 9.27143 4.29947C6.63315 5.85869 4.90373 8.14071 3.99487 11.0486C3.95426 11.2059 3.9259 11.3715 3.87756 11.5763ZM16.757 8.89946C16.5945 8.97649 16.4888 9.02271 16.387 9.07471C15.8243 9.36357 15.2719 9.67426 14.6975 9.93937C12.6123 10.9023 10.4433 11.5891 8.15436 11.8773C7.93456 11.9049 7.8585 11.9948 7.85914 12.2021C7.86172 14.0629 7.86172 15.9244 7.85914 17.7868C7.85914 17.9736 7.91587 18.0661 8.12858 18.0982C8.78606 18.197 9.44417 18.301 10.0913 18.4499C12.2829 18.9539 14.3456 19.7813 16.3077 20.8674C16.4411 20.9412 16.5836 20.9958 16.7589 21.078L16.757 8.89946ZM19.4965 10.3265C19.6995 10.1878 19.8187 10.1108 19.9373 10.0247C20.598 9.52919 21.2645 9.04197 21.9124 8.531C22.1604 8.32806 22.4746 8.22278 22.7954 8.23508C24.374 8.24856 25.9539 8.24342 27.5318 8.23957C28.1835 8.23957 28.4272 7.98986 28.4278 7.34088C28.4278 5.61925 28.4278 3.89741 28.4278 2.17536C28.4278 1.58543 28.1996 1.35498 27.6118 1.35113C26.4734 1.34471 25.3351 1.34664 24.1955 1.34599C22.4237 1.34599 20.6515 1.34599 18.8789 1.34599C18.4206 1.34599 18.1441 1.56874 18.1422 1.97187C18.134 3.8437 18.134 5.71554 18.1422 7.58738C18.1422 7.90385 18.3446 8.12723 18.6578 8.19656C18.7842 8.22151 18.9126 8.23462 19.0414 8.23572C19.4958 8.24792 19.4965 8.24535 19.4965 8.71074C19.4971 9.21593 19.4965 9.71919 19.4965 10.3265V10.3265ZM7.53234 14.9919H7.52654C7.52654 14.0932 7.52138 13.1945 7.52976 12.2959C7.52976 12.0391 7.44403 11.9428 7.1746 11.9454C6.0253 11.9563 4.87601 11.9454 3.72737 11.9454C2.90423 11.9454 2.57227 12.2663 2.57356 13.0886C2.57356 14.4148 2.5871 15.7404 2.59612 17.0685C2.59999 17.6636 2.95709 18.0186 3.563 18.0205C4.76579 18.0244 5.96858 18.0134 7.17266 18.0282C7.46466 18.0314 7.53943 17.9274 7.53557 17.6552C7.52654 16.7675 7.53234 15.8816 7.53234 14.9919ZM19.2953 18.6509C19.3185 18.6978 19.3466 18.7421 19.3791 18.7831C20.7328 19.8994 22.0864 21.017 23.4535 22.1211C23.5251 22.1789 23.7294 22.1737 23.8036 22.114C25.1366 21.0382 26.4592 19.9495 27.7826 18.8614C27.8458 18.7963 27.9031 18.7259 27.954 18.6509H19.2953ZM4.16568 18.3781C4.20049 18.5379 4.21596 18.6425 4.24625 18.7427C4.77095 20.4816 5.29241 22.2219 5.82677 23.9576C6.02853 24.6137 6.65635 24.9667 7.24486 24.7851C7.92231 24.5771 8.24074 23.9647 8.02867 23.2631C7.89331 22.8137 7.74376 22.3644 7.60647 21.915C7.27773 20.8424 6.95673 19.7672 6.61897 18.6971C6.58029 18.5751 6.45524 18.3928 6.365 18.3896C5.6508 18.3646 4.93338 18.3761 4.16568 18.3761V18.3781ZM19.2741 24.4763L19.3031 24.5655H27.9985C27.9758 24.5131 27.9466 24.4637 27.9115 24.4185C26.9092 23.5962 25.9075 22.772 24.8948 21.9619C24.8304 21.9099 24.6525 21.9259 24.5725 21.9786C24.344 22.138 24.1267 22.3128 23.9222 22.5017C23.721 22.6815 23.5483 22.7072 23.3382 22.5062C23.1448 22.322 22.9127 22.1801 22.7142 22.001C22.5647 21.8656 22.4564 21.8682 22.303 22.001C21.8621 22.3753 21.4064 22.7322 20.9577 23.0981C20.3961 23.5556 19.8349 24.0147 19.2741 24.4756V24.4763ZM18.9402 18.8986L18.8493 18.923V24.3717L22.2385 21.5966L18.9402 18.8986ZM28.4052 18.8909C28.338 18.9156 28.2732 18.9465 28.2119 18.9834C27.2067 19.8029 26.2027 20.6233 25.1997 21.4445C25.0418 21.5729 25.0869 21.6628 25.221 21.7725C26.1937 22.5634 27.1625 23.3593 28.1339 24.1508C28.2212 24.21 28.3126 24.2632 28.4072 24.31L28.4052 18.8909ZM18.9299 14.9463C18.9415 14.0977 18.2717 13.269 17.4396 13.0803C17.2262 13.0315 17.1366 13.0848 17.1373 13.3043C17.1373 14.4046 17.1373 15.505 17.1373 16.6057C17.1373 16.8721 17.2436 16.9369 17.4982 16.8663C18.3265 16.6397 18.9195 15.8547 18.9312 14.9483L18.9299 14.9463ZM2.18939 16.4651V13.5303C2.0276 13.6009 1.92382 13.6542 1.81424 13.692C1.48551 13.8057 1.36304 14.0201 1.38882 14.3731C1.4204 14.8411 1.38882 15.3122 1.40171 15.7853C1.40171 15.8913 1.43458 16.0421 1.50807 16.0935C1.70338 16.2295 1.92834 16.3258 2.18939 16.4651ZM7.53363 20.445C7.68833 20.9188 7.83143 21.3816 7.99967 21.8354C8.019 21.8887 8.17821 21.8913 8.27297 21.917C8.29488 21.838 8.35032 21.7501 8.33227 21.6814C8.24203 21.3322 8.12794 20.9894 8.0319 20.6421C7.96808 20.4072 7.83658 20.3288 7.53363 20.4437V20.445Z" fill="#6651E6"/>
<path d="M8.38964 24.1778C8.32518 24.2831 8.28328 24.3453 8.24461 24.4082C7.89653 24.9751 7.38538 25.253 6.72661 25.1554C6.08848 25.0611 5.66627 24.665 5.47934 24.0468C4.94305 22.2777 4.40869 20.5079 3.88851 18.7343C3.80923 18.4654 3.69514 18.3588 3.4025 18.3569C2.80368 18.353 2.29188 17.8433 2.25578 17.2258C2.2416 16.978 2.16876 16.8111 1.93027 16.7424C1.16901 16.5235 0.907959 16.0312 1.02785 15.259C1.09231 14.8302 1.02785 14.3827 1.04912 13.9456C1.05745 13.8771 1.07969 13.8109 1.11449 13.7512C1.14928 13.6915 1.19591 13.6395 1.25152 13.5983C1.49131 13.4398 1.77428 13.3448 2.01342 13.1856C2.13517 13.0984 2.21833 12.9678 2.24547 12.821C2.32024 12.1457 2.63931 11.7727 3.29034 11.6045C3.35419 11.5826 3.41242 11.547 3.46088 11.5002C3.50934 11.4534 3.54685 11.3965 3.57073 11.3336C4.39515 8.23187 6.19225 5.84264 8.89757 4.12743C10.4066 3.16914 12.1224 2.58108 13.904 2.41158C15.0869 2.29283 16.2626 2.31144 17.4286 2.55152C17.7019 2.60801 17.7883 2.5374 17.7941 2.25688C17.7907 1.99319 17.8395 1.73142 17.9378 1.48657C18.0842 1.16561 18.3891 1.00193 18.75 1.00193C21.768 0.999358 24.7857 0.999358 27.8032 1.00193C28.0211 0.999845 28.2327 1.07483 28.4003 1.21353C28.5679 1.35224 28.6807 1.54566 28.7185 1.75939C28.7508 1.91632 28.7668 2.07614 28.7662 2.23634C28.7696 3.937 28.7696 5.63744 28.7662 7.33767C28.7662 8.20683 28.402 8.56823 27.5331 8.57208C26.9768 8.57529 26.4212 8.57208 25.7715 8.57208C27.3965 11.7175 27.6698 14.9059 26.5791 18.2323C26.7429 18.2503 26.8647 18.2741 26.9865 18.2753C27.4377 18.2805 27.8889 18.2753 28.3401 18.2753C28.7346 18.2753 28.7662 18.3068 28.7668 18.6939C28.7668 19.6354 28.7668 20.5768 28.7668 21.5183C28.7668 22.5242 28.7591 23.5295 28.7668 24.5353C28.7701 24.8274 28.6669 24.9243 28.3711 24.9237C25.944 24.9139 23.5161 24.9139 21.0873 24.9237C20.8757 24.927 20.6674 24.9763 20.4769 25.0681C18.4671 26.0432 16.3515 26.404 14.1284 26.2236C12.1708 26.0644 10.3846 25.4289 8.73384 24.3871C8.63458 24.3197 8.52436 24.2574 8.38964 24.1778ZM3.87756 11.5763C4.0503 11.5878 4.17471 11.6026 4.29976 11.6026C4.99784 11.6026 5.69721 11.5827 6.39465 11.6084C7.93714 11.6649 9.42871 11.3792 10.9029 10.9761C12.9133 10.4266 14.7961 9.57669 16.6061 8.55732C16.7351 8.48478 16.8968 8.4713 17.0438 8.42894C17.0702 8.57016 17.1179 8.71138 17.1186 8.8526C17.1276 9.97596 17.1379 11.0993 17.1244 12.2227C17.1205 12.527 17.2004 12.6675 17.5182 12.7465C18.6069 13.0155 19.3115 13.9366 19.2979 15.0125C19.2943 15.5361 19.1114 16.0429 18.7793 16.449C18.4473 16.855 17.986 17.1361 17.4718 17.2457C17.2088 17.3054 17.1231 17.4075 17.125 17.67C17.1341 18.8678 17.125 20.0663 17.1205 21.2648C17.1205 21.5947 17.0187 21.6499 16.7338 21.501C15.8069 21.0298 14.8909 20.5381 13.9466 20.1022C12.1111 19.2598 10.1568 18.7024 8.15179 18.4493C7.75666 18.3986 7.35702 18.3851 6.87873 18.3504C7.0199 18.8126 7.12368 19.1798 7.24486 19.5412C7.40987 20.0336 7.28353 20.0445 7.9178 20.0599C8.04027 20.0631 8.23623 20.1491 8.2691 20.2422C8.46634 20.8064 8.63136 21.3829 8.79637 21.958C8.85503 22.1628 8.78219 22.2918 8.53854 22.2867C8.41349 22.2867 8.28779 22.3002 8.11956 22.3111C8.15179 22.4465 8.1737 22.546 8.19884 22.6449C8.26974 22.9248 8.37352 23.2002 8.40317 23.4839C8.42638 23.7028 8.50244 23.8491 8.68744 23.9441C9.52539 24.3742 10.3324 24.8865 11.209 25.2145C13.9524 26.2416 16.7112 26.2031 19.4455 25.131C19.5218 25.0942 19.5948 25.0513 19.664 25.0027L19.6383 24.9192C19.394 24.9192 19.1484 24.9019 18.906 24.9237C18.5753 24.9526 18.4819 24.8165 18.4838 24.4988C18.4954 22.5833 18.489 20.6684 18.4896 18.7536C18.4896 18.2792 18.4896 18.2779 18.9827 18.2779C21.26 18.2779 23.538 18.2715 25.8153 18.2779C26.0834 18.2779 26.2104 18.1913 26.2962 17.9313C26.8056 16.4053 26.9852 14.7894 26.8234 13.1894C26.6807 11.6958 26.2468 10.2443 25.5459 8.91615C25.417 8.66773 25.2635 8.55604 24.9722 8.56438C24.2528 8.58364 23.5322 8.55283 22.8135 8.58107C22.573 8.59272 22.3407 8.67098 22.1425 8.80703C21.2736 9.43483 20.4272 10.0909 19.5641 10.7328C19.4797 10.797 19.3289 10.856 19.2541 10.8214C19.1793 10.7867 19.1464 10.6288 19.1445 10.5242C19.1355 9.97853 19.1316 9.4329 19.1484 8.88727C19.1561 8.64591 19.0639 8.5785 18.8358 8.56631C18.1209 8.51881 17.7799 8.14713 17.778 7.42626C17.7741 6.05704 17.7715 4.68783 17.778 3.31797C17.778 3.0612 17.7135 2.91677 17.4331 2.89045C17.0599 2.85515 16.6893 2.78775 16.3161 2.74859C13.7951 2.48604 11.4417 3.01691 9.27143 4.29947C6.63315 5.85869 4.90373 8.14071 3.99487 11.0486C3.95426 11.2059 3.9259 11.3715 3.87756 11.5763ZM16.757 8.89946C16.5945 8.97649 16.4888 9.02271 16.387 9.07471C15.8243 9.36357 15.2719 9.67426 14.6975 9.93937C12.6123 10.9023 10.4433 11.5891 8.15436 11.8773C7.93456 11.9049 7.8585 11.9948 7.85914 12.2021C7.86172 14.0629 7.86172 15.9244 7.85914 17.7868C7.85914 17.9736 7.91587 18.0661 8.12858 18.0982C8.78606 18.197 9.44417 18.301 10.0913 18.4499C12.2829 18.9539 14.3456 19.7813 16.3077 20.8674C16.4411 20.9412 16.5836 20.9958 16.7589 21.078L16.757 8.89946ZM19.4965 10.3265C19.6995 10.1878 19.8187 10.1108 19.9373 10.0247C20.598 9.52919 21.2645 9.04197 21.9124 8.531C22.1604 8.32806 22.4746 8.22278 22.7954 8.23508C24.374 8.24856 25.9539 8.24342 27.5318 8.23957C28.1835 8.23957 28.4272 7.98986 28.4278 7.34088C28.4278 5.61925 28.4278 3.89741 28.4278 2.17536C28.4278 1.58543 28.1996 1.35498 27.6118 1.35113C26.4734 1.34471 25.3351 1.34664 24.1955 1.34599C22.4237 1.34599 20.6515 1.34599 18.8789 1.34599C18.4206 1.34599 18.1441 1.56874 18.1422 1.97187C18.134 3.8437 18.134 5.71554 18.1422 7.58738C18.1422 7.90385 18.3446 8.12723 18.6578 8.19656C18.7842 8.22151 18.9126 8.23462 19.0414 8.23572C19.4958 8.24792 19.4965 8.24535 19.4965 8.71074C19.4971 9.21593 19.4965 9.71919 19.4965 10.3265V10.3265ZM7.53234 14.9919H7.52654C7.52654 14.0932 7.52138 13.1945 7.52976 12.2959C7.52976 12.0391 7.44403 11.9428 7.1746 11.9454C6.0253 11.9563 4.87601 11.9454 3.72737 11.9454C2.90423 11.9454 2.57227 12.2663 2.57356 13.0886C2.57356 14.4148 2.5871 15.7404 2.59612 17.0685C2.59999 17.6636 2.95709 18.0186 3.563 18.0205C4.76579 18.0244 5.96858 18.0134 7.17266 18.0282C7.46466 18.0314 7.53943 17.9274 7.53557 17.6552C7.52654 16.7675 7.53234 15.8816 7.53234 14.9919ZM19.2953 18.6509C19.3185 18.6978 19.3466 18.7421 19.3791 18.7831C20.7328 19.8994 22.0864 21.017 23.4535 22.1211C23.5251 22.1789 23.7294 22.1737 23.8036 22.114C25.1366 21.0382 26.4592 19.9495 27.7826 18.8614C27.8458 18.7963 27.9031 18.7259 27.954 18.6509H19.2953ZM4.16568 18.3781C4.20049 18.5379 4.21596 18.6425 4.24625 18.7427C4.77095 20.4816 5.29241 22.2219 5.82677 23.9576C6.02853 24.6137 6.65635 24.9667 7.24486 24.7851C7.92231 24.5771 8.24074 23.9647 8.02867 23.2631C7.89331 22.8137 7.74376 22.3644 7.60647 21.915C7.27773 20.8424 6.95673 19.7672 6.61897 18.6971C6.58029 18.5751 6.45524 18.3928 6.365 18.3896C5.6508 18.3646 4.93338 18.3761 4.16568 18.3761V18.3781ZM19.2741 24.4763L19.3031 24.5655H27.9985C27.9758 24.5131 27.9466 24.4637 27.9115 24.4185C26.9092 23.5962 25.9075 22.772 24.8948 21.9619C24.8304 21.9099 24.6525 21.9259 24.5725 21.9786C24.344 22.138 24.1267 22.3128 23.9222 22.5017C23.721 22.6815 23.5483 22.7072 23.3382 22.5062C23.1448 22.322 22.9127 22.1801 22.7142 22.001C22.5647 21.8656 22.4564 21.8682 22.303 22.001C21.8621 22.3753 21.4064 22.7322 20.9577 23.0981C20.3961 23.5556 19.8349 24.0147 19.2741 24.4756V24.4763ZM18.9402 18.8986L18.8493 18.923V24.3717L22.2385 21.5966L18.9402 18.8986ZM28.4052 18.8909C28.338 18.9156 28.2732 18.9465 28.2119 18.9834C27.2067 19.8029 26.2027 20.6233 25.1997 21.4445C25.0418 21.5729 25.0869 21.6628 25.221 21.7725C26.1937 22.5634 27.1625 23.3593 28.1339 24.1508C28.2212 24.21 28.3126 24.2632 28.4072 24.31L28.4052 18.8909ZM18.9299 14.9463C18.9415 14.0977 18.2717 13.269 17.4396 13.0803C17.2262 13.0315 17.1366 13.0848 17.1373 13.3043C17.1373 14.4046 17.1373 15.505 17.1373 16.6057C17.1373 16.8721 17.2436 16.9369 17.4982 16.8663C18.3265 16.6397 18.9195 15.8547 18.9312 14.9483L18.9299 14.9463ZM2.18939 16.4651V13.5303C2.0276 13.6009 1.92382 13.6542 1.81424 13.692C1.48551 13.8057 1.36304 14.0201 1.38882 14.3731C1.4204 14.8411 1.38882 15.3122 1.40171 15.7853C1.40171 15.8913 1.43458 16.0421 1.50807 16.0935C1.70338 16.2295 1.92834 16.3258 2.18939 16.4651ZM7.53363 20.445C7.68833 20.9188 7.83143 21.3816 7.99967 21.8354C8.019 21.8887 8.17821 21.8913 8.27297 21.917C8.29488 21.838 8.35032 21.7501 8.33227 21.6814C8.24203 21.3322 8.12794 20.9894 8.0319 20.6421C7.96808 20.4072 7.83658 20.3288 7.53363 20.4437V20.445Z" stroke="#6651E6" stroke-width="0.4" mask="url(#path-1-outside-1)"/>
<path d="M9.84412 2.11098L9.87715 2.08188L9.878 2.03787C9.88033 1.91607 9.85507 1.78733 9.73958 1.73478C9.68653 1.71064 9.62897 1.71087 9.57601 1.72071C9.52267 1.73062 9.46542 1.75184 9.40596 1.77989L9.40547 1.78013C6.07908 3.37183 3.71065 5.86816 2.30367 9.26567C2.24021 9.40911 2.19353 9.55935 2.16454 9.71343L2.1645 9.71342L2.16403 9.71636C2.1534 9.78385 2.18211 9.84573 2.20107 9.88285C2.20897 9.89831 2.21799 9.91447 2.22586 9.92859C2.22832 9.93299 2.23066 9.9372 2.23283 9.94112C2.2428 9.95918 2.25036 9.97366 2.25574 9.98644L2.29757 10.0857L2.39346 10.0366C2.40782 10.0293 2.42372 10.0221 2.44207 10.0141C2.44505 10.0128 2.44812 10.0114 2.45126 10.0101C2.46655 10.0034 2.48347 9.99598 2.49978 9.98828C2.53801 9.97022 2.58578 9.94478 2.62314 9.90507C2.66166 9.86412 2.68254 9.81438 2.69643 9.77491C2.70272 9.75703 2.70841 9.73869 2.71342 9.7225C2.71406 9.72042 2.7147 9.71837 2.71532 9.71636C2.72105 9.69792 2.72605 9.68223 2.73146 9.66789C3.38303 7.95713 4.37962 6.3974 5.65981 5.08492L5.66005 5.08467C6.77909 3.92939 8.10182 2.98872 9.56234 2.30957L9.56247 2.30984L9.56918 2.30607C9.66744 2.25084 9.7596 2.18545 9.84412 2.11098Z" fill="#6651E6" stroke="#6651E6" stroke-width="0.2"/>
<path d="M10.1306 27.1306L10.1305 27.1306C10.0523 27.0987 9.99871 27.0323 9.96097 26.9793C9.94625 26.9586 9.9316 26.9364 9.91816 26.9161C9.91377 26.9094 9.90952 26.903 9.90543 26.8968C9.88788 26.8705 9.87217 26.8479 9.85642 26.8288L9.73833 26.6855L9.92296 26.6657C9.94654 26.6632 9.97222 26.6585 10.0015 26.6525C10.0084 26.6511 10.0157 26.6496 10.0232 26.6481C10.0456 26.6434 10.07 26.6383 10.0934 26.6342C10.1543 26.6236 10.2334 26.6145 10.3078 26.6407L10.3093 26.6412L10.3093 26.6412C11.7706 27.1818 13.2687 27.518 14.828 27.5645C16.3014 27.5997 17.7708 27.397 19.1791 26.9642L19.1801 26.9639L19.1801 26.9639C19.1994 26.9582 19.2156 26.9514 19.2362 26.9428C19.2485 26.9376 19.2623 26.9318 19.2793 26.9252C19.3173 26.9104 19.3697 26.8926 19.4273 26.8958L19.4376 26.8963L19.4375 26.8969C19.5311 26.9117 19.6222 26.9392 19.7083 26.9785L19.797 27.0189L19.7588 27.1086C19.7189 27.2022 19.6684 27.291 19.6082 27.3731L19.6024 27.3811L19.602 27.3807C19.5625 27.4249 19.5078 27.4424 19.4729 27.4517C19.4559 27.4562 19.4382 27.46 19.4235 27.4632L19.4186 27.4642L10.1306 27.1306ZM10.1306 27.1306C11.796 27.8072 13.5297 28.1213 15.4531 28.097C16.7134 28.1311 18.0565 27.863 19.3772 27.4742L10.1306 27.1306Z" fill="#6651E6" stroke="#6651E6" stroke-width="0.2"/>
<path d="M29.0991 14.435L29.0983 14.4431C29.0863 14.5655 29.074 14.6952 29.0611 14.8303C29.0187 15.2763 28.9706 15.7821 28.9111 16.2861L28.9111 16.2862C28.9089 16.3049 28.9079 16.3221 28.9067 16.3425C28.9057 16.3583 28.9047 16.376 28.9028 16.3979C28.8993 16.4404 28.8929 16.4924 28.8754 16.5404C28.8573 16.5899 28.8244 16.6434 28.7631 16.6756C28.7029 16.7073 28.6322 16.7095 28.5571 16.6931C28.5214 16.6853 28.4969 16.6639 28.4828 16.6486C28.4676 16.6321 28.4559 16.6132 28.4468 16.5959C28.4285 16.561 28.414 16.5185 28.403 16.4763C28.3816 16.3938 28.3686 16.2895 28.3803 16.2099L29.0991 14.435ZM29.0991 14.435L29.0985 14.427M29.0991 14.435L29.0985 14.427M29.0985 14.427C29.0869 14.2466 29.0792 14.0773 29.0718 13.9162C29.0562 13.5758 29.0422 13.2714 28.9971 12.974L28.9971 12.974C28.8781 12.1928 28.7262 11.4161 28.5682 10.6454M29.0985 14.427L28.3214 12.0049M28.3214 12.0049L28.3214 12.0048C28.2867 11.8045 28.2374 11.606 28.1867 11.4038C28.1849 11.3966 28.1831 11.3894 28.1813 11.3822C28.1326 11.1881 28.083 10.9903 28.0463 10.7899L28.1447 10.7719L28.0463 10.79C28.0309 10.7062 28.0497 10.6228 28.0697 10.5548C28.079 10.5229 28.088 10.4957 28.0963 10.4705C28.1085 10.4337 28.1193 10.4011 28.1278 10.3642L28.1707 10.1787L28.2991 10.3193C28.3163 10.3381 28.3374 10.3575 28.3622 10.3794C28.3683 10.3847 28.3747 10.3903 28.3813 10.3961C28.4003 10.4126 28.4208 10.4305 28.4397 10.4482C28.4883 10.4936 28.5507 10.559 28.5682 10.6454M28.3214 12.0049C28.5644 13.3946 28.5843 14.8139 28.3803 16.2098L28.3214 12.0049ZM28.5682 10.6454C28.5682 10.6454 28.5682 10.6455 28.5682 10.6455L28.4702 10.6653L28.5681 10.6452C28.5682 10.6453 28.5682 10.6453 28.5682 10.6454Z" fill="#6651E6" stroke="#6651E6" stroke-width="0.2"/>
<path d="M25.1294 26.0479L25.2745 25.9603C25.2919 25.9498 25.3105 25.9363 25.3322 25.9199C25.337 25.9163 25.3421 25.9124 25.3474 25.9084C25.3643 25.8956 25.383 25.8813 25.4012 25.8685C25.4465 25.8365 25.513 25.7947 25.591 25.7936L25.1294 26.0479ZM25.1294 26.0479L25.2762 26.1325C25.2937 26.1426 25.3124 26.1557 25.3343 26.1718C25.3396 26.1757 25.3453 26.1798 25.3511 26.1842C25.3677 26.1966 25.3862 26.2103 25.4041 26.2226C25.4499 26.2541 25.5164 26.2948 25.5946 26.2956L25.1294 26.0479ZM28.1681 26.3013C28.1682 26.3013 28.1682 26.3013 28.1683 26.3013L28.1649 26.2014L28.168 26.3013C28.168 26.3013 28.1681 26.3013 28.1681 26.3013Z" fill="#6651E6" stroke="#6651E6" stroke-width="0.2"/>
<path d="M4.40272 23.5134L4.43925 23.4715L4.42283 23.4183C4.38839 23.3068 4.35479 23.1983 4.32186 23.092C4.2493 22.8579 4.17994 22.634 4.11175 22.41C4.09263 22.345 4.07373 22.2794 4.05472 22.2134C3.98501 21.9715 3.91394 21.7249 3.82619 21.4862L3.82619 21.4862L3.82595 21.4856C3.79812 21.4115 3.72866 21.3684 3.68512 21.3435C3.667 21.3332 3.64726 21.3229 3.62956 21.3136C3.62362 21.3105 3.61791 21.3075 3.61258 21.3047C3.58962 21.2926 3.57105 21.2822 3.55602 21.2719L3.45576 21.2035L3.40778 21.315C3.40216 21.328 3.39383 21.3433 3.38253 21.3626C3.37984 21.3672 3.37686 21.3722 3.37374 21.3774C3.36503 21.3921 3.35509 21.4088 3.34654 21.4246C3.33467 21.4464 3.32163 21.4729 3.31333 21.5014C3.305 21.5301 3.29948 21.5674 3.3103 21.6073L3.31028 21.6073L3.31079 21.609C3.49287 22.2357 3.68551 22.859 3.88869 23.4789L3.88872 23.479C3.90943 23.542 3.95762 23.5909 4.00081 23.6243C4.04606 23.6592 4.09869 23.6871 4.14646 23.7043L4.14645 23.7043L4.14812 23.7049C4.18942 23.7189 4.22398 23.7043 4.2382 23.6969C4.2543 23.6886 4.26703 23.6778 4.27538 23.67C4.29259 23.6541 4.30948 23.6336 4.32344 23.6159C4.3371 23.5985 4.34894 23.5827 4.3598 23.5682C4.37529 23.5475 4.38879 23.5294 4.40272 23.5134Z" fill="#6651E6" stroke="#6651E6" stroke-width="0.2"/>
<path d="M24.0068 26.3033L24.0236 26.3018C24.1354 26.3086 24.2476 26.3056 24.3589 26.2927L24.359 26.2931L24.3677 26.2913C24.4289 26.2786 24.4765 26.2411 24.5085 26.213C24.5215 26.2017 24.5346 26.1893 24.5461 26.1784C24.5494 26.1754 24.5526 26.1724 24.5556 26.1696C24.5701 26.156 24.5823 26.1451 24.5938 26.1361L24.6749 26.0732L24.6098 25.9938C24.6014 25.9836 24.5921 25.9699 24.5803 25.9516C24.5776 25.9474 24.5747 25.9429 24.5717 25.9382C24.5628 25.9241 24.5526 25.9082 24.5428 25.8939C24.5296 25.8748 24.5126 25.852 24.4922 25.8329C24.4726 25.8146 24.4395 25.7898 24.394 25.786L24.394 25.786L24.3931 25.7859C24.1346 25.7663 23.875 25.765 23.6164 25.782L23.6019 25.7829L23.5883 25.788C23.5358 25.8074 23.4892 25.8402 23.4534 25.8831C23.4175 25.9261 23.3935 25.9778 23.3839 26.0329L23.3818 26.0449L23.3827 26.0571C23.3854 26.0967 23.4035 26.1296 23.4192 26.1519C23.436 26.1758 23.457 26.1971 23.4782 26.2151C23.5186 26.2494 23.5733 26.2825 23.6264 26.2947L23.6263 26.2952L23.6364 26.2965C23.7593 26.3117 23.8834 26.314 24.0068 26.3033Z" fill="#6651E6" stroke="#6651E6" stroke-width="0.2"/>
<path d="M3.52979 20.4644L3.58674 20.4038L3.53751 20.3367L3.20654 19.8861L3.12323 19.7727L3.04352 19.8887C3.03374 19.9029 3.02004 19.9198 3.00276 19.9402C2.99877 19.9449 2.99453 19.9498 2.99015 19.955C2.97693 19.9704 2.96243 19.9874 2.94962 20.0034C2.93286 20.0244 2.91372 20.05 2.90032 20.0767C2.88935 20.0985 2.86763 20.1489 2.89047 20.2035L2.98271 20.1648L2.89016 20.2027C2.94118 20.3274 3.02069 20.4462 3.09305 20.5544C3.11919 20.5935 3.1444 20.6312 3.167 20.6673L3.23541 20.7765L3.32421 20.6831C3.36215 20.6432 3.39995 20.6029 3.44804 20.5516C3.47224 20.5257 3.49905 20.4971 3.52979 20.4644Z" fill="#6651E6" stroke="#6651E6" stroke-width="0.2"/>
<path d="M22.9719 5.3919C23.0715 5.43011 23.1778 5.4479 23.2845 5.44423C23.7222 5.43981 24.1055 5.06533 24.1003 4.63436C24.0951 4.20282 23.7047 3.84239 23.2681 3.84165C23.1614 3.83898 23.0553 3.85798 22.9562 3.89752C22.8567 3.93723 22.7664 3.99681 22.6908 4.07262C22.6152 4.14843 22.556 4.23887 22.5168 4.33838C22.4779 4.43723 22.4595 4.54294 22.4629 4.64908C22.4623 4.75528 22.4832 4.86052 22.5243 4.95852C22.5657 5.05717 22.6267 5.14641 22.7036 5.22089C22.7805 5.29537 22.8718 5.35354 22.9719 5.3919Z" fill="#6651E6" stroke="#6651E6" stroke-width="0.2"/>
<path d="M19.945 4.63907C19.9465 4.8522 20.0322 5.05611 20.1834 5.20671C20.3348 5.35743 20.5396 5.44263 20.7534 5.44397L20.7534 5.44397H20.7541C20.9844 5.44397 21.1856 5.3627 21.3292 5.21747C21.4728 5.07232 21.5528 4.86959 21.5528 4.63786L21.5528 4.63771C21.5524 4.40649 21.4708 4.20364 21.327 4.05844C21.1833 3.91338 20.9828 3.83128 20.7548 3.83175M19.945 4.63907C19.9432 4.53259 19.9629 4.42684 20.003 4.32812C20.0431 4.22922 20.1027 4.13941 20.1784 4.06403C20.2541 3.98865 20.3443 3.92925 20.4435 3.88936C20.5423 3.84959 20.6482 3.83 20.7548 3.83175M19.945 4.63907C19.945 4.63888 19.945 4.63869 19.945 4.63849L20.045 4.63786L19.945 4.63964C19.945 4.63945 19.945 4.63926 19.945 4.63907ZM20.7548 3.83175C20.7551 3.83175 20.7555 3.83176 20.7558 3.83177L20.7541 3.93175L20.7538 3.83175C20.7541 3.83175 20.7545 3.83175 20.7548 3.83175Z" fill="#6651E6" stroke="#6651E6" stroke-width="0.2"/>
<path d="M25.7756 5.44351C26.0069 5.44702 26.209 5.36916 26.3537 5.22512C26.4984 5.08114 26.5787 4.87818 26.5801 4.64444C26.5815 4.4109 26.5045 4.20693 26.3626 4.06042C26.2209 3.91399 26.0213 3.83208 25.791 3.83003C25.6844 3.82691 25.5783 3.84525 25.4789 3.88394C25.3792 3.92277 25.2884 3.98132 25.2119 4.05607C25.1355 4.13082 25.075 4.22024 25.0342 4.31893C24.9935 4.41725 24.9731 4.52274 24.9743 4.6291M25.7756 5.44351C25.6694 5.44252 25.5643 5.42067 25.4665 5.37921C25.3686 5.33771 25.2799 5.27736 25.2054 5.20161C25.1309 5.12586 25.0721 5.03619 25.0325 4.93773C24.9929 4.83966 24.9732 4.73479 24.9743 4.6291M25.7756 5.44351C25.7755 5.44351 25.7754 5.44351 25.7753 5.44351L25.7769 5.34353L25.776 5.44352C25.7759 5.44352 25.7757 5.44352 25.7756 5.44351ZM24.9743 4.6291C24.9743 4.62951 24.9743 4.62992 24.9743 4.63032L25.0743 4.62906L24.9743 4.62787C24.9743 4.62828 24.9743 4.62869 24.9743 4.6291Z" fill="#6651E6" stroke="#6651E6" stroke-width="0.2"/>
</svg>
