<svg width="128" height="26" viewBox="0 0 128 26" fill="none" xmlns="http://www.w3.org/2000/svg">
<path d="M12.7429 13.5765C12.7429 15.4855 12.1748 17.0934 11.0344 18.395C9.84436 19.7588 8.29802 20.4435 6.40511 20.4435C4.50717 20.4435 2.96585 19.7588 1.77575 18.395C0.634916 17.0934 0.0625 15.4855 0.0625 13.5765C0.0625 11.6623 0.634916 10.0549 1.77575 8.75797C2.97906 7.40691 4.52545 6.73171 6.40511 6.73171C8.29802 6.73171 9.84436 7.40691 11.0344 8.75797C12.1748 10.0549 12.7429 11.6623 12.7429 13.5765ZM8.97412 13.5765C8.97412 12.7119 8.76696 11.9821 8.35224 11.392C7.88822 10.7213 7.23885 10.3881 6.40511 10.3881C5.57106 10.3881 4.92194 10.7213 4.45746 11.392C4.03844 11.9821 3.83108 12.7119 3.83108 13.5765C3.83108 14.4364 4.03844 15.1749 4.45746 15.7827C4.92194 16.4534 5.57106 16.7871 6.40511 16.7871C7.23885 16.7871 7.88822 16.4534 8.35224 15.7827C8.76696 15.1749 8.97412 14.4364 8.97412 13.5765ZM26.3698 13.5765C26.3698 15.3596 25.8559 16.9176 24.8235 18.2505C23.7191 19.7094 22.2947 20.4435 20.5637 20.4435C19.3419 20.4435 18.3055 20.0878 17.458 19.3855C17.458 19.5472 17.476 19.9391 17.5122 20.5656C17.5482 21.1953 17.5659 21.7087 17.5659 22.1141C17.5659 24.3527 16.8988 25.4692 15.5648 25.4692C15.0191 25.4692 14.5731 25.2755 14.2168 24.8926C13.8653 24.5057 13.6894 24.041 13.6894 23.4923V8.93371C13.6894 8.40229 13.8698 7.94278 14.2304 7.5559C14.5909 7.17301 15.0374 6.97982 15.5693 6.97982C16.3713 6.97982 16.9575 7.37969 17.3273 8.17739C18.1161 7.21372 19.1935 6.73171 20.5592 6.73171C22.2947 6.73171 23.7146 7.45181 24.8235 8.89775C25.8514 10.2354 26.3698 11.7934 26.3698 13.5765ZM22.601 13.5765C22.601 12.7119 22.3896 11.9821 21.9749 11.392C21.5101 10.7213 20.8613 10.3881 20.0272 10.3881C19.1935 10.3881 18.5444 10.7213 18.0799 11.392C17.6651 11.9821 17.458 12.7119 17.458 13.5765C17.458 14.4364 17.6651 15.1749 18.0799 15.7827C18.5444 16.4534 19.1935 16.7871 20.0272 16.7871C20.8613 16.7871 21.5101 16.4534 21.9749 15.7827C22.3896 15.1749 22.601 14.4364 22.601 13.5765ZM40.0822 13.1716C40.0822 13.8014 39.9333 14.2337 39.6357 14.4773C39.3384 14.7157 38.8741 14.8373 38.2475 14.8373H31.4452C31.4452 15.5578 31.7835 16.1114 32.4596 16.4983C33.005 16.8006 33.6721 16.9541 34.4609 16.9541C35.0743 16.9541 35.8089 16.7507 36.6699 16.3506C37.5309 15.945 38.0851 15.7465 38.3245 15.7465C38.7615 15.7465 39.131 15.9043 39.4376 16.2285C39.7394 16.5485 39.893 16.9356 39.893 17.3816C39.893 18.4123 39.1223 19.2147 37.5801 19.7908C36.4038 20.2228 35.2093 20.4435 33.9879 20.4435C32.0226 20.4435 30.4357 19.7908 29.2232 18.4897C28.0104 17.1879 27.4022 15.5533 27.4022 13.5765C27.4022 11.6938 28.0331 10.0864 29.2951 8.74498C30.5527 7.40241 32.1173 6.73171 33.9832 6.73171C35.7187 6.73171 37.1701 7.3667 38.3334 8.63644C39.496 9.90664 40.0822 11.4195 40.0822 13.1716ZM36.3138 12.2254C36.2956 11.6488 36.0298 11.1267 35.5158 10.6534C35.0018 10.1809 34.4567 9.9471 33.8795 9.9471C33.2846 9.9471 32.7299 10.1809 32.2162 10.6534C31.7025 11.1267 31.4452 11.6488 31.4452 12.2254H36.3138ZM52.7442 18.2186C52.7442 18.7685 52.5686 19.232 52.2174 19.6193C51.861 20.0024 51.4146 20.1961 50.8692 20.1961C49.553 20.1961 48.8946 19.1513 48.8946 17.0664C48.8946 16.6656 48.9218 16.0353 48.9758 15.1662C49.0345 14.3013 49.0618 13.6666 49.0618 13.2658C49.0618 11.0543 48.3449 9.9471 46.916 9.9471C45.4868 9.9471 44.7747 11.0543 44.7747 13.2658C44.7747 13.6666 44.7972 14.3013 44.8377 15.1662C44.8829 16.0353 44.9054 16.6656 44.9054 17.0664C44.9054 19.1513 44.2563 20.1961 42.9583 20.1961C42.4126 20.1961 41.9666 20.0024 41.6148 19.6193C41.2587 19.232 41.0829 18.7685 41.0829 18.2186V8.92972C41.0829 8.38382 41.2587 7.92084 41.6148 7.5469C41.9666 7.16851 42.4173 6.97982 42.9628 6.97982C43.8643 6.97982 44.4906 7.37969 44.8422 8.17739C45.4508 7.21372 46.528 6.73171 48.0698 6.73171C49.4988 6.73171 50.6348 7.10964 51.4688 7.86166C52.3208 8.66836 52.7442 9.7756 52.7442 11.1853V18.2186ZM64.5678 17.8184C64.5678 18.6693 64.0144 19.3445 62.9049 19.8405C62.0263 20.2407 61.0714 20.4464 60.1058 20.4435C58.2073 20.4435 56.6662 19.7588 55.4763 18.395C54.3355 17.0934 53.7631 15.4855 53.7631 13.5765C53.7631 11.6623 54.3447 10.0462 55.5121 8.72206C56.6795 7.39391 58.2073 6.73171 60.1058 6.73171C61.2009 6.73171 62.143 6.89374 62.9279 7.21372C64.0226 7.64602 64.5678 8.32117 64.5678 9.23998C64.5678 9.70348 64.424 10.1133 64.1352 10.4693C63.847 10.8204 63.4768 11.0006 63.0267 11.0006C62.7195 11.0006 62.2777 10.8971 61.7012 10.6949C61.1241 10.4872 60.6649 10.3881 60.327 10.3881C59.4294 10.3881 58.7305 10.7079 58.2303 11.3471C57.7659 11.9236 57.5314 12.6622 57.5314 13.5765C57.5314 14.4364 57.7388 15.1662 58.1586 15.756C58.622 16.4451 59.2763 16.7871 60.1099 16.7871C60.48 16.7871 60.9844 16.679 61.629 16.4579C62.2741 16.2425 62.7385 16.1299 63.0267 16.1299C63.4461 16.1299 63.806 16.3096 64.1132 16.6611C64.4153 17.0168 64.5678 17.3991 64.5678 17.8184ZM78.2669 18.2186C78.2669 18.7685 78.0913 19.232 77.7396 19.6193C77.3837 20.0024 76.9332 20.1961 76.3869 20.1961C75.5666 20.1961 74.9809 19.795 74.6292 18.9981C73.8407 19.962 72.7629 20.4435 71.3974 20.4435C69.6489 20.4435 68.2153 19.7094 67.1058 18.2505C66.0962 16.9176 65.5878 15.3596 65.5878 13.5765C65.5878 11.7934 66.0962 10.2354 67.1058 8.89775C68.2333 7.45181 69.6617 6.73171 71.3974 6.73171C72.7629 6.73171 73.8407 7.21372 74.6292 8.17739C74.9809 7.37969 75.5666 6.97982 76.3869 6.97982C76.9193 6.97982 77.3658 7.17301 77.7268 7.5559C78.0867 7.94278 78.2669 8.39779 78.2669 8.92972V18.2186ZM74.4986 13.5765C74.4986 12.7119 74.2918 11.9821 73.8765 11.392C73.3942 10.7213 72.745 10.3881 71.9294 10.3881C71.0953 10.3881 70.4466 10.7213 69.9817 11.392C69.5629 11.9821 69.3561 12.7119 69.3561 13.5765C69.3561 14.4364 69.5578 15.1749 69.9587 15.7827C70.4374 16.4534 71.0953 16.7871 71.9294 16.7871C72.7629 16.7871 73.4121 16.4534 73.8765 15.7827C74.2918 15.1749 74.4986 14.4364 74.4986 13.5765ZM87.8823 8.68135C87.8823 9.48733 87.4901 10.0412 86.7057 10.3427C85.9802 10.5863 85.2583 10.8344 84.5374 11.0902C83.7479 11.541 83.3562 12.3784 83.3562 13.5945V18.2186C83.3562 18.7685 83.1755 19.232 82.8247 19.6193C82.4679 20.0024 82.0173 20.1961 81.472 20.1961C80.9227 20.1961 80.4711 20.0024 80.1204 19.6193C79.7635 19.232 79.5879 18.7685 79.5879 18.2186V8.92972C79.5879 8.38382 79.7635 7.92084 80.1152 7.5469C80.4711 7.16851 80.9227 6.97982 81.4679 6.97982C82.3691 6.97982 82.9952 7.37969 83.3475 8.17739C84.1544 7.21372 85.0202 6.73171 85.9531 6.73171C86.4845 6.73171 86.9402 6.92494 87.3186 7.30778C87.6923 7.69517 87.8823 8.15443 87.8823 8.68135ZM97.7137 8.85259C97.7137 9.68998 97.3845 10.2169 96.7317 10.4425C96.4107 10.5548 95.7384 10.6132 94.7154 10.6132V18.2186C94.7154 18.7685 94.5352 19.232 94.1845 19.6193C93.8276 20.0024 93.3771 20.1961 92.8318 20.1961C92.3003 20.1961 91.8487 20.0024 91.4878 19.6193C91.1278 19.232 90.9476 18.7685 90.9476 18.2186V10.6132C90.1719 10.6132 89.6087 10.5142 89.2529 10.321C88.7665 10.0507 88.5259 9.5597 88.5259 8.85259C88.5259 8.14594 88.7742 7.66397 89.2744 7.40691C89.6128 7.21771 90.1719 7.1191 90.9476 7.1191V5.50693C90.9476 3.61125 91.5733 2.66573 92.8318 2.66573C94.0846 2.66573 94.7154 3.61125 94.7154 5.50693V7.1191C95.7384 7.1191 96.4107 7.17751 96.7317 7.28983C97.3845 7.51498 97.7137 8.03786 97.7137 8.85259ZM127.989 6.56599C127.979 5.41011 125.84 4.88544 120.306 4.88544C107.319 4.88544 104.025 4.3313 100.499 0.625C101.982 2.85043 102.794 7.02453 116.52 6.81682C130.841 6.59642 122.104 10.5057 119.562 14.9224C124.147 10.8349 127.975 8.14072 127.989 6.58271V6.56599ZM109.74 18.4352C109.74 19.5096 108.855 20.3936 107.779 20.3938C106.693 20.3938 105.814 19.5162 105.814 18.4352C105.814 18.4347 105.814 18.4342 105.814 18.4337C105.814 17.3575 106.7 16.4719 107.778 16.4719C107.779 16.4719 107.779 16.4719 107.779 16.4719C108.862 16.4719 109.74 17.3497 109.74 18.4352ZM118.683 18.4352C118.683 19.5096 117.798 20.3936 116.722 20.3938C115.637 20.3938 114.758 19.5162 114.758 18.4352C114.758 18.4347 114.758 18.4342 114.758 18.4337C114.758 17.3575 115.644 16.4719 116.721 16.4719C116.722 16.4719 116.722 16.4719 116.722 16.4719C117.805 16.4719 118.683 17.3497 118.683 18.4352Z" fill="url(#paint0_linear)"/>
<defs>
<linearGradient id="paint0_linear" x1="64.0256" y1="20.2778" x2="64.0256" y2="0.625052" gradientUnits="userSpaceOnUse">
<stop stop-color="#04B6F0"/>
<stop offset="1" stop-color="#3ECAF0"/>
</linearGradient>
</defs>
</svg>
