<svg width="30" height="30" viewBox="0 0 30 30" fill="none" xmlns="http://www.w3.org/2000/svg">
<mask id="path-1-outside-1" maskUnits="userSpaceOnUse" x="-0.646484" y="1.27148" width="29" height="26" fill="black">
<rect fill="white" x="-0.646484" y="1.27148" width="29" height="26"/>
<path d="M3.31521 23.3573C3.13259 23.1098 3.00663 22.9357 2.87733 22.7636C1.65316 21.1467 0.811306 19.2895 0.41135 17.3231C0.380026 17.169 0.252059 16.9576 0.521317 16.9092C0.578634 16.8989 0.731259 17.1278 0.759251 17.2625C1.21312 19.4428 2.18152 21.3885 3.60979 23.122C3.65111 23.1723 3.68444 23.2509 3.73709 23.2671C3.89771 23.3141 4.07033 23.3683 4.23028 23.3528C4.28894 23.347 4.32826 23.1517 4.37358 23.0421C4.38158 23.0234 4.37358 22.9995 4.37358 22.9776C4.49621 22.1775 4.1663 21.5361 3.74442 20.8579C1.67833 17.5345 1.32709 13.992 2.68738 10.367C4.05567 6.72453 6.72159 4.25862 10.4959 2.94283C12.2138 2.33448 14.058 2.13546 15.8724 2.36262C16.8654 2.48768 17.8358 2.7823 18.8196 2.98796C18.9651 3.02315 19.1182 3.01574 19.2594 2.96668C22.5852 1.54258 26.2981 3.58816 26.688 7.0733C26.7787 7.88625 26.654 8.67727 26.3714 9.45024C26.3127 9.61746 26.3127 9.79877 26.3714 9.96599C27.0633 11.6699 27.4045 13.4337 27.2832 15.2595C27.1052 17.9426 26.1422 20.3376 24.3507 22.4058C24.1941 22.5863 24.0174 22.7507 23.8735 22.9421C23.8049 23.0441 23.7729 23.1651 23.7822 23.2864C23.7822 23.3264 23.9615 23.3773 24.0608 23.3805C24.438 23.3915 24.8159 23.3773 25.1938 23.3895C25.3171 23.3941 25.439 23.4501 25.5617 23.4824C25.5244 23.6113 25.5164 23.757 25.4444 23.8634C24.9665 24.5725 24.4753 25.2772 23.9881 25.9831C23.9455 26.0326 23.9082 26.0862 23.8768 26.143C23.6102 26.7877 23.1024 26.8708 22.4385 26.8631C19.3181 26.8283 16.197 26.8489 13.0758 26.8483C10.3879 26.8483 7.69999 26.8483 5.0114 26.8328C4.92768 26.8279 4.84591 26.8063 4.77124 26.7694C4.69657 26.7324 4.63062 26.6809 4.57752 26.6181C3.91437 25.6911 3.27122 24.7485 2.62873 23.8099C2.42879 23.514 2.50343 23.3966 2.882 23.385C2.9973 23.3786 3.11393 23.3689 3.31521 23.3573ZM17.9385 11.7402C17.7652 11.7234 17.6719 11.706 17.5719 11.706C14.0618 11.706 10.5516 11.706 7.0415 11.706C6.57496 11.706 6.49632 11.7917 6.49565 12.2359C6.49565 15.3626 6.49565 18.4893 6.48232 21.616C6.48232 21.9287 6.5843 22.0525 6.90087 22.0119C6.95635 22.0083 7.01201 22.0083 7.06749 22.0119C7.72731 22.0119 7.72731 22.0119 7.74331 21.3736C7.76463 20.5355 8.35847 19.9508 9.21356 19.9482C10.8798 19.9424 12.546 19.9321 14.2122 19.9605C14.5101 19.9656 14.8433 20.0952 15.0926 20.2622C15.5778 20.5845 15.6758 21.1003 15.6258 21.6405C15.5978 21.9397 15.7124 22.0273 16.0177 22.0241C17.7392 22.0125 19.4607 22.0189 21.1822 22.0183C21.6148 22.0183 21.6161 22.0183 21.6161 21.5806C21.6161 18.8196 21.6141 16.0584 21.6101 13.2971C21.6101 12.762 21.6101 12.7613 21.0543 12.6814C20.921 12.6627 20.783 12.6698 20.6604 12.6279C20.2938 12.4989 19.9819 12.6008 19.652 12.7671C18.9035 13.1436 18.1417 13.4937 17.3793 13.8437C17.2853 13.8869 17.158 13.8637 17.046 13.8715C17.0422 13.7609 17.0509 13.6502 17.072 13.5414C17.1208 13.4218 17.1782 13.3057 17.244 13.1939C17.4673 12.7278 17.6892 12.2617 17.9385 11.7395V11.7402ZM4.33825 21.0655C4.35425 20.8585 4.37291 20.7347 4.37291 20.611C4.37291 19.6762 4.37291 18.7414 4.37291 17.8079C4.37291 15.9067 4.40424 14.0043 4.36358 12.1044C4.33492 10.7306 5.51526 9.62818 6.9442 9.63849C10.01 9.66105 13.0758 9.64558 16.1416 9.64494C16.2789 9.64494 16.4162 9.63269 16.5855 9.62495C15.6918 7.04623 16.3589 4.95552 18.551 3.30707C14.4561 1.78498 8.34247 2.68238 4.68816 7.47236C1.14181 12.1186 1.8856 17.7357 4.33825 21.0655ZM17.6186 13.2358L17.7005 13.3119C18.367 12.9953 19.0202 12.6614 19.7 12.3726C19.9372 12.2714 20.2252 12.2507 20.4904 12.2469C21.0743 12.2378 21.6694 12.3403 22.2393 12.2598C24.9718 11.873 26.7773 9.35096 26.2768 6.68778C25.7963 4.13291 23.129 2.39098 20.4731 2.94863C18.5943 3.34189 17.304 4.45847 16.7721 6.24231C16.2216 8.09125 16.6761 9.74422 18.1497 11.091C18.5183 11.4268 18.5136 11.4236 18.283 11.8813C18.0524 12.3391 17.8385 12.7845 17.6186 13.2358ZM23.3696 12.3668C22.9971 12.459 22.6725 12.5763 22.3379 12.6118C22.0273 12.6453 21.966 12.7768 21.9667 13.0476C21.9725 16.0019 21.9725 18.9563 21.9667 21.9106C21.9667 22.3439 21.9513 22.3619 21.4941 22.3619L6.60029 22.3677C6.15175 22.3677 6.13909 22.3542 6.13909 21.9087V13.6871C6.13909 13.1501 6.12909 12.6124 6.13909 12.0754C6.14908 11.6241 6.39435 11.3869 6.86355 11.3662C7.20746 11.3521 7.55203 11.3566 7.8966 11.3566C11.0068 11.3566 14.1171 11.3585 17.2273 11.3624C17.4053 11.3624 17.5832 11.3398 17.7958 11.325C17.4913 10.9291 17.2113 10.5971 16.9714 10.24C16.9245 10.157 16.8538 10.089 16.7678 10.044C16.6819 9.99907 16.5843 9.97913 16.4869 9.98662C13.2878 9.99242 10.0887 9.98662 6.88954 9.99242C5.62323 9.99242 4.71148 10.8885 4.70549 12.1147C4.70082 12.9741 4.70549 13.8334 4.70549 14.6934C4.70549 17.4651 4.70371 20.2373 4.70015 23.0098C4.70015 23.2438 4.72481 23.3889 5.03339 23.3863C6.81023 23.3734 8.58707 23.3747 10.3652 23.3812C11.5143 23.385 11.257 23.2168 11.6189 24.2309C11.7155 24.5016 11.8555 24.5951 12.1467 24.5906C13.246 24.5755 14.3455 24.5732 15.4452 24.5835C16.3116 24.5906 16.3116 24.6009 16.6122 23.7989C16.6171 23.7893 16.6213 23.7794 16.6248 23.7693C16.6961 23.4701 16.8814 23.3741 17.2033 23.376C19.1248 23.3902 21.0463 23.376 22.9677 23.3902C23.3083 23.3902 23.4003 23.2896 23.3989 22.9673C23.3883 19.573 23.3929 16.1781 23.3916 12.7813C23.3969 12.6556 23.3836 12.5344 23.3696 12.3668ZM25.0498 23.7396H17.9618C17.0321 23.7396 17.0227 23.7396 16.7361 24.5835C16.6448 24.8517 16.5035 24.9555 16.2083 24.9522C14.9653 24.94 13.7216 24.9523 12.476 24.9452C11.291 24.9368 11.5622 25.1025 11.1937 24.0813C11.1004 23.8234 10.9631 23.7422 10.6865 23.7428C8.29982 23.7493 5.91248 23.7428 3.52515 23.7428C3.39785 23.7428 3.27122 23.7596 3.10926 23.7712C3.13847 23.8538 3.17412 23.9342 3.2159 24.0117C3.74376 24.7808 4.26561 25.5544 4.81546 26.3093C4.89677 26.4208 5.10804 26.4963 5.26067 26.4982C6.46966 26.5137 7.67933 26.5072 8.88899 26.5072H14.4168C15.9275 26.5072 17.4368 26.5072 18.9449 26.5072C20.2552 26.5072 21.5655 26.4924 22.8771 26.4911C23.1037 26.4911 23.2377 26.3938 23.359 26.2158C23.8048 25.5608 24.266 24.9161 24.7192 24.2663C24.8152 24.1225 24.9005 23.9749 25.0498 23.7396ZM26.0495 10.1465C25.9389 10.2896 25.8716 10.3708 25.8096 10.4559C25.3591 11.0813 24.8139 11.6164 24.1147 11.9709C23.8068 12.127 23.7229 12.3184 23.7289 12.6311C23.7502 13.8753 23.7595 15.1202 23.7568 16.3657C23.7568 18.2759 23.7415 20.1861 23.7369 22.0963C23.7434 22.2029 23.7579 22.3089 23.7802 22.4135C25.701 20.386 26.7327 18.02 26.9186 15.322C27.0438 13.5547 26.7447 11.7834 26.0449 10.1465H26.0495ZM11.6762 22.0177C12.6413 22.0177 13.609 22.0241 14.5707 22.0177C15.3359 22.0112 15.2865 22.1659 15.2625 21.293C15.2465 20.6948 14.83 20.3138 14.2148 20.3112C12.5397 20.3043 10.8649 20.3043 9.19024 20.3112C8.6024 20.3112 8.2345 20.6335 8.14986 21.1931C8.12587 21.3517 8.13453 21.5155 8.11787 21.674C8.08921 21.9416 8.20851 22.028 8.48176 22.0248C9.54613 22.0112 10.6112 22.0177 11.6762 22.0177Z"/>
</mask>
<path d="M3.31521 23.3573C3.13259 23.1098 3.00663 22.9357 2.87733 22.7636C1.65316 21.1467 0.811306 19.2895 0.41135 17.3231C0.380026 17.169 0.252059 16.9576 0.521317 16.9092C0.578634 16.8989 0.731259 17.1278 0.759251 17.2625C1.21312 19.4428 2.18152 21.3885 3.60979 23.122C3.65111 23.1723 3.68444 23.2509 3.73709 23.2671C3.89771 23.3141 4.07033 23.3683 4.23028 23.3528C4.28894 23.347 4.32826 23.1517 4.37358 23.0421C4.38158 23.0234 4.37358 22.9995 4.37358 22.9776C4.49621 22.1775 4.1663 21.5361 3.74442 20.8579C1.67833 17.5345 1.32709 13.992 2.68738 10.367C4.05567 6.72453 6.72159 4.25862 10.4959 2.94283C12.2138 2.33448 14.058 2.13546 15.8724 2.36262C16.8654 2.48768 17.8358 2.7823 18.8196 2.98796C18.9651 3.02315 19.1182 3.01574 19.2594 2.96668C22.5852 1.54258 26.2981 3.58816 26.688 7.0733C26.7787 7.88625 26.654 8.67727 26.3714 9.45024C26.3127 9.61746 26.3127 9.79877 26.3714 9.96599C27.0633 11.6699 27.4045 13.4337 27.2832 15.2595C27.1052 17.9426 26.1422 20.3376 24.3507 22.4058C24.1941 22.5863 24.0174 22.7507 23.8735 22.9421C23.8049 23.0441 23.7729 23.1651 23.7822 23.2864C23.7822 23.3264 23.9615 23.3773 24.0608 23.3805C24.438 23.3915 24.8159 23.3773 25.1938 23.3895C25.3171 23.3941 25.439 23.4501 25.5617 23.4824C25.5244 23.6113 25.5164 23.757 25.4444 23.8634C24.9665 24.5725 24.4753 25.2772 23.9881 25.9831C23.9455 26.0326 23.9082 26.0862 23.8768 26.143C23.6102 26.7877 23.1024 26.8708 22.4385 26.8631C19.3181 26.8283 16.197 26.8489 13.0758 26.8483C10.3879 26.8483 7.69999 26.8483 5.0114 26.8328C4.92768 26.8279 4.84591 26.8063 4.77124 26.7694C4.69657 26.7324 4.63062 26.6809 4.57752 26.6181C3.91437 25.6911 3.27122 24.7485 2.62873 23.8099C2.42879 23.514 2.50343 23.3966 2.882 23.385C2.9973 23.3786 3.11393 23.3689 3.31521 23.3573ZM17.9385 11.7402C17.7652 11.7234 17.6719 11.706 17.5719 11.706C14.0618 11.706 10.5516 11.706 7.0415 11.706C6.57496 11.706 6.49632 11.7917 6.49565 12.2359C6.49565 15.3626 6.49565 18.4893 6.48232 21.616C6.48232 21.9287 6.5843 22.0525 6.90087 22.0119C6.95635 22.0083 7.01201 22.0083 7.06749 22.0119C7.72731 22.0119 7.72731 22.0119 7.74331 21.3736C7.76463 20.5355 8.35847 19.9508 9.21356 19.9482C10.8798 19.9424 12.546 19.9321 14.2122 19.9605C14.5101 19.9656 14.8433 20.0952 15.0926 20.2622C15.5778 20.5845 15.6758 21.1003 15.6258 21.6405C15.5978 21.9397 15.7124 22.0273 16.0177 22.0241C17.7392 22.0125 19.4607 22.0189 21.1822 22.0183C21.6148 22.0183 21.6161 22.0183 21.6161 21.5806C21.6161 18.8196 21.6141 16.0584 21.6101 13.2971C21.6101 12.762 21.6101 12.7613 21.0543 12.6814C20.921 12.6627 20.783 12.6698 20.6604 12.6279C20.2938 12.4989 19.9819 12.6008 19.652 12.7671C18.9035 13.1436 18.1417 13.4937 17.3793 13.8437C17.2853 13.8869 17.158 13.8637 17.046 13.8715C17.0422 13.7609 17.0509 13.6502 17.072 13.5414C17.1208 13.4218 17.1782 13.3057 17.244 13.1939C17.4673 12.7278 17.6892 12.2617 17.9385 11.7395V11.7402ZM4.33825 21.0655C4.35425 20.8585 4.37291 20.7347 4.37291 20.611C4.37291 19.6762 4.37291 18.7414 4.37291 17.8079C4.37291 15.9067 4.40424 14.0043 4.36358 12.1044C4.33492 10.7306 5.51526 9.62818 6.9442 9.63849C10.01 9.66105 13.0758 9.64558 16.1416 9.64494C16.2789 9.64494 16.4162 9.63269 16.5855 9.62495C15.6918 7.04623 16.3589 4.95552 18.551 3.30707C14.4561 1.78498 8.34247 2.68238 4.68816 7.47236C1.14181 12.1186 1.8856 17.7357 4.33825 21.0655ZM17.6186 13.2358L17.7005 13.3119C18.367 12.9953 19.0202 12.6614 19.7 12.3726C19.9372 12.2714 20.2252 12.2507 20.4904 12.2469C21.0743 12.2378 21.6694 12.3403 22.2393 12.2598C24.9718 11.873 26.7773 9.35096 26.2768 6.68778C25.7963 4.13291 23.129 2.39098 20.4731 2.94863C18.5943 3.34189 17.304 4.45847 16.7721 6.24231C16.2216 8.09125 16.6761 9.74422 18.1497 11.091C18.5183 11.4268 18.5136 11.4236 18.283 11.8813C18.0524 12.3391 17.8385 12.7845 17.6186 13.2358ZM23.3696 12.3668C22.9971 12.459 22.6725 12.5763 22.3379 12.6118C22.0273 12.6453 21.966 12.7768 21.9667 13.0476C21.9725 16.0019 21.9725 18.9563 21.9667 21.9106C21.9667 22.3439 21.9513 22.3619 21.4941 22.3619L6.60029 22.3677C6.15175 22.3677 6.13909 22.3542 6.13909 21.9087V13.6871C6.13909 13.1501 6.12909 12.6124 6.13909 12.0754C6.14908 11.6241 6.39435 11.3869 6.86355 11.3662C7.20746 11.3521 7.55203 11.3566 7.8966 11.3566C11.0068 11.3566 14.1171 11.3585 17.2273 11.3624C17.4053 11.3624 17.5832 11.3398 17.7958 11.325C17.4913 10.9291 17.2113 10.5971 16.9714 10.24C16.9245 10.157 16.8538 10.089 16.7678 10.044C16.6819 9.99907 16.5843 9.97913 16.4869 9.98662C13.2878 9.99242 10.0887 9.98662 6.88954 9.99242C5.62323 9.99242 4.71148 10.8885 4.70549 12.1147C4.70082 12.9741 4.70549 13.8334 4.70549 14.6934C4.70549 17.4651 4.70371 20.2373 4.70015 23.0098C4.70015 23.2438 4.72481 23.3889 5.03339 23.3863C6.81023 23.3734 8.58707 23.3747 10.3652 23.3812C11.5143 23.385 11.257 23.2168 11.6189 24.2309C11.7155 24.5016 11.8555 24.5951 12.1467 24.5906C13.246 24.5755 14.3455 24.5732 15.4452 24.5835C16.3116 24.5906 16.3116 24.6009 16.6122 23.7989C16.6171 23.7893 16.6213 23.7794 16.6248 23.7693C16.6961 23.4701 16.8814 23.3741 17.2033 23.376C19.1248 23.3902 21.0463 23.376 22.9677 23.3902C23.3083 23.3902 23.4003 23.2896 23.3989 22.9673C23.3883 19.573 23.3929 16.1781 23.3916 12.7813C23.3969 12.6556 23.3836 12.5344 23.3696 12.3668ZM25.0498 23.7396H17.9618C17.0321 23.7396 17.0227 23.7396 16.7361 24.5835C16.6448 24.8517 16.5035 24.9555 16.2083 24.9522C14.9653 24.94 13.7216 24.9523 12.476 24.9452C11.291 24.9368 11.5622 25.1025 11.1937 24.0813C11.1004 23.8234 10.9631 23.7422 10.6865 23.7428C8.29982 23.7493 5.91248 23.7428 3.52515 23.7428C3.39785 23.7428 3.27122 23.7596 3.10926 23.7712C3.13847 23.8538 3.17412 23.9342 3.2159 24.0117C3.74376 24.7808 4.26561 25.5544 4.81546 26.3093C4.89677 26.4208 5.10804 26.4963 5.26067 26.4982C6.46966 26.5137 7.67933 26.5072 8.88899 26.5072H14.4168C15.9275 26.5072 17.4368 26.5072 18.9449 26.5072C20.2552 26.5072 21.5655 26.4924 22.8771 26.4911C23.1037 26.4911 23.2377 26.3938 23.359 26.2158C23.8048 25.5608 24.266 24.9161 24.7192 24.2663C24.8152 24.1225 24.9005 23.9749 25.0498 23.7396ZM26.0495 10.1465C25.9389 10.2896 25.8716 10.3708 25.8096 10.4559C25.3591 11.0813 24.8139 11.6164 24.1147 11.9709C23.8068 12.127 23.7229 12.3184 23.7289 12.6311C23.7502 13.8753 23.7595 15.1202 23.7568 16.3657C23.7568 18.2759 23.7415 20.1861 23.7369 22.0963C23.7434 22.2029 23.7579 22.3089 23.7802 22.4135C25.701 20.386 26.7327 18.02 26.9186 15.322C27.0438 13.5547 26.7447 11.7834 26.0449 10.1465H26.0495ZM11.6762 22.0177C12.6413 22.0177 13.609 22.0241 14.5707 22.0177C15.3359 22.0112 15.2865 22.1659 15.2625 21.293C15.2465 20.6948 14.83 20.3138 14.2148 20.3112C12.5397 20.3043 10.8649 20.3043 9.19024 20.3112C8.6024 20.3112 8.2345 20.6335 8.14986 21.1931C8.12587 21.3517 8.13453 21.5155 8.11787 21.674C8.08921 21.9416 8.20851 22.028 8.48176 22.0248C9.54613 22.0112 10.6112 22.0177 11.6762 22.0177Z" fill="#6651E6"/>
<path d="M3.31521 23.3573C3.13259 23.1098 3.00663 22.9357 2.87733 22.7636C1.65316 21.1467 0.811306 19.2895 0.41135 17.3231C0.380026 17.169 0.252059 16.9576 0.521317 16.9092C0.578634 16.8989 0.731259 17.1278 0.759251 17.2625C1.21312 19.4428 2.18152 21.3885 3.60979 23.122C3.65111 23.1723 3.68444 23.2509 3.73709 23.2671C3.89771 23.3141 4.07033 23.3683 4.23028 23.3528C4.28894 23.347 4.32826 23.1517 4.37358 23.0421C4.38158 23.0234 4.37358 22.9995 4.37358 22.9776C4.49621 22.1775 4.1663 21.5361 3.74442 20.8579C1.67833 17.5345 1.32709 13.992 2.68738 10.367C4.05567 6.72453 6.72159 4.25862 10.4959 2.94283C12.2138 2.33448 14.058 2.13546 15.8724 2.36262C16.8654 2.48768 17.8358 2.7823 18.8196 2.98796C18.9651 3.02315 19.1182 3.01574 19.2594 2.96668C22.5852 1.54258 26.2981 3.58816 26.688 7.0733C26.7787 7.88625 26.654 8.67727 26.3714 9.45024C26.3127 9.61746 26.3127 9.79877 26.3714 9.96599C27.0633 11.6699 27.4045 13.4337 27.2832 15.2595C27.1052 17.9426 26.1422 20.3376 24.3507 22.4058C24.1941 22.5863 24.0174 22.7507 23.8735 22.9421C23.8049 23.0441 23.7729 23.1651 23.7822 23.2864C23.7822 23.3264 23.9615 23.3773 24.0608 23.3805C24.438 23.3915 24.8159 23.3773 25.1938 23.3895C25.3171 23.3941 25.439 23.4501 25.5617 23.4824C25.5244 23.6113 25.5164 23.757 25.4444 23.8634C24.9665 24.5725 24.4753 25.2772 23.9881 25.9831C23.9455 26.0326 23.9082 26.0862 23.8768 26.143C23.6102 26.7877 23.1024 26.8708 22.4385 26.8631C19.3181 26.8283 16.197 26.8489 13.0758 26.8483C10.3879 26.8483 7.69999 26.8483 5.0114 26.8328C4.92768 26.8279 4.84591 26.8063 4.77124 26.7694C4.69657 26.7324 4.63062 26.6809 4.57752 26.6181C3.91437 25.6911 3.27122 24.7485 2.62873 23.8099C2.42879 23.514 2.50343 23.3966 2.882 23.385C2.9973 23.3786 3.11393 23.3689 3.31521 23.3573ZM17.9385 11.7402C17.7652 11.7234 17.6719 11.706 17.5719 11.706C14.0618 11.706 10.5516 11.706 7.0415 11.706C6.57496 11.706 6.49632 11.7917 6.49565 12.2359C6.49565 15.3626 6.49565 18.4893 6.48232 21.616C6.48232 21.9287 6.5843 22.0525 6.90087 22.0119C6.95635 22.0083 7.01201 22.0083 7.06749 22.0119C7.72731 22.0119 7.72731 22.0119 7.74331 21.3736C7.76463 20.5355 8.35847 19.9508 9.21356 19.9482C10.8798 19.9424 12.546 19.9321 14.2122 19.9605C14.5101 19.9656 14.8433 20.0952 15.0926 20.2622C15.5778 20.5845 15.6758 21.1003 15.6258 21.6405C15.5978 21.9397 15.7124 22.0273 16.0177 22.0241C17.7392 22.0125 19.4607 22.0189 21.1822 22.0183C21.6148 22.0183 21.6161 22.0183 21.6161 21.5806C21.6161 18.8196 21.6141 16.0584 21.6101 13.2971C21.6101 12.762 21.6101 12.7613 21.0543 12.6814C20.921 12.6627 20.783 12.6698 20.6604 12.6279C20.2938 12.4989 19.9819 12.6008 19.652 12.7671C18.9035 13.1436 18.1417 13.4937 17.3793 13.8437C17.2853 13.8869 17.158 13.8637 17.046 13.8715C17.0422 13.7609 17.0509 13.6502 17.072 13.5414C17.1208 13.4218 17.1782 13.3057 17.244 13.1939C17.4673 12.7278 17.6892 12.2617 17.9385 11.7395V11.7402ZM4.33825 21.0655C4.35425 20.8585 4.37291 20.7347 4.37291 20.611C4.37291 19.6762 4.37291 18.7414 4.37291 17.8079C4.37291 15.9067 4.40424 14.0043 4.36358 12.1044C4.33492 10.7306 5.51526 9.62818 6.9442 9.63849C10.01 9.66105 13.0758 9.64558 16.1416 9.64494C16.2789 9.64494 16.4162 9.63269 16.5855 9.62495C15.6918 7.04623 16.3589 4.95552 18.551 3.30707C14.4561 1.78498 8.34247 2.68238 4.68816 7.47236C1.14181 12.1186 1.8856 17.7357 4.33825 21.0655ZM17.6186 13.2358L17.7005 13.3119C18.367 12.9953 19.0202 12.6614 19.7 12.3726C19.9372 12.2714 20.2252 12.2507 20.4904 12.2469C21.0743 12.2378 21.6694 12.3403 22.2393 12.2598C24.9718 11.873 26.7773 9.35096 26.2768 6.68778C25.7963 4.13291 23.129 2.39098 20.4731 2.94863C18.5943 3.34189 17.304 4.45847 16.7721 6.24231C16.2216 8.09125 16.6761 9.74422 18.1497 11.091C18.5183 11.4268 18.5136 11.4236 18.283 11.8813C18.0524 12.3391 17.8385 12.7845 17.6186 13.2358ZM23.3696 12.3668C22.9971 12.459 22.6725 12.5763 22.3379 12.6118C22.0273 12.6453 21.966 12.7768 21.9667 13.0476C21.9725 16.0019 21.9725 18.9563 21.9667 21.9106C21.9667 22.3439 21.9513 22.3619 21.4941 22.3619L6.60029 22.3677C6.15175 22.3677 6.13909 22.3542 6.13909 21.9087V13.6871C6.13909 13.1501 6.12909 12.6124 6.13909 12.0754C6.14908 11.6241 6.39435 11.3869 6.86355 11.3662C7.20746 11.3521 7.55203 11.3566 7.8966 11.3566C11.0068 11.3566 14.1171 11.3585 17.2273 11.3624C17.4053 11.3624 17.5832 11.3398 17.7958 11.325C17.4913 10.9291 17.2113 10.5971 16.9714 10.24C16.9245 10.157 16.8538 10.089 16.7678 10.044C16.6819 9.99907 16.5843 9.97913 16.4869 9.98662C13.2878 9.99242 10.0887 9.98662 6.88954 9.99242C5.62323 9.99242 4.71148 10.8885 4.70549 12.1147C4.70082 12.9741 4.70549 13.8334 4.70549 14.6934C4.70549 17.4651 4.70371 20.2373 4.70015 23.0098C4.70015 23.2438 4.72481 23.3889 5.03339 23.3863C6.81023 23.3734 8.58707 23.3747 10.3652 23.3812C11.5143 23.385 11.257 23.2168 11.6189 24.2309C11.7155 24.5016 11.8555 24.5951 12.1467 24.5906C13.246 24.5755 14.3455 24.5732 15.4452 24.5835C16.3116 24.5906 16.3116 24.6009 16.6122 23.7989C16.6171 23.7893 16.6213 23.7794 16.6248 23.7693C16.6961 23.4701 16.8814 23.3741 17.2033 23.376C19.1248 23.3902 21.0463 23.376 22.9677 23.3902C23.3083 23.3902 23.4003 23.2896 23.3989 22.9673C23.3883 19.573 23.3929 16.1781 23.3916 12.7813C23.3969 12.6556 23.3836 12.5344 23.3696 12.3668ZM25.0498 23.7396H17.9618C17.0321 23.7396 17.0227 23.7396 16.7361 24.5835C16.6448 24.8517 16.5035 24.9555 16.2083 24.9522C14.9653 24.94 13.7216 24.9523 12.476 24.9452C11.291 24.9368 11.5622 25.1025 11.1937 24.0813C11.1004 23.8234 10.9631 23.7422 10.6865 23.7428C8.29982 23.7493 5.91248 23.7428 3.52515 23.7428C3.39785 23.7428 3.27122 23.7596 3.10926 23.7712C3.13847 23.8538 3.17412 23.9342 3.2159 24.0117C3.74376 24.7808 4.26561 25.5544 4.81546 26.3093C4.89677 26.4208 5.10804 26.4963 5.26067 26.4982C6.46966 26.5137 7.67933 26.5072 8.88899 26.5072H14.4168C15.9275 26.5072 17.4368 26.5072 18.9449 26.5072C20.2552 26.5072 21.5655 26.4924 22.8771 26.4911C23.1037 26.4911 23.2377 26.3938 23.359 26.2158C23.8048 25.5608 24.266 24.9161 24.7192 24.2663C24.8152 24.1225 24.9005 23.9749 25.0498 23.7396ZM26.0495 10.1465C25.9389 10.2896 25.8716 10.3708 25.8096 10.4559C25.3591 11.0813 24.8139 11.6164 24.1147 11.9709C23.8068 12.127 23.7229 12.3184 23.7289 12.6311C23.7502 13.8753 23.7595 15.1202 23.7568 16.3657C23.7568 18.2759 23.7415 20.1861 23.7369 22.0963C23.7434 22.2029 23.7579 22.3089 23.7802 22.4135C25.701 20.386 26.7327 18.02 26.9186 15.322C27.0438 13.5547 26.7447 11.7834 26.0449 10.1465H26.0495ZM11.6762 22.0177C12.6413 22.0177 13.609 22.0241 14.5707 22.0177C15.3359 22.0112 15.2865 22.1659 15.2625 21.293C15.2465 20.6948 14.83 20.3138 14.2148 20.3112C12.5397 20.3043 10.8649 20.3043 9.19024 20.3112C8.6024 20.3112 8.2345 20.6335 8.14986 21.1931C8.12587 21.3517 8.13453 21.5155 8.11787 21.674C8.08921 21.9416 8.20851 22.028 8.48176 22.0248C9.54613 22.0112 10.6112 22.0177 11.6762 22.0177Z" stroke="#6651E6" stroke-width="0.4" mask="url(#path-1-outside-1)"/>
<path d="M1.87595 8.06514C1.86396 8.00631 1.85426 7.94879 1.87714 7.91028L1.8831 7.89979C2.09507 7.5274 2.30799 7.15335 2.55361 6.80207M1.87595 8.06514L11.0313 0.893988M1.87595 8.06514C1.87218 8.06621 1.86841 8.0673 1.86465 8.06842L1.89313 8.16428L1.99277 8.15576C1.99228 8.15012 1.99168 8.14448 1.99099 8.13888C2.05493 8.12302 2.11827 8.10569 2.16972 8.07209C2.20777 8.04611 2.22959 7.99685 2.25133 7.94777C2.26195 7.92379 2.27255 7.89985 2.28502 7.87869L1.87595 8.06514ZM2.55361 6.80207C4.63036 3.83009 7.4789 1.89863 11.0559 0.990915L11.0313 0.893999C11.0313 0.893995 11.0313 0.893991 11.0313 0.893988M2.55361 6.80207L2.47164 6.74479M2.55361 6.80207L2.47166 6.74476C2.47165 6.74477 2.47165 6.74478 2.47164 6.74479M11.0313 0.893988C11.6577 0.734739 12.3037 0.636487 12.944 0.539105C13.2365 0.494628 13.5278 0.450333 13.8154 0.400492L13.9183 0.382667L13.9274 0.45308C13.9375 0.454127 13.9476 0.455594 13.9576 0.457482L13.9693 0.459684L13.9802 0.464573C14.0701 0.505087 14.1587 0.54969 14.2452 0.593203C14.2724 0.606915 14.2995 0.620518 14.3262 0.633851L14.4981 0.7194L14.3295 0.811199C14.2975 0.828601 14.2699 0.847723 14.2382 0.869664C14.2179 0.883693 14.196 0.898875 14.1702 0.915497C14.1132 0.952229 14.0391 0.993921 13.9546 0.999177L13.9542 0.999202C10.9124 1.17601 8.19468 2.16395 5.81189 4.00332C4.41353 5.08468 3.24527 6.41777 2.37159 7.92874L2.37118 7.92946C2.36129 7.94622 2.35464 7.96139 2.34608 7.98093C2.3403 7.99411 2.33365 8.00929 2.32454 8.02828C2.30667 8.06556 2.27792 8.1193 2.22611 8.15468L2.22441 8.15583L2.2244 8.15582C2.17237 8.1898 2.11467 8.2092 2.06385 8.22326C2.04133 8.2295 2.01843 8.23513 1.99723 8.24033C1.99434 8.24104 1.99148 8.24175 1.98866 8.24244C1.96445 8.2484 1.94243 8.25395 1.92161 8.26014L1.80395 8.2951L1.79349 8.1728C1.79218 8.1574 1.78901 8.13931 1.78445 8.1167C1.78342 8.11159 1.78229 8.10611 1.7811 8.10038C1.77749 8.08287 1.77339 8.06303 1.77026 8.04439C1.76293 8.00067 1.75271 7.92486 1.79059 7.86017L1.79724 7.84849C2.00848 7.47737 2.22334 7.09989 2.47164 6.74479M11.0313 0.893988C7.43189 1.80739 4.56263 3.75243 2.47164 6.74479" fill="#6651E6" stroke="#6651E6" stroke-width="0.2"/>
<path d="M11.5978 28.1465L11.5481 28.0597C11.5947 28.033 11.6459 28.0377 11.6691 28.04C11.6844 28.0415 11.6948 28.0429 11.703 28.044C11.7141 28.0455 11.7212 28.0465 11.7311 28.0465H15.1874H15.2874V28.0478H18.5138C18.5261 28.0478 18.5399 28.0469 18.5569 28.0455C18.5603 28.0452 18.5639 28.0449 18.5677 28.0446C18.5813 28.0434 18.597 28.042 18.6119 28.0412C18.6494 28.0392 18.7017 28.039 18.7522 28.06L18.7592 28.0629L18.7591 28.0631C18.8659 28.1174 18.9684 28.1791 19.066 28.2478L19.1987 28.3413L19.0555 28.4178C19.0289 28.432 19.0018 28.4467 18.9743 28.4617C18.899 28.5026 18.8207 28.5451 18.7415 28.5829L18.7299 28.5885L18.7172 28.5909C18.6756 28.5988 18.6329 28.5994 18.5911 28.5927H11.7464C11.7371 28.5927 11.7262 28.5934 11.712 28.5947C11.7093 28.5949 11.7064 28.5952 11.7033 28.5955C11.6919 28.5965 11.6782 28.5978 11.6652 28.5985C11.6342 28.6002 11.5842 28.6011 11.5372 28.5777L11.5324 28.5753L11.5325 28.5752C11.4435 28.5248 11.3585 28.4679 11.2782 28.4051L11.1726 28.3225L11.2819 28.2448C11.3035 28.2295 11.3264 28.2125 11.3503 28.1946C11.4114 28.149 11.4794 28.0983 11.5488 28.0593L11.5978 28.1465ZM11.5978 28.1465C11.6194 28.1341 11.6503 28.1381 11.6822 28.1422C11.6986 28.1443 11.7153 28.1465 11.7311 28.1465H15.0874H11.5978Z" fill="#6651E6" stroke="#6651E6" stroke-width="0.2"/>
<path d="M28.9129 17.4999L28.9294 17.4491L28.8963 17.4072L28.7203 17.1842L28.6521 17.0977L28.5726 17.1739C28.5572 17.1887 28.5387 17.2038 28.5166 17.221C28.5111 17.2252 28.5053 17.2297 28.4993 17.2343C28.4825 17.2473 28.464 17.2615 28.447 17.2754C28.4029 17.3118 28.3448 17.365 28.3208 17.4389L28.3207 17.439C28.2416 17.6838 28.1701 17.9309 28.0991 18.1762C28.0864 18.22 28.0738 18.2637 28.0611 18.3073C27.9772 18.5962 27.892 18.8822 27.7931 19.163C27.3665 20.3689 26.7334 21.4754 25.9661 22.515C25.9224 22.5742 25.9144 22.6462 25.9114 22.6971C25.9103 22.7168 25.9098 22.7378 25.9094 22.7564C25.9092 22.7629 25.9091 22.769 25.9089 22.7748C25.9083 22.7991 25.9072 22.8192 25.9048 22.8368L25.8875 22.9635L26.0147 22.9497C26.1298 22.9373 26.243 22.9118 26.352 22.8738L26.3522 22.8743L26.3615 22.87C26.4181 22.8435 26.4547 22.7964 26.4788 22.7607C26.4906 22.7432 26.5017 22.7249 26.5113 22.709L26.5133 22.7058C26.5235 22.6887 26.5323 22.6744 26.5412 22.6614C27.2422 21.7086 27.8112 20.6711 28.2339 19.5752L28.2342 19.5744C28.4108 19.1047 28.5605 18.6237 28.7111 18.1399C28.7774 17.9269 28.8439 17.7133 28.9129 17.4999Z" fill="#6651E6" stroke="#6651E6" stroke-width="0.2"/>
<path d="M16.3297 0.535475L16.3671 0.542207C16.5332 0.572111 16.6944 0.600476 16.8519 0.628185C17.2933 0.705846 17.7054 0.778354 18.1136 0.865152C18.1967 0.882756 18.2593 0.942065 18.3027 0.987918C18.3189 1.00492 18.3355 1.02364 18.3507 1.04085C18.3569 1.04778 18.3628 1.05447 18.3684 1.06071C18.3892 1.08392 18.4078 1.10358 18.4259 1.11965L18.5599 1.23878L18.3881 1.29021C18.3626 1.29784 18.3356 1.30816 18.3055 1.32028C18.2984 1.32313 18.2911 1.32612 18.2835 1.3292C18.2604 1.33861 18.2354 1.34877 18.2112 1.35775C18.148 1.38111 18.0681 1.40511 17.9855 1.39334L16.3297 0.535475ZM16.3297 0.535475L16.2972 0.555275M16.3297 0.535475L16.2972 0.555275M16.2972 0.555275L16.028 0.719668L15.8963 0.800044M16.2972 0.555275L15.8963 0.800044M15.8963 0.800044L16.0234 0.887424M15.8963 0.800044L16.0234 0.887424M16.0234 0.887424C16.0539 0.908348 16.0795 0.929705 16.1084 0.953828C16.128 0.970256 16.1493 0.987966 16.1746 1.00769C16.2291 1.05013 16.2978 1.09701 16.38 1.1138L16.4 1.01583L16.0234 0.887424Z" fill="#6651E6" stroke="#6651E6" stroke-width="0.2"/>
<path d="M9.9099 28.3117L9.85844 28.3975C9.84868 28.3916 9.8391 28.3855 9.82976 28.3792C9.82991 28.3791 9.83006 28.3789 9.83021 28.3788C9.85674 28.3548 9.88325 28.3308 9.9099 28.3117ZM9.9099 28.3117L9.85168 28.2304C9.84215 28.2372 9.83281 28.2444 9.82374 28.2518C9.82407 28.252 9.8244 28.2523 9.82472 28.2525C9.85297 28.2735 9.88124 28.2945 9.9099 28.3117ZM9.64473 28.0554L9.64462 28.0554L8.02842 28.4851L8.02569 28.5851C8.02607 28.5851 8.02645 28.5851 8.02682 28.5851C8.57062 28.6 9.11467 28.6013 9.65827 28.5851L9.65828 28.5851C9.73945 28.5827 9.80569 28.532 9.84764 28.4968C9.86486 28.4823 9.88253 28.4663 9.89848 28.4519C9.90365 28.4472 9.90863 28.4427 9.91337 28.4385C9.93407 28.4199 9.95171 28.4048 9.96811 28.393L10.092 28.3044L9.96136 28.226C9.94282 28.2148 9.92341 28.2011 9.90132 28.1848C9.89626 28.1811 9.89095 28.1771 9.88548 28.1731C9.86841 28.1604 9.84969 28.1465 9.83136 28.1338C9.78417 28.1011 9.72012 28.0621 9.64473 28.0554Z" fill="#6651E6" stroke="#6651E6" stroke-width="0.2"/>
<path d="M28.8605 13.4075L28.9468 13.5151C28.958 13.5289 28.9726 13.5441 28.9911 13.5624C28.9954 13.5666 29 13.5712 29.0048 13.5759C29.0191 13.5898 29.0351 13.6054 29.0494 13.6206C29.0689 13.6411 29.0903 13.6657 29.1072 13.6932C29.1242 13.7208 29.1402 13.757 29.1414 13.7999C29.1568 14.3339 29.1568 14.8698 29.1414 15.4038C29.1414 15.4042 29.1414 15.4046 29.1414 15.405L29.0414 15.4021L28.8605 13.4075ZM28.8605 13.4075L28.7851 13.5229M28.8605 13.4075L28.7851 13.5229M28.7851 13.5229C28.7749 13.5386 28.762 13.5553 28.7462 13.5748C28.7427 13.5792 28.7389 13.5838 28.7351 13.5886C28.7227 13.6037 28.709 13.6206 28.6965 13.6371C28.6652 13.6785 28.6243 13.739 28.6185 13.8122L28.7182 13.82L28.6186 13.8116C28.6033 13.9924 28.6061 14.177 28.6088 14.3557C28.6093 14.3899 28.6098 14.4239 28.6102 14.4575H28.6089M28.7851 13.5229L28.6089 14.4575M28.6089 14.4575V14.5575M28.6089 14.4575V14.5575M28.6089 14.5575C28.6089 14.6298 28.6079 14.7033 28.607 14.7776M28.6089 14.5575L28.607 14.7776M28.607 14.7776C28.6046 14.9712 28.6021 15.1701 28.6158 15.3659L28.607 14.7776Z" fill="#6651E6" stroke="#6651E6" stroke-width="0.2"/>
<path d="M8.29968 16.425L8.29795 16.4016C8.28642 16.2454 8.28851 16.0887 8.30418 15.9329L8.30502 15.9246L8.30537 15.9246C8.31722 15.8609 8.33387 15.7733 8.36086 15.6949C8.37443 15.6555 8.39178 15.6148 8.41472 15.5789C8.43737 15.5434 8.46929 15.5066 8.51437 15.4837L8.51713 15.4823L8.51715 15.4823C8.68203 15.405 8.75347 15.3035 8.79234 15.1858C8.82336 15.0919 8.83334 14.9924 8.84491 14.877C8.84937 14.8325 8.85407 14.7857 8.8603 14.7359L8.86046 14.7346L8.86047 14.7346C8.94826 14.099 9.25852 13.5122 9.73875 13.0719C10.2189 12.6316 10.84 12.3642 11.4985 12.3136L11.499 12.3135C12.837 12.2181 14.0889 13.0692 14.4679 14.342L14.4687 14.3448L14.4686 14.3448C14.5116 14.5059 14.5415 14.67 14.558 14.8356C14.5642 14.8834 14.5679 14.934 14.5714 14.981C14.573 15.0018 14.5744 15.022 14.5761 15.0408C14.5817 15.1064 14.5893 15.1639 14.6047 15.2151C14.6198 15.2651 14.6418 15.3072 14.6755 15.3428C14.7093 15.3784 14.7594 15.4122 14.8375 15.4389C14.9104 15.4637 14.9681 15.5286 15.0046 15.5847C15.0424 15.6428 15.0747 15.7178 15.0777 15.787L15.0778 15.7874C15.0796 15.8341 15.0817 15.8811 15.0837 15.9284C15.0996 16.2946 15.1161 16.6746 15.067 17.0455M8.29968 16.425L14.3203 17.515L14.3287 17.4154L14.3203 17.515C14.4839 17.5288 14.6541 17.5117 14.7931 17.4405C14.9373 17.3667 15.0418 17.2369 15.067 17.0455M8.29968 16.425V16.4014V16.3923H8.39581L8.32815 16.3223L8.33015 16.3204L8.39128 16.2612C8.38889 16.155 8.39303 16.0487 8.40368 15.9429M8.29968 16.425L8.31155 16.5857L8.31157 16.5859L8.31368 16.6146L8.3434 16.5858L8.34357 16.5857L8.40368 15.9429M8.29968 16.425L8.29968 16.5857L8.29968 16.5859C8.30018 16.7572 8.3071 16.9005 8.33043 17.0179C8.35401 17.1366 8.39582 17.2368 8.47181 17.3147C8.54763 17.3924 8.64771 17.4379 8.76847 17.4663C8.88826 17.4944 9.03624 17.5075 9.21544 17.5146M8.29968 16.425L9.21544 17.5146M15.067 17.0455L14.9678 17.0324L15.067 17.0454C15.067 17.0455 15.067 17.0455 15.067 17.0455ZM8.40368 15.9429C8.42767 15.814 8.46566 15.6206 8.55964 15.5729L8.40368 15.9429ZM9.21544 17.5146C9.32309 17.519 9.36707 17.5494 9.39385 17.5824C9.42826 17.6247 9.44738 17.6851 9.47845 17.7839C9.61816 18.247 9.91016 18.6527 10.3094 18.9396C10.7085 19.2266 11.1931 19.3794 11.6896 19.3753M9.21544 17.5146L14.0559 17.5615C14.0027 17.6004 13.9575 17.6717 13.9181 17.8064L13.9181 17.8066C13.6375 18.7565 12.7176 19.3797 11.6896 19.3753M11.6896 19.3753C11.6894 19.3753 11.6892 19.3753 11.689 19.3753L11.6894 19.2753L11.6903 19.3753C11.6901 19.3753 11.6899 19.3753 11.6896 19.3753ZM9.84327 16.4844C9.84727 16.4058 9.90193 16.2859 9.96857 16.262C10.0725 16.2227 10.1816 16.1947 10.2905 16.1668C10.4387 16.1288 10.5864 16.0909 10.7197 16.0248M9.84327 16.4844L10.0038 16.3556C10.0038 16.3556 10.0007 16.3574 9.99504 16.3635C9.98767 16.3715 9.97918 16.3835 9.97095 16.3992C9.9538 16.4318 9.94427 16.4674 9.94315 16.4895L9.94308 16.4908L9.94307 16.4908C9.92556 16.7654 9.92554 17.0408 9.94302 17.3153C9.99191 17.9213 10.3949 18.4072 10.9275 18.6584C11.4603 18.9097 12.1106 18.92 12.6421 18.5871C13.0199 18.3504 13.2416 18.0577 13.366 17.726C13.4913 17.3916 13.5197 17.0122 13.5003 16.6007L13.5003 16.6004C13.4956 16.4923 13.4739 16.4532 13.456 16.4374C13.439 16.4223 13.399 16.4054 13.2917 16.4168C12.7693 16.4805 12.2404 16.3609 11.8008 16.0793L11.7998 16.0787L11.7998 16.0787C11.661 15.9875 11.5321 15.8797 11.4101 15.7776C11.3792 15.7518 11.3489 15.7264 11.3189 15.7017C11.2791 15.7341 11.2407 15.7666 11.2018 15.7997C11.1645 15.8313 11.1266 15.8634 11.0867 15.8961C10.9877 15.9771 10.8823 16.0558 10.7641 16.1144C10.7641 16.1144 10.7641 16.1144 10.7641 16.1144L10.7197 16.0248M9.84327 16.4844C9.82548 16.7635 9.82548 17.0434 9.84327 17.3225V16.4844ZM10.7197 16.0248C10.8687 15.9509 10.9996 15.84 11.1341 15.7259C11.1945 15.6747 11.2557 15.6229 11.3195 15.5735M10.7197 16.0248L11.3195 15.5735M11.3195 15.5735C11.3732 15.6163 11.4262 15.6607 11.4795 15.7052C11.5995 15.8056 11.7209 15.9072 11.8547 15.9951L11.3195 15.5735ZM13.8362 15.1545C13.4563 14.2319 12.6525 13.6781 11.7034 13.6781L13.8362 15.1545ZM13.8362 15.1545C13.8564 15.2039 13.8828 15.2508 13.9094 15.298C13.923 15.3222 13.9366 15.3464 13.9495 15.3711L13.8362 15.1545ZM10.1865 15.8417C10.6144 15.756 10.8843 15.5 11.0703 15.1287L10.1865 15.8417ZM10.1865 15.8417L10.167 15.7436C10.0937 15.7582 10.042 15.7642 10.0057 15.7633C9.97533 15.7625 9.96541 15.757 9.96376 15.7559C9.96236 15.7539 9.95807 15.7457 9.95615 15.7233C9.95338 15.691 9.95679 15.643 9.96856 15.5726L9.96858 15.5725C10.0349 15.1737 10.2471 14.8105 10.5676 14.5493C10.888 14.2881 11.2952 14.1465 11.7151 14.1508V14.1508C12.5977 14.1532 13.3445 14.7941 13.4335 15.5872L13.4335 15.5873C13.4478 15.7133 13.4288 15.7697 13.4046 15.7971C13.3807 15.8243 13.3265 15.8513 13.1946 15.8513C12.8409 15.85 12.5233 15.8035 12.2526 15.6809C11.9841 15.5593 11.7566 15.3607 11.5846 15.0453L11.5845 15.0452C11.5152 14.9186 11.4131 14.8118 11.276 14.8232C11.1461 14.834 11.05 14.9482 10.9812 15.0833L10.9809 15.0839C10.8055 15.4341 10.5581 15.6652 10.1669 15.7436L10.1865 15.8417ZM14.5739 16.4332C14.574 16.3839 14.5748 16.3365 14.5756 16.2902C14.5772 16.2 14.5788 16.1138 14.5741 16.025C14.5705 15.9713 14.5586 15.9378 14.5453 15.9162C14.5326 15.8954 14.5154 15.8802 14.4914 15.8683C14.4368 15.8411 14.3571 15.8338 14.2442 15.8294L14.2442 15.8294C14.1384 15.8254 14.093 15.847 14.072 15.8679C14.0507 15.889 14.031 15.9326 14.0328 16.0294L14.5739 16.4332ZM14.5739 16.4332L14.5726 16.4335C14.5726 16.4409 14.5726 16.4482 14.5726 16.4556C14.5725 16.5535 14.5725 16.656 14.5806 16.761L14.5739 16.4332ZM8.74958 16.7449L8.84954 16.7479C8.8528 16.6389 8.85204 16.5297 8.8513 16.4227C8.8512 16.4072 8.85109 16.3917 8.851 16.3763C8.85025 16.2536 8.85028 16.1336 8.85676 16.0148L8.85678 16.0145C8.85995 15.9538 8.87367 15.9194 8.88747 15.8994C8.90062 15.8802 8.91909 15.8663 8.94721 15.8558C8.9771 15.8446 9.01535 15.8382 9.06391 15.8346C9.09511 15.8323 9.12493 15.8314 9.1571 15.8304C9.17727 15.8298 9.19836 15.8292 9.22129 15.8281L9.22129 15.8281L9.22239 15.8281C9.32327 15.8224 9.3473 15.8498 9.35664 15.8643C9.37434 15.8919 9.38247 15.9432 9.37944 16.0337L9.37938 16.0337V16.037V16.0378V16.0385V16.0393V16.0401V16.0408V16.0416V16.0423V16.0431V16.0438V16.0446V16.0453V16.0461V16.0469V16.0476V16.0484V16.0491V16.0499V16.0506V16.0514V16.0521V16.0529V16.0537V16.0544V16.0552V16.0559V16.0567V16.0574V16.0582V16.0589V16.0597V16.0605V16.0612V16.062V16.0627V16.0635V16.0642V16.065V16.0657V16.0665V16.0673V16.068V16.0688V16.0695V16.0703V16.071V16.0718V16.0725V16.0733V16.0741V16.0748V16.0756V16.0763V16.0771V16.0778V16.0786V16.0793V16.0801V16.0809V16.0816V16.0824V16.0831V16.0839V16.0846V16.0854V16.0861V16.0869V16.0877V16.0884V16.0892V16.0899V16.0907V16.0914V16.0922V16.0929V16.0937V16.0945V16.0952V16.096V16.0967V16.0975V16.0982V16.099V16.0997V16.1005V16.1013V16.102V16.1028V16.1035V16.1043V16.105V16.1058V16.1065V16.1073V16.1081V16.1088V16.1096V16.1103V16.1111V16.1118V16.1126V16.1133V16.1141V16.1148V16.1156V16.1164V16.1171V16.1179V16.1186V16.1194V16.1201V16.1209V16.1216V16.1224V16.1232V16.1239V16.1247V16.1254V16.1262V16.1269V16.1277V16.1284V16.1292V16.13V16.1307V16.1315V16.1322V16.133V16.1337V16.1345V16.1352V16.136V16.1368V16.1375V16.1383V16.139V16.1398V16.1405V16.1413V16.142V16.1428V16.1436V16.1443V16.1451V16.1458V16.1466V16.1473V16.1481V16.1488V16.1496V16.1504V16.1511V16.1519V16.1526V16.1534V16.1541V16.1549V16.1556V16.1564V16.1572V16.1579V16.1587V16.1594V16.1602V16.1609V16.1617V16.1624V16.1632V16.164V16.1647V16.1655V16.1662V16.167V16.1677V16.1685V16.1692V16.17V16.1708V16.1715V16.1723V16.173V16.1738V16.1745V16.1753V16.176V16.1768V16.1776V16.1783V16.1791V16.1798V16.1806V16.1813V16.1821V16.1828V16.1836V16.1844V16.1851V16.1859V16.1866V16.1874V16.1881V16.1889V16.1896V16.1904V16.1912V16.1919V16.1927V16.1934V16.1942V16.1949V16.1957V16.1964V16.1972V16.198V16.1987V16.1995V16.2002V16.201V16.2017V16.2025V16.2032V16.204V16.2048V16.2055V16.2063V16.207V16.2078V16.2085V16.2093V16.21V16.2108V16.2116V16.2123V16.2131V16.2138V16.2146V16.2153V16.2161V16.2168V16.2176V16.2184V16.2191V16.2199V16.2206V16.2214V16.2221V16.2229V16.2236V16.2244V16.2252V16.2259V16.2267V16.2274V16.2282V16.2289V16.2297V16.2304V16.2312V16.232V16.2327V16.2335V16.2342V16.235V16.2357V16.2365V16.2372V16.238V16.2387V16.2395V16.2403V16.241V16.2418V16.2425V16.2433V16.244V16.2448V16.2455V16.2463V16.2471V16.2478V16.2486V16.2493V16.2501V16.2508V16.2516V16.2523V16.2531V16.2539V16.2546V16.2554V16.2561V16.2569V16.2576V16.2584V16.2591V16.2599V16.2607V16.2614V16.2622V16.2629V16.2637V16.2644V16.2652V16.2659V16.2667V16.2675V16.2682V16.269V16.2697V16.2705V16.2712V16.272V16.2727V16.2735V16.2743V16.275V16.2758V16.2765V16.2773V16.278V16.2788V16.2795V16.2803V16.2811V16.2818V16.2826V16.2833V16.2841V16.2848V16.2856V16.2863V16.2871V16.2879V16.2886V16.2894V16.2901V16.2909V16.2916V16.2924V16.2931V16.2939V16.2947V16.2954V16.2962V16.2969V16.2977V16.2984V16.2992V16.2999V16.3007V16.3015V16.3022V16.303V16.3037V16.3045V16.3052V16.306V16.3067V16.3075V16.3083V16.309V16.3098V16.3105V16.3113V16.312V16.3128V16.3135V16.3143V16.3151V16.3158V16.3166V16.3173V16.3181V16.3188V16.3196V16.3203V16.3211V16.3219V16.3226V16.3234V16.3241V16.3249V16.3256V16.3264V16.3271V16.3279V16.3287V16.3294V16.3302V16.3309V16.3317V16.3324V16.3332V16.3339V16.3347V16.3355V16.3362V16.337V16.3377V16.3385V16.3392V16.34V16.3407V16.3415V16.3423V16.343V16.3438V16.3445V16.3453V16.346V16.3468V16.3475V16.3483V16.3491V16.3498V16.3506V16.3513V16.3521V16.3528V16.3536V16.3543V16.3551V16.3558V16.3566V16.3574V16.3581V16.3589V16.3596V16.3604V16.3611V16.3619V16.3626V16.3634V16.3642V16.3649V16.3657V16.3664V16.3672V16.3679V16.3687V16.3694V16.3702V16.371V16.3717V16.3725V16.3732V16.374V16.3747V16.3755V16.3762V16.377V16.3778V16.3785V16.3793V16.38V16.3808V16.3815V16.3823V16.383V16.3838V16.3846V16.3853V16.3861V16.3868V16.3876V16.3883V16.3891V16.3898V16.3906V16.3914V16.3921V16.3929V16.3936V16.3944V16.3951V16.3959V16.3966V16.3974V16.3982V16.3989V16.3997V16.4004V16.4012V16.4019V16.4027V16.4034V16.4042V16.405V16.4057V16.4065V16.4072V16.408V16.4087V16.4095V16.4102V16.411V16.4118V16.4125V16.4133V16.414V16.4148V16.4155V16.4163V16.417V16.4178V16.4186V16.4193V16.4201V16.4208V16.4216L9.48071 16.741L9.38088 16.7469C9.38089 16.747 9.3809 16.7472 9.38091 16.7474C9.38726 16.8566 9.37914 16.9207 9.3559 16.9571C9.34048 16.9813 9.30323 17.0154 9.1741 17.0111L9.1708 17.1111M8.74958 16.7449L8.84954 16.7477C8.84613 16.8698 8.87982 16.9224 8.91921 16.9516C8.96711 16.987 9.04774 17.0067 9.17427 17.0111L9.1708 17.1111M8.74958 16.7449C8.74158 17.0311 8.91087 17.102 9.1708 17.1111M8.74958 16.7449C8.75278 16.6379 8.75205 16.5307 8.75131 16.4235C8.75036 16.2852 8.7494 16.147 8.75691 16.0093C8.77083 15.7424 8.96173 15.7364 9.15741 15.7304C9.17721 15.7297 9.19706 15.7291 9.21679 15.7282L9.1708 17.1111M9.43557 15.1959C9.43422 15.1972 9.4328 15.1986 9.43133 15.2001C9.43092 15.1993 9.43051 15.1986 9.4301 15.1978C9.41064 15.1614 9.40283 15.1379 9.40197 15.1205L9.30209 15.1255L9.40199 15.1208C9.34571 13.9056 10.4163 12.8744 11.7593 12.8743C13.0073 12.8781 14.0774 13.9489 14.0218 15.1092C14.0149 15.1547 14.0057 15.1999 13.9942 15.2446C13.9936 15.2436 13.993 15.2425 13.9924 15.2415C13.9681 15.1984 13.9468 15.1607 13.9287 15.1165L13.9286 15.1164C13.5342 14.1586 12.6954 13.5781 11.7034 13.5781L11.7028 13.5781C10.6762 13.5849 9.88887 14.141 9.49067 15.1233L9.49055 15.1236C9.48271 15.1432 9.46597 15.1652 9.43557 15.1959ZM13.1943 15.9513C13.4736 15.9513 13.5629 15.8417 13.5329 15.5761L13.1943 15.9513Z" fill="#6651E6" stroke="#6651E6" stroke-width="0.2"/>
<path d="M11.9187 8.60519H12.0187V8.60261H13.6849C13.7071 8.60261 13.7312 8.60346 13.7578 8.60445L13.7614 8.60458C13.7864 8.60551 13.8135 8.60651 13.8403 8.60672C13.8938 8.60713 13.9586 8.60476 14.0145 8.58563C14.0725 8.5658 14.1206 8.52807 14.1576 8.49552C14.1749 8.48024 14.1918 8.4642 14.2071 8.44975L14.2114 8.44565C14.2284 8.42958 14.2432 8.41563 14.2576 8.4034L14.3436 8.33022L14.2605 8.25371C14.1915 8.19011 14.1166 8.13286 14.0367 8.08269L14.0236 8.07445L14.0086 8.07057C13.9441 8.05387 13.8768 8.05039 13.811 8.06028H10.0621C9.97637 8.05327 9.88999 8.05878 9.80588 8.07665L9.80579 8.07623L9.79697 8.07897C9.75317 8.09259 9.70829 8.12012 9.67448 8.14869C9.65711 8.16336 9.63931 8.1811 9.62496 8.20117C9.6124 8.21874 9.59336 8.25062 9.59336 8.29115H9.59307L9.59365 8.2988C9.5975 8.34898 9.61313 8.39747 9.63916 8.44056C9.66518 8.48363 9.70084 8.52009 9.7432 8.54737L9.75311 8.55375L9.76425 8.55766C9.8687 8.59427 9.97954 8.61041 10.0903 8.60519H10.0915H10.0951H10.0987H10.1022H10.1058H10.1094H10.113H10.1165H10.1201H10.1237H10.1273H10.1308H10.1344H10.138H10.1416H10.1452H10.1487H10.1523H10.1559H10.1595H10.163H10.1666H10.1702H10.1738H10.1773H10.1809H10.1845H10.1881H10.1917H10.1952H10.1988H10.2024H10.206H10.2095H10.2131H10.2167H10.2203H10.2238H10.2274H10.231H10.2346H10.2382H10.2417H10.2453H10.2489H10.2525H10.256H10.2596H10.2632H10.2668H10.2704H10.2739H10.2775H10.2811H10.2847H10.2882H10.2918H10.2954H10.299H10.3025H10.3061H10.3097H10.3133H10.3169H10.3204H10.324H10.3276H10.3312H10.3347H10.3383H10.3419H10.3455H10.349H10.3526H10.3562H10.3598H10.3634H10.3669H10.3705H10.3741H10.3777H10.3812H10.3848H10.3884H10.392H10.3955H10.3991H10.4027H10.4063H10.4099H10.4134H10.417H10.4206H10.4242H10.4277H10.4313H10.4349H10.4385H10.442H10.4456H10.4492H10.4528H10.4564H10.4599H10.4635H10.4671H10.4707H10.4742H10.4778H10.4814H10.485H10.4886H10.4921H10.4957H10.4993H10.5029H10.5064H10.51H10.5136H10.5172H10.5207H10.5243H10.5279H10.5315H10.5351H10.5386H10.5422H10.5458H10.5494H10.5529H10.5565H10.5601H10.5637H10.5672H10.5708H10.5744H10.578H10.5815H10.5851H10.5887H10.5923H10.5959H10.5994H10.603H10.6066H10.6102H10.6137H10.6173H10.6209H10.6245H10.628H10.6316H10.6352H10.6388H10.6424H10.6459H10.6495H10.6531H10.6567H10.6602H10.6638H10.6674H10.671H10.6745H10.6781H10.6817H10.6853H10.6889H10.6924H10.696H10.6996H10.7032H10.7067H10.7103H10.7139H10.7175H10.721H10.7246H10.7282H10.7318H10.7353H10.7389H10.7425H10.7461H10.7497H10.7532H10.7568H10.7604H10.764H10.7675H10.7711H10.7747H10.7783H10.7818H10.7854H10.789H10.7926H10.7962H10.7997H10.8033H10.8069H10.8105H10.814H10.8176H10.8212H10.8248H10.8283H10.8319H10.8355H10.8391H10.8426H10.8462H10.8498H10.8534H10.857H10.8605H10.8641H10.8677H10.8713H10.8748H10.8784H10.882H10.8856H10.8891H10.8927H10.8963H10.8999H10.9034H10.907H10.9106H10.9142H10.9178H10.9213H10.9249H10.9285H10.9321H10.9356H10.9392H10.9428H10.9464H10.9499H10.9535H10.9571H10.9607H10.9642H10.9678H10.9714H10.975H10.9785H10.9821H10.9857H10.9893H10.9929H10.9964H11H11.0036H11.0072H11.0107H11.0143H11.0179H11.0215H11.025H11.0286H11.0322H11.0358H11.0393H11.0429H11.0465H11.0501H11.0536H11.0572H11.0608H11.0644H11.0679H11.0715H11.0751H11.0787H11.0823H11.0858H11.0894H11.093H11.0966H11.1001H11.1037H11.1073H11.1109H11.1144H11.118H11.1216H11.1252H11.1287H11.1323H11.1359H11.1395H11.143H11.1466H11.1502H11.1538H11.1573H11.1609H11.1645H11.1681H11.1716H11.1752H11.1788H11.1824H11.186H11.1895H11.1931H11.1967H11.2003H11.2038H11.2074H11.211H11.2146H11.2181H11.2217H11.2253H11.2289H11.2324H11.236H11.2396H11.2432H11.2467H11.2503H11.2539H11.2575H11.261H11.2646H11.2682H11.2718H11.2753H11.2789H11.2825H11.2861H11.2896H11.2932H11.2968H11.3004H11.3039H11.3075H11.3111H11.3147H11.3182H11.3218H11.3254H11.329H11.3325H11.3361H11.3397H11.3433H11.3469H11.3504H11.354H11.3576H11.3612H11.3647H11.3683H11.3719H11.3755H11.379H11.3826H11.3862H11.3898H11.3933H11.3969H11.4005H11.4041H11.4076H11.4112H11.4148H11.4184H11.4219H11.4255H11.4291H11.4327H11.4362H11.4398H11.4434H11.447H11.4505H11.4541H11.4577H11.4613H11.4648H11.4684H11.472H11.4756H11.4791H11.4827H11.4863H11.4899H11.4934H11.497H11.5006H11.5042H11.5077H11.5113H11.5149H11.5185H11.522H11.5256H11.5292H11.5327H11.5363H11.5399H11.5435H11.547H11.5506H11.5542H11.5578H11.5613H11.5649H11.5685H11.5721H11.5756H11.5792H11.5828H11.5864H11.5899H11.5935H11.5971H11.6007H11.6042H11.6078H11.6114H11.615H11.6185H11.6221H11.6257H11.6293H11.6328H11.6364H11.64H11.6436H11.6471H11.6507H11.6543H11.6579H11.6614H11.665H11.6686H11.6722H11.6757H11.6793H11.6829H11.6865H11.69H11.6936H11.6972H11.7007H11.7043H11.7079H11.7115H11.715H11.7186H11.7222H11.7258H11.7293H11.7329H11.7365H11.7401H11.7436H11.7472H11.7508H11.7544H11.7579H11.7615H11.7651H11.7687H11.7722H11.7758H11.7794H11.7829H11.7865H11.7901H11.7937H11.7972H11.8008H11.8044H11.808H11.8115H11.8151H11.8187H11.8223H11.8258H11.8294H11.833H11.8366H11.8401H11.8437H11.8473H11.8508H11.8544H11.858H11.8616H11.8651H11.8687H11.8723H11.8759H11.8794H11.883H11.8866H11.8902H11.8937H11.8973H11.9009H11.9044H11.908H11.9116H11.9152H11.9187Z" fill="#6651E6" stroke="#6651E6" stroke-width="0.2"/>
<path d="M7.10229 8.29962L7.1923 8.22922C7.20332 8.2206 7.21554 8.20924 7.2307 8.19441C7.23404 8.19115 7.23761 8.18763 7.24136 8.18393C7.25313 8.17232 7.2666 8.15903 7.27961 8.14712C7.30983 8.11946 7.36504 8.0718 7.43687 8.06822L7.43691 8.06822C7.75924 8.05226 8.0822 8.05226 8.40453 8.06822L8.40481 8.06823C8.48043 8.07219 8.53938 8.12138 8.57407 8.1527C8.58877 8.16597 8.60385 8.18068 8.61716 8.19367C8.62123 8.19764 8.62514 8.20145 8.62882 8.20501C8.64588 8.22151 8.6599 8.23445 8.67273 8.24438L8.77363 8.32246L8.67371 8.40178C8.66045 8.4123 8.64645 8.42547 8.62981 8.44185C8.62606 8.44554 8.62208 8.4495 8.61792 8.45363C8.60503 8.46643 8.5905 8.48087 8.57629 8.49398C8.5403 8.52719 8.48572 8.57241 8.41418 8.58346L8.40813 8.5844L8.40812 8.58421C8.23969 8.59977 8.07027 8.6025 7.90141 8.59237C7.85773 8.59244 7.81722 8.59401 7.77481 8.59566C7.74302 8.59689 7.71017 8.59816 7.6741 8.59888C7.59446 8.60046 7.50984 8.59866 7.42554 8.58294L7.10229 8.29962ZM7.10229 8.29962L7.184 8.3795M7.10229 8.29962L7.184 8.3795M7.184 8.3795C7.19547 8.39071 7.20771 8.40493 7.22248 8.42294M7.184 8.3795L7.22248 8.42294M7.22248 8.42294C7.22571 8.42688 7.22914 8.4311 7.23272 8.4355M7.22248 8.42294L7.23272 8.4355M7.23272 8.4355C7.2442 8.44963 7.25721 8.46563 7.27 8.48019M7.23272 8.4355L7.27 8.48019M7.27 8.48019C7.30063 8.51507 7.35233 8.56929 7.42552 8.58294L7.27 8.48019Z" fill="#6651E6" stroke="#6651E6" stroke-width="0.2"/>
<ellipse cx="19.2527" cy="7.67075" rx="0.7" ry="0.682953" fill="#6651E6"/>
<ellipse cx="21.3523" cy="7.67075" rx="0.7" ry="0.682953" fill="#6651E6"/>
<ellipse cx="23.452" cy="7.67075" rx="0.7" ry="0.682953" fill="#6651E6"/>
</svg>
