<svg width="31" height="30" viewBox="0 0 31 30" fill="none" xmlns="http://www.w3.org/2000/svg">
<path d="M8.95764 26.6839C8.76724 26.5719 8.52207 26.6355 8.41005 26.8259C8.29803 27.0163 8.36157 27.2614 8.55198 27.3735L8.95764 26.6839ZM28.4564 15.3453C28.4564 22.4979 22.5951 28.3034 15.3559 28.3034V29.1034C23.0289 29.1034 29.2564 22.9477 29.2564 15.3453H28.4564ZM2.25547 15.3453C2.25547 8.19281 8.11673 2.3873 15.3559 2.3873V1.5873C7.68293 1.5873 1.45547 7.743 1.45547 15.3453H2.25547ZM15.3559 2.3873C18.9371 2.3873 22.1904 3.92579 24.5632 6.24468L25.1223 5.67255C22.6185 3.22554 19.1705 1.5873 15.3559 1.5873V2.3873ZM15.3559 28.3034C12.8981 28.3034 10.9033 27.8287 8.95764 26.6839L8.55198 27.3735C10.6402 28.602 12.78 29.1034 15.3559 29.1034V28.3034ZM6.1494 24.5906C3.80075 22.2457 2.25547 18.8978 2.25547 15.3453H1.45547C1.45547 19.1268 3.09738 22.6739 5.58417 25.1567L6.1494 24.5906ZM25.8743 7.74482C27.4364 9.88665 28.4564 12.5488 28.4564 15.3453H29.2564C29.2564 12.3549 28.1672 9.53104 26.5207 7.27341L25.8743 7.74482Z" fill="#6651E6"/>
<path d="M21.8622 1.65288C21.7874 1.6193 21.7054 1.62525 21.6434 1.63342C21.6199 1.63652 21.5953 1.6406 21.5727 1.64434C21.5645 1.64569 21.5566 1.647 21.5492 1.6482C21.5192 1.65301 21.4932 1.65662 21.4695 1.65792L21.3049 1.667L21.3889 1.80878C21.4501 1.91212 21.5218 2.00898 21.6029 2.09788L21.6099 2.10557L21.6183 2.11165C21.7034 2.17288 21.7969 2.22171 21.8958 2.25668C23.4422 2.9823 24.8453 3.9751 26.039 5.18838L26.0397 5.18902C27.0158 6.16339 27.8472 7.26987 28.5091 8.47535L28.5089 8.47542L28.512 8.48024C28.585 8.59698 28.6658 8.70874 28.754 8.81475L28.793 8.86165L28.8525 8.8484C28.8717 8.84414 28.89 8.83996 28.9081 8.83583C28.9351 8.82967 28.9616 8.82362 28.9896 8.81758L29.0716 8.79991L29.0685 8.71606C29.0677 8.69208 29.069 8.66504 29.0713 8.63358C29.0719 8.62595 29.0725 8.61791 29.0732 8.6096C29.075 8.58564 29.0771 8.55945 29.0781 8.53463C29.0808 8.47117 29.0797 8.38307 29.0321 8.31125L29.032 8.3111C28.8783 8.08011 28.7269 7.84563 28.575 7.61041C28.1404 6.93718 27.702 6.25792 27.1937 5.63731L27.1937 5.63727C25.7542 3.88135 23.9442 2.57687 21.8622 1.65288ZM21.8622 1.65288C21.8623 1.65292 21.8624 1.65296 21.8625 1.653L21.8213 1.74417M21.8622 1.65288C21.8621 1.65284 21.862 1.65281 21.862 1.65277L21.8213 1.74417M21.8213 1.74417C23.8909 2.6626 25.6878 3.95815 27.1163 5.7007M21.8213 1.74417C21.7569 1.71516 21.6738 1.72893 21.5906 1.74273C21.5883 1.74311 21.586 1.74349 21.5837 1.74387C21.5759 1.73161 21.5684 1.71924 21.561 1.70676L21.4749 1.75777L21.4804 1.85761C21.4989 1.85659 21.5174 1.85468 21.5354 1.85235C21.5784 1.91481 21.6256 1.97432 21.6768 2.03048C21.7555 2.08709 21.842 2.13207 21.9338 2.16399C23.4926 2.89481 24.907 3.89527 26.1103 5.11822L27.1163 5.7007M27.1163 5.7007C27.6207 6.31655 28.0547 6.98885 28.4884 7.6607C28.6408 7.89685 28.7933 8.13296 28.9487 8.36653C28.9873 8.42477 28.9804 8.51251 28.9736 8.60024C28.9704 8.6411 28.9672 8.68195 28.9686 8.71983L27.1163 5.7007Z" fill="#6651E6" stroke="#6651E6" stroke-width="0.2"/>
<path d="M1.21335 9.50874L1.12219 9.46764C1.08909 9.54105 1.10647 9.62196 1.11982 9.67335C1.12533 9.69451 1.13201 9.71679 1.13802 9.73679C1.13999 9.74335 1.14188 9.74967 1.14364 9.75562C1.1513 9.78157 1.15712 9.80316 1.16048 9.82211L1.18497 9.96038L1.30763 9.89202C1.40432 9.83814 1.49622 9.77611 1.58232 9.70661L1.58242 9.70674L1.58669 9.70287C1.6307 9.66295 1.64856 9.60814 1.65838 9.57722C1.66108 9.56871 1.66341 9.5612 1.66549 9.55449C1.6733 9.52932 1.67758 9.51552 1.6847 9.50333L1.68488 9.50301C1.84996 9.21775 2.00876 8.93041 2.16702 8.64404C2.52574 7.99495 2.8817 7.35086 3.30174 6.74733L3.30175 6.74731C4.25151 5.38195 5.47251 4.2649 6.86422 3.33563C6.97216 3.27361 7.08432 3.21917 7.19988 3.1727L7.32182 3.12367L7.24204 3.01922L7.1426 2.88904C7.13624 2.87919 7.1308 2.86926 7.12406 2.85696C7.11848 2.84677 7.112 2.83495 7.10337 2.8202C7.09561 2.80694 7.0851 2.78985 7.07291 2.77518C7.06683 2.76786 7.0575 2.75767 7.04497 2.7486C7.03318 2.74007 7.00976 2.72617 6.97757 2.72617V2.72603L6.97218 2.72632C6.85523 2.73263 6.7411 2.76453 6.6379 2.81978L6.63769 2.81939L6.62983 2.8246C4.62056 4.15697 3.01274 5.86248 1.84256 7.96736C1.59084 8.41698 1.38123 8.88692 1.17444 9.35055C1.15696 9.38973 1.13951 9.42887 1.12205 9.46794L1.21335 9.50874ZM1.21335 9.50874C1.23073 9.46983 1.2481 9.43091 1.26546 9.39197C1.47264 8.92751 1.68047 8.46157 1.92989 8.01608L7.06751 3.12021C6.97998 3.15924 6.89452 3.20276 6.81147 3.25061C5.41031 4.18579 4.17852 5.31177 3.21966 6.69021C2.79658 7.2981 2.4365 7.94961 2.07656 8.60088C1.91889 8.88617 1.76124 9.17141 1.59833 9.45293C1.58491 9.47592 1.57658 9.50309 1.56837 9.52987C1.55665 9.5681 1.54517 9.60552 1.51951 9.6288C1.46522 9.67262 1.4085 9.71331 1.34963 9.75068C1.35257 9.7627 1.35524 9.77496 1.35742 9.78723L1.25895 9.80467L1.21027 9.71732C1.2178 9.71313 1.22529 9.70887 1.23276 9.70457C1.21118 9.63265 1.18993 9.56069 1.21335 9.50874Z" fill="#6651E6" stroke="#6651E6" stroke-width="0.2"/>
<path d="M9.39727 1.71497L9.42579 1.81081C9.54974 1.77393 9.66941 1.7267 9.78514 1.67941C9.80575 1.67099 9.82619 1.66259 9.84652 1.65423C9.94162 1.61513 10.0341 1.57711 10.1283 1.54373L10.1283 1.54372C10.2866 1.48761 10.4489 1.43328 10.6122 1.3786C10.8513 1.29854 11.0926 1.21775 11.3268 1.12955L11.3345 1.12666L11.4427 0.826301L11.5406 0.846328C11.5406 0.846311 11.5406 0.846295 11.5406 0.846278C11.547 0.815098 11.5392 0.788741 11.5333 0.774011C11.527 0.757989 11.5184 0.744248 11.5107 0.733593C11.4952 0.712128 11.4754 0.692083 11.4562 0.675554C11.4369 0.658798 11.4147 0.642568 11.3924 0.630014C11.3812 0.623737 11.3684 0.617454 11.3547 0.612633C11.3422 0.608216 11.3225 0.602737 11.2997 0.603702C11.2553 0.60558 11.211 0.610695 11.1673 0.619006L11.1592 0.620551L11.1514 0.623409C11.0345 0.666494 10.9174 0.709493 10.8004 0.752505C10.2778 0.944494 9.75447 1.13673 9.23478 1.33804L9.23477 1.33803L9.23294 1.33878C9.19588 1.35398 9.17064 1.38056 9.15412 1.40265C9.13735 1.42508 9.12433 1.45001 9.11415 1.47152C9.10646 1.48776 9.09886 1.50546 9.09216 1.52104C9.09008 1.52588 9.08809 1.53052 9.08621 1.53484C9.07754 1.55478 9.07037 1.57027 9.06344 1.58249L9.00525 1.68493L9.11579 1.7257C9.1312 1.73138 9.14889 1.73963 9.17056 1.75029C9.17508 1.75251 9.17985 1.75488 9.1848 1.75734C9.20183 1.7658 9.22101 1.77532 9.23936 1.78359C9.26326 1.79435 9.29141 1.80566 9.32079 1.8123C9.34992 1.81889 9.38759 1.82262 9.42679 1.81051L9.39727 1.71497ZM9.39727 1.71497C9.35502 1.72802 9.29853 1.70202 9.24147 1.67382L11.2915 1.03597C11.058 1.12393 10.821 1.20326 10.584 1.28255C10.4206 1.33726 10.2571 1.39196 10.0949 1.44947C9.99814 1.48376 9.90292 1.52291 9.80774 1.56205C9.67228 1.61775 9.53691 1.67341 9.39727 1.71497Z" fill="#6651E6" stroke="#6651E6" stroke-width="0.2"/>
<g clip-path="url(#clip0)">
<path d="M10.0668 10.0404H20.0959C21.0001 10.0404 21.7357 10.7711 21.7357 11.6692V16.0082C21.7357 16.1835 21.8793 16.3255 22.0564 16.3255C22.2335 16.3255 22.3771 16.1835 22.3771 16.0082V11.6692C22.3771 10.4212 21.3538 9.40576 20.0959 9.40576H10.0668C9.88968 9.40576 9.74609 9.54779 9.74609 9.72307C9.74609 9.89835 9.88968 10.0404 10.0668 10.0404Z" fill="#6651E6"/>
<path d="M17.873 19.8371H11.8256C11.7314 19.8371 11.6421 19.878 11.5811 19.949L9.76402 22.0652L7.94693 19.9489C7.886 19.8779 7.79663 19.837 7.70252 19.837H7.05459C6.15041 19.837 5.41482 19.1063 5.41482 18.2082V11.6692C5.41482 10.7711 6.15041 10.0404 7.05459 10.0404H8.58019C8.7573 10.0404 8.90088 9.89835 8.90088 9.72307C8.90088 9.54779 8.7573 9.40576 8.58019 9.40576H7.05459C5.79675 9.40576 4.77344 10.4212 4.77344 11.6692V18.2082C4.77344 19.4563 5.79675 20.4717 7.05459 20.4717H7.55419L9.51965 22.7607C9.58058 22.8317 9.66995 22.8727 9.76406 22.8727C9.85817 22.8727 9.94754 22.8317 10.0085 22.7607L11.9739 20.4717H17.873C18.0501 20.4717 18.1937 20.3296 18.1937 20.1544C18.1937 19.9791 18.0501 19.8371 17.873 19.8371Z" fill="#6651E6"/>
<path d="M14.2372 24.5234H11.3217C11.1446 24.5234 11.001 24.6654 11.001 24.8407C11.001 25.016 11.1446 25.158 11.3217 25.158H14.2372C14.6446 25.158 14.9761 25.487 14.9761 25.8914C14.9761 26.2958 14.6446 26.6249 14.2372 26.6249H6.1537C5.74629 26.6249 5.41482 26.2958 5.41482 25.8914C5.41482 25.487 5.74629 25.158 6.1537 25.158H6.43741C6.54028 25.158 6.63692 25.1092 6.69721 25.0267L7.25449 24.2648L7.81177 25.0267C7.87206 25.1091 7.96869 25.158 8.07157 25.158H9.83889C10.016 25.158 10.1596 25.016 10.1596 24.8407C10.1596 24.6654 10.016 24.5234 9.83889 24.5234H8.23534L7.51429 23.5375C7.454 23.4551 7.35737 23.4062 7.25449 23.4062C7.15161 23.4062 7.05498 23.4551 6.99468 23.5375L6.27364 24.5234H6.1537C5.39263 24.5234 4.77344 25.1371 4.77344 25.8914C4.77344 26.6458 5.39263 27.2595 6.1537 27.2595H14.2372C14.9983 27.2595 15.6175 26.6458 15.6175 25.8914C15.6175 25.1371 14.9983 24.5234 14.2372 24.5234Z" fill="#6651E6"/>
<path d="M17.2025 8.33424H18.4089C18.586 8.33424 18.7296 8.19222 18.7296 8.01693C18.7296 7.84165 18.586 7.69962 18.4089 7.69962H17.2025C16.7951 7.69962 16.4637 7.37064 16.4637 6.96622C16.4637 6.56179 16.7951 6.23276 17.2025 6.23276H25.286C25.6934 6.23276 26.0249 6.56175 26.0249 6.96617C26.0249 7.3706 25.6934 7.69962 25.286 7.69962H25.0023C24.8995 7.69962 24.8028 7.74845 24.7425 7.83091L24.1853 8.59283L23.628 7.83086C23.5677 7.74845 23.471 7.69958 23.3682 7.69958H19.8918C19.7147 7.69958 19.5711 7.84161 19.5711 8.01689C19.5711 8.19217 19.7147 8.3342 19.8918 8.3342H23.2044L23.9254 9.32006C23.9857 9.40248 24.0824 9.45134 24.1853 9.45134C24.2881 9.45134 24.3848 9.40252 24.4451 9.32006L25.1661 8.3342H25.286C26.0471 8.3342 26.6663 7.72048 26.6663 6.96613C26.6663 6.21186 26.0471 5.59814 25.286 5.59814H17.2025C16.4415 5.59814 15.8223 6.21186 15.8223 6.96622C15.8223 7.72052 16.4415 8.33424 17.2025 8.33424Z" fill="#6651E6"/>
<path d="M9.47108 16.3417C9.29398 16.3417 9.15039 16.4837 9.15039 16.659C9.15039 16.8343 9.29398 16.9763 9.47108 16.9763H11.1814C11.3585 16.9763 11.5021 16.8343 11.5021 16.659V14.9667C11.5021 14.7914 11.3585 14.6494 11.1814 14.6494H9.79178V13.5917H11.1814C11.3585 13.5917 11.5021 13.4496 11.5021 13.2743C11.5021 13.0991 11.3585 12.957 11.1814 12.957H9.47108C9.29398 12.957 9.15039 13.0991 9.15039 13.2743V14.9667C9.15039 15.1419 9.29398 15.284 9.47108 15.284H10.8607V16.3417H9.47108Z" fill="#6651E6"/>
<path d="M14.3884 13.5917C14.5655 13.5917 14.7091 13.4496 14.7091 13.2743C14.7091 13.0991 14.5655 12.957 14.3884 12.957H12.6781C12.501 12.957 12.3574 13.0991 12.3574 13.2743V16.659C12.3574 16.8343 12.501 16.9763 12.6781 16.9763H14.3884C14.5655 16.9763 14.7091 16.8343 14.7091 16.659C14.7091 16.4837 14.5655 16.3417 14.3884 16.3417H12.9988V15.284H14.3884C14.5655 15.284 14.7091 15.1419 14.7091 14.9667C14.7091 14.7914 14.5655 14.6494 14.3884 14.6494H12.9988V13.5917H14.3884Z" fill="#6651E6"/>
<path d="M15.8851 12.957C15.708 12.957 15.5645 13.0991 15.5645 13.2743V16.659C15.5645 16.8343 15.708 16.9763 15.8851 16.9763H17.5955C17.7726 16.9763 17.9162 16.8343 17.9162 16.659V13.2743C17.9162 13.0991 17.7726 12.957 17.5955 12.957H15.8851ZM17.2748 16.3417H16.2058V13.5917H17.2748V16.3417Z" fill="#6651E6"/>
<path d="M26.6653 20.2046C26.6653 20.0485 26.5506 19.9157 26.3949 19.8913L25.9524 19.8219L25.7412 19.3176L26.0044 18.9584C26.0969 18.8322 26.0829 18.6581 25.9715 18.5478L25.0657 17.6517C24.9541 17.5413 24.778 17.5276 24.6504 17.6194L24.2882 17.88L23.7788 17.6712L23.7083 17.2332C23.6836 17.0792 23.5493 16.9658 23.3916 16.9658H23.3915L22.1111 16.9663C21.9534 16.9664 21.8191 17.0799 21.7945 17.2341L21.7244 17.6722L21.2154 17.8812L20.8529 17.6208C20.7251 17.5291 20.549 17.5429 20.4376 17.6534L19.5325 18.5501C19.4211 18.6605 19.4073 18.8346 19.4999 18.9608L19.7632 19.3195L19.5523 19.8242L19.1101 19.894C18.9544 19.9185 18.8398 20.0514 18.8398 20.2074L18.8404 21.4752C18.8404 21.6312 18.9551 21.764 19.1109 21.7884L19.5533 21.8579L19.7645 22.3621L19.5013 22.7213C19.4088 22.8476 19.4228 23.0217 19.5342 23.1319L20.4399 24.028C20.5514 24.1383 20.7275 24.1522 20.8552 24.0603L21.2174 23.7998L21.7268 24.0085L21.7972 24.4465C21.822 24.6006 21.9563 24.7139 22.1139 24.7139H22.1141L23.3945 24.7134C23.5522 24.7133 23.6865 24.5998 23.7111 24.4457L23.7812 24.0075L24.2902 23.7985L24.6528 24.0589C24.7804 24.1506 24.9566 24.1368 25.068 24.0263L25.9731 23.1296C26.0845 23.0193 26.0983 22.8452 26.0057 22.719L25.7425 22.3602L25.9534 21.8555L26.3956 21.7858C26.5513 21.7613 26.6659 21.6283 26.6658 21.4723L26.6653 20.2046ZM25.6753 21.2567C25.5652 21.2741 25.472 21.3469 25.4294 21.4488L25.0813 22.2817C25.0387 22.3836 25.0526 22.5001 25.1181 22.5894L25.326 22.8727L24.8079 23.3861L24.5217 23.1806C24.4313 23.1157 24.3134 23.102 24.2104 23.1443L23.3697 23.4894C23.2667 23.5317 23.1933 23.6239 23.1759 23.7329L23.1205 24.079L22.3877 24.0793L22.3321 23.7335C22.3145 23.6245 22.2411 23.5324 22.138 23.4902L21.2969 23.1455C21.2574 23.1293 21.2157 23.1214 21.1742 23.1214C21.1074 23.1214 21.0413 23.142 20.9856 23.1821L20.6997 23.3877L20.1812 22.8747L20.3891 22.591C20.4545 22.5017 20.4684 22.3852 20.4257 22.2833L20.0772 21.4509C20.0344 21.3489 19.9413 21.2762 19.8311 21.259L19.4817 21.2042L19.4814 20.4781L19.8306 20.4231C19.9407 20.4057 20.0338 20.3329 20.0764 20.231L20.4245 19.3981C20.4672 19.2962 20.4532 19.1797 20.3877 19.0904L20.1797 18.8071L20.6979 18.2937L20.9841 18.4992C21.0745 18.5642 21.1924 18.5778 21.2954 18.5355L22.1361 18.1904C22.2391 18.1481 22.3125 18.0558 22.3299 17.9469L22.3853 17.6008L23.1181 17.6006L23.1736 17.9464C23.1912 18.0553 23.2646 18.1474 23.3677 18.1897L24.2089 18.5343C24.312 18.5765 24.4299 18.5627 24.5201 18.4978L24.806 18.2922L25.3245 18.8052L25.1167 19.0888C25.0512 19.1781 25.0374 19.2947 25.0801 19.3965L25.4287 20.2289C25.4714 20.3309 25.5646 20.4036 25.6747 20.4208L26.0241 20.4756L26.0244 21.2017L25.6753 21.2567Z" fill="#6651E6"/>
<path d="M24.1141 20.5225C23.937 20.5225 23.7934 20.6646 23.7934 20.8399C23.7934 21.4078 23.3265 21.8698 22.7525 21.8698C22.1786 21.8698 21.7117 21.4078 21.7117 20.8399C21.7117 20.272 22.1786 19.81 22.7525 19.81C22.9028 19.81 23.0477 19.8409 23.1832 19.9019C23.3444 19.9746 23.5346 19.904 23.6079 19.7445C23.6813 19.585 23.6101 19.3969 23.4489 19.3243C23.2295 19.2254 22.9952 19.1753 22.7525 19.1753C21.825 19.1753 21.0703 19.922 21.0703 20.8398C21.0703 21.7576 21.825 22.5043 22.7525 22.5043C23.6801 22.5043 24.4348 21.7576 24.4348 20.8398C24.4348 20.6646 24.2912 20.5225 24.1141 20.5225Z" fill="#6651E6"/>
</g>
<defs>
<clipPath id="clip0">
<rect width="21.8926" height="21.6617" fill="white" transform="translate(4.77344 5.59814)"/>
</clipPath>
</defs>
</svg>
