<svg width="149" height="43" viewBox="0 0 149 43" fill="none" xmlns="http://www.w3.org/2000/svg">
<path d="M24.5489 14.2906L23.0744 16.8389L18.032 8.1216L2.55263 34.8786H13.0332C13.0332 36.286 14.1763 37.4269 15.5863 37.4269H2.55263C1.64058 37.4269 0.797883 36.941 0.341931 36.1526C-0.114021 35.3642 -0.113974 34.3929 0.342054 33.6045L15.8214 6.84746C16.2775 6.05897 17.1204 5.57324 18.0325 5.57324C18.9447 5.57324 19.7876 6.05897 20.2436 6.84746L24.5489 14.2906Z" fill="white"/>
<path d="M35.723 33.6039L26.0233 16.8383L24.5488 14.29L23.0744 16.8383L13.3757 33.6039C12.9197 34.3923 12.9197 35.3636 13.3756 36.152C13.8316 36.9404 14.6743 37.4264 15.5863 37.4264H33.5092C34.4215 37.4264 35.2645 36.941 35.7207 36.1525C36.177 35.364 36.177 34.3925 35.7209 33.6039H35.723ZM15.5863 34.8781L24.5489 19.3866L33.5092 34.8781H15.5863L15.5863 34.8781Z" fill="white"/>
<path d="M42.6579 36.1533C42.2019 36.9416 41.3593 37.4275 40.4473 37.4275H33.5092C34.9193 37.4275 36.0623 36.2866 36.0623 34.8792H40.442L28.0147 13.396L26.0233 16.8394L24.5488 14.2911L25.8041 12.1219C26.2602 11.3334 27.1031 10.8477 28.0152 10.8477C28.9274 10.8477 29.7703 11.3334 30.2263 12.1219L42.6579 33.605C43.114 34.3935 43.114 35.3649 42.6579 36.1533Z" fill="white"/>
<path fill-rule="evenodd" clip-rule="evenodd" d="M66.7122 16.6226C66.8831 16.8057 67.0027 17.0554 66.9856 17.3217V30.8882C66.9856 31.1712 66.8831 31.4542 66.6781 31.6706C66.5766 31.7734 66.4544 31.8545 66.3191 31.909C66.1838 31.9634 66.0384 31.9899 65.8921 31.9869C65.7212 31.9869 65.5504 31.9536 65.3795 31.9037C65.2414 31.8571 65.1179 31.7769 65.0207 31.6706L55.9991 20.2348V30.9881C56.004 31.1198 55.9808 31.2511 55.9308 31.3735C55.8808 31.4959 55.8051 31.6069 55.7087 31.6993C55.6122 31.7917 55.4971 31.8635 55.3706 31.9101C55.2441 31.9568 55.109 31.9773 54.9739 31.9702C54.7176 31.9702 54.4613 31.8704 54.2905 31.6873C54.1046 31.5063 54.0001 31.2608 54 31.0048V17.4049C54 17.122 54.1196 16.839 54.3417 16.6392C54.4375 16.5441 54.5518 16.4685 54.678 16.4171C54.8042 16.3656 54.9396 16.3393 55.0764 16.3396C55.2473 16.3396 55.4353 16.3729 55.589 16.4395C55.7599 16.4894 55.8966 16.6059 55.9991 16.7225L64.9694 28.1916V17.3217C64.9645 17.19 64.9878 17.0588 65.0378 16.9363C65.0878 16.8139 65.1634 16.7029 65.2598 16.6105C65.3563 16.5181 65.4714 16.4463 65.5979 16.3997C65.7244 16.353 65.8595 16.3326 65.9946 16.3396C66.2509 16.3396 66.5072 16.4228 66.6781 16.6226H66.7122ZM85.2851 16.6559C85.473 16.8723 85.5926 17.1553 85.5755 17.4216V26.011C85.5926 27.1096 85.3192 28.2082 84.7725 29.1737C84.2599 30.1059 83.491 30.8716 82.5513 31.3876C81.5944 31.9369 80.5009 32.2199 79.3732 32.2033C78.2626 32.2033 77.152 31.9369 76.161 31.4043C75.2261 30.8863 74.4571 30.1256 73.9397 29.207C73.3947 28.2325 73.1181 27.1372 73.1367 26.0276V17.4382C73.1367 17.1553 73.2392 16.8723 73.4784 16.6725C73.6918 16.4721 73.9766 16.3602 74.2729 16.3602C74.5693 16.3602 74.8541 16.4721 75.0674 16.6725C75.2725 16.8723 75.3921 17.1386 75.3921 17.4382V25.9943C75.375 26.7267 75.5629 27.4425 75.9388 28.0917C76.2847 28.6821 76.7844 29.1731 77.3874 29.515C77.9905 29.857 78.6755 30.0379 79.3732 30.0393C79.9175 30.0415 80.4568 29.9382 80.9597 29.7353C81.4625 29.5324 81.9189 29.234 82.3022 28.8575C82.6855 28.481 82.988 28.0339 83.1921 27.5424C83.3962 27.0508 83.4978 26.5245 83.491 25.9943V17.4382C83.491 17.1553 83.5764 16.8723 83.7644 16.6559C83.9694 16.4395 84.2428 16.3229 84.5333 16.3396C84.8237 16.3396 85.0971 16.4561 85.2851 16.6559ZM103.038 30.2723C103.169 30.4581 103.234 30.6798 103.226 30.9049C103.243 31.1879 103.123 31.4709 102.901 31.6706C102.701 31.8508 102.439 31.9518 102.166 31.9536C101.808 31.9702 101.466 31.7871 101.261 31.5041L96.8183 25.7113L92.4442 31.5041C92.3476 31.6477 92.2158 31.7655 92.0606 31.8469C91.9055 31.9283 91.732 31.9707 91.5558 31.9702C91.2824 31.9702 91.0432 31.8704 90.8552 31.6873C90.6843 31.5208 90.5647 31.2877 90.5647 31.0547C90.5647 30.7884 90.6673 30.522 90.8381 30.3223L95.554 24.08L90.821 17.8877C90.6521 17.6869 90.5672 17.4314 90.583 17.1723C90.5988 16.9131 90.7143 16.6693 90.9065 16.4894C91.0675 16.3286 91.2772 16.2223 91.5048 16.1864C91.7325 16.1504 91.9659 16.1866 92.1709 16.2897C92.3353 16.3634 92.4768 16.4783 92.5809 16.6226L96.9892 22.3821L101.329 16.6725C101.517 16.3895 101.842 16.2064 102.201 16.1731C102.474 16.1731 102.747 16.3063 102.935 16.5061C103.123 16.6725 103.243 16.9222 103.26 17.1719C103.26 17.4216 103.174 17.638 103.021 17.8377L98.2365 24.0301L103.021 30.2723H103.038ZM119.526 16.6226C119.731 16.8057 119.868 17.0887 119.851 17.3717C119.851 17.6546 119.731 17.921 119.509 18.1041C119.304 18.2872 119.013 18.3871 118.723 18.3704H114.656V30.9215C114.656 31.2045 114.554 31.4709 114.332 31.6706C114.101 31.8695 113.803 31.9793 113.495 31.9793C113.186 31.9793 112.888 31.8695 112.657 31.6706C112.551 31.5751 112.466 31.4594 112.407 31.3305C112.348 31.2017 112.317 31.0625 112.316 30.9215V18.3704H108.249C107.959 18.3704 107.685 18.2872 107.463 18.0874C107.357 17.9924 107.273 17.8764 107.217 17.7472C107.161 17.618 107.135 17.4786 107.138 17.3384C107.138 17.072 107.241 16.8057 107.446 16.6226C107.668 16.4228 107.959 16.3229 108.232 16.3396H118.723C119.013 16.3396 119.304 16.4228 119.526 16.6226Z" fill="white"/>
<path fill-rule="evenodd" clip-rule="evenodd" d="M124.515 31.5869C123.781 31.1874 123.148 30.5882 122.721 29.8724C122.602 29.7059 122.533 29.4895 122.516 29.2731C122.516 28.9902 122.636 28.7238 122.858 28.5407C123.046 28.341 123.302 28.2411 123.575 28.2078C123.986 28.2577 124.361 28.4575 124.601 28.7738C125.113 29.6061 126.036 30.1054 127.01 30.0722C127.403 30.0833 127.794 30.0175 128.161 29.8786C128.527 29.7397 128.861 29.5305 129.143 29.2636C129.425 28.9966 129.65 28.6772 129.803 28.3243C129.956 27.9714 130.034 27.5921 130.034 27.209V17.4211C130.031 17.2771 130.06 17.134 130.119 17.0018C130.178 16.8697 130.266 16.7515 130.376 16.6554C130.598 16.4557 130.888 16.3392 131.179 16.3392C131.486 16.3392 131.777 16.439 131.999 16.6388C132.101 16.7396 132.18 16.8595 132.233 16.9911C132.286 17.1226 132.311 17.2633 132.307 17.4045V27.2257C132.325 28.1062 132.096 28.975 131.645 29.7378C131.193 30.5007 130.535 31.1287 129.744 31.5536C128.951 31.9932 128.055 32.2272 127.142 32.233C126.23 32.2388 125.331 32.0164 124.532 31.5869H124.515ZM140.32 31.6535C139.414 31.3206 138.577 30.8212 137.86 30.1554C137.717 30.0486 137.601 29.9129 137.518 29.7576C137.436 29.6023 137.389 29.4313 137.381 29.2565C137.383 29.118 137.414 28.9814 137.473 28.8553C137.532 28.7292 137.617 28.6164 137.723 28.5241C137.817 28.4259 137.931 28.3473 138.057 28.2929C138.183 28.2386 138.32 28.2096 138.458 28.2078C138.714 28.2078 138.936 28.291 139.124 28.4575C139.671 28.9569 140.32 29.373 141.004 29.6726C141.721 29.939 142.473 30.0722 143.225 30.0722C144.079 30.0888 144.933 29.8724 145.668 29.4063C146.266 29.0734 146.659 28.4575 146.659 27.775C146.676 27.0592 146.3 26.3767 145.668 25.9772C144.749 25.4573 143.742 25.1021 142.695 24.9285C141.123 24.5956 139.91 24.0962 139.056 23.3804C138.201 22.6647 137.791 21.6659 137.791 20.4008C137.774 19.5685 138.013 18.7528 138.509 18.0703C139.004 17.4045 139.671 16.8718 140.457 16.5389C142.229 15.8503 144.199 15.8206 145.993 16.4557C146.755 16.7029 147.454 17.1058 148.043 17.6375C148.351 17.8706 148.556 18.2202 148.556 18.5864C148.556 18.7196 148.529 18.8516 148.476 18.9746C148.423 19.0975 148.346 19.2089 148.248 19.3022C148.155 19.4079 148.04 19.4926 147.91 19.5501C147.78 19.6076 147.639 19.6366 147.496 19.6351C147.325 19.6351 147.12 19.5685 146.984 19.452C145.979 18.5742 144.677 18.0882 143.327 18.087C142.473 18.0371 141.619 18.2535 140.884 18.6862C140.605 18.8672 140.377 19.1122 140.219 19.3997C140.061 19.6872 139.979 20.0082 139.979 20.3342C139.979 20.6602 140.061 20.9812 140.219 21.2687C140.377 21.5562 140.605 21.8013 140.884 21.9822C141.719 22.4619 142.632 22.7997 143.584 22.9809C144.592 23.164 145.566 23.4803 146.505 23.8632C147.223 24.1794 147.838 24.6622 148.265 25.2947C148.709 26.0272 148.914 26.8428 148.88 27.6918C148.897 28.5241 148.641 29.3231 148.146 29.9889C147.633 30.6881 146.915 31.2207 146.095 31.5536C144.236 32.2459 142.186 32.2813 140.303 31.6535H140.32Z" fill="white"/>
</svg>
