<svg width="128" height="43" viewBox="0 0 128 43" fill="none" xmlns="http://www.w3.org/2000/svg">
<path d="M14.2913 21.5114C14.2913 23.3555 13.7405 24.9088 12.6352 26.1662C11.4816 27.4837 9.98276 28.1451 8.14794 28.1451C6.30826 28.1451 4.81424 27.4837 3.66067 26.1662C2.55485 24.9088 2 23.3555 2 21.5114C2 19.6623 2.55485 18.1095 3.66067 16.8566C4.82704 15.5515 6.32597 14.8992 8.14794 14.8992C9.98276 14.8992 11.4816 15.5515 12.6352 16.8566C13.7405 18.1095 14.2913 19.6623 14.2913 21.5114ZM10.6381 21.5114C10.6381 20.6762 10.4373 19.9711 10.0353 19.4012C9.58553 18.7532 8.95609 18.4314 8.14794 18.4314C7.33949 18.4314 6.7103 18.7532 6.26007 19.4012C5.85391 19.9711 5.65291 20.6762 5.65291 21.5114C5.65291 22.3421 5.85391 23.0555 6.26007 23.6427C6.7103 24.2906 7.33949 24.6129 8.14794 24.6129C8.95609 24.6129 9.58553 24.2906 10.0353 23.6427C10.4373 23.0555 10.6381 22.3421 10.6381 21.5114ZM27.4999 21.5114C27.4999 23.234 27.0017 24.739 26.001 26.0266C24.9305 27.4359 23.5498 28.1451 21.872 28.1451C20.6877 28.1451 19.6831 27.8015 18.8616 27.123C18.8616 27.2792 18.879 27.6578 18.9141 28.263C18.949 28.8713 18.9662 29.3673 18.9662 29.7589C18.9662 31.9215 18.3196 33 17.0265 33C16.4976 33 16.0653 32.8129 15.7199 32.443C15.3792 32.0693 15.2086 31.6203 15.2086 31.0903V17.0264C15.2086 16.513 15.3835 16.0691 15.733 15.6954C16.0825 15.3255 16.5153 15.1389 17.0309 15.1389C17.8083 15.1389 18.3765 15.5252 18.7349 16.2958C19.4995 15.3648 20.5438 14.8992 21.8676 14.8992C23.5498 14.8992 24.9262 15.5948 26.001 16.9917C26.9974 18.2838 27.4999 19.7889 27.4999 21.5114ZM23.8468 21.5114C23.8468 20.6762 23.6419 19.9711 23.2398 19.4012C22.7894 18.7532 22.1604 18.4314 21.352 18.4314C20.5438 18.4314 19.9146 18.7532 19.4644 19.4012C19.0624 19.9711 18.8616 20.6762 18.8616 21.5114C18.8616 22.3421 19.0624 23.0555 19.4644 23.6427C19.9146 24.2906 20.5438 24.6129 21.352 24.6129C22.1604 24.6129 22.7894 24.2906 23.2398 23.6427C23.6419 23.0555 23.8468 22.3421 23.8468 21.5114ZM40.7914 21.1203C40.7914 21.7287 40.6471 22.1463 40.3586 22.3816C40.0704 22.6119 39.6205 22.7293 39.0131 22.7293H32.4195C32.4195 23.4254 32.7474 23.9602 33.4027 24.334C33.9314 24.626 34.5781 24.7742 35.3427 24.7742C35.9373 24.7742 36.6493 24.5777 37.4838 24.1912C38.3184 23.7994 38.8556 23.6077 39.0876 23.6077C39.5112 23.6077 39.8694 23.7601 40.1666 24.0733C40.4591 24.3824 40.6081 24.7564 40.6081 25.1873C40.6081 26.1829 39.861 26.9581 38.3661 27.5146C37.2259 27.9319 36.068 28.1451 34.8842 28.1451C32.9792 28.1451 31.441 27.5146 30.2657 26.2576C29.0901 25.0001 28.5006 23.4211 28.5006 21.5114C28.5006 19.6927 29.1121 18.1399 30.3354 16.8441C31.5544 15.5471 33.071 14.8992 34.8796 14.8992C36.5618 14.8992 37.9687 15.5126 39.0963 16.7392C40.2232 17.9663 40.7914 19.4277 40.7914 21.1203ZM37.1387 20.2062C37.1211 19.6492 36.8634 19.1448 36.3652 18.6877C35.867 18.2312 35.3386 18.0053 34.7791 18.0053C34.2025 18.0053 33.6648 18.2312 33.1669 18.6877C32.6689 19.1448 32.4195 19.6492 32.4195 20.2062H37.1387ZM53.0648 25.9958C53.0648 26.527 52.8946 26.9747 52.5542 27.3489C52.2087 27.719 51.776 27.9061 51.2474 27.9061C49.9715 27.9061 49.3334 26.8968 49.3334 24.8828C49.3334 24.4955 49.3598 23.8867 49.4121 23.0471C49.469 22.2116 49.4954 21.5984 49.4954 21.2112C49.4954 19.0749 48.8006 18.0053 47.4155 18.0053C46.0302 18.0053 45.34 19.0749 45.34 21.2112C45.34 21.5984 45.3617 22.2116 45.401 23.0471C45.4448 23.8867 45.4666 24.4955 45.4666 24.8828C45.4666 26.8968 44.8374 27.9061 43.5792 27.9061C43.0503 27.9061 42.618 27.719 42.277 27.3489C41.9319 26.9747 41.7614 26.527 41.7614 25.9958V17.0225C41.7614 16.4952 41.9319 16.0479 42.277 15.6867C42.618 15.3212 43.0549 15.1389 43.5836 15.1389C44.4574 15.1389 45.0646 15.5252 45.4053 16.2958C45.9953 15.3648 47.0394 14.8992 48.5339 14.8992C49.919 14.8992 51.0202 15.2643 51.8286 15.9908C52.6544 16.77 53.0648 17.8397 53.0648 19.2015V25.9958ZM64.5256 25.6092C64.5256 26.4312 63.9891 27.0835 62.9136 27.5625C62.062 27.9492 61.1364 28.1479 60.2004 28.1451C58.3602 28.1451 56.8664 27.4837 55.713 26.1662C54.6073 24.9088 54.0524 23.3555 54.0524 21.5114C54.0524 19.6623 54.6162 18.101 55.7478 16.8219C56.8793 15.5389 58.3602 14.8992 60.2004 14.8992C61.262 14.8992 62.1752 15.0557 62.936 15.3648C63.997 15.7824 64.5256 16.4347 64.5256 17.3222C64.5256 17.77 64.3861 18.1659 64.1062 18.5098C63.8268 18.849 63.468 19.0231 63.0317 19.0231C62.734 19.0231 62.3057 18.923 61.7469 18.7277C61.1875 18.5271 60.7424 18.4314 60.4148 18.4314C59.5448 18.4314 58.8674 18.7403 58.3825 19.3577C57.9324 19.9147 57.7051 20.6282 57.7051 21.5114C57.7051 22.3421 57.9061 23.0471 58.3131 23.6169C58.7622 24.2826 59.3965 24.6129 60.2044 24.6129C60.5632 24.6129 61.0521 24.5085 61.6769 24.2949C62.3022 24.0868 62.7523 23.9781 63.0317 23.9781C63.4382 23.9781 63.7871 24.1517 64.0849 24.4912C64.3777 24.8348 64.5256 25.2042 64.5256 25.6092ZM77.8042 25.9958C77.8042 26.527 77.634 26.9747 77.293 27.3489C76.9481 27.719 76.5114 27.9061 75.9818 27.9061C75.1868 27.9061 74.619 27.5187 74.2781 26.7488C73.5138 27.68 72.4691 28.1451 71.1455 28.1451C69.4507 28.1451 68.0611 27.4359 66.9857 26.0266C66.007 24.739 65.5142 23.234 65.5142 21.5114C65.5142 19.7889 66.007 18.2838 66.9857 16.9917C68.0785 15.5948 69.4631 14.8992 71.1455 14.8992C72.4691 14.8992 73.5138 15.3648 74.2781 16.2958C74.619 15.5252 75.1868 15.1389 75.9818 15.1389C76.498 15.1389 76.9307 15.3255 77.2806 15.6954C77.6295 16.0691 77.8042 16.5087 77.8042 17.0225V25.9958ZM74.1515 21.5114C74.1515 20.6762 73.951 19.9711 73.5485 19.4012C73.081 18.7532 72.4518 18.4314 71.6612 18.4314C70.8527 18.4314 70.2239 18.7532 69.7733 19.4012C69.3673 19.9711 69.1668 20.6762 69.1668 21.5114C69.1668 22.3421 69.3624 23.0555 69.751 23.6427C70.215 24.2906 70.8527 24.6129 71.6612 24.6129C72.4691 24.6129 73.0984 24.2906 73.5485 23.6427C73.951 23.0555 74.1515 22.3421 74.1515 21.5114ZM87.1244 16.7826C87.1244 17.5612 86.7443 18.0962 85.984 18.3875C85.2807 18.6228 84.581 18.8625 83.8822 19.1096C83.1169 19.5451 82.7373 20.3541 82.7373 21.5288V25.9958C82.7373 26.527 82.5621 26.9747 82.2221 27.3489C81.8762 27.719 81.4395 27.9061 80.9109 27.9061C80.3784 27.9061 79.9407 27.719 79.6007 27.3489C79.2548 26.9747 79.0846 26.527 79.0846 25.9958V17.0225C79.0846 16.4952 79.2548 16.0479 79.5958 15.6867C79.9407 15.3212 80.3784 15.1389 80.907 15.1389C81.7804 15.1389 82.3874 15.5252 82.7288 16.2958C83.511 15.3648 84.3502 14.8992 85.2544 14.8992C85.7696 14.8992 86.2113 15.0859 86.578 15.4557C86.9403 15.8299 87.1244 16.2736 87.1244 16.7826ZM96.6541 16.948C96.6541 17.757 96.335 18.266 95.7022 18.4839C95.3911 18.5924 94.7394 18.6488 93.7479 18.6488V25.9958C93.7479 26.527 93.5732 26.9747 93.2332 27.3489C92.8873 27.719 92.4506 27.9061 91.922 27.9061C91.4069 27.9061 90.9692 27.719 90.6193 27.3489C90.2704 26.9747 90.0957 26.527 90.0957 25.9958V18.6488C89.3438 18.6488 88.7979 18.5531 88.453 18.3665C87.9815 18.1054 87.7483 17.6311 87.7483 16.948C87.7483 16.2654 87.989 15.7998 88.4738 15.5515C88.8019 15.3687 89.3438 15.2734 90.0957 15.2734V13.716C90.0957 11.8848 90.7022 10.9714 91.922 10.9714C93.1364 10.9714 93.7479 11.8848 93.7479 13.716V15.2734C94.7394 15.2734 95.3911 15.3299 95.7022 15.4384C96.335 15.6559 96.6541 16.161 96.6541 16.948ZM126 14.7391C125.99 13.6225 123.918 13.1157 118.553 13.1157C105.965 13.1157 102.771 12.5804 99.3539 9C100.792 11.1498 101.578 15.1821 114.883 14.9814C128.765 14.7685 120.296 18.5449 117.832 22.8116C122.276 18.863 125.987 16.2603 126 14.7553V14.7391ZM108.311 26.205C108.311 27.2429 107.453 28.0968 106.411 28.0971C105.357 28.0971 104.506 27.2493 104.506 26.205C104.506 26.2046 104.506 26.2041 104.506 26.2036C104.506 25.1639 105.365 24.3084 106.41 24.3084C106.41 24.3084 106.41 24.3084 106.411 24.3084C107.46 24.3084 108.311 25.1564 108.311 26.205ZM116.98 26.205C116.98 27.2429 116.122 28.0968 115.079 28.0971C114.027 28.0971 113.175 27.2493 113.175 26.205C113.175 26.2046 113.175 26.2041 113.175 26.2036C113.175 25.1639 114.034 24.3084 115.078 24.3084C115.079 24.3084 115.079 24.3084 115.079 24.3084C116.129 24.3084 116.98 25.1564 116.98 26.205Z" fill="white"/>
</svg>
