<svg width="195" height="38" viewBox="0 0 195 38" fill="none" xmlns="http://www.w3.org/2000/svg">
<path d="M19.329 19.8098C19.329 22.7295 18.4629 25.1889 16.7246 27.1798C14.9106 29.2658 12.5535 30.313 9.66813 30.313C6.77508 30.313 4.42562 29.2658 2.61154 27.1798C0.872542 25.1889 0 22.7295 0 19.8098C0 16.882 0.872542 14.4234 2.61154 12.4396C4.44575 10.3731 6.80294 9.34041 9.66813 9.34041C12.5535 9.34041 14.9106 10.3731 16.7246 12.4396C18.4629 14.4234 19.329 16.882 19.329 19.8098ZM13.5841 19.8098C13.5841 18.4873 13.2683 17.371 12.6362 16.4685C11.9289 15.4426 10.939 14.933 9.66813 14.933C8.39678 14.933 7.40732 15.4426 6.6993 16.4685C6.06058 17.371 5.7445 18.4873 5.7445 19.8098C5.7445 21.1249 6.06058 22.2546 6.6993 23.1842C7.40732 24.2101 8.39678 24.7205 9.66813 24.7205C10.939 24.7205 11.9289 24.2101 12.6362 23.1842C13.2683 22.2546 13.5841 21.1249 13.5841 19.8098ZM40.1007 19.8098C40.1007 22.5371 39.3173 24.9201 37.7436 26.9588C36.0601 29.1902 33.8888 30.313 31.2503 30.313C29.3879 30.313 27.808 29.769 26.5162 28.6947C26.5162 28.9421 26.5436 29.5415 26.5988 30.4998C26.6537 31.4629 26.6808 32.2482 26.6808 32.8682C26.6808 36.2924 25.6638 38 23.6304 38C22.7986 38 22.1188 37.7037 21.5757 37.1181C21.0398 36.5263 20.7717 35.8155 20.7717 34.9763V12.7084C20.7717 11.8956 21.0467 11.1928 21.5963 10.601C22.1458 10.0154 22.8264 9.71991 23.6372 9.71991C24.8598 9.71991 25.7534 10.3315 26.317 11.5516C27.5194 10.0777 29.1617 9.34041 31.2434 9.34041C33.8888 9.34041 36.0533 10.4418 37.7436 12.6534C39.3104 14.6994 40.1007 17.0824 40.1007 19.8098ZM34.3558 19.8098C34.3558 18.4873 34.0336 17.371 33.4014 16.4685C32.693 15.4426 31.7039 14.933 30.4325 14.933C29.1617 14.933 28.1722 15.4426 27.4642 16.4685C26.8319 17.371 26.5162 18.4873 26.5162 19.8098C26.5162 21.1249 26.8319 22.2546 27.4642 23.1842C28.1722 24.2101 29.1617 24.7205 30.4325 24.7205C31.7039 24.7205 32.693 24.2101 33.4014 23.1842C34.0336 22.2546 34.3558 21.1249 34.3558 19.8098ZM61.0026 19.1905C61.0026 20.1538 60.7756 20.815 60.322 21.1876C59.8688 21.5522 59.1612 21.7381 58.206 21.7381H47.8371C47.8371 22.8402 48.3527 23.687 49.3833 24.2788C50.2147 24.7411 51.2317 24.9759 52.434 24.9759C53.3691 24.9759 54.4888 24.6648 55.8012 24.0528C57.1137 23.4324 57.9584 23.1288 58.3233 23.1288C58.9894 23.1288 59.5527 23.3702 60.02 23.8661C60.4801 24.3555 60.7143 24.9476 60.7143 25.6298C60.7143 27.2062 59.5394 28.4336 57.1887 29.3147C55.3956 29.9755 53.5747 30.313 51.7131 30.313C48.7172 30.313 46.2984 29.3147 44.4501 27.3246C42.6014 25.3336 41.6744 22.8334 41.6744 19.8098C41.6744 16.9301 42.636 14.4715 44.5598 12.4198C46.4766 10.3663 48.8616 9.34041 51.7059 9.34041C54.3513 9.34041 56.5637 10.3117 58.337 12.2538C60.1091 14.1966 61.0026 16.5105 61.0026 19.1905ZM55.2585 17.7432C55.2307 16.8613 54.8255 16.0626 54.0421 15.3388C53.2586 14.6161 52.4276 14.2584 51.5478 14.2584C50.641 14.2584 49.7955 14.6161 49.0124 15.3388C48.2294 16.0626 47.8371 16.8613 47.8371 17.7432H55.2585ZM80.3036 26.9099C80.3036 27.751 80.0359 28.4599 79.5005 29.0524C78.9573 29.6384 78.2767 29.9347 77.4455 29.9347C75.4391 29.9347 74.4355 28.3366 74.4355 25.1477C74.4355 24.5346 74.4771 23.5706 74.5593 22.2412C74.6488 20.9184 74.6903 19.9475 74.6903 19.3344C74.6903 15.9519 73.5976 14.2584 71.4195 14.2584C69.241 14.2584 68.1556 15.9519 68.1556 19.3344C68.1556 19.9475 68.1898 20.9184 68.2516 22.2412C68.3205 23.5706 68.3547 24.5346 68.3547 25.1477C68.3547 28.3366 67.3653 29.9347 65.3867 29.9347C64.5549 29.9347 63.875 29.6384 63.3388 29.0524C62.7961 28.4599 62.528 27.751 62.528 26.9099V12.7023C62.528 11.8674 62.7961 11.1592 63.3388 10.5873C63.875 10.0085 64.5621 9.71991 65.3936 9.71991C66.7677 9.71991 67.7225 10.3315 68.2584 11.5516C69.1861 10.0777 70.8281 9.34041 73.1783 9.34041C75.3565 9.34041 77.0882 9.91846 78.3595 11.0687C79.6581 12.3026 80.3036 13.9961 80.3036 16.1524V26.9099ZM98.3265 26.2979C98.3265 27.5994 97.4828 28.6321 95.7916 29.3907C94.4523 30.0028 92.9968 30.3175 91.5249 30.313C88.631 30.313 86.2818 29.2658 84.4681 27.1798C82.7292 25.1889 81.8567 22.7295 81.8567 19.8098C81.8567 16.882 82.7433 14.41 84.5227 12.3847C86.3021 10.3533 88.631 9.34041 91.5249 9.34041C93.1943 9.34041 94.6303 9.58825 95.8267 10.0777C97.4953 10.7389 98.3265 11.7715 98.3265 13.1769C98.3265 13.8858 98.1072 14.5127 97.667 15.0571C97.2276 15.5943 96.6634 15.8699 95.9773 15.8699C95.5091 15.8699 94.8355 15.7114 93.9568 15.4022C93.0772 15.0846 92.3771 14.933 91.862 14.933C90.4939 14.933 89.4286 15.4221 88.6661 16.3997C87.9582 17.2816 87.6008 18.4113 87.6008 19.8098C87.6008 21.1249 87.9169 22.2412 88.5568 23.1434C89.2631 24.1974 90.2606 24.7205 91.5311 24.7205C92.0954 24.7205 92.8641 24.5552 93.8467 24.2169C94.8301 23.8875 95.5379 23.7153 95.9773 23.7153C96.6165 23.7153 97.1652 23.9902 97.6335 24.5277C98.0939 25.0717 98.3265 25.6566 98.3265 26.2979ZM119.208 26.9099C119.208 27.751 118.941 28.4599 118.404 29.0524C117.862 29.6384 117.175 29.9347 116.342 29.9347C115.092 29.9347 114.199 29.3212 113.663 28.1022C112.461 29.5766 110.818 30.313 108.737 30.313C106.072 30.313 103.886 29.1902 102.195 26.9588C100.656 24.9201 99.8811 22.5371 99.8811 19.8098C99.8811 17.0824 100.656 14.6994 102.195 12.6534C103.914 10.4418 106.091 9.34041 108.737 9.34041C110.818 9.34041 112.461 10.0777 113.663 11.5516C114.199 10.3315 115.092 9.71991 116.342 9.71991C117.154 9.71991 117.835 10.0154 118.385 10.601C118.933 11.1928 119.208 11.8887 119.208 12.7023V26.9099ZM113.464 19.8098C113.464 18.4873 113.149 17.371 112.516 16.4685C111.781 15.4426 110.791 14.933 109.548 14.933C108.276 14.933 107.288 15.4426 106.579 16.4685C105.941 17.371 105.625 18.4873 105.625 19.8098C105.625 21.1249 105.933 22.2546 106.544 23.1842C107.274 24.2101 108.276 24.7205 109.548 24.7205C110.818 24.7205 111.808 24.2101 112.516 23.1842C113.149 22.2546 113.464 21.1249 113.464 19.8098ZM133.865 12.3224C133.865 13.5552 133.267 14.4023 132.072 14.8635C130.966 15.2361 129.865 15.6156 128.766 16.0069C127.563 16.6964 126.966 17.9773 126.966 19.8372V26.9099C126.966 27.751 126.69 28.4599 126.156 29.0524C125.612 29.6384 124.925 29.9347 124.094 29.9347C123.256 29.9347 122.568 29.6384 122.033 29.0524C121.489 28.4599 121.222 27.751 121.222 26.9099V12.7023C121.222 11.8674 121.489 11.1592 122.026 10.5873C122.568 10.0085 123.256 9.71991 124.088 9.71991C125.461 9.71991 126.416 10.3315 126.953 11.5516C128.183 10.0777 129.502 9.34041 130.924 9.34041C131.734 9.34041 132.429 9.63597 133.006 10.2215C133.575 10.8141 133.865 11.5165 133.865 12.3224ZM148.851 12.5844C148.851 13.8652 148.349 14.6711 147.354 15.0162C146.865 15.188 145.84 15.2773 144.281 15.2773V26.9099C144.281 27.751 144.006 28.4599 143.472 29.0524C142.928 29.6384 142.241 29.9347 141.41 29.9347C140.6 29.9347 139.911 29.6384 139.361 29.0524C138.812 28.4599 138.538 27.751 138.538 26.9099V15.2773C137.355 15.2773 136.497 15.1258 135.954 14.8303C135.213 14.4169 134.846 13.6659 134.846 12.5844C134.846 11.5035 135.225 10.7663 135.987 10.3731C136.503 10.0838 137.355 9.93293 138.538 9.93293V7.46707C138.538 4.56756 139.491 3.12137 141.41 3.12137C143.319 3.12137 144.281 4.56756 144.281 7.46707V9.93293C145.84 9.93293 146.865 10.0223 147.354 10.1941C148.349 10.5384 148.851 11.3382 148.851 12.5844ZM195 9.08694C194.984 7.31898 191.725 6.51647 183.289 6.51647C163.493 6.51647 158.471 5.66891 153.097 0C155.358 3.40387 156.595 9.78828 177.518 9.47058C199.348 9.13348 186.03 15.1128 182.155 21.8683C189.143 15.6164 194.979 11.4955 195 9.11252V9.08694ZM167.183 27.2413C167.182 28.8847 165.834 30.2367 164.194 30.2371C162.538 30.2371 161.199 28.8948 161.199 27.2413C161.199 27.2405 161.199 27.2398 161.199 27.239C161.199 25.5929 162.55 24.2383 164.193 24.2383C164.193 24.2383 164.193 24.2383 164.194 24.2383C165.845 24.2383 167.183 25.581 167.183 27.2413ZM180.815 27.2413C180.815 28.8847 179.466 30.2367 177.826 30.2371C176.172 30.2371 174.832 28.8948 174.832 27.2413C174.832 27.2405 174.832 27.2398 174.832 27.239C174.832 25.5929 176.183 24.2383 177.825 24.2383C177.825 24.2383 177.825 24.2383 177.826 24.2383C179.477 24.2383 180.815 25.581 180.815 27.2413Z" fill="#32373C"/>
</svg>
