<svg width="163" height="47" viewBox="0 0 163 47" fill="none" xmlns="http://www.w3.org/2000/svg">
<path fill-rule="evenodd" clip-rule="evenodd" d="M46.0433 11.3348C46.0432 11.2719 46.0344 11.2092 46.0174 11.1485C46.0139 11.135 46.0078 11.1226 46.0017 11.1101C45.9981 11.1028 45.9945 11.0954 45.9914 11.0878C45.988 11.0793 45.9848 11.0708 45.9816 11.0622C45.9706 11.0331 45.9597 11.0041 45.9432 10.9773C45.9347 10.9622 45.9231 10.9489 45.9114 10.9356C45.9052 10.9285 45.8989 10.9214 45.8931 10.914C45.8864 10.9053 45.88 10.8966 45.8736 10.8879C45.8589 10.8679 45.8444 10.8482 45.8263 10.8301C45.8129 10.8178 45.7973 10.8068 45.7817 10.796C45.7726 10.7896 45.7635 10.7832 45.7549 10.7767C45.7462 10.7702 45.7379 10.7636 45.7295 10.757C45.7113 10.7426 45.6931 10.7283 45.6715 10.716L36.7603 5.78269C36.6475 5.72018 36.5196 5.68727 36.3894 5.68727C36.2592 5.68727 36.1313 5.72018 36.0185 5.78269L27.1063 10.716H27.1054C27.0849 10.7277 27.0671 10.7424 27.0488 10.7574C27.0406 10.7642 27.0324 10.7709 27.0238 10.7775C27.0158 10.7835 27.0074 10.7891 26.9991 10.7948C26.9824 10.8061 26.9657 10.8174 26.9515 10.831C26.933 10.8488 26.9184 10.8688 26.9034 10.8891C26.8973 10.8974 26.8912 10.9057 26.8847 10.914C26.8784 10.9226 26.8713 10.9307 26.8642 10.9389C26.8536 10.9511 26.843 10.9634 26.8347 10.9773C26.8183 11.0051 26.8068 11.0352 26.7952 11.0653C26.7923 11.0728 26.7894 11.0803 26.7864 11.0878C26.7831 11.097 26.7789 11.1057 26.7747 11.1145C26.7694 11.1255 26.7641 11.1366 26.7605 11.1485C26.7438 11.2082 26.7345 11.2715 26.7345 11.3339V20.7048L19.3088 24.8161V6.48529C19.3087 6.42235 19.2999 6.3597 19.2829 6.29894C19.2797 6.28662 19.274 6.27519 19.2684 6.2638C19.2642 6.2554 19.26 6.24701 19.2569 6.23831C19.2537 6.23013 19.2505 6.22194 19.2474 6.21378C19.2363 6.18458 19.2253 6.15562 19.2087 6.12775C19.2008 6.11366 19.1898 6.10122 19.1789 6.08882C19.1718 6.08082 19.1648 6.07284 19.1586 6.06445C19.1519 6.0558 19.1454 6.04707 19.1391 6.03838C19.1244 6.0184 19.1099 5.99865 19.0918 5.98063C19.0776 5.96756 19.0609 5.95606 19.0442 5.94457C19.0359 5.93882 19.0275 5.93308 19.0195 5.92714C19.0118 5.92128 19.0043 5.91528 18.9968 5.90927C18.9779 5.89426 18.9591 5.87924 18.9379 5.86651H18.9361L10.0249 0.933179C9.91203 0.870748 9.78413 0.837891 9.65395 0.837891C9.52377 0.837891 9.39587 0.870748 9.28303 0.933179L0.371841 5.86651H0.370913C0.348282 5.87903 0.329201 5.89498 0.30992 5.91109C0.30313 5.91676 0.296316 5.92245 0.289312 5.92803C0.280941 5.93422 0.272123 5.94009 0.263284 5.94597C0.246667 5.95703 0.229979 5.96814 0.216057 5.98152C0.196562 6.00096 0.18044 6.02311 0.164189 6.04543C0.15957 6.05177 0.15494 6.05813 0.15022 6.06445C0.144078 6.07232 0.137434 6.07983 0.130795 6.08734C0.119394 6.10023 0.10801 6.1131 0.0992193 6.12775C0.0813832 6.15815 0.0692177 6.19128 0.0571452 6.22416C0.0554097 6.22888 0.0536761 6.2336 0.0519279 6.23831C0.0486847 6.24728 0.0443781 6.2559 0.0400929 6.26448C0.0345763 6.27553 0.0290952 6.28651 0.0259639 6.29805C0.00927283 6.35868 0 6.42109 0 6.48529V35.8338C8.97048e-05 35.9594 0.0345955 36.0827 0.10004 36.1913C0.165484 36.2999 0.259553 36.3901 0.372768 36.4526L18.1942 46.3192C18.2257 46.3365 18.2596 46.348 18.293 46.3593C18.3009 46.362 18.3088 46.3647 18.3166 46.3674C18.3243 46.3702 18.3317 46.3735 18.3393 46.3769C18.3509 46.3821 18.3626 46.3873 18.375 46.3906C18.4997 46.4221 18.6306 46.4221 18.7552 46.3906C18.7651 46.3881 18.7744 46.3839 18.7835 46.3798C18.7908 46.3765 18.7979 46.3733 18.8053 46.371L18.8169 46.367C18.8575 46.3533 18.8979 46.3396 18.9351 46.3192L36.7603 36.4526C36.9903 36.3242 37.1312 36.0888 37.1312 35.8338V26.4638L45.6706 21.7364C45.7838 21.674 45.878 21.5838 45.9434 21.4752C46.0089 21.3665 46.0433 21.2432 46.0433 21.1176V11.3348ZM44.5578 12.5697V20.7048H44.5587L37.1312 24.8161V16.6809L41.4394 14.2959L44.5578 12.5697ZM35.6466 27.2805V35.421L19.3079 44.4656V36.2484L31.4089 29.6076L35.6466 27.2805ZM1.48551 35.421V7.72107L4.60396 9.44546L8.91119 11.8314V30.9843V30.9861C8.91119 31.0039 8.91449 31.0217 8.91779 31.0396C8.91943 31.0485 8.92108 31.0574 8.92232 31.0663C8.92307 31.0734 8.92375 31.0805 8.92443 31.0876C8.92709 31.1155 8.92977 31.1437 8.93716 31.1706V31.1715C8.94226 31.1912 8.9513 31.2091 8.96038 31.2271C8.9645 31.2352 8.96863 31.2434 8.97239 31.2518C8.97515 31.2587 8.97782 31.2658 8.98048 31.2728C8.98946 31.2965 8.99847 31.3203 9.01134 31.3409L9.01227 31.3436C9.02152 31.3592 9.03366 31.373 9.04598 31.3871C9.05342 31.3956 9.06092 31.4041 9.0679 31.4132C9.0747 31.4215 9.08109 31.4301 9.08748 31.4387C9.10026 31.456 9.11303 31.4732 9.1291 31.4881L9.13096 31.4907C9.14352 31.5028 9.15854 31.5129 9.17364 31.523C9.18307 31.5293 9.19252 31.5356 9.20143 31.5425C9.2108 31.5493 9.21983 31.5565 9.22883 31.5638C9.24568 31.5773 9.26244 31.5908 9.28118 31.6013L9.28489 31.6031L9.28767 31.6049L17.8224 36.2493V44.4647L1.48551 35.421ZM9.65395 2.37633L9.65487 2.37582H9.65302L9.65395 2.37633ZM9.65395 2.37633L2.23012 6.48529L9.65302 10.5948L17.0768 6.4844L9.65395 2.37633ZM17.8233 25.6382L13.5161 28.0223L10.3967 29.7494V11.8314L14.7049 9.44635L17.8233 7.72018V25.6382ZM28.9655 11.3348L36.3894 7.22533L43.8123 11.3339L36.3894 15.4443L28.9655 11.3348ZM31.3385 14.2959L35.6466 16.6809V24.8161L32.5272 23.089L28.22 20.7048V12.5697L31.3385 14.2959ZM29.4533 29.0361L18.5642 35.0135L11.1524 30.9798L18.937 26.6706L27.4782 21.9424L34.8965 26.0492L29.4533 29.0361ZM68.5474 32.425V11.9555H64.6851V35.9565H75.8006V32.425H68.5474ZM89.4335 22.1373V22.1387H89.4344C89.4341 22.1383 89.4338 22.1378 89.4335 22.1373ZM89.4335 19.9786V22.1373C88.9404 21.3377 88.2413 20.7102 87.3354 20.2531C86.4289 19.7957 85.5164 19.5674 84.5987 19.5674C83.4113 19.5674 82.3257 19.7894 81.3409 20.2353C80.3813 20.6625 79.5182 21.2868 78.8052 22.0695C78.0962 22.8531 77.5381 23.7661 77.1602 24.7607C76.7679 25.7786 76.5722 26.848 76.5722 27.9671C76.5648 29.0704 76.7648 30.1649 77.1611 31.1913C77.5414 32.1792 78.099 33.0859 78.8052 33.8648C79.518 34.6479 80.3812 35.2725 81.3409 35.6998C82.3257 36.1457 83.4113 36.3677 84.5987 36.3677C85.5164 36.3677 86.4289 36.1395 87.3354 35.682C88.2427 35.2255 88.9412 34.5967 89.4344 33.7964V35.9574H93.0941V19.9786H89.4335ZM89.4344 27.968C89.4372 28.6346 89.3232 29.2964 89.0978 29.9221C88.888 30.5153 88.5691 31.0622 88.1583 31.5333C87.7484 31.9958 87.2514 32.3692 86.6969 32.6311C86.1262 32.9055 85.4938 33.0423 84.7996 33.0423C84.1055 33.0423 83.4783 32.9055 82.9198 32.6311C82.3722 32.366 81.8815 31.9929 81.4758 31.5333C81.0721 31.0758 80.7642 30.5394 80.5519 29.9212C80.3388 29.3048 80.2327 28.6528 80.2327 27.9671C80.2294 27.3019 80.3376 26.641 80.5528 26.0131C80.7519 25.4186 81.0655 24.8708 81.4749 24.4019C81.8808 23.9424 82.3715 23.5694 82.9189 23.3041C83.4783 23.0305 84.1055 22.8928 84.8005 22.8928C85.4938 22.8928 86.1262 23.0305 86.6969 23.3041C87.2512 23.5662 87.7482 23.9395 88.1583 24.4019C88.5691 24.8733 88.888 25.4204 89.0978 26.014C89.3213 26.6304 89.4344 27.2814 89.4344 27.968ZM95.9821 19.9786V35.9565V35.9583H99.6417V23.6567H105.922V19.9786H95.9821ZM119.187 19.9786V22.1387C118.694 21.3385 117.995 20.7105 117.087 20.2531C116.181 19.7957 115.269 19.5674 114.351 19.5674C113.164 19.5674 112.079 19.7894 111.094 20.2353C110.134 20.6624 109.271 21.2867 108.557 22.0695C107.849 22.8531 107.291 23.7661 106.913 24.7607C106.521 25.7786 106.325 26.848 106.325 27.9671C106.318 29.0703 106.517 30.1648 106.913 31.1913C107.294 32.1792 107.852 33.086 108.558 33.8648C109.271 34.6479 110.134 35.2725 111.094 35.6998C112.079 36.1457 113.164 36.3677 114.351 36.3677C115.269 36.3677 116.181 36.1395 117.087 35.682C117.995 35.2255 118.694 34.5967 119.187 33.7964V35.9574H122.847V19.9786H119.187ZM119.187 27.968C119.19 28.6346 119.076 29.2964 118.851 29.9221C118.641 30.5153 118.322 31.0622 117.911 31.5333C117.501 31.9958 117.004 32.3692 116.45 32.6311C115.879 32.9055 115.246 33.0423 114.553 33.0423C113.858 33.0423 113.231 32.9055 112.672 32.6311C112.124 32.366 111.634 31.9929 111.228 31.5333C110.825 31.0758 110.517 30.5394 110.305 29.9212C110.091 29.3048 109.986 28.6528 109.986 27.9671C109.982 27.3019 110.09 26.641 110.305 26.0131C110.504 25.4186 110.818 24.8708 111.228 24.4019C111.634 23.9424 112.124 23.5694 112.672 23.3041C113.231 23.0305 113.858 22.8928 114.553 22.8928C115.246 22.8928 115.879 23.0305 116.45 23.3041C117.004 23.5662 117.501 23.9395 117.911 24.4019C118.322 24.8733 118.641 25.4204 118.851 26.014C119.073 26.6304 119.187 27.2814 119.187 27.968ZM141.229 19.9786H137.521L132.921 32.2145L128.32 19.9786H124.613L130.62 35.9574H135.222L141.229 19.9786ZM156.956 29.3563C157.595 24.0777 154.196 19.5674 149.213 19.5674H149.212C144.73 19.5674 141.182 23.3289 141.182 27.968C141.182 33.0965 144.615 36.3686 149.681 36.3686C152.516 36.3686 154.326 35.261 156.537 32.8513L154.064 30.8973C154.063 30.8991 152.197 33.3994 149.414 33.3994C146.177 33.3994 144.814 30.7348 144.814 29.3563H156.956ZM153.595 26.5789H144.823C144.851 26.2715 145.273 22.5358 149.183 22.5358C153.092 22.5358 153.568 26.2715 153.595 26.5789ZM159.34 11.9555V35.9565H163V11.9555H159.34Z" fill="#8E41EE"/>
</svg>
