<svg width="103" height="103" viewBox="0 0 103 103" fill="none" xmlns="http://www.w3.org/2000/svg">
<path d="M100.586 15.2891H2.43457C1.10684 15.2891 0.0205078 16.3754 0.0205078 17.7031V19.3125V86.9062C0.0205078 87.3488 0.382617 87.7109 0.825195 87.7109H102.176C102.618 87.7109 102.98 87.3488 103 86.9062V19.3125V17.7031C103 16.3754 101.914 15.2891 100.586 15.2891ZM2.43457 16.8984H4.08418C3.6416 16.8984 3.27949 17.2605 3.27949 17.7031C3.27949 18.1457 3.6416 18.5078 4.08418 18.5078C4.52676 18.5078 4.88887 18.1658 4.90898 17.7031C4.90898 17.2605 4.54687 16.8984 4.1043 16.8984H7.30293C6.86035 16.8984 6.49824 17.2605 6.49824 17.7031C6.49824 18.1457 6.86035 18.5078 7.30293 18.5078C7.74551 18.5078 8.10762 18.1658 8.12773 17.7031C8.12773 17.2605 7.76562 16.8984 7.32305 16.8984H10.5217C10.0791 16.8984 9.71699 17.2605 9.71699 17.7031C9.71699 18.1457 10.0791 18.5078 10.5217 18.5078C10.9643 18.5078 11.3264 18.1658 11.3465 17.7031C11.3465 17.2605 10.9844 16.8984 10.5418 16.8984H100.566C101.009 16.8984 101.371 17.2605 101.371 17.7031V18.5078H10.5217H7.30293H4.08418H1.62988V17.7031C1.62988 17.2605 1.99199 16.8984 2.43457 16.8984ZM101.391 86.1016H1.62988V20.1172H101.391V86.1016Z" fill="#222222"/>
<path d="M51.5 81.2734C51.9426 81.2734 52.3047 80.9113 52.3047 80.4688V25.75C52.3047 25.3074 51.9426 24.9453 51.5 24.9453C51.0574 24.9453 50.6953 25.3074 50.6953 25.75V80.4688C50.6953 80.9113 51.0574 81.2734 51.5 81.2734Z" fill="#222222"/>
<path d="M7.24219 66.7891H10.4609H18.5078H21.7266H29.7734H32.9922H41.0391H44.2578C44.7004 66.7891 45.0625 66.427 45.0625 65.9844C45.0625 65.5418 44.7004 65.1797 44.2578 65.1797H41.8438V54.7188C41.8438 54.2762 41.4816 53.9141 41.0391 53.9141H32.9922C32.5496 53.9141 32.1875 54.2762 32.1875 54.7188V65.1797H30.5781V33.7969C30.5781 33.3543 30.216 32.9922 29.7734 32.9922H21.7266C21.284 32.9922 20.9219 33.3543 20.9219 33.7969V65.1797H19.3125V43.4531C19.3125 43.0105 18.9504 42.6484 18.5078 42.6484H10.4609C10.0184 42.6484 9.65625 43.0105 9.65625 43.4531V65.1797H8.06699V28.9688C8.06699 28.5262 7.70488 28.1641 7.2623 28.1641C6.81973 28.1641 6.45762 28.5262 6.45762 28.9688V65.8033C6.4375 65.8637 6.4375 65.924 6.4375 65.9844C6.4375 66.427 6.79961 66.7891 7.24219 66.7891ZM17.7031 57.1328H11.2656V47.4766H17.7031V57.1328ZM11.2656 58.7422H17.7031V65.1797H11.2656V58.7422ZM28.9688 50.6953H22.5312V41.0592H28.9688V50.6953ZM22.5312 52.3047H28.9688V65.1797H22.5312V52.3047ZM40.2344 60.3516H33.7969V58.7422H40.2344V60.3516ZM33.7969 61.9609H40.2344V65.1797H33.7969V61.9609ZM40.2344 55.5234V57.1328H33.7969V55.5234H40.2344ZM28.9688 34.6016V39.4498H22.5312V34.6016H28.9688ZM17.7031 44.2578V45.8672H11.2656V44.2578H17.7031Z" fill="#222222"/>
<path d="M41.8438 73.2266H9.65625C9.21367 73.2266 8.85156 73.5887 8.85156 74.0312C8.85156 74.4738 9.21367 74.8359 9.65625 74.8359H41.8438C42.2863 74.8359 42.6484 74.4738 42.6484 74.0312C42.6484 73.5887 42.2863 73.2266 41.8438 73.2266Z" fill="#222222"/>
<path d="M35.4062 76.4453H16.0937C15.6512 76.4453 15.2891 76.8074 15.2891 77.25C15.2891 77.6926 15.6512 78.0547 16.0937 78.0547H35.4062C35.8488 78.0547 36.2109 77.6926 36.2109 77.25C36.2109 76.8074 35.8488 76.4453 35.4062 76.4453Z" fill="#222222"/>
<path d="M93.3438 73.2266H61.1562C60.7137 73.2266 60.3516 73.5887 60.3516 74.0312C60.3516 74.4738 60.7137 74.8359 61.1562 74.8359H93.3236C93.7863 74.8359 94.1283 74.4738 94.1484 74.0312C94.1484 73.5887 93.7863 73.2266 93.3438 73.2266Z" fill="#222222"/>
<path d="M86.9062 76.4453H67.5938C67.1512 76.4453 66.7891 76.8074 66.7891 77.25C66.7891 77.6926 67.1512 78.0547 67.5938 78.0547H86.9062C87.3488 78.0547 87.7109 77.6926 87.7109 77.25C87.7109 76.8074 87.3488 76.4453 86.9062 76.4453Z" fill="#222222"/>
<path d="M77.25 66.7891C82.3396 66.7891 87.1275 64.8176 90.7688 61.2166C90.809 61.1965 90.8492 61.1562 90.9096 61.1361C90.9699 61.0758 91.0102 61.0154 91.0303 60.9551C93.3438 58.6215 94.9934 55.7246 95.8785 52.5863C96.3211 50.9568 96.5625 49.2268 96.5625 47.4564V47.1949V47.1748C96.5424 45.7666 96.3613 44.3383 96.0193 42.9703C95.7377 41.8035 95.3555 40.6568 94.8324 39.5102C94.8123 39.4498 94.7721 39.3693 94.7318 39.309C94.2893 38.3635 93.7662 37.4783 93.223 36.6535C93.1828 36.5127 93.1225 36.392 93.0018 36.2713C92.9816 36.2512 92.9414 36.2311 92.9012 36.2109C92.3379 35.4264 91.7143 34.682 91.0102 33.9578C90.9699 33.9176 90.9498 33.8572 90.9096 33.817C90.8693 33.7768 90.8291 33.7365 90.7688 33.7164C90.0043 32.952 89.1795 32.268 88.3145 31.6645C87.3689 30.9805 86.343 30.3971 85.2969 29.9344C84.1703 29.4113 83.0438 29.0291 81.9172 28.7475C81.8166 28.7072 81.716 28.6871 81.6154 28.667C80.1871 28.325 78.7186 28.1641 77.25 28.1641C66.608 28.1641 57.9375 36.8346 57.9375 47.4766C57.9375 58.1186 66.608 66.7891 77.25 66.7891ZM87.5098 56.5695L94.8525 49.2268C94.7721 50.1521 94.6111 51.0775 94.3697 51.9627L88.6363 57.6961L87.5098 56.5695ZM85.2164 54.2963L94.7318 44.7809C94.8324 45.4648 94.8928 46.1689 94.933 46.8529L86.3631 55.4229L85.2164 54.2963ZM77.25 53.9141C73.6893 53.9141 70.8125 51.0172 70.8125 47.4766C70.8125 43.9963 73.6289 41.1195 77.0891 41.0391C77.1494 41.0592 77.1896 41.0592 77.25 41.0592C77.2902 41.0592 77.3506 41.0592 77.3908 41.0391C78.0547 41.0592 78.6984 41.1598 79.3221 41.3811C80.2676 41.723 81.1326 42.2461 81.8166 42.9502C82.4805 43.5939 83.0035 44.3986 83.3254 45.3039C83.3455 45.3643 83.3656 45.4246 83.3857 45.485C83.5668 46.1086 83.6875 46.7926 83.6875 47.4766C83.6875 48.1002 83.5869 48.7439 83.4059 49.3475C83.4059 49.3676 83.3857 49.3877 83.3857 49.4279C83.0639 50.4137 82.5207 51.3189 81.7965 52.023C80.5895 53.2502 78.9801 53.9141 77.25 53.9141ZM83.5467 30.9201L78.0547 36.4121V34.1389L81.8367 30.3568C82.4 30.5178 82.9633 30.6988 83.5467 30.9201ZM86.5844 32.449L79.3422 39.6912C78.9197 39.5906 78.4973 39.5102 78.0547 39.4699V38.6652L85.0957 31.6242C85.5986 31.8656 86.1016 32.1473 86.5844 32.449ZM89.1594 34.4205L82.3396 41.2402C81.9172 40.8982 81.4545 40.5965 80.9717 40.335L87.9322 33.3945C88.3547 33.7164 88.7772 34.0584 89.1594 34.4205ZM91.332 36.8145L84.3715 43.775C84.11 43.2922 83.8082 42.8295 83.4662 42.407L90.2859 35.5873C90.6682 35.9695 91.0102 36.3719 91.332 36.8145ZM93.0822 39.5705L85.2969 47.3559C85.2969 46.692 85.1963 46.0281 85.0354 45.3844L92.2775 38.1422C92.5592 38.6049 92.8207 39.0877 93.0822 39.5705ZM78.0547 31.8455V29.7936C78.6783 29.8338 79.3221 29.8941 79.9256 29.9746L78.0547 31.8455ZM84.8543 50.0918L93.7863 41.1598C94.0076 41.723 94.1887 42.3064 94.3496 42.8697L84.0898 53.1295L83.4863 52.526C84.0697 51.842 84.5324 50.9971 84.8543 50.0918ZM90.3262 59.4061L89.783 58.8629L92.9213 55.7246C92.2172 57.0322 91.3521 58.2795 90.3262 59.4061ZM76.4453 29.7936V39.4699C72.3816 39.8723 69.2031 43.3123 69.2031 47.4766C69.2031 51.9225 72.8242 55.5234 77.25 55.5234C79.141 55.5234 80.9314 54.8797 82.3396 53.6928L85.6791 57.0322C85.6992 57.0725 85.7395 57.1127 85.7797 57.1529C85.8199 57.1932 85.8602 57.2133 85.9004 57.2535L87.9725 59.3256C87.9926 59.3658 88.0328 59.4061 88.073 59.4463C88.1133 59.4865 88.1535 59.5066 88.1937 59.5469L89.2197 60.5729C85.9205 63.5301 81.716 65.1797 77.25 65.1797C67.4932 65.1797 59.5469 57.2334 59.5469 47.4766C59.5469 37.9812 67.0506 30.216 76.4453 29.7936Z" fill="#222222"/>
</svg>
