<svg width="103" height="95" viewBox="0 0 103 95" fill="none" xmlns="http://www.w3.org/2000/svg">
<path d="M102.175 65.1831H0.824218C0.38164 65.1831 0.0195312 64.821 0.0195312 64.3784C0.0195312 63.9358 0.38164 63.5737 0.824218 63.5737H102.195C102.637 63.5737 102.999 63.9358 102.999 64.3784C102.979 64.821 102.617 65.1831 102.175 65.1831Z" fill="#222222"/>
<path d="M51.5 73.23C49.7297 73.23 48.2812 71.7815 48.2812 70.0112C48.2812 68.2409 49.7297 66.7925 51.5 66.7925C53.2703 66.7925 54.7188 68.2409 54.7188 70.0112C54.7188 71.7815 53.2703 73.23 51.5 73.23ZM51.5 68.4019C50.6148 68.4019 49.8906 69.1261 49.8906 70.0112C49.8906 70.8964 50.6148 71.6206 51.5 71.6206C52.3852 71.6206 53.1094 70.8964 53.1094 70.0112C53.1094 69.1261 52.3852 68.4019 51.5 68.4019Z" fill="#222222"/>
<path d="M37.8402 94.1517C37.7799 94.1517 37.7195 94.1517 37.6592 94.1316C37.2166 94.031 36.9551 93.6085 37.0556 93.166L40.2744 78.6816C40.375 78.2591 40.7974 77.9775 41.24 78.0781C41.6826 78.1786 41.9441 78.6011 41.8435 79.0437L38.6248 93.5281C38.5443 93.8902 38.2023 94.1517 37.8402 94.1517Z" fill="#222222"/>
<path d="M65.1595 94.1517C64.7974 94.1517 64.4554 93.8902 64.3749 93.5281L61.1562 79.0437C61.0556 78.6011 61.3372 78.1786 61.7597 78.0781C62.2023 77.9775 62.6247 78.2591 62.7253 78.6816L65.9441 93.166C66.0447 93.6085 65.763 94.031 65.3406 94.1316C65.2802 94.1316 65.2199 94.1517 65.1595 94.1517Z" fill="#222222"/>
<path d="M67.5937 94.1519H35.4062C34.9637 94.1519 34.6016 93.7897 34.6016 93.3472C34.6016 92.9046 34.9637 92.5425 35.4062 92.5425H67.5937C68.0363 92.5425 68.3984 92.9046 68.3984 93.3472C68.3984 93.7897 68.0363 94.1519 67.5937 94.1519Z" fill="#222222"/>
<path d="M97.3465 60.395H5.65234C5.20977 60.395 4.84766 60.0329 4.84766 59.5903V6.48096C4.84766 6.03838 5.20977 5.67627 5.65234 5.67627H97.3666C97.8092 5.67627 98.1713 6.03838 98.1713 6.48096V59.5702C98.1512 60.0329 97.8092 60.395 97.3465 60.395ZM6.45703 58.7856H96.5619V7.28564H6.45703V58.7856Z" fill="#222222"/>
<path d="M97.3464 76.4687H5.65234C2.5543 76.4687 0.0195312 73.9339 0.0195312 70.8358V70.8157V70.7956V6.48096C0.0195312 3.38291 2.5543 0.848145 5.65234 0.848145H97.3666C100.465 0.848145 102.999 3.38291 102.999 6.48096V70.8358C102.979 73.954 100.465 76.4687 97.3464 76.4687ZM1.62891 70.8358C1.62891 73.0688 3.43945 74.8794 5.65234 74.8794H97.3666C99.5795 74.8794 101.39 73.0688 101.39 70.856V6.48096C101.39 4.26807 99.5795 2.45752 97.3666 2.45752H5.65234C3.43945 2.45752 1.62891 4.26807 1.62891 6.48096V70.8358C1.62891 70.8157 1.62891 70.8157 1.62891 70.8358Z" fill="#222222"/>
<path d="M97.3464 79.6675H5.65234C2.49394 79.6675 0.0195312 77.1931 0.0195312 74.0347V70.836C0.0195312 70.3935 0.38164 70.0112 0.824218 70.0112C1.2668 70.0112 1.62891 70.3532 1.62891 70.7958V74.0145C1.62891 76.3079 3.35898 78.038 5.65234 78.038H97.3666C99.6599 78.038 101.39 76.3079 101.39 74.0145V70.836C101.39 70.3935 101.752 70.0313 102.195 70.0313C102.637 70.0313 102.999 70.3935 102.999 70.836V74.0145C102.979 77.1931 100.505 79.6675 97.3464 79.6675Z" fill="#222222"/>
<path d="M8.87109 60.395C8.42852 60.395 8.06641 60.0329 8.06641 59.5903V6.48096C8.06641 6.03838 8.42852 5.67627 8.87109 5.67627C9.31367 5.67627 9.67578 6.03838 9.67578 6.48096V59.5702C9.67578 60.0329 9.31367 60.395 8.87109 60.395Z" fill="#222222"/>
<path d="M7.26172 12.1138H5.65234C5.20977 12.1138 4.84766 11.7517 4.84766 11.3091C4.84766 10.8665 5.20977 10.5044 5.65234 10.5044H7.26172C7.70429 10.5044 8.0664 10.8665 8.0664 11.3091C8.0664 11.7517 7.70429 12.1138 7.26172 12.1138Z" fill="#222222"/>
<path d="M7.26172 16.9419H5.65234C5.20977 16.9419 4.84766 16.5798 4.84766 16.1372C4.84766 15.6946 5.20977 15.3325 5.65234 15.3325H7.26172C7.70429 15.3325 8.0664 15.6946 8.0664 16.1372C8.0664 16.5798 7.70429 16.9419 7.26172 16.9419Z" fill="#222222"/>
<path d="M7.26172 21.77H5.65234C5.20977 21.77 4.84766 21.4079 4.84766 20.9653C4.84766 20.5228 5.20977 20.1606 5.65234 20.1606H7.26172C7.70429 20.1606 8.0664 20.5228 8.0664 20.9653C8.0664 21.4079 7.70429 21.77 7.26172 21.77Z" fill="#222222"/>
<path d="M7.26172 26.5981H5.65234C5.20977 26.5981 4.84766 26.236 4.84766 25.7935C4.84766 25.3509 5.20977 24.9888 5.65234 24.9888H7.26172C7.70429 24.9888 8.0664 25.3509 8.0664 25.7935C8.0664 26.236 7.70429 26.5981 7.26172 26.5981Z" fill="#222222"/>
<path d="M7.26172 31.4263H5.65234C5.20977 31.4263 4.84766 31.0642 4.84766 30.6216C4.84766 30.179 5.20977 29.8169 5.65234 29.8169H7.26172C7.70429 29.8169 8.0664 30.179 8.0664 30.6216C8.0664 31.0642 7.70429 31.4263 7.26172 31.4263Z" fill="#222222"/>
<path d="M7.26172 36.2544H5.65234C5.20977 36.2544 4.84766 35.8923 4.84766 35.4497C4.84766 35.0071 5.20977 34.645 5.65234 34.645H7.26172C7.70429 34.645 8.0664 35.0071 8.0664 35.4497C8.0664 35.8923 7.70429 36.2544 7.26172 36.2544Z" fill="#222222"/>
<path d="M7.26172 41.0825H5.65234C5.20977 41.0825 4.84766 40.7204 4.84766 40.2778C4.84766 39.8353 5.20977 39.4731 5.65234 39.4731H7.26172C7.70429 39.4731 8.0664 39.8353 8.0664 40.2778C8.0664 40.7204 7.70429 41.0825 7.26172 41.0825Z" fill="#222222"/>
<path d="M7.26172 45.9106H5.65234C5.20977 45.9106 4.84766 45.5485 4.84766 45.106C4.84766 44.6634 5.20977 44.3013 5.65234 44.3013H7.26172C7.70429 44.3013 8.0664 44.6634 8.0664 45.106C8.0664 45.5485 7.70429 45.9106 7.26172 45.9106Z" fill="#222222"/>
<path d="M7.26172 50.7388H5.65234C5.20977 50.7388 4.84766 50.3767 4.84766 49.9341C4.84766 49.4915 5.20977 49.1294 5.65234 49.1294H7.26172C7.70429 49.1294 8.0664 49.4915 8.0664 49.9341C8.0664 50.3767 7.70429 50.7388 7.26172 50.7388Z" fill="#222222"/>
<path d="M7.26172 55.5669H5.65234C5.20977 55.5669 4.84766 55.2048 4.84766 54.7622C4.84766 54.3196 5.20977 53.9575 5.65234 53.9575H7.26172C7.70429 53.9575 8.0664 54.3196 8.0664 54.7622C8.0664 55.2048 7.70429 55.5669 7.26172 55.5669Z" fill="#222222"/>
<path d="M20.1172 12.1138H13.6797C13.2371 12.1138 12.875 11.7517 12.875 11.3091C12.875 10.8665 13.2371 10.5044 13.6797 10.5044H20.1172C20.5598 10.5044 20.9219 10.8665 20.9219 11.3091C20.9219 11.7517 20.5598 12.1138 20.1172 12.1138Z" fill="#222222"/>
<path d="M45.8672 16.9419H26.5547C26.1121 16.9419 25.75 16.5798 25.75 16.1372C25.75 15.6946 26.1121 15.3325 26.5547 15.3325H45.8672C46.3098 15.3325 46.6719 15.6946 46.6719 16.1372C46.6719 16.5798 46.3098 16.9419 45.8672 16.9419Z" fill="#222222"/>
<path d="M23.3359 16.9419H15.2891C14.8465 16.9419 14.4844 16.5798 14.4844 16.1372C14.4844 15.6946 14.8465 15.3325 15.2891 15.3325H23.3359C23.7785 15.3325 24.1406 15.6946 24.1406 16.1372C24.1406 16.5798 23.7785 16.9419 23.3359 16.9419Z" fill="#222222"/>
<path d="M45.8672 21.77H44.2578C43.8152 21.77 43.4531 21.4079 43.4531 20.9653C43.4531 20.5228 43.8152 20.1606 44.2578 20.1606H45.8672C46.3098 20.1606 46.6719 20.5228 46.6719 20.9653C46.6719 21.4079 46.3098 21.77 45.8672 21.77Z" fill="#222222"/>
<path d="M41.0391 21.77H16.8984C16.4559 21.77 16.0938 21.4079 16.0938 20.9653C16.0938 20.5228 16.4559 20.1606 16.8984 20.1606H41.0391C41.4816 20.1606 41.8437 20.5228 41.8437 20.9653C41.8437 21.4079 41.4816 21.77 41.0391 21.77Z" fill="#222222"/>
<path d="M21.7266 31.4263H16.8984C16.4559 31.4263 16.0938 31.0642 16.0938 30.6216C16.0938 30.179 16.4559 29.8169 16.8984 29.8169H21.7266C22.1691 29.8169 22.5312 30.179 22.5312 30.6216C22.5312 31.0642 22.1691 31.4263 21.7266 31.4263Z" fill="#222222"/>
<path d="M45.8672 31.4263H24.9453C24.5027 31.4263 24.1406 31.0642 24.1406 30.6216C24.1406 30.179 24.5027 29.8169 24.9453 29.8169H45.8672C46.3098 29.8169 46.6719 30.179 46.6719 30.6216C46.6719 31.0642 46.3098 31.4263 45.8672 31.4263Z" fill="#222222"/>
<path d="M45.8672 26.5981H18.5078C18.0652 26.5981 17.7031 26.236 17.7031 25.7935C17.7031 25.3509 18.0652 24.9888 18.5078 24.9888H45.8672C46.3098 24.9888 46.6719 25.3509 46.6719 25.7935C46.6719 26.236 46.3098 26.5981 45.8672 26.5981Z" fill="#222222"/>
<path d="M45.8672 36.2544H39.4297C38.9871 36.2544 38.625 35.8923 38.625 35.4497C38.625 35.0071 38.9871 34.645 39.4297 34.645H45.8672C46.3098 34.645 46.6719 35.0071 46.6719 35.4497C46.6719 35.8923 46.3098 36.2544 45.8672 36.2544Z" fill="#222222"/>
<path d="M41.0391 41.0825H15.2891C14.8465 41.0825 14.4844 40.7204 14.4844 40.2778C14.4844 39.8353 14.8465 39.4731 15.2891 39.4731H41.0391C41.4816 39.4731 41.8437 39.8353 41.8437 40.2778C41.8437 40.7204 41.4816 41.0825 41.0391 41.0825Z" fill="#222222"/>
<path d="M28.1641 50.7388H15.2891C14.8465 50.7388 14.4844 50.3767 14.4844 49.9341C14.4844 49.4915 14.8465 49.1294 15.2891 49.1294H28.1641C28.6066 49.1294 28.9688 49.4915 28.9688 49.9341C28.9688 50.3767 28.6066 50.7388 28.1641 50.7388Z" fill="#222222"/>
<path d="M45.8672 45.9106H37.8203C37.3777 45.9106 37.0156 45.5485 37.0156 45.106C37.0156 44.6634 37.3777 44.3013 37.8203 44.3013H45.8672C46.3098 44.3013 46.6719 44.6634 46.6719 45.106C46.6719 45.5485 46.3098 45.9106 45.8672 45.9106Z" fill="#222222"/>
<path d="M34.6016 45.9106H16.8984C16.4559 45.9106 16.0938 45.5485 16.0938 45.106C16.0938 44.6634 16.4559 44.3013 16.8984 44.3013H34.6016C35.0441 44.3013 35.4063 44.6634 35.4063 45.106C35.4063 45.5485 35.0441 45.9106 34.6016 45.9106Z" fill="#222222"/>
<path d="M20.1172 55.5669H13.6797C13.2371 55.5669 12.875 55.2048 12.875 54.7622C12.875 54.3196 13.2371 53.9575 13.6797 53.9575H20.1172C20.5598 53.9575 20.9219 54.3196 20.9219 54.7622C20.9219 55.2048 20.5598 55.5669 20.1172 55.5669Z" fill="#222222"/>
<path d="M45.8672 41.0825H44.2578C43.8152 41.0825 43.4531 40.7204 43.4531 40.2778C43.4531 39.8353 43.8152 39.4731 44.2578 39.4731H45.8672C46.3098 39.4731 46.6719 39.8353 46.6719 40.2778C46.6719 40.7204 46.3098 41.0825 45.8672 41.0825Z" fill="#222222"/>
<path d="M36.2109 36.2544H16.8984C16.4559 36.2544 16.0938 35.8923 16.0938 35.4497C16.0938 35.0071 16.4559 34.645 16.8984 34.645H36.2109C36.6535 34.645 37.0156 35.0071 37.0156 35.4497C37.0156 35.8923 36.6535 36.2544 36.2109 36.2544Z" fill="#222222"/>
<path d="M51.5 60.395C51.0574 60.395 50.6953 60.0329 50.6953 59.5903V6.48096C50.6953 6.03838 51.0574 5.67627 51.5 5.67627C51.9426 5.67627 52.3047 6.03838 52.3047 6.48096V59.5702C52.3047 60.0329 51.9426 60.395 51.5 60.395Z" fill="#222222"/>
<path d="M70.007 50.7386C69.846 50.7386 69.7052 50.6984 69.5644 50.6179C69.1821 50.3765 69.0816 49.8736 69.323 49.5115L79.7839 33.4178C79.9247 33.1965 80.1863 33.0557 80.4679 33.0557C80.7496 33.0557 80.991 33.1965 81.1519 33.4178L91.6128 49.5115C91.8543 49.8937 91.7537 50.3765 91.3714 50.6179C91.0093 50.8593 90.5064 50.7588 90.265 50.3765L80.4679 35.3088L70.6909 50.3564C70.53 50.5978 70.2685 50.7386 70.007 50.7386Z" fill="#222222"/>
<path d="M63.5699 50.7388C63.4089 50.7388 63.2681 50.6985 63.1273 50.598C62.7652 50.3565 62.6646 49.8536 62.906 49.4915L69.3435 39.8353C69.4843 39.614 69.7458 39.4731 70.0073 39.4731C70.2689 39.4731 70.5304 39.614 70.6712 39.8353L73.8497 44.603C74.0911 44.9651 73.9905 45.4681 73.6284 45.7095C73.2663 45.9509 72.7634 45.8503 72.522 45.4882L70.0073 41.7263L64.2337 50.3767C64.0728 50.5979 63.8314 50.7388 63.5699 50.7388Z" fill="#222222"/>
<path d="M63.5703 39.4731C61.3574 39.4731 59.5469 37.6626 59.5469 35.4497C59.5469 33.2368 61.3574 31.4263 63.5703 31.4263C65.7832 31.4263 67.5938 33.2368 67.5938 35.4497C67.5938 37.6626 65.7832 39.4731 63.5703 39.4731ZM63.5703 33.0356C62.2426 33.0356 61.1562 34.122 61.1562 35.4497C61.1562 36.7774 62.2426 37.8638 63.5703 37.8638C64.898 37.8638 65.9844 36.7774 65.9844 35.4497C65.9844 34.122 64.898 33.0356 63.5703 33.0356Z" fill="#222222"/>
<path d="M92.5189 50.7388H57.1328C56.6902 50.7388 56.3281 50.3767 56.3281 49.9341V29.0122C56.3281 28.5696 56.6902 28.2075 57.1328 28.2075H92.5391C92.9816 28.2075 93.3438 28.5696 93.3438 29.0122V49.9341C93.3236 50.3767 92.9816 50.7388 92.5189 50.7388ZM57.9375 49.1294H91.7344V29.8169H57.9375V49.1294Z" fill="#222222"/>
<path d="M92.5189 12.1138H53.9141C53.4715 12.1138 53.1094 11.7517 53.1094 11.3091C53.1094 10.8665 53.4715 10.5044 53.9141 10.5044H92.5391C92.9816 10.5044 93.3438 10.8665 93.3438 11.3091C93.3438 11.7517 92.9816 12.1138 92.5189 12.1138Z" fill="#222222"/>
<path d="M92.5186 24.9888C92.076 24.9888 91.7139 24.6267 91.7139 24.1841V11.3091C91.7139 10.8665 92.076 10.5044 92.5186 10.5044C92.9611 10.5044 93.3232 10.8665 93.3232 11.3091V24.1841C93.3232 24.6267 92.9813 24.9888 92.5186 24.9888Z" fill="#222222"/>
<path d="M92.5189 24.9888H53.9141C53.4715 24.9888 53.1094 24.6267 53.1094 24.1841C53.1094 23.7415 53.4715 23.3794 53.9141 23.3794H92.5391C92.9816 23.3794 93.3438 23.7415 93.3438 24.1841C93.3236 24.6267 92.9816 24.9888 92.5189 24.9888Z" fill="#222222"/>
<path d="M87.7109 18.5513H53.9141C53.4715 18.5513 53.1094 18.1892 53.1094 17.7466C53.1094 17.304 53.4715 16.9419 53.9141 16.9419H87.7109C88.1535 16.9419 88.5156 17.304 88.5156 17.7466C88.5156 18.1892 88.1535 18.5513 87.7109 18.5513Z" fill="#222222"/>
<path d="M92.5189 55.5669H57.1328C56.6902 55.5669 56.3281 55.2048 56.3281 54.7622C56.3281 54.3196 56.6902 53.9575 57.1328 53.9575H92.5391C92.9816 53.9575 93.3438 54.3196 93.3438 54.7622C93.3236 55.2048 92.9816 55.5669 92.5189 55.5669Z" fill="#222222"/>
</svg>
