<svg width="103" height="103" viewBox="0 0 103 103" fill="none" xmlns="http://www.w3.org/2000/svg">
<path d="M57.0318 21.7266C56.6697 23.5975 55.0201 24.9453 53.0889 24.9453C50.876 24.9453 49.0654 23.1348 49.0654 20.9219V17.7031C49.0654 15.4902 50.876 13.6797 53.0889 13.6797C55.0201 13.6797 56.6496 15.0275 57.0318 16.8984H58.6613C58.259 14.1223 55.9053 12.0703 53.0889 12.0703C49.9908 12.0703 47.4561 14.6051 47.4561 17.7031V20.9219C47.4561 24.0199 49.9908 26.5547 53.0889 26.5547C55.9053 26.5547 58.259 24.5027 58.6613 21.7266H57.0318Z" fill="#222222"/>
<path d="M73.2266 22.5312V26.5547H74.8359V22.5312C74.8359 21.5455 74.4537 20.5799 73.7898 19.8557L73.307 19.3125L73.7898 18.7693C74.4738 18.0049 74.8359 17.0594 74.8359 16.0938C74.8359 13.8809 73.0254 12.0703 70.8125 12.0703H63.5703V26.5547H65.1797V20.1172H70.8125C72.1402 20.1172 73.2266 21.2035 73.2266 22.5312ZM65.1797 13.6797H70.8125C72.1402 13.6797 73.2266 14.766 73.2266 16.0938C73.2266 17.4215 72.1402 18.5078 70.8125 18.5078H65.1797V13.6797Z" fill="#222222"/>
<path d="M94.1484 26.5547V12.0703H91.151L87.9322 21.7266H85.8803L82.6615 12.0703H79.6641V26.5547H81.2734V12.9957L84.7135 23.3359H89.099L92.5391 12.9957V26.5547H94.1484Z" fill="#222222"/>
<path d="M10.4609 34.6016H8.85156V36.2109H10.4609V34.6016Z" fill="#222222"/>
<path d="M16.8984 34.6016H15.2891V36.2109H16.8984V34.6016Z" fill="#222222"/>
<path d="M23.3359 34.6016H21.7266V36.2109H23.3359V34.6016Z" fill="#222222"/>
<path d="M87.7109 86.9062C87.7109 84.6934 85.9004 82.8828 83.6875 82.8828H82.8828V78.0547H83.6875C85.9004 78.0547 87.7109 76.2441 87.7109 74.0312V70.8125C87.7109 68.5996 85.9004 66.7891 83.6875 66.7891H82.8828V61.9609H83.6875C85.9004 61.9609 87.7109 60.1504 87.7109 57.9375V54.7188C87.7109 52.5059 85.9004 50.6953 83.6875 50.6953H57.9375C55.7246 50.6953 53.9141 52.5059 53.9141 54.7188V57.9375C53.9141 60.1504 55.7246 61.9609 57.9375 61.9609H58.7422V66.7891H57.9375C55.7246 66.7891 53.9141 68.5996 53.9141 70.8125V74.0312C53.9141 76.2441 55.7246 78.0547 57.9375 78.0547H58.7422V82.8828H57.9375C55.7246 82.8828 53.9141 84.6934 53.9141 86.9062V90.125C53.9141 92.3379 55.7246 94.1484 57.9375 94.1484H83.6875C85.9004 94.1484 87.7109 92.3379 87.7109 90.125V86.9062ZM57.9375 60.3516C56.6098 60.3516 55.5234 59.2652 55.5234 57.9375V54.7188C55.5234 53.391 56.6098 52.3047 57.9375 52.3047H83.6875C85.0152 52.3047 86.1016 53.391 86.1016 54.7188V57.9375C86.1016 59.2652 85.0152 60.3516 83.6875 60.3516H57.9375ZM81.2734 61.9609V66.7891H60.3516V61.9609H81.2734ZM57.9375 76.4453C56.6098 76.4453 55.5234 75.359 55.5234 74.0312V70.8125C55.5234 69.4848 56.6098 68.3984 57.9375 68.3984H83.6875C85.0152 68.3984 86.1016 69.4848 86.1016 70.8125V74.0312C86.1016 75.359 85.0152 76.4453 83.6875 76.4453H57.9375ZM81.2734 78.0547V82.8828H60.3516V78.0547H81.2734ZM86.1016 90.125C86.1016 91.4527 85.0152 92.5391 83.6875 92.5391H57.9375C56.6098 92.5391 55.5234 91.4527 55.5234 90.125V86.9062C55.5234 85.5785 56.6098 84.4922 57.9375 84.4922H83.6875C85.0152 84.4922 86.1016 85.5785 86.1016 86.9062V90.125Z" fill="#222222"/>
<path d="M94.1484 36.1908L94.7922 36.05C98.1518 35.366 100.586 32.3686 100.586 28.9486V9.65625C100.586 5.65293 97.3471 2.41406 93.3438 2.41406H48.2812C44.2779 2.41406 41.0391 5.65293 41.0391 9.65625V28.1641H6.4375C4.22461 28.1641 2.41406 29.9746 2.41406 32.1875V96.5625C2.41406 98.7754 4.22461 100.586 6.4375 100.586H90.125C92.3379 100.586 94.1484 98.7754 94.1484 96.5625V36.1908ZM4.02344 32.1875C4.02344 30.8598 5.10977 29.7734 6.4375 29.7734H41.0592L41.2 30.4172C41.884 33.7768 44.8814 36.2109 48.3014 36.2109H54.3768L58.4002 41.0391H4.02344V32.1875ZM92.5391 96.5625C92.5391 97.8902 91.4527 98.9766 90.125 98.9766H6.4375C5.10977 98.9766 4.02344 97.8902 4.02344 96.5625V42.6484H59.7078L61.1562 44.3986C61.9408 45.3441 63.0875 45.8672 64.2945 45.8672C66.0045 45.8672 67.5334 44.7809 68.1369 43.1916L68.318 42.6484H92.5391V96.5625ZM92.5391 41.0391H68.3984V36.2109H92.5391V41.0391ZM66.7891 34.6016V41.7834C66.7891 43.1514 65.6826 44.2578 64.3147 44.2578C63.5703 44.2578 62.8662 43.9359 62.4035 43.3525L55.0809 34.6016H48.2812C45.1832 34.6016 42.6484 32.0668 42.6484 28.9688V9.65625C42.6484 6.5582 45.1832 4.02344 48.2812 4.02344H93.3438C96.4418 4.02344 98.9766 6.5582 98.9766 9.65625V28.9688C98.9766 32.0668 96.4418 34.6016 93.3438 34.6016H66.7891Z" fill="#222222"/>
<path d="M28.9688 47.4766C19.6545 47.4766 12.0703 55.0607 12.0703 64.375C12.0703 73.6893 19.6545 81.2734 28.9688 81.2734C38.283 81.2734 45.8672 73.6893 45.8672 64.375C45.8672 55.0607 38.283 47.4766 28.9688 47.4766ZM40.8982 54.8395C42.7088 57.0926 43.8354 59.7883 44.1572 62.665L44.2578 63.5502H30.9201L40.3551 54.1152L40.8982 54.8395ZM19.4332 52.4455C22.1691 50.2527 25.4684 49.0859 28.9688 49.0859C32.4691 49.0859 35.7684 50.2527 38.5043 52.4455L39.2084 53.0088L28.9688 63.2283L18.7291 52.9887L19.4332 52.4455ZM17.0393 73.9105C14.8465 71.1746 13.6797 67.8754 13.6797 64.375C13.6797 60.8746 14.8465 57.5754 17.0393 54.8395L17.6025 54.1354L27.8422 64.375L17.6025 74.6146L17.0393 73.9105ZM44.1572 66.0648C43.2922 73.81 36.7742 79.6641 28.9688 79.6641C25.4684 79.6641 22.1691 78.4973 19.4332 76.3045L18.7291 75.7412L29.2906 65.1797H44.2377L44.1572 66.0648Z" fill="#222222"/>
<path d="M10.4609 86.1016H8.85156V87.7109H10.4609V86.1016Z" fill="#222222"/>
<path d="M49.0859 86.1016H15.2891V87.7109H49.0859V86.1016Z" fill="#222222"/>
<path d="M16.8984 92.5391H8.85156V94.1484H16.8984V92.5391Z" fill="#222222"/>
<path d="M49.0859 92.5391H21.7266V94.1484H49.0859V92.5391Z" fill="#222222"/>
</svg>
