<svg width="103" height="103" viewBox="0 0 103 103" fill="none" xmlns="http://www.w3.org/2000/svg">
<path d="M102.175 69.1831H0.824707C0.382129 69.1831 0.0200195 68.821 0.0200195 68.3784C0.0200195 67.9358 0.382129 67.5737 0.824707 67.5737H102.195C102.638 67.5737 103 67.9358 103 68.3784C102.98 68.821 102.618 69.1831 102.175 69.1831Z" fill="black"/>
<path d="M51.5 77.23C49.7297 77.23 48.2812 75.7815 48.2812 74.0112C48.2812 72.2409 49.7297 70.7925 51.5 70.7925C53.2703 70.7925 54.7188 72.2409 54.7188 74.0112C54.7188 75.7815 53.2703 77.23 51.5 77.23ZM51.5 72.4019C50.6148 72.4019 49.8906 73.1261 49.8906 74.0112C49.8906 74.8964 50.6148 75.6206 51.5 75.6206C52.3852 75.6206 53.1094 74.8964 53.1094 74.0112C53.1094 73.1261 52.3852 72.4019 51.5 72.4019Z" fill="black"/>
<path d="M37.8402 98.1517C37.7799 98.1517 37.7195 98.1517 37.6592 98.1316C37.2166 98.031 36.9551 97.6085 37.0556 97.166L40.2744 82.6816C40.375 82.2591 40.7974 81.9775 41.24 82.0781C41.6826 82.1786 41.9441 82.6011 41.8435 83.0437L38.6248 97.5281C38.5443 97.8902 38.2023 98.1517 37.8402 98.1517Z" fill="black"/>
<path d="M65.1595 98.1517C64.7974 98.1517 64.4554 97.8902 64.3749 97.5281L61.1562 83.0437C61.0556 82.6011 61.3372 82.1786 61.7597 82.0781C62.2023 81.9775 62.6247 82.2591 62.7253 82.6816L65.9441 97.166C66.0447 97.6085 65.763 98.031 65.3406 98.1316C65.2802 98.1316 65.2199 98.1517 65.1595 98.1517Z" fill="black"/>
<path d="M67.5937 98.1519H35.4062C34.9637 98.1519 34.6016 97.7897 34.6016 97.3472C34.6016 96.9046 34.9637 96.5425 35.4062 96.5425H67.5937C68.0363 96.5425 68.3984 96.9046 68.3984 97.3472C68.3984 97.7897 68.0363 98.1519 67.5937 98.1519Z" fill="black"/>
<path d="M97.347 64.395H5.65283C5.21025 64.395 4.84814 64.0329 4.84814 63.5903V10.481C4.84814 10.0384 5.21025 9.67627 5.65283 9.67627H97.3671C97.8097 9.67627 98.1718 10.0384 98.1718 10.481V63.5702C98.1517 64.0329 97.8097 64.395 97.347 64.395ZM6.45752 62.7856H96.5624V11.2856H6.45752V62.7856Z" fill="black"/>
<path d="M97.3469 80.4687H5.65283C2.55478 80.4687 0.0200195 77.9339 0.0200195 74.8358V74.8157V74.7956V10.481C0.0200195 7.38291 2.55478 4.84814 5.65283 4.84814H97.3671C100.465 4.84814 103 7.38291 103 10.481V74.8358C102.98 77.954 100.465 80.4687 97.3469 80.4687ZM1.62939 74.8358C1.62939 77.0688 3.43994 78.8794 5.65283 78.8794H97.3671C99.5799 78.8794 101.39 77.0688 101.39 74.856V10.481C101.39 8.26807 99.5799 6.45752 97.3671 6.45752H5.65283C3.43994 6.45752 1.62939 8.26807 1.62939 10.481V74.8358C1.62939 74.8157 1.62939 74.8157 1.62939 74.8358Z" fill="black"/>
<path d="M97.3469 83.6675H5.65283C2.49443 83.6675 0.0200195 81.1931 0.0200195 78.0347V74.836C0.0200195 74.3935 0.382129 74.0112 0.824707 74.0112C1.26728 74.0112 1.62939 74.3532 1.62939 74.7958V78.0145C1.62939 80.3079 3.35947 82.038 5.65283 82.038H97.3671C99.6604 82.038 101.39 80.3079 101.39 78.0145V74.836C101.39 74.3935 101.753 74.0313 102.195 74.0313C102.638 74.0313 103 74.3935 103 74.836V78.0145C102.98 81.1931 100.505 83.6675 97.3469 83.6675Z" fill="black"/>
<path d="M23.8 5C23.8 2.68041 25.6804 0.8 28 0.8H73C75.3196 0.8 77.2 2.6804 77.2 5V63.5945H23.8V5Z" fill="white" stroke="black" stroke-width="1.6"/>
<path d="M23 8.87158C23 8.429 23.3621 8.06689 23.8047 8.06689L76.9141 8.06689C77.3566 8.06689 77.7187 8.429 77.7187 8.87158C77.7187 9.31416 77.3566 9.67627 76.9141 9.67627L23.8248 9.67627C23.3621 9.67627 23 9.31416 23 8.87158Z" fill="black"/>
<circle cx="29.126" cy="4.84814" r="1.04736" fill="black"/>
<circle cx="33.2207" cy="4.84814" r="1.04736" fill="black"/>
<circle cx="37.3154" cy="4.84814" r="1.04736" fill="black"/>
<path d="M65.1547 41.9368V42.3368H65.5547H70.4297C71.1077 42.3368 71.6547 42.8839 71.6547 43.5534C71.6547 44.223 71.1077 44.7701 70.4297 44.7701H63.9297C63.2517 44.7701 62.7047 44.223 62.7047 43.5534V30.6201C62.7047 29.9505 63.2517 29.4034 63.9297 29.4034C64.6077 29.4034 65.1547 29.9505 65.1547 30.6201V41.9368Z" fill="black" stroke="white" stroke-width="0.8"/>
<path d="M52.2353 34.6305L52.5547 35.0539L52.874 34.6305L56.4482 29.8915C56.4483 29.8914 56.4485 29.8912 56.4486 29.891C56.768 29.4712 57.3172 29.3008 57.8173 29.4666C58.3181 29.6327 58.6547 30.0984 58.6547 30.6196V43.5529C58.6547 44.2225 58.1077 44.7696 57.4297 44.7696C56.7517 44.7696 56.2047 44.2225 56.2047 43.5529V35.4696V34.2745L55.4853 35.2288L53.5353 37.8155L53.5347 37.8163C53.3177 38.1057 52.9501 38.2673 52.5559 38.2673C52.1617 38.2673 51.7929 38.1056 51.5741 37.8155L49.6241 35.2288L48.9047 34.2745V35.4696V43.5529C48.9047 44.2225 48.3577 44.7696 47.6797 44.7696C47.0017 44.7696 46.4547 44.2225 46.4547 43.5529V30.6196C46.4547 30.0984 46.7911 29.6329 47.2918 29.4667C47.7977 29.2999 48.3452 29.4701 48.6596 29.8895L48.6596 29.8895L48.6603 29.8904L52.2353 34.6305Z" fill="black" stroke="white" stroke-width="0.8"/>
<path d="M36.3087 35.0573L35.9892 34.6338L32.411 29.8905L32.4105 29.8899C32.0033 29.3481 31.2338 29.2396 30.6964 29.6455L30.6947 29.6467L30.6947 29.6467C30.153 30.0515 30.0444 30.812 30.4495 31.3486L30.4497 31.3488L34.5967 36.8487L34.7783 37.0896L34.5966 37.3304L30.4529 42.8238L30.4528 42.824C30.0478 43.3604 30.1562 44.1205 30.6974 44.5254C30.9198 44.6899 31.1771 44.7696 31.4303 44.7696C31.8041 44.7696 32.1716 44.6012 32.4147 44.2815C32.4148 44.2813 32.4149 44.2812 32.415 44.281L35.9892 39.542L36.3087 39.1184L36.628 39.5422L40.1998 44.2822L40.2 44.2826C40.4393 44.6008 40.8059 44.7696 41.1803 44.7696C41.4372 44.7696 41.6943 44.6897 41.9164 44.5254C42.4577 44.1205 42.5661 43.3604 42.1611 42.824L42.161 42.8238L38.0172 37.3304L37.8356 37.0896L38.0172 36.8487L42.1642 31.3488L42.1643 31.3486C42.5695 30.812 42.4608 30.0515 41.9191 29.6467L36.3087 35.0573ZM36.3087 35.0573L36.628 34.6337M36.3087 35.0573L36.628 34.6337M36.628 34.6337L40.2028 29.8906M36.628 34.6337L40.2028 29.8906M40.2028 29.8906L40.203 29.8904C40.6094 29.3524 41.3798 29.2445 41.9191 29.6467L40.2028 29.8906Z" fill="black" stroke="white" stroke-width="0.8"/>
</svg>
