<svg width="103" height="103" viewBox="0 0 103 103" fill="none" xmlns="http://www.w3.org/2000/svg">
<path d="M73.2666 4.82812C72.824 4.82812 72.4619 4.46602 72.4619 4.02344C72.4619 3.58086 72.8039 3.21875 73.2666 3.21875H73.2867C73.7293 3.21875 74.0914 3.58086 74.0914 4.02344C74.0914 4.46602 73.7092 4.82812 73.2666 4.82812Z" fill="#222222"/>
<path d="M70.0479 4.82812C69.6053 4.82812 69.2432 4.46602 69.2432 4.02344C69.2432 3.58086 69.5852 3.21875 70.0479 3.21875H70.068C70.5105 3.21875 70.8727 3.58086 70.8727 4.02344C70.8727 4.46602 70.4904 4.82812 70.0479 4.82812Z" fill="#222222"/>
<path d="M73.2266 99.7812H29.7734C25.7701 99.7812 22.5312 96.5424 22.5312 92.5391V7.24219C22.5312 3.23887 25.7701 0 29.7734 0H73.2266C77.2299 0 80.4688 3.23887 80.4688 7.24219V92.5391C80.4688 96.5223 77.2098 99.7812 73.2266 99.7812ZM29.7734 1.60938C26.6754 1.60938 24.1406 4.14414 24.1406 7.24219V92.5391C24.1406 95.6371 26.6754 98.1719 29.7734 98.1719H73.2266C76.3246 98.1719 78.8594 95.6371 78.8594 92.5391V7.24219C78.8594 4.14414 76.3246 1.60938 73.2266 1.60938H29.7734Z" fill="#222222"/>
<path d="M73.2266 103H29.7734C25.7701 103 22.5312 99.7611 22.5312 95.7578C22.5312 95.3152 22.8934 94.9531 23.3359 94.9531C23.7785 94.9531 24.1406 95.3152 24.1406 95.7578C24.1406 98.8559 26.6754 101.391 29.7734 101.391H73.2266C76.3246 101.391 78.8594 98.8559 78.8594 95.7578C78.8594 95.3152 79.2215 94.9531 79.6641 94.9531C80.1066 94.9531 80.4688 95.3152 80.4688 95.7578C80.4688 99.741 77.2098 103 73.2266 103Z" fill="#222222"/>
<path d="M79.6641 96.5625C79.2215 96.5625 78.8594 96.2004 78.8594 95.7578V92.5391C78.8594 92.0965 79.2215 91.7344 79.6641 91.7344C80.1066 91.7344 80.4688 92.0965 80.4688 92.5391V95.7578C80.4688 96.2004 80.1066 96.5625 79.6641 96.5625Z" fill="#222222"/>
<path d="M23.3359 96.5625C22.8934 96.5625 22.5312 96.2004 22.5312 95.7578V92.5391C22.5312 92.0965 22.8934 91.7344 23.3359 91.7344C23.7785 91.7344 24.1406 92.0965 24.1406 92.5391V95.7578C24.1406 96.2004 23.7785 96.5625 23.3359 96.5625Z" fill="#222222"/>
<path d="M78.0547 8.04688H24.9453C24.5027 8.04688 24.1406 7.68477 24.1406 7.24219C24.1406 6.79961 24.5027 6.4375 24.9453 6.4375H78.0547C78.4973 6.4375 78.8594 6.79961 78.8594 7.24219C78.8594 7.68477 78.4973 8.04688 78.0547 8.04688Z" fill="#222222"/>
<path d="M78.0547 85.2969H24.9453C24.5027 85.2969 24.1406 84.9348 24.1406 84.4922C24.1406 84.0496 24.5027 83.6875 24.9453 83.6875H78.0547C78.4973 83.6875 78.8594 84.0496 78.8594 84.4922C78.8594 84.9348 78.4973 85.2969 78.0547 85.2969Z" fill="#222222"/>
<path d="M51.5 96.5625C48.8445 96.5625 46.6719 94.3898 46.6719 91.7344C46.6719 89.0789 48.8445 86.9062 51.5 86.9062C54.1555 86.9062 56.3281 89.0789 56.3281 91.7344C56.3281 94.3898 54.1555 96.5625 51.5 96.5625ZM51.5 88.5156C49.7297 88.5156 48.2812 89.9641 48.2812 91.7344C48.2812 93.5047 49.7297 94.9531 51.5 94.9531C53.2703 94.9531 54.7188 93.5047 54.7188 91.7344C54.7188 89.9641 53.2703 88.5156 51.5 88.5156Z" fill="#222222"/>
<path d="M57.1328 4.82812H45.8672C45.4246 4.82812 45.0625 4.46602 45.0625 4.02344C45.0625 3.58086 45.4246 3.21875 45.8672 3.21875H57.1328C57.5754 3.21875 57.9375 3.58086 57.9375 4.02344C57.9375 4.46602 57.5754 4.82812 57.1328 4.82812Z" fill="#222222"/>
<path d="M80.4688 19.3125C80.0262 19.3125 79.6641 18.9504 79.6641 18.5078V15.2891C79.6641 14.8465 80.0262 14.4844 80.4688 14.4844C80.9113 14.4844 81.2734 14.8465 81.2734 15.2891V18.5078C81.2734 18.9504 80.9113 19.3125 80.4688 19.3125Z" fill="#222222"/>
<path d="M22.5312 20.9219C22.0887 20.9219 21.7266 20.5598 21.7266 20.1172V16.8984C21.7266 16.4559 22.0887 16.0938 22.5312 16.0938C22.9738 16.0938 23.3359 16.4559 23.3359 16.8984V20.1172C23.3359 20.5598 22.9738 20.9219 22.5312 20.9219Z" fill="#222222"/>
<path d="M80.4688 33.7969C80.0262 33.7969 79.6641 33.4348 79.6641 32.9922V23.3359C79.6641 22.8934 80.0262 22.5312 80.4688 22.5312C80.9113 22.5312 81.2734 22.8934 81.2734 23.3359V32.9922C81.2734 33.4348 80.9113 33.7969 80.4688 33.7969Z" fill="#222222"/>
</svg>
