<svg width="103" height="103" viewBox="0 0 103 103" fill="none" xmlns="http://www.w3.org/2000/svg">
<path d="M73.207 18.5278C72.7645 18.5278 72.4023 18.1657 72.4023 17.7231C72.4023 17.2806 72.7443 16.9185 73.207 16.9185H73.2271C73.6697 16.9185 74.0318 17.2806 74.0318 17.7231C74.0318 18.1657 73.6496 18.5278 73.207 18.5278Z" fill="#222222"/>
<path d="M78.0352 18.5278C77.5926 18.5278 77.2305 18.1657 77.2305 17.7231C77.2305 17.2806 77.5725 16.9185 78.0352 16.9185H78.0553C78.4978 16.9185 78.86 17.2806 78.86 17.7231C78.86 18.1657 78.4777 18.5278 78.0352 18.5278Z" fill="#222222"/>
<path d="M65.7642 69.4851C65.382 69.4851 65.04 69.2035 64.9796 68.8212L58.2806 30.7997C58.2001 30.3572 58.5019 29.9548 58.9244 29.8744C59.3669 29.7939 59.7693 30.0956 59.8497 30.5181L66.5488 68.5396C66.6292 68.9822 66.3275 69.3845 65.905 69.465C65.8648 69.4851 65.8246 69.4851 65.7642 69.4851Z" fill="#222222"/>
<path d="M66.6293 74.2322C66.2471 74.2322 65.9051 73.9506 65.8447 73.5683C65.1004 69.4242 45.124 67.4326 32.6916 67.1308C32.249 67.1308 31.8869 66.7486 31.907 66.306C31.9272 65.8635 32.2692 65.4812 32.7319 65.5215C38.3244 65.6422 66.2471 66.6279 67.434 73.2867C67.5145 73.7293 67.2127 74.1316 66.7902 74.2121C66.7098 74.2322 66.6695 74.2322 66.6293 74.2322Z" fill="#222222"/>
<path d="M28.7886 44.9619C28.4466 44.9619 28.1247 44.7205 28.0241 44.3785C27.9034 43.956 28.1448 43.5134 28.5874 43.3927C37.0567 40.9988 58.7431 33.2537 57.4757 26.0517C57.3952 25.6091 57.697 25.2068 58.1194 25.1263C58.5419 25.0458 58.9644 25.3476 59.0448 25.7701C59.8093 30.1154 54.9208 34.682 44.48 39.329C36.936 42.6886 29.0903 44.9216 29.0099 44.9417C28.9294 44.9619 28.8489 44.9619 28.7886 44.9619Z" fill="#222222"/>
<path d="M58.24 26.7159C57.8578 26.7159 57.5158 26.4342 57.4554 26.052C57.3749 25.6094 57.6767 25.2071 58.0992 25.1266L61.2777 24.5633C61.7203 24.4829 62.1427 24.7846 62.2031 25.2071C62.2835 25.6496 61.9818 26.052 61.5593 26.1325L58.3808 26.6957C58.3406 26.7159 58.2802 26.7159 58.24 26.7159Z" fill="#222222"/>
<path d="M69.7669 73.6694C69.3847 73.6694 69.0427 73.3877 68.9824 73.0055L60.6136 25.4887C60.5331 25.0461 60.8349 24.6438 61.2574 24.5633C61.6999 24.4829 62.1023 24.7846 62.1828 25.2071L70.5515 72.7239C70.632 73.1664 70.3302 73.5688 69.9078 73.6492C69.8675 73.6694 69.8273 73.6694 69.7669 73.6694Z" fill="#222222"/>
<path d="M66.6287 74.2325C66.2464 74.2325 65.9044 73.9508 65.8441 73.5686C65.7636 73.126 66.0654 72.7237 66.4878 72.6432L69.6462 72.0799C70.0888 71.9995 70.4912 72.3012 70.5716 72.7237C70.6521 73.1663 70.3503 73.5686 69.9279 73.6491L66.7695 74.2123C66.7091 74.2325 66.6689 74.2325 66.6287 74.2325Z" fill="#222222"/>
<path d="M15.2693 70.209C14.8871 70.209 14.5451 69.9274 14.4847 69.5452C14.4042 69.1026 14.706 68.7002 15.1285 68.6198L32.5499 65.5418C32.9925 65.4614 33.3949 65.7631 33.4753 66.1856C33.5558 66.6282 33.2541 67.0305 32.8316 67.111L15.4101 70.1889C15.3699 70.209 15.3095 70.209 15.2693 70.209Z" fill="#222222"/>
<path d="M11.3669 48.0401C10.9847 48.0401 10.6427 47.7584 10.5824 47.3762C10.5019 46.9336 10.8037 46.5313 11.2261 46.4508L28.6476 43.3729C29.0902 43.2924 29.4925 43.5942 29.573 44.0166C29.6535 44.4592 29.3517 44.8616 28.9292 44.942L11.5078 48.02C11.4675 48.0401 11.4072 48.0401 11.3669 48.0401Z" fill="#222222"/>
<path d="M15.2695 70.2089C15.2494 70.2089 15.2092 70.2089 15.1891 70.2089L3.54121 69.0019C3.1791 68.9617 2.89746 68.7002 2.83711 68.338L0.0408174 52.4857C-0.0195342 52.1236 0.161521 51.7816 0.483396 51.6207L11.0248 46.5109C11.2461 46.3902 11.5076 46.4103 11.749 46.5109C11.9703 46.6316 12.1312 46.8328 12.1715 47.0943L16.0742 69.2634C16.1145 69.5048 16.034 69.7664 15.873 69.9474C15.7121 70.1084 15.4908 70.2089 15.2695 70.2089ZM4.30566 67.4529L14.2838 68.4789L10.7432 48.4019L1.73066 52.8076L4.30566 67.4529Z" fill="#222222"/>
<path d="M32.1281 63.9726C31.7458 63.9726 31.4039 63.691 31.3435 63.3087L28.5472 47.4765C28.4667 47.0339 28.7685 46.6316 29.191 46.5511C29.6335 46.4706 30.0359 46.7724 30.1164 47.1949L32.8925 63.0472C32.973 63.4898 32.6712 63.8921 32.2488 63.9726C32.2287 63.9726 32.1683 63.9726 32.1281 63.9726Z" fill="#222222"/>
<path d="M4.56719 55.7846C4.28555 55.7846 4.00391 55.6236 3.86309 55.3621C3.6418 54.9799 3.80274 54.4769 4.18497 54.2758L8.65098 51.8416C9.05333 51.6203 9.53614 51.7813 9.73731 52.1635C9.9586 52.5457 9.79766 53.0486 9.41544 53.2498L4.94942 55.684C4.82872 55.7443 4.6879 55.7846 4.56719 55.7846Z" fill="#222222"/>
<path d="M11.2655 66.0246C11.2253 66.0246 11.185 66.0246 11.1448 66.0246L6.11549 65.2601C5.67291 65.1998 5.37115 64.7773 5.43151 64.3347C5.49186 63.8921 5.91432 63.5904 6.33678 63.6507L11.3661 64.4152C11.8087 64.4755 12.1104 64.898 12.0501 65.3406C12.0098 65.7429 11.6678 66.0246 11.2655 66.0246Z" fill="#222222"/>
<path d="M5.39232 60.5327C5.0101 60.5327 4.66811 60.251 4.60775 59.8688C4.52729 59.4262 4.82904 59.0239 5.2515 58.9434L9.99916 58.0985C10.4216 58.018 10.8441 58.3198 10.9246 58.7422C11.005 59.1848 10.7033 59.5872 10.2808 59.6676L5.53315 60.5125C5.49291 60.5125 5.43256 60.5327 5.39232 60.5327Z" fill="#222222"/>
<path d="M12.7956 46.9537C12.4134 46.9537 12.0714 46.672 12.0111 46.2898C11.9306 45.8472 12.2324 45.4449 12.6548 45.3644L15.8333 44.8011C16.2759 44.7206 16.6984 45.0224 16.7587 45.4449C16.8392 45.8874 16.5374 46.2898 16.115 46.3703L12.9365 46.9335C12.8962 46.9537 12.8359 46.9537 12.7956 46.9537Z" fill="#222222"/>
<path d="M39.0283 93.7866C38.7265 93.7866 38.4248 93.6055 38.284 93.3038L30.1767 75.1379C29.9957 74.7356 30.1767 74.2528 30.5791 74.0717C30.9814 73.8907 31.4642 74.0717 31.6453 74.4741L39.7525 92.6399C39.9336 93.0423 39.7525 93.5251 39.3502 93.7061C39.2496 93.7665 39.149 93.7866 39.0283 93.7866Z" fill="#222222"/>
<path d="M29.5332 95.456C29.2314 95.456 28.9296 95.275 28.7888 94.9732L20.6816 76.8074C20.5005 76.405 20.6816 75.9222 21.0839 75.7412C21.4863 75.5601 21.9691 75.7412 22.1502 76.1435L30.2574 94.3093C30.4384 94.7117 30.2574 95.1945 29.855 95.3756C29.7544 95.4359 29.6337 95.456 29.5332 95.456Z" fill="#222222"/>
<path d="M27.9438 95.7576C27.5616 95.7576 27.2196 95.476 27.1592 95.0938C27.0787 94.6512 27.3604 94.2287 27.803 94.1684L40.4768 91.9354C40.9194 91.8549 41.3217 92.1567 41.4022 92.5992C41.4826 93.0418 41.1809 93.4442 40.7383 93.5246L28.0645 95.7576C28.0242 95.7576 27.984 95.7576 27.9438 95.7576Z" fill="#222222"/>
<path d="M17.6833 74.6949C17.3011 74.6949 16.9591 74.4133 16.8987 74.0311L16.597 72.2406C16.5165 71.7981 16.8183 71.3957 17.2609 71.3152C17.7034 71.2348 18.1058 71.5365 18.1862 71.9791L18.488 73.7695C18.5685 74.2121 18.2667 74.6145 17.8241 74.6949C17.7839 74.6949 17.7235 74.6949 17.6833 74.6949Z" fill="#222222"/>
<path d="M17.6833 74.6952C17.3011 74.6952 16.9591 74.4136 16.8987 74.0314C16.8183 73.5888 17.12 73.1864 17.5626 73.106L33.415 70.3499C33.8575 70.2694 34.2599 70.5712 34.3403 71.0138C34.4208 71.4564 34.1191 71.8587 33.6765 71.9392L17.8241 74.6952C17.7839 74.6952 17.7235 74.6952 17.6833 74.6952Z" fill="#222222"/>
<path d="M33.5565 71.9388C33.1742 71.9388 32.8323 71.6773 32.7719 71.2749L32.4903 69.7058C32.4098 69.2632 32.6914 68.8408 33.134 68.7603C33.5766 68.6798 33.9991 68.9615 34.0795 69.404L34.3612 70.9732C34.4416 71.4157 34.16 71.8382 33.7174 71.9187C33.6369 71.9388 33.5967 71.9388 33.5565 71.9388Z" fill="#222222"/>
<path d="M86.041 86.1016C80.2674 86.1016 75.5801 81.4143 75.5801 75.6406C75.5801 69.867 80.2674 65.1797 86.041 65.1797C91.8146 65.1797 96.5019 69.867 96.5019 75.6406C96.5019 81.4143 91.7945 86.1016 86.041 86.1016ZM86.041 66.7891C81.1525 66.7891 77.1895 70.7521 77.1895 75.6406C77.1895 80.5291 81.1525 84.4922 86.041 84.4922C90.9094 84.4922 94.8926 80.5291 94.8926 75.6406C94.8926 70.7723 90.9094 66.7891 86.041 66.7891Z" fill="#222222"/>
<path d="M75.5801 28.1841C71.1342 28.1841 67.5332 24.5831 67.5332 20.1372C67.5332 15.7114 71.1342 12.0903 75.5801 12.0903C80.0059 12.0903 83.6269 15.6913 83.6269 20.1372C83.6269 24.5831 80.0059 28.1841 75.5801 28.1841ZM75.5801 13.7198C72.0395 13.7198 69.1426 16.6167 69.1426 20.1573C69.1426 23.698 72.0193 26.5948 75.5801 26.5948C79.1207 26.5948 82.0176 23.7181 82.0176 20.1573C82.0176 16.5966 79.1207 13.7198 75.5801 13.7198Z" fill="#222222"/>
<path d="M88.4961 60.3716C80.5096 60.3716 74.0117 53.8737 74.0117 45.8872C74.0117 37.9007 80.5096 31.4028 88.4961 31.4028C96.4826 31.4028 102.98 37.9007 102.98 45.8872C102.98 53.8737 96.4826 60.3716 88.4961 60.3716ZM88.4961 33.0122C81.3947 33.0122 75.6211 38.7858 75.6211 45.8872C75.6211 52.9886 81.3947 58.7622 88.4961 58.7622C95.5975 58.7622 101.371 52.9886 101.371 45.8872C101.371 38.7858 95.5975 33.0122 88.4961 33.0122Z" fill="#222222"/>
<path d="M86.0414 81.5549C85.9207 81.5549 85.8201 81.5348 85.7195 81.4945C85.4982 81.394 80.4287 79.0805 80.4287 74.8559C80.4287 72.9246 81.9777 71.3555 83.909 71.3555C84.6936 71.3555 85.4379 71.617 86.0615 72.0998C86.665 71.617 87.4094 71.3555 88.2141 71.3555C90.1453 71.3555 91.7145 72.9246 91.7145 74.8559C91.7145 79.0805 86.6248 81.394 86.4035 81.4945C86.2627 81.5348 86.142 81.5549 86.0414 81.5549ZM83.8889 72.9648C82.8629 72.9648 82.018 73.8098 82.018 74.8559C82.018 77.5314 85.0154 79.3219 86.0414 79.865C87.0473 79.3219 90.0648 77.5113 90.0648 74.8559C90.0648 73.8098 89.2199 72.9648 88.1738 72.9648C87.5904 72.9648 87.0473 73.2465 86.6852 73.7293C86.5443 73.9305 86.3029 74.0512 86.0414 74.0512C85.8201 74.0512 85.5385 73.9305 85.3977 73.7293C85.0154 73.2465 84.4723 72.9648 83.8889 72.9648Z" fill="#222222"/>
<path d="M94.1289 52.3247H87.6914C87.4701 52.3247 87.2689 52.2442 87.1281 52.0833L85.7602 50.7153H84.4928C84.0502 50.7153 83.6881 50.3532 83.6881 49.9106C83.6881 49.4681 84.0502 49.106 84.4928 49.106H86.1021C86.3234 49.106 86.5246 49.1864 86.6654 49.3474L88.0334 50.7153H93.7668C94.7928 49.287 94.7928 45.7062 93.7668 44.2778H92.5195C92.077 44.2778 91.7148 43.9157 91.7148 43.4731V39.4497H91.4332C90.9705 40.4556 89.8037 42.7489 88.2145 44.0968C86.1424 45.847 84.6336 45.8872 84.4727 45.8872C84.0301 45.8872 83.668 45.5251 83.668 45.0825C83.668 44.6399 84.0301 44.2778 84.4727 44.2778C84.4727 44.2778 85.559 44.2175 87.1684 42.8495C88.9186 41.381 90.1457 38.3634 90.1658 38.3433C90.2865 38.0415 90.5883 37.8403 90.9102 37.8403H92.5195C92.9621 37.8403 93.3242 38.2024 93.3242 38.645V42.6685H94.1289C94.3502 42.6685 94.5514 42.7489 94.6922 42.9099C96.6234 44.8411 96.6234 50.152 94.6922 52.0833C94.5514 52.2442 94.3502 52.3247 94.1289 52.3247Z" fill="#222222"/>
<path d="M84.4727 52.3247H79.6445C79.202 52.3247 78.8398 51.9626 78.8398 51.52V43.4731C78.8398 43.0306 79.202 42.6685 79.6445 42.6685H84.4727C84.9152 42.6685 85.2773 43.0306 85.2773 43.4731V51.52C85.2773 51.9626 84.9152 52.3247 84.4727 52.3247ZM80.4492 50.7153H83.668V44.2778H80.4492V50.7153Z" fill="#222222"/>
<path d="M75.5801 24.9653C73.0453 24.9653 72.3613 23.3962 72.3613 22.5513C72.3613 22.1087 72.7234 21.7466 73.166 21.7466C73.6086 21.7466 73.9506 22.0886 73.9707 22.5312C73.9707 22.672 74.1115 23.356 75.5801 23.356C77.0687 23.356 77.1693 22.672 77.1894 22.5312C77.2096 22.0886 77.632 21.7667 78.0142 21.7667C78.4568 21.7868 78.7988 22.1288 78.7988 22.5513C78.7988 23.3962 78.135 24.9653 75.5801 24.9653Z" fill="#222222"/>
<path d="M96.543 20.1172C93.0023 20.1172 90.1055 17.2203 90.1055 13.6797C90.1055 10.1391 93.0023 7.24219 96.543 7.24219C100.084 7.24219 102.98 10.1189 102.98 13.6797C102.98 17.2203 100.084 20.1172 96.543 20.1172ZM96.543 8.85156C93.8875 8.85156 91.7148 11.0242 91.7148 13.6797C91.7148 16.3352 93.8875 18.5078 96.543 18.5078C99.1984 18.5078 101.371 16.3352 101.371 13.6797C101.371 11.0242 99.1984 8.85156 96.543 8.85156Z" fill="#222222"/>
<path d="M96.543 23.3359C93.0023 23.3359 90.1055 20.4391 90.1055 16.8984C90.1055 16.4559 90.4676 16.0938 90.9102 16.0938C91.3527 16.0938 91.7148 16.4559 91.7148 16.8984C91.7148 19.5539 93.8875 21.7266 96.543 21.7266C99.1984 21.7266 101.371 19.5539 101.371 16.8984C101.371 16.4559 101.733 16.0938 102.176 16.0938C102.618 16.0938 102.98 16.4559 102.98 16.8984C102.98 20.4391 100.084 23.3359 96.543 23.3359Z" fill="#222222"/>
<path d="M96.543 16.8984C96.1004 16.8984 95.7383 16.5363 95.7383 16.0938V11.2656C95.7383 10.823 96.1004 10.4609 96.543 10.4609C96.9855 10.4609 97.3477 10.823 97.3477 11.2656V16.0938C97.3477 16.5363 96.9855 16.8984 96.543 16.8984Z" fill="#222222"/>
<path d="M98.957 14.4844H94.1289C93.6863 14.4844 93.3242 14.1223 93.3242 13.6797C93.3242 13.2371 93.6863 12.875 94.1289 12.875H98.957C99.3996 12.875 99.7617 13.2371 99.7617 13.6797C99.7617 14.1223 99.3996 14.4844 98.957 14.4844Z" fill="#222222"/>
<path d="M90.9102 17.7031C90.4676 17.7031 90.1055 17.341 90.1055 16.8984V13.6797C90.1055 13.2371 90.4676 12.875 90.9102 12.875C91.3527 12.875 91.7148 13.2371 91.7148 13.6797V16.8984C91.7148 17.341 91.3527 17.7031 90.9102 17.7031Z" fill="#222222"/>
<path d="M102.176 17.7031C101.733 17.7031 101.371 17.341 101.371 16.8984V13.6797C101.371 13.2371 101.733 12.875 102.176 12.875C102.618 12.875 102.98 13.2371 102.98 13.6797V16.8984C102.98 17.341 102.618 17.7031 102.176 17.7031Z" fill="#222222"/>
</svg>
