<svg width="103" height="103" viewBox="0 0 103 103" fill="none" xmlns="http://www.w3.org/2000/svg">
<g clip-path="url(#clip0)">
<path d="M34.6016 61.5586C35.4867 61.5586 36.2109 62.2828 36.2109 63.168C36.2109 64.0531 35.4867 64.7773 34.6016 64.7773C33.7164 64.7773 32.9922 64.0531 32.9922 63.168C32.9922 62.2828 33.7164 61.5586 34.6016 61.5586Z" fill="#222222"/>
<path d="M4.08398 18.5078C3.64141 18.5078 3.2793 18.1457 3.2793 17.7031C3.2793 17.2605 3.64141 16.8984 4.08398 16.8984H4.1041C4.54668 16.8984 4.90879 17.2605 4.90879 17.7031C4.88867 18.1658 4.52656 18.5078 4.08398 18.5078Z" fill="#222222"/>
<path d="M7.30273 18.5078C6.86016 18.5078 6.49805 18.1457 6.49805 17.7031C6.49805 17.2605 6.86016 16.8984 7.30273 16.8984H7.32285C7.76543 16.8984 8.12754 17.2605 8.12754 17.7031C8.10742 18.1658 7.74531 18.5078 7.30273 18.5078Z" fill="#222222"/>
<path d="M10.5215 18.5078C10.0789 18.5078 9.7168 18.1457 9.7168 17.7031C9.7168 17.2605 10.0789 16.8984 10.5215 16.8984H10.5416C10.9842 16.8984 11.3463 17.2605 11.3463 17.7031C11.3262 18.1658 10.9641 18.5078 10.5215 18.5078Z" fill="#222222"/>
<path d="M102.176 20.1172C101.733 20.1172 101.371 19.7551 101.371 19.3125V17.7031C101.371 17.2605 101.009 16.8984 100.566 16.8984H2.43457C1.99199 16.8984 1.62988 17.2605 1.62988 17.7031V19.3125C1.62988 19.7551 1.26777 20.1172 0.825195 20.1172C0.382617 20.1172 0.0205078 19.7551 0.0205078 19.3125V17.7031C0.0205078 16.3754 1.10684 15.2891 2.43457 15.2891H100.586C101.914 15.2891 103 16.3754 103 17.7031V19.3125C102.98 19.7551 102.618 20.1172 102.176 20.1172Z" fill="#222222"/>
<path d="M102.176 87.7109H0.825195C0.382617 87.7109 0.0205078 87.3488 0.0205078 86.9062V19.3125C0.0205078 18.8699 0.382617 18.5078 0.825195 18.5078H102.196C102.638 18.5078 103 18.8699 103 19.3125V86.9062C102.98 87.3488 102.618 87.7109 102.176 87.7109ZM1.62988 86.1016H101.391V20.1172H1.62988V86.1016Z" fill="#222222"/>
<path d="M63.5707 65.582H5.65332C5.21074 65.582 4.84863 65.2199 4.84863 64.7773V26.1523C4.84863 25.7098 5.21074 25.3477 5.65332 25.3477H63.5707C64.0133 25.3477 64.3754 25.7098 64.3754 26.1523V64.7773C64.3754 65.2199 64.0133 65.582 63.5707 65.582ZM62.766 63.9727V26.957H6.45801V63.9727" fill="#222222"/>
<path d="M63.5707 62.3633H5.65332C5.21074 62.3633 4.84863 62.0012 4.84863 61.5586C4.84863 61.116 5.21074 60.7539 5.65332 60.7539H63.5707C64.0133 60.7539 64.3754 61.116 64.3754 61.5586C64.3754 62.0012 64.0133 62.3633 63.5707 62.3633Z" fill="#222222"/>
<path d="M8.87207 65.582C8.42949 65.582 8.06738 65.2199 8.06738 64.7773V61.5586C8.06738 61.116 8.42949 60.7539 8.87207 60.7539C9.31465 60.7539 9.67676 61.116 9.67676 61.5586V64.7773C9.67676 65.2199 9.31465 65.582 8.87207 65.582Z" fill="#222222"/>
<path d="M60.3516 65.582C59.909 65.582 59.5469 65.2199 59.5469 64.7773V61.5586C59.5469 61.116 59.909 60.7539 60.3516 60.7539C60.7941 60.7539 61.1562 61.116 61.1562 61.5586V64.7773C61.1562 65.2199 60.7941 65.582 60.3516 65.582Z" fill="#222222"/>
<path d="M34.6016 65.582C33.2738 65.582 32.1875 64.4957 32.1875 63.168C32.1875 61.8402 33.2738 60.7539 34.6016 60.7539C35.9293 60.7539 37.0156 61.8402 37.0156 63.168C37.0156 64.4957 35.9293 65.582 34.6016 65.582ZM34.6016 62.3633C34.159 62.3633 33.7969 62.7254 33.7969 63.168C33.7969 63.6105 34.159 63.9727 34.6016 63.9727C35.0441 63.9727 35.4062 63.6105 35.4062 63.168C35.4062 62.7254 35.0441 62.3633 34.6016 62.3633Z" fill="#222222"/>
<path d="M34.6016 52.707C29.2705 52.707 24.9453 48.3818 24.9453 43.0508C24.9453 37.7197 29.2705 33.3945 34.6016 33.3945C39.9326 33.3945 44.2578 37.7197 44.2578 43.0508C44.2578 48.3818 39.9326 52.707 34.6016 52.707ZM34.6016 35.0039C30.1557 35.0039 26.5547 38.6049 26.5547 43.0508C26.5547 47.4967 30.1557 51.0977 34.6016 51.0977C39.0273 51.0977 42.6484 47.4967 42.6484 43.0508C42.6484 38.625 39.0475 35.0039 34.6016 35.0039Z" fill="#222222"/>
<path d="M31.3828 48.6835C31.242 48.6835 31.1012 48.6433 30.9805 48.583C30.7189 48.4421 30.5781 48.1806 30.5781 47.8789V38.2226C30.5781 37.941 30.7391 37.6593 30.9805 37.5185C31.242 37.3777 31.5437 37.3777 31.7852 37.5386L39.832 42.3668C40.0734 42.5076 40.2143 42.7691 40.2143 43.0507C40.2143 43.3324 40.0734 43.5939 39.832 43.7347L31.7852 48.5628C31.6645 48.6433 31.5236 48.6835 31.3828 48.6835ZM32.1875 39.6509V46.4707L37.8605 43.0709L32.1875 39.6509Z" fill="#222222"/>
<path d="M81.2734 36.6133H68.3984C67.9559 36.6133 67.5938 36.2512 67.5938 35.8086V26.1523C67.5938 25.7098 67.9559 25.3477 68.3984 25.3477H81.2734C81.716 25.3477 82.0781 25.7098 82.0781 26.1523V35.8086C82.0781 36.2512 81.716 36.6133 81.2734 36.6133ZM69.2031 35.0039H80.4688V26.957H69.2031V35.0039Z" fill="#222222"/>
<path d="M95.7383 28.5664H84.4727C84.0301 28.5664 83.668 28.2043 83.668 27.7617C83.668 27.3191 84.0301 26.957 84.4727 26.957H95.7383C96.1809 26.957 96.543 27.3191 96.543 27.7617C96.543 28.2043 96.201 28.5664 95.7383 28.5664Z" fill="#222222"/>
<path d="M95.7383 31.7852H84.4727C84.0301 31.7852 83.668 31.423 83.668 30.9805C83.668 30.5379 84.0301 30.1758 84.4727 30.1758H95.7383C96.1809 30.1758 96.543 30.5379 96.543 30.9805C96.543 31.423 96.201 31.7852 95.7383 31.7852Z" fill="#222222"/>
<path d="M90.9297 35.0039H84.4922C84.0496 35.0039 83.6875 34.6418 83.6875 34.1992C83.6875 33.7566 84.0496 33.3945 84.4922 33.3945H90.9297C91.3723 33.3945 91.7344 33.7566 91.7344 34.1992C91.7344 34.6418 91.3723 35.0039 90.9297 35.0039Z" fill="#222222"/>
<path d="M81.2734 51.0977H68.3984C67.9559 51.0977 67.5938 50.7355 67.5938 50.293V40.6367C67.5938 40.1941 67.9559 39.832 68.3984 39.832H81.2734C81.716 39.832 82.0781 40.1941 82.0781 40.6367V50.293C82.0781 50.7355 81.716 51.0977 81.2734 51.0977ZM69.2031 49.4883H80.4688V41.4414H69.2031V49.4883Z" fill="#222222"/>
<path d="M95.7383 43.0508H84.4727C84.0301 43.0508 83.668 42.6887 83.668 42.2461C83.668 41.8035 84.0301 41.4414 84.4727 41.4414H95.7383C96.1809 41.4414 96.543 41.8035 96.543 42.2461C96.543 42.6887 96.201 43.0508 95.7383 43.0508Z" fill="#222222"/>
<path d="M95.7383 46.2695H84.4727C84.0301 46.2695 83.668 45.9074 83.668 45.4648C83.668 45.0223 84.0301 44.6602 84.4727 44.6602H95.7383C96.1809 44.6602 96.543 45.0223 96.543 45.4648C96.543 45.9074 96.201 46.2695 95.7383 46.2695Z" fill="#222222"/>
<path d="M90.9297 49.4883H84.4922C84.0496 49.4883 83.6875 49.1262 83.6875 48.6836C83.6875 48.241 84.0496 47.8789 84.4922 47.8789H90.9297C91.3723 47.8789 91.7344 48.241 91.7344 48.6836C91.7344 49.1262 91.3723 49.4883 90.9297 49.4883Z" fill="#222222"/>
<path d="M81.2734 65.582H68.3984C67.9559 65.582 67.5938 65.2199 67.5938 64.7773V55.1211C67.5938 54.6785 67.9559 54.3164 68.3984 54.3164H81.2734C81.716 54.3164 82.0781 54.6785 82.0781 55.1211V64.7773C82.0781 65.2199 81.716 65.582 81.2734 65.582ZM69.2031 63.9727H80.4688V55.9258H69.2031V63.9727Z" fill="#222222"/>
<path d="M95.7383 57.5352H84.4727C84.0301 57.5352 83.668 57.173 83.668 56.7305C83.668 56.2879 84.0301 55.9258 84.4727 55.9258H95.7383C96.1809 55.9258 96.543 56.2879 96.543 56.7305C96.543 57.173 96.201 57.5352 95.7383 57.5352Z" fill="#222222"/>
<path d="M95.7383 60.7539H84.4727C84.0301 60.7539 83.668 60.3918 83.668 59.9492C83.668 59.5066 84.0301 59.1445 84.4727 59.1445H95.7383C96.1809 59.1445 96.543 59.5066 96.543 59.9492C96.543 60.3918 96.201 60.7539 95.7383 60.7539Z" fill="#222222"/>
<path d="M90.9297 63.9727H84.4922C84.0496 63.9727 83.6875 63.6105 83.6875 63.168C83.6875 62.7254 84.0496 62.3633 84.4922 62.3633H90.9297C91.3723 62.3633 91.7344 62.7254 91.7344 63.168C91.7344 63.6105 91.3723 63.9727 90.9297 63.9727Z" fill="#222222"/>
<path d="M81.2734 80.0664H68.3984C67.9559 80.0664 67.5938 79.7043 67.5938 79.2617V69.6055C67.5938 69.1629 67.9559 68.8008 68.3984 68.8008H81.2734C81.716 68.8008 82.0781 69.1629 82.0781 69.6055V79.2617C82.0781 79.7043 81.716 80.0664 81.2734 80.0664ZM69.2031 78.457H80.4688V70.4102H69.2031V78.457Z" fill="#222222"/>
<path d="M95.7383 72.0195H84.4727C84.0301 72.0195 83.668 71.6574 83.668 71.2148C83.668 70.7723 84.0301 70.4102 84.4727 70.4102H95.7383C96.1809 70.4102 96.543 70.7723 96.543 71.2148C96.543 71.6574 96.201 72.0195 95.7383 72.0195Z" fill="#222222"/>
<path d="M95.7383 75.2383H84.4727C84.0301 75.2383 83.668 74.8762 83.668 74.4336C83.668 73.991 84.0301 73.6289 84.4727 73.6289H95.7383C96.1809 73.6289 96.543 73.991 96.543 74.4336C96.543 74.8762 96.201 75.2383 95.7383 75.2383Z" fill="#222222"/>
<path d="M90.9297 78.457H84.4922C84.0496 78.457 83.6875 78.0949 83.6875 77.6523C83.6875 77.2098 84.0496 76.8477 84.4922 76.8477H90.9297C91.3723 76.8477 91.7344 77.2098 91.7344 77.6523C91.7344 78.0949 91.3723 78.457 90.9297 78.457Z" fill="#222222"/>
<path d="M63.5707 80.0664H5.65332C5.21074 80.0664 4.84863 79.7043 4.84863 79.2617V69.6055C4.84863 69.1629 5.21074 68.8008 5.65332 68.8008H63.5707C64.0133 68.8008 64.3754 69.1629 64.3754 69.6055V79.2617C64.3754 79.7043 64.0133 80.0664 63.5707 80.0664ZM6.45801 78.457H62.766V70.4102H6.45801V78.457Z" fill="#222222"/>
<path d="M60.3516 73.6289H15.2891C14.8465 73.6289 14.4844 73.2668 14.4844 72.8242C14.4844 72.3816 14.8465 72.0195 15.2891 72.0195H60.3516C60.7941 72.0195 61.1562 72.3816 61.1562 72.8242C61.1562 73.2668 60.7941 73.6289 60.3516 73.6289Z" fill="#222222"/>
<path d="M31.3828 76.8477H15.2891C14.8465 76.8477 14.4844 76.4855 14.4844 76.043C14.4844 75.6004 14.8465 75.2383 15.2891 75.2383H31.3828C31.8254 75.2383 32.1875 75.6004 32.1875 76.043C32.1875 76.4855 31.8254 76.8477 31.3828 76.8477Z" fill="#222222"/>
<path d="M12.0703 76.8477H8.85156C8.40898 76.8477 8.04688 76.4855 8.04688 76.043V72.8242C8.04688 72.3816 8.40898 72.0195 8.85156 72.0195H12.0703C12.5129 72.0195 12.875 72.3816 12.875 72.8242V76.043C12.875 76.4855 12.533 76.8477 12.0703 76.8477ZM9.67637 75.2383H11.2857V73.6289H9.67637V75.2383Z" fill="#222222"/>
</g>
<defs>
<clipPath id="clip0">
<rect width="103" height="103" fill="white"/>
</clipPath>
</defs>
</svg>
