<svg width="103" height="103" viewBox="0 0 103 103" fill="none" xmlns="http://www.w3.org/2000/svg">
<path d="M81.5974 91.9999H7.40859C3.29271 91.9999 0 88.698 0 84.5706V24.5172C0 21.3185 2.57243 18.842 5.65934 18.842H59.6803C60.2977 18.842 60.7093 19.358 60.7093 19.8739C60.7093 20.493 60.1948 20.9057 59.6803 20.9057H5.65934C3.7043 20.9057 2.05794 22.5567 2.05794 24.5172V84.6738C2.05794 87.563 4.42458 90.0394 7.40859 90.0394H81.5974C84.4785 90.0394 86.9481 87.6662 86.9481 84.6738V44.3286C86.9481 43.7095 87.4625 43.2968 87.977 43.2968C88.5944 43.2968 89.006 43.8127 89.006 44.3286V84.6738C88.9031 88.698 85.6104 91.9999 81.5974 91.9999Z" fill="#222222"/>
<path d="M11.9361 31.0181C12.959 31.0181 13.7883 30.1866 13.7883 29.1608C13.7883 28.135 12.959 27.3035 11.9361 27.3035C10.9132 27.3035 10.084 28.135 10.084 29.1608C10.084 30.1866 10.9132 31.0181 11.9361 31.0181Z" fill="#222222"/>
<path d="M21.1969 31.0181C22.2198 31.0181 23.049 30.1866 23.049 29.1608C23.049 28.135 22.2198 27.3035 21.1969 27.3035C20.174 27.3035 19.3447 28.135 19.3447 29.1608C19.3447 30.1866 20.174 31.0181 21.1969 31.0181Z" fill="#222222"/>
<path d="M30.5602 31.0181C31.5831 31.0181 32.4123 30.1866 32.4123 29.1608C32.4123 28.135 31.5831 27.3035 30.5602 27.3035C29.5372 27.3035 28.708 28.135 28.708 29.1608C28.708 30.1866 29.5372 31.0181 30.5602 31.0181Z" fill="#222222"/>
<path d="M59.6803 39.479H1.02897C0.411588 39.479 0 38.9631 0 38.4471C0 37.828 0.514486 37.4153 1.02897 37.4153H59.6803C60.2977 37.4153 60.7093 37.9312 60.7093 38.4471C60.7093 38.9631 60.1948 39.479 59.6803 39.479Z" fill="#222222"/>
<path d="M74.8057 37.4152C74.497 37.4152 74.2912 37.3121 74.0854 37.2089C73.6739 36.8993 73.4681 36.4866 73.571 35.9707L74.497 30.2955C74.497 30.0891 74.497 29.9859 74.3941 29.8828L70.2783 25.8586C69.9696 25.549 69.7638 25.0331 69.9696 24.6203C70.0725 24.2076 70.484 23.7949 70.9985 23.7949L76.6579 22.9694C76.8637 22.9694 76.9666 22.8662 77.0695 22.6598L79.6419 17.5006C79.8477 17.0879 80.2593 16.7783 80.7738 16.7783C81.2882 16.7783 81.6998 17.0879 81.9056 17.5006L84.478 22.6598C84.5809 22.763 84.6838 22.8662 84.8896 22.9694L90.549 23.7949C91.0635 23.8981 91.3722 24.2076 91.5779 24.6203C91.6808 25.0331 91.5779 25.549 91.2692 25.8586L87.1534 29.8828C87.0505 29.9859 86.9476 30.1923 87.0505 30.2955L87.9765 35.9707C88.0794 36.4866 87.8736 36.8993 87.4621 37.2089C87.0505 37.5184 86.536 37.5184 86.1244 37.3121L81.0824 34.6293C80.9795 34.5261 80.7738 34.5261 80.568 34.6293L75.526 37.3121C75.2173 37.3121 75.0115 37.4152 74.8057 37.4152ZM80.7738 32.4624C81.1853 32.4624 81.5969 32.5656 82.0085 32.7719L85.6099 34.6293L84.8896 30.6051C84.7867 29.7796 84.9925 28.9541 85.6099 28.335L88.491 25.4458L84.478 24.8267C83.6549 24.7235 82.9346 24.2076 82.523 23.3821L80.6709 19.6675L78.8187 23.3821C78.4071 24.1044 77.6868 24.7235 76.8637 24.8267L72.8507 25.4458L75.7318 28.335C76.3492 28.9541 76.6579 29.7796 76.4521 30.6051L75.7318 34.6293L79.3332 32.7719C79.9506 32.5656 80.3622 32.4624 80.7738 32.4624Z" fill="#222222"/>
<path d="M58.6514 54.028V19.8739C58.6514 15.0242 62.5615 11 67.5005 11H94.1509C98.987 11 103 14.921 103 19.8739V36.4866C103 41.3363 99.0899 45.3605 94.1509 45.3605H67.6034L58.6514 54.028ZM67.5005 13.1669C63.7962 13.1669 60.7093 16.1592 60.7093 19.9771V49.1783L66.7802 43.2968H94.048C97.7523 43.2968 100.839 40.2012 100.839 36.4866V19.8739C100.839 16.1592 97.8552 13.0637 94.048 13.0637H67.5005V13.1669Z" fill="#222222"/>
<path d="M77.0702 65.791H42.291V37.4153H59.6806C60.298 37.4153 60.7096 37.9312 60.7096 38.4471C60.7096 39.0662 60.1951 39.479 59.6806 39.479H44.349V63.7274H74.9094V44.3287C74.9094 43.7095 75.4239 43.2968 75.9384 43.2968C76.5558 43.2968 76.9673 43.8127 76.9673 44.3287V65.791H77.0702Z" fill="#222222"/>
</svg>
