<svg width="103" height="103" viewBox="0 0 103 103" fill="none" xmlns="http://www.w3.org/2000/svg">
<path d="M98.1333 73.6493C97.7511 73.6493 97.4091 73.3677 97.3488 72.9855L91.7562 41.3009C91.6757 40.8583 91.9775 40.4559 92.3999 40.3755C92.8425 40.2749 93.2449 40.5968 93.3253 41.0192L98.9179 72.7038C98.9984 73.1464 98.6966 73.5487 98.2742 73.6292C98.2339 73.6493 98.1937 73.6493 98.1333 73.6493Z" fill="#222222"/>
<path d="M98.9772 78.3971C98.595 78.3971 98.253 78.1154 98.1927 77.7332C97.4684 73.6293 81.7368 72.8648 72.0001 73.3678C71.5575 73.408 71.1753 73.0459 71.1551 72.6033C71.135 72.1607 71.477 71.7785 71.9196 71.7584C74.6354 71.6176 98.5749 70.6117 99.7618 77.4515C99.8423 77.8941 99.5405 78.2965 99.1181 78.3769C99.0778 78.3971 99.0175 78.3971 98.9772 78.3971Z" fill="#222222"/>
<path d="M68.0378 51.1785C67.6556 51.1785 67.3136 50.8969 67.2533 50.5146C67.1728 50.0721 67.4746 49.6697 67.897 49.5892C74.7369 48.3822 92.1785 43.6949 90.9111 36.5533C90.8306 36.1107 91.1324 35.7084 91.5548 35.6279C91.9974 35.5273 92.4199 35.8492 92.4802 36.2717C93.2447 40.6572 89.3017 44.4996 80.772 47.7183C74.6363 50.0318 68.2189 51.1785 68.1585 51.1785C68.1384 51.1785 68.0982 51.1785 68.0378 51.1785Z" fill="#222222"/>
<path d="M91.7156 37.2171C91.3333 37.2171 90.9913 36.9354 90.931 36.5532C90.8505 36.1106 91.1523 35.7083 91.5748 35.6278L94.7332 35.0645C95.1757 34.9841 95.5781 35.2858 95.6586 35.7083C95.739 36.1509 95.4373 36.5532 95.0148 36.6337L91.8564 37.197C91.8162 37.197 91.7558 37.2171 91.7156 37.2171Z" fill="#222222"/>
<path d="M102.157 77.8337C101.774 77.8337 101.432 77.5521 101.372 77.1698L94.1097 35.9899C94.0292 35.5474 94.331 35.145 94.7535 35.0645C95.196 34.9841 95.5984 35.2858 95.6789 35.7083L102.941 76.8882C103.022 77.3308 102.72 77.7331 102.297 77.8136C102.237 77.8337 102.197 77.8337 102.157 77.8337Z" fill="#222222"/>
<path d="M98.9783 78.3968C98.596 78.3968 98.254 78.1151 98.1937 77.7329C98.1132 77.2903 98.415 76.888 98.8374 76.8075L102.016 76.2442C102.459 76.1638 102.861 76.4655 102.941 76.888C103.022 77.3306 102.72 77.7329 102.298 77.8134L99.1191 78.3766C99.0788 78.3968 99.0185 78.3968 98.9783 78.3968Z" fill="#222222"/>
<path d="M56.1079 76.1638C55.7257 76.1638 55.3837 75.8821 55.3234 75.4999L51.4206 53.3106C51.3804 53.1095 51.4407 52.8882 51.5614 52.7071C51.6821 52.5261 51.8632 52.4054 52.0845 52.3852L67.9167 49.589C68.3392 49.5085 68.7616 49.8102 68.8421 50.2327C68.9226 50.6753 68.6208 51.0776 68.1984 51.1581L53.1507 53.8136L56.7919 74.4136L71.8396 71.7581C72.2821 71.6776 72.6845 71.9794 72.765 72.4018C72.8454 72.8444 72.5437 73.2468 72.1212 73.3272L56.289 76.1235C56.2085 76.1436 56.1683 76.1638 56.1079 76.1638Z" fill="#222222"/>
<path d="M56.1079 76.1639C56.0476 76.1639 56.0074 76.1639 55.947 76.1438L47.4777 74.3735C47.1558 74.3131 46.9144 74.0516 46.854 73.7297L44.0577 57.8774C43.9974 57.5555 44.1382 57.2336 44.4198 57.0525L51.7827 52.4859C52.004 52.3451 52.2857 52.325 52.5271 52.4457C52.7685 52.5463 52.9495 52.7676 52.9898 53.0492L56.8925 75.2184C56.9327 75.4799 56.8523 75.7414 56.6712 75.9426C56.5304 76.0834 56.3292 76.1639 56.1079 76.1639ZM48.3226 72.9049L55.1021 74.3131L51.6017 54.4775L45.7275 58.1389L48.3226 72.9049Z" fill="#222222"/>
<path d="M71.3976 70.1893C71.0154 70.1893 70.6734 69.9076 70.613 69.5254L67.8167 53.673C67.7363 53.2305 68.038 52.8281 68.4605 52.7476C68.9031 52.6672 69.3054 52.9689 69.3859 53.3914L72.1822 69.2437C72.2626 69.6863 71.9609 70.0887 71.5384 70.1691C71.4982 70.1893 71.4378 70.1893 71.3976 70.1893Z" fill="#222222"/>
<path d="M48.5642 61.1566C48.182 61.1566 47.84 60.875 47.7796 60.4928C47.6992 60.0502 48.0009 59.6478 48.4234 59.5674L50.0126 59.2857C50.4552 59.2053 50.8576 59.507 50.938 59.9295C51.0185 60.3721 50.7167 60.7744 50.2943 60.8549L48.705 61.1365C48.6648 61.1566 48.6044 61.1566 48.5642 61.1566Z" fill="#222222"/>
<path d="M50.2341 70.6516C49.8519 70.6516 49.5099 70.37 49.4496 69.9878C49.3691 69.5452 49.6708 69.1429 50.0933 69.0624L51.6826 68.7808C52.1251 68.6802 52.5275 69.002 52.6079 69.4245C52.6884 69.8671 52.3866 70.2694 51.9642 70.3499L50.3749 70.6315C50.3347 70.6516 50.2945 70.6516 50.2341 70.6516Z" fill="#222222"/>
<path d="M49.4089 65.9042C49.0267 65.9042 48.6847 65.6226 48.6244 65.2403C48.5439 64.7977 48.8456 64.3954 49.2681 64.3149L50.8574 64.0333C51.2999 63.9528 51.7023 64.2546 51.7828 64.677C51.8632 65.1196 51.5615 65.522 51.139 65.6024L49.5497 65.8841C49.4894 65.9042 49.4492 65.9042 49.4089 65.9042Z" fill="#222222"/>
<path d="M53.6541 52.9085C53.2718 52.9085 52.9298 52.6268 52.8695 52.2446C52.789 51.802 53.0908 51.3997 53.5132 51.3192L56.6917 50.7559C57.1142 50.6755 57.5367 50.9772 57.6171 51.3997C57.6976 51.8423 57.3959 52.2446 56.9734 52.3251L53.7949 52.8884C53.7345 52.9085 53.6943 52.9085 53.6541 52.9085Z" fill="#222222"/>
<path d="M76.1245 96.8446C75.8026 96.8446 75.4807 96.6434 75.36 96.3014L69.4255 79.6846C69.2846 79.2621 69.4858 78.7994 69.9083 78.6586C70.3307 78.5178 70.7934 78.719 70.9342 79.1414L76.8688 95.7582C77.0096 96.1807 76.8085 96.6434 76.386 96.7842C76.3055 96.8244 76.2049 96.8446 76.1245 96.8446Z" fill="#222222"/>
<path d="M68.1987 98.2327C67.8768 98.2327 67.5549 98.0316 67.4342 97.6896L61.4997 81.0728C61.3589 80.6503 61.56 80.1876 61.9825 80.0468C62.405 79.906 62.8676 80.1072 63.0085 80.5296L68.943 97.1464C69.104 97.5689 68.8827 98.0316 68.4602 98.1724C68.3797 98.2327 68.2993 98.2327 68.1987 98.2327Z" fill="#222222"/>
<path d="M66.6091 98.5144C66.2269 98.5144 65.8849 98.2327 65.8246 97.8505C65.7441 97.4079 66.0458 97.0056 66.4683 96.9251L77.5529 94.9737C77.9955 94.8933 78.3978 95.195 78.4783 95.6175C78.5587 96.06 78.257 96.4624 77.8345 96.5429L66.7499 98.4942C66.7097 98.5143 66.6695 98.5144 66.6091 98.5144Z" fill="#222222"/>
<path d="M58.5423 80.6302C58.1601 80.6302 57.8181 80.3485 57.7578 79.9663L57.4359 78.1759C57.3554 77.7333 57.6572 77.3309 58.0796 77.2505C58.5222 77.1499 58.9246 77.4718 59.005 77.8942L59.3269 79.6847C59.4074 80.1272 59.1056 80.5296 58.6832 80.6101C58.6228 80.6302 58.5826 80.6302 58.5423 80.6302Z" fill="#222222"/>
<path d="M58.5427 80.6299C58.1605 80.6299 57.8185 80.3483 57.7581 79.966C57.6777 79.5235 57.9794 79.1211 58.422 79.0406L72.6851 76.5662C73.1276 76.4858 73.53 76.7875 73.6105 77.2301C73.6909 77.6727 73.3892 78.075 72.9466 78.1555L58.6835 80.6299C58.6232 80.6299 58.5829 80.6299 58.5427 80.6299Z" fill="#222222"/>
<path d="M72.8058 78.1557C72.4236 78.1557 72.0816 77.874 72.0212 77.4918L71.7396 75.9025C71.6591 75.4599 71.9609 75.0576 72.3833 74.9771C72.8058 74.8967 73.2283 75.1984 73.3087 75.6209L73.5904 77.2101C73.6708 77.6527 73.3691 78.0551 72.9466 78.1355C72.9064 78.1557 72.846 78.1557 72.8058 78.1557Z" fill="#222222"/>
<path d="M4.08398 7.70508C3.64141 7.70508 3.2793 7.34297 3.2793 6.90039C3.2793 6.45781 3.62129 6.0957 4.08398 6.0957H4.1041C4.54668 6.0957 4.90879 6.45781 4.90879 6.90039C4.90879 7.34297 4.54668 7.70508 4.08398 7.70508Z" fill="#222222"/>
<path d="M7.30273 7.70508C6.86016 7.70508 6.49805 7.34297 6.49805 6.90039C6.49805 6.45781 6.84004 6.0957 7.30273 6.0957H7.32285C7.76543 6.0957 8.12754 6.45781 8.12754 6.90039C8.12754 7.34297 7.74531 7.70508 7.30273 7.70508Z" fill="#222222"/>
<path d="M10.5215 7.70508C10.0789 7.70508 9.7168 7.34297 9.7168 6.90039C9.7168 6.45781 10.0588 6.0957 10.5215 6.0957H10.5416C10.9842 6.0957 11.3463 6.45781 11.3463 6.90039C11.3463 7.34297 10.9641 7.70508 10.5215 7.70508Z" fill="#222222"/>
<path d="M102.176 9.31445H0.825195C0.382617 9.31445 0.0205078 8.95234 0.0205078 8.50977V6.90039C0.0205078 5.57266 1.10684 4.48633 2.43457 4.48633H100.566C101.894 4.48633 102.98 5.57266 102.98 6.90039V8.50977C102.98 8.95234 102.618 9.31445 102.176 9.31445ZM1.62988 7.70508H101.371V6.90039C101.371 6.45781 101.009 6.0957 100.566 6.0957H2.43457C1.99199 6.0957 1.62988 6.45781 1.62988 6.90039V7.70508Z" fill="#222222"/>
<path d="M102.176 60.7742C101.733 60.7742 101.371 60.4121 101.371 59.9695V8.50977C101.371 8.06719 101.733 7.70508 102.176 7.70508C102.618 7.70508 102.98 8.06719 102.98 8.50977V59.9897C102.98 60.4121 102.618 60.7742 102.176 60.7742Z" fill="#222222"/>
<path d="M0.825195 73.6492C0.382617 73.6492 0.0205078 73.2871 0.0205078 72.8445V8.50977C0.0205078 8.06719 0.382617 7.70508 0.825195 7.70508C1.26777 7.70508 1.62988 8.06719 1.62988 8.50977V72.8445C1.62988 73.2871 1.26777 73.6492 0.825195 73.6492Z" fill="#222222"/>
<path d="M44.2582 73.6494H0.825195C0.382617 73.6494 0.0205078 73.2873 0.0205078 72.8447C0.0205078 72.4021 0.382617 72.04 0.825195 72.04H44.2582C44.7008 72.04 45.0629 72.4021 45.0629 72.8447C45.0629 73.2873 44.7008 73.6494 44.2582 73.6494Z" fill="#222222"/>
<path d="M19.1728 52.7276C19.032 52.7276 18.8911 52.6874 18.7503 52.6069C18.3681 52.3856 18.2474 51.8827 18.4687 51.5005L24.2423 41.8442C24.3831 41.6028 24.6849 41.4016 24.9263 41.462C25.2079 41.462 25.4695 41.6028 25.6103 41.8442L31.4644 51.5005C31.6857 51.8827 31.565 52.3655 31.2029 52.6069C30.8206 52.8282 30.3378 52.7075 30.0964 52.3454L24.9263 43.8358L19.8367 52.3454C19.7159 52.6069 19.4544 52.7276 19.1728 52.7276Z" fill="#222222"/>
<path d="M14.2427 52.7275C14.0818 52.7275 13.941 52.6873 13.8001 52.5867C13.438 52.3453 13.3374 51.8424 13.5788 51.4803L17.8437 45.0428C17.9845 44.8215 18.246 44.6807 18.5076 44.6807C18.7691 44.6807 19.0306 44.8215 19.1714 45.0428L21.5452 48.6035C21.7867 48.9656 21.6861 49.4686 21.324 49.71C20.9619 49.9514 20.4589 49.8508 20.2175 49.4887L18.5277 46.9338L14.9267 52.3654C14.7658 52.6068 14.5042 52.7275 14.2427 52.7275Z" fill="#222222"/>
<path d="M95.7381 30.2163H7.2627C6.82012 30.2163 6.45801 29.8542 6.45801 29.4116V14.9272C6.45801 14.4847 6.82012 14.1226 7.2627 14.1226H95.7381C96.1807 14.1226 96.5428 14.4847 96.5428 14.9272V29.4116C96.5428 29.8542 96.1807 30.2163 95.7381 30.2163ZM8.06738 28.6069H94.9334V15.7319H8.06738V28.6069Z" fill="#222222"/>
<path d="M32.9926 52.7275H7.2627C6.82012 52.7275 6.45801 52.3654 6.45801 51.9229V35.8291C6.45801 35.3865 6.82012 35.0244 7.2627 35.0244H32.9926C33.4352 35.0244 33.7973 35.3865 33.7973 35.8291V51.9229C33.7973 52.3855 33.4553 52.7275 32.9926 52.7275ZM8.06738 51.1182H32.1879V36.6338H8.06738V51.1182Z" fill="#222222"/>
<path d="M11.9902 43.0913C10.6625 43.0913 9.57617 42.005 9.57617 40.6772C9.57617 39.3495 10.6625 38.2632 11.9902 38.2632C13.318 38.2632 14.4043 39.3495 14.4043 40.6772C14.4043 42.005 13.3381 43.0913 11.9902 43.0913ZM11.9902 39.8726C11.5477 39.8726 11.1855 40.2347 11.1855 40.6772C11.1855 41.1198 11.5477 41.4819 11.9902 41.4819C12.4328 41.4819 12.7949 41.1198 12.7949 40.6772C12.7949 40.2347 12.4529 39.8726 11.9902 39.8726Z" fill="#222222"/>
<path d="M86.8865 22.1694H16.1143C15.6717 22.1694 15.3096 21.8073 15.3096 21.3647C15.3096 20.9222 15.6717 20.5601 16.1143 20.5601H86.8865C87.3291 20.5601 87.6912 20.9222 87.6912 21.3647C87.6912 21.8073 87.3291 22.1694 86.8865 22.1694Z" fill="#222222"/>
<path d="M77.2303 25.3882H25.7705C25.3279 25.3882 24.9658 25.0261 24.9658 24.5835C24.9658 24.1409 25.3279 23.7788 25.7705 23.7788H77.2504C77.693 23.7788 78.0551 24.1409 78.0551 24.5835C78.0551 25.0261 77.693 25.3882 77.2303 25.3882Z" fill="#222222"/>
<path d="M32.9926 57.5557H7.2627C6.82012 57.5557 6.45801 57.1936 6.45801 56.751C6.45801 56.3084 6.82012 55.9463 7.2627 55.9463H32.9926C33.4352 55.9463 33.7973 56.3084 33.7973 56.751C33.7973 57.1936 33.4553 57.5557 32.9926 57.5557Z" fill="#222222"/>
<path d="M32.9926 62.3838H7.2627C6.82012 62.3838 6.45801 62.0217 6.45801 61.5791C6.45801 61.1365 6.82012 60.7744 7.2627 60.7744H32.9926C33.4352 60.7744 33.7973 61.1365 33.7973 61.5791C33.7973 62.0217 33.4553 62.3838 32.9926 62.3838Z" fill="#222222"/>
<path d="M20.1377 67.2119H7.2627C6.82012 67.2119 6.45801 66.8498 6.45801 66.4072C6.45801 65.9646 6.82012 65.6025 7.2627 65.6025H20.1377C20.5803 65.6025 20.9424 65.9646 20.9424 66.4072C20.9424 66.8498 20.5803 67.2119 20.1377 67.2119Z" fill="#222222"/>
<path d="M51.3398 52.7275C51.199 52.7275 51.0581 52.6873 50.9173 52.6068C50.5351 52.3855 50.4144 51.8826 50.6357 51.5004L56.4093 41.8441C56.5501 41.6027 56.8116 41.4619 57.0933 41.4619C57.3749 41.4619 57.6365 41.6027 57.7773 41.8441L63.2693 50.8969C63.5107 51.2791 63.3698 51.782 63.0077 52.0033C62.6255 52.2246 62.1427 52.1039 61.9013 51.7418L57.1335 43.8357L52.0439 52.3453C51.8829 52.6068 51.6214 52.7275 51.3398 52.7275Z" fill="#222222"/>
<path d="M46.4302 52.7275C46.2693 52.7275 46.1285 52.6873 45.9876 52.5867C45.6255 52.3453 45.5249 51.8424 45.7663 51.4803L50.0312 45.0428C50.172 44.8215 50.4335 44.6807 50.6951 44.6807C50.9566 44.6807 51.2181 44.8215 51.3589 45.0428L53.7328 48.6035C53.9742 48.9656 53.8736 49.4686 53.5115 49.71C53.1292 49.9514 52.6464 49.8508 52.405 49.4887L50.7152 46.9338L47.1142 52.3654C46.9331 52.6068 46.6917 52.7275 46.4302 52.7275Z" fill="#222222"/>
<path d="M54.598 52.7275H39.4297C38.9871 52.7275 38.625 52.3654 38.625 51.9229V35.8291C38.625 35.3865 38.9871 35.0244 39.4297 35.0244H65.1797C65.6223 35.0244 65.9844 35.3865 65.9844 35.8291V49.2674C65.9844 49.71 65.6223 50.0721 65.1797 50.0721C64.7371 50.0721 64.375 49.71 64.375 49.2674V36.6338H40.2344V51.1182H54.598C55.0406 51.1182 55.4027 51.4803 55.4027 51.9229C55.4027 52.3855 55.0406 52.7275 54.598 52.7275Z" fill="#222222"/>
<path d="M44.1777 43.0913C42.85 43.0913 41.7637 42.005 41.7637 40.6772C41.7637 39.3495 42.85 38.2632 44.1777 38.2632C45.5055 38.2632 46.5918 39.3495 46.5918 40.6772C46.5918 42.005 45.5055 43.0913 44.1777 43.0913ZM44.1777 39.8726C43.7352 39.8726 43.373 40.2347 43.373 40.6772C43.373 41.1198 43.7352 41.4819 44.1777 41.4819C44.6203 41.4819 44.9824 41.1198 44.9824 40.6772C44.9824 40.2347 44.6203 39.8726 44.1777 39.8726Z" fill="#222222"/>
<path d="M41.0391 57.5557H39.4297C38.9871 57.5557 38.625 57.1936 38.625 56.751C38.625 56.3084 38.9871 55.9463 39.4297 55.9463H41.0391C41.4816 55.9463 41.8438 56.3084 41.8438 56.751C41.8438 57.1936 41.4816 57.5557 41.0391 57.5557Z" fill="#222222"/>
<path d="M41.0391 62.3838H39.4297C38.9871 62.3838 38.625 62.0217 38.625 61.5791C38.625 61.1365 38.9871 60.7744 39.4297 60.7744H41.0391C41.4816 60.7744 41.8438 61.1365 41.8438 61.5791C41.8438 62.0217 41.4816 62.3838 41.0391 62.3838Z" fill="#222222"/>
<path d="M42.6484 67.2119H39.4297C38.9871 67.2119 38.625 66.8498 38.625 66.4072C38.625 65.9646 38.9871 65.6025 39.4297 65.6025H42.6484C43.091 65.6025 43.4531 65.9646 43.4531 66.4072C43.4531 66.8498 43.091 67.2119 42.6484 67.2119Z" fill="#222222"/>
<path d="M71.6172 48.8247C71.1746 48.8247 70.8125 48.4626 70.8125 48.02V35.8491C70.8125 35.4065 71.1746 35.0444 71.6172 35.0444H90.0647C90.5072 35.0444 90.8693 35.4065 90.8693 35.8491C90.8693 36.2917 90.5072 36.6538 90.0647 36.6538H72.4219V48.02C72.4219 48.4626 72.0598 48.8247 71.6172 48.8247Z" fill="#222222"/>
<path d="M76.3447 43.0913C75.017 43.0913 73.9307 42.005 73.9307 40.6772C73.9307 39.3495 75.017 38.2632 76.3447 38.2632C77.6725 38.2632 78.7588 39.3495 78.7588 40.6772C78.7588 42.005 77.6725 43.0913 76.3447 43.0913ZM76.3447 39.8726C75.9021 39.8726 75.54 40.2347 75.54 40.6772C75.54 41.1198 75.9021 41.4819 76.3447 41.4819C76.7873 41.4819 77.1494 41.1198 77.1494 40.6772C77.1494 40.2347 76.7873 39.8726 76.3447 39.8726Z" fill="#222222"/>
</svg>
