<svg width="49" height="49" viewBox="0 0 49 49" fill="none" xmlns="http://www.w3.org/2000/svg">
<g clip-path="url(#clip0)">
<rect width="49" height="49" rx="24.5" transform="matrix(1 -8.74228e-08 -8.74228e-08 -1 0 49)" fill="#9F6AD3"/>
<path fill-rule="evenodd" clip-rule="evenodd" d="M13.8873 24.6692C13.716 24.8594 13.716 25.1483 13.8873 25.3386L18.205 30.1314C18.3899 30.3365 18.706 30.353 18.9112 30.1682C19.1164 29.9833 19.1328 29.6672 18.948 29.462L15.3826 25.5044H33.6865C33.9627 25.5044 34.1865 25.2805 34.1865 25.0044C34.1865 24.7282 33.9627 24.5044 33.6865 24.5044H15.3818L18.948 20.5456C19.1328 20.3404 19.1164 20.0243 18.9112 19.8395C18.706 19.6546 18.3899 19.6711 18.205 19.8763L13.8873 24.6692Z" fill="white"/>
</g>
<defs>
<clipPath id="clip0">
<rect width="49" height="49" fill="white" transform="matrix(-1 0 0 1 49 0)"/>
</clipPath>
</defs>
</svg>
