<svg width="61" height="61" viewBox="0 0 61 61" fill="none" xmlns="http://www.w3.org/2000/svg">
<mask id="path-1-outside-1" maskUnits="userSpaceOnUse" x="3.04248" y="2.31177" width="55" height="55" fill="black">
<rect fill="white" x="3.04248" y="2.31177" width="55" height="55"/>
<path d="M10.0728 49.9584C10.5304 48.1977 9.6276 46.4789 8.39581 44.6623C4.85252 39.4402 3.57926 33.5688 4.18893 27.2814C4.75851 21.403 7.15711 16.3554 11.0267 11.9739C11.2797 11.6863 11.3778 11.2562 11.5368 10.8876C11.6101 10.7186 11.6308 10.5245 11.7193 10.3668C12.4631 9.05612 13.2124 7.7478 13.9672 6.44181C14.2119 6.01594 14.4759 6.01175 14.7386 6.42505C14.8879 6.65963 15.0317 6.89839 15.1672 7.14135C15.6248 7.95817 15.622 7.95817 16.3852 7.46528C18.8225 5.86213 21.5204 4.70509 24.3551 4.04718C31.2551 2.48753 37.8509 3.37277 43.9352 7.0464C50.5973 11.0691 54.865 16.9754 56.401 24.6801C58.0019 32.7059 56.3097 40.0588 51.2858 46.5417C50.3955 47.6894 49.3503 48.7255 48.3397 49.7657C47.925 50.1846 47.6651 50.5937 47.7162 51.2165C47.7674 51.8629 47.6969 52.5206 47.7356 53.1713C47.7729 53.7982 47.5545 54.0523 46.9061 54.0342C45.5937 53.9997 44.2808 53.9997 42.9674 54.0342C42.5114 54.0388 42.061 54.1362 41.643 54.3204C37.7085 56.1956 33.5555 56.9733 29.2339 56.7918C25.963 56.6522 22.8275 55.8577 19.8137 54.5424C19.12 54.247 18.3778 54.0845 17.6252 54.0635C15.369 53.9979 13.1101 54.016 10.8511 54.0411C10.2359 54.0481 10.0368 53.8177 10.0576 53.2229C10.0963 52.286 10.0728 51.3547 10.0728 49.9584ZM29.7164 43.3219H41.1909C43.7015 43.3219 46.2121 43.3219 48.7227 43.3219C49.4761 43.3219 50.2089 43.213 50.7038 42.5455C51.1462 41.9479 51.2913 41.2889 50.9803 40.5796C50.5932 39.7041 49.8743 39.3885 48.9743 39.3788C47.9471 39.3676 47.9457 39.3564 47.9457 38.3413C47.9457 32.7352 47.9582 27.1292 47.9457 21.5231C47.9457 19.5753 48.3176 19.8615 46.2066 19.821C45.6895 19.8112 45.5153 20.0235 45.5319 20.5261C45.554 21.5719 45.5167 22.6206 45.5444 23.6664C45.561 24.2458 45.3342 24.4301 44.7702 24.4301C37.0089 24.4162 29.2468 24.4162 21.4837 24.4301C20.8547 24.4301 20.6874 24.1802 20.704 23.6007C20.7317 22.5535 20.704 21.5063 20.7137 20.4605C20.7137 20.0207 20.5616 19.821 20.1095 19.835C19.4653 19.8545 18.8197 19.835 18.1741 19.835C17.2354 19.828 17.2271 19.8461 17.2285 20.8124C17.2368 24.7443 17.2391 28.6758 17.2354 32.6068C17.2354 33.654 16.7971 34.0743 15.7492 34.0813C14.8976 34.0813 14.046 34.0743 13.193 34.0715C11.9225 34.0715 11.5465 33.6987 11.5437 32.4113C11.5437 29.5503 11.5437 26.6865 11.5437 23.8283C11.5437 22.7113 11.5603 21.5943 11.523 20.4773C11.5147 20.2622 11.3253 19.9187 11.1525 19.8657C10.1847 19.5864 9.85847 19.8531 9.85847 20.857C9.85847 27.9753 9.85847 35.0964 9.85847 42.2202C9.85847 43.3372 9.85847 43.3372 10.9368 43.3372L29.7164 43.3219ZM47.7301 49.2952C48.0812 49.0006 48.2651 48.8679 48.4213 48.7101C53.0581 44.1024 55.7125 38.4949 56.1632 31.9631C56.6678 24.7708 54.554 18.3465 49.8038 12.9248C44.5504 6.94168 37.8896 4.01088 29.9901 4.0765C25.1832 4.1156 20.7524 5.56355 16.6769 8.14528C16.1418 8.48457 16.0257 8.7722 16.3921 9.29302C16.9133 10.0386 17.2865 10.801 17.2478 11.7952C17.1635 13.979 17.2202 16.1683 17.1994 18.3577C17.1994 18.8771 17.3377 19.1284 17.9114 19.0907C18.602 19.05 19.2942 19.0462 19.9851 19.0796C20.4787 19.1019 20.7303 18.9525 20.6874 18.4177C20.6542 17.9919 20.845 17.7196 21.2929 17.8006C22.157 17.9667 22.2607 17.4417 22.3326 16.7743C23.0598 10.4422 29.097 6.05085 35.2878 7.33962C39.8859 8.29607 43.4444 12.1624 43.9545 16.8581C44.0347 17.5995 44.2186 17.8899 44.9679 17.8355C45.1379 17.8229 45.496 18.1706 45.4918 18.3451C45.4739 19.0084 45.7918 19.141 46.3462 19.0893C46.6682 19.0613 46.992 19.0613 47.3139 19.0893C47.8061 19.1312 47.9568 18.9106 47.9471 18.4373C47.9236 17.344 47.9374 16.2493 47.9471 15.156C47.9471 14.3964 48.1255 14.2456 48.8499 14.3532C50.6969 14.6324 51.8747 15.991 51.8761 17.9109C51.8863 25.6128 51.8913 33.3152 51.8913 41.018C51.8913 42.9393 50.7853 44.0898 48.8499 44.0898C35.9467 44.0898 23.0436 44.0898 10.1405 44.0898C9.18797 44.0898 9.12161 44.02 9.12161 43.0566C9.12161 35.6572 9.12161 28.2569 9.12161 20.8557C9.12161 18.9246 8.87829 19.0405 10.8234 19.0977C11.3764 19.1117 11.5479 18.8995 11.5423 18.3731C11.5244 16.7673 11.5423 15.1616 11.534 13.5573C11.534 13.3367 11.4898 13.116 11.4483 12.7404C11.1566 13.0197 10.9617 13.1733 10.8055 13.3618C7.10319 17.8564 5.0668 23.0366 4.7834 28.8605C4.5069 34.616 6.0608 39.8912 9.23221 44.686C9.66769 45.3423 10.0617 45.6216 10.9064 45.5936C13.6921 45.5001 16.4805 45.5587 19.269 45.5573C28.4855 45.5573 37.702 45.5527 46.9186 45.5434C47.549 45.5434 47.7867 45.7332 47.748 46.3811C47.6969 47.2747 47.7301 48.1754 47.7301 49.2952ZM25.6312 46.3937C25.6371 46.6014 25.6218 46.8091 25.5855 47.0136C25.5427 47.1714 25.4362 47.406 25.3173 47.4325C24.8017 47.5568 24.8321 47.1533 24.8349 46.8293C24.8349 46.039 24.2501 46.2848 23.8409 46.2485C23.4316 46.2122 23.0445 46.2694 23.0888 46.8628C23.1282 47.2565 23.1282 47.6532 23.0888 48.0469C23.0639 48.2312 22.8731 48.3946 22.757 48.5677C22.6326 48.4043 22.4266 48.2521 22.4003 48.0748C22.3517 47.6819 22.3466 47.2848 22.3851 46.8908C22.4307 46.3323 22.1169 46.1926 21.6648 46.2499C21.2501 46.3029 20.6252 45.9776 20.6114 46.8391C20.6114 47.0458 20.3764 47.2482 20.2492 47.4535C20.1289 47.2398 19.9077 47.0346 19.9077 46.8154C19.9077 46.0544 19.3672 46.2764 18.9773 46.2485C18.546 46.2192 18.1174 46.2219 18.1561 46.8684C18.1882 47.2628 18.1822 47.6593 18.1381 48.0525C18.1133 48.2312 17.9142 48.3862 17.7953 48.551C17.693 48.3932 17.5188 48.2424 17.5022 48.0748C17.4566 47.6559 17.5022 47.237 17.4649 46.8182C17.4469 46.6366 17.3266 46.3295 17.2216 46.3169C16.793 46.2499 16.3562 46.258 15.9303 46.3406C15.7921 46.3714 15.7769 46.8098 15.6538 47.0388C15.5521 47.1908 15.4318 47.3292 15.2958 47.4507C15.1769 47.3306 14.9405 47.1938 14.9543 47.0918C15.0856 46.1242 14.4234 46.2792 13.8594 46.2541C13.3644 46.2261 13.1985 46.437 13.2483 46.9173C13.2988 47.2626 13.2988 47.6136 13.2483 47.9589C13.2055 48.1823 12.9898 48.3778 12.8515 48.5733C12.7409 48.3764 12.5667 48.1907 12.5322 47.9813C12.4863 47.6571 12.4863 47.328 12.5322 47.0039C12.622 46.2638 12.1727 46.2359 11.635 46.2359C11.0972 46.2359 10.7695 46.2764 10.7875 46.9718C10.8317 48.7381 10.8027 50.5072 10.8013 52.2776C10.8013 53.2788 10.8013 53.2788 11.8257 53.2788H38.7108C41.2449 53.2788 43.7789 53.2676 46.3144 53.2885C46.8273 53.2885 46.9932 53.128 46.9849 52.6086C46.9573 50.7012 46.9766 48.7939 46.9559 46.8838C46.9559 46.6911 46.8259 46.3518 46.714 46.3253C46.3114 46.2461 45.8972 46.2494 45.496 46.3351C45.3646 46.3672 45.3577 46.8126 45.2485 47.0513C45.1633 47.1948 45.0596 47.3263 44.9402 47.4423C44.8181 47.3318 44.7082 47.2082 44.6126 47.0737C44.5614 46.9843 44.5974 46.8461 44.5863 46.7302C44.5172 46.0069 43.9559 46.2834 43.5729 46.2457C43.19 46.208 42.7988 46.1968 42.8043 46.7665C42.8228 47.1855 42.8136 47.6054 42.7767 48.0232C42.7532 48.2089 42.5679 48.375 42.4559 48.5496C42.3412 48.382 42.149 48.2228 42.1269 48.0427C42.0757 47.6238 42.1269 47.2049 42.0909 46.786C42.073 46.6087 41.9389 46.3155 41.8269 46.3001C41.4214 46.2304 41.0065 46.237 40.6034 46.3197C40.4651 46.3532 40.4651 46.7874 40.3476 47.0178C40.2449 47.1719 40.1237 47.3126 39.9868 47.4367C39.8748 47.3138 39.655 47.1798 39.6675 47.0709C39.7808 46.0544 39.0854 46.2401 38.502 46.2331C38.0762 46.2247 37.8592 46.3727 37.8924 46.8461C37.93 47.2397 37.9253 47.6362 37.8785 48.0287C37.8523 48.2145 37.6518 48.3736 37.5315 48.544C37.4099 48.3806 37.2094 48.2284 37.1831 48.0497C37.134 47.6574 37.1257 47.2611 37.1583 46.867C37.2011 46.201 36.7518 46.2429 36.3288 46.2596C35.9057 46.2764 35.4039 46.0991 35.4067 46.8447C35.4067 47.0485 35.1744 47.2538 35.0486 47.4591C34.9242 47.2482 34.6919 47.0402 34.6933 46.8279C34.7002 46.0139 34.1182 46.2764 33.7145 46.2387C33.2638 46.1982 32.8726 46.2583 32.9237 46.8866C32.9604 47.2582 32.9567 47.6328 32.9127 48.0036C32.8878 48.1949 32.7164 48.3652 32.6113 48.5454C32.4938 48.3778 32.3071 48.2214 32.274 48.0385C32.2357 47.7142 32.2288 47.3868 32.2532 47.0611C32.2615 46.6143 32.2532 46.1801 31.6283 46.2387C31.1362 46.2834 30.438 45.972 30.4546 46.9369C30.4546 47.1016 30.2348 47.2692 30.1173 47.4367C30.0067 47.2636 29.8878 47.0932 29.7855 46.9145C29.6611 46.6995 29.5975 46.3392 29.4261 46.2792C28.4293 45.9301 27.98 46.2792 27.9772 47.3334C27.9913 47.4259 27.9913 47.5201 27.9772 47.6126C27.8735 47.9268 27.7546 48.234 27.6399 48.544C27.5321 48.227 27.3371 47.9128 27.3288 47.5931C27.2901 46.134 27.2376 46.0739 25.7694 46.3113C25.721 46.3347 25.6748 46.3622 25.6312 46.3937ZM33.1809 18.5518C29.5201 18.5518 25.8537 18.5657 22.1971 18.5392C21.5874 18.5392 21.3814 18.7319 21.3953 19.3281C21.4201 20.3502 21.3953 21.3737 21.3953 22.3999C21.3953 23.7515 21.3953 23.7362 22.7321 23.6803C23.1469 23.6622 23.3141 23.503 23.3072 23.0967C23.3072 22.6094 23.2865 22.1193 23.3266 21.6334C23.3404 21.4658 23.5063 21.3122 23.6031 21.1517C23.7275 21.3094 23.9418 21.4588 23.9584 21.6292C23.9968 22.1402 24.006 22.653 23.986 23.1651C23.9791 23.6217 24.2528 23.7236 24.6164 23.6678C24.98 23.6119 25.5358 23.947 25.6436 23.2042C25.6934 22.8635 25.4238 22.3245 26.0224 22.2743C26.1136 22.2659 26.3141 22.8523 26.3583 23.1777C26.4634 23.9666 27.0496 23.5854 27.4339 23.6594C27.8182 23.7334 28.0477 23.5826 28.0311 23.1344C28.0051 22.5998 28.0102 22.0641 28.0464 21.5301C28.0588 21.3793 28.2662 21.2424 28.3851 21.1C28.5109 21.2396 28.7238 21.3625 28.7473 21.5189C28.7829 21.8902 28.788 22.2638 28.7625 22.6359C28.7348 23.7292 28.7321 23.6915 29.7979 23.6943C30.5293 23.6943 30.3509 23.207 30.4132 22.7951C30.4436 22.6052 30.615 22.439 30.7228 22.2617C30.8666 22.4313 30.9982 22.6109 31.1168 22.7993C31.149 22.9115 31.1528 23.0301 31.1279 23.1442C31.0837 23.866 31.6187 23.6538 31.9906 23.6775C32.3846 23.7027 32.8021 23.7529 32.7565 23.119C32.7196 22.6318 32.7242 22.1422 32.7703 21.6557C32.7882 21.4784 32.997 21.322 33.12 21.1559C33.2431 21.3178 33.4449 21.4658 33.4726 21.6418C33.5062 22.0131 33.5127 22.3865 33.4919 22.7588C33.4919 23.6985 33.5002 23.6412 34.3919 23.7069C35.1855 23.7655 35.1592 23.295 35.1882 22.756C35.1965 22.5926 35.3721 22.4376 35.4647 22.2799C35.5993 22.4285 35.7214 22.5883 35.8297 22.7574C35.8647 22.8686 35.869 22.9874 35.8421 23.1009C35.7813 23.7166 36.1864 23.7027 36.6011 23.6803C37.0159 23.658 37.5301 23.8353 37.5066 23.0995C37.4884 22.6113 37.5027 22.1224 37.5495 21.6362C37.5661 21.47 37.743 21.322 37.8467 21.1642C37.9739 21.322 38.1937 21.4686 38.2117 21.6376C38.254 22.1484 38.2665 22.6612 38.249 23.1735C38.249 23.8186 38.7066 23.6859 39.0785 23.6887C39.4504 23.6915 39.8886 23.8046 39.908 23.1665C39.9204 22.844 39.684 22.3385 40.2522 22.2896C40.3324 22.2896 40.5287 22.8733 40.5592 23.1972C40.6269 23.8954 41.1287 23.6622 41.4965 23.6859C41.8642 23.7097 42.2762 23.7865 42.2637 23.186C42.2419 22.6741 42.2493 22.1613 42.2859 21.6501C42.3025 21.477 42.5112 21.3234 42.6315 21.1614C42.7573 21.322 42.973 21.4742 42.9923 21.6473C43.0367 22.1115 43.0409 22.5787 43.0048 23.0436C42.9757 23.5086 43.1098 23.7585 43.6144 23.6957C43.7751 23.6755 43.9376 23.6755 44.0983 23.6957C44.6748 23.7711 44.8697 23.517 44.8559 22.9445C44.8264 21.7344 44.8264 20.5243 44.8559 19.3142C44.8697 18.7389 44.6706 18.556 44.0969 18.5602C40.4582 18.563 36.8196 18.5518 33.1809 18.5518ZM24.7201 17.7754C24.9728 17.758 25.2264 17.758 25.4791 17.7754C26.2367 17.8816 26.5146 17.5897 26.6805 16.798C27.1892 14.3671 28.6533 12.6706 30.9869 11.8468C31.8933 11.5256 32.8587 11.4102 33.8144 11.509C34.77 11.6077 35.6923 11.9182 36.5155 12.4183C37.3387 12.9183 38.0425 13.5956 38.5768 14.4019C39.1111 15.2082 39.4628 16.1236 39.6066 17.0829C39.6868 17.6051 39.8831 17.809 40.4085 17.781C41.0748 17.7461 41.7439 17.7671 42.4117 17.7559C43.2495 17.7433 43.2895 17.6945 43.1817 16.8776C42.4449 11.2436 37.5868 7.38291 31.9836 7.97074C27.698 8.42314 24.0648 11.7072 23.2492 15.9296C22.8151 18.179 22.8012 17.7224 24.7201 17.7754ZM51.1088 39.1107V22.5563C51.1088 20.9297 51.1282 19.3016 51.0992 17.6693C51.0757 16.3038 49.9683 15.156 48.7407 15.23C48.7296 15.4939 48.7061 15.7648 48.7061 16.0371C48.7061 21.4547 48.7061 26.8718 48.7061 32.2884C48.7061 34.1483 48.6964 36.0081 48.7185 37.8736C48.7185 38.1095 48.8319 38.5005 48.984 38.555C49.6434 38.7867 50.3374 38.9194 51.1088 39.1107ZM27.3302 17.7475C27.5929 17.7713 27.792 17.8048 27.991 17.8048C31.3975 17.8048 34.8025 17.7936 38.2076 17.8187C38.8905 17.8187 38.9596 17.5576 38.8394 16.9726C37.985 12.8298 33.1242 10.8834 29.7344 13.3618C28.2924 14.409 27.4616 15.8486 27.3358 17.7419L27.3302 17.7475ZM16.5386 20.1338H16.5275C16.5275 17.6693 16.5372 15.2063 16.5275 12.7432C16.5192 11.2073 16.5027 11.238 14.9902 11.2073C14.2852 11.192 14.1013 11.4307 14.1041 12.1275C14.1331 17.2407 14.1124 22.3539 14.1234 27.4657C14.1234 29.1594 13.8552 28.9527 15.6358 28.9653C16.5372 28.9723 16.5414 28.9653 16.5414 28.0158C16.5404 25.3824 16.5395 22.7551 16.5386 20.1338ZM40.0131 54.097H21.1395C23.9266 56.5768 35.9984 56.6075 40.0131 54.09V54.097ZM12.2156 20.1198H12.2239C12.2239 22.8146 12.2363 25.5109 12.2142 28.2057C12.2142 28.7838 12.3926 29.0267 12.9718 28.9485C13.511 28.8773 13.3727 28.4612 13.3741 28.1429C13.3824 24.3105 13.3824 20.4773 13.3741 16.6431C13.3741 15.0639 13.3644 13.4833 13.381 11.9041C13.381 11.4503 13.2677 11.2059 12.7672 11.2143C12.2225 11.2213 12.2142 11.5676 12.2142 11.9655C12.217 14.6845 12.2174 17.4026 12.2156 20.1198ZM14.4179 29.7207C13.8884 29.7207 13.3589 29.736 12.8308 29.7207C12.4161 29.7039 12.2474 29.8924 12.2515 30.2973C12.2598 31.0401 12.2515 31.783 12.2515 32.5314C12.2515 33.0801 12.5184 33.3245 13.0686 33.3105C13.8981 33.291 14.7276 33.2854 15.557 33.3105C16.1944 33.3287 16.4985 33.0564 16.493 32.4099C16.493 31.7369 16.4805 31.0625 16.5068 30.3895C16.5262 29.8617 16.2828 29.6913 15.7948 29.7249C15.3386 29.7402 14.8769 29.7193 14.4179 29.7207ZM14.3667 7.29912L12.5529 10.4142H16.1584L14.3667 7.29912Z"/>
</mask>
<path d="M10.0728 49.9584C10.5304 48.1977 9.6276 46.4789 8.39581 44.6623C4.85252 39.4402 3.57926 33.5688 4.18893 27.2814C4.75851 21.403 7.15711 16.3554 11.0267 11.9739C11.2797 11.6863 11.3778 11.2562 11.5368 10.8876C11.6101 10.7186 11.6308 10.5245 11.7193 10.3668C12.4631 9.05612 13.2124 7.7478 13.9672 6.44181C14.2119 6.01594 14.4759 6.01175 14.7386 6.42505C14.8879 6.65963 15.0317 6.89839 15.1672 7.14135C15.6248 7.95817 15.622 7.95817 16.3852 7.46528C18.8225 5.86213 21.5204 4.70509 24.3551 4.04718C31.2551 2.48753 37.8509 3.37277 43.9352 7.0464C50.5973 11.0691 54.865 16.9754 56.401 24.6801C58.0019 32.7059 56.3097 40.0588 51.2858 46.5417C50.3955 47.6894 49.3503 48.7255 48.3397 49.7657C47.925 50.1846 47.6651 50.5937 47.7162 51.2165C47.7674 51.8629 47.6969 52.5206 47.7356 53.1713C47.7729 53.7982 47.5545 54.0523 46.9061 54.0342C45.5937 53.9997 44.2808 53.9997 42.9674 54.0342C42.5114 54.0388 42.061 54.1362 41.643 54.3204C37.7085 56.1956 33.5555 56.9733 29.2339 56.7918C25.963 56.6522 22.8275 55.8577 19.8137 54.5424C19.12 54.247 18.3778 54.0845 17.6252 54.0635C15.369 53.9979 13.1101 54.016 10.8511 54.0411C10.2359 54.0481 10.0368 53.8177 10.0576 53.2229C10.0963 52.286 10.0728 51.3547 10.0728 49.9584ZM29.7164 43.3219H41.1909C43.7015 43.3219 46.2121 43.3219 48.7227 43.3219C49.4761 43.3219 50.2089 43.213 50.7038 42.5455C51.1462 41.9479 51.2913 41.2889 50.9803 40.5796C50.5932 39.7041 49.8743 39.3885 48.9743 39.3788C47.9471 39.3676 47.9457 39.3564 47.9457 38.3413C47.9457 32.7352 47.9582 27.1292 47.9457 21.5231C47.9457 19.5753 48.3176 19.8615 46.2066 19.821C45.6895 19.8112 45.5153 20.0235 45.5319 20.5261C45.554 21.5719 45.5167 22.6206 45.5444 23.6664C45.561 24.2458 45.3342 24.4301 44.7702 24.4301C37.0089 24.4162 29.2468 24.4162 21.4837 24.4301C20.8547 24.4301 20.6874 24.1802 20.704 23.6007C20.7317 22.5535 20.704 21.5063 20.7137 20.4605C20.7137 20.0207 20.5616 19.821 20.1095 19.835C19.4653 19.8545 18.8197 19.835 18.1741 19.835C17.2354 19.828 17.2271 19.8461 17.2285 20.8124C17.2368 24.7443 17.2391 28.6758 17.2354 32.6068C17.2354 33.654 16.7971 34.0743 15.7492 34.0813C14.8976 34.0813 14.046 34.0743 13.193 34.0715C11.9225 34.0715 11.5465 33.6987 11.5437 32.4113C11.5437 29.5503 11.5437 26.6865 11.5437 23.8283C11.5437 22.7113 11.5603 21.5943 11.523 20.4773C11.5147 20.2622 11.3253 19.9187 11.1525 19.8657C10.1847 19.5864 9.85847 19.8531 9.85847 20.857C9.85847 27.9753 9.85847 35.0964 9.85847 42.2202C9.85847 43.3372 9.85847 43.3372 10.9368 43.3372L29.7164 43.3219ZM47.7301 49.2952C48.0812 49.0006 48.2651 48.8679 48.4213 48.7101C53.0581 44.1024 55.7125 38.4949 56.1632 31.9631C56.6678 24.7708 54.554 18.3465 49.8038 12.9248C44.5504 6.94168 37.8896 4.01088 29.9901 4.0765C25.1832 4.1156 20.7524 5.56355 16.6769 8.14528C16.1418 8.48457 16.0257 8.7722 16.3921 9.29302C16.9133 10.0386 17.2865 10.801 17.2478 11.7952C17.1635 13.979 17.2202 16.1683 17.1994 18.3577C17.1994 18.8771 17.3377 19.1284 17.9114 19.0907C18.602 19.05 19.2942 19.0462 19.9851 19.0796C20.4787 19.1019 20.7303 18.9525 20.6874 18.4177C20.6542 17.9919 20.845 17.7196 21.2929 17.8006C22.157 17.9667 22.2607 17.4417 22.3326 16.7743C23.0598 10.4422 29.097 6.05085 35.2878 7.33962C39.8859 8.29607 43.4444 12.1624 43.9545 16.8581C44.0347 17.5995 44.2186 17.8899 44.9679 17.8355C45.1379 17.8229 45.496 18.1706 45.4918 18.3451C45.4739 19.0084 45.7918 19.141 46.3462 19.0893C46.6682 19.0613 46.992 19.0613 47.3139 19.0893C47.8061 19.1312 47.9568 18.9106 47.9471 18.4373C47.9236 17.344 47.9374 16.2493 47.9471 15.156C47.9471 14.3964 48.1255 14.2456 48.8499 14.3532C50.6969 14.6324 51.8747 15.991 51.8761 17.9109C51.8863 25.6128 51.8913 33.3152 51.8913 41.018C51.8913 42.9393 50.7853 44.0898 48.8499 44.0898C35.9467 44.0898 23.0436 44.0898 10.1405 44.0898C9.18797 44.0898 9.12161 44.02 9.12161 43.0566C9.12161 35.6572 9.12161 28.2569 9.12161 20.8557C9.12161 18.9246 8.87829 19.0405 10.8234 19.0977C11.3764 19.1117 11.5479 18.8995 11.5423 18.3731C11.5244 16.7673 11.5423 15.1616 11.534 13.5573C11.534 13.3367 11.4898 13.116 11.4483 12.7404C11.1566 13.0197 10.9617 13.1733 10.8055 13.3618C7.10319 17.8564 5.0668 23.0366 4.7834 28.8605C4.5069 34.616 6.0608 39.8912 9.23221 44.686C9.66769 45.3423 10.0617 45.6216 10.9064 45.5936C13.6921 45.5001 16.4805 45.5587 19.269 45.5573C28.4855 45.5573 37.702 45.5527 46.9186 45.5434C47.549 45.5434 47.7867 45.7332 47.748 46.3811C47.6969 47.2747 47.7301 48.1754 47.7301 49.2952ZM25.6312 46.3937C25.6371 46.6014 25.6218 46.8091 25.5855 47.0136C25.5427 47.1714 25.4362 47.406 25.3173 47.4325C24.8017 47.5568 24.8321 47.1533 24.8349 46.8293C24.8349 46.039 24.2501 46.2848 23.8409 46.2485C23.4316 46.2122 23.0445 46.2694 23.0888 46.8628C23.1282 47.2565 23.1282 47.6532 23.0888 48.0469C23.0639 48.2312 22.8731 48.3946 22.757 48.5677C22.6326 48.4043 22.4266 48.2521 22.4003 48.0748C22.3517 47.6819 22.3466 47.2848 22.3851 46.8908C22.4307 46.3323 22.1169 46.1926 21.6648 46.2499C21.2501 46.3029 20.6252 45.9776 20.6114 46.8391C20.6114 47.0458 20.3764 47.2482 20.2492 47.4535C20.1289 47.2398 19.9077 47.0346 19.9077 46.8154C19.9077 46.0544 19.3672 46.2764 18.9773 46.2485C18.546 46.2192 18.1174 46.2219 18.1561 46.8684C18.1882 47.2628 18.1822 47.6593 18.1381 48.0525C18.1133 48.2312 17.9142 48.3862 17.7953 48.551C17.693 48.3932 17.5188 48.2424 17.5022 48.0748C17.4566 47.6559 17.5022 47.237 17.4649 46.8182C17.4469 46.6366 17.3266 46.3295 17.2216 46.3169C16.793 46.2499 16.3562 46.258 15.9303 46.3406C15.7921 46.3714 15.7769 46.8098 15.6538 47.0388C15.5521 47.1908 15.4318 47.3292 15.2958 47.4507C15.1769 47.3306 14.9405 47.1938 14.9543 47.0918C15.0856 46.1242 14.4234 46.2792 13.8594 46.2541C13.3644 46.2261 13.1985 46.437 13.2483 46.9173C13.2988 47.2626 13.2988 47.6136 13.2483 47.9589C13.2055 48.1823 12.9898 48.3778 12.8515 48.5733C12.7409 48.3764 12.5667 48.1907 12.5322 47.9813C12.4863 47.6571 12.4863 47.328 12.5322 47.0039C12.622 46.2638 12.1727 46.2359 11.635 46.2359C11.0972 46.2359 10.7695 46.2764 10.7875 46.9718C10.8317 48.7381 10.8027 50.5072 10.8013 52.2776C10.8013 53.2788 10.8013 53.2788 11.8257 53.2788H38.7108C41.2449 53.2788 43.7789 53.2676 46.3144 53.2885C46.8273 53.2885 46.9932 53.128 46.9849 52.6086C46.9573 50.7012 46.9766 48.7939 46.9559 46.8838C46.9559 46.6911 46.8259 46.3518 46.714 46.3253C46.3114 46.2461 45.8972 46.2494 45.496 46.3351C45.3646 46.3672 45.3577 46.8126 45.2485 47.0513C45.1633 47.1948 45.0596 47.3263 44.9402 47.4423C44.8181 47.3318 44.7082 47.2082 44.6126 47.0737C44.5614 46.9843 44.5974 46.8461 44.5863 46.7302C44.5172 46.0069 43.9559 46.2834 43.5729 46.2457C43.19 46.208 42.7988 46.1968 42.8043 46.7665C42.8228 47.1855 42.8136 47.6054 42.7767 48.0232C42.7532 48.2089 42.5679 48.375 42.4559 48.5496C42.3412 48.382 42.149 48.2228 42.1269 48.0427C42.0757 47.6238 42.1269 47.2049 42.0909 46.786C42.073 46.6087 41.9389 46.3155 41.8269 46.3001C41.4214 46.2304 41.0065 46.237 40.6034 46.3197C40.4651 46.3532 40.4651 46.7874 40.3476 47.0178C40.2449 47.1719 40.1237 47.3126 39.9868 47.4367C39.8748 47.3138 39.655 47.1798 39.6675 47.0709C39.7808 46.0544 39.0854 46.2401 38.502 46.2331C38.0762 46.2247 37.8592 46.3727 37.8924 46.8461C37.93 47.2397 37.9253 47.6362 37.8785 48.0287C37.8523 48.2145 37.6518 48.3736 37.5315 48.544C37.4099 48.3806 37.2094 48.2284 37.1831 48.0497C37.134 47.6574 37.1257 47.2611 37.1583 46.867C37.2011 46.201 36.7518 46.2429 36.3288 46.2596C35.9057 46.2764 35.4039 46.0991 35.4067 46.8447C35.4067 47.0485 35.1744 47.2538 35.0486 47.4591C34.9242 47.2482 34.6919 47.0402 34.6933 46.8279C34.7002 46.0139 34.1182 46.2764 33.7145 46.2387C33.2638 46.1982 32.8726 46.2583 32.9237 46.8866C32.9604 47.2582 32.9567 47.6328 32.9127 48.0036C32.8878 48.1949 32.7164 48.3652 32.6113 48.5454C32.4938 48.3778 32.3071 48.2214 32.274 48.0385C32.2357 47.7142 32.2288 47.3868 32.2532 47.0611C32.2615 46.6143 32.2532 46.1801 31.6283 46.2387C31.1362 46.2834 30.438 45.972 30.4546 46.9369C30.4546 47.1016 30.2348 47.2692 30.1173 47.4367C30.0067 47.2636 29.8878 47.0932 29.7855 46.9145C29.6611 46.6995 29.5975 46.3392 29.4261 46.2792C28.4293 45.9301 27.98 46.2792 27.9772 47.3334C27.9913 47.4259 27.9913 47.5201 27.9772 47.6126C27.8735 47.9268 27.7546 48.234 27.6399 48.544C27.5321 48.227 27.3371 47.9128 27.3288 47.5931C27.2901 46.134 27.2376 46.0739 25.7694 46.3113C25.721 46.3347 25.6748 46.3622 25.6312 46.3937ZM33.1809 18.5518C29.5201 18.5518 25.8537 18.5657 22.1971 18.5392C21.5874 18.5392 21.3814 18.7319 21.3953 19.3281C21.4201 20.3502 21.3953 21.3737 21.3953 22.3999C21.3953 23.7515 21.3953 23.7362 22.7321 23.6803C23.1469 23.6622 23.3141 23.503 23.3072 23.0967C23.3072 22.6094 23.2865 22.1193 23.3266 21.6334C23.3404 21.4658 23.5063 21.3122 23.6031 21.1517C23.7275 21.3094 23.9418 21.4588 23.9584 21.6292C23.9968 22.1402 24.006 22.653 23.986 23.1651C23.9791 23.6217 24.2528 23.7236 24.6164 23.6678C24.98 23.6119 25.5358 23.947 25.6436 23.2042C25.6934 22.8635 25.4238 22.3245 26.0224 22.2743C26.1136 22.2659 26.3141 22.8523 26.3583 23.1777C26.4634 23.9666 27.0496 23.5854 27.4339 23.6594C27.8182 23.7334 28.0477 23.5826 28.0311 23.1344C28.0051 22.5998 28.0102 22.0641 28.0464 21.5301C28.0588 21.3793 28.2662 21.2424 28.3851 21.1C28.5109 21.2396 28.7238 21.3625 28.7473 21.5189C28.7829 21.8902 28.788 22.2638 28.7625 22.6359C28.7348 23.7292 28.7321 23.6915 29.7979 23.6943C30.5293 23.6943 30.3509 23.207 30.4132 22.7951C30.4436 22.6052 30.615 22.439 30.7228 22.2617C30.8666 22.4313 30.9982 22.6109 31.1168 22.7993C31.149 22.9115 31.1528 23.0301 31.1279 23.1442C31.0837 23.866 31.6187 23.6538 31.9906 23.6775C32.3846 23.7027 32.8021 23.7529 32.7565 23.119C32.7196 22.6318 32.7242 22.1422 32.7703 21.6557C32.7882 21.4784 32.997 21.322 33.12 21.1559C33.2431 21.3178 33.4449 21.4658 33.4726 21.6418C33.5062 22.0131 33.5127 22.3865 33.4919 22.7588C33.4919 23.6985 33.5002 23.6412 34.3919 23.7069C35.1855 23.7655 35.1592 23.295 35.1882 22.756C35.1965 22.5926 35.3721 22.4376 35.4647 22.2799C35.5993 22.4285 35.7214 22.5883 35.8297 22.7574C35.8647 22.8686 35.869 22.9874 35.8421 23.1009C35.7813 23.7166 36.1864 23.7027 36.6011 23.6803C37.0159 23.658 37.5301 23.8353 37.5066 23.0995C37.4884 22.6113 37.5027 22.1224 37.5495 21.6362C37.5661 21.47 37.743 21.322 37.8467 21.1642C37.9739 21.322 38.1937 21.4686 38.2117 21.6376C38.254 22.1484 38.2665 22.6612 38.249 23.1735C38.249 23.8186 38.7066 23.6859 39.0785 23.6887C39.4504 23.6915 39.8886 23.8046 39.908 23.1665C39.9204 22.844 39.684 22.3385 40.2522 22.2896C40.3324 22.2896 40.5287 22.8733 40.5592 23.1972C40.6269 23.8954 41.1287 23.6622 41.4965 23.6859C41.8642 23.7097 42.2762 23.7865 42.2637 23.186C42.2419 22.6741 42.2493 22.1613 42.2859 21.6501C42.3025 21.477 42.5112 21.3234 42.6315 21.1614C42.7573 21.322 42.973 21.4742 42.9923 21.6473C43.0367 22.1115 43.0409 22.5787 43.0048 23.0436C42.9757 23.5086 43.1098 23.7585 43.6144 23.6957C43.7751 23.6755 43.9376 23.6755 44.0983 23.6957C44.6748 23.7711 44.8697 23.517 44.8559 22.9445C44.8264 21.7344 44.8264 20.5243 44.8559 19.3142C44.8697 18.7389 44.6706 18.556 44.0969 18.5602C40.4582 18.563 36.8196 18.5518 33.1809 18.5518ZM24.7201 17.7754C24.9728 17.758 25.2264 17.758 25.4791 17.7754C26.2367 17.8816 26.5146 17.5897 26.6805 16.798C27.1892 14.3671 28.6533 12.6706 30.9869 11.8468C31.8933 11.5256 32.8587 11.4102 33.8144 11.509C34.77 11.6077 35.6923 11.9182 36.5155 12.4183C37.3387 12.9183 38.0425 13.5956 38.5768 14.4019C39.1111 15.2082 39.4628 16.1236 39.6066 17.0829C39.6868 17.6051 39.8831 17.809 40.4085 17.781C41.0748 17.7461 41.7439 17.7671 42.4117 17.7559C43.2495 17.7433 43.2895 17.6945 43.1817 16.8776C42.4449 11.2436 37.5868 7.38291 31.9836 7.97074C27.698 8.42314 24.0648 11.7072 23.2492 15.9296C22.8151 18.179 22.8012 17.7224 24.7201 17.7754ZM51.1088 39.1107V22.5563C51.1088 20.9297 51.1282 19.3016 51.0992 17.6693C51.0757 16.3038 49.9683 15.156 48.7407 15.23C48.7296 15.4939 48.7061 15.7648 48.7061 16.0371C48.7061 21.4547 48.7061 26.8718 48.7061 32.2884C48.7061 34.1483 48.6964 36.0081 48.7185 37.8736C48.7185 38.1095 48.8319 38.5005 48.984 38.555C49.6434 38.7867 50.3374 38.9194 51.1088 39.1107ZM27.3302 17.7475C27.5929 17.7713 27.792 17.8048 27.991 17.8048C31.3975 17.8048 34.8025 17.7936 38.2076 17.8187C38.8905 17.8187 38.9596 17.5576 38.8394 16.9726C37.985 12.8298 33.1242 10.8834 29.7344 13.3618C28.2924 14.409 27.4616 15.8486 27.3358 17.7419L27.3302 17.7475ZM16.5386 20.1338H16.5275C16.5275 17.6693 16.5372 15.2063 16.5275 12.7432C16.5192 11.2073 16.5027 11.238 14.9902 11.2073C14.2852 11.192 14.1013 11.4307 14.1041 12.1275C14.1331 17.2407 14.1124 22.3539 14.1234 27.4657C14.1234 29.1594 13.8552 28.9527 15.6358 28.9653C16.5372 28.9723 16.5414 28.9653 16.5414 28.0158C16.5404 25.3824 16.5395 22.7551 16.5386 20.1338ZM40.0131 54.097H21.1395C23.9266 56.5768 35.9984 56.6075 40.0131 54.09V54.097ZM12.2156 20.1198H12.2239C12.2239 22.8146 12.2363 25.5109 12.2142 28.2057C12.2142 28.7838 12.3926 29.0267 12.9718 28.9485C13.511 28.8773 13.3727 28.4612 13.3741 28.1429C13.3824 24.3105 13.3824 20.4773 13.3741 16.6431C13.3741 15.0639 13.3644 13.4833 13.381 11.9041C13.381 11.4503 13.2677 11.2059 12.7672 11.2143C12.2225 11.2213 12.2142 11.5676 12.2142 11.9655C12.217 14.6845 12.2174 17.4026 12.2156 20.1198ZM14.4179 29.7207C13.8884 29.7207 13.3589 29.736 12.8308 29.7207C12.4161 29.7039 12.2474 29.8924 12.2515 30.2973C12.2598 31.0401 12.2515 31.783 12.2515 32.5314C12.2515 33.0801 12.5184 33.3245 13.0686 33.3105C13.8981 33.291 14.7276 33.2854 15.557 33.3105C16.1944 33.3287 16.4985 33.0564 16.493 32.4099C16.493 31.7369 16.4805 31.0625 16.5068 30.3895C16.5262 29.8617 16.2828 29.6913 15.7948 29.7249C15.3386 29.7402 14.8769 29.7193 14.4179 29.7207ZM14.3667 7.29912L12.5529 10.4142H16.1584L14.3667 7.29912Z" fill="#6651E6"/>
<path d="M10.0728 49.9584C10.5304 48.1977 9.6276 46.4789 8.39581 44.6623C4.85252 39.4402 3.57926 33.5688 4.18893 27.2814C4.75851 21.403 7.15711 16.3554 11.0267 11.9739C11.2797 11.6863 11.3778 11.2562 11.5368 10.8876C11.6101 10.7186 11.6308 10.5245 11.7193 10.3668C12.4631 9.05612 13.2124 7.7478 13.9672 6.44181C14.2119 6.01594 14.4759 6.01175 14.7386 6.42505C14.8879 6.65963 15.0317 6.89839 15.1672 7.14135C15.6248 7.95817 15.622 7.95817 16.3852 7.46528C18.8225 5.86213 21.5204 4.70509 24.3551 4.04718C31.2551 2.48753 37.8509 3.37277 43.9352 7.0464C50.5973 11.0691 54.865 16.9754 56.401 24.6801C58.0019 32.7059 56.3097 40.0588 51.2858 46.5417C50.3955 47.6894 49.3503 48.7255 48.3397 49.7657C47.925 50.1846 47.6651 50.5937 47.7162 51.2165C47.7674 51.8629 47.6969 52.5206 47.7356 53.1713C47.7729 53.7982 47.5545 54.0523 46.9061 54.0342C45.5937 53.9997 44.2808 53.9997 42.9674 54.0342C42.5114 54.0388 42.061 54.1362 41.643 54.3204C37.7085 56.1956 33.5555 56.9733 29.2339 56.7918C25.963 56.6522 22.8275 55.8577 19.8137 54.5424C19.12 54.247 18.3778 54.0845 17.6252 54.0635C15.369 53.9979 13.1101 54.016 10.8511 54.0411C10.2359 54.0481 10.0368 53.8177 10.0576 53.2229C10.0963 52.286 10.0728 51.3547 10.0728 49.9584ZM29.7164 43.3219H41.1909C43.7015 43.3219 46.2121 43.3219 48.7227 43.3219C49.4761 43.3219 50.2089 43.213 50.7038 42.5455C51.1462 41.9479 51.2913 41.2889 50.9803 40.5796C50.5932 39.7041 49.8743 39.3885 48.9743 39.3788C47.9471 39.3676 47.9457 39.3564 47.9457 38.3413C47.9457 32.7352 47.9582 27.1292 47.9457 21.5231C47.9457 19.5753 48.3176 19.8615 46.2066 19.821C45.6895 19.8112 45.5153 20.0235 45.5319 20.5261C45.554 21.5719 45.5167 22.6206 45.5444 23.6664C45.561 24.2458 45.3342 24.4301 44.7702 24.4301C37.0089 24.4162 29.2468 24.4162 21.4837 24.4301C20.8547 24.4301 20.6874 24.1802 20.704 23.6007C20.7317 22.5535 20.704 21.5063 20.7137 20.4605C20.7137 20.0207 20.5616 19.821 20.1095 19.835C19.4653 19.8545 18.8197 19.835 18.1741 19.835C17.2354 19.828 17.2271 19.8461 17.2285 20.8124C17.2368 24.7443 17.2391 28.6758 17.2354 32.6068C17.2354 33.654 16.7971 34.0743 15.7492 34.0813C14.8976 34.0813 14.046 34.0743 13.193 34.0715C11.9225 34.0715 11.5465 33.6987 11.5437 32.4113C11.5437 29.5503 11.5437 26.6865 11.5437 23.8283C11.5437 22.7113 11.5603 21.5943 11.523 20.4773C11.5147 20.2622 11.3253 19.9187 11.1525 19.8657C10.1847 19.5864 9.85847 19.8531 9.85847 20.857C9.85847 27.9753 9.85847 35.0964 9.85847 42.2202C9.85847 43.3372 9.85847 43.3372 10.9368 43.3372L29.7164 43.3219ZM47.7301 49.2952C48.0812 49.0006 48.2651 48.8679 48.4213 48.7101C53.0581 44.1024 55.7125 38.4949 56.1632 31.9631C56.6678 24.7708 54.554 18.3465 49.8038 12.9248C44.5504 6.94168 37.8896 4.01088 29.9901 4.0765C25.1832 4.1156 20.7524 5.56355 16.6769 8.14528C16.1418 8.48457 16.0257 8.7722 16.3921 9.29302C16.9133 10.0386 17.2865 10.801 17.2478 11.7952C17.1635 13.979 17.2202 16.1683 17.1994 18.3577C17.1994 18.8771 17.3377 19.1284 17.9114 19.0907C18.602 19.05 19.2942 19.0462 19.9851 19.0796C20.4787 19.1019 20.7303 18.9525 20.6874 18.4177C20.6542 17.9919 20.845 17.7196 21.2929 17.8006C22.157 17.9667 22.2607 17.4417 22.3326 16.7743C23.0598 10.4422 29.097 6.05085 35.2878 7.33962C39.8859 8.29607 43.4444 12.1624 43.9545 16.8581C44.0347 17.5995 44.2186 17.8899 44.9679 17.8355C45.1379 17.8229 45.496 18.1706 45.4918 18.3451C45.4739 19.0084 45.7918 19.141 46.3462 19.0893C46.6682 19.0613 46.992 19.0613 47.3139 19.0893C47.8061 19.1312 47.9568 18.9106 47.9471 18.4373C47.9236 17.344 47.9374 16.2493 47.9471 15.156C47.9471 14.3964 48.1255 14.2456 48.8499 14.3532C50.6969 14.6324 51.8747 15.991 51.8761 17.9109C51.8863 25.6128 51.8913 33.3152 51.8913 41.018C51.8913 42.9393 50.7853 44.0898 48.8499 44.0898C35.9467 44.0898 23.0436 44.0898 10.1405 44.0898C9.18797 44.0898 9.12161 44.02 9.12161 43.0566C9.12161 35.6572 9.12161 28.2569 9.12161 20.8557C9.12161 18.9246 8.87829 19.0405 10.8234 19.0977C11.3764 19.1117 11.5479 18.8995 11.5423 18.3731C11.5244 16.7673 11.5423 15.1616 11.534 13.5573C11.534 13.3367 11.4898 13.116 11.4483 12.7404C11.1566 13.0197 10.9617 13.1733 10.8055 13.3618C7.10319 17.8564 5.0668 23.0366 4.7834 28.8605C4.5069 34.616 6.0608 39.8912 9.23221 44.686C9.66769 45.3423 10.0617 45.6216 10.9064 45.5936C13.6921 45.5001 16.4805 45.5587 19.269 45.5573C28.4855 45.5573 37.702 45.5527 46.9186 45.5434C47.549 45.5434 47.7867 45.7332 47.748 46.3811C47.6969 47.2747 47.7301 48.1754 47.7301 49.2952ZM25.6312 46.3937C25.6371 46.6014 25.6218 46.8091 25.5855 47.0136C25.5427 47.1714 25.4362 47.406 25.3173 47.4325C24.8017 47.5568 24.8321 47.1533 24.8349 46.8293C24.8349 46.039 24.2501 46.2848 23.8409 46.2485C23.4316 46.2122 23.0445 46.2694 23.0888 46.8628C23.1282 47.2565 23.1282 47.6532 23.0888 48.0469C23.0639 48.2312 22.8731 48.3946 22.757 48.5677C22.6326 48.4043 22.4266 48.2521 22.4003 48.0748C22.3517 47.6819 22.3466 47.2848 22.3851 46.8908C22.4307 46.3323 22.1169 46.1926 21.6648 46.2499C21.2501 46.3029 20.6252 45.9776 20.6114 46.8391C20.6114 47.0458 20.3764 47.2482 20.2492 47.4535C20.1289 47.2398 19.9077 47.0346 19.9077 46.8154C19.9077 46.0544 19.3672 46.2764 18.9773 46.2485C18.546 46.2192 18.1174 46.2219 18.1561 46.8684C18.1882 47.2628 18.1822 47.6593 18.1381 48.0525C18.1133 48.2312 17.9142 48.3862 17.7953 48.551C17.693 48.3932 17.5188 48.2424 17.5022 48.0748C17.4566 47.6559 17.5022 47.237 17.4649 46.8182C17.4469 46.6366 17.3266 46.3295 17.2216 46.3169C16.793 46.2499 16.3562 46.258 15.9303 46.3406C15.7921 46.3714 15.7769 46.8098 15.6538 47.0388C15.5521 47.1908 15.4318 47.3292 15.2958 47.4507C15.1769 47.3306 14.9405 47.1938 14.9543 47.0918C15.0856 46.1242 14.4234 46.2792 13.8594 46.2541C13.3644 46.2261 13.1985 46.437 13.2483 46.9173C13.2988 47.2626 13.2988 47.6136 13.2483 47.9589C13.2055 48.1823 12.9898 48.3778 12.8515 48.5733C12.7409 48.3764 12.5667 48.1907 12.5322 47.9813C12.4863 47.6571 12.4863 47.328 12.5322 47.0039C12.622 46.2638 12.1727 46.2359 11.635 46.2359C11.0972 46.2359 10.7695 46.2764 10.7875 46.9718C10.8317 48.7381 10.8027 50.5072 10.8013 52.2776C10.8013 53.2788 10.8013 53.2788 11.8257 53.2788H38.7108C41.2449 53.2788 43.7789 53.2676 46.3144 53.2885C46.8273 53.2885 46.9932 53.128 46.9849 52.6086C46.9573 50.7012 46.9766 48.7939 46.9559 46.8838C46.9559 46.6911 46.8259 46.3518 46.714 46.3253C46.3114 46.2461 45.8972 46.2494 45.496 46.3351C45.3646 46.3672 45.3577 46.8126 45.2485 47.0513C45.1633 47.1948 45.0596 47.3263 44.9402 47.4423C44.8181 47.3318 44.7082 47.2082 44.6126 47.0737C44.5614 46.9843 44.5974 46.8461 44.5863 46.7302C44.5172 46.0069 43.9559 46.2834 43.5729 46.2457C43.19 46.208 42.7988 46.1968 42.8043 46.7665C42.8228 47.1855 42.8136 47.6054 42.7767 48.0232C42.7532 48.2089 42.5679 48.375 42.4559 48.5496C42.3412 48.382 42.149 48.2228 42.1269 48.0427C42.0757 47.6238 42.1269 47.2049 42.0909 46.786C42.073 46.6087 41.9389 46.3155 41.8269 46.3001C41.4214 46.2304 41.0065 46.237 40.6034 46.3197C40.4651 46.3532 40.4651 46.7874 40.3476 47.0178C40.2449 47.1719 40.1237 47.3126 39.9868 47.4367C39.8748 47.3138 39.655 47.1798 39.6675 47.0709C39.7808 46.0544 39.0854 46.2401 38.502 46.2331C38.0762 46.2247 37.8592 46.3727 37.8924 46.8461C37.93 47.2397 37.9253 47.6362 37.8785 48.0287C37.8523 48.2145 37.6518 48.3736 37.5315 48.544C37.4099 48.3806 37.2094 48.2284 37.1831 48.0497C37.134 47.6574 37.1257 47.2611 37.1583 46.867C37.2011 46.201 36.7518 46.2429 36.3288 46.2596C35.9057 46.2764 35.4039 46.0991 35.4067 46.8447C35.4067 47.0485 35.1744 47.2538 35.0486 47.4591C34.9242 47.2482 34.6919 47.0402 34.6933 46.8279C34.7002 46.0139 34.1182 46.2764 33.7145 46.2387C33.2638 46.1982 32.8726 46.2583 32.9237 46.8866C32.9604 47.2582 32.9567 47.6328 32.9127 48.0036C32.8878 48.1949 32.7164 48.3652 32.6113 48.5454C32.4938 48.3778 32.3071 48.2214 32.274 48.0385C32.2357 47.7142 32.2288 47.3868 32.2532 47.0611C32.2615 46.6143 32.2532 46.1801 31.6283 46.2387C31.1362 46.2834 30.438 45.972 30.4546 46.9369C30.4546 47.1016 30.2348 47.2692 30.1173 47.4367C30.0067 47.2636 29.8878 47.0932 29.7855 46.9145C29.6611 46.6995 29.5975 46.3392 29.4261 46.2792C28.4293 45.9301 27.98 46.2792 27.9772 47.3334C27.9913 47.4259 27.9913 47.5201 27.9772 47.6126C27.8735 47.9268 27.7546 48.234 27.6399 48.544C27.5321 48.227 27.3371 47.9128 27.3288 47.5931C27.2901 46.134 27.2376 46.0739 25.7694 46.3113C25.721 46.3347 25.6748 46.3622 25.6312 46.3937ZM33.1809 18.5518C29.5201 18.5518 25.8537 18.5657 22.1971 18.5392C21.5874 18.5392 21.3814 18.7319 21.3953 19.3281C21.4201 20.3502 21.3953 21.3737 21.3953 22.3999C21.3953 23.7515 21.3953 23.7362 22.7321 23.6803C23.1469 23.6622 23.3141 23.503 23.3072 23.0967C23.3072 22.6094 23.2865 22.1193 23.3266 21.6334C23.3404 21.4658 23.5063 21.3122 23.6031 21.1517C23.7275 21.3094 23.9418 21.4588 23.9584 21.6292C23.9968 22.1402 24.006 22.653 23.986 23.1651C23.9791 23.6217 24.2528 23.7236 24.6164 23.6678C24.98 23.6119 25.5358 23.947 25.6436 23.2042C25.6934 22.8635 25.4238 22.3245 26.0224 22.2743C26.1136 22.2659 26.3141 22.8523 26.3583 23.1777C26.4634 23.9666 27.0496 23.5854 27.4339 23.6594C27.8182 23.7334 28.0477 23.5826 28.0311 23.1344C28.0051 22.5998 28.0102 22.0641 28.0464 21.5301C28.0588 21.3793 28.2662 21.2424 28.3851 21.1C28.5109 21.2396 28.7238 21.3625 28.7473 21.5189C28.7829 21.8902 28.788 22.2638 28.7625 22.6359C28.7348 23.7292 28.7321 23.6915 29.7979 23.6943C30.5293 23.6943 30.3509 23.207 30.4132 22.7951C30.4436 22.6052 30.615 22.439 30.7228 22.2617C30.8666 22.4313 30.9982 22.6109 31.1168 22.7993C31.149 22.9115 31.1528 23.0301 31.1279 23.1442C31.0837 23.866 31.6187 23.6538 31.9906 23.6775C32.3846 23.7027 32.8021 23.7529 32.7565 23.119C32.7196 22.6318 32.7242 22.1422 32.7703 21.6557C32.7882 21.4784 32.997 21.322 33.12 21.1559C33.2431 21.3178 33.4449 21.4658 33.4726 21.6418C33.5062 22.0131 33.5127 22.3865 33.4919 22.7588C33.4919 23.6985 33.5002 23.6412 34.3919 23.7069C35.1855 23.7655 35.1592 23.295 35.1882 22.756C35.1965 22.5926 35.3721 22.4376 35.4647 22.2799C35.5993 22.4285 35.7214 22.5883 35.8297 22.7574C35.8647 22.8686 35.869 22.9874 35.8421 23.1009C35.7813 23.7166 36.1864 23.7027 36.6011 23.6803C37.0159 23.658 37.5301 23.8353 37.5066 23.0995C37.4884 22.6113 37.5027 22.1224 37.5495 21.6362C37.5661 21.47 37.743 21.322 37.8467 21.1642C37.9739 21.322 38.1937 21.4686 38.2117 21.6376C38.254 22.1484 38.2665 22.6612 38.249 23.1735C38.249 23.8186 38.7066 23.6859 39.0785 23.6887C39.4504 23.6915 39.8886 23.8046 39.908 23.1665C39.9204 22.844 39.684 22.3385 40.2522 22.2896C40.3324 22.2896 40.5287 22.8733 40.5592 23.1972C40.6269 23.8954 41.1287 23.6622 41.4965 23.6859C41.8642 23.7097 42.2762 23.7865 42.2637 23.186C42.2419 22.6741 42.2493 22.1613 42.2859 21.6501C42.3025 21.477 42.5112 21.3234 42.6315 21.1614C42.7573 21.322 42.973 21.4742 42.9923 21.6473C43.0367 22.1115 43.0409 22.5787 43.0048 23.0436C42.9757 23.5086 43.1098 23.7585 43.6144 23.6957C43.7751 23.6755 43.9376 23.6755 44.0983 23.6957C44.6748 23.7711 44.8697 23.517 44.8559 22.9445C44.8264 21.7344 44.8264 20.5243 44.8559 19.3142C44.8697 18.7389 44.6706 18.556 44.0969 18.5602C40.4582 18.563 36.8196 18.5518 33.1809 18.5518ZM24.7201 17.7754C24.9728 17.758 25.2264 17.758 25.4791 17.7754C26.2367 17.8816 26.5146 17.5897 26.6805 16.798C27.1892 14.3671 28.6533 12.6706 30.9869 11.8468C31.8933 11.5256 32.8587 11.4102 33.8144 11.509C34.77 11.6077 35.6923 11.9182 36.5155 12.4183C37.3387 12.9183 38.0425 13.5956 38.5768 14.4019C39.1111 15.2082 39.4628 16.1236 39.6066 17.0829C39.6868 17.6051 39.8831 17.809 40.4085 17.781C41.0748 17.7461 41.7439 17.7671 42.4117 17.7559C43.2495 17.7433 43.2895 17.6945 43.1817 16.8776C42.4449 11.2436 37.5868 7.38291 31.9836 7.97074C27.698 8.42314 24.0648 11.7072 23.2492 15.9296C22.8151 18.179 22.8012 17.7224 24.7201 17.7754ZM51.1088 39.1107V22.5563C51.1088 20.9297 51.1282 19.3016 51.0992 17.6693C51.0757 16.3038 49.9683 15.156 48.7407 15.23C48.7296 15.4939 48.7061 15.7648 48.7061 16.0371C48.7061 21.4547 48.7061 26.8718 48.7061 32.2884C48.7061 34.1483 48.6964 36.0081 48.7185 37.8736C48.7185 38.1095 48.8319 38.5005 48.984 38.555C49.6434 38.7867 50.3374 38.9194 51.1088 39.1107ZM27.3302 17.7475C27.5929 17.7713 27.792 17.8048 27.991 17.8048C31.3975 17.8048 34.8025 17.7936 38.2076 17.8187C38.8905 17.8187 38.9596 17.5576 38.8394 16.9726C37.985 12.8298 33.1242 10.8834 29.7344 13.3618C28.2924 14.409 27.4616 15.8486 27.3358 17.7419L27.3302 17.7475ZM16.5386 20.1338H16.5275C16.5275 17.6693 16.5372 15.2063 16.5275 12.7432C16.5192 11.2073 16.5027 11.238 14.9902 11.2073C14.2852 11.192 14.1013 11.4307 14.1041 12.1275C14.1331 17.2407 14.1124 22.3539 14.1234 27.4657C14.1234 29.1594 13.8552 28.9527 15.6358 28.9653C16.5372 28.9723 16.5414 28.9653 16.5414 28.0158C16.5404 25.3824 16.5395 22.7551 16.5386 20.1338ZM40.0131 54.097H21.1395C23.9266 56.5768 35.9984 56.6075 40.0131 54.09V54.097ZM12.2156 20.1198H12.2239C12.2239 22.8146 12.2363 25.5109 12.2142 28.2057C12.2142 28.7838 12.3926 29.0267 12.9718 28.9485C13.511 28.8773 13.3727 28.4612 13.3741 28.1429C13.3824 24.3105 13.3824 20.4773 13.3741 16.6431C13.3741 15.0639 13.3644 13.4833 13.381 11.9041C13.381 11.4503 13.2677 11.2059 12.7672 11.2143C12.2225 11.2213 12.2142 11.5676 12.2142 11.9655C12.217 14.6845 12.2174 17.4026 12.2156 20.1198ZM14.4179 29.7207C13.8884 29.7207 13.3589 29.736 12.8308 29.7207C12.4161 29.7039 12.2474 29.8924 12.2515 30.2973C12.2598 31.0401 12.2515 31.783 12.2515 32.5314C12.2515 33.0801 12.5184 33.3245 13.0686 33.3105C13.8981 33.291 14.7276 33.2854 15.557 33.3105C16.1944 33.3287 16.4985 33.0564 16.493 32.4099C16.493 31.7369 16.4805 31.0625 16.5068 30.3895C16.5262 29.8617 16.2828 29.6913 15.7948 29.7249C15.3386 29.7402 14.8769 29.7193 14.4179 29.7207ZM14.3667 7.29912L12.5529 10.4142H16.1584L14.3667 7.29912Z" stroke="#6651E6" stroke-width="0.4" mask="url(#path-1-outside-1)"/>
<path d="M37.3458 0.895865L37.3915 0.910827C37.7808 1.03832 38.1668 1.15885 38.549 1.27819C39.3623 1.53217 40.1586 1.7808 40.9328 2.07986C46.8692 4.37166 51.6139 8.18014 55.1342 13.5356M37.3458 0.895865L55.0506 13.5906M37.3458 0.895865L37.3056 0.922192C37.273 0.943568 37.2328 0.965155 37.1869 0.989063C37.1797 0.992824 37.1723 0.996648 37.1648 1.00053C37.1263 1.02046 37.0849 1.04191 37.0465 1.06416C37.0007 1.09064 36.9534 1.12135 36.9148 1.15737C36.8766 1.19307 36.839 1.24119 36.8268 1.30358C36.806 1.40966 36.8542 1.52511 36.9119 1.61528C36.9726 1.71021 37.0593 1.80158 37.152 1.86481C37.2479 1.93023 37.3591 1.96576 37.4648 1.99128C37.5152 2.00344 37.5665 2.01379 37.6155 2.02368C37.6182 2.02422 37.6209 2.02477 37.6236 2.02532C37.6758 2.03586 37.7254 2.04599 37.7729 2.05791L37.773 2.05793C40.8751 2.83391 43.7291 4.1761 46.3863 5.95362M37.3458 0.895865L37.7973 1.96092C40.912 2.74004 43.7765 4.08746 46.4419 5.87051M55.1342 13.5356L55.0506 13.5906M55.1342 13.5356C55.1341 13.5355 55.134 13.5354 55.134 13.5353L55.0506 13.5906M55.1342 13.5356C55.2136 13.6558 55.23 13.8067 55.2342 13.9428C55.2358 13.994 55.2356 14.047 55.2355 14.098C55.2354 14.1159 55.2353 14.1336 55.2354 14.1508C55.2355 14.2188 55.2367 14.2824 55.2427 14.3414L55.2625 14.5348L55.0936 14.4384C55.0232 14.3981 54.949 14.3657 54.8695 14.3309C54.8215 14.3099 54.7715 14.288 54.7193 14.2631C54.5909 14.2018 54.4549 14.1237 54.3698 14.0008L54.3686 13.9991L54.3687 13.9991C52.2561 10.8144 49.5437 8.08064 46.3863 5.95362M55.0506 13.5906C55.1366 13.7204 55.136 13.9083 55.1355 14.0963C55.1353 14.1426 55.1352 14.1888 55.1363 14.2342C55.1558 14.2442 55.1747 14.2544 55.1928 14.2647L55.1432 14.3515L55.0438 14.3617C55.0416 14.3405 55.04 14.3191 55.0388 14.2975C54.9943 14.2764 54.9482 14.2561 54.9021 14.2359C54.7245 14.158 54.546 14.0796 54.452 13.9438C52.3321 10.7481 49.6104 8.00492 46.4419 5.87051M46.3863 5.95362C46.3863 5.95362 46.3863 5.95363 46.3863 5.95363L46.4419 5.87051M46.3863 5.95362C46.3862 5.95356 46.3861 5.95351 46.386 5.95345L46.4419 5.87051" fill="#6651E6" stroke="#6651E6" stroke-width="0.2"/>
<path d="M7.72008 11.6175L7.72848 11.6695C7.73559 11.7135 7.74711 11.7603 7.76051 11.8109C7.76359 11.8225 7.76679 11.8344 7.77005 11.8466C7.78055 11.8856 7.79162 11.9268 7.80083 11.9669C7.82444 12.0696 7.84293 12.1913 7.80263 12.303L7.80187 12.3051L7.80185 12.3051C7.74352 12.4561 7.6585 12.5911 7.56843 12.7166C7.52336 12.7794 7.47631 12.8407 7.43035 12.9006L7.42698 12.905C7.38188 12.9637 7.33791 13.0209 7.29607 13.0788L7.29595 13.079C4.25775 17.265 2.44797 21.9381 1.97962 27.0997L1.97962 27.0997C1.86787 28.3298 1.88249 29.5683 1.89719 30.8129C1.90388 31.3798 1.91059 31.9479 1.90538 32.517M7.72008 11.6175L1.80538 32.5166M7.72008 11.6175L7.67247 11.595L7.30888 11.4233L7.2139 11.3784L7.17376 11.4755C7.09428 11.6676 7.00402 11.8551 6.90342 12.0369M7.72008 11.6175L6.98967 12.0875M1.90538 32.517C1.90538 32.5172 1.90538 32.5174 1.90537 32.5175L1.80538 32.5166M1.90538 32.517C1.90538 32.5169 1.90538 32.5167 1.90538 32.5166H1.80538M1.90538 32.517C1.9054 32.5536 1.90774 32.592 1.9107 32.6334C1.9112 32.6404 1.91171 32.6475 1.91224 32.6547C1.91476 32.6893 1.91743 32.7259 1.91879 32.7619C1.92203 32.8479 1.91879 32.9456 1.88099 33.0356L1.87901 33.0403L1.87889 33.0403C1.84054 33.1199 1.78687 33.1912 1.72097 33.2499C1.65506 33.3085 1.57822 33.3534 1.49489 33.382L1.49114 33.3832L1.49111 33.3832C1.45814 33.393 1.42771 33.3879 1.40758 33.3822C1.38632 33.3761 1.36654 33.3665 1.34947 33.3566C1.31521 33.3366 1.28055 33.3085 1.24946 33.2785C1.19021 33.2213 1.12426 33.1378 1.10109 33.0584L1.10059 33.0567L1.10061 33.0567C1.03167 32.8039 0.990217 32.5442 0.976977 32.2823M1.80538 32.5166C1.80538 32.5642 1.80896 32.6133 1.81254 32.6626C1.82116 32.7808 1.82979 32.8993 1.78879 32.9969C1.75614 33.0647 1.71049 33.1253 1.65448 33.1752C1.59848 33.225 1.53322 33.2631 1.46252 33.2873C1.40169 33.3055 1.22888 33.1393 1.19708 33.0304C1.12997 32.7843 1.08964 32.5314 1.07681 32.2764M0.976977 32.2823C0.976995 32.2825 0.977013 32.2828 0.977031 32.2831L1.07681 32.2764M0.976977 32.2823C0.976963 32.282 0.97695 32.2817 0.976936 32.2814L1.07681 32.2764M0.976977 32.2823C0.60276 26.6684 1.57894 21.3189 4.21372 16.3344L4.21375 16.3343C4.73155 15.3563 5.34695 14.4236 5.95863 13.4966C6.27946 13.0104 6.59926 12.5257 6.90342 12.0369M1.07681 32.2764C0.703541 26.6787 1.67681 21.3477 4.30213 16.3811C4.81786 15.407 5.42834 14.4819 6.03822 13.5577C6.36021 13.0698 6.68204 12.5821 6.98967 12.0875M6.90342 12.0369C6.90301 12.0376 6.9026 12.0384 6.9022 12.0391L6.98967 12.0875M6.90342 12.0369C6.90386 12.0362 6.90431 12.0354 6.90476 12.0347L6.98967 12.0875" fill="#6651E6" stroke="#6651E6" stroke-width="0.2"/>
<path d="M30.4554 60.1014L30.4553 60.1023L30.4686 60.102C34.0579 60.0214 37.6072 59.3222 40.9633 58.0345C41.109 57.979 41.2192 57.8562 41.3102 57.737C41.3445 57.692 41.3784 57.6443 41.4111 57.5982C41.4223 57.5824 41.4334 57.5667 41.4444 57.5514C41.488 57.4905 41.5301 57.4338 41.5736 57.3844L41.7062 57.2338L41.5061 57.2186C41.4463 57.2141 41.3834 57.2045 41.3167 57.1932C41.3004 57.1904 41.2838 57.1875 41.2669 57.1846C41.2164 57.1758 41.1638 57.1667 41.1124 57.1594C40.9764 57.1404 40.8264 57.131 40.6899 57.1812C35.9228 58.9336 31.0433 59.4927 26.0193 58.7024L26.0185 58.7023C25.8795 58.6816 25.7406 58.7322 25.6218 58.7863C25.5766 58.8069 25.5306 58.8299 25.4865 58.8519C25.4717 58.8594 25.457 58.8667 25.4427 58.8738C25.3844 58.9025 25.3299 58.9282 25.2777 58.9476L25.1127 59.0089L25.2498 59.1193C25.293 59.1541 25.3366 59.196 25.3827 59.2422C25.3944 59.2539 25.4063 59.266 25.4184 59.2783C25.4529 59.3131 25.4889 59.3495 25.5246 59.3832C25.6187 59.4717 25.7349 59.5653 25.8732 59.5831C26.9897 59.7295 28.1133 59.8496 29.2314 59.9692C29.6404 60.0129 30.0486 60.0566 30.4554 60.1014Z" fill="#6651E6" stroke="#6651E6" stroke-width="0.2"/>
<path d="M60.0174 28.5878C60.0398 28.4049 60.0455 28.2204 60.0345 28.0365L60.1068 28.0257L60.0916 27.9265C60.0234 27.4826 59.9601 27.0371 59.8967 26.5913C59.7476 25.5418 59.5982 24.4905 59.3842 23.4534L59.3842 23.4534C59.1842 22.4851 58.8743 21.5379 58.5672 20.5994C58.5135 20.435 58.4598 20.271 58.4068 20.1071L58.3117 20.1379L58.4069 20.1073C58.3869 20.0451 58.347 19.9958 58.3039 19.9566C58.2608 19.9175 58.2095 19.8841 58.1593 19.8547C58.1227 19.8333 58.0834 19.8122 58.0461 19.7922C58.0325 19.7849 58.0192 19.7778 58.0063 19.7708C57.9564 19.7437 57.9118 19.7182 57.8744 19.6918L57.7686 19.617L57.7231 19.7383C57.6475 19.9397 57.5865 20.1464 57.5407 20.3567L57.5405 20.3567L57.5395 20.3631C57.527 20.4458 57.5599 20.5245 57.5842 20.5783C57.5912 20.5939 57.5979 20.6082 57.6041 20.6215C57.6235 20.6629 57.6384 20.6948 57.6461 20.7277L57.6461 20.7277L57.6462 20.7282C57.7591 21.197 57.8742 21.6648 57.9892 22.1322C58.3056 23.4186 58.6214 24.7024 58.8898 25.9974L58.8898 25.9975C58.9776 26.4196 59.0201 26.8528 59.0555 27.2926C59.0622 27.3764 59.0687 27.4605 59.0752 27.5448C59.1027 27.9012 59.1305 28.2613 59.1789 28.617L59.1789 28.6172C59.1955 28.7375 59.2785 28.8365 59.3544 28.9139C59.387 28.9472 59.4224 28.9802 59.4558 29.0115C59.4628 29.0181 59.4697 29.0245 59.4765 29.0309C59.5168 29.0687 59.5536 29.1041 59.5849 29.1393L59.669 29.2335L59.7414 29.1301C59.8541 28.9695 59.9451 28.7945 60.0121 28.6097L60.016 28.599L60.0174 28.5878Z" fill="#6651E6" stroke="#6651E6" stroke-width="0.2"/>
<path d="M8.16232 50.7514V50.8514C8.16232 51.0379 8.16403 51.2252 8.16573 51.4129C8.17037 51.9231 8.17504 52.4361 8.14556 52.9432C8.13873 53.0654 8.0657 53.1722 7.99775 53.2574C7.97111 53.2908 7.94208 53.3245 7.91451 53.3566C7.90578 53.3667 7.8972 53.3767 7.88888 53.3864C7.8532 53.4282 7.82114 53.4672 7.79487 53.5052L7.71749 53.6174L7.63369 53.5099C7.6028 53.4703 7.56442 53.4294 7.52149 53.3855C7.5112 53.3749 7.50058 53.3642 7.48977 53.3532C7.45688 53.3198 7.42235 53.2847 7.3907 53.25C7.31092 53.1626 7.22022 53.0481 7.21719 52.916L8.16232 50.7514ZM8.16232 50.7514H8.1487M8.16232 50.7514H8.1487M8.1487 50.7514C8.14932 50.5934 8.15125 50.435 8.15319 50.2761C8.15932 49.774 8.1655 49.2678 8.13029 48.7598L8.13028 48.7597C8.12054 48.622 8.04499 48.4982 7.96938 48.3935C7.94045 48.3534 7.90908 48.313 7.87898 48.2743C7.86908 48.2615 7.85932 48.2489 7.84983 48.2366C7.8105 48.1856 7.77458 48.1372 7.74484 48.0896L7.65798 47.9506L7.5741 48.0914C7.54738 48.1363 7.51391 48.1825 7.47656 48.2318C7.4669 48.2446 7.45688 48.2577 7.44669 48.271C7.41866 48.3077 7.3893 48.346 7.36246 48.3839C7.29099 48.4846 7.21716 48.6075 7.21716 48.743H7.31716M8.1487 50.7514L7.31716 48.743M7.31716 48.743L7.21719 48.7407M7.31716 48.743L7.21719 48.7407M7.21719 48.7407C7.1849 50.1338 7.1849 51.5256 7.21719 52.916L7.21719 48.7407Z" fill="#6651E6" stroke="#6651E6" stroke-width="0.2"/>
<path d="M22.2222 58.8078L22.2689 58.8244L22.3104 58.7974C22.3481 58.7727 22.3955 58.7484 22.4482 58.7214C22.48 58.7051 22.5136 58.6878 22.5482 58.6689C22.5901 58.646 22.6336 58.6203 22.6676 58.5932C22.6846 58.5796 22.7028 58.5628 22.7175 58.5426C22.732 58.5229 22.7484 58.4925 22.7484 58.4539H22.7491L22.7477 58.4423C22.7363 58.3442 22.6969 58.2288 22.6421 58.1304C22.5896 58.036 22.5108 57.9352 22.408 57.8957C21.6136 57.5876 20.8043 57.3147 19.9916 57.0644C19.888 57.0296 19.7786 57.0669 19.6984 57.1004C19.6648 57.1144 19.6303 57.1305 19.598 57.1456C19.589 57.1498 19.5802 57.1539 19.5716 57.1579C19.5307 57.1768 19.4941 57.193 19.4603 57.2044L19.356 57.2395L19.4009 57.3399C19.4174 57.3769 19.4324 57.4214 19.4483 57.4717C19.4523 57.4842 19.4563 57.4971 19.4604 57.5103C19.4722 57.5482 19.4846 57.5884 19.4977 57.6256C19.5154 57.676 19.5366 57.7285 19.5642 57.7732C19.5913 57.8171 19.631 57.8642 19.6903 57.8878L19.7272 57.7948L19.6899 57.8876C20.2975 58.1316 20.9158 58.3484 21.5602 58.5744C21.7777 58.6507 21.9982 58.728 22.2222 58.8078Z" fill="#6651E6" stroke="#6651E6" stroke-width="0.2"/>
<path d="M29.7528 32.3739C28.872 32.7801 28.0113 33.2323 27.1592 33.692L27.1591 33.692C27.06 33.7455 26.9482 33.8314 26.8612 33.9265C26.8176 33.9742 26.7779 34.0267 26.7495 34.0812C26.7214 34.1349 26.7007 34.1973 26.7046 34.2621C26.7117 34.381 26.7955 34.4951 26.8806 34.5813C26.9699 34.672 27.0819 34.7531 27.1823 34.8054C28.0175 35.2482 28.8601 35.6835 29.7228 36.0743C29.9919 36.198 30.0768 36.3079 30.0903 36.406C30.0975 36.458 30.0873 36.5207 30.0531 36.6002C30.0187 36.6799 29.9629 36.7704 29.8866 36.8754L29.8864 36.8756C28.6382 38.6026 26.4322 39.2297 24.5422 38.3789C22.4951 37.4565 21.4882 35.4196 21.9722 33.16L21.9723 33.1598C22.3865 31.2018 24.2432 29.736 26.3077 29.7358C27.8443 29.7482 29.0108 30.4494 29.9144 31.6859L29.9149 31.6866C30.057 31.8775 30.1006 31.9996 30.0839 32.0872C30.0681 32.1697 29.9889 32.2649 29.7528 32.3739ZM29.7528 32.3739L29.7947 32.4647M29.7528 32.3739C29.7528 32.3739 29.7528 32.3739 29.7528 32.3739L29.7947 32.4647M29.7947 32.4647C28.9168 32.8696 28.0583 33.3206 27.2067 33.78L29.9951 31.6269C30.2799 32.0095 30.2758 32.2427 29.7947 32.4647ZM37.3298 39.9194L37.3298 39.9194C37.5176 40.0139 37.6775 40.0812 37.8118 40.1124C37.9455 40.1435 38.0708 40.1426 38.1738 40.0774C38.2763 40.0125 38.3322 39.8992 38.3641 39.7636C38.3962 39.6271 38.408 39.4505 38.408 39.2353V39.2256V39.2159V39.2062V39.1965V39.1869V39.1772V39.1675V39.1578V39.1482V39.1385V39.1288V39.1191V39.1094V39.0998V39.0901V39.0804V39.0707V39.0611V39.0514V39.0417V39.032V39.0223V39.0127V39.003V38.9933V38.9836V38.9739V38.9643V38.9546V38.9449V38.9352V38.9256V38.9159V38.9062V38.8965V38.8868V38.8772V38.8675V38.8578V38.8481V38.8384V38.8288V38.8191V38.8094V38.7997V38.7901V38.7804V38.7707V38.761V38.7513V38.7417V38.732V38.7223V38.7126V38.7029V38.6933V38.6836V38.6739V38.6642V38.6546V38.6449V38.6352V38.6255V38.6158V38.6062V38.5965V38.5868V38.5771V38.5674V38.5578V38.5481V38.5384V38.5287V38.5191V38.5094V38.4997V38.49V38.4803V38.4707V38.461V38.4513V38.4416V38.4319V38.4223V38.4126V38.4029V38.3932V38.3836V38.3739V38.3642V38.3545V38.3448V38.3352V38.3255V38.3158V38.3061V38.2964V38.2868V38.2771V38.2674V38.2577V38.2481V38.2384V38.2287V38.219V38.2093V38.1997V38.19V38.1803V38.1706V38.1609V38.1513V38.1416V38.1319V38.1222V38.1126V38.1029V38.0932V38.0835V38.0738V38.0642V38.0545V38.0448V38.0351V38.0254V38.0158V38.0061V37.9964V37.9867V37.9771V37.9674V37.9577V37.948V37.9383V37.9287V37.919V37.9093V37.8996V37.8899V37.8803V37.8706V37.8609V37.8512V37.8416V37.8319V37.8222V37.8125V37.8028V37.7932V37.7835V37.7738V37.7641V37.7544V37.7448V37.7351V37.7254V37.7157V37.7061V37.6964V37.6867V37.677V37.6673V37.6577V37.648V37.6383V37.6286V37.6189V37.6093V37.5996V37.5899V37.5802V37.5706V37.5609V37.5512V37.5415V37.5318V37.5222V37.5125V37.5028V37.4931V37.4834V37.4738V37.4641V37.4544V37.4447V37.4351V37.4254V37.4157V37.406V37.3963V37.3867V37.377V37.3673V37.3576V37.3479V37.3383V37.3286V37.3189V37.3092V37.2996V37.2899V37.2802V37.2705V37.2608V37.2512V37.2415V37.2318V37.2221V37.2124V37.2028V37.1931V37.1834V37.1737V37.1641V37.1544V37.1447V37.135V37.1253V37.1157V37.106V37.0963V37.0866V37.077V37.0673V37.0576V37.0479V37.0382V37.0286V37.0189V37.0092V36.9995V36.9898V36.9802V36.9705V36.9608V36.9511V36.9415V36.9318V36.9221V36.9124V36.9027V36.8931V36.8834V36.8737V36.864V36.8543V36.8447V36.835V36.8253V36.8156V36.806V36.7963V36.7866V36.7769V36.7672V36.7576V36.7479V36.7382V36.7285V36.7188V36.7092V36.6995V36.6898V36.6801V36.6705V36.6608V36.6511V36.6414V36.6317V36.6221V36.6124V36.6027V36.593V36.5833V36.5737V36.564V36.5543V36.5446V36.535V36.5253V36.5156V36.5059V36.4962V36.4866V36.4769V36.4672V36.4575V36.4478V36.4382V36.4285V36.4188V36.4091V36.3995V36.3898V36.3801V36.3704V36.3607V36.3511V36.3414V36.3317V36.322V36.3123V36.3027V36.293V36.2833V36.2736V36.264V36.2543V36.2446V36.2349V36.2252V36.2156V36.2059V36.1962V36.1865V36.1768V36.1672V36.1575V36.1478V36.1381V36.1285V36.1188V36.1091V36.0994V36.0897V36.0801V36.0704V36.0607V36.051V36.0413V36.0317V36.022V36.0123V36.0026V35.993V35.9833V35.9736V35.9639V35.9542V35.9446V35.9349V35.9252V35.9155V35.9058V35.8962V35.8865V35.8768V35.8671V35.8575V35.8478V35.8381V35.8284V35.8187V35.8091V35.7994V35.7897V35.78V35.7703V35.7607V35.751V35.7413V35.7316V35.722V35.7123V35.7026V35.6929V35.6832V35.6736V35.6639V35.6542V35.6445V35.6348V35.6252V35.6155V35.6058V35.5961V35.5865V35.5768V35.5671V35.5574V35.5477V35.5381V35.5284V35.5187V35.509V35.4993V35.4897V35.48V35.4703V35.4606V35.451V35.4413V35.4316V35.4219V35.4122V35.4026V35.3929V35.3832V35.3735V35.3638V35.3542V35.3445V35.3348V35.3251V35.3155V35.3058V35.2961V35.2864V35.2767V35.2671V35.2574V35.2477V35.238V35.2283V35.2187V35.209V35.1993V35.1896V35.18V35.1703V35.1606V35.1509V35.1412V35.1316V35.1219V35.1122V35.1025V35.0928V35.0832V35.0735V35.0638V35.0541V35.0445V35.0348V35.0251V35.0154V35.0057V34.9961V34.9864V34.9767V34.967V34.9574V34.9477V34.938V34.9283V34.9186V34.909V34.8993V34.8896V34.8799V34.8702V34.8606V34.8509V34.8412V34.8315V34.8219V34.8122V34.8025V34.7928V34.7831V34.7735V34.7638V34.7541V34.7444V34.7347V34.7251V34.7154V34.7057V34.696V34.6864V34.6767V34.667V34.6573V34.6476V34.638V34.6283V34.6186V34.6089V34.5992V34.5896V34.5799V34.5702V34.5605V34.5509V34.5412V34.5315V34.5218V34.5121V34.5025V34.4928V34.4831V34.4734V34.4637V34.4541V34.4444V34.4347V34.425V34.4154V34.4057V34.396V34.3863V34.3766V34.367V34.3573V34.3476V34.3379V34.3282V34.3186V34.3089V34.2992V34.2895V34.28C38.4098 32.6286 38.4103 30.979 38.4094 29.3314V29.3311C38.4087 29.086 38.3969 28.8877 38.3634 28.7369C38.3303 28.5877 38.2711 28.464 38.1579 28.3973C38.0453 28.3311 37.9075 28.338 37.7589 28.3784C37.6085 28.4194 37.4257 28.5008 37.2063 28.6126L37.2063 28.6126C36.339 29.055 35.4689 29.4946 34.5987 29.9341C33.554 30.4618 32.5092 30.9896 31.4689 31.5226L31.4688 31.5226C31.2967 31.6109 31.1892 31.6317 31.1057 31.6099C31.0223 31.5881 30.9341 31.5163 30.8215 31.3422C29.7245 29.6462 28.1535 28.8049 26.1361 28.8475C23.4717 28.8987 21.4783 30.7032 20.9467 33.5367C20.5208 35.8061 22.051 38.3935 24.3476 39.3196L24.3487 39.32C25.4867 39.7643 26.7412 39.8006 27.9026 39.4229C29.0639 39.0452 30.0615 38.2765 30.7288 37.2454L30.7291 37.2451C30.8762 37.0156 30.9913 36.9182 31.105 36.8899C31.2197 36.8613 31.3634 36.8953 31.59 37.0131L31.5901 37.0132C33.0186 37.7539 34.4566 38.4759 35.8939 39.1976C36.3727 39.438 36.8515 39.6784 37.3298 39.9194ZM37.42 29.5569V38.9234L28.2478 34.2984L28.2303 34.1975C31.2596 32.6698 34.2858 31.1416 37.42 29.5569Z" fill="#6651E6" stroke="#6651E6" stroke-width="0.2"/>
</svg>
