<svg width="61" height="61" viewBox="0 0 61 61" fill="none" xmlns="http://www.w3.org/2000/svg">
<mask id="path-1-outside-1" maskUnits="userSpaceOnUse" x="3.53125" y="3.53125" width="54" height="54" fill="black">
<rect fill="white" x="3.53125" y="3.53125" width="54" height="54"/>
<path d="M30.4415 56.7417H17.7288C16.7851 56.7417 16.777 56.7253 16.7634 55.7827C16.747 53.907 16.743 53.8248 14.9154 53.907C11.5091 54.0632 8.36529 50.7983 9.5116 46.7168C9.57945 46.3545 9.50274 45.9799 9.29811 45.6742C7.06788 42.5212 5.57343 38.9013 4.92638 35.0848C4.15129 30.5484 4.50484 26.0792 6.09036 21.7456C7.80138 16.9666 10.8706 12.8006 14.9154 9.76699C18.2877 7.21452 22.0448 5.53206 26.2248 4.88401C34.4597 3.60983 41.7128 5.791 47.908 11.37C52.4864 15.4926 55.221 20.7167 56.0967 26.8095C57.0486 33.4284 55.6779 39.6061 51.9235 45.1823C51.4938 45.8208 51.2858 46.3647 51.4816 47.2224C52.2825 50.7339 49.7669 53.8221 46.1784 53.8865C45.6793 53.8961 45.1803 53.8975 44.6826 53.8961C44.3141 53.8961 44.1482 54.0701 44.1577 54.4441C44.1686 54.9236 44.1305 55.4032 44.1577 55.8827C44.2053 56.5431 43.932 56.7527 43.2834 56.7486C39.0082 56.7308 34.7248 56.7417 30.4415 56.7417ZM10.0773 45.3604C10.1765 45.2974 10.2486 45.2755 10.2867 45.2234C11.5703 43.519 13.2918 42.834 15.3873 42.908C16.883 42.9614 16.883 42.9176 16.7797 41.4009C16.7797 41.3776 16.7797 41.3461 16.7797 41.3338C16.6165 41.1694 16.4642 40.8871 16.2847 40.8666C15.7245 40.8035 15.1534 40.8488 14.5863 40.8364C10.4866 40.7474 7.93424 36.1302 10.027 32.5871C11.229 30.5539 13.0675 29.7702 15.3492 29.8182C16.9021 29.8497 16.8912 29.8182 16.7906 28.2905C16.7661 27.9083 16.6165 27.7576 16.2575 27.7521C15.5776 27.7425 14.8977 27.7521 14.2178 27.7028C12.5494 27.5808 11.2453 26.7698 10.3016 25.412C9.07782 23.6569 8.92009 21.7415 9.84203 19.833C10.8306 17.7779 12.5303 16.7654 14.8175 16.7599C16.7661 16.7599 16.7906 16.7394 16.7702 14.7774C16.7702 14.1061 16.9959 13.917 17.6391 13.9184C23.8492 13.9321 30.0594 13.9184 36.2682 13.9184C38.6478 13.9184 41.0275 13.9375 43.4085 13.9184C43.966 13.9184 44.1958 14.1239 44.17 14.6829C44.1482 15.161 44.1944 15.6419 44.17 16.1214C44.1523 16.5681 44.3508 16.7352 44.7737 16.7339C45.4087 16.7339 46.0465 16.7229 46.6774 16.7805C48.9292 16.9901 50.4848 18.2204 51.2885 20.2975C52.0758 22.3375 51.6679 24.2598 50.2306 25.908C49.0067 27.3096 47.4117 27.7918 45.5923 27.7562C44.0965 27.7274 44.0081 27.8576 44.1863 29.3236C44.2199 29.4351 44.2805 29.5364 44.3626 29.6184C44.4448 29.7005 44.5458 29.7606 44.6568 29.7935C45.217 29.8579 45.7881 29.8086 46.3552 29.825C47.4517 29.8521 48.514 30.2152 49.4006 30.8657C50.2873 31.5163 50.9562 32.4236 51.3184 33.4667C52.0744 35.6479 51.5903 37.6126 49.9831 39.2608C48.6967 40.5775 47.0677 40.9049 45.3013 40.8446C44.1591 40.8049 44.1577 40.8378 44.1618 41.9818C44.1618 42.9094 44.1618 42.9094 45.1137 42.9176C45.4536 42.9176 45.7936 42.9176 46.1335 42.9176C47.8713 42.9176 49.295 43.6026 50.4169 44.9343C50.542 45.0823 50.6739 45.2248 50.8112 45.3796C56.9112 37.5975 58.3322 23.2116 48.4696 12.936C39.0653 3.14263 23.1217 2.40552 12.8526 12.525C3.14233 22.0923 3.3667 36.5371 10.0773 45.3604ZM30.4741 17.4312C25.2621 17.4312 20.0486 17.4121 14.8365 17.4422C12.9927 17.4573 11.5418 18.2793 10.6212 19.8974C9.68701 21.5525 9.75636 23.2281 10.768 24.8297C11.7566 26.3916 13.2728 27.0287 15.0487 27.0438C18.0851 27.0684 21.1215 27.0369 24.1593 27.0369C31.4573 27.0369 38.7539 27.0547 46.0519 27.0369C48.8517 27.0369 51.0288 24.7653 50.9132 22.058C50.856 20.8108 50.3229 19.6341 49.4252 18.7735C48.5275 17.9129 47.3346 17.435 46.0954 17.4395C40.8888 17.4203 35.6767 17.4312 30.4633 17.4312H30.4741ZM30.4075 53.2234C35.6658 53.2234 40.9228 53.2384 46.1811 53.2151C48.5471 53.2056 50.44 51.5354 50.886 49.157C51.2667 47.1374 50.0483 44.8576 48.0304 44.0739C47.2241 43.7799 46.3723 43.6328 45.5148 43.6396C36.8801 43.6095 28.2454 43.6218 19.6121 43.6218C18.0715 43.6218 16.5295 43.5985 14.9888 43.6218C11.8613 43.6821 9.71012 46.0441 10.0405 49.0213C10.3003 51.3724 12.3726 53.2069 14.8325 53.2124C20.0173 53.233 25.2077 53.2234 30.3966 53.2234H30.4075ZM30.4252 30.5622H29.3374C24.4883 30.5622 19.6393 30.5457 14.7876 30.5622C12.3291 30.5704 10.2935 32.3748 10.0446 34.6998C9.73052 37.6537 11.8763 40.0884 14.8393 40.0925C22.9518 40.1034 31.0652 40.1034 39.1795 40.0925C41.536 40.0925 43.8939 40.113 46.2504 40.0842C46.8753 40.0782 47.4928 39.9475 48.0673 39.6998C48.6418 39.4521 49.1619 39.0922 49.5977 38.6409C50.0334 38.1897 50.3762 37.6559 50.6062 37.0705C50.8361 36.4851 50.9488 35.8595 50.9376 35.23C50.9077 32.6611 48.781 30.5717 46.1308 30.558C40.8834 30.5512 35.6495 30.5622 30.4143 30.5622H30.4252ZM30.4945 55.98H42.4607C43.4207 55.98 43.4207 55.98 43.4207 54.9784C43.4207 53.9331 43.4207 53.9303 42.4281 53.929C40.2089 53.929 37.9883 53.9221 35.7651 53.929C33.0251 53.9372 30.2838 53.9591 27.5424 53.9701C24.3945 53.9824 21.2452 53.9879 18.0973 54.0057C17.9505 54.0057 17.6894 54.0783 17.6771 54.1427C17.6014 54.6754 17.5873 55.2152 17.635 55.7512C17.6499 55.8635 18.1707 55.9731 18.459 55.9745C22.4622 55.9855 26.4723 55.98 30.4837 55.98H30.4945ZM30.4687 16.6804C34.5018 16.6804 38.5359 16.6782 42.5708 16.6736C42.8251 16.6736 43.2793 16.601 43.2983 16.4982C43.4041 15.9908 43.4193 15.4683 43.3432 14.9555C43.3174 14.8185 42.783 14.6924 42.4825 14.6911C37.25 14.6756 32.017 14.6719 26.7837 14.6801C23.9743 14.6801 21.1664 14.6801 18.353 14.6801C18.115 14.6801 17.6853 14.739 17.6731 14.8171C17.5817 15.3469 17.5661 15.8872 17.6268 16.4215C17.6431 16.5407 18.1572 16.6599 18.4427 16.6613C22.4391 16.6859 26.4492 16.6818 30.4578 16.6804H30.4687ZM30.4864 29.799V29.7881H31.1663C34.9964 29.7881 38.8269 29.7858 42.6579 29.7812C42.8863 29.7812 43.2997 29.6921 43.3106 29.6058C43.3956 29.0929 43.3956 28.5692 43.3106 28.0563C43.2807 27.9193 42.7313 27.8329 42.4199 27.8316C38.9293 27.8165 35.4387 27.8247 31.9495 27.8247C27.3933 27.8247 22.8376 27.8247 18.2823 27.8247C18.0674 27.8247 17.6771 27.8891 17.6676 27.9617C17.59 28.4948 17.5781 29.0355 17.6323 29.5716C17.6459 29.6798 18.1259 29.7935 18.391 29.7935C22.4065 29.8031 26.441 29.799 30.4741 29.799H30.4864ZM30.4211 42.8409V42.8546H42.3043C43.4194 42.8546 43.3799 42.8546 43.4262 41.7393C43.4561 41.0351 43.214 40.8611 42.5328 40.8666C38.2059 40.894 33.8804 40.8666 29.5549 40.8666C25.7946 40.8666 22.0326 40.8666 18.2687 40.8666C18.0416 40.8666 17.6309 40.9625 17.6187 41.0556C17.5368 41.5673 17.54 42.0891 17.6282 42.5997C17.6581 42.7367 18.2061 42.8203 18.5161 42.8217C22.4826 42.845 26.4464 42.8409 30.4102 42.8409H30.4211Z"/>
</mask>
<path d="M30.4415 56.7417H17.7288C16.7851 56.7417 16.777 56.7253 16.7634 55.7827C16.747 53.907 16.743 53.8248 14.9154 53.907C11.5091 54.0632 8.36529 50.7983 9.5116 46.7168C9.57945 46.3545 9.50274 45.9799 9.29811 45.6742C7.06788 42.5212 5.57343 38.9013 4.92638 35.0848C4.15129 30.5484 4.50484 26.0792 6.09036 21.7456C7.80138 16.9666 10.8706 12.8006 14.9154 9.76699C18.2877 7.21452 22.0448 5.53206 26.2248 4.88401C34.4597 3.60983 41.7128 5.791 47.908 11.37C52.4864 15.4926 55.221 20.7167 56.0967 26.8095C57.0486 33.4284 55.6779 39.6061 51.9235 45.1823C51.4938 45.8208 51.2858 46.3647 51.4816 47.2224C52.2825 50.7339 49.7669 53.8221 46.1784 53.8865C45.6793 53.8961 45.1803 53.8975 44.6826 53.8961C44.3141 53.8961 44.1482 54.0701 44.1577 54.4441C44.1686 54.9236 44.1305 55.4032 44.1577 55.8827C44.2053 56.5431 43.932 56.7527 43.2834 56.7486C39.0082 56.7308 34.7248 56.7417 30.4415 56.7417ZM10.0773 45.3604C10.1765 45.2974 10.2486 45.2755 10.2867 45.2234C11.5703 43.519 13.2918 42.834 15.3873 42.908C16.883 42.9614 16.883 42.9176 16.7797 41.4009C16.7797 41.3776 16.7797 41.3461 16.7797 41.3338C16.6165 41.1694 16.4642 40.8871 16.2847 40.8666C15.7245 40.8035 15.1534 40.8488 14.5863 40.8364C10.4866 40.7474 7.93424 36.1302 10.027 32.5871C11.229 30.5539 13.0675 29.7702 15.3492 29.8182C16.9021 29.8497 16.8912 29.8182 16.7906 28.2905C16.7661 27.9083 16.6165 27.7576 16.2575 27.7521C15.5776 27.7425 14.8977 27.7521 14.2178 27.7028C12.5494 27.5808 11.2453 26.7698 10.3016 25.412C9.07782 23.6569 8.92009 21.7415 9.84203 19.833C10.8306 17.7779 12.5303 16.7654 14.8175 16.7599C16.7661 16.7599 16.7906 16.7394 16.7702 14.7774C16.7702 14.1061 16.9959 13.917 17.6391 13.9184C23.8492 13.9321 30.0594 13.9184 36.2682 13.9184C38.6478 13.9184 41.0275 13.9375 43.4085 13.9184C43.966 13.9184 44.1958 14.1239 44.17 14.6829C44.1482 15.161 44.1944 15.6419 44.17 16.1214C44.1523 16.5681 44.3508 16.7352 44.7737 16.7339C45.4087 16.7339 46.0465 16.7229 46.6774 16.7805C48.9292 16.9901 50.4848 18.2204 51.2885 20.2975C52.0758 22.3375 51.6679 24.2598 50.2306 25.908C49.0067 27.3096 47.4117 27.7918 45.5923 27.7562C44.0965 27.7274 44.0081 27.8576 44.1863 29.3236C44.2199 29.4351 44.2805 29.5364 44.3626 29.6184C44.4448 29.7005 44.5458 29.7606 44.6568 29.7935C45.217 29.8579 45.7881 29.8086 46.3552 29.825C47.4517 29.8521 48.514 30.2152 49.4006 30.8657C50.2873 31.5163 50.9562 32.4236 51.3184 33.4667C52.0744 35.6479 51.5903 37.6126 49.9831 39.2608C48.6967 40.5775 47.0677 40.9049 45.3013 40.8446C44.1591 40.8049 44.1577 40.8378 44.1618 41.9818C44.1618 42.9094 44.1618 42.9094 45.1137 42.9176C45.4536 42.9176 45.7936 42.9176 46.1335 42.9176C47.8713 42.9176 49.295 43.6026 50.4169 44.9343C50.542 45.0823 50.6739 45.2248 50.8112 45.3796C56.9112 37.5975 58.3322 23.2116 48.4696 12.936C39.0653 3.14263 23.1217 2.40552 12.8526 12.525C3.14233 22.0923 3.3667 36.5371 10.0773 45.3604ZM30.4741 17.4312C25.2621 17.4312 20.0486 17.4121 14.8365 17.4422C12.9927 17.4573 11.5418 18.2793 10.6212 19.8974C9.68701 21.5525 9.75636 23.2281 10.768 24.8297C11.7566 26.3916 13.2728 27.0287 15.0487 27.0438C18.0851 27.0684 21.1215 27.0369 24.1593 27.0369C31.4573 27.0369 38.7539 27.0547 46.0519 27.0369C48.8517 27.0369 51.0288 24.7653 50.9132 22.058C50.856 20.8108 50.3229 19.6341 49.4252 18.7735C48.5275 17.9129 47.3346 17.435 46.0954 17.4395C40.8888 17.4203 35.6767 17.4312 30.4633 17.4312H30.4741ZM30.4075 53.2234C35.6658 53.2234 40.9228 53.2384 46.1811 53.2151C48.5471 53.2056 50.44 51.5354 50.886 49.157C51.2667 47.1374 50.0483 44.8576 48.0304 44.0739C47.2241 43.7799 46.3723 43.6328 45.5148 43.6396C36.8801 43.6095 28.2454 43.6218 19.6121 43.6218C18.0715 43.6218 16.5295 43.5985 14.9888 43.6218C11.8613 43.6821 9.71012 46.0441 10.0405 49.0213C10.3003 51.3724 12.3726 53.2069 14.8325 53.2124C20.0173 53.233 25.2077 53.2234 30.3966 53.2234H30.4075ZM30.4252 30.5622H29.3374C24.4883 30.5622 19.6393 30.5457 14.7876 30.5622C12.3291 30.5704 10.2935 32.3748 10.0446 34.6998C9.73052 37.6537 11.8763 40.0884 14.8393 40.0925C22.9518 40.1034 31.0652 40.1034 39.1795 40.0925C41.536 40.0925 43.8939 40.113 46.2504 40.0842C46.8753 40.0782 47.4928 39.9475 48.0673 39.6998C48.6418 39.4521 49.1619 39.0922 49.5977 38.6409C50.0334 38.1897 50.3762 37.6559 50.6062 37.0705C50.8361 36.4851 50.9488 35.8595 50.9376 35.23C50.9077 32.6611 48.781 30.5717 46.1308 30.558C40.8834 30.5512 35.6495 30.5622 30.4143 30.5622H30.4252ZM30.4945 55.98H42.4607C43.4207 55.98 43.4207 55.98 43.4207 54.9784C43.4207 53.9331 43.4207 53.9303 42.4281 53.929C40.2089 53.929 37.9883 53.9221 35.7651 53.929C33.0251 53.9372 30.2838 53.9591 27.5424 53.9701C24.3945 53.9824 21.2452 53.9879 18.0973 54.0057C17.9505 54.0057 17.6894 54.0783 17.6771 54.1427C17.6014 54.6754 17.5873 55.2152 17.635 55.7512C17.6499 55.8635 18.1707 55.9731 18.459 55.9745C22.4622 55.9855 26.4723 55.98 30.4837 55.98H30.4945ZM30.4687 16.6804C34.5018 16.6804 38.5359 16.6782 42.5708 16.6736C42.8251 16.6736 43.2793 16.601 43.2983 16.4982C43.4041 15.9908 43.4193 15.4683 43.3432 14.9555C43.3174 14.8185 42.783 14.6924 42.4825 14.6911C37.25 14.6756 32.017 14.6719 26.7837 14.6801C23.9743 14.6801 21.1664 14.6801 18.353 14.6801C18.115 14.6801 17.6853 14.739 17.6731 14.8171C17.5817 15.3469 17.5661 15.8872 17.6268 16.4215C17.6431 16.5407 18.1572 16.6599 18.4427 16.6613C22.4391 16.6859 26.4492 16.6818 30.4578 16.6804H30.4687ZM30.4864 29.799V29.7881H31.1663C34.9964 29.7881 38.8269 29.7858 42.6579 29.7812C42.8863 29.7812 43.2997 29.6921 43.3106 29.6058C43.3956 29.0929 43.3956 28.5692 43.3106 28.0563C43.2807 27.9193 42.7313 27.8329 42.4199 27.8316C38.9293 27.8165 35.4387 27.8247 31.9495 27.8247C27.3933 27.8247 22.8376 27.8247 18.2823 27.8247C18.0674 27.8247 17.6771 27.8891 17.6676 27.9617C17.59 28.4948 17.5781 29.0355 17.6323 29.5716C17.6459 29.6798 18.1259 29.7935 18.391 29.7935C22.4065 29.8031 26.441 29.799 30.4741 29.799H30.4864ZM30.4211 42.8409V42.8546H42.3043C43.4194 42.8546 43.3799 42.8546 43.4262 41.7393C43.4561 41.0351 43.214 40.8611 42.5328 40.8666C38.2059 40.894 33.8804 40.8666 29.5549 40.8666C25.7946 40.8666 22.0326 40.8666 18.2687 40.8666C18.0416 40.8666 17.6309 40.9625 17.6187 41.0556C17.5368 41.5673 17.54 42.0891 17.6282 42.5997C17.6581 42.7367 18.2061 42.8203 18.5161 42.8217C22.4826 42.845 26.4464 42.8409 30.4102 42.8409H30.4211Z" fill="#017FDD"/>
<path d="M30.4415 56.7417H17.7288C16.7851 56.7417 16.777 56.7253 16.7634 55.7827C16.747 53.907 16.743 53.8248 14.9154 53.907C11.5091 54.0632 8.36529 50.7983 9.5116 46.7168C9.57945 46.3545 9.50274 45.9799 9.29811 45.6742C7.06788 42.5212 5.57343 38.9013 4.92638 35.0848C4.15129 30.5484 4.50484 26.0792 6.09036 21.7456C7.80138 16.9666 10.8706 12.8006 14.9154 9.76699C18.2877 7.21452 22.0448 5.53206 26.2248 4.88401C34.4597 3.60983 41.7128 5.791 47.908 11.37C52.4864 15.4926 55.221 20.7167 56.0967 26.8095C57.0486 33.4284 55.6779 39.6061 51.9235 45.1823C51.4938 45.8208 51.2858 46.3647 51.4816 47.2224C52.2825 50.7339 49.7669 53.8221 46.1784 53.8865C45.6793 53.8961 45.1803 53.8975 44.6826 53.8961C44.3141 53.8961 44.1482 54.0701 44.1577 54.4441C44.1686 54.9236 44.1305 55.4032 44.1577 55.8827C44.2053 56.5431 43.932 56.7527 43.2834 56.7486C39.0082 56.7308 34.7248 56.7417 30.4415 56.7417ZM10.0773 45.3604C10.1765 45.2974 10.2486 45.2755 10.2867 45.2234C11.5703 43.519 13.2918 42.834 15.3873 42.908C16.883 42.9614 16.883 42.9176 16.7797 41.4009C16.7797 41.3776 16.7797 41.3461 16.7797 41.3338C16.6165 41.1694 16.4642 40.8871 16.2847 40.8666C15.7245 40.8035 15.1534 40.8488 14.5863 40.8364C10.4866 40.7474 7.93424 36.1302 10.027 32.5871C11.229 30.5539 13.0675 29.7702 15.3492 29.8182C16.9021 29.8497 16.8912 29.8182 16.7906 28.2905C16.7661 27.9083 16.6165 27.7576 16.2575 27.7521C15.5776 27.7425 14.8977 27.7521 14.2178 27.7028C12.5494 27.5808 11.2453 26.7698 10.3016 25.412C9.07782 23.6569 8.92009 21.7415 9.84203 19.833C10.8306 17.7779 12.5303 16.7654 14.8175 16.7599C16.7661 16.7599 16.7906 16.7394 16.7702 14.7774C16.7702 14.1061 16.9959 13.917 17.6391 13.9184C23.8492 13.9321 30.0594 13.9184 36.2682 13.9184C38.6478 13.9184 41.0275 13.9375 43.4085 13.9184C43.966 13.9184 44.1958 14.1239 44.17 14.6829C44.1482 15.161 44.1944 15.6419 44.17 16.1214C44.1523 16.5681 44.3508 16.7352 44.7737 16.7339C45.4087 16.7339 46.0465 16.7229 46.6774 16.7805C48.9292 16.9901 50.4848 18.2204 51.2885 20.2975C52.0758 22.3375 51.6679 24.2598 50.2306 25.908C49.0067 27.3096 47.4117 27.7918 45.5923 27.7562C44.0965 27.7274 44.0081 27.8576 44.1863 29.3236C44.2199 29.4351 44.2805 29.5364 44.3626 29.6184C44.4448 29.7005 44.5458 29.7606 44.6568 29.7935C45.217 29.8579 45.7881 29.8086 46.3552 29.825C47.4517 29.8521 48.514 30.2152 49.4006 30.8657C50.2873 31.5163 50.9562 32.4236 51.3184 33.4667C52.0744 35.6479 51.5903 37.6126 49.9831 39.2608C48.6967 40.5775 47.0677 40.9049 45.3013 40.8446C44.1591 40.8049 44.1577 40.8378 44.1618 41.9818C44.1618 42.9094 44.1618 42.9094 45.1137 42.9176C45.4536 42.9176 45.7936 42.9176 46.1335 42.9176C47.8713 42.9176 49.295 43.6026 50.4169 44.9343C50.542 45.0823 50.6739 45.2248 50.8112 45.3796C56.9112 37.5975 58.3322 23.2116 48.4696 12.936C39.0653 3.14263 23.1217 2.40552 12.8526 12.525C3.14233 22.0923 3.3667 36.5371 10.0773 45.3604ZM30.4741 17.4312C25.2621 17.4312 20.0486 17.4121 14.8365 17.4422C12.9927 17.4573 11.5418 18.2793 10.6212 19.8974C9.68701 21.5525 9.75636 23.2281 10.768 24.8297C11.7566 26.3916 13.2728 27.0287 15.0487 27.0438C18.0851 27.0684 21.1215 27.0369 24.1593 27.0369C31.4573 27.0369 38.7539 27.0547 46.0519 27.0369C48.8517 27.0369 51.0288 24.7653 50.9132 22.058C50.856 20.8108 50.3229 19.6341 49.4252 18.7735C48.5275 17.9129 47.3346 17.435 46.0954 17.4395C40.8888 17.4203 35.6767 17.4312 30.4633 17.4312H30.4741ZM30.4075 53.2234C35.6658 53.2234 40.9228 53.2384 46.1811 53.2151C48.5471 53.2056 50.44 51.5354 50.886 49.157C51.2667 47.1374 50.0483 44.8576 48.0304 44.0739C47.2241 43.7799 46.3723 43.6328 45.5148 43.6396C36.8801 43.6095 28.2454 43.6218 19.6121 43.6218C18.0715 43.6218 16.5295 43.5985 14.9888 43.6218C11.8613 43.6821 9.71012 46.0441 10.0405 49.0213C10.3003 51.3724 12.3726 53.2069 14.8325 53.2124C20.0173 53.233 25.2077 53.2234 30.3966 53.2234H30.4075ZM30.4252 30.5622H29.3374C24.4883 30.5622 19.6393 30.5457 14.7876 30.5622C12.3291 30.5704 10.2935 32.3748 10.0446 34.6998C9.73052 37.6537 11.8763 40.0884 14.8393 40.0925C22.9518 40.1034 31.0652 40.1034 39.1795 40.0925C41.536 40.0925 43.8939 40.113 46.2504 40.0842C46.8753 40.0782 47.4928 39.9475 48.0673 39.6998C48.6418 39.4521 49.1619 39.0922 49.5977 38.6409C50.0334 38.1897 50.3762 37.6559 50.6062 37.0705C50.8361 36.4851 50.9488 35.8595 50.9376 35.23C50.9077 32.6611 48.781 30.5717 46.1308 30.558C40.8834 30.5512 35.6495 30.5622 30.4143 30.5622H30.4252ZM30.4945 55.98H42.4607C43.4207 55.98 43.4207 55.98 43.4207 54.9784C43.4207 53.9331 43.4207 53.9303 42.4281 53.929C40.2089 53.929 37.9883 53.9221 35.7651 53.929C33.0251 53.9372 30.2838 53.9591 27.5424 53.9701C24.3945 53.9824 21.2452 53.9879 18.0973 54.0057C17.9505 54.0057 17.6894 54.0783 17.6771 54.1427C17.6014 54.6754 17.5873 55.2152 17.635 55.7512C17.6499 55.8635 18.1707 55.9731 18.459 55.9745C22.4622 55.9855 26.4723 55.98 30.4837 55.98H30.4945ZM30.4687 16.6804C34.5018 16.6804 38.5359 16.6782 42.5708 16.6736C42.8251 16.6736 43.2793 16.601 43.2983 16.4982C43.4041 15.9908 43.4193 15.4683 43.3432 14.9555C43.3174 14.8185 42.783 14.6924 42.4825 14.6911C37.25 14.6756 32.017 14.6719 26.7837 14.6801C23.9743 14.6801 21.1664 14.6801 18.353 14.6801C18.115 14.6801 17.6853 14.739 17.6731 14.8171C17.5817 15.3469 17.5661 15.8872 17.6268 16.4215C17.6431 16.5407 18.1572 16.6599 18.4427 16.6613C22.4391 16.6859 26.4492 16.6818 30.4578 16.6804H30.4687ZM30.4864 29.799V29.7881H31.1663C34.9964 29.7881 38.8269 29.7858 42.6579 29.7812C42.8863 29.7812 43.2997 29.6921 43.3106 29.6058C43.3956 29.0929 43.3956 28.5692 43.3106 28.0563C43.2807 27.9193 42.7313 27.8329 42.4199 27.8316C38.9293 27.8165 35.4387 27.8247 31.9495 27.8247C27.3933 27.8247 22.8376 27.8247 18.2823 27.8247C18.0674 27.8247 17.6771 27.8891 17.6676 27.9617C17.59 28.4948 17.5781 29.0355 17.6323 29.5716C17.6459 29.6798 18.1259 29.7935 18.391 29.7935C22.4065 29.8031 26.441 29.799 30.4741 29.799H30.4864ZM30.4211 42.8409V42.8546H42.3043C43.4194 42.8546 43.3799 42.8546 43.4262 41.7393C43.4561 41.0351 43.214 40.8611 42.5328 40.8666C38.2059 40.894 33.8804 40.8666 29.5549 40.8666C25.7946 40.8666 22.0326 40.8666 18.2687 40.8666C18.0416 40.8666 17.6309 40.9625 17.6187 41.0556C17.5368 41.5673 17.54 42.0891 17.6282 42.5997C17.6581 42.7367 18.2061 42.8203 18.5161 42.8217C22.4826 42.845 26.4464 42.8409 30.4102 42.8409H30.4211Z" stroke="#017FDD" stroke-width="0.4" mask="url(#path-1-outside-1)"/>
<path d="M60.1001 30.6336L60.0998 30.6336C60.0538 33.3574 59.6346 36.0618 58.8538 38.6701C58.8383 38.7946 58.7963 38.9144 58.7306 39.0212L58.723 39.0336L58.7122 39.0433C58.5576 39.1819 58.3935 39.3094 58.221 39.4247L58.1098 39.499L58.07 39.3713C58.052 39.3137 58.0308 39.2608 58.0082 39.2043C57.9927 39.1656 57.9765 39.1252 57.9601 39.0803C57.9232 38.9789 57.8903 38.8651 57.897 38.7481L57.8974 38.7397L57.8978 38.7397C57.9369 38.4637 58.0042 38.1924 58.0986 37.9303C59.7234 31.9955 59.3873 26.1613 57.222 20.4176C56.2425 17.8232 54.8946 15.3857 53.2204 13.1813L53.2197 13.1803L53.2197 13.1803C53.2048 13.1602 53.1881 13.1397 53.1693 13.1167L53.1678 13.1148C53.149 13.0918 53.1283 13.0664 53.1092 13.0403C53.0721 12.9895 53.0317 12.9241 53.0215 12.8478L53.0207 12.8419L53.0209 12.8419C53.0055 12.6372 53.0055 12.4316 53.0209 12.2269L53.0305 12.0978L53.153 12.1398C53.1953 12.1543 53.2433 12.166 53.2963 12.1777C53.3098 12.1807 53.3237 12.1837 53.3379 12.1868C53.3777 12.1954 53.4196 12.2044 53.4592 12.2145C53.5625 12.2409 53.6867 12.2819 53.7613 12.3788M60.1001 30.6336L58.194 37.9605C59.8257 32.0033 59.4885 26.1462 57.3155 20.3823C56.3327 17.7788 54.9801 15.3329 53.3001 13.1208C53.2837 13.0988 53.2657 13.0766 53.2475 13.0543C53.1899 12.9838 53.1309 12.9115 53.1206 12.8345C53.1082 12.6691 53.1061 12.5031 53.1142 12.3375C53.1054 12.3347 53.0967 12.3319 53.0881 12.329L53.1206 12.2344L53.2203 12.2418C53.2198 12.2487 53.2193 12.2556 53.2188 12.2624C53.2514 12.2704 53.285 12.2776 53.3184 12.2849C53.4653 12.3166 53.6117 12.3483 53.6822 12.4399C54.2261 13.1427 54.751 13.8579 55.2242 14.606M60.1001 30.6336L60.0996 30.6252C60.0855 30.4146 60.0722 30.2034 60.0589 29.992C60.0206 29.386 59.9823 28.778 59.9267 28.1736M60.1001 30.6336L59.8271 28.1822M53.7613 12.3788C53.7614 12.3788 53.7614 12.3789 53.7614 12.3789L53.6822 12.4399L53.7612 12.3787C53.7613 12.3787 53.7613 12.3788 53.7613 12.3788ZM53.7613 12.3788C54.3061 13.0828 54.8331 13.8007 55.3086 14.5525M55.3086 14.5525L55.2242 14.606M55.3086 14.5525C55.3087 14.5525 55.3087 14.5525 55.3087 14.5525L55.2242 14.606M55.3086 14.5525C57.9452 18.7125 59.5296 23.2409 59.9267 28.1736M55.2242 14.606C57.8527 18.7532 59.4314 23.2663 59.8271 28.1822M59.8271 28.1822L59.9267 28.173C59.9267 28.1732 59.9267 28.1734 59.9267 28.1736M59.8271 28.1822L59.9268 28.1741C59.9267 28.174 59.9267 28.1738 59.9267 28.1736" fill="#017FDD" stroke="#017FDD" stroke-width="0.2"/>
<path d="M28.3461 1.59693L28.4027 1.57198L28.4056 1.51021L28.4165 1.28277L28.4192 1.22588L28.3717 1.19452C28.3382 1.17245 28.3042 1.1462 28.2675 1.11715C28.2604 1.11152 28.2532 1.10574 28.2458 1.09988C28.2164 1.07641 28.1852 1.05153 28.1541 1.02862C28.0781 0.972663 27.9842 0.913789 27.8766 0.904363L27.8766 0.904329L27.874 0.904168C27.5488 0.884286 27.2224 0.901151 26.9009 0.954441C19.2561 2.0184 12.8746 5.4499 7.81802 11.3405L7.8177 11.3409C7.77737 11.3884 7.72736 11.4373 7.67153 11.492C7.65383 11.5093 7.63555 11.5272 7.61681 11.5458C7.54211 11.62 7.46207 11.7036 7.40329 11.7935C7.34439 11.8836 7.29999 11.9902 7.31217 12.1084C7.32454 12.2285 7.393 12.3393 7.51579 12.4416C7.6386 12.5439 7.75985 12.5903 7.87978 12.577C7.99716 12.564 8.09078 12.4961 8.16467 12.4197C8.23864 12.3431 8.30292 12.2473 8.35922 12.161C8.36625 12.1502 8.37314 12.1396 8.37991 12.1292C8.4298 12.0523 8.47304 11.9858 8.51639 11.9353C12.3756 7.45136 17.1018 4.33368 22.7924 2.77467L22.7924 2.77465C23.818 2.49293 24.8689 2.32252 25.9264 2.15104C26.4742 2.06222 27.0238 1.9731 27.5726 1.86808L27.5726 1.86833L27.5796 1.86647C27.8415 1.79652 28.0978 1.70641 28.3461 1.59693Z" fill="#017FDD" stroke="#017FDD" stroke-width="0.2"/>
<path d="M0.900002 29.9058H0.899996L0.900001 29.9069C0.914175 33.0216 1.41559 36.1146 2.38579 39.072L2.38604 39.0727C2.40781 39.1374 2.42314 39.2173 2.44074 39.309C2.44293 39.3205 2.44516 39.3321 2.44744 39.3439C2.46714 39.4458 2.49054 39.5592 2.53007 39.658C2.56953 39.7567 2.63059 39.855 2.7349 39.9104C2.84148 39.967 2.97139 39.9674 3.12313 39.9166L3.1235 39.9165C3.27029 39.8666 3.36982 39.7874 3.42018 39.6787C3.46908 39.573 3.46283 39.4579 3.43927 39.3536C3.41565 39.249 3.37141 39.142 3.32979 39.0458C3.32288 39.0299 3.31607 39.0143 3.3094 38.999C3.27431 38.9186 3.24331 38.8476 3.22363 38.7839C1.51181 33.2313 1.33461 27.6724 3.0189 22.0769C3.0791 21.9158 3.10628 21.744 3.0988 21.572L3.09936 21.572L3.09778 21.5615C3.08588 21.4823 3.05572 21.3889 3.01317 21.3092C2.99176 21.2691 2.96574 21.2297 2.93497 21.1967C2.9047 21.1642 2.86528 21.1329 2.81638 21.1178C2.76864 21.103 2.7188 21.1053 2.67522 21.1137C2.63071 21.1223 2.58591 21.1384 2.5442 21.1582C2.46189 21.1972 2.38 21.256 2.32521 21.3188L2.32452 21.3182L2.31706 21.3295C2.22334 21.4719 2.15861 21.6315 2.12655 21.7991C1.33061 24.4273 0.917457 27.158 0.900002 29.9058Z" fill="#017FDD" stroke="#017FDD" stroke-width="0.2"/>
<path d="M40.2812 59.5926L40.1235 59.6867C40.0704 59.7183 40.0162 59.7568 39.9589 59.7986C39.9472 59.8072 39.9352 59.816 39.9232 59.8249C39.8778 59.8583 39.8305 59.8931 39.7835 59.9249C39.6669 60.0038 39.53 60.0808 39.3821 60.0817C35.6423 60.1063 31.9015 60.1063 28.1599 60.0817L28.1605 59.9817V60.0817C28.0149 60.0817 27.8821 59.9952 27.7734 59.9121C27.7325 59.8808 27.691 59.8467 27.6512 59.8139C27.6365 59.8018 27.622 59.7898 27.6078 59.7783C27.5539 59.7343 27.5031 59.6947 27.4538 59.663L27.3064 59.5683L27.4628 59.4895C27.5119 59.4648 27.5622 59.4342 27.6155 59.4005C27.6288 59.392 27.6425 59.3833 27.6563 59.3745C27.6964 59.3489 27.7381 59.3222 27.7794 59.2978C27.8892 59.2327 28.0168 59.1696 28.1538 59.1678L40.2812 59.5926ZM40.2812 59.5926L40.1166 59.5112M40.2812 59.5926L40.1166 59.5112M40.1166 59.5112C40.0634 59.4848 40.0089 59.4519 39.9514 59.4156C39.936 59.4059 39.9202 59.3958 39.9041 59.3855C39.862 59.3587 39.8182 59.3307 39.775 59.3051C39.6573 59.2353 39.5211 59.1681 39.3755 59.1678M40.1166 59.5112L39.3755 59.1678M39.3755 59.1678C37.9573 59.1469 36.5382 59.1492 35.1197 59.1514C34.6796 59.1521 34.2395 59.1528 33.7996 59.1528C33.3884 59.1528 32.9772 59.1523 32.5658 59.1518C31.0961 59.1502 29.6249 59.1486 28.1538 59.1678L39.3755 59.1678Z" fill="#017FDD" stroke="#017FDD" stroke-width="0.2"/>
<path d="M46.724 5.77501L46.7768 5.80078C46.9136 5.86766 47.046 5.94354 47.173 6.02792L47.1794 6.03217L47.1792 6.0324C47.408 6.21104 47.638 6.38866 47.8681 6.56637C48.5182 7.06839 49.1693 7.57113 49.7944 8.09955L49.7298 8.17592M46.724 5.77501L46.6297 6.74589C47.4821 7.45108 48.3592 8.14271 49.2528 8.80427M46.724 5.77501L46.6758 5.80849M46.724 5.77501L46.6758 5.80849M49.7298 8.17592L49.7938 8.09908C49.9016 8.18881 49.9536 8.32985 49.9899 8.45576C50.0044 8.50581 50.0165 8.55347 50.0281 8.59914C50.0486 8.67978 50.0675 8.75422 50.095 8.82464L50.1596 8.99041L49.9844 8.95944C49.9313 8.95006 49.874 8.94461 49.8124 8.93984C49.7974 8.93868 49.7821 8.93755 49.7665 8.93641C49.7196 8.93296 49.6707 8.92936 49.6234 8.92425C49.4991 8.9108 49.3614 8.885 49.2528 8.80427M49.7298 8.17592C49.1066 7.64905 48.4581 7.1483 47.8085 6.64668C47.578 6.4687 47.3474 6.29061 47.1177 6.11121L49.7298 8.17592ZM49.2528 8.80427C49.2528 8.80429 49.2529 8.80431 49.2529 8.80433L49.3124 8.72396L49.2527 8.8042C49.2527 8.80422 49.2528 8.80424 49.2528 8.80427ZM50.0018 8.86097L49.9086 8.89729C49.9022 8.88084 49.8961 8.86374 49.8902 8.8462C49.9283 8.84995 49.9657 8.85458 50.0018 8.86097ZM50.0018 8.86097L50.0192 8.76249C50.0016 8.75939 49.9839 8.75668 49.9661 8.75429C49.9769 8.79118 49.9886 8.82703 50.0018 8.86097ZM46.6758 5.80849C46.647 5.82852 46.6132 5.84852 46.5763 5.87042C46.5505 5.88569 46.5232 5.90189 46.4949 5.91966C46.4644 5.9388 46.432 5.96047 46.4074 5.98229C46.3955 5.99287 46.3802 6.00797 46.3685 6.02706C46.3581 6.04401 46.3413 6.07987 46.3533 6.12305M46.6758 5.80849L46.3533 6.12305M46.3533 6.12305C46.3548 6.12944 46.3562 6.13592 46.3577 6.14248C46.3792 6.23645 46.4044 6.34649 46.4409 6.44792C46.4801 6.55659 46.537 6.66925 46.6297 6.74588L46.3533 6.12305Z" fill="#017FDD" stroke="#017FDD" stroke-width="0.2"/>
<path d="M22.7103 59.1425H22.8103C22.9458 59.1425 23.0827 59.1405 23.2204 59.1385C23.58 59.1332 23.9453 59.1279 24.3062 59.1579L24.307 59.158L24.307 59.158C24.4188 59.1681 24.5129 59.243 24.584 59.3076C24.6117 59.3327 24.6397 59.3602 24.6662 59.3861C24.6753 59.3949 24.6842 59.4036 24.6928 59.4119C24.7279 59.446 24.7603 59.4761 24.7918 59.5007L24.8807 59.57L24.8013 59.65C24.7717 59.6798 24.7417 59.7164 24.7097 59.7573C24.7009 59.7686 24.6917 59.7804 24.6824 59.7925C24.6594 59.8222 24.6353 59.8534 24.6118 59.8817C24.5786 59.9216 24.5414 59.9625 24.5005 59.9941C24.4599 60.0255 24.4073 60.0543 24.3445 60.0563C23.3063 60.0883 22.2681 60.0883 21.2299 60.0563L21.233 59.9563M22.7103 59.1425L21.2486 59.1728C21.2485 59.1728 21.2484 59.1728 21.2483 59.1728M22.7103 59.1425V59.1587M22.7103 59.1425V59.1587M21.233 59.9563V60.0563C21.167 60.0563 21.1133 60.0232 21.0747 59.9903C21.0352 59.9566 20.9994 59.913 20.9678 59.8706C20.9438 59.8384 20.9197 59.8031 20.8968 59.7698C20.8895 59.7592 20.8824 59.7487 20.8754 59.7387C20.8454 59.6954 20.8181 59.6575 20.7919 59.6276L20.7225 59.5482L20.8054 59.4831C20.8331 59.4613 20.8618 59.4344 20.8933 59.4035C20.9008 59.3962 20.9086 59.3885 20.9165 59.3807C20.9405 59.357 20.9661 59.3317 20.9914 59.3085C21.0547 59.2505 21.1425 59.1794 21.2483 59.1728M21.233 59.9563C21.146 59.9563 21.0629 59.8352 20.9801 59.7145C20.9614 59.6872 20.9426 59.6598 20.9239 59.634L22.8103 59.2425C22.949 59.2425 23.0878 59.2405 23.2266 59.2384C23.5845 59.2332 23.9423 59.228 24.2979 59.2576C24.4012 59.2669 24.4981 59.3616 24.5952 59.4565C24.615 59.4758 24.6348 59.4952 24.6547 59.5139C24.6563 59.5123 24.6578 59.5107 24.6594 59.5091L24.7304 59.5795L24.6689 59.6584C24.6672 59.6571 24.6655 59.6558 24.6638 59.6545C24.643 59.6799 24.6224 59.7065 24.6021 59.7329C24.5152 59.8452 24.4315 59.9535 24.3415 59.9563C23.3053 59.9883 22.2691 59.9883 21.233 59.9563ZM21.2483 59.1728C21.6283 59.1477 22.012 59.1518 22.3908 59.1559C22.4978 59.1571 22.6043 59.1582 22.7103 59.1587M21.2483 59.1728L22.7103 59.1587" fill="#017FDD" stroke="#017FDD" stroke-width="0.2"/>
<path d="M17.543 22.2511C17.5372 22.8235 17.3635 23.3814 17.0437 23.8547C16.7238 24.328 16.2722 24.6956 15.7454 24.9111C15.2185 25.1266 14.6402 25.1803 14.0831 25.0654C13.5261 24.9506 13.0152 24.6723 12.6149 24.2658C12.2146 23.8593 11.9425 23.3426 11.833 22.7809C11.7234 22.2192 11.7811 21.6373 11.999 21.1086C12.2168 20.5798 12.585 20.1276 13.0574 19.8089C13.5297 19.4903 14.0852 19.3194 14.6538 19.318M17.543 22.2511C17.5475 21.8667 17.476 21.4852 17.3328 21.1288C17.1895 20.7725 16.9773 20.4483 16.7084 20.1753C16.4395 19.9023 16.1194 19.6859 15.7667 19.5387C15.4139 19.3915 15.0356 19.3165 14.6538 19.318M17.543 22.2511L17.443 22.25M17.543 22.2511L17.443 22.25M17.543 22.2511C17.543 22.2511 17.543 22.251 17.543 22.251L17.443 22.25M17.543 22.2511L17.443 22.25M14.6538 19.318C14.6537 19.318 14.6537 19.318 14.6537 19.318L14.6541 19.418L14.6538 19.318C14.6538 19.318 14.6538 19.318 14.6538 19.318ZM16.5543 22.1924H16.5543L16.5544 22.1933L16.5544 22.1942C16.5588 22.4496 16.5131 22.7034 16.4198 22.9409C16.3265 23.1784 16.1875 23.3949 16.0108 23.5779C15.8342 23.761 15.6234 23.907 15.3906 24.0076C15.1579 24.1081 14.9078 24.1612 14.6547 24.164C14.2783 24.1662 13.9097 24.0563 13.595 23.848C13.2802 23.6398 13.0334 23.3424 12.8857 22.9931C12.738 22.6438 12.6959 22.2582 12.7649 21.8849C12.8339 21.5116 13.0108 21.1672 13.2733 20.895C13.5358 20.6228 13.8721 20.4349 14.2401 20.3548C14.608 20.2746 14.9912 20.3058 15.3417 20.4444C15.6922 20.583 15.9943 20.8228 16.2101 21.134C16.4257 21.4448 16.5455 21.813 16.5543 22.1922V22.1924Z" fill="#017FDD" stroke="#017FDD" stroke-width="0.2"/>
<path d="M22.256 19.3219C20.6263 19.3276 19.3861 20.6193 19.4001 22.2821L19.4001 22.2821C19.4142 23.908 20.6496 25.1176 22.284 25.1105C23.9404 25.1034 25.1341 23.914 25.1345 22.2533C25.1404 21.8697 25.0703 21.4887 24.9283 21.1327C24.7862 20.7764 24.575 20.4522 24.307 20.1791C24.039 19.906 23.7195 19.6895 23.3673 19.5423C23.0152 19.3951 22.6373 19.3202 22.256 19.3219ZM22.256 19.3219C22.256 19.3219 22.256 19.3219 22.256 19.3219L22.2564 19.4219L22.2561 19.3219C22.2561 19.3219 22.256 19.3219 22.256 19.3219ZM24.222 22.2618C24.2052 23.2895 23.2712 24.2039 22.2486 24.1939C21.7385 24.1815 21.2537 23.9669 20.8993 23.5964C20.5448 23.2258 20.3495 22.7291 20.3562 22.2141L20.3562 22.2128C20.3563 21.9578 20.4068 21.7054 20.5047 21.4703C20.6026 21.2352 20.746 21.0221 20.9264 20.8435C21.1068 20.6649 21.3207 20.5243 21.5555 20.4298C21.7903 20.3353 22.0414 20.2889 22.2941 20.2932L22.2945 20.2933C23.3306 20.3076 24.2387 21.2356 24.222 22.2618Z" fill="#017FDD" stroke="#017FDD" stroke-width="0.2"/>
<path d="M36.38 22.238V22.138H36.372C36.3726 21.973 36.3747 21.8072 36.3768 21.6407C36.3832 21.1322 36.3896 20.6186 36.3553 20.109L36.3553 20.109C36.3454 19.9635 36.2782 19.8289 36.2073 19.7098C36.1781 19.6607 36.1492 19.6154 36.1212 19.5717C36.0764 19.5016 36.0342 19.4356 35.9977 19.3645L35.9133 19.2001L35.8219 19.3607C35.793 19.4113 35.7573 19.4631 35.7179 19.5179C35.7081 19.5315 35.6981 19.5454 35.6878 19.5594C35.6579 19.6007 35.6267 19.6438 35.5981 19.6863C35.5231 19.7981 35.4488 19.9305 35.4484 20.0747C35.414 21.5144 35.4103 22.9536 35.4375 24.3923L35.4375 24.3923C35.4402 24.5293 35.5085 24.6557 35.5775 24.7629C35.6032 24.8028 35.6312 24.8433 35.6581 24.8822C35.6679 24.8963 35.6775 24.9102 35.6868 24.9238C35.7226 24.9761 35.7551 25.0256 35.7815 25.0739L35.8638 25.2251L35.9543 25.0788C35.986 25.0276 36.024 24.9759 36.0655 24.9214C36.0755 24.9083 36.0858 24.8948 36.0963 24.8813C36.128 24.84 36.1609 24.797 36.1914 24.7544C36.2711 24.6427 36.3495 24.5124 36.3606 24.3679L36.3607 24.3676C36.3982 23.8553 36.3916 23.3382 36.385 22.8258C36.3825 22.629 36.38 22.4329 36.38 22.238Z" fill="#017FDD" stroke="#017FDD" stroke-width="0.2"/>
<path d="M43.1518 19.2361L43.2317 19.3541C43.257 19.3914 43.2885 19.4299 43.3239 19.4716C43.3326 19.4818 43.3417 19.4923 43.3509 19.5031C43.3778 19.5345 43.4062 19.5675 43.4322 19.6001C43.499 19.6841 43.5733 19.7921 43.5753 19.9141C43.6007 21.4378 43.6007 22.9611 43.5753 24.4839L43.1518 19.2361ZM43.1518 19.2361L43.068 19.3514C43.0399 19.3901 43.0052 19.4297 42.9663 19.4723C42.9565 19.483 42.9463 19.4941 42.936 19.5053C42.9067 19.5371 42.8759 19.5705 42.8476 19.6035C42.7738 19.6897 42.6927 19.7996 42.686 19.9269L42.7859 19.9322L43.1518 19.2361Z" fill="#017FDD" stroke="#017FDD" stroke-width="0.2"/>
<path d="M39.9412 22.4516L39.9474 22.4567V22.2474C39.9474 22.044 39.9491 21.8394 39.9509 21.634C39.9555 21.0867 39.9601 20.5342 39.9323 19.9858L39.9323 19.9858L39.9323 19.9854C39.9252 19.8573 39.8584 19.7417 39.7924 19.6447C39.768 19.6088 39.7415 19.5725 39.7161 19.5377C39.7066 19.5247 39.6973 19.5119 39.6883 19.4994C39.6542 19.4522 39.6234 19.4077 39.5982 19.3641L39.5203 19.2292L39.4301 19.3561C39.3993 19.3994 39.3607 19.444 39.3177 19.4919C39.3068 19.5039 39.2956 19.5163 39.2841 19.5289C39.2516 19.5646 39.2176 19.6021 39.1864 19.639C39.1059 19.7345 39.0177 19.8563 39.0172 19.9938C38.9846 21.476 38.9873 22.9581 39.0172 24.4399C39.0172 24.44 39.0172 24.4401 39.0172 24.4402L39.9412 22.4516Z" fill="#017FDD" stroke="#017FDD" stroke-width="0.2"/>
<path d="M47.1949 22.1942V22.2942C47.1949 22.4876 47.1967 22.6819 47.1984 22.8769C47.2032 23.4108 47.2081 23.9492 47.1771 24.4839C47.1703 24.6107 47.0943 24.7222 47.0228 24.8117C46.9948 24.8469 46.9643 24.8823 46.9352 24.9161C46.926 24.9268 46.9169 24.9373 46.9081 24.9476C46.8705 24.9917 46.8366 25.033 46.8087 25.0733L46.7227 25.1982L46.6418 25.0699C46.6177 25.0316 46.5876 24.9921 46.5537 24.9495C46.5451 24.9386 46.5361 24.9274 46.527 24.916C46.5015 24.8843 46.4746 24.8508 46.4501 24.8179C46.3855 24.7313 46.3156 24.6222 46.3137 24.5002L46.3137 24.4999C46.2946 22.9747 46.2996 21.449 46.3286 19.9229C46.3286 19.9226 46.3286 19.9223 46.3286 19.922L46.4286 19.9239L47.1949 22.1942ZM47.1949 22.1942H47.1732H47.1949Z" fill="#017FDD" stroke="#017FDD" stroke-width="0.2"/>
<path d="M17.5169 48.4792C17.5116 48.8596 17.4319 49.2352 17.2824 49.5846C17.133 49.9341 16.9167 50.2505 16.6458 50.5158C16.3749 50.7811 16.0547 50.9901 15.7036 51.1307C15.3525 51.2714 14.9773 51.3411 14.5994 51.3357C14.2215 51.3303 13.8484 51.2499 13.5014 51.0992C13.1544 50.9486 12.8403 50.7305 12.577 50.4576C12.3137 50.1847 12.1064 49.8622 11.9668 49.5086C11.8273 49.1551 11.7582 48.7774 11.7636 48.3971M17.5169 48.4792C17.5408 46.8628 16.3119 45.5267 14.7624 45.4992C14.3756 45.4866 13.9901 45.552 13.6287 45.6916C13.267 45.8313 12.9368 46.0423 12.6574 46.3124C12.3779 46.5824 12.1549 46.906 12.0015 47.264C11.848 47.622 11.7671 48.0072 11.7636 48.3971M17.5169 48.4792L17.417 48.4777M17.5169 48.4792L17.417 48.4777M17.5169 48.4792C17.5169 48.4792 17.5169 48.4791 17.5169 48.4791L17.417 48.4777M17.5169 48.4792L17.417 48.4777M11.7636 48.3971C11.7636 48.3972 11.7636 48.3972 11.7636 48.3973L11.8636 48.3982L11.7636 48.3968C11.7636 48.3969 11.7636 48.397 11.7636 48.3971ZM14.6511 50.3739L14.6509 50.3739C14.3976 50.3744 14.1467 50.3235 13.9132 50.2243C13.6797 50.1251 13.4683 49.9796 13.2916 49.7964C13.1149 49.6132 12.9766 49.396 12.8849 49.1577C12.7931 48.9194 12.7498 48.665 12.7576 48.4095L12.7577 48.4083C12.7668 47.905 12.9682 47.4248 13.3197 47.0675C13.6708 46.7105 14.1449 46.5036 14.6432 46.4897C15.681 46.4865 16.6046 47.4077 16.6071 48.43C16.6097 49.4522 15.6844 50.3739 14.6511 50.3739Z" fill="#017FDD" stroke="#017FDD" stroke-width="0.2"/>
<path d="M22.2838 45.5485C20.652 45.5429 19.4156 46.7567 19.4001 48.3836L19.4001 48.3836C19.3847 50.0364 20.6518 51.3564 22.2608 51.3466M22.2838 45.5485C23.9428 45.5485 25.1451 46.7516 25.1399 48.3962C25.1463 48.7808 25.0767 49.1629 24.9352 49.5203C24.7935 49.878 24.5825 50.2037 24.3145 50.4784C24.0466 50.7532 23.727 50.9715 23.3743 51.1206C23.0217 51.2696 22.6432 51.3464 22.2608 51.3466M22.2838 45.5485C22.2839 45.5485 22.2839 45.5485 22.284 45.5485L22.2836 45.6485V45.5485C22.2837 45.5485 22.2837 45.5485 22.2838 45.5485ZM22.2608 51.3466C22.2609 51.3466 22.261 51.3466 22.2611 51.3466L22.2605 51.2466L22.2605 51.3466C22.2606 51.3466 22.2607 51.3466 22.2608 51.3466ZM24.1703 48.4338L24.1703 48.436C24.1758 48.6851 24.1318 48.9328 24.041 49.1646C23.9502 49.3963 23.8143 49.6073 23.6414 49.7852C23.4685 49.9632 23.2621 50.1045 23.0343 50.2008C22.8065 50.2972 22.562 50.3467 22.315 50.3465V50.3464L22.3118 50.3465C22.0578 50.3545 21.8048 50.3111 21.5678 50.2189C21.3307 50.1266 21.1144 49.9873 20.9316 49.8092C20.7489 49.6312 20.6034 49.4179 20.5038 49.1821C20.4043 48.9463 20.3527 48.6928 20.3521 48.4365C20.3523 47.9209 20.5523 47.4258 20.9094 47.0569C21.2661 46.6882 21.7514 46.4744 22.2619 46.4609C23.291 46.459 24.1703 47.3562 24.1703 48.4338Z" fill="#017FDD" stroke="#017FDD" stroke-width="0.2"/>
<path d="M35.4148 48.5007V48.4007C35.4148 48.1972 35.413 47.9923 35.4113 47.7869C35.4067 47.2399 35.402 46.6886 35.4299 46.1473L35.4299 46.1469H35.4299C35.4369 46.0185 35.5047 45.9021 35.5717 45.8046C35.5976 45.7669 35.6258 45.7289 35.6526 45.6927C35.6612 45.6811 35.6696 45.6697 35.6778 45.6585C35.7126 45.6111 35.7442 45.5666 35.7701 45.5231L35.8488 45.391L35.9376 45.5164C35.9679 45.5591 36.0061 45.6031 36.0492 45.6503C36.0616 45.6638 36.0745 45.6778 36.0876 45.6921C36.1188 45.7258 36.1513 45.7611 36.1811 45.7956C36.2625 45.89 36.3529 46.0106 36.3558 46.1475M35.4148 48.5007L35.5488 50.5805M35.4148 48.5007H35.4323M35.4148 48.5007H35.4323M36.3558 46.1475C36.3885 47.6237 36.3885 49.1014 36.3558 50.5803C36.3554 50.7213 36.278 50.8492 36.2021 50.9549C36.1729 50.9954 36.1411 51.0364 36.1106 51.0756C36.1003 51.0889 36.0902 51.1019 36.0804 51.1147C36.0404 51.1666 36.0044 51.2153 35.9754 51.2628L35.8872 51.4075L35.8032 51.2603C35.7758 51.2124 35.7427 51.1638 35.7063 51.1124C35.6976 51.1001 35.6886 51.0875 35.6795 51.0748C35.6517 51.0357 35.6226 50.9949 35.5957 50.9544C35.5254 50.8482 35.4567 50.7241 35.4489 50.5863M36.3558 46.1475C36.3558 46.1475 36.3558 46.1475 36.3558 46.1474L36.2558 46.1497L36.3558 46.1476C36.3558 46.1475 36.3558 46.1475 36.3558 46.1475ZM35.4489 50.5863C35.4489 50.5862 35.4489 50.5862 35.4489 50.5861L35.5488 50.5805M35.4489 50.5863C35.4489 50.5864 35.4489 50.5865 35.4489 50.5865L35.5488 50.5805M35.4489 50.5863C35.4173 50.0602 35.4228 49.5296 35.4283 49.0028C35.43 48.835 35.4317 48.6675 35.4323 48.5007M35.5488 50.5805C35.5173 50.0581 35.5228 49.5328 35.5282 49.0073C35.53 48.8384 35.5318 48.6695 35.5323 48.5007H35.5148H35.4323M35.8901 51.2108L35.8047 51.1587C35.8132 51.1447 35.8221 51.1309 35.8313 51.1171C35.8522 51.1482 35.8722 51.1794 35.8901 51.2108ZM35.8901 51.2108L35.9769 51.1612C35.9689 51.1471 35.9605 51.1331 35.9519 51.1192C35.9296 51.1497 35.9087 51.1802 35.8901 51.2108ZM35.8561 45.5742C35.8758 45.6021 35.8982 45.6299 35.922 45.6577C35.9289 45.647 35.9355 45.6362 35.942 45.6254L35.8561 45.5742ZM35.8561 45.5742L35.7745 45.6321C35.7819 45.6426 35.7897 45.653 35.7976 45.6634C35.8185 45.6337 35.8383 45.604 35.8561 45.5742ZM35.5324 48.4007H35.5148H35.5324Z" fill="#017FDD" stroke="#017FDD" stroke-width="0.2"/>
<path d="M43.0822 45.4121L43.1704 45.5241C43.2008 45.5627 43.2383 45.6025 43.2799 45.6452C43.2892 45.6547 43.2987 45.6644 43.3084 45.6743C43.3409 45.7074 43.3751 45.7422 43.4064 45.7767C43.4833 45.8615 43.5709 45.9728 43.5739 46.1015L43.5739 46.1016C43.6084 47.6235 43.6115 49.1458 43.5834 50.6686C43.5834 50.6689 43.5834 50.6692 43.5834 50.6694L43.4834 50.6676L43.0822 45.4121ZM43.0822 45.4121L43.0069 45.5331M43.0822 45.4121L43.0069 45.5331M43.0069 45.5331C42.9829 45.5716 42.9535 45.6112 42.9206 45.6536M43.0069 45.5331L42.9206 45.6536M42.9206 45.6536C42.9125 45.664 42.9041 45.6747 42.8956 45.6856M42.9206 45.6536L42.8956 45.6856M42.8956 45.6856C42.8705 45.7176 42.8442 45.7513 42.82 45.7845M42.8956 45.6856L42.82 45.7845M42.82 45.7845C42.7568 45.8715 42.6902 45.9788 42.6846 46.0991L42.82 45.7845Z" fill="#017FDD" stroke="#017FDD" stroke-width="0.2"/>
<path d="M39.1175 46.1023L39.0176 46.1002C38.9858 47.6306 38.9858 49.1601 39.0176 50.6886L39.0176 50.6888C39.0191 50.7572 39.0444 50.8189 39.0763 50.8718C39.1082 50.9248 39.1501 50.9748 39.1925 51.0206C39.2227 51.0532 39.2557 51.0864 39.2871 51.1181C39.2995 51.1306 39.3116 51.1428 39.3233 51.1547C39.366 51.1982 39.4039 51.2386 39.434 51.2778L39.5229 51.3934L39.5987 51.2687C39.6227 51.2292 39.6523 51.1887 39.6853 51.1453C39.6938 51.1341 39.7027 51.1226 39.7117 51.1108C39.7364 51.0786 39.7624 51.0448 39.7863 51.0114C39.8501 50.9224 39.9168 50.8134 39.9232 50.6918L39.9232 50.6913C39.9492 50.1386 39.9452 49.5826 39.9412 49.0302C39.9397 48.8291 39.9382 48.6285 39.9382 48.4287C39.9382 48.2358 39.9392 48.0426 39.9401 47.8491C39.9429 47.2671 39.9457 46.6827 39.9232 46.0998L39.9232 46.0998C39.9186 45.9795 39.8519 45.8725 39.7888 45.7862C39.7645 45.7529 39.7379 45.7192 39.7127 45.6872C39.7044 45.6767 39.6962 45.6663 39.6883 45.6562C39.6554 45.6141 39.626 45.5749 39.602 45.5367L39.5277 45.4182L39.4396 45.5269C39.409 45.5647 39.3704 45.6038 39.3268 45.646C39.3153 45.6572 39.3032 45.6687 39.291 45.6804C39.2586 45.7114 39.2247 45.7439 39.1937 45.7759C39.1506 45.8202 39.1079 45.8688 39.0756 45.9206C39.0434 45.9723 39.0175 46.0336 39.0175 46.1023H39.1175ZM39.1175 46.1023C39.1175 45.985 39.238 45.8696 39.3588 45.754C39.3892 45.7249 39.4195 45.6958 39.448 45.6667L39.4451 51.1373C39.4169 51.107 39.3869 51.0766 39.3568 51.0463C39.2385 50.9272 39.1203 50.8081 39.1175 50.6866C39.0858 49.1594 39.0858 47.6313 39.1175 46.1023Z" fill="#017FDD" stroke="#017FDD" stroke-width="0.2"/>
<path d="M47.1759 48.5868H47.0975H47.0759C47.0763 48.7452 47.0776 48.9037 47.0789 49.0621C47.0832 49.5772 47.0875 50.0921 47.0608 50.6063L47.1759 48.5868ZM47.1759 48.5868C47.1763 48.7436 47.1776 48.9009 47.1789 49.0584C47.1832 49.5746 47.1876 50.0941 47.1606 50.6115L47.1606 50.6116C47.1538 50.7401 47.0947 50.8586 47.0339 50.961C47.008 51.0047 46.9827 51.0442 46.9584 51.0821C46.9206 51.1412 46.8855 51.1961 46.8547 51.2562L46.7735 51.4144L46.6805 51.2629C46.6542 51.2201 46.6216 51.1762 46.5853 51.1293C46.5759 51.1171 46.5661 51.1046 46.5561 51.0918C46.529 51.057 46.5005 51.0206 46.4744 50.9847C46.4048 50.889 46.3322 50.7719 46.3285 50.642L46.3285 50.6415C46.2949 49.1589 46.2895 47.6764 46.3121 46.1938M47.1759 48.5868H47.1975V48.4868C47.1975 48.2815 47.1993 48.0749 47.2012 47.8675C47.2061 47.3222 47.2111 46.7715 47.1824 46.225L47.1824 46.2248C47.1749 46.0886 47.1131 45.9626 47.0487 45.8523C47.0222 45.8068 46.9961 45.7651 46.9709 45.725C46.9302 45.66 46.8921 45.5992 46.8592 45.5334L46.7784 45.3716L46.6844 45.5261C46.6561 45.5726 46.6209 45.6203 46.5818 45.6711C46.572 45.6839 46.5619 45.6969 46.5516 45.7102C46.522 45.7483 46.4911 45.7882 46.4629 45.8275C46.3887 45.9306 46.3124 46.0561 46.3121 46.1938M46.3121 46.1938C46.3121 46.1941 46.3121 46.1944 46.3121 46.1947H46.4121L46.3122 46.1931C46.3122 46.1934 46.3121 46.1936 46.3121 46.1938Z" fill="#017FDD" stroke="#017FDD" stroke-width="0.2"/>
<path d="M14.6802 38.2314H14.6802C16.3136 38.2201 17.5377 36.9451 17.5208 35.2779V35.2779C17.5039 33.6417 16.2911 32.4282 14.6627 32.4278C14.2809 32.4211 13.9017 32.4922 13.5478 32.6368C13.1937 32.7815 12.8723 32.9968 12.603 33.2698C12.3337 33.5428 12.1219 33.8677 11.9805 34.2252C11.8391 34.5823 11.7708 34.9644 11.7797 35.3487C11.7858 37.0103 13.0256 38.2428 14.6802 38.2314ZM16.6124 35.3394C16.6149 36.3741 15.6994 37.2702 14.6443 37.2573C14.1338 37.248 13.6472 37.0369 13.2896 36.6693C12.932 36.3016 12.732 35.8069 12.733 35.2918C12.7354 35.0366 12.7887 34.7846 12.8899 34.5507C12.991 34.3166 13.1379 34.1056 13.3217 33.9301C13.5056 33.7546 13.7225 33.6183 13.9597 33.5292C14.1968 33.4401 14.4494 33.4 14.7022 33.4114L14.7047 33.4114C15.1975 33.4211 15.6752 33.6545 16.0306 34.0134C16.386 34.3724 16.6124 34.8499 16.6124 35.3392L16.6124 35.3394Z" fill="#017FDD" stroke="#017FDD" stroke-width="0.2"/>
<path d="M22.2635 37.2554L22.2228 37.256L22.2176 37.2613C21.7347 37.2446 21.2754 37.0438 20.933 36.6985C20.5807 36.3431 20.3803 35.8628 20.3747 35.3603C20.3691 34.8577 20.5589 34.3731 20.9032 34.0098C21.2473 33.6469 21.7183 33.434 22.2158 33.4164C23.3022 33.4026 24.2047 34.2826 24.2047 35.3003C24.2047 36.3219 23.2973 37.2398 22.2635 37.2554ZM23.9116 32.9427C23.4412 32.6175 22.8855 32.44 22.3149 32.4327C21.9339 32.4204 21.5544 32.4857 21.1991 32.6247C20.8435 32.7638 20.5195 32.9738 20.2466 33.242C19.9736 33.5103 19.7572 33.8314 19.6105 34.1859C19.4638 34.5401 19.3897 34.9204 19.3924 35.3041C19.3854 35.8786 19.5475 36.4424 19.8584 36.9242C20.1695 37.4063 20.6156 37.7847 21.1403 38.0115C21.6651 38.2383 22.2448 38.3033 22.8062 38.1981C23.3676 38.0929 23.8854 37.8223 24.294 37.4207C24.7026 37.0192 24.9837 36.5046 25.102 35.9422C25.2202 35.3797 25.1703 34.7946 24.9585 34.2608C24.7466 33.7269 24.3824 33.2682 23.9116 32.9427Z" fill="#017FDD" stroke="#017FDD" stroke-width="0.2"/>
<path d="M43.1228 32.2678L43.2075 32.3988C43.235 32.4412 43.269 32.4848 43.307 32.5314C43.3167 32.5433 43.3268 32.5556 43.337 32.568C43.3656 32.6027 43.3954 32.639 43.4228 32.6748C43.4949 32.7691 43.5716 32.8862 43.5744 33.0168L43.5744 33.017C43.6043 34.5417 43.6016 36.0676 43.5744 37.5919C43.5744 37.5922 43.5744 37.5925 43.5744 37.5927L43.4744 37.5909L43.1228 32.2678ZM43.1228 32.2678L43.0392 32.3995M43.1228 32.2678L43.0392 32.3995M43.0392 32.3995C43.0125 32.4415 42.9799 32.4845 42.9436 32.5303M43.0392 32.3995L42.9436 32.5303M42.9436 32.5303C42.9348 32.5415 42.9257 32.5529 42.9165 32.5646M42.9436 32.5303L42.9165 32.5646M42.9165 32.5646C42.8888 32.5993 42.8598 32.6357 42.8331 32.6718M42.9165 32.5646L42.8331 32.6718M42.8331 32.6718C42.7636 32.7657 42.6916 32.8801 42.6851 33.0082L42.8331 32.6718Z" fill="#017FDD" stroke="#017FDD" stroke-width="0.2"/>
<path d="M39.4418 38.0194C39.4151 37.991 39.3869 37.9627 39.3587 37.9344C39.2417 37.817 39.1249 37.6998 39.1221 37.5808C39.0895 36.0344 39.0895 34.4881 39.1221 32.9417H39.0221C39.0221 32.8721 39.0497 32.8105 39.0831 32.7594C39.1165 32.7082 39.1608 32.6603 39.2049 32.6168C39.2349 32.5873 39.2677 32.557 39.2991 32.5282C39.3134 32.515 39.3274 32.5021 39.3407 32.4897C39.3848 32.4484 39.4231 32.4106 39.4525 32.3744L39.5409 32.2657L39.615 32.3847C39.6389 32.4231 39.6684 32.4626 39.7014 32.505C39.7097 32.5157 39.7184 32.5267 39.7272 32.5379C39.7521 32.5696 39.7783 32.603 39.8024 32.6359C39.8659 32.7228 39.9331 32.8302 39.9387 32.9508L39.9387 32.951C39.9638 33.5213 39.9601 34.094 39.9564 34.6642C39.955 34.8682 39.9537 35.0719 39.9537 35.2749V35.3749H39.9429C39.9433 35.5407 39.9443 35.7068 39.9454 35.8733C39.9491 36.4461 39.9527 37.0221 39.9265 37.5956C39.9256 37.718 39.8539 37.825 39.7887 37.9084C39.7633 37.9408 39.7355 37.9736 39.7092 38.0047C39.7002 38.0154 39.6914 38.0258 39.6829 38.0359C39.6483 38.0772 39.6176 38.1154 39.5931 38.1525L39.5167 38.2679L39.4311 38.1592C39.4008 38.1207 39.3632 38.0811 39.3212 38.0385C39.3108 38.028 39.3 38.0171 39.289 38.0061C39.2571 37.9741 39.2237 37.9406 39.193 37.9075C39.1516 37.8627 39.1107 37.8139 39.0796 37.7621C39.0485 37.7104 39.0237 37.65 39.0222 37.5831L39.0222 37.5829C38.9895 36.0351 38.9895 34.4874 39.0222 32.9396L39.4418 38.0194Z" fill="#017FDD" stroke="#017FDD" stroke-width="0.2"/>
<path d="M36.3492 32.9256C36.3481 32.8605 36.3232 32.8025 36.2927 32.7537C36.262 32.7048 36.2217 32.6591 36.1811 32.6174C36.1492 32.5848 36.1144 32.5519 36.0814 32.5207C36.0724 32.5122 36.0636 32.5039 36.055 32.4957C36.0134 32.4563 35.9762 32.4197 35.9458 32.3842L35.8596 32.2834L35.7865 32.394C35.7617 32.4315 35.7311 32.4701 35.6969 32.5117C35.6885 32.5218 35.6799 32.5322 35.6711 32.5427C35.645 32.5742 35.6174 32.6073 35.5922 32.64C35.5268 32.7247 35.4561 32.8312 35.4504 32.9514L35.4504 32.9516C35.4244 33.5202 35.4284 34.0906 35.4324 34.6581C35.4337 34.8314 35.4349 35.0045 35.4352 35.1771L35.5449 37.5966L35.445 37.6006C35.445 37.6007 35.445 37.6008 35.445 37.6009C35.4499 37.7223 35.5223 37.8283 35.5887 37.9117C35.614 37.9436 35.6418 37.9759 35.6681 38.0066C35.6773 38.0174 35.6863 38.0279 35.695 38.0382C35.7298 38.0791 35.7607 38.1171 35.7856 38.154L35.8586 38.262L35.944 38.1636C35.9732 38.13 36.01 38.095 36.0516 38.057C36.0617 38.0478 36.0722 38.0384 36.0828 38.0287C36.1146 38 36.1481 37.9697 36.1787 37.9398C36.2198 37.8996 36.261 37.8553 36.2922 37.8076C36.3233 37.76 36.3492 37.7021 36.3492 37.6364H36.2492L36.3492 37.6383C36.3792 36.0669 36.3792 34.496 36.3492 32.9256ZM36.3492 32.9256C36.3492 32.9256 36.3492 32.9257 36.3492 32.9257L36.2492 32.9274L36.3492 32.9255C36.3492 32.9255 36.3492 32.9255 36.3492 32.9256ZM35.8699 32.4492L35.9533 32.5044C35.949 32.5109 35.9446 32.5173 35.9401 32.5238C35.915 32.4989 35.8911 32.4741 35.8699 32.4492ZM35.8699 32.4492L35.7939 32.5142C35.7989 32.5201 35.804 32.5259 35.8093 32.5318C35.831 32.5043 35.8516 32.4768 35.8699 32.4492Z" fill="#017FDD" stroke="#017FDD" stroke-width="0.2"/>
<path d="M46.4266 37.5444L46.3267 37.5458C46.3286 37.6746 46.405 37.7895 46.4761 37.8808C46.5037 37.9163 46.5339 37.9523 46.5626 37.9865C46.5721 37.9978 46.5815 38.009 46.5905 38.0199C46.6281 38.065 46.6617 38.107 46.6887 38.1477L46.7786 38.283L46.8589 38.1419C46.8816 38.1022 46.9092 38.0615 46.9399 38.0181C46.9473 38.0075 46.955 37.9967 46.9629 37.9857C46.9864 37.9527 47.011 37.9181 47.0337 37.8839C47.0933 37.7939 47.1539 37.6859 47.1602 37.566L47.1602 37.5653C47.1839 37.035 47.1798 36.5029 47.1757 35.9741C47.1741 35.7717 47.1725 35.5698 47.1725 35.3687L47.1725 35.3685C47.1722 35.1521 47.1733 34.9352 47.1745 34.7179C47.1775 34.1364 47.1806 33.5526 47.1548 32.9721L47.1548 32.9719C47.1493 32.8518 47.0846 32.7439 47.0224 32.6557C46.9982 32.6214 46.9719 32.5867 46.9469 32.5538C46.939 32.5434 46.9312 32.5331 46.9236 32.5231C46.8913 32.4801 46.8622 32.4401 46.8384 32.4011L46.757 32.2675L46.6699 32.3975C46.6451 32.4345 46.6138 32.4728 46.5783 32.5144C46.569 32.5253 46.5593 32.5366 46.5493 32.5481C46.5228 32.5788 46.4949 32.6111 46.4695 32.6428C46.4024 32.7264 46.3266 32.8353 46.3266 32.9587H46.4266M46.4266 37.5444L46.3267 37.5461C46.2994 36.0169 46.2994 34.4871 46.3267 32.9569L46.4266 32.9587M46.4266 37.5444C46.4285 37.6713 46.5334 37.7962 46.6382 37.921C46.6617 37.9491 46.6853 37.9771 46.7077 38.0052L46.4266 32.9587M46.4266 37.5444C46.3995 36.0163 46.3995 34.4877 46.4266 32.9587M46.8681 32.6154C46.9586 32.7346 47.0493 32.8539 47.0549 32.9765L46.6887 32.5384C46.6815 32.5274 46.6744 32.5163 46.6676 32.5052L46.753 32.4531L46.8361 32.5088C46.8287 32.5198 46.8209 32.5308 46.8129 32.5417C46.8308 32.5663 46.8494 32.5908 46.8681 32.6154Z" fill="#017FDD" stroke="#017FDD" stroke-width="0.2"/>
</svg>
