<svg width="61" height="61" viewBox="0 0 61 61" fill="none" xmlns="http://www.w3.org/2000/svg">
<mask id="path-1-outside-1" maskUnits="userSpaceOnUse" x="3.41406" y="3.45703" width="56" height="54" fill="black">
<rect fill="white" x="3.41406" y="3.45703" width="56" height="54"/>
<path d="M7.00639 16.3133C7.00639 15.1617 6.88136 13.9924 7.03525 12.8598C7.2702 11.1263 8.65933 10.0563 10.4428 10.0291C11.2672 10.0168 12.0916 9.96108 12.916 10.0413C14.0152 10.1501 14.8657 9.76938 15.7478 9.14938C19.5103 6.48671 23.9385 4.89582 28.5509 4.54974C33.6636 4.14185 38.4905 5.07592 43.0178 7.43216C47.0978 9.54391 50.5421 12.6839 53.0028 16.5349C54.9264 19.5152 56.2427 22.743 56.7401 26.2318C57.0231 28.2115 56.9297 30.2428 57.0314 32.2496C57.0399 32.5554 57.1351 32.8527 57.3062 33.1075C58.2529 34.3312 58.8176 35.6786 58.8093 37.2449C58.797 39.6474 58.8602 42.0498 58.8093 44.4509C58.7008 49.245 53.3023 52.4306 48.9467 50.2783C48.452 50.035 48.169 50.0812 47.7499 50.4238C41.8966 55.2206 35.175 57.2342 27.6234 56.3967C22.8322 55.8664 18.5343 54.0704 14.7008 51.1675C14.3367 50.9152 13.9082 50.7691 13.4642 50.746C12.5024 50.6876 11.5406 50.746 10.5788 50.7365C8.38727 50.7297 6.92944 49.294 6.91021 47.1077C6.89647 45.4312 6.91021 43.7548 6.89372 42.077C6.8934 41.741 6.82616 41.4084 6.69586 41.0981C4.84095 36.905 4.08525 32.5405 4.54554 27.9762C4.81648 25.1552 5.55941 22.3984 6.74396 19.8184C6.85004 19.5697 6.90515 19.3026 6.90609 19.0326C6.92533 18.1271 6.90609 17.2202 6.90609 16.3133H7.00639ZM12.8913 27.2692C12.8913 32.5229 12.8913 37.7779 12.8803 43.0328C12.8803 43.6433 13.0012 43.9152 13.7047 43.9139C21.4651 43.8912 29.2246 43.8912 36.9832 43.9139C37.6221 43.9139 37.8076 43.7072 37.8076 43.0981C37.7925 33.427 37.8076 23.7546 37.7897 14.0835C37.7897 11.8578 36.5902 10.7198 34.3203 10.7198C32.2841 10.7198 30.2478 10.7646 28.2101 10.7619C23.4286 10.7619 18.6456 10.732 13.8627 10.7184C12.8927 10.7184 12.8913 10.7184 12.8913 11.715C12.8904 16.8952 12.8904 22.08 12.8913 27.2692ZM47.7664 49.4789C47.5447 49.3533 47.3321 49.2124 47.1302 49.0574C45.7205 47.7562 44.9744 46.1491 44.9524 44.2429C44.9249 41.9107 44.9213 39.578 44.9414 37.2449C44.9538 35.6949 45.5213 34.3312 46.49 33.1238C47.6276 31.7071 49.1528 30.9593 50.9074 30.5908C51.1025 30.55 51.3814 30.4453 51.4419 30.2985C52.0726 28.7635 51.1465 27.3957 49.4853 27.3902C47.8598 27.3902 46.2344 27.4106 44.6103 27.4011C42.9134 27.3916 41.7785 26.3134 41.7743 24.739C41.7702 23.1645 42.978 22.0333 44.6598 22.0197C45.4608 22.0115 46.2619 22.0333 47.0629 22.0115C47.3615 22.0041 47.6543 21.9289 47.9189 21.7919C48.1835 21.6549 48.4129 21.4596 48.5892 21.2211C48.7656 20.9826 48.8844 20.7073 48.9363 20.4163C48.9883 20.1252 48.9721 19.8263 48.889 19.5424C48.6142 18.5417 47.8969 18.0387 46.6507 18.0319C44.3149 18.0196 41.9791 18.0319 39.6433 18.0319C38.4754 18.0319 38.474 18.0319 38.474 19.1794V49.5468C38.474 50.727 38.474 50.727 37.2511 50.727C30.36 50.727 23.4702 50.727 16.5819 50.727C16.3071 50.727 16.024 50.7596 15.7451 50.7773L15.7217 50.9785C20.168 54.1533 25.1337 55.846 30.6476 55.8569C37.0587 55.8732 42.6771 53.7372 47.7664 49.4789ZM56.2688 31.8308C57.1344 23.0979 51.9599 11.7748 40.5735 7.10857C34.4742 4.6082 28.261 4.46 22.0243 6.72107C19.9138 7.48655 17.9023 8.43285 16.1628 9.91485C16.6153 10.0015 17.0762 10.0371 17.5368 10.0209C23.3077 10.0209 29.0785 10.0209 34.8397 10.0318C36.9447 10.0318 38.452 11.5655 38.4685 13.6511C38.4685 14.5566 38.4685 15.4635 38.4685 16.3704C38.4685 17.2773 38.4685 17.2664 39.3781 17.2678C41.8266 17.2678 44.2764 17.2501 46.7249 17.2746C48.4919 17.2922 49.6914 18.4615 49.6804 20.0876C49.6694 21.7138 48.5111 22.7512 46.7057 22.7593C45.9967 22.7593 45.2863 22.7389 44.5773 22.7688C43.3297 22.8191 42.3995 23.7206 42.4462 24.8015C42.493 25.8824 43.3874 26.6452 44.6447 26.6492L49.657 26.6588C50.7013 26.6588 51.5683 27.0245 51.9805 28.0184C52.1513 28.4851 52.2197 28.9824 52.1811 29.4773C52.1454 30.1924 52.3281 30.5188 53.1196 30.701C54.1954 30.9321 55.2025 31.4324 56.2688 31.8308ZM7.67691 44.7936L7.84866 44.9295C8.78299 44.0213 9.90968 43.7956 11.1463 43.8568C12.1287 43.9071 12.1328 43.8649 12.1328 42.905C12.1328 37.2626 12.1328 31.621 12.1328 25.9803C12.1328 21.1536 12.1328 16.3269 12.1438 11.5015C12.1438 10.9359 11.9542 10.7646 11.3922 10.7646C9.17595 10.7646 7.68927 12.195 7.6824 14.4275C7.67416 23.2633 7.67416 32.1009 7.6824 40.9404L7.67691 44.7936ZM23.7157 44.6358V44.6291C19.2978 44.6291 14.8799 44.6291 10.462 44.6291C8.80223 44.6291 7.59722 45.8391 7.64531 47.4068C7.6934 48.9323 8.91764 49.9901 10.6681 49.9901C19.2786 49.9973 27.8859 50.001 36.4899 50.001C37.9079 50.001 37.798 50.1791 37.8007 48.674C37.8007 47.6542 37.8007 47.6556 36.7812 47.6556C31.56 47.6556 26.3387 47.6556 21.1175 47.6406C20.7808 47.6406 20.1474 47.3973 20.1557 47.3347C20.2354 46.7528 20.7506 46.9119 21.1298 46.9119C26.189 46.9001 31.2481 46.8956 36.3072 46.8983C37.8062 46.8983 37.7774 46.8983 37.7925 45.4258C37.7925 44.8031 37.5974 44.61 36.9681 44.61C32.5561 44.6467 28.1345 44.6358 23.7157 44.6358ZM45.6917 41.8391C45.6917 42.6317 45.682 43.4244 45.6917 44.2171C45.7411 47.4612 48.463 50.1736 51.7373 50.2471C55.0116 50.3205 57.9753 47.6515 58.1127 44.4346C58.1883 42.6671 58.1237 40.8996 58.1416 39.132C58.1416 38.6684 57.9698 38.4849 57.4944 38.4957C56.3732 38.5202 55.2506 38.5379 54.1295 38.4957C53.5551 38.4767 53.3861 38.6657 53.3902 39.2286C53.3971 40.2102 52.7032 40.8071 51.7648 40.7242C50.983 40.6535 50.5749 40.2252 50.5474 39.2857C50.5295 38.6698 50.3138 38.4604 49.6886 38.4862C48.5688 38.5311 47.4463 38.5148 46.3251 38.493C45.8579 38.4835 45.6683 38.629 45.6834 39.1157C45.7123 40.0267 45.6917 40.9336 45.6917 41.8391ZM55.6931 37.7833C56.2427 37.7833 56.7923 37.7452 57.3419 37.7928C58.0014 37.8499 58.1828 37.5766 58.1278 36.9662C58.0072 35.5909 57.4269 34.2946 56.4786 33.2821C55.5303 32.2696 54.2681 31.5987 52.8915 31.3753C52.4188 31.2951 52.1948 31.3971 52.2045 31.8961C52.2127 32.958 52.1907 34.0212 52.2168 35.0831C52.2227 35.1887 52.2514 35.2919 52.301 35.3857C52.3505 35.4795 52.4197 35.5617 52.504 35.6269C53.1457 35.9981 53.4507 36.5243 53.3985 37.249C53.3682 37.684 53.6005 37.7928 53.9852 37.7833C54.5513 37.7724 55.1229 37.7819 55.6931 37.7833ZM48.0893 37.7833C48.6843 37.7833 49.2806 37.7629 49.8755 37.7833C50.355 37.8064 50.5419 37.6011 50.5296 37.1483C50.5144 36.5487 50.6669 36.0362 51.2399 35.7031C51.3118 35.6516 51.3715 35.5854 51.4149 35.5088C51.4584 35.4323 51.4844 35.3473 51.4914 35.2598C51.5037 34.0824 51.4996 32.9049 51.4584 31.7248C51.4584 31.5983 51.1726 31.3617 51.0462 31.3767C49.5902 31.5553 48.2482 32.2479 47.267 33.3272C46.2859 34.4066 45.7313 35.8001 45.7054 37.2517C45.7054 37.6419 45.8758 37.7738 46.2385 37.7697C46.8527 37.7724 47.471 37.7779 48.0893 37.7779V37.7833ZM6.83601 39.0546V22.0074C4.69393 25.0095 4.69668 36.1191 6.83601 39.0491V39.0546ZM52.6002 38.2673C52.6002 37.839 52.6799 37.389 52.5713 36.9893C52.5026 36.7377 52.1509 36.391 51.931 36.3937C51.7112 36.3965 51.3127 36.7568 51.2894 36.9893C51.2108 37.7747 51.214 38.5661 51.299 39.3509C51.3224 39.5726 51.7208 39.8826 51.9736 39.9098C52.1591 39.9288 52.4944 39.5848 52.57 39.3428C52.6785 39.0083 52.6002 38.6235 52.6002 38.2619V38.2673Z"/>
</mask>
<path d="M7.00639 16.3133C7.00639 15.1617 6.88136 13.9924 7.03525 12.8598C7.2702 11.1263 8.65933 10.0563 10.4428 10.0291C11.2672 10.0168 12.0916 9.96108 12.916 10.0413C14.0152 10.1501 14.8657 9.76938 15.7478 9.14938C19.5103 6.48671 23.9385 4.89582 28.5509 4.54974C33.6636 4.14185 38.4905 5.07592 43.0178 7.43216C47.0978 9.54391 50.5421 12.6839 53.0028 16.5349C54.9264 19.5152 56.2427 22.743 56.7401 26.2318C57.0231 28.2115 56.9297 30.2428 57.0314 32.2496C57.0399 32.5554 57.1351 32.8527 57.3062 33.1075C58.2529 34.3312 58.8176 35.6786 58.8093 37.2449C58.797 39.6474 58.8602 42.0498 58.8093 44.4509C58.7008 49.245 53.3023 52.4306 48.9467 50.2783C48.452 50.035 48.169 50.0812 47.7499 50.4238C41.8966 55.2206 35.175 57.2342 27.6234 56.3967C22.8322 55.8664 18.5343 54.0704 14.7008 51.1675C14.3367 50.9152 13.9082 50.7691 13.4642 50.746C12.5024 50.6876 11.5406 50.746 10.5788 50.7365C8.38727 50.7297 6.92944 49.294 6.91021 47.1077C6.89647 45.4312 6.91021 43.7548 6.89372 42.077C6.8934 41.741 6.82616 41.4084 6.69586 41.0981C4.84095 36.905 4.08525 32.5405 4.54554 27.9762C4.81648 25.1552 5.55941 22.3984 6.74396 19.8184C6.85004 19.5697 6.90515 19.3026 6.90609 19.0326C6.92533 18.1271 6.90609 17.2202 6.90609 16.3133H7.00639ZM12.8913 27.2692C12.8913 32.5229 12.8913 37.7779 12.8803 43.0328C12.8803 43.6433 13.0012 43.9152 13.7047 43.9139C21.4651 43.8912 29.2246 43.8912 36.9832 43.9139C37.6221 43.9139 37.8076 43.7072 37.8076 43.0981C37.7925 33.427 37.8076 23.7546 37.7897 14.0835C37.7897 11.8578 36.5902 10.7198 34.3203 10.7198C32.2841 10.7198 30.2478 10.7646 28.2101 10.7619C23.4286 10.7619 18.6456 10.732 13.8627 10.7184C12.8927 10.7184 12.8913 10.7184 12.8913 11.715C12.8904 16.8952 12.8904 22.08 12.8913 27.2692ZM47.7664 49.4789C47.5447 49.3533 47.3321 49.2124 47.1302 49.0574C45.7205 47.7562 44.9744 46.1491 44.9524 44.2429C44.9249 41.9107 44.9213 39.578 44.9414 37.2449C44.9538 35.6949 45.5213 34.3312 46.49 33.1238C47.6276 31.7071 49.1528 30.9593 50.9074 30.5908C51.1025 30.55 51.3814 30.4453 51.4419 30.2985C52.0726 28.7635 51.1465 27.3957 49.4853 27.3902C47.8598 27.3902 46.2344 27.4106 44.6103 27.4011C42.9134 27.3916 41.7785 26.3134 41.7743 24.739C41.7702 23.1645 42.978 22.0333 44.6598 22.0197C45.4608 22.0115 46.2619 22.0333 47.0629 22.0115C47.3615 22.0041 47.6543 21.9289 47.9189 21.7919C48.1835 21.6549 48.4129 21.4596 48.5892 21.2211C48.7656 20.9826 48.8844 20.7073 48.9363 20.4163C48.9883 20.1252 48.9721 19.8263 48.889 19.5424C48.6142 18.5417 47.8969 18.0387 46.6507 18.0319C44.3149 18.0196 41.9791 18.0319 39.6433 18.0319C38.4754 18.0319 38.474 18.0319 38.474 19.1794V49.5468C38.474 50.727 38.474 50.727 37.2511 50.727C30.36 50.727 23.4702 50.727 16.5819 50.727C16.3071 50.727 16.024 50.7596 15.7451 50.7773L15.7217 50.9785C20.168 54.1533 25.1337 55.846 30.6476 55.8569C37.0587 55.8732 42.6771 53.7372 47.7664 49.4789ZM56.2688 31.8308C57.1344 23.0979 51.9599 11.7748 40.5735 7.10857C34.4742 4.6082 28.261 4.46 22.0243 6.72107C19.9138 7.48655 17.9023 8.43285 16.1628 9.91485C16.6153 10.0015 17.0762 10.0371 17.5368 10.0209C23.3077 10.0209 29.0785 10.0209 34.8397 10.0318C36.9447 10.0318 38.452 11.5655 38.4685 13.6511C38.4685 14.5566 38.4685 15.4635 38.4685 16.3704C38.4685 17.2773 38.4685 17.2664 39.3781 17.2678C41.8266 17.2678 44.2764 17.2501 46.7249 17.2746C48.4919 17.2922 49.6914 18.4615 49.6804 20.0876C49.6694 21.7138 48.5111 22.7512 46.7057 22.7593C45.9967 22.7593 45.2863 22.7389 44.5773 22.7688C43.3297 22.8191 42.3995 23.7206 42.4462 24.8015C42.493 25.8824 43.3874 26.6452 44.6447 26.6492L49.657 26.6588C50.7013 26.6588 51.5683 27.0245 51.9805 28.0184C52.1513 28.4851 52.2197 28.9824 52.1811 29.4773C52.1454 30.1924 52.3281 30.5188 53.1196 30.701C54.1954 30.9321 55.2025 31.4324 56.2688 31.8308ZM7.67691 44.7936L7.84866 44.9295C8.78299 44.0213 9.90968 43.7956 11.1463 43.8568C12.1287 43.9071 12.1328 43.8649 12.1328 42.905C12.1328 37.2626 12.1328 31.621 12.1328 25.9803C12.1328 21.1536 12.1328 16.3269 12.1438 11.5015C12.1438 10.9359 11.9542 10.7646 11.3922 10.7646C9.17595 10.7646 7.68927 12.195 7.6824 14.4275C7.67416 23.2633 7.67416 32.1009 7.6824 40.9404L7.67691 44.7936ZM23.7157 44.6358V44.6291C19.2978 44.6291 14.8799 44.6291 10.462 44.6291C8.80223 44.6291 7.59722 45.8391 7.64531 47.4068C7.6934 48.9323 8.91764 49.9901 10.6681 49.9901C19.2786 49.9973 27.8859 50.001 36.4899 50.001C37.9079 50.001 37.798 50.1791 37.8007 48.674C37.8007 47.6542 37.8007 47.6556 36.7812 47.6556C31.56 47.6556 26.3387 47.6556 21.1175 47.6406C20.7808 47.6406 20.1474 47.3973 20.1557 47.3347C20.2354 46.7528 20.7506 46.9119 21.1298 46.9119C26.189 46.9001 31.2481 46.8956 36.3072 46.8983C37.8062 46.8983 37.7774 46.8983 37.7925 45.4258C37.7925 44.8031 37.5974 44.61 36.9681 44.61C32.5561 44.6467 28.1345 44.6358 23.7157 44.6358ZM45.6917 41.8391C45.6917 42.6317 45.682 43.4244 45.6917 44.2171C45.7411 47.4612 48.463 50.1736 51.7373 50.2471C55.0116 50.3205 57.9753 47.6515 58.1127 44.4346C58.1883 42.6671 58.1237 40.8996 58.1416 39.132C58.1416 38.6684 57.9698 38.4849 57.4944 38.4957C56.3732 38.5202 55.2506 38.5379 54.1295 38.4957C53.5551 38.4767 53.3861 38.6657 53.3902 39.2286C53.3971 40.2102 52.7032 40.8071 51.7648 40.7242C50.983 40.6535 50.5749 40.2252 50.5474 39.2857C50.5295 38.6698 50.3138 38.4604 49.6886 38.4862C48.5688 38.5311 47.4463 38.5148 46.3251 38.493C45.8579 38.4835 45.6683 38.629 45.6834 39.1157C45.7123 40.0267 45.6917 40.9336 45.6917 41.8391ZM55.6931 37.7833C56.2427 37.7833 56.7923 37.7452 57.3419 37.7928C58.0014 37.8499 58.1828 37.5766 58.1278 36.9662C58.0072 35.5909 57.4269 34.2946 56.4786 33.2821C55.5303 32.2696 54.2681 31.5987 52.8915 31.3753C52.4188 31.2951 52.1948 31.3971 52.2045 31.8961C52.2127 32.958 52.1907 34.0212 52.2168 35.0831C52.2227 35.1887 52.2514 35.2919 52.301 35.3857C52.3505 35.4795 52.4197 35.5617 52.504 35.6269C53.1457 35.9981 53.4507 36.5243 53.3985 37.249C53.3682 37.684 53.6005 37.7928 53.9852 37.7833C54.5513 37.7724 55.1229 37.7819 55.6931 37.7833ZM48.0893 37.7833C48.6843 37.7833 49.2806 37.7629 49.8755 37.7833C50.355 37.8064 50.5419 37.6011 50.5296 37.1483C50.5144 36.5487 50.6669 36.0362 51.2399 35.7031C51.3118 35.6516 51.3715 35.5854 51.4149 35.5088C51.4584 35.4323 51.4844 35.3473 51.4914 35.2598C51.5037 34.0824 51.4996 32.9049 51.4584 31.7248C51.4584 31.5983 51.1726 31.3617 51.0462 31.3767C49.5902 31.5553 48.2482 32.2479 47.267 33.3272C46.2859 34.4066 45.7313 35.8001 45.7054 37.2517C45.7054 37.6419 45.8758 37.7738 46.2385 37.7697C46.8527 37.7724 47.471 37.7779 48.0893 37.7779V37.7833ZM6.83601 39.0546V22.0074C4.69393 25.0095 4.69668 36.1191 6.83601 39.0491V39.0546ZM52.6002 38.2673C52.6002 37.839 52.6799 37.389 52.5713 36.9893C52.5026 36.7377 52.1509 36.391 51.931 36.3937C51.7112 36.3965 51.3127 36.7568 51.2894 36.9893C51.2108 37.7747 51.214 38.5661 51.299 39.3509C51.3224 39.5726 51.7208 39.8826 51.9736 39.9098C52.1591 39.9288 52.4944 39.5848 52.57 39.3428C52.6785 39.0083 52.6002 38.6235 52.6002 38.2619V38.2673Z" fill="#017FDD"/>
<path d="M7.00639 16.3133C7.00639 15.1617 6.88136 13.9924 7.03525 12.8598C7.2702 11.1263 8.65933 10.0563 10.4428 10.0291C11.2672 10.0168 12.0916 9.96108 12.916 10.0413C14.0152 10.1501 14.8657 9.76938 15.7478 9.14938C19.5103 6.48671 23.9385 4.89582 28.5509 4.54974C33.6636 4.14185 38.4905 5.07592 43.0178 7.43216C47.0978 9.54391 50.5421 12.6839 53.0028 16.5349C54.9264 19.5152 56.2427 22.743 56.7401 26.2318C57.0231 28.2115 56.9297 30.2428 57.0314 32.2496C57.0399 32.5554 57.1351 32.8527 57.3062 33.1075C58.2529 34.3312 58.8176 35.6786 58.8093 37.2449C58.797 39.6474 58.8602 42.0498 58.8093 44.4509C58.7008 49.245 53.3023 52.4306 48.9467 50.2783C48.452 50.035 48.169 50.0812 47.7499 50.4238C41.8966 55.2206 35.175 57.2342 27.6234 56.3967C22.8322 55.8664 18.5343 54.0704 14.7008 51.1675C14.3367 50.9152 13.9082 50.7691 13.4642 50.746C12.5024 50.6876 11.5406 50.746 10.5788 50.7365C8.38727 50.7297 6.92944 49.294 6.91021 47.1077C6.89647 45.4312 6.91021 43.7548 6.89372 42.077C6.8934 41.741 6.82616 41.4084 6.69586 41.0981C4.84095 36.905 4.08525 32.5405 4.54554 27.9762C4.81648 25.1552 5.55941 22.3984 6.74396 19.8184C6.85004 19.5697 6.90515 19.3026 6.90609 19.0326C6.92533 18.1271 6.90609 17.2202 6.90609 16.3133H7.00639ZM12.8913 27.2692C12.8913 32.5229 12.8913 37.7779 12.8803 43.0328C12.8803 43.6433 13.0012 43.9152 13.7047 43.9139C21.4651 43.8912 29.2246 43.8912 36.9832 43.9139C37.6221 43.9139 37.8076 43.7072 37.8076 43.0981C37.7925 33.427 37.8076 23.7546 37.7897 14.0835C37.7897 11.8578 36.5902 10.7198 34.3203 10.7198C32.2841 10.7198 30.2478 10.7646 28.2101 10.7619C23.4286 10.7619 18.6456 10.732 13.8627 10.7184C12.8927 10.7184 12.8913 10.7184 12.8913 11.715C12.8904 16.8952 12.8904 22.08 12.8913 27.2692ZM47.7664 49.4789C47.5447 49.3533 47.3321 49.2124 47.1302 49.0574C45.7205 47.7562 44.9744 46.1491 44.9524 44.2429C44.9249 41.9107 44.9213 39.578 44.9414 37.2449C44.9538 35.6949 45.5213 34.3312 46.49 33.1238C47.6276 31.7071 49.1528 30.9593 50.9074 30.5908C51.1025 30.55 51.3814 30.4453 51.4419 30.2985C52.0726 28.7635 51.1465 27.3957 49.4853 27.3902C47.8598 27.3902 46.2344 27.4106 44.6103 27.4011C42.9134 27.3916 41.7785 26.3134 41.7743 24.739C41.7702 23.1645 42.978 22.0333 44.6598 22.0197C45.4608 22.0115 46.2619 22.0333 47.0629 22.0115C47.3615 22.0041 47.6543 21.9289 47.9189 21.7919C48.1835 21.6549 48.4129 21.4596 48.5892 21.2211C48.7656 20.9826 48.8844 20.7073 48.9363 20.4163C48.9883 20.1252 48.9721 19.8263 48.889 19.5424C48.6142 18.5417 47.8969 18.0387 46.6507 18.0319C44.3149 18.0196 41.9791 18.0319 39.6433 18.0319C38.4754 18.0319 38.474 18.0319 38.474 19.1794V49.5468C38.474 50.727 38.474 50.727 37.2511 50.727C30.36 50.727 23.4702 50.727 16.5819 50.727C16.3071 50.727 16.024 50.7596 15.7451 50.7773L15.7217 50.9785C20.168 54.1533 25.1337 55.846 30.6476 55.8569C37.0587 55.8732 42.6771 53.7372 47.7664 49.4789ZM56.2688 31.8308C57.1344 23.0979 51.9599 11.7748 40.5735 7.10857C34.4742 4.6082 28.261 4.46 22.0243 6.72107C19.9138 7.48655 17.9023 8.43285 16.1628 9.91485C16.6153 10.0015 17.0762 10.0371 17.5368 10.0209C23.3077 10.0209 29.0785 10.0209 34.8397 10.0318C36.9447 10.0318 38.452 11.5655 38.4685 13.6511C38.4685 14.5566 38.4685 15.4635 38.4685 16.3704C38.4685 17.2773 38.4685 17.2664 39.3781 17.2678C41.8266 17.2678 44.2764 17.2501 46.7249 17.2746C48.4919 17.2922 49.6914 18.4615 49.6804 20.0876C49.6694 21.7138 48.5111 22.7512 46.7057 22.7593C45.9967 22.7593 45.2863 22.7389 44.5773 22.7688C43.3297 22.8191 42.3995 23.7206 42.4462 24.8015C42.493 25.8824 43.3874 26.6452 44.6447 26.6492L49.657 26.6588C50.7013 26.6588 51.5683 27.0245 51.9805 28.0184C52.1513 28.4851 52.2197 28.9824 52.1811 29.4773C52.1454 30.1924 52.3281 30.5188 53.1196 30.701C54.1954 30.9321 55.2025 31.4324 56.2688 31.8308ZM7.67691 44.7936L7.84866 44.9295C8.78299 44.0213 9.90968 43.7956 11.1463 43.8568C12.1287 43.9071 12.1328 43.8649 12.1328 42.905C12.1328 37.2626 12.1328 31.621 12.1328 25.9803C12.1328 21.1536 12.1328 16.3269 12.1438 11.5015C12.1438 10.9359 11.9542 10.7646 11.3922 10.7646C9.17595 10.7646 7.68927 12.195 7.6824 14.4275C7.67416 23.2633 7.67416 32.1009 7.6824 40.9404L7.67691 44.7936ZM23.7157 44.6358V44.6291C19.2978 44.6291 14.8799 44.6291 10.462 44.6291C8.80223 44.6291 7.59722 45.8391 7.64531 47.4068C7.6934 48.9323 8.91764 49.9901 10.6681 49.9901C19.2786 49.9973 27.8859 50.001 36.4899 50.001C37.9079 50.001 37.798 50.1791 37.8007 48.674C37.8007 47.6542 37.8007 47.6556 36.7812 47.6556C31.56 47.6556 26.3387 47.6556 21.1175 47.6406C20.7808 47.6406 20.1474 47.3973 20.1557 47.3347C20.2354 46.7528 20.7506 46.9119 21.1298 46.9119C26.189 46.9001 31.2481 46.8956 36.3072 46.8983C37.8062 46.8983 37.7774 46.8983 37.7925 45.4258C37.7925 44.8031 37.5974 44.61 36.9681 44.61C32.5561 44.6467 28.1345 44.6358 23.7157 44.6358ZM45.6917 41.8391C45.6917 42.6317 45.682 43.4244 45.6917 44.2171C45.7411 47.4612 48.463 50.1736 51.7373 50.2471C55.0116 50.3205 57.9753 47.6515 58.1127 44.4346C58.1883 42.6671 58.1237 40.8996 58.1416 39.132C58.1416 38.6684 57.9698 38.4849 57.4944 38.4957C56.3732 38.5202 55.2506 38.5379 54.1295 38.4957C53.5551 38.4767 53.3861 38.6657 53.3902 39.2286C53.3971 40.2102 52.7032 40.8071 51.7648 40.7242C50.983 40.6535 50.5749 40.2252 50.5474 39.2857C50.5295 38.6698 50.3138 38.4604 49.6886 38.4862C48.5688 38.5311 47.4463 38.5148 46.3251 38.493C45.8579 38.4835 45.6683 38.629 45.6834 39.1157C45.7123 40.0267 45.6917 40.9336 45.6917 41.8391ZM55.6931 37.7833C56.2427 37.7833 56.7923 37.7452 57.3419 37.7928C58.0014 37.8499 58.1828 37.5766 58.1278 36.9662C58.0072 35.5909 57.4269 34.2946 56.4786 33.2821C55.5303 32.2696 54.2681 31.5987 52.8915 31.3753C52.4188 31.2951 52.1948 31.3971 52.2045 31.8961C52.2127 32.958 52.1907 34.0212 52.2168 35.0831C52.2227 35.1887 52.2514 35.2919 52.301 35.3857C52.3505 35.4795 52.4197 35.5617 52.504 35.6269C53.1457 35.9981 53.4507 36.5243 53.3985 37.249C53.3682 37.684 53.6005 37.7928 53.9852 37.7833C54.5513 37.7724 55.1229 37.7819 55.6931 37.7833ZM48.0893 37.7833C48.6843 37.7833 49.2806 37.7629 49.8755 37.7833C50.355 37.8064 50.5419 37.6011 50.5296 37.1483C50.5144 36.5487 50.6669 36.0362 51.2399 35.7031C51.3118 35.6516 51.3715 35.5854 51.4149 35.5088C51.4584 35.4323 51.4844 35.3473 51.4914 35.2598C51.5037 34.0824 51.4996 32.9049 51.4584 31.7248C51.4584 31.5983 51.1726 31.3617 51.0462 31.3767C49.5902 31.5553 48.2482 32.2479 47.267 33.3272C46.2859 34.4066 45.7313 35.8001 45.7054 37.2517C45.7054 37.6419 45.8758 37.7738 46.2385 37.7697C46.8527 37.7724 47.471 37.7779 48.0893 37.7779V37.7833ZM6.83601 39.0546V22.0074C4.69393 25.0095 4.69668 36.1191 6.83601 39.0491V39.0546ZM52.6002 38.2673C52.6002 37.839 52.6799 37.389 52.5713 36.9893C52.5026 36.7377 52.1509 36.391 51.931 36.3937C51.7112 36.3965 51.3127 36.7568 51.2894 36.9893C51.2108 37.7747 51.214 38.5661 51.299 39.3509C51.3224 39.5726 51.7208 39.8826 51.9736 39.9098C52.1591 39.9288 52.4944 39.5848 52.57 39.3428C52.6785 39.0083 52.6002 38.6235 52.6002 38.2619V38.2673Z" stroke="#017FDD" stroke-width="0.4" mask="url(#path-1-outside-1)"/>
<path d="M60.1117 25.7248L60.0658 25.7649L59.7017 26.0831L59.627 26.1484L59.5611 26.0741C59.5298 26.0388 59.494 26.0039 59.455 25.967C59.4469 25.9592 59.4385 25.9514 59.4301 25.9434C59.3991 25.9143 59.3667 25.8837 59.3363 25.853C59.2604 25.7761 59.181 25.6825 59.1505 25.5673C59.1505 25.5672 59.1504 25.5671 59.1504 25.567L59.2471 25.5414C59.119 25.0638 59.0059 24.5818 58.8928 24.0998C58.7266 23.3919 58.5604 22.684 58.3471 21.99L60.1117 25.7248ZM60.1117 25.7248L60.0971 25.6657C60.0798 25.5954 60.0649 25.5378 60.0522 25.4889C60.024 25.3802 60.0069 25.3141 59.9991 25.2458L59.9992 25.2458L59.9984 25.2409C59.3543 21.3525 57.8882 17.7774 55.7504 14.47M60.1117 25.7248L59.6359 26.0078L60 25.6896C59.9841 25.625 59.9699 25.5701 59.9575 25.5221C59.928 25.4083 59.9084 25.3328 59.8997 25.2572C59.2581 21.3836 57.7975 17.8214 55.6664 14.5243M55.6664 14.5243L55.7504 14.47C55.7504 14.47 55.7504 14.47 55.7504 14.47M55.6664 14.5243C53.0159 10.4223 49.5095 7.19993 45.2583 4.76754C44.6444 4.41521 44.0109 4.09746 43.3608 3.8158M55.6664 14.5243L43.3608 3.8158M55.7504 14.47C53.0907 10.3537 49.5721 7.12059 45.3081 4.68081M55.7504 14.47L45.3081 4.68081M45.3081 4.68081C44.691 4.32666 44.0542 4.00725 43.4007 3.72413L45.3081 4.68081ZM43.3608 3.8158C43.2355 3.76081 43.0721 3.7908 42.9087 3.82079C42.8705 3.82781 42.8323 3.83482 42.7945 3.84075C42.788 3.82916 42.7816 3.81753 42.7752 3.80588L42.6875 3.85387L42.6953 3.95357C42.7105 3.95238 42.7259 3.95085 42.7412 3.94907C42.8421 4.12268 42.9555 4.28897 43.0805 4.44667C43.146 4.52369 43.2521 4.56826 43.3568 4.61222C43.4036 4.6319 43.4502 4.65145 43.4927 4.67373L43.3608 3.8158Z" fill="#017FDD" stroke="#017FDD" stroke-width="0.2"/>
<path d="M0.900021 29.7851L0.899977 29.7851L4.70571 44.4495L4.6181 44.4977C4.61817 44.4978 4.61824 44.498 4.61831 44.4981C4.67878 44.6076 4.79819 44.6669 4.89881 44.7081C4.93747 44.7239 4.97862 44.739 5.01765 44.7533C5.03151 44.7584 5.0451 44.7634 5.05823 44.7683C5.11014 44.7876 5.15695 44.8062 5.19754 44.8268L5.31945 44.889L5.34162 44.7539C5.34982 44.704 5.36215 44.6521 5.37608 44.5971C5.37927 44.5846 5.38256 44.5717 5.38589 44.5587C5.3968 44.5162 5.40819 44.4719 5.41785 44.4284C5.4429 44.3156 5.46133 44.1892 5.43058 44.0674L5.43055 44.0673C5.39419 43.9242 5.321 43.7951 5.24715 43.6772C5.22737 43.6456 5.20771 43.615 5.18844 43.585C5.13324 43.4992 5.08122 43.4183 5.03859 43.3325C1.32686 35.7711 0.756445 28.0413 3.73898 20.1158C3.89586 19.7588 4.0296 19.3923 4.13938 19.0185L4.13954 19.0186L4.14085 19.0129C4.16646 18.9024 4.12313 18.7894 4.08265 18.702C4.0666 18.6674 4.04843 18.6317 4.0313 18.5981C4.0258 18.5874 4.02041 18.5768 4.01523 18.5665C3.99311 18.5227 3.97389 18.4827 3.95976 18.4452L3.92377 18.3497L3.82904 18.3876C3.66658 18.4526 3.51296 18.5375 3.37177 18.6403L3.35974 18.649L3.35078 18.6609C3.26261 18.7778 3.19747 18.9102 3.15876 19.051C1.63658 22.5665 0.973023 26.2523 0.900021 29.7851Z" fill="#017FDD" stroke="#017FDD" stroke-width="0.2"/>
<path d="M30.6101 60.0825C34.1466 60.0845 37.6542 59.4517 40.9626 58.2149L40.9628 58.2148C42.2249 57.7396 43.4372 57.1266 44.6416 56.5175C44.9834 56.3447 45.3245 56.1722 45.666 56.0032C45.7307 55.9726 45.7782 55.9215 45.8142 55.8675C45.8504 55.8132 45.8789 55.7501 45.9032 55.6881C45.9211 55.6425 45.938 55.5938 45.9542 55.5474C45.9599 55.531 45.9656 55.5149 45.9711 55.4993C45.993 55.4374 46.0142 55.3813 46.0379 55.3332L46.1103 55.1862L45.9464 55.1891C45.8857 55.1902 45.8239 55.1904 45.7615 55.1907C45.5933 55.1915 45.4207 55.1923 45.2516 55.2086L45.2418 55.2095L45.2323 55.2124C45.1349 55.2418 45.0442 55.2896 44.9652 55.3532C42.4246 56.8132 39.6664 57.8663 36.7931 58.4734L36.7929 58.4734C34.2741 59.0111 31.6979 59.2388 29.1227 59.1511L29.1224 59.1511C28.9854 59.1468 28.8548 59.2052 28.7421 59.2663C28.6999 59.2891 28.6572 59.3141 28.6161 59.3382C28.6015 59.3467 28.5872 59.355 28.5732 59.3632C28.5182 59.395 28.4662 59.4239 28.4156 59.4469L28.258 59.5186L29.0987 59.9621L29.0857 60.0613C29.4485 60.1087 29.821 60.0992 30.1833 60.0899C30.3276 60.0862 30.4703 60.0825 30.6101 60.0825ZM30.6101 60.0825L30.6101 59.9825V60.0825C30.6101 60.0825 30.6101 60.0825 30.6101 60.0825Z" fill="#017FDD" stroke="#017FDD" stroke-width="0.2"/>
<path d="M33.5269 0.901794L33.4817 0.893125L33.4458 0.921746L32.969 1.30109L32.8777 1.37373L32.9634 1.45284C33.0002 1.48675 33.0368 1.52642 33.0757 1.56982C33.0838 1.57885 33.092 1.58809 33.1003 1.59746C33.131 1.63193 33.1632 1.66812 33.1955 1.70175C33.2756 1.78494 33.376 1.874 33.5008 1.8989L33.501 1.89892C34.9531 2.18649 36.4125 2.44865 37.8793 2.68542L37.8798 2.68549C37.9987 2.70413 38.1172 2.64989 38.2105 2.59933C38.2462 2.57994 38.283 2.55831 38.3179 2.53778C38.3305 2.53037 38.3428 2.52311 38.3548 2.51615C38.4016 2.48891 38.4447 2.46501 38.4854 2.44698L38.601 2.39574L38.5245 2.29504C38.4979 2.2601 38.4715 2.21772 38.4431 2.17004C38.4363 2.1586 38.4293 2.14677 38.4222 2.13472C38.4007 2.09831 38.378 2.05989 38.3552 2.02432C38.3246 1.97678 38.2901 1.92832 38.2506 1.88866C38.2113 1.84919 38.161 1.81218 38.0981 1.79833L38.0974 1.79818C36.9257 1.54966 35.7479 1.32534 34.537 1.0947C34.203 1.0311 33.8665 0.967005 33.5269 0.901794ZM37.8952 2.5867C36.4296 2.35012 34.9713 2.08816 33.5204 1.80083L37.8952 2.5867Z" fill="#017FDD" stroke="#017FDD" stroke-width="0.2"/>
<path d="M23.3186 59.2603L23.3709 59.2786L23.4142 59.2439L23.8593 58.8863L23.9434 58.8188L23.8697 58.74C23.8348 58.7027 23.8006 58.6597 23.7645 58.6128C23.756 58.6017 23.7473 58.5902 23.7384 58.5786C23.711 58.5426 23.6823 58.5049 23.6532 58.4695C23.5776 58.3772 23.4844 58.2796 23.3622 58.2357C22.2752 57.8421 21.1796 57.4675 20.0857 57.0935C19.7807 56.9892 19.4758 56.885 19.1713 56.7804L19.1713 56.7804L19.1708 56.7802C19.1592 56.7763 19.1461 56.7708 19.1292 56.7634C19.1267 56.7623 19.124 56.7611 19.1213 56.7599C19.1073 56.7537 19.0908 56.7464 19.0748 56.7402C19.0406 56.7268 18.9807 56.7059 18.9188 56.7227L18.9188 56.7227C18.7999 56.7552 18.6805 56.8054 18.569 56.8524C18.5245 56.8711 18.4813 56.8893 18.4399 56.9056L18.339 56.9454L18.3868 57.0428C18.4025 57.0746 18.4167 57.1114 18.4317 57.1527C18.4352 57.1625 18.4389 57.1726 18.4426 57.183C18.454 57.2147 18.4661 57.2486 18.4789 57.2805C18.5113 57.3612 18.5596 57.4617 18.651 57.5157L18.651 57.5158L18.6518 57.5162C18.9718 57.7016 19.3092 57.8558 19.6593 57.9767C20.5358 58.2921 21.4155 58.598 22.3163 58.9113C22.6473 59.0264 22.981 59.1424 23.3186 59.2603ZM18.9451 56.8192C18.984 56.8086 19.0325 56.83 19.0804 56.8511C19.1002 56.8599 19.1199 56.8686 19.1388 56.8749C19.4437 56.9796 19.7487 57.0839 20.0539 57.1883C21.1476 57.5622 22.2421 57.9364 23.3282 58.3298C23.4586 58.3765 23.5584 58.5074 23.6581 58.6382C23.6824 58.6701 23.7067 58.7019 23.7314 58.7325L18.9451 56.8192Z" fill="#017FDD" stroke="#017FDD" stroke-width="0.2"/>
<path d="M25.5312 32.7279V32.7429C26.1886 32.7428 26.8464 32.7421 27.5042 32.7414C29.4917 32.7393 31.4798 32.7373 33.464 32.7524C33.7504 32.7524 33.9187 32.7128 34.0186 32.6245C34.115 32.5394 34.1722 32.3859 34.1702 32.0862C34.1436 28.9132 34.1436 25.7403 34.1702 22.5673L34.2702 22.5681M25.5312 32.7279L33.5285 21.9122C33.8071 21.9115 33.9562 21.9616 34.0407 22.0501C34.1264 22.14 34.1702 22.2944 34.1702 22.5681H34.2702M25.5312 32.7279H25.4312M25.5312 32.7279H25.4312M34.2702 22.5681C34.2436 25.7406 34.2436 28.9131 34.2702 32.0856V22.5681ZM25.4312 32.7279C24.6284 32.7279 23.8254 32.7268 23.0223 32.7257C21.1484 32.7231 19.274 32.7206 17.4012 32.732C17.1001 32.732 16.9249 32.687 16.8217 32.591C16.7207 32.4971 16.6641 32.3307 16.6674 32.0173L16.6674 32.0171C16.6958 28.8686 16.6999 25.7205 16.6798 22.5729L16.6798 22.5728C16.6778 22.2935 16.7255 22.1451 16.8119 22.0612C16.8993 21.9763 17.0515 21.9326 17.3272 21.9325M25.4312 32.7279L16.5674 32.0162C16.5958 28.8682 16.5999 25.7207 16.5798 22.5736C16.5757 22.0039 16.768 21.8325 17.3273 21.8325M17.3273 21.8325L17.3271 21.9325C17.3271 21.9325 17.3272 21.9325 17.3272 21.9325M17.3273 21.8325V21.9325C17.3272 21.9325 17.3272 21.9325 17.3272 21.9325M17.3273 21.8325L17.3272 21.9325M25.5107 33.6907L25.5121 33.6376L25.4147 33.5376C26.1843 33.5376 26.9538 33.5368 27.7233 33.5359C29.8607 33.5335 31.9977 33.5312 34.1355 33.5472L34.1347 33.6472C34.1347 33.6472 34.1347 33.6472 34.1348 33.6472C34.4668 33.6499 34.7197 33.5968 34.8848 33.4301C35.0495 33.2638 35.1025 33.009 35.1025 32.6756L35.1025 32.6749C35.0831 30.0308 35.0857 27.3868 35.0883 24.7418C35.0892 23.8293 35.0901 22.9167 35.0901 22.0039C35.0901 21.7959 35.0846 21.6264 35.0608 21.4914C35.0369 21.3554 34.9924 21.2426 34.9052 21.1588C34.8186 21.0755 34.7026 21.0333 34.5623 21.0104C34.4224 20.9875 34.2461 20.982 34.0283 20.982H33.9947H33.961H33.9273H33.8936H33.86H33.8263H33.7926H33.7589H33.7253H33.6916H33.6579H33.6242H33.5906H33.5569H33.5232H33.4896H33.4559H33.4222H33.3885H33.3549H33.3212H33.2875H33.2538H33.2202H33.1865H33.1528H33.1191H33.0855H33.0518H33.0181H32.9844H32.9508H32.9171H32.8834H32.8497H32.8161H32.7824H32.7487H32.7151H32.6814H32.6477H32.614H32.5804H32.5467H32.513H32.4793H32.4457H32.412H32.3783H32.3446H32.311H32.2773H32.2436H32.2099H32.1763H32.1426H32.1089H32.0752H32.0416H32.0079H31.9742H31.9405H31.9069H31.8732H31.8395H31.8059H31.7722H31.7385H31.7048H31.6712H31.6375H31.6038H31.5701H31.5365H31.5028H31.4691H31.4354H31.4018H31.3681H31.3344H31.3007H31.2671H31.2334H31.1997H31.166H31.1324H31.0987H31.065H31.0314H30.9977H30.964H30.9303H30.8967H30.863H30.8293H30.7956H30.762H30.7283H30.6946H30.6609H30.6273H30.5936H30.5599H30.5262H30.4926H30.4589H30.4252H30.3915H30.3579H30.3242H30.2905H30.2569H30.2232H30.1895H30.1558H30.1222H30.0885H30.0548H30.0211H29.9875H29.9538H29.9201H29.8864H29.8528H29.8191H29.7854H29.7517H29.7181H29.6844H29.6507H29.617H29.5834H29.5497H29.516H29.4824H29.4487H29.415H29.3813H29.3477H29.314H29.2803H29.2466H29.213H29.1793H29.1456H29.1119H29.0783H29.0446H29.0109H28.9772H28.9436H28.9099H28.8762H28.8425H28.8089H28.7752H28.7415H28.7078H28.6742H28.6405H28.6068H28.5732H28.5395H28.5058H28.4721H28.4385H28.4048H28.3711H28.3374H28.3038H28.2701H28.2364H28.2027H28.1691H28.1354H28.1017H28.068H28.0344H28.0007H27.967H27.9333H27.8997H27.866H27.8323H27.7987H27.765H27.7313H27.6976H27.664H27.6303H27.5966H27.5629H27.5293H27.4956H27.4619H27.4282H27.3946H27.3609H27.3272H27.2935H27.2599H27.2262H27.1925H27.1588H27.1252H27.0915H27.0578H27.0241H26.9905H26.9568H26.9231H26.8895H26.8558H26.8221H26.7884H26.7548H26.7211H26.6874H26.6537H26.6201H26.5864H26.5527H26.519H26.4854H26.4517H26.418H26.3843H26.3507H26.317H26.2833H26.2496H26.216H26.1823H26.1486H26.115H26.0813H26.0476H26.0139H25.9803H25.9466H25.9129H25.8792H25.8456H25.8119H25.7782H25.7445H25.7109H25.6772H25.6435H25.6098H25.5762H25.5425H25.5088H25.4751H25.4415H25.4078H25.3741H25.3405H25.3068H25.2731H25.2394H25.2058H25.1721H25.1384H25.1047H25.0711H25.0374H25.0037H24.97H24.9364H24.9027H24.869H24.8353H24.8017H24.768H24.7343H24.7006H24.667H24.6333H24.5996H24.5659H24.5323H24.4986H24.4649H24.4313H24.3976H24.3639H24.3302H24.2966H24.2629H24.2292H24.1955H24.1619H24.1282H24.0945H24.0608H24.0272H23.9935H23.9598H23.9261H23.8925H23.8588H23.8251H23.7914H23.7578H23.7241H23.6904H23.6568H23.6231H23.5894H23.5557H23.5221H23.4884H23.4547H23.421H23.3874H23.3537H23.32H23.2863H23.2527H23.219H23.1853H23.1516H23.118H23.0843H23.0506H23.0169H22.9833H22.9496H22.9159H22.8823H22.8486H22.8149H22.7812H22.7476H22.7139H22.6802H22.6465H22.6129H22.5792H22.5455H22.5118H22.4782H22.4445H22.4108H22.3771H22.3435H22.3098H22.2761H22.2424H22.2088H22.1751H22.1414H22.1077H22.0741H22.0404H22.0067H21.9731H21.9394H21.9057H21.872H21.8384H21.8047H21.771H21.7373H21.7037H21.67H21.6363H21.6026H21.569H21.5353H21.5016H21.4679H21.4343H21.4006H21.3669H21.3332H21.2996H21.2659H21.2322H21.1986H21.1649H21.1312H21.0975H21.0639H21.0302H20.9965H20.9628H20.9292H20.8955H20.8618H20.8281H20.7945H20.7608H20.7271H20.6934H20.6598H20.6261H20.5924H20.5587H20.5251H20.4914H20.4577H20.4241H20.3904H20.3567H20.323H20.2894H20.2557H20.222H20.1883H20.1547H20.121H20.0873H20.0536H20.02H19.9863H19.9526H19.9189H19.8853H19.8516H19.8179H19.7842H19.7506H19.7169H19.6832H19.6495H19.6159H19.5822H19.5485H19.5149H19.4812H19.4475H19.4138H19.3802H19.3465H19.3128H19.2791H19.2455H19.2118H19.1781H19.1444H19.1108H19.0771H19.0434H19.0097H18.9761H18.9424H18.9087H18.875H18.8414H18.8077H18.774H18.7404H18.7067H18.673H18.6393H18.6057H18.572H18.5383H18.5046H18.471H18.4373H18.4036H18.3699H18.3363H18.3026H18.2689H18.2352H18.2016H18.1679H18.1342H18.1005H18.0669H18.0332H17.9995H17.9659H17.9322H17.8985H17.8648H17.8312H17.7975H17.7638H17.7301H17.6965H17.6628H17.6291H17.5954H17.5618H17.5281H17.4944H17.4607H17.4271H17.3934H17.3597H17.326H17.2924H17.2587H17.225H17.1913H17.1577H17.124H17.0903H17.0567H17.023H16.9893H16.9556H16.922H16.8883H16.8546H16.8209H16.7873C16.5746 20.982 16.4021 20.9877 16.2651 21.0116C16.1272 21.0356 16.0134 21.0798 15.9289 21.1663C15.8447 21.2525 15.8023 21.3679 15.7795 21.5069C15.7567 21.6453 15.7516 21.8194 15.7516 22.0338V22.0545V22.0752V22.0959V22.1166V22.1373V22.1581V22.1788V22.1995V22.2202V22.2409V22.2616V22.2823V22.303V22.3238V22.3445V22.3652V22.3859V22.4066V22.4273V22.448V22.4688V22.4895V22.5102V22.5309V22.5516V22.5723V22.593V22.6137V22.6345V22.6552V22.6759V22.6966V22.7173V22.738V22.7587V22.7795V22.8002V22.8209V22.8416V22.8623V22.883V22.9037V22.9244V22.9452V22.9659V22.9866V23.0073V23.028V23.0487V23.0694V23.0901V23.1109V23.1316V23.1523V23.173V23.1937V23.2144V23.2351V23.2559V23.2766V23.2973V23.318V23.3387V23.3594V23.3801V23.4008V23.4216V23.4423V23.463V23.4837V23.5044V23.5251V23.5458V23.5666V23.5873V23.608V23.6287V23.6494V23.6701V23.6908V23.7115V23.7323V23.753V23.7737V23.7944V23.8151V23.8358V23.8565V23.8772V23.898V23.9187V23.9394V23.9601V23.9808V24.0015V24.0222V24.043V24.0637V24.0844V24.1051V24.1258V24.1465V24.1672V24.1879V24.2087V24.2294V24.2501V24.2708V24.2915V24.3122V24.3329V24.3537V24.3744V24.3951V24.4158V24.4365V24.4572V24.4779V24.4986V24.5194V24.5401V24.5608V24.5815V24.6022V24.6229V24.6436V24.6644V24.6851V24.7058V24.7265V24.7472V24.7679V24.7886V24.8093V24.8301V24.8508V24.8715V24.8922V24.9129V24.9336V24.9543V24.975V24.9958V25.0165V25.0372V25.0579V25.0786V25.0993V25.12V25.1408V25.1615V25.1822V25.2029V25.2236V25.2443V25.265V25.2857V25.3065V25.3272V25.3479V25.3686V25.3893V25.41V25.4307V25.4515V25.4722V25.4929V25.5136V25.5343V25.555V25.5757V25.5964V25.6172V25.6379V25.6586V25.6793V25.7V25.7207V25.7414V25.7621V25.7829V25.8036V25.8243V25.845V25.8657V25.8864V25.9071V25.9279V25.9486V25.9693V25.99V26.0107V26.0314V26.0521V26.0728V26.0936V26.1143V26.135V26.1557V26.1764V26.1971V26.2178V26.2386V26.2593V26.28V26.3007V26.3214V26.3421V26.3628V26.3835V26.4043V26.425V26.4457V26.4664V26.4871V26.5078V26.5285V26.5493V26.57V26.5907V26.6114V26.6321V26.6528V26.6735V26.6942V26.715V26.7357V26.7564V26.7771V26.7978V26.8185V26.8392V26.8599V26.8807V26.9014V26.9221V26.9428V26.9635V26.9842V27.0049V27.0257V27.0464V27.0671V27.0878V27.1085V27.1292V27.1499V27.1706V27.1914V27.2121V27.2328V27.2535V27.2742V27.2949V27.3156V27.3364V27.3571V27.3778V27.3985V27.4192V27.4399V27.4606V27.4813V27.5021V27.5228V27.5435V27.5642V27.5849V27.6056V27.6263V27.647V27.6678V27.6885V27.7092V27.7299V27.7506V27.7713V27.792V27.8128V27.8335V27.8542V27.8749V27.8956V27.9163V27.937V27.9577V27.9785V27.9992V28.0199V28.0406V28.0613V28.082V28.1027V28.1235V28.1442V28.1649V28.1856V28.2063V28.227V28.2477V28.2684V28.2892V28.3099V28.3306V28.3513V28.372V28.3927V28.4134V28.4342V28.4549V28.4756V28.4963V28.517V28.5377V28.5584V28.5791V28.5999V28.6206V28.6413V28.662V28.6827V28.7034V28.7241V28.7448V28.7656V28.7863V28.807V28.8277V28.8484V28.8691V28.8898V28.9106V28.9313V28.952V28.9727V28.9934V29.0141V29.0348V29.0555V29.0763V29.097V29.1177V29.1384V29.1591V29.1798V29.2005V29.2213V29.242V29.2627V29.2834V29.3041V29.3248V29.3455V29.3662V29.387V29.4077V29.4284V29.4491V29.4698V29.4905V29.5112V29.5319V29.5527V29.5734V29.5941V29.6148V29.6355V29.6562V29.6769V29.6977V29.7184V29.7391V29.7598V29.7805V29.8012V29.8219V29.8426V29.8634V29.8841V29.9048V29.9255V29.9462V29.9669V29.9876V30.0084V30.0291V30.0498V30.0705V30.0912V30.1119V30.1326V30.1533V30.1741V30.1948V30.2155V30.2362V30.2569V30.2776V30.2983V30.3191V30.3398V30.3605V30.3812V30.4019V30.4226V30.4433V30.464V30.4848V30.5055V30.5262V30.5469V30.5676V30.5883V30.609V30.6297V30.6505V30.6712V30.6919V30.7126V30.7333V30.754V30.7747V30.7955V30.8162V30.8369V30.8576V30.8783V30.899V30.9197V30.9404V30.9612V30.9819V31.0026V31.0233V31.044V31.0647V31.0854V31.1062V31.1269V31.1476V31.1683V31.189V31.2097V31.2304V31.2511V31.2719V31.2926V31.3133V31.334V31.3547V31.3754V31.3961V31.4169V31.4376V31.4583V31.479V31.4997V31.5204V31.5411V31.5618V31.5826V31.6033V31.624V31.6447V31.6654V31.6861V31.7068V31.7275V31.7483V31.769V31.7897V31.8104V31.8311V31.8518V31.8725V31.8933V31.914V31.9347V31.9554V31.9761V31.9968V32.0175V32.0382V32.059V32.0797V32.1004V32.1211V32.1418V32.1625V32.1832V32.204V32.2247V32.2454V32.2661V32.2868V32.3075V32.3282V32.3489V32.3697V32.3904V32.4111V32.4318V32.4525V32.4732V32.4939V32.5146V32.5354V32.5561V32.5768V32.5975V32.6182V32.6389C15.7516 32.8616 15.7549 33.0402 15.7759 33.1799C15.7969 33.3201 15.8377 33.4366 15.9249 33.5218C16.0119 33.6067 16.1303 33.6462 16.2733 33.6668C16.4162 33.6873 16.5993 33.6907 16.8285 33.6907H25.4133H25.5107Z" fill="#017FDD" stroke="#017FDD" stroke-width="0.2"/>
<path d="M40.9988 34.2652L41.0988 34.2635C41.1291 35.9542 41.1291 37.6454 41.0988 39.3371L40.9988 39.3353M40.9988 34.2652H41.0988C41.0988 34.1975 41.0687 34.1399 41.0345 34.0949C41.0002 34.0497 40.9553 34.0086 40.9108 33.9721C40.8746 33.9424 40.8351 33.9128 40.7979 33.885C40.7893 33.8786 40.7809 33.8722 40.7726 33.866C40.7271 33.8318 40.687 33.8006 40.6548 33.7707L40.5692 33.6907L40.5037 33.7879C40.4824 33.8195 40.4555 33.8523 40.4247 33.8882C40.4169 33.8973 40.4088 33.9067 40.4005 33.9163C40.3772 33.9431 40.3525 33.9717 40.33 33.9997C40.2719 34.0721 40.2043 34.1689 40.2036 34.281C40.1833 34.8647 40.1862 35.4499 40.1891 36.0325C40.1899 36.196 40.1908 36.3592 40.1911 36.5222L40.1747 36.5182V36.646C40.1747 36.8724 40.1734 37.0993 40.1721 37.3267C40.1684 37.9784 40.1647 38.6332 40.1913 39.2864L40.1913 39.2867C40.194 39.3494 40.2183 39.4052 40.2478 39.4523C40.2773 39.4995 40.3156 39.5435 40.354 39.5835C40.3822 39.6129 40.413 39.6427 40.4422 39.671C40.4524 39.6809 40.4624 39.6906 40.4721 39.7001C40.5107 39.7378 40.5448 39.7726 40.5722 39.8063L40.646 39.897L40.7242 39.8101C40.7506 39.7807 40.784 39.7499 40.8222 39.7162C40.8314 39.708 40.8411 39.6995 40.8509 39.6909C40.88 39.6654 40.9108 39.6385 40.9388 39.612C40.9766 39.5763 41.0149 39.5365 41.0441 39.4936C41.0731 39.451 41.0988 39.3973 41.0988 39.3353H40.9988M40.9988 34.2652C41.029 35.9548 41.029 37.6448 40.9988 39.3353M40.9988 34.2652V39.3353" fill="#017FDD" stroke="#017FDD" stroke-width="0.2"/>
<path d="M41.105 29.664C41.1014 29.6057 41.071 29.5534 41.0415 29.5145C41.0101 29.473 40.9695 29.4336 40.9272 29.3997C40.8847 29.3658 40.8376 29.3351 40.7917 29.3125C40.7481 29.291 40.6957 29.2717 40.645 29.2711C40.5905 29.2705 40.5389 29.292 40.4978 29.3162C40.4549 29.3414 40.4135 29.3753 40.3768 29.4124C40.3062 29.4838 40.238 29.5825 40.2188 29.6776L40.2184 29.6775L40.2175 29.6858C40.1904 29.9179 40.1824 30.1516 40.1934 30.3847L40.1854 30.5009C40.165 30.799 40.1707 31.0982 40.2023 31.3953L40.202 31.3953L40.2032 31.4022C40.2198 31.4956 40.2843 31.5942 40.3544 31.6665C40.3908 31.7042 40.4326 31.7388 40.477 31.7648C40.5203 31.7903 40.5725 31.8112 40.628 31.8124C40.6809 31.8135 40.7358 31.7969 40.783 31.7763C40.832 31.755 40.8815 31.7257 40.9257 31.6929C40.9696 31.6603 41.0115 31.6219 41.0435 31.5811C41.0724 31.5442 41.1038 31.4918 41.1051 31.4321C41.143 30.8433 41.143 30.2527 41.105 29.664ZM41.105 29.664C41.105 29.6639 41.105 29.6638 41.105 29.6638L41.0052 29.6702L41.105 29.6643C41.105 29.6642 41.105 29.6641 41.105 29.664Z" fill="#017FDD" stroke="#017FDD" stroke-width="0.2"/>
<path d="M23.222 24.9202C23.0922 24.9212 22.9739 24.992 22.8775 25.06C22.8407 25.086 22.8034 25.1143 22.7678 25.1413C22.7555 25.1507 22.7434 25.1599 22.7316 25.1688C22.6842 25.2045 22.64 25.2364 22.5971 25.2621L22.461 25.3434L22.5931 25.4312C22.6373 25.4606 22.6828 25.4971 22.7314 25.5378C22.7433 25.5478 22.7555 25.5581 22.7679 25.5685C22.8046 25.5996 22.8432 25.6321 22.8812 25.6619C22.9792 25.7385 23.1015 25.8199 23.238 25.8204C24.2511 25.8449 25.2655 25.8418 26.2779 25.8388C26.615 25.8378 26.9519 25.8367 27.2885 25.8367L27.2886 25.8367C27.6323 25.8364 27.9764 25.8371 28.3208 25.8378C29.3263 25.8399 30.3337 25.842 31.3399 25.8177M23.222 24.9202C25.922 24.8985 28.622 24.8985 31.322 24.9202L31.3212 25.0202V24.9202C31.4604 24.9202 31.5879 24.9943 31.6938 25.0674C31.7338 25.095 31.7743 25.1251 31.813 25.1539C31.8268 25.1642 31.8404 25.1743 31.8537 25.184C31.9057 25.2223 31.9545 25.2569 32.0022 25.2846L32.1495 25.3703L32.0027 25.4571C31.9562 25.4846 31.9082 25.5186 31.8572 25.5562C31.8444 25.5656 31.8314 25.5753 31.8181 25.5852C31.7799 25.6136 31.74 25.6432 31.7006 25.6704C31.5974 25.7418 31.4733 25.8149 31.3399 25.8177M23.222 24.9202C23.222 24.9202 23.222 24.9202 23.222 24.9202L23.2228 25.0202L23.2221 24.9202C23.2221 24.9202 23.222 24.9202 23.222 24.9202ZM31.3399 25.8177C31.3398 25.8177 31.3398 25.8177 31.3397 25.8177L31.3377 25.7177M31.3399 25.8177C31.34 25.8177 31.34 25.8177 31.3401 25.8177L31.3377 25.7177M31.3377 25.7177C31.4758 25.7149 31.6166 25.6103 31.7573 25.5058C31.7912 25.4805 31.8252 25.4553 31.8591 25.4315L27.2885 25.7367C27.6329 25.7364 27.9774 25.7371 28.322 25.7378C29.3273 25.7399 30.3328 25.742 31.3377 25.7177Z" fill="#017FDD" stroke="#017FDD" stroke-width="0.2"/>
<path d="M24.8471 29.3068L24.7171 29.3888C24.6747 29.4156 24.6311 29.449 24.5844 29.4864C24.572 29.4963 24.5592 29.5067 24.5462 29.5172C24.5119 29.545 24.476 29.5741 24.4407 29.6007C24.3461 29.6719 24.2287 29.7476 24.098 29.7496M24.8471 29.3068L24.0977 29.7496C24.0978 29.7496 24.0979 29.7496 24.098 29.7496M24.8471 29.3068L24.7193 29.2212C24.6782 29.1936 24.6362 29.16 24.5913 29.1227C24.5808 29.1139 24.57 29.1049 24.559 29.0957C24.5247 29.0669 24.4886 29.0367 24.4528 29.0089C24.361 28.9377 24.2477 28.8629 24.1194 28.8563C23.549 28.8262 22.9752 28.8308 22.4049 28.8353C22.1996 28.8369 21.9947 28.8385 21.7907 28.8385C21.5667 28.8385 21.3416 28.8363 21.1159 28.8341C20.5665 28.8288 20.0134 28.8234 19.4638 28.8495L19.4638 28.8495L19.4633 28.8495C19.3281 28.8567 19.2079 28.9342 19.1087 29.0094C19.0714 29.0378 19.0335 29.0687 18.9973 29.0982C18.9845 29.1087 18.9719 29.119 18.9596 29.129C18.9111 29.1682 18.8655 29.2036 18.8207 29.2325L18.6864 29.3193L18.8232 29.4021C18.8659 29.4279 18.9099 29.4603 18.9571 29.4966C18.9693 29.5059 18.9817 29.5156 18.9944 29.5255C19.0295 29.5527 19.0664 29.5814 19.1027 29.6075C19.1989 29.6769 19.3178 29.7496 19.4493 29.7496V29.6496M24.8471 29.3068L19.4493 29.6496M24.098 29.7496C22.5487 29.7813 20.9984 29.7813 19.4473 29.7496L19.4493 29.6496M24.098 29.7496L19.4493 29.6496" fill="#017FDD" stroke="#017FDD" stroke-width="0.2"/>
<path d="M26.6472 29.7451L26.6472 29.745C26.5259 29.732 26.4221 29.6583 26.3385 29.5889C26.3061 29.5619 26.2734 29.5328 26.2424 29.5051C26.2325 29.4962 26.2228 29.4875 26.2133 29.479C26.1728 29.4431 26.135 29.4108 26.0978 29.3841L25.9885 29.3054L26.0954 29.2235C26.1301 29.197 26.1659 29.1638 26.2047 29.1263C26.2146 29.1168 26.2247 29.1068 26.2351 29.0967C26.264 29.0685 26.2945 29.0387 26.3245 29.0115C26.4019 28.9413 26.5054 28.859 26.6268 28.8549M26.6472 29.7451L26.6269 28.8549C26.6269 28.8549 26.6269 28.8549 26.6268 28.8549M26.6472 29.7451L26.6512 29.7453C27.1079 29.7752 27.5658 29.7812 28.0231 29.7633L26.6472 29.7451ZM26.6268 28.8549C27.5635 28.8213 28.5006 28.8213 29.4382 28.8549L29.4346 28.9548L26.6268 28.8549Z" fill="#017FDD" stroke="#017FDD" stroke-width="0.2"/>
<path d="M19.4392 25.8125L19.4391 25.8127L19.4465 25.8156C19.5362 25.8512 19.6335 25.8522 19.7181 25.8477C19.756 25.8456 19.7897 25.8427 19.8216 25.84C19.8689 25.8359 19.9121 25.8322 19.9587 25.8322C20.0191 25.8322 20.0742 25.8366 20.1333 25.8414C20.1732 25.8446 20.215 25.848 20.2615 25.8503C20.3682 25.8554 20.4842 25.8526 20.6006 25.8134C20.7151 25.7748 20.8154 25.7082 20.9054 25.6401C20.9457 25.6097 20.9818 25.5807 21.0167 25.5528C21.0654 25.5137 21.1118 25.4766 21.1636 25.44L21.2862 25.3535L21.1592 25.2736C21.1031 25.2384 21.0527 25.1998 20.9985 25.1583C20.9635 25.1314 20.9269 25.1034 20.8862 25.0743C20.7911 25.0064 20.6806 24.939 20.5552 24.9196L20.5551 24.9195C20.1845 24.8622 19.8071 24.8622 19.4364 24.9195L19.4364 24.9195L19.4358 24.9196C19.3101 24.9398 19.1992 25.0073 19.1034 25.0757C19.0662 25.1023 19.0288 25.1309 18.9931 25.1582C18.9826 25.1663 18.9722 25.1742 18.962 25.182C18.9161 25.2169 18.8725 25.2491 18.8292 25.2766L18.7051 25.3555L18.824 25.4419C19.0179 25.5828 19.2237 25.7068 19.4392 25.8125Z" fill="#017FDD" stroke="#017FDD" stroke-width="0.2"/>
</svg>
