<svg width="61" height="61" viewBox="0 0 61 61" fill="none" xmlns="http://www.w3.org/2000/svg">
<mask id="path-1-outside-1" maskUnits="userSpaceOnUse" x="-0.00390625" y="1.63281" width="58" height="59" fill="black">
<rect fill="white" x="-0.00390625" y="1.63281" width="58" height="59"/>
<path d="M41.133 56.1078L37.3423 57.6341C37.5206 58.1551 37.72 58.6198 37.8421 59.1196C37.9727 59.649 37.7986 59.9644 37.1682 59.9644C31.7391 59.9532 26.3115 59.9644 20.8824 59.956C20.2029 59.956 20.033 59.749 20.2001 59.09C20.3208 58.6198 20.5159 58.1678 20.7097 57.6186C20.4991 57.5327 20.2787 57.4286 20.0484 57.3511C16.9785 56.3268 14.1209 54.7487 11.6163 52.6947C11.1151 52.285 10.6111 52.1892 10.006 52.2005C8.12045 52.2371 6.84005 51.5077 6.34305 49.9772C6.1114 49.2633 6.20265 48.4537 6.07209 47.6975C5.98785 47.1864 5.89659 46.6232 5.62141 46.2064C3.01287 42.2512 1.39411 37.9088 1.07682 33.2031C0.3945 23.0975 4.03916 14.8013 11.9476 8.46511C15.6332 5.48289 20.0639 3.57182 24.7573 2.93993C33.6738 1.7262 41.5837 4.09594 48.2201 10.2984C52.9936 14.7605 55.8239 20.2955 56.7744 26.7571C57.6617 32.7863 56.6088 38.5157 53.7503 43.9028C53.6117 44.2007 53.4512 44.4878 53.2702 44.7618C52.2804 46.0952 51.7637 47.5173 51.8592 49.245C51.9336 50.5995 50.656 51.8499 49.2591 52.0709C48.5571 52.1822 48.3395 52.4708 48.3774 53.1622C48.4363 54.2154 48.4111 55.2742 48.4012 56.3289C48.3858 58.2748 47.0155 59.8405 45.2157 59.9898C43.2221 60.1559 41.6089 58.9042 41.2509 56.9118C41.2158 56.6795 41.1863 56.45 41.133 56.1078ZM28.9298 17.2049C26.0283 17.2049 23.1268 17.2049 20.2253 17.2049C16.693 17.2049 13.1592 17.2049 9.62689 17.2288C7.92671 17.2401 6.85268 18.3003 6.85128 19.921C6.84566 28.5101 6.83818 37.0992 6.82882 45.6882C6.82882 46.3402 7.02116 46.5331 7.66277 46.5331C10.3541 46.5021 13.0441 46.5148 15.7355 46.5148C23.972 46.5148 32.2085 46.5209 40.4451 46.5331C41.0839 46.5331 41.2285 46.305 41.2228 45.7108C41.1948 43.3171 41.199 40.9234 41.2228 38.5297C41.2226 38.1352 41.3129 37.7459 41.4868 37.392C42.3853 35.6939 43.3203 34.0127 44.2624 32.34C44.3887 32.1147 44.6302 31.9542 44.824 31.7627C45.0107 31.9513 45.2452 32.1105 45.3771 32.3329C46.2743 33.9254 47.1672 35.5207 48.0152 37.1386C48.2417 37.5665 48.3694 38.04 48.3886 38.5241C48.4293 40.9417 48.4265 43.3579 48.4125 45.7755C48.4125 46.3148 48.5824 46.557 49.1369 46.5218C49.5574 46.4866 49.98 46.4866 50.4005 46.5218C51.0266 46.5866 51.1881 46.3359 51.1867 45.7234C51.1652 37.0874 51.1581 28.4514 51.1656 19.8154C51.1656 18.5862 50.444 17.6146 49.2815 17.3316C48.8239 17.2343 48.3564 17.1918 47.8888 17.2049C41.5663 17.1992 35.2467 17.1992 28.9298 17.2049ZM51.928 45.0842L52.1526 45.1278C53.6254 42.9623 54.5885 40.5531 55.3045 38.0397C56.8881 32.4765 56.6747 26.9373 54.7232 21.5233C50.6756 10.297 39.948 2.69353 27.4613 3.39755C15.3775 4.08749 5.50068 12.4231 2.57344 23.9663C0.676699 31.4487 1.82092 38.5311 5.95555 45.0772C6.05592 44.8075 6.0985 44.5196 6.08051 44.2323C6.08051 36.2318 6.08379 28.2308 6.09034 20.2294C6.09034 17.8582 7.40444 16.522 9.77712 16.5163C17.6842 16.4966 25.5931 16.49 33.5039 16.4966C38.4177 16.4966 43.3316 16.4966 48.2454 16.529C48.8814 16.529 49.5778 16.6276 50.1365 16.9035C51.4001 17.5287 51.9532 18.6481 51.9504 20.066C51.9392 27.9961 51.9345 35.9281 51.9364 43.862L51.928 45.0842ZM24.0876 47.2962H15.3831C12.7858 47.2962 10.1885 47.2962 7.59397 47.3089C7.35811 47.3089 6.97342 47.4272 6.91165 47.5905C6.29672 49.1732 7.43111 51.0754 9.10743 51.3218C9.4551 51.3676 9.80555 51.3888 10.1562 51.3852C16.7276 51.3955 23.2995 51.403 29.8719 51.4077H39.9803C41.1793 51.4077 41.1793 51.4077 41.1807 50.1729C41.1807 49.5393 41.1807 48.9056 41.1807 48.272C41.1807 47.3005 41.1807 47.2991 40.2274 47.2977L24.0876 47.2962ZM47.6614 46.2219V40.0969C47.6614 38.3551 47.6614 38.3777 45.9022 38.3918C45.3491 38.3918 45.1693 38.5748 45.1778 39.1211C45.2016 40.6925 45.1876 42.2653 45.1778 43.8381C45.1778 44.1338 45.3182 44.6026 44.8029 44.5562C44.6625 44.5421 44.4533 44.0662 44.4449 43.7972C44.407 42.53 44.4309 41.2628 44.4238 39.9955C44.4154 38.396 44.4112 38.4326 42.8458 38.3833C42.1354 38.3608 41.9332 38.572 41.9389 39.2873C41.9726 43.9564 41.9763 48.6259 41.9501 53.2959C41.9501 53.938 42.1761 54.1056 42.763 54.0943C44.1206 54.0675 45.4782 54.0647 46.8344 54.0943C47.4564 54.1084 47.6923 53.9267 47.6768 53.2579C47.6375 50.9149 47.6614 48.5677 47.6614 46.2219ZM12.2818 52.2441C12.4377 52.4095 12.6062 52.5625 12.7858 52.7017C14.5786 53.7521 16.3237 54.9039 18.1896 55.7994C19.5739 56.4669 20.9975 57.3483 22.7075 56.7428C23.0936 56.602 23.3533 56.4922 23.5092 56.0923C23.9304 55.0011 24.4035 53.9267 24.8471 52.8439C24.9158 52.6455 24.9735 52.4434 25.0198 52.2385L12.2818 52.2441ZM33.7875 56.6091C33.8001 56.4894 33.8338 56.4105 33.81 56.3542C33.2905 55.0757 32.7809 53.7916 32.2207 52.53C32.1477 52.3624 31.822 52.2174 31.61 52.2146C29.9042 52.1948 28.1984 52.192 26.4926 52.2385C26.3454 52.2598 26.2047 52.3136 26.0807 52.3959C25.9567 52.4781 25.8523 52.5869 25.7752 52.7144C25.4382 53.3537 25.1953 54.0436 24.9201 54.7152C24.6759 55.3094 24.44 55.9079 24.1592 56.6091H33.7875ZM32.91 52.192C33.5446 53.7155 34.1048 55.0701 34.6804 56.4162C34.7135 56.4757 34.7585 56.5277 34.8126 56.5689C34.8668 56.6101 34.9288 56.6396 34.9949 56.6555C35.8976 56.8203 36.7835 57.1413 37.7172 56.6752C38.4935 56.2982 39.2975 55.9814 40.1221 55.7276C40.9968 55.446 41.3576 54.9335 41.206 54.0154C41.1589 53.6198 41.1589 53.2199 41.206 52.8242C41.2439 52.33 41.0417 52.1765 40.5602 52.1822C38.8108 52.2019 37.0615 52.1892 35.3108 52.1892L32.91 52.192ZM37.018 59.1562C36.8565 58.0875 36.0352 57.4342 34.8952 57.4271C32.3456 57.4145 29.7975 57.4271 27.2493 57.4271C25.799 57.4271 24.3487 57.4088 22.8971 57.444C21.8427 57.4694 21.0228 58.2649 21.0719 59.1605L37.018 59.1562ZM44.8212 54.8814H43.6278C41.8715 54.8814 41.6623 55.163 42.0568 56.9315C42.08 57.0466 42.1095 57.1604 42.1452 57.2723C42.3168 57.8124 42.6492 58.2868 43.0978 58.6317C43.5463 58.9766 44.0895 59.1754 44.6541 59.2013C45.8629 59.2435 46.9931 58.6057 47.3651 57.475C47.5912 56.7837 47.5729 56.005 47.5968 55.2644C47.5968 55.1391 47.2626 54.9025 47.0731 54.8913C46.3192 54.8476 45.5695 54.8744 44.8212 54.8744V54.8814ZM44.8212 32.9342C43.9184 34.5802 43.1364 36.0023 42.294 37.554H47.3356L44.8212 32.9342ZM48.4391 49.3224C48.4391 49.7195 48.4391 50.1166 48.4391 50.5136C48.4391 51.4176 48.6189 51.5345 49.4753 51.2177C50.7922 50.7277 51.6697 48.7648 51.1011 47.5398C51.0566 47.4788 51.0002 47.4276 50.9352 47.3893C50.8703 47.351 50.7982 47.3265 50.7234 47.3174C48.6175 46.9949 48.4377 47.1442 48.4377 49.252C48.4349 49.2689 48.4349 49.2999 48.4363 49.3154L48.4391 49.3224Z"/>
</mask>
<path d="M41.133 56.1078L37.3423 57.6341C37.5206 58.1551 37.72 58.6198 37.8421 59.1196C37.9727 59.649 37.7986 59.9644 37.1682 59.9644C31.7391 59.9532 26.3115 59.9644 20.8824 59.956C20.2029 59.956 20.033 59.749 20.2001 59.09C20.3208 58.6198 20.5159 58.1678 20.7097 57.6186C20.4991 57.5327 20.2787 57.4286 20.0484 57.3511C16.9785 56.3268 14.1209 54.7487 11.6163 52.6947C11.1151 52.285 10.6111 52.1892 10.006 52.2005C8.12045 52.2371 6.84005 51.5077 6.34305 49.9772C6.1114 49.2633 6.20265 48.4537 6.07209 47.6975C5.98785 47.1864 5.89659 46.6232 5.62141 46.2064C3.01287 42.2512 1.39411 37.9088 1.07682 33.2031C0.3945 23.0975 4.03916 14.8013 11.9476 8.46511C15.6332 5.48289 20.0639 3.57182 24.7573 2.93993C33.6738 1.7262 41.5837 4.09594 48.2201 10.2984C52.9936 14.7605 55.8239 20.2955 56.7744 26.7571C57.6617 32.7863 56.6088 38.5157 53.7503 43.9028C53.6117 44.2007 53.4512 44.4878 53.2702 44.7618C52.2804 46.0952 51.7637 47.5173 51.8592 49.245C51.9336 50.5995 50.656 51.8499 49.2591 52.0709C48.5571 52.1822 48.3395 52.4708 48.3774 53.1622C48.4363 54.2154 48.4111 55.2742 48.4012 56.3289C48.3858 58.2748 47.0155 59.8405 45.2157 59.9898C43.2221 60.1559 41.6089 58.9042 41.2509 56.9118C41.2158 56.6795 41.1863 56.45 41.133 56.1078ZM28.9298 17.2049C26.0283 17.2049 23.1268 17.2049 20.2253 17.2049C16.693 17.2049 13.1592 17.2049 9.62689 17.2288C7.92671 17.2401 6.85268 18.3003 6.85128 19.921C6.84566 28.5101 6.83818 37.0992 6.82882 45.6882C6.82882 46.3402 7.02116 46.5331 7.66277 46.5331C10.3541 46.5021 13.0441 46.5148 15.7355 46.5148C23.972 46.5148 32.2085 46.5209 40.4451 46.5331C41.0839 46.5331 41.2285 46.305 41.2228 45.7108C41.1948 43.3171 41.199 40.9234 41.2228 38.5297C41.2226 38.1352 41.3129 37.7459 41.4868 37.392C42.3853 35.6939 43.3203 34.0127 44.2624 32.34C44.3887 32.1147 44.6302 31.9542 44.824 31.7627C45.0107 31.9513 45.2452 32.1105 45.3771 32.3329C46.2743 33.9254 47.1672 35.5207 48.0152 37.1386C48.2417 37.5665 48.3694 38.04 48.3886 38.5241C48.4293 40.9417 48.4265 43.3579 48.4125 45.7755C48.4125 46.3148 48.5824 46.557 49.1369 46.5218C49.5574 46.4866 49.98 46.4866 50.4005 46.5218C51.0266 46.5866 51.1881 46.3359 51.1867 45.7234C51.1652 37.0874 51.1581 28.4514 51.1656 19.8154C51.1656 18.5862 50.444 17.6146 49.2815 17.3316C48.8239 17.2343 48.3564 17.1918 47.8888 17.2049C41.5663 17.1992 35.2467 17.1992 28.9298 17.2049ZM51.928 45.0842L52.1526 45.1278C53.6254 42.9623 54.5885 40.5531 55.3045 38.0397C56.8881 32.4765 56.6747 26.9373 54.7232 21.5233C50.6756 10.297 39.948 2.69353 27.4613 3.39755C15.3775 4.08749 5.50068 12.4231 2.57344 23.9663C0.676699 31.4487 1.82092 38.5311 5.95555 45.0772C6.05592 44.8075 6.0985 44.5196 6.08051 44.2323C6.08051 36.2318 6.08379 28.2308 6.09034 20.2294C6.09034 17.8582 7.40444 16.522 9.77712 16.5163C17.6842 16.4966 25.5931 16.49 33.5039 16.4966C38.4177 16.4966 43.3316 16.4966 48.2454 16.529C48.8814 16.529 49.5778 16.6276 50.1365 16.9035C51.4001 17.5287 51.9532 18.6481 51.9504 20.066C51.9392 27.9961 51.9345 35.9281 51.9364 43.862L51.928 45.0842ZM24.0876 47.2962H15.3831C12.7858 47.2962 10.1885 47.2962 7.59397 47.3089C7.35811 47.3089 6.97342 47.4272 6.91165 47.5905C6.29672 49.1732 7.43111 51.0754 9.10743 51.3218C9.4551 51.3676 9.80555 51.3888 10.1562 51.3852C16.7276 51.3955 23.2995 51.403 29.8719 51.4077H39.9803C41.1793 51.4077 41.1793 51.4077 41.1807 50.1729C41.1807 49.5393 41.1807 48.9056 41.1807 48.272C41.1807 47.3005 41.1807 47.2991 40.2274 47.2977L24.0876 47.2962ZM47.6614 46.2219V40.0969C47.6614 38.3551 47.6614 38.3777 45.9022 38.3918C45.3491 38.3918 45.1693 38.5748 45.1778 39.1211C45.2016 40.6925 45.1876 42.2653 45.1778 43.8381C45.1778 44.1338 45.3182 44.6026 44.8029 44.5562C44.6625 44.5421 44.4533 44.0662 44.4449 43.7972C44.407 42.53 44.4309 41.2628 44.4238 39.9955C44.4154 38.396 44.4112 38.4326 42.8458 38.3833C42.1354 38.3608 41.9332 38.572 41.9389 39.2873C41.9726 43.9564 41.9763 48.6259 41.9501 53.2959C41.9501 53.938 42.1761 54.1056 42.763 54.0943C44.1206 54.0675 45.4782 54.0647 46.8344 54.0943C47.4564 54.1084 47.6923 53.9267 47.6768 53.2579C47.6375 50.9149 47.6614 48.5677 47.6614 46.2219ZM12.2818 52.2441C12.4377 52.4095 12.6062 52.5625 12.7858 52.7017C14.5786 53.7521 16.3237 54.9039 18.1896 55.7994C19.5739 56.4669 20.9975 57.3483 22.7075 56.7428C23.0936 56.602 23.3533 56.4922 23.5092 56.0923C23.9304 55.0011 24.4035 53.9267 24.8471 52.8439C24.9158 52.6455 24.9735 52.4434 25.0198 52.2385L12.2818 52.2441ZM33.7875 56.6091C33.8001 56.4894 33.8338 56.4105 33.81 56.3542C33.2905 55.0757 32.7809 53.7916 32.2207 52.53C32.1477 52.3624 31.822 52.2174 31.61 52.2146C29.9042 52.1948 28.1984 52.192 26.4926 52.2385C26.3454 52.2598 26.2047 52.3136 26.0807 52.3959C25.9567 52.4781 25.8523 52.5869 25.7752 52.7144C25.4382 53.3537 25.1953 54.0436 24.9201 54.7152C24.6759 55.3094 24.44 55.9079 24.1592 56.6091H33.7875ZM32.91 52.192C33.5446 53.7155 34.1048 55.0701 34.6804 56.4162C34.7135 56.4757 34.7585 56.5277 34.8126 56.5689C34.8668 56.6101 34.9288 56.6396 34.9949 56.6555C35.8976 56.8203 36.7835 57.1413 37.7172 56.6752C38.4935 56.2982 39.2975 55.9814 40.1221 55.7276C40.9968 55.446 41.3576 54.9335 41.206 54.0154C41.1589 53.6198 41.1589 53.2199 41.206 52.8242C41.2439 52.33 41.0417 52.1765 40.5602 52.1822C38.8108 52.2019 37.0615 52.1892 35.3108 52.1892L32.91 52.192ZM37.018 59.1562C36.8565 58.0875 36.0352 57.4342 34.8952 57.4271C32.3456 57.4145 29.7975 57.4271 27.2493 57.4271C25.799 57.4271 24.3487 57.4088 22.8971 57.444C21.8427 57.4694 21.0228 58.2649 21.0719 59.1605L37.018 59.1562ZM44.8212 54.8814H43.6278C41.8715 54.8814 41.6623 55.163 42.0568 56.9315C42.08 57.0466 42.1095 57.1604 42.1452 57.2723C42.3168 57.8124 42.6492 58.2868 43.0978 58.6317C43.5463 58.9766 44.0895 59.1754 44.6541 59.2013C45.8629 59.2435 46.9931 58.6057 47.3651 57.475C47.5912 56.7837 47.5729 56.005 47.5968 55.2644C47.5968 55.1391 47.2626 54.9025 47.0731 54.8913C46.3192 54.8476 45.5695 54.8744 44.8212 54.8744V54.8814ZM44.8212 32.9342C43.9184 34.5802 43.1364 36.0023 42.294 37.554H47.3356L44.8212 32.9342ZM48.4391 49.3224C48.4391 49.7195 48.4391 50.1166 48.4391 50.5136C48.4391 51.4176 48.6189 51.5345 49.4753 51.2177C50.7922 50.7277 51.6697 48.7648 51.1011 47.5398C51.0566 47.4788 51.0002 47.4276 50.9352 47.3893C50.8703 47.351 50.7982 47.3265 50.7234 47.3174C48.6175 46.9949 48.4377 47.1442 48.4377 49.252C48.4349 49.2689 48.4349 49.2999 48.4363 49.3154L48.4391 49.3224Z" fill="#E63E98"/>
<path d="M41.133 56.1078L37.3423 57.6341C37.5206 58.1551 37.72 58.6198 37.8421 59.1196C37.9727 59.649 37.7986 59.9644 37.1682 59.9644C31.7391 59.9532 26.3115 59.9644 20.8824 59.956C20.2029 59.956 20.033 59.749 20.2001 59.09C20.3208 58.6198 20.5159 58.1678 20.7097 57.6186C20.4991 57.5327 20.2787 57.4286 20.0484 57.3511C16.9785 56.3268 14.1209 54.7487 11.6163 52.6947C11.1151 52.285 10.6111 52.1892 10.006 52.2005C8.12045 52.2371 6.84005 51.5077 6.34305 49.9772C6.1114 49.2633 6.20265 48.4537 6.07209 47.6975C5.98785 47.1864 5.89659 46.6232 5.62141 46.2064C3.01287 42.2512 1.39411 37.9088 1.07682 33.2031C0.3945 23.0975 4.03916 14.8013 11.9476 8.46511C15.6332 5.48289 20.0639 3.57182 24.7573 2.93993C33.6738 1.7262 41.5837 4.09594 48.2201 10.2984C52.9936 14.7605 55.8239 20.2955 56.7744 26.7571C57.6617 32.7863 56.6088 38.5157 53.7503 43.9028C53.6117 44.2007 53.4512 44.4878 53.2702 44.7618C52.2804 46.0952 51.7637 47.5173 51.8592 49.245C51.9336 50.5995 50.656 51.8499 49.2591 52.0709C48.5571 52.1822 48.3395 52.4708 48.3774 53.1622C48.4363 54.2154 48.4111 55.2742 48.4012 56.3289C48.3858 58.2748 47.0155 59.8405 45.2157 59.9898C43.2221 60.1559 41.6089 58.9042 41.2509 56.9118C41.2158 56.6795 41.1863 56.45 41.133 56.1078ZM28.9298 17.2049C26.0283 17.2049 23.1268 17.2049 20.2253 17.2049C16.693 17.2049 13.1592 17.2049 9.62689 17.2288C7.92671 17.2401 6.85268 18.3003 6.85128 19.921C6.84566 28.5101 6.83818 37.0992 6.82882 45.6882C6.82882 46.3402 7.02116 46.5331 7.66277 46.5331C10.3541 46.5021 13.0441 46.5148 15.7355 46.5148C23.972 46.5148 32.2085 46.5209 40.4451 46.5331C41.0839 46.5331 41.2285 46.305 41.2228 45.7108C41.1948 43.3171 41.199 40.9234 41.2228 38.5297C41.2226 38.1352 41.3129 37.7459 41.4868 37.392C42.3853 35.6939 43.3203 34.0127 44.2624 32.34C44.3887 32.1147 44.6302 31.9542 44.824 31.7627C45.0107 31.9513 45.2452 32.1105 45.3771 32.3329C46.2743 33.9254 47.1672 35.5207 48.0152 37.1386C48.2417 37.5665 48.3694 38.04 48.3886 38.5241C48.4293 40.9417 48.4265 43.3579 48.4125 45.7755C48.4125 46.3148 48.5824 46.557 49.1369 46.5218C49.5574 46.4866 49.98 46.4866 50.4005 46.5218C51.0266 46.5866 51.1881 46.3359 51.1867 45.7234C51.1652 37.0874 51.1581 28.4514 51.1656 19.8154C51.1656 18.5862 50.444 17.6146 49.2815 17.3316C48.8239 17.2343 48.3564 17.1918 47.8888 17.2049C41.5663 17.1992 35.2467 17.1992 28.9298 17.2049ZM51.928 45.0842L52.1526 45.1278C53.6254 42.9623 54.5885 40.5531 55.3045 38.0397C56.8881 32.4765 56.6747 26.9373 54.7232 21.5233C50.6756 10.297 39.948 2.69353 27.4613 3.39755C15.3775 4.08749 5.50068 12.4231 2.57344 23.9663C0.676699 31.4487 1.82092 38.5311 5.95555 45.0772C6.05592 44.8075 6.0985 44.5196 6.08051 44.2323C6.08051 36.2318 6.08379 28.2308 6.09034 20.2294C6.09034 17.8582 7.40444 16.522 9.77712 16.5163C17.6842 16.4966 25.5931 16.49 33.5039 16.4966C38.4177 16.4966 43.3316 16.4966 48.2454 16.529C48.8814 16.529 49.5778 16.6276 50.1365 16.9035C51.4001 17.5287 51.9532 18.6481 51.9504 20.066C51.9392 27.9961 51.9345 35.9281 51.9364 43.862L51.928 45.0842ZM24.0876 47.2962H15.3831C12.7858 47.2962 10.1885 47.2962 7.59397 47.3089C7.35811 47.3089 6.97342 47.4272 6.91165 47.5905C6.29672 49.1732 7.43111 51.0754 9.10743 51.3218C9.4551 51.3676 9.80555 51.3888 10.1562 51.3852C16.7276 51.3955 23.2995 51.403 29.8719 51.4077H39.9803C41.1793 51.4077 41.1793 51.4077 41.1807 50.1729C41.1807 49.5393 41.1807 48.9056 41.1807 48.272C41.1807 47.3005 41.1807 47.2991 40.2274 47.2977L24.0876 47.2962ZM47.6614 46.2219V40.0969C47.6614 38.3551 47.6614 38.3777 45.9022 38.3918C45.3491 38.3918 45.1693 38.5748 45.1778 39.1211C45.2016 40.6925 45.1876 42.2653 45.1778 43.8381C45.1778 44.1338 45.3182 44.6026 44.8029 44.5562C44.6625 44.5421 44.4533 44.0662 44.4449 43.7972C44.407 42.53 44.4309 41.2628 44.4238 39.9955C44.4154 38.396 44.4112 38.4326 42.8458 38.3833C42.1354 38.3608 41.9332 38.572 41.9389 39.2873C41.9726 43.9564 41.9763 48.6259 41.9501 53.2959C41.9501 53.938 42.1761 54.1056 42.763 54.0943C44.1206 54.0675 45.4782 54.0647 46.8344 54.0943C47.4564 54.1084 47.6923 53.9267 47.6768 53.2579C47.6375 50.9149 47.6614 48.5677 47.6614 46.2219ZM12.2818 52.2441C12.4377 52.4095 12.6062 52.5625 12.7858 52.7017C14.5786 53.7521 16.3237 54.9039 18.1896 55.7994C19.5739 56.4669 20.9975 57.3483 22.7075 56.7428C23.0936 56.602 23.3533 56.4922 23.5092 56.0923C23.9304 55.0011 24.4035 53.9267 24.8471 52.8439C24.9158 52.6455 24.9735 52.4434 25.0198 52.2385L12.2818 52.2441ZM33.7875 56.6091C33.8001 56.4894 33.8338 56.4105 33.81 56.3542C33.2905 55.0757 32.7809 53.7916 32.2207 52.53C32.1477 52.3624 31.822 52.2174 31.61 52.2146C29.9042 52.1948 28.1984 52.192 26.4926 52.2385C26.3454 52.2598 26.2047 52.3136 26.0807 52.3959C25.9567 52.4781 25.8523 52.5869 25.7752 52.7144C25.4382 53.3537 25.1953 54.0436 24.9201 54.7152C24.6759 55.3094 24.44 55.9079 24.1592 56.6091H33.7875ZM32.91 52.192C33.5446 53.7155 34.1048 55.0701 34.6804 56.4162C34.7135 56.4757 34.7585 56.5277 34.8126 56.5689C34.8668 56.6101 34.9288 56.6396 34.9949 56.6555C35.8976 56.8203 36.7835 57.1413 37.7172 56.6752C38.4935 56.2982 39.2975 55.9814 40.1221 55.7276C40.9968 55.446 41.3576 54.9335 41.206 54.0154C41.1589 53.6198 41.1589 53.2199 41.206 52.8242C41.2439 52.33 41.0417 52.1765 40.5602 52.1822C38.8108 52.2019 37.0615 52.1892 35.3108 52.1892L32.91 52.192ZM37.018 59.1562C36.8565 58.0875 36.0352 57.4342 34.8952 57.4271C32.3456 57.4145 29.7975 57.4271 27.2493 57.4271C25.799 57.4271 24.3487 57.4088 22.8971 57.444C21.8427 57.4694 21.0228 58.2649 21.0719 59.1605L37.018 59.1562ZM44.8212 54.8814H43.6278C41.8715 54.8814 41.6623 55.163 42.0568 56.9315C42.08 57.0466 42.1095 57.1604 42.1452 57.2723C42.3168 57.8124 42.6492 58.2868 43.0978 58.6317C43.5463 58.9766 44.0895 59.1754 44.6541 59.2013C45.8629 59.2435 46.9931 58.6057 47.3651 57.475C47.5912 56.7837 47.5729 56.005 47.5968 55.2644C47.5968 55.1391 47.2626 54.9025 47.0731 54.8913C46.3192 54.8476 45.5695 54.8744 44.8212 54.8744V54.8814ZM44.8212 32.9342C43.9184 34.5802 43.1364 36.0023 42.294 37.554H47.3356L44.8212 32.9342ZM48.4391 49.3224C48.4391 49.7195 48.4391 50.1166 48.4391 50.5136C48.4391 51.4176 48.6189 51.5345 49.4753 51.2177C50.7922 50.7277 51.6697 48.7648 51.1011 47.5398C51.0566 47.4788 51.0002 47.4276 50.9352 47.3893C50.8703 47.351 50.7982 47.3265 50.7234 47.3174C48.6175 46.9949 48.4377 47.1442 48.4377 49.252C48.4349 49.2689 48.4349 49.2999 48.4363 49.3154L48.4391 49.3224Z" stroke="#E63E98" stroke-width="0.4" mask="url(#path-1-outside-1)"/>
<path d="M60.0724 23.7821L60.1047 23.7439L59.843 23.0684L59.938 23.0371C59.9379 23.037 59.9379 23.0369 59.9379 23.0368C59.7891 22.5856 59.6478 22.1294 59.5061 21.6721C59.1826 20.6275 58.8575 19.5775 58.4373 18.5706L58.345 18.6091L58.4373 18.5706C54.9224 10.1504 48.8637 4.31032 40.4298 0.938204L40.4298 0.938193L40.4283 0.937643C40.2979 0.8878 40.151 0.901935 40.0208 0.924417C39.9719 0.932864 39.9216 0.943265 39.8732 0.953261C39.8562 0.956769 39.8395 0.960227 39.8232 0.963533C39.7587 0.976581 39.6982 0.987712 39.6412 0.993524L39.4794 1.01003L39.5672 1.14697C39.7025 1.35814 39.852 1.55984 40.0147 1.75067L40.0146 1.75076L40.0184 1.75474C40.0797 1.81916 40.1615 1.85471 40.233 1.87966C40.2654 1.89098 40.2989 1.90111 40.3299 1.91049C40.3337 1.91165 40.3375 1.91281 40.3413 1.91395C40.3764 1.9246 40.4081 1.93447 40.4373 1.94548C42.6874 2.79929 44.8152 3.94743 46.7655 5.36012L46.7659 5.36039C52.9714 9.8113 57.1055 15.711 58.963 23.1677C59.0034 23.4069 59.0809 23.6384 59.1927 23.8537L59.196 23.8602L59.2003 23.8661C59.2591 23.9477 59.3362 24.0145 59.4253 24.061C59.5144 24.1076 59.6131 24.1327 59.7136 24.1343L59.7233 24.1345L59.7329 24.1328C59.7884 24.1228 59.8331 24.092 59.8666 24.0613C59.9006 24.03 59.9302 23.9923 59.9552 23.9568C59.9764 23.9268 59.9965 23.8952 60.014 23.8677C60.0172 23.8626 60.0204 23.8577 60.0234 23.8529C60.0444 23.8201 60.0599 23.7969 60.0724 23.7821Z" fill="#E63E98" stroke="#E63E98" stroke-width="0.2"/>
<path d="M2.41518 48.0591L2.33124 48.1135C4.0823 50.8176 6.23225 53.2398 8.70774 55.2974L8.70844 55.298L8.71037 55.2995C8.78084 55.357 8.86512 55.4258 8.95077 55.4823C9.03498 55.5378 9.13316 55.5902 9.23055 55.6014C9.33688 55.6137 9.43908 55.568 9.51938 55.5249C9.55222 55.5073 9.5856 55.4877 9.61692 55.4693C9.62536 55.4644 9.63364 55.4595 9.64172 55.4548C9.68117 55.4318 9.7172 55.4116 9.75147 55.3958L9.7824 55.3815L9.7982 55.3514L9.97231 55.0191L10.0188 54.9304L9.93007 54.8841C9.85541 54.845 9.77395 54.8084 9.69579 54.7732C9.65259 54.7538 9.61039 54.7348 9.57091 54.7161C9.45495 54.6613 9.35088 54.6042 9.26497 54.5306L9.2648 54.5305C6.89208 52.5079 4.79313 50.2441 3.11464 47.5972L3.11447 47.597C3.03393 47.4708 2.89149 47.3974 2.76049 47.3424C2.71125 47.3218 2.65937 47.3021 2.60948 47.2832C2.59159 47.2765 2.57397 47.2698 2.55681 47.2632C2.4901 47.2376 2.4284 47.2125 2.37378 47.1845L2.21222 47.1016L2.22853 47.2824C2.23402 47.3433 2.23453 47.4091 2.23383 47.4794C2.23366 47.4968 2.23341 47.5147 2.23315 47.5328C2.23241 47.5858 2.23163 47.6409 2.23271 47.6942C2.23555 47.8347 2.25087 47.9904 2.33145 48.1138L2.41518 48.0591ZM2.41518 48.0591C2.32765 47.9251 2.33039 47.7302 2.33313 47.5356C2.33383 47.4858 2.33453 47.436 2.33371 47.3873L9.70962 55.305C9.66216 55.3268 9.61377 55.3552 9.56531 55.3837C9.45466 55.4486 9.3436 55.5138 9.24205 55.5021C9.09607 55.4852 8.91501 55.3374 8.77181 55.2206L8.77166 55.2205C6.30395 53.1694 4.16075 50.7548 2.41518 48.0591Z" fill="#E63E98" stroke="#E63E98" stroke-width="0.2"/>
<path d="M15.2059 58.8642L15.0904 58.9001C15.0151 58.9235 14.9425 58.9555 14.8677 58.9884C14.8279 59.006 14.7875 59.0238 14.7457 59.0407C14.6896 59.0635 14.6308 59.0844 14.5751 59.0942C14.5204 59.1038 14.4546 59.1052 14.3949 59.0726L14.3949 59.0725C13.4699 58.5657 12.5652 58.0183 11.6756 57.4602L11.6681 57.4555L11.6616 57.4496C11.5924 57.3868 11.5402 57.3074 11.5102 57.2189C11.4802 57.1303 11.4732 57.0356 11.4899 56.9436L11.4917 56.9341L11.4952 56.9251C11.5147 56.875 11.5561 56.8357 11.5919 56.8082C11.6306 56.7785 11.6767 56.7522 11.7229 56.7316C11.769 56.7111 11.8189 56.6945 11.8659 56.6865C11.9073 56.6794 11.968 56.6751 12.0195 56.7033M15.2059 58.8642L11.9717 56.7911M15.2059 58.8642L15.1489 58.7575C15.1052 58.6757 15.0755 58.6113 15.0501 58.5563C15.0394 58.5332 15.0295 58.5117 15.0197 58.4913C14.9902 58.4303 14.9546 58.3626 14.8868 58.3248M15.2059 58.8642L14.8375 58.4118M12.0195 56.7033C12.0197 56.7034 12.0199 56.7035 12.0201 56.7036L11.9717 56.7911M12.0195 56.7033C12.0194 56.7032 12.0192 56.7032 12.0191 56.7031L11.9717 56.7911M12.0195 56.7033C12.9866 57.2249 13.938 57.773 14.8868 58.3248M11.9717 56.7911C12.9377 57.3121 13.8883 57.8598 14.8375 58.4118M14.8868 58.3248C14.8864 58.3246 14.886 58.3243 14.8856 58.3241L14.8375 58.4118M14.8868 58.3248C14.8871 58.325 14.8874 58.3252 14.8877 58.3253L14.8375 58.4118M15.0607 58.8046L14.9725 58.8517C14.9701 58.8473 14.9678 58.8428 14.9655 58.8384C14.9972 58.826 15.0291 58.8144 15.0607 58.8046ZM15.0607 58.8046L15.031 58.7091C15.0255 58.7108 15.02 58.7126 15.0144 58.7144C15.0282 58.7423 15.0435 58.7723 15.0607 58.8046Z" fill="#E63E98" stroke="#E63E98" stroke-width="0.2"/>
<path d="M48.3976 28.4355L48.5612 28.353L47.6674 27.9633L47.6694 27.8633C47.6691 27.8633 47.6688 27.8633 47.6685 27.8633C46.3857 27.8375 45.1026 27.8404 43.8208 27.8432C43.4181 27.8441 43.0156 27.8449 42.6132 27.8449C42.2297 27.8449 41.8461 27.8443 41.4624 27.8437C40.1406 27.8415 38.8186 27.8392 37.501 27.8633L37.5009 27.8633C37.3576 27.866 37.229 27.9398 37.1207 28.0143C37.0799 28.0424 37.0386 28.0731 36.9992 28.1025C36.9855 28.1126 36.9721 28.1226 36.959 28.1322C36.9064 28.1709 36.8568 28.206 36.808 28.2345L36.6564 28.3229L36.8098 28.4083C36.8592 28.4358 36.9099 28.4701 36.9637 28.5082C36.9778 28.5182 36.9924 28.5286 37.0071 28.5392C37.0468 28.5675 37.0882 28.5971 37.129 28.6242C37.2388 28.6972 37.3695 28.7701 37.5112 28.7701V28.6701L37.5106 28.7701C40.8992 28.7907 44.2878 28.7907 47.6764 28.7701C47.8179 28.7692 47.9504 28.7042 48.065 28.6365C48.1085 28.6108 48.1524 28.5828 48.1947 28.5559C48.2089 28.5469 48.2229 28.538 48.2366 28.5293C48.2925 28.494 48.3456 28.4617 48.3976 28.4355Z" fill="#E63E98" stroke="#E63E98" stroke-width="0.2"/>
<path d="M48.5599 20.9257L48.4056 21.0206C48.3532 21.0528 48.2997 21.0927 48.243 21.1366C48.2286 21.1478 48.2138 21.1594 48.1988 21.1711C48.1566 21.2042 48.1127 21.2385 48.0694 21.27C47.9548 21.3532 47.8179 21.4372 47.6688 21.4381C44.415 21.4644 41.1621 21.4644 37.9102 21.4381C37.91 21.4381 37.9099 21.4381 37.9098 21.4381L37.9106 21.3381L48.5599 20.9257ZM48.5599 20.9257L48.3973 20.8457M48.5599 20.9257L48.3973 20.8457M48.3973 20.8457C48.3462 20.8206 48.294 20.7894 48.2389 20.755C48.2246 20.7461 48.21 20.7369 48.1952 20.7275C48.1542 20.7017 48.1115 20.6748 48.0693 20.6502C47.9561 20.5841 47.8249 20.5203 47.6844 20.52L48.3973 20.8457Z" fill="#E63E98" stroke="#E63E98" stroke-width="0.2"/>
<path d="M31.8858 32.3497L31.8851 32.4497C34.8994 32.4713 37.9137 32.4713 40.928 32.4497L40.9284 32.4497C41.0773 32.448 41.2173 32.3792 41.3395 32.3072C41.3892 32.2779 41.4352 32.2488 41.4795 32.2207C41.5527 32.1742 41.6214 32.1307 41.6947 32.0943L41.8594 32.0127L41.7014 31.9188C41.6495 31.8879 41.5964 31.8495 41.5401 31.8071C41.5256 31.7962 41.5108 31.785 41.4958 31.7736C41.4539 31.7417 41.4103 31.7085 41.3672 31.678C41.2528 31.5973 41.1165 31.5166 40.9678 31.5161C39.8323 31.4895 38.7004 31.4927 37.571 31.4958C37.205 31.4968 36.8394 31.4978 36.4739 31.4978H36.3187L36.3257 31.5132C35.9983 31.513 35.6706 31.5121 35.3428 31.5112C34.2033 31.508 33.0625 31.5048 31.9229 31.5302L31.9227 31.5302C31.775 31.5338 31.639 31.6108 31.5228 31.6889C31.4797 31.718 31.436 31.7496 31.394 31.78C31.3785 31.7912 31.3633 31.8022 31.3484 31.8128C31.2916 31.8536 31.2377 31.8906 31.1849 31.9206L31.0295 32.009L31.1862 32.0952C31.2358 32.1224 31.2865 32.1563 31.3403 32.1936C31.3541 32.2032 31.3681 32.213 31.3824 32.223C31.4225 32.2512 31.4643 32.2805 31.5055 32.3073C31.6154 32.3788 31.7454 32.4497 31.8858 32.4497V32.3497ZM31.8858 32.3497C31.7372 32.3497 31.5893 32.246 31.4411 32.142C31.4044 32.1163 31.3676 32.0905 31.3309 32.0664L36.5837 31.5978C36.9132 31.5976 37.2427 31.5967 37.5722 31.5958C38.7017 31.5927 39.8321 31.5895 40.9666 31.6161C41.1237 31.6161 41.2789 31.7342 41.434 31.8522C41.4742 31.8828 41.5144 31.9134 41.5547 31.9419C41.5719 31.9325 41.589 31.9235 41.6059 31.9151L41.6503 32.0047L41.5992 32.0907C41.5826 32.0808 41.5661 32.0704 41.5497 32.0597C41.5061 32.0854 41.4626 32.113 41.419 32.1405C41.2551 32.2442 41.0915 32.3478 40.9273 32.3497C37.9134 32.3713 34.8996 32.3713 31.8858 32.3497Z" fill="#E63E98" stroke="#E63E98" stroke-width="0.2"/>
<path d="M42.9912 24.3001L42.9912 24.3001C43.0244 24.3219 43.0426 24.3542 43.0527 24.3774C43.0636 24.4025 43.0709 24.4302 43.0758 24.4571C43.0856 24.5111 43.0884 24.5743 43.0857 24.6352C43.083 24.6961 43.0746 24.7597 43.0595 24.8143C43.052 24.8415 43.0421 24.8691 43.0288 24.894C43.0161 24.9175 42.9963 24.9463 42.965 24.9663M42.9912 24.3001L42.911 24.8821M42.9912 24.3001L42.9903 24.2995C42.8939 24.2376 42.7775 24.2101 42.6659 24.1969C42.5547 24.1837 42.4382 24.1837 42.3367 24.1837L42.334 24.1837H42.324H42.314H42.304H42.294H42.284H42.274H42.264H42.254H42.244H42.234H42.224H42.214H42.204H42.194H42.184H42.174H42.164H42.154H42.144H42.134H42.124H42.114H42.1039H42.0939H42.0839H42.0739H42.0639H42.0539H42.0439H42.0339H42.0239H42.0139H42.0039H41.9939H41.9839H41.9739H41.9639H41.9539H41.9439H41.9339H41.9239H41.9139H41.9039H41.8939H41.8839H41.8739H41.8639H41.8539H41.8439H41.8339H41.8239H41.8139H41.8039H41.7939H41.7839H41.7739H41.7639H41.7539H41.7439H41.7339H41.7239H41.7139H41.7039H41.6939H41.6839H41.6739H41.6639H41.6539H41.6439H41.6339H41.6239H41.6139H41.6039H41.5939H41.5839H41.5739H41.5639H41.5539H41.5439H41.5339H41.5239H41.5139H41.5039H41.4939H41.4838H41.4738H41.4638H41.4538H41.4438H41.4338H41.4238H41.4138H41.4038H41.3938H41.3838H41.3738H41.3638H41.3538H41.3438H41.3338H41.3238H41.3138H41.3038H41.2938H41.2838H41.2738H41.2638H41.2538H41.2438H41.2338H41.2238H41.2138H41.2038H41.1938H41.1838H41.1738H41.1638H41.1538H41.1438H41.1338H41.1238H41.1138H41.1038H41.0938H41.0838H41.0738H41.0638H41.0538H41.0438H41.0338H41.0238H41.0138H41.0038H40.9938H40.9838H40.9738H40.9638H40.9538H40.9438H40.9338H40.9238H40.9138H40.9038H40.8938H40.8838H40.8738H40.8638H40.8538H40.8438H40.8338H40.8238H40.8138H40.8038H40.7938H40.7838H40.7738H40.7638H40.7538H40.7438H40.7338H40.7238H40.7138H40.7038H40.6938H40.6838H40.6738H40.6638H40.6538H40.6438H40.6338H40.6238H40.6138H40.6038H40.5938H40.5838H40.5738H40.5638H40.5538H40.5438H40.5338H40.5238H40.5138H40.5038H40.4938H40.4838H40.4739H40.4639H40.4539H40.4439H40.4339H40.4239H40.4139H40.4039H40.3939H40.3839H40.3739H40.3639H40.3539H40.3439H40.3339H40.3239H40.3139H40.3039H40.2939H40.2839H40.2739H40.2639H40.2539H40.2439H40.2339H40.2239H40.2139H40.2039H40.1939H40.1839H40.1739H40.1639H40.1539H40.1439H40.1339H40.1239H40.1139H40.1039H40.0939H40.0839H40.0739H40.0639H40.0539H40.0439H40.0339H40.0239H40.0139H40.0039H39.9939H39.9839H39.9739H39.9639H39.9539H39.9439H39.9339H39.9239H39.9139H39.9039H39.8939H39.8839H39.8739H39.8639H39.8539H39.8439H39.8339H39.8239H39.8139H39.8039H39.7939H39.7839H39.7739H39.7639H39.7539H39.7439H39.7339H39.7239H39.7139H39.7039H39.6939H39.6839H39.6739H39.6639H39.6539H39.6439H39.6339H39.6239H39.6139H39.6039H39.5939H39.5839H39.5739H39.5639H39.5539H39.5439H39.5339H39.5239H39.5139H39.5039H39.4939H39.4839H39.4739H39.4639H39.4539H39.4439H39.4339H39.4239H39.4139H39.4039H39.3939H39.3839H39.3739H39.3639H39.354H39.344H39.334H39.324H39.314H39.304H39.294H39.284H39.274H39.264H39.254H39.244H39.234H39.224H39.214H39.204H39.194H39.184H39.174H39.164H39.154H39.144H39.134H39.124H39.114H39.104H39.094H39.084H39.074H39.064H39.054H39.044H39.034H39.024H39.014H39.004H38.994H38.984H38.974H38.964H38.954H38.944H38.934H38.924H38.914H38.904H38.894H38.884H38.874H38.864H38.854H38.844H38.834H38.824H38.814H38.804H38.794H38.784H38.774H38.764H38.754H38.744H38.734H38.724H38.714H38.704H38.694H38.684H38.674H38.664H38.654H38.644H38.634H38.624H38.614H38.604H38.594H38.584H38.574H38.564H38.554H38.544H38.534H38.524H38.514H38.504H38.494H38.484H38.474H38.464H38.454H38.444H38.434H38.424H38.414H38.404H38.394H38.384H38.374H38.364H38.354H38.344H38.334H38.324H38.314H38.304H38.294H38.284H38.274H38.264H38.254H38.244H38.234H38.224H38.214H38.204H38.194H38.184H38.174H38.164H38.154H38.144H38.134H38.124H38.114H38.104H38.094H38.084H38.074H38.064H38.054H38.044H38.034H38.024H38.014H38.004H37.994H37.984H37.974H37.964H37.954H37.944H37.934H37.924H37.914H37.904H37.894H37.884H37.874H37.864H37.8539H37.8439H37.8339H37.8239H37.8139H37.8039H37.7939H37.7839H37.7739H37.7639H37.7539H37.7439H37.7339H37.7239H37.7139H37.7039H37.6939H37.6839H37.6739H37.6639H37.6539H37.6439H37.6339H37.6239H37.6139H37.6039H37.5939H37.5839H37.5739H37.5639H37.5539H37.5439H37.5339H37.5239H37.5139H37.5039H37.4939H37.4839H37.4739H37.4639H37.4539H37.4439H37.4339H37.4239H37.4139H37.4039H37.3939H37.3839H37.3739H37.3639H37.3538H37.3438H37.3338H37.3238H37.3138H37.3038H37.2938H37.2838H37.2738H37.2638H37.2538H37.2438H37.2338H37.2238H37.2138C36.7647 24.1837 36.3153 24.1831 35.8658 24.1825C34.5159 24.1806 33.1639 24.1788 31.8089 24.1936L31.8089 24.1936L31.8078 24.1936C31.6767 24.1965 31.5584 24.2712 31.4622 24.3424C31.4263 24.3689 31.3897 24.398 31.3548 24.4257C31.3418 24.4361 31.3289 24.4463 31.3164 24.4561C31.269 24.4934 31.2247 24.5268 31.1815 24.5536L31.0424 24.6402L31.183 24.7243C31.2264 24.7503 31.2703 24.7774 31.315 24.8049C31.4508 24.8885 31.5925 24.9759 31.7406 25.0458L31.7497 25.05L31.7593 25.0524C31.8616 25.0777 31.9679 25.0825 32.072 25.0666M42.9912 24.3001L32.0641 24.9666M42.965 24.9663C42.9649 24.9664 42.9648 24.9664 42.9647 24.9665L42.911 24.8821M42.965 24.9663C42.9651 24.9663 42.9651 24.9662 42.9652 24.9662L42.911 24.8821M42.965 24.9663C42.8656 25.0303 42.7456 25.0532 42.6332 25.0621C42.548 25.0688 42.4575 25.0679 42.3757 25.0671C42.3501 25.0669 42.3253 25.0666 42.3017 25.0666H42.2817H42.2617H42.2417H42.2217H42.2017H42.1818H42.1618H42.1418H42.1218H42.1018H42.0818H42.0618H42.0418H42.0218H42.0018H41.9818H41.9618H41.9418H41.9218H41.9018H41.8818H41.8618H41.8418H41.8218H41.8018H41.7818H41.7619H41.7419H41.7219H41.7019H41.6819H41.6619H41.6419H41.6219H41.6019H41.5819H41.5619H41.5419H41.5219H41.5019H41.4819H41.4619H41.4419H41.4219H41.4019H41.3819H41.3619H41.342H41.322H41.302H41.282H41.262H41.242H41.222H41.202H41.182H41.162H41.142H41.122H41.102H41.082H41.062H41.042H41.022H41.002H40.982H40.962H40.942H40.922H40.9021H40.8821H40.8621H40.8421H40.8221H40.8021H40.7821H40.7621H40.7421H40.7221H40.7021H40.6821H40.6621H40.6421H40.6221H40.6021H40.5821H40.5621H40.5421H40.5221H40.5021H40.4822H40.4622H40.4422H40.4222H40.4022H40.3822H40.3622H40.3422H40.3222H40.3022H40.2822H40.2622H40.2422H40.2222H40.2022H40.1822H40.1622H40.1422H40.1222H40.1022H40.0822H40.0622H40.0423H40.0223H40.0023H39.9823H39.9623H39.9423H39.9223H39.9023H39.8823H39.8623H39.8423H39.8223H39.8023H39.7823H39.7623H39.7423H39.7223H39.7023H39.6823H39.6623H39.6423H39.6224H39.6024H39.5824H39.5624H39.5424H39.5224H39.5024H39.4824H39.4624H39.4424H39.4224H39.4024H39.3824H39.3624H39.3424H39.3224H39.3024H39.2824H39.2624H39.2424H39.2224H39.2024H39.1825H39.1625H39.1425H39.1225H39.1025H39.0825H39.0625H39.0425H39.0225H39.0025H38.9825H38.9625H38.9425H38.9225H38.9025H38.8825H38.8625H38.8425H38.8225H38.8025H38.7825H38.7626H38.7426H38.7226H38.7026H38.6826H38.6626H38.6426H38.6226H38.6026H38.5826H38.5626H38.5426H38.5226H38.5026H38.4826H38.4626H38.4426H38.4226H38.4026H38.3826H38.3626H38.3426H38.3227H38.3027H38.2827H38.2627H38.2427H38.2227H38.2027H38.1827H38.1627H38.1427H38.1227H38.1027H38.0827H38.0627H38.0427H38.0227H38.0027H37.9827H37.9627H37.9427H37.9227H37.9028H37.8828H37.8628H37.8428H37.8228H37.8028H37.7828H37.7628H37.7428H37.7228H37.7028H37.6828H37.6628H37.6428H37.6228H37.6028H37.5828H37.5628H37.5428H37.5228H37.5028H37.4829H37.4629H37.4429H37.4229H37.4029H37.3829H37.3629H37.3429H37.3229H37.3029H37.2829H37.2629H37.2429H37.2229H37.2029H37.1829H37.1629H37.1429H37.1229H37.1029H37.0829H37.0629H37.043H37.023H37.003H36.983H36.963H36.943H36.923H36.903H36.883H36.863H36.843H36.823H36.803H36.783H36.763H36.743H36.723H36.703H36.683H36.663H36.643H36.6231H36.6031H36.5831H36.5631H36.5431H36.5231H36.5031H36.4831H36.4631H36.4431H36.4231H36.4031H36.3831H36.3631H36.3431H36.3231H36.3031H36.2831H36.2631H36.2431H36.2231H36.2031H36.1832H36.1632H36.1432H36.1232H36.1032H36.0832H36.0632H36.0432H36.0232H36.0032H35.9832H35.9632H35.9432H35.9232H35.9032H35.8832H35.8632H35.8432H35.8232H35.8032H35.7832H35.7633H35.7433H35.7233H35.7033H35.6833H35.6633H35.6433H35.6233H35.6033H35.5833H35.5633H35.5433H35.5233H35.5033H35.4833H35.4633H35.4433H35.4233H35.4033H35.3833H35.3633H35.3433H35.3234H35.3034H35.2834H35.2634H35.2434H35.2234H35.2034H35.1834H35.1634H35.1434H35.1234H35.1034H35.0834H35.0634H35.0434H35.0234H35.0034H34.9834H34.9634H34.9434H34.9234H34.9035H34.8835H34.8635H34.8435H34.8235H34.8035H34.7835H34.7635H34.7435H34.7235H34.7035H34.6835H34.6635H34.6435H34.6235H34.6035H34.5835H34.5635H34.5435H34.5235H34.5035H34.4836H34.4636H34.4436H34.4236H34.4036H34.3836H34.3636H34.3436H34.3236H34.3036H34.2836H34.2636H34.2436H34.2236H34.2036H34.1836H34.1636H34.1436H34.1236H34.1036H34.0836H34.0636H34.0437H34.0237H34.0037H33.9837H33.9637H33.9437H33.9237H33.9037H33.8837H33.8637H33.8437H33.8237H33.8037H33.7837H33.7637H33.7437H33.7237H33.7037H33.6837H33.6637H33.6437H33.6238H33.6038H33.5838H33.5638H33.5438H33.5238H33.5038H33.4838H33.4638H33.4438H33.4238H33.4038H33.3838H33.3638H33.3438H33.3238H33.3038H33.2838H33.2638H33.2438H33.2238H33.2038H33.1839H33.1639H33.1439H33.1239H33.1039H33.0839H33.0639H33.0439H33.0239H33.0039H32.9839H32.9639H32.9439H32.9239H32.9039H32.8839H32.8639H32.8439H32.8239H32.8039H32.7839H32.764H32.744H32.724H32.704H32.684H32.664H32.644H32.624H32.604H32.584H32.564H32.544H32.524H32.504H32.484H32.464H32.444H32.424H32.404H32.384H32.364H32.344H32.3241H32.3041H32.2841H32.2641H32.2441H32.2241H32.2041H32.1841H32.1641H32.1441H32.1241H32.1041H32.0841H32.072M42.911 24.8821C42.7732 24.971 42.5685 24.969 42.3801 24.9671C42.3536 24.9669 42.3274 24.9666 42.3017 24.9666H32.0641M32.072 25.0666C32.0747 25.0662 32.0775 25.0658 32.0802 25.0653L32.0641 24.9666M32.072 25.0666H32.0641V24.9666M31.2344 24.6385L31.2857 24.5527C31.2987 24.5605 31.3117 24.5683 31.3245 24.5761C31.2945 24.5986 31.2645 24.6198 31.2344 24.6385ZM31.2344 24.6385L31.2872 24.7234C31.3013 24.7147 31.3152 24.7055 31.329 24.6961C31.2975 24.6767 31.266 24.6575 31.2344 24.6385Z" fill="#E63E98" stroke="#E63E98" stroke-width="0.2"/>
<path d="M31.8368 36.112L31.8364 36.112C31.7045 36.1075 31.5831 36.0427 31.4799 35.9771C31.4401 35.9517 31.3999 35.9241 31.3614 35.8978C31.3493 35.8895 31.3374 35.8813 31.3257 35.8733C31.2756 35.8392 31.2284 35.8082 31.1823 35.7828L31.0411 35.7052L31.1733 35.6132C31.2196 35.581 31.2669 35.5418 31.3173 35.4989C31.3274 35.4904 31.3375 35.4817 31.3478 35.4728C31.3881 35.4383 31.4303 35.4022 31.4722 35.3692C31.574 35.289 31.6993 35.2057 31.8384 35.2038L31.8368 36.112ZM31.8368 36.112C32.6168 36.1362 33.4036 36.1329 34.1877 36.1297C34.4558 36.1286 34.7236 36.1275 34.9907 36.1275C35.2845 36.1275 35.5787 36.129 35.8731 36.1305C36.653 36.1344 37.4347 36.1383 38.2148 36.1148L38.215 36.1148C38.3544 36.1103 38.4813 36.0383 38.5888 35.9657C38.6291 35.9385 38.6698 35.9089 38.709 35.8805C38.7228 35.8704 38.7365 35.8605 38.7498 35.8509C38.8022 35.8132 38.8518 35.7789 38.9005 35.751L39.0513 35.6644M31.8368 36.112L39.0513 35.6644M39.0513 35.6644L38.9006 35.5776M39.0513 35.6644L38.9006 35.5776M38.9006 35.5776C38.8514 35.5493 38.8016 35.514 38.7489 35.4748C38.7333 35.4632 38.7172 35.451 38.7008 35.4387C38.6638 35.4107 38.6253 35.3817 38.5878 35.3553C38.4813 35.2803 38.3533 35.2038 38.2118 35.2038V35.3038L38.9006 35.5776Z" fill="#E63E98" stroke="#E63E98" stroke-width="0.2"/>
<path d="M35.1297 39.8063H35.0297C34.7573 39.8063 34.4843 39.8079 34.211 39.8095C33.4572 39.8139 32.7007 39.8183 31.9466 39.7893L31.9464 39.7893C31.7987 39.7833 31.6611 39.7156 31.5401 39.6443C31.4907 39.6151 31.4451 39.5862 31.4011 39.5584C31.3293 39.5128 31.2619 39.4701 31.1896 39.4338L31.0167 39.3472L31.1873 39.2562C31.2382 39.2291 31.2903 39.1957 31.3453 39.159C31.3588 39.1499 31.3726 39.1406 31.3866 39.1312C31.4282 39.1032 31.4715 39.0741 31.5144 39.0474C31.6272 38.977 31.7588 38.9083 31.9001 38.9065L31.9005 38.9065C34.0467 38.8877 36.193 38.8943 38.3393 38.9262L38.3378 39.0262M35.1297 39.8063L38.3196 39.6753M35.1297 39.8063V39.7909M35.1297 39.8063V39.7909M38.3378 39.0262V38.9262C38.4627 38.9262 38.5726 39.0029 38.6574 39.0712C38.6895 39.0972 38.7223 39.1256 38.7534 39.1526C38.765 39.1627 38.7764 39.1726 38.7874 39.182C38.8296 39.2182 38.8685 39.2502 38.9062 39.2756L39.0336 39.3614L38.9036 39.4432C38.8641 39.468 38.8234 39.4987 38.7798 39.533C38.7693 39.5413 38.7585 39.5498 38.7475 39.5586C38.7144 39.5848 38.6796 39.6124 38.6452 39.6376C38.5563 39.703 38.4458 39.7723 38.3222 39.7753M38.3378 39.0262C36.1923 38.9943 34.0468 38.9877 31.9013 39.0065L38.3378 39.0262ZM38.3222 39.7753C38.3221 39.7753 38.322 39.7753 38.3219 39.7753L38.3196 39.6753M38.3222 39.7753C38.3223 39.7753 38.3223 39.7753 38.3224 39.7753L38.3196 39.6753M38.3222 39.7753C37.4991 39.7986 36.6739 39.7957 35.8508 39.7928C35.6102 39.7919 35.3698 39.7911 35.1297 39.7909M38.3196 39.6753C37.4982 39.6986 36.6752 39.6957 35.8524 39.6928C35.6115 39.6919 35.3706 39.6911 35.1297 39.6909V39.7063V39.7909M38.8503 39.3585L38.7945 39.4415C38.784 39.4344 38.7736 39.427 38.7632 39.4195C38.7922 39.3976 38.8213 39.3768 38.8503 39.3585ZM38.8503 39.3585L38.7971 39.2739C38.7866 39.2805 38.7761 39.2874 38.7657 39.2945C38.7938 39.3176 38.8221 39.3395 38.8503 39.3585ZM31.2344 39.3445C31.2681 39.3265 31.3017 39.3063 31.3354 39.2849C31.3165 39.2744 31.2977 39.2644 31.2792 39.2551L31.2344 39.3445ZM31.2344 39.3445L31.2814 39.4327C31.3002 39.4227 31.3188 39.4121 31.3372 39.4012C31.303 39.3809 31.2687 39.3617 31.2344 39.3445ZM35.0297 39.6908V39.7063V39.6908Z" fill="#E63E98" stroke="#E63E98" stroke-width="0.2"/>
<path d="M35.0536 43.3681V43.4681C34.7802 43.4681 34.5065 43.4692 34.2325 43.4703C33.4327 43.4736 32.6311 43.4768 31.8309 43.4527L35.0536 43.3681ZM35.0536 43.3681C34.7793 43.3681 34.505 43.3692 34.2307 43.3703C33.4309 43.3736 32.6313 43.3768 31.8325 43.3527L38.7608 42.9631C38.7744 42.9542 38.7881 42.9455 38.802 42.9373L38.8532 43.0232L38.8028 43.1096C38.7889 43.1014 38.775 43.0929 38.7613 43.0841C38.7302 43.1064 38.6992 43.1299 38.6682 43.1534C38.538 43.2523 38.4083 43.3507 38.2747 43.3555C37.4754 43.3807 36.6754 43.3761 35.8752 43.3716C35.6013 43.3701 35.3275 43.3685 35.0536 43.3681ZM31.3254 42.9706C31.356 42.948 31.3865 42.9241 31.417 42.9002C31.5496 42.7966 31.6824 42.6928 31.8171 42.6909C33.9645 42.6655 36.1119 42.6655 38.2592 42.6909L31.3254 42.9706Z" fill="#E63E98" stroke="#E63E98" stroke-width="0.2"/>
<path d="M35.5567 21.0159L35.656 20.9278L35.5438 20.8567C35.5044 20.8317 35.4642 20.8014 35.4213 20.7678C35.4108 20.7595 35.4001 20.7511 35.3892 20.7424C35.3567 20.7168 35.3226 20.6898 35.2889 20.665C35.2006 20.6001 35.0932 20.5328 34.9719 20.5233C34.5835 20.4915 34.1898 20.4973 33.802 20.503C33.6518 20.5052 33.5024 20.5074 33.3546 20.5074C33.2038 20.5074 33.0514 20.505 32.8979 20.5026C32.5132 20.4965 32.1226 20.4903 31.7373 20.5219L31.7373 20.5219L31.7368 20.5219C31.6159 20.5324 31.5103 20.6036 31.4249 20.6709C31.392 20.6968 31.3589 20.7249 31.3273 20.7516C31.3169 20.7605 31.3066 20.7692 31.2965 20.7776C31.255 20.8125 31.2162 20.8439 31.1782 20.8697L31.067 20.9453L31.1713 21.03C31.2072 21.0592 31.2444 21.0958 31.2848 21.1372C31.2945 21.1472 31.3044 21.1575 31.3146 21.168C31.3452 21.1997 31.3775 21.2331 31.4094 21.2637C31.4521 21.3046 31.4991 21.3452 31.5493 21.3759C31.5996 21.4067 31.6592 21.4312 31.7258 21.4312V21.3312L31.7226 21.4311C32.8209 21.4669 33.9197 21.4669 35.0189 21.4311L35.0192 21.4311C35.0842 21.4288 35.1419 21.4029 35.1902 21.3715C35.2386 21.3399 35.2838 21.2988 35.325 21.2573C35.3574 21.2247 35.39 21.1891 35.4209 21.1552C35.4293 21.1461 35.4375 21.1372 35.4455 21.1284C35.4846 21.0859 35.5211 21.0475 35.5567 21.0159Z" fill="#E63E98" stroke="#E63E98" stroke-width="0.2"/>
<path d="M31.6941 28.6774L31.6864 28.7771C31.5714 28.7682 31.472 28.6982 31.394 28.6345C31.3636 28.6098 31.333 28.5829 31.3041 28.5575C31.2946 28.5491 31.2853 28.5409 31.2762 28.5331C31.2382 28.5 31.2032 28.4706 31.1691 28.4467L31.0679 28.3757L31.1585 28.2916C31.192 28.2605 31.2265 28.2219 31.2638 28.1784C31.2729 28.1678 31.2822 28.1569 31.2917 28.1458C31.3198 28.1126 31.3495 28.0778 31.3788 28.0459C31.4181 28.0031 31.4615 27.9601 31.5083 27.9271C31.5549 27.8942 31.6121 27.866 31.6779 27.8636L31.6783 27.8636C32.7494 27.8288 33.8206 27.8288 34.8918 27.8636L34.8885 27.9635M31.6941 28.6774L33.3274 28.7929V28.7777C33.4485 28.7783 33.5704 28.7798 33.6927 28.7814C34.0956 28.7865 34.5037 28.7918 34.9069 28.7631L34.9077 28.763C35.0225 28.7539 35.121 28.6815 35.1973 28.6168C35.2269 28.5917 35.2568 28.5644 35.2851 28.5386C35.2948 28.5299 35.3042 28.5213 35.3133 28.513C35.3508 28.4792 35.3854 28.4491 35.4191 28.4246L35.5225 28.3495L35.4247 28.2672C35.3903 28.2383 35.3548 28.2018 35.3161 28.1603C35.3063 28.1497 35.2961 28.1387 35.2857 28.1274C35.257 28.0963 35.2267 28.0634 35.1969 28.0335C35.156 27.9924 35.1108 27.9513 35.0622 27.9201C35.0135 27.889 34.9548 27.8635 34.8885 27.8635V27.9635M31.6941 28.6774C31.5823 28.6687 31.4765 28.5758 31.3712 28.4833C31.3495 28.4643 31.3279 28.4453 31.3063 28.4271C31.3024 28.4308 31.2985 28.4345 31.2946 28.4381L31.2266 28.3648L31.284 28.283C31.2884 28.286 31.2927 28.2891 31.297 28.2923C31.321 28.2656 31.3449 28.2375 31.3689 28.2093C31.4718 28.0883 31.5747 27.9674 31.6815 27.9635C32.7505 27.9288 33.8195 27.9288 34.8885 27.9635M31.6941 28.6774C32.0604 28.7079 32.4297 28.7025 32.7986 28.6971C32.9417 28.695 33.0847 28.6929 33.2274 28.6929L35.2864 28.2741C35.2612 28.2484 35.2361 28.2211 35.211 28.1939C35.1047 28.0787 34.9986 27.9635 34.8885 27.9635" fill="#E63E98" stroke="#E63E98" stroke-width="0.2"/>
<path d="M46.5939 24.1724L46.5164 24.1755L46.513 24.1918C46.4062 24.1912 46.2988 24.1898 46.1908 24.1883C45.8366 24.1835 45.4772 24.1786 45.1229 24.2064L45.1229 24.2064L45.122 24.2064C45.0123 24.2161 44.9226 24.2898 44.8561 24.3516C44.8324 24.3736 44.8078 24.3979 44.7846 24.4209C44.774 24.4315 44.7637 24.4417 44.7538 24.4513C44.7207 24.4837 44.6901 24.512 44.6601 24.5349L44.5642 24.608L44.6538 24.6887C44.6802 24.7125 44.7078 24.7428 44.7385 24.778C44.7459 24.7865 44.7535 24.7954 44.7614 24.8045C44.7845 24.8314 44.8093 24.86 44.8337 24.8861C44.8665 24.9213 44.9037 24.9574 44.9446 24.9851C44.9849 25.0124 45.0355 25.0361 45.0942 25.0368C46.0457 25.0833 47.0006 25.1073 47.9532 25.0918L47.9536 25.0918C48.0171 25.0905 48.0719 25.0625 48.1151 25.0316C48.1589 25.0002 48.1996 24.9594 48.2362 24.9191C48.2632 24.8894 48.2907 24.8569 48.3167 24.8261C48.3259 24.8152 48.3349 24.8046 48.3436 24.7943C48.3785 24.7534 48.4104 24.7175 48.441 24.689L48.5279 24.608L48.4333 24.5362C48.4002 24.5111 48.3664 24.4805 48.3299 24.446C48.3209 24.4376 48.3117 24.4288 48.3023 24.4199C48.2747 24.3937 48.2456 24.366 48.2167 24.3405C48.1419 24.2743 48.0455 24.2004 47.9312 24.1883L47.9312 24.1882L47.9272 24.188C47.4833 24.1593 47.0383 24.1541 46.5939 24.1724ZM48.3031 24.6884C48.2818 24.7124 48.2605 24.7376 48.2392 24.7629C48.1433 24.8764 48.0475 24.9899 47.9516 24.9918L48.3031 24.6884Z" fill="#E63E98" stroke="#E63E98" stroke-width="0.2"/>
<path d="M29.9662 49.3347L29.9647 49.3455C29.9294 49.6146 29.8421 49.8464 29.6801 50.0094C29.5156 50.1747 29.2866 50.2567 28.9952 50.2491C28.7056 50.2416 28.4748 50.1509 28.3204 49.9762C28.1669 49.8025 28.1026 49.5611 28.113 49.2795L28.113 49.2793C28.1236 49.0094 28.2088 48.7854 28.369 48.6291C28.5294 48.4725 28.7531 48.3953 29.0178 48.3961L29.9662 49.3347ZM29.9662 49.3347L29.9652 49.3239M29.9662 49.3347L29.9652 49.3239M29.9652 49.3239C29.9415 49.0477 29.8546 48.8141 29.6925 48.6489M29.9652 49.3239L29.6925 48.6489M29.6925 48.6489C29.5289 48.4822 29.3003 48.3969 29.0178 48.3961L29.6925 48.6489Z" fill="#E63E98" stroke="#E63E98" stroke-width="0.2"/>
<path d="M44.7783 49.5928C44.7523 49.5647 44.7254 49.5368 44.6985 49.5089C44.5872 49.3938 44.4756 49.2782 44.4334 49.1416C44.3834 48.9785 44.395 48.7961 44.4065 48.6142C44.4115 48.5355 44.4165 48.4569 44.4165 48.3799L44.7783 49.5928ZM44.8831 47.1935C44.9032 47.213 44.9241 47.2324 44.945 47.2517C45.0468 47.3461 45.1482 47.4402 45.1579 47.5435C45.2049 48.076 45.2091 48.6113 45.1705 49.1445L44.8831 47.1935ZM44.3473 47.5205L44.3473 47.5205L44.3471 47.5212C44.3135 47.6685 44.3095 47.8162 44.313 47.9586C44.3146 48.0203 44.3174 48.0785 44.3201 48.1355C44.3228 48.1904 44.3254 48.2443 44.3267 48.2993L44.3165 48.3019V48.3799C44.3165 48.4552 44.3119 48.5269 44.307 48.6021C44.3037 48.654 44.3002 48.7075 44.2981 48.765C44.2933 48.8975 44.2969 49.0378 44.3377 49.1709L44.3378 49.1712C44.3755 49.2933 44.4565 49.3956 44.5364 49.4832C44.5694 49.5195 44.6012 49.5523 44.6316 49.5837C44.6805 49.6342 44.726 49.6812 44.7682 49.7337L44.8547 49.8412L44.93 49.7256C44.9555 49.6864 44.9865 49.6463 45.0209 49.6034C45.0288 49.5935 45.0369 49.5835 45.0452 49.5732C45.0719 49.5402 45.0999 49.5054 45.1258 49.4709C45.192 49.3824 45.2608 49.2744 45.2702 49.1521L45.2702 49.1517C45.3092 48.6132 45.305 48.0725 45.2575 47.5347L45.2575 47.5347L45.2574 47.5342C45.2468 47.4196 45.1651 47.3264 45.0966 47.2579C45.0694 47.2307 45.0398 47.2033 45.0119 47.1773C45.0026 47.1688 44.9936 47.1604 44.9849 47.1523C44.9484 47.1182 44.9162 47.0867 44.8898 47.056L44.816 46.97L44.7398 47.0539C44.7116 47.085 44.6781 47.1161 44.6409 47.1494C44.6315 47.1579 44.6216 47.1666 44.6116 47.1755C44.5836 47.2003 44.5541 47.2264 44.5267 47.2524C44.454 47.3213 44.3736 47.4092 44.3473 47.5205Z" fill="#E63E98" stroke="#E63E98" stroke-width="0.2"/>
<rect x="10.999" y="21" width="17.9978" height="9" fill="#E63E98" fill-opacity="0.2"/>
<rect x="13.998" y="33" width="11.9985" height="10" fill="#E63E98" fill-opacity="0.2"/>
</svg>
