<svg width="59" height="59" viewBox="0 0 59 59" fill="none" xmlns="http://www.w3.org/2000/svg">
<g clip-path="url(#clip0)">
<mask id="path-1-outside-1" maskUnits="userSpaceOnUse" x="-0.84375" y="2.31665" width="58" height="55" fill="black">
<rect fill="white" x="-0.84375" y="2.31665" width="58" height="55"/>
<path d="M40.5965 5.67613C41.4054 6.04262 41.9972 6.52113 42.8172 6.38698C44.962 6.03709 46.9947 6.5474 48.9555 7.31633C51.4985 8.31068 53.657 9.90247 55.6178 11.8013C56.0935 12.2646 56.0327 12.6172 55.5763 12.9962C54.5821 13.8149 53.5975 14.6557 52.5757 15.4316C52.1912 15.7261 52.1055 15.9197 52.371 16.3747C54.979 20.8459 56.1765 25.66 55.9207 30.8488C55.669 35.916 54.029 40.4757 51.1569 44.6301C50.932 44.9972 50.8066 45.4167 50.7932 45.8471C50.7047 47.3559 50.088 48.0128 48.6056 48.1483C48.2936 48.1852 48.0003 48.3164 47.7649 48.5245C45.9168 50.2293 43.852 51.6828 41.6239 52.8476C41.5043 52.9211 41.4005 53.0176 41.3186 53.1316C41.2367 53.2456 41.1783 53.3747 41.1468 53.5115C40.8094 55.3232 39.3132 56.5872 37.2985 56.5789C28.3351 56.5457 19.3718 56.5457 10.4085 56.5789C8.03285 56.5899 6.44124 54.828 6.47719 52.6347C6.53251 49.2022 6.51453 45.7669 6.47719 42.333C6.46632 41.649 6.31821 40.9741 6.04162 40.3484C4.45137 36.8792 3.64859 33.1009 3.69085 29.2847C3.69559 26.8624 4.05382 24.4537 4.75423 22.1348C4.9976 21.3506 4.96026 21.2926 4.16377 21.2829C3.08104 21.2677 1.99692 21.2469 0.915569 21.2829C0.332027 21.2981 0.128759 21.0644 0.159181 20.5084C0.18822 20.0023 0.159174 19.4947 0.168853 18.9872C0.207572 16.9265 1.58622 15.5298 3.66043 15.4869C4.76667 15.462 5.87291 15.4565 6.97915 15.4869C7.54195 15.5021 7.89042 15.3223 8.22367 14.8383C11.7733 9.67566 16.5551 6.12559 22.5578 4.37753C27.9189 2.81201 33.2883 2.97936 38.5776 4.87816C38.9647 5.01646 39.4598 5.12295 39.8221 5.00263C44.0327 3.63488 47.9806 4.42732 51.7239 6.499C53.1067 7.26239 54.3401 8.29685 55.6372 9.20684C55.796 9.30164 55.929 9.43418 56.0244 9.59269C56.0977 9.75035 56.0645 9.95779 56.0783 10.1459C55.8875 10.121 55.651 10.1583 55.5155 10.0587C55.0329 9.70609 54.6001 9.28567 54.1203 8.92886C51.7487 7.16558 49.2044 5.77709 46.2383 5.26816C44.5291 4.97635 42.8477 5.08146 41.1675 5.42858C40.9706 5.4951 40.7796 5.5779 40.5965 5.67613ZM5.97386 16.2143C6.80354 17.2004 7.23912 18.1297 7.23359 19.2499C7.21423 23.1665 7.22529 27.083 7.22253 31.0051C7.22253 37.4792 7.21976 43.9529 7.21423 50.4261C7.21423 51.4384 7.21423 52.4563 7.3055 53.4617C7.43133 54.7603 8.59703 55.7712 9.88857 55.8127C11.2824 55.857 12.5947 54.8599 12.8298 53.5779C13.004 52.6291 13.004 52.6278 14.0135 52.6278C20.6242 52.6278 27.2354 52.6314 33.847 52.6388C34.4361 52.6388 34.6767 52.5005 34.6407 51.8727C34.5923 50.9046 34.5951 49.9365 34.6407 48.9684C34.6711 48.3378 34.4692 48.1165 33.8235 48.1387C32.5582 48.1788 31.2902 48.1539 30.0235 48.1304C29.7262 48.1393 29.431 48.0777 29.1621 47.9506C27.251 46.8903 25.3492 45.8107 23.4566 44.7117C22.8302 44.348 22.851 44.1198 23.4843 43.756C25.0399 42.8599 26.6246 42.0094 28.1512 41.0662C29.1095 40.4729 30.0872 40.1852 31.21 40.2862C32.0563 40.3609 32.9177 40.2516 33.7654 40.3152C34.4858 40.3705 34.6449 40.105 34.6435 39.4205C34.6186 32.7394 34.6297 26.0583 34.6283 19.3772C34.6283 17.2419 33.5939 16.1963 31.4561 16.188C23.2782 16.177 15.1003 16.1714 6.92246 16.1714C6.67909 16.1687 6.43433 16.1936 5.97386 16.2185V16.2143ZM8.71872 15.3845C9.11835 15.4274 9.31747 15.4661 9.5166 15.4661C16.8187 15.4661 24.1217 15.4661 31.4257 15.4661C33.9438 15.4661 35.3639 16.8297 35.3639 19.3702C35.3639 26.0748 35.3602 32.7799 35.3529 39.4854C35.3529 40.1009 35.5022 40.3152 36.1577 40.3152C40.2577 40.2862 44.3591 40.2972 48.4646 40.3014C49.9552 40.3014 50.7545 41.1049 50.7877 42.5971C50.7877 42.8917 50.843 43.1863 50.8886 43.6385C51.085 43.3992 51.1652 43.319 51.2233 43.2236C53.5395 39.5767 54.9043 35.5952 55.1947 31.2928C55.5647 26.2467 54.3841 21.2081 51.811 16.8519C51.4957 16.3097 51.2703 16.2752 50.7504 16.5753C47.7082 18.3067 44.4448 18.9263 41.0293 18.055C37.6691 17.1962 34.8827 15.2891 32.4269 12.8814C32.0383 12.4983 32.124 12.1899 32.4905 11.8345C34.2729 10.103 36.242 8.64121 38.5222 7.62749C39.2261 7.31356 39.9438 7.03421 40.808 6.67602C40.0599 6.28741 39.522 5.78124 38.7338 6.20028C37.5806 6.81985 36.3927 7.38271 35.2768 8.06728C34.3973 8.60664 33.6174 9.30226 32.7712 9.90247C32.644 9.99236 32.4144 9.93704 32.2305 9.94949C32.2388 9.76315 32.2642 9.57796 32.3066 9.39631C32.337 9.30088 32.4559 9.22205 32.5499 9.15982C34.2093 8.0848 35.8687 7.013 37.528 5.94443C37.6898 5.84071 37.8557 5.74252 38.207 5.52954C33.0298 3.80083 28.0116 3.60169 22.9713 5.04412C17.0377 6.74101 12.3237 10.1583 8.71872 15.3915V15.3845ZM32.9053 12.3144C36.101 15.3057 39.475 17.5973 43.8198 17.6996C48.383 17.8061 51.8829 15.3998 55.232 12.3365C54.1258 11.4555 53.1398 10.5843 52.0668 9.84715C49.6303 8.1876 46.9905 6.99271 43.9746 7.03697C41.0998 7.07984 38.5361 8.15855 36.1964 9.75588C35.0832 10.5165 34.0599 11.4099 32.9053 12.3144ZM12.6348 55.7837H13.3013L26.6302 55.7961C30.2669 55.7961 33.9037 55.7961 37.5405 55.7961C38.6813 55.7961 39.5345 55.2886 40.0751 54.2956C40.4582 53.5917 40.3282 53.405 39.5428 53.405L19.1699 53.3884C17.559 53.3884 15.9466 53.3746 14.3301 53.4022C14.0743 53.4022 13.694 53.5211 13.5876 53.7079C13.2363 54.3385 12.9777 55.0203 12.6348 55.7837ZM46.8232 48.4194L46.7389 48.2133C46.4789 48.1884 46.2189 48.1414 45.959 48.14C44.2346 48.14 42.5103 48.14 40.7859 48.14C39.1998 48.14 37.6137 48.1469 36.0263 48.14C35.5866 48.14 35.3446 48.2576 35.357 48.7651C35.3847 49.8715 35.3778 50.9779 35.357 52.076C35.3501 52.4908 35.5147 52.6416 35.9253 52.6291C37.098 52.6098 38.2761 52.6692 39.4418 52.596C40.0976 52.569 40.7418 52.4135 41.3376 52.1382C42.4003 51.5932 43.4263 50.9792 44.4088 50.3002C45.2537 49.7291 46.0226 49.0514 46.8232 48.4194ZM6.27945 38.9475L6.43295 38.9281C6.4696 38.7381 6.49408 38.5459 6.50624 38.3528C6.50624 32.9233 6.50255 27.4938 6.49517 22.0643C6.49517 21.8139 6.30158 21.565 6.19926 21.3147C5.99322 21.5125 5.6724 21.6756 5.59635 21.9149C3.85264 27.4136 4.03379 32.8749 5.97524 38.2906C6.05545 38.5174 6.17713 38.729 6.27945 38.9475ZM37.6386 41.0399C35.357 41.0399 33.0754 41.0593 30.7965 41.0261C30.1646 41.0178 30.007 41.2653 30.0166 41.8393C30.0263 42.3924 30.0789 42.7506 30.7896 42.7465C35.328 42.7234 39.8659 42.7234 44.4033 42.7465C45.1196 42.7465 45.1472 42.3911 45.1569 41.8434C45.1666 41.2958 45.0671 41.0136 44.4102 41.0233C42.1535 41.062 39.8954 41.0399 37.6386 41.0399ZM37.5557 47.461V47.4416C39.8345 47.4416 42.1189 47.4416 44.3895 47.4333C44.6204 47.4333 45.0311 47.3476 45.0505 47.2453C45.1381 46.8222 45.1357 46.3854 45.0435 45.9633C45.0103 45.8346 44.5278 45.7641 44.2512 45.7627C39.7875 45.7503 35.3238 45.7627 30.8601 45.742C30.231 45.742 30.0111 45.9397 30.0125 46.5718C30.0139 47.2038 30.1632 47.4845 30.8615 47.4734C33.092 47.4416 35.3252 47.461 37.5557 47.461ZM45.9106 44.2484H45.9244C45.9244 45.1003 45.941 45.9522 45.9244 46.8041C45.9119 47.2508 46.0903 47.4347 46.5273 47.4278C47.2408 47.4168 47.9557 47.4472 48.6679 47.414C49.5349 47.3739 49.9705 46.9216 49.9843 46.0518C50.0036 44.8772 50.0036 43.703 49.9843 42.5294C49.9691 41.6083 49.4934 41.1201 48.5835 41.0814C47.8921 41.0537 47.2007 41.0814 46.5093 41.0689C46.0599 41.0579 45.8995 41.257 45.9092 41.6927C45.9258 42.5446 45.9106 43.3965 45.9106 44.2484ZM45.1431 44.9523C45.1278 44.6709 45.1278 44.3888 45.1431 44.1073C45.2081 43.5541 44.9633 43.3937 44.4296 43.3951C39.8673 43.4098 35.304 43.4098 30.7398 43.3951C30.0484 43.3951 30.0305 43.7574 30.0097 44.2677C29.9876 44.8306 30.1757 45.0215 30.7592 45.0187C35.3224 44.9979 39.8857 45.0076 44.4489 45.0049C44.655 45.0021 44.8555 44.973 45.1431 44.9523ZM3.56778 20.5236V20.514C4.00475 20.514 4.44172 20.525 4.8773 20.514C6.59336 20.46 6.42465 20.8638 6.41359 18.9125C6.42003 18.3665 6.25624 17.832 5.94498 17.3834C5.63372 16.9348 5.19046 16.5944 4.67679 16.4093C3.56364 16.0166 2.5528 16.2143 1.69132 17.0607C0.804943 17.9333 0.803562 19.0356 0.905889 20.1488C0.918334 20.2871 1.24191 20.4987 1.43135 20.5098C2.14211 20.5499 2.85564 20.5236 3.56778 20.5236ZM29.2367 47.1153V41.3995L24.2158 44.2401L29.2367 47.1153Z"/>
</mask>
<path d="M40.5965 5.67613C41.4054 6.04262 41.9972 6.52113 42.8172 6.38698C44.962 6.03709 46.9947 6.5474 48.9555 7.31633C51.4985 8.31068 53.657 9.90247 55.6178 11.8013C56.0935 12.2646 56.0327 12.6172 55.5763 12.9962C54.5821 13.8149 53.5975 14.6557 52.5757 15.4316C52.1912 15.7261 52.1055 15.9197 52.371 16.3747C54.979 20.8459 56.1765 25.66 55.9207 30.8488C55.669 35.916 54.029 40.4757 51.1569 44.6301C50.932 44.9972 50.8066 45.4167 50.7932 45.8471C50.7047 47.3559 50.088 48.0128 48.6056 48.1483C48.2936 48.1852 48.0003 48.3164 47.7649 48.5245C45.9168 50.2293 43.852 51.6828 41.6239 52.8476C41.5043 52.9211 41.4005 53.0176 41.3186 53.1316C41.2367 53.2456 41.1783 53.3747 41.1468 53.5115C40.8094 55.3232 39.3132 56.5872 37.2985 56.5789C28.3351 56.5457 19.3718 56.5457 10.4085 56.5789C8.03285 56.5899 6.44124 54.828 6.47719 52.6347C6.53251 49.2022 6.51453 45.7669 6.47719 42.333C6.46632 41.649 6.31821 40.9741 6.04162 40.3484C4.45137 36.8792 3.64859 33.1009 3.69085 29.2847C3.69559 26.8624 4.05382 24.4537 4.75423 22.1348C4.9976 21.3506 4.96026 21.2926 4.16377 21.2829C3.08104 21.2677 1.99692 21.2469 0.915569 21.2829C0.332027 21.2981 0.128759 21.0644 0.159181 20.5084C0.18822 20.0023 0.159174 19.4947 0.168853 18.9872C0.207572 16.9265 1.58622 15.5298 3.66043 15.4869C4.76667 15.462 5.87291 15.4565 6.97915 15.4869C7.54195 15.5021 7.89042 15.3223 8.22367 14.8383C11.7733 9.67566 16.5551 6.12559 22.5578 4.37753C27.9189 2.81201 33.2883 2.97936 38.5776 4.87816C38.9647 5.01646 39.4598 5.12295 39.8221 5.00263C44.0327 3.63488 47.9806 4.42732 51.7239 6.499C53.1067 7.26239 54.3401 8.29685 55.6372 9.20684C55.796 9.30164 55.929 9.43418 56.0244 9.59269C56.0977 9.75035 56.0645 9.95779 56.0783 10.1459C55.8875 10.121 55.651 10.1583 55.5155 10.0587C55.0329 9.70609 54.6001 9.28567 54.1203 8.92886C51.7487 7.16558 49.2044 5.77709 46.2383 5.26816C44.5291 4.97635 42.8477 5.08146 41.1675 5.42858C40.9706 5.4951 40.7796 5.5779 40.5965 5.67613ZM5.97386 16.2143C6.80354 17.2004 7.23912 18.1297 7.23359 19.2499C7.21423 23.1665 7.22529 27.083 7.22253 31.0051C7.22253 37.4792 7.21976 43.9529 7.21423 50.4261C7.21423 51.4384 7.21423 52.4563 7.3055 53.4617C7.43133 54.7603 8.59703 55.7712 9.88857 55.8127C11.2824 55.857 12.5947 54.8599 12.8298 53.5779C13.004 52.6291 13.004 52.6278 14.0135 52.6278C20.6242 52.6278 27.2354 52.6314 33.847 52.6388C34.4361 52.6388 34.6767 52.5005 34.6407 51.8727C34.5923 50.9046 34.5951 49.9365 34.6407 48.9684C34.6711 48.3378 34.4692 48.1165 33.8235 48.1387C32.5582 48.1788 31.2902 48.1539 30.0235 48.1304C29.7262 48.1393 29.431 48.0777 29.1621 47.9506C27.251 46.8903 25.3492 45.8107 23.4566 44.7117C22.8302 44.348 22.851 44.1198 23.4843 43.756C25.0399 42.8599 26.6246 42.0094 28.1512 41.0662C29.1095 40.4729 30.0872 40.1852 31.21 40.2862C32.0563 40.3609 32.9177 40.2516 33.7654 40.3152C34.4858 40.3705 34.6449 40.105 34.6435 39.4205C34.6186 32.7394 34.6297 26.0583 34.6283 19.3772C34.6283 17.2419 33.5939 16.1963 31.4561 16.188C23.2782 16.177 15.1003 16.1714 6.92246 16.1714C6.67909 16.1687 6.43433 16.1936 5.97386 16.2185V16.2143ZM8.71872 15.3845C9.11835 15.4274 9.31747 15.4661 9.5166 15.4661C16.8187 15.4661 24.1217 15.4661 31.4257 15.4661C33.9438 15.4661 35.3639 16.8297 35.3639 19.3702C35.3639 26.0748 35.3602 32.7799 35.3529 39.4854C35.3529 40.1009 35.5022 40.3152 36.1577 40.3152C40.2577 40.2862 44.3591 40.2972 48.4646 40.3014C49.9552 40.3014 50.7545 41.1049 50.7877 42.5971C50.7877 42.8917 50.843 43.1863 50.8886 43.6385C51.085 43.3992 51.1652 43.319 51.2233 43.2236C53.5395 39.5767 54.9043 35.5952 55.1947 31.2928C55.5647 26.2467 54.3841 21.2081 51.811 16.8519C51.4957 16.3097 51.2703 16.2752 50.7504 16.5753C47.7082 18.3067 44.4448 18.9263 41.0293 18.055C37.6691 17.1962 34.8827 15.2891 32.4269 12.8814C32.0383 12.4983 32.124 12.1899 32.4905 11.8345C34.2729 10.103 36.242 8.64121 38.5222 7.62749C39.2261 7.31356 39.9438 7.03421 40.808 6.67602C40.0599 6.28741 39.522 5.78124 38.7338 6.20028C37.5806 6.81985 36.3927 7.38271 35.2768 8.06728C34.3973 8.60664 33.6174 9.30226 32.7712 9.90247C32.644 9.99236 32.4144 9.93704 32.2305 9.94949C32.2388 9.76315 32.2642 9.57796 32.3066 9.39631C32.337 9.30088 32.4559 9.22205 32.5499 9.15982C34.2093 8.0848 35.8687 7.013 37.528 5.94443C37.6898 5.84071 37.8557 5.74252 38.207 5.52954C33.0298 3.80083 28.0116 3.60169 22.9713 5.04412C17.0377 6.74101 12.3237 10.1583 8.71872 15.3915V15.3845ZM32.9053 12.3144C36.101 15.3057 39.475 17.5973 43.8198 17.6996C48.383 17.8061 51.8829 15.3998 55.232 12.3365C54.1258 11.4555 53.1398 10.5843 52.0668 9.84715C49.6303 8.1876 46.9905 6.99271 43.9746 7.03697C41.0998 7.07984 38.5361 8.15855 36.1964 9.75588C35.0832 10.5165 34.0599 11.4099 32.9053 12.3144ZM12.6348 55.7837H13.3013L26.6302 55.7961C30.2669 55.7961 33.9037 55.7961 37.5405 55.7961C38.6813 55.7961 39.5345 55.2886 40.0751 54.2956C40.4582 53.5917 40.3282 53.405 39.5428 53.405L19.1699 53.3884C17.559 53.3884 15.9466 53.3746 14.3301 53.4022C14.0743 53.4022 13.694 53.5211 13.5876 53.7079C13.2363 54.3385 12.9777 55.0203 12.6348 55.7837ZM46.8232 48.4194L46.7389 48.2133C46.4789 48.1884 46.2189 48.1414 45.959 48.14C44.2346 48.14 42.5103 48.14 40.7859 48.14C39.1998 48.14 37.6137 48.1469 36.0263 48.14C35.5866 48.14 35.3446 48.2576 35.357 48.7651C35.3847 49.8715 35.3778 50.9779 35.357 52.076C35.3501 52.4908 35.5147 52.6416 35.9253 52.6291C37.098 52.6098 38.2761 52.6692 39.4418 52.596C40.0976 52.569 40.7418 52.4135 41.3376 52.1382C42.4003 51.5932 43.4263 50.9792 44.4088 50.3002C45.2537 49.7291 46.0226 49.0514 46.8232 48.4194ZM6.27945 38.9475L6.43295 38.9281C6.4696 38.7381 6.49408 38.5459 6.50624 38.3528C6.50624 32.9233 6.50255 27.4938 6.49517 22.0643C6.49517 21.8139 6.30158 21.565 6.19926 21.3147C5.99322 21.5125 5.6724 21.6756 5.59635 21.9149C3.85264 27.4136 4.03379 32.8749 5.97524 38.2906C6.05545 38.5174 6.17713 38.729 6.27945 38.9475ZM37.6386 41.0399C35.357 41.0399 33.0754 41.0593 30.7965 41.0261C30.1646 41.0178 30.007 41.2653 30.0166 41.8393C30.0263 42.3924 30.0789 42.7506 30.7896 42.7465C35.328 42.7234 39.8659 42.7234 44.4033 42.7465C45.1196 42.7465 45.1472 42.3911 45.1569 41.8434C45.1666 41.2958 45.0671 41.0136 44.4102 41.0233C42.1535 41.062 39.8954 41.0399 37.6386 41.0399ZM37.5557 47.461V47.4416C39.8345 47.4416 42.1189 47.4416 44.3895 47.4333C44.6204 47.4333 45.0311 47.3476 45.0505 47.2453C45.1381 46.8222 45.1357 46.3854 45.0435 45.9633C45.0103 45.8346 44.5278 45.7641 44.2512 45.7627C39.7875 45.7503 35.3238 45.7627 30.8601 45.742C30.231 45.742 30.0111 45.9397 30.0125 46.5718C30.0139 47.2038 30.1632 47.4845 30.8615 47.4734C33.092 47.4416 35.3252 47.461 37.5557 47.461ZM45.9106 44.2484H45.9244C45.9244 45.1003 45.941 45.9522 45.9244 46.8041C45.9119 47.2508 46.0903 47.4347 46.5273 47.4278C47.2408 47.4168 47.9557 47.4472 48.6679 47.414C49.5349 47.3739 49.9705 46.9216 49.9843 46.0518C50.0036 44.8772 50.0036 43.703 49.9843 42.5294C49.9691 41.6083 49.4934 41.1201 48.5835 41.0814C47.8921 41.0537 47.2007 41.0814 46.5093 41.0689C46.0599 41.0579 45.8995 41.257 45.9092 41.6927C45.9258 42.5446 45.9106 43.3965 45.9106 44.2484ZM45.1431 44.9523C45.1278 44.6709 45.1278 44.3888 45.1431 44.1073C45.2081 43.5541 44.9633 43.3937 44.4296 43.3951C39.8673 43.4098 35.304 43.4098 30.7398 43.3951C30.0484 43.3951 30.0305 43.7574 30.0097 44.2677C29.9876 44.8306 30.1757 45.0215 30.7592 45.0187C35.3224 44.9979 39.8857 45.0076 44.4489 45.0049C44.655 45.0021 44.8555 44.973 45.1431 44.9523ZM3.56778 20.5236V20.514C4.00475 20.514 4.44172 20.525 4.8773 20.514C6.59336 20.46 6.42465 20.8638 6.41359 18.9125C6.42003 18.3665 6.25624 17.832 5.94498 17.3834C5.63372 16.9348 5.19046 16.5944 4.67679 16.4093C3.56364 16.0166 2.5528 16.2143 1.69132 17.0607C0.804943 17.9333 0.803562 19.0356 0.905889 20.1488C0.918334 20.2871 1.24191 20.4987 1.43135 20.5098C2.14211 20.5499 2.85564 20.5236 3.56778 20.5236ZM29.2367 47.1153V41.3995L24.2158 44.2401L29.2367 47.1153Z" fill="#6651E6"/>
<path d="M40.5965 5.67613C41.4054 6.04262 41.9972 6.52113 42.8172 6.38698C44.962 6.03709 46.9947 6.5474 48.9555 7.31633C51.4985 8.31068 53.657 9.90247 55.6178 11.8013C56.0935 12.2646 56.0327 12.6172 55.5763 12.9962C54.5821 13.8149 53.5975 14.6557 52.5757 15.4316C52.1912 15.7261 52.1055 15.9197 52.371 16.3747C54.979 20.8459 56.1765 25.66 55.9207 30.8488C55.669 35.916 54.029 40.4757 51.1569 44.6301C50.932 44.9972 50.8066 45.4167 50.7932 45.8471C50.7047 47.3559 50.088 48.0128 48.6056 48.1483C48.2936 48.1852 48.0003 48.3164 47.7649 48.5245C45.9168 50.2293 43.852 51.6828 41.6239 52.8476C41.5043 52.9211 41.4005 53.0176 41.3186 53.1316C41.2367 53.2456 41.1783 53.3747 41.1468 53.5115C40.8094 55.3232 39.3132 56.5872 37.2985 56.5789C28.3351 56.5457 19.3718 56.5457 10.4085 56.5789C8.03285 56.5899 6.44124 54.828 6.47719 52.6347C6.53251 49.2022 6.51453 45.7669 6.47719 42.333C6.46632 41.649 6.31821 40.9741 6.04162 40.3484C4.45137 36.8792 3.64859 33.1009 3.69085 29.2847C3.69559 26.8624 4.05382 24.4537 4.75423 22.1348C4.9976 21.3506 4.96026 21.2926 4.16377 21.2829C3.08104 21.2677 1.99692 21.2469 0.915569 21.2829C0.332027 21.2981 0.128759 21.0644 0.159181 20.5084C0.18822 20.0023 0.159174 19.4947 0.168853 18.9872C0.207572 16.9265 1.58622 15.5298 3.66043 15.4869C4.76667 15.462 5.87291 15.4565 6.97915 15.4869C7.54195 15.5021 7.89042 15.3223 8.22367 14.8383C11.7733 9.67566 16.5551 6.12559 22.5578 4.37753C27.9189 2.81201 33.2883 2.97936 38.5776 4.87816C38.9647 5.01646 39.4598 5.12295 39.8221 5.00263C44.0327 3.63488 47.9806 4.42732 51.7239 6.499C53.1067 7.26239 54.3401 8.29685 55.6372 9.20684C55.796 9.30164 55.929 9.43418 56.0244 9.59269C56.0977 9.75035 56.0645 9.95779 56.0783 10.1459C55.8875 10.121 55.651 10.1583 55.5155 10.0587C55.0329 9.70609 54.6001 9.28567 54.1203 8.92886C51.7487 7.16558 49.2044 5.77709 46.2383 5.26816C44.5291 4.97635 42.8477 5.08146 41.1675 5.42858C40.9706 5.4951 40.7796 5.5779 40.5965 5.67613ZM5.97386 16.2143C6.80354 17.2004 7.23912 18.1297 7.23359 19.2499C7.21423 23.1665 7.22529 27.083 7.22253 31.0051C7.22253 37.4792 7.21976 43.9529 7.21423 50.4261C7.21423 51.4384 7.21423 52.4563 7.3055 53.4617C7.43133 54.7603 8.59703 55.7712 9.88857 55.8127C11.2824 55.857 12.5947 54.8599 12.8298 53.5779C13.004 52.6291 13.004 52.6278 14.0135 52.6278C20.6242 52.6278 27.2354 52.6314 33.847 52.6388C34.4361 52.6388 34.6767 52.5005 34.6407 51.8727C34.5923 50.9046 34.5951 49.9365 34.6407 48.9684C34.6711 48.3378 34.4692 48.1165 33.8235 48.1387C32.5582 48.1788 31.2902 48.1539 30.0235 48.1304C29.7262 48.1393 29.431 48.0777 29.1621 47.9506C27.251 46.8903 25.3492 45.8107 23.4566 44.7117C22.8302 44.348 22.851 44.1198 23.4843 43.756C25.0399 42.8599 26.6246 42.0094 28.1512 41.0662C29.1095 40.4729 30.0872 40.1852 31.21 40.2862C32.0563 40.3609 32.9177 40.2516 33.7654 40.3152C34.4858 40.3705 34.6449 40.105 34.6435 39.4205C34.6186 32.7394 34.6297 26.0583 34.6283 19.3772C34.6283 17.2419 33.5939 16.1963 31.4561 16.188C23.2782 16.177 15.1003 16.1714 6.92246 16.1714C6.67909 16.1687 6.43433 16.1936 5.97386 16.2185V16.2143ZM8.71872 15.3845C9.11835 15.4274 9.31747 15.4661 9.5166 15.4661C16.8187 15.4661 24.1217 15.4661 31.4257 15.4661C33.9438 15.4661 35.3639 16.8297 35.3639 19.3702C35.3639 26.0748 35.3602 32.7799 35.3529 39.4854C35.3529 40.1009 35.5022 40.3152 36.1577 40.3152C40.2577 40.2862 44.3591 40.2972 48.4646 40.3014C49.9552 40.3014 50.7545 41.1049 50.7877 42.5971C50.7877 42.8917 50.843 43.1863 50.8886 43.6385C51.085 43.3992 51.1652 43.319 51.2233 43.2236C53.5395 39.5767 54.9043 35.5952 55.1947 31.2928C55.5647 26.2467 54.3841 21.2081 51.811 16.8519C51.4957 16.3097 51.2703 16.2752 50.7504 16.5753C47.7082 18.3067 44.4448 18.9263 41.0293 18.055C37.6691 17.1962 34.8827 15.2891 32.4269 12.8814C32.0383 12.4983 32.124 12.1899 32.4905 11.8345C34.2729 10.103 36.242 8.64121 38.5222 7.62749C39.2261 7.31356 39.9438 7.03421 40.808 6.67602C40.0599 6.28741 39.522 5.78124 38.7338 6.20028C37.5806 6.81985 36.3927 7.38271 35.2768 8.06728C34.3973 8.60664 33.6174 9.30226 32.7712 9.90247C32.644 9.99236 32.4144 9.93704 32.2305 9.94949C32.2388 9.76315 32.2642 9.57796 32.3066 9.39631C32.337 9.30088 32.4559 9.22205 32.5499 9.15982C34.2093 8.0848 35.8687 7.013 37.528 5.94443C37.6898 5.84071 37.8557 5.74252 38.207 5.52954C33.0298 3.80083 28.0116 3.60169 22.9713 5.04412C17.0377 6.74101 12.3237 10.1583 8.71872 15.3915V15.3845ZM32.9053 12.3144C36.101 15.3057 39.475 17.5973 43.8198 17.6996C48.383 17.8061 51.8829 15.3998 55.232 12.3365C54.1258 11.4555 53.1398 10.5843 52.0668 9.84715C49.6303 8.1876 46.9905 6.99271 43.9746 7.03697C41.0998 7.07984 38.5361 8.15855 36.1964 9.75588C35.0832 10.5165 34.0599 11.4099 32.9053 12.3144ZM12.6348 55.7837H13.3013L26.6302 55.7961C30.2669 55.7961 33.9037 55.7961 37.5405 55.7961C38.6813 55.7961 39.5345 55.2886 40.0751 54.2956C40.4582 53.5917 40.3282 53.405 39.5428 53.405L19.1699 53.3884C17.559 53.3884 15.9466 53.3746 14.3301 53.4022C14.0743 53.4022 13.694 53.5211 13.5876 53.7079C13.2363 54.3385 12.9777 55.0203 12.6348 55.7837ZM46.8232 48.4194L46.7389 48.2133C46.4789 48.1884 46.2189 48.1414 45.959 48.14C44.2346 48.14 42.5103 48.14 40.7859 48.14C39.1998 48.14 37.6137 48.1469 36.0263 48.14C35.5866 48.14 35.3446 48.2576 35.357 48.7651C35.3847 49.8715 35.3778 50.9779 35.357 52.076C35.3501 52.4908 35.5147 52.6416 35.9253 52.6291C37.098 52.6098 38.2761 52.6692 39.4418 52.596C40.0976 52.569 40.7418 52.4135 41.3376 52.1382C42.4003 51.5932 43.4263 50.9792 44.4088 50.3002C45.2537 49.7291 46.0226 49.0514 46.8232 48.4194ZM6.27945 38.9475L6.43295 38.9281C6.4696 38.7381 6.49408 38.5459 6.50624 38.3528C6.50624 32.9233 6.50255 27.4938 6.49517 22.0643C6.49517 21.8139 6.30158 21.565 6.19926 21.3147C5.99322 21.5125 5.6724 21.6756 5.59635 21.9149C3.85264 27.4136 4.03379 32.8749 5.97524 38.2906C6.05545 38.5174 6.17713 38.729 6.27945 38.9475ZM37.6386 41.0399C35.357 41.0399 33.0754 41.0593 30.7965 41.0261C30.1646 41.0178 30.007 41.2653 30.0166 41.8393C30.0263 42.3924 30.0789 42.7506 30.7896 42.7465C35.328 42.7234 39.8659 42.7234 44.4033 42.7465C45.1196 42.7465 45.1472 42.3911 45.1569 41.8434C45.1666 41.2958 45.0671 41.0136 44.4102 41.0233C42.1535 41.062 39.8954 41.0399 37.6386 41.0399ZM37.5557 47.461V47.4416C39.8345 47.4416 42.1189 47.4416 44.3895 47.4333C44.6204 47.4333 45.0311 47.3476 45.0505 47.2453C45.1381 46.8222 45.1357 46.3854 45.0435 45.9633C45.0103 45.8346 44.5278 45.7641 44.2512 45.7627C39.7875 45.7503 35.3238 45.7627 30.8601 45.742C30.231 45.742 30.0111 45.9397 30.0125 46.5718C30.0139 47.2038 30.1632 47.4845 30.8615 47.4734C33.092 47.4416 35.3252 47.461 37.5557 47.461ZM45.9106 44.2484H45.9244C45.9244 45.1003 45.941 45.9522 45.9244 46.8041C45.9119 47.2508 46.0903 47.4347 46.5273 47.4278C47.2408 47.4168 47.9557 47.4472 48.6679 47.414C49.5349 47.3739 49.9705 46.9216 49.9843 46.0518C50.0036 44.8772 50.0036 43.703 49.9843 42.5294C49.9691 41.6083 49.4934 41.1201 48.5835 41.0814C47.8921 41.0537 47.2007 41.0814 46.5093 41.0689C46.0599 41.0579 45.8995 41.257 45.9092 41.6927C45.9258 42.5446 45.9106 43.3965 45.9106 44.2484ZM45.1431 44.9523C45.1278 44.6709 45.1278 44.3888 45.1431 44.1073C45.2081 43.5541 44.9633 43.3937 44.4296 43.3951C39.8673 43.4098 35.304 43.4098 30.7398 43.3951C30.0484 43.3951 30.0305 43.7574 30.0097 44.2677C29.9876 44.8306 30.1757 45.0215 30.7592 45.0187C35.3224 44.9979 39.8857 45.0076 44.4489 45.0049C44.655 45.0021 44.8555 44.973 45.1431 44.9523ZM3.56778 20.5236V20.514C4.00475 20.514 4.44172 20.525 4.8773 20.514C6.59336 20.46 6.42465 20.8638 6.41359 18.9125C6.42003 18.3665 6.25624 17.832 5.94498 17.3834C5.63372 16.9348 5.19046 16.5944 4.67679 16.4093C3.56364 16.0166 2.5528 16.2143 1.69132 17.0607C0.804943 17.9333 0.803562 19.0356 0.905889 20.1488C0.918334 20.2871 1.24191 20.4987 1.43135 20.5098C2.14211 20.5499 2.85564 20.5236 3.56778 20.5236ZM29.2367 47.1153V41.3995L24.2158 44.2401L29.2367 47.1153Z" stroke="#6651E6" stroke-width="0.4" mask="url(#path-1-outside-1)"/>
<path d="M57.5442 20.2775C57.5096 20.1576 57.402 20.0741 57.3115 20.0129C57.2772 19.9897 57.2403 19.9666 57.2052 19.9446C57.1916 19.9361 57.1783 19.9278 57.1655 19.9197C57.1179 19.8896 57.0753 19.8612 57.0397 19.8323L56.9388 19.7503L56.8854 19.8689C56.7984 20.0624 56.7264 20.2624 56.67 20.467L56.6698 20.4669L56.6683 20.4742C56.6527 20.5534 56.6777 20.6313 56.6994 20.6883C56.7094 20.7145 56.7187 20.7367 56.7273 20.7571C56.7409 20.7898 56.7526 20.8176 56.7616 20.8489L56.7616 20.8489L56.7618 20.8496C58.814 27.8085 58.43 34.6239 55.6095 41.2997C55.3765 41.8461 55.1116 42.3788 54.8404 42.9116C54.7892 43.0122 54.7377 43.1129 54.6862 43.2136C54.4656 43.6452 54.244 44.0786 54.0366 44.5186C53.9809 44.6284 53.9845 44.7545 53.9952 44.8619C53.9994 44.904 54.0045 44.943 54.0094 44.9801C54.0183 45.0481 54.0264 45.1097 54.0264 45.1725V45.3133L54.1593 45.2669C54.3765 45.1911 54.5865 45.0961 54.7868 44.983L54.7869 44.9832L54.7934 44.9789C54.869 44.9281 54.9124 44.846 54.9427 44.7791C54.9563 44.749 54.9673 44.7222 54.9776 44.6973C54.9938 44.658 55.0079 44.6236 55.027 44.589C57.6031 39.9556 58.9376 34.9944 59.1013 29.6698L59.1015 29.6623L59.1006 29.6549C59.0229 29.004 58.9496 28.3519 58.8762 27.6995C58.7134 26.2519 58.5505 24.8027 58.3396 23.3611L58.3396 23.3608C58.2101 22.4994 57.9564 21.6543 57.7059 20.8203C57.6514 20.6388 57.5971 20.458 57.5442 20.2775ZM57.5442 20.2775C57.5443 20.2776 57.5443 20.2777 57.5443 20.2778L57.4482 20.3054M57.5442 20.2775C57.5442 20.2775 57.5442 20.2774 57.5442 20.2773L57.4482 20.3054M57.4482 20.3054C57.5015 20.4874 57.5561 20.6693 57.6108 20.8514C57.8612 21.6852 58.1124 22.522 58.2407 23.3756L55.7015 41.3389C58.5311 34.6417 58.9165 27.8025 56.8577 20.8213C56.8473 20.7851 56.8319 20.748 56.8165 20.711C56.7848 20.635 56.7534 20.5596 56.7664 20.4935C56.8123 20.3271 56.8687 20.1638 56.9355 20.0047C56.9281 19.9991 56.9208 19.9934 56.9136 19.9875L56.9766 19.9099L57.0678 19.9509C57.065 19.9573 57.0621 19.9637 57.0593 19.97C57.0898 19.9905 57.1218 20.0104 57.1537 20.0304C57.2852 20.1127 57.4163 20.1948 57.4482 20.3054Z" fill="#6651E6" stroke="#6651E6" stroke-width="0.2"/>
<path d="M28.6411 -0.0945981V-0.0944806C28.77 -0.0944806 28.8998 -0.0957874 29.0301 -0.0970995C29.384 -0.100663 29.7418 -0.104266 30.0966 -0.0818352C30.1962 -0.0759121 30.2779 -0.00903303 30.335 0.0433004C30.3575 0.0639436 30.3805 0.0866221 30.402 0.107741C30.4095 0.115214 30.4169 0.122492 30.424 0.129415C30.4526 0.157272 30.4782 0.18123 30.5029 0.200366L30.5788 0.259318L30.5229 0.337507C30.4212 0.479745 30.2994 0.606472 30.1613 0.713737L30.1555 0.718248L30.1491 0.721862C30.0716 0.765566 29.9804 0.772775 29.9047 0.773314C29.8693 0.773566 29.8332 0.77226 29.8 0.771057L29.7895 0.770681C29.7524 0.769356 29.719 0.768369 29.6881 0.769295L29.6881 0.769297C21.6679 1.00643 14.7809 3.91766 9.02242 9.50496L9.02226 9.50511C8.90674 9.61671 8.70653 9.72311 8.53616 9.79268C8.44965 9.828 8.36535 9.85609 8.29705 9.87117C8.26348 9.87859 8.22931 9.88388 8.19876 9.88377C8.18354 9.88372 8.16508 9.88235 8.14633 9.87696C8.12819 9.87175 8.10127 9.86028 8.08051 9.8339M28.6411 -0.0945981L8.15906 9.77201M28.6411 -0.0945981L28.6363 -0.0943633C28.4978 -0.0876484 28.3573 -0.0829653 28.2155 -0.0782348C27.8966 -0.0676018 27.5705 -0.0567299 27.2436 -0.022009L27.2434 -0.0219855C19.9633 0.767284 13.674 3.68106 8.4334 8.81409M28.6411 -0.0945981L8.50337 8.88553M8.08051 9.8339C8.08044 9.83381 8.08037 9.83372 8.0803 9.83364L8.15906 9.77201M8.08051 9.8339C8.08057 9.83398 8.08064 9.83407 8.08071 9.83416L8.15906 9.77201M8.08051 9.8339C7.98915 9.71865 7.94255 9.60644 7.93925 9.49547C7.93595 9.38426 7.97657 9.28845 8.03267 9.20714C8.08796 9.12704 8.16167 9.05614 8.23233 8.99315C8.25826 8.97003 8.28329 8.94837 8.30744 8.92748C8.35246 8.88852 8.3944 8.85222 8.4334 8.81409M8.15906 9.77201C7.88455 9.42596 8.13531 9.20883 8.3697 9.00587C8.41633 8.9655 8.4623 8.92568 8.50337 8.88553M8.4334 8.81409L8.50337 8.88553M8.4334 8.81409C8.43342 8.81407 8.43344 8.81405 8.43346 8.81403L8.50337 8.88553" fill="#6651E6" stroke="#6651E6" stroke-width="0.2"/>
<path d="M-0.0995495 29.5542L-0.100589 29.5651L3.46985 42.9577L3.3813 43.0041C3.38131 43.0042 3.38133 43.0042 3.38135 43.0042C3.40246 43.0445 3.42103 43.0844 3.44101 43.1274C3.45637 43.1604 3.47256 43.1952 3.49138 43.2333C3.53128 43.3141 3.57881 43.4002 3.64015 43.4701C3.70251 43.5413 3.78377 43.6009 3.89063 43.6182C3.99674 43.6355 4.11192 43.6084 4.23742 43.5389L4.23756 43.5388C4.27942 43.5156 4.30079 43.4765 4.3121 43.4476C4.32412 43.4169 4.3308 43.3824 4.33458 43.3485C4.34219 43.2802 4.33985 43.197 4.33137 43.1121C4.31447 42.9429 4.27092 42.7458 4.21312 42.6112L4.21307 42.6111C4.05652 42.2478 3.87914 41.8942 3.70336 41.5438C3.69358 41.5243 3.6838 41.5048 3.67403 41.4853C3.48825 41.1148 3.30552 40.7471 3.14872 40.3692C1.36201 36.0596 0.578398 31.5883 1.03027 26.9291C1.07418 26.4762 1.14459 26.0251 1.21722 25.571C1.2222 25.5398 1.2272 25.5086 1.2322 25.4774C1.29984 25.0552 1.36794 24.6302 1.41588 24.2028C1.43132 24.081 1.37235 23.9629 1.31754 23.8698C1.29679 23.8345 1.27371 23.7983 1.25174 23.7638C1.24345 23.7508 1.23532 23.7381 1.22753 23.7257C1.19807 23.6789 1.17209 23.6356 1.15222 23.5943L1.09694 23.4795L0.998569 23.5605C0.96237 23.5903 0.922947 23.619 0.880936 23.6489C0.872604 23.6549 0.864131 23.6609 0.855563 23.6669C0.821812 23.6909 0.786599 23.7158 0.752857 23.7414C0.668606 23.8051 0.581547 23.8808 0.523559 23.98L0.523196 23.9798L0.519306 23.9881C0.426348 24.1868 0.376064 24.4027 0.371679 24.622C0.269009 25.6593 0.170882 26.6975 0.0602617 27.8679C0.0100909 28.3987 -0.0426498 28.9568 -0.0995495 29.5542Z" fill="#6651E6" stroke="#6651E6" stroke-width="0.2"/>
<path d="M32.7091 58.2841C29.8974 58.2611 27.0857 58.2611 24.274 58.2841C24.1182 58.286 23.9631 58.3749 23.8082 58.4637C23.7718 58.4846 23.7355 58.5054 23.6991 58.5251L32.7091 58.2841ZM32.7091 58.2841V58.1841C32.8569 58.1841 32.9932 58.2603 33.1092 58.3375C33.1516 58.3657 33.1947 58.3965 33.2363 58.4263C33.2525 58.4379 33.2685 58.4493 33.2841 58.4604C33.3412 58.5008 33.3956 58.5376 33.4491 58.5674L33.6117 58.6579L33.4465 58.7435C33.395 58.7703 33.3424 58.803 33.2869 58.8389C33.2733 58.8476 33.2595 58.8567 33.2454 58.8658C33.2034 58.8932 33.1598 58.9216 33.1166 58.9478C33.0026 59.0168 32.8709 59.0832 32.7295 59.0867L32.7292 59.0867C31.6577 59.1095 30.585 59.1067 29.5123 59.1038C29.155 59.1029 28.7977 59.1019 28.4404 59.1019H28.3546L28.3463 59.048C28.0231 59.0482 27.6997 59.0492 27.3761 59.0503C26.3458 59.0537 25.3138 59.0571 24.2824 59.0314C24.1342 59.0309 23.9973 58.9597 23.8804 58.8857C23.8341 58.8565 23.7876 58.8245 23.7433 58.794C23.7306 58.7853 23.7181 58.7767 23.7058 58.7683C23.6492 58.7297 23.5961 58.6947 23.5444 58.6665L23.368 58.5702L23.5512 58.4876C23.6196 58.4567 23.6834 58.42 23.7517 58.3808C23.7939 58.3565 23.8378 58.3313 23.8856 58.3058C24.0015 58.2441 24.1333 58.1858 24.2728 58.1841L24.2732 58.1841C27.0854 58.1611 29.8977 58.1611 32.7099 58.1841L32.7091 58.2841Z" fill="#6651E6" stroke="#6651E6" stroke-width="0.2"/>
<path d="M46.6657 53.7672L46.607 53.714C46.5763 53.686 46.5424 53.6613 46.5052 53.6341C46.4822 53.6173 46.458 53.5996 46.4324 53.5796C46.4028 53.5565 46.371 53.5297 46.3466 53.5007C46.325 53.4749 46.2939 53.4297 46.2978 53.3717C46.3051 53.1552 46.3849 52.9475 46.5244 52.7817L46.5291 52.7761L46.5346 52.7713C46.7431 52.5863 46.9671 52.4177 47.187 52.2521C47.1969 52.2447 47.2068 52.2372 47.2167 52.2298C47.4473 52.0562 47.6727 51.885 47.8789 51.6966C48.6105 51.0198 49.3269 50.3269 50.0441 49.6332C50.3006 49.3851 50.5572 49.1369 50.8146 48.8893L50.8151 48.8889C50.8389 48.8663 50.8579 48.8411 50.8817 48.8098C50.8926 48.7952 50.9046 48.7794 50.9186 48.7619C50.9565 48.7141 51.0102 48.6531 51.0885 48.6242L51.0927 48.6226L51.0927 48.6227C51.307 48.5541 51.5254 48.499 51.7466 48.4578L51.8918 48.4308L51.863 48.5756C51.853 48.6257 51.847 48.6814 51.8416 48.7421C51.8403 48.7569 51.839 48.7721 51.8377 48.7875C51.8338 48.8337 51.8297 48.8821 51.8241 48.9283C51.8095 49.0477 51.7819 49.1871 51.6905 49.2823L51.6903 49.2825C50.7646 50.2428 49.8242 51.1915 48.8474 52.1018M46.6657 53.7672L48.7791 52.0288M46.6657 53.7672L46.731 53.7223C46.7966 53.677 46.8579 53.6383 46.9176 53.6006C46.9309 53.5922 46.9441 53.5839 46.9573 53.5755C47.0284 53.5303 47.0979 53.4849 47.1643 53.4326M46.6657 53.7672L47.103 53.3537M48.8474 52.1018C48.8474 52.1018 48.8473 52.1019 48.8473 52.1019L48.7791 52.0288M48.8474 52.1018C48.8474 52.1018 48.8474 52.1018 48.8474 52.1018L48.7791 52.0288M48.8474 52.1018C48.4558 52.4684 48.0236 52.7901 47.5945 53.1096C47.4502 53.217 47.3062 53.3241 47.1643 53.4326M48.7791 52.0288C48.392 52.3911 47.9663 52.708 47.5383 53.0266C47.393 53.1348 47.2474 53.2432 47.103 53.3537M47.1643 53.4326C47.1645 53.4325 47.1647 53.4323 47.1649 53.4322L47.103 53.3537M47.1643 53.4326C47.1641 53.4328 47.1639 53.4329 47.1637 53.4331L47.103 53.3537M51.7379 48.7806C51.7237 48.9492 51.7094 49.1182 51.6183 49.2131L47.9466 51.7702C48.6792 51.0926 49.3968 50.3985 50.1143 49.7044C50.3706 49.4565 50.627 49.2085 50.884 48.9614C50.9139 48.9329 50.9403 48.8981 50.9665 48.8635C51.0129 48.8023 51.0587 48.7418 51.1232 48.718C51.2994 48.6615 51.4785 48.6144 51.6596 48.5769C51.6618 48.5633 51.6642 48.5499 51.6668 48.5367L51.7649 48.5562L51.7832 48.6545C51.7719 48.6566 51.7605 48.6587 51.7492 48.6609C51.7447 48.7001 51.7413 48.7403 51.7379 48.7806Z" fill="#6651E6" stroke="#6651E6" stroke-width="0.2"/>
<path d="M36.4224 1.55223C36.5612 1.57502 36.7013 1.52002 36.8196 1.4626C36.8651 1.44054 36.9115 1.4159 36.956 1.39226C36.9709 1.38434 36.9857 1.37653 37 1.36897C37.0589 1.33805 37.1141 1.3103 37.1671 1.28919L37.3128 1.23107L37.1986 1.1235C37.1611 1.08824 37.1239 1.04657 37.0844 1.00072C37.0746 0.989245 37.0645 0.977402 37.0542 0.965365C37.0246 0.930707 36.9937 0.894435 36.9628 0.860657C36.8815 0.771906 36.7799 0.67632 36.652 0.646662L36.6517 0.646607C35.9074 0.475941 35.1555 0.333356 34.3549 0.18153C34.0763 0.128678 33.7917 0.0747059 33.4994 0.0180394L33.4558 0.00959016L33.4203 0.0362382L32.9322 0.402727L32.8282 0.480772L32.9303 0.561239C32.9673 0.590385 33.0043 0.62437 33.0434 0.661569C33.0529 0.670557 33.0626 0.679813 33.0724 0.689218C33.1021 0.717666 33.1333 0.747475 33.1644 0.775337C33.2461 0.848582 33.3443 0.924507 33.4617 0.952069L33.4618 0.952107C34.442 1.18053 35.4277 1.39129 36.4224 1.55223ZM36.4224 1.55223C36.4224 1.55222 36.4223 1.55222 36.4223 1.55221L36.4385 1.45354M36.4224 1.55223C36.4225 1.55224 36.4225 1.55225 36.4226 1.55226L36.4385 1.45354M36.4385 1.45354C35.447 1.29311 34.4637 1.08291 33.4845 0.854717C33.3592 0.825294 33.2509 0.721613 33.1425 0.617883C33.1184 0.594788 33.0942 0.571691 33.0699 0.549411L33.0522 0.562672L32.9922 0.4827L33.0541 0.40416C33.061 0.409607 33.0679 0.415154 33.0747 0.42078L33.4804 0.116211C33.7736 0.173074 34.0588 0.227162 34.3379 0.280079C35.1379 0.431792 35.887 0.573872 36.6294 0.744078C36.7599 0.774343 36.8684 0.901631 36.9771 1.02907C37.0031 1.05954 37.0291 1.09002 37.0554 1.11918C37.0679 1.1137 37.0804 1.10843 37.093 1.10342L37.13 1.19631L37.0615 1.26911C37.0515 1.25976 37.0417 1.25014 37.032 1.24034C36.9908 1.26058 36.9493 1.28262 36.9078 1.30465C36.7451 1.39105 36.5827 1.47725 36.4385 1.45354Z" fill="#6651E6" stroke="#6651E6" stroke-width="0.2"/>
<path d="M20.2933 58.1941L20.2938 58.1941C20.4081 58.2037 20.5005 58.2858 20.5675 58.3533C20.5935 58.3795 20.6198 58.4082 20.6447 58.4351C20.6537 58.4449 20.6626 58.4545 20.6711 58.4637C20.7045 58.4996 20.7352 58.531 20.7651 58.5564L20.8617 58.6386L20.7592 58.7134C20.7181 58.7434 20.6816 58.7787 20.6406 58.8183C20.6179 58.8403 20.5937 58.8636 20.5667 58.8881C20.5029 58.9458 20.4126 59.0194 20.3041 59.0216L20.2933 58.1941ZM20.2933 58.1941C19.9062 58.1635 19.515 58.1686 19.1285 58.1735M20.2933 58.1941L19.1285 58.1735M16.5077 58.6208L16.6073 58.5428C16.6395 58.5176 16.6725 58.4868 16.7084 58.4521C16.7166 58.4441 16.725 58.4358 16.7336 58.4274C16.7612 58.4005 16.7904 58.372 16.8193 58.3458C16.892 58.2801 16.9879 58.2047 17.1021 58.1955L16.5077 58.6208ZM16.5077 58.6208L16.6066 58.6997M16.5077 58.6208L16.6066 58.6997M16.6066 58.6997C16.6338 58.7214 16.6621 58.7492 16.6937 58.7818C16.7018 58.7901 16.7102 58.7989 16.7188 58.8079C16.7423 58.8324 16.7674 58.8586 16.7921 58.8825C16.8551 58.9432 16.9468 59.0216 17.0603 59.0216V58.9216L16.6066 58.6997ZM19.1285 58.1735C18.985 58.1753 18.8422 58.1772 18.7005 58.1772M19.1285 58.1735L18.7005 58.1772M18.7005 58.1772C18.5615 58.1772 18.4212 58.1754 18.2801 58.1736M18.7005 58.1772L18.2801 58.1736M18.2801 58.1736C17.8912 58.1687 17.4957 58.1637 17.1021 58.1955L18.2801 58.1736Z" fill="#6651E6" stroke="#6651E6" stroke-width="0.2"/>
<path d="M12.6886 25.5279L12.6879 25.4279C16.2118 25.4031 19.7352 25.4031 23.2581 25.4279L23.2574 25.5279M12.6886 25.5279L12.6732 26.3374C12.6734 26.3374 12.6737 26.3374 12.6739 26.3374C14.0382 26.3598 15.4028 26.3575 16.7669 26.3553C17.0957 26.3548 17.4244 26.3543 17.7531 26.3541L17.7476 26.3595H17.9889C18.4082 26.3595 18.8275 26.3604 19.2467 26.3613C20.5805 26.364 21.9135 26.3668 23.2453 26.3415M12.6886 25.5279C16.212 25.5031 19.7349 25.5031 23.2574 25.5279M12.6886 25.5279H23.2574M23.2574 25.5279V25.4279C23.4066 25.4279 23.5471 25.4952 23.6696 25.566C23.7153 25.5924 23.7615 25.6213 23.806 25.649C23.8218 25.6589 23.8374 25.6686 23.8526 25.678C23.9123 25.7148 23.969 25.7484 24.0245 25.7755L24.2003 25.8615L24.0277 25.9536C23.9708 25.984 23.9129 26.0213 23.8521 26.0621C23.8364 26.0726 23.8205 26.0833 23.8043 26.0943C23.7591 26.1249 23.7122 26.1567 23.6658 26.1858C23.5416 26.264 23.3987 26.3389 23.2453 26.3415M23.2453 26.3415C23.2454 26.3415 23.2454 26.3415 23.2454 26.3415L23.2436 26.2416L23.2452 26.3415C23.2453 26.3415 23.2453 26.3415 23.2453 26.3415Z" fill="#6651E6" stroke="#6651E6" stroke-width="0.2"/>
<path d="M30.862 30.8222L30.862 30.8222L30.8608 30.8216C30.7725 30.7793 30.6741 30.7737 30.5881 30.7755C30.5485 30.7764 30.5083 30.7789 30.4708 30.7813C30.4668 30.7816 30.4629 30.7818 30.459 30.7821C30.4171 30.7847 30.3785 30.7869 30.3419 30.7869H25.2256H24.6766C24.3029 30.7869 23.9293 30.7861 23.5557 30.7853C22.3603 30.7828 21.1657 30.7803 19.9731 30.8035L19.9731 30.8035L19.9727 30.8035C19.8275 30.807 19.6924 30.8779 19.5757 30.951C19.5322 30.9783 19.4881 31.0081 19.4457 31.0367C19.4305 31.0469 19.4156 31.057 19.4009 31.0668C19.3439 31.1048 19.2898 31.1396 19.2367 31.1679L19.0658 31.259L19.239 31.3456C19.301 31.3766 19.3631 31.4079 19.4254 31.4393C19.6006 31.5276 19.777 31.6165 19.9544 31.7006L19.9654 31.7058L19.9774 31.7082C20.0326 31.7194 20.0894 31.7201 20.1449 31.7102H30.2833C30.4777 31.7284 30.6739 31.7149 30.864 31.6702L30.8641 31.6707L30.8737 31.6674C30.9576 31.6386 31.0512 31.5697 31.1188 31.5044C31.1534 31.4709 31.1859 31.4338 31.209 31.3974C31.2206 31.3793 31.2317 31.3583 31.2389 31.3356C31.2457 31.314 31.2519 31.2812 31.2408 31.2457L31.2409 31.2457L31.2391 31.2407C31.1713 31.0582 31.0364 30.9085 30.862 30.8222Z" fill="#6651E6" stroke="#6651E6" stroke-width="0.2"/>
<path d="M31.3888 20.5798L31.2126 20.672C31.1578 20.7007 31.1018 20.7361 31.0427 20.7749C31.0281 20.7844 31.0133 20.7943 30.9982 20.8043C30.9537 20.8338 30.9074 20.8644 30.8616 20.8925C30.7408 20.9667 30.6011 21.038 30.452 21.0388C27.2738 21.0637 24.0961 21.0637 20.9189 21.0388L20.9197 20.9389V21.0389C20.7788 21.0389 20.6491 20.9645 20.5406 20.8907C20.5002 20.8632 20.4592 20.8332 20.4199 20.8045C20.4053 20.7938 20.3909 20.7832 20.3768 20.773C20.3235 20.7345 20.2733 20.6996 20.2244 20.6717L20.0691 20.5831L20.2258 20.4971C20.2746 20.4704 20.3245 20.4372 20.3773 20.4007C20.3911 20.3912 20.4052 20.3813 20.4194 20.3713C20.4586 20.3439 20.4995 20.3154 20.5397 20.2892C20.6478 20.2189 20.7755 20.1492 20.9141 20.1474M31.3888 20.5798L20.9143 20.1474C20.9142 20.1474 20.9141 20.1474 20.9141 20.1474M31.3888 20.5798L31.2097 20.4934C31.1367 20.4581 31.0686 20.4157 30.9958 20.3704C30.9518 20.343 30.9061 20.3145 30.8565 20.2859C30.735 20.2157 30.5956 20.1491 30.4468 20.1488M31.3888 20.5798L30.4468 20.1488M20.9141 20.1474C22.1298 20.1275 23.349 20.1298 24.5685 20.1321C24.9604 20.1328 25.3524 20.1335 25.7443 20.1335C26.135 20.1335 26.5258 20.1326 26.9169 20.1316C28.0913 20.1288 29.2677 20.1259 30.4468 20.1488M20.9141 20.1474L30.4468 20.1488" fill="#6651E6" stroke="#6651E6" stroke-width="0.2"/>
<path d="M21.8301 36.1787C18.7492 36.1556 15.6674 36.1556 12.5847 36.1787C12.4471 36.1806 12.3043 36.3 12.1616 36.4192C12.1273 36.4479 12.093 36.4766 12.0588 36.5036L21.7893 37.0005C21.9258 36.9978 22.0495 36.9203 22.1512 36.8453C22.1902 36.8165 22.2297 36.7851 22.2675 36.755C22.2802 36.7449 22.2927 36.7349 22.3049 36.7253C22.3549 36.6859 22.4018 36.6503 22.4476 36.6215L22.5786 36.5389L22.4495 36.4535C22.4075 36.4257 22.3642 36.3909 22.3177 36.3518C22.3057 36.3417 22.2934 36.3312 22.2808 36.3205C22.2463 36.2913 22.2102 36.2606 22.1746 36.2325C22.081 36.1587 21.9626 36.0787 21.8301 36.0787V36.1787ZM21.8301 36.1787L21.8308 36.0787C18.7494 36.0556 15.6671 36.0556 12.5839 36.0787L12.5833 36.0787C12.447 36.0806 12.3209 36.1644 12.2185 36.2438C12.1776 36.2755 12.1362 36.3101 12.0965 36.3433C12.0845 36.3533 12.0727 36.3632 12.0611 36.3728C12.0098 36.4154 11.9615 36.4542 11.9147 36.4858L11.7778 36.5783M21.8301 36.1787L11.7778 36.5783M11.7778 36.5783L11.9233 36.6567L11.7778 36.5783ZM17.0645 37.0172V37.0103C16.7378 37.0104 16.4111 37.011 16.0843 37.0116C14.9241 37.0139 13.7641 37.0161 12.61 36.995C12.6097 36.995 12.6094 36.995 12.6091 36.995L17.0645 37.0172ZM17.0645 37.0172H17.1645M17.0645 37.0172H17.1645M17.1645 37.0172C17.5405 37.0172 17.9167 37.0181 18.2932 37.019M17.1645 37.0172L18.2932 37.019M18.2932 37.019C19.4577 37.0218 20.6241 37.0246 21.7892 37.0005L18.2932 37.019Z" fill="#6651E6" stroke="#6651E6" stroke-width="0.2"/>
<path d="M14.2813 20.1243H14.4512C14.614 20.1243 14.7783 20.122 14.9436 20.1196C15.3765 20.1135 15.8156 20.1072 16.2489 20.1426C16.3779 20.1529 16.4899 20.2318 16.5805 20.3065C16.6151 20.3349 16.65 20.3657 16.6833 20.3952C16.6949 20.4055 16.7063 20.4156 16.7174 20.4253C16.7618 20.4643 16.8036 20.4995 16.8446 20.5284L16.9616 20.6108L16.844 20.6923C16.8059 20.7187 16.7666 20.7516 16.7242 20.7884C16.7137 20.7975 16.7029 20.8069 16.692 20.8165C16.6601 20.8445 16.6265 20.8739 16.5934 20.9008C16.5082 20.9702 16.3987 21.0473 16.275 21.0503L16.2745 21.0503C15.0112 21.0752 13.7473 21.0702 12.4831 21.0351C12.4827 21.0351 12.4822 21.0351 12.4818 21.0351L12.4846 20.9351C12.3721 20.9351 12.2628 20.8253 12.1537 20.7155C12.129 20.6907 12.1044 20.666 12.0797 20.6425L14.2813 20.1243ZM14.2813 20.1243L14.2879 20.1362M14.2813 20.1243L14.2879 20.1362M14.2879 20.1362C14.1664 20.1355 14.0446 20.1342 13.9228 20.1329C13.4539 20.1279 12.9833 20.1229 12.5158 20.1521L14.2879 20.1362Z" fill="#6651E6" stroke="#6651E6" stroke-width="0.2"/>
<path d="M26.5437 36.6122L26.6394 36.5244C26.6725 36.494 26.7067 36.456 26.7437 36.413C26.7531 36.4021 26.7628 36.3908 26.7726 36.3793C26.8002 36.3469 26.8293 36.3128 26.858 36.2816C26.897 36.2391 26.9403 36.1964 26.987 36.1636C27.0334 36.131 27.0906 36.103 27.1565 36.1012M26.5437 36.6122L30.6763 36.1012C30.6759 36.1012 30.6754 36.1011 30.675 36.1011C29.5008 36.067 28.3279 36.067 27.1565 36.1012M26.5437 36.6122L26.6531 36.6823C26.6879 36.7045 26.7237 36.732 26.7624 36.7628C26.7718 36.7703 26.7814 36.7781 26.7912 36.786C26.8206 36.8096 26.8517 36.8346 26.8824 36.8576C26.9624 36.9173 27.0627 36.9816 27.1769 36.9883L27.1828 36.8885L26.5437 36.6122ZM27.1565 36.1012C27.1565 36.1012 27.1565 36.1012 27.1566 36.1012L27.1593 36.2011L27.1563 36.1012C27.1564 36.1012 27.1564 36.1012 27.1565 36.1012Z" fill="#6651E6" stroke="#6651E6" stroke-width="0.2"/>
<path d="M27.7898 25.4403C27.6663 25.4444 27.5596 25.5274 27.4788 25.5994C27.4468 25.6279 27.4145 25.659 27.3838 25.6886C27.3737 25.6983 27.3637 25.7079 27.354 25.7172C27.3136 25.7557 27.2762 25.79 27.2401 25.8175L27.1329 25.8993L27.2423 25.9781C27.2787 26.0044 27.3158 26.0361 27.3556 26.0715C27.365 26.0799 27.3747 26.0886 27.3846 26.0974C27.4149 26.1246 27.4469 26.1533 27.4786 26.1797C27.5604 26.2478 27.6628 26.3212 27.7822 26.3326L27.7822 26.3326C28.13 26.3658 28.4843 26.3594 28.8318 26.3532C28.9686 26.3507 29.1044 26.3483 29.2383 26.3483L29.2386 26.3483C29.3796 26.3479 29.523 26.3507 29.6677 26.3535C30.0076 26.3602 30.3547 26.367 30.6955 26.3327C30.8094 26.3229 30.9087 26.2572 30.9884 26.1958C31.0189 26.1724 31.0497 26.1469 31.079 26.1227C31.089 26.1144 31.0989 26.1063 31.1085 26.0985C31.1472 26.0667 31.1833 26.0383 31.2185 26.015L31.3301 25.9413L31.2279 25.8551C31.1932 25.8259 31.1573 25.7889 31.1185 25.747C31.1084 25.736 31.0979 25.7245 31.0871 25.7128C31.0586 25.6816 31.0285 25.6487 30.999 25.6188C30.958 25.5773 30.9127 25.5357 30.8638 25.5042C30.8154 25.4731 30.7572 25.4477 30.6913 25.4471C29.7295 25.4084 28.7596 25.407 27.7898 25.4403ZM27.7898 25.4403C27.7897 25.4403 27.7897 25.4403 27.7897 25.4403L27.7931 25.5402L27.7898 25.4403C27.7898 25.4403 27.7898 25.4403 27.7898 25.4403Z" fill="#6651E6" stroke="#6651E6" stroke-width="0.2"/>
<path d="M13.8412 31.7104L13.8413 31.711C14.2794 31.7317 14.7183 31.7266 15.1558 31.6956L15.1558 31.6957L15.1602 31.6952C15.2872 31.6806 15.4009 31.6153 15.4986 31.5493C15.5357 31.5242 15.5731 31.4972 15.6089 31.4713C15.6206 31.4628 15.6322 31.4544 15.6435 31.4463C15.6905 31.4125 15.7351 31.3816 15.779 31.3556L15.9121 31.2771L15.786 31.1879C15.7458 31.1594 15.7045 31.1243 15.6603 31.0851C15.6493 31.0754 15.6381 31.0653 15.6266 31.0551C15.5933 31.0254 15.5584 30.9941 15.5238 30.9654C15.4342 30.891 15.321 30.8103 15.192 30.8045L15.1917 30.8045C14.298 30.767 13.4005 30.7712 12.5077 30.8045L12.5075 30.8045C12.3846 30.8093 12.2763 30.8811 12.1902 30.9479C12.157 30.9736 12.1235 31.0017 12.0916 31.0283C12.0808 31.0373 12.0702 31.0462 12.0599 31.0547C12.0177 31.0896 11.9786 31.1208 11.9404 31.146L11.8162 31.2282L11.9393 31.312C11.9955 31.3503 12.046 31.3932 12.1005 31.4393C12.1338 31.4676 12.1686 31.4971 12.207 31.5275C12.2991 31.6004 12.4091 31.6752 12.5354 31.6922L12.5354 31.6924L12.5411 31.6928C12.9737 31.726 13.4079 31.7319 13.8412 31.7104ZM12.5114 30.9044C13.4021 30.8712 14.2969 30.8671 15.1875 30.9044H12.5114Z" fill="#6651E6" stroke="#6651E6" stroke-width="0.2"/>
<path d="M40.1549 12.3925L40.1549 12.3923C40.1464 10.19 41.8514 8.49155 44.065 8.49155C46.2268 8.49155 47.9962 10.2213 47.9806 12.3263C47.9806 12.3263 47.9806 12.3263 47.9806 12.3263L47.8806 12.3256C47.8654 14.5051 46.2058 16.1591 44.0166 16.1785L40.1549 12.3925ZM40.1549 12.3925C40.1677 14.5478 41.9035 16.3012 44.0175 16.2785L40.1549 12.3925ZM41.0817 12.4795H41.0854L41.0851 12.3792C41.0826 11.5922 41.3909 10.8361 41.9429 10.2753C42.495 9.71448 43.2461 9.39432 44.0329 9.38441C44.6235 9.37862 45.2025 9.54828 45.6965 9.87189C46.1906 10.1955 46.5775 10.6586 46.8081 11.2023C47.0387 11.7461 47.1027 12.3461 46.9919 12.9262C46.8811 13.5064 46.6006 14.0406 46.1859 14.4612C45.7712 14.8817 45.2409 15.1697 44.6624 15.2885C44.0838 15.4074 43.483 15.3518 42.936 15.1288C42.3891 14.9057 41.9207 14.5254 41.5902 14.0359C41.2785 13.5741 41.1027 13.0349 41.0817 12.4795Z" fill="#6651E6" stroke="#6651E6" stroke-width="0.2"/>
<path d="M42.7761 12.3572C42.7725 12.7429 42.8954 13.069 43.1264 13.2988C43.3573 13.5286 43.6865 13.6525 44.0777 13.6526C44.4574 13.6533 44.7765 13.5387 45.001 13.3195C45.2257 13.1002 45.345 12.7867 45.3451 12.4107M42.7761 12.3572C42.7761 12.3571 42.7761 12.3569 42.7761 12.3568L42.8761 12.3577H42.7761C42.7761 12.3575 42.7761 12.3574 42.7761 12.3572ZM42.7761 12.3572C42.7763 11.6386 43.4009 11.0031 44.0918 11.0228C44.7823 11.0424 45.3508 11.6652 45.3451 12.4107M45.3451 12.4107C45.3451 12.4108 45.3451 12.4109 45.3451 12.411L45.2451 12.4103H45.3451C45.3451 12.4104 45.3451 12.4105 45.3451 12.4107Z" fill="#6651E6" stroke="#6651E6" stroke-width="0.2"/>
</g>
<defs>
<clipPath id="clip0">
<rect width="59" height="59" fill="white"/>
</clipPath>
</defs>
</svg>
