<svg width="61" height="61" viewBox="0 0 61 61" fill="none" xmlns="http://www.w3.org/2000/svg">
<mask id="path-1-outside-1" maskUnits="userSpaceOnUse" x="1.25391" y="1.81958" width="59" height="59" fill="black">
<rect fill="white" x="1.25391" y="1.81958" width="59" height="59"/>
<path d="M59.9699 29.0644C59.9699 34.4478 59.9141 39.8285 59.995 45.2148C60.0326 47.6611 58.3317 49.0451 56.2752 48.8941C55.3286 48.8242 54.262 48.6285 53.452 48.971C52.6754 49.2981 52.1651 50.2529 51.5308 50.9281C46.8922 55.8517 41.2136 58.8237 34.5396 59.7351C28.5069 60.5613 22.7516 59.4849 17.3518 56.5982C16.8856 56.3512 16.3689 56.2153 15.8419 56.2011C12.5655 56.1639 9.28912 56.1597 6.01274 56.1886C5.33515 56.1886 5.12184 55.9579 5.12463 55.2995C5.14601 51.7813 5.14601 48.2623 5.12463 44.7423C5.12347 44.2105 5.01487 43.6846 4.80536 43.1961C2.90821 39.0222 2.04716 34.4498 2.29579 29.8696C2.67448 22.9246 5.56289 16.3557 10.421 11.3909C15.2791 6.42614 21.7743 3.40544 28.6923 2.89357C33.9401 2.53011 38.923 3.50167 43.5936 5.89774C45.1969 6.71973 46.6455 7.84507 48.1944 8.78867C48.5921 9.04267 49.0471 9.19219 49.5175 9.22343C51.8166 9.26677 54.1184 9.24021 56.4189 9.2444C58.7193 9.2486 59.9699 10.5277 59.9699 12.8483C59.9634 18.2536 59.9634 23.659 59.9699 29.0644ZM40.6323 16.9023V16.9233C34.7311 16.9233 28.8289 16.9233 22.9258 16.9233C22.0182 16.9233 22.0057 16.9442 22.0057 17.8571C22.0057 25.1264 22.0057 32.3957 21.9862 39.6649C21.9862 40.0843 22.3166 40.8574 21.639 40.8714C20.9098 40.8867 21.2779 40.1011 21.2751 39.6999C21.2417 35.808 21.2528 31.9162 21.257 28.0243C21.257 27.6147 21.3002 27.2163 20.6909 27.2191C17.9485 27.2373 15.2061 27.2079 12.4651 27.2624C11.2954 27.2848 10.5049 28.1655 10.5216 29.2265C10.5397 30.3113 11.393 31.1123 12.592 31.1445C13.3351 31.1641 14.0796 31.1445 14.8227 31.1543C16.3438 31.1767 17.4954 32.2615 17.5261 33.6888C17.5582 35.1524 16.3577 36.3742 14.8255 36.4091C13.8496 36.4301 12.8736 36.4091 11.8977 36.4091C10.2776 36.4189 9.30446 37.3989 9.28912 39.0331C9.28912 39.4063 9.28912 39.7782 9.29888 40.1514C9.30725 41.0783 9.30586 41.0922 10.2246 41.095C14.6164 41.1016 19.0077 41.1043 23.3985 41.1034C30.1381 41.1034 36.8767 41.1002 43.6145 41.0936C44.2446 41.0936 44.4803 41.2823 44.4677 41.9324C44.4329 43.7273 44.4775 45.5223 44.444 47.3158C44.4329 47.924 44.6113 48.1169 45.2318 48.1113C48.9041 48.0847 52.575 48.1001 56.246 48.0973C58.4042 48.0973 59.2463 47.2585 59.2491 45.0987C59.2602 36.0587 59.2672 27.0187 59.27 17.9787C59.27 16.8995 59.27 16.8967 58.1993 16.8953L40.6323 16.9023ZM4.92247 41.3928C5.32958 41.2865 5.65583 41.1468 5.99183 41.1244C6.64014 41.0811 7.29262 41.0922 7.94372 41.1048C8.38986 41.1132 8.5711 40.9217 8.55577 40.4757C8.53904 39.9417 8.5488 39.4049 8.56692 38.8695C8.63245 36.9921 9.96113 35.6934 11.8294 35.671C12.7816 35.6598 13.7352 35.671 14.6875 35.657C15.9242 35.6431 16.7565 34.877 16.7551 33.7684C16.7537 32.6599 15.8963 31.8561 14.707 31.8337C13.8942 31.8183 13.08 31.8519 12.2671 31.8169C11.5853 31.7954 10.9398 31.5037 10.472 31.0059C10.0043 30.508 9.75237 29.8445 9.77152 29.1608C9.78546 27.6343 10.9287 26.5257 12.5864 26.5131C15.142 26.4936 17.6976 26.5131 20.2546 26.5229C21.264 26.5229 21.2667 26.5229 21.2667 25.5346C21.2667 21.3184 21.2667 17.1017 21.2667 12.8846C21.2667 10.4452 22.4825 9.25 24.9251 9.25C32.0821 9.25 39.239 9.25 46.3959 9.25H47.3189C41.0449 3.8232 27.4821 0.254262 15.5031 8.16519C3.58124 16.0314 0.474952 30.686 4.92247 41.3928ZM24.9028 41.8513C18.8157 41.8513 12.7277 41.8476 6.63874 41.8401C6.08105 41.8401 5.85937 41.9967 5.86216 42.5838C5.88586 46.4981 5.87889 50.4123 5.89005 54.3265C5.89005 55.4449 5.90539 55.4644 7.04585 55.4658C10.4617 55.4658 13.8775 55.4505 17.2919 55.4519C25.8188 55.4519 34.3453 55.463 42.8714 55.4854C43.5754 55.4854 43.7915 55.2589 43.7874 54.5614C43.7609 50.6471 43.7762 46.7329 43.7734 42.8187C43.7734 41.8471 43.7734 41.8471 42.8142 41.8471L24.9028 41.8513ZM40.6016 16.167V16.1404C42.4364 16.1404 44.2707 16.1404 46.1045 16.1404C50.262 16.146 54.4196 16.1544 58.5771 16.1656C59.0177 16.1656 59.2031 15.9825 59.1933 15.5337C59.1696 14.4154 59.1933 13.297 59.1515 12.1787C59.1335 11.7084 58.9638 11.2568 58.6679 10.8915C58.372 10.5262 57.9658 10.2671 57.5105 10.1531C57.1269 10.0626 56.7334 10.0208 56.3394 10.0286C47.8347 10.0221 39.3301 10.0221 30.8254 10.0286C28.7341 10.0286 26.6428 10.0133 24.5515 10.0356C23.082 10.051 22.0935 10.9443 22.0419 12.3045C22.0015 13.3515 22.0419 14.4014 22.028 15.4498C22.028 15.9196 22.2106 16.1125 22.6916 16.1111C23.7136 16.1111 24.7355 16.1656 25.7589 16.167C30.7064 16.1717 35.654 16.1717 40.6016 16.167ZM42.9954 56.2375H18.6205C22.6428 60.0133 38.2203 60.0413 42.9954 56.2375ZM44.4566 55.5916C47.5531 53.7981 50.0613 51.6648 52.1135 48.9766C49.6653 48.8829 47.2756 48.8718 44.8874 48.9109C44.7479 48.9109 44.4942 49.3163 44.49 49.5386C44.451 51.1448 44.4607 52.7538 44.4566 54.3601V55.5916Z"/>
</mask>
<path d="M59.9699 29.0644C59.9699 34.4478 59.9141 39.8285 59.995 45.2148C60.0326 47.6611 58.3317 49.0451 56.2752 48.8941C55.3286 48.8242 54.262 48.6285 53.452 48.971C52.6754 49.2981 52.1651 50.2529 51.5308 50.9281C46.8922 55.8517 41.2136 58.8237 34.5396 59.7351C28.5069 60.5613 22.7516 59.4849 17.3518 56.5982C16.8856 56.3512 16.3689 56.2153 15.8419 56.2011C12.5655 56.1639 9.28912 56.1597 6.01274 56.1886C5.33515 56.1886 5.12184 55.9579 5.12463 55.2995C5.14601 51.7813 5.14601 48.2623 5.12463 44.7423C5.12347 44.2105 5.01487 43.6846 4.80536 43.1961C2.90821 39.0222 2.04716 34.4498 2.29579 29.8696C2.67448 22.9246 5.56289 16.3557 10.421 11.3909C15.2791 6.42614 21.7743 3.40544 28.6923 2.89357C33.9401 2.53011 38.923 3.50167 43.5936 5.89774C45.1969 6.71973 46.6455 7.84507 48.1944 8.78867C48.5921 9.04267 49.0471 9.19219 49.5175 9.22343C51.8166 9.26677 54.1184 9.24021 56.4189 9.2444C58.7193 9.2486 59.9699 10.5277 59.9699 12.8483C59.9634 18.2536 59.9634 23.659 59.9699 29.0644ZM40.6323 16.9023V16.9233C34.7311 16.9233 28.8289 16.9233 22.9258 16.9233C22.0182 16.9233 22.0057 16.9442 22.0057 17.8571C22.0057 25.1264 22.0057 32.3957 21.9862 39.6649C21.9862 40.0843 22.3166 40.8574 21.639 40.8714C20.9098 40.8867 21.2779 40.1011 21.2751 39.6999C21.2417 35.808 21.2528 31.9162 21.257 28.0243C21.257 27.6147 21.3002 27.2163 20.6909 27.2191C17.9485 27.2373 15.2061 27.2079 12.4651 27.2624C11.2954 27.2848 10.5049 28.1655 10.5216 29.2265C10.5397 30.3113 11.393 31.1123 12.592 31.1445C13.3351 31.1641 14.0796 31.1445 14.8227 31.1543C16.3438 31.1767 17.4954 32.2615 17.5261 33.6888C17.5582 35.1524 16.3577 36.3742 14.8255 36.4091C13.8496 36.4301 12.8736 36.4091 11.8977 36.4091C10.2776 36.4189 9.30446 37.3989 9.28912 39.0331C9.28912 39.4063 9.28912 39.7782 9.29888 40.1514C9.30725 41.0783 9.30586 41.0922 10.2246 41.095C14.6164 41.1016 19.0077 41.1043 23.3985 41.1034C30.1381 41.1034 36.8767 41.1002 43.6145 41.0936C44.2446 41.0936 44.4803 41.2823 44.4677 41.9324C44.4329 43.7273 44.4775 45.5223 44.444 47.3158C44.4329 47.924 44.6113 48.1169 45.2318 48.1113C48.9041 48.0847 52.575 48.1001 56.246 48.0973C58.4042 48.0973 59.2463 47.2585 59.2491 45.0987C59.2602 36.0587 59.2672 27.0187 59.27 17.9787C59.27 16.8995 59.27 16.8967 58.1993 16.8953L40.6323 16.9023ZM4.92247 41.3928C5.32958 41.2865 5.65583 41.1468 5.99183 41.1244C6.64014 41.0811 7.29262 41.0922 7.94372 41.1048C8.38986 41.1132 8.5711 40.9217 8.55577 40.4757C8.53904 39.9417 8.5488 39.4049 8.56692 38.8695C8.63245 36.9921 9.96113 35.6934 11.8294 35.671C12.7816 35.6598 13.7352 35.671 14.6875 35.657C15.9242 35.6431 16.7565 34.877 16.7551 33.7684C16.7537 32.6599 15.8963 31.8561 14.707 31.8337C13.8942 31.8183 13.08 31.8519 12.2671 31.8169C11.5853 31.7954 10.9398 31.5037 10.472 31.0059C10.0043 30.508 9.75237 29.8445 9.77152 29.1608C9.78546 27.6343 10.9287 26.5257 12.5864 26.5131C15.142 26.4936 17.6976 26.5131 20.2546 26.5229C21.264 26.5229 21.2667 26.5229 21.2667 25.5346C21.2667 21.3184 21.2667 17.1017 21.2667 12.8846C21.2667 10.4452 22.4825 9.25 24.9251 9.25C32.0821 9.25 39.239 9.25 46.3959 9.25H47.3189C41.0449 3.8232 27.4821 0.254262 15.5031 8.16519C3.58124 16.0314 0.474952 30.686 4.92247 41.3928ZM24.9028 41.8513C18.8157 41.8513 12.7277 41.8476 6.63874 41.8401C6.08105 41.8401 5.85937 41.9967 5.86216 42.5838C5.88586 46.4981 5.87889 50.4123 5.89005 54.3265C5.89005 55.4449 5.90539 55.4644 7.04585 55.4658C10.4617 55.4658 13.8775 55.4505 17.2919 55.4519C25.8188 55.4519 34.3453 55.463 42.8714 55.4854C43.5754 55.4854 43.7915 55.2589 43.7874 54.5614C43.7609 50.6471 43.7762 46.7329 43.7734 42.8187C43.7734 41.8471 43.7734 41.8471 42.8142 41.8471L24.9028 41.8513ZM40.6016 16.167V16.1404C42.4364 16.1404 44.2707 16.1404 46.1045 16.1404C50.262 16.146 54.4196 16.1544 58.5771 16.1656C59.0177 16.1656 59.2031 15.9825 59.1933 15.5337C59.1696 14.4154 59.1933 13.297 59.1515 12.1787C59.1335 11.7084 58.9638 11.2568 58.6679 10.8915C58.372 10.5262 57.9658 10.2671 57.5105 10.1531C57.1269 10.0626 56.7334 10.0208 56.3394 10.0286C47.8347 10.0221 39.3301 10.0221 30.8254 10.0286C28.7341 10.0286 26.6428 10.0133 24.5515 10.0356C23.082 10.051 22.0935 10.9443 22.0419 12.3045C22.0015 13.3515 22.0419 14.4014 22.028 15.4498C22.028 15.9196 22.2106 16.1125 22.6916 16.1111C23.7136 16.1111 24.7355 16.1656 25.7589 16.167C30.7064 16.1717 35.654 16.1717 40.6016 16.167ZM42.9954 56.2375H18.6205C22.6428 60.0133 38.2203 60.0413 42.9954 56.2375ZM44.4566 55.5916C47.5531 53.7981 50.0613 51.6648 52.1135 48.9766C49.6653 48.8829 47.2756 48.8718 44.8874 48.9109C44.7479 48.9109 44.4942 49.3163 44.49 49.5386C44.451 51.1448 44.4607 52.7538 44.4566 54.3601V55.5916Z" fill="#E63E98"/>
<path d="M59.9699 29.0644C59.9699 34.4478 59.9141 39.8285 59.995 45.2148C60.0326 47.6611 58.3317 49.0451 56.2752 48.8941C55.3286 48.8242 54.262 48.6285 53.452 48.971C52.6754 49.2981 52.1651 50.2529 51.5308 50.9281C46.8922 55.8517 41.2136 58.8237 34.5396 59.7351C28.5069 60.5613 22.7516 59.4849 17.3518 56.5982C16.8856 56.3512 16.3689 56.2153 15.8419 56.2011C12.5655 56.1639 9.28912 56.1597 6.01274 56.1886C5.33515 56.1886 5.12184 55.9579 5.12463 55.2995C5.14601 51.7813 5.14601 48.2623 5.12463 44.7423C5.12347 44.2105 5.01487 43.6846 4.80536 43.1961C2.90821 39.0222 2.04716 34.4498 2.29579 29.8696C2.67448 22.9246 5.56289 16.3557 10.421 11.3909C15.2791 6.42614 21.7743 3.40544 28.6923 2.89357C33.9401 2.53011 38.923 3.50167 43.5936 5.89774C45.1969 6.71973 46.6455 7.84507 48.1944 8.78867C48.5921 9.04267 49.0471 9.19219 49.5175 9.22343C51.8166 9.26677 54.1184 9.24021 56.4189 9.2444C58.7193 9.2486 59.9699 10.5277 59.9699 12.8483C59.9634 18.2536 59.9634 23.659 59.9699 29.0644ZM40.6323 16.9023V16.9233C34.7311 16.9233 28.8289 16.9233 22.9258 16.9233C22.0182 16.9233 22.0057 16.9442 22.0057 17.8571C22.0057 25.1264 22.0057 32.3957 21.9862 39.6649C21.9862 40.0843 22.3166 40.8574 21.639 40.8714C20.9098 40.8867 21.2779 40.1011 21.2751 39.6999C21.2417 35.808 21.2528 31.9162 21.257 28.0243C21.257 27.6147 21.3002 27.2163 20.6909 27.2191C17.9485 27.2373 15.2061 27.2079 12.4651 27.2624C11.2954 27.2848 10.5049 28.1655 10.5216 29.2265C10.5397 30.3113 11.393 31.1123 12.592 31.1445C13.3351 31.1641 14.0796 31.1445 14.8227 31.1543C16.3438 31.1767 17.4954 32.2615 17.5261 33.6888C17.5582 35.1524 16.3577 36.3742 14.8255 36.4091C13.8496 36.4301 12.8736 36.4091 11.8977 36.4091C10.2776 36.4189 9.30446 37.3989 9.28912 39.0331C9.28912 39.4063 9.28912 39.7782 9.29888 40.1514C9.30725 41.0783 9.30586 41.0922 10.2246 41.095C14.6164 41.1016 19.0077 41.1043 23.3985 41.1034C30.1381 41.1034 36.8767 41.1002 43.6145 41.0936C44.2446 41.0936 44.4803 41.2823 44.4677 41.9324C44.4329 43.7273 44.4775 45.5223 44.444 47.3158C44.4329 47.924 44.6113 48.1169 45.2318 48.1113C48.9041 48.0847 52.575 48.1001 56.246 48.0973C58.4042 48.0973 59.2463 47.2585 59.2491 45.0987C59.2602 36.0587 59.2672 27.0187 59.27 17.9787C59.27 16.8995 59.27 16.8967 58.1993 16.8953L40.6323 16.9023ZM4.92247 41.3928C5.32958 41.2865 5.65583 41.1468 5.99183 41.1244C6.64014 41.0811 7.29262 41.0922 7.94372 41.1048C8.38986 41.1132 8.5711 40.9217 8.55577 40.4757C8.53904 39.9417 8.5488 39.4049 8.56692 38.8695C8.63245 36.9921 9.96113 35.6934 11.8294 35.671C12.7816 35.6598 13.7352 35.671 14.6875 35.657C15.9242 35.6431 16.7565 34.877 16.7551 33.7684C16.7537 32.6599 15.8963 31.8561 14.707 31.8337C13.8942 31.8183 13.08 31.8519 12.2671 31.8169C11.5853 31.7954 10.9398 31.5037 10.472 31.0059C10.0043 30.508 9.75237 29.8445 9.77152 29.1608C9.78546 27.6343 10.9287 26.5257 12.5864 26.5131C15.142 26.4936 17.6976 26.5131 20.2546 26.5229C21.264 26.5229 21.2667 26.5229 21.2667 25.5346C21.2667 21.3184 21.2667 17.1017 21.2667 12.8846C21.2667 10.4452 22.4825 9.25 24.9251 9.25C32.0821 9.25 39.239 9.25 46.3959 9.25H47.3189C41.0449 3.8232 27.4821 0.254262 15.5031 8.16519C3.58124 16.0314 0.474952 30.686 4.92247 41.3928ZM24.9028 41.8513C18.8157 41.8513 12.7277 41.8476 6.63874 41.8401C6.08105 41.8401 5.85937 41.9967 5.86216 42.5838C5.88586 46.4981 5.87889 50.4123 5.89005 54.3265C5.89005 55.4449 5.90539 55.4644 7.04585 55.4658C10.4617 55.4658 13.8775 55.4505 17.2919 55.4519C25.8188 55.4519 34.3453 55.463 42.8714 55.4854C43.5754 55.4854 43.7915 55.2589 43.7874 54.5614C43.7609 50.6471 43.7762 46.7329 43.7734 42.8187C43.7734 41.8471 43.7734 41.8471 42.8142 41.8471L24.9028 41.8513ZM40.6016 16.167V16.1404C42.4364 16.1404 44.2707 16.1404 46.1045 16.1404C50.262 16.146 54.4196 16.1544 58.5771 16.1656C59.0177 16.1656 59.2031 15.9825 59.1933 15.5337C59.1696 14.4154 59.1933 13.297 59.1515 12.1787C59.1335 11.7084 58.9638 11.2568 58.6679 10.8915C58.372 10.5262 57.9658 10.2671 57.5105 10.1531C57.1269 10.0626 56.7334 10.0208 56.3394 10.0286C47.8347 10.0221 39.3301 10.0221 30.8254 10.0286C28.7341 10.0286 26.6428 10.0133 24.5515 10.0356C23.082 10.051 22.0935 10.9443 22.0419 12.3045C22.0015 13.3515 22.0419 14.4014 22.028 15.4498C22.028 15.9196 22.2106 16.1125 22.6916 16.1111C23.7136 16.1111 24.7355 16.1656 25.7589 16.167C30.7064 16.1717 35.654 16.1717 40.6016 16.167ZM42.9954 56.2375H18.6205C22.6428 60.0133 38.2203 60.0413 42.9954 56.2375ZM44.4566 55.5916C47.5531 53.7981 50.0613 51.6648 52.1135 48.9766C49.6653 48.8829 47.2756 48.8718 44.8874 48.9109C44.7479 48.9109 44.4942 49.3163 44.49 49.5386C44.451 51.1448 44.4607 52.7538 44.4566 54.3601V55.5916Z" stroke="#E63E98" stroke-width="0.4" mask="url(#path-1-outside-1)"/>
<path d="M15.6832 3.7156L15.7293 3.67493L15.7138 3.61549C15.7036 3.57623 15.6934 3.53777 15.6832 3.49944C15.6677 3.44145 15.6524 3.38374 15.6373 3.32398L15.6168 3.24283L15.5333 3.24874C15.4749 3.25288 15.4112 3.25169 15.3425 3.24905C15.3248 3.24837 15.3067 3.24758 15.2883 3.24678C15.2371 3.24457 15.1837 3.24226 15.1324 3.24186C14.9964 3.24081 14.8411 3.25167 14.7227 3.33535L14.7227 3.33535L14.7226 3.33546C14.2331 3.68306 13.7369 4.02512 13.24 4.36772C11.8224 5.34514 10.3983 6.32696 9.10316 7.4543L9.10312 7.45434C5.43866 10.6474 2.76855 14.5974 0.934144 19.1016C0.880122 19.2324 0.893207 19.3797 0.914953 19.5096C0.922978 19.5576 0.932967 19.607 0.942559 19.6545C0.946151 19.6723 0.949688 19.6898 0.953045 19.7068C0.965708 19.7711 0.976342 19.8313 0.981427 19.8881L0.996074 20.0514L1.1346 19.9636C1.34617 19.8293 1.54353 19.6738 1.72361 19.4994L1.7311 19.4922L1.73693 19.4835C1.85768 19.3047 1.952 19.1092 2.01698 18.9033C3.47405 15.53 5.52008 12.4445 8.05876 9.79224L8.05938 9.79159C10.0957 7.62541 12.4283 5.75996 14.9874 4.25104L14.9875 4.25117L14.9922 4.24803C15.2342 4.08627 15.465 3.90839 15.6832 3.7156Z" fill="#E63E98" stroke="#E63E98" stroke-width="0.2"/>
<path d="M56.3208 50.9645L56.2493 51.0745C56.1775 51.1851 56.1177 51.2817 56.0645 51.3678C55.9756 51.5115 55.9048 51.6259 55.8262 51.7272L55.825 51.7287L55.825 51.7287C53.4567 54.6567 50.6013 57.152 47.3851 59.1045L47.3845 59.1048C47.3684 59.1144 47.3514 59.1262 47.3316 59.1404C47.3286 59.1425 47.3256 59.1447 47.3224 59.147C47.3057 59.1589 47.287 59.1723 47.2683 59.1846C47.2254 59.2127 47.1656 59.2468 47.0956 59.2503L47.0903 59.2505L47.0903 59.2504C46.8949 59.2498 46.6997 59.2379 46.5057 59.2147L46.3832 59.2001L46.4229 59.0833C46.4378 59.0394 46.45 58.9895 46.4624 58.9345C46.4652 58.9219 46.4681 58.9089 46.471 58.8957C46.4804 58.8533 46.4903 58.8085 46.5014 58.7662C46.529 58.6606 46.5721 58.5327 46.6721 58.46C46.6721 58.46 46.6721 58.46 46.6721 58.46L46.7309 58.5409C47.1067 58.2677 47.498 58.0159 47.8894 57.764C48.163 57.5879 48.4366 57.4117 48.7051 57.2282L56.3208 50.9645ZM56.3208 50.9645L56.1958 50.9247C56.1119 50.898 56.0371 50.8661 55.9638 50.8348C55.927 50.8191 55.8906 50.8036 55.8537 50.789C55.8018 50.7684 55.7482 50.7497 55.6971 50.7407C55.6462 50.7316 55.5875 50.7303 55.5317 50.7555M56.3208 50.9645L48.6484 57.1458C51.0343 55.4965 53.1738 53.515 55.0026 51.261C55.0103 51.2511 55.0182 51.2411 55.0261 51.231C55.0885 51.1513 55.1579 51.0625 55.2333 50.9828C55.3184 50.8927 55.4171 50.8073 55.5317 50.7555M55.5317 50.7555C55.5317 50.7556 55.5316 50.7556 55.5315 50.7556L55.5729 50.8466L55.5318 50.7555C55.5318 50.7555 55.5318 50.7555 55.5317 50.7555Z" fill="#E63E98" stroke="#E63E98" stroke-width="0.2"/>
<path d="M43.4594 1.6812L43.4074 1.66222L43.3637 1.69629C43.3436 1.71197 43.3176 1.72855 43.2853 1.74828C43.2802 1.75143 43.2749 1.75466 43.2695 1.75797C43.2426 1.77433 43.2127 1.79256 43.1847 1.81155C43.1233 1.85313 43.0371 1.91941 43.0152 2.01937C42.9946 2.11328 43.0321 2.21169 43.0713 2.28607C43.113 2.36523 43.1699 2.44128 43.2192 2.49955L43.2251 2.50649L43.2321 2.51225C43.3299 2.5926 43.4423 2.65317 43.5632 2.69061C46.0355 3.86787 48.3801 5.24559 50.4922 6.99679C50.5982 7.10867 50.7305 7.19222 50.8771 7.23975L50.8868 7.24291L50.897 7.24403C51.0729 7.26338 51.2493 7.21266 51.3882 7.10286L51.3883 7.10305L51.3934 7.09839C51.4324 7.06292 51.4478 7.01354 51.4547 6.97684C51.4622 6.93697 51.4632 6.8933 51.4603 6.85159C51.4545 6.77 51.4326 6.67662 51.3955 6.60968L51.3957 6.60955L51.3917 6.60337C51.2964 6.45787 51.1745 6.33177 51.0325 6.23172C48.8837 4.47597 46.5143 3.01088 43.9848 1.87406L43.9848 1.87405L43.9837 1.87357C43.8836 1.83001 43.7774 1.79304 43.6568 1.75105C43.5951 1.72959 43.5297 1.70683 43.4594 1.6812Z" fill="#E63E98" stroke="#E63E98" stroke-width="0.2"/>
<path d="M10.243 58.8424L10.1326 58.9247L10.2449 59.0042C10.2778 59.0275 10.3119 59.057 10.3494 59.0907C10.3587 59.0991 10.3683 59.1079 10.3781 59.1169C10.4062 59.1425 10.4361 59.1697 10.4655 59.1946C10.5405 59.2579 10.6413 59.3318 10.7587 59.3329C11.2802 59.3584 11.8051 59.3542 12.3268 59.35C12.5217 59.3485 12.7162 59.3469 12.9099 59.3469C13.0887 59.3469 13.2679 59.3477 13.4474 59.3484C14.0074 59.3507 14.57 59.3531 15.1303 59.3329L15.1312 59.3329C15.2461 59.3277 15.3443 59.2542 15.4184 59.1905C15.4473 59.1657 15.4766 59.1386 15.5042 59.113C15.5137 59.1043 15.5229 59.0957 15.5319 59.0875C15.5685 59.0539 15.6021 59.0243 15.6346 59.0005L15.7437 58.9208L15.6356 58.8398C15.6032 58.8155 15.5694 58.7849 15.5323 58.7499C15.5235 58.7416 15.5145 58.733 15.5052 58.7241C15.477 58.6973 15.4471 58.6688 15.4176 58.6428C15.344 58.5779 15.2429 58.4997 15.1253 58.4997V58.5997L15.127 58.4997C13.6703 58.4745 12.2136 58.4745 10.7569 58.4997L10.7568 58.4997C10.64 58.5018 10.5391 58.5792 10.4644 58.6444C10.4348 58.6703 10.4047 58.6986 10.3762 58.7254C10.3667 58.7344 10.3574 58.7432 10.3483 58.7517C10.3107 58.7867 10.2762 58.8176 10.243 58.8424Z" fill="#E63E98" stroke="#E63E98" stroke-width="0.2"/>
<path d="M16.8512 2.64942C16.8505 2.70879 16.886 2.75275 16.9088 2.77647C16.9348 2.8035 16.9675 2.82753 16.997 2.84738C17.0229 2.86479 17.0505 2.88169 17.0745 2.89638C17.0784 2.89873 17.0821 2.90102 17.0858 2.90325C17.1142 2.9207 17.134 2.93328 17.1461 2.94278L17.1752 2.96556L17.2122 2.9639C17.284 2.96069 17.3553 2.95098 17.4253 2.93491L17.4335 2.93302L17.4413 2.92979C17.5993 2.86411 17.7575 2.79852 17.9158 2.73291C18.7202 2.39941 19.5265 2.06513 20.322 1.71428C20.4234 1.67033 20.4821 1.56829 20.5216 1.48902C20.5365 1.45926 20.5511 1.42719 20.5647 1.39719C20.5703 1.38499 20.5757 1.37313 20.5809 1.36191C20.5998 1.32101 20.6173 1.28569 20.6357 1.25645L20.6999 1.15419L20.5875 1.11014C20.5489 1.09504 20.5068 1.07352 20.4601 1.04831C20.4479 1.04177 20.4354 1.0349 20.4226 1.02789C20.3879 1.00896 20.3514 0.988953 20.3162 0.971376C20.2676 0.947119 20.2148 0.923885 20.162 0.910653C20.1093 0.897445 20.0483 0.892061 19.9881 0.913184L19.9881 0.913164L19.9862 0.913891C19.0094 1.27957 18.0442 1.68014 17.0921 2.1001L17.0921 2.1001L17.0913 2.10045C17.0399 2.12365 17.0018 2.16525 16.9742 2.20609C16.9459 2.248 16.9233 2.29704 16.9057 2.34653C16.8709 2.44471 16.8513 2.55772 16.8512 2.64942ZM16.8512 2.64942C16.8512 2.64965 16.8512 2.64989 16.8512 2.65012H16.9512L16.8512 2.64824C16.8512 2.64863 16.8512 2.64902 16.8512 2.64942Z" fill="#E63E98" stroke="#E63E98" stroke-width="0.2"/>
<path d="M7.30168 59.5412L7.25647 59.5159L6.30562 58.9833L6.10845 58.8729L6.32279 58.8012C6.41839 58.7693 6.50927 58.7314 6.60374 58.6921C6.66536 58.6665 6.72851 58.6402 6.79548 58.6145C6.95732 58.5524 7.13009 58.4991 7.30768 58.4983L7.30812 58.4983C7.38394 58.4983 7.46977 58.4853 7.56747 58.4706C7.57458 58.4695 7.58176 58.4684 7.589 58.4673C7.69145 58.4519 7.8056 58.4357 7.91401 58.44C8.02356 58.4443 8.13726 58.4697 8.23307 58.546C8.32963 58.6229 8.39489 58.7408 8.42807 58.9041L7.30168 59.5412ZM7.30168 59.5412L7.34844 59.5189M7.30168 59.5412L7.34844 59.5189M7.34844 59.5189C7.48189 59.4552 7.63641 59.3899 7.78649 59.3265M7.34844 59.5189L7.78649 59.3265M7.78649 59.3265C7.86667 59.2927 7.94558 59.2593 8.01935 59.2271M7.78649 59.3265L8.01935 59.2271M8.01935 59.2271C8.1229 59.1818 8.21723 59.1381 8.28531 59.0991M8.01935 59.2271L8.28531 59.0991M8.28531 59.0991C8.31873 59.08 8.35098 59.0591 8.37543 59.0369M8.28531 59.0991L8.37543 59.0369M8.37543 59.0369C8.38758 59.0259 8.40192 59.0108 8.41286 58.9917M8.37543 59.0369L8.41286 58.9917M8.41286 58.9917C8.42394 58.9724 8.43565 58.9413 8.42808 58.9041L8.41286 58.9917Z" fill="#E63E98" stroke="#E63E98" stroke-width="0.2"/>
<path d="M40.588 39.1744C41.766 39.1812 42.9337 38.9544 44.0239 38.507C45.1142 38.0596 46.1055 37.4004 46.9406 36.5673C47.7758 35.7343 48.4384 34.7438 48.8902 33.653C49.3421 32.5623 49.5743 31.3928 49.5736 30.2117C49.5862 25.1502 45.6055 21.1606 40.5341 21.1493L40.5341 21.1493C35.7228 21.1394 31.6213 25.2456 31.61 30.0812L31.61 30.0813C31.6001 35.0631 35.652 39.1742 40.588 39.1744ZM40.588 39.1744C40.5881 39.1744 40.5882 39.1744 40.5883 39.1744V39.0744L40.5877 39.1744C40.5878 39.1744 40.5879 39.1744 40.588 39.1744ZM40.7291 22.093L40.7299 22.093C45.0811 22.1192 48.7248 25.8325 48.6918 30.2148C48.6519 34.6434 44.9445 38.2624 40.4776 38.2237C36.1374 38.1864 32.534 34.5051 32.5712 30.141L32.5712 30.1404C32.5742 29.0733 32.7883 28.0173 33.201 27.0336C33.6137 26.0499 34.2168 25.158 34.9755 24.4096C35.7342 23.6613 36.6334 23.0712 37.621 22.6735C38.6086 22.2759 39.665 22.0786 40.7291 22.093Z" fill="#E63E98" stroke="#E63E98" stroke-width="0.2"/>
<path d="M17.9139 18.1632H17.8139C17.8139 18.0317 17.9006 17.9173 17.977 17.83C18.0067 17.7961 18.0393 17.7616 18.0702 17.7289C18.0811 17.7174 18.0917 17.7061 18.102 17.6951C18.143 17.6513 18.1794 17.6106 18.2085 17.5712L18.2964 17.4521L18.3741 17.5782C18.4005 17.6211 18.4329 17.665 18.4688 17.7118C18.4778 17.7234 18.487 17.7353 18.4963 17.7474C18.5236 17.7827 18.5522 17.8196 18.5785 17.8561C18.6479 17.9524 18.7188 18.0686 18.7262 18.1981L18.7262 18.1981C18.7568 18.7396 18.7518 19.2847 18.7468 19.8255C18.7449 20.027 18.7431 20.228 18.7431 20.4279C18.7431 20.6222 18.7449 20.8173 18.7468 21.0129C18.7518 21.5373 18.7568 22.0651 18.7262 22.5892L17.9139 18.1632ZM17.9139 18.1632C17.9139 18.04 18.0278 17.9194 18.1418 17.7988C18.1691 17.7698 18.1964 17.7409 18.2222 17.7119C18.2159 17.7023 18.2098 17.6927 18.2038 17.6831L18.2889 17.6306L18.3694 17.69C18.3625 17.6993 18.3554 17.7085 18.3482 17.7177C18.3707 17.7484 18.3944 17.7791 18.4182 17.8098C18.5183 17.9392 18.6187 18.0689 18.6263 18.2038C18.6568 18.7417 18.6518 19.2818 18.6468 19.8215C18.6449 20.0237 18.6431 20.2259 18.6431 20.4279C18.6431 20.6243 18.6449 20.8207 18.6468 21.017C18.6518 21.5403 18.6568 22.063 18.6263 22.5835C18.6187 22.7169 18.517 22.8451 18.4153 22.9734L17.9139 18.1632ZM17.9139 18.1632L17.8139 18.1612C17.7842 19.6453 17.7842 21.1299 17.8139 22.6149L17.8139 22.6152C17.8169 22.745 17.9008 22.8587 17.9762 22.9472C18.0055 22.9815 18.0374 23.0163 18.0679 23.0495C18.0784 23.0609 18.0888 23.0722 18.0988 23.0832C18.1389 23.1273 18.1749 23.1684 18.2038 23.2084L18.2902 23.3276M17.9139 18.1632L18.2902 23.3276M18.2902 23.3276L18.3692 23.2033M18.2902 23.3276L18.3692 23.2033M18.3692 23.2033C18.3963 23.1606 18.4293 23.1171 18.4657 23.0708M18.3692 23.2033L18.4657 23.0708M18.4657 23.0708C18.4745 23.0596 18.4836 23.0482 18.4927 23.0366M18.4657 23.0708L18.4927 23.0366M18.4927 23.0366C18.5207 23.0014 18.5499 22.9645 18.5768 22.928M18.4927 23.0366L18.5768 22.928M18.5768 22.928C18.6468 22.8331 18.7187 22.7181 18.7262 22.5893L18.5768 22.928Z" fill="#E63E98" stroke="#E63E98" stroke-width="0.2"/>
<path d="M18.7222 15.5178C18.7222 15.5168 18.7222 15.5159 18.7222 15.515H18.6222C18.6556 14.8244 18.6556 14.1254 18.6222 13.4265C18.6174 13.3365 18.5166 13.2511 18.4159 13.1658C18.3966 13.1495 18.3772 13.1331 18.3586 13.1167L18.7222 15.5178ZM18.7222 15.5178C18.7214 15.577 18.6963 15.6275 18.6683 15.6667C18.6399 15.7067 18.6029 15.7431 18.5671 15.775C18.5413 15.798 18.5128 15.8216 18.4862 15.8436C18.4761 15.8519 18.4663 15.8601 18.457 15.8679C18.4211 15.8978 18.3904 15.9249 18.3664 15.9507L18.2953 16.0272L18.222 15.9529C18.1936 15.9241 18.1594 15.8951 18.1209 15.8637C18.1117 15.8563 18.1022 15.8486 18.0926 15.8408C18.063 15.817 18.0317 15.7917 18.0028 15.7665C17.9301 15.7031 17.8428 15.6164 17.8237 15.5037L17.8225 15.4967L17.8228 15.4966C17.7889 15.1474 17.7831 14.796 17.8053 14.4459C17.7824 14.1185 17.7882 13.7898 17.8229 13.4634L17.8237 13.4559L17.8239 13.4559C17.8449 13.3418 17.9267 13.2525 17.9985 13.1838C18.0278 13.1558 18.0557 13.1308 18.0823 13.107C18.1294 13.0648 18.1722 13.0265 18.2105 12.9822L18.2834 12.8979L18.3594 12.9795C18.3845 13.0064 18.4159 13.0345 18.4521 13.0654C18.4608 13.0729 18.4699 13.0806 18.4793 13.0885C18.5068 13.1118 18.5361 13.1366 18.5629 13.1611C18.599 13.194 18.6359 13.2311 18.6647 13.2715C18.6933 13.3118 18.7189 13.3622 18.722 13.4212L18.7221 13.4217L18.7221 13.4217C18.7556 14.1231 18.7557 14.8246 18.7222 15.5178Z" fill="#E63E98" stroke="#E63E98" stroke-width="0.2"/>
<path d="M24.6367 51.9151H24.8366C25.2899 51.9151 25.7433 51.9146 26.1968 51.914C27.7847 51.9121 29.3742 51.9102 30.9635 51.9319C30.9637 51.9319 30.9639 51.9319 30.9641 51.9319L30.9627 52.0319C31.1206 52.0319 31.2765 52.1367 31.434 52.2425C31.4767 52.2711 31.5194 52.2998 31.5623 52.3266L24.6367 51.9151ZM24.6367 51.9151L24.6409 51.9207M24.6367 51.9151L24.6409 51.9207M24.6409 51.9207C24.2487 51.9206 23.8566 51.9201 23.4644 51.9196C21.8576 51.9177 20.2505 51.9158 18.6436 51.9375L18.6432 51.9375C18.4946 51.9402 18.3563 52.0141 18.2373 52.0903C18.1926 52.1189 18.1474 52.15 18.1039 52.1799C18.0886 52.1904 18.0736 52.2008 18.0588 52.2109C18.0007 52.2505 17.9456 52.2866 17.8917 52.3159L17.7276 52.405L17.8928 52.4922C17.9475 52.5211 18.0035 52.5571 18.0626 52.5967C18.0782 52.6072 18.0941 52.618 18.1103 52.6289C18.1539 52.6585 18.1993 52.6892 18.244 52.7173C18.3649 52.7934 18.5055 52.8672 18.6561 52.8672V52.7672M24.6409 51.9207L31.5661 52.4454C31.5293 52.4716 31.4924 52.4993 31.4556 52.527C31.2964 52.6466 31.1372 52.7663 30.9781 52.7672C26.8707 52.7915 22.7634 52.7915 18.6561 52.7672M18.6561 52.7672C18.4928 52.7672 18.3302 52.6571 18.1678 52.547C18.1249 52.518 18.082 52.4889 18.0391 52.4619M18.6561 52.7672L18.0391 52.4619M18.0391 52.4619C18.0219 52.4722 18.0046 52.4822 17.9872 52.4917L17.9395 52.4038L17.9861 52.3153C18.0037 52.3246 18.0212 52.3344 18.0385 52.3445M18.0391 52.4619L18.0385 52.3445M18.0385 52.3445C18.0796 52.3181 18.1207 52.2898 18.1619 52.2614C18.3222 52.151 18.4829 52.0404 18.6449 52.0375L18.0385 52.3445Z" fill="#E63E98" stroke="#E63E98" stroke-width="0.2"/>
<path d="M15.4022 47.8285L15.4022 47.8285L15.403 47.8286C15.74 47.8622 16.0821 47.8557 16.4168 47.8494C16.5483 47.8469 16.6787 47.8445 16.8072 47.8445C16.9316 47.8445 17.0577 47.8467 17.1849 47.8489C17.5236 47.8548 17.8698 47.8608 18.2102 47.8258L18.2109 47.8257C18.3249 47.8131 18.4197 47.7311 18.4904 47.6613C18.52 47.632 18.5497 47.6003 18.5775 47.5705C18.5848 47.5627 18.5919 47.5551 18.5989 47.5477C18.6338 47.5105 18.6657 47.4776 18.6965 47.4508L18.7855 47.3731L18.6942 47.2981C18.6625 47.272 18.6295 47.2393 18.5936 47.202C18.585 47.1931 18.5762 47.1839 18.5672 47.1745C18.5399 47.1459 18.5109 47.1155 18.4823 47.0879C18.444 47.0509 18.4014 47.0137 18.3555 46.9855C18.3099 46.9575 18.2552 46.9348 18.1935 46.9343C17.2604 46.9035 16.3288 46.9035 15.3999 46.9344L15.3999 46.9344L15.3994 46.9344C15.3379 46.9367 15.2838 46.9612 15.2391 46.9904C15.1944 47.0197 15.1529 47.0575 15.1157 47.0952C15.087 47.1242 15.0581 47.1558 15.031 47.1855C15.023 47.1942 15.0153 47.2027 15.0077 47.2109C14.9729 47.2488 14.9412 47.2819 14.9108 47.3084L14.8222 47.3857L14.9127 47.4608C14.9446 47.4871 14.9771 47.5194 15.0124 47.5557C15.021 47.5646 15.0298 47.5738 15.0388 47.5831C15.0655 47.6108 15.0937 47.6402 15.1216 47.6671C15.1929 47.736 15.2876 47.8161 15.4022 47.8285Z" fill="#E63E98" stroke="#E63E98" stroke-width="0.2"/>
<path d="M26.1941 47.0349L26.1977 46.935C25.2705 46.9014 24.3433 46.9014 23.416 46.935L23.4159 46.935C23.3541 46.9373 23.2997 46.9615 23.2544 46.9908C23.2091 47.02 23.1674 47.0579 23.1299 47.0956C23.1006 47.1251 23.0712 47.1572 23.0437 47.1873C23.0361 47.1955 23.0287 47.2037 23.0214 47.2115C22.9865 47.2494 22.9549 47.2826 22.9245 47.3091L22.8382 47.3843L22.9244 47.4597C22.9556 47.487 22.9875 47.5203 23.022 47.5578C23.0299 47.5664 23.0381 47.5753 23.0464 47.5844C23.0729 47.6134 23.101 47.6442 23.1289 47.6724C23.1984 47.7428 23.2924 47.826 23.4083 47.8376L23.4083 47.8377L23.4119 47.8379C23.8767 47.8675 24.3427 47.8732 24.808 47.8548L24.8363 47.8537L24.8386 47.8521C24.9545 47.8525 25.0718 47.8545 25.19 47.8566C25.5259 47.8626 25.8686 47.8687 26.2042 47.8348L26.2042 47.8348L26.2051 47.8347C26.2623 47.8284 26.3128 47.8031 26.3549 47.7744C26.3974 47.7455 26.4374 47.709 26.4739 47.6726C26.5015 47.6451 26.5294 47.6152 26.5559 47.5869C26.5643 47.5779 26.5725 47.5691 26.5806 47.5605C26.6152 47.5238 26.6472 47.4909 26.6781 47.464L26.764 47.3891L26.6785 47.3136C26.6484 47.2871 26.6169 47.2534 26.5823 47.2147C26.5736 47.205 26.5645 47.1948 26.5553 47.1844C26.5295 47.1553 26.5023 47.1246 26.4756 47.0966C26.4391 47.0584 26.3984 47.0196 26.3547 46.99C26.3112 46.9607 26.2567 46.9349 26.1941 46.9349V47.0349ZM26.1941 47.0349C25.2693 47.0014 24.3445 47.0014 23.4197 47.0349C23.3151 47.0388 23.2159 47.1472 23.1183 47.2538C23.0995 47.2744 23.0808 47.2948 23.0621 47.3145L26.1941 47.0349Z" fill="#E63E98" stroke="#E63E98" stroke-width="0.2"/>
<path d="M32.711 47.8476C32.2802 47.8612 31.8489 47.8544 31.4188 47.827L31.4141 47.8267L31.4141 47.8266C31.3557 47.8201 31.3045 47.7932 31.2625 47.7631C31.22 47.7327 31.1803 47.6942 31.1442 47.6558C31.1133 47.6228 31.0827 47.5871 31.054 47.5538C31.0492 47.5482 31.0445 47.5427 31.0398 47.5373C31.0062 47.4983 30.9756 47.4636 30.9466 47.4351L30.8698 47.3598L30.9505 47.2887C30.9773 47.265 31.0054 47.2349 31.0364 47.2C31.0446 47.1908 31.053 47.1812 31.0617 47.1713C31.0845 47.1453 31.1088 47.1178 31.1325 47.0927C31.1655 47.0577 31.2027 47.0218 31.2433 46.9941C31.2836 46.9666 31.3342 46.9422 31.393 46.9408M32.711 47.8476L31.3958 47.0408M32.711 47.8476V47.8551H32.811C32.9384 47.8551 33.0676 47.8575 33.1979 47.8598C33.532 47.8658 33.8729 47.8719 34.2065 47.8393L34.2065 47.8393L34.2072 47.8392C34.322 47.8272 34.4183 47.7526 34.4929 47.6861C34.5214 47.6607 34.5502 47.6331 34.5775 47.607C34.5872 47.5977 34.5966 47.5886 34.6058 47.5799C34.6423 47.5453 34.676 47.5146 34.7091 47.4894L34.8011 47.4194L34.7186 47.3385C34.6899 47.3103 34.6595 47.2748 34.6258 47.2341C34.6198 47.2268 34.6136 47.2194 34.6074 47.2118C34.5799 47.1785 34.5505 47.1428 34.521 47.1101C34.4849 47.0701 34.4445 47.0296 34.4008 46.9987C34.358 46.9684 34.3036 46.9414 34.2407 46.9408M32.711 47.8476L34.2386 47.0408M31.393 46.9408C31.3933 46.9408 31.3935 46.9408 31.3937 46.9408L31.3958 47.0408M31.393 46.9408C31.3929 46.9408 31.3927 46.9408 31.3926 46.9408L31.3958 47.0408M31.393 46.9408C32.3409 46.91 33.292 46.9058 34.2407 46.9408M31.3958 47.0408C32.3425 47.01 33.292 47.0058 34.2386 47.0408M34.2407 46.9408C34.24 46.9408 34.2393 46.9408 34.2386 46.9408V47.0408M34.2407 46.9408C34.2413 46.9408 34.2418 46.9408 34.2423 46.9408L34.2386 47.0408M34.5807 47.3359C34.6035 47.3626 34.6261 47.3879 34.6485 47.4098M34.5807 47.3359L34.5719 47.4747C34.5973 47.4515 34.6228 47.4294 34.6485 47.4098M34.5807 47.3359C34.5831 47.334 34.5855 47.3321 34.588 47.3303L34.6485 47.4098M34.5807 47.3359L34.6485 47.4098" fill="#E63E98" stroke="#E63E98" stroke-width="0.2"/>
<path d="M15.4594 44.4274C15.4588 44.4274 15.4583 44.4274 15.4577 44.4274V44.5274C14.6491 44.5037 13.8377 44.5302 13.029 44.5764C12.9377 44.5819 12.853 44.6659 12.7657 44.7525C12.7458 44.7722 12.7258 44.7921 12.7055 44.8112L15.4607 44.4275C15.4602 44.4275 15.4598 44.4274 15.4594 44.4274ZM15.4594 44.4274C14.6472 44.4036 13.833 44.4303 13.0233 44.4765L13.0233 44.4765L13.023 44.4765C12.9144 44.4831 12.8254 44.5575 12.7613 44.6173C12.7348 44.6421 12.7111 44.6656 12.6887 44.6879C12.6475 44.7289 12.6106 44.7655 12.5688 44.797L12.4702 44.8711L12.5632 44.9523C12.5936 44.9788 12.6245 45.0111 12.6579 45.0474C12.6659 45.056 12.6742 45.0651 12.6825 45.0742C12.7079 45.1021 12.7348 45.1315 12.7616 45.1587C12.8296 45.2278 12.9206 45.3083 13.0345 45.3228L13.0345 45.3229L13.0393 45.3233C13.4052 45.352 13.7724 45.359 14.1391 45.3443L15.4594 44.4274Z" fill="#E63E98" stroke="#E63E98" stroke-width="0.2"/>
<path d="M28.2785 44.9139L28.3586 44.8373C28.3841 44.8129 28.4108 44.7821 28.4404 44.7465C28.4475 44.738 28.4548 44.7291 28.4623 44.72C28.4847 44.6928 28.5085 44.6639 28.532 44.6374C28.5635 44.602 28.5991 44.5655 28.6381 44.5371C28.6768 44.509 28.7267 44.4831 28.7855 44.4811L28.7856 44.4811C29.6452 44.4531 30.5043 44.4531 31.363 44.481C31.3635 44.4811 31.3639 44.4811 31.3644 44.4811L31.3611 44.581M28.2785 44.9139L31.6528 44.843C31.6379 44.8247 31.623 44.8058 31.6081 44.7868C31.5273 44.6841 31.4462 44.581 31.3611 44.581M28.2785 44.9139L28.363 44.9857C28.3905 45.0092 28.4189 45.038 28.45 45.0711C28.4574 45.0789 28.4649 45.087 28.4727 45.0953C28.4964 45.1207 28.5218 45.1478 28.5469 45.1728C28.61 45.2353 28.6972 45.3113 28.8053 45.3222C29.1158 45.3533 29.4288 45.3482 29.7349 45.3431C29.8477 45.3413 29.9596 45.3395 30.0701 45.3395C30.1794 45.3395 30.2905 45.3414 30.4025 45.3433C30.7087 45.3486 31.0223 45.354 31.3287 45.3207M28.2785 44.9139L31.3287 45.3207M31.3611 44.581C30.5042 44.5531 29.6467 44.5531 28.7888 44.581C28.7038 44.5839 28.6221 44.6832 28.5406 44.7823C28.5256 44.8004 28.5107 44.8186 28.4957 44.8361L31.3611 44.581ZM31.3287 45.3207C31.3287 45.3207 31.3287 45.3207 31.3287 45.3207L31.3179 45.2213L31.3287 45.3207Z" fill="#E63E98" stroke="#E63E98" stroke-width="0.2"/>
<path d="M34.2193 45.3272C34.6074 45.3593 34.9973 45.3653 35.3863 45.3452L35.3953 45.3456C35.7905 45.3643 36.1864 45.3595 36.581 45.3315L36.581 45.3316L36.5858 45.3311C36.699 45.3176 36.7954 45.2493 36.8725 45.1857C36.9027 45.1608 36.933 45.1339 36.9617 45.1084C36.9706 45.1005 36.9794 45.0927 36.9879 45.0852C37.0251 45.0524 37.0598 45.0229 37.0939 44.9984L37.2001 44.9219L37.0984 44.8395C37.0672 44.8143 37.0348 44.7822 36.9992 44.7454C36.9902 44.7361 36.9809 44.7263 36.9714 44.7164C36.9449 44.6886 36.9166 44.6591 36.8889 44.6322C36.8509 44.5954 36.8086 44.5583 36.7628 44.5301C36.7168 44.5018 36.6615 44.4789 36.599 44.4789V44.5789L36.6033 44.479C35.7949 44.4444 34.9864 44.4416 34.1779 44.4706L34.1779 44.4706L34.177 44.4706C34.0616 44.4758 33.9624 44.5494 33.8872 44.6133C33.8584 44.6378 33.8291 44.6646 33.8014 44.6899C33.7913 44.6991 33.7815 44.7081 33.7719 44.7167C33.7347 44.7504 33.7004 44.7801 33.6673 44.8038L33.5546 44.8847L33.6669 44.9661C33.7044 44.9932 33.7423 45.0254 33.7828 45.0609C33.7915 45.0686 33.8005 45.0766 33.8096 45.0846C33.8413 45.1126 33.8746 45.142 33.9079 45.1693C33.9919 45.2382 34.0943 45.3099 34.2136 45.3266L34.2136 45.3268L34.2193 45.3272Z" fill="#E63E98" stroke="#E63E98" stroke-width="0.2"/>
<path d="M20.7438 44.4781C20.743 44.4781 20.7422 44.4781 20.7414 44.4781V44.5781C19.9318 44.5436 19.1227 44.5436 18.3141 44.5781C18.2217 44.5827 18.136 44.6844 18.0481 44.7887C18.0262 44.8146 18.0042 44.8408 17.9819 44.8656L20.7438 44.4781ZM20.7438 44.4781C20.8062 44.4788 20.8598 44.5052 20.9021 44.5351C20.9451 44.5656 20.9845 44.6054 21.0194 44.6443C21.0449 44.6728 21.0708 44.704 21.0952 44.7334C21.1041 44.7441 21.1127 44.7545 21.1211 44.7645C21.154 44.8037 21.1838 44.8376 21.2124 44.8641L21.3017 44.9471L21.2028 45.0185C21.1611 45.0486 21.1246 45.0835 21.0837 45.1226C21.0612 45.144 21.0375 45.1667 21.0108 45.1906C20.9459 45.2488 20.8581 45.3185 20.7509 45.3264C20.4497 45.3538 20.1436 45.3486 19.8439 45.3434C19.7266 45.3414 19.6102 45.3394 19.4955 45.3394C19.1001 45.355 18.7041 45.3503 18.3091 45.3252L18.3055 45.3249L18.3055 45.3249C18.2017 45.3145 18.1131 45.2475 18.0459 45.1896C18.0191 45.1665 17.9919 45.1413 17.9664 45.1177C17.9586 45.1105 17.9509 45.1033 17.9435 45.0965C17.9105 45.0661 17.8803 45.0393 17.851 45.0173L17.7535 44.944L17.8445 44.8628C17.8742 44.8363 17.9046 44.8029 17.9374 44.7647C17.9478 44.7525 17.9588 44.7394 17.9701 44.726C17.9924 44.6996 18.0158 44.6719 18.0382 44.6469C18.0726 44.6086 18.1111 44.5693 18.1531 44.5388C18.195 44.5083 18.2475 44.4813 18.309 44.4782L18.3098 44.4782L18.3098 44.4782C19.1207 44.4436 19.932 44.4436 20.7438 44.4781Z" fill="#E63E98" stroke="#E63E98" stroke-width="0.2"/>
<path d="M24.6753 45.3453C24.3223 45.3576 23.9689 45.3502 23.6166 45.323L23.6123 45.3227L23.6123 45.3226C23.4999 45.309 23.4087 45.2298 23.3406 45.1622C23.3138 45.1357 23.2869 45.1069 23.2614 45.0797C23.2529 45.0705 23.2445 45.0616 23.2363 45.0529C23.2027 45.0173 23.1717 44.9857 23.1412 44.9597L23.0512 44.883L23.1418 44.807C23.1692 44.784 23.1978 44.7551 23.2293 44.7219C23.237 44.7139 23.2449 44.7055 23.253 44.6969C23.2768 44.6715 23.3022 44.6445 23.3272 44.6199C23.3609 44.5866 23.3987 44.5527 23.4395 44.5266C23.4803 44.5004 23.5303 44.478 23.5875 44.4761M24.6753 45.3453L23.5877 44.4761C23.5876 44.4761 23.5875 44.4761 23.5875 44.4761M24.6753 45.3453L24.6746 45.3489L24.7911 45.354C25.2094 45.3724 25.6285 45.3667 26.0462 45.3371L26.0462 45.3372L26.051 45.3366C26.1648 45.323 26.2562 45.242 26.3241 45.1732C26.3504 45.1465 26.377 45.1175 26.4021 45.0901C26.4109 45.0805 26.4196 45.0711 26.4279 45.0621C26.4614 45.0259 26.4923 44.9939 26.5226 44.9677L26.6096 44.8928L26.5234 44.8169C26.4968 44.7936 26.469 44.7638 26.4381 44.7293C26.4307 44.721 26.423 44.7124 26.4151 44.7035C26.3917 44.6772 26.3667 44.649 26.3421 44.6234C26.3091 44.5889 26.2717 44.5536 26.2308 44.5265C26.1905 44.4998 26.1399 44.4766 26.0816 44.4761M24.6753 45.3453L26.0816 44.4761M23.5875 44.4761C24.4184 44.4463 25.2497 44.4462 26.0816 44.4761M23.5875 44.4761C23.5874 44.4761 23.5873 44.4761 23.5873 44.4761L26.0816 44.4761" fill="#E63E98" stroke="#E63E98" stroke-width="0.2"/>
<path d="M12.5638 49.4472C12.5034 49.4506 12.4534 49.4793 12.4152 49.5097C12.3767 49.5404 12.3419 49.5796 12.3113 49.6175C12.2888 49.6452 12.266 49.6756 12.2446 49.7042C12.2369 49.7145 12.2293 49.7245 12.2221 49.7341C12.1932 49.7722 12.1671 49.8052 12.1418 49.8313L12.0685 49.9074L12.1486 49.9764C12.1772 50.0011 12.2064 50.0306 12.2381 50.0635C12.2455 50.0712 12.2531 50.0792 12.2608 50.0873C12.285 50.1127 12.3106 50.1395 12.3361 50.1645C12.4006 50.2278 12.4843 50.3003 12.585 50.3215L12.5849 50.322L12.5946 50.323C12.8724 50.3538 13.1524 50.3592 13.4312 50.3393C13.7327 50.3597 14.0354 50.3547 14.3361 50.3245L14.3361 50.3248L14.3433 50.3235C14.4479 50.3052 14.5326 50.2329 14.5971 50.1698C14.6225 50.145 14.648 50.1182 14.672 50.0929C14.6796 50.0849 14.6871 50.0771 14.6943 50.0695C14.7256 50.0369 14.7544 50.0079 14.7827 49.9838L14.8641 49.9145L14.7895 49.8379C14.7638 49.8116 14.7374 49.7788 14.7083 49.7411C14.7011 49.7317 14.6937 49.722 14.686 49.712C14.6643 49.6835 14.6412 49.6533 14.6185 49.6257C14.5876 49.5882 14.5526 49.5496 14.5139 49.5192C14.4755 49.4891 14.4259 49.461 14.3663 49.457C13.7662 49.4165 13.1642 49.4132 12.5638 49.4472ZM12.5638 49.4472C12.5638 49.4472 12.5637 49.4472 12.5637 49.4472L12.5694 49.547L12.5638 49.4472C12.5638 49.4472 12.5638 49.4472 12.5638 49.4472Z" fill="#E63E98" stroke="#E63E98" stroke-width="0.2"/>
<path d="M17.2441 50.3323L17.2438 50.3323C17.1314 50.3004 17.0358 50.2313 16.9538 50.1629C16.9177 50.1329 16.8858 50.1044 16.8552 50.0773C16.81 50.037 16.7679 49.9995 16.7202 49.9637L16.611 49.8816L16.7222 49.8023C16.76 49.7754 16.7984 49.7428 16.8396 49.7066C16.8495 49.6979 16.8596 49.6889 16.8699 49.6798C16.9012 49.652 16.9342 49.6227 16.9669 49.5957C17.0517 49.5258 17.1568 49.4514 17.2789 49.439M17.2441 50.3323L17.2791 49.439C17.279 49.439 17.279 49.439 17.2789 49.439M17.2441 50.3323C17.3692 50.3673 17.4979 50.3703 17.619 50.366C17.6714 50.3642 17.7199 50.3612 17.7668 50.3582C17.8337 50.3541 17.8973 50.3502 17.9643 50.35M17.2441 50.3323L17.9643 50.35M17.2789 49.439C17.7697 49.388 18.2643 49.388 18.7551 49.439L18.7558 49.4391L18.7558 49.4391C18.8781 49.4527 18.9764 49.5455 19.0492 49.6238C19.078 49.6547 19.107 49.6884 19.1344 49.7202C19.1438 49.7311 19.153 49.7417 19.1619 49.752C19.1984 49.7939 19.2322 49.8313 19.2655 49.8619L19.3599 49.9487L19.2527 50.0191C19.2062 50.0496 19.165 50.082 19.1204 50.117C19.091 50.1402 19.0601 50.1644 19.0253 50.19C18.9455 50.2488 18.8521 50.3083 18.7445 50.3311L18.7361 50.3328L18.7361 50.3325C18.4801 50.3642 18.2215 50.3701 17.9643 50.35M17.2789 49.439L17.9643 50.35" fill="#E63E98" stroke="#E63E98" stroke-width="0.2"/>
<path d="M21.7133 50.2412L21.6871 50.3377C21.82 50.3738 21.958 50.3776 22.0894 50.3737C22.1471 50.3719 22.2009 50.3689 22.2533 50.366C22.3272 50.3619 22.3982 50.358 22.4732 50.358H22.5579L22.5583 50.3559C22.8133 50.3716 23.0693 50.3641 23.3231 50.3335L23.3231 50.3338L23.3308 50.3323C23.4411 50.3101 23.5336 50.2421 23.6095 50.1773C23.6388 50.1523 23.6682 50.1255 23.696 50.1C23.7048 50.092 23.7134 50.0841 23.7218 50.0765C23.758 50.0436 23.792 50.0138 23.8257 49.9884L23.9191 49.9182L23.8353 49.8368C23.8056 49.8079 23.7748 49.7723 23.7414 49.7321C23.7336 49.7228 23.7257 49.7131 23.7176 49.7033C23.692 49.6724 23.665 49.6397 23.6383 49.6096C23.603 49.5699 23.5639 49.5298 23.5216 49.4984C23.4797 49.4672 23.4274 49.4391 23.3665 49.4342L23.3661 49.4341C22.8043 49.3916 22.2402 49.3915 21.6784 49.4341M21.7133 50.2412L21.6884 50.338C21.5793 50.31 21.4926 50.2293 21.4252 50.1556C21.3944 50.1219 21.3644 50.086 21.3364 50.0525C21.3328 50.0481 21.3292 50.0438 21.3256 50.0395C21.2938 50.0015 21.2647 49.9672 21.236 49.9378L21.1643 49.8643L21.2397 49.7945C21.2665 49.7697 21.2944 49.7387 21.325 49.7029C21.3326 49.6941 21.3405 49.6848 21.3485 49.6754C21.3715 49.6483 21.396 49.6194 21.4202 49.593C21.453 49.5572 21.4898 49.5205 21.5302 49.4918C21.5703 49.4633 21.6202 49.438 21.6784 49.4341M21.7133 50.2412C21.5997 50.212 21.5049 50.0983 21.4132 49.9884C21.3911 49.9619 21.3692 49.9356 21.3472 49.9108L23.3111 50.2342C23.0335 50.2677 22.7532 50.2728 22.4746 50.2496L22.4732 50.258C22.397 50.258 22.3198 50.2622 22.2426 50.2664C22.061 50.2764 21.8796 50.2863 21.7133 50.2412ZM21.6784 49.4341C21.6787 49.4341 21.6789 49.4341 21.6791 49.4341L21.6854 49.5339M21.6784 49.4341C21.6783 49.4341 21.6781 49.4341 21.6779 49.4341L21.6854 49.5339M21.6854 49.5339C21.595 49.5396 21.5103 49.6393 21.4258 49.7388C21.3952 49.7748 21.3647 49.8108 21.3339 49.8423L23.3585 49.5339C22.8016 49.4916 22.2423 49.4916 21.6854 49.5339ZM23.688 49.9725C23.6907 49.9751 23.6933 49.9777 23.6959 49.9802L23.7656 49.9085L23.7055 49.8286C23.7027 49.8306 23.7 49.8327 23.6973 49.8348L23.688 49.9725Z" fill="#E63E98" stroke="#E63E98" stroke-width="0.2"/>
<path d="M30.7621 50.3301C31.0226 50.3585 31.2851 50.3646 31.5467 50.3483L31.5898 50.3514C31.8936 50.3729 32.1986 50.3671 32.5014 50.3343L32.5014 50.3345L32.5085 50.3332C32.6064 50.3154 32.7087 50.244 32.7822 50.1711C32.8206 50.133 32.8557 50.09 32.8819 50.0458C32.907 50.0033 32.9294 49.9505 32.9294 49.8952V49.8833L32.9266 49.8717C32.9028 49.7732 32.8539 49.6825 32.7846 49.6086C32.7153 49.5347 32.628 49.4801 32.5313 49.4501L32.5195 49.4465L32.5073 49.4458C31.9071 49.4125 31.3055 49.4172 30.7059 49.4599C30.6453 49.4642 30.5964 49.4952 30.5602 49.5264C30.5235 49.558 30.4906 49.5982 30.4617 49.6368C30.4403 49.6654 30.4187 49.6967 30.3984 49.7261C30.3913 49.7363 30.3844 49.7464 30.3777 49.756C30.3505 49.7949 30.3259 49.8286 30.3021 49.8554L30.2332 49.9331L30.3135 49.999C30.3422 50.0226 30.3713 50.0507 30.4028 50.0822C30.41 50.0894 30.4174 50.0968 30.4249 50.1044C30.4492 50.1289 30.4751 50.1549 30.5008 50.179C30.5665 50.2406 30.6507 50.3091 30.7542 50.3289L30.7541 50.3292L30.7621 50.3301Z" fill="#E63E98" stroke="#E63E98" stroke-width="0.2"/>
<path d="M27.0115 50.3362C26.7397 50.352 26.4671 50.3471 26.196 50.3216L26.189 50.3209L26.1891 50.3207C26.1404 50.3126 26.0914 50.2903 26.0491 50.2657C26.0055 50.2404 25.9626 50.2086 25.9251 50.1756C25.888 50.1429 25.8531 50.1061 25.8278 50.0697C25.8152 50.0516 25.803 50.0308 25.7947 50.0084C25.787 49.9874 25.779 49.9555 25.7873 49.9201M27.0115 50.3362L25.8847 49.9424M27.0115 50.3362L27.0252 50.3372C27.3302 50.3584 27.6363 50.3531 27.9404 50.3215L27.9527 50.3202L27.9643 50.316C28.0569 50.2822 28.1404 50.2272 28.2081 50.1556C28.2759 50.0839 28.3261 49.9974 28.3547 49.903L28.3549 49.9024C28.3648 49.8693 28.361 49.8376 28.3557 49.8148C28.3501 49.7908 28.3406 49.7675 28.3301 49.7463C28.3089 49.7039 28.2782 49.66 28.2447 49.6209C28.211 49.5818 28.1714 49.5437 28.1302 49.5145C28.0933 49.4884 28.0411 49.4592 27.9838 49.458M27.0115 50.3362L27.9802 49.558M25.7873 49.9201C25.7873 49.9197 25.7874 49.9194 25.7875 49.9191L25.8847 49.9424M25.7873 49.9201C25.7872 49.9202 25.7872 49.9204 25.7871 49.9206L25.8847 49.9424M25.7873 49.9201C25.8077 49.829 25.8604 49.7225 25.9221 49.6378C25.9534 49.5949 25.9896 49.5539 26.029 49.5221C26.0666 49.4918 26.1171 49.4618 26.1756 49.4582L26.1758 49.4582C26.7779 49.4223 27.3816 49.4223 27.9838 49.458M25.8847 49.9424C25.9182 49.7928 26.0674 49.565 26.1817 49.558C26.7807 49.5223 27.3812 49.5223 27.9802 49.558M27.9838 49.458C27.9826 49.458 27.9814 49.458 27.9802 49.458V49.558M27.9838 49.458C27.9846 49.4581 27.9854 49.4581 27.9862 49.4582L27.9802 49.558" fill="#E63E98" stroke="#E63E98" stroke-width="0.2"/>
<path d="M35.3072 50.3242L35.3072 50.3245L35.3157 50.3255C35.5938 50.357 35.8742 50.3624 36.1533 50.3418C36.4324 50.3645 36.7131 50.3605 36.9914 50.3297L36.9915 50.3301L36.9999 50.3284C37.1033 50.3079 37.1848 50.2341 37.2462 50.1703C37.2708 50.1447 37.2954 50.1171 37.3184 50.0913C37.3251 50.0837 37.3317 50.0762 37.3382 50.0691C37.3677 50.0362 37.3948 50.007 37.4215 49.9827L37.4952 49.9155L37.4281 49.8416C37.4041 49.8151 37.3791 49.7818 37.3516 49.7435C37.3451 49.7344 37.3383 49.725 37.3315 49.7153C37.3106 49.686 37.2884 49.6547 37.2663 49.6262C37.237 49.5882 37.2036 49.5487 37.1663 49.5178C37.1294 49.4871 37.0801 49.4574 37.0197 49.4539L37.0139 49.5537L37.0206 49.454C36.4414 49.4152 35.8603 49.4152 35.2812 49.454L35.2811 49.454C35.2214 49.458 35.1721 49.4868 35.1344 49.5171C35.0963 49.5478 35.0619 49.5867 35.0316 49.6244C35.0089 49.6528 34.9859 49.6837 34.9642 49.7129C34.9571 49.7225 34.9501 49.7318 34.9434 49.7409C34.9148 49.7789 34.8888 49.8122 34.8637 49.8389L34.7921 49.9149L34.8712 49.9831C34.8999 50.0079 34.9291 50.0372 34.9607 50.0699C34.9676 50.0771 34.9747 50.0845 34.9819 50.0921C35.0065 50.1176 35.0325 50.1448 35.0583 50.1699C35.1227 50.2326 35.2063 50.3039 35.3072 50.3242Z" fill="#E63E98" stroke="#E63E98" stroke-width="0.2"/>
<path d="M8.55779 47.3761C8.5533 47.4289 8.57603 47.4723 8.59916 47.5025C8.62256 47.5331 8.65386 47.5601 8.68635 47.5839C8.75158 47.6317 8.84061 47.6799 8.9362 47.7277C9.00379 47.7615 9.07526 47.7953 9.14784 47.8297C9.28784 47.8961 9.43194 47.9644 9.56012 48.0375L9.61092 48.0665L9.66108 48.0364L10.6663 47.4339L10.8527 47.3222L10.6466 47.2533C10.5479 47.2203 10.4536 47.1829 10.3562 47.1441C10.2881 47.1171 10.2186 47.0894 10.145 47.0623C9.97296 46.9989 9.79156 46.9438 9.6046 46.9324C9.54666 46.9289 9.4839 46.9198 9.41417 46.9097C9.38608 46.9057 9.35686 46.9014 9.32636 46.8973C9.22493 46.8837 9.1129 46.8723 9.0076 46.8824C8.90137 46.8925 8.79251 46.9255 8.70684 47.009C8.62082 47.0928 8.57131 47.2148 8.55779 47.3761ZM8.55779 47.3761C8.55778 47.3761 8.55778 47.3761 8.55778 47.3762L8.65743 47.3845L8.55779 47.376C8.55779 47.376 8.55779 47.3761 8.55779 47.3761Z" fill="#E63E98" stroke="#E63E98" stroke-width="0.2"/>
<path d="M40.075 48.0503L40.027 48.0252C39.8964 47.957 39.7459 47.8903 39.5988 47.8251C39.5207 47.7906 39.4436 47.7564 39.371 47.7227C39.2693 47.6755 39.1752 47.6285 39.1066 47.5837C39.0726 47.5616 39.0397 47.5367 39.0149 47.5091C38.9922 47.4838 38.9608 47.439 38.9672 47.3806M40.075 48.0503L39.8431 46.9104C39.8226 46.9072 39.8017 46.904 39.7801 46.9007C39.675 46.8848 39.5584 46.8699 39.4484 46.8773C39.3375 46.8847 39.2231 46.9154 39.1318 46.9998C39.04 47.0846 38.9853 47.2108 38.9672 47.3806M40.075 48.0503L40.1222 48.0238M40.075 48.0503L40.1222 48.0238M38.9672 47.3806C38.9672 47.3805 38.9672 47.3804 38.9672 47.3803L39.0666 47.3914L38.9672 47.3808C38.9672 47.3807 38.9672 47.3807 38.9672 47.3806ZM40.1222 48.0238L41.1093 47.4702L41.2983 47.3642M40.1222 48.0238L41.2983 47.3642M41.2983 47.3642L41.095 47.2892M41.2983 47.3642L41.095 47.2892M41.095 47.2892C40.995 47.2522 40.9 47.2095 40.8017 47.1653C40.737 47.1361 40.6708 47.1064 40.6008 47.0772C40.432 47.0068 40.2525 46.9455 40.0663 46.9378L41.095 47.2892Z" fill="#E63E98" stroke="#E63E98" stroke-width="0.2"/>
<path d="M41.1055 44.8949C41.1165 44.8309 41.0768 44.7843 41.0572 44.7643C41.0328 44.7395 41.0006 44.7169 40.9675 44.6966C40.9001 44.6552 40.8068 44.6101 40.7041 44.5635C40.6334 44.5314 40.5577 44.4983 40.48 44.4643C40.3265 44.3972 40.1655 44.3268 40.0214 44.2546L39.9741 44.2308L38.9388 44.8986L39.0383 44.8892L38.9388 44.8987C38.9539 45.058 39.0049 45.1777 39.0927 45.2588C39.1798 45.3391 39.2892 45.3688 39.3948 45.377C39.4997 45.3852 39.6115 45.3728 39.7123 45.3597C39.7308 45.3573 39.7488 45.3549 39.7664 45.3526C39.8492 45.3415 39.9227 45.3316 39.9884 45.3303L39.9864 45.2303L39.9883 45.3303C40.0657 45.3288 40.1534 45.3403 40.2526 45.3533C40.2598 45.3543 40.2671 45.3552 40.2745 45.3562C40.3785 45.3698 40.4941 45.3839 40.6031 45.3773C40.7133 45.3706 40.8271 45.3423 40.9212 45.2625C41.0158 45.1822 41.0774 45.061 41.1055 44.8949ZM41.1055 44.8949C41.1055 44.895 41.1055 44.8951 41.1054 44.8953L41.0069 44.878L41.1055 44.8947C41.1055 44.8947 41.1055 44.8948 41.1055 44.8949Z" fill="#E63E98" stroke="#E63E98" stroke-width="0.2"/>
<path d="M12.032 52.7682C11.9645 52.7621 11.8901 52.7636 11.8149 52.7652C11.5314 52.771 11.2361 52.777 11.2526 52.3726C11.2584 52.2562 11.48 52.1484 11.7009 52.041C11.7671 52.0088 11.8333 51.9766 11.8936 51.9443L12.032 52.7682ZM12.3019 51.9369L12.302 51.9367L12.2956 51.9339C12.2433 51.9116 12.1873 51.9143 12.1503 51.9174C12.1336 51.9187 12.12 51.9202 12.1079 51.9216L12.0687 51.8477L12.0186 51.7532L11.9277 51.8095C11.8686 51.8462 11.7956 51.8833 11.7162 51.9223C11.6972 51.9316 11.6779 51.941 11.6583 51.9505C11.5976 51.9801 11.535 52.0105 11.4773 52.0409C11.4015 52.081 11.3271 52.1245 11.2701 52.1718C11.2169 52.216 11.157 52.2811 11.1527 52.3677L11.1527 52.3677L11.1527 52.3685C11.1469 52.5109 11.1751 52.6246 11.2421 52.7086C11.3092 52.7925 11.4026 52.8312 11.4942 52.8494C11.5845 52.8673 11.6836 52.8675 11.7731 52.866C11.7885 52.8657 11.8036 52.8654 11.8185 52.8651C11.8911 52.8637 11.9566 52.8623 12.0163 52.8673C12.0971 52.8853 12.1809 52.8847 12.2615 52.8655L12.2724 52.8629L12.2825 52.858C12.4469 52.777 12.6115 52.6887 12.7746 52.6012C12.8441 52.5639 12.9133 52.5268 12.9821 52.4904L13.1442 52.4048L12.9845 52.3149C12.9304 52.2844 12.8761 52.2535 12.8216 52.2224C12.6509 52.1252 12.4781 52.0268 12.3019 51.9369Z" fill="#E63E98" stroke="#E63E98" stroke-width="0.2"/>
<path d="M9.49266 45.5126L9.53825 45.54L9.58646 45.5175C9.72061 45.455 9.8718 45.3947 10.0186 45.3362C10.0995 45.3039 10.1791 45.2722 10.2538 45.2409C10.3558 45.1982 10.4498 45.1557 10.5183 45.115C10.5522 45.0949 10.5852 45.0721 10.6105 45.0463C10.6331 45.0232 10.6678 44.9789 10.6614 44.9186L10.6613 44.9181C10.6422 44.7478 10.5873 44.6218 10.496 44.5372C10.4049 44.4529 10.2913 44.4225 10.1814 44.415C10.0726 44.4075 9.9569 44.4219 9.85323 44.4362C9.84062 44.438 9.8282 44.4397 9.81598 44.4414C9.72338 44.4544 9.64209 44.4658 9.57068 44.4658L9.56981 44.4658C9.39159 44.4673 9.21854 44.5214 9.05636 44.5842C8.98959 44.61 8.92656 44.6365 8.86501 44.6623C8.77001 44.7022 8.67854 44.7405 8.58231 44.773L8.37747 44.842L8.56273 44.9534L9.49266 45.5126Z" fill="#E63E98" stroke="#E63E98" stroke-width="0.2"/>
<path d="M40.1999 49.4466C40.0464 49.4459 39.9017 49.5186 39.7753 49.5966C39.7212 49.63 39.667 49.6667 39.6148 49.702C39.605 49.7087 39.5952 49.7153 39.5855 49.7218C39.5234 49.7637 39.4642 49.8028 39.406 49.8355L39.2571 49.9194L39.4031 50.0081L40.2243 50.5072L40.2791 50.5405L40.3322 50.5046L41.1172 49.9748L41.2684 49.8727L41.101 49.8002C41.0331 49.7708 40.9644 49.7353 40.893 49.6972C40.878 49.6892 40.8628 49.6811 40.8475 49.6729C40.7911 49.6427 40.733 49.6115 40.6752 49.5829C40.5289 49.5108 40.3681 49.4467 40.1999 49.4466ZM40.1999 49.4466C40.1998 49.4466 40.1997 49.4466 40.1996 49.4466V49.5466L40.2001 49.4466C40.2001 49.4466 40.2 49.4466 40.1999 49.4466ZM39.4551 49.9227L39.507 49.8372L39.5515 49.8642C39.5193 49.8849 39.4872 49.9046 39.4551 49.9227ZM39.4551 49.9227L39.5042 50.0098C39.5202 50.0008 39.5362 49.9913 39.5522 49.9817L39.4551 49.9227Z" fill="#E63E98" stroke="#E63E98" stroke-width="0.2"/>
<path d="M9.1576 52.9878L9.23583 53.0556L9.30089 52.9751L9.3821 52.8746C9.39287 52.8754 9.4042 52.8765 9.41617 52.8777C9.42266 52.8784 9.42945 52.8791 9.43643 52.8798C9.46033 52.8823 9.48656 52.8851 9.51167 52.8867C9.57328 52.8909 9.65811 52.8916 9.72957 52.8481L9.72964 52.8482L9.734 52.8453C9.90806 52.7264 10.0716 52.5927 10.2227 52.4457L10.3022 52.3684L10.2172 52.2973C10.0579 52.1642 9.88877 52.0435 9.71121 51.9362L9.70433 51.932L9.69688 51.929C9.56374 51.8753 9.41504 51.8753 9.2819 51.929L9.3193 52.0218L9.28262 51.9287C9.10107 52.0003 8.92388 52.0905 8.75209 52.1779C8.68444 52.2124 8.61763 52.2464 8.55173 52.2787L8.41605 52.3451L8.53021 52.444L9.1576 52.9878Z" fill="#E63E98" stroke="#E63E98" stroke-width="0.2"/>
<path d="M34.2652 52.9472L34.296 52.9563L34.9643 52.1426L34.9678 52.0426C34.9676 52.0426 34.9674 52.0426 34.9672 52.0426C34.5222 52.0269 34.0767 52.0373 33.633 52.0736L33.633 52.0735L33.627 52.0743C33.5919 52.0793 33.5715 52.1005 33.5651 52.1074C33.5569 52.1165 33.5518 52.1253 33.5492 52.1302C33.5437 52.1404 33.5399 52.1506 33.5375 52.1576C33.5324 52.1728 33.5278 52.1912 33.5237 52.2099C33.5155 52.2481 33.5075 52.2976 33.5022 52.3479C33.4969 52.3976 33.4939 52.4521 33.4969 52.4992C33.4984 52.5224 33.5016 52.5479 33.5087 52.5717C33.5147 52.592 33.529 52.6297 33.5657 52.6546L33.5654 52.6549L33.5737 52.6595C33.7935 52.7795 34.0253 52.876 34.2652 52.9472Z" fill="#E63E98" stroke="#E63E98" stroke-width="0.2"/>
<path d="M40.4627 51.8181L40.3815 51.7563L40.3214 51.8388L40.2621 51.92C40.1552 51.908 40.0468 51.9143 39.9417 51.9387L39.9269 51.9422L39.9137 51.9499C39.7339 52.0556 39.5624 52.1749 39.4007 52.3067L39.3124 52.3786L39.3951 52.4568C39.5486 52.602 39.7138 52.734 39.8892 52.8517L39.8963 52.8565L39.9042 52.86C39.9691 52.8889 40.0392 52.9047 40.1102 52.9065C40.1813 52.9082 40.252 52.8959 40.3184 52.8703L40.3184 52.8703L40.3188 52.8701C40.5136 52.7936 40.7041 52.6997 40.8897 52.6083C40.9659 52.5707 41.0412 52.5336 41.1157 52.4983L41.2641 52.4278L41.1333 52.3284L40.4627 51.8181Z" fill="#E63E98" stroke="#E63E98" stroke-width="0.2"/>
<path d="M14.764 52.8826L14.764 52.8833L14.7753 52.8826C14.8035 52.8808 14.8352 52.8818 14.8727 52.8836C14.8801 52.884 14.8879 52.8844 14.8959 52.8848C14.9261 52.8864 14.9593 52.8881 14.9922 52.8885C15.0755 52.8894 15.1743 52.8823 15.2664 52.8333C15.3561 52.7857 15.4233 52.7088 15.4781 52.6369C15.4998 52.6084 15.5211 52.5784 15.5413 52.55C15.5468 52.5423 15.5522 52.5348 15.5575 52.5274C15.583 52.4917 15.6072 52.4587 15.6321 52.429L15.722 52.3218L15.5915 52.2715C15.5047 52.238 15.4228 52.2001 15.3378 52.1607C15.2814 52.1347 15.2237 52.1079 15.1622 52.0814C15.0151 52.018 14.8578 51.9616 14.6931 51.9491L14.6931 51.9491L14.6906 51.949C14.5532 51.942 14.4195 51.9954 14.3023 52.0529C14.2565 52.0754 14.2102 52.1001 14.1657 52.1239C14.1525 52.1309 14.1394 52.1379 14.1266 52.1447C14.0693 52.175 14.015 52.2028 13.9621 52.2251L13.8577 52.2692L13.9144 52.3673C14.0116 52.5353 14.1319 52.6887 14.272 52.8228L14.2713 52.8235L14.2828 52.8318C14.359 52.8866 14.4567 52.8901 14.5314 52.8887C14.5648 52.8881 14.5951 52.8865 14.6241 52.8849C14.6718 52.8824 14.7158 52.8801 14.764 52.8826Z" fill="#E63E98" stroke="#E63E98" stroke-width="0.2"/>
<path d="M9.30051 50.5306L9.35715 50.5745L9.41687 50.5349L10.2157 50.0065L10.3498 49.9179L10.211 49.8368C10.1587 49.8062 10.1052 49.7688 10.0488 49.728C10.0359 49.7187 10.0229 49.7091 10.0096 49.6995C9.96608 49.6677 9.92078 49.6347 9.87594 49.6045C9.76157 49.5274 9.62655 49.4513 9.4816 49.4513L9.48015 49.4513C9.31361 49.4537 9.15403 49.5128 9.00722 49.5801C8.94859 49.6069 8.88973 49.6362 8.83255 49.6646C8.81787 49.672 8.8033 49.6792 8.78888 49.6863C8.71725 49.7218 8.64804 49.7551 8.5795 49.783L8.41863 49.8484L8.556 49.9547L9.30051 50.5306Z" fill="#E63E98" stroke="#E63E98" stroke-width="0.2"/>
<path d="M40.5626 13.4709L40.5617 13.5709C43.6044 13.5988 46.6472 13.5988 49.69 13.5709L49.6902 13.5709C49.8486 13.5691 49.9954 13.4855 50.1214 13.4003C50.1662 13.3699 50.2119 13.3368 50.256 13.3048C50.2746 13.2913 50.293 13.278 50.3109 13.2652C50.3728 13.2209 50.4316 13.1807 50.4892 13.1486L50.6507 13.0587L50.487 12.9727C50.4325 12.9441 50.3769 12.9087 50.3182 12.8698C50.3034 12.8599 50.2883 12.8498 50.2729 12.8395C50.229 12.8101 50.1833 12.7795 50.1381 12.7514C50.0181 12.6769 49.8789 12.6052 49.7292 12.6048C48.578 12.5796 47.4263 12.5828 46.2761 12.5859C45.8929 12.587 45.51 12.588 45.1272 12.588L45.1271 12.588C44.7272 12.5884 44.327 12.5875 43.9267 12.5866C42.8172 12.5841 41.707 12.5816 40.5994 12.6062M40.5626 13.4709V13.5709C40.4035 13.5709 40.2562 13.4872 40.1302 13.4015C40.0834 13.3696 40.0359 13.3348 39.9902 13.3013C39.9735 13.289 39.9569 13.2769 39.9408 13.2652C39.8789 13.2203 39.8203 13.1795 39.7629 13.1467L39.5957 13.0512L39.77 12.9694C39.8494 12.9321 39.9239 12.8878 40.0028 12.8408C40.0518 12.8117 40.1025 12.7816 40.1572 12.7514C40.2908 12.6778 40.4406 12.6096 40.5994 12.6062M40.5626 13.4709C43.6047 13.4988 46.6469 13.4988 49.689 13.4709C49.8591 13.469 50.0273 13.3471 50.1958 13.225C50.2447 13.1895 50.2937 13.154 50.3427 13.1214M40.5626 13.4709L50.3427 13.1214M40.5994 12.6062C40.5994 12.6062 40.5994 12.6062 40.5994 12.6062L40.6016 12.7062L40.5995 12.6062C40.5995 12.6062 40.5995 12.6062 40.5994 12.6062ZM39.8125 13.0599L39.8621 12.9731C39.8805 12.9836 39.8988 12.9947 39.917 13.0062C39.8822 13.0254 39.8473 13.0435 39.8125 13.0599ZM39.8125 13.0599L39.855 13.1504C39.8737 13.1416 39.8926 13.1322 39.9117 13.1223C39.8787 13.0999 39.8456 13.0788 39.8125 13.0599ZM50.3427 13.1214C50.3597 13.1313 50.3768 13.1408 50.394 13.1498L50.4405 13.0613L50.3919 12.9739C50.3749 12.9834 50.3579 12.9934 50.3411 13.0037C50.2994 12.9776 50.2577 12.9497 50.216 12.9217C50.0541 12.8133 49.8921 12.7048 49.7281 12.7048C48.5778 12.6796 47.4276 12.6828 46.2773 12.6859C45.8939 12.687 45.5106 12.688 45.1272 12.688L50.3427 13.1214Z" fill="#E63E98" stroke="#E63E98" stroke-width="0.2"/>
<path d="M26.6654 13.0537L26.6655 13.0537L26.6654 13.0503C26.6609 12.8926 26.6253 12.7373 26.5607 12.5933C26.4961 12.4494 26.4037 12.3197 26.2889 12.2116C26.1741 12.1036 26.0391 12.0194 25.8916 11.9638C25.7454 11.9088 25.5899 11.883 25.4339 11.8879C25.2703 11.8809 25.1071 11.9082 24.9547 11.9681C24.801 12.0285 24.6618 12.1206 24.5459 12.2385C24.4301 12.3563 24.3403 12.4973 24.2824 12.6522C24.225 12.8059 24.2001 12.97 24.2096 13.1338C24.208 13.2917 24.2385 13.4482 24.2992 13.5939C24.3603 13.7408 24.4509 13.8735 24.5653 13.9839C24.6797 14.0943 24.8154 14.18 24.9642 14.2357C25.1123 14.2912 25.2703 14.3157 25.4283 14.3078C25.7569 14.3026 26.0704 14.1685 26.3016 13.9344C26.5333 13.6999 26.6639 13.3836 26.6654 13.0537Z" fill="#E63E98" stroke="#E63E98" stroke-width="0.2"/>
<path d="M29.1112 14.2062C29.2601 14.2634 29.4189 14.2902 29.5783 14.285C29.7377 14.2902 29.8965 14.2634 30.0454 14.2062C30.1954 14.1485 30.3323 14.0612 30.4479 13.9494C30.5634 13.8375 30.6553 13.7035 30.7181 13.5553C30.7809 13.4072 30.8132 13.2478 30.8132 13.0868C30.8132 12.9258 30.7809 12.7665 30.7181 12.6183C30.6553 12.4701 30.5634 12.3361 30.4479 12.2243C30.3323 12.1124 30.1954 12.0251 30.0454 11.9674C29.8965 11.9102 29.7377 11.8835 29.5783 11.8887C29.4189 11.8835 29.2601 11.9102 29.1112 11.9674C28.9612 12.0251 28.8243 12.1124 28.7087 12.2243C28.5932 12.3361 28.5012 12.4701 28.4385 12.6183C28.3757 12.7665 28.3434 12.9258 28.3434 13.0868C28.3434 13.2478 28.3757 13.4072 28.4385 13.5553C28.5012 13.7035 28.5932 13.8375 28.7087 13.9494C28.8243 14.0612 28.9612 14.1485 29.1112 14.2062Z" fill="#E63E98" stroke="#E63E98" stroke-width="0.2"/>
<path d="M33.3222 14.2169C33.4704 14.2714 33.628 14.2952 33.7856 14.2868C33.9434 14.2851 34.0991 14.2515 34.2436 14.1881C34.3888 14.1243 34.5196 14.0317 34.6281 13.9159C34.7366 13.8001 34.8206 13.6635 34.875 13.5143C34.9293 13.3655 34.953 13.2072 34.9447 13.049C34.935 12.7323 34.8003 12.4324 34.5701 12.2151C34.3397 11.9975 34.0325 11.8805 33.716 11.89C33.3995 11.8996 33.0998 12.0347 32.8828 12.2658C32.6661 12.4964 32.5496 12.8037 32.5587 13.1203C32.5587 13.2786 32.5908 13.4354 32.6531 13.5809C32.7156 13.727 32.8071 13.8587 32.9222 13.9681C33.0373 14.0774 33.1734 14.1621 33.3222 14.2169Z" fill="#E63E98" stroke="#E63E98" stroke-width="0.2"/>
<path d="M54.647 13.5752L54.7113 13.5705C55.035 13.5882 55.3596 13.5799 55.6821 13.5455L55.6821 13.5458L55.6897 13.5444C55.7973 13.5245 55.8929 13.4397 55.9611 13.356C56.0321 13.2689 56.0912 13.1613 56.1178 13.0644L56.1178 13.0644L56.1181 13.0634C56.1282 13.025 56.1189 12.99 56.111 12.9686C56.1023 12.945 56.0894 12.9223 56.0757 12.902C56.0483 12.8612 56.0102 12.8186 55.969 12.7802C55.9276 12.7416 55.88 12.7044 55.8319 12.6756C55.7864 12.6484 55.7298 12.6224 55.6727 12.6193C55.0004 12.5828 54.3265 12.5828 53.6542 12.6193L53.6542 12.6193L53.6537 12.6193C53.5918 12.623 53.5391 12.6503 53.4967 12.6814C53.4543 12.7125 53.4156 12.7523 53.3809 12.7914C53.3578 12.8175 53.3338 12.8463 53.311 12.8738C53.3002 12.8867 53.2897 12.8993 53.2797 12.9112C53.2468 12.9502 53.2163 12.9843 53.1865 13.0116L53.1064 13.0846L53.1857 13.1586C53.2165 13.1872 53.2474 13.2215 53.2806 13.2598C53.2886 13.269 53.2969 13.2786 53.3053 13.2884C53.3304 13.3176 53.357 13.3485 53.3834 13.377C53.4512 13.4503 53.5404 13.5343 53.6537 13.5556L53.6536 13.5558L53.6612 13.5567C53.9885 13.5928 54.3185 13.599 54.647 13.5752ZM53.3235 13.0136C53.3457 12.9885 53.3676 12.9621 53.3894 12.9359C53.478 12.8292 53.5648 12.7248 53.6596 12.7192C54.3284 12.6828 54.9986 12.6828 55.6673 12.7192L53.3235 13.0136Z" fill="#E63E98" stroke="#E63E98" stroke-width="0.2"/>
<path d="M39.969 31.2567C39.8755 31.5351 39.7873 31.8161 39.6895 32.1276C39.6397 32.2863 39.5874 32.4528 39.5307 32.6309L39.5157 32.6779L42.4869 26.2391L42.5822 26.2695C42.5822 26.2694 42.5822 26.2693 42.5823 26.2692C42.6245 26.1364 42.5914 25.9915 42.5527 25.8677C42.5379 25.8203 42.5208 25.7716 42.5043 25.7249C42.4988 25.7091 42.4933 25.6936 42.488 25.6785C42.4666 25.6168 42.4478 25.5592 42.4351 25.5049L42.3934 25.3261L42.2658 25.4581C42.2259 25.4994 42.1804 25.5399 42.1314 25.5822C42.1195 25.5925 42.1073 25.603 42.0949 25.6136C42.0575 25.6456 42.0187 25.6789 41.982 25.7124C41.8853 25.8008 41.7866 25.9057 41.7402 26.0366L41.7401 26.0368C41.2364 27.47 40.7545 28.9098 40.2728 30.3492C40.1716 30.6518 40.0704 30.9543 39.969 31.2567ZM39.969 31.2567L40.0638 31.2885M39.969 31.2567C39.969 31.2567 39.969 31.2567 39.969 31.2567L40.0638 31.2885M40.0638 31.2885C39.9706 31.5661 39.8829 31.8455 39.7853 32.1563C39.7354 32.3151 39.683 32.4821 39.626 32.6613L39.8447 32.9758M40.0638 31.2885L39.8447 32.9758M39.9809 32.9965C40.0152 32.9714 40.0512 32.947 40.0871 32.9225C40.2271 32.8272 40.3671 32.7319 40.4109 32.604L39.9809 32.9965ZM39.9809 32.9965L39.9841 33.0012L39.902 33.0583L39.8369 32.9824C39.8395 32.9802 39.8421 32.978 39.8447 32.9758M39.9809 32.9965L39.8447 32.9758M41.8344 26.07C41.8861 25.9241 42.0226 25.8072 42.159 25.6904C42.1914 25.6626 42.2237 25.6349 42.255 25.6068C42.2497 25.588 42.2447 25.5691 42.2404 25.5503L42.3377 25.5276L42.4097 25.5971C42.3964 25.6108 42.3827 25.6243 42.3688 25.6376L41.8344 26.07Z" fill="#E63E98" stroke="#E63E98" stroke-width="0.2"/>
<path d="M45.4225 29.2684C45.5606 29.3832 45.7022 29.5009 45.8474 29.6234C45.6968 29.7544 45.5504 29.88 45.4079 30.0024C44.9826 30.3674 44.5916 30.7029 44.2232 31.0633C44.1362 31.1478 44.0978 31.2688 44.0725 31.3751C44.0627 31.4161 44.0541 31.459 44.0459 31.4998C44.0432 31.513 44.0406 31.5261 44.038 31.5388C44.027 31.5921 44.0161 31.6411 44.0023 31.6853L43.9596 31.8226L44.1031 31.8149C44.1493 31.8124 44.2004 31.8145 44.2566 31.8181C44.2712 31.819 44.2863 31.82 44.3017 31.8211C44.3435 31.824 44.3876 31.827 44.4296 31.8283C44.54 31.8318 44.6755 31.8265 44.776 31.7499L44.776 31.7499L44.7768 31.7493C45.475 31.2067 46.1454 30.629 46.7855 30.0186C46.8368 29.972 46.8627 29.9004 46.8769 29.8381C46.8923 29.7707 46.8984 29.6937 46.8968 29.6185C46.8952 29.5431 46.8857 29.4657 46.8677 29.3973C46.8506 29.3322 46.8223 29.2617 46.7735 29.214L46.7735 29.214C46.1736 28.627 45.541 28.0747 44.8786 27.5597L44.8786 27.5597L44.8774 27.5588C44.7683 27.4766 44.6225 27.4532 44.4919 27.4419C44.4418 27.4376 44.3897 27.4348 44.3396 27.4322C44.3229 27.4313 44.3064 27.4305 44.2903 27.4295C44.2243 27.4258 44.1626 27.4213 44.1059 27.4126L43.942 27.3876L43.9963 27.5442C44.0145 27.5966 44.0293 27.6541 44.0441 27.7161C44.0478 27.7317 44.0516 27.7477 44.0554 27.7639C44.0663 27.8106 44.0777 27.8592 44.0903 27.9059C44.1238 28.0299 44.1718 28.1654 44.2707 28.2612C44.6252 28.6056 45.0082 28.924 45.4225 29.2684Z" fill="#E63E98" stroke="#E63E98" stroke-width="0.2"/>
<path d="M36.0281 29.6336C36.174 29.7593 36.3158 29.8794 36.4537 29.9961C36.852 30.3334 37.2173 30.6426 37.5538 30.978C37.6515 31.0752 37.6982 31.2104 37.7305 31.3347C37.7429 31.3823 37.754 31.4319 37.7646 31.4795C37.768 31.4948 37.7714 31.51 37.7748 31.5248C37.7889 31.587 37.8031 31.645 37.8207 31.6982L37.8738 31.8588L37.7075 31.8279C37.6562 31.8184 37.6004 31.8127 37.5402 31.8076C37.5257 31.8064 37.5109 31.8052 37.4958 31.804C37.4498 31.8003 37.4017 31.7964 37.3554 31.791C37.2341 31.777 37.0987 31.7505 36.9938 31.6688C36.9937 31.6688 36.9937 31.6687 36.9936 31.6687L36.0281 29.6336ZM36.0281 29.6336C36.1629 29.516 36.2952 29.402 36.4249 29.2901C36.8488 28.9246 37.2457 28.5824 37.6148 28.2165C37.7078 28.1249 37.7434 27.9908 37.7652 27.8737C37.7735 27.8286 37.7806 27.7813 37.7873 27.7362C37.7895 27.7212 37.7917 27.7064 37.7939 27.692C37.803 27.6327 37.8124 27.5782 37.8253 27.529L37.865 27.3774L37.7108 27.4053C37.6599 27.4144 37.6046 27.4197 37.5448 27.4243C37.5297 27.4255 37.5141 27.4266 37.4982 27.4277C37.4534 27.431 37.4066 27.4344 37.3615 27.4392C37.2418 27.4519 37.107 27.4767 37.0036 27.5574C36.6165 27.8575 36.243 28.1824 35.8718 28.5055C35.6473 28.7007 35.4237 28.8953 35.1982 29.0834C35.0048 29.2439 34.8802 29.4171 34.8757 29.6101C34.8712 29.8047 34.9892 29.981 35.1853 30.1454L36.0281 29.6336Z" fill="#E63E98" stroke="#E63E98" stroke-width="0.2"/>
</svg>
