<svg width="89" height="86" viewBox="0 0 89 86" fill="none" xmlns="http://www.w3.org/2000/svg">
<g clip-path="url(#clip0)">
<path fill-rule="evenodd" clip-rule="evenodd" d="M3.72803 63.954V82.045H10.2375V85.1661H0.261719V63.954H3.72803ZM22.4727 72.954V71.0449H25.7579V85.1669H22.4735V83.257C22.0308 83.9643 21.4039 84.5201 20.5896 84.9236C19.7761 85.3279 18.9572 85.5296 18.1335 85.5296C17.0679 85.5296 16.0936 85.3334 15.2098 84.9393C14.3485 84.5617 13.5738 84.0096 12.9341 83.3175C12.3003 82.6291 11.7998 81.8277 11.4585 80.9547C11.1028 80.0475 10.9234 79.0802 10.93 78.1051C10.93 77.116 11.1057 76.1709 11.4578 75.2713C11.7969 74.3922 12.2977 73.5853 12.9341 72.8928C13.574 72.2011 14.3486 71.6493 15.2098 71.2717C16.0936 70.8777 17.0679 70.6814 18.1335 70.6814C18.9572 70.6814 19.7761 70.8832 20.5896 71.2874C21.4031 71.6917 22.0308 72.2467 22.4735 72.954H22.4727ZM22.1713 79.8329C22.3737 79.28 22.476 78.6951 22.4735 78.1059C22.4735 77.4991 22.372 76.9237 22.1713 76.3789C21.983 75.8544 21.6969 75.3708 21.3282 74.9542C20.9602 74.5455 20.5141 74.2156 20.0166 73.9839C19.5045 73.7421 18.9369 73.6204 18.3147 73.6204C17.6909 73.6204 17.128 73.7421 16.626 73.9839C16.1347 74.2184 15.6943 74.5481 15.33 74.9542C14.9626 75.3686 14.6812 75.8528 14.5025 76.3781C14.3094 76.9331 14.2122 77.5172 14.2152 78.1051C14.2152 78.7111 14.3104 79.2873 14.5017 79.8321C14.6922 80.3785 14.9686 80.8526 15.3308 81.2569C15.6949 81.6631 16.1354 81.9929 16.6268 82.2271C17.128 82.4697 17.6909 82.5906 18.3139 82.5906C18.9369 82.5906 19.5045 82.4697 20.0166 82.2271C20.5142 81.9957 20.9603 81.6657 21.3282 81.2569C21.6969 80.8405 21.983 80.3572 22.1713 79.8329ZM28.3498 85.1661V71.0449H37.2709V74.2955H31.6342V85.1677H28.3498V85.1661ZM49.175 72.954V71.0449H52.4602V85.1669H49.175V83.257C48.7332 83.9643 48.1055 84.5201 47.2912 84.9236C46.4777 85.3279 45.6595 85.5296 44.8351 85.5296C43.7702 85.5296 42.7959 85.3334 41.9122 84.9393C41.0508 84.5617 40.2761 84.0096 39.6364 83.3175C39.0023 82.6292 38.5016 81.8278 38.1601 80.9547C37.8047 80.0475 37.6255 79.0802 37.6324 78.1051C37.6324 77.116 37.808 76.1709 38.1601 75.2713C38.499 74.3923 38.9996 73.5854 39.6356 72.8928C40.2757 72.201 41.0507 71.6492 41.9122 71.2717C42.7959 70.8777 43.7702 70.6814 44.8351 70.6814C45.6587 70.6814 46.4777 70.8832 47.2912 71.2874C48.1055 71.6917 48.7332 72.2467 49.175 72.954ZM48.8737 79.8329C49.0757 79.2799 49.1778 78.695 49.175 78.1059C49.175 77.4991 49.0735 76.9237 48.8737 76.3789C48.6854 75.8544 48.3992 75.3708 48.0305 74.9542C47.6625 74.5455 47.2164 74.2156 46.7189 73.9839C46.2068 73.7421 45.6384 73.6204 45.0162 73.6204C44.3932 73.6204 43.8303 73.7421 43.3284 73.9839C42.837 74.2184 42.3966 74.5481 42.0324 74.9542C41.6646 75.3686 41.383 75.8527 41.2041 76.3781C41.0112 76.9331 40.9143 77.5172 40.9175 78.1051C40.9175 78.7111 41.012 79.2873 41.2041 79.8321C41.3946 80.3785 41.6709 80.8526 42.0324 81.2569C42.3965 81.6631 42.8369 81.9929 43.3284 82.2271C43.8303 82.4697 44.3932 82.5906 45.0162 82.5906C45.6384 82.5906 46.2068 82.4697 46.7189 82.2271C47.2166 81.9957 47.6627 81.6657 48.0305 81.2569C48.3992 80.8405 48.6854 80.3572 48.8737 79.8329ZM65.6299 71.0449H68.9572L63.5665 85.1669H59.4366L54.045 71.0449H57.3724L61.5015 81.859L65.6299 71.0449ZM76.1225 70.6814C80.5951 70.6814 83.6453 74.6676 83.0723 79.3329H72.1745C72.1745 80.5512 73.3979 82.9061 76.3028 82.9061C78.8011 82.9061 80.4757 80.6964 80.4765 80.6948L82.696 82.4218C80.7115 84.5515 79.0868 85.5304 76.5425 85.5304C71.9965 85.5304 68.9151 82.6385 68.9151 78.1059C68.9151 74.0059 72.0995 70.6814 76.1217 70.6814H76.1225ZM72.1831 76.8782H80.0557C80.0315 76.6066 79.6044 73.3049 76.096 73.3049C72.5867 73.3049 72.2081 76.6066 72.1831 76.8782ZM85.2114 85.1661V63.954H88.4966V85.1661H85.2114Z" fill="#999999"/>
</g>
<path fill-rule="evenodd" clip-rule="evenodd" d="M73.7105 13.1611C73.7322 13.2387 73.7433 13.3186 73.7435 13.399V25.8865C73.7435 26.0468 73.6997 26.2042 73.6166 26.3429C73.5335 26.4816 73.4139 26.5966 73.27 26.6763L62.4231 32.7107V44.6712C62.4231 44.9967 62.244 45.2972 61.9519 45.4611L39.3098 58.0556C39.258 58.084 39.2015 58.1022 39.1449 58.1216C39.1237 58.1284 39.1037 58.1409 39.0813 58.1466C38.923 58.1869 38.7567 58.1869 38.5984 58.1466C38.5725 58.1398 38.5489 58.1261 38.5242 58.117C38.4724 58.0988 38.4182 58.0829 38.3687 58.0556L15.7313 45.4611C15.5875 45.3813 15.468 45.2662 15.3849 45.1275C15.3018 44.9889 15.2579 44.8315 15.2578 44.6712V7.20873C15.2578 7.12679 15.2696 7.04712 15.2908 6.96972C15.2979 6.94355 15.3144 6.91965 15.3238 6.89347C15.3414 6.84567 15.3579 6.79673 15.3838 6.75234C15.4015 6.72275 15.4274 6.69885 15.4486 6.67154C15.4757 6.63512 15.5005 6.59756 15.5323 6.56569C15.5593 6.53951 15.5947 6.52017 15.6253 6.4974C15.6595 6.47009 15.6901 6.4405 15.729 6.41887L27.0494 0.121633C27.1927 0.0419419 27.3552 0 27.5206 0C27.6859 0 27.8484 0.0419419 27.9917 0.121633L39.311 6.41887H39.3134C39.351 6.44164 39.3828 6.47009 39.417 6.49627C39.4476 6.51903 39.4818 6.53951 39.5089 6.56455C39.5419 6.59756 39.5654 6.63512 39.5937 6.67154C39.6137 6.69885 39.6408 6.72275 39.6573 6.75234C39.6844 6.79787 39.6997 6.84567 39.7185 6.89347C39.728 6.91965 39.7444 6.94355 39.7515 6.97086C39.7732 7.04842 39.7843 7.12839 39.7845 7.20873V30.6074L49.2168 25.3595V13.3978C49.2168 13.3182 49.2286 13.2374 49.2498 13.1611C49.2581 13.1338 49.2734 13.1099 49.2828 13.0837C49.3016 13.0359 49.3181 12.987 49.344 12.9426C49.3617 12.913 49.3876 12.8891 49.4077 12.8618C49.4359 12.8254 49.4595 12.7878 49.4925 12.7559C49.5196 12.7298 49.5537 12.7104 49.5843 12.6877C49.6197 12.6603 49.6503 12.6308 49.688 12.6091L61.0096 6.31189C61.1529 6.23209 61.3154 6.19008 61.4808 6.19008C61.6462 6.19008 61.8086 6.23209 61.9519 6.31189L73.2712 12.6091C73.3112 12.6319 73.3419 12.6603 73.3772 12.6865C73.4067 12.7093 73.4408 12.7298 73.4679 12.7548C73.5009 12.7878 73.5244 12.8254 73.5527 12.8618C73.5739 12.8891 73.5998 12.913 73.6163 12.9426C73.6434 12.987 73.6587 13.0359 73.6776 13.0837C73.6882 13.1099 73.7035 13.1338 73.7105 13.1611ZM71.8566 25.3595V14.9753L67.8954 17.1787L62.4231 20.2232V30.6074L71.8566 25.3595ZM60.5373 44.1443V33.7532L55.1545 36.7237L39.7833 45.2004V55.6894L60.5373 44.1443ZM17.1448 8.78503V44.1443L37.8964 55.6883V45.2016L27.0553 39.2731L27.0518 39.2708L27.0471 39.2685C27.0106 39.2481 26.9799 39.2185 26.9458 39.1934C26.9163 39.1707 26.8822 39.1525 26.8562 39.1274L26.8539 39.124C26.8233 39.0956 26.8021 39.0603 26.7762 39.0284C26.7526 38.9977 26.7243 38.9715 26.7055 38.9396L26.7043 38.9362C26.6831 38.9021 26.6701 38.8611 26.6548 38.8224C26.6395 38.7883 26.6195 38.7564 26.6101 38.72C26.5983 38.6767 26.5959 38.6301 26.5912 38.5857C26.5865 38.5515 26.5771 38.5174 26.5771 38.4832V38.481V14.0329L21.1059 10.9873L17.1448 8.78503ZM27.5217 1.96312L18.0906 7.20873L27.5194 12.4543L36.9494 7.20759L27.5194 1.96312H27.5217ZM32.4264 34.7001L37.8976 31.6568V8.78503L33.9364 10.9884L28.464 14.0329V36.9047L32.4264 34.7001ZM61.4808 8.15337L52.0508 13.399L61.4808 18.6446L70.9096 13.3978L61.4808 8.15337ZM60.5373 20.2232L55.0649 17.1787L51.1038 14.9753V25.3595L56.575 28.4029L60.5373 30.6074V20.2232ZM38.8387 43.6241L52.6703 35.9942L59.5844 32.1814L50.1615 26.9392L39.3122 32.9747L29.424 38.4753L38.8387 43.6241Z" fill="#999999"/>
<defs>
<clipPath id="clip0">
<rect width="89" height="22.7648" fill="white" transform="translate(0 63.2346)"/>
</clipPath>
</defs>
</svg>
