<svg width="140" height="32" viewBox="0 0 140 32" fill="none" xmlns="http://www.w3.org/2000/svg">
<g clip-path="url(#clip0)">
<path d="M59.8606 12.5016V12.5002L58.9652 15.7173L59.8613 12.503L59.8606 12.5016ZM64.4711 19.4848L63.4844 19.4862L64.4718 19.4919L64.4711 19.4848ZM64.2169 24.2863H64.2183L58.3008 24.3076L64.2169 24.2863ZM65.4508 19.4898L64.4627 19.4841L65.4508 19.4898ZM64.7359 23.8788L65.7669 19.8987L64.7359 23.8795V23.8788ZM86.5211 5.54822L84.601 14.6883L86.5211 5.54822ZM81.5853 5.54822L80.1274 12.3764L81.5853 5.54822Z" fill="#999999"/>
<path d="M86.1919 5.13608H82.0863C81.9701 5.1406 81.8584 5.18297 81.7678 5.25688C81.6772 5.3308 81.6126 5.43233 81.5835 5.5464L78.669 19.2035C78.6398 19.3173 78.5752 19.4186 78.4848 19.4924C78.3944 19.5661 78.2829 19.6085 78.1668 19.6131H75.2607C72.3855 19.6131 72.7184 17.6006 73.307 14.8486L73.3245 14.7654L73.6728 12.8859L73.8231 12.1129L75.1491 5.55635C75.1947 5.33021 75.0451 5.1439 74.8176 5.1439H70.6038C70.3763 5.1439 70.1501 5.32879 70.1038 5.55493L68.2062 14.6715C67.1626 19.4965 67.4393 24.0974 73.1117 24.2418L73.2761 24.2453H82.1797C82.4073 24.2453 82.6334 24.0605 82.6805 23.8343L86.5192 5.54711C86.5663 5.32097 86.4188 5.13608 86.1905 5.13608H86.1919ZM102.571 19.6615C102.622 19.6583 102.673 19.6676 102.72 19.6884C102.767 19.7092 102.808 19.7409 102.84 19.7811C102.873 19.8212 102.895 19.8686 102.906 19.9192C102.917 19.9699 102.916 20.0224 102.902 20.0725L102.503 22.0451L102.571 19.6615ZM102.106 24.0192L102.503 22.0451L102.105 24.0199L102.106 24.0192ZM101.606 24.4345L94.0394 24.4715L101.605 24.4345H101.606Z" fill="#999999"/>
<path d="M91.5945 17.1188C91.591 16.9026 91.8333 16.5307 92.0622 16.5307L91.5495 16.5221C91.3178 18.8688 91.5945 17.1195 91.5945 17.1195V17.1188ZM94.4177 24.4689L94.3391 24.4696L94.4177 24.4689ZM102.576 19.6603C102.627 19.6572 102.678 19.6664 102.725 19.6872C102.772 19.708 102.813 19.7398 102.845 19.7799C102.878 19.8201 102.9 19.8674 102.911 19.9181C102.922 19.9688 102.92 20.0213 102.907 20.0713L102.444 22.3661L102.576 19.6603ZM96.3617 24.4654H96.3448H96.3617ZM95.3539 24.4618H95.2956H95.3539ZM95.0463 24.4618H94.9494H95.0463ZM94.7408 24.4618H94.6565H94.7408ZM95.3026 24.4618H95.054H95.3026Z" fill="#999999"/>
<path d="M96.3424 24.4651L95.3592 24.4687L96.3424 24.4651ZM101.61 24.4331L96.3564 24.4659L101.61 24.4331ZM102.101 24.0186L102.435 22.3652L102.1 24.0193L102.101 24.0186ZM94.9483 24.4616H94.7376H94.9483ZM94.3352 24.463H94.0424H94.3352ZM94.6456 24.4616H94.4139H94.6456ZM34.5862 17.1683L35.2238 14.3053L34.4949 17.5779L33.7954 20.911L34.4085 17.9953L34.5862 17.1747V17.1683ZM42.2187 5.07922H37.71C37.5936 5.08402 37.4818 5.12626 37.3907 5.19978C37.2997 5.27331 37.2341 5.37431 37.2036 5.48812L36.3482 9.31041C36.334 9.35971 36.3318 9.41174 36.3416 9.46212C36.3515 9.51249 36.3732 9.55972 36.4049 9.59982C36.4365 9.63992 36.4773 9.67171 36.5237 9.69251C36.57 9.7133 36.6207 9.72249 36.6713 9.7193H41.2151C41.3314 9.71497 41.4432 9.67278 41.5339 9.59898C41.6246 9.52519 41.6894 9.42374 41.7187 9.30969L42.5453 5.48883C42.5944 5.2634 42.4469 5.07922 42.2194 5.07922H42.2187ZM41.2369 11.4438L39.9145 17.6305L41.2369 11.4438ZM28.1391 31.9696L31.857 31.9995C30.7594 31.9995 28.9467 31.9782 28.1377 31.9689L28.1391 31.9696ZM35.8608 11.4424L35.2288 14.3053L35.8608 11.4424Z" fill="#999999"/>
<path d="M40.9113 11.0354H36.3675C36.2511 11.0404 36.1394 11.0828 36.0485 11.1564C35.9575 11.2301 35.8922 11.3312 35.8618 11.445L34.5857 17.1695L34.4081 17.9902L33.1819 23.8342C33.1218 24.107 33.0489 24.3769 32.9634 24.6427C32.9634 24.6427 32.1207 27.2006 30.688 27.1715L29.2736 27.1452C29.1575 27.1477 29.0454 27.188 28.9537 27.2601C28.862 27.3322 28.7956 27.4323 28.7644 27.5455L27.8234 31.5563C27.8086 31.6053 27.8056 31.6572 27.8148 31.7076C27.8239 31.758 27.8449 31.8055 27.876 31.846C27.907 31.8865 27.9472 31.9188 27.9932 31.9403C28.0391 31.9618 28.0895 31.9718 28.1401 31.9694L31.8594 32C35.4243 32 37.3036 29.9996 38.5088 24.2445L41.2477 11.4443C41.2955 11.2188 41.1494 11.0347 40.9204 11.0347L40.9113 11.0354ZM105.469 24.2388C105.241 24.2388 105.093 24.0539 105.141 23.8278L108.56 7.61417" fill="#999999"/>
<path d="M110.216 23.8251L111.6 16.9045L110.216 23.8251ZM105.188 24.0385C105.16 23.9247 105.177 23.6488 105.225 23.4226L106.84 15.7262L105.131 23.833C105.083 24.0591 105.231 24.244 105.459 24.244H105.88C105.652 24.244 105.215 24.1515 105.187 24.0306L105.188 24.0385Z" fill="#999999"/>
<path d="M109.949 24.1435C109.825 24.1947 109.537 24.2359 109.309 24.2359H109.73C109.958 24.2359 110.182 24.051 110.226 23.8235L110.309 23.4124C110.263 23.6386 110.08 24.0923 109.955 24.1428L109.949 24.1435ZM110.911 20.3639L111.522 17.3096L110.911 20.3639Z" fill="#999999"/>
<path d="M124.398 8.69918L124.586 9.4871C124.638 9.71253 124.495 9.89529 124.267 9.896L124.398 8.69918ZM110.3 23.4073L110.908 20.358L110.3 23.4073ZM124.211 7.88494L124.397 8.69206L124.211 7.88494ZM111.519 17.3045L111.687 16.4881L112.339 13.3961L111.602 16.8984L111.52 17.3038L111.519 17.3045ZM108.613 7.34662L106.855 15.7194L108.621 7.34662H108.613Z" fill="#999999"/>
<path d="M124.585 9.48638L124.397 8.69846L124.116 7.48955C123.747 6.03744 122.662 5.19973 120.31 5.19973L113.273 5.1912H109.477C109.249 5.1912 109.023 5.37609 108.977 5.60152L108.808 6.40509L108.555 7.61897L105.224 23.423C105.174 23.6491 105.159 23.9257 105.186 24.0388C105.214 24.1519 105.651 24.2521 105.879 24.2521H109.304C109.532 24.2521 109.821 24.2095 109.944 24.1597C110.068 24.1099 110.253 23.6619 110.298 23.4294L111.598 16.9205L112.989 10.3248C113.018 10.2114 113.082 10.1106 113.172 10.037C113.262 9.96337 113.373 9.92093 113.489 9.9159L124.264 9.91092C124.492 9.91021 124.636 9.72745 124.584 9.50203L124.585 9.48638ZM138.455 2.36093L137.627 2.36377H134.185C134.059 2.37125 133.936 2.40609 133.824 2.46596C133.712 2.52583 133.614 2.60932 133.537 2.7108L125.91 14.0177C125.78 14.2097 125.634 14.1812 125.583 13.9558L125.021 11.4633C124.991 11.3494 124.925 11.2483 124.834 11.1748C124.743 11.1012 124.631 11.0591 124.514 11.0544H119.612C119.563 11.0502 119.513 11.0588 119.467 11.0794C119.422 11.0999 119.382 11.1318 119.352 11.1721C119.322 11.2124 119.303 11.2596 119.296 11.3096C119.288 11.3595 119.294 11.4104 119.312 11.4576L121.508 19.2501C121.572 19.5161 121.575 19.7931 121.52 20.0608L120.562 23.8326C120.505 24.0566 120.646 24.2401 120.873 24.2401H125.719C125.947 24.2401 126.18 24.0573 126.237 23.8326L127.195 20.0608C127.271 19.7953 127.39 19.5445 127.547 19.3184L139.929 2.67951C140.066 2.49462 139.999 2.34528 139.764 2.34671L138.465 2.35524L138.455 2.36093ZM99.5062 12.1218C99.4781 12.3679 99.2491 12.5513 99.0146 12.5513H92.7993C92.5844 12.5513 92.4762 12.4034 92.5071 12.2207C92.5092 12.2157 92.5099 12.2107 92.5127 12.2064C92.5099 12.2015 92.5099 12.1943 92.512 12.1872L92.5401 12.0806C93.1336 10.4827 94.3429 9.43305 96.6155 9.43305C99.174 9.43305 99.6733 10.6988 99.4999 12.1211L99.5062 12.1218ZM97.683 4.85697C89.705 4.85697 87.8137 9.76088 86.7532 14.7103C85.6998 19.755 85.784 24.4719 94.0402 24.4719H94.3331L94.4117 24.4712H95.041L95.3479 24.4705L96.355 24.4669L101.608 24.4342C101.723 24.4279 101.833 24.3845 101.923 24.3103C102.012 24.2361 102.075 24.135 102.103 24.0217L102.901 20.0722C102.914 20.0221 102.916 19.9696 102.905 19.9189C102.894 19.8682 102.872 19.8209 102.839 19.7808C102.807 19.7406 102.766 19.7088 102.719 19.688C102.672 19.6672 102.621 19.658 102.57 19.6611H95.1463C92.1946 19.6611 91.3174 18.8668 91.6405 16.5322H103.506C103.601 16.529 103.693 16.498 103.771 16.4429C103.848 16.3879 103.909 16.3112 103.945 16.2221C103.959 16.1884 103.968 16.1531 103.973 16.1169C105.734 9.38967 105.228 4.85768 97.6809 4.85768L97.683 4.85697ZM59.9712 12.0891L59.8589 12.4916C59.8589 12.493 58.9627 15.708 58.9627 15.708L58.075 18.9301C58.0379 19.0436 57.9676 19.143 57.8734 19.2151C57.7792 19.2872 57.6656 19.3287 57.5476 19.334H52.8057C49.2086 19.334 48.3321 16.4853 49.2086 12.2839C50.0843 7.98662 51.8014 5.31493 55.3417 5.04471C60.1875 4.67492 61.1476 8.12103 59.979 12.0976L59.9712 12.0891ZM63.2229 19.0794C63.2229 19.0794 65.4583 13.5825 65.966 10.4073C66.6599 6.16402 64.5586 0 56.4408 0C48.3693 0 44.8719 5.88525 43.5277 12.2825C42.1906 18.7253 43.9491 24.3773 51.9679 24.3311L64.2159 24.2856C64.3333 24.2794 64.4461 24.237 64.539 24.164C64.6319 24.091 64.7005 23.991 64.7356 23.8774L65.7666 19.8965C65.8242 19.6732 65.6844 19.489 65.4576 19.4883L63.482 19.4762C63.2882 19.4748 63.1772 19.3482 63.2011 19.1797C63.2051 19.1475 63.2131 19.116 63.225 19.0858L63.2229 19.0794Z" fill="#999999"/>
<path d="M103.185 15.4065C103.185 15.5585 103.063 15.6821 102.912 15.6821C102.84 15.6818 102.771 15.6526 102.72 15.601C102.669 15.5494 102.64 15.4795 102.64 15.4065C102.64 15.2545 102.762 15.1317 102.912 15.1317C103.062 15.1317 103.185 15.2545 103.185 15.4065Z" fill="#999999"/>
<path d="M1.59835 8.25796C-0.630026 11.5007 -0.35262 15.7212 1.34974 19.1666L1.56043 19.567C1.57588 19.5975 1.59344 19.6274 1.60959 19.6558C1.63768 19.7106 1.66858 19.7625 1.69808 19.8166L1.85961 20.0989L1.95231 20.2532L2.22199 20.6777C2.31079 20.8123 2.40187 20.9453 2.49518 21.0767L2.54926 21.1499C2.63059 21.2629 2.7137 21.3746 2.79857 21.4848L2.89198 21.6057L3.12233 21.8916L3.21012 21.9983C3.31485 22.1235 3.42161 22.2471 3.53036 22.3688C3.5416 22.3809 3.54441 22.383 3.54932 22.3901C3.65626 22.5076 3.76489 22.6236 3.87519 22.7379L3.98053 22.8445L4.24038 23.1027L4.34713 23.2051C4.46441 23.3167 4.5831 23.4184 4.70319 23.5336C4.72918 23.5571 4.75025 23.5741 4.77061 23.5919L5.09367 23.8764L5.23413 23.9844L5.50381 24.1978L5.64778 24.3087L5.94977 24.5221L6.06003 24.6017C6.07056 24.6088 6.07969 24.6159 6.09022 24.623C6.18714 24.6906 6.28546 24.7553 6.38519 24.82L6.5116 24.9054C6.66361 25.0032 6.81719 25.0985 6.9723 25.1912L7.09872 25.2638L7.44425 25.46C7.51448 25.4942 7.57206 25.5269 7.63527 25.5596L7.88248 25.6897L7.93866 25.7182L8.03979 25.7679L8.43167 25.9514L8.51454 25.9891C8.66581 26.0558 8.81823 26.1198 8.97174 26.1811L9.0827 26.2252L9.51391 26.3873L9.56798 26.4065C9.72736 26.4626 9.88775 26.5157 10.0491 26.5658L10.1649 26.6014C10.3293 26.6512 10.4922 26.7116 10.6615 26.7436C21.4389 28.7347 24.5697 20.1856 24.5697 20.1856C21.9403 23.6545 17.2658 24.569 12.8512 23.5507C12.6841 23.5123 12.5211 23.4596 12.3575 23.4106L12.2346 23.3729C12.0753 23.3233 11.9168 23.2711 11.7591 23.2164L11.6938 23.193C11.5533 23.1427 11.4135 23.0903 11.2746 23.0358L11.1573 22.9889C11.0049 22.9277 10.8539 22.8644 10.705 22.7983L10.6137 22.7578L10.2324 22.5778L10.1221 22.5245L9.82713 22.3723L9.63049 22.2678C9.5111 22.1967 9.39381 22.1355 9.27653 22.0673L9.15714 21.9997C9.0021 21.9069 8.84851 21.8116 8.69644 21.7138C8.6543 21.6868 8.61357 21.6569 8.57213 21.6299L8.24416 21.4166L8.13882 21.3412L7.82981 21.1136L7.41264 20.7951L7.28764 20.6941L6.9393 20.3968C6.92736 20.3862 6.91401 20.3755 6.90137 20.3641C6.77766 20.254 6.65591 20.1416 6.53618 20.027L6.43294 19.9275L6.16958 19.6665L6.06635 19.562L5.74329 19.2164C5.73809 19.2105 5.7327 19.2048 5.72714 19.1993C5.61571 19.0755 5.5066 18.9496 5.39987 18.8217L5.31419 18.7186L5.07822 18.4235L4.99184 18.3147L4.71935 17.9477C2.26413 14.5571 1.38205 9.88003 3.34426 6.03926L1.59835 8.25796ZM8.52929 5.54005C6.91753 7.88818 7.00531 11.0321 8.26242 13.516C8.47292 13.9334 8.71108 14.3358 8.97525 14.7206C9.21684 15.0712 9.48441 15.4887 9.80395 15.7696C9.9209 15.8996 10.0415 16.0262 10.1656 16.1493C10.1969 16.1816 10.2288 16.2134 10.2611 16.2446L10.6306 16.6001C10.6355 16.6044 10.6404 16.6094 10.6446 16.6144C10.7886 16.7424 10.9255 16.8618 11.08 16.9792L11.1783 17.0503C11.3259 17.1655 11.4765 17.2767 11.6299 17.3838C11.6348 17.3874 11.6383 17.3909 11.644 17.3938C11.7121 17.4414 11.7809 17.4862 11.8497 17.531C11.8827 17.5523 11.9143 17.5758 11.9481 17.5964C12.0583 17.6675 12.1693 17.7372 12.2823 17.8041L12.3294 17.8325L12.6244 17.9996C12.6595 18.0195 12.6946 18.0366 12.7297 18.0551L12.9369 18.1632C12.9474 18.1682 12.958 18.1731 12.9685 18.1774C13.1107 18.2485 13.2545 18.3163 13.3997 18.3808C13.4313 18.395 13.4699 18.4071 13.4952 18.4206L13.8492 18.5657L14.0009 18.6226C14.1083 18.6631 14.2165 18.6937 14.3253 18.7364L14.4658 18.784C14.6203 18.8338 14.7748 18.8942 14.9363 18.9213C23.2585 20.3172 25.1786 13.8296 25.1786 13.8296C23.4467 16.3555 20.094 17.5602 16.5144 16.6193C16.3562 16.5772 16.1991 16.5312 16.0431 16.4814C15.9954 16.4672 15.949 16.4508 15.9013 16.4352C15.7908 16.3988 15.681 16.3604 15.5719 16.32L15.423 16.2631C15.3039 16.2169 15.1857 16.1686 15.0683 16.118L14.9588 16.0696C14.8125 16.0052 14.6678 15.9371 14.5248 15.8656C14.451 15.83 14.3794 15.7909 14.3141 15.7532L14.1877 15.6878C14.0951 15.6368 14.0033 15.5844 13.9124 15.5306L13.8464 15.4929C13.734 15.4261 13.623 15.3507 13.5128 15.2796C13.4791 15.2583 13.446 15.2341 13.4123 15.2113L13.2031 15.0741C13.05 14.9674 12.9011 14.8607 12.7536 14.7413L12.6525 14.6609C11.0863 13.4093 9.84328 11.697 9.25336 9.75701C8.63534 7.74453 8.76175 5.48529 9.83977 3.65202L8.52929 5.54005ZM14.3344 3.4849C13.3842 4.90715 13.2908 6.65865 13.9503 8.2224C14.6526 9.88217 16.0698 11.1842 17.7329 11.8015L17.9393 11.874L18.0306 11.9025L18.327 11.9892C22.9221 12.8881 24.168 9.60198 24.5072 9.11842C23.4151 10.7099 21.5807 11.0918 19.3299 10.5385C19.1456 10.4909 18.9637 10.4342 18.7849 10.3686C18.5647 10.2893 18.3488 10.1984 18.1381 10.0962C17.7378 9.90208 17.3571 9.66598 17.0039 9.39576C14.9897 7.84835 13.7382 4.89577 15.0529 2.49786" fill="#999999"/>
</g>
<defs>
<clipPath id="clip0">
<rect width="140" height="32" fill="white"/>
</clipPath>
</defs>
</svg>
