<svg width="150" height="62" viewBox="0 0 150 62" fill="none" xmlns="http://www.w3.org/2000/svg">
<g clip-path="url(#clip0)">
<path d="M67.5286 47.1079H59.7994V47.9158C62.217 47.9158 62.6057 48.4263 62.6057 51.4471V56.893C62.6057 59.9135 62.2174 60.4667 59.7994 60.4667C57.9431 60.2116 56.6905 59.2328 54.9634 57.3609L52.9773 55.2339C55.6542 54.7653 57.0788 53.1066 57.0788 51.2343C57.0788 48.8949 55.0499 47.1079 51.2498 47.1079H43.6504V47.9158C46.068 47.9158 46.4567 48.4263 46.4567 51.4471V56.893C46.4567 59.9135 46.068 60.4667 43.6504 60.4667V61.2749H52.2428V60.4667C49.8252 60.4667 49.4365 59.9135 49.4365 56.893V55.3618H50.1703L54.9634 61.2749H67.5286C73.7031 61.2749 76.3803 58.042 76.3803 54.1699C76.3803 50.2986 73.7034 47.1079 67.5286 47.1079ZM49.4369 54.042V48.3844H51.2069C53.1497 48.3844 54.0136 49.7031 54.0136 51.2347C54.0136 52.724 53.1497 54.0424 51.2069 54.0424H49.4369V54.042ZM67.6584 59.9562H67.3559C65.8018 59.9562 65.5858 59.5735 65.5858 57.6164V48.3844C65.5858 48.3844 67.4857 48.3844 67.6584 48.3844C72.149 48.3844 72.9689 51.6173 72.9689 54.1276C72.9689 56.7225 72.1486 59.9562 67.6584 59.9562Z" fill="#999999"/>
<path d="M19.6033 55.6189L22.5827 46.9393C23.4466 44.4294 23.0579 43.7064 20.2945 43.7064V42.8552H28.4121V43.7064C25.6919 43.7064 25.0443 44.3444 23.9648 47.4502L19.0419 62.0002H18.4808L14.076 48.6837L9.58584 62.0002H9.02442L4.23169 47.4502C3.1954 44.3444 2.50454 43.7064 0 43.7064V42.8552H9.58584V43.7064C7.03802 43.7064 6.3468 44.3018 7.25401 46.9393L10.1469 55.6189L14.508 42.8552H15.3287L19.6033 55.6189Z" fill="#999999"/>
<path d="M34.2812 61.8261C29.5318 61.8261 25.6455 58.3804 25.6455 54.168C25.6455 49.9989 29.5321 46.5525 34.2812 46.5525C39.0311 46.5525 42.917 49.9989 42.917 54.168C42.917 58.3804 39.0311 61.8261 34.2812 61.8261ZM34.2812 47.8723C30.3092 47.8723 28.9271 51.4029 28.9271 54.1683C28.9271 56.9767 30.3092 60.4651 34.2812 60.4651C38.2973 60.4651 39.679 56.9767 39.679 54.1683C39.679 51.4029 38.2973 47.8723 34.2812 47.8723Z" fill="#999999"/>
<path d="M87.0452 60.4242V61.2751H77.1572V60.4242C80.0505 60.4242 80.5686 59.7012 80.5686 55.4462V48.6396C80.5686 44.3846 80.0505 43.7042 77.1572 43.7042V42.853H86.0951C90.5424 42.853 93.0044 45.1079 93.0044 48.1291C93.0044 51.0647 90.5424 53.3618 86.0951 53.3618H83.6338V55.4458C83.6338 59.7012 84.152 60.4242 87.0452 60.4242ZM86.0951 44.3846H83.6338V51.7876H86.0951C88.5135 51.7876 89.6359 50.1285 89.6359 48.1291C89.6359 46.087 88.5135 44.3846 86.0951 44.3846Z" fill="#999999"/>
<path d="M122.668 57.276L122.452 58.0416C122.064 59.4456 121.588 59.9562 118.523 59.9562H117.918C115.673 59.9562 115.284 59.4456 115.284 56.4252V54.4683C118.653 54.4683 118.912 54.7657 118.912 56.9783H119.732V50.6389H118.912C118.912 52.8512 118.653 53.1489 115.284 53.1489V48.3844H117.659C120.725 48.3844 121.2 48.8949 121.588 50.2989L121.805 51.1068H122.495L122.193 47.1079H109.498V47.9158C111.916 47.9158 112.305 48.4263 112.305 51.4471V56.893C112.305 59.6563 111.975 60.3524 110.068 60.4516C108.257 60.179 107.013 59.2053 105.311 57.3609L103.324 55.2339C106.002 54.7653 107.427 53.1066 107.427 51.2343C107.427 48.8949 105.397 47.1079 101.597 47.1079H93.998V47.9158C96.4157 47.9158 96.8044 48.4263 96.8044 51.4471V56.893C96.8044 59.9135 96.416 60.4667 93.998 60.4667V61.2749H102.591V60.4667C100.173 60.4667 99.7842 59.9135 99.7842 56.893V55.3618H100.518L105.311 61.2749H123.057L123.317 57.2764H122.668V57.276ZM99.7838 54.042V48.3844H101.554C103.497 48.3844 104.361 49.7031 104.361 51.2347C104.361 52.724 103.497 54.0424 101.554 54.0424H99.7838V54.042Z" fill="#999999"/>
<path d="M131.434 61.8295C129.706 61.8295 128.195 60.9364 127.547 60.3829C127.331 60.596 126.943 61.2341 126.857 61.8295H126.036V55.9591H126.9C127.245 58.7668 129.231 60.4259 131.779 60.4259C133.161 60.4259 134.284 59.6603 134.284 58.3841C134.284 57.2782 133.29 56.427 131.52 55.6187L129.059 54.4702C127.331 53.6612 126.036 52.2572 126.036 50.3856C126.036 48.3436 127.979 46.5996 130.657 46.5996C132.081 46.5996 133.29 47.1101 134.025 47.7055C134.24 47.5353 134.456 47.0671 134.586 46.5562H135.406V51.5769H134.499C134.197 49.5771 133.075 47.918 130.786 47.918C129.577 47.918 128.454 48.5986 128.454 49.6627C128.454 50.7686 129.361 51.3641 131.434 52.3002L133.808 53.4488C135.881 54.4272 136.701 56.0021 136.701 57.2782C136.701 59.958 134.326 61.8295 131.434 61.8295Z" fill="#999999"/>
<path d="M144.733 61.8295C143.005 61.8295 141.494 60.9364 140.846 60.3829C140.63 60.596 140.242 61.2341 140.156 61.8295H139.335V55.9591H140.199C140.544 58.7668 142.53 60.4259 145.078 60.4259C146.46 60.4259 147.583 59.6603 147.583 58.3841C147.583 57.2782 146.59 56.427 144.819 55.6187L142.358 54.4702C140.63 53.6612 139.335 52.2572 139.335 50.3856C139.335 48.3436 141.278 46.5996 143.955 46.5996C145.38 46.5996 146.589 47.1101 147.323 47.7055C147.539 47.5353 147.755 47.0671 147.884 46.5562H148.705V51.5769H147.798C147.496 49.5771 146.373 47.918 144.085 47.918C142.876 47.918 141.753 48.5986 141.753 49.6627C141.753 50.7686 142.66 51.3641 144.733 52.3002L147.107 53.4488C149.18 54.4272 150 56.0021 150 57.2782C150 59.958 147.625 61.8295 144.733 61.8295Z" fill="#999999"/>
<path d="M58.5703 19.1468C58.5703 25.6484 62.4051 31.267 67.9659 33.9296L60.0136 12.462C59.0886 14.5048 58.5703 16.7655 58.5703 19.1468Z" fill="#999999"/>
<path d="M86.4945 18.3171C86.4945 16.2871 85.7545 14.8813 85.1197 13.7871C84.2747 12.4341 83.4826 11.2883 83.4826 9.93525C83.4826 8.42533 84.6448 7.01981 86.282 7.01981C86.3559 7.01981 86.426 7.02887 86.498 7.03294C83.5321 4.35566 79.5805 2.72104 75.2404 2.72104C69.4163 2.72104 64.2924 5.66523 61.3115 10.1246C61.7026 10.1362 62.0713 10.1443 62.3843 10.1443C64.1281 10.1443 66.8272 9.93587 66.8272 9.93587C67.7259 9.88367 67.8319 11.1842 66.9341 11.2889C66.9341 11.2889 66.031 11.3936 65.0261 11.4455L71.0969 29.2372L74.7452 18.4565L72.1479 11.4448C71.2502 11.393 70.3997 11.2883 70.3997 11.2883C69.5014 11.2364 69.6067 9.88305 70.505 9.93525C70.505 9.93525 73.2581 10.1437 74.8962 10.1437C76.6396 10.1437 79.3391 9.93525 79.3391 9.93525C80.2384 9.88305 80.3441 11.1836 79.446 11.2883C79.446 11.2883 78.541 11.393 77.538 11.4448L83.5625 29.1019L85.2254 23.627C85.9461 21.3551 86.4945 19.7233 86.4945 18.3171Z" fill="#999999"/>
<path d="M75.5331 20.5824L70.5312 34.903C72.0247 35.3355 73.6041 35.5721 75.2406 35.5721C77.182 35.5721 79.0437 35.2415 80.7766 34.6411C80.7319 34.5707 80.6913 34.496 80.658 34.4148L75.5331 20.5824Z" fill="#999999"/>
<path d="M89.8696 11.2653C89.9413 11.7885 89.9819 12.3501 89.9819 12.9543C89.9819 14.6211 89.666 16.4948 88.7143 18.8377L83.6221 33.3439C88.5782 30.4963 91.9118 25.2058 91.9118 19.1462C91.9121 16.2904 91.1718 13.605 89.8696 11.2653Z" fill="#999999"/>
<path d="M75.2418 0C64.5266 0 55.8086 8.5891 55.8086 19.1466C55.8086 29.7054 64.5266 38.2942 75.2418 38.2942C85.9566 38.2942 94.6759 29.7054 94.6759 19.1466C94.6756 8.5891 85.9566 0 75.2418 0ZM75.2418 37.4165C65.018 37.4165 56.6996 29.2206 56.6996 19.1466C56.6996 9.07323 65.0176 0.877944 75.2418 0.877944C85.4653 0.877944 93.7829 9.07323 93.7829 19.1466C93.7829 29.2206 85.4653 37.4165 75.2418 37.4165Z" fill="#999999"/>
</g>
<defs>
<clipPath id="clip0">
<rect width="150" height="62" fill="white"/>
</clipPath>
</defs>
</svg>
