<svg width="127" height="66" viewBox="0 0 127 66" fill="none" xmlns="http://www.w3.org/2000/svg">
<path fill-rule="evenodd" clip-rule="evenodd" d="M0.00151675 60.1262H4.19261V43.5075L10.7371 57.997C11.4789 59.7391 12.5429 60.3843 14.6059 60.3843C16.6696 60.3843 17.6692 59.7391 18.4428 57.997L24.9554 43.5075V60.1262H29.1791V43.5075C29.1791 41.8945 28.5344 41.1202 27.1799 40.7012C23.9884 39.7333 21.8603 40.5721 20.8933 42.734L14.4769 57.0618L8.28662 42.734C7.35147 40.5721 5.1907 39.7333 1.96661 40.7012C0.644666 41.121 0 41.8945 0 43.5075V60.1262H0.00151675ZM32.6618 46.6061H36.8848V55.7372C36.8529 56.2549 37.0463 57.4155 39.3345 57.4481C40.5275 57.4808 48.4266 57.4481 48.491 57.4481V46.5408H52.7147V61.4827C52.7147 65.1612 48.1687 65.9674 46.0413 66H32.7581V63.1921H46.0739C48.7823 62.9014 48.4599 61.5464 48.4599 61.094V59.9971H39.5287C35.3694 59.966 32.6937 58.126 32.6618 56.0279C32.6618 55.8351 32.7581 46.6699 32.6618 46.6061ZM123.26 36.0214C120.682 35.9569 118.682 36.215 117.005 36.9247C116.522 37.1191 115.747 37.119 115.683 37.7309C115.941 37.9905 115.974 38.4087 116.199 38.764C116.586 39.4092 117.263 40.2806 117.876 40.7331C118.553 41.2492 119.23 41.7647 119.94 42.2171C121.197 42.9913 122.615 43.443 123.84 44.2173C124.55 44.6697 125.259 45.2504 125.969 45.7339C126.324 45.992 126.55 46.4118 127 46.5727V46.4763C126.775 46.1856 126.711 45.7658 126.484 45.4432C126.163 45.1213 125.84 44.8306 125.517 44.508C124.583 43.2494 123.422 42.1518 122.165 41.2492C121.133 40.5387 118.876 39.5709 118.457 38.3761L118.392 38.3123C119.102 38.2486 119.94 37.9905 120.617 37.7962C121.713 37.5054 122.713 37.5692 123.84 37.28C124.361 37.1437 124.877 36.9929 125.388 36.8276V36.5368C124.807 35.9561 124.39 35.1811 123.777 34.633C122.132 33.2136 120.327 31.8259 118.457 30.6638C117.457 30.0186 116.167 29.5988 115.103 29.0507C114.716 28.8572 114.073 28.76 113.846 28.4374C113.265 27.7269 112.944 26.7917 112.525 25.9529C111.59 24.1781 110.686 22.2098 109.881 20.3387C109.3 19.0801 108.946 17.8216 108.236 16.6602C104.915 11.1742 101.304 7.85096 95.7595 4.59145C94.5657 3.91358 93.1482 3.62361 91.6329 3.26836C90.8274 3.23648 90.0212 3.17195 89.2142 3.13931C88.6985 2.91311 88.1835 2.30052 87.7315 2.00979C85.8946 0.848391 81.1544 -1.66874 79.8006 1.6553C78.9299 3.75266 81.0907 5.81737 81.8317 6.88313C82.38 7.62551 83.0891 8.4643 83.4759 9.30309C83.7012 9.85116 83.7664 10.4326 83.9917 11.0133C84.5089 12.4328 84.9913 14.014 85.6686 15.3371C86.0243 16.0149 86.4111 16.7247 86.8623 17.3373C87.1202 17.6925 87.5707 17.8534 87.6678 18.4349C87.2158 19.0801 87.1832 20.048 86.9253 20.8549C85.7656 24.5015 86.2154 29.0188 87.8597 31.6977C88.3769 32.5046 89.6018 34.2793 91.2461 33.6014C92.6962 33.0207 92.3731 31.1815 92.7925 29.5684C92.8903 29.1805 92.8251 28.9224 93.0193 28.6651V28.7296C93.4713 29.6329 93.9211 30.5044 94.3405 31.4077C95.3401 32.9889 97.0807 34.6346 98.5323 35.7314C99.3059 36.3121 99.9187 37.3126 100.886 37.6679V37.5699H100.821C100.627 37.2807 100.338 37.1502 100.08 36.9247C99.4993 36.344 98.8539 35.6335 98.4034 34.9891C97.0481 33.1817 95.8558 31.1807 94.7917 29.116C94.276 28.1163 93.8247 27.0186 93.4053 26.0182C93.2112 25.631 93.2112 25.0503 92.8896 24.8568C92.405 25.5665 91.6958 26.1799 91.3416 27.0505C90.7296 28.4381 90.6643 30.1484 90.4398 31.9231C90.3094 31.955 90.3746 31.9231 90.3094 31.9876C89.2787 31.7295 88.9245 30.6645 88.5362 29.7612C87.5692 27.4695 87.4092 23.791 88.2472 21.1456C88.4725 20.4677 89.4395 18.3377 89.0527 17.6925C88.8585 17.0792 88.2146 16.7247 87.8589 16.2404C87.4395 15.627 86.9898 14.8528 86.6993 14.1749C85.9249 12.3683 85.5381 10.3673 84.6993 8.55995C84.3125 7.72116 83.636 6.84973 83.0876 6.07546C82.4756 5.20403 81.7975 4.59069 81.3144 3.55833C81.1529 3.20308 80.9276 2.62238 81.1855 2.23524C81.2507 1.97715 81.3781 1.87999 81.6375 1.81623C82.0569 1.46097 83.2492 1.91263 83.6686 2.1062C84.8608 2.59049 85.8612 3.04139 86.8608 3.71925C87.3113 4.04187 87.7952 4.65521 88.3762 4.8169H89.0534C90.0842 5.04234 91.2461 4.88142 92.2131 5.17139C93.921 5.71945 95.469 6.52711 96.8554 7.39779C101.078 10.0758 104.561 13.8842 106.915 18.4341C107.302 19.1765 107.464 19.8536 107.817 20.6287C108.494 22.2098 109.332 23.8229 110.01 25.3722C110.687 26.8888 111.331 28.4374 112.299 29.6959C112.783 30.3738 114.717 30.7283 115.587 31.0836C116.233 31.3735 117.233 31.6324 117.812 31.9869C118.908 32.6647 120.005 33.439 121.037 34.1814C121.551 34.5693 123.162 35.3762 123.26 36.0214Z" fill="#999999"/>
<path fill-rule="evenodd" clip-rule="evenodd" d="M90.374 7.98047C89.8256 7.98047 89.4396 8.04499 89.0528 8.14139V8.20592H89.1165C89.3743 8.72209 89.8264 9.07659 90.1472 9.529C90.4066 10.0452 90.6318 10.5614 90.8897 11.0783L90.9549 11.0138C91.4069 10.6904 91.6322 10.175 91.6322 9.39996C91.438 9.17375 91.4069 8.9483 91.2454 8.72209C91.0505 8.40024 90.6311 8.23932 90.374 7.98047ZM55.9404 60.1274H68.0624C69.4815 60.1274 70.8353 59.8382 71.9319 59.3213C73.7704 58.4825 74.6411 57.3537 74.6411 55.8682V52.7711C74.6411 51.5778 73.6414 50.4475 71.6415 49.6725C70.6108 49.2854 69.3199 49.0599 68.0624 49.0599H62.9688C61.2601 49.0599 60.4539 48.5438 60.2278 47.4142C60.196 47.2852 60.196 47.1561 60.196 47.0271V45.1233C60.196 45.0254 60.196 44.8964 60.2278 44.7673C60.4539 43.8959 60.9051 43.6704 62.3886 43.5087H74.8011V40.7024H63.0007C61.2919 40.7024 60.3894 40.7988 59.5832 41.0569C57.1008 41.8312 56.0041 43.0586 56.0041 45.2197V47.6716C56.0041 49.5754 58.1323 51.1884 61.7432 51.5771C62.13 51.6082 62.5494 51.6082 62.9688 51.6082H67.3214C67.483 51.6082 67.643 51.6082 67.7735 51.6408C69.0947 51.7699 69.6756 51.9968 70.0624 52.4796C70.3203 52.7377 70.384 52.9647 70.384 53.2539V55.7073C70.384 55.9965 70.1913 56.3851 69.8045 56.7062C69.4177 57.0296 68.8049 57.255 67.9987 57.2877C67.8372 57.2877 67.7409 57.3203 67.5793 57.3203H55.9404V60.1274ZM100.885 55.2556C100.885 58.1272 103.045 59.7403 107.364 60.0636C107.784 60.0963 108.171 60.1274 108.589 60.1274H119.552V57.3211H108.493C106.043 57.3211 105.108 56.707 105.108 55.223V40.7024H100.885V55.2556ZM77.316 55.3839V45.3806C77.316 42.8309 79.1219 41.2816 82.6357 40.798C83.0225 40.7654 83.41 40.7343 83.7642 40.7343H91.7604C92.1798 40.7343 92.534 40.7654 92.9526 40.798C96.4679 41.2816 98.2412 42.8309 98.2412 45.3806V55.3839C98.2412 57.4494 97.4987 58.5462 95.7588 59.2894L99.8854 63.0317H95.0163L91.664 59.9984L88.2776 60.1927H83.7642C82.9373 60.1888 82.1142 60.0801 81.3145 59.8693C78.6372 59.1277 77.316 57.7074 77.316 55.3839ZM81.8621 55.1592C81.8621 55.2882 81.9258 55.4173 81.9584 55.579C82.1852 56.7396 83.2811 57.3848 84.9565 57.3848H88.7623L85.2796 54.2225H90.1472L93.2105 56.9977C93.7914 56.6743 94.1464 56.2234 94.2753 55.6427C94.3064 55.5137 94.3064 55.352 94.3064 55.223V45.6395C94.3064 45.5104 94.3064 45.3814 94.2753 45.2524C94.0486 44.1555 92.9526 43.5414 91.3083 43.5414H84.9565C83.087 43.5414 81.8621 44.3475 81.8621 45.6395V55.1592ZM121.487 60.1593H122.099V57.8031H122.905V57.3196H120.648V57.8031H121.486V60.1593H121.487ZM126.162 60.1593H126.741V57.3203H125.872L125.162 59.2567L124.389 57.3203H123.549V60.1593H124.099V57.9974H124.13L124.936 60.1593H125.355L126.162 57.9974V60.1593Z" fill="#999999"/>
</svg>
