<svg width="95" height="87" viewBox="0 0 95 87" fill="none" xmlns="http://www.w3.org/2000/svg">
<g clip-path="url(#clip0)">
<path d="M51.2857 15.3287L48.7242 19.7558L39.9642 4.61149L13.0723 51.0957H31.2799C31.2799 53.5407 33.2657 55.5228 35.7154 55.5228H13.0723C11.4878 55.5228 10.0238 54.6786 9.23172 53.3089C8.43961 51.9392 8.43969 50.2518 9.23194 48.8822L36.1238 2.39795C36.9161 1.02814 38.3804 0.184296 39.9651 0.184296C41.5498 0.184296 43.0141 1.02814 43.8064 2.39795L51.2857 15.3287Z" fill="#999999"/>
<path d="M70.6987 48.8821L53.8477 19.7557L51.2862 15.3287L48.7247 19.7557L31.8755 48.8821C31.0832 50.2518 31.0832 51.9392 31.8753 53.3088C32.6674 54.6785 34.1314 55.5227 35.7159 55.5227H66.8528C68.4376 55.5227 69.9022 54.6794 70.6948 53.3096C71.4874 51.9398 71.4875 50.252 70.695 48.8821H70.6987ZM35.7159 51.0957L51.2862 24.1828L66.8528 51.0957H35.7159L35.7159 51.0957Z" fill="#999999"/>
<path d="M82.7465 53.3092C81.9544 54.6787 80.4905 55.5228 78.9062 55.5228H66.8528C69.3024 55.5228 71.2882 53.5407 71.2882 51.0957H78.8969L57.3073 13.7736L53.8476 19.7557L51.2861 15.3287L53.4669 11.5601C54.2592 10.1903 55.7235 9.34645 57.3082 9.34645C58.8929 9.34645 60.3572 10.1903 61.1495 11.5601L82.7465 48.8822C83.5388 50.2519 83.5388 51.9395 82.7465 53.3092Z" fill="#999999"/>
</g>
<g clip-path="url(#clip1)">
<path fill-rule="evenodd" clip-rule="evenodd" d="M12.7122 70.6664C12.8831 70.8495 13.0027 71.0992 12.9856 71.3656V84.9321C12.9856 85.2151 12.8831 85.4981 12.6781 85.7145C12.5766 85.8172 12.4544 85.8984 12.3191 85.9528C12.1838 86.0072 12.0384 86.0338 11.8921 86.0307C11.7212 86.0307 11.5504 85.9974 11.3795 85.9475C11.2414 85.901 11.1179 85.8208 11.0207 85.7145L1.9991 74.2786V85.032C2.00404 85.1637 1.98077 85.2949 1.93076 85.4174C1.88076 85.5398 1.80513 85.6508 1.70868 85.7431C1.61224 85.8355 1.49709 85.9074 1.37059 85.954C1.24408 86.0007 1.10899 86.0211 0.973921 86.0141C0.717626 86.0141 0.461331 85.9142 0.290468 85.7311C0.104592 85.5501 0.000110499 85.3046 0 85.0486L0 71.4488C0 71.1658 0.119604 70.8828 0.341727 70.6831C0.437479 70.5879 0.551813 70.5124 0.677994 70.4609C0.804174 70.4095 0.939649 70.3831 1.07644 70.3834C1.2473 70.3834 1.43525 70.4167 1.58903 70.4833C1.75989 70.5333 1.89658 70.6498 1.9991 70.7663L10.9694 82.2354V71.3656C10.9645 71.2339 10.9878 71.1026 11.0378 70.9802C11.0878 70.8577 11.1634 70.7468 11.2598 70.6544C11.3563 70.562 11.4714 70.4902 11.5979 70.4435C11.7244 70.3969 11.8595 70.3764 11.9946 70.3834C12.2509 70.3834 12.5072 70.4667 12.6781 70.6664H12.7122ZM31.2851 70.6997C31.473 70.9161 31.5926 71.1991 31.5755 71.4654V80.0548C31.5926 81.1534 31.3192 82.2521 30.7725 83.2176C30.2599 84.1497 29.491 84.9155 28.5513 85.4315C27.5944 85.9808 26.5009 86.2638 25.3732 86.2471C24.2626 86.2471 23.152 85.9808 22.161 85.4481C21.2261 84.9301 20.4571 84.1695 19.9397 83.2508C19.3947 82.2764 19.1181 81.181 19.1367 80.0715V71.4821C19.1367 71.1991 19.2392 70.9161 19.4784 70.7164C19.6918 70.516 19.9766 70.404 20.2729 70.404C20.5693 70.404 20.8541 70.516 21.0674 70.7164C21.2725 70.9161 21.3921 71.1825 21.3921 71.4821V80.0382C21.375 80.7706 21.5629 81.4864 21.9388 82.1356C22.2847 82.7259 22.7844 83.2169 23.3874 83.5589C23.9905 83.9009 24.6755 84.0817 25.3732 84.0831C25.9175 84.0854 26.4568 83.9821 26.9597 83.7792C27.4625 83.5763 27.9189 83.2779 28.3022 82.9014C28.6855 82.5249 28.988 82.0778 29.1921 81.5862C29.3962 81.0946 29.4978 80.5684 29.491 80.0382V71.4821C29.491 71.1991 29.5764 70.9161 29.7644 70.6997C29.9694 70.4833 30.2428 70.3668 30.5333 70.3834C30.8237 70.3834 31.0971 70.5 31.2851 70.6997ZM49.0378 84.3162C49.1685 84.5019 49.2344 84.7237 49.2257 84.9487C49.2428 85.2317 49.1232 85.5147 48.9011 85.7145C48.7009 85.8947 48.4389 85.9956 48.1664 85.9974C47.8075 86.0141 47.4658 85.831 47.2608 85.548L42.8183 79.7552L38.4442 85.548C38.3476 85.6915 38.2158 85.8094 38.0606 85.8907C37.9055 85.9721 37.732 86.0145 37.5558 86.0141C37.2824 86.0141 37.0432 85.9142 36.8552 85.7311C36.6843 85.5646 36.5647 85.3316 36.5647 85.0986C36.5647 84.8322 36.6673 84.5659 36.8381 84.3661L41.554 78.1239L36.821 71.9315C36.6521 71.7307 36.5672 71.4753 36.583 71.2161C36.5988 70.957 36.7143 70.7131 36.9065 70.5333C37.0675 70.3724 37.2772 70.2662 37.5048 70.2302C37.7325 70.1943 37.9659 70.2305 38.1709 70.3335C38.3353 70.4073 38.4768 70.5221 38.5809 70.6664L42.9892 76.426L47.3291 70.7164C47.5171 70.4334 47.8417 70.2503 48.2005 70.217C48.4739 70.217 48.7473 70.3502 48.9352 70.5499C49.1232 70.7164 49.2428 70.9661 49.2599 71.2158C49.2599 71.4654 49.1745 71.6818 49.0207 71.8816L44.2365 78.0739L49.0207 84.3162H49.0378ZM65.5261 70.6664C65.7311 70.8495 65.8678 71.1325 65.8507 71.4155C65.8507 71.6985 65.7311 71.9648 65.509 72.1479C65.3039 72.331 65.0135 72.4309 64.723 72.4143H60.6565V84.9654C60.6565 85.2484 60.554 85.5147 60.3318 85.7145C60.1007 85.9134 59.803 86.0232 59.4946 86.0232C59.1862 86.0232 58.8885 85.9134 58.6574 85.7145C58.5509 85.619 58.4657 85.5032 58.4069 85.3744C58.3481 85.2456 58.3171 85.1064 58.3156 84.9654V72.4143H54.2491C53.9586 72.4143 53.6852 72.331 53.4631 72.1313C53.3572 72.0362 53.2735 71.9202 53.2175 71.791C53.1615 71.6618 53.1346 71.5224 53.1385 71.3822C53.1385 71.1159 53.241 70.8495 53.446 70.6664C53.6682 70.4667 53.9586 70.3668 54.232 70.3834H64.723C65.0135 70.3834 65.3039 70.4667 65.5261 70.6664Z" fill="#999999"/>
<path fill-rule="evenodd" clip-rule="evenodd" d="M70.5157 85.6311C69.781 85.2316 69.1488 84.6324 68.7216 83.9166C68.602 83.7501 68.5337 83.5337 68.5166 83.3173C68.5166 83.0344 68.6362 82.768 68.8583 82.5849C69.0463 82.3852 69.3026 82.2853 69.576 82.252C69.986 82.3019 70.3619 82.5017 70.6011 82.818C71.1137 83.6503 72.0364 84.1496 73.0103 84.1164C73.4034 84.1275 73.7947 84.0617 74.1612 83.9228C74.5277 83.7839 74.8618 83.5748 75.1438 83.3078C75.4258 83.0408 75.65 82.7214 75.803 82.3685C75.956 82.0156 76.0348 81.6363 76.0346 81.2532V71.4654C76.0315 71.3213 76.0604 71.1782 76.1194 71.046C76.1784 70.9139 76.266 70.7957 76.3763 70.6996C76.5984 70.4999 76.8889 70.3834 77.1794 70.3834C77.4869 70.3834 77.7774 70.4832 77.9995 70.683C78.1011 70.7839 78.1807 70.9037 78.2335 71.0353C78.2864 71.1668 78.3114 71.3075 78.3071 71.4487V81.2699C78.3258 82.1504 78.0968 83.0192 77.6451 83.7821C77.1933 84.5449 76.5359 85.1729 75.7441 85.5979C74.951 86.0374 74.0554 86.2714 73.1429 86.2772C72.2305 86.283 71.3317 86.0606 70.5328 85.6311H70.5157ZM86.3206 85.6977C85.415 85.3648 84.5777 84.8654 83.8601 84.1996C83.7179 84.0928 83.6013 83.9571 83.5187 83.8018C83.436 83.6465 83.3893 83.4755 83.3817 83.3007C83.3834 83.1622 83.4147 83.0256 83.4735 82.8995C83.5323 82.7734 83.6175 82.6606 83.7234 82.5683C83.8177 82.4701 83.9314 82.3915 84.0577 82.3371C84.1839 82.2828 84.3201 82.2538 84.4581 82.252C84.7144 82.252 84.9366 82.3352 85.1245 82.5017C85.6713 83.0011 86.3206 83.4172 87.004 83.7168C87.7216 83.9832 88.4734 84.1164 89.2252 84.1164C90.0795 84.133 90.9339 83.9166 91.6686 83.4505C92.2666 83.1176 92.6596 82.5017 92.6596 81.8192C92.6767 81.1034 92.3008 80.4209 91.6686 80.0214C90.7499 79.5015 89.7429 79.1463 88.6955 78.9727C87.1236 78.6398 85.9105 78.1404 85.0562 77.4246C84.2018 76.7089 83.7918 75.7101 83.7918 74.445C83.7747 73.6127 84.0139 72.797 84.5094 72.1145C85.0049 71.4487 85.6713 70.916 86.4572 70.5831C88.2296 69.8945 90.1999 69.8648 91.9932 70.4999C92.7553 70.7471 93.4543 71.15 94.0436 71.6818C94.3511 71.9148 94.5562 72.2644 94.5562 72.6306C94.5565 72.7638 94.5295 72.8958 94.4767 73.0188C94.4238 73.1417 94.3463 73.2531 94.2486 73.3464C94.156 73.4521 94.0406 73.5368 93.9107 73.5943C93.7808 73.6518 93.6395 73.6808 93.4968 73.6793C93.3259 73.6793 93.1209 73.6127 92.9842 73.4962C91.9793 72.6184 90.6774 72.1324 89.3277 72.1312C88.4734 72.0813 87.6191 72.2977 86.8844 72.7305C86.606 72.9114 86.3777 73.1564 86.2198 73.4439C86.0619 73.7314 85.9793 74.0524 85.9793 74.3784C85.9793 74.7045 86.0619 75.0254 86.2198 75.3129C86.3777 75.6004 86.606 75.8455 86.8844 76.0264C87.7196 76.5061 88.6325 76.8439 89.584 77.0251C90.5921 77.2082 91.5661 77.5245 92.5058 77.9074C93.2234 78.2237 93.8385 78.7064 94.2657 79.3389C94.7099 80.0714 94.915 80.887 94.8808 81.736C94.8979 82.5683 94.6416 83.3673 94.1461 84.0331C93.6335 84.7323 92.9159 85.2649 92.0957 85.5979C90.2364 86.2902 88.1868 86.3255 86.3035 85.6977H86.3206Z" fill="#999999"/>
</g>
<defs>
<clipPath id="clip0">
<rect width="74.8485" height="55.6566" fill="white" transform="translate(8.63672)"/>
</clipPath>
<clipPath id="clip1">
<rect width="95" height="16.3131" fill="white" transform="translate(0 70.0505)"/>
</clipPath>
</defs>
</svg>
