<svg width="160" height="32" viewBox="0 0 160 32" fill="none" xmlns="http://www.w3.org/2000/svg">
<path d="M15.8597 16.2542C15.8597 18.6499 15.1491 20.6678 13.7228 22.3014C12.2344 24.013 10.3003 24.8722 7.93283 24.8722C5.55904 24.8722 3.63128 24.013 2.1428 22.3014C0.715932 20.6678 0 18.6499 0 16.2542C0 13.8519 0.715932 11.8346 2.1428 10.2069C3.6478 8.5113 5.5819 7.66392 7.93283 7.66392C10.3003 7.66392 12.2344 8.5113 13.7228 10.2069C15.1491 11.8346 15.8597 13.8519 15.8597 16.2542ZM11.1459 16.2542C11.1459 15.169 10.8868 14.2531 10.3681 13.5126C9.78778 12.6709 8.9756 12.2528 7.93283 12.2528C6.88966 12.2528 6.0778 12.6709 5.49686 13.5126C4.97278 14.2531 4.71343 15.169 4.71343 16.2542C4.71343 17.3333 4.97278 18.2602 5.49686 19.023C6.0778 19.8647 6.88966 20.2835 7.93283 20.2835C8.9756 20.2835 9.78778 19.8647 10.3681 19.023C10.8868 18.2602 11.1459 17.3333 11.1459 16.2542ZM32.9031 16.2542C32.9031 18.492 32.2603 20.4473 30.9691 22.1201C29.5878 23.951 27.8062 24.8722 25.6413 24.8722C24.1132 24.8722 22.8169 24.4258 21.7569 23.5444C21.7569 23.7474 21.7794 24.2392 21.8247 25.0254C21.8697 25.8158 21.8919 26.4601 21.8919 26.9688C21.8919 29.7783 21.0575 31.1795 19.3891 31.1795C18.7066 31.1795 18.1488 30.9364 17.7031 30.4559C17.2634 29.9703 17.0434 29.3871 17.0434 28.6985V10.4274C17.0434 9.7605 17.2691 9.18382 17.72 8.69828C18.1709 8.21776 18.7294 7.97531 19.3947 7.97531C20.3978 7.97531 21.131 8.47715 21.5934 9.47826C22.58 8.26885 23.9275 7.66392 25.6356 7.66392C27.8062 7.66392 29.5822 8.56766 30.9691 10.3823C32.2547 12.061 32.9031 14.0163 32.9031 16.2542ZM28.1894 16.2542C28.1894 15.169 27.925 14.2531 27.4062 13.5126C26.825 12.6709 26.0134 12.2528 24.9703 12.2528C23.9275 12.2528 23.1157 12.6709 22.5347 13.5126C22.0159 14.2531 21.7569 15.169 21.7569 16.2542C21.7569 17.3333 22.0159 18.2602 22.5347 19.023C23.1157 19.8647 23.9275 20.2835 24.9703 20.2835C26.0134 20.2835 26.825 19.8647 27.4062 19.023C27.925 18.2602 28.1894 17.3333 28.1894 16.2542ZM50.0534 15.746C50.0534 16.5364 49.8672 17.079 49.495 17.3847C49.1231 17.6838 48.5425 17.8364 47.7588 17.8364H39.251C39.251 18.7407 39.6741 19.4355 40.5197 19.921C41.2018 20.3004 42.0362 20.493 43.0228 20.493C43.79 20.493 44.7088 20.2378 45.7856 19.7356C46.8625 19.2266 47.5556 18.9775 47.855 18.9775C48.4016 18.9775 48.8637 19.1755 49.2472 19.5824C49.6247 19.984 49.8169 20.4699 49.8169 21.0296C49.8169 22.323 48.8528 23.3301 46.9241 24.0531C45.4528 24.5953 43.9588 24.8722 42.4312 24.8722C39.9731 24.8722 37.9884 24.0531 36.4719 22.4202C34.955 20.7865 34.1944 18.7351 34.1944 16.2542C34.1944 13.8913 34.9834 11.874 36.5619 10.1906C38.1347 8.50565 40.0916 7.66392 42.4253 7.66392C44.5959 7.66392 46.4112 8.46084 47.8662 10.0544C49.3203 11.6485 50.0534 13.5471 50.0534 15.746ZM45.3403 14.5585C45.3175 13.8349 44.985 13.1796 44.3422 12.5857C43.6993 11.9927 43.0175 11.6992 42.2956 11.6992C41.5516 11.6992 40.8578 11.9927 40.2153 12.5857C39.5728 13.1796 39.251 13.8349 39.251 14.5585H45.3403ZM65.8901 22.08C65.8901 22.7701 65.6705 23.3518 65.2312 23.8379C64.7855 24.3187 64.2271 24.5618 63.545 24.5618C61.8988 24.5618 61.0753 23.2505 61.0753 20.634C61.0753 20.1309 61.1094 19.34 61.1769 18.2492C61.2503 17.1638 61.2844 16.3672 61.2844 15.8642C61.2844 13.0888 60.3878 11.6992 58.6006 11.6992C56.8131 11.6992 55.9225 13.0888 55.9225 15.8642C55.9225 16.3672 55.9506 17.1638 56.0013 18.2492C56.0578 19.34 56.0859 20.1309 56.0859 20.634C56.0859 23.2505 55.2741 24.5618 53.6506 24.5618C52.9681 24.5618 52.4103 24.3187 51.9703 23.8379C51.525 23.3518 51.305 22.7701 51.305 22.08V10.4224C51.305 9.73733 51.525 9.15628 51.9703 8.68699C52.4103 8.21211 52.9741 7.97531 53.6563 7.97531C54.7837 7.97531 55.5672 8.47715 56.0069 9.47826C56.7681 8.26885 58.1153 7.66392 60.0437 7.66392C61.8309 7.66392 63.2519 8.13822 64.295 9.08201C65.3605 10.0944 65.8901 11.484 65.8901 13.2532V22.08ZM80.6781 21.5778C80.6781 22.6457 79.9859 23.493 78.5982 24.1154C77.4994 24.6177 76.3051 24.8759 75.0973 24.8722C72.7228 24.8722 70.7953 24.013 69.3071 22.3014C67.8804 20.6678 67.1645 18.6499 67.1645 16.2542C67.1645 13.8519 67.8919 11.8236 69.3519 10.1618C70.812 8.495 72.7228 7.66392 75.0973 7.66392C76.4671 7.66392 77.6454 7.86728 78.6271 8.26885C79.9962 8.81139 80.6781 9.6587 80.6781 10.8118C80.6781 11.3935 80.4982 11.9079 80.137 12.3546C79.7765 12.7953 79.3135 13.0214 78.7506 13.0214C78.3664 13.0214 77.8138 12.8914 77.0927 12.6377C76.371 12.3771 75.7966 12.2528 75.374 12.2528C74.2514 12.2528 73.3773 12.654 72.7517 13.4562C72.1709 14.1798 71.8776 15.1067 71.8776 16.2542C71.8776 17.3333 72.1369 18.2492 72.662 18.9894C73.2415 19.8543 74.0599 20.2835 75.1025 20.2835C75.5654 20.2835 76.1962 20.1478 77.0024 19.8703C77.8093 19.6 78.3901 19.4587 78.7506 19.4587C79.2751 19.4587 79.7253 19.6842 80.1095 20.1253C80.4873 20.5717 80.6781 21.0516 80.6781 21.5778ZM97.8119 22.08C97.8119 22.7701 97.5922 23.3518 97.1523 23.8379C96.7072 24.3187 96.1437 24.5618 95.4604 24.5618C94.4346 24.5618 93.702 24.0584 93.262 23.0582C92.2759 24.268 90.9279 24.8722 89.22 24.8722C87.0332 24.8722 85.2401 23.951 83.8525 22.1201C82.5897 20.4473 81.9538 18.492 81.9538 16.2542C81.9538 14.0163 82.5897 12.061 83.8525 10.3823C85.2626 8.56766 87.0492 7.66392 89.22 7.66392C90.9279 7.66392 92.2759 8.26885 93.262 9.47826C93.702 8.47715 94.4346 7.97531 95.4604 7.97531C96.1264 7.97531 96.6848 8.21776 97.1363 8.69828C97.5864 9.18382 97.8119 9.75486 97.8119 10.4224V22.08ZM93.0987 16.2542C93.0987 15.169 92.84 14.2531 92.3207 13.5126C91.7175 12.6709 90.9055 12.2528 89.8854 12.2528C88.8422 12.2528 88.0309 12.6709 87.4494 13.5126C86.9256 14.2531 86.6669 15.169 86.6669 16.2542C86.6669 17.3333 86.9192 18.2602 87.4206 19.023C88.0193 19.8647 88.8422 20.2835 89.8854 20.2835C90.9279 20.2835 91.7399 19.8647 92.3207 19.023C92.84 18.2602 93.0987 17.3333 93.0987 16.2542ZM109.838 10.1107C109.838 11.1222 109.347 11.8173 108.366 12.1957C107.459 12.5014 106.556 12.8128 105.654 13.1339C104.667 13.6996 104.177 14.7506 104.177 16.2767V22.08C104.177 22.7701 103.951 23.3518 103.512 23.8379C103.066 24.3187 102.503 24.5618 101.821 24.5618C101.133 24.5618 100.569 24.3187 100.13 23.8379C99.6837 23.3518 99.464 22.7701 99.464 22.08V10.4224C99.464 9.73733 99.6837 9.15628 100.124 8.68699C100.569 8.21211 101.133 7.97531 101.815 7.97531C102.942 7.97531 103.726 8.47715 104.166 9.47826C105.175 8.26885 106.258 7.66392 107.425 7.66392C108.09 7.66392 108.66 7.90644 109.133 8.3869C109.6 8.87308 109.838 9.44944 109.838 10.1107ZM122.134 10.3256C122.134 11.3766 121.723 12.0378 120.906 12.321C120.505 12.4619 119.664 12.5353 118.384 12.5353V22.08C118.384 22.7701 118.159 23.3518 117.72 23.8379C117.274 24.3187 116.71 24.5618 116.028 24.5618C115.364 24.5618 114.799 24.3187 114.347 23.8379C113.897 23.3518 113.672 22.7701 113.672 22.08V12.5353C112.702 12.5353 111.997 12.4109 111.552 12.1685C110.944 11.8292 110.643 11.2131 110.643 10.3256C110.643 9.43878 110.954 8.83392 111.579 8.5113C112.002 8.27386 112.702 8.1501 113.672 8.1501V6.12683C113.672 3.74774 114.454 2.56112 116.028 2.56112C117.595 2.56112 118.384 3.74774 118.384 6.12683V8.1501C119.664 8.1501 120.505 8.22341 120.906 8.36437C121.723 8.64693 122.134 9.30315 122.134 10.3256ZM160 7.45595C159.987 6.00531 157.313 5.34685 150.391 5.34685C134.148 5.34685 130.028 4.65141 125.618 0C127.473 2.79292 128.488 8.03141 145.656 7.77074C163.567 7.49414 152.64 12.4003 149.461 17.9432C155.195 12.8135 159.983 9.43224 160 7.47694V7.45595ZM137.176 22.3519C137.175 23.7002 136.069 24.8096 134.723 24.8099C133.365 24.8099 132.266 23.7085 132.266 22.3519C132.266 22.3512 132.266 22.3506 132.266 22.3499C132.266 20.9993 133.374 19.8879 134.722 19.8879C134.723 19.8879 134.723 19.8879 134.723 19.8879C136.078 19.8879 137.176 20.9895 137.176 22.3519ZM148.361 22.3519C148.361 23.7002 147.254 24.8096 145.909 24.8099C144.551 24.8099 143.452 23.7085 143.452 22.3519C143.452 22.3512 143.452 22.3506 143.452 22.3499C143.452 20.9993 144.56 19.8879 145.907 19.8879C145.908 19.8879 145.908 19.8879 145.909 19.8879C147.263 19.8879 148.361 20.9895 148.361 22.3519Z" fill="#999999"/>
</svg>
