<svg width="121" height="75" viewBox="0 0 121 75" fill="none" xmlns="http://www.w3.org/2000/svg">
<path fill-rule="evenodd" clip-rule="evenodd" d="M24.5734 65.2172C23.3103 65.2172 22.285 66.2431 22.285 67.5071C22.285 68.7739 23.3103 69.7989 24.5734 69.7989C25.8374 69.7989 26.8613 68.7739 26.8613 67.5071C26.8613 66.2431 25.8374 65.2172 24.5734 65.2172ZM117.683 63.5357C119.183 63.5357 120.281 64.3767 121 65.2172V61.1566C119.821 60.3563 118.401 60.0359 117.166 60.0359C113.373 60.0359 110.078 62.7558 110.078 67.435C110.078 71.9154 113.073 74.8359 117.226 74.8359C118.423 74.8359 119.741 74.6542 121 73.7957V69.8132C120.281 70.5548 119.144 71.3356 117.683 71.3356C115.448 71.3356 114.109 69.6763 114.109 67.5552C114.109 65.2551 115.528 63.5357 117.683 63.5357ZM110.507 60.4368H105.914L101.699 66.3152V60.4368H97.7862L97.7876 74.4355H101.699V68.4147L105.752 74.4355H110.647L105.194 67.2154L110.507 60.4368ZM86.2291 68.8363V60.4368H82.4551V74.4355H86.2891L91.7011 66.0355V74.4355H95.4751V60.4368H91.6402L86.2291 68.8363ZM74.8881 66.735H73.7719V63.5168H74.8881C76.5658 63.5168 76.8045 64.4155 76.8045 65.116C76.8045 65.7156 76.6253 66.735 74.8881 66.735ZM75.7459 60.4368H69.8561V74.4355H73.7719V69.8132H75.7459C79.7009 69.8132 80.8393 67.0568 80.8393 65.116C80.8393 63.1955 79.7207 60.4368 75.7459 60.4368ZM58.1957 63.7951H61.2689V74.4355H65.1842V63.7951H68.2583V60.4368H58.1957V63.7951ZM47.3509 68.8363V60.4368H43.5778V74.4355H47.4128L52.822 66.0355V74.4355H56.5969V60.4368H52.7638L47.3509 68.8363ZM35.69 71.6338H34.0133V68.6953H35.69C36.9286 68.6953 37.6479 69.0559 37.6479 70.1567C37.6479 71.2755 36.9092 71.6338 35.69 71.6338ZM36.0704 65.8954H34.0133V63.7951H40.4229V60.4368H30.0998L30.0994 74.4355L36.0704 74.4355C37.0874 74.4355 41.5613 74.4744 41.5613 70.0961C41.5613 65.8756 37.1285 65.8954 36.0704 65.8954ZM8.19436 67.435C8.19436 71.9154 11.1896 74.8359 15.3426 74.8359C16.542 74.8359 17.8596 74.6542 19.118 73.7957V69.8132C18.3969 70.5548 17.2589 71.3356 15.802 71.3356C13.5648 71.3356 12.2278 69.6763 12.2278 67.5552C12.2278 65.2551 13.6451 63.5357 15.802 63.5357C17.2991 63.5357 18.3969 64.3767 19.118 65.2172V61.1566C17.9371 60.3563 16.5208 60.0359 15.2826 60.0359C11.4883 60.0359 8.19436 62.7558 8.19436 67.435ZM0 63.6559H2.13792V74.4355H5.75267V60.4368H0V63.6559Z" fill="#999999"/>
<path fill-rule="evenodd" clip-rule="evenodd" d="M59.5313 -0.000579834C57.8487 -0.000579834 56.2123 0.188976 54.6356 0.539551V22.6333C54.6356 25.3407 56.8399 27.5488 59.5442 27.5488C62.2471 27.5488 64.4508 25.3407 64.4508 22.6347C64.4508 20.0339 62.4215 17.8992 59.8705 17.7293V13.7948C64.5844 13.9661 68.3776 17.8713 68.3776 22.6347C68.3776 27.506 64.4094 31.4819 59.5442 31.4819C54.677 31.4819 50.7094 27.506 50.7094 22.6333V1.78967C50.1517 2.02678 49.6069 2.28971 49.0729 2.57235V22.6333C49.0736 28.4076 53.778 33.1166 59.5442 33.1166C65.311 33.1166 70.0134 28.4076 70.0134 22.6347C70.0134 16.9691 65.4881 12.3294 59.8705 12.1548V8.22164C67.6497 8.39761 73.9382 14.8045 73.9382 22.6347C73.9382 30.5756 67.4719 37.0497 59.5442 37.0497C51.6144 37.0497 45.1461 30.5756 45.1461 22.6333V5.18128C40.1391 9.32772 36.9463 15.598 36.9463 22.6163C36.9463 35.1073 47.0579 45.2359 59.532 45.2359C72.008 45.2359 82.117 35.1073 82.117 22.6163C82.117 10.1254 72.008 -0.000579834 59.5313 -0.000579834Z" fill="#999999"/>
</svg>
