<svg width="112" height="36" viewBox="0 0 112 36" fill="none" xmlns="http://www.w3.org/2000/svg">
<path d="M53.3799 9.35304C53.3799 9.14017 53.4863 8.96278 53.6992 8.82087C53.9121 8.67896 54.1427 8.60801 54.391 8.60801C54.7813 8.60801 55.0119 8.75879 55.0828 9.06035L60.0053 25.3978L64.9013 9.06035C65.0077 8.75879 65.2294 8.60801 65.5665 8.60801C65.8148 8.60801 66.0543 8.68783 66.2849 8.84748C66.5155 8.98939 66.6308 9.16678 66.6308 9.37964C66.6308 9.39738 66.6219 9.42399 66.6042 9.45947C66.6042 9.49495 66.6042 9.52155 66.6042 9.53929L61.0697 27.5796C60.9455 28.0054 60.5907 28.2182 60.0053 28.2182C59.4377 28.2182 59.0918 28.0054 58.9676 27.5796L53.4065 9.53929C53.3888 9.50382 53.3799 9.44173 53.3799 9.35304ZM67.6951 23.2425V16.1381C67.6951 15.9785 67.7749 15.8277 67.9346 15.6858C68.112 15.5439 68.3248 15.4729 68.5732 15.4729C68.786 15.4729 68.9812 15.5439 69.1586 15.6858C69.336 15.8277 69.4246 15.9785 69.4246 16.1381V23.2425C69.4246 24.1295 69.7528 24.9188 70.4091 25.6106C71.0655 26.3025 71.846 26.6484 72.7507 26.6484C73.6553 26.6484 74.4359 26.3025 75.0922 25.6106C75.7485 24.9188 76.0767 24.1295 76.0767 23.2425V16.1115C76.0767 15.9341 76.1654 15.7833 76.3428 15.6592C76.5202 15.535 76.7242 15.4729 76.9548 15.4729C77.1854 15.4729 77.3805 15.535 77.5401 15.6592C77.7175 15.7833 77.8062 15.9341 77.8062 16.1115V23.2425C77.8062 24.5729 77.3007 25.7437 76.2896 26.7548C75.2962 27.7482 74.1166 28.2449 72.7507 28.2449C71.367 28.2449 70.1785 27.7482 69.1852 26.7548C68.1918 25.7437 67.6951 24.5729 67.6951 23.2425ZM80.5494 23.1893V20.2092C80.5494 18.8788 81.046 17.7346 82.0394 16.7767C83.0328 15.8011 84.2302 15.3133 85.6315 15.3133C86.9797 15.3133 88.1416 15.7745 89.1172 16.6969C90.1106 17.6193 90.6073 18.7723 90.6073 20.156C90.6073 20.6526 90.5452 21.0518 90.421 21.3533C90.3146 21.6549 90.1283 21.8678 89.8622 21.9919C89.6139 22.1161 89.3833 22.1959 89.1704 22.2314C88.9576 22.2669 88.6649 22.2846 88.2923 22.2846H82.2789V23.2691C82.2789 24.3157 82.6514 25.1583 83.3964 25.7969C84.1592 26.4178 85.1348 26.7282 86.3233 26.7282C86.9265 26.7282 87.4498 26.6395 87.8932 26.4621C88.3544 26.2847 88.7003 26.1073 88.9309 25.9299C89.1793 25.7526 89.3744 25.6639 89.5163 25.6639C89.7114 25.6639 89.88 25.7614 90.0219 25.9565C90.1815 26.1339 90.2614 26.3113 90.2614 26.4887C90.2614 26.8612 89.88 27.2515 89.1172 27.6595C88.3544 28.0497 87.4054 28.2449 86.2701 28.2449C84.5849 28.2449 83.2102 27.7836 82.1459 26.8612C81.0815 25.9211 80.5494 24.6971 80.5494 23.1893ZM82.2789 21.0074H87.6005C88.1327 21.0074 88.4875 20.9542 88.6649 20.8478C88.8422 20.7236 88.9309 20.4753 88.9309 20.1027C88.9309 19.2158 88.6116 18.4353 87.973 17.7612C87.3522 17.0872 86.5628 16.7501 85.6049 16.7501C84.6825 16.7501 83.8931 17.0694 83.2368 17.708C82.5982 18.3466 82.2789 19.1094 82.2789 19.9963V21.0074ZM92.6031 26.9943C92.6031 26.6395 92.7184 26.3468 92.949 26.1162C93.1796 25.8679 93.4723 25.7437 93.8271 25.7437C94.1464 25.7437 94.4213 25.8679 94.6519 26.1162C94.9003 26.3645 95.0244 26.6572 95.0244 26.9943C95.0244 27.3136 94.9003 27.5974 94.6519 27.8457C94.4213 28.0941 94.1464 28.2182 93.8271 28.2182C93.4723 28.2182 93.1796 28.1029 92.949 27.8723C92.7184 27.624 92.6031 27.3313 92.6031 26.9943ZM95.1015 33.4601C95.1015 33.2295 95.1725 33.0343 95.3144 32.8747C95.4563 32.7328 95.6337 32.6618 95.8466 32.6618C96.6271 32.6618 97.1415 32.3691 97.3899 31.7837C97.6382 31.2161 97.7624 30.3558 97.7624 29.2027V16.1115C97.7624 15.9164 97.8422 15.7656 98.0018 15.6592C98.1615 15.535 98.3655 15.4729 98.6138 15.4729C98.8622 15.4729 99.0662 15.535 99.2258 15.6592C99.4032 15.7833 99.4919 15.9341 99.4919 16.1115V29.2027C99.4919 32.5554 98.3211 34.2317 95.9796 34.2317C95.6781 34.2317 95.4563 34.1519 95.3144 33.9922C95.1725 33.8503 95.1015 33.6729 95.1015 33.4601ZM97.7624 11.4285C97.5318 11.1979 97.4165 10.9318 97.4165 10.6302C97.4165 10.3287 97.5318 10.0715 97.7624 9.85859C97.993 9.64573 98.2768 9.53929 98.6138 9.53929C98.9331 9.53929 99.1992 9.64573 99.4121 9.85859C99.6427 10.0715 99.758 10.3287 99.758 10.6302C99.758 10.9318 99.6427 11.1979 99.4121 11.4285C99.1992 11.6413 98.9331 11.7478 98.6138 11.7478C98.2768 11.7478 97.993 11.6413 97.7624 11.4285ZM102.057 26.3291C102.057 26.1517 102.119 25.9743 102.243 25.7969C102.368 25.6195 102.509 25.5308 102.669 25.5308C102.793 25.5308 102.988 25.6372 103.254 25.8501C103.521 26.0452 103.902 26.2492 104.399 26.4621C104.895 26.675 105.49 26.7814 106.181 26.7814C107.122 26.7814 107.813 26.604 108.257 26.2492C108.7 25.8945 108.922 25.4421 108.922 24.8922C108.922 24.2536 108.691 23.7481 108.23 23.3756C107.787 22.9853 107.246 22.7015 106.607 22.5241C105.968 22.3467 105.321 22.1516 104.665 21.9387C104.026 21.7258 103.476 21.3799 103.015 20.901C102.572 20.4043 102.35 19.748 102.35 18.932C102.35 17.9564 102.696 17.1138 103.388 16.4042C104.097 15.6769 105.153 15.3133 106.554 15.3133C107.423 15.3133 108.23 15.4552 108.975 15.739C109.738 16.0051 110.119 16.2978 110.119 16.6171C110.119 16.7945 110.048 16.9896 109.907 17.2025C109.765 17.4153 109.596 17.5218 109.401 17.5218C109.348 17.5218 109.02 17.3976 108.416 17.1492C107.813 16.9009 107.201 16.7767 106.58 16.7767C105.694 16.7767 105.028 16.9896 104.585 17.4153C104.141 17.841 103.92 18.32 103.92 18.8522C103.92 19.4021 104.141 19.8367 104.585 20.156C105.046 20.4753 105.596 20.7236 106.235 20.901C106.891 21.0606 107.538 21.2558 108.177 21.4864C108.833 21.6992 109.383 22.0895 109.827 22.6571C110.288 23.207 110.518 23.9255 110.518 24.8124C110.518 25.8767 110.137 26.7193 109.374 27.3402C108.629 27.9433 107.583 28.2449 106.235 28.2449C105.064 28.2449 104.07 28.0409 103.254 27.6329C102.456 27.2071 102.057 26.7725 102.057 26.3291Z" fill="white"/>
<g clip-path="url(#clip0)">
<path d="M16.0424 0.638966H1.12072L21.3328 34.7474L41.545 0.638966H26.6233L21.8822 8.63959L21.3328 9.56667L20.7835 8.63959L16.0424 0.638966Z" stroke="white" stroke-width="1.27719"/>
<path d="M16.0444 0.638851H9.65589L21.3349 20.347L33.0138 0.638851H26.6253L21.8842 8.63948L21.3349 9.56656L20.7855 8.63948L16.0444 0.638851Z" stroke="white" stroke-width="1.27719"/>
</g>
<defs>
<clipPath id="clip0">
<rect width="42.6667" height="36" fill="white"/>
</clipPath>
</defs>
</svg>
