<svg width="49" height="31" viewBox="0 0 49 31" fill="none" xmlns="http://www.w3.org/2000/svg">
<path fill-rule="evenodd" clip-rule="evenodd" d="M9.95121 26.4394C9.43971 26.4394 9.02449 26.8553 9.02449 27.3677C9.02449 27.8813 9.43971 28.2968 9.95121 28.2968C10.4631 28.2968 10.8777 27.8813 10.8777 27.3677C10.8777 26.8553 10.4631 26.4394 9.95121 26.4394ZM47.6568 25.7577C48.2643 25.7577 48.7087 26.0986 49 26.4394V24.7932C48.5227 24.4688 47.9477 24.3389 47.4476 24.3389C45.9116 24.3389 44.5769 25.4415 44.5769 27.3385C44.5769 29.1549 45.7899 30.3389 47.4715 30.3389C47.9566 30.3389 48.4902 30.2652 49 29.9172V28.3026C48.7087 28.6033 48.2485 28.9198 47.6568 28.9198C46.7517 28.9198 46.2096 28.2472 46.2096 27.3872C46.2096 26.4548 46.7839 25.7577 47.6568 25.7577ZM44.7506 24.5014H42.8906L41.184 26.8845V24.5014H39.5994L39.5999 30.1766H41.184V27.7357L42.825 30.1766H44.8074L42.5994 27.2495L44.7506 24.5014ZM34.9192 27.9066V24.5014H33.3909V30.1766H34.9435L37.1352 26.7711V30.1766H38.6635V24.5014H37.1105L34.9192 27.9066ZM30.3266 27.0547H29.8746V25.75H30.3266C31.006 25.75 31.1026 26.1144 31.1026 26.3983C31.1026 26.6414 31.0301 27.0547 30.3266 27.0547ZM30.674 24.5014H28.2888V30.1766H29.8746V28.3026H30.674C32.2756 28.3026 32.7366 27.1852 32.7366 26.3983C32.7366 25.6198 32.2836 24.5014 30.674 24.5014ZM23.5668 25.8629H24.8114V30.1766H26.3969V25.8629H27.6418V24.5014H23.5668V25.8629ZM19.1752 27.9066V24.5014H17.6472V30.1766H19.2002L21.3907 26.7711V30.1766H22.9194V24.5014H21.3672L19.1752 27.9066ZM14.453 29.0407H13.774V27.8494H14.453C14.9546 27.8494 15.2458 27.9956 15.2458 28.4419C15.2458 28.8955 14.9467 29.0407 14.453 29.0407ZM14.607 26.7144H13.774V25.8629H16.3696V24.5014H12.1892L12.189 30.1766L14.607 30.1766C15.0189 30.1766 16.8306 30.1923 16.8306 28.4173C16.8306 26.7063 15.0355 26.7144 14.607 26.7144ZM3.31838 27.3385C3.31838 29.1549 4.53131 30.3389 6.21312 30.3389C6.69882 30.3389 7.23238 30.2652 7.74201 29.9172V28.3026C7.44999 28.6033 6.98916 28.9198 6.39914 28.9198C5.49318 28.9198 4.95177 28.2472 4.95177 27.3872C4.95177 26.4548 5.52571 25.7577 6.39914 25.7577C7.00542 25.7577 7.44999 26.0986 7.74201 26.4394V24.7932C7.26379 24.4688 6.69022 24.3389 6.18882 24.3389C4.65227 24.3389 3.31838 25.4415 3.31838 27.3385ZM0 25.8064H0.865769V30.1766H2.32959V24.5014H0V25.8064Z" fill="#32373C"/>
<path fill-rule="evenodd" clip-rule="evenodd" d="M24.1079 -0.000244141C23.4265 -0.000244141 22.7639 0.0766027 22.1253 0.218728V9.17565C22.1253 10.2733 23.018 11.1684 24.1131 11.1684C25.2077 11.1684 26.1001 10.2733 26.1001 9.1762C26.1001 8.12183 25.2783 7.25641 24.2453 7.18755V5.5925C26.1542 5.66191 27.6903 7.24512 27.6903 9.1762C27.6903 11.1511 26.0833 12.7629 24.1131 12.7629C22.1421 12.7629 20.5354 11.1511 20.5354 9.17565V0.725531C20.3096 0.821659 20.0889 0.928253 19.8727 1.04283V9.17565C19.873 11.5166 21.7781 13.4256 24.1131 13.4256C26.4485 13.4256 28.3527 11.5166 28.3527 9.1762C28.3527 6.87934 26.5202 4.99838 24.2453 4.92759V3.33309C27.3955 3.40443 29.9421 6.0018 29.9421 9.1762C29.9421 12.3955 27.3235 15.0201 24.1131 15.0201C20.9019 15.0201 18.2825 12.3955 18.2825 9.17565V2.10051C16.2549 3.7815 14.9619 6.32351 14.9619 9.16877C14.9619 14.2327 19.0567 18.3389 24.1082 18.3389C29.1605 18.3389 33.2542 14.2327 33.2542 9.16877C33.2542 4.10486 29.1605 -0.000244141 24.1079 -0.000244141Z" fill="#32373C"/>
</svg>
