<svg width="96" height="18" viewBox="0 0 96 18" fill="none" xmlns="http://www.w3.org/2000/svg">
<path d="M9.51582 9.38358C9.51582 10.7666 9.08945 11.9316 8.23367 12.8747C7.34062 13.8628 6.1802 14.3588 4.7597 14.3588C3.33542 14.3588 2.17877 13.8628 1.28568 12.8747C0.429559 11.9316 0 10.7666 0 9.38358C0 7.99671 0.429559 6.83212 1.28568 5.89246C2.18868 4.9136 3.34914 4.4244 4.7597 4.4244C6.1802 4.4244 7.34062 4.9136 8.23367 5.89246C9.08945 6.83212 9.51582 7.99671 9.51582 9.38358ZM6.68756 9.38358C6.68756 8.75713 6.53211 8.22836 6.22089 7.80087C5.87267 7.31494 5.38536 7.07355 4.7597 7.07355C4.1338 7.07355 3.64668 7.31494 3.29812 7.80087C2.98367 8.22836 2.82806 8.75713 2.82806 9.38358C2.82806 10.0065 2.98367 10.5417 3.29812 10.982C3.64668 11.4679 4.1338 11.7097 4.7597 11.7097C5.38536 11.7097 5.87267 11.4679 6.22089 10.982C6.53211 10.5417 6.68756 10.0065 6.68756 9.38358ZM19.7419 9.38358C19.7419 10.6755 19.3562 11.8043 18.5814 12.77C17.7527 13.827 16.6837 14.3588 15.3848 14.3588C14.4679 14.3588 13.6901 14.1011 13.0541 13.5922C13.0541 13.7094 13.0676 13.9933 13.0948 14.4473C13.1218 14.9035 13.1351 15.2755 13.1351 15.5692C13.1351 17.1911 12.6345 18 11.6335 18C11.2239 18 10.8893 17.8597 10.6219 17.5823C10.3581 17.302 10.226 16.9653 10.226 16.5677V6.01979C10.226 5.63477 10.3614 5.30184 10.632 5.02154C10.9025 4.74413 11.2376 4.60417 11.6368 4.60417C12.2387 4.60417 12.6786 4.89388 12.9561 5.47182C13.548 4.77363 14.3565 4.4244 15.3814 4.4244C16.6837 4.4244 17.7493 4.94613 18.5814 5.99374C19.3528 6.96286 19.7419 8.09165 19.7419 9.38358ZM16.9136 9.38358C16.9136 8.75713 16.755 8.22836 16.4438 7.80087C16.095 7.31494 15.6081 7.07355 14.9822 7.07355C14.3565 7.07355 13.8694 7.31494 13.5208 7.80087C13.2096 8.22836 13.0541 8.75713 13.0541 9.38358C13.0541 10.0065 13.2096 10.5417 13.5208 10.982C13.8694 11.4679 14.3565 11.7097 14.9822 11.7097C15.6081 11.7097 16.095 11.4679 16.4438 10.982C16.755 10.5417 16.9136 10.0065 16.9136 9.38358ZM30.032 9.09023C30.032 9.54652 29.9203 9.85973 29.697 10.0362C29.4739 10.2089 29.1255 10.297 28.6553 10.297H23.5506C23.5506 10.8191 23.8044 11.2202 24.3118 11.5005C24.7211 11.7195 25.2217 11.8307 25.8137 11.8307C26.274 11.8307 26.8253 11.6833 27.4714 11.3934C28.1175 11.0995 28.5334 10.9558 28.713 10.9558C29.0409 10.9558 29.3182 11.0701 29.5483 11.305C29.7748 11.5368 29.8901 11.8173 29.8901 12.1404C29.8901 12.8871 29.3117 13.4685 28.1544 13.8859C27.2717 14.1989 26.3753 14.3588 25.4587 14.3588C23.9839 14.3588 22.793 13.8859 21.8831 12.9432C20.973 12.0001 20.5166 10.8158 20.5166 9.38358C20.5166 8.0195 20.99 6.85491 21.9371 5.88305C22.8808 4.91033 24.0549 4.4244 25.4552 4.4244C26.7576 4.4244 27.8467 4.88447 28.7197 5.80441C29.5922 6.72469 30.032 7.82077 30.032 9.09023ZM27.2042 8.40468C27.1905 7.98693 26.991 7.60861 26.6053 7.26576C26.2196 6.92343 25.8105 6.754 25.3774 6.754C24.9309 6.754 24.5147 6.92343 24.1292 7.26576C23.7437 7.60861 23.5506 7.98693 23.5506 8.40468H27.2042ZM39.5341 12.7468C39.5341 13.1452 39.4023 13.481 39.1387 13.7617C38.8713 14.0393 38.5362 14.1796 38.127 14.1796C37.1393 14.1796 36.6452 13.4226 36.6452 11.9121C36.6452 11.6216 36.6656 11.165 36.7061 10.5353C36.7502 9.90872 36.7706 9.44884 36.7706 9.15842C36.7706 7.55618 36.2327 6.754 35.1604 6.754C34.0879 6.754 33.5535 7.55618 33.5535 9.15842C33.5535 9.44884 33.5704 9.90872 33.6008 10.5353C33.6347 11.165 33.6516 11.6216 33.6516 11.9121C33.6516 13.4226 33.1644 14.1796 32.1904 14.1796C31.7809 14.1796 31.4462 14.0393 31.1822 13.7617C30.915 13.481 30.783 13.1452 30.783 12.7468V6.0169C30.783 5.62139 30.915 5.28595 31.1822 5.01502C31.4462 4.74087 31.7844 4.60417 32.1938 4.60417C32.8703 4.60417 33.3403 4.89388 33.6041 5.47182C34.0609 4.77363 34.8692 4.4244 36.0262 4.4244C37.0986 4.4244 37.9511 4.69822 38.577 5.24307C39.2163 5.82754 39.5341 6.62975 39.5341 7.65112V12.7468ZM48.4069 12.4569C48.4069 13.0734 47.9915 13.5626 47.1589 13.9219C46.4996 14.2119 45.783 14.3609 45.0584 14.3588C43.6337 14.3588 42.4772 13.8628 41.5843 12.8747C40.7282 11.9316 40.2987 10.7666 40.2987 9.38358C40.2987 7.99671 40.7351 6.82578 41.6112 5.86645C42.4872 4.90418 43.6337 4.4244 45.0584 4.4244C45.8802 4.4244 46.5872 4.5418 47.1762 4.77363C47.9977 5.08684 48.4069 5.57599 48.4069 6.24169C48.4069 6.5775 48.2989 6.87444 48.0822 7.13232C47.8659 7.38675 47.5881 7.51731 47.2504 7.51731C47.0199 7.51731 46.6883 7.44227 46.2556 7.29578C45.8226 7.14533 45.478 7.07355 45.2244 7.07355C44.5508 7.07355 44.0264 7.30519 43.651 7.76829C43.3025 8.18604 43.1265 8.72114 43.1265 9.38358C43.1265 10.0065 43.2821 10.5353 43.5972 10.9627C43.9449 11.4619 44.436 11.7097 45.0615 11.7097C45.3393 11.7097 45.7177 11.6314 46.2015 11.4712C46.6856 11.3151 47.0341 11.2335 47.2504 11.2335C47.5651 11.2335 47.8352 11.3638 48.0657 11.6184C48.2924 11.8761 48.4069 12.1531 48.4069 12.4569ZM58.6871 12.7468C58.6871 13.1452 58.5553 13.481 58.2914 13.7617C58.0243 14.0393 57.6862 14.1796 57.2763 14.1796C56.6607 14.1796 56.2212 13.889 55.9572 13.3116C55.3655 14.01 54.5567 14.3588 53.532 14.3588C52.2199 14.3588 51.1441 13.827 50.3115 12.77C49.5538 11.8043 49.1723 10.6755 49.1723 9.38358C49.1723 8.09165 49.5538 6.96286 50.3115 5.99374C51.1575 4.94613 52.2295 4.4244 53.532 4.4244C54.5567 4.4244 55.3655 4.77363 55.9572 5.47182C56.2212 4.89388 56.6607 4.60417 57.2763 4.60417C57.6758 4.60417 58.0109 4.74413 58.2818 5.02154C58.5519 5.30184 58.6871 5.6315 58.6871 6.0169V12.7468ZM55.8592 9.38358C55.8592 8.75713 55.704 8.22836 55.3924 7.80087C55.0305 7.31494 54.5433 7.07355 53.9312 7.07355C53.3053 7.07355 52.8185 7.31494 52.4696 7.80087C52.1553 8.22836 52.0001 8.75713 52.0001 9.38358C52.0001 10.0065 52.1515 10.5417 52.4524 10.982C52.8116 11.4679 53.3053 11.7097 53.9312 11.7097C54.5567 11.7097 55.0439 11.4679 55.3924 10.982C55.704 10.5417 55.8592 10.0065 55.8592 9.38358ZM65.9028 5.83695C65.9028 6.4209 65.6085 6.82215 65.0199 7.0406C64.4754 7.21711 63.9337 7.39687 63.3927 7.58223C62.8002 7.90882 62.5063 8.51555 62.5063 9.39659V12.7468C62.5063 13.1452 62.3706 13.481 62.1075 13.7617C61.8397 14.0393 61.5015 14.1796 61.0923 14.1796C60.6801 14.1796 60.3412 14.0393 60.078 13.7617C59.8102 13.481 59.6784 13.1452 59.6784 12.7468V6.0169C59.6784 5.62139 59.8102 5.28595 60.0742 5.01502C60.3412 4.74087 60.6801 4.60417 61.0893 4.60417C61.7655 4.60417 62.2354 4.89388 62.4997 5.47182C63.1053 4.77363 63.755 4.4244 64.455 4.4244C64.8539 4.4244 65.1958 4.56441 65.4798 4.84178C65.7602 5.12245 65.9028 5.45519 65.9028 5.83695ZM73.2806 5.96102C73.2806 6.56772 73.0336 6.94948 72.5437 7.11294C72.3028 7.19432 71.7983 7.23663 71.0306 7.23663V12.7468C71.0306 13.1452 70.8954 13.481 70.6322 13.7617C70.3644 14.0393 70.0263 14.1796 69.6171 14.1796C69.2182 14.1796 68.8794 14.0393 68.6085 13.7617C68.3384 13.481 68.2031 13.1452 68.2031 12.7468V7.23663C67.621 7.23663 67.1984 7.16486 66.9314 7.02489C66.5663 6.82904 66.3858 6.47333 66.3858 5.96102C66.3858 5.44903 66.5721 5.09984 66.9475 4.9136C67.2015 4.77652 67.621 4.70507 68.2031 4.70507V3.53703C68.2031 2.16358 68.6726 1.47854 69.6171 1.47854C70.5573 1.47854 71.0306 2.16358 71.0306 3.53703V4.70507C71.7983 4.70507 72.3028 4.74739 72.5437 4.82877C73.0336 4.9919 73.2806 5.37073 73.2806 5.96102ZM96 4.30434C95.9923 3.46688 94.3878 3.08675 90.2344 3.08675C80.489 3.08675 78.0165 2.68527 75.3708 0C76.4839 1.61236 77.0929 4.63656 87.3934 4.48607C98.1405 4.32639 91.5841 7.1587 89.6765 10.3587C93.1168 7.39724 95.9896 5.44525 96 4.31646V4.30434ZM82.3056 12.9038C82.3052 13.6822 81.6413 14.3226 80.834 14.3228C80.0187 14.3228 79.3594 13.687 79.3594 12.9038C79.3594 12.9034 79.3594 12.903 79.3594 12.9027C79.3594 12.123 80.0245 11.4813 80.8333 11.4813C80.8336 11.4813 80.8336 11.4813 80.834 11.4813C81.6466 11.4813 82.3056 12.1173 82.3056 12.9038ZM89.0168 12.9038C89.0164 13.6822 88.3525 14.3226 87.5452 14.3228C86.7307 14.3228 86.071 13.687 86.071 12.9038C86.071 12.9034 86.071 12.903 86.071 12.9027C86.071 12.123 86.736 11.4813 87.5444 11.4813C87.5448 11.4813 87.5448 11.4813 87.5452 11.4813C88.3578 11.4813 89.0168 12.1173 89.0168 12.9038Z" fill="#32373C"/>
</svg>
