<svg width="14" height="23" viewBox="0 0 14 23" fill="none" xmlns="http://www.w3.org/2000/svg">
<circle cx="7" cy="11.8379" r="7" fill="#343434" fill-opacity="0.8"/>
<path d="M6.05227 14.3179V13.5479C6.05227 12.9412 6.15027 12.4559 6.34627 12.0919C6.5516 11.7186 6.89693 11.4106 7.38227 11.1679C7.79293 10.9719 8.0916 10.7806 8.27827 10.5939C8.47427 10.4072 8.57227 10.1552 8.57227 9.83789C8.57227 9.38056 8.4136 9.01189 8.09627 8.73189C7.77893 8.44256 7.35427 8.29789 6.82227 8.29789C6.28093 8.29789 5.8656 8.42856 5.57627 8.68989C5.28693 8.95122 5.14227 9.28722 5.14227 9.69789H3.67227C3.67227 8.90456 3.95693 8.24189 4.52627 7.70989C5.10493 7.16856 5.87027 6.89789 6.82227 6.89789C7.7836 6.89789 8.55827 7.16389 9.14627 7.69589C9.7436 8.21856 10.0423 8.88589 10.0423 9.69789C10.0423 10.8459 9.52893 11.6626 8.50227 12.1479C7.84893 12.4372 7.52227 12.9039 7.52227 13.5479V14.3179H6.05227ZM5.98227 16.8379V15.2279H7.59227V16.8379H5.98227Z" fill="white"/>
</svg>
