<svg width="82" height="23" viewBox="0 0 82 23" fill="none" xmlns="http://www.w3.org/2000/svg">
<path fill-rule="evenodd" clip-rule="evenodd" d="M23.1628 5.28064C23.1628 5.24898 23.1584 5.21746 23.1498 5.1869C23.148 5.18012 23.145 5.17387 23.1419 5.1676C23.1401 5.16391 23.1383 5.16021 23.1367 5.1564C23.135 5.15211 23.1334 5.14781 23.1318 5.1435C23.1263 5.12888 23.1208 5.11429 23.1125 5.10078C23.1082 5.09318 23.1024 5.08653 23.0965 5.07984C23.0933 5.07626 23.0902 5.07268 23.0873 5.06893C23.0839 5.06458 23.0807 5.06019 23.0774 5.05582C23.0701 5.04577 23.0628 5.03583 23.0537 5.02677C23.0469 5.02055 23.039 5.01504 23.0312 5.00957C23.0266 5.00636 23.0221 5.00317 23.0178 4.99985C23.0134 4.99662 23.0092 4.9933 23.005 4.98998C22.9958 4.98273 22.9867 4.97551 22.9758 4.96935L18.4929 2.48756C18.4361 2.45611 18.3718 2.43956 18.3063 2.43956C18.2408 2.43956 18.1764 2.45611 18.1197 2.48756L13.6363 4.96935H13.6358C13.6255 4.97524 13.6165 4.98264 13.6073 4.99019C13.6032 4.99357 13.5991 4.99698 13.5948 5.0003C13.5907 5.00329 13.5865 5.00613 13.5823 5.00898C13.5739 5.01466 13.5655 5.02034 13.5584 5.02722C13.5491 5.03613 13.5417 5.04619 13.5342 5.0564C13.5311 5.06057 13.528 5.06477 13.5248 5.06893C13.5216 5.07326 13.518 5.07736 13.5145 5.08149C13.5091 5.08763 13.5038 5.0938 13.4996 5.10078C13.4914 5.11477 13.4856 5.12992 13.4798 5.14506C13.4783 5.14884 13.4768 5.15263 13.4753 5.1564C13.4737 5.16099 13.4716 5.1654 13.4694 5.16983C13.4668 5.17536 13.4641 5.18092 13.4623 5.1869C13.4539 5.21695 13.4492 5.2488 13.4492 5.28019V9.99438L9.71362 12.0626V2.84102C9.71353 2.80935 9.70914 2.77784 9.70055 2.74727C9.69894 2.74107 9.6961 2.73532 9.69326 2.72959C9.69116 2.72536 9.68908 2.72115 9.68749 2.71677C9.68586 2.71265 9.6843 2.70853 9.68273 2.70443C9.67715 2.68974 9.67162 2.67517 9.66323 2.66115C9.65927 2.65406 9.65375 2.6478 9.64824 2.64157C9.6447 2.63754 9.64115 2.63353 9.63804 2.6293C9.63465 2.62495 9.63143 2.62056 9.62822 2.61619C9.62085 2.60614 9.61356 2.5962 9.60446 2.58714C9.59731 2.58056 9.58891 2.57478 9.58051 2.569C9.57631 2.56611 9.57211 2.56322 9.56807 2.56023C9.56421 2.55728 9.56042 2.55426 9.55663 2.55124C9.54716 2.54369 9.53768 2.53613 9.52702 2.52973H9.52609L5.04317 0.0479364C4.98641 0.0165296 4.92206 0 4.85657 0C4.79109 0 4.72674 0.0165296 4.66998 0.0479364L0.18706 2.52973H0.186594C0.175209 2.53603 0.16561 2.54405 0.15591 2.55215C0.152495 2.55501 0.149066 2.55787 0.145543 2.56068C0.141332 2.56379 0.136896 2.56674 0.13245 2.5697C0.12409 2.57527 0.115695 2.58085 0.108691 2.58759C0.0988831 2.59737 0.0907724 2.60851 0.0825967 2.61974C0.0802734 2.62293 0.0779448 2.62613 0.0755706 2.6293C0.0724809 2.63326 0.0691386 2.63704 0.0657992 2.64082C0.0600634 2.6473 0.0543364 2.65378 0.0499139 2.66115C0.0409411 2.67644 0.034821 2.69311 0.0287477 2.70965C0.0278747 2.71203 0.0270026 2.7144 0.0261232 2.71677C0.0244916 2.72128 0.0223251 2.72562 0.0201694 2.72994C0.0173942 2.73549 0.0146368 2.74102 0.0130616 2.74682C0.00466485 2.77732 0 2.80872 0 2.84102V17.6053C4.51275e-05 17.6684 0.0174038 17.7305 0.0503265 17.7851C0.0832492 17.8398 0.130573 17.8851 0.187527 17.9166L9.1529 22.8801C9.16874 22.8888 9.1858 22.8946 9.2026 22.9003C9.20658 22.9016 9.21055 22.903 9.21448 22.9044C9.21832 22.9058 9.22208 22.9074 9.22586 22.9091C9.23173 22.9118 9.23763 22.9144 9.24387 22.916C9.30655 22.9319 9.37244 22.9319 9.43512 22.916C9.44008 22.9148 9.44474 22.9127 9.44936 22.9106C9.453 22.909 9.45661 22.9073 9.46031 22.9062L9.4662 22.9042C9.48661 22.8972 9.50689 22.8904 9.52562 22.8801L18.4929 17.9166C18.6085 17.852 18.6795 17.7336 18.6795 17.6053V12.8915L22.9753 10.5133C23.0323 10.4819 23.0797 10.4366 23.1126 10.3819C23.1455 10.3273 23.1628 10.2652 23.1628 10.2021V5.28064ZM22.4155 5.90188V9.99438H22.416L18.6795 12.0626V7.97011L20.8467 6.77026L22.4155 5.90188ZM17.9326 13.3024V17.3976L9.71315 21.9476V17.8138L15.8008 14.4731L17.9326 13.3024ZM0.747309 17.3976V3.4627L2.3161 4.33018L4.48292 5.53048V15.1656V15.1665C4.48292 15.1755 4.48458 15.1845 4.48624 15.1934C4.48707 15.1979 4.4879 15.2024 4.48852 15.2069C4.4889 15.2105 4.48924 15.214 4.48958 15.2176C4.49092 15.2317 4.49227 15.2458 4.49598 15.2594V15.2598C4.49855 15.2697 4.5031 15.2787 4.50766 15.2878C4.50974 15.2919 4.51181 15.296 4.51371 15.3002C4.5151 15.3037 4.51644 15.3072 4.51778 15.3108C4.52229 15.3227 4.52683 15.3347 4.5333 15.3451L4.53377 15.3464C4.53842 15.3542 4.54453 15.3612 4.55073 15.3683C4.55447 15.3725 4.55824 15.3768 4.56176 15.3814C4.56518 15.3856 4.56839 15.3899 4.5716 15.3942C4.57803 15.4029 4.58446 15.4116 4.59254 15.4191L4.59348 15.4204C4.5998 15.4265 4.60735 15.4315 4.61495 15.4366C4.61969 15.4398 4.62445 15.443 4.62893 15.4464C4.63364 15.4499 4.63818 15.4535 4.64271 15.4572C4.65119 15.464 4.65962 15.4708 4.66905 15.476L4.67091 15.4769L4.67231 15.4778L8.96584 17.8143V21.9472L0.747309 17.3976ZM4.85657 0.773938L4.85704 0.773679H4.85611L4.85657 0.773938ZM4.85657 0.773938L1.1219 2.84102L4.85611 4.90835L8.59079 2.84057L4.85657 0.773938ZM8.96631 12.4762L6.79948 13.6756L5.23023 14.5444V5.53048L7.39752 4.33063L8.96631 3.46225V12.4762ZM14.5716 5.28064L18.3063 3.21331L22.0405 5.28019L18.3063 7.34798L14.5716 5.28064ZM15.7653 6.77026L17.9326 7.97011V12.0626L16.3634 11.1938L14.1965 9.99438V5.90188L15.7653 6.77026ZM14.817 14.1856L9.33903 17.1926L5.61041 15.1634L9.52656 12.9956L13.8233 10.617L17.5552 12.683L14.817 14.1856ZM34.4838 15.8904V5.59286H32.5408V17.667H38.1326V15.8904H34.4838ZM44.9909 10.715V10.7157H44.9913C44.9912 10.7155 44.991 10.7152 44.9909 10.715ZM44.9909 9.62903V10.715C44.7428 10.3127 44.3911 9.99708 43.9353 9.7671C43.4793 9.53698 43.0203 9.42215 42.5586 9.42215C41.9613 9.42215 41.4151 9.53386 40.9197 9.75816C40.437 9.97306 40.0028 10.2871 39.6441 10.6809C39.2874 11.0751 39.0067 11.5344 38.8166 12.0347C38.6192 12.5468 38.5207 13.0848 38.5207 13.6478C38.5171 14.2028 38.6176 14.7534 38.817 15.2697C39.0083 15.7667 39.2888 16.2228 39.6441 16.6147C40.0027 17.0086 40.4369 17.3229 40.9197 17.5378C41.4151 17.7621 41.9613 17.8738 42.5586 17.8738C43.0203 17.8738 43.4793 17.759 43.9353 17.5289C44.3918 17.2992 44.7432 16.9829 44.9913 16.5803V17.6674H46.8323V9.62903H44.9909ZM44.9913 13.6482C44.9927 13.9836 44.9354 14.3165 44.8219 14.6312C44.7164 14.9297 44.556 15.2048 44.3493 15.4418C44.1431 15.6745 43.8931 15.8623 43.6141 15.994C43.3271 16.1321 43.0089 16.2009 42.6597 16.2009C42.3105 16.2009 41.995 16.1321 41.714 15.994C41.4385 15.8607 41.1917 15.673 40.9876 15.4418C40.7845 15.2117 40.6296 14.9418 40.5228 14.6308C40.4156 14.3207 40.3622 13.9927 40.3622 13.6478C40.3605 13.3131 40.415 12.9806 40.5233 12.6648C40.6234 12.3657 40.7812 12.0901 40.9871 11.8542C41.1913 11.6231 41.4382 11.4354 41.7136 11.3019C41.995 11.1643 42.3105 11.0951 42.6601 11.0951C43.0089 11.0951 43.3271 11.1643 43.6141 11.3019C43.893 11.4338 44.143 11.6216 44.3493 11.8542C44.556 12.0914 44.7164 12.3666 44.8219 12.6652C44.9344 12.9753 44.9913 13.3028 44.9913 13.6482ZM48.2852 9.62903V17.667V17.6679H50.1263V11.4793H53.2858V9.62903H48.2852ZM59.9586 9.62903V10.7157C59.7109 10.3131 59.359 9.99721 58.9026 9.7671C58.4466 9.53698 57.9876 9.42215 57.5259 9.42215C56.929 9.42215 56.3828 9.53386 55.8874 9.75816C55.4046 9.97301 54.9702 10.2871 54.6114 10.6809C54.2548 11.0751 53.9742 11.5344 53.7843 12.0347C53.5869 12.5468 53.4884 13.0848 53.4884 13.6478C53.4846 14.2028 53.585 14.7534 53.7843 15.2697C53.9757 15.7668 54.2564 16.2229 54.6118 16.6147C54.9704 17.0086 55.4046 17.3229 55.8874 17.5378C56.3828 17.7621 56.929 17.8738 57.5259 17.8738C57.988 17.8738 58.4466 17.759 58.9026 17.5289C59.359 17.2992 59.7109 16.9829 59.9586 16.5803V17.6674H61.8V9.62903H59.9586ZM59.9586 13.6482C59.9601 13.9836 59.9029 14.3165 59.7896 14.6312C59.6841 14.9297 59.5237 15.2048 59.317 15.4418C59.1108 15.6745 58.8608 15.8623 58.5818 15.994C58.2948 16.1321 57.9762 16.2009 57.6274 16.2009C57.2782 16.2009 56.9627 16.1321 56.6813 15.994C56.4058 15.8607 56.1589 15.673 55.9548 15.4418C55.7522 15.2117 55.5973 14.9418 55.4905 14.6308C55.3829 14.3207 55.3299 13.9927 55.3299 13.6478C55.3281 13.3131 55.3824 12.9807 55.4905 12.6648C55.5908 12.3657 55.7487 12.0901 55.9548 11.8542C56.159 11.6231 56.4059 11.4354 56.6813 11.3019C56.9627 11.1643 57.2782 11.0951 57.6274 11.0951C57.9762 11.0951 58.2948 11.1643 58.5818 11.3019C58.8607 11.4338 59.1107 11.6216 59.317 11.8542C59.5237 12.0914 59.6841 12.3666 59.7896 12.6652C59.9017 12.9753 59.9586 13.3028 59.9586 13.6482ZM71.0473 9.62903H69.1822L66.8681 15.7845L64.5535 9.62903H62.6884L65.7106 17.6674H68.0255L71.0473 9.62903ZM78.9593 14.3466C79.2805 11.6911 77.5708 9.42215 75.0637 9.42215H75.0632C72.8087 9.42215 71.0236 11.3145 71.0236 13.6482C71.0236 16.2282 72.7509 17.8743 75.2991 17.8743C76.7253 17.8743 77.636 17.3171 78.7484 16.1049L77.5043 15.1218C77.5038 15.1227 76.5651 16.3806 75.1648 16.3806C73.5364 16.3806 72.8507 15.0401 72.8507 14.3466H78.9593ZM77.2684 12.9494H72.8555C72.8695 12.7948 73.0817 10.9154 75.0488 10.9154C77.0154 10.9154 77.2548 12.7948 77.2684 12.9494ZM80.1584 5.59286V17.667H81.9999V5.59286H80.1584Z" fill="#32373C"/>
</svg>
