<svg width="67" height="28" viewBox="0 0 67 28" fill="none" xmlns="http://www.w3.org/2000/svg">
<g clip-path="url(#clip0)">
<path d="M30.1627 21.2747H26.7103V21.6395C27.7902 21.6395 27.9638 21.8701 27.9638 23.2343V25.6938C27.9638 27.0578 27.7903 27.3077 26.7103 27.3077C25.8812 27.1925 25.3217 26.7504 24.5502 25.9051L23.6631 24.9445C24.8588 24.7329 25.4951 23.9837 25.4951 23.1382C25.4951 22.0817 24.5889 21.2747 22.8915 21.2747H19.4971V21.6395C20.5769 21.6395 20.7506 21.8701 20.7506 23.2343V25.6938C20.7506 27.0578 20.5769 27.3077 19.4971 27.3077V27.6727H23.335V27.3077C22.2552 27.3077 22.0815 27.0578 22.0815 25.6938V25.0022H22.4093L24.5502 27.6727H30.1627C32.9206 27.6727 34.1164 26.2126 34.1164 24.464C34.1164 22.7156 32.9208 21.2747 30.1627 21.2747ZM22.0817 24.4062V21.8511H22.8723C23.7401 21.8511 24.126 22.4467 24.126 23.1384C24.126 23.811 23.7401 24.4064 22.8723 24.4064H22.0817V24.4062ZM30.2207 27.0771H30.0855C29.3914 27.0771 29.2949 26.9043 29.2949 26.0204V21.8511C29.2949 21.8511 30.1435 21.8511 30.2207 21.8511C32.2264 21.8511 32.5927 23.3112 32.5927 24.4449C32.5927 25.6167 32.2263 27.0771 30.2207 27.0771Z" fill="#32373C"/>
<path d="M8.75613 25.1195L10.0869 21.1997C10.4728 20.0661 10.2992 19.7396 9.06487 19.7396V19.3552H12.6907V19.7396C11.4757 19.7396 11.1865 20.0278 10.7043 21.4304L8.50536 28.0014H8.25476L6.2873 21.9875L4.28167 28.0014H4.03091L1.89015 21.4304C1.42728 20.0278 1.11869 19.7396 0 19.7396V19.3552H4.28167V19.7396C3.14365 19.7396 2.8349 20.0086 3.24012 21.1997L4.53227 25.1195L6.48025 19.3552H6.84681L8.75613 25.1195Z" fill="#32373C"/>
<path d="M15.3124 27.9215C13.1909 27.9215 11.4551 26.3653 11.4551 24.4629C11.4551 22.5801 13.1911 21.0237 15.3124 21.0237C17.434 21.0237 19.1697 22.5801 19.1697 24.4629C19.1697 26.3653 17.434 27.9215 15.3124 27.9215ZM15.3124 21.6197C13.5382 21.6197 12.9208 23.2142 12.9208 24.4631C12.9208 25.7314 13.5382 27.3068 15.3124 27.3068C17.1062 27.3068 17.7234 25.7314 17.7234 24.4631C17.7234 23.2142 17.1062 21.6197 15.3124 21.6197Z" fill="#32373C"/>
<path d="M38.8805 27.2884V27.6727H34.4639V27.2884C35.7562 27.2884 35.9876 26.9619 35.9876 25.0403V21.9663C35.9876 20.0447 35.7562 19.7375 34.4639 19.7375V19.353H38.4561C40.4426 19.353 41.5423 20.3714 41.5423 21.7358C41.5423 23.0615 40.4426 24.0989 38.4561 24.0989H37.3568V25.0401C37.3568 26.9619 37.5882 27.2884 38.8805 27.2884ZM38.4561 20.0447H37.3568V23.388H38.4561C39.5363 23.388 40.0377 22.6388 40.0377 21.7358C40.0377 20.8135 39.5363 20.0447 38.4561 20.0447Z" fill="#32373C"/>
<path d="M54.7919 25.8667L54.6954 26.2125C54.5219 26.8465 54.3095 27.0771 52.9402 27.0771H52.6701C51.6674 27.0771 51.4938 26.8465 51.4938 25.4825V24.5987C52.9982 24.5987 53.114 24.733 53.114 25.7323H53.4804V22.8693H53.114C53.114 23.8684 52.9982 24.0028 51.4938 24.0028V21.8511H52.5543C53.9239 21.8511 54.1359 22.0817 54.3095 22.7158L54.4061 23.0806H54.7146L54.5798 21.2747H48.9093V21.6395C49.9892 21.6395 50.163 21.8701 50.163 23.2343V25.6938C50.163 26.9417 50.0155 27.256 49.164 27.3009C48.3547 27.1777 47.7991 26.738 47.0388 25.9051L46.1515 24.9445C47.3474 24.7329 47.9839 23.9837 47.9839 23.1382C47.9839 22.0817 47.0775 21.2747 45.3803 21.2747H41.9858V21.6395C43.0657 21.6395 43.2393 21.8701 43.2393 23.2343V25.6938C43.2393 27.0578 43.0659 27.3077 41.9858 27.3077V27.6727H45.824V27.3077C44.7441 27.3077 44.5703 27.0578 44.5703 25.6938V25.0022H44.8982L47.039 27.6727H54.9657L55.0815 25.8669H54.7919V25.8667ZM44.5701 24.4062V21.8511H45.3608C46.2287 21.8511 46.6146 22.4467 46.6146 23.1384C46.6146 23.811 46.2287 24.4064 45.3608 24.4064H44.5701V24.4062Z" fill="#32373C"/>
<path d="M58.7072 27.923C57.9358 27.923 57.2606 27.5197 56.9714 27.2697C56.8749 27.366 56.7014 27.6541 56.6629 27.923H56.2964V25.2719H56.6821C56.8366 26.5398 57.7235 27.2891 58.8615 27.2891C59.4787 27.2891 59.9802 26.9434 59.9802 26.367C59.9802 25.8676 59.5367 25.4832 58.7459 25.1181L57.6465 24.5994C56.8749 24.2341 56.2964 23.6 56.2964 22.7548C56.2964 21.8326 57.1643 21.045 58.3602 21.045C58.9967 21.045 59.5365 21.2755 59.8646 21.5444C59.9609 21.4676 60.0574 21.2561 60.1154 21.0254H60.4817V23.2928H60.0767C59.9416 22.3896 59.4402 21.6404 58.4181 21.6404C57.8781 21.6404 57.3764 21.9478 57.3764 22.4283C57.3764 22.9278 57.7815 23.1967 58.7074 23.6194L59.7679 24.1382C60.6939 24.58 61.0601 25.2913 61.0601 25.8676C61.0601 27.0778 59.9994 27.923 58.7072 27.923Z" fill="#32373C"/>
<path d="M64.6473 27.923C63.8757 27.923 63.2006 27.5197 62.9115 27.2697C62.815 27.366 62.6415 27.6541 62.6031 27.923H62.2365V25.2719H62.6222C62.7765 26.5398 63.6636 27.2891 64.8016 27.2891C65.4188 27.2891 65.9203 26.9434 65.9203 26.367C65.9203 25.8676 65.4768 25.4832 64.6858 25.1181L63.5865 24.5994C62.815 24.2341 62.2363 23.6 62.2363 22.7548C62.2363 21.8326 63.1043 21.045 64.3001 21.045C64.9366 21.045 65.4765 21.2755 65.8045 21.5444C65.9008 21.4676 65.9973 21.2561 66.055 21.0254H66.4215V23.2928H66.0166C65.8815 22.3896 65.3801 21.6404 64.3581 21.6404C63.8181 21.6404 63.3164 21.9478 63.3164 22.4283C63.3164 22.9278 63.7214 23.1967 64.6473 23.6194L65.7079 24.1382C66.6338 24.58 67 25.2913 67 25.8676C67 27.0778 65.9393 27.923 64.6473 27.923Z" fill="#32373C"/>
<path d="M26.1611 8.64685C26.1611 11.5831 27.874 14.1205 30.3578 15.323L26.8058 5.62793C26.3927 6.55049 26.1611 7.57143 26.1611 8.64685Z" fill="#32373C"/>
<path d="M38.6342 8.27216C38.6342 7.35538 38.3036 6.72049 38.0201 6.22632C37.6426 5.61528 37.2888 5.09783 37.2888 4.48679C37.2888 3.80489 37.808 3.17014 38.5392 3.17014C38.5722 3.17014 38.6036 3.17423 38.6357 3.17607C37.3109 1.96698 35.5459 1.22876 33.6073 1.22876C31.0059 1.22876 28.7172 2.55839 27.3857 4.57233C27.5604 4.57755 27.7251 4.58122 27.8649 4.58122C28.6438 4.58122 29.8494 4.48707 29.8494 4.48707C30.2508 4.4635 30.2982 5.05082 29.8972 5.09811C29.8972 5.09811 29.4938 5.1454 29.0449 5.16883L31.7566 13.2038L33.3861 8.33511L32.226 5.16854C31.825 5.14511 31.4451 5.09783 31.4451 5.09783C31.0439 5.0744 31.0909 4.46322 31.4922 4.48679C31.4922 4.48679 32.7219 4.58094 33.4536 4.58094C34.2323 4.58094 35.4381 4.48679 35.4381 4.48679C35.8398 4.46322 35.8869 5.05054 35.4858 5.09783C35.4858 5.09783 35.0816 5.14511 34.6336 5.16854L37.3245 13.1427L38.0673 10.6702C38.3892 9.64414 38.6342 8.90719 38.6342 8.27216Z" fill="#32373C"/>
<path d="M33.7381 9.29517L31.5039 15.7625C32.171 15.9579 32.8764 16.0647 33.6074 16.0647C34.4746 16.0647 35.3061 15.9154 36.0802 15.6442C36.0602 15.6125 36.0421 15.5787 36.0272 15.542L33.7381 9.29517Z" fill="#32373C"/>
<path d="M40.1416 5.08765C40.1737 5.32393 40.1918 5.57758 40.1918 5.85042C40.1918 6.60318 40.0507 7.44937 39.6256 8.50743L37.3511 15.0586C39.5648 13.7726 41.0538 11.3834 41.0538 8.64675C41.054 7.35706 40.7233 6.1443 40.1416 5.08765Z" fill="#32373C"/>
<path d="M33.6079 0C28.8218 0 24.9277 3.87895 24.9277 8.64686C24.9277 13.4153 28.8218 17.2941 33.6079 17.2941C38.3939 17.2941 42.2885 13.4153 42.2885 8.64686C42.2883 3.87895 38.3939 0 33.6079 0ZM33.6079 16.8978C29.0413 16.8978 25.3257 13.1964 25.3257 8.64686C25.3257 4.09759 29.0411 0.396491 33.6079 0.396491C38.1744 0.396491 41.8896 4.09759 41.8896 8.64686C41.8896 13.1964 38.1744 16.8978 33.6079 16.8978Z" fill="#32373C"/>
</g>
<defs>
<clipPath id="clip0">
<rect width="67" height="28" fill="white"/>
</clipPath>
</defs>
</svg>
