<svg width="162" height="34" viewBox="0 0 162 34" fill="none" xmlns="http://www.w3.org/2000/svg">
<path d="M2.41797 16.9996C2.41797 22.7721 5.78015 27.7607 10.6556 30.1247L3.68341 11.0645C2.87242 12.8782 2.41797 14.8853 2.41797 16.9996Z" fill="white"/>
<path d="M26.9036 16.2627C26.9036 14.4604 26.2547 13.2122 25.6982 12.2407C24.9573 11.0394 24.2628 10.0221 24.2628 8.82076C24.2628 7.48016 25.2818 6.23225 26.7172 6.23225C26.782 6.23225 26.8435 6.24029 26.9066 6.2439C24.3062 3.86685 20.8417 2.41553 17.0364 2.41553C11.9302 2.41553 7.43771 5.02957 4.82422 8.98892C5.16714 8.99919 5.49031 9.0064 5.76482 9.0064C7.29364 9.0064 9.66016 8.82131 9.66016 8.82131C10.4481 8.77497 10.541 9.92964 9.75388 10.0226C9.75388 10.0226 8.96208 10.1156 8.081 10.1616L13.4036 25.9583L16.6023 16.3865L14.3251 10.1611C13.538 10.115 12.7923 10.0221 12.7923 10.0221C12.0047 9.97599 12.097 8.77442 12.8847 8.82076C12.8847 8.82076 15.2985 9.00585 16.7347 9.00585C18.2632 9.00585 20.63 8.82076 20.63 8.82076C21.4185 8.77442 21.5111 9.92909 20.7237 10.0221C20.7237 10.0221 19.9303 10.115 19.0509 10.1611L24.3329 25.8381L25.7908 20.9772C26.4227 18.96 26.9036 17.5112 26.9036 16.2627Z" fill="white"/>
<path d="M17.2916 18.2744L12.9062 30.9891C14.2156 31.3732 15.6004 31.5833 17.0352 31.5833C18.7373 31.5833 20.3696 31.2897 21.8889 30.7566C21.8497 30.6942 21.8141 30.6278 21.7849 30.5557L17.2916 18.2744Z" fill="white"/>
<path d="M29.8643 10.0024C29.9271 10.467 29.9627 10.9656 29.9627 11.502C29.9627 12.9819 29.6857 14.6456 28.8514 16.7257L24.3867 29.6052C28.7321 27.0769 31.6548 22.3797 31.6548 16.9996C31.6551 14.4641 31.006 12.0798 29.8643 10.0024Z" fill="white"/>
<path d="M17.0387 0C7.64381 0 0 7.62595 0 16.9996C0 26.3743 7.64381 34 17.0387 34C26.4334 34 34.0783 26.3743 34.0783 16.9996C34.078 7.62595 26.4334 0 17.0387 0ZM17.0387 33.2208C8.07463 33.2208 0.781264 25.9439 0.781264 16.9996C0.781264 8.05579 8.07436 0.779494 17.0387 0.779494C26.0025 0.779494 33.2954 8.05579 33.2954 16.9996C33.2954 25.9439 26.0025 33.2208 17.0387 33.2208Z" fill="white"/>
<path d="M97.1742 15.3335H91.0991V15.9664C92.9994 15.9664 93.3049 16.3663 93.3049 18.7329V22.9993C93.3049 25.3656 92.9996 25.7989 91.0991 25.7989C89.6402 25.5991 88.6556 24.8323 87.2981 23.3658L85.7371 21.6995C87.8411 21.3324 88.9608 20.0329 88.9608 18.5662C88.9608 16.7335 87.3661 15.3335 84.3793 15.3335H78.4062V15.9664C80.3065 15.9664 80.612 16.3663 80.612 18.7329V22.9993C80.612 25.3656 80.3065 25.7989 78.4062 25.7989V26.4321H85.1598V25.7989C83.2596 25.7989 82.9541 25.3656 82.9541 22.9993V21.7997H83.5308L87.2981 26.4321H97.1742C102.027 26.4321 104.132 23.8994 104.132 20.866C104.132 17.8331 102.028 15.3335 97.1742 15.3335ZM82.9543 20.7658V16.3335H84.3456C85.8726 16.3335 86.5516 17.3666 86.5516 18.5665C86.5516 19.7332 85.8726 20.766 84.3456 20.766H82.9543V20.7658ZM97.2762 25.399H97.0385C95.817 25.399 95.6472 25.0992 95.6472 23.566V16.3335C95.6472 16.3335 97.1405 16.3335 97.2762 16.3335C100.806 16.3335 101.45 18.8662 101.45 20.8328C101.45 22.8657 100.805 25.399 97.2762 25.399Z" fill="white"/>
<path d="M59.5056 22.0007L61.8473 15.201C62.5264 13.2347 62.2209 12.6683 60.0489 12.6683V12.0015H66.4292V12.6683C64.2911 12.6683 63.7821 13.1682 62.9336 15.6013L59.0643 26.9999H58.6233L55.1612 16.5676L51.632 26.9999H51.1907L47.4237 15.6013C46.6092 13.1682 46.0662 12.6683 44.0977 12.6683V12.0015H51.632V12.6683C49.6294 12.6683 49.0862 13.1348 49.7992 15.201L52.073 22.0007L55.5008 12.0015H56.1458L59.5056 22.0007Z" fill="white"/>
<path d="M72.6274 26.864C68.8944 26.864 65.8398 24.1646 65.8398 20.8645C65.8398 17.5984 68.8947 14.8984 72.6274 14.8984C76.3607 14.8984 79.415 17.5984 79.415 20.8645C79.415 24.1646 76.3607 26.864 72.6274 26.864ZM72.6274 15.9324C69.5054 15.9324 68.4191 18.6984 68.4191 20.8648C68.4191 23.0649 69.5054 25.7978 72.6274 25.7978C75.784 25.7978 76.87 23.0649 76.87 20.8648C76.87 18.6984 75.784 15.9324 72.6274 15.9324Z" fill="white"/>
<path d="M112.522 25.7655V26.4321H104.75V25.7655C107.024 25.7655 107.431 25.1991 107.431 21.8657V16.5333C107.431 13.1998 107.024 12.6669 104.75 12.6669V12H111.775C115.271 12 117.206 13.7665 117.206 16.1334C117.206 18.4331 115.271 20.2327 111.775 20.2327H109.841V21.8654C109.841 25.1991 110.248 25.7655 112.522 25.7655ZM111.775 13.1998H109.841V18.9995H111.775C113.676 18.9995 114.558 17.6997 114.558 16.1334C114.558 14.5336 113.676 13.1998 111.775 13.1998Z" fill="white"/>
<path d="M140.519 23.2993L140.349 23.8991C140.044 24.999 139.67 25.399 137.26 25.399H136.785C135.021 25.399 134.715 24.999 134.715 22.6327V21.0998C137.362 21.0998 137.566 21.3327 137.566 23.0661H138.211V18.0997H137.566C137.566 19.8328 137.362 20.0661 134.715 20.0661V16.3335H136.581C138.992 16.3335 139.364 16.7335 139.67 17.8334L139.84 18.4663H140.383L140.146 15.3335H130.167V15.9664C132.068 15.9664 132.373 16.3663 132.373 18.7329V22.9993C132.373 25.1641 132.114 25.7094 130.616 25.7871C129.191 25.5736 128.214 24.8107 126.876 23.3658L125.315 21.6995C127.419 21.3324 128.539 20.0329 128.539 18.5662C128.539 16.7335 126.944 15.3335 123.957 15.3335H117.984V15.9664C119.885 15.9664 120.19 16.3663 120.19 18.7329V22.9993C120.19 25.3656 119.885 25.7989 117.984 25.7989V26.4321H124.738V25.7989C122.838 25.7989 122.532 25.3656 122.532 22.9993V21.7997H123.109L126.876 26.4321H140.825L141.028 23.2996H140.519V23.2993ZM122.532 20.7658V16.3335H123.923C125.45 16.3335 126.129 17.3666 126.129 18.5665C126.129 19.7332 125.45 20.766 123.923 20.766H122.532V20.7658Z" fill="white"/>
<path d="M147.406 26.8662C146.049 26.8662 144.861 26.1665 144.352 25.7329C144.182 25.8999 143.877 26.3997 143.809 26.8662H143.164V22.2672H143.843C144.115 24.4668 145.675 25.7665 147.678 25.7665C148.764 25.7665 149.646 25.1668 149.646 24.167C149.646 23.3006 148.866 22.6338 147.474 22.0006L145.54 21.1008C144.182 20.467 143.164 19.3671 143.164 17.9009C143.164 16.3011 144.691 14.9348 146.796 14.9348C147.916 14.9348 148.866 15.3348 149.443 15.8013C149.612 15.6679 149.782 15.3011 149.884 14.9009H150.529V18.8341H149.816C149.578 17.2674 148.696 15.9677 146.898 15.9677C145.947 15.9677 145.065 16.5009 145.065 17.3345C145.065 18.2009 145.777 18.6674 147.407 19.4008L149.273 20.3006C150.902 21.0671 151.547 22.3009 151.547 23.3006C151.547 25.4 149.68 26.8662 147.406 26.8662Z" fill="white"/>
<path d="M157.86 26.8662C156.502 26.8662 155.314 26.1665 154.805 25.7329C154.635 25.8999 154.33 26.3997 154.263 26.8662H153.617V22.2672H154.296C154.568 24.4668 156.129 25.7665 158.131 25.7665C159.217 25.7665 160.1 25.1668 160.1 24.167C160.1 23.3006 159.319 22.6338 157.927 22.0006L155.993 21.1008C154.635 20.467 153.617 19.3671 153.617 17.9009C153.617 16.3011 155.144 14.9348 157.249 14.9348C158.369 14.9348 159.319 15.3348 159.896 15.8013C160.065 15.6679 160.235 15.3011 160.337 14.9009H160.982V18.8341H160.269C160.031 17.2674 159.149 15.9677 157.351 15.9677C156.401 15.9677 155.518 16.5009 155.518 17.3345C155.518 18.2009 156.23 18.6674 157.86 19.4008L159.726 20.3006C161.355 21.0671 162 22.3009 162 23.3006C162 25.4 160.133 26.8662 157.86 26.8662Z" fill="white"/>
</svg>
