<svg width="163" height="68" viewBox="0 0 163 68" fill="none" xmlns="http://www.w3.org/2000/svg">
<g clip-path="url(#clip0)">
<path d="M72.9738 51.6666H64.6213V52.5527C67.2339 52.5527 67.6539 53.1126 67.6539 56.4258V62.3987C67.6539 65.7115 67.2343 66.3182 64.6213 66.3182C62.6154 66.0384 61.2618 64.9649 59.3954 62.9119L57.2492 60.579C60.1419 60.0651 61.6814 58.2458 61.6814 56.1924C61.6814 53.6266 59.4889 51.6666 55.3824 51.6666H47.1702V52.5527C49.7828 52.5527 50.2028 53.1126 50.2028 56.4258V62.3987C50.2028 65.7115 49.7828 66.3182 47.1702 66.3182V67.2046H56.4555V66.3182C53.8429 66.3182 53.4228 65.7115 53.4228 62.3987V60.7193H54.2158L59.3954 67.2046H72.9738C79.6461 67.2046 82.5393 63.6588 82.5393 59.412C82.5393 55.1661 79.6465 51.6666 72.9738 51.6666ZM53.4232 59.2718V53.0666H55.336C57.4354 53.0666 58.369 54.513 58.369 56.1928C58.369 57.8262 57.4354 59.2722 55.336 59.2722H53.4232V59.2718ZM73.1141 65.7582H72.7872C71.1078 65.7582 70.8744 65.3386 70.8744 63.192V53.0666C70.8744 53.0666 72.9274 53.0666 73.1141 53.0666C77.9668 53.0666 78.8528 56.6124 78.8528 59.3657C78.8528 62.2117 77.9664 65.7582 73.1141 65.7582Z" fill="#32373C"/>
<path d="M21.184 61.0011L24.4036 51.4816C25.3372 48.7287 24.9172 47.9358 21.9309 47.9358V47.0022H30.7031V47.9358C27.7636 47.9358 27.0638 48.6356 25.8972 52.0419L20.5773 67.9999H19.971L15.2111 53.3948L10.3588 67.9999H9.75211L4.57291 52.0419C3.45306 48.6356 2.7065 47.9358 0 47.9358V47.0022H10.3588V47.9358C7.60554 47.9358 6.85858 48.5888 7.83893 51.4816L10.9651 61.0011L15.6779 47.0022H16.5647L21.184 61.0011Z" fill="#32373C"/>
<path d="M37.0462 67.8091C31.9137 67.8091 27.7141 64.0299 27.7141 59.4099C27.7141 54.8374 31.9141 51.0574 37.0462 51.0574C42.179 51.0574 46.3782 54.8374 46.3782 59.4099C46.3782 64.0299 42.179 67.8091 37.0462 67.8091ZM37.0462 52.5049C32.7538 52.5049 31.2603 56.3772 31.2603 59.4103C31.2603 62.4904 32.7538 66.3164 37.0462 66.3164C41.3861 66.3164 42.8792 62.4904 42.8792 59.4103C42.8792 56.3772 41.3861 52.5049 37.0462 52.5049Z" fill="#32373C"/>
<path d="M94.0645 66.2716V67.2048H83.3792V66.2716C86.5057 66.2716 87.0656 65.4787 87.0656 60.8118V53.3466C87.0656 48.6798 86.5057 47.9336 83.3792 47.9336V47H93.0377C97.8437 47 100.504 49.4731 100.504 52.7867C100.504 56.0063 97.8437 58.5258 93.0377 58.5258H90.378V60.8115C90.378 65.4787 90.9379 66.2716 94.0645 66.2716ZM93.0377 48.6798H90.378V56.7993H93.0377C95.6511 56.7993 96.8641 54.9796 96.8641 52.7867C96.8641 50.547 95.6511 48.6798 93.0377 48.6798Z" fill="#32373C"/>
<path d="M132.56 62.8187L132.327 63.6584C131.907 65.1983 131.393 65.7582 128.08 65.7582H127.427C125.001 65.7582 124.581 65.1983 124.581 61.8855V59.7394C128.22 59.7394 128.501 60.0655 128.501 62.4922H129.387V55.5393H128.501C128.501 57.9657 128.22 58.2922 124.581 58.2922V53.0666H127.147C130.46 53.0666 130.973 53.6266 131.393 55.1664L131.627 56.0525H132.373L132.047 51.6666H118.328V52.5527C120.941 52.5527 121.361 53.1126 121.361 56.4258V62.3987C121.361 65.4294 121.004 66.1928 118.944 66.3017C116.986 66.0026 115.642 64.9347 113.803 62.9119L111.656 60.579C114.549 60.0651 116.089 58.2458 116.089 56.1924C116.089 53.6266 113.896 51.6666 109.79 51.6666H101.578V52.5527C104.19 52.5527 104.611 53.1126 104.611 56.4258V62.3987C104.611 65.7115 104.191 66.3182 101.578 66.3182V67.2046H110.864V66.3182C108.251 66.3182 107.831 65.7115 107.831 62.3987V60.7193H108.624L113.803 67.2046H132.98L133.261 62.8191H132.56V62.8187ZM107.83 59.2718V53.0666H109.743C111.843 53.0666 112.776 54.513 112.776 56.1928C112.776 57.8262 111.843 59.2722 109.743 59.2722H107.83V59.2718Z" fill="#32373C"/>
<path d="M142.032 67.8129C140.165 67.8129 138.532 66.8333 137.832 66.2262C137.599 66.46 137.179 67.1598 137.086 67.8129H136.199V61.3743H137.132C137.506 64.4537 139.652 66.2734 142.405 66.2734C143.898 66.2734 145.112 65.4337 145.112 64.0341C145.112 62.8211 144.039 61.8875 142.125 61.0011L139.466 59.7413C137.599 58.8541 136.199 57.3142 136.199 55.2615C136.199 53.0218 138.299 51.1091 141.192 51.1091C142.732 51.1091 144.038 51.669 144.832 52.322C145.065 52.1354 145.298 51.6218 145.439 51.0615H146.325V56.568H145.345C145.018 54.3747 143.805 52.555 141.332 52.555C140.026 52.555 138.812 53.3016 138.812 54.4686C138.812 55.6816 139.792 56.3346 142.032 57.3614L144.598 58.6211C146.838 59.6942 147.724 61.4215 147.724 62.8211C147.724 65.7602 145.158 67.8129 142.032 67.8129Z" fill="#32373C"/>
<path d="M156.403 67.8129C154.537 67.8129 152.903 66.8333 152.204 66.2262C151.97 66.46 151.551 67.1598 151.458 67.8129H150.571V61.3743H151.504C151.877 64.4537 154.023 66.2734 156.777 66.2734C158.27 66.2734 159.483 65.4337 159.483 64.0341C159.483 62.8211 158.41 61.8875 156.496 61.0011L153.837 59.7413C151.97 58.8541 150.57 57.3142 150.57 55.2615C150.57 53.0218 152.67 51.1091 155.563 51.1091C157.103 51.1091 158.409 51.669 159.203 52.322C159.436 52.1354 159.669 51.6218 159.809 51.0615H160.696V56.568H159.716C159.389 54.3747 158.176 52.555 155.704 52.555C154.397 52.555 153.183 53.3016 153.183 54.4686C153.183 55.6816 154.163 56.3346 156.403 57.3614L158.969 58.6211C161.209 59.6942 162.095 61.4215 162.095 62.8211C162.095 65.7602 159.529 67.8129 156.403 67.8129Z" fill="#32373C"/>
<path d="M63.293 20.9996C63.293 28.1304 67.437 34.2928 73.4461 37.213L64.8527 13.668C63.8531 15.9085 63.293 18.3879 63.293 20.9996Z" fill="#32373C"/>
<path d="M93.4695 20.0897C93.4695 17.8633 92.6698 16.3214 91.9838 15.1213C91.0706 13.6373 90.2147 12.3807 90.2147 10.8967C90.2147 9.24069 91.4707 7.69915 93.2398 7.69915C93.3197 7.69915 93.3955 7.70909 93.4733 7.71354C90.2682 4.77718 85.998 2.98438 81.3079 2.98438C75.0142 2.98438 69.4771 6.21348 66.2559 11.1045C66.6785 11.1171 67.0768 11.126 67.4152 11.126C69.2995 11.126 72.2163 10.8974 72.2163 10.8974C73.1875 10.8402 73.302 12.2665 72.3319 12.3814C72.3319 12.3814 71.3559 12.4962 70.27 12.5531L76.8303 32.0666L80.7728 20.2426L77.966 12.5524C76.9959 12.4955 76.0769 12.3807 76.0769 12.3807C75.1061 12.3238 75.2199 10.8395 76.1907 10.8967C76.1907 10.8967 79.1658 11.1254 80.936 11.1254C82.8199 11.1254 85.7371 10.8967 85.7371 10.8967C86.7089 10.8395 86.8231 12.2658 85.8526 12.3807C85.8526 12.3807 84.8746 12.4955 83.7907 12.5524L90.3011 31.9181L92.098 25.9134C92.8768 23.4217 93.4695 21.632 93.4695 20.0897Z" fill="#32373C"/>
<path d="M81.6239 22.5742L76.2188 38.2806C77.8326 38.7551 79.5394 39.0146 81.3079 39.0146C83.4057 39.0146 85.4176 38.6519 87.2903 37.9934C87.2419 37.9163 87.1981 37.8343 87.1621 37.7452L81.6239 22.5742Z" fill="#32373C"/>
<path d="M97.1165 12.3555C97.194 12.9293 97.2379 13.5453 97.2379 14.2079C97.2379 16.036 96.8965 18.0911 95.8681 20.6607L90.3652 36.5707C95.721 33.4475 99.3234 27.6451 99.3234 20.999C99.3238 17.8669 98.5237 14.9216 97.1165 12.3555Z" fill="#32373C"/>
<path d="M81.3088 0C69.7296 0 60.3086 9.42029 60.3086 20.9995C60.3086 32.5801 69.7296 42 81.3088 42C92.8876 42 102.31 32.5801 102.31 20.9995C102.31 9.42029 92.8876 0 81.3088 0ZM81.3088 41.0374C70.2606 41.0374 61.2715 32.0484 61.2715 20.9995C61.2715 9.95127 70.2602 0.962905 81.3088 0.962905C92.3566 0.962905 101.345 9.95127 101.345 20.9995C101.345 32.0484 92.3566 41.0374 81.3088 41.0374Z" fill="#32373C"/>
</g>
<defs>
<clipPath id="clip0">
<rect width="162.095" height="67.9999" fill="white"/>
</clipPath>
</defs>
</svg>
