<?xml version="1.0" encoding="utf-8"?>
<!-- Generator: Adobe Illustrator 22.1.0, SVG Export Plug-In . SVG Version: 6.00 Build 0)  -->
<svg version="1.1" id="Слой_1" xmlns="http://www.w3.org/2000/svg" xmlns:xlink="http://www.w3.org/1999/xlink" x="0px" y="0px"
	 viewBox="0 0 472.8 472.8" style="enable-background:new 0 0 472.8 472.8;" xml:space="preserve">
<style type="text/css">
	.st0{fill:#FFA6B7;}
</style>
<g>
	<path class="st0" d="M358.8,0H114.1C97.6,0,84.1,13.4,84.1,29.9v412.9c0,16.5,13.4,29.9,29.9,29.9h244.7
		c16.5,0,29.9-13.4,29.9-29.9V29.9C388.7,13.4,375.3,0,358.8,0z M99.1,75.2h274.6v312.7H99.1V75.2z M114.1,15h244.7
		c8.2,0,14.9,6.7,14.9,14.9v35.3H99.1V29.9C99.1,21.7,105.8,15,114.1,15z M358.8,457.8H114.1c-8.2,0-14.9-6.7-14.9-14.9v-45h274.6
		v45C373.7,451.1,367,457.8,358.8,457.8z"/>
	<path class="st0" d="M236.4,404.6c-13.5,0-24.6,11-24.6,24.6s11,24.6,24.6,24.6s24.6-11,24.6-24.6S250,404.6,236.4,404.6z
		 M236.4,443.7c-8,0-14.6-6.5-14.6-14.6c0-8,6.5-14.6,14.6-14.6s14.6,6.5,14.6,14.6C251,437.1,244.4,443.7,236.4,443.7z"/>
	<path class="st0" d="M202.4,47.6h68c2.8,0,5-2.2,5-5s-2.2-5-5-5h-68c-2.8,0-5,2.2-5,5S199.6,47.6,202.4,47.6z"/>
	<path class="st0" d="M184.4,47.6c1.3,0,2.6-0.5,3.5-1.5c0.9-0.9,1.5-2.2,1.5-3.5s-0.5-2.6-1.5-3.5c-0.9-0.9-2.2-1.5-3.5-1.5
		c-1.3,0-2.6,0.5-3.5,1.5c-0.9,0.9-1.5,2.2-1.5,3.5s0.5,2.6,1.5,3.5C181.8,47.1,183.1,47.6,184.4,47.6z"/>
</g>
</svg>
