<svg width="840" height="168" viewBox="0 0 840 168" fill="none" xmlns="http://www.w3.org/2000/svg">
<g clip-path="url(#clip0_15_5182)">
<path d="M839.12 65.3799C839.64 61.1616 838.463 56.9096 835.848 53.5593C833.232 50.209 829.393 48.0347 825.175 47.5149C820.957 46.9951 816.705 48.1722 813.354 50.7874C810.004 53.4026 807.83 57.2416 807.31 61.4599L803.18 95.7099C799.286 89.6479 794.043 84.5688 787.86 80.8699C781.031 77.1016 773.355 75.1319 765.555 75.1459C757.755 75.1599 750.086 77.1571 743.27 80.9499C736.8 84.8289 731.539 90.4356 728.08 97.1399C724.407 104.06 722.573 112.153 722.58 121.42C722.421 129.75 724.309 137.991 728.08 145.42C731.511 152.144 736.778 157.758 743.27 161.61C750.124 165.522 757.911 167.499 765.8 167.33C773.536 167.461 781.162 165.484 787.86 161.61C794.153 157.842 799.454 152.623 803.32 146.39L803.88 150.87C804.368 154.741 806.253 158.3 809.181 160.878C812.109 163.457 815.879 164.876 819.78 164.87C822.044 164.878 824.284 164.406 826.352 163.485C828.42 162.563 830.269 161.213 831.777 159.524C833.284 157.835 834.416 155.845 835.098 153.686C835.779 151.527 835.995 149.248 835.73 147L832.61 120.92C832.455 119.621 832.455 118.309 832.61 117.01L839.12 65.3799ZM797.21 132.75L797.1 132.87C794.361 136.139 790.986 138.817 787.18 140.74C783.434 142.615 779.299 143.581 775.11 143.56C771.307 143.631 767.557 142.655 764.27 140.74C761.116 138.858 758.549 136.132 756.86 132.87C755.038 129.332 754.121 125.399 754.19 121.42C754.108 117.389 755.026 113.4 756.86 109.81C758.582 106.478 761.207 103.698 764.434 101.786C767.661 99.8748 771.361 98.9092 775.11 98.9999C779.308 98.9822 783.448 99.977 787.18 101.9C790.978 103.866 794.35 106.564 797.1 109.84L797.19 109.94C799.853 113.143 801.312 117.176 801.316 121.341C801.32 125.507 799.867 129.542 797.21 132.75Z" fill="#FF4785"/>
<path d="M700.26 141.32H655.69C653.828 141.326 651.987 140.925 650.296 140.148C648.604 139.37 647.102 138.233 645.894 136.816C644.687 135.399 643.802 133.735 643.302 131.942C642.802 130.148 642.699 128.267 643 126.43C644.798 115.359 644.798 104.071 643 92.9999C642.698 91.1617 642.8 89.2797 643.299 87.485C643.798 85.6902 644.682 84.0258 645.89 82.6075C647.098 81.1893 648.6 80.0513 650.293 79.2729C651.985 78.4944 653.827 78.0941 655.69 78.0999H699.5C701.185 78.0999 702.853 77.7681 704.41 77.1233C705.966 76.4785 707.381 75.5335 708.572 74.3421C709.763 73.1507 710.709 71.7364 711.353 70.1798C711.998 68.6232 712.33 66.9548 712.33 65.2699C712.33 63.5851 711.998 61.9167 711.353 60.3601C710.709 58.8035 709.763 57.3891 708.572 56.1978C707.381 55.0064 705.966 54.0613 704.41 53.4166C702.853 52.7718 701.185 52.4399 699.5 52.4399H621.58C619.732 52.4405 617.906 52.8402 616.227 53.6116C614.549 54.383 613.056 55.5079 611.852 56.9094C610.648 58.311 609.761 59.956 609.251 61.7321C608.742 63.5081 608.622 65.3733 608.9 67.1999L613 94.0699C614.58 104.437 614.58 114.983 613 125.35L608.92 152.22C608.637 154.047 608.753 155.913 609.259 157.691C609.766 159.469 610.65 161.116 611.853 162.52C613.055 163.924 614.547 165.051 616.226 165.824C617.905 166.598 619.731 166.999 621.58 167H700.26C701.974 167.048 703.681 166.751 705.279 166.129C706.876 165.506 708.333 164.569 709.563 163.373C710.792 162.177 711.77 160.747 712.437 159.167C713.104 157.588 713.448 155.89 713.448 154.175C713.448 152.46 713.104 150.762 712.437 149.182C711.77 147.603 710.792 146.173 709.563 144.977C708.333 143.781 706.876 142.844 705.279 142.221C703.681 141.598 701.974 141.302 700.26 141.35V141.32Z" fill="#FF4785"/>
<path d="M661.4 100.53C658.88 100.53 656.464 101.531 654.682 103.312C652.901 105.094 651.9 107.51 651.9 110.03C651.9 112.549 652.901 114.966 654.682 116.747C656.464 118.529 658.88 119.53 661.4 119.53H680.4C682.919 119.53 685.336 118.529 687.117 116.747C688.899 114.966 689.9 112.549 689.9 110.03C689.9 107.51 688.899 105.094 687.117 103.312C685.336 101.531 682.919 100.53 680.4 100.53H661.4Z" fill="#FF4785"/>
<path d="M164.15 130.28H210.25C212.643 130.288 215.005 129.747 217.155 128.696C219.305 127.646 221.184 126.115 222.647 124.222C224.111 122.33 225.119 120.126 225.595 117.781C226.071 115.436 226.001 113.013 225.39 110.7C224.493 107.399 223.291 104.189 221.8 101.11C218.081 93.1959 212.139 86.5352 204.7 81.9397C197.313 77.4064 188.38 75.143 177.9 75.1497C168.536 75.0069 159.262 77.008 150.79 80.9997C143.159 84.5605 136.64 90.1291 131.93 97.1097C127.285 104.202 124.89 112.533 125.06 121.01C124.882 129.676 127.39 138.185 132.24 145.37C137.18 152.473 143.963 158.095 151.86 161.63C160.153 165.496 169.597 167.43 180.19 167.43C188.575 167.478 196.925 166.357 205 164.1C210.471 162.57 215.746 160.413 220.72 157.67C222.185 156.851 223.405 155.655 224.253 154.206C225.1 152.757 225.545 151.108 225.54 149.43C225.54 147.93 225.181 146.451 224.495 145.118C223.809 143.784 222.814 142.633 221.594 141.761C220.373 140.889 218.962 140.32 217.478 140.103C215.994 139.885 214.479 140.025 213.06 140.51C211.48 141.043 209.863 141.526 208.21 141.96C201.943 143.629 195.486 144.476 189 144.48C181.98 144.48 176.05 143.46 171.21 141.42C167.718 139.959 164.59 137.747 162.05 134.94C161.687 134.537 161.448 134.038 161.364 133.502C161.28 132.966 161.354 132.418 161.577 131.923C161.8 131.429 162.162 131.01 162.619 130.718C163.076 130.426 163.608 130.274 164.15 130.28ZM159.24 107.48C161.035 104.303 163.677 101.686 166.87 99.9197C170.485 97.9973 174.538 97.0495 178.63 97.1697C182.365 97.0663 186.065 97.9055 189.39 99.6097C192.42 101.26 194.933 103.718 196.65 106.71C196.8 106.96 196.94 107.21 197.07 107.47C197.287 107.883 197.395 108.345 197.383 108.812C197.37 109.279 197.239 109.735 197 110.136C196.761 110.537 196.423 110.871 196.019 111.104C195.615 111.338 195.157 111.463 194.69 111.47H161.65C161.181 111.471 160.72 111.35 160.311 111.12C159.902 110.89 159.56 110.558 159.317 110.156C159.075 109.754 158.94 109.297 158.927 108.828C158.913 108.359 159.021 107.895 159.24 107.48Z" fill="white"/>
<path d="M347 123.27C346.841 121.941 346.841 120.598 347 119.27L350 95.8196C350.32 93.7011 350.212 91.5399 349.684 89.4636C349.155 87.3872 348.217 85.4375 346.923 83.7294C345.63 82.0213 344.008 80.5892 342.152 79.5176C340.297 78.446 338.246 77.7564 336.12 77.4895C333.994 77.2226 331.837 77.3837 329.774 77.9635C327.711 78.5433 325.786 79.5299 324.11 80.8652C322.435 82.2006 321.043 83.8577 320.018 85.7391C318.993 87.6204 318.354 89.6878 318.14 91.8196L317.71 95.2297C313.851 89.3836 308.724 84.4823 302.71 80.8896C295.881 77.1213 288.205 75.1516 280.405 75.1656C272.605 75.1796 264.936 77.1769 258.12 80.9696C251.678 84.8533 246.443 90.4519 243 97.1396C239.333 104.06 237.5 112.153 237.5 121.42C237.34 129.749 239.229 137.991 243 145.42C246.431 152.144 251.698 157.758 258.19 161.61C265.043 165.521 272.831 167.498 280.72 167.33C288.456 167.461 296.082 165.483 302.78 161.61C308.803 158.009 313.918 153.072 317.73 147.18L318.19 150.85C318.689 154.721 320.581 158.279 323.513 160.856C326.446 163.432 330.216 164.852 334.12 164.85C336.388 164.85 338.629 164.368 340.697 163.436C342.764 162.504 344.61 161.144 346.111 159.445C347.613 157.745 348.736 155.746 349.406 153.58C350.077 151.414 350.279 149.13 350 146.88L347 123.27ZM312 132.75L311.89 132.87C309.151 136.139 305.776 138.816 301.97 140.74C298.254 142.599 294.155 143.565 290 143.56C286.197 143.631 282.447 142.655 279.16 140.74C276.006 138.857 273.439 136.132 271.75 132.87C269.928 129.332 269.011 125.398 269.08 121.42C268.998 117.389 269.916 113.4 271.75 109.81C273.472 106.478 276.097 103.697 279.324 101.786C282.551 99.8745 286.25 98.909 290 98.9996C294.198 98.9819 298.338 99.9767 302.07 101.9C305.868 103.866 309.24 106.564 311.99 109.84L312.08 109.94C314.742 113.144 316.199 117.179 316.199 121.345C316.199 125.51 314.742 129.545 312.08 132.75H312Z" fill="white"/>
<path d="M404.74 101C408.463 99.1473 412.583 98.2308 416.74 98.3299C422.64 98.3299 427.64 99.7299 431.74 102.53C433.982 104.057 435.855 106.066 437.22 108.41C438.329 110.284 439.91 111.834 441.805 112.906C443.7 113.978 445.843 114.535 448.02 114.52H452.25C462.84 114.52 468.85 102.17 462.12 93.9999L461.97 93.8199C456.829 87.7838 450.313 83.0715 442.97 80.0799C434.668 76.6583 425.759 74.9573 416.78 75.0799C406.113 75.0799 396.697 77.0399 388.53 80.9599C380.796 84.526 374.191 90.1513 369.44 97.2199C364.787 104.394 362.393 112.8 362.57 121.35C362.402 129.858 364.795 138.22 369.44 145.35C374.178 152.413 380.788 158.019 388.53 161.54C396.67 165.407 406.087 167.34 416.78 167.34C425.748 167.471 434.652 165.812 442.97 162.46C450.335 159.504 456.86 154.782 461.97 148.71L462.12 148.54C468.79 140.37 462.79 128.1 452.24 128.1H447.95C445.786 128.098 443.659 128.654 441.772 129.713C439.886 130.773 438.304 132.301 437.18 134.15C435.795 136.397 433.968 138.34 431.81 139.86C427.406 142.888 422.153 144.437 416.81 144.28C412.653 144.379 408.534 143.463 404.81 141.61C401.439 139.873 398.671 137.158 396.87 133.82C394.878 129.997 393.891 125.73 394 121.42C393.857 117.049 394.827 112.713 396.82 108.82C398.614 105.476 401.374 102.751 404.74 101Z" fill="white"/>
<path d="M581 94.39C577.988 88.4332 573.29 83.4946 567.49 80.19C561.63 76.8567 554.477 75.19 546.03 75.19C539.349 75.1208 532.763 76.7776 526.91 80C521.867 82.8595 517.515 86.7922 514.16 91.52V63C514.213 60.9109 513.847 58.8323 513.084 56.8868C512.321 54.9412 511.176 53.1681 509.718 51.6718C508.259 50.1756 506.515 48.9864 504.589 48.1745C502.664 47.3626 500.595 46.9443 498.505 46.9443C496.415 46.9443 494.347 47.3626 492.421 48.1745C490.495 48.9864 488.752 50.1756 487.293 51.6718C485.834 53.1681 484.689 54.9412 483.926 56.8868C483.163 58.8323 482.797 60.9109 482.85 63V149.28C482.953 153.363 484.648 157.245 487.573 160.097C490.497 162.948 494.42 164.544 498.505 164.544C502.59 164.544 506.513 162.948 509.438 160.097C512.362 157.245 514.057 153.363 514.16 149.28V123C514.045 118.858 514.908 114.746 516.68 111C518.279 107.724 520.835 105.011 524.01 103.22C527.44 101.325 531.313 100.376 535.23 100.47C541.444 100.47 546.204 102.2 549.51 105.66C552.817 109.12 554.484 114.12 554.51 120.66V149.3C554.613 153.383 556.308 157.265 559.233 160.117C562.157 162.968 566.08 164.564 570.165 164.564C574.25 164.564 578.173 162.968 581.098 160.117C584.022 157.265 585.717 153.383 585.82 149.3V116.07C585.794 107.73 584.187 100.503 581 94.39Z" fill="white"/>
<path d="M95.8501 85.5498C94.8814 85.8169 93.9763 86.276 93.1885 86.8997C92.4007 87.5235 91.7463 88.2992 91.2641 89.1807C90.7819 90.0623 90.4818 91.0318 90.3815 92.0316C90.2813 93.0314 90.3829 94.0412 90.6805 95.001C90.9781 95.9607 91.4655 96.8509 92.1138 97.6186C92.7621 98.3863 93.558 99.016 94.4544 99.4701C95.3507 99.9243 96.3292 100.194 97.3317 100.262C98.3342 100.331 99.3402 100.197 100.29 99.8698C101.885 99.2709 103.59 99.0186 105.29 99.1298C105.7 102.23 101.76 113.28 88.5701 125.9C87.8701 126.57 87.1801 127.21 86.5001 127.83C85.869 135.242 84.3996 142.559 82.1201 149.64C88.203 145.999 93.8468 141.671 98.9401 136.74C107 129 113.38 120.42 117 112.49C123.17 98.9098 119.15 91.7098 116.2 88.6298C113.6 85.9298 107.51 81.9298 95.8501 85.5498Z" fill="white"/>
<path d="M60.5 62.5C93.9132 62.5 121 53.7696 121 43C121 32.2304 93.9132 23.5 60.5 23.5C27.0868 23.5 0 32.2304 0 43C0 53.7696 27.0868 62.5 60.5 62.5Z" fill="white"/>
<path d="M111.45 24.7798C114.19 11.9598 110.91 1.77979 102.6 0.199789C94.53 -1.29021 84.1 5.84979 76.46 17.1998C86.2966 17.9095 96.0233 19.714 105.46 22.5798C107.64 23.2598 109.63 23.9998 111.45 24.7798Z" fill="white"/>
<path d="M15.5701 22.5499C24.6848 19.7779 34.0729 18.0009 43.5701 17.2499C36.0001 5.87985 25.4901 -1.30015 17.4001 0.199852C9.0101 1.74985 5.7401 12.1999 8.6401 25.1999C10.9024 24.1966 13.2156 23.312 15.5701 22.5499Z" fill="white"/>
<path d="M65.92 69.4199C64.12 69.4199 62.32 69.4999 60.5 69.4999C58.68 69.4999 56.88 69.4999 55.08 69.4199C47 75.2899 41 93.9999 41 116.22C41 143.13 49.73 164.94 60.5 164.94C71.27 164.94 80 143.13 80 116.22C80 93.9999 74.05 75.2899 65.92 69.4199Z" fill="white"/>
</g>
<defs>
<clipPath id="clip0_15_5182">
<rect width="839.25" height="167.38" fill="white"/>
</clipPath>
</defs>
</svg>
