<svg width="68" height="68" viewBox="0 0 68 68" fill="none" xmlns="http://www.w3.org/2000/svg">
<path fill-rule="evenodd" clip-rule="evenodd" d="M34.0026 14.6018C39.1688 14.6018 43.3548 18.8128 43.3548 24.0066C43.3548 29.2005 39.1688 33.4115 34.0026 33.4115C28.8378 33.4115 24.6504 29.2005 24.6504 24.0066C24.6504 18.8128 28.8378 14.6018 34.0026 14.6018Z" fill="#B2D550"/>
<path fill-rule="evenodd" clip-rule="evenodd" d="M33.9981 35.0725C41.1704 35.0725 47.3126 40.2325 49.8674 47.5535C45.7595 51.5448 40.166 54.0001 33.9981 54.0001C27.8303 54.0001 22.2368 51.5448 18.1289 47.5535C20.6837 40.2325 26.8259 35.0725 33.9981 35.0725Z" fill="#B2D550"/>
<path fill-rule="evenodd" clip-rule="evenodd" d="M54.9867 14C59.2226 14 62.6551 17.4531 62.6551 21.7115C62.6551 25.9699 59.2226 29.423 54.9867 29.423C50.7521 29.423 47.3184 25.9699 47.3184 21.7115C47.3184 17.4531 50.7521 14 54.9867 14Z" fill="#B2D550"/>
<path fill-rule="evenodd" clip-rule="evenodd" d="M54.9875 30.7856C60.8695 30.7856 65.9049 35.0156 68 41.0188C64.6322 44.2916 60.0458 46.3049 54.9875 46.3049C54.1058 46.3049 53.2389 46.2439 52.3896 46.1246C50.8567 42.0112 48.2305 38.3805 44.8398 35.8589C47.3973 32.7325 50.9983 30.7856 54.9875 30.7856Z" fill="#B2D550"/>
<path fill-rule="evenodd" clip-rule="evenodd" d="M13.0141 14C17.25 14 20.6824 17.4531 20.6824 21.7115C20.6824 25.9699 17.25 29.423 13.0141 29.423C8.77948 29.423 5.3457 25.9699 5.3457 21.7115C5.3457 17.4531 8.77948 14 13.0141 14Z" fill="#B2D550"/>
<path fill-rule="evenodd" clip-rule="evenodd" d="M13.0125 30.7856C17.0017 30.7856 20.6013 32.7339 23.1601 35.8602C19.7695 38.3819 17.1446 42.0126 15.6117 46.1246C14.7624 46.2439 13.8942 46.3049 13.0125 46.3049C7.95552 46.3049 3.36906 44.2916 0 41.0188C2.09505 35.0156 7.13179 30.7856 13.0125 30.7856Z" fill="#B2D550"/>
</svg>
