<svg width="68" height="68" viewBox="0 0 68 68" fill="none" xmlns="http://www.w3.org/2000/svg">
<path d="M45.4308 20.4933C45.4308 14.4315 40.5171 9.5 34.4771 9.5C28.4371 9.5 23.5234 14.4315 23.5234 20.4933C23.5234 26.5574 28.4371 31.4888 34.4771 31.4888C40.5149 31.4866 45.4308 26.5551 45.4308 20.4933ZM33.6269 27.8606V26.2781C32.6419 26.2205 31.6283 25.9057 30.9945 25.4536C30.9083 25.3938 30.8708 25.2807 30.9083 25.181L31.3368 23.9753C31.3611 23.9066 31.4163 23.8511 31.4869 23.829C31.5598 23.8068 31.6327 23.8157 31.6923 23.8578C32.3858 24.3232 33.2757 24.5914 34.1348 24.5914C35.2479 24.5914 36.023 23.9664 36.023 23.071C36.023 22.2487 35.4819 21.6946 34.1525 21.1582C32.5448 20.5243 31.0563 19.6821 31.0563 17.8314C31.0563 16.2822 32.1097 15.0875 33.755 14.7418V13.1238C33.755 12.993 33.861 12.8844 33.9935 12.8844H35.0999C35.2302 12.8844 35.3384 12.9908 35.3384 13.1238V14.6354C36.1754 14.693 36.8997 14.9058 37.5468 15.287C37.6484 15.3468 37.6903 15.4687 37.6484 15.5773L37.2001 16.7631C37.1758 16.8274 37.1228 16.8806 37.0587 16.9028C36.9925 16.9271 36.9196 16.9227 36.86 16.885C36.394 16.6146 35.7315 16.3065 34.7267 16.3065C33.5032 16.3065 33.0682 17.0114 33.0682 17.6142C33.0682 18.3656 33.5319 18.7734 35.1396 19.4405C37.1868 20.2783 38.0592 21.3267 38.0592 22.9469C38.0592 24.5515 36.9329 25.8348 35.2324 26.1961V27.8628C35.2324 27.9936 35.1264 28.1022 34.9939 28.1022H33.8654C33.7329 28.0977 33.6269 27.9914 33.6269 27.8606Z" fill="#B2D550"/>
<path d="M23.5054 27.176C21.1291 27.4087 19.4397 27.5306 18.3223 27.5883C18.3223 27.6082 18.3333 27.6237 18.3333 27.6437V40.3569C20.5307 40.3946 24.3711 40.5808 28.5869 41.2967V31.9457C26.4867 30.853 24.7311 29.1952 23.5054 27.176Z" fill="#B2D550"/>
<path d="M23.7129 49.5858H25.8374L25.7159 45.9553L23.7129 46.0351V49.5858Z" fill="#B2D550"/>
<path d="M21.8122 53.2228V50.6207C21.81 50.5919 21.7968 50.5697 21.7968 50.5409C21.7968 50.5121 21.81 50.4877 21.8122 50.4611V45.2061C21.81 45.1772 21.7968 45.1551 21.7968 45.1263C21.7968 45.0975 21.81 45.0731 21.8122 45.0465V42.4289C18.6697 42.2139 16.4988 42.2693 16.4657 42.2693V42.2627C16.4569 42.2627 16.4502 42.2671 16.4414 42.2671V55.1377C16.4414 56.9906 17.7157 58.5 19.2792 58.5H23.5414C23.908 58.5 24.2702 58.3138 24.5374 57.9902C24.8333 57.6312 24.9857 57.1369 24.957 56.6316C24.904 55.7228 24.2614 55.0114 23.495 55.0114C22.5675 55.007 21.8122 54.2068 21.8122 53.2228Z" fill="#B2D550"/>
<path d="M7.5 34.0024C7.5 37.5065 10.3422 40.3568 13.8337 40.3568H16.4087C16.4109 40.3568 16.4264 40.3568 16.433 40.3568V27.6436L13.8337 27.6458C10.3422 27.6458 7.5 30.4983 7.5 34.0024Z" fill="#B2D550"/>
<path d="M53.3663 16.5967C52.6066 16.5967 51.9883 17.2062 51.9883 17.9553V50.3235C51.9883 51.0727 52.6066 51.6822 53.3663 51.6822C54.1128 51.6822 54.7201 51.0727 54.7201 50.3235V17.9553C54.7201 17.2062 54.1128 16.5967 53.3663 16.5967Z" fill="#B2D550"/>
<path d="M57.2557 29.5162C57.0547 29.4541 56.8317 29.4564 56.6152 29.4209V38.5679C56.8427 38.5303 57.0657 38.5325 57.2888 38.466C59.1947 37.8122 60.4998 36.0147 60.4998 34.0066C60.4998 31.983 59.1969 30.1767 57.2557 29.5162Z" fill="#B2D550"/>
<path d="M34.4733 33.3929C33.0798 33.3929 31.7393 33.1624 30.4805 32.7479V41.6534C37.1808 42.8391 45.7052 44.9381 50.0845 48.2272V19.8352C49.3358 20.3827 48.3862 20.939 47.2776 21.4842C46.7697 28.1356 41.2288 33.3929 34.4733 33.3929Z" fill="#B2D550"/>
</svg>
