<svg width="68" height="68" viewBox="0 0 68 68" fill="none" xmlns="http://www.w3.org/2000/svg">
<path d="M46.5885 10.5321C46.5885 9.9622 46.1264 9.5 45.5558 9.5H37.9064C37.3358 9.5 36.873 9.9622 36.873 10.5321V27.2325C40.3526 27.3538 43.6342 27.6923 46.5885 28.2046V10.5321Z" fill="#B2D550"/>
<path d="M33.9755 16.4024C33.9755 15.833 33.5133 15.3708 32.9427 15.3708H25.2939C24.7233 15.3708 24.2617 15.833 24.2617 16.4024V27.7772C27.2745 27.3945 30.5495 27.1837 33.9755 27.1825V16.4024Z" fill="#B2D550"/>
<path d="M21.5131 21.2576C21.5131 20.6871 21.051 20.2249 20.4804 20.2249H12.8322C12.2616 20.2249 11.7988 20.6871 11.7988 21.2576V30.9985C14.2834 29.8209 17.6186 28.8506 21.5131 28.1829V21.2576Z" fill="#B2D550"/>
<path d="M61.9988 36.7797C61.9988 34.1596 59.496 31.8268 54.7608 30.0334C54.7343 30.0234 54.7066 30.0199 54.6801 30.0116C54.6465 30.0022 54.6152 29.9916 54.581 29.9851C54.5415 29.978 54.502 29.9757 54.4626 29.9733C54.4384 29.9716 54.4172 29.9663 54.3924 29.9663C54.3877 29.9663 54.383 29.968 54.3794 29.968C54.2928 29.9692 54.2073 29.9822 54.1248 30.0045C54.1165 30.0063 54.1089 30.0051 54.1012 30.0075L50.0958 31.1851C46.2714 29.8956 38.7988 29.0354 33.9994 29.0354C20.0197 29.0354 8.6791 32.3473 6.42323 37.0882C6.14206 37.6758 6 38.2876 6 38.9052C6 39.0825 6.01415 39.2579 6.03655 39.4328C6.01474 39.5164 6 39.6024 6 39.693V48.1109C6 48.1156 6.00059 48.1197 6.00059 48.1239C6.00943 50.6621 8.46277 52.9437 13.1001 54.7224C17.2599 56.318 22.9547 57.4161 29.1346 57.8141C29.157 57.8159 29.1782 57.8165 29.2 57.8165H29.2006C29.2006 57.8165 29.2006 57.8165 29.2012 57.8165H29.2018C29.2024 57.8165 29.2024 57.8165 29.2024 57.8165C29.2708 57.8165 29.3385 57.8088 29.4046 57.7959C29.4158 57.7941 29.4258 57.79 29.4358 57.787C29.4558 57.7823 29.4747 57.7747 29.4936 57.77C29.5278 57.7594 29.5619 57.7511 29.5944 57.7382C29.6156 57.7287 29.6356 57.717 29.6557 57.7064C29.6769 57.6964 29.6975 57.6863 29.717 57.6746C29.7335 57.6652 29.7512 57.6575 29.7659 57.6469C29.7924 57.6298 29.8154 57.6098 29.839 57.5904C29.8531 57.5792 29.8685 57.5698 29.8803 57.558C29.8891 57.5509 29.8979 57.5462 29.9062 57.5386C29.9103 57.5344 29.9144 57.5291 29.9186 57.5256C29.9398 57.5044 29.9587 57.4809 29.9793 57.4579C30.0017 57.432 30.0253 57.4061 30.0447 57.3778C30.0524 57.3672 30.0589 57.3572 30.0665 57.3466C30.0689 57.3431 30.0724 57.3407 30.0748 57.3372L31.7282 54.7336V57.4679C31.7282 58.0379 32.1904 58.5001 32.761 58.5001C32.8057 58.5001 32.8482 58.4924 32.8924 58.4865C32.9537 58.4953 33.0103 58.5001 33.048 58.5001C36.9774 58.5001 45.1526 58.5001 52.8722 55.9959C52.8922 55.9895 52.9087 55.9789 52.9276 55.9718C52.9677 55.9559 53.0072 55.94 53.0455 55.92C53.0602 55.9112 53.0761 55.9017 53.0909 55.8923C53.1375 55.8646 53.1805 55.8346 53.2229 55.7999C53.2276 55.7946 53.2335 55.7893 53.2388 55.7846C53.2854 55.7439 53.3278 55.6992 53.3662 55.6503C53.3668 55.6503 53.3668 55.6497 53.3668 55.6497C53.4899 55.4943 53.5648 55.3059 53.5819 55.1045C53.5819 55.1033 53.5819 55.1022 53.5819 55.101C53.5866 55.0462 53.5884 54.9915 53.5837 54.9361V53.6008L56.4414 53.9705C56.4868 53.9764 56.531 53.9793 56.5758 53.9793C56.7556 53.9793 56.9259 53.9299 57.0756 53.8469C57.1623 53.8163 57.2454 53.7786 57.3209 53.7273C61.1871 51.7125 62 49.5629 62 48.1127V37.0882C62 37.0441 61.9917 37.0017 61.987 36.9587C61.9876 36.8992 61.9988 36.8398 61.9988 36.7797ZM59.9328 36.7797C59.9328 37.2013 59.7972 37.6176 59.519 38.0521C58.979 38.8946 57.9097 39.7478 56.4296 40.5285L38.3378 36.7944L54.3441 32.0883C57.8985 33.4866 59.9328 35.1876 59.9328 36.7797ZM8.28888 37.9755C9.89752 34.5959 19.9537 31.0991 33.9994 31.0991C37.4254 31.0991 42.4346 31.5742 46.2219 32.325L33.7902 35.9801C33.542 36.0531 33.3463 36.2162 33.2148 36.4229C33.0616 36.6031 32.9661 36.8333 32.9661 37.0876V40.1829C32.9655 40.1835 32.9655 40.1835 32.9649 40.1841L28.9589 46.5547C15.8764 45.734 8.06665 42.037 8.06665 38.9052C8.06665 38.5973 8.14092 38.2846 8.28888 37.9755ZM48.0044 47.5168C44.0055 48.3664 39.3712 48.8445 34.5111 48.8987L36.5253 45.2471L48.0044 47.5168ZM30.2345 53.2304V48.4082L32.9667 44.0642V47.4214L31.8679 49.4127C31.8555 49.4333 31.8491 49.4545 31.839 49.4751C31.8249 49.5046 31.8096 49.534 31.7978 49.5646C31.7848 49.6005 31.7748 49.6353 31.7648 49.6718C31.7571 49.7 31.75 49.7283 31.7447 49.7577C31.7382 49.7966 31.7347 49.8349 31.7329 49.8737C31.7318 49.8938 31.727 49.9126 31.727 49.9332V50.8782L30.2345 53.2304ZM53.5825 47.3685C53.5831 47.2972 53.576 47.2271 53.5619 47.1594C53.5566 47.1341 53.5471 47.1106 53.5401 47.0858C53.5289 47.0464 53.5194 47.0063 53.5035 46.9687C53.4905 46.9345 53.4699 46.9039 53.4522 46.8715C53.4387 46.8462 53.4269 46.8185 53.4098 46.7938C53.3897 46.7626 53.3644 46.7355 53.3408 46.7072C53.3219 46.6849 53.3054 46.6601 53.2848 46.6395C53.2583 46.6124 53.227 46.5901 53.1988 46.5665C53.1764 46.5489 53.1569 46.5283 53.1327 46.5124C53.0909 46.4835 53.0455 46.4611 52.9995 46.4388C52.9854 46.4317 52.9718 46.4223 52.9571 46.4158C52.8934 46.3881 52.8244 46.3669 52.7537 46.3528L36.1863 43.0762C36.171 43.0733 36.1568 43.0744 36.1415 43.0721C36.105 43.0668 36.069 43.0632 36.0325 43.0615C35.9989 43.0597 35.967 43.0591 35.934 43.0609C35.9004 43.0621 35.8698 43.0662 35.8368 43.0709C35.802 43.0762 35.7678 43.0821 35.7336 43.0903C35.7041 43.098 35.6741 43.108 35.6458 43.118C35.6122 43.1298 35.5809 43.1416 35.5485 43.1563C35.5196 43.1698 35.4919 43.1851 35.4642 43.2016C35.4353 43.2187 35.4059 43.2369 35.3787 43.2564C35.3528 43.2752 35.3286 43.2958 35.3045 43.3176C35.2774 43.3411 35.252 43.3647 35.2284 43.3906C35.2078 43.413 35.1884 43.4365 35.1695 43.4619C35.1459 43.4913 35.1241 43.5231 35.1041 43.5561C35.0964 43.5684 35.0876 43.5784 35.0799 43.5914L35.0321 43.6779V38.2199L55.7016 42.4862V51.7926L53.5813 51.5188V47.3685H53.5825Z" fill="#B2D550"/>
</svg>
