<svg width="68" height="68" viewBox="0 0 68 68" fill="none" xmlns="http://www.w3.org/2000/svg">
<path d="M58.1244 54.3983V20.682C58.1244 19.2534 56.9589 18.0957 55.5252 18.0957H50.4956C49.0619 18.0957 47.9001 19.2534 47.9001 20.682V54.3983H45.4496V33.6209C45.4496 32.1887 44.2841 31.031 42.8504 31.031H37.8208C36.3871 31.031 35.2234 32.1887 35.2234 33.6209V54.3983H32.7747V40.0868C32.7747 38.6582 31.6093 37.5004 30.1756 37.5004H25.1459C23.7122 37.5004 22.5486 38.6582 22.5486 40.0868V54.3983H20.1017V46.5562C20.1017 45.1276 18.9381 43.9663 17.5044 43.9663H12.4748C11.0411 43.9663 9.87744 45.1276 9.87744 46.5562V54.3983H5V58.5H63V54.3983H58.1244Z" fill="#B2D550"/>
<path d="M14.9924 42.2287C18.7842 42.2287 21.8582 39.1673 21.8582 35.3854C21.8582 35.1632 21.8455 34.9447 21.8237 34.7298C26.277 31.6811 36.2168 24.6264 44.2389 17.0643L45.669 18.4676C46.2689 19.0564 46.9359 18.8776 47.1552 18.0685L47.766 15.8109C47.9835 15.0035 48.3406 13.6797 48.5599 12.8723L49.1725 10.6111C49.3919 9.80377 48.9097 9.33057 48.1032 9.55633L45.843 10.2011C45.0346 10.4305 43.7133 10.8043 42.9049 11.0373L40.6502 11.6767C39.8436 11.9025 39.6714 12.5725 40.2695 13.1577L41.464 14.3353C34.107 21.2454 24.9249 27.8557 20.303 31.0525C19.0434 29.521 17.1312 28.5439 14.9906 28.5439C11.1952 28.5439 8.12305 31.6052 8.12305 35.3836C8.12486 39.1655 11.197 42.2287 14.9924 42.2287ZM15.8479 36.7327C15.7065 36.6334 15.4582 36.5521 15.1012 36.4781C13.7001 36.1927 12.8065 35.8333 12.4314 35.3908C12.0544 34.9501 11.864 34.4462 11.864 33.8701C11.864 33.2379 12.0689 32.6816 12.4821 32.1868C12.8954 31.7027 13.5261 31.3903 14.3725 31.2657V30.1748H15.5978V31.2404C16.9717 31.3885 17.867 32.0405 18.2875 33.191L16.292 33.8141C16.0872 33.274 15.6703 33.0067 15.0432 33.0067C14.5175 33.0067 14.2511 33.1765 14.2511 33.5143C14.2511 33.6371 14.2964 33.7436 14.3852 33.8321C14.4759 33.917 14.7205 34.0055 15.1211 34.094C16.0473 34.2981 16.7052 34.4787 17.1094 34.6376C17.5064 34.7948 17.8417 35.0639 18.1099 35.445C18.3727 35.8188 18.5069 36.274 18.5069 36.7851C18.5069 37.5075 18.2477 38.1144 17.7329 38.6056C17.2145 39.0933 16.5059 39.3931 15.5978 39.4906V40.5906H14.3744V39.4906C12.8319 39.31 11.8659 38.4991 11.4725 37.0705L13.7019 36.6569C13.8922 37.3089 14.3762 37.634 15.1483 37.634C15.7555 37.634 16.0564 37.4678 16.0564 37.1373C16.0582 36.9693 15.9857 36.8266 15.8479 36.7327Z" fill="#B2D550"/>
</svg>
