<svg width="68" height="68" viewBox="0 0 68 68" fill="none" xmlns="http://www.w3.org/2000/svg">
<path d="M24.5032 47.2339C24.2778 47.0786 23.9771 46.9366 23.6016 46.8079V48.7368C24.4284 48.7046 24.8416 48.4208 24.8416 47.8849C24.8416 47.6064 24.7286 47.3894 24.5032 47.2339Z" fill="#B2D550"/>
<path d="M31.2459 25.5723C31.2459 25.2938 31.133 25.0768 30.9076 24.9211C30.6821 24.766 30.3817 24.6239 30.0059 24.4951V26.4241C30.8327 26.392 31.2459 26.1081 31.2459 25.5723Z" fill="#B2D550"/>
<path d="M21.7188 42.7734C21.7188 43.0414 21.8126 43.2532 22.0005 43.4083C22.1882 43.5637 22.4698 43.7006 22.8457 43.8183V41.8413C22.0944 41.9054 21.7188 42.2164 21.7188 42.7734Z" fill="#B2D550"/>
<path d="M29.2499 19.5288C28.4986 19.593 28.123 19.9038 28.123 20.4608C28.123 20.7289 28.217 20.9405 28.4048 21.0957C28.5924 21.2511 28.8741 21.388 29.2499 21.5057V19.5288Z" fill="#B2D550"/>
<path d="M49.9092 15.4229C51.0987 15.4229 52.0665 14.4566 52.0665 13.2691C52.0665 12.0816 51.0987 11.1152 49.9092 11.1152C48.7197 11.1152 47.752 12.0816 47.752 13.2691C47.752 14.4566 48.7197 15.4229 49.9092 15.4229Z" fill="#B2D550"/>
<path d="M11.8854 31.5771C12.6289 31.5771 13.2337 30.9732 13.2337 30.2309C13.2337 29.4886 12.6289 28.8848 11.8854 28.8848C11.1419 28.8848 10.5371 29.4886 10.5371 30.2309C10.5371 30.9732 11.1419 31.5771 11.8854 31.5771Z" fill="#B2D550"/>
<path d="M51.5269 49.8845C49.7426 49.8845 48.291 51.3338 48.291 53.1153C48.291 54.8967 49.7426 56.3461 51.5269 56.3461C53.3112 56.3461 54.7628 54.8967 54.7628 53.1153C54.7628 51.3338 53.3112 49.8845 51.5269 49.8845Z" fill="#B2D550"/>
<path d="M29.4996 36.1875C36.7203 36.1875 42.5949 30.3223 42.5949 23.1131C42.5949 15.9038 36.7203 10.0386 29.4996 10.0386C22.2789 10.0386 16.4043 15.9038 16.4043 23.1131C16.4043 30.3223 22.2789 36.1875 29.4996 36.1875ZM29.4996 12.7308C35.2334 12.7308 39.8983 17.3882 39.8983 23.1129C39.8983 23.4104 39.6569 23.6514 39.359 23.6514C39.061 23.6514 38.8196 23.4104 38.8196 23.1129C38.8196 17.982 34.6386 13.8077 29.4996 13.8077C29.2017 13.8077 28.9603 13.5667 28.9603 13.2692C28.9603 12.9718 29.2017 12.7308 29.4996 12.7308ZM27.1084 23.5069C25.8749 22.9084 25.402 22.0703 25.402 20.8788C25.402 20.3218 25.4985 19.8259 25.6917 19.3919C26.3118 18 27.573 17.3544 29.0724 17.1978V15.5745H30.1831V17.1978C30.8806 17.2622 31.5356 17.4178 32.1474 17.664C32.759 17.9106 33.2901 18.1622 33.7411 18.4195L32.5824 20.6056C32.5503 20.5629 32.4562 20.493 32.3004 20.3966C31.8972 20.1469 31.3484 19.9165 30.8998 19.7617C30.6045 19.6599 30.3068 19.5875 30.0062 19.5447V21.7306C30.1733 21.778 31.0174 21.9537 32.0028 22.3494C33.4494 22.9312 34.0796 23.9075 34.0796 25.3151C34.0796 25.926 33.972 26.4459 33.7576 26.8745C33.5427 27.3034 33.2557 27.6539 32.8961 27.9274C32.1323 28.5076 31.1344 28.7477 30.1835 28.7868V30.6515H29.0727V28.7711C27.6746 28.6494 26.1397 28.201 24.919 27.3889L26.0779 25.0901C26.1209 25.1439 26.2362 25.2324 26.4242 25.3553C26.9011 25.6685 27.5848 25.9454 28.1226 26.1273C28.4874 26.2503 28.8631 26.3389 29.2496 26.3925V24.2541C28.8793 24.1361 27.9695 23.9248 27.1084 23.5069ZM19.6402 22.5745C19.9381 22.5745 20.1795 22.8155 20.1795 23.1129C20.1795 28.2439 24.3605 32.4182 29.4996 32.4182C29.7975 32.4182 30.0389 32.6592 30.0389 32.9567C30.0389 33.254 29.7975 33.4951 29.4996 33.4951C23.7658 33.4951 19.1009 28.8377 19.1009 23.1129C19.1009 22.8156 19.3423 22.5745 19.6402 22.5745Z" fill="#B2D550"/>
<path d="M46.8432 33.6431C46.6339 33.499 46.3548 33.3672 46.0059 33.2476V35.0388C46.7736 35.009 47.1573 34.7453 47.1573 34.2477C47.1573 33.9891 47.0525 33.7876 46.8432 33.6431Z" fill="#B2D550"/>
<path d="M44.2559 29.5013C44.2559 29.7504 44.3431 29.9468 44.5175 30.091C44.6918 30.2353 44.9533 30.3624 45.3024 30.4717V28.6357C44.6047 28.6953 44.2559 28.984 44.2559 29.5013Z" fill="#B2D550"/>
<path d="M57.9989 31.9641C57.9989 24.0574 50.9791 17.9081 43.0675 19.018C45.4507 26.8743 40.6307 35.0231 32.7695 36.8838C34.7635 41.7857 39.563 45.0386 44.9035 45.0386C52.1244 45.0385 57.9989 39.1734 57.9989 31.9641ZM49.4874 35.4571C49.2879 35.8553 49.0214 36.1807 48.6875 36.4347C47.9768 36.9742 47.0499 37.1964 46.1685 37.2329V38.9644H45.137V37.2183C43.8378 37.105 42.4132 36.6887 41.28 35.9347L42.3561 33.8002C42.3958 33.8501 42.5029 33.9323 42.6777 34.0465C43.1195 34.3366 43.7514 34.5929 44.2547 34.7632C44.5935 34.8775 44.9424 34.9597 45.3012 35.0095V33.0237C44.9622 32.9155 44.1143 32.7187 43.313 32.3298C42.9543 32.1559 42.6577 31.9545 42.4235 31.7254C42.401 31.7034 42.3816 31.6794 42.3601 31.6567C43.433 30.1547 44.2082 28.4262 44.6007 26.557C44.7751 26.5209 44.9529 26.4906 45.137 26.4714V24.964H46.1683V26.4714C46.816 26.5312 47.4242 26.6756 47.9923 26.9044C48.5602 27.1333 49.0534 27.3671 49.4722 27.6059L48.3963 29.6359C48.3664 29.5962 48.279 29.5313 48.1343 29.4417C47.7606 29.2103 47.2509 28.9961 46.8335 28.8523C46.5595 28.7576 46.283 28.6905 46.004 28.6507V30.6805C46.1592 30.7245 46.9429 30.8878 47.8579 31.2552C49.2236 31.8045 49.7863 32.7254 49.7863 34.0091C49.7863 34.5762 49.6865 35.059 49.4874 35.4571Z" fill="#B2D550"/>
<path d="M31.6934 37.0947C27.2257 37.7905 22.5851 36.3391 19.2874 32.9158C13.8039 34.5772 10 39.6746 10 45.4254C10 52.6346 15.8746 58.4999 23.0953 58.4999C31.3151 58.4999 37.5152 50.9978 35.9498 42.9279C34.0854 41.412 32.5996 39.4204 31.6934 37.0947ZM23.0953 55.8076C17.3999 55.8076 12.7663 51.1814 12.7663 45.4951C12.7663 43.2537 13.4742 41.1224 14.8137 39.3316C14.9918 39.0932 15.33 39.0444 15.5685 39.2223C15.8072 39.4001 15.8561 39.7376 15.6779 39.9759C14.4788 41.5793 13.8449 43.4878 13.8449 45.4951C13.8449 50.5875 17.9946 54.7307 23.0953 54.7307C23.3932 54.7307 23.6346 54.9717 23.6346 55.2691C23.6346 55.5666 23.3932 55.8076 23.0953 55.8076ZM27.3532 49.1871C27.1383 49.6159 26.8514 49.9665 26.4918 50.2399C25.7262 50.8209 24.7283 51.0603 23.7791 51.0994V52.9641H22.6683V51.0837C21.274 50.9621 19.7391 50.5161 18.5146 49.7014L19.6736 47.4026C19.7163 47.4564 19.8319 47.5449 20.0198 47.6679C20.4961 47.9806 21.177 48.2566 21.7182 48.4397C22.0831 48.5628 22.4587 48.6514 22.8451 48.705V46.5665C22.2394 46.3688 20.6238 46.0272 19.7462 45.1682C19.196 44.6304 18.9977 43.9691 18.9977 43.1911C18.9977 42.6341 19.0941 42.1383 19.2876 41.7043C19.9012 40.3262 21.1538 39.6684 22.6684 39.5103V37.887H23.7791V39.5103C24.4765 39.5746 25.1314 39.7301 25.7433 39.9765C26.3549 40.223 26.8861 40.4747 27.3371 40.732L26.1785 42.918C26.1462 42.8754 26.052 42.8055 25.8963 42.7091C25.4942 42.4597 24.9413 42.2279 24.4957 42.0741C24.2006 41.9724 23.9028 41.9 23.6022 41.857V44.043C23.7731 44.0915 24.6113 44.2655 25.5987 44.6619C27.0776 45.2567 27.6755 46.2537 27.6755 47.6276C27.6752 48.2384 27.5676 48.7585 27.3532 49.1871Z" fill="#B2D550"/>
<path d="M56.1117 46.1154C56.5585 46.1154 56.9207 45.7538 56.9207 45.3077C56.9207 44.8616 56.5585 44.5 56.1117 44.5C55.6649 44.5 55.3027 44.8616 55.3027 45.3077C55.3027 45.7538 55.6649 46.1154 56.1117 46.1154Z" fill="#B2D550"/>
<path d="M55.5707 18.1154C56.0175 18.1154 56.3797 17.7538 56.3797 17.3077C56.3797 16.8616 56.0175 16.5 55.5707 16.5C55.1239 16.5 54.7617 16.8616 54.7617 17.3077C54.7617 17.7538 55.1239 18.1154 55.5707 18.1154Z" fill="#B2D550"/>
<path d="M42.0902 11.1154C42.537 11.1154 42.8992 10.7538 42.8992 10.3077C42.8992 9.86162 42.537 9.5 42.0902 9.5C41.6434 9.5 41.2812 9.86162 41.2812 10.3077C41.2812 10.7538 41.6434 11.1154 42.0902 11.1154Z" fill="#B2D550"/>
<path d="M12.4262 11.6537C12.873 11.6537 13.2351 11.2921 13.2351 10.846C13.2351 10.3999 12.873 10.0383 12.4262 10.0383C11.9794 10.0383 11.6172 10.3999 11.6172 10.846C11.6172 11.2921 11.9794 11.6537 12.4262 11.6537Z" fill="#B2D550"/>
<path d="M12.9652 24.0382C13.412 24.0382 13.7742 23.6766 13.7742 23.2305C13.7742 22.7845 13.412 22.4229 12.9652 22.4229C12.5184 22.4229 12.1562 22.7845 12.1562 23.2305C12.1562 23.6766 12.5184 24.0382 12.9652 24.0382Z" fill="#B2D550"/>
<path d="M40.4711 49.8847C40.9179 49.8847 41.2801 49.5231 41.2801 49.077C41.2801 48.6309 40.9179 48.2693 40.4711 48.2693C40.0243 48.2693 39.6621 48.6309 39.6621 49.077C39.6621 49.5231 40.0243 49.8847 40.4711 49.8847Z" fill="#B2D550"/>
<path d="M37.2348 58.5001C37.6815 58.5001 38.0437 58.1385 38.0437 57.6925C38.0437 57.2464 37.6815 56.8848 37.2348 56.8848C36.788 56.8848 36.4258 57.2464 36.4258 57.6925C36.4258 58.1385 36.788 58.5001 37.2348 58.5001Z" fill="#B2D550"/>
</svg>
