<svg width="105" height="105" viewBox="0 0 105 105" fill="none" xmlns="http://www.w3.org/2000/svg">
<path d="M62.1101 93.9385H42.8809L44.464 70.6091H60.5391L62.1101 93.9385Z" fill="#222222"/>
<path d="M64.6296 90.2015C64.5184 90.0272 64.3652 89.8841 64.1842 89.7855C64.0032 89.687 63.8003 89.6362 63.5945 89.6379H41.4059C41.198 89.6341 40.9926 89.6839 40.8093 89.7825C40.626 89.8812 40.4708 90.0254 40.3586 90.2015L37.4601 94.5635C37.3162 94.7504 37.2292 94.9752 37.2094 95.2108C37.1896 95.4464 37.238 95.6827 37.3487 95.8912C37.4594 96.0998 37.6278 96.2716 37.8334 96.3861C38.039 96.5005 38.2731 96.5527 38.5075 96.5362H66.5172C66.7516 96.5527 66.9857 96.5005 67.1913 96.3861C67.3969 96.2716 67.5653 96.0998 67.676 95.8912C67.7867 95.6827 67.8351 95.4464 67.8153 95.2108C67.7955 94.9752 67.7084 94.7504 67.5645 94.5635L64.6296 90.2015Z" fill="#222222"/>
<path d="M99.5929 6H5.4071C2.42084 6 0 8.43569 0 11.4403V71.3689C0 74.3734 2.42084 76.8091 5.4071 76.8091H99.5929C102.579 76.8091 105 74.3734 105 71.3689V11.4403C105 8.43569 102.579 6 99.5929 6Z" fill="#222222"/>
<path d="M100.166 10.6931H4.83594V71.3936H100.166V10.6931Z" fill="white"/>
<path d="M65.6639 51.7522H60.4395V71.3322H65.6639V51.7522Z" fill="#D0D1DE"/>
<path d="M65.6639 51.7522H60.4395V57.8909H65.6639V51.7522Z" fill="#9698B5"/>
<path d="M79.7998 21.3897H48.916V52.9652H92.0875V33.7405C92.0875 32.1175 91.7696 30.5105 91.1519 29.0112C90.5343 27.5119 89.629 26.1498 88.4878 25.0028C87.3466 23.8558 85.9919 22.9463 84.5012 22.3263C83.0104 21.7063 81.4129 21.388 79.7998 21.3897Z" fill="#B2D550"/>
<path d="M61.3147 52.9652H36.5078V33.7405C36.5078 30.4648 37.8011 27.3234 40.1032 25.0071C42.4054 22.6909 45.5277 21.3896 48.7834 21.3896H49.0026C52.2583 21.3896 55.3806 22.6909 57.6827 25.0071C59.9848 27.3234 61.2781 30.4648 61.2781 33.7405L61.3147 52.9652Z" fill="#B2D550"/>
<path d="M59.1997 50.3061H38.6309V34.3774C38.6309 31.6607 39.7035 29.0553 41.6128 27.1343C43.5221 25.2133 46.1116 24.134 48.8118 24.134H49.0066C50.3446 24.1324 51.6698 24.3962 52.9064 24.9103C54.1431 25.4243 55.2668 26.1786 56.2135 27.1299C57.1602 28.0813 57.9112 29.211 58.4236 30.4546C58.936 31.6982 59.1997 33.0312 59.1997 34.3774V50.3061Z" fill="#222222"/>
<path d="M51.8802 50.5388H28.3398V52.9649H51.8802V50.5388Z" fill="#B2D550"/>
<path d="M78.9744 41.2758C79.7173 41.2758 80.448 40.0506 80.448 38.3719C80.5053 37.5682 80.3932 36.7615 80.1191 36.0044C79.8451 35.2473 79.4151 34.557 78.8576 33.9787C78.3 33.4004 77.6273 32.947 76.8836 32.6483C76.1398 32.3497 75.3417 32.2124 74.5416 32.2455C72.9267 32.2455 71.3779 32.891 70.236 34.0399C69.0941 35.1888 68.4525 36.7471 68.4525 38.3719C68.4391 39.15 68.5825 39.9227 68.8741 40.6435C69.1657 41.3642 69.5995 42.018 70.1492 42.5654C70.699 43.1128 71.3532 43.5424 72.0726 43.8283C72.7919 44.1142 73.5614 44.2504 74.3346 44.2288C75.5485 44.2177 76.73 43.8329 77.7201 43.126L78.536 44.5718C77.298 45.4261 75.8356 45.8909 74.3346 45.9074C73.3332 45.944 72.335 45.7755 71.4004 45.412C70.4659 45.0484 69.6145 44.4976 68.8981 43.7928C68.1816 43.088 67.6151 42.244 67.2329 41.3122C66.8506 40.3803 66.6607 39.3799 66.6745 38.3719C66.6792 37.3381 66.8882 36.3156 67.2895 35.3638C67.6907 34.4121 68.2762 33.5502 69.0117 32.8284C69.7473 32.1065 70.6183 31.5392 71.574 31.1593C72.5296 30.7795 73.5508 30.5947 74.5781 30.6159C75.5918 30.5855 76.6009 30.7636 77.5438 31.1392C78.4867 31.5148 79.3435 32.0801 80.0617 32.8005C80.7799 33.5208 81.3444 34.381 81.7208 35.3285C82.0971 36.2759 82.2773 37.2907 82.2503 38.3106C82.2503 41.0063 80.789 42.7462 78.8039 42.7462C78.3434 42.8159 77.8734 42.7118 77.4845 42.454C77.0956 42.1961 76.8151 41.8027 76.6971 41.3494V41.1288C76.4051 41.571 76.0086 41.9335 75.5431 42.1836C75.0777 42.4338 74.5578 42.564 74.0301 42.5624C73.4986 42.5514 72.9747 42.434 72.4887 42.2173C72.0028 42.0005 71.5645 41.6886 71.1996 41.2997C70.8346 40.9108 70.5502 40.4528 70.3629 39.9522C70.1757 39.4517 70.0892 38.9186 70.1087 38.3842C70.1087 36.0684 71.5458 34.1447 73.7622 34.1447C74.2251 34.1361 74.6841 34.2318 75.1055 34.4247C75.5269 34.6176 75.9001 34.9029 76.1978 35.2597V34.3775H78.4142V40.4304C78.3168 41.043 78.5847 41.2758 78.9744 41.2758ZM72.4591 38.2984C72.4591 39.5237 73.1289 40.5407 74.1884 40.5407C75.2479 40.5407 75.9665 39.5237 75.9665 38.3106C76.0091 38.0543 75.9956 37.7917 75.9271 37.5411C75.8586 37.2905 75.7367 37.058 75.5698 36.8596C75.4029 36.6613 75.195 36.5019 74.9607 36.3926C74.7263 36.2833 74.4711 36.2266 74.2128 36.2266C73.9545 36.2266 73.6993 36.2833 73.4649 36.3926C73.2306 36.5019 73.0227 36.6613 72.8558 36.8596C72.6889 37.058 72.5669 37.2905 72.4984 37.5411C72.4299 37.7917 72.4165 38.0543 72.4591 38.3106V38.2984Z" fill="white"/>
<path d="M53.9366 57.0944C54.1193 52.1932 57.4561 48.015 59.1976 46.1526V45.1111H43.0494C39.7613 45.1111 37.8006 46.802 36.0226 49.5834C34.5191 51.8143 33.6284 54.4055 33.4408 57.0944C33.2094 63.7599 34.6586 67.0069 30.3232 71.4302C25.9878 75.8534 24.088 78.3653 25.3667 85.5699H45.8625C44.5838 78.3653 46.508 75.8412 50.819 71.4302C55.1301 67.0191 53.7052 63.7844 53.9366 57.0944Z" fill="#E5E6ED"/>
<path d="M56.3095 46.6311H41.2086C41.0259 46.8272 40.8433 47.06 40.6484 47.2928H55.7493L56.3095 46.6311Z" fill="#9A94AB"/>
<path d="M53.9398 49.8167H38.8389C38.705 50.0372 38.571 50.2578 38.4492 50.4783H53.5501C53.6719 50.3068 53.8059 50.0372 53.9398 49.8167Z" fill="#9A94AB"/>
<path d="M52.3538 52.9895H37.2529C37.1798 53.2101 37.0946 53.4306 37.0215 53.6634H52.1346C52.1955 53.4306 52.2807 53.2101 52.3538 52.9895Z" fill="#9A94AB"/>
<path d="M51.5697 56.1755H36.4688C36.4688 56.3961 36.4688 56.6166 36.4688 56.8372H51.5818C51.5331 56.6166 51.5453 56.4328 51.5697 56.1755Z" fill="#9A94AB"/>
<path d="M51.4408 59.3489H36.3398C36.3398 59.5694 36.3398 59.79 36.3398 60.0105H51.4408C51.4408 59.79 51.4408 59.5694 51.4408 59.3489Z" fill="#9A94AB"/>
<path d="M51.5384 62.5591H36.4375C36.4375 62.7919 36.4375 63.0124 36.4375 63.233H51.5384C51.5506 62.9757 51.5506 62.7551 51.5384 62.5591Z" fill="#9A94AB"/>
<path d="M51.4394 65.6956H36.3386C36.3386 65.9284 36.2655 66.1489 36.2168 66.3695H51.3176C51.3298 66.1489 51.3664 65.9284 51.4394 65.6956Z" fill="#9A94AB"/>
<path d="M50.3392 68.8816H35.2383C35.1165 69.1021 34.9704 69.3227 34.8242 69.5432H49.9251C50.0761 69.3312 50.2143 69.1102 50.3392 68.8816Z" fill="#9A94AB"/>
<path d="M47.7849 72.0542H32.6841L32.0508 72.7159H47.1517L47.7849 72.0542Z" fill="#9A94AB"/>
<path d="M45.0471 75.228H29.9462L29.5078 75.9019H44.6087L45.0471 75.228Z" fill="#9A94AB"/>
<path d="M43.4745 78.4138H28.3736C28.3127 78.6221 28.2518 78.8427 28.2031 79.0755H43.304C43.3528 78.8427 43.4136 78.6221 43.4745 78.4138Z" fill="#9A94AB"/>
<path d="M43.0521 81.5874H27.9512C27.9512 81.808 27.9512 82.0285 27.9512 82.2491H43.0521C43.0521 82.0285 43.0521 81.808 43.0521 81.5874Z" fill="#9A94AB"/>
<path d="M35.3019 52.267C35.168 52.0464 34.3158 52.7448 34.1941 52.9286C33.9654 53.1863 33.7616 53.4653 33.5854 53.7618L33.1593 54.6195C33.0863 54.7788 33.0985 54.9748 33.0376 55.1464C32.9185 55.398 32.767 55.6328 32.5871 55.8448C32.5871 55.8448 32.5872 55.9306 32.502 56.0286C32.8428 56.3104 32.8671 56.5677 33.0498 56.9598C33.1768 56.8291 33.3153 56.7101 33.4637 56.6045L34.5959 56.1266C34.8865 56.0073 35.1606 55.8508 35.4115 55.661C35.5089 55.5875 35.8741 55.465 35.8376 55.3302C35.801 55.1954 35.2776 55.1954 35.1558 55.2199C34.8634 55.3323 34.5554 55.3984 34.2428 55.4159C34.1282 55.372 34.0356 55.2841 33.9854 55.1715C33.9352 55.059 33.9315 54.9309 33.975 54.8156C34.0683 54.5179 34.2513 54.2567 34.4984 54.0681L35.3506 53.2962C35.7889 52.9041 35.5941 52.6223 35.1802 52.8796C35.1071 52.8796 34.4619 53.4555 34.3889 53.4923L34.5593 53.3085C34.815 53.0021 35.4724 52.5243 35.3019 52.267Z" fill="#FBC0B0"/>
<path d="M17.341 44.8049L17.4384 44.9887C17.765 45.5324 18.14 46.045 18.5588 46.5203C18.8267 46.7899 19.2652 47.0349 19.4844 47.3045C19.5681 47.4189 19.6618 47.5255 19.7645 47.6231C19.213 48.8884 18.7611 50.1953 18.4127 51.5317C18.4127 51.5317 15.6847 50.6985 14.9297 49.3507C15.8665 47.9108 16.6735 46.3895 17.341 44.8049Z" fill="#FBC0B0"/>
<path d="M17.8162 49.8038C17.8098 48.9244 17.5334 48.0684 17.0248 47.3533C16.8513 47.1257 16.6643 46.9088 16.4648 46.7039C16.8187 46.0767 17.1201 45.421 17.3657 44.7434L17.4631 44.9272C17.7895 45.4709 18.1644 45.9835 18.5831 46.4588C18.8509 46.7284 19.2892 46.9734 19.5083 47.243C19.592 47.3574 19.6857 47.464 19.7883 47.5616C19.2258 48.846 18.7657 50.1735 18.4127 51.5315C18.4127 51.5315 17.9379 51.3844 17.3414 51.1271C17.6366 50.7487 17.8031 50.2848 17.8162 49.8038Z" fill="#F39F90"/>
<path d="M7.27236 95.2865C7.27236 95.2865 6.87049 98.0556 7.27236 98.46C7.67424 98.8643 13.4345 99.2687 13.9338 98.7663C14.433 98.2639 14.1773 97.3817 12.9717 97.0019C11.766 96.622 11.0476 97.0019 10.2438 96.573C9.44006 96.1442 9.70797 94.9312 9.70797 94.9312L7.27236 95.2865Z" fill="#222222"/>
<path d="M16.9286 95.2865C16.9286 95.2865 16.5267 98.0556 16.9286 98.46C17.3305 98.8643 23.0907 99.2687 23.59 98.7663C24.0893 98.2639 23.8336 97.3817 22.628 97.0019C21.4223 96.622 20.7038 97.0019 19.9122 96.573C19.1207 96.1442 19.3642 94.9312 19.3642 94.9312L16.9286 95.2865Z" fill="#222222"/>
<path d="M6.37689 79.7126C5.41477 74.5046 4.94986 69.2159 4.98856 63.9187C5.93484 63.7588 6.9032 63.7879 7.83829 64.0045C9.66503 64.4946 11.4917 64.9602 13.3063 65.4258C12.1578 70.372 11.3441 75.3908 10.8707 80.4478C10.8707 82.8984 10.213 96.2295 10.213 96.2295L6.90055 96.303C6.59609 94.2322 6.4865 80.3375 6.37689 79.7126Z" fill="#B2D550"/>
<path d="M10.3813 64.6662C11.3426 64.9444 12.3183 65.1693 13.304 65.3401C12.174 70.2775 11.3604 75.2829 10.8684 80.3253C10.223 79.1 7.76296 74.7135 6.399 71.3807C5.4819 69.1542 5.00217 66.77 4.98633 64.3599C6.78665 64.0922 8.62233 64.1964 10.3813 64.6662Z" fill="#95B639"/>
<path d="M8.16183 63.8458C9.37965 64.2134 11.6204 64.7035 13.3132 65.2427C14.5919 68.1343 18.1845 75.8536 18.8299 78.9291C19.7798 83.193 19.7798 95.9482 19.7798 95.9482H16.5647C16.5647 95.9482 14.3727 81.5144 13.983 80.5097C12.4242 76.4662 9.56234 73.6603 8.45413 71.7366C6.81412 69.12 5.69721 66.2066 5.16602 63.1597C6.11591 63.4415 7.12669 63.5395 8.16183 63.8458Z" fill="#B2D550"/>
<path d="M16.0017 52.9399C16.6958 51.5553 16.1478 50.5751 17.6092 51.053C20.0448 51.8249 22.2978 57.0324 23.6983 57.3754C25.6346 57.841 32.7466 55.366 32.7466 55.366L33.4895 57.1917C33.4895 57.1917 24.1002 61.3209 22.5292 60.8675C20.9582 60.4141 16.9516 56.0521 15.9652 54.5573C15.8296 54.3082 15.7616 54.0276 15.768 53.7437C15.7744 53.4598 15.855 53.1826 16.0017 52.9399Z" fill="#D0D1DE"/>
<path d="M16.0017 52.9399C16.6958 51.5553 16.1478 50.5751 17.6092 51.053C20.0448 51.8249 22.2978 57.0324 23.6983 57.3754C25.6346 57.841 32.7466 55.366 32.7466 55.366L33.4895 57.1917C33.4895 57.1917 24.1002 61.3209 22.5292 60.8675C20.9582 60.4141 16.9516 56.0521 15.9652 54.5573C15.8296 54.3082 15.7616 54.0276 15.768 53.7437C15.7744 53.4598 15.855 53.1826 16.0017 52.9399Z" fill="#B8B9CD"/>
<path d="M14.6035 67.3499C12.6601 67.2178 10.739 66.8559 8.87975 66.2716C6.79729 65.5854 5.00712 64.4092 4.71484 63.5147C4.71484 63.5147 8.00295 54.9377 10.2803 51.9358C10.8458 51.1141 11.5775 50.4219 12.4275 49.9046C13.2775 49.3872 14.2265 49.0564 15.2124 48.9338C16.1742 49.8303 17.3224 50.5 18.5736 50.8943C18.5736 50.8943 17.1 57.3025 16.3937 59.8266C15.6873 62.3507 14.6035 67.3499 14.6035 67.3499Z" fill="#D0D1DE"/>
<path d="M13.9329 57.6576C13.7545 56.2263 13.8287 54.7745 14.1521 53.3691L14.554 53.7C15.2713 54.4794 16.1157 55.13 17.0505 55.6237C17.1726 55.6755 17.2989 55.7165 17.4281 55.7462C17.0627 57.2901 16.673 58.8707 16.3929 59.8509C15.6987 62.3872 14.6027 67.3741 14.6027 67.3741C14.6027 67.3741 13.7868 67.3741 12.6055 67.1536C13.8964 64.3599 13.9816 60.8189 13.9329 57.6576Z" fill="#B8B9CD"/>
<path d="M17.5845 40.9086C17.5845 40.9086 19.8862 39.2913 21.238 40.1735C22.5898 41.0557 23.357 41.8031 23.2352 42.4525C22.9559 43.4643 22.7564 44.4968 22.6385 45.5402C22.6385 46.2999 23.0647 47.4762 22.9064 47.709C22.7481 47.9418 21.8956 47.5864 21.786 47.709C21.6764 47.8315 20.2272 49.3753 19.8253 49.3999C18.6379 48.4997 17.7812 47.2283 17.3897 45.7853C17.4019 44.6948 16.659 42.2687 17.5845 40.9086Z" fill="#FBC0B0"/>
<path d="M20.3624 42.7094C20.545 43.1872 21.2513 44.0449 23.1268 44.2042C25.0022 44.3635 26.2687 40.5284 23.005 39.058C19.7412 37.5877 19.2663 38.7394 18.56 38.6782C18.2173 38.614 17.865 38.6245 17.5267 38.7091C17.1885 38.7936 16.8722 38.9502 16.5993 39.1683C15.9563 39.6432 15.4976 40.3285 15.3021 41.1066C15.1065 41.8846 15.1863 42.7069 15.5276 43.4323C16.2705 45.5888 17.3787 45.8828 17.3787 45.8828C17.6588 45.5275 17.9876 44.8414 17.7562 44.4493C17.6051 44.2869 17.4817 44.1006 17.3909 43.8979C17.3493 43.7507 17.3568 43.5939 17.4124 43.4515C17.468 43.309 17.5686 43.1889 17.6986 43.1096C17.8286 43.0303 17.981 42.9961 18.1322 43.0123C18.2834 43.0286 18.4252 43.0943 18.5356 43.1995C18.8644 43.4445 18.6818 44.1429 18.767 44.486C18.8523 44.8291 19.0227 44.8659 19.1689 44.8904C19.315 44.9149 19.997 44.3145 19.8996 43.3097C19.8387 42.6849 20.1675 42.2192 20.3624 42.7094Z" fill="#222222"/>
<path d="M29.2538 67.5825C29.3702 67.6101 29.4842 67.647 29.5948 67.6928C29.831 67.8307 30.1012 67.8987 30.3742 67.8888C30.8328 67.8438 31.2956 67.9067 31.7259 68.0726C31.9086 68.1829 33.0412 68.9671 32.5419 69.2979C32.481 69.2979 32.2861 69.3959 32.2496 69.2979L31.8234 68.9303C31.9232 69.0131 32.0168 69.1032 32.1035 69.1999C32.1527 69.2594 32.1936 69.3254 32.2252 69.3959C32.2252 69.5307 32.0669 69.7145 31.9451 69.7145C31.8234 69.7145 31.7747 69.5675 31.7016 69.4817C31.7625 69.5797 31.933 69.7023 31.7016 69.9228C31.4702 70.1434 31.4337 69.9228 31.3241 69.8615L31.2145 69.7635L31.4093 69.9963C31.4945 70.1556 31.0927 70.4007 30.8734 70.2781C30.6542 70.1556 30.4838 69.8738 30.3985 69.8615L30.0941 69.788C29.7994 69.6903 29.535 69.5172 29.3268 69.2857C29.2294 69.1876 29.0346 69.0038 28.9371 68.8936C28.8012 68.7487 28.6827 68.5883 28.584 68.4157C28.8877 68.2146 29.1218 67.9234 29.2538 67.5825Z" fill="#FBC0B0"/>
<path d="M28.7091 69.3473L30.1949 67.3501C30.1949 67.3501 24.8121 62.2161 22.8027 59.6798C20.7933 57.1434 18.8448 52.2301 17.152 51.7522C15.4593 51.2743 13.6326 52.0463 14.3754 54.5581C15.1183 57.0699 19.8191 60.807 20.7324 61.9833C23.2597 64.5785 25.9224 67.0366 28.7091 69.3473Z" fill="#D0D1DE"/>
</svg>
