<svg width="105" height="105" viewBox="0 0 105 105" fill="none" xmlns="http://www.w3.org/2000/svg">
<path d="M22.1345 71.2424H19.166V87.5617H22.1345V71.2424Z" fill="#AAAAAA"/>
<path d="M78.3356 71.2424H75.3672V87.5617H78.3356V71.2424Z" fill="#AAAAAA"/>
<path d="M97.5096 14H0V72.7216H97.5096V14Z" fill="#222222"/>
<path d="M92.8462 17.9374H4.66016V68.7941H92.8462V17.9374Z" fill="white"/>
<path d="M66.0801 64.0171H10.4551C10.4551 64.0171 10.7305 43.4805 17.5956 40.5325C24.4608 37.5844 28.99 52.4347 32.2032 52.6246C35.4165 52.8145 35.1308 40.4725 39.8028 38.6337C51.8602 33.9168 50.6259 52.5246 52.8395 52.3348C55.053 52.1449 57.0218 35.146 60.0616 35.146C67.4878 35.146 66.0801 64.0171 66.0801 64.0171Z" fill="#E4E5EC"/>
<path d="M66.0801 64.0172H10.4551C10.4551 64.0172 11.8628 46.5087 18.6871 43.5506C25.5115 40.5925 28.5309 54.7633 31.7442 54.9631C34.9574 55.163 37.9667 45.1296 42.9651 44.7298C47.9635 44.3301 51.4216 56.3422 53.6147 56.1423C55.8079 55.9425 57.0014 37.0648 60.0412 37.0648C66.0801 37.0648 66.0801 64.0172 66.0801 64.0172Z" fill="#FA8825"/>
<path d="M66.0802 64.0171H10.4551C10.4551 64.0171 12.2708 55.3528 19.0952 52.4047C25.9195 49.4567 29.5306 57.6213 32.7439 57.8212C35.9571 58.0211 37.2628 46.1588 42.2918 45.7691C47.3208 45.3793 44.5258 60.0797 52.4927 60.0797C58.2663 60.0797 57.3789 47.9776 60.4187 47.9776C66.4372 47.9776 66.0802 64.0171 66.0802 64.0171Z" fill="#B2D550"/>
<path d="M89.0533 34.2372H72.5586V37.0653H89.0533V34.2372Z" fill="#E4E5EC"/>
<path d="M89.0533 40.5323H72.5586V43.3605H89.0533V40.5323Z" fill="#E4E5EC"/>
<path d="M89.0533 46.839H72.5586V49.6672H89.0533V46.839Z" fill="#FA8825"/>
<path d="M89.0533 53.134H72.5586V55.9622H89.0533V53.134Z" fill="#E4E5EC"/>
<path d="M89.0533 59.4301H72.5586V62.2582H89.0533V59.4301Z" fill="#B2D550"/>
<path d="M11.9682 20.9956H8.95898V23.9436H11.9682V20.9956Z" fill="#FA8825"/>
<path d="M28.53 20.9956H14.8711V23.9436H28.53V20.9956Z" fill="#E4E5EC"/>
<path d="M11.9682 25.9421H8.95898V28.8902H11.9682V25.9421Z" fill="#FA8825"/>
<path d="M28.53 25.9421H14.8711V28.8902H28.53V25.9421Z" fill="#E4E5EC"/>
<path d="M11.9682 30.8989H8.95898V33.847H11.9682V30.8989Z" fill="#FA8825"/>
<path d="M28.53 30.8989H14.8711V33.847H28.53V30.8989Z" fill="#E4E5EC"/>
<path d="M89.0503 20.9956H46.166V25.1029H89.0503V20.9956Z" fill="#E4E5EC"/>
<path d="M55.9823 29.7397H34.4688V33.2174H55.9823V29.7397Z" fill="#E4E5EC"/>
<path d="M24.5927 85.4828H16.6973V88.3709H24.5927V85.4828Z" fill="#222222"/>
<path d="M80.8017 85.4828H72.9062V88.3709H80.8017V85.4828Z" fill="#222222"/>
<path d="M37.6733 21.7745C38.7444 21.8544 39.7135 22.3041 39.7135 23.3534H37.9181C37.9181 22.9537 37.4897 22.8738 37.2347 22.8738C36.9797 22.8738 36.5308 22.8737 36.5308 23.2035C36.5308 23.9231 39.8359 23.1536 39.8563 25.2022C39.8563 26.4314 38.8872 26.8911 37.6835 26.9811L37.7651 28.2902H36.6737L36.7349 26.9811C35.623 26.8711 34.5825 26.3715 34.5723 25.2622H36.3676C36.3676 25.7519 36.9287 25.8418 37.2143 25.8418C37.4999 25.8418 38.0202 25.8418 38.01 25.4621C38.01 24.7126 34.7049 25.4121 34.6947 23.4634C34.6947 22.3241 35.5924 21.8744 36.7349 21.7745L36.6532 20.4653H37.7549L37.6733 21.7745Z" fill="#FA8825"/>
<path d="M44.6655 23.4938L42.9722 20.2759L41.2891 23.4938H42.4418V28.2906H43.5128V23.4938H44.6655Z" fill="#B2D550"/>
<path d="M91.4185 40.7824C90.1523 41.6943 89.1503 42.9135 88.5113 44.3201C87.1852 46.9084 86.3487 48.3175 86.1957 48.1776C85.4919 47.6279 83.6251 46.059 80.9015 41.8717C80.5649 41.362 80.9015 41.0323 80.9015 40.6325C80.9015 40.2328 81.4523 39.3134 81.3401 39.0536C81.2279 38.7937 80.8913 38.8537 80.5649 39.4833C80.2385 40.1129 80.3506 40.4826 80.0956 40.3227C79.6828 39.9388 79.3166 39.5096 79.0042 39.0436C78.8001 38.7138 78.1677 38.0442 77.9841 38.1841C77.8005 38.324 77.7801 38.4539 78.7491 39.8131C78.3921 39.3234 77.5352 38.2041 77.2292 38.4739C76.9232 38.7438 77.8616 39.6831 78.2493 40.1329C77.9126 39.7531 77.168 38.9636 76.8926 39.2234C76.6172 39.4833 78.1677 40.7325 78.1677 40.7325C78.1677 40.7325 76.9742 39.8031 76.811 40.0829C76.6477 40.3627 77.3516 40.9523 78.0351 41.3321C78.7185 41.7118 78.8409 41.8417 79.1163 41.9816C79.3737 42.2056 79.5879 42.473 79.7488 42.7711C79.7488 42.7711 84.7574 53.2842 86.5528 52.3249C88.3481 51.3655 90.7351 47.9178 90.7351 47.9178C91.2072 47.0623 91.5214 46.132 91.6634 45.1696C91.8926 43.7063 91.8093 42.2124 91.4185 40.7824Z" fill="#FBC0B0"/>
<path d="M87.5234 45.2794C87.8907 44.45 89.9818 40.2827 91.4711 39.6731L93.5113 40.4426C94.3988 41.5219 93.2665 44.0802 92.8993 44.37C92.532 44.6598 91.1039 47.6079 90.7979 47.9177C89.6359 47.1259 88.5408 46.2436 87.5234 45.2794Z" fill="#B2D550"/>
<path d="M95.0834 33.6772L97.9601 34.117C97.5092 35.661 97.6619 37.3143 98.3885 38.7539C98.3885 38.7539 96.3484 40.9425 94.8794 40.3629C94.6729 40.2844 94.4842 40.1668 94.3242 40.0168C94.1641 39.8667 94.0359 39.6872 93.9468 39.4886C93.8577 39.2899 93.8095 39.0759 93.805 38.859C93.8005 38.642 93.8398 38.4263 93.9206 38.2242C93.9206 38.2242 95.4405 37.0051 95.0834 33.6772Z" fill="#F39F90"/>
<path d="M100.836 86.2924C100.836 86.2924 101.612 89.2904 101.173 89.8001C100.734 90.3098 94.2874 91.369 93.6652 90.8694C93.0429 90.3697 93.2367 89.3604 94.5424 88.8207C95.8481 88.2811 96.7254 88.5309 97.6027 88.0413C98.48 87.5516 98.0311 86.1725 98.0311 86.1725L100.836 86.2924Z" fill="#222222"/>
<path d="M92.8262 85.8232C92.8262 85.8232 92.9793 89.6007 92.4692 90.0204C91.9592 90.4401 85.4103 90.5401 84.8798 89.9505C84.3494 89.3608 84.6554 88.5214 85.9713 88.2416C87.2872 87.9618 88.0115 88.2416 88.9703 87.8219C89.9292 87.4021 90.1842 85.7133 90.1842 85.7133L92.8262 85.8232Z" fill="#222222"/>
<path d="M90.0628 54.2636L98.4988 52.8445C98.4988 52.8445 95.3162 69.8334 94.8979 71.7521C94.4797 73.6709 93.2148 86.5924 93.2148 86.5924L89.5527 86.1727C89.5527 86.1727 89.5527 72.0919 89.7873 70.8427C90.022 69.5936 90.0628 54.2636 90.0628 54.2636Z" fill="#FA8825"/>
<path d="M93.174 61.0092C92.7558 58.3509 93.0312 56.2822 92.4294 55.0131C92.1947 54.4934 91.4093 54.6333 91.2461 54.1037C91.3523 53.9809 91.4384 53.8427 91.5011 53.6939L98.4887 52.6946C98.4887 52.6946 95.3162 67.305 94.5001 70.8927C94.5001 70.8327 93.5005 63.1278 93.174 61.0092Z" fill="#E98025"/>
<path d="M93.5508 53.4442L100.304 55.1231C100.848 56.9006 100.988 58.7735 100.712 60.6095C100.151 64.2871 100.1 70.0534 100.028 70.8429C99.9569 71.6323 101.293 84.0542 101.395 87.0223L97.7535 87.1822C97.7535 87.1822 94.9687 71.6023 94.8055 71.2626C94.6423 70.9228 93.5508 53.4442 93.5508 53.4442Z" fill="#FA8825"/>
<path d="M90.434 47.6477C90.5768 44.8596 89.8117 40.6523 91.454 39.653L94.0145 38.1539C94.1439 38.4361 94.3384 38.6849 94.5827 38.8808C94.827 39.0768 95.1144 39.2145 95.4222 39.2832C96.4423 39.4131 98.003 37.9441 98.003 37.9441C98.003 37.9441 99.8289 38.9934 101.471 39.7129C101.073 41.0021 101.89 42.1613 101.89 43.4505C101.883 44.1598 101.979 44.8663 102.175 45.5491C101.529 46.7327 101.039 47.992 100.716 49.2967C100.349 51.835 101.522 55.7325 101.522 55.7325C99.4622 56.1828 97.3729 56.4933 95.2692 56.6619C93.1862 56.7415 91.1034 56.4986 89.0977 55.9424C89.6973 53.2035 90.1434 50.4344 90.434 47.6477Z" fill="#B2D550"/>
<path d="M102.181 45.5595C102.13 45.3696 102.099 45.1698 102.069 44.9799C102.038 44.79 101.997 44.7001 101.977 44.5502C101.922 44.193 101.898 43.832 101.905 43.4709C101.905 42.8313 101.905 42.1617 101.905 41.4722C101.559 41.722 101.151 42.3016 100.732 42.0718C98.8044 40.9525 98.5392 46.0692 98.5392 48.5875C98.5392 51.1059 98.4678 54.1339 97.4375 56.4524C98.8328 56.2848 100.218 56.048 101.589 55.7428C101.589 55.7428 101.426 55.1932 101.242 54.3737C101.14 53.964 101.049 53.4943 100.957 52.9847C100.957 52.8148 100.906 52.6349 100.875 52.455C100.804 51.9353 100.743 51.3857 100.722 50.846C100.695 50.3323 100.716 49.8172 100.783 49.307C101.089 48.0059 101.558 46.747 102.181 45.5595Z" fill="#95B639"/>
<path d="M97.8977 29.0298C97.8977 29.0298 93.8174 28.4202 93.3175 28.8599C92.8177 29.2997 92.7565 30.9386 92.7769 32.3077C92.7973 33.6768 92.2056 36.3051 93.848 36.7847C95.4903 37.2644 98.6015 35.7854 99.7032 33.0572C101.111 29.5995 98.1833 29.0698 97.8977 29.0298Z" fill="#FBC0B0"/>
<path d="M98.5992 28.7104C98.5992 28.7104 96.6509 28.7703 96.3041 31.6385C96.151 32.9376 95.8246 33.937 96.2326 33.9969C96.3264 34.0188 96.4238 34.0207 96.5183 34.0025C96.6128 33.9843 96.7023 33.9465 96.7806 33.8916C96.8589 33.8366 96.9243 33.7658 96.9723 33.684C97.0203 33.6022 97.0498 33.5112 97.0589 33.4173C97.0589 33.0475 97.1813 31.8283 97.9566 32.1681C98.7318 32.5079 98.4666 33.9769 97.4771 34.3967C97.4253 34.6452 97.4545 34.9034 97.5607 35.1347C97.6668 35.3661 97.8446 35.5589 98.0688 35.6858C98.6809 35.2838 99.2041 34.7652 99.6072 34.1608C100.01 33.5565 100.285 32.8787 100.415 32.1681C100.711 29.9096 99.8437 28.6404 98.5992 28.7104Z" fill="#222222"/>
<path d="M99.3776 28.9599C99.2115 28.3967 98.8672 27.8996 98.3942 27.5404C97.9212 27.1812 97.344 26.9784 96.7458 26.9612C95.734 26.933 94.7344 27.1842 93.8614 27.6861C92.9884 28.1879 92.277 28.9203 91.8086 29.7994C91.8086 29.7994 92.4002 30.7987 94.6342 30.9486C95.8019 30.9803 96.9631 30.7692 98.0413 30.329C98.3476 30.2022 98.6241 30.0152 98.8539 29.7798C99.0837 29.5443 99.2619 29.2653 99.3776 28.9599Z" fill="#222222"/>
<path d="M104.957 52.2748C104.824 51.6253 104.202 47.8078 103.988 46.3987C102.723 46.8084 101.56 47.2282 100.254 47.5679C100.852 49.2729 101.316 51.0202 101.642 52.7945C101.785 54.0837 101.183 59.79 101.009 61.7887C101.009 61.9485 101.009 62.0884 101.009 62.1984C100.944 62.616 100.788 63.0149 100.55 63.3676C100.254 63.7274 99.265 64.9066 99.4282 65.4263C99.5914 65.9459 100.448 64.9965 100.724 64.6768C100.999 64.357 101.071 65.4263 100.999 66.0059C100.928 66.5855 99.7342 67.5449 99.8668 67.9446C99.9994 68.3443 100.316 68.0146 100.775 67.5049C100.561 67.8247 100.397 68.1345 100.52 68.2144C100.642 68.2944 100.979 68.1245 101.295 67.7847C101.122 68.0446 101.009 68.2744 101.132 68.3344C101.254 68.3943 101.632 68.1445 101.948 67.8147C101.785 68.0546 101.672 68.2844 101.785 68.3543C101.897 68.4243 102.692 67.8647 102.958 67.0452C103.172 66.3856 102.662 64.5169 102.478 63.5575C102.427 63.2737 102.448 62.9819 102.539 62.708C103.06 61.0191 105.334 54.0937 104.957 52.2748Z" fill="#FBC0B0"/>
<path d="M100.253 48.8471C101.815 48.5642 103.34 48.1152 104.803 47.508C104.446 45.1096 103.589 41.8117 102.324 40.5126C101.967 40.1528 101.304 39.5132 100.773 39.6731C100.029 39.923 99.0699 40.9323 98.9883 42.881C99.0979 44.3142 99.3507 45.7334 99.7431 47.1182C99.8961 47.478 100.049 48.2275 100.253 48.8471Z" fill="#B2D550"/>
</svg>
