<svg width="105" height="105" viewBox="0 0 105 105" fill="none" xmlns="http://www.w3.org/2000/svg">
<path d="M46.0245 97.7196C70.3386 97.7196 90.049 77.9554 90.049 53.575C90.049 29.1946 70.3386 9.43042 46.0245 9.43042C21.7104 9.43042 2 29.1946 2 53.575C2 77.9554 21.7104 97.7196 46.0245 97.7196Z" fill="#FA8825"/>
<path d="M79.1466 57.6661C81.3991 39.3245 68.3966 22.6247 50.1049 20.3662C31.8132 18.1076 15.1589 31.1455 12.9065 49.4871C10.6541 67.8287 23.6565 84.5284 41.9482 86.787C60.2399 89.0456 76.8942 76.0077 79.1466 57.6661Z" fill="white"/>
<path d="M51.496 76.8322C64.3064 73.8004 72.2402 60.9295 69.2167 48.0842C66.1931 35.2388 53.3572 27.2834 40.5468 30.3152C27.7364 33.3469 19.8026 46.2179 22.8261 59.0632C25.8497 71.9085 38.6856 79.864 51.496 76.8322Z" fill="#FA8825"/>
<path d="M62.4369 53.5636C62.4391 56.8209 61.4774 60.0056 59.6734 62.7144C57.8693 65.4232 55.3042 67.5342 52.3029 68.7802C49.3015 70.0261 45.9989 70.351 42.8133 69.7135C39.6277 69.0761 36.7024 67.505 34.4078 65.1993C32.1133 62.8936 30.5528 59.957 29.9238 56.7614C29.2949 53.5657 29.6259 50.2548 30.8748 47.2479C32.1238 44.241 34.2346 41.6734 36.9398 39.8703C39.6451 38.0671 42.8232 37.1095 46.0716 37.1187C50.4142 37.1311 54.5749 38.8687 57.6423 41.9511C60.7097 45.0334 62.4338 49.2091 62.4369 53.5636Z" fill="white"/>
<path d="M53.6088 53.5634C53.6111 55.0656 53.169 56.5347 52.3384 57.7848C51.5077 59.0349 50.326 60.0099 48.9426 60.5864C47.5592 61.1628 46.0363 61.3149 44.5667 61.0232C43.0972 60.7316 41.7469 60.0094 40.6867 58.948C39.6266 57.8866 38.9043 56.5337 38.6112 55.0606C38.3181 53.5875 38.4674 52.0602 39.0401 50.6722C39.6129 49.2841 40.5834 48.0976 41.8288 47.2628C43.0743 46.428 44.5387 45.9824 46.0368 45.9824C48.043 45.9824 49.9672 46.7808 51.3869 48.2021C52.8066 49.6235 53.6057 51.5517 53.6088 53.5634Z" fill="#FA8825"/>
<path d="M65.6248 33.853C65.6248 33.853 64.9851 35.4042 65.02 35.3575C64.6949 35.1609 64.3473 35.0042 63.9848 34.891C63.5722 34.9023 63.1595 34.8749 62.7519 34.8094C62.492 34.7361 62.2503 34.6089 62.0424 34.4362C61.9145 34.3662 61.7167 34.1329 61.8912 34.0746C62.0657 34.0163 62.2401 34.2495 62.3448 34.2962C62.5035 34.3101 62.6631 34.3101 62.8217 34.2962L62.4146 34.1329C62.1007 34.0193 61.7972 33.8788 61.5074 33.713C61.4143 33.6197 61.4376 33.4098 61.6818 33.4681C61.9028 33.5117 62.1176 33.5822 62.3216 33.6781L62.8566 33.8647C62.8566 33.8647 62.4379 33.713 62.2983 33.6431L61.3794 33.2582C61.1003 33.1299 61.1701 32.815 61.3794 32.8383C61.6944 32.9448 62.0014 33.0734 62.2983 33.2232C62.403 33.2232 62.845 33.4681 62.845 33.4681C62.845 33.4681 62.3216 33.2232 62.2285 33.1649C62.1355 33.1066 61.5539 32.885 61.4841 32.71C61.4143 32.5351 61.4841 32.4534 61.6935 32.4884C61.9477 32.5363 62.1942 32.6187 62.4262 32.7334C62.7985 32.9283 63.1878 33.0883 63.5894 33.2115C63.7522 33.2115 63.9383 33.2115 63.9383 32.9899L64.2291 32.4651C64.2291 32.4651 64.4152 32.5584 64.5199 33.0366C64.6129 33.3282 65.0433 33.6664 65.6248 33.853Z" fill="#FBBFAF"/>
<path d="M83.1185 40.0576C83.0963 39.423 82.8504 38.8169 82.4244 38.3471C81.9985 37.8772 81.4201 37.5741 80.7923 37.4917C78.6986 37.1768 74.8021 36.582 73.6274 36.3254C71.999 35.9522 65.3226 33.7129 65.3226 33.7129L64.5898 35.4857C64.5898 35.4857 71.8478 39.1479 73.1621 39.4278C74.4765 39.7077 81.1761 42.0986 82.4672 41.3522C82.6842 41.2176 82.8599 41.0254 82.9749 40.7969C83.0898 40.5685 83.1395 40.3126 83.1185 40.0576Z" fill="#B2D550"/>
<path d="M88.4214 57.5755L87.9911 56.3159H69.1367L69.5322 57.5755H88.4214Z" fill="#222222"/>
<path d="M90.6531 64.3286L90.2343 63.0457H71.2637L71.6708 64.3286H90.6531Z" fill="#222222"/>
<path d="M85.5835 50.8343L85.1532 49.5747H66.2988L66.6943 50.8343H85.5835Z" fill="#222222"/>
<path d="M92.9218 71.1396L92.4914 69.845H73.4277L73.8465 71.1396H92.9218Z" fill="#222222"/>
<path d="M95.214 78.0209L94.7836 76.7146H75.6152L76.0223 78.0209H95.214Z" fill="#222222"/>
<path d="M97.5277 84.9837L97.0857 83.6658H77.8242L78.2429 84.9837H97.5277Z" fill="#222222"/>
<path d="M99.8666 92.028L99.4246 90.6868H80.0469L80.4772 92.028H99.8666Z" fill="#222222"/>
<path d="M102.042 102.151H102.124C102.264 102.152 102.401 102.119 102.526 102.055C102.65 101.991 102.757 101.898 102.838 101.783C102.919 101.669 102.972 101.537 102.991 101.398C103.01 101.259 102.996 101.117 102.95 100.985L85.235 47.7901C85.1803 47.6137 85.0705 47.4595 84.9218 47.3504C84.7732 47.2412 84.5935 47.1827 84.4092 47.1836H83.2461L101.263 101.545C101.317 101.713 101.42 101.861 101.559 101.969C101.698 102.078 101.867 102.141 102.042 102.151Z" fill="#222222"/>
<path d="M82.8498 102.152H82.9429C83.0837 102.154 83.223 102.122 83.3489 102.059C83.4748 101.996 83.5836 101.903 83.6659 101.788C83.7482 101.674 83.8016 101.541 83.8215 101.401C83.8414 101.261 83.8273 101.119 83.7803 100.985L66.8451 47.8137C66.7886 47.6351 66.6771 47.4791 66.5266 47.3681C66.3762 47.257 66.1945 47.1966 66.0077 47.1956C65.8678 47.1958 65.7299 47.2293 65.6054 47.2933C65.4809 47.3574 65.3734 47.4502 65.2916 47.564C65.2098 47.6779 65.1562 47.8096 65.1351 47.9483C65.114 48.087 65.126 48.2287 65.1702 48.3619L82.0356 101.569C82.0923 101.74 82.2017 101.888 82.348 101.993C82.4943 102.098 82.67 102.154 82.8498 102.152Z" fill="#222222"/>
<path d="M82.8057 31.7185L82.701 31.8468C82.3463 32.2318 81.957 32.5832 81.5379 32.8965C81.2703 33.0714 80.8516 33.188 80.619 33.3747C80.5307 33.4473 80.4375 33.5136 80.3398 33.5729C80.5684 34.7265 80.7045 35.8965 80.7469 37.0718C80.7469 37.0718 83.0732 36.9085 84.0037 35.9055C83.4811 34.5483 83.0802 33.1471 82.8057 31.7185Z" fill="#FBBFAF"/>
<path d="M81.5262 35.7306C81.6894 35.0266 82.0725 34.3933 82.6196 33.9228C82.7988 33.7652 82.9893 33.621 83.1895 33.4913C83.0169 32.911 82.8886 32.3183 82.8057 31.7185L82.701 31.8468C82.3463 32.2318 81.957 32.5832 81.5379 32.8965C81.2703 33.0714 80.8516 33.188 80.619 33.3747C80.5307 33.4473 80.4375 33.5136 80.3398 33.5729C80.5684 34.7265 80.7045 35.8965 80.7469 37.0718C81.0671 37.048 81.3856 37.0051 81.7007 36.9435C81.4996 36.5732 81.4377 36.1428 81.5262 35.7306Z" fill="#F39F90"/>
<path d="M81.4887 74.4637C81.4887 74.4637 81.4189 76.7963 81.0467 77.1695C80.6745 77.5427 75.9405 77.6477 75.5334 77.1695C75.1263 76.6913 75.359 76.0032 76.3825 75.7233C77.4061 75.4434 77.9993 75.7233 78.7088 75.4317C79.4183 75.1401 79.2089 74.0671 79.2089 74.0671L81.4887 74.4637Z" fill="#222222"/>
<path d="M93.2358 74.3471C93.2358 74.3471 93.5963 76.6797 93.2358 77.0063C92.8752 77.3329 88.0482 77.7294 87.6295 77.3095C87.2107 76.8897 87.4201 76.1432 88.4204 75.8283C89.4207 75.5134 90.0139 75.7 90.7467 75.4435C91.4794 75.1869 90.9328 74.1372 90.9328 74.1372L93.2358 74.3471Z" fill="#222222"/>
<path d="M89.7354 60.993C89.8178 56.5476 89.4868 52.1042 88.7467 47.7204C87.9487 47.7136 87.1574 47.8683 86.4204 48.1753C84.9781 48.8401 83.5242 49.4699 82.0703 50.0997C83.6952 54.0395 85.0552 58.0839 86.1413 62.2059C86.5251 64.2936 90.8636 74.8953 90.8636 74.8953L93.4923 74.5688C93.3992 72.8543 89.7237 61.5178 89.7354 60.993Z" fill="#D0D1DE"/>
<path d="M84.3497 49.12C83.5915 49.4793 82.815 49.7985 82.0234 50.0763C83.4749 53.6023 84.7254 57.2081 85.7687 60.8763C86.1293 59.7683 87.9089 57.0742 88.5951 54.1234C89.0522 52.154 89.1272 50.1148 88.8161 48.1169C87.275 48.145 85.7556 48.4863 84.3497 49.12Z" fill="#ABADC4"/>
<path d="M86.3172 48.7583C85.2936 49.1082 83.4326 49.5981 82.0252 50.0996C81.0482 52.5838 78.1636 58.427 78.0124 61.0745C77.8379 63.9903 78.8499 75.0701 78.8499 75.0701H81.8507C81.8507 75.0701 82.1299 62.614 82.5486 61.8093C83.9328 59.1734 85.4681 57.0741 86.3404 55.4296C87.3676 53.6093 88.1128 51.643 88.5504 49.5981C88.6667 49.0266 89.1552 47.1139 88.2014 46.519C87.3989 46.7406 87.1663 48.4668 86.3172 48.7583Z" fill="#D0D1DE"/>
<path d="M80.9652 50.706C82.5605 51.3105 84.2636 51.5766 85.9667 51.4874C87.2956 51.5026 88.6123 51.2322 89.8283 50.6943C89.8283 50.6943 88.6652 41.7138 87.3624 38.8797C87.0521 38.1021 86.5805 37.3995 85.9789 36.8184C85.3774 36.2373 84.6596 35.791 83.8731 35.509C82.9183 36.0593 81.8536 36.3899 80.7559 36.4771C80.7559 36.4771 80.7559 42.0054 80.8954 44.2097C81.035 46.414 80.9652 50.706 80.9652 50.706Z" fill="#B2D550"/>
<path d="M80.8145 43.405C80.8145 43.16 80.8145 42.9034 80.8145 42.6235V42.5302C80.8145 42.2736 80.8145 42.0054 80.8145 41.7255V41.5855C80.8145 41.2823 80.8145 40.9674 80.8145 40.6641H81.1634C82.0222 40.4144 82.8325 40.02 83.5594 39.4978C83.6877 39.4248 83.8197 39.3586 83.9549 39.2996C83.9496 40.4915 83.7451 41.6742 83.3501 42.7985C82.6186 45.532 82.472 48.3898 82.9197 51.1842C82.2666 51.0523 81.6249 50.869 81.0005 50.636C81.0005 50.636 81.0005 46.344 80.9075 44.1397C80.9075 43.9415 80.9075 43.7082 80.9075 43.4749L80.8145 43.405Z" fill="#95B639"/>
<path d="M84.0482 29.491C84.0482 29.491 83.0246 27.3567 81.7219 27.4383C80.4192 27.52 79.4887 27.7532 79.3026 28.2781C79.1049 29.1376 78.8284 29.977 78.4768 30.7856C78.1278 31.3221 77.3718 32.0219 77.3951 32.2668C77.4183 32.5117 78.186 32.5934 78.2325 32.6867C78.279 32.78 78.6861 34.5528 78.9769 34.7277C80.2216 34.5715 81.3794 34.0054 82.2686 33.1182C82.6292 32.3601 84.1645 30.8672 84.0482 29.491Z" fill="#FBBFAF"/>
<path d="M81.2808 29.6893C81.1424 29.7181 81.0063 29.757 80.8737 29.8059L80.2688 29.8876C79.8874 29.9863 79.4872 29.9863 79.1057 29.8876C78.5125 29.701 78.7102 29.1178 78.4311 28.7213C78.3031 28.523 78.024 28.523 77.8844 28.3014C77.7532 28.0671 77.6926 27.7997 77.7099 27.5316C77.7099 26.9135 78.3148 26.8552 78.7917 26.7385C79.2685 26.6219 79.3849 26.2837 79.6524 25.8638C80.3037 24.8258 81.2342 26.272 81.9786 26.1787C82.3508 26.1787 82.7463 25.8988 83.1418 26.0971C83.4276 26.3078 83.6688 26.5734 83.8513 26.8785C84.0723 27.1584 84.2933 27.0418 84.6073 27.1701C84.8638 27.284 85.0906 27.4556 85.2703 27.6716C85.4686 27.8923 85.6162 28.1539 85.7026 28.4381C85.789 28.7222 85.8122 29.022 85.7704 29.3161C85.6774 29.7943 85.2936 30.0508 85.2703 30.5523C85.3027 30.9809 85.2392 31.4113 85.0842 31.812C84.7934 32.3485 84.1653 32.4184 83.7466 32.78C83.548 32.9702 83.308 33.1113 83.0455 33.1923C82.783 33.2733 82.5054 33.2918 82.2345 33.2465C82.1764 32.8733 82.2345 32.2435 82.5369 32.0802C82.7178 32.0258 82.8872 31.9388 83.0371 31.8236C83.1268 31.7338 83.1848 31.6171 83.2022 31.4912C83.2196 31.3653 83.1956 31.2371 83.1337 31.1262C83.0718 31.0153 82.9755 30.9277 82.8593 30.8767C82.7432 30.8258 82.6137 30.8143 82.4904 30.8439C82.0601 30.9022 81.8623 32.0685 81.3971 31.8819C80.9318 31.6953 81.4669 31.1472 81.5715 30.9372C81.6762 30.7273 81.7693 30.0042 81.5715 29.7709C81.536 29.7308 81.4897 29.7018 81.4381 29.6873C81.3866 29.6728 81.3319 29.6735 81.2808 29.6893Z" fill="#222222"/>
<path d="M69.9029 50.7525C69.7867 50.7453 69.6702 50.7453 69.554 50.7525C69.2908 50.8009 69.0191 50.7684 68.7747 50.6591C68.3726 50.4606 67.9318 50.3531 67.4836 50.3442C67.2626 50.3442 65.9599 50.6941 66.3205 51.2306C66.3205 51.3006 66.5182 51.4173 66.5648 51.3939L67.0765 51.2073C66.9564 51.2486 66.8398 51.2993 66.7276 51.3589C66.6612 51.3949 66.5988 51.4379 66.5415 51.4872C66.4717 51.6039 66.5415 51.8371 66.6927 51.8838C66.8439 51.9304 66.9021 51.8021 66.9951 51.7555C66.9021 51.8255 66.7043 51.8838 66.8323 52.152C66.9602 52.4203 67.0649 52.2686 67.1929 52.2337H67.3324C67.3324 52.2337 67.0998 52.3503 67.0649 52.3853C67.03 52.4203 67.2161 52.8635 67.4487 52.8285C67.6814 52.7935 67.9489 52.5952 68.0419 52.6185C68.1388 52.6243 68.2359 52.6243 68.3327 52.6185C68.6375 52.6372 68.9419 52.577 69.2167 52.4436C69.3446 52.4436 69.5889 52.292 69.7052 52.222C69.9603 52.0757 70.2052 51.912 70.438 51.7322C70.1821 51.289 69.8681 51.184 69.9029 50.7525Z" fill="#FBBFAF"/>
<path d="M70.3592 52.3973L69.3008 50.298C71.8098 48.7185 74.197 46.9524 76.4424 45.0146C78.3616 43.0785 80.4203 39.1831 81.8742 38.9032C83.3281 38.6233 84.8053 39.4513 83.9562 41.4924C83.1071 43.5334 78.8385 46.1576 77.9661 47.1139C75.5305 49.0156 72.9909 50.7795 70.3592 52.3973Z" fill="#B2D550"/>
<path d="M84.8727 2.85248C83.9306 2.44428 80.953 0.8931 78.5685 6.56134C76.2423 11.9497 73.916 19.2624 73.916 19.2624C73.916 19.2624 79.8364 14.3639 84.0353 10.2935C88.397 6.00151 85.7334 3.41231 84.8727 2.85248Z" fill="#FA8825"/>
<path d="M79.8039 7.17944L74.1046 13.011C72.3865 14.7852 70.8295 16.7094 69.4521 18.7608L46.1895 53.5167L72.5576 24.8956C75.5398 21.6862 77.9867 18.0158 79.8039 14.0256L82.0255 9.11551C81.1547 8.63796 80.3969 7.97756 79.8039 7.17944Z" fill="#222222"/>
<path d="M72.9181 19.7058C72.9181 19.7058 69.0914 9.03409 72.6738 2.03627C76.2563 -4.96156 80.967 8.32265 80.967 8.32265L72.9181 19.7058Z" fill="#FA8825"/>
<path d="M72.8945 19.6473C72.8945 19.6473 84.2467 19.6473 89.5389 13.8975C94.8312 8.14759 80.8504 8.21757 80.8504 8.21757L72.8945 19.6473Z" fill="#FA8825"/>
<path d="M64.4133 33.8761C64.3203 33.8761 64.2272 34.0744 64.1458 34.0511V33.7945C64.1458 33.5612 63.2386 33.5029 62.9827 33.398C62.4011 33.0947 62.6337 32.7215 62.9013 32.8032C63.1688 32.8848 63.4944 32.9898 63.6573 33.0597C63.8565 33.1003 64.0589 33.1237 64.2621 33.1297C64.5334 33.2749 64.7871 33.451 65.0181 33.6545C65.3903 33.8528 64.6808 34.0161 64.4133 33.8761Z" fill="#FBBFAF"/>
<path d="M23.3687 67.664C20.4607 68.4514 17.7074 69.7293 15.2268 71.4428C11.7374 74.0553 8.07355 82.1378 7.35241 87.7711C6.63127 93.4043 5.20062 97.8829 7.35241 100.787C9.5042 103.691 16.4597 104.286 22.4731 104.869C28.4865 105.452 36.7215 104.018 38.3731 101.93C40.0248 99.8423 39.9085 84.0389 36.7796 78.0791C33.6508 72.1193 27.9166 67.524 23.3687 67.664Z" fill="#B2D550"/>
<path d="M31.3474 101.662C30.0911 101.328 28.9078 100.762 27.858 99.9939C27.0597 99.2096 26.105 98.6036 25.0566 98.2156C24.0082 97.8277 22.8897 97.6666 21.7748 97.7429C19.3555 97.7429 17.006 97.7429 14.924 96.3783C13.9913 95.6819 13.2693 94.74 12.8381 93.6571C12.4069 92.5742 12.2834 91.3926 12.4814 90.2436C12.7379 88.7525 13.3394 87.3424 14.2377 86.1265C14.8768 85.4042 15.3195 84.5289 15.5232 83.5852C15.727 82.6414 15.6848 81.6609 15.4008 80.7382C14.7619 78.1985 14.8061 75.5343 15.5288 73.0173C16.0015 71.6778 16.8697 70.5143 18.0179 69.6816C17.022 70.1814 16.0689 70.7627 15.1682 71.4194C11.6788 74.032 8.01496 82.1144 7.29381 87.7477C6.57267 93.3809 5.14202 97.8595 7.29381 100.764C9.44561 103.668 16.4011 104.263 22.4145 104.846C28.4279 105.429 36.6629 103.994 38.3145 101.907C38.7578 101.107 39.0162 100.219 39.0706 99.3058C36.9653 101.44 34.2785 102.641 31.3474 101.662Z" fill="#95B639"/>
<path d="M22.7167 68.8307C22.7167 68.8307 17.6919 67.606 16.9941 63.8505C16.2962 60.095 18.3084 58.7188 19.8437 59.5935C21.3791 60.4683 21.6233 60.0017 22.705 59.3369C23.7867 58.6722 25.3337 59.7451 26.113 60.8648C26.8923 61.9845 27.0435 60.6665 28.9045 60.5266C30.7655 60.3866 31.382 62.0894 30.4166 64.3404C29.4512 66.5914 28.5207 68.9356 22.7167 68.8307Z" fill="#B2D550"/>
<path d="M28.1594 66.6844C26.8567 67.0226 27.6244 65.3315 27.415 64.7483C27.0777 64.7483 26.9497 65.3315 26.8334 65.5764C26.7112 65.8413 26.5159 66.0655 26.2707 66.2226C26.0254 66.3797 25.7403 66.463 25.4493 66.4628C24.6467 66.4628 24.5304 65.5647 24.1815 65.0166C24.0419 64.7833 23.9721 64.795 23.8791 65.0749C23.786 65.3548 23.8791 65.728 23.5883 65.9613C23.0765 66.4045 22.2042 65.903 21.8087 65.5531C21.4132 65.2032 21.1806 64.5384 20.7154 64.1652C20.6332 64.2562 20.5804 64.37 20.5642 64.4917C20.4478 65.0516 20.4827 66.0896 19.5871 65.903C18.6915 65.7163 18.3309 64.4917 18.0867 63.8619C17.7721 63.1217 17.5871 62.3326 17.54 61.5293C17.5397 61.1899 17.563 60.8508 17.6098 60.5146C17.6359 60.2506 17.6985 59.9916 17.7959 59.7449C17.0748 60.3863 16.6328 61.7276 17.0166 63.8269C17.5982 67.0693 21.3202 68.4922 22.4135 68.7837C22.6071 68.8374 22.8061 68.8688 23.0067 68.877C27.5895 68.877 29.0085 67.2909 29.9041 65.4831C29.3758 65.9562 28.7895 66.3599 28.1594 66.6844Z" fill="#95B639"/>
<path d="M24.8349 80.1787C27.3007 80.4236 29.4874 81.5432 29.4874 84.0158L25.3816 83.9342C25.3816 83.0011 24.4162 82.7679 23.823 82.7679C23.4391 82.7679 22.2178 82.7679 22.2062 83.491C22.2062 85.1821 29.7898 83.5609 29.6968 88.3544C29.6968 91.2236 27.3705 92.2616 24.6255 92.4132L24.7535 95.4689H22.2411L22.4505 92.3899C19.8916 92.0866 17.542 90.8387 17.5886 88.2495L21.6944 88.3195V88.3428C21.6944 89.5091 22.9622 89.7307 23.602 89.7424C24.2417 89.754 25.4513 89.7424 25.463 88.9026C25.463 87.1415 17.891 88.611 17.9724 83.9692C17.9724 81.2983 20.1009 80.307 22.6249 80.132L22.5319 77.053H25.0442L24.8349 80.1787Z" fill="white"/>
<path d="M19.0552 67.0227L18.6016 69.4253C18.6016 69.4253 19.881 70.6616 23.382 70.6616C25.2551 70.7405 27.115 70.3135 28.7673 69.4253L28.5347 67.256C25.4028 67.9503 22.1494 67.8703 19.0552 67.0227Z" fill="#222222"/>
</svg>
