<svg width="105" height="105" viewBox="0 0 105 105" fill="none" xmlns="http://www.w3.org/2000/svg">
<path d="M89.4285 64.9248H15.5781V75.6541H89.4285V64.9248Z" fill="#222222"/>
<path d="M91.9145 13.9998H13.1013C10.6 13.9998 8.57227 16.0056 8.57227 18.4799V67.7825C8.57227 70.2568 10.6 72.2627 13.1013 72.2627H91.9145C94.4158 72.2627 96.4435 70.2568 96.4435 67.7825V18.4799C96.4435 16.0056 94.4158 13.9998 91.9145 13.9998Z" fill="#222222"/>
<path d="M92.3895 17.8518H12.6133V67.7929H92.3895V17.8518Z" fill="#FEFEFE"/>
<path d="M0 87.8179V89.409C0 90.2882 0.973525 91 2.16927 91H102.834C104.03 91 104.95 90.2882 104.95 89.409V87.8179H0Z" fill="#222222"/>
<path d="M52.4956 75.5288H9.4065C9.25836 75.6754 2.48601 81.6838 0.411973 86.1325C-0.466317 88.0377 0.105101 89.0425 1.75586 89.0425H103.246C104.897 89.0425 105.468 87.9958 104.59 86.1325C102.473 81.6838 95.7434 75.6649 95.5953 75.5288H52.4956Z" fill="#222222"/>
<path d="M99.5417 86.7708H7.71289L14.0831 77.4441H93.1821L99.5417 86.7708Z" fill="#9C9EB9"/>
<path d="M98.432 85.1273L98.231 84.8342H92.1041L90.9613 82.5732H96.686L96.485 82.2801H90.8343L89.6915 80.0191H94.9824L94.7919 79.7365H89.5645L88.411 77.4441H87.882L89.0248 79.7365H82.4641L81.5435 77.4441H81.0144L81.9138 79.7365H75.3531L74.6653 77.4441H74.1362L74.8029 79.7365H68.2422L67.7977 77.4441H67.2686L67.7025 79.7365H61.0994L60.8772 77.4441H60.3481L60.5492 79.7365H54.3271V77.4441H53.7345V79.7365H47.2902L47.4489 77.4441H46.9198L46.7082 79.7365H40.1475L40.5813 77.4441H40.0417L39.5866 79.7365H33.0259L33.6926 77.4441H33.1635L32.4757 79.7365H25.9679L26.8673 77.4441H26.3382L25.4176 79.7365H18.8781L20.0103 77.4441H19.4812L18.3278 79.7365H12.529L12.3385 80.0191H18.1691L17.0263 82.2801H10.783L10.5819 82.5732H16.8675L15.7035 84.8342H9.03699L8.83594 85.1273H15.5871L14.7617 86.7603H15.3649L16.1797 85.1273H23.2483L22.5923 86.7603H23.1954L23.8409 85.1273H30.9096L30.4228 86.7603H31.026L31.5021 85.1273H38.5708L38.2428 86.7603H38.8459L39.1634 85.1273H46.232L46.0733 86.7603H46.6764L46.8246 85.1273H53.7345V86.7603H54.3271V85.1273H61.0148L61.1523 86.7603H61.7555L61.6074 85.1273H68.676L68.9829 86.7603H69.586L69.2686 85.1273H76.3372L76.8134 86.7603H77.4166L76.9298 85.1273H83.9984L84.6439 86.7603H85.2471L84.591 85.1273H91.6597L92.4745 86.7603H93.0776L92.2523 85.1273H98.432ZM25.8515 80.0191H32.4333L31.7561 82.2801H24.952L25.8515 80.0191ZM18.7088 80.0191H25.3012L24.3912 82.2801H17.5871L18.7088 80.0191ZM23.3647 84.8342H16.3173L17.4389 82.5732H24.2748L23.3647 84.8342ZM30.9942 84.8342H23.9467L24.8462 82.5732H31.6715L30.9942 84.8342ZM38.6237 84.8342H31.5762L32.2323 82.5732H39.0576L38.6237 84.8342ZM39.1316 82.2801H32.3275L32.9836 80.0191H39.5761L39.1316 82.2801ZM46.2638 84.8342H39.2163L39.6396 82.5732H46.4754L46.2638 84.8342ZM46.4966 82.2801H39.6925L40.1263 80.0191H46.7082L46.4966 82.2801ZM53.7345 84.8342H46.8458L47.0362 82.5732H53.7345V84.8342ZM53.7345 82.2801H47.068L47.2584 80.0191H53.7345V82.2801ZM54.3271 80.0191H60.5703L60.7714 82.2801H54.3271V80.0191ZM54.3271 84.8342V82.5732H60.7926L60.983 84.8342H54.3271ZM89.12 80.0191L90.2417 82.2801H83.427L82.517 80.0191H89.12ZM81.9879 80.0191L82.8768 82.2801H76.0727L75.3954 80.0191H81.9879ZM61.1206 80.0191H67.7131L68.1363 82.2801H61.3322L61.1206 80.0191ZM61.5756 84.8342L61.364 82.5732H68.1892L68.6125 84.8342H61.5756ZM68.2633 80.0191H74.8452L75.5118 82.2801H68.7077L68.2633 80.0191ZM69.2051 84.8342L68.7607 82.5732H75.5965L76.2526 84.8342H69.2051ZM76.8346 84.8342L76.1573 82.5732H82.9932L83.882 84.8342H76.8346ZM84.4746 84.8342L83.5646 82.5732H90.3899L91.5115 84.8342H84.4746Z" fill="#D0D1DE"/>
<path d="M52.4982 89.0425H48.0432C48.0378 89.2652 48.1171 89.4819 48.2654 89.6496C48.3572 89.7339 48.4789 89.779 48.6041 89.7752H56.4028C56.528 89.779 56.6497 89.7339 56.7415 89.6496C56.8898 89.4819 56.9691 89.2652 56.9637 89.0425H52.4982Z" fill="#222222"/>
<path d="M83.9664 63.25H20.9941V25.2629H83.9241L83.9664 63.25ZM22.211 62.0881H82.7918V26.4248H22.211V62.0881Z" fill="#D0D1DE"/>
<path d="M74.8146 34.8198H68.9629V59.5968H74.8146V34.8198Z" fill="#B2D550"/>
<path d="M63.967 48.2083H58.1152V59.6075H63.967V48.2083Z" fill="#D0D1DE"/>
<path d="M53.1213 45.4553H47.2695V59.6076H53.1213V45.4553Z" fill="#FA8825"/>
<path d="M42.2853 37.437H36.4336V59.597H42.2853V37.437Z" fill="#D0D1DE"/>
<path d="M31.4396 42.3044H25.5879V59.6075H31.4396V42.3044Z" fill="#D0D1DE"/>
<path d="M61.1749 43.7909L50.0534 41.6032L39.3446 31.4809L28.7099 40.7762L28.3184 40.347L39.3658 30.6959L50.3391 41.0693L60.9103 43.1419L71.6508 28.1941L72.127 28.5291L61.1749 43.7909Z" fill="#222222"/>
<path d="M29.831 40.5353C29.831 40.7941 29.7534 41.047 29.6081 41.2622C29.4627 41.4774 29.2562 41.6451 29.0145 41.7441C28.7728 41.8432 28.5068 41.8691 28.2502 41.8186C27.9936 41.7681 27.758 41.6435 27.573 41.4605C27.388 41.2775 27.262 41.0443 27.211 40.7905C27.1599 40.5367 27.1861 40.2736 27.2862 40.0345C27.3863 39.7954 27.5559 39.5911 27.7734 39.4473C27.9909 39.3035 28.2467 39.2268 28.5083 39.2268C28.8591 39.2268 29.1955 39.3647 29.4436 39.61C29.6916 39.8554 29.831 40.1882 29.831 40.5353Z" fill="#B2D550"/>
<path d="M39.2798 32.3916C40.0103 32.3916 40.6025 31.8058 40.6025 31.0831C40.6025 30.3605 40.0103 29.7747 39.2798 29.7747C38.5492 29.7747 37.957 30.3605 37.957 31.0831C37.957 31.8058 38.5492 32.3916 39.2798 32.3916Z" fill="#B2D550"/>
<path d="M51.5224 41.3204C51.5224 41.5792 51.4448 41.8322 51.2995 42.0474C51.1541 42.2625 50.9476 42.4302 50.7059 42.5293C50.4642 42.6283 50.1982 42.6542 49.9416 42.6037C49.685 42.5532 49.4494 42.4286 49.2644 42.2456C49.0794 42.0626 48.9534 41.8295 48.9024 41.5757C48.8513 41.3219 48.8775 41.0588 48.9776 40.8197C49.0778 40.5806 49.2473 40.3763 49.4648 40.2325C49.6823 40.0887 49.9381 40.012 50.1997 40.012C50.5505 40.012 50.8869 40.1498 51.135 40.3952C51.383 40.6406 51.5224 40.9734 51.5224 41.3204Z" fill="#B2D550"/>
<path d="M62.3681 43.1732C62.3681 43.432 62.2905 43.685 62.1452 43.9001C61.9998 44.1153 61.7933 44.283 61.5516 44.3821C61.3099 44.4811 61.0439 44.507 60.7873 44.4565C60.5308 44.406 60.2951 44.2814 60.1101 44.0984C59.9251 43.9154 59.7991 43.6823 59.7481 43.4285C59.697 43.1747 59.7232 42.9116 59.8233 42.6725C59.9235 42.4334 60.093 42.229 60.3105 42.0853C60.528 41.9415 60.7838 41.8647 61.0454 41.8647C61.3962 41.8647 61.7326 42.0026 61.9807 42.248C62.2288 42.4934 62.3681 42.8262 62.3681 43.1732Z" fill="#B2D550"/>
<path d="M73.206 28.6127C73.206 28.8714 73.1284 29.1244 72.9831 29.3396C72.8377 29.5548 72.6311 29.7225 72.3895 29.8215C72.1478 29.9205 71.8818 29.9465 71.6252 29.896C71.3686 29.8455 71.1329 29.7209 70.948 29.5379C70.763 29.3549 70.637 29.1217 70.586 28.8679C70.5349 28.6141 70.5611 28.351 70.6612 28.1119C70.7613 27.8728 70.9309 27.6685 71.1484 27.5247C71.3659 27.3809 71.6217 27.3042 71.8833 27.3042C72.2341 27.3042 72.5705 27.4421 72.8186 27.6874C73.0666 27.9328 73.206 28.2656 73.206 28.6127Z" fill="#B2D550"/>
<path d="M39.0994 38.3162C39.5228 38.224 39.9137 38.0217 40.2316 37.73C40.3552 37.5745 40.5101 37.4461 40.6866 37.3532C40.8871 37.2444 41.0752 37.1146 41.2475 36.9658C41.406 36.8047 41.608 36.6921 41.8295 36.6413C42.1152 36.6413 41.967 36.9344 41.8295 37.1438C41.6919 37.3531 40.9194 37.6672 40.9512 37.9393C40.9829 38.2115 41.9035 37.7928 42.0834 37.6986C42.5173 37.4997 42.5384 37.1438 42.7924 36.7984C43.0464 36.4529 43.0675 36.5471 43.1628 36.7984C43.1751 36.9014 43.1654 37.0059 43.1344 37.1051C43.1035 37.2042 43.0518 37.2959 42.9829 37.3741C42.7725 37.7378 42.4697 38.0409 42.1046 38.2534C42.453 38.0697 42.7621 37.8209 43.0146 37.5206C43.1522 37.3427 43.6389 36.4739 43.9247 36.7146C44.5172 37.1124 42.8665 38.5883 42.5173 38.693C42.8774 38.526 43.2037 38.2955 43.4802 38.0126C43.6601 37.8556 44.0516 37.4683 44.1257 37.887C44.2209 38.4941 43.0675 38.9338 42.5279 39.2164C42.9008 39.1181 43.2573 38.9664 43.586 38.7663C44.0305 38.5465 44.0411 38.9442 43.586 39.2583C43.3742 39.3921 43.1552 39.5144 42.93 39.6246C42.1763 40.0046 41.3153 40.1226 40.4856 39.9596C40.1364 39.9596 39.4274 40.2213 39.2581 39.9596C38.8771 39.6037 39.0888 38.8082 39.0994 38.3162Z" fill="#FBBFAF"/>
<path d="M39.3527 38.1908L40.0405 40.5355C40.0405 40.5355 31.7338 42.6291 29.7232 42.964C27.7127 43.299 23.2577 38.2536 23.2577 38.2536C23.2577 38.2536 21.7551 34.6213 22.8768 34.6737C23.7551 34.6737 30.1148 39.5097 30.464 39.6877C30.8132 39.8656 39.3527 38.1908 39.3527 38.1908Z" fill="#B2D550"/>
<path d="M17.6074 79.6528C17.5682 80.4259 17.6359 81.2007 17.8085 81.9557C18.0836 82.6989 19.9989 83.8294 19.9989 83.8294C19.9989 83.8294 18.2635 84.1539 17.5968 83.6514C16.651 82.638 15.93 81.4399 15.4805 80.1343C15.5757 79.7784 16.0625 78.7107 16.0625 78.7107L17.6074 79.6528Z" fill="#FBBFAF"/>
<path d="M27.9367 78.6899C27.8973 79.4635 27.9685 80.2388 28.1483 80.9928C28.4129 81.736 30.3282 82.8665 30.3282 82.8665C30.3282 82.8665 28.5927 83.191 27.9367 82.6885C26.9921 81.6742 26.2713 80.4764 25.8203 79.1714C25.9261 78.8155 26.4023 77.7478 26.4023 77.7478L27.9367 78.6899Z" fill="#FBBFAF"/>
<path d="M15.8518 79.6528C15.8518 79.6528 14.4021 80.1343 14.7937 81.3905C15.0212 82.3329 15.1243 83.3004 15.1005 84.2691H15.5238C15.5238 84.2691 15.6085 82.4686 15.8836 82.5314C16.1587 82.5942 16.7619 84.2691 17.365 84.2691H20.7935C20.7935 84.2691 21.1639 83.9132 20.7935 83.6933C20.4232 83.4735 18.1058 83.5782 17.8412 83.0653C17.5767 82.5524 15.8518 79.6528 15.8518 79.6528Z" fill="#222222"/>
<path d="M26.2854 78.6479C26.2854 78.6479 24.8357 79.1295 25.2273 80.3856C25.4547 81.328 25.5579 82.2956 25.5341 83.2642H25.9574C25.9574 83.2642 26.0421 81.4637 26.3172 81.5266C26.5923 81.5894 27.1955 83.2642 27.8092 83.2642H31.2271C31.2271 83.2642 31.5975 82.9083 31.2271 82.6989C30.8568 82.4896 28.5394 82.5733 28.2854 82.0709C28.0314 81.5684 26.2854 78.6479 26.2854 78.6479Z" fill="#222222"/>
<path d="M25.2998 47.3496C25.2998 47.3496 21.2258 48.7627 18.2735 47.3496C17.0273 48.5464 16.2733 50.1573 16.1571 51.8716C16.0804 53.0066 16.1194 54.1464 16.2735 55.2736C16.7247 58.196 16.8877 61.1548 16.7603 64.1083C16.3053 68.107 15.0566 79.6946 15.0566 79.6946L17.8608 80.1343C17.8608 80.1343 20.4428 66.139 20.7496 64.4328C21.0565 62.7266 22.0406 55.6923 22.0406 55.6923C22.0406 55.6923 23.7866 61.1146 24.2416 63.7419C24.3051 64.1502 25.5538 79.0038 25.5538 79.0038H28.2839C28.2839 79.0038 28.0723 62.5172 28.0723 63.3337C28.0723 63.6896 27.3421 52.2066 25.2998 47.3496Z" fill="#FA8825"/>
<path d="M23.882 57.8486C23.4418 56.2484 22.6787 54.7529 21.6387 53.4521C21.7762 54.2058 21.8926 54.949 21.9773 55.7132C21.9773 55.7132 23.4693 60.3608 24.0936 63.1347C23.9984 60.0991 24.337 59.1989 23.882 57.8486Z" fill="#E98025"/>
<path d="M22.4238 30.8734C22.1381 30.8106 20.7837 27.9948 20.2122 27.4504C19.9265 29.3765 18.752 33.9404 18.752 33.9404C20.1805 35.4477 22.9847 34.5266 22.9847 34.5266C22.5587 33.3567 22.3682 32.1156 22.4238 30.8734Z" fill="#F39F90"/>
<path d="M21.8521 24.1639C21.8521 24.1639 24.6245 24.7815 25.1536 25.577C25.6827 26.3726 25.6827 28.4556 25.979 29C26.1589 29.3349 26.3176 29.6071 26.4022 29.806C26.4869 30.0048 26.2858 30.0781 26.0425 30.1619C25.9813 30.1808 25.9259 30.2147 25.8815 30.2605C25.8372 30.3062 25.8051 30.3623 25.7885 30.4236C25.6192 30.926 25.1642 32.2135 24.7303 32.3915C23.864 32.557 22.9664 32.4174 22.1932 31.9967C21.4201 31.5761 20.8202 30.901 20.4976 30.0886C19.6087 27.6601 20.0743 23.6405 21.8521 24.1639Z" fill="#FBBFAF"/>
<path d="M19.1739 32.9883C20.4161 33.5322 21.6879 34.0075 22.9834 34.4119C22.9834 34.4119 25.2161 38.7769 25.3749 40.0016C25.5336 41.2263 26.6764 49.5272 26.6764 49.5272C26.6764 49.5272 22.2426 52.3116 15.8301 50.1029C15.8301 50.1029 17.3644 43.5606 17.0152 40.9751C16.666 38.3896 16.9623 34.9039 19.1739 32.9883Z" fill="#B2D550"/>
<path d="M18.4011 50.7518C18.3271 47.9779 18.9726 45.4447 19.0255 42.6603C19.032 41.7513 18.8558 40.8501 18.507 40.0091C18.1582 39.168 17.6438 38.404 16.9938 37.7615C16.8609 38.8286 16.8609 39.9079 16.9938 40.975C17.343 43.5606 15.8086 50.1028 15.8086 50.1028C16.652 50.3935 17.5195 50.6107 18.4011 50.7518Z" fill="#95B639"/>
<path d="M15.8315 40.682C17.387 39.3945 16.7521 38.1069 18.3182 36.8927L18.6674 36.631C18.7415 35.9611 17.1119 36.3065 17.6092 35.5842C18.2441 34.6422 20.8896 33.2081 20.7838 32.2869C20.7255 31.997 20.7475 31.6968 20.8472 31.4181C20.9848 30.7063 21.2811 30.5702 20.7203 30.0573C20.3287 29.691 19.9901 29.2932 20.3076 28.7384C20.625 28.1836 20.9742 28.1627 21.3658 28.5814C21.461 28.6965 21.9266 29.6282 22.043 29.0943C22.043 28.9582 21.8843 28.6756 21.8631 28.5081C21.8528 28.4107 21.8645 28.3123 21.8975 28.2199C21.9304 28.1276 21.9837 28.0437 22.0536 27.9743C22.3287 27.6812 22.7414 27.5242 23.0377 27.2206C23.334 26.917 23.4398 26.3727 23.9583 26.1738C24.2305 26.0901 24.522 26.0901 24.7943 26.1738C24.9212 26.1738 25.4503 26.5507 25.535 26.5193C26.4239 26.1738 26.0217 24.8026 25.408 24.4257C24.2979 23.6288 22.9697 23.1836 21.5986 23.1487C20.7856 23.2553 20.0048 23.5316 19.3079 23.9593C18.611 24.387 18.014 24.9563 17.5563 25.6295C16.8791 26.4983 16.9214 27.4299 16.4241 28.3616C15.9267 29.2932 15.0061 29.6491 14.4241 30.4551C14.1835 30.8251 14.0292 31.2435 13.9724 31.6799C13.9157 32.1162 13.9579 32.5596 14.0961 32.9778C14.3079 33.6042 14.3907 34.2662 14.3394 34.9248C14.2019 35.7727 13.5141 36.4007 13.2813 37.2172C13.0208 37.974 13.0208 38.7947 13.2813 39.5515C13.5881 40.9332 14.5193 41.3519 15.8315 40.682Z" fill="#222222"/>
<path d="M13.4184 54.5202C13.4108 54.928 13.517 55.33 13.7253 55.6821C13.8449 55.8299 13.9315 56.0012 13.9793 56.1845C14.042 56.3903 14.1235 56.59 14.2227 56.7812C14.3423 56.9652 14.4049 57.1799 14.4025 57.3988C14.4025 57.6605 14.0957 57.3988 13.9264 57.2836C13.7571 57.1685 13.6407 56.3311 13.3655 56.2997C13.0904 56.2683 13.302 57.2104 13.3655 57.3464C13.4714 57.7756 13.7888 57.8803 14.0639 58.1943C14.3391 58.5083 14.2332 58.4979 13.9581 58.5293C13.683 58.5607 13.5877 58.3618 13.4502 58.2362C13.1488 57.9488 12.9298 57.5877 12.8153 57.1894C12.8997 57.5708 13.0697 57.9285 13.3126 58.2362C13.4396 58.4037 14.1168 59.0317 13.8629 59.283C13.3655 59.7331 12.3285 57.9431 12.3074 57.5663C12.3917 57.9367 12.5384 58.2906 12.7412 58.613C12.847 58.8119 13.1222 59.262 12.7412 59.2306C12.1592 59.2306 12.0005 57.9954 11.8312 57.472C11.8529 57.828 11.9204 58.1798 12.0322 58.5188C12.1486 58.9794 11.7677 58.8956 11.5666 58.4455C11.488 58.2223 11.4209 57.9952 11.3656 57.7651C11.1742 56.9922 11.2487 56.1782 11.5772 55.4518C11.6936 55.1378 11.5772 54.405 11.81 54.3108C12.2544 54.0282 12.9634 54.3946 13.4184 54.5202Z" fill="#FBBFAF"/>
<path d="M13.7561 54.5414L11.1953 54.6774C11.1953 54.6774 11.1953 47.214 11.8408 44.6704C12.4863 42.1267 17.3645 35.2495 18.465 34.7784C19.7877 34.1609 23.7559 35.8252 20.8459 38.0443C17.9359 40.2635 15.2164 45.5392 15.1106 45.7695C15.0048 45.9998 13.7561 54.5414 13.7561 54.5414Z" fill="#B2D550"/>
</svg>
