<svg width="105" height="105" viewBox="0 0 105 105" fill="none" xmlns="http://www.w3.org/2000/svg">
<path d="M42.3272 73.9036C38.4912 69.5666 27.1705 63.6786 30.1387 56.9212C32.6731 51.1715 44.8123 51.8828 43.3528 44.9476C42.4949 40.8478 41.3806 37.3505 44.0135 32.6876C46.8831 27.6096 55.492 30.3758 58.4701 25.6634C61.034 21.613 57.7009 15.3594 62.9865 12.6525C67.6903 10.2519 73.3606 14.9445 74.2086 19.1036C75.2736 24.3001 70.1261 26.7403 69.4752 31.2649C69.0512 34.1497 71.6743 35.1475 73.1732 37.1925C74.7494 39.2504 75.7256 41.7057 75.9935 44.2857C76.2795 51.4778 68.4201 52.4064 64.6827 56.9805C61.2312 61.2088 67.641 63.8959 66.6549 68.5392C65.6688 73.4788 58.5687 76.2252 53.5986 76.1462C50.1472 76.077 44.6939 76.5907 42.3272 73.9036Z" fill="#B2D550"/>
<path d="M47.3267 76.2449H47.238C47.2016 76.2297 47.1691 76.2066 47.1427 76.1773C47.1163 76.148 47.0968 76.1132 47.0854 76.0754C47.0741 76.0376 47.0713 75.9977 47.0772 75.9587C47.0831 75.9197 47.0976 75.8825 47.1196 75.8497C47.1887 75.741 54.2099 65.1703 54.6142 51.8729C54.8804 42.9816 58.5587 37.3406 61.5762 32.6974C63.4005 29.8818 64.9882 27.4318 65.2249 24.9817C65.2371 24.8813 65.2864 24.7892 65.363 24.7234C65.4397 24.6576 65.5381 24.6228 65.639 24.6261C65.687 24.6271 65.7343 24.6382 65.7778 24.6586C65.8213 24.679 65.86 24.7083 65.8916 24.7445C65.9231 24.7808 65.9468 24.8233 65.961 24.8692C65.9753 24.9151 65.9798 24.9636 65.9743 25.0113C65.7081 27.6392 64.0711 30.1584 62.1974 33.0431C59.2391 37.6172 55.6003 43.1891 55.2946 51.8729C54.8705 65.3185 47.7409 76.0177 47.6719 76.1263C47.6292 76.1739 47.5751 76.2098 47.5147 76.2305C47.4542 76.2513 47.3896 76.2562 47.3267 76.2449Z" fill="white"/>
<path d="M55.2163 51.9124C55.1379 51.9002 55.067 51.8588 55.0177 51.7966C54.9683 51.7343 54.9442 51.6557 54.9501 51.5765C54.9668 51.4858 55.0163 51.4045 55.089 51.348C55.1618 51.2915 55.2527 51.2638 55.3445 51.2702C58.3029 51.4481 62.2967 49.7093 63.4899 46.8048C63.6378 46.4591 63.7857 46.0639 63.9337 45.6588C64.6634 43.683 65.5706 41.2626 67.4837 40.3833C68.5115 39.9665 69.6608 39.9665 70.6886 40.3833C70.7312 40.3969 70.7703 40.4197 70.8031 40.4501C70.836 40.4805 70.8618 40.5177 70.8787 40.5592C70.8956 40.6006 70.9033 40.6453 70.9011 40.69C70.8989 40.7347 70.887 40.7784 70.8661 40.818C70.8237 40.9021 70.7527 40.9682 70.6659 41.0044C70.5791 41.0406 70.4823 41.0446 70.3928 41.0156C69.5527 40.6687 68.6098 40.6687 67.7697 41.0156C66.1525 41.7664 65.2945 44.0485 64.6141 45.8762C64.4563 46.2911 64.3084 46.6863 64.1605 47.0419C62.7898 50.3317 58.4903 52.1396 55.2854 51.9815L55.2163 51.9124Z" fill="white"/>
<path d="M53.1065 51.5469C51.8839 51.327 50.7775 50.6836 49.9805 49.7291C48.876 48.3164 48.7084 46.1726 49.4973 43.525C49.5762 43.2582 49.6748 42.9619 49.7833 42.626C50.4045 40.739 51.3512 37.8543 50.4144 36.244C50.2492 35.9742 50.0297 35.7417 49.77 35.5614C49.5102 35.3811 49.2159 35.257 48.9056 35.1968C48.8604 35.1854 48.8179 35.165 48.7808 35.1367C48.7437 35.1084 48.7126 35.0729 48.6896 35.0323C48.6666 34.9916 48.652 34.9468 48.6467 34.9003C48.6415 34.8539 48.6457 34.8069 48.6591 34.7621C48.6887 34.6705 48.7523 34.5939 48.8367 34.5479C48.9211 34.5019 49.0199 34.4902 49.1127 34.5151C49.5207 34.5954 49.9072 34.761 50.247 35.001C50.5869 35.241 50.8724 35.5501 51.0849 35.9081C52.1598 37.7555 51.154 40.8477 50.4933 42.8236C50.3848 43.1496 50.2862 43.4459 50.2073 43.7028C49.4776 46.1528 49.6057 48.1089 50.582 49.3636C51.4202 50.4404 52.8797 51.0332 54.9111 51.1418C54.956 51.1402 55.0007 51.1482 55.0422 51.1653C55.0838 51.1824 55.1212 51.2082 55.152 51.2409C55.1828 51.2736 55.2063 51.3126 55.2209 51.3551C55.2354 51.3977 55.2408 51.4428 55.2365 51.4876C55.2198 51.5783 55.1704 51.6596 55.0976 51.7161C55.0249 51.7726 54.9339 51.8003 54.8421 51.7939C54.2575 51.7625 53.6767 51.6799 53.1065 51.5469Z" fill="white"/>
<path d="M51.4082 72.0757C51.0042 72.0109 50.616 71.8701 50.2643 71.6608C50.2303 71.6412 50.2011 71.6144 50.1787 71.5822C50.1563 71.55 50.1412 71.5132 50.1347 71.4745C50.1281 71.4359 50.1301 71.3962 50.1406 71.3584C50.151 71.3206 50.1697 71.2855 50.1952 71.2558C50.2529 71.1867 50.3335 71.1408 50.4222 71.1262C50.5109 71.1117 50.6018 71.1297 50.6784 71.1767C52.4535 72.2437 56.0725 70.8507 57.5813 69.764C58.2935 69.1651 58.9118 68.4625 59.4155 67.6795C60.5101 66.1877 61.654 64.6268 63.4488 64.5774C63.4902 64.5701 63.5328 64.5721 63.5734 64.5832C63.614 64.5943 63.6517 64.6143 63.6837 64.6416C63.7157 64.669 63.7413 64.7031 63.7586 64.7415C63.776 64.78 63.7847 64.8217 63.784 64.8639C63.7743 64.9512 63.7327 65.0318 63.6671 65.0902C63.6016 65.1486 63.5167 65.1806 63.429 65.18C62.009 65.18 60.9736 66.6323 59.9875 67.9857C59.4466 68.8256 58.7816 69.5784 58.0152 70.2184C56.6938 71.1866 53.627 72.4808 51.4082 72.0757Z" fill="white"/>
<path d="M48.4995 71.4337C48.0675 71.3525 47.6513 71.2024 47.2668 70.9892C45.0185 69.8037 43.6971 66.7411 43.3223 64.9629C43.2421 63.7594 43.3791 62.5513 43.7266 61.3965C44.2197 59.2428 44.7128 57.0002 43.3322 55.9728C43.296 55.9498 43.2654 55.919 43.2426 55.8825C43.2199 55.8461 43.2057 55.805 43.201 55.7624C43.1962 55.7197 43.2011 55.6765 43.2153 55.6359C43.2295 55.5954 43.2526 55.5586 43.2829 55.5282C43.3536 55.4696 43.4425 55.4375 43.5343 55.4375C43.6262 55.4375 43.7151 55.4696 43.7858 55.5282C45.5017 56.7927 44.9297 59.3317 44.4169 61.5545C44.0881 62.6353 43.9513 63.7655 44.0126 64.8937C44.3282 66.504 45.5805 69.448 47.6218 70.5347C48.383 70.9558 49.2783 71.0621 50.1167 70.8311C50.1979 70.8051 50.2859 70.8111 50.3628 70.8478C50.4397 70.8845 50.4998 70.9492 50.5309 71.0287C50.541 71.0696 50.5425 71.1123 50.5354 71.1538C50.5282 71.1954 50.5126 71.2351 50.4895 71.2703C50.4663 71.3056 50.4361 71.3357 50.4008 71.3587C50.3655 71.3817 50.3259 71.3972 50.2843 71.4041C49.698 71.5387 49.09 71.5488 48.4995 71.4337Z" fill="white"/>
<path d="M69.7902 88.4951C63.2128 86.865 58.0061 85.393 57.868 78.4183C57.7891 74.8025 59.3965 72.3129 63.2029 70.3075C66.2796 68.6873 67.8574 68.134 68.5674 64.9332C69.7015 59.8158 67.2362 54.7675 70.451 49.8279C74.0404 44.3054 82.1365 46.8641 85.8739 41.8159C89.2267 37.3208 91.0708 31.502 98.161 31.581C104.078 31.6502 106.553 37.8938 103.999 42.2308C102.559 44.6611 100.054 46.38 99.0683 48.9882C98.0821 51.5963 99.0979 53.5227 100.084 55.785C102.194 60.8136 102.707 65.9903 96.9579 69.3097C93.5164 71.2855 90.8637 73.0341 92.1062 76.7586C93.4079 80.7103 93.9897 82.8936 89.2465 85.8376C85.7063 88.0406 82.4817 87.8628 78.3991 88.0308C74.5828 88.1888 69.524 89.236 65.895 87.5862L69.7902 88.4951Z" fill="#E5E6ED"/>
<path d="M71.932 84.8696C71.4061 84.3112 71.0236 83.6331 70.8177 82.8937C70.0189 79.93 72.7899 77.0353 75.3242 74.3778C76.4891 73.2724 77.5186 72.0321 78.3911 70.683C79.9393 67.7193 80.3633 65.0519 80.0773 60.8927C79.6829 55.9531 81.0043 53.9773 85.008 50.6875C88.4002 47.9312 91.7432 44.9082 92.6899 41.9049C92.7424 41.7814 92.8402 41.6828 92.9631 41.6295C93.0861 41.5762 93.2248 41.5722 93.3506 41.6184C93.4144 41.628 93.4757 41.6502 93.5308 41.6839C93.5859 41.7176 93.6336 41.762 93.6713 41.8145C93.709 41.867 93.7358 41.9265 93.7502 41.9895C93.7645 42.0526 93.7661 42.1178 93.7549 42.1815C92.7688 45.3725 89.2779 48.5042 85.787 51.3198C81.8918 54.4614 80.6888 56.2594 81.0536 60.9718C81.5121 64.4496 80.8924 67.9846 79.2786 71.0979C78.387 72.503 77.3272 73.7935 76.123 74.9409C73.6873 77.4898 70.9952 80.3054 71.7052 82.9332C72.1207 84.1224 72.9458 85.1242 74.0324 85.7587C74.2395 85.9167 74.3085 86.144 74.1705 86.2922C74.0819 86.3619 73.9725 86.3997 73.8598 86.3997C73.7472 86.3997 73.6378 86.3619 73.5492 86.2922C72.9521 85.8886 72.4086 85.4106 71.932 84.8696Z" fill="white"/>
<path d="M80.2531 65.5654C80.1849 65.4963 80.143 65.4054 80.1348 65.3086C80.1348 65.0912 80.3419 64.9332 80.6081 64.9628C82.9847 65.2196 84.7498 63.3624 86.6432 61.3569C88.3196 59.5885 90.0749 57.7213 92.4909 57.2175C92.6235 57.1888 92.7618 57.203 92.8858 57.258C93.0099 57.313 93.1133 57.4061 93.1812 57.5237C93.2074 57.5763 93.2201 57.6345 93.2184 57.6933C93.2166 57.752 93.2003 57.8093 93.171 57.8602C93.1417 57.9111 93.1003 57.9539 93.0504 57.9848C93.0006 58.0158 92.9439 58.0338 92.8854 58.0375C90.7652 58.482 89.0888 60.2405 87.4913 61.92C85.519 63.9847 83.5468 66.0791 80.6476 65.763C80.4974 65.7443 80.3581 65.6746 80.2531 65.5654Z" fill="white"/>
<path d="M78.3891 71.6313C78.3506 71.5916 78.3205 71.5445 78.3004 71.493C78.1129 70.9796 77.971 70.4506 77.8764 69.9123C77.7771 69.0536 77.435 68.2413 76.8902 67.5709C76.514 67.1451 76.1122 66.7426 75.6872 66.3657C74.7387 65.5846 74.0195 64.5602 73.6064 63.4019C72.9106 60.5325 73.1278 57.5169 74.2277 54.7773C74.5334 53.9376 75.1152 52.3668 74.918 52.0211C74.8901 51.9742 74.8731 51.9217 74.8681 51.8673C74.8632 51.813 74.8704 51.7583 74.8893 51.7071C74.9083 51.6559 74.9383 51.6097 74.9774 51.5717C75.0165 51.5337 75.0636 51.505 75.1152 51.4876C75.2317 51.449 75.3573 51.4483 75.4742 51.4856C75.5911 51.5228 75.6932 51.5961 75.766 51.695C76.1605 52.2977 75.766 53.3943 75.1547 55.1231C74.967 55.5946 74.8057 56.0761 74.6715 56.5655C74.0841 58.7842 74.0367 61.1117 74.5334 63.3525C74.9138 64.3576 75.566 65.2367 76.4169 65.8915C76.8643 66.3133 77.2859 66.762 77.6791 67.235C78.3081 68.0119 78.7078 68.9495 78.8329 69.9419C78.9139 70.4373 79.0427 70.9237 79.2175 71.3942C79.3062 71.6115 79.1682 71.7992 78.9118 71.8289C78.8155 71.8369 78.7186 71.8233 78.6282 71.7891C78.5378 71.7549 78.4562 71.701 78.3891 71.6313Z" fill="white"/>
<path d="M30.2574 87.5565C22.9699 86.2327 16.1558 86.7958 13.2073 78.8035C10.8702 72.4907 16.3136 66.5335 10.8406 62.1867C7.54692 59.5786 2.35006 58.0078 1.20615 53.5424C0.00308159 48.8893 5.94939 45.9354 4.88438 41.47C3.99687 37.7851 -1.11124 37.5183 0.220029 32.7269C0.409728 31.8934 0.77069 31.1085 1.27991 30.4225C1.78914 29.7364 2.43544 29.1642 3.17765 28.7422C3.91985 28.3202 4.74167 28.0578 5.59072 27.9716C6.43976 27.8855 7.29743 27.9775 8.10902 28.2418C12.0535 29.3878 12.4184 33.0332 15.0612 35.5623C16.8263 37.2516 19.3212 35.5623 21.9049 35.2461C24.6364 34.8471 27.4248 35.2129 29.9615 36.3032C37.0419 39.998 31.3717 47.8223 32.6536 54.2043C33.8962 60.3591 42.5149 56.6346 47.0313 61.2679C52.2578 66.6719 48.3133 76.0176 43.1657 80.4336C39.7439 83.3677 35.1781 88.4555 30.2574 87.5565Z" fill="#D0D1DE"/>
<path d="M37.2779 85.9462C37.2421 85.9704 37.2019 85.9872 37.1596 85.9956C37.0462 86.0183 36.9285 85.9987 36.8286 85.9405C36.7287 85.8823 36.6535 85.7894 36.6172 85.6795C36.5679 85.5214 31.8345 69.6554 20.2968 59.2032C13.7983 53.2757 12.2599 47.2494 11.047 42.4975C10.3469 39.7313 9.74531 37.3702 8.36474 36.0958C8.30723 36.0322 8.27539 35.9494 8.27539 35.8636C8.27539 35.7778 8.30723 35.695 8.36474 35.6314C8.38589 35.5955 8.41415 35.5642 8.4478 35.5396C8.48145 35.5149 8.51978 35.4975 8.56041 35.4882C8.60105 35.479 8.64313 35.4781 8.6841 35.4858C8.72507 35.4934 8.76405 35.5094 8.79864 35.5326C10.2877 36.9058 10.9089 39.3361 11.6387 42.1912C12.8417 46.874 14.3702 52.8706 20.78 58.6203C32.5445 69.201 37.3864 85.2942 37.4357 85.4819C37.4673 85.5656 37.4689 85.6577 37.4401 85.7424C37.4113 85.8272 37.3539 85.8992 37.2779 85.9462Z" fill="white"/>
<path d="M20.7621 58.7489C20.6987 58.8065 20.6161 58.8384 20.5304 58.8384C20.4448 58.8384 20.3621 58.8065 20.2987 58.7489C20.2368 58.6725 20.2073 58.5749 20.2165 58.477C20.2257 58.379 20.2729 58.2887 20.348 58.2253C22.6752 55.9234 24.1938 51.4778 22.6752 48.6819C22.4977 48.346 22.2808 48.0003 22.0638 47.6347C21.0284 45.896 19.7662 43.772 20.4269 41.7072C20.8544 40.5711 21.6494 39.6112 22.6851 38.9806C22.7194 38.9507 22.7597 38.9287 22.8032 38.9159C22.8468 38.903 22.8926 38.8998 22.9376 38.9064C22.9825 38.913 23.0255 38.9292 23.0636 38.9539C23.1017 38.9786 23.1341 39.0113 23.1584 39.0497C23.1955 39.1424 23.1979 39.2454 23.1653 39.3398C23.1327 39.4341 23.0673 39.5135 22.9809 39.5634C22.124 40.0741 21.4613 40.8562 21.0974 41.7863C20.5353 43.5546 21.7384 45.5404 22.7048 47.1704C22.9316 47.5458 23.1486 47.9015 23.3359 48.2374C25.0814 51.4284 23.3359 56.2198 20.8114 58.7291L20.7621 58.7489Z" fill="white"/>
<path d="M18.9664 60.2009C17.9547 61.0195 16.6868 61.4534 15.3867 61.4259C13.6019 61.3173 11.9748 60.0429 10.6731 57.7706C10.5449 57.5533 10.4068 57.2866 10.2589 57.0001C9.39113 55.3996 8.11902 53.0484 6.55108 52.8014C6.27527 52.773 5.99659 52.8032 5.73322 52.8901C5.46985 52.9769 5.22772 53.1183 5.02261 53.3052C4.99506 53.3335 4.9614 53.3549 4.92423 53.368C4.88706 53.3811 4.84738 53.3854 4.80828 53.3806C4.76917 53.3758 4.73168 53.3621 4.69873 53.3405C4.66579 53.3188 4.63826 53.2899 4.61829 53.2559C4.58377 53.1747 4.57665 53.0844 4.59801 52.9988C4.61937 52.9133 4.66804 52.837 4.73662 52.7816C5.00468 52.5456 5.31753 52.3663 5.65642 52.2542C5.9953 52.1422 6.35325 52.0998 6.70887 52.1296C8.52333 52.3766 9.88418 54.8958 10.8013 56.595C10.9492 56.8716 11.0873 57.1285 11.2155 57.3458C12.4284 59.4402 13.9076 60.6159 15.4854 60.7146C16.8758 60.7937 18.3649 60.0527 19.9131 58.5017C19.946 58.4685 19.9852 58.4422 20.0284 58.4243C20.0715 58.4063 20.1178 58.3971 20.1645 58.3971C20.2112 58.3971 20.2575 58.4063 20.3006 58.4243C20.3438 58.4422 20.383 58.4685 20.416 58.5017C20.4818 58.5729 20.5184 58.6664 20.5184 58.7635C20.5184 58.8606 20.4818 58.9541 20.416 59.0253C19.9664 59.4571 19.4815 59.8504 18.9664 60.2009Z" fill="white"/>
<path d="M36.4988 78.28C36.0406 78.5586 35.5363 78.7527 35.0098 78.853C34.8991 78.8711 34.7857 78.8465 34.6924 78.7841C34.5991 78.7218 34.5328 78.6264 34.5068 78.5172C34.4898 78.4058 34.5177 78.2922 34.5843 78.2015C34.6509 78.1107 34.7507 78.0501 34.8618 78.0331C37.6427 77.549 39.4867 73.0935 39.7234 70.7126C39.7266 69.5272 39.523 68.3503 39.1219 67.2351C38.5006 64.9728 37.8596 62.6709 39.4473 60.9914C39.524 60.9016 39.6319 60.8445 39.7492 60.8316C39.8664 60.8188 39.9842 60.8512 40.0784 60.9223C40.1185 60.9584 40.1506 61.0026 40.1725 61.052C40.1945 61.1013 40.2059 61.1548 40.2059 61.2088C40.2059 61.2628 40.1945 61.3163 40.1725 61.3656C40.1506 61.415 40.1185 61.4592 40.0784 61.4953C38.8063 62.829 39.398 64.9333 39.9699 66.9782C40.4015 68.1889 40.6151 69.4667 40.601 70.7521C40.4137 72.886 39.0035 76.7685 36.4988 78.28Z" fill="white"/>
<path d="M33.1762 80.0978C32.7026 80.3802 32.1864 80.5837 31.6477 80.7005C28.5414 81.3723 24.5969 79.594 22.7726 78.2801C21.6858 77.3219 20.7689 76.1862 20.0608 74.9211C18.6605 72.7971 17.2503 70.6533 15.4753 70.9695C15.4302 70.9764 15.3842 70.9738 15.3402 70.9619C15.2962 70.9499 15.2552 70.9288 15.2199 70.8999C15.1846 70.871 15.1557 70.835 15.1351 70.7942C15.1146 70.7535 15.1028 70.7088 15.1006 70.6632C15.0939 70.5674 15.1222 70.4725 15.1803 70.3962C15.2384 70.3198 15.3222 70.2672 15.4161 70.2483C17.6152 69.9025 19.2226 72.3427 20.6722 74.5359C21.3281 75.7001 22.171 76.7482 23.1671 77.6379C24.8533 78.8234 28.6203 80.5325 31.4407 79.9003C31.9739 79.8121 32.4812 79.607 32.9261 79.2996C33.371 78.9922 33.7427 78.5901 34.0144 78.122C34.0722 78.0254 34.1643 77.9544 34.2723 77.9232C34.3803 77.892 34.4961 77.903 34.5962 77.9541C34.6452 77.9789 34.6885 78.0135 34.7237 78.0557C34.7589 78.0979 34.7851 78.1469 34.8008 78.1995C34.8165 78.2522 34.8213 78.3076 34.815 78.3622C34.8086 78.4168 34.7912 78.4695 34.7639 78.5172C34.3833 79.1753 33.8355 79.7206 33.1762 80.0978Z" fill="white"/>
<path d="M85.3141 47.3186H20.4567C19.5853 47.3186 18.8789 48.0263 18.8789 48.8993V91.4194C18.8789 92.2923 19.5853 93 20.4567 93H85.3141C86.1855 93 86.8919 92.2923 86.8919 91.4194V48.8993C86.8919 48.0263 86.1855 47.3186 85.3141 47.3186Z" fill="#222222"/>
<path d="M80.6486 50.3516H22.0137V89.5127H80.6486V50.3516Z" fill="white"/>
<path d="M84.7798 70.1592C84.7817 70.4039 84.711 70.6436 84.5768 70.848C84.4425 71.0523 84.2507 71.2122 84.0257 71.3071C83.8006 71.4021 83.5524 71.428 83.3127 71.3815C83.0729 71.3349 82.8524 71.2181 82.679 71.0458C82.5056 70.8735 82.3872 70.6535 82.3389 70.4137C82.2905 70.1739 82.3143 69.9251 82.4073 69.6988C82.5003 69.4726 82.6583 69.2792 82.8612 69.143C83.0642 69.0069 83.3029 68.9342 83.5471 68.9342C83.8723 68.9342 84.1843 69.0629 84.4152 69.2924C84.6461 69.5219 84.7772 69.8334 84.7798 70.1592Z" fill="white"/>
<path d="M67.483 58.1265H35.1973C34.3042 58.1265 33.5801 58.8519 33.5801 59.7467V80.572C33.5801 81.4668 34.3042 82.1922 35.1973 82.1922H67.483C68.3762 82.1922 69.1003 81.4668 69.1003 80.572V59.7467C69.1003 58.8519 68.3762 58.1265 67.483 58.1265Z" fill="#E5E6ED"/>
<path d="M67.4829 60.0432H35.1973V80.2758H67.4829V60.0432Z" fill="#B2D550"/>
<path d="M45.3457 63.7871V77.0944L58.2738 70.4358L45.3457 63.7871Z" fill="#222222"/>
<path d="M51.8532 47.0619C51.8532 47.0619 43.6388 47.0619 40.7593 45.0861C37.8798 43.1102 37.3769 35.5033 41.5581 32.3814C45.7392 29.2596 46.6169 28.2914 46.7944 26.2267C46.9719 24.1619 46.9423 19.4891 52.3561 19.4693C57.7699 19.4495 57.2177 23.8063 57.622 26.5823C57.908 28.5582 60.5804 31.3737 62.878 33.152C65.866 35.444 69.209 48.9884 51.8532 47.0619Z" fill="#222222"/>
<path d="M50.9078 24.8729L52.6927 24.9322L54.4775 24.9816C54.4775 24.9816 54.8325 29.8718 55.7496 30.4744C55.7496 30.4744 56.7357 36.2636 52.3376 36.1352C47.0422 35.9673 49.2905 30.2768 49.2905 30.2768C50.2372 29.7137 50.9078 24.8729 50.9078 24.8729Z" fill="#F39F90"/>
<path d="M44.9396 47.2889H59.3271L60.5401 42.6556C60.7274 37.9135 60.7965 33.0727 60.7965 33.0727C59.1463 31.881 57.3414 30.9204 55.4319 30.2177C54.5681 30.8874 53.5067 31.2507 52.4144 31.2507C51.3221 31.2507 50.2607 30.8874 49.3969 30.2177C47.5095 31.0027 45.6974 31.9584 43.983 33.0727C43.6906 34.7786 43.6177 36.5151 43.7661 38.2396C43.9759 41.2768 44.3677 44.2987 44.9396 47.2889Z" fill="#FA8825"/>
<path d="M65.9151 47.2889C65.2769 43.4767 64.2628 39.7372 62.8877 36.1255C61.7142 33.3988 60.7971 33.0333 60.7971 33.0333C59.7518 32.9443 58.953 41.7764 57.1484 47.2889H65.9151Z" fill="#FA8825"/>
<path d="M59.2788 39.267C58.9499 40.0219 58.5221 40.7296 58.0067 41.3713C57.5531 42.0135 56.3303 45.5206 51.5476 45.1847C49.5754 45.0563 47.7313 43.0903 46.9128 41.1046C46.6159 40.3031 46.3915 39.4765 46.2423 38.6348C46.1854 37.9549 46.0223 37.2882 45.7591 36.6589C45.1575 36.8071 45.0984 37.7061 44.8814 38.2297C44.7532 38.5459 43.8953 39.7511 43.8164 38.8422C44.0375 41.6729 44.4127 44.4894 44.9406 47.2791H60.4129C60.117 44.0288 59.2493 40.255 59.2788 39.267Z" fill="#E98025"/>
<path d="M56.6957 25.7227C56.183 25.1694 55.611 26.0586 55.611 26.0586C55.7537 25.3647 55.846 24.6615 55.8871 23.9543C54.7805 23.252 53.608 22.6597 52.3864 22.1859C51.1376 22.655 49.9385 23.2474 48.8068 23.9543C48.8418 24.6615 48.9308 25.365 49.073 26.0586C49.073 26.0586 48.5109 25.1694 47.9981 25.7227C47.4853 26.2759 48.7476 27.7578 49.0434 27.9356C49.0434 27.9356 50.0887 30.4844 51.4003 31.3341C51.6962 31.468 52.0172 31.5372 52.342 31.5372C52.6668 31.5372 52.9878 31.468 53.2838 31.3341C54.6052 30.4844 55.5913 27.985 55.5913 27.985C55.897 27.7578 57.1691 26.2759 56.6957 25.7227Z" fill="#FBBFAF"/>
<path d="M55.8375 23.0355C55.1614 24.0463 54.2199 24.8505 53.1168 25.3595C52.0137 25.8685 50.7917 26.0625 49.5855 25.9202C49.6535 26.0914 49.6843 26.275 49.6758 26.459C49.6673 26.643 49.6197 26.8231 49.5362 26.9872C49.5362 26.9872 49.2206 25.7226 48.55 26.1178C48.1852 26.3253 48.1852 26.8489 48.55 27.3922C48.7177 27.6392 47.4554 27.1848 47.4554 27.1848C47.4554 27.1848 46.9328 22.3341 50.1377 21.2572C53.3426 20.1804 55.8375 23.0355 55.8375 23.0355Z" fill="#222222"/>
<path d="M54.3475 21.3758C54.3038 21.6037 54.2839 21.8354 54.2883 22.0674C54.2883 22.5613 53.5783 22.917 53.5586 23.411C53.6572 23.5098 53.7558 23.6283 53.8544 23.7469C54.3905 24.3444 54.7581 25.0741 54.9194 25.861C54.913 26.2699 55.0261 26.6717 55.2449 27.0169C55.2449 27.0169 55.5506 25.7523 56.3197 25.94C56.4775 25.94 56.7733 26.2068 56.5071 26.839C56.4085 27.0663 57.3059 25.8511 57.3059 25.8511C57.3059 25.8511 57.2763 21.2771 54.3475 21.3758Z" fill="#222222"/>
<path d="M48.1256 68.6281C48.2932 69.0233 49.1807 69.616 48.8652 70.1396C48.7074 70.4064 47.8791 69.8531 47.7311 69.6259C46.8954 68.4235 46.1473 67.1623 45.4926 65.852C45.2757 65.2395 45.0785 64.6567 44.8418 64.1034C45.4723 63.7162 46.052 63.2516 46.5675 62.7203C47.4452 63.1254 48.382 63.7083 49.2498 64.0639C49.7133 64.2714 50.2359 64.4097 50.6895 64.5875C50.9853 64.6962 51.6263 64.8641 51.6756 65.2593C51.7249 65.6545 51.0642 65.5754 50.8078 65.5162C50.5514 65.4569 49.8217 65.1012 49.516 65.5162C49.1512 66.1287 50.2753 66.8301 50.6599 67.245C51.0445 67.6599 52.3067 68.8059 51.3601 68.9047C50.7372 68.5273 50.1497 68.0941 49.6048 67.6105C49.6048 67.6698 50.512 68.4997 50.5909 68.5985C50.8177 68.9047 51.4685 69.5271 51.2713 69.8334C50.8571 70.5051 49.4371 68.7565 49.2202 68.5194L49.7625 69.211C50.226 69.7346 50.512 70.1989 50.1175 70.3372C49.7231 70.4755 48.5496 69.0727 48.1256 68.6281Z" fill="#FBBFAF"/>
<path d="M47.9371 63.2833L44.9787 65.2592C44.9787 65.2592 35.719 53.2362 36.7248 48.7016C38.0268 43.7067 40.0535 38.9302 42.7402 34.525C43.0548 33.9609 43.4731 33.4614 43.9729 33.053C44.8282 33.8371 45.5005 34.8005 45.942 35.8745C46.3834 36.9485 46.5831 38.1068 46.5269 39.267C46.3379 40.1787 45.9727 41.0445 45.452 41.8158C43.8841 44.7796 41.971 49.9464 42.0302 50.47C42.1485 51.29 47.9371 63.2833 47.9371 63.2833Z" fill="#FA8825"/>
</svg>
