<svg width="105" height="105" viewBox="0 0 105 105" fill="none" xmlns="http://www.w3.org/2000/svg">
<g clip-path="url(#clip0)">
<path d="M38.1555 55.7375L37.8084 91.5712C37.8084 93.4336 37.2613 94.5112 34.5893 94.8564C31.265 95.2854 30.255 94.6995 29.7606 93.8102C28.8348 92.1048 19.7561 57.8509 18.2623 55.5178C16.7684 53.1847 38.1555 55.7375 38.1555 55.7375Z" fill="#B2D550"/>
<path d="M38.0497 63.4484L38.1233 55.7376C38.1233 55.7376 16.7257 53.1743 18.2301 55.497C18.5772 56.0515 19.9764 60.4666 21.0178 63.8669L38.0497 63.4484Z" fill="#95B639"/>
<path d="M4.45923 43.392C3.53595 43.386 2.63832 43.694 1.9151 44.2648C1.19189 44.8357 0.686495 45.6351 0.482668 46.5307C0.175723 47.9046 0.0240039 49.3083 0.0303166 50.7157C-0.0851607 52.2395 0.130108 53.7702 0.661522 55.204C0.977852 55.8655 1.47312 56.4263 2.09185 56.8236C2.71058 57.2209 3.42832 57.439 4.16466 57.4535C11.5286 57.715 37.8286 58.7508 43.32 60.0272C49.7162 61.5129 71.1348 70.929 71.1348 70.929L67.0531 23.0112C67.0531 23.0112 47.3702 38.8722 34.8935 41.3414C25.1625 43.256 10.4977 43.4129 4.45923 43.392Z" fill="#D0D1DE"/>
<path d="M17.8614 57.9762C20.5861 58.1018 23.416 58.2483 26.2038 58.4052C24.4574 52.7973 25.1517 46.3734 26.0459 42.5442C23.2581 42.8057 20.4072 42.9941 17.63 43.1196C16.422 48.0093 16.5017 53.1261 17.8614 57.9762Z" fill="#222222"/>
<path d="M92.0385 45.3694C92.1752 62.6951 83.8749 76.8089 73.5023 76.8821C63.1296 76.9554 54.6189 62.988 54.4821 45.6623C54.3454 28.3366 62.6456 14.2751 73.0078 14.16C83.37 14.0449 91.9017 28.0332 92.0385 45.3694Z" fill="#E5E6ED"/>
<path d="M90.6506 45.3798C90.7663 60.1214 83.7074 72.1217 74.8706 72.195C66.0338 72.2682 58.8066 60.3725 58.6909 45.6309C58.5751 30.8894 65.634 18.8995 74.4708 18.8263C83.3076 18.753 90.5243 30.6488 90.6506 45.3798Z" fill="#222222"/>
<path d="M71.2825 48.0999C71.6612 42.8687 68.2107 38.3175 63.5609 37.9932C62.0154 37.8876 60.4743 38.2525 59.1425 39.0394C58.8294 41.212 58.6782 43.4046 58.6901 45.5994C58.6914 49.2946 59.1795 52.9738 60.1419 56.543C60.7873 56.7871 61.4634 56.942 62.1512 57.0034C66.8326 57.3277 70.9038 53.3415 71.2825 48.0999Z" fill="#FA8825"/>
<path d="M43.4141 28.9223C43.2962 28.3817 43.3666 27.8172 43.614 27.3216C43.3405 27.3216 42.9407 27.4053 42.9618 27.2484C42.9828 27.0914 43.0354 26.7357 42.8776 26.7566C42.7307 26.7968 42.5943 26.8682 42.4778 26.9659C42.19 27.118 41.8675 27.1937 41.5416 27.1856C41.4258 27.5518 41.1102 28.1167 41.3206 28.5143C41.4153 28.7236 41.9729 28.6294 42.2148 28.7131C42.6013 28.8441 43.0059 28.9147 43.4141 28.9223Z" fill="#FBBFAF"/>
<path d="M35.704 12.0049C33.8019 12.0449 31.9343 12.5173 30.2441 13.3859L31.738 19.6634C32.8294 19.0748 34.065 18.8029 35.3042 18.8787L35.704 12.0049Z" fill="#FA8825"/>
<path d="M34.1686 15.3421C34.1686 14.2959 34.2528 13.2497 34.2739 12.2034C34.7462 12.114 35.2243 12.058 35.7046 12.036L35.2732 18.9412C34.6736 18.0414 34.3896 18.2402 34.2213 18.1251C34.2739 17.1835 34.1581 16.2419 34.1686 15.3421Z" fill="#E98025"/>
<path d="M48.3807 12.3395C48.3807 12.3395 40.0699 9.0962 34.6311 10.2471L34.2734 18.1357C34.2734 18.1357 39.1021 17.0895 45.7823 19.9876L48.3807 12.3395Z" fill="#FA8825"/>
<path d="M48.0132 12.2169L41.4805 30.9263L42.1562 31.1597L48.689 12.4503L48.0132 12.2169Z" fill="#222222"/>
<path d="M41.9625 28.9747V26.7357C41.9625 26.7357 35.2508 26.788 32.4419 25.9824C29.6331 25.1768 25.8564 21.8916 24.3521 22.4252C22.8477 22.9588 21.9009 24.5177 23.7629 25.9301C25.625 27.3425 30.0749 28.6503 31.9685 28.9328C33.294 29.1421 40.9 28.9747 41.9625 28.9747Z" fill="#B2D550"/>
<path d="M30.7389 27.5727C28.3719 26.5997 26.1312 24.434 24.2271 22.4775C22.8069 23.053 21.9547 24.57 23.7642 25.9301C25.5736 27.2902 30.0762 28.6504 31.9698 28.9328C32.622 29.0375 34.7891 29.0479 36.9562 29.027C34.8224 28.8535 32.7268 28.3633 30.7389 27.5727Z" fill="#95B639"/>
<path d="M30.6847 54.8691C30.6847 54.8691 29.3802 56.9616 29.5696 57.4743C29.7589 57.9869 34.3141 60.613 34.9348 60.4038C35.5554 60.1945 35.6606 59.4726 34.8506 58.7402C34.0406 58.0079 33.3988 57.9137 32.9044 57.2755C32.41 56.6373 32.9044 55.2981 32.9044 55.2981L30.6847 54.8691Z" fill="#222222"/>
<path d="M23.0166 37.0205C23.5498 37.4437 24.2179 37.6627 24.8997 37.6378C25.857 37.5122 35.2408 38.4852 36.2086 39.2699C37.1765 40.0546 33.2315 55.8528 33.2315 55.8528L29.9703 55.3192C29.9703 55.3192 31.138 43.8106 30.9381 43.685C30.7383 43.5595 25.8149 43.6223 17.42 43.6223C15.3686 43.6223 13.0752 39.3327 15.6736 36.2986L23.0166 37.0205Z" fill="#FA8825"/>
<path d="M24.4788 19.4329C24.1625 19.2907 23.8684 19.1039 23.6056 18.8784C23.5 20.2195 22.9863 21.4967 22.1328 22.5403C23.3057 23.012 24.5822 23.1707 25.8358 23.0006C25.7257 21.8833 25.7753 20.7561 25.9831 19.6526C25.4714 19.6945 24.9568 19.6193 24.4788 19.4329Z" fill="#FBBFAF"/>
<path d="M23.4899 22.1741C23.6622 21.6964 23.9794 21.2837 24.3978 20.9932C24.8162 20.7027 25.3151 20.5486 25.8253 20.5524C25.8502 20.2483 25.903 19.9471 25.9831 19.6526C25.4714 19.6945 24.9568 19.6193 24.4788 19.4329C24.1625 19.2907 23.8684 19.1039 23.6056 18.8784C23.5 20.2195 22.9863 21.4967 22.1328 22.5403C22.5238 22.6891 22.9245 22.8114 23.3321 22.9064C23.3551 22.6569 23.4081 22.4111 23.4899 22.1741Z" fill="#F39F90"/>
<path d="M23.8995 13.9612C23.8995 13.9612 26.3086 13.2079 27.0555 13.6787C27.4664 14.0222 27.7908 14.4566 28.0027 14.9471C28.2146 15.4377 28.3081 15.9707 28.2758 16.5036C28.1496 17.372 29.149 18.3868 29.17 18.7007C29.191 19.0146 28.4126 19.1296 28.3915 19.2238C28.3705 19.318 28.3179 20.9082 27.2659 21.1698C25.7826 21.5465 23.7943 20.3642 23.1105 19.4749C22.4267 18.5856 21.6377 14.4948 23.8995 13.9612Z" fill="#FBBFAF"/>
<path d="M28.3815 14.0659C28.2553 13.9404 27.9292 13.7311 27.845 13.5742C27.7963 13.4303 27.7365 13.2904 27.6662 13.1557C27.4032 12.7686 27.34 12.4861 26.2354 12.1095C25.729 11.9856 25.2007 11.9797 24.6916 12.0922C24.1825 12.2047 23.7064 12.4326 23.3004 12.7581C23.0174 12.9781 22.7814 13.252 22.6061 13.5637C22.6061 13.6579 22.3851 13.909 22.4272 14.0136C22.4693 14.1182 22.827 14.2229 22.9427 14.2856C23.1326 14.4144 23.312 14.5578 23.4792 14.7146C24.5312 15.6039 26.2986 16.556 27.5084 15.3214C27.6702 15.1605 27.8213 14.9892 27.9607 14.8088C28.2034 15.303 28.319 15.8494 28.2973 16.399C28.5403 16.2013 28.7104 15.929 28.7813 15.6248C28.8568 15.3528 28.8596 15.066 28.7895 14.7926C28.7194 14.5192 28.5787 14.2687 28.3815 14.0659Z" fill="#222222"/>
<path d="M23.3217 13.9928C22.9474 13.8833 22.5493 13.8833 22.175 13.9928C21.8961 14.0606 21.6452 14.2127 21.4568 14.4282C21.2684 14.6436 21.1518 14.9119 21.123 15.196C21.0533 15.5653 21.0146 15.9398 21.0073 16.3155C20.984 16.8973 21.0807 17.4776 21.2913 18.0209C21.5145 18.6243 21.8745 19.1684 22.3433 19.6111C22.7641 19.9878 23.6057 20.4377 24.016 20.2703C24.2595 19.798 24.3823 19.2734 24.3737 18.7428C24.3737 18.4603 24.1843 18.4498 23.9529 18.3243C23.7215 18.1987 23.1429 17.6861 23.4269 17.2152C23.8267 16.5666 24.5736 16.8595 24.8366 17.7698C24.8366 17.7698 25.1311 18.2824 25.2889 18.2092C25.4467 18.1359 26.099 15.4785 23.3217 13.9928Z" fill="#222222"/>
<path d="M23.5957 17.2671C23.7199 17.2212 23.8553 17.2147 23.9834 17.2484C24.1115 17.2821 24.226 17.3545 24.3111 17.4555C24.6056 17.7903 24.4689 18.3238 24.1848 18.1251C23.9008 17.9263 24.0165 17.7484 23.9639 17.581C23.9296 17.5049 23.8788 17.4373 23.8152 17.383C23.7515 17.3288 23.6766 17.2892 23.5957 17.2671Z" fill="#F39F90"/>
<path d="M14.5176 36.1415C14.5176 36.1415 17.9155 38.7676 24.9639 37.5958C24.9763 36.2514 25.1673 34.9146 25.532 33.6201C26.3059 31.0706 26.8101 28.4478 27.0364 25.7942C27.0827 25.1859 26.9967 24.5748 26.7844 24.0025C26.572 23.4302 26.2381 22.9101 25.8055 22.4776C25.8055 22.4776 24.48 23.7122 22.5128 22.101C21.2678 22.484 20.1261 23.1423 19.1733 24.0265C18.2205 24.9107 17.4812 25.9979 17.0108 27.2066C15.8808 30.0943 15.0455 33.0876 14.5176 36.1415Z" fill="#B2D550"/>
<path d="M22.9971 25.3966C21.1771 27.353 22.9445 32.1657 25.2378 34.8127C25.322 34.4152 25.4062 34.0071 25.5324 33.5886C25.848 32.5424 26.2372 30.9939 26.5844 29.4664C25.9185 29.0553 25.4024 28.443 25.1116 27.7192C24.3752 26.0452 23.9018 24.8944 22.9971 25.3966Z" fill="#95B639"/>
<path d="M37.7351 38.8408C37.9777 39.0617 38.2757 39.2135 38.5977 39.2802C38.7485 39.285 38.8961 39.3244 39.029 39.3953C39.1849 39.4743 39.3514 39.5307 39.5235 39.5627C39.6936 39.5969 39.8526 39.6723 39.9863 39.7824C40.1231 39.9498 39.8496 40.0021 39.6707 40.0126C39.4919 40.0231 38.9449 39.6778 38.7871 39.8138C38.6293 39.9498 39.292 40.3369 39.4288 40.4102C39.7444 40.5776 39.9758 40.4102 40.3019 40.4102C40.6281 40.4102 40.5755 40.4625 40.4492 40.6403C40.3902 40.6944 40.3202 40.7354 40.2441 40.7607C40.1679 40.7859 40.0873 40.7948 40.0074 40.7868C39.6881 40.8117 39.3673 40.7616 39.0711 40.6403C39.3415 40.7703 39.6342 40.8484 39.9337 40.8705C40.1021 40.8705 40.8279 40.8078 40.8279 41.0798C40.8279 41.6134 39.2184 41.2681 38.9764 41.0798C39.2427 41.2203 39.5307 41.3158 39.8285 41.3623C39.9969 41.3623 40.4177 41.4773 40.1862 41.6971C39.9548 41.9168 39.0501 41.4878 38.6503 41.3099C38.8751 41.4854 39.1228 41.6297 39.3867 41.7389C39.7233 41.9168 39.4709 42.1051 39.1027 41.9795C38.9449 41.9272 38.6503 41.7703 38.5767 41.7389C38.0145 41.4407 37.567 40.9663 37.3037 40.3893C37.1775 40.1591 36.6936 39.8766 36.7462 39.6464C36.8303 39.2698 37.43 39.0501 37.7351 38.8408Z" fill="#FBBFAF"/>
<path d="M38.2382 38.4954L36.8707 40.3368C36.8707 40.3368 28.1391 36.5703 27.4027 35.5764C26.0295 33.794 24.775 31.9242 23.647 29.979C22.7213 27.7296 21.543 25.0512 23.647 24.5804C24.7937 24.3189 25.5196 24.5804 26.2349 26.2753C27.2845 28.713 28.552 31.052 30.0221 33.2642C30.3377 33.6723 38.2382 38.4954 38.2382 38.4954Z" fill="#B2D550"/>
<path d="M44.3613 27.3635C44.4875 27.5518 44.1509 28.4097 43.8248 28.7445C43.7211 28.8521 43.5812 28.9179 43.4318 28.9295C43.2824 28.9411 43.134 28.8976 43.0148 28.8073C42.7412 28.6399 42.4151 28.5771 42.373 28.4202C42.373 27.7925 42.899 28.2633 43.1515 28.3574C43.1515 28.3574 42.4572 28.0122 42.4677 27.7088C42.4677 27.1438 43.3514 27.7925 43.5934 27.9075C43.3361 27.8244 43.1067 27.6724 42.9306 27.4681C42.9077 27.4466 42.8894 27.4207 42.8769 27.3919C42.8645 27.3631 42.858 27.3321 42.858 27.3007C42.858 27.2694 42.8645 27.2384 42.8769 27.2096C42.8894 27.1808 42.9077 27.1548 42.9306 27.1333C43.12 26.9659 43.8564 27.489 43.8564 27.489C43.8564 27.489 43.1831 27.1961 43.404 26.9555C43.6249 26.7148 43.7617 26.9555 43.8984 26.9555C44.0001 26.9873 44.0939 27.04 44.1737 27.1103C44.2534 27.1807 44.3174 27.2669 44.3613 27.3635Z" fill="#FBBFAF"/>
<path d="M42.7302 27.3319L42.9616 27.2587C42.9616 27.0494 43.8137 26.9971 44.0136 26.903C44.5606 26.61 44.3397 26.2752 44.0873 26.3485C43.8348 26.4217 43.5297 26.5159 43.3824 26.5786C43.1968 26.6252 43.0057 26.6463 42.8143 26.6414C42.5657 26.785 42.3299 26.9495 42.1095 27.1331C41.8149 27.3005 42.4251 27.4575 42.7302 27.3319Z" fill="#FBBFAF"/>
<path d="M103.779 33.7353C103.968 34.227 102.338 35.2733 100.15 36.0684C97.9614 36.8636 96.0363 37.1147 95.8469 36.6334C95.6575 36.1521 97.2987 35.0954 99.4868 34.3003C101.675 33.5051 103.6 33.2645 103.779 33.7353Z" fill="#D0D1DE"/>
<path d="M99.8021 23.9215C100.002 24.4028 98.4345 25.5432 96.2989 26.4639C94.1634 27.3846 92.2488 27.7403 92.0384 27.2695C91.828 26.7987 93.4059 25.6478 95.5415 24.7271C97.6771 23.8064 99.5917 23.4507 99.8021 23.9215Z" fill="#D0D1DE"/>
<path d="M102.747 59.9224C102.589 60.4142 100.643 60.2677 98.4337 59.5772C96.2245 58.8867 94.5203 57.9346 94.6781 57.4324C94.8359 56.9302 96.7821 57.0871 98.9913 57.7776C101.2 58.4682 102.905 59.4202 102.747 59.9224Z" fill="#D0D1DE"/>
<path d="M98.6973 70.5312C98.4974 71.0125 96.5933 70.7091 94.4157 69.8407C92.238 68.9723 90.66 67.8738 90.8494 67.3925C91.0387 66.9112 92.9534 67.2251 95.131 68.083C97.3086 68.9409 98.8866 70.0499 98.6973 70.5312Z" fill="#D0D1DE"/>
<path d="M105.001 46.9491C105.001 47.4722 103.065 47.7965 100.729 47.671C98.394 47.5454 96.5215 47.0328 96.5215 46.5097C96.5215 45.9865 98.4677 45.6727 100.793 45.7878C103.118 45.9028 105.022 46.426 105.001 46.9491Z" fill="#D0D1DE"/>
</g>
<defs>
<clipPath id="clip0">
<rect width="105" height="105" fill="white"/>
</clipPath>
</defs>
</svg>
