<svg width="105" height="105" viewBox="0 0 105 105" fill="none" xmlns="http://www.w3.org/2000/svg">
<path d="M64.384 95.3325H48.1289L49.4704 75.7458H63.0424L64.384 95.3325Z" fill="#222222"/>
<path d="M66.5197 92.1926C66.4191 92.0512 66.2869 91.9352 66.1336 91.8537C65.9803 91.7723 65.8101 91.7276 65.6365 91.7233H46.8884C46.7134 91.72 46.5404 91.7613 46.3859 91.8434C46.2313 91.9255 46.1003 92.0457 46.0052 92.1926L43.5457 95.8463C43.4556 96.0093 43.4076 96.1923 43.4063 96.3785C43.4049 96.5648 43.4502 96.7484 43.538 96.9128C43.6257 97.0771 43.7532 97.2169 43.9088 97.3194C44.0644 97.422 44.2432 97.484 44.4289 97.4999H68.0849C68.2706 97.484 68.4493 97.422 68.6049 97.3194C68.7605 97.2169 68.888 97.0771 68.9758 96.9128C69.0636 96.7484 69.1088 96.5648 69.1075 96.3785C69.1061 96.1923 69.0582 96.0093 68.9681 95.8463L66.5197 92.1926Z" fill="#222222"/>
<path d="M96.0406 21.4998H16.4533C13.928 21.4998 11.8809 23.5457 11.8809 26.0696V76.3825C11.8809 78.9064 13.928 80.9524 16.4533 80.9524H96.0406C98.5659 80.9524 100.613 78.9064 100.613 76.3825V26.0696C100.613 23.5457 98.5659 21.4998 96.0406 21.4998Z" fill="#222222"/>
<path d="M96.5345 25.4443H15.9746V76.4053H96.5345V25.4443Z" fill="#FEFEFE"/>
<path d="M94.5216 30.9858H17.9863V76.3937H94.5216V30.9858Z" fill="#E5E6ED"/>
<path d="M94.5216 30.9858H17.9863V34.74H94.5216V30.9858Z" fill="#F6DBB3"/>
<path d="M90.8146 46.9976H67.0469V50.1372H90.8146V46.9976Z" fill="#FEFEFE"/>
<path d="M90.8146 52.5391H67.0469V55.6787H90.8146V52.5391Z" fill="#FEFEFE"/>
<path d="M90.8146 58.0923H67.0469V61.232H90.8146V58.0923Z" fill="#FEFEFE"/>
<path d="M48.8107 38.5168H25.043V41.6565H48.8107V38.5168Z" fill="#FEFEFE"/>
<path d="M48.8107 44.0588H25.043V47.1985H48.8107V44.0588Z" fill="#FEFEFE"/>
<path d="M47.7032 45.0306H2.82843C2.07725 45.0335 1.35787 45.3338 0.827754 45.8657C0.29764 46.3976 -5.82157e-06 47.1178 0 47.8686V62.3379C0 62.7106 0.0734636 63.0796 0.216167 63.4239C0.358871 63.7682 0.568029 64.0811 0.831711 64.3446C1.09539 64.6082 1.40843 64.8172 1.75295 64.9599C2.09746 65.1025 2.46671 65.1759 2.83962 65.1759H30.9562L41.6662 74.282L36.5795 65.1759H47.7591C48.5132 65.1759 49.2366 64.8772 49.7709 64.3453C50.3052 63.8134 50.6069 63.0916 50.6098 62.3379V47.8686C50.6084 47.4906 50.5318 47.1167 50.3844 46.7686C50.237 46.4205 50.0217 46.1053 49.7512 45.8412C49.4807 45.577 49.1603 45.3693 48.8087 45.2302C48.4571 45.091 48.0813 45.0232 47.7032 45.0306Z" fill="#B2D550"/>
<path d="M47.1352 48.9302H16.8945V50.6732H47.1352V48.9302Z" fill="white"/>
<path d="M47.1352 52.4834H16.8945V54.2264H47.1352V52.4834Z" fill="white"/>
<path d="M47.1352 56.0364H16.8945V57.7794H47.1352V56.0364Z" fill="white"/>
<path d="M36.9618 59.5781H16.8945V61.3212H36.9618V59.5781Z" fill="white"/>
<path d="M14.5367 54.7963C14.5367 55.9498 14.1944 57.0775 13.5532 58.0366C12.912 58.9957 12.0006 59.7433 10.9342 60.1847C9.86788 60.6262 8.69449 60.7417 7.56247 60.5166C6.43045 60.2916 5.39062 59.7361 4.57447 58.9204C3.75833 58.1047 3.20255 57.0655 2.97737 55.9341C2.7522 54.8028 2.86775 53.6301 3.30944 52.5643C3.75113 51.4986 4.49911 50.5877 5.4588 49.9468C6.41848 49.3059 7.54677 48.9639 8.70096 48.9639C9.46774 48.9624 10.2273 49.1123 10.936 49.4049C11.6446 49.6974 12.2885 50.127 12.8307 50.6689C13.3729 51.2108 13.8027 51.8543 14.0955 52.5626C14.3882 53.2709 14.5382 54.0299 14.5367 54.7963Z" fill="#222222"/>
<path d="M8.66293 54.7628C9.57056 54.7628 10.3063 54.0025 10.3063 53.0645C10.3063 52.1266 9.57056 51.3662 8.66293 51.3662C7.75531 51.3662 7.01953 52.1266 7.01953 53.0645C7.01953 54.0025 7.75531 54.7628 8.66293 54.7628Z" fill="white"/>
<path d="M8.69661 55.0196C8.31197 55.0196 7.93109 55.0953 7.57572 55.2424C7.22036 55.3895 6.89744 55.6052 6.62546 55.877C6.35347 56.1488 6.13773 56.4715 5.99053 56.8267C5.84334 57.1819 5.76758 57.5625 5.76758 57.947V59.8017C6.65698 60.3424 7.67795 60.6284 8.71896 60.6284C9.75997 60.6284 10.781 60.3424 11.6704 59.8017V57.947C11.6719 57.5583 11.5957 57.1733 11.4463 56.8145C11.2968 56.4557 11.0771 56.1303 10.8001 55.8576C10.523 55.5849 10.1943 55.3703 9.83302 55.2263C9.4718 55.0824 9.08541 55.0121 8.69661 55.0196Z" fill="white"/>
<path d="M102.159 7.5H57.2732C56.9003 7.5 56.5311 7.5734 56.1865 7.71603C55.842 7.85865 55.529 8.06769 55.2653 8.33122C55.0016 8.59475 54.7924 8.90761 54.6497 9.25193C54.507 9.59626 54.4336 9.9653 54.4336 10.338V24.852C54.4336 25.2247 54.507 25.5937 54.6497 25.938C54.7924 26.2824 55.0016 26.5952 55.2653 26.8587C55.529 27.1223 55.842 27.3313 56.1865 27.4739C56.5311 27.6166 56.9003 27.69 57.2732 27.69H70.275L66.787 36.7961L75.8984 27.69H102.159C102.912 27.69 103.635 27.391 104.167 26.8587C104.7 26.3265 104.999 25.6047 104.999 24.852V10.3268C104.996 9.57607 104.695 8.85708 104.163 8.32727C103.631 7.79745 102.91 7.49999 102.159 7.5Z" fill="#D0D1DE"/>
<path d="M101.579 11.3992H71.3379V13.1422H101.579V11.3992Z" fill="white"/>
<path d="M101.579 14.9524H71.3379V16.6954H101.579V14.9524Z" fill="white"/>
<path d="M101.579 18.5056H71.3379V20.2486H101.579V18.5056Z" fill="white"/>
<path d="M91.4052 22.0479H71.3379V23.7909H91.4052V22.0479Z" fill="white"/>
<path d="M68.9469 17.265C68.9469 18.4186 68.6046 19.5462 67.9634 20.5054C67.3221 21.4645 66.4107 22.2121 65.3443 22.6535C64.278 23.0949 63.1047 23.2105 61.9726 22.9854C60.8406 22.7604 59.8008 22.2049 58.9847 21.3892C58.1685 20.5735 57.6127 19.5343 57.3875 18.4029C57.1623 17.2715 57.2779 16.0988 57.7196 15.0331C58.1613 13.9673 58.9093 13.0564 59.869 12.4156C60.8287 11.7747 61.9569 11.4326 63.1111 11.4326C63.8779 11.4312 64.6374 11.581 65.3461 11.8736C66.0548 12.1662 66.6987 12.5957 67.2409 13.1376C67.7831 13.6795 68.2129 14.323 68.5056 15.0313C68.7984 15.7396 68.9483 16.4987 68.9469 17.265Z" fill="#222222"/>
<path d="M64.7658 15.5219C64.7592 15.8474 64.6566 16.1638 64.4709 16.4313C64.2851 16.6988 64.0244 16.9055 63.7215 17.0255C63.4187 17.1456 63.0871 17.1736 62.7684 17.106C62.4497 17.0385 62.158 16.8784 61.93 16.6458C61.7019 16.4133 61.5476 16.1186 61.4865 15.7988C61.4253 15.479 61.46 15.1483 61.5861 14.848C61.7123 14.5478 61.9243 14.2915 62.1956 14.1113C62.4669 13.931 62.7855 13.8348 63.1113 13.8347C63.5541 13.8406 63.9766 14.0213 64.2866 14.3374C64.5965 14.6535 64.7688 15.0793 64.7658 15.5219Z" fill="white"/>
<path d="M63.1431 17.478H63.0872C62.3104 17.478 61.5654 17.7865 61.0161 18.3354C60.4668 18.8844 60.1582 19.629 60.1582 20.4054V22.2601C61.0497 22.8006 62.0725 23.0864 63.1152 23.0864C64.1579 23.0864 65.1807 22.8006 66.0722 22.2601V20.3831C66.0663 19.6105 65.7551 18.8717 65.2064 18.3275C64.6578 17.7834 63.9161 17.478 63.1431 17.478Z" fill="white"/>
<path d="M89.5715 66.3157H71.7625C70.3177 66.3157 69.1465 67.4862 69.1465 68.9302V71.0084C69.1465 72.4524 70.3177 73.6229 71.7625 73.6229H89.5715C91.0163 73.6229 92.1875 72.4524 92.1875 71.0084V68.9302C92.1875 67.4862 91.0163 66.3157 89.5715 66.3157Z" fill="#B2D550"/>
<path d="M78.37 69.0643C78.3716 69.2438 78.3114 69.4184 78.1994 69.5588C78.0875 69.6992 77.9306 69.7968 77.7551 69.8352C77.9642 69.875 78.1522 69.988 78.2854 70.1539C78.4186 70.3198 78.4882 70.5277 78.4818 70.7403C78.4818 71.3436 77.9452 71.7347 77.1067 71.7347H75.3516V68.1704H77.0397C77.8558 68.1704 78.37 68.5168 78.37 69.0643ZM77.4086 69.2319C77.4086 69.0196 77.2521 68.8855 76.9949 68.8967H76.2795V69.5447H76.9949C77.2521 69.5447 77.4086 69.4553 77.4086 69.2319ZM77.5204 70.6173C77.5204 70.405 77.3191 70.2598 76.9949 70.2598H76.2795V71.0084H76.9949C77.3191 71.0084 77.5204 70.8632 77.5204 70.662V70.6173Z" fill="white"/>
<path d="M80.5833 70.9749C80.6792 70.9786 80.7748 70.9617 80.8635 70.9253C80.9523 70.8889 81.0323 70.8339 81.098 70.764C81.1637 70.6941 81.2136 70.6109 81.2444 70.5201C81.2752 70.4293 81.2861 70.3329 81.2765 70.2375V68.1704H82.2044V70.2375C82.2153 70.4491 82.1802 70.6607 82.1013 70.8574C82.0224 71.0542 81.9017 71.2315 81.7476 71.377C81.5934 71.5226 81.4095 71.633 81.2085 71.7005C81.0074 71.7681 80.7941 71.7911 80.5833 71.7682C80.3706 71.7925 80.1552 71.7706 79.9517 71.704C79.7483 71.6374 79.5617 71.5277 79.4046 71.3823C79.2475 71.237 79.1236 71.0594 79.0415 70.8618C78.9594 70.6643 78.9209 70.4513 78.9287 70.2375V68.1704H79.8566V70.2375C79.8502 70.335 79.8645 70.4328 79.8986 70.5245C79.9327 70.6161 79.9858 70.6995 80.0544 70.7691C80.123 70.8388 80.2057 70.8931 80.2968 70.9286C80.388 70.9641 80.4856 70.9799 80.5833 70.9749Z" fill="white"/>
<path d="M84.706 70.5951V71.7125H83.7782V70.5951L82.459 68.1482H83.3981L84.2365 69.6789L85.0638 68.1482H85.9917L84.706 70.5951Z" fill="white"/>
<path d="M58.9733 43.1203C57.7869 43.3422 56.5754 43.3986 55.3735 43.2879C54.943 43.2439 54.5191 43.1502 54.1102 43.0085C54.1661 44.5058 54.1773 48.0141 53.1152 49.4667C53.1152 49.4667 53.4953 51.1985 56.6144 51.2544C59.7335 51.3102 60.0913 48.9527 60.0913 48.9527C59.5332 47.0487 59.1588 45.0956 58.9733 43.1203Z" fill="#FBC0B0"/>
<path d="M53.1258 49.5223C53.1228 49.5632 53.1228 49.6043 53.1258 49.6452C53.1555 49.7069 53.1891 49.7666 53.2264 49.824L53.3829 50.0475C53.5404 50.2414 53.7294 50.4076 53.9419 50.5391C54.0649 50.6173 54.2102 50.6844 54.3667 50.7626H54.4226C54.6015 50.836 54.7844 50.8994 54.9704 50.9525C55.0631 50.1352 55.3847 49.3606 55.8983 48.7178C56.7629 47.6117 58.0196 46.8798 59.4087 46.6732C59.1102 45.4633 58.9194 44.2295 58.8385 42.986C57.6521 43.2079 56.4406 43.2643 55.2387 43.1536C54.8082 43.1097 54.3843 43.0159 53.9754 42.8743C54.0313 44.3715 54.0425 47.8799 52.9805 49.3324L53.1258 49.5223Z" fill="#F39F90"/>
<path d="M54.6475 34.7183C54.6475 34.7183 59.7677 33.2099 60.5838 34.439C61.3999 35.668 61.2434 37.6792 61.5788 38.5619C61.9142 39.4446 63.1887 40.372 63.3228 40.7183C63.457 41.0647 62.4732 41.7462 62.339 42.0144C62.2048 42.2825 61.6906 45.1876 60.7962 45.8245C59.9019 46.4613 55.1505 44.7742 53.9767 42.4725C52.8028 40.1708 53.2836 35.4557 54.6475 34.7183Z" fill="#FBC0B0"/>
<path d="M57.015 35.6123C57.0775 36.5235 56.8921 37.4347 56.4784 38.2491C56.1654 38.8637 57.697 40.4838 57.2722 41.2212C56.9815 41.7128 56.5679 41.5899 56.1542 40.6179C55.9781 40.2866 55.6822 40.0349 55.3269 39.914C54.0748 39.3777 53.7841 41.2771 54.9021 41.8469C55.6958 42.238 55.2263 44.2268 55.2263 44.2268C54.3766 44.8749 51.5929 44.0927 51.8724 42.0592C52.0736 40.7631 52.1519 40.2715 51.7047 39.9586C51.4055 39.7933 51.1482 39.5615 50.9527 39.2813C50.7571 39.001 50.6284 38.6796 50.5766 38.3418C50.5248 38.0041 50.5512 37.6589 50.6537 37.3329C50.7562 37.0069 50.9322 36.7088 51.1681 36.4615C53.0239 34.6067 51.3246 34.0145 53.4823 33.4894C55.6399 32.9642 57.451 34.2603 57.015 35.6123Z" fill="#222222"/>
<path d="M53.1738 34.5172C53.2856 34.0479 54.1353 33.3999 54.5601 33.1318C55.234 32.6588 55.9933 32.321 56.796 32.1373C57.6004 31.933 58.4397 31.9063 59.2555 32.0591C59.9598 32.1932 60.5412 32.4949 61.2567 32.5843C61.5611 32.6483 61.8752 32.6506 62.1806 32.5911C62.4859 32.5316 62.7762 32.4115 63.0342 32.2379C63.1607 32.7682 63.191 33.317 63.1236 33.858C62.941 34.5059 62.6292 35.1101 62.2069 35.6345C61.5111 36.4639 60.5772 37.0598 59.5315 37.3416C58.4858 37.6233 57.3787 37.5774 56.36 37.21C55.4367 36.9722 54.6258 36.4187 54.0682 35.6457C53.8238 35.23 53.5228 34.8502 53.1738 34.5172Z" fill="#222222"/>
<path d="M80.4954 37.8577L85.4367 48.8186C85.4367 48.8186 83.9946 50.4387 83.5139 50.0811C83.0331 49.7236 75.6099 40.8297 74.8944 40.3605C74.1789 39.8912 80.4954 37.8577 80.4954 37.8577Z" fill="#222222"/>
<path d="M68.1953 39.2207C68.1953 39.2207 68.1953 42.3715 70.1405 43.0978C70.1405 43.0978 80.0233 38.9972 82.0132 38.6285C84.0032 38.2598 91.2364 38.1816 91.2364 38.1816L83.9473 25.1648C83.9473 25.1648 80.4481 32.148 77.2396 34.4385C74.3645 36.2836 71.3391 37.8833 68.1953 39.2207Z" fill="#B2D550"/>
<path d="M74.6031 41.2877C75.3857 40.9749 76.2018 40.6508 77.0067 40.3492C75.9569 39.0526 75.2428 37.5177 74.9273 35.8799C74.1783 36.3045 73.4069 36.7179 72.6914 37.0978C72.9609 38.6344 73.6189 40.0768 74.6031 41.2877Z" fill="#222222"/>
<path d="M93.9067 28.4946C95.9637 33.4555 95.237 38.4723 92.2745 39.6678C89.3119 40.8633 85.2537 37.8689 83.1967 32.9639C81.1396 28.0588 81.8663 22.975 84.8289 21.7907C87.7914 20.6063 91.872 23.5225 93.9067 28.4946Z" fill="#FA8825"/>
<path d="M93.5287 28.6514C95.2839 32.8749 94.6467 37.143 92.1536 38.1821C89.6606 39.2212 86.1726 36.6514 84.4286 32.4279C82.6846 28.2045 83.3107 23.9363 85.8037 22.8972C88.2967 21.8581 91.7847 24.4391 93.5287 28.6514Z" fill="#222222"/>
<path d="M79.8012 45.7459C79.5664 45.6006 79.6335 44.7179 79.6782 44.4944C79.7229 44.271 80.0024 43.6676 79.7565 43.3213C79.3093 42.7179 78.6944 44.3492 78.6385 44.5838C78.4747 44.9326 78.4353 45.3269 78.5267 45.7012C78.7385 46.2338 79.0582 46.7169 79.4658 47.1202C79.4223 47.294 79.3701 47.4656 79.3093 47.6342C79.72 47.8106 80.1195 48.012 80.5055 48.2375C80.975 48.5168 80.9527 48.852 81.3999 49.1649L81.847 48.1369C81.2254 47.2902 80.5416 46.491 79.8012 45.7459Z" fill="#FBC0B0"/>
<path d="M82.963 42.159C82.5382 41.7009 81.845 41.8797 81.3531 42.2484C80.8612 42.6171 79.8886 43.3657 80.2351 44.0473C80.5817 44.7289 81.8786 43.3993 81.8786 43.3993C81.3643 43.8462 80.4029 44.1926 80.6488 44.6395C80.8948 45.0864 82.1357 44.4272 82.404 44.2373C82.1357 44.3043 80.7718 45.1311 81.286 45.5669C81.655 45.8574 82.6611 45.2428 82.963 45.0305C82.5605 45.1535 82.0127 45.511 82.1134 46.0696C82.2922 46.3713 82.8959 46.1702 83.2313 46.0696C83.7456 45.8685 84.2263 45.7903 84.271 45.1535C84.2822 45.0383 84.2822 44.9223 84.271 44.8071C84.2212 44.3189 84.0688 43.8468 83.8238 43.4216C83.5927 42.9654 83.3033 42.541 82.963 42.159Z" fill="#FBC0B0"/>
<path d="M30.9338 45.8017C30.7012 45.4171 30.51 45.0089 30.3637 44.5839C30.2407 44.2151 30.1512 43.8464 30.0283 43.4665C29.8685 43.1156 29.7847 42.7348 29.7824 42.3492C29.8016 42.126 29.8428 41.9052 29.9053 41.69C29.9836 41.4107 30.0842 41.1425 30.1401 40.8632C30.196 40.5838 30.1401 40.3604 30.2183 40.1146C30.2887 39.6324 30.4359 39.1647 30.6544 38.7291C30.8374 38.4183 31.0508 38.1263 31.2916 37.8576C31.4027 37.7131 31.5261 37.5785 31.6605 37.4554C31.8144 37.35 31.9347 37.2026 32.0071 37.0308C32.0277 36.9759 32.0365 36.9173 32.0327 36.8588C32.0289 36.8003 32.0128 36.7433 31.9853 36.6915C31.9578 36.6398 31.9196 36.5944 31.8732 36.5585C31.8269 36.5226 31.7734 36.497 31.7164 36.4833C31.4637 36.4331 31.2023 36.4489 30.9576 36.5292C30.7128 36.6094 30.4928 36.7514 30.3189 36.9414C29.9388 37.4554 29.7712 38.0587 29.3463 38.5727C28.083 40.0811 26.898 38.3045 25.4111 37.6677C24.9044 37.4113 24.425 37.1044 23.9802 36.7514C23.723 36.5503 22.5827 35.4777 22.0461 35.7571C21.5095 36.0364 22.4262 36.8744 22.7951 37.0867C22.9516 37.1761 24.2149 38.204 24.3826 38.204C23.6092 37.8845 22.8921 37.4432 22.2585 36.8967C21.6995 36.4498 21.1405 36.0252 20.8499 36.271C19.8996 37.042 23.6 38.8073 23.8795 38.9638C23.5777 38.9638 20.6822 36.9526 20.4139 37.7012C20.2574 38.1146 20.8611 38.528 21.353 38.8185C21.8449 39.109 22.9963 39.3883 23.2311 39.5671C22.7951 39.7124 20.8834 38.4498 20.8834 39.2096C20.8834 39.7235 22.0685 40.1146 22.5156 40.2487C22.9628 40.3827 24.3379 41.3101 24.7516 41.5224C26.1825 42.204 26.7751 42.1146 27.334 42.9749C27.6918 43.5224 28.329 46.4051 28.8544 47.4442L30.9338 45.8017Z" fill="#FBC0B0"/>
<path d="M79.0073 47.1985C77.7329 50.908 75.005 57.4667 74.1107 57.0086C72.4226 56.1371 68.7892 53.1762 66.0726 51.3549C65.0838 50.6494 64.0278 50.0431 62.9199 49.5449L64.8093 58.4834C64.8093 58.4834 73.7529 65.2767 75.6311 64.2376C77.1068 63.422 80.7402 53.0644 82.0258 48.7962L79.0073 47.1985Z" fill="#FA8825"/>
<path d="M70.1411 59.9916C68.3072 57.8994 66.3352 55.9322 64.2383 54.1033L64.5402 58.3491C64.5402 58.3491 73.5621 65.1312 75.5632 64.2932C73.5516 63.1372 71.724 61.6873 70.1411 59.9916Z" fill="#E98025"/>
<path d="M47.7272 50.0366C47.7272 50.0366 36.7154 54.5059 35.5192 54.1707C34.3229 53.8355 30.3207 42.5059 30.3207 42.5059L26.9668 43.8578C26.9668 43.8578 30.5331 60.2266 32.8249 60.9975C35.1167 61.7685 48.7781 57.8132 48.7781 57.8132C48.8714 55.1802 48.516 52.5505 47.7272 50.0366Z" fill="#FA8825"/>
<path d="M38.3211 59.9694C37.3596 60.3157 36.3647 60.6621 35.3809 60.9526C39.906 60.1483 44.3844 59.1003 48.7963 57.8129C48.8415 56.4232 48.7629 55.0323 48.5616 53.6565C45.688 56.531 42.1809 58.693 38.3211 59.9694Z" fill="#E98025"/>
<path d="M88.3195 31.6786C88.1374 30.9699 87.6833 30.3615 87.0555 29.9851C86.4278 29.6087 85.677 29.4945 84.9656 29.6674C84.5166 29.8213 84.1262 30.11 83.8477 30.4942C84.0059 31.1551 84.219 31.8017 84.4849 32.4272C84.915 33.4863 85.4866 34.4823 86.1842 35.3881C86.3963 35.3811 86.6066 35.3473 86.8103 35.2875C87.4845 35.0032 88.0202 34.4659 88.3024 33.7911C88.5846 33.1163 88.5908 32.3578 88.3195 31.6786Z" fill="#D0D1DE"/>
<path d="M47.737 63.4217C47.3569 67.2429 47.0551 75.2765 46.8203 76.3938H64.8418C65.1336 70.4376 65.1075 64.4701 64.7635 58.5167C64.529 55.4672 63.8938 52.4618 62.8742 49.5781C62.8742 49.5781 61.5214 49.1535 59.9228 48.5278C59.9228 48.5278 56.5689 50.5614 53.5057 48.5278C53.5057 48.5278 47.9159 49.8463 47.234 50.1703C46.552 50.4943 48.1619 59.3435 47.737 63.4217Z" fill="#FA8825"/>
<path d="M52.5442 68.6514C52.531 66.8656 52.1781 65.0987 51.5046 63.4446C51.3459 63.0693 51.2369 62.6749 51.1803 62.2714C51.0894 61.3451 50.8278 60.4435 50.4089 59.6122L49.1904 57.7798C48.9668 57.4781 48.732 57.1653 48.4749 56.7854C48.0603 56.1585 47.6869 55.5053 47.3569 54.8301C47.6796 57.6821 47.8066 60.5529 47.737 63.4223C47.3569 67.2435 47.0551 75.2771 46.8203 76.3944H55.2273C54.1392 74.8363 53.3403 73.0954 52.8685 71.2547C52.6374 70.4067 52.5282 69.5301 52.5442 68.6514Z" fill="#E98025"/>
</svg>
