<svg width="105" height="105" viewBox="0 0 105 105" fill="none" xmlns="http://www.w3.org/2000/svg">
<path d="M85.8734 70.2783H19.0801V80.0322H85.8734V70.2783Z" fill="#222222"/>
<path d="M88.118 23.9475H16.8334C14.5739 23.9475 12.7422 25.7701 12.7422 28.0184V72.8803C12.7422 75.1286 14.5739 76.9512 16.8334 76.9512H88.118C90.3775 76.9512 92.2092 75.1286 92.2092 72.8803V28.0184C92.2092 25.7701 90.3775 23.9475 88.118 23.9475Z" fill="#222222"/>
<path d="M88.5481 27.457H16.4023V72.8902H88.5481V27.457Z" fill="#FEFEFE"/>
<path d="M5 91.1023V92.5511C5 93.3571 5.88183 93.9999 6.95848 93.9999H98.0021C99.0787 93.9999 99.9605 93.3571 99.9605 92.5511V91.1023H5Z" fill="#222222"/>
<path d="M52.4861 79.9202H13.5216C13.3986 80.063 7.26682 85.5215 5.40063 89.5721C4.60083 91.3065 5.12377 92.2248 6.61057 92.2248H98.3925C99.8895 92.2248 100.443 91.3065 99.6127 89.5721C97.7362 85.4909 91.6147 80.063 91.4814 79.9202H52.4861Z" fill="#222222"/>
<path d="M95.028 90.1534H11.9824L17.7348 81.6748H89.2756L95.028 90.1534Z" fill="#9C9EB9"/>
<path d="M94.0251 88.6944L93.8405 88.4291H88.3035L87.2781 86.3885H92.4563L92.2717 86.1233H87.1448L86.1194 84.0827H90.8874L90.7131 83.8174H85.9554L84.93 81.7769H84.4583L85.4837 83.8174H79.5467L78.7162 81.7769H78.2445L79.0545 83.8174H73.1176L72.5024 81.7769H72.0204L72.6254 83.8174H66.6987L66.2886 81.7769H65.8066L66.1963 83.8174H60.2696L60.0747 81.7769H59.5928L59.7671 83.8174H54.1685V81.7769H53.6456V83.8174H47.8009L47.9855 81.7769H47.5036L47.3087 83.8174H41.382L41.7717 81.7769H41.2898L40.8796 83.8174H34.9529L35.5579 81.7769H35.076L34.4505 83.8174H28.534L29.3441 81.7769H28.8724L28.0418 83.8174H22.1049L23.1303 81.7769H22.6483L21.623 83.8174H16.3833L16.209 84.0827H21.4897L20.4643 86.1233H14.8247L14.6401 86.3885H20.331L19.3056 88.4291H13.1533L12.9688 88.6944H19.121L18.3828 90.1738H18.9262L19.6542 88.6944H26.0526L25.4579 90.1738H26.0013L26.5858 88.6944H32.9842L32.5433 90.1738H33.0867L33.5174 88.6944H39.9158L39.6184 90.1738H40.1721L40.4489 88.6944H46.8473L46.7038 90.1738H47.2472L47.3805 88.6944H53.6354V90.1738H54.1685V88.6944H60.2183L60.3516 90.1738H60.895L60.7515 88.6944H67.1499L67.4267 90.1738H67.9804L67.6831 88.6944H74.0815L74.5121 90.1738H75.0555L74.5736 88.6944H80.972L81.5565 90.1738H82.0999L81.5052 88.6944H87.8933L88.6316 90.1738H89.1751L88.4265 88.6944H94.0251ZM28.4007 84.0419H34.3582L33.7429 86.0825H27.5907L28.4007 84.0419ZM21.9408 84.0419H27.8983L27.078 86.0825H20.9257L21.9408 84.0419ZM26.1551 88.4291H19.7773L20.8026 86.3885H26.9549L26.1551 88.4291ZM33.056 88.4291H26.6781L27.4881 86.3885H33.6404L33.056 88.4291ZM39.9568 88.4291H33.5891L34.1839 86.3885H40.3362L39.9568 88.4291ZM40.4079 86.1029H34.2556L34.8504 84.0623H40.8386L40.4079 86.1029ZM46.8576 88.4291H40.49L40.8694 86.3885H47.0216L46.8576 88.4291ZM47.0729 86.1029H40.9206L41.3103 84.0623H47.2677L47.0729 86.1029ZM53.6251 88.4291H47.3908L47.5651 86.3885H53.6251V88.4291ZM53.6251 86.1029H47.5856L47.7599 84.0623H53.6251V86.1029ZM54.148 84.0623H59.8081L59.9825 86.1029H54.1685L54.148 84.0623ZM54.148 88.4495V86.4089H60.003L60.1773 88.4495H54.148ZM85.6272 84.0623L86.6526 86.1029H80.5003L79.68 84.0623H85.6272ZM79.1673 84.0623L79.9774 86.1029H73.8251L73.2099 84.0623H79.1673ZM60.3003 84.0623H66.2578L66.6474 86.1029H60.4952L60.3003 84.0623ZM60.7105 88.4495L60.5157 86.4089H66.6679L67.0473 88.4495H60.7105ZM66.7602 84.0623H72.7177L73.3124 86.1029H67.1601L66.7602 84.0623ZM67.6113 88.4495L67.2114 86.4089H73.3637L73.9584 88.4495H67.6113ZM74.5121 88.4495L73.9071 86.4089H80.0594L80.8695 88.4495H74.5121ZM81.4129 88.4495L80.5926 86.4089H86.7449L87.7703 88.4495H81.4129Z" fill="#D0D1DE"/>
<path d="M52.4875 92.2246H48.4475C48.4427 92.4276 48.5161 92.6247 48.6525 92.7756C48.7373 92.85 48.8471 92.8901 48.9602 92.8878H56.0148C56.1246 92.8895 56.231 92.8494 56.3121 92.7756C56.4486 92.6247 56.522 92.4276 56.5172 92.2246H52.4875Z" fill="#222222"/>
<path d="M88.5481 27.4673H16.4023V72.9005H88.5481V27.4673Z" fill="#FEFEFE"/>
<path d="M53.8185 50.6379L47.3073 53.5151L39.0735 45.3222L16.4023 62.514V72.8902H88.5481V27.457H81.1289L58.4122 55.8005L53.8185 50.6379Z" fill="#E5E6ED"/>
<path d="M32.9419 59.0247H30.6348V60.7591H32.9419V59.0247Z" fill="#FEFEFE"/>
<path d="M36.1821 59.0247H33.875V60.7591H36.1821V59.0247Z" fill="#FEFEFE"/>
<path d="M39.4341 59.0247H37.127V60.7591H39.4341V59.0247Z" fill="#B2D550"/>
<path d="M42.6841 59.0247H40.377V60.7591H42.6841V59.0247Z" fill="#FEFEFE"/>
<path d="M45.9223 59.0247H43.6152V60.7591H45.9223V59.0247Z" fill="#FEFEFE"/>
<path d="M49.1743 59.0247H46.8672V60.7591H49.1743V59.0247Z" fill="#B2D550"/>
<path d="M32.9419 61.9937H30.6348V63.7281H32.9419V61.9937Z" fill="#FEFEFE"/>
<path d="M36.1821 61.9937H33.875V63.7281H36.1821V61.9937Z" fill="#FEFEFE"/>
<path d="M39.4341 61.9937H37.127V63.7281H39.4341V61.9937Z" fill="#FEFEFE"/>
<path d="M42.6841 61.9937H40.377V63.7281H42.6841V61.9937Z" fill="#FEFEFE"/>
<path d="M45.9223 61.9937H43.6152V63.7281H45.9223V61.9937Z" fill="#B2D550"/>
<path d="M49.1743 61.9937H46.8672V63.7281H49.1743V61.9937Z" fill="#FEFEFE"/>
<path d="M32.9419 64.9626H30.6348V66.6971H32.9419V64.9626Z" fill="#FEFEFE"/>
<path d="M36.1821 64.9626H33.875V66.6971H36.1821V64.9626Z" fill="#B2D550"/>
<path d="M39.4341 64.9626H37.127V66.6971H39.4341V64.9626Z" fill="#FEFEFE"/>
<path d="M42.6841 64.9626H40.377V66.6971H42.6841V64.9626Z" fill="#FEFEFE"/>
<path d="M45.9223 64.9626H43.6152V66.6971H45.9223V64.9626Z" fill="#FEFEFE"/>
<path d="M49.1743 64.9626H46.8672V66.6971H49.1743V64.9626Z" fill="#FEFEFE"/>
<path d="M32.9419 67.9214H30.6348V69.6559H32.9419V67.9214Z" fill="#FEFEFE"/>
<path d="M36.1821 67.9214H33.875V69.6559H36.1821V67.9214Z" fill="#FEFEFE"/>
<path d="M39.4341 67.9214H37.127V69.6559H39.4341V67.9214Z" fill="#B2D550"/>
<path d="M42.6841 67.9214H40.377V69.6559H42.6841V67.9214Z" fill="#FEFEFE"/>
<path d="M54.5981 54.1171L54.3623 53.8825L54.0752 54.0049L53.8906 53.556L54.4648 53.3213L54.916 53.7702L54.5981 54.1171Z" fill="white"/>
<path d="M49.3486 55.9841L49.1641 55.525L49.9536 55.1985L50.1382 55.6474L49.3486 55.9841ZM50.9277 55.3209L50.7431 54.872L51.5327 54.5353L51.7172 54.9944L50.9277 55.3209ZM52.5068 54.6577L52.3222 54.2088L53.1015 53.8823L53.2861 54.3313L52.5068 54.6577Z" fill="white"/>
<path d="M47.9853 56.5556L47.5137 56.1373L47.811 55.77L48.0674 55.9843L48.375 55.8619L48.5596 56.3108L47.9853 56.5556Z" fill="white"/>
<path d="M46.8149 55.5253L46.1176 54.9233L46.415 54.556L47.1225 55.158L46.8149 55.5253ZM45.4204 54.3112L44.7128 53.7092L45.0204 53.3419L45.7177 53.9438L45.4204 54.3112ZM44.0156 53.1072L43.3183 52.495L43.6259 52.1277L44.3232 52.7297L44.0156 53.1072ZM42.6211 51.8931L41.9238 51.2809L42.2314 50.9136L42.9287 51.5258L42.6211 51.8931ZM41.2265 50.6789L40.5293 50.0668L40.8369 49.6995L41.5342 50.3116L41.2265 50.6789Z" fill="white"/>
<path d="M39.8223 49.4647L39.5967 49.2709L39.3608 49.4341L39.084 49.0362L39.6274 48.6587L40.1299 49.0974L39.8223 49.4647Z" fill="white"/>
<path d="M18.0327 64.3405L17.7559 63.9324L18.5864 63.3406L18.8735 63.759L18.0327 64.3405ZM19.7041 63.1672L19.4272 62.7591L20.2681 62.1775L20.5449 62.5856L19.7041 63.1672ZM21.3755 62.0041L21.0986 61.596L21.9292 61.0144L22.206 61.4225L21.3755 62.0041ZM23.0468 60.8409L22.7597 60.4328L23.5903 59.8513L23.8672 60.2594L23.0468 60.8409ZM24.6977 59.6778L24.4208 59.2697L25.2514 58.6984L25.5283 59.1065L24.6977 59.6778ZM26.3486 58.5249L26.0717 58.1168L26.9023 57.5454L27.1791 57.9535L26.3486 58.5249ZM27.9994 57.372L27.7226 56.9639L28.5429 56.3925L28.8197 56.8006L27.9994 57.372ZM29.64 56.2293L29.3632 55.8211L30.1835 55.2498L30.4603 55.6579L29.64 56.2293ZM31.2704 55.0865L30.9935 54.6784L31.8139 54.1071L32.0907 54.5152L31.2704 55.0865ZM32.9008 53.9438L32.6239 53.5459L33.4339 52.9746L33.7108 53.3827L32.9008 53.9438ZM34.5311 52.8113L34.2542 52.4134L35.054 51.842L35.3309 52.2502L34.5311 52.8113ZM36.141 51.6788L35.8641 51.2809L36.6742 50.7197L36.951 51.1176L36.141 51.6788ZM37.7508 50.5565L37.474 50.1586L38.284 49.5974L38.5609 49.9953L37.7508 50.5565Z" fill="white"/>
<path d="M60.4469 57.0107L60.1152 56.699L60.679 56.0157L61.0201 56.3176L60.4469 57.0107ZM61.5839 55.6343L61.2427 55.3324L61.8065 54.6491L62.1477 54.951L61.5839 55.6343ZM62.7115 54.2677L62.3703 53.9658L62.9341 53.2825L63.2753 53.5844L62.7115 54.2677ZM63.8392 52.9107L63.4981 52.6088L64.0618 51.9255L64.3934 52.2276L63.8392 52.9107ZM64.9573 51.5539L64.6162 51.252L65.1802 50.5783L65.5117 50.8804L64.9573 51.5539ZM66.0755 50.1971L65.7343 49.8952L66.2983 49.2215L66.6298 49.5235L66.0755 50.1971ZM67.1842 48.85L66.8528 48.5576L67.4072 47.8841L67.7388 48.1861L67.1842 48.85ZM68.2931 47.5126L67.9616 47.2106L68.5161 46.5466L68.8475 46.8391L68.2931 47.5126ZM69.402 46.1752L69.0705 45.8731L69.6154 45.2094L69.9469 45.5114L69.402 46.1752ZM70.5013 44.8379L70.1699 44.5455L70.7149 43.8818L71.0462 44.1742L70.5013 44.8379ZM71.6008 43.5103L71.2694 43.2179L71.8143 42.5541L72.1457 42.8466L71.6008 43.5103ZM72.6908 42.1924L72.3593 41.8904L72.9044 41.2363L73.2358 41.5287L72.6908 42.1924ZM73.7809 40.8746L73.4493 40.5725L73.9944 39.9184L74.3258 40.2109L73.7809 40.8746ZM74.8709 39.5567L74.5395 39.2643L75.0749 38.6007L75.4064 38.9028L74.8709 39.5567ZM75.9515 38.2487L75.62 37.9466L76.1651 37.2925L76.4871 37.5947L75.9515 38.2487ZM77.0322 36.9406L76.7008 36.6482L77.2363 35.9942L77.5677 36.2867L77.0322 36.9406ZM78.1034 35.6423L77.7718 35.3403L78.3075 34.696L78.6389 34.9884L78.1034 35.6423ZM79.1745 34.3441L78.8432 34.0516L79.3401 33.3887L79.6717 33.6908L79.1745 34.3441ZM80.2459 33.0554L79.9143 32.7534L80.45 32.109L80.772 32.4112L80.2459 33.0554ZM81.3077 31.7669L80.9761 31.4649L81.512 30.8301L81.8338 31.1227L81.3077 31.7669ZM82.3694 30.4784L82.0381 30.186L82.5739 29.5513L82.8957 29.8439L82.3694 30.4784ZM83.4218 29.1997L83.1 28.9071L83.6263 28.2726L83.9481 28.5652L83.4218 29.1997Z" fill="white"/>
<path d="M59.1108 58.5352L58.5879 58.0251L58.9058 57.6782L59.0801 57.8414L59.2236 57.668L59.5825 57.9945L59.1108 58.5352Z" fill="white"/>
<path d="M57.7886 57.2392L56.9888 56.4536L57.3169 56.1067L58.1167 56.8923L57.7886 57.2392ZM56.2197 55.6782L55.4199 54.8925L55.7378 54.5457L56.5376 55.3313L56.2197 55.6782Z" fill="white"/>
<path d="M86.6306 14.2139L58.5147 49.6891L53.962 44.2204L47.297 47.3628L38.8376 38.3844L16.4023 56.525V58.7084L38.7864 40.6188L47.1227 49.4748L53.7467 46.3426L58.5557 52.1276L87.7483 15.3158C87.3477 14.9778 86.974 14.6094 86.6306 14.2139Z" fill="#FA8825"/>
<path d="M90.9897 11L84.3555 13.2344L88.7441 17.6012L90.9897 11Z" fill="#FA8825"/>
<path d="M25.0879 33.2423C26.5849 33.3545 27.9589 33.9973 27.9692 35.4869H25.457C25.457 34.9258 24.852 34.8136 24.4931 34.8136C24.1342 34.8136 23.519 34.8136 23.519 35.2727C23.519 36.293 28.123 35.2115 28.1435 38.0989C28.1435 39.8333 26.8002 40.4863 25.1186 40.6088L25.2417 42.4555H23.7138L23.7959 40.5986C22.2475 40.4455 20.7915 39.7313 20.7812 38.1703H23.2832V38.2315C23.2832 38.9151 24.0727 39.0477 24.4624 39.0375C24.852 39.0273 25.58 39.0375 25.58 38.507C25.58 37.4867 20.9761 38.4458 20.9555 35.6502C20.9555 34.0381 22.2065 33.4056 23.7548 33.2627L23.6523 31.416H25.1699L25.0879 33.2423Z" fill="#B2D550"/>
<path d="M63.2008 83.2258C63.2008 83.2258 63.3033 85.2664 63.0162 85.5521C62.7291 85.8378 58.6891 86.2867 58.32 85.95C57.9508 85.6133 58.0944 84.9297 58.9455 84.6644C59.7965 84.3992 60.3195 84.5522 60.8834 84.2665C61.4474 83.9809 61.2218 83.083 61.2218 83.083L63.2008 83.2258Z" fill="#222222"/>
<path d="M76.3862 83.2258C76.3862 83.2258 76.2837 85.2664 76.581 85.5521C76.8784 85.8378 80.8979 86.2867 81.2773 85.95C81.6567 85.6133 81.4926 84.9297 80.6518 84.6644C79.811 84.3992 79.2675 84.5522 78.7036 84.2665C78.1396 83.9809 78.3652 83.083 78.3652 83.083L76.3862 83.2258Z" fill="#222222"/>
<path d="M76.6132 71.5436C75.6014 68.0408 74.3754 64.6029 72.9423 61.2489C72.5937 61.1265 72.204 61.0142 71.8144 60.902C71.9169 60.4327 71.9887 60.0246 72.0605 59.6675C71.3735 59.8511 70.6557 59.9429 69.9174 60.1674L69.5893 60.2694L69.2612 60.1674C68.5229 59.9429 67.7949 59.8511 67.1181 59.6675C67.1899 60.0246 67.2617 60.4327 67.3642 60.902C66.9746 61.0142 66.5849 61.1265 66.2363 61.2489C64.8032 64.6029 63.5773 68.0408 62.5654 71.5436C61.9605 74.6044 60.9453 83.6135 60.9453 83.6135L63.5293 83.9604C63.5293 83.9604 66.1338 71.819 66.5029 71.1558C67.1694 69.9417 67.8667 68.8806 68.4921 67.9318C68.6116 67.7507 68.7744 67.6021 68.9659 67.4993C69.1574 67.3964 69.3717 67.3425 69.5893 67.3425C69.8069 67.3425 70.0212 67.3964 70.2127 67.4993C70.4042 67.6021 70.567 67.7507 70.6864 67.9318C71.3119 68.8806 72.0092 69.9723 72.6757 71.1558C73.0448 71.819 75.6493 83.9604 75.6493 83.9604L78.2333 83.6135C78.2333 83.6135 77.2182 74.584 76.6132 71.5436Z" fill="#FA8825"/>
<path d="M77.3205 33.9973C77.1666 32.9771 77.0129 32.7934 76.6642 32.5792C76.4921 32.5037 76.3382 32.3924 76.2131 32.2527C76.0732 32.092 75.9149 31.9482 75.7414 31.8241C75.5584 31.7116 75.4123 31.5486 75.321 31.3548C75.2389 31.11 75.5671 31.1712 75.7824 31.2528C75.9977 31.3344 76.4489 31.967 76.7052 31.8854C76.9616 31.8037 76.3669 31.0589 76.2541 30.8651C75.9772 30.5182 75.6389 30.5692 75.2287 30.406C74.8185 30.2427 74.9416 30.2121 75.1672 30.0693C75.3928 29.9264 75.5671 30.0693 75.7414 30.0693C76.1303 30.1877 76.483 30.4017 76.7668 30.6916C76.5288 30.4069 76.2314 30.1771 75.8952 30.0183C75.7106 29.9264 74.8698 29.6611 74.9724 29.3551C75.2184 28.7429 76.9001 29.8958 77.0846 30.2223C76.8533 29.9308 76.5721 29.6821 76.2541 29.4877C76.0798 29.3653 75.6491 29.0796 76.008 28.9367C76.5514 28.7225 77.1974 29.7122 77.5666 30.1101C77.3963 29.8017 77.186 29.517 76.9411 29.2632C76.6437 28.9061 77.0129 28.8143 77.382 29.1306C77.5522 29.292 77.7098 29.4659 77.8537 29.651C78.3228 30.2596 78.5753 31.0061 78.5714 31.7731C78.5714 32.0996 78.5714 32.6302 78.715 33.5688C78.7765 34.1912 77.7511 33.9055 77.3205 33.9973Z" fill="#FBBFAF"/>
<path d="M52.1175 48.6078C51.0921 48.2405 50.9998 47.8426 50.8768 47.4549C50.83 47.272 50.7501 47.0991 50.6409 46.9448C50.5164 46.7724 50.4099 46.5877 50.323 46.3938C50.2551 46.1931 50.1261 46.0184 49.9539 45.8939C49.7283 45.751 49.7283 46.0877 49.7591 46.3122C49.7899 46.5367 50.323 47.1182 50.1795 47.3325C50.0359 47.5467 49.4412 46.8326 49.3182 46.6795C49.0413 46.3428 49.1541 46.0265 49.0823 45.6592C49.0311 45.4348 48.9388 45.3429 48.7542 45.5368C48.7028 45.6198 48.6689 45.7124 48.6548 45.8089C48.6407 45.9054 48.6466 46.0038 48.6722 46.0979C48.7147 46.4903 48.848 46.8675 49.0618 47.1998C48.8427 46.8916 48.6828 46.5457 48.5901 46.1796C48.5389 45.9755 48.4671 45.0777 48.139 45.1593C47.4827 45.2715 48.262 47.1488 48.5389 47.3937C48.3062 47.1074 48.1258 46.7828 48.0057 46.4346C47.9134 46.2306 47.7288 45.751 47.5135 46.0775C47.1854 46.5571 48.0159 47.3937 48.3235 47.8426C48.0634 47.6095 47.8327 47.3456 47.6365 47.057C47.3494 46.6897 47.1751 47.057 47.411 47.4549C47.5309 47.651 47.6645 47.8385 47.8108 48.0161C48.3073 48.6073 48.9904 49.0137 49.7488 49.169C50.3232 49.317 50.8801 49.5256 51.4099 49.7914C51.9226 50.026 51.9534 49.0262 52.1175 48.6078Z" fill="#FBBFAF"/>
<path d="M70.8599 46.6487C70.3022 46.7516 69.7331 46.7791 69.168 46.7303C68.9662 46.7091 68.7669 46.6681 68.5732 46.6079C68.6814 47.6283 68.5188 48.659 68.1016 49.5973C68.1016 49.5973 68.2759 50.3829 69.7217 50.4033C71.1675 50.4237 71.3418 49.5973 71.3418 49.5973C70.9761 48.6587 70.812 47.6543 70.8599 46.6487Z" fill="#FBBFAF"/>
<path d="M76.4079 50.6176C75.4106 49.7275 74.1991 49.1089 72.8908 48.8219C70.8528 48.4998 68.7765 48.4998 66.7385 48.8219C65.6921 48.8744 64.6838 49.2289 63.8366 49.8422C63.3444 50.4748 64.8107 53.9744 65.0568 57.1883C65.2619 59.8614 65.6311 61.9224 65.6311 61.9224C66.4309 63.4018 72.7575 63.4426 73.5676 61.9224C73.5676 61.9224 73.7213 59.6369 74.152 57.1475C74.6749 53.9438 76.9103 51.2502 76.4079 50.6176Z" fill="#B2D550"/>
<path d="M66.2573 56.4432C66.4367 55.3793 66.4367 54.2931 66.2573 53.2293C65.7202 52.2725 64.8478 51.5461 63.8066 51.1887C64.3407 53.1665 64.7415 55.1775 65.0064 57.2084C65.2114 59.8815 65.5806 61.9425 65.5806 61.9425C65.8115 62.2669 66.1486 62.5013 66.5342 62.6057C65.6421 60.861 66.1753 58.0858 66.2573 56.4432Z" fill="#95B639"/>
<path d="M72.8091 42.7816C72.8091 42.7816 69.815 41.0369 69.3638 41.4654C68.9127 41.894 68.2051 43.353 67.8565 43.5774C67.5079 43.8019 66.9849 44.0161 67.026 44.2814C67.067 44.5467 67.2515 44.5569 67.2413 44.8222C67.231 45.0874 66.6158 46.3526 66.9439 46.7301C67.4932 47.112 68.1334 47.3441 68.8009 47.4032C69.4683 47.4622 70.1397 47.3463 70.7481 47.0668C72.0606 46.1587 74.2754 43.5264 72.8091 42.7816Z" fill="#FBBFAF"/>
<path d="M73.4648 43.3838H70.9526C70.6155 44.1817 70.0832 44.8832 69.4043 45.4243C69.4043 45.4243 69.4658 45.7916 69.7324 45.7202C69.8581 45.7071 69.9789 45.6653 70.0857 45.598C70.1924 45.5308 70.282 45.4399 70.3477 45.3325C70.522 45.057 71.0654 44.3122 71.4346 44.9652C71.8037 45.6182 71.0141 45.8222 70.686 45.8222C70.686 45.8222 69.5376 47.1996 70.4297 47.4547C71.4262 47.1415 72.3028 46.5327 72.9419 45.71C74.4492 44.149 74.1416 43.2613 73.4648 43.3838Z" fill="#222222"/>
<path d="M68.7076 40.4556C68.7076 40.4556 67.4874 41.2004 68.9025 42.6798C70.3175 44.1592 73.65 43.3838 73.65 43.3838C73.65 43.3838 73.9986 42.3635 72.7989 41.4044C72.4677 41.0394 72.0414 40.7728 71.5672 40.6341C71.093 40.4955 70.5894 40.4902 70.1124 40.6188C68.7692 41.2412 68.7076 40.4556 68.7076 40.4556Z" fill="#222222"/>
<path d="M51.8086 48.1282L50.7832 49.832C52.6289 51.5542 54.6071 53.1302 56.6996 54.5457C58.5351 55.7599 64.8411 53.8111 65.8152 53.5255C67.2097 53.1071 68.2557 50.1789 65.9383 49.0872C64.5745 48.4444 59.1195 52.5766 57.7353 51.8726C56.0639 51.0054 51.8086 48.1282 51.8086 48.1282Z" fill="#B2D550"/>
<path d="M76.8579 33.5993L78.9805 33.2422C78.9805 33.2422 80.3852 39.3639 80.3032 41.5371C80.2212 43.7103 76.7041 51.7399 75.9043 52.3419C74.9405 53.0969 72.2745 50.9237 74.2124 48.5872C76.1504 46.2508 77.4014 41.4453 77.4526 41.2514C77.5039 41.0576 76.8579 33.5993 76.8579 33.5993Z" fill="#B2D550"/>
<path d="M50.0867 30.0793H32.9629V31.6098H50.0867V30.0793Z" fill="#D0D1DE"/>
<path d="M50.0867 32.4973H32.9629V34.0277H50.0867V32.4973Z" fill="#D0D1DE"/>
<path d="M45.9237 34.9258H32.9629V36.4562H45.9237V34.9258Z" fill="#D0D1DE"/>
</svg>
