<svg width="105" height="105" viewBox="0 0 105 105" fill="none" xmlns="http://www.w3.org/2000/svg">
<g clip-path="url(#clip0)">
<path d="M72.595 13.3965H30.9743C29.9357 13.3965 29.0938 14.2356 29.0938 15.2707V86.615C29.0938 87.6501 29.9357 88.4892 30.9743 88.4892H72.595C73.6335 88.4892 74.4755 87.6501 74.4755 86.615V15.2707C74.4755 14.2356 73.6335 13.3965 72.595 13.3965Z" fill="#222222"/>
<path d="M71.4628 16.5015H32.5723V82.3021H71.4628V16.5015Z" fill="#D0D1DE"/>
<path d="M51.7762 86.3892C51.5342 86.3892 51.2977 86.3176 51.0965 86.1836C50.8953 86.0497 50.7385 85.8592 50.6459 85.6364C50.5533 85.4136 50.529 85.1684 50.5762 84.9319C50.6235 84.6954 50.74 84.4781 50.9111 84.3076C51.0822 84.137 51.3002 84.0209 51.5375 83.9739C51.7748 83.9268 52.0209 83.951 52.2444 84.0433C52.468 84.1356 52.659 84.2918 52.7935 84.4924C52.9279 84.6929 52.9997 84.9286 52.9997 85.1698C52.9997 85.4932 52.8708 85.8033 52.6413 86.032C52.4119 86.2607 52.1007 86.3892 51.7762 86.3892Z" fill="white"/>
<path d="M35.5184 18.5449H34.5215C34.2712 18.5449 34.0684 18.7471 34.0684 18.9966V19.6288C34.0684 19.8782 34.2712 20.0804 34.5215 20.0804H35.5184C35.7687 20.0804 35.9715 19.8782 35.9715 19.6288V18.9966C35.9715 18.7471 35.7687 18.5449 35.5184 18.5449Z" fill="white"/>
<path d="M40.7332 18.5449H39.7363C39.4861 18.5449 39.2832 18.7471 39.2832 18.9966V19.6288C39.2832 19.8782 39.4861 20.0804 39.7363 20.0804H40.7332C40.9835 20.0804 41.1864 19.8782 41.1864 19.6288V18.9966C41.1864 18.7471 40.9835 18.5449 40.7332 18.5449Z" fill="white"/>
<path d="M65.8563 18.5449H64.8594C64.6091 18.5449 64.4062 18.7471 64.4062 18.9966V19.6288C64.4062 19.8782 64.6091 20.0804 64.8594 20.0804H65.8563C66.1065 20.0804 66.3094 19.8782 66.3094 19.6288V18.9966C66.3094 18.7471 66.1065 18.5449 65.8563 18.5449Z" fill="white"/>
<path d="M60.0223 18.5449H59.0254C58.7751 18.5449 58.5723 18.7471 58.5723 18.9966V19.6288C58.5723 19.8782 58.7751 20.0804 59.0254 20.0804H60.0223C60.2726 20.0804 60.4754 19.8782 60.4754 19.6288V18.9966C60.4754 18.7471 60.2726 18.5449 60.0223 18.5449Z" fill="white"/>
<path d="M69.5164 18.5449H68.5195C68.2693 18.5449 68.0664 18.7471 68.0664 18.9966V19.6288C68.0664 19.8782 68.2693 20.0804 68.5195 20.0804H69.5164C69.7667 20.0804 69.9696 19.8782 69.9696 19.6288V18.9966C69.9696 18.7471 69.7667 18.5449 69.5164 18.5449Z" fill="white"/>
<path d="M43.9131 47.6742C43.8335 47.5059 43.7653 47.3324 43.7092 47.1549C43.1428 45.2919 43.6185 43.4967 44.842 43.1354C46.0655 42.7742 47.4136 43.9935 47.98 45.8564C48.0359 46.0343 48.0813 46.2152 48.1159 46.3984L48.4898 46.2855C48.4552 46.1023 48.4098 45.9214 48.3538 45.7436C47.6741 43.5532 46.0202 42.1306 44.6494 42.5484C43.2787 42.9661 42.7236 45.0774 43.4033 47.2677C43.4033 47.4484 43.5166 47.6178 43.5846 47.7871L43.9131 47.6742Z" fill="#222222"/>
<path d="M55.0832 56.4018L43.7548 59.8792L41.1152 47.9678L50.5292 45.0774L55.0832 56.4018Z" fill="white"/>
<path d="M55.8969 43.0115C55.9151 42.8253 55.9454 42.6405 55.9875 42.4582C56.4406 40.5615 57.7661 39.2518 58.9442 39.534C60.1224 39.8163 60.7341 41.5776 60.281 43.4631C60.281 43.655 60.179 43.8357 60.1224 44.005L60.5076 44.0953C60.5642 43.9147 60.6095 43.7454 60.6548 43.5534C61.1873 41.2953 60.4849 39.2631 59.0915 38.9356C57.6981 38.6082 56.1461 40.1437 55.6137 42.3228C55.5678 42.5048 55.5337 42.6896 55.5117 42.876L55.8969 43.0115Z" fill="#222222"/>
<path d="M61.087 56.1987L49.5547 53.4777L53.3384 41.8711L62.9222 44.1405L61.087 56.1987Z" fill="#FA8825"/>
<path d="M58.2773 29.8012C58.2795 31.037 57.9137 32.2457 57.2262 33.2742C56.5387 34.3027 55.5604 35.1047 54.4153 35.5787C53.2701 36.0527 52.0095 36.1772 50.7933 35.9367C49.577 35.6961 48.4597 35.1013 47.5829 34.2274C46.7061 33.3535 46.1092 32.24 45.8679 31.0278C45.6265 29.8156 45.7515 28.5593 46.2271 27.4179C46.7026 26.2766 47.5073 25.3016 48.5393 24.6164C49.5712 23.9312 50.784 23.5666 52.024 23.5689C53.6815 23.5718 55.2704 24.2294 56.4424 25.3976C57.6145 26.5657 58.2743 28.1492 58.2773 29.8012Z" fill="white"/>
<path d="M51.7061 29.858C51.6041 29.858 50.7205 27.3402 50.426 27.4306C50.1314 27.5209 48.8627 28.1306 48.84 28.5596C48.8174 28.9886 51.1057 33.0758 51.5362 33.0758C52.3518 33.0758 55.807 28.5596 55.5238 28.0289C55.2406 27.4983 53.9491 26.7983 53.7452 26.9902C53.5413 27.1821 51.7741 29.8693 51.7061 29.858Z" fill="#B2D550"/>
<path d="M58.1641 73.563H46.2126C45.2365 73.563 44.4453 74.3516 44.4453 75.3243V76.7017C44.4453 77.6745 45.2365 78.463 46.2126 78.463H58.1641C59.1401 78.463 59.9313 77.6745 59.9313 76.7017V75.3243C59.9313 74.3516 59.1401 73.563 58.1641 73.563Z" fill="#FA8825"/>
<path d="M50.6407 75.4033C50.6389 75.5241 50.5966 75.6407 50.5207 75.7348C50.4447 75.8289 50.3395 75.895 50.2215 75.9227C50.3625 75.9469 50.4902 76.0205 50.5816 76.1302C50.673 76.2399 50.7221 76.3785 50.72 76.5211C50.72 76.9388 50.3575 77.1872 49.791 77.1872H48.6582V74.8049H49.791C50.2895 74.8049 50.6407 75.042 50.6407 75.4033ZM49.995 75.5162C49.995 75.3695 49.893 75.2904 49.7117 75.2904H49.236V75.7533H49.7117C49.893 75.7533 49.995 75.663 49.995 75.5162ZM50.0743 76.4533C50.0743 76.2953 49.9383 76.2049 49.7117 76.2049H49.236V76.7017H49.7117C49.9383 76.7017 50.0743 76.6114 50.0743 76.4533Z" fill="white"/>
<path d="M52.1278 76.6904C52.1932 76.694 52.2586 76.6834 52.3195 76.6594C52.3804 76.6354 52.4353 76.5985 52.4805 76.5513C52.5258 76.5041 52.5602 76.4477 52.5814 76.3859C52.6027 76.3242 52.6102 76.2586 52.6036 76.1937V74.8049H53.2266V76.1937C53.2266 76.4931 53.1073 76.7802 52.8948 76.992C52.6824 77.2037 52.3942 77.3227 52.0938 77.3227C51.7933 77.3227 51.5052 77.2037 51.2927 76.992C51.0803 76.7802 50.9609 76.4931 50.9609 76.1937V74.8049H51.584V76.1937C51.5777 76.2645 51.5878 76.3358 51.6136 76.4021C51.6394 76.4684 51.6802 76.5278 51.7328 76.5759C51.7854 76.6239 51.8484 76.6592 51.9169 76.6791C51.9854 76.699 52.0575 76.7028 52.1278 76.6904Z" fill="white"/>
<path d="M54.9012 76.4308V77.1872H54.2781V76.442L53.3945 74.8049H54.0403L54.6067 75.8324L55.1618 74.8049H55.7848L54.9012 76.4308Z" fill="white"/>
<path d="M19.035 43.6094C18.9554 43.5406 18.8516 43.506 18.7464 43.5134C18.6413 43.5208 18.5434 43.5696 18.4743 43.649C18.4052 43.7283 18.3705 43.8318 18.3779 43.9366C18.3854 44.0414 18.4343 44.1389 18.5139 44.2078C19.4768 45.0546 20.4964 45.9127 21.5386 46.782C21.6113 46.8432 21.7041 46.8753 21.7992 46.8724C21.858 46.8728 21.9162 46.8598 21.9692 46.8344C22.0222 46.8089 22.0687 46.7717 22.105 46.7256C22.1706 46.6445 22.2015 46.541 22.1909 46.4374C22.1803 46.3338 22.1291 46.2385 22.0484 46.1723C21.0062 45.2691 20.0546 44.4562 19.035 43.6094Z" fill="#222222"/>
<path d="M27.4163 25.669C27.5102 25.6699 27.6013 25.6375 27.6735 25.5778C27.7457 25.518 27.7943 25.4346 27.8106 25.3425C27.827 25.2503 27.8099 25.1554 27.7626 25.0746C27.7153 24.9938 27.6407 24.9324 27.5522 24.9012C26.2495 24.427 24.9807 23.9979 23.7799 23.6254C23.73 23.6096 23.6776 23.6039 23.6255 23.6084C23.5734 23.613 23.5228 23.6278 23.4764 23.6519C23.4301 23.676 23.389 23.709 23.3556 23.7491C23.3221 23.7891 23.2969 23.8353 23.2814 23.8851C23.264 23.9347 23.257 23.9873 23.2608 24.0397C23.2646 24.0921 23.2792 24.1432 23.3036 24.1898C23.328 24.2364 23.3618 24.2774 23.4028 24.3104C23.4438 24.3435 23.4912 24.3678 23.542 24.3818C24.7315 24.7544 25.9889 25.1835 27.2917 25.6464C27.3302 25.6655 27.3734 25.6734 27.4163 25.669Z" fill="#222222"/>
<path d="M13.3262 38.1563C13.2526 38.08 13.1516 38.0359 13.0453 38.0338C12.9391 38.0317 12.8364 38.0717 12.7598 38.145C12.6832 38.2184 12.6389 38.3191 12.6368 38.4249C12.6347 38.5308 12.6748 38.6332 12.7484 38.7095C13.6207 39.6241 14.5723 40.5724 15.5692 41.5208C15.6472 41.5908 15.7476 41.6308 15.8524 41.6337C15.9307 41.6297 16.006 41.6033 16.0696 41.5577C16.1332 41.5121 16.1822 41.4493 16.2109 41.3766C16.2396 41.304 16.2467 41.2247 16.2313 41.1482C16.216 41.0716 16.1788 41.0011 16.1243 40.945C15.1387 40.0079 14.1872 39.0708 13.3262 38.1563Z" fill="#222222"/>
<path d="M31.5082 53.3533C31.4652 53.3233 31.4166 53.3022 31.3653 53.291C31.314 53.2799 31.261 53.279 31.2094 53.2885C31.1577 53.2979 31.1085 53.3175 31.0645 53.3461C31.0205 53.3747 30.9827 53.4117 30.9531 53.4549C30.921 53.4966 30.8977 53.5443 30.8848 53.5953C30.8719 53.6462 30.8696 53.6993 30.8781 53.7512C30.8866 53.803 30.9057 53.8526 30.9342 53.8968C30.9627 53.941 31 53.9789 31.0438 54.0082C32.1087 54.7533 33.2075 55.5098 34.3177 56.2663C34.3848 56.3106 34.4637 56.3342 34.5443 56.334C34.6087 56.3345 34.6723 56.3194 34.7296 56.2899C34.7868 56.2603 34.836 56.2174 34.8728 56.1646C34.9295 56.0758 34.9494 55.9684 34.9283 55.8652C34.9071 55.762 34.8466 55.671 34.7595 55.6114C33.6493 54.855 32.5165 54.1098 31.5082 53.3533Z" fill="#222222"/>
<path d="M25.1435 48.6567C25.1018 48.6248 25.0543 48.6014 25.0036 48.5878C24.9528 48.5743 24.8999 48.5708 24.8479 48.5776C24.7958 48.5844 24.7456 48.6014 24.7001 48.6275C24.6546 48.6537 24.6147 48.6885 24.5827 48.73C24.5507 48.7716 24.5273 48.8189 24.5137 48.8695C24.5 48.92 24.4966 48.9728 24.5034 49.0247C24.5102 49.0766 24.5273 49.1266 24.5535 49.172C24.5798 49.2173 24.6147 49.257 24.6564 49.2889C25.6759 50.0792 26.7295 50.8808 27.817 51.6825C27.8586 51.7136 27.906 51.7362 27.9565 51.7491C28.0069 51.762 28.0594 51.7649 28.111 51.7575C28.1625 51.7502 28.2121 51.7328 28.2569 51.7064C28.3017 51.6799 28.3408 51.6449 28.3721 51.6034C28.4048 51.5625 28.4288 51.5154 28.4426 51.4649C28.4564 51.4144 28.4597 51.3616 28.4523 51.3098C28.4449 51.2579 28.4269 51.2082 28.3994 51.1636C28.372 51.1189 28.3357 51.0803 28.2928 51.0502C27.2166 50.2373 26.163 49.4357 25.1435 48.6567Z" fill="#222222"/>
<path d="M15.8864 22.5076C17.0872 22.6995 18.3787 22.9705 19.7381 23.3092H19.84C19.9377 23.3112 20.0327 23.2772 20.1067 23.2138C20.1808 23.1503 20.2288 23.0618 20.2414 22.9652C20.254 22.8687 20.2305 22.7709 20.1752 22.6906C20.12 22.6103 20.0369 22.5532 19.942 22.5302C18.5599 22.1802 17.2345 21.9092 16.011 21.706C15.9074 21.6897 15.8015 21.715 15.7166 21.7764C15.6317 21.8378 15.5746 21.9302 15.5579 22.0334C15.5411 22.1394 15.5658 22.2477 15.627 22.336C15.6881 22.4243 15.781 22.4857 15.8864 22.5076Z" fill="#222222"/>
<path d="M91.164 70.3569C91.1964 70.4251 91.2478 70.4826 91.3121 70.5226C91.3763 70.5627 91.4507 70.5835 91.5265 70.5827C91.5827 70.5929 91.6402 70.5929 91.6964 70.5827C91.7445 70.5611 91.7875 70.5298 91.823 70.4909C91.8584 70.452 91.8855 70.4063 91.9025 70.3565C91.9195 70.3068 91.926 70.2541 91.9218 70.2017C91.9175 70.1493 91.9025 70.0984 91.8777 70.052C91.2575 68.8693 90.5454 67.7368 89.7479 66.6649C89.6863 66.5796 89.5932 66.5221 89.4891 66.5052C89.385 66.4882 89.2784 66.5132 89.1928 66.5746C89.1072 66.636 89.0495 66.7287 89.0325 66.8325C89.0155 66.9362 89.0406 67.0425 89.1022 67.1278C89.8725 68.1492 90.5618 69.2288 91.164 70.3569Z" fill="#222222"/>
<path d="M5.79304 25.8948C5.79546 25.6258 5.822 25.3575 5.87234 25.0932C5.87955 24.9974 5.85151 24.9023 5.79346 24.8256C5.7354 24.7489 5.65131 24.6959 5.55691 24.6766C5.46251 24.6572 5.36426 24.6728 5.28053 24.7204C5.19681 24.768 5.13334 24.8443 5.102 24.9351C5.03275 25.2503 4.99856 25.5722 5.00005 25.8948C5.03975 26.969 5.28186 28.0261 5.71374 29.011C5.7448 29.0843 5.79678 29.147 5.86324 29.1911C5.9297 29.2353 6.00771 29.259 6.08758 29.2594C6.13612 29.2697 6.18631 29.2697 6.23485 29.2594C6.284 29.2421 6.329 29.2149 6.36696 29.1793C6.40492 29.1437 6.43499 29.1006 6.45526 29.0528C6.47553 29.0049 6.48554 28.9534 6.48464 28.9015C6.48375 28.8496 6.47198 28.7984 6.45009 28.7513C6.05068 27.8495 5.82767 26.88 5.79304 25.8948Z" fill="#222222"/>
<path d="M12.0001 21.345H11.7622C10.4702 21.3118 9.1822 21.5028 7.95585 21.9095C7.86733 21.9407 7.79278 22.0021 7.74546 22.0829C7.69814 22.1637 7.68113 22.2586 7.69744 22.3508C7.71375 22.4429 7.76234 22.5263 7.83455 22.5861C7.90676 22.6459 7.99792 22.6782 8.09179 22.6772H8.22773C9.36799 22.3074 10.5635 22.1355 11.7622 22.1692H12.0001C12.1053 22.1692 12.2061 22.1276 12.2805 22.0535C12.3548 21.9794 12.3966 21.8788 12.3966 21.774C12.4013 21.7194 12.3946 21.6643 12.3768 21.6124C12.359 21.5605 12.3305 21.5128 12.2932 21.4724C12.2559 21.4321 12.2106 21.3999 12.1601 21.378C12.1097 21.356 12.0552 21.3448 12.0001 21.345Z" fill="#222222"/>
<path d="M8.33245 32.1046C8.27386 32.0163 8.18246 31.9548 8.07836 31.9336C7.97426 31.9124 7.86599 31.9333 7.77735 31.9917C7.68872 32.0501 7.62699 32.1412 7.60575 32.245C7.5845 32.3487 7.60548 32.4566 7.66407 32.545C8.34378 33.5498 9.15942 34.6224 10.0884 35.7402C10.1268 35.783 10.174 35.8173 10.2267 35.8406C10.2794 35.864 10.3365 35.8759 10.3942 35.8756C10.4397 35.878 10.4852 35.8712 10.528 35.8557C10.5709 35.8402 10.6101 35.8163 10.6434 35.7853C10.7241 35.7192 10.7753 35.6239 10.7859 35.5203C10.7965 35.4167 10.7657 35.3131 10.7001 35.2321C9.79382 34.1369 8.9895 33.0869 8.33245 32.1046Z" fill="#222222"/>
<path d="M77.2188 76.5209C76.018 76.1935 74.7492 75.8096 73.4351 75.3918C73.336 75.3596 73.228 75.3675 73.1347 75.414C73.0414 75.4605 72.9703 75.5418 72.9367 75.6402C72.9172 75.6897 72.9083 75.7427 72.9105 75.7959C72.9126 75.849 72.9259 75.9011 72.9493 75.9489C72.9727 75.9966 73.0059 76.039 73.0466 76.0733C73.0873 76.1077 73.1348 76.1332 73.1859 76.1483C74.5113 76.5774 75.7914 76.9612 77.0036 77.2774H77.1169C77.2145 77.2794 77.3095 77.2454 77.3836 77.1819C77.4577 77.1184 77.5056 77.0299 77.5182 76.9334C77.5309 76.8369 77.5073 76.739 77.452 76.6587C77.3968 76.5785 77.3137 76.5213 77.2188 76.4983V76.5209Z" fill="#222222"/>
<path d="M41.4214 59.9469C40.2886 59.2469 39.1557 58.5356 38.0229 57.8356C37.979 57.8074 37.93 57.7881 37.8786 57.7788C37.8273 57.7695 37.7746 57.7704 37.7236 57.7814C37.6725 57.7924 37.6242 57.8133 37.5813 57.843C37.5384 57.8726 37.5017 57.9104 37.4735 57.9541C37.4452 57.9978 37.4259 58.0467 37.4165 58.0979C37.4072 58.1491 37.4081 58.2016 37.4192 58.2524C37.4302 58.3033 37.4512 58.3515 37.4809 58.3943C37.5106 58.437 37.5485 58.4735 37.5924 58.5017C38.7253 59.213 39.8581 59.913 40.991 60.613C41.0498 60.657 41.1213 60.6807 41.1949 60.6807C41.2633 60.6807 41.3306 60.663 41.3902 60.6294C41.4497 60.5958 41.4995 60.5473 41.5347 60.4888C41.564 60.4462 41.5843 60.398 41.5945 60.3473C41.6047 60.2966 41.6045 60.2444 41.5939 60.1938C41.5833 60.1432 41.5626 60.0952 41.5329 60.0528C41.5033 60.0104 41.4654 59.9743 41.4214 59.9469Z" fill="#222222"/>
<path d="M84.9336 77.9439C83.6325 77.8456 82.3387 77.6684 81.0592 77.4132C80.9545 77.3961 80.8472 77.4192 80.7589 77.4779C80.6705 77.5365 80.6079 77.6264 80.5834 77.7294C80.5666 77.8323 80.5901 77.9378 80.6492 78.024C80.7082 78.1102 80.7983 78.1704 80.9006 78.1922C82.2179 78.4512 83.5495 78.6322 84.8883 78.7342C84.9934 78.7342 85.0943 78.6925 85.1686 78.6184C85.243 78.5443 85.2848 78.4438 85.2848 78.339C85.2848 78.2342 85.243 78.1337 85.1686 78.0596C85.0943 77.9855 84.9934 77.9439 84.8883 77.9439H84.9336Z" fill="#222222"/>
<path d="M93.0914 73.9133C93.0827 73.8095 93.0344 73.713 92.9564 73.6436C92.8784 73.5743 92.7767 73.5375 92.6722 73.5407C92.6196 73.5421 92.5678 73.5541 92.5201 73.5762C92.4723 73.5982 92.4296 73.6298 92.3946 73.669C92.3595 73.7081 92.3329 73.754 92.3164 73.8038C92.2998 73.8536 92.2937 73.9062 92.2984 73.9585V74.2294C92.3133 74.8505 92.1565 75.4638 91.8452 76.002C91.488 76.4941 91.0312 76.906 90.5043 77.2113C89.9775 77.5166 89.3923 77.7085 88.7866 77.7746C88.6814 77.7851 88.5847 77.8368 88.5178 77.9183C88.4509 77.9998 88.4192 78.1045 88.4297 78.2093C88.4402 78.3141 88.4921 78.4104 88.5739 78.4771C88.6557 78.5438 88.7607 78.5754 88.8659 78.5649H88.9452C89.66 78.4796 90.3486 78.2443 90.9656 77.8745C91.5826 77.5048 92.1141 77.009 92.5249 76.4198C92.9102 75.7588 93.1062 75.005 93.0914 74.2407V73.9133Z" fill="#222222"/>
<path d="M84.5253 60.5566C84.448 60.486 84.3469 60.4468 84.2421 60.4468C84.1372 60.4468 84.0362 60.486 83.9589 60.5566C83.9212 60.5934 83.8912 60.6373 83.8708 60.6858C83.8504 60.7342 83.8398 60.7863 83.8398 60.8388C83.8398 60.8914 83.8504 60.9435 83.8708 60.9919C83.8912 61.0404 83.9212 61.0843 83.9589 61.1211C84.9218 62.0921 85.828 63.063 86.6437 64.0002C86.6796 64.0374 86.7227 64.067 86.7704 64.0872C86.8181 64.1074 86.8694 64.1179 86.9212 64.1179C86.9731 64.1179 87.0244 64.1074 87.0721 64.0872C87.1197 64.067 87.1628 64.0374 87.1988 64.0002C87.2714 63.9263 87.3121 63.827 87.3121 63.7235C87.3121 63.6201 87.2714 63.5208 87.1988 63.4469C86.4171 62.5324 85.4995 61.5501 84.5253 60.5566Z" fill="#222222"/>
<path d="M81.3843 58.4793C81.4948 58.4771 81.6003 58.4326 81.6788 58.355C81.7522 58.2793 81.7932 58.1781 81.7932 58.0728C81.7932 57.9675 81.7522 57.8663 81.6788 57.7905C80.7386 56.9212 79.7417 56.0292 78.7108 55.1373C78.6714 55.1032 78.6256 55.0771 78.5761 55.0607C78.5266 55.0442 78.4743 55.0376 78.4222 55.0413C78.3701 55.0449 78.3193 55.0588 78.2726 55.0821C78.2259 55.1053 78.1843 55.1375 78.15 55.1768C78.1158 55.2161 78.0897 55.2617 78.0732 55.3111C78.0567 55.3604 78.05 55.4125 78.0537 55.4644C78.0574 55.5163 78.0713 55.567 78.0946 55.6135C78.118 55.6601 78.1503 55.7016 78.1897 55.7357C79.2206 56.6276 80.2061 57.5083 81.1351 58.3663C81.2015 58.4331 81.2902 58.4733 81.3843 58.4793Z" fill="#222222"/>
<path d="M48.2507 63.9098C47.1178 63.2662 45.985 62.6114 44.8521 61.934C44.8079 61.9057 44.7584 61.8868 44.7066 61.8783C44.6548 61.8699 44.6018 61.8721 44.5509 61.8848C44.5 61.8974 44.4522 61.9204 44.4105 61.9521C44.3688 61.9839 44.334 62.0238 44.3084 62.0694C44.2543 62.1593 44.2383 62.2668 44.2638 62.3684C44.2893 62.4701 44.3542 62.5574 44.4443 62.6114C45.5772 63.2888 46.71 63.9549 47.8428 64.5985C47.932 64.6488 48.0372 64.6628 48.1364 64.6376C48.2357 64.6123 48.3213 64.5497 48.3753 64.463C48.4078 64.4199 48.4304 64.3703 48.4418 64.3176C48.4532 64.2648 48.4529 64.2103 48.4411 64.1577C48.4292 64.1051 48.4061 64.0557 48.3732 64.0129C48.3403 63.9701 48.2985 63.9349 48.2507 63.9098Z" fill="#222222"/>
<path d="M69.6963 74.0712C68.5634 73.6195 67.2606 73.1341 66.0145 72.6147C65.9169 72.5758 65.8077 72.5771 65.711 72.6184C65.6144 72.6597 65.5381 72.7375 65.4991 72.8349C65.46 72.9322 65.4613 73.041 65.5028 73.1373C65.5442 73.2337 65.6223 73.3096 65.72 73.3486C66.9661 73.8679 68.2122 74.3534 69.4244 74.805H69.5603C69.6275 74.8052 69.6937 74.7887 69.753 74.7572C69.8123 74.7257 69.8628 74.6801 69.9002 74.6244C69.9283 74.5757 69.9455 74.5214 69.9503 74.4654C69.9551 74.4094 69.9475 74.353 69.9281 74.3002C69.9086 74.2475 69.8778 74.1996 69.8377 74.16C69.7977 74.1204 69.7494 74.0901 69.6963 74.0712Z" fill="#222222"/>
<path d="M55.2422 67.647C54.1094 67.0486 52.9086 66.4389 51.7304 65.8066C51.6355 65.7585 51.5256 65.7493 51.424 65.781C51.3224 65.8126 51.2372 65.8826 51.1867 65.9759C51.1381 66.0675 51.1275 66.1743 51.1571 66.2736C51.1868 66.3728 51.2543 66.4565 51.3453 66.5066C52.4781 67.1389 53.7129 67.7599 54.8797 68.347C54.939 68.3639 55.0018 68.3639 55.061 68.347C55.1336 68.3467 55.2048 68.3266 55.2667 68.2887C55.3287 68.2509 55.379 68.1968 55.4122 68.1324C55.4491 68.0449 55.4522 67.9468 55.4208 67.8571C55.3894 67.7675 55.3258 67.6926 55.2422 67.647Z" fill="#222222"/>
<path d="M62.3774 71.0565C61.2446 70.5258 60.0098 69.9274 58.7863 69.3968C58.7389 69.3695 58.6864 69.3523 58.632 69.3462C58.5776 69.3401 58.5226 69.3454 58.4703 69.3615C58.418 69.3777 58.3697 69.4045 58.3283 69.4402C58.287 69.4759 58.2535 69.5198 58.2299 69.569C58.2064 69.6183 58.1933 69.6718 58.1916 69.7264C58.1899 69.7809 58.1995 69.8351 58.2198 69.8858C58.2401 69.9364 58.2708 69.9823 58.3098 70.0206C58.3488 70.0588 58.3953 70.0886 58.4465 70.1081C59.6699 70.6952 60.8707 71.2372 62.0602 71.7791C62.1124 71.7908 62.1666 71.7908 62.2188 71.7791C62.2955 71.7776 62.3702 71.7545 62.4343 71.7125C62.4984 71.6706 62.5494 71.6115 62.5813 71.542C62.6131 71.4502 62.6099 71.35 62.5723 71.2605C62.5347 71.1709 62.4653 71.0983 62.3774 71.0565Z" fill="#222222"/>
<path d="M62.7282 21.9772C62.7078 21.8711 62.7295 21.7613 62.7886 21.6708C62.8478 21.5803 62.9398 21.5161 63.0454 21.4917C63.0968 21.4785 63.1504 21.4759 63.2029 21.4843C63.2553 21.4927 63.3055 21.5118 63.3501 21.5405C63.3948 21.5691 63.4331 21.6066 63.4625 21.6507C63.492 21.6948 63.5119 21.7444 63.5212 21.7966C63.7477 23.1063 63.9743 24.4498 64.1782 25.8386C64.206 25.9268 64.206 26.0213 64.1782 26.1095C64.149 26.1622 64.1085 26.2077 64.0595 26.2429C64.0105 26.278 63.9544 26.3019 63.895 26.3128C63.8435 26.3224 63.7906 26.3215 63.7395 26.3101C63.6883 26.2986 63.6401 26.2769 63.5977 26.2463C63.5553 26.2156 63.5196 26.1767 63.4928 26.1318C63.466 26.087 63.4487 26.0371 63.4419 25.9854C63.1813 24.6079 62.9547 23.2756 62.7282 21.9772Z" fill="#222222"/>
<path d="M60.9756 14.0851C60.947 13.9789 60.9605 13.8657 61.0132 13.7691C61.0659 13.6724 61.1538 13.5996 61.2589 13.5658C61.3086 13.5484 61.3614 13.5414 61.414 13.5452C61.4666 13.549 61.5178 13.5635 61.5646 13.5879C61.6113 13.6122 61.6525 13.6458 61.6857 13.6867C61.7188 13.7276 61.7432 13.7748 61.7573 13.8254C62.0972 15.0787 62.4144 16.4222 62.7202 17.7997C62.7539 17.8946 62.7539 17.9982 62.7202 18.0932C62.6924 18.1425 62.655 18.1859 62.6103 18.2207C62.5656 18.2556 62.5144 18.2813 62.4597 18.2964C62.409 18.3115 62.3557 18.3158 62.3033 18.3089C62.2508 18.302 62.2005 18.2841 62.1555 18.2563C62.1105 18.2286 62.072 18.1917 62.0424 18.148C62.0128 18.1043 61.9929 18.0548 61.9839 18.0029C61.6327 16.6367 61.3155 15.3158 60.9756 14.0851Z" fill="#222222"/>
<path d="M64.6883 38.1448C64.6816 38.0364 64.7165 37.9294 64.7859 37.8456C64.8553 37.7618 64.954 37.7073 65.0621 37.6932C65.1143 37.6886 65.1668 37.6943 65.2167 37.7099C65.2666 37.7256 65.3128 37.7509 65.3529 37.7845C65.3929 37.8181 65.4258 37.8593 65.4498 37.9056C65.4738 37.9519 65.4884 38.0025 65.4926 38.0545C65.5833 39.3981 65.6626 40.7642 65.7419 42.1529C65.7574 42.2312 65.7574 42.3118 65.7419 42.3901C65.7068 42.4471 65.6588 42.4952 65.6018 42.5305C65.5447 42.5658 65.4802 42.5873 65.4133 42.5933C65.3609 42.5979 65.3081 42.5918 65.2581 42.5753C65.2082 42.5588 65.1621 42.5323 65.1228 42.4974C65.0836 42.4625 65.0519 42.4199 65.0298 42.3723C65.0076 42.3247 64.9955 42.2731 64.9942 42.2207C64.8696 40.8432 64.7789 39.4884 64.6883 38.1448Z" fill="#222222"/>
<path d="M63.9201 30.0271C63.9094 29.9188 63.9395 29.8104 64.0043 29.7228C64.0692 29.6353 64.1643 29.5747 64.2712 29.5529C64.3234 29.5449 64.3766 29.5474 64.4278 29.5602C64.4789 29.573 64.527 29.5959 64.5692 29.6274C64.6114 29.6589 64.6469 29.6986 64.6735 29.7439C64.7002 29.7893 64.7175 29.8395 64.7244 29.8916C64.8716 31.2239 65.0189 32.5787 65.1549 33.9675C65.1834 34.0478 65.1834 34.1355 65.1549 34.2159C65.1221 34.2712 65.0779 34.3191 65.0252 34.3561C64.9724 34.393 64.9124 34.4184 64.849 34.4304C64.7966 34.4383 64.7432 34.4354 64.692 34.4218C64.6408 34.4082 64.593 34.3842 64.5515 34.3514C64.5101 34.3185 64.4759 34.2775 64.451 34.2309C64.4262 34.1843 64.4113 34.133 64.4072 34.0804C64.2373 32.7029 64.0787 31.3481 63.9201 30.0271Z" fill="#222222"/>
<path d="M45.9977 8.59799C45.5446 9.78349 45.1027 11.0932 44.6836 12.4932C44.6884 12.5269 44.6884 12.5611 44.6836 12.5948C44.6374 12.6726 44.5672 12.7333 44.4834 12.7679C44.3997 12.8025 44.307 12.8091 44.2191 12.7868C44.1682 12.7725 44.1206 12.7483 44.0792 12.7154C44.0378 12.6826 44.0034 12.6418 43.9781 12.5955C43.9528 12.5492 43.937 12.4983 43.9317 12.4458C43.9264 12.3934 43.9317 12.3404 43.9472 12.29C44.3777 10.8674 44.8195 9.52382 45.2953 8.32703C45.3314 8.22485 45.406 8.14066 45.5032 8.09222C45.6004 8.04377 45.7127 8.03483 45.8164 8.06734C45.8634 8.0902 45.9054 8.12211 45.9399 8.1612C45.9745 8.20028 46.001 8.24577 46.0178 8.29509C46.0347 8.34441 46.0416 8.39657 46.0381 8.44856C46.0346 8.50054 46.0209 8.55132 45.9977 8.59799Z" fill="#222222"/>
<path d="M48.273 100.75C48.3119 100.815 48.3325 100.889 48.3325 100.965C48.3325 101.04 48.3119 101.115 48.273 101.179C48.237 101.236 48.1909 101.286 48.1371 101.326C48.0933 101.356 48.0442 101.376 47.9924 101.386C47.9407 101.397 47.8874 101.397 47.8357 101.386C47.784 101.376 47.7349 101.355 47.6914 101.325C47.6478 101.296 47.6106 101.257 47.582 101.213C46.8692 100.053 46.2516 98.8373 45.7354 97.5778C45.6934 97.4774 45.6923 97.3645 45.7325 97.2633C45.7727 97.1621 45.851 97.0805 45.9507 97.0359C45.997 97.0116 46.048 96.9973 46.1003 96.9939C46.1526 96.9906 46.205 96.9982 46.2541 97.0163C46.3032 97.0344 46.348 97.0626 46.3855 97.099C46.423 97.1354 46.4524 97.1793 46.4718 97.2278C46.9727 98.45 47.5752 99.6283 48.273 100.75Z" fill="#222222"/>
<path d="M54.2341 1.13497C54.0008 1.00046 53.754 0.890708 53.4978 0.807544C53.3982 0.771681 53.3165 0.698629 53.27 0.60381C53.2234 0.508991 53.2158 0.399862 53.2485 0.299501C53.2641 0.246849 53.29 0.19775 53.3246 0.155064C53.3593 0.112378 53.402 0.076913 53.4504 0.0506989C53.4988 0.0244848 53.5519 0.00803463 53.6067 0.00228925C53.6615 -0.00345614 53.7168 0.00164362 53.7696 0.0172428C54.0762 0.12046 54.3721 0.25276 54.6533 0.412376C55.5798 0.999596 56.3775 1.76772 56.9982 2.67044C57.0427 2.73952 57.0663 2.81986 57.0663 2.90191C57.0663 2.98395 57.0427 3.06426 56.9982 3.13335L56.885 3.24626C56.8461 3.28169 56.8001 3.30853 56.7501 3.32502C56.7001 3.34151 56.6471 3.3473 56.5947 3.34197C56.5423 3.33664 56.4916 3.32034 56.446 3.29411C56.4003 3.26789 56.3608 3.23235 56.3299 3.18982C55.7767 2.37163 55.064 1.6728 54.2341 1.13497Z" fill="#222222"/>
<path d="M47.027 4.49964L47.1403 4.27382C47.789 3.08598 48.6312 2.01385 49.6326 1.10123C49.6686 1.06223 49.7124 1.03111 49.7612 1.00982C49.8099 0.988533 49.8626 0.977539 49.9158 0.977539C49.969 0.977539 50.0216 0.988533 50.0704 1.00982C50.1191 1.03111 50.1629 1.06223 50.199 1.10123C50.2463 1.16923 50.2716 1.24996 50.2716 1.33267C50.2716 1.41538 50.2463 1.49615 50.199 1.56414C50.182 1.61066 50.1502 1.65033 50.1084 1.67705C49.1989 2.5356 48.4339 3.53438 47.8427 4.63511L47.7294 4.84963C47.6767 4.94381 47.5895 5.01402 47.486 5.04558C47.3826 5.07715 47.2709 5.06761 47.1743 5.01898C47.0903 4.96536 47.0288 4.88288 47.0017 4.78717C46.9746 4.69145 46.9836 4.58917 47.027 4.49964Z" fill="#222222"/>
<path d="M58.3083 6.52057C58.2649 6.41985 58.2619 6.30642 58.2998 6.20354C58.3378 6.10067 58.4137 6.01616 58.5122 5.96735C58.5587 5.9426 58.6098 5.92764 58.6624 5.92338C58.7149 5.91913 58.7678 5.92564 58.8177 5.94258C58.8676 5.95951 58.9135 5.98649 58.9526 6.02182C58.9916 6.05716 59.0229 6.10011 59.0446 6.148C59.6128 7.38166 60.1157 8.64416 60.5513 9.9303C60.5767 9.98517 60.5899 10.0449 60.5899 10.1053C60.5899 10.1657 60.5767 10.2254 60.5513 10.2803C60.517 10.3466 60.465 10.4023 60.4011 10.4411C60.3371 10.48 60.2637 10.5005 60.1888 10.5005C60.1139 10.5005 60.0405 10.48 59.9765 10.4411C59.9126 10.4023 59.8606 10.3466 59.8263 10.2803C59.3939 8.99879 58.887 7.74341 58.3083 6.52057Z" fill="#222222"/>
<path d="M60.9288 91.1647C61.2687 89.9115 61.6085 88.5679 61.9144 87.1679C61.9389 87.062 62.0028 86.9693 62.0932 86.9085C62.1836 86.8478 62.2938 86.8235 62.4015 86.8405C62.4538 86.8497 62.5037 86.8696 62.5479 86.899C62.5921 86.9283 62.6298 86.9664 62.6585 87.0109C62.6872 87.0555 62.7064 87.1055 62.7148 87.1577C62.7232 87.21 62.7207 87.2635 62.7074 87.3147C62.3902 88.7373 62.0504 90.0922 61.6992 91.3567C61.7034 91.3904 61.7034 91.4246 61.6992 91.4583C61.6567 91.5372 61.5892 91.5999 61.5072 91.6366C61.4253 91.6734 61.3335 91.6821 61.246 91.6615C61.191 91.6525 61.1385 91.632 61.092 91.6014C61.0455 91.5707 61.006 91.5307 60.976 91.4838C60.9461 91.4369 60.9264 91.3842 60.9183 91.3293C60.9102 91.2743 60.9138 91.2182 60.9288 91.1647Z" fill="#222222"/>
<path d="M65.1771 50.4064C65.1771 49.029 65.1771 47.6628 65.0978 46.308C65.0946 46.2009 65.1327 46.0966 65.2044 46.0168C65.2761 45.9369 65.3759 45.8876 65.483 45.879C65.5354 45.8743 65.5883 45.8804 65.6382 45.8969C65.6882 45.9134 65.7342 45.9399 65.7735 45.9748C65.8128 46.0097 65.8444 46.0523 65.8666 46.0999C65.8887 46.1475 65.9008 46.1991 65.9022 46.2515C65.9022 47.6064 65.9701 48.9838 65.9815 50.3613C65.98 50.4398 65.9606 50.517 65.9248 50.587C65.8902 50.6469 65.8408 50.697 65.7813 50.7326C65.7219 50.7682 65.6543 50.788 65.585 50.7903C65.5325 50.7934 65.48 50.7857 65.4306 50.7678C65.3812 50.7499 65.336 50.7221 65.2978 50.6861C65.2596 50.6502 65.2292 50.6068 65.2085 50.5587C65.1877 50.5106 65.1771 50.4588 65.1771 50.4064Z" fill="#222222"/>
<path d="M58.1271 98.8763C58.7224 97.6458 59.2481 96.383 59.7018 95.094C59.7173 95.0428 59.7428 94.9951 59.7769 94.9538C59.8109 94.9124 59.8528 94.8782 59.9002 94.853C59.9476 94.8278 59.9995 94.8122 60.0529 94.8071C60.1063 94.8019 60.1602 94.8073 60.2115 94.823C60.3117 94.861 60.3929 94.9369 60.4374 95.0341C60.4819 95.1312 60.4862 95.242 60.4494 95.3424C59.9892 96.667 59.452 97.9638 58.8408 99.2263C58.7912 99.3191 58.7067 99.3885 58.6058 99.4192C58.5049 99.4499 58.3958 99.4394 58.3027 99.39C58.2096 99.3405 58.1399 99.2563 58.1091 99.1557C58.0783 99.0551 58.0889 98.9465 58.1384 98.8537L58.1271 98.8763Z" fill="#222222"/>
<path d="M50.3577 104.262C50.272 104.199 50.2129 104.106 50.192 104.002C50.171 103.897 50.1897 103.789 50.2444 103.698C50.3028 103.606 50.3945 103.541 50.5002 103.516C50.6058 103.49 50.7172 103.507 50.8108 103.562L51.0374 103.709C51.5714 104.035 52.1903 104.196 52.816 104.172C53.4418 104.091 54.0444 103.884 54.5862 103.561C55.128 103.239 55.5974 102.809 55.9653 102.298C55.9973 102.255 56.0378 102.219 56.0845 102.193C56.1311 102.166 56.1827 102.15 56.236 102.145C56.2893 102.139 56.3431 102.145 56.394 102.162C56.445 102.178 56.4918 102.205 56.5317 102.241C56.6008 102.307 56.6461 102.393 56.6604 102.487C56.6748 102.581 56.6574 102.677 56.611 102.76V102.817C56.1723 103.417 55.6138 103.921 54.9704 104.296C54.3271 104.671 53.6128 104.909 52.8726 104.996C52.0783 105.032 51.2908 104.836 50.6069 104.431L50.3577 104.262Z" fill="#222222"/>
<path d="M43.2214 89.8327C43.1931 89.7279 43.2069 89.6163 43.2598 89.5215C43.3126 89.4267 43.4004 89.3561 43.5046 89.3246C43.5544 89.3092 43.6068 89.3041 43.6587 89.3095C43.7106 89.3149 43.7608 89.3307 43.8064 89.356C43.852 89.3814 43.8919 89.4157 43.9237 89.4569C43.9556 89.498 43.9787 89.5452 43.9917 89.5956C44.3429 90.9617 44.7167 92.2714 45.1245 93.4682C45.1548 93.5731 45.145 93.6855 45.0968 93.7835C45.0487 93.8816 44.9657 93.9583 44.864 93.9988C44.815 94.0184 44.7626 94.0278 44.7099 94.0264C44.6571 94.0249 44.6053 94.0127 44.5575 93.9905C44.5097 93.9683 44.467 93.9365 44.432 93.8972C44.3971 93.8578 44.3706 93.8117 44.3542 93.7618C43.9464 92.5311 43.5725 91.2101 43.2214 89.8327Z" fill="#222222"/>
<path d="M65.1084 58.6033C65.1084 57.2484 65.131 55.8823 65.1763 54.5049C65.1813 54.3965 65.2252 54.2935 65.3001 54.2147C65.3749 54.1359 65.4758 54.0866 65.5842 54.0758C65.6372 54.0743 65.69 54.0835 65.7394 54.1027C65.7888 54.1218 65.8339 54.1507 65.8719 54.1875C65.9099 54.2244 65.9401 54.2684 65.9608 54.3171C65.9814 54.3658 65.992 54.4182 65.992 54.471C65.992 55.8597 65.992 57.2371 65.9127 58.592C65.9243 58.6592 65.9243 58.728 65.9127 58.7952C65.875 58.8583 65.8221 58.9109 65.7588 58.9484C65.6955 58.9858 65.6238 59.0069 65.5502 59.0098C65.4931 59.0184 65.4348 59.014 65.3796 58.9972C65.3244 58.9803 65.2738 58.9513 65.2313 58.9122C65.1889 58.8732 65.1558 58.8252 65.1346 58.7717C65.1133 58.7183 65.1043 58.6607 65.1084 58.6033Z" fill="#222222"/>
<path d="M62.7299 83.126C62.9678 81.8164 63.1831 80.4502 63.3983 79.0615C63.4125 78.9546 63.4676 78.8574 63.552 78.79C63.6364 78.7227 63.7437 78.6905 63.8515 78.7002C63.9037 78.7071 63.9541 78.7243 63.9997 78.7509C64.0452 78.7774 64.0849 78.8128 64.1166 78.8548C64.1482 78.8969 64.1711 78.9448 64.184 78.9958C64.1968 79.0468 64.1993 79.0999 64.1913 79.1518C63.9874 80.5518 63.7608 81.9293 63.5229 83.239C63.511 83.2903 63.4919 83.3397 63.4663 83.3857C63.4269 83.4594 63.3651 83.5187 63.2898 83.5552C63.2145 83.5917 63.1296 83.6035 63.0471 83.589C62.995 83.5809 62.9451 83.5623 62.9005 83.5343C62.8559 83.5063 62.8175 83.4695 62.7878 83.4261C62.7581 83.3827 62.7376 83.3336 62.7276 83.282C62.7177 83.2304 62.7185 83.1773 62.7299 83.126Z" fill="#222222"/>
<path d="M64.7007 66.8C64.7914 65.4565 64.882 64.0904 64.9499 62.7016C64.9529 62.5928 64.9984 62.4894 65.0767 62.4135C65.1549 62.3376 65.2599 62.2951 65.3691 62.2952C65.4222 62.2966 65.4744 62.3086 65.5227 62.3306C65.5711 62.3525 65.6145 62.3839 65.6504 62.4228C65.6863 62.4618 65.714 62.5075 65.7319 62.5574C65.7497 62.6072 65.7573 62.6601 65.7543 62.7129C65.6863 64.1017 65.5957 65.4791 65.505 66.8226C65.5035 66.8905 65.484 66.9567 65.4484 67.0146C65.4089 67.0785 65.354 67.1315 65.2887 67.169C65.2235 67.2064 65.1499 67.2271 65.0746 67.2291C65.0214 67.2263 64.9694 67.2128 64.9216 67.1895C64.8738 67.1662 64.8312 67.1336 64.7963 67.0936C64.7615 67.0535 64.735 67.0069 64.7186 66.9565C64.7022 66.9061 64.6961 66.8529 64.7007 66.8Z" fill="#222222"/>
<path d="M63.9323 74.9858C64.0909 73.6536 64.2382 72.2874 64.3741 70.8987C64.377 70.8453 64.3905 70.793 64.4137 70.7448C64.4369 70.6966 64.4694 70.6534 64.5094 70.6177C64.5494 70.5821 64.5961 70.5546 64.6467 70.537C64.6974 70.5193 64.751 70.5118 64.8046 70.5148C64.8573 70.5175 64.9089 70.531 64.9561 70.5544C65.0034 70.5779 65.0453 70.6107 65.0793 70.6509C65.1133 70.6911 65.1386 70.7379 65.1537 70.7883C65.1688 70.8387 65.1734 70.8916 65.1671 70.9439C65.0425 72.3439 64.8952 73.71 64.7366 75.0536C64.7476 75.1057 64.7476 75.1595 64.7366 75.2116C64.6991 75.2823 64.6414 75.3403 64.5709 75.3785C64.5003 75.4167 64.4201 75.4332 64.3401 75.4261C64.2831 75.4281 64.2263 75.4178 64.1736 75.3959C64.1209 75.374 64.0736 75.3411 64.0348 75.2993C63.9961 75.2575 63.9669 75.2078 63.9492 75.1537C63.9315 75.0996 63.9258 75.0423 63.9323 74.9858Z" fill="#222222"/>
<path d="M30.1056 76.5214C28.7575 76.9391 27.4434 77.323 26.1973 77.6504C26.1466 77.6635 26.099 77.6865 26.0572 77.7181C26.0155 77.7497 25.9804 77.7892 25.9541 77.8343C25.9278 77.8794 25.9107 77.9293 25.9038 77.9811C25.8969 78.0329 25.9004 78.0855 25.9141 78.1359C25.9357 78.2198 25.9836 78.2946 26.0509 78.3494C26.1181 78.4042 26.2012 78.4363 26.2879 78.4408H26.4125C27.67 78.1246 28.9954 77.7407 30.3548 77.3117C30.4056 77.2977 30.453 77.2734 30.494 77.2403C30.535 77.2073 30.5688 77.1662 30.5932 77.1196C30.6176 77.073 30.6322 77.022 30.636 76.9696C30.6398 76.9171 30.6328 76.8645 30.6154 76.8149C30.6038 76.7608 30.581 76.7097 30.5483 76.665C30.5157 76.6203 30.474 76.5829 30.426 76.5552C30.3779 76.5275 30.3246 76.5102 30.2694 76.5044C30.2142 76.4986 30.1584 76.5043 30.1056 76.5214Z" fill="#222222"/>
<path d="M22.2407 78.531C20.9184 78.7881 19.5837 78.9765 18.2418 79.0955C18.1346 79.1069 18.036 79.1591 17.9664 79.241C17.8968 79.323 17.8615 79.4286 17.8679 79.5359C17.8811 79.6328 17.928 79.7221 18.0005 79.7881C18.0729 79.8542 18.1663 79.8927 18.2644 79.8972C19.5219 79.7842 20.8926 79.5923 22.354 79.3213C22.4069 79.3118 22.4573 79.292 22.5025 79.263C22.5477 79.234 22.5866 79.1964 22.6172 79.1523C22.6477 79.1082 22.6692 79.0586 22.6804 79.0062C22.6916 78.9538 22.6923 78.8998 22.6825 78.8471C22.6586 78.7507 22.601 78.6659 22.52 78.608C22.4391 78.55 22.34 78.5227 22.2407 78.531Z" fill="#222222"/>
<path d="M45.2278 70.6501C43.9704 71.226 42.7356 71.7792 41.5121 72.2873C41.4636 72.3068 41.4195 72.3361 41.3827 72.3732C41.3459 72.4103 41.3171 72.4546 41.298 72.5032C41.2789 72.5518 41.2699 72.6038 41.2717 72.656C41.2735 72.7081 41.2859 72.7594 41.3082 72.8066C41.3376 72.8766 41.3861 72.9369 41.4482 72.9808C41.5103 73.0247 41.5834 73.0504 41.6594 73.055C41.7193 73.0658 41.7807 73.0658 41.8406 73.055C43.0641 72.5243 44.3102 71.9824 45.579 71.4066C45.628 71.386 45.6723 71.3556 45.7089 71.3172C45.7456 71.2787 45.7738 71.2332 45.7919 71.1833C45.81 71.1335 45.8175 71.0804 45.814 71.0275C45.8105 70.9746 45.7961 70.923 45.7716 70.8759C45.729 70.7746 45.648 70.694 45.5462 70.6517C45.4444 70.6095 45.3301 70.6089 45.2278 70.6501Z" fill="#222222"/>
<path d="M37.7509 73.8229C36.4595 74.3197 35.1907 74.7939 33.9559 75.2342C33.9057 75.2507 33.8593 75.2771 33.8194 75.3117C33.7796 75.3463 33.7471 75.3886 33.7239 75.4359C33.7007 75.4832 33.6872 75.5347 33.6842 75.5873C33.6813 75.6399 33.6889 75.6926 33.7067 75.7422C33.7347 75.8173 33.7837 75.8827 33.848 75.9308C33.9123 75.9788 33.989 76.0074 34.0692 76.0132H34.2278C35.4739 75.5729 36.754 75.0874 38.0568 74.5794C38.1073 74.562 38.1537 74.5344 38.1929 74.4983C38.2322 74.4621 38.2635 74.4183 38.2848 74.3694C38.3061 74.3206 38.317 74.2678 38.3167 74.2145C38.3165 74.1613 38.3051 74.1087 38.2833 74.06C38.2659 74.0082 38.2378 73.9607 38.201 73.9202C38.1641 73.8798 38.1193 73.8474 38.0693 73.8252C38.0192 73.8029 37.9651 73.7912 37.9103 73.7908C37.8555 73.7904 37.8012 73.8014 37.7509 73.8229Z" fill="#222222"/>
<path d="M81.2274 26.0754H81.3633C82.7341 25.6915 84.0595 25.3641 85.2943 25.1044C85.3469 25.095 85.397 25.0751 85.4416 25.0459C85.4863 25.0167 85.5246 24.9789 85.5542 24.9346C85.5839 24.8903 85.6042 24.8405 85.614 24.7882C85.6239 24.7359 85.623 24.6821 85.6115 24.6302C85.5846 24.527 85.5192 24.438 85.4287 24.3813C85.3381 24.3247 85.2293 24.3046 85.1244 24.3253C83.8669 24.5963 82.5188 24.9237 81.1368 25.3076C81.086 25.3207 81.0384 25.3437 80.9967 25.3753C80.955 25.4068 80.9199 25.4463 80.8936 25.4915C80.8672 25.5366 80.8501 25.5865 80.8433 25.6383C80.8364 25.6901 80.8399 25.7427 80.8535 25.7931C80.8791 25.8728 80.9288 25.9426 80.9957 25.9931C81.0626 26.0437 81.1435 26.0724 81.2274 26.0754Z" fill="#222222"/>
<path d="M75.4051 27.6675C76.2321 27.4642 77.0251 27.2723 77.7954 27.1142C77.8469 27.1035 77.8958 27.0827 77.9392 27.053C77.9826 27.0232 78.0196 26.9852 78.0481 26.941C78.0766 26.8969 78.0959 26.8475 78.1051 26.7959C78.1142 26.7442 78.1129 26.6912 78.1013 26.64C78.077 26.5354 78.0121 26.4445 77.9208 26.3874C77.8295 26.3303 77.7193 26.3115 77.6141 26.3352C76.8891 26.4932 76.1301 26.6626 75.3485 26.8658C74.782 27.0013 74.8953 27.803 75.4051 27.6675Z" fill="#222222"/>
<path d="M52.5346 67.1276C51.3111 67.7486 50.099 68.3583 48.9095 68.9341C48.8615 68.9559 48.8184 68.9871 48.7827 69.0257C48.747 69.0643 48.7193 69.1097 48.7014 69.1591C48.6834 69.2085 48.6756 69.261 48.6782 69.3135C48.6809 69.366 48.694 69.4174 48.7169 69.4647C48.7505 69.5297 48.8006 69.5848 48.8622 69.6244C48.9239 69.664 48.9948 69.6868 49.0681 69.6906C49.1351 69.7064 49.2049 69.7064 49.272 69.6906C50.4728 69.1147 51.6849 68.5615 52.9197 67.8841C53.0134 67.8337 53.0836 67.7488 53.1154 67.6476C53.1471 67.5463 53.1379 67.4367 53.0897 67.3421C53.0676 67.2915 53.0356 67.2459 52.9957 67.2077C52.9557 67.1695 52.9086 67.1395 52.857 67.1196C52.8054 67.0996 52.7503 67.0901 52.695 67.0914C52.6396 67.0928 52.5851 67.1051 52.5346 67.1276Z" fill="#222222"/>
<path d="M21.5293 58.5018C21.4501 58.4304 21.3471 58.3909 21.2404 58.3909C21.1336 58.3909 21.0307 58.4304 20.9515 58.5018C19.9093 59.4276 18.9011 60.3534 17.9608 61.2453C17.9231 61.2821 17.8932 61.3261 17.8728 61.3745C17.8523 61.423 17.8418 61.475 17.8418 61.5276C17.8418 61.5802 17.8523 61.6322 17.8728 61.6807C17.8932 61.7292 17.9231 61.7731 17.9608 61.8099C17.9987 61.8478 18.0437 61.8778 18.0933 61.8983C18.1429 61.9189 18.196 61.9294 18.2497 61.9294C18.3034 61.9294 18.3565 61.9189 18.4061 61.8983C18.4556 61.8778 18.5007 61.8478 18.5386 61.8099C19.4675 60.9179 20.4644 60.0034 21.5066 59.0889C21.5509 59.0545 21.5872 59.0109 21.6129 58.9611C21.6385 58.9113 21.6529 58.8565 21.6551 58.8006C21.6572 58.7447 21.6471 58.6889 21.6253 58.6373C21.6036 58.5857 21.5708 58.5395 21.5293 58.5018Z" fill="#222222"/>
<path d="M27.6679 53.0599C27.59 52.986 27.4866 52.9448 27.3791 52.9448C27.2715 52.9448 27.1681 52.986 27.0902 53.0599C26.048 53.9744 25.0397 54.9002 24.0995 55.7922C24.0618 55.829 24.0319 55.8729 24.0114 55.9214C23.991 55.9698 23.9805 56.0219 23.9805 56.0744C23.9805 56.127 23.991 56.1791 24.0114 56.2275C24.0319 56.276 24.0618 56.3199 24.0995 56.3567C24.1342 56.3944 24.1761 56.4248 24.2228 56.4461C24.2695 56.4675 24.32 56.4793 24.3714 56.4809C24.4842 56.4847 24.5941 56.4441 24.6772 56.368C25.6062 55.476 26.6031 54.5615 27.6453 53.647C27.6896 53.6126 27.7259 53.569 27.7515 53.5192C27.7772 53.4694 27.7916 53.4146 27.7937 53.3587C27.7959 53.3027 27.7858 53.247 27.764 53.1954C27.7423 53.1438 27.7095 53.0975 27.6679 53.0599Z" fill="#222222"/>
<path d="M10.7656 70.4131C10.7187 70.3871 10.6672 70.3706 10.6139 70.3645C10.5606 70.3584 10.5067 70.3628 10.4551 70.3775C10.4036 70.3921 10.3554 70.4168 10.3134 70.4501C10.2715 70.4833 10.2365 70.5245 10.2105 70.5712C9.50345 71.7613 9.01976 73.0698 8.78309 74.4326C8.77312 74.5382 8.80388 74.6437 8.8691 74.7276C8.93433 74.8115 9.02913 74.8675 9.13427 74.8842C9.23523 74.888 9.33399 74.8543 9.41143 74.7896C9.48886 74.7249 9.53946 74.6339 9.55343 74.5342C9.77323 73.2708 10.2224 72.0579 10.8789 70.9551C10.935 70.868 10.9545 70.7624 10.9333 70.6611C10.9122 70.5597 10.8519 70.4707 10.7656 70.4131Z" fill="#222222"/>
<path d="M14.2441 79.1407C12.9612 79.0592 11.7278 78.6168 10.687 77.8649C10.6476 77.83 10.6016 77.8033 10.5518 77.7861C10.502 77.7689 10.4493 77.7617 10.3967 77.7649C10.2905 77.7712 10.1912 77.8194 10.1206 77.8987C10.05 77.9781 10.0139 78.0822 10.0203 78.188C10.0266 78.2939 10.0749 78.3929 10.1546 78.4633C11.3177 79.3265 12.7064 79.8362 14.1535 79.931C14.2555 79.932 14.3544 79.8958 14.4315 79.8292C14.5087 79.7627 14.5589 79.6705 14.5726 79.5697C14.58 79.4705 14.5507 79.3721 14.4901 79.293C14.4296 79.2139 14.3421 79.1598 14.2441 79.1407Z" fill="#222222"/>
<path d="M15.1181 64.1019C14.1325 65.1632 13.2489 66.202 12.4785 67.1955C12.4464 67.2372 12.4231 67.2849 12.4102 67.3359C12.3973 67.3868 12.395 67.4399 12.4035 67.4917C12.412 67.5436 12.4311 67.5932 12.4596 67.6374C12.4881 67.6816 12.5254 67.7195 12.5692 67.7488C12.6353 67.7966 12.7141 67.824 12.7957 67.8278C12.8612 67.8325 12.9268 67.8204 12.9863 67.7928C13.0458 67.7651 13.0971 67.7227 13.1356 67.6697C13.8833 66.6987 14.7556 65.6826 15.7298 64.6326C15.7672 64.5968 15.7969 64.5538 15.8172 64.5063C15.8374 64.4587 15.8479 64.4076 15.8479 64.356C15.8479 64.3043 15.8374 64.2532 15.8172 64.2057C15.7969 64.1582 15.7672 64.1152 15.7298 64.0794C15.6899 64.0375 15.6416 64.0046 15.588 63.9828C15.5344 63.9609 15.4767 63.9508 15.4188 63.9529C15.3609 63.9551 15.3042 63.9694 15.2523 63.9951C15.2005 64.0208 15.1547 64.0572 15.1181 64.1019Z" fill="#222222"/>
<path d="M73.4685 54.8096C72.3357 55.5548 71.2028 56.2999 70.07 57.0677C70.0257 57.0962 69.9875 57.1333 69.9578 57.1767C69.928 57.2201 69.9072 57.269 69.8967 57.3205C69.8861 57.3721 69.886 57.4252 69.8963 57.4768C69.9066 57.5283 69.9271 57.5773 69.9567 57.6209C69.9896 57.6755 70.0361 57.7208 70.0916 57.7524C70.1472 57.7841 70.2099 57.801 70.2739 57.8015C70.3627 57.8125 70.4522 57.7882 70.5231 57.7338C71.656 56.9886 72.7888 56.2435 73.9216 55.4757C73.9651 55.4463 74.0022 55.4085 74.0309 55.3647C74.0595 55.3209 74.0792 55.2718 74.0886 55.2203C74.0981 55.1689 74.0973 55.116 74.0861 55.0649C74.0749 55.0138 74.0537 54.9654 74.0236 54.9225C73.9638 54.8356 73.8725 54.7754 73.7689 54.7543C73.6654 54.7332 73.5577 54.7531 73.4685 54.8096Z" fill="#222222"/>
<path d="M93.3507 23.3997C91.9654 23.3562 90.5788 23.4241 89.2045 23.6029C89.1003 23.617 89.0056 23.6707 88.9401 23.7528C88.8747 23.8348 88.8436 23.9389 88.8533 24.0433C88.8642 24.1382 88.9093 24.2259 88.9801 24.2902C89.0509 24.3546 89.1427 24.3912 89.2385 24.3933H89.3064C90.6357 24.2204 91.9767 24.1524 93.3167 24.19C93.4219 24.19 93.5227 24.1484 93.5971 24.0743C93.6714 24.0002 93.7132 23.8997 93.7132 23.7949C93.7132 23.6901 93.6714 23.5896 93.5971 23.5155C93.5227 23.4413 93.4219 23.3997 93.3167 23.3997H93.3507Z" fill="#222222"/>
<path d="M92.1937 39.6243C91.3101 40.5388 90.3472 41.4872 89.339 42.4356C89.2998 42.4715 89.2686 42.5152 89.2472 42.5638C89.2259 42.6123 89.2148 42.6648 89.2148 42.7179C89.2148 42.7709 89.2259 42.8234 89.2472 42.8719C89.2686 42.9205 89.2998 42.9642 89.339 43.0001C89.4117 43.0711 89.509 43.1116 89.6108 43.113C89.6662 43.1191 89.7222 43.1132 89.775 43.0957C89.8278 43.0781 89.8761 43.0494 89.9167 43.0114C90.9363 42.0517 91.9105 41.0921 92.8055 40.1662C92.8446 40.1303 92.8758 40.0867 92.8972 40.0381C92.9186 39.9895 92.9296 39.937 92.9296 39.884C92.9296 39.8309 92.9186 39.7785 92.8972 39.7299C92.8758 39.6813 92.8446 39.6377 92.8055 39.6017C92.7647 39.5614 92.7161 39.5299 92.6627 39.5091C92.6092 39.4883 92.552 39.4786 92.4947 39.4808C92.4373 39.4829 92.381 39.4967 92.3293 39.5214C92.2775 39.5461 92.2314 39.5811 92.1937 39.6243Z" fill="#222222"/>
<path d="M97.7804 33.2788C97.6868 33.2238 97.5754 33.2072 97.4697 33.2325C97.3641 33.2578 97.2724 33.3229 97.214 33.4143C96.4985 34.5261 95.7153 35.5931 94.869 36.6095C94.8313 36.6463 94.8014 36.6902 94.781 36.7387C94.7605 36.7872 94.75 36.8392 94.75 36.8918C94.75 36.9443 94.7605 36.9964 94.781 37.0448C94.8014 37.0933 94.8313 37.1372 94.869 37.174C94.9396 37.2233 95.0213 37.2543 95.1069 37.2644C95.1722 37.268 95.2375 37.2555 95.2968 37.2279C95.3561 37.2003 95.4076 37.1585 95.4468 37.1063C96.3193 36.0692 97.1217 34.9754 97.8484 33.832C97.9127 33.7496 97.9417 33.6451 97.9289 33.5414C97.9162 33.4378 97.8628 33.3434 97.7804 33.2788Z" fill="#222222"/>
<path d="M99.4247 25.9626C98.9628 25.2184 98.2882 24.6286 97.4876 24.2691C97.3913 24.2218 97.2803 24.2143 97.1785 24.2482C97.0767 24.282 96.9924 24.3544 96.9438 24.4497C96.919 24.4961 96.904 24.547 96.8997 24.5994C96.8954 24.6518 96.902 24.7045 96.919 24.7542C96.936 24.804 96.963 24.8497 96.9985 24.8886C97.0339 24.9275 97.077 24.9588 97.1251 24.9804C97.7822 25.2725 98.3379 25.7517 98.7224 26.3578C99.0688 26.9645 99.2265 27.66 99.1755 28.3562C99.1455 28.8843 99.0543 29.4071 98.9036 29.9143C98.8881 29.9647 98.8828 30.0177 98.8881 30.0702C98.8934 30.1226 98.9092 30.1735 98.9345 30.2198C98.9598 30.2661 98.9942 30.3069 99.0356 30.3397C99.077 30.3726 99.1246 30.3968 99.1755 30.4111H99.2775C99.3675 30.4173 99.4571 30.3928 99.5312 30.3414C99.6054 30.2901 99.6597 30.2151 99.6853 30.1288C99.8582 29.5639 99.9609 28.9799 99.9912 28.3901C100.051 27.5426 99.8536 26.6968 99.4247 25.9626Z" fill="#222222"/>
<path d="M66.6707 59.2016C65.5379 59.9016 64.405 60.5903 63.1929 61.2903C63.1471 61.3159 63.1071 61.3505 63.0752 61.3921C63.0433 61.4337 63.0203 61.4813 63.0076 61.532C62.9949 61.5828 62.9927 61.6356 63.0012 61.6872C63.0097 61.7389 63.0286 61.7882 63.057 61.8323C63.0903 61.8899 63.1382 61.9378 63.1957 61.9715C63.2533 62.0051 63.3187 62.0233 63.3855 62.0242C63.4634 62.0448 63.5454 62.0448 63.6234 62.0242C64.7562 61.3355 65.957 60.6355 67.1012 59.9242C67.1461 59.8976 67.185 59.8623 67.2158 59.8203C67.2465 59.7783 67.2684 59.7305 67.28 59.6798C67.2917 59.6291 67.2929 59.5766 67.2836 59.5255C67.2743 59.4743 67.2546 59.4256 67.2258 59.3822C67.2031 59.3324 67.1702 59.2879 67.1293 59.2514C67.0883 59.215 67.0403 59.1874 66.9881 59.1704C66.9359 59.1534 66.8807 59.1474 66.8261 59.1528C66.7715 59.1582 66.7186 59.1748 66.6707 59.2016Z" fill="#222222"/>
<path d="M86.3368 45.0775C85.3512 45.9243 84.309 46.7824 83.2328 47.6517C83.1939 47.6867 83.1629 47.7294 83.1416 47.777C83.1204 47.8246 83.1094 47.8762 83.1094 47.9284C83.1094 47.9805 83.1204 48.0321 83.1416 48.0797C83.1629 48.1274 83.1939 48.17 83.2328 48.205C83.2684 48.249 83.3132 48.2849 83.364 48.3103C83.4148 48.3356 83.4705 48.3497 83.5273 48.3518C83.5782 48.3562 83.6294 48.3504 83.678 48.3349C83.7266 48.3194 83.7717 48.2944 83.8105 48.2614C84.9434 47.3921 85.9403 46.5227 86.9372 45.6759C86.9748 45.6391 87.0048 45.5952 87.0252 45.5467C87.0456 45.4983 87.0562 45.4462 87.0562 45.3936C87.0562 45.3411 87.0456 45.2891 87.0252 45.2406C87.0048 45.1921 86.9748 45.1482 86.9372 45.1114C86.9014 45.0677 86.8569 45.032 86.8065 45.0064C86.7561 44.9808 86.7009 44.966 86.6444 44.9628C86.588 44.9596 86.5315 44.9682 86.4785 44.9879C86.4255 45.0077 86.3773 45.0382 86.3368 45.0775Z" fill="#222222"/>
<path d="M59.7054 63.3342C58.5726 64.0116 57.3378 64.6552 56.1596 65.2875C56.1121 65.3113 56.07 65.3443 56.0356 65.3847C56.0012 65.4251 55.9753 65.472 55.9595 65.5226C55.9436 65.5731 55.9381 65.6263 55.9433 65.679C55.9485 65.7317 55.9643 65.7829 55.9897 65.8294C56.0243 65.8893 56.0737 65.9394 56.1332 65.9749C56.1926 66.0105 56.2602 66.0304 56.3295 66.0326C56.3995 66.0551 56.4748 66.0551 56.5448 66.0326C57.6776 65.4004 58.9238 64.7455 60.1132 64.0794C60.1603 64.0537 60.2017 64.0186 60.2348 63.9765C60.2679 63.9344 60.2921 63.886 60.3058 63.8342C60.3196 63.7825 60.3227 63.7285 60.3149 63.6756C60.3071 63.6226 60.2886 63.5718 60.2605 63.5262C60.2117 63.428 60.1262 63.3529 60.0224 63.317C59.9185 63.2811 59.8047 63.2873 59.7054 63.3342Z" fill="#222222"/>
<path d="M80.0958 50.1242C79.0423 50.9145 77.9661 51.7049 76.8446 52.5065C76.8008 52.5357 76.7634 52.5736 76.7349 52.6178C76.7064 52.6621 76.6874 52.7117 76.6789 52.7635C76.6704 52.8154 76.6726 52.8684 76.6856 52.9194C76.6985 52.9703 76.7217 53.0181 76.7539 53.0597C76.7844 53.1037 76.8234 53.1411 76.8688 53.1696C76.9141 53.1981 76.9648 53.2172 77.0178 53.2256C77.0707 53.2341 77.1248 53.2317 77.1768 53.2187C77.2288 53.2058 77.2777 53.1824 77.3204 53.15C78.4532 52.3484 79.586 51.5468 80.6056 50.7565C80.6887 50.6899 80.7424 50.5935 80.7551 50.488C80.7678 50.3825 80.7385 50.2762 80.6736 50.1919C80.6048 50.1083 80.5062 50.0546 80.3984 50.0419C80.2907 50.0293 80.1822 50.0588 80.0958 50.1242Z" fill="#222222"/>
<path d="M15.5916 79.2084C15.5938 79.9195 15.3842 80.6152 14.9892 81.2074C14.5942 81.7995 14.0317 82.2615 13.373 82.5346C12.7143 82.8078 11.989 82.8798 11.2891 82.7416C10.5893 82.6035 9.94634 82.2613 9.44185 81.7585C8.93736 81.2557 8.59403 80.6149 8.45539 79.9174C8.31675 79.2199 8.38905 78.4971 8.66311 77.8406C8.93717 77.1841 9.40066 76.6234 9.99481 76.2298C10.589 75.8361 11.287 75.6272 12.0005 75.6294C12.9529 75.6294 13.8663 76.0065 14.5398 76.6777C15.2132 77.3489 15.5916 78.2592 15.5916 79.2084Z" fill="#222222"/>
<path d="M89.1588 62.5099C89.1588 63.2178 88.9482 63.9098 88.5536 64.4984C88.159 65.087 87.5981 65.5457 86.9419 65.8166C86.2857 66.0875 85.5637 66.1583 84.8671 66.0202C84.1705 65.8821 83.5306 65.5413 83.0284 65.0407C82.5262 64.5402 82.1841 63.9025 82.0456 63.2082C81.907 62.5139 81.9781 61.7943 82.2499 61.1403C82.5217 60.4863 82.982 59.9274 83.5726 59.5341C84.1631 59.1408 84.8574 58.9309 85.5677 58.9309C86.5201 58.9309 87.4335 59.308 88.107 59.9792C88.7804 60.6504 89.1588 61.5607 89.1588 62.5099Z" fill="#222222"/>
<path d="M68.0115 31.7998C68.0138 32.5104 67.8044 33.2056 67.4099 33.7975C67.0154 34.3894 66.4536 34.8514 65.7955 35.1249C65.1375 35.3983 64.4128 35.4711 63.7132 35.3338C63.0137 35.1965 62.3707 34.8555 61.8658 34.3538C61.3608 33.8521 61.0166 33.2124 60.8767 32.5157C60.7368 31.8189 60.8075 31.0964 61.0798 30.4397C61.3521 29.783 61.8138 29.2216 62.4065 28.8266C62.9992 28.4316 63.6961 28.2207 64.4091 28.2207C65.3625 28.2207 66.2771 28.5974 66.9524 29.2683C67.6276 29.9392 68.0085 30.8495 68.0115 31.7998Z" fill="#222222"/>
</g>
<defs>
<clipPath id="clip0">
<rect width="105" height="105" fill="white"/>
</clipPath>
</defs>
</svg>
