<svg width="68" height="68" viewBox="0 0 68 68" fill="none" xmlns="http://www.w3.org/2000/svg">
<rect width="68" height="68" rx="10" fill="#E63E98"/>
<g clip-path="url(#clip0)">
<path d="M53.3166 31.3855C53.3127 30.8706 53.129 30.6435 52.6112 30.5182C52.2029 30.4184 51.7945 30.3263 51.3861 30.2324C51.1399 30.1756 50.8996 30.1208 50.6593 30.064L50.6007 30.0503C48.5589 29.5746 46.4487 29.0832 44.2818 29.2731C44.1919 29.2809 44.1001 29.2691 43.9907 29.2515C43.9438 29.2437 43.891 29.2359 43.8363 29.2319L43.7484 29.2222V14.1473C43.7484 13.2036 43.5471 13 42.6112 13C36.3099 13 30.0086 13 23.7093 13C22.8007 13 22.578 13.2173 22.578 14.1101C22.578 17.6223 22.576 21.1346 22.576 24.6449V29.275H22.4783C22.2634 29.275 22.0602 29.275 21.8472 29.2731C21.4252 29.2711 21.0266 29.2691 20.6299 29.277C20.5205 29.2789 20.4092 29.2789 20.2841 29.2809H20.1845C19.7194 29.2789 19.3013 29.2828 18.8968 29.3631C17.6053 29.6235 16.2962 29.925 15.0164 30.2187C14.5963 30.3146 14.1743 30.4125 13.7542 30.5065C13.1837 30.6357 13.0098 30.853 13.0059 31.4384C12.998 32.4682 12.998 33.5723 13.0059 34.8136C13.0098 35.4401 13.1895 35.6632 13.8109 35.8023L14.1274 35.8727C15.3994 36.1566 16.8413 36.4796 18.2442 36.7792C18.5764 36.8497 18.7054 37.0259 18.8089 37.2902C19.0102 37.8051 19.2231 38.3219 19.4303 38.8231C19.6452 39.3419 19.866 39.8783 20.0731 40.4089C20.1473 40.6027 20.1591 40.9121 20.0457 41.0961C19.5006 41.9927 18.9379 42.8855 18.3908 43.7489C18.1544 44.1228 17.9199 44.4948 17.6854 44.8687C17.2282 45.597 17.2458 45.7654 17.8398 46.3605C18.4103 46.9342 18.9828 47.5059 19.5553 48.0775L20.0184 48.5396C20.5518 49.0721 20.7902 49.0956 21.4369 48.6864L22.2849 48.148C23.1759 47.5842 24.1841 46.9459 25.1415 46.3194C25.2939 46.2196 25.4385 46.1706 25.5811 46.1706C25.7433 46.1706 25.8976 46.2313 26.0266 46.292C26.9058 46.6973 27.8515 47.1202 28.805 47.453C29.2798 47.6194 29.4908 47.8485 29.5846 48.2988C29.825 49.4754 30.1005 50.6677 30.3681 51.8188L30.5362 52.5432C30.6768 53.154 30.8722 53.3146 31.4877 53.3165C32.1169 53.3185 32.748 53.3205 33.3771 53.3205C33.8539 53.3205 34.3306 53.3205 34.8093 53.3185C35.4834 53.3165 35.6847 53.156 35.8312 52.5001C36.1927 50.8928 36.4936 49.5517 36.7886 48.1558C36.859 47.8211 37.0114 47.6488 37.3533 47.5235C38.4514 47.1163 39.3912 46.7286 40.2275 46.3371C40.5987 46.1628 40.8937 46.1119 41.2904 46.3762C42.1872 46.9714 43.1173 47.5548 44.0278 48.1304C44.3502 48.334 44.6726 48.5376 44.995 48.7412C45.5284 49.0799 45.8254 49.0486 46.263 48.61C47.0465 47.8269 47.8281 47.0419 48.6077 46.2548C49.0512 45.8065 49.0786 45.5344 48.7347 44.9901C48.512 44.6377 48.2892 44.2833 48.0626 43.9212C47.5077 43.0382 46.9352 42.1239 46.351 41.2331C46.1145 40.8709 46.1556 40.6106 46.3177 40.2562C46.7456 39.3223 47.1501 38.3376 47.5233 37.3293C47.6483 36.9906 47.8203 36.8379 48.1544 36.7655C49.6022 36.4601 51.1028 36.1214 52.4295 35.8238L52.5878 35.7885C53.131 35.6672 53.3244 35.4342 53.3283 34.8997C53.3283 33.7505 53.3264 32.566 53.3166 31.3855ZM51.8179 33.7309V33.7975C51.8199 33.9698 51.8199 34.144 51.8199 34.3202V34.3985L48.2228 35.209C47.8691 35.2893 47.4295 35.3911 47.0133 35.4714C46.5952 35.5536 46.3568 35.7768 46.2591 36.1781C45.8996 37.6778 45.331 39.0483 44.571 40.2542C44.3424 40.6145 44.3639 40.9512 44.6394 41.378C44.9637 41.8831 45.2841 42.3902 45.6065 42.8972L45.6437 42.956C46.0676 43.6275 46.5073 44.3225 46.9528 45.0038C47.1853 45.3601 47.156 45.6029 46.8512 45.8692C46.517 46.1609 46.181 46.4976 45.8254 46.8989C45.5479 47.2102 45.3095 47.1574 45.0379 46.9812C44.5163 46.6425 43.9907 46.3097 43.4651 45.9768L43.3889 45.9298C42.7402 45.5207 42.0719 45.0958 41.4154 44.6651C40.9621 44.3656 40.5772 44.3597 40.1298 44.6475C39.0102 45.368 37.7304 45.8985 36.3295 46.2235C35.8195 46.3429 35.5674 46.5994 35.46 47.1143C35.3095 47.8387 35.1415 48.5807 34.9754 49.3109L34.9695 49.3383C34.8308 49.955 34.6862 50.5913 34.5534 51.2198C34.4674 51.6289 34.315 51.8756 33.8187 51.8267C33.6233 51.8071 33.4123 51.7973 33.1798 51.7973C32.918 51.7973 32.66 51.8091 32.4197 51.8228C31.9996 51.8443 31.8687 51.6387 31.8003 51.3216C31.6557 50.6481 31.5033 49.9766 31.349 49.3051L31.3412 49.2679C31.1868 48.5885 31.011 47.8171 30.8547 47.0751C30.7531 46.5935 30.5186 46.3527 30.0477 46.2411C28.6428 45.9083 27.3337 45.366 26.1575 44.624C25.7374 44.3597 25.3779 44.3636 24.9539 44.6416C24.3013 45.0684 23.6409 45.4874 23.0039 45.8907L22.9844 45.9024C22.4588 46.2353 21.8628 46.6111 21.2904 46.9831C20.9777 47.1867 20.7628 47.1652 20.5029 46.9048C20.1903 46.5877 19.866 46.2979 19.5162 45.9807C19.3795 45.8574 19.2427 45.7341 19.1059 45.6088L19.0453 45.5539L21.3138 41.9555C21.3412 41.9125 21.3666 41.8694 21.3939 41.8244L21.4076 41.8028C21.4857 41.6736 21.5678 41.5405 21.6616 41.4152C21.9742 40.9943 21.9781 40.5969 21.6792 40.127C20.9582 38.9915 20.4287 37.7091 20.1083 36.3171C19.993 35.816 19.7253 35.5556 19.2114 35.4479C18.1211 35.2188 17.0621 34.978 15.923 34.7196C15.4814 34.6198 15.0379 34.5179 14.5905 34.4181L14.5143 34.4005L14.5123 33.7975C14.5104 33.2806 14.5084 32.7442 14.526 32.2176C14.5319 32.057 14.7292 31.8612 14.8796 31.826C15.2216 31.7457 15.5635 31.6615 15.9172 31.5754L15.9719 31.5617C17.0621 31.2935 18.1915 31.0174 19.3189 30.851C20.0184 30.7473 20.7569 30.7727 21.4721 30.7982C21.7749 30.808 22.1169 30.8217 22.451 30.8217H22.5487V30.9195C22.5408 34.6511 23.9828 37.6484 26.8335 39.8235C28.8109 41.333 31.0813 42.0436 33.5764 41.9281C36.4916 41.795 38.9653 40.6458 40.9309 38.5138C42.8867 36.3915 43.807 33.8836 43.7406 30.8491L43.7386 30.7433L43.8422 30.7492C44.2193 30.7668 44.5905 30.7766 44.952 30.7864H44.9774C45.8273 30.808 46.6304 30.8275 47.4373 30.945C48.297 31.0683 49.1548 31.2739 49.9832 31.4736L50.0067 31.4795C50.4483 31.5852 50.9055 31.6948 51.3549 31.7908C51.7007 31.8652 51.8316 32.0296 51.8199 32.3801C51.8121 32.8245 51.816 33.265 51.8179 33.7309ZM33.1368 33.5547C32.6542 33.5469 32.2009 33.3492 31.8609 32.9948C31.5268 32.6463 31.347 32.196 31.3568 31.7242C31.3763 30.7571 32.2009 29.9387 33.1602 29.9387H33.1915C34.1763 29.9544 34.9695 30.7805 34.9578 31.779C34.952 32.2665 34.7624 32.7168 34.4225 33.0477C34.0903 33.3726 33.6429 33.5508 33.1661 33.5508L33.1368 33.5547ZM30.0692 38.0929V38.04C30.0672 37.6465 30.0672 37.253 30.0731 36.8614C30.0907 35.8434 30.8156 35.119 31.8355 35.0994C32.0094 35.0955 32.1833 35.0955 32.3572 35.0955C32.4979 35.0955 32.6386 35.0955 32.7812 35.0975L33.2052 35.0994L33.6604 35.0975C33.9438 35.0955 34.2349 35.0955 34.5241 35.1014C35.4991 35.1249 36.2044 35.8003 36.2376 36.7459C36.2669 37.6093 36.2689 38.5059 36.2376 39.4888C36.2318 39.6806 36.0266 39.9449 35.8371 40.0036C34.104 40.5401 32.3064 40.5459 30.4932 40.0213C30.1767 39.9293 30.0555 39.7707 30.0614 39.4516C30.0731 38.9934 30.0711 38.5353 30.0692 38.0929ZM42.24 31.1564C42.2322 34.2478 40.9817 36.7694 38.5237 38.6547C38.4143 38.7389 38.2951 38.8133 38.1583 38.8995L38.1407 38.9092C38.0743 38.9523 38 38.9973 37.9219 39.0502L37.7714 39.1501V37.482C37.7714 35.5458 37.4783 34.9643 35.925 33.8288L35.8547 33.776L35.8996 33.6996C36.5288 32.6189 36.6558 31.6557 36.3041 30.669C36.0403 29.9328 35.5967 29.369 34.9481 28.9481C33.7073 28.1415 32.0075 28.2981 30.9094 29.3181C29.7155 30.4262 29.5514 31.9924 30.4482 33.727L30.4912 33.8112L30.4092 33.8582C29.2232 34.5356 28.6233 35.4596 28.5745 36.6872C28.5588 37.0748 28.5627 37.4722 28.5666 37.8618C28.5686 38.04 28.5706 38.2182 28.5706 38.3963V39.1422L28.4201 39.0483C28.342 38.9993 28.2716 38.9562 28.1974 38.9112C28.0704 38.8349 27.9609 38.7683 27.8593 38.6919C25.3935 36.834 24.1313 34.3848 24.1079 31.4129C24.0766 27.5659 24.0825 23.6562 24.0883 19.8757V19.8522C24.0903 18.2429 24.0942 16.6317 24.0942 15.0224V14.5662H42.2185L42.2322 14.8423C42.238 14.9499 42.2439 15.0537 42.2439 15.1575L42.2458 19.5742C42.2478 23.3567 42.2497 27.2703 42.24 31.1564Z" fill="white"/>
<path d="M15.6375 27.143C15.7625 27.143 15.8895 27.1117 16.0048 27.0491C16.3507 26.865 16.4894 26.4578 16.3331 26.08C16.2823 25.9566 16.2158 25.8431 16.1455 25.7197C16.1084 25.6571 16.0732 25.5944 16.038 25.5298C15.233 24.0263 14.9908 22.5286 15.3171 21.0759C15.4851 20.3241 15.8036 19.5958 16.1103 18.891C16.165 18.7657 16.2178 18.6424 16.2725 18.519C16.4112 18.196 16.4034 17.8769 16.253 17.6459C16.126 17.452 15.9091 17.3326 15.6219 17.3032L15.5281 17.2954L15.4128 17.362C15.2467 17.4559 15.1002 17.544 15.0181 17.6713C13.2205 20.4651 13.2205 23.9616 15.0181 26.7985C15.1549 27.0138 15.3874 27.143 15.6375 27.143Z" fill="white"/>
<path d="M50.7211 18.7657L50.8031 18.9165C50.9184 19.1279 51.0337 19.3452 51.1236 19.5723C51.9559 21.7004 51.8035 23.7874 50.6722 25.7707C50.4827 26.1035 50.4182 26.403 50.4847 26.6399C50.5315 26.8083 50.6468 26.9453 50.8246 27.0432C50.9438 27.1078 51.063 27.1411 51.1802 27.1411C51.4772 27.1411 51.7508 26.9297 51.995 26.5127C52.7707 25.1872 53.1673 23.7463 53.1752 22.231C53.183 20.6726 52.759 19.1749 51.9129 17.777C51.6687 17.3737 51.3893 17.2896 51.1978 17.2896C51.0689 17.2896 50.9399 17.3267 50.8149 17.4031C50.4358 17.6302 50.3518 18.0472 50.5921 18.5171C50.6331 18.6032 50.6761 18.6835 50.7211 18.7657Z" fill="white"/>
<path d="M48.092 24.911C48.133 25.0363 48.2307 25.2105 48.4769 25.3358C48.5921 25.3945 48.7074 25.4239 48.8227 25.4239C49.1041 25.4239 49.3542 25.2477 49.5261 24.9266C49.9892 24.0613 50.2295 23.149 50.2412 22.2112C50.2354 21.3713 49.9423 20.2514 49.5456 19.5466C49.3034 19.1179 49.0142 19.0278 48.8149 19.0278C48.6977 19.0278 48.5785 19.0592 48.4632 19.1218C48.3088 19.204 47.836 19.531 48.2033 20.2495C48.8794 21.5671 48.8735 22.9062 48.1877 24.2257C48.0587 24.4685 48.0255 24.7054 48.092 24.911Z" fill="white"/>
<path d="M18.0689 25.3948C18.1725 25.3948 18.2741 25.3713 18.3718 25.3262C18.5574 25.2381 18.6805 25.1089 18.7372 24.9406C18.8134 24.7174 18.7723 24.4335 18.616 24.1203C17.9771 22.8438 17.983 21.5517 18.6316 20.2771C19.0185 19.5156 18.532 19.1925 18.3737 19.1103C18.1686 19.0046 17.9673 18.9928 17.7758 19.0731C17.5805 19.1553 17.4066 19.3374 17.2737 19.5978C16.8497 20.4279 16.625 21.2991 16.6094 22.184C16.6094 23.0591 16.8126 23.9069 17.2346 24.7742C17.4261 25.1638 17.7368 25.3948 18.0689 25.3948Z" fill="white"/>
<path d="M39.6577 24.1554C39.5659 24.1417 39.4701 24.1436 39.3705 24.1456H39.2825L27.0024 24.1436C26.932 24.1417 26.8617 24.1417 26.7933 24.1456C26.3185 24.171 26 24.4725 26.002 24.8993C26.0039 25.33 26.3126 25.6296 26.7894 25.6609C26.8988 25.6687 27.0082 25.6668 27.1411 25.6668H27.27H28.1981C31.5979 25.6668 34.9977 25.6668 38.4013 25.6668C38.5147 25.6668 38.628 25.6687 38.7452 25.6707C38.8566 25.6727 38.9719 25.6746 39.0852 25.6746C39.3119 25.6746 39.4936 25.6687 39.6577 25.655C40.0641 25.6198 40.3337 25.3144 40.3259 24.8915C40.3181 24.5039 40.0504 24.2102 39.6577 24.1554Z" fill="white"/>
<path d="M39.3783 21.5965C37.7566 21.5769 36.0528 21.5808 34.6714 21.5828L32.9911 21.5847L31.7933 21.5808C30.6308 21.5808 29.4702 21.5808 28.3076 21.5808C28.2294 21.5808 28.1474 21.5808 28.0653 21.5808L27.9012 21.5789C27.7761 21.5789 27.6491 21.5769 27.5202 21.5769C27.188 21.5769 26.936 21.5828 26.7034 21.5945C26.2951 21.6161 26.0079 21.9156 26.0039 22.3267C26 22.73 26.2755 23.0335 26.6898 23.0805C26.7503 23.0864 26.8148 23.0883 26.8773 23.0883H27.018C31.1153 23.0883 35.2107 23.0864 39.308 23.0844H39.3862C39.4917 23.0844 39.6148 23.0864 39.7261 23.0629C40.0563 22.9963 40.24 22.7418 40.3025 22.5264C40.3748 22.2778 40.3142 22.037 40.1345 21.8647C39.9489 21.6846 39.6108 21.6004 39.3783 21.5965Z" fill="white"/>
<path d="M32.1176 19.0044H30.9805L28.6241 19.0024C28.0594 19.0024 27.4967 19.0024 26.932 19.0064C26.0723 19.0103 26.0078 19.5898 26.0078 19.766C26.0078 19.9441 26.0782 20.5217 26.9379 20.5217C28.2939 20.5236 29.6479 20.5236 31.0039 20.5236C32.315 20.5236 33.626 20.5236 34.9371 20.5217C35.5076 20.5217 35.8828 20.23 35.8945 19.7816C35.9004 19.58 35.8378 19.4097 35.7089 19.2765C35.5389 19.1003 35.2692 19.0064 34.9312 19.0044C33.9934 19.0024 33.0555 19.0024 32.1176 19.0044Z" fill="white"/>
<path d="M26.9281 17.9629C27.3873 17.9669 27.8464 17.9669 28.3056 17.9649L29.3685 17.9629L30.5877 17.9688C30.8984 17.9688 31.2071 17.9688 31.5178 17.9669C31.8421 17.9649 32.1157 17.8651 32.2876 17.6869C32.4185 17.5518 32.485 17.3756 32.4791 17.1759C32.4654 16.7237 32.0903 16.43 31.5197 16.428C29.9898 16.4241 28.4599 16.4241 26.9301 16.4261C26.6213 16.4261 26.3615 16.5181 26.1993 16.6826C26.0703 16.8137 26.002 16.9899 26.002 17.1916C26.0039 17.6614 26.3576 17.9571 26.9281 17.9629Z" fill="white"/>
<path d="M34.3482 17.961H34.6667C34.7116 17.961 34.7585 17.961 34.823 17.9629C34.864 17.9629 34.9031 17.9649 34.9441 17.9649C34.9969 17.9649 35.0477 17.9629 35.0985 17.961C35.5577 17.9296 35.8937 17.6086 35.8937 17.1955C35.8937 16.7804 35.5616 16.4593 35.1004 16.43C34.8445 16.4143 34.5924 16.4182 34.3775 16.4241C33.8773 16.4378 33.5334 16.7373 33.5197 17.1681C33.51 17.6105 33.8421 17.9296 34.3482 17.961Z" fill="white"/>
<path d="M31.9458 38.5159C32.2292 38.5257 32.5222 38.5237 32.7841 38.5218C32.9091 38.5198 33.0361 38.5198 33.1592 38.5198L33.8079 38.5237C33.8685 38.5237 33.929 38.5237 34.0013 38.5257L34.1694 38.5276C34.2553 38.5276 34.3394 38.5257 34.4234 38.5198C34.8747 38.4885 35.2128 38.1557 35.2108 37.7465C35.2088 37.3314 34.8591 36.9986 34.4156 36.9888C33.6223 36.9712 32.8095 36.9712 31.9322 36.9869C31.4691 36.9966 31.1389 37.3021 31.1291 37.7347C31.1193 38.1772 31.4554 38.4983 31.9458 38.5159Z" fill="white"/>
</g>
<defs>
<clipPath id="clip0">
<rect width="40.3244" height="40.3244" fill="white" transform="translate(13 13)"/>
</clipPath>
</defs>
</svg>
