<svg width="68" height="68" viewBox="0 0 68 68" fill="none" xmlns="http://www.w3.org/2000/svg">
<rect width="68" height="68" rx="10" fill="#9E37A9"/>
<g clip-path="url(#clip0)">
<path d="M42.452 21.8965H42.4475C42.0126 21.8965 41.6621 22.2491 41.6621 22.6841C41.6621 23.1191 42.017 23.4718 42.452 23.4718C42.8869 23.4718 43.2396 23.1191 43.2396 22.6841C43.2396 22.2491 42.887 21.8965 42.452 21.8965Z" fill="white"/>
<path d="M46.2613 21.8965H46.2591C45.8242 21.8965 45.4727 22.2491 45.4727 22.6841C45.4727 23.1191 45.8264 23.4718 46.2614 23.4718C46.6964 23.4718 47.049 23.1191 47.049 22.6841C47.049 22.2491 46.6963 21.8965 46.2613 21.8965Z" fill="white"/>
<path d="M38.6434 21.8965H38.6389C38.204 21.8965 37.8535 22.2491 37.8535 22.6841C37.8535 23.1191 38.2084 23.4718 38.6434 23.4718C39.0783 23.4718 39.431 23.1191 39.431 22.6841C39.431 22.2491 39.0785 21.8965 38.6434 21.8965Z" fill="white"/>
<path d="M30.6486 21.8965H20.0435C19.6086 21.8965 19.2559 22.2491 19.2559 22.6841C19.2559 23.1191 19.6086 23.4718 20.0435 23.4718H30.6486C31.0835 23.4718 31.4362 23.1191 31.4362 22.6841C31.4362 22.2491 31.0835 21.8965 30.6486 21.8965Z" fill="white"/>
<path d="M55.3192 50.9196C55.2615 50.1137 54.895 49.3802 54.2875 48.8547L51.3043 46.2716V20.5253C51.3043 19.2316 50.2519 18.1792 48.9582 18.1792H17.3461C16.0524 18.1792 15 19.2316 15 20.5253V46.6637C15 47.9574 16.0524 49.0098 17.3461 49.0098H45.2522L50.3385 53.415C50.8898 53.8919 51.5819 54.1482 52.3073 54.1482C52.3808 54.1482 52.4546 54.1455 52.5288 54.1403C53.3346 54.0827 54.0678 53.7164 54.5924 53.1099C55.1188 52.5031 55.3769 51.7253 55.3192 50.9196ZM16.5753 20.5253C16.5753 20.1003 16.9211 19.7545 17.3461 19.7545H48.9583C49.3833 19.7545 49.7291 20.1003 49.7291 20.5253V25.6119H16.5753V20.5253ZM17.3461 47.4345C16.9211 47.4345 16.5753 47.0887 16.5753 46.6637V27.1871H49.7291V44.9075L44.0014 39.9478C44.0007 39.848 43.9979 39.748 43.9907 39.6476C43.9755 39.4364 43.9453 39.2287 43.9025 39.0251H46.7369C47.1718 39.0251 47.5245 38.6725 47.5245 38.2375V30.0032C47.5245 29.5682 47.1718 29.2155 46.7369 29.2155H36.6854C36.2505 29.2155 35.8977 29.5682 35.8977 30.0032C35.8977 30.4382 36.2505 30.7908 36.6854 30.7908H45.9492V37.4498H43.2426C43.0149 37.1072 42.7402 36.7928 42.4205 36.5163C42.4136 36.5103 42.4066 36.5045 42.3995 36.4988C41.251 35.5737 40.3672 35.5731 39.5874 35.5725C38.668 35.5719 37.7172 35.5712 35.6989 33.898C35.369 33.6244 34.8809 33.665 34.6005 33.989C33.7858 34.9309 33.4979 36.1643 33.5707 37.4498H20.3552V30.7908H29.6123C30.0472 30.7908 30.3999 30.4382 30.3999 30.0032C30.3999 29.5682 30.0472 29.2155 29.6123 29.2155H19.5675C19.1326 29.2155 18.7799 29.5682 18.7799 30.0032V38.2375C18.7799 38.6725 19.1326 39.0251 19.5675 39.0251H33.8271C34.289 40.7822 35.2968 42.4553 36.4311 43.4368C37.2696 44.1628 38.3193 44.5528 39.4179 44.5528C39.6312 44.5532 39.8433 44.5382 40.0544 44.508L43.4334 47.4345H17.3461ZM41.6935 41.9399C41.1694 42.5461 40.4404 42.9117 39.6408 42.9695C38.8418 43.027 38.0677 42.7701 37.4621 42.2458C35.9011 40.8948 34.5585 37.6218 35.3955 35.6606C37.4153 37.1462 38.6086 37.1472 39.5864 37.1479C40.2743 37.1483 40.6908 37.1486 41.4004 37.7169C42.0005 38.2403 42.3624 38.9656 42.4194 39.7605C42.4768 40.5598 42.2193 41.3335 41.6935 41.9399ZM41.768 43.9082C42.1825 43.6605 42.5596 43.3467 42.8843 42.9711C43.2103 42.5953 43.4674 42.1764 43.6533 41.7302L49.8585 47.1034L47.972 49.2815L41.768 43.9082ZM53.4017 52.0785C53.152 52.3672 52.8021 52.5414 52.4164 52.569C52.0301 52.5963 51.6584 52.4739 51.3695 52.2239L49.1628 50.3126L51.0493 48.1344L53.2566 50.0458C53.5458 50.2959 53.7204 50.6462 53.748 51.0321C53.7756 51.4177 53.6529 51.789 53.4017 52.0785Z" fill="white"/>
<path d="M25.0904 42.2159H31.938C32.3729 42.2159 32.7256 41.8633 32.7256 41.4283C32.7256 40.9933 32.3729 40.6406 31.938 40.6406H25.0904C24.6554 40.6406 24.3027 40.9933 24.3027 41.4283C24.3027 41.8633 24.6554 42.2159 25.0904 42.2159Z" fill="white"/>
<path d="M19.5669 42.2159H21.9001C22.335 42.2159 22.6877 41.8633 22.6877 41.4283C22.6877 40.9933 22.335 40.6406 21.9001 40.6406H19.5669C19.132 40.6406 18.7793 40.9933 18.7793 41.4283C18.7793 41.8633 19.132 42.2159 19.5669 42.2159Z" fill="white"/>
<path d="M26.026 43.8308H19.5669C19.132 43.8308 18.7793 44.1834 18.7793 44.6185C18.7793 45.0535 19.132 45.4061 19.5669 45.4061H26.0261C26.461 45.4061 26.8137 45.0535 26.8137 44.6185C26.8137 44.1834 26.461 43.8308 26.026 43.8308Z" fill="white"/>
<path d="M33.5349 43.8308H30.0162C29.5812 43.8308 29.2285 44.1834 29.2285 44.6185C29.2285 45.0535 29.5812 45.4061 30.0162 45.4061H33.5349C33.9698 45.4061 34.3225 45.0535 34.3225 44.6185C34.3225 44.1834 33.9699 43.8308 33.5349 43.8308Z" fill="white"/>
<path d="M33.1489 30.7909H33.1534C33.5883 30.7909 33.9388 30.4382 33.9388 30.0032C33.9388 29.5682 33.5839 29.2156 33.149 29.2156C32.714 29.2156 32.3613 29.5682 32.3613 30.0032C32.3612 30.4382 32.7139 30.7909 33.1489 30.7909Z" fill="white"/>
</g>
<defs>
<clipPath id="clip0">
<rect width="40.3272" height="40.3272" fill="white" transform="translate(15 16)"/>
</clipPath>
</defs>
</svg>
