<svg width="68" height="68" viewBox="0 0 68 68" fill="none" xmlns="http://www.w3.org/2000/svg">
<rect width="68" height="68" rx="10" fill="#F64538"/>
<path d="M45.8126 25.4688H34C33.5469 25.4688 33.1797 25.836 33.1797 26.2891C33.1797 26.7421 33.5469 27.1094 34 27.1094H45.8126C46.2657 27.1094 46.633 26.7421 46.633 26.2891C46.633 25.836 46.2657 25.4688 45.8126 25.4688Z" fill="white"/>
<path d="M42.9413 29.6466C42.7887 29.494 42.5771 29.4062 42.3613 29.4062C42.1456 29.4062 41.9339 29.494 41.7814 29.6466C41.6288 29.7992 41.541 30.0108 41.541 30.2266C41.541 30.4423 41.6288 30.6539 41.7814 30.8065C41.9339 30.9591 42.1456 31.0469 42.3613 31.0469C42.5771 31.0469 42.7887 30.9591 42.9413 30.8065C43.0939 30.6539 43.1816 30.4423 43.1816 30.2266C43.1816 30.0108 43.0939 29.7992 42.9413 29.6466Z" fill="white"/>
<path d="M34.58 16.7677C34.4274 16.6151 34.2157 16.5273 34 16.5273C33.7843 16.5273 33.5726 16.6151 33.42 16.7677C33.2675 16.9203 33.1797 17.1319 33.1797 17.3477C33.1797 17.5634 33.2675 17.775 33.42 17.9276C33.5726 18.0802 33.7843 18.168 34 18.168C34.2157 18.168 34.4274 18.0802 34.58 17.9276C34.7325 17.775 34.8203 17.5634 34.8203 17.3477C34.8203 17.1319 34.7325 16.9203 34.58 16.7677Z" fill="white"/>
<path d="M38.9118 29.4062H34C33.5469 29.4062 33.1797 29.7735 33.1797 30.2266C33.1797 30.6796 33.5469 31.0469 34 31.0469H38.9118C39.3648 31.0469 39.7321 30.6796 39.7321 30.2266C39.7321 29.7735 39.3648 29.4062 38.9118 29.4062Z" fill="white"/>
<path d="M45.8126 34.3281H34C33.5469 34.3281 33.1797 34.6954 33.1797 35.1484C33.1797 35.6015 33.5469 35.9687 34 35.9687H45.8126C46.2657 35.9687 46.633 35.6015 46.633 35.1484C46.633 34.6954 46.2657 34.3281 45.8126 34.3281Z" fill="white"/>
<path d="M42.9413 38.506C42.7887 38.3534 42.5771 38.2656 42.3613 38.2656C42.1456 38.2656 41.9339 38.3534 41.7814 38.506C41.6288 38.6586 41.541 38.8702 41.541 39.0859C41.541 39.3017 41.6288 39.5133 41.7814 39.6659C41.9339 39.8185 42.1456 39.9062 42.3613 39.9062C42.5771 39.9062 42.7887 39.8185 42.9413 39.6659C43.0939 39.5133 43.1816 39.3017 43.1816 39.0859C43.1816 38.8702 43.0939 38.6586 42.9413 38.506Z" fill="white"/>
<path d="M38.9118 38.2656H34C33.5469 38.2656 33.1797 38.6329 33.1797 39.0859C33.1797 39.539 33.5469 39.9062 34 39.9062H38.9118C39.3648 39.9062 39.7321 39.539 39.7321 39.0859C39.7321 38.6329 39.3648 38.2656 38.9118 38.2656Z" fill="white"/>
<path d="M45.8126 43.1875H34C33.5469 43.1875 33.1797 43.5548 33.1797 44.0078C33.1797 44.4609 33.5469 44.8281 34 44.8281H45.8126C46.2657 44.8281 46.633 44.4609 46.633 44.0078C46.633 43.5548 46.2657 43.1875 45.8126 43.1875Z" fill="white"/>
<path d="M42.9413 47.3654C42.7887 47.2128 42.5771 47.125 42.3613 47.125C42.1456 47.125 41.9339 47.2128 41.7814 47.3654C41.6288 47.5179 41.541 47.7296 41.541 47.9453C41.541 48.1611 41.6288 48.3727 41.7814 48.5253C41.9339 48.6779 42.1456 48.7656 42.3613 48.7656C42.5771 48.7656 42.7887 48.6779 42.9413 48.5253C43.0939 48.3727 43.1816 48.1611 43.1816 47.9453C43.1816 47.7296 43.0939 47.5179 42.9413 47.3654Z" fill="white"/>
<path d="M38.9118 47.125H34C33.5469 47.125 33.1797 47.4923 33.1797 47.9453C33.1797 48.3984 33.5469 48.7656 34 48.7656H38.9118C39.3648 48.7656 39.7321 48.3984 39.7321 47.9453C39.7321 47.4923 39.3648 47.125 38.9118 47.125Z" fill="white"/>
<path d="M47.3909 16.1993H41.1254C40.2197 15.3362 38.9954 14.8047 37.6485 14.8047H36.93C36.3806 13.7171 35.2519 13 33.9999 13C32.7478 13 31.6193 13.7171 31.0698 14.8047H30.3495C29.0026 14.8047 27.7784 15.3362 26.8727 16.1993H20.609C18.4036 16.1993 16.6094 17.9936 16.6094 20.199V51.0003C16.6094 53.2057 18.4036 55 20.609 55H47.3908C49.5962 55 51.3905 53.2057 51.3905 51.0003V20.199C51.3906 17.9936 49.5963 16.1993 47.3909 16.1993ZM30.3496 16.4453H31.6281C31.9971 16.4453 32.3206 16.199 32.4188 15.8434C32.6145 15.1352 33.2646 14.6406 34 14.6406C34.7353 14.6406 35.3855 15.1352 35.581 15.8434C35.6792 16.199 36.0028 16.4453 36.3717 16.4453H37.6485C39.429 16.4453 40.8946 17.8193 41.0409 19.5626H26.9573C27.1035 17.8193 28.5692 16.4453 30.3496 16.4453ZM49.7499 51.0004C49.7499 52.3012 48.6917 53.3595 47.3909 53.3595H20.609C19.3083 53.3595 18.25 52.3012 18.25 51.0004V20.199C18.25 18.8982 19.3083 17.8399 20.609 17.8399H25.7234C25.4547 18.4561 25.3047 19.1355 25.3047 19.8497V20.3829C25.3047 20.8359 25.6719 21.2032 26.125 21.2032H41.8732C42.3263 21.2032 42.6935 20.8359 42.6935 20.3829V19.8497C42.6935 19.1356 42.5435 18.4561 42.2748 17.8399H47.3909C48.6917 17.8399 49.7499 18.8982 49.7499 20.199V51.0004Z" fill="white"/>
<path d="M28.7837 25.2715C28.4633 24.9512 27.9439 24.9512 27.6236 25.2714L24.1158 28.7793L23.0352 27.6987C22.7148 27.3784 22.1954 27.3784 21.875 27.6987C21.5547 28.019 21.5547 28.5384 21.875 28.8588L23.5357 30.5195C23.6959 30.6797 23.9059 30.7598 24.1158 30.7598C24.3257 30.7598 24.5357 30.6797 24.6958 30.5195L28.7837 26.4317C29.104 26.1113 29.104 25.5919 28.7837 25.2715Z" fill="white"/>
<path d="M26.7813 43.1875H22.8438C22.3907 43.1875 22.0234 43.5548 22.0234 44.0078V47.9453C22.0234 48.3984 22.3907 48.7656 22.8438 48.7656H26.7813C27.2343 48.7656 27.6016 48.3984 27.6016 47.9453V44.0078C27.6016 43.5548 27.2343 43.1875 26.7813 43.1875ZM25.9609 47.125H23.6641V44.8281H25.9609V47.125Z" fill="white"/>
<path d="M26.7813 34.3281H22.8438C22.3907 34.3281 22.0234 34.6954 22.0234 35.1484V39.0859C22.0234 39.539 22.3907 39.9062 22.8438 39.9062H26.7813C27.2343 39.9062 27.6016 39.539 27.6016 39.0859V35.1484C27.6016 34.6954 27.2343 34.3281 26.7813 34.3281ZM25.9609 38.2656H23.6641V35.9687H25.9609V38.2656Z" fill="white"/>
</svg>
