<svg width="68" height="68" viewBox="0 0 68 68" fill="none" xmlns="http://www.w3.org/2000/svg">
<rect width="68" height="68" rx="10" fill="#40D674"/>
<path d="M24.2345 39.4335C24.6267 39.2072 24.761 38.7051 24.5347 38.3129C24.3082 37.921 23.8064 37.7864 23.4142 38.0126C23.022 38.2392 22.8874 38.7413 23.1139 39.1332C23.3402 39.5254 23.8423 39.66 24.2345 39.4335Z" fill="white"/>
<path d="M20.8737 45.0952L25.0047 52.2508C25.8962 53.7966 27.9015 54.3689 29.4873 53.4521C31.0565 52.5453 31.5958 50.5403 30.688 48.9699L28.227 44.7068L30.3582 43.4763C30.7505 43.2495 30.885 42.748 30.6585 42.3558L29.5918 40.5082C29.719 40.4835 30.5553 40.3194 45.304 37.4262C47.1272 37.3272 48.2196 35.3331 47.2987 33.739L44.5724 29.0171L46.3146 26.3783C46.4857 26.1187 46.496 25.7852 46.3406 25.516L44.6999 22.6744C44.5445 22.4052 44.2494 22.2476 43.9402 22.2658L40.7842 22.4552L37.7577 17.2129C37.3194 16.4535 36.534 15.9936 35.6573 15.9827C35.6467 15.9824 35.6364 15.9824 35.6259 15.9824C34.7786 15.9824 34.0096 16.4041 33.5539 17.1171L22.838 30.7682L15.8714 34.7903C13.1314 36.3717 12.1822 39.8868 13.7697 42.6342C15.22 45.1465 18.2775 46.1347 20.8737 45.0952ZM29.2675 49.7905C29.7206 50.5743 29.4524 51.5773 28.6664 52.0313C27.8778 52.4873 26.8735 52.2072 26.4256 51.4308L22.324 44.3258L25.1656 42.6852C29.9125 50.9082 29.1912 49.6588 29.2675 49.7905ZM27.4067 43.2857L26.5864 41.8649L28.0072 41.0446L28.8275 42.4654L27.4067 43.2857ZM43.5326 23.9337L44.6663 25.8973L43.6553 27.4283L41.7013 24.0436L43.5326 23.9337ZM34.926 18.0165C35.1462 17.6564 35.4955 17.6192 35.6371 17.623C35.7771 17.6246 36.1261 17.6682 36.3366 18.0329L45.8779 34.5593C46.1887 35.0973 45.8109 35.7737 45.1876 35.7891C45.0758 35.7917 45.0242 35.8119 44.7377 35.8654L34.645 18.3841C34.8568 18.1117 34.8841 18.0854 34.926 18.0165ZM33.5533 19.7748L43.0359 36.1993L28.7247 39.0063L24.3732 31.4693L33.5533 19.7748ZM15.1905 41.8139C14.8303 41.1907 14.64 40.4832 14.64 39.7673C14.64 38.3042 15.4263 36.9417 16.6917 36.2111L23.0853 32.5197L27.1869 39.6238L20.7933 43.3155C18.8345 44.446 16.3213 43.7724 15.1905 41.8139Z" fill="white"/>
<path d="M21.6928 39.9532C21.4662 39.561 20.9644 39.4264 20.5722 39.653L19.1514 40.4733C18.7598 40.6995 18.2571 40.5646 18.0308 40.1731C17.8043 39.7808 17.3025 39.6463 16.9103 39.8728C16.5181 40.0994 16.3835 40.6012 16.61 40.9934C17.2852 42.163 18.7912 42.5754 19.9717 41.8941L21.3925 41.0738C21.7847 40.8473 21.9193 40.3458 21.6928 39.9532Z" fill="white"/>
<path d="M53.7797 17.7371L49.2087 20.2807C48.813 20.5011 48.6704 21.0007 48.8908 21.3964C49.1106 21.7919 49.6099 21.9351 50.0066 21.7143L54.5772 19.1707C54.9733 18.9502 55.1156 18.4507 54.8951 18.055C54.675 17.6589 54.1754 17.5166 53.7797 17.7371Z" fill="white"/>
<path d="M53.3021 26.2328L50.1326 25.3836C49.6949 25.2664 49.245 25.5259 49.1278 25.9636C49.0105 26.4013 49.2704 26.8509 49.7081 26.9682L52.8778 27.8173C53.3181 27.9356 53.7658 27.6719 53.8824 27.2374C53.9997 26.7996 53.7398 26.3498 53.3021 26.2328Z" fill="white"/>
<path d="M45.3373 14.7566L44.4872 17.9263C44.3699 18.364 44.6294 18.8136 45.0671 18.9312C45.5045 19.0482 45.9544 18.7893 46.072 18.3512L46.9218 15.1815C47.0391 14.7438 46.7795 14.2939 46.3418 14.1766C45.9044 14.0593 45.4545 14.3189 45.3373 14.7566Z" fill="white"/>
</svg>
