<svg width="68" height="68" viewBox="0 0 68 68" fill="none" xmlns="http://www.w3.org/2000/svg">
<rect width="68" height="68" rx="10" fill="#017FDD"/>
<path d="M19.1517 23.4749H18.3516V24.275H19.1517V23.4749Z" fill="white"/>
<path d="M29.9282 29.4027C26.1055 29.4027 23.0001 32.508 23.0001 36.3307C23.0001 40.1535 26.1055 43.2588 29.9282 43.2588C33.7509 43.2588 36.8562 40.1535 36.8562 36.3307C36.8562 32.508 33.7509 29.4027 29.9282 29.4027ZM29.9282 42.205C26.6856 42.205 24.0539 39.5733 24.0539 36.3307C24.0539 33.0882 26.6856 30.4565 29.9282 30.4565C33.1707 30.4565 35.8024 33.0882 35.8024 36.3307C35.8024 39.5733 33.1707 42.205 29.9282 42.205Z" fill="white" stroke="white" stroke-width="0.253623"/>
<mask id="path-4-outside-1" maskUnits="userSpaceOnUse" x="13.166" y="13.1665" width="40" height="40" fill="black">
<rect fill="white" x="13.166" y="13.1665" width="40" height="40"/>
<path d="M52.0928 27.3688C52.0928 25.7366 50.7645 24.4083 49.1322 24.4083H45.5396L45.4836 24.2483C44.9715 22.816 43.6112 21.8479 42.091 21.8479C40.5707 21.8479 39.2105 22.816 38.6984 24.2483L38.6424 24.4083H35.0497C34.8497 24.4083 34.6497 24.4323 34.4576 24.4643L34.1696 24.5203V19.6875C34.1696 18.0552 32.8413 16.727 31.209 16.727H27.6164L27.5604 16.5669C27.0483 15.1347 25.6881 14.1665 24.1678 14.1665C22.6475 14.1665 21.2873 15.1347 20.7752 16.5669L20.7192 16.727H17.1265C15.4943 16.727 14.166 18.0552 14.166 19.6875V27.3688C14.166 29.0011 15.4943 30.3294 17.1265 30.3294H22.7435L22.4555 30.7134C21.2233 32.3537 20.5672 34.2981 20.5672 36.3304C20.5672 38.1388 21.0952 39.8991 22.0794 41.4193L22.1834 41.5794L20.9672 42.8036L20.3271 42.1635L14.9502 47.5484C14.4461 48.0525 14.166 48.7166 14.166 49.4288C14.166 50.901 15.3582 52.0932 16.8305 52.0932C17.5426 52.0932 18.2067 51.8132 18.7108 51.3171L24.0878 45.9321L23.4477 45.292L24.6719 44.0678L24.8319 44.1718C26.3522 45.164 28.1125 45.6841 29.9208 45.6841C34.3536 45.6841 38.2103 42.5315 39.0904 38.1948L39.1305 38.0027H43.6112V40.9073L47.972 38.0027H49.1322C50.7645 38.0027 52.0928 36.6745 52.0928 35.0422V27.3688ZM42.091 22.648C43.6353 22.648 44.8915 23.9042 44.8915 25.4485C44.8915 26.9928 43.6353 28.249 42.091 28.249C40.5467 28.249 39.2905 26.9928 39.2905 25.4485C39.2905 23.9042 40.5467 22.648 42.091 22.648ZM43.6433 29.2812C45.8836 29.9613 47.4519 32.0737 47.4519 34.4101V34.6501H43.7393L43.2992 29.1772L43.6433 29.2812ZM42.9391 34.6501H41.2428L41.6909 29.0651L41.9069 29.0571C41.9309 29.0571 41.955 29.0571 41.971 29.0491C42.051 29.0411 42.131 29.0411 42.211 29.0491C42.235 29.0491 42.259 29.0491 42.275 29.0491L42.491 29.0571L42.9391 34.6501ZM35.0497 25.2085H38.4903V25.4485C38.4903 26.5527 38.9944 27.5849 39.8746 28.281L40.2026 28.5371L39.8186 28.6891C38.9224 29.0491 38.1143 29.6172 37.4742 30.3374L37.2901 30.5454L37.1141 30.3294C36.0419 29.0491 34.6417 28.081 33.0654 27.5129L32.8973 27.4569L32.9053 27.2808C32.9454 26.1206 33.8895 25.2085 35.0497 25.2085ZM27.7684 17.7671V17.5271H31.209C32.4013 17.5271 33.3694 18.4953 33.3694 19.6875V24.9444L33.2734 25.0164C32.6413 25.4965 32.2412 26.1846 32.1292 26.9688L32.0972 27.2248L31.8492 27.1688C31.4651 27.0888 31.041 27.0328 30.5609 27.0008L30.3369 26.9848V26.7287C30.3369 24.2003 28.8086 21.9519 26.4562 21.0077L26.0721 20.8557L26.4002 20.5996C27.2643 19.9035 27.7684 18.8793 27.7684 17.7671ZM29.5287 26.7287V26.9688H25.8161L25.376 21.4958L25.7121 21.5998C27.9605 22.2799 29.5287 24.3843 29.5287 26.7287ZM24.1678 14.9666C25.7121 14.9666 26.9683 16.2229 26.9683 17.7671C26.9683 19.3114 25.7121 20.5676 24.1678 20.5676C22.6235 20.5676 21.3673 19.3114 21.3673 17.7671C21.3673 16.2229 22.6235 14.9666 24.1678 14.9666ZM25.0159 26.9688H23.3196L23.7677 21.3838L23.9838 21.3758C24.0078 21.3758 24.0318 21.3758 24.0478 21.3758C24.1278 21.3678 24.2078 21.3678 24.2878 21.3758C24.3118 21.3758 24.3358 21.3758 24.3518 21.3758L24.5679 21.3838L25.0159 26.9688ZM22.9516 21.4958L22.5115 26.9688H18.8068V26.7287C18.8068 24.3843 20.3751 22.2799 22.6155 21.5998L22.9516 21.4958ZM17.1265 29.5292C15.9343 29.5292 14.9662 28.5611 14.9662 27.3688V19.6875C14.9662 18.4953 15.9343 17.5271 17.1265 17.5271H20.5672V17.7671C20.5672 18.8793 21.0712 19.9035 21.9514 20.5996L22.2795 20.8557L21.8954 21.0077C19.535 21.9519 18.0067 24.2003 18.0067 26.7287V27.7689H26.0561L25.28 28.217C24.6799 28.5611 24.1118 28.9851 23.5837 29.4652L23.5117 29.5292H17.1265ZM18.1507 50.749C17.7987 51.1011 17.3346 51.2931 16.8305 51.2931C15.7983 51.2931 14.9662 50.4609 14.9662 49.4288C14.9662 48.9327 15.1582 48.4606 15.5103 48.1085L20.3271 43.2997L22.9596 45.9321L18.1507 50.749ZM22.8876 44.7239L21.5353 43.3717L22.6715 42.2355L22.8396 42.4275C23.1436 42.7796 23.4797 43.1156 23.8317 43.4197L24.0238 43.5877L22.8876 44.7239ZM29.9288 44.892C25.208 44.892 21.3673 41.0513 21.3673 36.3304C21.3673 31.6096 25.208 27.7689 29.9288 27.7689C34.6497 27.7689 38.4903 31.6096 38.4903 36.3304C38.4903 41.0513 34.6497 44.892 29.9288 44.892ZM39.1385 34.6501L39.0984 34.4581C38.8824 33.3859 38.4663 32.3537 37.8582 31.3856L37.7702 31.2415L37.8742 31.1055C38.5543 30.2334 39.4825 29.6012 40.5387 29.2812L40.8748 29.1772L40.4427 34.6421L39.1385 34.6501ZM51.2926 35.0502C51.2926 36.2424 50.3244 37.2106 49.1322 37.2106H47.732L44.4114 39.427V37.2106H39.2425L39.2665 36.8265C39.2825 36.6585 39.2905 36.4905 39.2905 36.3304C39.2905 36.1704 39.2825 36.0024 39.2665 35.8344L39.2425 35.4503H48.2521V34.4101C48.2521 31.8816 46.7238 29.6333 44.3714 28.6891L43.9873 28.5371L44.3154 28.281C45.1955 27.5929 45.6996 26.5607 45.6996 25.4485V25.2085H49.1402C50.3324 25.2085 51.3006 26.1766 51.3006 27.3688V35.0502H51.2926Z"/>
</mask>
<path d="M52.0928 27.3688C52.0928 25.7366 50.7645 24.4083 49.1322 24.4083H45.5396L45.4836 24.2483C44.9715 22.816 43.6112 21.8479 42.091 21.8479C40.5707 21.8479 39.2105 22.816 38.6984 24.2483L38.6424 24.4083H35.0497C34.8497 24.4083 34.6497 24.4323 34.4576 24.4643L34.1696 24.5203V19.6875C34.1696 18.0552 32.8413 16.727 31.209 16.727H27.6164L27.5604 16.5669C27.0483 15.1347 25.6881 14.1665 24.1678 14.1665C22.6475 14.1665 21.2873 15.1347 20.7752 16.5669L20.7192 16.727H17.1265C15.4943 16.727 14.166 18.0552 14.166 19.6875V27.3688C14.166 29.0011 15.4943 30.3294 17.1265 30.3294H22.7435L22.4555 30.7134C21.2233 32.3537 20.5672 34.2981 20.5672 36.3304C20.5672 38.1388 21.0952 39.8991 22.0794 41.4193L22.1834 41.5794L20.9672 42.8036L20.3271 42.1635L14.9502 47.5484C14.4461 48.0525 14.166 48.7166 14.166 49.4288C14.166 50.901 15.3582 52.0932 16.8305 52.0932C17.5426 52.0932 18.2067 51.8132 18.7108 51.3171L24.0878 45.9321L23.4477 45.292L24.6719 44.0678L24.8319 44.1718C26.3522 45.164 28.1125 45.6841 29.9208 45.6841C34.3536 45.6841 38.2103 42.5315 39.0904 38.1948L39.1305 38.0027H43.6112V40.9073L47.972 38.0027H49.1322C50.7645 38.0027 52.0928 36.6745 52.0928 35.0422V27.3688ZM42.091 22.648C43.6353 22.648 44.8915 23.9042 44.8915 25.4485C44.8915 26.9928 43.6353 28.249 42.091 28.249C40.5467 28.249 39.2905 26.9928 39.2905 25.4485C39.2905 23.9042 40.5467 22.648 42.091 22.648ZM43.6433 29.2812C45.8836 29.9613 47.4519 32.0737 47.4519 34.4101V34.6501H43.7393L43.2992 29.1772L43.6433 29.2812ZM42.9391 34.6501H41.2428L41.6909 29.0651L41.9069 29.0571C41.9309 29.0571 41.955 29.0571 41.971 29.0491C42.051 29.0411 42.131 29.0411 42.211 29.0491C42.235 29.0491 42.259 29.0491 42.275 29.0491L42.491 29.0571L42.9391 34.6501ZM35.0497 25.2085H38.4903V25.4485C38.4903 26.5527 38.9944 27.5849 39.8746 28.281L40.2026 28.5371L39.8186 28.6891C38.9224 29.0491 38.1143 29.6172 37.4742 30.3374L37.2901 30.5454L37.1141 30.3294C36.0419 29.0491 34.6417 28.081 33.0654 27.5129L32.8973 27.4569L32.9053 27.2808C32.9454 26.1206 33.8895 25.2085 35.0497 25.2085ZM27.7684 17.7671V17.5271H31.209C32.4013 17.5271 33.3694 18.4953 33.3694 19.6875V24.9444L33.2734 25.0164C32.6413 25.4965 32.2412 26.1846 32.1292 26.9688L32.0972 27.2248L31.8492 27.1688C31.4651 27.0888 31.041 27.0328 30.5609 27.0008L30.3369 26.9848V26.7287C30.3369 24.2003 28.8086 21.9519 26.4562 21.0077L26.0721 20.8557L26.4002 20.5996C27.2643 19.9035 27.7684 18.8793 27.7684 17.7671ZM29.5287 26.7287V26.9688H25.8161L25.376 21.4958L25.7121 21.5998C27.9605 22.2799 29.5287 24.3843 29.5287 26.7287ZM24.1678 14.9666C25.7121 14.9666 26.9683 16.2229 26.9683 17.7671C26.9683 19.3114 25.7121 20.5676 24.1678 20.5676C22.6235 20.5676 21.3673 19.3114 21.3673 17.7671C21.3673 16.2229 22.6235 14.9666 24.1678 14.9666ZM25.0159 26.9688H23.3196L23.7677 21.3838L23.9838 21.3758C24.0078 21.3758 24.0318 21.3758 24.0478 21.3758C24.1278 21.3678 24.2078 21.3678 24.2878 21.3758C24.3118 21.3758 24.3358 21.3758 24.3518 21.3758L24.5679 21.3838L25.0159 26.9688ZM22.9516 21.4958L22.5115 26.9688H18.8068V26.7287C18.8068 24.3843 20.3751 22.2799 22.6155 21.5998L22.9516 21.4958ZM17.1265 29.5292C15.9343 29.5292 14.9662 28.5611 14.9662 27.3688V19.6875C14.9662 18.4953 15.9343 17.5271 17.1265 17.5271H20.5672V17.7671C20.5672 18.8793 21.0712 19.9035 21.9514 20.5996L22.2795 20.8557L21.8954 21.0077C19.535 21.9519 18.0067 24.2003 18.0067 26.7287V27.7689H26.0561L25.28 28.217C24.6799 28.5611 24.1118 28.9851 23.5837 29.4652L23.5117 29.5292H17.1265ZM18.1507 50.749C17.7987 51.1011 17.3346 51.2931 16.8305 51.2931C15.7983 51.2931 14.9662 50.4609 14.9662 49.4288C14.9662 48.9327 15.1582 48.4606 15.5103 48.1085L20.3271 43.2997L22.9596 45.9321L18.1507 50.749ZM22.8876 44.7239L21.5353 43.3717L22.6715 42.2355L22.8396 42.4275C23.1436 42.7796 23.4797 43.1156 23.8317 43.4197L24.0238 43.5877L22.8876 44.7239ZM29.9288 44.892C25.208 44.892 21.3673 41.0513 21.3673 36.3304C21.3673 31.6096 25.208 27.7689 29.9288 27.7689C34.6497 27.7689 38.4903 31.6096 38.4903 36.3304C38.4903 41.0513 34.6497 44.892 29.9288 44.892ZM39.1385 34.6501L39.0984 34.4581C38.8824 33.3859 38.4663 32.3537 37.8582 31.3856L37.7702 31.2415L37.8742 31.1055C38.5543 30.2334 39.4825 29.6012 40.5387 29.2812L40.8748 29.1772L40.4427 34.6421L39.1385 34.6501ZM51.2926 35.0502C51.2926 36.2424 50.3244 37.2106 49.1322 37.2106H47.732L44.4114 39.427V37.2106H39.2425L39.2665 36.8265C39.2825 36.6585 39.2905 36.4905 39.2905 36.3304C39.2905 36.1704 39.2825 36.0024 39.2665 35.8344L39.2425 35.4503H48.2521V34.4101C48.2521 31.8816 46.7238 29.6333 44.3714 28.6891L43.9873 28.5371L44.3154 28.281C45.1955 27.5929 45.6996 26.5607 45.6996 25.4485V25.2085H49.1402C50.3324 25.2085 51.3006 26.1766 51.3006 27.3688V35.0502H51.2926Z" fill="white"/>
<path d="M52.0928 27.3688C52.0928 25.7366 50.7645 24.4083 49.1322 24.4083H45.5396L45.4836 24.2483C44.9715 22.816 43.6112 21.8479 42.091 21.8479C40.5707 21.8479 39.2105 22.816 38.6984 24.2483L38.6424 24.4083H35.0497C34.8497 24.4083 34.6497 24.4323 34.4576 24.4643L34.1696 24.5203V19.6875C34.1696 18.0552 32.8413 16.727 31.209 16.727H27.6164L27.5604 16.5669C27.0483 15.1347 25.6881 14.1665 24.1678 14.1665C22.6475 14.1665 21.2873 15.1347 20.7752 16.5669L20.7192 16.727H17.1265C15.4943 16.727 14.166 18.0552 14.166 19.6875V27.3688C14.166 29.0011 15.4943 30.3294 17.1265 30.3294H22.7435L22.4555 30.7134C21.2233 32.3537 20.5672 34.2981 20.5672 36.3304C20.5672 38.1388 21.0952 39.8991 22.0794 41.4193L22.1834 41.5794L20.9672 42.8036L20.3271 42.1635L14.9502 47.5484C14.4461 48.0525 14.166 48.7166 14.166 49.4288C14.166 50.901 15.3582 52.0932 16.8305 52.0932C17.5426 52.0932 18.2067 51.8132 18.7108 51.3171L24.0878 45.9321L23.4477 45.292L24.6719 44.0678L24.8319 44.1718C26.3522 45.164 28.1125 45.6841 29.9208 45.6841C34.3536 45.6841 38.2103 42.5315 39.0904 38.1948L39.1305 38.0027H43.6112V40.9073L47.972 38.0027H49.1322C50.7645 38.0027 52.0928 36.6745 52.0928 35.0422V27.3688ZM42.091 22.648C43.6353 22.648 44.8915 23.9042 44.8915 25.4485C44.8915 26.9928 43.6353 28.249 42.091 28.249C40.5467 28.249 39.2905 26.9928 39.2905 25.4485C39.2905 23.9042 40.5467 22.648 42.091 22.648ZM43.6433 29.2812C45.8836 29.9613 47.4519 32.0737 47.4519 34.4101V34.6501H43.7393L43.2992 29.1772L43.6433 29.2812ZM42.9391 34.6501H41.2428L41.6909 29.0651L41.9069 29.0571C41.9309 29.0571 41.955 29.0571 41.971 29.0491C42.051 29.0411 42.131 29.0411 42.211 29.0491C42.235 29.0491 42.259 29.0491 42.275 29.0491L42.491 29.0571L42.9391 34.6501ZM35.0497 25.2085H38.4903V25.4485C38.4903 26.5527 38.9944 27.5849 39.8746 28.281L40.2026 28.5371L39.8186 28.6891C38.9224 29.0491 38.1143 29.6172 37.4742 30.3374L37.2901 30.5454L37.1141 30.3294C36.0419 29.0491 34.6417 28.081 33.0654 27.5129L32.8973 27.4569L32.9053 27.2808C32.9454 26.1206 33.8895 25.2085 35.0497 25.2085ZM27.7684 17.7671V17.5271H31.209C32.4013 17.5271 33.3694 18.4953 33.3694 19.6875V24.9444L33.2734 25.0164C32.6413 25.4965 32.2412 26.1846 32.1292 26.9688L32.0972 27.2248L31.8492 27.1688C31.4651 27.0888 31.041 27.0328 30.5609 27.0008L30.3369 26.9848V26.7287C30.3369 24.2003 28.8086 21.9519 26.4562 21.0077L26.0721 20.8557L26.4002 20.5996C27.2643 19.9035 27.7684 18.8793 27.7684 17.7671ZM29.5287 26.7287V26.9688H25.8161L25.376 21.4958L25.7121 21.5998C27.9605 22.2799 29.5287 24.3843 29.5287 26.7287ZM24.1678 14.9666C25.7121 14.9666 26.9683 16.2229 26.9683 17.7671C26.9683 19.3114 25.7121 20.5676 24.1678 20.5676C22.6235 20.5676 21.3673 19.3114 21.3673 17.7671C21.3673 16.2229 22.6235 14.9666 24.1678 14.9666ZM25.0159 26.9688H23.3196L23.7677 21.3838L23.9838 21.3758C24.0078 21.3758 24.0318 21.3758 24.0478 21.3758C24.1278 21.3678 24.2078 21.3678 24.2878 21.3758C24.3118 21.3758 24.3358 21.3758 24.3518 21.3758L24.5679 21.3838L25.0159 26.9688ZM22.9516 21.4958L22.5115 26.9688H18.8068V26.7287C18.8068 24.3843 20.3751 22.2799 22.6155 21.5998L22.9516 21.4958ZM17.1265 29.5292C15.9343 29.5292 14.9662 28.5611 14.9662 27.3688V19.6875C14.9662 18.4953 15.9343 17.5271 17.1265 17.5271H20.5672V17.7671C20.5672 18.8793 21.0712 19.9035 21.9514 20.5996L22.2795 20.8557L21.8954 21.0077C19.535 21.9519 18.0067 24.2003 18.0067 26.7287V27.7689H26.0561L25.28 28.217C24.6799 28.5611 24.1118 28.9851 23.5837 29.4652L23.5117 29.5292H17.1265ZM18.1507 50.749C17.7987 51.1011 17.3346 51.2931 16.8305 51.2931C15.7983 51.2931 14.9662 50.4609 14.9662 49.4288C14.9662 48.9327 15.1582 48.4606 15.5103 48.1085L20.3271 43.2997L22.9596 45.9321L18.1507 50.749ZM22.8876 44.7239L21.5353 43.3717L22.6715 42.2355L22.8396 42.4275C23.1436 42.7796 23.4797 43.1156 23.8317 43.4197L24.0238 43.5877L22.8876 44.7239ZM29.9288 44.892C25.208 44.892 21.3673 41.0513 21.3673 36.3304C21.3673 31.6096 25.208 27.7689 29.9288 27.7689C34.6497 27.7689 38.4903 31.6096 38.4903 36.3304C38.4903 41.0513 34.6497 44.892 29.9288 44.892ZM39.1385 34.6501L39.0984 34.4581C38.8824 33.3859 38.4663 32.3537 37.8582 31.3856L37.7702 31.2415L37.8742 31.1055C38.5543 30.2334 39.4825 29.6012 40.5387 29.2812L40.8748 29.1772L40.4427 34.6421L39.1385 34.6501ZM51.2926 35.0502C51.2926 36.2424 50.3244 37.2106 49.1322 37.2106H47.732L44.4114 39.427V37.2106H39.2425L39.2665 36.8265C39.2825 36.6585 39.2905 36.4905 39.2905 36.3304C39.2905 36.1704 39.2825 36.0024 39.2665 35.8344L39.2425 35.4503H48.2521V34.4101C48.2521 31.8816 46.7238 29.6333 44.3714 28.6891L43.9873 28.5371L44.3154 28.281C45.1955 27.5929 45.6996 26.5607 45.6996 25.4485V25.2085H49.1402C50.3324 25.2085 51.3006 26.1766 51.3006 27.3688V35.0502H51.2926Z" stroke="white" stroke-width="0.507246" mask="url(#path-4-outside-1)"/>
<path d="M53.4997 44.0121C53.4997 43.0139 52.6908 42.205 51.6926 42.205H40.1705C39.1723 42.205 38.3634 43.0139 38.3634 44.0121V51.6935C38.3634 52.6917 39.1723 53.5006 40.1705 53.5006H51.6926C52.6908 53.5006 53.4997 52.6917 53.4997 51.6935V44.0121ZM52.4459 51.6935C52.4459 52.1115 52.1106 52.4468 51.6926 52.4468H40.1705C39.7525 52.4468 39.4172 52.1115 39.4172 51.6935V44.0121C39.4172 43.594 39.7525 43.2587 40.1705 43.2587H51.6926C52.1106 43.2587 52.4459 43.594 52.4459 44.0121V51.6935Z" fill="white" stroke="white" stroke-width="0.253623"/>
<path d="M41.0508 44.8923V50.8134H50.8125V50.0133H49.5323V46.1726H48.7322V50.0133H46.9718V47.4528H46.1717V50.0133H44.4114V48.733H43.6112V50.0133H41.8509V44.8923H41.0508Z" fill="white"/>
<path d="M49.5326 26.969H48.7324V27.7691H49.5326V26.969Z" fill="white"/>
<path d="M49.5326 29.5295H48.7324V30.3297H49.5326V29.5295Z" fill="white"/>
<path d="M17.5267 19.2876H16.7266V20.0877H17.5267V19.2876Z" fill="white"/>
<path d="M17.5267 21.8481H16.7266V22.6483H17.5267V21.8481Z" fill="white"/>
</svg>
