<svg width="68" height="68" viewBox="0 0 68 68" fill="none" xmlns="http://www.w3.org/2000/svg">
<rect width="68" height="68" rx="10" fill="#E9882F"/>
<g clip-path="url(#clip0)">
<path d="M14.9603 40.5299C15.2219 40.7941 15.5335 41.0036 15.8769 41.1461C16.2202 41.2886 16.5886 41.3613 16.9603 41.3599C17.332 41.3601 17.7 41.287 18.0432 41.1445C18.3864 41.0021 18.6981 40.7932 18.9603 40.5299L24.8503 34.6099L25.2003 34.7499C26.6663 35.3319 28.2706 35.4716 29.815 35.1516C31.3594 34.8317 32.7762 34.0663 33.8903 32.9499C35.4011 31.4255 36.2488 29.3661 36.2488 27.2199C36.2488 25.0737 35.4011 23.0143 33.8903 21.4899C32.76 20.362 31.3204 19.5949 29.7539 19.2855C28.1873 18.9761 26.5642 19.1384 25.0899 19.7519C23.6157 20.3654 22.3566 21.4024 21.4719 22.7318C20.5873 24.0612 20.1169 25.6231 20.1203 27.2199C20.116 28.2472 20.3095 29.2658 20.6903 30.2199L20.8203 30.5699L14.9603 36.4699C14.6937 36.7364 14.4821 37.0529 14.3378 37.4012C14.1934 37.7495 14.1191 38.1229 14.1191 38.4999C14.1191 38.8769 14.1934 39.2503 14.3378 39.5986C14.4821 39.9469 14.6937 40.2634 14.9603 40.5299ZM23.4203 22.4099C24.7056 21.187 26.4184 20.5157 28.1923 20.5396C29.9661 20.5635 31.6602 21.2807 32.9121 22.5377C34.1639 23.7948 34.874 25.4919 34.8905 27.2658C34.907 29.0398 34.2286 30.7498 33.0003 32.0299C31.7151 33.2528 30.0023 33.9241 28.2284 33.9002C26.4546 33.8763 24.7605 33.1591 23.5086 31.902C22.2568 30.645 21.5467 28.9479 21.5302 27.174C21.5137 25.4 22.1921 23.69 23.4203 22.4099ZM15.8703 37.4099L21.4903 31.7799L21.8903 32.2799C22.0801 32.5215 22.2838 32.7519 22.5003 32.9699C22.7182 33.1897 22.9485 33.3967 23.1903 33.5899L23.6903 33.9899L18.1203 39.5999C17.9754 39.7453 17.8032 39.8607 17.6136 39.9395C17.424 40.0182 17.2207 40.0587 17.0153 40.0587C16.81 40.0587 16.6067 40.0182 16.4171 39.9395C16.2275 39.8607 16.0553 39.7453 15.9103 39.5999C15.7662 39.4555 15.6522 39.2839 15.575 39.0951C15.4977 38.9062 15.4587 38.7039 15.4603 38.4999C15.4481 38.0908 15.5951 37.6928 15.8703 37.3899V37.4099Z" fill="white" stroke="white" stroke-width="0.25" stroke-miterlimit="10"/>
<path d="M53.8596 49.5C54.032 49.5 54.1973 49.4315 54.3192 49.3096C54.4411 49.1877 54.5096 49.0224 54.5096 48.85C54.5096 48.6776 54.4411 48.5123 54.3192 48.3904C54.1973 48.2685 54.032 48.2 53.8596 48.2H52.1196V24.95C52.121 24.6757 52.0674 24.4039 51.9618 24.1507C51.8563 23.8975 51.701 23.6681 51.5052 23.476C51.3094 23.2839 51.077 23.133 50.8218 23.0324C50.5666 22.9317 50.2938 22.8833 50.0196 22.89H46.7196C46.4496 22.89 46.1822 22.9434 45.9328 23.047C45.6834 23.1507 45.457 23.3026 45.2665 23.494C45.076 23.6854 44.9252 23.9126 44.8228 24.1624C44.7203 24.4123 44.6683 24.68 44.6696 24.95V48.2H41.7496V38.42C41.7496 37.8754 41.534 37.3529 41.1498 36.9669C40.7656 36.5809 40.2442 36.3627 39.6996 36.36H36.3996C35.855 36.3627 35.3336 36.5809 34.9494 36.9669C34.5653 37.3529 34.3496 37.8754 34.3496 38.42V48.2H31.4296V43.31C31.4324 42.7731 31.2244 42.2566 30.8505 41.8714C30.4765 41.4862 29.9663 41.2631 29.4296 41.25H26.1196C25.8496 41.25 25.5822 41.3034 25.3328 41.407C25.0834 41.5107 24.857 41.6626 24.6665 41.854C24.476 42.0454 24.3252 42.2726 24.2228 42.5224C24.1203 42.7723 24.0683 43.04 24.0696 43.31V48.2H22.2496C22.0772 48.2 21.9119 48.2685 21.79 48.3904C21.6681 48.5123 21.5996 48.6776 21.5996 48.85C21.5996 49.0224 21.6681 49.1877 21.79 49.3096C21.9119 49.4315 22.0772 49.5 22.2496 49.5H53.8596ZM45.9696 24.95C45.9696 24.7502 46.0483 24.5584 46.1887 24.4161C46.329 24.2739 46.5198 24.1926 46.7196 24.19H50.0196C50.1189 24.19 50.2173 24.2097 50.309 24.248C50.4006 24.2864 50.4837 24.3425 50.5535 24.4132C50.6233 24.4839 50.6783 24.5678 50.7154 24.6599C50.7525 24.7521 50.7709 24.8507 50.7696 24.95V48.2H45.9696V24.95ZM35.6496 38.42C35.6522 38.2219 35.732 38.0326 35.8721 37.8925C36.0122 37.7525 36.2015 37.6726 36.3996 37.67H39.6996C39.8985 37.67 40.0893 37.749 40.2299 37.8897C40.3706 38.0303 40.4496 38.2211 40.4496 38.42V48.2H35.6496V38.42ZM25.3296 43.31C25.3296 43.1102 25.4083 42.9184 25.5487 42.7761C25.689 42.6339 25.8798 42.5526 26.0796 42.55H29.3796C29.4789 42.55 29.5773 42.5697 29.669 42.608C29.7606 42.6464 29.8437 42.7025 29.9135 42.7732C29.9833 42.8439 30.0383 42.9278 30.0754 43.0199C30.1125 43.1121 30.1309 43.2107 30.1296 43.31V48.2H25.3296V43.31Z" fill="white" stroke="white" stroke-width="0.25" stroke-miterlimit="10"/>
<path d="M28.21 23.99C27.7868 23.9892 27.3677 24.0718 26.9764 24.2331C26.5852 24.3944 26.2296 24.6312 25.93 24.93C25.3279 25.5401 24.9902 26.3628 24.9902 27.22C24.9902 28.0772 25.3279 28.8999 25.93 29.51C26.3063 29.8843 26.769 30.1601 27.2772 30.313C27.7854 30.4659 28.3235 30.4913 28.8438 30.3868C29.3642 30.2823 29.8507 30.0512 30.2605 29.7139C30.6703 29.3767 30.9906 28.9436 31.1933 28.4531C31.3959 27.9626 31.4745 27.4297 31.4221 26.9015C31.3698 26.3734 31.1882 25.8663 30.8932 25.425C30.5983 24.9838 30.1992 24.622 29.7312 24.3718C29.2632 24.1215 28.7407 23.9903 28.21 23.99ZM29.57 28.58C29.3923 28.7602 29.1806 28.9033 28.9471 29.001C28.7136 29.0986 28.4631 29.1489 28.21 29.1489C27.9569 29.1489 27.7064 29.0986 27.4729 29.001C27.2394 28.9033 27.0277 28.7602 26.85 28.58C26.4909 28.2184 26.2894 27.7296 26.2894 27.22C26.2894 26.7104 26.4909 26.2216 26.85 25.86C27.0277 25.6798 27.2394 25.5367 27.4729 25.439C27.7064 25.3414 27.9569 25.2911 28.21 25.2911C28.4631 25.2911 28.7136 25.3414 28.9471 25.439C29.1806 25.5367 29.3923 25.6798 29.57 25.86C29.9291 26.2216 30.1306 26.7104 30.1306 27.22C30.1306 27.7296 29.9291 28.2184 29.57 28.58Z" fill="white" stroke="white" stroke-width="0.25" stroke-miterlimit="10"/>
</g>
<defs>
<clipPath id="clip0">
<rect width="40.64" height="30.63" fill="white" transform="translate(14 19)"/>
</clipPath>
</defs>
</svg>
