<svg width="68" height="68" viewBox="0 0 68 68" fill="none" xmlns="http://www.w3.org/2000/svg">
<rect width="68" height="68" rx="10" fill="#ECAF01"/>
<g clip-path="url(#clip0)">
<path d="M55.1342 15.3046L52.4935 13.6502C51.9175 13.2892 51.235 13.1742 50.5723 13.3267C49.9096 13.479 49.3461 13.8803 48.9853 14.4568L41.5535 26.3324H18.792C17.2525 26.3324 16 27.5863 16 29.1276V44.3104C16 45.8516 17.2525 47.1055 18.792 47.1055H22.3433L22.897 50.409C22.9422 50.679 23.1245 50.9062 23.3784 51.0089C23.4737 51.0474 23.5739 51.0663 23.6737 51.0663C23.8395 51.0663 24.004 51.014 24.1416 50.9123L29.2987 47.1054L32.2065 47.1044C32.6416 47.1043 32.9941 46.7515 32.994 46.3165C32.9938 45.8816 32.6412 45.5291 32.2063 45.5291H32.2061L29.0391 45.5301C28.8708 45.5302 28.707 45.5842 28.5716 45.6841L24.2384 48.8828L23.7867 46.1875C23.7231 45.8081 23.3946 45.53 23.0099 45.53H18.792C18.1211 45.53 17.5753 44.9829 17.5753 44.3103V29.1276C17.5753 28.4549 18.1212 27.9078 18.792 27.9078H40.5677L38.5262 31.1704H21.8437C21.4088 31.1704 21.0561 31.523 21.0561 31.958C21.0561 32.3931 21.4088 32.7457 21.8437 32.7457H37.5405L35.8522 35.4438C35.7698 35.5758 35.7283 35.7293 35.733 35.8849L35.7391 36.0874H21.8437C21.4088 36.0874 21.0561 36.4401 21.0561 36.8751C21.0561 37.31 21.4088 37.6627 21.8437 37.6627H35.7868L35.8887 41.036H21.8437C21.4088 41.036 21.0561 41.3887 21.0561 41.8236C21.0561 42.2586 21.4088 42.6113 21.8437 42.6113H36.7005H36.7035C36.7094 42.6113 36.7152 42.6112 36.721 42.6111C36.7216 42.6111 36.7222 42.611 36.7227 42.611C36.835 42.6078 36.9414 42.5812 37.0372 42.5358L42.4617 40.0996C42.6036 40.0359 42.7235 39.9315 42.8062 39.7997L49.2392 29.5187V44.3104C49.2392 44.983 48.6933 45.5302 48.0226 45.5302L39.3278 45.5292C39.3278 45.5292 39.3278 45.5292 39.3278 45.5292C38.8929 45.5292 38.5402 45.8818 38.5401 46.3167C38.54 46.7517 38.8927 47.1044 39.3277 47.1045L48.0225 47.1055C49.5621 47.1055 50.8145 45.8516 50.8145 44.3104V29.1276C50.8145 28.6033 50.6722 28.1019 50.4007 27.6625L55.9404 18.8108C56.6842 17.622 56.3226 16.0492 55.1342 15.3046ZM46.3665 21.6102L47.8421 22.5347L39.8661 35.2746L39.8212 35.0791C39.7743 34.8755 39.6486 34.6989 39.4715 34.588C39.2945 34.4773 39.0808 34.4414 38.877 34.4879L38.2133 34.6406L46.3665 21.6102ZM39.6115 39.6528L37.3807 38.2552L37.3265 36.4609L38.4624 36.1997L38.7578 37.4847C38.8047 37.6883 38.9304 37.8649 39.1075 37.9757C39.2845 38.0866 39.4983 38.1226 39.702 38.0758L40.9857 37.7806L41.2473 38.9181L39.6115 39.6528ZM41.1985 36.1152L49.1771 23.371L50.6502 24.2938L42.4971 37.3238L42.3443 36.6598C42.2976 36.4562 42.1718 36.2796 41.9947 36.1688C41.8176 36.0579 41.6036 36.0219 41.4002 36.0688L41.1985 36.1152ZM51.4858 22.9583L47.2021 20.2746L48.2697 18.5682L52.5533 21.2518L51.4858 22.9583ZM54.605 17.9751L53.391 19.9152L49.1073 17.2316L50.3206 15.2925C50.4581 15.0729 50.6728 14.92 50.9253 14.8619C51.1775 14.804 51.4375 14.8476 51.6571 14.9852L54.2978 16.6396C54.7506 16.9232 54.8884 17.5223 54.605 17.9751Z" fill="#FEFEFE"/>
<path d="M35.7818 47.1043C35.453 47.1043 35.1512 46.8917 35.0411 46.582C34.9326 46.2771 35.0244 45.926 35.2723 45.7163C35.531 45.4977 35.9097 45.4705 36.1974 45.6483C36.4733 45.8188 36.6182 46.1527 36.5545 46.471C36.4817 46.8346 36.1526 47.1043 35.7818 47.1043Z" fill="#FEFEFE"/>
</g>
<defs>
<clipPath id="clip0">
<rect width="40.3272" height="40.3272" fill="white" transform="translate(16 12)"/>
</clipPath>
</defs>
</svg>
