<?xml version="1.0" encoding="utf-8"?>
<!-- Generator: Adobe Illustrator 22.1.0, SVG Export Plug-In . SVG Version: 6.00 Build 0)  -->
<svg version="1.1" id="Слой_1" xmlns="http://www.w3.org/2000/svg" xmlns:xlink="http://www.w3.org/1999/xlink" x="0px" y="0px"
	 viewBox="0 0 20.6 24" style="enable-background:new 0 0 20.6 24;" xml:space="preserve">
<style type="text/css">
	.st0{fill:#5FA2EB;}
</style>
<g>
	<g transform="translate(-428.000000, -44.000000)">
		<g transform="translate(430.000000, 41.000000)">
			<g transform="translate(2.000000, 9.000000)">
				<path class="st0" d="M0.5,0C0.2,0,0,0.2,0,0.5S0.2,1,0.5,1h10C10.8,1,11,0.8,11,0.5S10.8,0,10.5,0H0.5z"/>
				<path class="st0" d="M-0.3,1.1C-0.5,1.7-0.8,2.3-1,3c-0.3,0.8-0.5,1.5-0.6,2.2c-0.2,1-0.4,2-0.4,2.7c0,2.3,1.4,3.9,3.8,5
					c0.8,0.4,1.6,0.6,2.5,0.9c0.3,0.1,0.6,0.1,0.8,0.2c0.2,0,0.3,0,0.3,0.1C5.7,14,6,13.8,6,13.6C6,13.3,5.8,13,5.6,13
					c0,0-0.1,0-0.3,0c-0.2,0-0.5-0.1-0.8-0.2c-0.8-0.2-1.6-0.4-2.3-0.8C0.2,11.1-1,9.7-1,7.9c0-0.7,0.1-1.5,0.4-2.5
					C-0.5,4.8-0.3,4,0,3.3C0.2,2.7,0.4,2,0.7,1.4C0.8,1.1,0.9,0.8,1,0.7C1.1,0.4,1,0.2,0.7,0S0.2,0,0,0.3C0,0.4-0.1,0.7-0.3,1.1z"/>
				<path class="st0" d="M5.9,13.9c0.2,0,0.5-0.1,0.8-0.2c0.9-0.2,1.7-0.5,2.5-0.9c2.3-1.1,3.8-2.7,3.8-5c0-0.8-0.1-1.7-0.4-2.7
					C12.4,4.5,12.2,3.8,12,3c-0.2-0.7-0.5-1.3-0.7-1.9C11.1,0.7,11,0.4,11,0.3C10.8,0,10.6-0.1,10.3,0C10,0.2,9.9,0.4,10,0.7
					c0.1,0.1,0.2,0.4,0.3,0.7C10.6,2,10.8,2.7,11,3.3c0.2,0.7,0.5,1.5,0.6,2.1c0.2,1,0.4,1.8,0.4,2.5c0,1.8-1.2,3.2-3.2,4.1
					c-0.7,0.3-1.5,0.6-2.3,0.8c-0.3,0.1-0.5,0.1-0.8,0.2c-0.1,0-0.2,0-0.3,0C5.2,13,5,13.3,5,13.6C5,13.8,5.3,14,5.6,14
					C5.6,14,5.7,14,5.9,13.9z"/>
				<polygon class="st0" points="5,17.5 5,18 6,18 6,17.5 6,13.5 6,13 5,13 5,13.5 				"/>
				<path class="st0" d="M9.5,18c0.3,0,0.5-0.2,0.5-0.5S9.8,17,9.5,17h-8C1.2,17,1,17.2,1,17.5S1.2,18,1.5,18H9.5z"/>
				<polygon class="st0" points="12,5 12,4 -1,4 -1,5 				"/>
			</g>
			<path class="st0" d="M-1,4h2c0.1,0,0.2,0.1,0.2,0.1L5,13.7c0.1,0.3,0.4,0.4,0.6,0.3c0.3-0.1,0.4-0.4,0.3-0.6L2.1,3.8
				C2,3.3,1.5,3,1,3h-2c-0.4,0-0.4,0-0.5,0C-1.8,3-2,3.2-2,3.5S-1.8,4-1.5,4C-1.4,4-1.4,4-1,4z"/>
			
				<g transform="translate(16.132434, 7.046978) rotate(35.000000) translate(-16.132434, -7.046978) translate(10.632434, 2.546978)">
				<path class="st0" d="M8.9,7.1c0.3,0,0.5-0.2,0.5-0.5c0-0.3-0.2-0.5-0.5-0.5l-10,0c-0.3,0-0.5,0.2-0.5,0.5s0.2,0.5,0.5,0.5
					L8.9,7.1z"/>
				<path class="st0" d="M-0.5,6.2c0.2-0.4,0.4-0.9,0.7-1.3c0.8-1.1,2-1.8,3.7-1.8s2.9,0.7,3.7,1.8c0.3,0.4,0.5,0.8,0.7,1.3
					c0.1,0.3,0.1,0.4,0.2,0.5C8.4,7,8.7,7.2,9,7.1c0.3,0,0.5-0.3,0.4-0.6C9.3,6,9,5.2,8.4,4.4C7.4,3,5.9,2.1,3.9,2.1S0.3,3-0.6,4.4
					c-0.6,0.8-0.9,1.6-1,2.2c0,0.3,0.1,0.5,0.4,0.6S-0.7,7-0.6,6.7C-0.6,6.6-0.6,6.4-0.5,6.2z"/>
				<path class="st0" d="M2.4,6.1c0.1-0.4,0.2-0.9,0.3-1.3C3,3.7,3.4,3.1,3.9,3.1S4.7,3.7,5,4.8c0.1,0.4,0.2,0.9,0.3,1.3
					c0,0.3,0.1,0.5,0.1,0.6c0,0.3,0.3,0.5,0.5,0.5c0.3,0,0.5-0.3,0.5-0.5c0-0.1,0-0.4-0.1-0.7C6.2,5.5,6.1,5,6,4.5
					C5.6,3.1,4.9,2.1,3.9,2.1c-1.1,0-1.7,0.9-2.1,2.4C1.6,5,1.5,5.5,1.4,6c0,0.3-0.1,0.5-0.1,0.7c0,0.3,0.2,0.5,0.5,0.5
					c0.3,0,0.5-0.2,0.5-0.5C2.4,6.6,2.4,6.4,2.4,6.1z"/>
				<path class="st0" d="M3.4,2.6c0,0.3,0.2,0.5,0.5,0.5s0.5-0.2,0.5-0.5l0-1c0-0.3-0.2-0.5-0.5-0.5S3.4,1.4,3.4,1.6L3.4,2.6z"/>
				<path class="st0" d="M3.4,8.7c0,0.3,0.2,0.5,0.5,0.5s0.5-0.2,0.5-0.5l0-2c0-0.3-0.2-0.5-0.5-0.5c-0.3,0-0.5,0.2-0.5,0.5L3.4,8.7
					z"/>
			</g>
		</g>
	</g>
</g>
</svg>
