<?xml version="1.0" encoding="utf-8"?>
<!-- Generator: Adobe Illustrator 22.1.0, SVG Export Plug-In . SVG Version: 6.00 Build 0)  -->
<svg version="1.1" id="Слой_1" xmlns="http://www.w3.org/2000/svg" xmlns:xlink="http://www.w3.org/1999/xlink" x="0px" y="0px"
	 viewBox="0 0 92.3 85" style="enable-background:new 0 0 92.3 85;" xml:space="preserve">
<style type="text/css">
	.st0{fill:#5FA2EB;}
</style>
<path class="st0" d="M80.6,39.8h-6.9v-9.7H12.9v36.4C12.8,71.7,15.1,76.6,19,80l1.2,1H0v4h86.6v-4H66.3l1.2-0.9
	c4-3.3,6.3-8.3,6.2-13.5v-1.3h6.9c7-0.6,12.2-6.8,11.6-13.9C91.7,45.2,86.8,40.3,80.6,39.8z M69.7,34v7.6c-0.1,0.4-0.2,0.7-0.2,1.1
	v11.8c-2.3-0.1-4.6-0.5-6.8-1c-3.2-0.7-6.6-1.1-9.9-1c-3.3-0.1-6.7,0.3-9.9,1c-3,0.7-6,1-9,0.9h-0.1c-3.1,0.1-6.1-0.2-9.1-0.9
	c-2.6-0.6-5.2-0.9-7.8-1V34H69.7z M65,77c-3.3,2.6-7.4,4-11.6,3.9H33.2C29,81,24.9,79.6,21.6,77c-3.1-2.6-4.9-6.4-4.8-10.5v-10
	c2.4,0.1,4.7,0.4,7,0.9c3.3,0.8,6.6,1.1,10,1.1h0.1c3.3,0.1,6.6-0.3,9.8-1c3-0.7,6-1,9-0.9h0.1c3.1,0,6.1,0.3,9.1,1
	c2.5,0.6,5,0.9,7.6,1v4c0,0.3,0.1,0.6,0.2,0.9v3C69.8,70.5,68.1,74.4,65,77z M86.8,58.8c-1.6,1.7-3.9,2.6-6.2,2.6h-6.9V43.8h6.9
	c4.9,0,8.8,4,8.8,8.8C89.3,55,88.4,57.2,86.8,58.8z"/>
<rect x="45.2" y="11.1" transform="matrix(1.745302e-03 -1 1 1.745302e-03 40.1198 66.3654)" class="st0" width="16.3" height="4"/>
<polygon class="st0" points="41.3,0 41.3,17.2 45.3,17.2 45.3,0 "/>
<rect x="25.2" y="11.3" transform="matrix(1.745302e-03 -1 1 1.745302e-03 20.0192 46.6307)" class="st0" width="16.3" height="4"/>
</svg>
