<?xml version="1.0" encoding="utf-8"?>
<!-- Generator: Adobe Illustrator 22.1.0, SVG Export Plug-In . SVG Version: 6.00 Build 0)  -->
<svg version="1.1" id="Слой_1" xmlns="http://www.w3.org/2000/svg" xmlns:xlink="http://www.w3.org/1999/xlink" x="0px" y="0px"
	 viewBox="0 0 88.7 76.2" style="enable-background:new 0 0 88.7 76.2;" xml:space="preserve">
<style type="text/css">
	.st0{fill:#5FA2EB;}
</style>
<g>
	<g>
		<path class="st0" d="M85.3,35.4H79c0.1-1.4,0-2.7-0.1-2.9c-0.9-3-4.9-5.1-12.7-6.6c-5.5-1-12.5-1.7-20-1.8V21h4.9
			c1,0,1.9-0.8,1.9-1.9s-0.8-1.9-1.9-1.9h-6.8h0h-6.8c-1,0-1.9,0.8-1.9,1.9s0.8,1.9,1.9,1.9h4.9v3.1c-12.4,0.3-30,2.6-32.5,8
			c-0.2,0.5-0.3,2-0.2,3.3H3.4C1.3,35.4,0,36.8,0,39c0,1.3,0.6,5,3.2,5.3l6.5,0.6c0.6,2.7,1.7,7.8,2.8,12.7c0.7,3,1.3,5.9,1.8,8
			c2,9.3,7.6,10.6,13.3,10.6h33.8c5.7,0,11.2-1.3,13.3-10.6c0.5-2.1,1.1-5,1.8-8c1.1-4.9,2.2-10,2.8-12.7l6.5-0.6
			c2.6-0.2,3.2-4,3.2-5.3C88.7,36.8,87.4,35.4,85.3,35.4z M13.5,33.5c1.7-2.2,14.3-5.5,30.8-5.6c18.8,0.2,29.9,3.3,30.9,5.6
			c0,0.5,0,1.3-0.1,2H13.6C13.6,34.8,13.5,34,13.5,33.5z M84.6,40.5l-6.3,0.5c-1.5,0.1-2.7,1.1-3,2.5c-0.5,2.5-1.7,7.9-2.9,13.1
			c-0.7,3-1.3,5.9-1.8,8c-1.4,6.5-4.2,7.6-9.5,7.6H27.5c-5.3,0-8.1-1.1-9.5-7.6c-0.5-2.2-1.1-5.1-1.8-8.1
			c-1.1-5.2-2.3-10.6-2.9-13.1c-0.3-1.4-1.4-2.4-3-2.5l-6.3-0.5c-0.1-0.3-0.3-0.9-0.3-1.3h8.6h64h8.5C84.9,39.7,84.8,40.2,84.6,40.5
			z"/>
		<path class="st0" d="M58.7,19.1c-0.3,0.4-0.3,0.9-0.2,1.4c0.1,0.5,0.4,0.9,0.8,1.1c0.3,0.2,0.6,0.3,1,0.3c0.6,0,1.2-0.3,1.6-0.9
			c3.1-5.2,1.2-8.4-0.3-10.7c-1.4-2.3-2.3-3.8,0.2-7.5C62,2.5,62.1,2,62,1.5C62,1,61.7,0.6,61.3,0.3C61,0.1,60.6,0,60.2,0
			c-0.6,0-1.2,0.3-1.5,0.8c-3.9,5.7-1.8,9-0.3,11.5C59.8,14.4,60.6,15.9,58.7,19.1z"/>
		<path class="st0" d="M66.4,20.2c-0.5,0.9-0.2,2,0.6,2.5c0.3,0.2,0.6,0.3,1,0.3c0.6,0,1.2-0.3,1.6-0.9c3.1-5.2,1.2-8.4-0.3-10.7
			c-1.4-2.3-2.3-3.8,0.2-7.5c0.3-0.4,0.4-0.9,0.3-1.4c-0.1-0.5-0.4-0.9-0.8-1.2C68.7,1.2,68.4,1,68,1c-0.6,0-1.2,0.3-1.5,0.8
			c-3.9,5.7-1.8,9-0.3,11.5C67.5,15.5,68.4,16.9,66.4,20.2z"/>
		<path class="st0" d="M74,22.3c-0.3,0.4-0.3,0.9-0.2,1.4c0.1,0.5,0.4,0.9,0.8,1.1c0.3,0.2,0.6,0.3,0.9,0.3c0.6,0,1.2-0.3,1.6-0.9
			c3.1-5.2,1.2-8.4-0.3-10.7c-1.4-2.3-2.4-3.8,0.2-7.5c0.3-0.4,0.4-0.9,0.3-1.4c-0.1-0.5-0.4-0.9-0.8-1.2c-0.3-0.2-0.7-0.3-1-0.3
			c-0.6,0-1.2,0.3-1.5,0.8c-3.9,5.7-1.9,9-0.3,11.5C75.1,17.6,76,19,74,22.3z"/>
	</g>
</g>
</svg>
