<?xml version="1.0" encoding="utf-8"?>
<!-- Generator: Adobe Illustrator 22.1.0, SVG Export Plug-In . SVG Version: 6.00 Build 0)  -->
<svg version="1.1" id="Capa_1" xmlns="http://www.w3.org/2000/svg" xmlns:xlink="http://www.w3.org/1999/xlink" x="0px" y="0px"
	 viewBox="0 0 458.1 458.1" style="enable-background:new 0 0 458.1 458.1;" xml:space="preserve">
<style type="text/css">
	.st0{fill:#5FA2EB;}
</style>
<g>
	<g>
		<path class="st0" d="M70.4,140.3v-72c0-4.8-3.2-8-8-8s-8,3.2-8,8v71.2c0,8-4.8,14.4-11.2,17.6V68.3c0-4.8-3.2-8-8-8s-8,3.2-8,8
			v89.6c-6.4-3.2-11.2-9.6-11.2-17.6v-72c0-4.8-3.2-8-8-8s-8,3.2-8,8v71.2c0,16.8,12,31.2,27.2,34.4v54.4H24c-8,0-14.4,7.2-14.4,16
			v132.8c0,8.8,6.4,16,14.4,16h21.6c8,0,14.4-7.2,14.4-16v-132c0-8.8-6.4-16-14.4-16h-2.4v-54.4C59.2,170.7,70.4,157.1,70.4,140.3z
			 M44.8,244.3v132.8H44H25.6V244.3H44.8z"/>
	</g>
</g>
<g>
	<g>
		<path class="st0" d="M414.4,60.3c-2.4-1.6-5.6-0.8-8,0c-2.4,1.6-4,4-4,7.2v174.4c0,0.8,0,2.4,0.8,3.2c-0.8,1.6-0.8,3.2-0.8,4.8
			v132.8c0,8.8,6.4,16,14.4,16h21.6c8,0,14.4-7.2,14.4-16V249.1v-0.8c2.4-1.6,4.8-4,4.8-7.2C458.4,225.9,463.2,85.9,414.4,60.3z
			 M437.6,381.9h-19.2V249.1h19.2V381.9z M442.4,233.1h-3.2h-20V86.3C440.1,118.3,443.2,194.4,442.4,233.1z"/>
	</g>
</g>
<g>
	<g>
		<path class="st0" d="M233.6,60.3c-90.4,0-163.2,73.6-163.2,163.2S144,386.7,233.6,386.7s163.2-72.8,163.2-163.2
			S323.2,60.3,233.6,60.3z M233.6,371.5c-81.6,0-147.2-66.4-147.2-147.2s65.6-148,147.2-148s147.2,66.4,147.2,147.2
			S314.4,371.5,233.6,371.5z"/>
	</g>
</g>
<g>
	<g>
		<path class="st0" d="M233.6,123.5c-55.2,0-100.8,44.8-100.8,100.8s45.6,100,100.8,100s100.8-44.8,100.8-100.8
			C334.4,167.5,288.8,123.5,233.6,123.5z M233.6,308.3c-46.4,0-84.8-37.6-84.8-84.8s37.6-84.8,84.8-84.8s84.8,37.6,84.8,84.8
			C318.4,270.7,280,308.3,233.6,308.3z"/>
	</g>
</g>
</svg>
