<?xml version="1.0" encoding="utf-8"?>
<!-- Generator: Adobe Illustrator 22.1.0, SVG Export Plug-In . SVG Version: 6.00 Build 0)  -->
<svg version="1.1" id="Слой_1" xmlns="http://www.w3.org/2000/svg" xmlns:xlink="http://www.w3.org/1999/xlink" x="0px" y="0px"
	 viewBox="0 0 60 60" style="enable-background:new 0 0 60 60;" xml:space="preserve">
<style type="text/css">
	.st0{fill:#5FA2EB;}
</style>
<g>
	<g>
		<rect x="8" y="45" class="st0" width="2" height="11"/>
		<rect x="12" y="47" class="st0" width="2" height="9"/>
		<rect x="4" y="47" class="st0" width="2" height="9"/>
		<path class="st0" d="M54,29V9h5c0.6,0,1-0.4,1-1V5c0-2.8-2.2-5-5-5H5C2.2,0,0,2.2,0,5v3c0,0.6,0.4,1,1,1h4v20c0,0.8,0.4,1.7,1,2.2
			V40H5c-2.8,0-5,2.2-5,5v12c0,1.7,1.3,3,3,3h12c1.7,0,3-1.3,3-3V45c0-2.8-2.2-5-5-5h-1v-8.8c0.6-0.6,1-1.4,1-2.2V9h12v20
			c0,0.8,0.4,1.7,1,2.2v7.3c-3.6,1.3-6,4.9-6,9.5c0,5.7,3.7,12,9,12s9-6.3,9-12c0-4.6-2.4-8.2-6-9.5v-7.3c0.6-0.6,1-1.4,1-2.2V9h13
			v20c0,0.8,0.4,1.7,1,2.2v11.2c-4,1-6.8,4.5-7,8.6c0,5,4.5,9,10,9s10-4,10-9c-0.1-4.1-3-7.6-7-8.6V31.2C53.6,30.7,54,29.8,54,29z
			 M51.3,29.9C51.2,30,51.1,30,51,30h-2c-0.1,0-0.2,0-0.3-0.1c0,0-0.1,0-0.1-0.1C48.2,29.7,48,29.4,48,29v-1h4v1
			c0,0.4-0.2,0.7-0.5,0.9C51.4,29.9,51.4,29.9,51.3,29.9z M48,8c0-1.1,0.9-2,2-2s2,0.9,2,2v2h-4V8z M48,16h4v10h-4V16z M48,12h4v2
			h-4V12z M2,5c0-1.7,1.3-3,3-3h50c1.7,0,3,1.3,3,3v2h-4.1c0-0.1-0.1-0.3-0.1-0.4c0-0.1,0-0.1-0.1-0.2c-0.1-0.2-0.2-0.4-0.3-0.6
			c0,0-0.1-0.1-0.1-0.1c-0.1-0.2-0.2-0.3-0.4-0.4c-0.1-0.1-0.1-0.1-0.2-0.2c-0.1-0.1-0.2-0.2-0.4-0.3c-0.1-0.1-0.2-0.1-0.2-0.2
			c-0.1-0.1-0.3-0.2-0.4-0.2c-0.1,0-0.2-0.1-0.2-0.1c-0.2-0.1-0.3-0.1-0.5-0.1c-0.1,0-0.2,0-0.2-0.1c-0.5-0.1-1-0.1-1.5,0
			c-0.1,0-0.2,0-0.2,0.1c-0.2,0-0.3,0.1-0.5,0.1c-0.1,0-0.2,0.1-0.2,0.1c-0.1,0.1-0.3,0.1-0.4,0.2c-0.1,0-0.2,0.1-0.2,0.2
			c-0.1,0.1-0.2,0.2-0.4,0.3c-0.1,0.1-0.1,0.1-0.2,0.2c-0.1,0.1-0.2,0.3-0.4,0.4c0,0-0.1,0.1-0.1,0.1c-0.1,0.2-0.2,0.4-0.3,0.6
			c0,0.1,0,0.1-0.1,0.2c-0.1,0.1-0.1,0.3-0.1,0.4H32.9c0-0.1-0.1-0.3-0.1-0.4c0-0.1,0-0.1-0.1-0.2c-0.1-0.2-0.2-0.4-0.3-0.6
			c0,0-0.1-0.1-0.1-0.1c-0.1-0.2-0.2-0.3-0.4-0.4c-0.1-0.1-0.1-0.1-0.2-0.2c-0.1-0.1-0.2-0.2-0.4-0.3c-0.1-0.1-0.2-0.1-0.2-0.2
			c-0.1-0.1-0.3-0.2-0.4-0.2c-0.1,0-0.2-0.1-0.2-0.1c-0.2-0.1-0.3-0.1-0.5-0.1c-0.1,0-0.2,0-0.2-0.1c-0.5-0.1-1-0.1-1.5,0
			c-0.1,0-0.2,0-0.2,0.1c-0.2,0-0.3,0.1-0.5,0.1c-0.1,0-0.2,0.1-0.2,0.1c-0.1,0.1-0.3,0.1-0.4,0.2c-0.1,0-0.2,0.1-0.2,0.2
			c-0.1,0.1-0.2,0.2-0.4,0.3c-0.1,0.1-0.1,0.1-0.2,0.2c-0.1,0.1-0.2,0.3-0.4,0.4c0,0-0.1,0.1-0.1,0.1c-0.1,0.2-0.2,0.4-0.3,0.6
			c0,0.1,0,0.1-0.1,0.2c-0.1,0.1-0.1,0.3-0.1,0.4H12.9c0-0.1-0.1-0.3-0.1-0.4c0-0.1,0-0.1-0.1-0.2c-0.1-0.2-0.2-0.4-0.3-0.6
			c0,0-0.1-0.1-0.1-0.1c-0.1-0.2-0.2-0.3-0.4-0.4c-0.1-0.1-0.1-0.1-0.2-0.2c-0.1-0.1-0.2-0.2-0.4-0.3c-0.1-0.1-0.2-0.1-0.2-0.2
			c-0.1-0.1-0.3-0.2-0.4-0.2c-0.1,0-0.2-0.1-0.2-0.1c-0.2-0.1-0.3-0.1-0.5-0.1c-0.1,0-0.2,0-0.2-0.1C9.3,4,8.7,4,8.2,4.1
			c-0.1,0-0.2,0-0.2,0.1c-0.2,0-0.3,0.1-0.5,0.1c-0.1,0-0.2,0.1-0.2,0.1C7.2,4.5,7,4.5,6.9,4.6c-0.1,0-0.2,0.1-0.2,0.2
			C6.5,4.9,6.4,5,6.3,5.1C6.2,5.1,6.2,5.2,6.1,5.2C6,5.4,5.9,5.5,5.8,5.7c0,0-0.1,0.1-0.1,0.1C5.5,6,5.4,6.2,5.3,6.4
			c0,0.1,0,0.1-0.1,0.2C5.2,6.7,5.2,6.9,5.1,7H2V5z M31,29c0,0.4-0.2,0.7-0.5,0.9c0,0-0.1,0-0.1,0.1C30.2,30,30.1,30,30,30h-2
			c-0.1,0-0.2,0-0.3-0.1c0,0-0.1,0-0.1-0.1C27.2,29.7,27,29.4,27,29v-1h4V29z M27,8c0-1.1,0.9-2,2-2s2,0.9,2,2v2h-4V8z M31,14h-4v-2
			h4V14z M27,26V16h4v10H27z M11,29c0,0.4-0.2,0.7-0.5,0.9c0,0-0.1,0-0.1,0.1C10.2,30,10.1,30,10,30H8c-0.1,0-0.2,0-0.3-0.1
			c0,0-0.1,0-0.1-0.1C7.2,29.7,7,29.4,7,29v-1h4V29z M7,8c0-1.1,0.9-2,2-2s2,0.9,2,2v2H7V8z M11,14H7v-2h4V14z M7,26V16h4v10H7z
			 M16,45v12c0,0.6-0.4,1-1,1H3c-0.6,0-1-0.4-1-1V45c0-1.7,1.3-3,3-3h8C14.7,42,16,43.3,16,45z M10,40H8v-8h2V40z M36,48
			c0,5.2-3.3,10-7,10s-7-4.8-7-10c0-4,2.1-7,5.2-7.8c0,0,0,0,0,0c1.1-0.3,2.4-0.3,3.5,0c0,0,0,0,0,0C33.9,41.1,36,44,36,48z
			 M30,38.1c-0.7-0.1-1.3-0.1-2,0V32h2V38.1z M58,51c0,3.9-3.6,7-8,7s-8-3.1-8-7c0-3.3,2.7-6.1,6.2-6.8c1.2-0.2,2.4-0.2,3.6,0
			C55.3,44.9,58,47.7,58,51z M51,42c-0.3,0-0.7,0-1,0s-0.7,0-1,0V32h2V42z"/>
		<path class="st0" d="M29,42v2c1.7,0,3,1.3,3,3h2C34,44.2,31.8,42,29,42z"/>
		<path class="st0" d="M54,50h2c0-2.2-1.8-4-4-4v2C53.1,48,54,48.9,54,50z"/>
	</g>
</g>
</svg>
