<?xml version="1.0" encoding="utf-8"?>
<!-- Generator: Adobe Illustrator 22.1.0, SVG Export Plug-In . SVG Version: 6.00 Build 0)  -->
<svg version="1.1" id="Слой_1" xmlns="http://www.w3.org/2000/svg" xmlns:xlink="http://www.w3.org/1999/xlink" x="0px" y="0px"
	 viewBox="0 0 88 88" style="enable-background:new 0 0 88 88;" xml:space="preserve">
<style type="text/css">
	.st0{fill:#5FA2EB;}
</style>
<g transform="translate(0,-952.36218)">
	<path class="st0" d="M33,952.4c4.9,0,9.2,2.8,11.4,6.8c2.2-2.9,5.7-4.8,9.6-4.8c6.6,0,12,5.4,12,12c0,3.1-1.2,5.9-3.1,8H86
		c1,0,2,1,2,2v18c0,1-1,2-2,2h-4v42c0,1-1,2-2,2H8c-1,0-2-1-2-2v-42H2c-1,0-2-1-2-2v-18c0-1,1-2,2-2h21.6c-2.2-2.3-3.6-5.5-3.6-9
		C20,958.2,25.8,952.4,33,952.4z M33,956.4c-5,0-9,4-9,9s4,9,9,9h9c0-3,0-6,0-9C42,960.4,38,956.4,33,956.4z M54,958.4
		c-4.4,0-8,3.6-8,8v8h8c4.4,0,8-3.6,8-8S58.4,958.4,54,958.4z M84,978.4H54v14h30V978.4z M50,978.4c-4,0-8,0-12,0v14h12V978.4z
		 M34,978.4c-10,0-20,0-30,0v14h30V978.4z M78,996.4H54v40h24V996.4z M50,996.4H38v40h12V996.4z M34,996.4H10v40h24V996.4z"/>
</g>
</svg>
