<?xml version="1.0" encoding="utf-8"?>
<!-- Generator: Adobe Illustrator 22.1.0, SVG Export Plug-In . SVG Version: 6.00 Build 0)  -->
<svg version="1.1" id="Слой_1" xmlns="http://www.w3.org/2000/svg" xmlns:xlink="http://www.w3.org/1999/xlink" x="0px" y="0px"
	 viewBox="0 0 124.8 109.6" style="enable-background:new 0 0 124.8 109.6;" xml:space="preserve">
<style type="text/css">
	.st0{fill:#5FA2EB;}
</style>
<g>
	<g>
		<path class="st0" d="M104.4,104.6H36.2V94.4h-5v12.3c0,1.6,1.3,2.9,2.9,2.9h72.3c1.6,0,2.9-1.3,2.9-2.9V20.6h-5L104.4,104.6
			L104.4,104.6z"/>
		<path class="st0" d="M119.9,10.7c-1.9,0-3.5,1-4.3,2.5h-6.2v-2.9c0-5.7-4.6-10.3-10.3-10.3c-0.3,0-0.6,0-0.9,0l0,0h-66
			c-6.3,0-11.5,5.2-11.5,11.5v1.7H9.3c-0.9-1.5-2.5-2.5-4.3-2.5c-2.8,0-5,2.3-5,5c0,2.8,2.3,5,5,5c1.9,0,3.5-1,4.3-2.5h11.5v66.7
			c0,2.1,1.7,3.7,3.7,3.7H90c2.1,0,3.7-1.7,3.7-3.7V18.2h21.8c0.9,1.5,2.5,2.5,4.3,2.5c2.8,0,5-2.3,5-5
			C124.9,13,122.6,10.7,119.9,10.7z M32.2,5h58c-0.9,1.6-1.5,3.4-1.5,5.3v57.9h-63V11.5C25.7,7.9,28.6,5,32.2,5z M25.7,83.7V73.3h63
			v10.4H25.7z M93.7,10.4c0-2.9,2.4-5.3,5.3-5.3s5.3,2.4,5.3,5.3v2.9H93.7V10.4z"/>
	</g>
</g>
</svg>
