<?xml version="1.0" encoding="utf-8"?>
<!-- Generator: Adobe Illustrator 22.1.0, SVG Export Plug-In . SVG Version: 6.00 Build 0)  -->
<svg version="1.1" id="Capa_1" xmlns="http://www.w3.org/2000/svg" xmlns:xlink="http://www.w3.org/1999/xlink" x="0px" y="0px"
	 viewBox="0 0 463.6 463.6" style="enable-background:new 0 0 463.6 463.6;" xml:space="preserve">
<style type="text/css">
	.st0{fill:#5FA2EB;}
</style>
<g>
	<g>
		<path class="st0" d="M445.8,256.3l-179.9-180c-9.5-9.5-22.2-14.8-35.6-14.8c-1.1,0-2.2,0-3.3,0.1L96.9,70.2
			c-14.1,0.9-25.5,12.3-26.4,26.4l-3.1,46.2c-6.6-3.8-12.9-8.6-18.6-14.3c-13.9-13.9-22.5-31.2-24.3-48.8C22.8,63,27.6,48.1,38,37.7
			c22.1-22.1,62.8-17.2,90.9,10.8c4.7,4.7,12.3,4.7,17,0s4.7-12.3,0-17c-37.6-37.3-93.6-42.1-125-10.7C5.3,36.4-1.9,58.1,0.5,82.2
			c2.3,23.1,13.4,45.6,31.2,63.4c10,10,21.6,17.9,33.9,23.3l-3.8,57.9c-1,14.5,4.4,28.7,14.7,39l180,180
			c11.4,11.4,26.5,17.6,42.6,17.6l0,0c16.1,0,31.2-6.3,42.6-17.6L446,341.5c11.4-11.4,17.6-26.5,17.6-42.6
			C463.5,282.7,457.2,267.6,445.8,256.3z M428.9,324.4L324.5,428.8c-6.8,6.8-15.9,10.6-25.6,10.6l0,0c-9.7,0-18.8-3.8-25.6-10.6
			l-180-180c-5.4-5.4-8.2-12.8-7.7-20.4l3.5-52.4c2,0.3,4,0.6,6,0.8c3,0.3,6,0.5,8.9,0.5c20.5,0,38.8-7.2,52.4-20.8
			c4.7-4.7,4.7-12.3,0-17s-12.3-4.7-17,0c-10.4,10.4-25.3,15.2-42,13.5c-2.3-0.2-4.5-0.6-6.7-1l3.6-53.6c0.1-2.2,1.9-3.9,4.1-4.1
			l130.1-8.6c0.6,0,1.2-0.1,1.8-0.1c7,0,13.8,2.8,18.7,7.7l179.9,179.9c6.8,6.8,10.6,15.9,10.6,25.6
			C439.5,308.5,435.7,317.6,428.9,324.4z"/>
	</g>
</g>
<g>
	<path class="st0" d="M331,332.3c-4.7,0-9.2-2.8-11.1-7.5L296.5,267l-90.2-11.4l-18.2-64.7c-1.8-6.4,1.9-13,8.3-14.8
		c6.4-1.8,13,1.9,14.8,8.3l13.8,49.3l88.4,11.2l28.6,70.8c2.5,6.1-0.5,13.1-6.6,15.6C334,332,332.5,332.3,331,332.3z"/>
</g>
</svg>
