<?xml version="1.0" encoding="utf-8"?>
<!-- Generator: Adobe Illustrator 22.1.0, SVG Export Plug-In . SVG Version: 6.00 Build 0)  -->
<svg version="1.1" id="Слой_1" xmlns="http://www.w3.org/2000/svg" xmlns:xlink="http://www.w3.org/1999/xlink" x="0px" y="0px"
	 viewBox="0 0 456.1 508" style="enable-background:new 0 0 456.1 508;" xml:space="preserve">
<style type="text/css">
	.st0{fill:#5FA2EB;}
</style>
<g>
	<path class="st0" d="M203.2,382.3c-24.1,0-43.7,19.6-43.7,43.7s19.6,43.7,43.7,43.7s43.7-19.6,43.7-43.7
		C246.9,402,227.3,382.3,203.2,382.3z M203.2,441.6c-8.6,0-15.5-7-15.5-15.5c0-8.6,7-15.5,15.5-15.5c8.6,0,15.5,7,15.5,15.5
		S211.8,441.6,203.2,441.6z"/>
	<path class="st0" d="M442.1,61.6h-68.3l4.2-31.5c0.5-4-0.7-8.1-3.4-11.2c-2.7-3.1-6.5-4.8-10.6-4.8h-96.9c0.1-7.8-6.2-14.1-14-14.1
		h-99.7c-7.8,0-14.1,6.3-14.1,14.1H14.1c-5.1,0-9.8,2.8-12.3,7.2c-2.5,4.5-2.4,9.9,0.3,14.3l36.8,59.6l33.2,261.7L28.9,489.5
		c-1.4,4.3-0.7,9,2,12.7s6.9,5.8,11.4,5.8h321.8c4.5,0,8.8-2.2,11.4-5.8c2.7-3.7,3.4-8.4,2-12.7l-43.3-132.6L370,89.7h57.9V266
		c0,7.8,6.3,14.1,14.1,14.1c7.8,0,14.1-6.3,14.1-14.1V75.7C456.2,67.9,449.9,61.6,442.1,61.6z M344.6,479.8H61.8l35-107.4h212.8
		L344.6,479.8z M307.5,344.2H99L83.2,220h12.6c7.8,0,14.1-6.3,14.1-14.1s-6.3-14.1-14.1-14.1H79.6L76,163.6h33.9
		c7.8,0,14.1-6.3,14.1-14.1s-6.3-14.1-14.1-14.1H72.4l-5.9-46.6c-0.3-2-0.9-3.9-2-5.6L39.4,42.3h308.5L307.5,344.2z"/>
	<path class="st0" d="M269.6,322.1c7.8,0,14.1-6.3,14.1-14.1V93.5c0-7.8-6.3-14.1-14.1-14.1c-7.8,0-14.1,6.3-14.1,14.1V308
		C255.5,315.8,261.8,322.1,269.6,322.1z"/>
</g>
</svg>
