<?xml version="1.0" encoding="utf-8"?>
<!-- Generator: Adobe Illustrator 22.1.0, SVG Export Plug-In . SVG Version: 6.00 Build 0)  -->
<svg version="1.1" id="Слой_1" xmlns="http://www.w3.org/2000/svg" xmlns:xlink="http://www.w3.org/1999/xlink" x="0px" y="0px"
	 viewBox="0 0 575 625" style="enable-background:new 0 0 575 625;" xml:space="preserve">
<style type="text/css">
	.st0{fill:#5FA2EB;}
</style>
<path class="st0" d="M187.5,0h-150C16.8,0,0,16.8,0,37.5v575c0,6.9,5.6,12.5,12.5,12.5h200c6.9,0,12.5-5.6,12.5-12.5v-575
	C225,16.8,208.2,0,187.5,0z M25,162.5h175v25H25V162.5z M25,37.5C25,30.6,30.6,25,37.5,25h150c6.9,0,12.5,5.6,12.5,12.5v100H25V37.5
	z M200,600H25V212.5h175V600z"/>
<path class="st0" d="M525,412.5c-8.8,0-17.4,2.3-25,6.7v-56.7c0-6.9-5.6-12.5-12.5-12.5h-200c-6.9,0-12.5,5.6-12.5,12.5v225
	c0,20.7,16.8,37.5,37.5,37.5h150c20.7,0,37.5-16.8,37.5-37.5v-81.7c23.9,13.8,54.5,5.6,68.3-18.3c13.8-23.9,5.6-54.5-18.3-68.3
	C542.4,414.8,533.8,412.5,525,412.5z M475,587.5c0,6.9-5.6,12.5-12.5,12.5h-150c-6.9,0-12.5-5.6-12.5-12.5V425h137.5
	c6.9,0,12.5-5.6,12.5-12.5s-5.6-12.5-12.5-12.5H300v-25h175V587.5z M525,487.5c-13.8,0-25-11.2-25-25s11.2-25,25-25s25,11.2,25,25
	C550,476.3,538.8,487.5,525,487.5z"/>
<path class="st0" d="M412.5,312.5c6.9,0,12.5-5.6,12.5-12.5c0-22,5.2-32.4,11.2-44.4c6.5-13,13.8-27.6,13.8-55.6
	c0-6.9-5.6-12.5-12.5-12.5S425,193.1,425,200c0,22-5.2,32.4-11.2,44.4c-6.5,13-13.8,27.6-13.8,55.6
	C400,306.9,405.6,312.5,412.5,312.5z"/>
<path class="st0" d="M387.5,187.5c-6.9,0-12.5,5.6-12.5,12.5c0,22-5.2,32.4-11.2,44.4c-6.5,13-13.8,27.6-13.8,55.6
	c0,6.9,5.6,12.5,12.5,12.5S375,306.9,375,300c0-22,5.2-32.4,11.2-44.4c6.5-13,13.8-27.6,13.8-55.6
	C400,193.1,394.4,187.5,387.5,187.5z"/>
</svg>
