<?xml version="1.0" encoding="utf-8"?>
<!-- Generator: Adobe Illustrator 22.1.0, SVG Export Plug-In . SVG Version: 6.00 Build 0)  -->
<svg version="1.1" id="Слой_1" xmlns="http://www.w3.org/2000/svg" xmlns:xlink="http://www.w3.org/1999/xlink" x="0px" y="0px"
	 viewBox="0 0 288.6 423.5" style="enable-background:new 0 0 288.6 423.5;" xml:space="preserve">
<style type="text/css">
	.st0{fill:#5FA2EB;}
</style>
<g>
	<path class="st0" d="M48.2,0h192.3c6.3,0,10.5,6.3,8.4,12.6c-11.6,35.7-20,64.1-20,90.4c0,28.4,10.5,49.4,26.3,73.6
		c28.4,41,37.8,88.3,31.5,131.4c-7.4,45.2-30.5,86.2-67.3,112.5c-2.1,2.1-4.2,3.2-6.3,3.2H74.5c-2.1,0-4.2-1.1-6.3-3.2
		C32.5,394.1,8.3,353.1,2,307.9c-6.3-43.1,2.1-90.4,30.5-131.4c16.8-24.2,26.3-45.2,26.3-73.6c0-26.3-7.4-54.6-20-90.4
		C36.7,6.3,41.9,0,48.2,0z M76.6,118.8c6.3,3.2,12.6,6.3,18.9,10.5c14.7,8.4,29.4,17.9,48.3,17.9s34.7-9.5,49.4-17.9
		c5.3-4.2,11.6-7.4,17.9-10.5c0-5.3-1.1-10.5-1.1-15.8c0-25.2,6.3-52.5,16.8-84.1h-166C71.3,50.4,77.6,77.8,77.6,103
		C77.6,108.2,77.6,113.5,76.6,118.8z M215.3,138.7c-4.2,2.1-8.4,4.2-12.6,7.4c-16.8,9.5-34.7,20-58.9,20s-42-10.5-57.8-20
		c-4.2-3.2-8.4-5.3-12.6-7.4c-5.3,15.8-12.6,31.5-25.2,48.3c-4.2,7.4-8.4,14.7-12.6,22.1c23.1-5.3,41,5.3,59.9,15.8
		c14.7,9.5,29.4,17.9,48.3,17.9s34.7-8.4,49.4-17.9c17.9-10.5,35.7-21,58.9-15.8c-3.2-7.4-7.4-14.7-12.6-22.1
		C227.9,170.3,219.5,154.5,215.3,138.7z M261.6,232.3c-23.1-11.6-41-1.1-58.9,9.5c-16.8,10.5-34.7,21-58.9,21s-42-10.5-57.8-21
		c-18.9-10.5-35.7-21-59.9-9.5c-7.4,24.2-8.4,49.4-5.3,72.5c0,2.1,0,3.2,1.1,4.2c30.5-12.6,51.5-1.1,73.6,12.6
		c14.7,8.4,29.4,17.9,48.3,17.9s34.7-9.5,49.4-17.9c22.1-13.7,43.1-25.2,73.6-12.6c0-1.1,0-2.1,1.1-4.2
		C271,281.7,268.9,256.4,261.6,232.3z M262.6,328.9c-24.2-11.6-42-2.1-59.9,9.5c-16.8,9.5-34.7,20-58.9,20s-42-10.5-57.8-20
		c-18.9-11.6-35.7-21-59.9-9.5c9.5,29.4,27.3,56.8,51.5,74.6h132.4C235.3,385.7,253.2,358.4,262.6,328.9z"/>
</g>
</svg>
