<?xml version="1.0" encoding="utf-8"?>
<!-- Generator: Adobe Illustrator 22.1.0, SVG Export Plug-In . SVG Version: 6.00 Build 0)  -->
<svg version="1.1" id="Capa_1" xmlns="http://www.w3.org/2000/svg" xmlns:xlink="http://www.w3.org/1999/xlink" x="0px" y="0px"
	 viewBox="0 0 461 438.5" style="enable-background:new 0 0 461 438.5;" xml:space="preserve">
<style type="text/css">
	.st0{fill:#5FA2EB;}
</style>
<g>
	<path class="st0" d="M373,438.5l-142.5-74.9L88,438.5l27.2-158.6L0,167.5l159.3-23.1L230.5,0l71.2,144.3L461,167.5L345.8,279.8
		L373,438.5z M230.5,344.4l119.9,63l-22.9-133.5l97-94.5l-134-19.5L230.5,38.4l-59.9,121.5l-134,19.5l97,94.5l-22.9,133.5
		L230.5,344.4z"/>
</g>
<g>
	<path class="st0" d="M158.8,224c0-18.6,12.9-34,32.8-34c19.7,0,32.6,15.4,32.6,34.2c0,18.6-13.2,34-32.8,34S158.8,243,158.8,224z
		 M270.5,191.8H295l-97.7,126.7h-24.4L270.5,191.8z M202.1,224c0-8-4.5-14.1-10.7-14.1c-6.3,0-10.5,6-10.5,14.3
		c0,8.1,4.7,14.1,10.7,14.1C197.8,238.3,202.1,232.3,202.1,224z M243.6,286.1c0-18.6,12.9-34,32.8-34c19.7,0,32.6,15.2,32.6,34.2
		c0,18.5-13.2,34-32.8,34S243.6,304.9,243.6,286.1z M286.8,286.1c0-8.1-4.5-14.1-10.7-14.1c-6.5,0-10.5,5.8-10.5,14.3
		c0,8,4.7,14.1,10.7,14.1C282.5,300.4,286.8,294.4,286.8,286.1z"/>
</g>
</svg>
