<?xml version="1.0" standalone="no"?>
<!DOCTYPE svg PUBLIC "-//W3C//DTD SVG 1.1//EN" "http://www.w3.org/Graphics/SVG/1.1/DTD/svg11.dtd" >
<svg xmlns="http://www.w3.org/2000/svg" xmlns:xlink="http://www.w3.org/1999/xlink" version="1.1">
<metadata>
Created by FontForge 20170910 at Sun Jan 15 15:44:15 2006
 By Jimmy Wärting
Copyright (c) Gophmann A.L, 2006. All rights reserved.
</metadata>
<defs>
<font id="Menuetscript" horiz-adv-x="204" >
  <font-face 
    font-family="Menuet script"
    font-weight="400"
    font-stretch="normal"
    units-per-em="1000"
    panose-1="2 0 5 3 3 0 0 2 0 3"
    ascent="800"
    descent="-200"
    x-height="365"
    cap-height="707"
    bbox="-282 -256 956 902"
    underline-thickness="50"
    underline-position="-100"
    unicode-range="U+0020-FB02"
  />
<missing-glyph horiz-adv-x="500" 
 />
    <glyph glyph-name=".notdef" horiz-adv-x="500" 
 />
    <glyph glyph-name="eth" unicode="&#xf0;" horiz-adv-x="352" 
d="M185 650q0 -16 -13 -24l-70 -40q8 -11 14 -19.5t10.5 -17t8.5 -18.5t10 -23q17 -42 24.5 -81.5t7.5 -88.5q0 -78 -19 -137.5t-63 -114.5q-69 -87 -134 -87q-39 0 -63.5 33t-24.5 87q0 65 30 117t87 87q21 14 45 24t33 10q3 0 3 -2q0 -3 -18 -11q-61 -26 -96.5 -83.5
t-35.5 -128.5q0 -46 18.5 -74.5t48.5 -28.5q9 0 20.5 3.5t21.5 10.5q32 20 49 49q24 42 36.5 103.5t12.5 136.5q0 48 -5 90t-14 74q-3 10 -6 18.5t-6.5 17t-8.5 18t-12 22.5l-103 -58q-1 -1 -3 -1q-6 0 -6 9t12 17l88 52q-14 26 -42.5 52t-63.5 47l-5 3q-6 2 -6 5q0 2 2 2
h3.5t6.5 -2q30 -9 61.5 -31.5t67.5 -61.5l88 50l4 2q5 0 5 -7z" />
    <glyph glyph-name="Lslash" unicode="&#x141;" horiz-adv-x="630" 
d="M502 595q0 -87 -73 -166q-40 -43 -82 -65q-16 -8 -29 -13.5t-27.5 -9t-31 -5.5t-39.5 -3l-14 -63l209 36l-20 -35l-197 -33q-2 -11 -7.5 -23t-11.5 -21q-11 -16 -31 -38.5t-37 -38.5q15 -8 26.5 -13.5t22 -10.5t22 -9.5t26.5 -10.5q39 -15 65.5 -21.5t50.5 -6.5
q25 0 44 7q22 9 42.5 30t31.5 47l14 32q3 5 6 5q6 0 6 -12q0 -27 -34 -75q-29 -42 -63.5 -61.5t-79.5 -19.5q-22 0 -41 4q-14 3 -27.5 7.5t-30.5 11.5t-38 16.5t-48 22.5l-31 15q-45 -39 -87.5 -59.5t-79.5 -20.5q-38 0 -62 20t-24 51q0 19 8.5 34.5t29.5 33.5q38 34 76 34
q22 0 55 -9t83 -27l19 -7q2 3 3.5 5t2.5 4q24 36 42 93q0 1 1.5 1.5t-8.5 -1t-37.5 -6t-85.5 -14.5l18 33l120 21q4 17 8.5 36t9.5 36q-35 3 -49.5 4t-28.5 1q-8 0 -15.5 -0.5t-14.5 -1.5q-11 -2 -17 -4t-18 -8q-1 -1 -3 -1q-2 -1 -3 -2h-1h-1q-2 2 -2 3q0 2 0.5 2.5
t0.5 1.5l19 20l21 23q6 7 37 7q9 0 19.5 -0.5t23.5 -1.5q7 0 17 -0.5t24 -1.5q2 12 4 21t4 15q27 121 57 171q14 23 36 44.5t47 38t51 26t47 9.5q36 0 58 -28.5t22 -75.5zM454 577q0 41 -19.5 63.5t-53.5 22.5q-62 0 -91 -69q-7 -17 -13.5 -34.5t-11.5 -37.5
q-5 -17 -8.5 -32t-7.5 -31.5t-8.5 -37t-10.5 -47.5h12q30 0 51.5 3.5t46.5 11.5q35 12 58 37q12 13 22.5 30.5t18 37.5t11.5 41.5t4 41.5zM53 85q-45 20 -85 30.5t-68 10.5q-22 0 -35.5 -10.5t-13.5 -26.5q0 -20 25 -34.5t62 -14.5q29 0 61.5 12.5t53.5 32.5z" />
    <glyph glyph-name="lslash" unicode="&#x142;" 
d="M58 368l-71 -26l-47 -180l-2 -9q-6 -26 -10 -46t-4 -34q0 -33 20 -33q14 0 34.5 19.5t42.5 56.5l13 22q5 8 8 8q5 0 5 -4q0 -5 -10 -22t-24 -37q-62 -84 -107 -84q-36 0 -36 43q0 20 4 44.5t12 53.5l3 12l45 171l-59 -22l19 38l49 17l49 188l2 9q6 28 11 51t5 36
q0 18 -15 18h-5q-2 -1 -3 -1t-2 -1q-2 0 -8 -3q-3 -1 -5 -1q-4 -2 -5 -2q-5 0 -5 5t9 8l74 30l2 1q6 3 12 3q15 0 15 -16v-9q-1 -2 -1 -4.5t-1 -4.5q0 -1 -0.5 -2.5t-1.5 -5.5q0 -2 -1 -2l-73 -278l82 29z" />
    <glyph glyph-name="Scaron" unicode="&#x160;" horiz-adv-x="537" 
d="M320 728h-33l-63 130l21 -3l67 -84l130 87h22zM388 612q0 -20 -7 -43.5t-19 -45.5q-11 -18 -16 -18q-4 0 -4 5q0 2 0.5 5t3.5 8q8 19 8 50q0 45 -23.5 69t-67.5 24q-51 0 -82 -30t-31 -78q0 -33 16.5 -59t58.5 -56l82 -59q31 -23 47.5 -52.5t16.5 -62.5q0 -54 -24.5 -104
t-66 -88.5t-95.5 -61t-112 -22.5q-44 0 -82.5 13.5t-67.5 37.5t-45.5 55.5t-16.5 67.5q0 33 14.5 62t39 50t58.5 33t73 12q38 0 66 -11q14 -5 14 -10q0 -3 -3 -3q1 0 -11 3q-11 4 -23.5 5.5t-24.5 1.5q-32 0 -59 -10t-47.5 -28t-32 -42t-11.5 -52q0 -30 15 -56t41 -45.5
t60 -31t73 -11.5q45 0 90.5 16t77.5 44q27 23 42 59t15 77q0 51 -26 85q-7 9 -15 17t-20 17.5t-30 22.5t-46 32q-38 26 -57 49q-10 12 -16 30.5t-6 38.5q0 63 63 127q32 32 57 44.5t57 12.5q43 0 71 -26t28 -68z" />
    <glyph glyph-name="scaron" unicode="&#x161;" horiz-adv-x="278" 
d="M63 412h-33l-63 130l21 -3l67 -84l130 87h22zM104 312q0 -25 -15 -40q-3 -3 -6.5 -5.5t-5.5 -2.5q-1 0 -2 1t-1 2q0 2 1 4q3 7 3 16q0 24 -17.5 39t-44.5 15q-28 0 -45 -15t-17 -40q0 -20 12 -35t40 -29q15 -8 24 -13t15 -9t9.5 -8t8.5 -10q8 -10 13 -23.5t5 -26.5
q0 -47 -44 -91q-43 -43 -99 -43q-38 0 -61 20.5t-23 55.5q0 34 22 56q12 12 19 12h2q1 -1 1 -3v-1l-1 -2v-1l-5 -10q-5 -13 -5 -28q0 -29 21 -48.5t54 -19.5q36 0 60 19.5t24 49.5q0 43 -50 69l-31 16q-23 12 -35.5 32t-12.5 43q0 39 38 76q42 39 87 39q29 0 45.5 -16.5
t16.5 -44.5z" />
    <glyph glyph-name="Yacute" unicode="&#xdd;" horiz-adv-x="648" 
d="M486 839q0 -7 -4.5 -12t-18.5 -14q-2 -1 -3.5 -2t-3.5 -2l-121 -81h-26l107 97q23 22 33.5 29t17.5 7q8 0 13.5 -6.5t5.5 -15.5zM505 700q0 -2 -1 -8t-6 -20l-1.5 -4.5t-0.5 -3.5l-121 -509q-6 -27 -11.5 -48t-11.5 -38t-12.5 -32t-14.5 -31q-16 -30 -42 -59
q-10 -12 -18.5 -20.5t-17 -16t-19 -14.5t-25.5 -16l6 -1l28 -2l22 -2h11q35 0 69.5 18t59.5 47q11 14 20.5 29.5t17.5 32.5q6 14 9.5 24.5t6 21.5t4.5 25t4 36q2 11 3 14t5 3q5 0 8 -12.5t3 -31.5q0 -42 -21.5 -85t-60.5 -82q-40 -39 -84.5 -60t-90.5 -21q-17 0 -41 3l-50 6
l-55 7q-17 2 -23.5 2.5t-16.5 0.5q-17 0 -22.5 -0.5t-16.5 -4.5q-8 -3 -10 -3.5t-4 -1.5q-3 -1 -9 -1q-4 0 -4 4q0 3 1.5 4.5t5.5 4.5l4.5 3l4.5 3l4 2q1 1 1.5 1t1.5 1q4 3 5.5 5t9.5 8l14 11l7 6q3 3 8 3q11 0 28.5 -1.5t39.5 -4.5l31 -4l11 -2q7 -2 12.5 -2h7.5
q12 0 23 6q20 12 42.5 38.5t34.5 52.5q9 20 20 51.5t23 75.5q8 27 13 45t8 32t5 27t4 31q-15 -25 -26 -42.5t-21.5 -32t-21.5 -28.5t-26 -30q-91 -101 -186 -101q-9 0 -18 1.5t-20 5t-25 8.5t-33 12l-22 8q-7 2 -13.5 5t-10.5 5q-9 2 -19.5 4t-17.5 2q-4 0 -10 -2h-3
q-1 0 -2 1q-3 4 -3 7q0 1 2 3l5 5l20 15q11 8 20 13t13 5q3 0 11 -2q13 -4 24 -4q22 0 52 14.5t58 38.5q33 29 60 69t46.5 86t30 96.5t10.5 100.5q0 39 -10 71.5t-28.5 55.5t-44.5 35.5t-57 12.5q-35 0 -63 -16.5t-53 -51.5q-61 -85 -61 -204q0 -24 2.5 -43.5t8.5 -41.5
q4 -14 6.5 -22t10.5 -25l2 -4q0 -2 -2 -2q0 -1 -2 -1q-3 0 -6 3q-10 12 -19 31.5t-15.5 42.5t-10 47t-3.5 47q0 113 83 200q75 80 162 80q72 0 114 -54.5t42 -146.5q0 -71 -20 -137.5t-56 -123t-87 -99.5t-112 -67q-1 -1 -2 -1l-4 -2q-4 -2 -4 -4q0 -5 7 -8q19 -10 46 -16.5
t52 -6.5q20 0 45 5q17 4 31.5 10t28.5 15t28.5 22.5t31.5 32.5q67 76 95 157q5 12 15.5 52.5t28.5 109.5q8 33 14 57t9 41l13 67q2 13 3.5 21t1.5 13q-1 2 -1 6q-2 11 -2 14v6q0 4 7 8h1l37 16q7 3 14 3q13 0 13 -11z" />
    <glyph glyph-name="yacute" unicode="&#xfd;" horiz-adv-x="389" 
d="M218 523q0 -7 -5 -12t-19 -14q-2 -1 -3 -2t-3 -2l-122 -81h-25l106 97q24 22 34 29t18 7t13.5 -6.5t5.5 -15.5zM204 353q0 -7 -1 -14t-4 -17l-83 -297q-7 -24 -13.5 -39.5t-15.5 -31.5q-11 -20 -28 -35t-48 -33l-10 -6q6 -1 10 -1h6q59 0 91.5 18.5t54.5 62.5q4 9 8 9
q6 0 6 -6q0 -8 -7.5 -25t-18.5 -31q-25 -35 -61 -52.5t-81 -17.5h-16t-24 1q-11 1 -17.5 1.5t-11.5 0.5q-20 3 -25 3q-1 0 -3 -0.5t-5 -0.5q-5 0 -8.5 -0.5t-5.5 -0.5q-4 0 -6 -0.5t-3 -0.5h-5q-4 0 -4 4q0 3 1 5q1 1 6 9q5 6 8 10.5l5 7.5q5 5 11.5 6.5t23.5 1.5h14h5
q24 0 37.5 3.5t25.5 14.5q17 15 27 34q6 10 10 17.5t7 16t6.5 20.5t9.5 32l16 59l-68 -47q-26 -18 -42 -25.5t-30 -7.5q-24 0 -40.5 20.5t-16.5 50.5q0 11 3.5 26.5t8.5 35.5l2 7l39 132q10 31 10 48q0 18 -15 18q-9 0 -24 -4q-5 -2 -6.5 -2h-2.5q-3 0 -3 6t9 10l15 7
q18 8 35 12.5t28 4.5q23 0 23 -25q0 -8 -3 -17l-1 -2l-58 -199l-1 -7q-10 -33 -10 -54q0 -17 9 -27.5t25 -10.5q11 0 22 4.5t31 18.5q13 9 21.5 14.5t15.5 11t13.5 10.5t15.5 12l20 72q4 13 6.5 21t3.5 13l6 24t10 41q5 22 7 33.5t2 16.5q0 17 -16 17q-7 0 -14 -3l-9 -4
l-6 -2q-11 -3 -10 -3q-4 0 -4 5q0 12 38 26q15 6 33.5 10.5t26.5 4.5q17 0 17 -21z" />
    <glyph glyph-name="Thorn" unicode="&#xde;" horiz-adv-x="556" 
d="M399 452q0 -47 -20 -95t-57 -90q-18 -20 -33 -35t-32 -29.5t-39.5 -31.5t-56.5 -41q49 -15 81 -15q38 0 71.5 20.5t53.5 58.5l15 28q1 3 5 3t4 -4v-1q0 -6 -9.5 -24.5t-21.5 -35.5q-57 -84 -123 -84q-14 0 -33.5 3.5t-47.5 8.5l-16 3q-18 4 -34 7t-28 5q-10 2 -16.5 2
h-13.5h-14q-9 0 -9 4q0 3 3 6.5t12 10.5l18 14q7 6 16 6q2 0 6.5 -0.5t9.5 -1.5q10 -2 16 -2.5t12 -0.5q22 0 41 9t46 32q33 28 59.5 60t45.5 66t29.5 67.5t10.5 63.5q0 23 -7.5 47t-19.5 39q-22 27 -63 27q-73 0 -128 -86q-18 -28 -33 -59.5t-30 -73.5t-31 -97t-35 -128
l-24 -94q-3 -11 -4.5 -19t-3.5 -13q-8 -35 -14.5 -60.5t-12.5 -43.5q-12 -34 -41 -34q-16 0 -27 11.5t-11 28.5v4.5t1 5.5l1 4v1l133 670q6 31 6 55q0 23 -6.5 33t-22.5 10q-10 0 -25 -8q-9 -3 -14.5 -6t-7.5 -5q-5 -3 -6 -3l-2 -1q-1 0 -1.5 -0.5t-1.5 -0.5l-2 2v2
q0 5 18 16l60 34l4 2q12 6 20 9t16 3q29 0 29 -33q0 -10 -2.5 -24t-4.5 -28l-1 -6l-152 -695q-6 -26 -6 -36q0 -8 5 -14t12 -6q8 0 12 8t11 33l22 82l33 127q21 79 37.5 137.5t31.5 101t29 71.5t29 51q17 25 39 46t45.5 36.5t47.5 24.5t45 9q46 0 74 -40t28 -104z" />
    <glyph glyph-name="thorn" unicode="&#xfe;" horiz-adv-x="370" 
d="M194 271q0 -28 -11.5 -62t-30.5 -63q-10 -15 -18 -26t-18.5 -22t-24 -24t-33.5 -31q10 -3 22.5 -5t21.5 -2q8 0 17.5 1.5t17.5 4.5q6 2 9.5 4.5t11.5 8.5q6 2 5 2q4 0 4 -4q0 -7 -17 -21q-38 -32 -78 -32q-13 0 -28 3l-18 4l-22 4l-16 2l-13 1l-11 -1q-2 -1 -4 -1h-3h-2
q-4 2 -4 4q0 5 9 17q16 24 34 24q2 0 5.5 -0.5t8.5 -1.5q7 -2 14 -2.5t12 -0.5q11 0 20 6t22 23q22 30 39 57q16 27 24.5 56t8.5 57q0 32 -12.5 50t-34.5 18q-13 0 -28.5 -7.5t-30.5 -20.5t-29 -30t-24 -36q-9 -19 -22 -55q-7 -22 -12 -38.5t-12 -39.5t-16.5 -58.5
t-25.5 -95.5q-2 -10 -4 -17.5t-4 -12.5l-12 -40q-4 -11 -6 -14.5t-7 -3.5h-27l-3 5l15 58l19 74q5 21 9 35t7.5 26t6.5 24t8 28q5 19 8.5 32t5.5 21l104 391q18 67 18 96q0 18 -15 18q-7 0 -18 -5q-5 -2 -7 -2.5t-4 -0.5q-4 0 -4 5t9 8l74 30l2 1q6 3 12 3q15 0 15 -17
q-2 -8 -5.5 -24.5t-14.5 -59t-32 -121.5t-56 -213l1 1q11 14 28 31l28 28q34 29 68 29q33 0 53.5 -22.5t20.5 -57.5z" />
    <glyph glyph-name="Zcaron" unicode="&#x17d;" horiz-adv-x="580" 
d="M246 728h-33l-63 130l21 -3l67 -84l130 87h22zM405 220q0 -23 -7.5 -53t-19.5 -57q-29 -62 -68.5 -89t-100.5 -27q-18 0 -37.5 3.5t-55.5 13.5l-45 12q-35 10 -58.5 14t-44.5 4q-31 0 -63 -7.5t-54 -20.5l-20 -12q-1 0 -2 -1q-4 0 -4 4q0 3 2 5q7 4 33 30l32 32
q15 15 39 45t51 67t55 78t52 79q-20 1 -30.5 1h-22.5h-15h-13.5t-10.5 -1q-1 0 -3.5 -0.5t-6.5 -0.5q-9 -1 -15.5 -1.5t-10.5 -0.5q-10 0 -10 4t5 10q1 1 4 6t10 13l4 5h137l11 17q21 33 38 59.5t31.5 47.5t27 38t24.5 32q7 9 13 16t12.5 14t14.5 15l19 19q-20 -2 -31 -2
h-28h-32.5t-33.5 2l-42 3l-50 3q-14 1 -23.5 1.5t-15.5 0.5q-16 0 -28.5 -1.5t-19.5 -4.5q-13 -5 -25.5 -19t-20.5 -32l-6 -13q-3 -8 -7 -8t-4 6q0 10 14 39l12 25q11 23 16.5 32.5t13.5 15.5q18 15 45 15q5 0 14.5 -0.5t20.5 -2.5q49 -5 92.5 -8.5t75.5 -3.5q30 0 77 3
q14 1 25 2t19 2q8 2 12 2h6q7 0 7 -5q0 -3 -2 -5.5t-8 -7.5q-4 -3 -8.5 -6.5t-10.5 -9.5q-23 -23 -44 -48t-44 -57.5t-50.5 -74.5t-62.5 -99l147 1q11 0 13.5 -1t2.5 -3q0 -3 -5 -8l-9 -15q-3 -5 -5 -8t-4 -5q-3 -3 -5 -3h-2q-2 1 -10 1t-22 1l-31 2q-18 2 -32.5 1.5
t-33.5 -0.5h-26l-27 -40l-23 -36q-11 -17 -20 -30t-17 -24.5t-17 -23t-20 -24.5q-11 -14 -19 -23.5t-16 -18.5t-17 -18t-21 -22q12 2 20.5 2.5t21.5 0.5h11.5t10.5 -1q24 -2 78 -14l44 -10q25 -6 48 -9q19 -2 40 -4t34 -2q57 0 89 32q20 20 36 52.5t20 61.5l4 33q2 10 7 10
t5 -12z" />
    <glyph glyph-name="zcaron" unicode="&#x17e;" horiz-adv-x="330" 
d="M58 412h-33l-63 130l21 -3l67 -84l130 87h22zM155 103q0 -4 -7 -21q-35 -83 -99 -83q-11 0 -26.5 2.5t-44.5 10.5q-17 5 -26 6t-18 3q-8 1 -17 1.5t-16 0.5q-23 0 -40 -8q-8 -4 -10 -4t-5 3q-2 2 -2 5q0 5 14 22q2 2 2 3l114 137h-65l-2 4l29 28h64l88 105l-97 9l-19 2
l-14 1q-5 1 -12 1q-17 0 -28.5 -7.5t-22.5 -24.5q-5 -5 -6 -5q-2 0 -2 2q0 6 8 19l3 6l28 51h9q11 0 22.5 -1t34.5 -5q32 -5 53.5 -7.5t39.5 -2.5q11 0 23 1.5t24 3.5q8 2 10.5 2.5t4.5 0.5q6 0 6 -5q0 -2 -1 -3q-2 -3 -33 -37t-97 -106h79l1 -7l-25 -25h-80l-97 -119
q19 -1 26 -1.5t15 -1.5q6 0 11.5 -0.5t11.5 -1.5t14.5 -3t22.5 -5q32 -7 46.5 -9t23.5 -2q26 0 45.5 17t28.5 46q2 5 5 5q5 0 5 -3z" />
    <glyph glyph-name="onehalf" unicode="&#xbd;" horiz-adv-x="540" 
d="M345 35l-2 -4t-6.5 -11t-10.5 -17l-2 -1q-1 -2 -13 -2h-8h-19t-16 1l-51 4q-5 0 -12 0.5t-15 0.5q-6 0 -10.5 -0.5t-9.5 -0.5q-2 -1 -5.5 -1t-8.5 -1q-3 -1 -7 -1l-4 -1h-4q-6 0 -6 5q0 4 3 7l4 3l107 114q31 32 43 51t12 36q0 19 -14 31t-37 12q-14 0 -25.5 -4
t-22.5 -15l-7 -7q-2 -2 -3 -2q-3 0 -3 3q0 1 5 10q2 3 3.5 6.5t3.5 6.5q10 18 22.5 25t35.5 7q33 0 54 -18t21 -46q0 -24 -14 -43q-3 -5 -6 -8.5t-7 -8t-9.5 -10l-13.5 -13.5l-107 -106l21 -1l29 -2l29 -2l17 -1q11 -1 15.5 -1h7.5q19 0 31 6l7 3q1 0 1.5 0.5t1.5 0.5
q5 0 5 -5zM-119 0h-43l457 486h42zM-18 463q0 -11 -3 -26l-1 -3l-50 -231q-2 -6 -6 -6h-24q-4 0 -4 7v4l1 2v1l44 190l2 7q0 2 1 8l2 12q1 4 1 11q0 16 -11 16q-3 0 -10.5 -4t-16.5 -10q-5 -3 -7 -3q-3 0 -3 3t6 8l8 5l11 8q22 16 29.5 20t15.5 4q15 0 15 -23z" />
    <glyph glyph-name="onequarter" unicode="&#xbc;" horiz-adv-x="540" 
d="M337 111q0 -1 -0.5 -2.5t-4.5 -8.5l-4 -8q-2 -4 -8 -4h-34q-8 -33 -13 -56.5t-7 -27.5q-1 -4 -5 -4h-23q-5 0 -5 4q0 3 6.5 27t15.5 56h-73h-4q-17 0 -23.5 4t-6.5 14q0 18 23 55q16 26 35 49.5t37.5 41t34.5 28t27 10.5q21 0 21 -23q0 -4 -2 -14q0 -5 -2 -11
q-2 -5 -5 -17.5t-8 -32.5q-2 -10 -6 -26t-9 -39l-3 -12h25h18q3 0 3 -3zM-122 0h-43l457 486h42zM-18 463q0 -11 -3 -26l-1 -3l-50 -231q-2 -6 -6 -6h-24q-4 0 -4 7v4l1 2v1l44 190l2 7q0 2 1 8l2 12q1 4 1 11q0 16 -11 16q-3 0 -10.5 -4t-16.5 -10q-5 -3 -7 -3q-3 0 -3 3
t6 8l8 5l11 8q22 16 29.5 20t15.5 4q15 0 15 -23zM288 248q0 10 -7 10q-22 0 -62 -48q-42 -51 -42 -82q0 -9 4.5 -12t19.5 -3h4h56l18 79q9 39 9 56z" />
    <glyph glyph-name="onesuperior" unicode="&#xb9;" horiz-adv-x="152" 
d="M-18 463q0 -11 -3 -26l-1 -3l-50 -231q-2 -6 -6 -6h-24q-4 0 -4 7v4l1 2v1l44 190l2 7q0 2 1 8l2 12q1 4 1 11q0 16 -11 16q-3 0 -10.5 -4t-16.5 -10q-5 -3 -7 -3q-3 0 -3 3t6 8l8 5l11 8q22 16 29.5 20t15.5 4q15 0 15 -23z" />
    <glyph glyph-name="threequarters" unicode="&#xbe;" horiz-adv-x="621" 
d="M418 111l-5 -11l-4 -8q-2 -4 -9 -4h-34q-7 -33 -12 -56.5t-7 -27.5q-1 -4 -6 -4h-23q-4 0 -4 4q0 3 6 27t15 56h-73h-3q-31 0 -31 18t23 55q16 26 35 49.5t37.5 41t34.5 28t27 10.5q21 0 21 -23v-6.5t-1 -7.5q-2 -8 -2 -11q-2 -5 -5 -17.5t-8 -32.5q-3 -10 -7.5 -26
t-8.5 -39l-2 -12h25h17q4 0 4 -3zM-49 0h-42l457 486h41zM58 474q0 -3 -3 -6l-3 -3l-95 -93l12 1.5t9 0.5q33 0 53.5 -17.5t20.5 -45.5q0 -43 -37 -80q-17 -17 -37.5 -26t-40.5 -9q-27 0 -46 15t-19 38q0 19 14 31q7 5 12 5q4 0 4 -4v-3q-1 -2 -1 -5v-5q0 -23 14.5 -36.5
t37.5 -13.5q29 0 49 20.5t20 50.5q0 26 -16.5 41t-44.5 15q-29 0 -49 -14q-6 -2 -5 -2q-4 0 -4 5q0 2 1 3l1 1q25 25 53 52t61 56h-70h-15.5t-9.5 -1q-5 0 -11 -2q-2 -1 -3 -1t-2 -1l-4 -4q-1 -1 -3 -1q-3 0 -3 2t1 4l23 35l17 -2h76q12 0 19.5 0.5t9.5 0.5h8q1 1 3 1
q3 0 3 -3zM368 248q0 10 -7 10q-22 0 -61 -48q-43 -51 -43 -82q0 -9 5 -12t19 -3h4h56l18 79q9 39 9 56z" />
    <glyph glyph-name="threesuperior" unicode="&#xb3;" horiz-adv-x="233" 
d="M58 474q0 -3 -3 -6l-3 -3l-95 -93l12 1.5t9 0.5q33 0 53.5 -17.5t20.5 -45.5q0 -43 -37 -80q-17 -17 -37.5 -26t-40.5 -9q-27 0 -46 15t-19 38q0 19 14 31q7 5 12 5q4 0 4 -4v-3q-1 -2 -1 -5v-5q0 -23 14.5 -36.5t37.5 -13.5q29 0 49 20.5t20 50.5q0 26 -16.5 41
t-44.5 15q-29 0 -49 -14q-6 -2 -5 -2q-4 0 -4 5q0 2 1 3l1 1q25 25 53 52t61 56h-70h-15.5t-9.5 -1q-5 0 -11 -2q-2 -1 -3 -1t-2 -1l-4 -4q-1 -1 -3 -1q-3 0 -3 2t1 4l23 35l17 -2h76q12 0 19.5 0.5t9.5 0.5h8q1 1 3 1q3 0 3 -3z" />
    <glyph glyph-name="twosuperior" unicode="&#xb2;" horiz-adv-x="221" 
d="M56 233q0 -1 -2 -5q-2 -3 -6.5 -10.5l-10.5 -17.5l-1 -1q-2 -2 -14 -2h-8q-10 0 -18.5 0.5t-15.5 1.5l-52 3q-5 0 -12 0.5t-15 0.5h-10.5t-9.5 -1q-2 0 -5.5 -0.5t-8.5 -1.5q-2 0 -3.5 -0.5t-3.5 -0.5l-4 -1h-3q-7 0 -7 5q0 4 4 7l3 4l107 113q31 32 43 51.5t12 35.5
q0 19 -14 31.5t-37 12.5q-28 0 -48 -20l-7 -7q-2 -2 -3 -2q-3 0 -3 3q0 2 5 10q2 3 4 6.5t4 6.5q9 18 22 25.5t35 7.5q33 0 54.5 -18t21.5 -46q0 -24 -15 -44q-7 -9 -13 -16t-23 -24l-107 -105l21 -2l29 -1l30 -2l16 -1q11 -1 15.5 -1h7.5q18 0 31 5l7 3q1 1 4 1q4 0 4 -4z
" />
    <glyph glyph-name="brokenbar" unicode="&#xa6;" horiz-adv-x="222" 
d="M96 411v250h30v-250h-30zM96 -89v250h30v-250h-30z" />
    <glyph glyph-name="minus" unicode="&#x2212;" horiz-adv-x="593" 
d="M-107 227v28h487v-28h-487z" />
    <glyph glyph-name="multiply" unicode="&#xd7;" horiz-adv-x="559" 
d="M325 15l-205 205l-206 -205l-21 21l206 205l-206 206l21 20l206 -205l205 205l21 -20l-205 -206l205 -205z" />
    <glyph glyph-name="space" unicode=" " horiz-adv-x="203" 
 />
    <glyph glyph-name="exclam" unicode="!" horiz-adv-x="352" 
d="M148 685q0 -6 -3 -13v-2l-140 -485q-1 -3 -8 -8.5t-16 -10.5l-14 -8q-2 0 -2.5 -0.5t-1.5 -0.5q-1 2 -1 3q0 3 1 9t3 14l2 7l95 371l1 6q2 15 5 26.5t3 19.5q0 11 -5.5 15.5t-20.5 6.5v1q-6 0 -6 4q0 3 5 6l78 45q8 5 15 5q10 0 10 -11zM0 54q0 -18 -9 -27q-2 -2 -4 -3
q-8 -7 -13.5 -10.5t-16.5 -13.5l-6 -5q-5 -4 -8 -4t-3 4q0 2 1 4q2 8 3 13t1 11q0 26 -20 34l-8 3q-2 2 -2 3t4 4l29 20l7 4q12 9 21 9t16.5 -14t7.5 -32z" />
    <glyph glyph-name="quotedbl" unicode="&#x22;" horiz-adv-x="370" 
d="M276 461q0 -3 -0.5 -9t-0.5 -11l-2 -21v-14l-10 -206h-21l-10 208v5t-1 8q-1 12 -1.5 23.5t-0.5 16.5q0 32 23 32q24 0 24 -32zM139 422v-14l-10 -208h-21l-10 207l-1 14l-1 19q0 6 -0.5 12t-0.5 9q0 32 23 32t23 -32v-19z" />
    <glyph glyph-name="numbersign" unicode="#" horiz-adv-x="410" 
d="M293 313l-25 -133h86v-19h-89l-30 -161h-21l30 161h-112l-30 -161h-20l29 161h-85v19h89l24 133h-85v19h89l30 161h21l-30 -161h112l30 161h20l-30 -161h86v-19h-89zM160 313l-24 -133h112l24 133h-112z" />
    <glyph glyph-name="dollar" unicode="$" horiz-adv-x="389" 
d="M213 428q0 -3 -3 -10l-24 -56q0 -1 -2 -1q-5 0 -6 9q-2 20 -5 30t-9 21q-14 23 -39 35l-60 -175q41 -44 58 -74.5t17 -64.5q0 -29 -12 -54.5t-33 -45t-48.5 -30.5t-58.5 -11h-9.5t-8.5 1l-21 -67v-1q-3 -7 -6 -7h-17q-1 0 -2 1l-1 1v2v1v1l1 2l24 72q-12 5 -28.5 13.5
t-27.5 16.5q-30 22 -30 33q0 2 2 6l19 54l1 1q4 11 7 11q4 0 4 -3q0 -2 -0.5 -3.5t-0.5 -3.5q-1 -5 -2 -12t-1 -12q0 -30 17.5 -51.5t46.5 -28.5l73 212q-38 36 -56 66t-18 58q0 23 10 44.5t26.5 38t38 26.5t45.5 10q8 0 18 -1t18 -3l22 66v1q3 7 6 7h17q3 0 3 -3
q0 -1 -0.5 -2t-0.5 -2l-1 -1l-25 -72q10 -2 15.5 -4t15.5 -7q23 -11 37 -20t14 -14zM104 464q-11 5 -29 5q-34 0 -56 -21.5t-22 -55.5q0 -14 4 -25.5t14 -26.5q8 -13 14.5 -20.5t19.5 -20.5l55 165v0zM90 121q0 17 -3 30t-13 30q-8 13 -13.5 20.5t-16.5 20.5l-67 -201
q7 -2 10 -2h7q19 0 41 11q55 28 55 91z" />
    <glyph glyph-name="percent" unicode="%" horiz-adv-x="593" 
d="M422 213q0 -18 -4.5 -40.5t-11.5 -41.5q-23 -61 -61.5 -98t-78.5 -37q-37 0 -60 29.5t-23 76.5q0 82 57 156q49 63 101 63q35 0 58 -31t23 -77zM-17 -2h-34l343 483h34zM93 373q0 -18 -4 -40.5t-12 -42.5q-23 -61 -61 -97.5t-78 -36.5q-37 0 -60.5 29.5t-23.5 76.5
q0 82 57 156q48 62 101 62q35 0 58 -30.5t23 -76.5zM387 188q0 103 -69 103q-44 0 -69 -38q-17 -24 -25.5 -57t-8.5 -69q0 -106 71 -106q46 0 73.5 45.5t27.5 121.5zM58 347q0 103 -69 103q-46 0 -74.5 -45t-28.5 -118q0 -52 18 -79.5t53 -27.5q46 0 73.5 46t27.5 121z" />
    <glyph glyph-name="ampersand" unicode="&#x26;" horiz-adv-x="722" 
d="M523 149q0 -66 -41 -106t-108 -40q-31 0 -62 9.5t-62 26.5q-24 13 -40 26t-42 39q-112 -103 -191 -103q-43 0 -70 32t-27 83q0 32 13 60.5t44 62.5q13 15 24 26t23 21t26 20.5t34 24.5q-3 11 -5 30t-2 35q0 33 7.5 64.5t21.5 50.5q11 16 35 36t49 37q10 6 23 10.5t22 4.5
q22 0 38.5 -20.5t16.5 -47.5q0 -46 -45 -97q-13 -14 -23.5 -25t-22.5 -21.5t-27 -21.5t-36 -26l5 -15t4.5 -12.5t6 -15t9.5 -21.5q10 -23 19 -41.5t17 -33.5q7 -13 12.5 -21.5t16.5 -22.5q24 29 35 61.5t11 73.5q0 20 -3 37q-2 10 -4 15q0 1 -1 2.5t-3 5.5q-1 2 -1 5
q0 4 4 4q8 0 13.5 -22t5.5 -51q0 -40 -12 -72.5t-38 -66.5q52 -58 102 -85t104 -27q106 0 106 100q0 35 -13.5 71t-36.5 63q-15 17 -41.5 35t-49.5 26q-4 1 -4 4q0 2 2 2q11 -1 33 -9t40 -19q42 -25 65 -67.5t23 -93.5zM208 504q0 29 -13 46.5t-33 17.5q-15 0 -29.5 -8.5
t-24.5 -23.5q-12 -19 -17 -43.5t-5 -65.5q0 -13 0.5 -22t2.5 -23q2 -9 2 -14t2 -13q15 12 25.5 20t18.5 15.5t16 15.5l19 19q20 20 28 38t8 41zM157 116q-16 19 -24.5 30.5t-20.5 31.5q-17 26 -30.5 55t-27.5 68l-5 14q-15 -11 -24.5 -18t-16 -13t-12.5 -12l-15 -15
q-23 -24 -35.5 -55t-12.5 -64q0 -46 20 -73.5t54 -27.5q36 0 80 25q20 12 33.5 22t36.5 32z" />
    <glyph glyph-name="quotesingle" unicode="'" horiz-adv-x="278" 
d="M162 461v-8.5t-1 -13.5l-1 -20l-1 -15l-9 -204h-22l-9 204l-1 16l-1 18q-1 8 -1 14v9q0 32 23 32t23 -32z" />
    <glyph glyph-name="parenleft" unicode="(" horiz-adv-x="259" 
d="M171 700q0 -4 -14 -20q-37 -40 -67 -88t-52 -105q-14 -36 -25 -77t-18.5 -84.5t-12 -87t-4.5 -83.5q0 -15 0.5 -30t1.5 -31q2 -30 7 -54t12 -53l6 -25q2 -8 2 -10q0 -5 -5 -5q-6 0 -13 17q-6 15 -13.5 37t-12.5 42q-6 23 -10.5 49.5t-8.5 54t-6 53.5t-2 47q0 75 21 147
q16 54 44.5 109.5t66.5 103.5q14 19 29.5 36.5t29 31t24 21.5t15.5 8t5 -4z" />
    <glyph glyph-name="parenright" unicode=")" horiz-adv-x="259" 
d="M72 402q0 -38 -4.5 -75t-15.5 -73q-15 -54 -44 -109.5t-67 -103.5q-14 -19 -29.5 -36.5t-29 -31t-24.5 -21.5t-15 -8q-5 0 -5 4q0 6 11 17q2 2 4.5 5t5.5 7q29 33 48 62q39 55 63 123q29 77 45 164t16 167q0 43 -4.5 83.5t-12.5 70.5l-11 39q-1 4 -1 10t5 6q2 0 6 -6
t8 -15q7 -16 13 -36.5t11 -39.5q6 -23 11 -49.5t8.5 -53.5t5.5 -53t2 -47z" />
    <glyph glyph-name="asterisk" unicode="*" horiz-adv-x="407" 
d="M217 646q0 -13 -9 -17q-5 -5 -12 -6q-4 -1 -12 -2t-20 -3l-14 -3q-16 -3 -21 -5.5t-5 -7.5q0 -6 6.5 -9t25.5 -5q18 -2 25.5 -7t7.5 -16q0 -10 -6.5 -16.5t-16.5 -6.5q-9 0 -15.5 6t-15.5 22l-4.5 7.5t-2.5 4.5q-5 6 -12 6q-5 0 -8 -5q-2 -4 -3.5 -9t-3.5 -26
q-2 -10 -2.5 -16t-2.5 -11q-5 -15 -20 -15q-19 0 -19 17q0 5 3.5 12.5t13.5 17.5l8 8q8 9 10 13t2 8q0 6 -6 6q-3 0 -4 -1q-4 -2 -12 -7t-21 -13l-6 -4q-12 -8 -16.5 -10t-9.5 -2q-19 0 -19 15q0 12 11 18q7 4 16.5 6t35.5 4q5 1 8.5 1.5t5.5 0.5l8 2q8 2 8 6q0 5 -6 8
t-26 7q-18 4 -25 9t-7 14q0 10 6.5 16.5t16.5 6.5q8 0 15.5 -5t11.5 -13l8 -16q6 -13 13 -13q5 0 6.5 3.5t3.5 17.5q2 16 4 24.5t4 15.5q8 25 25 25q16 0 16 -18q0 -7 -4 -13t-18 -21q-12 -12 -15.5 -18t-3.5 -12q0 -7 4 -7q7 0 15 5q4 3 8.5 7t14.5 14l12 10.5t7 5.5
q8 7 19 7q19 0 19 -18z" />
    <glyph glyph-name="plus" unicode="+" horiz-adv-x="593" 
d="M151 227v-227h-30v227h-228v28h228v227h30v-227h229v-28h-229z" />
    <glyph glyph-name="comma" unicode="," 
d="M-22 26q0 -63 -52 -112q-3 -3 -7 -6t-9 -8q-11 -9 -16.5 -12.5t-10.5 -3.5t-5 5q0 2 6 8l18 22q24 30 24 77q0 28 -7 36q-4 5 -10.5 8t-20.5 5q-2 0 -4 0.5t-4 0.5v7l61 45q3 3 5 3q5 0 13 -14q11 -18 15 -31t4 -30z" />
    <glyph glyph-name="hyphen" unicode="-" horiz-adv-x="333" 
d="M108 257q0 -3 -6 -13q-2 -4 -3 -6.5t-2 -5.5q-6 -12 -8.5 -16t-4.5 -7q-14 -19 -38 -20l-27 -2l-24 -3q-23 -3 -33.5 -7.5t-22.5 -18.5l-6 -7q-2 -3 -5 -3t-3 3t3 8l2 4l4 6q6 9 13 18q12 17 19 23q7 7 17.5 10.5t28.5 5.5q25 2 34.5 3t21.5 3q11 2 15 4t9 10q2 4 3.5 6
t2.5 4q1 1 1 1.5t1 1.5q2 2 5 2t3 -4z" />
    <glyph glyph-name="hyphen" unicode="&#xad;" horiz-adv-x="333" 
d="M108 257q0 -3 -6 -13q-2 -4 -3 -6.5t-2 -5.5q-6 -12 -8.5 -16t-4.5 -7q-14 -19 -38 -20l-27 -2l-24 -3q-23 -3 -33.5 -7.5t-22.5 -18.5l-6 -7q-2 -3 -5 -3t-3 3t3 8l2 4l4 6q6 9 13 18q12 17 19 23q7 7 17.5 10.5t28.5 5.5q25 2 34.5 3t21.5 3q11 2 15 4t9 10q2 4 3.5 6
t2.5 4q1 1 1 1.5t1 1.5q2 2 5 2t3 -4z" />
    <glyph glyph-name="period" unicode="." 
d="M-31 47q0 -12 -7.5 -22.5t-27.5 -21.5l-21 -12q-5 -3 -7 -3t-2 3q0 2 1 4l2 9q3 12 3 22q0 19 -16 30l-9 5q-2 2 -2 5t8 8l1 1l39 25q4 3 10 3q5 0 10 -6q8 -11 13 -25t5 -25z" />
    <glyph glyph-name="slash" unicode="/" horiz-adv-x="278" 
d="M-124 0h-39l373 704h39z" />
    <glyph glyph-name="zero" unicode="0" horiz-adv-x="407" 
d="M213 312q0 -54 -23.5 -117.5t-62.5 -116.5q-29 -39 -64 -60t-72 -21q-25 0 -46.5 12t-37 33.5t-24.5 51t-9 63.5q0 59 22.5 119t64.5 113q66 84 134 84q51 0 81 -40q17 -23 27 -56t10 -65zM170 279q0 70 -29 112t-77 42q-30 0 -56 -18.5t-45.5 -50.5t-30.5 -75t-11 -93
q0 -74 25 -114t70 -40q31 0 59 18.5t49 51t33.5 75.5t12.5 92z" />
    <glyph glyph-name="one" unicode="1" horiz-adv-x="241" 
d="M29 444q0 -10 -1 -19.5t-4 -23.5l-1 -5l-81 -387v-1q-3 -8 -8 -8h-38q-6 0 -6 10q0 3 1 6q0 2 0.5 3t0.5 3l71 318q4 18 6.5 36t2.5 28q0 28 -18 28q-7 0 -19 -8q-9 -4 -15 -8t-10 -7q-6 -5 -11 -5q-3 0 -3 4q0 5 9 11l13 10l17 12q18 12 29 20t19 12t13 5.5t11 1.5
q22 0 22 -36z" />
    <glyph glyph-name="two" unicode="2" horiz-adv-x="352" 
d="M157 58q0 -2 -5 -12l-25 -41q-2 -4 -6.5 -5t-16.5 -1q-2 0 -5.5 0.5t-7.5 0.5q-19 1 -33 1t-23 1l-82 6q-8 1 -20 1h-23h-18t-15 -1q-7 -2 -23 -3l-7.5 -1.5t-4.5 -0.5l-6 -1q-2 -1 -6 -1q-8 0 -8 8q0 6 5 10l5 6l173 190q50 54 69.5 87t19.5 60q0 32 -23.5 53t-59.5 21
q-46 0 -79 -33l-12 -12q-2 -2 -4 -2t-2 3q0 2 1 5t6 11q8 13 12 22q9 17 15 24.5t16 14.5q22 15 60 15q53 0 87 -30t34 -76q0 -19 -6 -38t-17 -34q-11 -14 -22.5 -27t-35.5 -39l-174 -180l37 -2l46 -3l48 -3l27 -2q15 -1 22.5 -1h12.5q23 0 36 4q5 1 15 5l12 5q2 1 5 1
q6 0 6 -6z" />
    <glyph glyph-name="three" unicode="3" horiz-adv-x="370" 
d="M174 462q0 -4 -4 -8l-6 -6l-155 -159q8 2 18.5 3t19.5 1q53 0 85 -28.5t32 -74.5q0 -35 -15.5 -69.5t-44.5 -63.5q-28 -29 -60 -44t-64 -15q-43 0 -73 25t-30 62q0 15 6 29t16 23q10 8 19 8q4 0 4 -6v-4q-2 -8 -2 -18q0 -38 24 -61.5t62 -23.5q24 0 44.5 9t35.5 25.5
t23.5 38.5t8.5 48q0 43 -26.5 68.5t-72.5 25.5q-49 0 -81 -23q-5 -3 -6 -3q-6 0 -6 6q0 4 3 7l186 183h-116h-15.5h-9.5t-7.5 -0.5t-7.5 -1.5q-5 0 -9 -1t-9 -2q-6 -2 -8 -4t-3 -2.5t-4 -4.5l-4 -2q-4 0 -4 3l2 6l36 57l27 -2h122q21 0 32.5 1t14.5 1h14q1 0 1.5 0.5
t1.5 0.5q5 0 5 -4z" />
    <glyph glyph-name="four" unicode="4" horiz-adv-x="352" 
d="M163 183q0 -2 -7 -16l-6 -13q-3 -6 -13 -6h-56l-30 -136v-2q-3 -10 -9 -10h-37q-7 0 -7 5q0 2 1 3v1l35 137h-120q-31 0 -42 6t-11 23q0 29 37 91q31 51 67 95.5t78 82.5q41 38 69 38q15 0 24 -10.5t9 -27.5q0 -8 -2 -19l-4 -22l-20 -84l-25 -108l-5 -22h66h1q8 0 8 -5z
M86 414q0 18 -12 18q-17 0 -42.5 -21t-57.5 -60q-69 -86 -69 -137q0 -14 7 -20q5 -4 11 -5t22 -1h6h92l29 131l2 9q6 26 9 49t3 37z" />
    <glyph glyph-name="five" unicode="5" horiz-adv-x="352" 
d="M148 425q-4 -9 -13 -9h-103q-14 0 -21.5 -5.5t-12.5 -19.5q-4 -9 -7.5 -18.5t-5.5 -19.5q-5 -19 -7.5 -33.5t-2.5 -21.5q0 -14 13 -14h71q20 0 30 -2.5t19 -8.5q14 -10 22.5 -27.5t8.5 -38.5q0 -36 -16 -73t-48 -72q-59 -65 -125 -65q-40 0 -64.5 22t-24.5 57q0 24 10 48
q10 25 23 25q10 0 10 -11q0 -5 -1 -8q0 -5 -0.5 -9.5t-0.5 -8.5q0 -30 22.5 -49.5t57.5 -19.5q50 0 80.5 33.5t30.5 87.5q0 55 -41 66q-13 4 -32.5 7t-51.5 1l-14 -1q-17 -2 -23.5 4t-6.5 19q0 8 2 18t7 26l1 5l28 92q5 17 8.5 26t8.5 19q14 23 45 23h137h1q4 0 4 -4v-3z
" />
    <glyph glyph-name="six" unicode="6" horiz-adv-x="389" 
d="M190 242q0 -89 -71 -172q-64 -76 -135 -76q-49 0 -80 38t-31 98q0 44 16 88t53 98q18 27 32.5 46t29.5 35t32.5 31t41.5 34h25q-20 -18 -34.5 -31t-26 -25.5t-21.5 -26t-22 -30.5q-35 -51 -53.5 -106.5t-18.5 -106.5q0 -47 23.5 -74.5t62.5 -27.5q27 0 51 14.5t41.5 39.5
t27.5 59t10 73q0 101 -87 101q-12 0 -26.5 -3t-25.5 -8q-3 -1 -4 -1q-3 0 -3 2q0 5 19 17q21 14 39 20t38 6q45 0 71 -30t26 -82z" />
    <glyph glyph-name="seven" unicode="7" horiz-adv-x="315" 
d="M175 487q0 -2 -0.5 -2.5t-0.5 -1.5l-25 -41q-11 -18 -20 -34t-17 -31t-16 -31t-17 -35q-26 -54 -48 -108q-9 -23 -20 -52t-25 -67q-7 -19 -12.5 -33.5t-8.5 -25.5l-1 -4q-4 -14 -6 -17.5t-7 -3.5h-29q-1 0 -2 1t-1 4q0 4 1.5 10.5t5 17.5t10 27.5t16.5 41.5
q12 30 24.5 58.5t24.5 55.5q18 39 42 88t52 101l14 26h-141h-8q-8 -1 -14.5 -1t-11.5 -1q-13 -3 -27 -17l-7 -7q-2 -3 -5 -3q-4 0 -4 5l2 6h1l28 51l2 3q8 12 12.5 16t12.5 4h5t8 -1q9 -1 32 -3q11 0 19 -0.5t13 -0.5h13.5t20.5 1q16 1 25.5 1.5t13.5 0.5q11 1 26 2.5
t24 3.5l7 1q3 1 6.5 1h5.5q7 0 7 -6z" />
    <glyph glyph-name="eight" unicode="8" horiz-adv-x="352" 
d="M178 373q0 -40 -28.5 -72.5t-71.5 -42.5q14 -8 20.5 -13t14.5 -15q11 -14 18 -33.5t7 -37.5q0 -32 -13.5 -61.5t-35 -52t-50 -36.5t-58.5 -14q-25 0 -46.5 9.5t-38 25.5t-26 37.5t-9.5 45.5q0 45 35 78q17 17 37 29.5t43 22.5q-28 17 -39 34t-11 45q0 29 12 55t32.5 45.5
t47.5 30.5t58 11q46 0 74 -25t28 -66zM130 364q0 35 -23.5 56.5t-60.5 21.5q-35 0 -58 -23.5t-23 -59.5q0 -38 24.5 -62.5t62.5 -24.5q33 0 55.5 26.5t22.5 65.5zM104 123q0 21 -8 40t-22 34.5t-33.5 26t-41.5 13.5q-37 -7 -62 -40t-25 -74q0 -42 26 -68t68 -26t70 26.5
t28 67.5z" />
    <glyph glyph-name="nine" unicode="9" horiz-adv-x="389" 
d="M203 350q0 -45 -14.5 -88t-46.5 -92q-17 -28 -35.5 -52t-38.5 -45q-42 -45 -63.5 -64t-29.5 -19q-10 0 -10 8v3q1 1 7 6.5t26 24.5q57 52 100 128q51 88 51 167q0 56 -29 88q-14 15 -32.5 24t-35.5 9q-23 0 -43 -15t-36 -40t-25 -58.5t-9 -69.5q0 -50 20.5 -78t57.5 -28
q14 0 28.5 3.5t24.5 10.5l10 7q5 4 8 4q2 0 3 -1t1 -2q0 -3 -7 -11q-16 -19 -45 -31.5t-56 -12.5q-42 0 -69.5 32t-27.5 80q0 41 19.5 85.5t54.5 85.5q32 37 67 57.5t66 20.5q23 0 43 -10.5t34.5 -29t23 -43.5t8.5 -54z" />
    <glyph glyph-name="colon" unicode=":" 
d="M15 296q0 -13 -7.5 -22.5t-27.5 -21.5l-20 -12q-5 -3 -7 -3q-3 0 -3 3l3 12q2 8 2.5 12t0.5 9q0 23 -16 32l-8 5q-3 1 -3 5q0 3 8 8l2 1l38 24q5 4 10 4q6 0 11 -6q8 -11 12.5 -25t4.5 -25zM-31 47q0 -12 -7.5 -22.5t-27.5 -21.5l-21 -12q-5 -3 -7 -3t-2 3v1l3 12v3l1 2
q2 10 2 15q0 20 -16 32l-9 5q-2 2 -2 5t8 8l1 1l39 25q4 3 10 3q5 0 10 -6q8 -11 13 -25t5 -25z" />
    <glyph glyph-name="semicolon" unicode=";" 
d="M-9 211q0 -15 -35 -35q-7 -5 -11 -7t-6 -4q-3 -3 -6 -3q-1 0 -2 1v1v1q5 17 5 27q0 26 -24 32q-3 0 -3 3q0 2 1 2l45 31q0 1 1 1q2 2 3 2.5t2 1.5q4 3 7 3q6 0 10 -10q2 -5 3.5 -9t3.5 -9q3 -9 4.5 -17t1.5 -12zM-24 26q0 -41 -24 -78q-14 -20 -28 -34q-33 -30 -44 -30
q-1 0 -3 2q0 1 -0.5 1.5t-0.5 1.5q0 2 2.5 5t11.5 13q11 14 14.5 19t8.5 15q11 24 11 55q0 26 -8 36q-3 5 -9.5 8t-20.5 5q-2 0 -4 0.5t-5 0.5v7l62 45q3 3 5 3q4 0 13 -14q11 -18 15 -31t4 -30z" />
    <glyph glyph-name="semicolon" unicode="&#x37e;" 
d="M-9 211q0 -15 -35 -35q-7 -5 -11 -7t-6 -4q-3 -3 -6 -3q-1 0 -2 1v1v1q5 17 5 27q0 26 -24 32q-3 0 -3 3q0 2 1 2l45 31q0 1 1 1q2 2 3 2.5t2 1.5q4 3 7 3q6 0 10 -10q2 -5 3.5 -9t3.5 -9q3 -9 4.5 -17t1.5 -12zM-24 26q0 -41 -24 -78q-14 -20 -28 -34q-33 -30 -44 -30
q-1 0 -3 2q0 1 -0.5 1.5t-0.5 1.5q0 2 2.5 5t11.5 13q11 14 14.5 19t8.5 15q11 24 11 55q0 26 -8 36q-3 5 -9.5 8t-20.5 5q-2 0 -4 0.5t-5 0.5v7l62 45q3 3 5 3q4 0 13 -14q11 -18 15 -31t4 -30z" />
    <glyph glyph-name="less" unicode="&#x3c;" horiz-adv-x="593" 
d="M-107 225v30l487 205v-31l-452 -189l452 -187v-31z" />
    <glyph glyph-name="equal" unicode="=" horiz-adv-x="593" 
d="M-107 319v28h487v-28h-487zM-107 135v28h487v-28h-487z" />
    <glyph glyph-name="greater" unicode="&#x3e;" horiz-adv-x="593" 
d="M-107 22v31l452 187l-452 189v31l487 -205v-30z" />
    <glyph glyph-name="question" unicode="?" horiz-adv-x="463" 
d="M241 627q0 -17 -7 -28q-10 -20 -28.5 -42.5t-38.5 -37.5l-48 -36q-50 -38 -72 -73t-22 -73q0 -42 24 -68t62 -26q32 0 59 20t35 51q1 5 6 5t5 -5q0 -8 -6 -23t-14 -26q-20 -29 -51.5 -46.5t-65.5 -17.5q-22 0 -42 8.5t-35 23.5t-23.5 35t-8.5 42q0 23 10 49t28 50
q9 12 16.5 20.5t18 17.5t26 20t41.5 28q42 28 58.5 52t16.5 53q0 25 -12 40.5t-32 15.5q-11 0 -23 -6t-27 -16l-12 -8q-3 -3 -5 -3t-2 1q-1 0 -1 2q0 6 18 24q23 23 41.5 32.5t38.5 9.5q31 0 51.5 -18.5t20.5 -46.5zM70 46q0 -8 -3 -14t-13 -14q-15 -14 -28 -21t-21 -7
q-3 0 -3 3q0 2 0.5 3.5t2.5 5.5q4 9 4 19q0 23 -19 34q-4 2 -4 4q0 5 9 11l2 1l40 26l1 1q1 0 2 1t3 2q4 0 11 -9t11.5 -22t4.5 -24z" />
    <glyph glyph-name="at" unicode="@" horiz-adv-x="770" 
d="M743 422q0 -29 -6 -58.5t-17 -57.5t-27 -53.5t-35 -46.5q-24 -25 -50.5 -38.5t-52.5 -13.5q-38 0 -60 24t-22 68q-40 -92 -117 -92q-26 0 -48.5 10.5t-38.5 29.5t-25 45t-9 56q0 44 19 88.5t54 80.5q28 29 60 45t64 16q35 0 60 -22q12 -11 18 -22.5t11 -31.5l19 65h29
l-4 -14l-31 -104q-12 -40 -19 -66t-11 -43t-5 -28t-1 -21q0 -29 16.5 -46t43.5 -17q47 0 88 47q36 41 56 93.5t20 106.5q0 57 -21.5 105t-60.5 82.5t-93 54t-119 19.5q-77 0 -144.5 -27.5t-117.5 -75.5t-79 -112.5t-29 -137.5q0 -68 26 -126t72 -100.5t108.5 -66.5
t136.5 -24q141 0 266 89l9 -16q-130 -94 -278 -94q-80 0 -148 25.5t-117.5 71t-77.5 107.5t-28 135q0 78 32.5 148t93.5 124q115 101 271 101q70 0 129 -20.5t101 -58t65.5 -89.5t23.5 -114zM506 427q0 35 -20.5 56t-52.5 21q-26 0 -53 -15t-50 -43q-29 -35 -46 -78t-17 -85
q0 -49 24.5 -78.5t66.5 -29.5q61 0 97 76q4 8 7 16t6.5 18t8 24.5t11.5 36.5q10 33 14 50t4 31z" />
    <glyph glyph-name="A" unicode="A" horiz-adv-x="824" 
d="M657 693q0 -10 -7 -10h-38q-9 -7 -12 -8q-19 -15 -37 -41t-34 -61q-7 -15 -13.5 -32t-12.5 -36q-4 -12 -7.5 -23.5t-7.5 -25t-9 -31.5t-12 -45h136h1q8 0 8 -6q0 -2 -2 -5t-9 -10q-5 -5 -8 -6t-11 -1h-123l-11 -46l-4 -17q-11 -45 -17 -82.5t-6 -65.5q0 -96 80 -96
q54 0 86 42t37 120q1 7 8 7q9 0 9 -7q0 -42 -13 -78.5t-35.5 -63.5t-53 -42.5t-65.5 -15.5q-49 0 -76.5 33.5t-27.5 93.5q0 21 3 45.5t8 50.5q3 15 5.5 25.5t9.5 36.5l16 60h-140l-51 -159q-25 -80 -71 -129q-27 -29 -66 -46.5t-79 -17.5q-29 0 -53.5 10t-42 27.5t-27 42.5
t-9.5 55q0 60 42 116q24 33 57.5 54.5t59.5 21.5q6 0 6 -4q0 -5 -14 -9q-26 -6 -54 -37q-49 -55 -49 -131q0 -60 28 -94.5t78 -34.5q29 0 54.5 13.5t43.5 37.5q10 13 16.5 23.5t12.5 23t11.5 29.5t12.5 42l47 164h-107q-6 0 -6 3q0 7 14 21q8 8 15 8h95l10 34q16 54 32 94
t33.5 69.5t37 49.5t41.5 34q31 19 70.5 27.5t92.5 8.5h94h1q9 0 9 -6zM553 683q-81 0 -130 -34q-40 -28 -68 -81q-13 -25 -21 -42t-15.5 -35.5t-15.5 -43.5t-21 -65h138q19 69 39.5 124.5t43.5 94.5q13 23 35 45q11 11 20.5 18t28.5 19h-34z" />
    <glyph glyph-name="B" unicode="B" horiz-adv-x="642" 
d="M459 522q0 -37 -14 -70.5t-38 -58.5t-56 -39.5t-68 -14.5q-29 0 -60 11q-8 3 -8 7q0 1 2 3l1 1h2h1l3 -1l14 -3l22 -4t19 -2q27 0 50.5 12.5t41 33.5t27.5 49.5t10 61.5q0 73 -51.5 116t-140.5 43q-93 0 -148 -56q-36 -38 -57 -95t-21 -117q0 -20 4 -44t10 -41l2 -4
q0 -1 0.5 -2t0.5 -2q0 -5 -5 -5t-14 18q-3 7 -5.5 13t-4.5 11q-7 18 -11 40t-4 42q0 54 24 103t64.5 86.5t93.5 60t110 22.5q44 0 81.5 -13.5t64.5 -36.5t42.5 -55.5t15.5 -69.5zM452 215q0 -45 -25 -84.5t-68 -69t-100.5 -46.5t-121.5 -17q-18 0 -37 1t-40 4l-49 7l-52 7
q-14 2 -21 2.5t-16 0.5q-16 0 -35 -3.5t-28 -8.5q-2 -2 -5 -2q-4 0 -4 6q0 4 3.5 8t15.5 15l19 17q9 8 18.5 10.5t29.5 2.5h10t10 -1h3l43 -5h8h7q5 2 18 14q27 27 42 51t31 74q17 54 31.5 113.5t26.5 118.5q5 25 9 42.5t8 30t7.5 21t8.5 15.5q8 10 24 25q27 24 43 32
q12 4 17 9q3 3 5 3l2 -2q0 -1 0.5 -1.5t0.5 -1.5q0 -2 -1 -3t-2 -3l-16 -17q-14 -16 -30 -57.5t-29 -99.5l-26 -117q-12 -53 -33.5 -103t-46.5 -81q-8 -9 -15 -16.5t-15.5 -14.5t-18.5 -15t-25 -18v-2l17.5 -3.5l15 -3t17.5 -3t26 -4.5q18 -3 31.5 -5t25 -3t21.5 -1.5
t22 -0.5q93 0 133 40q11 12 21.5 30t18.5 38t12.5 40.5t4.5 38.5q0 21 -9 38.5t-24.5 31t-36 21t-44.5 7.5q-28 0 -47 -8q-6 -2 -11.5 -5t-20.5 -12q-4 -3 -8 -3t-4 2q0 4 15 13q9 6 16.5 10t15.5 7q30 12 73 12q65 0 101.5 -31t36.5 -87z" />
    <glyph glyph-name="C" unicode="C" horiz-adv-x="549" 
d="M419 607q0 -42 -20 -83t-58 -78q-44 -43 -98 -68q-18 -9 -40 -16.5t-44 -13t-43.5 -8.5t-39.5 -3h-18q-12 0 -17 0.5t-14 2.5q-5 -10 -8.5 -17.5t-6.5 -15t-6 -16t-6 -20.5q-10 -33 -14 -60t-4 -53q0 -69 34 -108.5t92 -39.5q32 0 62 14.5t55 40.5q9 9 16.5 19t15.5 21
q31 46 48 98q2 5 6.5 21t12.5 43q2 8 6 8q8 0 8 -19q0 -35 -19.5 -82.5t-49.5 -85.5q-41 -52 -89 -79.5t-99 -27.5q-68 0 -106.5 44.5t-38.5 122.5q0 26 5 56t13 60q3 13 6 23t7 20t8.5 20.5t11.5 24.5q-87 47 -87 126q0 32 15 62t39.5 52.5t57 36t68.5 13.5q10 0 10 -5
q0 -3 -1.5 -4t-7.5 -2q-18 -1 -38.5 -7.5t-37.5 -16.5q-70 -43 -70 -123q0 -24 5.5 -42t19.5 -38q10 -14 16 -19.5t19 -12.5l12 22q25 47 48 80.5t53 68.5q12 14 25.5 29t28.5 29q51 49 92 72t80 23t62 -23.5t23 -65.5zM382 589q0 32 -21.5 52t-55.5 20q-31 0 -58.5 -14
t-62.5 -49q-17 -17 -32 -34t-27 -34q-12 -16 -21.5 -30.5t-19 -32.5t-21.5 -43.5t-29 -62.5q3 -1 5.5 -1t4.5 -1q10 -2 23 -2q8 -1 13.5 -1h9.5q31 0 68.5 8t63.5 20q32 15 61 39t51 52t35 58t13 56z" />
    <glyph glyph-name="D" unicode="D" horiz-adv-x="824" 
d="M634 395q0 -84 -31.5 -156t-92.5 -129t-134 -83.5t-168 -26.5q-17 0 -42 1t-54 3q-92 8 -112 9q-22 1 -41.5 1.5t-33.5 0.5q-28 0 -50.5 -3t-42.5 -11q-14 -5 -19 -5q-3 0 -3 4q0 1 2 5l44 42q7 6 9 7.5t7 3.5t9 2.5t12 0.5q10 0 15 -1l46 -1q34 -1 52 -1.5t22 -0.5
q38 0 67 23t54 72q10 20 18 38t15 41t15 54t19 78l9 36t7 29q21 76 69 116q13 11 28.5 21.5t30.5 18.5t27.5 13t20.5 5q5 0 5 -4q0 -5 -9 -8q-8 -1 -26 -11q-41 -22 -62 -64q-12 -24 -21 -51q-3 -8 -5.5 -17t-5.5 -21.5t-7.5 -29.5t-10.5 -42l-16 -62q-8 -30 -14 -51
t-11.5 -36.5t-12 -27.5t-14.5 -24q-21 -32 -55 -58t-76 -43q27 -2 47 -4t34 -4q29 -3 48 -5t33 -2.5t25.5 -1t26.5 -0.5q71 0 119 20t87 67q46 54 70 123.5t24 148.5q0 69 -18.5 119.5t-57.5 90.5q-74 77 -191 77q-130 0 -223 -96q-94 -97 -94 -245q0 -23 3 -41l5 -31
q3 -23 8 -31q2 -6 2 -7t-2 -3q-1 0 -1.5 -0.5t-1.5 -0.5q-6 0 -14 20q-5 11 -8 21t-5 18q-6 22 -10 48.5t-4 49.5q0 126 99 215q53 48 118.5 72.5t138.5 24.5q70 0 127.5 -21.5t97.5 -60.5t62 -94.5t22 -123.5z" />
    <glyph glyph-name="E" unicode="E" horiz-adv-x="500" 
d="M386 621q0 -42 -21.5 -86.5t-56.5 -73.5q-21 -18 -50 -36q-14 -8 -19 -8q-3 0 -3 2t3 4l22 16q19 14 37 33t29 38q23 40 23 80q0 69 -68 69q-58 0 -111 -49q-22 -21 -46 -51q-18 -23 -30.5 -42.5t-23.5 -41t-20.5 -47.5t-21.5 -62h266q4 0 4 -4q0 -5 -11 -13
q-10 -8 -18.5 -10.5t-28.5 -2.5h-4h-218q-8 -20 -9 -30q-9 -29 -13.5 -66t-4.5 -67q0 -79 29.5 -123t83.5 -44q30 0 59.5 14.5t54.5 41.5q32 35 54 80.5t24 82.5l3 44q0 6 6 6q5 0 5 -9v-3v-8q0 -2 0.5 -3.5t0.5 -3.5q0 -54 -19 -105t-50 -90.5t-71 -63.5t-83 -24
q-64 0 -102 52t-38 139q0 22 2.5 52.5t7.5 59.5q4 22 6.5 35t9.5 35h-24q-24 0 -39 -2t-26 -7h-3q-2 0 -2 1q-1 1 -1 3q0 3 2 5l25 31q3 4 6 4q1 0 2 -1q5 -1 11 -1.5t13 -0.5h3h43q3 9 5.5 15.5t4.5 11.5q47 117 165 218q35 31 71 53q23 15 42 20.5t39 5.5q35 0 54.5 -19
t19.5 -54z" />
    <glyph glyph-name="F" unicode="F" horiz-adv-x="593" 
d="M533 699q0 -1 -0.5 -2t-0.5 -2l-7 -20q-2 -5 -3.5 -9.5t-3.5 -7.5q-2 -6 -5 -8t-11 -2h-3h-23q-2 0 -14 0.5t-33 0.5l-65 1q-8 0 -20 1t-26 2q-17 2 -29.5 2h-20.5q-32 0 -61.5 -7t-51.5 -20q-35 -20 -63 -58.5t-39 -82.5l-9 -36q-4 -13 -8 -13q-6 0 -6 16q0 21 6.5 44.5
t17.5 47t27 46t34 40.5q34 34 74 48.5t98 14.5q13 0 25 -0.5t39 -2.5q40 -3 64 -3q16 0 32.5 1t37.5 3q12 2 19.5 3t15.5 4l4 1l3 1q1 0 1.5 0.5t1.5 0.5q3 0 3 -4zM472 390q0 -5 -1.5 -9t-6.5 -13q-2 -5 -4.5 -6t-9.5 -1h-98q-9 -40 -16 -67.5t-14 -49t-15 -40t-19 -39.5
q-19 -37 -47 -67.5t-62 -52.5t-71.5 -34t-74.5 -12q-33 0 -65 13t-55 36t-34 50.5t-11 65.5q0 34 9 60q6 18 21 41t32 43q41 45 46 45t5 -4q0 -3 -9 -13q-13 -14 -25.5 -30t-18.5 -27q-19 -35 -19 -86q0 -76 42.5 -120t115.5 -44q52 0 88.5 18.5t64.5 58.5q27 40 43 89
q6 18 10 33t8.5 33t9.5 42t12 60h-104h-14q-1 0 -2 1t-1 2v3l4 11q4 11 8 14.5t11 3.5h105l5 24q6 29 10.5 50t6.5 35l13 72q4 25 11 28l25 14q29 17 35 17l1 -1q1 -1 1 -2v-2q-1 0 -1 -1q-1 -1 -4 -3q-5 -6 -9 -18.5t-11 -49.5q-4 -20 -7 -36t-6 -30l-18 -82l-3 -17h105h1
q7 0 7 -6z" />
    <glyph glyph-name="G" unicode="G" horiz-adv-x="500" 
d="M340 322q0 -6 -0.5 -11t-2.5 -13t-6 -21t-10 -35q-18 -58 -33 -101.5t-31.5 -78t-34.5 -64t-42 -59.5q-49 -63 -102.5 -96.5t-103.5 -33.5q-19 0 -36.5 7t-31 18t-21.5 26t-8 31q0 12 4.5 28.5t11.5 31.5q8 17 16.5 28t14.5 11q5 0 5 -8q0 -4 -1 -6l-3 -6q-7 -16 -7 -37
q0 -37 26.5 -62.5t64.5 -25.5q19 0 40 9t41.5 24.5t38 37.5t31.5 48q13 25 27 57t28 68.5t27.5 75.5t25.5 78q12 40 12 61q0 25 -11 25q-5 0 -8.5 -6t-13.5 -26q-21 -44 -53 -89t-63 -78q-36 -38 -81.5 -61.5t-83.5 -23.5q-22 0 -41.5 12t-34 32.5t-23 48t-8.5 58.5
q0 39 8 82.5t22.5 87t35.5 86t48 80.5q57 82 129 126.5t150 44.5q42 0 61.5 -21t19.5 -66q0 -32 -6 -55.5t-15 -23.5q-7 0 -7 8v4q2 8 2 12.5v9.5q0 42 -30.5 70.5t-75.5 28.5q-39 0 -80 -22.5t-70 -60.5q-53 -68 -94 -182q-18 -52 -27 -96.5t-9 -85.5q0 -63 23 -95.5
t66 -32.5q51 0 99 39.5t93 117.5q5 10 11.5 21.5t13.5 25.5q9 17 12.5 26t3.5 14q0 3 -1 5l-4 12q-2 8 -3 17t-1 17q0 35 15 60.5t36 25.5t21 -26q0 -7 -4 -22q-3 -11 -4.5 -22t-2.5 -19q45 -16 45 -65z" />
    <glyph glyph-name="H" unicode="H" horiz-adv-x="870" 
d="M703 594q0 -72 -72 -164q-40 -50 -85 -82q-14 -10 -26 -17t-25.5 -12t-30 -9.5t-38.5 -8.5q-6 -23 -9.5 -59.5t-3.5 -74.5t5 -61.5t18 -41.5q23 -32 63 -32q27 0 53.5 18t47 49t34 71t15.5 84q1 9 1.5 11t3.5 2q4 0 5.5 -3t1.5 -12v-1q0 -5 -0.5 -10t-1.5 -12
q-11 -61 -28 -100q-18 -40 -50 -76q-56 -66 -110 -66q-48 0 -76.5 44.5t-28.5 117.5q0 13 1.5 33.5t3.5 42.5q3 25 5 38t7 36h-71q-5 -21 -9.5 -37t-9 -29t-9.5 -26t-12 -28q-18 -41 -42 -73q-40 -55 -96.5 -86.5t-114.5 -31.5q-28 0 -52.5 11.5t-43 31t-29.5 45.5t-11 55
q0 39 14.5 76.5t39.5 64.5q13 14 25 23.5t17 9.5q3 0 3 -3t-5 -6q-14 -10 -25.5 -24t-20 -31t-13.5 -35t-5 -36q0 -31 11.5 -58.5t31.5 -47.5t47 -32t58 -12q42 0 79 20.5t57 55.5q22 37 38 89q4 14 7.5 26t7 24.5t7 26.5l8.5 34h-123q-6 0 -6 4q0 2 1 2l32 28q7 6 24 6h3
h78l12 42q11 39 17.5 63t11 39.5t8 27t9.5 26.5q5 11 11 23t14 23q11 15 19 23.5t25 21.5q-38 -1 -66.5 -2t-50 -2.5t-37 -3.5t-28.5 -5q-77 -17 -118 -111q-11 -26 -15 -51q-1 0 -1 -1q0 -4 -6 -4q-10 0 -10 5v2l4 18q9 41 29.5 79t48.5 64q20 20 46.5 30t55.5 10
q11 0 34.5 -1.5t59.5 -5.5q22 -3 37 -3h14t26 2l8 1v-7q-17 -14 -24.5 -22.5t-15.5 -25.5q-14 -30 -24 -63q-8 -26 -19 -73t-25 -99l-6 -23h76q4 11 6.5 18.5t4.5 12.5q14 37 31 72t33 62q41 69 89.5 111t89.5 42q24 0 39.5 -16t15.5 -41zM662 557q0 32 -10 46t-33 14
q-58 0 -107 -86q-10 -18 -18.5 -35.5t-16.5 -36.5q-7 -16 -12 -29.5t-9.5 -27t-9.5 -29.5t-11 -38q27 1 49 5.5t41 13.5t36.5 23t36.5 34q64 70 64 146z" />
    <glyph glyph-name="I" unicode="I" horiz-adv-x="556" 
d="M430 320q0 -1 -5 -10l-12 -18q-5 -10 -13 -10h-61q-5 -10 -8.5 -17.5t-5.5 -12.5q-18 -36 -39 -70t-43 -61q-48 -61 -97.5 -89.5t-108.5 -28.5q-39 0 -73 12.5t-59 34.5t-39 51.5t-14 63.5q0 35 14 69t40 61l28 29q8 8 13 10q3 0 3 -2q1 -1 1 -3q0 -3 -4 -7
q-58 -57 -58 -125q0 -34 14.5 -63.5t40.5 -51.5t60.5 -34.5t75.5 -12.5q40 0 66.5 11.5t47.5 39.5q17 22 32 48t29 56q5 11 9.5 20.5t9 20t10 23.5t12.5 31h-107h-1q-5 0 -5 3q0 2 2 4l27 27q4 5 6.5 5.5t12.5 0.5h2h76q7 21 12.5 36.5t10 30.5t9 32t10.5 40
q11 42 15.5 69.5t4.5 50.5q0 38 -14 54t-46 16q-49 0 -93 -43q-14 -14 -26.5 -30.5t-22.5 -35.5q-8 -14 -13.5 -26.5t-10 -27.5t-8.5 -33.5t-9 -45.5q-2 -12 -3 -15.5t-2 -5.5q-1 -1 -4 -1q-4 0 -4 4q0 10 4 32.5t9 42.5q12 47 32.5 84t52.5 74q34 38 64.5 54.5t64.5 16.5
q40 0 63 -23t23 -63q0 -20 -4 -43q-4 -24 -9 -45.5t-12 -45.5t-15.5 -51.5t-20.5 -61.5l-14 -41h69h1q7 0 7 -4z" />
    <glyph glyph-name="J" unicode="J" horiz-adv-x="611" 
d="M499 365q0 -2 -1 -3l-8 -16q-6 -9 -6 -11q-2 -2 -5 -2.5t-12 -0.5h-3h-55q-18 -66 -28.5 -105t-19 -65.5t-17 -46.5t-20.5 -47q-21 -47 -53 -85.5t-70.5 -67t-81.5 -44t-86 -15.5q-35 0 -65 13.5t-52 37t-35 55t-13 67.5q0 49 25 93q12 20 25 34t22.5 22.5t14.5 8.5
q2 -1 3 -2q2 0 3 -2q0 -2 -2 -4.5t-9 -10.5q-2 -2 -3 -4q-14 -15 -18 -20.5t-9 -14.5q-6 -13 -9.5 -26.5t-3.5 -29.5q0 -37 13.5 -73t37.5 -60q45 -45 118 -45q54 0 98.5 25.5t72.5 71.5q31 52 54 119q11 33 19 58t14.5 49.5t12 51.5t12.5 63h-100h-1l-6 1q-7 0 -7 3
q0 2 5 9l18 19l5 5l4 2h93q4 16 7.5 28.5t6.5 25.5t6.5 29t8.5 40q9 41 12 66t3 46q0 38 -15 55.5t-48 17.5q-31 0 -61 -16.5t-54 -46.5q-36 -44 -60 -101q-10 -23 -18 -48.5t-14 -50t-9.5 -47.5t-3.5 -41v-13q0 -7 -5 -7q-4 0 -5 7l-4 23q-2 7 -2 14.5v15.5q0 40 9 81.5
t25 74.5q19 39 48 73.5t62.5 60t69.5 40.5t69 15q77 0 77 -81q0 -19 -3 -42t-11 -57q-5 -23 -9 -41t-9 -36t-10.5 -38.5t-13.5 -48.5h76q4 0 4 -5z" />
    <glyph glyph-name="K" unicode="K" horiz-adv-x="870" 
d="M746 688q0 -5 -12 -21q-5 -6 -7 -11q-5 -9 -10 -9q-3 0 -6 4q-8 18 -32 18q-19 0 -31 -12q-8 -8 -15 -21t-21 -46q-23 -54 -41.5 -90t-41.5 -66q-25 -32 -52 -49q-10 -7 -18.5 -11.5t-19.5 -8.5t-27 -9t-40 -12q19 -5 29 -10t20 -15q16 -16 28 -41q5 -11 9 -21t7.5 -22.5
t6.5 -29l7 -38.5t6.5 -37t4.5 -25.5t4.5 -18.5t5.5 -16q14 -38 48 -38q37 0 73 46q17 23 31.5 49.5t22.5 51.5q3 10 4.5 12t3.5 2q3 0 3 -6v-6q-3 -15 -12 -38t-20 -41q-29 -50 -64 -78t-68 -28q-27 0 -48 21q-15 15 -23 35.5t-15 60.5q-2 13 -3.5 24t-3.5 20
q-5 25 -8.5 43.5t-7 32t-7 24.5t-8.5 22q-5 13 -13 23t-19 19q-10 8 -19.5 11.5t-26.5 5.5q-15 -49 -27.5 -84t-24.5 -61t-25.5 -47t-30.5 -43q-37 -47 -91 -76t-104 -29q-29 0 -54.5 11.5t-44.5 32t-30 47.5t-11 58q0 36 15 72.5t42 65.5q29 32 40 32q1 0 2 -1t1 -2
t-1.5 -3t-6.5 -7q-15 -14 -23.5 -24t-13.5 -21q-15 -27 -15 -70q0 -33 11 -61.5t30.5 -50t46 -33.5t56.5 -12q73 0 119 73q15 24 26 46t21.5 52t22.5 71t28 103q9 36 17 63t15 49t14.5 40.5t16.5 38.5q7 15 14 27t15 22q10 14 20 23.5t33 28.5l-31 -1q-52 -2 -92 -5.5
t-60 -8.5q-18 -5 -36 -13.5t-37 -22.5q-18 -14 -31 -27t-23.5 -29.5t-19 -38t-17.5 -51.5v-1q-2 -3 -3 -3q-4 0 -4 3q1 17 10 48.5t21 59.5q26 63 70.5 91.5t111.5 28.5h21t24 -1q25 -1 47 -1.5t33 -0.5q9 0 13.5 0.5t16.5 1.5q10 1 18 1.5t13 0.5q11 0 11 -4q0 -3 -6 -7
q-9 -6 -19 -14.5t-16 -15.5q-11 -13 -20 -29t-17 -35q-9 -22 -17 -43.5t-15.5 -46t-16.5 -54.5t-20 -68l-8 -27q13 0 22.5 1t18 3.5t18 6t21.5 9.5q17 8 30.5 17t24.5 19q9 9 17.5 20t17.5 25.5t19 33t22 44.5q11 23 19 39t14.5 27.5t13.5 20.5t15 18q26 28 58 44t61 16
q17 0 23.5 -2.5t6.5 -9.5z" />
    <glyph glyph-name="L" unicode="L" horiz-adv-x="630" 
d="M502 595q0 -87 -73 -166q-40 -43 -82 -65q-16 -8 -29 -13.5t-27.5 -9t-31 -5.5t-39.5 -3l-21 -92q-3 -12 -8 -24.5t-12 -22.5q-11 -17 -31 -39t-37 -38q15 -8 26.5 -13.5t22 -10.5t22 -9.5t26.5 -10.5q39 -15 65.5 -21.5t50.5 -6.5q25 0 44 7q22 9 42.5 30t31.5 47l14 32
q3 5 6 5q6 0 6 -12q0 -27 -34 -75q-29 -42 -63.5 -61.5t-79.5 -19.5q-22 0 -41 4q-14 3 -27.5 7.5t-30.5 11.5t-38 16.5t-48 22.5l-31 15q-45 -39 -87.5 -59.5t-79.5 -20.5q-38 0 -62 20t-24 51q0 19 8.5 34.5t29.5 33.5q38 34 76 34q22 0 55 -9t83 -27l19 -7q17 24 30.5 56
t21.5 63l18 76l4 13q-35 3 -49.5 4t-28.5 1q-8 0 -15.5 -0.5t-14.5 -1.5q-11 -2 -17 -4t-18 -8q-1 -1 -3 -1q-2 -1 -3 -2h-1h-1q-2 2 -2 3q0 2 0.5 2.5t0.5 1.5l19 20l21 23q6 7 37 7q9 0 19.5 -0.5t23.5 -1.5q7 0 17 -0.5t24 -1.5q2 12 4 21t4 15q27 121 57 171
q14 23 36 44.5t47 38t51 26t47 9.5q36 0 58 -28.5t22 -75.5zM454 577q0 41 -19.5 63.5t-53.5 22.5q-62 0 -91 -69q-7 -17 -13.5 -34.5t-11.5 -37.5q-5 -17 -8.5 -32t-7.5 -31.5t-8.5 -37t-10.5 -47.5h12q30 0 51.5 3.5t46.5 11.5q35 12 58 37q12 13 22.5 30.5t18 37.5
t11.5 41.5t4 41.5zM53 85q-45 20 -85 30.5t-68 10.5q-22 0 -35.5 -10.5t-13.5 -26.5q0 -20 25 -34.5t62 -14.5q29 0 61.5 12.5t53.5 32.5z" />
    <glyph glyph-name="M" unicode="M" horiz-adv-x="1000" 
d="M930 697q-2 -8 -6 -18l-6 -12q-5 -9 -8.5 -11.5t-13.5 -2.5h-13q-8 -1 -14.5 -1h-11.5q-29 -2 -35 -4q-17 -8 -45.5 -48.5t-58.5 -100.5q-20 -40 -37 -85.5t-29 -92t-19 -90t-7 -79.5q0 -54 17.5 -83t51.5 -29q54 0 102 64q23 31 37.5 61.5t25.5 73.5q1 6 5 6t4 -6
q0 -9 -2.5 -22t-7 -28t-11 -30.5t-13.5 -29.5q-32 -65 -75.5 -101.5t-87.5 -36.5q-47 0 -73 41.5t-26 115.5q0 123 60 251q17 39 50 95q13 21 22 36t18 28t18.5 25.5t23.5 29.5q-17 -8 -28.5 -14.5t-23 -15t-24 -20.5t-31.5 -31q-48 -49 -84 -97.5t-71 -111.5
q-20 -35 -40.5 -77t-35.5 -77q-14 -32 -24 -62t-19 -62q-5 -18 -9 -31.5t-5 -15.5q-2 -3 -6 -3q-5 0 -7 2t-2 10q0 2 0.5 4t0.5 5q6 79 6 139q0 20 -0.5 38.5t-2.5 41.5l-20 308q-4 -15 -6.5 -26.5t-4.5 -19.5q-56 -216 -94 -286q-11 -20 -27.5 -43.5t-36.5 -47t-41 -45
t-40 -37.5q-26 -22 -60.5 -34.5t-66.5 -12.5q-35 0 -65 12t-52 33t-35 49.5t-13 61.5q0 34 15.5 69.5t38.5 57.5q13 11 27 21t19 10q3 0 3 -3q0 -1 -3 -4q-1 -1 -1 -1.5t-2 -2.5l-12 -15q-15 -19 -24.5 -47.5t-9.5 -54.5q0 -30 11.5 -55.5t31 -44t46 -29.5t56.5 -11
q40 0 80 20q38 19 64.5 51t51.5 87q31 71 54 142q11 37 24 84t27 102q4 17 8 29.5t7.5 22.5t7.5 18.5t9 17.5q9 16 20 30.5t22 23.5q3 1 3 4q0 4 -7 4q-4 0 -8.5 -0.5t-11.5 -1.5q-19 -2 -40 -4t-47 -3q-35 -2 -59 -4t-42.5 -6t-33 -10t-28.5 -15q-32 -22 -53 -51
q-16 -23 -27.5 -53.5t-16.5 -59.5q-1 -9 -7 -9q-2 0 -3 2.5t-1 10.5q0 23 8 57t20 61q18 40 45 68q24 24 55 34.5t81 10.5q27 0 59 -3l52 -5q8 -1 14.5 -1.5t14.5 -0.5q16 0 32.5 1.5t25.5 3.5q10 2 13 2q6 0 6 -7q0 -2 -2 -4q-20 -19 -20 -86v-45.5t3 -49.5l1 -8l20 -316
l12 24t8 17q22 45 34 71t16 33q14 26 29 52.5t32 52.5q37 57 73.5 98t81.5 76q28 21 57.5 39t58 30.5t55 19.5t47.5 7q12 0 12 -3v-1v0z" />
    <glyph glyph-name="N" unicode="N" horiz-adv-x="815" 
d="M658 679q0 -5 -1 -12.5t-2 -14.5q-2 -7 -2.5 -13t-2.5 -11q-2 -9 -7 -27t-11 -38l-36 -125l-54 -186l-49 -168l-9 -32q11 -12 25.5 -19.5t31.5 -7.5q11 0 21.5 4t24.5 12q13 7 20 12t21 17q4 3 7 3q1 0 2 -1t1 -3q0 -8 -22 -25q-26 -20 -42 -30q-17 -11 -38 -17.5
t-40 -6.5q-21 0 -37 7t-29.5 25t-25.5 48.5t-25 76.5l-24 83l-27 97l-32 111q-7 24 -11.5 39t-8 25.5t-7 20.5t-8.5 24l-3 -18q-24 -138 -55 -257q-19 -76 -47 -135q-15 -31 -37.5 -57.5t-48.5 -46t-54 -31t-54 -11.5t-49.5 12t-41 32.5t-27.5 47.5t-10 58q0 15 1.5 29
t6.5 27q7 22 20.5 45t27.5 36l30 29q7 7 12 9q2 0 2 -1l2 -2q0 -3 -7 -10q-11 -10 -22.5 -25t-17.5 -27q-8 -17 -13.5 -39.5t-5.5 -45.5q0 -27 9.5 -50t26 -40t39 -26.5t49.5 -9.5q37 0 70 17.5t49 44.5q18 29 37 90q15 46 25 79.5t15 55.5l40 178q7 29 10 49.5t3 32.5
t-5.5 30.5t-13.5 29.5q-11 17 -30 17q-35 0 -70 -47q-31 -42 -47.5 -93t-16.5 -106v-11t1 -12l1.5 -12t0.5 -6q0 -3 -4 -3t-5 7q-2 7 -3 12t-1 9q-1 6 -3 22q0 10 -0.5 17.5t-0.5 12.5q0 29 5.5 58.5t16.5 52.5q12 28 31.5 52t43.5 42t49.5 28.5t49.5 10.5q21 0 33 -21
q7 -13 13.5 -28t11.5 -32q6 -23 14 -51t17 -63q12 -45 23.5 -85.5t22.5 -78.5q14 -50 25 -85t23 -72l19 -57q7 -23 11 -31.5t11 -21.5q4 15 6 19q5 17 15 59t27 111l44 180l28 129q9 40 9 64q0 27 -18 27q-4 0 -7.5 -1t-13.5 -6q-6 -2 -7.5 -3t-3.5 -1q-4 0 -4 4q0 2 5 6
t21 14l18 11q34 20 50 20q23 0 23 -26z" />
    <glyph glyph-name="O" unicode="O" horiz-adv-x="611" 
d="M454 477q0 -45 -8.5 -92t-24.5 -93t-38 -88t-50 -76q-24 -30 -53 -55t-59 -43t-59.5 -28t-55.5 -10q-33 0 -69 18.5t-62 48.5q-29 35 -45.5 83.5t-16.5 103.5q0 51 11.5 102.5t33 100t51.5 91.5t67 77q15 14 33 27.5t36 25t35.5 20t32.5 13.5q2 0 3.5 0.5t3.5 0.5
q3 0 3 -3q0 -5 -7 -6q-25 -7 -64 -40q-56 -46 -99 -110q-42 -63 -62 -131t-20 -149q0 -114 49 -173q22 -26 54 -41t68 -15q100 0 172 98q31 42 47 87q20 53 32 115t12 112q0 96 -29.5 147.5t-83.5 51.5q-5 0 -11 -0.5t-14 -1.5q-2 -1 -4 -1q-4 0 -4 3q0 5 3 10l1 2l27 38
q4 6 10 6q15 0 35 -8t37 -20q39 -29 60.5 -79.5t21.5 -118.5z" />
    <glyph glyph-name="P" unicode="P" horiz-adv-x="556" 
d="M433 550q0 -30 -4 -62t-11.5 -63.5t-18.5 -61t-24 -54.5q-13 -24 -30.5 -49.5t-40.5 -51.5q-20 -23 -35 -39t-31 -30t-34 -28t-43 -31q49 -15 81 -15q51 0 87 33q16 14 27.5 30.5t25.5 42.5q1 4 5 4t4 -4q0 -7 -9.5 -25t-21.5 -36q-10 -14 -21 -26.5t-22 -23.5
q-36 -33 -85 -33h-10t-10 1q-11 0 -21 3q-2 0 -9 2t-19 4l-18 3l-25 6q-20 5 -40 8t-32 2l-14 -1q-9 0 -9 4q0 3 3 6.5t12 10.5l18 14q7 6 16 6h6t13 -2q8 -2 12.5 -2.5t9.5 -0.5q28 0 51.5 12t49.5 39q52 53 89 119q40 69 58.5 136t18.5 139q0 132 -89 132
q-55 0 -103.5 -53.5t-83.5 -153.5q-13 -37 -24.5 -72.5t-24 -78.5t-26.5 -96t-32 -124q-13 -51 -23.5 -92t-15.5 -65q-3 -12 -4.5 -20t-2.5 -13q-3 -15 -9 -27q-6 -14 -18.5 -21.5t-27.5 -7.5q-39 0 -39 47q0 8 1 15t4 20q5 22 16.5 73.5t28.5 123.5l34 144l40 175l21 92
q5 21 8 36t4.5 25.5t2 18.5t0.5 16q0 37 -29 37q-15 0 -43 -17l-7 -3q-5 -4 -7 -4q-4 0 -4 4q0 3 6.5 8t23.5 14l49 28l4 2q12 6 20 9t16 3q29 0 29 -35q0 -11 -2 -23.5t-5 -26.5l-2 -6l-158 -664q-5 -20 -7.5 -34t-2.5 -24q0 -22 16 -22q9 0 15 10t12 35l12 48
q4 14 12.5 45.5t22.5 82.5q8 29 17.5 64.5t20.5 77.5q21 79 37 135t29.5 96t26 67t25.5 48q17 27 39.5 50t47 40.5t49.5 27t47 9.5q49 0 76.5 -42.5t27.5 -119.5z" />
    <glyph glyph-name="Q" unicode="Q" horiz-adv-x="574" 
d="M424 490q0 -60 -12.5 -115t-38.5 -115q-32 -74 -75.5 -134.5t-101.5 -111.5q-16 -14 -31 -25.5t-30 -22.5q-11 -8 -24.5 -16t-30.5 -18q-5 -2 -8.5 -4t-6.5 -4q-12 -5 -17 -5q-4 0 -4 5q0 3 3 4q0 1 4 3q2 2 8.5 5.5t17.5 9.5q35 21 59.5 41.5t50.5 50.5q39 44 72.5 99
t57.5 113.5t38 116t14 107.5q0 100 -43 146q-18 19 -46.5 30.5t-57.5 11.5q-25 0 -51 -8t-50.5 -22.5t-46 -35t-37.5 -44.5q-22 -34 -40.5 -76t-31.5 -87t-20.5 -91.5t-7.5 -88.5q0 -69 33.5 -108.5t93.5 -39.5q51 0 91.5 28t80.5 90q5 9 8 9q4 0 4 -5q0 -7 -11 -25.5
t-27 -38.5q-37 -47 -84 -72.5t-95 -25.5q-33 0 -60 14t-47 39t-31 60t-11 76q0 45 9.5 92.5t26.5 93t42 88.5t57 80q52 62 117.5 97t126.5 35q33 0 65 -14t52 -37q23 -26 34.5 -63.5t11.5 -91.5zM373 -10q-8 -29 -27 -60.5t-42 -51.5q-21 -19 -50.5 -29t-62.5 -10h-13.5
t-15.5 1q-12 1 -21 1.5t-18.5 1.5t-21 2.5t-27.5 4.5q-20 3 -36 5.5t-29 4.5q-17 2 -29 2.5t-24 0.5q-19 0 -33.5 -1t-34.5 -6l-18 -4h-1q-9 -3 -14 -3q-3 0 -3 4q0 7 15 15q11 6 20.5 11.5t17.5 10.5q34 17 62 17q12 0 29 -2t57 -9q15 -3 25 -4.5t17 -2.5t13 -1.5t13 -1.5
q19 -2 36 -3t37 -1q48 0 76.5 7.5t45.5 24.5q14 14 27 37.5t18 43.5q2 8 3.5 10.5t5.5 2.5q5 0 5 -4v-6z" />
    <glyph glyph-name="R" unicode="R" horiz-adv-x="648" 
d="M500 582q0 -45 -19.5 -95.5t-54.5 -95.5q-44 -57 -98 -85.5t-115 -28.5q-15 0 -21 1t-6 6q0 4 5 4q4 0 8 -1q5 -1 9.5 -1h9.5q46 0 96 33q39 27 68 65q29 40 47 91.5t18 97.5q0 41 -20.5 63.5t-57.5 22.5q-58 0 -104 -60q-11 -14 -19 -27t-15 -28t-13 -33t-12 -42
l-102 -384q-13 -49 -27 -67.5t-38 -18.5q-33 0 -33 33q0 11 2 26t8 38q4 16 12.5 45.5t16.5 57.5q12 43 19.5 70.5t10.5 39.5l21 82l29 113q6 24 9.5 49t3.5 44q0 36 -16 57t-44 21q-24 0 -53 -19.5t-51 -49.5q-26 -35 -45.5 -82.5t-29.5 -95.5q-5 -24 -7.5 -55.5
t-2.5 -61.5q0 -14 0.5 -24.5t2.5 -24.5q3 -25 3.5 -30.5t0.5 -7.5t-3 -2q-5 0 -8 13l-10 41q-3 14 -5.5 41t-2.5 53q0 70 20 127.5t64 109.5q38 46 81 71.5t82 25.5q35 0 55.5 -21.5t20.5 -56.5q0 -23 -12 -71l-2 -8l-119 -473l-1 -3q-2 -6 -3 -12.5t-1 -11.5q0 -14 9 -14
q10 0 18 17q7 19 14.5 41t18.5 68l6 24l73 273q15 57 28 89.5t32 59.5q10 15 23 28.5t29 27.5q26 22 47 30.5t46 8.5q48 0 76 -32t28 -86zM487 140q0 -13 -4.5 -30t-11.5 -32q-17 -35 -43 -56t-52 -21q-36 0 -58 36q-7 11 -12 19.5t-9.5 19.5t-10.5 27t-15 43q-11 30 -16 43
t-13 25q-16 28 -43 28q-13 0 -31 -7l-8 -4l-2 -1h-2q0 -1 -1 -1t-2 1t-1 3q0 4 11 10l24 13q9 5 22 8t24 3q14 0 23 -4q15 -7 24.5 -20t20.5 -41l7 -17l25 -68l5 -11q5 -16 10.5 -27t10.5 -18q13 -18 39 -18q29 0 50.5 26.5t26.5 69.5q1 8 2.5 10.5t3.5 2.5q6 0 6 -12z" />
    <glyph glyph-name="S" unicode="S" horiz-adv-x="537" 
d="M388 612q0 -20 -7 -43.5t-19 -45.5q-11 -18 -16 -18q-4 0 -4 5q0 2 0.5 5t3.5 8q8 19 8 50q0 45 -23.5 69t-67.5 24q-51 0 -82 -30t-31 -78q0 -33 16.5 -59t58.5 -56l82 -59q31 -23 47.5 -52.5t16.5 -62.5q0 -54 -24.5 -104t-66 -88.5t-95.5 -61t-112 -22.5
q-44 0 -82.5 13.5t-67.5 37.5t-45.5 55.5t-16.5 67.5q0 33 14.5 62t39 50t58.5 33t73 12q38 0 66 -11q14 -5 14 -10q0 -3 -3 -3q1 0 -11 3q-11 4 -23.5 5.5t-24.5 1.5q-32 0 -59 -10t-47.5 -28t-32 -42t-11.5 -52q0 -30 15 -56t41 -45.5t60 -31t73 -11.5q45 0 90.5 16
t77.5 44q27 23 42 59t15 77q0 51 -26 85q-7 9 -15 17t-20 17.5t-30 22.5t-46 32q-38 26 -57 49q-10 12 -16 30.5t-6 38.5q0 63 63 127q32 32 57 44.5t57 12.5q43 0 71 -26t28 -68z" />
    <glyph glyph-name="T" unicode="T" horiz-adv-x="574" 
d="M449 683q0 -4 -1 -6l-7 -50v-1q-2 -10 -3 -12.5t-3 -2.5q-3 0 -5 2.5t-5 11.5q-2 7 -7 10t-14 4.5t-44 4.5l-79 7q-11 1 -34.5 2.5t-59.5 3.5q-20 1 -36 1h-29q-52 0 -92 -15q-37 -14 -68.5 -45t-51.5 -72q-16 -32 -23 -69.5t-9 -96.5q0 -12 -8 -12q-5 0 -6 3t-2 15
t-1 26q0 72 25 136t70 109q33 32 72 47t92 15h8q6 0 63 -3l69 -3q26 -1 44 -2t29 -1h55h34l16 1h2q6 0 7.5 -1.5t1.5 -6.5zM414 248q0 -9 -3.5 -23t-8.5 -30t-12 -32.5t-14 -29.5q-35 -65 -86.5 -100.5t-111.5 -35.5q-30 0 -57.5 13t-48 34.5t-32.5 51t-12 62.5q0 29 6.5 62
t20.5 84l74 262l1 3q5 14 7.5 18.5t9.5 8.5l50 26h2q10 6 14 6t4 -4t-9 -14q-2 -3 -5 -7t-5 -6q-2 -5 -4.5 -10t-5.5 -15l-5 -15l-4 -14l-71 -251q-1 -2 -2 -6.5t-3 -10.5q-6 -25 -9.5 -42t-5.5 -30t-3 -22.5t-1 -19.5q0 -54 32 -87t86 -33q66 0 116.5 50.5t82.5 149.5
q5 15 9 15t4 -8z" />
    <glyph glyph-name="U" unicode="U" horiz-adv-x="704" 
d="M558 183q0 -39 -22 -82q-25 -48 -59 -76t-66 -28q-23 0 -36.5 16t-13.5 45q0 17 4.5 41.5t12.5 50.5l9 28l74 247l5 17q10 31 10 59q0 25 -9.5 38.5t-33.5 21.5q-14 -93 -40 -181t-63 -166q-50 -107 -105 -163t-110 -56q-38 0 -62.5 30.5t-24.5 78.5q0 28 11 69
q6 24 27 91l29 90l28 87q13 39 21 66.5t11 43.5q3 14 5 30t2 28q0 25 -13 39t-36 14q-16 0 -34.5 -8.5t-37.5 -23.5t-37.5 -36t-34.5 -46q-33 -53 -51.5 -115.5t-18.5 -120.5q0 -12 1 -23t4 -27q3 -11 3 -13q0 -4 -5 -4q-6 0 -8 11l-7 30q-2 9 -3.5 25.5t-1.5 34.5
q0 35 4 64.5t13.5 56t24.5 51.5t36 52q45 56 98 89.5t96 33.5q29 0 46.5 -20t17.5 -53q0 -6 -1 -15.5t-3 -18.5q-3 -16 -7 -32t-10 -36t-14.5 -46t-20.5 -63q-13 -38 -21 -63t-14 -42t-9.5 -30t-7.5 -26q-22 -79 -22 -131q0 -79 59 -79q65 0 120 86q33 52 60 114t47 129
q17 57 27 109.5t10 81.5q0 11 -2 13q0 1 -4 5q-6 8 -9 12.5t-6 11.5q-8 19 -8 42q0 56 34 56q28 0 28 -40v-6l-1 -56l9 -2q41 -9 57.5 -27t16.5 -50q0 -17 -3 -34t-11 -43l-68 -234q-8 -26 -8 -28q-3 -10 -5.5 -19.5t-4.5 -20.5q-5 -22 -7 -37t-2 -29q0 -38 24 -38
q12 0 26.5 9t28.5 26q22 26 34 59.5t12 66.5v5q0 10 7 10q9 0 9 -27z" />
    <glyph glyph-name="V" unicode="V" horiz-adv-x="630" 
d="M524 565q0 -23 -3 -51t-8 -57t-12.5 -58t-16.5 -55q-38 -113 -105 -211q-50 -73 -98.5 -107t-102.5 -34q-48 0 -77 33.5t-29 88.5q0 24 8.5 64.5t26.5 108.5l63 232q9 34 13.5 56t4.5 41q0 58 -51 58q-42 0 -81.5 -40t-72.5 -115q-8 -18 -13.5 -34.5t-9.5 -31.5
q-2 -9 -3.5 -22t-3 -27.5t-2.5 -29t-1 -26.5v-14.5t1 -10.5l1 -8v-4v-1q0 -3 -3 -3q-4 0 -6 10q-10 41 -10 85q0 69 29 132q17 36 42 67t54.5 54.5t61 36.5t60.5 13q30 0 48 -21.5t18 -56.5q0 -14 -4 -36t-11 -47q-1 -2 -2.5 -9t-4.5 -18l-57 -202l-12 -44q-6 -22 -10.5 -39
t-6.5 -28q-5 -23 -8 -44t-3 -35q0 -40 22 -63t60 -23q33 0 65.5 17t62.5 48.5t55.5 76t44.5 98.5q21 60 33 124t12 118q0 13 -1 28t-2 33q-1 7 -2 12.5t-3 9.5t-5 5t-14 3q-17 3 -28 16.5t-11 31.5q0 19 11.5 30.5t30.5 11.5q32 0 49 -35.5t17 -101.5z" />
    <glyph glyph-name="W" unicode="W" horiz-adv-x="889" 
d="M768 576q0 -33 -3 -69q-5 -70 -19.5 -129.5t-41.5 -126.5q-20 -51 -41.5 -87t-52.5 -73q-37 -45 -71.5 -65.5t-72.5 -20.5q-47 0 -76 40.5t-29 105.5v18q0 11 0.5 13.5t0.5 4.5t-1 2h-2l-2 -2l-3 -6l-7 -13l-1 -3q-15 -29 -39 -59.5t-49 -53.5q-60 -54 -136 -54
q-14 0 -30.5 2t-42.5 6l-15 2q-20 2 -32.5 4t-23.5 2q-13 0 -24.5 -2t-25.5 -7v9l5 5l32 31q12 10 14 11q6 2 18 2q34 1 58 11t54 38q16 15 29.5 31t24.5 34t21 39.5t20 47.5q21 58 30 108t9 109q0 54 -8 89t-27 58q-14 19 -37.5 29.5t-49.5 10.5q-42 0 -83 -22t-67 -58
q-34 -47 -53.5 -114t-19.5 -135q0 -26 3 -55.5t7 -49.5l4 -21v-2q0 -3 -3 -3q-2 0 -4 2q-7 8 -13.5 26t-12 41.5t-8.5 49.5t-3 50q0 134 94 231q44 45 95.5 70.5t96.5 25.5q29 0 57 -14t48 -38q21 -26 31 -61.5t10 -87.5q0 -161 -85 -290q-15 -24 -29 -42t-30.5 -35
t-37.5 -35t-51 -41q42 -15 88 -15q42 0 75 15.5t63 49.5q40 46 58 94q17 46 38.5 132.5t44.5 204.5q4 22 7 35.5t4.5 21l2 10t1.5 4.5q2 5 8 8l43 24q8 4 13 4q6 0 6 -6q0 -5 -5 -11q-5 -7 -8 -13.5t-6.5 -16t-7.5 -25.5t-11 -42q-6 -25 -14 -60.5t-18 -83.5
q-10 -46 -15 -74q-21 -111 -21 -169q0 -48 21 -75t59 -27q69 0 128 82q45 62 68 133q9 28 16.5 60.5t13 65.5t8.5 65t3 60q0 24 -3 50q-2 13 -6 24q-2 5 -5.5 8.5t-14.5 9.5q-17 10 -23.5 20t-6.5 25q0 19 10.5 31t27.5 12q24 0 40 -24q11 -16 15 -37t4 -54z" />
    <glyph glyph-name="X" unicode="X" horiz-adv-x="704" 
d="M580 625q0 -23 -11.5 -39.5t-26.5 -16.5q-4 0 -4 13v3q0 34 -15.5 54t-41.5 20q-47 0 -100 -59q-18 -20 -33 -43t-25 -47q-7 -18 -12 -32.5t-9 -31t-8 -38t-9 -52.5h184q5 0 5 -4q0 -2 -1 -2l-25 -26q-5 -5 -12 -5h-1h-1h-156q-6 -20 -9 -50.5t-3 -62.5q0 -45 8 -75
t26 -53q32 -43 82 -43q22 0 45 10t43 28q17 15 34.5 37t27.5 40l1 1q3 7 6 7t3 -3q0 -8 -9.5 -26t-24.5 -37q-37 -48 -79.5 -73.5t-81.5 -25.5q-23 0 -44.5 9.5t-36.5 26.5q-24 28 -36 70q-3 10 -5.5 19t-4 18.5t-3 20.5t-2.5 27q-12 -21 -21.5 -36t-19 -28t-20.5 -25
t-26 -28q-71 -72 -139 -72q-54 0 -87 42.5t-33 111.5q0 15 4.5 24.5t16.5 17.5q12 9 17 9q3 0 3 -10v-3l-1 -22v-17q0 -23 8 -43t22 -35t33 -24t41 -9q65 0 120 58q18 18 31.5 38t23.5 40q8 16 13.5 30t10 29.5t8.5 36t10 50.5h-143q-4 0 -4 4q0 3 2 3l25 25q6 6 9.5 7
t12.5 1h106q3 10 4.5 18t3 15.5t3.5 16.5t4 22q5 32 7 51t2 41q0 134 -84 134q-64 0 -119 -66q-17 -20 -29.5 -41t-20.5 -43q-2 -7 -5.5 -18.5t-8.5 -27.5q-2 -8 -3.5 -12.5t-2.5 -6.5q-1 -8 -6 -8t-5 4q0 11 5 33.5t12 40.5q15 40 39 74t53 58.5t60.5 38.5t63.5 14
q49 0 75 -37.5t26 -107.5v-11.5t-1 -15.5q10 18 18.5 30.5t17.5 24t19.5 22.5t25.5 25q71 68 127 68q28 0 44.5 -19t16.5 -51z" />
    <glyph glyph-name="Y" unicode="Y" horiz-adv-x="648" 
d="M505 700q0 -2 -1 -8t-6 -20l-1.5 -4.5t-0.5 -3.5l-121 -509q-6 -27 -11.5 -48t-11.5 -38t-12.5 -32t-14.5 -31q-16 -30 -42 -59q-10 -12 -18.5 -20.5t-17 -16t-19 -14.5t-25.5 -16l6 -1l28 -2l22 -2h11q35 0 69.5 18t59.5 47q11 14 20.5 29.5t17.5 32.5q6 14 9.5 24.5
t6 21.5t4.5 25t4 36q2 11 3 14t5 3q5 0 8 -12.5t3 -31.5q0 -42 -21.5 -85t-60.5 -82q-40 -39 -84.5 -60t-90.5 -21q-17 0 -41 3l-50 6l-55 7q-17 2 -23.5 2.5t-16.5 0.5q-17 0 -22.5 -0.5t-16.5 -4.5q-8 -3 -10 -3.5t-4 -1.5q-3 -1 -9 -1q-4 0 -4 4q0 3 1.5 4.5t5.5 4.5
l4.5 3l4.5 3l4 2q1 1 1.5 1t1.5 1q4 3 5.5 5t9.5 8l14 11l7 6q3 3 8 3q11 0 28.5 -1.5t39.5 -4.5l31 -4l11 -2q7 -2 12.5 -2h7.5q12 0 23 6q20 12 42.5 38.5t34.5 52.5q9 20 20 51.5t23 75.5q8 27 13 45t8 32t5 27t4 31q-15 -25 -26 -42.5t-21.5 -32t-21.5 -28.5t-26 -30
q-91 -101 -186 -101q-9 0 -18 1.5t-20 5t-25 8.5t-33 12l-22 8q-7 2 -13.5 5t-10.5 5q-9 2 -19.5 4t-17.5 2q-4 0 -10 -2h-3q-1 0 -2 1q-3 4 -3 7q0 1 2 3l5 5l20 15q11 8 20 13t13 5q3 0 11 -2q13 -4 24 -4q22 0 52 14.5t58 38.5q33 29 60 69t46.5 86t30 96.5t10.5 100.5
q0 39 -10 71.5t-28.5 55.5t-44.5 35.5t-57 12.5q-35 0 -63 -16.5t-53 -51.5q-61 -85 -61 -204q0 -24 2.5 -43.5t8.5 -41.5q4 -14 6.5 -22t10.5 -25l2 -4q0 -2 -2 -2q0 -1 -2 -1q-3 0 -6 3q-10 12 -19 31.5t-15.5 42.5t-10 47t-3.5 47q0 113 83 200q75 80 162 80
q72 0 114 -54.5t42 -146.5q0 -71 -20 -137.5t-56 -123t-87 -99.5t-112 -67q-1 -1 -2 -1l-4 -2q-4 -2 -4 -4q0 -5 7 -8q19 -10 46 -16.5t52 -6.5q20 0 45 5q17 4 31.5 10t28.5 15t28.5 22.5t31.5 32.5q67 76 95 157q5 12 15.5 52.5t28.5 109.5q8 33 14 57t9 41l13 67
q2 13 3.5 21t1.5 13q-1 2 -1 6q-2 11 -2 14v6q0 4 7 8h1l37 16q7 3 14 3q13 0 13 -11z" />
    <glyph glyph-name="Z" unicode="Z" horiz-adv-x="580" 
d="M405 220q0 -23 -7.5 -53t-19.5 -57q-29 -62 -68.5 -89t-100.5 -27q-18 0 -37.5 3.5t-55.5 13.5l-45 12q-35 10 -58.5 14t-44.5 4q-31 0 -63 -7.5t-54 -20.5l-20 -12q-1 0 -2 -1q-4 0 -4 4q0 3 2 5q7 4 33 30l32 32q15 15 39 45t51 67t55 78t52 79q-20 1 -30.5 1h-22.5
h-15h-13.5t-10.5 -1q-1 0 -3.5 -0.5t-6.5 -0.5q-9 -1 -15.5 -1.5t-10.5 -0.5q-10 0 -10 4t5 10q1 1 4 6t10 13l4 5h137l11 17q21 33 38 59.5t31.5 47.5t27 38t24.5 32q7 9 13 16t12.5 14t14.5 15l19 19q-20 -2 -31 -2h-28h-32.5t-33.5 2l-42 3l-50 3q-14 1 -23.5 1.5
t-15.5 0.5q-16 0 -28.5 -1.5t-19.5 -4.5q-13 -5 -25.5 -19t-20.5 -32l-6 -13q-3 -8 -7 -8t-4 6q0 10 14 39l12 25q11 23 16.5 32.5t13.5 15.5q18 15 45 15q5 0 14.5 -0.5t20.5 -2.5q49 -5 92.5 -8.5t75.5 -3.5q30 0 77 3q14 1 25 2t19 2q8 2 12 2h6q7 0 7 -5q0 -3 -2 -5.5
t-8 -7.5q-4 -3 -8.5 -6.5t-10.5 -9.5q-23 -23 -44 -48t-44 -57.5t-50.5 -74.5t-62.5 -99l147 1q11 0 13.5 -1t2.5 -3q0 -3 -5 -8l-9 -15q-3 -5 -5 -8t-4 -5q-3 -3 -5 -3h-2q-2 1 -10 1t-22 1l-31 2q-18 2 -32.5 1.5t-33.5 -0.5h-26l-27 -40l-23 -36q-11 -17 -20 -30
t-17 -24.5t-17 -23t-20 -24.5q-11 -14 -19 -23.5t-16 -18.5t-17 -18t-21 -22q12 2 20.5 2.5t21.5 0.5h11.5t10.5 -1q24 -2 78 -14l44 -10q25 -6 48 -9q19 -2 40 -4t34 -2q57 0 89 32q20 20 36 52.5t20 61.5l4 33q2 10 7 10t5 -12z" />
    <glyph glyph-name="bracketleft" unicode="[" horiz-adv-x="352" 
d="M227 681h-95l-153 -701h92l-4 -22h-148l163 741h148z" />
    <glyph glyph-name="backslash" unicode="\" horiz-adv-x="278" 
d="M86 0l-200 704h39l200 -704h-39z" />
    <glyph glyph-name="bracketright" unicode="]" horiz-adv-x="352" 
d="M17 -42h-147l4 19h95l154 704h-93l4 18h147z" />
    <glyph glyph-name="asciicircum" unicode="^" horiz-adv-x="593" 
d="M445 84l-149 378l-148 -378h-33l164 409h34l164 -409h-32z" />
    <glyph glyph-name="underscore" unicode="_" horiz-adv-x="500" 
d="M0 -125v50h500v-50h-500z" />
    <glyph glyph-name="grave" unicode="`" 
d="M73 412l-127 82q-17 11 -23 18t-6 15t6 13.5t15 5.5q15 0 38 -22l119 -112h-22z" />
    <glyph glyph-name="a" unicode="a" horiz-adv-x="370" 
d="M181 79q0 -8 -25 -33q-30 -30 -44.5 -40.5t-25.5 -10.5q-21 0 -21 23q0 8 2.5 22t7.5 36l13 64q-39 -66 -81.5 -105t-76.5 -39q-27 0 -43.5 24t-16.5 64q0 69 32 133.5t88 106.5q53 41 102 41q32 0 51.5 -17t22.5 -46l-50 -251v-1q-1 -2 -1 -5.5v-5.5q0 -8 4 -8q2 0 6 2
q2 2 3.5 3t3.5 3q8 8 20 19.5t18 19.5q5 5 7 5q4 0 4 -4zM119 279q0 17 -3.5 25.5t-11.5 15.5q-18 15 -45 15q-55 0 -90 -55q-13 -19 -23.5 -41.5t-18 -45.5t-11.5 -46t-4 -43q0 -31 13 -51.5t32 -20.5q10 0 26 8t29 19q32 28 54 62q11 18 20.5 39t17 42.5t11.5 41.5t4 35z
" />
    <glyph glyph-name="b" unicode="b" horiz-adv-x="352" 
d="M174 273q0 -49 -19.5 -99t-54.5 -94q-31 -38 -66 -59.5t-65 -21.5q-16 0 -30.5 8.5t-26 22.5t-18 32.5t-6.5 38.5q0 15 3 39t11 50l8 28l83 314l3 12q8 31 13 57.5t5 39.5q0 10 -4 15q-2 2 -5.5 3t-12.5 1h-8q-2 -1 -5 -1q-4 0 -4 5t7 7h2l56 19q11 4 20 4q12 0 12 -12
q0 -3 -1.5 -10t-2.5 -13l-2 -11l-1 -3l-100 -383q-6 -23 -9 -36t-6 -27q-11 -55 -11 -90t16.5 -54t45.5 -19q27 0 50.5 16.5t41.5 45t28.5 66.5t10.5 80q0 101 -62 101q-15 0 -30.5 -6t-30.5 -21l-2 -2l-4 -4q-3 -3 -6 -3q-5 0 -5 4q0 7 17 21q10 8 18.5 15t16.5 12
q26 18 51 18q36 0 57.5 -29t21.5 -77z" />
    <glyph glyph-name="c" unicode="c" horiz-adv-x="296" 
d="M133 335q0 -5 -3.5 -15.5t-7.5 -18.5l-5 -11q-4 -7 -8 -7q-1 0 -4 4q-10 27 -29.5 42.5t-42.5 15.5t-43.5 -17.5t-37 -47t-26 -67.5t-9.5 -78q0 -97 72 -97q67 0 105 95l3 7.5t2 4.5q0 2 1 2q1 3 3 3q5 0 5 -5q0 -8 -8 -26t-18 -34q-24 -38 -58.5 -61.5t-67.5 -23.5
q-36 0 -59.5 31.5t-23.5 80.5q0 48 18 98t50 92q51 68 119 68q14 0 27 -3t29 -12q17 -9 17 -20z" />
    <glyph glyph-name="d" unicode="d" horiz-adv-x="389" 
d="M260 668q0 -7 -2 -12l-120 -483q-5 -20 -8 -31t-5 -20q-9 -44 -9 -59q0 -22 19 -22q12 0 24.5 10.5t32.5 35.5l12 15l1 2l7 8q4 5 5.5 6.5t3.5 1.5t3 -1t1 -2q0 -3 -9 -16.5t-22 -28.5q-61 -70 -97 -70q-30 0 -30 52q0 14 5 37q0 6 3 15q5 21 10.5 42.5t10.5 41.5
q8 27 10.5 42t2.5 29q0 38 -23.5 64t-58.5 26q-40 0 -68 -47q-40 -71 -40 -172q0 -49 13 -71.5t42 -22.5q39 0 69 38l13 17l1 1q1 1 2 1t2 -1q0 -1 0.5 -1t0.5 -1q0 -3 -6.5 -13.5t-15.5 -21.5q-47 -58 -90 -58q-36 0 -58 35.5t-22 92.5q0 101 65 180q54 68 117 68
q32 0 54 -20q10 -9 15 -17.5t10 -26.5l69 295q4 16 4 27q0 21 -16 21q-7 0 -24 -7q-9 -3 -8 -3q-4 0 -4 5t9 8l36 14q31 12 46 12q17 0 17 -15z" />
    <glyph glyph-name="e" unicode="e" horiz-adv-x="259" 
d="M102 313q0 -17 -9.5 -36t-26 -38t-39 -36.5t-47.5 -32.5l-17 -10l-12 -6q-2 -1 -7 -1q-4 0 -4 3t6 7h1q2 2 6 4q46 27 71.5 61t25.5 69q0 17 -9.5 27t-26.5 10q-24 0 -42 -20q-23 -26 -38.5 -76.5t-15.5 -106.5q0 -97 65 -97q25 0 48.5 11.5t40.5 31.5l11 13q2 2 3 2
q3 0 3 -3q0 -13 -26 -39q-54 -54 -103 -54q-41 0 -64.5 31t-23.5 85q0 49 16 96.5t46 86.5q27 34 59 54t60 20q20 0 34.5 -16.5t14.5 -39.5z" />
    <glyph glyph-name="f" unicode="f" horiz-adv-x="222" 
d="M178 691q0 -2 -0.5 -4t-1.5 -5l-14 -34q-2 -6 -7 -6h-4l-10 1l-13 1q-6 1 -10 1h-6q-14 0 -20.5 -8.5t-13.5 -37.5l-6 -25l-55 -218h71l2 -8l-2 -2q-10 -17 -13 -20q-1 -2 -2 -2.5t-2 -1.5q-6 -3 -18 -3h-44l-68 -277l-2 -9q-2 -9 -4 -15t-3 -8q-7 -12 -29 -12
q-21 0 -21 14q0 4 2.5 13t8.5 29q4 11 10.5 36t17.5 67l35 138l6 24h-71l14 37h64l39 156l10.5 38.5t9 29t9 22.5t10.5 20q9 15 22.5 28.5t29.5 23.5t33.5 16t32.5 6q8 0 10.5 -1t2.5 -4z" />
    <glyph glyph-name="g" unicode="g" horiz-adv-x="352" 
d="M219 344q0 -15 -16 -23q-7 -4 -15.5 -6.5t-25.5 -6.5q1 -6 1 -11v-8q0 -59 -55 -112q-30 -29 -65 -45.5t-66 -16.5q-32 0 -53 23.5t-21 61.5q0 61 57 118q30 29 57.5 42t61.5 13q62 0 80 -50q7 11 10 15.5t6 7.5q13 16 27 16q8 0 12.5 -5t4.5 -13zM146 6q0 -24 -15 -49
t-42 -48q-62 -50 -140 -50q-48 0 -76.5 20t-28.5 54t37 67q11 9 19.5 14.5t12.5 5.5q3 0 3 -3q0 -1 -2 -3l-8 -8q-20 -20 -20 -46q0 -32 27.5 -53.5t69.5 -21.5q24 0 45.5 7.5t38 20.5t26.5 30t10 35q0 20 -16 30t-51 12l-46 2l-34 1q-27 1 -37 3t-16 5q-10 7 -10 20
q0 23 27 47q8 6 15.5 11t11.5 5q2 0 2 -3t-4 -8q-11 -14 -11 -21q0 -8 15 -8q2 0 7.5 -0.5t13.5 -1.5q5 0 13 -0.5t21 -1.5q21 -1 36 -2t26 -2.5t19.5 -3t16.5 -3.5q20 -5 32 -19.5t12 -33.5zM116 269q0 74 -69 74q-42 0 -68.5 -34t-26.5 -88q0 -74 64 -74h4q21 0 38.5 9.5
t30.5 26t20 38.5t7 48z" />
    <glyph glyph-name="h" unicode="h" horiz-adv-x="407" 
d="M248 127q0 -1 -2 -5q-9 -14 -16 -23.5t-15 -20.5q-32 -38 -63.5 -60.5t-55.5 -22.5q-26 0 -26 32q0 11 3.5 27.5t9.5 36.5l2 7l36 116l3 10l6 18t5 18q7 23 9 34.5t2 17.5q0 17 -21 17q-26 0 -63.5 -30.5t-78.5 -85.5q-18 -25 -31 -48t-22 -45q-5 -14 -9 -25.5
t-6.5 -24.5t-5 -28.5t-4.5 -37.5l-4 -4h-48q-3 0 -3 4v4l2 4l135 492q8 28 14.5 56t12.5 52q2 8 3 14.5t2 13.5v1q0 13 -12 13q-6 0 -11.5 -1.5t-15.5 -5.5l-6 -3h-1q-3 0 -3 4t8 8q16 8 31 15l30 14q20 8 32 8q13 0 13 -14q0 -6 -1 -9v-1l-142 -500q11 18 19.5 30.5t17 23
l17 21t19.5 22.5q14 17 30 31.5t33 28.5q55 43 90 43t35 -46q0 -11 -2.5 -21t-7.5 -27l-52 -163l-1 -5q-5 -16 -8 -29.5t-3 -21.5q0 -16 16 -16q14 0 31.5 16.5t49.5 54.5q5 5 7 8t4 5l3 3q3 4 5 4t3 -1t1 -3z" />
    <glyph glyph-name="i" unicode="i" 
d="M35 489q0 -14 -12.5 -25.5t-31.5 -14.5q-2 16 -5.5 29.5t-10.5 33.5q2 2 4 3.5t5 3.5q7 5 12 8.5t13 8.5l4 2q10 -8 16 -22t6 -27zM28 112q0 -4 -3.5 -12t-9.5 -17t-13.5 -19t-15.5 -18q-10 -11 -20.5 -20t-21.5 -17q-20 -12 -36 -12q-31 0 -31 36q0 22 10 55l2 7l52 176
q11 38 11 51q0 9 -6 9q-8 0 -24 -9q-9 -3 -8 -3q-4 0 -4 6q0 2 2 4l70 46q8 5 11 5q12 0 12 -26q0 -10 -2.5 -24t-10.5 -41l-36 -126l-2 -9q-9 -39 -16 -65t-7 -35q0 -15 14 -15q13 0 24 10q13 9 23.5 23t24.5 38q4 6 8 6q3 0 3 -4z" />
    <glyph glyph-name="j" unicode="j" 
d="M47 496q0 -8 -3 -14q-3 -8 -9 -12t-23 -12q-2 -1 -4 -1.5t-6 -2.5q-2 16 -9 34t-15 26l52 25q8 -7 12.5 -19t4.5 -24zM28 381q0 -4 -3 -8l-2 -4q-4 -6 -6.5 -13t-6.5 -21q-4 -12 -6.5 -21t-4.5 -15q-3 -11 -6.5 -27t-8.5 -37q-5 -24 -9.5 -42.5t-6.5 -31.5l-14 -71
q-3 -14 -6 -26.5t-5 -23.5q-11 -47 -23 -75t-34 -57q-18 -23 -35 -38.5t-25 -15.5q-4 0 -4 4q0 2 2 4q8 8 14 15.5t8 10.5q8 13 17.5 40t20.5 68q5 16 9 33t10 45l35 153q16 70 16 98q0 14 -8 14h-18h-1h-3q-5 0 -5 6q0 4 3 6q2 2 4 3q3 1 8 3l52 21l10 4q17 7 24 7
q8 0 8 -8z" />
    <glyph glyph-name="k" unicode="k" horiz-adv-x="352" 
d="M191 106q0 -6 -19 -32q-18 -24 -39 -44q-17 -17 -29.5 -23.5t-25.5 -6.5t-28 10q-5 4 -9.5 8t-9.5 9q-2 2 -6 6.5t-10 10.5l-34 36q-4 5 -6.5 7t-3.5 4q-4 3 -8 5q-8 5 -17 5q-11 0 -19 -8q-4 -6 -6 -10q-2 -5 -3 -8.5t-3 -16.5l-9 -50q-2 -8 -9 -8h-37q-4 0 -4 4
q0 1 0.5 1.5t0.5 1.5l126 466l9 30q3 17 12 50q3 14 5 24.5t4 18.5l4 22q1 6 1.5 10.5t0.5 8.5q0 18 -12 18q-4 0 -6 -1q-2 0 -6 -2q-2 0 -5 -1t-8 -3q-1 -1 -2 -1t-3 -1l-1 9l6 3q27 14 37 17.5t20 7.5q26 10 38 10q10 0 10 -9q0 -1 -2 -9l-117 -419q23 23 33.5 35t20.5 21
q35 34 60.5 48t48.5 14q48 0 48 -52q0 -11 -2.5 -24.5t-6.5 -21.5q-7 -15 -18.5 -30t-27.5 -31q-15 -14 -27.5 -24.5t-25.5 -20t-29 -19t-38 -21.5l52 -58q17 -20 27 -27t21 -7q15 0 29.5 12.5t34.5 38.5l13 17q2 5 6 5t4 -5zM132 300q0 20 -9.5 32t-25.5 12t-29 -8
q-23 -14 -49 -38.5t-42 -46.5q-5 -8 -10.5 -18.5t-11.5 -24.5q-6 -15 -10.5 -26.5t-7 -22t-4 -22t-2.5 -26.5q12 2 20 4t17 6.5t21 12.5t31 21q59 41 85.5 75t26.5 70z" />
    <glyph glyph-name="l" unicode="l" 
d="M74 672q-1 -2 -1 -4.5t-1 -4.5q0 -1 -0.5 -2.5t-1.5 -5.5q0 -2 -1 -2l-129 -491l-2 -9q-6 -26 -10 -46t-4 -34q0 -33 20 -33q14 0 34.5 19.5t42.5 56.5l13 22q5 8 8 8q5 0 5 -4q0 -5 -10 -22t-24 -37q-62 -84 -107 -84q-36 0 -36 43q0 20 4 44.5t12 53.5l3 12l103 392
l2 9q6 28 11 51t5 36q0 18 -15 18h-5q-2 -1 -3 -1t-2 -1q-2 0 -8 -3q-3 -1 -5 -1q-4 -2 -5 -2q-5 0 -5 5t9 8l74 30l2 1q6 3 12 3q15 0 15 -16v-9v0z" />
    <glyph glyph-name="m" unicode="m" horiz-adv-x="593" 
d="M424 124q0 -3 -3 -7q-1 -1 -2.5 -3.5t-3.5 -6.5q-8 -16 -20 -32t-28 -32q-43 -46 -75 -46q-24 0 -24 30q0 10 2.5 22.5t7.5 33.5q3 13 6 24.5t6.5 23t7 25t8.5 30.5q7 25 12.5 43.5t9 31.5t5.5 21.5t4 15.5q2 10 2 16q0 21 -16 21q-14 0 -43 -23t-66 -65q-35 -38 -48 -64
q-5 -9 -11.5 -25t-12.5 -34.5t-11.5 -38.5t-9.5 -38l-9 -40v-2q-1 -5 -7 -5h-43q-1 0 -2 1q0 1 -0.5 1.5t-0.5 1.5q0 2 1 4q0 1 5 14q2 4 3.5 7.5t3.5 7.5l1 3q7 22 12.5 37t12.5 41l29 108q6 22 9.5 36.5t6 24.5t3 17t0.5 13q0 19 -14 19q-8 0 -20.5 -7.5t-28 -20.5
t-32.5 -30.5t-34 -37.5q-22 -26 -38.5 -52t-25.5 -49q-10 -23 -18.5 -61t-13.5 -73l-8 -5h-40q-2 0 -2 1q-1 0 -1 1t-1 2v1q0 1 1 2v3q1 1 1 3l9 29l20 72q6 21 10 35.5t7.5 26.5t6.5 24.5t8 30.5q6 24 10 39.5t6 25.5t2.5 15t0.5 10q0 19 -19 19q-6 0 -19 -3q-8 -2 -7 -2
q-1 0 -1 1q-2 1 -2 5q0 5 10 8l9 3t16 5q5 2 11 3.5t14 4.5q5 1 8 2t5 2q23 5 30 5q12 0 12 -12q0 -5 -1 -10.5t-4 -15.5q-2 -5 -3 -6l-42 -138l20 27q13 18 22.5 30t17.5 21t15.5 16.5l15.5 15.5t16.5 15.5t18.5 15.5q26 23 43.5 31.5t35.5 8.5q31 0 31 -31q0 -5 -2 -14
t-5 -21l-1 -4l-27 -92q4 5 7 9t5 7q12 17 26 32.5t29 30.5q26 26 50.5 45t44.5 30q8 4 17.5 6.5t16.5 2.5q31 0 31 -32q0 -8 -2 -18t-5 -21l-1 -4l-53 -181l-5 -19q-8 -29 -8 -44q0 -17 11 -17q17 0 50 41q13 15 25 34q2 3 3.5 5.5t1.5 4.5q3 4 6 4q2 0 3 -1q2 0 2 -2z" />
    <glyph glyph-name="n" unicode="n" horiz-adv-x="407" 
d="M209 320q0 -21 -7 -43l-1 -6l-48 -171q-7 -27 -7 -40q0 -18 14 -18h5l4 2l6 4l5 2.5t3 0.5q6 0 6 -7q0 -4 -2 -6.5t-8 -7.5q-43 -31 -65 -31q-23 0 -23 37q0 12 2 24t7 30l35 123q9 33 13 53t4 34q0 25 -20 25q-10 0 -25.5 -8.5t-33 -22.5t-35 -32.5t-32.5 -38.5
q-20 -26 -32 -53t-21 -60q-4 -15 -7.5 -34.5t-6.5 -36.5q-1 -10 -2 -16t-2 -9q-1 -4 -1 -7q-1 -7 -9 -7h-36q-6 0 -6 5q0 2 2 10l36 145q2 9 3 14.5t2 7.5q2 8 4.5 20t5.5 29q6 31 9 50.5t3 33.5q0 10 -6 10q-2 0 -5.5 -0.5t-13.5 -2.5h-4v12l81 39q3 1 7 1q10 0 10 -9
q0 -5 -1 -7v-3l-1 -1l-12 -51l-29 -104q4 5 7 9.5t5 6.5q13 18 25 32.5t25 27t27.5 24.5t32.5 26q28 20 46.5 29t33.5 9t24 -11.5t9 -31.5z" />
    <glyph glyph-name="o" unicode="o" horiz-adv-x="352" 
d="M172 273q0 -45 -22 -96t-60 -98q-32 -38 -64.5 -58.5t-61.5 -20.5q-19 0 -35 9.5t-28 26.5t-19 40t-7 50q0 47 24.5 97t64.5 85q24 21 46 34.5t30 13.5q2 0 2 -2t-2 -4h-1q-7 -5 -13 -10t-13 -11q-41 -37 -65 -88.5t-24 -102.5q0 -48 17.5 -76.5t46.5 -28.5
q26 0 50.5 17.5t43 46.5t30 66t11.5 77q0 18 -2.5 32.5t-7.5 29.5q-6 15 -13.5 20t-24.5 6q-12 0 -16 1t-4 4t13 10l2 1l39 18q4 2 6 2.5t4 0.5q13 0 25 -17q14 -17 21 -36.5t7 -38.5z" />
    <glyph glyph-name="p" unicode="p" horiz-adv-x="370" 
d="M194 271q0 -28 -11 -60.5t-31 -64.5q-12 -20 -28 -40q-15 -18 -28 -30.5t-38 -32.5q10 -3 22.5 -5t21.5 -2q33 0 56 18q3 3 5 3q4 0 4 -4q0 -7 -17 -21q-36 -32 -78 -32q-13 0 -28 3l-31 7q-9 2 -17.5 3t-15.5 1h-9l-7 -1l-4 -1h-3q-3 0 -4 1q-2 2 -2 3q0 5 9 17
q16 24 34 24q5 0 9 -1l10 -2q6 -2 11.5 -2h9.5q11 0 20 6.5t22 23.5q8 11 15 20.5t13 18.5q44 67 44 130q0 32 -12.5 50t-34.5 18q-21 0 -45.5 -17t-47.5 -48q-18 -24 -26 -42q-7 -14 -15.5 -41t-19.5 -67l-72 -252l-7 -2h-27l-3 5l43 167l32 124l19 74q8 29 11 46.5t3 32.5
q0 12 -9 14q-3 2 -7 2h-16h-2h-2q-6 0 -6 4t3.5 6t16.5 6l17 5q13 4 21.5 7t13.5 4q11 3 19 5t13 2q8 0 8 -7q0 -3 -1 -4l-27 -90q10 13 17 21.5t13.5 15.5t13.5 13.5t17 15.5q35 32 72 32q32 0 52.5 -22.5t20.5 -57.5z" />
    <glyph glyph-name="q" unicode="q" horiz-adv-x="352" 
d="M155 295q0 -16 -5 -38.5t-10 -51.5l-2 -11l-84 -342l-5 -5h-44l-4 6l59 220q-11 -12 -17.5 -18.5t-12.5 -11.5q-23 -19 -47 -30t-44 -11q-33 0 -52 27.5t-19 75.5q0 49 20 97t55 86q33 35 74.5 56.5t77.5 21.5q28 0 44 -19.5t16 -51.5zM108 272q0 29 -14.5 46.5
t-39.5 17.5q-10 0 -22.5 -4t-22.5 -10q-26 -15 -42 -38q-22 -32 -35 -79.5t-13 -93.5q0 -72 54 -72q23 0 44 12q20 12 34 31t25 51q15 41 23.5 77t8.5 62z" />
    <glyph glyph-name="r" unicode="r" horiz-adv-x="241" 
d="M96 338q0 -13 -14 -35q-7 -9 -8 -12q-11 -15 -13 -15q-5 0 -5 8l-1 8l-1 3q-3 23 -26 23q-33 0 -48 -55l-45 -159q-9 -33 -9 -43q0 -9 5 -15.5t13 -6.5q12 0 33.5 16.5t43.5 43.5l14 17q3 3 5 3q3 0 3 -3q0 -4 -9 -16.5t-20 -24.5q-8 -9 -20.5 -21t-25.5 -23
q-34 -30 -57 -30q-14 0 -22 11t-8 30q0 14 3.5 34t11.5 49l37 139q10 37 10 57q0 15 -13 15q-4 0 -14 -3q-4 -1 -7 -1q-5 0 -5 3t9 8l17 11q11 7 22.5 10t19.5 3q25 0 25 -33q0 -5 -0.5 -9t-1.5 -11l40 38q10 10 16.5 13.5t13.5 3.5q13 0 22 -8.5t9 -22.5z" />
    <glyph glyph-name="s" unicode="s" horiz-adv-x="278" 
d="M104 312q0 -25 -15 -40q-3 -3 -6.5 -5.5t-5.5 -2.5q-1 0 -2 1t-1 2q0 2 1 4q3 7 3 16q0 24 -17.5 39t-44.5 15q-28 0 -45 -15t-17 -40q0 -20 12 -35t40 -29q15 -8 24 -13t15 -9t9.5 -8t8.5 -10q8 -10 13 -23.5t5 -26.5q0 -47 -44 -91q-43 -43 -99 -43q-38 0 -61 20.5
t-23 55.5q0 34 22 56q12 12 19 12h2q1 -1 1 -3v-1l-1 -2v-1l-5 -10q-5 -13 -5 -28q0 -29 21 -48.5t54 -19.5q36 0 60 19.5t24 49.5q0 43 -50 69l-31 16q-23 12 -35.5 32t-12.5 43q0 39 38 76q42 39 87 39q29 0 45.5 -16.5t16.5 -44.5z" />
    <glyph glyph-name="t" unicode="t" horiz-adv-x="222" 
d="M69 345q-1 -1 -8 -13q-1 -2 -2.5 -4.5l-4.5 -7.5l-1 -2h-58l-55 -212l-2 -5q-3 -14 -5 -26.5t-2 -20.5q0 -22 13 -22q12 0 30.5 19t44.5 61l5 8q2 5 5 5q2 0 3 -1v-2q0 -8 -18 -36q-21 -35 -43 -56q-16 -16 -31.5 -23.5t-29.5 -7.5q-30 0 -30 38q0 10 1 22.5t6 27.5l2 6
l59 226h-59l15 26l14 8h40l23 80l3 8q7 19 11 20l29 7q5 1 9 1q5 0 5 -5q0 -2 -1 -4l-31 -108h57q6 0 6 -5v-2v0z" />
    <glyph glyph-name="u" unicode="u" horiz-adv-x="407" 
d="M220 99q0 -5 -6 -10l-10 -11l-13 -13l-22 -21q-5 -6 -23 -21q-12 -11 -18 -14q-7 -5 -15 -8t-13 -3q-21 0 -21 27v11l2 9l7 47q-47 -50 -81 -72t-65 -22q-49 0 -49 56q0 14 3 35t11 52l35 150l1 1q1 5 1 8.5v6.5q0 12 -8 12q-4 0 -11 -4l-7 -4l-6 -4l-3 -1q-5 -3 -6 -3
q-4 0 -4 6q0 3 1.5 4.5t8.5 5.5q3 1 22 12l24 13q5 3 10.5 6t11.5 7q8 5 11 6.5t5 1.5q10 0 10 -12q0 -5 -2 -11v-2l-52 -222q-5 -20 -6.5 -30t-1.5 -19q0 -39 36 -39q6 0 12.5 1.5t10.5 3.5q19 8 43 29q29 26 42.5 45.5t22.5 45.5q6 19 11 40.5t12 56.5q6 30 8 41.5t2 16.5
q0 14 -10 14q-7 0 -11 -3l-10 -5l-6 -3v-1h-2q-2 -2 -3 -2q-3 0 -3 3q-1 1 -1 4q0 2 2.5 4t11.5 7l50 29l3 1q18 11 28 11q5 0 8.5 -4t3.5 -9q0 -3 -1 -8.5t-3 -11.5v-1l-71 -271v-1q-1 -4 -1 -11q0 -14 11 -14q13 0 29 19l16 18l18 19l10 10q1 0 1 1q1 0 1.5 0.5t1.5 0.5
q6 0 6 -7z" />
    <glyph glyph-name="v" unicode="v" horiz-adv-x="352" 
d="M183 294q0 -39 -11 -89q-24 -100 -69 -139q-9 -8 -21.5 -16.5t-27.5 -17.5q-32 -20 -52.5 -28t-40.5 -8q-30 0 -50 22t-20 54q0 9 2 18t5 21l11 40l22 76l12 41q4 14 5 21t1 15q0 21 -18 21q-4 0 -19 -3q-5 -2 -8 -2q-4 0 -4 5q0 6 10 11l21 13q15 10 28 16t20 6
q13 0 20.5 -10.5t7.5 -27.5v-8t-1 -9q-1 -3 -1.5 -6.5t-1.5 -6.5q-2 -8 -5.5 -18.5t-12.5 -38.5q-7 -20 -12 -35.5t-8.5 -27.5t-6.5 -21.5t-6 -18.5q-6 -23 -8.5 -37.5t-2.5 -25.5q0 -23 17 -37.5t45 -14.5q35 0 58.5 21.5t41.5 69.5q16 43 25.5 84.5t9.5 70.5q0 61 -42 61
q-15 0 -29 -10t-25 -27l-7 -11q-3 -4 -5 -4t-2 4q0 5 3.5 14.5t10.5 19.5q15 22 36 35t40 13q29 0 47 -21t18 -54z" />
    <glyph glyph-name="w" unicode="w" horiz-adv-x="537" 
d="M365 283q0 -43 -14 -96q-6 -26 -12.5 -44t-15.5 -33t-21 -28.5t-30 -28.5q-58 -52 -119 -52q-65 0 -65 56q0 24 9 57l17 67l17 64q5 17 7 27t3 12q1 4 3 14q0 4 0.5 9t0.5 9q0 17 -13 17q-8 0 -16 -4q-21 -11 -38.5 -28.5t-40.5 -49.5q-29 -40 -51.5 -76.5t-31.5 -59.5
q-5 -12 -8.5 -23t-6.5 -23t-5.5 -28t-5.5 -39l-7 -4h-45l-3 7l7 20q9 24 16 46.5t13.5 44.5t13 46t12.5 51q9 39 12.5 59t3.5 34q0 17 -11 17q-6 0 -17 -5q-6 -3 -9 -3q-5 0 -5 5q0 6 9 11q1 1 6 4t13 8q6 5 13.5 9.5t18.5 10.5q13 7 19.5 9.5t11.5 2.5q12 0 12 -14
q0 -6 -2.5 -18.5t-6.5 -27.5q-2 -4 -2 -5l-40 -153q9 15 16 26t12 19q12 18 21.5 32t18 25.5t16.5 21.5l16 20q58 68 104 68q32 0 32 -33q0 -13 -3 -26q-2 -7 -6.5 -22.5t-13.5 -47.5q-11 -38 -18.5 -68t-10.5 -41q-4 -17 -6.5 -30t-2.5 -23q0 -21 13.5 -32.5t36.5 -11.5
q26 0 49 12q20 10 31.5 26t22.5 45q16 45 24.5 87t8.5 75q0 58 -33 58q-11 0 -25 -6.5t-26 -20.5l-10 -11l-5 -3q-1 0 -3 2t-2 3q0 5 19 27q34 38 69 38q28 0 43.5 -21.5t15.5 -61.5z" />
    <glyph glyph-name="x" unicode="x" horiz-adv-x="315" 
d="M175 357q0 -3 -2 -7l-13 -21q-5 -8 -8 -9.5t-12 -1.5h-7q-16 0 -24 -4t-19 -18l-70 -92q8 -33 12 -48.5t8 -28.5q14 -47 26.5 -65.5t29.5 -18.5q7 0 11 1q6 2 11 5.5t16 14.5l8 8h1q2 2 4 2q4 0 4 -3q0 -9 -14 -26q-35 -44 -67 -44q-27 0 -41 30q-7 14 -12.5 28t-10.5 30
l-4 14t-4 15t-5 19t-7 28q-7 -9 -11.5 -15.5t-7.5 -11.5q-12 -18 -20.5 -30.5t-16.5 -25.5q-6 -10 -9.5 -17.5t-7.5 -15.5q-4 -10 -9 -20q-4 -10 -5 -13q-4 -10 -6 -13t-5 -3h-50q-4 0 -4 4q0 2 4 7q1 1 1 1.5t1 1.5t2.5 3l4.5 6l7 9l125 162l-18 81q-7 32 -16 43.5
t-25 11.5q-7 0 -12.5 -1.5t-16.5 -6.5l-6 -3l-4 7q20 20 44.5 34.5t40.5 14.5q10 0 17 -7q5 -5 7 -13t7 -32l16 -90l75 102l9 11q13 16 21 23t18 7q9 0 17 -4l11 -4q11 -6 11 -11z" />
    <glyph glyph-name="y" unicode="y" horiz-adv-x="389" 
d="M204 353q0 -7 -1 -14t-4 -17l-83 -297q-7 -24 -13.5 -39.5t-15.5 -31.5q-11 -20 -28 -35t-48 -33l-10 -6q6 -1 10 -1h6q59 0 91.5 18.5t54.5 62.5q4 9 8 9q6 0 6 -6q0 -8 -7.5 -25t-18.5 -31q-25 -35 -61 -52.5t-81 -17.5h-16t-24 1q-11 1 -17.5 1.5t-11.5 0.5
q-20 3 -25 3q-1 0 -3 -0.5t-5 -0.5q-5 0 -8.5 -0.5t-5.5 -0.5q-4 0 -6 -0.5t-3 -0.5h-5q-4 0 -4 4q0 3 1 5q1 1 6 9q5 6 8 10.5l5 7.5q5 5 11.5 6.5t23.5 1.5h14h5q24 0 37.5 3.5t25.5 14.5q17 15 27 34q6 10 10 17.5t7 16t6.5 20.5t9.5 32l16 59l-68 -47q-26 -18 -42 -25.5
t-30 -7.5q-24 0 -40.5 20.5t-16.5 50.5q0 11 3.5 26.5t8.5 35.5l2 7l39 132q10 31 10 48q0 18 -15 18q-9 0 -24 -4q-5 -2 -6.5 -2h-2.5q-3 0 -3 6t9 10l15 7q18 8 35 12.5t28 4.5q23 0 23 -25q0 -8 -3 -17l-1 -2l-58 -199l-1 -7q-10 -33 -10 -54q0 -17 9 -27.5t25 -10.5
q11 0 22 4.5t31 18.5q13 9 21.5 14.5t15.5 11t13.5 10.5t15.5 12l20 72q4 13 6.5 21t3.5 13l6 24t10 41q5 22 7 33.5t2 16.5q0 17 -16 17q-7 0 -14 -3l-9 -4l-6 -2q-11 -3 -10 -3q-4 0 -4 5q0 12 38 26q15 6 33.5 10.5t26.5 4.5q17 0 17 -21z" />
    <glyph glyph-name="z" unicode="z" horiz-adv-x="335" 
d="M155 103q0 -4 -7 -21q-35 -83 -99 -83q-11 0 -26.5 2.5t-44.5 10.5q-17 5 -26 6t-18 3q-8 1 -17 1.5t-16 0.5q-23 0 -40 -8q-8 -4 -10 -4t-5 3q-2 2 -2 5q0 5 14 22q2 2 2 3l114 137h-65l-2 4l29 28h64l88 105l-97 9l-19 2l-14 1q-5 1 -12 1q-17 0 -28.5 -7.5
t-22.5 -24.5q-5 -5 -6 -5q-2 0 -2 2q0 6 8 19l3 6l28 51h9q11 0 22.5 -1t34.5 -5q32 -5 53.5 -7.5t39.5 -2.5q11 0 23 1.5t24 3.5q8 2 10.5 2.5t4.5 0.5q6 0 6 -5q0 -2 -1 -3q-2 -3 -33 -37t-97 -106h79l1 -7l-25 -25h-80l-97 -119q19 -1 26 -1.5t15 -1.5q6 0 11.5 -0.5
t11.5 -1.5t14.5 -3t22.5 -5q32 -7 46.5 -9t23.5 -2q26 0 45.5 17t28.5 46q2 5 5 5q5 0 5 -3z" />
    <glyph glyph-name="braceleft" unicode="{" horiz-adv-x="333" 
d="M293 -42q-36 2 -61 10.5t-44 26.5q-27 25 -33 61q-2 12 -3.5 28.5t-1.5 32.5v18v55v22t-2 16q-2 23 -7.5 37.5t-18.5 26.5q-12 11 -33.5 20t-48.5 14v3q57 10 82 34q8 8 14.5 18.5t8.5 21.5q3 10 3 24q2 10 2 16v22v58v21v13t0.5 9t0.5 9q2 20 6.5 35.5t12.5 28.5
q18 31 52 46q15 7 31.5 10t39.5 4v-16q-31 -2 -51 -9t-35 -22q-20 -20 -27 -50q-2 -7 -2.5 -13.5t-1.5 -14.5q0 -8 -0.5 -20t-0.5 -23v-58q0 -42 -3.5 -63.5t-13.5 -35.5q-13 -20 -40 -33q-9 -5 -17.5 -7.5t-25.5 -5.5q18 -5 26.5 -7.5t16.5 -6.5q26 -11 40 -32
q6 -10 9.5 -23t5.5 -30q1 -10 1.5 -19t0.5 -28v-56v-23t1 -15q1 -33 12 -56q26 -55 105 -58v-16v0z" />
    <glyph glyph-name="bar" unicode="|" horiz-adv-x="222" 
d="M96 -214v1000h30v-1000h-30z" />
    <glyph glyph-name="braceright" unicode="}" horiz-adv-x="333" 
d="M293 326q-26 -5 -48 -14t-34 -20q-8 -8 -14 -18t-9 -21q-1 -5 -2 -11t-1 -14q-1 -10 -1.5 -16t-0.5 -22v-55l1 -18q1 -17 -1.5 -33t-4.5 -28q-6 -36 -33 -61q-19 -18 -44 -26.5t-61 -10.5v16q32 2 53 9.5t37 24.5q18 21 24 52q2 13 3 25.5t1 40.5v56q0 19 0.5 28t1.5 19
q2 17 5.5 30t10.5 23q13 20 39 32q8 4 16.5 6.5t26.5 7.5q-17 3 -25.5 5.5t-17.5 7.5q-27 13 -40 33q-10 14 -13.5 35.5t-3.5 63.5v58q0 40 -3.5 61t-11.5 38q-14 26 -38.5 38.5t-64.5 14.5v16q35 -2 58.5 -9.5t43.5 -24.5q26 -23 35 -58q2 -8 3 -16l2 -16q0 -5 0.5 -9
t0.5 -9.5v-13v-20.5v-58q0 -16 0.5 -22t1.5 -16q2 -23 8 -37.5t18 -26.5q25 -24 82 -34v-3v0z" />
    <glyph glyph-name="asciitilde" unicode="~" horiz-adv-x="593" 
d="M550 300q-4 -17 -7 -25.5t-8 -18.5q-15 -31 -42 -49t-59 -18q-19 0 -40 6q-8 2 -19.5 5.5t-25 7.5t-27 8.5l-25.5 8.5l-57 19q-34 11 -53.5 16t-33.5 5q-31 0 -56 -22.5t-34 -60.5h-25q5 19 8 28t9 21q15 29 41.5 45.5t56.5 16.5q17 0 38.5 -5t59.5 -18l55 -18l48 -16
q35 -12 50.5 -15.5t29.5 -3.5q32 0 56.5 22.5t35.5 60.5h24v0z" />
    <glyph glyph-name="Adieresis" unicode="&#xc4;" horiz-adv-x="704" 
d="M502 776q0 -14 -12.5 -25.5t-32.5 -14.5q-2 15 -5.5 29t-10.5 34q15 12 35 24l3 2q10 -8 16.5 -22t6.5 -27zM371 776q0 -14 -12.5 -25.5t-32.5 -14.5q-1 8 -1 11.5t-2 8.5q-2 8 -5 18.5t-8 24.5l4.5 3t4.5 4q10 7 15.5 10.5t13.5 8.5q10 -8 16.5 -22t6.5 -27zM537 693
q0 -10 -7 -10h-38q-9 -7 -12 -8q-19 -15 -37 -41t-34 -61q-7 -15 -13.5 -32t-12.5 -36q-4 -12 -7.5 -23.5t-7.5 -25t-9 -31.5t-12 -45h136h1q8 0 8 -6q0 -2 -2 -5t-9 -10q-5 -5 -8 -6t-11 -1h-123l-11 -46l-4 -17q-11 -45 -17 -82.5t-6 -65.5q0 -96 80 -96q54 0 86 42
t37 120q1 7 8 7q9 0 9 -7q0 -42 -13 -78.5t-35.5 -63.5t-53 -42.5t-65.5 -15.5q-49 0 -76.5 33.5t-27.5 93.5q0 21 3 45.5t8 50.5q3 15 5.5 25.5t9.5 36.5l16 60h-140l-51 -159q-25 -80 -71 -129q-27 -29 -66 -46.5t-79 -17.5q-29 0 -53.5 10t-42 27.5t-27 42.5t-9.5 55
q0 60 42 116q24 33 57.5 54.5t59.5 21.5q6 0 6 -4q0 -5 -14 -9q-26 -6 -54 -37q-49 -55 -49 -131q0 -60 28 -94.5t78 -34.5q29 0 54.5 13.5t43.5 37.5q10 13 16.5 23.5t12.5 23t11.5 29.5t12.5 42l47 164h-107q-6 0 -6 3q0 7 14 21q8 8 15 8h95l10 34q16 54 32 94t33.5 69.5
t37 49.5t41.5 34q31 19 70.5 27.5t92.5 8.5h94h1q9 0 9 -6zM433 683q-81 0 -130 -34q-40 -28 -68 -81q-13 -25 -21 -42t-15.5 -35.5t-15.5 -43.5t-21 -65h138q19 69 39.5 124.5t43.5 94.5q13 23 35 45q11 11 20.5 18t28.5 19h-34z" />
    <glyph glyph-name="Aring" unicode="&#xc5;" horiz-adv-x="704" 
d="M514 816q0 -18 -7 -34t-18.5 -28t-27 -19t-33.5 -7q-37 0 -63 25.5t-26 61.5t26 61.5t63 25.5q18 0 33.5 -7t27.5 -18.5t18.5 -27t6.5 -33.5zM537 693q0 -10 -7 -10h-38q-9 -7 -12 -8q-19 -15 -37 -41t-34 -61q-7 -15 -13.5 -32t-12.5 -36q-4 -12 -7.5 -23.5t-7.5 -25
t-9 -31.5t-12 -45h136h1q8 0 8 -6q0 -2 -2 -5t-9 -10q-5 -5 -8 -6t-11 -1h-123l-11 -46l-4 -17q-11 -45 -17 -82.5t-6 -65.5q0 -96 80 -96q54 0 86 42t37 120q1 7 8 7q9 0 9 -7q0 -42 -13 -78.5t-35.5 -63.5t-53 -42.5t-65.5 -15.5q-49 0 -76.5 33.5t-27.5 93.5q0 21 3 45.5
t8 50.5q3 15 5.5 25.5t9.5 36.5l16 60h-140l-51 -159q-25 -80 -71 -129q-27 -29 -66 -46.5t-79 -17.5q-29 0 -53.5 10t-42 27.5t-27 42.5t-9.5 55q0 60 42 116q24 33 57.5 54.5t59.5 21.5q6 0 6 -4q0 -5 -14 -9q-26 -6 -54 -37q-49 -55 -49 -131q0 -60 28 -94.5t78 -34.5
q29 0 54.5 13.5t43.5 37.5q10 13 16.5 23.5t12.5 23t11.5 29.5t12.5 42l47 164h-107q-6 0 -6 3q0 7 14 21q8 8 15 8h95l10 34q16 54 32 94t33.5 69.5t37 49.5t41.5 34q31 19 70.5 27.5t92.5 8.5h94h1q9 0 9 -6zM492 816q0 27 -19 46t-46 19t-46 -19t-19 -46q0 -29 19 -48.5
t46 -19.5t46 19.5t19 48.5zM433 683q-81 0 -130 -34q-40 -28 -68 -81q-13 -25 -21 -42t-15.5 -35.5t-15.5 -43.5t-21 -65h138q19 69 39.5 124.5t43.5 94.5q13 23 35 45q11 11 20.5 18t28.5 19h-34z" />
    <glyph glyph-name="Ccedilla" unicode="&#xc7;" horiz-adv-x="518" 
d="M419 607q0 -42 -20 -83t-58 -78q-44 -43 -98 -68q-18 -9 -40 -16.5t-44 -13t-43.5 -8.5t-39.5 -3h-18q-12 0 -17 0.5t-14 2.5q-5 -10 -8.5 -17.5t-6.5 -15t-6 -16t-6 -20.5q-10 -33 -14 -60t-4 -53q0 -69 34 -108.5t92 -39.5q32 0 62 14.5t55 40.5q9 9 16.5 19t15.5 21
q31 46 48 98q2 5 6.5 21t12.5 43q2 8 6 8q8 0 8 -19q0 -17 -5.5 -38.5t-14.5 -44t-21.5 -44.5t-27.5 -41q-84 -107 -188 -107q-5 0 -7 0.5t-6 0.5l-10 -26h5q20 0 29.5 -1.5t20.5 -6.5q17 -8 27 -22.5t10 -32.5q0 -35 -29 -56.5t-74 -21.5q-20 0 -41.5 4t-36.5 12l10 20
q28 -13 59 -13q30 0 49 14.5t19 37.5q0 42 -76 48l19 47q-54 11 -83.5 53t-29.5 110q0 26 5 56t13 60q3 13 6 23t7 20t8.5 20.5t11.5 24.5q-87 47 -87 126q0 32 15 62t39.5 52.5t57 36t68.5 13.5q10 0 10 -5q0 -3 -1.5 -4t-7.5 -2q-18 -1 -38.5 -7.5t-37.5 -16.5
q-70 -43 -70 -123q0 -24 5.5 -42t19.5 -38q10 -14 16 -19.5t19 -12.5l12 22q25 47 48 80.5t53 68.5q12 14 25.5 29t28.5 29q51 49 92 72t80 23t62 -23.5t23 -65.5zM382 589q0 32 -21.5 52t-55.5 20q-31 0 -58.5 -14t-62.5 -49q-17 -17 -32 -34t-27 -34q-12 -16 -21.5 -30.5
t-19 -32.5t-21.5 -43.5t-29 -62.5q3 -1 5.5 -1t4.5 -1q10 -2 23 -2q8 -1 13.5 -1h9.5q31 0 68.5 8t63.5 20q32 15 61 39t51 52t35 58t13 56z" />
    <glyph glyph-name="Eacute" unicode="&#xc9;" horiz-adv-x="500" 
d="M435 839q0 -7 -4.5 -12t-18.5 -14q-2 -1 -3.5 -2t-3.5 -2l-121 -81h-26l107 97q23 22 33 29t18 7t13.5 -6.5t5.5 -15.5zM386 621q0 -42 -21.5 -86.5t-56.5 -73.5q-21 -18 -50 -36q-14 -8 -19 -8q-3 0 -3 2t3 4l22 16q19 14 37 33t29 38q23 40 23 80q0 69 -68 69
q-58 0 -111 -49q-22 -21 -46 -51q-18 -23 -30.5 -42.5t-23.5 -41t-20.5 -47.5t-21.5 -62h266q4 0 4 -4q0 -5 -11 -13q-10 -8 -18.5 -10.5t-28.5 -2.5h-4h-218q-8 -20 -9 -30q-9 -29 -13.5 -66t-4.5 -67q0 -79 29.5 -123t83.5 -44q30 0 59.5 14.5t54.5 41.5q32 35 54 80.5
t24 82.5l3 44q0 6 6 6q5 0 5 -9v-3v-8q0 -2 0.5 -3.5t0.5 -3.5q0 -54 -19 -105t-50 -90.5t-71 -63.5t-83 -24q-64 0 -102 52t-38 139q0 22 2.5 52.5t7.5 59.5q4 22 6.5 35t9.5 35h-24q-24 0 -39 -2t-26 -7h-3q-2 0 -2 1q-1 1 -1 3q0 3 2 5l25 31q3 4 6 4q1 0 2 -1
q5 -1 11 -1.5t13 -0.5h3h43q3 9 5.5 15.5t4.5 11.5q47 117 165 218q35 31 71 53q23 15 42 20.5t39 5.5q35 0 54.5 -19t19.5 -54z" />
    <glyph glyph-name="Ntilde" unicode="&#xd1;" horiz-adv-x="815" 
d="M604 841q-2 -33 -24.5 -55t-54.5 -22q-10 0 -19 1.5t-35 6.5l-16 3q-10 2 -16 3t-12 1q-19 0 -29 -7.5t-15 -24.5h-15q18 75 73 75q12 0 29 -4l14 -3q23 -5 33.5 -6.5t19.5 -1.5q44 0 53 34h14v0zM674 679q0 -5 -1 -12.5t-2 -14.5q-2 -7 -2.5 -13t-2.5 -11q-2 -9 -7 -27
t-11 -38l-36 -125l-54 -186l-49 -168l-9 -32q11 -12 25.5 -19.5t31.5 -7.5q11 0 21.5 4t24.5 12q13 7 20 12t21 17q4 3 7 3q1 0 2 -1t1 -3q0 -8 -22 -25q-26 -20 -42 -30q-17 -11 -38 -17.5t-40 -6.5q-21 0 -37 7t-29.5 25t-25.5 48.5t-25 76.5l-24 83l-27 97l-32 111
q-7 24 -11.5 39t-8 25.5t-7 20.5t-8.5 24l-3 -18q-24 -138 -55 -257q-19 -76 -47 -135q-15 -31 -37.5 -57.5t-48.5 -46t-54 -31t-54 -11.5t-49.5 12t-41 32.5t-27.5 47.5t-10 58q0 15 1.5 29t6.5 27q7 22 20.5 45t27.5 36l30 29q7 7 12 9q2 0 2 -1l2 -2q0 -3 -7 -10
q-11 -10 -22.5 -25t-17.5 -27q-8 -17 -13.5 -39.5t-5.5 -45.5q0 -27 9.5 -50t26 -40t39 -26.5t49.5 -9.5q37 0 70 17.5t49 44.5q18 29 37 90q15 46 25 79.5t15 55.5l40 178q7 29 10 49.5t3 32.5t-5.5 30.5t-13.5 29.5q-11 17 -30 17q-35 0 -70 -47q-31 -42 -47.5 -93
t-16.5 -106v-11t1 -12l1.5 -12t0.5 -6q0 -3 -4 -3t-5 7q-2 7 -3 12t-1 9q-1 6 -3 22q0 10 -0.5 17.5t-0.5 12.5q0 29 5.5 58.5t16.5 52.5q12 28 31.5 52t43.5 42t49.5 28.5t49.5 10.5q21 0 33 -21q7 -13 13.5 -28t11.5 -32q6 -23 14 -51t17 -63q12 -45 23.5 -85.5
t22.5 -78.5q14 -50 25 -85t23 -72l19 -57q7 -23 11 -31.5t11 -21.5q4 15 6 19q5 17 15 59t27 111l44 180l28 129q9 40 9 64q0 27 -18 27q-4 0 -7.5 -1t-13.5 -6q-6 -2 -7.5 -3t-3.5 -1q-4 0 -4 4q0 2 5 6t21 14l18 11q34 20 50 20q23 0 23 -26z" />
    <glyph glyph-name="Odieresis" unicode="&#xd6;" horiz-adv-x="611" 
d="M387 776q0 -14 -12.5 -25.5t-31.5 -14.5q-2 15 -5.5 29t-10.5 34q7 5 16 11.5t18 12.5l4 2q10 -8 16 -22t6 -27zM257 776q0 -14 -13 -25.5t-32 -14.5q-1 8 -1.5 11.5t-1.5 8.5q-2 8 -5 18.5t-8 24.5q2 2 3.5 3t5.5 4l15 10.5t14 8.5q10 -8 16.5 -22t6.5 -27zM454 477
q0 -45 -8.5 -92t-24.5 -93t-38 -88t-50 -76q-24 -30 -53 -55t-59 -43t-59.5 -28t-55.5 -10q-33 0 -69 18.5t-62 48.5q-29 35 -45.5 83.5t-16.5 103.5q0 51 11.5 102.5t33 100t51.5 91.5t67 77q15 14 33 27.5t36 25t35.5 20t32.5 13.5q2 0 3.5 0.5t3.5 0.5q3 0 3 -3
q0 -5 -7 -6q-25 -7 -64 -40q-56 -46 -99 -110q-42 -63 -62 -131t-20 -149q0 -114 49 -173q22 -26 54 -41t68 -15q100 0 172 98q31 42 47 87q20 53 32 115t12 112q0 96 -29.5 147.5t-83.5 51.5q-5 0 -11 -0.5t-14 -1.5q-2 -1 -4 -1q-4 0 -4 3q0 5 3 10l1 2l27 38q4 6 10 6
q15 0 35 -8t37 -20q39 -29 60.5 -79.5t21.5 -118.5z" />
    <glyph glyph-name="Udieresis" unicode="&#xdc;" horiz-adv-x="704" 
d="M421 776q0 -14 -12.5 -25.5t-32.5 -14.5q-2 15 -5.5 29t-10.5 34q15 12 35 24l3 2q10 -8 16.5 -22t6.5 -27zM290 776q0 -14 -12.5 -25.5t-32.5 -14.5q-1 8 -1.5 11.5t-1.5 8.5q-2 8 -5 18.5t-8 24.5l4.5 3t4.5 4l15 10.5t14 8.5q10 -8 16.5 -22t6.5 -27zM542 183
q0 -39 -22 -82q-25 -48 -59 -76t-66 -28q-23 0 -36.5 16t-13.5 45q0 17 4.5 41.5t12.5 50.5q23 73 44.5 145.5t43.5 146.5q10 31 10 59q0 25 -9.5 38.5t-33.5 21.5q-14 -93 -40 -181t-63 -166q-50 -107 -105 -163t-110 -56q-38 0 -62.5 30.5t-24.5 78.5q0 28 11 69
q6 24 27 91l29 90l28 87q13 39 21 66.5t11 43.5q3 14 5 30t2 28q0 25 -13 39t-36 14q-16 0 -34.5 -8.5t-37.5 -23.5t-37.5 -36t-34.5 -46q-33 -53 -51.5 -115.5t-18.5 -120.5q0 -12 1 -23t4 -27q3 -11 3 -13q0 -4 -5 -4q-6 0 -8 11l-7 30q-2 9 -3.5 25.5t-1.5 34.5
q0 35 4 64.5t13.5 56t24.5 51.5t36 52q45 56 98 89.5t96 33.5q29 0 46.5 -20t17.5 -53q0 -6 -1 -15.5t-3 -18.5q-3 -16 -7 -32t-10 -36t-14.5 -46t-20.5 -63q-13 -38 -21 -63t-14 -42t-9.5 -30t-7.5 -26q-22 -79 -22 -131q0 -79 59 -79q65 0 120 86q33 52 60 114t47 129
q17 57 27 109.5t10 81.5q0 11 -2 13q0 1 -4 5q-6 8 -9 12.5t-6 11.5q-8 19 -8 42q0 56 34 56q28 0 28 -40v-6l-1 -56l9 -2q41 -9 57.5 -27t16.5 -50q0 -17 -3 -34t-11 -43l-68 -234q-5 -17 -9.5 -34t-8.5 -34q-5 -22 -7 -37t-2 -29q0 -38 24 -38q12 0 26.5 9t28.5 26
q22 26 34 59.5t12 66.5v5q0 10 7 10q9 0 9 -27z" />
    <glyph glyph-name="aacute" unicode="&#xe1;" horiz-adv-x="370" 
d="M208 523q0 -7 -4.5 -12t-18.5 -14q-2 -1 -3.5 -2t-3.5 -2l-121 -81h-26l107 97q23 22 33.5 29t18.5 7q7 0 12.5 -6.5t5.5 -15.5zM181 79q0 -8 -25 -33q-30 -30 -44.5 -40.5t-25.5 -10.5q-21 0 -21 23q0 8 2.5 22t7.5 36l13 64q-39 -66 -81.5 -105t-76.5 -39
q-27 0 -43.5 24t-16.5 64q0 69 32 133.5t88 106.5q53 41 102 41q32 0 51.5 -17t22.5 -46l-50 -251v-1q-1 -2 -1 -5.5v-5.5q0 -8 4 -8q2 0 6 2q2 2 3.5 3t3.5 3q8 8 20 19.5t18 19.5q5 5 7 5q4 0 4 -4zM119 279q0 17 -3.5 25.5t-11.5 15.5q-18 15 -45 15q-55 0 -90 -55
q-13 -19 -23.5 -41.5t-18 -45.5t-11.5 -46t-4 -43q0 -31 13 -51.5t32 -20.5q10 0 26 8t29 19q32 28 54 62q11 18 20.5 39t17 42.5t11.5 41.5t4 35z" />
    <glyph glyph-name="agrave" unicode="&#xe0;" horiz-adv-x="370" 
d="M156 412l-127 82q-17 11 -23 18t-6 15t6 14t15 6q13 0 38 -23l119 -112h-22zM181 79q0 -8 -25 -33q-30 -30 -44.5 -40.5t-25.5 -10.5q-21 0 -21 23q0 8 2.5 22t7.5 36l13 64q-39 -66 -81.5 -105t-76.5 -39q-27 0 -43.5 24t-16.5 64q0 69 32 133.5t88 106.5q53 41 102 41
q32 0 51.5 -17t22.5 -46l-50 -251v-1q-1 -2 -1 -5.5v-5.5q0 -8 4 -8q2 0 6 2q2 2 3.5 3t3.5 3q8 8 20 19.5t18 19.5q5 5 7 5q4 0 4 -4zM119 279q0 17 -3.5 25.5t-11.5 15.5q-18 15 -45 15q-55 0 -90 -55q-13 -19 -23.5 -41.5t-18 -45.5t-11.5 -46t-4 -43q0 -31 13 -51.5
t32 -20.5q10 0 26 8t29 19q32 28 54 62q11 18 20.5 39t17 42.5t11.5 41.5t4 35z" />
    <glyph glyph-name="acircumflex" unicode="&#xe2;" horiz-adv-x="370" 
d="M185 414l-67 85l-130 -87h-22l143 130h35l62 -130zM181 79q0 -8 -25 -33q-30 -30 -44.5 -40.5t-25.5 -10.5q-21 0 -21 23q0 8 2.5 22t7.5 36l13 64q-39 -66 -81.5 -105t-76.5 -39q-27 0 -43.5 24t-16.5 64q0 69 32 133.5t88 106.5q53 41 102 41q32 0 51.5 -17t22.5 -46
l-50 -251v-1q-1 -2 -1 -5.5v-5.5q0 -8 4 -8q2 0 6 2q2 2 3.5 3t3.5 3q8 8 20 19.5t18 19.5q5 5 7 5q4 0 4 -4zM119 279q0 17 -3.5 25.5t-11.5 15.5q-18 15 -45 15q-55 0 -90 -55q-13 -19 -23.5 -41.5t-18 -45.5t-11.5 -46t-4 -43q0 -31 13 -51.5t32 -20.5q10 0 26 8t29 19
q32 28 54 62q11 18 20.5 39t17 42.5t11.5 41.5t4 35z" />
    <glyph glyph-name="adieresis" unicode="&#xe4;" horiz-adv-x="370" 
d="M196 460q0 -14 -12.5 -25.5t-31.5 -14.5q-2 15 -5.5 29t-11.5 34q8 6 17 12.5t18 11.5l4 2q9 -8 15.5 -22t6.5 -27zM66 460q0 -14 -13 -25.5t-32 -14.5q-1 8 -1.5 11.5t-1.5 8.5q-4 16 -13 43q2 2 3.5 3t5.5 4l15 10.5t14 8.5q10 -8 16.5 -22t6.5 -27zM181 79
q0 -8 -25 -33q-30 -30 -44.5 -40.5t-25.5 -10.5q-21 0 -21 23q0 8 2.5 22t7.5 36l13 64q-39 -66 -81.5 -105t-76.5 -39q-27 0 -43.5 24t-16.5 64q0 69 32 133.5t88 106.5q53 41 102 41q32 0 51.5 -17t22.5 -46l-50 -251v-1q-1 -2 -1 -5.5v-5.5q0 -8 4 -8q2 0 6 2q2 2 3.5 3
t3.5 3q8 8 20 19.5t18 19.5q5 5 7 5q4 0 4 -4zM119 279q0 17 -3.5 25.5t-11.5 15.5q-18 15 -45 15q-55 0 -90 -55q-13 -19 -23.5 -41.5t-18 -45.5t-11.5 -46t-4 -43q0 -31 13 -51.5t32 -20.5q10 0 26 8t29 19q32 28 54 62q11 18 20.5 39t17 42.5t11.5 41.5t4 35z" />
    <glyph glyph-name="atilde" unicode="&#xe3;" horiz-adv-x="370" 
d="M220 526q-2 -34 -25 -56t-55 -22q-9 0 -18 0.5t-35 7.5l-16 4q-10 2 -16 2.5t-12 0.5q-19 0 -29 -7.5t-15 -24.5h-15q16 75 73 75q7 0 13 -1t15 -3l15 -3q23 -5 33.5 -6.5t19.5 -1.5q43 0 53 35h14v0zM181 79q0 -8 -25 -33q-30 -30 -44.5 -40.5t-25.5 -10.5q-21 0 -21 23
q0 8 2.5 22t7.5 36l13 64q-39 -66 -81.5 -105t-76.5 -39q-27 0 -43.5 24t-16.5 64q0 69 32 133.5t88 106.5q53 41 102 41q32 0 51.5 -17t22.5 -46l-50 -251v-1q-1 -2 -1 -5.5v-5.5q0 -8 4 -8q2 0 6 2q2 2 3.5 3t3.5 3q8 8 20 19.5t18 19.5q5 5 7 5q4 0 4 -4zM119 279
q0 17 -3.5 25.5t-11.5 15.5q-18 15 -45 15q-55 0 -90 -55q-13 -19 -23.5 -41.5t-18 -45.5t-11.5 -46t-4 -43q0 -31 13 -51.5t32 -20.5q10 0 26 8t29 19q32 28 54 62q11 18 20.5 39t17 42.5t11.5 41.5t4 35z" />
    <glyph glyph-name="aring" unicode="&#xe5;" horiz-adv-x="370" 
d="M209 500q0 -18 -7 -34t-18.5 -28t-27 -19t-33.5 -7q-38 0 -63.5 25.5t-25.5 61.5t25.5 61.5t62.5 25.5q18 0 34 -7t27.5 -18.5t18.5 -27t7 -33.5zM181 79q0 -8 -25 -33q-30 -30 -44.5 -40.5t-25.5 -10.5q-21 0 -21 23q0 8 2.5 22t7.5 36l13 64q-39 -66 -81.5 -105
t-76.5 -39q-27 0 -43.5 24t-16.5 64q0 69 32 133.5t88 106.5q53 41 102 41q32 0 51.5 -17t22.5 -46l-50 -251v-1q-1 -2 -1 -5.5v-5.5q0 -8 4 -8q2 0 6 2q2 2 3.5 3t3.5 3q8 8 20 19.5t18 19.5q5 5 7 5q4 0 4 -4zM187 500q0 27 -19 46t-46 19t-46 -19t-19 -46
q0 -29 18.5 -48.5t45.5 -19.5t46.5 20t19.5 48zM119 279q0 17 -3.5 25.5t-11.5 15.5q-18 15 -45 15q-55 0 -90 -55q-13 -19 -23.5 -41.5t-18 -45.5t-11.5 -46t-4 -43q0 -31 13 -51.5t32 -20.5q10 0 26 8t29 19q32 28 54 62q11 18 20.5 39t17 42.5t11.5 41.5t4 35z" />
    <glyph glyph-name="ccedilla" unicode="&#xe7;" horiz-adv-x="296" 
d="M133 335q0 -5 -3.5 -15.5t-7.5 -18.5l-5 -11q-4 -7 -8 -7q-1 0 -4 4q-10 27 -29.5 42.5t-42.5 15.5t-43.5 -17.5t-37 -47t-26 -67.5t-9.5 -78q0 -97 72 -97q67 0 105 95l3 7.5t2 4.5q0 2 1 2q1 3 3 3q5 0 5 -5q0 -8 -8 -26t-18 -34q-23 -37 -56 -60t-64 -25l-18 -44h5
q20 0 30 -1.5t21 -6.5q17 -8 26.5 -22.5t9.5 -32.5q0 -35 -28.5 -56.5t-73.5 -21.5q-21 0 -42.5 4t-36.5 12l11 20q12 -6 28 -9.5t30 -3.5q30 0 49 14.5t19 37.5q0 42 -75 48l26 63q-32 7 -51 37t-19 74q0 48 18 98t50 92q51 68 119 68q14 0 27 -3t29 -12q17 -9 17 -20z" />
    <glyph glyph-name="eacute" unicode="&#xe9;" horiz-adv-x="259" 
d="M153 523q0 -7 -4.5 -12t-18.5 -14q-2 -1 -3.5 -2t-3.5 -2l-122 -81h-25l106 97q24 22 34 29t18 7t13.5 -6.5t5.5 -15.5zM102 313q0 -17 -9.5 -36t-26 -38t-39 -36.5t-47.5 -32.5l-17 -10l-12 -6q-2 -1 -7 -1q-4 0 -4 3t6 7h1q2 2 6 4q46 27 71.5 61t25.5 69q0 17 -9.5 27
t-26.5 10q-24 0 -42 -20q-23 -26 -38.5 -76.5t-15.5 -106.5q0 -97 65 -97q25 0 48.5 11.5t40.5 31.5l11 13q2 2 3 2q3 0 3 -3q0 -13 -26 -39q-54 -54 -103 -54q-41 0 -64.5 31t-23.5 85q0 49 16 96.5t46 86.5q27 34 59 54t60 20q20 0 34.5 -16.5t14.5 -39.5z" />
    <glyph glyph-name="egrave" unicode="&#xe8;" horiz-adv-x="259" 
d="M101 412l-128 82q-17 11 -23 18t-6 15t6.5 14t14.5 6q14 0 39 -23l119 -112h-22zM102 313q0 -17 -9.5 -36t-26 -38t-39 -36.5t-47.5 -32.5l-17 -10l-12 -6q-2 -1 -7 -1q-4 0 -4 3t6 7h1q2 2 6 4q46 27 71.5 61t25.5 69q0 17 -9.5 27t-26.5 10q-24 0 -42 -20
q-23 -26 -38.5 -76.5t-15.5 -106.5q0 -97 65 -97q25 0 48.5 11.5t40.5 31.5l11 13q2 2 3 2q3 0 3 -3q0 -13 -26 -39q-54 -54 -103 -54q-41 0 -64.5 31t-23.5 85q0 49 16 96.5t46 86.5q27 34 59 54t60 20q20 0 34.5 -16.5t14.5 -39.5z" />
    <glyph glyph-name="ecircumflex" unicode="&#xea;" horiz-adv-x="259" 
d="M148 414l-67 85l-130 -87h-22l143 130h34l63 -130zM102 313q0 -17 -9.5 -36t-26 -38t-39 -36.5t-47.5 -32.5l-17 -10l-12 -6q-2 -1 -7 -1q-4 0 -4 3t6 7h1q2 2 6 4q46 27 71.5 61t25.5 69q0 17 -9.5 27t-26.5 10q-24 0 -42 -20q-23 -26 -38.5 -76.5t-15.5 -106.5
q0 -97 65 -97q25 0 48.5 11.5t40.5 31.5l11 13q2 2 3 2q3 0 3 -3q0 -13 -26 -39q-54 -54 -103 -54q-41 0 -64.5 31t-23.5 85q0 49 16 96.5t46 86.5q27 34 59 54t60 20q20 0 34.5 -16.5t14.5 -39.5z" />
    <glyph glyph-name="edieresis" unicode="&#xeb;" horiz-adv-x="259" 
d="M141 460q0 -14 -12.5 -25.5t-32.5 -14.5q-2 15 -5.5 29t-10.5 34q15 13 35 24l3 2q10 -8 16.5 -22t6.5 -27zM10 460q0 -14 -12.5 -25.5t-32.5 -14.5q-1 8 -1.5 11.5t-1.5 8.5q-4 16 -13 43l4.5 3t4.5 4l15 10.5t14 8.5q10 -8 16.5 -22t6.5 -27zM102 313q0 -17 -9.5 -36
t-26 -38t-39 -36.5t-47.5 -32.5l-17 -10l-12 -6q-2 -1 -7 -1q-4 0 -4 3t6 7h1q2 2 6 4q46 27 71.5 61t25.5 69q0 17 -9.5 27t-26.5 10q-24 0 -42 -20q-23 -26 -38.5 -76.5t-15.5 -106.5q0 -97 65 -97q25 0 48.5 11.5t40.5 31.5l11 13q2 2 3 2q3 0 3 -3q0 -13 -26 -39
q-54 -54 -103 -54q-41 0 -64.5 31t-23.5 85q0 49 16 96.5t46 86.5q27 34 59 54t60 20q20 0 34.5 -16.5t14.5 -39.5z" />
    <glyph glyph-name="iacute" unicode="&#xed;" 
d="M108 523q0 -7 -5 -12t-19 -14q-2 -1 -3 -2t-3 -2l-122 -81h-25l106 97q24 22 34 29t18 7t13.5 -6.5t5.5 -15.5zM28 112q0 -5 -7 -18.5t-17 -26.5q-15 -21 -38 -41q-18 -16 -31.5 -22.5t-27.5 -6.5q-30 0 -30 36q0 22 10 55l2 7l52 176q11 38 11 51q0 9 -6 9q-8 0 -24 -9
q-9 -3 -8 -3q-4 0 -4 6q0 2 2 4l70 46q8 5 11 5q12 0 12 -26q0 -10 -2.5 -24t-10.5 -41l-36 -126l-2 -9q-8 -38 -15.5 -64.5t-7.5 -35.5q0 -15 14 -15q31 0 68 63l4 8l1 1q2 5 7 5q3 0 3 -4z" />
    <glyph glyph-name="igrave" unicode="&#xec;" 
d="M56 412l-128 82q-17 11 -23 18t-6 15t6.5 14t14.5 6q13 0 38 -23l120 -112h-22zM28 112q0 -5 -7 -18.5t-17 -26.5q-15 -21 -38 -41q-18 -16 -31.5 -22.5t-27.5 -6.5q-30 0 -30 36q0 22 10 55l2 7l52 176q11 38 11 51q0 9 -6 9q-8 0 -24 -9q-9 -3 -8 -3q-4 0 -4 6q0 2 2 4
l70 46q8 5 11 5q12 0 12 -26q0 -10 -2.5 -24t-10.5 -41l-36 -126l-2 -9q-8 -38 -15.5 -64.5t-7.5 -35.5q0 -15 14 -15q31 0 68 63l4 8l1 1q2 5 7 5q3 0 3 -4z" />
    <glyph glyph-name="icircumflex" unicode="&#xee;" 
d="M85 414l-68 85l-129 -87h-22l142 130h35l62 -130zM28 112q0 -5 -7 -18.5t-17 -26.5q-15 -21 -38 -41q-18 -16 -31.5 -22.5t-27.5 -6.5q-30 0 -30 36q0 22 10 55l2 7l52 176q11 38 11 51q0 9 -6 9q-8 0 -24 -9q-9 -3 -8 -3q-4 0 -4 6q0 2 2 4l70 46q8 5 11 5q12 0 12 -26
q0 -10 -2.5 -24t-10.5 -41l-36 -126l-2 -9q-8 -38 -15.5 -64.5t-7.5 -35.5q0 -15 14 -15q31 0 68 63l4 8l1 1q2 5 7 5q3 0 3 -4z" />
    <glyph glyph-name="idieresis" unicode="&#xef;" 
d="M96 460q0 -14 -13 -25.5t-32 -14.5q-2 15 -5.5 29t-10.5 34q15 13 35 24l3 2q10 -8 16.5 -22t6.5 -27zM-35 460q0 -14 -12.5 -25.5t-32.5 -14.5q-1 8 -1.5 11.5t-1.5 8.5q-4 16 -13 43q2 2 3.5 3t5.5 4l15 10.5t14 8.5q10 -8 16.5 -22t6.5 -27zM28 112q0 -5 -7 -18.5
t-17 -26.5q-15 -21 -38 -41q-18 -16 -31.5 -22.5t-27.5 -6.5q-30 0 -30 36q0 22 10 55l2 7l52 176q11 38 11 51q0 9 -6 9q-8 0 -24 -9q-9 -3 -8 -3q-4 0 -4 6q0 2 2 4l70 46q8 5 11 5q12 0 12 -26q0 -10 -2.5 -24t-10.5 -41l-36 -126l-2 -9q-8 -38 -15.5 -64.5t-7.5 -35.5
q0 -15 14 -15q31 0 68 63l4 8l1 1q2 5 7 5q3 0 3 -4z" />
    <glyph glyph-name="ntilde" unicode="&#xf1;" horiz-adv-x="407" 
d="M238 526q-2 -34 -24.5 -56t-54.5 -22q-9 0 -18.5 0.5t-35.5 7.5l-16 4q-9 2 -15 2.5t-13 0.5q-19 0 -29 -7.5t-15 -24.5h-15q18 75 74 75q6 0 12.5 -1t15.5 -3l15 -3q23 -5 33 -6.5t20 -1.5q43 0 53 35h13v0zM209 320q0 -21 -7 -43l-1 -6l-48 -171q-7 -27 -7 -40
q0 -18 14 -18h5l4 2l6 4l5 2.5t3 0.5q6 0 6 -7q0 -4 -2 -6.5t-8 -7.5q-43 -31 -65 -31q-23 0 -23 37q0 12 2 24t7 30l35 123q9 33 13 53t4 34q0 25 -20 25q-10 0 -25.5 -8.5t-33 -22.5t-35 -32.5t-32.5 -38.5q-20 -26 -32 -53t-21 -60q-4 -15 -7.5 -34.5t-6.5 -36.5
q-1 -10 -2 -16t-2 -9q-1 -4 -1 -7q-1 -7 -9 -7h-36q-6 0 -6 5q0 2 2 10l36 145q2 9 3 14.5t2 7.5q2 8 4.5 20t5.5 29q6 31 9 50.5t3 33.5q0 10 -6 10q-2 0 -5.5 -0.5t-13.5 -2.5h-4v12l81 39q3 1 7 1q10 0 10 -9q0 -5 -1 -7v-3l-1 -1l-12 -51l-29 -104q4 5 7 9.5t5 6.5
q13 18 25 32.5t25 27t27.5 24.5t32.5 26q28 20 46.5 29t33.5 9t24 -11.5t9 -31.5z" />
    <glyph glyph-name="oacute" unicode="&#xf3;" horiz-adv-x="352" 
d="M199 523q0 -7 -4.5 -12t-18.5 -14q-2 -1 -3.5 -2t-3.5 -2l-122 -81h-25l107 97q23 22 33 29t18 7t13.5 -6.5t5.5 -15.5zM172 273q0 -45 -22 -96t-60 -98q-32 -38 -64.5 -58.5t-61.5 -20.5q-19 0 -35 9.5t-28 26.5t-19 40t-7 50q0 47 24.5 97t64.5 85q24 21 46 34.5
t30 13.5q2 0 2 -2t-2 -4h-1q-7 -5 -13 -10t-13 -11q-41 -37 -65 -88.5t-24 -102.5q0 -48 17.5 -76.5t46.5 -28.5q26 0 50.5 17.5t43 46.5t30 66t11.5 77q0 18 -2.5 32.5t-7.5 29.5q-6 15 -13.5 20t-24.5 6q-12 0 -16 1t-4 4t13 10l2 1l39 18q4 2 6 2.5t4 0.5q13 0 25 -17
q14 -17 21 -36.5t7 -38.5z" />
    <glyph glyph-name="ograve" unicode="&#xf2;" horiz-adv-x="352" 
d="M147 412l-127 82q-17 11 -23 18t-6 15t6 14t15 6q13 0 38 -23l119 -112h-22zM172 273q0 -45 -22 -96t-60 -98q-32 -38 -64.5 -58.5t-61.5 -20.5q-19 0 -35 9.5t-28 26.5t-19 40t-7 50q0 47 24.5 97t64.5 85q24 21 46 34.5t30 13.5q2 0 2 -2t-2 -4h-1q-7 -5 -13 -10
t-13 -11q-41 -37 -65 -88.5t-24 -102.5q0 -48 17.5 -76.5t46.5 -28.5q26 0 50.5 17.5t43 46.5t30 66t11.5 77q0 18 -2.5 32.5t-7.5 29.5q-6 15 -13.5 20t-24.5 6q-12 0 -16 1t-4 4t13 10l2 1l39 18q4 2 6 2.5t4 0.5q13 0 25 -17q14 -17 21 -36.5t7 -38.5z" />
    <glyph glyph-name="ocircumflex" unicode="&#xf4;" horiz-adv-x="352" 
d="M176 414l-67 85l-130 -87h-22l143 130h34l63 -130zM172 273q0 -45 -22 -96t-60 -98q-32 -38 -64.5 -58.5t-61.5 -20.5q-19 0 -35 9.5t-28 26.5t-19 40t-7 50q0 47 24.5 97t64.5 85q24 21 46 34.5t30 13.5q2 0 2 -2t-2 -4h-1q-7 -5 -13 -10t-13 -11q-41 -37 -65 -88.5
t-24 -102.5q0 -48 17.5 -76.5t46.5 -28.5q26 0 50.5 17.5t43 46.5t30 66t11.5 77q0 18 -2.5 32.5t-7.5 29.5q-6 15 -13.5 20t-24.5 6q-12 0 -16 1t-4 4t13 10l2 1l39 18q4 2 6 2.5t4 0.5q13 0 25 -17q14 -17 21 -36.5t7 -38.5z" />
    <glyph glyph-name="odieresis" unicode="&#xf6;" horiz-adv-x="352" 
d="M187 460q0 -14 -12.5 -25.5t-32.5 -14.5q-2 15 -5.5 29t-10.5 34q8 6 16.5 12.5t18.5 11.5l3 2q10 -8 16.5 -22t6.5 -27zM56 460q0 -14 -12.5 -25.5t-31.5 -14.5q-2 8 -2 11.5t-2 8.5q-3 17 -13 43l4.5 3t5.5 4l15 10.5t14 8.5q10 -8 16 -22t6 -27zM172 273
q0 -45 -22 -96t-60 -98q-32 -38 -64.5 -58.5t-61.5 -20.5q-19 0 -35 9.5t-28 26.5t-19 40t-7 50q0 47 24.5 97t64.5 85q24 21 46 34.5t30 13.5q2 0 2 -2t-2 -4h-1q-7 -5 -13 -10t-13 -11q-41 -37 -65 -88.5t-24 -102.5q0 -48 17.5 -76.5t46.5 -28.5q26 0 50.5 17.5t43 46.5
t30 66t11.5 77q0 18 -2.5 32.5t-7.5 29.5q-6 15 -13.5 20t-24.5 6q-12 0 -16 1t-4 4t13 10l2 1l39 18q4 2 6 2.5t4 0.5q13 0 25 -17q14 -17 21 -36.5t7 -38.5z" />
    <glyph glyph-name="otilde" unicode="&#xf5;" horiz-adv-x="352" 
d="M211 526q-2 -34 -25 -56t-55 -22q-9 0 -18.5 0.5t-35.5 7.5l-16 4q-9 2 -15 2.5t-12 0.5q-19 0 -29 -7.5t-15 -24.5h-15q16 75 73 75q6 0 12.5 -1t15.5 -3l15 -3q23 -5 33 -6.5t20 -1.5q43 0 53 35h14v0zM172 273q0 -45 -22 -96t-60 -98q-32 -38 -64.5 -58.5t-61.5 -20.5
q-19 0 -35 9.5t-28 26.5t-19 40t-7 50q0 47 24.5 97t64.5 85q24 21 46 34.5t30 13.5q2 0 2 -2t-2 -4h-1q-7 -5 -13 -10t-13 -11q-41 -37 -65 -88.5t-24 -102.5q0 -48 17.5 -76.5t46.5 -28.5q26 0 50.5 17.5t43 46.5t30 66t11.5 77q0 18 -2.5 32.5t-7.5 29.5q-6 15 -13.5 20
t-24.5 6q-12 0 -16 1t-4 4t13 10l2 1l39 18q4 2 6 2.5t4 0.5q13 0 25 -17q14 -17 21 -36.5t7 -38.5z" />
    <glyph glyph-name="uacute" unicode="&#xfa;" horiz-adv-x="407" 
d="M209 523q0 -7 -4.5 -12t-18.5 -14q-2 -1 -3.5 -2t-3.5 -2l-121 -81h-26l107 97q23 22 33.5 29t18.5 7t13 -6.5t5 -15.5zM220 99q0 -5 -6 -10l-10 -11l-13 -13l-22 -21q-5 -6 -23 -21q-12 -11 -18 -14q-7 -5 -15 -8t-13 -3q-21 0 -21 27v11l2 9l7 47q-47 -50 -81 -72
t-65 -22q-49 0 -49 56q0 14 3 35t11 52l35 150l1 1q1 5 1 8.5v6.5q0 12 -8 12q-4 0 -11 -4l-7 -4l-6 -4l-3 -1q-5 -3 -6 -3q-4 0 -4 6q0 3 1.5 4.5t8.5 5.5q3 1 22 12l24 13q5 3 10.5 6t11.5 7q8 5 11 6.5t5 1.5q10 0 10 -12q0 -5 -2 -11v-2l-52 -222q-5 -20 -6.5 -30
t-1.5 -19q0 -39 36 -39q6 0 12.5 1.5t10.5 3.5q19 8 43 29q29 26 42.5 45.5t22.5 45.5q6 19 11 40.5t12 56.5q6 30 8 41.5t2 16.5q0 14 -10 14q-7 0 -11 -3l-10 -5l-6 -3v-1h-2q-2 -2 -3 -2q-3 0 -3 3q-1 1 -1 4q0 2 2.5 4t11.5 7l50 29l3 1q18 11 28 11q5 0 8.5 -4t3.5 -9
q0 -3 -1 -8.5t-3 -11.5v-1l-71 -271v-1q-1 -4 -1 -11q0 -14 11 -14q13 0 29 19l16 18l18 19l10 10q1 0 1 1q1 0 1.5 0.5t1.5 0.5q6 0 6 -7z" />
    <glyph glyph-name="ugrave" unicode="&#xf9;" horiz-adv-x="407" 
d="M157 412l-127 82q-17 11 -23 18t-6 15t6.5 14t14.5 6q13 0 38 -23l119 -112h-22zM220 99q0 -5 -6 -10l-10 -11l-13 -13l-22 -21q-5 -6 -23 -21q-12 -11 -18 -14q-7 -5 -15 -8t-13 -3q-21 0 -21 27v11l2 9l7 47q-47 -50 -81 -72t-65 -22q-49 0 -49 56q0 14 3 35t11 52
l35 150l1 1q1 5 1 8.5v6.5q0 12 -8 12q-4 0 -11 -4l-7 -4l-6 -4l-3 -1q-5 -3 -6 -3q-4 0 -4 6q0 3 1.5 4.5t8.5 5.5q3 1 22 12l24 13q5 3 10.5 6t11.5 7q8 5 11 6.5t5 1.5q10 0 10 -12q0 -5 -2 -11v-2l-52 -222q-5 -20 -6.5 -30t-1.5 -19q0 -39 36 -39q6 0 12.5 1.5
t10.5 3.5q19 8 43 29q29 26 42.5 45.5t22.5 45.5q6 19 11 40.5t12 56.5q6 30 8 41.5t2 16.5q0 14 -10 14q-7 0 -11 -3l-10 -5l-6 -3v-1h-2q-2 -2 -3 -2q-3 0 -3 3q-1 1 -1 4q0 2 2.5 4t11.5 7l50 29l3 1q18 11 28 11q5 0 8.5 -4t3.5 -9q0 -3 -1 -8.5t-3 -11.5v-1l-71 -271
v-1q-1 -4 -1 -11q0 -14 11 -14q13 0 29 19l16 18l18 19l10 10q1 0 1 1q1 0 1.5 0.5t1.5 0.5q6 0 6 -7z" />
    <glyph glyph-name="ucircumflex" unicode="&#xfb;" horiz-adv-x="407" 
d="M186 414l-67 85l-129 -87h-22l142 130h35l62 -130zM220 99q0 -5 -6 -10l-10 -11l-13 -13l-22 -21q-5 -6 -23 -21q-12 -11 -18 -14q-7 -5 -15 -8t-13 -3q-21 0 -21 27v11l2 9l7 47q-47 -50 -81 -72t-65 -22q-49 0 -49 56q0 14 3 35t11 52l35 150l1 1q1 5 1 8.5v6.5
q0 12 -8 12q-4 0 -11 -4l-7 -4l-6 -4l-3 -1q-5 -3 -6 -3q-4 0 -4 6q0 3 1.5 4.5t8.5 5.5q3 1 22 12l24 13q5 3 10.5 6t11.5 7q8 5 11 6.5t5 1.5q10 0 10 -12q0 -5 -2 -11v-2l-52 -222q-5 -20 -6.5 -30t-1.5 -19q0 -39 36 -39q6 0 12.5 1.5t10.5 3.5q19 8 43 29
q29 26 42.5 45.5t22.5 45.5q6 19 11 40.5t12 56.5q6 30 8 41.5t2 16.5q0 14 -10 14q-7 0 -11 -3l-10 -5l-6 -3v-1h-2q-2 -2 -3 -2q-3 0 -3 3q-1 1 -1 4q0 2 2.5 4t11.5 7l50 29l3 1q18 11 28 11q5 0 8.5 -4t3.5 -9q0 -3 -1 -8.5t-3 -11.5v-1l-71 -271v-1q-1 -4 -1 -11
q0 -14 11 -14q13 0 29 19l16 18l18 19l10 10q1 0 1 1q1 0 1.5 0.5t1.5 0.5q6 0 6 -7z" />
    <glyph glyph-name="udieresis" unicode="&#xfc;" horiz-adv-x="407" 
d="M197 460q0 -14 -12.5 -25.5t-31.5 -14.5q-2 15 -5.5 29t-10.5 34q7 6 16 12.5t18 11.5l4 2q10 -8 16 -22t6 -27zM67 460q0 -14 -13 -25.5t-32 -14.5q-1 8 -1.5 11.5t-1.5 8.5q-4 16 -13 43q2 2 3.5 3t5.5 4l15 10.5t14 8.5q10 -8 16.5 -22t6.5 -27zM220 99q0 -5 -6 -10
l-10 -11l-13 -13l-22 -21q-5 -6 -23 -21q-12 -11 -18 -14q-7 -5 -15 -8t-13 -3q-21 0 -21 27v11l2 9l7 47q-47 -50 -81 -72t-65 -22q-49 0 -49 56q0 14 3 35t11 52l35 150l1 1q1 5 1 8.5v6.5q0 12 -8 12q-4 0 -11 -4l-7 -4l-6 -4l-3 -1q-5 -3 -6 -3q-4 0 -4 6q0 3 1.5 4.5
t8.5 5.5q3 1 22 12l24 13q5 3 10.5 6t11.5 7q8 5 11 6.5t5 1.5q10 0 10 -12q0 -5 -2 -11v-2l-52 -222q-5 -20 -6.5 -30t-1.5 -19q0 -39 36 -39q6 0 12.5 1.5t10.5 3.5q19 8 43 29q29 26 42.5 45.5t22.5 45.5q6 19 11 40.5t12 56.5q6 30 8 41.5t2 16.5q0 14 -10 14
q-7 0 -11 -3l-10 -5l-6 -3v-1h-2q-2 -2 -3 -2q-3 0 -3 3q-1 1 -1 4q0 2 2.5 4t11.5 7l50 29l3 1q18 11 28 11q5 0 8.5 -4t3.5 -9q0 -3 -1 -8.5t-3 -11.5v-1l-71 -271v-1q-1 -4 -1 -11q0 -14 11 -14q13 0 29 19l16 18l18 19l10 10q1 0 1 1q1 0 1.5 0.5t1.5 0.5q6 0 6 -7z" />
    <glyph glyph-name="dagger" unicode="&#x2020;" horiz-adv-x="500" 
d="M325 511q0 -3 -1 -7.5t-3 -9.5q-4 -11 -10 -13t-32 -2h-3h-113l-142 -569q-2 -8 -14 -11q-10 -2 -14 -2t-4 5v5l1 2v1l129 571h-153q-5 0 -5 6v3q1 6 2.5 12.5t2.5 8.5q5 8 18 8h143l27 125l3 9q3 13 5.5 18.5t10.5 11.5q12 10 22 16t14 6q5 0 5 -9v-5.5t-1 -6.5l-1 -1
l-39 -164h146q6 0 6 -8z" />
    <glyph glyph-name="degree" unicode="&#xb0;" horiz-adv-x="400" 
d="M339 335q0 -29 -11 -54.5t-29.5 -44.5t-44 -30t-54.5 -11t-54.5 11t-44 29.5t-29.5 44t-11 54.5q0 28 11 53.5t29.5 44.5t43.5 30t53 11q29 0 55 -10.5t45 -29.5t30 -44t11 -54zM311 334q0 23 -8.5 43t-23.5 35t-35 24t-42 9q-24 0 -44.5 -8.5t-35.5 -23.5t-24 -35
t-9 -43t8.5 -43.5t23.5 -35.5t35.5 -24t43.5 -9t43.5 9t35.5 24t23.5 35t8.5 43z" />
    <glyph glyph-name="cent" unicode="&#xa2;" horiz-adv-x="333" 
d="M145 393q0 -8 -3 -14l-12 -28q-4 -7 -7 -7t-6 8q-6 18 -16.5 31t-21.5 16l-101 -302q9 -4 25 -4q24 0 44 14q17 11 30 31q11 14 21 33t13 28q1 8 6 8h1q4 -2 4 -4q0 -5 -3 -11q-8 -30 -22 -51.5t-34 -41.5q-44 -46 -89 -46q-6 0 -10 1l-20 -56q-2 -8 -6 -8h-16q-2 0 -2 4
q0 1 2 9l4 9l16 47q-26 12 -42 42.5t-16 68.5q0 33 9 67.5t24.5 67t37 60t46.5 46.5q10 7 17.5 12t15 7.5t15.5 4t19 1.5l19 63v1q3 7 8 7h11q4 0 4 -4q0 -2 -0.5 -4.5l-1.5 -7.5l-18 -57q8 -2 12.5 -3t12.5 -6q30 -16 30 -32zM58 406q-5 1 -11 1q-23 0 -44 -18t-37 -48.5
t-25.5 -70.5t-9.5 -83q0 -26 7.5 -47t21.5 -32l98 298v0z" />
    <glyph glyph-name="sterling" unicode="&#xa3;" horiz-adv-x="463" 
d="M320 587q0 -4 -2 -14l-1 -1l-10 -49l-1 -2q0 -3 -0.5 -4.5t-0.5 -2.5q-3 -3 -5 -3q-4 0 -4 6q-1 1 -1 5q0 1 -0.5 4.5l-1.5 10.5q-7 50 -40 78.5t-84 28.5q-57 0 -88.5 -45t-31.5 -128v-147h98q4 0 4 -2v-1l-22 -33l-1 -1q-3 -5 -9 -5h-76q-3 -27 -13.5 -59.5t-24.5 -64
t-30.5 -59.5t-32.5 -47l-5 -6q-2 -2 -2 -3t1 -1h3q2 1 5.5 1.5t8.5 2.5q2 0 19 5q20 6 34 8t31 2q13 0 25 -1t29 -5l19 -4q28 -6 46 -6q39 0 68 17q10 5 15 10t16 21q3 4 7 4q6 0 6 -7t-6 -18.5t-16 -23.5q-40 -52 -104 -52q-5 0 -9.5 0.5t-9.5 1.5q-9 2 -17.5 4t-27.5 8
q-14 5 -24 7.5t-21 4.5q-13 3 -27 4.5t-24 1.5q-11 0 -23.5 -2t-23.5 -5q-7 -2 -13.5 -5t-17.5 -8l-8 -3q-1 0 -1.5 -0.5t-1.5 -0.5q-5 0 -5 5q0 3 1.5 5.5t12.5 13.5q12 13 28.5 39.5t27.5 49.5q31 70 31 148v17h-95l24 42h69l3 87q1 26 2.5 44.5t4.5 33.5t8 28t13 29
q9 18 21.5 34.5t26.5 30.5q29 27 59 39.5t68 12.5q46 0 78 -19q21 -12 35 -28t14 -29z" />
    <glyph glyph-name="section" unicode="&#xa7;" horiz-adv-x="500" 
d="M299 650q0 -2 -2 -8l-1 -1l-24 -48v-1q-1 -1 -1 -2q-1 -1 -2 -1q-3 0 -4 5q-1 3 -3 9.5t-5 13.5q-16 37 -45.5 59t-61.5 22q-39 0 -64.5 -28t-25.5 -71q0 -45 32 -83q7 -9 13.5 -15.5t15 -14t20.5 -16.5t30 -23q30 -23 45 -36t27 -27q33 -39 33 -89q0 -27 -11 -52
t-31 -42q-9 -8 -16.5 -13.5t-16.5 -10.5t-22 -10.5t-32 -13.5q49 -48 49 -110q0 -31 -11.5 -57.5t-31.5 -46.5t-47 -31.5t-58 -11.5q-26 0 -58 10t-53 25l-34 24q-19 14 -19 19v2l26 66q0 2 3 2q2 0 3 -5q13 -57 48.5 -91.5t83.5 -34.5q45 0 73.5 28.5t28.5 73.5
q0 49 -33 88q-7 9 -13.5 15.5t-15 14t-19.5 16t-28 21.5q-18 13 -29.5 22t-20 16t-15 13.5t-14.5 15.5q-16 17 -25 40.5t-9 46.5q0 24 10 47t27.5 42t41.5 32.5t52 19.5q-20 21 -32.5 51.5t-12.5 59.5t11 54t30 43t45 28.5t56 10.5q12 0 24.5 -2t25.5 -5q18 -5 31 -11
t37 -20q25 -14 25 -24zM237 274q0 33 -24 62q-6 7 -11 12.5t-12 11.5t-17.5 14t-28.5 21q-14 11 -31.5 24t-25.5 20q-4 4 -6 5.5t-6 5.5q-50 -12 -79.5 -42.5t-29.5 -68.5q0 -34 27 -64q7 -8 12.5 -13t12.5 -10.5t18 -13.5t29 -21q45 -32 54 -39q4 -2 5.5 -4t5.5 -5
q14 5 23.5 9t16.5 7.5t13 7.5l15 10q39 27 39 71z" />
    <glyph glyph-name="bullet" unicode="&#x2022;" horiz-adv-x="468" 
d="M400 328q0 -35 -13 -65.5t-35.5 -53.5t-53 -36t-64.5 -13q-35 0 -65 13t-53 36t-36 53t-13 65q0 34 13 64t35.5 52.5t52.5 36t63 13.5q35 0 66 -13t54 -35t36 -52.5t13 -64.5z" />
    <glyph glyph-name="paragraph" unicode="&#xb6;" horiz-adv-x="611" 
d="M530 632q-4 0 -11 -6q-19 -15 -28 -38q-3 -7 -4.5 -14t-3.5 -15q-2 -13 -3.5 -32t-2.5 -33l-1 -33v-36l-1 -23v-308v-28q0 -29 -1.5 -52.5t-3.5 -40.5q-2 -10 -3.5 -21t-4.5 -24q-7 -29 -15 -47t-23 -40q-7 -10 -14.5 -18.5t-15.5 -16.5q-15 -14 -37 -27.5t-42 -21.5
q-36 -13 -82 -13q-44 0 -68.5 13t-24.5 37q0 14 10 24t25 10t25 -10t10 -26q0 -14 -10 -25q4 0 7 -0.5t5 -0.5q20 0 40 14.5t34 39.5q8 14 13 31.5t9 41.5q2 11 3 22.5t2 22.5t1.5 35t0.5 52v185q-9 -1 -16 -1h-12q-110 0 -174 52q-38 29 -59 74.5t-21 95.5q0 66 36.5 119.5
t97.5 76.5q20 8 42 13.5t46 7.5q25 3 47 4t60 1h210v-21h-42zM385 632q-12 -8 -17.5 -14.5t-10.5 -18.5q-5 -14 -9 -30t-6 -40q-2 -17 -2.5 -30.5t-1.5 -37.5q0 -11 -0.5 -17.5t-0.5 -13v-13.5v-17v-369q0 -26 -0.5 -51t-1.5 -43q-2 -29 -5.5 -53t-11.5 -44q-13 -33 -34 -54
q-9 -8 -16 -13t-21 -11q18 1 28 3t24 7q35 13 63 36t45 52q11 19 17.5 40t10.5 48q2 9 3 20.5t2 25.5q1 11 1.5 18.5t0.5 16v19v27.5v31v281q0 4 0.5 11t0.5 18v39q0 20 1.5 40t2.5 33q4 41 13 64t29 40h-104z" />
    <glyph glyph-name="germandbls" unicode="&#xdf;" horiz-adv-x="407" 
d="M266 580q0 -38 -10 -73.5t-30 -63.5q-14 -20 -31.5 -32t-45.5 -23q-9 -3 -9 -7q0 -1 0.5 -1.5t5.5 -2.5q1 0 2 -1q5 -2 9.5 -5t9.5 -6q26 -17 40.5 -46.5t14.5 -64.5q0 -37 -15 -79t-43 -84q-63 -95 -133 -95q-26 0 -43 10l-12 7q-14 8 -14 14q0 4 1 7l14 53v1q1 6 6 6
q2 0 3 -1.5t3 -6.5q15 -50 62 -50q25 0 47 15.5t39 41.5t27 61.5t10 74.5q0 64 -30 104t-84 50q-9 1 -9 8q0 8 9 8q1 0 1.5 -0.5t2.5 -0.5h9q35 0 51.5 3t30.5 13q17 11 28 29q14 24 22 60t8 74q0 101 -78 101q-43 0 -65 -39q-10 -19 -19 -47.5t-20 -77.5l-119 -511l-5 -3
h-47l-2 5l82 331q6 25 11 43.5t9.5 36t9.5 36.5t13 45q10 33 20.5 62t21.5 53q21 45 57.5 70t79.5 25q49 0 76.5 -33.5t27.5 -93.5z" />
    <glyph glyph-name="registered" unicode="&#xae;" horiz-adv-x="377" 
d="M366 527q0 -37 -14 -69.5t-38 -57t-56 -38.5t-69 -14t-69.5 14t-56.5 38t-38 56.5t-14 69.5q0 36 14 68.5t38 57t55.5 38.5t67.5 14q37 0 70 -14t57.5 -38t38.5 -56t14 -69zM347 526q0 33 -12.5 61.5t-33.5 50.5t-49.5 34.5t-60.5 12.5q-33 0 -62.5 -12.5t-51.5 -33.5
t-34.5 -50t-12.5 -62t12.5 -62.5t34 -51t50.5 -34t62 -12.5t61.5 12.5t50 34t34 50.5t12.5 62zM252 435l-71 87q-7 0 -13 -0.5t-13 -0.5q-4 0 -8 1v-53q0 -15 4.5 -19t21.5 -5v-10h-72v10q16 0 20.5 5t4.5 22v121q0 14 -4.5 18.5t-20.5 5.5v10h82q74 0 74 -51
q0 -20 -13.5 -33.5t-37.5 -17.5l56 -68q9 -12 26 -12v-10h-36zM234 575q0 28 -24 33q-16 4 -48 4q-10 0 -12.5 -1t-2.5 -5v-4v-6v-61h9h12q36 0 51 9.5t15 30.5z" />
    <glyph glyph-name="copyright" unicode="&#xa9;" horiz-adv-x="757" 
d="M735 351q0 -75 -28 -140.5t-76 -114t-113 -76.5t-139 -28t-139 28t-113.5 76t-76.5 113t-28 139q0 73 28 137.5t76 113t111.5 77t135.5 28.5q75 0 141 -27.5t115 -75.5t77.5 -112.5t28.5 -137.5zM712 348q0 68 -26 128.5t-71 106t-104.5 72t-126.5 26.5q-71 0 -132.5 -26
t-107 -70.5t-72 -105t-26.5 -129.5q0 -70 26 -131t71 -106.5t106 -71.5t130 -26t129.5 26t105.5 71.5t71.5 106t26.5 129.5zM524 224q-59 -71 -145 -71q-41 0 -74.5 14t-58 39t-38 60t-13.5 77q0 41 14 76.5t38.5 61.5t58 40.5t72.5 14.5q33 0 73 -13q5 -2 9 -3t6 -2
q6 -3 13 -3q15 0 22 21h11l5 -125h-12q-28 106 -126 106q-32 0 -58.5 -12.5t-45.5 -35.5t-29 -55t-10 -71q0 -78 40.5 -124t109.5 -46q45 0 85 25q12 8 20.5 15t22.5 21l10 -10v0z" />
    <glyph glyph-name="trademark" unicode="&#x2122;" horiz-adv-x="1000" 
d="M848 641q-21 -2 -30 -4q-13 -5 -16 -20q-1 -5 -1 -9.5v-15.5v-225v-12v-18t2 -8q4 -19 40 -19h4v-13h-121v13h5q22 0 31 8q6 5 8 13.5t2 28.5v8v239l-125 -310h-11l-124 310v-228q0 -24 0.5 -32.5t2.5 -15.5q4 -11 14 -16t33 -5v-13h-120v13q16 0 25 2t14 7q7 5 9 17
t2 45v212q0 17 -1 24.5t-6 12.5q-5 6 -14.5 8.5t-26.5 2.5v12h80l120 -303l124 303h80v-12v0zM405 552q-3 46 -21 64.5t-60 18.5h-37v-268v-24t2 -14q4 -19 42 -19h7v-13h-131v13h5q21 0 30.5 4t12.5 15q2 5 2.5 12t0.5 24v270h-36q-25 0 -39.5 -4.5t-23.5 -15.5
q-16 -20 -19 -63h-14l5 101h283l5 -101h-14z" />
    <glyph glyph-name="acute" unicode="&#xb4;" 
d="M125 523q0 -7 -4.5 -12t-18.5 -14q-2 -1 -3.5 -2t-3.5 -2l-122 -81h-25l106 97q24 22 34 29t18 7t13.5 -6.5t5.5 -15.5z" />
    <glyph glyph-name="dieresis" unicode="&#xa8;" 
d="M88 460q0 -14 -12.5 -25.5t-32.5 -14.5q-2 15 -5.5 29t-10.5 34q15 12 35 24l3 2q10 -8 16.5 -22t6.5 -27zM-43 460q0 -14 -12.5 -25.5t-32.5 -14.5q-1 8 -1.5 11.5t-1.5 8.5q-2 8 -5 18.5t-8 24.5l4.5 3t4.5 4l15 10.5t14 8.5q10 -8 16.5 -22t6.5 -27z" />
    <glyph glyph-name="notequal" unicode="&#x2260;" horiz-adv-x="593" 
d="M94 135l-75 -141l-25 13l69 128h-170v28h185l82 155h-267v28h283l76 142l24 -13l-69 -129h173v-28h-188l-83 -155h271v-28h-286z" />
    <glyph glyph-name="AE" unicode="&#xc6;" horiz-adv-x="981" 
d="M806 612q0 -42 -25 -85t-70 -81q-32 -26 -45 -26q-4 0 -4 3t3 5q1 0 5 4q1 0 3 2q22 15 35.5 28.5t26.5 32.5q16 23 25 48.5t9 49.5q0 30 -17.5 48t-47.5 18q-40 0 -78.5 -24.5t-72.5 -70.5q-18 -24 -30.5 -43t-23 -40.5t-21.5 -48t-24 -64.5h261h1q4 0 6 -1q2 -2 2 -3
t-5 -6l-15 -15l-6 -6q-2 -1 -10 -1h-246q-12 -40 -19 -85.5t-7 -82.5q0 -75 29 -116.5t82 -41.5q42 0 80.5 26.5t67.5 74.5q17 28 26.5 58t16.5 72q2 13 3 18.5t2 8.5q1 4 6 4q2 0 3 -2t1 -10q0 -13 -3.5 -35.5t-9.5 -46.5q-10 -41 -24 -69t-39 -59q-68 -81 -148 -81
q-63 0 -99.5 47.5t-36.5 129.5q0 20 1.5 42.5t4.5 44.5q3 19 7.5 38t9.5 43l5 22h-130q-5 -13 -8.5 -22.5t-5.5 -16.5q-14 -38 -22.5 -61t-15 -39.5t-13.5 -28.5t-16 -27q-43 -70 -99.5 -109t-115.5 -39q-27 0 -50.5 11t-41.5 30t-28 44.5t-10 54.5q0 42 20 81t58 68
q17 14 36.5 23.5t30.5 9.5q3 0 3 -4t-8 -7q-12 -5 -30 -22t-31 -36q-33 -48 -33 -106q0 -57 28.5 -91.5t76.5 -34.5q29 0 59 13.5t48 34.5q11 13 22 31t22 41q13 27 22.5 49t18 44.5t17.5 48t21 60.5h-110h-1q-4 0 -4 2q0 1 1 3l35 29h92q5 14 8.5 24.5t5.5 17.5
q15 42 25.5 69.5t20 47t19 34t21.5 29.5q43 53 102 77.5t141 24.5h64h80q16 0 25.5 -1t19.5 -5q17 -7 26 -27t9 -49zM602 676q-35 0 -57 -3q-43 -5 -85 -25.5t-66 -46.5q-13 -14 -25 -34t-24 -45q-9 -20 -16.5 -36.5t-14 -33t-13 -36t-14.5 -46.5h122q10 31 17.5 51.5
t14.5 36.5t15 31t20 35q14 24 32 46t41 42q14 12 25 21t22.5 16t25 13t32.5 14h-52z" />
    <glyph glyph-name="Oslash" unicode="&#xd8;" horiz-adv-x="537" 
d="M404 478q0 -45 -8.5 -92.5t-24.5 -93.5t-38 -88t-50 -76q-24 -30 -53 -55t-59 -43t-59.5 -28t-55.5 -10q-24 0 -48 8.5t-50 27.5h-1l-50 -100h-29l60 115l1 1l-2 2q-35 35 -54.5 87t-19.5 112q0 72 24 146q42 135 139 226q19 18 39.5 34t40 27.5t36.5 18.5t28 7q3 0 3 -3
q0 -5 -10 -9q-20 -7 -33 -15t-33 -26q-90 -80 -133 -174.5t-43 -210.5q0 -57 11 -97t35 -73l297 548q-12 3 -24 3q-10 0 -14 -1l-9 -1q-1 -1 -4 -1q-4 0 -4 3q0 5 3 10l1 2l27 38q4 6 10 6q15 0 39 -9l2 -1l48 89h31l-56 -101q20 -14 30.5 -24t21.5 -27q19 -31 28.5 -69.5
t9.5 -82.5zM355 448q0 45 -7.5 82.5t-21.5 65.5q-7 14 -14.5 21.5t-22.5 16.5l-305 -557q10 -8 14 -11q19 -14 44 -22t51 -8q48 0 92 25t79 73q31 42 47 87q20 53 32 115t12 112z" />
    <glyph glyph-name="infinity" unicode="&#x221e;" horiz-adv-x="720" 
d="M507 242q0 -31 -10.5 -57t-29.5 -45.5t-45 -30.5t-56 -11q-45 0 -83 27t-80 89q-9 -12 -15 -19t-17 -19q-8 -9 -15 -16.5t-14 -14.5q-44 -43 -105 -43q-30 0 -56.5 11t-46 29.5t-30.5 44t-11 55.5t11 56t29.5 45t44.5 30t56 11q29 0 52.5 -10t49.5 -33q14 -13 25 -26
t28 -36l9 -12l9 11q18 23 31.5 38t27.5 27q41 37 97 37q31 0 57 -10.5t45.5 -29t30.5 -43.5t11 -55zM480 241q0 23 -9 43.5t-24 35.5t-35 24t-42 9q-45 0 -86 -42q-13 -14 -30 -33.5t-34 -41.5q10 -14 15.5 -21.5t13.5 -18.5q30 -37 58 -54t60 -17q24 0 44.5 9t36 24.5
t24 37t8.5 45.5zM181 246q-13 19 -19 27t-13 16q-30 36 -57.5 52t-59.5 16q-24 0 -44.5 -8.5t-35.5 -24t-23.5 -36.5t-8.5 -45t9 -44.5t24 -36t35.5 -24.5t43.5 -9q30 0 55.5 17t61.5 61l24 29l8 10v0z" />
    <glyph glyph-name="plusminus" unicode="&#xb1;" horiz-adv-x="593" 
d="M151 265v-192h-30v192h-228v28h228v192h30v-192h229v-28h-229zM-107 -2v28h487v-28h-487z" />
    <glyph glyph-name="lessequal" unicode="&#x2264;" horiz-adv-x="593" 
d="M-107 260v30l487 203v-31l-451 -187l451 -185v-31zM-107 -11v29h487v-29h-487z" />
    <glyph glyph-name="greaterequal" unicode="&#x2265;" horiz-adv-x="593" 
d="M-107 59v31l451 185l-451 187v31l487 -203v-30zM-107 -11v29h487v-29h-487z" />
    <glyph glyph-name="yen" unicode="&#xa5;" horiz-adv-x="463" 
d="M273 664q-27 -113 -46.5 -195.5t-33 -140t-22 -93t-13.5 -55.5q-11 -47 -7 -31h67l-11 -26h-41h-18t-4.5 -1t0.5 -2l-6 -21l62 -2l-11 -26h-61q-10 -31 -29 -63q-10 -15 -25.5 -26t-45.5 -24q18 25 26 40q9 17 16 35.5t13 37.5h-165l7 26h80.5h50h26.5t10 0.5t0.5 0.5
t-1.5 1q2 5 4 12.5t2 11.5h-161l7 26h160q2 5 4 18t4.5 28t4 28.5t2.5 19.5q-11 -17 -18 -24.5t-18 -16.5q-37 -28 -81 -28q-32 0 -52 20t-20 54q0 20 6 41l21 74q14 49 23 96t9 76q0 12 -2 19.5t-8 19.5l57 26q8 -17 10 -23.5t2 -15.5q0 -10 -3 -28t-7 -35.5t-7.5 -31.5
t-3.5 -16q-4 -18 -9 -38.5t-10 -43.5q-9 -41 -12.5 -62t-3.5 -40q0 -25 12 -45.5t42 -20.5q11 0 23 6t22 16q14 14 22 29.5t17 45.5q26 89 48.5 179t35.5 182l60 6v0z" />
    <glyph glyph-name="mu" unicode="&#xb5;" horiz-adv-x="537" 
d="M499 108q0 -9 -0.5 -13.5t-0.5 -5.5q0 -14 -2 -25.5t-5 -21.5q-7 -23 -23 -35t-39 -12q-21 0 -36.5 11t-22.5 31q-5 14 -7 31.5t-2 51.5v26q-2 -9 -4 -15.5t-3 -11.5q-13 -40 -30 -68q-18 -27 -46 -42t-60 -15q-92 0 -118 99v-20l2 -28v-13t1 -23q0 -9 0.5 -18t0.5 -19
l1 -40q1 -24 1.5 -45.5t0.5 -36.5q0 -35 -3 -46.5t-13 -11.5t-13 12q-1 7 -3 20q-1 10 -1.5 16.5t-0.5 12.5v12.5v17.5v27v40l2 33l1 38l1 42l1 36l1 45v35v20v262h31v-262v-25q0 -26 2.5 -44t6.5 -33q10 -38 36 -59t64 -21q142 0 142 314v130h30v-337q0 -19 0.5 -31
t1.5 -21q4 -54 40 -54q14 0 25 9t16 23q2 8 4 18t2 22v25h19v-7v0z" />
    <glyph glyph-name="mu" unicode="&#x3bc;" horiz-adv-x="537" 
d="M499 108q0 -9 -0.5 -13.5t-0.5 -5.5q0 -14 -2 -25.5t-5 -21.5q-7 -23 -23 -35t-39 -12q-21 0 -36.5 11t-22.5 31q-5 14 -7 31.5t-2 51.5v26q-2 -9 -4 -15.5t-3 -11.5q-13 -40 -30 -68q-18 -27 -46 -42t-60 -15q-92 0 -118 99v-20l2 -28v-13t1 -23q0 -9 0.5 -18t0.5 -19
l1 -40q1 -24 1.5 -45.5t0.5 -36.5q0 -35 -3 -46.5t-13 -11.5t-13 12q-1 7 -3 20q-1 10 -1.5 16.5t-0.5 12.5v12.5v17.5v27v40l2 33l1 38l1 42l1 36l1 45v35v20v262h31v-262v-25q0 -26 2.5 -44t6.5 -33q10 -38 36 -59t64 -21q142 0 142 314v130h30v-337q0 -19 0.5 -31
t1.5 -21q4 -54 40 -54q14 0 25 9t16 23q2 8 4 18t2 22v25h19v-7v0z" />
    <glyph glyph-name="partialdiff" unicode="&#x2202;" horiz-adv-x="361" 
d="M148 246q0 -115 -37 -182t-102 -67q-24 0 -45 11.5t-37 31t-25 46t-9 56.5q0 61 33 99t86 38q65 0 115 -62v31q0 98 -32 153.5t-89 55.5q-21 0 -39 -7t-38 -24l-12 15q24 17 44 24.5t43 7.5q67 0 105.5 -60.5t38.5 -166.5zM125 198q-12 16 -19 23.5t-18 15.5
q-34 26 -75 26q-45 0 -73 -34.5t-28 -89.5q0 -27 7.5 -50t21 -40t31 -27t38.5 -10q32 0 57 22t39 64q8 23 12.5 49t6.5 51z" />
    <glyph glyph-name="summation" unicode="&#x2211;" horiz-adv-x="704" 
d="M629 -214h-585l277 529l-267 471h557l12 -143h-20q-2 25 -5.5 40t-8.5 30q-6 19 -16 28t-28 13q-11 2 -24.5 3.5t-24.5 1.5h-388l247 -436l-268 -508h422q36 0 56 5t29 16q17 21 27 103h19z" />
    <glyph glyph-name="product" unicode="&#x220f;" horiz-adv-x="759" 
d="M534 -214v20q26 0 35.5 1t18.5 4q15 5 20 18t5 48v826q0 29 -6 40q-10 19 -48 19h-355q-14 0 -23 -1.5t-16 -3.5q-11 -5 -15 -16t-4 -38v-826q0 -43 9 -56q7 -9 21 -12t49 -3v-20h-188v20q25 0 36 1t19 4q14 5 18.5 18t4.5 48v826q0 23 -2.5 33.5t-9.5 16.5q-8 7 -20 9.5
t-46 3.5v20h686v-20l-9 -1q-30 0 -42 -3t-19 -12q-9 -10 -9 -47v-826q0 -23 1.5 -35.5t6.5 -19.5q9 -14 42 -15q7 -1 12.5 -1h16.5v-20h-189z" />
    <glyph glyph-name="pi" unicode="&#x3c0;" horiz-adv-x="593" 
d="M538 429q-2 -17 -6 -27.5t-12 -19.5q-12 -13 -31.5 -18t-54.5 -5h-25v-259v-15q0 -14 1 -22.5t3 -16.5q8 -27 36 -27q26 0 38.5 20.5t12.5 67.5v7h19q-1 -43 -7 -64q-16 -55 -69 -55q-23 0 -39 11.5t-21 30.5q-3 11 -4 25.5t-1 37.5v259h-176q-1 -38 -1.5 -66t-0.5 -47
v-30.5t-0.5 -21l-1 -19t-1.5 -24.5q-2 -28 -3.5 -44.5t-6.5 -34.5q-18 -77 -81 -77q-73 0 -73 99h20q1 -70 50 -70q46 0 61 69q4 17 5.5 32.5t3.5 41.5q1 18 2 36.5t1.5 41t1 50.5t1.5 64h-33q-29 0 -42 -2.5t-22 -10.5q-15 -11 -18 -41h-19q2 22 7 36t16 25q8 8 15 11.5
t20 5.5q11 2 21.5 3t21.5 1h288h16q6 0 11.5 0.5t10.5 0.5q22 2 32 10q12 8 15 31h19v0z" />
    <glyph glyph-name="integral" unicode="&#x222b;" horiz-adv-x="538" 
d="M369 752q0 -11 -7 -17.5t-18 -6.5q-18 0 -28 17q-4 7 -6.5 9t-5.5 2q-8 0 -17 -11t-14 -28q-6 -19 -9 -47q-2 -7 -2 -15t-1 -18q-1 -13 -1 -35v-39v-26v-480l-1 -20v-40q0 -62 -4.5 -98t-15.5 -61t-31 -39t-44 -14q-16 0 -27 9t-11 23q0 9 7 16t16 7q11 0 22 -11l5 -5
q7 -7 13 -7q5 0 11.5 6.5t11.5 17.5q8 17 12.5 53t4.5 78v36v20v490v18q0 39 0.5 63t1.5 40q3 54 14 83q12 30 33 47t47 17q20 0 32 -9t12 -25z" />
    <glyph glyph-name="ordfeminine" unicode="&#xaa;" horiz-adv-x="170" 
d="M69 522q0 -2 -12 -14l-12 -12q-11 -11 -20 -11q-10 0 -10 11q0 6 4 23v2l5 24q-17 -27 -36 -43t-33 -16q-13 0 -20.5 10.5t-7.5 28.5q0 29 14.5 57.5t39.5 46.5q24 18 47 18q31 0 34 -28l-23 -109v-5q0 -3 1 -3t5 4q2 1 4 3l5 5q6 5 8 8q3 3 4 3q3 0 3 -3zM39 609
q0 23 -26 23q-12 0 -24 -8.5t-21 -22t-14.5 -31.5t-5.5 -37q0 -13 5.5 -21.5t13.5 -8.5q4 0 11.5 3t12.5 8q20 17 34 44.5t14 50.5z" />
    <glyph glyph-name="ordmasculine" unicode="&#xba;" horiz-adv-x="161" 
d="M61 603q0 -20 -10 -42t-27 -42q-29 -35 -57 -35q-17 0 -29 16t-12 39q0 21 11.5 43.5t29.5 36.5q27 21 34 21q2 0 2 -2t-2 -2q-10 -5 -19 -15.5t-16 -23t-11.5 -26.5t-4.5 -26q0 -20 7.5 -32.5t20.5 -12.5q11 0 22 7.5t19.5 20t13.5 28.5t5 33q0 37 -22 37q-9 0 -9 3
q0 2 7 5l18 8q4 2 5 2q6 0 12 -8q12 -17 12 -33z" />
    <glyph glyph-name="Omega" unicode="&#x3a9;" horiz-adv-x="474" 
d="M447 278q0 -70 -41 -118q-23 -28 -52.5 -43t-71.5 -21v-76h73q41 0 52 9q8 5 14 27q2 8 3 13t3 20q0 2 2 12h12l-7 -101h-167v108q34 1 62.5 14t49 35.5t31.5 53t11 66.5q0 41 -13.5 74.5t-37.5 57.5t-58 37t-75 13t-75 -13.5t-58 -37.5t-37.5 -57.5t-13.5 -74.5
q0 -74 41.5 -119t111.5 -49v-108h-166l-7 101h12l2 -9q8 -32 10.5 -45t10.5 -18q5 -3 12 -5.5t16 -2.5h13q5 -1 10 -1h73v76q-78 11 -121.5 58.5t-43.5 122.5q0 42 16 78t44 62.5t66.5 41t83.5 14.5q46 0 84.5 -14.5t66.5 -40.5t43.5 -62t15.5 -78z" />
    <glyph glyph-name="Omega" unicode="&#x2126;" horiz-adv-x="474" 
d="M447 278q0 -70 -41 -118q-23 -28 -52.5 -43t-71.5 -21v-76h73q41 0 52 9q8 5 14 27q2 8 3 13t3 20q0 2 2 12h12l-7 -101h-167v108q34 1 62.5 14t49 35.5t31.5 53t11 66.5q0 41 -13.5 74.5t-37.5 57.5t-58 37t-75 13t-75 -13.5t-58 -37.5t-37.5 -57.5t-13.5 -74.5
q0 -74 41.5 -119t111.5 -49v-108h-166l-7 101h12l2 -9q8 -32 10.5 -45t10.5 -18q5 -3 12 -5.5t16 -2.5h13q5 -1 10 -1h73v76q-78 11 -121.5 58.5t-43.5 122.5q0 42 16 78t44 62.5t66.5 41t83.5 14.5q46 0 84.5 -14.5t66.5 -40.5t43.5 -62t15.5 -78z" />
    <glyph glyph-name="ae" unicode="&#xe6;" horiz-adv-x="444" 
d="M290 311q0 -31 -19 -59t-52 -47q-23 -13 -52 -22q-14 -5 -20 -5t-6 6q0 3 2 4.5t10 4.5q81 28 81 104q0 38 -31 38q-23 0 -42 -19q-23 -25 -38 -76t-15 -109q0 -98 65 -98q18 0 36.5 8.5t35.5 23.5l16 15q10 8 15 8q4 0 4 -5q0 -8 -25 -30q-9 -9 -18.5 -17t-17.5 -15
q-33 -25 -70 -25q-73 0 -92 106q-10 -20 -18 -31.5t-25 -29.5q-23 -23 -44 -34t-45 -11q-32 0 -52.5 20.5t-20.5 52.5q0 38 39 69q10 8 19.5 14t20 12.5t24 13.5t33.5 16l81 39v11q0 43 -20 68t-55 25q-27 0 -49.5 -17t-37.5 -48q-3 -6 -6 -6t-3 4q0 7 5.5 20.5t13.5 24.5
q35 52 89 52q20 0 39.5 -7.5t32.5 -20.5q10 -9 15 -19t13 -30q10 16 18 25t25 23q41 34 79 34q29 0 45.5 -16t16.5 -45zM70 220q0 2 -1 2l-116 -73q-26 -17 -37.5 -33.5t-11.5 -38.5q0 -44 41 -44q29 0 58.5 27t45.5 67q6 15 12 40t8 42q0 2 0.5 5.5t0.5 5.5z" />
    <glyph glyph-name="oslash" unicode="&#xf8;" horiz-adv-x="352" 
d="M172 273q0 -45 -22 -96t-60 -98q-32 -38 -64.5 -58.5t-61.5 -20.5q-8 0 -12.5 1t-12.5 4l-37 -70h-23l42 80q-21 15 -33.5 45.5t-12.5 65.5q0 48 23.5 96t65.5 86q10 9 21.5 18t22 15.5t19 10.5t12.5 4q3 0 3 -2t-2 -4h-1q-7 -5 -13 -10t-13 -11q-41 -37 -65 -89
t-24 -103q0 -23 5 -43.5t15 -34.5l141 268q-3 0 -5 1l-17 1q-8 0 -8 4q0 3 13 10l2 1l31 15l40 76h24l-38 -72q18 -10 31.5 -36.5t13.5 -53.5zM123 240q0 25 -5.5 46.5t-14.5 32.5l-144 -276q14 -10 29 -10q26 0 50.5 17.5t43 46.5t30 66t11.5 77z" />
    <glyph glyph-name="questiondown" unicode="&#xbf;" horiz-adv-x="463" 
d="M163 490q0 -3 -11 -11l-41 -26v-1q-5 -3 -6 -3q-4 0 -11 9t-11.5 22t-4.5 24t6 18.5t26 21.5q21 16 33 16q4 0 4 -3q0 -2 -3 -9q-5 -10 -5 -19q0 -23 20 -35q4 -3 4 -4zM178 240q0 -23 -9.5 -49t-28.5 -50q-24 -32 -54 -54q-7 -5 -19 -13t-29 -19q-41 -28 -58 -52
t-17 -53q0 -25 12 -40.5t32 -15.5q12 0 24.5 4.5t26.5 16.5l11 9q3 3 5 3t3 -1t1 -2q0 -6 -19 -24q-23 -23 -41 -32.5t-39 -9.5q-30 0 -51 18.5t-21 46.5q0 25 25 57.5t70 66.5l27 20q95 71 95 146q0 42 -24 68t-62 26q-33 0 -60 -20.5t-35 -50.5q0 -6 -6 -6q-5 0 -5 5
q0 8 6 23t14 27q20 29 52 46.5t65 17.5q22 0 42 -8.5t35 -23.5t23.5 -35t8.5 -42z" />
    <glyph glyph-name="exclamdown" unicode="&#xa1;" horiz-adv-x="352" 
d="M119 490q0 -4 -10 -11l-41 -26l-1 -1q-3 -3 -5 -3q-4 0 -11 9t-11.5 22t-4.5 24t6 18.5t25 21.5q22 16 34 16q4 0 4 -3q0 -2 -3 -9q-5 -10 -5 -19q0 -23 20 -35q3 -2 3 -4zM76 392q0 -3 -1 -9t-3 -14l-2 -6l-95 -372l-1 -5q-3 -16 -5.5 -27.5t-2.5 -19.5q0 -11 5.5 -15.5
t19.5 -6.5h1q5 -1 5 -5t-5 -6l-77 -45q-8 -4 -15 -4q-10 0 -10 10q0 6 3 14v1l140 485q1 3 8 8.5t16 10.5l14 8q1 1 3 1t2 -3z" />
    <glyph glyph-name="logicalnot" unicode="&#xac;" horiz-adv-x="593" 
d="M351 135v184h-458v28h487v-212h-29z" />
    <glyph glyph-name="radical" unicode="&#x221a;" horiz-adv-x="463" 
d="M247 -214h-23l-160 377l-45 -19l-11 22l74 31l150 -354l152 943h27z" />
    <glyph glyph-name="florin" unicode="&#x192;" horiz-adv-x="389" 
d="M244 699q0 -4 -3.5 -8t-13.5 -15q-13 -13 -21 -13q-2 0 -6.5 2t-13.5 8q-9 5 -15 5q-18 0 -27 -22q-10 -20 -17 -45q-5 -18 -8.5 -31t-7 -28t-7.5 -35.5t-11 -51.5q-2 -8 -4.5 -21.5t-6.5 -31.5h78h1q16 0 16 -7q0 -5 -16 -24q-6 -7 -11 -9t-17 -2h-58l-68 -321
q-7 -33 -14 -57.5t-16 -43t-20 -33t-25 -26.5q-19 -17 -43.5 -29t-39.5 -12q-11 0 -19 6.5t-8 14.5q0 9 13 22q15 13 22 13q3 0 8 -3l9 -7q10 -7 18 -7q15 0 25 21q5 10 9 21.5t7 25.5q7 27 11 46t8 36l2 9l69 324h-69h-2q-16 0 -16 9q0 3 1.5 6t9.5 11q4 5 6.5 7.5l3.5 3.5
q7 5 14 5h60l30 142q11 53 34 86q10 16 24.5 30t29.5 24.5t29.5 16.5t26.5 6q15 0 27 -5.5t12 -12.5z" />
    <glyph glyph-name="approxequal" unicode="&#x2248;" horiz-adv-x="619" 
d="M406 382l-7.5 -25.5t-7.5 -18.5q-16 -31 -43 -48.5t-59 -17.5q-9 0 -19 1t-21 4q-8 2 -19.5 5.5t-25 7.5t-27 8.5l-25.5 8.5l-56 19q-35 12 -54 17t-33 5q-32 0 -56.5 -23t-34.5 -61h-25q5 20 8.5 29t9.5 20q15 29 41.5 45.5t55.5 16.5q18 0 39 -5t60 -18l55 -18l47 -16
q35 -12 51 -15.5t30 -3.5q32 0 56.5 22.5t35.5 60.5h24v0zM406 218l-7.5 -25.5t-7.5 -18.5q-16 -31 -43 -49t-59 -18q-9 0 -19 2l-20 4q-8 2 -20 5.5t-25.5 7.5t-27 8.5l-25.5 8.5l-56 19q-35 12 -54 16.5t-33 4.5q-32 0 -56.5 -22.5t-34.5 -60.5h-25q5 20 8.5 29t9.5 20
q15 29 41.5 45.5t55.5 16.5q18 0 39 -5t60 -18l55 -18l47 -16q35 -12 51 -15.5t30 -3.5q32 0 56.5 22.5t35.5 60.5h24v0z" />
    <glyph glyph-name="Delta" unicode="&#x394;" horiz-adv-x="436" 
d="M10 0l214 493h13l189 -493h-416zM226 458l-188 -438h355z" />
    <glyph glyph-name="Delta" unicode="&#x2206;" horiz-adv-x="436" 
d="M10 0l214 493h13l189 -493h-416zM226 458l-188 -438h355z" />
    <glyph glyph-name="guillemotleft" unicode="&#xab;" horiz-adv-x="426" 
d="M236 311q0 -4 -10 -14l-2 -2l-93 -76l-3 -3q-17 -14 -21 -19t-4 -12q0 -6 4.5 -14t15.5 -26l45 -70q4 -5 4 -8q0 -5 -4 -5q-2 0 -6 4l-4 4l-1 1l-101 92l-2 3q-19 16 -19 24q0 4 2 6l3 3q4 2 6 4l171 106q9 6 14 6t5 -4zM72 311q0 -6 -11 -14l-1 -2l-93 -76l-4 -3
q-17 -13 -20.5 -18.5t-3.5 -12.5q0 -6 4 -14t16 -26l45 -70q4 -5 4 -8q0 -5 -4 -5q-2 0 -6 4l-4 4l-1 1l-101 92l-3 3q-19 19 -19 24q0 6 8 10l175 109q9 6 14 6t5 -4z" />
    <glyph glyph-name="guillemotright" unicode="&#xbb;" horiz-adv-x="426" 
d="M241 188q0 -7 -6 -10l-177 -110q-9 -6 -14 -6t-5 5q0 6 11 14l1 1l93 77l4 3q17 12 20.5 17.5t3.5 12.5q0 6 -4 14.5t-16 26.5l-45 69q-2 3 -3 5t-1 4q0 4 4 4q1 0 10 -7l1 -1l101 -93q22 -21 22 -26zM76 188q0 -7 -5 -10l-177 -110q-9 -6 -14 -6t-5 5t10 14l2 1l93 77
l3 3q17 13 21 18t4 12q0 6 -4.5 14.5t-15.5 26.5l-45 69q-4 5 -4 9t4 4q3 0 11 -8l101 -93q12 -11 16.5 -16.5t4.5 -9.5z" />
    <glyph glyph-name="ellipsis" unicode="&#x2026;" horiz-adv-x="816" 
d="M559 0v89h44v-89h-44zM226 0v89h44v-89h-44zM-107 0v89h44v-89h-44z" />
    <glyph glyph-name="nonbreakingspace" unicode="&#xa0;" horiz-adv-x="407" 
 />
    <glyph glyph-name="Agrave" unicode="&#xc0;" horiz-adv-x="704" 
d="M462 728l-127 82q-17 11 -23 18t-6 15t6 13.5t14 5.5q16 0 39 -22l119 -112h-22zM537 693q0 -10 -7 -10h-38q-9 -7 -12 -8q-19 -15 -37 -41t-34 -61q-7 -15 -13.5 -32t-12.5 -36q-4 -12 -7.5 -23.5t-7.5 -25t-9 -31.5t-12 -45h136h1q8 0 8 -6q0 -2 -2 -5t-9 -10
q-5 -5 -8 -6t-11 -1h-123l-11 -46l-4 -17q-11 -45 -17 -82.5t-6 -65.5q0 -96 80 -96q54 0 86 42t37 120q1 7 8 7q9 0 9 -7q0 -42 -13 -78.5t-35.5 -63.5t-53 -42.5t-65.5 -15.5q-49 0 -76.5 33.5t-27.5 93.5q0 21 3 45.5t8 50.5q3 15 5.5 25.5t9.5 36.5l16 60h-140l-51 -159
q-25 -80 -71 -129q-27 -29 -66 -46.5t-79 -17.5q-29 0 -53.5 10t-42 27.5t-27 42.5t-9.5 55q0 60 42 116q24 33 57.5 54.5t59.5 21.5q6 0 6 -4q0 -5 -14 -9q-26 -6 -54 -37q-49 -55 -49 -131q0 -60 28 -94.5t78 -34.5q29 0 54.5 13.5t43.5 37.5q10 13 16.5 23.5t12.5 23
t11.5 29.5t12.5 42l47 164h-107q-6 0 -6 3q0 7 14 21q8 8 15 8h95l10 34q16 54 32 94t33.5 69.5t37 49.5t41.5 34q31 19 70.5 27.5t92.5 8.5h94h1q9 0 9 -6zM433 683q-81 0 -130 -34q-40 -28 -68 -81q-13 -25 -21 -42t-15.5 -35.5t-15.5 -43.5t-21 -65h138q19 69 39.5 124.5
t43.5 94.5q13 23 35 45q11 11 20.5 18t28.5 19h-34z" />
    <glyph glyph-name="Atilde" unicode="&#xc3;" horiz-adv-x="704" 
d="M525 841q-2 -33 -24.5 -55t-54.5 -22q-9 0 -18.5 1.5t-35.5 6.5l-16 3q-9 2 -15 3t-13 1q-19 0 -29 -7.5t-15 -24.5h-15q18 75 74 75q6 0 12.5 -1t15.5 -3l15 -3q23 -5 33 -6.5t20 -1.5q43 0 53 34h13v0zM537 693q0 -10 -7 -10h-38q-9 -7 -12 -8q-19 -15 -37 -41t-34 -61
q-7 -15 -13.5 -32t-12.5 -36q-4 -12 -7.5 -23.5t-7.5 -25t-9 -31.5t-12 -45h136h1q8 0 8 -6q0 -2 -2 -5t-9 -10q-5 -5 -8 -6t-11 -1h-123l-11 -46l-4 -17q-11 -45 -17 -82.5t-6 -65.5q0 -96 80 -96q54 0 86 42t37 120q1 7 8 7q9 0 9 -7q0 -42 -13 -78.5t-35.5 -63.5
t-53 -42.5t-65.5 -15.5q-49 0 -76.5 33.5t-27.5 93.5q0 21 3 45.5t8 50.5q3 15 5.5 25.5t9.5 36.5l16 60h-140l-51 -159q-25 -80 -71 -129q-27 -29 -66 -46.5t-79 -17.5q-29 0 -53.5 10t-42 27.5t-27 42.5t-9.5 55q0 60 42 116q24 33 57.5 54.5t59.5 21.5q6 0 6 -4
q0 -5 -14 -9q-26 -6 -54 -37q-49 -55 -49 -131q0 -60 28 -94.5t78 -34.5q29 0 54.5 13.5t43.5 37.5q10 13 16.5 23.5t12.5 23t11.5 29.5t12.5 42l47 164h-107q-6 0 -6 3q0 7 14 21q8 8 15 8h95l10 34q16 54 32 94t33.5 69.5t37 49.5t41.5 34q31 19 70.5 27.5t92.5 8.5h94h1
q9 0 9 -6zM433 683q-81 0 -130 -34q-40 -28 -68 -81q-13 -25 -21 -42t-15.5 -35.5t-15.5 -43.5t-21 -65h138q19 69 39.5 124.5t43.5 94.5q13 23 35 45q11 11 20.5 18t28.5 19h-34z" />
    <glyph glyph-name="Otilde" unicode="&#xd5;" horiz-adv-x="611" 
d="M411 841q-2 -33 -24.5 -55t-54.5 -22q-10 0 -19 1.5t-35 6.5l-16 3q-10 2 -16 3t-12 1q-19 0 -29 -7.5t-15 -24.5h-15q18 75 73 75q12 0 29 -4l14 -3q23 -5 33.5 -6.5t19.5 -1.5q44 0 53 34h14v0zM454 477q0 -45 -8.5 -92t-24.5 -93t-38 -88t-50 -76q-24 -30 -53 -55
t-59 -43t-59.5 -28t-55.5 -10q-33 0 -69 18.5t-62 48.5q-29 35 -45.5 83.5t-16.5 103.5q0 51 11.5 102.5t33 100t51.5 91.5t67 77q15 14 33 27.5t36 25t35.5 20t32.5 13.5q2 0 3.5 0.5t3.5 0.5q3 0 3 -3q0 -5 -7 -6q-25 -7 -64 -40q-56 -46 -99 -110q-42 -63 -62 -131
t-20 -149q0 -114 49 -173q22 -26 54 -41t68 -15q100 0 172 98q31 42 47 87q20 53 32 115t12 112q0 96 -29.5 147.5t-83.5 51.5q-5 0 -11 -0.5t-14 -1.5q-2 -1 -4 -1q-4 0 -4 3q0 5 3 10l1 2l27 38q4 6 10 6q15 0 35 -8t37 -20q39 -29 60.5 -79.5t21.5 -118.5z" />
    <glyph glyph-name="OE" unicode="&#x152;" horiz-adv-x="870" 
d="M757 615q0 -84 -78 -156q-19 -17 -38 -30t-27 -13q-3 0 -3 4q0 2 3 5t11 8q15 10 31.5 26.5t29.5 35.5q32 49 32 96q0 32 -16 50t-45 18q-28 0 -58.5 -14.5t-59.5 -40.5q-41 -37 -70 -89q-10 -16 -17.5 -30.5t-15 -31t-15.5 -37t-18 -48.5h266q5 0 5 -4q0 -3 -7 -10
q-3 -3 -6.5 -6t-5.5 -7q-5 -5 -7 -6.5t-7 -1.5h-250q-6 -20 -8.5 -31t-6.5 -30q-5 -25 -7 -45.5t-2 -46.5q0 -49 7 -84q9 -42 36 -65t66 -23q46 0 86.5 31t71.5 91q17 31 26.5 66t9.5 65q0 9 5 9q4 0 6 -9t2 -23q0 -59 -30 -122q-33 -70 -84.5 -110t-108.5 -40
q-68 0 -103.5 50.5t-35.5 144.5v16q-14 -20 -22.5 -30t-19.5 -24q-53 -62 -108 -95t-106 -33q-38 0 -75.5 18t-62.5 48q-27 32 -43 81t-16 101q0 73 25 151q20 64 49 115t70 93q25 26 51.5 45t66.5 42q22 13 38 15q6 0 6 -5q0 -4 -6 -6q-4 -2 -8.5 -4.5t-10.5 -5.5
q-18 -11 -33 -21t-26 -19q-38 -30 -68 -72t-51.5 -92.5t-33 -106t-11.5 -112.5q0 -54 12 -94t38 -71q45 -56 115 -56q48 0 95 25.5t78 69.5q44 62 68.5 145.5t24.5 171.5q0 44 -8 80.5t-23 63t-35.5 41t-45.5 14.5h-8.5t-11.5 -2h-6q-5 0 -5 4q0 1 0.5 2t0.5 2l1 2v1l26 41
q3 5 13 5q27 0 57.5 -17.5t51.5 -46.5q44 -58 44 -148q0 -6 -0.5 -12t-0.5 -13l-1 -3q36 52 74.5 95t76 74t72.5 47.5t63 16.5q29 0 47 -22.5t18 -60.5z" />
    <glyph glyph-name="oe" unicode="&#x153;" horiz-adv-x="500" 
d="M341 316q0 -74 -100 -134q-37 -23 -50 -23q-4 0 -4 5q0 3 5 6l8 4l7 3q12 5 26.5 18t25.5 27q28 32 28 71t-32 39q-26 0 -42 -18q-12 -13 -22.5 -33t-18 -45t-12 -52t-4.5 -54q0 -45 19.5 -69.5t54.5 -24.5q20 0 35 6t30 22l14 15q8 8 12 8q6 0 6 -4t-7 -14.5t-16 -21.5
q-44 -50 -99 -50q-38 0 -64.5 26t-32.5 71q-8 -11 -14.5 -18.5t-12.5 -14t-13 -13t-16 -13.5q-43 -34 -81 -34q-20 0 -37 9.5t-29.5 26.5t-20 39t-7.5 48q0 49 23.5 99t63.5 86q24 21 45 35.5t29 14.5q4 0 4 -4q0 -2 -1.5 -4.5t-7.5 -7.5l-10 -9q-22 -20 -35.5 -37
t-26.5 -41q-17 -31 -25.5 -63.5t-8.5 -62.5q0 -44 18.5 -68.5t50.5 -24.5q24 0 47 17t41 44.5t28.5 63.5t10.5 75q0 20 -3 39t-8 31q-8 20 -43 21q-8 0 -9.5 1t-1.5 4t2 5l52 28q7 3 10 3q8 0 19 -14q24 -31 34 -59q12 15 17.5 21.5t12.5 12.5t14.5 11.5t15.5 10.5
q16 11 26.5 14t25.5 3q26 0 40 -13.5t14 -39.5z" />
    <glyph glyph-name="endash" unicode="&#x2013;" horiz-adv-x="407" 
d="M250 199h-412l5 37h412z" />
    <glyph glyph-name="emdash" unicode="&#x2014;" horiz-adv-x="1000" 
d="M715 199h-750l5 37h750z" />
    <glyph glyph-name="quotedblleft" unicode="&#x201c;" horiz-adv-x="241" 
d="M127 586q0 -8 -11 -15l-14 -9q-14 -9 -24.5 -15t-15.5 -6q-8 0 -14 18t-6 42q0 19 4 30q4 9 14.5 24t24.5 29q17 17 27 17q6 0 6 -7q0 -3 -2 -5l-7 -8q-10 -11 -16 -27.5t-6 -33.5q0 -14 4.5 -22.5t10.5 -8.5q4 0 6 1l4 1h3l1 1h3q8 0 8 -6zM6 586q0 -7 -11 -15l-13 -9
q-14 -10 -24.5 -15.5t-16.5 -5.5q-8 0 -14 18t-6 42q0 17 5 30q3 9 14.5 24t24.5 29q17 17 26 17q6 0 6 -7q0 -4 -2 -5l-7 -8q-10 -11 -15.5 -27.5t-5.5 -33.5q0 -14 4 -22.5t11 -8.5q4 0 6 1l4 1h2l1 1h3q8 0 8 -6z" />
    <glyph glyph-name="quotedblright" unicode="&#x201d;" horiz-adv-x="333" 
d="M185 649q0 -41 -38 -73q-19 -16 -29 -16q-4 0 -4 4q0 2 6 8q8 8 14 22t6 27q0 17 -7.5 24t-26.5 10q-8 1 -8 4t4 6q4 2 8 5.5t9 6.5t9.5 6.5t9.5 5.5q14 9 21 9q8 0 16 -13q10 -18 10 -36zM52 649q0 -41 -38 -73q-19 -16 -29 -16q-4 0 -4 4q0 2 6 8q8 8 13.5 22t5.5 27
q0 17 -7 24t-26 10q-8 1 -8 4q0 2 10 10l16 11q11 8 14.5 10t7.5 4q7 4 12 4q9 0 17 -13q10 -18 10 -36z" />
    <glyph glyph-name="quoteleft" unicode="&#x2018;" horiz-adv-x="167" 
d="M50 587q0 -7 -11 -15l-13 -9q-14 -10 -25 -15.5t-16 -5.5q-8 0 -14 18t-6 42q0 18 5 30q3 9 14.5 24.5t24.5 28.5q17 17 26 17q6 0 6 -7q0 -2 -1 -4t-6 -7q-23 -26 -23 -63q0 -14 4 -22.5t11 -8.5q4 0 6 1q8 2 7 2h4q7 0 7 -6z" />
    <glyph glyph-name="quoteright" unicode="&#x2019;" horiz-adv-x="167" 
d="M42 642q0 -14 -2.5 -20.5t-12.5 -16.5q-11 -11 -21 -20t-23 -18q-3 -2 -5.5 -3t-4.5 -2h-1q-5 0 -5 6q0 2 5 8q20 23 20 47q0 22 -19 28l-10 3q-7 3 -7 7q0 3 1.5 4t7.5 6l24 18q8 6 13.5 8t10.5 2q10 0 17 -14q12 -21 12 -43z" />
    <glyph glyph-name="divide" unicode="&#xf7;" horiz-adv-x="593" 
d="M114 369v89h44v-89h-44zM-107 227v28h487v-28h-487zM114 24v89h44v-89h-44z" />
    <glyph glyph-name="lozenge" unicode="&#x25ca;" horiz-adv-x="469" 
d="M86 -156h-24l-169 391l169 391h24l170 -391zM74 585l-150 -350l150 -350l150 350z" />
    <glyph glyph-name="ydieresis" unicode="&#xff;" horiz-adv-x="389" 
d="M206 460q0 -14 -13 -25.5t-32 -14.5q-2 15 -5.5 29t-10.5 34q15 13 35 24l3 2q10 -8 16.5 -22t6.5 -27zM75 460q0 -14 -12.5 -25.5t-32.5 -14.5q-1 8 -1.5 11.5t-1.5 8.5q-4 16 -13 43q2 2 3.5 3t5.5 4l15 10.5t14 8.5q10 -8 16.5 -22t6.5 -27zM204 353q0 -7 -1 -14
t-4 -17l-83 -297q-7 -24 -13.5 -39.5t-15.5 -31.5q-11 -20 -28 -35t-48 -33l-10 -6q6 -1 10 -1h6q59 0 91.5 18.5t54.5 62.5q4 9 8 9q6 0 6 -6q0 -8 -7.5 -25t-18.5 -31q-25 -35 -61 -52.5t-81 -17.5h-16t-24 1q-11 1 -17.5 1.5t-11.5 0.5q-20 3 -25 3q-1 0 -3 -0.5t-5 -0.5
q-5 0 -8.5 -0.5t-5.5 -0.5q-4 0 -6 -0.5t-3 -0.5h-5q-4 0 -4 4q0 3 1 5q1 1 6 9q5 6 8 10.5l5 7.5q5 5 11.5 6.5t23.5 1.5h14h5q24 0 37.5 3.5t25.5 14.5q17 15 27 34q6 10 10 17.5t7 16t6.5 20.5t9.5 32l16 59l-68 -47q-26 -18 -42 -25.5t-30 -7.5q-24 0 -40.5 20.5
t-16.5 50.5q0 11 3.5 26.5t8.5 35.5l2 7l39 132q10 31 10 48q0 18 -15 18q-9 0 -24 -4q-5 -2 -6.5 -2h-2.5q-3 0 -3 6t9 10l15 7q18 8 35 12.5t28 4.5q23 0 23 -25q0 -8 -3 -17l-1 -2l-58 -199l-1 -7q-10 -33 -10 -54q0 -17 9 -27.5t25 -10.5q11 0 22 4.5t31 18.5
q13 9 21.5 14.5t15.5 11t13.5 10.5t15.5 12l20 72q4 13 6.5 21t3.5 13l6 24t10 41q5 22 7 33.5t2 16.5q0 17 -16 17q-7 0 -14 -3l-9 -4l-6 -2q-11 -3 -10 -3q-4 0 -4 5q0 12 38 26q15 6 33.5 10.5t26.5 4.5q17 0 17 -21z" />
    <glyph glyph-name="Ydieresis" unicode="&#x178;" horiz-adv-x="648" 
d="M464 776q0 -14 -12.5 -25.5t-32.5 -14.5q-2 15 -5 29t-11 34q8 5 16.5 11.5t18.5 12.5l3 2q10 -8 16.5 -22t6.5 -27zM333 776q0 -14 -12.5 -25.5t-31.5 -14.5q-2 8 -2 11.5t-2 8.5q-3 15 -12 43q2 2 3.5 3t5.5 4l15 10.5t14 8.5q10 -8 16 -22t6 -27zM505 700q0 -2 -1 -8
t-6 -20l-1.5 -4.5t-0.5 -3.5l-121 -509q-6 -27 -11.5 -48t-11.5 -38t-12.5 -32t-14.5 -31q-16 -30 -42 -59q-10 -12 -18.5 -20.5t-17 -16t-19 -14.5t-25.5 -16l6 -1l28 -2l22 -2h11q35 0 69.5 18t59.5 47q11 14 20.5 29.5t17.5 32.5q6 14 9.5 24.5t6 21.5t4.5 25t4 36
q2 11 3 14t5 3q5 0 8 -12.5t3 -31.5q0 -42 -21.5 -85t-60.5 -82q-40 -39 -84.5 -60t-90.5 -21q-17 0 -41 3l-50 6l-55 7q-17 2 -23.5 2.5t-16.5 0.5q-17 0 -22.5 -0.5t-16.5 -4.5q-8 -3 -10 -3.5t-4 -1.5q-3 -1 -9 -1q-4 0 -4 4q0 3 1.5 4.5t5.5 4.5l4.5 3l4.5 3l4 2
q1 1 1.5 1t1.5 1q4 3 5.5 5t9.5 8l14 11l7 6q3 3 8 3q11 0 28.5 -1.5t39.5 -4.5l31 -4l11 -2q7 -2 12.5 -2h7.5q12 0 23 6q20 12 42.5 38.5t34.5 52.5q9 20 20 51.5t23 75.5q8 27 13 45t8 32t5 27t4 31q-15 -25 -26 -42.5t-21.5 -32t-21.5 -28.5t-26 -30q-91 -101 -186 -101
q-9 0 -18 1.5t-20 5t-25 8.5t-33 12l-22 8q-7 2 -13.5 5t-10.5 5q-9 2 -19.5 4t-17.5 2q-4 0 -10 -2h-3q-1 0 -2 1q-3 4 -3 7q0 1 2 3l5 5l20 15q11 8 20 13t13 5q3 0 11 -2q13 -4 24 -4q22 0 52 14.5t58 38.5q33 29 60 69t46.5 86t30 96.5t10.5 100.5q0 39 -10 71.5
t-28.5 55.5t-44.5 35.5t-57 12.5q-35 0 -63 -16.5t-53 -51.5q-61 -85 -61 -204q0 -24 2.5 -43.5t8.5 -41.5q4 -14 6.5 -22t10.5 -25l2 -4q0 -2 -2 -2q0 -1 -2 -1q-3 0 -6 3q-10 12 -19 31.5t-15.5 42.5t-10 47t-3.5 47q0 113 83 200q75 80 162 80q72 0 114 -54.5t42 -146.5
q0 -71 -20 -137.5t-56 -123t-87 -99.5t-112 -67q-1 -1 -2 -1l-4 -2q-4 -2 -4 -4q0 -5 7 -8q19 -10 46 -16.5t52 -6.5q20 0 45 5q17 4 31.5 10t28.5 15t28.5 22.5t31.5 32.5q67 76 95 157q5 12 15.5 52.5t28.5 109.5q8 33 14 57t9 41l13 67q2 13 3.5 21t1.5 13q-1 2 -1 6
q-2 11 -2 14v6q0 4 7 8h1l37 16q7 3 14 3q13 0 13 -11z" />
    <glyph glyph-name="fraction" unicode="&#x2044;" horiz-adv-x="167" 
d="M-240 0h-42l457 486h41z" />
    <glyph glyph-name="fraction" unicode="&#x2215;" horiz-adv-x="167" 
d="M-240 0h-42l457 486h41z" />
    <glyph glyph-name="oldcurrency" horiz-adv-x="481" 
d="M335 561q0 32 -21.5 52t-55.5 20q-31 0 -58.5 -14t-62.5 -49q-17 -17 -32 -34t-27 -34q-43 -58 -75 -127h195l-11 -26h-196q-5 -12 -9.5 -23.5t-8.5 -23.5h193l-11 -26h-93h-57.5h-30.5h-11.5t-1 0h1.5q-10 -33 -14 -62.5t-4 -55.5q0 -69 34 -108.5t92 -39.5
q32 0 62 14.5t55 40.5q9 9 16.5 19t15.5 21q31 46 48 98q2 5 6.5 21t12.5 43q2 8 6 8q8 0 8 -19q0 -35 -19.5 -82.5t-49.5 -85.5q-41 -52 -89 -79.5t-99 -27.5q-68 0 -106.5 44.5t-38.5 122.5q0 32 6.5 64t14.5 64h-68l7 26h70q3 10 7 18t7 15l7 14h-77l7 26h79
q24 44 48.5 75t53.5 65q12 14 25.5 29t28.5 29q51 49 92 72t80 23t62 -23.5t23 -65.5z" />
    <glyph glyph-name="guilsinglleft" unicode="&#x2039;" horiz-adv-x="259" 
d="M70 307q0 -2 -4 -6l-5 -5l-1 -1l-117 -98q-7 -6 -7 -11q0 -6 9 -19l59 -93q2 -2 2 -5q0 -2 -1 -2q0 -1 -2 -1q-5 0 -14 9l-1 1l-109 102q-6 7 -6 12q0 6 11 14l2 1l162 98q13 8 18 8q4 0 4 -4z" />
    <glyph glyph-name="guilsinglright" unicode="&#x203a;" horiz-adv-x="259" 
d="M73 182q0 -5 -16 -16l-3 -2l-168 -97l-1 -1q-8 -4 -11 -4q-6 0 -6 6q0 2 1.5 3.5t7.5 6.5l83 62l14 10q5 5 11 9.5t12 9.5q11 10 11 17q0 11 -13 30l-54 81l-1 1q-2 4 -2 6q0 4 4 4q1 0 5 -2l2 -2l1 -1l96 -87q15 -14 21 -21t6 -13z" />
    <glyph glyph-name="fi" unicode="&#xfb01;" horiz-adv-x="426" 
d="M253 492q0 -16 -13 -28.5t-32 -14.5q-2 15 -5 28.5t-11 34.5q6 5 14.5 10t18.5 12l3 2h1q4 0 7 -3q7 -8 12 -20.5t5 -20.5zM178 691q0 -2 -0.5 -4t-1.5 -5l-14 -34q-2 -6 -7 -6h-4l-10 1l-13 1q-6 1 -10 1h-6q-18 0 -25 -16q-3 -7 -5 -16.5t-10 -38.5l-55 -218h71l2 -8
l-2 -2q-10 -17 -13 -20q-1 -2 -2 -2.5t-2 -1.5q-6 -3 -18 -3h-44l-68 -277l-2 -9q-2 -9 -4 -15t-3 -8q-7 -12 -29 -12q-21 0 -21 14q0 4 2.5 13t8.5 29q4 11 10.5 36t17.5 67l35 138l6 24h-71l14 37h64l39 156q9 36 17 60t17 41t20 29t26 24q39 30 77 30q8 0 10.5 -1t2.5 -4
zM245 112q0 -5 -7 -18.5t-16 -26.5q-18 -23 -39 -41q-17 -16 -30.5 -22.5t-27.5 -6.5q-30 0 -30 36q0 22 9 55l2 7l52 176l2 4q5 15 7 27.5t2 19.5q0 9 -6 9q-8 0 -24 -9l-8 -3q-4 0 -4 6q0 1 2 3l1 1l69 46q8 5 11 5q13 0 13 -26q0 -10 -3 -24t-11 -41l-35 -126
q-2 -3 -3 -9q-4 -13 -6.5 -21.5t-4 -15.5t-3 -12.5t-2.5 -12.5q-7 -27 -7 -38q0 -15 15 -15q11 0 24 10q12 9 22 22t26 40q5 5 7 5q3 0 3 -4z" />
    <glyph glyph-name="fl" unicode="&#xfb02;" horiz-adv-x="426" 
d="M299 681q0 -5 -1 -11.5t-3 -14.5l-1 -2l-130 -491l-2 -9q-6 -26 -10 -46t-4 -34q0 -33 20 -33q17 0 39 24t55 78q1 4 5 4t4 -4q0 -5 -10 -23t-24 -36q-9 -13 -19 -25t-21 -23q-36 -36 -66 -36q-36 0 -36 43q0 39 15 98l3 12l103 392q18 69 18 96q0 18 -14 18q-5 0 -19 -5
q-1 0 -1.5 -0.5t-2.5 -0.5l-3 -1.5t-3 -0.5q-4 0 -4 5t9 8l74 30l1 1q7 3 13 3q15 0 15 -16zM170 691q0 -2 -0.5 -4t-1.5 -5l-14 -34q-2 -6 -8 -6h-3l-10 1l-13 1q-6 1 -10 1h-6q-14 0 -20.5 -8.5t-13.5 -37.5l-6 -25l-55 -218h71l2 -8l-2 -2q-6 -9 -9 -14t-4 -6
q-1 -2 -2 -2.5t-2 -1.5q-6 -3 -18 -3h-44l-68 -277l-2 -9q-2 -9 -4 -15t-3 -8q-7 -12 -29 -12q-21 0 -21 14q0 4 2.5 13t8.5 29q4 11 10.5 36.5t17.5 66.5l35 138l6 24h-71l14 37h64l39 156q6 23 10.5 39.5t9 28.5t9 22t10.5 20q9 15 22.5 28.5t29.5 23.5t33 16t33 6
q8 0 10.5 -1t2.5 -4z" />
    <glyph glyph-name="daggerdbl" unicode="&#x2021;" horiz-adv-x="500" 
d="M328 516q-1 -1 -1 -3q-4 -10 -5.5 -15.5t-3.5 -7.5q-2 -3 -4.5 -4.5t-10.5 -1.5h-5h-131l-90 -368h148q11 0 11 -8q0 -4 -2 -9.5t-4 -10.5q-4 -6 -8.5 -7.5t-16.5 -1.5h-139l-38 -153q-2 -8 -3.5 -11.5t-3.5 -6.5t-9 -8q-11 -6 -18 -6q-6 0 -6 4q0 1 0.5 1t0.5 1l39 179
h-149q-2 -1 -4 -1q-7 0 -7 5q0 2 1 3l4 13q2 4 3 6.5t2 4.5q2 6 16 6h2h143l82 370h-150q-8 0 -8 5q0 12 6.5 21t14.5 9h146l31 140q2 8 4.5 11.5t7.5 7.5q12 11 24 17.5t17 6.5q4 0 4 -5q0 -6 -1 -9v-1l-41 -168h148l4 -5v0z" />
    <glyph glyph-name="periodcentered" unicode="&#xb7;" 
d="M3 262q0 -14 -10 -24t-24 -10t-23.5 9t-9.5 23t10 23.5t24 9.5t23.5 -9t9.5 -22z" />
    <glyph glyph-name="periodcentered" unicode="&#x2219;" 
d="M3 262q0 -14 -10 -24t-24 -10t-23.5 9t-9.5 23t10 23.5t24 9.5t23.5 -9t9.5 -22z" />
    <glyph glyph-name="quotesinglbase" unicode="&#x201a;" 
d="M-22 26q0 -63 -52 -112q-3 -3 -7 -6t-9 -8q-11 -9 -16.5 -12.5t-10.5 -3.5t-5 5q0 2 6 8l18 22q24 30 24 77q0 28 -7 36q-4 5 -10.5 8t-20.5 5q-2 0 -4 0.5t-4 0.5v7l61 45q3 3 5 3q5 0 13 -14q11 -18 15 -31t4 -30z" />
    <glyph glyph-name="quotedblbase" unicode="&#x201e;" horiz-adv-x="333" 
d="M96 22q0 -37 -41 -73q-20 -17 -31 -17q-9 0 -9 7q0 4 3 7l5 6l2 3q21 24 21 50q0 11 -7 16q-2 2 -4 2.5t-10 1.5q-13 2 -16.5 3.5t-3.5 6.5q0 3 5 8l40 28q6 5 13 5q6 0 14 -8q19 -22 19 -46zM-29 21q0 -29 -43 -71q-18 -18 -31 -18q-7 0 -7 6q0 5 2 7l6 8l2 3
q10 15 14 24.5t4 26.5q0 11 -3.5 14t-18.5 5q-10 1 -13 2.5t-3 5.5q0 3 2 5.5t9 7.5l33 24q7 6 12 6q7 0 15 -10q20 -22 20 -46z" />
    <glyph glyph-name="perthousand" unicode="&#x2030;" horiz-adv-x="870" 
d="M698 215q0 -17 -4 -40t-12 -42q-23 -61 -61 -97.5t-78 -36.5q-37 0 -60.5 29t-23.5 76q0 82 57 156q48 63 101 63q35 0 58 -31t23 -77zM422 215q0 -17 -4.5 -40t-11.5 -42q-23 -61 -61.5 -97.5t-78.5 -36.5q-37 0 -60 29t-23 76q0 84 57 156q48 63 101 63q35 0 58 -31
t23 -77zM-20 -2h-34l345 488h35zM91 378q0 -17 -4 -39.5t-12 -42.5q-23 -61 -61.5 -97.5t-78.5 -36.5q-37 0 -60 29.5t-23 75.5q0 84 57 156q48 63 100 63q18 0 33 -8.5t26 -23t17 -34t6 -42.5zM664 190q0 103 -70 103q-46 0 -74 -45t-28 -119q0 -51 18 -78.5t53 -27.5
q45 0 73 46t28 121zM387 190q0 103 -69 103q-46 0 -74.5 -45t-28.5 -119q0 -51 18 -78.5t53 -27.5q46 0 73.5 46t27.5 121zM56 353q0 103 -69 103q-46 0 -74.5 -45t-28.5 -119q0 -51 18 -78.5t53 -27.5q46 0 73.5 46t27.5 121z" />
    <glyph glyph-name="Acircumflex" unicode="&#xc2;" horiz-adv-x="704" 
d="M491 730l-67 85l-130 -87h-22l142 130h35l63 -130zM537 693q0 -10 -7 -10h-38q-9 -7 -12 -8q-19 -15 -37 -41t-34 -61q-7 -15 -13.5 -32t-12.5 -36q-4 -12 -7.5 -23.5t-7.5 -25t-9 -31.5t-12 -45h136h1q8 0 8 -6q0 -2 -2 -5t-9 -10q-5 -5 -8 -6t-11 -1h-123l-11 -46
l-4 -17q-11 -45 -17 -82.5t-6 -65.5q0 -96 80 -96q54 0 86 42t37 120q1 7 8 7q9 0 9 -7q0 -42 -13 -78.5t-35.5 -63.5t-53 -42.5t-65.5 -15.5q-49 0 -76.5 33.5t-27.5 93.5q0 21 3 45.5t8 50.5q3 15 5.5 25.5t9.5 36.5l16 60h-140l-51 -159q-25 -80 -71 -129
q-27 -29 -66 -46.5t-79 -17.5q-29 0 -53.5 10t-42 27.5t-27 42.5t-9.5 55q0 60 42 116q24 33 57.5 54.5t59.5 21.5q6 0 6 -4q0 -5 -14 -9q-26 -6 -54 -37q-49 -55 -49 -131q0 -60 28 -94.5t78 -34.5q29 0 54.5 13.5t43.5 37.5q10 13 16.5 23.5t12.5 23t11.5 29.5t12.5 42
l47 164h-107q-6 0 -6 3q0 7 14 21q8 8 15 8h95l10 34q16 54 32 94t33.5 69.5t37 49.5t41.5 34q31 19 70.5 27.5t92.5 8.5h94h1q9 0 9 -6zM433 683q-81 0 -130 -34q-40 -28 -68 -81q-13 -25 -21 -42t-15.5 -35.5t-15.5 -43.5t-21 -65h138q19 69 39.5 124.5t43.5 94.5
q13 23 35 45q11 11 20.5 18t28.5 19h-34z" />
    <glyph glyph-name="Ecircumflex" unicode="&#xca;" horiz-adv-x="500" 
d="M412 730l-67 85l-130 -87h-22l143 130h34l63 -130zM386 621q0 -42 -21.5 -86.5t-56.5 -73.5q-21 -18 -50 -36q-14 -8 -19 -8q-3 0 -3 2t3 4l22 16q19 14 37 33t29 38q23 40 23 80q0 69 -68 69q-58 0 -111 -49q-22 -21 -46 -51q-18 -23 -30.5 -42.5t-23.5 -41t-20.5 -47.5
t-21.5 -62h266q4 0 4 -4q0 -5 -11 -13q-10 -8 -18.5 -10.5t-28.5 -2.5h-4h-218q-8 -20 -9 -30q-9 -29 -13.5 -66t-4.5 -67q0 -79 29.5 -123t83.5 -44q30 0 59.5 14.5t54.5 41.5q32 35 54 80.5t24 82.5l3 44q0 6 6 6q5 0 5 -9v-3v-8q0 -2 0.5 -3.5t0.5 -3.5q0 -54 -19 -105
t-50 -90.5t-71 -63.5t-83 -24q-64 0 -102 52t-38 139q0 22 2.5 52.5t7.5 59.5q4 22 6.5 35t9.5 35h-24q-24 0 -39 -2t-26 -7h-3q-2 0 -2 1q-1 1 -1 3q0 3 2 5l25 31q3 4 6 4q1 0 2 -1q5 -1 11 -1.5t13 -0.5h3h43q3 9 5.5 15.5t4.5 11.5q47 117 165 218q35 31 71 53
q23 15 42 20.5t39 5.5q35 0 54.5 -19t19.5 -54z" />
    <glyph glyph-name="Aacute" unicode="&#xc1;" horiz-adv-x="704" 
d="M547 839q0 -7 -4.5 -12t-18.5 -14q-2 -1 -3.5 -2t-3.5 -2l-121 -81h-26l107 97q23 22 33.5 29t18.5 7t13 -6.5t5 -15.5zM537 693q0 -10 -7 -10h-38q-9 -7 -12 -8q-19 -15 -37 -41t-34 -61q-7 -15 -13.5 -32t-12.5 -36q-4 -12 -7.5 -23.5t-7.5 -25t-9 -31.5t-12 -45h136h1
q8 0 8 -6q0 -2 -2 -5t-9 -10q-5 -5 -8 -6t-11 -1h-123l-11 -46l-4 -17q-11 -45 -17 -82.5t-6 -65.5q0 -96 80 -96q54 0 86 42t37 120q1 7 8 7q9 0 9 -7q0 -42 -13 -78.5t-35.5 -63.5t-53 -42.5t-65.5 -15.5q-49 0 -76.5 33.5t-27.5 93.5q0 21 3 45.5t8 50.5q3 15 5.5 25.5
t9.5 36.5l16 60h-140l-51 -159q-25 -80 -71 -129q-27 -29 -66 -46.5t-79 -17.5q-29 0 -53.5 10t-42 27.5t-27 42.5t-9.5 55q0 60 42 116q24 33 57.5 54.5t59.5 21.5q6 0 6 -4q0 -5 -14 -9q-26 -6 -54 -37q-49 -55 -49 -131q0 -60 28 -94.5t78 -34.5q29 0 54.5 13.5
t43.5 37.5q10 13 16.5 23.5t12.5 23t11.5 29.5t12.5 42l47 164h-107q-6 0 -6 3q0 7 14 21q8 8 15 8h95l10 34q16 54 32 94t33.5 69.5t37 49.5t41.5 34q31 19 70.5 27.5t92.5 8.5h94h1q9 0 9 -6zM433 683q-81 0 -130 -34q-40 -28 -68 -81q-13 -25 -21 -42t-15.5 -35.5
t-15.5 -43.5t-21 -65h138q19 69 39.5 124.5t43.5 94.5q13 23 35 45q11 11 20.5 18t28.5 19h-34z" />
    <glyph glyph-name="Edieresis" unicode="&#xcb;" horiz-adv-x="500" 
d="M423 776q0 -14 -12.5 -25.5t-32.5 -14.5q-2 15 -5 29t-11 34q8 5 16.5 11.5t18.5 12.5l3 2q10 -8 16.5 -22t6.5 -27zM292 776q0 -14 -12.5 -25.5t-31.5 -14.5q-2 8 -2 11.5t-2 8.5q-3 18 -13 43l4.5 3t5.5 4l15 10.5t14 8.5q10 -8 16 -22t6 -27zM386 621
q0 -42 -21.5 -86.5t-56.5 -73.5q-21 -18 -50 -36q-14 -8 -19 -8q-3 0 -3 2t3 4l22 16q19 14 37 33t29 38q23 40 23 80q0 69 -68 69q-58 0 -111 -49q-22 -21 -46 -51q-18 -23 -30.5 -42.5t-23.5 -41t-20.5 -47.5t-21.5 -62h266q4 0 4 -4q0 -5 -11 -13q-10 -8 -18.5 -10.5
t-28.5 -2.5h-4h-218q-8 -20 -9 -30q-9 -29 -13.5 -66t-4.5 -67q0 -79 29.5 -123t83.5 -44q30 0 59.5 14.5t54.5 41.5q32 35 54 80.5t24 82.5l3 44q0 6 6 6q5 0 5 -9v-3v-8q0 -2 0.5 -3.5t0.5 -3.5q0 -54 -19 -105t-50 -90.5t-71 -63.5t-83 -24q-64 0 -102 52t-38 139
q0 22 2.5 52.5t7.5 59.5q4 22 6.5 35t9.5 35h-24q-24 0 -39 -2t-26 -7h-3q-2 0 -2 1q-1 1 -1 3q0 3 2 5l25 31q3 4 6 4q1 0 2 -1q5 -1 11 -1.5t13 -0.5h3h43q3 9 5.5 15.5t4.5 11.5q47 117 165 218q35 31 71 53q23 15 42 20.5t39 5.5q35 0 54.5 -19t19.5 -54z" />
    <glyph glyph-name="Egrave" unicode="&#xc8;" horiz-adv-x="500" 
d="M383 728l-127 82q-17 11 -23 18t-6 15t6 13.5t15 5.5q15 0 38 -22l119 -112h-22zM386 621q0 -42 -21.5 -86.5t-56.5 -73.5q-21 -18 -50 -36q-14 -8 -19 -8q-3 0 -3 2t3 4l22 16q19 14 37 33t29 38q23 40 23 80q0 69 -68 69q-58 0 -111 -49q-22 -21 -46 -51
q-18 -23 -30.5 -42.5t-23.5 -41t-20.5 -47.5t-21.5 -62h266q4 0 4 -4q0 -5 -11 -13q-10 -8 -18.5 -10.5t-28.5 -2.5h-4h-218q-8 -20 -9 -30q-9 -29 -13.5 -66t-4.5 -67q0 -79 29.5 -123t83.5 -44q30 0 59.5 14.5t54.5 41.5q32 35 54 80.5t24 82.5l3 44q0 6 6 6q5 0 5 -9v-3
v-8q0 -2 0.5 -3.5t0.5 -3.5q0 -54 -19 -105t-50 -90.5t-71 -63.5t-83 -24q-64 0 -102 52t-38 139q0 22 2.5 52.5t7.5 59.5q4 22 6.5 35t9.5 35h-24q-24 0 -39 -2t-26 -7h-3q-2 0 -2 1q-1 1 -1 3q0 3 2 5l25 31q3 4 6 4q1 0 2 -1q5 -1 11 -1.5t13 -0.5h3h43q3 9 5.5 15.5
t4.5 11.5q47 117 165 218q35 31 71 53q23 15 42 20.5t39 5.5q35 0 54.5 -19t19.5 -54z" />
    <glyph glyph-name="Iacute" unicode="&#xcd;" horiz-adv-x="556" 
d="M463 839q0 -7 -4.5 -12t-18.5 -14q-2 -1 -3.5 -2t-3.5 -2l-122 -81h-25l106 97q24 22 34 29t18 7t13.5 -6.5t5.5 -15.5zM430 320q0 -1 -5 -10l-12 -18q-5 -10 -13 -10h-61q-5 -10 -8.5 -17.5t-5.5 -12.5q-18 -36 -39 -70t-43 -61q-48 -61 -97.5 -89.5t-108.5 -28.5
q-39 0 -73 12.5t-59 34.5t-39 51.5t-14 63.5q0 35 14 69t40 61l28 29q8 8 13 10q3 0 3 -2q1 -1 1 -3q0 -3 -4 -7q-58 -57 -58 -125q0 -34 14.5 -63.5t40.5 -51.5t60.5 -34.5t75.5 -12.5q40 0 66.5 11.5t47.5 39.5q17 22 32 48t29 56q5 11 9.5 20.5t9 20t10 23.5t12.5 31
h-107h-1q-5 0 -5 3q0 2 2 4l27 27q4 5 6.5 5.5t12.5 0.5h2h76q7 21 12.5 36.5t10 30.5t9 32t10.5 40q11 42 15.5 69.5t4.5 50.5q0 38 -14 54t-46 16q-49 0 -93 -43q-14 -14 -26.5 -30.5t-22.5 -35.5q-8 -14 -13.5 -26.5t-10 -27.5t-8.5 -33.5t-9 -45.5q-2 -12 -3 -15.5
t-2 -5.5q-1 -1 -4 -1q-4 0 -4 4q0 10 4 32.5t9 42.5q12 47 32.5 84t52.5 74q34 38 64.5 54.5t64.5 16.5q40 0 63 -23t23 -63q0 -20 -4 -43q-4 -24 -9 -45.5t-12 -45.5t-15.5 -51.5t-20.5 -61.5l-14 -41h69h1q7 0 7 -4z" />
    <glyph glyph-name="Icircumflex" unicode="&#xce;" horiz-adv-x="556" 
d="M440 730l-67 85l-130 -87h-22l142 130h35l63 -130zM430 320q0 -1 -5 -10l-12 -18q-5 -10 -13 -10h-61q-5 -10 -8.5 -17.5t-5.5 -12.5q-18 -36 -39 -70t-43 -61q-48 -61 -97.5 -89.5t-108.5 -28.5q-39 0 -73 12.5t-59 34.5t-39 51.5t-14 63.5q0 35 14 69t40 61l28 29
q8 8 13 10q3 0 3 -2q1 -1 1 -3q0 -3 -4 -7q-58 -57 -58 -125q0 -34 14.5 -63.5t40.5 -51.5t60.5 -34.5t75.5 -12.5q40 0 66.5 11.5t47.5 39.5q17 22 32 48t29 56q5 11 9.5 20.5t9 20t10 23.5t12.5 31h-107h-1q-5 0 -5 3q0 2 2 4l27 27q4 5 6.5 5.5t12.5 0.5h2h76
q7 21 12.5 36.5t10 30.5t9 32t10.5 40q11 42 15.5 69.5t4.5 50.5q0 38 -14 54t-46 16q-49 0 -93 -43q-14 -14 -26.5 -30.5t-22.5 -35.5q-8 -14 -13.5 -26.5t-10 -27.5t-8.5 -33.5t-9 -45.5q-2 -12 -3 -15.5t-2 -5.5q-1 -1 -4 -1q-4 0 -4 4q0 10 4 32.5t9 42.5q12 47 32.5 84
t52.5 74q34 38 64.5 54.5t64.5 16.5q40 0 63 -23t23 -63q0 -20 -4 -43q-4 -24 -9 -45.5t-12 -45.5t-15.5 -51.5t-20.5 -61.5l-14 -41h69h1q7 0 7 -4z" />
    <glyph glyph-name="Idieresis" unicode="&#xcf;" horiz-adv-x="556" 
d="M451 776q0 -14 -12.5 -25.5t-32.5 -14.5q-2 15 -5.5 29t-10.5 34q15 12 35 24l3 2q10 -8 16.5 -22t6.5 -27zM320 776q0 -14 -12.5 -25.5t-32.5 -14.5q-1 8 -1 11.5t-2 8.5q-2 8 -5 18.5t-8 24.5l4.5 3t5.5 4q9 7 14.5 10.5t13.5 8.5q10 -8 16.5 -22t6.5 -27zM430 320
q0 -1 -5 -10l-12 -18q-5 -10 -13 -10h-61q-5 -10 -8.5 -17.5t-5.5 -12.5q-18 -36 -39 -70t-43 -61q-48 -61 -97.5 -89.5t-108.5 -28.5q-39 0 -73 12.5t-59 34.5t-39 51.5t-14 63.5q0 35 14 69t40 61l28 29q8 8 13 10q3 0 3 -2q1 -1 1 -3q0 -3 -4 -7q-58 -57 -58 -125
q0 -34 14.5 -63.5t40.5 -51.5t60.5 -34.5t75.5 -12.5q40 0 66.5 11.5t47.5 39.5q17 22 32 48t29 56q5 11 9.5 20.5t9 20t10 23.5t12.5 31h-107h-1q-5 0 -5 3q0 2 2 4l27 27q4 5 6.5 5.5t12.5 0.5h2h76q7 21 12.5 36.5t10 30.5t9 32t10.5 40q11 42 15.5 69.5t4.5 50.5
q0 38 -14 54t-46 16q-49 0 -93 -43q-14 -14 -26.5 -30.5t-22.5 -35.5q-8 -14 -13.5 -26.5t-10 -27.5t-8.5 -33.5t-9 -45.5q-2 -12 -3 -15.5t-2 -5.5q-1 -1 -4 -1q-4 0 -4 4q0 10 4 32.5t9 42.5q12 47 32.5 84t52.5 74q34 38 64.5 54.5t64.5 16.5q40 0 63 -23t23 -63
q0 -20 -4 -43q-4 -24 -9 -45.5t-12 -45.5t-15.5 -51.5t-20.5 -61.5l-14 -41h69h1q7 0 7 -4z" />
    <glyph glyph-name="Igrave" unicode="&#xcc;" horiz-adv-x="556" 
d="M411 728l-127 82q-17 11 -23 18t-6 15t6 13.5t14 5.5q16 0 39 -22l119 -112h-22zM430 320q0 -1 -5 -10l-12 -18q-5 -10 -13 -10h-61q-5 -10 -8.5 -17.5t-5.5 -12.5q-18 -36 -39 -70t-43 -61q-48 -61 -97.5 -89.5t-108.5 -28.5q-39 0 -73 12.5t-59 34.5t-39 51.5t-14 63.5
q0 35 14 69t40 61l28 29q8 8 13 10q3 0 3 -2q1 -1 1 -3q0 -3 -4 -7q-58 -57 -58 -125q0 -34 14.5 -63.5t40.5 -51.5t60.5 -34.5t75.5 -12.5q40 0 66.5 11.5t47.5 39.5q17 22 32 48t29 56q5 11 9.5 20.5t9 20t10 23.5t12.5 31h-107h-1q-5 0 -5 3q0 2 2 4l27 27q4 5 6.5 5.5
t12.5 0.5h2h76q7 21 12.5 36.5t10 30.5t9 32t10.5 40q11 42 15.5 69.5t4.5 50.5q0 38 -14 54t-46 16q-49 0 -93 -43q-14 -14 -26.5 -30.5t-22.5 -35.5q-8 -14 -13.5 -26.5t-10 -27.5t-8.5 -33.5t-9 -45.5q-2 -12 -3 -15.5t-2 -5.5q-1 -1 -4 -1q-4 0 -4 4q0 10 4 32.5t9 42.5
q12 47 32.5 84t52.5 74q34 38 64.5 54.5t64.5 16.5q40 0 63 -23t23 -63q0 -20 -4 -43q-4 -24 -9 -45.5t-12 -45.5t-15.5 -51.5t-20.5 -61.5l-14 -41h69h1q7 0 7 -4z" />
    <glyph glyph-name="Oacute" unicode="&#xd3;" horiz-adv-x="611" 
d="M399 839q0 -7 -4.5 -12t-18.5 -14q-2 -1 -3.5 -2t-3.5 -2l-121 -81h-26l107 97q24 22 34 29t18 7t13 -6.5t5 -15.5zM454 477q0 -45 -8.5 -92t-24.5 -93t-38 -88t-50 -76q-24 -30 -53 -55t-59 -43t-59.5 -28t-55.5 -10q-33 0 -69 18.5t-62 48.5q-29 35 -45.5 83.5
t-16.5 103.5q0 51 11.5 102.5t33 100t51.5 91.5t67 77q15 14 33 27.5t36 25t35.5 20t32.5 13.5q2 0 3.5 0.5t3.5 0.5q3 0 3 -3q0 -5 -7 -6q-25 -7 -64 -40q-56 -46 -99 -110q-42 -63 -62 -131t-20 -149q0 -114 49 -173q22 -26 54 -41t68 -15q100 0 172 98q31 42 47 87
q20 53 32 115t12 112q0 96 -29.5 147.5t-83.5 51.5q-5 0 -11 -0.5t-14 -1.5q-2 -1 -4 -1q-4 0 -4 3q0 5 3 10l1 2l27 38q4 6 10 6q15 0 35 -8t37 -20q39 -29 60.5 -79.5t21.5 -118.5z" />
    <glyph glyph-name="Ocircumflex" unicode="&#xd4;" horiz-adv-x="611" 
d="M376 730l-67 85l-129 -87h-22l142 130h35l62 -130zM454 477q0 -45 -8.5 -92t-24.5 -93t-38 -88t-50 -76q-24 -30 -53 -55t-59 -43t-59.5 -28t-55.5 -10q-33 0 -69 18.5t-62 48.5q-29 35 -45.5 83.5t-16.5 103.5q0 51 11.5 102.5t33 100t51.5 91.5t67 77q15 14 33 27.5
t36 25t35.5 20t32.5 13.5q2 0 3.5 0.5t3.5 0.5q3 0 3 -3q0 -5 -7 -6q-25 -7 -64 -40q-56 -46 -99 -110q-42 -63 -62 -131t-20 -149q0 -114 49 -173q22 -26 54 -41t68 -15q100 0 172 98q31 42 47 87q20 53 32 115t12 112q0 96 -29.5 147.5t-83.5 51.5q-5 0 -11 -0.5t-14 -1.5
q-2 -1 -4 -1q-4 0 -4 3q0 5 3 10l1 2l27 38q4 6 10 6q15 0 35 -8t37 -20q39 -29 60.5 -79.5t21.5 -118.5z" />
    <glyph glyph-name="Ograve" unicode="&#xd2;" horiz-adv-x="611" 
d="M347 728l-127 82q-17 11 -23 18t-6 15t6.5 13.5t14.5 5.5q16 0 38 -22l119 -112h-22zM454 477q0 -45 -8.5 -92t-24.5 -93t-38 -88t-50 -76q-24 -30 -53 -55t-59 -43t-59.5 -28t-55.5 -10q-33 0 -69 18.5t-62 48.5q-29 35 -45.5 83.5t-16.5 103.5q0 51 11.5 102.5t33 100
t51.5 91.5t67 77q15 14 33 27.5t36 25t35.5 20t32.5 13.5q2 0 3.5 0.5t3.5 0.5q3 0 3 -3q0 -5 -7 -6q-25 -7 -64 -40q-56 -46 -99 -110q-42 -63 -62 -131t-20 -149q0 -114 49 -173q22 -26 54 -41t68 -15q100 0 172 98q31 42 47 87q20 53 32 115t12 112q0 96 -29.5 147.5
t-83.5 51.5q-5 0 -11 -0.5t-14 -1.5q-2 -1 -4 -1q-4 0 -4 3q0 5 3 10l1 2l27 38q4 6 10 6q15 0 35 -8t37 -20q39 -29 60.5 -79.5t21.5 -118.5z" />
    <glyph glyph-name="Uacute" unicode="&#xda;" horiz-adv-x="704" 
d="M433 839q0 -7 -4.5 -12t-18.5 -14q-2 -1 -3.5 -2t-3.5 -2l-122 -81h-25l106 97q24 22 34 29t18 7t13.5 -6.5t5.5 -15.5zM542 183q0 -39 -22 -82q-25 -48 -59 -76t-66 -28q-23 0 -36.5 16t-13.5 45q0 17 4.5 41.5t12.5 50.5l9 28l74 247l5 17q10 31 10 59q0 25 -9.5 38.5
t-33.5 21.5q-14 -93 -40 -181t-63 -166q-50 -107 -105 -163t-110 -56q-38 0 -62.5 30.5t-24.5 78.5q0 28 11 69q6 24 27 91l29 90l28 87q13 39 21 66.5t11 43.5q3 14 5 30t2 28q0 25 -13 39t-36 14q-16 0 -34.5 -8.5t-37.5 -23.5t-37.5 -36t-34.5 -46q-33 -53 -51.5 -115.5
t-18.5 -120.5q0 -12 1 -23t4 -27q3 -11 3 -13q0 -4 -5 -4q-6 0 -8 11l-7 30q-2 9 -3.5 25.5t-1.5 34.5q0 35 4 64.5t13.5 56t24.5 51.5t36 52q45 56 98 89.5t96 33.5q29 0 46.5 -20t17.5 -53q0 -6 -1 -15.5t-3 -18.5q-3 -16 -7 -32t-10 -36t-14.5 -46t-20.5 -63
q-13 -38 -21 -63t-14 -42t-9.5 -30t-7.5 -26q-22 -79 -22 -131q0 -79 59 -79q65 0 120 86q33 52 60 114t47 129q17 57 27 109.5t10 81.5q0 11 -2 13q0 1 -4 5q-6 8 -9 12.5t-6 11.5q-8 19 -8 42q0 56 34 56q28 0 28 -40v-6l-1 -56l9 -2q41 -9 57.5 -27t16.5 -50
q0 -17 -3 -34t-11 -43l-68 -234q-8 -26 -8 -28q-3 -10 -5.5 -19.5t-4.5 -20.5q-5 -22 -7 -37t-2 -29q0 -38 24 -38q12 0 26.5 9t28.5 26q22 26 34 59.5t12 66.5v5q0 10 7 10q9 0 9 -27z" />
    <glyph glyph-name="Ucircumflex" unicode="&#xdb;" horiz-adv-x="704" 
d="M410 730l-67 85l-130 -87h-22l142 130h35l63 -130zM542 183q0 -39 -22 -82q-25 -48 -59 -76t-66 -28q-23 0 -36.5 16t-13.5 45q0 17 4.5 41.5t12.5 50.5l9 28l74 247l5 17q10 31 10 59q0 25 -9.5 38.5t-33.5 21.5q-14 -93 -40 -181t-63 -166q-50 -107 -105 -163t-110 -56
q-38 0 -62.5 30.5t-24.5 78.5q0 28 11 69q6 24 27 91l29 90l28 87q13 39 21 66.5t11 43.5q3 14 5 30t2 28q0 25 -13 39t-36 14q-16 0 -34.5 -8.5t-37.5 -23.5t-37.5 -36t-34.5 -46q-33 -53 -51.5 -115.5t-18.5 -120.5q0 -12 1 -23t4 -27q3 -11 3 -13q0 -4 -5 -4q-6 0 -8 11
l-7 30q-2 9 -3.5 25.5t-1.5 34.5q0 35 4 64.5t13.5 56t24.5 51.5t36 52q45 56 98 89.5t96 33.5q29 0 46.5 -20t17.5 -53q0 -6 -1 -15.5t-3 -18.5q-3 -16 -7 -32t-10 -36t-14.5 -46t-20.5 -63q-13 -38 -21 -63t-14 -42t-9.5 -30t-7.5 -26q-22 -79 -22 -131q0 -79 59 -79
q65 0 120 86q33 52 60 114t47 129q17 57 27 109.5t10 81.5q0 11 -2 13q0 1 -4 5q-6 8 -9 12.5t-6 11.5q-8 19 -8 42q0 56 34 56q28 0 28 -40v-6l-1 -56l9 -2q41 -9 57.5 -27t16.5 -50q0 -17 -3 -34t-11 -43l-68 -234q-8 -26 -8 -28q-3 -10 -5.5 -19.5t-4.5 -20.5
q-5 -22 -7 -37t-2 -29q0 -38 24 -38q12 0 26.5 9t28.5 26q22 26 34 59.5t12 66.5v5q0 10 7 10q9 0 9 -27z" />
    <glyph glyph-name="Ugrave" unicode="&#xd9;" horiz-adv-x="704" 
d="M381 728l-128 82q-16 11 -22 18t-6 15t6 13.5t14 5.5q16 0 39 -22l119 -112h-22zM542 183q0 -39 -22 -82q-25 -48 -59 -76t-66 -28q-23 0 -36.5 16t-13.5 45q0 17 4.5 41.5t12.5 50.5l9 28l74 247l5 17q10 31 10 59q0 25 -9.5 38.5t-33.5 21.5q-14 -93 -40 -181t-63 -166
q-50 -107 -105 -163t-110 -56q-38 0 -62.5 30.5t-24.5 78.5q0 28 11 69q6 24 27 91l29 90l28 87q13 39 21 66.5t11 43.5q3 14 5 30t2 28q0 25 -13 39t-36 14q-16 0 -34.5 -8.5t-37.5 -23.5t-37.5 -36t-34.5 -46q-33 -53 -51.5 -115.5t-18.5 -120.5q0 -12 1 -23t4 -27
q3 -11 3 -13q0 -4 -5 -4q-6 0 -8 11l-7 30q-2 9 -3.5 25.5t-1.5 34.5q0 35 4 64.5t13.5 56t24.5 51.5t36 52q45 56 98 89.5t96 33.5q29 0 46.5 -20t17.5 -53q0 -6 -1 -15.5t-3 -18.5q-3 -16 -7 -32t-10 -36t-14.5 -46t-20.5 -63q-13 -38 -21 -63t-14 -42t-9.5 -30t-7.5 -26
q-22 -79 -22 -131q0 -79 59 -79q65 0 120 86q33 52 60 114t47 129q17 57 27 109.5t10 81.5q0 11 -2 13q0 1 -4 5q-6 8 -9 12.5t-6 11.5q-8 19 -8 42q0 56 34 56q28 0 28 -40v-6l-1 -56l9 -2q41 -9 57.5 -27t16.5 -50q0 -17 -3 -34t-11 -43l-68 -234q-8 -26 -8 -28
q-3 -10 -5.5 -19.5t-4.5 -20.5q-5 -22 -7 -37t-2 -29q0 -38 24 -38q12 0 26.5 9t28.5 26q22 26 34 59.5t12 66.5v5q0 10 7 10q9 0 9 -27z" />
    <glyph glyph-name="dotlessi" unicode="&#x131;" 
d="M28 112q0 -5 -7 -18.5t-17 -26.5q-15 -21 -38 -41q-18 -16 -31.5 -22.5t-27.5 -6.5q-30 0 -30 36q0 22 10 55l2 7l52 176q11 38 11 51q0 9 -6 9q-8 0 -24 -9q-9 -3 -8 -3q-4 0 -4 6q0 2 2 4l70 46q8 5 11 5q12 0 12 -26q0 -10 -2.5 -24t-10.5 -41l-36 -126l-2 -9
q-8 -38 -15.5 -64.5t-7.5 -35.5q0 -15 14 -15q31 0 68 63l4 8l1 1q2 5 7 5q3 0 3 -4z" />
    <glyph glyph-name="circumflex" unicode="&#x2c6;" 
d="M102 414l-67 85l-130 -87h-22l142 130h35l63 -130z" />
    <glyph glyph-name="tilde" unicode="&#x2dc;" 
d="M137 525q-2 -33 -25 -55t-55 -22q-9 0 -18.5 0.5t-35.5 7.5l-16 4q-9 2 -15 2.5t-12 0.5q-35 0 -45 -32h-15q18 75 74 75q6 0 12.5 -1t15.5 -3l15 -3q23 -5 33 -6.5t20 -1.5q43 0 53 34h14v0z" />
    <glyph glyph-name="macron" unicode="&#xaf;" 
d="M144 471q0 -12 -12 -27q-16 -2 -28 -2.5t-22.5 -1t-21.5 -0.5h-25h-18l-79 1q-16 0 -25.5 0.5t-12.5 0.5q-2 0 -6 0.5t-10 1.5q3 15 8 23q3 5 5.5 6.5t10.5 1.5h4q9 -2 17 -2h16l81 1l77 -1h29l9 -1h3v-1v0z" />
    <glyph glyph-name="macron" unicode="&#x2c9;" 
d="M144 471q0 -12 -12 -27q-16 -2 -28 -2.5t-22.5 -1t-21.5 -0.5h-25h-18l-79 1q-16 0 -25.5 0.5t-12.5 0.5q-2 0 -6 0.5t-10 1.5q3 15 8 23q3 5 5.5 6.5t10.5 1.5h4q9 -2 17 -2h16l81 1l77 -1h29l9 -1h3v-1v0z" />
    <glyph glyph-name="breve" unicode="&#x2d8;" 
d="M170 528q-9 -14 -15 -24t-12 -17.5t-13 -14t-16 -15.5q-21 -20 -46.5 -31t-50.5 -11q-38 0 -67 32t-37 83h21q10 -35 33.5 -56.5t52.5 -21.5q18 0 36 7t35 19q16 11 26 20.5t29 29.5h24v0z" />
    <glyph glyph-name="dotaccent" unicode="&#x2d9;" 
d="M19 460q0 -14 -12.5 -25.5t-32.5 -14.5q-1 8 -1 11.5t-2 8.5q-2 8 -5 18.5t-8 24.5l4.5 3t5.5 4q9 7 14.5 10.5t13.5 8.5q10 -8 16.5 -22t6.5 -27z" />
    <glyph glyph-name="ring" unicode="&#x2da;" 
d="M125 500q0 -18 -7 -34t-18.5 -28t-27 -19t-33.5 -7q-37 0 -62.5 25.5t-25.5 61.5t25.5 61.5t62.5 25.5q18 0 33.5 -7t27.5 -18.5t18.5 -27t6.5 -33.5zM103 500q0 27 -19 46t-46 19q-26 0 -45 -19t-19 -46q0 -29 18.5 -48.5t45.5 -19.5t46 19.5t19 48.5z" />
    <glyph glyph-name="cedilla" unicode="&#xb8;" 
d="M-10 -107q0 -35 -29 -56.5t-74 -21.5q-20 0 -41.5 4t-36.5 12l10 20q28 -13 59 -13q30 0 49 14.5t19 37.5q0 42 -76 48l27 65h20l-19 -47h5q20 0 29.5 -1.5t20.5 -6.5q17 -8 27 -22.5t10 -32.5z" />
    <glyph glyph-name="hungarumlaut" unicode="&#x2dd;" 
d="M177 523q0 -7 -4.5 -12t-18.5 -14q-2 -1 -3.5 -2t-3.5 -2l-121 -81h-26l107 97q23 22 33.5 29t18.5 7q7 0 12.5 -6.5t5.5 -15.5zM59 523q0 -7 -4.5 -12t-18.5 -14q-2 -1 -3.5 -2t-3.5 -2l-121 -81h-26l107 97q23 22 33.5 29t18.5 7t13 -6.5t5 -15.5z" />
    <glyph glyph-name="ogonek" unicode="&#x2db;" 
d="M37 -129q-50 -44 -94 -44q-30 0 -49 17t-19 44q0 37 38 71q12 10 27 21t31 20h29l-7 -5q-9 -6 -14.5 -10t-9.5 -7.5t-7.5 -7t-9.5 -8.5q-18 -16 -25.5 -28.5t-7.5 -26.5q0 -19 14 -31.5t34 -12.5q27 0 59 23l11 -15v0z" />
    <glyph glyph-name="caron" unicode="&#x2c7;" 
d="M20 412h-34l-62 130l20 -3l68 -84l129 87h22z" />
    <glyph glyph-name="currency" unicode="&#xa4;" horiz-adv-x="463" 
d="M352 606q0 -3 -3 -14.5t-7.5 -25t-8.5 -26t-5 -16.5q-1 0 -3.5 -1t-3.5 -1q-8 0 -6.5 10t1.5 15q0 18 -3 35t-10.5 31t-21.5 22.5t-35 8.5q-35 0 -67 -26.5t-59.5 -68t-49.5 -93.5t-38 -103h208l-9 -26l-208 -1q-3 -11 -6 -22.5t-5 -22.5h173l-9 -26h-169q-8 -43 -8 -68
q0 -30 5.5 -61.5t20 -57t38.5 -42t61 -16.5q48 0 82.5 23t60.5 60q4 4 6 4q3 0 4.5 -3t1.5 -5q0 -8 -6.5 -17t-11.5 -15q-29 -35 -71.5 -56t-88.5 -21q-41 0 -72 16t-52 42.5t-31.5 61t-10.5 72.5q0 41 9 83h-93l9 26h62.5t27.5 1q3 11 6 21t7 21v1l-92 2l9 26h93
q24 62 59.5 118.5t75.5 100.5q13 15 31 31t38.5 29.5t42 22t42.5 8.5q16 0 32 -5.5t29 -13.5t21 -18t8 -20z" />
    <glyph glyph-name="Euro" unicode="&#x20ac;" horiz-adv-x="463" 
d="M352 606q0 -3 -3 -14.5t-7.5 -25t-8.5 -26t-5 -16.5q-1 0 -3.5 -1t-3.5 -1q-8 0 -6.5 10t1.5 15q0 18 -3 35t-10.5 31t-21.5 22.5t-35 8.5q-35 0 -67 -26.5t-59.5 -68t-49.5 -93.5t-38 -103h208l-9 -26l-208 -1q-3 -11 -6 -22.5t-5 -22.5h173l-9 -26h-169q-8 -43 -8 -68
q0 -30 5.5 -61.5t20 -57t38.5 -42t61 -16.5q48 0 82.5 23t60.5 60q4 4 6 4q3 0 4.5 -3t1.5 -5q0 -8 -6.5 -17t-11.5 -15q-29 -35 -71.5 -56t-88.5 -21q-41 0 -72 16t-52 42.5t-31.5 61t-10.5 72.5q0 41 9 83h-93l9 26h62.5t27.5 1q3 11 6 21t7 21v1l-92 2l9 26h93
q24 62 59.5 118.5t75.5 100.5q13 15 31 31t38.5 29.5t42 22t42.5 8.5q16 0 32 -5.5t29 -13.5t21 -18t8 -20z" />
    <glyph glyph-name="Eth" unicode="&#xd0;" horiz-adv-x="824" 
d="M634 395q0 -84 -31.5 -156t-92.5 -129q-119 -110 -297 -110q-20 0 -45 1t-56 3q-90 8 -112 9t-41.5 1.5t-33.5 0.5q-28 0 -50 -4t-43 -10l-7 -2q-8 -3 -12 -3q-3 0 -3 4q0 1 2 5l44 42q7 6 9 7.5t7 3.5t9.5 2.5t12.5 0.5h6.5t7.5 -1h27q18 0 30 -1t18 -1q13 -1 22.5 -1
h17.5q57 0 92 42q36 44 61 116q4 12 8 23.5t7.5 26t8.5 33t11 45.5h-105q0 -1 -1 -1q-1 1 -2 1t-2 2q0 1 0.5 1.5t0.5 1.5l4 11q4 11 7.5 14.5t10.5 3.5h96l4 18q3 14 6.5 26t6.5 23q10 32 25.5 56t38.5 45q14 12 31.5 23.5t36.5 20.5q27 13 39 13q5 0 5 -4q0 -5 -9 -8
q-8 -1 -26 -11q-40 -21 -62 -64q-11 -20 -18 -42q-3 -9 -5.5 -17t-5.5 -18.5t-6.5 -25.5t-8.5 -37h143h1q7 0 7 -6q0 -5 -1.5 -9t-6.5 -13q-2 -5 -4.5 -6t-9.5 -1h-138q-4 -14 -7 -26t-5 -21q-14 -54 -25.5 -85.5t-27.5 -54.5q-21 -32 -55 -58t-76 -43l66 -6l54 -6
q27 -3 48.5 -4t40.5 -1q80 0 127 21q39 18 71.5 51.5t56.5 78.5t37 98t13 110q0 69 -18.5 119.5t-57.5 90.5q-74 77 -191 77q-130 0 -223 -96q-94 -97 -94 -245q0 -23 3 -41l5 -31q3 -23 8 -31q2 -6 2 -7t-2 -3q-1 0 -1.5 -0.5t-1.5 -0.5q-6 0 -14 20q-5 11 -8 21t-5 18
q-6 22 -10 48.5t-4 49.5q0 126 99 215q53 48 118.5 72.5t138.5 24.5q70 0 127.5 -21.5t97.5 -60.5t62 -94.5t22 -123.5z" />
    <glyph glyph-name="afii10017" unicode="&#x410;" horiz-adv-x="824" 
d="M657 693q0 -10 -7 -10h-38q-9 -7 -12 -8q-19 -15 -37 -41t-34 -61q-7 -15 -13.5 -32t-12.5 -36q-4 -12 -7.5 -23.5t-7.5 -25t-9 -31.5t-12 -45h136h1q8 0 8 -6q0 -2 -2 -5t-9 -10q-5 -5 -8 -6t-11 -1h-123l-11 -46l-4 -17q-11 -45 -17 -82.5t-6 -65.5q0 -96 80 -96
q54 0 86 42t37 120q1 7 8 7q9 0 9 -7q0 -42 -13 -78.5t-35.5 -63.5t-53 -42.5t-65.5 -15.5q-49 0 -76.5 33.5t-27.5 93.5q0 21 3 45.5t8 50.5q3 15 5.5 25.5t9.5 36.5l16 60h-140l-51 -159q-25 -80 -71 -129q-27 -29 -66 -46.5t-79 -17.5q-29 0 -53.5 10t-42 27.5t-27 42.5
t-9.5 55q0 60 42 116q24 33 57.5 54.5t59.5 21.5q6 0 6 -4q0 -5 -14 -9q-26 -6 -54 -37q-49 -55 -49 -131q0 -60 28 -94.5t78 -34.5q29 0 54.5 13.5t43.5 37.5q10 13 16.5 23.5t12.5 23t11.5 29.5t12.5 42l47 164h-107q-6 0 -6 3q0 7 14 21q8 8 15 8h95l10 34q16 54 32 94
t33.5 69.5t37 49.5t41.5 34q31 19 70.5 27.5t92.5 8.5h94h1q9 0 9 -6zM553 683q-81 0 -130 -34q-40 -28 -68 -81q-13 -25 -21 -42t-15.5 -35.5t-15.5 -43.5t-21 -65h138q19 69 39.5 124.5t43.5 94.5q13 23 35 45q11 11 20.5 18t28.5 19h-34z" />
    <glyph glyph-name="afii10018" unicode="&#x411;" horiz-adv-x="642" 
d="M452 215q0 -45 -25 -84.5t-68 -69t-100.5 -46.5t-121.5 -17q-18 0 -37 1t-40 4l-49 7l-52 7q-14 2 -21 2.5t-16 0.5q-16 0 -35 -3.5t-28 -8.5q-2 -2 -5 -2q-4 0 -4 6q0 4 3.5 8t15.5 15l19 17q9 8 18.5 10.5t29.5 2.5h10t10 -1h3l43 -5h8h7q5 2 18 14q27 27 42 51t31 74
q17 54 31.5 113.5t26.5 118.5q5 25 9 42.5t8 30t7.5 21t8.5 15.5q8 10 24 25q27 24 43 32q12 4 17 9q3 3 5 3l2 -2q0 -1 0.5 -1.5t0.5 -1.5q0 -2 -1 -3t-2 -3l-16 -17q-14 -16 -30 -57.5t-29 -99.5l-26 -117q-12 -53 -33.5 -103t-46.5 -81q-8 -9 -15 -16.5t-15.5 -14.5
t-18.5 -15t-25 -18v-2l17.5 -3.5l15 -3t17.5 -3t26 -4.5q18 -3 31.5 -5t25 -3t21.5 -1.5t22 -0.5q93 0 133 40q11 12 21.5 30t18.5 38t12.5 40.5t4.5 38.5q0 21 -9 38.5t-24.5 31t-36 21t-44.5 7.5q-28 0 -47 -8q-6 -2 -11.5 -5t-20.5 -12q-4 -3 -8 -3t-4 2q0 4 15 13
q9 6 16.5 10t15.5 7q30 12 73 12q65 0 101.5 -31t36.5 -87zM524 674q0 -1 -0.5 -2t-0.5 -2l-7 -20q-2 -5 -3.5 -9.5t-3.5 -7.5q-2 -6 -5 -8t-11 -2h-3h-23q-2 0 -14 0.5t-33 0.5l-65 1q-8 0 -20 1t-26 2q-17 2 -29.5 2h-20.5q-32 0 -61.5 -7t-51.5 -20q-35 -20 -63 -58.5
t-39 -82.5l-9 -36q-4 -13 -8 -13q-6 0 -6 16q0 21 6.5 44.5t17.5 47t27 46t34 40.5q34 34 74 48.5t98 14.5q13 0 25 -0.5t39 -2.5q40 -3 64 -3q16 0 32.5 1t37.5 3q12 2 19.5 3t15.5 4l4 1l3 1q1 0 1.5 0.5t1.5 0.5q3 0 3 -4z" />
    <glyph glyph-name="afii10019" unicode="&#x412;" horiz-adv-x="642" 
d="M459 522q0 -37 -14 -70.5t-38 -58.5t-56 -39.5t-68 -14.5q-29 0 -60 11q-8 3 -8 7q0 1 2 3l1 1h2h1l3 -1l14 -3l22 -4t19 -2q27 0 50.5 12.5t41 33.5t27.5 49.5t10 61.5q0 73 -51.5 116t-140.5 43q-93 0 -148 -56q-36 -38 -57 -95t-21 -117q0 -20 4 -44t10 -41l2 -4
q0 -1 0.5 -2t0.5 -2q0 -5 -5 -5t-14 18q-3 7 -5.5 13t-4.5 11q-7 18 -11 40t-4 42q0 54 24 103t64.5 86.5t93.5 60t110 22.5q44 0 81.5 -13.5t64.5 -36.5t42.5 -55.5t15.5 -69.5zM452 215q0 -45 -25 -84.5t-68 -69t-100.5 -46.5t-121.5 -17q-18 0 -37 1t-40 4l-49 7l-52 7
q-14 2 -21 2.5t-16 0.5q-16 0 -35 -3.5t-28 -8.5q-2 -2 -5 -2q-4 0 -4 6q0 4 3.5 8t15.5 15l19 17q9 8 18.5 10.5t29.5 2.5h10t10 -1h3l43 -5h8h7q5 2 18 14q27 27 42 51t31 74q17 54 31.5 113.5t26.5 118.5q5 25 9 42.5t8 30t7.5 21t8.5 15.5q8 10 24 25q27 24 43 32
q12 4 17 9q3 3 5 3l2 -2q0 -1 0.5 -1.5t0.5 -1.5q0 -2 -1 -3t-2 -3l-16 -17q-14 -16 -30 -57.5t-29 -99.5l-26 -117q-12 -53 -33.5 -103t-46.5 -81q-8 -9 -15 -16.5t-15.5 -14.5t-18.5 -15t-25 -18v-2l17.5 -3.5l15 -3t17.5 -3t26 -4.5q18 -3 31.5 -5t25 -3t21.5 -1.5
t22 -0.5q93 0 133 40q11 12 21.5 30t18.5 38t12.5 40.5t4.5 38.5q0 21 -9 38.5t-24.5 31t-36 21t-44.5 7.5q-28 0 -47 -8q-6 -2 -11.5 -5t-20.5 -12q-4 -3 -8 -3t-4 2q0 4 15 13q9 6 16.5 10t15.5 7q30 12 73 12q65 0 101.5 -31t36.5 -87z" />
    <glyph glyph-name="afii10020" unicode="&#x413;" horiz-adv-x="536" 
d="M533 699q0 -1 -0.5 -2t-0.5 -2l-7 -20q-2 -5 -3.5 -9.5t-3.5 -7.5q-2 -6 -5 -8t-11 -2h-3h-23q-2 0 -14 0.5t-33 0.5l-65 1q-8 0 -20 1t-26 2q-17 2 -29.5 2h-20.5q-32 0 -61.5 -7t-51.5 -20q-35 -20 -63 -58.5t-39 -82.5l-9 -36q-4 -13 -8 -13q-6 0 -6 16q0 21 6.5 44.5
t17.5 47t27 46t34 40.5q34 34 74 48.5t98 14.5q13 0 25 -0.5t39 -2.5q40 -3 64 -3q16 0 32.5 1t37.5 3q12 2 19.5 3t15.5 4l4 1l3 1q1 0 1.5 0.5t1.5 0.5q3 0 3 -4zM352 361q-9 -40 -16 -67.5t-14 -49t-15 -40t-19 -39.5q-19 -37 -47 -67.5t-62 -52.5t-71.5 -34t-74.5 -12
q-33 0 -65 13t-55 36t-34 50.5t-11 65.5q0 34 9 60q6 18 21 41t32 43q41 45 46 45t5 -4q0 -3 -9 -13q-13 -14 -25.5 -30t-18.5 -27q-19 -35 -19 -86q0 -76 42.5 -120t115.5 -44q52 0 88.5 18.5t64.5 58.5q27 40 43 89q6 18 10 33t8.5 33t9.5 42t12 60l7 35l5 24
q6 29 10.5 50t6.5 35l13 72q4 25 11 28l25 14q29 17 35 17l1 -1q1 -1 1 -2v-2q-1 0 -1 -1q-1 -1 -4 -3q-5 -6 -9 -18.5t-11 -49.5q-4 -20 -7 -36t-6 -30l-18 -82l-3 -17z" />
    <glyph glyph-name="afii10021" unicode="&#x414;" horiz-adv-x="824" 
d="M634 395q0 -84 -31.5 -156t-92.5 -129t-134 -83.5t-168 -26.5q-17 0 -42 1t-54 3q-92 8 -112 9q-22 1 -41.5 1.5t-33.5 0.5q-28 0 -50.5 -3t-42.5 -11q-14 -5 -19 -5q-3 0 -3 4q0 1 2 5l44 42q7 6 9 7.5t7 3.5t9 2.5t12 0.5q10 0 15 -1l46 -1q34 -1 52 -1.5t22 -0.5
q38 0 67 23t54 72q10 20 18 38t15 41t15 54t19 78l9 36t7 29q21 76 69 116q13 11 28.5 21.5t30.5 18.5t27.5 13t20.5 5q5 0 5 -4q0 -5 -9 -8q-8 -1 -26 -11q-41 -22 -62 -64q-12 -24 -21 -51q-3 -8 -5.5 -17t-5.5 -21.5t-7.5 -29.5t-10.5 -42l-16 -62q-8 -30 -14 -51
t-11.5 -36.5t-12 -27.5t-14.5 -24q-21 -32 -55 -58t-76 -43q27 -2 47 -4t34 -4q29 -3 48 -5t33 -2.5t25.5 -1t26.5 -0.5q71 0 119 20t87 67q46 54 70 123.5t24 148.5q0 69 -18.5 119.5t-57.5 90.5q-74 77 -191 77q-130 0 -223 -96q-94 -97 -94 -245q0 -23 3 -41l5 -31
q3 -23 8 -31q2 -6 2 -7t-2 -3q-1 0 -1.5 -0.5t-1.5 -0.5q-6 0 -14 20q-5 11 -8 21t-5 18q-6 22 -10 48.5t-4 49.5q0 126 99 215q53 48 118.5 72.5t138.5 24.5q70 0 127.5 -21.5t97.5 -60.5t62 -94.5t22 -123.5z" />
    <glyph glyph-name="afii10022" unicode="&#x415;" horiz-adv-x="505" 
d="M131 362q-3 -5 -3.5 -9.5t-13.5 -6.5q-37 -9 -62.5 -29.5t-41.5 -45.5t-23 -51.5t-7 -45.5q0 -79 35.5 -123.5t89.5 -44.5q37 0 71 22t60 54.5t42.5 71t18.5 71.5l3 44q0 6 6 6q5 0 5 -9v-11q0 -2 0.5 -3.5t0.5 -3.5q0 -54 -18 -102t-48.5 -84t-70 -57t-82.5 -21
q-48 0 -86.5 20t-62 52.5t-30 73.5t8 82.5t53.5 79.5t106 65q-39 56 -37 109t30 96.5t74 74t95 41t92.5 -3t66.5 -56.5q14 -27 3.5 -54t-34 -52t-55 -47t-59.5 -40q-14 -8 -19 -8q-3 0 -3 2t3 4l22 16q42 30 65.5 70t23.5 81q0 69 -68 69q-28 0 -57.5 -18t-55 -45.5t-45 -62
t-27 -67.5t-0.5 -61t34 -43z" />
    <glyph glyph-name="afii10024" unicode="&#x416;" horiz-adv-x="966" 
d="M438 293l-12 -42q-15 -51 -22 -81t-13 -50t-13.5 -35t-22.5 -36q-11 -15 -19 -23.5t-25 -21.5l-31 -21v7q25 21 39 45.5t24 57t19.5 76t25.5 104.5l6 23v3h-82q-4 -13 -10 -31q-3 -8 -5.5 -13.5t-4.5 -10.5q-46 -107 -161 -199q-35 -28 -69 -49q-23 -13 -41.5 -18
t-37.5 -5q-35 0 -54 17.5t-19 49.5q0 38 21 78.5t55 67.5q20 16 49 33q13 6 18 6q3 0 3 -2q0 -1 -3 -2l-21 -15q-19 -14 -36 -31t-29 -34q-22 -37 -22 -73q0 -63 66 -63q58 0 109 45q21 19 45 46q17 21 29.5 39t23 37t20 43t21.5 57q6 16 10 27l-124 -3q-6 0 -6 4q0 2 1 2
l32 28q7 6 24 6h84q6 23 10 51q5 34 5 62q0 72 -28.5 111.5t-82.5 39.5q-29 0 -58 -13t-53 -37q-31 -32 -52.5 -74t-23.5 -75l-3 -41q0 -5 -6 -5q-4 0 -4 8v10q0 2 -0.5 3.5t-0.5 3.5q0 49 18.5 95.5t48.5 82.5t69 58t81 22q62 0 99.5 -47.5t37.5 -126.5q0 -20 -2.5 -47.5
t-7.5 -55.5q-3 -15 -5 -26l80 -1l14 60q12 51 18.5 81.5t13 50t15.5 34.5t24 36q11 15 19 23.5t25 21.5l31 21v-7q-25 -21 -40 -45t-26 -56.5t-20.5 -76.5t-21.5 -105l-8 -38l84 -1q23 68 53.5 126.5t64.5 101t69 66.5t67 24q24 0 39.5 -16t15.5 -41t-11.5 -57.5t-32 -66.5
t-49.5 -66t-64 -56q-14 -10 -26 -17t-25.5 -12t-30 -9.5t-38.5 -8.5q-6 -23 -9.5 -59.5t-3.5 -74.5q0 -70 22 -102.5t64 -32.5q27 0 53.5 18t47 49t34 71t15.5 84q1 9 1.5 11t3.5 2q4 0 5.5 -3t1.5 -12v-1q0 -34 -10.5 -68t-19.5 -54q-14 -31 -33.5 -57t-41.5 -45t-44 -29.5
t-41 -10.5q-48 0 -76.5 44.5t-28.5 117.5q0 13 1 32t3.5 39.5t5.5 41t7 37.5h-80zM798 557q0 32 -10 46t-33 14q-52 0 -99.5 -73t-84.5 -209q27 1 49 5.5t41 13.5t36.5 23t36.5 34q33 35 48 71.5t16 74.5z" />
    <glyph glyph-name="afii10025" unicode="&#x417;" horiz-adv-x="544" 
d="M188 382q24 2 54 10.5t56.5 26.5t45 46t18.5 69q0 54 -31 88t-85 34q-21 0 -41.5 -9.5t-37 -28.5t-28.5 -47t-15 -65l-15 -10q5 37 11 61t15.5 42t24 33t37.5 34q18 11 34 17t35 6q31 0 57.5 -5t45.5 -17t30 -32.5t11 -51.5q0 -43 -16 -79.5t-44 -65t-66 -47t-82 -24.5
q36 -2 63 -17t45 -38.5t27 -53.5t9 -62q0 -56 -25.5 -98t-65 -69.5t-88 -41.5t-94.5 -14q-62 0 -96.5 17.5t-50.5 40.5t-19 45.5t-3 32.5q0 30 11 52.5t25 38.5t28.5 24.5t22.5 10.5l5 -6q-5 -3 -13.5 -9.5t-16.5 -17t-14.5 -26.5t-6.5 -40q0 -39 12 -66t32.5 -44.5
t46.5 -25.5t54 -8q41 0 77 12t62.5 35.5t42 57t15.5 76.5q0 52 -15 86t-38 54t-50.5 27.5t-52.5 7.5l-1 16q11 2 29 7t29 11z" />
    <glyph glyph-name="afii10026" unicode="&#x418;" horiz-adv-x="704" 
d="M558 183q0 -39 -22 -82q-25 -48 -59 -76t-66 -28q-23 0 -36.5 16t-13.5 45q0 17 4.5 41.5t12.5 50.5l9 28l74 247l5 17q10 31 10 59q0 25 -9.5 38.5t-33.5 21.5q-14 -93 -40 -181t-63 -166q-50 -107 -105 -163t-110 -56q-38 0 -62.5 30.5t-24.5 78.5q0 28 11 69
q6 24 27 91l29 90l28 87q13 39 21 66.5t11 43.5q3 14 5 30t2 28q0 25 -13 39t-36 14q-16 0 -34.5 -8.5t-37.5 -23.5t-37.5 -36t-34.5 -46q-33 -53 -51.5 -115.5t-18.5 -120.5q0 -12 1 -23t4 -27q3 -11 3 -13q0 -4 -5 -4q-6 0 -8 11l-7 30q-2 9 -3.5 25.5t-1.5 34.5
q0 35 4 64.5t13.5 56t24.5 51.5t36 52q45 56 98 89.5t96 33.5q29 0 46.5 -20t17.5 -53q0 -6 -1 -15.5t-3 -18.5q-3 -16 -7 -32t-10 -36t-14.5 -46t-20.5 -63q-13 -38 -21 -63t-14 -42t-9.5 -30t-7.5 -26q-22 -79 -22 -131q0 -79 59 -79q65 0 120 86q33 52 60 114t47 129
q17 57 27 109.5t10 81.5q0 11 -2 13q0 1 -4 5q-6 8 -9 12.5t-6 11.5q-8 19 -8 42q0 56 34 56q28 0 28 -40v-6l-1 -56l9 -2q41 -9 57.5 -27t16.5 -50q0 -17 -3 -34t-11 -43l-68 -234q-8 -26 -8 -28q-3 -10 -5.5 -19.5t-4.5 -20.5q-5 -22 -7 -37t-2 -29q0 -38 24 -38
q12 0 26.5 9t28.5 26q22 26 34 59.5t12 66.5v5q0 10 7 10q9 0 9 -27z" />
    <glyph glyph-name="afii10027" unicode="&#x419;" horiz-adv-x="704" 
d="M558 183q0 -39 -22 -82q-25 -48 -59 -76t-66 -28q-23 0 -36.5 16t-13.5 45q0 17 4.5 41.5t12.5 50.5l9 28l74 247l5 17q10 31 10 59q0 25 -9.5 38.5t-33.5 21.5q-14 -93 -40 -181t-63 -166q-50 -107 -105 -163t-110 -56q-38 0 -62.5 30.5t-24.5 78.5q0 28 11 69
q6 24 27 91l29 90l28 87q13 39 21 66.5t11 43.5q3 14 5 30t2 28q0 25 -13 39t-36 14q-16 0 -34.5 -8.5t-37.5 -23.5t-37.5 -36t-34.5 -46q-33 -53 -51.5 -115.5t-18.5 -120.5q0 -12 1 -23t4 -27q3 -11 3 -13q0 -4 -5 -4q-6 0 -8 11l-7 30q-2 9 -3.5 25.5t-1.5 34.5
q0 35 4 64.5t13.5 56t24.5 51.5t36 52q45 56 98 89.5t96 33.5q29 0 46.5 -20t17.5 -53q0 -6 -1 -15.5t-3 -18.5q-3 -16 -7 -32t-10 -36t-14.5 -46t-20.5 -63q-13 -38 -21 -63t-14 -42t-9.5 -30t-7.5 -26q-22 -79 -22 -131q0 -79 59 -79q65 0 120 86q33 52 60 114t47 129
q17 57 27 109.5t10 81.5q0 11 -2 13q0 1 -4 5q-6 8 -9 12.5t-6 11.5q-8 19 -8 42q0 56 34 56q28 0 28 -40v-6l-1 -56l9 -2q41 -9 57.5 -27t16.5 -50q0 -17 -3 -34t-11 -43l-68 -234q-8 -26 -8 -28q-3 -10 -5.5 -19.5t-4.5 -20.5q-5 -22 -7 -37t-2 -29q0 -38 24 -38
q12 0 26.5 9t28.5 26q22 26 34 59.5t12 66.5v5q0 10 7 10q9 0 9 -27zM491 866q0 -2 2 -3l3 -1q-7 -17 -23.5 -38.5t-40 -40.5t-53 -32.5t-65.5 -13.5q-11 0 -26.5 2t-29 7.5t-23 13.5t-9.5 20q0 6 3.5 15t8.5 16.5t11.5 13t12.5 5.5q9 -35 29 -47t51 -12q30 0 53.5 10.5
t41.5 25t31 31t23 28.5z" />
    <glyph glyph-name="afii10028" unicode="&#x41a;" horiz-adv-x="870" 
d="M746 688q0 -5 -12 -21q-5 -6 -7 -11q-5 -9 -10 -9q-3 0 -6 4q-8 18 -32 18q-19 0 -31 -12q-8 -8 -15 -21t-21 -46q-23 -54 -41.5 -90t-41.5 -66q-25 -32 -52 -49q-10 -7 -18.5 -11.5t-19.5 -8.5t-27 -9t-40 -12q19 -5 29 -10t20 -15q16 -16 28 -41q5 -11 9 -21t7.5 -22.5
t6.5 -29l7 -38.5t6.5 -37t4.5 -25.5t4.5 -18.5t5.5 -16q14 -38 48 -38q37 0 73 46q17 23 31.5 49.5t22.5 51.5q3 10 4.5 12t3.5 2q3 0 3 -6v-6q-3 -15 -12 -38t-20 -41q-29 -50 -64 -78t-68 -28q-27 0 -48 21q-15 15 -23 35.5t-15 60.5q-2 13 -3.5 24t-3.5 20
q-5 25 -8.5 43.5t-7 32t-7 24.5t-8.5 22q-5 13 -13 23t-19 19q-10 8 -19.5 11.5t-26.5 5.5q-15 -49 -27.5 -84t-24.5 -61t-25.5 -47t-30.5 -43q-37 -47 -91 -76t-104 -29q-29 0 -54.5 11.5t-44.5 32t-30 47.5t-11 58q0 36 15 72.5t42 65.5q29 32 40 32q1 0 2 -1t1 -2
t-1.5 -3t-6.5 -7q-15 -14 -23.5 -24t-13.5 -21q-15 -27 -15 -70q0 -33 11 -61.5t30.5 -50t46 -33.5t56.5 -12q73 0 119 73q15 24 26 46t21.5 52t22.5 71t28 103q9 36 17 63t15 49t14.5 40.5t16.5 38.5q7 15 14 27t15 22q10 14 20 23.5t33 28.5l-31 -1q-52 -2 -92 -5.5
t-60 -8.5q-18 -5 -36 -13.5t-37 -22.5q-18 -14 -31 -27t-23.5 -29.5t-19 -38t-17.5 -51.5v-1q-2 -3 -3 -3q-4 0 -4 3q1 17 10 48.5t21 59.5q26 63 70.5 91.5t111.5 28.5h21t24 -1q25 -1 47 -1.5t33 -0.5q9 0 13.5 0.5t16.5 1.5q10 1 18 1.5t13 0.5q11 0 11 -4q0 -3 -6 -7
q-9 -6 -19 -14.5t-16 -15.5q-11 -13 -20 -29t-17 -35q-9 -22 -17 -43.5t-15.5 -46t-16.5 -54.5t-20 -68l-8 -27q13 0 22.5 1t18 3.5t18 6t21.5 9.5q17 8 30.5 17t24.5 19q9 9 17.5 20t17.5 25.5t19 33t22 44.5q11 23 19 39t14.5 27.5t13.5 20.5t15 18q26 28 58 44t61 16
q17 0 23.5 -2.5t6.5 -9.5z" />
    <glyph glyph-name="afii10029" unicode="&#x41b;" horiz-adv-x="824" 
d="M272 352l-51 -159q-25 -80 -71 -129q-27 -29 -66 -46.5t-79 -17.5q-29 0 -53.5 10t-42 27.5t-27 42.5t-9.5 55q0 60 42 116q24 33 57.5 54.5t59.5 21.5q6 0 6 -4q0 -5 -14 -9q-26 -6 -54 -37q-49 -55 -49 -131q0 -60 28 -94.5t78 -34.5q29 0 54.5 13.5t43.5 37.5
q10 13 16.5 23.5t12.5 23t11.5 29.5t12.5 42l47 164l11 32l10 34q16 54 32 94t33.5 69.5t37 49.5t41.5 34q31 19 70.5 27.5t92.5 8.5h94h1q9 0 9 -6q0 -10 -7 -10h-38q-9 -7 -12 -8q-19 -15 -37 -41t-34 -61q-7 -15 -13.5 -32t-12.5 -36q-4 -12 -7.5 -23.5t-7.5 -25
t-9 -31.5t-12 -45l-8 -28l-11 -46l-4 -17q-11 -45 -17 -82.5t-6 -65.5q0 -96 80 -96q54 0 86 42t37 120q1 7 8 7q9 0 9 -7q0 -42 -13 -78.5t-35.5 -63.5t-53 -42.5t-65.5 -15.5q-49 0 -76.5 33.5t-27.5 93.5q0 21 3 45.5t8 50.5q3 15 5.5 25.5t9.5 36.5l16 60
q27 99 47.5 154.5t43.5 94.5q13 23 35 45q11 11 20.5 18t28.5 19h-34q-81 0 -130 -34q-40 -28 -68 -81q-13 -25 -21 -42t-15.5 -35.5t-15.5 -43.5t-31 -95z" />
    <glyph glyph-name="afii10030" unicode="&#x41c;" horiz-adv-x="1000" 
d="M930 697q-2 -8 -6 -18l-6 -12q-5 -9 -8.5 -11.5t-13.5 -2.5h-13q-8 -1 -14.5 -1h-11.5q-29 -2 -35 -4q-17 -8 -45.5 -48.5t-58.5 -100.5q-20 -40 -37 -85.5t-29 -92t-19 -90t-7 -79.5q0 -54 17.5 -83t51.5 -29q54 0 102 64q23 31 37.5 61.5t25.5 73.5q1 6 5 6t4 -6
q0 -9 -2.5 -22t-7 -28t-11 -30.5t-13.5 -29.5q-32 -65 -75.5 -101.5t-87.5 -36.5q-47 0 -73 41.5t-26 115.5q0 123 60 251q17 39 50 95q13 21 22 36t18 28t18.5 25.5t23.5 29.5q-17 -8 -28.5 -14.5t-23 -15t-24 -20.5t-31.5 -31q-48 -49 -84 -97.5t-71 -111.5
q-20 -35 -40.5 -77t-35.5 -77q-14 -32 -24 -62t-19 -62q-5 -18 -9 -31.5t-5 -15.5q-2 -3 -6 -3q-5 0 -7 2t-2 10q0 2 0.5 4t0.5 5q6 79 6 139q0 20 -0.5 38.5t-2.5 41.5l-20 308q-4 -15 -6.5 -26.5t-4.5 -19.5q-56 -216 -94 -286q-11 -20 -27.5 -43.5t-36.5 -47t-41 -45
t-40 -37.5q-26 -22 -60.5 -34.5t-66.5 -12.5q-35 0 -65 12t-52 33t-35 49.5t-13 61.5q0 34 15.5 69.5t38.5 57.5q13 11 27 21t19 10q3 0 3 -3q0 -1 -3 -4q-1 -1 -1 -1.5t-2 -2.5l-12 -15q-15 -19 -24.5 -47.5t-9.5 -54.5q0 -30 11.5 -55.5t31 -44t46 -29.5t56.5 -11
q40 0 80 20q38 19 64.5 51t51.5 87q31 71 54 142q11 37 24 84t27 102q4 17 8 29.5t7.5 22.5t7.5 18.5t9 17.5q9 16 20 30.5t22 23.5q3 1 3 4q0 4 -7 4q-4 0 -8.5 -0.5t-11.5 -1.5q-19 -2 -40 -4t-47 -3q-35 -2 -59 -4t-42.5 -6t-33 -10t-28.5 -15q-32 -22 -53 -51
q-16 -23 -27.5 -53.5t-16.5 -59.5q-1 -9 -7 -9q-2 0 -3 2.5t-1 10.5q0 23 8 57t20 61q18 40 45 68q24 24 55 34.5t81 10.5q27 0 59 -3l52 -5q8 -1 14.5 -1.5t14.5 -0.5q16 0 32.5 1.5t25.5 3.5q10 2 13 2q6 0 6 -7q0 -2 -2 -4q-20 -19 -20 -86v-45.5t3 -49.5l1 -8l20 -316
l12 24t8 17q22 45 34 71t16 33q14 26 29 52.5t32 52.5q37 57 73.5 98t81.5 76q28 21 57.5 39t58 30.5t55 19.5t47.5 7q12 0 12 -3v-1z" />
    <glyph glyph-name="afii10031" unicode="&#x41d;" horiz-adv-x="870" 
d="M703 594q0 -72 -72 -164q-40 -50 -85 -82q-14 -10 -26 -17t-25.5 -12t-30 -9.5t-38.5 -8.5q-6 -23 -9.5 -59.5t-3.5 -74.5t5 -61.5t18 -41.5q23 -32 63 -32q27 0 53.5 18t47 49t34 71t15.5 84q1 9 1.5 11t3.5 2q4 0 5.5 -3t1.5 -12v-1q0 -5 -0.5 -10t-1.5 -12
q-11 -61 -28 -100q-18 -40 -50 -76q-56 -66 -110 -66q-48 0 -76.5 44.5t-28.5 117.5q0 13 1.5 33.5t3.5 42.5q3 25 5 38t7 36h-71q-5 -21 -9.5 -37t-9 -29t-9.5 -26t-12 -28q-18 -41 -42 -73q-40 -55 -96.5 -86.5t-114.5 -31.5q-28 0 -52.5 11.5t-43 31t-29.5 45.5t-11 55
q0 39 14.5 76.5t39.5 64.5q13 14 25 23.5t17 9.5q3 0 3 -3t-5 -6q-14 -10 -25.5 -24t-20 -31t-13.5 -35t-5 -36q0 -31 11.5 -58.5t31.5 -47.5t47 -32t58 -12q42 0 79 20.5t57 55.5q22 37 38 89q4 14 7.5 26t7 24.5t7 26.5l8.5 34h-123q-6 0 -6 4q0 2 1 2l32 28q7 6 24 6h3
h78l12 42q11 39 17.5 63t11 39.5t8 27t9.5 26.5q5 11 11 23t14 23q11 15 19 23.5t25 21.5q-38 -1 -66.5 -2t-50 -2.5t-37 -3.5t-28.5 -5q-77 -17 -118 -111q-11 -26 -15 -51q-1 0 -1 -1q0 -4 -6 -4q-10 0 -10 5v2l4 18q9 41 29.5 79t48.5 64q20 20 46.5 30t55.5 10
q11 0 34.5 -1.5t59.5 -5.5q22 -3 37 -3h14t26 2l8 1v-7q-17 -14 -24.5 -22.5t-15.5 -25.5q-14 -30 -24 -63q-8 -26 -19 -73t-25 -99l-6 -23h76q4 11 6.5 18.5t4.5 12.5q14 37 31 72t33 62q41 69 89.5 111t89.5 42q24 0 39.5 -16t15.5 -41zM662 557q0 32 -10 46t-33 14
q-58 0 -107 -86q-10 -18 -18.5 -35.5t-16.5 -36.5q-7 -16 -12 -29.5t-9.5 -27t-9.5 -29.5t-11 -38q27 1 49 5.5t41 13.5t36.5 23t36.5 34q64 70 64 146z" />
    <glyph glyph-name="afii10032" unicode="&#x41e;" horiz-adv-x="611" 
d="M454 477q0 -45 -8.5 -92t-24.5 -93t-38 -88t-50 -76q-24 -30 -53 -55t-59 -43t-59.5 -28t-55.5 -10q-33 0 -69 18.5t-62 48.5q-29 35 -45.5 83.5t-16.5 103.5q0 51 11.5 102.5t33 100t51.5 91.5t67 77q15 14 33 27.5t36 25t35.5 20t32.5 13.5q2 0 3.5 0.5t3.5 0.5
q3 0 3 -3q0 -5 -7 -6q-25 -7 -64 -40q-56 -46 -99 -110q-42 -63 -62 -131t-20 -149q0 -114 49 -173q22 -26 54 -41t68 -15q100 0 172 98q31 42 47 87q20 53 32 115t12 112q0 96 -29.5 147.5t-83.5 51.5q-5 0 -11 -0.5t-14 -1.5q-2 -1 -4 -1q-4 0 -4 3q0 5 3 10l1 2l27 38
q4 6 10 6q15 0 35 -8t37 -20q39 -29 60.5 -79.5t21.5 -118.5z" />
    <glyph glyph-name="afii10033" unicode="&#x41f;" horiz-adv-x="731" 
d="M615 703q0 -1 -0.5 -2t-0.5 -2l-9 -20l-4 -10t-4 -8q-3 -6 -6.5 -8t-13.5 -2h-3h-28q-3 0 -17.5 0.5t-40.5 0.5l-79 1q-9 0 -24 1t-32 2q-20 2 -35.5 2h-24.5q-39 0 -75 -7t-63 -20q-42 -20 -76.5 -59.5t-47.5 -83.5l-11 -37q-5 -13 -10 -13q-7 0 -7 16q0 22 8 45.5
t21.5 47.5t33 47t40.5 41q42 34 90.5 49t119.5 15q16 0 30.5 -0.5t47.5 -2.5q48 -3 77 -3q20 0 40 1t46 3q14 2 23 3t19 4l5 1l4 1q1 0 1.5 0.5t1.5 0.5q4 0 4 -4zM325 350q-9 -40 -16 -67.5t-14 -49t-15 -40t-19 -39.5q-19 -37 -47 -67.5t-62 -52.5t-71.5 -34t-74.5 -12
q-33 0 -65 13t-55 36t-34 50.5t-11 65.5q0 34 9 60q6 18 21 41t32 43q41 45 46 45t5 -4q0 -3 -9 -13q-13 -14 -25.5 -30t-18.5 -27q-19 -35 -19 -86q0 -76 42.5 -120t115.5 -44q52 0 88.5 18.5t64.5 58.5q27 40 43 89q6 18 10 33t8.5 33t9.5 42t12 60l7 35l5 24
q6 29 10.5 50t6.5 35l13 72q4 25 11 28l25 14q29 17 35 17l1 -1q1 -1 1 -2v-2q-1 0 -1 -1q-1 -1 -4 -3q-5 -6 -9 -18.5t-11 -49.5q-4 -20 -7 -36t-6 -30l-18 -82l-3 -17zM539 478q-4 -8 -8 -21.5t-7.5 -29l-7 -31t-6.5 -26.5l-48 -195q-13 -32 -15 -53t-2 -38q0 -21 4.5 -34
t20.5 -13t32.5 12.5t30 32t21.5 43t8 44.5v10l-1 4q0 8 7 8q12 0 12 -32t-16 -60t-38.5 -49t-47.5 -33.5t-43 -12.5q-20 0 -33 13.5t-13 37.5q-1 14 2 31t8 36l6 24q22 83 38 142.5t26.5 99.5t15.5 63t5 32v4q3 12 4 22t1 19q0 16 -5 22t-17 6l-6 -2t-12.5 -4t-11.5 -4
t-4 -2q-2 0 -2 3q0 2 4.5 5t20.5 13l18 11q20 13 33 18t23 5q16 0 19 -19q0 -9 -1 -22t-2 -18z" />
    <glyph glyph-name="afii10034" unicode="&#x420;" horiz-adv-x="556" 
d="M433 550q0 -30 -4 -62t-11.5 -63.5t-18.5 -61t-24 -54.5q-13 -24 -30.5 -49.5t-40.5 -51.5q-20 -23 -35 -39t-31 -30t-34 -28t-43 -31q49 -15 81 -15q51 0 87 33q16 14 27.5 30.5t25.5 42.5q1 4 5 4t4 -4q0 -7 -9.5 -25t-21.5 -36q-10 -14 -21 -26.5t-22 -23.5
q-36 -33 -85 -33h-10t-10 1q-11 0 -21 3q-2 0 -9 2t-19 4l-18 3l-25 6q-20 5 -40 8t-32 2l-14 -1q-9 0 -9 4q0 3 3 6.5t12 10.5l18 14q7 6 16 6h6t13 -2q8 -2 12.5 -2.5t9.5 -0.5q28 0 51.5 12t49.5 39q52 53 89 119q40 69 58.5 136t18.5 139q0 132 -89 132
q-55 0 -103.5 -53.5t-83.5 -153.5q-13 -37 -24.5 -72.5t-24 -78.5t-26.5 -96t-32 -124q-13 -51 -23.5 -92t-15.5 -65q-3 -12 -4.5 -20t-2.5 -13q-3 -15 -9 -27q-6 -14 -18.5 -21.5t-27.5 -7.5q-39 0 -39 47q0 8 1 15t4 20q5 22 16.5 73.5t28.5 123.5l34 144l40 175l21 92
q5 21 8 36t4.5 25.5t2 18.5t0.5 16q0 37 -29 37q-15 0 -43 -17l-7 -3q-5 -4 -7 -4q-4 0 -4 4q0 3 6.5 8t23.5 14l49 28l4 2q12 6 20 9t16 3q29 0 29 -35q0 -11 -2 -23.5t-5 -26.5l-2 -6l-158 -664q-5 -20 -7.5 -34t-2.5 -24q0 -22 16 -22q9 0 15 10t12 35l12 48
q4 14 12.5 45.5t22.5 82.5q8 29 17.5 64.5t20.5 77.5q21 79 37 135t29.5 96t26 67t25.5 48q17 27 39.5 50t47 40.5t49.5 27t47 9.5q49 0 76.5 -42.5t27.5 -119.5z" />
    <glyph glyph-name="afii10035" unicode="&#x421;" horiz-adv-x="549" 
d="M419 607q0 -42 -20 -83t-58 -78q-44 -43 -98 -68q-18 -9 -40 -16.5t-44 -13t-43.5 -8.5t-39.5 -3h-18q-12 0 -17 0.5t-14 2.5q-5 -10 -8.5 -17.5t-6.5 -15t-6 -16t-6 -20.5q-10 -33 -14 -60t-4 -53q0 -69 34 -108.5t92 -39.5q32 0 62 14.5t55 40.5q9 9 16.5 19t15.5 21
q31 46 48 98q2 5 6.5 21t12.5 43q2 8 6 8q8 0 8 -19q0 -35 -19.5 -82.5t-49.5 -85.5q-41 -52 -89 -79.5t-99 -27.5q-68 0 -106.5 44.5t-38.5 122.5q0 26 5 56t13 60q3 13 6 23t7 20t8.5 20.5t11.5 24.5q-87 47 -87 126q0 32 15 62t39.5 52.5t57 36t68.5 13.5q10 0 10 -5
q0 -3 -1.5 -4t-7.5 -2q-18 -1 -38.5 -7.5t-37.5 -16.5q-70 -43 -70 -123q0 -24 5.5 -42t19.5 -38q10 -14 16 -19.5t19 -12.5l12 22q25 47 48 80.5t53 68.5q12 14 25.5 29t28.5 29q51 49 92 72t80 23t62 -23.5t23 -65.5zM382 589q0 32 -21.5 52t-55.5 20q-31 0 -58.5 -14
t-62.5 -49q-17 -17 -32 -34t-27 -34q-12 -16 -21.5 -30.5t-19 -32.5t-21.5 -43.5t-29 -62.5q3 -1 5.5 -1t4.5 -1q10 -2 23 -2q8 -1 13.5 -1h9.5q31 0 68.5 8t63.5 20q32 15 61 39t51 52t35 58t13 56z" />
    <glyph glyph-name="afii10036" unicode="&#x422;" horiz-adv-x="1041" 
d="M780 469q-4 -8 -8 -21.5t-7.5 -29l-7 -31t-6.5 -26.5l-48 -195q-13 -32 -15 -53t-2 -38q0 -21 4.5 -34t20.5 -13t32.5 12.5t30 32t21.5 43t8 44.5v10l-1 4q0 8 7 8q12 0 12 -32t-16 -60t-38.5 -49t-47.5 -33.5t-43 -12.5q-20 0 -33 13.5t-13 37.5q-1 14 2 31t8 36l6 24
q22 83 38 142.5t26.5 99.5t15.5 63t5 32v4q3 12 4 22t1 19q0 16 -5 22t-17 6l-6 -2t-12.5 -4t-11.5 -4t-4 -2q-2 0 -2 3q0 2 4.5 5t20.5 13l18 11q20 13 33 18t23 5q16 0 19 -19q0 -9 -1 -22t-2 -18zM560 351l34 127q1 5 2 7t6 2h20l4 -2q-1 -14 -7.5 -46.5t-17 -75.5
t-23.5 -91.5t-25.5 -94.5t-24 -85t-18.5 -62l-8 -22q-2 -5 -2.5 -7t-5.5 -2h-20l-4 3l16 66q8 27 13.5 50.5t8.5 34.5zM468 350q-9 -40 -16 -67.5t-14 -49t-15 -40t-19 -39.5q-19 -37 -47 -67.5t-62 -52.5t-71.5 -34t-74.5 -12q-33 0 -65 13t-55 36t-34 50.5t-11 65.5
q0 34 9 60q6 18 21 41t32 43q41 45 46 45t5 -4q0 -3 -9 -13q-13 -14 -25.5 -30t-18.5 -27q-19 -35 -19 -86q0 -76 42.5 -120t115.5 -44q52 0 88.5 18.5t64.5 58.5q27 40 43 89q6 18 10 33t8.5 33t9.5 42t12 60l7 35l5 24q6 29 10.5 50t6.5 35l13 72q4 25 11 28l25 14
q29 17 35 17l1 -1q1 -1 1 -2v-2q-1 0 -1 -1q-1 -1 -4 -3q-5 -6 -9 -18.5t-11 -49.5q-4 -20 -7 -36t-6 -30l-18 -82l-3 -17zM918 694q0 -1 -0.5 -2t-0.5 -2l-10 -20q-2 -5 -4 -9.5t-5 -6.5q-3 -6 -6.5 -8t-13.5 -2h-5h-30q-2 0 -18 0.5t-43 0.5l-84 1q-11 0 -26.5 1t-34.5 2
q-22 2 -38 2h-27q-41 0 -79.5 -7t-67.5 -20q-46 -20 -82.5 -58t-50.5 -82l-12 -35q-5 -13 -10 -13q-8 0 -8 16q0 21 8.5 44t23 46.5t35.5 45.5t44 40q44 33 96 47.5t128 14.5q17 0 32.5 -0.5t50.5 -2.5q53 -3 84 -3q21 0 42.5 1t48.5 3q16 2 26 3t20 4l5 1l4 1q1 0 1.5 0.5
t2.5 0.5q4 0 4 -4z" />
    <glyph glyph-name="afii10037" unicode="&#x423;" horiz-adv-x="648" 
d="M505 700q0 -2 -1 -8t-6 -20l-1.5 -4.5t-0.5 -3.5l-121 -509q-6 -27 -11.5 -48t-11.5 -38t-12.5 -32t-14.5 -31q-16 -30 -42 -59q-10 -12 -18.5 -20.5t-17 -16t-19 -14.5t-25.5 -16l6 -1l28 -2l22 -2h11q35 0 69.5 18t59.5 47q11 14 20.5 29.5t17.5 32.5q6 14 9.5 24.5
t6 21.5t4.5 25t4 36q2 11 3 14t5 3q5 0 8 -12.5t3 -31.5q0 -42 -21.5 -85t-60.5 -82q-40 -39 -84.5 -60t-90.5 -21q-17 0 -41 3l-50 6l-55 7q-17 2 -23.5 2.5t-16.5 0.5q-17 0 -22.5 -0.5t-16.5 -4.5q-8 -3 -10 -3.5t-4 -1.5q-3 -1 -9 -1q-4 0 -4 4q0 3 1.5 4.5t5.5 4.5
l4.5 3l4.5 3l4 2q1 1 1.5 1t1.5 1q4 3 5.5 5t9.5 8l14 11l7 6q3 3 8 3q11 0 28.5 -1.5t39.5 -4.5l31 -4l11 -2q7 -2 12.5 -2h7.5q12 0 23 6q20 12 42.5 38.5t34.5 52.5q9 20 20 51.5t23 75.5q8 27 13 45t8 32t5 27t4 31q-15 -25 -26 -42.5t-21.5 -32t-21.5 -28.5t-26 -30
q-91 -101 -186 -101q-9 0 -18 1.5t-20 5t-25 8.5t-33 12l-22 8q-7 2 -13.5 5t-10.5 5q-9 2 -19.5 4t-17.5 2q-4 0 -10 -2h-3q-1 0 -2 1q-3 4 -3 7q0 1 2 3l5 5l20 15q11 8 20 13t13 5q3 0 11 -2q13 -4 24 -4q22 0 52 14.5t58 38.5q33 29 60 69t46.5 86t30 96.5t10.5 100.5
q0 39 -10 71.5t-28.5 55.5t-44.5 35.5t-57 12.5q-35 0 -63 -16.5t-53 -51.5q-61 -85 -61 -204q0 -24 2.5 -43.5t8.5 -41.5q4 -14 6.5 -22t10.5 -25q2 -4 2 -5t-2 -1q0 -1 -2 -1q-3 0 -6 3q-10 12 -19 31.5t-15.5 42.5t-10 47t-3.5 47q0 113 83 200q75 80 162 80
q72 0 114 -54.5t42 -146.5q0 -71 -20 -137.5t-56 -123t-87 -99.5t-112 -67q-1 -1 -2 -1l-4 -2q-4 -2 -4 -4q0 -5 7 -8q19 -10 46 -16.5t52 -6.5q20 0 45 5q17 4 31.5 10t28.5 15t28.5 22.5t31.5 32.5q67 76 95 157q5 12 15.5 52.5t28.5 109.5q8 33 14 57t9 41l13 67
q2 13 3.5 21t1.5 13q-1 2 -1 6q-2 11 -2 14v6q0 4 7 8h1l37 16q7 3 14 3q13 0 13 -11z" />
    <glyph glyph-name="afii10038" unicode="&#x424;" horiz-adv-x="922" 
d="M749 447q0 -48 -20 -95.5t-57 -89.5q-18 -20 -33 -35t-32 -29.5t-39.5 -31.5t-56.5 -41q49 -15 81 -15q38 0 71.5 20.5t53.5 58.5l15 28q1 3 5 3t4 -4v-1q0 -6 -9.5 -24.5t-21.5 -35.5q-57 -84 -123 -84q-14 0 -33.5 3.5t-47.5 8.5l-16 3q-18 4 -34 7t-28 5q-5 1 -9 1.5
t-8 0.5h-27q-9 0 -9 4q0 3 3 6.5t12 10.5l18 14q7 6 16 6q2 0 6.5 -0.5t9.5 -1.5q10 -2 16 -2.5t12 -0.5q22 0 41 9t46 32q33 28 59.5 60t45.5 66t29.5 67.5t10.5 63.5q0 23 -7.5 47t-19.5 39q-23 27 -63 27q-72 0 -128 -86q-18 -27 -33 -59t-30 -74t-31 -97t-35 -128
l-24 -94q-3 -11 -4.5 -19t-3.5 -13q-8 -35 -14.5 -60.5t-12.5 -43.5q-12 -34 -41 -34q-16 0 -27 11.5t-11 28.5v5q0 3 1 5l1 4v1l133 670q6 31 6 55q0 17 -5 29q-21 -77 -41.5 -147t-39.5 -127.5t-36.5 -99.5t-32.5 -64q-17 -25 -39 -46t-45.5 -36.5t-47.5 -24.5t-45 -9
q-46 0 -74 40t-28 104q0 48 20 95.5t57 89.5q18 20 31 34.5t28.5 28t36.5 29.5t55 40q23 13 48.5 15t42.5 -5t20.5 -21.5t-15.5 -32.5q3 15 -2.5 23t-13.5 11t-16 3.5t-11 0.5q-22 0 -41 -9t-46 -32q-33 -28 -59.5 -60.5t-45.5 -66t-29.5 -67t-10.5 -63.5q0 -23 7.5 -47
t19.5 -39q22 -27 63 -27q72 0 128 86q17 26 37 74t40 108t38.5 126t33.5 128q-6 2 -11 2q-9 0 -25 -8q-17 -6 -22 -11q-5 -3 -6 -3l-2 -1l-3 -1l-2 2v2q0 5 18 16l60 34l4 2q12 6 20 9t16 3q29 0 29 -33q0 -10 -2.5 -24t-4.5 -28l-1 -6l-152 -695q-6 -26 -6 -36q0 -8 5 -14
t12 -6q8 0 12 8t11 33l22 82l33 127q21 79 38 137.5t31.5 100.5t28.5 71.5t29 51.5q17 25 39 46t45.5 36.5t47.5 24.5t45 9q46 0 74 -40t28 -104z" />
    <glyph glyph-name="afii10039" unicode="&#x425;" horiz-adv-x="704" 
d="M580 625q0 -23 -11.5 -39.5t-26.5 -16.5q-4 0 -4 13v3q0 34 -15.5 54t-41.5 20q-47 0 -100 -59q-18 -20 -33 -43t-25 -47q-7 -18 -12 -32.5t-9 -31t-8 -38t-9 -52.5h184q5 0 5 -4q0 -2 -1 -2l-25 -26q-5 -5 -12 -5h-1h-1h-156q-6 -20 -9 -50.5t-3 -62.5q0 -45 8 -75
t26 -53q32 -43 82 -43q22 0 45 10t43 28q17 15 34.5 37t27.5 40l1 1q3 7 6 7t3 -3q0 -8 -9.5 -26t-24.5 -37q-37 -48 -79.5 -73.5t-81.5 -25.5q-23 0 -44.5 9.5t-36.5 26.5q-24 28 -36 70q-3 10 -5.5 19t-4 18.5t-3 20.5t-2.5 27q-12 -21 -21.5 -36t-19 -28t-20.5 -25
t-26 -28q-71 -72 -139 -72q-54 0 -87 42.5t-33 111.5q0 15 4.5 24.5t16.5 17.5q12 9 17 9q3 0 3 -10v-3l-1 -22v-17q0 -23 8 -43t22 -35t33 -24t41 -9q65 0 120 58q18 18 31.5 38t23.5 40q8 16 13.5 30t10 29.5t8.5 36t10 50.5h-143q-4 0 -4 4q0 3 2 3l25 25q6 6 9.5 7
t12.5 1h106q3 10 4.5 18t3 15.5t3.5 16.5t4 22q5 32 7 51t2 41q0 134 -84 134q-64 0 -119 -66q-17 -20 -29.5 -41t-20.5 -43q-2 -7 -5.5 -18.5t-8.5 -27.5q-2 -8 -3.5 -12.5t-2.5 -6.5q-1 -8 -6 -8t-5 4q0 11 5 33.5t12 40.5q15 40 39 74t53 58.5t60.5 38.5t63.5 14
q49 0 75 -37.5t26 -107.5v-11.5t-1 -15.5q10 18 18.5 30.5t17.5 24t19.5 22.5t25.5 25q71 68 127 68q28 0 44.5 -19t16.5 -51z" />
    <glyph glyph-name="afii10040" unicode="&#x426;" horiz-adv-x="704" 
d="M502 50q-21 -25 -44.5 -39t-46.5 -14t-36.5 16t-13.5 45q0 17 4.5 41.5t12.5 50.5l9 28l74 247l5 17q10 30 10 59q0 25 -9.5 38.5t-33.5 21.5q-14 -94 -40 -181.5t-63 -165.5q-51 -108 -105.5 -163.5t-109.5 -55.5q-38 0 -62.5 30.5t-24.5 78.5q0 27 11 69q3 12 9.5 34.5
t17.5 56.5l29 90l28 87q13 39 21 66.5t11 43.5q3 14 5 30t2 28q0 25 -13 39t-36 14q-16 0 -34.5 -8.5t-37.5 -23.5t-37.5 -36t-34.5 -46q-33 -54 -51.5 -116t-18.5 -120q0 -12 1 -23t4 -27q3 -11 3 -13q0 -4 -5 -4q-6 0 -8 11l-7 30q-2 9 -3.5 25.5t-1.5 34.5q0 36 4.5 65
t13.5 55.5t24 51.5t36 52q45 57 98 90t96 33q29 0 46.5 -20t17.5 -53q0 -6 -1 -15.5t-3 -18.5q-3 -16 -7 -32t-10 -36t-14.5 -46t-20.5 -63q-13 -38 -21.5 -63t-13.5 -42t-9 -30l-8 -26q-22 -78 -22 -131q0 -79 59 -79q64 0 120 86q33 52 60 114t47 129q17 57 27 109.5
t10 81.5q0 11 -2 13q0 1 -4 5q-6 8 -9 12.5t-6 11.5q-8 21 -8 42q0 56 34 56q28 0 28 -40v-6l-1 -56l9 -2q42 -9 58 -27t16 -50q0 -17 -3 -34t-11 -43l-68 -234q-8 -27 -8 -28q-6 -19 -10 -40q-5 -22 -7 -37t-2 -29q0 -38 24 -38q6 0 11.5 2t16 10.5t29.5 26t51 47.5
q9 9 13 12.5t5 4.5t1 0t1 -1h4q1 -15 3 -36.5t3.5 -44.5t1 -45.5t-3.5 -39.5q-5 -28 -14.5 -54t-24 -46t-32.5 -31.5t-39 -11.5q-29 0 -44.5 9t-21 21.5t-3.5 27.5t6.5 28t9.5 23t7 12h3q0 1 0.5 1.5t0.5 1.5v1q5 1 5 -2q0 -2 -2 -3l-2 -2q-12 -26 -7.5 -43.5t17 -28
t29 -13.5t28.5 2q9 2 20 10t20 24t14.5 40t4.5 57q0 26 -4.5 46.5t-8.5 44.5z" />
    <glyph glyph-name="afii10041" unicode="&#x427;" horiz-adv-x="704" 
d="M162 409q-4 -20 -5 -44t-1 -39q0 -79 59 -79q26 0 53.5 17.5t52.5 45.5t44.5 64t29.5 73q3 13 5.5 29t5 31t4 28.5t1.5 22.5q0 14 -9 24t-12 18q-8 21 -8 42q0 56 34 56q28 0 28 -40l-1 -62l9 -2q42 -9 58 -27t16 -50q0 -17 -3 -34t-11 -43l-68 -234q-9 -30 -14 -50.5
t-8 -35t-4 -25.5t-1 -23q0 -38 24 -38q18 0 36 15.5t32.5 39t23.5 52t9 54.5v5q0 10 7 10q9 0 9 -27q0 -38 -15.5 -71.5t-38 -59t-48 -40.5t-45.5 -15q-23 0 -36.5 16t-13.5 45q0 17 4.5 41.5t12.5 50.5l83 275l5 17q5 16 7.5 30t2.5 29q0 25 -9.5 38.5t-33.5 21.5l-8 -46
t-9 -46q-15 -56 -42 -104.5t-60 -84t-67.5 -56t-63.5 -20.5q-38 0 -62.5 30.5t-24.5 78.5q0 12 0.5 21.5t3 20.5t6.5 27t12 41q13 40 21.5 68t13.5 49t7 37.5t2 31.5q0 25 -13 39t-36 14q-37 0 -75 -33t-69 -84.5t-50.5 -113.5t-19.5 -119q0 -12 1 -23t4 -27q3 -11 3 -13
q0 -4 -5 -4q-6 0 -8 11l-7 30q-2 9 -3.5 25.5t-1.5 34.5q0 36 4.5 65t13.5 55.5t24 51.5t36 52q22 28 47 51t50.5 39t50.5 24.5t46 8.5q29 0 46.5 -20t17.5 -53q0 -20 -3.5 -38.5t-10 -42t-17 -54.5t-25.5 -76z" />
    <glyph glyph-name="afii10042" unicode="&#x428;" horiz-adv-x="1117" 
d="M425 133q-7 -28 -5 -46.5t9.5 -30t20 -16.5t27.5 -5q35 0 68.5 29.5t63 76.5t54 105.5t42 116t27 109t9.5 83.5q0 14 -9 24t-12 18q-8 21 -8 42q0 56 34 56q28 0 28 -40l-1 -62l9 -2q42 -9 58 -27t16 -50q0 -17 -3 -34t-11 -43l-68 -234q-9 -30 -14 -50.5t-8 -35
t-4 -25.5t-1 -23q0 -38 24 -38q18 0 36 15.5t32.5 39t23.5 52t9 54.5v5q0 10 7 10q9 0 9 -27q0 -38 -15.5 -71.5t-38 -59t-48 -40.5t-45.5 -15q-23 0 -36.5 16t-13.5 45q0 17 4.5 41.5t12.5 50.5l83 275l5 17q5 16 7.5 30t2.5 29q0 25 -9.5 38.5t-33.5 21.5
q-18 -115 -52.5 -217.5t-78 -180t-92.5 -123t-95 -45.5q-19 0 -36.5 7t-28 25t-12.5 48.5t10 77.5l83 275l5 17q5 16 7.5 30t2.5 29q0 25 -9.5 38.5t-33.5 21.5q-18 -115 -52.5 -217.5t-78 -180t-92.5 -123t-95 -45.5q-38 0 -62.5 30.5t-24.5 78.5q0 15 1 26t4.5 26.5t11 40
t21.5 67.5l57 177q13 40 20.5 65.5t11.5 43t5.5 31t1.5 28.5q0 25 -13 39t-36 14q-37 0 -75 -33t-69 -84.5t-50.5 -113.5t-19.5 -119q0 -12 1 -23t4 -27q3 -11 3 -13q0 -4 -5 -4q-6 0 -8 11l-7 30q-2 9 -3.5 25.5t-1.5 34.5q0 36 4.5 65t13.5 55.5t24 51.5t36 52
q22 28 47 51t50.5 39t50.5 24.5t46 8.5q29 0 46.5 -20t17.5 -53q0 -20 -3.5 -38.5t-10 -42t-17 -54.5t-25.5 -76q-13 -38 -21 -63t-14 -42.5t-9.5 -30t-7.5 -25.5q-22 -78 -22 -131q0 -79 59 -79q35 0 68.5 29.5t63 76.5t54 105.5t42 116t27 109t9.5 83.5q0 14 -9 24t-12 18
q-8 21 -8 42q0 56 34 56q28 0 28 -40l-1 -62l9 -2q42 -9 58 -27t16 -50q0 -17 -3 -34t-11 -43l-68 -234q-13 -47 -19 -73z" />
    <glyph glyph-name="afii10043" unicode="&#x429;" horiz-adv-x="1127" 
d="M820 34q-20 -19 -41 -29.5t-38 -10.5q-23 0 -36.5 16t-13.5 45q0 17 4.5 41.5t12.5 50.5l83 275l5 17q5 16 7.5 30t2.5 29q0 25 -9.5 38.5t-33.5 21.5q-18 -115 -52.5 -217.5t-78 -180t-92.5 -123t-95 -45.5q-19 0 -36.5 7t-28 25t-12.5 48.5t10 77.5l83 275l5 17
q5 16 7.5 30t2.5 29q0 25 -9.5 38.5t-33.5 21.5q-18 -115 -52.5 -217.5t-78 -180t-92.5 -123t-95 -45.5q-38 0 -62.5 30.5t-24.5 78.5q0 15 1 26t4.5 26.5t11 40t21.5 67.5l57 177q13 40 20.5 65.5t11.5 43t5.5 31t1.5 28.5q0 25 -13 39t-36 14q-37 0 -75 -33t-69 -84.5
t-50.5 -113.5t-19.5 -119q0 -12 1 -23t4 -27q3 -11 3 -13q0 -4 -5 -4q-6 0 -8 11l-7 30q-2 9 -3.5 25.5t-1.5 34.5q0 36 4.5 65t13.5 55.5t24 51.5t36 52q22 28 47 51t50.5 39t50.5 24.5t46 8.5q29 0 46.5 -20t17.5 -53q0 -20 -3.5 -38.5t-10 -42t-17 -54.5t-25.5 -76
q-13 -38 -21 -63t-14 -42.5t-9.5 -30t-7.5 -25.5q-22 -78 -22 -131q0 -79 59 -79q35 0 68.5 29.5t63 76.5t54 105.5t42 116t27 109t9.5 83.5q0 14 -9 24t-12 18q-8 21 -8 42q0 56 34 56q28 0 28 -40l-1 -62l9 -2q42 -9 58 -27t16 -50q0 -17 -3 -34t-11 -43l-68 -234
q-13 -47 -19 -73q-7 -28 -5 -46.5t9.5 -30t20 -16.5t27.5 -5q35 0 68.5 29.5t63 76.5t54 105.5t42 116t27 109t9.5 83.5q0 14 -9 24t-12 18q-8 21 -8 42q0 56 34 56q28 0 28 -40l-1 -62l9 -2q42 -9 58 -27t16 -50q0 -17 -3 -34t-11 -43l-68 -234q-9 -30 -14 -50.5t-8 -35
t-4 -25.5t-1 -23q0 -38 24 -38q18 0 39 18l65 63q9 9 13 12.5t5 4.5t1 0t1 -1h4q1 -15 3 -36.5t3.5 -44.5t1 -45.5t-3.5 -39.5q-5 -28 -14.5 -54t-24 -46t-32.5 -31.5t-39 -11.5q-29 0 -44.5 9t-21 21.5t-3.5 27.5t6.5 28t9.5 23t7 12h3q0 1 0.5 1.5t0.5 1.5v1q5 1 5 -2
q0 -2 -2 -3l-2 -2q-12 -26 -7.5 -43.5t17 -28t29 -13.5t28.5 2q9 2 20 10t20 24t14.5 40t4.5 57q0 26 -4.5 46.5t-8.5 44.5z" />
    <glyph glyph-name="afii10047" unicode="&#x42d;" horiz-adv-x="536" 
d="M-78 44q0 42 21.5 86.5t56.5 73.5q21 18 50 36q14 8 19 8q3 0 3 -2t-3 -4l-22 -16q-19 -14 -37 -33t-29 -38q-23 -40 -23 -80q0 -69 68 -69q58 0 111 49q22 21 46 51q18 23 30.5 42.5t23.5 41t20.5 47.5t21.5 62h-266q-4 0 -4 4q0 5 11 13q10 8 18.5 10.5t28.5 2.5h4h218
q8 20 9 30q9 29 13.5 66t4.5 67q0 79 -29.5 123t-83.5 44q-30 0 -59.5 -14.5t-54.5 -41.5q-32 -35 -54 -80.5t-24 -82.5l-3 -44q0 -6 -6 -6q-5 0 -5 9v3v8q0 2 -0.5 3.5t-0.5 3.5q0 54 19 105t50 90.5t71 63.5t83 24q64 0 102 -52t38 -139q0 -22 -2.5 -52.5t-7.5 -59.5
q-4 -22 -6.5 -35t-9.5 -35h24q24 0 39 2t26 7h3q2 0 2 -1q1 -1 1 -3q0 -3 -2 -5l-25 -31q-3 -4 -6 -4q-1 0 -2 1q-5 1 -11 1.5t-13 0.5h-3h-43q-3 -9 -5.5 -15.5t-4.5 -11.5q-47 -117 -165 -218q-35 -31 -71 -53q-23 -15 -42 -20.5t-39 -5.5q-35 0 -54.5 19t-19.5 54z" />
    </font>
</defs>
</svg>
