<svg width="158" height="52" viewBox="0 0 158 52" fill="none" xmlns="http://www.w3.org/2000/svg">
<path d="M0.042705 19.7689C0.042705 17.7072 0.042705 15.6057 0.042705 13.544C0.042705 13.0385 0.042705 13.0385 0.467243 13.2925C2.80095 14.5126 5.13465 15.6903 7.51106 16.9104C7.63917 16.9527 7.72207 17.0374 7.76478 17.1619C9.1238 19.3481 10.4803 21.5368 11.8393 23.7653C11.9675 23.9346 12.0102 23.9744 12.1785 23.8076C13.0275 23.093 13.8339 22.3784 14.683 21.6613C14.8111 21.5343 14.9367 21.5343 15.1075 21.5766C15.7431 21.7858 16.3384 22.0397 16.9313 22.3335C18.5867 23.1328 20.1995 24.0168 21.7268 25.0675C22.5332 25.6153 22.5332 25.6153 22.5332 26.6238C22.5332 34.9104 22.5332 43.1969 22.5332 51.4811C22.5332 51.5657 22.5332 51.6504 22.5332 51.7749C22.4905 51.7749 22.4478 51.7749 22.4051 51.7749C21.8524 51.6479 21.345 51.3964 20.835 51.1026C19.6041 50.4726 18.4159 49.7978 17.2277 49.1256C16.5067 48.7048 15.8285 48.2839 15.1477 47.7386C14.894 47.5295 14.7659 47.2755 14.7232 46.897C14.6805 44.1631 14.6805 41.4714 14.6805 38.7374C14.6805 38.232 14.6378 37.729 14.6378 37.2659C14.6378 37.0567 14.5951 37.0144 14.4268 37.1389C13.4496 37.7265 12.4749 38.3166 11.5404 38.8644C11.1159 39.1159 11.1159 39.1159 10.8621 38.6951C9.88495 37.0119 8.86757 35.3312 7.89289 33.6903C7.85019 33.6056 7.80748 33.521 7.76478 33.4388C7.76478 33.5234 7.76478 33.6081 7.76478 33.6903C7.76478 36.8874 7.76478 40.0422 7.76478 43.2393C7.76478 43.7024 7.67937 43.7447 7.25483 43.5754C6.83029 43.4061 6.44846 43.1546 6.06662 42.9455C5.17484 42.3977 4.24287 41.8947 3.26568 41.4316C2.20559 40.9261 1.18569 40.3385 0.296423 39.6239C0.168308 39.5392 0.08541 39.4147 0 39.2454C0 37.8585 0 36.4691 0 35.0822C0.042705 34.9975 0.042705 34.9128 0.042705 34.8307C0.042705 33.8222 0.042705 32.769 0.042705 31.7605C0.042705 31.0883 0.042705 30.4135 0.042705 29.7412C0.042705 29.1112 0.042705 28.4364 0.042705 27.8065C0.042705 27.0919 0.042705 26.4196 0.042705 25.7025C0.042705 25.0725 0.042705 24.4401 0.042705 23.8101C0.042705 23.2225 0.042705 22.59 0.042705 22.0024C0.042705 21.2828 0.042705 20.5258 0.042705 19.7689Z" fill=""/>
<path d="M56.5921 24.7305C56.5921 22.9228 56.5921 21.1126 56.5921 19.3049C56.5921 17.6217 57.1849 16.1501 58.2048 14.8454C59.5212 13.1621 61.2595 12.1537 63.3395 11.8599C65.4622 11.5661 67.4568 12.0292 69.1951 13.3315C69.3232 13.4584 69.4061 13.4584 69.5769 13.3315C70.9762 12.2807 72.5462 11.7329 74.2871 11.7752C77.0453 11.8176 79.2082 12.953 80.8636 15.0968C80.949 15.2238 80.9917 15.306 80.8636 15.4753C79.6327 16.8622 78.8263 18.4608 78.4445 20.271C78.1908 21.4487 78.1908 22.5842 78.3164 23.7619C78.5274 25.6966 79.2509 27.3798 80.4391 28.9361C80.9063 29.566 81.4565 30.1138 82.0518 30.577C82.18 30.6616 82.18 30.7463 82.18 30.9131C81.9689 31.9215 80.9063 32.8055 79.8462 33.0171C78.3189 33.2686 76.877 32.3448 76.4952 30.8309C76.4525 30.5795 76.4097 30.3678 76.4097 30.1163C76.4097 26.6254 76.4097 23.1345 76.4097 19.6435C76.4097 18.7173 75.9425 18.0026 75.1361 17.7088C74.2871 17.415 73.3124 17.6242 72.717 18.2965C72.3779 18.6749 72.2925 19.0957 72.2925 19.5589C72.2925 21.1998 72.2925 22.8406 72.2925 24.5214C72.2925 26.4137 72.2925 28.2638 72.2925 30.1587C72.2925 31.8419 70.9334 33.1441 69.2378 33.062C68.0069 33.0196 66.8187 32.0934 66.565 30.9579C66.5223 30.7064 66.4796 30.4525 66.4796 30.201C66.4796 26.6677 66.4796 23.1345 66.4796 19.6012C66.4796 18.5928 65.8867 17.8358 64.9095 17.5818C63.764 17.288 62.5331 18.1296 62.405 19.3074C62.405 19.4767 62.3623 19.6859 62.3623 19.8552C62.3623 23.3038 62.3623 26.7524 62.3623 30.201C62.3623 31.9265 60.7923 33.2711 59.0941 33.0196C57.8632 32.8503 56.8885 31.9689 56.5896 30.8334C56.5469 30.6641 56.5469 30.5396 56.5469 30.3703C56.5921 28.4729 56.5921 26.6229 56.5921 24.7305Z" fill=""/>
<path d="M89.8971 11.776C84.0414 11.8606 79.1177 16.36 79.1604 22.4181C79.1604 28.3915 83.8279 33.0179 89.8544 33.0179C95.7955 33.0179 100.591 28.2645 100.591 22.4181C100.631 16.6115 95.7528 11.6913 89.8971 11.776ZM89.8544 27.4229C87.2242 27.4229 84.9332 25.1097 84.9332 22.4604C84.9332 19.7688 87.1388 17.5801 89.8544 17.5801C92.5699 17.5801 94.861 19.8509 94.8183 22.5849C94.8183 24.9404 92.781 27.3806 89.8544 27.4229Z" fill=""/>
<path d="M119.177 20.2741C118.752 17.9609 117.607 16.0262 115.783 14.47C112.558 11.736 107.719 10.9791 103.858 12.8714C103.687 12.9561 103.647 12.9138 103.647 12.7445C103.647 11.9028 103.647 11.0612 103.647 10.2196C103.647 9.37802 103.69 8.53641 103.647 7.6948C103.519 5.54845 101.017 4.28853 99.2335 5.46628C98.4271 5.97175 97.8744 6.68637 97.8744 7.6948C97.8317 9.84116 97.8744 11.9427 97.8744 14.089C97.8744 14.216 97.9172 14.2584 98.0026 14.3405C98.7235 14.9282 99.3189 15.6453 99.869 16.4022C101.439 18.6731 102.034 21.1979 101.65 23.9319C101.439 25.4881 100.844 26.9174 99.9519 28.2221C99.8238 28.3914 99.8665 28.4736 99.9519 28.6429C100.587 29.4422 101.268 30.1991 102.075 30.7892C104.451 32.597 107.124 33.3962 110.096 33.0178C112.301 32.724 114.213 31.7977 115.823 30.2838C118.752 27.5498 119.858 24.1859 119.177 20.2741ZM108.696 27.3406C105.981 27.383 103.69 25.1121 103.69 22.4628C103.69 19.7288 106.237 17.5003 108.654 17.5426C111.327 17.585 113.618 19.8135 113.618 22.4628C113.618 25.279 111.158 27.3406 108.696 27.3406Z" fill=""/>
<path d="M123.599 16.9918C123.599 16.2772 123.641 15.5625 123.556 14.8878C123.471 14.1308 123.132 13.4585 122.579 12.9531C121.943 12.3654 121.137 12.1538 120.288 12.3231C119.014 12.5323 117.954 13.5432 117.826 14.8878C117.826 15.0571 117.741 15.2239 117.911 15.3932C118.464 15.941 118.929 16.6133 119.311 17.2856C120.074 18.5903 120.499 20.0196 120.584 21.4911C120.67 22.5842 120.627 23.7197 120.373 24.8128C120.162 25.5697 119.906 26.3267 119.567 27.0413C119.142 27.8406 118.675 28.5975 118.082 29.3121C117.997 29.3968 117.829 29.4814 117.829 29.6483C117.829 30.1537 117.786 30.6567 117.871 31.1198C118.042 31.9615 118.424 32.6337 119.145 33.1392C119.655 33.4754 120.248 33.6023 120.886 33.56C121.564 33.5177 122.202 33.2662 122.709 32.8031C123.388 32.2154 123.601 31.456 123.601 30.6169C123.601 28.0522 123.601 25.5274 123.601 22.9627C123.599 20.9458 123.641 18.9688 123.599 16.9918Z" fill=""/>
<path d="M124.002 16.9904C124.002 16.8186 124.005 16.6493 124.008 16.46C124.018 15.9894 124.028 15.4018 123.96 14.864C123.867 14.0498 123.503 13.3326 122.912 12.7898C122.237 12.1649 121.355 11.9183 120.425 12.1026C118.999 12.3367 117.911 13.4721 117.778 14.8665V14.8889C117.778 14.9163 117.773 14.9461 117.77 14.981L117.768 14.9935C117.753 15.1279 117.727 15.352 117.931 15.5537C118.406 16.0243 118.865 16.6468 119.295 17.4012C120.036 18.6662 120.453 20.0481 120.538 21.5122C120.629 22.6924 120.558 23.7855 120.332 24.7616C120.091 25.6206 119.835 26.3352 119.544 26.9453C119.069 27.8392 118.609 28.5438 118.097 29.1614L118.092 29.1663C118.079 29.1763 118.067 29.1887 118.049 29.2012C117.956 29.2759 117.783 29.4128 117.783 29.6494C117.783 29.7789 117.78 29.9108 117.778 30.0254V30.0577C117.77 30.4238 117.763 30.8047 117.83 31.1658C118.024 32.1194 118.456 32.8042 119.187 33.3196L119.2 33.3296C119.669 33.6408 120.217 33.7977 120.83 33.7977C120.91 33.7977 120.996 33.7952 121.081 33.7902C121.832 33.7404 122.51 33.459 123.04 32.976C123.701 32.4033 124.008 31.6563 124.008 30.623V22.9638C124.005 22.2417 124.01 21.5172 124.015 20.8748C124.023 19.5601 124.03 18.2727 124.002 16.9904ZM120.757 24.8836L120.759 24.8761L120.762 24.8637C121.001 23.8328 121.073 22.6924 120.978 21.4798C120.89 19.946 120.45 18.4993 119.677 17.1772C119.227 16.3878 118.745 15.7355 118.24 15.235C118.195 15.1902 118.192 15.1702 118.207 15.0457C118.217 14.991 118.22 14.9461 118.22 14.8988C118.338 13.7161 119.267 12.75 120.483 12.5458H120.491L120.501 12.5433C121.292 12.3865 122.015 12.5857 122.593 13.1185C123.106 13.5891 123.42 14.2091 123.498 14.9163C123.56 15.4018 123.553 15.9073 123.545 16.4426V16.4501C123.543 16.6343 123.54 16.8136 123.54 16.9904V16.9954C123.565 18.2105 123.558 19.453 123.553 20.6556L123.55 20.8723C123.55 21.0939 123.548 21.318 123.548 21.5446C123.545 22.0077 123.543 22.4883 123.543 22.9613V30.6155C123.543 31.5094 123.284 32.1493 122.729 32.6324L122.724 32.6374C122.272 33.0532 121.689 33.2947 121.041 33.3345C120.43 33.3744 119.893 33.2474 119.443 32.9536C118.813 32.5079 118.436 31.9128 118.26 31.0786C118.202 30.7574 118.21 30.4088 118.217 30.0403V30.0328C118.22 29.9208 118.222 29.7839 118.222 29.6469C118.222 29.6245 118.285 29.5747 118.32 29.5448C118.35 29.5224 118.381 29.4975 118.408 29.4676L118.423 29.4477C118.958 28.8053 119.438 28.0708 119.933 27.1395L119.936 27.132C120.245 26.4971 120.513 25.7576 120.757 24.8836Z" fill=""/>
<path d="M120.629 11.2732C122.41 11.4002 123.598 9.88633 123.598 8.41227C123.598 6.85604 122.324 5.50897 120.754 5.5513C119.141 5.50897 117.868 6.81371 117.825 8.28528C117.785 10.1378 119.099 11.1463 120.629 11.2732Z" fill=""/>
<path d="M122.864 6.16028C122.286 5.60252 121.535 5.30622 120.754 5.32614C119.927 5.30622 119.143 5.61248 118.543 6.18767C117.965 6.74293 117.621 7.50486 117.598 8.27924C117.581 9.208 117.885 10.0073 118.48 10.585C119.013 11.1029 119.769 11.4241 120.61 11.4938H120.618C120.696 11.4988 120.769 11.5013 120.841 11.5013C121.582 11.5013 122.258 11.2373 122.801 10.7344C123.441 10.1442 123.823 9.27523 123.823 8.40872C123.823 7.5696 123.474 6.7504 122.864 6.16028ZM123.374 8.41121C123.374 9.15571 123.044 9.90021 122.497 10.4082C122.175 10.7045 121.972 11.1427 120.648 11.0481C119.425 10.946 118.013 10.1642 118.056 8.2892C118.096 6.88735 119.332 5.73449 120.754 5.77433H120.761H120.766C120.786 5.77433 120.806 5.77433 120.829 5.77433C121.467 5.77433 122.077 6.02582 122.552 6.48397C123.072 6.98695 123.374 7.68912 123.374 8.41121Z" fill=""/>
<path d="M143.762 20.7768C143.591 19.8929 143.337 19.0114 142.956 18.2121C142.574 17.4128 142.107 16.6136 141.514 15.9413C140.835 15.142 140.114 14.4274 139.223 13.8373C138.205 13.165 137.143 12.6172 135.954 12.3234C135.191 12.1142 134.427 11.9872 133.621 11.9449C132.857 11.9026 132.093 11.9872 131.373 12.154C130.523 12.3234 129.674 12.5748 128.868 12.911C127.469 13.5409 126.238 14.3826 125.218 15.4757C125.133 15.6026 125.09 15.6848 125.09 15.8118C125.09 18.0826 125.09 20.3535 125.09 22.6268C125.09 24.8554 125.09 27.0864 125.09 29.3149C125.09 29.6087 125.175 29.778 125.386 29.9872C125.768 30.3656 126.15 30.7018 126.574 31.0379C127.338 31.6256 128.187 32.0887 129.079 32.4672C129.8 32.761 130.564 32.9726 131.37 33.0971C132.006 33.2241 132.686 33.2665 133.322 33.2665C133.832 33.2665 134.339 33.2241 134.849 33.1395C135.952 32.9701 136.972 32.6763 137.947 32.2132C138.753 31.8347 139.517 31.3293 140.238 30.7416C140.873 30.1938 141.468 29.5639 141.936 28.8916C142.403 28.2193 142.827 27.5047 143.167 26.7452C143.634 25.6945 143.888 24.5989 143.973 23.4635C143.933 22.5422 143.89 21.6607 143.762 20.7768ZM133.154 27.547C130.438 27.547 128.19 25.2338 128.19 22.5845C128.19 19.8505 130.395 17.7465 133.028 17.7465C135.914 17.7465 138.077 19.975 138.077 22.7937C138.034 25.2338 135.912 27.5072 133.154 27.547Z" fill=""/>
<path d="M133.025 17.5239C131.681 17.5239 130.413 18.0418 129.461 18.983C128.493 19.9367 127.961 21.2165 127.961 22.586C127.961 23.9132 128.519 25.2378 129.488 26.2189C130.483 27.2199 131.784 27.7726 133.151 27.7726C134.52 27.7527 135.811 27.2049 136.791 26.2288C137.728 25.2951 138.275 24.0451 138.301 22.7952C138.301 21.3659 137.765 20.0388 136.796 19.0577C135.814 18.0692 134.477 17.5239 133.025 17.5239ZM133.025 17.9721C135.731 17.9721 137.848 20.0886 137.848 22.7902C137.806 25.2105 135.655 27.2871 133.151 27.3244C130.584 27.3244 128.413 25.1557 128.413 22.586C128.413 20.0413 130.483 17.9721 133.025 17.9721Z" fill=""/>
<path d="M144.194 23.4528C144.151 22.4519 144.108 21.6177 143.983 20.7512V20.7437L143.98 20.7338C143.787 19.7353 143.51 18.8564 143.156 18.1143C142.699 17.1607 142.217 16.4012 141.682 15.7937C140.878 14.85 140.157 14.1877 139.343 13.6498C138.155 12.8655 137.095 12.3725 136.007 12.1061C135.218 11.8894 134.439 11.7624 133.628 11.7201C132.884 11.6803 132.108 11.7525 131.319 11.9342C130.427 12.1135 129.571 12.3725 128.775 12.7036L128.757 12.7111L128.754 12.7136C127.297 13.371 126.051 14.2499 125.049 15.3231L125.037 15.3355L125.027 15.353C124.934 15.4949 124.863 15.6194 124.863 15.8136V29.3167C124.863 29.6553 124.966 29.8869 125.228 30.1459C125.604 30.5194 125.989 30.858 126.438 31.2141C127.169 31.7768 128.006 32.2549 128.996 32.6732C129.732 32.9745 130.518 33.1911 131.332 33.3156C131.905 33.4301 132.575 33.4899 133.324 33.4899C133.854 33.4899 134.379 33.4451 134.881 33.3579C136.044 33.1786 137.079 32.8699 138.042 32.4142C138.818 32.0507 139.604 31.5452 140.378 30.9128L140.385 30.9053C141.069 30.3177 141.666 29.6653 142.119 29.0154C142.641 28.2634 143.051 27.5488 143.372 26.8317C143.834 25.7934 144.106 24.6953 144.196 23.4777V23.4752L144.194 23.4528ZM143.744 23.4603C143.654 24.6231 143.395 25.6689 142.955 26.6574C142.649 27.3447 142.254 28.0369 141.747 28.7664C141.315 29.3864 140.742 30.0114 140.089 30.5716C139.34 31.1817 138.587 31.6672 137.848 32.0108C136.929 32.4491 135.934 32.7454 134.811 32.9197C134.311 33.0019 133.809 33.0417 133.321 33.0417C132.61 33.0417 131.97 32.9869 131.415 32.8774L131.405 32.8749H131.397C130.618 32.7529 129.87 32.5462 129.169 32.2598C128.209 31.8515 127.408 31.3933 126.717 30.8605C126.29 30.5243 125.918 30.1957 125.549 29.8271C125.371 29.6479 125.32 29.5333 125.32 29.3117V15.8136C125.32 15.7563 125.333 15.719 125.401 15.6169C126.368 14.5861 127.566 13.7469 128.963 13.122C129.742 12.7983 130.566 12.5493 131.412 12.38H131.42L131.432 12.3775C132.183 12.2032 132.919 12.1334 133.618 12.1733C134.394 12.2131 135.143 12.3351 135.901 12.5443L135.914 12.5468H135.919C136.951 12.8032 137.964 13.2738 139.104 14.0258C139.88 14.5388 140.574 15.1762 141.35 16.09C141.86 16.6677 142.32 17.3947 142.757 18.3086C143.096 19.0182 143.362 19.8623 143.545 20.8135C143.659 21.6601 143.701 22.4793 143.744 23.4603Z" fill=""/>
<path d="M157.513 27.2946C157.428 27.5884 157.385 27.8822 157.302 28.1785C157.048 29.1471 156.581 30.0286 155.903 30.7855C155.31 31.4578 154.587 31.9633 153.823 32.3841C153.102 32.7626 152.338 32.9717 151.532 33.0564C151.235 33.0987 150.896 33.0987 150.597 33.0987C147.796 33.0987 144.953 33.0987 142.152 33.0987C141.559 33.0987 141.049 32.8472 140.582 32.5111C140.328 32.3019 140.115 32.0903 139.946 31.8388C139.861 31.7541 139.861 31.6695 139.989 31.5873C140.71 31.1665 141.348 30.6187 141.941 30.0734C142.576 29.4434 143.129 28.7687 143.554 27.9694C143.596 27.9271 143.639 27.8847 143.639 27.8001C143.767 27.3369 144.106 27.3369 144.488 27.3369C146.483 27.3369 148.52 27.3369 150.515 27.3369C150.896 27.3369 151.278 27.2523 151.492 26.8738C151.703 26.453 151.663 26.0322 151.492 25.6537C151.321 25.3176 150.982 25.1483 150.6 25.1483C149.115 25.1483 147.588 25.1483 146.101 25.1483C145.676 25.1483 145.252 25.0636 144.784 25.1059C145.124 23.9705 145.124 22.7927 145.081 21.6573C144.995 20.4372 144.656 19.2595 144.104 18.1241C143.594 17.1156 143.001 16.147 142.195 15.3054C141.813 14.8846 141.388 14.5485 140.964 14.17C140.878 14.0853 140.878 14.043 140.921 13.9608C141.642 13.1192 142.534 12.5316 143.594 12.1108C144.443 11.7746 145.335 11.6477 146.267 11.69C148.814 11.69 151.359 11.69 153.906 11.69C154.755 11.69 155.39 12.1108 155.9 12.7408C156.24 13.1616 156.493 13.6247 156.536 14.17C156.621 14.7576 156.536 15.3477 156.197 15.8955C155.815 16.5255 155.305 16.9886 154.627 17.2426C154.416 17.3273 154.16 17.3696 153.906 17.3696C151.359 17.3696 148.814 17.3696 146.267 17.3696C145.799 17.3696 145.332 17.4966 144.993 17.8751C144.654 18.2959 144.782 19.1798 145.204 19.4736C145.5 19.6828 145.797 19.7674 146.138 19.7674C147.623 19.7674 149.108 19.7674 150.595 19.7674C151.359 19.7674 152.165 19.8098 152.886 20.0613C153.521 20.2704 154.117 20.609 154.667 20.9875C155.644 21.7445 156.408 22.6707 156.958 23.7638C157.212 24.2693 157.382 24.8146 157.425 25.4047C157.425 25.4471 157.425 25.4471 157.468 25.4894C157.513 26.1592 157.513 26.707 157.513 27.2946Z" fill=""/>
<path d="M157.945 25.4764L157.94 25.3917L157.9 25.3519C157.854 24.7891 157.691 24.2214 157.412 23.6662C156.847 22.5457 156.058 21.5895 155.064 20.8176L155.056 20.8102L155.049 20.8052C154.39 20.352 153.79 20.0408 153.215 19.8515C152.441 19.5801 151.584 19.5453 150.848 19.5453H146.392C146.085 19.5453 145.837 19.4681 145.588 19.2913C145.447 19.1942 145.332 18.9626 145.294 18.7037C145.256 18.4273 145.304 18.1708 145.422 18.0189C145.678 17.7376 146.048 17.5931 146.523 17.5931H154.162C154.451 17.5931 154.737 17.5433 154.963 17.4512C155.656 17.1923 156.222 16.7092 156.644 16.012C156.988 15.4543 157.113 14.8243 157.015 14.1445C156.973 13.6167 156.754 13.1261 156.33 12.5983C155.712 11.8338 155.001 11.4628 154.159 11.4628H146.525C145.52 11.4205 144.616 11.5624 143.762 11.9011C142.621 12.3542 141.717 12.9792 141.001 13.8109L140.986 13.8258L140.968 13.8532C140.875 14.03 140.9 14.1744 141.051 14.3238L141.059 14.3313C141.172 14.4334 141.282 14.5305 141.39 14.6226C141.672 14.8641 141.988 15.1405 142.275 15.4543L142.28 15.4592C142.958 16.1664 143.553 17.0429 144.149 18.2181C144.699 19.3535 145.02 20.5139 145.103 21.6667C145.143 22.7001 145.156 23.9002 144.817 25.0381L144.721 25.3569L145.053 25.3245C145.322 25.2996 145.591 25.322 145.827 25.3394C145.982 25.3544 146.166 25.3668 146.352 25.3668H150.851C151.165 25.3668 151.416 25.5038 151.539 25.7453C151.7 26.1038 151.702 26.445 151.544 26.7637C151.406 27.0052 151.172 27.1073 150.765 27.1073H144.739C144.362 27.1073 143.847 27.1073 143.674 27.7323L143.664 27.7597V27.7871C143.659 27.7945 143.649 27.802 143.646 27.8045L143.624 27.8269L143.606 27.8593C143.232 28.5664 142.732 29.2163 142.038 29.906C141.466 30.4314 140.84 30.9717 140.132 31.3875L140.119 31.395C139.968 31.4921 139.926 31.6067 139.916 31.6863C139.906 31.7909 139.941 31.8905 140.021 31.9752C140.179 32.2117 140.385 32.4284 140.689 32.6798L140.705 32.6898C141.3 33.1206 141.84 33.3198 142.405 33.3198H150.851C151.157 33.3198 151.501 33.3198 151.818 33.2725C152.685 33.1828 153.453 32.9587 154.164 32.5877H154.167L154.189 32.5753C155.104 32.0698 155.782 31.5469 156.327 30.9294C157.023 30.1525 157.51 29.2462 157.777 28.2328C157.819 28.0734 157.854 27.9215 157.882 27.7945C157.91 27.6601 157.945 27.5057 157.988 27.3538L157.998 27.3239V27.2916C157.99 26.7064 157.99 26.1536 157.945 25.4764ZM144.734 27.5704H150.76C151.331 27.5704 151.715 27.3812 151.936 26.9928L151.941 26.9828C152.162 26.5396 152.162 26.0515 151.946 25.571L151.941 25.561C151.738 25.1601 151.338 24.9311 150.846 24.9311H146.347C146.196 24.9311 146.045 24.9211 145.887 24.9087L145.859 24.9062C145.696 24.8937 145.515 24.8788 145.327 24.8763C145.603 23.7707 145.588 22.6378 145.55 21.6568V21.6468C145.5 20.9297 145.362 20.2076 145.136 19.493C145.191 19.5577 145.251 19.615 145.317 19.6623C145.641 19.8914 145.977 19.996 146.382 19.996H150.838C151.539 19.996 152.348 20.0283 153.056 20.2773C153.599 20.4566 154.162 20.7504 154.775 21.1712C155.717 21.9008 156.463 22.8071 156.998 23.8678C157.252 24.3733 157.402 24.8937 157.443 25.4191C157.443 25.4888 157.458 25.5361 157.49 25.5834C157.53 26.2009 157.53 26.7213 157.53 27.2691C157.493 27.4036 157.463 27.5381 157.432 27.67L157.415 27.7522C157.387 27.8742 157.36 28.0012 157.324 28.1282C157.078 29.0744 156.624 29.921 155.975 30.6455C155.463 31.2257 154.822 31.7187 153.958 32.1943C153.293 32.5429 152.572 32.7545 151.758 32.8392H151.745C151.464 32.879 151.132 32.879 150.843 32.879H142.398C141.935 32.879 141.481 32.7072 140.968 32.3362C140.72 32.132 140.544 31.9503 140.408 31.7586C141.149 31.3178 141.777 30.7725 142.345 30.2471L142.35 30.2422C143.068 29.53 143.588 28.8528 143.985 28.1157C144.038 28.061 144.101 27.9763 144.111 27.8493C144.189 27.5928 144.329 27.5704 144.734 27.5704ZM145.073 17.7276L145.063 17.74C144.89 17.9567 144.802 18.2829 144.824 18.6315C144.741 18.4298 144.651 18.2306 144.553 18.0289C143.943 16.8188 143.325 15.9049 142.609 15.1579C142.327 14.8467 142.031 14.5902 141.717 14.3188L141.689 14.2939C141.659 14.2665 141.629 14.2416 141.596 14.2143C141.531 14.1595 141.466 14.1022 141.4 14.0424C142.056 13.3004 142.883 12.7377 143.925 12.3244C144.721 12.0106 145.563 11.8787 146.502 11.921H146.507H154.152C154.848 11.921 155.443 12.2372 155.97 12.8871C156.335 13.3403 156.523 13.7536 156.556 14.1918V14.2093C156.641 14.7894 156.536 15.3198 156.247 15.7879C155.875 16.398 155.405 16.8063 154.807 17.0354L154.787 17.0429C154.609 17.1126 154.383 17.1524 154.152 17.1524H146.512C145.905 17.1499 145.42 17.3441 145.073 17.7276Z" fill=""/>
<path d="M45.8728 13.4178C45.8728 13.1663 45.8301 13.124 45.5763 13.2086C44.9835 13.4601 44.4308 13.7141 43.8782 14.0079C42.5192 14.7225 41.1627 15.4795 39.8463 16.2364C38.7435 16.8664 37.598 17.4988 36.4952 18.1288C35.4779 18.7164 34.4153 19.3066 33.3552 19.8544C32.7196 20.1905 32.1243 20.4843 31.4887 20.823C30.0041 21.6222 28.4767 22.4215 27.0323 23.2631C25.9295 23.8931 24.784 24.5255 23.7641 25.2825C23.4677 25.4916 23.2969 25.7456 23.2969 26.1664C23.2969 34.7045 23.2969 43.2426 23.2969 51.7807C23.3823 51.7807 23.425 51.7807 23.5079 51.7807C23.7189 51.6114 24.0178 51.5292 24.2288 51.4022C24.9498 51.0238 25.7135 50.6453 26.4344 50.2668C27.5372 49.6792 28.5998 49.0891 29.7026 48.4591C30.4236 48.0383 31.1446 47.6598 31.9082 47.239C33.0537 46.609 34.1992 45.9343 35.3447 45.3043C36.3219 44.7565 37.3393 44.2535 38.3567 43.7481C39.6303 43.0758 40.9039 42.401 42.175 41.6864C43.3205 41.0564 44.466 40.3816 45.5261 39.6247C45.7371 39.4554 45.9506 39.2885 45.9506 38.9524C45.8728 30.4093 45.8728 21.9136 45.8728 13.4178ZM38.3617 34.3634C38.3617 34.5725 38.1909 34.6995 38.0226 34.8265C37.4297 35.2897 36.8344 35.6681 36.1988 36.0466C35.0106 36.7612 33.7797 37.3937 32.5061 37.9813C32.0816 38.1905 31.6143 38.4021 31.1471 38.5689C31.1044 38.6113 31.0189 38.6113 30.9762 38.6113C30.9762 36.6342 30.9762 34.6572 30.9762 32.6802C30.9762 31.7962 30.9762 30.9546 30.9762 30.0732C30.9762 29.9462 31.0189 29.8217 31.1471 29.7794C31.4435 29.6524 31.7399 29.4855 31.9961 29.3162C33.2271 28.6863 34.458 28.0115 35.6889 27.3815C36.4952 26.9607 37.2589 26.5399 38.0653 26.1191C38.1507 26.0768 38.1934 26.0768 38.2763 26.0345C38.2763 26.0768 38.2763 26.1191 38.2763 26.1191C38.2763 27.6753 38.319 29.2316 38.3617 30.7878C38.3617 31.6294 38.4044 32.471 38.4044 33.2703C38.4044 33.6488 38.3617 33.9849 38.3617 34.3634Z" fill=""/>
<path d="M38.5876 30.7884V30.7834C38.5499 29.4189 38.5022 27.7232 38.5022 26.1197V25.6665L38.1706 25.8383C38.148 25.8508 38.1329 25.8557 38.1078 25.8632L38.1003 25.8657C38.0676 25.8757 38.0299 25.8881 37.9872 25.908H37.9822L37.9596 25.9205C37.623 26.0973 37.2864 26.2765 36.9623 26.4508L36.7714 26.5529C36.3946 26.7546 35.9927 26.9712 35.5882 27.1829C34.9828 27.4916 34.3674 27.8178 33.7368 28.1515L33.6565 28.1938C33.0787 28.5001 32.4808 28.8163 31.893 29.1176L31.8704 29.13C31.5991 29.3093 31.3202 29.4612 31.064 29.5708C30.863 29.643 30.75 29.8272 30.75 30.0737V38.8359H30.9761C31.0364 38.8359 31.1544 38.8359 31.2549 38.7662C31.6769 38.6118 32.1191 38.4201 32.5989 38.1836C33.9755 37.5486 35.1888 36.9137 36.3092 36.2389C36.8543 35.9152 37.4974 35.5193 38.148 35.0113L38.1581 35.0039C38.3364 34.8719 38.5826 34.6876 38.5826 34.3664C38.5826 34.1772 38.5927 33.9929 38.6027 33.8336C38.6127 33.6842 38.6253 33.485 38.6253 33.2733C38.6253 32.8625 38.6153 32.4168 38.6052 32.0582C38.6002 31.7072 38.5876 31.249 38.5876 30.7884ZM38.1756 33.2709C38.1756 33.4601 38.1656 33.6444 38.1556 33.8037C38.1455 33.9531 38.1329 34.1523 38.1329 34.364C38.1329 34.4461 38.0701 34.5109 37.8893 34.6453L37.8792 34.6553C37.2562 35.1408 36.6232 35.5367 36.0831 35.8579C34.9828 36.5203 33.7821 37.1477 32.413 37.7802L32.3979 37.7877L32.3954 37.7901C31.9608 38.0043 31.5714 38.1761 31.2072 38.313V30.0762C31.2072 30.0215 31.2198 29.9966 31.2223 29.9941L31.2449 29.9841C31.5338 29.8596 31.8352 29.6953 32.1166 29.5085C32.7119 29.2047 33.3123 28.886 33.8926 28.5773L34.2468 28.3905C34.7542 28.1216 35.2818 27.8452 35.7967 27.5813C36.1333 27.4045 36.4725 27.2227 36.799 27.0484L36.9874 26.9488C37.3291 26.7646 37.6883 26.5729 38.0526 26.3811C38.0576 27.8104 38.0953 29.2595 38.1329 30.6639L38.1355 30.7909C38.1355 31.1569 38.1455 31.5254 38.153 31.8839L38.1581 32.1354C38.1656 32.5288 38.1756 32.8999 38.1756 33.2709Z" fill=""/>
<path d="M46.106 13.4188C46.106 13.2943 46.106 13.11 45.9578 13.0055C45.807 12.8984 45.6262 12.9582 45.5131 12.9955L45.4981 12.998L45.4905 13.0005C44.8123 13.2893 44.2671 13.5458 43.7748 13.8072C42.5539 14.4472 41.2326 15.1792 39.7354 16.0407C39.3184 16.2798 38.8888 16.5213 38.4718 16.7554C38.3336 16.8325 38.198 16.9097 38.0623 16.9869C37.482 17.3081 36.9193 17.6268 36.3818 17.9331C35.2589 18.583 34.2038 19.1607 33.2492 19.6537C32.9603 19.8081 32.674 19.955 32.3951 20.0969L32.3424 20.1243C32.0309 20.2836 31.7118 20.4505 31.3827 20.6248C31.0763 20.7916 30.7598 20.9609 30.4558 21.1228L30.4357 21.1327C29.2676 21.7577 28.0593 22.4026 26.9213 23.0674C26.866 23.0998 26.8108 23.1297 26.7555 23.162C26.7003 23.1944 26.645 23.2243 26.5897 23.2567L26.5671 23.2691C25.5774 23.8343 24.5549 24.417 23.633 25.0992C23.2512 25.3682 23.0703 25.7068 23.0703 26.1625V52.0009H23.5928L23.6531 51.9436C23.7561 51.8614 23.8993 51.7992 24.0375 51.7369L24.0576 51.727C24.153 51.6846 24.251 51.6398 24.3389 51.5875C24.6554 51.4207 25.0147 51.2364 25.4317 51.0248C25.7683 50.8555 26.1426 50.6637 26.5395 50.4571C27.5594 49.9143 28.632 49.3217 29.8152 48.6444C30.285 48.3705 30.7472 48.119 31.237 47.8526L31.3124 47.8127C31.4154 47.7555 31.5184 47.7007 31.6239 47.6434C31.752 47.5737 31.8826 47.504 32.0133 47.4318C32.6111 47.1031 33.2166 46.7595 33.734 46.4632L33.9074 46.3636C34.4148 46.0772 34.9373 45.7809 35.4498 45.4971C36.3868 44.9742 37.3791 44.4812 38.3387 44.0031L38.4668 43.9408L38.4693 43.9383C39.8107 43.2312 41.0241 42.5888 42.2776 41.8816C43.6567 41.1222 44.7294 40.4648 45.6488 39.8075L45.6613 39.7975L45.6714 39.7901C45.8925 39.6108 46.1688 39.3892 46.1688 38.9509C46.106 30.4103 46.106 21.7726 46.106 13.4188ZM45.7267 38.9534C45.7267 39.1775 45.5885 39.2896 45.3951 39.4439L45.3875 39.4514C44.4857 40.0938 43.4306 40.7437 42.0666 41.4932C40.8432 42.1829 39.6173 42.8328 38.2558 43.5499L38.0849 43.6346C37.1404 44.1052 36.1632 44.5932 35.2388 45.1086C34.6409 45.4373 34.0355 45.7809 33.5155 46.0772C32.9553 46.3959 32.3775 46.7271 31.7998 47.0433C31.6214 47.1429 31.443 47.24 31.2672 47.3347C31.2119 47.3645 31.1541 47.3969 31.0989 47.4268C30.5613 47.7181 30.079 47.9796 29.5891 48.2659C28.4813 48.9008 27.4137 49.491 26.3285 50.0686C26.0346 50.223 25.7281 50.3799 25.4291 50.5343L25.2031 50.6513C24.8489 50.8306 24.4821 51.0173 24.1304 51.2016L24.1204 51.2041L24.1103 51.2091C24.05 51.2464 23.9772 51.2788 23.8993 51.3136L23.8541 51.3335C23.7536 51.3784 23.633 51.4307 23.5175 51.4979V26.1649C23.5175 25.8487 23.623 25.652 23.8892 25.4653L23.8968 25.4603L23.8993 25.4578C24.8137 24.7805 25.8261 24.2029 26.8058 23.6451C26.8359 23.6277 26.8635 23.6127 26.8937 23.5953C26.9741 23.5505 27.0595 23.5032 27.1399 23.4559C28.2703 22.796 29.4685 22.1561 30.6291 21.5361L30.6568 21.5212C30.9632 21.3568 31.2798 21.1875 31.5887 21.0207C31.85 20.8812 32.1112 20.7468 32.365 20.6173C32.4328 20.5824 32.5031 20.5476 32.571 20.5127L32.7116 20.4405C32.9553 20.316 33.204 20.1865 33.4552 20.0546C34.4223 19.5541 35.4523 18.9889 36.6028 18.324C37.0198 18.085 37.4494 17.8435 37.8664 17.6094C38.0046 17.5322 38.1402 17.455 38.2759 17.3779C38.9014 17.0293 39.449 16.718 39.9514 16.4317C41.4009 15.6 42.7172 14.8705 43.9783 14.2081C44.4681 13.9492 44.9956 13.7002 45.6387 13.4263C45.6488 21.7751 45.6488 30.4128 45.7267 38.9534Z" fill=""/>
<path d="M33.9925 6.43656C33.9071 6.39423 33.7815 6.39423 33.6534 6.3519C33.0605 6.3519 32.5079 6.30958 31.9125 6.30958C31.7417 6.30958 31.7015 6.26725 31.7015 6.10042C31.7015 5.84893 31.6588 5.59495 31.6588 5.34347C31.6588 5.17415 31.6161 5.04965 31.4478 4.96499C29.0287 3.57808 26.6096 2.18868 24.2331 0.844099C23.7659 0.547793 23.256 0.293816 22.7887 0H22.746C22.4496 0.169318 22.1532 0.293816 21.8542 0.463134C16.8904 3.07013 11.9692 5.80411 7.0456 8.5381C4.96561 9.71585 2.88813 10.8513 0.850848 12.1137C0.722732 12.1983 0.597129 12.2407 0.511719 12.3652C0.722732 12.4922 0.978963 12.5743 1.14727 12.659C2.88813 13.5006 4.54107 14.4244 6.23923 15.3506C10.7785 17.8331 15.2776 20.3978 19.8596 22.838C20.7941 23.3434 21.7688 23.8464 22.746 24.2672C22.9168 24.3519 23.0851 24.3519 23.256 24.2672C30.3425 20.3978 37.429 16.5707 44.4729 12.7013C44.5156 12.659 44.601 12.659 44.6437 12.5743C41.1218 10.5151 37.5571 8.45344 33.9925 6.43656ZM19.3949 11.9867C19.2668 12.029 19.1839 12.0714 19.0558 12.029C17.6139 11.2297 16.1694 10.4305 14.6848 9.63119C15.152 9.3797 15.5339 9.16806 15.9584 8.9589C16.9758 8.41111 17.953 7.90813 18.9704 7.36034C19.0558 7.31801 19.1412 7.27568 19.2668 7.31801C20.666 8.11729 22.0677 8.91657 23.467 9.71585L23.5097 9.75818C23.0424 10.0097 22.6179 10.2213 22.1933 10.4728C21.2614 10.9783 20.3269 11.4837 19.3949 11.9867ZM32.5079 14.2999C30.8097 15.2685 29.1141 16.1923 27.3732 17.1609C27.2878 17.2032 27.2024 17.2878 27.0341 17.2032C25.253 16.1947 23.4268 15.2261 21.5603 14.2177C22.0703 13.9239 22.5777 13.6699 23.0449 13.4184C24.3186 12.7461 25.5922 12.0714 26.8633 11.3991C26.9914 11.3567 27.0743 11.3144 27.2024 11.3991C28.9433 12.283 30.7243 13.2068 32.4652 14.0907C32.5079 14.1331 32.5506 14.133 32.636 14.1754C32.6335 14.2177 32.5481 14.2575 32.5079 14.2999Z" fill=""/>
</svg>
