<svg width="36" height="36" viewBox="0 0 36 36" fill="none" xmlns="http://www.w3.org/2000/svg">
<path d="M0 5.7843V30.2247C0 31.392 0.956541 32.3486 2.13195 32.3486H33.868C35.0435 32.3486 36 31.392 36 30.2166V5.7843C35.9919 4.60888 35.0354 3.65234 33.8599 3.65234H2.13195C0.956541 3.65234 0 4.60888 0 5.7843ZM33.8599 4.86829C34.3625 4.86829 34.776 5.28171 34.776 5.7843V30.2247C34.776 30.7273 34.3625 31.1407 33.8599 31.1407H2.12385C1.62126 31.1407 1.20784 30.7273 1.20784 30.2247V5.7843C1.21594 5.28171 1.62936 4.86829 2.13195 4.86829H33.8599Z" fill="#555555"/>
<path d="M3.88281 6.08403V29.9165C3.88281 30.1435 4.06115 30.3218 4.28813 30.3218H31.7036C31.9305 30.3218 32.1089 30.1435 32.1089 29.9165V6.08403C32.1089 5.85705 31.9305 5.67871 31.7036 5.67871H4.28813C4.06115 5.67871 3.88281 5.85705 3.88281 6.08403ZM31.2983 6.48934V29.5112H4.69344V6.48934H31.2983Z" fill="#555555"/>
<path d="M32.9521 18.0005C32.9521 18.1627 33.017 18.3167 33.1305 18.4302C33.244 18.5437 33.398 18.6085 33.5601 18.6085C33.7222 18.6085 33.8763 18.5437 33.9898 18.4302C34.1032 18.3167 34.1681 18.1627 34.1681 18.0005C34.1681 17.8384 34.1032 17.6844 33.9898 17.5709C33.8763 17.4574 33.7222 17.3926 33.5601 17.3926C33.398 17.3926 33.244 17.4574 33.1305 17.5709C33.017 17.6844 32.9521 17.8384 32.9521 18.0005Z" fill="#555555"/>
<path d="M3.01571 18C3.01571 17.8947 2.97517 17.7893 2.89411 17.7163C2.81305 17.6434 2.71577 17.5947 2.61039 17.5947C2.50501 17.5947 2.39963 17.6353 2.32667 17.7163C2.25372 17.7893 2.20508 17.8947 2.20508 18C2.20508 18.1054 2.24561 18.2108 2.32667 18.2838C2.39963 18.3567 2.50501 18.4054 2.61039 18.4054C2.71577 18.4054 2.82116 18.3648 2.89411 18.2838C2.97517 18.2108 3.01571 18.1054 3.01571 18Z" fill="#555555"/>
</svg>
