<svg width="42" height="42" viewBox="0 0 42 42" fill="none" xmlns="http://www.w3.org/2000/svg">
<path d="M13.6328 7.94202H18.5938C18.5938 7.89491 18.5859 7.8478 18.5859 7.80069C18.5859 7.16466 18.8438 6.59145 19.2578 6.17529C19.6719 5.75912 20.2422 5.5 20.875 5.5C21.5078 5.5 22.0781 5.75912 22.4922 6.17529C22.9063 6.59145 23.1641 7.16466 23.1641 7.80069C23.1641 7.8478 23.1641 7.89491 23.1563 7.94202H28.3516C29 7.94202 29.5938 8.209 30.0234 8.64087C30.4531 9.07274 30.7188 9.6695 30.7188 10.3212V11.0593H11.2656V10.3212C11.2656 9.6695 11.5313 9.07274 11.9609 8.64087C12.3906 8.209 12.9844 7.94202 13.6328 7.94202Z" fill="#222222"/>
<path fill-rule="evenodd" clip-rule="evenodd" d="M24.6094 17.6073H36.8906C37.2344 17.6073 37.5156 17.89 37.5156 18.2355V30.5791C37.5156 30.9246 37.2344 31.2073 36.8906 31.2073H35.8125H35.1875H26.3125H25.6875H24.6094C24.2656 31.2073 23.9844 30.9246 23.9844 30.5791V18.2355C23.9844 17.89 24.2656 17.6073 24.6094 17.6073ZM41 34.301V14.5135C41 13.9089 40.7578 13.3593 40.3594 12.9588C39.9609 12.5584 39.4141 12.3149 38.8125 12.3149C27.0938 12.3149 14.9062 12.3149 3.1875 12.3149C2.58594 12.3149 2.03906 12.5584 1.64062 12.9588C1.24219 13.3593 1 13.9089 1 14.5135V34.301C1 34.9056 1.24219 35.4553 1.64062 35.8557C2.03906 36.2562 2.58594 36.4996 3.1875 36.4996H38.8125C39.4141 36.4996 39.9609 36.2562 40.3594 35.8557C40.7578 35.4553 41 34.9056 41 34.301ZM5.24219 21.3763H21.0234C21.3672 21.3763 21.6484 21.659 21.6484 22.0045C21.6484 22.35 21.3672 22.6327 21.0234 22.6327H5.24219C4.89844 22.6327 4.61719 22.35 4.61719 22.0045C4.61719 21.659 4.89844 21.3763 5.24219 21.3763ZM5.24219 25.1454H21.0234C21.3672 25.1454 21.6484 25.4281 21.6484 25.7736C21.6484 26.1191 21.3672 26.4017 21.0234 26.4017H5.24219C4.89844 26.4017 4.61719 26.1191 4.61719 25.7736C4.61719 25.4281 4.89844 25.1454 5.24219 25.1454ZM4.61719 29.5426C4.61719 28.9772 5.07812 28.514 5.64062 28.514C6.20312 28.514 6.66406 28.9772 6.66406 29.5426C6.66406 30.108 6.20312 30.5712 5.64062 30.5712C5.07812 30.5712 4.61719 30.108 4.61719 29.5426ZM21.0234 28.9144C21.3672 28.9144 21.6484 29.1971 21.6484 29.5426C21.6484 29.8881 21.3672 30.1708 21.0234 30.1708H9.89844C9.55469 30.1708 9.27344 29.8881 9.27344 29.5426C9.27344 29.1971 9.55469 28.9144 9.89844 28.9144H21.0234ZM21.6484 18.2433C21.6484 18.5888 21.3672 18.8715 21.0234 18.8715H5.24219C4.89844 18.8715 4.61719 18.5888 4.61719 18.2433C4.61719 17.8978 4.89844 17.6152 5.24219 17.6152H21.0234C21.3672 17.6152 21.6484 17.8978 21.6484 18.2433Z" fill="#222222"/>
<path fill-rule="evenodd" clip-rule="evenodd" d="M31.9294 25.9234C32.3747 25.6171 32.7497 25.1381 32.9684 24.4786C33.2575 24.1331 33.9528 23.1437 33.3903 22.1779C33.3981 22.0915 33.3981 22.0051 33.3981 21.9266C33.3903 21.267 33.1715 20.7174 32.7966 20.3091C32.4216 19.9086 31.9059 19.6573 31.2809 19.571C31.1091 19.5474 30.9294 19.5396 30.7341 19.5396H30.7262C30.7106 19.5396 30.695 19.5396 30.6794 19.5396C30.5075 19.5396 30.3434 19.5474 30.1872 19.571C29.5622 19.6573 29.0466 19.9086 28.6716 20.3091C28.2888 20.7174 28.0778 21.2592 28.07 21.9266C28.07 22.013 28.07 22.0915 28.0778 22.1779C27.5231 23.1515 28.2184 24.1409 28.4997 24.4786C28.7184 25.1381 29.0934 25.625 29.5387 25.9234C29.9059 26.1746 30.32 26.3003 30.7341 26.3003C31.1481 26.3003 31.5622 26.1746 31.9294 25.9234Z" fill="#222222"/>
<path fill-rule="evenodd" clip-rule="evenodd" d="M26.3047 30.5798H35.1797H35.8047C35.8047 29.5747 35.4922 28.3969 34.5391 27.8865C33.4531 27.2819 32.0937 26.9678 30.7266 26.9678C29.4062 26.9678 28.0625 27.2662 26.9453 27.8865C25.9922 28.389 25.6797 29.5747 25.6797 30.5798H26.3047Z" fill="#222222"/>
</svg>
