<svg width="42" height="42" viewBox="0 0 42 42" fill="none" xmlns="http://www.w3.org/2000/svg">
<path d="M21.0242 1C29.3519 1 34.9733 8.03565 33.4113 15.6635C33.3562 15.9466 33.4286 16.2517 33.6054 16.4808C34.3426 17.4409 35.1059 18.6996 35.6753 19.75C35.9871 20.3219 36.2631 20.8909 36.5 21.4647C35.7331 21.9846 34.8508 22.344 34.2199 22.8269C33.7474 23.2182 33.7635 23.8602 34.2038 24.3814L33.7024 24.8782C33.3899 25.1827 33.3073 25.6941 33.5084 26.0801L33.8318 26.7211L33.4437 27.843C33.3809 28.0222 33.3695 28.2188 33.4114 28.4038C33.6504 29.4543 33.6096 30.104 33.4922 30.4391C33.3748 30.7743 33.2392 30.9021 32.8292 31.0801C32.0091 31.4361 30.167 31.504 27.994 31.7692C27.8123 31.7928 27.6373 31.8657 27.4927 31.9775C26.0286 33.1215 25.415 34.3453 25.3258 35.391C25.5108 36.5952 25.4469 37.7774 25.2773 38.7724C25.1831 39.3244 25.1339 40.1891 25.0833 41H7.65076C9.2661 37.715 10.3729 35.0943 10.7395 32.8269C11.1144 30.0215 10.4565 27.3214 9.62364 25.2308C8.13635 20.9105 5.5 18.0476 5.5 13.3077C5.5 7.32672 11.6718 1 21.0243 1H21.0242ZM19.4879 5.10256V7.15385C19.4843 7.42477 19.732 7.67393 20.0054 7.67393C20.2788 7.67393 20.5268 7.42477 20.5229 7.15385V5.10256C20.5333 4.812 20.249 4.54631 19.9569 4.57375C19.6416 4.60042 19.5025 4.91405 19.4879 5.10256ZM15.5422 5.74359C15.2013 5.78205 14.9804 6.21959 15.1541 6.51282L16.189 8.2917C16.3245 8.52662 16.6635 8.61826 16.9006 8.48401C17.1376 8.34975 17.2301 8.0138 17.0946 7.77888L16.0597 6C15.959 5.82338 15.7451 5.71738 15.5422 5.74359ZM23.9512 6L22.9162 7.77888C22.7808 8.0138 22.8732 8.34975 23.1103 8.48401C23.3474 8.61826 23.6863 8.52657 23.8218 8.2917L24.8568 6.51282C24.9916 6.28462 24.8771 5.97875 24.6662 5.82998C24.3597 5.66172 24.1381 5.7619 23.9512 6ZM19.9893 8.13138C18.4631 8.13138 17.0419 8.638 15.995 9.6218C14.9481 10.6056 14.297 12.0755 14.297 13.8686C14.321 15.1234 14.9099 16.3064 15.5098 17.3141C16.1098 18.3218 16.7529 19.2095 16.9329 19.6538C17.2094 20.331 17.2463 21.0628 17.3695 21.7211C17.4413 22.1257 17.7121 22.4316 18.1134 22.4905H21.8813C22.2991 22.451 22.5198 22.1306 22.6252 21.7692C22.7448 21.0537 22.8543 20.3053 23.0617 19.6541C23.2329 19.2316 23.8894 18.4299 24.501 17.4586C25.1125 16.4872 25.6815 15.2864 25.6815 13.8689C25.6815 12.0757 25.0466 10.6058 23.9997 9.62205C22.9 8.69912 21.4557 8.11579 19.9893 8.13138ZM11.9911 9.14954C11.8452 9.38928 11.8694 9.75683 12.1301 9.89426L13.9251 10.9199C14.1582 11.0902 14.5337 11.013 14.6794 10.7649C14.825 10.5168 14.7071 10.1552 14.4425 10.0385L12.6475 9.01282C12.3144 8.87328 12.1675 8.96257 11.9911 9.14954ZM27.3633 9.01282L25.5683 10.0385C25.3037 10.1552 25.1858 10.5168 25.3315 10.7649C25.4771 11.013 25.8526 11.0902 26.0858 10.9199L27.8808 9.89426C28.0838 9.78349 28.1923 9.52614 28.1291 9.30516C27.973 8.92701 27.6799 8.87897 27.3633 9.01282ZM19.9893 9.15702C21.2857 9.15712 22.4533 9.59051 23.2882 10.375C24.123 11.1595 24.6466 12.3134 24.6465 13.8686C24.6465 15.0053 24.1761 16.0167 23.6116 16.9134C23.0587 17.7917 22.447 18.4986 22.14 19.2211C21.8185 19.9357 21.744 20.8167 21.6226 21.4648H18.3722C18.2107 20.7038 18.1709 19.7907 17.8385 19.1732C17.535 18.4761 16.9439 17.7 16.3993 16.7853C15.8367 15.8403 15.3547 14.8063 15.332 13.8687C15.354 12.2727 15.8883 11.169 16.7066 10.3752C17.5476 9.58173 18.8235 9.17051 19.9893 9.15702ZM20.0054 9.71795C19.0567 9.71795 18.0503 10.1552 17.3048 10.9679C16.5592 11.7807 16.1105 12.9992 16.3992 14.4295C16.4543 14.6938 16.747 14.8847 17.0137 14.8301C17.2804 14.7756 17.473 14.4854 17.418 14.2211C17.1892 13.0874 17.5167 12.2546 18.0648 11.657C18.613 11.0595 19.4017 10.7436 20.0054 10.7436C20.2788 10.7487 20.5302 10.5017 20.5302 10.2308C20.5302 9.95979 20.2788 9.7141 20.0054 9.71795ZM11.0627 13.3077C10.7918 13.3456 10.5799 13.6241 10.618 13.8926C10.6561 14.1611 10.9373 14.3711 11.2083 14.3333H13.2782C13.5516 14.3385 13.803 14.0915 13.803 13.8205C13.803 13.5495 13.5516 13.3038 13.2782 13.3077C12.5063 13.3076 11.7345 13.3077 11.0627 13.3077ZM26.587 13.3077C26.3161 13.3456 26.1042 13.6241 26.1423 13.8926C26.1804 14.1611 26.4616 14.3711 26.7326 14.3333H28.8025C29.0759 14.3385 29.3273 14.0915 29.3273 13.8205C29.3273 13.5495 29.0759 13.3038 28.8025 13.3077C28.0438 13.3076 27.2635 13.3077 26.587 13.3077ZM13.925 16.7051L12.13 17.7308C11.8654 17.8475 11.7475 18.2091 11.8932 18.4572C12.0388 18.7053 12.4143 18.7825 12.6475 18.6122L14.4425 17.5866C14.6492 17.4751 14.7585 17.2121 14.6909 16.9887C14.4971 16.605 14.1728 16.611 13.925 16.7051ZM25.4149 16.8669C25.2853 17.1065 25.3165 17.4539 25.5683 17.5866L27.3633 18.6122C27.5964 18.7825 27.9719 18.7053 28.1176 18.4572C28.2632 18.2091 28.1453 17.8475 27.8807 17.7308L26.0857 16.7051C25.7841 16.5555 25.6157 16.645 25.4149 16.8669ZM17.8466 23.6362C17.8846 23.9047 18.1658 24.1147 18.4368 24.0769H21.5417C21.815 24.0821 22.0665 23.8351 22.0665 23.5641C22.0665 23.2931 21.815 23.0474 21.5417 23.0513H18.4368C18.0451 23.039 17.8452 23.3327 17.8466 23.6362ZM18.364 25.1747C18.4021 25.4432 18.6833 25.6531 18.9543 25.6154H21.0242C21.2976 25.6205 21.549 25.3735 21.549 25.1026C21.549 24.8316 21.2976 24.5859 21.0242 24.5897H18.9543C18.5761 24.5672 18.3697 24.9135 18.364 25.1747Z" fill="#222222"/>
</svg>
