<svg width="42" height="42" viewBox="0 0 42 42" fill="none" xmlns="http://www.w3.org/2000/svg">
<path d="M29.5714 19.2065C29.5714 18.8112 29.8921 18.4891 30.2857 18.4891C30.6793 18.4891 31 18.8112 31 19.2065C31 19.6018 30.6793 19.9239 30.2857 19.9239C29.8921 19.9239 29.5714 19.6018 29.5714 19.2065ZM1 10.2391V5.93478C1 5.1435 1.64071 4.5 2.42857 4.5H39.5714C40.3593 4.5 41 5.1435 41 5.93478V10.2391H1ZM36.7143 7.36957C36.7143 7.76557 37.0336 8.08696 37.4286 8.08696C37.8236 8.08696 38.1429 7.76557 38.1429 7.36957C38.1429 6.97357 37.8236 6.65217 37.4286 6.65217C37.0336 6.65217 36.7143 6.97357 36.7143 7.36957ZM3.85714 7.36957C3.85714 7.76557 4.17714 8.08696 4.57143 8.08696H13.1429C13.5371 8.08696 13.8571 7.76557 13.8571 7.36957C13.8571 6.97357 13.5371 6.65217 13.1429 6.65217H4.57143C4.17714 6.65217 3.85714 6.97357 3.85714 7.36957ZM21.7143 21.8881V15.9783H35.2857V24.399L32.9771 21.617C32.7057 21.2898 32.1514 21.2898 31.88 21.617L29.6493 24.305L25.1086 19.0932C24.9707 18.9353 24.7786 18.8399 24.5621 18.8485C24.3536 18.8507 24.1557 18.9454 24.0221 19.1068L21.7143 21.8881ZM28.1429 19.2065C28.1429 20.3931 29.1043 21.3587 30.2857 21.3587C31.4671 21.3587 32.4286 20.3931 32.4286 19.2065C32.4286 18.02 31.4671 17.0543 30.2857 17.0543C29.1043 17.0543 28.1429 18.02 28.1429 19.2065ZM16 15.9783H6V18.8478H16V15.9783ZM32.4286 23.1967L30.0843 26.0217H34.7721L32.4286 23.1967ZM41 11.6739V36.0652C41 36.8565 40.3593 37.5 39.5714 37.5H2.42857C1.64071 37.5 1 36.8565 1 36.0652V11.6739H41ZM4.57143 19.5652C4.57143 19.9612 4.89143 20.2826 5.28571 20.2826H16.7143C17.1086 20.2826 17.4286 19.9612 17.4286 19.5652V15.2609C17.4286 14.8649 17.1086 14.5435 16.7143 14.5435H5.28571C4.89143 14.5435 4.57143 14.8649 4.57143 15.2609V19.5652ZM4.57143 23.1522C4.57143 23.5482 4.89143 23.8696 5.28571 23.8696H16.7143C17.1086 23.8696 17.4286 23.5482 17.4286 23.1522C17.4286 22.7562 17.1086 22.4348 16.7143 22.4348H5.28571C4.89143 22.4348 4.57143 22.7562 4.57143 23.1522ZM4.57143 26.7391C4.57143 27.1351 4.89143 27.4565 5.28571 27.4565H16.7143C17.1086 27.4565 17.4286 27.1351 17.4286 26.7391C17.4286 26.3431 17.1086 26.0217 16.7143 26.0217H5.28571C4.89143 26.0217 4.57143 26.3431 4.57143 26.7391ZM36.7143 31.0435C36.7143 30.6475 36.3943 30.3261 36 30.3261H5.28571C4.89143 30.3261 4.57143 30.6475 4.57143 31.0435C4.57143 31.4395 4.89143 31.7609 5.28571 31.7609H36C36.3943 31.7609 36.7143 31.4395 36.7143 31.0435ZM36.7143 15.2609C36.7143 14.8649 36.3943 14.5435 36 14.5435H21C20.6057 14.5435 20.2857 14.8649 20.2857 15.2609V26.7391C20.2857 27.1351 20.6057 27.4565 21 27.4565H36C36.3943 27.4565 36.7143 27.1351 36.7143 26.7391V15.2609ZM28.3086 25.9213L28.7243 25.4206L24.585 20.6693L21.7143 24.1293V26.0217H28.2543C28.2743 25.9887 28.2829 25.9514 28.3086 25.9213Z" fill="#222222"/>
</svg>
