<svg width="42" height="42" viewBox="0 0 42 42" fill="none" xmlns="http://www.w3.org/2000/svg">
<path d="M8.50651 28.2756C5.59917 28.2756 2.97931 27.0737 1.10938 25.1499V35.0005C1.10938 37.2094 2.91491 39 5.14231 39H36.8556C39.083 39 40.8885 37.2094 40.8885 35.0005V25.1504C39.0186 27.0742 36.3987 28.2761 33.4914 28.2761H25.2622V31.2621C25.2622 32.1807 24.5113 32.9253 23.585 32.9253H18.4134C17.487 32.9253 16.7362 32.1807 16.7362 31.2621V28.2761H8.50651V28.2756Z" fill="#222222"/>
<path d="M38.5 9.67491H32.8067C32.8053 8.88816 32.1617 8.25089 31.3684 8.25089H30.401C30.1658 8.25089 29.9749 8.0616 29.9749 7.82835V6.69635C29.9749 4.65496 28.3061 3 26.2477 3H15.7528C13.6943 3 12.0255 4.65496 12.0255 6.69635V7.82835C12.0255 8.0616 11.8347 8.25089 11.5995 8.25089H10.6321C9.83827 8.25089 9.1952 8.88816 9.1938 9.67491H3.5C1.56707 9.67491 0 11.229 0 13.1459V17.8095C0 23.2163 4.4198 26.6739 9.87187 26.6739H16.7375V23.8434C16.7375 22.9248 17.4883 22.1801 18.4147 22.1801H23.5863C24.5126 22.1801 25.2635 22.9248 25.2635 23.8434V26.6739H32.1291C37.5802 26.6739 42 23.2163 42 17.8095V13.1459C42 11.229 40.4329 9.67491 38.5 9.67491ZM26.7437 8.25089V9.67491H15.2563V8.25089V6.69589C15.2563 6.42423 15.4789 6.20348 15.7528 6.20348H26.2472C26.5207 6.20348 26.7437 6.42423 26.7437 6.69589V8.25089Z" fill="#222222"/>
<path d="M19.1156 31.323H22.8858C23.3067 31.323 23.6479 30.9847 23.6479 30.5673V24.538C23.6479 24.1205 23.3067 23.7822 22.8858 23.7822H19.1156C18.6946 23.7822 18.3535 24.1205 18.3535 24.538V30.5668C18.353 30.9843 18.6942 31.323 19.1156 31.323Z" fill="#222222"/>
</svg>
