<svg width="42" height="42" viewBox="0 0 42 42" fill="none" xmlns="http://www.w3.org/2000/svg">
<path d="M12.8897 26.833C11.9048 27.4087 10.7306 27.7924 9.51843 27.7924C8.3063 27.7924 7.13204 27.4087 6.10929 26.833C4.70776 27.4854 3.64714 28.867 3.45774 30.4788L3.00319 34.2014C2.96531 34.662 3.26835 35.1225 3.7229 35.2376C5.5411 35.6214 7.47295 35.8133 9.51843 35.8133C10.6169 35.8133 11.6776 35.7749 12.7003 35.6214L13.0412 32.8966C13.2306 31.3231 13.9503 29.9032 15.0867 28.9054C14.5943 28.0227 13.8367 27.2552 12.8897 26.833Z" fill="#222222"/>
<path d="M9.51788 25.4515C11.8609 25.4515 13.7604 23.5271 13.7604 21.1532C13.7604 18.7794 11.8609 16.855 9.51788 16.855C7.17482 16.855 5.27539 18.7794 5.27539 21.1532C5.27539 23.5271 7.17482 25.4515 9.51788 25.4515Z" fill="#222222"/>
<path d="M38.5723 30.5174C38.3829 28.8672 37.3223 27.4856 35.8829 26.8716C34.898 27.4472 33.7238 27.831 32.5116 27.831C31.2995 27.831 30.1252 27.4472 29.1025 26.8716C28.1555 27.2937 27.3979 28.0613 26.9434 28.9439C28.0797 29.9801 28.8373 31.4385 28.9888 32.9736L29.3298 35.66C30.3525 35.8135 31.451 35.8518 32.5116 35.8518C34.5192 35.8518 36.4511 35.6216 38.3072 35.2762C38.7617 35.1611 39.0647 34.7005 38.989 34.24L38.5723 30.5174Z" fill="#222222"/>
<path d="M32.511 25.4515C34.8541 25.4515 36.7535 23.5271 36.7535 21.1532C36.7535 18.7794 34.8541 16.855 32.511 16.855C30.168 16.855 28.2686 18.7794 28.2686 21.1532C28.2686 23.5271 30.168 25.4515 32.511 25.4515Z" fill="#222222"/>
<path d="M24.3678 29.5195C23.3829 30.0952 22.2087 30.479 20.9965 30.479C19.7844 30.479 18.6101 30.1336 17.6253 29.5195C16.1859 30.1719 15.1631 31.5151 14.9358 33.1654L14.4813 36.888C14.4055 37.3485 14.7086 37.8474 15.201 37.9241C17.0192 38.3079 18.951 38.4998 20.9587 38.4998C22.9663 38.4998 24.8981 38.3079 26.7542 37.9241C27.2087 37.8474 27.5118 37.3485 27.436 36.888L27.0572 33.1654C26.8678 31.5151 25.8072 30.1719 24.3678 29.5195Z" fill="#222222"/>
<path d="M20.9964 28.0999C23.3395 28.0999 25.2389 26.1755 25.2389 23.8017C25.2389 21.4278 23.3395 19.5034 20.9964 19.5034C18.6533 19.5034 16.7539 21.4278 16.7539 23.8017C16.7539 26.1755 18.6533 28.0999 20.9964 28.0999Z" fill="#222222"/>
<path d="M16.1099 15.8959H25.9206C26.754 15.8959 27.3979 15.2051 27.3979 14.3991V10.4463C26.1479 10.8684 24.7464 11.1755 23.2312 11.329V11.4057C23.2312 12.3268 22.5115 13.0559 21.6024 13.0559H20.4281C19.519 13.0559 18.7993 12.3268 18.7993 11.4057V11.329C17.2463 11.1755 15.8447 10.8684 14.5947 10.4463V14.3991C14.5947 15.2434 15.2766 15.8959 16.1099 15.8959Z" fill="#222222"/>
<path d="M20.4274 8.60417H21.6016C22.435 8.60417 23.1547 9.25658 23.2304 10.1009C24.7835 9.94737 26.185 9.60197 27.3972 9.10307V7.68311C27.3972 6.83882 26.7153 6.1864 25.9199 6.1864H23.988V5.38048C23.988 4.3443 23.1547 3.5 22.1319 3.5H19.8592C18.8364 3.5 18.0031 4.3443 18.0031 5.38048V6.1864H16.1091C15.2758 6.1864 14.6318 6.87719 14.6318 7.68311V9.10307C15.844 9.5636 17.2834 9.90899 18.8364 10.1009C18.8743 9.25658 19.5561 8.60417 20.4274 8.60417ZM19.4804 5.38048C19.4804 5.1886 19.6698 4.99671 19.8592 4.99671H22.1319C22.3592 4.99671 22.5107 5.1886 22.5107 5.38048V6.1864H19.4804V5.38048Z" fill="#222222"/>
<path d="M20.4274 9.83203C20.2001 9.83203 20.0107 10.0239 20.0107 10.2542V11.4055C20.0107 11.6358 20.2001 11.8276 20.4274 11.8276H21.6017C21.8289 11.8276 22.0183 11.6358 22.0183 11.4055V10.2542C22.0183 10.0239 21.8289 9.83203 21.6017 9.83203H20.4274Z" fill="#222222"/>
</svg>
