<svg width="42" height="42" viewBox="0 0 42 42" fill="none" xmlns="http://www.w3.org/2000/svg">
<path d="M14.7766 26.1272H14.7782L14.7822 26.127H33.373C33.8307 26.127 34.2331 25.8233 34.3589 25.3833L38.4605 11.0278C38.5489 10.7183 38.4869 10.3856 38.2933 10.1287C38.0995 9.87184 37.7964 9.7207 37.4746 9.7207H12.4118L11.6788 6.4221C11.5744 5.95293 11.1584 5.61914 10.6777 5.61914H4.52539C3.95902 5.61914 3.5 6.07816 3.5 6.64453C3.5 7.2109 3.95902 7.66992 4.52539 7.66992H9.85529C9.98506 8.25445 13.363 23.4553 13.5574 24.3298C12.4676 24.8036 11.7031 25.8901 11.7031 27.1523C11.7031 28.8485 13.0831 30.2285 14.7793 30.2285H33.373C33.9394 30.2285 34.3984 29.7695 34.3984 29.2031C34.3984 28.6368 33.9394 28.1777 33.373 28.1777H14.7793C14.214 28.1777 13.7539 27.7176 13.7539 27.1523C13.7539 26.5878 14.2124 26.1286 14.7766 26.1272Z" fill="#222222"/>
<path d="M13.7539 33.3047C13.7539 35.0009 15.1339 36.3809 16.8301 36.3809C18.5262 36.3809 19.9062 35.0009 19.9062 33.3047C19.9062 31.6085 18.5262 30.2285 16.8301 30.2285C15.1339 30.2285 13.7539 31.6085 13.7539 33.3047ZM16.8301 32.2793C17.3954 32.2793 17.8555 32.7394 17.8555 33.3047C17.8555 33.87 17.3954 34.3301 16.8301 34.3301C16.2648 34.3301 15.8047 33.87 15.8047 33.3047C15.8047 32.7394 16.2648 32.2793 16.8301 32.2793Z" fill="#222222"/>
<path d="M28.2461 33.3047C28.2461 35.0009 29.6261 36.3809 31.3223 36.3809C33.0184 36.3809 34.3984 35.0009 34.3984 33.3047C34.3984 31.6085 33.0184 30.2285 31.3223 30.2285C29.6261 30.2285 28.2461 31.6085 28.2461 33.3047ZM31.3223 32.2793C31.8876 32.2793 32.3477 32.7394 32.3477 33.3047C32.3477 33.87 31.8876 34.3301 31.3223 34.3301C30.757 34.3301 30.2969 33.87 30.2969 33.3047C30.2969 32.7394 30.757 32.2793 31.3223 32.2793Z" fill="#222222"/>
</svg>
