<svg xmlns="http://www.w3.org/2000/svg" width="106" height="105" fill="none">
    <path fill="#F9FFE9"
          d="M91.987 89.83c-2.137 2.25-4.157 3.7-5.755 4.847-18.775 13.47-40.99 9.544-45.712 8.586-6.973-1.417-20.45-4.154-30.193-15.612-14.74-17.334-12.445-44.646-1.01-62.675C11.407 21.678 22.454 3.375 44.91.44 58.5-1.337 74.34 2.245 85.813 11.856c24.08 20.175 22.366 60.932 6.174 77.975z"/>
    <path fill="#CCEB76"
          d="M73.752 79.858c15.733-15.733 15.733-41.24 0-56.973-15.732-15.733-41.24-15.733-56.973 0-15.733 15.732-15.733 41.24 0 56.973 15.732 15.732 41.24 15.732 56.972 0z"/>
    <path fill="#B2D550"
          d="M45.265 85.753c18.99 0 34.382-15.393 34.382-34.382 0-18.988-15.393-34.38-34.382-34.38-18.99 0-34.382 15.392-34.382 34.38 0 18.99 15.393 34.383 34.382 34.383z"/>
    <path fill="#fff"
          d="M45.265 87.476C25.357 87.476 9.16 71.28 9.16 51.37c0-19.907 16.197-36.103 36.105-36.103 19.908 0 36.104 16.196 36.104 36.104 0 19.91-16.196 36.106-36.105 36.106zm0-70.487c-18.96 0-34.383 15.423-34.383 34.38 0 18.96 15.424 34.384 34.383 34.384 18.958 0 34.382-15.424 34.382-34.383 0-18.958-15.424-34.382-34.382-34.382z"/>
    <path fill="#B2D550"
          d="M60.086 66.193c8.186-8.186 8.186-21.458 0-29.644-8.186-8.186-21.457-8.186-29.643 0-8.186 8.185-8.186 21.457 0 29.643s21.457 8.186 29.643 0z"/>
    <path fill="#fff"
          d="M45.265 74.054c-12.507 0-22.683-10.175-22.683-22.683s10.176-22.683 22.683-22.683c12.508 0 22.685 10.177 22.685 22.684 0 12.508-10.177 22.684-22.685 22.684zm0-41.922c-10.608 0-19.237 8.63-19.237 19.237 0 10.606 8.63 19.24 19.237 19.24 10.607 0 19.238-8.63 19.238-19.24 0-10.606-8.628-19.24-19.238-19.24z"/>
    <path fill="url(#a)" d="M51.008 57.114A8.12 8.12 0 1 0 39.523 45.63a8.12 8.12 0 0 0 11.485 11.484z"/>
    <path fill="#fff"
          d="M45.265 61.215c-5.428 0-9.843-4.416-9.843-9.844 0-5.426 4.416-9.842 9.843-9.842s9.843 4.416 9.843 9.843c0 5.43-4.416 9.845-9.843 9.845zm0-16.243a6.406 6.406 0 0 0-6.4 6.4 6.406 6.406 0 0 0 6.4 6.398 6.406 6.406 0 0 0 6.4-6.4 6.406 6.406 0 0 0-6.4-6.398z"/>
    <path fill="url(#b)" d="m51.316 45.425.856.856 32.39-32.39-.855-.855-32.39 32.39z"/>
    <path fill="url(#c)"
          d="M51.92 43.362c.49-.49 2.804 1.823 2.313 2.313l-8.58 6.746c-.317.25-.728-.16-.478-.478l6.745-8.58z"/>
    <path fill="#FA8825"
          d="m84.544 13.91 4.357.432-5.98 5.983a9.25 9.25 0 0 1-7.455 2.663l9.08-9.08zm-.858-.856-.434-4.358-5.98 5.983a9.246 9.246 0 0 0-2.664 7.453l9.078-9.08z"/>
    <path d="M23.887 7.022a.31.31 0 0 1-.44 0 12.108 12.108 0 0 0-.744-.683.31.31 0 0 1-.042-.436l.005-.004a.312.312 0 0 1 .44-.038c.27.228.534.47.783.72a.312.312 0 0 1 .02.416l-.02.024zm-2.51-1.652a11.93 11.93 0 0 0-.874-.503.313.313 0 0 1-.058-.516.31.31 0 0 1 .345-.037c.312.162.622.34.92.528a.312.312 0 0 1-.332.53zm-2.38-1.155a11.54 11.54 0 0 0-.964-.294.312.312 0 1 1 .156-.603c.34.088.683.193 1.016.31a.31.31 0 0 1 .138.49.31.31 0 0 1-.346.098zm-2.577-.593a12.063 12.063 0 0 0-1.007-.07.312.312 0 0 1 .017-.625c.353.01.71.036 1.06.075a.31.31 0 1 1-.07.62zm-2.646-.004a12.2 12.2 0 0 0-.998.154.312.312 0 0 1-.12-.612c.346-.07.7-.123 1.05-.162a.312.312 0 0 1 .068.62zm-2.58.582c-.318.11-.634.234-.94.37A.312.312 0 0 1 10 4c.323-.143.655-.274.99-.39a.312.312 0 1 1 .203.59zm-7.95 8.413a.31.31 0 0 1-.233-.26.312.312 0 0 1 .008-.12c.09-.342.194-.684.312-1.017a.31.31 0 1 1 .587.208c-.112.317-.212.64-.296.965a.312.312 0 0 1-.38.223h.003zm5.563-7.275c-.284.176-.564.37-.833.57a.312.312 0 0 1-.375-.5c.282-.21.577-.412.876-.6a.312.312 0 0 1 .33.53zm-4.654 4.714a.312.312 0 0 1-.133-.42 12.7 12.7 0 0 1 .53-.92.312.312 0 1 1 .526.333c-.18.284-.35.578-.504.875a.312.312 0 0 1-.42.132zm2.58-3.07c-.236.235-.467.486-.683.74a.312.312 0 1 1-.476-.402c.228-.27.47-.532.72-.78a.312.312 0 1 1 .44.44zm-3.527 7.683a.31.31 0 0 0 .07-.172c.01-.16.026-.324.044-.484a.31.31 0 1 0-.62-.072c-.02.17-.036.34-.047.508a.312.312 0 0 0 .553.22z"
          fill="#FFB16D" opacity=".3"/>
    <path d="M6.262 23.663a.312.312 0 0 0-.01-.404 13.94 13.94 0 0 1-.317-.37.312.312 0 1 0-.48.398c.107.13.22.262.333.388a.312.312 0 0 0 .474-.013zm18.07.03a.31.31 0 0 1-.525-.312.31.31 0 0 1 .062-.104c.218-.244.43-.5.63-.768a.31.31 0 0 1 .498.375 13.462 13.462 0 0 1-.665.81zm1.172-2.11a.312.312 0 0 1-.118-.425c.162-.288.314-.586.45-.886a.31.31 0 1 1 .567.26c-.144.314-.303.63-.473.93a.312.312 0 0 1-.426.12zm-2.388 3.294c-.264.225-.542.44-.825.642a.31.31 0 0 1-.5-.177.31.31 0 0 1 .14-.33c.27-.192.532-.397.783-.61a.312.312 0 0 1 .444.434.326.326 0 0 1-.04.04zm3.496-5.728a.312.312 0 0 1-.21-.39c.095-.315.177-.64.245-.96a.31.31 0 1 1 .61.126c-.07.34-.158.68-.257 1.013a.31.31 0 0 1-.388.208zm-5.768 7.256c-.308.16-.626.31-.947.445a.31.31 0 1 1-.24-.574c.304-.128.607-.27.9-.422a.31.31 0 0 1 .287.552zm-2.553.994c-.337.09-.68.166-1.02.228a.312.312 0 0 1-.11-.614c.325-.058.65-.13.97-.216a.312.312 0 0 1 .322.497.308.308 0 0 1-.16.105zm-2.708.412c-.347.015-.7.015-1.046 0a.312.312 0 1 1 .026-.623c.33.013.664.013.994 0a.312.312 0 0 1 .026.622zm-2.735-.187a12.304 12.304 0 0 1-1.02-.23.31.31 0 1 1 .162-.6c.317.085.643.158.97.216a.31.31 0 0 1 .25.364.306.306 0 0 1-.065.14.31.31 0 0 1-.298.113v-.002zm-2.628-.784a11.48 11.48 0 0 1-.945-.45.312.312 0 0 1 .29-.55c.292.154.594.297.898.425a.313.313 0 0 1 .165.41.32.32 0 0 1-.21.182.312.312 0 0 1-.2-.013v-.003zM7.83 25.5a14.282 14.282 0 0 1-.825-.64.312.312 0 0 1 .403-.477 12.246 12.246 0 0 0 .784.61.312.312 0 0 1 .073.436l-.012.014a.31.31 0 0 1-.423.06V25.5zm19.59-9.09a.31.31 0 0 0 .07-.175c.01-.17.02-.34.024-.51a.312.312 0 0 0-.623-.018 12.09 12.09 0 0 1-.022.485.312.312 0 0 0 .553.218z"
          fill="#FFB16D" opacity=".3"/>
    <path fill="#FA8825"
          d="M23.916 12.375a.145.145 0 0 0-.124-.115l-1.76-.225a7.727 7.727 0 0 0-1.407-2.067l.436-1.718a.146.146 0 0 0-.06-.157l-1.78-1.167a.145.145 0 0 0-.168.007L17.65 8.018a7.73 7.73 0 0 0-2.458-.466l-.908-1.524a.146.146 0 0 0-.155-.068l-2.083.433a.146.146 0 0 0-.115.124l-.225 1.76a7.716 7.716 0 0 0-2.07 1.407L7.92 9.248a.146.146 0 0 0-.158.062l-1.166 1.78a.145.145 0 0 0 .007.168l1.085 1.4a7.73 7.73 0 0 0-.466 2.46l-1.522.907a.145.145 0 0 0-.068.155l.432 2.083a.146.146 0 0 0 .124.115l1.76.225c.352.76.828 1.46 1.407 2.07l-.436 1.715a.146.146 0 0 0 .06.158l1.78 1.166a.147.147 0 0 0 .17-.007l1.4-1.084c.79.29 1.62.446 2.46.467l.906 1.523a.146.146 0 0 0 .154.068l2.083-.433a.145.145 0 0 0 .115-.124l.225-1.758a7.725 7.725 0 0 0 2.07-1.408l1.717.436a.146.146 0 0 0 .158-.06l1.166-1.78a.147.147 0 0 0-.007-.17l-1.084-1.4c.288-.79.445-1.62.466-2.46l1.522-.906a.146.146 0 0 0 .067-.155l-.434-2.085z"/>
    <path fill="#FFB16D"
          d="M16.438 16.894a2.137 2.137 0 1 1-2.89-3.15 2.137 2.137 0 0 1 2.89 3.15zm-3.084-1.644a1.64 1.64 0 1 0 3.274.138 1.64 1.64 0 0 0-3.274-.138z"/>
    <path fill="#FFB16D"
          d="M19.024 18.644a5.554 5.554 0 0 0 .41-.58 5.3 5.3 0 0 0 .38-.75c0-.005.003-.008.005-.01l.01-.03c.01-.02.017-.04.024-.06a.126.126 0 0 0-.037-.143.126.126 0 0 0-.17.012.122.122 0 0 0-.025.042 5.014 5.014 0 0 1-7.837 2.086 5.008 5.008 0 0 1-1.026-6.63 5.013 5.013 0 0 1 8.695.562.124.124 0 0 0 .167.058.127.127 0 0 0 .063-.07.124.124 0 0 0-.005-.096 5.257 5.257 0 1 0-7.617 6.688 5.26 5.26 0 0 0 6.96-1.078z"/>
    <path d="M36.992 3.908a.193.193 0 0 0 .01-.23 7.89 7.89 0 0 0-.293-.397.192.192 0 0 0-.304.238c.096.123.187.25.278.38a.193.193 0 0 0 .308.01zm-.965-1.122a.19.19 0 0 1-.272 0 8.704 8.704 0 0 0-.6-.54c-.044-.037-.088-.07-.133-.105a.192.192 0 0 1-.035-.27.2.2 0 0 1 .27-.033l.14.11c.22.178.43.367.63.566a.193.193 0 0 1 .014.257l-.013.016zM34.214 1.59a7.963 7.963 0 0 0-.87-.45.193.193 0 0 1 .156-.352c.313.138.617.295.91.47a.193.193 0 0 1-.196.332zM32.427.802a7.872 7.872 0 0 0-.952-.22.193.193 0 0 1 .064-.38c.336.057.67.134.998.232a.193.193 0 1 1-.11.37V.8zM30.503.478a7.938 7.938 0 0 0-.977.018.192.192 0 1 1-.032-.383 8.35 8.35 0 0 1 1.025-.02.193.193 0 1 1-.017.385zm-1.946.157c-.32.065-.634.15-.943.255a.192.192 0 0 1-.236-.268.192.192 0 0 1 .113-.097 8.44 8.44 0 0 1 .99-.267.193.193 0 1 1 .077.377zm-1.848.623c-.295.14-.58.3-.853.477a.193.193 0 0 1-.21-.324 8.23 8.23 0 0 1 .895-.5.192.192 0 1 1 .167.348zm-1.64 1.056c-.25.21-.488.434-.71.672a.193.193 0 0 1-.282-.262c.233-.25.482-.486.744-.706a.193.193 0 1 1 .247.296zM22.95 4.64a.192.192 0 0 1-.074-.262 8.42 8.42 0 0 1 .55-.864.19.19 0 0 1 .32.013.194.194 0 0 1-.007.214c-.027.035-.05.07-.076.105a7.983 7.983 0 0 0-.45.72.193.193 0 0 1-.262.075z"
          fill="#FFB16D" opacity=".3"/>
    <path d="M36.54 13.728a8.345 8.345 0 0 1-.69.735.19.19 0 0 1-.218.045.193.193 0 0 1-.045-.325 7.97 7.97 0 0 0 .658-.7.193.193 0 0 1 .297.244h-.003zm.33-.753a.193.193 0 0 1-.056-.266 8.06 8.06 0 0 0 .473-.84.193.193 0 0 1 .346.17 8.39 8.39 0 0 1-.496.878.192.192 0 0 1-.266.057zm-1.796 2.135a8.34 8.34 0 0 1-.848.546.193.193 0 0 1-.29-.144.193.193 0 0 1 .103-.192c.28-.158.548-.332.806-.523a.192.192 0 1 1 .228.31v.003zm2.7-3.883a.192.192 0 0 1-.12-.244c.105-.303.19-.613.258-.927a.192.192 0 0 1 .375.08c-.07.33-.16.654-.27.972a.196.196 0 0 1-.032.06.193.193 0 0 1-.21.058zm-4.455 4.865a8.44 8.44 0 0 1-.956.326.193.193 0 0 1-.102-.372c.31-.085.613-.188.91-.31a.193.193 0 0 1 .146.356zm-1.94.534c-.333.05-.668.08-1.004.088a.193.193 0 0 1-.01-.384c.32-.01.64-.037.958-.084a.193.193 0 0 1 .22.162.193.193 0 0 1-.163.218zm-2.013.055a8.325 8.325 0 0 1-.997-.154.192.192 0 0 1-.127-.303.19.19 0 0 1 .21-.072c.313.07.63.12.95.15a.192.192 0 0 1-.038.384l.002-.003zm9.03-7.448a.19.19 0 0 0 .042-.104c.013-.164.023-.33.027-.492a.193.193 0 1 0-.385-.01 7.94 7.94 0 0 1-.026.47.192.192 0 0 0 .34.136z"
          fill="#FFB16D" opacity=".3"/>
    <path fill="#FA8825"
          d="M36.072 6.397a.097.097 0 0 0-.083-.077l-1.178-.15a5.17 5.17 0 0 0-.942-1.384l.292-1.148a.097.097 0 0 0-.04-.106L32.93 2.75a.097.097 0 0 0-.113.005l-.937.725a5.176 5.176 0 0 0-1.645-.312l-.61-1.02a.097.097 0 0 0-.103-.045l-1.393.29a.097.097 0 0 0-.076.083l-.15 1.177a5.17 5.17 0 0 0-1.384.942l-1.15-.29a.097.097 0 0 0-.105.04l-.78 1.19a.098.098 0 0 0 .004.112l.725.938A5.167 5.167 0 0 0 24.9 8.23l-1.02.608a.097.097 0 0 0-.046.104l.29 1.393a.098.098 0 0 0 .083.075l1.177.15c.237.51.555.977.942 1.385l-.29 1.15a.097.097 0 0 0 .04.104l1.19.78a.1.1 0 0 0 .112-.004l.938-.726a5.166 5.166 0 0 0 1.645.312l.608 1.02a.098.098 0 0 0 .106.047l1.394-.29a.097.097 0 0 0 .077-.084l.15-1.177a5.17 5.17 0 0 0 1.384-.943l1.15.29a.097.097 0 0 0 .104-.04l.78-1.19a.097.097 0 0 0-.004-.112l-.726-.938a5.175 5.175 0 0 0 .312-1.645l1.02-.607a.098.098 0 0 0 .045-.103l-.29-1.395z"/>
    <path fill="#FFB16D"
          d="M31.087 9.438a1.45 1.45 0 1 1-1.96-2.14 1.45 1.45 0 0 1 1.96 2.14zm-1.774-.347a1.072 1.072 0 1 0 1.58-1.45 1.072 1.072 0 0 0-1.58 1.45z"/>
    <path fill="#FFB16D"
          d="M32.885 10.656a3.665 3.665 0 0 0 .558-.954l.012-.03a.194.194 0 0 0-.11-.25.193.193 0 0 0-.25.11 3.234 3.234 0 0 1-.336.647 3.212 3.212 0 0 1-2 1.357h-.01l-.02.005a3.22 3.22 0 0 1-2.708-.66 3.242 3.242 0 1 1 4.09-5.03 3.2 3.2 0 0 1 .875 1.102.193.193 0 0 0 .347-.168 3.627 3.627 0 1 0-5.255 4.617 3.632 3.632 0 0 0 4.805-.747z"/>
    <path fill="url(#d)"
          d="M13.5 101.596s-.217 1.163-.33 2.314a.796.796 0 0 0 .75.868c1.536.078 4.818.234 5.997.193a.266.266 0 0 0 .117-.032.262.262 0 0 0 .114-.32.584.584 0 0 0-.293-.314l-5.4-2.544-.955-.164z"/>
    <path fill="url(#e)" d="m13.336 100.91.152 1.395s.946.45 1.6-.04l-.38-1.556-1.372.2z"/>
    <path fill="url(#f)"
          d="M13.713 74.727c-.075.363-.556 18.147 1.27 26.138a.27.27 0 0 1-.163.313 4.704 4.704 0 0 1-1.55.3.47.47 0 0 1-.46-.338c-.525-1.854-3.04-11.145-3.297-20-.286-9.894.003-.337.003-.337l.28-6.112 3.917.037z"/>
    <path fill="url(#g)"
          d="M7.254 102.144s-.333.585-.665 2.144a.482.482 0 0 0 .42.584A19.75 19.75 0 0 0 8.92 105a.48.48 0 0 0 .463-.334.48.48 0 0 0 .02-.2c-.063-.57-.27-1.51-.93-2.244l-1.22-.078z"/>
    <path fill="url(#h)" d="m6.984 100.35.366 2.11s.38.288 1.137.09l-.16-2.27-1.343.07z"/>
    <path fill="url(#i)"
          d="M6.18 75.2c-1.645 9.37.116 23.2.728 25.908a.418.418 0 0 0 .338.323c.284.05.753.094 1.217-.037a.384.384 0 0 0 .28-.352c.107-2.184.08-15.6 1.58-20.887.076-.268.243-.5.47-.66l2.833-1.972.246-3.23-7.692.91z"/>
    <path fill="url(#j)"
          d="M16.26 57.514c-4.66-.12-9.815 1.13-9.815 1.13-1.466 8.092-.407 17.45-.407 17.45 3.6.98 7.682-.504 7.682-.504.63-3.382 3.52-12.89 3.52-12.89 2.28-.262 4.16-.9 5.713-1.753-1.165-1.377-1.704-3.12-1.935-4.15-1.652.497-3.322.755-4.76.717z"/>
    <path fill="url(#k)"
          d="M30.09 50.782c-.452-.558-1.034-.3-1.034-.3-.712 2.89-4.332 5.204-8.037 6.317.23 1.03.77 2.772 1.935 4.15 6.163-3.39 7.135-10.168 7.135-10.168z"/>
    <path fill="url(#l)"
          d="M29.978 50.92c.046.154-.51.38-.83-.245-.01-.3-.18-1.58 0-1.82.963-1.287 2.82-2.893 2.82-2.893.31.31.05.61.05.61l-.903.922c.184.337.41.627.512 1.036.076.313.028.642-.133.92-.16.28-.375.646-.582.932-.388.54-.934.54-.934.54z"/>
    <path fill="url(#m)" d="m30.716 48.094-.82.682-.263.685.718.813s.258-1.36.442-1.654c.184-.295.092-.44-.076-.526z"/>
    <path fill="url(#n)"
          d="m8.19 63.173-1.745-4.53s-4.383 2.917-5.133 6.66c.823.068 2.317.297 3.775 1.05.34-1.767 3.102-3.18 3.102-3.18z"/>
    <path fill="url(#o)"
          d="M11.952 67.456s-4.913 2.715-6.54.34c-.338-.492-.415-.98-.326-1.443-1.458-.753-2.952-.98-3.774-1.05a5.185 5.185 0 0 0 .528 3.553c2.838 5.312 10.747-.19 10.747-.19l-.635-1.21z"/>
    <path fill="url(#p)"
          d="m11.576 53.686-1.524 4.275a.154.154 0 0 0 .07.19c.4.226 1.85.886 3.616-.21a.727.727 0 0 0 .34-.517l.516-3.706-3.018-.03z"/>
    <path fill="url(#q)" d="M14.84 49.746s1.598 3.08 1.377 4.316c-.22 1.236-2.237 1.128-3.99.106l-1.2-3.32 3.812-1.1z"/>
    <path fill="url(#r)"
          d="M12.32 52.544a.127.127 0 0 0 .058-.185c-.13-.2-.37-.61-.444-.967 0 0-.29-.19.75-.43 1.04-.237 2.59-.608 2.925-1.49.325-.856-.488-3.03-1.834-1.317a.127.127 0 0 1-.1.05.126.126 0 0 1-.1-.05c-.215-.286-.782-.88-1.58-.53-.75.326-.838.87-.83 1.146a.124.124 0 0 1-.044.1.125.125 0 0 1-.106.027c-.375-.076-1.278-.147-1.71.776-.353.76-.132 1.194.07 1.407a.126.126 0 0 1-.054.208c-.248.076-.57.28-.543.86.036.803.932.74 1.187.707a.128.128 0 0 1 .113.04c.216.245 1.19 1.282 2.256 1.415a.128.128 0 0 0 .136-.166l-.45-1.346a.127.127 0 0 1 .07-.157l.23-.1z"/>
    <path fill="url(#s)" d="M12.506 52.736s-1.152-.806-1.243-.137c-.09.668 1.035.98 1.596.734l-.354-.598z"/>
    <path fill="url(#t)"
          d="m10.952 71.746 2.675-9.346a.272.272 0 0 1 .23-.196c.486-.057 1.89-.216 3.513-.353 1.954-.164 4.223-.3 5.58-.184a.273.273 0 0 1 .225.394c-.77 1.56-3.944 7.906-5.532 9.985a.274.274 0 0 1-.22.108l-6.21-.057a.273.273 0 0 1-.26-.35z"/>
    <path fill="url(#u)"
          d="M11.594 69.488s-.373-1.533-.222-2.077c.15-.543.44-1.243 1.413-1.087.97.156 2.117.563 2.117.563s-.058.708-.796.48l.457.354s-.065.567-.69.262l.427.47s-.268.466-.726.167c-.46-.3-.68 1.053-1.98.868z"/>
    <path fill="#91B3FA" d="M17.19 64.64a.787.787 0 1 0 1.575 0 .787.787 0 0 0-1.574 0z"/>
    <path fill="#BDD0FB"
          d="m13.927 65.16.545-1.85a.633.633 0 0 1 .476-.444c1.708-.356 6.383-.432 6.43-.432l-.003-.21c-.193.004-4.742.076-6.47.438a.843.843 0 0 0-.634.59l-.543 1.848.2.06z"/>
    <path fill="url(#v)"
          d="M83.488 51.258a.177.177 0 0 1 .327.035c.16.572.543 1.57 1.35 1.923l.116.054a.41.41 0 0 0-.05-.37c-.25-.384.203-.907.203-.907s.03.46.38.75c.3.25.446.806.24 1.262-.436 1.695-1.09 3.936 1.455 5.573 2.545 1.638 6.13-3.09 6.13-3.09l-1.78 5.64s-2.746 2.025-5.94-.823-1.076-6.995-1.076-6.995-2.436-.982-1.354-3.052z"/>
    <path fill="url(#w)"
          d="M94.083 48.204s-.738-3.307 3.05-2.432c0 0 1.838-.3 1.933 1.435 0 0 1.185.78.318 2.283 0 0 3.522-1.36 5.057 1.725 1.536 3.086.125 4.787-1.354 5.23 0 0 1.2.6.63 1.96-.568 1.36-3.438 2.316-5.136.664 0 0-4.83.636-4.732-2.774 0 0-2.245-1.45.113-4.268 2.36-2.818.123-3.824.123-3.824z"/>
    <path fill="url(#x)"
          d="M93.876 55.87c.76-.23 2.977-.65 5.085 1.295a1.306 1.306 0 0 1 .377 1.302c-.567 2.084-2.06 8.243-.75 10.908 0 0-2.31 2.545-4.828.494 0 0-1.13-4.926-2.61-7.09-1.022-1.492 1.63-5.604 2.3-6.6a.788.788 0 0 1 .426-.31z"/>
    <path fill="url(#y)"
          d="M95.975 51.727s1.125 3.185 1.21 4.59c0 0-1.244.566-2.416-.39 0 0-.124-3.18-.3-3.75l1.505-.45z"/>
    <path fill="url(#z)"
          d="M94.413 47.386s-2.944 4.12-1.184 5.317 3.855-1.73 3.855-1.73.684-2.257-.03-3.02c-.716-.767-2.64-.567-2.64-.567z"/>
    <path fill="url(#A)"
          d="M95.777 46.4s-1.353.32-1.542.933c-.19.612 1.918 1.18 2.51 1.208l.475 2.47s1.406-2.324.85-3.665c-.558-1.34-2.293-.944-2.293-.944z"/>
    <path fill="url(#B)" d="M96.516 50.67s1.146-1.328 1.602-.463c.455.865-1.032 1.515-1.547 1.09l-.054-.628z"/>
    <path fill="url(#C)"
          d="M90.82 80.21c.008.224-.385 1.996-.598 2.942-.086.38-.026.78.168 1.117l7.398 12.452c.09.15.155.314.194.484.136.584.417 2.017.27 3.32l-.382.794 1.655-.375.36-4.445-.468-.286a2.226 2.226 0 0 1-.9-1.054c-.67-1.625-2.33-5.762-2.76-7.778-.486-2.29-3.03-4.152-3.03-4.152l.447-1.056-2.355-1.965z"/>
    <path fill="url(#D)"
          d="M101.364 99.415s-.894-1.417-1-1.97c-.105-.55-.397-1.525-.95-1.23 0 0-.258 2.68-.17 3.725.09 1.047-1.182 1.013-1.182 1.013a1.19 1.19 0 0 0-.608.306c-.177.177-.05.484.2.5a7.17 7.17 0 0 0 1.773-.1.546.546 0 0 0 .438-.5l.183-3.085 1.128 1.425.188-.085z"/>
    <path fill="url(#E)"
          d="M95.24 82.192s.26 11.138.295 12.72c.034 1.584-.25 5.088-1.836 6.137l.69.51s.862-.734 1.704-2.144c.947-1.585 1.233-1.875 1.233-1.875l-.315-.64a1.416 1.416 0 0 1-.114-.907c.342-1.658 1.485-7.175 1.797-8.362.368-1.402.395-3.275-.886-4.842-1.28-1.568-2.57-.596-2.57-.596z"/>
    <path fill="url(#F)"
          d="M96.705 102.06a.098.098 0 0 0 .098-.082c.053-.37.273-1.86.453-2.246.206-.44.88-2.3 0-2.457 0 0-2.186 3.193-2.605 3.623-.42.43-.948.15-.948.15a1.58 1.58 0 0 0-.717.515.293.293 0 0 0-.03.303.292.292 0 0 0 .258.162l1.472.014a1.04 1.04 0 0 0 .97-.653c.26-.648.705-1.597 1.224-2.018l-.27 2.58a.1.1 0 0 0 .024.076c.01.01.02.018.032.024a.09.09 0 0 0 .04.01z"/>
    <path fill="url(#G)"
          d="M93.414 68.668s.332 1.057-.177 2.798l-3.16 11.04a.34.34 0 0 0 .213.415c.945.34 4.053 1.3 8.296 1.007a.482.482 0 0 0 .44-.375l1.43-6.435c.75-3.36 1.583-6.986-2.093-9.178-1.696.723-3.276 1.152-4.95.728z"/>
    <path fill="url(#H)"
          d="M99.263 57.58s3.597 2.99 4.49 7.074c.892 4.085-5.256 4.52-5.256 4.52s-.834-.933-1.825-.6c-.99.33-.075-1.628 1.082-1.623 1.158.006.623.923 2.263.18 1.597-.723 2.585-2.962-1.492-6.354a1.846 1.846 0 0 1-.538-.733c-.792-1.993-.164-3.3 1.276-2.462z"/>
    <path fill="#7D97F4" d="M76.755 88.097h-1.282v13.873h1.282V88.097z"/>
    <path fill="#7D97F4"
          d="M81.732 102.237H70.496v-.742c0-.024.01-.048.027-.065a.09.09 0 0 1 .066-.028h11.05c.024 0 .048.01.065.028a.092.092 0 0 1 .027.065v.742zm.66-17.444H70.31c-.81 0-1.466.657-1.466 1.467v1.325c0 .81.656 1.467 1.466 1.467h12.08c.81 0 1.468-.657 1.468-1.467V86.26c0-.81-.657-1.467-1.467-1.467z"/>
    <path fill="url(#I)"
          d="M64.744 97.757s-4.148 1.786-3.91 3.656c0 0 4.287-.822 5.054-2.048.768-1.225.345-1.935.345-1.935l-1.49.327z"/>
    <path fill="url(#J)"
          d="m65.76 95.715.21 1.82a.6.6 0 0 1-.38.638 1.57 1.57 0 0 1-.525.08.7.7 0 0 1-.68-.51l-.408-1.47 1.783-.558z"/>
    <path fill="url(#K)"
          d="M74.82 81.757s-7.628-.353-11.424 1.86c-3.795 2.215.193 12.84.193 12.84s.99.212 2.42-.55c0 0-2.04-7.78 1.5-9.13 3.977-1.523 8.093-1.153 8.093-1.153l-.763-3.626-.02-.24z"/>
    <path fill="url(#L)"
          d="M61.67 100.592c.866-.19 3.44-1.255 3.83-1.24.39.013.943.6.943.6s.095.32-.184.778c-.664.517-2.09 1.466-3.75 1.57-1.222.075-1.957-.41-2.377-.88a3.41 3.41 0 0 1 1.536-.828z"/>
    <path fill="url(#M)"
          d="M62.51 102.3c1.66-.104 3.086-1.052 3.75-1.57-.19.31-.55.685-1.226 1.067-1.677.948-4.45.81-5 .596-.44-.17-.304-.582.1-.975.42.472 1.154.957 2.375.882z"/>
    <path fill="url(#N)"
          d="M67.352 98.998c-.057.215-.664.86-1.015 1.22a.695.695 0 0 1-.643.193 1.786 1.786 0 0 1-.46-.16.452.452 0 0 1-.174-.61l.888-1.616 1.404.974z"/>
    <path fill="url(#O)"
          d="M82.38 81.118s.666 4.725-1.26 5.69c-1.924.963-6.147 1.596-7.6 4.046-1.456 2.45-4.068 7.26-6.445 8.64 0 0-1.358-.44-1.755-1.11 0 0 2.822-7.416 4-9.22 1.02-1.56 2.51-3.81 4.627-4.782.606-.28.654-.922.547-1.58l-.194-1.2 8.08-.484z"/>
    <path fill="url(#P)"
          d="M64.537 75.763c2.7.77 3.907-6.825 3.896-7.01l4.14 4.837s-2.467 4.34-6.19 4.8a4.392 4.392 0 0 1-2.414-.354c.42-.68.617-1.475.567-2.273z"/>
    <path fill="url(#Q)"
          d="M59.536 73.275c1.176-.483 2.175.482 2.175.482 1.167 1.193 2.09 1.795 2.825 2.004.05.8-.15 1.595-.57 2.276-1.454-.666-2.302-2.013-2.65-2.685a.504.504 0 0 0-.667-.224c-.25.12-.507.305-.523.554-.03.493-.618.522-.62.34-.004-.182.453-1.155.453-1.155s-1.35.867-1.877 1.2c-.527.333-.975-.215-.975-.215s1.255-2.09 2.43-2.575z"/>
    <path fill="url(#R)"
          d="M81.34 65.626s-3.628-2.476-12.388 2c0 0-.903 1.144-.48 2.433.423 1.288 5.625 8.265 5.826 11.54 0 0 3.555 2.094 8.17.02.002 0 1.55-8.65-1.13-15.994z"/>
    <path fill="url(#S)"
          d="m73.786 62.463 1.434 2.81a.8.8 0 0 1-.083.86c-.395.495-1.22 1.16-2.625.73a1.23 1.23 0 0 1-.84-.892l-.742-3.134 2.856-.373z"/>
    <path fill="url(#T)"
          d="M84.024 75.434c.245-1.707-4.266-5.016-4.266-5.016l1.58-4.793s8.608 6.144 6.797 11.16c-.26.72-.646 1.244-1.118 1.616-.91-1.867-2.147-2.645-2.993-2.966z"/>
    <path fill="url(#U)"
          d="M77.732 75.908s5.104 1.425 6.163-.128a.81.81 0 0 0 .132-.345c.846.32 2.082 1.098 2.994 2.968-2.423 1.906-7.095-.23-8.364-.872a.9.9 0 0 0-.672-.055c-.45.14-1.234.36-1.67.337-.637-.035-1.322 2.27-2.408 1.688 0-.003.494-3.94 3.826-3.592z"/>
    <path fill="url(#V)"
          d="M71.95 57.873c-.044.037-1.935 3.342-2.898 5.025a.99.99 0 0 0 .47 1.4l.418.18c.57.244 1.794.45 2.277.06l3.037-3.21s-2.28-4.34-3.303-3.455z"/>
    <path fill="url(#W)"
          d="M76.11 60.453c.374-.21.822-.633.472-1.383-.354-.762-1.055-.83-1.507-.78a.377.377 0 0 1-.4-.272c-.03-.1-.104-.188-.263-.214a.37.37 0 0 1-.293-.465c.107-.407.09-.957-.564-1.35-1.157-.7-2.238.316-2.54 1.2-.3.882.997 1.57 1.826 1.712.63.106.937.833 1.05 1.175a.375.375 0 0 1-.045.322l-.924 1.403c.254.32.48.657.7 1a3.71 3.71 0 0 1 .214-.217c.4-.368 1.115-.178 1.41-.075a.37.37 0 0 0 .29-.02c.32-.166.967-.63.437-1.51a.378.378 0 0 1 .137-.527z"/>
    <path fill="url(#X)"
          d="M73.285 63.403s.59-1.518 1.263-1.434c.67.084 1.174.778.307 1.5-1.078.893-1.57-.067-1.57-.067z"/>
    <path fill="url(#Y)"
          d="M71.214 79.158h-.027l-11.925-.013a.534.534 0 0 1 0-1.067l11.923.013a.534.534 0 0 1 .026 1.068h.004z"/>
    <path fill="url(#Z)"
          d="M48.547 68.332h9.93a1.893 1.893 0 0 1 1.712 1.086l4.59 9.734H52.44a1.15 1.15 0 0 1-1.07-.728l-3.56-9.007a.794.794 0 0 1 .737-1.085z"/>
    <path fill="#91B3FA"
          d="M55.542 73.323c.216.67.057 1.318-.355 1.45-.41.133-.92-.302-1.134-.97-.215-.67-.056-1.318.355-1.45.41-.133.92.302 1.134.97zm-5.386 31.408a.515.515 0 0 1-.357-.144.48.48 0 0 1-.104-.533l10.51-23.65a.507.507 0 0 1 .923.01.48.48 0 0 1-.005.375l-10.508 23.65a.502.502 0 0 1-.46.293z"/>
    <path fill="#91B3FA"
          d="M61.993 104.73a.51.51 0 0 1-.46-.293l-10.508-23.65a.48.48 0 0 1 .262-.637.508.508 0 0 1 .66.254l10.507 23.65a.48.48 0 0 1-.263.637.518.518 0 0 1-.197.04zm20.69 0a.515.515 0 0 1-.357-.144.48.48 0 0 1-.102-.533l10.508-23.65a.507.507 0 0 1 .924.01.48.48 0 0 1-.004.374l-10.508 23.65a.502.502 0 0 1-.46.294z"/>
    <path fill="#91B3FA"
          d="M94.52 104.73a.51.51 0 0 1-.46-.293l-10.508-23.65a.48.48 0 0 1 .262-.637.508.508 0 0 1 .66.254l10.507 23.65a.483.483 0 0 1-.102.532.534.534 0 0 1-.357.145z"/>
    <path fill="#91B3FA"
          d="M95.75 79.674a.578.578 0 0 0-.1-.437.456.456 0 0 0-.363-.193H47.483a.534.534 0 0 0-.46.282.672.672 0 0 0-.036.583l.518 1.254c.12.288.375.472.66.472h46.794c.26 0 .486-.21.538-.498l.253-1.464z"/>
    <defs>
        <linearGradient id="a" x1="52.287" x2="47.977" y1="-3.966" y2="30.002" gradientUnits="userSpaceOnUse">
            <stop stop-color="#FF928E"/>
            <stop offset="1" stop-color="#FE7062"/>
        </linearGradient>
        <linearGradient id="b" x1="36.118" x2="70.761" y1="48.904" y2="27.948" gradientUnits="userSpaceOnUse">
            <stop stop-color="#09005D"/>
            <stop offset="1" stop-color="#1A0F91"/>
        </linearGradient>
        <linearGradient id="c" x1="47.796" x2="72.318" y1="48.898" y2="28.558" gradientUnits="userSpaceOnUse">
            <stop stop-color="#09005D"/>
            <stop offset="1" stop-color="#1A0F91"/>
        </linearGradient>
        <linearGradient id="d" x1="19.775" x2="-.287" y1="100.002" y2="121.416" gradientUnits="userSpaceOnUse">
            <stop stop-color="#09005D"/>
            <stop offset="1" stop-color="#1A0F91"/>
        </linearGradient>
        <linearGradient id="e" x1="13.313" x2="15.077" y1="101.546" y2="101.562" gradientUnits="userSpaceOnUse">
            <stop stop-color="#FEBBBA"/>
            <stop offset="1" stop-color="#FF928E"/>
        </linearGradient>
        <linearGradient id="f" x1="21.573" x2="4.457" y1="75.587" y2="98.332" gradientUnits="userSpaceOnUse">
            <stop stop-color="#09005D"/>
            <stop offset="1" stop-color="#1A0F91"/>
        </linearGradient>
        <linearGradient id="g" x1="15.358" x2="-4.705" y1="95.864" y2="117.278" gradientUnits="userSpaceOnUse">
            <stop stop-color="#09005D"/>
            <stop offset="1" stop-color="#1A0F91"/>
        </linearGradient>
        <linearGradient id="h" x1="6.958" x2="8.481" y1="101.395" y2="101.409" gradientUnits="userSpaceOnUse">
            <stop stop-color="#FEBBBA"/>
            <stop offset="1" stop-color="#FF928E"/>
        </linearGradient>
        <linearGradient id="i" x1="18.579" x2="1.464" y1="73.336" y2="96.082" gradientUnits="userSpaceOnUse">
            <stop stop-color="#09005D"/>
            <stop offset="1" stop-color="#1A0F91"/>
        </linearGradient>
        <linearGradient id="j" x1="-518.981" x2="-500.983" y1="-327.31" y2="-314.001" gradientUnits="userSpaceOnUse">
            <stop stop-color="#FF928E"/>
            <stop offset="1" stop-color="#FE7062"/>
        </linearGradient>
        <linearGradient id="k" x1="21.011" x2="30.023" y1="55.593" y2="55.678" gradientUnits="userSpaceOnUse">
            <stop stop-color="#FEBBBA"/>
            <stop offset="1" stop-color="#FF928E"/>
        </linearGradient>
        <linearGradient id="l" x1="28.024" x2="21.839" y1="54.285" y2="67.984" gradientUnits="userSpaceOnUse">
            <stop stop-color="#FEBBBA"/>
            <stop offset="1" stop-color="#FF928E"/>
        </linearGradient>
        <linearGradient id="m" x1="30.034" x2="32.594" y1="49.584" y2="45.728" gradientUnits="userSpaceOnUse">
            <stop stop-color="#FEBBBA"/>
            <stop offset="1" stop-color="#FF928E"/>
        </linearGradient>
        <linearGradient id="n" x1="-520.254" x2="-502.256" y1="-325.59" y2="-312.281" gradientUnits="userSpaceOnUse">
            <stop stop-color="#FF928E"/>
            <stop offset="1" stop-color="#FE7062"/>
        </linearGradient>
        <linearGradient id="o" x1="1.167" x2="12.572" y1="68.172" y2="68.279" gradientUnits="userSpaceOnUse">
            <stop stop-color="#FEBBBA"/>
            <stop offset="1" stop-color="#FF928E"/>
        </linearGradient>
        <linearGradient id="p" x1="9.572" x2="13.882" y1="61.915" y2="53.55" gradientUnits="userSpaceOnUse">
            <stop stop-color="#FEBBBA"/>
            <stop offset="1" stop-color="#FF928E"/>
        </linearGradient>
        <linearGradient id="q" x1="15.599" x2="10.666" y1="52.394" y2="49.337" gradientUnits="userSpaceOnUse">
            <stop stop-color="#FEBBBA"/>
            <stop offset="1" stop-color="#FF928E"/>
        </linearGradient>
        <linearGradient id="r" x1="8.067" x2="14.431" y1="46.134" y2="51.234" gradientUnits="userSpaceOnUse">
            <stop stop-color="#09005D"/>
            <stop offset="1" stop-color="#1A0F91"/>
        </linearGradient>
        <linearGradient id="s" x1="14.291" x2="9.853" y1="53.511" y2="50.761" gradientUnits="userSpaceOnUse">
            <stop stop-color="#FEBBBA"/>
            <stop offset="1" stop-color="#FF928E"/>
        </linearGradient>
        <linearGradient id="t" x1="15.652" x2="21.945" y1="60.966" y2="87.189" gradientUnits="userSpaceOnUse">
            <stop stop-color="#09005D"/>
            <stop offset="1" stop-color="#1A0F91"/>
        </linearGradient>
        <linearGradient id="u" x1="11.336" x2="14.902" y1="67.904" y2="67.904" gradientUnits="userSpaceOnUse">
            <stop stop-color="#FEBBBA"/>
            <stop offset="1" stop-color="#FF928E"/>
        </linearGradient>
        <linearGradient id="v" x1="83.031" x2="92.639" y1="48.066" y2="63.315" gradientUnits="userSpaceOnUse">
            <stop stop-color="#FEBBBA"/>
            <stop offset="1" stop-color="#FF928E"/>
        </linearGradient>
        <linearGradient id="w" x1="108.967" x2="99.305" y1="45.892" y2="52.336" gradientUnits="userSpaceOnUse">
            <stop stop-color="#09005D"/>
            <stop offset="1" stop-color="#1A0F91"/>
        </linearGradient>
        <linearGradient id="x" x1="106.253" x2="99.282" y1="46.959" y2="57.733" gradientUnits="userSpaceOnUse">
            <stop stop-color="#FF928E"/>
            <stop offset="1" stop-color="#FE7062"/>
        </linearGradient>
        <linearGradient id="y" x1="94.191" x2="95.985" y1="57.911" y2="53.927" gradientUnits="userSpaceOnUse">
            <stop stop-color="#FEBBBA"/>
            <stop offset="1" stop-color="#FF928E"/>
        </linearGradient>
        <linearGradient id="z" x1="94.1" x2="97.741" y1="48.23" y2="56.111" gradientUnits="userSpaceOnUse">
            <stop stop-color="#FEBBBA"/>
            <stop offset="1" stop-color="#FF928E"/>
        </linearGradient>
        <linearGradient id="A" x1="106.372" x2="96.709" y1="41.998" y2="48.441" gradientUnits="userSpaceOnUse">
            <stop stop-color="#09005D"/>
            <stop offset="1" stop-color="#1A0F91"/>
        </linearGradient>
        <linearGradient id="B" x1="95.814" x2="99.455" y1="47.44" y2="55.32" gradientUnits="userSpaceOnUse">
            <stop stop-color="#FEBBBA"/>
            <stop offset="1" stop-color="#FF928E"/>
        </linearGradient>
        <linearGradient id="C" x1="104.198" x2="90.846" y1="107.423" y2="83.294" gradientUnits="userSpaceOnUse">
            <stop stop-color="#FEBBBA"/>
            <stop offset="1" stop-color="#FF928E"/>
        </linearGradient>
        <linearGradient id="D" x1="101.319" x2="97.346" y1="98.91" y2="98.871" gradientUnits="userSpaceOnUse">
            <stop stop-color="#09005D"/>
            <stop offset="1" stop-color="#1A0F91"/>
        </linearGradient>
        <linearGradient id="E" x1="88.972" x2="109.234" y1="89.52" y2="96.223" gradientUnits="userSpaceOnUse">
            <stop stop-color="#FEBBBA"/>
            <stop offset="1" stop-color="#FF928E"/>
        </linearGradient>
        <linearGradient id="F" x1="97.631" x2="92.895" y1="99.591" y2="99.544" gradientUnits="userSpaceOnUse">
            <stop stop-color="#09005D"/>
            <stop offset="1" stop-color="#1A0F91"/>
        </linearGradient>
        <linearGradient id="G" x1="111.795" x2="100.388" y1="64.238" y2="72.983" gradientUnits="userSpaceOnUse">
            <stop stop-color="#09005D"/>
            <stop offset="1" stop-color="#1A0F91"/>
        </linearGradient>
        <linearGradient id="H" x1="103.642" x2="84.415" y1="70.912" y2="42.674" gradientUnits="userSpaceOnUse">
            <stop stop-color="#FEBBBA"/>
            <stop offset="1" stop-color="#FF928E"/>
        </linearGradient>
        <linearGradient id="I" x1="61.885" x2="63.125" y1="94.783" y2="99.646" gradientUnits="userSpaceOnUse">
            <stop stop-color="#09005D"/>
            <stop offset="1" stop-color="#1A0F91"/>
        </linearGradient>
        <linearGradient id="J" x1="65.716" x2="63.506" y1="97.467" y2="96.971" gradientUnits="userSpaceOnUse">
            <stop stop-color="#FEBBBA"/>
            <stop offset="1" stop-color="#FF928E"/>
        </linearGradient>
        <linearGradient id="K" x1="70.089" x2="63.65" y1="92.305" y2="77.028" gradientUnits="userSpaceOnUse">
            <stop stop-color="#09005D"/>
            <stop offset="1" stop-color="#1A0F91"/>
        </linearGradient>
        <linearGradient id="L" x1="62.184" x2="67.619" y1="99.485" y2="111.273" gradientUnits="userSpaceOnUse">
            <stop stop-color="#09005D"/>
            <stop offset="1" stop-color="#1A0F91"/>
        </linearGradient>
        <linearGradient id="M" x1="65.545" x2="59.6" y1="102.528" y2="101.194" gradientUnits="userSpaceOnUse">
            <stop stop-color="#4F52FF"/>
            <stop offset="1" stop-color="#4042E2"/>
        </linearGradient>
        <linearGradient id="N" x1="66.855" x2="64.781" y1="99.867" y2="99.401" gradientUnits="userSpaceOnUse">
            <stop stop-color="#FEBBBA"/>
            <stop offset="1" stop-color="#FF928E"/>
        </linearGradient>
        <linearGradient id="O" x1="72.002" x2="75.437" y1="99.626" y2="81.904" gradientUnits="userSpaceOnUse">
            <stop stop-color="#09005D"/>
            <stop offset="1" stop-color="#1A0F91"/>
        </linearGradient>
        <linearGradient id="P" x1="78.938" x2="58.596" y1="65.167" y2="80.947" gradientUnits="userSpaceOnUse">
            <stop stop-color="#FF928E"/>
            <stop offset="1" stop-color="#FE7062"/>
        </linearGradient>
        <linearGradient id="Q" x1="64.29" x2="57.052" y1="76.35" y2="74.726" gradientUnits="userSpaceOnUse">
            <stop stop-color="#FEBBBA"/>
            <stop offset="1" stop-color="#FF928E"/>
        </linearGradient>
        <linearGradient id="R" x1="55.551" x2="74.942" y1="87.076" y2="75.099" gradientUnits="userSpaceOnUse">
            <stop stop-color="#FF928E"/>
            <stop offset="1" stop-color="#FE7062"/>
        </linearGradient>
        <linearGradient id="S" x1="75.192" x2="70.39" y1="65.385" y2="64.307" gradientUnits="userSpaceOnUse">
            <stop stop-color="#FEBBBA"/>
            <stop offset="1" stop-color="#FF928E"/>
        </linearGradient>
        <linearGradient id="T" x1="56.721" x2="76.112" y1="88.973" y2="76.996" gradientUnits="userSpaceOnUse">
            <stop stop-color="#FF928E"/>
            <stop offset="1" stop-color="#FE7062"/>
        </linearGradient>
        <linearGradient id="U" x1="79.347" x2="98.488" y1="77.538" y2="104.246" gradientUnits="userSpaceOnUse">
            <stop stop-color="#FEBBBA"/>
            <stop offset="1" stop-color="#FF928E"/>
        </linearGradient>
        <linearGradient id="V" x1="72.897" x2="70.427" y1="59.094" y2="70.356" gradientUnits="userSpaceOnUse">
            <stop stop-color="#FEBBBA"/>
            <stop offset="1" stop-color="#FF928E"/>
        </linearGradient>
        <linearGradient id="W" x1="76.201" x2="71.445" y1="62.124" y2="56.563" gradientUnits="userSpaceOnUse">
            <stop stop-color="#09005D"/>
            <stop offset="1" stop-color="#1A0F91"/>
        </linearGradient>
        <linearGradient id="X" x1="73.778" x2="74.415" y1="69.848" y2="62.837" gradientUnits="userSpaceOnUse">
            <stop stop-color="#FEBBBA"/>
            <stop offset="1" stop-color="#FF928E"/>
        </linearGradient>
        <linearGradient id="Y" x1="73.227" x2="63.762" y1="76" y2="79.104" gradientUnits="userSpaceOnUse">
            <stop stop-color="#09005D"/>
            <stop offset="1" stop-color="#1A0F91"/>
        </linearGradient>
        <linearGradient id="Z" x1="60.237" x2="53.42" y1="69.784" y2="76.988" gradientUnits="userSpaceOnUse">
            <stop stop-color="#09005D"/>
            <stop offset="1" stop-color="#1A0F91"/>
        </linearGradient>
    </defs>
</svg>