<svg xmlns="http://www.w3.org/2000/svg" width="105" height="103" fill="none"><g clip-path="url(#a)"><path fill="#F9FFE9" d="M99.38 69.302C89.06 93.425 61.82 103.787 40.47 102.02c-5.827-.482-17.554-1.453-26.71-10.112C-3.824 75.28-1.116 40.52 15.717 20.058 17.886 17.423 32.89-.234 56.27.002 73.39.175 85.407 9.846 86.868 11.05c1.846 1.523 5.917 5.14 9.585 10.877 8.62 13.48 9.38 32.3 2.93 47.374z"/><path fill="#91B3FA" d="M99.557 38.38a.155.155 0 0 1-.002.166c-.114.17-.233.34-.354.506a.15.15 0 0 1-.213.03c-.167-.124.005-.253.312-.713a.15.15 0 0 1 .212-.04.16.16 0 0 1 .045.048zm-1.587 2.148c-.27.284-.555.56-.847.822a.153.153 0 0 1-.217-.015c-.154-.177.044-.187.842-1.025a.15.15 0 0 1 .217 0 .156.156 0 0 1 .006.218zm-2.355 2.007c-.325.224-.665.438-1 .63-.18.104-.328-.17-.155-.27.333-.19.66-.398.98-.617a.156.156 0 0 1 .175.255v.002zm-2.718 1.478c-.362.15-.735.287-1.11.408-.19.063-.29-.232-.098-.294.365-.118.73-.253 1.086-.402.186-.076.307.212.12.29zm-2.852.7a.15.15 0 0 1-.12.18c-.386.072-.78.127-1.173.167-.2.02-.238-.287-.036-.308.384-.04.77-.095 1.15-.165a.158.158 0 0 1 .18.124zm-3.066.27a.152.152 0 0 1-.097.14.15.15 0 0 1-.058.01c-.395-.01-.794-.035-1.187-.076-.202-.02-.177-.328.025-.308.385.04.776.065 1.163.074a.158.158 0 0 1 .154.16zm-3.09-.478a.157.157 0 0 1-.002.17.15.15 0 0 1-.1.063.152.152 0 0 1-.06-.003c-.386-.09-.773-.197-1.15-.318a.16.16 0 0 1-.104-.194.15.15 0 0 1 .13-.108.15.15 0 0 1 .06.007c.37.118.75.222 1.13.312a.158.158 0 0 1 .1.07h-.003zm-2.932-1.012a.155.155 0 0 1-.074.226.15.15 0 0 1-.117-.006c-.36-.167-.72-.35-1.068-.547a.158.158 0 0 1-.064-.21.15.15 0 0 1 .208-.06c.34.19.693.37 1.046.534a.16.16 0 0 1 .07.063h-.002zm-2.685-1.42a.152.152 0 0 1-.16.06.15.15 0 0 1-.053-.027 15.51 15.51 0 0 1-.94-.753c-.156-.136.042-.368.197-.234.296.255.606.505.92.737a.158.158 0 0 1 .038.217h-.002zm-5.8-8.747c.297 1.133.47 1.253.25 1.326a.156.156 0 0 1-.196-.098c-.13-.38-.248-.767-.35-1.155-.05-.2.245-.274.297-.074zm3.47 6.666a.154.154 0 0 1-.17.023.154.154 0 0 1-.048-.036c-.267-.3-.526-.61-.77-.93-.126-.162.115-.35.24-.186.24.312.494.618.756.91a.156.156 0 0 1-.01.218h.002zm-2.387-3.76c.516 1.05.71 1.135.51 1.253-.126.073-.225-.068-.21-.057a16.154 16.154 0 0 1-.574-1.063.154.154 0 0 1 .02-.173.153.153 0 0 1 .22-.01.153.153 0 0 1 .034.05zm-1.516-5.407c.047.52.142.758-.064.78a.156.156 0 0 1-.172-.136c-.07-.537-.13-.775.07-.79.06-.003.16.06.167.145zm3.58-11.33a.156.156 0 0 1-.014.18c-.132.153-.262.31-.387.465a.15.15 0 0 1-.164.05.158.158 0 0 1-.077-.25c.126-.16.26-.317.394-.474a.152.152 0 0 1 .247.028zm24.42 2.8c.214.375.415.763.598 1.154a.15.15 0 0 1-.025.17.162.162 0 0 1-.048.034c-.216.1-.163-.11-.79-1.208a.154.154 0 0 1 .055-.21c.128-.074.225.07.21.06zm-1.192-1.544c-.188.145-.187-.076-1.027-1.01a.156.156 0 0 1 .01-.22.154.154 0 0 1 .17-.023.153.153 0 0 1 .046.036c.287.32.566.657.828 1a.155.155 0 0 1-.026.218zm2.552 4.667c.128.412.24.833.334 1.254.004.02.005.04.002.06a.16.16 0 0 1-.063.1.155.155 0 0 1-.055.024c-.233.05-.135-.143-.51-1.35a.15.15 0 0 1 .01-.118.153.153 0 0 1 .09-.075.155.155 0 0 1 .117.015.16.16 0 0 1 .075.093zm-4.832-7.315a.156.156 0 0 1-.012.18.15.15 0 0 1-.215.017 15.56 15.56 0 0 0-1-.78.157.157 0 0 1 .003-.26.15.15 0 0 1 .17.006c.35.25.694.518 1.022.797a.162.162 0 0 1 .033.04zm-2.78-1.88a.157.157 0 0 1 .007.15.15.15 0 0 1-.206.065 15.22 15.22 0 0 0-1.143-.542.158.158 0 0 1-.085-.204.15.15 0 0 1 .2-.08c.393.167.786.354 1.165.553a.156.156 0 0 1 .06.058zm-3.11-1.228a.156.156 0 0 1-.007.174.15.15 0 0 1-.16.055c-.403-.11-.816-.205-1.227-.28a.16.16 0 0 1-.106-.237.15.15 0 0 1 .155-.068c.42.077.84.174 1.253.286.04.01.072.035.093.07zm-3.286-.52a.158.158 0 0 1 .01.145.153.153 0 0 1-.085.08.15.15 0 0 1-.06.01 14.13 14.13 0 0 0-1.252-.006.157.157 0 0 1-.124-.26.15.15 0 0 1 .107-.05 15.08 15.08 0 0 1 1.278.005.158.158 0 0 1 .127.075zm-3.285.268c.046.237-.143.13-1.34.453-.194.052-.28-.247-.084-.3.408-.11.827-.204 1.24-.278a.157.157 0 0 1 .184.125zm-3.174.913c.096.22-.11.158-1.2.74-.178.095-.326-.18-.147-.274.373-.198.76-.382 1.146-.55a.155.155 0 0 1 .2.086zm-2.874 1.612a.154.154 0 0 1-.04.205c-.337.245-.665.505-.976.775a.152.152 0 0 1-.17.02.152.152 0 0 1-.047-.04.156.156 0 0 1 .015-.218c.317-.276.652-.542.995-.79a.153.153 0 0 1 .222.047zm23.992 11.495c.046.54.093.78-.106.784-.208.005-.153-.212-.2-.764a.15.15 0 0 1 .14-.165.158.158 0 0 1 .166.145z"/><path fill="#FA8825" d="m98.334 30.758-1.91-1.145a9.9 9.9 0 0 0-.627-3.086c1.244-1.73 1.454-1.764 1.32-1.964l-1.482-2.236a.183.183 0 0 0-.197-.078l-2.122.537a9.843 9.843 0 0 0-2.596-1.775l-.314-2.207a.186.186 0 0 0-.147-.156l-2.592-.554a.176.176 0 0 0-.19.084l-1.096 1.906a9.384 9.384 0 0 0-3.042.573l-1.76-1.368a.18.18 0 0 0-.21-.01l-2.184 1.455a.18.18 0 0 0-.073.197l.576 2.156a9.42 9.42 0 0 0-1.705 2.588c-2.12.312-2.286.185-2.33.417-.44 2.567-.616 2.678-.407 2.803l1.91 1.145a9.88 9.88 0 0 0 .628 3.086c-1.243 1.73-1.454 1.763-1.322 1.963 1.513 2.197 1.452 2.373 1.68 2.314l2.122-.538a9.856 9.856 0 0 0 2.596 1.775c.347 2.124.226 2.313.46 2.363 2.575.502 2.664.674 2.782.468L87.2 39.57a9.39 9.39 0 0 0 3.04-.572c1.71 1.27 1.772 1.508 1.972 1.375 2.134-1.477 2.318-1.417 2.256-1.65l-.575-2.157a9.427 9.427 0 0 0 1.704-2.588c2.114-.31 2.285-.182 2.33-.416.44-2.57.616-2.68.407-2.804z"/><path fill="#FFC089" d="M88.714 31.595c-.943 1.052-2.573 1.116-3.633.14-1.06-.973-1.155-2.622-.212-3.674.943-1.05 2.572-1.115 3.633-.14 1.06.974 1.157 2.623.214 3.675zm-3.327-.2c.86.79 2.198.76 2.984-.117.775-.864.697-2.22-.175-3.018-.87-.8-2.21-.75-2.984.115-.773.864-.693 2.222.177 3.02z"/><path fill="#FFC089" d="M92.343 26.418c.2.33.372.675.515 1.033a.23.23 0 0 1-.128.3.234.234 0 0 1-.3-.133 6.475 6.475 0 0 0-.616-1.178c-1.855-2.797-5.54-3.643-8.316-1.954a6.83 6.83 0 0 0-.212.134c-2.816 1.876-3.526 5.72-1.627 8.582 1.897 2.864 5.716 3.69 8.526 1.82 1.672-1.114 2.026-2.462 2.205-2.57.195-.12.427.094.33.3a6.448 6.448 0 0 1-2.5 2.803c-4.867 2.957-11.038-1.456-9.964-7.118a6.447 6.447 0 0 1 3.003-4.354 6.432 6.432 0 0 1 4.716-.786 6.733 6.733 0 0 1 4.367 3.12z"/><path fill="#FA8825" d="M70.86 23.662a5.423 5.423 0 0 0-.475-1.69l.674-1.045c.074-.115-.054-.137-.928-1.29-.082-.106-.137 0-1.288.373a5.43 5.43 0 0 0-1.53-.86l-.262-1.215c-.03-.135-.134-.06-1.57-.258a.102.102 0 0 0-.103.057l-.544 1.12a5.41 5.41 0 0 0-1.69.472c-1.012-.623-1.056-.752-1.163-.668-1.145.933-1.25.908-1.204 1.035l.406 1.174c-.368.46-.658.977-.86 1.53l-1.215.263c-.134.03-.06.134-.257 1.57-.016.13.093.093 1.176.646a5.41 5.41 0 0 0 .47 1.69l-.672 1.045c-.075.117.053.138.927 1.292.082.104.13 0 1.288-.374.46.367.977.657 1.53.858l.262 1.216a.103.103 0 0 0 .088.08l1.48.178a.102.102 0 0 0 .105-.057l.543-1.12a5.42 5.42 0 0 0 1.69-.474c1.012.622 1.057.75 1.164.667 1.145-.932 1.25-.908 1.204-1.035l-.405-1.17c.368-.46.66-.978.86-1.532 1.157-.275 1.28-.215 1.296-.35l.177-1.48c.014-.134-.1-.098-1.177-.648z"/><path fill="#FFC089" d="M66.675 25.22a1.556 1.556 0 1 1-2.463-1.9 1.556 1.556 0 0 1 2.463 1.9zm-.367-.284a1.095 1.095 0 0 0-.197-1.533c-.765-.592-1.874.04-1.75 1.004.122.963 1.353 1.3 1.95.53z"/><path fill="#91B3FA" d="M73.22 26.703c-.06.2-.132.4-.21.594a.156.156 0 0 1-.142.097.155.155 0 0 1-.06-.012c-.2-.08-.043-.257.118-.772a.154.154 0 1 1 .295.093zm-1.214 2.4a8.28 8.28 0 0 1-.832.963c-.147.146-.363-.076-.22-.22.804-.794.81-1.113 1.018-.96a.155.155 0 0 1 .034.216zm-2.418 2.007a.155.155 0 0 1-.056.21 8.192 8.192 0 0 1-1.15.55c-.19.074-.302-.214-.11-.288a7.843 7.843 0 0 0 1.107-.53c.125-.072.223.07.21.06v-.002zm-3.098 1.022a.155.155 0 0 1-.114.236 8.2 8.2 0 0 1-1.273.047.156.156 0 0 1-.107-.05.155.155 0 0 1 .12-.26c.408.018.818.002 1.224-.044a.155.155 0 0 1 .15.072zm-3.248-.292a.155.155 0 0 1-.178.228 8.122 8.122 0 0 1-1.186-.466.155.155 0 1 1 .136-.278c.368.18.75.33 1.14.448a.16.16 0 0 1 .09.067h-.002zm-2.874-1.387a.155.155 0 0 1-.22.017 8.185 8.185 0 0 1-.9-.9c-.135-.153.1-.356.233-.2.268.31.558.6.87.864a.155.155 0 0 1 .02.218h-.002zm-2.223-3.308c.207.53.36.67.172.762a.154.154 0 0 1-.207-.073 8.224 8.224 0 0 1-.253-.577.155.155 0 0 1 .288-.113zm.287-6.394c-.256.51-.26.717-.453.638a.156.156 0 0 1-.097-.143c0-.02.004-.04.01-.06a8.3 8.3 0 0 1 .262-.572.154.154 0 1 1 .277.138zm13.436-1.246c-.203.157-.214-.154-1.025-.922-.15-.14.064-.365.213-.224.303.287.584.598.84.93a.154.154 0 0 1-.028.216zm-2.39-2.14a.155.155 0 0 1-.21.058c-.983-.55-1.274-.463-1.184-.705a.154.154 0 0 1 .198-.09c.392.145.773.32 1.137.525a.155.155 0 0 1 .06.21zM66.44 16.33c-.026.256-.254.05-1.373.104-.204.01-.22-.3-.015-.31.417-.02.836-.007 1.252.037a.154.154 0 0 1 .137.17zm-3.197.247c.075.246-.217.145-1.225.632-.182.09-.32-.19-.135-.278a8.148 8.148 0 0 1 1.168-.458.155.155 0 0 1 .193.103zm-2.864 1.7c-.86.726-.88 1.03-1.076.862a.155.155 0 0 1-.016-.22c.274-.315.572-.61.89-.88a.155.155 0 0 1 .254.068.156.156 0 0 1-.053.168zm12.55 2.766c.082.193.158.39.226.588a.155.155 0 0 1-.097.197c-.205.07-.2-.166-.415-.662a.155.155 0 0 1 .284-.122z"/><path fill="#FFC089" d="M68.855 22.583a.232.232 0 0 1-.413.212 3.385 3.385 0 0 0-1.38-1.463 3.36 3.36 0 0 0-1.248-.408c-2.965-.356-4.896 3.073-3.05 5.424a3.372 3.372 0 0 0 4.396.8c1.445-.88 1.228-1.99 1.697-1.81a.233.233 0 0 1 .134.3 3.833 3.833 0 1 1-.135-3.055z"/><path fill="#CEE58B" d="M1.298 13.404c-.112-.477.56-.794.97-.46 4.173 3.383 14.2 13.517 11.7 31.226-3.134 22.218 2.226 30.326 8.898 35.27 0 0-9.163-2.325-14.928-10.55-14.154-20.2-4.648-47.003-6.64-55.486z"/><path fill="#fff" d="M4.474 20.344c.522 2.473.988 4.954 1.347 7.447.376 2.49.662 4.988.86 7.492.186 2.504.317 5.01.324 7.517.02 2.506-.083 5.01-.198 7.525-.1 2.514-.215 5.046-.03 7.595.183 2.55.716 5.11 1.78 7.518.265.6.544 1.198.862 1.775.305.585.64 1.155.985 1.72a27.106 27.106 0 0 0 2.367 3.257c1.764 2.068 3.89 3.902 6.233 5.455.247.163.6.123.79-.09.19-.212.145-.507-.09-.672H19.7a37.315 37.315 0 0 1-1.638-1.205c-.27-.205-.526-.42-.788-.63-.253-.218-.515-.428-.76-.653a27.054 27.054 0 0 1-6.8-9.33 21.954 21.954 0 0 1-1.18-3.54 24.166 24.166 0 0 1-.57-3.67c-.2-2.476-.11-4.983-.032-7.497.077-2.514.128-5.042.06-7.568a91.022 91.022 0 0 0-.165-3.785c-.036-.63-.087-1.26-.137-1.89a132.31 132.31 0 0 0-.182-1.887 107.14 107.14 0 0 0-1.083-7.513A102.12 102.12 0 0 0 4.77 20.29a.153.153 0 0 0-.183-.097.132.132 0 0 0-.113.15z" opacity=".5"/><path fill="#B2D550" d="M11.354 67.762a1.05 1.05 0 0 1-1.72-.292c-1.697-3.75-5.54-14.784.807-27.498 5.36-10.737 7.247-17.068 7.904-20 .14-.62.99-.703 1.246-.12 2.83 6.414 10.303 28.24-8.236 47.91z"/><path fill="#fff" d="M10.42 67.367a.286.286 0 0 1-.26-.084.293.293 0 0 1-.082-.207c.003-.182.358-18.408 7.136-33.672a.292.292 0 1 1 .533.236c-6.73 15.154-7.082 33.264-7.087 33.445a.293.293 0 0 1-.24.282z" style=""/><path fill="url(#b)" d="M8.828 87.282a1.623 1.623 0 0 0 1.62 1.618H98a1.623 1.623 0 0 0 1.62-1.618l.73-50.315c0-.89-1.048-2.626-2.968-2.496l-85.567-2.213a4.08 4.08 0 0 0-4.19 4.172L8.827 87.28z"/><path fill="url(#c)" d="M10.427 85.728a1.536 1.536 0 0 0 1.534 1.534h83.93a1.535 1.535 0 0 0 1.534-1.534l.688-45.676c-.08-2.748-2.49-3.736-3.952-3.678l-82.01-2.2a2.868 2.868 0 0 0-2.942 2.934l1.22 48.62z"/><path fill="#91B3FA" d="M96.65 54.952h-.004a.226.226 0 0 1-.222-.228l.21-14.187c-.005-.843-.26-1.516-.76-1.995-.936-.896-2.42-.85-2.484-.847l-26.21-.703a.225.225 0 0 1-.22-.23.214.214 0 0 1 .23-.22l26.198.703c.162-.01 1.742-.036 2.794.97.593.57.895 1.35.9 2.323l-.21 14.192a.224.224 0 0 1-.223.222z"/><path fill="url(#d)" d="M1.93 93.075h102.81a.206.206 0 0 0 .205-.207V88.86a.206.206 0 0 0-.206-.206H1.93a.206.206 0 0 0-.207.206v4.008c0 .114.092.207.206.207z"/><path fill="url(#e)" d="m67.23 82.29 19.275-36.925h-3.95a.863.863 0 0 1-.667-1.41L102.43 18.92c.89-1.085 2.65-.397 2.567 1.004l-1.444 24.483a2.46 2.46 0 0 1-.868 1.73 2.445 2.445 0 0 1-1.853.556l-2.753-.315-19.124 41.416a3.046 3.046 0 0 1-2.765 1.768h-6.626L67.23 82.29z"/><path fill="#fff" d="M85.53 42.754a.19.19 0 0 1-.15-.306l16.962-22.04a.712.712 0 0 1 1.27.513l-.3 2.643a.19.19 0 0 1-.21.168.19.19 0 0 1-.168-.21l.3-2.64a.33.33 0 0 0-.59-.24L85.68 42.68a.19.19 0 0 1-.15.074z" opacity=".49"/><path fill="#91B3FA" d="M100.215 57.426c-5.047 2.238-18.454 9.982-24.242 30.855 0 0 7.808.13 13.666-12.39 5.01-10.71 7.89-15.037 10.96-17.884.29-.27-.022-.74-.385-.58z"/><path fill="#fff" d="m76.898 87.095.026-.087.08-.256c.074-.223.184-.547.333-.958.15-.41.34-.904.564-1.47.225-.565.5-1.194.804-1.878.31-.68.657-1.415 1.04-2.182.39-.763.802-1.57 1.262-2.385l.346-.62.363-.62c.24-.416.5-.83.757-1.25.258-.418.53-.833.8-1.25.276-.415.546-.835.83-1.246.286-.41.564-.826.863-1.225l.44-.603c.146-.2.3-.394.447-.59l.447-.584.453-.57c.296-.38.608-.74.913-1.098a51.493 51.493 0 0 1 1.812-2.008c.15-.154.292-.31.442-.457l.438-.433.424-.417c.14-.137.283-.264.42-.392.28-.25.54-.5.8-.72l.738-.63c.114-.1.23-.192.343-.278l.324-.253.57-.445 1.12-.793a.09.09 0 0 1 .11.14l-.004.002-1.03.892-.527.486-.3.275-.157.146-.16.156-.686.67c-.24.235-.48.498-.74.763-.126.132-.26.265-.39.407l-.397.434-.41.45c-.138.153-.272.313-.41.474-.276.322-.567.646-.847.992s-.576.69-.858 1.06l-.432.546c-.146.183-.284.376-.43.564l-.434.57-.427.584c-.143.197-.288.393-.43.593l-.42.603c-.28.402-.554.812-.832 1.22-.278.406-.542.824-.812 1.234-.262.415-.525.828-.78 1.24-.505.83-1.002 1.647-1.466 2.447-.463.8-.914 1.574-1.326 2.317-.41.743-.805 1.443-1.15 2.1-.357.65-.67 1.254-.952 1.79-.282.533-.52 1.002-.72 1.386l-.618 1.216a.09.09 0 0 1-.166-.066v.005z" opacity=".51"/><path fill="#BDD0FB" d="M76.12 88.73s2.23-8.737 14.42-9.912c8.136-.785 10.72-2.775 11.48-3.65a.136.136 0 0 1 .16-.036.136.136 0 0 1 .076.142c-.253 1.65-1.626 6.748-9.013 9.726-8.903 3.59-13.364.768-17.122 3.73z"/><path fill="#fff" d="M76.75 87.028s.068-.073.2-.204a13.3 13.3 0 0 1 .586-.55 19.84 19.84 0 0 1 2.285-1.742 20.37 20.37 0 0 1 3.617-1.897 17.292 17.292 0 0 1 2.207-.716c.778-.198 1.57-.336 2.37-.415.2-.015.4-.04.604-.046l.605-.023.605.01c.2.004.4.023.6.036l1.134.073c.384.036.733.014 1.09.022h.395l.13-.01.52-.036.257-.018.127-.008c.043-.005.084-.012.126-.018l.49-.073a9.833 9.833 0 0 0 1.783-.434c.066-.02.132-.045.196-.074l.19-.078c.126-.053.254-.096.37-.154l.336-.173c.054-.027.11-.053.16-.083l.15-.093.285-.178c.09-.063.17-.126.252-.186.166-.113.296-.244.424-.352.12-.117.227-.22.313-.318.087-.1.16-.183.21-.256.05-.073.093-.127.118-.166a1.69 1.69 0 0 0 .036-.057.066.066 0 0 1 .12.053s-.007.027-.03.07c-.027.067-.06.13-.096.194a4.34 4.34 0 0 1-.465.672c-.12.126-.245.282-.403.42-.078.074-.158.15-.244.228l-.282.22-.15.114c-.05.037-.105.07-.16.106l-.34.22c-.118.072-.248.132-.375.2-.128.07-.26.144-.402.2-.6.26-1.224.46-1.862.603l-.516.108c-.043.01-.087.02-.13.026l-.134.017-.27.035-.546.068-.14.016-.14.006-.284.015c-.378.017-.776.048-1.148.026l-.57-.015-.584-.02a13.603 13.603 0 0 0-2.257.07c-.75.084-1.496.22-2.23.4-.715.18-1.42.393-2.112.645a28.965 28.965 0 0 0-3.6 1.61c-.517.266-.976.538-1.388.774-.413.235-.76.46-1.048.642-.29.18-.51.332-.663.435l-.233.16a.067.067 0 0 1-.074 0 .066.066 0 0 1-.018-.02.067.067 0 0 1 .006-.08z" opacity=".51"/><path fill="url(#f)" d="m51.297 56.393 13.606 30.225a4.99 4.99 0 0 0 4.55 2.942h7.015a2.562 2.562 0 0 0 2.24-1.32l.25-.45a2.008 2.008 0 0 1-1.787-1.094l-18.13-35.52-7.743 5.217z"/><path fill="url(#g)" d="M60.873 54.763a2.976 2.976 0 0 0-4.32.687L36.547 85.507a8.644 8.644 0 0 1-7.198 3.855h-2.814l-2.29-6.6S42.843 54.246 47.638 49.93c0 0 4.774-4.302 9.48-1.05 1.244.86 2.188 2.087 2.765 3.484l.99 2.4z"/><path fill="url(#h)" d="M3.708 63.804c1.507-1.29 4.4-3.206 8.615-3.63 0 0 3.082 1.05 9.223 12.053 6.14 11.003 10.216 16.02 14.998 13.28l-.395.657a7.213 7.213 0 0 1-6.18 3.49h-2.644a9.05 9.05 0 0 1-7.347-3.762C15.743 80.004 7.582 68.964 3.736 65.81a1.306 1.306 0 0 1-.03-2.006z"/><path fill="#fff" d="M102.678 27.664h-.02a.19.19 0 0 1-.128-.07.185.185 0 0 1-.04-.14l.135-1.196a.193.193 0 0 1 .136-.16.19.19 0 0 1 .242.203l-.134 1.195a.188.188 0 0 1-.19.17zM47.05 65.86a.19.19 0 0 1-.19-.2.19.19 0 0 1 .032-.097l8.772-13.003a1.547 1.547 0 0 1 2.678.203.19.19 0 0 1-.03.21.19.19 0 0 1-.313-.048 1.166 1.166 0 0 0-2.02-.153l-8.773 13.004a.19.19 0 0 1-.158.083zm-2.278 3.38a.19.19 0 0 1-.157-.297l.562-.834a.19.19 0 1 1 .315.21l-.563.835a.19.19 0 0 1-.158.084z" opacity=".49"/><path fill="url(#i)" d="M62.543 45.368s-1.148.558-1.36 1.2c-.168.513-1.437.58-1.562 1.59-.064.524-.45.94-.97 1.023-1.296.2-3.293.873-3.612 3.123-.244 1.716.63 2.368 1.55 2.592.674.165 1.123.82.985 1.502-.13.654.065 1.41 1.197 2.008 2.536 1.338 5.07-3.17 5.07-3.17l.52-7.875-1.817-1.992z"/><path fill="url(#j)" d="M76.346 43.5s-5.065 8.012-11.088 9.56c0 0 1.173 3.342 2.08 3.723 0 0 7.41-6.182 9.314-12.145l-.306-1.137z"/><path fill="url(#k)" d="m52.114 94.74-.164 1.35a.557.557 0 0 1-.49.49c-.43.05-1.126.1-1.805.027a.478.478 0 0 1-.402-.62c.166-.522.47-1.303.906-1.764h1.495a.46.46 0 0 1 .46.517z"/><path fill="url(#l)" d="m63.838 78.933.252 1.486s-.846 8.57-.996 11.998a2.685 2.685 0 0 0 .397 1.526l1.473 2.39-3.74-2.207-.073-.456.613-.84-.804-9.6c-.048-.566.07-1.13.335-1.63l.773-1.454 1.77-1.213z"/><path fill="url(#m)" d="M65.21 96.68h-1.194a.717.717 0 0 1-.57-.28c-.372-.484-1.143-1.427-1.51-1.45-.497-.035-.434 1.73-.434 1.73h-.278l-.352-2.19a1.297 1.297 0 0 1 .68-1.357s.114.84.73 1.21c.618.37 2.503 1.7 2.503 1.7.162-.02.325-.015.485.012.375.067.322.624-.06.624z"/><path fill="url(#n)" d="M58.72 79.638s-4.957 9.403-5.745 11.55c-.788 2.147-1.064 3.937-1.075 4.107-.016.265-.346.52-1.255.52-.468 0-.698-.19-.81-.37a.53.53 0 0 1-.02-.514c.286-.58 1.196-2.434 1.533-3.275.4-1.004 1.268-5.555 1.742-7.137.475-1.583 1.01-3.3 3.08-4.88 0 0 1.418-1.39 2.55 0z"/><path fill="#91B3FA" d="M61.847 64.23c1.278-5.417-1.96-8.48-1.96-8.48 2.044-1.963 5.767-2.856 5.767-2.856s3.554 2.598 3.133 4.63c-.248 1.193-2.5 7.14-2.5 7.14s-2.08.985-4.44-.433z"/><path fill="url(#o)" d="M59.012 66.913c.52-1.568 2.835-2.682 2.835-2.682 2.36 1.418 4.44.433 4.44.433s.468 1.784.147 3.442c-.32 1.658-2.344 12.314-2.344 12.314-3.185.645-8.082-.65-8.082-.65 2.028-3.602 2.484-11.287 3.004-12.857z"/><path fill="url(#p)" d="m63.333 49.314-1.04 4.67c-.1.41.276.343.692.265.68-.13 1.558-.394 1.852-.923a.5.5 0 0 0 .053-.176l.447-3.237a.582.582 0 0 0-.34-.612l-.862-.38a.58.58 0 0 0-.802.394z"/><path fill="url(#q)" d="M59.89 55.75s-7.256 5.19-.93 10.645c0 0 .243.273.717.415.24.073.95.608 1.308.887a.247.247 0 0 0 .36-.064.337.337 0 0 0 .02-.323l-.9-1.898a.694.694 0 0 0-.9-.04.343.343 0 0 1-.517-.117c-.49-.996-1.413-3.926 2.368-7.237a.41.41 0 0 0 .09-.498c-.265-.51-.87-1.524-1.617-1.77z"/><path fill="url(#r)" d="M65.325 45.057s1.107.75 1.582 2.657c.476 1.908-.297 2.592-1.09 2.55-.79-.04-1.94-.287-2.935-1.655-.995-1.37.992-4.468 2.443-3.553z"/><path fill="url(#s)" d="M63.883 47.84s-.405-2.734 1.864-2.316l.46.478s1.11-1.25-.12-2.197c-1.23-.946-2.935-.704-3.88 1.018-.942 1.72-1.285 2.932-.494 4.002.79 1.07 1.387.152 1.387.152s-.362-.926-.06-1.323c.3-.398.69.23.69.23l.153-.044z"/><path fill="url(#t)" d="M63.574 48.073s-.2-1.406-.92-1.004c-.717.4.26 1.313.65 1.623l.27-.62z"/><path fill="url(#u)" d="M76.31 45.15c.016.166-.6.28-.794-.425.053-.306.15-1.645.383-1.853 1.25-1.108 3.476-2.355 3.476-2.355.25.38-.078.63-.078.63l-1.112.75c.116.385.285.725.305 1.163.01.334-.106.66-.328.91-.22.252-.52.58-.788.827-.508.47-1.064.353-1.064.353z"/><path fill="url(#v)" d="m76.915 44.604-.17-.07c.023-.055.556-1.35.814-1.62.097-.103.145-.19.14-.26a.183.183 0 0 0-.057-.116l-.9.48-.396.62-.156-.098.425-.662 1.053-.563.048.038c.106.087.162.183.168.286.008.125-.055.255-.192.4-.196.203-.628 1.198-.777 1.564z"/></g><defs><linearGradient id="b" x1="62.222" x2="41.543" y1="85.03" y2="22.995" gradientUnits="userSpaceOnUse"><stop stop-color="#09005D"/><stop offset="1" stop-color="#1A0F91"/></linearGradient><linearGradient id="c" x1="23.265" x2="135.175" y1="84.376" y2="-2.469" gradientUnits="userSpaceOnUse"><stop stop-color="#4F52FF"/><stop offset="1" stop-color="#4042E2"/></linearGradient><linearGradient id="d" x1="49.895" x2="53.715" y1="38.594" y2="96.658" gradientUnits="userSpaceOnUse"><stop stop-color="#09005D"/><stop offset="1" stop-color="#1A0F91"/></linearGradient><linearGradient id="e" x1="109.491" x2="64.594" y1="18.81" y2="91.519" gradientUnits="userSpaceOnUse"><stop stop-color="#FF928E"/><stop offset="1" stop-color="#FE7062"/></linearGradient><linearGradient id="f" x1="71.285" x2="52.686" y1="85.927" y2="48.976" gradientUnits="userSpaceOnUse"><stop stop-color="#FF928E"/><stop offset="1" stop-color="#FE7062"/></linearGradient><linearGradient id="g" x1="61.667" x2="20.215" y1="68.123" y2="68.918" gradientUnits="userSpaceOnUse"><stop stop-color="#FF928E"/><stop offset="1" stop-color="#FE7062"/></linearGradient><linearGradient id="h" x1="33.66" x2="-7.6" y1="91.702" y2="46.147" gradientUnits="userSpaceOnUse"><stop stop-color="#FF928E"/><stop offset="1" stop-color="#FE7062"/></linearGradient><linearGradient id="i" x1="64.561" x2="61.157" y1="40.775" y2="49.313" gradientUnits="userSpaceOnUse"><stop stop-color="#09005D"/><stop offset="1" stop-color="#1A0F91"/></linearGradient><linearGradient id="j" x1="66.185" x2="78.634" y1="55.649" y2="40.213" gradientUnits="userSpaceOnUse"><stop stop-color="#FEBBBA"/><stop offset="1" stop-color="#FF928E"/></linearGradient><linearGradient id="k" x1="52.411" x2="51.166" y1="120.293" y2="102.45" gradientUnits="userSpaceOnUse"><stop stop-color="#09005D"/><stop offset="1" stop-color="#1A0F91"/></linearGradient><linearGradient id="l" x1="64.311" x2="60.158" y1="106.813" y2="58.274" gradientUnits="userSpaceOnUse"><stop stop-color="#FEBBBA"/><stop offset="1" stop-color="#FF928E"/></linearGradient><linearGradient id="m" x1="64.871" x2="63.626" y1="119.424" y2="101.581" gradientUnits="userSpaceOnUse"><stop stop-color="#09005D"/><stop offset="1" stop-color="#1A0F91"/></linearGradient><linearGradient id="n" x1="55.96" x2="51.806" y1="107.535" y2="58.983" gradientUnits="userSpaceOnUse"><stop stop-color="#FEBBBA"/><stop offset="1" stop-color="#FF928E"/></linearGradient><linearGradient id="o" x1="73.001" x2="26.314" y1="60.584" y2="113.247" gradientUnits="userSpaceOnUse"><stop stop-color="#09005D"/><stop offset="1" stop-color="#1A0F91"/></linearGradient><linearGradient id="p" x1="63.808" x2="63.808" y1="67.891" y2="47.973" gradientUnits="userSpaceOnUse"><stop stop-color="#FEBBBA"/><stop offset="1" stop-color="#FF928E"/></linearGradient><linearGradient id="q" x1="62.524" x2="87.918" y1="61.308" y2="55.707" gradientUnits="userSpaceOnUse"><stop stop-color="#FEBBBA"/><stop offset="1" stop-color="#FF928E"/></linearGradient><linearGradient id="r" x1="65.329" x2="63.503" y1="50.195" y2="42.56" gradientUnits="userSpaceOnUse"><stop stop-color="#FEBBBA"/><stop offset="1" stop-color="#FF928E"/></linearGradient><linearGradient id="s" x1="66.734" x2="61.776" y1="40.836" y2="48.556" gradientUnits="userSpaceOnUse"><stop stop-color="#09005D"/><stop offset="1" stop-color="#1A0F91"/></linearGradient><linearGradient id="t" x1="63.659" x2="61.834" y1="50.594" y2="42.959" gradientUnits="userSpaceOnUse"><stop stop-color="#FEBBBA"/><stop offset="1" stop-color="#FF928E"/></linearGradient><linearGradient id="u" x1="66.781" x2="79.229" y1="56.13" y2="40.693" gradientUnits="userSpaceOnUse"><stop stop-color="#FEBBBA"/><stop offset="1" stop-color="#FF928E"/></linearGradient><linearGradient id="v" x1="78.335" x2="73.771" y1="34.898" y2="63.779" gradientUnits="userSpaceOnUse"><stop stop-color="#FEBBBA"/><stop offset="1" stop-color="#FF928E"/></linearGradient><clipPath id="a"><path fill="#fff" d="M0 0h105v102.212H0z"/></clipPath></defs></svg>