<svg xmlns="http://www.w3.org/2000/svg" width="105" height="105" fill="none"><g clip-path="url(#a)"><path fill="url(#b)" d="M17.48 24.915c-7.625 6.302 2.57 14.39-2.712 17.922-5.28 3.53-27.15 10.42-5.126 24.082C31.667 80.58 32.27 89.635 47.992 80.983c15.723-8.65 14.593-10.206 27.533-4.357 12.94 5.85 26.46-3.25 21.864-14.05s-7.528-10.664-2.278-17.56c5.25-6.894-2.96-25.982-21.033-11.233-18.074 14.748-29.386 3.738-31.37-1.778-1.985-5.516-13.18-17.05-25.23-7.09z"/><path fill="#B2D550" d="M82.06 84.198s3.696-15.886 13.13-27.155c1.733-2.07 5.093-.864 5.106 1.836.037 7.85-2.465 20.69-18.237 25.318z"/><path fill="#DCE5FE" d="M97.92 58.716c-.28 1.194-.644 2.358-1.036 3.515a48.945 48.945 0 0 1-1.307 3.424 54.463 54.463 0 0 1-3.286 6.555 48.83 48.83 0 0 1-1.983 3.09c-.344.505-.717.992-1.078 1.486-.378.483-.75.97-1.148 1.436a34.004 34.004 0 0 1-5.235 5.126.132.132 0 0 1-.173-.2 46.095 46.095 0 0 0 4.872-5.356c.376-.47.724-.965 1.088-1.446.345-.494.702-.98 1.03-1.486.166-.253.343-.5.502-.754l.488-.76c.16-.255.316-.514.474-.77.158-.258.313-.517.463-.778.31-.518.607-1.045.904-1.57.288-.53.576-1.06.852-1.6a75.658 75.658 0 0 0 1.595-3.254 69.206 69.206 0 0 0 1.44-3.33 68.505 68.505 0 0 0 1.282-3.398v-.004a.132.132 0 0 1 .253.073h.005z"/><path fill="#CEE58B" d="M85.434 83.035s7.742-11.126 16.395-13.962c2.145-.703 3.988 1.657 2.795 3.574-2.422 3.893-7.78 9.253-19.19 10.388z"/><path fill="#DCE5FE" d="M103.8 70.78a57.84 57.84 0 0 1-2.032 1.753c-.348.28-.695.563-1.046.84a77.074 77.074 0 0 1-5.435 3.93c-.742.5-1.506.964-2.262 1.443l-1.154.687c-.19.115-.382.23-.577.342l-.586.326c-1.552.89-3.163 1.674-4.784 2.43a.112.112 0 0 1-.15-.053.113.113 0 0 1 .053-.15h.003l1.197-.593.597-.3c.198-.1.39-.21.59-.313l1.18-.625c.39-.216.776-.44 1.164-.658l.58-.33.575-.342 1.145-.687c.752-.48 1.514-.944 2.25-1.445a96.524 96.524 0 0 0 2.21-1.505l1.085-.78 1.074-.796c.358-.265.71-.537 1.064-.81.356-.27.703-.55 1.052-.825a62.687 62.687 0 0 0 2.056-1.705.113.113 0 0 1 .188.09.116.116 0 0 1-.038.078h.003z"/><path fill="#CEE58B" d="M27.476 77.697c-3.532.707-8.04-3.144-9.494-7.35-1.494-4.327 1.247-6.14 1.225-12.146-.024-6.822-3.573-7.85-5.92-17.046-.53-2.075-3.595-14.082.204-16.332 3.516-2.08 13.38 3.89 15.108 11.534 1.233 5.45-2.578 7.74-1.122 14.087 1.278 5.57 4.634 5.65 5.92 11.026 1.566 6.54-1.284 15.3-5.92 16.227z"/><path fill="#DCE5FE" d="M27.218 79.35c.95-7.35-.906-18.69-2.63-26.912-1.87-8.898-3.99-16.158-4.01-16.23l-.293.087c.02.073 2.138 7.323 4.003 16.207 1.72 8.195 3.572 19.498 2.626 26.806l.304.042z"/><path fill="#B2D550" d="M24.052 80.374c4.632-2.414 6.218-10.702 3.585-13.395-1.78-1.82-4.33.093-6.792-1.793-3.142-2.41-.83-6.945-3.3-12.828-2.104-5.01-7.147-9.746-10.094-8.774-3.084 1.018-4.71 8.568-2.074 13.11 1.713 2.956 4.336 3.1 4.905 5.85.66 3.19-2.53 4.643-2.546 7.735-.03 5.554 10.19 13.286 16.318 10.094z"/><path fill="#DCE5FE" d="M21.552 82.496a.188.188 0 0 0 .188-.18.188.188 0 0 0-.02-.09c-6.14-12.654-7.94-27.333-7.956-27.48a.19.19 0 1 0-.375.044c.017.147 1.825 14.89 7.993 27.6a.188.188 0 0 0 .17.106zm-12.6-23.95a.09.09 0 0 0 .07-.144c-1.937-2.49-4.086-6.226-3.312-9.904.46-2.19 1.758-3.334 1.77-3.345a.09.09 0 0 0 .013-.13.09.09 0 0 0-.065-.032.09.09 0 0 0-.066.027c-.055.05-1.356 1.194-1.83 3.444-.433 2.068-.205 5.49 3.35 10.052a.09.09 0 0 0 .07.035z"/><path fill="#F0F0F0" d="M24.468 79.268a.09.09 0 0 0 .075-.04c2.978-4.343 3.995-7.705 3.02-9.983-.868-2.025-3.058-2.4-3.08-2.406a.09.09 0 0 0-.094.04.088.088 0 0 0-.012.07.09.09 0 0 0 .076.067c.02.003 2.116.367 2.943 2.3.948 2.217-.062 5.516-3.003 9.81a.09.09 0 0 0 .024.124c.014.012.032.018.05.018z"/><path fill="url(#c)" d="M88.03 81.66a1.183 1.183 0 0 1-1.18 1.18H23.06a1.183 1.183 0 0 1-1.178-1.18l-.53-36.658c0-.648.763-1.913 2.163-1.818l62.342-1.61a2.973 2.973 0 0 1 3.05 3.04L88.03 81.66z"/><path fill="#4042E2" d="M86.868 80.53a1.12 1.12 0 0 1-1.116 1.116h-61.15a1.12 1.12 0 0 1-1.117-1.116l-.5-33.28c.058-2 1.814-2.72 2.88-2.68l59.75-1.6a2.09 2.09 0 0 1 2.145 2.136l-.892 35.424z"/><path fill="#BDD0FB" d="M24.143 64.646a.09.09 0 0 1-.09-.09l-.037-2.697a.09.09 0 0 1 .09-.092.095.095 0 0 1 .09.088l.04 2.7a.09.09 0 0 1-.026.064.09.09 0 0 1-.063.027h-.004zm-.097-6.613a.09.09 0 0 1-.09-.09l-.15-10.336c.002-.69.214-1.24.63-1.64.758-.726 1.943-.69 1.994-.688l19.08-.512a.088.088 0 0 1 .085.053c.005.01.008.023.008.035a.09.09 0 0 1-.088.093l-19.087.512c-.054 0-1.165-.037-1.868.637-.38.364-.574.872-.577 1.51l.152 10.334a.09.09 0 0 1-.09.093z"/><path fill="url(#d)" d="M92.84 81.49H18.366a.367.367 0 0 0-.367.365v2.488c0 .203.164.367.367.367H92.84a.367.367 0 0 0 .365-.367v-2.488a.367.367 0 0 0-.366-.366z"/><path fill="#FAB06F" d="m69.378 29.635-35.162-.215a2.01 2.01 0 0 0-2.022 2.112l2.42 49.957h39.128l2.172-44.635-6.536-7.22z"/><path fill="url(#e)" d="M70.84 36.64a2.013 2.013 0 0 1-1.936-2.166l.377-4.77 6.64 7.126-5.08-.19z"/><path fill="#fff" d="M67.34 35.987H48.41a.99.99 0 1 0 0 1.983h18.93a.993.993 0 1 0 0-1.983zm.6 4.51H48.436c-.565 0-1.022.443-1.022.99s.457.993 1.022.993H67.94c.565 0 1.022-.445 1.022-.992 0-.548-.457-.99-1.022-.99zm0 3.876H48.436c-.565 0-1.022.444-1.022.992s.457.99 1.022.99H67.94c.565 0 1.022-.442 1.022-.99s-.457-.992-1.022-.992zm0 3.877H48.436c-.565 0-1.022.444-1.022.992 0 .547.457.99 1.022.99H67.94c.565 0 1.022-.443 1.022-.99 0-.548-.457-.992-1.022-.992zm-.463 6.043h-28.4c-.82 0-1.487.44-1.487.99s.666.99 1.488.99h28.4c.82 0 1.487-.443 1.487-.99s-.667-.99-1.488-.99zm0 3.874h-28.4c-.82 0-1.487.444-1.487.992s.666.99 1.488.99h28.4c.82 0 1.487-.443 1.487-.99s-.666-.993-1.488-.993zm0 3.877h-28.4c-.82 0-1.487.444-1.487.992s.666.99 1.488.99h28.4c.82 0 1.487-.442 1.487-.99s-.666-.992-1.488-.992zm0 6.04h-28.4c-.82 0-1.487.445-1.487.992 0 .548.666.992 1.488.992h28.4c.82 0 1.487-.444 1.487-.992 0-.547-.666-.99-1.488-.99zm0 3.877h-28.4c-.82 0-1.487.445-1.487.993s.666.992 1.488.992h28.4c.82 0 1.487-.444 1.487-.992s-.666-.992-1.488-.992zm0 3.878h-28.4c-.82 0-1.487.444-1.487.992s.666.992 1.488.992h28.4c.82 0 1.487-.444 1.487-.99 0-.55-.666-.994-1.488-.994z" opacity=".84"/><path fill="#FA8825" d="M43.378 34.005H29.636c-1.035 0-1.874.84-1.874 1.874v12.48c0 1.034.84 1.873 1.874 1.873h13.742c1.035 0 1.874-.84 1.874-1.874V35.88c0-1.036-.84-1.875-1.874-1.875z"/><path fill="#fff" d="M41.646 48.376h-1.47a.743.743 0 0 1-.708-.517l-.603-1.886a.54.54 0 0 0-.515-.376H34.7a.54.54 0 0 0-.515.377l-.596 1.882a.742.742 0 0 1-.71.52H31.44a.743.743 0 0 1-.698-.998l3.73-10.252a1.884 1.884 0 0 1 1.77-1.24h.688a1.883 1.883 0 0 1 1.775 1.254l3.642 10.24a.742.742 0 0 1-.7.993zM37.91 42.81l-1.172-3.848a.248.248 0 0 0-.476.004 232.18 232.18 0 0 1-1.16 3.843.488.488 0 0 0 .464.63h1.876a.487.487 0 0 0 .467-.63z"/><path fill="#BDD0FB" d="M28.934 44.69h-.09v-7.557a1.778 1.778 0 0 1 1.776-1.776h3.228v.093H30.62a1.688 1.688 0 0 0-1.686 1.685v7.554z"/><path fill="url(#f)" d="M27.713 84.984a.268.268 0 0 1-.272-.205L23.15 62.054c-.025-.135.076-.26.227-.284.15-.02.293.068.318.203l4.292 22.722c.025.135-.076.262-.226.284a.3.3 0 0 1-.047.004z"/><path fill="url(#g)" d="M13.233 84.984a.31.31 0 0 1-.055-.004c-.15-.027-.244-.157-.216-.29l5.06-22.428a.276.276 0 0 1 .325-.195c.15.027.244.157.216.293l-5.06 22.427a.27.27 0 0 1-.27.197z"/><path fill="url(#h)" d="M24.44 67.672h-7.336c-.152 0-.276-.11-.276-.246s.124-.244.276-.244h7.336c.152 0 .275.11.275.244 0 .133-.123.246-.275.246z"/><path fill="url(#i)" d="M24.304 67.672h-7.07a.245.245 0 0 1-.24-.148.247.247 0 0 1 .24-.345h7.07a.248.248 0 0 1 .263.246.247.247 0 0 1-.263.246z"/><path fill="url(#j)" d="M24.44 71.78h-7.336c-.152 0-.276-.11-.276-.243 0-.134.124-.245.276-.245h7.336c.152 0 .275.11.275.245 0 .133-.123.244-.275.244z"/><path fill="url(#k)" d="M25.106 71.78h-8.893c-.152 0-.276-.11-.276-.243 0-.134.124-.245.276-.245h8.893c.152 0 .276.11.276.245 0 .133-.123.244-.276.244z"/><path fill="url(#l)" d="M24.44 75.89h-7.336c-.152 0-.276-.11-.276-.247s.124-.245.276-.245h7.336c.152 0 .275.11.275.245 0 .133-.123.246-.275.246z"/><path fill="url(#m)" d="M25.956 75.89H15.31c-.152 0-.276-.11-.276-.247s.124-.245.276-.245h10.645c.153 0 .276.11.276.245 0 .133-.122.246-.275.246z"/><path fill="url(#n)" d="M24.44 79.997h-9.985c-.152 0-.275-.11-.275-.244 0-.133.123-.244.276-.244h9.985c.153 0 .277.11.277.243s-.124.244-.276.244z"/><path fill="url(#o)" d="M26.643 79.997H14.455c-.152 0-.275-.11-.275-.244 0-.133.123-.244.276-.244h12.188c.152 0 .275.11.275.243s-.124.244-.277.244z"/><path fill="url(#p)" d="M17.84 66.204s-.177.282-.223 1.074a.13.13 0 0 0 .078.125c.015.007.033.01.05.01h1.4a.082.082 0 0 0 .08-.107c-.083-.244-.33-.835-.885-1.172l-.498.07z"/><path fill="url(#q)" d="m17.777 65.667.08.664a.125.125 0 0 0 .108.11c.1.013.198.012.297-.002a.205.205 0 0 0 .168-.203v-.64l-.653.072z"/><path fill="url(#r)" d="M21.303 66.13a1.96 1.96 0 0 0-.264.99.247.247 0 0 0 .248.244h2.174a.104.104 0 0 0 .06-.19c-.41-.29-1.22-.83-1.806-1.04l-.413-.003z"/><path fill="url(#s)" d="m21.082 65.415.17.82a.17.17 0 0 0 .2.132.605.605 0 0 0 .19-.08.195.195 0 0 0 .087-.197l-.176-.994-.472.32z"/><path fill="url(#t)" d="M18.087 54.013s-.585.517-.697 1.14c-.112.623.313 10.748.313 10.748s.586.1.89-.084c0 0 .36-6.572.632-8.09 0 0 1.43 6.807 1.828 8.036 0 0 .566.07.748-.038 0 0-.374-8.824-.845-10.392l-2.868-1.32z"/><path fill="url(#u)" d="M19.21 57.515a.067.067 0 0 1-.066-.05l-.244-.93-.516-.332a.068.068 0 1 1 .073-.113l.537.346a.066.066 0 0 1 .03.04l.248.956a.068.068 0 0 1-.05.083h-.012z"/><path fill="url(#v)" d="M23.884 48.162c-2.472-.205-3.118.307-3.118.307l1.188 1.874s2.43-.05 4.17-1.39a4.262 4.262 0 0 1-.697-1.04 3.27 3.27 0 0 1-1.543.248z"/><path fill="url(#w)" d="M27.757 44.533a.076.076 0 0 0-.146-.03l-.315.674a.7.7 0 0 0-.056.417l.11.39a.678.678 0 0 1-.138.538c-.29.362-.907 1.025-1.786 1.39.18.38.415.73.697 1.04a4.26 4.26 0 0 0 1.484-2.06.33.33 0 0 0 .234-.33l-.083-2.03z"/><path fill="url(#x)" d="M24.702 49.25c-.87-.938-2.528-1.362-3.488-1.536a.878.878 0 0 0-.984.558c-.432 1.16-1.607 4.182-1.834 4.702-.187.425-.382.842-.506 1.1a.312.312 0 0 0 .146.418c.808.39 2.26.83 2.85 1a.202.202 0 0 0 .238-.104.202.202 0 0 0 .02-.09c0-.115.032-.227.09-.326l2.232-3.717c1.39 1.54 2.61 1.682 3.544 1.345a7.042 7.042 0 0 1-.31-1.46c-1.384-.237-1.998-1.89-1.998-1.89z"/><path fill="url(#y)" d="m28.98 50.88-.25-.332c-.807.555-1.482.687-2.035.592.05.497.155.986.31 1.46 1.232-.444 1.974-1.72 1.974-1.72z"/><path fill="url(#z)" d="m28.804 50.887 1.406.055 1.293-.723c-.186-.117-1.237.12-1.237.12s-1.098-.167-1.395-.168c-.246 0-.21.355-.194.475l.007.04.12.2z"/><path fill="url(#A)" d="m22.53 45.994-.74 1.806s.85.59 1.536.534l.37-1.627-1.165-.713z"/><path fill="url(#B)" d="M23.78 44.758c.02.024.538 1.9.538 1.9l-1.077.274-.756-1.705s1.013-.872 1.297-.47z"/><path fill="url(#C)" d="m22.892 45.486.33.927c.003.012.01.023.016.034.044.063.213.27.414.084.182-.17.35-.32.506-.347a.138.138 0 0 1 .156.098c.084.297.145.6.182.906a.137.137 0 0 1-.112.146c-.21.04-.657.112-1.03.085a.138.138 0 0 1-.115-.08c-.104-.224-.418-.904-.536-1.08-.11-.166-.378-.16-.492-.15a.135.135 0 0 1-.1-.034c-.098-.087-.288-.308-.023-.572a.137.137 0 0 0 .028-.153.138.138 0 0 0-.032-.045c-.114-.107-.235-.296-.046-.53.19-.236.446-.2.602-.147a.137.137 0 0 0 .166-.06.11.11 0 0 1 .112-.054.135.135 0 0 0 .146-.138c-.003-.153.052-.346.318-.428.47-.147.764.308.793.647.03.34-.488.47-.796.447-.23-.017-.404.213-.473.324a.137.137 0 0 0-.015.126z"/><path fill="url(#D)" d="M22.828 46.598s-.078-.59-.322-.618c-.244-.03-.484.173-.24.503.304.412.562.115.562.115z"/><path fill="url(#E)" d="M84.766 40.706s-.53.028-.594 1.117c0 0 1.227 1.1 2.884 1.36.125.02-.174-.848-.22-.966-.212-.56-.884-.92-2.07-1.51z"/><path fill="url(#F)" d="M78.808 39.426h1.117s3.427-3.785 5.674-4.167c0 0 1.56 1.997-.084 5.73-.133.3-.504.432-.78.255a.444.444 0 0 1-.18-.212l.133-3.186s-2.924 2.556-3.432 3.05c-.508.493-3.09.192-2.45-1.47z"/><path fill="url(#G)" d="M89.603 47.372a4.195 4.195 0 0 0-2.29-1l-.364.22c.19.26.41.498.655.705.39.227.992.533 1.49.6.484.064.557-.23.508-.525z"/><path fill="#7D97F4" d="M86.837 42.217c-.288.093-.415.502-1.146.232a6.475 6.475 0 0 1-1.504-.794l-.014.167s1.294 1.23 2.95 1.492a.164.164 0 0 0 .188-.138.165.165 0 0 0-.01-.085 4.142 4.142 0 0 0-.463-.875zm3.12 5.505a3.92 3.92 0 0 0-.354-.35c.05.296-.022.59-.507.524-.5-.066-1.1-.373-1.49-.6.488.417 1.23.86 2.17.834a.244.244 0 0 0 .18-.408z"/><path fill="url(#H)" d="m78.847 40.234 5.23.056s2.985 2.47 3.526 6.238c0 0 .09.277-.45.324 0 0-1.806-1.18-2.982-3.263-1.442-2.557-3.764-1.645-3.764-1.645-2.817.96-3.78-.466-3.804-.803l2.245-.908z"/><path fill="url(#I)" d="M78.97 36.022s.564 2.82 3.32 3.937l.98-.117.233.37-2.3.073s-1.97-.782-3.01-2.902c-.034-.07-.607-1.255.778-1.362z"/><path fill="url(#J)" d="M79.275 40.188s-.64-1.74-.778-3.43c0 0 .47-.403.76-.577a.212.212 0 0 0 .084-.273c-.214-.446-1.516-2.196-1.613-2.22-.53-.133-2.703-1.166-4.234.927-.656.898.13 3.664 3.11 6.528l.098.02c.336.063.68.012.983-.145l1.592-.83z"/><path fill="url(#K)" d="M76.805 37.14s1.78 2.104 4.052 2.412c0 0 .586-.537 1.025-.344.44.192 1.036 1.035 1.036 1.035H80s-2.76-.098-4.14-1.77c.11-.587.443-.937.946-1.334z"/><path fill="url(#L)" d="m75.768 32.21-.39 1.297a.142.142 0 0 0 .055.16c.187.127.677.383 1.348.135a.214.214 0 0 0 .138-.182l.092-1.13-1.242-.28z"/><path fill="url(#M)" d="M78.048 31.16s-.19 1.344-.708 1.756c-.516.413-1.524.102-1.863-.91l.677-1.734 1.894.887z"/><path fill="url(#N)" d="M76.076 31.394a.066.066 0 0 0 .056-.007.066.066 0 0 0 .03-.047c.02-.124.066-.37.16-.537 0 0-.05-.176.446.09.494.267 1.24.66 1.678.425.426-.227.86-1.37-.27-1.16a.068.068 0 0 1-.074-.04.07.07 0 0 1-.005-.03c.014-.187-.005-.62-.443-.76-.41-.13-.634.057-.727.17a.066.066 0 0 1-.104 0c-.123-.16-.456-.503-.947-.286-.404.178-.467.427-.46.582a.067.067 0 0 1-.03.058.066.066 0 0 1-.065.005c-.123-.057-.322-.087-.513.153-.264.33.113.617.226.692a.066.066 0 0 1 .03.056c0 .17.028.92.404 1.344a.066.066 0 0 0 .06.02.068.068 0 0 0 .05-.04l.29-.69a.066.066 0 0 1 .083-.036l.126.038z"/><path fill="url(#O)" d="M76.082 31.534s-.177-.72-.445-.488c-.27.23.07.748.377.846l.068-.358z"/><path fill="url(#P)" d="m82.773 40.407 1.31-4.37a.448.448 0 0 1 .4-.32l1.77-.12a.25.25 0 0 1 .264.21.252.252 0 0 1-.01.124l-1.466 4.176a.368.368 0 0 1-.31.244l-1.742.195-.215-.138z"/><path fill="url(#Q)" d="M82.986 40.542h-.008l-3.714-.187a.167.167 0 0 1 .017-.332l3.714.187a.166.166 0 1 1-.008.333z"/><path fill="url(#R)" d="M78.498 36.79a.033.033 0 0 1-.033-.033c0-.775-.297-1.806-.3-1.815a.034.034 0 0 1 .022-.042h.014a.032.032 0 0 1 .023.012.035.035 0 0 1 .006.01c.002.012.304 1.05.3 1.835a.033.033 0 0 1-.032.034z"/><path fill="url(#S)" d="M76.808 37.172a.034.034 0 0 1-.026-.013c-.008-.01-.82-1.044-1.1-1.752a.033.033 0 0 1 .008-.036.034.034 0 0 1 .054.012c.276.698 1.082 1.723 1.09 1.734a.033.033 0 0 1 .004.038.032.032 0 0 1-.03.015z"/><path fill="url(#T)" d="m75.665 38.75-.025-.01c-1.176-.503-1.903-1.907-1.91-1.92a.034.034 0 0 1-.003-.027.034.034 0 0 1 .018-.02.034.034 0 0 1 .025 0 .034.034 0 0 1 .02.016c.007.013.712 1.376 1.852 1.88l.12-.17a.032.032 0 0 1 .022-.014h.013a.033.033 0 0 1 .013.007.034.034 0 0 1 .008.046l-.153.21z"/><path fill="#91B3FA" d="M64.89 67.108s-.103-12.458 9.188-13.393c9.292-.934 15.063 3.1 12.177 6.717-2.885 3.62-7.225 6.835-11.095 4.234-3.87-2.6-7.922-2.616-10.27 2.442z"/><path fill="url(#U)" d="M82.52 59.14a.09.09 0 0 1-.05-.013 17.207 17.207 0 0 0-1.292-.74.09.09 0 0 1 .082-.16c.44.227.88.48 1.307.748a.09.09 0 0 1 .038.1.09.09 0 0 1-.087.066h.002z"/><path fill="url(#V)" d="M80.323 57.97a.087.087 0 0 1-.036-.008 15.69 15.69 0 0 0-4.275-1.207.09.09 0 0 1-.078-.102.09.09 0 0 1 .102-.077c1.492.2 2.948.61 4.324 1.22a.09.09 0 0 1-.037.173z"/><path fill="url(#W)" d="M71.13 56.953a.09.09 0 0 1-.023-.178 15.143 15.143 0 0 1 3.733-.327.09.09 0 0 1 .087.093.09.09 0 0 1-.058.083.087.087 0 0 1-.036.005 14.998 14.998 0 0 0-3.706.325z"/><path fill="url(#X)" d="M80.644 60.153a.09.09 0 0 1-.05-.014 8.626 8.626 0 0 0-1.913-.897.09.09 0 0 1-.066-.08.09.09 0 0 1 .088-.098.09.09 0 0 1 .036.007 8.802 8.802 0 0 1 1.953.915.09.09 0 0 1-.048.166h.002z"/><path fill="url(#Y)" d="M77.315 58.876h-.02c-2.987-.617-5.993-.183-6.024-.178a.09.09 0 0 1-.1-.076.09.09 0 0 1 .075-.102c.03-.005 3.068-.444 6.088.18a.09.09 0 0 1 .043.155.09.09 0 0 1-.06.023v-.002z"/><path fill="url(#Z)" d="M81.295 62.48a.09.09 0 0 1-.054-.018 7.348 7.348 0 0 0-1.44-.832.09.09 0 0 1-.05-.05.09.09 0 0 1 .052-.12.09.09 0 0 1 .07.005 7.542 7.542 0 0 1 1.477.853.09.09 0 0 1-.055.162z"/><path fill="url(#aa)" d="M78.83 61.255a.105.105 0 0 1-.027-.004c-1.217-.39-2.653-.63-4.27-.71a.09.09 0 0 1 .01-.18c1.632.08 3.084.322 4.315.72a.09.09 0 0 1-.028.175z"/><path fill="url(#ab)" d="M71.39 60.594a.09.09 0 0 1-.01-.18 21.388 21.388 0 0 1 2.15-.084.09.09 0 0 1 0 .18c-.71-.008-1.42.02-2.127.083h-.012z"/><path fill="url(#ac)" d="M90.342 77.177c-.006-.08-.09-.152-.23-.21.153-.084.238-.175.23-.264-.02-.27-.875-.42-1.907-.337-1.032.082-1.85.37-1.83.64.007.08.09.15.232.208-.154.085-.238.176-.23.265.006.087.09.15.23.208-.154.085-.238.176-.23.265.005.082.09.152.23.21-.154.084-.238.175-.23.264.01.12.18.215.46.278a2.31 2.31 0 0 0 .007.293c.04.497.6.887 1.34.887s1.378-.53 1.385-1.03a2.477 2.477 0 0 0-.016-.325c.354-.12.57-.263.558-.403-.006-.082-.09-.152-.23-.21.153-.084.238-.175.23-.264-.007-.09-.09-.153-.23-.21.153-.085.238-.176.23-.266z"/><path fill="url(#ad)" d="M87.958 78.812a4.448 4.448 0 0 1-.818-.066.025.025 0 0 1 .01-.05c.362.07.846.086 1.363.044a5.854 5.854 0 0 0 1.153-.196.026.026 0 0 1 .017.01.026.026 0 0 1 .005.018.026.026 0 0 1-.01.017 5.938 5.938 0 0 1-1.162.203c-.19.012-.38.02-.558.02z"/><path fill="url(#ae)" d="M87.965 78.338c-.398 0-.754-.037-1.005-.11a.025.025 0 0 1-.01-.003.024.024 0 0 1-.005-.008.026.026 0 0 1 .002-.028.026.026 0 0 1 .027-.01c.357.102.933.134 1.54.085.608-.05 1.16-.17 1.498-.326a.025.025 0 0 1 .02.044c-.34.158-.908.28-1.512.33a6.67 6.67 0 0 1-.555.024z"/><path fill="url(#af)" d="M87.96 77.864c-.43 0-.806-.044-1.06-.127a.026.026 0 0 1-.004-.047.025.025 0 0 1 .02-.002c.353.116.95.155 1.6.102.6-.05 1.16-.17 1.496-.326a.024.024 0 0 1 .02 0 .022.022 0 0 1 .007.005.026.026 0 0 1 .007.016.025.025 0 0 1-.006.017.023.023 0 0 1-.007.006c-.34.157-.91.28-1.513.33a6.576 6.576 0 0 1-.56.024z"/><path fill="url(#ag)" d="M87.962 77.39c-.3.004-.598-.023-.892-.082a.025.025 0 0 1-.008-.045.025.025 0 0 1 .01-.003h.01c.36.08.884.102 1.43.057.596-.05 1.153-.168 1.49-.322a.025.025 0 0 1 .02-.003.025.025 0 0 1 .017.014.026.026 0 0 1 0 .02.024.024 0 0 1-.017.014c-.34.156-.905.278-1.506.327a6.39 6.39 0 0 1-.555.022z"/><path fill="url(#ah)" d="M85.916 74.784a3.497 3.497 0 0 0-.625-1.22c-.613-.775-1.616-2.35-1.74-4.498-.18-3.124 2.594-4.69 5.124-4.48 2.53.214 5.028 2.098 4.752 5.006-.168 1.79-1.172 3.146-1.915 3.925a4.138 4.138 0 0 0-.993 1.76c-.224.81-.757 1.816-2.022 1.878-1.64.08-2.32-1.448-2.58-2.37z"/><path fill="url(#ai)" d="m88.912 76.53.885-5.756c.018-.12.077-.198.13-.178.055.02.083.134.065.252v.01l-1.008 5.704c-.007.043-.03.07-.048.06-.02-.01-.03-.05-.024-.09z"/><path fill="url(#aj)" d="m87.992 76.576-.885-5.756c-.018-.12-.077-.2-.13-.18-.054.02-.084.135-.065.254v.01l1.008 5.703c.007.043.03.07.05.06.018-.008.03-.05.022-.09z"/><path fill="#fff" d="M89.79 70.28a.093.093 0 0 0-.117-.03l-.493.23-.17-.488a.105.105 0 0 0-.06-.06.12.12 0 0 0-.152.048l-.406.74-.378-1.05a.12.12 0 0 0-.057-.064.147.147 0 0 0-.186.037l-.566.78a.07.07 0 0 0-.01.054.07.07 0 0 0 .03.044.098.098 0 0 0 .12-.01l.5-.558.45 1a.08.08 0 0 0 .04.04.094.094 0 0 0 .116-.03l.433-.697.163.353v.003a.05.05 0 0 0 .004.008.093.093 0 0 0 .117.03l.585-.273a.07.07 0 0 0 .045-.044.07.07 0 0 0-.008-.06z" opacity=".77"/><path fill="#fff" d="M91.53 72.798a.135.135 0 0 1-.108-.216c.148-.2.284-.406.41-.62a.136.136 0 0 1 .233.134c-.13.224-.272.44-.426.648a.135.135 0 0 1-.11.054zm.726-1.25a.135.135 0 0 1-.124-.19c.932-2.143.13-3.942.12-3.96a.135.135 0 0 1 .17-.173c.03.01.058.03.075.06.035.078.86 1.928-.12 4.182a.134.134 0 0 1-.12.08z" opacity=".84"/></g><defs><linearGradient id="b" x1="0" x2="98.305" y1="52.689" y2="52.689" gradientUnits="userSpaceOnUse"><stop stop-color="#F9FFE9"/><stop offset="1" stop-color="#F7FDEA"/></linearGradient><linearGradient id="c" x1="49.13" x2="64.196" y1="80.021" y2="34.823" gradientUnits="userSpaceOnUse"><stop stop-color="#09005D"/><stop offset="1" stop-color="#1A0F91"/></linearGradient><linearGradient id="d" x1="84.162" x2="17.129" y1="76.153" y2="92.458" gradientUnits="userSpaceOnUse"><stop stop-color="#09005D"/><stop offset="1" stop-color="#1A0F91"/></linearGradient><linearGradient id="e" x1="74.769" x2="70.18" y1="30.404" y2="36.457" gradientUnits="userSpaceOnUse"><stop stop-color="#FE7062"/><stop offset="1" stop-color="#FF928E"/></linearGradient><linearGradient id="f" x1="23.144" x2="27.989" y1="73.377" y2="73.377" gradientUnits="userSpaceOnUse"><stop stop-color="#FE7062"/><stop offset="1" stop-color="#FF928E"/></linearGradient><linearGradient id="g" x1="12.956" x2="18.569" y1="73.525" y2="73.525" gradientUnits="userSpaceOnUse"><stop stop-color="#FE7062"/><stop offset="1" stop-color="#FF928E"/></linearGradient><linearGradient id="h" x1="16.828" x2="24.715" y1="67.426" y2="67.426" gradientUnits="userSpaceOnUse"><stop stop-color="#FE7062"/><stop offset="1" stop-color="#FF928E"/></linearGradient><linearGradient id="i" x1="16.969" x2="24.57" y1="67.426" y2="67.426" gradientUnits="userSpaceOnUse"><stop stop-color="#FE7062"/><stop offset="1" stop-color="#FF928E"/></linearGradient><linearGradient id="j" x1="16.828" x2="24.715" y1="71.534" y2="71.534" gradientUnits="userSpaceOnUse"><stop stop-color="#FE7062"/><stop offset="1" stop-color="#FF928E"/></linearGradient><linearGradient id="k" x1="15.937" x2="25.382" y1="71.534" y2="71.534" gradientUnits="userSpaceOnUse"><stop stop-color="#FE7062"/><stop offset="1" stop-color="#FF928E"/></linearGradient><linearGradient id="l" x1="16.828" x2="24.715" y1="75.642" y2="75.642" gradientUnits="userSpaceOnUse"><stop stop-color="#FE7062"/><stop offset="1" stop-color="#FF928E"/></linearGradient><linearGradient id="m" x1="15.035" x2="26.232" y1="75.642" y2="75.642" gradientUnits="userSpaceOnUse"><stop stop-color="#FE7062"/><stop offset="1" stop-color="#FF928E"/></linearGradient><linearGradient id="n" x1="14.179" x2="24.717" y1="79.751" y2="79.751" gradientUnits="userSpaceOnUse"><stop stop-color="#FE7062"/><stop offset="1" stop-color="#FF928E"/></linearGradient><linearGradient id="o" x1="14.179" x2="26.919" y1="79.751" y2="79.751" gradientUnits="userSpaceOnUse"><stop stop-color="#FE7062"/><stop offset="1" stop-color="#FF928E"/></linearGradient><linearGradient id="p" x1="17.617" x2="19.228" y1="66.772" y2="66.772" gradientUnits="userSpaceOnUse"><stop stop-color="#09005D"/><stop offset="1" stop-color="#1A0F91"/></linearGradient><linearGradient id="q" x1="17.777" x2="18.43" y1="66.023" y2="66.023" gradientUnits="userSpaceOnUse"><stop stop-color="#FF928E"/><stop offset="1" stop-color="#FEB3B1"/></linearGradient><linearGradient id="r" x1="21.041" x2="23.569" y1="66.746" y2="66.746" gradientUnits="userSpaceOnUse"><stop stop-color="#09005D"/><stop offset="1" stop-color="#1A0F91"/></linearGradient><linearGradient id="s" x1="21.081" x2="21.731" y1="65.734" y2="65.734" gradientUnits="userSpaceOnUse"><stop stop-color="#FF928E"/><stop offset="1" stop-color="#FEB3B1"/></linearGradient><linearGradient id="t" x1="19.424" x2="19.619" y1="74.531" y2="57.836" gradientUnits="userSpaceOnUse"><stop stop-color="#09005D"/><stop offset="1" stop-color="#1A0F91"/></linearGradient><linearGradient id="u" x1="18.354" x2="19.278" y1="56.797" y2="56.797" gradientUnits="userSpaceOnUse"><stop stop-color="#4042E2"/><stop offset="1" stop-color="#4F52FF"/></linearGradient><linearGradient id="v" x1="23.876" x2="24.982" y1="46.875" y2="42.156" gradientUnits="userSpaceOnUse"><stop stop-color="#FE7062"/><stop offset="1" stop-color="#FF928E"/></linearGradient><linearGradient id="w" x1="29.663" x2="25.773" y1="40.642" y2="49.171" gradientUnits="userSpaceOnUse"><stop stop-color="#FF928E"/><stop offset="1" stop-color="#FEB3B1"/></linearGradient><linearGradient id="x" x1="35.956" x2="19.602" y1="38.552" y2="54.225" gradientUnits="userSpaceOnUse"><stop stop-color="#E1473D"/><stop offset="1" stop-color="#E9605A"/></linearGradient><linearGradient id="y" x1="31.608" x2="24.773" y1="47.24" y2="54.221" gradientUnits="userSpaceOnUse"><stop stop-color="#FF928E"/><stop offset="1" stop-color="#FEB3B1"/></linearGradient><linearGradient id="z" x1="32.34" x2="25.506" y1="47.957" y2="54.937" gradientUnits="userSpaceOnUse"><stop stop-color="#FF928E"/><stop offset="1" stop-color="#FEB3B1"/></linearGradient><linearGradient id="A" x1="25.025" x2="19.971" y1="43.311" y2="52.596" gradientUnits="userSpaceOnUse"><stop stop-color="#FF928E"/><stop offset="1" stop-color="#FEB3B1"/></linearGradient><linearGradient id="B" x1="23.433" x2="23.313" y1="45.012" y2="48.714" gradientUnits="userSpaceOnUse"><stop stop-color="#FF928E"/><stop offset="1" stop-color="#FEB3B1"/></linearGradient><linearGradient id="C" x1="23.321" x2="23.071" y1="42.343" y2="51.567" gradientUnits="userSpaceOnUse"><stop stop-color="#E1473D"/><stop offset="1" stop-color="#E9605A"/></linearGradient><linearGradient id="D" x1="22.114" x2="22.518" y1="48.81" y2="46.276" gradientUnits="userSpaceOnUse"><stop stop-color="#FF928E"/><stop offset="1" stop-color="#FEB3B1"/></linearGradient><linearGradient id="E" x1="85.3" x2="87.219" y1="41.741" y2="43.744" gradientUnits="userSpaceOnUse"><stop stop-color="#09005D"/><stop offset="1" stop-color="#1A0F91"/></linearGradient><linearGradient id="F" x1="82.341" x2="84.338" y1="39.753" y2="32.231" gradientUnits="userSpaceOnUse"><stop stop-color="#4042E2"/><stop offset="1" stop-color="#4F52FF"/></linearGradient><linearGradient id="G" x1="87.847" x2="91.475" y1="46.769" y2="49.432" gradientUnits="userSpaceOnUse"><stop stop-color="#09005D"/><stop offset="1" stop-color="#1A0F91"/></linearGradient><linearGradient id="H" x1="82.006" x2="80.925" y1="45.039" y2="57.909" gradientUnits="userSpaceOnUse"><stop stop-color="#4042E2"/><stop offset="1" stop-color="#4F52FF"/></linearGradient><linearGradient id="I" x1="80.55" x2="79.36" y1="39.358" y2="44.151" gradientUnits="userSpaceOnUse"><stop stop-color="#FF928E"/><stop offset="1" stop-color="#FEB3B1"/></linearGradient><linearGradient id="J" x1="79.162" x2="66.67" y1="33.768" y2="50.104" gradientUnits="userSpaceOnUse"><stop stop-color="#09005D"/><stop offset="1" stop-color="#1A0F91"/></linearGradient><linearGradient id="K" x1="79.11" x2="84.033" y1="39.593" y2="32.858" gradientUnits="userSpaceOnUse"><stop stop-color="#FF928E"/><stop offset="1" stop-color="#FEB3B1"/></linearGradient><linearGradient id="L" x1="76.544" x2="74.454" y1="32.465" y2="37.295" gradientUnits="userSpaceOnUse"><stop stop-color="#FF928E"/><stop offset="1" stop-color="#FEB3B1"/></linearGradient><linearGradient id="M" x1="76.762" x2="76.762" y1="29.089" y2="33.45" gradientUnits="userSpaceOnUse"><stop stop-color="#FF928E"/><stop offset="1" stop-color="#FEB3B1"/></linearGradient><linearGradient id="N" x1="76.344" x2="77.087" y1="27.747" y2="31.985" gradientUnits="userSpaceOnUse"><stop stop-color="#09005D"/><stop offset="1" stop-color="#1A0F91"/></linearGradient><linearGradient id="O" x1="75.81" x2="75.81" y1="29.089" y2="33.45" gradientUnits="userSpaceOnUse"><stop stop-color="#FF928E"/><stop offset="1" stop-color="#FEB3B1"/></linearGradient><linearGradient id="P" x1="82.773" x2="86.52" y1="38.069" y2="38.069" gradientUnits="userSpaceOnUse"><stop stop-color="#09005D"/><stop offset="1" stop-color="#1A0F91"/></linearGradient><linearGradient id="Q" x1="83.225" x2="80.23" y1="39.707" y2="40.528" gradientUnits="userSpaceOnUse"><stop stop-color="#09005D"/><stop offset="1" stop-color="#1A0F91"/></linearGradient><linearGradient id="R" x1="80.838" x2="76.377" y1="31.606" y2="39.195" gradientUnits="userSpaceOnUse"><stop stop-color="#4042E2"/><stop offset="1" stop-color="#4F52FF"/></linearGradient><linearGradient id="S" x1="79.472" x2="75.011" y1="30.804" y2="38.393" gradientUnits="userSpaceOnUse"><stop stop-color="#4042E2"/><stop offset="1" stop-color="#4F52FF"/></linearGradient><linearGradient id="T" x1="78.975" x2="74.515" y1="30.513" y2="38.102" gradientUnits="userSpaceOnUse"><stop stop-color="#4042E2"/><stop offset="1" stop-color="#4F52FF"/></linearGradient><linearGradient id="U" x1="81.13" x2="82.61" y1="58.679" y2="58.679" gradientUnits="userSpaceOnUse"><stop stop-color="#DAE3FE"/><stop offset="1" stop-color="#E9EFFD"/></linearGradient><linearGradient id="V" x1="75.934" x2="80.414" y1="57.273" y2="57.273" gradientUnits="userSpaceOnUse"><stop stop-color="#DAE3FE"/><stop offset="1" stop-color="#E9EFFD"/></linearGradient><linearGradient id="W" x1="71.038" x2="74.927" y1="56.696" y2="56.696" gradientUnits="userSpaceOnUse"><stop stop-color="#DAE3FE"/><stop offset="1" stop-color="#E9EFFD"/></linearGradient><linearGradient id="X" x1="78.62" x2="80.734" y1="59.61" y2="59.61" gradientUnits="userSpaceOnUse"><stop stop-color="#DAE3FE"/><stop offset="1" stop-color="#E9EFFD"/></linearGradient><linearGradient id="Y" x1="71.168" x2="77.405" y1="58.62" y2="58.62" gradientUnits="userSpaceOnUse"><stop stop-color="#DAE3FE"/><stop offset="1" stop-color="#E9EFFD"/></linearGradient><linearGradient id="Z" x1="79.745" x2="81.385" y1="61.968" y2="61.968" gradientUnits="userSpaceOnUse"><stop stop-color="#DAE3FE"/><stop offset="1" stop-color="#E9EFFD"/></linearGradient><linearGradient id="aa" x1="74.449" x2="78.92" y1="60.807" y2="60.807" gradientUnits="userSpaceOnUse"><stop stop-color="#DAE3FE"/><stop offset="1" stop-color="#E9EFFD"/></linearGradient><linearGradient id="ab" x1="71.301" x2="73.618" y1="60.461" y2="60.461" gradientUnits="userSpaceOnUse"><stop stop-color="#DAE3FE"/><stop offset="1" stop-color="#E9EFFD"/></linearGradient><linearGradient id="ac" x1="88.591" x2="87.832" y1="76.794" y2="81.804" gradientUnits="userSpaceOnUse"><stop stop-color="#020039"/><stop offset="1" stop-color="#090056"/></linearGradient><linearGradient id="ad" x1="88.292" x2="86.674" y1="79.049" y2="84.948" gradientUnits="userSpaceOnUse"><stop stop-color="#4042E2"/><stop offset="1" stop-color="#4F52FF"/></linearGradient><linearGradient id="ae" x1="88.234" x2="86.615" y1="79.033" y2="84.932" gradientUnits="userSpaceOnUse"><stop stop-color="#4042E2"/><stop offset="1" stop-color="#4F52FF"/></linearGradient><linearGradient id="af" x1="88.084" x2="86.465" y1="78.992" y2="84.89" gradientUnits="userSpaceOnUse"><stop stop-color="#4042E2"/><stop offset="1" stop-color="#4F52FF"/></linearGradient><linearGradient id="ag" x1="88.042" x2="86.423" y1="78.98" y2="84.879" gradientUnits="userSpaceOnUse"><stop stop-color="#4042E2"/><stop offset="1" stop-color="#4F52FF"/></linearGradient><linearGradient id="ah" x1="86.259" x2="97.285" y1="65.272" y2="85.582" gradientUnits="userSpaceOnUse"><stop stop-color="#FE7062"/><stop offset="1" stop-color="#FF928E"/></linearGradient><linearGradient id="ai" x1="89.415" x2="89.778" y1="72.425" y2="83.974" gradientUnits="userSpaceOnUse"><stop stop-color="#E1473D"/><stop offset="1" stop-color="#E9605A"/></linearGradient><linearGradient id="aj" x1="87.412" x2="87.775" y1="72.488" y2="84.037" gradientUnits="userSpaceOnUse"><stop stop-color="#E1473D"/><stop offset="1" stop-color="#E9605A"/></linearGradient><clipPath id="a"><path fill="#fff" d="M0 21h105v63.984H0z"/></clipPath></defs></svg>