<svg xmlns="http://www.w3.org/2000/svg" width="105" height="106" fill="none"><path fill="#222" d="M89.428 64.925h-73.85v10.73h73.85v-10.73z"/><path fill="#222" d="M91.916 14H13.103c-2.5 0-4.53 2.006-4.53 4.48v49.303c0 2.474 2.03 4.48 4.53 4.48h78.813c2.502 0 4.53-2.006 4.53-4.48V18.48c0-2.474-2.028-4.48-4.53-4.48z"/><path fill="#FEFEFE" d="M92.39 17.852H12.612v49.94H92.39v-49.94z"/><path fill="#222" d="M0 87.818v1.59C0 90.29.974 91 2.17 91h100.664c1.196 0 2.116-.712 2.116-1.59v-1.592H0z"/><path fill="#222" d="M52.494 75.53H9.404c-.148.145-6.92 6.154-8.994 10.602-.878 1.906-.307 2.91 1.344 2.91h101.49c1.65 0 2.222-1.046 1.344-2.91-2.117-4.448-8.847-10.467-8.995-10.603h-43.1z"/><path fill="#9C9EB9" d="M99.54 86.77H7.71l6.37-9.326h79.1l6.36 9.327z"/><path fill="#D0D1DE" d="m98.432 85.127-.2-.293h-6.128l-1.143-2.26h5.726l-.2-.294h-5.65l-1.144-2.26h5.29l-.19-.283h-5.228l-1.153-2.293h-.528l1.143 2.293h-6.56l-.922-2.293h-.53l.9 2.293h-6.56l-.688-2.293h-.53l.668 2.293h-6.56l-.445-2.293h-.53l.434 2.293H61.1l-.222-2.293h-.53l.202 2.293h-6.222v-2.293h-.593v2.293H47.29l.16-2.293h-.53l-.21 2.293h-6.563l.434-2.293h-.54l-.453 2.293h-6.56l.666-2.293h-.53l-.687 2.293h-6.508l.9-2.293h-.53l-.92 2.293h-6.54l1.132-2.293h-.53l-1.152 2.293h-5.8l-.19.282h5.83l-1.142 2.26h-6.243l-.2.293h6.284l-1.164 2.26H9.037l-.2.294h6.75l-.825 1.633h.603l.815-1.633h7.068l-.656 1.633h.603l.646-1.633h7.07l-.487 1.633h.603l.476-1.633h7.07l-.33 1.633h.604l.317-1.633h7.07l-.16 1.633h.603l.15-1.633h6.91v1.633h.59v-1.633h6.69l.136 1.633h.603l-.148-1.633h7.07l.306 1.633h.603l-.317-1.633h7.067l.476 1.633h.604l-.487-1.633h7.068l.646 1.633h.603l-.656-1.633h7.07l.815 1.633h.603l-.826-1.633h6.18zm-72.58-5.108h6.58l-.676 2.26h-6.804l.9-2.26zm-7.143 0h6.59l-.91 2.26h-6.804l1.122-2.26zm4.655 4.814h-7.048l1.122-2.26h6.835l-.91 2.26zm7.63 0h-7.048l.9-2.26h6.825l-.678 2.26zm7.63 0h-7.05l.657-2.26h6.826l-.434 2.26zm.507-2.554h-6.804l.656-2.26h6.592l-.444 2.26zm7.132 2.554h-7.048l.424-2.26h6.835l-.21 2.26zm.233-2.554h-6.804l.433-2.26h6.582l-.21 2.26zm7.237 2.554h-6.888l.19-2.26h6.698v2.26zm0-2.554h-6.666l.19-2.26h6.476v2.26zm.593-2.26h6.243l.2 2.26h-6.443v-2.26zm0 4.814v-2.26h6.466l.19 2.26h-6.656zM89.12 80.02l1.122 2.26h-6.815l-.91-2.26h6.603zm-7.132 0 .89 2.26h-6.805l-.678-2.26h6.593zm-20.867 0h6.593l.423 2.26h-6.804l-.21-2.26zm.456 4.815-.212-2.26h6.825l.423 2.26h-7.037zm6.687-4.815h6.582l.667 2.26h-6.804l-.445-2.26zm.942 4.815-.444-2.26h6.837l.656 2.26h-7.048zm7.63 0-.678-2.26h6.836l.89 2.26h-7.048zm7.64 0-.91-2.26h6.825l1.12 2.26h-7.035z"/><path fill="#222" d="M52.498 89.043h-4.455a.884.884 0 0 0 .222.607.48.48 0 0 0 .34.125h7.798a.48.48 0 0 0 .34-.125.884.884 0 0 0 .22-.608H52.5z"/><path fill="#D0D1DE" d="M83.965 63.25H20.992V25.263h62.93l.043 37.987zM22.21 62.088h60.58V26.425H22.21v35.663z"/><path fill="#B2D550" d="M74.817 34.82h-5.852v24.777h5.852V34.82z"/><path fill="#D0D1DE" d="M63.965 48.21h-5.852v11.398h5.852v-11.4z"/><path fill="#FA8825" d="M53.12 45.455h-5.85v14.152h5.852V45.455z"/><path fill="#D0D1DE" d="M42.285 37.437h-5.85v22.16h5.85v-22.16zm-10.843 4.867H25.59v17.303h5.852V42.304z"/><path fill="#222" d="m61.177 43.79-11.122-2.187-10.71-10.122-10.633 9.296-.392-.43 11.048-9.65L50.34 41.07l10.57 2.073 10.74-14.947.478.335L61.176 43.79z"/><path fill="#B2D550" d="M29.83 40.535c0 .26-.078.512-.224.727a1.336 1.336 0 0 1-2.035.198 1.304 1.304 0 0 1-.286-1.426 1.333 1.333 0 0 1 2.157-.425c.25.245.39.578.39.925zm9.45-8.143c.73 0 1.322-.586 1.322-1.31 0-.72-.592-1.307-1.322-1.307s-1.323.586-1.323 1.308c0 .723.592 1.31 1.323 1.31zm12.24 8.928c0 .26-.077.512-.222.728a1.336 1.336 0 0 1-2.035.198 1.304 1.304 0 0 1-.287-1.426c.1-.24.27-.444.487-.587a1.333 1.333 0 0 1 1.67.162c.248.246.387.58.387.926zm10.848 1.853a1.3 1.3 0 0 1-.223.727 1.32 1.32 0 0 1-.593.482 1.336 1.336 0 0 1-1.442-.284 1.304 1.304 0 0 1-.287-1.425c.1-.24.27-.444.487-.588a1.333 1.333 0 0 1 1.67.163c.25.245.388.578.388.925zm10.836-14.56c0 .258-.078.51-.223.727a1.337 1.337 0 0 1-2.034.198 1.304 1.304 0 0 1-.287-1.426c.1-.24.27-.443.486-.587a1.333 1.333 0 0 1 1.67.162c.25.246.388.58.388.926z"/><path fill="#FBBFAF" d="M39.1 38.316a2.443 2.443 0 0 0 1.132-.586 1.43 1.43 0 0 1 .455-.377c.2-.11.388-.238.56-.387a1.19 1.19 0 0 1 .583-.325c.285 0 .137.294 0 .504-.138.21-.91.523-.88.795.033.272.954-.147 1.133-.24.434-.2.455-.556.71-.9.253-.347.275-.253.37 0a.736.736 0 0 1-.18.574 2.42 2.42 0 0 1-.878.88c.348-.184.657-.433.91-.733.137-.177.624-1.046.91-.805.592.397-1.058 1.873-1.408 1.978a3.27 3.27 0 0 0 .963-.68c.18-.157.572-.545.646-.126.095.607-1.058 1.047-1.598 1.33.373-.1.73-.25 1.058-.45.445-.22.455.177 0 .49-.212.135-.43.257-.656.368a3.804 3.804 0 0 1-2.444.335c-.35 0-1.06.26-1.228 0-.38-.356-.17-1.152-.16-1.644z"/><path fill="#B2D550" d="m39.353 38.19.688 2.346s-8.306 2.093-10.317 2.428c-2.01.335-6.465-4.71-6.465-4.71s-1.503-3.633-.38-3.58c.877 0 7.237 4.836 7.586 5.014.35.178 8.89-1.497 8.89-1.497z"/><path fill="#FBBFAF" d="M17.607 79.653a8.42 8.42 0 0 0 .2 2.303c.277.743 2.19 1.874 2.19 1.874s-1.734.324-2.4-.178a9.86 9.86 0 0 1-2.117-3.517c.096-.356.582-1.424.582-1.424l1.545.943zm10.33-.963c-.04.774.03 1.55.21 2.303.266.743 2.18 1.874 2.18 1.874s-1.734.324-2.39-.178a9.912 9.912 0 0 1-2.117-3.518c.106-.356.582-1.424.582-1.424l1.535.942z"/><path fill="#222" d="M15.852 79.653s-1.45.48-1.058 1.737c.227.943.33 1.91.306 2.88h.424s.085-1.8.36-1.74c.275.064.878 1.74 1.48 1.74h3.43s.37-.357 0-.577c-.37-.22-2.688-.115-2.953-.628-.263-.513-1.99-3.412-1.99-3.412zm10.433-1.005s-1.45.48-1.058 1.738c.228.942.33 1.91.307 2.878h.423s.085-1.8.36-1.737c.275.062.878 1.737 1.492 1.737h3.417s.37-.356 0-.565c-.37-.21-2.688-.127-2.942-.63-.254-.502-2-3.422-2-3.422z"/><path fill="#FA8825" d="M25.298 47.35s-4.074 1.413-7.026 0a6.92 6.92 0 0 0-2.117 4.522 16.77 16.77 0 0 0 .117 3.402c.45 2.922.614 5.88.486 8.834-.455 4-1.703 15.587-1.703 15.587l2.804.44s2.58-13.996 2.888-15.702c.307-1.706 1.29-8.74 1.29-8.74s1.747 5.422 2.202 8.05c.063.407 1.312 15.26 1.312 15.26h2.73s-.212-16.486-.212-15.67c0 .357-.73-11.126-2.772-15.983z"/><path fill="#E98025" d="M23.884 57.85a12.24 12.24 0 0 0-2.243-4.398c.138.754.255 1.497.34 2.26 0 0 1.49 4.65 2.116 7.423-.096-3.036.243-3.936-.212-5.286z"/><path fill="#F39F90" d="M22.426 30.873c-.286-.063-1.64-2.878-2.212-3.423-.286 1.926-1.46 6.49-1.46 6.49 1.428 1.508 4.233.586 4.233.586a9.442 9.442 0 0 1-.56-3.653z"/><path fill="#FBBFAF" d="M21.852 24.164s2.773.617 3.302 1.413c.53.795.53 2.878.825 3.423.18.335.338.607.422.806.085.2-.116.272-.36.356a.38.38 0 0 0-.254.26c-.17.504-.624 1.79-1.058 1.97a3.814 3.814 0 0 1-2.537-.395 3.75 3.75 0 0 1-1.695-1.91c-.89-2.427-.424-6.447 1.354-5.923z"/><path fill="#B2D550" d="M19.176 32.988a36.946 36.946 0 0 0 3.81 1.424s2.232 4.365 2.39 5.59a3568.64 3568.64 0 0 0 1.302 9.525s-4.434 2.785-10.846.576c0 0 1.534-6.542 1.185-9.128-.35-2.585-.053-6.07 2.16-7.987z"/><path fill="#95B639" d="M18.4 50.752c-.073-2.774.573-5.307.626-8.092a6.792 6.792 0 0 0-.52-2.65 6.85 6.85 0 0 0-1.512-2.248 13 13 0 0 0 0 3.213c.35 2.586-1.185 9.128-1.185 9.128.842.29 1.71.508 2.59.65z"/><path fill="#222" d="M15.832 40.682c1.555-1.287.92-2.575 2.486-3.79l.35-.26c.073-.67-1.556-.325-1.06-1.048.636-.942 3.28-2.376 3.176-3.297-.058-.29-.037-.59.063-.87.138-.71.434-.847-.127-1.36-.39-.366-.73-.764-.412-1.32.317-.553.666-.574 1.058-.155.095.115.56 1.046.677.512 0-.136-.16-.418-.18-.586a.652.652 0 0 1 .19-.534c.276-.293.688-.45.985-.753.296-.303.402-.847.92-1.046.273-.084.564-.084.836 0 .127 0 .656.377.74.346.89-.346.488-1.717-.126-2.094a6.832 6.832 0 0 0-3.81-1.277 5.828 5.828 0 0 0-2.29.81 5.76 5.76 0 0 0-1.752 1.67c-.677.87-.635 1.8-1.132 2.732-.497.93-1.418 1.287-2 2.093a2.943 2.943 0 0 0-.328 2.523c.212.626.295 1.288.243 1.947-.138.848-.826 1.476-1.06 2.292a3.584 3.584 0 0 0 0 2.335c.308 1.38 1.24 1.8 2.55 1.13z"/><path fill="#FBBFAF" d="M13.418 54.52a2.2 2.2 0 0 0 .307 1.162c.12.148.207.32.254.502.062.206.144.406.243.597.12.185.182.4.18.62 0 .26-.307 0-.477-.117-.17-.115-.285-.952-.56-.983-.276-.032-.064.91 0 1.046.105.43.423.534.698.848s.17.304-.106.335c-.275.03-.37-.168-.508-.294a2.34 2.34 0 0 1-.635-1.047c.085.38.255.74.498 1.046.127.168.804.796.55 1.047-.497.45-1.534-1.34-1.556-1.717.085.37.23.724.434 1.047.107.2.382.65 0 .617-.58 0-.74-1.235-.91-1.758.023.356.09.708.202 1.047.117.46-.264.375-.465-.075a6.91 6.91 0 0 1-.2-.68 3.544 3.544 0 0 1 .21-2.313c.117-.314 0-1.047.233-1.14.444-.284 1.153.082 1.608.208z"/><path fill="#B2D550" d="m13.756 54.54-2.56.137s0-7.463.645-10.007c.646-2.543 5.525-9.42 6.625-9.892 1.323-.617 5.29 1.047 2.38 3.266-2.91 2.22-5.63 7.495-5.734 7.726-.105.23-1.354 8.77-1.354 8.77z"/></svg>