<svg xmlns="http://www.w3.org/2000/svg" width="105" height="105" fill="none"><g clip-path="url(#a)"><path fill="#F9FFE9" d="M98.964 69.72c-9.754 22.966-35.737 35.833-58.268 32.362-3.667-.564-13.72-2.247-22.618-10.183C.944 76.62-2.72 46.366 11.1 25.046 21.157 9.53 39.19.733 56.322 1.173c3.69.095 17.834.678 30.264 10.928 1.825 1.507 5.852 5.084 9.48 10.76 8.522 13.325 9.255 31.89 2.898 46.86z"/><path fill="#B2D550" d="M22.508.186c-2.915 4.192-18.88 29.28 1.972 48.49 0 0 14.76-13.81-1.226-48.425a.432.432 0 0 0-.747-.064z"/><path fill="#fff" d="M22.827 5.346c-.325 1.595-.617 3.2-.896 4.804a203.4 203.4 0 0 0-.775 4.827c-.48 3.223-.89 6.457-1.198 9.7-.308 3.243-.517 6.495-.55 9.75a66.6 66.6 0 0 0 .112 4.876c.1 1.618.266 3.237.56 4.83a.21.21 0 1 1-.415.076c-.287-1.62-.444-3.25-.536-4.885a64.548 64.548 0 0 1-.085-4.902c.053-3.267.286-6.527.612-9.774a181.61 181.61 0 0 1 1.26-9.707c.25-1.612.52-3.22.807-4.826.292-1.61.594-3.21.93-4.81a.09.09 0 0 1 .173.037v.002z" opacity=".48"/><path fill="#CEE68B" d="M3.39 4.11C1.566 10.312-7.564 46.84 25.175 61.566c0 0 12.2-22.5-20.864-57.678a.547.547 0 0 0-.922.222z"/><path fill="#fff" d="M5.816 10.19c.15 2.164.388 4.325.67 6.48.28 2.153.62 4.3 1.007 6.438.78 4.273 1.76 8.512 3.017 12.67 1.256 4.156 2.79 8.23 4.744 12.102.485.97 1.008 1.92 1.554 2.854.546.934 1.125 1.85 1.74 2.74a34.894 34.894 0 0 0 4.123 4.993.21.21 0 1 1-.295.297 35.317 35.317 0 0 1-4.15-5.07 42.775 42.775 0 0 1-1.74-2.773 51.426 51.426 0 0 1-1.553-2.88c-1.95-3.904-3.465-8.007-4.71-12.18-1.244-4.17-2.202-8.426-2.962-12.71a131.27 131.27 0 0 1-.98-6.453c-.27-2.16-.5-4.323-.64-6.497a.088.088 0 0 1 .084-.1.09.09 0 0 1 .094.088l-.002.002z" opacity=".48"/><path fill="#FAB06F" d="M104.043 25.76H8.57a.957.957 0 0 0-.957.956v66.62c0 .528.43.957.957.957h95.473a.957.957 0 0 0 .957-.957v-66.62a.957.957 0 0 0-.957-.957z"/><path fill="#fff" d="M99.934 90.86h-87.53a2.18 2.18 0 0 1-2.177-2.175V31.37a2.18 2.18 0 0 1 2.176-2.177h87.53a2.18 2.18 0 0 1 2.178 2.177v57.315a2.18 2.18 0 0 1-2.176 2.176zm-87.53-61.413a1.925 1.925 0 0 0-1.924 1.923v57.315a1.925 1.925 0 0 0 1.923 1.922h87.53a1.923 1.923 0 0 0 1.924-1.922V31.37a1.923 1.923 0 0 0-1.923-1.923h-87.53z"/><path fill="#fff" d="M10.137 39.768v.254l85.954.24.002-.254-85.955-.24z"/><path fill="#fff" d="M29.13 29.407h-.255l.182 61.236h.253l-.18-61.236zm54.413-.197h-.254l.18 61.235h.255l-.182-61.236zm-17.727 0h-.254l.182 61.237h.254l-.182-61.236zm-18.398.002h-.254l.182 61.236h.254l-.182-61.236z"/><g opacity=".56"><path fill="#fff" d="M27.842 43.054H12.52a.12.12 0 0 0-.12.12v1.763c0 .067.053.12.12.12H27.84a.12.12 0 0 0 .12-.12v-1.762a.12.12 0 0 0-.12-.12zm0 5.89H12.52a.12.12 0 0 0-.12.12v1.763c0 .067.053.12.12.12H27.84a.12.12 0 0 0 .12-.12v-1.762a.12.12 0 0 0-.12-.12zm0 6.24H12.52a.12.12 0 0 0-.12.12v1.763c0 .066.053.12.12.12H27.84a.12.12 0 0 0 .12-.12v-1.763a.12.12 0 0 0-.12-.12zm0 19.3H12.52a.12.12 0 0 0-.12.12v1.763c0 .067.053.12.12.12H27.84a.12.12 0 0 0 .12-.12v-1.762a.12.12 0 0 0-.12-.12z"/><path fill="#FA8825" d="M28.478 63.75H13.156a.12.12 0 0 0-.12.12v1.763c0 .066.053.12.12.12h15.322a.12.12 0 0 0 .12-.12V63.87a.12.12 0 0 0-.12-.12z"/></g><g opacity=".56"><path fill="#fff" d="M45.892 43.253H30.57a.12.12 0 0 0-.12.12v1.763c0 .067.053.12.12.12h15.322a.12.12 0 0 0 .12-.12v-1.762a.12.12 0 0 0-.12-.12zm0 5.89H30.57a.12.12 0 0 0-.12.12v1.763c0 .066.053.12.12.12h15.322a.12.12 0 0 0 .12-.12v-1.763a.12.12 0 0 0-.12-.12zm0 13.41H30.57a.12.12 0 0 0-.12.12v1.763c0 .067.053.12.12.12h15.322a.12.12 0 0 0 .12-.12v-1.762a.12.12 0 0 0-.12-.12z"/><path fill="#FA8825" d="M45.892 68.443H30.57a.12.12 0 0 0-.12.12v1.763c0 .067.053.12.12.12h15.322a.12.12 0 0 0 .12-.12v-1.762a.12.12 0 0 0-.12-.12z"/><path fill="#fff" d="M45.892 74.683H30.57a.12.12 0 0 0-.12.12v1.763c0 .066.053.12.12.12h15.322a.12.12 0 0 0 .12-.12v-1.763a.12.12 0 0 0-.12-.12z"/></g><g opacity=".56"><path fill="#fff" d="M64.392 43.253H49.07a.12.12 0 0 0-.12.12v1.763c0 .067.053.12.12.12h15.322a.12.12 0 0 0 .12-.12v-1.762a.12.12 0 0 0-.12-.12z"/><path fill="#FA8825" d="M64.392 49.143H49.07a.12.12 0 0 0-.12.12v1.763c0 .066.053.12.12.12h15.322a.12.12 0 0 0 .12-.12v-1.763a.12.12 0 0 0-.12-.12z"/><path fill="#fff" d="M64.392 55.382H49.07a.12.12 0 0 0-.12.12v1.763c0 .067.053.12.12.12h15.322a.12.12 0 0 0 .12-.12v-1.762a.12.12 0 0 0-.12-.12zm0 13.06H49.07a.12.12 0 0 0-.12.122v1.762c0 .067.053.12.12.12h15.322a.12.12 0 0 0 .12-.12v-1.762a.12.12 0 0 0-.12-.12zm0 6.24H49.07a.12.12 0 0 0-.12.12v1.764c0 .066.053.12.12.12h15.322a.12.12 0 0 0 .12-.12v-1.763a.12.12 0 0 0-.12-.12z"/></g><g opacity=".56"><path fill="#fff" d="M82.19 43.63H66.866a.12.12 0 0 0-.12.122v1.762c0 .067.053.12.12.12h15.322a.12.12 0 0 0 .12-.12v-1.762a.12.12 0 0 0-.12-.12z"/><path fill="#FA8825" d="M82.19 55.76H66.866a.12.12 0 0 0-.12.12v1.763c0 .067.053.12.12.12h15.322a.12.12 0 0 0 .12-.12V55.88a.12.12 0 0 0-.12-.12z"/><path fill="#fff" d="M82.19 62.93H66.866a.12.12 0 0 0-.12.122v1.762c0 .067.053.12.12.12h15.322a.12.12 0 0 0 .12-.12v-1.762a.12.12 0 0 0-.12-.12zm0 5.89H66.866a.12.12 0 0 0-.12.122v1.762c0 .067.053.12.12.12h15.322a.12.12 0 0 0 .12-.12v-1.762a.12.12 0 0 0-.12-.12zm0 6.24H66.866a.12.12 0 0 0-.12.12v1.764c0 .066.053.12.12.12h15.322a.12.12 0 0 0 .12-.12V75.18a.12.12 0 0 0-.12-.12z"/></g><g opacity=".56"><path fill="#FA8825" d="M100.228 43.63H84.906a.12.12 0 0 0-.12.122v1.762c0 .067.053.12.12.12h15.322a.12.12 0 0 0 .12-.12v-1.762a.12.12 0 0 0-.12-.12z"/><path fill="#fff" d="M100.228 49.52H84.906a.12.12 0 0 0-.12.12v1.764c0 .066.053.12.12.12h15.322a.12.12 0 0 0 .12-.12V49.64a.12.12 0 0 0-.12-.12zm0 13.41H84.906a.12.12 0 0 0-.12.122v1.762c0 .067.053.12.12.12h15.322a.12.12 0 0 0 .12-.12v-1.762a.12.12 0 0 0-.12-.12zm0 12.13H84.906a.12.12 0 0 0-.12.12v1.764c0 .066.053.12.12.12h15.322a.12.12 0 0 0 .12-.12V75.18a.12.12 0 0 0-.12-.12z"/></g><path fill="#FA8825" d="M15.212 32.145h8.952a.073.073 0 0 1 .073.073v4.247a.332.332 0 0 1-.333.333h-8.586a.333.333 0 0 1-.334-.333v-4.093a.225.225 0 0 1 .228-.227zm18.465 0h8.952a.072.072 0 0 1 .05.02.073.073 0 0 1 .02.053v4.247a.333.333 0 0 1-.33.333H33.78a.333.333 0 0 1-.333-.333v-4.093a.226.226 0 0 1 .225-.225l.002-.002zm18.28 0h8.954a.073.073 0 0 1 .073.073v4.247a.333.333 0 0 1-.333.333h-8.586a.333.333 0 0 1-.334-.333v-4.093a.226.226 0 0 1 .226-.225l.002-.002zm18.493 0h8.953a.073.073 0 0 1 .072.073v4.247a.333.333 0 0 1-.333.333h-8.586a.333.333 0 0 1-.333-.333v-4.093a.226.226 0 0 1 .225-.225l.002-.002zm17.176 0h8.953a.073.073 0 0 1 .07.073v4.247a.333.333 0 0 1-.332.333h-8.586a.333.333 0 0 1-.334-.333v-4.093a.226.226 0 0 1 .228-.227z"/><path fill="url(#b)" d="M57.548 56.1c-.038.126.414.314.68-.193.01-.244.157-1.287.012-1.486-.776-1.056-2.278-2.38-2.278-2.38-.254.25-.045.497-.045.497l.73.76c-.153.275-.34.507-.427.84-.064.255-.027.525.102.754.128.23.3.53.468.765.312.443.758.446.758.446z"/><path fill="url(#c)" d="m56.963 53.79.664.564.21.56-.593.658s-.2-1.113-.347-1.354c-.148-.24-.072-.36.066-.43z"/><path fill="url(#d)" d="M70.593 97.573s.168.95.25 1.89a.65.65 0 0 1-.62.703c-1.252.052-3.93.154-4.894.11a.215.215 0 0 1-.2-.19.212.212 0 0 1 .014-.1.47.47 0 0 1 .242-.253L69.81 97.7l.783-.127z"/><path fill="url(#e)" d="m70.732 97.015-.135 1.136s-.775.362-1.304-.044l.32-1.267 1.12.175z"/><path fill="url(#f)" d="M70.632 75.65c.058.297.312 14.81-1.24 21.313a.22.22 0 0 0 .13.257c.404.156.83.243 1.264.257a.38.38 0 0 0 .376-.273c.444-1.51 2.57-9.07 2.846-16.29.31-8.07 0-.276 0-.276l-.182-4.988h-3.194z"/><path fill="url(#g)" d="M75.684 98.07s.267.48.527 1.753a.394.394 0 0 1-.347.473c-.414.04-1.05.093-1.56.09a.39.39 0 0 1-.293-.132.4.4 0 0 1-.097-.308c.056-.465.233-1.228.776-1.823l.994-.054z"/><path fill="url(#h)" d="m75.918 96.608-.315 1.718s-.31.232-.927.064l.15-1.85 1.093.067z"/><path fill="url(#i)" d="M76.77 76.096c1.268 7.657-.276 18.925-.797 21.13a.343.343 0 0 1-.277.26 2.31 2.31 0 0 1-.992-.04.315.315 0 0 1-.226-.29c-.07-1.782.055-12.727-1.127-17.052a.982.982 0 0 0-.378-.543l-2.296-1.63-.176-2.635 6.27.8z"/><path fill="url(#j)" d="M68.688 61.587c3.802-.063 7.998.998 7.998.998 1.133 6.614.198 14.24.198 14.24-2.944.773-6.264-.47-6.264-.47-.49-2.765-2.772-10.544-2.772-10.544-1.858-.23-3.388-.766-4.65-1.474.963-1.114 1.416-2.532 1.613-3.37 1.345.417 2.705.64 3.878.62z"/><path fill="url(#k)" d="M57.457 55.986c.373-.45.846-.237.846-.237.56 2.362 3.494 4.28 6.508 5.215-.196.84-.65 2.256-1.61 3.37-5.003-2.812-5.743-8.348-5.743-8.348z"/><path fill="url(#l)" d="m75.227 66.267 1.458-3.682s3.55 2.415 4.135 5.473c-.67.05-1.892.226-3.087.828-.263-1.445-2.506-2.62-2.506-2.62z"/><path fill="url(#m)" d="m72.537 58.5 1.21 3.5a.126.126 0 0 1-.058.15c-.33.183-1.52.71-2.95-.198a.594.594 0 0 1-.274-.424l-.392-3.028h2.463z"/><path fill="url(#n)" d="M69.904 55.26s-1.33 2.5-1.158 3.51c.17 1.01 1.816.94 3.254.118l1.005-2.7-3.1-.928z"/><path fill="url(#o)" d="M71.94 57.56a.105.105 0 0 1-.058-.064.105.105 0 0 1 .012-.085c.107-.162.307-.494.37-.784 0 0 .24-.153-.608-.356-.846-.202-2.108-.517-2.375-1.238-.257-.702.423-2.47 1.507-1.06a.104.104 0 0 0 .128.03.104.104 0 0 0 .036-.03c.178-.233.646-.713 1.295-.42.607.27.678.716.667.94a.103.103 0 0 0 .122.105c.307-.06 1.044-.11 1.388.647.283.622.1.975-.07 1.147a.103.103 0 0 0-.025.1.1.1 0 0 0 .07.072c.202.062.462.233.436.706-.037.653-.767.596-.974.564a.103.103 0 0 0-.093.033c-.178.197-.983 1.035-1.852 1.137a.103.103 0 0 1-.093-.04.103.103 0 0 1-.016-.098l.376-1.094a.103.103 0 0 0-.056-.13l-.187-.08z"/><path fill="url(#p)" d="M71.787 57.718s.947-.65 1.017-.103c.07.546-.852.79-1.308.588l.29-.485z"/><path fill="url(#q)" d="M77.734 68.885s1.243 5.6.117 8.75c1.38.64 1.125.517 1.125.517s2.727-7.967 1.847-10.094c-1.736-.184-2.597.282-3.088.827z"/><path fill="url(#r)" d="M77.848 77.634s-.71.92-.653 1.285c.056.366.07.515.07.515s.357-.244.335-.556c-.05.99-.38 2.114-.08 2.06.3-.054 1.86-1.492 1.508-3.024-.8-.556-1.026-.496-1.18-.282z"/><path fill="url(#s)" d="M78.267 35.358c.015-.006 8.137-14.23 9.235-15.568a.85.85 0 0 1 .76-.306l2.266.27 2.663 5.76-4.436-2.584c.44 3.037-5.26 7.55-7.215 9.196a.448.448 0 0 0-.037.654l.78.817c-1.28 1.298-2.76 2.132-4.427 2.518l.41-.757z"/><path fill="url(#t)" d="M81.834 33.157s.498.16.666.605a.508.508 0 0 1-.19.585c-.82.587-3.526 2.484-4.775 2.856a.14.14 0 0 1-.176-.167c.063-.29.27-.87.938-1.716l-.06.12a.173.173 0 0 0 .24.23c.835-.47 2.535-1.504 3.356-2.513z"/><path fill="url(#u)" d="M81.428 38.85c.013-.01 1.232-2.946 1.246-2.955 1.118-6.803 3.844-12.63 4.648-14.162a.852.852 0 0 1 .682-.45l2.275-.196 3.773 5.104-4.868-1.632c1.044 2.885-3.624 8.458-5.206 10.466a.45.45 0 0 0 .097.648l.93.642c-.992 1.53-2.27 2.647-3.827 3.362l.248-.828z"/><path fill="url(#v)" d="M84.48 35.972s.52.057.775.457a.508.508 0 0 1-.068.61c-.685.74-2.95 3.147-4.097 3.765a.14.14 0 0 1-.14-.005.14.14 0 0 1-.067-.122c.004-.297.09-.906.572-1.87l-.034.13a.174.174 0 0 0 .282.175c.72-.632 2.178-1.987 2.778-3.14z"/><path fill="url(#w)" d="M100.93 20.012s2.06 3.06 2.228 4.457c.168 1.395-.57 1.878-2.723 2.056-6.41.53-9.57-1.393-9.57-1.393-.438-2.796-.75-3.507-4.412-5.027 0 0 4.63.368 5.564.006.933-.362 8.914-.1 8.914-.1z"/><path fill="url(#x)" d="M92.723 2.864s1.433-1.695 2.957.384c.276.377 1.335.066 1.724.855a1 1 0 0 0 1.08.556c1.113-.206 2.93-.223 3.827 1.52.686 1.33.157 2.107-.526 2.552-.502.325-.682.987-.376 1.504.29.494.346 1.166-.407 1.973-1.687 1.805-5.028-1.15-5.028-1.15L93.32 4.794l-.597-1.93z"/><path fill="url(#y)" d="M95.362 19.607s-2.396-2.282-3.576-3.793a3.207 3.207 0 0 1-.543-2.886c.54-1.815 1.496-3.694 1.583-3.987.134-.447 2.82-.43 2.82-.43s5.288 3.433 7.365 9.246l-2.333.727s-1.38-2.317-2.744-3.79c0 0 2.36 3.12 2.443 4.395l-5.014.52z"/><path fill="url(#z)" d="m90.797 20.507 1.8-1.957 2.08.56s2.424.376 3.812 0l1.387-.377 3.135-.976.493 1.393a.845.845 0 0 1-.306.963c-.273.192-.59.404-.792.493-.414.18-9.512.057-9.512.057l-2.1-.156z"/><path fill="url(#A)" d="m93.802 5.28 1.808 3.36c-.12.733-1.965.753-2.25.316a.44.44 0 0 1-.058-.148l-1.08-2.243c-.046-.22.554-.957.75-1.062l.718-.382c.277-.146-.877-.158.113.162z"/><path fill="url(#B)" d="M90.145 4.493s-.204 1.135.688 2.577c.89 1.443 1.78 1.378 2.23.863.452-.515.992-1.37.746-2.81-.246-1.438-3.357-2.077-3.665-.63z"/><path fill="url(#C)" d="M92.73 5.28s-1.445-1.897-2.553-.244l.02.57s-1.443-.066-1.287-1.395c.157-1.327 1.333-2.235 2.965-1.78 1.632.453 2.585.97 2.77 2.103.183 1.132-.74.947-.74.947s-.355-.78-.78-.835c-.428-.053-.274.565-.274.565l-.12.07z"/><path fill="url(#D)" d="M93.06 5.23s-.748-.972-.067-1.173c.68-.202.655.95.61 1.38l-.543-.208z"/><path fill="url(#E)" d="M96.758 21.282h-.02l-8.28-.01a.37.37 0 0 1 0-.74l8.28.01a.37.37 0 0 1 .02.74z"/><path fill="url(#F)" d="M81.01 13.763h6.898a1.314 1.314 0 0 1 1.19.753l3.187 6.76h-8.57a.8.8 0 0 1-.743-.503L80.5 14.517a.55.55 0 0 1 .51-.754z"/><path fill="#7D97F4" d="M85.87 17.23c.15.464.037.915-.247 1.007-.284.09-.64-.21-.788-.675-.148-.464-.037-.915.247-1.007.284-.092.637.21.788.674z"/><path fill="#91B3FA" d="M1.625 102.213H54.87V91.556H1.626c1.14 0 1.14 10.657 0 10.657z"/><path fill="url(#G)" d="M54.87 99.546v-4.878c0-1.72-1.055-3.113-2.35-3.113H1.847A1.848 1.848 0 0 1 0 89.707a.562.562 0 0 1 .562-.56h55.38c1.27 0 3.287 1.995 3.287 4.46v6.81c0 2.323-1.96 4.206-3.156 4.206H.854a.85.85 0 0 1-.854-.854 1.555 1.555 0 0 1 1.557-1.558h51.298c1.113 0 2.015-1.193 2.015-2.666z"/><path fill="url(#H)" d="M53.392 93.87H3.467a.126.126 0 0 1-.118-.176.127.127 0 0 1 .117-.08h49.925a.127.127 0 0 1 0 .255z"/><path fill="url(#I)" d="M53.392 95.45H3.467a.126.126 0 0 1-.118-.174.127.127 0 0 1 .117-.08h49.925a.127.127 0 1 1 0 .255z"/><path fill="url(#J)" d="M53.392 97.032H3.467a.126.126 0 0 1-.118-.175.126.126 0 0 1 .117-.078h49.925a.127.127 0 0 1 0 .253z"/><path fill="url(#K)" d="M53.392 98.615H3.467a.127.127 0 0 1 0-.254h49.925a.127.127 0 1 1 0 .255z"/><path fill="url(#L)" d="M53.393 100.196H3.468a.122.122 0 0 1-.085-.04.128.128 0 0 1 0-.174.127.127 0 0 1 .085-.04h49.925a.127.127 0 0 1 0 .254z"/><path fill="url(#M)" d="M12.278 90.05H54.54c.296 0 .535-.24.535-.534v-9.39a.535.535 0 0 0-.535-.534H12.28a.535.535 0 0 0-.536.535v9.39c0 .295.24.534.535.534z"/><path fill="url(#N)" d="M45.358 88.85h4.545c.15 0 .273-.123.273-.273v-7.51a.273.273 0 0 0-.273-.273h-4.545a.273.273 0 0 0-.273.273v7.51c0 .15.122.272.273.272z"/><path fill="url(#O)" d="M42.568 88.85h1.634a.138.138 0 0 0 .138-.14v-7.778a.138.138 0 0 0-.138-.138h-1.634a.138.138 0 0 0-.138.138v7.78c0 .075.062.137.138.137z"/><path fill="url(#P)" d="M27.963 52.195c-.024.047-1.565 1.18-1.565 1.18s.34 2.432 1.722 3.393c1.517 1.056 3.662-.87 3.662-.87s1.706.405 2.613-3.146c.208-.815-.993-.884-2.443-.734-1.87.194-3.99.177-3.99.177z"/><path fill="url(#Q)" d="M25.086 60.495a6.505 6.505 0 0 1 1.975-.92c.266-.07 1.698.345 2.583.325 1.215-.028 2.452-.58 3.454-.332.995.248 1.81.572 2.28.907 1.406 1 2.233 2.867 2.736 4.716-.953.98-2.153 1.414-2.153 1.414l-.222 8.987-5.314 2.72-6.065-3.045.216-8.78s-1.926-.898-2.067-1.224c-.142-.325.877-3.595 2.576-4.765z"/><path fill="url(#R)" d="M22.6 65.22s-2.582 7.156 3.303 10.097c1.222-.163.753-2.192.753-2.192s-2.557-.565-1.79-6.535c-.707-.582-2.267-1.37-2.267-1.37z"/><path fill="url(#S)" d="M37.99 65.22s1.776 7.47-3.305 10.097c-1.222-.163-.753-2.192-.753-2.192s2.06-1.017 1.79-6.535c.707-.582 2.268-1.37 2.268-1.37z"/><path fill="url(#T)" d="M35.628 67.95H24.603a.314.314 0 0 0-.314.313v7.243c0 .173.14.313.313.313h11.025c.173 0 .314-.14.314-.314v-7.243a.314.314 0 0 0-.314-.313z"/><path fill="url(#U)" d="M41.053 78.154c-1.333-.306-4.415-.142-4.415-.142l-.126.34-.207 1.684s2.936.53 4.382.527a1.4 1.4 0 0 0 .406-.06c.044-.04.087-.08.127-.125.615-.67.437-1.654-.167-2.224z"/><path fill="url(#V)" d="M41.187 78.185a2.727 2.727 0 0 0-.132-.033c.602.572.78 1.557.167 2.227a1.51 1.51 0 0 1-.128.124c1.085-.337 1.214-2.003.093-2.32z"/><path fill="url(#W)" d="m35.75 77.915.522.023a1.006 1.006 0 0 1 .733.38c.19.238.287.54.268.845a.97.97 0 0 1-.282.644.79.79 0 0 1-.61.232l-.798-.058.168-2.067z"/><path fill="url(#X)" d="M18.202 77.99c1.34-.264 4.417-.006 4.417-.006l.116.343.166 1.694s-2.948.44-4.394.395a1.376 1.376 0 0 1-.404-.074 1.853 1.853 0 0 1-.125-.128c-.598-.69-.396-1.67.222-2.222z"/><path fill="url(#Y)" d="m18.07 78.02.13-.03c-.617.553-.82 1.532-.22 2.22.04.046.08.09.123.13-1.077-.37-1.164-2.04-.035-2.32z"/><path fill="url(#Z)" d="m23.51 77.916-.524.006a1 1 0 0 0-.742.357c-.197.232-.3.53-.29.836a.98.98 0 0 0 .266.653.796.796 0 0 0 .605.25l.8-.033-.116-2.07z"/><path fill="url(#aa)" d="M41.428 72.862c-.605-1.393-2.084-1.62-3.343-.967-.022.03-7.995 4.115-15.026 5.906a7.62 7.62 0 0 1 .326 2.008c.004.15.002.298-.007.445 5.39-.277 11.242-2.076 16.27-3.656 1.56-.503 2.448-2.192 1.778-3.735z"/><path fill="url(#ab)" d="M35.79 79.914a4.64 4.64 0 0 1 .45-2.173l.03-.09a62.97 62.97 0 0 1-1.6-.523c-4.993-1.71-8.802-3.434-12.438-5.42-1.412-.773-3.018-.256-3.47 1.415-.403 1.492.483 2.766 1.828 3.213 4.024 1.34 1.93.967 3.243 1.39 3.53 1.092 7.922 2.086 11.963 2.357l-.007-.168z"/><path fill="url(#ac)" d="M27.06 59.576s.536 2.327 3.143 2.278c2.655-.048 2.892-2.286 2.892-2.286l-1.735-.37-.145-1.934-2.61.194-.047 1.835-1.5.283z"/><path fill="url(#ad)" d="M28.975 51.79s-2.99 5.79.557 7.195c2.5.992 4.07-3.846 3.602-5.157-.723-2.026-1.2-1.786-1.2-1.786l-2.96-.253z"/><path fill="url(#ae)" d="M33.852 51.262c1.478.405.215 3.61-2.01 2.85-2.223-.756-3.096-.745-3.443-.134-.348.61-.42 2.78-1.174 1.707-.824-1.175-1.284-3.534-.273-4.294.904-.677 1.114-1.73 2.197-1.696 1.44.05 2.55-.59 3.2-.13.745.53.416 1.4 1.502 1.698z"/><path fill="url(#af)" d="M28.262 54.474s-.637-.686-.74.14c-.1.828.227 1.893.61 1.31.384-.584.13-1.45.13-1.45z"/><path fill="#7D97F4" d="M30.803 70.08c.06.418-.162.797-.58.86a.765.765 0 0 1-.868-.645c-.062-.418.13-.833.547-.894.418-.06.84.263.9.68z"/></g><defs><linearGradient id="b" x1="54.633" x2="66.76" y1="50.273" y2="70.376" gradientUnits="userSpaceOnUse"><stop stop-color="#A22B25"/><stop offset="1" stop-color="#C0423C"/></linearGradient><linearGradient id="c" x1="63.428" x2="56.7" y1="62.762" y2="54.004" gradientUnits="userSpaceOnUse"><stop stop-color="#A22B25"/><stop offset="1" stop-color="#C0423C"/></linearGradient><linearGradient id="d" x1="65.471" x2="81.675" y1="96.26" y2="113.887" gradientUnits="userSpaceOnUse"><stop stop-color="#09005D"/><stop offset="1" stop-color="#1A0F91"/></linearGradient><linearGradient id="e" x1="70.732" x2="69.293" y1="97.569" y2="97.569" gradientUnits="userSpaceOnUse"><stop stop-color="#A22B25"/><stop offset="1" stop-color="#C0423C"/></linearGradient><linearGradient id="f" x1="64.197" x2="77.986" y1="76.327" y2="95.016" gradientUnits="userSpaceOnUse"><stop stop-color="#09005D"/><stop offset="1" stop-color="#1A0F91"/></linearGradient><linearGradient id="g" x1="69.106" x2="85.311" y1="92.918" y2="110.544" gradientUnits="userSpaceOnUse"><stop stop-color="#09005D"/><stop offset="1" stop-color="#1A0F91"/></linearGradient><linearGradient id="h" x1="75.918" x2="74.675" y1="97.496" y2="97.496" gradientUnits="userSpaceOnUse"><stop stop-color="#A22B25"/><stop offset="1" stop-color="#C0423C"/></linearGradient><linearGradient id="i" x1="66.652" x2="80.441" y1="74.514" y2="93.203" gradientUnits="userSpaceOnUse"><stop stop-color="#09005D"/><stop offset="1" stop-color="#1A0F91"/></linearGradient><linearGradient id="j" x1="71.315" x2="70.934" y1="15.438" y2="33.59" gradientUnits="userSpaceOnUse"><stop stop-color="#FF928E"/><stop offset="1" stop-color="#FE7062"/></linearGradient><linearGradient id="k" x1="55.415" x2="67.543" y1="49.801" y2="69.904" gradientUnits="userSpaceOnUse"><stop stop-color="#A22B25"/><stop offset="1" stop-color="#C0423C"/></linearGradient><linearGradient id="l" x1="79.105" x2="78.724" y1="15.602" y2="33.754" gradientUnits="userSpaceOnUse"><stop stop-color="#FF928E"/><stop offset="1" stop-color="#FE7062"/></linearGradient><linearGradient id="m" x1="71.914" x2="71.914" y1="57.481" y2="64.272" gradientUnits="userSpaceOnUse"><stop stop-color="#A22B25"/><stop offset="1" stop-color="#C0423C"/></linearGradient><linearGradient id="n" x1="214.482" x2="210.72" y1="-243.607" y2="-235.756" gradientUnits="userSpaceOnUse"><stop stop-color="#A22B25"/><stop offset="1" stop-color="#C0423C"/></linearGradient><linearGradient id="o" x1="74.634" x2="69.376" y1="53.593" y2="57.742" gradientUnits="userSpaceOnUse"><stop stop-color="#09005D"/><stop offset="1" stop-color="#1A0F91"/></linearGradient><linearGradient id="p" x1="215.824" x2="212.062" y1="-242.965" y2="-235.113" gradientUnits="userSpaceOnUse"><stop stop-color="#A22B25"/><stop offset="1" stop-color="#C0423C"/></linearGradient><linearGradient id="q" x1="77.762" x2="86.83" y1="68.786" y2="92.167" gradientUnits="userSpaceOnUse"><stop stop-color="#A22B25"/><stop offset="1" stop-color="#C0423C"/></linearGradient><linearGradient id="r" x1="74.585" x2="83.654" y1="70.017" y2="93.398" gradientUnits="userSpaceOnUse"><stop stop-color="#A22B25"/><stop offset="1" stop-color="#C0423C"/></linearGradient><linearGradient id="s" x1="76.32" x2="89.125" y1="23.442" y2="30.751" gradientUnits="userSpaceOnUse"><stop stop-color="#FEBBBA"/><stop offset="1" stop-color="#FF928E"/></linearGradient><linearGradient id="t" x1="217.738" x2="208.258" y1="282.278" y2="265.298" gradientUnits="userSpaceOnUse"><stop stop-color="#09005D"/><stop offset="1" stop-color="#1A0F91"/></linearGradient><linearGradient id="u" x1="77.557" x2="33.744" y1="25.265" y2="-2.163" gradientUnits="userSpaceOnUse"><stop stop-color="#FEBBBA"/><stop offset="1" stop-color="#FF928E"/></linearGradient><linearGradient id="v" x1="342.968" x2="330.319" y1="340.724" y2="326.001" gradientUnits="userSpaceOnUse"><stop stop-color="#09005D"/><stop offset="1" stop-color="#1A0F91"/></linearGradient><linearGradient id="w" x1="88.316" x2="98.847" y1="14.265" y2="25.807" gradientUnits="userSpaceOnUse"><stop stop-color="#09005D"/><stop offset="1" stop-color="#1A0F91"/></linearGradient><linearGradient id="x" x1="90.536" x2="96.104" y1="-1.384" y2="5.043" gradientUnits="userSpaceOnUse"><stop stop-color="#09005D"/><stop offset="1" stop-color="#1A0F91"/></linearGradient><linearGradient id="y" x1="118.215" x2="104.506" y1="31.496" y2="20.96" gradientUnits="userSpaceOnUse"><stop stop-color="#FF928E"/><stop offset="1" stop-color="#FE7062"/></linearGradient><linearGradient id="z" x1="98.747" x2="111.503" y1="19.229" y2="19.229" gradientUnits="userSpaceOnUse"><stop stop-color="#FEBBBA"/><stop offset="1" stop-color="#FF928E"/></linearGradient><linearGradient id="A" x1="93.553" x2="93.848" y1="13.129" y2="8.534" gradientUnits="userSpaceOnUse"><stop stop-color="#FEBBBA"/><stop offset="1" stop-color="#FF928E"/></linearGradient><linearGradient id="B" x1="93.988" x2="88.437" y1="9.248" y2="-1.375" gradientUnits="userSpaceOnUse"><stop stop-color="#FEBBBA"/><stop offset="1" stop-color="#FF928E"/></linearGradient><linearGradient id="C" x1="87.052" x2="94.824" y1="3.223" y2="4.783" gradientUnits="userSpaceOnUse"><stop stop-color="#09005D"/><stop offset="1" stop-color="#1A0F91"/></linearGradient><linearGradient id="D" x1="95.258" x2="89.707" y1="8.584" y2="-2.039" gradientUnits="userSpaceOnUse"><stop stop-color="#FEBBBA"/><stop offset="1" stop-color="#FF928E"/></linearGradient><linearGradient id="E" x1="98.163" x2="91.589" y1="19.08" y2="21.237" gradientUnits="userSpaceOnUse"><stop stop-color="#4F52FF"/><stop offset="1" stop-color="#4042E2"/></linearGradient><linearGradient id="F" x1="80.843" x2="140.859" y1="18.008" y2="12.959" gradientUnits="userSpaceOnUse"><stop stop-color="#09005D"/><stop offset="1" stop-color="#1A0F91"/></linearGradient><linearGradient id="G" x1="49.874" x2="74.88" y1="76.682" y2="52.945" gradientUnits="userSpaceOnUse"><stop stop-color="#4F52FF"/><stop offset="1" stop-color="#4042E2"/></linearGradient><linearGradient id="H" x1="3.34" x2="53.519" y1="93.742" y2="93.742" gradientUnits="userSpaceOnUse"><stop stop-color="#DAE3FE"/><stop offset="1" stop-color="#E9EFFD"/></linearGradient><linearGradient id="I" x1="3.34" x2="53.519" y1="95.324" y2="95.324" gradientUnits="userSpaceOnUse"><stop stop-color="#DAE3FE"/><stop offset="1" stop-color="#E9EFFD"/></linearGradient><linearGradient id="J" x1="3.34" x2="53.519" y1="96.906" y2="96.906" gradientUnits="userSpaceOnUse"><stop stop-color="#DAE3FE"/><stop offset="1" stop-color="#E9EFFD"/></linearGradient><linearGradient id="K" x1="3.34" x2="53.519" y1="98.488" y2="98.488" gradientUnits="userSpaceOnUse"><stop stop-color="#DAE3FE"/><stop offset="1" stop-color="#E9EFFD"/></linearGradient><linearGradient id="L" x1="3.341" x2="53.52" y1="100.07" y2="100.07" gradientUnits="userSpaceOnUse"><stop stop-color="#DAE3FE"/><stop offset="1" stop-color="#E9EFFD"/></linearGradient><linearGradient id="M" x1="30.423" x2="32.336" y1="217.426" y2="132.457" gradientUnits="userSpaceOnUse"><stop stop-color="#09005D"/><stop offset="1" stop-color="#1A0F91"/></linearGradient><linearGradient id="N" x1="57.787" x2="32.651" y1="67.101" y2="110.956" gradientUnits="userSpaceOnUse"><stop stop-color="#4F52FF"/><stop offset="1" stop-color="#4042E2"/></linearGradient><linearGradient id="O" x1="54.415" x2="29.8" y1="65.578" y2="108.523" gradientUnits="userSpaceOnUse"><stop stop-color="#4F52FF"/><stop offset="1" stop-color="#4042E2"/></linearGradient><linearGradient id="P" x1="37.161" x2="30.849" y1="43.888" y2="52.859" gradientUnits="userSpaceOnUse"><stop stop-color="#09005D"/><stop offset="1" stop-color="#1A0F91"/></linearGradient><linearGradient id="Q" x1="31.366" x2="30.985" y1="14.6" y2="32.752" gradientUnits="userSpaceOnUse"><stop stop-color="#FF928E"/><stop offset="1" stop-color="#FE7062"/></linearGradient><linearGradient id="R" x1="26.245" x2="36.342" y1="75.289" y2="99.681" gradientUnits="userSpaceOnUse"><stop stop-color="#FEBBBA"/><stop offset="1" stop-color="#FF928E"/></linearGradient><linearGradient id="S" x1="39.182" x2="29.084" y1="63.244" y2="87.636" gradientUnits="userSpaceOnUse"><stop stop-color="#FEBBBA"/><stop offset="1" stop-color="#FF928E"/></linearGradient><linearGradient id="T" x1="30.25" x2="29.725" y1="66.448" y2="87.71" gradientUnits="userSpaceOnUse"><stop stop-color="#09005D"/><stop offset="1" stop-color="#1A0F91"/></linearGradient><linearGradient id="U" x1="36.311" x2="41.829" y1="79.237" y2="79.28" gradientUnits="userSpaceOnUse"><stop stop-color="#4F52FF"/><stop offset="1" stop-color="#4042E2"/></linearGradient><linearGradient id="V" x1="42.633" x2="42.125" y1="48.465" y2="62.174" gradientUnits="userSpaceOnUse"><stop stop-color="#4F52FF"/><stop offset="1" stop-color="#4042E2"/></linearGradient><linearGradient id="W" x1="39.951" x2="34.126" y1="69.291" y2="85.068" gradientUnits="userSpaceOnUse"><stop stop-color="#FEBBBA"/><stop offset="1" stop-color="#FF928E"/></linearGradient><linearGradient id="X" x1="22.966" x2="17.445" y1="79.228" y2="79.118" gradientUnits="userSpaceOnUse"><stop stop-color="#4F52FF"/><stop offset="1" stop-color="#4042E2"/></linearGradient><linearGradient id="Y" x1="18.875" x2="18.367" y1="47.585" y2="61.294" gradientUnits="userSpaceOnUse"><stop stop-color="#4F52FF"/><stop offset="1" stop-color="#4042E2"/></linearGradient><linearGradient id="Z" x1="28.284" x2="22.456" y1="64.537" y2="80.322" gradientUnits="userSpaceOnUse"><stop stop-color="#FEBBBA"/><stop offset="1" stop-color="#FF928E"/></linearGradient><linearGradient id="aa" x1="38.075" x2="35.155" y1="47.655" y2="62.126" gradientUnits="userSpaceOnUse"><stop stop-color="#4F52FF"/><stop offset="1" stop-color="#4042E2"/></linearGradient><linearGradient id="ab" x1="28.728" x2="24.759" y1="79.189" y2="69.069" gradientUnits="userSpaceOnUse"><stop stop-color="#4F52FF"/><stop offset="1" stop-color="#4042E2"/></linearGradient><linearGradient id="ac" x1="30.143" x2="30.008" y1="65.31" y2="53.62" gradientUnits="userSpaceOnUse"><stop stop-color="#FEBBBA"/><stop offset="1" stop-color="#FF928E"/></linearGradient><linearGradient id="ad" x1="29.758" x2="31.806" y1="58.819" y2="48.846" gradientUnits="userSpaceOnUse"><stop stop-color="#FEBBBA"/><stop offset="1" stop-color="#FF928E"/></linearGradient><linearGradient id="ae" x1="37.42" x2="30.318" y1="42.522" y2="52.617" gradientUnits="userSpaceOnUse"><stop stop-color="#09005D"/><stop offset="1" stop-color="#1A0F91"/></linearGradient><linearGradient id="af" x1="28.401" x2="26.932" y1="60.147" y2="44.26" gradientUnits="userSpaceOnUse"><stop stop-color="#FEBBBA"/><stop offset="1" stop-color="#FF928E"/></linearGradient><clipPath id="a"><path fill="#fff" d="M0 0h105v104.622H0z"/></clipPath></defs></svg>