<svg width="95" height="95" viewBox="0 0 95 95" fill="none" xmlns="http://www.w3.org/2000/svg">
<circle cx="47.5" cy="47.5" r="46.9612" stroke="#6651E7" stroke-width="1.07759" stroke-dasharray="8.62 8.62"/>
<circle cx="47.5004" cy="47.4999" r="38.8636" fill="#6651E7"/>
<path d="M36.1121 58.2271V43.9771H31.9121V39.4771H35.0621C35.7621 39.4771 36.1121 39.1271 36.1121 38.427V37.227H40.9121V58.2271H36.1121ZM59.8538 55.6471C58.1938 57.5671 56.0838 58.5271 53.5238 58.5271C50.9638 58.5271 48.8438 57.5671 47.1638 55.6471C45.5038 53.7071 44.6738 51.0671 44.6738 47.7271C44.6738 44.3871 45.5038 41.7571 47.1638 39.837C48.8438 37.897 50.9638 36.927 53.5238 36.927C56.0838 36.927 58.1938 37.897 59.8538 39.837C61.5338 41.7571 62.3738 44.3871 62.3738 47.7271C62.3738 51.0671 61.5338 53.7071 59.8538 55.6471ZM53.5238 53.8771C54.6438 53.8771 55.5938 53.3471 56.3738 52.2871C57.1738 51.2271 57.5738 49.7071 57.5738 47.7271C57.5738 45.747 57.1738 44.227 56.3738 43.167C55.5938 42.1071 54.6438 41.5771 53.5238 41.5771C52.3838 41.5771 51.4238 42.1071 50.6438 43.167C49.8638 44.227 49.4738 45.747 49.4738 47.7271C49.4738 49.7071 49.8638 51.2271 50.6438 52.2871C51.4238 53.3471 52.3838 53.8771 53.5238 53.8771Z" fill="white"/>
</svg>
