<svg width="95" height="95" viewBox="0 0 95 95" fill="none" xmlns="http://www.w3.org/2000/svg">
<circle cx="47.5" cy="47.5" r="46.9612" stroke="#6651E7" stroke-width="1.07759" stroke-dasharray="8.62 8.62"/>
<circle cx="47.5004" cy="47.4999" r="38.8636" fill="#6651E7"/>
<path d="M40.2985 58.2273V53.8773L48.8485 46.2273C49.2085 45.8873 49.4685 45.5673 49.6285 45.2673C49.8085 44.9473 49.8985 44.5173 49.8985 43.9773C49.8985 43.3573 49.6585 42.8273 49.1785 42.3873C48.6985 41.9473 48.0885 41.7273 47.3485 41.7273C46.5685 41.7273 45.9485 41.9673 45.4885 42.4473C45.0285 42.9273 44.7985 43.5873 44.7985 44.4273H39.9985C39.9985 42.1873 40.6885 40.3773 42.0685 38.9973C43.4485 37.6173 45.2585 36.9273 47.4985 36.9273C49.7185 36.9273 51.4985 37.5873 52.8385 38.9073C54.1785 40.2273 54.8485 41.9173 54.8485 43.9773C54.8485 45.2773 54.5585 46.3673 53.9785 47.2473C53.3985 48.1073 52.4885 49.0673 51.2485 50.1273L47.4985 53.4273V53.5773H54.9985V58.2273H40.2985Z" fill="white"/>
</svg>
