<svg width="95" height="95" viewBox="0 0 95 95" fill="none" xmlns="http://www.w3.org/2000/svg">
<circle cx="47.5" cy="47.5" r="46.9612" stroke="#6651E7" stroke-width="1.07759" stroke-dasharray="8.62 8.62"/>
<circle cx="47.5004" cy="47.4999" r="38.8636" fill="#6651E7"/>
<path d="M39.6252 51.6273H44.4252C44.4252 52.3273 44.6752 52.9073 45.1752 53.3673C45.6952 53.8073 46.3952 54.0273 47.2752 54.0273C48.1352 54.0273 48.8252 53.8073 49.3452 53.3673C49.8652 52.9273 50.1252 52.3973 50.1252 51.7773C50.1252 51.0773 49.8652 50.5073 49.3452 50.0673C48.8452 49.6073 48.1552 49.3773 47.2752 49.3773H45.7752V45.4773H47.2752C48.0952 45.4773 48.7252 45.2873 49.1652 44.9073C49.6052 44.5073 49.8252 43.9973 49.8252 43.3773C49.8252 42.8173 49.5952 42.3573 49.1352 41.9973C48.6952 41.6173 48.0752 41.4273 47.2752 41.4273C46.4552 41.4273 45.8252 41.6273 45.3852 42.0273C44.9452 42.4073 44.7252 42.9073 44.7252 43.5273H39.9252C39.9252 41.6873 40.6252 40.1273 42.0252 38.8473C43.4252 37.5673 45.2252 36.9273 47.4252 36.9273C49.5452 36.9273 51.2752 37.5273 52.6152 38.7273C53.9552 39.9273 54.6252 41.3673 54.6252 43.0473C54.6252 44.4273 54.1452 45.5773 53.1852 46.4973C52.7252 46.9173 52.2552 47.2273 51.7752 47.4273V47.5773C52.3752 47.8373 52.8952 48.1673 53.3352 48.5673C54.3952 49.5073 54.9252 50.7273 54.9252 52.2273C54.9252 54.0273 54.2352 55.5273 52.8552 56.7273C51.4952 57.9273 49.6852 58.5273 47.4252 58.5273C45.0652 58.5273 43.1752 57.8773 41.7552 56.5773C40.3352 55.2773 39.6252 53.6273 39.6252 51.6273Z" fill="white"/>
</svg>
