<svg width="95" height="95" viewBox="0 0 95 95" fill="none" xmlns="http://www.w3.org/2000/svg">
<circle cx="47.5" cy="47.5" r="46.9612" stroke="#6651E7" stroke-width="1.07759" stroke-dasharray="8.62 8.62"/>
<circle cx="47.5004" cy="47.4999" r="38.8636" fill="#6651E7"/>
<path d="M40.0031 52.0773H44.8031C44.8831 52.4573 45.0531 52.7873 45.3131 53.0673C45.9131 53.7073 46.6931 54.0273 47.6531 54.0273C48.4931 54.0273 49.1731 53.7773 49.6931 53.2773C50.2331 52.7573 50.5031 52.1073 50.5031 51.3273C50.5031 50.5473 50.2331 49.9073 49.6931 49.4073C49.1731 48.8873 48.4931 48.6273 47.6531 48.6273C46.7931 48.6273 46.1231 48.8273 45.6431 49.2273C45.4431 49.3873 45.2631 49.5873 45.1031 49.8273H40.3031L41.5031 37.2273H54.2531V41.5773H45.5531L45.2531 44.8773H45.4031C45.5631 44.7773 45.7831 44.6773 46.0631 44.5773C46.6631 44.3773 47.3431 44.2773 48.1031 44.2773C50.2031 44.2773 51.9231 44.9473 53.2631 46.2873C54.6231 47.6073 55.3031 49.2873 55.3031 51.3273C55.3031 53.4473 54.6031 55.1773 53.2031 56.5173C51.8031 57.8573 49.9531 58.5273 47.6531 58.5273C44.6731 58.5273 42.4931 57.4573 41.1131 55.3173C40.5331 54.3773 40.1631 53.2973 40.0031 52.0773Z" fill="white"/>
</svg>
