<svg width="95" height="95" viewBox="0 0 95 95" fill="none" xmlns="http://www.w3.org/2000/svg">
<circle cx="47.5" cy="47.5" r="46.9612" stroke="#6651E7" stroke-width="1.07759" stroke-dasharray="8.62 8.62"/>
<circle cx="47.5004" cy="47.4999" r="38.8636" fill="#6651E7"/>
<path d="M41.052 46.5273L47.052 37.2273H52.452L47.952 43.9773C50.052 43.9773 51.802 44.6673 53.202 46.0473C54.602 47.4273 55.302 49.1373 55.302 51.1773C55.302 53.2173 54.552 54.9573 53.052 56.3973C51.572 57.8173 49.722 58.5273 47.502 58.5273C45.282 58.5273 43.422 57.8173 41.922 56.3973C40.442 54.9573 39.702 53.2173 39.702 51.1773C39.702 49.4773 40.152 47.9273 41.052 46.5273ZM45.312 49.1373C44.772 49.6573 44.502 50.3373 44.502 51.1773C44.502 52.0173 44.772 52.7073 45.312 53.2473C45.872 53.7673 46.602 54.0273 47.502 54.0273C48.402 54.0273 49.122 53.7673 49.662 53.2473C50.222 52.7073 50.502 52.0173 50.502 51.1773C50.502 50.3373 50.222 49.6573 49.662 49.1373C49.122 48.5973 48.402 48.3273 47.502 48.3273C46.602 48.3273 45.872 48.5973 45.312 49.1373Z" fill="white"/>
</svg>
