<svg width="95" height="95" viewBox="0 0 95 95" fill="none" xmlns="http://www.w3.org/2000/svg">
<circle cx="47.5" cy="47.5" r="46.9612" stroke="#6651E7" stroke-width="1.07759" stroke-dasharray="8.62 8.62"/>
<circle cx="47.5004" cy="47.4999" r="38.8636" fill="#6651E7"/>
<path d="M42.852 47.5773V47.4273C42.332 47.1473 41.882 46.8073 41.502 46.4073C40.602 45.4673 40.152 44.3073 40.152 42.9273C40.152 41.2873 40.832 39.8773 42.192 38.6973C43.552 37.5173 45.322 36.9273 47.502 36.9273C49.682 36.9273 51.452 37.5173 52.812 38.6973C54.172 39.8773 54.852 41.2873 54.852 42.9273C54.852 44.3073 54.402 45.4673 53.502 46.4073C53.122 46.8073 52.672 47.1473 52.152 47.4273V47.5773C52.692 47.7973 53.192 48.1273 53.652 48.5673C54.652 49.5273 55.152 50.7473 55.152 52.2273C55.152 54.0273 54.462 55.5273 53.082 56.7273C51.702 57.9273 49.842 58.5273 47.502 58.5273C45.162 58.5273 43.302 57.9273 41.922 56.7273C40.542 55.5273 39.852 54.0273 39.852 52.2273C39.852 50.7473 40.352 49.5273 41.352 48.5673C41.812 48.1273 42.312 47.7973 42.852 47.5773ZM45.612 41.7273C45.172 42.1073 44.952 42.6073 44.952 43.2273C44.952 43.8473 45.172 44.3573 45.612 44.7573C46.052 45.1373 46.682 45.3273 47.502 45.3273C48.322 45.3273 48.952 45.1373 49.392 44.7573C49.832 44.3573 50.052 43.8473 50.052 43.2273C50.052 42.6073 49.832 42.1073 49.392 41.7273C48.952 41.3273 48.322 41.1273 47.502 41.1273C46.682 41.1273 46.052 41.3273 45.612 41.7273ZM45.402 49.9173C44.902 50.3773 44.652 50.9973 44.652 51.7773C44.652 52.5573 44.902 53.1773 45.402 53.6373C45.922 54.0973 46.622 54.3273 47.502 54.3273C48.382 54.3273 49.072 54.0973 49.572 53.6373C50.092 53.1773 50.352 52.5573 50.352 51.7773C50.352 50.9973 50.092 50.3773 49.572 49.9173C49.072 49.4573 48.382 49.2273 47.502 49.2273C46.622 49.2273 45.922 49.4573 45.402 49.9173Z" fill="white"/>
</svg>
