<svg width="95" height="95" viewBox="0 0 95 95" fill="none" xmlns="http://www.w3.org/2000/svg">
<circle cx="47.5" cy="47.5" r="46.9612" stroke="#6651E7" stroke-width="1.07759" stroke-dasharray="8.62 8.62"/>
<circle cx="47.5004" cy="47.4999" r="38.8636" fill="#6651E7"/>
<path d="M42.5531 58.2271L47.0531 51.4771C44.9531 51.4771 43.2031 50.7871 41.8031 49.4071C40.4031 48.0271 39.7031 46.3171 39.7031 44.277C39.7031 42.237 40.4431 40.5071 41.9231 39.0871C43.4231 37.647 45.2831 36.927 47.5031 36.927C49.7231 36.927 51.5731 37.647 53.0531 39.0871C54.5531 40.5071 55.3031 42.237 55.3031 44.277C55.3031 45.977 54.8531 47.5271 53.9531 48.9271L47.9531 58.2271H42.5531ZM45.3131 42.237C44.7731 42.757 44.5031 43.437 44.5031 44.277C44.5031 45.1171 44.7731 45.8071 45.3131 46.347C45.8731 46.8671 46.6031 47.1271 47.5031 47.1271C48.4031 47.1271 49.1231 46.8671 49.6631 46.347C50.2231 45.8071 50.5031 45.1171 50.5031 44.277C50.5031 43.437 50.2231 42.757 49.6631 42.237C49.1231 41.6971 48.4031 41.4271 47.5031 41.4271C46.6031 41.4271 45.8731 41.6971 45.3131 42.237Z" fill="white"/>
</svg>
