<?xml version="1.0" standalone="no"?>
<!DOCTYPE svg PUBLIC "-//W3C//DTD SVG 1.1//EN" "http://www.w3.org/Graphics/SVG/1.1/DTD/svg11.dtd" >
<svg xmlns="http://www.w3.org/2000/svg" xmlns:xlink="http://www.w3.org/1999/xlink" version="1.1">
<metadata>
Created by FontForge 20161003 at Mon Feb 13 15:01:58 2017
 By www-data
Copyright (c) 2012 by Pavel Emelyanov and Jovanny Lemonad. All rights reserved.
</metadata>
<defs>
<font id="ProstoRegular" horiz-adv-x="1331" >
  <font-face 
    font-family="ProstoRegular"
    font-weight="400"
    font-stretch="normal"
    units-per-em="2048"
    panose-1="2 0 5 5 6 0 0 2 0 4"
    ascent="1638"
    descent="-410"
    x-height="1065"
    cap-height="1434"
    bbox="-205 -492 2632 1884"
    underline-thickness="102"
    underline-position="-306"
    unicode-range="U+000D-E000"
  />
<missing-glyph horiz-adv-x="2048" 
 />
    <glyph glyph-name=".notdef" horiz-adv-x="2048" 
 />
    <glyph glyph-name="glyph1" horiz-adv-x="0" 
 />
    <glyph glyph-name="glyph2" horiz-adv-x="2048" 
 />
    <glyph glyph-name="uni000D" unicode="&#xd;" horiz-adv-x="716" 
 />
    <glyph glyph-name="space" unicode=" " horiz-adv-x="716" 
 />
    <glyph glyph-name="exclam" unicode="!" horiz-adv-x="573" 
d="M123 1434h328l-29 -1024h-268zM133 133q0 61 42 107.5t111 46.5t111.5 -46.5t42.5 -107.5t-42 -107t-111 -46q-70 0 -112 46t-42 107z" />
    <glyph glyph-name="quotedbl" unicode="&#x22;" horiz-adv-x="757" 
d="M41 1434h287l-62 -471h-164zM430 1434h287l-62 -471h-163z" />
    <glyph glyph-name="numbersign" unicode="#" horiz-adv-x="1638" 
d="M41 348l18 154h256l45 389h-256l19 153h256l45 390h287l-45 -390h391l47 390h285l-46 -390h254l-18 -153h-254l-45 -389h254l-18 -154h-254l-41 -348h-287l41 348h-391l-41 -348h-287l41 348h-256zM602 502h391l45 389h-391z" />
    <glyph glyph-name="dollar" unicode="$" horiz-adv-x="1536" 
d="M61 195l103 122q239 -204 614 -204q207 0 293 56t86 144t-67.5 143.5t-229.5 106.5l-389 123q-193 61 -291 156.5t-98 242.5q0 159 135 263q152 116 438 125v165h226v-176q337 -50 522 -223l-103 -123q-240 205 -593 205q-154 0 -231 -52t-77 -122q0 -92 63 -143
q61 -49 226 -103l387 -123q186 -59 293 -155.5t107 -243.5q0 -275 -319 -373q-114 -35 -275 -43v-168h-226v170q-182 16 -338.5 76.5t-255.5 153.5z" />
    <glyph glyph-name="percent" unicode="%" horiz-adv-x="1730" 
d="M61 1137q0 161 103 253q95 85 255 85q77 0 143.5 -21.5t113.5 -63.5q102 -91 102 -253t-102 -253q-95 -85 -256 -85q-247 0 -331 191q-28 63 -28 147zM205 0l1024 1434h297l-1024 -1434h-297zM287 1137q0 -123 40 -174.5t93 -51.5t93 51.5t40 174.5t-40 174t-93 51
t-93 -51t-40 -174zM952 297q0 161 103 253q95 85 255 85q77 0 143.5 -21.5t113.5 -63.5q102 -91 102 -253t-102 -253q-95 -85 -256 -85q-247 0 -331 191q-28 63 -28 147zM1178 297q0 -123 40 -174t93 -51t93 51t40 174t-40 174t-93 51t-93 -51t-40 -174z" />
    <glyph glyph-name="ampersand" unicode="&#x26;" horiz-adv-x="1546" 
d="M61 328q0 263 359 409q-133 106 -173 160q-83 114 -83 229q0 156 124 248q137 101 388 101q250 0 386 -101q126 -93 126 -248q0 -248 -348 -419l348 -287q72 142 72 297h204q0 -249 -123 -420l185 -154l-144 -184l-204 164q-210 -164 -533 -164q-280 0 -441 116
q-143 102 -143 253zM379 328q0 -90 81 -155q89 -71 244 -71q91 0 181 36t159 95l-450 371q-92 -47 -153.5 -118.5t-61.5 -157.5zM471 1138q0 -170 205 -288q92 53 148.5 126t56.5 161.5t-56.5 146t-148.5 57.5t-148.5 -57t-56.5 -146z" />
    <glyph glyph-name="quotesingle" unicode="'" horiz-adv-x="368" 
d="M41 1434h287l-62 -471h-164z" />
    <glyph glyph-name="parenleft" unicode="(" horiz-adv-x="645" 
d="M102 614q0 262 119 511t342 442l82 -72q-123 -184 -184.5 -394.5t-61.5 -486.5t61.5 -486t184.5 -394l-82 -72q-223 193 -342 441.5t-119 510.5z" />
    <glyph glyph-name="parenright" unicode=")" horiz-adv-x="645" 
d="M0 -266q123 184 184.5 394t61.5 486t-61.5 486.5t-184.5 394.5l82 72q223 -193 342 -441.5t119 -511.5q0 -262 -119 -510.5t-342 -441.5z" />
    <glyph glyph-name="asterisk" unicode="*" horiz-adv-x="1024" 
d="M82 911l235 140l-235 137l92 164l246 -144v267h184v-267l246 144l92 -164l-242 -137l242 -140l-92 -163l-246 143v-266h-184v266l-246 -143z" />
    <glyph glyph-name="plus" unicode="+" horiz-adv-x="1105" 
d="M61 573v185h390v389h204v-389h389v-185h-389v-389h-204v389h-390z" />
    <glyph glyph-name="comma" unicode="," horiz-adv-x="522" 
d="M102 133q0 61 42 107.5t116 46.5t117 -58.5t43 -137.5t-24.5 -137t-63.5 -96q-75 -73 -189 -73v72q53 0 99.5 35.5t54.5 97.5q-15 -10 -63.5 -10t-90 46t-41.5 107z" />
    <glyph glyph-name="hyphen" unicode="-" horiz-adv-x="1105" 
d="M82 573v185h942v-185h-942z" />
    <glyph glyph-name="period" unicode="." horiz-adv-x="512" 
d="M102 133q0 61 42 107.5t111 46.5t112 -46.5t43 -107.5t-42 -107t-112 -46t-112 46t-42 107z" />
    <glyph glyph-name="slash" unicode="/" horiz-adv-x="757" 
d="M0 0l492 1434h266l-492 -1434h-266z" />
    <glyph glyph-name="zero" unicode="0" horiz-adv-x="1679" 
d="M102 717q0 373 208 571q195 187 530 187t530 -187q207 -199 207 -571t-207 -571q-193 -187 -530 -187q-336 0 -530 187q-208 199 -208 571zM420 717q0 -309 130 -473q112 -142 290 -142q177 0 290 142q130 163 130 473q0 308 -130 473q-112 141 -290 141
q-282 0 -384 -331q-36 -117 -36 -283z" />
    <glyph glyph-name="one" unicode="1" horiz-adv-x="819" 
d="M20 1188l349 246h307v-1434h-297v1188h-21l-245 -133z" />
    <glyph glyph-name="two" unicode="2" horiz-adv-x="1413" 
d="M61 1260q252 215 635 215q314 0 478 -119q157 -112 157 -301q0 -237 -199 -406q-57 -49 -118 -96l-522 -399h860v-154h-1270v164l737 563q78 53 136.5 130t58.5 192.5t-84 193.5t-246 78t-288 -42t-242 -142z" />
    <glyph glyph-name="three" unicode="3" horiz-adv-x="1505" 
d="M41 195l102 122q219 -204 533 -204q215 0 312 81.5t97 204.5t-77.5 189.5t-239.5 66.5h-420v154h379q297 0 297 266q0 109 -88 177.5t-246 68.5t-283.5 -42t-242.5 -142l-92 123q252 215 635 215q304 0 475 -109q159 -101 159 -270q0 -131 -63.5 -216t-202.5 -132
q154 -39 241 -130.5t87 -238.5q0 -290 -389 -387q-133 -33 -326 -33t-361.5 63.5t-285.5 172.5z" />
    <glyph glyph-name="four" unicode="4" horiz-adv-x="1556" 
d="M41 328v161l932 945h368v-963h175v-143h-175v-328h-297v328h-1003zM338 471h706v696h-20z" />
    <glyph glyph-name="five" unicode="5" horiz-adv-x="1484" 
d="M61 195l103 122q219 -204 522 -204q209 0 304 87t95 240q0 154 -93 241t-297.5 87t-346.5 -113h-225v779h1157v-144h-860v-430q143 62 307 62q346 0 511 -129t165 -353q0 -223 -168 -352t-528 -129q-193 0 -361 63.5t-285 172.5z" />
    <glyph glyph-name="six" unicode="6" horiz-adv-x="1515" 
d="M102 522v338q0 293 172 454t504 161q154 0 305.5 -47.5t268.5 -147.5l-92 -123q-191 164 -461 164q-176 0 -277.5 -111.5t-101.5 -349.5q77 52 187 77.5t231 25.5t237.5 -37t196.5 -102q162 -133 162 -363q0 -231 -168 -363q-179 -139 -504.5 -139t-492.5 146.5
t-167 416.5zM420 502q0 -193 97 -296.5t251 -103.5t251 99t97 260q0 159 -95 260q-92 98 -235 98t-274 -67q-53 -29 -92 -66v-184z" />
    <glyph glyph-name="seven" unicode="7" 
d="M20 1280v154h1270v-174l-665 -1260h-308l676 1280h-973z" />
    <glyph glyph-name="eight" unicode="8" horiz-adv-x="1536" 
d="M82 399q0 141 92 239t246 130q-131 31 -204 110.5t-73 182t36 176.5t112 126q164 112 477 112t477 -112q148 -101 148 -288q0 -117 -73 -196.5t-204 -110.5q155 -33 246 -130q92 -98 92 -239q0 -188 -170 -307q-188 -133 -516 -133t-516 133q-170 119 -170 307zM399 395
q0 -127 91.5 -210t277.5 -83t277.5 83t91.5 210t-92.5 209t-276.5 82t-276.5 -82t-92.5 -209zM461 1079q0 -113 76.5 -181.5t230.5 -68.5t230.5 69t76.5 181.5t-76.5 182t-230.5 69.5t-230.5 -69.5t-76.5 -182.5z" />
    <glyph glyph-name="nine" unicode="9" horiz-adv-x="1515" 
d="M82 973q0 231 168 363q179 139 504.5 139t492 -146.5t166.5 -417.5v-338q0 -293 -172 -453.5t-504 -160.5q-154 0 -305 47t-268 148l92 122q190 -163 461 -163q176 0 277.5 111.5t101.5 348.5q-158 -102 -389 -102q-293 0 -463 139q-162 133 -162 363zM399 973
q0 -157 96 -260q93 -99 237.5 -99t271.5 66q53 29 92 68v184q0 193 -97.5 296t-250.5 103q-155 0 -251 -98q-98 -100 -98 -260z" />
    <glyph glyph-name="colon" unicode=":" horiz-adv-x="512" 
d="M102 133q0 61 42 107.5t111 46.5t112 -46.5t43 -107.5t-42 -107t-112 -46t-112 46t-42 107zM102 932q0 61 42 107t111 46t112 -46t43 -107t-42 -107.5t-112 -46.5t-112 46t-42 108z" />
    <glyph glyph-name="semicolon" unicode=";" horiz-adv-x="522" 
d="M102 133q0 61 42 107.5t116 46.5t117 -58.5t43 -137.5t-24.5 -137t-63.5 -96q-75 -73 -189 -73v72q53 0 99.5 35.5t54.5 97.5q-15 -10 -63.5 -10t-90 46t-41.5 107zM102 932q0 61 42 107t111 46t112 -46t43 -107t-42 -107.5t-112 -46.5t-112 46t-42 108z" />
    <glyph glyph-name="less" unicode="&#x3c;" horiz-adv-x="870" 
d="M61 430v205l697 450v-256l-461 -297l461 -296v-256z" />
    <glyph glyph-name="equal" unicode="=" horiz-adv-x="1146" 
d="M102 379v184h942v-184h-942zM102 768v184h942v-184h-942z" />
    <glyph glyph-name="greater" unicode="&#x3e;" horiz-adv-x="870" 
d="M113 -20v256l460 296l-460 297v256l696 -450v-205z" />
    <glyph glyph-name="question" unicode="?" 
d="M20 1239q117 100 270.5 157.5t321.5 57.5t291 -36t204 -98q163 -126 163 -323t-144.5 -315.5t-398.5 -149.5v-122h-266v276q386 0 475 186q27 56 27 121q0 134 -97 219q-101 88 -282 88q-99 0 -227 -41.5t-244 -142.5zM440 133q0 61 42 107.5t111 46.5t112 -46.5
t43 -107.5t-42 -107t-112 -46t-112 46t-42 107z" />
    <glyph glyph-name="at" unicode="@" horiz-adv-x="2109" 
d="M102 614q0 188 69 346t192.5 273t300 178.5t391.5 63.5t391 -63.5t300 -174.5t192.5 -260.5t68.5 -301t-38 -248.5t-105 -163q-136 -131 -359 -131h-430q-246 0 -389 114.5t-143 345t143 346.5t389 116h430v-779q198 0 257 204q20 71 20 198t-50.5 248t-144.5 207
q-195 178 -532 178q-340 0 -533 -183q-194 -185 -194 -514t194 -513q193 -183 533 -183q126 0 221.5 21.5t146.5 40.5l41 -164q-176 -62 -400 -62t-400.5 63.5t-300 178.5t-192.5 272.5t-69 345.5zM850 594q0 -157 70 -244q60 -74 155 -74h144v635h-144q-92 0 -155 -75
q-70 -83 -70 -242z" />
    <glyph glyph-name="A" unicode="A" horiz-adv-x="1679" 
d="M20 0l584 1434h471l584 -1434h-295l-135 348h-778l-136 -348h-295zM522 502h635l-307 758h-21z" />
    <glyph glyph-name="B" unicode="B" horiz-adv-x="1638" 
d="M143 0v1434h697q304 0 464 -106q150 -99 150 -273q0 -109 -61.5 -189t-184.5 -118q154 -31 241 -120t87 -229q0 -184 -152.5 -291.5t-482.5 -107.5h-758zM440 154h461q318 0 318 245q0 256 -318 256h-461v-501zM440 809h400q297 0 297 246q0 109 -75 167t-222 58h-400
v-471z" />
    <glyph glyph-name="C" unicode="C" horiz-adv-x="1617" 
d="M102 717q0 363 224 563q219 195 596 195q186 0 352 -63.5t282 -172.5l-102 -123q-220 205 -512 205q-235 0 -372 -145q-150 -159 -150 -459q0 -303 152 -459q143 -145 391 -145q291 0 512 204l102 -122q-117 -109 -283 -172.5t-355.5 -63.5t-344 49t-264.5 146
q-228 201 -228 563z" />
    <glyph glyph-name="D" unicode="D" horiz-adv-x="1720" 
d="M143 0v1434h676q375 0 593 -183q226 -189 226 -534q0 -346 -226 -535q-217 -182 -593 -182h-676zM440 154h379q347 0 462 306q40 107 40 257q0 280 -147 431q-130 132 -355 132h-379v-1126z" />
    <glyph glyph-name="E" unicode="E" horiz-adv-x="1454" 
d="M143 0v1434h1250v-154h-953v-471h748v-154h-748v-501h953v-154h-1250z" />
    <glyph glyph-name="F" unicode="F" horiz-adv-x="1474" 
d="M143 0v1434h1291v-154h-994v-492h748v-153h-748v-635h-297z" />
    <glyph glyph-name="G" unicode="G" horiz-adv-x="1679" 
d="M102 717q0 362 212 563q207 195 567 195q186 0 352 -63.5t283 -172.5l-103 -123q-220 205 -512 205q-217 0 -345 -145q-136 -156 -136 -459q0 -308 140 -468q128 -147 362 -147q160 0 270 56q53 25 88 57v389h-266v133h563v-563q-149 -119 -388 -182q-126 -33 -299 -33
t-320.5 49t-251.5 146q-216 199 -216 563z" />
    <glyph glyph-name="H" unicode="H" horiz-adv-x="1720" 
d="M143 0v1434h297v-656h840v656h297v-1434h-297v625h-840v-625h-297z" />
    <glyph glyph-name="I" unicode="I" horiz-adv-x="583" 
d="M143 0v1434h297v-1434h-297z" />
    <glyph glyph-name="J" unicode="J" horiz-adv-x="1351" 
d="M20 123l93 123q175 -133 399 -133q281 0 368 255q31 89 31 216v696h-481v154h778v-850q0 -306 -184 -469q-176 -156 -492 -156q-218 0 -412 99q-57 30 -100 65z" />
    <glyph glyph-name="K" unicode="K" horiz-adv-x="1628" 
d="M143 0v1434h297v-646h338l471 646h328l-512 -707l543 -727h-338l-471 635h-359v-635h-297z" />
    <glyph glyph-name="L" unicode="L" horiz-adv-x="1361" 
d="M143 0v1434h297v-1280h881v-154h-1178z" />
    <glyph glyph-name="M" unicode="M" horiz-adv-x="2252" 
d="M143 0v1434h441l532 -1229h21l532 1229h440v-1434h-297v1147h-20l-492 -1147h-348l-491 1147h-21v-1147h-297z" />
    <glyph glyph-name="N" unicode="N" horiz-adv-x="1761" 
d="M143 0v1434h389l768 -1168h21v1168h297v-1434h-389l-768 1167h-21v-1167h-297z" />
    <glyph glyph-name="O" unicode="O" horiz-adv-x="1843" 
d="M102 717q0 363 224 563q219 195 596 195q374 0 592 -195q227 -202 227 -563q0 -360 -227 -563q-216 -195 -592 -195q-379 0 -596 195q-224 201 -224 563zM420 717q0 -299 148 -465q133 -150 354 -150q220 0 354 150q147 166 147 465q0 300 -147 465q-134 149 -354 149
q-221 0 -354 -149q-148 -165 -148 -465z" />
    <glyph glyph-name="P" unicode="P" horiz-adv-x="1617" 
d="M143 0v1434h738q308 0 481 -132q174 -134 174 -370t-174 -370q-173 -132 -481 -132h-441v-430h-297zM440 584h441q162 0 251 85t89 263t-89.5 263t-250.5 85h-441v-696z" />
    <glyph glyph-name="Q" unicode="Q" horiz-adv-x="1843" 
d="M102 717q0 363 224 563q219 195 596 195q374 0 592 -195q227 -202 227 -563q0 -236 -94.5 -399.5t-262.5 -254.5l132 -145l-144 -133l-182 205q-123 -31 -287.5 -31t-316.5 49t-260 146q-224 201 -224 563zM420 717q0 -299 148 -465q133 -150 354 -150q80 0 147 21
l-117 133l144 133l149 -168q178 161 178 496q0 300 -147 465q-134 149 -354 149q-221 0 -354 -149q-148 -165 -148 -465z" />
    <glyph glyph-name="R" unicode="R" horiz-adv-x="1638" 
d="M143 0v1434h738q308 0 481 -132q174 -134 174 -370q0 -325 -317 -449l337 -483h-337l-301 430h-478v-430h-297zM440 584h441q162 0 250 85t88 263t-88.5 263t-249.5 85h-441v-696z" />
    <glyph glyph-name="S" unicode="S" horiz-adv-x="1536" 
d="M61 195l103 122q239 -204 614 -204q207 0 293 57t86 146.5t-67.5 142.5t-229.5 104l-389 123q-193 61 -291 156.5t-98 242.5q0 167 148 272q164 118 477 118q310 0 560 -139q79 -44 136 -97l-103 -123q-240 205 -593 205q-154 0 -231 -53.5t-77 -130.5q0 -84 63 -135
q56 -45 226 -101l387 -123q186 -59 293 -155.5t107 -243.5q0 -294 -372 -387q-132 -33 -283 -33t-254 16.5t-196 46.5q-190 62 -309 173z" />
    <glyph glyph-name="T" unicode="T" horiz-adv-x="1443" 
d="M20 1280v154h1403v-154h-553v-1280h-297v1280h-553z" />
    <glyph glyph-name="U" unicode="U" horiz-adv-x="1761" 
d="M143 584v850h297v-850q0 -365 260 -454q81 -28 181 -28q316 0 408 264q32 91 32 218v850h297v-850q0 -315 -192.5 -470t-545.5 -155t-545 154.5t-192 470.5z" />
    <glyph glyph-name="V" unicode="V" horiz-adv-x="1699" 
d="M20 1434h306l514 -1260h20l514 1260h305l-583 -1434h-492z" />
    <glyph glyph-name="W" unicode="W" horiz-adv-x="2396" 
d="M41 1434h297l346 -1239h21l319 1136h348l320 -1136h20l346 1239h297l-399 -1434h-440l-308 1096h-20l-307 -1096h-441z" />
    <glyph glyph-name="X" unicode="X" horiz-adv-x="1566" 
d="M0 0l608 735l-577 699h348l403 -490l406 490h348l-580 -699l611 -735h-348l-437 524l-434 -524h-348z" />
    <glyph glyph-name="Y" unicode="Y" horiz-adv-x="1628" 
d="M0 1434h328l481 -727h10l481 727h328l-665 -1004v-430h-297v430z" />
    <glyph glyph-name="Z" unicode="Z" horiz-adv-x="1474" 
d="M72 0v174l952 1106h-932v154h1290v-174l-952 -1106h973v-154h-1331z" />
    <glyph glyph-name="bracketleft" unicode="[" horiz-adv-x="716" 
d="M143 -317v1863h533v-153h-246v-1557h246v-153h-533z" />
    <glyph glyph-name="backslash" unicode="\" horiz-adv-x="839" 
d="M41 1434h266l492 -1434h-267z" />
    <glyph glyph-name="bracketright" unicode="]" horiz-adv-x="716" 
d="M41 -164h246v1557h-246v153h532v-1863h-532v153z" />
    <glyph glyph-name="asciicircum" unicode="^" horiz-adv-x="1044" 
d="M20 922l390 553h225l389 -553h-256l-246 348l-246 -348h-256z" />
    <glyph glyph-name="underscore" unicode="_" horiz-adv-x="942" 
d="M0 0h942v-184h-942v184z" />
    <glyph glyph-name="grave" unicode="`" horiz-adv-x="503" 
d="M41 1475h289l133 -410h-195z" />
    <glyph glyph-name="a" unicode="a" horiz-adv-x="1320" 
d="M72 338q0 170 132 254t410 84h287q0 147 -76.5 217t-199.5 70q-187 0 -338 -103l-72 123q126 87 325 115q56 8 146 8t190.5 -31t169.5 -88q142 -116 142 -311v-676h-574q-279 0 -410.5 84t-131.5 254zM379 338q0 -195 235 -195h287v389h-287h-2q-233 0 -233 -194z" />
    <glyph glyph-name="b" unicode="b" horiz-adv-x="1402" 
d="M143 0v1434h287v-369h256q286 0 455 -143q170 -145 170 -390q0 -244 -170 -388q-169 -144 -455 -144h-543zM430 143h256q225 0 294 211q24 74 24 178q0 198 -90 300q-80 90 -228 90h-256v-779z" />
    <glyph glyph-name="c" unicode="c" horiz-adv-x="1259" 
d="M92 532q0 272 174 426q168 148 451 148q203 0 369 -90q53 -29 92 -64l-82 -123q-179 134 -359 134q-238 0 -312 -234q-26 -82 -26 -197q0 -329 213 -406q66 -24 146 -24q182 0 358 134l82 -123q-117 -105 -330 -143q-65 -11 -170.5 -11t-225.5 38t-204 111
q-176 151 -176 424z" />
    <glyph glyph-name="d" unicode="d" horiz-adv-x="1402" 
d="M92 532q0 245 170 390q169 143 455 143h256v369h287v-1434h-543q-286 0 -455 144q-170 144 -170 388zM399 532q0 -198 89 -298q80 -91 229 -91h256v779h-256q-227 0 -295 -212q-23 -73 -23 -178z" />
    <glyph glyph-name="e" unicode="e" horiz-adv-x="1372" 
d="M92 532q0 272 167 426q162 148 427 148q256 0 420 -144q174 -154 174 -399v-143h-874q47 -318 352 -318q182 0 358 134l82 -123q-117 -105 -330 -143q-65 -11 -170.5 -11t-225.5 38t-204 111q-176 151 -176 424zM399 563h574q0 200 -89 313q-77 97 -201 97
q-56 0 -107.5 -22.5t-89.5 -72.5q-83 -110 -87 -315z" />
    <glyph glyph-name="f" unicode="f" horiz-adv-x="921" 
d="M41 881v143h195v20q0 201 124.5 316t356.5 115q153 0 297 -72l-62 -133q-103 61 -215 61q-148 0 -197 -155q-18 -56 -18 -132v-20h318v-143h-318v-881h-286v881h-195z" />
    <glyph glyph-name="g" unicode="g" horiz-adv-x="1402" 
d="M92 553q0 231 170 371q172 141 455 141h543v-1045q0 -195 -147 -310q-152 -120 -437 -120q-246 0 -430 123l71 123q152 -102 338 -102q318 0 318 286v21h-256q-283 0 -455 141q-170 140 -170 371zM399 553q0 -186 85 -277.5t233 -91.5h256v738h-256q-147 0 -232.5 -91.5
t-85.5 -277.5z" />
    <glyph glyph-name="h" unicode="h" horiz-adv-x="1402" 
d="M143 0v1434h287v-369h266q574 0 574 -420v-645h-287v645q0 147 -73.5 212t-213.5 65h-266v-922h-287z" />
    <glyph glyph-name="i" unicode="i" horiz-adv-x="593" 
d="M143 1321q0 61 42 107.5t111 46.5t112 -46.5t43 -107.5t-42 -107.5t-112 -46.5t-112 46.5t-42 107.5zM154 0v1044h286v-1044h-286z" />
    <glyph glyph-name="j" unicode="j" horiz-adv-x="614" 
d="M-205 -358l41 133q79 -41 154 -41q128 0 170 142q14 50 14 124v1044h287v-1044q0 -179 -112 -293q-115 -117 -318 -117q-132 0 -236 52zM164 1321q0 61 42 107.5t110.5 46.5t111.5 -46.5t43 -107.5t-42 -107.5t-112 -46.5t-111.5 46.5t-41.5 107.5z" />
    <glyph glyph-name="k" unicode="k" horiz-adv-x="1310" 
d="M143 0v1434h287v-820h215l318 451h307l-359 -512l379 -553h-327l-318 471h-215v-471h-287z" />
    <glyph glyph-name="l" unicode="l" horiz-adv-x="573" 
d="M143 0v1434h287v-1434h-287z" />
    <glyph glyph-name="m" unicode="m" horiz-adv-x="1914" 
d="M143 0v1065h1065q574 0 574 -420v-645h-287v645q0 147 -73.5 212t-213.5 65h-102v-922h-287v922h-389v-922h-287z" />
    <glyph glyph-name="n" unicode="n" horiz-adv-x="1402" 
d="M143 0v1065h553q574 0 574 -420v-645h-287v645q0 147 -73.5 212t-213.5 65h-266v-922h-287z" />
    <glyph glyph-name="o" unicode="o" horiz-adv-x="1433" 
d="M92 532q0 272 174 426q168 148 450 148q138 0 253.5 -38t197.5 -110q174 -154 174 -426q0 -271 -174 -424q-168 -149 -450 -149q-283 0 -451 149q-174 153 -174 424zM399 532q0 -223 95 -338q83 -102 223 -102q219 0 291 238q26 84 26 202q0 225 -94 340
q-83 101 -223 101q-218 0 -292 -238q-26 -84 -26 -203z" />
    <glyph glyph-name="p" unicode="p" horiz-adv-x="1402" 
d="M143 -369v1434h543q286 0 455 -143q170 -145 170 -390q0 -244 -170 -388q-169 -144 -455 -144h-256v-369h-287zM430 143h256q225 0 294 211q24 74 24 178q0 198 -90 300q-80 90 -228 90h-256v-779z" />
    <glyph glyph-name="q" unicode="q" horiz-adv-x="1402" 
d="M92 532q0 245 170 390q169 143 455 143h543v-1434h-287v369h-256q-286 0 -455 144q-170 144 -170 388zM399 532q0 -198 89 -298q80 -91 229 -91h256v779h-256q-227 0 -295 -212q-23 -73 -23 -178z" />
    <glyph glyph-name="r" unicode="r" horiz-adv-x="972" 
d="M133 0v625q0 209 132 324.5t380 115.5h307v-143h-245q-139 0 -213 -75t-74 -222v-625h-287z" />
    <glyph glyph-name="s" unicode="s" horiz-adv-x="1259" 
d="M61 113l82 123q217 -134 471 -134q154 0 215.5 41t61.5 95.5t-43 92.5t-152 68l-317 93q-131 39 -214 111.5t-83 195.5q0 216 284 283q99 24 253.5 24t293 -46t224.5 -108l-82 -123q-84 53 -190.5 93.5t-238 40.5t-184.5 -35t-53 -85q0 -104 184 -157l318 -92
q307 -90 307 -307q0 -328 -584 -328q-244 0 -450 95q-60 28 -103 59z" />
    <glyph glyph-name="t" unicode="t" horiz-adv-x="1034" 
d="M41 922v143h195v328h286v-328h318v-143h-318v-533q0 -214 133 -271q39 -16 82 -16q110 0 215 62l62 -133q-142 -72 -297 -72q-231 0 -356 114.5t-125 315.5v533h-195z" />
    <glyph glyph-name="u" unicode="u" horiz-adv-x="1413" 
d="M143 420v645h287v-645q0 -147 74 -212t213 -65h266v922h287v-1065h-553q-574 0 -574 420z" />
    <glyph glyph-name="v" unicode="v" horiz-adv-x="1310" 
d="M20 1065h287l338 -891h21l338 891h286l-409 -1065h-451z" />
    <glyph glyph-name="w" unicode="w" horiz-adv-x="1925" 
d="M41 1065h297l235 -870h21l205 768h327l205 -768h21l235 870h297l-287 -1065h-430l-194 737h-21l-194 -737h-430z" />
    <glyph glyph-name="x" unicode="x" horiz-adv-x="1228" 
d="M0 0l451 539l-441 526h328l276 -332l277 332h328l-441 -526l451 -539h-328l-287 342l-286 -342h-328z" />
    <glyph glyph-name="y" unicode="y" horiz-adv-x="1413" 
d="M143 461v604h287v-604q0 -147 74 -212t213 -65h266v881h287v-1045q0 -194 -146 -310q-151 -120 -438 -120q-246 0 -430 123l82 123q152 -102 328 -102q317 0 317 286v21h-266q-574 0 -574 420z" />
    <glyph glyph-name="z" unicode="z" horiz-adv-x="1208" 
d="M72 0v164l706 758h-686v143h1024v-164l-706 -758h727v-143h-1065z" />
    <glyph glyph-name="braceleft" unicode="{" horiz-adv-x="778" 
d="M41 543v143q92 0 148.5 56.5t56.5 148.5v297q0 170 121.5 264t369.5 94h21v-153h-21q-92 0 -148.5 -56.5t-56.5 -148.5v-297q0 -126 -84 -201q-61 -55 -161 -76q162 -33 221 -157q24 -49 24 -119v-297q0 -92 56.5 -148.5t148.5 -56.5h21v-153h-21q-248 0 -369.5 94
t-121.5 264v297q0 92 -56.5 148.5t-148.5 56.5z" />
    <glyph glyph-name="bar" unicode="|" horiz-adv-x="583" 
d="M143 -369v1803h297v-1803h-297z" />
    <glyph glyph-name="braceright" unicode="}" horiz-adv-x="778" 
d="M20 -164h21q92 0 148.5 56.5t56.5 148.5v297q0 127 84 200q63 56 162 76q-163 33 -222 158q-24 49 -24 119v297q0 92 -56.5 148.5t-148.5 56.5h-21v153h21q248 0 369.5 -94t121.5 -264v-297q0 -92 56.5 -148.5t148.5 -56.5v-143q-92 0 -148.5 -56.5t-56.5 -148.5v-297
q0 -170 -121.5 -264t-369.5 -94h-21v153z" />
    <glyph glyph-name="asciitilde" unicode="~" horiz-adv-x="1034" 
d="M41 535q13 211 170 289q51 26 117 26t116 -22.5t92 -49t79.5 -49t94.5 -22.5q103 0 140 143l143 -53q-8 -138 -82 -224q-79 -92 -204 -92q-96 0 -208 72q-42 27 -80 49.5t-95 22.5q-101 0 -140 -144z" />
    <glyph glyph-name="uni00A0" unicode="&#xa0;" horiz-adv-x="716" 
 />
    <glyph glyph-name="cent" unicode="&#xa2;" horiz-adv-x="1259" 
d="M92 532q0 354 284 498q89 45 197 64v176h226v-168q243 -26 379 -150l-82 -123q-179 134 -359 134q-238 0 -312 -234q-26 -82 -26 -197q0 -329 213 -406q66 -24 146 -24q182 0 358 134l82 -123q-68 -61 -175.5 -100.5t-223.5 -49.5v-168h-226v178q-223 37 -352 179.5
t-129 379.5z" />
    <glyph glyph-name="sterling" unicode="&#xa3;" horiz-adv-x="1413" 
d="M82 0v154h51q61 0 102 46t41 138v307h-194v154h194v153q0 236 160 380q158 143 414 143q267 0 481 -144l-82 -133q-78 53 -167 88t-179 35t-143 -18.5t-95 -61.5q-92 -94 -92 -289v-153h502v-154h-502v-307q0 -112 -67 -173q-12 -11 -14 -11h860v-154h-1270z" />
    <glyph glyph-name="yen" unicode="&#xa5;" horiz-adv-x="1628" 
d="M0 1434h328l481 -727h10l481 727h328l-543 -820h205v-143h-301l-26 -41v-82h327v-143h-327v-205h-297v205h-328v143h328v82l-29 41h-299v143h205z" />
    <glyph glyph-name="dieresis" unicode="&#xa8;" horiz-adv-x="942" 
d="M82 1341q0 61 42 107.5t111 46.5t111.5 -46.5t42.5 -107.5t-42 -107t-111 -46q-70 0 -112 46t-42 107zM553 1341q0 61 42 107.5t111 46.5t111.5 -46.5t42.5 -107.5t-42 -107t-111 -46q-70 0 -112 46t-42 107z" />
    <glyph glyph-name="copyright" unicode="&#xa9;" horiz-adv-x="1904" 
d="M102 717q0 172 63.5 315.5t177.5 246.5q239 216 609 216q371 0 610 -216q113 -103 176.5 -246.5t63.5 -315.5t-63.5 -315.5t-176.5 -247.5q-237 -215 -610 -215q-372 0 -609 215q-114 104 -177.5 247.5t-63.5 315.5zM328 717q0 -279 181 -449q176 -166 443 -166
q269 0 443 166q182 173 182 449q0 275 -182 448q-174 166 -443 166q-267 0 -443 -166q-181 -170 -181 -448zM492 717q0 209 132 333q125 117 339 117q212 0 368 -123l-71 -102q-61 47 -123 74.5t-133.5 27.5t-115.5 -18t-78 -57q-73 -84 -73 -256t75 -248t179 -76t166 27.5
t123 75.5l72 -103q-160 -123 -369 -123q-226 0 -357 118q-134 120 -134 333z" />
    <glyph glyph-name="guillemotleft" unicode="&#xab;" horiz-adv-x="1218" 
d="M20 532l543 533l154 -164l-379 -369l379 -368l-154 -164zM532 532l472 461l153 -164l-307 -297l307 -296l-153 -164z" />
    <glyph glyph-name="uni00AD" unicode="&#xad;" horiz-adv-x="1105" 
d="M82 573v185h942v-185h-942z" />
    <glyph glyph-name="registered" unicode="&#xae;" horiz-adv-x="1904" 
d="M102 717q0 172 63.5 315.5t177.5 246.5q239 216 609 216q371 0 610 -216q113 -103 176.5 -246.5t63.5 -315.5t-63.5 -315.5t-176.5 -247.5q-237 -215 -610 -215q-372 0 -609 215q-114 104 -177.5 247.5t-63.5 315.5zM328 717q0 -279 181 -449q176 -166 443 -166
q269 0 443 166q182 173 182 449q0 275 -182 448q-174 166 -443 166q-267 0 -443 -166q-181 -170 -181 -448zM594 287v860h369q193 0 301 -80t108 -227q0 -192 -180 -269l201 -284h-256l-172 245h-146v-245h-225zM819 655h144q61 0 112 42.5t51 142.5t-51 142t-112 42h-144
v-369z" />
    <glyph glyph-name="acute" unicode="&#xb4;" horiz-adv-x="534" 
d="M82 1188l123 307h289l-218 -307h-194z" />
    <glyph glyph-name="cedilla" unicode="&#xb8;" horiz-adv-x="645" 
d="M90 -430l41 102q79 -41 145 -41q123 0 123 72t-123 72h-92v225h164v-102q215 -17 215 -195q0 -92 -64.5 -143.5t-181.5 -51.5q-85 0 -163 31q-37 12 -64 31z" />
    <glyph glyph-name="guillemotright" unicode="&#xbb;" horiz-adv-x="1228" 
d="M61 236l308 296l-308 297l154 164l471 -461l-471 -460zM502 164l379 368l-379 369l153 164l543 -533l-543 -532z" />
    <glyph glyph-name="circumflex" unicode="&#x2c6;" horiz-adv-x="903" 
d="M82 1188l256 328h225l258 -328h-215l-155 184l-154 -184h-215z" />
    <glyph glyph-name="ring" unicode="&#x2da;" horiz-adv-x="655" 
d="M82 1413q0 98 72 163q70 62 174 62q103 0 173 -62q72 -64 72 -163q0 -100 -72 -162.5t-173 -62.5q-103 0 -174 62q-72 64 -72 163zM236 1413q0 -47 26.5 -74.5t65.5 -27.5t65.5 27.5t26.5 74.5t-26.5 75t-65.5 28t-65.5 -28t-26.5 -75z" />
    <glyph glyph-name="tilde" unicode="&#x2dc;" horiz-adv-x="839" 
d="M82 1221q0 113 52 191q58 85 153 85q65 0 142 -61q28 -23 52.5 -42.5t56.5 -19.5q53 0 76 113l144 -21q0 -112 -52 -192q-55 -84 -153 -84q-67 0 -143 62q-27 22 -51.5 41.5t-57.5 19.5q-53 0 -76 -113z" />
    <glyph glyph-name="afii10023" unicode="&#x401;" horiz-adv-x="1454" 
d="M143 0v1434h1250v-154h-953v-471h748v-154h-748v-501h953v-154h-1250zM379 1731q0 61 42 107t110.5 46t111.5 -46t43 -107t-42 -107.5t-112 -46.5t-111.5 46t-41.5 108zM850 1731q0 61 42 107t111 46t111.5 -46t42.5 -107t-42 -107.5t-111 -46.5q-70 0 -112 46t-42 108z
" />
    <glyph glyph-name="afii10051" unicode="&#x402;" horiz-adv-x="1792" 
d="M20 1280v154h994v-154h-389v-338h389q523 0 638 -251q38 -83 38 -189v-154q0 -201 -98.5 -290t-291.5 -89q-69 0 -153 21v133h82q70 0 117 51t47 174v154q0 145 -86 215.5t-293 70.5h-389v-788h-297v1280h-308z" />
    <glyph glyph-name="afii10052" unicode="&#x403;" horiz-adv-x="1351" 
d="M143 0v1434h1188v-154h-891v-1280h-297zM614 1556l123 308h289l-217 -308h-195z" />
    <glyph glyph-name="afii10053" unicode="&#x404;" horiz-adv-x="1617" 
d="M102 717q0 363 224 563q219 195 596 195q186 0 352 -63.5t282 -172.5l-102 -123q-220 205 -512 205q-336 0 -466 -289q-44 -98 -54 -233h774v-154h-774q15 -266 166 -405q140 -127 375 -127q291 0 512 204l102 -122q-117 -109 -283 -172.5t-355.5 -63.5t-344 49
t-264.5 146q-228 201 -228 563z" />
    <glyph glyph-name="afii10054" unicode="&#x405;" horiz-adv-x="1536" 
d="M61 195l103 122q239 -204 614 -204q207 0 293 57t86 146.5t-67.5 142.5t-229.5 104l-389 123q-193 61 -291 156.5t-98 242.5q0 167 148 272q164 118 477 118q310 0 560 -139q79 -44 136 -97l-103 -123q-240 205 -593 205q-154 0 -231 -53.5t-77 -130.5q0 -84 63 -135
q56 -45 226 -101l387 -123q186 -59 293 -155.5t107 -243.5q0 -294 -372 -387q-132 -33 -283 -33t-254 16.5t-196 46.5q-190 62 -309 173z" />
    <glyph glyph-name="afii10055" unicode="&#x406;" horiz-adv-x="583" 
d="M143 0v1434h297v-1434h-297z" />
    <glyph glyph-name="afii10056" unicode="&#x407;" horiz-adv-x="614" 
d="M-61 1731q0 61 42 107t110.5 46t111.5 -46t43 -107t-42 -107.5t-112 -46.5t-111.5 46t-41.5 108zM164 0v1434h297v-1434h-297zM369 1731q0 61 42 107t110.5 46t111.5 -46t43 -107t-42 -107.5t-112 -46.5t-111.5 46t-41.5 108z" />
    <glyph glyph-name="afii10057" unicode="&#x408;" horiz-adv-x="1351" 
d="M20 123l93 123q175 -133 399 -133q281 0 368 255q31 89 31 216v696h-481v154h778v-850q0 -306 -184 -469q-176 -156 -492 -156q-218 0 -412 99q-57 30 -100 65z" />
    <glyph glyph-name="afii10058" unicode="&#x409;" horiz-adv-x="2713" 
d="M41 -10v133h61q61 0 108.5 51t55.5 174l72 1086h1198v-533h461q315 0 475 -122t160 -328q0 -207 -160 -329t-475 -122h-758v1280h-625l-61 -932q-14 -201 -111.5 -290t-267.5 -89q-77 0 -133 21zM1536 154h461q147 0 232 74.5t85 222.5q0 147 -85 222t-232 75h-461v-594z
" />
    <glyph glyph-name="afii10059" unicode="&#x40a;" horiz-adv-x="2713" 
d="M143 0v1434h297v-594h799v594h297v-574h461q310 0 475 -118q160 -116 160 -312t-160 -312q-165 -118 -475 -118h-758v686h-799v-686h-297zM1536 154h461q147 0 232 72.5t85 203.5t-85 204t-232 73h-461v-553z" />
    <glyph glyph-name="afii10060" unicode="&#x40b;" horiz-adv-x="1812" 
d="M20 1280v154h994v-154h-389v-338h389q523 0 638 -251q38 -83 38 -189v-502h-297v502q0 145 -86 215.5t-293 70.5h-389v-788h-297v1280h-308z" />
    <glyph glyph-name="afii10061" unicode="&#x40c;" horiz-adv-x="1628" 
d="M143 0v1434h297v-646h338l471 646h328l-512 -707l543 -727h-338l-471 635h-359v-635h-297zM676 1516l123 307h288l-217 -307h-194z" />
    <glyph glyph-name="afii10062" unicode="&#x40e;" horiz-adv-x="1628" 
d="M0 1434h338l481 -840h21l450 840h318l-768 -1434h-318l226 420h-164zM420 1843h235q0 -92 47.5 -133t116.5 -41q70 0 117 41t47 133h236q0 -154 -92.5 -246t-307.5 -92t-307 92.5t-92 245.5z" />
    <glyph glyph-name="afii10145" unicode="&#x40f;" horiz-adv-x="1720" 
d="M143 0v1434h297v-1280h840v1280h297v-1434h-1434zM707 0h307l-41 -328h-225z" />
    <glyph glyph-name="afii10017" unicode="&#x410;" horiz-adv-x="1679" 
d="M20 0l584 1434h471l584 -1434h-295l-135 348h-778l-136 -348h-295zM522 502h635l-307 758h-21z" />
    <glyph glyph-name="afii10018" unicode="&#x411;" horiz-adv-x="1607" 
d="M143 0v1434h1229v-154h-932v-420h461q310 0 475 -118q160 -116 160 -312t-160 -312q-165 -118 -475 -118h-758zM440 154h461q147 0 232.5 72.5t85.5 203.5t-85 204t-233 73h-461v-553z" />
    <glyph glyph-name="afii10019" unicode="&#x412;" horiz-adv-x="1638" 
d="M143 0v1434h697q304 0 464 -106q150 -99 150 -273q0 -109 -61.5 -189t-184.5 -118q154 -31 241 -120t87 -229q0 -184 -152.5 -291.5t-482.5 -107.5h-758zM440 154h461q318 0 318 245q0 256 -318 256h-461v-501zM440 809h400q297 0 297 246q0 109 -75 167t-222 58h-400
v-471z" />
    <glyph glyph-name="afii10020" unicode="&#x413;" horiz-adv-x="1351" 
d="M143 0v1434h1188v-154h-891v-1280h-297z" />
    <glyph glyph-name="afii10021" unicode="&#x414;" horiz-adv-x="1781" 
d="M20 154h103q61 0 113.5 57t60.5 158l82 1065h1147v-1280h174v-482h-246l-41 328h-1106l-41 -328h-246v482zM440 154h789v1126h-574l-71 -911q-7 -96 -76 -162q-31 -33 -68 -53z" />
    <glyph glyph-name="afii10022" unicode="&#x415;" horiz-adv-x="1454" 
d="M143 0v1434h1250v-154h-953v-471h748v-154h-748v-501h953v-154h-1250z" />
    <glyph glyph-name="afii10024" unicode="&#x416;" horiz-adv-x="2344" 
d="M20 0l441 727l-410 707h328l369 -646h276v646h297v-646h276l369 646h328l-410 -707l440 -727h-337l-379 635h-287v-635h-297v635h-287l-379 -635h-338z" />
    <glyph glyph-name="afii10025" unicode="&#x417;" horiz-adv-x="1525" 
d="M41 195l102 122q219 -204 533 -204q335 0 416 173q24 52 24 113q0 123 -77.5 189.5t-239.5 66.5h-430v154h389q297 0 297 266q0 109 -88 177.5t-250 68.5q-307 0 -520 -184l-93 123q117 100 279 157.5t337 57.5t294 -29t198 -80q160 -102 160 -270q0 -131 -63.5 -216
t-202.5 -132q154 -39 241 -130.5t87 -238.5q0 -292 -402 -387q-139 -33 -338 -33t-367.5 63.5t-285.5 172.5z" />
    <glyph glyph-name="afii10026" unicode="&#x418;" horiz-adv-x="1761" 
d="M143 0v1434h297v-1168h21l768 1168h389v-1434h-297v1167h-21l-768 -1167h-389z" />
    <glyph glyph-name="afii10027" unicode="&#x419;" horiz-adv-x="1761" 
d="M143 0v1434h297v-1168h21l768 1168h389v-1434h-297v1167h-21l-768 -1167h-389zM461 1884h235q0 -92 47.5 -133t116.5 -41q70 0 117 41t47 133h236q0 -154 -92.5 -246t-307.5 -92t-307 92.5t-92 245.5z" />
    <glyph glyph-name="afii10028" unicode="&#x41a;" horiz-adv-x="1628" 
d="M143 0v1434h297v-646h338l471 646h328l-512 -707l543 -727h-338l-471 635h-359v-635h-297z" />
    <glyph glyph-name="afii10029" unicode="&#x41b;" horiz-adv-x="1699" 
d="M41 -10v133h61q61 0 108.5 51t55.5 174l72 1086h1218v-1434h-296v1280h-646l-61 -932q-14 -201 -111.5 -290t-267.5 -89q-77 0 -133 21z" />
    <glyph glyph-name="afii10030" unicode="&#x41c;" horiz-adv-x="2252" 
d="M143 0v1434h441l532 -1229h21l532 1229h440v-1434h-297v1147h-20l-492 -1147h-348l-491 1147h-21v-1147h-297z" />
    <glyph glyph-name="afii10031" unicode="&#x41d;" horiz-adv-x="1720" 
d="M143 0v1434h297v-656h840v656h297v-1434h-297v625h-840v-625h-297z" />
    <glyph glyph-name="afii10032" unicode="&#x41e;" horiz-adv-x="1843" 
d="M102 717q0 363 224 563q219 195 596 195q374 0 592 -195q227 -202 227 -563q0 -360 -227 -563q-216 -195 -592 -195q-379 0 -596 195q-224 201 -224 563zM420 717q0 -299 148 -465q133 -150 354 -150q220 0 354 150q147 166 147 465q0 300 -147 465q-134 149 -354 149
q-221 0 -354 -149q-148 -165 -148 -465z" />
    <glyph glyph-name="afii10033" unicode="&#x41f;" horiz-adv-x="1720" 
d="M143 0v1434h1434v-1434h-297v1280h-840v-1280h-297z" />
    <glyph glyph-name="afii10034" unicode="&#x420;" horiz-adv-x="1617" 
d="M143 0v1434h738q308 0 481 -132q174 -134 174 -370t-174 -370q-173 -132 -481 -132h-441v-430h-297zM440 584h441q162 0 251 85t89 263t-89.5 263t-250.5 85h-441v-696z" />
    <glyph glyph-name="afii10035" unicode="&#x421;" horiz-adv-x="1617" 
d="M102 717q0 363 224 563q219 195 596 195q186 0 352 -63.5t282 -172.5l-102 -123q-220 205 -512 205q-235 0 -372 -145q-150 -159 -150 -459q0 -303 152 -459q143 -145 391 -145q291 0 512 204l102 -122q-117 -109 -283 -172.5t-355.5 -63.5t-344 49t-264.5 146
q-228 201 -228 563z" />
    <glyph glyph-name="afii10036" unicode="&#x422;" horiz-adv-x="1443" 
d="M20 1280v154h1403v-154h-553v-1280h-297v1280h-553z" />
    <glyph glyph-name="afii10037" unicode="&#x423;" horiz-adv-x="1628" 
d="M0 1434h338l481 -840h21l450 840h318l-768 -1434h-318l226 420h-164z" />
    <glyph glyph-name="afii10038" unicode="&#x424;" horiz-adv-x="2037" 
d="M82 717q0 306 198 471q195 164 529 164h61v164h297v-164h62q334 0 529 -164q198 -167 198 -471t-198 -471q-195 -164 -529 -164h-62v-164h-297v164h-61q-334 0 -529 164q-198 165 -198 471zM399 717q0 -246 121 -371q106 -110 289 -110h61v962h-61q-283 0 -377 -259
q-33 -91 -33 -222zM1167 236h62q285 0 377 258q32 92 32 223q0 246 -120 371q-107 110 -289 110h-62v-962z" />
    <glyph glyph-name="afii10039" unicode="&#x425;" horiz-adv-x="1566" 
d="M0 0l608 735l-577 699h348l403 -490l406 490h348l-580 -699l611 -735h-348l-437 524l-434 -524h-348z" />
    <glyph glyph-name="afii10040" unicode="&#x426;" horiz-adv-x="1792" 
d="M143 0v1434h297v-1280h799v1280h297v-1280h174v-482h-246l-41 328h-1280z" />
    <glyph glyph-name="afii10041" unicode="&#x427;" horiz-adv-x="1607" 
d="M102 911v523h297v-523q0 -145 86 -215.5t293 -70.5h389v809h297v-1434h-297v471h-389q-522 0 -638 250q-38 82 -38 190z" />
    <glyph glyph-name="afii10042" unicode="&#x428;" horiz-adv-x="2242" 
d="M143 0v1434h297v-1280h533v1280h297v-1280h532v1280h297v-1434h-1956z" />
    <glyph glyph-name="afii10043" unicode="&#x429;" horiz-adv-x="2355" 
d="M143 0v1434h297v-1280h533v1280h297v-1280h532v1280h297v-1280h174v-482h-245l-41 328h-1844z" />
    <glyph glyph-name="afii10044" unicode="&#x42a;" horiz-adv-x="1802" 
d="M20 1260v174h607l-2 -2v-531h460q315 0 475 -122t160 -328q0 -207 -159.5 -329t-475.5 -122h-757v1260h-308zM625 154h460q147 0 232.5 74.5t85.5 222.5q0 147 -85 222t-233 75h-460v-594z" />
    <glyph glyph-name="afii10045" unicode="&#x42b;" horiz-adv-x="2140" 
d="M143 0v1434h297v-533h420q315 0 475 -122t160 -328q0 -207 -159.5 -329t-475.5 -122h-717zM440 154h420q147 0 232.5 74.5t85.5 222.5q0 147 -85 222t-233 75h-420v-594zM1700 0v1434h297v-1434h-297z" />
    <glyph glyph-name="afii10046" unicode="&#x42c;" horiz-adv-x="1617" 
d="M143 0v1434h297v-533h461q315 0 475 -122t160 -328q0 -207 -159.5 -329t-475.5 -122h-758zM440 154h461q147 0 232.5 74.5t85.5 222.5q0 147 -85 222t-233 75h-461v-594z" />
    <glyph glyph-name="afii10047" unicode="&#x42d;" horiz-adv-x="1617" 
d="M41 195l102 122q219 -204 512 -204q232 0 372 127q148 135 167 405h-772v154h772q-19 258 -164 396q-133 126 -354 126q-292 0 -512 -205l-103 123q117 109 283 172.5t351 63.5t336 -49.5t259 -145.5q226 -202 226 -563q0 -362 -228 -563q-221 -195 -612 -195
q-186 0 -352 63.5t-283 172.5z" />
    <glyph glyph-name="afii10048" unicode="&#x42e;" horiz-adv-x="2365" 
d="M143 0v1434h297v-656h248q20 331 236 517q210 180 551 180q354 0 567 -195q221 -203 221 -563q0 -359 -221 -563q-211 -195 -562 -195q-167 0 -304.5 43t-241.5 128q-215 177 -244 495h-250v-625h-297zM1004 717q0 -300 142 -465q130 -150 329 -150q198 0 327 150
q144 167 144 465q0 299 -144 465q-129 149 -327 149q-199 0 -329 -149q-142 -165 -142 -465z" />
    <glyph glyph-name="afii10049" unicode="&#x42f;" horiz-adv-x="1638" 
d="M82 0l338 483q-318 122 -318 449q0 235 174 370q172 132 482 132h737v-1434h-297v430h-477l-301 -430h-338zM420 932q0 -178 88 -263t250 -85h440v696h-440q-162 0 -250 -85t-88 -263z" />
    <glyph glyph-name="afii10065" unicode="&#x430;" horiz-adv-x="1320" 
d="M72 338q0 170 132 254t410 84h287q0 147 -76.5 217t-199.5 70q-187 0 -338 -103l-72 123q126 87 325 115q56 8 146 8t190.5 -31t169.5 -88q142 -116 142 -311v-676h-574q-279 0 -410.5 84t-131.5 254zM379 338q0 -195 235 -195h287v389h-287q-235 1 -235 -194z" />
    <glyph glyph-name="afii10066" unicode="&#x431;" horiz-adv-x="1392" 
d="M92 512v236q0 322 153.5 485.5t430.5 189.5l532 52v-236l-512 -51q-430 -43 -430 -440h21q123 235 440 235q256 0 424 -141q170 -144 170 -371q0 -226 -173 -371q-170 -141 -441 -141q-274 0 -442 147q-173 150 -173 406zM399 471q0 -183 93 -285q86 -94 215 -94t215 94
q92 101 92 285q0 176 -92 275q-86 94 -215 94t-215 -94q-93 -100 -93 -275z" />
    <glyph glyph-name="afii10067" unicode="&#x432;" 
d="M143 0v1065h543q248 0 381 -87q121 -79 121 -218q0 -70 -56.5 -125t-179.5 -72q147 -23 222 -93.5t75 -149.5t-29.5 -135t-91.5 -97q-132 -88 -380 -88h-605zM430 143h318q92 0 143 47.5t51 116.5q0 70 -51 117t-143 47h-318v-328zM430 614h256q92 0 143.5 46.5
t51.5 107.5t-51.5 107.5t-143.5 46.5h-256v-308z" />
    <glyph glyph-name="afii10068" unicode="&#x433;" horiz-adv-x="1024" 
d="M143 0v1065h861v-143h-574v-922h-287z" />
    <glyph glyph-name="afii10069" unicode="&#x434;" horiz-adv-x="1495" 
d="M20 143h82q149 0 164 205l51 717h943v-922h163v-450h-235l-41 307h-850l-41 -307h-236v450zM410 143h563v779h-389l-41 -574q-7 -88 -65 -152q-34 -36 -68 -53z" />
    <glyph glyph-name="afii10070" unicode="&#x435;" horiz-adv-x="1372" 
d="M92 532q0 272 167 426q162 148 427 148q256 0 420 -144q174 -154 174 -399v-143h-874q47 -318 352 -318q182 0 358 134l82 -123q-117 -105 -330 -143q-65 -11 -170.5 -11t-225.5 38t-204 111q-176 151 -176 424zM399 563h574q0 200 -89 313q-77 97 -201 97
q-56 0 -107.5 -22.5t-89.5 -72.5q-83 -110 -87 -315z" />
    <glyph glyph-name="afii10072" unicode="&#x436;" horiz-adv-x="2007" 
d="M41 0l379 543l-359 522h308l317 -461h174v461h287v-461h174l317 461h308l-359 -522l379 -543h-328l-317 461h-174v-461h-287v461h-174l-317 -461h-328z" />
    <glyph glyph-name="afii10073" unicode="&#x437;" horiz-adv-x="1228" 
d="M31 113l82 123q86 -53 188 -93.5t253 -40.5t213 52.5t62 137.5t-51 132t-143 47h-359v143h318q92 0 143 48.5t51 125.5q0 78 -54 126.5t-178 48.5q-200 0 -413 -134l-82 123q86 61 223.5 107.5t284 46.5t242.5 -24.5t159 -66.5q126 -83 126 -206q0 -201 -256 -246
q147 -23 222 -95.5t75 -180.5q0 -229 -311 -303q-109 -25 -271 -25t-300 46t-224 108z" />
    <glyph glyph-name="afii10074" unicode="&#x438;" horiz-adv-x="1433" 
d="M143 0v1065h287v-799h21l471 799h368v-1065h-286v799h-21l-471 -799h-369z" />
    <glyph glyph-name="afii10075" unicode="&#x439;" horiz-adv-x="1433" 
d="M143 0v1065h287v-799h21l471 799h368v-1065h-286v799h-21l-471 -799h-369zM307 1505h236q0 -78 46 -126t107 -48t107.5 48t46.5 126h235q0 -139 -98 -228t-291 -89t-291 89t-98 228z" />
    <glyph glyph-name="afii10076" unicode="&#x43a;" 
d="M143 0v1065h287v-461h215l318 461h307l-359 -522l379 -543h-327l-318 461h-215v-461h-287z" />
    <glyph glyph-name="afii10077" unicode="&#x43b;" horiz-adv-x="1392" 
d="M31 -10v123h61q89 0 118 121q11 45 15 114l41 717h983v-1065h-286v922h-431l-30 -574q-10 -207 -97.5 -293t-240.5 -86q-63 0 -133 21z" />
    <glyph glyph-name="afii10078" unicode="&#x43c;" horiz-adv-x="1822" 
d="M143 0v1065h420l338 -881h21l338 881h419v-1065h-286v778h-21l-297 -778h-325l-299 778h-21v-778h-287z" />
    <glyph glyph-name="afii10079" unicode="&#x43d;" horiz-adv-x="1413" 
d="M143 0v1065h287v-451h553v451h287v-1065h-287v471h-553v-471h-287z" />
    <glyph glyph-name="afii10080" unicode="&#x43e;" horiz-adv-x="1433" 
d="M92 532q0 272 174 426q168 148 450 148q138 0 253.5 -38t197.5 -110q174 -154 174 -426q0 -271 -174 -424q-168 -149 -450 -149q-283 0 -451 149q-174 153 -174 424zM399 532q0 -223 95 -338q83 -102 223 -102q219 0 291 238q26 84 26 202q0 225 -94 340
q-83 101 -223 101q-218 0 -292 -238q-26 -84 -26 -203z" />
    <glyph glyph-name="afii10081" unicode="&#x43f;" horiz-adv-x="1413" 
d="M143 0v1065h1127v-1065h-287v922h-553v-922h-287z" />
    <glyph glyph-name="afii10082" unicode="&#x440;" horiz-adv-x="1402" 
d="M143 -369v1434h543q286 0 455 -143q170 -145 170 -390q0 -244 -170 -388q-169 -144 -455 -144h-256v-369h-287zM430 143h256q225 0 294 211q24 74 24 178q0 198 -90 300q-80 90 -228 90h-256v-779z" />
    <glyph glyph-name="afii10083" unicode="&#x441;" horiz-adv-x="1269" 
d="M92 532q0 272 174 426q168 148 451 148q203 0 369 -90q53 -29 92 -64l-82 -123q-179 134 -359 134q-238 0 -312 -234q-26 -82 -26 -197q0 -329 213 -406q66 -24 146 -24q182 0 358 134l82 -123q-117 -105 -330 -143q-65 -11 -170.5 -11t-225.5 38t-204 111
q-176 151 -176 424z" />
    <glyph glyph-name="afii10084" unicode="&#x442;" horiz-adv-x="1187" 
d="M20 922v143h1147v-143h-430v-922h-286v922h-431z" />
    <glyph glyph-name="afii10085" unicode="&#x443;" 
d="M20 1065h287l359 -891h20l338 891h287l-543 -1434h-287l144 369h-174z" />
    <glyph glyph-name="afii10086" unicode="&#x444;" horiz-adv-x="1740" 
d="M92 532q0 244 168 390q165 143 436 143h31v369h287v-369h30q272 0 437 -143q168 -146 168 -390q0 -243 -168 -388q-165 -144 -437 -144h-30v-369h-287v369h-31q-271 0 -436 144q-168 145 -168 388zM399 532q0 -195 87 -298q76 -91 210 -91h31v779h-31q-206 0 -274 -212
q-23 -73 -23 -178zM1014 143h30q206 0 274 211q23 74 23 178q0 196 -87 300q-76 90 -210 90h-30v-779z" />
    <glyph glyph-name="afii10087" unicode="&#x445;" horiz-adv-x="1269" 
d="M20 0l451 539l-440 526h327l277 -332l276 332h328l-440 -526l450 -539h-327l-287 342l-287 -342h-328z" />
    <glyph glyph-name="afii10088" unicode="&#x446;" horiz-adv-x="1474" 
d="M143 0v1065h287v-922h512v922h287v-922h174v-450h-236l-41 307h-983z" />
    <glyph glyph-name="afii10089" unicode="&#x447;" horiz-adv-x="1341" 
d="M113 696v369h286v-369q0 -100 57.5 -152t188.5 -52h266v573h287v-1065h-287v348h-266q-532 0 -532 348z" />
    <glyph glyph-name="afii10090" unicode="&#x448;" horiz-adv-x="1884" 
d="M143 0v1065h287v-922h369v922h286v-922h369v922h287v-1065h-1598z" />
    <glyph glyph-name="afii10091" unicode="&#x449;" horiz-adv-x="1986" 
d="M143 0v1065h287v-922h369v922h286v-922h369v922h287v-922h174v-450h-236l-41 307h-1495z" />
    <glyph glyph-name="afii10092" unicode="&#x44a;" horiz-adv-x="1474" 
d="M20 901v164h574v-369h307q262 0 382 -93t120 -255t-120 -255t-382 -93h-594v901h-287zM594 143h307q92 0 143.5 52.5t51.5 152.5t-51.5 152.5t-143.5 52.5h-307v-410z" />
    <glyph glyph-name="afii10093" unicode="&#x44b;" horiz-adv-x="1781" 
d="M143 0v1065h287v-369h266q262 0 382 -93t120 -255t-120 -255t-382 -93h-553zM430 143h266q92 0 143.5 52.5t51.5 152.5t-51.5 152.5t-143.5 52.5h-266v-410zM1352 0v1065h286v-1065h-286z" />
    <glyph glyph-name="afii10094" unicode="&#x44c;" horiz-adv-x="1310" 
d="M143 0v1065h287v-369h307q262 0 382 -93t120 -255t-120 -255t-382 -93h-594zM430 143h307q92 0 143.5 52.5t51.5 152.5t-51.5 152.5t-143.5 52.5h-307v-410z" />
    <glyph glyph-name="afii10095" unicode="&#x44d;" horiz-adv-x="1269" 
d="M72 113l82 123q179 -134 343.5 -134t260.5 86t110 283h-530v143h528q-29 268 -210 330q-58 19 -124 19q-182 0 -358 -134l-82 123q117 105 330 142q65 12 166.5 12t217.5 -38t198 -110q174 -156 174 -426q0 -273 -178 -424q-174 -149 -468 -149q-123 0 -220 31
q-158 49 -240 123z" />
    <glyph glyph-name="afii10096" unicode="&#x44e;" horiz-adv-x="1904" 
d="M143 0v1065h287v-451h199q23 230 190 364q160 128 405 128q122 0 230.5 -38t187.5 -110q170 -155 170 -426q0 -270 -170 -424q-162 -149 -423 -149q-246 0 -406 133q-166 137 -186 379h-197v-471h-287zM932 532q0 -222 89 -338q77 -102 198 -102q120 0 197 102
q89 116 89 338q0 223 -89 340q-77 101 -197 101q-121 0 -198 -101q-89 -117 -89 -340z" />
    <glyph glyph-name="afii10097" unicode="&#x44f;" 
d="M82 0l274 395q-264 71 -264 322q0 162 120 255t382 93h594v-1065h-287v369h-233l-258 -369h-328zM399 717q0 -100 51.5 -152.5t143.5 -52.5h307v410h-307q-92 0 -143.5 -52.5t-51.5 -152.5z" />
    <glyph glyph-name="afii10071" unicode="&#x451;" horiz-adv-x="1372" 
d="M92 532q0 272 167 426q162 148 427 148q256 0 420 -144q174 -154 174 -399v-143h-874q47 -318 352 -318q182 0 358 134l82 -123q-117 -105 -330 -143q-65 -11 -170.5 -11t-225.5 38t-204 111q-176 151 -176 424zM297 1341q0 61 42 107.5t111 46.5t111.5 -46.5
t42.5 -107.5t-42 -107t-111 -46q-70 0 -112 46t-42 107zM399 563h574q0 200 -89 313q-77 97 -201 97q-56 0 -107.5 -22.5t-89.5 -72.5q-83 -110 -87 -315zM768 1341q0 61 42 107.5t111 46.5t111.5 -46.5t42.5 -107.5t-42 -107t-111 -46q-70 0 -112 46t-42 107z" />
    <glyph glyph-name="afii10099" unicode="&#x452;" horiz-adv-x="1443" 
d="M41 1126v144h184v164h287v-164h328v-144h-328v-163h266q574 0 574 -420v-195q0 -207 -90.5 -293t-257.5 -86q-84 0 -154 21v123h82q100 0 124 121q9 45 9 114v195q0 147 -73.5 211.5t-213.5 64.5h-266v-819h-287v1126h-184z" />
    <glyph glyph-name="afii10100" unicode="&#x453;" horiz-adv-x="1024" 
d="M143 0v1065h861v-143h-574v-922h-287zM461 1188l123 307h288l-217 -307h-194z" />
    <glyph glyph-name="afii10101" unicode="&#x454;" horiz-adv-x="1259" 
d="M92 532q0 272 174 426q168 148 451 148q203 0 369 -90q53 -29 92 -64l-82 -123q-179 134 -359 134q-215 0 -297 -189q-28 -67 -37 -160h529v-143h-531q14 -197 109.5 -283t262.5 -86t343 134l82 -123q-117 -105 -330 -143q-65 -11 -170.5 -11t-225.5 38t-204 111
q-176 151 -176 424z" />
    <glyph glyph-name="afii10102" unicode="&#x455;" horiz-adv-x="1259" 
d="M61 113l82 123q217 -134 471 -134q154 0 215.5 41t61.5 95.5t-43 92.5t-152 68l-317 93q-131 39 -214 111.5t-83 195.5q0 216 284 283q99 24 253.5 24t293 -46t224.5 -108l-82 -123q-84 53 -190.5 93.5t-238 40.5t-184.5 -35t-53 -85q0 -104 184 -157l318 -92
q307 -90 307 -307q0 -328 -584 -328q-244 0 -450 95q-60 28 -103 59z" />
    <glyph glyph-name="afii10103" unicode="&#x456;" horiz-adv-x="573" 
d="M133 1321q0 61 42 107.5t111 46.5t111.5 -46.5t42.5 -107.5t-42 -107.5t-111 -46.5q-70 0 -112 46.5t-42 107.5zM143 0v1044h287v-1044h-287z" />
    <glyph glyph-name="afii10104" unicode="&#x457;" horiz-adv-x="614" 
d="M-61 1321q0 61 42 107.5t110.5 46.5t111.5 -46.5t43 -107.5t-42 -107.5t-112 -46.5t-111.5 46.5t-41.5 107.5zM164 0v1044h287v-1044h-287zM369 1321q0 61 42 107.5t110.5 46.5t111.5 -46.5t43 -107.5t-42 -107.5t-112 -46.5t-111.5 46.5t-41.5 107.5z" />
    <glyph glyph-name="afii10105" unicode="&#x458;" horiz-adv-x="614" 
d="M-205 -358l41 133q79 -41 154 -41q128 0 170 142q14 50 14 124v1044h287v-1044q0 -179 -112 -293q-115 -117 -318 -117q-132 0 -236 52zM164 1321q0 61 42 107.5t110.5 46.5t111.5 -46.5t43 -107.5t-42 -107.5t-112 -46.5t-111.5 46.5t-41.5 107.5z" />
    <glyph glyph-name="afii10106" unicode="&#x459;" horiz-adv-x="2109" 
d="M31 -10v123h61q89 0 118 121q11 45 15 114l41 717h963v-369h307q262 0 382 -93t120 -255t-120 -255t-382 -93h-594v922h-410l-30 -574q-10 -207 -97.5 -293t-240.5 -86q-63 0 -133 21zM1229 143h307q92 0 143.5 52.5t51.5 152.5t-51.5 152.5t-143.5 52.5h-307v-410z" />
    <glyph glyph-name="afii10107" unicode="&#x45a;" horiz-adv-x="2109" 
d="M143 0v1065h287v-430h512v430h287v-410h307q376 0 472 -193q30 -61 30 -134q0 -235 -277 -304q-94 -24 -225 -24h-594v492h-512v-492h-287zM1229 143h307q92 0 143.5 49.5t51.5 135.5t-51.5 135t-143.5 49h-307v-369z" />
    <glyph glyph-name="afii10108" unicode="&#x45b;" horiz-adv-x="1474" 
d="M41 1126v144h184v164h287v-164h328v-144h-328v-163h266q574 0 574 -420v-543h-287v543q0 147 -73.5 211.5t-213.5 64.5h-266v-819h-287v1126h-184z" />
    <glyph glyph-name="afii10109" unicode="&#x45c;" 
d="M143 0v1065h287v-461h215l318 461h307l-359 -522l379 -543h-327l-318 461h-215v-461h-287zM563 1147l123 307h289l-217 -307h-195z" />
    <glyph glyph-name="afii10110" unicode="&#x45e;" 
d="M20 1065h287l359 -891h20l338 891h287l-543 -1434h-287l144 369h-174zM276 1464h236q0 -78 46 -126t108 -48q61 0 107 48t46 126h236q0 -139 -98 -228t-291 -89t-291.5 89t-98.5 228z" />
    <glyph glyph-name="afii10193" unicode="&#x45f;" horiz-adv-x="1413" 
d="M143 0v1065h287v-922h553v922h287v-1065h-420l-41 -307h-205l-41 307h-420z" />
    <glyph glyph-name="afii10050" unicode="&#x490;" horiz-adv-x="1351" 
d="M143 0v1434h922l41 245h225v-399h-891v-1280h-297z" />
    <glyph glyph-name="afii10098" unicode="&#x491;" horiz-adv-x="1024" 
d="M143 0v1065h605l40 235h216v-378h-574v-922h-287z" />
    <glyph glyph-name="uni2000" unicode="&#x2000;" horiz-adv-x="942" 
 />
    <glyph glyph-name="uni2001" unicode="&#x2001;" horiz-adv-x="1884" 
 />
    <glyph glyph-name="uni2002" unicode="&#x2002;" horiz-adv-x="942" 
 />
    <glyph glyph-name="uni2003" unicode="&#x2003;" horiz-adv-x="1884" 
 />
    <glyph glyph-name="uni2004" unicode="&#x2004;" horiz-adv-x="628" 
 />
    <glyph glyph-name="uni2005" unicode="&#x2005;" horiz-adv-x="471" 
 />
    <glyph glyph-name="uni2006" unicode="&#x2006;" horiz-adv-x="314" 
 />
    <glyph glyph-name="uni2007" unicode="&#x2007;" horiz-adv-x="314" 
 />
    <glyph glyph-name="uni2008" unicode="&#x2008;" horiz-adv-x="235" 
 />
    <glyph glyph-name="uni2009" unicode="&#x2009;" horiz-adv-x="376" 
 />
    <glyph glyph-name="uni200A" unicode="&#x200a;" horiz-adv-x="104" 
 />
    <glyph glyph-name="uni2010" unicode="&#x2010;" horiz-adv-x="1105" 
d="M82 573v185h942v-185h-942z" />
    <glyph glyph-name="uni2011" unicode="&#x2011;" horiz-adv-x="1105" 
d="M82 573v185h942v-185h-942z" />
    <glyph glyph-name="figuredash" unicode="&#x2012;" horiz-adv-x="1105" 
d="M82 573v185h942v-185h-942z" />
    <glyph glyph-name="endash" unicode="&#x2013;" horiz-adv-x="1290" 
d="M41 573v185h1208v-185h-1208z" />
    <glyph glyph-name="emdash" unicode="&#x2014;" horiz-adv-x="1781" 
d="M41 573v185h1700v-185h-1700z" />
    <glyph glyph-name="quoteleft" unicode="&#x2018;" horiz-adv-x="522" 
d="M102 1148q0 79 25 137t63 96q74 73 189 73v-72q-53 0 -99.5 -35.5t-54.5 -97.5q33 11 51 11q61 0 102.5 -46.5t41.5 -107.5t-42 -107.5t-116 -46.5t-117 58.5t-43 137.5z" />
    <glyph glyph-name="quoteright" unicode="&#x2019;" horiz-adv-x="522" 
d="M102 1300q0 61 42 107.5t116 46.5t117 -58t43 -137t-24.5 -137.5t-63.5 -96.5q-75 -73 -189 -73v72q53 0 99.5 36t54.5 97q-15 -10 -63.5 -10t-90 46t-41.5 107z" />
    <glyph glyph-name="quotesinglbase" unicode="&#x201a;" horiz-adv-x="522" 
d="M102 133q0 61 42 107.5t116 46.5t117 -58.5t43 -137.5t-24.5 -137t-63.5 -96q-75 -73 -189 -73v72q53 0 99.5 35.5t54.5 97.5q-15 -10 -63.5 -10t-90 46t-41.5 107z" />
    <glyph glyph-name="quotedblleft" unicode="&#x201c;" horiz-adv-x="931" 
d="M102 1148q0 79 25 137t63 96q74 73 189 73v-72q-53 0 -99.5 -35.5t-54.5 -97.5q33 11 51 11q61 0 102.5 -46.5t41.5 -107.5t-42 -107.5t-116 -46.5t-117 58.5t-43 137.5zM512 1148q0 79 24.5 137t63.5 96q75 73 188 73v-72q-53 0 -99 -35.5t-54 -97.5q33 11 51 11
q61 0 102 -46.5t41 -107.5t-42 -107.5t-115.5 -46.5t-116.5 58.5t-43 137.5z" />
    <glyph glyph-name="quotedblright" unicode="&#x201d;" horiz-adv-x="931" 
d="M102 1300q0 61 42 107.5t116 46.5t117 -58t43 -137t-24.5 -137.5t-63.5 -96.5q-75 -73 -189 -73v72q53 0 99.5 36t54.5 97q-15 -10 -63.5 -10t-90 46t-41.5 107zM512 1300q0 61 42 107.5t116 46.5t116.5 -58t42.5 -137t-24.5 -137.5t-63.5 -96.5q-75 -73 -188 -73v72
q53 0 99 36t55 97q-15 -10 -64 -10t-90 46t-41 107z" />
    <glyph glyph-name="quotedblbase" unicode="&#x201e;" horiz-adv-x="931" 
d="M102 133q0 61 42 107.5t116 46.5t117 -58.5t43 -137.5t-24.5 -137t-63.5 -96q-75 -73 -189 -73v72q53 0 99.5 35.5t54.5 97.5q-15 -10 -63.5 -10t-90 46t-41.5 107zM512 133q0 61 42 107.5t116 46.5t116.5 -58.5t42.5 -137.5t-24.5 -137t-63.5 -96q-75 -73 -188 -73v72
q53 0 99 35.5t55 97.5q-15 -10 -64 -10t-90 46t-41 107z" />
    <glyph glyph-name="bullet" unicode="&#x2022;" horiz-adv-x="778" 
d="M143 614q0 109 69 177.5t177 68.5q109 0 177.5 -68.5t68.5 -177.5t-68.5 -177t-177.5 -68t-177.5 68.5t-68.5 176.5z" />
    <glyph glyph-name="ellipsis" unicode="&#x2026;" 
d="M102 133q0 61 42 107.5t111 46.5t112 -46.5t43 -107.5t-42 -107t-112 -46t-112 46t-42 107zM512 133q0 61 42 107.5t111 46.5t111.5 -46.5t42.5 -107.5t-42 -107t-111 -46q-70 0 -112 46t-42 107zM922 133q0 61 42 107.5t110.5 46.5t111.5 -46.5t43 -107.5t-42 -107
t-112 -46t-111.5 46t-41.5 107z" />
    <glyph glyph-name="uni202F" unicode="&#x202f;" horiz-adv-x="376" 
 />
    <glyph glyph-name="guilsinglleft" unicode="&#x2039;" horiz-adv-x="798" 
d="M61 532l564 533l153 -164l-389 -369l389 -368l-153 -164z" />
    <glyph glyph-name="guilsinglright" unicode="&#x203a;" horiz-adv-x="798" 
d="M61 164l390 368l-390 369l154 164l563 -533l-563 -532z" />
    <glyph glyph-name="uni205F" unicode="&#x205f;" horiz-adv-x="471" 
 />
    <glyph glyph-name="Euro" unicode="&#x20ac;" horiz-adv-x="1720" 
d="M20 492l21 143h166q-2 20 -2 39v85q0 19 2 40h-166l20 143h170q99 389 508 498q131 35 301 35t336 -63.5t283 -172.5l-103 -123q-220 205 -512 205q-178 0 -312 -92t-185 -287h641l-21 -143h-643q-2 -20 -2 -40v-85q0 -19 2 -39h623l-21 -143h-579q51 -197 189 -288
t329 -91q291 0 512 204l102 -122q-117 -109 -282.5 -172.5t-352.5 -63.5q-324 0 -535.5 135t-277.5 398h-211z" />
    <glyph glyph-name="trademark" unicode="&#x2122;" horiz-adv-x="2201" 
d="M41 1311v123h840v-123h-308v-717h-225v717h-307zM942 594v840h328l246 -697h10l246 697h327v-840h-225v614h-10l-215 -614h-256l-215 614h-11v-614h-225z" />
    <glyph glyph-name="uniE000" unicode="&#xe000;" horiz-adv-x="1064" 
d="M0 0v1065h1065v-1065h-1065z" />
    </font>
</defs>
</svg>
