<svg width="35" height="35" viewBox="0 0 35 35" fill="none" xmlns="http://www.w3.org/2000/svg">
<g clip-path="url(#clip0)">
<path d="M11.7251 32.2196C11.5851 31.9047 11.3595 31.6353 11.0739 31.4421C10.7883 31.2488 10.4543 31.1394 10.1096 31.1262C9.53634 31.1262 8.95266 31.1262 8.3794 31.1262C8.31139 31.133 8.24652 31.1582 8.19179 31.1991C8.12895 31.2311 8.07786 31.2821 8.04587 31.3449C7.90636 31.6211 7.69354 31.8536 7.43067 32.0171C7.1678 32.1805 6.86501 32.2686 6.5554 32.2717C6.24374 32.2851 5.93506 32.2063 5.66806 32.0451C5.40105 31.8839 5.18762 31.6476 5.05451 31.3657C5.01841 31.2801 4.95468 31.209 4.87347 31.1637C4.79226 31.1184 4.69823 31.1016 4.60632 31.1158H3.91841C3.61615 31.1158 3.31389 31.1158 3.02205 31.1158C2.6679 31.123 2.3233 31.2319 2.02943 31.4294C1.73555 31.627 1.50483 31.905 1.36481 32.2301L1.55242 32.3342L2.34456 32.7507C2.66767 32.9382 2.78232 33.2089 2.64682 33.4797C2.60978 33.5441 2.55961 33.6001 2.49956 33.6439C2.43952 33.6878 2.37093 33.7185 2.29824 33.7342C2.22554 33.7499 2.15036 33.7502 2.07755 33.7351C2.00473 33.7199 1.93591 33.6897 1.87553 33.6463C1.47946 33.438 1.09382 33.2089 0.708171 32.9798L0.614365 32.9174C0.548017 32.8853 0.488772 32.8402 0.44012 32.7849C0.391469 32.7295 0.354394 32.665 0.331082 32.5952C0.30777 32.5253 0.298692 32.4515 0.304383 32.378C0.310073 32.3046 0.330417 32.233 0.364216 32.1676C0.537008 31.5765 0.893945 31.0558 1.38316 30.6813C1.87238 30.3068 2.46839 30.0978 3.08459 30.0849C3.48065 30.0849 3.87672 30.0849 4.30406 30.0849H5.03366L4.92943 29.8766C4.88129 29.7699 4.82189 29.6687 4.75224 29.5746C4.60632 29.3976 4.43956 29.2205 4.28321 29.0435C4.12687 28.8665 3.81419 28.5332 3.59531 28.2521C3.29814 27.8584 3.15708 27.3688 3.19924 26.8775C3.19924 26.6692 3.19924 26.4714 3.19924 26.2631V25.8361C3.254 25.6043 3.23642 25.3613 3.14884 25.1398C3.06126 24.9182 2.9079 24.7288 2.70936 24.5969C2.45592 24.348 2.30369 24.0141 2.28202 23.6597C2.24545 23.2474 2.24545 22.8327 2.28202 22.4205V22.1289C2.28202 21.7436 2.46964 21.5562 2.85528 21.5562H3.89757C5.29423 21.5562 6.6909 21.5562 8.06672 21.5562C8.31852 21.5588 8.56726 21.6116 8.79845 21.7113C9.02964 21.811 9.23865 21.9557 9.41328 22.137C9.58791 22.3182 9.72467 22.5324 9.81559 22.767C9.90651 23.0016 9.94977 23.252 9.94283 23.5035C9.94283 24.6906 9.94283 25.8674 9.94283 27.0441C9.89378 27.8086 9.54558 28.5231 8.97351 29.0331C8.87631 29.1476 8.76808 29.2522 8.6504 29.3455L8.33771 29.6475C8.27507 29.7313 8.22259 29.8221 8.18137 29.9182C8.15668 29.9871 8.12526 30.0534 8.08756 30.1161H10.1096C10.7037 30.1392 11.2766 30.343 11.7516 30.7004C12.2266 31.0577 12.581 31.5514 12.7674 32.1155C12.8396 32.2662 12.8494 32.4392 12.7948 32.5971C12.7401 32.755 12.6255 32.885 12.4756 32.959C10.1294 34.5228 7.25777 35.0921 4.49167 34.5419C4.07476 34.469 3.88715 34.2503 3.93926 33.9483C3.99137 33.6463 4.27279 33.4797 4.68971 33.5526C6.99171 34.0083 9.38104 33.6123 11.4125 32.4383L11.6418 32.303L11.7251 32.2196ZM4.17899 25.0864C4.17899 25.253 4.17899 25.4092 4.17899 25.555C4.20019 25.8566 4.20019 26.1593 4.17899 26.4609C4.11926 26.8438 4.16761 27.2357 4.31859 27.5926C4.46958 27.9495 4.71721 28.2572 5.03366 28.4812C5.37444 28.6989 5.64202 29.0138 5.80182 29.3851C5.96161 29.7563 6.00627 30.167 5.93003 30.5639C5.91803 30.6542 5.92702 30.7461 5.95631 30.8325C5.98559 30.9188 6.03437 30.9972 6.09888 31.0617C6.16339 31.1261 6.24188 31.1748 6.32828 31.2041C6.41468 31.2334 6.50666 31.2423 6.59709 31.2304C6.68381 31.2277 6.76912 31.2077 6.84792 31.1715C6.92672 31.1352 6.99741 31.0835 7.05577 31.0193C7.11413 30.9552 7.15897 30.88 7.18761 30.7981C7.21625 30.7163 7.2281 30.6296 7.22246 30.5431C7.22246 30.3556 7.22246 30.1682 7.22246 29.9807V29.8349C7.21408 29.6646 7.24772 29.4947 7.32041 29.3404C7.39311 29.1861 7.50264 29.0519 7.63938 28.9498C7.96086 28.6929 8.2512 28.3993 8.50448 28.075C8.73823 27.8238 8.90021 27.5146 8.97351 27.1795C8.97351 26.6692 8.97351 26.1381 8.97351 25.6695C8.97351 25.4717 8.97351 25.2738 8.97351 25.0864H4.17899ZM3.25135 22.5871V22.8995C3.25135 23.1078 3.25135 23.3056 3.25135 23.5035C3.25135 23.92 3.42854 24.0971 3.83503 24.1075H8.22306C8.3474 24.1138 8.47107 24.0857 8.58049 24.0263C8.6899 23.967 8.78084 23.8787 8.8433 23.7711C8.90577 23.6635 8.93735 23.5407 8.93457 23.4164C8.9318 23.292 8.89478 23.1708 8.82759 23.0661C8.7383 22.9024 8.60266 22.7687 8.43766 22.6816C8.27266 22.5945 8.08561 22.558 7.89995 22.5767H3.59531H3.41812L3.25135 22.5871Z" fill="#6651E6"/>
<path d="M11.7251 32.2196C11.5851 31.9047 11.3595 31.6353 11.0739 31.4421C10.7883 31.2488 10.4543 31.1394 10.1096 31.1262C9.53634 31.1262 8.95266 31.1262 8.3794 31.1262C8.31139 31.133 8.24652 31.1582 8.19179 31.1991C8.12895 31.2311 8.07786 31.2821 8.04587 31.3449C7.90636 31.6211 7.69354 31.8536 7.43067 32.0171C7.1678 32.1805 6.86501 32.2686 6.5554 32.2717C6.24374 32.2851 5.93506 32.2063 5.66806 32.0451C5.40105 31.8839 5.18762 31.6476 5.05451 31.3657C5.01841 31.2801 4.95468 31.209 4.87347 31.1637C4.79226 31.1184 4.69823 31.1016 4.60632 31.1158H3.91841C3.61615 31.1158 3.31389 31.1158 3.02205 31.1158C2.6679 31.123 2.3233 31.2319 2.02943 31.4294C1.73555 31.627 1.50483 31.905 1.36481 32.2301L1.55242 32.3342L2.34456 32.7507C2.66767 32.9382 2.78232 33.2089 2.64682 33.4797C2.60978 33.5441 2.55961 33.6001 2.49956 33.6439C2.43952 33.6878 2.37093 33.7185 2.29824 33.7342C2.22554 33.7499 2.15036 33.7502 2.07755 33.7351C2.00473 33.7199 1.93591 33.6897 1.87553 33.6463C1.47946 33.438 1.09382 33.2089 0.708171 32.9798L0.614365 32.9174C0.548017 32.8853 0.488772 32.8402 0.44012 32.7849C0.391469 32.7295 0.354394 32.665 0.331082 32.5952C0.30777 32.5253 0.298692 32.4515 0.304383 32.378C0.310073 32.3046 0.330417 32.233 0.364216 32.1676C0.537008 31.5765 0.893945 31.0558 1.38316 30.6813C1.87238 30.3068 2.46839 30.0978 3.08459 30.0849C3.48065 30.0849 3.87672 30.0849 4.30406 30.0849H5.03366L4.92943 29.8766C4.88129 29.7699 4.82189 29.6687 4.75224 29.5746C4.60632 29.3976 4.43956 29.2205 4.28321 29.0435C4.12687 28.8665 3.81419 28.5332 3.59531 28.2521C3.29814 27.8584 3.15708 27.3688 3.19924 26.8775C3.19924 26.6692 3.19924 26.4714 3.19924 26.2631V25.8361C3.254 25.6043 3.23642 25.3613 3.14884 25.1398C3.06126 24.9182 2.9079 24.7288 2.70936 24.5969C2.45592 24.348 2.30369 24.0141 2.28202 23.6597C2.24545 23.2474 2.24545 22.8327 2.28202 22.4205V22.1289C2.28202 21.7436 2.46964 21.5562 2.85528 21.5562H3.89757C5.29423 21.5562 6.6909 21.5562 8.06672 21.5562C8.31852 21.5588 8.56726 21.6116 8.79845 21.7113C9.02964 21.811 9.23865 21.9557 9.41328 22.137C9.58791 22.3182 9.72467 22.5324 9.81559 22.767C9.90651 23.0016 9.94977 23.252 9.94283 23.5035C9.94283 24.6906 9.94283 25.8674 9.94283 27.0441C9.89378 27.8086 9.54558 28.5231 8.97351 29.0331C8.87631 29.1476 8.76808 29.2522 8.6504 29.3455L8.33771 29.6475C8.27507 29.7313 8.22259 29.8221 8.18137 29.9182C8.15668 29.9871 8.12526 30.0534 8.08756 30.1161H10.1096C10.7037 30.1392 11.2766 30.343 11.7516 30.7004C12.2266 31.0577 12.581 31.5514 12.7674 32.1155C12.8396 32.2662 12.8494 32.4392 12.7948 32.5971C12.7401 32.755 12.6255 32.885 12.4756 32.959C10.1294 34.5228 7.25777 35.0921 4.49167 34.5419C4.07476 34.469 3.88715 34.2503 3.93926 33.9483C3.99137 33.6463 4.27279 33.4797 4.68971 33.5526C6.99171 34.0083 9.38104 33.6123 11.4125 32.4383L11.6418 32.303L11.7251 32.2196ZM4.17899 25.0864C4.17899 25.253 4.17899 25.4092 4.17899 25.555C4.20019 25.8566 4.20019 26.1593 4.17899 26.4609C4.11926 26.8438 4.16761 27.2357 4.31859 27.5926C4.46958 27.9495 4.71721 28.2572 5.03366 28.4812C5.37444 28.6989 5.64202 29.0138 5.80182 29.3851C5.96161 29.7563 6.00627 30.167 5.93003 30.5639C5.91803 30.6542 5.92702 30.7461 5.95631 30.8325C5.98559 30.9188 6.03437 30.9972 6.09888 31.0617C6.16339 31.1261 6.24188 31.1748 6.32828 31.2041C6.41468 31.2334 6.50666 31.2423 6.59709 31.2304C6.68381 31.2277 6.76912 31.2077 6.84792 31.1715C6.92672 31.1352 6.99741 31.0835 7.05577 31.0193C7.11413 30.9552 7.15897 30.88 7.18761 30.7981C7.21625 30.7163 7.2281 30.6296 7.22246 30.5431C7.22246 30.3556 7.22246 30.1682 7.22246 29.9807V29.8349C7.21408 29.6646 7.24772 29.4947 7.32041 29.3404C7.39311 29.1861 7.50264 29.0519 7.63938 28.9498C7.96086 28.6929 8.2512 28.3993 8.50448 28.075C8.73823 27.8238 8.90021 27.5146 8.97351 27.1795C8.97351 26.6692 8.97351 26.1381 8.97351 25.6695C8.97351 25.4717 8.97351 25.2738 8.97351 25.0864H4.17899ZM3.25135 22.5871V22.8995C3.25135 23.1078 3.25135 23.3056 3.25135 23.5035C3.25135 23.92 3.42854 24.0971 3.83503 24.1075H8.22306C8.3474 24.1138 8.47107 24.0857 8.58049 24.0263C8.6899 23.967 8.78084 23.8787 8.8433 23.7711C8.90577 23.6635 8.93735 23.5407 8.93457 23.4164C8.9318 23.292 8.89478 23.1708 8.82759 23.0661C8.7383 22.9024 8.60266 22.7687 8.43766 22.6816C8.27266 22.5945 8.08561 22.558 7.89995 22.5767H3.59531H3.41812L3.25135 22.5871Z" stroke="#6651E6" stroke-width="0.5"/>
<path d="M33.6135 32.2612C33.489 31.9312 33.2687 31.6459 32.9809 31.4418C32.6931 31.2377 32.3508 31.1241 31.9979 31.1157C31.4247 31.1157 30.8618 31.1157 30.299 31.1157C30.231 31.1225 30.1661 31.1477 30.1114 31.1886C30.0486 31.2205 29.9975 31.2716 29.9655 31.3344C29.8218 31.6161 29.6023 31.8521 29.3316 32.0159C29.0609 32.1796 28.7498 32.2646 28.4333 32.2612C28.1158 32.2641 27.8042 32.1752 27.536 32.0052C27.2679 31.8352 27.0546 31.5914 26.922 31.3031C26.8851 31.2505 26.8392 31.2046 26.7865 31.1678C26.7331 31.1351 26.6719 31.1171 26.6093 31.1157C26.0256 31.1157 25.4524 31.1157 24.8791 31.1157C24.522 31.1211 24.1737 31.2277 23.8747 31.4231C23.5758 31.6185 23.3386 31.8947 23.1906 32.2195C23.9632 32.7271 24.8108 33.1102 25.7025 33.3546C27.1866 33.7839 28.752 33.8517 30.2677 33.5525C30.6534 33.4691 30.9244 33.6254 30.9869 33.9378C31.0495 34.2502 30.8618 34.4689 30.4762 34.5313C29.0884 34.8142 27.658 34.8171 26.2691 34.5399C24.8801 34.2627 23.5606 33.711 22.3881 32.9172C22.2648 32.8469 22.1713 32.7341 22.1253 32.5999C22.0793 32.4657 22.0837 32.3194 22.1379 32.1883C22.319 31.6 22.6844 31.0853 23.1802 30.72C23.6596 30.3487 24.242 30.1342 24.8479 30.1056C25.2648 30.1056 25.6817 30.1056 26.1403 30.1056H26.8803L26.7865 29.9181C26.7551 29.8196 26.7056 29.7278 26.6406 29.6474C26.5364 29.5328 26.4217 29.4287 26.3071 29.3246C26.1924 29.2204 26.1507 29.1892 26.0882 29.1163C25.7124 28.8024 25.4205 28.4002 25.2386 27.9458C25.0567 27.4915 24.9905 26.9991 25.0459 26.5129C25.0614 26.3849 25.0614 26.2556 25.0459 26.1276C25.0405 26.0374 25.0405 25.947 25.0459 25.8568C25.0964 25.6307 25.0776 25.3946 24.9921 25.1792C24.9067 24.9638 24.7583 24.779 24.5664 24.6489C24.311 24.3876 24.156 24.0446 24.1287 23.6804C24.0973 23.2714 24.0973 22.8606 24.1287 22.4516C24.1287 22.337 24.1287 22.2225 24.1287 22.0975C24.1175 22.0192 24.1252 21.9394 24.1509 21.8647C24.1766 21.7899 24.2197 21.7223 24.2767 21.6674C24.3337 21.6125 24.4029 21.5719 24.4786 21.5489C24.5543 21.5259 24.6345 21.5212 24.7124 21.5352H25.6817C27.0992 21.5352 28.5271 21.5352 29.9446 21.5352C30.1964 21.5352 30.4457 21.5852 30.6779 21.6824C30.9101 21.7796 31.1206 21.922 31.2972 22.1013C31.4737 22.2806 31.6128 22.4933 31.7063 22.7268C31.7997 22.9604 31.8457 23.2102 31.8416 23.4617C31.8416 24.2948 31.8416 25.1175 31.8416 25.9401C31.8416 26.3046 31.8416 26.6795 31.8416 27.044C31.8141 27.7055 31.5344 28.3314 31.0599 28.7935C30.9177 28.9598 30.7645 29.1163 30.6013 29.2621L30.2261 29.637C30.177 29.7136 30.1417 29.7981 30.1218 29.8869V30.0014C30.2189 30.0435 30.3202 30.075 30.4241 30.0952H32.0084C32.621 30.113 33.2121 30.3245 33.6969 30.6991C34.1956 31.0661 34.5614 31.5851 34.7392 32.1779C34.8009 32.308 34.8092 32.457 34.7625 32.5932C34.7158 32.7294 34.6176 32.8419 34.489 32.9068C34.0617 33.1567 33.6343 33.4171 33.1966 33.6566C33.1375 33.6974 33.0705 33.7254 33 33.7386C32.9294 33.7518 32.8568 33.75 32.787 33.7333C32.7171 33.7166 32.6516 33.6853 32.5947 33.6416C32.5377 33.5979 32.4907 33.5427 32.4565 33.4796C32.3002 33.2192 32.4565 32.9381 32.7484 32.7506L33.4259 32.3653L33.6135 32.2612ZM26.0673 25.1071V25.6277C26.088 25.9745 26.088 26.3223 26.0673 26.6691C26.0458 26.9262 26.0783 27.185 26.1626 27.4289C26.247 27.6727 26.3814 27.8963 26.5572 28.0853L26.6614 28.2103C26.8049 28.4022 26.9771 28.5708 27.1722 28.7101C27.452 28.895 27.6648 29.1649 27.7793 29.4799C27.8938 29.795 27.9039 30.1385 27.8079 30.4596C27.8027 30.5463 27.8027 30.6333 27.8079 30.72C27.817 30.8363 27.858 30.9479 27.9264 31.0425C27.9948 31.1371 28.0879 31.211 28.1956 31.2562C28.3033 31.3014 28.4213 31.316 28.5368 31.2986C28.6523 31.2812 28.7607 31.2323 28.8502 31.1573C28.9318 31.0639 28.9986 30.9585 29.0483 30.8449C29.0911 30.7321 29.1089 30.6113 29.1004 30.4909C29.0191 30.1603 29.0438 29.8126 29.1709 29.4968C29.2981 29.181 29.5214 28.9132 29.8091 28.731C29.9421 28.6484 30.0559 28.5384 30.1427 28.4082C30.2052 28.304 30.2886 28.1999 30.3616 28.0957C30.5805 27.8502 30.7408 27.5582 30.8306 27.2418C30.8949 26.7447 30.9124 26.2427 30.8827 25.7423C30.8827 25.534 30.8827 25.3362 30.8827 25.1383L26.0673 25.1071ZM25.1397 22.587V22.941C25.1397 23.1597 25.1397 23.368 25.1397 23.5763C25.1338 23.6448 25.1425 23.7139 25.1651 23.7789C25.1877 23.8439 25.2238 23.9034 25.2711 23.9535C25.3183 24.0036 25.3755 24.0432 25.4391 24.0697C25.5027 24.0963 25.5711 24.1091 25.64 24.1074C27.1617 24.1074 28.6835 24.1074 30.2052 24.1074C30.3069 24.1087 30.4074 24.0853 30.4979 24.039C30.5885 23.9928 30.6664 23.9253 30.7249 23.8422C30.7835 23.7591 30.8208 23.663 30.8338 23.5622C30.8467 23.4614 30.8349 23.359 30.7993 23.2639C30.7468 23.037 30.6098 22.8387 30.4162 22.7091C30.2227 22.5795 29.987 22.5284 29.757 22.5661H25.4315C25.3624 22.5565 25.2922 22.5565 25.2231 22.5661L25.1397 22.587Z" fill="#6651E6"/>
<path d="M33.6135 32.2612C33.489 31.9312 33.2687 31.6459 32.9809 31.4418C32.6931 31.2377 32.3508 31.1241 31.9979 31.1157C31.4247 31.1157 30.8618 31.1157 30.299 31.1157C30.231 31.1225 30.1661 31.1477 30.1114 31.1886C30.0486 31.2205 29.9975 31.2716 29.9655 31.3344C29.8218 31.6161 29.6023 31.8521 29.3316 32.0159C29.0609 32.1796 28.7498 32.2646 28.4333 32.2612C28.1158 32.2641 27.8042 32.1752 27.536 32.0052C27.2679 31.8352 27.0546 31.5914 26.922 31.3031C26.8851 31.2505 26.8392 31.2046 26.7865 31.1678C26.7331 31.1351 26.6719 31.1171 26.6093 31.1157C26.0256 31.1157 25.4524 31.1157 24.8791 31.1157C24.522 31.1211 24.1737 31.2277 23.8747 31.4231C23.5758 31.6185 23.3386 31.8947 23.1906 32.2195C23.9632 32.7271 24.8108 33.1102 25.7025 33.3546C27.1866 33.7839 28.752 33.8517 30.2677 33.5525C30.6534 33.4691 30.9244 33.6254 30.9869 33.9378C31.0495 34.2502 30.8618 34.4689 30.4762 34.5313C29.0884 34.8142 27.658 34.8171 26.2691 34.5399C24.8801 34.2627 23.5606 33.711 22.3881 32.9172C22.2648 32.8469 22.1713 32.7341 22.1253 32.5999C22.0793 32.4657 22.0837 32.3194 22.1379 32.1883C22.319 31.6 22.6844 31.0853 23.1802 30.72C23.6596 30.3487 24.242 30.1342 24.8479 30.1056C25.2648 30.1056 25.6817 30.1056 26.1403 30.1056H26.8803L26.7865 29.9181C26.7551 29.8196 26.7056 29.7278 26.6406 29.6474C26.5364 29.5328 26.4217 29.4287 26.3071 29.3246C26.1924 29.2204 26.1507 29.1892 26.0882 29.1163C25.7124 28.8024 25.4205 28.4002 25.2386 27.9458C25.0567 27.4915 24.9905 26.9991 25.0459 26.5129C25.0614 26.3849 25.0614 26.2556 25.0459 26.1276C25.0405 26.0374 25.0405 25.947 25.0459 25.8568C25.0964 25.6307 25.0776 25.3946 24.9921 25.1792C24.9067 24.9638 24.7583 24.779 24.5664 24.6489C24.311 24.3876 24.156 24.0446 24.1287 23.6804C24.0973 23.2714 24.0973 22.8606 24.1287 22.4516C24.1287 22.337 24.1287 22.2225 24.1287 22.0975C24.1175 22.0192 24.1252 21.9394 24.1509 21.8647C24.1766 21.7899 24.2197 21.7223 24.2767 21.6674C24.3337 21.6125 24.4029 21.5719 24.4786 21.5489C24.5543 21.5259 24.6345 21.5212 24.7124 21.5352H25.6817C27.0992 21.5352 28.5271 21.5352 29.9446 21.5352C30.1964 21.5352 30.4457 21.5852 30.6779 21.6824C30.9101 21.7796 31.1206 21.922 31.2972 22.1013C31.4737 22.2806 31.6128 22.4933 31.7063 22.7268C31.7997 22.9604 31.8457 23.2102 31.8416 23.4617C31.8416 24.2948 31.8416 25.1175 31.8416 25.9401C31.8416 26.3046 31.8416 26.6795 31.8416 27.044C31.8141 27.7055 31.5344 28.3314 31.0599 28.7935C30.9177 28.9598 30.7645 29.1163 30.6013 29.2621L30.2261 29.637C30.177 29.7136 30.1417 29.7981 30.1218 29.8869V30.0014C30.2189 30.0435 30.3202 30.075 30.4241 30.0952H32.0084C32.621 30.113 33.2121 30.3245 33.6969 30.6991C34.1956 31.0661 34.5614 31.5851 34.7392 32.1779C34.8009 32.308 34.8092 32.457 34.7625 32.5932C34.7158 32.7294 34.6176 32.8419 34.489 32.9068C34.0617 33.1567 33.6343 33.4171 33.1966 33.6566C33.1375 33.6974 33.0705 33.7254 33 33.7386C32.9294 33.7518 32.8568 33.75 32.787 33.7333C32.7171 33.7166 32.6516 33.6853 32.5947 33.6416C32.5377 33.5979 32.4907 33.5427 32.4565 33.4796C32.3002 33.2192 32.4565 32.9381 32.7484 32.7506L33.4259 32.3653L33.6135 32.2612ZM26.0673 25.1071V25.6277C26.088 25.9745 26.088 26.3223 26.0673 26.6691C26.0458 26.9262 26.0783 27.185 26.1626 27.4289C26.247 27.6727 26.3814 27.8963 26.5572 28.0853L26.6614 28.2103C26.8049 28.4022 26.9771 28.5708 27.1722 28.7101C27.452 28.895 27.6648 29.1649 27.7793 29.4799C27.8938 29.795 27.9039 30.1385 27.8079 30.4596C27.8027 30.5463 27.8027 30.6333 27.8079 30.72C27.817 30.8363 27.858 30.9479 27.9264 31.0425C27.9948 31.1371 28.0879 31.211 28.1956 31.2562C28.3033 31.3014 28.4213 31.316 28.5368 31.2986C28.6523 31.2812 28.7607 31.2323 28.8502 31.1573C28.9318 31.0639 28.9986 30.9585 29.0483 30.8449C29.0911 30.7321 29.1089 30.6113 29.1004 30.4909C29.0191 30.1603 29.0438 29.8126 29.1709 29.4968C29.2981 29.181 29.5214 28.9132 29.8091 28.731C29.9421 28.6484 30.0559 28.5384 30.1427 28.4082C30.2052 28.304 30.2886 28.1999 30.3616 28.0957C30.5805 27.8502 30.7408 27.5582 30.8306 27.2418C30.8949 26.7447 30.9124 26.2427 30.8827 25.7423C30.8827 25.534 30.8827 25.3362 30.8827 25.1383L26.0673 25.1071ZM25.1397 22.587V22.941C25.1397 23.1597 25.1397 23.368 25.1397 23.5763C25.1338 23.6448 25.1425 23.7139 25.1651 23.7789C25.1877 23.8439 25.2238 23.9034 25.2711 23.9535C25.3183 24.0036 25.3755 24.0432 25.4391 24.0697C25.5027 24.0963 25.5711 24.1091 25.64 24.1074C27.1617 24.1074 28.6835 24.1074 30.2052 24.1074C30.3069 24.1087 30.4074 24.0853 30.4979 24.039C30.5885 23.9928 30.6664 23.9253 30.7249 23.8422C30.7835 23.7591 30.8208 23.663 30.8338 23.5622C30.8467 23.4614 30.8349 23.359 30.7993 23.2639C30.7468 23.037 30.6098 22.8387 30.4162 22.7091C30.2227 22.5795 29.987 22.5284 29.757 22.5661H25.4315C25.3624 22.5565 25.2922 22.5565 25.2231 22.5661L25.1397 22.587Z" stroke="#6651E6" stroke-width="0.5"/>
<path d="M15.8948 8.82021C15.7801 8.64318 15.6655 8.46615 15.5404 8.29953C15.4153 8.13291 15.259 7.97671 15.1131 7.8205C14.9672 7.6643 14.6232 7.25817 14.3939 6.96659C14.0976 6.5569 13.9605 6.05354 14.0083 5.55035C14.0342 5.03694 14.0342 4.52255 14.0083 4.00914C14.0059 3.93681 13.9881 3.86581 13.9561 3.80087C13.9261 3.73744 13.8792 3.68343 13.8206 3.64466C13.5999 3.5004 13.4146 3.30817 13.2787 3.08233C13.1806 2.84878 13.1378 2.59576 13.1536 2.34297C13.1536 1.85353 13.1536 1.37451 13.1536 0.885068C13.1536 0.39563 13.3516 0.260254 13.8102 0.260254H19.0217C19.536 0.262958 20.0286 0.467567 20.3932 0.829932C20.7578 1.1923 20.9653 1.68337 20.9707 2.19718C20.9707 3.40515 20.9707 4.61313 20.9707 5.8211C20.9391 6.43048 20.6873 7.0077 20.262 7.44562C20.1056 7.62265 19.9389 7.79968 19.7617 7.96629C19.5845 8.13291 19.5011 8.21622 19.3865 8.3516C19.3203 8.43115 19.2643 8.5186 19.2197 8.61194L19.0217 8.80979H20.929C21.5537 8.82334 22.1585 9.03127 22.6592 9.40461C23.16 9.77795 23.5316 10.2981 23.7224 10.8925C23.7851 11.0397 23.7898 11.2052 23.7357 11.3558C23.6816 11.5063 23.5726 11.631 23.4305 11.7048C21.0832 13.2658 18.2141 13.8383 15.4466 13.298C15.0401 13.2251 14.8421 12.996 14.8838 12.7045C14.9255 12.4129 15.2069 12.2359 15.6342 12.3088C17.8643 12.7226 20.1689 12.3547 22.1589 11.2674L22.5237 11.0487L22.6697 10.955C22.5199 10.6277 22.2813 10.3489 21.9811 10.1501C21.6808 9.9513 21.3308 9.84053 20.9707 9.83032C20.4183 9.83032 19.8659 9.83032 19.3135 9.83032C19.2459 9.84484 19.182 9.8732 19.1259 9.91363C19.0697 9.95411 19.0205 10.0033 18.98 10.0594C18.8457 10.3471 18.63 10.5892 18.3596 10.7557C18.0891 10.9223 17.7758 11.006 17.4582 10.9966C17.1463 11.0046 16.8391 10.9197 16.5756 10.7529C16.3121 10.586 16.1041 10.3446 15.9782 10.0594C15.9481 9.97905 15.8913 9.91142 15.8173 9.86783C15.7434 9.82424 15.6567 9.80732 15.5717 9.81991H14.8525C14.5711 9.81991 14.2897 9.81991 14.0083 9.81991C13.6381 9.82125 13.2762 9.92898 12.9657 10.1303C12.6552 10.3315 12.4093 10.6178 12.2572 10.955L12.7471 11.2257L13.1327 11.4444C13.4871 11.6319 13.6122 11.9026 13.4767 12.1838C13.3412 12.465 13.0494 12.5379 12.6741 12.34C12.2989 12.1421 11.8611 11.8922 11.4651 11.6527C11.3401 11.5841 11.2452 11.4713 11.199 11.3365C11.1527 11.2017 11.1584 11.0546 11.2149 10.9237C11.3998 10.3218 11.7727 9.79475 12.2792 9.41995C12.7856 9.04515 13.3989 8.84227 14.0291 8.84103H15.8948V8.82021ZM15.0297 3.83211C15.0297 4.01955 15.0297 4.19658 15.0297 4.37361C15.0297 4.75892 15.0297 5.1338 15.0297 5.49828C15.0078 5.69763 15.0271 5.89934 15.0862 6.09098C15.1454 6.28262 15.2432 6.46012 15.3737 6.61253C15.53 6.78956 15.6968 6.96659 15.8635 7.13321C16.0688 7.32759 16.2636 7.53268 16.4472 7.74761C16.6057 7.93746 16.7165 8.16239 16.7703 8.40366C16.7965 8.60763 16.7965 8.8141 16.7703 9.01806C16.7703 9.10137 16.7703 9.1951 16.7703 9.2784C16.7632 9.36796 16.7745 9.45804 16.8036 9.54304C16.8328 9.62804 16.8791 9.70615 16.9397 9.77254C17.0002 9.83893 17.0738 9.89218 17.1559 9.92899C17.2379 9.9658 17.3266 9.98538 17.4165 9.98653C17.5068 9.98963 17.5966 9.97381 17.6804 9.94008C17.7641 9.90636 17.8398 9.85548 17.9027 9.79073C17.9655 9.72597 18.0141 9.64878 18.0453 9.56413C18.0764 9.47948 18.0895 9.38924 18.0836 9.29923C18.0836 9.20551 18.0836 9.11179 18.0836 9.02848C18.0191 8.73442 18.0454 8.42774 18.1589 8.14889C18.2724 7.87003 18.4678 7.63209 18.7194 7.46644C19.0008 7.24369 19.2438 6.97634 19.4386 6.67501C19.4907 6.61253 19.5324 6.55005 19.5845 6.49798C19.7189 6.33871 19.8024 6.14283 19.8242 5.93565C19.8242 5.41497 19.8242 4.89429 19.8242 4.39444V3.83211H15.0297ZM14.1646 1.30161V2.34297C14.1597 2.40802 14.1692 2.47334 14.1922 2.53437C14.2153 2.5954 14.2514 2.65066 14.2981 2.69628C14.3447 2.74191 14.4008 2.7768 14.4624 2.79851C14.5239 2.82023 14.5895 2.82824 14.6545 2.82199C16.1971 2.82199 17.7813 2.82199 19.2718 2.82199C19.3659 2.82185 19.4585 2.79941 19.5422 2.75652C19.6259 2.71362 19.6981 2.6515 19.7531 2.57525C19.808 2.499 19.8441 2.41081 19.8583 2.31792C19.8724 2.22504 19.8643 2.13012 19.8346 2.04097C19.7845 1.80933 19.6502 1.60447 19.4577 1.46599C19.2652 1.32751 19.0281 1.26523 18.7924 1.2912C17.9307 1.2912 17.0656 1.2912 16.1971 1.2912H14.1125L14.1646 1.30161Z" fill="#6651E6"/>
<path d="M15.8948 8.82021C15.7801 8.64318 15.6655 8.46615 15.5404 8.29953C15.4153 8.13291 15.259 7.97671 15.1131 7.8205C14.9672 7.6643 14.6232 7.25817 14.3939 6.96659C14.0976 6.5569 13.9605 6.05354 14.0083 5.55035C14.0342 5.03694 14.0342 4.52255 14.0083 4.00914C14.0059 3.93681 13.9881 3.86581 13.9561 3.80087C13.9261 3.73744 13.8792 3.68343 13.8206 3.64466C13.5999 3.5004 13.4146 3.30817 13.2787 3.08233C13.1806 2.84878 13.1378 2.59576 13.1536 2.34297C13.1536 1.85353 13.1536 1.37451 13.1536 0.885068C13.1536 0.39563 13.3516 0.260254 13.8102 0.260254H19.0217C19.536 0.262958 20.0286 0.467567 20.3932 0.829932C20.7578 1.1923 20.9653 1.68337 20.9707 2.19718C20.9707 3.40515 20.9707 4.61313 20.9707 5.8211C20.9391 6.43048 20.6873 7.0077 20.262 7.44562C20.1056 7.62265 19.9389 7.79968 19.7617 7.96629C19.5845 8.13291 19.5011 8.21622 19.3865 8.3516C19.3203 8.43115 19.2643 8.5186 19.2197 8.61194L19.0217 8.80979H20.929C21.5537 8.82334 22.1585 9.03127 22.6592 9.40461C23.16 9.77795 23.5316 10.2981 23.7224 10.8925C23.7851 11.0397 23.7898 11.2052 23.7357 11.3558C23.6816 11.5063 23.5726 11.631 23.4305 11.7048C21.0832 13.2658 18.2141 13.8383 15.4466 13.298C15.0401 13.2251 14.8421 12.996 14.8838 12.7045C14.9255 12.4129 15.2069 12.2359 15.6342 12.3088C17.8643 12.7226 20.1689 12.3547 22.1589 11.2674L22.5237 11.0487L22.6697 10.955C22.5199 10.6277 22.2813 10.3489 21.9811 10.1501C21.6808 9.9513 21.3308 9.84053 20.9707 9.83032C20.4183 9.83032 19.8659 9.83032 19.3135 9.83032C19.2459 9.84484 19.182 9.8732 19.1259 9.91363C19.0697 9.95411 19.0205 10.0033 18.98 10.0594C18.8457 10.3471 18.63 10.5892 18.3596 10.7557C18.0891 10.9223 17.7758 11.006 17.4582 10.9966C17.1463 11.0046 16.8391 10.9197 16.5756 10.7529C16.3121 10.586 16.1041 10.3446 15.9782 10.0594C15.9481 9.97905 15.8913 9.91142 15.8173 9.86783C15.7434 9.82424 15.6567 9.80732 15.5717 9.81991H14.8525C14.5711 9.81991 14.2897 9.81991 14.0083 9.81991C13.6381 9.82125 13.2762 9.92898 12.9657 10.1303C12.6552 10.3315 12.4093 10.6178 12.2572 10.955L12.7471 11.2257L13.1327 11.4444C13.4871 11.6319 13.6122 11.9026 13.4767 12.1838C13.3412 12.465 13.0494 12.5379 12.6741 12.34C12.2989 12.1421 11.8611 11.8922 11.4651 11.6527C11.3401 11.5841 11.2452 11.4713 11.199 11.3365C11.1527 11.2017 11.1584 11.0546 11.2149 10.9237C11.3998 10.3218 11.7727 9.79475 12.2792 9.41995C12.7856 9.04515 13.3989 8.84227 14.0291 8.84103H15.8948V8.82021ZM15.0297 3.83211C15.0297 4.01955 15.0297 4.19658 15.0297 4.37361C15.0297 4.75892 15.0297 5.1338 15.0297 5.49828C15.0078 5.69763 15.0271 5.89934 15.0862 6.09098C15.1454 6.28262 15.2432 6.46012 15.3737 6.61253C15.53 6.78956 15.6968 6.96659 15.8635 7.13321C16.0688 7.32759 16.2636 7.53268 16.4472 7.74761C16.6057 7.93746 16.7165 8.16239 16.7703 8.40366C16.7965 8.60763 16.7965 8.8141 16.7703 9.01806C16.7703 9.10137 16.7703 9.1951 16.7703 9.2784C16.7632 9.36796 16.7745 9.45804 16.8036 9.54304C16.8328 9.62804 16.8791 9.70615 16.9397 9.77254C17.0002 9.83893 17.0738 9.89218 17.1559 9.92899C17.2379 9.9658 17.3266 9.98538 17.4165 9.98653C17.5068 9.98963 17.5966 9.97381 17.6804 9.94008C17.7641 9.90636 17.8398 9.85548 17.9027 9.79073C17.9655 9.72597 18.0141 9.64878 18.0453 9.56413C18.0764 9.47948 18.0895 9.38924 18.0836 9.29923C18.0836 9.20551 18.0836 9.11179 18.0836 9.02848C18.0191 8.73442 18.0454 8.42774 18.1589 8.14889C18.2724 7.87003 18.4678 7.63209 18.7194 7.46644C19.0008 7.24369 19.2438 6.97634 19.4386 6.67501C19.4907 6.61253 19.5324 6.55005 19.5845 6.49798C19.7189 6.33871 19.8024 6.14283 19.8242 5.93565C19.8242 5.41497 19.8242 4.89429 19.8242 4.39444V3.83211H15.0297ZM14.1646 1.30161V2.34297C14.1597 2.40802 14.1692 2.47334 14.1922 2.53437C14.2153 2.5954 14.2514 2.65066 14.2981 2.69628C14.3447 2.74191 14.4008 2.7768 14.4624 2.79851C14.5239 2.82023 14.5895 2.82824 14.6545 2.82199C16.1971 2.82199 17.7813 2.82199 19.2718 2.82199C19.3659 2.82185 19.4585 2.79941 19.5422 2.75652C19.6259 2.71362 19.6981 2.6515 19.7531 2.57525C19.808 2.499 19.8441 2.41081 19.8583 2.31792C19.8724 2.22504 19.8643 2.13012 19.8346 2.04097C19.7845 1.80933 19.6502 1.60447 19.4577 1.46599C19.2652 1.32751 19.0281 1.26523 18.7924 1.2912C17.9307 1.2912 17.0656 1.2912 16.1971 1.2912H14.1125L14.1646 1.30161Z" stroke="#6651E6" stroke-width="0.5"/>
<path d="M17.1777 28.7519C15.1907 28.7131 13.2519 28.1334 11.5702 27.0753C11.4243 26.9815 11.2471 26.8358 11.2159 26.7004C11.1846 26.565 11.2159 26.2318 11.3826 26.1693C11.4813 26.1266 11.5878 26.1053 11.6953 26.1068C11.8038 26.1061 11.911 26.1311 12.008 26.1797C13.171 26.8885 14.4587 27.3691 15.8019 27.5959C18.243 28.0072 20.7505 27.5187 22.8582 26.2214L23.0562 26.0964C23.1093 26.0652 23.1682 26.045 23.2293 26.0371C23.2904 26.0291 23.3524 26.0335 23.4118 26.05C23.4711 26.0665 23.5265 26.0948 23.5747 26.1332C23.6228 26.1716 23.6627 26.2193 23.692 26.2734C23.7313 26.3222 23.76 26.3786 23.7761 26.4391C23.7922 26.4996 23.7955 26.5628 23.7857 26.6246C23.7759 26.6864 23.7532 26.7455 23.7191 26.798C23.685 26.8505 23.6403 26.8953 23.5878 26.9295C23.3659 27.1003 23.1287 27.2503 22.8791 27.3773C21.1288 28.3184 19.165 28.7919 17.1777 28.7519V28.7519Z" fill="#6651E6"/>
<path d="M17.1777 28.7519C15.1907 28.7131 13.2519 28.1334 11.5702 27.0753C11.4243 26.9815 11.2471 26.8358 11.2159 26.7004C11.1846 26.565 11.2159 26.2318 11.3826 26.1693C11.4813 26.1266 11.5878 26.1053 11.6953 26.1068C11.8038 26.1061 11.911 26.1311 12.008 26.1797C13.171 26.8885 14.4587 27.3691 15.8019 27.5959C18.243 28.0072 20.7505 27.5187 22.8582 26.2214L23.0562 26.0964C23.1093 26.0652 23.1682 26.045 23.2293 26.0371C23.2904 26.0291 23.3524 26.0335 23.4118 26.05C23.4711 26.0665 23.5265 26.0948 23.5747 26.1332C23.6228 26.1716 23.6627 26.2193 23.692 26.2734C23.7313 26.3222 23.76 26.3786 23.7761 26.4391C23.7922 26.4996 23.7955 26.5628 23.7857 26.6246C23.7759 26.6864 23.7532 26.7455 23.7191 26.798C23.685 26.8505 23.6403 26.8953 23.5878 26.9295C23.3659 27.1003 23.1287 27.2503 22.8791 27.3773C21.1288 28.3184 19.165 28.7919 17.1777 28.7519V28.7519Z" stroke="#6651E6" stroke-width="0.5"/>
<path d="M28.7878 17.5781L28.694 18.255C28.6211 18.8173 28.5585 19.3796 28.4647 19.942C28.3709 20.5043 28.152 20.5564 27.8289 20.4835C27.5058 20.4106 27.3807 20.1606 27.4745 19.7233C28.0439 17.2425 27.6529 14.6384 26.3801 12.4338C26.1586 12.0745 25.9186 11.7269 25.661 11.3924L25.39 11.0175C25.2232 10.778 25.1502 10.5073 25.39 10.3198C25.5664 10.2179 25.7718 10.1776 25.9737 10.2053C26.0675 10.2053 26.1613 10.3407 26.2446 10.4344V10.4864C27.8535 12.5046 28.7478 14.9984 28.7878 17.5781V17.5781Z" fill="#6651E6"/>
<path d="M28.7878 17.5781L28.694 18.255C28.6211 18.8173 28.5585 19.3796 28.4647 19.942C28.3709 20.5043 28.152 20.5564 27.8289 20.4835C27.5058 20.4106 27.3807 20.1606 27.4745 19.7233C28.0439 17.2425 27.6529 14.6384 26.3801 12.4338C26.1586 12.0745 25.9186 11.7269 25.661 11.3924L25.39 11.0175C25.2232 10.778 25.1502 10.5073 25.39 10.3198C25.5664 10.2179 25.7718 10.1776 25.9737 10.2053C26.0675 10.2053 26.1613 10.3407 26.2446 10.4344V10.4864C27.8535 12.5046 28.7478 14.9984 28.7878 17.5781V17.5781Z" stroke="#6651E6" stroke-width="0.5"/>
<path d="M6.22313 17.8698C6.16788 15.1747 7.05633 12.5449 8.73505 10.4345C8.98519 10.1221 9.28746 10.0596 9.53761 10.247C9.78776 10.4345 9.78776 10.7469 9.53761 11.0593C7.92784 13.0283 7.11691 15.5296 7.26542 18.0676C7.26542 18.4842 7.35923 18.8903 7.42176 19.3068C7.42176 19.4735 7.4843 19.6401 7.50515 19.8171C7.54403 19.9403 7.5357 20.0735 7.48176 20.1909C7.42783 20.3083 7.33215 20.4015 7.21331 20.4523C7.13632 20.4827 7.0531 20.494 6.97081 20.4851C6.88852 20.4762 6.80962 20.4475 6.7409 20.4014C6.67219 20.3552 6.61573 20.2931 6.57637 20.2204C6.53701 20.1476 6.51594 20.0664 6.51497 19.9837C6.42117 19.3485 6.33778 18.7237 6.27525 18.2655C6.2544 18.1093 6.23356 17.9635 6.22313 17.8698Z" fill="#6651E6"/>
<path d="M6.22313 17.8698C6.16788 15.1747 7.05633 12.5449 8.73505 10.4345C8.98519 10.1221 9.28746 10.0596 9.53761 10.247C9.78776 10.4345 9.78776 10.7469 9.53761 11.0593C7.92784 13.0283 7.11691 15.5296 7.26542 18.0676C7.26542 18.4842 7.35923 18.8903 7.42176 19.3068C7.42176 19.4735 7.4843 19.6401 7.50515 19.8171C7.54403 19.9403 7.5357 20.0735 7.48176 20.1909C7.42783 20.3083 7.33215 20.4015 7.21331 20.4523C7.13632 20.4827 7.0531 20.494 6.97081 20.4851C6.88852 20.4762 6.80962 20.4475 6.7409 20.4014C6.67219 20.3552 6.61573 20.2931 6.57637 20.2204C6.53701 20.1476 6.51594 20.0664 6.51497 19.9837C6.42117 19.3485 6.33778 18.7237 6.27525 18.2655C6.2544 18.1093 6.23356 17.9635 6.22313 17.8698Z" stroke="#6651E6" stroke-width="0.5"/>
</g>
<defs>
<clipPath id="clip0">
<rect width="35" height="35" fill="white"/>
</clipPath>
</defs>
</svg>
