<svg width="37" height="37" viewBox="0 0 37 37" fill="none" xmlns="http://www.w3.org/2000/svg">
<mask id="path-1-outside-1" maskUnits="userSpaceOnUse" x="14.6758" y="0.0144043" width="22" height="37" fill="black">
<rect fill="white" x="14.6758" y="0.0144043" width="22" height="37"/>
<path d="M33.2603 12.2279C32.857 15.0954 33.4031 17.6444 35.6882 19.5996C34.9671 20.4417 34.2581 21.1153 33.1877 21.2887C33.1877 22.0219 33.1877 22.7317 33.1877 23.4424C33.178 25.8106 31.5906 27.2109 29.2433 26.931C28.6972 26.8657 28.1495 26.8221 27.5445 26.7633C27.5445 27.2835 27.526 27.7772 27.5599 28.2676C27.5663 28.3676 27.7526 28.4927 27.8825 28.5411C29.6224 29.2033 31.0719 30.2503 32.173 31.7611C33.0933 33.0235 33.6249 34.4383 33.8669 35.9999H15.6759C15.6759 35.8386 15.6759 35.6869 15.6759 35.5321C15.7001 34.3367 15.6202 33.1291 15.771 31.9498C16.0518 29.7566 17.3036 28.2136 19.3041 27.2876C19.5509 27.173 19.6654 27.0633 19.638 26.7883C19.607 26.5343 19.607 26.2775 19.638 26.0236C19.8122 24.8394 19.3694 23.9151 18.6394 22.9866C16.0526 19.6924 15.6549 16.0021 16.939 12.0972C17.2343 11.1994 17.7045 10.3541 18.149 9.51197C18.3103 9.20868 18.3103 9.0167 18.1353 8.72551C16.5486 6.11769 17.5601 2.79359 20.3212 1.48766C21.4038 0.983494 22.6298 0.878278 23.7824 1.19061C24.9351 1.50295 25.9402 2.21272 26.6202 3.19448C26.7718 3.41388 26.9057 3.46148 27.1727 3.44776C28.6738 3.3671 30.1774 3.28079 31.6793 3.29128C32.9126 3.30015 33.9209 4.22938 34.2331 5.45303C34.283 5.63945 34.3889 5.8061 34.5364 5.93055C35.66 6.80978 36.1859 7.94712 35.9496 9.3579C35.7076 10.8034 34.8405 11.7366 33.4402 12.1722C33.3587 12.1924 33.2829 12.2214 33.2603 12.2279ZM26.3757 28.145V26.6415C25.0198 26.5922 23.7841 26.3503 23.0944 24.9758L24.0793 24.4757C24.5076 25.2129 25.1779 25.4194 25.9571 25.4775C27.1896 25.5694 28.4165 25.7275 29.6474 25.8356C31.0259 25.9566 32.1359 24.9169 32.0141 23.5932C31.2558 23.5932 30.4928 23.6053 29.7305 23.5932C28.4399 23.569 27.4655 22.4115 27.576 21.3556H28.6488C28.7351 21.9122 29.0005 22.3728 29.5555 22.422C30.375 22.4946 31.2058 22.4405 32.0616 22.4405V20.207C32.8191 20.2256 33.5378 20.1844 34.1121 19.5899C33.9435 19.377 33.7894 19.1769 33.6281 18.9801C32.8973 18.0759 32.3375 17.0749 32.2004 15.915C32.0818 14.8784 32.0947 13.8274 32.0512 12.782C32.0447 12.628 32.0512 12.4731 32.0512 12.3061C29.9628 12.3061 27.9374 12.2948 25.9071 12.3174C25.5844 12.3174 25.2537 12.4578 24.9391 12.5747C24.8807 12.6075 24.8305 12.6531 24.7923 12.7082C24.7541 12.7632 24.729 12.8263 24.7189 12.8925C24.6512 13.6483 24.2858 14.1662 23.584 14.4687C23.514 14.5052 23.4523 14.556 23.4032 14.6179C23.354 14.6797 23.3183 14.7511 23.2985 14.8276C23.2275 15.2366 23.2114 15.6552 23.1686 16.069C23.1033 16.6909 23.0339 17.3112 22.9645 17.9468C22.6056 17.9468 22.2966 17.942 21.9885 17.9468C20.9843 17.967 20.4559 18.8995 20.9633 19.7601C21.1964 20.1522 21.4787 20.5151 21.707 20.9104C21.8137 21.0899 21.8726 21.2937 21.878 21.5024C21.8732 22.4664 21.5474 23.4013 20.952 24.1595C20.8802 24.2538 20.7729 24.3595 20.7713 24.462C20.7568 25.3299 20.7632 26.1978 20.7632 27.0803L26.3757 28.145ZM22.4515 34.869H32.4359C32.3924 34.7182 32.3649 34.5875 32.3189 34.4657C31.3881 31.9757 29.6861 30.2269 27.1203 29.5284C25.1037 28.9799 23.0129 28.7121 20.9673 28.262C20.318 28.1184 19.7888 28.245 19.2549 28.5661C18.5379 28.9967 17.9355 29.5942 17.4988 30.3076C16.6115 31.7304 16.8309 33.3018 16.8132 34.861H21.3222C21.3222 34.1503 21.3013 33.4655 21.3279 32.7831C21.3577 32.0095 21.2811 31.2973 20.5075 30.869C20.6858 30.5197 20.8431 30.2124 21.0157 29.876C21.9409 30.3785 22.412 31.1295 22.4451 32.1305C22.4749 33.0275 22.4515 33.9277 22.4515 34.869ZM24.7165 11.2825C25.6845 11.2454 26.6137 11.1865 27.5454 11.1768C29.1852 11.1591 30.8243 11.1768 32.4658 11.1672C33.6959 11.1591 34.6436 10.367 34.8364 9.16915C34.9639 8.38511 34.738 7.70029 34.1419 7.10177C33.4732 8.47304 32.4077 9.03283 30.9509 8.89571V7.78499C31.1389 7.78499 31.2994 7.78499 31.4591 7.78499C32.4472 7.76643 33.1885 7.02998 33.1796 6.07736C33.1716 5.14974 32.4278 4.41329 31.4647 4.40281C30.5645 4.39232 29.6635 4.3891 28.7642 4.41087C28.2866 4.42297 27.8107 4.49718 27.3356 4.54235C27.4066 5.01423 27.5099 5.42157 27.5228 5.83295C27.5841 7.72207 26.8355 9.22078 25.2852 10.3089C24.9037 10.5727 24.6923 10.9082 24.7157 11.2825H24.7165ZM23.5647 11.1591C23.8066 10.1 23.943 9.89431 24.7923 9.27079C25.4646 8.77758 25.9632 8.08404 26.2167 7.28976C26.4702 6.49547 26.4655 5.64128 26.2032 4.84984C25.941 4.05841 25.4347 3.37043 24.757 2.88468C24.0794 2.39894 23.2652 2.14042 22.4315 2.14624C21.5978 2.15206 20.7873 2.42192 20.1165 2.91708C19.4457 3.41223 18.9491 4.10721 18.6979 4.90224C18.4467 5.69726 18.4539 6.55143 18.7185 7.3421C18.983 8.13277 19.4913 8.81928 20.1704 9.30305C20.6447 9.64022 21.0431 10.0169 21.2045 10.5937C21.2569 10.7824 21.3005 10.9736 21.3456 11.1543H21.8869C21.8869 10.1202 21.8796 9.1022 21.8917 8.08424C21.8917 7.82048 21.8441 7.65754 21.5812 7.5196C21.2809 7.34917 21.0427 7.0876 20.901 6.77276C20.7594 6.45793 20.7215 6.10617 20.7931 5.76842C20.9689 4.99406 21.582 4.45524 22.3426 4.40442C22.694 4.38308 23.0433 4.47174 23.342 4.65808C23.6406 4.84442 23.8738 5.11918 24.0091 5.44416C24.2955 6.1306 24.1551 6.97675 23.534 7.35989C23.0387 7.66561 22.9928 8.02697 23.0105 8.51337C23.0363 9.23933 23.017 9.96529 23.017 10.6913V11.1647L23.5647 11.1591ZM22.1684 14.5824C22.0668 14.5743 22.003 14.5671 21.9385 14.5639C20.86 14.5074 20.2018 13.8266 20.1938 12.7554C20.1764 12.4599 20.1764 12.1636 20.1938 11.8681C20.289 11.005 19.9929 10.3678 19.1637 10.0258C16.4301 13.3346 17.0197 20.691 20.2736 23.1955C20.389 22.914 20.5043 22.6446 20.61 22.3712C20.8004 21.8767 20.8068 21.4129 20.4204 20.9878C20.2673 20.8005 20.1308 20.6002 20.0123 20.3893C19.1298 18.9914 19.8413 17.2556 21.4513 16.8797C21.6126 16.841 21.7852 16.8135 21.9619 16.7797C22.0305 16.0416 22.0982 15.3245 22.1676 14.5824H22.1684ZM21.3255 12.3239C21.3255 12.5231 21.3142 12.6957 21.3255 12.8667C21.3577 13.2563 21.5892 13.4781 22.0514 13.4193C22.5846 13.3507 23.3275 13.7879 23.5663 12.8909C23.6114 12.7191 23.5727 12.5255 23.5727 12.3263L21.3255 12.3239ZM23.0121 6.11285C23.0156 6.00257 22.9865 5.89371 22.9284 5.79994C22.8702 5.70617 22.7857 5.63168 22.6853 5.58581C22.585 5.53994 22.4733 5.52475 22.3643 5.54215C22.2554 5.55955 22.154 5.60875 22.0729 5.68358C21.9919 5.75842 21.9347 5.85554 21.9086 5.96275C21.8826 6.06997 21.8888 6.18249 21.9265 6.28618C21.9642 6.38988 22.0317 6.48013 22.1205 6.54558C22.2093 6.61104 22.3155 6.6488 22.4257 6.6541C22.5746 6.65622 22.7187 6.6008 22.8278 6.49937C22.9368 6.39794 23.0026 6.25833 23.0113 6.10963L23.0121 6.11285Z"/>
</mask>
<path d="M33.2603 12.2279C32.857 15.0954 33.4031 17.6444 35.6882 19.5996C34.9671 20.4417 34.2581 21.1153 33.1877 21.2887C33.1877 22.0219 33.1877 22.7317 33.1877 23.4424C33.178 25.8106 31.5906 27.2109 29.2433 26.931C28.6972 26.8657 28.1495 26.8221 27.5445 26.7633C27.5445 27.2835 27.526 27.7772 27.5599 28.2676C27.5663 28.3676 27.7526 28.4927 27.8825 28.5411C29.6224 29.2033 31.0719 30.2503 32.173 31.7611C33.0933 33.0235 33.6249 34.4383 33.8669 35.9999H15.6759C15.6759 35.8386 15.6759 35.6869 15.6759 35.5321C15.7001 34.3367 15.6202 33.1291 15.771 31.9498C16.0518 29.7566 17.3036 28.2136 19.3041 27.2876C19.5509 27.173 19.6654 27.0633 19.638 26.7883C19.607 26.5343 19.607 26.2775 19.638 26.0236C19.8122 24.8394 19.3694 23.9151 18.6394 22.9866C16.0526 19.6924 15.6549 16.0021 16.939 12.0972C17.2343 11.1994 17.7045 10.3541 18.149 9.51197C18.3103 9.20868 18.3103 9.0167 18.1353 8.72551C16.5486 6.11769 17.5601 2.79359 20.3212 1.48766C21.4038 0.983494 22.6298 0.878278 23.7824 1.19061C24.9351 1.50295 25.9402 2.21272 26.6202 3.19448C26.7718 3.41388 26.9057 3.46148 27.1727 3.44776C28.6738 3.3671 30.1774 3.28079 31.6793 3.29128C32.9126 3.30015 33.9209 4.22938 34.2331 5.45303C34.283 5.63945 34.3889 5.8061 34.5364 5.93055C35.66 6.80978 36.1859 7.94712 35.9496 9.3579C35.7076 10.8034 34.8405 11.7366 33.4402 12.1722C33.3587 12.1924 33.2829 12.2214 33.2603 12.2279ZM26.3757 28.145V26.6415C25.0198 26.5922 23.7841 26.3503 23.0944 24.9758L24.0793 24.4757C24.5076 25.2129 25.1779 25.4194 25.9571 25.4775C27.1896 25.5694 28.4165 25.7275 29.6474 25.8356C31.0259 25.9566 32.1359 24.9169 32.0141 23.5932C31.2558 23.5932 30.4928 23.6053 29.7305 23.5932C28.4399 23.569 27.4655 22.4115 27.576 21.3556H28.6488C28.7351 21.9122 29.0005 22.3728 29.5555 22.422C30.375 22.4946 31.2058 22.4405 32.0616 22.4405V20.207C32.8191 20.2256 33.5378 20.1844 34.1121 19.5899C33.9435 19.377 33.7894 19.1769 33.6281 18.9801C32.8973 18.0759 32.3375 17.0749 32.2004 15.915C32.0818 14.8784 32.0947 13.8274 32.0512 12.782C32.0447 12.628 32.0512 12.4731 32.0512 12.3061C29.9628 12.3061 27.9374 12.2948 25.9071 12.3174C25.5844 12.3174 25.2537 12.4578 24.9391 12.5747C24.8807 12.6075 24.8305 12.6531 24.7923 12.7082C24.7541 12.7632 24.729 12.8263 24.7189 12.8925C24.6512 13.6483 24.2858 14.1662 23.584 14.4687C23.514 14.5052 23.4523 14.556 23.4032 14.6179C23.354 14.6797 23.3183 14.7511 23.2985 14.8276C23.2275 15.2366 23.2114 15.6552 23.1686 16.069C23.1033 16.6909 23.0339 17.3112 22.9645 17.9468C22.6056 17.9468 22.2966 17.942 21.9885 17.9468C20.9843 17.967 20.4559 18.8995 20.9633 19.7601C21.1964 20.1522 21.4787 20.5151 21.707 20.9104C21.8137 21.0899 21.8726 21.2937 21.878 21.5024C21.8732 22.4664 21.5474 23.4013 20.952 24.1595C20.8802 24.2538 20.7729 24.3595 20.7713 24.462C20.7568 25.3299 20.7632 26.1978 20.7632 27.0803L26.3757 28.145ZM22.4515 34.869H32.4359C32.3924 34.7182 32.3649 34.5875 32.3189 34.4657C31.3881 31.9757 29.6861 30.2269 27.1203 29.5284C25.1037 28.9799 23.0129 28.7121 20.9673 28.262C20.318 28.1184 19.7888 28.245 19.2549 28.5661C18.5379 28.9967 17.9355 29.5942 17.4988 30.3076C16.6115 31.7304 16.8309 33.3018 16.8132 34.861H21.3222C21.3222 34.1503 21.3013 33.4655 21.3279 32.7831C21.3577 32.0095 21.2811 31.2973 20.5075 30.869C20.6858 30.5197 20.8431 30.2124 21.0157 29.876C21.9409 30.3785 22.412 31.1295 22.4451 32.1305C22.4749 33.0275 22.4515 33.9277 22.4515 34.869ZM24.7165 11.2825C25.6845 11.2454 26.6137 11.1865 27.5454 11.1768C29.1852 11.1591 30.8243 11.1768 32.4658 11.1672C33.6959 11.1591 34.6436 10.367 34.8364 9.16915C34.9639 8.38511 34.738 7.70029 34.1419 7.10177C33.4732 8.47304 32.4077 9.03283 30.9509 8.89571V7.78499C31.1389 7.78499 31.2994 7.78499 31.4591 7.78499C32.4472 7.76643 33.1885 7.02998 33.1796 6.07736C33.1716 5.14974 32.4278 4.41329 31.4647 4.40281C30.5645 4.39232 29.6635 4.3891 28.7642 4.41087C28.2866 4.42297 27.8107 4.49718 27.3356 4.54235C27.4066 5.01423 27.5099 5.42157 27.5228 5.83295C27.5841 7.72207 26.8355 9.22078 25.2852 10.3089C24.9037 10.5727 24.6923 10.9082 24.7157 11.2825H24.7165ZM23.5647 11.1591C23.8066 10.1 23.943 9.89431 24.7923 9.27079C25.4646 8.77758 25.9632 8.08404 26.2167 7.28976C26.4702 6.49547 26.4655 5.64128 26.2032 4.84984C25.941 4.05841 25.4347 3.37043 24.757 2.88468C24.0794 2.39894 23.2652 2.14042 22.4315 2.14624C21.5978 2.15206 20.7873 2.42192 20.1165 2.91708C19.4457 3.41223 18.9491 4.10721 18.6979 4.90224C18.4467 5.69726 18.4539 6.55143 18.7185 7.3421C18.983 8.13277 19.4913 8.81928 20.1704 9.30305C20.6447 9.64022 21.0431 10.0169 21.2045 10.5937C21.2569 10.7824 21.3005 10.9736 21.3456 11.1543H21.8869C21.8869 10.1202 21.8796 9.1022 21.8917 8.08424C21.8917 7.82048 21.8441 7.65754 21.5812 7.5196C21.2809 7.34917 21.0427 7.0876 20.901 6.77276C20.7594 6.45793 20.7215 6.10617 20.7931 5.76842C20.9689 4.99406 21.582 4.45524 22.3426 4.40442C22.694 4.38308 23.0433 4.47174 23.342 4.65808C23.6406 4.84442 23.8738 5.11918 24.0091 5.44416C24.2955 6.1306 24.1551 6.97675 23.534 7.35989C23.0387 7.66561 22.9928 8.02697 23.0105 8.51337C23.0363 9.23933 23.017 9.96529 23.017 10.6913V11.1647L23.5647 11.1591ZM22.1684 14.5824C22.0668 14.5743 22.003 14.5671 21.9385 14.5639C20.86 14.5074 20.2018 13.8266 20.1938 12.7554C20.1764 12.4599 20.1764 12.1636 20.1938 11.8681C20.289 11.005 19.9929 10.3678 19.1637 10.0258C16.4301 13.3346 17.0197 20.691 20.2736 23.1955C20.389 22.914 20.5043 22.6446 20.61 22.3712C20.8004 21.8767 20.8068 21.4129 20.4204 20.9878C20.2673 20.8005 20.1308 20.6002 20.0123 20.3893C19.1298 18.9914 19.8413 17.2556 21.4513 16.8797C21.6126 16.841 21.7852 16.8135 21.9619 16.7797C22.0305 16.0416 22.0982 15.3245 22.1676 14.5824H22.1684ZM21.3255 12.3239C21.3255 12.5231 21.3142 12.6957 21.3255 12.8667C21.3577 13.2563 21.5892 13.4781 22.0514 13.4193C22.5846 13.3507 23.3275 13.7879 23.5663 12.8909C23.6114 12.7191 23.5727 12.5255 23.5727 12.3263L21.3255 12.3239ZM23.0121 6.11285C23.0156 6.00257 22.9865 5.89371 22.9284 5.79994C22.8702 5.70617 22.7857 5.63168 22.6853 5.58581C22.585 5.53994 22.4733 5.52475 22.3643 5.54215C22.2554 5.55955 22.154 5.60875 22.0729 5.68358C21.9919 5.75842 21.9347 5.85554 21.9086 5.96275C21.8826 6.06997 21.8888 6.18249 21.9265 6.28618C21.9642 6.38988 22.0317 6.48013 22.1205 6.54558C22.2093 6.61104 22.3155 6.6488 22.4257 6.6541C22.5746 6.65622 22.7187 6.6008 22.8278 6.49937C22.9368 6.39794 23.0026 6.25833 23.0113 6.10963L23.0121 6.11285Z" fill="#6651E6"/>
<path d="M33.2603 12.2279C32.857 15.0954 33.4031 17.6444 35.6882 19.5996C34.9671 20.4417 34.2581 21.1153 33.1877 21.2887C33.1877 22.0219 33.1877 22.7317 33.1877 23.4424C33.178 25.8106 31.5906 27.2109 29.2433 26.931C28.6972 26.8657 28.1495 26.8221 27.5445 26.7633C27.5445 27.2835 27.526 27.7772 27.5599 28.2676C27.5663 28.3676 27.7526 28.4927 27.8825 28.5411C29.6224 29.2033 31.0719 30.2503 32.173 31.7611C33.0933 33.0235 33.6249 34.4383 33.8669 35.9999H15.6759C15.6759 35.8386 15.6759 35.6869 15.6759 35.5321C15.7001 34.3367 15.6202 33.1291 15.771 31.9498C16.0518 29.7566 17.3036 28.2136 19.3041 27.2876C19.5509 27.173 19.6654 27.0633 19.638 26.7883C19.607 26.5343 19.607 26.2775 19.638 26.0236C19.8122 24.8394 19.3694 23.9151 18.6394 22.9866C16.0526 19.6924 15.6549 16.0021 16.939 12.0972C17.2343 11.1994 17.7045 10.3541 18.149 9.51197C18.3103 9.20868 18.3103 9.0167 18.1353 8.72551C16.5486 6.11769 17.5601 2.79359 20.3212 1.48766C21.4038 0.983494 22.6298 0.878278 23.7824 1.19061C24.9351 1.50295 25.9402 2.21272 26.6202 3.19448C26.7718 3.41388 26.9057 3.46148 27.1727 3.44776C28.6738 3.3671 30.1774 3.28079 31.6793 3.29128C32.9126 3.30015 33.9209 4.22938 34.2331 5.45303C34.283 5.63945 34.3889 5.8061 34.5364 5.93055C35.66 6.80978 36.1859 7.94712 35.9496 9.3579C35.7076 10.8034 34.8405 11.7366 33.4402 12.1722C33.3587 12.1924 33.2829 12.2214 33.2603 12.2279ZM26.3757 28.145V26.6415C25.0198 26.5922 23.7841 26.3503 23.0944 24.9758L24.0793 24.4757C24.5076 25.2129 25.1779 25.4194 25.9571 25.4775C27.1896 25.5694 28.4165 25.7275 29.6474 25.8356C31.0259 25.9566 32.1359 24.9169 32.0141 23.5932C31.2558 23.5932 30.4928 23.6053 29.7305 23.5932C28.4399 23.569 27.4655 22.4115 27.576 21.3556H28.6488C28.7351 21.9122 29.0005 22.3728 29.5555 22.422C30.375 22.4946 31.2058 22.4405 32.0616 22.4405V20.207C32.8191 20.2256 33.5378 20.1844 34.1121 19.5899C33.9435 19.377 33.7894 19.1769 33.6281 18.9801C32.8973 18.0759 32.3375 17.0749 32.2004 15.915C32.0818 14.8784 32.0947 13.8274 32.0512 12.782C32.0447 12.628 32.0512 12.4731 32.0512 12.3061C29.9628 12.3061 27.9374 12.2948 25.9071 12.3174C25.5844 12.3174 25.2537 12.4578 24.9391 12.5747C24.8807 12.6075 24.8305 12.6531 24.7923 12.7082C24.7541 12.7632 24.729 12.8263 24.7189 12.8925C24.6512 13.6483 24.2858 14.1662 23.584 14.4687C23.514 14.5052 23.4523 14.556 23.4032 14.6179C23.354 14.6797 23.3183 14.7511 23.2985 14.8276C23.2275 15.2366 23.2114 15.6552 23.1686 16.069C23.1033 16.6909 23.0339 17.3112 22.9645 17.9468C22.6056 17.9468 22.2966 17.942 21.9885 17.9468C20.9843 17.967 20.4559 18.8995 20.9633 19.7601C21.1964 20.1522 21.4787 20.5151 21.707 20.9104C21.8137 21.0899 21.8726 21.2937 21.878 21.5024C21.8732 22.4664 21.5474 23.4013 20.952 24.1595C20.8802 24.2538 20.7729 24.3595 20.7713 24.462C20.7568 25.3299 20.7632 26.1978 20.7632 27.0803L26.3757 28.145ZM22.4515 34.869H32.4359C32.3924 34.7182 32.3649 34.5875 32.3189 34.4657C31.3881 31.9757 29.6861 30.2269 27.1203 29.5284C25.1037 28.9799 23.0129 28.7121 20.9673 28.262C20.318 28.1184 19.7888 28.245 19.2549 28.5661C18.5379 28.9967 17.9355 29.5942 17.4988 30.3076C16.6115 31.7304 16.8309 33.3018 16.8132 34.861H21.3222C21.3222 34.1503 21.3013 33.4655 21.3279 32.7831C21.3577 32.0095 21.2811 31.2973 20.5075 30.869C20.6858 30.5197 20.8431 30.2124 21.0157 29.876C21.9409 30.3785 22.412 31.1295 22.4451 32.1305C22.4749 33.0275 22.4515 33.9277 22.4515 34.869ZM24.7165 11.2825C25.6845 11.2454 26.6137 11.1865 27.5454 11.1768C29.1852 11.1591 30.8243 11.1768 32.4658 11.1672C33.6959 11.1591 34.6436 10.367 34.8364 9.16915C34.9639 8.38511 34.738 7.70029 34.1419 7.10177C33.4732 8.47304 32.4077 9.03283 30.9509 8.89571V7.78499C31.1389 7.78499 31.2994 7.78499 31.4591 7.78499C32.4472 7.76643 33.1885 7.02998 33.1796 6.07736C33.1716 5.14974 32.4278 4.41329 31.4647 4.40281C30.5645 4.39232 29.6635 4.3891 28.7642 4.41087C28.2866 4.42297 27.8107 4.49718 27.3356 4.54235C27.4066 5.01423 27.5099 5.42157 27.5228 5.83295C27.5841 7.72207 26.8355 9.22078 25.2852 10.3089C24.9037 10.5727 24.6923 10.9082 24.7157 11.2825H24.7165ZM23.5647 11.1591C23.8066 10.1 23.943 9.89431 24.7923 9.27079C25.4646 8.77758 25.9632 8.08404 26.2167 7.28976C26.4702 6.49547 26.4655 5.64128 26.2032 4.84984C25.941 4.05841 25.4347 3.37043 24.757 2.88468C24.0794 2.39894 23.2652 2.14042 22.4315 2.14624C21.5978 2.15206 20.7873 2.42192 20.1165 2.91708C19.4457 3.41223 18.9491 4.10721 18.6979 4.90224C18.4467 5.69726 18.4539 6.55143 18.7185 7.3421C18.983 8.13277 19.4913 8.81928 20.1704 9.30305C20.6447 9.64022 21.0431 10.0169 21.2045 10.5937C21.2569 10.7824 21.3005 10.9736 21.3456 11.1543H21.8869C21.8869 10.1202 21.8796 9.1022 21.8917 8.08424C21.8917 7.82048 21.8441 7.65754 21.5812 7.5196C21.2809 7.34917 21.0427 7.0876 20.901 6.77276C20.7594 6.45793 20.7215 6.10617 20.7931 5.76842C20.9689 4.99406 21.582 4.45524 22.3426 4.40442C22.694 4.38308 23.0433 4.47174 23.342 4.65808C23.6406 4.84442 23.8738 5.11918 24.0091 5.44416C24.2955 6.1306 24.1551 6.97675 23.534 7.35989C23.0387 7.66561 22.9928 8.02697 23.0105 8.51337C23.0363 9.23933 23.017 9.96529 23.017 10.6913V11.1647L23.5647 11.1591ZM22.1684 14.5824C22.0668 14.5743 22.003 14.5671 21.9385 14.5639C20.86 14.5074 20.2018 13.8266 20.1938 12.7554C20.1764 12.4599 20.1764 12.1636 20.1938 11.8681C20.289 11.005 19.9929 10.3678 19.1637 10.0258C16.4301 13.3346 17.0197 20.691 20.2736 23.1955C20.389 22.914 20.5043 22.6446 20.61 22.3712C20.8004 21.8767 20.8068 21.4129 20.4204 20.9878C20.2673 20.8005 20.1308 20.6002 20.0123 20.3893C19.1298 18.9914 19.8413 17.2556 21.4513 16.8797C21.6126 16.841 21.7852 16.8135 21.9619 16.7797C22.0305 16.0416 22.0982 15.3245 22.1676 14.5824H22.1684ZM21.3255 12.3239C21.3255 12.5231 21.3142 12.6957 21.3255 12.8667C21.3577 13.2563 21.5892 13.4781 22.0514 13.4193C22.5846 13.3507 23.3275 13.7879 23.5663 12.8909C23.6114 12.7191 23.5727 12.5255 23.5727 12.3263L21.3255 12.3239ZM23.0121 6.11285C23.0156 6.00257 22.9865 5.89371 22.9284 5.79994C22.8702 5.70617 22.7857 5.63168 22.6853 5.58581C22.585 5.53994 22.4733 5.52475 22.3643 5.54215C22.2554 5.55955 22.154 5.60875 22.0729 5.68358C21.9919 5.75842 21.9347 5.85554 21.9086 5.96275C21.8826 6.06997 21.8888 6.18249 21.9265 6.28618C21.9642 6.38988 22.0317 6.48013 22.1205 6.54558C22.2093 6.61104 22.3155 6.6488 22.4257 6.6541C22.5746 6.65622 22.7187 6.6008 22.8278 6.49937C22.9368 6.39794 23.0026 6.25833 23.0113 6.10963L23.0121 6.11285Z" stroke="#6651E6" stroke-width="0.4" mask="url(#path-1-outside-1)"/>
<path d="M2.01197 35.3802L1.93799 35.324L1.04263 34.6449L0.956542 34.5796L1.02831 34.4988C1.12587 34.389 1.2212 34.278 1.31606 34.1676C1.52215 33.9278 1.72597 33.6906 1.94548 33.4733C2.71362 32.6989 3.62271 32.0784 4.62381 31.6454L4.62408 31.6453C4.72551 31.6017 4.7806 31.5572 4.81138 31.5085C4.84179 31.4604 4.85735 31.3941 4.8501 31.2883L4.85008 31.288C4.83772 31.1011 4.84151 30.9094 4.84556 30.7041C4.84703 30.6293 4.84854 30.5528 4.84932 30.4741C4.23604 30.4955 3.61331 30.4453 3.12342 29.9481C2.63375 29.4511 2.55377 28.8601 2.59052 28.226C2.58391 28.2255 2.57737 28.2251 2.5709 28.2247C2.50448 28.2202 2.44553 28.2162 2.38784 28.211L2.38724 28.2109C1.29344 28.1048 0.61223 27.0462 1.02401 26.0228L1.02404 26.0227C1.29533 25.3501 1.58756 24.6814 1.87897 24.0145C2.00753 23.7203 2.13592 23.4265 2.26229 23.1329L2.26294 23.1314L2.26295 23.1314C2.28645 23.0792 2.30888 23.0247 2.33495 22.9614C2.33713 22.9561 2.33935 22.9508 2.34159 22.9453C1.6772 22.6333 1.209 22.1415 0.996716 21.4263C0.58252 20.0325 1.5463 18.5103 3.02391 18.4433L2.01197 35.3802ZM2.01197 35.3802L2.07341 35.3105M2.01197 35.3802L2.07341 35.3105M2.07341 35.3105C2.11706 35.2611 2.15718 35.2165 2.19443 35.1751C2.24763 35.116 2.29497 35.0633 2.33837 35.0123L2.33901 35.0116C3.1533 34.0344 4.12577 33.258 5.30543 32.8008L5.30554 32.8007M2.07341 35.3105L5.30554 32.8007M4.66351 31.7372C3.67397 32.1652 2.77539 32.7785 2.01617 33.544C1.79942 33.7586 1.59994 33.9907 1.39519 34.229L4.66351 31.7372ZM4.66351 31.7372C4.88533 31.642 4.96599 31.517 4.94986 31.2814L4.66351 31.7372ZM12.3812 34.987H12.2821H11.1706H11.0761L11.0707 34.8928C11.0084 33.8033 10.6097 32.8994 9.7847 32.2007L12.3812 34.987ZM12.3812 34.987L12.3821 34.8879M12.3812 34.987L12.3821 34.8879M12.3821 34.8879C12.3882 34.1932 12.233 33.5065 11.9286 32.882M12.3821 34.8879L11.8384 32.9253M5.30554 32.8007C5.76824 32.6208 6.24453 32.4758 6.72456 32.3296L6.75276 32.321C7.24105 32.1724 7.73291 32.0218 8.21 31.8325M5.30554 32.8007L8.21 31.8325M11.9811 32.427C12.6206 31.7075 12.9671 30.7744 12.9524 29.8119C12.9532 29.5723 12.954 29.3325 12.9549 29.0927C12.9602 27.6003 12.9656 26.1052 12.9524 24.6114C12.9253 21.5464 10.5978 18.8481 7.54609 18.5116C6.05067 18.3461 4.52465 18.3747 3.02395 18.4433L11.8384 32.9253M11.9811 32.427C11.981 32.427 11.981 32.4271 11.9809 32.4271L11.9062 32.3607L11.9811 32.4269C11.9811 32.4269 11.9811 32.4269 11.9811 32.427ZM11.9811 32.427C11.9021 32.5164 11.8723 32.5807 11.8662 32.6395C11.8599 32.6999 11.8766 32.7722 11.9286 32.882M11.9286 32.882C11.9285 32.8818 11.9284 32.8817 11.9283 32.8815L11.8384 32.9253M11.9286 32.882C11.9286 32.8822 11.9287 32.8823 11.9288 32.8825L11.8384 32.9253M8.21 31.8325C8.5382 31.7024 8.81106 31.6966 9.05843 31.7682M8.21 31.8325L9.05843 31.7682M9.05843 31.7682C9.30906 31.8407 9.54188 31.9952 9.78467 32.2007L9.05843 31.7682ZM7.28502 29.2415V29.1414L7.18499 29.1415L4.63689 29.1423C4.63688 29.1423 4.63687 29.1423 4.63686 29.1423C4.31606 29.1423 4.14919 29.0968 4.05593 29.0049C3.96317 28.9135 3.91736 28.7504 3.91736 28.4356V28.4331V28.4305V28.4279V28.4253V28.4227V28.4201V28.4175V28.4149V28.4123V28.4097V28.4071V28.4045V28.4019V28.3993V28.3967V28.3941V28.3915V28.3889V28.3863V28.3838V28.3812V28.3786V28.376V28.3734V28.3708V28.3682V28.3656V28.363V28.3604V28.3578V28.3552V28.3526V28.35V28.3474V28.3448V28.3422V28.3396V28.337V28.3344V28.3318V28.3293V28.3267V28.3241V28.3215V28.3189V28.3163V28.3137V28.3111V28.3085V28.3059V28.3033V28.3007V28.2981V28.2955V28.2929V28.2903V28.2877V28.2851V28.2825V28.2799V28.2773V28.2747V28.2721V28.2695V28.267V28.2644V28.2618V28.2592V28.2566V28.254V28.2514V28.2488V28.2462V28.2436V28.241V28.2384V28.2358V28.2332V28.2306V28.228V28.2254V28.2228V28.2202V28.2176V28.215V28.2124V28.2098V28.2072V28.2046V28.2021V28.1995V28.1969V28.1943V28.1917V28.1891V28.1865V28.1839V28.1813V28.1787V28.1761V28.1735V28.1709V28.1683V28.1657V28.1631V28.1605V28.1579V28.1553V28.1527V28.1501V28.1475V28.1449V28.1423V28.1397V28.1371V28.1345V28.1319V28.1294V28.1268V28.1242V28.1216V28.119V28.1164V28.1138V28.1112V28.1086V28.106V28.1034V28.1008V28.0982V28.0956V28.093V28.0904V28.0878V28.0852V28.0826V28.08V28.0774V28.0748V28.0722V28.0696V28.067V28.0644V28.0618V28.0592V28.0566V28.054V28.0514V28.0488V28.0463V28.0437V28.0411V28.0385V28.0359V28.0333V28.0307V28.0281V28.0255V28.0229V28.0203V28.0177V28.0151V28.0125V28.0099V28.0073V28.0047V28.0021V27.9995V27.9969V27.9943V27.9917V27.9891V27.9865V27.9839V27.9813V27.9787V27.9761V27.9735V27.9709V27.9683V27.9657V27.9631V27.9605V27.9579V27.9553V27.9527V27.9501V27.9476V27.945V27.9424V27.9398V27.9372V27.9346V27.932V27.9294V27.9268V27.9242V27.9216V27.919V27.9164V27.9138V27.9112V27.9086V27.906V27.9034V27.9008V27.8982V27.8956V27.893V27.8904V27.8878V27.8852V27.8826V27.88V27.8774V27.8748V27.8722V27.8696V27.867V27.8644V27.8618V27.8592V27.8566V27.854V27.8514V27.8488V27.8462V27.8436V27.841V27.8384V27.8358V27.8332V27.8306V27.828V27.8255V27.8229V27.8203V27.8177V27.8151V27.8125V27.8099V27.8073V27.8047V27.8021V27.7995V27.7969V27.7943V27.7917V27.7891V27.7865V27.7839V27.7813V27.7787V27.7761V27.7735V27.7709V27.7683V27.7657V27.7631V27.7605V27.7579V27.7553V27.7527V27.7501V27.7475V27.7449V27.7423V27.7397V27.7371V27.7345V27.7319V27.7293V27.7267V27.7241V27.7215V27.7189V27.7163V27.7137V27.7111V27.7085V27.7059V27.7033V27.7007V27.6981V27.6955V27.6929V27.6903V27.6877V27.6851V27.6825V27.6799V27.6773V27.6747V27.6721V27.6695V27.667V27.6644V27.6618V27.6592V27.6566V27.654V27.6514V27.6488V27.6462V27.6436V27.641V27.6384V27.6358V27.6332V27.6306V27.628V27.6254V27.6228V27.6202V27.6176V27.615V27.6124V27.6098V27.6072V27.6046V27.602V27.5994V27.5968V27.5942V27.5916V27.589V27.5864V27.5838V27.5812V27.5786V27.576V27.5734V27.5708V27.5682V27.5656V27.563V27.5604V27.5578V27.5552V27.5526V27.55V27.5474V27.5448V27.5422V27.5396V27.537V27.5344V27.5318V27.5292V27.5266V27.524V27.5214V27.5188V27.5162V27.5136V27.511V27.5084V27.5058V27.5032V27.5006V27.498V27.4954V27.4928V27.4902V27.4876V27.485V27.4824V27.4798V27.4772V27.4746V27.472V27.4694V27.4668V27.4642V27.4616V27.459V27.4564V27.4538V27.4512V27.4486V27.446V27.4434V27.4408V27.4382V27.4356V27.433V27.4304V27.4278V27.4252V27.4227V27.4201V27.4175V27.4149V27.4123V27.4097V27.4071V27.4045V27.4019V27.3993V27.3967V27.3941V27.3915V27.3889V27.3863V27.3837V27.3811V27.3785V27.3759V27.3733V27.3707V27.3681V27.3655V27.3629V27.3603V27.3577V27.3551V27.3525V27.3499V27.3473V27.3447V27.3421V27.3395V27.3369V27.3343V27.3317V27.3291V27.3265V27.3239V27.3213V27.3187V27.3161V27.3135V27.3109V27.3083V27.3057V27.3031V27.3005V27.2979V27.2953V27.2927V27.2901V27.2875V27.2849V27.2823V27.2797V27.2771V27.2745V27.2719V27.2693V27.2667V27.2641V27.2615V27.2589V27.2563V27.2537V27.2511V27.2485V27.2459V27.2433V27.2407V27.2381V27.2355V27.2329V27.2303V27.2277V27.2251V27.2225V27.2199V27.2173V27.2147V27.2121V27.2095V27.2069V27.2043V27.2017V27.1991V27.1965V27.1939V27.1913V27.1887V27.1861V27.1835V27.1809V27.1783V27.1757V27.1731V27.1705V27.1679V27.1653V27.1627V27.1601V27.1575V27.1549V27.1523V27.1497V27.1471V27.1445V27.1419V27.1393V27.1367V27.1341V27.1315V27.1289V27.1263V27.1237V27.1211V27.1185V27.1159V27.1133V27.1107V27.1081V27.1055V27.0962L3.91564 27.087C3.90643 27.0381 3.89243 26.9902 3.87383 26.944L3.84861 26.8813H3.78106C3.65812 26.8813 3.53402 26.882 3.40908 26.8827C3.15697 26.8842 2.90148 26.8856 2.6454 26.8813L2.64512 26.8813C2.42034 26.8782 2.31564 26.8241 2.2741 26.7608C2.23265 26.6976 2.22487 26.5807 2.3116 26.3748C2.44969 26.048 2.58981 25.7212 2.73003 25.3943C2.93941 24.906 3.14899 24.4173 3.35236 23.927C3.4693 23.6454 3.62514 23.4446 3.82157 23.3152C4.01784 23.1859 4.26355 23.1219 4.57067 23.1296C5.03692 23.1416 5.50443 23.1391 5.96996 23.1366C6.16314 23.1355 6.35598 23.1345 6.54824 23.1345C7.0497 23.138 7.46417 23.3028 7.75505 23.5834C8.04577 23.8638 8.2204 24.2668 8.22964 24.7609L8.22964 24.7611C8.23226 24.8883 8.25374 24.997 8.31195 25.0906C8.37018 25.1843 8.4579 25.2512 8.57001 25.3093L8.5701 25.3093C9.08223 25.5737 9.3351 25.8715 9.37739 26.1758C9.41965 26.4799 9.25791 26.8354 8.83042 27.2305C8.61723 27.4275 8.44992 27.6321 8.34374 27.8673C8.23703 28.1037 8.19477 28.3651 8.22277 28.6714C8.26086 29.0882 8.2519 29.5069 8.24272 29.9356C8.23913 30.1032 8.23551 30.2722 8.23465 30.4433L6.19446 31.0619V30.4853H7.18502H7.28502V30.3853V29.2415ZM8.61597 25.2204C8.40867 25.1132 8.33446 24.9946 8.32962 24.759L8.61597 25.2204ZM11.0512 31.4662C10.9688 31.4122 10.8875 31.3591 10.807 31.3066C10.4091 31.0468 10.0332 30.8014 9.67148 30.5445C9.64335 30.5166 9.62077 30.4836 9.60496 30.4472C9.58827 30.4087 9.57946 30.3673 9.57907 30.3254L9.57903 30.324C9.56537 29.7487 9.55977 29.1739 9.57886 28.6014C9.59514 28.469 9.6493 28.3441 9.73487 28.2416L9.73492 28.2417L9.73715 28.2388C9.81381 28.14 9.90034 28.0475 9.99061 27.9509C10.0111 27.929 10.0319 27.9068 10.0527 27.8843C10.1633 27.7651 10.2756 27.6382 10.3649 27.4948C10.995 26.4841 10.7157 25.1865 9.77059 24.443C9.6375 24.3347 9.54044 24.1885 9.49227 24.0238C9.13947 22.7119 8.02719 21.8194 6.65455 21.8044L6.6542 21.8044C5.93571 21.799 5.21752 21.8008 4.50039 21.8026C4.14243 21.8035 3.78473 21.8044 3.42739 21.8044C3.05923 21.8013 2.75895 21.6923 2.55222 21.5131C2.34668 21.335 2.22704 21.0822 2.22667 20.775C2.2263 20.4676 2.34515 20.2132 2.54988 20.0344C2.75573 19.8547 3.05515 19.7458 3.42292 19.7458C3.77685 19.7458 4.13067 19.7452 4.48442 19.7446C5.19161 19.7433 5.8985 19.7421 6.60533 19.7458L6.60536 19.7458C9.4376 19.7601 11.6207 21.967 11.6207 24.8083V24.8179V24.8276V24.8372V24.8469V24.8566V24.8662V24.8759V24.8856V24.8952V24.9049V24.9146V24.9242V24.9339V24.9436V24.9532V24.9629V24.9726V24.9822V24.9919V25.0016V25.0113V25.0209V25.0306V25.0403V25.0499V25.0596V25.0693V25.0789V25.0886V25.0983V25.1079V25.1176V25.1273V25.1369V25.1466V25.1563V25.166V25.1756V25.1853V25.195V25.2046V25.2143V25.224V25.2336V25.2433V25.253V25.2627V25.2723V25.282V25.2917V25.3013V25.311V25.3207V25.3304V25.34V25.3497V25.3594V25.369V25.3787V25.3884V25.3981V25.4077V25.4174V25.4271V25.4368V25.4464V25.4561V25.4658V25.4754V25.4851V25.4948V25.5045V25.5141V25.5238V25.5335V25.5432V25.5528V25.5625V25.5722V25.5819V25.5915V25.6012V25.6109V25.6206V25.6302V25.6399V25.6496V25.6593V25.6689V25.6786V25.6883V25.698V25.7076V25.7173V25.727V25.7367V25.7463V25.756V25.7657V25.7754V25.785V25.7947V25.8044V25.8141V25.8237V25.8334V25.8431V25.8528V25.8625V25.8721V25.8818V25.8915V25.9012V25.9108V25.9205V25.9302V25.9399V25.9496V25.9592V25.9689V25.9786V25.9883V25.9979V26.0076V26.0173V26.027V26.0367V26.0463V26.056V26.0657V26.0754V26.085V26.0947V26.1044V26.1141V26.1238V26.1334V26.1431V26.1528V26.1625V26.1722V26.1818V26.1915V26.2012V26.2109V26.2206V26.2302V26.2399V26.2496V26.2593V26.269V26.2786V26.2883V26.298V26.3077V26.3174V26.327V26.3367V26.3464V26.3561V26.3658V26.3755V26.3851V26.3948V26.4045V26.4142V26.4239V26.4335V26.4432V26.4529V26.4626V26.4723V26.4819V26.4916V26.5013V26.511V26.5207V26.5304V26.54V26.5497V26.5594V26.5691V26.5788V26.5884V26.5981V26.6078V26.6175V26.6272V26.6369V26.6465V26.6562V26.6659V26.6756V26.6853V26.695V26.7046V26.7143V26.724V26.7337V26.7434V26.7531V26.7627V26.7724V26.7821V26.7918V26.8015V26.8112V26.8208V26.8305V26.8402V26.8499V26.8596V26.8693V26.8789V26.8886V26.8983V26.908V26.9177V26.9274V26.937V26.9467V26.9564V26.9661V26.9758V26.9855V26.9952V27.0048V27.0145V27.0242V27.0339V27.0436V27.0533V27.0629V27.0726V27.0823V27.092V27.1017V27.1114V27.1211V27.1307V27.1404V27.1501V27.1598V27.1695V27.1792V27.1888V27.1985V27.2082V27.2179V27.2276V27.2373V27.247V27.2566V27.2663V27.276V27.2857V27.2954V27.3051V27.3148V27.3244V27.3341V27.3438V27.3535V27.3632V27.3729V27.3826V27.3922V27.4019V27.4116V27.4213V27.431V27.4407V27.4504V27.46V27.4697V27.4794V27.4891V27.4988V27.5085V27.5182V27.5278V27.5375V27.5472V27.5569V27.5666V27.5763V27.586V27.5956V27.6053V27.615V27.6247V27.6344V27.6441V27.6538V27.6635V27.6731V27.6828V27.6925V27.7022V27.7119V27.7216V27.7313V27.7409V27.7506V27.7603V27.77V27.7797V27.7894V27.7991V27.8087V27.8184V27.8281V27.8378V27.8475V27.8572V27.8669V27.8765V27.8862V27.8959V27.9056V27.9153V27.925V27.9347V27.9444V27.954V27.9637V27.9734V27.9831V27.9928V28.0025V28.0122V28.0218V28.0315V28.0412V28.0509V28.0606V28.0703V28.08V28.0896V28.0993V28.109V28.1187V28.1284V28.1381V28.1478V28.1575V28.1671V28.1768V28.1865V28.1962V28.2059V28.2156V28.2253V28.2349V28.2446V28.2543V28.264V28.2737V28.2834V28.2931V28.3027V28.3124V28.3221V28.3318V28.3415V28.3512V28.3609V28.3705V28.3802V28.3899V28.3996V28.4093V28.419V28.4287V28.4384V28.448V28.4577V28.4674V28.4771V28.4868V28.4965V28.5062V28.5158V28.5255V28.5352V28.5449V28.5546V28.5643V28.574V28.5836V28.5933V28.603V28.6127V28.6224V28.6321V28.6418V28.6514V28.6611V28.6708V28.6805V28.6902V28.6999V28.7095V28.7192V28.7289V28.7386V28.7483V28.758V28.7677V28.7773V28.787V28.7967V28.8064V28.8161V28.8258V28.8355V28.8451V28.8548V28.8645V28.8742V28.8839V28.8936V28.9032V28.9129V28.9226V28.9323V28.942V28.9517V28.9614V28.971V28.9807V28.9904V29.0001V29.0098V29.0195V29.0291V29.0388V29.0485V29.0582V29.0679V29.0776V29.0872V29.0969V29.1066V29.1163V29.126V29.1357V29.1453V29.155V29.1647V29.1744V29.1841V29.1938V29.2034V29.2131V29.2228V29.2325V29.2422V29.2519V29.2615V29.2712V29.2809V29.2906V29.3003V29.31V29.3196V29.3293V29.339V29.3487V29.3584V29.368V29.3777V29.3874V29.3971V29.4068V29.4165V29.4261V29.4358V29.4455V29.4552V29.4649V29.4746V29.4842V29.4939V29.5036V29.5133V29.523V29.5326V29.5423V29.552V29.5617V29.5714V29.581V29.5907V29.6004V29.6101V29.6198V29.6294V29.6391V29.6488V29.6585V29.6682V29.6778V29.6875V29.6972V29.7069V29.7166V29.7262V29.7359V29.7456V29.7553V29.7647C11.6161 30.4085 11.4379 30.9848 11.0512 31.4662Z" fill="#6651E6" stroke="#6651E6" stroke-width="0.2"/>
<path d="M12.4034 17.4839H12.2975H11.1892H11.1039L11.0905 17.3996C11.0779 17.3203 11.0667 17.2423 11.0557 17.1653C11.0332 17.0087 11.0113 16.8558 10.9792 16.7026L10.9792 16.7025C10.7492 15.5948 10.118 14.7877 9.12098 14.2704C9.0618 14.2397 8.98966 14.2122 8.91917 14.1974C8.84695 14.1822 8.78651 14.1823 8.74481 14.196L8.74238 14.1968L8.74237 14.1968C8.58485 14.2439 8.42734 14.2907 8.26991 14.3374C7.27169 14.634 6.2767 14.9295 5.30501 15.2995L5.3047 15.2996C4.12213 15.7453 3.15397 16.5291 2.34018 17.5082C2.30051 17.5562 2.25866 17.6025 2.21539 17.6499L2.20165 17.6649C2.1622 17.7081 2.12121 17.7529 2.07734 17.8035L2.01647 17.8737L1.942 17.8182L1.03133 17.139L0.942165 17.0725L1.01774 16.9909C1.12977 16.8699 1.23916 16.7491 1.34758 16.6293C1.59707 16.3536 1.84135 16.0838 2.10053 15.8314C2.83115 15.115 3.68981 14.5422 4.63188 14.1428L4.63285 14.1424C4.7257 14.1042 4.78134 14.0675 4.81397 14.0248C4.84396 13.9856 4.8635 13.929 4.85594 13.8295L12.4034 17.4839ZM12.4034 17.4839L12.3974 17.3783C12.2899 15.4761 11.4622 14.0685 9.85273 13.1376L9.85261 13.1375C9.79337 13.1034 9.72418 13.0526 9.67091 12.9994C9.64431 12.9728 9.62388 12.9477 9.61055 12.9259C9.59663 12.9031 9.59457 12.8906 9.5945 12.8872C9.59446 12.8851 9.59559 12.8734 9.60892 12.8507C9.62164 12.829 9.6416 12.8039 9.66789 12.7773C9.72063 12.7239 9.78926 12.6742 9.84645 12.6437M12.4034 17.4839L2.69388 0.917489M2.69388 0.917489C2.8519 0.916156 3.00995 0.914761 3.16804 0.913367C4.63509 0.900422 6.10507 0.887451 7.57316 0.92317C10.4592 0.993021 12.8935 3.43008 12.942 6.31453C12.9574 7.22199 12.9359 8.165 12.738 9.05542C12.373 10.7029 11.3201 11.8643 9.84645 12.6437M2.69388 0.917489C2.6936 0.917492 2.69331 0.917494 2.69303 0.917497L2.69387 1.01749L2.69388 0.917489ZM9.84645 12.6437C9.84636 12.6438 9.84627 12.6438 9.84618 12.6439L9.79943 12.5555L9.84651 12.6437C9.84649 12.6437 9.84647 12.6437 9.84645 12.6437ZM9.00707 9.53671C8.68778 9.80813 8.46815 10.0997 8.34068 10.4283C8.21328 10.7568 8.18065 11.1154 8.22471 11.5169L8.22473 11.5172C8.26171 11.8472 8.25272 12.1782 8.24334 12.5234C8.23966 12.6591 8.23591 12.7971 8.23488 12.938L6.19944 13.5639V12.9838H7.16983H7.26983V12.8837V11.7391V11.6391H7.16983H4.97662C4.69478 11.6391 4.48876 11.6364 4.33482 11.6163C4.18072 11.5962 4.0968 11.5605 4.04475 11.5093C3.99297 11.4583 3.95702 11.3764 3.93664 11.2252C3.91626 11.074 3.91347 10.8714 3.91347 10.5937V9.47818V9.37818H3.81347C3.68072 9.37818 3.54961 9.37882 3.41952 9.37945C3.16258 9.3807 2.90961 9.38193 2.65582 9.37819L2.65435 9.47818M9.00707 9.53671C9.00708 9.5367 9.00708 9.5367 9.00709 9.53669L9.07186 9.61289L9.00682 9.53693C9.0069 9.53685 9.00699 9.53678 9.00707 9.53671ZM9.00707 9.53671C9.30596 9.28065 9.41558 8.95978 9.37095 8.66558C9.32617 8.37033 9.1237 8.08706 8.76828 7.91367L8.76823 7.91364C8.56803 7.81585 8.40972 7.70213 8.31426 7.547C8.21749 7.38973 8.19396 7.20438 8.233 6.98195C8.23975 6.90911 8.23962 6.83578 8.23263 6.76295L8.23186 6.75488L8.23219 6.75488C8.22683 6.39272 8.1159 6.11449 7.9263 5.92642C7.73678 5.73843 7.45733 5.6293 7.09295 5.62733C6.81184 5.62733 6.53014 5.62841 6.24819 5.62948C5.68316 5.63163 5.11713 5.63379 4.5528 5.62733L4.55215 5.62732C4.25376 5.62194 4.01232 5.68377 3.81861 5.80886C3.625 5.93389 3.47053 6.12765 3.35552 6.40097C3.16276 6.86152 2.9662 7.32185 2.76981 7.78182C2.61802 8.13731 2.46633 8.49258 2.31655 8.84756L2.3165 8.84768C2.22209 9.07062 2.22729 9.19218 2.26852 9.25635C2.30944 9.32004 2.41632 9.37423 2.656 9.37819L2.65435 9.47818M2.65435 9.47818C2.90907 9.48193 3.1638 9.4807 3.42136 9.47944C3.51828 9.47897 3.6156 9.4785 3.71347 9.47829M2.65435 9.47818C2.16634 9.47011 2.03244 9.262 2.22442 8.80868C2.37464 8.45264 2.5264 8.09721 2.67816 7.7418C2.87434 7.28234 3.07051 6.82291 3.26335 6.36219C3.50534 5.78706 3.9272 5.51604 4.55395 5.52733L3.71347 9.47829M3.71347 9.47829V9.47818H3.81347L3.71347 9.47829ZM11.5984 6.24478L11.5983 6.24386C11.5054 4.07266 9.65265 2.28775 7.48421 2.24836L7.48416 2.24836C6.29826 2.22625 5.11224 2.2327 3.92292 2.23916C3.55161 2.24118 3.17997 2.2432 2.80791 2.24435L2.8076 2.24435C2.57041 2.24435 2.41557 2.31566 2.32728 2.42557C2.23826 2.53639 2.19966 2.70779 2.24142 2.94405L2.24182 2.94632L2.24179 2.94632C2.29986 3.32555 2.49322 3.67093 2.78615 3.91867C3.07908 4.1664 3.45177 4.29974 3.83537 4.29403L3.83774 4.294C4.46378 4.29953 5.08829 4.29747 5.71405 4.29541C6.1897 4.29385 6.66607 4.29228 7.14439 4.29402L7.14464 4.29402C8.49316 4.30242 9.47537 5.24755 9.56985 6.58261C9.58863 6.71762 9.65514 6.84146 9.75737 6.93168C10.1584 7.26853 10.4778 7.66356 10.6088 8.19343L10.6088 8.19346C10.8245 9.06736 10.6069 9.82875 9.97741 10.4652M11.5984 6.24478L9.47484 11.2838C9.50538 11.2696 9.53591 11.2547 9.56639 11.239M11.5984 6.24478C11.6425 7.09297 11.5873 7.94342 11.4338 8.77878M11.5984 6.24478L11.4338 8.77878M9.97741 10.4652C9.97727 10.4654 9.97713 10.4655 9.97699 10.4656L9.9059 10.3953L9.97778 10.4648C9.97766 10.465 9.97753 10.4651 9.97741 10.4652ZM9.97741 10.4652C9.94534 10.4984 9.9124 10.5309 9.88045 10.5624L9.87582 10.567C9.84199 10.6003 9.8093 10.6327 9.77802 10.6653C9.71524 10.7308 9.66144 10.7942 9.62159 10.8608C9.55907 10.9654 9.52729 11.083 9.56639 11.239M9.56639 11.239C10.413 10.8047 11.2273 9.8329 11.4338 8.77878M9.56639 11.239L11.4338 8.77878" fill="#6651E6" stroke="#6651E6" stroke-width="0.2"/>
<path d="M26.6455 17.2438L26.6044 17.3234L26.6791 17.373C27.5128 17.9255 28.4075 18.1149 29.1782 17.9653C29.9511 17.8154 30.5933 17.3251 30.9127 16.5341L30.9481 16.4463L30.8623 16.4061L29.8943 15.9536L29.8175 15.9177L29.7695 15.9877C29.4008 16.5256 29.0118 16.7111 28.6125 16.7091C28.202 16.707 27.7607 16.5074 27.2915 16.2262L27.2002 16.1714L27.1513 16.2661C27.0677 16.4279 26.9881 16.5817 26.9095 16.7334C26.8215 16.9033 26.7349 17.0706 26.6455 17.2438Z" fill="#6651E6" stroke="#6651E6" stroke-width="0.2"/>
</svg>
