<svg width="37" height="35" viewBox="0 0 37 35" fill="none" xmlns="http://www.w3.org/2000/svg">
<g clip-path="url(#clip0)">
<path fill-rule="evenodd" clip-rule="evenodd" d="M28.3006 35H33.4106C33.8918 35.046 34.3772 34.9855 34.8323 34.8226C35.2874 34.6598 35.701 34.3986 36.0437 34.0578C36.3865 33.717 36.6499 33.3048 36.8153 32.8506C36.9807 32.3965 37.0439 31.9114 37.0006 31.43V12.43C37.0491 11.9417 36.9884 11.4488 36.823 10.9869C36.6576 10.525 36.3915 10.1056 36.0441 9.75913C35.6967 9.41267 35.2766 9.14777 34.8142 8.98362C34.3518 8.81947 33.8587 8.76016 33.3706 8.81H22.6706C22.7406 8.48 22.7906 8.16 22.8506 7.81C22.9463 7.13313 23.0934 6.46453 23.2906 5.81C23.5806 4.92 23.9406 4.05 24.2906 3.17C24.4906 2.7 24.6806 2.17 24.8706 1.74C25.2606 0.7 24.8006 0 23.7106 0H23.0706C22.1506 0 21.1506 0 20.2206 0C19.8118 0.039614 19.4091 0.126873 19.0206 0.26L18.3906 0.43L18.1506 0.34C17.8801 0.182638 17.5809 0.0806592 17.2706 0.04C16.0406 0 14.8506 0 13.6506 0H13.2806C12.2006 0 11.7506 0.72 12.1506 1.74C12.3306 2.2 12.5206 2.65 12.7006 3.11C13.1206 4.11 13.5306 5.11 13.8706 6.17C14.0292 6.73419 14.1232 7.31458 14.1506 7.9C14.1506 8.16 14.1506 8.42 14.2306 8.68L14.0306 8.73H10.7306H3.3906C2.93987 8.71753 2.49134 8.79728 2.07253 8.96437C1.65372 9.13145 1.27347 9.38234 0.955098 9.70165C0.636727 10.021 0.386952 10.4019 0.221099 10.8212C0.0552454 11.2405 -0.0231899 11.6893 -0.0093948 12.14V14.2V16.39V31.34C-0.0640123 31.8366 -0.00586298 32.3391 0.16072 32.81C0.327303 33.281 0.598024 33.7083 0.952711 34.0601C1.3074 34.4119 1.7369 34.6792 2.20922 34.8419C2.68154 35.0046 3.1845 35.0587 3.68061 35H28.3006ZM3.6406 11H14.0806C14.3206 13.18 14.3206 13.18 16.5006 13.18H21.1506C22.5606 13.18 22.8106 12.93 22.8506 11.51C22.8506 11.42 22.8506 11.32 22.8506 11.21C22.8561 11.1401 22.8561 11.0699 22.8506 11H33.3906C34.3906 11 34.8106 11.38 34.8106 12.4V31.4C34.8106 32.4 34.4406 32.81 33.4106 32.81H3.59061C2.59061 32.81 2.19061 32.43 2.19061 31.39V12.39C2.15061 11.34 2.58061 11 3.6406 11ZM20.6406 7.77V10.98H16.3906V7.72L20.6406 7.77ZM15.0406 3.1L14.7106 2.26C16.6106 2.08 16.6106 2.08 17.2606 3.68C17.4406 4.11 17.6106 4.55 17.8106 5.05L17.9806 5.47H17.4506C17.0106 5.47 16.6206 5.47 16.2206 5.47C16.1432 5.44966 16.0714 5.41205 16.0106 5.36C15.9498 5.3022 15.8991 5.23459 15.8606 5.16C15.5806 4.47 15.3206 3.8 15.0406 3.1ZM21.7806 2.2H22.3206C22.1706 2.57 22.0406 2.91 21.9106 3.2C21.6406 3.89 21.4006 4.53 21.1306 5.2C21.0927 5.28792 21.0299 5.36281 20.9499 5.41543C20.87 5.46805 20.7763 5.49609 20.6806 5.49609C20.5849 5.49609 20.4912 5.46805 20.4113 5.41543C20.3313 5.36281 20.2685 5.28792 20.2306 5.2C19.967 4.80097 19.8264 4.33326 19.8264 3.855C19.8264 3.37674 19.967 2.90903 20.2306 2.51C20.2881 2.43407 20.3593 2.36962 20.4406 2.32C20.5237 2.27233 20.6155 2.24174 20.7106 2.23C21.0506 2.19 21.3906 2.2 21.7806 2.2Z" fill="#6651E6"/>
<path d="M15.2593 17.5001C15.2539 18.3648 14.9968 19.2092 14.5193 19.9301C14.0969 20.5519 13.5209 21.0539 12.8473 21.3874C12.1736 21.721 11.4252 21.8747 10.6746 21.8336C9.92407 21.7926 9.19687 21.5582 8.56362 21.1532C7.93037 20.7482 7.41258 20.1863 7.06052 19.5222C6.70846 18.858 6.53408 18.1142 6.55431 17.3628C6.57455 16.6113 6.78871 15.8779 7.176 15.2337C7.56329 14.5895 8.11057 14.0563 8.7647 13.686C9.41882 13.3156 10.1576 13.1207 10.9093 13.1201C11.4797 13.122 12.044 13.2375 12.5693 13.4601C13.1005 13.6803 13.5831 14.0031 13.9893 14.4101C14.3899 14.8195 14.709 15.3014 14.9293 15.8301C15.1479 16.3597 15.2601 16.9272 15.2593 17.5001ZM10.8893 19.6801C11.4314 19.6281 11.9347 19.376 12.301 18.9729C12.6673 18.5698 12.8702 18.0448 12.8702 17.5001C12.8702 16.9555 12.6673 16.4304 12.301 16.0273C11.9347 15.6242 11.4314 15.3721 10.8893 15.3201C10.3155 15.3267 9.76685 15.5563 9.35927 15.9601C8.94938 16.3622 8.70954 16.9063 8.68927 17.4801C8.68912 18.055 8.91403 18.6072 9.31586 19.0183C9.71768 19.4295 10.2645 19.6671 10.8393 19.6801H10.8893Z" fill="#6651E6"/>
<path d="M10.9297 22.8601C12.5687 22.924 14.1283 23.5824 15.3171 24.7124C16.506 25.8423 17.2427 27.3665 17.3897 29.0001C17.4097 29.2063 17.4097 29.4139 17.3897 29.6201C17.3637 29.8806 17.244 30.1227 17.0528 30.3016C16.8616 30.4804 16.612 30.5837 16.3504 30.5922C16.0888 30.6008 15.8329 30.514 15.6305 30.3481C15.428 30.1821 15.2927 29.9483 15.2497 29.6901C15.1797 29.3701 15.1997 29.0201 15.1297 28.6901C14.9168 27.6626 14.3388 26.747 13.5028 26.1128C12.6667 25.4786 11.6292 25.1689 10.5823 25.2409C9.53536 25.3129 8.55 25.7617 7.8086 26.5044C7.0672 27.247 6.61998 28.2331 6.54973 29.2801C6.55471 29.36 6.55471 29.4402 6.54973 29.5201C6.55113 29.6693 6.52245 29.8172 6.4654 29.955C6.40835 30.0929 6.3241 30.2178 6.21769 30.3223C6.11128 30.4269 5.98489 30.5089 5.84607 30.5635C5.70725 30.6181 5.55885 30.6441 5.40973 30.6401C5.11708 30.6025 4.85007 30.4539 4.66394 30.2249C4.47781 29.996 4.3868 29.7043 4.40973 29.4101C4.43621 28.1297 4.83916 26.8855 5.56829 25.8327C6.29743 24.7799 7.32046 23.9652 8.50973 23.4901C9.27589 23.1474 10.0937 22.9345 10.9297 22.8601Z" fill="#6651E6"/>
<path d="M26.0308 17.5101H21.0308C20.1508 17.5101 19.6308 17.0901 19.6408 16.4201C19.6508 15.7501 20.1708 15.3301 21.0508 15.3301H31.2408C32.1208 15.3301 32.6408 15.7501 32.6408 16.4301C32.6408 17.1101 32.1208 17.5201 31.2308 17.5201H26.0308V17.5101Z" fill="#6651E6"/>
<path d="M26.1498 21.8801H20.9098C20.0998 21.8801 19.5898 21.4201 19.5998 20.7701C19.6098 20.1201 20.1198 19.6901 20.9398 19.6901H31.4798C31.6285 19.6861 31.7766 19.7118 31.9153 19.7657C32.054 19.8195 32.1806 19.9005 32.2876 20.0038C32.3947 20.1072 32.4801 20.2308 32.5388 20.3675C32.5976 20.5043 32.6285 20.6513 32.6298 20.8001C32.6275 20.9494 32.5946 21.0967 32.5331 21.2329C32.4716 21.369 32.3827 21.491 32.2721 21.5913C32.1614 21.6916 32.0313 21.7682 31.8899 21.8161C31.7484 21.8641 31.5986 21.8825 31.4498 21.8701C29.6698 21.8901 27.8798 21.8801 26.1498 21.8801Z" fill="#6651E6"/>
<path d="M28.2106 26.2499C27.2106 26.2499 26.2106 26.2499 25.2106 26.2499C25.058 26.2645 24.9041 26.2471 24.7586 26.1987C24.6132 26.1503 24.4794 26.072 24.366 25.9689C24.2526 25.8658 24.1619 25.7402 24.0999 25.6C24.0379 25.4598 24.0059 25.3082 24.0059 25.1549C24.0059 25.0016 24.0379 24.85 24.0999 24.7099C24.1619 24.5697 24.2526 24.444 24.366 24.3409C24.4794 24.2378 24.6132 24.1596 24.7586 24.1112C24.9041 24.0628 25.058 24.0453 25.2106 24.0599H31.4006C31.5532 24.0453 31.7072 24.0628 31.8526 24.1112C31.9981 24.1596 32.1318 24.2378 32.2452 24.3409C32.3587 24.444 32.4493 24.5697 32.5113 24.7099C32.5733 24.85 32.6054 25.0016 32.6054 25.1549C32.6054 25.3082 32.5733 25.4598 32.5113 25.6C32.4493 25.7402 32.3587 25.8658 32.2452 25.9689C32.1318 26.072 31.9981 26.1503 31.8526 26.1987C31.7072 26.2471 31.5532 26.2645 31.4006 26.2499C30.3306 26.2599 29.2706 26.2499 28.2106 26.2499Z" fill="#6651E6"/>
</g>
<defs>
<clipPath id="clip0">
<rect width="37" height="35" fill="white"/>
</clipPath>
</defs>
</svg>
