<svg width="35" height="35" viewBox="0 0 35 35" fill="none" xmlns="http://www.w3.org/2000/svg">
<path d="M33.981 6.22097C33.9789 6.22097 33.9767 6.2207 33.9746 6.2207H24.6777V5.19531C24.6777 3.49915 23.2977 2.11914 21.6016 2.11914H13.3984C11.7023 2.11914 10.3223 3.49915 10.3223 5.19531V6.2207H1.02539C0.454483 6.2207 0 6.68854 0 7.24609V29.8047C0 31.5009 1.38 32.8809 3.07617 32.8809H31.9238C33.62 32.8809 35 31.5009 35 29.8047V7.26772C35 7.26639 35 7.26505 35 7.26372C34.9607 6.59027 34.5466 6.22471 33.981 6.22097ZM12.373 5.19531C12.373 4.63001 12.8331 4.16992 13.3984 4.16992H21.6016C22.1669 4.16992 22.627 4.63001 22.627 5.19531V6.2207H12.373V5.19531ZM32.5519 8.27148L29.3676 17.8242C29.2279 18.2437 28.837 18.5254 28.395 18.5254H22.627V17.5C22.627 16.9336 22.1679 16.4746 21.6016 16.4746H13.3984C12.8321 16.4746 12.373 16.9336 12.373 17.5V18.5254H6.60496C6.16302 18.5254 5.77209 18.2437 5.63244 17.8242L2.44812 8.27148H32.5519ZM20.5762 18.5254V20.5762H14.4238V18.5254H20.5762ZM32.9492 29.8047C32.9492 30.37 32.4891 30.8301 31.9238 30.8301H3.07617C2.51087 30.8301 2.05078 30.37 2.05078 29.8047V13.5648L3.68687 18.4728C4.1061 19.731 5.27889 20.5762 6.60496 20.5762H12.373V21.6016C12.373 22.1679 12.8321 22.627 13.3984 22.627H21.6016C22.1679 22.627 22.627 22.1679 22.627 21.6016V20.5762H28.395C29.7211 20.5762 30.8939 19.731 31.3131 18.4728L32.9492 13.5648V29.8047Z" fill="#6651E6"/>
</svg>
