<svg width="35" height="35" viewBox="0 0 35 35" fill="none" xmlns="http://www.w3.org/2000/svg">
<path d="M31.9238 0.0683594H3.07617C1.37997 0.0683594 0 1.44833 0 3.14453V31.8555C0 33.5517 1.37997 34.9316 3.07617 34.9316H31.9238C33.62 34.9316 35 33.5517 35 31.8555V3.14453C35 1.44833 33.62 0.0683594 31.9238 0.0683594ZM3.07617 2.11914H31.9238C32.4892 2.11914 32.9492 2.57913 32.9492 3.14453V8.27148H2.05078V3.14453C2.05078 2.57913 2.51077 2.11914 3.07617 2.11914ZM31.9238 32.8809H3.07617C2.51077 32.8809 2.05078 32.4209 2.05078 31.8555V10.3223H32.9492V31.8555C32.9492 32.4209 32.4892 32.8809 31.9238 32.8809Z" fill="#6651E6"/>
<path d="M29.8047 12.373H5.19531C4.62902 12.373 4.16992 12.8321 4.16992 13.3984V19.5508C4.16992 20.1171 4.62902 20.5762 5.19531 20.5762H29.8047C30.371 20.5762 30.8301 20.1171 30.8301 19.5508V13.3984C30.8301 12.8321 30.371 12.373 29.8047 12.373ZM28.7793 18.5254H6.2207V14.4238H28.7793V18.5254Z" fill="#6651E6"/>
<path d="M15.4492 22.627H5.19531C4.62902 22.627 4.16992 23.0861 4.16992 23.6523V29.8047C4.16992 30.371 4.62902 30.8301 5.19531 30.8301H15.4492C16.0155 30.8301 16.4746 30.371 16.4746 29.8047V23.6523C16.4746 23.0861 16.0155 22.627 15.4492 22.627ZM14.4238 28.7793H6.2207V24.6777H14.4238V28.7793Z" fill="#6651E6"/>
<path d="M5.19531 6.2207C5.76162 6.2207 6.2207 5.76162 6.2207 5.19531C6.2207 4.629 5.76162 4.16992 5.19531 4.16992C4.629 4.16992 4.16992 4.629 4.16992 5.19531C4.16992 5.76162 4.629 6.2207 5.19531 6.2207Z" fill="#6651E6"/>
<path d="M9.29688 6.2207C9.86318 6.2207 10.3223 5.76162 10.3223 5.19531C10.3223 4.629 9.86318 4.16992 9.29688 4.16992C8.73057 4.16992 8.27148 4.629 8.27148 5.19531C8.27148 5.76162 8.73057 6.2207 9.29688 6.2207Z" fill="#6651E6"/>
<path d="M13.3984 6.2207C13.9647 6.2207 14.4238 5.76162 14.4238 5.19531C14.4238 4.629 13.9647 4.16992 13.3984 4.16992C12.8321 4.16992 12.373 4.629 12.373 5.19531C12.373 5.76162 12.8321 6.2207 13.3984 6.2207Z" fill="#6651E6"/>
<path d="M23.6523 6.2207H29.8047C30.371 6.2207 30.8301 5.7616 30.8301 5.19531C30.8301 4.62902 30.371 4.16992 29.8047 4.16992H23.6523C23.0861 4.16992 22.627 4.62902 22.627 5.19531C22.627 5.7616 23.0861 6.2207 23.6523 6.2207Z" fill="#6651E6"/>
<path d="M29.8047 22.627H19.5508C18.9845 22.627 18.5254 23.0861 18.5254 23.6523V29.8047C18.5254 30.371 18.9845 30.8301 19.5508 30.8301H29.8047C30.371 30.8301 30.8301 30.371 30.8301 29.8047V23.6523C30.8301 23.0861 30.371 22.627 29.8047 22.627ZM28.7793 28.7793H20.5762V24.6777H28.7793V28.7793Z" fill="#6651E6"/>
</svg>
