<svg width="212" height="40" viewBox="0 0 212 40" fill="none" xmlns="http://www.w3.org/2000/svg">
<path fill-rule="evenodd" clip-rule="evenodd" d="M20.027 34.4317L32.7821 21.1503L27.378 15.4996L14.5832 28.781L7.66926 21.6041L26.4244 2.13571C20.1462 -2.85511 15.219 2.46569 15.219 2.46569L2.98048 15.1696C-3.65534 21.9753 2.86127 27.791 2.86127 27.791L14.6627 40L20.027 34.4317Z" fill="#CDCDCD"/>
<path fill-rule="evenodd" clip-rule="evenodd" d="M55.3157 14.4673C55.4349 14.4673 55.5144 14.4673 55.6336 14.4673C55.7131 14.4673 55.8323 14.5498 55.9117 14.6323C55.9912 14.7148 56.0309 14.7973 56.0707 14.921C56.0707 15.0448 56.1104 15.1272 56.0707 15.251V23.459H59.7661V13.3124C59.7661 13.1062 59.7263 12.8999 59.6866 12.6937C59.6071 12.4875 59.4879 12.2812 59.329 12.1163C59.17 11.9513 59.0111 11.8275 58.8522 11.7863C58.6932 11.745 58.4945 11.6625 58.2959 11.6625C58.0972 11.6625 57.8985 11.6213 57.6601 11.6213H50.468C50.2693 11.6213 50.1104 11.6213 49.9117 11.6213C49.713 11.6213 49.5143 11.6625 49.3157 11.745C49.117 11.8275 48.9183 11.9513 48.7594 12.1163C48.6004 12.3225 48.4812 12.4875 48.4017 12.6937C48.3223 12.8999 48.3223 13.1062 48.3223 13.3124V23.4178H52.0177V15.251C52.0177 15.1272 52.0177 15.0448 52.0177 14.921C52.0177 14.7973 52.0971 14.7148 52.1766 14.6323C52.2561 14.5498 52.3753 14.5086 52.4548 14.4673C52.5342 14.4673 52.6534 14.4673 52.7329 14.4673H55.3157ZM65.0112 23.459V20.0356H69.8191C70.0178 20.0356 70.2562 20.0356 70.4946 19.9531C70.733 19.9118 70.9715 19.8293 71.2099 19.7469C71.4483 19.6644 71.647 19.5406 71.8456 19.3756C72.0443 19.2107 72.2033 19.0044 72.3225 18.7569C72.4417 18.5095 72.5609 18.2207 72.6404 17.9733C72.7198 17.6845 72.7596 17.3958 72.7993 17.1071C72.839 16.8184 72.8788 16.5709 72.8788 16.3234C72.8788 16.0759 72.8788 15.8697 72.8788 15.7047C72.8788 15.1272 72.839 14.6323 72.7596 14.2611C72.6801 13.8486 72.6006 13.5186 72.4814 13.2299C72.3622 12.9412 72.2033 12.6937 72.0046 12.5287C71.8059 12.2812 71.5675 12.1163 71.2893 11.9925C71.0509 11.8688 70.7728 11.7863 70.4946 11.745C70.2165 11.7038 69.8986 11.7038 69.6205 11.7038H63.3025C63.0244 11.7038 62.8257 11.745 62.627 11.7863C62.4283 11.8688 62.2694 11.91 62.1105 12.0338C61.9913 12.1163 61.8721 12.24 61.7926 12.3225C61.6734 12.4875 61.5542 12.6525 61.5144 12.8174C61.435 13.0237 61.3952 13.1887 61.3952 13.3949C61.3555 13.6011 61.3555 13.7661 61.3555 13.9311V23.5415H65.0112V23.459ZM65.0112 17.1071V15.251C65.0112 15.1685 65.0111 15.0448 65.0509 14.9623C65.0906 14.8385 65.1304 14.756 65.2098 14.6735C65.2893 14.591 65.4482 14.5498 65.6469 14.5498H67.6734C67.8324 14.5498 67.9516 14.5498 68.1105 14.5498C68.2297 14.5498 68.3887 14.591 68.5079 14.6323C68.6271 14.6735 68.7463 14.7148 68.8655 14.8385C68.945 14.921 69.0244 15.0035 69.0642 15.1272C69.1039 15.251 69.1436 15.3335 69.1436 15.4572C69.1436 15.581 69.1834 15.6635 69.1436 15.7872C69.1436 16.0347 69.1039 16.2409 69.0642 16.4059C69.0244 16.5709 68.945 16.6946 68.8655 16.8184C68.7463 16.9421 68.6271 17.0246 68.5079 17.0658C68.3887 17.1071 68.2297 17.1483 68.0708 17.1483C67.9118 17.1483 67.7529 17.1483 67.6337 17.1483H65.0112V17.1071ZM80.0709 11.4976C79.6338 11.4976 79.1967 11.4976 78.7199 11.5388C78.2828 11.5388 77.806 11.6213 77.3689 11.7038C76.9318 11.7863 76.4947 11.91 76.1371 12.075C75.7397 12.24 75.3821 12.4462 75.104 12.7762C74.7861 13.0649 74.5477 13.4361 74.3887 13.8074C74.2298 14.1786 74.0708 14.591 73.9914 15.0448C73.9119 15.4985 73.8722 15.9109 73.8324 16.3646C73.7927 16.8184 73.7927 17.2308 73.7927 17.6433C73.7927 18.0145 73.7927 18.4682 73.8324 18.8807C73.8722 19.2931 73.9119 19.7469 73.9914 20.2006C74.0708 20.6543 74.19 21.0667 74.3887 21.438C74.5477 21.8092 74.7861 22.1804 75.104 22.4691C75.4218 22.7578 75.7397 22.9641 76.1371 23.1703C76.5344 23.3353 76.9715 23.459 77.4086 23.5415C77.8457 23.624 78.2828 23.6653 78.7596 23.7065C79.1967 23.7065 79.6735 23.7478 80.0709 23.7478C80.508 23.7478 80.9451 23.7478 81.3821 23.7065C81.8192 23.6653 82.2961 23.624 82.7332 23.5415C83.1702 23.459 83.6073 23.3353 84.0047 23.1703C84.402 23.0053 84.7597 22.7578 85.0378 22.4691C85.3557 22.1804 85.5941 21.8092 85.753 21.438C85.912 21.0667 86.0709 20.613 86.1504 20.2006C86.2299 19.7469 86.2696 19.3344 86.3093 18.8807C86.3491 18.427 86.3491 18.0145 86.3491 17.6433C86.3491 17.2308 86.3491 16.8184 86.3093 16.3646C86.2696 15.9109 86.2299 15.4985 86.1504 15.0448C86.0709 14.591 85.9517 14.2198 85.753 13.8074C85.5941 13.4361 85.316 13.0649 85.0378 12.7762C84.7199 12.4875 84.3623 12.2812 84.0047 12.075C83.6073 11.91 83.21 11.7863 82.7729 11.7038C82.3358 11.6213 81.8987 11.5801 81.4219 11.5388C80.9848 11.4976 80.508 11.4976 80.0709 11.4976ZM77.6073 17.5195C77.6073 17.1896 77.6073 16.9008 77.6073 16.6534C77.6073 16.4059 77.647 16.1584 77.7265 15.9109C77.806 15.7047 77.8854 15.4572 78.0046 15.251C78.1636 15.0035 78.3623 14.7973 78.5609 14.6735C78.7596 14.5498 78.998 14.4673 79.2364 14.4261C79.4748 14.3848 79.753 14.3848 80.0709 14.3848C80.3888 14.3848 80.6669 14.3848 80.9053 14.4261C81.1437 14.4673 81.3821 14.5498 81.5808 14.6735C81.7795 14.7973 81.9782 15.0035 82.1371 15.251C82.2961 15.4572 82.3755 15.6635 82.455 15.9109C82.4947 16.1172 82.5345 16.3646 82.5742 16.6121C82.5742 16.8596 82.5742 17.1483 82.5742 17.5195C82.5742 17.8495 82.5742 18.1382 82.5742 18.3857C82.5742 18.6332 82.5345 18.8807 82.455 19.1282C82.3755 19.3756 82.2961 19.5819 82.1371 19.7881C81.9782 20.0356 81.7795 20.2418 81.5808 20.3656C81.3821 20.4893 81.1437 20.5718 80.9053 20.613C80.6669 20.6543 80.3888 20.6543 80.0709 20.6543C79.753 20.6543 79.4748 20.6543 79.2364 20.613C78.998 20.5718 78.7596 20.4893 78.5609 20.3656C78.3623 20.2418 78.1636 20.0356 78.0046 19.7881C77.8854 19.5819 77.806 19.3756 77.7265 19.1694C77.6868 18.9219 77.6073 18.6744 77.6073 18.427C77.6073 18.1382 77.6073 17.8495 77.6073 17.5195ZM97.3161 23.459V20.5305H94.177C93.8591 20.5305 93.5809 20.5305 93.3028 20.5305C93.0246 20.5305 92.7465 20.4893 92.5081 20.448C92.2697 20.4068 92.071 20.2831 91.8723 20.1593C91.6736 20.0356 91.5147 19.8706 91.3955 19.6231C91.3557 19.5406 91.316 19.4581 91.2763 19.3344C91.2365 19.2107 91.1968 19.0044 91.1571 18.7157C91.1173 18.4682 91.1173 18.097 91.1173 17.6845C91.1173 17.5195 91.1173 17.3546 91.1173 17.1896C91.1173 17.0246 91.1571 16.8184 91.1571 16.6121C91.1968 16.4059 91.2365 16.2409 91.2763 16.0347C91.316 15.8284 91.3955 15.6635 91.4749 15.5397C91.5942 15.2922 91.7531 15.1272 91.912 15.0035C92.071 14.8798 92.2697 14.7973 92.5081 14.7148C92.7465 14.6735 92.9849 14.6323 93.2233 14.6323C93.5015 14.6323 93.7796 14.6323 94.0578 14.6323H97.1174V11.7038H92.3094C91.9915 11.7038 91.6339 11.7038 91.2763 11.745C90.9187 11.7863 90.561 11.8275 90.2034 11.9513C89.8458 12.075 89.5279 12.1987 89.1703 12.405C88.8524 12.6112 88.5345 12.8999 88.2961 13.2299C88.018 13.6011 87.8193 13.9723 87.6604 14.4261C87.5014 14.8798 87.4219 15.3747 87.3425 15.9109C87.3027 16.4471 87.263 17.0658 87.263 17.7258C87.263 18.3032 87.3027 18.7982 87.3425 19.2106C87.3822 19.6644 87.4617 20.0356 87.5411 20.3656C87.6206 20.6955 87.7398 21.0255 87.859 21.273C87.9782 21.5205 88.1372 21.7679 88.2961 22.0154C88.614 22.4279 88.9319 22.7166 89.3292 22.9228C89.6869 23.1291 90.1239 23.2941 90.6008 23.3765C91.0776 23.459 91.5942 23.5003 92.1902 23.5003H97.3161V23.459ZM105.223 23.459V14.5498H109.276V11.6213H97.475V14.5498H101.528V23.4178H105.223V23.459ZM115.873 11.4976C115.435 11.4976 114.998 11.4976 114.522 11.5388C114.084 11.5388 113.608 11.6213 113.17 11.7038C112.733 11.7863 112.296 11.91 111.939 12.075C111.541 12.24 111.184 12.4462 110.906 12.7762C110.588 13.0649 110.349 13.4361 110.19 13.8074C110.031 14.1786 109.872 14.591 109.793 15.0448C109.714 15.4985 109.674 15.9109 109.634 16.3646C109.594 16.8184 109.594 17.2308 109.594 17.6433C109.594 18.0145 109.594 18.4682 109.634 18.8807C109.674 19.3344 109.714 19.7469 109.793 20.2006C109.872 20.6543 109.992 21.0667 110.19 21.438C110.349 21.8092 110.588 22.1804 110.906 22.4691C111.223 22.7578 111.541 22.9641 111.939 23.1703C112.336 23.3353 112.773 23.459 113.21 23.5415C113.647 23.624 114.084 23.6653 114.561 23.7065C114.998 23.7065 115.475 23.7478 115.873 23.7478C116.31 23.7478 116.747 23.7478 117.184 23.7065C117.621 23.6653 118.098 23.624 118.535 23.5415C118.972 23.459 119.409 23.3353 119.806 23.1703C120.204 23.0053 120.561 22.7578 120.839 22.4691C121.157 22.1804 121.396 21.8092 121.555 21.438C121.714 21.0667 121.873 20.613 121.952 20.2006C122.031 19.7469 122.071 19.3344 122.111 18.8807C122.151 18.427 122.151 18.0145 122.151 17.6433C122.151 17.2308 122.151 16.8184 122.111 16.3646C122.071 15.9109 122.031 15.4985 121.952 15.0448C121.873 14.591 121.753 14.2198 121.555 13.8074C121.396 13.4361 121.118 13.0649 120.839 12.7762C120.522 12.4875 120.164 12.2812 119.806 12.075C119.409 11.91 119.012 11.7863 118.575 11.7038C118.137 11.6213 117.7 11.5801 117.224 11.5388C116.747 11.4976 116.31 11.4976 115.873 11.4976ZM113.369 17.5195C113.369 17.1896 113.369 16.9008 113.369 16.6534C113.369 16.4059 113.409 16.1584 113.488 15.9109C113.528 15.7047 113.647 15.4572 113.767 15.251C113.925 15.0035 114.124 14.7973 114.323 14.6735C114.522 14.5498 114.76 14.4673 114.998 14.4261C115.237 14.3848 115.515 14.3848 115.833 14.3848C116.151 14.3848 116.429 14.3848 116.667 14.4261C116.906 14.4673 117.144 14.5498 117.343 14.6735C117.541 14.7973 117.74 15.0035 117.899 15.251C118.058 15.4572 118.137 15.6635 118.217 15.9109C118.257 16.1172 118.296 16.3646 118.336 16.6121C118.336 16.8596 118.336 17.1483 118.336 17.5195C118.336 17.8495 118.336 18.1382 118.336 18.3857C118.336 18.6332 118.296 18.8807 118.217 19.1282C118.137 19.3756 118.058 19.5819 117.899 19.7881C117.74 20.0356 117.541 20.2418 117.343 20.3656C117.144 20.4893 116.906 20.5718 116.667 20.613C116.429 20.6543 116.151 20.6543 115.833 20.6543C115.515 20.6543 115.237 20.6543 114.998 20.613C114.76 20.5718 114.522 20.4893 114.323 20.3656C114.124 20.2418 113.925 20.0356 113.767 19.7881C113.647 19.5819 113.568 19.3756 113.488 19.1694C113.449 18.9219 113.369 18.6744 113.369 18.427C113.409 18.1382 113.369 17.8495 113.369 17.5195Z" fill="#CDCDCD"/>
<path fill-rule="evenodd" clip-rule="evenodd" d="M134.232 14.4673C134.352 14.4673 134.431 14.4673 134.55 14.4673C134.63 14.4673 134.749 14.5498 134.828 14.6323C134.908 14.7148 134.948 14.7973 134.987 14.921C134.987 15.0448 135.027 15.1273 134.987 15.251V23.459H138.683V13.3124C138.683 13.1062 138.643 12.8999 138.603 12.6937C138.524 12.4875 138.405 12.2812 138.246 12.1163C138.087 11.9513 137.928 11.8275 137.769 11.7863C137.61 11.7038 137.411 11.6625 137.212 11.6625C137.014 11.6625 136.815 11.6213 136.577 11.6213H129.464C129.265 11.6213 129.106 11.6213 128.908 11.6213C128.709 11.6213 128.51 11.6625 128.312 11.745C128.113 11.8275 127.914 11.9513 127.755 12.1163C127.597 12.3225 127.477 12.4875 127.398 12.6937C127.318 12.8999 127.318 13.1062 127.318 13.3124V23.4178H131.014V15.251C131.014 15.1273 131.014 15.0448 131.014 14.921C131.014 14.7973 131.093 14.7148 131.173 14.6323C131.252 14.5498 131.371 14.5086 131.451 14.4673C131.53 14.4673 131.65 14.4673 131.729 14.4673H134.232ZM150.365 23.459V20.5718H144.802C144.683 20.5718 144.564 20.5718 144.444 20.5718C144.325 20.5718 144.206 20.5305 144.126 20.448C144.087 20.4068 144.047 20.3656 144.007 20.2831C143.968 20.2006 143.968 20.1181 143.968 19.9943V18.7157H150.166V16.1584H143.968V15.251C143.968 15.2097 143.968 15.1273 143.968 15.086C143.968 15.0035 144.007 14.9623 144.007 14.8798C144.047 14.7973 144.087 14.756 144.126 14.7148C144.206 14.6735 144.285 14.6323 144.365 14.591C144.484 14.5498 144.564 14.5498 144.683 14.5498H150.325V11.6625H142.14C142.02 11.6625 141.862 11.6625 141.703 11.7038C141.544 11.745 141.385 11.7863 141.226 11.8275C141.067 11.91 140.908 11.9925 140.789 12.1163C140.669 12.24 140.55 12.405 140.471 12.5287C140.391 12.6937 140.352 12.8174 140.312 12.9824C140.272 13.1474 140.272 13.3124 140.272 13.4361V21.5617C140.272 21.7679 140.272 21.9329 140.272 22.0979C140.272 22.2629 140.352 22.4279 140.391 22.5929C140.471 22.7579 140.59 22.9228 140.749 23.0466C140.908 23.1703 141.027 23.2528 141.186 23.3353C141.345 23.3766 141.504 23.4178 141.663 23.459C141.822 23.459 141.981 23.5003 142.14 23.5003H150.365V23.459ZM155.173 23.459V20.0356H159.981C160.18 20.0356 160.418 20.0356 160.656 19.9531C160.895 19.9118 161.133 19.8294 161.372 19.7469C161.61 19.6644 161.809 19.5406 162.007 19.3756C162.206 19.2107 162.365 19.0044 162.484 18.7569C162.603 18.5095 162.723 18.2207 162.802 17.9733C162.882 17.6845 162.921 17.3958 162.961 17.1071C163.001 16.8184 163.041 16.5709 163.041 16.3234C163.041 16.0759 163.041 15.8697 163.041 15.7047C163.041 15.1273 163.001 14.6323 162.921 14.2611C162.842 13.8486 162.762 13.5186 162.643 13.2299C162.524 12.9412 162.365 12.6937 162.166 12.5287C161.968 12.2812 161.729 12.1163 161.451 11.9925C161.213 11.8688 160.935 11.7863 160.656 11.745C160.378 11.7038 160.06 11.7038 159.782 11.7038H153.464C153.186 11.7038 152.987 11.745 152.789 11.7863C152.59 11.8688 152.431 11.91 152.272 12.0338C152.153 12.1163 152.034 12.24 151.954 12.3225C151.835 12.4875 151.716 12.6525 151.676 12.8174C151.597 13.0237 151.557 13.1887 151.557 13.3949C151.517 13.6011 151.517 13.7661 151.517 13.9311V23.5415H155.173V23.459ZM155.173 17.1071V15.251C155.173 15.1685 155.173 15.0448 155.213 14.9623C155.252 14.8385 155.292 14.756 155.372 14.6735C155.451 14.591 155.61 14.5498 155.809 14.5498H157.835C157.994 14.5498 158.113 14.5498 158.272 14.5498C158.391 14.5498 158.55 14.591 158.67 14.6323C158.789 14.6735 158.908 14.7148 159.027 14.8385C159.107 14.921 159.186 15.0035 159.226 15.1273C159.266 15.251 159.305 15.3335 159.305 15.4572C159.305 15.581 159.345 15.6635 159.305 15.7872C159.305 16.0347 159.266 16.2409 159.226 16.4059C159.186 16.5709 159.107 16.6946 159.027 16.8184C158.908 16.9421 158.789 17.0246 158.67 17.0658C158.55 17.1071 158.391 17.1483 158.233 17.1483C158.074 17.1483 157.915 17.1483 157.795 17.1483H155.173V17.1071ZM174.405 23.459V20.5718H168.842C168.723 20.5718 168.604 20.5718 168.484 20.5718C168.365 20.5718 168.246 20.5305 168.166 20.448C168.127 20.4068 168.087 20.3656 168.047 20.2831C168.007 20.2006 168.007 20.1181 168.007 19.9943V18.7157H174.206V16.1584H168.007V15.251C168.007 15.2097 168.007 15.1273 168.007 15.086C168.007 15.0035 168.047 14.9623 168.047 14.8798C168.087 14.7973 168.127 14.756 168.166 14.7148C168.246 14.6735 168.325 14.6323 168.405 14.591C168.524 14.5498 168.604 14.5498 168.723 14.5498H174.365V11.6625H166.18C166.06 11.6625 165.901 11.6625 165.743 11.7038C165.584 11.745 165.425 11.7863 165.266 11.8275C165.107 11.91 164.948 11.9925 164.829 12.1163C164.709 12.24 164.59 12.405 164.511 12.5287C164.431 12.6937 164.392 12.8174 164.352 12.9824C164.312 13.1474 164.312 13.3124 164.312 13.4361V21.5617C164.312 21.7679 164.312 21.9329 164.312 22.0979C164.312 22.2629 164.392 22.4279 164.431 22.5929C164.511 22.7579 164.63 22.9228 164.789 23.0466C164.948 23.1703 165.067 23.2528 165.226 23.3353C165.385 23.3766 165.544 23.4178 165.703 23.459C165.862 23.459 166.021 23.5003 166.18 23.5003H174.405V23.459ZM185.69 23.459V20.5718H180.127C180.008 20.5718 179.888 20.5718 179.769 20.5718C179.65 20.5718 179.531 20.5305 179.451 20.448C179.412 20.4068 179.372 20.3656 179.332 20.2831C179.292 20.2006 179.292 20.1181 179.292 19.9943V18.7157H185.491V16.1584H179.292V15.251C179.292 15.2097 179.292 15.1273 179.292 15.086C179.292 15.0035 179.332 14.9623 179.332 14.8798C179.372 14.7973 179.412 14.756 179.451 14.7148C179.531 14.6735 179.61 14.6323 179.69 14.591C179.809 14.5498 179.888 14.5498 180.008 14.5498H185.65V11.6625H177.465C177.345 11.6625 177.186 11.6625 177.027 11.7038C176.868 11.745 176.71 11.7863 176.551 11.8275C176.392 11.91 176.233 11.9925 176.114 12.1163C175.994 12.24 175.875 12.405 175.796 12.5287C175.716 12.6937 175.676 12.8174 175.637 12.9824C175.597 13.1474 175.597 13.3124 175.597 13.4361V21.5617C175.597 21.7679 175.597 21.9329 175.597 22.0979C175.597 22.2629 175.676 22.4279 175.716 22.5929C175.796 22.7579 175.915 22.9228 176.074 23.0466C176.233 23.1703 176.352 23.2528 176.511 23.3353C176.67 23.3766 176.829 23.4178 176.988 23.459C177.147 23.459 177.306 23.5003 177.465 23.5003H185.69V23.459ZM186.643 23.459H192.961C193.16 23.459 193.398 23.459 193.677 23.459C193.955 23.459 194.233 23.459 194.511 23.4178C194.789 23.3766 195.067 23.3353 195.345 23.2528C195.624 23.1703 195.862 23.0466 196.061 22.9228C196.299 22.7579 196.458 22.5516 196.577 22.3454C196.696 22.1392 196.816 21.8917 196.855 21.6442C196.935 21.3967 196.975 21.1492 196.975 20.9018C196.975 20.6543 197.014 20.448 197.014 20.2006C197.014 19.9943 197.014 19.7469 197.014 19.5406C197.014 19.3344 196.975 19.0869 196.935 18.8807C196.895 18.6744 196.816 18.4682 196.696 18.262C196.538 18.0145 196.379 17.8083 196.18 17.6845C195.981 17.5608 195.783 17.4783 195.584 17.4371C195.385 17.3958 195.226 17.3958 195.067 17.3958V17.3133C195.266 17.2721 195.425 17.2308 195.544 17.1483C195.663 17.0658 195.783 17.0246 195.902 16.9421C195.981 16.8596 196.061 16.8184 196.1 16.7771C196.299 16.5709 196.418 16.3646 196.538 16.1584C196.617 15.9522 196.696 15.7047 196.696 15.4572C196.736 15.2097 196.736 15.0035 196.736 14.756C196.736 14.4673 196.736 14.1786 196.696 13.8899C196.657 13.6011 196.617 13.3124 196.498 13.0649C196.418 12.7762 196.259 12.5287 196.061 12.3225C195.862 12.1163 195.663 11.9513 195.385 11.8275C195.147 11.7038 194.908 11.6213 194.63 11.5801C194.352 11.5388 194.074 11.4976 193.836 11.4976C193.557 11.4976 193.279 11.4976 193.041 11.4976H186.723V14.4261H191.769C192.008 14.4261 192.167 14.4261 192.326 14.4261C192.445 14.4261 192.564 14.4261 192.643 14.4673C192.723 14.4673 192.763 14.5086 192.802 14.5086C192.922 14.591 193.041 14.6735 193.041 14.7973C193.081 14.921 193.081 15.0448 193.081 15.1685C193.081 15.2922 193.081 15.3747 193.041 15.4985C193.001 15.6222 192.961 15.7459 192.842 15.8284C192.763 15.9109 192.643 15.9522 192.524 15.9934C192.405 16.0347 192.246 16.0347 192.087 16.0347C191.928 16.0347 191.809 16.0347 191.65 16.0347H186.802V18.592H191.73C191.968 18.592 192.127 18.592 192.286 18.592C192.445 18.592 192.564 18.6332 192.643 18.6332C192.723 18.6332 192.842 18.6745 192.882 18.7157C192.961 18.7982 193.041 18.8807 193.081 18.9632C193.12 19.0457 193.16 19.1282 193.16 19.2107C193.16 19.2931 193.16 19.3756 193.16 19.4169C193.16 19.5406 193.16 19.7056 193.081 19.8294C193.041 19.9531 192.961 20.0768 192.802 20.1593C192.763 20.2006 192.683 20.2006 192.564 20.2418C192.485 20.2831 192.365 20.2831 192.206 20.2831C192.047 20.2831 191.849 20.2831 191.61 20.2831H186.484V23.459H186.643ZM198.485 20.5305H197.372V23.459H211.001V20.5305H209.849L206.789 12.8587C206.75 12.6937 206.67 12.57 206.551 12.405C206.432 12.24 206.312 12.1163 206.114 11.9925C205.915 11.8688 205.677 11.745 205.359 11.6625C205.041 11.5801 204.644 11.5388 204.167 11.5388C203.69 11.5388 203.293 11.5801 202.975 11.6625C202.657 11.745 202.418 11.8688 202.22 11.9925C202.021 12.1163 201.902 12.2812 201.783 12.405C201.663 12.57 201.584 12.735 201.544 12.8587L198.485 20.5305ZM204.008 15.3747C204.008 15.3335 204.048 15.2922 204.048 15.251C204.048 15.2097 204.087 15.1685 204.087 15.1273C204.127 15.086 204.127 15.086 204.167 15.086C204.206 15.086 204.206 15.086 204.246 15.1273C204.286 15.1685 204.286 15.2097 204.326 15.251C204.326 15.2922 204.365 15.3335 204.365 15.3747L206.193 20.5305H202.18L204.008 15.3747Z" fill="white"/>
<path fill-rule="evenodd" clip-rule="evenodd" d="M49.6659 33.5657V29.8123C49.6659 29.7711 49.6659 29.6886 49.6659 29.6473C49.6659 29.6061 49.7057 29.5648 49.7454 29.5236C49.7851 29.4823 49.7851 29.4823 49.8249 29.4411C49.8646 29.4411 49.9043 29.3998 49.9441 29.3998H52.6064V28.5337H49.2686C49.1891 28.5337 49.1494 28.5337 49.0699 28.5337C48.9904 28.5337 48.9507 28.5749 48.8712 28.6162C48.7918 28.6574 48.752 28.6987 48.7123 28.7811C48.6725 28.8636 48.6328 28.9461 48.6328 29.0286C48.6328 29.1111 48.6328 29.2349 48.6328 29.3173V33.5245H49.6659V33.5657ZM53.8779 33.5657H55.2289C55.3481 33.5657 55.507 33.5657 55.6262 33.5657C55.7852 33.5657 55.9441 33.5245 56.0633 33.4832C56.2223 33.442 56.3812 33.3595 56.5004 33.277C56.6594 33.1945 56.7786 33.0295 56.8978 32.8645C57.017 32.6996 57.0965 32.4933 57.1362 32.2871C57.1759 32.0809 57.2157 31.8746 57.2554 31.6271C57.2554 31.4209 57.2951 31.1734 57.2951 30.9672C57.2951 30.8435 57.2951 30.6785 57.2951 30.5135C57.2951 30.3485 57.2554 30.1835 57.2554 30.0185C57.2157 29.8536 57.1759 29.6886 57.0965 29.5236C57.017 29.3586 56.9375 29.2349 56.8183 29.0699C56.6991 28.9461 56.5799 28.8636 56.4607 28.7811C56.3415 28.6987 56.1825 28.6574 56.0633 28.6162C55.9441 28.5749 55.8249 28.5749 55.7057 28.5337C55.5865 28.5337 55.507 28.5337 55.4276 28.5337H53.7587C53.6792 28.5337 53.56 28.5337 53.4408 28.5749C53.3216 28.6162 53.2421 28.6574 53.1229 28.6987C53.0832 28.7399 53.0434 28.7811 53.0037 28.8224C52.964 28.8636 52.9242 28.9461 52.8845 29.0286C52.8448 29.1111 52.8448 29.1936 52.8448 29.3173V35.1743H53.9176V33.5657H53.8779ZM53.8779 32.6996V29.6061C53.8779 29.5648 53.8779 29.5648 53.8779 29.5236C53.8779 29.4823 53.9176 29.4823 53.9176 29.4411C53.9176 29.4411 53.9574 29.3998 53.9971 29.3998C54.0368 29.3998 54.0368 29.3586 54.0766 29.3586H55.1097C55.2686 29.3586 55.4276 29.3998 55.5468 29.4411C55.666 29.4823 55.7852 29.5648 55.8647 29.6473C55.9441 29.7298 56.0236 29.8123 56.0633 29.936C56.0633 29.9773 56.1031 30.0598 56.1031 30.1423C56.1031 30.2248 56.1428 30.3485 56.1428 30.4723C56.1428 30.596 56.1825 30.8022 56.1825 31.0085C56.1825 31.2559 56.1825 31.4622 56.1428 31.6271C56.1031 31.7921 56.1031 31.9159 56.0633 31.9984C56.0236 32.0809 55.9839 32.1634 55.9839 32.2046C55.9441 32.2871 55.9044 32.3283 55.8249 32.4108C55.7455 32.4933 55.666 32.5346 55.5468 32.5758C55.4276 32.6171 55.2686 32.6583 55.1097 32.6583H53.8779V32.6996ZM62.8184 28.5337H61.7455L60.1164 32.3283L58.5667 28.5337H57.4541L59.5998 33.5245L58.8448 35.1331H59.9177L62.8184 28.5337ZM63.0965 33.5657H65.9575C66.0767 33.5657 66.1561 33.5657 66.2753 33.5657C66.3946 33.5657 66.5138 33.5245 66.5932 33.4832C66.7124 33.442 66.7919 33.3595 66.9111 33.277C66.9906 33.2358 67.0303 33.1533 67.0701 33.0295C67.1098 32.947 67.1893 32.8233 67.229 32.6583C67.2687 32.5346 67.2687 32.3283 67.2687 32.1634C67.2687 31.9159 67.229 31.7509 67.1893 31.5859C67.1495 31.4622 67.0701 31.3384 67.0303 31.2559C66.9906 31.1734 66.9111 31.1322 66.8316 31.0497C66.7522 31.0085 66.633 30.9672 66.5138 30.926V30.8847C66.633 30.8847 66.7522 30.8435 66.8316 30.761C66.9111 30.7197 66.9906 30.6372 67.0701 30.5547C67.1098 30.4722 67.1893 30.3898 67.229 30.266C67.2687 30.1423 67.3085 29.936 67.3085 29.7298C67.3085 29.6473 67.3085 29.5236 67.2687 29.3998C67.2687 29.2761 67.229 29.1524 67.1893 29.0699C67.1495 28.9461 67.0701 28.8636 66.9906 28.7811C66.9111 28.6987 66.7919 28.6162 66.6727 28.5749C66.5535 28.5337 66.4343 28.4924 66.3151 28.4924C66.1959 28.4924 66.0767 28.4924 65.9575 28.4924H63.2157V29.3586H65.5601C65.5998 29.3586 65.6396 29.3586 65.6793 29.3586C65.7191 29.3586 65.7985 29.3586 65.8383 29.3998C65.878 29.3998 65.9575 29.4411 65.9972 29.4823C66.0369 29.5236 66.0767 29.5648 66.1164 29.6473C66.1561 29.7298 66.1561 29.8123 66.1561 29.936C66.1561 30.0598 66.1561 30.1423 66.1164 30.2248C66.0767 30.3073 66.0369 30.3485 65.9972 30.3898C65.9575 30.431 65.9177 30.4723 65.878 30.4723C65.8383 30.4723 65.7985 30.5135 65.719 30.5135C65.6793 30.5135 65.5998 30.5135 65.5601 30.5135H63.2157V31.3797H65.5204C65.5601 31.3797 65.5998 31.3797 65.6396 31.3797C65.6793 31.3797 65.7588 31.3797 65.7985 31.4209C65.8383 31.4209 65.9177 31.4622 65.9575 31.5034C66.0369 31.5447 66.0767 31.5859 66.0767 31.6684C66.1164 31.7096 66.1164 31.7921 66.1164 31.8334C66.1164 31.8746 66.1164 31.9571 66.1164 31.9984C66.1164 32.1634 66.1164 32.2458 66.0767 32.3283C66.0369 32.4108 65.9972 32.4933 65.9575 32.5346C65.878 32.6171 65.7985 32.6583 65.719 32.6583C65.6396 32.6583 65.5601 32.6996 65.4409 32.6996H63.017V33.5657H63.0965ZM70.3681 28.4924C70.2092 28.4924 70.0502 28.4924 69.8913 28.4924C69.7323 28.4924 69.5337 28.5337 69.3747 28.5337C69.2158 28.5749 69.0171 28.6162 68.8582 28.6987C68.6992 28.7811 68.5403 28.8636 68.4211 28.9874C68.3019 29.1111 68.1826 29.2761 68.1032 29.4411C68.0237 29.6061 67.9442 29.8123 67.9045 29.9773C67.8648 30.1835 67.825 30.3485 67.825 30.5135C67.825 30.6785 67.7853 30.8435 67.825 31.0085C67.825 31.1322 67.825 31.2972 67.825 31.4622C67.825 31.6272 67.8648 31.8334 67.9045 31.9984C67.9442 32.2046 68.0237 32.3696 68.1032 32.5346C68.1826 32.6996 68.3019 32.8645 68.4608 32.9883C68.58 33.112 68.7389 33.1945 68.8979 33.277C69.0568 33.3595 69.2158 33.4007 69.4144 33.442C69.5734 33.4832 69.7721 33.4832 69.931 33.5245C70.09 33.5245 70.2489 33.5245 70.4078 33.5245C70.5668 33.5245 70.686 33.5245 70.8847 33.5245C71.0436 33.5245 71.2423 33.4832 71.4012 33.442C71.5999 33.4007 71.7588 33.3595 71.9178 33.277C72.0767 33.1945 72.2357 33.112 72.3549 32.9883C72.4741 32.8645 72.5933 32.7408 72.6728 32.5346C72.7522 32.3696 72.8317 32.1221 72.9112 31.8746C72.9509 31.6272 72.9906 31.2972 72.9906 30.9672C72.9906 30.8435 72.9906 30.6785 72.9906 30.5135C72.9906 30.3485 72.9509 30.1423 72.9112 29.9773C72.8714 29.7711 72.792 29.6061 72.7125 29.4411C72.633 29.2761 72.5138 29.1111 72.3946 28.9874C72.2754 28.8636 72.1165 28.7811 71.9575 28.6987C71.7986 28.6162 71.6396 28.5749 71.441 28.5337C71.282 28.4924 71.0833 28.4924 70.9244 28.4924C70.686 28.4924 70.527 28.4924 70.3681 28.4924ZM68.9376 31.0497C68.9376 30.9672 68.9376 30.8847 68.9376 30.761C68.9376 30.6372 68.9376 30.5135 68.9774 30.3898C68.9774 30.266 69.0171 30.1423 69.0568 30.0185C69.0966 29.8948 69.1363 29.8123 69.2158 29.6886C69.335 29.5648 69.4542 29.4823 69.5734 29.4411C69.6926 29.3998 69.8515 29.3586 70.0105 29.3173C70.1694 29.3173 70.2886 29.2761 70.4078 29.2761C70.527 29.2761 70.686 29.2761 70.8052 29.3173C70.9244 29.3173 71.0833 29.3586 71.2025 29.4411C71.3217 29.4823 71.441 29.6061 71.5602 29.6886C71.6794 29.8123 71.7588 29.9773 71.7986 30.1423C71.8383 30.3073 71.878 30.4722 71.878 30.596C71.878 30.761 71.878 30.8847 71.878 31.0085C71.878 31.1734 71.878 31.2972 71.878 31.4622C71.878 31.6272 71.8383 31.7509 71.7986 31.9159C71.7588 32.0396 71.6794 32.2046 71.5602 32.3283C71.441 32.4521 71.3217 32.5346 71.2025 32.6171C71.0833 32.6583 70.9641 32.6996 70.8052 32.7408C70.686 32.7408 70.527 32.7821 70.4078 32.7821C70.2886 32.7821 70.1297 32.7821 70.0105 32.7408C69.8913 32.7408 69.7323 32.6996 69.6131 32.6171C69.4939 32.5758 69.3747 32.4521 69.2555 32.3283C69.176 32.2046 69.0966 32.0809 69.0568 31.9159C69.0171 31.7509 68.9774 31.6272 68.9774 31.4622C68.9376 31.3384 68.9376 31.2147 68.9376 31.0497ZM74.3814 28.5337C74.3019 28.5337 74.2224 28.5337 74.1827 28.5337C74.1032 28.5337 74.0238 28.5749 73.9443 28.6162C73.8648 28.6574 73.7853 28.6987 73.7456 28.7811C73.7059 28.8636 73.6661 28.9049 73.6264 28.9874C73.5867 29.0699 73.5867 29.1111 73.5867 29.1936C73.5867 29.2761 73.5867 29.3173 73.5867 29.3998V33.5657H74.6595V29.6886C74.6595 29.6473 74.6595 29.6061 74.6595 29.5648C74.6595 29.5236 74.6993 29.4823 74.6993 29.4411C74.6993 29.4411 74.739 29.3998 74.7787 29.3998C74.8185 29.3998 74.8582 29.3998 74.8979 29.3998H76.686C76.7258 29.3998 76.7655 29.3998 76.7655 29.3998C76.8052 29.3998 76.845 29.4411 76.845 29.4411C76.8847 29.4823 76.8847 29.5236 76.8847 29.5648C76.8847 29.6061 76.8847 29.6473 76.8847 29.6886V33.5657H77.9576V29.3586C77.9576 29.2761 77.9576 29.2349 77.9576 29.1524C77.9576 29.0699 77.9178 29.0286 77.9178 28.9461C77.8781 28.9049 77.8781 28.8224 77.7986 28.7811C77.7192 28.6987 77.6794 28.6574 77.6 28.6162C77.5205 28.5749 77.441 28.5749 77.3615 28.5337C77.2821 28.5337 77.2026 28.5337 77.1231 28.5337H74.3814ZM83.1232 33.5657V32.6996H80.7788C80.6993 32.6996 80.5801 32.6996 80.5006 32.6996C80.3814 32.6996 80.302 32.6583 80.2225 32.6171C80.143 32.5758 80.0635 32.5346 79.9841 32.4521C79.9046 32.3696 79.8649 32.2458 79.8251 32.1221C79.8251 32.0809 79.7854 31.9984 79.7854 31.9159C79.7854 31.8334 79.7854 31.7509 79.7457 31.6684C79.7457 31.5859 79.7457 31.5034 79.7457 31.4209H82.5669C82.6464 31.4209 82.7656 31.4209 82.845 31.3797C82.9245 31.3384 83.004 31.2972 83.0834 31.2147C83.1629 31.1322 83.2026 31.0497 83.2424 30.9672C83.2821 30.8847 83.2821 30.8022 83.3219 30.7197C83.3219 30.6372 83.3219 30.5547 83.3219 30.4723C83.3219 30.266 83.3219 30.0598 83.2821 29.8536C83.2424 29.6473 83.1629 29.4823 83.0834 29.2761C83.004 29.1111 82.845 28.9461 82.6464 28.8224C82.4874 28.7399 82.3285 28.6574 82.1695 28.6162C82.0106 28.5749 81.8119 28.5337 81.6132 28.5337C81.4146 28.5337 81.2556 28.4924 81.0569 28.5337C80.9377 28.5337 80.8185 28.5337 80.6596 28.5337C80.5006 28.5337 80.3417 28.5749 80.1828 28.5749C80.0238 28.6162 79.8649 28.6574 79.7059 28.6987C79.547 28.7811 79.388 28.8636 79.2688 28.9874C79.1496 29.1111 79.0304 29.2349 78.951 29.3998C78.8715 29.5648 78.8317 29.6886 78.792 29.8948C78.7523 30.0598 78.7125 30.266 78.7125 30.4723C78.7125 30.6785 78.7125 30.8847 78.7125 31.1322C78.7125 31.3384 78.7125 31.5859 78.7125 31.7921C78.7125 31.9984 78.7523 32.2046 78.792 32.4108C78.8317 32.6171 78.9112 32.7821 79.0304 32.947C79.1496 33.112 79.2291 33.1945 79.3483 33.277C79.4675 33.3595 79.5867 33.442 79.7059 33.4832C79.8251 33.5245 79.9841 33.5657 80.1033 33.5657C80.2225 33.5657 80.3814 33.5657 80.5006 33.5657H83.1232ZM79.7059 30.5547C79.7059 30.431 79.7059 30.3485 79.7059 30.2248C79.7059 30.1423 79.7457 30.0185 79.7457 29.936C79.7854 29.8536 79.8251 29.7711 79.9046 29.6886C79.9841 29.5648 80.1033 29.4823 80.2225 29.4411C80.3417 29.3998 80.4609 29.3586 80.5801 29.3586C80.6993 29.3586 80.8185 29.3586 80.898 29.3586C81.0172 29.3586 81.0967 29.3586 81.2159 29.3586C81.3351 29.3586 81.4146 29.3998 81.5338 29.4411C81.653 29.4823 81.7324 29.5236 81.8119 29.6061C81.8516 29.6473 81.9311 29.6886 81.9708 29.7711C82.0106 29.8536 82.0503 29.8948 82.0901 30.0185C82.1298 30.101 82.1298 30.1835 82.1298 30.3073C82.1298 30.3485 82.1298 30.3898 82.1298 30.431C82.1298 30.4723 82.0901 30.5135 82.0503 30.5547C82.0106 30.596 81.9709 30.596 81.8914 30.596H79.7059V30.5547ZM84.951 33.5657H86.302C86.4212 33.5657 86.5802 33.5657 86.6994 33.5657C86.8583 33.5657 87.0173 33.5245 87.1365 33.4832C87.2954 33.442 87.4543 33.3595 87.5735 33.277C87.7325 33.1945 87.8517 33.0295 87.9709 32.8645C88.0901 32.6996 88.1696 32.4933 88.2093 32.2871C88.249 32.0809 88.2888 31.8746 88.3285 31.6271C88.3285 31.4209 88.3683 31.1734 88.3683 30.9672C88.3683 30.8435 88.3683 30.6785 88.3683 30.5135C88.3683 30.3485 88.3285 30.1835 88.3285 30.0185C88.2888 29.8536 88.249 29.6886 88.1696 29.5236C88.0901 29.3586 88.0106 29.2349 87.8914 29.0699C87.7722 28.9461 87.653 28.8636 87.5338 28.7811C87.4146 28.6987 87.2557 28.6574 87.1365 28.6162C87.0173 28.5749 86.898 28.5749 86.7788 28.5337C86.6596 28.5337 86.5802 28.5337 86.5007 28.5337H84.8318C84.7523 28.5337 84.6331 28.5337 84.5139 28.5749C84.3947 28.6162 84.3152 28.6574 84.196 28.6987C84.1563 28.7399 84.1166 28.7811 84.0768 28.8224C84.0371 28.8636 83.9974 28.9461 83.9576 29.0286C83.9179 29.1111 83.9179 29.1936 83.9179 29.3173V35.1743H84.9907V33.5657H84.951ZM84.951 32.6996V29.6061C84.951 29.5648 84.951 29.5648 84.951 29.5236C84.951 29.4823 84.9907 29.4823 84.9907 29.4411C84.9907 29.4411 85.0305 29.3998 85.0702 29.3998C85.11 29.3998 85.11 29.3586 85.1497 29.3586H86.1828C86.3417 29.3586 86.5007 29.3998 86.6199 29.4411C86.7391 29.4823 86.8583 29.5648 86.9378 29.6473C87.0173 29.7298 87.0967 29.8123 87.1365 29.936C87.1365 29.9773 87.1762 30.0598 87.1762 30.1423C87.1762 30.2248 87.2159 30.3485 87.2159 30.4723C87.2159 30.596 87.2557 30.8022 87.2557 31.0085C87.2557 31.2559 87.2557 31.4622 87.2159 31.6271C87.1762 31.7921 87.1762 31.9159 87.1365 31.9984C87.0967 32.0809 87.057 32.1634 87.057 32.2046C87.0173 32.2871 86.9775 32.3283 86.898 32.4108C86.8186 32.4933 86.7391 32.5346 86.6199 32.5758C86.5007 32.6171 86.3417 32.6583 86.1828 32.6583H84.951V32.6996ZM93.3352 33.5657V32.6996H90.9908C90.9113 32.6996 90.7921 32.6996 90.7126 32.6996C90.5934 32.6996 90.514 32.6583 90.4345 32.6171C90.355 32.5758 90.2756 32.5346 90.1961 32.4521C90.1166 32.3696 90.0769 32.2458 90.0371 32.1221C90.0371 32.0809 89.9974 31.9984 89.9974 31.9159C89.9974 31.8334 89.9974 31.7509 89.9577 31.6684C89.9577 31.5859 89.9577 31.5034 89.9577 31.4209H92.7789C92.8584 31.4209 92.9776 31.4209 93.057 31.3797C93.1365 31.3384 93.216 31.2972 93.2955 31.2147C93.3749 31.1322 93.4147 31.0497 93.4544 30.9672C93.4941 30.8847 93.4941 30.8022 93.5339 30.7197C93.5339 30.6372 93.5339 30.5547 93.5339 30.4723C93.5339 30.266 93.5339 30.0598 93.4941 29.8536C93.4544 29.6473 93.3749 29.4823 93.2955 29.2761C93.216 29.1111 93.057 28.9461 92.8584 28.8224C92.6994 28.7399 92.5405 28.6574 92.3815 28.6162C92.2226 28.5749 92.0239 28.5337 91.8252 28.5337C91.6266 28.5337 91.4676 28.4924 91.2689 28.5337C91.1497 28.5337 91.0305 28.5337 90.8716 28.5337C90.7126 28.5337 90.5537 28.5749 90.3948 28.5749C90.2358 28.6162 90.0769 28.6574 89.9179 28.6987C89.759 28.7811 89.6001 28.8636 89.4808 28.9874C89.3616 29.1111 89.2424 29.2349 89.163 29.3998C89.0835 29.5648 89.0438 29.6886 89.004 29.8948C88.9643 30.0598 88.9246 30.266 88.9246 30.4723C88.9246 30.6785 88.9246 30.8847 88.9246 31.1322C88.9246 31.3384 88.9246 31.5859 88.9246 31.7921C88.9246 31.9984 88.9643 32.2046 89.004 32.4108C89.0438 32.6171 89.1232 32.7821 89.2424 32.947C89.3616 33.112 89.4411 33.1945 89.5603 33.277C89.6795 33.3595 89.7987 33.442 89.9179 33.4832C90.0371 33.5245 90.1961 33.5657 90.3153 33.5657C90.4345 33.5657 90.5934 33.5657 90.7126 33.5657H93.3352ZM89.9577 30.5547C89.9577 30.431 89.9577 30.3485 89.9577 30.2248C89.9577 30.1423 89.9974 30.0185 89.9974 29.936C90.0371 29.8536 90.0769 29.7711 90.1563 29.6886C90.2358 29.5648 90.355 29.4823 90.4742 29.4411C90.5934 29.3998 90.7126 29.3586 90.8319 29.3586C90.9511 29.3586 91.0703 29.3586 91.1497 29.3586C91.2689 29.3586 91.3484 29.3586 91.4676 29.3586C91.5868 29.3586 91.6663 29.3998 91.7855 29.4411C91.9047 29.4823 91.9842 29.5236 92.0636 29.6061C92.1034 29.6473 92.1829 29.6886 92.2226 29.7711C92.2623 29.8536 92.3021 29.8948 92.3418 30.0185C92.3815 30.101 92.3815 30.1835 92.3815 30.3073C92.3815 30.3485 92.3815 30.3898 92.3815 30.431C92.3815 30.4723 92.3418 30.5135 92.3021 30.5547C92.2623 30.596 92.2226 30.596 92.1431 30.596H89.9577V30.5547ZM94.0902 32.8233C94.0902 32.8645 94.0902 32.947 94.0902 32.9883C94.0902 33.0708 94.1299 33.112 94.1299 33.1945C94.1696 33.277 94.2094 33.3183 94.2491 33.3595C94.2888 33.4008 94.3683 33.442 94.4478 33.4832C94.5272 33.5245 94.6067 33.5245 94.6862 33.5245C94.7657 33.5245 94.8451 33.5245 94.9246 33.5245H97.2293C97.3087 33.5245 97.4279 33.5245 97.5471 33.5245C97.6663 33.5245 97.7856 33.4832 97.9048 33.442C98.024 33.4007 98.1432 33.3183 98.2226 33.2358C98.3021 33.1533 98.3419 33.0708 98.4213 32.947C98.4611 32.8645 98.5008 32.7408 98.5008 32.6583C98.5008 32.5346 98.5405 32.4521 98.5405 32.3696C98.5405 32.2871 98.5405 32.2046 98.5405 32.1221C98.5405 32.0396 98.5405 31.9571 98.5405 31.8334C98.5405 31.7509 98.5008 31.6272 98.5008 31.5447C98.4611 31.4622 98.4213 31.3797 98.3419 31.2972C98.3021 31.2147 98.2226 31.1734 98.1034 31.0909C97.9842 31.0085 97.865 30.9672 97.7458 30.9672C97.865 30.9672 97.9842 30.926 98.0637 30.8847C98.1432 30.8435 98.2624 30.761 98.3021 30.6785C98.3816 30.596 98.4213 30.5135 98.4611 30.431C98.5008 30.3485 98.5008 30.2248 98.5405 30.1423C98.5405 30.0598 98.5405 29.936 98.5405 29.8536C98.5405 29.7711 98.5405 29.6886 98.5405 29.5648C98.5405 29.4411 98.5008 29.3586 98.4611 29.2349C98.4213 29.1111 98.3816 29.0286 98.3021 28.9049C98.1829 28.7811 98.1034 28.6987 97.9445 28.6574C97.8253 28.6162 97.7061 28.5749 97.5471 28.5749C97.4279 28.5749 97.3087 28.5749 97.1895 28.5749H94.9643C94.8849 28.5749 94.8054 28.5749 94.7657 28.5749C94.6862 28.5749 94.6067 28.6162 94.5272 28.6162C94.4478 28.6574 94.3683 28.6986 94.3286 28.7399C94.2491 28.7811 94.2094 28.8636 94.1696 28.9461C94.1299 29.0286 94.1299 29.0699 94.0902 29.1524C94.0902 29.2349 94.0902 29.2761 94.0902 29.3586V32.8233ZM95.163 30.5547V29.6473C95.163 29.6061 95.163 29.6061 95.163 29.5648C95.163 29.5236 95.2028 29.4823 95.2028 29.4823C95.2425 29.4411 95.2822 29.4411 95.322 29.4411C95.3617 29.4411 95.4014 29.4411 95.4412 29.4411H96.8319C96.9114 29.4411 96.9908 29.4411 97.0703 29.4411C97.1498 29.4411 97.2293 29.4823 97.269 29.5648C97.3485 29.6473 97.3882 29.6886 97.3882 29.7711C97.3882 29.8536 97.4279 29.936 97.4279 30.0185C97.4279 30.101 97.4279 30.1423 97.3882 30.2248C97.3882 30.3073 97.3485 30.3485 97.269 30.431C97.1895 30.5135 97.1101 30.5547 97.0306 30.5547C96.9511 30.5547 96.8716 30.596 96.7922 30.596H95.163V30.5547ZM95.163 31.3797H96.8319C96.8716 31.3797 96.9114 31.3797 96.9908 31.3797C97.0306 31.3797 97.1101 31.4209 97.1498 31.4209C97.1895 31.4622 97.269 31.4622 97.3087 31.5447C97.3485 31.6272 97.3882 31.7096 97.4279 31.7921C97.4279 31.8746 97.4677 31.9571 97.4279 32.0396C97.4279 32.0809 97.4279 32.1634 97.4279 32.2046C97.4279 32.2871 97.4279 32.3283 97.3882 32.4108C97.3485 32.4521 97.3485 32.5346 97.3087 32.5758C97.269 32.6171 97.2293 32.6583 97.1498 32.6583C97.1101 32.6996 97.0306 32.6996 96.9908 32.6996C96.9511 32.6996 96.8716 32.6996 96.8319 32.6996H95.4809C95.4412 32.6996 95.4014 32.6996 95.3617 32.6996C95.322 32.6996 95.2822 32.6583 95.2425 32.6171C95.2425 32.5758 95.2028 32.5346 95.2028 32.4933C95.2028 32.4521 95.2028 32.4108 95.2028 32.3696V31.3797H95.163ZM101.56 28.4924C101.401 28.4924 101.243 28.4924 101.084 28.4924C100.925 28.4924 100.726 28.5337 100.567 28.5337C100.408 28.5749 100.209 28.6162 100.05 28.6987C99.8915 28.7811 99.7326 28.8636 99.6134 28.9874C99.4942 29.1111 99.375 29.2761 99.2955 29.4411C99.216 29.6061 99.1366 29.8123 99.0968 29.9773C99.0571 30.1835 99.0174 30.3485 99.0174 30.5135C99.0174 30.6785 98.9776 30.8435 99.0174 31.0085C99.0174 31.1322 99.0174 31.2972 99.0174 31.4622C99.0174 31.6272 99.0571 31.8334 99.0968 31.9984C99.1366 32.2046 99.216 32.3696 99.2955 32.5346C99.375 32.6996 99.4942 32.8645 99.6531 32.9883C99.7723 33.112 99.9313 33.1945 100.09 33.277C100.249 33.3595 100.408 33.4007 100.607 33.442C100.766 33.4832 100.964 33.4832 101.123 33.5245C101.282 33.5245 101.441 33.5245 101.6 33.5245C101.759 33.5245 101.878 33.5245 102.077 33.5245C102.236 33.5245 102.435 33.4832 102.594 33.442C102.792 33.4007 102.951 33.3595 103.11 33.277C103.269 33.1945 103.428 33.112 103.547 32.9883C103.666 32.8645 103.786 32.7408 103.865 32.5346C103.945 32.3696 104.024 32.1221 104.103 31.8746C104.143 31.6272 104.183 31.2972 104.183 30.9672C104.183 30.8435 104.183 30.6785 104.183 30.5135C104.183 30.3485 104.143 30.1423 104.103 29.9773C104.064 29.7711 103.984 29.6061 103.905 29.4411C103.825 29.2761 103.706 29.1111 103.587 28.9874C103.468 28.8636 103.309 28.7811 103.15 28.6987C102.991 28.6162 102.832 28.5749 102.633 28.5337C102.474 28.4924 102.276 28.4924 102.117 28.4924C101.878 28.4924 101.719 28.4924 101.56 28.4924ZM100.09 31.0497C100.09 30.9672 100.09 30.8847 100.09 30.761C100.09 30.6372 100.09 30.5135 100.13 30.3898C100.13 30.266 100.17 30.1423 100.209 30.0185C100.249 29.8948 100.289 29.8123 100.368 29.6886C100.488 29.5648 100.607 29.4823 100.726 29.4411C100.845 29.3998 101.004 29.3586 101.163 29.3173C101.322 29.3173 101.441 29.2761 101.56 29.2761C101.68 29.2761 101.839 29.2761 101.958 29.3173C102.077 29.3173 102.236 29.3586 102.355 29.4411C102.474 29.4823 102.594 29.6061 102.713 29.6886C102.832 29.8123 102.911 29.9773 102.951 30.1423C102.991 30.3073 103.031 30.4722 103.031 30.596C103.031 30.761 103.031 30.8847 103.031 31.0085C103.031 31.1734 103.031 31.2972 103.031 31.4622C103.031 31.6272 102.991 31.7509 102.951 31.9159C102.911 32.0396 102.832 32.2046 102.713 32.3283C102.594 32.4521 102.474 32.5346 102.355 32.6171C102.236 32.6583 102.117 32.6996 101.958 32.7408C101.839 32.7408 101.68 32.7821 101.56 32.7821C101.441 32.7821 101.282 32.7821 101.163 32.7408C101.044 32.7408 100.885 32.6996 100.766 32.6171C100.647 32.5758 100.527 32.4521 100.408 32.3283C100.329 32.2046 100.249 32.0809 100.209 31.9159C100.17 31.7509 100.13 31.6272 100.13 31.4622C100.13 31.3384 100.09 31.2147 100.09 31.0497ZM104.739 33.5657H107.6C107.719 33.5657 107.799 33.5657 107.918 33.5657C108.037 33.5657 108.157 33.5245 108.236 33.4832C108.355 33.442 108.435 33.3595 108.554 33.277C108.633 33.2358 108.673 33.1533 108.713 33.0295C108.753 32.947 108.832 32.8233 108.872 32.6583C108.911 32.5346 108.911 32.3283 108.911 32.1634C108.911 31.9159 108.872 31.7509 108.832 31.5859C108.792 31.4622 108.713 31.3384 108.673 31.2559C108.633 31.1734 108.554 31.1322 108.474 31.0497C108.395 31.0085 108.276 30.9672 108.157 30.926V30.8847C108.276 30.8847 108.395 30.8435 108.474 30.761C108.554 30.7197 108.633 30.6372 108.713 30.5547C108.753 30.4722 108.832 30.3898 108.872 30.266C108.911 30.1423 108.951 29.936 108.951 29.7298C108.951 29.6473 108.951 29.5236 108.911 29.3998C108.911 29.2761 108.872 29.1524 108.832 29.0699C108.792 28.9461 108.713 28.8636 108.633 28.7811C108.554 28.6987 108.435 28.6162 108.315 28.5749C108.196 28.5337 108.077 28.4924 107.958 28.4924C107.839 28.4924 107.719 28.4924 107.6 28.4924H104.858V29.3586H107.203C107.243 29.3586 107.282 29.3586 107.322 29.3586C107.362 29.3586 107.441 29.3586 107.481 29.3998C107.521 29.3998 107.6 29.4411 107.64 29.4823C107.68 29.5236 107.719 29.5648 107.759 29.6473C107.799 29.7298 107.799 29.8123 107.799 29.936C107.799 30.0598 107.799 30.1423 107.759 30.2248C107.719 30.3073 107.68 30.3485 107.64 30.3898C107.6 30.431 107.56 30.4723 107.521 30.4723C107.481 30.4723 107.441 30.5135 107.362 30.5135C107.322 30.5135 107.243 30.5135 107.203 30.5135H104.898V31.3797H107.203C107.243 31.3797 107.282 31.3797 107.322 31.3797C107.362 31.3797 107.441 31.3797 107.481 31.4209C107.521 31.4209 107.6 31.4622 107.64 31.5034C107.719 31.5447 107.759 31.5859 107.759 31.6684C107.799 31.7096 107.799 31.7921 107.799 31.8334C107.799 31.8746 107.799 31.9571 107.799 31.9984C107.799 32.1634 107.799 32.2458 107.759 32.3283C107.719 32.4108 107.68 32.4933 107.64 32.5346C107.56 32.6171 107.481 32.6583 107.402 32.6583C107.322 32.6583 107.243 32.6996 107.123 32.6996H104.7V33.5657H104.739ZM110.66 33.5657V28.5337H109.587V33.5657H110.66ZM114.196 33.5657L112.13 31.3384C112.09 31.2972 112.09 31.2972 112.051 31.2559C112.011 31.2147 112.011 31.1734 111.971 31.1322C111.971 31.0909 111.931 31.0497 111.931 31.0085C111.931 30.9672 111.931 30.8847 111.971 30.8435C112.011 30.8022 112.011 30.761 112.051 30.7197C112.09 30.6785 112.13 30.6372 112.13 30.596L113.958 28.5749H112.686L111.137 30.3485C111.097 30.3898 111.057 30.4722 110.978 30.5135C110.938 30.596 110.898 30.6372 110.859 30.7197C110.819 30.8022 110.819 30.8847 110.819 30.9672C110.819 31.0497 110.819 31.1322 110.859 31.2147C110.898 31.2972 110.938 31.3384 110.978 31.4209C111.017 31.4622 111.057 31.5447 111.097 31.5859L112.845 33.5657H114.196ZM119.004 33.5657V29.2349C119.004 29.0699 118.965 28.9049 118.925 28.7811C118.885 28.6574 118.806 28.6162 118.726 28.5337C118.647 28.4924 118.567 28.4512 118.488 28.4512C118.408 28.4512 118.369 28.4512 118.329 28.4512C118.249 28.4512 118.17 28.4512 118.09 28.4924C118.011 28.4924 117.931 28.5337 117.852 28.5749C117.772 28.6162 117.693 28.6987 117.653 28.7811L115.508 32.0809C115.508 32.1221 115.468 32.1221 115.468 32.1634C115.468 32.2046 115.428 32.2046 115.388 32.2046C115.349 32.2046 115.349 32.2046 115.309 32.1634C115.309 32.1221 115.309 32.1221 115.309 32.0809L115.349 28.4924H114.276V32.8645C114.276 32.947 114.276 32.9883 114.316 33.0708C114.316 33.1533 114.355 33.2358 114.395 33.3183C114.435 33.4008 114.514 33.442 114.594 33.4832C114.673 33.5245 114.832 33.5657 114.951 33.5657C115.07 33.5657 115.19 33.5657 115.269 33.5245C115.349 33.4832 115.428 33.442 115.468 33.4007C115.547 33.3595 115.587 33.277 115.627 33.1945L117.733 29.9773C117.772 29.936 117.812 29.8948 117.812 29.8536L117.852 29.8123C117.892 29.8123 117.892 29.8123 117.892 29.8536C117.892 29.8948 117.892 29.8948 117.892 29.936L117.852 33.5245H119.004V33.5657ZM120.196 34.6381L121.388 32.7408L120.514 32.2046L119.402 34.1432L120.196 34.6381Z" fill="#CDCDCD"/>
<path fill-rule="evenodd" clip-rule="evenodd" d="M125.201 28.5337C125.121 28.5337 125.042 28.5337 125.002 28.5337C124.923 28.5337 124.843 28.5749 124.764 28.6162C124.684 28.6574 124.605 28.6987 124.565 28.7811C124.525 28.8636 124.486 28.9049 124.446 28.9874C124.406 29.0699 124.406 29.1111 124.406 29.1936C124.406 29.2761 124.406 29.3173 124.406 29.3998V33.5657H125.479V29.6886C125.479 29.6473 125.479 29.6061 125.479 29.5648C125.479 29.5236 125.519 29.4823 125.519 29.4411C125.519 29.4411 125.559 29.3998 125.598 29.3998C125.638 29.3998 125.678 29.3998 125.718 29.3998H127.506C127.545 29.3998 127.585 29.3998 127.585 29.3998C127.625 29.3998 127.665 29.4411 127.665 29.4411C127.704 29.4823 127.704 29.5236 127.704 29.5648C127.704 29.6061 127.704 29.6473 127.704 29.6886V33.5657H128.777V29.3586C128.777 29.2761 128.777 29.2349 128.777 29.1524C128.777 29.0699 128.737 29.0286 128.737 28.9461C128.698 28.9049 128.698 28.8224 128.618 28.7811C128.539 28.6987 128.499 28.6574 128.42 28.6162C128.34 28.5749 128.261 28.5749 128.181 28.5337C128.102 28.5337 128.022 28.5337 127.943 28.5337H125.201ZM133.943 33.5657V32.6996H131.598C131.519 32.6996 131.4 32.6996 131.32 32.6996C131.201 32.6996 131.122 32.6583 131.042 32.6171C130.963 32.5758 130.883 32.5346 130.804 32.4521C130.724 32.3696 130.684 32.2458 130.645 32.1221C130.645 32.0809 130.605 31.9984 130.605 31.9159C130.605 31.8334 130.605 31.7509 130.565 31.6684C130.565 31.5859 130.565 31.5034 130.565 31.4209H133.386C133.466 31.4209 133.585 31.4209 133.665 31.3797C133.744 31.3384 133.824 31.2972 133.903 31.2147C133.982 31.1322 134.022 31.0497 134.062 30.9672C134.102 30.8847 134.102 30.8022 134.141 30.7197C134.141 30.6372 134.141 30.5547 134.141 30.4723C134.141 30.266 134.141 30.0598 134.102 29.8536C134.062 29.6473 133.982 29.4823 133.903 29.2761C133.824 29.1111 133.665 28.9461 133.466 28.8224C133.307 28.7399 133.148 28.6574 132.989 28.6162C132.83 28.5749 132.631 28.5337 132.433 28.5337C132.234 28.5337 132.075 28.4924 131.877 28.5337C131.757 28.5337 131.638 28.5337 131.479 28.5337C131.32 28.5337 131.161 28.5749 131.002 28.5749C130.843 28.6162 130.684 28.6574 130.526 28.6987C130.367 28.7811 130.208 28.8636 130.088 28.9874C129.969 29.1111 129.85 29.2349 129.771 29.3998C129.691 29.5648 129.651 29.6886 129.612 29.8948C129.572 30.0598 129.532 30.266 129.532 30.4723C129.532 30.6785 129.532 30.8847 129.532 31.1322C129.532 31.3384 129.532 31.5859 129.532 31.7921C129.532 31.9984 129.572 32.2046 129.612 32.4108C129.651 32.6171 129.731 32.7821 129.85 32.947C129.969 33.112 130.049 33.1945 130.168 33.277C130.287 33.3595 130.406 33.442 130.526 33.4832C130.645 33.5245 130.804 33.5657 130.923 33.5657C131.042 33.5657 131.201 33.5657 131.32 33.5657H133.943ZM130.565 30.5547C130.565 30.431 130.565 30.3485 130.565 30.2248C130.565 30.1423 130.605 30.0185 130.605 29.936C130.645 29.8536 130.684 29.7711 130.764 29.6886C130.843 29.5648 130.963 29.4823 131.082 29.4411C131.201 29.3998 131.32 29.3586 131.439 29.3586C131.559 29.3586 131.678 29.3586 131.757 29.3586C131.877 29.3586 131.956 29.3586 132.075 29.3586C132.194 29.3586 132.274 29.3998 132.393 29.4411C132.512 29.4823 132.592 29.5236 132.671 29.6061C132.711 29.6473 132.79 29.6886 132.83 29.7711C132.87 29.8536 132.91 29.8948 132.949 30.0185C132.989 30.101 132.989 30.1835 132.989 30.3073C132.989 30.3485 132.989 30.3898 132.989 30.431C132.989 30.4723 132.949 30.5135 132.91 30.5547C132.87 30.596 132.83 30.596 132.751 30.596H130.565V30.5547ZM135.771 33.5657H137.122C137.241 33.5657 137.4 33.5657 137.519 33.5657C137.678 33.5657 137.837 33.5245 137.956 33.4832C138.115 33.442 138.274 33.3595 138.393 33.277C138.552 33.1945 138.671 33.0295 138.79 32.8645C138.91 32.6996 138.989 32.4933 139.029 32.2871C139.069 32.0809 139.108 31.8746 139.148 31.6271C139.148 31.4209 139.188 31.1734 139.188 30.9672C139.188 30.8435 139.188 30.6785 139.188 30.5135C139.188 30.3485 139.148 30.1835 139.148 30.0185C139.108 29.8536 139.069 29.6886 138.989 29.5236C138.91 29.3586 138.83 29.2349 138.711 29.0699C138.592 28.9461 138.473 28.8636 138.353 28.7811C138.234 28.6987 138.075 28.6574 137.956 28.6162C137.837 28.5749 137.718 28.5749 137.598 28.5337C137.479 28.5337 137.4 28.5337 137.32 28.5337H135.651C135.572 28.5337 135.453 28.5337 135.333 28.5749C135.214 28.6162 135.135 28.6574 135.016 28.6987C134.976 28.7399 134.936 28.7811 134.896 28.8224C134.857 28.8636 134.817 28.9461 134.777 29.0286C134.737 29.1111 134.737 29.1936 134.737 29.3173V35.1743H135.81V33.5657H135.771ZM135.771 32.6996V29.6061C135.771 29.5648 135.771 29.5648 135.771 29.5236C135.771 29.4823 135.81 29.4823 135.81 29.4411C135.81 29.4411 135.85 29.3998 135.89 29.3998C135.93 29.3998 135.93 29.3586 135.969 29.3586H137.002C137.161 29.3586 137.32 29.3998 137.439 29.4411C137.559 29.4823 137.678 29.5648 137.757 29.6473C137.837 29.7298 137.916 29.8123 137.956 29.936C137.956 29.9773 137.996 30.0598 137.996 30.1423C137.996 30.2248 138.036 30.3485 138.036 30.4723C138.036 30.596 138.075 30.8022 138.075 31.0085C138.075 31.2559 138.075 31.4622 138.036 31.6271C137.996 31.7921 137.996 31.9159 137.956 31.9984C137.916 32.0809 137.877 32.1634 137.877 32.2046C137.837 32.2871 137.797 32.3283 137.718 32.4108C137.638 32.4933 137.559 32.5346 137.439 32.5758C137.32 32.6171 137.161 32.6583 137.002 32.6583H135.771V32.6996ZM144.194 33.5657V32.6996H141.85C141.771 32.6996 141.651 32.6996 141.572 32.6996C141.453 32.6996 141.373 32.6583 141.294 32.6171C141.214 32.5758 141.135 32.5346 141.055 32.4521C140.976 32.3696 140.936 32.2458 140.896 32.1221C140.896 32.0809 140.857 31.9984 140.857 31.9159C140.857 31.8334 140.857 31.7509 140.817 31.6684C140.817 31.5859 140.817 31.5034 140.817 31.4209H143.638C143.718 31.4209 143.837 31.4209 143.916 31.3797C143.996 31.3384 144.075 31.2972 144.155 31.2147C144.234 31.1322 144.274 31.0497 144.314 30.9672C144.353 30.8847 144.353 30.8022 144.393 30.7197C144.393 30.6372 144.393 30.5547 144.393 30.4723C144.393 30.266 144.393 30.0598 144.353 29.8536C144.314 29.6473 144.234 29.4823 144.155 29.2761C144.075 29.1111 143.916 28.9461 143.718 28.8224C143.559 28.7399 143.4 28.6574 143.241 28.6162C143.082 28.5749 142.883 28.5337 142.685 28.5337C142.486 28.5337 142.327 28.4924 142.128 28.5337C142.009 28.5337 141.89 28.5337 141.731 28.5337C141.572 28.5337 141.413 28.5749 141.254 28.5749C141.095 28.6162 140.936 28.6574 140.777 28.6987C140.618 28.7811 140.459 28.8636 140.34 28.9874C140.221 29.1111 140.102 29.2349 140.022 29.3998C139.943 29.5648 139.903 29.6886 139.863 29.8948C139.824 30.0598 139.784 30.266 139.784 30.4723C139.784 30.6785 139.784 30.8847 139.784 31.1322C139.784 31.3384 139.784 31.5859 139.784 31.7921C139.784 31.9984 139.824 32.2046 139.863 32.4108C139.903 32.6171 139.983 32.7821 140.102 32.947C140.221 33.112 140.3 33.1945 140.42 33.277C140.539 33.3595 140.658 33.442 140.777 33.4832C140.896 33.5245 141.055 33.5657 141.175 33.5657C141.294 33.5657 141.453 33.5657 141.572 33.5657H144.194ZM140.777 30.5547C140.777 30.431 140.777 30.3485 140.777 30.2248C140.777 30.1423 140.817 30.0185 140.817 29.936C140.857 29.8536 140.896 29.7711 140.976 29.6886C141.055 29.5648 141.175 29.4823 141.294 29.4411C141.413 29.3998 141.532 29.3586 141.651 29.3586C141.771 29.3586 141.89 29.3586 141.969 29.3586C142.089 29.3586 142.168 29.3586 142.287 29.3586C142.406 29.3586 142.486 29.3998 142.605 29.4411C142.724 29.4823 142.804 29.5236 142.883 29.6061C142.923 29.6473 143.002 29.6886 143.042 29.7711C143.082 29.8536 143.122 29.8948 143.161 30.0185C143.201 30.101 143.201 30.1835 143.201 30.3073C143.201 30.3485 143.201 30.3898 143.201 30.431C143.201 30.4723 143.161 30.5135 143.122 30.5547C143.082 30.596 143.042 30.596 142.963 30.596H140.777V30.5547ZM149.32 33.5657V32.6996H146.976C146.897 32.6996 146.777 32.6996 146.698 32.6996C146.579 32.6996 146.499 32.6583 146.42 32.6171C146.34 32.5758 146.261 32.5346 146.181 32.4521C146.102 32.3696 146.062 32.2458 146.022 32.1221C146.022 32.0809 145.983 31.9984 145.983 31.9159C145.983 31.8334 145.983 31.7509 145.943 31.6684C145.943 31.5859 145.943 31.5034 145.943 31.4209H148.764C148.844 31.4209 148.963 31.4209 149.042 31.3797C149.122 31.3384 149.201 31.2972 149.281 31.2147C149.36 31.1322 149.4 31.0497 149.44 30.9672C149.479 30.8847 149.479 30.8022 149.519 30.7197C149.519 30.6372 149.519 30.5547 149.519 30.4723C149.519 30.266 149.519 30.0598 149.479 29.8536C149.44 29.6473 149.36 29.4823 149.281 29.2761C149.201 29.1111 149.042 28.9461 148.844 28.8224C148.685 28.7399 148.526 28.6574 148.367 28.6162C148.208 28.5749 148.009 28.5337 147.81 28.5337C147.612 28.5337 147.453 28.4924 147.254 28.5337C147.135 28.5337 147.016 28.5337 146.857 28.5337C146.698 28.5337 146.539 28.5749 146.38 28.5749C146.221 28.6162 146.062 28.6574 145.903 28.6987C145.744 28.7811 145.585 28.8636 145.466 28.9874C145.347 29.1111 145.228 29.2349 145.148 29.3998C145.069 29.5648 145.029 29.6886 144.989 29.8948C144.949 30.0598 144.91 30.266 144.91 30.4723C144.91 30.6785 144.91 30.8847 144.91 31.1322C144.91 31.3384 144.91 31.5859 144.91 31.7921C144.91 31.9984 144.949 32.2046 144.989 32.4108C145.029 32.6171 145.108 32.7821 145.228 32.947C145.347 33.112 145.426 33.1945 145.546 33.277C145.665 33.3595 145.784 33.442 145.903 33.4832C146.022 33.5245 146.181 33.5657 146.3 33.5657C146.42 33.5657 146.579 33.5657 146.698 33.5657H149.32ZM145.903 30.5547C145.903 30.431 145.903 30.3485 145.903 30.2248C145.903 30.1423 145.943 30.0185 145.943 29.936C145.983 29.8536 146.022 29.7711 146.102 29.6886C146.181 29.5648 146.3 29.4823 146.42 29.4411C146.539 29.3998 146.658 29.3586 146.777 29.3586C146.897 29.3586 147.016 29.3586 147.095 29.3586C147.214 29.3586 147.294 29.3586 147.413 29.3586C147.532 29.3586 147.612 29.3998 147.731 29.4411C147.85 29.4823 147.93 29.5236 148.009 29.6061C148.049 29.6473 148.128 29.6886 148.168 29.7711C148.208 29.8536 148.248 29.8948 148.287 30.0185C148.327 30.101 148.327 30.1835 148.327 30.3073C148.327 30.3485 148.327 30.3898 148.327 30.431C148.327 30.4723 148.287 30.5135 148.248 30.5547C148.208 30.596 148.168 30.596 148.089 30.596H145.903V30.5547ZM150.075 33.5657H152.936C153.056 33.5657 153.135 33.5657 153.254 33.5657C153.373 33.5657 153.493 33.5245 153.572 33.4832C153.691 33.442 153.771 33.3595 153.89 33.277C153.969 33.2358 154.009 33.1533 154.049 33.0295C154.089 32.947 154.168 32.8233 154.208 32.6583C154.248 32.5346 154.248 32.3283 154.248 32.1634C154.248 31.9159 154.208 31.7509 154.168 31.5859C154.128 31.4622 154.049 31.3384 154.009 31.2559C153.969 31.1734 153.89 31.1322 153.81 31.0497C153.731 31.0085 153.612 30.9672 153.493 30.926V30.8847C153.612 30.8847 153.731 30.8435 153.81 30.761C153.89 30.7197 153.969 30.6372 154.049 30.5547C154.089 30.4722 154.168 30.3898 154.208 30.266C154.248 30.1423 154.287 29.936 154.287 29.7298C154.287 29.6473 154.287 29.5236 154.248 29.3998C154.248 29.2761 154.208 29.1524 154.168 29.0699C154.128 28.9461 154.049 28.8636 153.969 28.7811C153.89 28.6987 153.771 28.6162 153.652 28.5749C153.532 28.5337 153.413 28.4924 153.294 28.4924C153.175 28.4924 153.056 28.4924 152.936 28.4924H150.195V29.3586H152.539C152.579 29.3586 152.618 29.3586 152.658 29.3586C152.698 29.3586 152.777 29.3586 152.817 29.3998C152.857 29.3998 152.936 29.4411 152.976 29.4823C153.016 29.5236 153.056 29.5648 153.095 29.6473C153.135 29.7298 153.135 29.8123 153.135 29.936C153.135 30.0598 153.135 30.1423 153.095 30.2248C153.056 30.3073 153.016 30.3485 152.976 30.3898C152.936 30.431 152.897 30.4723 152.857 30.4723C152.817 30.4723 152.777 30.5135 152.698 30.5135C152.658 30.5135 152.579 30.5135 152.539 30.5135H150.195V31.3797H152.499C152.539 31.3797 152.579 31.3797 152.618 31.3797C152.658 31.3797 152.738 31.3797 152.777 31.4209C152.817 31.4209 152.897 31.4622 152.936 31.5034C153.016 31.5447 153.056 31.5859 153.056 31.6684C153.095 31.7096 153.095 31.7921 153.095 31.8334C153.095 31.8746 153.095 31.9571 153.095 31.9984C153.095 32.1634 153.095 32.2458 153.056 32.3283C153.016 32.4108 152.976 32.4933 152.936 32.5346C152.857 32.6171 152.777 32.6583 152.698 32.6583C152.618 32.6583 152.539 32.6996 152.42 32.6996H149.996V33.5657H150.075ZM154.883 32.6996H154.446V33.5657H159.89V32.6996H159.453L157.943 28.9874C157.903 28.9049 157.863 28.8224 157.824 28.7399C157.784 28.6574 157.705 28.6162 157.585 28.5749C157.466 28.5337 157.347 28.4924 157.188 28.4924C157.029 28.4924 156.91 28.5337 156.791 28.5749C156.671 28.6162 156.592 28.6574 156.552 28.7399C156.473 28.8224 156.433 28.9049 156.393 28.9874L154.883 32.6996ZM157.069 29.6061C157.069 29.5648 157.109 29.5648 157.109 29.5236C157.109 29.4823 157.148 29.4823 157.148 29.4823C157.188 29.4823 157.188 29.4823 157.188 29.5236C157.188 29.5648 157.228 29.5648 157.228 29.6061L158.38 32.7408H155.877L157.069 29.6061ZM160.168 28.5337V32.7821C160.168 32.8645 160.168 32.9058 160.168 32.9883C160.168 33.0708 160.208 33.112 160.208 33.1945C160.248 33.277 160.287 33.3183 160.327 33.4007C160.367 33.442 160.446 33.4832 160.526 33.5245C160.605 33.5657 160.645 33.5657 160.724 33.5657C160.804 33.5657 160.844 33.5657 160.883 33.5657H163.347C163.466 33.5657 163.546 33.5657 163.665 33.5657C163.784 33.5657 163.864 33.5245 163.983 33.4832C164.102 33.442 164.181 33.4008 164.261 33.3183C164.34 33.2358 164.42 33.1533 164.46 33.0295C164.499 32.9058 164.539 32.8233 164.579 32.6996C164.619 32.5758 164.619 32.4521 164.619 32.3696C164.619 32.2458 164.619 32.1634 164.619 32.0809C164.619 31.9571 164.619 31.7921 164.619 31.6684C164.619 31.5034 164.579 31.3797 164.539 31.2559C164.499 31.1322 164.42 31.0085 164.34 30.8847C164.261 30.8022 164.142 30.7197 164.062 30.6372C163.943 30.596 163.864 30.5547 163.744 30.5135C163.625 30.5135 163.546 30.4723 163.426 30.4723H161.241V28.5749H160.168V28.5337ZM165.215 33.5657H166.287V28.5337H165.215V33.5657ZM161.241 31.2972H162.989C163.029 31.2972 163.069 31.2972 163.109 31.2972C163.148 31.2972 163.228 31.3384 163.268 31.3384C163.307 31.3797 163.387 31.3797 163.426 31.4622C163.466 31.5034 163.506 31.5859 163.506 31.6271C163.506 31.7096 163.546 31.7509 163.546 31.8334C163.546 31.9159 163.546 31.9571 163.546 31.9984C163.546 32.0396 163.546 32.1221 163.546 32.2046C163.546 32.2871 163.546 32.3283 163.506 32.4108C163.506 32.4933 163.466 32.5346 163.426 32.5758C163.387 32.6171 163.347 32.6583 163.268 32.6996C163.228 32.7408 163.148 32.7408 163.109 32.7408C163.069 32.7408 162.989 32.7408 162.95 32.7408H161.559C161.519 32.7408 161.479 32.7408 161.44 32.7408C161.4 32.7408 161.36 32.6996 161.32 32.6583C161.281 32.6171 161.281 32.5758 161.281 32.5346C161.281 32.4933 161.281 32.4521 161.281 32.4108V31.2972H161.241ZM167.44 34.6381L168.632 32.7408L167.758 32.2046L166.645 34.1432L167.44 34.6381ZM172.725 33.5657V29.8123C172.725 29.7711 172.725 29.6886 172.725 29.6473C172.725 29.6061 172.764 29.5648 172.804 29.5236C172.844 29.4823 172.844 29.4823 172.883 29.4411C172.923 29.4411 172.963 29.3998 173.003 29.3998H175.665V28.5337H172.287C172.208 28.5337 172.168 28.5337 172.089 28.5337C172.009 28.5337 171.97 28.5749 171.89 28.6162C171.811 28.6574 171.771 28.6987 171.731 28.7811C171.691 28.8636 171.652 28.9461 171.652 29.0286C171.652 29.1111 171.652 29.2349 171.652 29.3173V33.5245H172.725V33.5657ZM176.976 33.5657H178.327C178.446 33.5657 178.605 33.5657 178.725 33.5657C178.884 33.5657 179.042 33.5245 179.162 33.4832C179.321 33.442 179.48 33.3595 179.599 33.277C179.758 33.1945 179.877 33.0295 179.996 32.8645C180.115 32.6996 180.195 32.4933 180.235 32.2871C180.274 32.0809 180.314 31.8746 180.354 31.6271C180.354 31.4209 180.393 31.1734 180.393 30.9672C180.393 30.8435 180.393 30.6785 180.393 30.5135C180.393 30.3485 180.354 30.1835 180.354 30.0185C180.314 29.8536 180.274 29.6886 180.195 29.5236C180.115 29.3586 180.036 29.2349 179.917 29.0699C179.797 28.9461 179.678 28.8636 179.559 28.7811C179.44 28.6987 179.281 28.6574 179.162 28.6162C179.042 28.5749 178.923 28.5749 178.804 28.5337C178.685 28.5337 178.605 28.5337 178.526 28.5337H176.857C176.778 28.5337 176.658 28.5337 176.539 28.5749C176.42 28.6162 176.34 28.6574 176.221 28.6987C176.182 28.7399 176.142 28.7811 176.102 28.8224C176.062 28.8636 176.023 28.9461 175.983 29.0286C175.943 29.1111 175.943 29.1936 175.943 29.3173V35.1743H177.016V33.5657H176.976ZM176.976 32.6996V29.6061C176.976 29.5648 176.976 29.5648 176.976 29.5236C176.976 29.4823 177.016 29.4823 177.016 29.4411C177.016 29.4411 177.056 29.3998 177.095 29.3998C177.135 29.3998 177.135 29.3586 177.175 29.3586H178.208C178.367 29.3586 178.526 29.3998 178.645 29.4411C178.764 29.4823 178.884 29.5648 178.963 29.6473C179.042 29.7298 179.122 29.8123 179.162 29.936C179.162 29.9773 179.201 30.0598 179.201 30.1423C179.201 30.2248 179.241 30.3485 179.241 30.4723C179.241 30.596 179.281 30.8022 179.281 31.0085C179.281 31.2559 179.281 31.4622 179.241 31.6271C179.201 31.7921 179.201 31.9159 179.162 31.9984C179.122 32.0809 179.082 32.1634 179.082 32.2046C179.042 32.2871 179.003 32.3283 178.923 32.4108C178.844 32.4933 178.764 32.5346 178.645 32.5758C178.526 32.6171 178.367 32.6583 178.208 32.6583H176.976V32.6996ZM185.917 28.5337H184.844L183.215 32.3283L181.665 28.5337H180.552L182.698 33.5245L181.943 35.1331H183.016L185.917 28.5337ZM186.195 33.5657H189.056C189.175 33.5657 189.255 33.5657 189.374 33.5657C189.493 33.5657 189.612 33.5245 189.692 33.4832C189.811 33.442 189.89 33.3595 190.009 33.277C190.089 33.2358 190.129 33.1533 190.168 33.0295C190.208 32.947 190.288 32.8233 190.327 32.6583C190.367 32.5346 190.367 32.3283 190.367 32.1634C190.367 31.9159 190.327 31.7509 190.288 31.5859C190.248 31.4622 190.168 31.3384 190.129 31.2559C190.089 31.1734 190.009 31.1322 189.93 31.0497C189.851 31.0085 189.731 30.9672 189.612 30.926V30.8847C189.731 30.8847 189.851 30.8435 189.93 30.761C190.009 30.7197 190.089 30.6372 190.168 30.5547C190.208 30.4722 190.288 30.3898 190.327 30.266C190.367 30.1423 190.407 29.936 190.407 29.7298C190.407 29.6473 190.407 29.5236 190.367 29.3998C190.367 29.2761 190.327 29.1524 190.288 29.0699C190.248 28.9461 190.168 28.8636 190.089 28.7811C190.009 28.6987 189.89 28.6162 189.771 28.5749C189.652 28.5337 189.533 28.4924 189.413 28.4924C189.294 28.4924 189.175 28.4924 189.056 28.4924H186.314V29.3586H188.658C188.698 29.3586 188.738 29.3586 188.778 29.3586C188.817 29.3586 188.897 29.3586 188.937 29.3998C188.976 29.3998 189.056 29.4411 189.096 29.4823C189.135 29.5236 189.175 29.5648 189.215 29.6473C189.255 29.7298 189.254 29.8123 189.254 29.936C189.254 30.0598 189.255 30.1423 189.215 30.2248C189.175 30.3073 189.135 30.3485 189.096 30.3898C189.056 30.431 189.016 30.4723 188.976 30.4723C188.937 30.4723 188.897 30.5135 188.817 30.5135C188.778 30.5135 188.698 30.5135 188.658 30.5135H186.314V31.3797H188.619C188.658 31.3797 188.698 31.3797 188.738 31.3797C188.778 31.3797 188.857 31.3797 188.897 31.4209C188.937 31.4209 189.016 31.4622 189.056 31.5034C189.135 31.5447 189.175 31.5859 189.175 31.6684C189.215 31.7096 189.215 31.7921 189.215 31.8334C189.215 31.8746 189.215 31.9571 189.215 31.9984C189.215 32.1634 189.215 32.2458 189.175 32.3283C189.135 32.4108 189.096 32.4933 189.056 32.5346C188.976 32.6171 188.897 32.6583 188.817 32.6583C188.738 32.6583 188.658 32.6996 188.539 32.6996H186.115V33.5657H186.195ZM195.374 33.5657V28.5337H194.301V30.596H192.672C192.592 30.596 192.553 30.596 192.473 30.596C192.394 30.596 192.314 30.5547 192.274 30.5135C192.195 30.4722 192.155 30.431 192.115 30.3485C192.076 30.266 192.036 30.1835 192.036 30.0598C192.036 29.9773 192.036 29.8536 192.036 29.7711V28.4924H190.963V29.9773C190.963 30.0598 190.963 30.1835 190.963 30.3073C190.963 30.431 191.003 30.5547 191.043 30.6785C191.082 30.8022 191.122 30.8847 191.202 31.0085C191.281 31.1322 191.4 31.2147 191.519 31.2972C191.639 31.3384 191.758 31.3797 191.877 31.4209C191.996 31.4209 192.115 31.4622 192.195 31.4622H194.341V33.5657H195.374ZM200.818 33.5657V29.2349C200.818 29.0699 200.778 28.9049 200.738 28.7811C200.698 28.6574 200.619 28.6162 200.539 28.5337C200.46 28.4924 200.38 28.4512 200.301 28.4512C200.221 28.4512 200.182 28.4512 200.142 28.4512C200.063 28.4512 199.983 28.4512 199.904 28.4924C199.824 28.4924 199.745 28.5337 199.665 28.5749C199.586 28.6162 199.506 28.6987 199.467 28.7811L197.321 32.0809C197.321 32.1221 197.281 32.1221 197.281 32.1634C197.281 32.2046 197.241 32.2046 197.202 32.2046C197.162 32.2046 197.162 32.2046 197.122 32.1634C197.122 32.1221 197.122 32.1221 197.122 32.0809L197.162 28.4924H196.089V32.8645C196.089 32.947 196.089 32.9883 196.129 33.0708C196.129 33.1533 196.168 33.2358 196.208 33.3183C196.248 33.4008 196.327 33.442 196.407 33.4832C196.486 33.5245 196.645 33.5657 196.765 33.5657C196.884 33.5657 197.003 33.5657 197.082 33.5245C197.162 33.4832 197.241 33.442 197.281 33.4007C197.361 33.3595 197.4 33.277 197.44 33.1945L199.546 29.9773C199.586 29.936 199.625 29.8948 199.625 29.8536L199.665 29.8123C199.705 29.8123 199.705 29.8123 199.705 29.8536C199.705 29.8948 199.705 29.8948 199.705 29.936L199.665 33.5245H200.818V33.5657ZM202.606 33.5657V28.5337H201.533V33.5657H202.606ZM206.142 33.5657L204.076 31.3384C204.036 31.2972 204.036 31.2972 203.996 31.2559C203.957 31.2147 203.957 31.1734 203.917 31.1322C203.917 31.0909 203.877 31.0497 203.877 31.0085C203.877 30.9672 203.877 30.8847 203.917 30.8435C203.957 30.8022 203.957 30.761 203.996 30.7197C204.036 30.6785 204.076 30.6372 204.076 30.596L205.904 28.5749H204.632L203.082 30.3485C203.043 30.3898 203.003 30.4722 202.924 30.5135C202.884 30.596 202.844 30.6372 202.804 30.7197C202.765 30.8022 202.765 30.8847 202.765 30.9672C202.765 31.0497 202.765 31.1322 202.804 31.2147C202.844 31.2972 202.884 31.3384 202.924 31.4209C202.963 31.4622 203.003 31.5447 203.043 31.5859L204.791 33.5657H206.142ZM210.99 33.5657V29.2349C210.99 29.0699 210.95 28.9049 210.91 28.7811C210.871 28.6574 210.791 28.6162 210.712 28.5337C210.632 28.4924 210.553 28.4512 210.473 28.4512C210.394 28.4512 210.354 28.4512 210.314 28.4512C210.235 28.4512 210.155 28.4512 210.076 28.4924C209.996 28.4924 209.917 28.5337 209.837 28.5749C209.758 28.6162 209.679 28.6987 209.639 28.7811L207.493 32.0809C207.493 32.1221 207.453 32.1221 207.453 32.1634C207.453 32.2046 207.414 32.2046 207.374 32.2046C207.334 32.2046 207.334 32.2046 207.294 32.1634C207.294 32.1221 207.294 32.1221 207.294 32.0809L207.334 28.4924H206.222V32.8645C206.222 32.947 206.222 32.9883 206.261 33.0708C206.261 33.1533 206.301 33.2358 206.341 33.3183C206.38 33.4008 206.46 33.442 206.539 33.4832C206.619 33.5245 206.778 33.5657 206.897 33.5657C207.016 33.5657 207.135 33.5657 207.215 33.5245C207.294 33.4832 207.374 33.442 207.414 33.4007C207.493 33.3595 207.533 33.277 207.573 33.1945L209.679 29.9773C209.718 29.936 209.758 29.8948 209.758 29.8536L209.798 29.8123C209.837 29.8123 209.837 29.8123 209.837 29.8536C209.837 29.8948 209.837 29.8948 209.837 29.936L209.798 33.5245H210.99V33.5657Z" fill="#CDCDCD"/>
</svg>
