<svg width="1330" height="273" viewBox="0 0 1330 273" fill="none" xmlns="http://www.w3.org/2000/svg">
<path d="M47.0478 192.376C46.7046 192.371 46.3669 192.288 46.0606 192.132C45.7543 191.977 45.4873 191.754 45.2801 191.48C32.2501 174.572 20.7735 156.52 10.9904 137.542C3.70344 122.548 -0.0559953 106.081 0.000630309 89.4057C0.000630309 40.1174 39.5297 0 88.1103 0C109.536 0 131.324 10.1946 149.47 28.7071C150.022 29.2799 150.684 29.7354 151.416 30.0465C152.147 30.3576 152.934 30.518 153.729 30.518C154.524 30.518 155.311 30.3576 156.043 30.0465C156.775 29.7354 157.437 29.2799 157.989 28.7071C176.05 10.1946 197.859 0 219.37 0C246.546 0 269.228 9.0856 284.989 26.2544C299.471 42.0795 307.458 64.5163 307.458 89.4057C307.462 94.5228 307.035 99.6312 306.18 104.676C306.142 104.966 306.045 105.245 305.895 105.496C305.744 105.747 305.544 105.964 305.306 106.134C305.069 106.304 304.799 106.424 304.513 106.485C304.227 106.546 303.932 106.547 303.646 106.489C303.358 106.448 303.082 106.349 302.834 106.198C302.586 106.046 302.371 105.845 302.204 105.607C302.036 105.37 301.919 105.1 301.859 104.815C301.799 104.53 301.799 104.236 301.857 103.951C302.667 99.1452 303.073 94.2796 303.071 89.4057C303.071 37.7713 270.229 4.3935 219.37 4.3935C192.044 4.3935 171.151 21.4557 161.12 31.7783C160.162 32.7572 159.019 33.5349 157.757 34.0658C156.495 34.5967 155.141 34.8701 153.772 34.8701C152.403 34.8701 151.049 34.5967 149.787 34.0658C148.525 33.5349 147.382 32.7572 146.424 31.7783C136.308 21.5623 115.414 4.3935 88.1103 4.3935C41.9363 4.3935 4.38801 42.5274 4.38801 89.4057C4.32775 105.4 7.92685 121.195 14.9092 135.58C24.5891 154.332 35.9296 172.177 48.7943 188.899C48.9711 189.127 49.1 189.387 49.1735 189.666C49.2469 189.944 49.2631 190.235 49.2214 190.52C49.1796 190.805 49.0805 191.079 48.9303 191.324C48.78 191.57 48.5816 191.782 48.347 191.949C47.9725 192.231 47.5159 192.38 47.0478 192.376Z" fill="url(#paint0_linear_3_79)"/>
<path d="M120.989 256.235C120.474 256.24 119.974 256.058 119.583 255.723C74.0266 217.312 27.6822 148.466 18.6731 128.802C13.8628 117.512 11.1768 105.43 10.7503 93.163C10.7503 47.2872 47.5319 9.98504 92.7475 9.98504C116.324 9.98504 136.898 26.5993 150.018 40.5263C150.486 41.0288 151.054 41.4285 151.684 41.7001C152.315 41.9718 152.995 42.1095 153.681 42.1045C154.37 42.1073 155.053 41.9687 155.686 41.6973C156.32 41.4258 156.891 41.0273 157.366 40.5263C170.379 26.5567 191.059 9.94238 214.614 9.94238C223.943 9.94238 231.184 11.7979 236.147 15.4663C236.616 15.8141 236.927 16.3343 237.013 16.9122C237.099 17.4902 236.952 18.0786 236.605 18.5481C236.433 18.7806 236.217 18.9768 235.969 19.1257C235.721 19.2745 235.446 19.3731 235.161 19.4157C234.583 19.5016 233.996 19.3545 233.527 19.0067C229.417 15.9568 222.878 14.3359 214.614 14.3359C192.614 14.3359 173.062 30.1824 160.539 43.4908C159.659 44.4282 158.596 45.1753 157.417 45.6859C156.237 46.1965 154.966 46.4599 153.681 46.4599C152.396 46.4599 151.125 46.1965 149.945 45.6859C148.766 45.1753 147.703 44.4282 146.823 43.4908C134.3 30.1824 114.748 14.3359 92.7475 14.3359C49.9599 14.3359 15.1377 49.6972 15.1377 93.2484C15.5413 104.886 18.0978 116.349 22.6772 127.053C31.4732 146.482 77.3491 214.496 122.416 252.46C122.642 252.641 122.83 252.867 122.966 253.123C123.103 253.379 123.186 253.661 123.21 253.951C123.233 254.24 123.198 254.532 123.105 254.807C123.013 255.082 122.865 255.336 122.671 255.552C122.458 255.783 122.197 255.964 121.906 256.082C121.615 256.2 121.302 256.252 120.989 256.235Z" fill="url(#paint1_linear_3_79)"/>
<path d="M241.55 190.591C241.098 190.625 240.648 190.514 240.264 190.274C239.879 190.035 239.581 189.679 239.413 189.258C239.244 188.837 239.214 188.373 239.326 187.934C239.439 187.495 239.688 187.103 240.038 186.816C265.233 162.609 292.154 123.878 292.154 87.7911C292.156 71.7671 287.259 56.1267 278.121 42.9725C268.983 29.8184 256.042 19.7812 241.039 14.2105C240.491 14.0125 240.044 13.6047 239.796 13.0767C239.549 12.5488 239.521 11.9439 239.718 11.3953C239.916 10.8466 240.323 10.399 240.85 10.151C241.378 9.90305 241.982 9.87496 242.53 10.0729C258.385 15.9501 272.062 26.5487 281.722 40.4431C291.382 54.3374 296.561 70.861 296.563 87.7911C296.563 125.242 268.875 165.147 243.083 189.993C242.88 190.19 242.64 190.344 242.377 190.446C242.113 190.549 241.832 190.598 241.55 190.591Z" fill="url(#paint2_linear_3_79)"/>
<path d="M146.406 267.066C145.881 267.071 145.373 266.881 144.979 266.533C91.244 220.209 41.7262 153.219 29.9697 125.557C25.8876 115.353 23.5199 104.543 22.9627 93.5655C22.9627 72.771 29.5012 54.8344 41.854 41.7179C54.2068 28.6014 71.6073 21.3286 91.8616 21.3286C110.412 21.3286 132.647 36.3646 147.236 50.4409C148.959 52.0838 151.247 53.0002 153.626 53.0002C156.005 53.0002 158.292 52.0838 160.015 50.4409C162.017 48.5001 164.275 46.5593 166.404 44.6611C166.62 44.4669 166.874 44.3189 167.149 44.2262C167.424 44.1334 167.715 44.098 168.004 44.1219C168.293 44.1459 168.574 44.2288 168.83 44.3655C169.086 44.5023 169.312 44.6899 169.493 44.917C169.687 45.1332 169.834 45.3867 169.927 45.6621C170.02 45.9375 170.055 46.2289 170.031 46.5185C170.007 46.8081 169.924 47.0897 169.788 47.3461C169.651 47.6025 169.464 47.8283 169.237 48.0096C167.107 49.8437 164.978 51.7206 163.061 53.5974C160.519 56.0602 157.12 57.437 153.583 57.437C150.046 57.437 146.648 56.0602 144.106 53.5974C130.219 40.033 109.113 25.5942 91.8616 25.5942C53.2484 25.5942 27.2436 52.8936 27.2436 93.4589C27.7731 103.882 30.0257 114.145 33.9099 123.83C45.5811 151.086 94.5878 217.309 147.833 263.206C148.213 263.478 148.494 263.868 148.631 264.315C148.769 264.763 148.755 265.243 148.593 265.682C148.431 266.121 148.128 266.495 147.733 266.745C147.338 266.995 146.871 267.108 146.406 267.066Z" fill="url(#paint3_linear_3_79)"/>
<path d="M153.689 272.988C153.199 273.04 152.707 272.922 152.295 272.652C151.883 272.383 151.577 271.979 151.429 271.509C151.281 271.039 151.3 270.532 151.483 270.075C151.666 269.617 152.001 269.237 152.432 268.999C176.317 252.008 198.297 232.479 217.987 210.753C218.18 210.54 218.413 210.368 218.673 210.245C218.932 210.122 219.214 210.052 219.5 210.038C219.787 210.024 220.074 210.067 220.344 210.164C220.614 210.261 220.863 210.411 221.075 210.604C221.288 210.797 221.46 211.031 221.583 211.291C221.705 211.551 221.776 211.832 221.789 212.119C221.803 212.407 221.761 212.694 221.664 212.964C221.567 213.235 221.417 213.484 221.224 213.697C201.342 235.679 179.125 255.424 154.966 272.582C154.595 272.852 154.147 272.994 153.689 272.988Z" fill="url(#paint4_linear_3_79)"/>
<path d="M146.524 252.29C146.027 252.291 145.544 252.117 145.161 251.799C100.563 215.926 47.7869 143.476 41.0355 126.264C38.3306 119.439 33.283 106.643 33.283 97.8131C33.283 78.6182 38.5862 62.6011 48.6389 51.1481C59.0749 39.2472 74.1964 32.9556 92.4275 32.9556C109.082 32.9556 132.169 51.468 141.306 59.4232C144.779 62.4686 149.264 64.1026 153.88 64.004C158.495 63.9053 162.906 62.0811 166.246 58.89C179.77 46.0934 195.488 32.9556 209.673 32.9556C234.591 32.9556 261.235 46.7333 261.235 85.4217C261.235 122.297 238.936 149.511 216.105 174.252C193.806 198.352 152.807 229.81 152.381 230.13C152.156 230.313 151.897 230.448 151.618 230.526C151.34 230.605 151.048 230.626 150.761 230.588C150.474 230.55 150.197 230.454 149.949 230.306C149.7 230.157 149.484 229.96 149.314 229.725C149.128 229.499 148.991 229.238 148.91 228.957C148.83 228.675 148.808 228.381 148.845 228.091C148.883 227.8 148.981 227.521 149.131 227.271C149.281 227.02 149.481 226.802 149.719 226.632C150.124 226.334 190.909 195.067 212.889 171.18C234.868 147.293 256.848 120.698 256.848 85.4217C256.848 50.1457 232.462 37.3491 209.673 37.3491C196.894 37.3491 181.41 50.5722 169.207 62.0892C165.073 66.0293 159.617 68.2795 153.911 68.3979C148.205 68.5163 142.661 66.4943 138.367 62.729C131.531 56.7786 107.975 37.3491 92.3636 37.3491C58.585 37.3491 37.6065 60.5109 37.6065 97.8131C37.6065 105.704 42.4411 118.032 45.0395 124.665C51.6845 141.556 103.737 212.897 147.845 248.365C148.078 248.54 148.272 248.761 148.417 249.014C148.561 249.268 148.652 249.548 148.684 249.838C148.716 250.127 148.688 250.421 148.602 250.699C148.517 250.978 148.375 251.236 148.186 251.458C147.983 251.706 147.731 251.909 147.444 252.053C147.158 252.196 146.844 252.277 146.524 252.29Z" fill="url(#paint5_linear_3_79)"/>
<path d="M153.69 257.764C153.216 257.812 152.74 257.699 152.337 257.444C151.935 257.188 151.63 256.805 151.47 256.356C151.311 255.906 151.307 255.416 151.458 254.964C151.609 254.512 151.908 254.124 152.305 253.861L155.159 251.536C176.457 234.218 198.586 216.303 217.413 196.66C217.817 196.239 218.372 195.995 218.955 195.983C219.538 195.971 220.102 196.192 220.523 196.596C220.944 197.001 221.187 197.556 221.199 198.14C221.211 198.724 220.991 199.289 220.587 199.71C201.568 219.545 179.375 237.545 157.928 254.949L155.074 257.274C154.681 257.588 154.193 257.761 153.69 257.764Z" fill="url(#paint6_linear_3_79)"/>
<path d="M144.625 235.932C144.093 235.942 143.576 235.752 143.177 235.399C103.627 200.72 45.0998 131.96 45.0998 94.487C45.0998 63.8605 64.0763 44.0684 93.4675 44.0684C107.29 44.0684 120.196 55.372 131.57 65.3961C135.467 68.8298 139.152 72.0503 142.453 74.3963C149.439 79.4084 162.494 77.9794 166.434 74.3963C168.053 72.8608 169.821 71.0906 171.695 69.2137C182.237 58.5499 196.677 44.2177 214.483 44.2177C242.425 44.2177 249.88 69.8109 249.88 84.9536C249.88 99.6697 241.914 135.543 211.82 165.999C193.604 184.277 173.629 200.708 152.186 215.052C151.695 215.366 151.099 215.472 150.53 215.346C149.96 215.22 149.465 214.873 149.151 214.381C148.838 213.889 148.732 213.292 148.858 212.722C148.984 212.152 149.33 211.655 149.822 211.341C170.991 197.146 190.715 180.901 208.711 162.842C237.804 133.325 245.492 98.8592 245.492 84.8043C245.492 71.3038 238.954 48.5472 214.483 48.5472C198.488 48.5472 184.793 62.2396 174.804 72.2422C172.909 74.1404 171.12 75.9533 169.437 77.5315C163.729 82.8848 148.374 84.0791 139.897 78.0221C136.425 75.548 132.677 72.2422 128.694 68.7445C117.875 59.275 105.629 48.5472 93.4675 48.5472C72.1695 48.5472 49.4872 60.64 49.4872 94.5723C49.4872 110.653 61.1585 134.69 83.2657 164.079C101.983 188.734 123.015 211.538 146.073 232.179C146.297 232.363 146.481 232.591 146.614 232.849C146.746 233.107 146.825 233.389 146.845 233.679C146.865 233.968 146.826 234.259 146.73 234.533C146.634 234.807 146.483 235.058 146.286 235.271C146.074 235.495 145.815 235.671 145.528 235.785C145.242 235.899 144.933 235.949 144.625 235.932Z" fill="url(#paint7_linear_3_79)"/>
<path d="M145.645 222.469C145.365 222.47 145.087 222.417 144.827 222.31C144.568 222.204 144.332 222.048 144.133 221.85C108.608 188.025 56.1082 124.767 56.1082 96.4647C56.1082 69.9117 69.4833 54.0439 91.91 54.0439C109.971 54.0439 125.987 75.3716 137.615 91.0048C140.993 95.9552 144.829 100.575 149.074 104.804C154.079 108.877 161.384 110.285 166.432 104.185C166.611 103.957 166.835 103.767 167.091 103.629C167.346 103.49 167.627 103.405 167.916 103.379C168.205 103.353 168.497 103.387 168.772 103.478C169.048 103.569 169.303 103.715 169.52 103.908C169.748 104.088 169.937 104.312 170.076 104.568C170.214 104.824 170.299 105.105 170.325 105.394C170.351 105.684 170.317 105.976 170.227 106.252C170.136 106.528 169.989 106.783 169.797 107.001C162.875 115.361 152.758 113.399 146.369 108.195C143.068 105.508 138.957 100.005 134.208 93.6495C123.09 78.7201 107.884 58.4374 92.0165 58.4374C72.0603 58.4374 60.602 72.3004 60.602 96.4647C60.602 122.314 110.929 184.036 147.263 218.672C147.476 218.872 147.646 219.113 147.762 219.381C147.878 219.649 147.938 219.937 147.938 220.229C147.938 220.521 147.878 220.81 147.762 221.078C147.646 221.346 147.476 221.587 147.263 221.786C147.053 222.003 146.801 222.174 146.523 222.292C146.245 222.409 145.946 222.469 145.645 222.469Z" fill="url(#paint8_linear_3_79)"/>
<path d="M147.819 192.379C147.273 192.382 146.747 192.176 146.349 191.803C133.038 179.689 66.6521 117.988 66.6521 92.0532C66.6521 71.8986 80.9643 64.6045 90.591 64.6045C102.795 64.6045 111.122 74.9484 119.94 85.9322C122.069 88.4702 124.199 91.1148 126.329 93.6102C135.615 104.274 143.708 112.336 148.564 115.706C151.763 117.836 155.405 119.208 159.213 119.715C164.474 119.715 168.776 116.004 170.863 113.786C177.236 106.381 182.792 98.3076 187.433 89.7072C192.502 80.8349 202.554 65.9481 212.99 65.9481C220.423 65.9481 225.343 68.4648 227.622 73.4768C232.606 84.4179 221.914 102.973 219.359 105.916C219.17 106.135 218.94 106.314 218.682 106.443C218.424 106.573 218.143 106.65 217.855 106.671C217.568 106.692 217.279 106.656 217.005 106.564C216.731 106.473 216.478 106.329 216.26 106.14C216.042 105.951 215.863 105.721 215.733 105.463C215.604 105.204 215.527 104.923 215.506 104.635C215.485 104.347 215.521 104.057 215.612 103.783C215.703 103.509 215.847 103.255 216.036 103.037C218.57 100.115 227.409 83.6075 223.618 75.311C222.106 71.9839 218.634 70.363 212.969 70.363C207.006 70.363 198.827 78.4035 191.139 91.9039C186.276 100.824 180.464 109.191 173.802 116.857C171.225 119.566 165.858 124.13 158.894 124.13C154.197 123.616 149.696 121.969 145.774 119.331C140.577 115.706 132.399 107.601 122.751 96.5107C120.515 93.9514 118.364 91.2854 116.362 88.7048C108.204 78.5741 100.516 69.0193 90.4206 69.0193C82.5617 69.0193 70.8691 75.1617 70.8691 92.0746C70.8691 110.758 113.018 155.738 149.118 188.561C149.493 188.838 149.767 189.231 149.897 189.679C150.028 190.126 150.009 190.605 149.842 191.041C149.675 191.476 149.37 191.845 148.974 192.091C148.578 192.336 148.112 192.445 147.648 192.4L147.819 192.379Z" fill="url(#paint9_linear_3_79)"/>
<path d="M147.849 209.014C147.564 209.016 147.281 208.96 147.018 208.85C146.754 208.74 146.516 208.578 146.316 208.374C146.167 208.246 131.407 193.658 119.417 180.99C107.426 168.321 94.647 151.835 94.5192 151.664C94.3357 151.44 94.1996 151.181 94.1192 150.903C94.0389 150.625 94.0159 150.333 94.0518 150.046C94.0877 149.758 94.1816 149.481 94.3279 149.232C94.4741 148.982 94.6697 148.764 94.9026 148.593C95.1266 148.405 95.3866 148.266 95.6665 148.184C95.9465 148.101 96.2403 148.077 96.5299 148.113C96.8195 148.149 97.0986 148.245 97.3499 148.393C97.6012 148.542 97.8193 148.74 97.9908 148.977C98.0973 149.126 110.77 165.356 122.59 177.918C134.41 190.48 149.234 205.068 149.383 205.218C149.592 205.417 149.759 205.657 149.873 205.923C149.987 206.188 150.046 206.475 150.046 206.764C150.046 207.053 149.987 207.34 149.873 207.605C149.759 207.871 149.592 208.111 149.383 208.31C149.189 208.526 148.952 208.7 148.689 208.821C148.425 208.942 148.139 209.008 147.849 209.014Z" fill="url(#paint10_linear_3_79)"/>
<path d="M156.228 137.664C155.995 137.703 155.758 137.703 155.525 137.664C145.579 134.315 136.187 127 126.794 114.992C126.615 114.766 126.483 114.506 126.404 114.227C126.325 113.949 126.302 113.658 126.336 113.371C126.369 113.084 126.459 112.806 126.6 112.554C126.741 112.301 126.93 112.079 127.156 111.9C127.383 111.721 127.643 111.588 127.92 111.509C128.198 111.43 128.489 111.407 128.775 111.441C129.062 111.474 129.34 111.564 129.592 111.705C129.844 111.846 130.066 112.036 130.245 112.263C139.083 123.481 147.815 130.434 156.91 133.59C157.474 133.681 157.98 133.992 158.316 134.456C158.651 134.92 158.789 135.499 158.699 136.064C158.608 136.63 158.297 137.136 157.834 137.472C157.371 137.808 156.793 137.946 156.228 137.856V137.664Z" fill="url(#paint11_linear_3_79)"/>
<path d="M151.072 176.443C150.614 176.449 150.165 176.307 149.794 176.038C149.56 175.867 126.835 159.573 111.628 143.812C95.9528 127.539 79.1913 105.187 79.1913 91.2388C79.1913 80.7882 85.5807 75.1364 91.6932 75.1364C93.5584 74.9822 95.4324 75.3021 97.1413 76.0664C98.8502 76.8307 100.339 78.0147 101.469 79.5085L101.639 79.7005C101.83 79.9175 101.975 80.17 102.068 80.4434C102.161 80.7168 102.199 81.0059 102.18 81.294C102.161 81.5822 102.086 81.8638 101.958 82.1228C101.831 82.3819 101.654 82.6132 101.437 82.8037C101.22 82.9941 100.968 83.1399 100.695 83.2328C100.422 83.3257 100.133 83.3639 99.8457 83.345C99.5579 83.3262 99.2767 83.2508 99.018 83.1232C98.7594 82.9955 98.5283 82.8181 98.3382 82.601L98.1678 82.3878C97.4524 81.3859 96.4833 80.593 95.3603 80.0907C94.2373 79.5884 93.0009 79.3948 91.7784 79.5299C87.7531 79.5299 83.6639 83.5395 83.6639 91.2388C83.6639 103.907 100.489 125.832 114.865 140.762C129.774 156.224 152.201 172.284 152.414 172.455C152.658 172.615 152.867 172.823 153.027 173.068C153.187 173.312 153.296 173.586 153.346 173.874C153.396 174.162 153.386 174.458 153.317 174.742C153.249 175.026 153.122 175.293 152.946 175.526C152.739 175.827 152.457 176.069 152.129 176.23C151.801 176.39 151.437 176.464 151.072 176.443Z" fill="url(#paint12_linear_3_79)"/>
<path d="M154.729 165.232C154.321 165.231 153.922 165.112 153.579 164.89C139.581 155.784 126.712 145.045 115.243 132.899C105.723 122.235 93.5402 107.604 89.6853 97.3883C88.8543 95.2169 88.7718 92.8297 89.451 90.6061C89.8028 89.4437 90.4185 88.3788 91.2498 87.4944C92.0812 86.6101 93.1056 85.9305 94.243 85.5087C95.4891 85.0825 96.823 84.9802 98.1194 85.2115C99.4158 85.4428 100.632 86.0001 101.655 86.8311C103.671 88.2898 105.218 90.3059 106.106 92.6322C107.703 96.8977 114.348 108.799 128.128 124.048C136.2 133.027 147.041 140.47 154.197 145.376L157.477 147.636C157.712 147.802 157.912 148.012 158.066 148.254C158.22 148.497 158.324 148.768 158.374 149.051C158.423 149.334 158.416 149.624 158.354 149.905C158.291 150.185 158.174 150.451 158.009 150.686C157.844 150.921 157.634 151.122 157.392 151.276C157.15 151.43 156.879 151.535 156.597 151.584C156.314 151.634 156.024 151.627 155.744 151.565C155.464 151.502 155.198 151.385 154.964 151.219L151.705 149.087C144.378 144.053 133.303 136.439 124.869 127.098C112.517 113.32 104.36 100.395 102.017 94.1891C101.418 92.6752 100.407 91.3599 99.0989 90.3928C98.6587 90.0089 98.1337 89.7352 97.5672 89.5943C97.0007 89.4534 96.4088 89.4493 95.8404 89.5823C95.329 89.7706 94.8693 90.0775 94.4992 90.4778C94.129 90.8782 93.8587 91.3607 93.7106 91.8857C93.3572 93.1842 93.4395 94.5629 93.9448 95.81C96.7775 103.275 105.552 115.389 118.672 129.934C129.821 141.769 142.316 152.255 155.901 161.179C156.155 161.325 156.377 161.523 156.552 161.759C156.727 161.995 156.851 162.264 156.917 162.551C156.983 162.837 156.99 163.134 156.936 163.423C156.882 163.712 156.768 163.986 156.603 164.229C156.406 164.546 156.129 164.805 155.8 164.981C155.471 165.157 155.102 165.243 154.729 165.232Z" fill="url(#paint13_linear_3_79)"/>
<path d="M166.124 150.942C165.646 150.993 165.164 150.88 164.758 150.623C164.351 150.365 164.044 149.977 163.886 149.522C163.728 149.067 163.729 148.571 163.887 148.117C164.046 147.662 164.354 147.274 164.761 147.017C173.819 139.867 182.209 131.908 189.829 123.237C202.607 108.308 210.999 96.0228 213.619 88.4941C214.099 87.2309 214.151 85.8445 213.768 84.5485C213.586 84.0435 213.289 83.5878 212.901 83.2176C212.513 82.8474 212.044 82.5729 211.531 82.4158C210.956 82.2829 210.358 82.2912 209.787 82.4397C209.216 82.5882 208.689 82.8727 208.251 83.2689C206.974 84.2775 206.001 85.6212 205.44 87.1505C203.31 93.4208 195.43 106.559 183.461 120.55C178.242 126.493 172.59 132.039 166.55 137.143C166.333 137.332 166.081 137.476 165.809 137.568C165.536 137.659 165.249 137.696 164.962 137.676C164.675 137.657 164.395 137.58 164.138 137.452C163.88 137.324 163.651 137.146 163.462 136.929C163.273 136.712 163.129 136.46 163.037 136.187C162.946 135.914 162.909 135.626 162.929 135.339C162.948 135.052 163.025 134.771 163.153 134.514C163.281 134.256 163.458 134.026 163.675 133.837C169.548 128.826 175.051 123.395 180.138 117.585C193.492 101.973 199.817 89.8591 201.287 85.5936C202.113 83.251 203.591 81.1938 205.547 79.6645C206.509 78.8268 207.665 78.2426 208.909 77.965C210.154 77.6873 211.448 77.7249 212.675 78.0743C213.901 78.4237 215.021 79.0739 215.933 79.966C216.846 80.8581 217.521 81.964 217.899 83.1835C218.623 85.4084 218.578 87.8122 217.772 90.0084C214.172 100.246 202.331 115.303 193.151 126.095C185.328 134.99 176.701 143.144 167.381 150.451C167.026 150.747 166.585 150.919 166.124 150.942Z" fill="url(#paint14_linear_3_79)"/>
<path d="M152.659 94.0401C151.214 94.0579 149.776 93.8418 148.399 93.4002C147.126 92.9779 145.958 92.2873 144.973 91.3749C143.989 90.4626 143.211 89.3496 142.692 88.111C142.581 87.8449 142.524 87.5596 142.524 87.2715C142.523 86.9833 142.58 86.6979 142.689 86.4315C142.799 86.1651 142.96 85.923 143.163 85.719C143.367 85.515 143.608 85.353 143.874 85.2424C144.139 85.1317 144.424 85.0746 144.712 85.0742C145 85.0738 145.285 85.1302 145.551 85.2401C145.817 85.35 146.059 85.5113 146.262 85.7148C146.466 85.9183 146.628 86.16 146.738 86.4261C147.039 87.1006 147.482 87.7018 148.037 88.1879C148.592 88.6739 149.246 89.0334 149.954 89.2413C153.085 90.2864 157.408 89.3906 161.838 86.81C162.341 86.5271 162.936 86.4559 163.491 86.6119C164.046 86.7679 164.516 87.1383 164.799 87.6417C165.081 88.1452 165.152 88.7403 164.997 89.2963C164.841 89.8523 164.471 90.3235 163.968 90.6063C160.563 92.7204 156.664 93.9042 152.659 94.0401Z" fill="url(#paint15_linear_3_79)"/>
<path d="M254.571 192.373C254.097 192.42 253.621 192.307 253.219 192.052C252.816 191.797 252.511 191.414 252.352 190.964C252.192 190.515 252.188 190.025 252.339 189.573C252.491 189.12 252.789 188.732 253.187 188.47C261.128 181.572 268.317 173.851 274.634 165.436C288.861 146.838 292.204 135.022 292.247 134.894C292.324 134.614 292.455 134.352 292.633 134.123C292.811 133.894 293.033 133.702 293.285 133.558C293.537 133.415 293.815 133.322 294.103 133.286C294.391 133.25 294.683 133.271 294.963 133.348C295.242 133.425 295.504 133.557 295.733 133.735C295.962 133.913 296.154 134.135 296.297 134.388C296.44 134.64 296.533 134.918 296.569 135.207C296.605 135.495 296.584 135.787 296.507 136.067C296.379 136.579 292.886 148.864 278.169 168.059C271.639 176.794 264.192 184.802 255.955 191.946C255.554 192.238 255.067 192.388 254.571 192.373Z" fill="url(#paint16_linear_3_79)"/>
<path d="M231.542 188.401C230.957 188.366 230.408 188.106 230.009 187.676C229.796 187.477 229.627 187.236 229.511 186.968C229.395 186.7 229.335 186.411 229.335 186.119C229.335 185.827 229.395 185.538 229.511 185.271C229.627 185.003 229.796 184.762 230.009 184.562C246.813 168.204 278.611 126.807 278.611 87.2013C278.611 51.2642 254.672 31.8773 244.385 25.2231C244.134 25.0734 243.916 24.8735 243.745 24.6359C243.575 24.3983 243.455 24.128 243.393 23.8419C243.331 23.5558 243.328 23.26 243.385 22.9729C243.443 22.6858 243.558 22.4136 243.725 22.1732C243.876 21.9264 244.076 21.713 244.313 21.5461C244.549 21.3791 244.817 21.2622 245.1 21.2023C245.383 21.1424 245.675 21.1409 245.959 21.1978C246.242 21.2548 246.511 21.3689 246.749 21.5334C257.654 28.5928 282.956 49.1101 282.956 87.2013C282.956 128.278 250.285 170.913 233.012 187.719C232.631 188.131 232.103 188.376 231.542 188.401Z" fill="url(#paint17_linear_3_79)"/>
<path d="M151.079 243.71C150.598 243.759 150.115 243.643 149.709 243.381C149.302 243.118 148.997 242.725 148.843 242.266C148.69 241.807 148.697 241.309 148.863 240.854C149.03 240.4 149.345 240.015 149.759 239.764C190.843 208.626 267.302 150.678 267.302 87.2712C267.302 45.6182 237.166 26.8925 215.74 26.8925C207.323 27.0201 199.088 29.3667 191.865 33.6961C191.379 34.0185 190.785 34.1344 190.214 34.0185C189.643 33.9025 189.141 33.564 188.819 33.0776C188.497 32.5911 188.382 31.9965 188.497 31.4245C188.613 30.8526 188.951 30.3501 189.437 30.0277C197.37 25.1972 206.456 22.5965 215.74 22.499C238.976 22.499 271.69 42.5897 271.69 87.2712C271.69 152.875 194.101 211.676 152.421 243.262C152.034 243.553 151.563 243.71 151.079 243.71Z" fill="url(#paint18_linear_3_79)"/>
<path d="M157.325 184.821C157.017 184.821 156.714 184.754 156.434 184.625C156.155 184.496 155.906 184.308 155.706 184.074C155.506 183.865 155.351 183.617 155.249 183.346C155.148 183.074 155.103 182.785 155.117 182.496C155.131 182.206 155.204 181.923 155.331 181.662C155.458 181.402 155.636 181.17 155.856 180.982C157.898 179.268 160.031 177.666 162.245 176.183C171.849 169.593 180.543 161.762 188.101 152.893C193.476 146.709 197.879 139.74 201.156 132.226C204.351 125.402 206.885 120.006 214.084 117.468C224.925 113.607 234.594 96.5452 234.594 85.8173C234.594 67.4542 227.885 58.5392 214.084 58.5392C200.283 58.5392 187.014 75.772 177.537 88.398C170.509 97.5902 166.654 102.368 162.863 102.368C162.298 102.368 161.756 102.143 161.357 101.743C160.957 101.343 160.733 100.801 160.733 100.235C160.718 99.9459 160.763 99.6571 160.863 99.3859C160.964 99.1147 161.118 98.8668 161.318 98.6574C161.517 98.4479 161.757 98.2812 162.022 98.1674C162.288 98.0536 162.574 97.9951 162.863 97.9955C164.694 97.9955 170.104 90.7867 174.044 85.5401C184.075 72.2316 197.813 53.9751 214.084 53.9751C225.436 53.9751 238.982 59.4776 238.982 85.6467C238.982 98.0168 228.162 116.956 215.554 121.435C210.08 123.375 208.206 127.342 205.118 133.933C201.685 141.862 197.051 149.214 191.381 155.73C183.585 164.887 174.611 172.97 164.694 179.766C162.65 181.154 160.681 182.649 158.795 184.245C158.397 184.618 157.871 184.824 157.325 184.821Z" fill="url(#paint19_linear_3_79)"/>
<path d="M164.001 165.229C163.51 165.289 163.013 165.175 162.597 164.907C162.18 164.64 161.869 164.235 161.718 163.763C161.567 163.291 161.585 162.782 161.768 162.321C161.952 161.861 162.289 161.479 162.724 161.241C171.891 154.612 180.336 147.034 187.919 138.634C188.292 138.187 188.827 137.906 189.406 137.854C189.985 137.802 190.561 137.983 191.007 138.356C191.453 138.73 191.733 139.265 191.785 139.845C191.837 140.425 191.657 141.002 191.284 141.449C183.503 150.179 174.806 158.044 165.343 164.909C164.944 165.162 164.472 165.275 164.001 165.229Z" fill="url(#paint20_linear_3_79)"/>
<path d="M152.41 200.482C151.845 200.598 151.258 200.485 150.776 200.167C150.295 199.849 149.96 199.352 149.844 198.787C149.728 198.221 149.841 197.632 150.159 197.15C150.476 196.668 150.972 196.333 151.537 196.217C155.328 194.51 178.692 177.022 191.002 165.462C203.721 153.518 214.391 139.562 222.587 124.15C222.711 123.889 222.887 123.655 223.104 123.464C223.322 123.272 223.575 123.128 223.851 123.038C224.126 122.948 224.416 122.915 224.704 122.941C224.992 122.968 225.272 123.052 225.526 123.191C225.789 123.313 226.025 123.488 226.218 123.704C226.411 123.921 226.558 124.175 226.65 124.451C226.742 124.726 226.776 125.018 226.751 125.307C226.727 125.597 226.643 125.878 226.506 126.134C218.073 141.998 207.093 156.365 194.005 168.661C181.61 180.391 157.969 198.157 153.347 200.205C153.057 200.359 152.738 200.454 152.41 200.482Z" fill="url(#paint21_linear_3_79)"/>
<path d="M405.639 200.487C398.477 200.54 391.356 199.386 384.576 197.074C378.307 194.974 372.474 191.743 367.367 187.541C362.654 183.698 358.936 178.774 356.526 173.187C355.968 172.264 355.673 171.206 355.673 170.127C355.673 169.048 355.968 167.989 356.526 167.066C357.726 165.288 359.535 164.012 361.611 163.478C363.686 162.943 365.885 163.188 367.793 164.166C369.67 165.143 371.169 166.719 372.052 168.644C373.727 171.944 376.14 174.813 379.102 177.026C382.669 179.686 386.658 181.727 390.901 183.062C395.669 184.599 400.652 185.362 405.661 185.323C411.065 185.405 416.435 184.457 421.485 182.529C425.919 180.872 429.836 178.068 432.837 174.403C435.735 170.684 437.242 166.066 437.096 161.35C437.093 158.102 436.424 154.889 435.131 151.91C433.838 148.932 431.948 146.25 429.578 144.032C424.58 139.013 416.544 135.864 405.469 134.584C391.37 133.077 380.302 128.811 372.265 121.788C368.458 118.661 365.399 114.72 363.313 110.254C361.227 105.788 360.167 100.911 360.211 95.981C360.016 89.0738 362.172 82.3055 366.323 76.7861C370.698 71.2685 376.504 67.0627 383.106 64.6293C390.803 61.7025 398.983 60.2554 407.215 60.3638C413.373 60.2671 419.497 61.2784 425.297 63.3496C430.36 65.1932 435.044 67.947 439.12 71.4755C443.01 74.9195 446.395 78.8975 449.172 83.291C450.463 85.2239 451.043 87.5461 450.812 89.86C450.68 90.8562 450.321 91.8088 449.764 92.6444C449.206 93.4801 448.465 94.1765 447.596 94.68C446.611 95.246 445.518 95.5992 444.389 95.7167C443.259 95.8343 442.117 95.7136 441.037 95.3625C439.956 95.0662 438.945 94.5596 438.061 93.8716C437.176 93.1835 436.436 92.3277 435.882 91.3529C434.16 88.2632 431.911 85.4988 429.237 83.1844C426.413 80.7753 423.192 78.8772 419.717 77.5752C415.536 76.0858 411.12 75.3633 406.683 75.4424C399.062 75.0281 391.483 76.8199 384.852 80.6037C382.116 82.25 379.879 84.6098 378.378 87.431C376.877 90.2521 376.171 93.4286 376.333 96.6208C376.283 100.279 377.241 103.88 379.102 107.029C381.61 110.742 385.128 113.658 389.24 115.432C395.7 118.253 402.578 119.997 409.601 120.593C423.7 122.243 434.477 126.508 441.931 133.39C449.385 140.272 453.112 149.407 453.112 160.796C453.228 166.7 451.943 172.547 449.364 177.858C446.887 182.709 443.331 186.926 438.971 190.185C434.425 193.635 429.295 196.236 423.828 197.863C417.922 199.605 411.796 200.489 405.639 200.487Z" fill="#563085"/>
<path d="M502.117 198.641C497.431 198.705 492.842 197.295 488.998 194.61C485.032 191.775 481.923 187.901 480.01 183.413C477.766 178.258 476.662 172.678 476.773 167.055V69.8221C476.724 68.7757 476.894 67.7306 477.272 66.7538C477.65 65.777 478.227 64.8898 478.967 64.1491C479.706 63.4084 480.592 62.8304 481.568 62.4521C482.543 62.0738 483.587 61.9035 484.632 61.9521C485.702 61.8889 486.773 62.0455 487.78 62.4123C488.787 62.7791 489.709 63.3483 490.489 64.0849C491.213 64.8341 491.775 65.7243 492.141 66.7001C492.508 67.676 492.67 68.7168 492.618 69.7581V167.14C492.459 171.042 493.365 174.913 495.238 178.337C495.878 179.603 496.851 180.669 498.053 181.421C499.254 182.172 500.637 182.581 502.053 182.603H506.419C507.396 182.551 508.371 182.715 509.277 183.083C510.183 183.452 510.996 184.016 511.659 184.736C513.014 186.38 513.705 188.472 513.597 190.601C513.609 191.714 513.352 192.813 512.848 193.805C512.343 194.796 511.607 195.651 510.7 196.295C508.526 197.809 505.912 198.559 503.267 198.428L502.117 198.641Z" fill="#563085"/>
<path d="M612.154 126.026C607.897 118.686 601.789 112.594 594.443 108.36C587.097 104.125 578.769 101.896 570.293 101.896C561.816 101.896 553.489 104.125 546.142 108.36C538.796 112.594 532.689 118.686 528.432 126.026C524.115 133.584 521.908 142.166 522.042 150.873C521.935 159.519 524.055 168.047 528.197 175.634C532.028 182.744 537.662 188.717 544.533 192.952C551.504 197.108 559.46 199.318 567.572 199.352C575.685 199.385 583.659 197.242 590.664 193.144C595.238 190.339 599.264 186.726 602.549 182.48V190.734C602.51 191.802 602.691 192.867 603.082 193.862C603.473 194.856 604.065 195.759 604.821 196.514C605.577 197.269 606.48 197.859 607.475 198.248C608.469 198.637 609.533 198.816 610.599 198.775C611.691 198.823 612.781 198.647 613.803 198.258C614.825 197.869 615.757 197.276 616.541 196.514C617.293 195.756 617.883 194.852 618.274 193.859C618.666 192.865 618.852 191.802 618.82 190.734V150.873C618.802 142.15 616.504 133.583 612.154 126.026ZM598.694 168.276C595.978 173.328 591.963 177.562 587.065 180.539C583.32 182.801 579.156 184.279 574.825 184.885C570.493 185.492 566.084 185.213 561.863 184.068C557.642 182.922 553.697 180.932 550.264 178.218C546.832 175.504 543.984 172.122 541.892 168.276C539.079 162.858 537.61 156.841 537.61 150.734C537.61 144.627 539.079 138.61 541.892 133.192C544.657 128.147 548.734 123.946 553.691 121.035C558.77 118.03 564.575 116.481 570.474 116.556C576.313 116.467 582.061 118.019 587.065 121.035C591.961 124.005 595.976 128.232 598.694 133.277C601.592 138.681 603.059 144.739 602.953 150.873C603.046 156.943 601.579 162.936 598.694 168.276Z" fill="#563085"/>
<path d="M718.313 107.902C717.607 106.09 716.235 104.617 714.479 103.785C712.598 102.985 710.497 102.865 708.537 103.444C707.585 103.704 706.701 104.166 705.944 104.799C705.186 105.432 704.574 106.221 704.15 107.112L673.012 175.574L641.321 107.112C640.881 106.264 640.278 105.511 639.547 104.896C638.816 104.282 637.971 103.817 637.061 103.529C636.18 103.21 635.241 103.085 634.307 103.163C633.374 103.24 632.468 103.518 631.651 103.977C630.707 104.322 629.842 104.855 629.11 105.544C628.378 106.233 627.793 107.064 627.392 107.987C627.045 108.863 626.896 109.804 626.955 110.744C627.014 111.684 627.279 112.6 627.733 113.425L665.366 193.234C665.971 194.773 667.022 196.096 668.385 197.032C669.748 197.967 671.36 198.471 673.012 198.48C674.652 198.487 676.254 197.987 677.6 197.048C678.946 196.109 679.969 194.777 680.53 193.234L717.929 113.234C718.389 112.431 718.662 111.534 718.728 110.611C718.795 109.688 718.653 108.762 718.313 107.902Z" fill="#563085"/>
<path d="M747.542 86.2849C746.136 86.3121 744.74 86.0498 743.439 85.5142C742.138 84.9785 740.961 84.181 739.981 83.171C738.964 82.1619 738.164 80.9537 737.633 79.6218C737.102 78.2899 736.85 76.8627 736.893 75.4291C736.86 74.0023 737.132 72.585 737.691 71.2719C738.249 69.9589 739.081 68.7803 740.13 67.8151C741.132 66.8255 742.32 66.0445 743.625 65.5174C744.93 64.9902 746.327 64.7273 747.734 64.7439C749.11 64.7422 750.474 65.0126 751.745 65.5396C753.017 66.0666 754.173 66.8399 755.146 67.8151C756.195 68.7803 757.027 69.9589 757.585 71.2719C758.144 72.585 758.416 74.0023 758.383 75.4291C758.409 76.8618 758.146 78.2852 757.611 79.614C757.075 80.9429 756.277 82.15 755.266 83.1633C754.254 84.1766 753.048 84.9752 751.721 85.5116C750.394 86.0479 748.973 86.3109 747.542 86.2849ZM747.734 198.639C746.64 198.688 745.548 198.511 744.525 198.118C743.503 197.726 742.572 197.126 741.792 196.357C741.04 195.604 740.449 194.704 740.057 193.714C739.666 192.724 739.48 191.663 739.513 190.599V110.897C739.463 109.814 739.64 108.733 740.032 107.723C740.425 106.713 741.024 105.796 741.792 105.032C742.594 104.303 743.531 103.739 744.551 103.373C745.57 103.007 746.652 102.846 747.734 102.899C748.785 102.858 749.835 103.025 750.822 103.391C751.808 103.757 752.713 104.315 753.484 105.032C754.245 105.798 754.835 106.717 755.217 107.728C755.599 108.738 755.763 109.818 755.699 110.897V190.599C755.732 191.663 755.546 192.723 755.154 193.714C754.762 194.704 754.172 195.603 753.42 196.356C752.668 197.11 751.77 197.701 750.781 198.093C749.792 198.486 748.733 198.672 747.67 198.639H747.734Z" fill="#563085"/>
<path d="M832.954 199.346C824.312 199.493 815.794 197.282 808.312 192.948C801.19 188.803 795.307 182.823 791.274 175.63C787.072 168.064 784.935 159.524 785.076 150.869C784.911 142.089 786.986 133.412 791.104 125.659C794.928 118.511 800.637 112.55 807.61 108.426C814.994 104.178 823.395 102.024 831.91 102.199C838.519 102.09 845.067 103.483 851.061 106.272C857.055 109.06 862.34 113.173 866.52 118.301C867.22 118.966 867.74 119.798 868.031 120.72C868.322 121.642 868.373 122.622 868.181 123.569C867.68 125.583 866.431 127.33 864.688 128.453C863.997 128.975 863.201 129.341 862.356 129.525C861.51 129.709 860.635 129.707 859.79 129.52C857.861 129.121 856.13 128.066 854.891 126.534C852.014 123.321 848.48 120.767 844.529 119.045C840.579 117.323 836.304 116.472 831.996 116.552C826.245 116.439 820.581 117.963 815.66 120.946C810.952 123.842 807.139 127.992 804.649 132.932C801.912 138.506 800.561 144.659 800.709 150.869C800.598 156.951 802.011 162.963 804.82 168.357C807.461 173.385 811.423 177.596 816.278 180.535C821.342 183.553 827.147 185.097 833.039 184.993C836.944 185.047 840.835 184.515 844.583 183.415C847.939 182.388 851.039 180.657 853.677 178.339C855.096 177.032 856.91 176.237 858.831 176.078C859.693 176.007 860.56 176.108 861.383 176.376C862.205 176.643 862.967 177.071 863.623 177.635C865.224 178.887 866.29 180.701 866.605 182.711C866.736 183.634 866.628 184.576 866.293 185.445C865.957 186.315 865.405 187.085 864.688 187.68C856.049 195.588 844.651 199.778 832.954 199.346Z" fill="#563085"/>
<path d="M1031.43 64.2376C1030.48 63.3657 1029.35 62.7204 1028.12 62.35C1026.88 61.9796 1025.58 61.8938 1024.31 62.0991C1023.04 62.3043 1021.83 62.7953 1020.78 63.5351C1019.73 64.2748 1018.85 65.2442 1018.23 66.3703L966.025 173.009L912.652 66.3703C911.979 65.0144 910.93 63.8812 909.631 63.1059C908.332 62.3306 906.837 61.9461 905.326 61.9982C904.247 61.9694 903.173 62.1565 902.168 62.5483C901.162 62.9402 900.245 63.529 899.469 64.2802C898.68 65.0507 898.062 65.9786 897.655 67.0037C897.248 68.0289 897.06 69.1283 897.105 70.2306V190.412C897.048 191.527 897.218 192.642 897.605 193.689C897.992 194.736 898.588 195.693 899.356 196.502C900.124 197.312 901.048 197.956 902.073 198.396C903.097 198.837 904.2 199.064 905.315 199.064C906.43 199.064 907.533 198.837 908.558 198.396C909.582 197.956 910.506 197.312 911.274 196.502C912.042 195.693 912.638 194.736 913.025 193.689C913.412 192.642 913.582 191.527 913.526 190.412V100.239L957.932 189.154C958.492 190.685 959.52 192 960.87 192.911C962.22 193.823 963.823 194.284 965.45 194.23C966.917 194.237 968.359 193.844 969.62 193.093C970.881 192.341 971.913 191.259 972.606 189.964L1017.33 98.3832V190.306C1017.31 191.937 1017.78 193.538 1018.67 194.902C1019.57 196.267 1020.84 197.335 1022.35 197.969C1023.85 198.603 1025.5 198.774 1027.1 198.462C1028.7 198.149 1030.17 197.366 1031.32 196.213C1032.12 195.465 1032.76 194.555 1033.18 193.544C1033.6 192.533 1033.8 191.444 1033.77 190.348V70.188C1033.82 69.0876 1033.63 67.9903 1033.23 66.9659C1032.82 65.9414 1032.21 65.0123 1031.43 64.2376Z" fill="#563085"/>
<path d="M1150.98 154.286C1151.64 153.635 1152.15 152.857 1152.5 151.998C1152.84 151.14 1153.01 150.22 1152.98 149.295C1153.15 140.858 1151.36 132.497 1147.74 124.875C1144.42 118.009 1139.2 112.243 1132.71 108.261C1125.69 104.092 1117.63 101.992 1109.47 102.203C1100.96 102.029 1092.55 104.182 1085.17 108.431C1078.24 112.503 1072.56 118.405 1068.75 125.493C1064.64 133.308 1062.58 142.042 1062.76 150.873C1062.62 159.662 1064.83 168.328 1069.15 175.976C1073.28 183.151 1079.3 189.053 1086.55 193.038C1093.01 196.499 1100.12 198.569 1107.42 199.117C1114.72 199.664 1122.06 198.676 1128.96 196.216C1134.27 194.498 1139.26 191.887 1143.7 188.495C1144.51 187.934 1145.17 187.172 1145.6 186.283C1146.03 185.393 1146.23 184.407 1146.17 183.419C1145.98 181.343 1144.97 179.426 1143.38 178.087C1142.01 176.929 1140.26 176.335 1138.48 176.424C1136.56 176.5 1134.72 177.204 1133.24 178.429C1130.36 180.588 1127.15 182.247 1123.72 183.334C1118.86 185.083 1113.69 185.77 1108.54 185.346C1103.4 184.923 1098.41 183.401 1093.9 180.881C1088.8 177.935 1084.58 173.679 1081.68 168.554C1079.56 164.765 1078.2 160.599 1077.67 156.291H1145.63C1146.62 156.338 1147.59 156.184 1148.51 155.84C1149.43 155.495 1150.27 154.966 1150.98 154.286ZM1092.24 120.588C1097.44 117.468 1103.41 115.893 1109.47 116.045C1114.81 115.813 1120.1 117.187 1124.66 119.993C1129.21 122.798 1132.83 126.905 1135.03 131.785C1136.73 135.44 1137.85 139.341 1138.33 143.345H1077.91C1078.48 139.765 1079.57 136.288 1081.14 133.022C1083.59 127.906 1087.44 123.593 1092.24 120.588Z" fill="#563085"/>
<path d="M1256.19 154.286C1256.84 153.635 1257.36 152.857 1257.71 151.998C1258.05 151.14 1258.22 150.22 1258.19 149.295C1258.36 140.858 1256.57 132.497 1252.95 124.875C1249.64 118.005 1244.42 112.237 1237.91 108.261C1230.89 104.092 1222.84 101.992 1214.68 102.203C1206.16 102.029 1197.76 104.182 1190.38 108.431C1183.44 112.503 1177.76 118.405 1173.96 125.493C1169.87 133.287 1167.83 141.989 1168.01 150.788C1167.87 159.576 1170.08 168.243 1174.4 175.891C1178.53 183.066 1184.55 188.968 1191.8 192.953C1198.25 196.421 1205.35 198.503 1212.64 199.065C1219.94 199.627 1227.27 198.657 1234.17 196.216C1239.49 194.481 1244.48 191.848 1248.93 188.431C1249.73 187.877 1250.38 187.124 1250.81 186.246C1251.23 185.369 1251.43 184.395 1251.37 183.419C1251.18 181.343 1250.18 179.426 1248.58 178.087C1247.22 176.928 1245.47 176.332 1243.69 176.424C1241.77 176.508 1239.93 177.211 1238.45 178.429C1235.56 180.623 1232.33 182.31 1228.88 183.419C1224.04 185.155 1218.89 185.835 1213.76 185.412C1208.64 184.989 1203.66 183.473 1199.17 180.967C1194.07 178.021 1189.84 173.765 1186.93 168.639C1184.77 164.83 1183.38 160.635 1182.84 156.291H1250.82C1251.8 156.343 1252.79 156.192 1253.71 155.848C1254.64 155.503 1255.48 154.971 1256.19 154.286ZM1197.47 120.588C1202.66 117.462 1208.63 115.886 1214.68 116.045C1220.17 115.899 1225.58 117.383 1230.23 120.311C1234.57 123.136 1238.03 127.137 1240.19 131.849C1241.91 135.5 1243.02 139.403 1243.49 143.409H1183.11C1183.66 139.81 1184.73 136.311 1186.29 133.022C1188.76 127.895 1192.64 123.581 1197.47 120.588Z" fill="#563085"/>
<path d="M1327.84 184.996C1327.23 184.272 1326.47 183.692 1325.62 183.297C1324.76 182.902 1323.82 182.703 1322.88 182.714H1317.45C1315.35 182.755 1313.27 182.319 1311.36 181.44C1309.45 180.561 1307.77 179.261 1306.44 177.638C1303.47 173.995 1301.96 169.385 1302.18 164.692V120.245H1318.96C1320.89 120.307 1322.77 119.61 1324.2 118.304C1324.88 117.691 1325.43 116.937 1325.8 116.095C1326.16 115.252 1326.35 114.339 1326.33 113.42C1326.37 112.468 1326.21 111.519 1325.84 110.641C1325.47 109.763 1324.91 108.978 1324.2 108.344C1322.77 107.047 1320.89 106.352 1318.96 106.403H1302.18V80.5112C1302.21 79.4408 1302.01 78.3761 1301.61 77.3834C1301.21 76.3908 1300.61 75.4914 1299.85 74.7413C1299.08 73.9911 1298.17 73.4062 1297.18 73.0229C1296.18 72.6396 1295.11 72.4662 1294.04 72.5134C1293 72.4533 1291.95 72.612 1290.97 72.9792C1290 73.3465 1289.1 73.9142 1288.36 74.6461C1287.64 75.42 1287.08 76.3295 1286.71 77.3218C1286.35 78.3141 1286.18 79.3692 1286.23 80.4259V106.403H1276.79C1274.86 106.352 1272.98 107.047 1271.55 108.344C1270.85 108.983 1270.29 109.769 1269.93 110.646C1269.56 111.523 1269.39 112.469 1269.42 113.42C1269.41 114.339 1269.59 115.252 1269.95 116.095C1270.32 116.937 1270.87 117.691 1271.55 118.304C1272.98 119.61 1274.86 120.307 1276.79 120.245H1286.23V164.692C1286.11 170.744 1287.49 176.73 1290.25 182.116C1292.79 187.056 1296.61 191.224 1301.3 194.188C1306.13 197.176 1311.71 198.722 1317.38 198.645H1320.71C1323.08 198.758 1325.41 198 1327.27 196.513C1328.09 195.813 1328.74 194.938 1329.18 193.953C1329.62 192.968 1329.83 191.896 1329.8 190.818C1329.89 188.701 1329.19 186.625 1327.84 184.996Z" fill="#563085"/>
<defs>
<linearGradient id="paint0_linear_3_79" x1="153.687" y1="10.9411" x2="153.687" y2="210.718" gradientUnits="userSpaceOnUse">
<stop stop-color="#563085"/>
<stop offset="0.61" stop-color="#EC1B67"/>
<stop offset="0.66" stop-color="#EC2067"/>
<stop offset="0.72" stop-color="#EE2E69"/>
<stop offset="0.78" stop-color="#F0456B"/>
<stop offset="0.84" stop-color="#F4656D"/>
<stop offset="0.9" stop-color="#F88E71"/>
<stop offset="0.95" stop-color="#FCB574"/>
</linearGradient>
<linearGradient id="paint1_linear_3_79" x1="123.885" y1="9.94238" x2="123.885" y2="256.235" gradientUnits="userSpaceOnUse">
<stop offset="0.13" stop-color="#563085"/>
<stop offset="0.92" stop-color="#EC1B67"/>
<stop offset="1" stop-color="#FCB574"/>
</linearGradient>
<linearGradient id="paint2_linear_3_79" x1="267.938" y1="9.94497" x2="267.938" y2="190.591" gradientUnits="userSpaceOnUse">
<stop offset="0.08" stop-color="#563085"/>
<stop offset="0.78" stop-color="#EC1B67"/>
<stop offset="1" stop-color="#FCB574"/>
</linearGradient>
<linearGradient id="paint3_linear_3_79" x1="96.4833" y1="21.2433" x2="96.4833" y2="267.066" gradientUnits="userSpaceOnUse">
<stop offset="0.13" stop-color="#563085"/>
<stop offset="0.92" stop-color="#EC1B67"/>
<stop offset="1" stop-color="#FCB574"/>
</linearGradient>
<linearGradient id="paint4_linear_3_79" x1="186.658" y1="272.988" x2="186.658" y2="210.028" gradientUnits="userSpaceOnUse">
<stop stop-color="#FCB574"/>
<stop offset="0.15" stop-color="#EC1B67"/>
<stop offset="0.87" stop-color="#563085"/>
</linearGradient>
<linearGradient id="paint5_linear_3_79" x1="147.248" y1="54.1766" x2="147.248" y2="257.707" gradientUnits="userSpaceOnUse">
<stop stop-color="#563085"/>
<stop offset="0.81" stop-color="#EC1B67"/>
<stop offset="0.83" stop-color="#EC2067"/>
<stop offset="0.85" stop-color="#EE2E69"/>
<stop offset="0.88" stop-color="#F0456B"/>
<stop offset="0.9" stop-color="#F4656D"/>
<stop offset="0.93" stop-color="#F88E71"/>
<stop offset="0.95" stop-color="#FCB574"/>
</linearGradient>
<linearGradient id="paint6_linear_3_79" x1="186.34" y1="257.764" x2="186.34" y2="195.978" gradientUnits="userSpaceOnUse">
<stop stop-color="#FCB574"/>
<stop offset="0.15" stop-color="#EC1B67"/>
<stop offset="0.87" stop-color="#563085"/>
</linearGradient>
<linearGradient id="paint7_linear_3_79" x1="147.479" y1="62.6235" x2="147.479" y2="240.667" gradientUnits="userSpaceOnUse">
<stop stop-color="#563085"/>
<stop offset="0.81" stop-color="#EC1B67"/>
<stop offset="0.83" stop-color="#EC2067"/>
<stop offset="0.85" stop-color="#EE2E69"/>
<stop offset="0.88" stop-color="#F0456B"/>
<stop offset="0.9" stop-color="#F4656D"/>
<stop offset="0.93" stop-color="#F88E71"/>
<stop offset="0.95" stop-color="#FCB574"/>
</linearGradient>
<linearGradient id="paint8_linear_3_79" x1="113.187" y1="70.3383" x2="113.187" y2="226.628" gradientUnits="userSpaceOnUse">
<stop stop-color="#563085"/>
<stop offset="0.81" stop-color="#EC1B67"/>
<stop offset="0.83" stop-color="#EC2067"/>
<stop offset="0.85" stop-color="#EE2E69"/>
<stop offset="0.88" stop-color="#F0456B"/>
<stop offset="0.9" stop-color="#F4656D"/>
<stop offset="0.93" stop-color="#F88E71"/>
<stop offset="0.95" stop-color="#FCB574"/>
</linearGradient>
<linearGradient id="paint9_linear_3_79" x1="147.861" y1="76.9532" x2="147.861" y2="195.535" gradientUnits="userSpaceOnUse">
<stop stop-color="#563085"/>
<stop offset="0.81" stop-color="#EC1B67"/>
<stop offset="0.83" stop-color="#EC2067"/>
<stop offset="0.85" stop-color="#EE2E69"/>
<stop offset="0.88" stop-color="#F0456B"/>
<stop offset="0.9" stop-color="#F4656D"/>
<stop offset="0.93" stop-color="#F88E71"/>
<stop offset="0.95" stop-color="#FCB574"/>
</linearGradient>
<linearGradient id="paint10_linear_3_79" x1="150.043" y1="178.537" x2="94.0507" y2="178.537" gradientUnits="userSpaceOnUse">
<stop stop-color="#FCB574"/>
<stop offset="0.18" stop-color="#EC1B67"/>
<stop offset="0.87" stop-color="#563085"/>
</linearGradient>
<linearGradient id="paint11_linear_3_79" x1="158.422" y1="124.505" x2="126.326" y2="124.505" gradientUnits="userSpaceOnUse">
<stop stop-color="#FCB574"/>
<stop offset="0.18" stop-color="#EC1B67"/>
<stop offset="0.87" stop-color="#563085"/>
</linearGradient>
<linearGradient id="paint12_linear_3_79" x1="116.228" y1="84.9258" x2="116.228" y2="178.938" gradientUnits="userSpaceOnUse">
<stop offset="0.03" stop-color="#563085"/>
<stop offset="0.81" stop-color="#EC1B67"/>
<stop offset="0.83" stop-color="#EC2067"/>
<stop offset="0.85" stop-color="#EE2E69"/>
<stop offset="0.88" stop-color="#F0456B"/>
<stop offset="0.9" stop-color="#F4656D"/>
<stop offset="0.93" stop-color="#F88E71"/>
<stop offset="0.95" stop-color="#FCB574"/>
</linearGradient>
<linearGradient id="paint13_linear_3_79" x1="123.719" y1="92.8241" x2="123.719" y2="167.215" gradientUnits="userSpaceOnUse">
<stop offset="0.03" stop-color="#563085"/>
<stop offset="0.81" stop-color="#EC1B67"/>
<stop offset="0.83" stop-color="#EC2067"/>
<stop offset="0.85" stop-color="#EE2E69"/>
<stop offset="0.88" stop-color="#F0456B"/>
<stop offset="0.9" stop-color="#F4656D"/>
<stop offset="0.93" stop-color="#F88E71"/>
<stop offset="0.95" stop-color="#FCB574"/>
</linearGradient>
<linearGradient id="paint14_linear_3_79" x1="190.659" y1="84.8471" x2="190.659" y2="152.733" gradientUnits="userSpaceOnUse">
<stop offset="0.03" stop-color="#563085"/>
<stop offset="0.81" stop-color="#EC1B67"/>
<stop offset="0.83" stop-color="#EC2067"/>
<stop offset="0.85" stop-color="#EE2E69"/>
<stop offset="0.88" stop-color="#F0456B"/>
<stop offset="0.9" stop-color="#F4656D"/>
<stop offset="0.93" stop-color="#F88E71"/>
<stop offset="0.95" stop-color="#FCB574"/>
</linearGradient>
<linearGradient id="paint15_linear_3_79" x1="153.575" y1="88.7295" x2="151.824" y2="96.8116" gradientUnits="userSpaceOnUse">
<stop stop-color="#563085"/>
<stop offset="0.84" stop-color="#EC1B67"/>
</linearGradient>
<linearGradient id="paint16_linear_3_79" x1="274.463" y1="192.373" x2="274.463" y2="133.274" gradientUnits="userSpaceOnUse">
<stop stop-color="#FCB574"/>
<stop offset="0.07" stop-color="#EC1B67"/>
<stop offset="0.53" stop-color="#563085"/>
</linearGradient>
<linearGradient id="paint17_linear_3_79" x1="256.184" y1="188.401" x2="256.184" y2="21.2348" gradientUnits="userSpaceOnUse">
<stop stop-color="#FCB574"/>
<stop offset="0.18" stop-color="#EC1B67"/>
<stop offset="0.87" stop-color="#563085"/>
</linearGradient>
<linearGradient id="paint18_linear_3_79" x1="210.288" y1="243.71" x2="210.288" y2="22.499" gradientUnits="userSpaceOnUse">
<stop stop-color="#FBAF73"/>
<stop offset="0.04" stop-color="#F78270"/>
<stop offset="0.08" stop-color="#F35D6D"/>
<stop offset="0.11" stop-color="#F0406A"/>
<stop offset="0.15" stop-color="#EE2B68"/>
<stop offset="0.19" stop-color="#EC1F67"/>
<stop offset="0.22" stop-color="#EC1B67"/>
<stop offset="1" stop-color="#563085"/>
</linearGradient>
<linearGradient id="paint19_linear_3_79" x1="197.046" y1="66.6864" x2="197.046" y2="188.041" gradientUnits="userSpaceOnUse">
<stop stop-color="#563085"/>
<stop offset="0.81" stop-color="#EC1B67"/>
<stop offset="0.83" stop-color="#EC2067"/>
<stop offset="0.85" stop-color="#EE2E69"/>
<stop offset="0.88" stop-color="#F0456B"/>
<stop offset="0.9" stop-color="#F4656D"/>
<stop offset="0.93" stop-color="#F88E71"/>
<stop offset="0.95" stop-color="#FCB574"/>
</linearGradient>
<linearGradient id="paint20_linear_3_79" x1="161.872" y1="151.516" x2="191.795" y2="151.516" gradientUnits="userSpaceOnUse">
<stop stop-color="#FCB574"/>
<stop offset="0.18" stop-color="#EC1B67"/>
<stop offset="0.87" stop-color="#563085"/>
</linearGradient>
<linearGradient id="paint21_linear_3_79" x1="150.217" y1="161.666" x2="226.74" y2="161.666" gradientUnits="userSpaceOnUse">
<stop stop-color="#FCB574"/>
<stop offset="0.18" stop-color="#EC1B67"/>
<stop offset="0.87" stop-color="#563085"/>
</linearGradient>
</defs>
</svg>
