<svg width="60" height="61" viewBox="0 0 60 61" fill="none" xmlns="http://www.w3.org/2000/svg">
<path d="M52 15.2532H8V50.5966C8 51.2215 8.24834 51.8208 8.69039 52.2627C9.13244 52.7045 9.73199 52.9528 10.3571 52.9528H49.6429C50.268 52.9528 50.8676 52.7045 51.3096 52.2627C51.7517 51.8208 52 51.2215 52 50.5966V15.2532ZM32.3571 36.4592C32.3571 36.6675 32.2744 36.8673 32.127 37.0146C31.9797 37.1619 31.7798 37.2446 31.5714 37.2446H28.9448L30.8022 39.1013C30.9495 39.2486 31.0323 39.4484 31.0323 39.6566C31.0323 39.8649 30.9495 40.0646 30.8022 40.2119L27.4684 43.5444C27.3211 43.6916 27.1213 43.7743 26.9129 43.7743C26.7046 43.7743 26.5048 43.6916 26.3574 43.5444L24.5 41.6877V44.3133C24.5 44.5216 24.4172 44.7214 24.2699 44.8687C24.1225 45.016 23.9227 45.0987 23.7143 45.0987H19C18.7916 45.0987 18.5918 45.016 18.4444 44.8687C18.2971 44.7214 18.2143 44.5216 18.2143 44.3133V41.6877L16.3569 43.5444C16.2095 43.6916 16.0097 43.7743 15.8014 43.7743C15.593 43.7743 15.3932 43.6916 15.2459 43.5444L11.9121 40.2119C11.7648 40.0646 11.682 39.8649 11.682 39.6566C11.682 39.4484 11.7648 39.2486 11.9121 39.1013L13.7695 37.2446H11.1429C10.9345 37.2446 10.7346 37.1619 10.5873 37.0146C10.4399 36.8673 10.3571 36.6675 10.3571 36.4592V31.7468C10.3571 31.5385 10.4399 31.3387 10.5873 31.1914C10.7346 31.0441 10.9345 30.9614 11.1429 30.9614H13.7695L11.9121 29.1047C11.7648 28.9574 11.682 28.7577 11.682 28.5494C11.682 28.3411 11.7648 28.1414 11.9121 27.9941L15.2459 24.6616C15.3932 24.5144 15.593 24.4317 15.8014 24.4317C16.0097 24.4317 16.2095 24.5144 16.3569 24.6616L18.2143 26.5183V23.8927C18.2143 23.6844 18.2971 23.4846 18.4444 23.3373C18.5918 23.1901 18.7916 23.1073 19 23.1073H23.7143C23.9227 23.1073 24.1225 23.1901 24.2699 23.3373C24.4172 23.4846 24.5 23.6844 24.5 23.8927V26.5183L26.3574 24.6616C26.5048 24.5144 26.7046 24.4317 26.9129 24.4317C27.1213 24.4317 27.3211 24.5144 27.4684 24.6616L30.8022 27.9941C30.9495 28.1414 31.0323 28.3411 31.0323 28.5494C31.0323 28.7577 30.9495 28.9574 30.8022 29.1047L28.9448 30.9614H31.5714C31.7798 30.9614 31.9797 31.0441 32.127 31.1914C32.2744 31.3387 32.3571 31.5385 32.3571 31.7468V36.4592ZM43.3571 34.063V38.96C43.8151 39.1218 44.2119 39.4212 44.4932 39.8171C44.7745 40.213 44.9266 40.6861 44.9286 41.1717V47.4549C44.9286 48.0798 44.6802 48.6792 44.2382 49.121C43.7961 49.5629 43.1966 49.8112 42.5714 49.8112C41.9463 49.8112 41.3467 49.5629 40.9047 49.121C40.4626 48.6792 40.2143 48.0798 40.2143 47.4549V41.1717C40.2163 40.6861 40.3684 40.213 40.6496 39.8171C40.9309 39.4212 41.3277 39.1218 41.7857 38.96V34.063C39.7801 33.8615 37.9286 32.8971 36.6143 31.3694C35.2999 29.8417 34.6232 27.8675 34.7241 25.8551C34.8251 23.8426 35.6959 21.9459 37.1564 20.5573C38.617 19.1686 40.5557 18.3942 42.5714 18.3942C44.5872 18.3942 46.5258 19.1686 47.9864 20.5573C49.447 21.9459 50.3178 23.8426 50.4187 25.8551C50.5196 27.8675 49.8429 29.8417 48.5286 31.3694C47.2142 32.8971 45.3628 33.8615 43.3571 34.063Z" fill="#222222"/>
<path d="M27.2759 32.0092C27.2024 31.8017 27.118 31.5983 27.0229 31.3997C26.9533 31.2528 26.9311 31.0879 26.9592 30.9279C26.9874 30.7678 27.0645 30.6204 27.18 30.5059L29.1349 28.5495L26.9121 26.3276L24.9541 28.284C24.8397 28.3993 24.6924 28.4763 24.5324 28.5044C24.3724 28.5326 24.2076 28.5105 24.0607 28.4411C23.8618 28.3459 23.658 28.2612 23.4502 28.1874C23.2969 28.1329 23.1643 28.0322 23.0707 27.8991C22.9771 27.766 22.9271 27.6071 22.9277 27.4444V24.6782H19.7849V27.446C19.7848 27.6082 19.7344 27.7665 19.6407 27.899C19.547 28.0314 19.4146 28.1317 19.2616 28.1859C19.054 28.2593 18.8505 28.3437 18.6519 28.4388C18.5049 28.5083 18.34 28.5305 18.1798 28.5024C18.0197 28.4742 17.8722 28.3971 17.7577 28.2817L15.8005 26.3276L13.5777 28.5495L15.5349 30.5067C15.6503 30.6211 15.7273 30.7684 15.7555 30.9283C15.7836 31.0882 15.7615 31.2529 15.6921 31.3997C15.5968 31.5986 15.5121 31.8023 15.4383 32.01C15.3839 32.1629 15.2835 32.2952 15.1508 32.3888C15.0181 32.4823 14.8597 32.5324 14.6974 32.5323H11.9277V35.6739H14.6966C14.8589 35.674 15.0172 35.7244 15.1497 35.818C15.2823 35.9117 15.3825 36.0441 15.4367 36.197C15.5102 36.4045 15.5947 36.608 15.6897 36.8065C15.7593 36.9534 15.7815 37.1183 15.7534 37.2784C15.7252 37.4385 15.6481 37.5859 15.5326 37.7003L13.5777 39.6567L15.8005 41.8786L17.7585 39.9222C17.8729 39.8069 18.0202 39.7299 18.1802 39.7018C18.3402 39.6736 18.505 39.6958 18.6519 39.7651C18.8508 39.8603 19.0546 39.945 19.2624 40.0188C19.4153 40.0732 19.5477 40.1736 19.6413 40.3062C19.7348 40.4388 19.785 40.5972 19.7849 40.7594V43.528H22.9277V40.7602C22.9278 40.598 22.9782 40.4397 23.0719 40.3073C23.1656 40.1748 23.298 40.0746 23.451 40.0204C23.6586 39.9469 23.8621 39.8625 24.0607 39.7675C24.2077 39.698 24.3727 39.6757 24.5328 39.7039C24.6929 39.732 24.8404 39.8091 24.9549 39.9246L26.9121 41.8786L29.1349 39.6567L27.1777 37.6995C27.0623 37.5851 26.9853 37.4379 26.9572 37.2779C26.929 37.118 26.9512 36.9533 27.0205 36.8065C27.1158 36.6077 27.2005 36.404 27.2743 36.1962C27.3288 36.0429 27.4296 35.9104 27.5628 35.8168C27.6959 35.7232 27.8548 35.6733 28.0176 35.6739H30.7849V32.5323H28.016C27.8537 32.5322 27.6954 32.4819 27.5629 32.3882C27.4303 32.2945 27.3301 32.1621 27.2759 32.0092V32.0092ZM21.3563 38.8156C20.4239 38.8156 19.5124 38.5392 18.7372 38.0214C17.9619 37.5036 17.3577 36.7676 17.0009 35.9065C16.6441 35.0454 16.5507 34.0979 16.7326 33.1838C16.9145 32.2696 17.3635 31.43 18.0228 30.7709C18.6821 30.1119 19.5221 29.663 20.4366 29.4812C21.3511 29.2994 22.299 29.3927 23.1604 29.7494C24.0218 30.1061 24.7581 30.7101 25.2761 31.485C25.7941 32.26 26.0706 33.1711 26.0706 34.1031C26.0693 35.3525 25.5723 36.5505 24.6884 37.4339C23.8046 38.3174 22.6062 38.8143 21.3563 38.8156Z" fill="#222222"/>
<path d="M42.5709 40.3865C42.3625 40.3865 42.1626 40.4692 42.0153 40.6165C41.8679 40.7638 41.7852 40.9636 41.7852 41.1719V47.4551C41.7852 47.6634 41.8679 47.8632 42.0153 48.0105C42.1626 48.1578 42.3625 48.2405 42.5709 48.2405C42.7793 48.2405 42.9791 48.1578 43.1265 48.0105C43.2738 47.8632 43.3566 47.6634 43.3566 47.4551V41.1719C43.3566 40.9636 43.2738 40.7638 43.1265 40.6165C42.9791 40.4692 42.7793 40.3865 42.5709 40.3865Z" fill="#222222"/>
<path d="M42.5709 19.9658C41.3277 19.9658 40.1124 20.3343 39.0787 21.0247C38.045 21.7151 37.2394 22.6964 36.7636 23.8445C36.2879 24.9926 36.1634 26.256 36.4059 27.4748C36.6485 28.6937 37.2471 29.8132 38.1262 30.692C39.0053 31.5707 40.1253 32.1691 41.3446 32.4115C42.5639 32.654 43.8277 32.5296 44.9763 32.054C46.1249 31.5784 47.1066 30.7731 47.7973 29.7398C48.4879 28.7065 48.8566 27.4917 48.8566 26.249C48.8547 24.5832 48.1919 22.9861 47.0135 21.8082C45.8351 20.6302 44.2374 19.9676 42.5709 19.9658V19.9658ZM42.5709 31.7469C41.4831 31.7469 40.4197 31.4244 39.5152 30.8203C38.6108 30.2162 37.9058 29.3576 37.4895 28.353C37.0733 27.3484 36.9643 26.2429 37.1766 25.1764C37.3888 24.11 37.9126 23.1303 38.6818 22.3615C39.451 21.5926 40.431 21.0689 41.4979 20.8568C42.5648 20.6447 43.6706 20.7535 44.6756 21.1697C45.6806 21.5858 46.5396 22.2905 47.144 23.1946C47.7483 24.0987 48.0709 25.1616 48.0709 26.249C48.0692 27.7066 47.4892 29.1041 46.4581 30.1348C45.427 31.1654 44.0291 31.7452 42.5709 31.7469Z" fill="#222222"/>
<path d="M21.3577 37.2456C23.0935 37.2456 24.5006 35.8388 24.5006 34.1035C24.5006 32.3682 23.0935 30.9614 21.3577 30.9614C19.6219 30.9614 18.2148 32.3682 18.2148 34.1035C18.2148 35.8388 19.6219 37.2456 21.3577 37.2456Z" fill="#222222"/>
<path d="M42.5711 30.1759C44.7408 30.1759 46.4997 28.4177 46.4997 26.2488C46.4997 24.08 44.7408 22.3218 42.5711 22.3218C40.4015 22.3218 38.6426 24.08 38.6426 26.2488C38.6426 28.4177 40.4015 30.1759 42.5711 30.1759Z" fill="#222222"/>
<path d="M52 11.3266C52 10.7016 51.7517 10.1022 51.3096 9.66025C50.8676 9.21831 50.268 8.97003 49.6429 8.97003H10.3571C9.73199 8.97003 9.13244 9.21831 8.69039 9.66025C8.24834 10.1022 8 10.7016 8 11.3266V13.6831H52V11.3266ZM11.9286 12.1121H10.3571V10.5411H11.9286V12.1121ZM15.0714 12.1121H13.5V10.5411H15.0714V12.1121ZM18.2143 12.1121H16.6429V10.5411H18.2143V12.1121Z" fill="#222222"/>
</svg>
