<svg width="60" height="60" viewBox="0 0 60 60" fill="none" xmlns="http://www.w3.org/2000/svg">
<path d="M30.7624 23.931C29.2881 23.931 28.0929 25.1198 28.0929 26.5862V30L24.2794 33.7931H21.2285V52H39.5336C40.7974 52 41.8217 50.9812 41.8217 49.7241C41.8217 48.4671 40.7974 47.4483 39.5336 47.4483C40.7974 47.4483 41.8217 46.4294 41.8217 45.1724C41.8217 43.9154 40.7974 42.8965 39.5336 42.8965C40.7974 42.8965 41.8217 41.8777 41.8217 40.6207C41.8217 39.3637 40.7974 38.3448 39.5336 38.3448C40.7974 38.3448 41.8217 37.326 41.8217 36.069C41.8217 34.8119 40.7974 33.7931 39.5336 33.7931H33.4319V26.5862C33.4319 25.1198 32.2367 23.931 30.7624 23.931Z" fill="#222222"/>
<path d="M12.839 33.7931H7.5V52H12.839V33.7931Z" fill="#222222"/>
<path d="M25.6675 21.6552L30.381 19.3224L35.0946 21.6552L34.1946 16.715L38.0081 13.2155L32.7378 12.4948L30.381 8L28.0242 12.4948L22.7539 13.2155L26.5675 16.715L25.6675 21.6552Z" fill="#222222"/>
<path d="M41.3937 26.9655L45.6359 24.8922L49.8781 26.9655L49.0681 22.5739L52.5003 19.4635L47.757 18.8232L45.6359 14.8276L43.5148 18.8232L38.7715 19.4635L42.2037 22.5739L41.3937 26.9655Z" fill="#222222"/>
<path d="M10.8839 26.9655L15.1261 24.8922L19.3683 26.9655L18.5583 22.5739L21.9905 19.4635L17.2472 18.8232L15.1261 14.8276L13.005 18.8232L8.26172 19.4635L11.6939 22.5739L10.8839 26.9655Z" fill="#222222"/>
<path d="M19.7042 33.7931H14.3652V52H19.7042V33.7931ZM17.4161 49.7241H15.8907V48.2069H17.4161V49.7241ZM17.4161 46.6896H15.8907V45.1724H17.4161V46.6896ZM17.4161 43.6552H15.8907V42.1379H17.4161V43.6552Z" fill="#222222"/>
</svg>
