<svg width="60" height="61" viewBox="0 0 60 61" fill="none" xmlns="http://www.w3.org/2000/svg">
<path d="M38.6945 29.3055C36.754 30.3223 35.3166 32.0653 34.6697 34.2441C31.4355 44.7749 47.1753 49.7134 50.4095 39.1826C52.5656 32.1379 45.1629 25.8921 38.6945 29.3055ZM49.044 38.7469C46.3847 47.462 33.3761 43.3223 36.0353 34.6798C36.5384 32.9368 37.7602 31.4843 39.3414 30.6128C44.7317 27.7803 50.8407 32.8642 49.044 38.7469Z" fill="#222222"/>
<path d="M52.5675 48.1156L49.8364 43.2496C48.399 44.92 46.5303 46.0094 44.2305 46.3726L46.9616 51.3111C47.824 52.8363 49.7645 53.4173 51.2738 52.5458C52.855 51.6743 53.5018 49.7134 52.5675 48.1156Z" fill="#222222"/>
<path d="M23.3858 34.0262H21.0859V42.0151H23.3858V34.0262Z" fill="#222222"/>
<path d="M16.5596 37.7303H14.2598V42.0158H16.5596V37.7303Z" fill="#222222"/>
<path d="M30.2843 35.1156H27.9844V42.016H30.2843V35.1156Z" fill="#222222"/>
<path d="M33.3048 33.8082C34.8141 28.797 39.9169 26.1098 44.373 27.1266V18.4114C44.373 17.0315 43.223 15.8695 41.8575 15.8695H33.5204V12.2382C33.5204 10.4226 32.083 8.97003 30.2862 8.97003H21.518C19.7212 8.97003 18.2838 10.4226 18.2838 12.2382V15.7969H9.51549C8.14994 15.7969 7 16.9589 7 18.3388V45.2831C7 46.663 8.14994 47.825 9.51549 47.825H41.8575C42.3606 47.825 42.7918 47.6798 43.223 47.3893L42.648 46.4451C36.3953 46.3725 31.1487 40.7803 33.3048 33.8082ZM19.793 12.2382C19.793 11.2941 20.5836 10.4226 21.5898 10.4226H30.3581C31.3643 10.4226 32.1549 11.2214 32.1549 12.2382V15.7969H19.793V12.2382ZM13.4684 31.9925L20.368 25.1657C20.5836 24.9478 20.8711 24.8752 21.1586 25.0204L27.4833 27.7076L33.6642 22.4059H32.2986C31.9393 22.4059 31.5799 22.1154 31.5799 21.6796C31.5799 21.3165 31.9393 20.9533 32.2986 20.9533H35.6766C36.1078 20.9533 36.3953 21.3165 36.3953 21.7522C36.1078 24.2215 36.0359 24.9478 36.0359 25.093C35.964 25.4562 35.6766 25.7467 35.3172 25.7467C34.886 25.7467 34.5985 25.3835 34.5985 24.9478L34.7422 23.35L28.1301 29.0148C27.9145 29.2327 27.627 29.2327 27.4114 29.1601L21.0867 26.4729L14.5465 32.9367C14.259 33.2272 13.8278 33.2272 13.5403 32.9367C13.1809 32.7188 13.1809 32.2104 13.4684 31.9925ZM17.9963 42.7412C17.9963 43.1769 17.7088 43.4674 17.2776 43.4674H13.5403C13.109 43.4674 12.8216 43.1769 12.8216 42.7412V37.0037C12.8216 36.568 13.109 36.2775 13.5403 36.2775H17.2776C17.7088 36.2775 17.9963 36.568 17.9963 37.0037V42.7412ZM24.824 42.7412C24.824 43.1769 24.4647 43.4674 24.1053 43.4674H20.368C20.0087 43.4674 19.6493 43.1769 19.6493 42.7412V33.2998C19.6493 32.864 20.0087 32.5735 20.368 32.5735H24.1053C24.4647 32.5735 24.824 32.864 24.824 33.2998V42.7412ZM31.7236 42.7412C31.7236 43.1769 31.3643 43.4674 31.0049 43.4674H27.2676C26.9083 43.4674 26.5489 43.1769 26.5489 42.7412V34.3892C26.5489 34.026 26.9083 33.6629 27.2676 33.6629H31.0049C31.3643 33.6629 31.7236 34.026 31.7236 34.3892V42.7412Z" fill="#222222"/>
</svg>
