<svg width="60" height="60" viewBox="0 0 60 60" fill="none" xmlns="http://www.w3.org/2000/svg">
<path d="M45.1139 22.0387C44.396 24.3785 42.2312 26.0785 39.6718 26.0785C36.5265 26.0785 33.9765 23.5104 33.9765 20.3427C33.9765 17.1749 36.5265 14.6069 39.6718 14.6069V20.3427L45.1139 22.0387ZM45.9867 21.4137C46.1511 20.8777 46.24 20.3084 46.24 19.7177C46.24 16.55 43.69 13.9819 40.5447 13.9819V19.7177L45.9867 21.4137ZM52 35.9178V41.231H51.9961C51.9378 42.747 50.7001 43.9582 49.1805 43.9582H34.9056C34.9308 44.5956 35.2833 47.4869 39.5721 48.0299H39.3667C40.0441 48.0299 40.5931 48.5828 40.5931 49.2649C40.5931 49.9471 40.0441 50.5 39.3667 50.5H20.5647C19.8873 50.5 19.3383 49.9471 19.3383 49.2649C19.3383 48.5828 19.8873 48.0299 20.5647 48.0299H20.4269C24.7157 47.4869 25.0682 44.5951 25.0934 43.9582H10.819C9.29942 43.9582 8.06171 42.747 8.00346 41.231H8.00148V41.1703C8.00099 41.1534 8 41.1365 8 41.1196V40.8829C8 40.866 8.00099 40.8491 8.00148 40.8322V36.5224C8.00148 36.509 8.00049 36.4961 8.00049 36.4826V12.7219C8.00049 10.9454 9.43568 9.5 11.1997 9.5H48.7989C50.5628 9.5 51.998 10.9454 51.998 12.7219V35.9188L52 35.9178ZM31.5648 40.7805C31.5648 39.9104 30.8642 39.2049 30.0002 39.2049C29.1363 39.2049 28.4357 39.9104 28.4357 40.7805C28.4357 41.6506 29.1363 42.3562 30.0002 42.3562C30.8642 42.3562 31.5648 41.6511 31.5648 40.7805ZM49.3602 12.7219C49.3602 12.4107 49.1084 12.1571 48.7993 12.1571H11.2002C10.8911 12.1571 10.6393 12.4102 10.6393 12.7219V36.4831C10.6393 36.7944 10.8911 37.048 11.2002 37.048H48.7993C49.1084 37.048 49.3602 36.7949 49.3602 36.4831V12.7219ZM15.7871 27.7735C15.7871 27.5353 15.5956 27.3424 15.3591 27.3424H13.0199C12.7835 27.3424 12.5919 27.5353 12.5919 27.7735V34.5699C12.5919 34.808 12.7835 35.0009 13.0199 35.0009H15.3591C15.5956 35.0009 15.7871 34.808 15.7871 34.5699V27.7735ZM20.7567 22.8153C20.7567 22.5771 20.5652 22.3842 20.3287 22.3842H17.9895C17.753 22.3842 17.5615 22.5771 17.5615 22.8153V34.5694C17.5615 34.8075 17.753 35.0004 17.9895 35.0004H20.3287C20.5652 35.0004 20.7567 34.8075 20.7567 34.5694V22.8153ZM25.7263 17.5876C25.7263 17.3495 25.5347 17.1565 25.2983 17.1565H22.9591C22.7226 17.1565 22.5311 17.3495 22.5311 17.5876V34.5694C22.5311 34.8075 22.7226 35.0004 22.9591 35.0004H25.2983C25.5347 35.0004 25.7263 34.8075 25.7263 34.5694V17.5876ZM30.6959 22.1147C30.6959 21.8766 30.5043 21.6837 30.2678 21.6837H27.9287C27.6922 21.6837 27.5006 21.8766 27.5006 22.1147V34.5699C27.5006 34.808 27.6922 35.0009 27.9287 35.0009H30.2678C30.5043 35.0009 30.6959 34.808 30.6959 34.5699V22.1147ZM46.355 28.0156H33.4586V29.3332H46.355V28.0156ZM46.355 30.6722H33.4586V31.9898H46.355V30.6722ZM42.636 33.3562H33.4586V34.6738H42.636V33.3562Z" fill="#222222"/>
</svg>
