<svg width="60" height="61" viewBox="0 0 60 61" fill="none" xmlns="http://www.w3.org/2000/svg">
<path d="M47.8542 19.7758H12.1445V48.2801H47.8542V19.7758ZM21.3564 45.1874C21.3564 45.3696 21.2085 45.5171 21.0258 45.5171H17.0513C16.8685 45.5171 16.7206 45.3696 16.7206 45.1874V41.1655C16.7206 40.9832 16.8685 40.8358 17.0513 40.8358H21.0258C21.2085 40.8358 21.3564 40.9832 21.3564 41.1655V45.1874ZM21.3564 37.3664C21.3564 37.5486 21.2085 37.696 21.0258 37.696H17.0513C16.8685 37.696 16.7206 37.5486 16.7206 37.3664V33.3444C16.7206 33.1622 16.8685 33.0148 17.0513 33.0148H21.0258C21.2085 33.0148 21.3564 33.1622 21.3564 33.3444V37.3664ZM33.0814 44.6182H24.3319C24.1491 44.6182 24.0013 44.4707 24.0013 44.2885C24.0013 44.1062 24.1491 43.9588 24.3319 43.9588H33.0814C33.2642 43.9588 33.4121 44.1062 33.4121 44.2885C33.4121 44.4707 33.2642 44.6182 33.0814 44.6182ZM42.9455 42.0631H24.3319C24.1491 42.0631 24.0013 41.9156 24.0013 41.7334C24.0013 41.5512 24.1491 41.4037 24.3319 41.4037H42.9455C43.1283 41.4037 43.2762 41.5512 43.2762 41.7334C43.2762 41.9156 43.1283 42.0631 42.9455 42.0631ZM24.0013 36.4674C24.0013 36.2852 24.1492 36.1378 24.3319 36.1378H33.0814C33.2642 36.1378 33.4121 36.2852 33.4121 36.4674C33.4121 36.6497 33.2642 36.7971 33.0814 36.7971H24.3319C24.1491 36.7971 24.0013 36.6497 24.0013 36.4674ZM42.9455 34.2421H24.3319C24.1491 34.2421 24.0013 34.0946 24.0013 33.9124C24.0013 33.7302 24.1491 33.5827 24.3319 33.5827H42.9455C43.1283 33.5827 43.2762 33.7302 43.2762 33.9124C43.2762 34.0946 43.1283 34.2421 42.9455 34.2421ZM45.3547 28.2266C45.3547 29.1358 44.613 29.875 43.7014 29.875C34.0916 29.875 25.7637 29.875 16.2973 29.875C15.3858 29.875 14.6441 29.1358 14.6441 28.2266V24.1873C14.6441 23.2781 15.3858 22.5389 16.2973 22.5389C25.6594 22.5389 34.042 22.5389 43.7014 22.5389C44.613 22.5389 45.3547 23.2781 45.3547 24.1873V28.2266Z" fill="#222222"/>
<path d="M20.6941 33.6741H17.3809V37.0366H20.6941V33.6741Z" fill="#222222"/>
<path d="M9.5 49.269C9.5 50.1782 10.2417 50.9174 11.1532 50.9174H48.8468C49.7583 50.9174 50.5 50.1782 50.5 49.269V17.1382H9.5V49.269ZM11.4839 19.446C11.4839 19.2638 11.6318 19.1163 11.8145 19.1163H48.1855C48.3682 19.1163 48.5161 19.2638 48.5161 19.446V48.6096C48.5161 48.7919 48.3682 48.9393 48.1855 48.9393H11.8145C11.6318 48.9393 11.4839 48.7919 11.4839 48.6096V19.446V19.446Z" fill="#222222"/>
<path d="M43.6998 23.1983H37.0801V29.2165H43.6998C44.2467 29.2165 44.6917 28.7728 44.6917 28.2273V24.1875C44.6917 23.642 44.2468 23.1983 43.6998 23.1983ZM42.8764 28.1423C42.748 28.2735 42.5388 28.2751 42.4088 28.1487L41.4343 27.2027C40.7246 27.6751 39.7811 27.5828 39.1831 26.9998C38.4861 26.3286 38.4766 25.2279 39.1844 24.5456C39.8738 23.8668 40.9991 23.8661 41.6904 24.5481C42.3058 25.1413 42.382 26.0672 41.9085 26.7427L42.8699 27.676C43.001 27.8029 43.0036 28.0122 42.8764 28.1423Z" fill="#222222"/>
<path d="M14.1292 13.1266C13.8047 13.1266 13.541 13.3869 13.541 13.7064C13.541 14.0259 13.8047 14.2855 14.1292 14.2855C14.4452 14.2855 14.7025 14.0259 14.7025 13.7064C14.7025 13.3869 14.4452 13.1266 14.1292 13.1266Z" fill="#222222"/>
<path d="M15.3066 24.1875V28.2273C15.3066 28.7728 15.7516 29.2165 16.2986 29.2165H36.4218V23.1983H16.2986C15.7516 23.1983 15.3066 23.642 15.3066 24.1875ZM18.1517 24.9223C18.1517 24.74 18.2996 24.5926 18.4823 24.5926C18.6651 24.5926 18.813 24.74 18.813 24.9223V27.497C18.813 27.6793 18.6651 27.8267 18.4823 27.8267C18.2996 27.8267 18.1517 27.6793 18.1517 27.497V24.9223Z" fill="#222222"/>
<path d="M20.6941 41.4952H17.3809V44.8577H20.6941V41.4952Z" fill="#222222"/>
<path d="M39.6507 25.0172C39.2045 25.4482 39.2221 26.1173 39.6478 26.5277C40.0852 26.9535 40.7947 26.9548 41.2302 26.529C41.2308 26.5284 41.2311 26.5277 41.2318 26.5277C41.6619 26.1131 41.6698 25.443 41.2315 25.0197C40.7937 24.5887 40.087 24.5876 39.6507 25.0172Z" fill="#222222"/>
<path d="M20.9631 13.1266C20.6387 13.1266 20.375 13.3869 20.375 13.7064C20.375 14.0259 20.6387 14.2855 20.9631 14.2855C21.2792 14.2855 21.5364 14.0259 21.5364 13.7064C21.5364 13.3869 21.2792 13.1266 20.9631 13.1266Z" fill="#222222"/>
<path d="M17.5429 13.1266C17.2188 13.1266 16.9551 13.3869 16.9551 13.7064C16.9551 14.0259 17.2188 14.2855 17.5429 14.2855C17.8592 14.2855 18.1165 14.0259 18.1165 13.7064C18.1165 13.3869 17.8592 13.1266 17.5429 13.1266Z" fill="#222222"/>
<path d="M48.8468 10.9337H11.1532C10.2417 10.9337 9.5 11.673 9.5 12.5823V16.4798H50.5V12.5823C50.5 11.673 49.7583 10.9337 48.8468 10.9337ZM14.1274 14.9451C13.4384 14.9451 12.8778 14.3894 12.8778 13.7067C12.8778 13.0234 13.4384 12.4677 14.1274 12.4677C14.8084 12.4677 15.3622 13.0234 15.3622 13.7067C15.3622 14.3894 14.8084 14.9451 14.1274 14.9451ZM17.5453 14.9451C16.8565 14.9451 16.296 14.3894 16.296 13.7067C16.296 13.0234 16.8565 12.4677 17.5453 12.4677C18.2263 12.4677 18.7803 13.0234 18.7803 13.7067C18.7803 14.3894 18.2263 14.9451 17.5453 14.9451ZM20.9634 14.9451C20.2744 14.9451 19.7138 14.3894 19.7138 13.7067C19.7138 13.0234 20.2744 12.4677 20.9634 12.4677C21.6444 12.4677 22.1982 13.0234 22.1982 13.7067C22.1982 14.3894 21.6444 14.9451 20.9634 14.9451ZM46.4315 14.0364H25.2289C25.0461 14.0364 24.8982 13.889 24.8982 13.7067C24.8982 13.5245 25.0461 13.377 25.2289 13.377H46.4315C46.6143 13.377 46.7622 13.5245 46.7622 13.7067C46.7622 13.889 46.6143 14.0364 46.4315 14.0364Z" fill="#222222"/>
</svg>
