<svg width="60" height="60" viewBox="0 0 60 60" fill="none" xmlns="http://www.w3.org/2000/svg">
<path d="M9.83333 15.3333H42.8333C44.6667 15.3333 44.6667 15.3333 44.6667 17.1667V50.1667C44.6667 52 44.6667 52 42.8333 52H9.83333C8 52 8 52 8 50.1667V17.1667C8 15.3333 8 15.3333 9.83333 15.3333ZM16.8367 24.2067C14.4167 26.6267 14.49 30.5133 16.8733 32.86L21.0533 37.04C21.4567 37.4433 21.8967 37.81 22.41 38.0667C25.1967 39.68 28.7533 38.8 30.4767 36.1967L27.9833 33.7767C27.4333 35.06 26.04 35.7933 24.5733 35.61C24.0233 35.4633 23.51 35.2067 23.1067 34.8033L19.1467 30.8433C17.9733 29.67 18.0833 27.7267 19.22 26.5533C20.3933 25.4167 22.3 25.3433 23.4733 26.5167L24.28 27.3233C25.4167 26.8833 26.7 26.5167 28.35 27.03L25.5267 24.2067C23.18 21.86 19.2567 21.75 16.8367 24.2067ZM17.1667 8H50.1667C52 8 52 8 52 9.83333V42.8333C52 44.6667 52 44.6667 50.1667 44.6667H48.3333V11.6667H15.3333V9.83333C15.3333 8 15.3333 8 17.1667 8ZM30.44 29.4133C27.6167 27.8367 24.06 28.7167 22.3367 31.2833L24.83 33.7033C25.38 32.42 26.7733 31.6867 28.24 31.9067C28.79 32.0167 29.3033 32.2733 29.7067 32.7133L33.52 36.49C34.6933 37.6633 34.5833 39.6067 33.4467 40.78C32.31 41.9167 30.3667 41.99 29.1933 40.8167L28.3867 40.01C27.25 40.4867 25.9667 40.8533 24.3167 40.3033L27.14 43.1267C29.4867 45.51 33.41 45.5833 35.83 43.1633C38.25 40.7067 38.1767 36.8567 35.7933 34.4733L31.76 30.44C31.3567 30.0367 30.9167 29.67 30.44 29.4133Z" fill="#222222"/>
</svg>
