<svg width="60" height="61" viewBox="0 0 60 61" fill="none" xmlns="http://www.w3.org/2000/svg">
<path d="M28.1918 14.5889H17.7793V23.1318H28.1918V14.5889ZM21.2793 21.3603V16.362L25.6368 18.8612L21.2793 21.3603Z" fill="#222222"/>
<path d="M13.9742 57.3793H46.0258C48.2208 57.3793 50 55.612 50 53.4315V8.34781C50 6.16738 48.2208 4.40002 46.0258 4.40002H13.9742C11.7792 4.40002 10 6.16738 10 8.34781V53.4315C10 55.612 11.7792 57.3793 13.9742 57.3793ZM20.3275 36.1148V32.5759C22.295 32.5759 23.89 34.1603 23.89 36.1148H20.3275ZM43.97 49.6294H26.5633V47.9738H43.97V49.6294ZM43.97 46.7255H26.5633V45.0699H43.97V46.7255ZM43.97 39.1089H26.5633V37.4533H43.97V39.1089ZM43.97 36.205H26.5633V34.5494H43.97V36.205ZM42.4892 20.6994H44.1558V25.5321H42.4892V20.6994ZM40.1367 16.4023H41.8033V25.533H40.1367V16.4023ZM37.785 12.1888H39.4517V25.533H37.785V12.1888ZM35.4325 16.6838H37.0992V25.5321H35.4325V16.6838ZM33.0792 22.8699H34.7458V25.533H33.0792V22.8699ZM16.1117 14.2989C16.1117 13.5481 16.73 12.9338 17.4858 12.9338H28.4825C29.2383 12.9338 29.8567 13.5481 29.8567 14.2989V23.4229C29.8567 24.1737 29.2383 24.7879 28.4825 24.7879H17.4858C16.73 24.7879 16.1117 24.1737 16.1117 23.4229V14.2989ZM19.5933 33.306V36.8449H23.1558C23.1558 38.7993 21.5608 40.3837 19.5933 40.3837C17.6258 40.3837 16.0308 38.7993 16.0308 36.8449C16.03 34.8904 17.625 33.306 19.5933 33.306ZM23.89 46.9739H20.3275V43.435C22.295 43.435 23.89 45.0194 23.89 46.9739ZM19.5933 44.1643V47.7031H23.1558C23.1558 49.6576 21.5608 51.242 19.5933 51.242C17.6258 51.242 16.0308 49.6576 16.0308 47.7031C16.03 45.7487 17.625 44.1643 19.5933 44.1643Z" fill="#222222"/>
</svg>
