<svg width="60" height="60" viewBox="0 0 60 60" fill="none" xmlns="http://www.w3.org/2000/svg">
<path d="M16.3457 15.5756C16.3457 11.3819 19.7277 7.99988 23.9214 7.99988C28.1151 7.99988 31.4971 11.3819 31.4971 15.5756C31.4971 19.7693 28.1151 23.1513 23.9214 23.1513C19.7277 23.2189 16.3457 19.7693 16.3457 15.5756Z" fill="#222222"/>
<path d="M29.1968 43.3757H8.70179C8.29595 43.3757 8.02539 43.0375 8.02539 42.6992V36.4763C8.02539 29.9152 13.369 24.5717 19.9301 24.5717H19.9977C20.2683 24.5717 20.4712 24.7069 20.6065 24.9099L23.9209 31.471L27.2352 24.9099C27.3705 24.7069 27.5734 24.5717 27.844 24.5717H27.9793C31.0907 24.5717 33.9993 25.7892 36.1637 27.886C29.1968 29.1712 25.4766 37.1527 29.1968 43.3757Z" fill="#222222"/>
<path d="M51.1115 51.087C49.894 52.3045 48 52.3045 46.7825 51.087L42.8594 47.1638C43.7387 46.6903 44.618 46.0816 45.3621 45.3375C46.1061 44.5935 46.7149 43.7818 47.1884 42.8348L51.1115 46.758C52.2614 47.9755 52.2614 49.8694 51.1115 51.087Z" fill="#222222"/>
<path d="M44.4149 31.674C42.7239 29.983 40.4918 29.036 38.0567 29.036C35.6217 29.036 33.3895 29.983 31.6985 31.674C30.0075 33.365 29.0605 35.5971 29.0605 38.0322C29.0605 40.3996 30.0075 42.6993 31.6985 44.3904C33.3895 46.0814 35.6217 47.0283 38.0567 47.0283C40.4918 47.0283 42.7239 46.0814 44.4149 44.3904C46.1059 42.6993 47.0529 40.4672 47.0529 38.0322C46.9852 35.6648 46.1059 33.365 44.4149 31.674ZM43.4003 41.7524H32.7131C32.3073 41.7524 32.0367 41.4818 32.0367 41.076C32.0367 40.6701 32.3073 40.3996 32.7131 40.3996H33.863V37.8969C33.863 37.491 34.1336 37.2205 34.5394 37.2205C34.9453 37.2205 35.2158 37.491 35.2158 37.8969V40.3996H37.3803V35.5295C37.3803 35.1236 37.6509 34.8531 38.0567 34.8531C38.4625 34.8531 38.7331 35.1236 38.7331 35.5295V40.3996H40.9652V34.7178C40.9652 34.312 41.2358 34.0414 41.6416 34.0414C42.0475 34.0414 42.318 34.312 42.318 34.7178V40.3996H43.4679C43.8738 40.3996 44.1443 40.6701 44.1443 41.076C44.0767 41.4142 43.8061 41.7524 43.4003 41.7524Z" fill="#222222"/>
</svg>
