<svg width="63" height="63" viewBox="0 0 63 63" fill="none" xmlns="http://www.w3.org/2000/svg">
<path d="M56 31.5001C56 29.9608 55.8556 28.4201 55.5696 26.9242C55.4406 26.2471 54.8476 25.7578 54.1593 25.7578H31.5957C30.8022 25.7578 30.1602 26.3999 30.1602 27.1934V35.8066C30.1602 36.6001 30.8022 37.2422 31.5957 37.2422H43.1726C42.4513 38.7024 41.4572 39.9694 40.29 41.0354L48.4037 49.1491C53.0722 44.7013 56 38.4423 56 31.5001Z" fill="#B2D550"/>
<path d="M31.501 18.4844C34.3175 18.4844 36.9965 19.3788 39.2479 21.0723C39.817 21.4999 40.6204 21.448 41.125 20.9391L47.2513 14.8127C47.536 14.5281 47.6887 14.137 47.6705 13.7346C47.6523 13.3323 47.4673 12.9566 47.1588 12.6972C42.7751 9.02297 37.2137 7 31.501 7C23.0936 7 15.6662 11.2735 11.2754 17.762L19.7019 26.1885C21.7122 21.6602 26.2353 18.4844 31.501 18.4844Z" fill="#B2D550"/>
<path d="M31.501 56C36.9812 56 42.0277 54.1625 46.1055 51.1012L37.8395 42.8353C35.9501 43.8991 33.7907 44.5156 31.501 44.5156C26.2353 44.5156 21.7122 41.3398 19.7019 36.8115L11.2754 45.238C15.6662 51.7265 23.0936 56 31.501 56Z" fill="#B2D550"/>
<path d="M18.6934 33.5676C18.5834 32.8901 18.4844 32.2079 18.4844 31.4999C18.4844 30.792 18.5834 30.1098 18.6934 29.4323L9.68543 20.4243C7.98115 23.7529 7 27.5107 7 31.4999C7 35.4892 7.98115 39.247 9.68553 42.5755L18.6934 33.5676Z" fill="#B2D550"/>
</svg>
