<svg width="63" height="63" viewBox="0 0 63 63" fill="none" xmlns="http://www.w3.org/2000/svg">
<path fill-rule="evenodd" clip-rule="evenodd" d="M31.3756 11.9565C31.2755 11.9565 31.0924 11.9872 30.9892 12.1937L29.1093 15.9567C28.6824 16.8113 27.8578 17.4031 26.9033 17.5401L22.6997 18.1436C22.4692 18.1766 22.3828 18.3393 22.352 18.4331C22.321 18.5272 22.2941 18.7089 22.4609 18.8696L25.5027 21.7986C26.1933 22.464 26.5083 23.4218 26.3453 24.3609L25.6272 28.4967C25.5879 28.7236 25.7177 28.8548 25.7986 28.9129C25.8797 28.9712 26.0461 29.0524 26.2523 28.9454L30.012 26.9926C30.8657 26.5491 31.8849 26.5491 32.739 26.9926L36.4986 28.9453C36.7049 29.0526 36.8715 28.971 36.9524 28.9129C37.0333 28.8548 37.1632 28.7236 37.1238 28.4967L36.4058 24.3608C36.2428 23.4217 36.5578 22.464 37.2482 21.7987L40.2901 18.8696C40.457 18.7089 40.43 18.5272 40.3992 18.4331C40.3682 18.3393 40.282 18.1766 40.0514 18.1436L35.8479 17.5402C34.8934 17.4032 34.0687 16.8113 33.6418 15.9567L31.7618 12.1937C31.6587 11.9872 31.4755 11.9565 31.3756 11.9565ZM26.0491 31.4664C25.4441 31.4664 24.8434 31.2791 24.3297 30.9105C23.4207 30.258 22.9741 29.1732 23.1641 28.0793L23.8821 23.9434C23.9061 23.8052 23.8598 23.6644 23.7581 23.5665L20.7165 20.6377C19.912 19.8628 19.6279 18.7258 19.9751 17.6703C20.3223 16.6147 21.2286 15.8598 22.3404 15.7002L26.5438 15.0968C26.6841 15.0767 26.8055 14.9896 26.8683 14.864L28.7481 11.101C29.2453 10.1058 30.2522 9.48753 31.3756 9.48753C32.4989 9.48753 33.5057 10.1058 34.0031 11.101L35.8828 14.864C35.9455 14.9896 36.0669 15.0767 36.2073 15.0968L40.4107 15.7002C41.5224 15.8598 42.4287 16.6147 42.776 17.6702C43.1231 18.7257 42.839 19.8628 42.0346 20.6377L38.9929 23.5666C38.8914 23.6644 38.8451 23.8052 38.8691 23.9434L39.5871 28.0793C39.777 29.1732 39.3301 30.258 38.4213 30.9105C37.5124 31.5628 36.33 31.6471 35.3357 31.1307L31.5761 29.178C31.4505 29.1126 31.3005 29.1128 31.1751 29.178L27.4154 31.1307C26.9829 31.3552 26.5148 31.4664 26.0491 31.4664ZM47.6895 21.1565C47.6895 20.4747 48.2488 19.922 48.939 19.922H52.9053C52.6097 15.0016 50.6104 10.5275 47.4829 7.06794L44.7015 9.81603C44.4574 10.057 44.1375 10.1775 43.8178 10.1775C43.498 10.1775 43.1782 10.057 42.9342 9.81603C42.4462 9.33384 42.4462 8.55216 42.9342 8.07009L45.7135 5.32435C42.2083 2.24701 37.6811 0.283315 32.7046 0V3.88407C32.7046 4.56575 32.1452 5.11856 31.455 5.11856C30.7649 5.11856 30.2055 4.56575 30.2055 3.88407V0C25.229 0.283315 20.7018 2.24701 17.1965 5.32435L19.976 8.07009C20.464 8.55216 20.4639 9.33384 19.9759 9.81603C19.7319 10.057 19.4121 10.1775 19.0923 10.1775C18.7726 10.1775 18.4528 10.057 18.2087 9.81603L15.4271 7.06794C12.2997 10.5275 10.3005 15.0016 10.0047 19.9219H13.972C14.6622 19.9219 15.2216 20.4746 15.2216 21.1564C15.2216 21.8381 14.6622 22.3909 13.972 22.3909H10C10.2789 27.3218 12.269 31.8082 15.3917 35.2798L18.2087 32.4969C18.6967 32.015 19.4878 32.015 19.9759 32.4969C20.4639 32.979 20.4639 33.7607 19.976 34.2428L17.1567 37.028C20.6675 40.1253 25.2101 42.1028 30.2055 42.3871V38.4289C30.2055 37.7471 30.7649 37.1944 31.455 37.1944C32.1452 37.1944 32.7046 37.7471 32.7046 38.4289V42.3871C37.6998 42.1028 42.2427 40.1253 45.7535 37.0278L42.9342 34.2428C42.4462 33.7607 42.4462 32.979 42.9342 32.4969C43.4221 32.015 44.2133 32.015 44.7013 32.4969L47.5184 35.2798C50.6411 31.8082 52.6312 27.3219 52.9101 22.391H48.939C48.2488 22.391 47.6895 21.8382 47.6895 21.1565ZM46.9414 39.3744C42.7834 42.8248 37.4282 44.9101 31.5889 44.9229L37.4421 62.1582C37.5838 62.5753 37.9397 62.8865 38.376 62.9749C38.4595 62.9917 38.5435 63 38.6268 63C38.9792 63 39.3201 62.8525 39.5598 62.5867C41.5187 60.4147 43.4803 58.1585 44.363 57.1377L51.4925 58.6236C51.9312 58.715 52.3856 58.5674 52.6836 58.2366C52.9817 57.9058 53.0776 57.4427 52.9351 57.023L46.9414 39.3744ZM16.1277 39.3744L10.1339 57.023C9.99147 57.4427 10.0873 57.9058 10.3855 58.2366C10.6835 58.5674 11.1382 58.715 11.5766 58.6236L18.706 57.1377C19.5887 58.1585 21.5503 60.4147 23.5093 62.5867C23.749 62.8525 24.0899 63 24.4422 63C24.5256 63 24.6096 62.9917 24.693 62.9749C25.1294 62.8865 25.4853 62.5753 25.627 62.1582L31.4802 44.9229C25.6408 44.9101 20.2856 42.8248 16.1277 39.3744Z" fill="#B2D550"/>
</svg>
