<svg width="63" height="63" viewBox="0 0 63 63" fill="none" xmlns="http://www.w3.org/2000/svg">
<path d="M47.5012 25.2984H49.0324C49.4918 25.2984 49.798 24.9922 49.798 24.5328C49.798 24.0734 49.4918 23.7672 49.0324 23.7672H47.4246C46.659 15.9578 40.2277 9.75625 32.2652 9.37344V7.76562C32.2652 7.30625 31.959 7 31.4996 7C31.0402 7 30.734 7.30625 30.734 7.76562V9.37344C22.848 9.75625 16.4934 15.9578 15.7277 23.7672H13.9668C13.5074 23.7672 13.2012 24.0734 13.2012 24.5328C13.2012 24.9922 13.5074 25.2984 13.9668 25.2984H15.6512C15.6512 33.7203 22.3121 40.6109 30.734 41.0703V42.6781C30.734 43.1375 31.0402 43.4437 31.4996 43.4437C31.959 43.4437 32.2652 43.1375 32.2652 42.6781V41.0703C40.6871 40.7641 47.4246 33.7969 47.5012 25.2984ZM17.1824 25.2984H17.948C18.4074 25.2984 18.7137 24.9922 18.7137 24.5328C18.7137 24.0734 18.4074 23.7672 17.948 23.7672H17.259C18.0246 16.8 23.6902 11.3641 30.734 10.9047V11.6703C30.734 12.1297 31.0402 12.4359 31.4996 12.4359C31.959 12.4359 32.2652 12.1297 32.2652 11.6703V10.9047C39.3855 11.2109 45.1277 16.7234 45.8934 23.7672H45.0512C44.5918 23.7672 44.2855 24.0734 44.2855 24.5328C44.2855 24.9922 44.5918 25.2984 45.0512 25.2984H45.9699C45.9699 32.9547 39.8449 39.2328 32.2652 39.5391V38.7734C32.2652 38.3141 31.959 38.0078 31.4996 38.0078C31.0402 38.0078 30.734 38.3141 30.734 38.7734V39.5391C23.2309 39.1562 17.259 32.8781 17.1824 25.2984Z" fill="#B2D550"/>
<path d="M21.3937 45.8938C20.3219 47.1188 18.7141 47.8844 16.9531 47.8844C15.1922 47.8844 13.5844 47.1188 12.5125 45.8938C9.22031 47.5782 7 50.9469 7 54.7751V55.2344C7 55.6938 7.30625 56 7.76562 56H26.0641C26.5234 56 26.8297 55.6938 26.8297 55.2344V54.8516C26.8297 50.9469 24.6094 47.5782 21.3937 45.8938Z" fill="#B2D550"/>
<path d="M50.4875 45.8938C49.4156 47.1188 47.8078 47.8844 46.0469 47.8844C44.2859 47.8844 42.6781 47.1188 41.6063 45.8938C38.3906 47.5782 36.0938 50.9469 36.0938 54.7751V55.2344C36.0938 55.6938 36.4766 56 36.8594 56H55.2344C55.6172 56 56 55.6938 56 55.2344V54.8516C56 50.9469 53.7797 47.5782 50.4875 45.8938Z" fill="#B2D550"/>
<path d="M16.9539 46.4298C19.4039 46.4298 21.318 44.4392 21.318 42.0657C21.318 39.6923 19.3273 37.7017 16.9539 37.7017C14.5805 37.7017 12.5898 39.6923 12.5898 42.0657C12.5898 44.4392 14.5039 46.4298 16.9539 46.4298Z" fill="#B2D550"/>
<path d="M46.0477 37.625C43.5977 37.625 41.6836 39.6156 41.6836 41.9891C41.6836 44.4391 43.6742 46.3531 46.0477 46.3531C48.4977 46.3531 50.4117 44.3625 50.4117 41.9891C50.4883 39.6156 48.4977 37.625 46.0477 37.625Z" fill="#B2D550"/>
<path d="M41.5293 33.6437V33.2609C41.5293 29.3562 39.309 25.9875 36.0168 24.3796C34.9449 25.6046 33.3371 26.3703 31.5762 26.3703C29.8152 26.3703 28.2074 25.6046 27.1355 24.3796C23.8434 25.9875 21.623 29.3562 21.623 33.2609V33.6437C21.623 34.0265 22.0059 34.4093 22.3887 34.4093H40.7637C41.1465 34.4093 41.5293 34.1031 41.5293 33.6437Z" fill="#B2D550"/>
<path d="M31.577 24.839C34.027 24.839 35.941 22.8483 35.941 20.4749C35.941 18.1015 33.9504 16.1108 31.577 16.1108C29.127 16.1108 27.2129 18.1015 27.2129 20.4749C27.2129 22.8483 29.127 24.839 31.577 24.839Z" fill="#B2D550"/>
</svg>
