<svg width="47" height="47" viewBox="0 0 47 47" fill="none" xmlns="http://www.w3.org/2000/svg">
<path d="M19.2654 28.2305C18.9472 28.0144 18.5017 28.0911 18.2825 28.4048C17.2854 29.8268 16.6348 31.5974 16.3944 33.5282C16.3449 33.9116 16.6207 34.2602 17.0096 34.302C17.0379 34.302 17.0662 34.309 17.0945 34.309C17.4481 34.309 17.7521 34.051 17.7946 33.6955C18.0067 31.9947 18.5724 30.4402 19.4422 29.1994C19.6614 28.8788 19.5837 28.4466 19.2654 28.2305Z" fill="white"/>
<path d="M21.6964 25.651C21.0811 25.8741 20.494 26.2018 19.9494 26.6271C19.6453 26.8641 19.5887 27.3034 19.8292 27.6032C19.9706 27.7775 20.1757 27.8681 20.3879 27.8681C20.5435 27.8681 20.6991 27.8193 20.8264 27.7217C21.2579 27.387 21.7176 27.1291 22.1915 26.9548C22.5593 26.8223 22.7432 26.4179 22.6088 26.0554C22.4744 25.7067 22.0642 25.5185 21.6964 25.651Z" fill="white"/>
<path d="M22.12 20.2612C20.5572 19.3063 19.3409 17.9539 18.7823 16.5528C18.6408 16.1973 18.2307 16.0161 17.863 16.1555C17.5023 16.2949 17.3184 16.6992 17.4599 17.0617C18.1246 18.7347 19.553 20.3379 21.3704 21.4463C21.4836 21.516 21.6179 21.5508 21.7452 21.5508C21.9786 21.5508 22.2119 21.4323 22.3463 21.2232C22.5584 20.8956 22.4524 20.4704 22.12 20.2612Z" fill="white"/>
<path d="M33.6662 35.4165H33.1783C33.0934 32.1542 32.1176 29.094 30.4204 26.7588C29.3243 25.2462 27.9949 24.1448 26.5452 23.5035C27.9949 22.8622 29.3243 21.7608 30.4204 20.2482C32.1176 17.913 33.0864 14.8528 33.1783 11.5905H33.6662C35.229 11.5905 36.5019 10.3358 36.5019 8.79526C36.5019 7.25473 35.229 6 33.6662 6H13.3357C11.7729 6.00697 10.5 7.2617 10.5 8.80223C10.5 10.3428 11.7729 11.5975 13.3357 11.5975H13.8236C13.9085 14.8598 14.8843 17.9199 16.5815 20.2551C17.6776 21.7678 19.007 22.8692 20.4567 23.5105C19.007 24.1518 17.6776 25.2531 16.5815 26.7658C14.8843 29.101 13.9155 32.1611 13.8236 35.4234H13.3357C11.7729 35.4165 10.5 36.6712 10.5 38.2047C10.5 39.7383 11.7729 41 13.3357 41H33.6662C35.229 41 36.5019 39.7453 36.5019 38.2047C36.5019 36.6642 35.222 35.4165 33.6662 35.4165ZM13.3357 10.1964C12.5507 10.1964 11.9143 9.56901 11.9143 8.80223C11.9143 8.02848 12.5507 7.40112 13.3357 7.40112H33.6662C34.4512 7.40112 35.0876 8.02848 35.0876 8.80223C35.0876 9.57598 34.4512 10.2033 33.6662 10.2033C33.6662 10.1964 13.3357 10.1964 13.3357 10.1964ZM15.2308 11.5905H31.7569C31.5731 17.7945 27.9383 22.7576 23.4903 22.7576C19.0424 22.7576 15.4147 17.7945 15.2308 11.5905ZM23.4974 24.2494C27.9454 24.2494 31.5801 29.2195 31.764 35.4165H15.2308C15.4147 29.2125 19.0494 24.2494 23.4974 24.2494ZM33.6662 39.6059H13.3357C12.5507 39.6059 11.9143 38.9785 11.9143 38.2047C11.9143 37.431 12.5507 36.8036 13.3357 36.8036H33.6662C34.4512 36.8036 35.0876 37.431 35.0876 38.2047C35.0876 38.9785 34.4441 39.6059 33.6662 39.6059Z" fill="white"/>
</svg>
