<svg width="47" height="47" viewBox="0 0 47 47" fill="none" xmlns="http://www.w3.org/2000/svg">
<g clip-path="url(#clip0)">
<path d="M42.416 11.1126C42.2927 10.9905 42.1167 10.912 41.9583 10.9033L38.7549 10.5894L38.4381 7.41589C38.3941 7.00612 38.0245 6.70968 37.6108 6.75328C37.4436 6.77071 37.2852 6.84918 37.1532 6.96252L32.5505 11.5223C32.3657 11.7054 32.2953 11.9757 32.3569 12.2198L33.1049 15.1405L30.4911 17.73C26.9093 14.7569 21.5409 15.1841 18.4695 18.7064C16.9734 20.424 16.243 22.6211 16.4102 24.8879C16.5774 27.1547 17.6335 29.221 19.376 30.7032C20.9513 32.0459 22.905 32.7695 24.9644 32.7695C25.1844 32.7695 25.3956 32.7608 25.6156 32.7433C27.9038 32.5777 29.9895 31.5315 31.4856 29.8052C32.8321 28.262 33.5714 26.2829 33.5625 24.2427C33.5625 22.2462 32.8497 20.3107 31.556 18.7762L34.1698 16.1868L37.1092 16.9191C37.3644 16.9802 37.6372 16.9104 37.8132 16.7273L42.4072 12.1588C42.548 12.0193 42.6272 11.8362 42.6272 11.6357C42.6272 11.4439 42.548 11.2521 42.416 11.1126ZM24.9908 26.6229C23.6707 26.6229 22.597 25.5592 22.597 24.2602C22.597 22.9524 23.6707 21.8887 24.982 21.8887C25.3516 21.8887 25.7212 21.9759 26.0468 22.1416L24.4363 23.7283C24.1459 24.0161 24.1459 24.4956 24.4363 24.7746C24.7268 25.0623 25.2108 25.0623 25.4924 24.7746L27.1029 23.1791C27.2789 23.5104 27.3669 23.8766 27.3669 24.2427C27.3757 25.5592 26.3021 26.6229 24.9908 26.6229ZM27.0061 21.1825C25.334 20.0927 23.081 20.5199 21.9282 22.1503C21.3561 22.9524 21.1449 23.9289 21.3121 24.8966C21.4881 25.8644 22.025 26.7101 22.8434 27.2768C24.5155 28.4451 26.8389 28.0353 28.0182 26.3701C28.8894 25.132 28.907 23.4755 28.071 22.2287L30.6144 19.7091C31.6704 20.9733 32.2513 22.5862 32.2513 24.2515C32.2513 26.1783 31.5032 27.9917 30.1303 29.3518C28.7574 30.7119 26.9357 31.4704 24.9908 31.4704C24.982 31.4704 24.982 31.4704 24.9732 31.4704C20.9689 31.4704 17.7127 28.2446 17.7039 24.2776C17.7039 22.3508 18.4519 20.5373 19.8248 19.1772C21.1977 17.8171 23.0194 17.0586 24.9644 17.0586C26.6365 17.0586 28.2646 17.6253 29.5583 18.6628L27.0061 21.1825ZM37.294 10.9905L34.337 13.9199L33.9234 12.2809L37.1092 9.12473L37.294 10.9905ZM40.2422 12.2198L37.0476 15.3847L35.3931 14.9749L38.3501 12.0455L40.2422 12.2198Z" fill="white"/>
<path d="M37.7084 22.971C37.6468 20.4426 36.7491 17.9491 35.1738 15.9612C35.0682 15.8217 34.9098 15.7346 34.7338 15.7171C34.5578 15.6997 34.3818 15.7433 34.2498 15.8566C34.1089 15.97 34.0209 16.1182 34.0033 16.2926C33.9857 16.4669 34.0297 16.6326 34.1441 16.7721C35.561 18.5681 36.3443 20.7216 36.4059 23.0146C36.4851 26.0574 35.2354 29.0042 32.9913 31.088C31.3456 32.5963 30.3511 34.6364 30.1663 36.8422H21.1633C20.996 34.6539 20.0192 32.6312 18.3911 31.1403C14.0348 27.1733 13.7355 20.4252 17.7398 16.1007C19.764 13.9124 22.6506 12.6569 25.6516 12.6569H25.7572C28.0629 12.6743 30.2543 13.4067 32.0848 14.7842C32.384 15.0022 32.7889 14.9499 33.0089 14.6535C33.1145 14.514 33.1585 14.3396 33.1321 14.1652C33.1057 13.9908 33.0177 13.8426 32.8769 13.738C30.8263 12.2035 28.371 11.3753 25.766 11.3491H25.6516C18.9983 11.3491 13.5859 16.711 13.5859 23.3023C13.5859 26.6328 15.0116 29.8412 17.4934 32.0993C19.0071 33.4943 19.8696 35.4647 19.8608 37.4961V43.137C19.8608 44.4535 20.9432 45.5259 22.2721 45.5259H24.9915V47.1301C24.9915 47.4876 25.2907 47.784 25.6516 47.784C26.0124 47.784 26.3116 47.4876 26.3116 47.1301V45.5259H29.031C30.3599 45.5259 31.4424 44.4535 31.4424 43.137V37.4874C31.46 35.4211 32.3488 33.4333 33.8713 32.0383C36.3971 29.693 37.7964 26.3887 37.7084 22.971ZM27.7637 42.3785C27.7637 42.0211 27.4645 41.7246 27.1037 41.7246H21.1809V40.5476H22.5362C22.897 40.5476 23.1962 40.2512 23.1962 39.8937C23.1962 39.5363 22.897 39.2398 22.5362 39.2398H21.1809V38.1413H30.1223V39.2398H24.3491C23.9883 39.2398 23.689 39.5363 23.689 39.8937C23.689 40.2512 23.9883 40.5476 24.3491 40.5476H30.1223V41.7246H28.9166C28.5558 41.7246 28.2565 42.0211 28.2565 42.3785C28.2565 42.736 28.5558 43.0324 28.9166 43.0324H30.1223V43.1283C30.1223 43.7212 29.6294 44.2094 29.031 44.2094H22.2721C21.6737 44.2094 21.1809 43.7212 21.1809 43.1283V43.0324H27.1037C27.4645 43.0324 27.7637 42.736 27.7637 42.3785Z" fill="white"/>
<path d="M23.8632 6C23.5023 6 23.2031 6.29643 23.2031 6.65389V10.1326C23.2031 10.4901 23.5023 10.7865 23.8632 10.7865C24.224 10.7865 24.5232 10.4901 24.5232 10.1326V6.65389C24.5232 6.29643 24.224 6 23.8632 6Z" fill="white"/>
<path d="M37.7887 19.4805H34.2772C33.9164 19.4805 33.6172 19.7769 33.6172 20.1344C33.6172 20.4918 33.9164 20.7883 34.2772 20.7883H37.7887C38.1495 20.7883 38.4487 20.4918 38.4487 20.1344C38.4487 19.7769 38.1495 19.4805 37.7887 19.4805Z" fill="white"/>
<path d="M13.4313 19.4805H9.91981C9.55899 19.4805 9.25977 19.7769 9.25977 20.1344C9.25977 20.4918 9.55899 20.7883 9.91981 20.7883H13.4313C13.7921 20.7883 14.0913 20.4918 14.0913 20.1344C14.0913 19.7769 13.7921 19.4805 13.4313 19.4805Z" fill="white"/>
<path d="M16.6972 12.4372L13.9602 9.72576C13.705 9.47292 13.2914 9.47292 13.0274 9.72576C12.7721 9.9786 12.7721 10.3884 13.0274 10.6499L15.7643 13.3614C15.8875 13.4835 16.0548 13.5532 16.2308 13.5532C16.398 13.5532 16.574 13.4922 16.706 13.3614C16.9436 13.1173 16.9436 12.6988 16.6972 12.4372Z" fill="white"/>
</g>
<defs>
<clipPath id="clip0">
<rect width="47" height="47" fill="white"/>
</clipPath>
</defs>
</svg>
