<svg width="47" height="47" viewBox="0 0 47 47" fill="none" xmlns="http://www.w3.org/2000/svg">
<path d="M31.6055 25.3877L27.6031 23.6111C27.3186 23.4829 27.135 23.2082 27.135 22.8968V21.7979C28.4752 20.7265 29.3381 19.0873 29.3381 17.2375V15.699C29.7787 15.4518 30.0725 14.9847 30.0725 14.4536V14.3071C30.0816 11.0928 27.4654 8.48291 24.2434 8.48291H22.7746C19.5525 8.48291 16.9363 11.0928 16.9363 14.3071V15.6624C16.9363 16.1294 17.1383 16.5507 17.4871 16.8162C17.5422 16.862 17.6064 16.8987 17.6707 16.9353V17.2375C17.6707 19.0781 18.5336 20.7265 19.8738 21.7979V22.8968C19.8738 23.2082 19.6902 23.4829 19.4057 23.6111L15.4033 25.3877C14.0906 25.9646 13.2461 27.265 13.2461 28.7027V37.8053C13.2461 38.1807 13.5582 38.4921 13.9346 38.4921C14.3109 38.4921 14.623 38.1807 14.623 37.8053V28.7027C14.623 28.6203 14.6322 28.547 14.6414 28.4646L16.4865 30.3053C16.7711 30.5891 16.9272 30.9738 16.9272 31.3767V37.8053C16.9272 38.1807 17.2393 38.4921 17.6156 38.4921C17.992 38.4921 18.3041 38.1807 18.3041 37.8053V31.3767C18.3041 30.6075 18.0012 29.884 17.4596 29.3346L15.2656 27.1459C15.4676 26.9444 15.6971 26.7705 15.9725 26.6514L19.9014 24.9115L22.8205 27.8236V37.8144C22.8205 38.1899 23.1326 38.5012 23.509 38.5012C23.8854 38.5012 24.1975 38.1899 24.1975 37.8144V27.8053L27.1166 24.8932L31.0455 26.6331C31.3117 26.7521 31.5504 26.9261 31.7524 27.1276L29.5584 29.3162C29.0076 29.8657 28.7139 30.5891 28.7139 31.3584V37.7869C28.7139 38.1624 29.026 38.4738 29.4024 38.4738C29.7787 38.4738 30.0908 38.1624 30.0908 37.7869V31.3584C30.0908 30.9554 30.2469 30.5708 30.5315 30.2869L32.3766 28.4463C32.3858 28.5287 32.3949 28.602 32.3949 28.6844V37.7869C32.3949 38.1624 32.707 38.4738 33.0834 38.4738C33.4598 38.4738 33.7719 38.1624 33.7719 37.7869V28.6844C33.7627 27.265 32.9182 25.9646 31.6055 25.3877ZM23.509 26.5507L20.9479 23.9957C21.1406 23.6661 21.2508 23.2906 21.2508 22.8968V22.6129C21.9484 22.906 22.7104 23.0617 23.509 23.0617C24.3076 23.0617 25.0695 22.8968 25.7672 22.6129V22.8968C25.7672 23.2906 25.8773 23.6661 26.0701 23.9957L23.509 26.5507ZM23.509 21.6972C21.0488 21.6972 19.0477 19.7009 19.0477 17.2466V16.9353C19.4791 16.7613 19.8922 16.4957 20.2961 16.1294C20.5715 15.873 20.5898 15.4335 20.3328 15.1587C20.0758 14.884 19.6352 14.8657 19.3598 15.1221C19.0109 15.4426 18.6713 15.6441 18.3408 15.7265C18.3316 15.7265 18.3225 15.7265 18.3225 15.7265C18.3133 15.7173 18.3133 15.699 18.3133 15.6624V14.3071C18.3133 11.8529 20.3145 9.85654 22.7746 9.85654H24.2434C26.7035 9.85654 28.7047 11.8529 28.7047 14.3071V14.4536C28.7047 14.4719 28.6955 14.4994 28.6772 14.4994C24.5555 15.3144 22.49 13.7851 21.7924 13.0891C21.5262 12.8236 21.0856 12.8236 20.8193 13.0891C20.5531 13.3547 20.5531 13.7943 20.8193 14.0598C22.9582 16.1935 26.0793 16.2302 27.9795 16.0012V17.2466C27.9703 19.7009 25.9691 21.6972 23.509 21.6972Z" fill="white"/>
<path d="M12.4109 21.6542V20.189C12.4109 18.3941 11.4746 16.819 10.0701 15.9124C10.1527 15.6377 10.1986 15.3447 10.1986 15.0516C10.1986 13.4582 8.89512 12.167 7.30703 12.167C5.71895 12.167 4.41543 13.449 4.41543 15.0425C4.41543 15.3355 4.46133 15.6285 4.54395 15.9033C3.13945 16.819 2.20312 18.3941 2.20312 20.1798V21.645C2.20312 23.3758 3.0752 24.9143 4.40625 25.83V27.3502C4.40625 27.6524 4.24102 27.9179 3.9748 28.0461L1.59727 29.2366C0.615039 29.7311 0 30.7201 0 31.819V37.7989C0 38.1743 0.312109 38.4857 0.688477 38.4857C1.06484 38.4857 1.37695 38.1743 1.37695 37.7989V32.1121L2.49688 33.2293C2.78145 33.5132 2.9375 33.8978 2.9375 34.3007V37.7897C2.9375 38.1652 3.24961 38.4765 3.62598 38.4765C4.00234 38.4765 4.31445 38.1652 4.31445 37.7897V34.3099C4.31445 33.5406 4.01152 32.8172 3.46992 32.2677L1.90937 30.711C1.9002 30.7018 1.89102 30.6926 1.88184 30.6926C1.98281 30.6102 2.09297 30.5278 2.2123 30.4729L4.58984 29.2824C4.70918 29.2183 4.82852 29.145 4.92949 29.0718L6.60938 30.7476V37.808C6.60938 38.1835 6.92148 38.4949 7.29785 38.4949C7.67422 38.4949 7.98633 38.1835 7.98633 37.808V30.7476L9.66621 29.0718C9.77637 29.1542 9.88652 29.2274 10.0059 29.2824L10.6668 29.6121C10.7678 29.6578 10.8687 29.6853 10.9697 29.6853C11.2268 29.6853 11.4654 29.548 11.5848 29.3099C11.7592 28.971 11.6215 28.5589 11.2727 28.385L10.6117 28.0553C10.3455 27.9179 10.1803 27.6524 10.1803 27.3593V25.8483C11.5389 24.9234 12.4109 23.385 12.4109 21.6542ZM7.30703 13.5315C8.14238 13.5315 8.82168 14.2091 8.82168 15.0425C8.82168 15.134 8.8125 15.2256 8.79414 15.3172C8.3168 15.1707 7.82109 15.0974 7.29785 15.0974C6.77461 15.0974 6.27891 15.1798 5.80156 15.3172C5.7832 15.2256 5.77402 15.1432 5.77402 15.0516C5.79238 14.2091 6.47168 13.5315 7.30703 13.5315ZM7.30703 16.4619C9.36328 16.4619 11.034 18.1285 11.034 20.1798V20.4271C8.16992 21.3062 6.4625 19.1359 6.38906 19.0351C6.26973 18.8795 6.08613 18.7787 5.88418 18.7604C5.68223 18.7421 5.48945 18.8153 5.35176 18.9619C4.69082 19.6212 4.04824 19.9326 3.58926 20.0882C3.63516 18.0827 5.2875 16.4619 7.30703 16.4619ZM7.30703 29.493L5.71895 27.8996C5.76484 27.7256 5.79238 27.5333 5.79238 27.3502V26.5077C6.26973 26.6542 6.78379 26.7366 7.30703 26.7366C7.83027 26.7366 8.34434 26.6542 8.82168 26.5077V27.3502C8.82168 27.5425 8.84922 27.7256 8.89512 27.8996L7.30703 29.493ZM7.30703 25.3721C5.25078 25.3721 3.58008 23.7055 3.58008 21.6542V21.5077C4.13086 21.3795 4.93867 21.0864 5.79238 20.4088C6.09531 20.6926 6.52676 21.0406 7.06836 21.3337C7.71094 21.6817 8.61055 22.0113 9.70293 22.0113C10.116 22.0113 10.5566 21.9655 11.034 21.8556C10.9238 23.8154 9.29902 25.3721 7.30703 25.3721Z" fill="white"/>
<path d="M45.4225 27.771L41.567 25.848C41.3008 25.7106 41.1355 25.445 41.1355 25.152V24.1813C42.0352 23.3846 42.6043 22.2216 42.6043 20.9212V20.1428C42.6227 20.1428 42.6318 20.1428 42.6502 20.1428C43.0266 20.1428 43.3387 19.8315 43.3387 19.456V17.9908C43.3387 15.5915 41.3834 13.6318 38.9691 13.6318H37.5004C35.0953 13.6318 33.1309 15.5824 33.1309 17.9908V19.456C33.1309 19.8315 33.443 20.1428 33.8193 20.1428C33.8285 20.1428 33.8377 20.1428 33.8652 20.1428V20.9212C33.8652 22.2124 34.4344 23.3846 35.334 24.1813V25.152C35.334 25.4542 35.1687 25.7197 34.9025 25.848C34.5629 26.0219 34.4252 26.434 34.5904 26.7729C34.7098 27.011 34.9576 27.1483 35.2055 27.1483C35.3064 27.1483 35.4166 27.1208 35.5084 27.0751C35.6277 27.011 35.7471 26.9377 35.848 26.8644L37.5279 28.5403V37.7985C37.5279 38.174 37.84 38.4853 38.2164 38.4853C38.5928 38.4853 38.9049 38.174 38.9049 37.7985V28.5403L40.5848 26.8644C40.6949 26.9469 40.8051 27.0201 40.9244 27.0751L44.6514 28.934L43.5223 30.0604C42.9715 30.6099 42.6777 31.3333 42.6777 32.1025V37.7985C42.6777 38.174 42.9898 38.4853 43.3662 38.4853C43.7426 38.4853 44.0547 38.174 44.0547 37.7985V32.1025C44.0547 31.6996 44.2107 31.315 44.4953 31.0311L45.5693 29.9597C45.6061 30.0879 45.6152 30.2161 45.6152 30.3443V37.7893C45.6152 38.1648 45.9273 38.4762 46.3037 38.4762C46.6801 38.4762 46.9922 38.1648 46.9922 37.7893V30.3443C47.0197 29.2545 46.4047 28.2655 45.4225 27.771ZM34.5078 18.6227V17.9817C34.5078 16.3333 35.848 14.9963 37.5004 14.9963H38.9691C40.6215 14.9963 41.9617 16.3333 41.9617 17.9817V18.7417C38.9691 18.5769 37.1607 17.423 37.1424 17.4047C37.023 17.3315 36.8945 17.2857 36.7568 17.2857C36.5824 17.2857 36.3988 17.3498 36.2703 17.4871C35.6186 18.1556 34.976 18.467 34.5078 18.6227ZM38.2348 27.2857L36.6467 25.7014C36.6926 25.5274 36.7201 25.3351 36.7201 25.152V25.0055C37.1975 25.1795 37.7023 25.2802 38.2348 25.2802C38.7672 25.2802 39.2812 25.1795 39.7494 25.0055V25.152C39.7494 25.3443 39.777 25.5274 39.8229 25.7014L38.2348 27.2857ZM38.2348 23.8974C36.5824 23.8974 35.2422 22.5604 35.2422 20.9121V19.804C35.7287 19.6117 36.2887 19.3095 36.8578 18.8241C37.583 19.1996 39.0977 19.8498 41.2273 20.0604V20.9121C41.2273 22.5604 39.8871 23.8974 38.2348 23.8974Z" fill="white"/>
</svg>
