<svg width="47" height="47" viewBox="0 0 47 47" fill="none" xmlns="http://www.w3.org/2000/svg">
<path d="M23.5 6C13.875 6 6 13.875 6 23.5C6 33.125 13.875 41 23.5 41C33.125 41 41 33.125 41 23.5C41 13.875 33.125 6 23.5 6ZM23.5 39.4091C14.75 39.4091 7.59091 32.25 7.59091 23.5C7.59091 14.75 14.75 7.59091 23.5 7.59091C32.25 7.59091 39.4091 14.75 39.4091 23.5C39.4091 32.25 32.25 39.4091 23.5 39.4091Z" fill="white"/>
<path d="M23.5005 11.568C23.9778 11.568 24.296 11.2499 24.296 10.7726V9.18169C24.296 8.70441 23.9778 8.38623 23.5005 8.38623C23.0233 8.38623 22.7051 8.70441 22.7051 9.18169V10.7726C22.7051 11.2499 23.0233 11.568 23.5005 11.568Z" fill="white"/>
<path d="M23.5005 35.4321C23.0233 35.4321 22.7051 35.7503 22.7051 36.2276V37.8185C22.7051 38.2958 23.0233 38.6139 23.5005 38.6139C23.9778 38.6139 24.296 38.2958 24.296 37.8185V36.2276C24.296 35.7503 23.9778 35.4321 23.5005 35.4321Z" fill="white"/>
<path d="M36.2271 24.295H37.818C38.2953 24.295 38.6135 23.9768 38.6135 23.4996C38.6135 23.0223 38.2953 22.7041 37.818 22.7041H36.2271C35.7498 22.7041 35.4316 23.0223 35.4316 23.4996C35.4316 23.9768 35.7498 24.295 36.2271 24.295Z" fill="white"/>
<path d="M10.7711 22.7041H9.18022C8.70295 22.7041 8.38477 23.0223 8.38477 23.4996C8.38477 23.9768 8.70295 24.295 9.18022 24.295H10.7711C11.2484 24.295 11.5666 23.9768 11.5666 23.4996C11.5666 23.0223 11.2484 22.7041 10.7711 22.7041Z" fill="white"/>
<path d="M24.296 19.6023V15.5455C24.296 15.0682 23.9778 14.75 23.5005 14.75C23.0233 14.75 22.7051 15.0682 22.7051 15.5455V19.6023C21.3528 19.9205 20.3187 21.1932 20.3187 22.7045C20.3187 23.2614 20.4778 23.8182 20.796 24.2955L14.1937 30.8977C13.8755 31.2159 13.8755 31.6932 14.1937 32.0114C14.3528 32.1705 14.5914 32.25 14.7505 32.25C14.9096 32.25 15.1483 32.1705 15.3074 32.0114L21.9096 25.4091C22.3869 25.7273 22.9437 25.8864 23.5005 25.8864C25.2505 25.8864 26.6824 24.4545 26.6824 22.7045C26.6824 21.1932 25.6483 20 24.296 19.6023ZM23.5005 24.2955C22.6255 24.2955 21.9096 23.5795 21.9096 22.7045C21.9096 21.8295 22.6255 21.1136 23.5005 21.1136C24.3755 21.1136 25.0914 21.8295 25.0914 22.7045C25.0914 23.5795 24.3755 24.2955 23.5005 24.2955Z" fill="white"/>
</svg>
