<svg width="47" height="47" viewBox="0 0 47 47" fill="none" xmlns="http://www.w3.org/2000/svg">
<path d="M38.8024 15.033C39.6798 13.0385 39.2342 10.715 37.6918 9.18659C36.1494 7.65817 33.8186 7.23323 31.8306 8.12424C27.8134 5.94469 23.1038 5.4238 18.7096 6.67121C14.3908 7.8912 10.7164 10.7219 8.44047 14.5875C8.39934 14.656 8.37192 14.7383 8.36506 14.8136C8.08399 15.1838 7.85092 15.5881 7.67268 16.0199L7.63155 16.1159C6.55527 18.4257 6 20.9479 6 23.4975C6 25.1562 6.23993 26.808 6.70609 28.3981C6.30849 29.7346 6.4593 31.1739 7.12426 32.4008C7.78922 33.6276 8.92033 34.5392 10.2571 34.9299C12.9512 38.0621 16.6668 40.132 20.7456 40.7762C25.0096 41.4548 29.3695 40.5363 32.9891 38.1855C35.1279 39.1519 37.6438 38.583 39.1588 36.801C40.6738 35.0121 40.8315 32.4419 39.529 30.4885C41.7227 25.5057 41.4485 19.7896 38.8024 15.033ZM33.9763 13.5114C33.3319 13.5114 32.804 12.9905 32.804 12.3394C32.804 11.6883 33.325 11.1674 33.9763 11.1674C34.6275 11.1674 35.1485 11.6883 35.1485 12.3394C35.1485 12.9837 34.6275 13.5114 33.9763 13.5114ZM32.7972 14.3476C33.5238 14.7931 34.4356 14.7931 35.1622 14.3476C35.8683 14.6629 36.4236 15.2454 36.7115 15.972C35.1622 17.3702 32.804 17.3702 31.2547 15.972C31.5358 15.2454 32.0911 14.6629 32.7972 14.3476ZM38.0757 12.9288C38.0757 13.6485 37.8838 14.3544 37.5204 14.9713C37.1571 14.3476 36.6361 13.8335 36.0123 13.4771C36.2111 13.1344 36.3139 12.7438 36.3208 12.3462C36.3208 11.0509 35.2719 10.0091 33.9831 10.0091C32.6943 10.0091 31.6386 11.0509 31.6386 12.3394C31.6386 12.7369 31.7483 13.1276 31.9471 13.4703C31.3233 13.8267 30.8023 14.3407 30.439 14.9644C29.5752 13.4771 29.7397 11.606 30.8503 10.2901C31.954 8.97412 33.7706 8.48749 35.3884 9.07693C36.9994 9.66636 38.0757 11.2016 38.0757 12.9288ZM23.4946 7.1784C25.983 7.1784 28.4372 7.74727 30.672 8.83704C29.6026 9.70063 28.9171 10.9412 28.7526 12.3051C28.259 12.0926 27.7174 12.0104 27.1827 12.0789C26.792 12.1543 26.4081 12.2777 26.0516 12.449C25.8254 12.5587 25.5854 12.6478 25.3387 12.7164C25.1056 12.7712 24.8588 12.7301 24.6531 12.6067C24.564 12.545 24.564 12.497 24.564 12.4765C24.5503 12.3257 24.7422 12.1338 25.0302 11.8665C25.3866 11.5855 25.6746 11.2153 25.8528 10.7973C26.0927 9.96794 25.7363 9.08378 24.989 8.65199C24.2829 8.26131 23.4603 8.13109 22.6651 8.28873C22.384 8.323 22.103 8.33671 21.8288 8.32985C21.1295 8.28873 20.4646 8.02143 19.9299 7.56907C21.1021 7.30862 22.2949 7.1784 23.4946 7.1784ZM18.6411 7.91862C19.4157 8.86446 20.5537 9.44018 21.7671 9.50187C22.103 9.50872 22.432 9.49502 22.7679 9.46075C23.3026 9.33738 23.8716 9.40592 24.3652 9.65266C24.6394 9.80344 24.7902 10.105 24.7422 10.4134C24.612 10.6465 24.4406 10.8521 24.2281 11.0166C23.7071 11.373 23.3918 11.9624 23.3849 12.593C23.426 12.9837 23.6317 13.3401 23.9607 13.5662C24.4406 13.8884 25.037 13.9912 25.5991 13.861C25.9145 13.7787 26.2161 13.669 26.5109 13.532C26.7783 13.4017 27.0593 13.3058 27.3472 13.2441C27.8477 13.2098 28.3412 13.3401 28.7594 13.6211C28.876 14.5189 29.2256 15.3688 29.774 16.0885C29.726 16.1159 29.678 16.1502 29.63 16.1776C29.4724 16.2735 29.3215 16.3626 29.1433 16.486C28.4989 16.9726 27.7928 17.377 27.0388 17.6786C26.7577 17.7745 26.4629 17.8499 26.175 17.9116C25.5649 18.0144 24.9753 18.2337 24.4406 18.5422C23.3643 19.2344 23.4946 20.3447 23.5769 21.0164C23.5563 21.0096 23.5357 21.0027 23.5152 20.9959C23.4123 20.9547 23.3164 20.9068 23.2204 20.8656C22.6171 20.4544 21.8288 20.427 21.1981 20.7834C20.5674 21.1398 20.1835 21.8252 20.2178 22.5586C20.2178 23.943 21.2461 24.7518 22.0756 25.4029L22.3635 25.6291C22.5486 25.7936 22.7131 25.9855 22.8571 26.1843C21.6779 25.8896 20.5057 25.5948 19.3266 25.3138C18.3394 25.0739 17.3386 24.7792 16.9273 24.0459C16.7696 23.7169 16.6668 23.3605 16.6119 22.9972C16.5365 22.4215 16.3377 21.8663 16.0224 21.3797C15.4191 20.708 14.6102 20.2625 13.7259 20.1117L13.6162 20.0843C12.7387 19.8238 12.2588 19.5086 12.1012 19.0973C12.0052 18.5627 12.0875 18.0144 12.348 17.5346C12.677 16.8493 12.7867 16.0748 12.6633 15.3208C12.533 14.7451 12.1492 14.2585 11.6144 13.998C11.2237 13.8267 10.7987 13.7581 10.3736 13.7993C12.4234 10.996 15.33 8.93985 18.6411 7.91862ZM7.17225 23.4975C7.17225 21.1192 7.69325 18.7615 8.69411 16.6025L8.73524 16.5066C8.89291 16.0885 9.13285 15.6978 9.43448 15.3688C9.54416 15.2591 9.66756 15.1769 9.81152 15.1152C10.216 14.9096 10.6821 14.8822 11.1072 15.033C11.3265 15.1426 11.4842 15.3482 11.5322 15.595C11.587 16.1159 11.4842 16.6436 11.2511 17.1166C10.8809 17.8499 10.7918 18.6998 11.0112 19.4949C11.4019 20.5229 12.4988 20.9479 13.294 21.1878L13.4105 21.222C14.0412 21.3249 14.6308 21.6196 15.0901 22.0651C15.2957 22.4146 15.4328 22.8122 15.474 23.2165C15.5494 23.7032 15.6933 24.1692 15.9127 24.6079C16.5502 25.7525 17.8733 26.1569 19.0592 26.4379C20.3343 26.7463 21.6094 27.0616 22.8845 27.3837C23.1381 27.466 23.4192 27.466 23.6728 27.3769C23.9676 27.2603 24.1801 26.9999 24.2281 26.6846C24.3652 25.8005 23.1381 24.7312 23.1176 24.7175L22.8091 24.4708C22.0824 23.9019 21.3969 23.3605 21.3969 22.538C21.39 22.1953 21.5888 21.8732 21.9042 21.7361C22.1235 21.647 22.3086 21.7087 22.7337 21.9143C22.8502 21.9691 22.9667 22.024 23.0764 22.0651C23.5289 22.3118 24.091 22.2433 24.468 21.8937C24.7148 21.6196 24.8245 21.2426 24.756 20.8794C24.66 20.098 24.6943 19.7759 25.0919 19.5223C25.5169 19.2892 25.9762 19.1316 26.4561 19.0494C26.792 18.9808 27.1279 18.8849 27.4569 18.7752C28.3207 18.4325 29.1296 17.9733 29.87 17.4113C29.9865 17.329 30.1168 17.2536 30.247 17.1782C30.3635 17.1097 30.4869 17.0343 30.6172 16.9521C31.7003 17.8705 33.1125 18.3023 34.5315 18.1652C35.9437 18.0213 37.2394 17.3153 38.1237 16.1981C40.2077 20.3516 40.4202 25.1905 38.7132 29.5084C37.2599 28.1788 35.1965 27.7744 33.3524 28.4598C31.5084 29.1383 30.199 30.7969 29.9591 32.7435C29.7534 32.5378 29.5478 32.3322 29.3353 32.1129C28.5263 31.3521 27.6009 30.7284 26.5863 30.2692C25.1056 29.5632 23.8099 29.6249 23.0216 30.4543C22.6582 30.8861 22.3635 31.3795 22.1647 31.9004C22.0618 32.1335 21.959 32.3596 21.8425 32.5584C21.6368 32.9491 21.3489 33.2918 21.013 33.5659C20.8622 33.6756 20.6976 33.7647 20.5263 33.8401C20.1698 33.984 19.8476 34.2033 19.5734 34.4775C19.2786 34.8476 19.0798 35.2863 19.0044 35.7592C18.9633 35.9648 18.9016 36.1704 18.8125 36.3692C18.5314 36.8352 18.3737 37.363 18.3463 37.9044C18.3532 38.3225 18.4765 38.7269 18.6959 39.0833C16.2075 38.3157 13.9384 36.9586 12.0737 35.1355C14.5142 34.9984 16.5434 33.2027 16.9684 30.7901C17.3934 28.3775 16.0978 25.9992 13.8424 25.0397C11.5939 24.0801 8.97518 24.7998 7.53558 26.7806C7.28879 25.7045 7.17225 24.601 7.17225 23.4975ZM11.7516 30.4748C11.1072 30.4748 10.5793 29.9539 10.5793 29.3028C10.5793 28.6517 11.1003 28.1308 11.7516 28.1308C12.4028 28.1308 12.9238 28.6517 12.9238 29.3028C12.9169 29.9471 12.3959 30.468 11.7516 30.4748ZM10.5656 31.311C11.2923 31.7565 12.204 31.7565 12.9307 31.311C13.6367 31.6263 14.192 32.2089 14.4799 32.9354C12.9307 34.3336 10.5724 34.3336 9.02316 32.9354C9.30423 32.2089 9.8595 31.6263 10.5656 31.311ZM11.7516 25.7936C13.2117 25.7936 14.5691 26.5681 15.3026 27.8361C16.0361 29.104 16.0292 30.6667 15.2957 31.9278C14.9324 31.3041 14.4114 30.7901 13.7876 30.4337C13.9864 30.091 14.0892 29.7003 14.096 29.3028C14.096 28.0074 13.0472 26.9656 11.7584 26.9656C10.4696 26.9656 9.40706 28.0074 9.40706 29.3028C9.40706 29.7003 9.51674 30.091 9.71554 30.4337C9.09172 30.7901 8.57072 31.3041 8.20739 31.9278C7.47388 30.6599 7.46702 29.104 8.20053 27.8361C8.93405 26.5681 10.2845 25.7867 11.7516 25.7936ZM23.4946 39.8304C22.672 39.8304 21.8425 39.7687 21.0336 39.6385C20.8073 39.5151 20.588 39.378 20.3755 39.2273C19.9024 38.9325 19.5802 38.4459 19.4911 37.8976C19.5254 37.548 19.6419 37.2053 19.827 36.9038C19.9573 36.6228 20.0533 36.3349 20.115 36.0333C20.1561 35.7592 20.2521 35.4987 20.4097 35.2657C20.5811 35.1081 20.7799 34.9847 20.9993 34.8956C21.2461 34.7859 21.4791 34.6557 21.6917 34.4981C22.1578 34.1279 22.5417 33.6619 22.8296 33.141C22.9667 32.9011 23.0833 32.6338 23.1998 32.3802C23.3575 31.9758 23.57 31.592 23.8442 31.2493C24.4269 30.6325 25.5786 31.0917 26.0516 31.3178C26.9428 31.7154 27.7586 32.2637 28.4715 32.9285C28.9719 33.4357 29.4655 33.936 29.9865 34.409C30.2264 35.6358 30.8983 36.7324 31.8786 37.5069C29.3421 39.0285 26.4492 39.8304 23.4946 39.8304ZM32.4201 36.4377C32.7012 35.7181 33.2565 35.1355 33.9694 34.8133C34.6961 35.2588 35.6078 35.2588 36.3345 34.8133C37.0406 35.1286 37.5958 35.7112 37.8838 36.4377C36.3276 37.8428 33.9694 37.8428 32.4201 36.4377ZM35.1485 33.984C34.5041 33.984 33.9763 33.4631 33.9763 32.812C33.9763 32.1677 34.4973 31.64 35.1485 31.64C35.7929 31.64 36.3208 32.1609 36.3208 32.812C36.3208 33.4563 35.7929 33.9772 35.1485 33.984ZM38.6927 35.4439C38.3293 34.8202 37.8083 34.3061 37.1845 33.9497C37.3833 33.6071 37.4861 33.2164 37.493 32.8189C37.493 31.5235 36.4441 30.4817 35.1554 30.4817C33.8597 30.4817 32.8177 31.5303 32.8177 32.8189C32.8177 33.2164 32.9274 33.6071 33.1262 33.9497C32.5024 34.3061 31.9814 34.8202 31.6181 35.4439C30.6172 33.7236 31.0011 31.5372 32.5229 30.2555C34.0448 28.9738 36.2659 28.9738 37.7946 30.2555C39.3096 31.5303 39.6867 33.7236 38.6927 35.4439Z" fill="white"/>
</svg>
