<svg width="47" height="47" viewBox="0 0 47 47" fill="none" xmlns="http://www.w3.org/2000/svg">
<path d="M40.2271 27.1892C39.7313 26.6934 39.0604 26.4163 38.3531 26.4163H38.2C38.1563 26.4163 38.1125 26.4236 38.0688 26.4236C38.076 26.2997 38.076 26.1757 38.076 26.059C38.076 23.5872 37.2885 21.1809 35.8156 19.1976L37.7479 17.0247C38.3896 16.3028 38.324 15.1945 37.5948 14.5528C37.1646 14.1736 36.574 14.0278 36.0125 14.1663L33.5479 14.7861C33.2927 14.8518 33.0229 14.7351 32.899 14.5018L31.076 11.2278C30.6094 10.382 29.5448 10.0757 28.699 10.5497C28.6188 10.5934 28.5458 10.6445 28.4729 10.6955L25.4688 13.0288C26.774 11.6143 26.6865 9.40488 25.2646 8.09238C23.8427 6.77989 21.6406 6.87468 20.3281 8.29655C19.7813 8.89447 19.4531 9.66009 19.4094 10.4622C18.899 10.5934 18.476 10.958 18.2573 11.4393L16.7333 14.8663L15.0417 14.407C14.1083 14.1518 13.1458 14.6986 12.8906 15.632C12.7229 16.2372 12.8979 16.8861 13.3427 17.3309L15.224 19.2122C13.3719 21.7278 12.6208 24.8851 13.1385 27.9622L12.9781 27.9986V26.9997C12.9781 26.6788 12.7156 26.4163 12.3948 26.4163H6.58333C6.2625 26.4163 6 26.6788 6 26.9997V40.4163C6 40.7371 6.2625 40.9996 6.58333 40.9996H26.8833C27.8531 40.9996 28.7865 40.6569 29.5302 40.0299L40.2344 30.9372C41.2552 29.9017 41.2552 28.2247 40.2271 27.1892ZM11.8333 39.833H7.16667V27.583H11.8333V39.833ZM22.9167 8.33301C24.2 8.33301 25.2427 9.36843 25.25 10.6518C25.25 11.658 24.6083 12.5476 23.6531 12.8684L20.9479 10.7684C20.8385 10.6809 20.7146 10.6153 20.5906 10.557C20.6563 9.31738 21.6771 8.3403 22.9167 8.33301ZM16.551 19.4309C16.7552 19.183 16.7115 18.8111 16.4635 18.6143C16.376 18.5413 16.274 18.4976 16.1646 18.4903L14.1885 16.5143C13.9625 16.2882 13.9625 15.9163 14.1885 15.6903C14.3344 15.5445 14.5531 15.4861 14.75 15.5372L16.9302 16.1351C17.2073 16.208 17.499 16.0695 17.6156 15.807L19.3438 11.9132C19.475 11.6215 19.8177 11.483 20.1167 11.6143C20.1604 11.6361 20.1969 11.658 20.2406 11.6872L23.5948 14.2976C24.2292 14.7861 25.1115 14.7861 25.7458 14.2976L29.2021 11.607C29.4573 11.4101 29.8219 11.4538 30.0188 11.709C30.0406 11.7309 30.0552 11.7601 30.0698 11.782L31.8927 15.0559C32.2792 15.7486 33.0813 16.0986 33.8469 15.9018L36.3115 15.282C36.625 15.2018 36.9385 15.3913 37.0188 15.7049C37.0625 15.8945 37.0188 16.0913 36.8875 16.2372L34.8969 18.4757C34.576 18.5268 34.3573 18.8184 34.4083 19.1392C34.4229 19.2413 34.4667 19.3361 34.5323 19.4236C36.0708 21.2903 36.9167 23.6382 36.9167 26.059C36.9167 26.2851 36.9021 26.5257 36.8875 26.7736C36.7854 26.832 36.6833 26.8976 36.5885 26.9632L30.9302 31.3163C30.1063 31.9507 29.1438 32.3663 28.1229 32.5486L20.7 33.8174C20.3646 33.8611 20.0583 33.6278 20.0146 33.2924C20.0073 33.2632 20.0073 33.234 20.0073 33.2049C20.0073 32.9205 20.2115 32.6653 20.4885 32.6069L26.1833 31.3892C27.5469 31.0976 28.4073 29.7632 28.1229 28.3997C27.875 27.2403 26.8469 26.409 25.6583 26.409H21.2688C20 26.409 18.7313 26.5695 17.499 26.8757L14.3198 27.6705C14.2323 27.1382 14.1813 26.5986 14.1813 26.0517C14.1667 23.6382 15.0125 21.2976 16.551 19.4309ZM39.4323 30.0767L28.7719 39.1403C28.2469 39.5851 27.576 39.833 26.8833 39.833H13V29.2017L17.776 28.0059C18.9135 27.7215 20.0875 27.5757 21.2615 27.5757H25.651C26.3948 27.5757 27 28.1809 27 28.932C27 29.5663 26.5552 30.1205 25.9354 30.2517L20.2406 31.4694C19.2781 31.6809 18.6729 32.6288 18.8844 33.584C19.0813 34.4955 19.949 35.1007 20.875 34.9622L28.3125 33.7007C29.5229 33.4965 30.6604 32.9934 31.6375 32.2497L37.2958 27.8965C37.551 27.6997 37.8719 27.5903 38.2 27.5903H38.3531C39.1698 27.5903 39.8333 28.2538 39.8333 29.0705C39.8333 29.4351 39.6948 29.7997 39.4323 30.0767Z" fill="white"/>
<path d="M34.584 6C32.6517 6 31.084 7.56771 31.084 9.5C31.084 11.4323 32.6517 13 34.584 13C36.5163 13 38.084 11.4323 38.084 9.5C38.084 7.56771 36.5163 6 34.584 6ZM34.584 11.8333C33.2934 11.8333 32.2507 10.7906 32.2507 9.5C32.2507 8.20937 33.2934 7.16667 34.584 7.16667C35.8746 7.16667 36.9173 8.20937 36.9173 9.5C36.9173 10.7906 35.8746 11.8333 34.584 11.8333Z" fill="white"/>
<path d="M25.834 20.5835C25.5132 20.5835 25.2507 20.321 25.2507 20.0002C25.2507 19.6793 25.5132 19.4168 25.834 19.4168C26.1548 19.4168 26.4173 19.6793 26.4173 20.0002H27.584C27.584 19.2637 27.1173 18.6075 26.4173 18.3595V17.0835H25.2507V18.3595C24.3392 18.6804 23.8652 19.6793 24.1861 20.5835C24.434 21.2835 25.0975 21.7502 25.834 21.7502C26.1548 21.7502 26.4173 22.0127 26.4173 22.3335C26.4173 22.6543 26.1548 22.9168 25.834 22.9168C25.5132 22.9168 25.2507 22.6543 25.2507 22.3335H24.084C24.084 23.07 24.5507 23.7262 25.2507 23.9741V25.2502H26.4173V23.9741C27.3288 23.6533 27.8027 22.6543 27.4819 21.7502C27.234 21.0502 26.5777 20.5835 25.834 20.5835Z" fill="white"/>
<path d="M18.8327 18.8335H17.666V20.0002H18.8327V18.8335Z" fill="white"/>
<path d="M21.1667 18.8335H20V20.0002H21.1667V18.8335Z" fill="white"/>
<path d="M23.5007 18.8335H22.334V20.0002H23.5007V18.8335Z" fill="white"/>
<path d="M29.3327 18.8335H28.166V20.0002H29.3327V18.8335Z" fill="white"/>
<path d="M31.6667 18.8335H30.5V20.0002H31.6667V18.8335Z" fill="white"/>
<path d="M34.0007 18.8335H32.834V20.0002H34.0007V18.8335Z" fill="white"/>
</svg>
