<svg width="51" height="85" viewBox="0 0 51 85" fill="none" xmlns="http://www.w3.org/2000/svg">
<path d="M43.4648 3.98438C43.0996 3.98438 42.8008 3.68555 42.8008 3.32031C42.8008 2.95508 43.083 2.65625 43.4648 2.65625H43.4814C43.8467 2.65625 44.1455 2.95508 44.1455 3.32031C44.1455 3.68555 43.8301 3.98438 43.4648 3.98438Z" fill="black"/>
<path d="M40.8086 3.98438C40.4434 3.98438 40.1445 3.68555 40.1445 3.32031C40.1445 2.95508 40.4268 2.65625 40.8086 2.65625H40.8252C41.1904 2.65625 41.4893 2.95508 41.4893 3.32031C41.4893 3.68555 41.1738 3.98438 40.8086 3.98438Z" fill="black"/>
<path d="M43.4297 82.3438H7.57031C4.2666 82.3438 1.59375 79.6709 1.59375 76.3672V5.97656C1.59375 2.67285 4.2666 0 7.57031 0H43.4297C46.7334 0 49.4062 2.67285 49.4062 5.97656V76.3672C49.4062 79.6543 46.7168 82.3438 43.4297 82.3438ZM7.57031 1.32812C5.01367 1.32812 2.92188 3.41992 2.92188 5.97656V76.3672C2.92188 78.9238 5.01367 81.0156 7.57031 81.0156H43.4297C45.9863 81.0156 48.0781 78.9238 48.0781 76.3672V5.97656C48.0781 3.41992 45.9863 1.32812 43.4297 1.32812H7.57031Z" fill="black"/>
<path d="M43.4297 85H7.57031C4.2666 85 1.59375 82.3271 1.59375 79.0234C1.59375 78.6582 1.89258 78.3594 2.25781 78.3594C2.62305 78.3594 2.92188 78.6582 2.92188 79.0234C2.92188 81.5801 5.01367 83.6719 7.57031 83.6719H43.4297C45.9863 83.6719 48.0781 81.5801 48.0781 79.0234C48.0781 78.6582 48.377 78.3594 48.7422 78.3594C49.1074 78.3594 49.4062 78.6582 49.4062 79.0234C49.4062 82.3105 46.7168 85 43.4297 85Z" fill="black"/>
<path d="M48.7422 79.6875C48.377 79.6875 48.0781 79.3887 48.0781 79.0234V76.3672C48.0781 76.002 48.377 75.7031 48.7422 75.7031C49.1074 75.7031 49.4062 76.002 49.4062 76.3672V79.0234C49.4062 79.3887 49.1074 79.6875 48.7422 79.6875Z" fill="black"/>
<path d="M2.25781 79.6875C1.89258 79.6875 1.59375 79.3887 1.59375 79.0234V76.3672C1.59375 76.002 1.89258 75.7031 2.25781 75.7031C2.62305 75.7031 2.92188 76.002 2.92188 76.3672V79.0234C2.92188 79.3887 2.62305 79.6875 2.25781 79.6875Z" fill="black"/>
<path d="M47.4141 6.64062H3.58594C3.2207 6.64062 2.92188 6.3418 2.92188 5.97656C2.92188 5.61133 3.2207 5.3125 3.58594 5.3125H47.4141C47.7793 5.3125 48.0781 5.61133 48.0781 5.97656C48.0781 6.3418 47.7793 6.64062 47.4141 6.64062Z" fill="black"/>
<path d="M47.4141 70.3906H3.58594C3.2207 70.3906 2.92188 70.0918 2.92188 69.7266C2.92188 69.3613 3.2207 69.0625 3.58594 69.0625H47.4141C47.7793 69.0625 48.0781 69.3613 48.0781 69.7266C48.0781 70.0918 47.7793 70.3906 47.4141 70.3906Z" fill="black"/>
<path d="M25.5 79.6875C23.3086 79.6875 21.5156 77.8945 21.5156 75.7031C21.5156 73.5117 23.3086 71.7188 25.5 71.7188C27.6914 71.7188 29.4844 73.5117 29.4844 75.7031C29.4844 77.8945 27.6914 79.6875 25.5 79.6875ZM25.5 73.0469C24.0391 73.0469 22.8438 74.2422 22.8438 75.7031C22.8438 77.1641 24.0391 78.3594 25.5 78.3594C26.9609 78.3594 28.1562 77.1641 28.1562 75.7031C28.1562 74.2422 26.9609 73.0469 25.5 73.0469Z" fill="black"/>
<path d="M30.1484 3.98438H20.8516C20.4863 3.98438 20.1875 3.68555 20.1875 3.32031C20.1875 2.95508 20.4863 2.65625 20.8516 2.65625H30.1484C30.5137 2.65625 30.8125 2.95508 30.8125 3.32031C30.8125 3.68555 30.5137 3.98438 30.1484 3.98438Z" fill="black"/>
<path d="M49.4062 15.9375C49.041 15.9375 48.7422 15.6387 48.7422 15.2734V12.6172C48.7422 12.252 49.041 11.9531 49.4062 11.9531C49.7715 11.9531 50.0703 12.252 50.0703 12.6172V15.2734C50.0703 15.6387 49.7715 15.9375 49.4062 15.9375Z" fill="black"/>
<path d="M1.59375 17.2656C1.22852 17.2656 0.929688 16.9668 0.929688 16.6016V13.9453C0.929688 13.5801 1.22852 13.2812 1.59375 13.2812C1.95898 13.2812 2.25781 13.5801 2.25781 13.9453V16.6016C2.25781 16.9668 1.95898 17.2656 1.59375 17.2656Z" fill="black"/>
<path d="M49.4062 27.8906C49.041 27.8906 48.7422 27.5918 48.7422 27.2266V19.2578C48.7422 18.8926 49.041 18.5938 49.4062 18.5938C49.7715 18.5938 50.0703 18.8926 50.0703 19.2578V27.2266C50.0703 27.5918 49.7715 27.8906 49.4062 27.8906Z" fill="black"/>
</svg>
