<svg width="75" height="85" viewBox="0 0 75 85" fill="none" xmlns="http://www.w3.org/2000/svg">
<path d="M1.65695 84.985C1.64034 84.985 1.64035 84.985 1.62374 84.985C1.25851 84.9684 0.976282 84.6695 0.992884 84.3043L3.64913 13.9303C3.66573 13.565 3.94796 13.2662 4.3298 13.2994C4.69503 13.316 4.97726 13.6148 4.96066 13.9801L2.30441 84.3541C2.30441 84.7027 2.00558 84.985 1.65695 84.985Z" fill="#272727"/>
<path d="M68.031 84.9831C67.6823 84.9831 67.3835 84.7009 67.3669 84.3357L64.7273 13.9782C64.7107 13.613 64.9929 13.2976 65.3581 13.2976C65.74 13.281 66.0388 13.5632 66.0388 13.9284L68.695 84.3025C68.7116 84.6677 68.4294 84.9831 68.0642 84.9831C68.0476 84.9831 68.0476 84.9831 68.031 84.9831Z" fill="#272727"/>
<path d="M68.0459 84.9844H1.65625C1.29102 84.9844 0.992188 84.6855 0.992188 84.3203C0.992188 83.9551 1.29102 83.6562 1.65625 83.6562H68.0459C68.4111 83.6562 68.71 83.9551 68.71 84.3203C68.71 84.6855 68.4111 84.9844 68.0459 84.9844Z" fill="#272727"/>
<path d="M30.8594 1.34375H4.29688C3.93164 1.34375 3.63281 1.04492 3.63281 0.679688C3.63281 0.314453 3.93164 0.015625 4.29688 0.015625H30.8594C31.2246 0.015625 31.5234 0.314453 31.5234 0.679688C31.5234 1.04492 31.2246 1.34375 30.8594 1.34375Z" fill="#272727"/>
<path d="M68.0482 84.9817C67.9651 84.9817 67.8821 84.9651 67.7991 84.9319C67.4505 84.7991 67.2845 84.4173 67.4339 84.0687L70.0901 77.428C70.223 77.0794 70.6214 76.9134 70.9534 77.0628C71.2855 77.1956 71.4515 77.5775 71.3187 77.9261L68.6624 84.5667C68.5462 84.8323 68.2972 84.9817 68.0482 84.9817Z" fill="#272727"/>
<path d="M73.34 82.3283C73.1242 82.3283 72.9084 82.2287 72.7922 82.0295L70.1359 78.0451C69.9367 77.7463 70.0197 77.3312 70.3185 77.132C70.6174 76.9328 71.0324 77.0158 71.2316 77.3146L73.8879 81.299C74.0871 81.5978 74.0041 82.0129 73.7053 82.2121C73.6057 82.2951 73.4729 82.3283 73.34 82.3283Z" fill="#272727"/>
<path d="M68.0441 84.9855C67.7951 84.9855 67.5627 84.8527 67.4465 84.6203C67.2805 84.2883 67.4133 83.8898 67.7453 83.7238L73.0578 81.0676C73.3898 80.9015 73.7883 81.0344 73.9543 81.3664C74.1203 81.6984 73.9875 82.0969 73.6555 82.2629L68.343 84.9191C68.2433 84.9689 68.1437 84.9855 68.0441 84.9855Z" fill="#272727"/>
<path d="M73.3454 82.3269C72.9968 82.3269 72.7146 82.0613 72.6814 81.7126L66.0573 0.730229C66.0241 0.364995 66.3064 0.0495653 66.6716 0.0163621C67.0534 -0.000239426 67.3523 0.265386 67.3855 0.63062L74.0261 81.6296C74.0593 81.9949 73.7771 82.3103 73.4118 82.3435C73.3952 82.3269 73.362 82.3269 73.3454 82.3269Z" fill="#272727"/>
<path d="M30.8594 11.9531H4.29688C3.93164 11.9531 3.63281 11.6543 3.63281 11.2891C3.63281 10.9238 3.93164 10.625 4.29688 10.625H30.8594C31.2246 10.625 31.5234 10.9238 31.5234 11.2891C31.5234 11.6543 31.2246 11.9531 30.8594 11.9531Z" fill="#272727"/>
<path d="M65.3906 11.9531C65.0254 11.9531 64.7266 11.6543 64.7266 11.2891V0.664062C64.7266 0.298828 65.0254 0 65.3906 0C65.7559 0 66.0547 0.298828 66.0547 0.664062V11.2891C66.0547 11.6709 65.7559 11.9531 65.3906 11.9531Z" fill="#272727"/>
<path d="M4.29688 11.9531C3.93164 11.9531 3.63281 11.6543 3.63281 11.2891V0.664062C3.63281 0.298828 3.93164 0 4.29688 0C4.66211 0 4.96094 0.298828 4.96094 0.664062V11.2891C4.96094 11.6709 4.67871 11.9531 4.29688 11.9531Z" fill="#272727"/>
<path d="M4.29688 12.6172C3.93164 12.6172 3.63281 12.3184 3.63281 11.9531V11.2891C3.63281 10.9238 3.93164 10.625 4.29688 10.625C4.66211 10.625 4.96094 10.9238 4.96094 11.2891V11.9531C4.96094 12.335 4.67871 12.6172 4.29688 12.6172Z" fill="#272727"/>
<path d="M6.95312 12.6172C6.58789 12.6172 6.28906 12.3184 6.28906 11.9531V11.2891C6.28906 10.9238 6.58789 10.625 6.95312 10.625C7.31836 10.625 7.61719 10.9238 7.61719 11.2891V11.9531C7.61719 12.335 7.33496 12.6172 6.95312 12.6172Z" fill="#272727"/>
<path d="M9.60938 12.6172C9.24414 12.6172 8.94531 12.3184 8.94531 11.9531V11.2891C8.94531 10.9238 9.24414 10.625 9.60938 10.625C9.97461 10.625 10.2734 10.9238 10.2734 11.2891V11.9531C10.2734 12.335 9.99121 12.6172 9.60938 12.6172Z" fill="#272727"/>
<path d="M12.2656 12.6172C11.9004 12.6172 11.6016 12.3184 11.6016 11.9531V11.2891C11.6016 10.9238 11.9004 10.625 12.2656 10.625C12.6309 10.625 12.9297 10.9238 12.9297 11.2891V11.9531C12.9297 12.335 12.6309 12.6172 12.2656 12.6172Z" fill="#272727"/>
<path d="M14.9219 12.6172C14.5566 12.6172 14.2578 12.3184 14.2578 11.9531V11.2891C14.2578 10.9238 14.5566 10.625 14.9219 10.625C15.2871 10.625 15.5859 10.9238 15.5859 11.2891V11.9531C15.5859 12.335 15.2871 12.6172 14.9219 12.6172Z" fill="#272727"/>
<path d="M17.5781 12.6172C17.2129 12.6172 16.9141 12.3184 16.9141 11.9531V11.2891C16.9141 10.9238 17.2129 10.625 17.5781 10.625C17.9434 10.625 18.2422 10.9238 18.2422 11.2891V11.9531C18.2422 12.335 17.9434 12.6172 17.5781 12.6172Z" fill="#272727"/>
<path d="M20.2344 12.6172C19.8691 12.6172 19.5703 12.3184 19.5703 11.9531V11.2891C19.5703 10.9238 19.8691 10.625 20.2344 10.625C20.5996 10.625 20.8984 10.9238 20.8984 11.2891V11.9531C20.8984 12.335 20.5996 12.6172 20.2344 12.6172Z" fill="#272727"/>
<path d="M22.8906 12.6172C22.5254 12.6172 22.2266 12.3184 22.2266 11.9531V11.2891C22.2266 10.9238 22.5254 10.625 22.8906 10.625C23.2559 10.625 23.5547 10.9238 23.5547 11.2891V11.9531C23.5547 12.335 23.2559 12.6172 22.8906 12.6172Z" fill="#272727"/>
<path d="M25.5469 12.6172C25.1816 12.6172 24.8828 12.3184 24.8828 11.9531V11.2891C24.8828 10.9238 25.1816 10.625 25.5469 10.625C25.9121 10.625 26.2109 10.9238 26.2109 11.2891V11.9531C26.2109 12.335 25.9121 12.6172 25.5469 12.6172Z" fill="#272727"/>
<path d="M28.2031 12.6172C27.8379 12.6172 27.5391 12.3184 27.5391 11.9531V11.2891C27.5391 10.9238 27.8379 10.625 28.2031 10.625C28.5684 10.625 28.8672 10.9238 28.8672 11.2891V11.9531C28.8672 12.335 28.5684 12.6172 28.2031 12.6172Z" fill="#272727"/>
<path d="M32.1875 18.5928C31.8223 18.5928 31.5234 18.2939 31.5234 17.9287V0.679688C31.5234 0.314453 31.8223 0.015625 32.1875 0.015625C32.5527 0.015625 32.8516 0.314453 32.8516 0.679688V17.9453C32.8516 18.2939 32.5527 18.5928 32.1875 18.5928Z" fill="#272727"/>
<path d="M37.5 18.5928C37.1348 18.5928 36.8359 18.2939 36.8359 17.9287V0.679688C36.8359 0.314453 37.1348 0.015625 37.5 0.015625C37.8652 0.015625 38.1641 0.314453 38.1641 0.679688V17.9453C38.1641 18.2939 37.8652 18.5928 37.5 18.5928Z" fill="#272727"/>
<path d="M41.4844 12.6172C41.1191 12.6172 40.8203 12.3184 40.8203 11.9531V11.2891C40.8203 10.9238 41.1191 10.625 41.4844 10.625C41.8496 10.625 42.1484 10.9238 42.1484 11.2891V11.9531C42.1484 12.335 41.8496 12.6172 41.4844 12.6172Z" fill="#272727"/>
<path d="M44.1406 12.6172C43.7754 12.6172 43.4766 12.3184 43.4766 11.9531V11.2891C43.4766 10.9238 43.7754 10.625 44.1406 10.625C44.5059 10.625 44.8047 10.9238 44.8047 11.2891V11.9531C44.8047 12.335 44.5059 12.6172 44.1406 12.6172Z" fill="#272727"/>
<path d="M46.7969 12.6172C46.4316 12.6172 46.1328 12.3184 46.1328 11.9531V11.2891C46.1328 10.9238 46.4316 10.625 46.7969 10.625C47.1621 10.625 47.4609 10.9238 47.4609 11.2891V11.9531C47.4609 12.335 47.1621 12.6172 46.7969 12.6172Z" fill="#272727"/>
<path d="M49.4531 12.6172C49.0879 12.6172 48.7891 12.3184 48.7891 11.9531V11.2891C48.7891 10.9238 49.0879 10.625 49.4531 10.625C49.8184 10.625 50.1172 10.9238 50.1172 11.2891V11.9531C50.1172 12.335 49.8184 12.6172 49.4531 12.6172Z" fill="#272727"/>
<path d="M52.1094 12.6172C51.7441 12.6172 51.4453 12.3184 51.4453 11.9531V11.2891C51.4453 10.9238 51.7441 10.625 52.1094 10.625C52.4746 10.625 52.7734 10.9238 52.7734 11.2891V11.9531C52.7734 12.335 52.4746 12.6172 52.1094 12.6172Z" fill="#272727"/>
<path d="M54.7656 12.6172C54.4004 12.6172 54.1016 12.3184 54.1016 11.9531V11.2891C54.1016 10.9238 54.4004 10.625 54.7656 10.625C55.1309 10.625 55.4297 10.9238 55.4297 11.2891V11.9531C55.4297 12.335 55.1309 12.6172 54.7656 12.6172Z" fill="#272727"/>
<path d="M57.4219 12.6172C57.0566 12.6172 56.7578 12.3184 56.7578 11.9531V11.2891C56.7578 10.9238 57.0566 10.625 57.4219 10.625C57.7871 10.625 58.0859 10.9238 58.0859 11.2891V11.9531C58.0859 12.335 57.7871 12.6172 57.4219 12.6172Z" fill="#272727"/>
<path d="M60.0781 12.6172C59.7129 12.6172 59.4141 12.3184 59.4141 11.9531V11.2891C59.4141 10.9238 59.7129 10.625 60.0781 10.625C60.4434 10.625 60.7422 10.9238 60.7422 11.2891V11.9531C60.7422 12.335 60.4434 12.6172 60.0781 12.6172Z" fill="#272727"/>
<path d="M62.7344 12.6172C62.3691 12.6172 62.0703 12.3184 62.0703 11.9531V11.2891C62.0703 10.9238 62.3691 10.625 62.7344 10.625C63.0996 10.625 63.3984 10.9238 63.3984 11.2891V11.9531C63.3984 12.335 63.0996 12.6172 62.7344 12.6172Z" fill="#272727"/>
<path d="M65.3906 12.6172C65.0254 12.6172 64.7266 12.3184 64.7266 11.9531V11.2891C64.7266 10.9238 65.0254 10.625 65.3906 10.625C65.7559 10.625 66.0547 10.9238 66.0547 11.2891V11.9531C66.0547 12.335 65.7559 12.6172 65.3906 12.6172Z" fill="#272727"/>
<path d="M65.3906 11.9531H38.8281C38.4629 11.9531 38.1641 11.6543 38.1641 11.2891C38.1641 10.9238 38.4629 10.625 38.8281 10.625H65.3906C65.7559 10.625 66.0547 10.9238 66.0547 11.2891C66.0547 11.6543 65.7559 11.9531 65.3906 11.9531Z" fill="#272727"/>
<path d="M65.3906 1.34375H38.8281C38.4629 1.34375 38.1641 1.04492 38.1641 0.679688C38.1641 0.314453 38.4629 0.015625 38.8281 0.015625H65.3906C65.7559 0.015625 66.0547 0.314453 66.0547 0.679688C66.0547 1.04492 65.7559 1.34375 65.3906 1.34375Z" fill="#272727"/>
<path d="M37.5 1.34375H32.1875C31.8223 1.34375 31.5234 1.04492 31.5234 0.679688C31.5234 0.314453 31.8223 0.015625 32.1875 0.015625H37.5C37.8652 0.015625 38.1641 0.314453 38.1641 0.679688C38.1641 1.04492 37.8652 1.34375 37.5 1.34375Z" fill="#272727"/>
<path d="M32.1848 18.5949C31.9357 18.5949 31.7033 18.4621 31.5871 18.2297C31.4211 17.8976 31.5539 17.4992 31.8859 17.3332L34.5422 16.0051C34.8742 15.8391 35.2726 15.9719 35.4387 16.3039C35.6047 16.6359 35.4719 17.0344 35.1398 17.2004L32.4836 18.5285C32.384 18.5783 32.2844 18.5949 32.1848 18.5949Z" fill="#272727"/>
<path d="M37.4973 18.5949C37.3976 18.5949 37.298 18.5783 37.1984 18.5285L34.5422 17.2004C34.2101 17.0344 34.0773 16.6359 34.2433 16.3039C34.4094 15.9719 34.8078 15.8391 35.1398 16.0051L37.7961 17.3332C38.1281 17.4992 38.2609 17.8976 38.0949 18.2297C37.9787 18.4621 37.7463 18.5949 37.4973 18.5949Z" fill="#272727"/>
<path d="M34.8438 63.75C33.084 63.75 31.374 63.4512 29.7637 62.8701C28.4023 62.3887 27.124 61.7412 25.9951 60.9111C21.9775 58.0889 19.5703 53.4238 19.5703 48.4766C19.5703 40.0596 26.4268 33.2031 34.8438 33.2031C43.2607 33.2031 50.1172 40.0596 50.1172 48.4766C50.1172 50.8672 49.5693 53.1748 48.5068 55.2998C45.9004 60.5127 40.6709 63.75 34.8438 63.75ZM34.8438 34.5312C27.1572 34.5312 20.8984 40.79 20.8984 48.4766C20.8984 52.9922 23.0898 57.2422 26.7588 59.832C27.7881 60.5957 28.9502 61.1934 30.1953 61.625C31.6729 62.1563 33.2334 62.4219 34.8438 62.4219C40.1729 62.4219 44.9375 59.4668 47.3115 54.7188C48.291 52.7598 48.7891 50.668 48.7891 48.4766C48.7891 40.79 42.5303 34.5312 34.8438 34.5312Z" fill="#272727"/>
<path d="M26.3922 61.0455C26.2594 61.0455 26.1266 61.0123 26.0104 60.9293C25.7115 60.7135 25.6451 60.2984 25.8443 59.9996L32.319 50.7525C32.5348 50.4537 32.9498 50.3873 33.2486 50.5865C33.5475 50.8024 33.6139 51.2174 33.4147 51.5162L26.94 60.7633C26.8072 60.9459 26.5914 61.0455 26.3922 61.0455Z" fill="#272727"/>
<path d="M35.2598 55.251C35.044 55.251 34.8448 55.1514 34.712 54.9688L32.3047 51.5157C32.0889 51.2168 32.1719 50.8018 32.4707 50.586C32.7696 50.3702 33.1846 50.4532 33.4004 50.752L35.8077 54.2051C36.0235 54.504 35.9405 54.919 35.6416 55.1348C35.5254 55.2012 35.3926 55.251 35.2598 55.251Z" fill="#272727"/>
<path d="M29.982 62.9049C29.8492 62.9049 29.7164 62.8717 29.6002 62.7887C29.3014 62.5729 29.235 62.1578 29.4342 61.859L40.9391 45.44C41.1549 45.1412 41.5699 45.0748 41.8688 45.274C42.1676 45.4899 42.234 45.9049 42.0348 46.2037L30.5299 62.6227C30.3971 62.8053 30.1979 62.9049 29.982 62.9049Z" fill="#272727"/>
<path d="M47.9102 55.6661C47.6944 55.6661 47.4952 55.5665 47.3623 55.3838L40.9375 46.2032C40.7217 45.9043 40.8047 45.4893 41.1036 45.2735C41.4024 45.0577 41.8174 45.1407 42.0332 45.4395L48.458 54.6202C48.6739 54.919 48.5909 55.334 48.292 55.5499C48.1758 55.6329 48.043 55.6661 47.9102 55.6661Z" fill="#272727"/>
<path d="M29.5312 46.4844C27.7051 46.4844 26.2109 44.9902 26.2109 43.1641C26.2109 41.3379 27.7051 39.8438 29.5312 39.8438C31.3574 39.8438 32.8516 41.3379 32.8516 43.1641C32.8516 44.9902 31.3574 46.4844 29.5312 46.4844ZM29.5312 41.1719C28.4355 41.1719 27.5391 42.0684 27.5391 43.1641C27.5391 44.2598 28.4355 45.1562 29.5312 45.1562C30.627 45.1562 31.5234 44.2598 31.5234 43.1641C31.5234 42.0684 30.627 41.1719 29.5312 41.1719Z" fill="#272727"/>
</svg>
