<svg width="85" height="79" viewBox="0 0 85 79" fill="none" xmlns="http://www.w3.org/2000/svg">
<path d="M80.9805 57.779C80.665 57.779 80.3828 57.5466 80.333 57.2311L75.7178 31.0837C75.6514 30.7184 75.9004 30.3864 76.249 30.32C76.6143 30.237 76.9463 30.5026 77.0127 30.8512L81.6279 56.9987C81.6943 57.364 81.4453 57.696 81.0967 57.7624C81.0635 57.779 81.0303 57.779 80.9805 57.779Z" fill="#272727"/>
<path d="M81.6755 61.697C81.3601 61.697 81.0779 61.4645 81.0281 61.1491C80.4304 57.7624 67.448 57.1315 59.4128 57.5466C59.0476 57.5798 58.7321 57.2809 58.7155 56.9157C58.6989 56.5505 58.9812 56.2351 59.3464 56.2184C61.5876 56.1022 81.3435 55.2722 82.323 60.9167C82.3894 61.2819 82.1404 61.614 81.7917 61.6804C81.7585 61.697 81.7087 61.697 81.6755 61.697Z" fill="#272727"/>
<path d="M56.1426 39.235C55.8272 39.235 55.5449 39.0026 55.4951 38.6872C55.4287 38.3219 55.6777 37.9899 56.0264 37.9235C61.6709 36.9274 76.0645 33.0592 75.0186 27.1657C74.9522 26.8005 75.2012 26.4684 75.5498 26.402C75.9151 26.319 76.2637 26.5846 76.3135 26.9333C76.9444 30.5524 73.6904 33.7233 66.6514 36.3796C61.5879 38.2887 56.292 39.235 56.2422 39.235C56.2256 39.235 56.1924 39.235 56.1426 39.235Z" fill="#272727"/>
<path d="M75.6856 27.7129C75.3701 27.7129 75.0879 27.4805 75.0381 27.165C74.9717 26.7998 75.2207 26.4678 75.5693 26.4014L78.1758 25.9365C78.541 25.8701 78.8731 26.1191 78.9395 26.4678C79.0059 26.833 78.7568 27.1651 78.4082 27.2315L75.8018 27.6963C75.7686 27.6963 75.7188 27.7129 75.6856 27.7129Z" fill="#272727"/>
<path d="M84.2998 61.2315C83.9844 61.2315 83.7022 60.999 83.6524 60.6836L77.6592 26.7002C77.5928 26.335 77.8418 26.0029 78.1904 25.9365C78.5557 25.8701 78.8877 26.1191 78.9541 26.4678L84.9473 60.4512C85.0137 60.8164 84.7647 61.1485 84.416 61.2149C84.3662 61.2315 84.333 61.2315 84.2998 61.2315Z" fill="#272727"/>
<path d="M81.6777 61.6973C81.3623 61.6973 81.0801 61.4649 81.0303 61.1494C80.9639 60.7842 81.2129 60.4522 81.5615 60.3858L84.1846 59.9209C84.5498 59.8545 84.8818 60.1035 84.9483 60.4522C85.0147 60.8174 84.7656 61.1494 84.417 61.2158L81.794 61.6807C81.7608 61.6973 81.7109 61.6973 81.6777 61.6973Z" fill="#272727"/>
<path d="M46.3003 59.8555C45.9849 59.8555 45.7026 59.6231 45.6528 59.3076L42.4321 40.9961C42.3989 40.8301 42.4487 40.6475 42.5483 40.4981C42.6479 40.3486 42.7974 40.249 42.98 40.2324L56.0454 37.9248C56.394 37.8584 56.7427 38.1074 56.8091 38.4561C56.8755 38.8213 56.6265 39.1533 56.2778 39.2197L43.8599 41.4111L46.8647 58.4111L59.2827 56.2197C59.6479 56.1533 59.98 56.4024 60.0464 56.751C60.1128 57.1162 59.8638 57.4483 59.5151 57.5147L46.4497 59.8223C46.3833 59.8389 46.3501 59.8555 46.3003 59.8555Z" fill="#272727"/>
<path d="M46.2995 59.8535C46.2497 59.8535 46.2165 59.8535 46.1667 59.8369L39.1774 58.376C38.9118 58.3261 38.7126 58.1103 38.6627 57.8447L36.3551 44.7627C36.3053 44.497 36.4215 44.2314 36.654 44.082L42.7301 40.3135C42.9127 40.1972 43.1452 40.1806 43.3444 40.2803C43.5436 40.3633 43.693 40.5459 43.7262 40.7783L46.9469 59.0732C46.9801 59.289 46.9137 59.5049 46.7643 59.6709C46.6481 59.7871 46.4821 59.8535 46.2995 59.8535ZM39.8747 57.164L45.4694 58.3261L42.5807 41.957L37.7331 44.9785L39.8747 57.164Z" fill="#272727"/>
<path d="M58.9151 54.9238C58.5996 54.9238 58.3174 54.6914 58.2676 54.376L55.96 41.294C55.8936 40.9287 56.1426 40.5967 56.4912 40.5303C56.8565 40.4639 57.1885 40.7129 57.2549 41.0615L59.5625 54.1436C59.6289 54.5088 59.3799 54.8408 59.0313 54.9072C58.9981 54.9238 58.9483 54.9238 58.9151 54.9238Z" fill="#272727"/>
<path d="M40.0723 47.4688C39.7568 47.4688 39.4746 47.2363 39.4248 46.9209C39.3584 46.5557 39.6074 46.2236 39.9561 46.1572L41.2676 45.9248C41.6328 45.8584 41.9648 46.1074 42.0313 46.4561C42.0977 46.8213 41.8486 47.1533 41.5 47.2197L40.1885 47.4522C40.1553 47.4688 40.1055 47.4688 40.0723 47.4688Z" fill="#272727"/>
<path d="M41.4512 55.3053C41.1357 55.3053 40.8535 55.0729 40.8037 54.7575C40.7373 54.3923 40.9863 54.0602 41.335 53.9938L42.6465 53.7614C43.0117 53.6784 43.3438 53.944 43.4102 54.2926C43.4766 54.6579 43.2275 54.9899 42.8789 55.0563L41.5674 55.2887C41.5342 55.3053 41.501 55.3053 41.4512 55.3053Z" fill="#272727"/>
<path d="M40.7715 51.3867C40.4561 51.3867 40.1738 51.1543 40.124 50.8389C40.0576 50.4736 40.3066 50.1416 40.6553 50.0752L41.9668 49.8428C42.332 49.7764 42.6641 50.0254 42.7305 50.374C42.7969 50.7393 42.5479 51.0713 42.1992 51.1377L40.8877 51.3701C40.8379 51.3867 40.8047 51.3867 40.7715 51.3867Z" fill="#272727"/>
<path d="M44.2715 40.6621C43.9561 40.6621 43.6738 40.4297 43.624 40.1143C43.5576 39.749 43.8067 39.417 44.1553 39.3506L46.7783 38.8858C47.127 38.8193 47.4756 39.0684 47.542 39.417C47.6084 39.7822 47.3594 40.1143 47.0108 40.1807L44.3877 40.6455C44.3379 40.6621 44.3047 40.6621 44.2715 40.6621Z" fill="#272727"/>
<path d="M62.819 76.9196C62.5534 76.9196 62.2878 76.7536 62.1882 76.4714L57.2907 62.7585C57.1745 62.4099 57.3405 62.028 57.6892 61.9118C58.0378 61.7956 58.4196 61.9616 58.5358 62.3102L63.4333 76.0231C63.5495 76.3718 63.3835 76.7536 63.0349 76.8698C62.9684 76.903 62.8854 76.9196 62.819 76.9196Z" fill="#272727"/>
<path d="M56.2761 78.0641C56.0104 78.0641 55.7448 77.8981 55.6452 77.6159L50.7477 63.903C50.6315 63.5544 50.7976 63.1726 51.1462 63.0563C51.4948 62.9401 51.8767 63.1061 51.9929 63.4548L56.8903 77.1677C57.0231 77.5163 56.8405 77.8981 56.4919 78.0143C56.4255 78.0641 56.3591 78.0641 56.2761 78.0641Z" fill="#272727"/>
<path d="M54.9668 78.2959C54.6514 78.2959 54.3692 78.0635 54.3193 77.7481C54.2529 77.3828 54.502 77.0508 54.8506 76.9844L63.9981 75.374C64.3633 75.3076 64.6953 75.5566 64.7617 75.9053C64.8281 76.2705 64.5791 76.6025 64.2305 76.669L55.083 78.2793C55.0498 78.2959 55.0166 78.2959 54.9668 78.2959Z" fill="#272727"/>
<path d="M48.3067 63.5387C47.9912 63.5387 47.709 63.3063 47.6592 62.9909L47.3936 61.5134C47.3272 61.1481 47.5762 60.8161 47.9248 60.7497C48.2901 60.6667 48.6221 60.9323 48.6885 61.2809L48.9541 62.7585C49.0205 63.1237 48.7715 63.4557 48.4229 63.5221C48.3731 63.5387 48.3399 63.5387 48.3067 63.5387Z" fill="#272727"/>
<path d="M48.3066 63.54C47.9912 63.54 47.709 63.3076 47.6592 62.9922C47.5928 62.6269 47.8418 62.2949 48.207 62.2285L59.9775 60.1865C60.3428 60.1201 60.6748 60.3691 60.7412 60.7344C60.8076 61.0996 60.5586 61.4316 60.1933 61.498L48.4228 63.54C48.373 63.54 48.3398 63.54 48.3066 63.54Z" fill="#272727"/>
<path d="M60.0781 61.4971C59.7627 61.4971 59.4805 61.2647 59.4307 60.9492L59.1983 59.6377C59.1318 59.2725 59.3809 58.9404 59.7295 58.874C60.0781 58.8076 60.4268 59.0566 60.4932 59.4053L60.7256 60.7168C60.792 61.082 60.543 61.4141 60.1944 61.4805C60.1611 61.4971 60.1113 61.4971 60.0781 61.4971Z" fill="#272727"/>
<path d="M3.37109 3.35938C3.00586 3.35938 2.70703 3.06055 2.70703 2.69531C2.70703 2.33008 2.98926 2.03125 3.37109 2.03125H3.3877C3.75293 2.03125 4.05176 2.33008 4.05176 2.69531C4.05176 3.06055 3.75293 3.35938 3.37109 3.35938Z" fill="#272727"/>
<path d="M6.02734 3.35938C5.66211 3.35938 5.36328 3.06055 5.36328 2.69531C5.36328 2.33008 5.64551 2.03125 6.02734 2.03125H6.04395C6.40918 2.03125 6.70801 2.33008 6.70801 2.69531C6.70801 3.06055 6.39258 3.35938 6.02734 3.35938Z" fill="#272727"/>
<path d="M8.68359 3.35938C8.31836 3.35938 8.01953 3.06055 8.01953 2.69531C8.01953 2.33008 8.30176 2.03125 8.68359 2.03125H8.7002C9.06543 2.03125 9.36426 2.33008 9.36426 2.69531C9.36426 3.06055 9.04883 3.35938 8.68359 3.35938Z" fill="#272727"/>
<path d="M84.3184 4.6875H0.679688C0.314453 4.6875 0.015625 4.38867 0.015625 4.02344V2.69531C0.015625 1.59961 0.912109 0.703125 2.00781 0.703125H82.9902C84.0859 0.703125 84.9824 1.59961 84.9824 2.69531V4.02344C84.9824 4.38867 84.6836 4.6875 84.3184 4.6875ZM1.34375 3.35938H83.6543V2.69531C83.6543 2.33008 83.3555 2.03125 82.9902 2.03125H2.00781C1.64258 2.03125 1.34375 2.33008 1.34375 2.69531V3.35938Z" fill="#272727"/>
<path d="M84.3164 47.1543C83.9512 47.1543 83.6523 46.8555 83.6523 46.4902V4.02344C83.6523 3.6582 83.9512 3.35938 84.3164 3.35938C84.6816 3.35938 84.9805 3.6582 84.9805 4.02344V46.5068C84.9805 46.8555 84.6816 47.1543 84.3164 47.1543Z" fill="#272727"/>
<path d="M0.679688 57.7793C0.314453 57.7793 0.015625 57.4805 0.015625 57.1152V4.02344C0.015625 3.6582 0.314453 3.35938 0.679688 3.35938C1.04492 3.35938 1.34375 3.6582 1.34375 4.02344V57.1152C1.34375 57.4805 1.04492 57.7793 0.679688 57.7793Z" fill="#272727"/>
<path d="M36.5225 57.7773H0.679688C0.314453 57.7773 0.015625 57.4785 0.015625 57.1133C0.015625 56.748 0.314453 56.4492 0.679688 56.4492H36.5225C36.8877 56.4492 37.1865 56.748 37.1865 57.1133C37.1865 57.4785 36.8877 57.7773 36.5225 57.7773Z" fill="#272727"/>
<path d="M15.8205 40.5128C15.7043 40.5128 15.5881 40.4796 15.4719 40.4132C15.1564 40.2306 15.0568 39.8156 15.2394 39.5001L20.0041 31.5314C20.1203 31.3322 20.3693 31.1661 20.5686 31.216C20.801 31.216 21.0168 31.3322 21.133 31.5314L25.9641 39.5001C26.1467 39.8156 26.0471 40.214 25.7482 40.4132C25.4328 40.5958 25.0344 40.4962 24.8352 40.1974L20.5686 33.1749L16.3684 40.1974C16.2687 40.4132 16.0529 40.5128 15.8205 40.5128Z" fill="#272727"/>
<path d="M11.7541 40.5117C11.6213 40.5117 11.5051 40.4785 11.3889 40.3955C11.09 40.1963 11.007 39.7812 11.2062 39.4824L14.7258 34.1699C14.842 33.9873 15.0578 33.8711 15.2736 33.8711C15.4894 33.8711 15.7053 33.9873 15.8215 34.1699L17.7805 37.1084C17.9797 37.4072 17.8967 37.8223 17.5978 38.0215C17.299 38.2207 16.884 38.1377 16.6848 37.8389L15.2902 35.7305L12.3185 40.2129C12.1857 40.4121 11.9699 40.5117 11.7541 40.5117Z" fill="#272727"/>
<path d="M79.0059 21.9375H5.99219C5.62695 21.9375 5.32812 21.6387 5.32812 21.2734V9.32031C5.32812 8.95508 5.62695 8.65625 5.99219 8.65625H79.0059C79.3711 8.65625 79.6699 8.95508 79.6699 9.32031V21.2734C79.6699 21.6387 79.3711 21.9375 79.0059 21.9375ZM6.65625 20.6094H78.3418V9.98438H6.65625V20.6094Z" fill="#272727"/>
<path d="M27.2256 40.5117H5.99219C5.62695 40.5117 5.32812 40.2129 5.32812 39.8477V26.5664C5.32812 26.2012 5.62695 25.9023 5.99219 25.9023H27.2256C27.5908 25.9023 27.8896 26.2012 27.8896 26.5664V39.8477C27.8896 40.2295 27.6074 40.5117 27.2256 40.5117ZM6.65625 39.1836H26.5615V27.2305H6.65625V39.1836Z" fill="#272727"/>
<path d="M9.89453 32.5625C8.79883 32.5625 7.90234 31.666 7.90234 30.5703C7.90234 29.4746 8.79883 28.5781 9.89453 28.5781C10.9902 28.5781 11.8867 29.4746 11.8867 30.5703C11.8867 31.666 11.0068 32.5625 9.89453 32.5625ZM9.89453 29.9062C9.5293 29.9062 9.23047 30.2051 9.23047 30.5703C9.23047 30.9355 9.5293 31.2344 9.89453 31.2344C10.2598 31.2344 10.5586 30.9355 10.5586 30.5703C10.5586 30.2051 10.2764 29.9062 9.89453 29.9062Z" fill="#272727"/>
<path d="M71.7012 15.2969H13.2969C12.9316 15.2969 12.6328 14.998 12.6328 14.6328C12.6328 14.2676 12.9316 13.9688 13.2969 13.9688H71.7012C72.0664 13.9688 72.3652 14.2676 72.3652 14.6328C72.3652 14.998 72.0664 15.2969 71.7012 15.2969Z" fill="#272727"/>
<path d="M63.7324 17.9531H21.2656C20.9004 17.9531 20.6016 17.6543 20.6016 17.2891C20.6016 16.9238 20.9004 16.625 21.2656 16.625H63.749C64.1143 16.625 64.4131 16.9238 64.4131 17.2891C64.4131 17.6543 64.1143 17.9531 63.7324 17.9531Z" fill="#272727"/>
<path d="M27.2256 44.4961H5.99219C5.62695 44.4961 5.32812 44.1973 5.32812 43.832C5.32812 43.4668 5.62695 43.168 5.99219 43.168H27.2256C27.5908 43.168 27.8896 43.4668 27.8896 43.832C27.8896 44.1973 27.6074 44.4961 27.2256 44.4961Z" fill="#272727"/>
<path d="M27.2256 48.4805H5.99219C5.62695 48.4805 5.32812 48.1816 5.32812 47.8164C5.32812 47.4512 5.62695 47.1523 5.99219 47.1523H27.2256C27.5908 47.1523 27.8896 47.4512 27.8896 47.8164C27.8896 48.1816 27.6074 48.4805 27.2256 48.4805Z" fill="#272727"/>
<path d="M16.6172 52.4648H5.99219C5.62695 52.4648 5.32812 52.166 5.32812 51.8008C5.32812 51.4355 5.62695 51.1367 5.99219 51.1367H16.6172C16.9824 51.1367 17.2812 51.4355 17.2812 51.8008C17.2812 52.166 16.9824 52.4648 16.6172 52.4648Z" fill="#272727"/>
<path d="M42.3674 40.5117C42.2512 40.5117 42.135 40.4785 42.0187 40.4121C41.7033 40.2295 41.6037 39.8145 41.7863 39.499L46.551 31.5303C46.6672 31.3311 46.883 31.2148 47.1154 31.2148C47.3478 31.2148 47.5637 31.3311 47.6799 31.5303L52.2121 39.001C52.4113 39.3164 52.2951 39.7314 51.9963 39.9141C51.6809 40.0967 51.2824 39.9971 51.0832 39.6982L47.1486 33.1738L42.9484 40.1963C42.8156 40.4121 42.5998 40.5117 42.3674 40.5117Z" fill="#272727"/>
<path d="M38.3166 40.5117C38.1838 40.5117 38.0676 40.4785 37.9514 40.3955C37.6525 40.1963 37.5695 39.7812 37.7687 39.4824L41.2883 34.1699C41.4045 33.9873 41.6203 33.8711 41.8361 33.8711C42.052 33.8711 42.2678 33.9873 42.384 34.1699L44.343 37.1084C44.5422 37.4072 44.4592 37.8223 44.1604 38.0215C43.8449 38.2207 43.4465 38.1377 43.2473 37.8389L41.8527 35.7305L38.881 40.2129C38.7316 40.4121 38.5324 40.5117 38.3166 40.5117Z" fill="#272727"/>
<path d="M45.0566 40.5117H32.5391C32.1738 40.5117 31.875 40.2129 31.875 39.8477V26.5664C31.875 26.2012 32.1738 25.9023 32.5391 25.9023H53.7891C54.1543 25.9023 54.4531 26.2012 54.4531 26.5664V37.6562C54.4531 38.0215 54.1543 38.3203 53.7891 38.3203C53.4238 38.3203 53.125 38.0215 53.125 37.6562V27.2305H33.2031V39.1836H45.0566C45.4219 39.1836 45.7207 39.4824 45.7207 39.8477C45.7207 40.2295 45.4219 40.5117 45.0566 40.5117Z" fill="#272727"/>
<path d="M36.457 32.5625C35.3613 32.5625 34.4648 31.666 34.4648 30.5703C34.4648 29.4746 35.3613 28.5781 36.457 28.5781C37.5527 28.5781 38.4492 29.4746 38.4492 30.5703C38.4492 31.666 37.5527 32.5625 36.457 32.5625ZM36.457 29.9062C36.0918 29.9062 35.793 30.2051 35.793 30.5703C35.793 30.9355 36.0918 31.2344 36.457 31.2344C36.8223 31.2344 37.1211 30.9355 37.1211 30.5703C37.1211 30.2051 36.8223 29.9062 36.457 29.9062Z" fill="#272727"/>
<path d="M33.8672 44.4961H32.5391C32.1738 44.4961 31.875 44.1973 31.875 43.832C31.875 43.4668 32.1738 43.168 32.5391 43.168H33.8672C34.2324 43.168 34.5312 43.4668 34.5312 43.832C34.5312 44.1973 34.2324 44.4961 33.8672 44.4961Z" fill="#272727"/>
<path d="M33.8672 48.4805H32.5391C32.1738 48.4805 31.875 48.1816 31.875 47.8164C31.875 47.4512 32.1738 47.1523 32.5391 47.1523H33.8672C34.2324 47.1523 34.5312 47.4512 34.5312 47.8164C34.5312 48.1816 34.2324 48.4805 33.8672 48.4805Z" fill="#272727"/>
<path d="M35.1953 52.4648H32.5391C32.1738 52.4648 31.875 52.166 31.875 51.8008C31.875 51.4355 32.1738 51.1367 32.5391 51.1367H35.1953C35.5605 51.1367 35.8594 51.4355 35.8594 51.8008C35.8594 52.166 35.5605 52.4648 35.1953 52.4648Z" fill="#272727"/>
<path d="M59.1016 37.2939C58.7363 37.2939 58.4375 36.9951 58.4375 36.6299V26.5859C58.4375 26.2207 58.7363 25.9219 59.1016 25.9219H74.3252C74.6904 25.9219 74.9893 26.2207 74.9893 26.5859C74.9893 26.9512 74.6904 27.25 74.3252 27.25H59.7656V36.6299C59.7656 36.9951 59.4668 37.2939 59.1016 37.2939Z" fill="#272727"/>
<path d="M63.0039 32.5625C61.9082 32.5625 61.0117 31.666 61.0117 30.5703C61.0117 29.4746 61.9082 28.5781 63.0039 28.5781C64.0996 28.5781 64.9961 29.4746 64.9961 30.5703C64.9961 31.666 64.0996 32.5625 63.0039 32.5625ZM63.0039 29.9062C62.6387 29.9062 62.3398 30.2051 62.3398 30.5703C62.3398 30.9355 62.6387 31.2344 63.0039 31.2344C63.3691 31.2344 63.668 30.9355 63.668 30.5703C63.668 30.2051 63.3691 29.9062 63.0039 29.9062Z" fill="#272727"/>
</svg>
