<svg width="85" height="85" viewBox="0 0 85 85" fill="none" xmlns="http://www.w3.org/2000/svg">
<path d="M84.3183 57.0938H0.679687C0.314453 57.0938 0.015625 56.7949 0.015625 56.4297C0.015625 56.0645 0.314453 55.7656 0.679687 55.7656H84.3349C84.7002 55.7656 84.999 56.0645 84.999 56.4297C84.9824 56.7949 84.6836 57.0938 84.3183 57.0938Z" fill="#202022"/>
<path d="M42.5 63.7344C41.0391 63.7344 39.8438 62.5391 39.8438 61.0781C39.8438 59.6172 41.0391 58.4219 42.5 58.4219C43.9609 58.4219 45.1562 59.6172 45.1562 61.0781C45.1562 62.5391 43.9609 63.7344 42.5 63.7344ZM42.5 59.75C41.7695 59.75 41.1719 60.3477 41.1719 61.0781C41.1719 61.8086 41.7695 62.4062 42.5 62.4062C43.2305 62.4062 43.8281 61.8086 43.8281 61.0781C43.8281 60.3477 43.2305 59.75 42.5 59.75Z" fill="#202022"/>
<path d="M31.2277 80.9964C31.1779 80.9964 31.1281 80.9964 31.0783 80.9798C30.713 80.8968 30.4972 80.5481 30.5802 80.1829L33.2365 68.2298C33.3195 67.8811 33.6681 67.6487 34.0333 67.7317C34.3986 67.8147 34.6144 68.1634 34.5314 68.5286L31.8751 80.4817C31.8087 80.7805 31.5265 80.9964 31.2277 80.9964Z" fill="#202022"/>
<path d="M53.7737 80.9964C53.4749 80.9964 53.1926 80.7805 53.1262 80.4817L50.47 68.5286C50.387 68.1634 50.6194 67.8147 50.968 67.7317C51.3333 67.6487 51.6819 67.8811 51.7649 68.2298L54.4212 80.1829C54.5042 80.5481 54.2717 80.8968 53.9231 80.9798C53.8733 80.9798 53.8235 80.9964 53.7737 80.9964Z" fill="#202022"/>
<path d="M55.7812 81H29.2187C28.8535 81 28.5547 80.7012 28.5547 80.3359C28.5547 79.9707 28.8535 79.6719 29.2187 79.6719H55.7812C56.1465 79.6719 56.4453 79.9707 56.4453 80.3359C56.4453 80.7012 56.1465 81 55.7812 81Z" fill="#202022"/>
<path d="M80.334 53.1406H4.66406C4.29883 53.1406 4 52.8418 4 52.4766V8.64844C4 8.2832 4.29883 7.98438 4.66406 7.98438H80.3506C80.7158 7.98438 81.0146 8.2832 81.0146 8.64844V52.46C80.998 52.8418 80.7158 53.1406 80.334 53.1406ZM5.32812 51.8125H79.6865V9.3125H5.32812V51.8125Z" fill="#202022"/>
<path d="M80.334 66.4053H4.66406C2.10742 66.4053 0.015625 64.3135 0.015625 61.7568V61.7402V61.7236V8.64844C0.015625 6.0918 2.10742 4 4.66406 4H80.3506C82.9072 4 84.999 6.0918 84.999 8.64844V61.7568C84.9824 64.3301 82.9072 66.4053 80.334 66.4053ZM1.34375 61.7568C1.34375 63.5996 2.83789 65.0937 4.66406 65.0937H80.3506C82.1767 65.0937 83.6709 63.5996 83.6709 61.7734V8.64844C83.6709 6.82227 82.1767 5.32812 80.3506 5.32812H4.66406C2.83789 5.32812 1.34375 6.82227 1.34375 8.64844V61.7568C1.34375 61.7402 1.34375 61.7402 1.34375 61.7568Z" fill="#202022"/>
<path d="M80.334 69.0469H4.66406C2.05762 69.0469 0.015625 67.0049 0.015625 64.3984V61.7588C0.015625 61.3936 0.314453 61.0781 0.679687 61.0781C1.04492 61.0781 1.34375 61.3604 1.34375 61.7256V64.3818C1.34375 66.2744 2.77148 67.7021 4.66406 67.7021H80.3506C82.2431 67.7021 83.6709 66.2744 83.6709 64.3818V61.7588C83.6709 61.3936 83.9697 61.0947 84.3349 61.0947C84.7002 61.0947 84.999 61.3936 84.999 61.7588V64.3818C84.9824 67.0049 82.9404 69.0469 80.334 69.0469Z" fill="#202022"/>
<path d="M7.32031 53.1406C6.95508 53.1406 6.65625 52.8418 6.65625 52.4766V8.64844C6.65625 8.2832 6.95508 7.98438 7.32031 7.98438C7.68555 7.98438 7.98438 8.2832 7.98438 8.64844V52.46C7.98438 52.8418 7.68555 53.1406 7.32031 53.1406Z" fill="#202022"/>
<path d="M5.99219 13.2969H4.66406C4.29883 13.2969 4 12.998 4 12.6328C4 12.2676 4.29883 11.9688 4.66406 11.9688H5.99219C6.35742 11.9688 6.65625 12.2676 6.65625 12.6328C6.65625 12.998 6.35742 13.2969 5.99219 13.2969Z" fill="#202022"/>
<path d="M5.99219 17.2812H4.66406C4.29883 17.2812 4 16.9824 4 16.6172C4 16.252 4.29883 15.9531 4.66406 15.9531H5.99219C6.35742 15.9531 6.65625 16.252 6.65625 16.6172C6.65625 16.9824 6.35742 17.2812 5.99219 17.2812Z" fill="#202022"/>
<path d="M5.99219 21.2656H4.66406C4.29883 21.2656 4 20.9668 4 20.6016C4 20.2363 4.29883 19.9375 4.66406 19.9375H5.99219C6.35742 19.9375 6.65625 20.2363 6.65625 20.6016C6.65625 20.9668 6.35742 21.2656 5.99219 21.2656Z" fill="#202022"/>
<path d="M5.99219 25.25H4.66406C4.29883 25.25 4 24.9512 4 24.5859C4 24.2207 4.29883 23.9219 4.66406 23.9219H5.99219C6.35742 23.9219 6.65625 24.2207 6.65625 24.5859C6.65625 24.9512 6.35742 25.25 5.99219 25.25Z" fill="#202022"/>
<path d="M5.99219 29.2344H4.66406C4.29883 29.2344 4 28.9355 4 28.5703C4 28.2051 4.29883 27.9062 4.66406 27.9062H5.99219C6.35742 27.9062 6.65625 28.2051 6.65625 28.5703C6.65625 28.9355 6.35742 29.2344 5.99219 29.2344Z" fill="#202022"/>
<path d="M5.99219 33.2187H4.66406C4.29883 33.2187 4 32.9199 4 32.5547C4 32.1895 4.29883 31.8906 4.66406 31.8906H5.99219C6.35742 31.8906 6.65625 32.1895 6.65625 32.5547C6.65625 32.9199 6.35742 33.2187 5.99219 33.2187Z" fill="#202022"/>
<path d="M5.99219 37.2031H4.66406C4.29883 37.2031 4 36.9043 4 36.5391C4 36.1738 4.29883 35.875 4.66406 35.875H5.99219C6.35742 35.875 6.65625 36.1738 6.65625 36.5391C6.65625 36.9043 6.35742 37.2031 5.99219 37.2031Z" fill="#202022"/>
<path d="M5.99219 41.1875H4.66406C4.29883 41.1875 4 40.8887 4 40.5234C4 40.1582 4.29883 39.8594 4.66406 39.8594H5.99219C6.35742 39.8594 6.65625 40.1582 6.65625 40.5234C6.65625 40.8887 6.35742 41.1875 5.99219 41.1875Z" fill="#202022"/>
<path d="M5.99219 45.1719H4.66406C4.29883 45.1719 4 44.873 4 44.5078C4 44.1426 4.29883 43.8438 4.66406 43.8438H5.99219C6.35742 43.8438 6.65625 44.1426 6.65625 44.5078C6.65625 44.873 6.35742 45.1719 5.99219 45.1719Z" fill="#202022"/>
<path d="M5.99219 49.1562H4.66406C4.29883 49.1562 4 48.8574 4 48.4922C4 48.127 4.29883 47.8281 4.66406 47.8281H5.99219C6.35742 47.8281 6.65625 48.127 6.65625 48.4922C6.65625 48.8574 6.35742 49.1562 5.99219 49.1562Z" fill="#202022"/>
<path d="M16.6016 13.2969H11.2891C10.9238 13.2969 10.625 12.998 10.625 12.6328C10.625 12.2676 10.9238 11.9688 11.2891 11.9688H16.6016C16.9668 11.9688 17.2656 12.2676 17.2656 12.6328C17.2656 12.998 16.9668 13.2969 16.6016 13.2969Z" fill="#202022"/>
<path d="M37.8516 17.2812H21.9141C21.5488 17.2812 21.25 16.9824 21.25 16.6172C21.25 16.252 21.5488 15.9531 21.9141 15.9531H37.8516C38.2168 15.9531 38.5156 16.252 38.5156 16.6172C38.5156 16.9824 38.2168 17.2812 37.8516 17.2812Z" fill="#202022"/>
<path d="M19.2578 17.2812H12.6172C12.252 17.2812 11.9531 16.9824 11.9531 16.6172C11.9531 16.252 12.252 15.9531 12.6172 15.9531H19.2578C19.623 15.9531 19.9219 16.252 19.9219 16.6172C19.9219 16.9824 19.623 17.2812 19.2578 17.2812Z" fill="#202022"/>
<path d="M37.8516 21.2656H36.5234C36.1582 21.2656 35.8594 20.9668 35.8594 20.6016C35.8594 20.2363 36.1582 19.9375 36.5234 19.9375H37.8516C38.2168 19.9375 38.5156 20.2363 38.5156 20.6016C38.5156 20.9668 38.2168 21.2656 37.8516 21.2656Z" fill="#202022"/>
<path d="M33.8672 21.2656H13.9453C13.5801 21.2656 13.2812 20.9668 13.2812 20.6016C13.2812 20.2363 13.5801 19.9375 13.9453 19.9375H33.8672C34.2324 19.9375 34.5312 20.2363 34.5312 20.6016C34.5312 20.9668 34.2324 21.2656 33.8672 21.2656Z" fill="#202022"/>
<path d="M17.9297 29.2344H13.9453C13.5801 29.2344 13.2812 28.9355 13.2812 28.5703C13.2812 28.2051 13.5801 27.9062 13.9453 27.9062H17.9297C18.2949 27.9062 18.5938 28.2051 18.5938 28.5703C18.5938 28.9355 18.2949 29.2344 17.9297 29.2344Z" fill="#202022"/>
<path d="M37.8516 29.2344H20.5859C20.2207 29.2344 19.9219 28.9355 19.9219 28.5703C19.9219 28.2051 20.2207 27.9062 20.5859 27.9062H37.8516C38.2168 27.9062 38.5156 28.2051 38.5156 28.5703C38.5156 28.9355 38.2168 29.2344 37.8516 29.2344Z" fill="#202022"/>
<path d="M37.8516 25.25H15.2734C14.9082 25.25 14.6094 24.9512 14.6094 24.5859C14.6094 24.2207 14.9082 23.9219 15.2734 23.9219H37.8516C38.2168 23.9219 38.5156 24.2207 38.5156 24.5859C38.5156 24.9512 38.2168 25.25 37.8516 25.25Z" fill="#202022"/>
<path d="M37.8516 33.2187H32.5391C32.1738 33.2187 31.875 32.9199 31.875 32.5547C31.875 32.1895 32.1738 31.8906 32.5391 31.8906H37.8516C38.2168 31.8906 38.5156 32.1895 38.5156 32.5547C38.5156 32.9199 38.2168 33.2187 37.8516 33.2187Z" fill="#202022"/>
<path d="M33.8672 37.2031H12.6172C12.252 37.2031 11.9531 36.9043 11.9531 36.5391C11.9531 36.1738 12.252 35.875 12.6172 35.875H33.8672C34.2324 35.875 34.5312 36.1738 34.5312 36.5391C34.5312 36.9043 34.2324 37.2031 33.8672 37.2031Z" fill="#202022"/>
<path d="M23.2422 45.1719H12.6172C12.252 45.1719 11.9531 44.873 11.9531 44.5078C11.9531 44.1426 12.252 43.8438 12.6172 43.8438H23.2422C23.6074 43.8438 23.9062 44.1426 23.9062 44.5078C23.9062 44.873 23.6074 45.1719 23.2422 45.1719Z" fill="#202022"/>
<path d="M37.8516 41.1875H31.2109C30.8457 41.1875 30.5469 40.8887 30.5469 40.5234C30.5469 40.1582 30.8457 39.8594 31.2109 39.8594H37.8516C38.2168 39.8594 38.5156 40.1582 38.5156 40.5234C38.5156 40.8887 38.2168 41.1875 37.8516 41.1875Z" fill="#202022"/>
<path d="M28.5547 41.1875H13.9453C13.5801 41.1875 13.2812 40.8887 13.2812 40.5234C13.2812 40.1582 13.5801 39.8594 13.9453 39.8594H28.5547C28.9199 39.8594 29.2188 40.1582 29.2188 40.5234C29.2188 40.8887 28.9199 41.1875 28.5547 41.1875Z" fill="#202022"/>
<path d="M16.6016 49.1562H11.2891C10.9238 49.1562 10.625 48.8574 10.625 48.4922C10.625 48.127 10.9238 47.8281 11.2891 47.8281H16.6016C16.9668 47.8281 17.2656 48.127 17.2656 48.4922C17.2656 48.8574 16.9668 49.1562 16.6016 49.1562Z" fill="#202022"/>
<path d="M37.8516 37.2031H36.5234C36.1582 37.2031 35.8594 36.9043 35.8594 36.5391C35.8594 36.1738 36.1582 35.875 36.5234 35.875H37.8516C38.2168 35.875 38.5156 36.1738 38.5156 36.5391C38.5156 36.9043 38.2168 37.2031 37.8516 37.2031Z" fill="#202022"/>
<path d="M29.8828 33.2187H13.9453C13.5801 33.2187 13.2812 32.9199 13.2812 32.5547C13.2812 32.1895 13.5801 31.8906 13.9453 31.8906H29.8828C30.248 31.8906 30.5469 32.1895 30.5469 32.5547C30.5469 32.9199 30.248 33.2187 29.8828 33.2187Z" fill="#202022"/>
<path d="M42.5 53.1406C42.1348 53.1406 41.8359 52.8418 41.8359 52.4766V8.64844C41.8359 8.2832 42.1348 7.98438 42.5 7.98438C42.8652 7.98438 43.1641 8.2832 43.1641 8.64844V52.46C43.1641 52.8418 42.8652 53.1406 42.5 53.1406Z" fill="#202022"/>
<path d="M57.7738 45.1709C57.641 45.1709 57.5248 45.1377 57.4085 45.0713C57.0931 44.8721 57.0101 44.457 57.2093 44.1582L65.8421 30.877C65.9584 30.6943 66.1742 30.5781 66.4066 30.5781C66.639 30.5781 66.8382 30.6943 66.9711 30.877L75.6039 44.1582C75.8031 44.4736 75.7201 44.8721 75.4047 45.0713C75.1058 45.2705 74.6908 45.1875 74.4916 44.8721L66.4066 32.4375L58.3382 44.8555C58.2054 45.0547 57.9896 45.1709 57.7738 45.1709Z" fill="#202022"/>
<path d="M52.4611 45.1719C52.3283 45.1719 52.2121 45.1387 52.0959 45.0557C51.7971 44.8564 51.7141 44.4414 51.9133 44.1426L57.2258 36.1738C57.342 35.9912 57.5578 35.875 57.7736 35.875C57.9894 35.875 58.2053 35.9912 58.3215 36.1738L60.9445 40.1084C61.1437 40.4072 61.0607 40.8223 60.7619 41.0215C60.4631 41.2207 60.048 41.1377 59.8488 40.8389L57.7736 37.7344L53.009 44.873C52.8762 45.0557 52.6769 45.1719 52.4611 45.1719Z" fill="#202022"/>
<path d="M52.4609 35.875C50.6348 35.875 49.1406 34.3809 49.1406 32.5547C49.1406 30.7285 50.6348 29.2344 52.4609 29.2344C54.2871 29.2344 55.7812 30.7285 55.7812 32.5547C55.7812 34.3809 54.2871 35.875 52.4609 35.875ZM52.4609 30.5625C51.3652 30.5625 50.4688 31.459 50.4688 32.5547C50.4688 33.6504 51.3652 34.5469 52.4609 34.5469C53.5566 34.5469 54.4531 33.6504 54.4531 32.5547C54.4531 31.459 53.5566 30.5625 52.4609 30.5625Z" fill="#202022"/>
<path d="M76.3506 45.1719H47.1484C46.7832 45.1719 46.4844 44.873 46.4844 44.5078V27.2422C46.4844 26.877 46.7832 26.5781 47.1484 26.5781H76.3672C76.7324 26.5781 77.0312 26.877 77.0312 27.2422V44.5078C77.0146 44.873 76.7324 45.1719 76.3506 45.1719ZM47.8125 43.8437H75.7031V27.9062H47.8125V43.8437Z" fill="#202022"/>
<path d="M76.3506 13.2969H44.4922C44.127 13.2969 43.8281 12.998 43.8281 12.6328C43.8281 12.2676 44.127 11.9688 44.4922 11.9688H76.3672C76.7324 11.9688 77.0312 12.2676 77.0312 12.6328C77.0312 12.998 76.7324 13.2969 76.3506 13.2969Z" fill="#202022"/>
<path d="M76.3477 23.9219C75.9824 23.9219 75.6836 23.6231 75.6836 23.2578V12.6328C75.6836 12.2676 75.9824 11.9688 76.3477 11.9688C76.7129 11.9688 77.0117 12.2676 77.0117 12.6328V23.2578C77.0117 23.6231 76.7295 23.9219 76.3477 23.9219Z" fill="#202022"/>
<path d="M76.3506 23.9219H44.4922C44.127 23.9219 43.8281 23.623 43.8281 23.2578C43.8281 22.8926 44.127 22.5938 44.4922 22.5938H76.3672C76.7324 22.5938 77.0312 22.8926 77.0312 23.2578C77.0146 23.623 76.7324 23.9219 76.3506 23.9219Z" fill="#202022"/>
<path d="M72.3828 18.6094H44.4922C44.127 18.6094 43.8281 18.3105 43.8281 17.9453C43.8281 17.5801 44.127 17.2812 44.4922 17.2812H72.3828C72.748 17.2812 73.0469 17.5801 73.0469 17.9453C73.0469 18.3105 72.748 18.6094 72.3828 18.6094Z" fill="#202022"/>
<path d="M76.3506 49.1562H47.1484C46.7832 49.1562 46.4844 48.8574 46.4844 48.4922C46.4844 48.127 46.7832 47.8281 47.1484 47.8281H76.3672C76.7324 47.8281 77.0312 48.127 77.0312 48.4922C77.0146 48.8574 76.7324 49.1562 76.3506 49.1562Z" fill="#202022"/>
</svg>
