<svg width="85" height="85" viewBox="0 0 85 85" fill="none" xmlns="http://www.w3.org/2000/svg">
<path d="M3.85584 57.4902C0.735125 57.4902 0.336736 56.5102 0.154141 56.0783C-0.16125 55.3308 -1.09082 53.055 10.977 45.9121C11.2924 45.7294 11.7074 45.8291 11.89 46.1447C12.0726 46.4603 11.973 46.859 11.6576 47.0583C0.701926 53.5367 1.34931 55.4803 1.38251 55.5633C1.41571 55.6464 2.32868 57.4736 14.5625 54.3341C22.8623 52.2078 33.5856 48.4869 44.7239 43.8689C55.8622 39.251 66.0709 34.3008 73.4411 29.932C84.2972 23.5034 83.6498 21.5599 83.6166 21.4769C83.5835 21.3938 82.7203 19.6496 71.1836 22.5234C70.8184 22.6064 70.4698 22.3905 70.3868 22.0416C70.3038 21.6928 70.5196 21.3274 70.8682 21.2443C83.6332 18.0715 84.5462 20.2642 84.845 20.9785C85.1604 21.726 86.09 23.9852 74.1217 31.0782C66.6851 35.4802 56.4266 40.4636 45.2385 45.0982C34.0338 49.7494 23.2607 53.4869 14.8779 55.6298C9.40009 57.0251 5.99718 57.4902 3.85584 57.4902Z" fill="#272727"/>
<path d="M51.1645 54.4539C50.799 54.4539 50.5 54.1549 50.5 53.7894C50.5 53.424 50.7824 53.125 51.1645 53.125H51.1811C51.5465 53.125 51.8455 53.424 51.8455 53.7894C51.8289 54.1715 51.5299 54.4539 51.1645 54.4539Z" fill="#272727"/>
<path d="M25.9574 25.2508C25.592 25.2508 25.293 24.9518 25.293 24.5863C25.293 24.2209 25.5754 23.9219 25.9574 23.9219H25.974C26.3395 23.9219 26.6385 24.2209 26.6385 24.5863C26.6219 24.9518 26.3229 25.2508 25.9574 25.2508Z" fill="#272727"/>
<path d="M60.4574 33.2039C60.092 33.2039 59.793 32.9049 59.793 32.5395C59.793 32.174 60.0754 31.875 60.4574 31.875H60.474C60.8395 31.875 61.1385 32.174 61.1385 32.5395C61.1219 32.9215 60.8229 33.2039 60.4574 33.2039Z" fill="#272727"/>
<path d="M57.7543 65.0816H27.2444C26.8792 65.0816 26.5804 64.7826 26.5804 64.4172V62.972C18.264 57.5567 13.3008 48.4371 13.3008 38.5201C13.3008 22.4071 26.3978 9.30078 42.4994 9.30078C58.6009 9.30078 71.6979 22.4071 71.6979 38.5201C71.6979 48.4371 66.7513 57.5567 58.4349 62.972V64.4172C58.4183 64.7826 58.1195 65.0816 57.7543 65.0816ZM27.9084 63.7527H57.107V62.6232C57.107 62.3906 57.2232 62.1913 57.4223 62.0584C65.5395 56.8923 70.3866 48.1049 70.3866 38.5201C70.3866 23.138 57.8871 10.6297 42.516 10.6297C27.1448 10.6297 14.6453 23.138 14.6453 38.5201C14.6453 48.1049 19.4924 56.8923 27.6096 62.0584C27.8088 62.1747 27.925 62.3906 27.925 62.6232L27.9084 63.7527Z" fill="#272727"/>
<path d="M53.7857 82.338H31.2104C31.0278 82.338 30.8618 82.2716 30.7456 82.1387L26.7617 78.152C26.6289 78.0357 26.5625 77.853 26.5625 77.6869V64.4145C26.5625 64.049 26.8613 63.75 27.2265 63.75H57.753C58.1182 63.75 58.417 64.049 58.417 64.4145V77.6869C58.417 77.8696 58.3506 78.0357 58.2178 78.152L54.2339 82.1387C54.1177 82.2716 53.9517 82.338 53.7857 82.338ZM31.4926 81.0091H53.5036L57.0891 77.4211V65.0789H27.9071V77.4211L31.4926 81.0091Z" fill="#272727"/>
<path d="M25.9127 70.4015C25.5641 70.4015 25.2819 70.1358 25.2487 69.7869C25.2156 69.4215 25.4977 69.1058 25.8629 69.0726L59.0454 66.4148C59.4106 66.3982 59.726 66.664 59.7592 67.0294C59.7924 67.3949 59.5102 67.7105 59.145 67.7437L25.9625 70.4015C25.9459 70.4015 25.9293 70.4015 25.9127 70.4015Z" fill="#272727"/>
<path d="M25.9127 74.3839C25.5641 74.3839 25.2819 74.1181 25.2487 73.7693C25.2156 73.4038 25.4977 73.0882 25.8629 73.055L59.0454 70.3972C59.4106 70.364 59.726 70.6464 59.7592 71.0118C59.7924 71.3773 59.5102 71.6929 59.145 71.7261L25.9625 74.3839C25.9459 74.3839 25.9293 74.3839 25.9127 74.3839Z" fill="#272727"/>
<path d="M25.9127 78.3547C25.5641 78.3547 25.2819 78.0889 25.2487 77.74C25.2156 77.3746 25.4977 77.059 25.8629 77.0258L59.0454 74.3679C59.4106 74.3513 59.726 74.6171 59.7592 74.9825C59.7924 75.348 59.5102 75.6636 59.145 75.6968L25.9625 78.3547C25.9459 78.3547 25.9293 78.3547 25.9127 78.3547Z" fill="#272727"/>
<path d="M42.5028 84.9944C36.9253 84.9944 34.7674 82.1871 34.6678 82.0708C34.452 81.7718 34.5018 81.3565 34.8006 81.1405C35.0994 80.9246 35.5144 80.9744 35.7302 81.2734C35.8132 81.3731 37.6391 83.6654 42.5028 83.6654C47.3665 83.6654 49.1924 81.3731 49.2754 81.2734C49.4912 80.991 49.9228 80.9246 50.205 81.1572C50.4872 81.3731 50.5536 81.7884 50.3378 82.0874C50.2382 82.187 48.0802 84.9944 42.5028 84.9944Z" fill="#272727"/>
<path d="M42.5004 10.6313C42.1349 10.6313 41.8359 10.3323 41.8359 9.9668V0.664454C41.8359 0.299004 42.1349 0 42.5004 0C42.8658 0 43.1648 0.299004 43.1648 0.664454V9.9668C43.1648 10.3323 42.8658 10.6313 42.5004 10.6313Z" fill="#272727"/>
<path d="M39.8429 35.8625C36.191 35.8625 33.2031 33.1881 33.2031 29.8824C33.2031 26.5768 36.1744 23.9023 39.8429 23.9023C43.5114 23.9023 46.4828 26.5768 46.4828 29.8824C46.4828 33.1881 43.5114 35.8625 39.8429 35.8625ZM39.8429 25.2479C36.9214 25.2479 34.5311 27.3409 34.5311 29.899C34.5311 32.4572 36.9048 34.5502 39.8429 34.5502C42.7645 34.5502 45.1548 32.4572 45.1548 29.899C45.1548 27.3409 42.7645 25.2479 39.8429 25.2479Z" fill="#272727"/>
<path d="M57.8135 23.7386C56.6847 23.7386 55.224 22.9911 54.0122 21.7784C52.1199 19.8847 51.5057 17.6588 52.5847 16.5957C53.6138 15.5658 55.971 16.2136 57.7803 18.0243C59.6727 19.918 60.2869 22.1439 59.2079 23.207C58.8593 23.5558 58.3779 23.7386 57.8135 23.7386ZM53.979 17.393C53.8296 17.393 53.647 17.4096 53.5308 17.5259C53.1656 17.8914 53.5474 19.4196 54.9584 20.8316C56.0374 21.9113 57.1827 22.4097 57.8135 22.4097C57.9629 22.4097 58.1455 22.393 58.2617 22.2768C58.6269 21.8947 58.2617 20.3831 56.8341 18.9711C55.7552 17.8748 54.6098 17.393 53.979 17.393Z" fill="#272727"/>
<path d="M59.1408 51.8287C58.5764 51.8287 58.0618 51.6294 57.6966 51.2639C56.7837 50.3503 56.9828 48.7058 58.1614 47.543C59.2902 46.4134 61.0165 46.1975 61.8797 47.0779C62.7927 47.9915 62.5935 49.636 61.4149 50.8154C60.7509 51.4632 59.921 51.8287 59.1408 51.8287ZM60.4355 47.842C60.004 47.842 59.4894 48.0912 59.091 48.4898C58.4104 49.1709 58.2942 50.0181 58.6262 50.3337C58.7756 50.4832 58.9748 50.5164 59.1408 50.5164C59.5724 50.5164 60.087 50.2838 60.4853 49.8686C61.1659 49.1875 61.2821 48.3403 60.9501 48.0247C60.7841 47.8586 60.5849 47.842 60.4355 47.842Z" fill="#272727"/>
<path d="M23.9216 43.8391C22.4608 43.8391 21.2656 42.643 21.2656 41.1813C21.2656 39.7195 22.4608 38.5234 23.9216 38.5234C25.3823 38.5234 26.5775 39.7195 26.5775 41.1813C26.5775 42.643 25.3823 43.8391 23.9216 43.8391ZM23.9216 39.8523C23.1912 39.8523 22.5936 40.4504 22.5936 41.1813C22.5936 41.9122 23.1912 42.5102 23.9216 42.5102C24.6519 42.5102 25.2495 41.9122 25.2495 41.1813C25.2495 40.4504 24.6519 39.8523 23.9216 39.8523Z" fill="#272727"/>
<path d="M38.527 58.436C37.0331 58.436 35.8711 57.5556 35.8711 56.4426C35.8711 55.3296 37.0331 54.4492 38.527 54.4492C40.021 54.4492 41.1829 55.3296 41.1829 56.4426C41.1829 57.5722 40.021 58.436 38.527 58.436ZM38.527 55.7781C37.7302 55.7781 37.1991 56.1768 37.1991 56.4426C37.1991 56.7084 37.7136 57.1071 38.527 57.1071C39.3404 57.1071 39.855 56.7084 39.855 56.4426C39.855 56.1768 39.3238 55.7781 38.527 55.7781Z" fill="#272727"/>
<path d="M48.4718 2.67266H42.496C42.1308 2.67266 41.832 2.37365 41.832 2.0082C41.832 1.64275 42.1308 1.34375 42.496 1.34375H48.4718C48.837 1.34375 49.1358 1.64275 49.1358 2.0082C49.1358 2.37365 48.837 2.67266 48.4718 2.67266Z" fill="#272727"/>
<path d="M48.4718 5.33281H42.496C42.1308 5.33281 41.832 5.03381 41.832 4.66836C41.832 4.30291 42.1308 4.00391 42.496 4.00391H48.4718C48.837 4.00391 49.1358 4.30291 49.1358 4.66836C49.1358 5.03381 48.837 5.33281 48.4718 5.33281Z" fill="#272727"/>
<path d="M48.473 5.33047C48.1076 5.33047 47.8086 5.03147 47.8086 4.66602V2.0082C47.8086 1.64275 48.1076 1.34375 48.473 1.34375C48.8385 1.34375 49.1375 1.64275 49.1375 2.0082V4.66602C49.1375 5.03147 48.8385 5.33047 48.473 5.33047Z" fill="#272727"/>
<path d="M45.8202 7.97208C45.6542 7.97208 45.4882 7.90564 45.3554 7.77275C45.0899 7.50697 45.0899 7.09168 45.3554 6.8259L48.0114 4.16809C48.277 3.9023 48.692 3.9023 48.9576 4.16809C49.2231 4.43387 49.2231 4.84915 48.9576 5.11493L46.3016 7.77275C46.1522 7.92225 45.9862 7.97208 45.8202 7.97208Z" fill="#272727"/>
<path d="M55.116 7.97734H45.8202C45.455 7.97734 45.1562 7.67834 45.1562 7.31289C45.1562 6.94744 45.455 6.64844 45.8202 6.64844H55.116C55.4812 6.64844 55.78 6.94744 55.78 7.31289C55.78 7.67834 55.4812 7.97734 55.116 7.97734Z" fill="#272727"/>
<path d="M55.1086 5.33281H49.7968C49.4316 5.33281 49.1328 5.03381 49.1328 4.66836C49.1328 4.30291 49.4316 4.00391 49.7968 4.00391H55.1086C55.4738 4.00391 55.7726 4.30291 55.7726 4.66836C55.7726 5.03381 55.4738 5.33281 55.1086 5.33281Z" fill="#272727"/>
<path d="M55.1169 7.97208C54.9509 7.97208 54.785 7.90564 54.6522 7.77275L53.3242 6.44384C53.0586 6.17806 53.0586 5.76277 53.3242 5.49699L54.6522 4.16809C54.9178 3.9023 55.3327 3.9023 55.5983 4.16809C55.8639 4.43387 55.8639 4.84915 55.5983 5.11493L54.7352 5.97872L55.5983 6.84251C55.8639 7.10829 55.8639 7.52358 55.5983 7.78936C55.4489 7.92225 55.2829 7.97208 55.1169 7.97208Z" fill="#272727"/>
</svg>
