<svg width="85" height="61" viewBox="0 0 85 61" fill="none" xmlns="http://www.w3.org/2000/svg">
<path d="M83.0068 0.617188H2.00781C0.912109 0.617188 0.015625 1.51367 0.015625 2.60938V3.9375V59.7188C0.015625 60.084 0.314453 60.3828 0.679687 60.3828H84.3183C84.6836 60.3828 84.9824 60.084 84.999 59.7188V3.9375V2.60938C84.999 1.51367 84.1025 0.617188 83.0068 0.617188ZM2.00781 1.94531H3.36914C3.00391 1.94531 2.70508 2.24414 2.70508 2.60938C2.70508 2.97461 3.00391 3.27344 3.36914 3.27344C3.73437 3.27344 4.0332 2.99121 4.0498 2.60938C4.0498 2.24414 3.75098 1.94531 3.38574 1.94531H6.02539C5.66015 1.94531 5.36133 2.24414 5.36133 2.60938C5.36133 2.97461 5.66015 3.27344 6.02539 3.27344C6.39062 3.27344 6.68945 2.99121 6.70605 2.60938C6.70605 2.24414 6.40723 1.94531 6.04199 1.94531H8.68164C8.3164 1.94531 8.01758 2.24414 8.01758 2.60938C8.01758 2.97461 8.3164 3.27344 8.68164 3.27344C9.04687 3.27344 9.3457 2.99121 9.3623 2.60938C9.3623 2.24414 9.06347 1.94531 8.69824 1.94531H82.9902C83.3554 1.94531 83.6543 2.24414 83.6543 2.60938V3.27344H8.68164H6.02539H3.36914H1.34375V2.60938C1.34375 2.24414 1.64258 1.94531 2.00781 1.94531ZM83.6709 59.0547H1.34375V4.60156H83.6709V59.0547Z" fill="#272727"/>
<path d="M42.5 55.0703C42.8652 55.0703 43.1641 54.7715 43.1641 54.4062V9.25C43.1641 8.88477 42.8652 8.58594 42.5 8.58594C42.1348 8.58594 41.8359 8.88477 41.8359 9.25V54.4062C41.8359 54.7715 42.1348 55.0703 42.5 55.0703Z" fill="#272727"/>
<path d="M5.97656 43.1172H8.63281H15.2734H17.9297H24.5703H27.2266H33.8672H36.5234C36.8887 43.1172 37.1875 42.8184 37.1875 42.4531C37.1875 42.0879 36.8887 41.7891 36.5234 41.7891H34.5312V33.1562C34.5312 32.791 34.2324 32.4922 33.8672 32.4922H27.2266C26.8613 32.4922 26.5625 32.791 26.5625 33.1562V41.7891H25.2344V15.8906C25.2344 15.5254 24.9355 15.2266 24.5703 15.2266H17.9297C17.5645 15.2266 17.2656 15.5254 17.2656 15.8906V41.7891H15.9375V23.8594C15.9375 23.4941 15.6387 23.1953 15.2734 23.1953H8.63281C8.26758 23.1953 7.96875 23.4941 7.96875 23.8594V41.7891H6.65723V11.9062C6.65723 11.541 6.3584 11.2422 5.99316 11.2422C5.62793 11.2422 5.3291 11.541 5.3291 11.9062V42.3037C5.3125 42.3535 5.3125 42.4033 5.3125 42.4531C5.3125 42.8184 5.61133 43.1172 5.97656 43.1172ZM14.6094 35.1484H9.29688V27.1797H14.6094V35.1484ZM9.29688 36.4766H14.6094V41.7891H9.29688V36.4766ZM23.9062 29.8359H18.5938V21.8838H23.9062V29.8359ZM18.5938 31.1641H23.9062V41.7891H18.5938V31.1641ZM33.2031 37.8047H27.8906V36.4766H33.2031V37.8047ZM27.8906 39.1328H33.2031V41.7891H27.8906V39.1328ZM33.2031 33.8203V35.1484H27.8906V33.8203H33.2031ZM23.9062 16.5547V20.5557H18.5938V16.5547H23.9062ZM14.6094 24.5234V25.8516H9.29688V24.5234H14.6094Z" fill="#272727"/>
<path d="M34.5312 48.4297H7.96875C7.60352 48.4297 7.30469 48.7285 7.30469 49.0938C7.30469 49.459 7.60352 49.7578 7.96875 49.7578H34.5312C34.8965 49.7578 35.1953 49.459 35.1953 49.0938C35.1953 48.7285 34.8965 48.4297 34.5312 48.4297Z" fill="#272727"/>
<path d="M29.2188 51.0859H13.2812C12.916 51.0859 12.6172 51.3848 12.6172 51.75C12.6172 52.1152 12.916 52.4141 13.2812 52.4141H29.2188C29.584 52.4141 29.8828 52.1152 29.8828 51.75C29.8828 51.3848 29.584 51.0859 29.2188 51.0859Z" fill="#272727"/>
<path d="M77.0312 48.4297H50.4688C50.1035 48.4297 49.8047 48.7285 49.8047 49.0938C49.8047 49.459 50.1035 49.7578 50.4688 49.7578H77.0146C77.3965 49.7578 77.6787 49.459 77.6953 49.0938C77.6953 48.7285 77.3965 48.4297 77.0312 48.4297Z" fill="#272727"/>
<path d="M71.7188 51.0859H55.7812C55.416 51.0859 55.1172 51.3848 55.1172 51.75C55.1172 52.1152 55.416 52.4141 55.7812 52.4141H71.7188C72.084 52.4141 72.3828 52.1152 72.3828 51.75C72.3828 51.3848 72.084 51.0859 71.7188 51.0859Z" fill="#272727"/>
<path d="M63.75 43.1172C67.9502 43.1172 71.9014 41.4902 74.9063 38.5186C74.9395 38.502 74.9727 38.4687 75.0225 38.4521C75.0723 38.4023 75.1055 38.3525 75.1221 38.3027C77.0312 36.377 78.3926 33.9863 79.123 31.3965C79.4883 30.0518 79.6875 28.624 79.6875 27.1631V26.9473V26.9307C79.6709 25.7686 79.5215 24.5898 79.2393 23.4609C79.0068 22.498 78.6914 21.5518 78.2598 20.6055C78.2432 20.5557 78.21 20.4893 78.1768 20.4395C77.8115 19.6592 77.3799 18.9287 76.9316 18.248C76.8984 18.1318 76.8486 18.0322 76.749 17.9326C76.7324 17.916 76.6992 17.8994 76.666 17.8828C76.2012 17.2354 75.6865 16.6211 75.1055 16.0234C75.0723 15.9902 75.0557 15.9404 75.0225 15.9072C74.9893 15.874 74.9561 15.8408 74.9063 15.8242C74.2754 15.1934 73.5947 14.6289 72.8809 14.1309C72.1006 13.5664 71.2539 13.085 70.3906 12.7031C69.4609 12.2715 68.5313 11.9561 67.6016 11.7236C67.5186 11.6904 67.4355 11.6738 67.3525 11.6572C66.1738 11.375 64.9619 11.2422 63.75 11.2422C54.9678 11.2422 47.8125 18.3975 47.8125 27.1797C47.8125 35.9619 54.9678 43.1172 63.75 43.1172ZM72.2168 34.6836L78.2764 28.624C78.21 29.3877 78.0772 30.1514 77.8779 30.8818L73.1465 35.6133L72.2168 34.6836ZM70.3242 32.8076L78.1768 24.9551C78.2598 25.5195 78.3096 26.1006 78.3428 26.665L71.2705 33.7373L70.3242 32.8076ZM63.75 32.4922C60.8115 32.4922 58.4375 30.1016 58.4375 27.1797C58.4375 24.3076 60.7617 21.9336 63.6172 21.8672C63.667 21.8838 63.7002 21.8838 63.75 21.8838C63.7832 21.8838 63.833 21.8838 63.8662 21.8672C64.4141 21.8838 64.9453 21.9668 65.46 22.1494C66.2402 22.4316 66.9541 22.8633 67.5186 23.4443C68.0664 23.9756 68.498 24.6396 68.7637 25.3867C68.7803 25.4365 68.7969 25.4863 68.8135 25.5361C68.9629 26.0508 69.0625 26.6152 69.0625 27.1797C69.0625 27.6943 68.9795 28.2256 68.8301 28.7236C68.8301 28.7402 68.8135 28.7568 68.8135 28.79C68.5479 29.6035 68.0996 30.3506 67.502 30.9316C66.5059 31.9443 65.1777 32.4922 63.75 32.4922ZM68.9463 13.5166L64.4141 18.0488V16.1729L67.5352 13.0518C68 13.1846 68.4648 13.334 68.9463 13.5166ZM71.4531 14.7783L65.4766 20.7549C65.1279 20.6719 64.7793 20.6055 64.4141 20.5723V19.9082L70.2246 14.0977C70.6396 14.2969 71.0547 14.5293 71.4531 14.7783ZM73.5781 16.4053L67.9502 22.0332C67.6016 21.751 67.2197 21.502 66.8213 21.2861L72.5654 15.5586C72.9141 15.8242 73.2627 16.1064 73.5781 16.4053ZM75.3711 18.3809L69.627 24.125C69.4111 23.7266 69.1621 23.3447 68.8799 22.9961L74.5078 17.3682C74.8232 17.6836 75.1055 18.0156 75.3711 18.3809ZM76.8154 20.6553L70.3906 27.0801C70.3906 26.5322 70.3076 25.9844 70.1748 25.4531L76.1514 19.4766C76.3838 19.8584 76.5996 20.2568 76.8154 20.6553ZM64.4141 14.2803V12.5869C64.9287 12.6201 65.46 12.6699 65.958 12.7363L64.4141 14.2803ZM70.0254 29.3379L77.3965 21.9668C77.5791 22.4316 77.7285 22.9131 77.8613 23.3779L69.3945 31.8447L68.8965 31.3467C69.3779 30.7822 69.7598 30.085 70.0254 29.3379ZM74.541 37.0244L74.0928 36.5762L76.6826 33.9863C76.1016 35.0654 75.3877 36.0947 74.541 37.0244ZM63.0859 12.5869V20.5723C59.7324 20.9043 57.1094 23.7432 57.1094 27.1797C57.1094 30.8486 60.0977 33.8203 63.75 33.8203C65.3105 33.8203 66.7881 33.2891 67.9502 32.3096L70.7061 35.0654C70.7227 35.0986 70.7559 35.1318 70.7891 35.165C70.8223 35.1982 70.8555 35.2148 70.8887 35.248L72.5986 36.958C72.6152 36.9912 72.6484 37.0244 72.6816 37.0576C72.7148 37.0908 72.748 37.1074 72.7812 37.1406L73.6279 37.9873C70.9053 40.4277 67.4355 41.7891 63.75 41.7891C55.6982 41.7891 49.1406 35.2314 49.1406 27.1797C49.1406 19.3438 55.333 12.9355 63.0859 12.5869Z" fill="#272727"/>
</svg>
