<svg width="85" height="75" viewBox="0 0 85 75" fill="none" xmlns="http://www.w3.org/2000/svg">
<path d="M60.4141 10.2891C60.0488 10.2891 59.75 9.99023 59.75 9.625C59.75 9.25977 60.0322 8.96094 60.4141 8.96094H60.4307C60.7959 8.96094 61.0947 9.25977 61.0947 9.625C61.0947 9.99023 60.7793 10.2891 60.4141 10.2891Z" fill="#272727"/>
<path d="M64.3984 10.2891C64.0332 10.2891 63.7344 9.99023 63.7344 9.625C63.7344 9.25977 64.0166 8.96094 64.3984 8.96094H64.415C64.7803 8.96094 65.0791 9.25977 65.0791 9.625C65.0791 9.99023 64.7637 10.2891 64.3984 10.2891Z" fill="#272727"/>
<path d="M54.2725 52.3399C53.957 52.3399 53.6748 52.1074 53.625 51.792L48.0967 20.415C48.0303 20.0498 48.2793 19.7178 48.6279 19.6514C48.9932 19.585 49.3252 19.834 49.3916 20.1826L54.9199 51.5596C54.9863 51.9248 54.7373 52.2568 54.3887 52.3232C54.3555 52.3399 54.3223 52.3399 54.2725 52.3399Z" fill="#272727"/>
<path d="M54.9831 56.2612C54.6676 56.2612 54.3854 56.0288 54.3356 55.7133C53.7214 52.2934 37.236 50.6499 26.9762 50.4008C26.611 50.4008 26.3122 50.0854 26.3288 49.7202C26.3454 49.3549 26.6276 49.0395 27.0094 49.0727C31.6247 49.1723 54.6676 49.9858 55.6471 55.4809C55.7135 55.8461 55.4645 56.1782 55.1159 56.2446C55.0495 56.2612 55.0163 56.2612 54.9831 56.2612Z" fill="#272727"/>
<path d="M23.758 32.1026C23.4757 32.1026 23.2101 31.9033 23.1271 31.6211C23.0275 31.2725 23.2267 30.9072 23.592 30.8076C30.5812 28.832 48.4777 22.4404 47.4318 16.4971C47.3654 16.1318 47.6144 15.7998 47.963 15.7334C48.3117 15.667 48.6603 15.916 48.7267 16.2647C49.3576 19.8506 45.3234 23.6192 36.7072 27.4541C30.4816 30.2266 24.007 32.0693 23.9406 32.0859C23.8742 32.1025 23.8078 32.1026 23.758 32.1026Z" fill="#272727"/>
<path d="M48.0645 17.0488C47.749 17.0488 47.4668 16.8164 47.417 16.501C47.3506 16.1358 47.5996 15.8037 47.9482 15.7373L50.5713 15.2725C50.9365 15.2061 51.2852 15.4551 51.335 15.8037C51.4014 16.169 51.1524 16.501 50.8037 16.5674L48.1807 17.0322C48.1475 17.0488 48.0977 17.0488 48.0645 17.0488Z" fill="#272727"/>
<path d="M57.5723 55.7969C57.2569 55.7969 56.9746 55.5645 56.9248 55.249L50.0186 16.0361C49.9522 15.6709 50.2012 15.3389 50.5498 15.2725C50.9151 15.2061 51.2471 15.4551 51.3135 15.8037L58.2197 55.0166C58.2862 55.3818 58.0371 55.7139 57.6885 55.7803C57.6553 55.7969 57.6221 55.7969 57.5723 55.7969Z" fill="#272727"/>
<path d="M54.9824 56.2598C54.667 56.2598 54.3848 56.0274 54.335 55.7119C54.2686 55.3467 54.5176 55.0147 54.8662 54.9483L57.4727 54.4834C57.8379 54.417 58.1699 54.666 58.2363 55.0147C58.3028 55.3799 58.0537 55.7119 57.7051 55.7783L55.0986 56.2432C55.0488 56.2598 55.0156 56.2598 54.9824 56.2598Z" fill="#272727"/>
<path d="M12.5996 52.9404C12.2842 52.9404 12.002 52.708 11.9522 52.3926C11.8858 52.0274 12.1348 51.6953 12.4834 51.6289L26.8604 49.0889C27.2256 49.0225 27.5576 49.2715 27.624 49.6201C27.6904 49.9854 27.4414 50.3174 27.0928 50.3838L12.7158 52.9238C12.6826 52.9404 12.6328 52.9404 12.5996 52.9404Z" fill="#272727"/>
<path d="M9.38087 34.6436C9.06544 34.6436 8.78321 34.4111 8.73341 34.0957C8.667 33.7305 8.91603 33.3984 9.26466 33.332L23.6416 30.792C24.0068 30.7256 24.3389 30.9746 24.4053 31.3233C24.4717 31.6885 24.2227 32.0205 23.874 32.0869L9.49708 34.627C9.46388 34.6436 9.41407 34.6436 9.38087 34.6436Z" fill="#272727"/>
<path d="M12.6003 52.9378C12.5837 52.9378 12.5505 52.9378 12.5339 52.9378L2.92162 51.9417C2.62279 51.9085 2.39037 51.6926 2.34056 51.3938L0.0329447 38.3118C-0.01686 38.013 0.132554 37.7307 0.398179 37.5979L9.0974 33.3811C9.28001 33.2815 9.49584 33.2981 9.69505 33.3811C9.87767 33.4807 10.0105 33.6467 10.0437 33.8626L13.2644 52.1575C13.2976 52.3567 13.2312 52.5725 13.0984 52.7219C12.9656 52.8548 12.7829 52.9378 12.6003 52.9378ZM3.55248 50.6633L11.7869 51.51L8.86498 34.9417L1.42748 38.5774L3.55248 50.6633Z" fill="#272727"/>
<path d="M26.5127 47.794C26.1973 47.794 25.9151 47.5615 25.8652 47.2461L23.5576 34.1807C23.4912 33.8154 23.7402 33.4834 24.0889 33.417C24.4541 33.3506 24.7861 33.5996 24.8526 33.9483L27.1436 47.0303C27.21 47.3955 26.961 47.7276 26.6123 47.794C26.5957 47.794 26.5459 47.794 26.5127 47.794Z" fill="#272727"/>
<path d="M3.76938 41.036C3.53695 41.036 3.30453 40.9032 3.18832 40.6873C3.0057 40.3719 3.13852 39.9569 3.45395 39.7908L7.13949 37.7821C7.47152 37.5995 7.86996 37.7323 8.03598 38.0477C8.2186 38.3631 8.08578 38.7782 7.77035 38.9442L4.08481 40.953C3.9852 41.0028 3.86899 41.036 3.76938 41.036Z" fill="#272727"/>
<path d="M9.29735 49.4848C9.26415 49.4848 9.23095 49.4848 9.19774 49.4848L5.04735 48.854C4.68212 48.8042 4.43309 48.4555 4.4829 48.0903C4.5327 47.7251 4.88134 47.4761 5.22997 47.5259L9.38036 48.1567C9.74559 48.2065 9.99462 48.5552 9.94481 48.9204C9.91161 49.2524 9.62938 49.4848 9.29735 49.4848Z" fill="#272727"/>
<path d="M4.45118 44.9531C4.13575 44.9531 3.85353 44.7207 3.80372 44.4053C3.73731 44.0401 3.98634 43.708 4.33497 43.6416L8.25294 42.9443C8.60157 42.8779 8.9502 43.127 9.01661 43.4756C9.08302 43.8408 8.83399 44.1729 8.48536 44.2393L4.56739 44.9365C4.53419 44.9365 4.48438 44.9531 4.45118 44.9531Z" fill="#272727"/>
<path d="M10.5567 33.7481C10.2412 33.7481 9.95899 33.5156 9.90919 33.2002C9.84278 32.835 10.0918 32.5029 10.4404 32.4365L13.0635 31.9717C13.4287 31.9053 13.7774 32.1543 13.8272 32.5029C13.8936 32.8682 13.6445 33.2002 13.2959 33.2666L10.6729 33.7315C10.6397 33.7481 10.5899 33.7481 10.5567 33.7481Z" fill="#272727"/>
<path d="M32.2064 72.3939C31.9574 72.3939 31.7084 72.2445 31.5922 71.9955L24.9017 57.0043C24.7523 56.6722 24.9017 56.2738 25.2338 56.1244C25.5658 55.975 25.9642 56.1244 26.1137 56.4564L32.8041 71.4477C32.9535 71.7797 32.8041 72.1781 32.4721 72.3275C32.3891 72.3773 32.306 72.3939 32.2064 72.3939Z" fill="#272727"/>
<path d="M24.3705 73.7728C24.1215 73.7728 23.8724 73.6234 23.7562 73.3744L17.0658 58.3832C16.9164 58.0512 17.0658 57.6527 17.3978 57.5033C17.7299 57.3539 18.1283 57.5033 18.2777 57.8353L24.9681 72.8266C25.1176 73.1586 24.9681 73.557 24.6361 73.7064C24.5531 73.7562 24.4535 73.7728 24.3705 73.7728Z" fill="#272727"/>
<path d="M23.0611 74.0244C22.7457 74.0244 22.4635 73.792 22.4137 73.4765C22.3472 73.1113 22.5797 72.7627 22.9449 72.7129L33.4039 70.8701C33.7691 70.8037 34.1012 71.0527 34.1676 71.418C34.234 71.7832 33.9849 72.1152 33.6197 72.1816L23.1607 74.0244C23.1275 74.0244 23.0943 74.0244 23.0611 74.0244Z" fill="#272727"/>
<path d="M14.5908 56.6396C14.2754 56.6396 13.9932 56.4072 13.9433 56.0918L13.6943 54.6142C13.6279 54.249 13.8769 53.917 14.2422 53.8506C14.6074 53.7842 14.9394 54.0332 15.0058 54.3984L15.2549 55.876C15.3213 56.2412 15.0723 56.5732 14.707 56.6396C14.6738 56.6396 14.624 56.6396 14.5908 56.6396Z" fill="#272727"/>
<path d="M14.5918 56.6435C14.2764 56.6435 13.9941 56.4111 13.9443 56.0957C13.8779 55.7305 14.1269 55.3984 14.4922 55.332L27.5742 53.0576C27.9394 52.9912 28.2715 53.2402 28.3379 53.6055C28.4043 53.9707 28.1553 54.3027 27.79 54.3691L14.708 56.6435C14.6748 56.6435 14.625 56.6435 14.5918 56.6435Z" fill="#272727"/>
<path d="M27.692 54.3648C27.3765 54.3648 27.0943 54.149 27.0445 53.817L26.8121 52.522C26.7457 52.1568 26.9781 51.8082 27.3433 51.7418C27.7086 51.6754 28.0572 51.9078 28.1236 52.273L28.356 53.5679C28.4224 53.9332 28.19 54.2818 27.8248 54.3482C27.7584 54.3648 27.7252 54.3648 27.692 54.3648Z" fill="#272727"/>
<path d="M71.0039 66.0547C66.2393 66.0547 62.3711 62.1865 62.3711 57.4219C62.3711 52.6572 66.2393 48.7891 71.0039 48.7891C75.7686 48.7891 79.6367 52.6572 79.6367 57.4219C79.6367 62.1865 75.752 66.0547 71.0039 66.0547ZM71.0039 50.1172C66.9697 50.1172 63.6992 53.3877 63.6992 57.4219C63.6992 61.4561 66.9697 64.7266 71.0039 64.7266C75.0215 64.7266 78.3086 61.4561 78.3086 57.4219C78.3086 53.4043 75.0215 50.1172 71.0039 50.1172Z" fill="#272727"/>
<path d="M62.3711 18.2578C58.7021 18.2578 55.7305 15.2861 55.7305 11.6172C55.7305 7.96485 58.7021 4.97656 62.3711 4.97656C66.0234 4.97656 69.0117 7.94824 69.0117 11.6172C69.0117 15.2861 66.0234 18.2578 62.3711 18.2578ZM62.3711 6.32129C59.4492 6.32129 57.0586 8.71192 57.0586 11.6338C57.0586 14.5557 59.4326 16.9463 62.3711 16.9463C65.293 16.9463 67.6836 14.5723 67.6836 11.6338C67.6836 8.69531 65.293 6.32129 62.3711 6.32129Z" fill="#272727"/>
<path d="M73.0312 44.8203C66.4404 44.8203 61.0781 39.458 61.0781 32.8672C61.0781 26.2764 66.4404 20.9141 73.0312 20.9141C79.6221 20.9141 84.9844 26.2764 84.9844 32.8672C84.9844 39.458 79.6221 44.8203 73.0312 44.8203ZM73.0312 22.2422C67.1709 22.2422 62.4062 27.0068 62.4062 32.8672C62.4062 38.7275 67.1709 43.4922 73.0312 43.4922C78.8916 43.4922 83.6562 38.7275 83.6562 32.8672C83.6562 27.0068 78.8916 22.2422 73.0312 22.2422Z" fill="#272727"/>
<path d="M71.0068 62.3037C70.9072 62.3037 70.8242 62.2871 70.7412 62.2539C70.5586 62.1709 66.375 60.2617 66.375 56.7754C66.375 55.1816 67.6533 53.8867 69.2471 53.8867C69.8945 53.8867 70.5088 54.1025 71.0234 54.501C71.5215 54.1025 72.1357 53.8867 72.7998 53.8867C74.3936 53.8867 75.6885 55.1816 75.6885 56.7754C75.6885 60.2617 71.4883 62.1709 71.3057 62.2539C71.1895 62.2871 71.0898 62.3037 71.0068 62.3037ZM69.2305 55.2148C68.3838 55.2148 67.6865 55.9121 67.6865 56.7754C67.6865 58.9834 70.1602 60.4609 71.0068 60.9092C71.8369 60.4609 74.3272 58.9668 74.3272 56.7754C74.3272 55.9121 73.6299 55.2148 72.7666 55.2148C72.2852 55.2148 71.8369 55.4473 71.5381 55.8457C71.4219 56.0117 71.2227 56.1113 71.0068 56.1113C70.8242 56.1113 70.5918 56.0117 70.4756 55.8457C70.1602 55.4473 69.7119 55.2148 69.2305 55.2148Z" fill="#272727"/>
<path d="M77.6797 38.1797H72.3672C72.1846 38.1797 72.0186 38.1133 71.9023 37.9805L70.7734 36.8516H69.7275C69.3623 36.8516 69.0635 36.5527 69.0635 36.1875C69.0635 35.8223 69.3623 35.5234 69.7275 35.5234H71.0557C71.2383 35.5234 71.4043 35.5898 71.5205 35.7227L72.6494 36.8516H77.3809C78.2275 35.6729 78.2275 32.7178 77.3809 31.5391H76.3516C75.9863 31.5391 75.6875 31.2402 75.6875 30.875V27.5547H75.4551C75.0732 28.3848 74.1104 30.2773 72.7988 31.3896C71.0889 32.834 69.8437 32.8672 69.7109 32.8672C69.3457 32.8672 69.0469 32.5684 69.0469 32.2031C69.0469 31.8379 69.3457 31.5391 69.7109 31.5391C69.7109 31.5391 70.6074 31.4893 71.9355 30.3604C73.3799 29.1484 74.3926 26.6582 74.4092 26.6416C74.5088 26.3926 74.7578 26.2266 75.0234 26.2266H76.3516C76.7168 26.2266 77.0156 26.5254 77.0156 26.8906V30.2109H77.6797C77.8623 30.2109 78.0283 30.2773 78.1445 30.4102C79.7383 32.0039 79.7383 36.3867 78.1445 37.9805C78.0283 38.1133 77.8623 38.1797 77.6797 38.1797Z" fill="#272727"/>
<path d="M69.7109 38.1797H65.7266C65.3613 38.1797 65.0625 37.8809 65.0625 37.5156V30.875C65.0625 30.5098 65.3613 30.2109 65.7266 30.2109H69.7109C70.0762 30.2109 70.375 30.5098 70.375 30.875V37.5156C70.375 37.8809 70.0762 38.1797 69.7109 38.1797ZM66.3906 36.8516H69.0469V31.5391H66.3906V36.8516Z" fill="#272727"/>
<path d="M62.3711 15.6016C60.2793 15.6016 59.7148 14.3066 59.7148 13.6094C59.7148 13.2441 60.0137 12.9453 60.3789 12.9453C60.7441 12.9453 61.0264 13.2275 61.043 13.5928C61.043 13.709 61.1592 14.2734 62.3711 14.2734C63.5996 14.2734 63.6826 13.709 63.6992 13.5928C63.7158 13.2275 64.0644 12.9619 64.3799 12.9619C64.7451 12.9785 65.0273 13.2607 65.0273 13.6094C65.0273 14.3066 64.4795 15.6016 62.3711 15.6016Z" fill="#272727"/>
<path d="M79.6719 11.6016C76.75 11.6016 74.3594 9.21094 74.3594 6.28906C74.3594 3.36719 76.75 0.976562 79.6719 0.976562C82.5938 0.976562 84.9844 3.35059 84.9844 6.28906C84.9844 9.21094 82.5938 11.6016 79.6719 11.6016ZM79.6719 2.30469C77.4805 2.30469 75.6875 4.09766 75.6875 6.28906C75.6875 8.48047 77.4805 10.2734 79.6719 10.2734C81.8633 10.2734 83.6562 8.48047 83.6562 6.28906C83.6562 4.09766 81.8633 2.30469 79.6719 2.30469Z" fill="#272727"/>
<path d="M79.6719 14.2578C76.75 14.2578 74.3594 11.8672 74.3594 8.94531C74.3594 8.58008 74.6582 8.28125 75.0234 8.28125C75.3887 8.28125 75.6875 8.58008 75.6875 8.94531C75.6875 11.1367 77.4805 12.9297 79.6719 12.9297C81.8633 12.9297 83.6562 11.1367 83.6562 8.94531C83.6562 8.58008 83.9551 8.28125 84.3203 8.28125C84.6855 8.28125 84.9844 8.58008 84.9844 8.94531C84.9844 11.8672 82.5938 14.2578 79.6719 14.2578Z" fill="#272727"/>
<path d="M79.6719 8.94531C79.3066 8.94531 79.0078 8.64648 79.0078 8.28125V4.29688C79.0078 3.93164 79.3066 3.63281 79.6719 3.63281C80.0371 3.63281 80.3359 3.93164 80.3359 4.29688V8.28125C80.3359 8.64648 80.0371 8.94531 79.6719 8.94531Z" fill="#272727"/>
<path d="M81.6641 6.95312H77.6797C77.3145 6.95312 77.0156 6.6543 77.0156 6.28906C77.0156 5.92383 77.3145 5.625 77.6797 5.625H81.6641C82.0293 5.625 82.3281 5.92383 82.3281 6.28906C82.3281 6.6543 82.0293 6.95312 81.6641 6.95312Z" fill="#272727"/>
<path d="M75.0234 9.60938C74.6582 9.60938 74.3594 9.31055 74.3594 8.94531V6.28906C74.3594 5.92383 74.6582 5.625 75.0234 5.625C75.3887 5.625 75.6875 5.92383 75.6875 6.28906V8.94531C75.6875 9.31055 75.3887 9.60938 75.0234 9.60938Z" fill="#272727"/>
<path d="M84.3203 9.60938C83.9551 9.60938 83.6562 9.31055 83.6562 8.94531V6.28906C83.6562 5.92383 83.9551 5.625 84.3203 5.625C84.6855 5.625 84.9844 5.92383 84.9844 6.28906V8.94531C84.9844 9.31055 84.6855 9.60938 84.3203 9.60938Z" fill="#272727"/>
</svg>
