<svg width="83" height="83" viewBox="0 0 83 83" fill="none" xmlns="http://www.w3.org/2000/svg">
<path d="M46.0664 16.9297C45.7676 18.4736 44.4063 19.5859 42.8125 19.5859C40.9863 19.5859 39.4922 18.0918 39.4922 16.2656V13.6094C39.4922 11.7832 40.9863 10.2891 42.8125 10.2891C44.4063 10.2891 45.751 11.4014 46.0664 12.9453H47.4111C47.0791 10.6543 45.1367 8.96094 42.8125 8.96094C40.2559 8.96094 38.1641 11.0527 38.1641 13.6094V16.2656C38.1641 18.8223 40.2559 20.9141 42.8125 20.9141C45.1367 20.9141 47.0791 19.2207 47.4111 16.9297H46.0664Z" fill="#272727"/>
<path d="M59.4297 17.5938V20.9141H60.7578V17.5938C60.7578 16.7803 60.4424 15.9834 59.8945 15.3857L59.4961 14.9375L59.8945 14.4893C60.459 13.8584 60.7578 13.0781 60.7578 12.2812C60.7578 10.4551 59.2637 8.96094 57.4375 8.96094H51.4609V20.9141H52.7891V15.6016H57.4375C58.5332 15.6016 59.4297 16.498 59.4297 17.5938ZM52.7891 10.2891H57.4375C58.5332 10.2891 59.4297 11.1855 59.4297 12.2812C59.4297 13.377 58.5332 14.2734 57.4375 14.2734H52.7891V10.2891Z" fill="#272727"/>
<path d="M76.6953 20.9141V8.96094H74.2217L71.5654 16.9297H69.8721L67.2158 8.96094H64.7422V20.9141H66.0703V9.72461L68.9092 18.2578H72.5283L75.3672 9.72461V20.9141H76.6953Z" fill="#272727"/>
<path d="M7.63281 27.5547H6.30469V28.8828H7.63281V27.5547Z" fill="#272727"/>
<path d="M12.9453 27.5547H11.6172V28.8828H12.9453V27.5547Z" fill="#272727"/>
<path d="M18.2578 27.5547H16.9297V28.8828H18.2578V27.5547Z" fill="#272727"/>
<path d="M71.3828 70.7188C71.3828 68.8926 69.8887 67.3984 68.0625 67.3984H67.3984V63.4141H68.0625C69.8887 63.4141 71.3828 61.9199 71.3828 60.0938V57.4375C71.3828 55.6113 69.8887 54.1172 68.0625 54.1172H67.3984V50.1328H68.0625C69.8887 50.1328 71.3828 48.6387 71.3828 46.8125V44.1562C71.3828 42.3301 69.8887 40.8359 68.0625 40.8359H46.8125C44.9863 40.8359 43.4922 42.3301 43.4922 44.1562V46.8125C43.4922 48.6387 44.9863 50.1328 46.8125 50.1328H47.4766V54.1172H46.8125C44.9863 54.1172 43.4922 55.6113 43.4922 57.4375V60.0938C43.4922 61.9199 44.9863 63.4141 46.8125 63.4141H47.4766V67.3984H46.8125C44.9863 67.3984 43.4922 68.8926 43.4922 70.7188V73.375C43.4922 75.2012 44.9863 76.6953 46.8125 76.6953H68.0625C69.8887 76.6953 71.3828 75.2012 71.3828 73.375V70.7188ZM46.8125 48.8047C45.7168 48.8047 44.8203 47.9082 44.8203 46.8125V44.1562C44.8203 43.0605 45.7168 42.1641 46.8125 42.1641H68.0625C69.1582 42.1641 70.0547 43.0605 70.0547 44.1562V46.8125C70.0547 47.9082 69.1582 48.8047 68.0625 48.8047H46.8125ZM66.0703 50.1328V54.1172H48.8047V50.1328H66.0703ZM46.8125 62.0859C45.7168 62.0859 44.8203 61.1895 44.8203 60.0938V57.4375C44.8203 56.3418 45.7168 55.4453 46.8125 55.4453H68.0625C69.1582 55.4453 70.0547 56.3418 70.0547 57.4375V60.0938C70.0547 61.1895 69.1582 62.0859 68.0625 62.0859H46.8125ZM66.0703 63.4141V67.3984H48.8047V63.4141H66.0703ZM70.0547 73.375C70.0547 74.4707 69.1582 75.3672 68.0625 75.3672H46.8125C45.7168 75.3672 44.8203 74.4707 44.8203 73.375V70.7188C44.8203 69.623 45.7168 68.7266 46.8125 68.7266H68.0625C69.1582 68.7266 70.0547 69.623 70.0547 70.7188V73.375Z" fill="#272727"/>
<path d="M76.6953 28.8662L77.2266 28.75C79.999 28.1855 82.0078 25.7119 82.0078 22.8896V6.96875C82.0078 3.66504 79.335 0.992188 76.0312 0.992188H38.8438C35.54 0.992188 32.8672 3.66504 32.8672 6.96875V22.2422H4.3125C2.48633 22.2422 0.992188 23.7363 0.992188 25.5625V78.6875C0.992188 80.5137 2.48633 82.0078 4.3125 82.0078H73.375C75.2012 82.0078 76.6953 80.5137 76.6953 78.6875V28.8662ZM2.32031 25.5625C2.32031 24.4668 3.2168 23.5703 4.3125 23.5703H32.8838L33 24.1016C33.5645 26.874 36.0381 28.8828 38.8604 28.8828H43.874L47.1943 32.8672H2.32031V25.5625ZM75.3672 78.6875C75.3672 79.7832 74.4707 80.6797 73.375 80.6797H4.3125C3.2168 80.6797 2.32031 79.7832 2.32031 78.6875V34.1953H48.2734L49.4688 35.6396C50.1162 36.4199 51.0625 36.8516 52.0586 36.8516C53.4697 36.8516 54.7314 35.9551 55.2295 34.6436L55.3789 34.1953H75.3672V78.6875ZM75.3672 32.8672H55.4453V28.8828H75.3672V32.8672ZM54.1172 27.5547V33.4814C54.1172 34.6104 53.2041 35.5234 52.0752 35.5234C51.4609 35.5234 50.8799 35.2578 50.4981 34.7764L44.4551 27.5547H38.8438C36.2871 27.5547 34.1953 25.4629 34.1953 22.9062V6.96875C34.1953 4.41211 36.2871 2.32031 38.8438 2.32031H76.0312C78.5879 2.32031 80.6797 4.41211 80.6797 6.96875V22.9062C80.6797 25.4629 78.5879 27.5547 76.0312 27.5547H54.1172Z" fill="#272727"/>
<path d="M22.9062 38.1797C15.2197 38.1797 8.96094 44.4385 8.96094 52.125C8.96094 59.8115 15.2197 66.0703 22.9062 66.0703C30.5928 66.0703 36.8516 59.8115 36.8516 52.125C36.8516 44.4385 30.5928 38.1797 22.9062 38.1797ZM32.751 44.2559C34.2451 46.1152 35.1748 48.3398 35.4404 50.7139L35.5234 51.4443H24.5166L32.3027 43.6582L32.751 44.2559ZM15.0371 42.2803C17.2949 40.4707 20.0176 39.5078 22.9062 39.5078C25.7949 39.5078 28.5176 40.4707 30.7754 42.2803L31.3564 42.7451L22.9062 51.1787L14.4561 42.7285L15.0371 42.2803ZM13.0615 59.9941C11.252 57.7363 10.2891 55.0137 10.2891 52.125C10.2891 49.2363 11.252 46.5137 13.0615 44.2559L13.5264 43.6748L21.9766 52.125L13.5264 60.5752L13.0615 59.9941ZM35.4404 53.5195C34.7266 59.9111 29.3477 64.7422 22.9062 64.7422C20.0176 64.7422 17.2949 63.7793 15.0371 61.9697L14.4561 61.5049L23.1719 52.7891H35.5068L35.4404 53.5195Z" fill="#272727"/>
<path d="M7.63281 70.0547H6.30469V71.3828H7.63281V70.0547Z" fill="#272727"/>
<path d="M39.5078 70.0547H11.6172V71.3828H39.5078V70.0547Z" fill="#272727"/>
<path d="M12.9453 75.3672H6.30469V76.6953H12.9453V75.3672Z" fill="#272727"/>
<path d="M39.5078 75.3672H16.9297V76.6953H39.5078V75.3672Z" fill="#272727"/>
</svg>
