<svg width="85" height="61" viewBox="0 0 85 61" fill="none" xmlns="http://www.w3.org/2000/svg">
<path d="M28.5547 38.8008C29.2852 38.8008 29.8828 39.3984 29.8828 40.1289C29.8828 40.8594 29.2852 41.457 28.5547 41.457C27.8242 41.457 27.2266 40.8594 27.2266 40.1289C27.2266 39.3984 27.8242 38.8008 28.5547 38.8008Z" fill="#272727"/>
<path d="M3.37109 3.27344C3.00586 3.27344 2.70703 2.97461 2.70703 2.60938C2.70703 2.24414 3.00586 1.94531 3.37109 1.94531H3.3877C3.75293 1.94531 4.05176 2.24414 4.05176 2.60938C4.03516 2.99121 3.73633 3.27344 3.37109 3.27344Z" fill="#272727"/>
<path d="M6.02734 3.27344C5.66211 3.27344 5.36328 2.97461 5.36328 2.60938C5.36328 2.24414 5.66211 1.94531 6.02734 1.94531H6.04395C6.40918 1.94531 6.70801 2.24414 6.70801 2.60938C6.69141 2.99121 6.39258 3.27344 6.02734 3.27344Z" fill="#272727"/>
<path d="M8.68359 3.27344C8.31836 3.27344 8.01953 2.97461 8.01953 2.60938C8.01953 2.24414 8.31836 1.94531 8.68359 1.94531H8.7002C9.06543 1.94531 9.36426 2.24414 9.36426 2.60938C9.34766 2.99121 9.04883 3.27344 8.68359 3.27344Z" fill="#272727"/>
<path d="M84.3183 4.60156C83.9531 4.60156 83.6543 4.30273 83.6543 3.9375V2.60938C83.6543 2.24414 83.3554 1.94531 82.9902 1.94531H2.00781C1.64258 1.94531 1.34375 2.24414 1.34375 2.60938V3.9375C1.34375 4.30273 1.04492 4.60156 0.679687 4.60156C0.314453 4.60156 0.015625 4.30273 0.015625 3.9375V2.60938C0.015625 1.51367 0.912109 0.617188 2.00781 0.617188H83.0068C84.1025 0.617188 84.999 1.51367 84.999 2.60938V3.9375C84.9824 4.30273 84.6836 4.60156 84.3183 4.60156Z" fill="#272727"/>
<path d="M84.3183 60.3828H0.679687C0.314453 60.3828 0.015625 60.084 0.015625 59.7188V3.9375C0.015625 3.57227 0.314453 3.27344 0.679687 3.27344H84.3349C84.7002 3.27344 84.999 3.57227 84.999 3.9375V59.7188C84.9824 60.084 84.6836 60.3828 84.3183 60.3828ZM1.34375 59.0547H83.6709V4.60156H1.34375V59.0547Z" fill="#272727"/>
<path d="M52.46 42.1211H4.66406C4.29883 42.1211 4 41.8223 4 41.457V9.58203C4 9.2168 4.29883 8.91797 4.66406 8.91797H52.46C52.8252 8.91797 53.124 9.2168 53.124 9.58203V41.457C53.124 41.8223 52.8252 42.1211 52.46 42.1211ZM51.7959 40.793V10.2461H5.32812V40.793" fill="#272727"/>
<path d="M52.46 39.4648H4.66406C4.29883 39.4648 4 39.166 4 38.8008C4 38.4355 4.29883 38.1367 4.66406 38.1367H52.46C52.8252 38.1367 53.124 38.4355 53.124 38.8008C53.124 39.166 52.8252 39.4648 52.46 39.4648Z" fill="#272727"/>
<path d="M7.32031 42.1211C6.95508 42.1211 6.65625 41.8223 6.65625 41.457V38.8008C6.65625 38.4355 6.95508 38.1367 7.32031 38.1367C7.68555 38.1367 7.98438 38.4355 7.98438 38.8008V41.457C7.98438 41.8223 7.68555 42.1211 7.32031 42.1211Z" fill="#272727"/>
<path d="M49.8047 42.1211C49.4395 42.1211 49.1406 41.8223 49.1406 41.457V38.8008C49.1406 38.4355 49.4395 38.1367 49.8047 38.1367C50.1699 38.1367 50.4688 38.4355 50.4688 38.8008V41.457C50.4688 41.8223 50.1699 42.1211 49.8047 42.1211Z" fill="#272727"/>
<path d="M28.5547 42.1211C27.459 42.1211 26.5625 41.2246 26.5625 40.1289C26.5625 39.0332 27.459 38.1367 28.5547 38.1367C29.6504 38.1367 30.5469 39.0332 30.5469 40.1289C30.5469 41.2246 29.6504 42.1211 28.5547 42.1211ZM28.5547 39.4648C28.1895 39.4648 27.8906 39.7637 27.8906 40.1289C27.8906 40.4941 28.1895 40.793 28.5547 40.793C28.9199 40.793 29.2188 40.4941 29.2188 40.1289C29.2188 39.7637 28.9199 39.4648 28.5547 39.4648Z" fill="#272727"/>
<path d="M28.5547 31.4961C24.1553 31.4961 20.5859 27.9268 20.5859 23.5273C20.5859 19.1279 24.1553 15.5586 28.5547 15.5586C32.9541 15.5586 36.5234 19.1279 36.5234 23.5273C36.5234 27.9268 32.9541 31.4961 28.5547 31.4961ZM28.5547 16.8867C24.8857 16.8867 21.9141 19.8584 21.9141 23.5273C21.9141 27.1963 24.8857 30.168 28.5547 30.168C32.207 30.168 35.1953 27.1963 35.1953 23.5273C35.1953 19.875 32.2236 16.8867 28.5547 16.8867Z" fill="#272727"/>
<path d="M25.8984 28.178C25.7822 28.178 25.666 28.1448 25.5664 28.095C25.3506 27.9787 25.2344 27.7629 25.2344 27.5139V19.5451C25.2344 19.3127 25.3672 19.0803 25.5664 18.9641C25.7822 18.8479 26.0312 18.8479 26.2305 18.9807L32.8711 22.9651C33.0703 23.0813 33.1865 23.2971 33.1865 23.5295C33.1865 23.7619 33.0703 23.9778 32.8711 24.094L26.2305 28.0783C26.1309 28.1448 26.0146 28.178 25.8984 28.178ZM26.5625 20.7239V26.3518L31.2441 23.5461L26.5625 20.7239Z" fill="#272727"/>
<path d="M67.0703 18.2148H56.4453C56.0801 18.2148 55.7812 17.916 55.7812 17.5508V9.58203C55.7812 9.2168 56.0801 8.91797 56.4453 8.91797H67.0703C67.4355 8.91797 67.7344 9.2168 67.7344 9.58203V17.5508C67.7344 17.916 67.4355 18.2148 67.0703 18.2148ZM57.1094 16.8867H66.4062V10.2461H57.1094V16.8867Z" fill="#272727"/>
<path d="M79.0039 11.5742H69.707C69.3418 11.5742 69.043 11.2754 69.043 10.9102C69.043 10.5449 69.3418 10.2461 69.707 10.2461H79.0039C79.3691 10.2461 79.668 10.5449 79.668 10.9102C79.668 11.2754 79.3857 11.5742 79.0039 11.5742Z" fill="#272727"/>
<path d="M79.0039 14.2305H69.707C69.3418 14.2305 69.043 13.9316 69.043 13.5664C69.043 13.2012 69.3418 12.9023 69.707 12.9023H79.0039C79.3691 12.9023 79.668 13.2012 79.668 13.5664C79.668 13.9316 79.3857 14.2305 79.0039 14.2305Z" fill="#272727"/>
<path d="M75.0391 16.8867H69.7266C69.3613 16.8867 69.0625 16.5879 69.0625 16.2227C69.0625 15.8574 69.3613 15.5586 69.7266 15.5586H75.0391C75.4043 15.5586 75.7031 15.8574 75.7031 16.2227C75.7031 16.5879 75.4043 16.8867 75.0391 16.8867Z" fill="#272727"/>
<path d="M67.0703 30.168H56.4453C56.0801 30.168 55.7812 29.8691 55.7812 29.5039V21.5352C55.7812 21.1699 56.0801 20.8711 56.4453 20.8711H67.0703C67.4355 20.8711 67.7344 21.1699 67.7344 21.5352V29.5039C67.7344 29.8691 67.4355 30.168 67.0703 30.168ZM57.1094 28.8398H66.4062V22.1992H57.1094V28.8398Z" fill="#272727"/>
<path d="M79.0039 23.5273H69.707C69.3418 23.5273 69.043 23.2285 69.043 22.8633C69.043 22.498 69.3418 22.1992 69.707 22.1992H79.0039C79.3691 22.1992 79.668 22.498 79.668 22.8633C79.668 23.2285 79.3857 23.5273 79.0039 23.5273Z" fill="#272727"/>
<path d="M79.0039 26.1836H69.707C69.3418 26.1836 69.043 25.8848 69.043 25.5195C69.043 25.1543 69.3418 24.8555 69.707 24.8555H79.0039C79.3691 24.8555 79.668 25.1543 79.668 25.5195C79.668 25.8848 79.3857 26.1836 79.0039 26.1836Z" fill="#272727"/>
<path d="M75.0391 28.8398H69.7266C69.3613 28.8398 69.0625 28.541 69.0625 28.1758C69.0625 27.8105 69.3613 27.5117 69.7266 27.5117H75.0391C75.4043 27.5117 75.7031 27.8105 75.7031 28.1758C75.7031 28.541 75.4043 28.8398 75.0391 28.8398Z" fill="#272727"/>
<path d="M67.0703 42.1211H56.4453C56.0801 42.1211 55.7812 41.8223 55.7812 41.457V33.4883C55.7812 33.123 56.0801 32.8242 56.4453 32.8242H67.0703C67.4355 32.8242 67.7344 33.123 67.7344 33.4883V41.457C67.7344 41.8223 67.4355 42.1211 67.0703 42.1211ZM57.1094 40.793H66.4062V34.1523H57.1094V40.793Z" fill="#272727"/>
<path d="M79.0039 35.4805H69.707C69.3418 35.4805 69.043 35.1816 69.043 34.8164C69.043 34.4512 69.3418 34.1523 69.707 34.1523H79.0039C79.3691 34.1523 79.668 34.4512 79.668 34.8164C79.668 35.1816 79.3857 35.4805 79.0039 35.4805Z" fill="#272727"/>
<path d="M79.0039 38.1367H69.707C69.3418 38.1367 69.043 37.8379 69.043 37.4727C69.043 37.1074 69.3418 36.8086 69.707 36.8086H79.0039C79.3691 36.8086 79.668 37.1074 79.668 37.4727C79.668 37.8379 79.3857 38.1367 79.0039 38.1367Z" fill="#272727"/>
<path d="M75.0391 40.793H69.7266C69.3613 40.793 69.0625 40.4941 69.0625 40.1289C69.0625 39.7637 69.3613 39.4648 69.7266 39.4648H75.0391C75.4043 39.4648 75.7031 39.7637 75.7031 40.1289C75.7031 40.4941 75.4043 40.793 75.0391 40.793Z" fill="#272727"/>
<path d="M67.0703 54.0742H56.4453C56.0801 54.0742 55.7812 53.7754 55.7812 53.4102V45.4414C55.7812 45.0762 56.0801 44.7773 56.4453 44.7773H67.0703C67.4355 44.7773 67.7344 45.0762 67.7344 45.4414V53.4102C67.7344 53.7754 67.4355 54.0742 67.0703 54.0742ZM57.1094 52.7461H66.4062V46.1055H57.1094V52.7461Z" fill="#272727"/>
<path d="M79.0039 47.4336H69.707C69.3418 47.4336 69.043 47.1348 69.043 46.7695C69.043 46.4043 69.3418 46.1055 69.707 46.1055H79.0039C79.3691 46.1055 79.668 46.4043 79.668 46.7695C79.668 47.1348 79.3857 47.4336 79.0039 47.4336Z" fill="#272727"/>
<path d="M79.0039 50.0898H69.707C69.3418 50.0898 69.043 49.791 69.043 49.4258C69.043 49.0605 69.3418 48.7617 69.707 48.7617H79.0039C79.3691 48.7617 79.668 49.0605 79.668 49.4258C79.668 49.791 79.3857 50.0898 79.0039 50.0898Z" fill="#272727"/>
<path d="M75.0391 52.7461H69.7266C69.3613 52.7461 69.0625 52.4473 69.0625 52.082C69.0625 51.7168 69.3613 51.418 69.7266 51.418H75.0391C75.4043 51.418 75.7031 51.7168 75.7031 52.082C75.7031 52.4473 75.4043 52.7461 75.0391 52.7461Z" fill="#272727"/>
<path d="M52.46 54.0742H4.66406C4.29883 54.0742 4 53.7754 4 53.4102V45.4414C4 45.0762 4.29883 44.7773 4.66406 44.7773H52.46C52.8252 44.7773 53.124 45.0762 53.124 45.4414V53.4102C53.124 53.7754 52.8252 54.0742 52.46 54.0742ZM5.32812 52.7461H51.7959V46.1055H5.32812V52.7461Z" fill="#272727"/>
<path d="M49.8047 48.7617H12.6172C12.252 48.7617 11.9531 48.4629 11.9531 48.0977C11.9531 47.7324 12.252 47.4336 12.6172 47.4336H49.8047C50.1699 47.4336 50.4688 47.7324 50.4688 48.0977C50.4688 48.4629 50.1699 48.7617 49.8047 48.7617Z" fill="#272727"/>
<path d="M25.8984 51.418H12.6172C12.252 51.418 11.9531 51.1191 11.9531 50.7539C11.9531 50.3887 12.252 50.0898 12.6172 50.0898H25.8984C26.2637 50.0898 26.5625 50.3887 26.5625 50.7539C26.5625 51.1191 26.2637 51.418 25.8984 51.418Z" fill="#272727"/>
<path d="M9.96094 51.418H7.30469C6.93945 51.418 6.64062 51.1191 6.64062 50.7539V48.0977C6.64062 47.7324 6.93945 47.4336 7.30469 47.4336H9.96094C10.3262 47.4336 10.625 47.7324 10.625 48.0977V50.7539C10.625 51.1191 10.3428 51.418 9.96094 51.418ZM7.98535 50.0898H9.31348V48.7617H7.98535V50.0898Z" fill="#272727"/>
</svg>
