<?xml version="1.0" encoding="utf-8"?>
<!-- Generator: Adobe Illustrator 19.2.1, SVG Export Plug-In . SVG Version: 6.00 Build 0)  -->
<svg version="1.1" id="Слой_1" xmlns="http://www.w3.org/2000/svg" xmlns:xlink="http://www.w3.org/1999/xlink" x="0px" y="0px"
	 viewBox="0 0 43 41.4" style="enable-background:new 0 0 43 41.4;" xml:space="preserve">
<g>
	<g>
		<path d="M34.2,14.7l8.6-13c0.2-0.3,0.3-0.8,0.1-1.2S42.3,0,41.9,0H1.1C0.5,0,0,0.5,0,1.1v27.2v11.9c0,0.6,0.5,1.1,1.1,1.1
			s1.1-0.5,1.1-1.1V29.4h39.6c0.4,0,0.8-0.2,1-0.6c0.2-0.4,0.2-0.8-0.1-1.2L34.2,14.7z M2.3,27.2V2.3h37.5l-7.9,11.8
			c-0.3,0.4-0.3,0.9,0,1.3l7.9,11.8H2.3z"/>
		<path d="M24.3,6.9c-0.6-0.3-1.2-0.1-1.5,0.5l-6.1,12.2l-3.4-3.4c-0.4-0.4-1.2-0.4-1.6,0s-0.4,1.2,0,1.6l4.5,4.5
			c0.2,0.2,0.5,0.3,0.8,0.3c0.1,0,0.1,0,0.2,0c0.4-0.1,0.7-0.3,0.8-0.6l6.8-13.6C25.1,7.9,24.8,7.2,24.3,6.9z"/>
	</g>
</g>
</svg>
