<?xml version="1.0" encoding="utf-8"?>
<!-- Generator: Adobe Illustrator 19.2.1, SVG Export Plug-In . SVG Version: 6.00 Build 0)  -->
<svg version="1.1" id="Слой_1" xmlns="http://www.w3.org/2000/svg" xmlns:xlink="http://www.w3.org/1999/xlink" x="0px" y="0px"
	 viewBox="0 0 50.1 52.3" style="enable-background:new 0 0 50.1 52.3;" xml:space="preserve">
<path d="M23.4,39.7v10.8c0,1,0.8,1.8,1.7,1.8h0c1,0,1.7-0.8,1.7-1.8V39.7c3.3-0.8,5.8-3.8,5.8-7.4s-2.5-6.6-5.8-7.4V1.7
	c0-1-0.8-1.7-1.7-1.7h0c-1,0-1.7,0.8-1.7,1.7v23.1c-3.3,0.8-5.8,3.8-5.8,7.4S20,38.9,23.4,39.7z M23.9,28.5c2.9-0.9,5.7,1.4,5.3,4.4
	c-0.2,1.8-1.6,3.2-3.4,3.5c-2.5,0.4-4.7-1.5-4.8-3.9C21,30.7,22.2,29.1,23.9,28.5z M5.8,27.7v22.8c0,1,0.8,1.8,1.7,1.8h0
	c1,0,1.7-0.8,1.7-1.8V27.7c3.3-0.8,5.8-3.8,5.8-7.4s-2.5-6.6-5.8-7.4V1.7c0-1-0.8-1.7-1.7-1.7h0c-1,0-1.7,0.8-1.7,1.7v11.1
	C2.5,13.7,0,16.7,0,20.3S2.5,26.9,5.8,27.7z M7.5,16.3h0.3c2.2,0.1,3.9,1.9,3.9,4.1c0,2.4-2.1,4.4-4.6,4.1c-2-0.2-3.6-2.1-3.6-4.2
	C3.5,18.1,5.3,16.3,7.5,16.3z M40.8,27.7v22.8c0,1,0.8,1.8,1.8,1.8l0,0c1,0,1.8-0.8,1.8-1.8V27.7c3.3-0.8,5.8-3.8,5.8-7.4
	s-2.5-6.6-5.8-7.4V1.7c0-1-0.8-1.7-1.8-1.7l0,0c-1,0-1.8,0.8-1.8,1.7v11.1c-3.3,0.8-5.8,3.8-5.8,7.4S37.5,26.9,40.8,27.7z
	 M41.1,16.5c3-1.2,6.1,1.3,5.6,4.5c-0.2,1.4-1.2,2.6-2.5,3.1c-3,1.2-6.1-1.3-5.6-4.5C38.8,18.2,39.8,17,41.1,16.5z"/>
</svg>
