<?xml version="1.0" encoding="utf-8"?>
<!-- Generator: Adobe Illustrator 19.2.1, SVG Export Plug-In . SVG Version: 6.00 Build 0)  -->
<svg version="1.1" id="Слой_1" xmlns="http://www.w3.org/2000/svg" xmlns:xlink="http://www.w3.org/1999/xlink" x="0px" y="0px"
	 viewBox="0 0 71.8 60" style="enable-background:new 0 0 71.8 60;" xml:space="preserve">
<style type="text/css">
	.st0{fill:none;stroke:#000000;stroke-width:3;stroke-miterlimit:10;}
</style>
<g>
	<g>
		<polygon class="st0" points="15.9,33.4 19.7,41 28.1,42.2 22,48.1 23.4,56.5 15.9,52.5 8.4,56.5 9.8,48.1 3.7,42.2 12.2,41 		"/>
		<polygon class="st0" points="55.5,33.4 59.3,41 67.7,42.2 61.6,48.1 63,56.5 55.5,52.5 48,56.5 49.4,48.1 43.4,42.2 51.8,41 		"/>
		<polygon class="st0" points="37.2,4.2 41,11.8 49.4,13 43.3,19 44.7,27.3 37.2,23.4 29.7,27.3 31.1,19 25,13 33.5,11.8 		"/>
	</g>
</g>
</svg>
