<?xml version="1.0" encoding="utf-8"?>
<!-- Generator: Adobe Illustrator 19.2.1, SVG Export Plug-In . SVG Version: 6.00 Build 0)  -->
<svg version="1.1" id="Слой_1" xmlns="http://www.w3.org/2000/svg" xmlns:xlink="http://www.w3.org/1999/xlink" x="0px" y="0px"
	 viewBox="0 0 61.4 67.6" style="enable-background:new 0 0 61.4 67.6;" xml:space="preserve">
<style type="text/css">
	.st0{fill:none;stroke:#000000;stroke-width:4;stroke-linecap:round;stroke-linejoin:round;stroke-miterlimit:10;}
</style>
<g>
	<path class="st0" d="M55.3,30.9L32.9,64.6L3.3,45l22.4-33.7c5.4-8.2,16.4-10.4,24.6-5l0,0C58.5,11.7,60.7,22.7,55.3,30.9z"/>
	<ellipse transform="matrix(0.553 -0.8331 0.8331 0.553 2.6139 43.8015)" class="st0" cx="42.1" cy="19.5" rx="6.1" ry="6.1"/>
	<path class="st0" d="M37.8,15.1c3.1,1.8,4.9,3.7,4.5,5.1c-0.4,1.3-2.5,2-5.7,2c-2.8,0-6.4-0.5-10.1-1.6c-2-0.6-3.9-1.3-5.6-2
		c-5-2.2-8.1-4.8-7.6-6.6c0.6-2.2,6.1-2.6,12.8-1.1"/>
</g>
</svg>
