<?xml version="1.0" encoding="utf-8"?>
<!-- Generator: Adobe Illustrator 22.1.0, SVG Export Plug-In . SVG Version: 6.00 Build 0)  -->
<svg version="1.1" id="Слой_1" xmlns="http://www.w3.org/2000/svg" xmlns:xlink="http://www.w3.org/1999/xlink" x="0px" y="0px"
	 viewBox="0 0 444 444" style="enable-background:new 0 0 444 444;" xml:space="preserve">
<style type="text/css">
	.st0{fill:#FF1818;}
</style>
<g>
	<path class="st0" d="M0,71.3l0,301.5C0,387.2,11.8,399,26.3,399h391.5c14.5,0,26.3-11.8,26.3-26.3V71.3c0-14.5-11.8-26.3-26.3-26.3
		H26.3C11.8,45,0,56.8,0,71.3z M417.7,60c6.2,0,11.3,5.1,11.3,11.3v301.5c0,6.2-5.1,11.3-11.3,11.3H26.3c-6.2,0-11.3-5.1-11.3-11.3
		V71.3C15,65,20.1,60,26.3,60H417.7z"/>
	<path class="st0" d="M47.9,75v294c0,2.8,2.2,5,5,5h338.2c2.8,0,5-2.2,5-5V75c0-2.8-2.2-5-5-5H52.9C50.1,70,47.9,72.2,47.9,75
		L47.9,75z M386.1,80v284H57.9V80H386.1z"/>
	<path class="st0" d="M406.5,222c0,2,0.8,3.9,2.2,5.3c1.4,1.4,3.3,2.2,5.3,2.2s3.9-0.8,5.3-2.2c1.4-1.4,2.2-3.3,2.2-5.3
		c0-2-0.8-3.9-2.2-5.3c-1.4-1.4-3.3-2.2-5.3-2.2s-3.9,0.8-5.3,2.2C407.3,218.1,406.5,220,406.5,222z"/>
	<path class="st0" d="M37.2,222c0-1.3-0.5-2.6-1.5-3.5s-2.2-1.5-3.5-1.5s-2.6,0.5-3.5,1.5c-0.9,0.9-1.5,2.2-1.5,3.5
		c0,1.3,0.5,2.6,1.5,3.5c0.9,0.9,2.2,1.5,3.5,1.5c1.3,0,2.6-0.5,3.5-1.5C36.7,224.6,37.2,223.3,37.2,222z"/>
</g>
</svg>
