<svg version="1.1" id="" xmlns="http://www.w3.org/2000/svg" xmlns:xlink="http://www.w3.org/1999/xlink" x="0px" y="0px" viewBox="0 0 480 480" style="enable-background:new 0 0 480 480;" xml:space="preserve"><style type="text/css">.st0 {
fill: #555555;
}</style><g><g><path class="st0" d="M478.4,67.2l-24-32c-2.9-3.5-8.1-4-11.7-1.1c-0.4,0.3-0.8,0.7-1.1,1.1l-24,32c-1,1.4-1.6,3.1-1.6,4.8v376c0,17.7,14.3,32,32,32s32-14.3,32-32V72C480,70.3,479.4,68.6,478.4,67.2z M464,448c0,8.8-7.2,16-16,16s-16-7.2-16-16v-16h32V448z M464,416h-32v-16h32V416z M464,384h-32V96h32V384z M464,80h-32v-5.3l16-21.3l16,21.3V80z"/></g></g><g><g><path class="st0" d="M392,0C392,0,392,0,392,0H40c-4.4,0-8,3.6-8,8v136.8C13.4,148.6,0,165,0,184v256c0,22.1,17.9,40,40,40h288c2.1,0,4.2-0.8,5.7-2.3l64-64c0.7-0.7,1.2-1.5,1.6-2.3c0.1-0.2,0.2-0.5,0.3-0.7c0.2-0.7,0.4-1.4,0.4-2.1c0-0.2,0.1-0.3,0.1-0.5V8C400,3.6,396.5,0,392,0z M240,440c0,13.3-10.7,24-24,24H40c-13.3,0-24-10.7-24-24V184c0-13.3,10.7-24,24-24h176c13.3,0,24,10.7,24,24V440z M136,96v48H80V96H136z M80,80V48h56v32H80z M208,96v48h-56V96H208z M152,80V48h56v32H152z M224,144.8V96h56v112h-24v-24C256,165,242.6,148.6,224,144.8z M224,80V48h56v32H224z M336,452.7V416h36.7L336,452.7z M384,400h-56c-4.4,0-8,3.6-8,8v56h-72.2c5.3-6.9,8.2-15.3,8.2-24V224h104c4.4,0,8-3.6,8-8V40c0-4.4-3.6-8-8-8H72c-4.4,0-8,3.6-8,8v104H48V16h336V400z M352,96v112h-56V96H352z M296,80V48h56v32H296z"/></g></g><g><g><path class="st0" d="M216,184H40c-4.4,0-8,3.6-8,8v48c0,4.4,3.6,8,8,8h176c4.4,0,8-3.6,8-8v-48C224,187.6,220.4,184,216,184z M208,232H48v-32h160V232z"/></g></g><g><g><path class="st0" d="M224,328h-48c-4.4,0-8,3.6-8,8v96c0,4.4,3.6,8,8,8h48c4.4,0,8-3.6,8-8v-96C232,331.6,228.4,328,224,328z M216,424h-32v-80h32V424z"/></g></g><g><g><path class="st0" d="M224,264h-48c-4.4,0-8,3.6-8,8v32c0,4.4,3.6,8,8,8h48c4.4,0,8-3.6,8-8v-32C232,267.6,228.4,264,224,264z M216,296h-32v-16h32V296z"/></g></g><g><g><path class="st0" d="M152,328h-48c-4.4,0-8,3.6-8,8v32c0,4.4,3.6,8,8,8h48c4.4,0,8-3.6,8-8v-32C160,331.6,156.4,328,152,328z M144,360h-32v-16h32V360z"/></g></g><g><g><path class="st0" d="M152,264h-48c-4.4,0-8,3.6-8,8v32c0,4.4,3.6,8,8,8h48c4.4,0,8-3.6,8-8v-32C160,267.6,156.4,264,152,264z M144,296h-32v-16h32V296z"/></g></g><g><g><path class="st0" d="M80,328H32c-4.4,0-8,3.6-8,8v32c0,4.4,3.6,8,8,8h48c4.4,0,8-3.6,8-8v-32C88,331.6,84.4,328,80,328z M72,360H40v-16h32V360z"/></g></g><g><g><path class="st0" d="M80,264H32c-4.4,0-8,3.6-8,8v32c0,4.4,3.6,8,8,8h48c4.4,0,8-3.6,8-8v-32C88,267.6,84.4,264,80,264z M72,296H40v-16h32V296z"/></g></g><g><g><path class="st0" d="M152,392h-48c-4.4,0-8,3.6-8,8v32c0,4.4,3.6,8,8,8h48c4.4,0,8-3.6,8-8v-32C160,395.6,156.4,392,152,392z M144,424h-32v-16h32V424z"/></g></g><g><g><path class="st0" d="M80,392H32c-4.4,0-8,3.6-8,8v32c0,4.4,3.6,8,8,8h48c4.4,0,8-3.6,8-8v-32C88,395.6,84.4,392,80,392z M72,424H40v-16h32V424z"/></g></g></svg>
