<svg version="1.1" id="" xmlns="http://www.w3.org/2000/svg" xmlns:xlink="http://www.w3.org/1999/xlink" x="0px" y="0px" viewBox="0 0 512 365" style="enable-background:new 0 0 512 365;" xml:space="preserve"><style type="text/css">.st0 {
fill: #555555;
}</style><g><g><path class="st0" d="M330.4,192.4c-1-3-3.6-5.2-6.7-5.6l-41.7-6.1L263.4,143c-1.4-2.8-4.3-4.6-7.4-4.6c-3.1,0-6,1.8-7.4,4.6l-18.6,37.8l-41.7,6.1c-3.1,0.5-5.7,2.6-6.7,5.6c-1,3-0.2,6.3,2.1,8.5l30.2,29.4l-7.1,41.5c-0.5,3.1,0.7,6.2,3.3,8.1c2.5,1.8,5.9,2.1,8.7,0.6l37.3-19.6l37.3,19.6c1.2,0.6,2.5,0.9,3.8,0.9c1.7,0,3.4-0.5,4.9-1.6c2.5-1.9,3.8-5,3.3-8.1l-7.1-41.5l30.2-29.4C330.6,198.7,331.4,195.4,330.4,192.4z M283.5,221.5c-1.9,1.9-2.8,4.6-2.4,7.3l5,29.3l-26.3-13.8c-2.4-1.3-5.3-1.3-7.7,0l-26.3,13.8l5-29.3c0.5-2.7-0.4-5.4-2.4-7.3l-21.3-20.7l29.4-4.3c2.7-0.4,5-2.1,6.2-4.5l13.2-26.6l13.2,26.6c1.2,2.4,3.5,4.1,6.2,4.5l29.4,4.3L283.5,221.5z"/></g></g><g><g><path class="st0" d="M117.1,144.5c33.7,0,65.4-21,77.2-54.5c1.5-4.3-0.7-9-5-10.6c-20.5-7.3-42.6-6.1-62.2,3.1c5-6.5,10.4-12.8,16.4-18.8c3.2-3.2,3.2-8.5,0-11.7c-3.2-3.2-8.5-3.2-11.7,0c-4.3,4.3-8.3,8.7-12.1,13.2c-0.9-24.6-12.8-48.4-34.3-63.8c-3.7-2.6-8.9-1.8-11.5,1.9c-12.7,17.8-17.7,39.5-14,61c3.4,19.9,13.7,37.6,29.4,50.1c-2.7,6.3-5.1,12.7-7.1,19.2c-1.6-3.6-3.5-7.2-5.7-10.6c-11.7-18.5-29.9-31.3-51.2-36c-2.1-0.5-4.4-0.1-6.2,1.1c-1.9,1.2-3.2,3-3.6,5.2c-9.5,42.5,16.1,84.8,57.4,96.6c-0.2,8.8,0.2,17.5,1.1,26.3c-1.9-1.7-3.9-3.3-6-4.9c-17.6-12.9-39.2-18.3-60.8-15c-4.5,0.7-7.6,4.9-6.9,9.4c3.3,21.6,14.8,40.6,32.4,53.6c14.2,10.4,31,15.9,48.3,15.9c2.8,0,5.6-0.2,8.3-0.4c3.4,7.9,7.3,15.5,11.7,23c-25.6-8.2-54.7-3.7-77,14.5c-3.5,2.9-4.1,8.1-1.2,11.6c13.9,16.9,33.5,27.4,55.2,29.6c2.8,0.3,5.5,0.4,8.3,0.4c16.9,0,33.2-5.2,47-15c9.3,9.1,19.5,17.4,30.2,24.5c1.4,0.9,3,1.4,4.5,1.4c2.7,0,5.3-1.3,6.9-3.7c2.5-3.8,1.5-8.9-2.3-11.5c-10.4-6.9-20.2-14.9-29.1-23.8c-19.9-19.9-34.3-43.3-43.3-68.2c39.3-15.1,61.1-58.2,49.1-99.3c-1.3-4.4-5.9-6.9-10.3-5.6c-21,6.1-38.3,20.1-48.8,39.3c-0.3,0.6-0.6,1.2-1,1.8c0.1-17.6,2.6-35.2,7.7-52.2C103.6,143.7,110.4,144.5,117.1,144.5z M72.4,172.6C45,162.4,27.6,135,30.1,105.9c13.3,4.9,24.6,14,32.4,26.2C70.2,144.3,73.6,158.4,72.4,172.6z M42.3,246.2c-11.6-8.6-20-20.5-24-34.1c0.4,0,0.7,0,1.1,0c28.8,0,54.4,19.1,62.6,46.8C67.8,259.1,54,254.8,42.3,246.2z M79.6,337.3c-14.4-1.4-27.6-7.4-38-17.1c24.9-15.3,57.2-12.1,78.6,7.8C108.1,335.4,94,338.7,79.6,337.3z M104.7,200.2c6.9-12.7,17.6-22.5,30.6-28.3c4.3,28.9-11.3,57.4-37.9,69.3C95.3,227.2,97.8,212.9,104.7,200.2z M133.9,97.6c13-6.2,27.5-7.9,41.4-5c-13.4,26-42.7,40-71.3,34C110.4,114,120.8,103.8,133.9,97.6z M76.2,61.8c-2.4-14.3-0.1-28.6,6.5-41.2c21.3,20,26.7,52,13.1,77.9C85.5,88.8,78.6,76,76.2,61.8z"/></g></g><g><g><path class="st0" d="M431.2,275.4c17.3,0,34.1-5.5,48.3-15.9c17.6-12.9,29.1-32,32.4-53.6c0.7-4.5-2.4-8.7-6.9-9.4c-25.1-3.8-49.2,4.2-66.8,19.9c0.9-8.7,1.3-17.5,1.1-26.3c19.4-5.5,35.8-17.7,46.7-34.9c11.7-18.5,15.5-40.4,10.7-61.7c-1-4.5-5.4-7.3-9.9-6.3c-21.3,4.8-39.5,17.6-51.2,36c-2.2,3.4-4.1,7-5.7,10.6c-2-6.5-4.4-12.9-7.1-19.2c33.5-26.9,40.6-75.7,15.4-111.2c-1.3-1.8-3.2-3-5.4-3.4c-2.2-0.4-4.4,0.1-6.2,1.4c-17.8,12.7-29.6,31.5-33.3,53.1c-0.6,3.5-0.9,7.1-1.1,10.6c-3.8-4.5-7.8-8.9-12-13.2c-3.2-3.2-8.5-3.2-11.7,0c-3.2,3.2-3.2,8.5,0,11.7c6,6,11.4,12.2,16.4,18.8c-19.7-9.3-41.7-10.4-62.2-3.1c-4.3,1.5-6.6,6.2-5,10.6c11.9,33.5,43.5,54.5,77.2,54.5c6.7,0,13.5-0.8,20.2-2.6c5,17,7.6,34.6,7.7,52.2c-9.9-19.3-27.4-34.6-49.8-41.2c-4.4-1.3-9,1.2-10.3,5.6c-6.1,21-3.7,43.1,6.8,62.3c9.4,17.1,24.3,30.1,42.3,37c-8.9,24.9-23.4,48.3-43.3,68.2c-8.9,8.9-18.7,16.9-29.1,23.8c-3.8,2.5-4.9,7.6-2.3,11.5c1.6,2.4,4.2,3.7,6.9,3.7c1.6,0,3.1-0.4,4.5-1.4c10.8-7.1,20.9-15.4,30.2-24.5c14.2,10,30.7,14.9,47.1,14.9c23.7,0,47.2-10.2,63.4-30c1.4-1.7,2-3.9,1.8-6.1c-0.2-2.2-1.3-4.2-3-5.6c-16.9-13.9-38.2-20.3-60-18.1c-5.8,0.6-11.5,1.8-16.9,3.5c4.4-7.4,8.3-15.1,11.7-22.9C425.6,275.3,428.4,275.4,431.2,275.4z M481.9,105.9c1.2,14.2-2.2,28.3-9.9,40.5c-7.7,12.2-19,21.3-32.4,26.2C437.1,143.5,454.5,116.1,481.9,105.9z M493.6,212.1c-8.3,28-34.4,47.2-63.6,46.8C438.3,230.9,464.4,211.6,493.6,212.1z M336.8,92.6c13.9-2.9,28.3-1.2,41.4,5s23.4,16.3,29.9,29C379.4,132.5,350.1,118.6,336.8,92.6z M416.2,98.5c-6.6-12.6-8.9-26.9-6.5-41.2c2.4-14.3,9.3-27,19.7-36.7C442.9,46.5,437.5,78.5,416.2,98.5z M429.8,310.9c14.4-1.4,28.5,1.8,40.6,9.3c-21.4,19.9-53.7,23.1-78.6,7.8C402.2,318.3,415.4,312.3,429.8,310.9z M414.6,241.2c-13-5.8-23.7-15.6-30.6-28.3c-6.9-12.7-9.4-27-7.3-41C403.3,183.8,418.9,212.3,414.6,241.2z"/></g></g></svg>
