<svg version="1.1" id="" xmlns="http://www.w3.org/2000/svg" xmlns:xlink="http://www.w3.org/1999/xlink" x="0px" y="0px" viewBox="0 0 480 384" style="enable-background:new 0 0 480 384;" xml:space="preserve"><style type="text/css">.st0 {
fill: #555555;
}</style><g><g><path class="st0" d="M432,0H224c-26.5,0-48,21.5-48,48v96H48c-26.5,0-48,21.5-48,48v112c0,23.4,16.9,43.4,40,47.3V376c0,4.4,3.6,8,8,8c2.1,0,4.2-0.8,5.7-2.3L83.3,352H256c26.5,0,48-21.5,48-48v-96h92.7l29.7,29.7c3.1,3.1,8.2,3.1,11.3,0c1.5-1.5,2.3-3.5,2.3-5.7v-24.7c23.1-3.9,40-23.9,40-47.3V48C480,21.5,458.5,0,432,0z M288,304c0,17.7-14.3,32-32,32H80c-2.1,0-4.2,0.8-5.7,2.3L56,356.7V344c0-4.4-3.6-8-8-8c-17.7,0-32-14.3-32-32V192c0-17.7,14.3-32,32-32h208c17.7,0,32,14.3,32,32V304z M464,160c0,17.7-14.3,32-32,32c-4.4,0-8,3.6-8,8v12.7l-18.3-18.3c-1.5-1.5-3.5-2.3-5.7-2.3h-96c0-26.5-21.5-48-48-48h-64V48c0-17.7,14.3-32,32-32h208c17.7,0,32,14.3,32,32V160z"/></g></g><g><g><path class="st0" d="M88,224c-13.3,0-24,10.7-24,24s10.7,24,24,24s24-10.7,24-24S101.3,224,88,224z M88,256c-4.4,0-8-3.6-8-8s3.6-8,8-8s8,3.6,8,8S92.4,256,88,256z"/></g></g><g><g><path class="st0" d="M152,224c-13.3,0-24,10.7-24,24s10.7,24,24,24s24-10.7,24-24S165.3,224,152,224z M152,256c-4.4,0-8-3.6-8-8s3.6-8,8-8s8,3.6,8,8S156.4,256,152,256z"/></g></g><g><g><path class="st0" d="M216,224c-13.3,0-24,10.7-24,24s10.7,24,24,24s24-10.7,24-24S229.3,224,216,224z M216,256c-4.4,0-8-3.6-8-8s3.6-8,8-8s8,3.6,8,8S220.4,256,216,256z"/></g></g><g><g><rect x="224" y="48" class="st0" width="144" height="16"/></g></g><g><g><rect x="384" y="48" class="st0" width="48" height="16"/></g></g><g><g><rect x="224" y="80" class="st0" width="48" height="16"/></g></g><g><g><rect x="288" y="80" class="st0" width="96" height="16"/></g></g><g><g><rect x="224" y="112" class="st0" width="208" height="16"/></g></g><g><g><rect x="304" y="144" class="st0" width="64" height="16"/></g></g><g><g><rect x="384" y="144" class="st0" width="48" height="16"/></g></g><g><g><rect x="400" y="80" class="st0" width="32" height="16"/></g></g></svg>
