<svg version="1.1" id="" xmlns="http://www.w3.org/2000/svg" xmlns:xlink="http://www.w3.org/1999/xlink" x="0px" y="0px" viewBox="0 0 479.1 479.1" style="enable-background:new 0 0 479.1 479.1;" xml:space="preserve"><style type="text/css">.st0 {
fill: #555555;
}</style><g><g><path class="st0" d="M202.1,85.8l-14-6.2c-0.6-2.3-1.3-4.6-2.1-6.7l7.8-13.4c1.4-2.4,1.4-5.4,0.1-7.9c-3.8-6.8-8.4-13.2-13.6-19c-1.9-2.2-4.9-3.1-7.8-2.5l-14.7,3.4c-1.7-1.4-3.5-2.7-5.4-4L151,14.1c-0.3-2.8-2-5.3-4.6-6.5c-7-3.3-14.4-5.7-21.9-7.4c-2.9-0.6-5.8,0.4-7.7,2.6l-10.2,11.9h-6.2L90.2,2.8c-1.9-2.2-4.9-3.2-7.7-2.6c-7.6,1.6-14.9,4.1-21.9,7.4c-2.6,1.2-4.3,3.7-4.6,6.5l-1.4,15.5c-1.9,1.3-3.6,2.6-5.4,4l-14.7-3.4c-2.8-0.7-5.8,0.3-7.8,2.5c-5.2,5.8-9.8,12.2-13.6,19c-1.4,2.5-1.4,5.5,0.1,7.9L20.9,73c-0.8,2.1-1.5,4.4-2.1,6.7l-14,6.2C2,87.1,0.1,90,0.1,93.1v21.7c0,3.2,1.9,6,4.8,7.3l14,6.2c0.6,2.3,1.3,4.6,2.1,6.7l-7.8,13.4c-1.4,2.4-1.4,5.4-0.1,7.9c3.8,6.8,8.4,13.2,13.6,19c1.9,2.2,4.9,3.1,7.8,2.5l14.7-3.4c1.7,1.4,3.5,2.7,5.4,4l1.4,15.5c0.3,2.8,2,5.3,4.6,6.5c7,3.3,14.4,5.7,21.9,7.4c2.9,0.6,5.8-0.4,7.7-2.6l10.2-11.9h6.2l10.2,11.9c1.5,1.8,3.7,2.8,6.1,2.8c0.6,0,1.1-0.1,1.6-0.2c7.6-1.6,14.9-4.1,21.9-7.4c2.6-1.2,4.3-3.7,4.6-6.5l1.4-15.5c1.9-1.3,3.6-2.6,5.4-4l14.7,3.4c2.8,0.7,5.8-0.3,7.8-2.5c5.2-5.8,9.8-12.2,13.6-19c1.4-2.5,1.4-5.5-0.1-7.9l-7.8-13.4c0.8-2.1,1.5-4.4,2.1-6.7l14-6.2c2.9-1.3,4.8-4.2,4.8-7.3V93.1C206.9,90,205,87.1,202.1,85.8z M190.9,109.7l-12.8,5.6c-2.3,1-4,3.1-4.6,5.5c-0.9,4.1-2.1,8-3.7,11.9c-1,2.3-0.8,4.9,0.5,7.1l7.3,12.6c-1.9,3-4,6-6.3,8.7l-13.8-3.2c-2.5-0.6-5.2,0.1-7.1,1.8c-3.1,2.7-6.3,5.1-9.8,7.3c-2.1,1.3-3.5,3.6-3.8,6.1l-1.3,14.7c-3.2,1.3-6.5,2.4-9.8,3.3l-9.5-11c-1.5-1.8-3.7-2.8-6.1-2.8H96.7c-2.3,0-4.5,1-6.1,2.8l-9.5,11c-3.3-0.9-6.6-2-9.8-3.3l-1.3-14.7c-0.2-2.5-1.6-4.7-3.8-6.1c-3.5-2.1-6.7-4.6-9.8-7.2c-1.9-1.7-4.6-2.4-7.1-1.8l-13.8,3.2c-2.3-2.8-4.3-5.7-6.3-8.7l7.3-12.6c1.2-2.2,1.4-4.8,0.5-7.1c-1.6-3.8-2.8-7.8-3.7-11.9c-0.6-2.5-2.3-4.5-4.6-5.5l-12.8-5.6V98.3l12.8-5.6c2.3-1,4-3.1,4.6-5.5c0.9-4.1,2.1-8,3.7-11.9c1-2.3,0.8-4.9-0.5-7.1l-7.3-12.6c1.9-3,4-6,6.3-8.7L49.5,50c2.5,0.6,5.2-0.1,7.1-1.8c3.1-2.7,6.3-5.1,9.8-7.3c2.1-1.3,3.5-3.6,3.8-6.1l1.3-14.7c3.2-1.3,6.5-2.4,9.8-3.3l9.5,11c1.5,1.8,3.7,2.8,6.1,2.8h13.5c2.3,0,4.5-1,6.1-2.8l9.5-11c3.3,0.9,6.6,2,9.8,3.3l1.3,14.7c0.2,2.5,1.6,4.7,3.8,6.1c3.5,2.1,6.7,4.6,9.8,7.2c1.9,1.7,4.6,2.4,7.1,1.8l13.8-3.2c2.3,2.8,4.3,5.7,6.3,8.7l-7.3,12.6c-1.2,2.2-1.4,4.8-0.5,7.1c1.6,3.8,2.8,7.8,3.7,11.9c0.6,2.5,2.3,4.5,4.6,5.5l12.8,5.6L190.9,109.7L190.9,109.7z"/></g></g><g><g><path class="st0" d="M103.5,48c-30.9,0-56,25.1-56,56c0,30.9,25.1,56,56,56c30.9,0,56-25.1,56-56S134.4,48,103.5,48z M103.5,144c-22.1,0-40-17.9-40-40c0-22.1,17.9-40,40-40c22.1,0,40,17.9,40,40S125.6,144,103.5,144z"/></g></g><g><g><path class="st0" d="M474.2,71.6l-11-4.9c-0.4-1.5-0.9-3-1.4-4.5l6.2-10.6c1.4-2.4,1.4-5.5,0.1-7.9c-3.2-5.8-7.1-11.2-11.5-16.1c-1.9-2.2-4.9-3.1-7.7-2.5l-11.6,2.7c-1.1-0.9-2.3-1.8-3.5-2.6l-1.1-12.3c-0.3-2.8-2-5.3-4.6-6.5c-5.9-2.8-12.2-4.9-18.6-6.2c-2.9-0.6-5.8,0.4-7.7,2.6l-8.1,9.5h-3.9l-8.1-9.5c-1.9-2.2-4.9-3.2-7.7-2.6c-6.4,1.4-12.6,3.5-18.6,6.2c-2.6,1.2-4.4,3.7-4.6,6.5l-1.1,12.3c-1.2,0.8-2.4,1.7-3.5,2.6l-11.6-2.7c-2.8-0.7-5.8,0.3-7.7,2.5c-4.4,4.9-8.3,10.3-11.5,16.1c-1.4,2.5-1.4,5.5,0.1,7.9l6.1,10.6c-0.5,1.4-1,2.9-1.4,4.5l-11,4.9c-2.9,1.3-4.8,4.1-4.8,7.3v18.1c0,3.2,1.9,6,4.8,7.3l11,4.9c0.4,1.5,0.9,3,1.4,4.5l-6.2,10.6c-1.4,2.4-1.4,5.5-0.1,7.9c3.2,5.8,7.1,11.2,11.5,16.1c1.9,2.2,4.9,3.1,7.8,2.5l11.6-2.7c1.1,0.9,2.3,1.8,3.5,2.6l1.1,12.3c0.3,2.8,2,5.3,4.6,6.5c5.9,2.8,12.2,4.9,18.6,6.2c2.9,0.6,5.8-0.4,7.7-2.6l8.1-9.5h3.9l8.1,9.5c1.5,1.8,3.7,2.8,6.1,2.8c0.6,0,1.1-0.1,1.6-0.2c6.4-1.4,12.6-3.5,18.6-6.2c2.6-1.2,4.4-3.7,4.6-6.5l1.1-12.3c1.2-0.8,2.4-1.7,3.5-2.6l11.6,2.7c2.8,0.7,5.8-0.3,7.7-2.5c4.4-4.9,8.3-10.3,11.5-16.1c1.4-2.5,1.4-5.5-0.1-7.9l-6.2-10.6c0.5-1.4,1-2.9,1.4-4.5l11-4.9c2.9-1.3,4.8-4.1,4.8-7.3V78.9C479,75.8,477.1,72.9,474.2,71.6z M463,91.8l-9.9,4.3c-2.3,1-4,3.1-4.6,5.5c-0.7,3.3-1.7,6.5-3,9.6c-1,2.3-0.8,4.9,0.5,7.1l5.7,9.8c-1.3,2-2.7,3.9-4.2,5.8l-10.7-2.5c-2.5-0.6-5.1,0.1-7.1,1.8c-2.5,2.2-5.2,4.2-8,5.9c-2.1,1.3-3.5,3.6-3.8,6.1l-1,11.4c-2.1,0.8-4.3,1.6-6.5,2.2l-7.3-8.5c-1.5-1.8-3.7-2.8-6.1-2.8h-11.2c-2.3,0-4.5,1-6.1,2.8l-7.3,8.5c-2.1-0.6-4.3-1.3-6.5-2.2l-1-11.4c-0.2-2.5-1.6-4.8-3.8-6.1c-2.8-1.7-5.5-3.7-8-5.9c-1.9-1.7-4.6-2.4-7.1-1.8l-10.7,2.5c-1.5-1.9-2.9-3.8-4.2-5.8l5.7-9.8c1.2-2.2,1.4-4.8,0.5-7.1c-1.3-3.1-2.3-6.4-3-9.6c-0.6-2.5-2.3-4.5-4.6-5.5l-9.9-4.3v-7.7l9.9-4.3c2.3-1,4-3.1,4.6-5.5c0.7-3.3,1.7-6.5,3-9.7c1-2.3,0.8-4.9-0.5-7.1l-5.7-9.8c1.3-2,2.7-3.9,4.2-5.8l10.7,2.5c2.5,0.6,5.1-0.1,7.1-1.8c2.5-2.2,5.2-4.2,8-5.9c2.1-1.3,3.5-3.6,3.8-6.1l1-11.4c2.1-0.8,4.3-1.6,6.5-2.2l7.3,8.5c1.5,1.8,3.7,2.8,6.1,2.8h11.2c2.3,0,4.5-1,6.1-2.8l7.3-8.5c2.1,0.6,4.3,1.3,6.5,2.2l1,11.4c0.2,2.5,1.6,4.8,3.8,6.1c2.8,1.7,5.5,3.7,8,5.9c1.9,1.7,4.6,2.4,7.1,1.8l10.7-2.5c1.5,1.9,2.9,3.8,4.2,5.8l-5.7,9.8c-1.2,2.2-1.4,4.8-0.5,7.1c1.3,3.1,2.3,6.4,3,9.6c0.6,2.5,2.3,4.5,4.6,5.5l9.9,4.3V91.8z"/></g></g><g><g><path class="st0" d="M391.5,48c-22.1,0-40,17.9-40,40c0,22.1,17.9,40,40,40c22.1,0,40-17.9,40-40S413.6,48,391.5,48z M391.5,112c-13.3,0-24-10.7-24-24c0-13.2,10.8-24,24-24c13.3,0,24,10.7,24,24S404.7,112,391.5,112z"/></g></g><g><g><path class="st0" d="M472.2,338.5l-11.6-2.4c-0.5-2-1-4-1.6-6l8.9-8c2.6-2.3,3.4-5.9,2-9.1c-3.9-9-8.8-17.4-14.7-25.2c-2.1-2.7-5.6-3.9-8.9-2.8l-11.2,3.7c-1.4-1.5-2.9-3-4.4-4.4l3.7-11.2c1.1-3.3,0-6.8-2.8-8.9c-7.8-5.9-16.2-10.9-25.2-14.7c-3.2-1.3-6.8-0.5-9.1,2l-8,8.9c-2-0.6-4-1.1-6-1.6l-2.4-11.6c-0.8-3.7-4-6.4-7.8-6.4h-27.3c-3.8,0-7,2.6-7.8,6.4l-2.4,11.6c-2,0.5-4,1-6,1.6l-8-8.9c-2.3-2.5-5.9-3.4-9.1-2c-9,3.9-17.4,8.8-25.2,14.7c-2.7,2.1-3.9,5.6-2.8,8.9l3.7,11.2c-1.5,1.4-3,2.9-4.4,4.4l-11.2-3.7c-3.3-1.1-6.8,0.1-8.9,2.8c-5.9,7.8-10.9,16.2-14.7,25.2c-1.3,3.2-0.5,6.8,2,9.1l8.9,8c-0.6,2-1.1,4-1.6,6l-11.6,2.4c-3.7,0.8-6.4,4-6.4,7.8v27.3c0,3.8,2.6,7,6.4,7.8l11.6,2.4c0.5,2,1,4,1.6,6l-8.9,8c-2.6,2.3-3.4,5.9-2,9.1c3.9,9,8.8,17.4,14.7,25.2c2.1,2.7,5.6,3.9,8.9,2.8l11.2-3.7c1.4,1.5,2.9,3,4.4,4.4l-3.7,11.2c-1.1,3.3,0,6.8,2.8,8.9c7.8,5.9,16.2,10.9,25.2,14.7c3.2,1.4,6.8,0.5,9.1-2l8-8.9c2,0.6,4,1.1,6,1.6l2.4,11.6c0.8,3.7,4,6.4,7.8,6.4h27.3c3.8,0,7-2.6,7.8-6.4l2.4-11.6c2-0.5,4-1,6-1.6l8,8.9c2.3,2.6,5.9,3.4,9.1,2c9-3.9,17.4-8.8,25.2-14.7c2.7-2.1,3.9-5.6,2.8-8.9l-3.7-11.2c1.5-1.4,3-2.9,4.4-4.4l11.2,3.7c3.3,1.1,6.8-0.1,8.9-2.8c5.9-7.8,10.9-16.2,14.7-25.2c1.3-3.2,0.5-6.8-2-9.1l-8.9-8c0.6-2,1.1-4,1.6-6l11.6-2.4c3.7-0.8,6.4-4,6.4-7.8v-27.3C478.6,342.6,475.9,339.3,472.2,338.5z M462.6,367.2l-10.4,2.2c-3.2,0.7-5.6,3.2-6.2,6.4c-0.9,4.7-2.1,9.4-3.8,13.9c-1.1,3.1-0.2,6.5,2.2,8.7l8.4,7.5c-2.1,4.2-4.4,8.2-7.1,12l-10.6-3.5c-3.1-1-6.5-0.1-8.6,2.4c-3.1,3.7-6.5,7.1-10.2,10.2c-2.5,2.1-3.4,5.5-2.4,8.6l3.5,10.6c-3.9,2.6-7.9,5-12,7.1l-7.5-8.4c-2.2-2.4-5.6-3.3-8.7-2.2c-4.5,1.6-9.2,2.9-13.9,3.8c-3.2,0.6-5.7,3-6.4,6.2l-2.2,10.4h-14.3l-2.2-10.4c-0.7-3.2-3.2-5.6-6.4-6.2c-4.7-0.9-9.4-2.1-13.9-3.8h0c-3.1-1.1-6.5-0.2-8.7,2.2l-7.5,8.4c-4.2-2.1-8.2-4.4-12-7.1l3.5-10.6c1-3.1,0.1-6.5-2.4-8.6c-3.7-3.1-7.1-6.5-10.2-10.2c-2.1-2.5-5.5-3.4-8.6-2.4l-10.6,3.5c-2.6-3.9-5-7.9-7.1-12l8.4-7.5c2.4-2.2,3.3-5.6,2.2-8.7c-1.6-4.5-2.9-9.2-3.8-13.9c-0.6-3.2-3-5.7-6.2-6.4l-10.4-2.2v-14.3l10.4-2.2c3.2-0.7,5.6-3.2,6.2-6.4c0.9-4.7,2.1-9.4,3.8-13.9c1.1-3.1,0.2-6.5-2.2-8.7l-8.4-7.5c2.1-4.2,4.4-8.2,7.1-12l10.6,3.5c3.1,1,6.5,0.1,8.6-2.4c3.1-3.7,6.5-7.1,10.2-10.2c2.5-2.1,3.4-5.5,2.4-8.6l-3.5-10.6c3.9-2.6,7.9-5,12-7.1l7.5,8.4c2.2,2.4,5.6,3.3,8.7,2.2c4.5-1.6,9.2-2.9,13.9-3.8c3.2-0.6,5.7-3,6.4-6.2l2.2-10.4h14.3l2.2,10.4c0.7,3.2,3.2,5.6,6.4,6.2c4.7,0.9,9.4,2.1,13.9,3.8c3.1,1.1,6.5,0.2,8.7-2.2l7.5-8.4c4.2,2.1,8.2,4.4,12,7.1l-3.5,10.6c-1,3.1-0.1,6.5,2.4,8.6c3.7,3.1,7.1,6.5,10.2,10.2c2.1,2.5,5.5,3.4,8.6,2.4l10.6-3.5c2.6,3.9,5,7.9,7.1,12l-8.4,7.5c-2.4,2.2-3.3,5.6-2.2,8.7c1.6,4.5,2.9,9.2,3.8,13.9c0.6,3.2,3,5.7,6.2,6.4l10.4,2.2V367.2z"/></g></g><g><g><path class="st0" d="M359.5,288c-39.8,0-72,32.2-72,72c0,39.8,32.2,72,72,72c39.7,0,72-32.3,72-72C431.5,320.2,399.3,288,359.5,288z M359.5,416c-30.9,0-56-25.1-56-56c0-30.9,25.1-56,56-56s56,25.1,56,56S390.4,416,359.5,416z"/></g></g><g><g><rect x="223.5" y="88" class="st0" width="64" height="16"/></g></g><g><g><path class="st0" d="M222.8,348.9c-0.8-1.9-2.3-3.4-4.2-4.2l0,0l-56-24c-4.1-1.7-8.8,0.1-10.5,4.2c-0.4,1-0.6,2.1-0.6,3.2v16h-96V216h-16v136c0,4.4,3.6,8,8,8c0,0,0,0,0,0h104v16c0,4.4,3.6,8,8,8c0,0,0,0,0,0c1.1,0,2.2-0.2,3.1-0.6l56-24C222.7,357.6,224.6,352.9,222.8,348.9z M167.5,363.9v-23.7l27.7,11.9L167.5,363.9z"/></g></g><g><g><path class="st0" d="M385.3,330.9L351,372.2l-17.8-17.8l-11.3,11.3l24,24c1.5,1.5,3.5,2.3,5.7,2.3c0.1,0,0.2,0,0.4,0c2.2-0.1,4.3-1.1,5.8-2.9l40-48L385.3,330.9z"/></g></g></svg>
