<svg version="1.1" id="" xmlns="http://www.w3.org/2000/svg" xmlns:xlink="http://www.w3.org/1999/xlink" x="0px" y="0px" viewBox="0 0 512 511" style="enable-background:new 0 0 512 511;" xml:space="preserve"><style type="text/css">.st0 {
fill: #555555;
}</style><path class="st0" d="M245.6,136.5c-3.1,0-4.2-0.6-12.3-5.7c-3.9-2.4-9.9-6.3-16.4-10.9c-17.3-12.4-27.9-22.7-32.4-31.8c-5.5-11-7.1-23.5-4.6-35.3c2.5-11.8,8.9-21.6,18-27.8c9-6.1,19.5-8,30.4-5.4c7.7,1.8,12.6,5.7,17.3,10.4c4.7-4.7,9.6-8.6,17.3-10.4c10.9-2.6,21.5-0.7,30.4,5.4c9.1,6.2,15.4,16.1,18,27.8c2.5,11.7,0.9,24.2-4.6,35.3c-4.5,9-15.1,19.4-32.4,31.8c-6.5,4.6-12.5,8.5-16.4,10.9C249.8,135.8,248.7,136.5,245.6,136.5z M218.9,38.5c-3.5,0-6.8,1-9.8,3c-4.8,3.3-8.2,8.8-9.7,15.5c-1.6,7.3-0.5,15.1,2.9,22.1c5.5,11.1,31.6,28.6,43.2,35.8c11.7-7.1,37.7-24.7,43.2-35.8c3.5-7,4.5-14.8,2.9-22.1c-1.5-6.7-4.9-12.2-9.7-15.5c-4.3-2.9-9.2-3.7-14.6-2.5c-3.7,0.9-5.6,2.7-11.1,8.5c-1.1,1.2-2.3,2.5-3.7,3.9c-1.9,1.9-4.5,3-7.2,3s-5.3-1.1-7.2-3c-1.3-1.4-2.5-2.7-3.7-3.9c-5.4-5.8-7.3-7.6-11.1-8.5C222,38.7,220.5,38.5,218.9,38.5z"/><path class="st0" d="M165.7,339.4c-0.6,0-1.3-0.1-1.9-0.2c-0.6-0.1-1.3-0.3-1.9-0.6c-0.6-0.2-1.2-0.6-1.7-0.9c-0.5-0.4-1.1-0.8-1.5-1.2c-0.5-0.5-0.9-1-1.2-1.5c-0.4-0.6-0.7-1.1-0.9-1.7c-0.2-0.6-0.4-1.2-0.6-1.9c-0.1-0.6-0.2-1.3-0.2-2c0-2.6,1.1-5.2,2.9-7.1c0.5-0.5,1-0.9,1.5-1.2c0.6-0.4,1.1-0.7,1.7-0.9c0.6-0.2,1.2-0.4,1.9-0.6c1.3-0.3,2.6-0.3,3.9,0c0.6,0.1,1.3,0.3,1.9,0.6c0.6,0.2,1.2,0.6,1.7,0.9c0.5,0.4,1.1,0.8,1.5,1.2c1.9,1.9,2.9,4.4,2.9,7.1c0,0.7-0.1,1.3-0.2,2c-0.1,0.6-0.3,1.3-0.6,1.9c-0.2,0.6-0.6,1.2-0.9,1.7c-0.4,0.5-0.8,1-1.2,1.5c-0.5,0.5-1,0.9-1.5,1.2c-0.6,0.4-1.1,0.7-1.7,0.9c-0.6,0.2-1.2,0.4-1.9,0.6C167,339.4,166.4,339.4,165.7,339.4z"/><path class="st0" d="M512,450.3c-0.6-22.7-19.9-41.2-43-41.2H466V291.3l2.6,1.9c1.8,1.3,3.8,1.9,5.9,1.9c1.5,0,3.1-0.4,4.5-1.1c3.4-1.7,5.5-5.2,5.5-8.9v-49.9c0-3.2-1.5-6.2-4.1-8.1l-134-98.4c-3.5-2.6-8.3-2.6-11.8,0l-60.1,44.2v-15.5c0-5.5-4.5-10-10-10h-37.9c-5.5,0-10,4.5-10,10v58l-16,11.8c-2.6,1.9-4.1,4.9-4.1,8.1v19.2c-32.7-14.2-80.7-13.2-109.6-10.9v-9.5c0-5.5-4.5-10-10-10H10c-5.5,0-10,4.5-10,10v159.5c0,5.5,4.5,10,10,10h67c5.5,0,10-4.5,10-10v-24.1h14.6c1.5,3.9,4.3,13.1,7.9,33.7c10.1,58.5,45.6,90.6,100.1,90.6l260.1,0.1c11.5,0,22.3-4.6,30.4-12.8C508,472.7,512.3,461.8,512,450.3z M446,409.1h-57.7V308.7c0-5.5-4.5-10-10-10h-75.6c-5.5,0-10,4.5-10,10v24.8l-61.9-54l109.7-80.4L446,276.6L446,409.1z M367.2,409.1c-2-9-7-17.4-14.7-23.6l-39.7-34.6v-32.2h55.6v90.4H367.2z M236.7,167.4h17.8v20.2l-17.8,13.1V167.4z M216.6,240.3l124-91.1l124,91.1v25.1l-118.1-86.7c-1.8-1.3-3.8-1.9-5.9-1.9c-2.1,0-4.1,0.6-5.9,1.9l-118.1,86.5V240.3z M67,383.6H20V244.1h47V383.6z M485.7,467.1c-4.2,4.4-9.9,6.8-16,6.8l-260.1-0.1c-55.9,0-74.5-40.3-80.3-74c-2.4-13.7-4.8-24.6-7.1-32.2c-1.9-6.3-5.6-18.1-15.7-18.1H87v-85.8c28.9-2.4,91.1-4.7,115.8,17.9c0.1,0.1,0.1,0.1,0.2,0.2l136.6,119.1c0.1,0.1,0.2,0.2,0.3,0.3c9.6,7.7,11.2,21.8,3.5,31.5c-3.7,4.7-9.1,7.6-15,8.3c-5.9,0.7-11.8-1-16.4-4.7l-114.3-92.7c-4.3-3.5-10.6-2.8-14.1,1.5s-2.8,10.6,1.5,14.1l114.3,92.7c7.6,6.1,16.8,9.3,26.4,9.3c1.6,0,3.2-0.1,4.8-0.3c11.3-1.2,21.3-6.8,28.4-15.6c3.9-4.8,6.5-10.2,7.9-15.9h102.1c12.4,0,22.7,9.8,23.1,21.8C492.2,456.9,489.9,462.7,485.7,467.1z"/></svg>
