<svg version="1.1" id="" xmlns="http://www.w3.org/2000/svg" xmlns:xlink="http://www.w3.org/1999/xlink" x="0px" y="0px" viewBox="0 0 512 426.7" style="enable-background:new 0 0 512 426.7;" xml:space="preserve"><style type="text/css">.st0 {
fill: #555555;
}</style><g transform="translate(1 1)"><g><g><path class="st0" d="M348.9,323.3c-5.1,0-8.5,3.4-8.5,8.5s3.4,8.5,8.5,8.5h8.5h85.3h8.5c5.1,0,8.5-3.4,8.5-8.5s-3.4-8.5-8.5-8.5v-76.8c0-5.1-3.4-8.5-8.5-8.5h-85.3c-5.1,0-8.5,3.4-8.5,8.5V323.3z M365.9,297.7h25.6v25.6h-25.6V297.7z M408.6,323.3v-25.6h25.6v25.6H408.6z M434.2,280.6h-25.6V255h25.6V280.6z M391.5,255v25.6h-25.6V255H391.5z"/><path class="st0" d="M297.7,340.3H290c-5.1,0-8.5,3.4-8.5,8.5s3.4,8.5,8.5,8.5h7.7c5.1,0,8.5-3.4,8.5-8.5S302.8,340.3,297.7,340.3z"/><path class="st0" d="M155.2,368.5c8.5-5.1,16.2-11.1,24.7-17.1c46.1-35.8,73.4-94.7,73.4-156.2v-76.8c0-4.3-2.6-7.7-6-8.5c-35-9.4-64.9-25.6-91.3-41.8c-2.6-1.7-6-1.7-8.5,0C121,84.3,92,100.5,56.2,109.9c-3.4,1.7-6,4.3-6,8.5v76.8c0,61.4,27.3,120.3,73.4,156.2c7.7,6.8,16.2,11.9,24.7,17.1c1.7,0.9,2.6,0.9,4.3,0.9C154.3,369.3,155.2,368.5,155.2,368.5z M133.8,337.8C92,305.3,67.3,251.6,67.3,195.3v-70c33.3-10.2,60.6-24.7,85.3-39.3c24.7,14.5,52.1,29.9,85.3,39.3v70c0,56.3-24.7,110.1-66.6,142.5c-6,5.1-12.8,9.4-18.8,12.8C145.8,347.2,139.8,342.9,133.8,337.8z"/><path class="st0" d="M132.1,121.9l-7.7,3.4c-8.5,4.3-17.1,8.5-25.6,11.1c-3.4,0.9-6,4.3-6,7.7v59.7c0,33.3,9.4,53.8,27.3,81.1c1.7,2.6,4.3,4.3,6.8,4.3c1.7,0,3.4-0.9,4.3-0.9c4.3-2.6,5.1-7.7,2.6-11.9c-16.2-25.6-23.9-43.5-23.9-72.5V150c6.8-2.6,14.5-6,21.3-9.4l7.7-3.4c4.3-1.7,6-6.8,4.3-11.1C141.5,121.9,136.4,120.2,132.1,121.9z"/><path class="st0" d="M505.9,144.9l-80.2-30.1V50.2h8.5c5.1,0,8.5-3.4,8.5-8.5V7.5c0-5.1-3.4-8.5-8.5-8.5H323.3c-5.1,0-8.5,3.4-8.5,8.5v34.1c0,5.1,3.4,8.5,8.5,8.5h8.5v29.4l-29.7-11.1c-0.9-0.6-1.8-1-2.7-1.2c-60.6-7.7-104.1-32.4-141.7-58c-2.6-1.7-6.8-1.7-9.4,0c-38.4,25.6-81.9,50.3-141.7,58C2.4,68.1-1,71.5-1,75.8v118.6c0,77.7,35,151.9,93,197.1c17.4,14.1,36.3,24.9,55.4,32.6c1.1,0.8,2.5,1.3,4,1.5c0.5,0.1,0.8,0.1,1.2,0.1h76.8h93.9h153.6c5.1,0,8.5-3.4,7.7-8.5V387c0.5-1.2,0.9-2.5,0.9-4s-0.3-2.9-0.9-4V196.9l14.5,6c0.9,0.9,2.6,0.9,3.4,0.9c1.7,0,3.4-0.9,5.1-1.7c1.7-1.7,3.4-4.3,3.4-6.8v-42.7C511,149.2,509.3,145.8,505.9,144.9z M331.8,16.1h93.9v17.1h-8.5h-76.8h-8.5V16.1z M408.6,50.2v58L348.9,86V50.2C348.9,50.2,408.6,50.2,408.6,50.2z M468.3,374.5H331.8V272.1c0-5.1-3.4-8.5-8.5-8.5h-26.4c3.8-13.9,6.5-28.2,8-42.7h27h8.5c5.1,0,8.5-3.4,8.5-8.5c0-5.1-3.4-8.5-8.5-8.5v-42.7c0-5.1-3.4-8.5-8.5-8.5h-25.6v-29.9l162.1,67.4L468.3,374.5L468.3,374.5z M323.3,203.8h-17.1c0-3.4,0-6.8,0-9.4v-24.7h17.1V203.8z M16.1,194.4V83.5c64-10.2,110.9-40.1,136.5-57.2c25.6,17.1,72.5,46.9,136.5,57.2v26.5v51.2v33.3c0,3.6-0.1,7.2-0.3,10.8c-0.1,1.9-0.3,4-0.6,6.2c0,0.5,0,1.1,0.1,1.6c-1.5,19-5.1,37.5-10.8,55.3c-0.2,0.4-0.3,0.8-0.4,1.2c-2.8,8.5-6,16.9-9.7,25c0,0,0,0,0,0c-0.8,1.7-1.6,3.5-2.4,5.2c-0.3,0.6-0.6,1.2-0.9,1.9c-0.5,1-1,2-1.5,3c-0.7,1.4-1.5,2.9-2.2,4.3c0,0.1-0.1,0.1-0.1,0.2c-14.4,26.6-33.8,50.2-57.3,68.8c-16.2,12.8-33.3,23-50.3,29.9c-17.1-7.7-34.1-17.1-50.3-29.9C48.5,336.1,16.1,266.9,16.1,194.4z M195.5,404.4c6.1-3.9,12-8.2,17.7-12.9c2.6-2,5.2-4.2,7.7-6.3v23.4h-31.6C191.3,407.3,193.4,405.9,195.5,404.4z M237.9,408.6v-39.3c23.9-24.7,41.8-55.5,53.8-88.7h23v128H237.9z M331.8,408.6v-17.1h136.5v17.1H331.8z M493.9,182.5L306.2,104V87.7l187.7,70.8V182.5z"/></g></g></g></svg>
