<svg version="1.1" id="" xmlns="http://www.w3.org/2000/svg" xmlns:xlink="http://www.w3.org/1999/xlink" x="0px" y="0px" viewBox="0 0 418 466" style="enable-background:new 0 0 418 466;" xml:space="preserve"><style type="text/css">.st0 {
fill: #555555;
}</style><g><path class="st0" d="M409.4,62.4L409.4,62.4c-1.3-4.2-5.4-6.8-9.7-6.4l0,0c-0.1,0-0.2,0-0.3,0c-7.8,0.8-35.7,3.2-69.3-1c-34.9-4.4-83.1-17-114.3-52c-1.7-1.9-4.1-3-6.7-3h-0.2c-2.6,0-5,1.1-6.7,3C171,38.1,123.1,50.6,88.3,55c-37.7,4.8-68.1,1.2-69.8,1l-0.1,0c-4.4-0.6-8.5,2.1-9.7,6.4c-11.7,38.8-13.9,114.7,9,189.7c13.5,44.2,34.4,83.9,62.2,118c32.8,40.3,75,72.3,125.5,95.1c0.9,0.4,2.2,0.8,3.7,0.8h0.2c1.4,0,2.6-0.3,3.7-0.8c50.5-22.8,92.7-54.8,125.4-95.1C366,336,387,296.3,400.5,252C423.3,177.2,421.1,101.2,409.4,62.4z M383.2,246.8c-12.9,42.1-32.8,79.7-58.9,112c-30.2,37.2-69,66.9-115.3,88.4c-46.4-21.6-85.2-51.4-115.3-88.4c-26.1-32.1-46-69.8-58.9-112C11.8,172,17,104.1,23.9,74.7c12.8,0.9,37.4,1.8,66.2-1.7c50.1-6.2,91.1-23.8,118.8-51c27.7,27.1,68.7,44.7,118.8,51c30.5,3.8,55.7,2.6,66.2,1.7C407.8,129.9,395.2,207.7,383.2,246.8z"/><path class="st0" d="M263.9,189c0,5,4,9,9,9s9-4,9-9c0-14.8-8-28.5-22.6-38.5c-7.2-5-15.7-8.8-25.4-11.3V129c0-5-4-9-9-9s-9,4-9,9v7.3c-2.3-0.2-4.6-0.3-7-0.3c-2.6,0-4.9,0.1-7,0.3V129c0-5-4-9-9-9s-9,4-9,9v10.1c-9.6,2.5-18.2,6.3-25.4,11.3c-14.6,10.1-22.6,23.8-22.6,38.5s8,28.5,22.6,38.5c7.2,5,15.7,8.8,25.4,11.3V308c-18.3-6.1-30-18.2-30-31c0-5-4-9-9-9s-9,4-9,9c0,14.8,8,28.5,22.6,38.5c7.2,5,15.7,8.8,25.4,11.3V337c0,5,4,9,9,9s9-4,9-9v-7.3c2.3,0.2,4.6,0.3,7,0.3c2.6,0,4.9-0.1,7-0.3v7.3c0,5,4,9,9,9s9-4,9-9v-10.1c9.6-2.5,18.2-6.3,25.4-11.3c14.6-10.1,22.6-23.8,22.6-38.5s-8-28.5-22.6-38.5c-7.2-5-15.7-8.8-25.4-11.3V158C252.2,164.1,263.9,176.1,263.9,189z M233.9,308v-62c18.3,6.1,30,18.1,30,31C263.9,289.9,252.2,301.9,233.9,308z M215.9,242.4v69.4c-2.1,0.2-4.4,0.3-7,0.3c-2.6,0-4.9-0.1-7-0.3v-69.9c2.3,0.2,4.6,0.3,7,0.3C211.5,242.1,213.8,242.2,215.9,242.4z M201.9,223.7v-69.4c2.1-0.2,4.4-0.3,7-0.3s4.9,0.1,7,0.3v69.9c-2.3-0.2-4.6-0.3-7-0.3C206.2,224,204,223.9,201.9,223.7z M183.9,158v62c-18.3-6.1-30-18.1-30-31C153.9,176.1,165.6,164.1,183.9,158z"/><path class="st0" d="M375.1,89.5c-0.1,0-0.1,0-0.2,0h-4.8c-36.4,0-105-5.8-155.7-44.4c-3.3-2.4-7.6-2.4-10.9,0C152.7,83.7,84.1,89.5,47.8,89.5h-4.9c-4.6,0-8.4,3.4-8.9,7.9c-2.7,21.1-6.7,77.5,14.1,145.3c26,84.8,78.8,147.7,156.9,187c1.4,0.6,2.7,0.9,4,0.9s2.6-0.3,4.1-1c78.1-39.3,130.8-102.2,156.9-187c20.6-67.1,16.7-124,14-145.4C383.2,92.8,379.4,89.5,375.1,89.5z M352.6,237.4L352.6,237.4c-24,78.4-72.3,136.9-143.7,174c-71.2-37.1-119.6-95.7-143.7-174C48,181.1,48.9,132.4,51,107.5c18.3-0.2,45.7-1.8,74.8-8.4c32.1-7.4,60.1-19.3,83.2-35.6c23.1,16.3,51.1,28.3,83.2,35.6c29.1,6.6,56.5,8.3,74.8,8.4C369.1,132.4,369.9,181.1,352.6,237.4z"/></g></svg>
