<svg version="1.1" id="" xmlns="http://www.w3.org/2000/svg" xmlns:xlink="http://www.w3.org/1999/xlink" x="0px" y="0px" viewBox="0 0 66.6 66.4" style="enable-background:new 0 0 66.6 66.4;" xml:space="preserve"><style type="text/css">.st0 {
fill: #555555;
}</style><g><path class="st0" d="M33.3,43.9c4.6,0,8.3-3.7,8.3-8.2s-3.7-8.2-8.3-8.2c-4.6,0-8.4,3.7-8.4,8.2S28.7,43.9,33.3,43.9z M33.3,30c3.2,0,5.8,2.6,5.8,5.8c0,3.2-2.6,5.8-5.8,5.8c-3.2,0-5.9-2.6-5.9-5.8S30.1,30,33.3,30z"/><path class="st0" d="M23.5,8.6l3.9,4l-1,5.6c-0.1,0.5,0.1,1,0.5,1.3c0.4,0.3,0.9,0.3,1.4,0.1l5.1-2.6l5.1,2.6c0.1,0.1,0.3,0.2,0.5,0.1c0.2,0,0.5-0.1,0.9-0.2c0.4-0.3,0.6-0.8,0.5-1.3l-1-5.6l4.1-4c0.4-0.4,0.5-0.8,0.4-1.2c-0.1-0.5-0.4-0.7-1-0.9l-5.7-0.8l-2.5-5.1C34.4,0.3,34,0,33.5,0c0,0,0,0,0,0c-0.5,0-1,0.3-1.1,0.7l-2.5,5.1l-5.7,0.8c-0.5,0.1-0.9,0.4-1,0.9C23,7.9,23.2,8.4,23.5,8.6z M36.6,12.4l0.6,3.8l-3.3-1.8c-0.2-0.1-0.4-0.1-0.6-0.1c-0.2,0-0.4,0-0.6,0.1l-3.4,1.8l0.6-3.8c0.1-0.4-0.1-0.9-0.4-1.2l-2.7-2.6l3.8-0.5c0.4,0,0.7-0.3,1-0.6L33.3,4L35,7.4c0.1,0.4,0.5,0.7,1,0.7c0,0,0,0,0,0l3.8,0.6L37,11.3C36.8,11.6,36.6,12,36.6,12.4z"/><path class="st0" d="M16,25.3c0.2,0,0.5-0.1,0.7-0.3c0.4-0.3,0.6-0.8,0.5-1.3l-1-5.6l4.1-4c0.4-0.4,0.5-0.8,0.4-1.2c-0.1-0.5-0.4-0.7-1-0.9l-5.7-0.8l-2.6-5.2c-0.3-0.5-0.7-0.7-1.1-0.7c-0.5,0-0.9,0.3-1.1,0.7l-2.5,5.1L1,12c-0.5,0.1-0.9,0.4-1,0.9c-0.1,0.5,0,1,0.4,1.2l4.1,4.1l-1,5.6c-0.1,0.5,0.1,1,0.5,1.3c0.4,0.3,0.9,0.3,1.4,0.1l5.1-2.6l5.1,2.6C15.7,25.3,15.8,25.3,16,25.3z M7.1,18C7.3,17.5,7,17,6.8,16.8L4,14.2l3.8-0.5c0.4,0,0.7-0.3,1-0.6l1.7-3.5l1.7,3.4c0.1,0.4,0.5,0.7,1,0.7c0,0,0,0,0,0l3.8,0.5l-2.7,2.6c-0.3,0.3-0.4,0.7-0.4,1.1l0.6,3.8L11,20c-0.4-0.2-0.8-0.2-1.1,0l-3.4,1.8L7.1,18z"/><path class="st0" d="M66.5,13c-0.1-0.4-0.4-0.7-1-0.9l-5.7-0.8l-2.5-5.1c-0.2-0.4-0.6-0.7-1.1-0.7c-0.5,0-1,0.3-1.1,0.7l-2.5,5.1l-5.7,0.8c-0.5,0.1-0.9,0.4-1,0.9c-0.1,0.5,0,1,0.4,1.2l4.1,4l-1,5.6c-0.1,0.5,0.1,1,0.5,1.3c0.4,0.3,0.9,0.3,1.4,0.1l5.1-2.6l5.1,2.6c0.1,0.1,0.3,0.2,0.5,0.2c0.2,0,0.5-0.1,0.9-0.3c0.4-0.3,0.6-0.8,0.5-1.3l-1-5.6l4.1-4l0.1-0.1C66.6,13.7,66.6,13.3,66.5,13z M59.8,16.9c-0.3,0.3-0.4,0.7-0.4,1.1l0.6,3.8l-3.3-1.8c-0.2-0.1-0.4-0.1-0.6-0.1c-0.2,0-0.4,0-0.6,0.1l-3.4,1.8l0.6-3.8c0.1-0.4-0.1-0.9-0.4-1.2l-2.7-2.6l3.8-0.5c0.4,0,0.7-0.3,1-0.6l1.7-3.5l1.7,3.4c0.1,0.4,0.5,0.7,1,0.7c0,0,0,0,0,0l3.8,0.5L59.8,16.9L59.8,16.9z"/><path class="st0" d="M52.1,42.4h-0.6c0.2-1,0.3-2.1,0.3-3.2c0-10.2-8.3-18.5-18.5-18.5c-10.2,0-18.5,8.3-18.5,18.5c0,10.2,8.3,18.5,18.5,18.5c2.4,0,4.8-0.5,7-1.4c0.9,5.8,5.9,10.2,11.8,10.2c6.6,0,12-5.4,12-12C64,47.8,58.7,42.4,52.1,42.4z M33.3,23.3c8.8,0,16,7.2,16,16c0,1.1-0.2,2.3-0.5,3.6c-2.1,0.6-4,1.8-5.5,3.5c-1.9-1.5-4.2-2.3-6.7-2.3H30c-3.8,0-7.2,2-9.1,5.2c-2.3-2.9-3.5-6.4-3.5-9.9C17.3,30.5,24.5,23.3,33.3,23.3z M30,46.5h6.6c2,0,3.7,0.6,5.2,1.8c-0.9,1.6-1.5,3.4-1.6,5.3c-5.8,2.8-12.6,1.8-17.5-2.5C24.1,48.3,26.9,46.5,30,46.5z M61.5,54.5c0,5.2-4.2,9.5-9.5,9.5s-9.5-4.2-9.5-9.5c0-5.1,4.3-9.5,9.5-9.5S61.5,49.4,61.5,54.5z"/><path class="st0" d="M57.5,49.9l-7.1,6.2L47.8,53c-0.5-0.5-1.3-0.6-1.8-0.1c-0.3,0.3-0.4,0.6-0.4,1c0,0.3,0.1,0.6,0.3,0.8l3.4,4.1c0.2,0.2,0.5,0.4,0.8,0.5l0.1,0c0.4,0,0.6-0.1,0.8-0.2l8.2-7.1c0.5-0.5,0.6-1.3,0.1-1.7C58.8,49.5,58,49.5,57.5,49.9z"/></g></svg>
