<svg version="1.1" id="" xmlns="http://www.w3.org/2000/svg" xmlns:xlink="http://www.w3.org/1999/xlink" x="0px" y="0px" viewBox="0 0 87 69.5" style="enable-background:new 0 0 87 69.5;" xml:space="preserve"><style type="text/css">.st0 {
fill: #555555;
}</style><g><path class="st0" d="M85.5,36.8H74.7c-0.8,0-1.5,0.7-1.5,1.5v3.1c-3.5-1.2-8.7-2.5-12.3-2.5c-4,0-6.9,0.7-9.5,1.5l-0.5,0.1c-2.3,0.7-4.3,1.2-6.8,1.2l-10.8-0.3c-2.4-0.1-4.5,1.4-5.1,3.6L8.9,35.7c-1-0.5-2-0.7-3-0.8v0c-2,0-3.9,0.9-4.9,2.5c-0.8,1.1-1.1,2.4-0.9,3.7c0.2,1.4,0.9,2.6,2.1,3.5c1.3,0.9,2.9,2,4.7,3.3c4.1,2.9,9.2,6.4,14.3,9.7c4.3,2.7,7.7,4.8,10.6,6.3c2.8,1.5,5.7,2.8,8,2.8c0,0,0,0,0,0c4.5,0,8.6-0.6,12.4-1.2c6.4-1,12.5-1.9,20.9-0.3v3c0,0.8,0.7,1.5,1.5,1.5h10.8c0.8,0,1.5-0.7,1.5-1.5V38.3C87,37.5,86.3,36.8,85.5,36.8z M84,39.8v26.8h-2.8V39.8H84z M74.7,58.2C74.7,58.2,74.6,58.2,74.7,58.2c-0.4,0-0.8,0.2-1.1,0.5c-0.3,0.3-0.4,0.7-0.4,1.1V62c-8.7-1.5-15.2-0.5-21.5,0.4c-3.9,0.6-7.7,1.1-11.8,1.2c-0.9,0-3.1-0.6-6.6-2.5c-2.7-1.4-6.2-3.5-10.3-6.1c-5-3.2-10.1-6.8-14.2-9.6c-1.9-1.3-3.5-2.5-4.8-3.3c-0.5-0.3-0.8-0.8-0.8-1.3c-0.1-0.5,0.1-1.1,0.4-1.6c0.4-0.5,1.1-1.2,2.2-1.2v0c0.6,0,1.3,0.2,2,0.5l20.8,10c0.8,1.7,2.7,2.9,4.8,3l20.6,0.9c0.4,0,0.8-0.1,1.1-0.4c0.3-0.3,0.5-0.6,0.5-1c0-0.8-0.6-1.5-1.5-1.5l-20.5-0.9c-1.4-0.1-2.4-0.9-2.4-2c0-0.5,0.2-1,0.6-1.4c0.4-0.4,1-0.7,1.7-0.6l10.8,0.3c3,0,5.3-0.7,7.6-1.3l0.5-0.1c2.6-0.8,5.1-1.4,8.7-1.4c3.2,0,8.8,1.4,12.3,2.7v2.1c0,0.4,0.2,0.8,0.5,1.1c0.3,0.3,0.7,0.4,1,0.4c0,0,0,0,0,0c0.4,0,0.8-0.2,1.1-0.5s0.4-0.7,0.4-1.1v-6.8h2v26.8h-2v-6.9C76.1,58.8,75.5,58.2,74.7,58.2z"/><path class="st0" d="M24.8,23.3h4.4c0.1,0.2,0.2,0.4,0.3,0.7L26.4,27c-0.6,0.6-0.6,1.5,0,2.1l4.7,4.7c0.6,0.6,1.5,0.6,2.1,0l3.1-3.1c0.2,0.1,0.4,0.2,0.7,0.3v4.4c0,0.8,0.7,1.5,1.5,1.5h6.7c0.8,0,1.5-0.7,1.5-1.5V31c0.2-0.1,0.4-0.2,0.7-0.3l3.1,3.1c0.6,0.6,1.5,0.6,2.1,0l4.7-4.7c0.6-0.6,0.6-1.5,0-2.1l-3.1-3.1c0.1-0.2,0.2-0.4,0.3-0.7h4.4c0.8,0,1.5-0.7,1.5-1.5v-6.7c0-0.8-0.7-1.5-1.5-1.5h-4.4c-0.1-0.2-0.2-0.4-0.3-0.7l3.1-3.1c0.6-0.6,0.6-1.5,0-2.1L52.4,3c-0.6-0.6-1.5-0.6-2.1,0l-3.1,3.1C47,6,46.8,5.9,46.6,5.9V1.5c0-0.8-0.7-1.5-1.5-1.5l-6.7,0c-0.8,0-1.5,0.7-1.5,1.5v4.3c-0.2,0.1-0.4,0.2-0.7,0.3L33.2,3c-0.3-0.3-0.7-0.4-1.1-0.4c0,0,0,0,0,0c-0.4,0-0.8,0.2-1.1,0.4l-4.7,4.7c-0.6,0.6-0.6,1.5,0,2.1l3.1,3.1c-0.1,0.2-0.2,0.4-0.3,0.7h-4.4c-0.8,0-1.5,0.7-1.5,1.5v6.7C23.3,22.6,24,23.3,24.8,23.3z M31.7,15.5c0.2-0.8,0.5-1.5,0.9-2.1c0.3-0.6,0.2-1.3-0.2-1.8l-2.8-2.8l2.6-2.6L34.9,9c0.5,0.5,1.2,0.6,1.8,0.3c0.7-0.4,1.5-0.7,2.2-0.9c0.6-0.2,1.1-0.8,1.1-1.4V3h3.7v3.9c0,0.7,0.5,1.3,1.1,1.4c0.7,0.2,1.4,0.5,2.1,0.9c0.6,0.3,1.3,0.2,1.8-0.3l2.8-2.8L54,8.8l-2.8,2.8c-0.5,0.5-0.6,1.2-0.2,1.8c0.4,0.7,0.7,1.4,0.9,2.1c0.2,0.6,0.8,1.1,1.4,1.1h3.9v3.7h-3.9c-0.7,0-1.3,0.4-1.4,1.1c-0.2,0.8-0.5,1.5-0.9,2.1c-0.3,0.6-0.2,1.3,0.2,1.8l2.8,2.8l-2.6,2.6l-2.8-2.8c-0.5-0.5-1.2-0.6-1.8-0.2c-0.7,0.4-1.4,0.7-2.1,0.9c-0.6,0.2-1.1,0.8-1.1,1.4v3.9h-3.7v-3.9c0-0.7-0.4-1.3-1.1-1.4c-0.8-0.2-1.5-0.5-2.2-0.9c-0.6-0.3-1.3-0.2-1.8,0.3l-2.8,2.8l-2.6-2.6l2.8-2.8c0.5-0.5,0.6-1.2,0.2-1.8c-0.4-0.7-0.7-1.4-0.9-2.1c-0.2-0.6-0.8-1.1-1.4-1.1h-3.9v-3.7h3.9C30.9,16.6,31.5,16.2,31.7,15.5z"/><path class="st0" d="M41.8,27.4c4.9,0,8.9-4,8.9-8.9c0-4.9-4-8.9-8.9-8.9s-8.9,4-8.9,8.9C32.8,23.4,36.8,27.4,41.8,27.4z M35.8,18.4c0-3.3,2.7-5.9,5.9-5.9s5.9,2.7,5.9,5.9c0,3.3-2.7,5.9-5.9,5.9S35.8,21.7,35.8,18.4z"/></g></svg>
