<?xml version="1.0" encoding="utf-8"?>
<!-- Generator: Adobe Illustrator 22.1.0, SVG Export Plug-In . SVG Version: 6.00 Build 0)  -->
<svg version="1.1" id="Слой_1" xmlns="http://www.w3.org/2000/svg" xmlns:xlink="http://www.w3.org/1999/xlink" x="0px" y="0px"
	 viewBox="0 0 65.3 73.3" style="enable-background:new 0 0 65.3 73.3;" xml:space="preserve">
<style type="text/css">
	.st0{fill:#E5007D;}
</style>
<path class="st0" d="M63.9,61.1L59,24.1c-1-5.2-3.1-8.3-10.5-8.4C47.6,7.9,41,2,33,2S18.4,7.9,17.5,15.8C10,15.9,8,18.8,7,24.3
	L2.1,61.1c0,0.1,0,0.2,0,0.2c0,4.6,3.2,8.3,7.1,8.3h47.6c3.9,0,7.1-3.7,7.1-8.3C63.9,61.2,63.9,61.1,63.9,61.1z M33,5.8
	c5.8,0,10.8,4.2,11.7,9.9H21.3C22.2,10.1,27.2,5.8,33,5.8z M17.4,25.3c-0.7,0.6-1.1,1.4-1.1,2.4c0,1.7,1.4,3,3,3c1.7,0,3-1.4,3-3
	c0-0.9-0.4-1.8-1.1-2.4v-5.7h23.7v5.4c-0.7,0.6-1.1,1.4-1.1,2.4c0,1.7,1.4,3,3,3c1.7,0,3-1.4,3-3c0-0.9-0.4-1.8-1.1-2.4v-5.4
	c5.2,0.1,5.9,1.5,6.6,5.2l4.8,36.7c0,2.4-1.5,4.4-3.3,4.4H9.2c-1.7,0-3.2-2-3.3-4.4l4.8-36.6c0.7-3.7,1.5-5.2,6.7-5.3V25.3z"/>
</svg>
