<?xml version="1.0" encoding="utf-8"?>
<!-- Generator: Adobe Illustrator 22.1.0, SVG Export Plug-In . SVG Version: 6.00 Build 0)  -->
<svg version="1.1" id="Слой_1" xmlns="http://www.w3.org/2000/svg" xmlns:xlink="http://www.w3.org/1999/xlink" x="0px" y="0px"
	 viewBox="0 0 87.1 82.4" style="enable-background:new 0 0 87.1 82.4;" xml:space="preserve">
<style type="text/css">
	.st0{fill:#E5007D;}
</style>
<g>
	<path class="st0" d="M32.5,60.5c0.1,0,0.3,0,0.4-0.1c0.6-0.3,0.9-0.9,0.7-1.6L16.9,7.9c0-0.1-0.1-0.2-0.2-0.2c0,0,0,0,0-0.1
		c0-0.1-0.1-0.2-0.2-0.3l-0.1-0.1h-0.1c0,0-0.1-0.1-0.3-0.1l0,0L4.4,4.7c-0.3-0.1-0.7,0-1,0.2C3.1,5.1,2.9,5.3,2.9,5.7
		c-0.1,0.3,0,0.7,0.2,1c0.2,0.3,0.5,0.5,0.8,0.5l10.9,2.4l16.7,50.1C31.5,60.1,32,60.5,32.5,60.5z"/>
	<path class="st0" d="M40,63.6L40,63.6c-2.1-1.1-4.5-1.2-6.7-0.5c-2.3,0.7-4,2.3-5,4.4c-1,2.2-1.2,4.6-0.5,6.7c0.7,2.3,2.3,4,4.4,5
		c1.2,0.6,2.6,0.9,3.9,0.9c1,0,1.9-0.1,2.8-0.4c2.3-0.7,4-2.3,5-4.4c1-2.2,1.2-4.6,0.5-6.7C43.6,66.5,42.1,64.7,40,63.6z M41.7,74.3
		c-0.8,1.5-2,2.6-3.7,3.2c-1.6,0.6-3.2,0.4-4.8-0.4c-1.5-0.8-2.6-2-3.2-3.7c-0.6-1.6-0.4-3.2,0.4-4.8c0.8-1.5,2-2.6,3.6-3.2
		c0.7-0.2,1.4-0.3,2-0.3c1,0,2,0.2,2.8,0.7c1.5,0.8,2.6,2,3.2,3.6C42.6,71.2,42.5,72.8,41.7,74.3z"/>
	<path class="st0" d="M84.4,55.4c-0.3-0.7-0.9-1-1.6-0.7L47.1,66.5c-0.7,0.3-1,0.9-0.7,1.6c0.1,0.5,0.6,0.9,1.1,0.9
		c0.1,0,0.3,0,0.4-0.1L83.6,57C84.3,56.8,84.6,56.1,84.4,55.4z"/>
	<path class="st0" d="M47.1,32.6c0.2,0.1,0.4,0.1,0.5,0.1c0.5,0,0.9-0.3,1.1-0.7l3-6l4,12.1c0.1,0.5,0.6,0.9,1.1,0.9
		c0.1,0,0.3,0,0.4-0.1c0.6-0.3,0.9-0.9,0.7-1.6l-4-12.1l6,3c0.6,0.2,1.4,0,1.6-0.5c0.2-0.6,0-1.4-0.5-1.6l-8.5-4.3
		c-0.2-0.1-0.3-0.1-0.5-0.1h-0.4c-0.2,0-0.3,0.1-0.5,0.3C51.1,22,51,22.2,51,22.3L46.7,31c-0.2,0.3-0.2,0.7-0.1,1
		C46.7,32.2,46.8,32.5,47.1,32.6z"/>
	<path class="st0" d="M41.6,62.5c0.1,0,0.3,0,0.4-0.1l41.1-13.7c0.7-0.3,1-0.9,0.7-1.6L69.7,4c-0.1-0.3-0.3-0.6-0.6-0.7
		c-0.3-0.1-0.6-0.1-0.9-0.1L26.9,16.9c-0.3,0.1-0.6,0.3-0.7,0.6c-0.1,0.3-0.1,0.6-0.1,0.9l14.4,43.2C40.6,62.1,41.1,62.5,41.6,62.5z
		 M28.9,18.9L67.7,6l13.5,40.7L42.5,59.6L28.9,18.9z"/>
	<circle class="st0" cx="36.1" cy="71.5" r="3.2"/>
</g>
</svg>
