<?xml version="1.0" encoding="utf-8"?>
<!-- Generator: Adobe Illustrator 22.1.0, SVG Export Plug-In . SVG Version: 6.00 Build 0)  -->
<svg version="1.1" id="Слой_1" xmlns="http://www.w3.org/2000/svg" xmlns:xlink="http://www.w3.org/1999/xlink" x="0px" y="0px"
	 viewBox="0 0 52 37.5" style="enable-background:new 0 0 52 37.5;" xml:space="preserve">
<style type="text/css">
	.st0{fill:#E5007D;}
</style>
<g>
	<path class="st0" d="M47.9,0.8H4.1c-1.9,0-3.4,1.5-3.4,3.4v29.1c0,1.9,1.5,3.4,3.4,3.4h43.8c1.9,0,3.4-1.5,3.4-3.4V4.2
		C51.2,2.3,49.7,0.8,47.9,0.8z M3.2,17.9h45.5v15.4c0,0.5-0.4,0.9-0.9,0.9H4.1c-0.5,0-0.9-0.4-0.9-0.9V17.9z M48.8,10.2v5.3H3.2
		v-5.3H48.8z M4.1,3.3h43.8c0.5,0,0.9,0.4,0.9,0.9v3.5H3.2V4.2C3.2,3.7,3.6,3.3,4.1,3.3z"/>
	<path class="st0" d="M8,29.7h9.8c0.7,0,1.2-0.6,1.2-1.2s-0.6-1.2-1.2-1.2H8c-0.7,0-1.2,0.6-1.2,1.2S7.3,29.7,8,29.7z"/>
	<path class="st0" d="M8,24.9h9.8c0.7,0,1.2-0.6,1.2-1.2s-0.6-1.2-1.2-1.2H8c-0.7,0-1.2,0.6-1.2,1.2S7.3,24.9,8,24.9z"/>
	<path class="st0" d="M37.2,30.5c0.7,0,1.3-0.1,1.9-0.4c0.6,0.3,1.2,0.4,1.9,0.4c2.4,0,4.4-2,4.4-4.4c0-2.4-2-4.4-4.4-4.4
		c-0.7,0-1.3,0.1-1.9,0.4c-0.6-0.3-1.2-0.4-1.9-0.4c-2.4,0-4.4,2-4.4,4.4C32.8,28.5,34.8,30.5,37.2,30.5z M39.9,24.5L39.9,24.5
		c0.3-0.3,0.7-0.4,1.2-0.4c1.1,0,1.9,0.9,1.9,1.9c0,1-0.9,1.9-1.9,1.9c-0.4,0-0.8-0.1-1.2-0.4c-0.5-0.4-0.7-0.9-0.7-1.5
		c0-0.4,0.1-0.9,0.4-1.2C39.7,24.8,39.8,24.7,39.9,24.5z M37.1,24.2L37.1,24.2c-0.1,0.3-0.2,0.6-0.3,0.8l0,0.2
		c-0.1,0.3-0.1,0.6-0.1,0.9c0,0.3,0,0.6,0.1,1l0,0.1c0.1,0.3,0.2,0.6,0.3,0.8l0,0c-1-0.1-1.8-0.9-1.8-1.9
		C35.3,25,36.1,24.2,37.1,24.2z"/>
</g>
</svg>
