<?xml version="1.0" encoding="utf-8"?>
<!-- Generator: Adobe Illustrator 22.1.0, SVG Export Plug-In . SVG Version: 6.00 Build 0)  -->
<svg version="1.1" id="Capa_1" xmlns="http://www.w3.org/2000/svg" xmlns:xlink="http://www.w3.org/1999/xlink" x="0px" y="0px"
	 viewBox="0 0 33 33" style="enable-background:new 0 0 33 33;" xml:space="preserve">
<style type="text/css">
	.st0{fill:#E5007D;}
</style>
<path class="st0" d="M33,10L23,0c-0.3-0.3-0.8-0.3-1.1,0l-3.7,3.7c0,0,0,0,0,0s0,0,0,0l-3.6,3.6c0,0,0,0,0,0c0,0,0,0,0,0l-3.6,3.6
	c0,0,0,0,0,0s0,0,0,0l-3.6,3.6c0,0,0,0,0,0s0,0,0,0l-3.6,3.6c0,0,0,0,0,0s0,0,0,0L0,21.9c-0.1,0.1-0.2,0.3-0.2,0.5
	c0,0.2,0.1,0.4,0.2,0.5L10,33c0.1,0.1,0.3,0.2,0.5,0.2c0.2,0,0.4-0.1,0.5-0.2L33,11.1c0.1-0.1,0.2-0.3,0.2-0.5
	C33.2,10.4,33.2,10.2,33,10z M4.2,19.7l1.9,1.9c0.1,0.1,0.3,0.2,0.5,0.2c0.2,0,0.4-0.1,0.5-0.2c0.3-0.3,0.3-0.8,0-1.1l-1.9-1.9
	l2.5-2.5l3.5,3.5c0.1,0.1,0.3,0.2,0.5,0.2c0.2,0,0.4-0.1,0.5-0.2c0.1-0.1,0.2-0.3,0.2-0.5c0-0.2-0.1-0.4-0.2-0.5l-3.5-3.5l2.5-2.5
	l1.9,1.9c0.1,0.1,0.3,0.2,0.5,0.2c0.2,0,0.4-0.1,0.5-0.2c0.1-0.1,0.2-0.3,0.2-0.5c0-0.2-0.1-0.4-0.2-0.5l-1.9-1.9l2.5-2.5l3.5,3.5
	c0.1,0.1,0.3,0.2,0.5,0.2c0.2,0,0.4-0.1,0.5-0.2c0.1-0.1,0.2-0.3,0.2-0.5s-0.1-0.4-0.2-0.5l-3.5-3.5l2.5-2.5l1.9,1.9
	c0.1,0.1,0.3,0.2,0.5,0.2c0.2,0,0.4-0.1,0.5-0.2c0.1-0.1,0.2-0.3,0.2-0.5s-0.1-0.4-0.2-0.5l-1.9-1.9l2.7-2.7l9,9L10.6,31.4l-9-9
	L4.2,19.7z"/>
</svg>
