<?xml version="1.0" encoding="utf-8"?>
<!-- Generator: Adobe Illustrator 22.1.0, SVG Export Plug-In . SVG Version: 6.00 Build 0)  -->
<svg version="1.1" id="Слой_1" xmlns="http://www.w3.org/2000/svg" xmlns:xlink="http://www.w3.org/1999/xlink" x="0px" y="0px"
	 viewBox="0 0 232.5 222" style="enable-background:new 0 0 232.5 222;" xml:space="preserve">
<style type="text/css">
	.st0{fill:#E5007D;}
</style>
<path class="st0" d="M208.6,209.2l-57.5-48.6c-14.5,12.5-32.7,19.6-52.2,19.9c-45,0.8-82.9-35.3-83.8-80.6l0-1.6
	c-0.4-44.9,35.8-81.8,80.7-82.2c0.5,0,1,0,1.6,0c44.6,0,81.3,35.9,82.2,80.7c0.4,19.3-5.9,37.8-17.8,52.7l57.9,48.9L208.6,209.2z
	 M97.4,28.5c-0.4,0-0.9,0-1.3,0H96c-38.1,0.4-68.8,31.6-68.4,69.7l0,1.4c0.7,38.5,32.9,69.1,71.1,68.4c18.6-0.3,36-7.9,49-21.4
	c12.9-13.4,19.9-31.1,19.5-49.7C166.4,59,135.3,28.5,97.4,28.5z"/>
</svg>
