<?xml version="1.0" encoding="utf-8"?>
<!-- Generator: Adobe Illustrator 22.1.0, SVG Export Plug-In . SVG Version: 6.00 Build 0)  -->
<svg version="1.1" id="Слой_2" xmlns="http://www.w3.org/2000/svg" xmlns:xlink="http://www.w3.org/1999/xlink" x="0px" y="0px"
	 viewBox="0 0 352 396" style="enable-background:new 0 0 352 396;" xml:space="preserve">
<style type="text/css">
	.st0{fill:#E5007D;}
</style>
<g>
	<path class="st0" d="M177.2,215.3c-47.9,0-86.9-47.2-86.9-105.2S129.3,5,177.2,5c47.9,0,86.9,47.2,86.9,105.2
		S225.1,215.3,177.2,215.3z M177.2,25c-36.9,0-66.9,38.2-66.9,85.2s30,85.2,66.9,85.2s66.9-38.2,66.9-85.2S214.1,25,177.2,25z"/>
</g>
<g>
	<path class="st0" d="M182.5,390c-27.4,0-55-1.6-79.7-4.8c-23.1-3-42-7.2-56.2-12.4c-18.3-6.8-28.4-15.3-31-26
		c-7.1-29-2.9-50.6,1.8-63.6c6.2-17.1,17-29.2,29-32.4c12.5-3.3,55.6-25.8,71.2-34.1l9.5,17.6c-5.9,3.2-58.5,31.4-75.5,35.9
		c-8.8,2.3-27.2,28-16.5,72c1,4.1,15.6,16.2,70.4,23.4c41.4,5.4,93.7,6.1,136.4,1.9c24.3-2.4,44.6-6.3,58.5-11.2
		c14.5-5.2,18.5-10.1,18.6-12.1c2.4-57.3-6.1-74.3-9.3-75.7c-2.7-0.8-68.1-20.5-86.1-35.1l12.6-15.5c11.4,9.3,58.3,25.2,79.2,31.5
		c10.5,3.2,17.3,14.3,20.9,34c2.8,15.4,3.6,36.1,2.6,61.6c-0.5,12.7-11.3,22.8-31.9,30.1c-15.7,5.5-36.9,9.7-63.2,12.3
		C224.4,389,203.5,390,182.5,390z"/>
</g>
</svg>
